<svg width="299" height="664" viewBox="0 0 299 664" fill="none" xmlns="http://www.w3.org/2000/svg">
<rect x="0.5" width="96" height="68" rx="12" fill="#1B4B66"/>
<path d="M44.2278 24.242C45.7538 24.242 47.1398 24.858 47.1398 26.748C47.1398 28.652 45.7538 29.268 44.2278 29.268H41.2318C39.6498 29.268 38.2358 28.652 38.2358 26.748C38.2358 24.858 39.6498 24.242 41.2318 24.242H44.2278ZM43.8638 16.892L43.5838 18.292H41.3298V19.216C41.3298 19.51 41.3858 19.832 41.5818 20.042C42.4498 21.008 43.3318 21.834 44.3118 22.66L43.1918 23.738C42.1978 22.94 41.2598 22.114 40.3778 21.204C39.4958 22.17 38.4458 23.178 37.4238 24.046L36.2478 23.024C37.2278 22.142 38.2358 21.274 39.0898 20.154C39.2718 19.916 39.3978 19.594 39.3978 19.3V18.292H36.8918V16.892H43.8638ZM45.1938 24.074V20.63H42.7998V19.244H45.1938V16.57L47.0978 16.29V23.794L45.1938 24.074ZM44.0458 25.628H41.3858C40.6298 25.628 40.1118 25.936 40.1118 26.748C40.1118 27.574 40.6298 27.882 41.3858 27.882H44.0458C44.7458 27.882 45.2638 27.574 45.2638 26.748C45.2638 25.936 44.7458 25.628 44.0458 25.628ZM48.864 26.006H54.016V23.206H50.656V16.948H59.182V18.334H52.602V21.806H59.434L59.154 23.206H56.032V26.006H61.002L60.722 27.434H48.864V26.006ZM26.0805 46.158V44.464H23.5605V43.064H26.0805V41.734H23.9245C22.9585 43.82 20.5225 45.542 18.2405 46.228L17.3305 45.01C20.1165 44.24 22.3425 41.986 22.3425 40.516V40.32H18.0585V38.92H24.3585V39.886C24.3585 40.04 24.3445 40.194 24.3305 40.334H26.0805V38.57L27.9845 38.29V45.878L26.0805 46.158ZM25.1145 46.242C26.6405 46.242 28.0265 46.858 28.0265 48.748C28.0265 50.652 26.6405 51.268 25.1145 51.268H22.1185C20.5365 51.268 19.1225 50.652 19.1225 48.748C19.1225 46.858 20.5365 46.242 22.1185 46.242H25.1145ZM24.9325 47.628H22.2725C21.5165 47.628 20.9985 47.936 20.9985 48.748C20.9985 49.574 21.5165 49.882 22.2725 49.882H24.9325C25.6325 49.882 26.1505 49.574 26.1505 48.748C26.1505 47.936 25.6325 47.628 24.9325 47.628ZM38.8227 46.032V44.17H36.6527V43.722C36.1067 44.758 34.8887 45.304 33.5587 45.304C31.7527 45.304 30.1567 44.296 30.1567 42.42V41.594C30.1567 39.718 31.7527 38.71 33.5587 38.71C34.8887 38.71 36.1067 39.256 36.6527 40.306V39.564H38.8227V38.57L40.7127 38.29V45.752L38.8227 46.032ZM37.8567 46.242C39.3827 46.242 40.7687 46.858 40.7687 48.748C40.7687 50.652 39.3827 51.268 37.8567 51.268H34.8607C33.2787 51.268 31.8647 50.652 31.8647 48.748C31.8647 46.858 33.2787 46.242 34.8607 46.242H37.8567ZM37.6747 47.628H35.0147C34.2587 47.628 33.7407 47.936 33.7407 48.748C33.7407 49.574 34.2587 49.882 35.0147 49.882H37.6747C38.3747 49.882 38.8927 49.574 38.8927 48.748C38.8927 47.936 38.3747 47.628 37.6747 47.628ZM35.0707 42.364V41.65C35.0707 40.67 34.4127 40.11 33.5587 40.11C32.7047 40.11 32.0467 40.67 32.0467 41.65V42.364C32.0467 43.344 32.7047 43.904 33.5587 43.904C34.4127 43.904 35.0707 43.344 35.0707 42.364ZM36.9607 42.42C36.9607 42.546 36.9467 42.658 36.9327 42.77H38.8227V40.95H36.8907C36.9327 41.16 36.9607 41.37 36.9607 41.594V42.42ZM53.4549 38.29V50.96L51.5649 51.24V38.57L53.4549 38.29ZM47.7009 46.676V50.554L45.7969 50.834V46.732H42.8989V45.332H45.4189C47.1129 45.332 49.3389 45.234 51.0469 44.926V46.354C49.9969 46.522 48.8209 46.62 47.7009 46.676ZM50.2209 41.328V41.762C50.2209 43.554 48.6529 44.52 46.9169 44.52C45.1809 44.52 43.6129 43.554 43.6129 41.762V41.328C43.6129 39.536 45.1809 38.57 46.9169 38.57C48.6529 38.57 50.2209 39.536 50.2209 41.328ZM48.3309 41.678V41.412C48.3309 40.488 47.7009 39.97 46.9169 39.97C46.1329 39.97 45.5029 40.488 45.5029 41.412V41.678C45.5029 42.602 46.1329 43.12 46.9169 43.12C47.7009 43.12 48.3309 42.602 48.3309 41.678ZM62.7111 41.202C62.7111 42.826 61.2551 43.736 59.6031 43.736C57.9511 43.736 56.4951 42.826 56.4951 41.202V40.894C56.4951 39.27 57.9511 38.36 59.6031 38.36C61.2551 38.36 62.7111 39.27 62.7111 40.894V41.202ZM64.3071 47.964V47.138H61.4371V45.808H64.3071V38.57L66.1971 38.29V47.684L64.3071 47.964ZM66.2811 51.044H57.9651V47.88H59.8971V49.644H66.5611L66.2811 51.044ZM60.3591 45.486V47.544H58.4411V45.57H55.6411V44.226H58.5951C59.9671 44.226 61.9831 44.1 63.7891 43.736V45.108C62.7251 45.304 61.5631 45.416 60.3591 45.486ZM60.8771 41.188V40.908C60.8771 40.138 60.3031 39.704 59.6031 39.704C58.9031 39.704 58.3291 40.138 58.3291 40.908V41.188C58.3291 41.958 58.9031 42.392 59.6031 42.392C60.3031 42.392 60.8771 41.958 60.8771 41.188ZM69.1813 43.386C69.1813 42.084 70.4273 41.034 72.3733 41.034C74.3193 41.034 75.5653 42.084 75.5653 43.386V43.834C75.5653 44.87 74.7673 45.752 73.4653 46.074V47.474C74.4873 47.418 75.6213 47.32 76.5313 47.166V48.552C74.5293 48.832 72.3873 48.916 70.2313 48.916H68.3833V47.516H71.4913V46.116C70.0493 45.85 69.1813 44.926 69.1813 43.834V43.386ZM77.0493 38.57L78.9393 38.29V50.82L77.0493 51.1V38.57ZM75.9573 40.754H68.5793V39.354H71.4073V38.43L73.3393 38.15V39.354H76.2373L75.9573 40.754ZM73.7453 43.512C73.7453 42.826 73.1853 42.364 72.3733 42.364C71.5613 42.364 71.0013 42.826 71.0013 43.512V43.708C71.0013 44.394 71.5613 44.856 72.3733 44.856C73.1853 44.856 73.7453 44.394 73.7453 43.708V43.512Z" fill="white"/>
<rect x="101.5" width="96" height="68" rx="12" fill="#1B4B66"/>
<path d="M132.486 27.486V31.742H133.746V27.57L135.51 27.29V39.82L133.746 40.1V33.156H132.486V39.414L130.75 39.694V27.766L132.486 27.486ZM129.504 29.586H126.998V35.27H127.712C128.524 35.27 129.434 35.214 130.232 35.032V36.39C129.42 36.558 128.44 36.628 127.418 36.628H125.206V28.2H129.504V29.586ZM149.26 37.006L148.98 38.434H137.122V37.006H140.118V34.696H142.036V37.006H144.318V34.696H146.236V37.006H149.26ZM140.02 29.698H141.924L141.994 32.764H144.388L144.486 29.698H146.404L146.278 32.764H148.308L148.028 34.15H138.326V32.764H140.076L140.02 29.698ZM147.58 29.208H138.774V27.808H147.58V29.208ZM160.84 27.29V39.82L158.95 40.1V27.57L160.84 27.29ZM155.184 34.038V30.748C155.184 29.74 154.834 29.152 153.854 29.152C152.874 29.152 152.524 29.74 152.524 30.748V34.038C152.524 35.046 152.874 35.648 153.854 35.648C154.834 35.648 155.184 35.046 155.184 34.038ZM157.088 30.706V34.094C157.088 35.97 155.8 37.062 153.854 37.062C151.908 37.062 150.62 35.97 150.62 34.094V30.706C150.62 28.83 151.908 27.738 153.854 27.738C155.8 27.738 157.088 28.83 157.088 30.706ZM173.19 27.29V32.078H175.206L174.926 33.646H173.19V39.82L171.272 40.1V27.57L173.19 27.29ZM167.492 27.934V31.616C167.492 31.91 167.576 32.218 167.744 32.442C168.472 33.422 169.578 34.766 170.53 35.83L169.41 36.908C168.43 35.872 167.24 34.556 166.526 33.604C165.7 34.654 164.496 36.138 163.502 37.216L162.326 36.194C163.278 35.088 164.398 33.744 165.224 32.554C165.392 32.316 165.532 31.994 165.532 31.7V28.214L167.492 27.934Z" fill="white"/>
<rect x="202.5" width="96" height="68" rx="12" fill="#1B4B66"/>
<path d="M242.727 27.29V39.82L240.837 40.1V27.57L242.727 27.29ZM237.071 34.038V30.748C237.071 29.74 236.721 29.152 235.741 29.152C234.761 29.152 234.411 29.74 234.411 30.748V34.038C234.411 35.046 234.761 35.648 235.741 35.648C236.721 35.648 237.071 35.046 237.071 34.038ZM238.975 30.706V34.094C238.975 35.97 237.687 37.062 235.741 37.062C233.795 37.062 232.507 35.97 232.507 34.094V30.706C232.507 28.83 233.795 27.738 235.741 27.738C237.687 27.738 238.975 28.83 238.975 30.706ZM255.077 27.29V32.078H257.093L256.813 33.646H255.077V39.82L253.159 40.1V27.57L255.077 27.29ZM249.379 27.934V31.616C249.379 31.91 249.463 32.218 249.631 32.442C250.359 33.422 251.465 34.766 252.417 35.83L251.297 36.908C250.317 35.872 249.127 34.556 248.413 33.604C247.587 34.654 246.383 36.138 245.389 37.216L244.213 36.194C245.165 35.088 246.285 33.744 247.111 32.554C247.279 32.316 247.419 31.994 247.419 31.7V28.214L249.379 27.934ZM258.439 32.386C258.439 31.084 259.685 30.034 261.631 30.034C263.577 30.034 264.823 31.084 264.823 32.386V32.834C264.823 33.87 264.025 34.752 262.723 35.074V36.474C263.745 36.418 264.879 36.32 265.789 36.166V37.552C263.787 37.832 261.645 37.916 259.489 37.916H257.641V36.516H260.749V35.116C259.307 34.85 258.439 33.926 258.439 32.834V32.386ZM266.307 27.57L268.197 27.29V39.82L266.307 40.1V27.57ZM265.215 29.754H257.837V28.354H260.665V27.43L262.597 27.15V28.354H265.495L265.215 29.754ZM263.003 32.512C263.003 31.826 262.443 31.364 261.631 31.364C260.819 31.364 260.259 31.826 260.259 32.512V32.708C260.259 33.394 260.819 33.856 261.631 33.856C262.443 33.856 263.003 33.394 263.003 32.708V32.512Z" fill="white"/>
<path d="M149.5 76L299 112H0L149.5 76Z" fill="url(#paint0_linear_3510_26236)"/>
<rect y="120" width="299" height="46" rx="12" fill="#4B84F0"/>
<path d="M112.882 137.2L112.602 138.586H110.362V140.882C110.362 141.176 110.432 141.484 110.614 141.708C111.384 142.66 112.364 143.78 113.316 144.844L112.196 145.922C111.216 144.886 110.18 143.78 109.396 142.87C108.542 143.892 107.464 145.124 106.456 146.216L105.28 145.194C106.246 144.074 107.24 142.982 108.094 141.82C108.262 141.582 108.402 141.26 108.402 140.966V138.586H105.91V137.2H112.882ZM115.85 136.29V141.106H117.866L117.586 142.674H115.85V148.82L113.932 149.1V136.57L115.85 136.29ZM129.867 143.136H127.319V143.962H128.285V147.168H121.775V147.882H128.719L128.439 149.156H119.829V145.936H126.353V145.222H119.801V143.962H120.879V143.136H118.009V141.764H130.147L129.867 143.136ZM125.485 136.416C127.095 136.416 128.537 136.962 128.537 138.698C128.537 140.434 127.095 140.98 125.485 140.98H122.615C121.005 140.98 119.563 140.434 119.563 138.698C119.563 136.962 121.005 136.416 122.615 136.416H125.485ZM125.485 137.76H122.629C121.985 137.76 121.439 138.026 121.439 138.698C121.439 139.37 121.985 139.636 122.629 139.636H125.485C126.115 139.636 126.661 139.37 126.661 138.698C126.661 138.026 126.115 137.76 125.485 137.76ZM122.839 143.136V143.962H125.345V143.136H122.839ZM141.097 138.18H137.821C137.821 138.474 137.835 138.768 138.073 138.922C139.193 139.664 140.579 140.42 141.937 141.05L141.153 142.296C139.781 141.666 137.933 140.798 136.827 140.084C135.791 140.77 133.943 141.722 132.459 142.408L131.661 141.176C133.103 140.49 134.489 139.72 135.511 139.02C135.763 138.838 135.819 138.544 135.819 138.18H132.375V136.78H141.377L141.097 138.18ZM142.609 144.27H138.185V146.552H136.225V144.27H130.751V142.87H142.889L142.609 144.27ZM141.125 149.044H132.571V145.39H134.517V147.644H141.405L141.125 149.044ZM155.631 143.528L155.351 144.914H150.633V148.932L148.673 149.212V144.914H143.493V143.528H155.631ZM150.563 136.612V137.984C150.563 138.278 150.591 138.642 150.815 138.81C151.837 139.58 153.615 140.742 154.861 141.498L153.825 142.674C152.565 141.932 150.605 140.77 149.611 140C148.575 140.756 146.671 141.988 145.285 142.758L144.235 141.596C145.579 140.798 147.231 139.706 148.253 138.894C148.477 138.712 148.561 138.334 148.561 138.04V136.892L150.563 136.612ZM166.861 136.29V140.448H168.793L168.513 141.862H166.861V145.376L164.929 145.656V136.57L166.861 136.29ZM156.445 142.926H158.601V139.846H160.463V142.926C161.695 142.884 163.249 142.772 164.439 142.576V143.962C162.451 144.242 160.295 144.326 158.139 144.326H156.445V142.926ZM166.931 149.044H158.615V145.11H160.547V147.644H167.211L166.931 149.044ZM161.877 138.208H157.033V136.808H163.879C163.823 138.264 163.613 140.798 163.277 141.974H161.401C161.709 140.938 161.877 139.104 161.877 138.208ZM174.227 140.714V138.502H169.957V137.116H176.145V142.086H171.903V144.326H172.911C174.185 144.326 176.131 144.27 177.475 143.99V145.376C176.047 145.614 174.059 145.712 172.743 145.712H169.957V140.714H174.227ZM179.939 136.29V148.82L178.035 149.1V136.57L179.939 136.29ZM189.335 137.2L189.055 138.586H186.815V140.882C186.815 141.176 186.885 141.484 187.067 141.708C187.837 142.66 188.817 143.78 189.769 144.844L188.649 145.922C187.669 144.886 186.633 143.78 185.849 142.87C184.995 143.892 183.917 145.124 182.909 146.216L181.733 145.194C182.699 144.074 183.693 142.982 184.547 141.82C184.715 141.582 184.855 141.26 184.855 140.966V138.586H182.363V137.2H189.335ZM192.303 136.29V141.106H194.319L194.039 142.674H192.303V148.82L190.385 149.1V136.57L192.303 136.29Z" fill="white"/>
<rect y="174" width="147" height="46" rx="12" fill="#FF8D24"/>
<path d="M52.3545 192.18H49.0785C49.0785 192.474 49.0925 192.768 49.3305 192.922C50.4505 193.664 51.8365 194.42 53.1945 195.05L52.4105 196.296C51.0385 195.666 49.1905 194.798 48.0845 194.084C47.0485 194.77 45.2005 195.722 43.7165 196.408L42.9185 195.176C44.3605 194.49 45.7465 193.72 46.7685 193.02C47.0205 192.838 47.0765 192.544 47.0765 192.18H43.6325V190.78H52.6345L52.3545 192.18ZM53.8665 198.27H49.4425V200.552H47.4825V198.27H42.0085V196.87H54.1465L53.8665 198.27ZM52.3825 203.044H43.8285V199.39H45.7745V201.644H52.6625L52.3825 203.044ZM63.8087 197.528V194.336H61.9187V196.646L60.0287 196.926H55.6187V190.654H57.5087V192.474H60.0287V190.654H61.9187V192.978H63.8087V190.57L65.7127 190.29V197.248L63.8087 197.528ZM65.7127 198.018V202.75L63.7807 203.1H57.4527V198.018H59.3707V199.292H63.7807V198.018H65.7127ZM59.3707 201.728H63.7807V200.65H59.3707V201.728ZM57.5087 195.54H60.0287V193.874H57.5087V195.54ZM75.2349 191.2L74.9549 192.586H72.7009V194.882C72.7009 195.176 72.7709 195.484 72.9529 195.708C73.7229 196.66 74.7169 197.78 75.6689 198.844L74.5489 199.922C73.5689 198.886 72.5329 197.78 71.7489 196.87C70.8949 197.892 69.8169 199.124 68.8089 200.216L67.6329 199.194C68.5989 198.074 69.6069 196.982 70.4609 195.82C70.6289 195.582 70.7689 195.26 70.7689 194.966V192.586H68.2629V191.2H75.2349ZM78.4549 190.29V202.82L76.5509 203.1V190.57L78.4549 190.29ZM87.7111 193.202C87.7111 194.826 86.2551 195.736 84.6031 195.736C82.9511 195.736 81.4951 194.826 81.4951 193.202V192.894C81.4951 191.27 82.9511 190.36 84.6031 190.36C86.2551 190.36 87.7111 191.27 87.7111 192.894V193.202ZM89.3071 199.964V199.138H86.4371V197.808H89.3071V190.57L91.1971 190.29V199.684L89.3071 199.964ZM91.2811 203.044H82.9651V199.88H84.8971V201.644H91.5611L91.2811 203.044ZM85.3591 197.486V199.544H83.4411V197.57H80.6411V196.226H83.5951C84.9671 196.226 86.9831 196.1 88.7891 195.736V197.108C87.7251 197.304 86.5631 197.416 85.3591 197.486ZM85.8771 193.188V192.908C85.8771 192.138 85.3031 191.704 84.6031 191.704C83.9031 191.704 83.3291 192.138 83.3291 192.908V193.188C83.3291 193.958 83.9031 194.392 84.6031 194.392C85.3031 194.392 85.8771 193.958 85.8771 193.188ZM101.461 195.596V196.982C100.369 197.234 98.8153 197.304 97.4153 197.304H93.9573V190.836H100.341V192.236H95.9033V193.356H100.229V194.742H95.9033V195.918H97.5833C98.7173 195.918 100.173 195.862 101.461 195.596ZM103.939 190.29V197.738L102.035 198.018V190.57L103.939 190.29ZM103.939 198.508V202.75L102.007 203.1H95.6653V198.508H103.939ZM97.5973 201.7H102.007V199.908H97.5973V201.7Z" fill="white"/>
<rect x="152" y="174" width="147" height="46" rx="12" fill="#FF8D24"/>
<path d="M190.306 198.186V202.75L188.36 203.1H182.046V198.186H190.306ZM184.79 192.264H180.492V190.878H186.764V191.606C186.764 194.756 183.908 197.22 180.758 197.962L180.002 196.688C182.298 196.044 184.79 194.098 184.79 192.376V192.264ZM190.306 190.29V193.538H192.322L192.042 194.938H190.306V197.416L188.388 197.696V190.57L190.306 190.29ZM183.964 201.7H188.36V199.572H183.964V201.7ZM203.007 190.29V195.078H205.023L204.743 196.646H203.007V202.82L201.089 203.1V190.57L203.007 190.29ZM197.309 190.934V194.616C197.309 194.91 197.393 195.218 197.561 195.442C198.289 196.422 199.395 197.766 200.347 198.83L199.227 199.908C198.247 198.872 197.057 197.556 196.343 196.604C195.517 197.654 194.313 199.138 193.319 200.216L192.143 199.194C193.095 198.088 194.215 196.744 195.041 195.554C195.209 195.316 195.349 194.994 195.349 194.7V191.214L197.309 190.934ZM206.089 199.852H208.091L206.873 203.422H205.165L206.089 199.852ZM224.084 190.29V199.208L222.194 199.488V190.57L224.084 190.29ZM224.168 203.044H215.964V198.998H217.91V201.644H224.448L224.168 203.044ZM220.402 194.546C220.402 196.422 218.834 197.43 217.07 197.43C215.306 197.43 213.738 196.422 213.738 194.546V193.734C213.738 191.858 215.306 190.85 217.07 190.85C218.834 190.85 220.402 191.858 220.402 193.734V194.546ZM218.512 194.49V193.79C218.512 192.81 217.91 192.25 217.07 192.25C216.23 192.25 215.628 192.81 215.628 193.79V194.49C215.628 195.47 216.23 196.03 217.07 196.03C217.91 196.03 218.512 195.47 218.512 194.49ZM236.448 190.29V195.078H238.464L238.184 196.646H236.448V202.82L234.53 203.1V190.57L236.448 190.29ZM230.75 190.934V194.616C230.75 194.91 230.834 195.218 231.002 195.442C231.73 196.422 232.836 197.766 233.788 198.83L232.668 199.908C231.688 198.872 230.498 197.556 229.784 196.604C228.958 197.654 227.754 199.138 226.76 200.216L225.584 199.194C226.536 198.088 227.656 196.744 228.482 195.554C228.65 195.316 228.79 194.994 228.79 194.7V191.214L230.75 190.934ZM239.53 199.852H241.532L240.314 203.422H238.606L239.53 199.852ZM258.701 200.006L258.421 201.434H246.563V200.006H249.055V195.708H250.973V200.006H251.981V195.708H253.899V200.006H258.701ZM255.047 192.418H248.047V191.032H257.021C256.993 193.244 256.755 196.492 256.349 198.676H254.403C254.753 196.688 255.061 194.14 255.047 192.418ZM271.163 197.822H268.615V198.998H269.581V203.072L267.649 203.352V200.398H261.013V198.998H262.175V197.822H259.305V196.45H271.443L271.163 197.822ZM266.907 190.57C268.433 190.57 269.875 191.2 269.875 193.076C269.875 194.966 268.433 195.596 266.907 195.596H263.827C262.245 195.596 260.859 194.966 260.859 193.076C260.859 191.2 262.245 190.57 263.827 190.57H266.907ZM266.725 191.956H264.009C263.253 191.956 262.735 192.264 262.735 193.076C262.735 193.888 263.253 194.21 264.009 194.21H266.725C267.425 194.21 267.999 193.888 267.999 193.076C267.999 192.264 267.425 191.956 266.725 191.956ZM264.135 197.822V198.998H266.641V197.822H264.135Z" fill="white"/>
<rect x="0.5" y="228.5" width="298" height="119" rx="15.5" fill="white"/>
<path d="M36.2656 253.266V267.406H34.5469V253.266H36.2656ZM25.2656 255.906V254.5H31.9219V259.797H27.0625V262.641C29.2891 262.625 31.2031 262.508 33.4062 262.141L33.5625 263.562C31.1641 263.977 29.0547 264.07 26.5156 264.062H25.2812V258.422H30.1562V255.906H25.2656ZM45.625 255.203C45.625 257.383 47.7578 259.578 50.7188 260.094L49.9375 261.547C47.5703 261.055 45.6328 259.617 44.7109 257.719C43.7812 259.602 41.8438 261.047 39.4844 261.547L38.7188 260.094C41.6328 259.562 43.7734 257.375 43.7812 255.203V254.156H45.625V255.203ZM38.3281 265.594V264.156H51.2344V265.594H38.3281ZM63.6094 254.578V256.266C63.6094 258.32 63.6094 260.258 62.9844 263.25L61.25 263.094C61.5391 261.859 61.6953 260.773 61.7891 259.773L53.4688 260.203L53.2344 258.797L61.8672 258.469C61.8984 257.711 61.9062 256.984 61.9062 256.266V255.984H53.6562V254.578H63.6094ZM52.1562 265.594V264.172H65.0312V265.594H52.1562ZM77.6719 254.312V255.156C77.6562 256.117 77.6562 257.523 77.3281 259.312L75.6094 259.156C75.8906 257.703 75.9453 256.617 75.9609 255.75H70.4688V254.312H77.6719ZM69.625 260.438C70.4609 260.43 71.3984 260.422 72.3906 260.406V257.531H74.1094V260.352C75.5703 260.289 77.0703 260.18 78.4375 259.984L78.5312 261.234C75.5938 261.766 72.2578 261.82 69.7812 261.828L69.625 260.438ZM71.7344 267.109V262.906H73.4844V265.703H81.5V267.109H71.7344ZM79.2656 263.844V253.266H81.0469V257.672H82.875V259.125H81.0469V263.844H79.2656ZM95.375 253.266V267.406H93.6562V253.266H95.375ZM84.375 255.906V254.5H91.0312V259.797H86.1719V262.641C88.3984 262.625 90.3125 262.508 92.5156 262.141L92.6719 263.562C90.2734 263.977 88.1641 264.07 85.625 264.062H84.3906V258.422H89.2656V255.906H84.375Z" fill="black"/>
<path d="M34.4521 294.607C33.6045 294.601 32.9141 293.91 32.9072 293.049C32.9141 292.201 33.6045 291.511 34.4521 291.504C35.3135 291.511 36.0039 292.201 36.0107 293.049C36.0039 293.91 35.3135 294.601 34.4521 294.607ZM56.6621 295.551V296.631H45.4512V295.551H50.3867V292.721H46.7363V286.896H55.3223V292.721H51.6719V295.551H56.6621ZM47.9941 291.695H54.0508V287.936H47.9941V291.695ZM67.7227 285.912V298.162H66.4238V285.912H67.7227ZM58.3027 295.045V287.102H59.5879V293.924C61.3789 293.917 63.2588 293.76 65.2207 293.363L65.3984 294.457C63.2314 294.901 61.2627 295.052 59.3281 295.045H58.3027ZM79.8633 285.912V298.189H78.5781V291.504H76.1445V290.438H78.5781V285.912H79.8633ZM70.2109 295.291V287.006H75.9395V288.059H71.5234V290.438H75.4199V291.477H71.5234V294.211C73.5742 294.211 74.9961 294.149 76.623 293.869L76.7598 294.922C74.9756 295.209 73.4375 295.284 71.168 295.291H70.2109ZM91.9082 285.926V293.432H90.6094V285.926H91.9082ZM82.3652 287.744V286.678H87.998V290.15H83.6641V291.682C85.8105 291.668 87.376 291.6 89.2422 291.312L89.4062 292.365C87.4033 292.693 85.7354 292.748 83.418 292.748H82.3926V289.152H86.7129V287.744H82.3652ZM83.6504 295.906C83.6504 294.478 85.2227 293.657 87.8203 293.664C90.4111 293.657 91.9902 294.478 91.9902 295.906C91.9902 297.321 90.4111 298.142 87.8203 298.135C85.2227 298.142 83.6504 297.321 83.6504 295.906ZM84.9355 295.906C84.9424 296.679 86.002 297.116 87.8203 297.109C89.6318 297.116 90.6914 296.679 90.6914 295.906C90.6914 295.127 89.6318 294.683 87.8203 294.689C86.002 294.683 84.9424 295.127 84.9355 295.906ZM34.4521 318.607C33.6045 318.601 32.9141 317.91 32.9072 317.049C32.9141 316.201 33.6045 315.511 34.4521 315.504C35.3135 315.511 36.0039 316.201 36.0107 317.049C36.0039 317.91 35.3135 318.601 34.4521 318.607ZM49.7031 313.029C49.6895 315.196 50.9541 317.418 52.7793 318.307L51.9727 319.346C50.6396 318.648 49.6074 317.281 49.0674 315.647C48.5205 317.384 47.4473 318.854 46.0527 319.578L45.2461 318.525C47.126 317.623 48.3975 315.271 48.4043 313.029V310.938H49.7031V313.029ZM53.6953 322.162V309.912H54.9941V314.793H56.9629V315.9H54.9941V322.162H53.6953ZM68.0371 309.912V322.162H66.793V315.887H65.2207V321.533H64.0039V310.158H65.2207V314.82H66.793V309.912H68.0371ZM58.125 319.045V311.361H59.4238V317.903C60.5518 317.89 61.7891 317.801 63.1836 317.527L63.3203 318.662C61.6387 318.963 60.2373 319.052 58.918 319.045H58.125ZM73.6426 310.691C75.5771 310.691 76.9717 311.881 76.9785 313.604C76.9717 315.128 75.8779 316.235 74.2852 316.468V318.402C75.4404 318.348 76.6162 318.245 77.7168 318.088L77.8125 319.031C75.0439 319.544 72.0703 319.558 69.8828 319.564L69.7188 318.498C70.6826 318.498 71.8037 318.491 72.9863 318.457V316.468C71.4004 316.229 70.2998 315.121 70.3066 313.604C70.2998 311.881 71.7148 310.691 73.6426 310.691ZM71.5918 313.604C71.5781 314.677 72.4531 315.408 73.6426 315.395C74.832 315.408 75.707 314.677 75.707 313.604C75.707 312.51 74.832 311.812 73.6426 311.812C72.4531 311.812 71.5781 312.51 71.5918 313.604ZM78.4824 322.189V309.912H79.7812V322.189H78.4824ZM95.6816 309.912V322.162H94.4375V309.912H95.6816ZM84.9902 318.785C86.7266 317.739 87.6084 315.511 87.6152 313.33V312.346H85.3594V311.293H90.9648V312.346H88.8594V313.33C88.8594 315.422 89.707 317.521 91.4297 318.512L90.6504 319.469C89.4814 318.771 88.6816 317.521 88.251 316.044C87.8135 317.644 86.9795 319.011 85.7832 319.756L84.9902 318.785ZM90.0625 315.312V314.246H91.9629V310.172H93.1934V321.547H91.9629V315.312H90.0625ZM108.479 319.564V320.645H97.2676V319.564H102.203V317.049H98.5527V310.746H99.8516V312.852H105.867V310.746H107.152V317.049H103.488V319.564H108.479ZM99.8516 315.996H105.867V313.904H99.8516V315.996ZM117.283 313.029C117.27 315.265 118.623 317.521 120.523 318.361L119.744 319.387C118.336 318.717 117.222 317.343 116.647 315.668C116.08 317.466 114.952 318.942 113.482 319.66L112.689 318.566C114.617 317.712 115.971 315.367 115.971 313.029V310.938H117.283V313.029ZM121.631 322.189V309.912H122.93V322.189H121.631ZM131.105 311.648C131.105 313.645 133.231 315.531 135.59 315.955L134.988 317.035C133.026 316.611 131.229 315.326 130.436 313.604C129.629 315.319 127.831 316.598 125.869 317.035L125.295 315.955C127.619 315.518 129.731 313.645 129.738 311.648V310.719H131.105V311.648ZM124.885 320.549V319.469H136.096V320.549H124.885ZM142.193 310.691V311.758H138.775V313.084H141.715V314.096H138.775V315.559C140.396 315.545 141.455 315.483 142.713 315.258L142.836 316.283C141.428 316.55 140.259 316.598 138.324 316.598H137.531V310.691H142.193ZM139.24 322.012V317.814H147.43V322.012H139.24ZM140.539 320.959H146.158V318.84H140.539V320.959ZM142.275 314V312.947H143.793V310.117H145.023V317.172H143.793V314H142.275ZM146.199 317.268V309.912H147.43V317.268H146.199Z" fill="#282828"/>
<rect x="0.5" y="228.5" width="298" height="119" rx="15.5" stroke="#E1E6EF"/>
<rect x="0.5" y="356.5" width="298" height="95" rx="15.5" fill="white"/>
<path d="M32.7969 386.5C32.5547 385.141 31.4688 384.359 30.0938 384.359C28.2422 384.359 26.9297 385.781 26.9375 388.344C26.9297 390.945 28.25 392.328 30.0938 392.328C31.4375 392.328 32.5234 391.578 32.7969 390.25H34.8438C34.5312 392.422 32.7422 394.156 30.0625 394.156C27.0781 394.156 24.8828 391.992 24.8906 388.344C24.8828 384.688 27.1016 382.531 30.0625 382.531C32.5625 382.531 34.4922 383.984 34.8438 386.5H32.7969ZM36.5938 394V382.688H40.8438C43.4375 382.688 44.8203 384.266 44.8281 386.438C44.8203 388.602 43.4219 390.172 40.8125 390.172H38.625V394H36.5938ZM38.625 388.5H40.5312C42.0625 388.492 42.75 387.633 42.75 386.438C42.75 385.227 42.0625 384.391 40.5312 384.391H38.625V388.5ZM61.2656 382.562V384C61.2656 385.758 61.2656 387.648 60.75 390.422L59.0469 390.25C59.5312 387.633 59.5312 385.711 59.5312 384V383.953H50.9844V382.562H61.2656ZM49.6875 393.562V392.141H52.5781V387.641H54.3125V392.141H56.1094V387.641H57.8125V392.141H62.5625V393.562H49.6875ZM76.3906 387.938V389.328H73.1719V390.797H74.8125V395.391H73.0781V392.156H64.9375V390.797H66.6875V389.328H63.5156V387.938H76.3906ZM64.8438 384.312C64.8438 382.609 66.8438 381.562 69.9375 381.562C73.0391 381.562 75.0234 382.609 75.0312 384.312C75.0234 386.039 73.0391 387.078 69.9375 387.078C66.8438 387.078 64.8438 386.039 64.8438 384.312ZM66.6562 384.312C66.6406 385.234 67.875 385.727 69.9375 385.734C72 385.727 73.2344 385.234 73.2344 384.312C73.2344 383.43 72 382.922 69.9375 382.922C67.875 382.922 66.6406 383.43 66.6562 384.312ZM68.4219 390.797H71.4531V389.328H68.4219V390.797Z" fill="black"/>
<path d="M34.4521 422.607C33.6045 422.601 32.9141 421.91 32.9072 421.049C32.9141 420.201 33.6045 419.511 34.4521 419.504C35.3135 419.511 36.0039 420.201 36.0107 421.049C36.0039 421.91 35.3135 422.601 34.4521 422.607ZM56.6211 420.816V421.869H51.6445V426.148H50.373V421.869H45.4512V420.816H56.6211ZM46.0801 418.861C48.3633 418.547 50.2637 417.187 50.3047 415.676H46.4902V414.637H55.5684V415.676H51.7812C51.8018 417.187 53.6885 418.547 56.0059 418.861L55.5273 419.887C53.5176 419.572 51.7812 418.581 51.0361 417.187C50.2842 418.581 48.5547 419.572 46.5723 419.887L46.0801 418.861ZM67.7363 413.912V426.162H66.4238V413.912H67.7363ZM57.6738 422.881C60.9277 421.329 62.5205 419.121 62.7734 416.264H58.2617V415.225H64.0859C64.0859 418.813 62.5615 421.917 58.3574 423.934L57.6738 422.881ZM74.0391 416.086C74.0322 417.631 75.1396 419.142 76.9922 419.777L76.3223 420.789C74.9482 420.317 73.9297 419.333 73.3965 418.123C72.8633 419.47 71.79 420.55 70.334 421.062L69.6641 420.037C71.5439 419.395 72.7197 417.761 72.7129 416.1V415.758H70.0605V414.705H76.6641V415.758H74.0391V416.086ZM71.5645 422.908V421.855H79.8633V426.162H78.5645V422.908H71.5645ZM76.2949 418.096V417.029H78.5645V413.912H79.8633V421.24H78.5645V418.096H76.2949ZM91.9082 413.926V422.826H90.6094V413.926H91.9082ZM81.9961 417.781C82.0029 416.011 83.4111 414.753 85.2637 414.746C87.1094 414.753 88.5176 416.011 88.5176 417.781C88.5176 419.579 87.1094 420.83 85.2637 420.83C83.4111 420.83 82.0029 419.579 81.9961 417.781ZM83.2676 417.781C83.2607 418.937 84.1221 419.695 85.2637 419.695C86.3848 419.695 87.2461 418.937 87.2461 417.781C87.2461 416.653 86.3848 415.881 85.2637 415.881C84.1221 415.881 83.2607 416.653 83.2676 417.781ZM83.8965 425.902V421.924H85.209V424.85H92.2773V425.902H83.8965ZM107.221 415.088V416.4C107.207 417.938 107.207 419.552 106.77 421.896L105.498 421.76C105.929 419.545 105.929 417.904 105.922 416.4V416.141H98.416V415.088H107.221ZM97.2676 424.508V423.428H99.9062V419.463H101.205V423.428H102.969V419.463H104.24V423.428H108.438V424.508H97.2676ZM120.537 419.75V420.803H117.652V422.225H119.17V426.162H117.857V423.25H110.611V422.225H112.225V420.803H109.367V419.75H120.537ZM110.57 416.551C110.563 415.067 112.266 414.179 114.945 414.186C117.618 414.179 119.313 415.067 119.32 416.551C119.313 418.027 117.618 418.923 114.945 418.916C112.266 418.923 110.563 418.027 110.57 416.551ZM111.91 416.551C111.903 417.405 113.059 417.904 114.945 417.904C116.818 417.904 117.987 417.405 117.98 416.551C117.987 415.703 116.818 415.204 114.945 415.211C113.059 415.204 111.903 415.703 111.91 416.551ZM113.523 422.225H116.381V420.803H113.523V422.225ZM131.352 414.691V419.723H125.527V414.691H131.352ZM126.334 425.123C128.562 424.904 130.306 423.79 130.395 422.689H126.826V421.705H130.422V420.557H131.707V421.705H135.316V422.689H131.734C131.823 423.756 133.525 424.877 135.754 425.123L135.316 426.121C133.396 425.889 131.81 425.068 131.071 423.988C130.319 425.082 128.713 425.889 126.785 426.121L126.334 425.123ZM126.799 418.711H130.066V415.73H126.799V418.711ZM133.744 420.912V413.912H135.029V420.912H133.744ZM150.615 413.912V423.004H149.316V419.627H147.402V418.533H149.316V417.248H147.402V416.182H149.316V413.912H150.615ZM140.416 420.174C140.874 420.174 141.38 420.167 141.906 420.167V415.922H140.758V414.869H147.266V415.922H146.09V420.023C146.609 419.982 147.108 419.941 147.594 419.887L147.648 420.844C145.304 421.213 142.542 421.261 140.58 421.268L140.416 420.174ZM142.631 425.902V422.266H143.943V424.85H150.93V425.902H142.631ZM143.164 420.146C143.718 420.133 144.278 420.112 144.846 420.092V415.922H143.164V420.146ZM162.127 413.926V416.975H163.918V418.068H162.127V421.213H160.828V413.926H162.127ZM152.994 415.607V414.568H158.572V418.027H154.307V419.559C156.433 419.552 157.937 419.49 159.721 419.189L159.857 420.229C157.964 420.57 156.344 420.639 153.992 420.639H153.008V417.043H157.301V415.607H152.994ZM154.279 426.012V421.787H162.127V426.012H154.279ZM155.551 424.959H160.869V422.799H155.551V424.959ZM178.506 413.912V426.162H177.262V419.805H175.744V425.574H174.527V414.24H175.744V418.752H177.262V413.912H178.506ZM167.979 422.662C170.699 421.117 171.841 419.032 172.046 416.537H168.498V415.471H173.311C173.304 418.69 172.237 421.589 168.73 423.564L167.979 422.662ZM190.332 413.912V421.199H189.033V418.096H186.75V417.029H189.033V413.912H190.332ZM180.119 420.092C182.02 419.429 183.188 417.774 183.182 416.086V415.812H180.529V414.76H187.133V415.812H184.508V416.072C184.501 417.624 185.608 419.135 187.461 419.764L186.791 420.789C185.417 420.317 184.405 419.333 183.872 418.123C183.339 419.49 182.266 420.591 180.803 421.131L180.119 420.092ZM182.088 423.852C182.081 422.396 183.653 421.548 186.23 421.541C188.794 421.548 190.366 422.396 190.373 423.852C190.366 425.308 188.794 426.155 186.23 426.162C183.653 426.155 182.081 425.308 182.088 423.852ZM183.373 423.852C183.366 424.679 184.433 425.15 186.23 425.137C188.015 425.15 189.081 424.679 189.088 423.852C189.081 423.018 188.015 422.546 186.23 422.553C184.433 422.546 183.366 423.018 183.373 423.852Z" fill="#282828"/>
<rect x="0.5" y="356.5" width="298" height="95" rx="15.5" stroke="#E1E6EF"/>
<rect x="0.5" y="460.5" width="298" height="95" rx="15.5" fill="white"/>
<path d="M29.9141 487.516C29.9141 489.289 31.0625 490.969 33.2422 491.656L32.3047 493.016C30.7812 492.5 29.6875 491.469 29.0703 490.156C28.4609 491.656 27.3203 492.836 25.6953 493.406L24.7578 492.047C27.0312 491.258 28.1719 489.375 28.1797 487.359V486.016H29.9141V487.516ZM26.6797 496.688C26.6797 495.016 28.5156 494.023 31.4609 494.031C34.3828 494.023 36.1875 495.016 36.1953 496.688C36.1875 498.398 34.3828 499.375 31.4609 499.375C28.5156 499.375 26.6797 498.398 26.6797 496.688ZM28.4141 496.688C28.4141 497.562 29.5234 498 31.4609 498C33.3906 498 34.4766 497.562 34.4766 496.688C34.4766 495.859 33.3906 495.391 31.4609 495.391C29.5234 495.391 28.4141 495.859 28.4141 496.688ZM34.3203 493.719V485.266H36.0547V488.703H38.0234V490.141H36.0547V493.719H34.3203ZM50.5703 485.266V492.531H48.8359V489.641H45.9922V492.078H39.3828V485.891H41.1172V487.641H44.2734V485.891H45.9922V488.219H48.8359V485.266H50.5703ZM41.1172 490.703H44.2734V489H41.1172V490.703ZM41.2578 494.484V493.109H50.5703V496.75H43.0078V497.844H51.0234V499.219H41.2734V495.484H48.8359V494.484H41.2578ZM68.5234 485.266V499.391H66.8672V485.266H68.5234ZM56.1172 495.375C58.1562 494.133 59.0547 491.586 59.0547 489.125V488.188H56.6016V486.781H63.0078V488.188H60.7266V489.125C60.7266 491.508 61.5781 493.898 63.6016 495.062L62.5703 496.344C61.2656 495.57 60.3984 494.227 59.9062 492.617C59.4062 494.359 58.5078 495.844 57.1797 496.672L56.1172 495.375ZM61.9766 491.594V490.188H64.0078V485.531H65.6484V498.703H64.0078V491.594H61.9766ZM81.6641 491.688V493.062H77.4766V496.297H83.1016V497.719H70.1953V496.297H75.7578V493.062H71.7578V486.312H81.5547V487.703H73.4922V491.688H81.6641Z" fill="black"/>
<path d="M34.4521 526.607C33.6045 526.601 32.9141 525.91 32.9072 525.049C32.9141 524.201 33.6045 523.511 34.4521 523.504C35.3135 523.511 36.0039 524.201 36.0107 525.049C36.0039 525.91 35.3135 526.601 34.4521 526.607ZM52.7109 522.328C52.4717 521.05 51.4121 520.339 50.1543 520.346C48.4453 520.339 47.1807 521.651 47.1738 524.051C47.1807 526.464 48.4521 527.763 50.1543 527.756C51.3984 527.763 52.4512 527.065 52.7109 525.801L54.2285 525.814C53.9141 527.77 52.3213 529.137 50.1406 529.137C47.5635 529.137 45.6836 527.216 45.6836 524.051C45.6836 520.886 47.5771 518.965 50.1406 518.965C52.2324 518.965 53.8936 520.202 54.2285 522.328H52.7109ZM55.8555 529V519.102H59.3828C61.6865 519.102 62.8145 520.482 62.8145 522.314C62.8145 524.14 61.6797 525.527 59.3828 525.527H57.3594V529H55.8555ZM57.3594 524.242H59.2324C60.6885 524.249 61.2969 523.429 61.2969 522.314C61.2969 521.193 60.6885 520.394 59.2324 520.387H57.3594V524.242ZM74.0801 518.842V519.525C74.0664 520.346 74.0664 521.562 73.7656 523.148L72.4805 523.025C72.7471 521.672 72.7881 520.681 72.8018 519.908H67.9004V518.842H74.0801ZM67.1621 524.201C67.9141 524.201 68.7686 524.194 69.6641 524.174V521.59H70.9492V524.133C72.2617 524.078 73.6152 523.982 74.8457 523.805L74.9277 524.748C72.3711 525.199 69.4453 525.247 67.2852 525.254L67.1621 524.201ZM69.0215 529.902V526.279H70.3203V528.85H77.3477V529.902H69.0215ZM75.625 527.113V517.912H76.9512V521.809H78.6328V522.902H76.9512V527.113H75.625ZM85.1953 518.773V522.465H81.1484V524.283C83.1924 524.276 84.4023 524.215 85.8379 523.969L85.9746 525.021C84.3818 525.302 83.0762 525.336 80.752 525.336H79.8496V521.467H83.8828V519.812H79.8223V518.773H85.1953ZM81.5176 529.861V526.266H82.8164V528.795H89.9258V529.861H81.5176ZM85.9883 523.723V522.656H88.2715V520.961H85.9883V519.922H88.2715V517.926H89.5703V526.936H88.2715V523.723H85.9883ZM106.086 527.592V528.699H94.875V527.592H99.7969V524.98H95.8594V523.955H97.6914V520.1H95.832V519.047H105.061V520.1H103.188V523.955H105.02V524.98H101.082V527.592H106.086ZM98.9766 523.955H101.916V520.1H98.9766V523.955ZM111.199 519.867C111.192 521.474 112.327 522.971 114.152 523.572L113.455 524.598C112.115 524.126 111.11 523.169 110.577 521.959C110.044 523.333 109.005 524.413 107.576 524.939L106.879 523.9C108.793 523.224 109.9 521.59 109.914 519.758V518.555H111.199V519.867ZM108.533 527.865C108.533 526.43 110.099 525.589 112.648 525.596C115.164 525.589 116.709 526.43 116.709 527.865C116.709 529.314 115.164 530.142 112.648 530.135C110.099 530.142 108.533 529.314 108.533 527.865ZM109.832 527.865C109.825 528.672 110.878 529.109 112.648 529.123C114.405 529.109 115.444 528.672 115.438 527.865C115.444 527.086 114.405 526.621 112.648 526.621C110.878 526.621 109.825 527.086 109.832 527.865ZM115.301 525.309V517.912H116.6V520.988H118.377V522.082H116.6V525.309H115.301ZM128.959 518.691V523.723H123.135V518.691H128.959ZM123.941 529.123C126.17 528.904 127.913 527.79 128.002 526.689H124.434V525.705H128.029V524.557H129.314V525.705H132.924V526.689H129.342C129.431 527.756 131.133 528.877 133.361 529.123L132.924 530.121C131.003 529.889 129.417 529.068 128.679 527.988C127.927 529.082 126.32 529.889 124.393 530.121L123.941 529.123ZM124.406 522.711H127.674V519.73H124.406V522.711ZM131.352 524.912V517.912H132.637V524.912H131.352ZM148.168 517.926V525.281H146.869V517.926H148.168ZM138.146 524.037C140.061 523.388 141.229 521.795 141.236 520.1V519.895H138.488V518.828H145.242V519.895H142.549V520.1C142.549 521.672 143.718 523.128 145.611 523.723L144.941 524.748C143.54 524.29 142.48 523.347 141.92 522.137C141.373 523.483 140.293 524.55 138.83 525.062L138.146 524.037ZM139.883 527.865C139.883 526.389 141.469 525.534 144.053 525.527C146.623 525.534 148.202 526.389 148.209 527.865C148.202 529.349 146.623 530.203 144.053 530.203C141.469 530.203 139.883 529.349 139.883 527.865ZM141.195 527.865C141.195 528.706 142.241 529.185 144.053 529.178C145.851 529.185 146.931 528.706 146.924 527.865C146.931 527.038 145.851 526.56 144.053 526.553C142.241 526.56 141.195 527.038 141.195 527.865ZM160.637 517.912V530.162H159.406V517.912H160.637ZM150.041 526.621C152.646 525.076 153.89 523.019 154.115 520.496H150.643V519.43H155.4C155.4 520.059 155.353 520.667 155.257 521.262H156.904V518.227H158.135V529.561H156.904V525.391H154.812V524.324H156.904V522.328H155.018C154.423 524.386 153.117 526.177 150.807 527.551L150.041 526.621Z" fill="#282828"/>
<rect x="0.5" y="460.5" width="298" height="95" rx="15.5" stroke="#E1E6EF"/>
<rect y="564" width="299" height="46" rx="12" fill="#4B84F0"/>
<path d="M89.7802 591.784H86.8682C83.9002 591.784 82.4442 590.44 82.4442 587.598V585.05C82.4442 582.292 84.0822 580.864 86.8262 580.864H89.6402V582.502H87.0922C85.2582 582.502 84.4182 583.384 84.4182 585.344V587.29C84.4182 588.998 84.9642 590.16 87.0782 590.16H90.0602L89.7802 591.784ZM99.3909 584.056C99.3909 586.478 97.9349 587.374 95.7509 587.374H93.9029V591.588L91.9149 591.868V580.864H95.4429C97.6969 580.864 99.3909 581.592 99.3909 584.056ZM97.3609 584.14C97.3609 582.894 96.6609 582.46 95.6109 582.46H93.9029V585.792H95.6389C96.6749 585.792 97.3609 585.414 97.3609 584.14ZM103.995 586.212H111.961C112.185 585.064 112.395 583.412 112.451 582.292H105.479V580.892H114.481C114.425 582.39 114.299 584.42 113.907 586.212H116.133L115.853 587.612H113.389V592.82L111.471 593.1V587.612H108.853V592.764L106.935 593.044V587.612H103.995V586.212ZM124.843 588.242C126.369 588.242 127.755 588.858 127.755 590.748C127.755 592.652 126.369 593.268 124.843 593.268H121.847C120.265 593.268 118.851 592.652 118.851 590.748C118.851 588.858 120.265 588.242 121.847 588.242H124.843ZM124.479 580.892L124.199 582.292H121.945V583.216C121.945 583.51 122.001 583.832 122.197 584.042C123.065 585.008 123.947 585.834 124.927 586.66L123.807 587.738C122.813 586.94 121.875 586.114 120.993 585.204C120.111 586.17 119.061 587.178 118.039 588.046L116.863 587.024C117.843 586.142 118.851 585.274 119.705 584.154C119.887 583.916 120.013 583.594 120.013 583.3V582.292H117.507V580.892H124.479ZM125.809 588.074V584.63H123.415V583.244H125.809V580.57L127.713 580.29V587.794L125.809 588.074ZM124.661 589.628H122.001C121.245 589.628 120.727 589.936 120.727 590.748C120.727 591.574 121.245 591.882 122.001 591.882H124.661C125.361 591.882 125.879 591.574 125.879 590.748C125.879 589.936 125.361 589.628 124.661 589.628ZM140.441 580.29V592.82L138.551 593.1V580.57L140.441 580.29ZM131.985 590.398H129.885V588.998H132.405C134.099 588.998 136.325 588.886 138.033 588.592V590.006C136.227 590.314 134.099 590.398 131.985 590.398ZM137.109 583.958V584.532C137.109 586.45 135.513 587.472 133.707 587.472C131.901 587.472 130.305 586.45 130.305 584.532V583.958C130.305 582.04 131.901 581.018 133.707 581.018C135.513 581.018 137.109 582.04 137.109 583.958ZM135.219 584.532V583.958C135.219 582.978 134.561 582.418 133.707 582.418C132.853 582.418 132.195 582.978 132.195 583.958V584.532C132.195 585.512 132.853 586.072 133.707 586.072C134.561 586.072 135.219 585.512 135.219 584.532ZM148.385 585.778C148.483 585.554 148.497 585.148 148.497 584.854V582.586H146.719V581.228H152.095L151.885 582.586H150.289V584.812C150.289 585.106 150.275 585.456 150.387 585.708C150.751 586.52 151.871 588.186 152.627 589.096L151.437 590.174C150.849 589.446 150.023 588.326 149.449 587.472C148.819 588.424 148.021 589.544 147.251 590.468L146.075 589.446C147.041 588.284 147.951 586.716 148.385 585.778ZM152.907 580.766L154.643 580.486V592.414L152.907 592.694V585.68H151.213V584.252H152.907V580.766ZM155.455 580.57L157.233 580.29V592.82L155.455 593.1V580.57ZM166.993 588.242C168.519 588.242 169.905 588.858 169.905 590.748C169.905 592.652 168.519 593.268 166.993 593.268H163.997C162.415 593.268 161.001 592.652 161.001 590.748C161.001 588.858 162.415 588.242 163.997 588.242H166.993ZM166.629 580.892L166.349 582.292H164.095V583.216C164.095 583.51 164.151 583.832 164.347 584.042C165.215 585.008 166.097 585.834 167.077 586.66L165.957 587.738C164.963 586.94 164.025 586.114 163.143 585.204C162.261 586.17 161.211 587.178 160.189 588.046L159.013 587.024C159.993 586.142 161.001 585.274 161.855 584.154C162.037 583.916 162.163 583.594 162.163 583.3V582.292H159.657V580.892H166.629ZM167.959 588.074V584.63H165.565V583.244H167.959V580.57L169.863 580.29V587.794L167.959 588.074ZM166.811 589.628H164.151C163.395 589.628 162.877 589.936 162.877 590.748C162.877 591.574 163.395 591.882 164.151 591.882H166.811C167.511 591.882 168.029 591.574 168.029 590.748C168.029 589.936 167.511 589.628 166.811 589.628ZM176.407 580.752H182.539V586.268L180.649 586.548H176.407V580.752ZM186.543 589.81L183.225 589.824C183.225 590.076 183.253 590.342 183.477 590.454C184.653 591.14 185.801 591.7 187.215 592.33L186.319 593.506C184.905 592.918 183.463 592.232 182.287 591.602C181.209 592.204 179.669 592.988 178.255 593.604L177.331 592.442C178.843 591.798 179.935 591.182 180.985 590.552C181.209 590.426 181.279 590.104 181.293 589.824H177.807V588.494H181.293V587.332L183.225 587.052V588.494H186.823L186.543 589.81ZM186.501 580.29V587.36L184.611 587.64V580.57L186.501 580.29ZM180.649 582.152H178.297V585.19H180.649V582.152ZM200.605 580.486V584.924H201.585V580.57L203.363 580.29V592.82L201.585 593.1V586.338H200.605V592.414L198.869 592.694V580.766L200.605 580.486ZM196.237 582.586H193.087V581.2H198.085V582.194C198.085 585.834 196.447 588.746 193.647 590.384L192.569 589.18C194.977 587.822 196.237 585.26 196.237 582.824V582.586ZM213.068 588.242C214.594 588.242 215.98 588.858 215.98 590.748C215.98 592.652 214.594 593.268 213.068 593.268H210.072C208.49 593.268 207.076 592.652 207.076 590.748C207.076 588.858 208.49 588.242 210.072 588.242H213.068ZM212.704 580.892L212.424 582.292H210.17V583.216C210.17 583.51 210.226 583.832 210.422 584.042C211.29 585.008 212.172 585.834 213.152 586.66L212.032 587.738C211.038 586.94 210.1 586.114 209.218 585.204C208.336 586.17 207.286 587.178 206.264 588.046L205.088 587.024C206.068 586.142 207.076 585.274 207.93 584.154C208.112 583.916 208.238 583.594 208.238 583.3V582.292H205.732V580.892H212.704ZM214.034 588.074V584.63H211.64V583.244H214.034V580.57L215.938 580.29V587.794L214.034 588.074ZM212.886 589.628H210.226C209.47 589.628 208.952 589.936 208.952 590.748C208.952 591.574 209.47 591.882 210.226 591.882H212.886C213.586 591.882 214.104 591.574 214.104 590.748C214.104 589.936 213.586 589.628 212.886 589.628Z" fill="white"/>
<rect y="618" width="299" height="46" rx="12" fill="#4B84F0"/>
<path d="M81.3321 634.22V635.746H83.8661L83.6561 637.146H81.3321V637.636C81.3321 637.93 81.3741 638.252 81.5841 638.462C82.3121 639.204 83.1941 640.002 84.1881 640.814L83.0681 641.892C82.0461 641.122 81.1361 640.394 80.3521 639.624C79.6101 640.436 78.5881 641.374 77.5101 642.214L76.3341 641.192C77.3701 640.338 78.3361 639.4 79.0361 638.574C79.2321 638.336 79.3441 638.014 79.3441 637.72V637.146H76.7401V635.746H79.3441V634.5L81.3321 634.22ZM84.9301 634.57L86.8341 634.29V646.82L84.9301 647.1V634.57ZM78.1121 644.776H76.2641V643.39H79.3581V641.36H81.3181V643.348C82.3541 643.292 83.5021 643.194 84.4121 643.026V644.426C82.4101 644.692 80.2681 644.776 78.1121 644.776ZM100.738 643.866L100.458 645.294H88.6003V643.866H92.4223V639.652H94.3823V643.866H100.738ZM97.0843 636.418H90.0843V635.032H99.0583C99.0303 637.244 98.7223 640.492 98.2183 642.676H96.2723C96.7203 640.688 97.0283 638.14 97.0843 636.418ZM110.415 642.158V640.464H107.895V639.064H110.415V637.734H108.259C107.293 639.82 104.857 641.542 102.575 642.228L101.665 641.01C104.451 640.24 106.677 637.986 106.677 636.516V636.32H102.393V634.92H108.693V635.886C108.693 636.04 108.679 636.194 108.665 636.334H110.415V634.57L112.319 634.29V641.878L110.415 642.158ZM109.449 642.242C110.975 642.242 112.361 642.858 112.361 644.748C112.361 646.652 110.975 647.268 109.449 647.268H106.453C104.871 647.268 103.457 646.652 103.457 644.748C103.457 642.858 104.871 642.242 106.453 642.242H109.449ZM109.267 643.628H106.607C105.851 643.628 105.333 643.936 105.333 644.748C105.333 645.574 105.851 645.882 106.607 645.882H109.267C109.967 645.882 110.485 645.574 110.485 644.748C110.485 643.936 109.967 643.628 109.267 643.628ZM123.157 642.032V640.17H120.987V639.722C120.441 640.758 119.223 641.304 117.893 641.304C116.087 641.304 114.491 640.296 114.491 638.42V637.594C114.491 635.718 116.087 634.71 117.893 634.71C119.223 634.71 120.441 635.256 120.987 636.306V635.564H123.157V634.57L125.047 634.29V641.752L123.157 642.032ZM122.191 642.242C123.717 642.242 125.103 642.858 125.103 644.748C125.103 646.652 123.717 647.268 122.191 647.268H119.195C117.613 647.268 116.199 646.652 116.199 644.748C116.199 642.858 117.613 642.242 119.195 642.242H122.191ZM122.009 643.628H119.349C118.593 643.628 118.075 643.936 118.075 644.748C118.075 645.574 118.593 645.882 119.349 645.882H122.009C122.709 645.882 123.227 645.574 123.227 644.748C123.227 643.936 122.709 643.628 122.009 643.628ZM119.405 638.364V637.65C119.405 636.67 118.747 636.11 117.893 636.11C117.039 636.11 116.381 636.67 116.381 637.65V638.364C116.381 639.344 117.039 639.904 117.893 639.904C118.747 639.904 119.405 639.344 119.405 638.364ZM121.295 638.42C121.295 638.546 121.281 638.658 121.267 638.77H123.157V636.95H121.225C121.267 637.16 121.295 637.37 121.295 637.594V638.42ZM134.289 636.39H132.035V637.916C132.035 638.21 132.091 638.532 132.287 638.742C133.155 639.708 134.037 640.534 135.017 641.36L133.897 642.438C132.903 641.64 131.965 640.814 131.083 639.904C130.201 640.87 129.151 641.878 128.129 642.746L126.953 641.724C127.933 640.842 128.941 639.974 129.795 638.854C129.977 638.616 130.103 638.294 130.103 638V636.39H127.583V635.004H134.569L134.289 636.39ZM137.803 634.29V643.208L135.899 643.488V634.57L137.803 634.29ZM137.887 647.044H129.669V642.998H131.615V645.644H138.167L137.887 647.044ZM151.109 635.2L150.829 636.586H148.589V638.882C148.589 639.176 148.659 639.484 148.841 639.708C149.611 640.66 150.591 641.78 151.543 642.844L150.423 643.922C149.443 642.886 148.407 641.78 147.623 640.87C146.769 641.892 145.691 643.124 144.683 644.216L143.507 643.194C144.473 642.074 145.467 640.982 146.321 639.82C146.489 639.582 146.629 639.26 146.629 638.966V636.586H144.137V635.2H151.109ZM154.077 634.29V639.106H156.093L155.813 640.674H154.077V646.82L152.159 647.1V634.57L154.077 634.29ZM168.093 641.136H165.545V641.962H166.511V645.168H160.001V645.882H166.945L166.665 647.156H158.055V643.936H164.579V643.222H158.027V641.962H159.105V641.136H156.235V639.764H168.373L168.093 641.136ZM163.711 634.416C165.321 634.416 166.763 634.962 166.763 636.698C166.763 638.434 165.321 638.98 163.711 638.98H160.841C159.231 638.98 157.789 638.434 157.789 636.698C157.789 634.962 159.231 634.416 160.841 634.416H163.711ZM163.711 635.76H160.855C160.211 635.76 159.665 636.026 159.665 636.698C159.665 637.37 160.211 637.636 160.855 637.636H163.711C164.341 637.636 164.887 637.37 164.887 636.698C164.887 636.026 164.341 635.76 163.711 635.76ZM161.065 641.136V641.962H163.571V641.136H161.065ZM179.323 636.18H176.047C176.047 636.474 176.061 636.768 176.299 636.922C177.419 637.664 178.805 638.42 180.163 639.05L179.379 640.296C178.007 639.666 176.159 638.798 175.053 638.084C174.017 638.77 172.169 639.722 170.685 640.408L169.887 639.176C171.329 638.49 172.715 637.72 173.737 637.02C173.989 636.838 174.045 636.544 174.045 636.18H170.601V634.78H179.603L179.323 636.18ZM180.835 642.27H176.411V644.552H174.451V642.27H168.977V640.87H181.115L180.835 642.27ZM179.351 647.044H170.797V643.39H172.743V645.644H179.631L179.351 647.044ZM193.857 641.528L193.577 642.914H188.859V646.932L186.899 647.212V642.914H181.719V641.528H193.857ZM188.789 634.612V635.984C188.789 636.278 188.817 636.642 189.041 636.81C190.063 637.58 191.841 638.742 193.087 639.498L192.051 640.674C190.791 639.932 188.831 638.77 187.837 638C186.801 638.756 184.897 639.988 183.511 640.758L182.461 639.596C183.805 638.798 185.457 637.706 186.479 636.894C186.703 636.712 186.787 636.334 186.787 636.04V634.892L188.789 634.612ZM209.347 634.29V646.82L207.457 647.1V634.57L209.347 634.29ZM200.891 644.398H198.791V642.998H201.311C203.005 642.998 205.231 642.886 206.939 642.592V644.006C205.133 644.314 203.005 644.398 200.891 644.398ZM206.015 637.958V638.532C206.015 640.45 204.419 641.472 202.613 641.472C200.807 641.472 199.211 640.45 199.211 638.532V637.958C199.211 636.04 200.807 635.018 202.613 635.018C204.419 635.018 206.015 636.04 206.015 637.958ZM204.125 638.532V637.958C204.125 636.978 203.467 636.418 202.613 636.418C201.759 636.418 201.101 636.978 201.101 637.958V638.532C201.101 639.512 201.759 640.072 202.613 640.072C203.467 640.072 204.125 639.512 204.125 638.532ZM218.87 635.2L218.59 636.586H216.336V638.882C216.336 639.176 216.406 639.484 216.588 639.708C217.358 640.66 218.352 641.78 219.304 642.844L218.184 643.922C217.204 642.886 216.168 641.78 215.384 640.87C214.53 641.892 213.452 643.124 212.444 644.216L211.268 643.194C212.234 642.074 213.242 640.982 214.096 639.82C214.264 639.582 214.404 639.26 214.404 638.966V636.586H211.898V635.2H218.87ZM222.09 634.29V646.82L220.186 647.1V634.57L222.09 634.29Z" fill="white"/>
<defs>
<linearGradient id="paint0_linear_3510_26236" x1="149.5" y1="76" x2="149.5" y2="112" gradientUnits="userSpaceOnUse">
<stop stop-color="#C0D4FB"/>
<stop offset="1" stop-color="#C0D4FB" stop-opacity="0"/>
</linearGradient>
</defs>
</svg>
