<svg width="1336" height="492" viewBox="0 0 1336 492" fill="none" xmlns="http://www.w3.org/2000/svg">
<circle cx="679.759" cy="262" r="229.5" stroke="#C1CFC5" stroke-opacity="0.6" stroke-dasharray="10 6"/>
<circle cx="679.759" cy="262" r="186.5" stroke="#C1CFC5" stroke-opacity="0.6" stroke-dasharray="10 6"/>
<circle cx="680.259" cy="262" r="134" fill="#FF8D24"/>
<circle cx="680.259" cy="262" r="142" stroke="#FF8D24" stroke-opacity="0.7" stroke-width="16"/>
<g filter="url(#filter0_f_7136_7452)">
<ellipse cx="462" cy="351.5" rx="68" ry="67.5" fill="#99BCFF"/>
</g>
<ellipse cx="461.5" cy="347" rx="69.5" ry="69" fill="#4B84F0"/>
<path d="M413.794 354V339.859H416.724V345.719H422.856V339.859H425.806V354H422.856V348.141H416.724V354H413.794ZM428.188 354V339.859H433.735C436.948 339.859 438.794 341.666 438.794 344.469C438.794 346.402 437.905 347.809 436.294 348.502L439.302 354H436.06L433.354 348.98H431.118V354H428.188ZM431.118 346.598H433.188C434.927 346.598 435.776 345.885 435.767 344.469C435.776 343.043 434.927 342.271 433.188 342.262H431.118V346.598ZM451.255 340.816C451.245 342.975 452.505 345.045 455.317 345.914L453.989 347.848C452.104 347.223 450.786 346.012 450.024 344.459C449.253 346.246 447.876 347.652 445.845 348.336L444.497 346.383C447.466 345.396 448.735 343.033 448.755 340.582V338.961H451.255V340.816ZM446.958 352.359C446.948 350.201 449.302 348.922 453.052 348.922C456.733 348.922 459.038 350.201 459.048 352.359C459.038 354.537 456.733 355.807 453.052 355.797C449.302 355.807 446.948 354.537 446.958 352.359ZM449.458 352.359C449.438 353.365 450.718 353.844 453.052 353.844C455.356 353.844 456.587 353.365 456.587 352.359C456.587 351.393 455.356 350.875 453.052 350.875C450.718 350.875 449.438 351.393 449.458 352.359ZM456.372 348.57V338.023H458.872V342.184H461.274V344.254H458.872V348.57H456.372ZM476.157 338.023V342.027H478.56V344.078H476.157V348.004H473.657V338.023H476.157ZM462.739 347.34V339.137H470.669V341.109H465.239V345.348C468.462 345.328 470.229 345.201 472.212 344.801L472.466 346.754C470.229 347.271 468.179 347.34 464.243 347.34H462.739ZM464.536 355.582V348.746H476.157V355.582H464.536ZM466.997 353.629H473.696V350.719H466.997V353.629ZM494.614 338.023V351.324H492.251V338.023H494.614ZM479.126 347.125C481.548 345.963 482.524 343.639 482.524 341.539V339.215H484.946V341.539C484.937 343.59 485.825 345.631 488.11 346.676L486.724 348.59C485.298 347.926 484.341 346.803 483.755 345.445C483.13 346.998 482.065 348.287 480.493 349.02L479.126 347.125ZM482.563 355.484V349.762H485.063V353.492H495.063V355.484H482.563ZM486.489 344.117V342.086H488.657V338.297H491.021V350.797H488.657V344.117H486.489ZM511.626 338.023V355.836H509.165V346.305H506.04V344.293H509.165V338.023H511.626ZM497.446 351.812V339.508H505.747V341.52H499.927V344.469H505.103V346.422H499.927V349.781C502.397 349.762 504.37 349.674 506.567 349.332L506.821 351.324C504.224 351.715 501.899 351.803 498.853 351.812H497.446Z" fill="white"/>
<g filter="url(#filter1_f_7136_7452)">
<circle cx="913.507" cy="287" r="61" fill="#99BCFF"/>
</g>
<ellipse cx="913.507" cy="282.5" rx="62" ry="62.5" fill="#4B84F0"/>
<path d="M894.931 273.023V290.797H892.567V273.023H894.931ZM879.188 285.602C881.806 283.99 882.782 280.807 882.782 277.789V276.832H879.872V274.84H887.88V276.832H885.185V277.789C885.175 280.738 886.103 283.727 888.7 285.211L887.235 287.047C885.644 286.109 884.608 284.527 884.003 282.613C883.397 284.684 882.323 286.441 880.692 287.438L879.188 285.602ZM886.61 281.129V279.117H888.954V273.316H891.298V289.977H888.954V281.129H886.61ZM913.114 286.695V288.727H896.845V286.695H903.7V283.414H898.563V274.156H901.063V276.91H908.817V274.156H911.298V283.414H906.181V286.695H913.114ZM901.063 281.422H908.817V278.902H901.063V281.422ZM928.153 273.023V279.977H930.771V282.027H928.153V290.797H925.692V273.023H928.153ZM914.032 277.672V275.68H918.056V273.297H920.556V275.68H924.481V277.672H914.032ZM914.755 282.906C914.745 280.426 916.679 278.658 919.306 278.668C921.894 278.658 923.837 280.426 923.837 282.906C923.837 285.387 921.894 287.135 919.306 287.145C916.679 287.135 914.745 285.387 914.755 282.906ZM917.138 282.906C917.138 284.283 918.046 285.104 919.306 285.094C920.546 285.104 921.454 284.283 921.454 282.906C921.454 281.539 920.546 280.699 919.306 280.68C918.046 280.699 917.138 281.539 917.138 282.906ZM946.356 273.023V290.797H943.837V273.023H946.356ZM931.474 285.758C936.063 283.59 938.085 280.777 938.485 276.832H932.431V274.879H941.024C941.015 280.27 939.13 284.752 932.782 287.75L931.474 285.758Z" fill="white"/>
<g filter="url(#filter2_f_7136_7452)">
<ellipse cx="806.821" cy="75.5" rx="60" ry="59.5" fill="#99BCFF"/>
</g>
<ellipse cx="806.603" cy="70.5" rx="61" ry="61.5" fill="#4B84F0"/>
<path d="M787.208 62.5664V64.2461C787.198 66.4727 787.198 68.9727 786.485 72.7422L783.985 72.4883C784.669 69.1289 784.698 66.6289 784.708 64.5391H774.239V62.5664H787.208ZM772.56 76.6289V74.5977H778.36V68.4844H780.841V74.5977H788.771V76.6289H772.56ZM806.056 69.5781V71.5312H799.181V72.8008C802.306 73.0059 804.103 74.041 804.122 75.7695C804.103 77.7324 801.827 78.8066 797.931 78.7969C794.015 78.8066 791.7 77.7324 791.7 75.7695C791.7 74.041 793.536 72.9961 796.7 72.8008V71.5312H789.845V69.5781H806.056ZM790.528 67.1172C794.249 66.873 796.056 65.7988 796.456 64.5781H791.407V62.6055H796.7V61.082H799.161V62.6055H804.493V64.5781H799.396C799.786 65.7988 801.603 66.873 805.333 67.1172L804.591 69.0117C801.31 68.7773 799.044 67.8301 797.931 66.3945C796.808 67.8301 794.542 68.7773 791.29 69.0117L790.528 67.1172ZM794.239 75.7695C794.229 76.5898 795.44 76.9609 797.931 76.9609C800.362 76.9609 801.612 76.5898 801.622 75.7695C801.612 74.9688 800.362 74.5977 797.931 74.5977C795.44 74.5977 794.229 74.9688 794.239 75.7695ZM822.149 61.0234V78.8359H819.649V69.8516H816.446V67.8594H819.649V61.0234H822.149ZM807.052 73.5625C809.913 72.2832 811.3 69.2559 811.31 66.5898V65.9062H807.618V63.9141H811.31V61.4141H813.81V63.9141H817.403V65.9062H813.79V66.5898C813.78 69.1582 815.206 72.0293 818.106 73.2891L816.778 75.2031C814.757 74.3633 813.341 72.6641 812.56 70.6426C811.798 72.791 810.392 74.5977 808.36 75.4766L807.052 73.5625ZM839.317 61.0234V78.8359H836.837V61.0234H839.317ZM825.353 64.5195V62.5078H833.81V69.3633H827.95V72.625C830.665 72.6055 832.96 72.4688 835.567 72.0391L835.782 74.0508C832.862 74.5684 830.216 74.6758 826.974 74.6758H825.372V67.3906H831.271V64.5195H825.353Z" fill="white"/>
<circle cx="626.759" cy="38" r="11" fill="url(#paint0_radial_7136_7452)"/>
<circle cx="599.759" cy="471" r="15" fill="url(#paint1_radial_7136_7452)"/>
<circle cx="826.753" cy="441" r="9" fill="url(#paint2_radial_7136_7452)"/>
<path d="M605.903 227.72C609.519 227.72 612.751 229 612.751 233.224C612.751 237.448 609.519 238.728 605.903 238.728H600.271C596.655 238.728 593.423 237.448 593.423 233.224C593.423 229 596.655 227.72 600.271 227.72H605.903ZM600.335 239.72V243.176H605.903V239.72H610.351V243.176H616.975L616.335 246.408H589.231V243.176H595.887V239.72H600.335ZM613.711 226.504H592.143V223.368H600.815V220.744L605.231 220.104V223.368H614.351L613.711 226.504ZM605.519 230.792H600.655C599.023 230.792 597.711 231.464 597.711 233.224C597.711 234.984 599.023 235.656 600.655 235.656H605.519C607.151 235.656 608.463 234.984 608.463 233.224C608.463 231.464 607.151 230.792 605.519 230.792ZM636.884 238.696C640.372 238.696 643.54 240.104 643.54 244.424C643.54 248.776 640.372 250.184 636.884 250.184H630.036C626.42 250.184 623.188 248.776 623.188 244.424C623.188 240.104 626.42 238.696 630.036 238.696H636.884ZM629.844 221.192V226.408C629.844 227.08 629.972 227.816 630.42 228.296C632.404 230.504 634.516 232.456 636.756 234.344L634.196 236.808C631.924 234.984 629.588 233.096 627.636 230.952C625.684 233.192 623.06 235.688 620.724 237.672L618.036 235.336C620.276 233.32 622.644 231.112 624.596 228.552C625.012 228.008 625.3 227.272 625.3 226.6V221.832L629.844 221.192ZM638.772 238.216V228.104H633.428V224.936H638.772V221.16L643.124 220.52V237.576L638.772 238.216ZM636.468 241.864H630.388C628.66 241.864 627.476 242.568 627.476 244.424C627.476 246.312 628.66 247.016 630.388 247.016H636.468C638.068 247.016 639.252 246.312 639.252 244.424C639.252 242.568 638.068 241.864 636.468 241.864ZM673.826 221.8C677.314 221.8 680.61 223.24 680.61 227.624C680.61 231.976 677.314 233.448 673.826 233.448H666.786C663.17 233.448 660.002 231.976 660.002 227.624C660.002 223.24 663.17 221.8 666.786 221.8H673.826ZM683.554 238.664H677.762V243.976H673.474V238.664H670.658V243.88H666.274V238.664H656.45V235.528H684.194L683.554 238.664ZM680.162 249.672H660.61V241.672H665.058V246.472H680.802L680.162 249.672ZM673.41 224.968H667.202C665.474 224.968 664.29 225.704 664.29 227.624C664.29 229.512 665.474 230.28 667.202 230.28H673.41C675.01 230.28 676.322 229.512 676.322 227.624C676.322 225.704 675.01 224.968 673.41 224.968ZM697.575 230.632V225.576H687.815V222.408H701.959V233.768H692.263V238.888H694.567C697.479 238.888 701.927 238.76 704.999 238.12V241.288C701.735 241.832 697.191 242.056 694.183 242.056H687.815V230.632H697.575ZM710.631 220.52V249.16L706.279 249.8V221.16L710.631 220.52ZM735.436 238.504V234.632H729.676V231.432H735.436V228.392H730.508C728.3 233.16 722.732 237.096 717.516 238.664L715.436 235.88C721.804 234.12 726.892 228.968 726.892 225.608V225.16H717.1V221.96H731.5V224.168C731.5 224.52 731.468 224.872 731.436 225.192H735.436V221.16L739.788 220.52V237.864L735.436 238.504ZM733.228 238.696C736.716 238.696 739.884 240.104 739.884 244.424C739.884 248.776 736.716 250.184 733.228 250.184H726.38C722.764 250.184 719.532 248.776 719.532 244.424C719.532 240.104 722.764 238.696 726.38 238.696H733.228ZM732.812 241.864H726.732C725.004 241.864 723.82 242.568 723.82 244.424C723.82 246.312 725.004 247.016 726.732 247.016H732.812C734.412 247.016 735.596 246.312 735.596 244.424C735.596 242.568 734.412 241.864 732.812 241.864ZM764.561 238.216V233.96H759.601V232.936C758.353 235.304 755.569 236.552 752.529 236.552C748.401 236.552 744.753 234.248 744.753 229.96V228.072C744.753 223.784 748.401 221.48 752.529 221.48C755.569 221.48 758.353 222.728 759.601 225.128V223.432H764.561V221.16L768.881 220.52V237.576L764.561 238.216ZM762.353 238.696C765.841 238.696 769.009 240.104 769.009 244.424C769.009 248.776 765.841 250.184 762.353 250.184H755.505C751.889 250.184 748.657 248.776 748.657 244.424C748.657 240.104 751.889 238.696 755.505 238.696H762.353ZM761.937 241.864H755.857C754.129 241.864 752.945 242.568 752.945 244.424C752.945 246.312 754.129 247.016 755.857 247.016H761.937C763.537 247.016 764.721 246.312 764.721 244.424C764.721 242.568 763.537 241.864 761.937 241.864ZM755.985 229.832V228.2C755.985 225.96 754.481 224.68 752.529 224.68C750.577 224.68 749.073 225.96 749.073 228.2V229.832C749.073 232.072 750.577 233.352 752.529 233.352C754.481 233.352 755.985 232.072 755.985 229.832ZM760.305 229.96C760.305 230.248 760.273 230.504 760.241 230.76H764.561V226.6H760.145C760.241 227.08 760.305 227.56 760.305 228.072V229.96Z" fill="white"/>
<rect x="585.759" y="270" width="192" height="48" rx="16" fill="#ED7204"/>
<path d="M614.444 287.98H608.464V286H617.324V287.42C617.324 288.66 617.124 289.9 616.744 291.06H619.604V285.1L622.324 284.7V302.6L619.604 303V293.08H615.864C614.484 295.68 612.164 297.84 609.244 299.18L607.604 297.4C609.924 296.42 611.964 294.56 613.184 292.46C611.384 292.68 609.404 292.7 607.904 292.7V290.72C609.384 290.72 611.904 290.6 614.104 290.4C614.324 289.7 614.444 289 614.444 288.32V287.98ZM627.467 285.6H639.547V292.62L636.787 293.12H627.467V285.6ZM642.207 294.8L641.807 296.8H638.287V302.6L635.547 303V296.8H631.807V302.52L629.067 302.92V296.8H624.867V294.8H642.207ZM630.247 291.14H636.787V287.6H630.247V291.14ZM655.19 295.32V297.34C653.47 297.66 651.29 297.84 648.99 297.84H644.71V285.84H647.47V295.86H648.99C651.05 295.86 653.39 295.66 655.19 295.32ZM658.73 284.7V302.6L656.01 303V285.1L658.73 284.7ZM667.013 287.98H662.473V286H669.653V287.42C669.653 288.86 669.473 290.2 669.133 291.46H670.853V285.38L673.333 284.98V302.02L670.853 302.42V293.52H668.393C667.313 295.88 665.573 297.8 663.313 299.12L661.773 297.4C663.813 296.26 665.273 294.5 666.113 292.54C664.713 292.68 663.153 292.7 662.133 292.7V290.72C663.193 290.72 665.193 290.62 666.793 290.46C666.933 289.76 667.013 289.04 667.013 288.32V287.98ZM674.573 285.1L677.113 284.7V302.6L674.573 303V285.1ZM695.156 284.7V302.6L692.456 303V285.1L695.156 284.7ZM687.076 294.34V289.64C687.076 288.2 686.576 287.36 685.176 287.36C683.776 287.36 683.276 288.2 683.276 289.64V294.34C683.276 295.78 683.776 296.64 685.176 296.64C686.576 296.64 687.076 295.78 687.076 294.34ZM689.796 289.58V294.42C689.796 297.1 687.956 298.66 685.176 298.66C682.396 298.66 680.556 297.1 680.556 294.42V289.58C680.556 286.9 682.396 285.34 685.176 285.34C687.956 285.34 689.796 286.9 689.796 289.58ZM710.639 298.08V292.38H707.339V290.4H710.639V288.88H707.339V286.88H710.639V284.9L713.359 284.5V297.68L710.639 298.08ZM704.859 285.32V289.74C704.859 290.16 704.959 290.62 705.219 290.92C706.419 292.3 707.859 293.78 709.179 295L707.519 296.48C706.179 295.3 704.679 293.9 703.479 292.58C702.259 293.98 700.619 295.62 699.159 296.86L697.479 295.4C698.879 294.14 700.359 292.68 701.579 291.08C701.839 290.74 702.019 290.28 702.019 289.86V285.72L704.859 285.32ZM713.479 302.92H701.739V297.14H704.519V300.92H713.879L713.479 302.92ZM733.548 284.98V292H734.868V285.1L737.408 284.7V302.6L734.868 303V294.02H733.548V302.02L731.068 302.42V285.38L733.548 284.98ZM724.748 292.68C724.888 292.36 724.908 291.78 724.908 291.36V289.2H721.888V287.26H724.908V285.32L727.508 284.92V287.26H730.328L730.028 289.2H727.508V291.3C727.508 291.72 727.488 292.22 727.648 292.58C728.168 293.74 729.688 295.96 730.748 297.28L729.048 298.76C728.228 297.7 727.068 296.18 726.288 294.96C725.428 296.32 724.328 297.88 723.228 299.2L721.528 297.78C722.908 296.12 724.128 294.02 724.748 292.68ZM755.471 303.08H743.531V297.98H752.591V296.68H743.491V294.8H755.351V299.82H746.291V301.18H755.871L755.471 303.08ZM751.331 290.9V292.94C749.591 293.24 747.431 293.44 745.151 293.44H741.251V285.26H744.011V291.46H745.151C747.191 291.46 749.511 291.26 751.331 290.9ZM752.631 294.1V289.66H747.391V287.66H752.631V285.1L755.351 284.7V293.7L752.631 294.1Z" fill="white"/>
<defs>
<filter id="filter0_f_7136_7452" x="378" y="268" width="168" height="167" filterUnits="userSpaceOnUse" color-interpolation-filters="sRGB">
<feFlood flood-opacity="0" result="BackgroundImageFix"/>
<feBlend mode="normal" in="SourceGraphic" in2="BackgroundImageFix" result="shape"/>
<feGaussianBlur stdDeviation="8" result="effect1_foregroundBlur_7136_7452"/>
</filter>
<filter id="filter1_f_7136_7452" x="836.507" y="210" width="154" height="154" filterUnits="userSpaceOnUse" color-interpolation-filters="sRGB">
<feFlood flood-opacity="0" result="BackgroundImageFix"/>
<feBlend mode="normal" in="SourceGraphic" in2="BackgroundImageFix" result="shape"/>
<feGaussianBlur stdDeviation="8" result="effect1_foregroundBlur_7136_7452"/>
</filter>
<filter id="filter2_f_7136_7452" x="730.821" y="0" width="152" height="151" filterUnits="userSpaceOnUse" color-interpolation-filters="sRGB">
<feFlood flood-opacity="0" result="BackgroundImageFix"/>
<feBlend mode="normal" in="SourceGraphic" in2="BackgroundImageFix" result="shape"/>
<feGaussianBlur stdDeviation="8" result="effect1_foregroundBlur_7136_7452"/>
</filter>
<radialGradient id="paint0_radial_7136_7452" cx="0" cy="0" r="1" gradientUnits="userSpaceOnUse" gradientTransform="translate(626.759 38) rotate(90) scale(11)">
<stop stop-color="#00509A"/>
<stop offset="1" stop-color="#143484"/>
</radialGradient>
<radialGradient id="paint1_radial_7136_7452" cx="0" cy="0" r="1" gradientUnits="userSpaceOnUse" gradientTransform="translate(599.759 471) rotate(90) scale(18.7382)">
<stop stop-color="#22CD74"/>
<stop offset="1" stop-color="#09A36B"/>
</radialGradient>
<radialGradient id="paint2_radial_7136_7452" cx="0" cy="0" r="1" gradientUnits="userSpaceOnUse" gradientTransform="translate(826.753 441) rotate(90) scale(11.2429)">
<stop stop-color="#FFD600"/>
<stop offset="1" stop-color="#FFAE24"/>
</radialGradient>
</defs>
</svg>
