<svg width="343" height="433" viewBox="0 0 343 433" fill="none" xmlns="http://www.w3.org/2000/svg">
<g clip-path="url(#clip0_3508_25332)">
<rect width="140" height="140" rx="32" transform="matrix(0.707107 -0.707107 0.733472 0.679719 71 85.9951)" fill="#FF7C32"/>
<path d="M138.763 61.9451C140.725 61.9451 142.579 62.7551 142.579 65.2211C142.579 67.6691 140.725 68.4971 138.763 68.4971H134.803C132.769 68.4971 130.987 67.6691 130.987 65.2211C130.987 62.7551 132.769 61.9451 134.803 61.9451H138.763ZM144.235 71.4311H140.977V74.4191H138.565V71.4311H136.981V74.3651H134.515V71.4311H128.989V69.6671H144.595L144.235 71.4311ZM142.327 77.6231H131.329V73.1231H133.831V75.8231H142.687L142.327 77.6231ZM138.529 63.7271H135.037C134.065 63.7271 133.399 64.1411 133.399 65.2211C133.399 66.2831 134.065 66.7151 135.037 66.7151H138.529C139.429 66.7151 140.167 66.2831 140.167 65.2211C140.167 64.1411 139.429 63.7271 138.529 63.7271ZM152.121 66.9131V64.0691H146.631V62.2871H154.587V68.6771H149.133V71.5571H150.429C152.067 71.5571 154.569 71.4851 156.297 71.1251V72.9071C154.461 73.2131 151.905 73.3391 150.213 73.3391H146.631V66.9131H152.121ZM159.465 61.2251V77.3351L157.017 77.6951V61.5851L159.465 61.2251ZM173.418 71.3411V69.1631H170.178V67.3631H173.418V65.6531H170.646C169.404 68.3351 166.272 70.5491 163.338 71.4311L162.168 69.8651C165.75 68.8751 168.612 65.9771 168.612 64.0871V63.8351H163.104V62.0351H171.204V63.2771C171.204 63.4751 171.186 63.6731 171.168 63.8531H173.418V61.5851L175.866 61.2251V70.9811L173.418 71.3411ZM172.176 71.4491C174.138 71.4491 175.92 72.2411 175.92 74.6711C175.92 77.1191 174.138 77.9111 172.176 77.9111H168.324C166.29 77.9111 164.472 77.1191 164.472 74.6711C164.472 72.2411 166.29 71.4491 168.324 71.4491H172.176ZM171.942 73.2311H168.522C167.55 73.2311 166.884 73.6271 166.884 74.6711C166.884 75.7331 167.55 76.1291 168.522 76.1291H171.942C172.842 76.1291 173.508 75.7331 173.508 74.6711C173.508 73.6271 172.842 73.2311 171.942 73.2311ZM189.801 71.1791V68.7851H187.011V68.2091C186.309 69.5411 184.743 70.2431 183.033 70.2431C180.711 70.2431 178.659 68.9471 178.659 66.5351V65.4731C178.659 63.0611 180.711 61.7651 183.033 61.7651C184.743 61.7651 186.309 62.4671 187.011 63.8171V62.8631H189.801V61.5851L192.231 61.2251V70.8191L189.801 71.1791ZM188.559 71.4491C190.521 71.4491 192.303 72.2411 192.303 74.6711C192.303 77.1191 190.521 77.9111 188.559 77.9111H184.707C182.673 77.9111 180.855 77.1191 180.855 74.6711C180.855 72.2411 182.673 71.4491 184.707 71.4491H188.559ZM188.325 73.2311H184.905C183.933 73.2311 183.267 73.6271 183.267 74.6711C183.267 75.7331 183.933 76.1291 184.905 76.1291H188.325C189.225 76.1291 189.891 75.7331 189.891 74.6711C189.891 73.6271 189.225 73.2311 188.325 73.2311ZM184.977 66.4631V65.5451C184.977 64.2851 184.131 63.5651 183.033 63.5651C181.935 63.5651 181.089 64.2851 181.089 65.5451V66.4631C181.089 67.7231 181.935 68.4431 183.033 68.4431C184.131 68.4431 184.977 67.7231 184.977 66.4631ZM187.407 66.5351C187.407 66.6971 187.389 66.8411 187.371 66.9851H189.801V64.6451H187.317C187.371 64.9151 187.407 65.1851 187.407 65.4731V66.5351ZM200.663 61.8191H208.547V68.9111L206.117 69.2711H200.663V61.8191ZM213.695 73.4651L209.429 73.4831C209.429 73.8071 209.465 74.1491 209.753 74.2931C211.265 75.1751 212.741 75.8951 214.559 76.7051L213.407 78.2171C211.589 77.4611 209.735 76.5791 208.223 75.7691C206.837 76.5431 204.857 77.5511 203.039 78.3431L201.851 76.8491C203.795 76.0211 205.199 75.2291 206.549 74.4191C206.837 74.2571 206.927 73.8431 206.945 73.4831H202.463V71.7731H206.945V70.2791L209.429 69.9191V71.7731H214.055L213.695 73.4651ZM213.641 61.2251V70.3151L211.211 70.6751V61.5851L213.641 61.2251ZM206.117 63.6191H203.093V67.5251H206.117V63.6191ZM134.909 91.2251V99.5411L132.461 99.9011V91.5851L134.909 91.2251ZM135.017 107.767H124.271V103.285H132.425V102.241H124.235V100.531H134.909V104.941H126.773V106.057H135.377L135.017 107.767ZM127.259 91.3511V93.9431C127.259 94.3211 127.349 94.7351 127.583 95.0051C128.681 96.1931 129.869 97.3271 131.129 98.3531L129.653 99.7031C128.411 98.7671 127.025 97.5251 125.999 96.4991C124.847 97.6871 123.461 98.9651 122.129 100.045L120.617 98.7311C121.913 97.6331 123.209 96.4631 124.307 95.1491C124.559 94.8431 124.703 94.4291 124.703 94.0511V91.7111L127.259 91.3511ZM146.954 95.0051H143.912V95.9951C143.912 96.3731 143.984 96.8951 144.236 97.1831C145.172 98.2991 146.252 99.3791 147.656 100.675L146.234 102.007C144.812 100.765 143.642 99.6851 142.67 98.6591C141.59 99.8651 140.24 101.161 138.962 102.331L137.486 101.071C138.71 99.8651 139.934 98.6051 140.96 97.3091C141.212 97.0031 141.356 96.4811 141.356 96.1031V95.0051H138.098V93.2051H141.392V91.4591L143.876 91.0991V93.2051H147.314L146.954 95.0051ZM148.844 103.483V97.8851H146.144V96.0491H148.844V91.5851L151.292 91.2251V103.123L148.844 103.483ZM151.4 107.623H140.834V102.637H143.336V105.823H151.76L151.4 107.623ZM163.517 92.3951L163.157 94.1771H160.259V97.1291C160.259 97.5071 160.349 97.9031 160.583 98.1911C161.573 99.4151 162.851 100.855 164.075 102.223L162.635 103.609C161.375 102.277 160.043 100.855 159.035 99.6851C157.937 100.999 156.551 102.583 155.255 103.987L153.743 102.673C154.985 101.233 156.281 99.8291 157.379 98.3351C157.595 98.0291 157.775 97.6151 157.775 97.2371V94.1771H154.553V92.3951H163.517ZM167.657 91.2251V107.335L165.209 107.695V91.5851L167.657 91.2251ZM184.058 101.791V107.245L181.574 107.695H173.42V101.791H184.058ZM180.098 92.9531L179.738 94.7531H176.858V95.1671C176.858 95.5451 176.93 96.0671 177.182 96.3551C178.136 97.4531 179.108 98.4071 180.512 99.7031L179.09 101.035C177.704 99.7571 176.606 98.7491 175.616 97.7411C174.5 98.9111 173.24 100.153 171.998 101.359L170.522 100.099C171.746 98.8931 172.88 97.7771 173.906 96.4811C174.158 96.1751 174.302 95.6531 174.302 95.2751V94.7531H170.864V92.9531H174.338V91.3331L176.822 90.9731V92.9531H180.098ZM184.058 91.2251V100.801L181.61 101.161V91.5851L184.058 91.2251ZM175.922 105.895H181.574V103.591H175.922V105.895ZM192.201 92.3951H200.067V102.691L197.583 103.051H192.201V92.3951ZM204.981 91.2251V96.4811H207.573L207.213 98.4971H204.981V107.335L202.515 107.695V91.5851L204.981 91.2251ZM194.631 101.269H197.583V94.1771H194.631V101.269ZM213.786 95.8331V93.9611H209.016V92.1791H216.216V97.5791H211.518V99.6491H212.454C214.074 99.6491 216.576 99.5591 218.304 99.2351V101.035C216.468 101.341 213.894 101.449 212.238 101.449H209.016V95.8331H213.786ZM219.402 103.663V98.7131H216.918V96.9131H219.402V95.2931H216.918V93.5111H219.402V91.5851L221.85 91.2251V103.303L219.402 103.663ZM221.958 107.623H211.392V102.637H213.894V105.823H222.318L221.958 107.623Z" fill="white"/>
</g>
<rect x="83.25" y="181.25" width="177.5" height="0.499999" stroke="#D9D9D9" stroke-width="0.499999"/>
<rect x="83.25" y="182.25" width="0.5" height="11.5" stroke="#D9D9D9" stroke-width="0.5"/>
<rect x="260.25" y="182.25" width="0.5" height="11.5" stroke="#D9D9D9" stroke-width="0.5"/>
<rect x="172.25" y="169.25" width="0.5" height="11.5" stroke="#D9D9D9" stroke-width="0.5"/>
<g filter="url(#filter0_f_3508_25332)">
<rect x="7" y="204" width="152" height="37" rx="8" fill="#578DF4" fill-opacity="0.5"/>
</g>
<rect x="2" y="194" width="162" height="46" rx="8" fill="#4B84F0"/>
<path d="M36.0734 210.85C37.5994 210.85 39.0414 211.48 39.0414 213.398C39.0414 215.302 37.5994 215.946 36.0734 215.946H32.9934C31.4114 215.946 30.0254 215.302 30.0254 213.398C30.0254 211.48 31.4114 210.85 32.9934 210.85H36.0734ZM40.3294 218.228H37.7954V220.552H35.9194V218.228H34.6874V220.51H32.7694V218.228H28.4714V216.856H40.6094L40.3294 218.228ZM38.8454 223.044H30.2914V219.544H32.2374V221.644H39.1254L38.8454 223.044ZM35.8914 212.236H33.1754C32.4194 212.236 31.9014 212.558 31.9014 213.398C31.9014 214.224 32.4194 214.56 33.1754 214.56H35.8914C36.5914 214.56 37.1654 214.224 37.1654 213.398C37.1654 212.558 36.5914 212.236 35.8914 212.236ZM46.4636 214.714V212.502H42.1936V211.116H48.3816V216.086H44.1396V218.326H45.1476C46.4216 218.326 48.3676 218.27 49.7116 217.99V219.376C48.2836 219.614 46.2956 219.712 44.9796 219.712H42.1936V214.714H46.4636ZM52.1756 210.29V222.82L50.2716 223.1V210.57L52.1756 210.29ZM63.0278 218.158V216.464H60.5078V215.064H63.0278V213.734H60.8718C59.9058 215.82 57.4698 217.542 55.1878 218.228L54.2778 217.01C57.0638 216.24 59.2898 213.986 59.2898 212.516V212.32H55.0058V210.92H61.3058V211.886C61.3058 212.04 61.2918 212.194 61.2778 212.334H63.0278V210.57L64.9318 210.29V217.878L63.0278 218.158ZM62.0618 218.242C63.5878 218.242 64.9738 218.858 64.9738 220.748C64.9738 222.652 63.5878 223.268 62.0618 223.268H59.0658C57.4838 223.268 56.0698 222.652 56.0698 220.748C56.0698 218.858 57.4838 218.242 59.0658 218.242H62.0618ZM61.8798 219.628H59.2198C58.4638 219.628 57.9458 219.936 57.9458 220.748C57.9458 221.574 58.4638 221.882 59.2198 221.882H61.8798C62.5798 221.882 63.0978 221.574 63.0978 220.748C63.0978 219.936 62.5798 219.628 61.8798 219.628ZM75.77 218.032V216.17H73.6V215.722C73.054 216.758 71.836 217.304 70.506 217.304C68.7 217.304 67.104 216.296 67.104 214.42V213.594C67.104 211.718 68.7 210.71 70.506 210.71C71.836 210.71 73.054 211.256 73.6 212.306V211.564H75.77V210.57L77.66 210.29V217.752L75.77 218.032ZM74.804 218.242C76.33 218.242 77.716 218.858 77.716 220.748C77.716 222.652 76.33 223.268 74.804 223.268H71.808C70.226 223.268 68.812 222.652 68.812 220.748C68.812 218.858 70.226 218.242 71.808 218.242H74.804ZM74.622 219.628H71.962C71.206 219.628 70.688 219.936 70.688 220.748C70.688 221.574 71.206 221.882 71.962 221.882H74.622C75.322 221.882 75.84 221.574 75.84 220.748C75.84 219.936 75.322 219.628 74.622 219.628ZM72.018 214.364V213.65C72.018 212.67 71.36 212.11 70.506 212.11C69.652 212.11 68.994 212.67 68.994 213.65V214.364C68.994 215.344 69.652 215.904 70.506 215.904C71.36 215.904 72.018 215.344 72.018 214.364ZM73.908 214.42C73.908 214.546 73.894 214.658 73.88 214.77H75.77V212.95H73.838C73.88 213.16 73.908 213.37 73.908 213.594V214.42ZM94.34 210.29V216.758L92.436 217.038V210.57L94.34 210.29ZM94.424 223.156H86.066V219.67H92.408V218.858H86.038V217.528H94.34V220.958H88.012V221.826H94.704L94.424 223.156ZM88.39 210.388V212.404C88.39 212.698 88.46 213.02 88.642 213.23C89.496 214.154 90.42 215.036 91.4 215.834L90.252 216.884C89.286 216.156 88.208 215.19 87.41 214.392C86.514 215.316 85.436 216.31 84.4 217.15L83.224 216.128C84.232 215.274 85.24 214.364 86.094 213.342C86.29 213.104 86.402 212.782 86.402 212.488V210.668L88.39 210.388ZM103.708 213.23H101.342V214C101.342 214.294 101.398 214.7 101.594 214.924C102.322 215.792 103.162 216.632 104.254 217.64L103.148 218.676C102.042 217.71 101.132 216.87 100.376 216.072C99.5362 217.01 98.4862 218.018 97.4922 218.928L96.3442 217.948C97.2962 217.01 98.2482 216.03 99.0462 215.022C99.2422 214.784 99.3542 214.378 99.3542 214.084V213.23H96.8202V211.83H99.3822V210.472L101.314 210.192V211.83H103.988L103.708 213.23ZM105.178 219.824V215.47H103.078V214.042H105.178V210.57L107.082 210.29V219.544L105.178 219.824ZM107.166 223.044H98.9482V219.166H100.894V221.644H107.446L107.166 223.044ZM115.054 215.876C115.152 215.652 115.166 215.246 115.166 214.952V213.44H113.052V212.082H115.166V210.724L116.986 210.444V212.082H118.96L118.75 213.44H116.986V214.91C116.986 215.204 116.972 215.554 117.084 215.806C117.448 216.618 118.526 218.214 119.268 219.138L118.064 220.174C117.49 219.432 116.678 218.326 116.132 217.472C115.53 218.424 114.746 219.544 113.976 220.468L112.758 219.46C113.724 218.298 114.62 216.814 115.054 215.876ZM119.59 210.766L121.326 210.486V222.414L119.59 222.694V216.142H118.036V214.686H119.59V210.766ZM122.082 210.57L123.86 210.29V222.82L122.082 223.1V210.57ZM132.332 210.766L134.04 210.486V222.414L132.332 222.694V217.99H130.596V216.604H132.332V214.574H131.016C130.47 217.108 129.042 219.124 126.942 220.384L125.864 219.18C128.188 217.822 129.42 215.26 129.42 212.824V212.586H126.382V211.2H131.268V212.194C131.268 212.53 131.254 212.852 131.226 213.174H132.332V210.766ZM134.824 210.57L136.602 210.29V222.82L134.824 223.1V210.57Z" fill="white"/>
<g filter="url(#filter1_f_3508_25332)">
<rect x="184" y="204" width="152" height="37" rx="8" fill="#578DF4" fill-opacity="0.5"/>
</g>
<rect x="179" y="194" width="162" height="46" rx="8" fill="#4B84F0"/>
<path d="M215.035 210.85C216.561 210.85 218.003 211.48 218.003 213.398C218.003 215.302 216.561 215.946 215.035 215.946H211.955C210.373 215.946 208.987 215.302 208.987 213.398C208.987 211.48 210.373 210.85 211.955 210.85H215.035ZM219.291 218.228H216.757V220.552H214.881V218.228H213.649V220.51H211.731V218.228H207.433V216.856H219.571L219.291 218.228ZM217.807 223.044H209.253V219.544H211.199V221.644H218.087L217.807 223.044ZM214.853 212.236H212.137C211.381 212.236 210.863 212.558 210.863 213.398C210.863 214.224 211.381 214.56 212.137 214.56H214.853C215.553 214.56 216.127 214.224 216.127 213.398C216.127 212.558 215.553 212.236 214.853 212.236ZM225.426 214.714V212.502H221.156V211.116H227.344V216.086H223.102V218.326H224.11C225.384 218.326 227.33 218.27 228.674 217.99V219.376C227.246 219.614 225.258 219.712 223.942 219.712H221.156V214.714H225.426ZM231.138 210.29V222.82L229.234 223.1V210.57L231.138 210.29ZM241.99 218.158V216.464H239.47V215.064H241.99V213.734H239.834C238.868 215.82 236.432 217.542 234.15 218.228L233.24 217.01C236.026 216.24 238.252 213.986 238.252 212.516V212.32H233.968V210.92H240.268V211.886C240.268 212.04 240.254 212.194 240.24 212.334H241.99V210.57L243.894 210.29V217.878L241.99 218.158ZM241.024 218.242C242.55 218.242 243.936 218.858 243.936 220.748C243.936 222.652 242.55 223.268 241.024 223.268H238.028C236.446 223.268 235.032 222.652 235.032 220.748C235.032 218.858 236.446 218.242 238.028 218.242H241.024ZM240.842 219.628H238.182C237.426 219.628 236.908 219.936 236.908 220.748C236.908 221.574 237.426 221.882 238.182 221.882H240.842C241.542 221.882 242.06 221.574 242.06 220.748C242.06 219.936 241.542 219.628 240.842 219.628ZM254.732 218.032V216.17H252.562V215.722C252.016 216.758 250.798 217.304 249.468 217.304C247.662 217.304 246.066 216.296 246.066 214.42V213.594C246.066 211.718 247.662 210.71 249.468 210.71C250.798 210.71 252.016 211.256 252.562 212.306V211.564H254.732V210.57L256.622 210.29V217.752L254.732 218.032ZM253.766 218.242C255.292 218.242 256.678 218.858 256.678 220.748C256.678 222.652 255.292 223.268 253.766 223.268H250.77C249.188 223.268 247.774 222.652 247.774 220.748C247.774 218.858 249.188 218.242 250.77 218.242H253.766ZM253.584 219.628H250.924C250.168 219.628 249.65 219.936 249.65 220.748C249.65 221.574 250.168 221.882 250.924 221.882H253.584C254.284 221.882 254.802 221.574 254.802 220.748C254.802 219.936 254.284 219.628 253.584 219.628ZM250.98 214.364V213.65C250.98 212.67 250.322 212.11 249.468 212.11C248.614 212.11 247.956 212.67 247.956 213.65V214.364C247.956 215.344 248.614 215.904 249.468 215.904C250.322 215.904 250.98 215.344 250.98 214.364ZM252.87 214.42C252.87 214.546 252.856 214.658 252.842 214.77H254.732V212.95H252.8C252.842 213.16 252.87 213.37 252.87 213.594V214.42ZM265.224 212.754H267.128L267.212 216.324H269.578L269.69 212.754H271.608L271.468 216.324H273.372L273.092 217.724H263.53V216.324H265.294L265.224 212.754ZM274.464 219.838L274.184 221.266H262.326V219.838H274.464ZM272.784 212.264H263.978V210.864H272.784V212.264ZM275.068 220.006H280.22V217.976H276.888V213.734H283.412V212.292H276.832V210.892H285.344V215.134H278.834V216.576H285.722L285.442 217.976H282.236V220.006H287.206L286.926 221.434H275.068V220.006ZM294.572 210.766L296.308 210.486V222.414L294.572 222.694V215.344H292.71V213.902H294.572V210.766ZM289.91 215.778C290.008 215.554 290.022 215.148 290.022 214.854V211.284L291.842 211.004V214.812C291.842 215.106 291.828 215.442 291.94 215.708C292.304 216.52 293.48 218.186 294.236 219.096L293.046 220.174C292.458 219.446 291.562 218.326 290.988 217.472C290.358 218.424 289.49 219.544 288.72 220.468L287.544 219.446C288.51 218.284 289.476 216.716 289.91 215.778ZM297.134 210.57L298.898 210.29V222.82L297.134 223.1V210.57ZM312.69 219.838L312.41 221.266H300.552V219.838H312.69ZM307.622 210.808V212.936C307.622 213.23 307.65 213.58 307.874 213.762C308.868 214.602 310.702 215.988 311.92 216.786L310.884 217.962C309.652 217.178 307.608 215.778 306.656 214.924C305.676 215.764 303.674 217.234 302.33 218.06L301.28 216.898C302.582 216.044 304.332 214.756 305.312 213.874C305.536 213.678 305.62 213.314 305.62 213.02V211.088L307.622 210.808Z" fill="white"/>
<rect x="3" y="249" width="161" height="80" rx="8" fill="#F5F5F5"/>
<path d="M57.1543 292.564V293.631H45.9434V292.564H50.8926V289.666H52.1914V292.564H57.1543ZM46.4629 289.105C48.7393 288.723 50.8516 287.021 50.8516 285.141V285.031H46.873V283.965H56.1836V285.031H52.2051V285.141C52.2051 287.021 54.3311 288.688 56.6621 289.051L56.1426 290.076C54.1602 289.707 52.335 288.559 51.5352 286.945C50.749 288.579 48.9375 289.748 46.9961 290.131L46.4629 289.105ZM62.582 285.113C62.582 286.686 63.751 288.196 65.6445 288.791L64.9746 289.803C63.5664 289.338 62.5 288.374 61.9463 287.144C61.3926 288.47 60.3057 289.522 58.8496 290.035L58.1797 289.037C60.0869 288.374 61.2627 286.774 61.2695 285.113V284.771H58.5215V283.719H65.2754V284.771H62.582V285.113ZM59.9023 291.977V290.924H68.2012V295.162H66.9023V291.977H59.9023ZM66.9023 290.309V282.912H68.2012V290.309H66.9023ZM73.8066 286.672C73.8066 288.6 74.7021 290.562 76.3906 291.471L75.666 292.428C74.4766 291.799 73.6562 290.63 73.2119 289.242C72.7744 290.726 71.9541 292.004 70.7715 292.715L70.0059 291.73C71.7012 290.746 72.5762 288.647 72.5898 286.672V286.18H70.375V285.113H72.5898V283.35H73.8066V285.113H75.9805V286.18H73.8066V286.672ZM75.1738 288.764V287.684H76.9375V283.172H78.168V294.547H76.9375V288.764H75.1738ZM79.4121 295.162V282.912H80.6562V295.162H79.4121ZM92.7695 282.912V295.162H91.5391V282.912H92.7695ZM82.1738 291.621C84.7783 290.076 86.0225 288.019 86.248 285.496H82.7754V284.43H87.5332C87.5332 285.059 87.4854 285.667 87.3896 286.262H89.0371V283.227H90.2676V294.561H89.0371V290.391H86.9453V289.324H89.0371V287.328H87.1504C86.5557 289.386 85.25 291.177 82.9395 292.551L82.1738 291.621ZM107.508 283.678V284.758C107.508 285.92 107.508 287.185 107.166 288.928H108.93V289.994H103.967V295.176H102.654V289.994H97.7598V288.928H105.854C106.216 287.178 106.216 285.899 106.223 284.758V284.744H99.127V283.678H107.508ZM114.207 284.744C114.2 286.46 115.314 287.991 117.174 288.6L116.463 289.611C115.116 289.119 114.125 288.176 113.592 286.945C113.065 288.347 111.999 289.447 110.516 289.98L109.818 288.941C111.773 288.271 112.908 286.638 112.922 284.799V283.596H114.207V284.744ZM111.828 292.824C111.821 291.341 113.394 290.479 115.971 290.486C118.534 290.479 120.106 291.341 120.113 292.824C120.106 294.301 118.534 295.142 115.971 295.135C113.394 295.142 111.821 294.301 111.828 292.824ZM113.113 292.824C113.106 293.638 114.173 294.116 115.971 294.109C117.755 294.116 118.821 293.638 118.828 292.824C118.821 291.983 117.755 291.498 115.971 291.498C114.173 291.498 113.106 291.983 113.113 292.824ZM116.189 286.467V285.4H118.773V282.912H120.072V290.145H118.773V286.467H116.189Z" fill="#282828"/>
<path d="M85.7349 347.129C84.7416 348.849 82.2584 348.849 81.2651 347.129L77.0747 339.871C76.0814 338.151 77.323 336 79.3096 336L87.6904 336C89.677 336 90.9186 338.151 89.9254 339.871L85.7349 347.129Z" fill="#FFC633"/>
<rect x="3" y="353" width="161" height="80" rx="8" fill="#F5F5F5"/>
<path d="M26.2832 388.156C26.2764 391.766 25.1006 394.979 20.7461 397.193L20.0215 396.209C22.168 395.115 23.4941 393.796 24.2393 392.237L20.2676 392.613L20.0625 391.492L24.6357 391.205C24.8271 390.576 24.9434 389.906 24.9912 389.209H20.6914V388.156H26.2832ZM26.2559 392.832V391.766H28.9492V386.912H30.2344V399.162H28.9492V392.832H26.2559ZM43.332 393.912V394.979H40.584V399.23H39.2852V394.979H36.209V399.23H34.9102V394.979H32.1211V393.912H43.332ZM33.5293 392.381V387.555H41.9238V392.381H33.5293ZM34.8008 391.342H40.625V388.594H34.8008V391.342ZM54.4062 386.912V399.162H53.1074V386.912H54.4062ZM44.9863 396.045V388.102H46.2715V394.924C48.0625 394.917 49.9424 394.76 51.9043 394.363L52.082 395.457C49.915 395.901 47.9463 396.052 46.0117 396.045H44.9863ZM61.748 388.334C61.748 389.496 61.625 390.624 61.3105 391.684H63.0469V387.227H64.2773V398.561H63.0469V392.736H60.9141C60.2305 394.233 59.0547 395.566 57.1133 396.646L56.375 395.744C58.1523 394.753 59.2256 393.557 59.834 392.196L56.5527 392.531L56.375 391.41L60.1963 391.178C60.3467 390.61 60.4424 390.016 60.4834 389.4H56.9766V388.334H61.748ZM65.6309 399.162V386.912H66.8613V399.162H65.6309ZM78.5781 386.912V399.189H77.2793V386.912H78.5781ZM68.8574 392.121C68.8574 389.503 70.1768 387.835 72.0293 387.828C73.8477 387.835 75.1875 389.503 75.1875 392.121C75.1875 394.767 73.8477 396.435 72.0293 396.428C70.1768 396.435 68.8574 394.767 68.8574 392.121ZM70.1152 392.121C70.1084 394.069 70.8877 395.266 72.0293 395.266C73.1504 395.266 73.9297 394.069 73.9297 392.121C73.9297 390.2 73.1504 388.997 72.0293 388.99C70.8877 388.997 70.1084 390.2 70.1152 392.121ZM84.8535 389.127C84.8604 390.891 85.9541 392.579 87.7793 393.283L87.0684 394.295C85.7354 393.755 84.7441 392.682 84.2246 391.355C83.6982 392.784 82.6592 393.919 81.2305 394.486L80.5332 393.447C82.4199 392.75 83.5615 391.007 83.5684 389.127V387.609H84.8535V389.127ZM82.748 398.902V395.129H84.0605V397.85H91.0195V398.902H82.748ZM87.0684 392.189V391.137H89.4473V389.715H87.0684V388.662H89.4473V386.926H90.7461V396.045H89.4473V392.189H87.0684ZM99.7148 390.658C99.7148 392.565 100.604 394.534 102.312 395.43L101.574 396.4C100.385 395.771 99.5576 394.603 99.1133 393.222C98.6826 394.698 97.8623 395.977 96.6797 396.66L95.9141 395.703C97.6025 394.719 98.4844 392.634 98.498 390.658V390.207H96.2285V389.127H98.498V387.35H99.7148V389.127H101.943V390.207H99.7148V390.658ZM102.695 398.561V387.145H103.926V391.779H105.389V386.912H106.633V399.162H105.389V392.873H103.926V398.561H102.695ZM110.16 387.473V391.67C111.924 391.663 113.537 391.561 115.287 391.232L115.465 392.285C113.51 392.654 111.794 392.764 109.832 392.75H108.875V387.473H110.16ZM110.352 394.773V393.748H118.363V396.811H111.664V397.959H118.76V399.012H110.379V395.812H117.064V394.773H110.352ZM113.701 389.906V388.854H117.064V386.912H118.363V393.215H117.064V389.906H113.701ZM134.865 393.051V394.104H130.012V396.482H128.699V394.104H123.654V393.051H134.865ZM124.885 389.688C124.878 388.156 126.614 387.206 129.246 387.199C131.878 387.206 133.601 388.156 133.594 389.688C133.601 391.212 131.878 392.162 129.246 392.162C126.614 392.162 124.878 391.212 124.885 389.688ZM125.062 398.902V395.307H126.361V397.836H133.621V398.902H125.062ZM126.279 389.688C126.266 390.569 127.455 391.109 129.246 391.109C131.044 391.109 132.22 390.569 132.227 389.688C132.22 388.778 131.044 388.245 129.246 388.238C127.455 388.245 126.266 388.778 126.279 389.688ZM139.158 387.623C140.177 387.616 141.045 387.999 141.619 388.635H144.682V386.912H145.98V394.145H144.682V392.49H141.612C141.038 393.119 140.17 393.495 139.158 393.488C137.312 393.495 135.938 392.271 135.945 390.562C135.938 388.833 137.312 387.616 139.158 387.623ZM137.189 390.562C137.183 391.636 138.01 392.395 139.158 392.381C140.272 392.395 141.1 391.636 141.1 390.562C141.1 389.462 140.272 388.73 139.158 388.744C138.01 388.73 137.183 389.462 137.189 390.562ZM137.736 396.783C137.729 395.286 139.315 394.411 141.879 394.418C144.429 394.411 146.015 395.286 146.021 396.783C146.015 398.273 144.429 399.142 141.879 399.135C139.315 399.142 137.729 398.273 137.736 396.783ZM139.008 396.783C139.001 397.624 140.081 398.116 141.879 398.109C143.677 398.116 144.75 397.624 144.75 396.783C144.75 395.908 143.677 395.423 141.879 395.416C140.081 395.423 139.001 395.908 139.008 396.783ZM142.214 389.674C142.296 389.947 142.344 390.248 142.344 390.562C142.344 390.863 142.296 391.157 142.214 391.424H144.682V389.674H142.214Z" fill="#282828"/>
<rect x="180" y="249" width="161" height="48" rx="8" fill="#F5F5F5"/>
<path d="M260.049 274.268V275.334H255.072V279.162H253.787V275.334H248.838V274.268H260.049ZM250.314 273.133V267.459H258.668V268.498H251.586V269.756H258.395V270.768H251.586V272.094H258.805V273.133H250.314ZM271.109 266.912V273.488H269.811V266.912H271.109ZM261.197 270.316C261.204 268.635 262.585 267.466 264.465 267.473C266.338 267.466 267.719 268.635 267.719 270.316C267.719 271.991 266.338 273.16 264.465 273.146C262.585 273.16 261.204 271.991 261.197 270.316ZM262.469 270.316C262.462 271.376 263.303 272.08 264.465 272.08C265.613 272.08 266.447 271.376 266.447 270.316C266.447 269.271 265.613 268.56 264.465 268.566C263.303 268.56 262.462 269.271 262.469 270.316ZM263.098 279.012V274.076H264.369V275.457H269.824V274.076H271.109V279.012H263.098ZM264.369 277.945H269.824V276.482H264.369V277.945Z" fill="#282828"/>
<path d="M263.182 312.355C261.99 314.419 259.01 314.419 257.818 312.355L254.522 306.645C253.33 304.581 254.82 302 257.204 302L263.796 302C266.18 302 267.67 304.581 266.478 306.645L263.182 312.355Z" fill="#FFC633"/>
<rect x="180" y="317" width="161" height="48" rx="8" fill="#F5F5F5"/>
<path d="M253.104 337.154C253.104 338.795 254.245 340.34 256.111 340.969L255.441 341.994C254.067 341.516 253.042 340.538 252.502 339.301C251.969 340.682 250.916 341.748 249.48 342.281L248.756 341.256C250.697 340.593 251.812 338.938 251.818 337.113V335.664H253.104V337.154ZM250.725 346.902V343.061H252.051V345.85H259.01V346.902H250.725ZM257.178 343.936V334.898H258.477V338.59H260.254V339.697H258.477V343.936H257.178ZM272.107 340.285V341.256H267.172V342.281H270.713V345.043H263.576V346.055H271.055V347.039H262.305V344.141H269.428V343.225H262.291V342.281H265.887V341.256H260.965V340.285H272.107ZM261.512 338.822C263.856 338.692 265.511 337.975 265.777 336.936H262.072V335.938H265.887V334.857H267.172V335.938H271V336.936H267.274C267.534 337.975 269.188 338.692 271.561 338.822L271.164 339.807C269.031 339.649 267.295 339.027 266.529 337.954C265.764 339.027 264.027 339.649 261.881 339.807L261.512 338.822Z" fill="#282828"/>
<path d="M263.182 380.355C261.99 382.419 259.01 382.419 257.818 380.355L254.522 374.645C253.33 372.581 254.82 370 257.204 370L263.796 370C266.18 370 267.67 372.581 266.478 374.645L263.182 380.355Z" fill="#FFC633"/>
<rect x="180" y="385" width="161" height="48" rx="8" fill="#F5F5F5"/>
<path d="M259.064 402.912V409.146H257.766V407.971H254.662V406.959H257.766V405.633H254.812C254.054 407.533 252.201 408.791 249.494 409.42L249.043 408.354C251.982 407.704 253.568 406.337 253.78 404.539H249.686V403.473H255.209C255.209 403.869 255.175 404.245 255.106 404.607H257.766V402.912H259.064ZM251.053 410.691V409.666H259.064V412.77H252.365V414H259.434V415.039H251.08V411.785H257.766V410.691H251.053ZM267.773 404.225V404.977C267.767 406.009 267.767 407.588 267.418 409.775L266.133 409.68C266.447 407.725 266.481 406.296 266.488 405.277H261.512V404.225H267.773ZM260.828 411.471C261.594 411.464 262.448 411.457 263.344 411.437V407.725H264.629V411.396C265.928 411.341 267.261 411.259 268.484 411.102L268.553 412.072C266.003 412.482 263.152 412.537 260.979 412.523L260.828 411.471ZM269.182 415.162V402.912H270.494V407.971H272.367V409.078H270.494V415.162H269.182Z" fill="#282828"/>
<defs>
<filter id="filter0_f_3508_25332" x="0.73913" y="197.739" width="164.522" height="49.5217" filterUnits="userSpaceOnUse" color-interpolation-filters="sRGB">
<feFlood flood-opacity="0" result="BackgroundImageFix"/>
<feBlend mode="normal" in="SourceGraphic" in2="BackgroundImageFix" result="shape"/>
<feGaussianBlur stdDeviation="3.13043" result="effect1_foregroundBlur_3508_25332"/>
</filter>
<filter id="filter1_f_3508_25332" x="177.739" y="197.739" width="164.522" height="49.5217" filterUnits="userSpaceOnUse" color-interpolation-filters="sRGB">
<feFlood flood-opacity="0" result="BackgroundImageFix"/>
<feBlend mode="normal" in="SourceGraphic" in2="BackgroundImageFix" result="shape"/>
<feGaussianBlur stdDeviation="3.13043" result="effect1_foregroundBlur_3508_25332"/>
</filter>
<clipPath id="clip0_3508_25332">
<rect width="176" height="169" fill="white" transform="translate(84)"/>
</clipPath>
</defs>
</svg>
