<svg width="313" height="620" viewBox="0 0 313 620" fill="none" xmlns="http://www.w3.org/2000/svg">
<g clip-path="url(#clip0_307_4069)">
<rect x="57.5059" y="85.9961" width="140" height="140" rx="32" transform="rotate(-45 57.5059 85.9961)" fill="#00456B"/>
<path d="M123.055 77.14V79.102H126.313L126.043 80.902H123.055V81.532C123.055 81.91 123.109 82.324 123.379 82.594C124.315 83.548 125.449 84.574 126.727 85.618L125.287 87.004C123.973 86.014 122.803 85.078 121.795 84.088C120.841 85.132 119.527 86.338 118.141 87.418L116.629 86.104C117.961 85.006 119.203 83.8 120.103 82.738C120.355 82.432 120.499 82.018 120.499 81.64V80.902H117.151V79.102H120.499V77.5L123.055 77.14ZM127.681 77.59L130.129 77.23V93.34L127.681 93.7V77.59ZM118.915 90.712H116.539V88.93H120.517V86.32H123.037V88.876C124.369 88.804 125.845 88.678 127.015 88.462V90.262C124.441 90.604 121.687 90.712 118.915 90.712ZM148.006 89.542L147.646 91.378H132.4V89.542H137.314V84.124H139.834V89.542H148.006ZM143.308 79.966H134.308V78.184H145.846C145.81 81.028 145.414 85.204 144.766 88.012H142.264C142.84 85.456 143.236 82.18 143.308 79.966ZM160.446 87.346V85.168H157.206V83.368H160.446V81.658H157.674C156.432 84.34 153.3 86.554 150.366 87.436L149.196 85.87C152.778 84.88 155.64 81.982 155.64 80.092V79.84H150.132V78.04H158.232V79.282C158.232 79.48 158.214 79.678 158.196 79.858H160.446V77.59L162.894 77.23V86.986L160.446 87.346ZM159.204 87.454C161.166 87.454 162.948 88.246 162.948 90.676C162.948 93.124 161.166 93.916 159.204 93.916H155.352C153.318 93.916 151.5 93.124 151.5 90.676C151.5 88.246 153.318 87.454 155.352 87.454H159.204ZM158.97 89.236H155.55C154.578 89.236 153.912 89.632 153.912 90.676C153.912 91.738 154.578 92.134 155.55 92.134H158.97C159.87 92.134 160.536 91.738 160.536 90.676C160.536 89.632 159.87 89.236 158.97 89.236ZM176.829 87.184V84.79H174.039V84.214C173.337 85.546 171.771 86.248 170.061 86.248C167.739 86.248 165.687 84.952 165.687 82.54V81.478C165.687 79.066 167.739 77.77 170.061 77.77C171.771 77.77 173.337 78.472 174.039 79.822V78.868H176.829V77.59L179.259 77.23V86.824L176.829 87.184ZM175.587 87.454C177.549 87.454 179.331 88.246 179.331 90.676C179.331 93.124 177.549 93.916 175.587 93.916H171.735C169.701 93.916 167.883 93.124 167.883 90.676C167.883 88.246 169.701 87.454 171.735 87.454H175.587ZM175.353 89.236H171.933C170.961 89.236 170.295 89.632 170.295 90.676C170.295 91.738 170.961 92.134 171.933 92.134H175.353C176.253 92.134 176.919 91.738 176.919 90.676C176.919 89.632 176.253 89.236 175.353 89.236ZM172.005 82.468V81.55C172.005 80.29 171.159 79.57 170.061 79.57C168.963 79.57 168.117 80.29 168.117 81.55V82.468C168.117 83.728 168.963 84.448 170.061 84.448C171.159 84.448 172.005 83.728 172.005 82.468ZM174.435 82.54C174.435 82.702 174.417 82.846 174.399 82.99H176.829V80.65H174.345C174.399 80.92 174.435 81.19 174.435 81.478V82.54ZM191.34 78.4L190.98 80.182H188.1V83.134C188.1 83.512 188.19 83.908 188.424 84.196C189.414 85.42 190.674 86.86 191.898 88.228L190.458 89.614C189.198 88.282 187.866 86.86 186.858 85.69C185.76 87.004 184.374 88.588 183.078 89.992L181.566 88.678C182.808 87.238 184.086 85.834 185.184 84.34C185.4 84.034 185.58 83.62 185.58 83.242V80.182H182.376V78.4H191.34ZM195.156 77.23V83.422H197.748L197.388 85.438H195.156V93.34L192.69 93.7V77.59L195.156 77.23Z" fill="white"/>
</g>
<rect x="7" y="182" width="299" height="48" rx="16" fill="#EBEBEB"/>
<path d="M40.7471 200.199C43.3789 200.206 45.1016 201.156 45.0947 202.674C45.1016 204.191 43.3789 205.135 40.7471 205.135C38.1152 205.135 36.3789 204.191 36.3857 202.674C36.3789 201.156 38.1152 200.206 40.7471 200.199ZM35.1689 207.035V205.982H46.3525V207.035H43.5771V209.469H42.2783V207.035H40.3506V209.469H39.0381V207.035H35.1689ZM36.5088 211.902V208.416H37.8213V210.85H45.2178V211.902H36.5088ZM37.7803 202.674C37.7666 203.569 38.9561 204.096 40.7471 204.109C42.5449 204.096 43.7207 203.569 43.7275 202.674C43.7207 201.778 42.5449 201.245 40.7471 201.238C38.9561 201.245 37.7666 201.778 37.7803 202.674ZM57.4404 199.912V212.189H56.1416V199.912H57.4404ZM47.9521 202.072V201.02H53.6943V205.49H49.292V208.17C51.2812 208.163 53.0107 208.067 55.0615 207.732L55.1846 208.799C53.0176 209.161 51.1719 209.243 49.0049 209.25H47.9658V204.451H52.3682V202.072H47.9521ZM69.5811 199.926V207.172H68.2822V205.682H65.1924V204.615H68.2822V203.125H65.3223C64.5293 205.094 62.6904 206.481 60.0381 207.24L59.5186 206.229C62.417 205.401 64.1123 203.843 64.3447 201.867H60.1475V200.801H65.7529C65.7529 201.252 65.7051 201.689 65.623 202.1H68.2822V199.926H69.5811ZM61.4189 209.701C61.4189 208.218 63.0322 207.315 65.5479 207.309C68.0293 207.315 69.6562 208.218 69.6631 209.701C69.6562 211.191 68.0293 212.107 65.5479 212.107C63.0322 212.107 61.4189 211.191 61.4189 209.701ZM62.7041 209.701C62.7041 210.562 63.7979 211.062 65.5479 211.068C67.2637 211.062 68.3574 210.562 68.3643 209.701C68.3574 208.826 67.2637 208.327 65.5479 208.334C63.7979 208.327 62.7041 208.826 62.7041 209.701ZM74.8584 200.623C75.877 200.616 76.7451 200.999 77.3193 201.635H80.3818V199.912H81.6807V207.145H80.3818V205.49H77.3125C76.7383 206.119 75.8701 206.495 74.8584 206.488C73.0127 206.495 71.6387 205.271 71.6455 203.562C71.6387 201.833 73.0127 200.616 74.8584 200.623ZM72.8896 203.562C72.8828 204.636 73.71 205.395 74.8584 205.381C75.9727 205.395 76.7998 204.636 76.7998 203.562C76.7998 202.462 75.9727 201.73 74.8584 201.744C73.71 201.73 72.8828 202.462 72.8896 203.562ZM73.4365 209.783C73.4297 208.286 75.0156 207.411 77.5791 207.418C80.1289 207.411 81.7148 208.286 81.7217 209.783C81.7148 211.273 80.1289 212.142 77.5791 212.135C75.0156 212.142 73.4297 211.273 73.4365 209.783ZM74.708 209.783C74.7012 210.624 75.7812 211.116 77.5791 211.109C79.377 211.116 80.4502 210.624 80.4502 209.783C80.4502 208.908 79.377 208.423 77.5791 208.416C75.7812 208.423 74.7012 208.908 74.708 209.783ZM77.9141 202.674C77.9961 202.947 78.0439 203.248 78.0439 203.562C78.0439 203.863 77.9961 204.157 77.9141 204.424H80.3818V202.674H77.9141ZM97.1299 199.912V212.189H95.8311V199.912H97.1299ZM87.4092 205.121C87.4092 202.503 88.7285 200.835 90.5811 200.828C92.3994 200.835 93.7393 202.503 93.7393 205.121C93.7393 207.767 92.3994 209.435 90.5811 209.428C88.7285 209.435 87.4092 207.767 87.4092 205.121ZM88.667 205.121C88.6602 207.069 89.4395 208.266 90.5811 208.266C91.7021 208.266 92.4814 207.069 92.4814 205.121C92.4814 203.2 91.7021 201.997 90.5811 201.99C89.4395 201.997 88.6602 203.2 88.667 205.121ZM101.122 200.5V205.559C102.879 205.545 104.308 205.463 105.921 205.176L106.058 206.215C104.294 206.55 102.749 206.632 100.753 206.639H99.8096V200.5H101.122ZM101.3 212.012V207.637H109.298V212.012H101.3ZM102.571 210.959H108.013V208.662H102.571V210.959ZM104.663 204.369V203.371H107.999V202.209H104.663V201.211H107.999V199.912H109.298V207.104H107.999V204.369H104.663ZM121.329 199.912V212.189H120.03V199.912H121.329ZM111.608 205.121C111.608 202.503 112.928 200.835 114.78 200.828C116.599 200.835 117.938 202.503 117.938 205.121C117.938 207.767 116.599 209.435 114.78 209.428C112.928 209.435 111.608 207.767 111.608 205.121ZM112.866 205.121C112.859 207.069 113.639 208.266 114.78 208.266C115.901 208.266 116.681 207.069 116.681 205.121C116.681 203.2 115.901 201.997 114.78 201.99C113.639 201.997 112.859 203.2 112.866 205.121ZM136.915 199.926V207.172H135.616V205.682H132.526V204.615H135.616V203.125H132.656C131.863 205.094 130.024 206.481 127.372 207.24L126.853 206.229C129.751 205.401 131.446 203.843 131.679 201.867H127.481V200.801H133.087C133.087 201.252 133.039 201.689 132.957 202.1H135.616V199.926H136.915ZM128.753 209.701C128.753 208.218 130.366 207.315 132.882 207.309C135.363 207.315 136.99 208.218 136.997 209.701C136.99 211.191 135.363 212.107 132.882 212.107C130.366 212.107 128.753 211.191 128.753 209.701ZM130.038 209.701C130.038 210.562 131.132 211.062 132.882 211.068C134.598 211.062 135.691 210.562 135.698 209.701C135.691 208.826 134.598 208.327 132.882 208.334C131.132 208.327 130.038 208.826 130.038 209.701ZM142.192 200.623C143.211 200.616 144.079 200.999 144.653 201.635H147.716V199.912H149.015V207.145H147.716V205.49H144.646C144.072 206.119 143.204 206.495 142.192 206.488C140.347 206.495 138.973 205.271 138.979 203.562C138.973 201.833 140.347 200.616 142.192 200.623ZM140.224 203.562C140.217 204.636 141.044 205.395 142.192 205.381C143.307 205.395 144.134 204.636 144.134 203.562C144.134 202.462 143.307 201.73 142.192 201.744C141.044 201.73 140.217 202.462 140.224 203.562ZM140.771 209.783C140.764 208.286 142.35 207.411 144.913 207.418C147.463 207.411 149.049 208.286 149.056 209.783C149.049 211.273 147.463 212.142 144.913 212.135C142.35 212.142 140.764 211.273 140.771 209.783ZM142.042 209.783C142.035 210.624 143.115 211.116 144.913 211.109C146.711 211.116 147.784 210.624 147.784 209.783C147.784 208.908 146.711 208.423 144.913 208.416C143.115 208.423 142.035 208.908 142.042 209.783ZM145.248 202.674C145.33 202.947 145.378 203.248 145.378 203.562C145.378 203.863 145.33 204.157 145.248 204.424H147.716V202.674H145.248ZM160.54 199.912V202.961H162.29V204.068H160.54V207.131H159.241V199.912H160.54ZM150.819 205.969C151.77 205.969 152.87 205.962 154.019 205.935V205.244C152.61 205.114 151.735 204.547 151.749 203.631C151.735 202.633 152.884 202.045 154.661 202.045C156.425 202.045 157.566 202.633 157.573 203.631C157.566 204.54 156.705 205.107 155.317 205.244V205.88C156.411 205.832 157.519 205.743 158.544 205.6L158.653 206.447C156.021 206.878 153.109 206.898 150.956 206.898L150.819 205.969ZM151.134 201.689V200.787H154.019V199.803H155.317V200.787H158.202V201.689H151.134ZM152.446 208.553V207.65H160.54V210.207H153.772V211.137H160.991V212.039H152.474V209.373H159.255V208.553H152.446ZM152.979 203.631C152.979 204.123 153.615 204.424 154.661 204.424C155.693 204.424 156.336 204.123 156.329 203.631C156.336 203.159 155.693 202.893 154.661 202.893C153.615 202.893 152.979 203.159 152.979 203.631ZM174.185 205.873V206.912H163.001V205.873H167.964V204.574H164.396V200.473H172.804V201.498H165.681V203.535H172.886V204.574H169.222V205.873H174.185ZM164.327 209.934C164.327 208.512 165.92 207.712 168.579 207.705C171.218 207.712 172.797 208.512 172.804 209.934C172.797 211.355 171.218 212.155 168.579 212.162C165.92 212.155 164.327 211.355 164.327 209.934ZM165.64 209.934C165.633 210.72 166.706 211.15 168.579 211.137C170.425 211.15 171.505 210.72 171.505 209.934C171.505 209.161 170.425 208.717 168.579 208.717C166.706 208.717 165.633 209.161 165.64 209.934ZM185.642 199.912V212.162H184.397V199.912H185.642ZM175.237 205.203C175.237 202.551 176.276 200.89 177.876 200.896C179.366 200.89 180.371 202.305 180.521 204.602H181.909V200.145H183.153V211.561H181.909V205.654H180.528C180.412 208.047 179.394 209.53 177.876 209.523C176.276 209.53 175.237 207.862 175.237 205.203ZM176.44 205.203C176.44 207.151 176.994 208.3 177.876 208.293C178.778 208.3 179.339 207.151 179.339 205.203C179.339 203.248 178.778 202.106 177.876 202.113C176.994 202.106 176.44 203.248 176.44 205.203ZM200.243 199.926V203.535H202.021V204.629H200.243V208.922H198.944V199.926H200.243ZM191.097 206.898V200.801H192.368V202.756H195.581V200.801H196.866V206.898H191.097ZM192.368 205.859H195.581V203.781H192.368V205.859ZM192.478 211.902V208.033H193.776V210.85H200.763V211.902H192.478ZM206.108 200.623C207.127 200.616 207.995 200.999 208.569 201.635H211.632V199.912H212.931V207.145H211.632V205.49H208.562C207.988 206.119 207.12 206.495 206.108 206.488C204.263 206.495 202.889 205.271 202.896 203.562C202.889 201.833 204.263 200.616 206.108 200.623ZM204.14 203.562C204.133 204.636 204.96 205.395 206.108 205.381C207.223 205.395 208.05 204.636 208.05 203.562C208.05 202.462 207.223 201.73 206.108 201.744C204.96 201.73 204.133 202.462 204.14 203.562ZM204.687 209.783C204.68 208.286 206.266 207.411 208.829 207.418C211.379 207.411 212.965 208.286 212.972 209.783C212.965 211.273 211.379 212.142 208.829 212.135C206.266 212.142 204.68 211.273 204.687 209.783ZM205.958 209.783C205.951 210.624 207.031 211.116 208.829 211.109C210.627 211.116 211.7 210.624 211.7 209.783C211.7 208.908 210.627 208.423 208.829 208.416C207.031 208.423 205.951 208.908 205.958 209.783ZM209.164 202.674C209.246 202.947 209.294 203.248 209.294 203.562C209.294 203.863 209.246 204.157 209.164 204.424H211.632V202.674H209.164ZM222.118 205.094V206.16H219.534V208.43C220.669 208.382 221.811 208.307 222.884 208.184L222.979 209.141C220.279 209.544 217.381 209.585 215.05 209.592L214.886 208.512C215.918 208.512 217.06 208.505 218.235 208.478V206.16H215.774V201.047H222.063V202.1H217.06V205.094H222.118ZM223.649 212.189V199.912H224.948V212.189H223.649ZM236.843 205.559V206.598H233.138V209.592H238.128V210.658H226.917V209.592H231.853V206.598H228.312V200.855H236.733V201.908H229.61V205.559H236.843ZM250.214 206.598V207.65H239.003V206.598H243.966V205.436H240.438V202.318H247.507V201.225H240.411V200.199H248.806V203.275H241.724V204.424H249.052V205.436H245.251V206.598H250.214ZM240.261 209.551V208.512H248.874V212.066H247.562V209.551H240.261ZM264.474 205.381V206.447H260.769V209.564H265.745V210.631H254.534V209.564H259.47V206.447H255.874V200.924H257.187V205.381H264.474ZM272.472 200.65V204.219H268.425V205.914C270.558 205.914 271.72 205.866 273.101 205.613L273.224 206.666C271.727 206.919 270.469 206.96 268.028 206.967H267.14V203.234H271.173V201.689H267.126V200.65H272.472ZM268.534 209.127V208.074H276.847V212.176H275.548V209.127H268.534ZM273.251 205.299V204.26H275.548V202.742H273.251V201.703H275.548V199.926H276.847V207.459H275.548V205.299H273.251Z" fill="#282828"/>
<g filter="url(#filter0_f_307_4069)">
<rect x="16" y="257" width="281" height="39" rx="16" fill="#578DF4"/>
</g>
<rect x="7" y="246" width="299" height="50" rx="16" fill="#4B84F0"/>
<path d="M132.334 265.92H128.59C128.59 266.256 128.606 266.592 128.878 266.768C130.158 267.616 131.742 268.48 133.294 269.2L132.398 270.624C130.83 269.904 128.718 268.912 127.454 268.096C126.27 268.88 124.158 269.968 122.462 270.752L121.55 269.344C123.198 268.56 124.782 267.68 125.95 266.88C126.238 266.672 126.302 266.336 126.302 265.92H122.366V264.32H132.654L132.334 265.92ZM134.062 272.88H129.006V275.488H126.766V272.88H120.51V271.28H134.382L134.062 272.88ZM132.366 278.336H122.59V274.16H124.814V276.736H132.686L132.366 278.336ZM145.424 272.032V268.384H143.264V271.024L141.104 271.344H136.064V264.176H138.224V266.256H141.104V264.176H143.264V266.832H145.424V264.08L147.6 263.76V271.712L145.424 272.032ZM147.6 272.592V278L145.392 278.4H138.16V272.592H140.352V274.048H145.392V272.592H147.6ZM140.352 276.832H145.392V275.6H140.352V276.832ZM138.224 269.76H141.104V267.856H138.224V269.76ZM158.483 264.8L158.163 266.384H155.587V269.008C155.587 269.344 155.667 269.696 155.875 269.952C156.755 271.04 157.891 272.32 158.979 273.536L157.699 274.768C156.579 273.584 155.395 272.32 154.499 271.28C153.523 272.448 152.291 273.856 151.139 275.104L149.795 273.936C150.899 272.656 152.051 271.408 153.027 270.08C153.219 269.808 153.379 269.44 153.379 269.104V266.384H150.515V264.8H158.483ZM162.163 263.76V278.08L159.987 278.4V264.08L162.163 263.76ZM172.741 267.088C172.741 268.944 171.077 269.984 169.189 269.984C167.301 269.984 165.637 268.944 165.637 267.088V266.736C165.637 264.88 167.301 263.84 169.189 263.84C171.077 263.84 172.741 264.88 172.741 266.736V267.088ZM174.565 274.816V273.872H171.285V272.352H174.565V264.08L176.725 263.76V274.496L174.565 274.816ZM176.821 278.336H167.317V274.72H169.525V276.736H177.141L176.821 278.336ZM170.053 271.984V274.336H167.861V272.08H164.661V270.544H168.037C169.605 270.544 171.909 270.4 173.973 269.984V271.552C172.757 271.776 171.429 271.904 170.053 271.984ZM170.645 267.072V266.752C170.645 265.872 169.989 265.376 169.189 265.376C168.389 265.376 167.733 265.872 167.733 266.752V267.072C167.733 267.952 168.389 268.448 169.189 268.448C169.989 268.448 170.645 267.952 170.645 267.072ZM188.456 269.824V271.408C187.208 271.696 185.432 271.776 183.832 271.776H179.88V264.384H187.176V265.984H182.104V267.264H187.048V268.848H182.104V270.192H184.024C185.32 270.192 186.984 270.128 188.456 269.824ZM191.288 263.76V272.272L189.112 272.592V264.08L191.288 263.76ZM191.288 273.152V278L189.08 278.4H181.832V273.152H191.288ZM184.04 276.8H189.08V274.752H184.04V276.8Z" fill="white"/>
<path d="M17.4521 318.607C16.6045 318.601 15.9141 317.91 15.9072 317.049C15.9141 316.201 16.6045 315.511 17.4521 315.504C18.3135 315.511 19.0039 316.201 19.0107 317.049C19.0039 317.91 18.3135 318.601 17.4521 318.607ZM38.582 309.912V322.162H37.2832V309.912H38.582ZM28.5195 318.826C29.5312 318.819 30.6797 318.812 31.8828 318.785V317.555C30.4541 317.363 29.5244 316.522 29.5312 315.326C29.5244 313.945 30.7275 313.036 32.498 313.029C34.2891 313.036 35.5127 313.945 35.5195 315.326C35.5127 316.509 34.5898 317.343 33.168 317.548V318.737C34.3027 318.683 35.4512 318.601 36.5312 318.457L36.627 319.428C33.9062 319.879 30.9395 319.913 28.6973 319.906L28.5195 318.826ZM28.7793 312.414V311.375H31.8828V309.939H33.1816V311.375H36.2578V312.414H28.7793ZM30.7617 315.326C30.748 316.105 31.4727 316.591 32.498 316.584C33.5576 316.591 34.2754 316.105 34.2754 315.326C34.2754 314.54 33.5576 314.041 32.498 314.041C31.4727 314.041 30.748 314.54 30.7617 315.326ZM44.8027 313.029C44.7891 315.196 46.0537 317.418 47.8789 318.307L47.0723 319.346C45.7393 318.648 44.707 317.281 44.167 315.647C43.6201 317.384 42.5469 318.854 41.1523 319.578L40.3457 318.525C42.2256 317.623 43.4971 315.271 43.5039 313.029V310.938H44.8027V313.029ZM48.7949 322.162V309.912H50.0938V314.793H52.0625V315.9H50.0938V322.162H48.7949ZM63.1914 309.912V322.162H61.9473V309.912H63.1914ZM52.7871 315.203C52.7871 312.551 53.8262 310.89 55.4258 310.896C56.916 310.89 57.9209 312.305 58.0713 314.602H59.459V310.145H60.7031V321.561H59.459V315.654H58.0781C57.9619 318.047 56.9434 319.53 55.4258 319.523C53.8262 319.53 52.7871 317.862 52.7871 315.203ZM53.9902 315.203C53.9902 317.151 54.5439 318.3 55.4258 318.293C56.3281 318.3 56.8887 317.151 56.8887 315.203C56.8887 313.248 56.3281 312.106 55.4258 312.113C54.5439 312.106 53.9902 313.248 53.9902 315.203ZM78.6816 309.912V322.162H77.4375V315.832H75.8516V321.533H74.6621V310.158H75.8516V314.766H77.4375V309.912H78.6816ZM68.5781 319.223V311.389H73.1719V312.441H69.877V318.115C71.3809 318.108 72.5156 318.04 73.8281 317.787L73.9238 318.854C72.4541 319.161 71.1826 319.209 69.3984 319.223H68.5781ZM89.8926 309.926V313.863H91.6699V314.943H89.8926V319.086H88.5938V309.926H89.8926ZM80.2812 312.4V311.348H83.2891V309.912H84.5879V311.348H87.582V312.4H80.2812ZM80.9512 315.299C80.9443 313.897 82.1543 312.981 83.9316 312.988C85.6885 312.981 86.8984 313.897 86.8984 315.299C86.8984 316.687 85.6885 317.589 83.9316 317.596C82.1543 317.589 80.9443 316.687 80.9512 315.299ZM82.127 321.902V318.361H83.4258V320.85H90.4121V321.902H82.127ZM82.209 315.299C82.1953 316.099 82.8926 316.591 83.9316 316.584C84.9707 316.591 85.668 316.099 85.6816 315.299C85.668 314.492 84.9707 313.993 83.9316 313.986C82.8926 313.993 82.1953 314.492 82.209 315.299ZM105.725 312.947V313.986H102.02V315.381H106.955V316.434H95.7852V315.381H100.721V313.986H97.2754V310.172H98.5605V312.947H105.725ZM96.9062 322.012V320.959H98.834V318.553H97.0156V317.541H105.738V318.553H103.92V320.959H105.848V322.012H96.9062ZM100.119 320.959H102.635V318.553H100.119V320.959ZM119.055 316.311V317.35H107.885V316.311H119.055ZM109.088 312.77C109.081 311.231 110.797 310.315 113.463 310.322C116.115 310.315 117.831 311.231 117.838 312.77C117.831 314.314 116.115 315.251 113.463 315.258C110.797 315.251 109.081 314.314 109.088 312.77ZM109.293 321.902V318.348H110.605V320.85H117.797V321.902H109.293ZM110.428 312.77C110.421 313.679 111.583 314.191 113.463 314.191C115.336 314.191 116.505 313.679 116.498 312.77C116.505 311.895 115.336 311.361 113.463 311.361C111.583 311.361 110.421 311.895 110.428 312.77ZM133.547 309.912V322.189H132.248V309.912H133.547ZM123.826 315.121C123.826 312.503 125.146 310.835 126.998 310.828C128.816 310.835 130.156 312.503 130.156 315.121C130.156 317.767 128.816 319.435 126.998 319.428C125.146 319.435 123.826 317.767 123.826 315.121ZM125.084 315.121C125.077 317.069 125.856 318.266 126.998 318.266C128.119 318.266 128.898 317.069 128.898 315.121C128.898 313.2 128.119 311.997 126.998 311.99C125.856 311.997 125.077 313.2 125.084 315.121ZM141.559 311.936V312.988H135.475V311.936H137.881V310.268H139.166V311.936H141.559ZM135.871 316.543C135.864 314.896 136.985 313.727 138.523 313.727C140.075 313.727 141.183 314.896 141.189 316.543C141.183 318.218 140.075 319.394 138.523 319.387C136.985 319.394 135.864 318.218 135.871 316.543ZM137.02 316.543C137.013 317.582 137.642 318.279 138.523 318.279C139.405 318.279 140.041 317.582 140.041 316.543C140.041 315.524 139.405 314.813 138.523 314.807C137.642 314.813 137.013 315.524 137.02 316.543ZM142.119 321.588V310.186H143.35V315.012H144.758V309.912H145.988V322.162H144.758V316.078H143.35V321.588H142.119ZM157.527 315.559V316.598H153.822V319.592H158.812V320.658H147.602V319.592H152.537V316.598H148.996V310.855H157.418V311.908H150.295V315.559H157.527ZM170.898 315.531V316.529H159.688V315.531H170.898ZM161.014 318.32V317.391H169.518V320.084H162.326V321.096H169.9V322.012H161.027V319.223H168.232V318.32H161.014ZM161.096 311.143V310.227H169.49V312.879H162.408V313.809H169.695V314.725H161.123V312.018H168.191V311.143H161.096ZM184.844 309.898V312.947H186.621V314.027H184.844V316.844H183.545V309.898H184.844ZM175.219 315.832C178.199 315.094 179.86 313.583 180.065 311.717H175.766V310.664H181.48C181.487 313.815 179.375 315.962 175.697 316.885L175.219 315.832ZM176.408 321.109C178.562 320.815 180.161 319.708 180.284 318.457H176.9V317.418H185.035V318.457H181.665C181.788 319.681 183.401 320.815 185.541 321.123L185.049 322.135C183.189 321.841 181.672 320.966 180.975 319.783C180.284 320.973 178.767 321.834 176.914 322.135L176.408 321.109ZM193.539 309.912V311.197H197.367V312.209H193.614C193.751 313.487 195.433 314.444 197.859 314.67L197.436 315.668C195.344 315.456 193.648 314.704 192.896 313.501C192.138 314.704 190.449 315.456 188.357 315.668L187.934 314.67C190.354 314.444 192.028 313.487 192.172 312.209H188.439V311.197H192.254V309.912H193.539ZM187.305 317.377V316.338H198.516V317.377H193.648V319.674H192.363V317.377H187.305ZM188.699 321.902V318.512H189.998V320.85H197.271V321.902H188.699ZM212.994 309.926V318.826H211.695V309.926H212.994ZM203.082 313.781C203.089 312.011 204.497 310.753 206.35 310.746C208.195 310.753 209.604 312.011 209.604 313.781C209.604 315.579 208.195 316.83 206.35 316.83C204.497 316.83 203.089 315.579 203.082 313.781ZM204.354 313.781C204.347 314.937 205.208 315.695 206.35 315.695C207.471 315.695 208.332 314.937 208.332 313.781C208.332 312.653 207.471 311.881 206.35 311.881C205.208 311.881 204.347 312.653 204.354 313.781ZM204.982 321.902V317.924H206.295V320.85H213.363V321.902H204.982ZM220.773 310.65V314.219H216.727V315.914C218.859 315.914 220.021 315.866 221.402 315.613L221.525 316.666C220.028 316.919 218.771 316.96 216.33 316.967H215.441V313.234H219.475V311.689H215.428V310.65H220.773ZM216.836 319.127V318.074H225.148V322.176H223.85V319.127H216.836ZM221.553 315.299V314.26H223.85V312.742H221.553V311.703H223.85V309.926H225.148V317.459H223.85V315.299H221.553ZM232.613 310.65C235.184 310.65 237.139 312.011 237.139 314.068C237.139 316.14 235.184 317.493 232.613 317.486C230.05 317.493 228.095 316.14 228.102 314.068C228.095 312.011 230.05 310.65 232.613 310.65ZM227.035 320.576V319.496H238.246V320.576H227.035ZM229.346 314.068C229.339 315.497 230.733 316.42 232.613 316.42C234.486 316.42 235.874 315.497 235.881 314.068C235.874 312.646 234.486 311.696 232.613 311.703C230.733 311.696 229.339 312.646 229.346 314.068ZM250.346 319.605V320.699H239.135V319.605H244.07V317.459H240.502V313.562H247.693V311.84H240.475V310.773H248.979V314.602H241.787V316.393H249.266V317.459H245.355V319.605H250.346ZM264.4 310.678V311.758C264.4 312.92 264.4 314.185 264.059 315.928H265.822V316.994H260.859V322.176H259.547V316.994H254.652V315.928H262.746C263.108 314.178 263.108 312.899 263.115 311.758V311.744H256.02V310.678H264.4ZM271.1 311.744C271.093 313.46 272.207 314.991 274.066 315.6L273.355 316.611C272.009 316.119 271.018 315.176 270.484 313.945C269.958 315.347 268.892 316.447 267.408 316.98L266.711 315.941C268.666 315.271 269.801 313.638 269.814 311.799V310.596H271.1V311.744ZM268.721 319.824C268.714 318.341 270.286 317.479 272.863 317.486C275.427 317.479 276.999 318.341 277.006 319.824C276.999 321.301 275.427 322.142 272.863 322.135C270.286 322.142 268.714 321.301 268.721 319.824ZM270.006 319.824C269.999 320.638 271.065 321.116 272.863 321.109C274.647 321.116 275.714 320.638 275.721 319.824C275.714 318.983 274.647 318.498 272.863 318.498C271.065 318.498 269.999 318.983 270.006 319.824ZM273.082 313.467V312.4H275.666V309.912H276.965V317.145H275.666V313.467H273.082ZM17.4521 342.607C16.6045 342.601 15.9141 341.91 15.9072 341.049C15.9141 340.201 16.6045 339.511 17.4521 339.504C18.3135 339.511 19.0039 340.201 19.0107 341.049C19.0039 341.91 18.3135 342.601 17.4521 342.607ZM34.0293 334.199C36.6611 334.206 38.3838 335.156 38.377 336.674C38.3838 338.191 36.6611 339.135 34.0293 339.135C31.3975 339.135 29.6611 338.191 29.668 336.674C29.6611 335.156 31.3975 334.206 34.0293 334.199ZM28.4512 341.035V339.982H39.6348V341.035H36.8594V343.469H35.5605V341.035H33.6328V343.469H32.3203V341.035H28.4512ZM29.791 345.902V342.416H31.1035V344.85H38.5V345.902H29.791ZM31.0625 336.674C31.0488 337.569 32.2383 338.096 34.0293 338.109C35.8271 338.096 37.0029 337.569 37.0098 336.674C37.0029 335.778 35.8271 335.245 34.0293 335.238C32.2383 335.245 31.0488 335.778 31.0625 336.674ZM50.7227 333.912V346.189H49.4238V333.912H50.7227ZM41.2344 336.072V335.02H46.9766V339.49H42.5742V342.17C44.5635 342.163 46.293 342.067 48.3438 341.732L48.4668 342.799C46.2998 343.161 44.4541 343.243 42.2871 343.25H41.248V338.451H45.6504V336.072H41.2344ZM62.8633 333.926V341.172H61.5645V339.682H58.4746V338.615H61.5645V337.125H58.6045C57.8115 339.094 55.9727 340.481 53.3203 341.24L52.8008 340.229C55.6992 339.401 57.3945 337.843 57.627 335.867H53.4297V334.801H59.0352C59.0352 335.252 58.9873 335.689 58.9053 336.1H61.5645V333.926H62.8633ZM54.7012 343.701C54.7012 342.218 56.3145 341.315 58.8301 341.309C61.3115 341.315 62.9385 342.218 62.9453 343.701C62.9385 345.191 61.3115 346.107 58.8301 346.107C56.3145 346.107 54.7012 345.191 54.7012 343.701ZM55.9863 343.701C55.9863 344.562 57.0801 345.062 58.8301 345.068C60.5459 345.062 61.6396 344.562 61.6465 343.701C61.6396 342.826 60.5459 342.327 58.8301 342.334C57.0801 342.327 55.9863 342.826 55.9863 343.701ZM68.1406 334.623C69.1592 334.616 70.0273 334.999 70.6016 335.635H73.6641V333.912H74.9629V341.145H73.6641V339.49H70.5947C70.0205 340.119 69.1523 340.495 68.1406 340.488C66.2949 340.495 64.9209 339.271 64.9277 337.562C64.9209 335.833 66.2949 334.616 68.1406 334.623ZM66.1719 337.562C66.165 338.636 66.9922 339.395 68.1406 339.381C69.2549 339.395 70.082 338.636 70.082 337.562C70.082 336.462 69.2549 335.73 68.1406 335.744C66.9922 335.73 66.165 336.462 66.1719 337.562ZM66.7188 343.783C66.7119 342.286 68.2979 341.411 70.8613 341.418C73.4111 341.411 74.9971 342.286 75.0039 343.783C74.9971 345.273 73.4111 346.142 70.8613 346.135C68.2979 346.142 66.7119 345.273 66.7188 343.783ZM67.9902 343.783C67.9834 344.624 69.0635 345.116 70.8613 345.109C72.6592 345.116 73.7324 344.624 73.7324 343.783C73.7324 342.908 72.6592 342.423 70.8613 342.416C69.0635 342.423 67.9834 342.908 67.9902 343.783ZM71.1963 336.674C71.2783 336.947 71.3262 337.248 71.3262 337.562C71.3262 337.863 71.2783 338.157 71.1963 338.424H73.6641V336.674H71.1963ZM89.9062 333.912V336.961H91.6562V338.068H89.9062V341.131H88.6074V333.912H89.9062ZM80.1855 339.969C81.1357 339.969 82.2363 339.962 83.3848 339.935V339.244C81.9766 339.114 81.1016 338.547 81.1152 337.631C81.1016 336.633 82.25 336.045 84.0273 336.045C85.791 336.045 86.9326 336.633 86.9395 337.631C86.9326 338.54 86.0713 339.107 84.6836 339.244V339.88C85.7773 339.832 86.8848 339.743 87.9102 339.6L88.0195 340.447C85.3877 340.878 82.4756 340.898 80.3223 340.898L80.1855 339.969ZM80.5 335.689V334.787H83.3848V333.803H84.6836V334.787H87.5684V335.689H80.5ZM81.8125 342.553V341.65H89.9062V344.207H83.1387V345.137H90.3574V346.039H81.8398V343.373H88.6211V342.553H81.8125ZM82.3457 337.631C82.3457 338.123 82.9814 338.424 84.0273 338.424C85.0596 338.424 85.7021 338.123 85.6953 337.631C85.7021 337.159 85.0596 336.893 84.0273 336.893C82.9814 336.893 82.3457 337.159 82.3457 337.631ZM103.551 339.873V340.912H92.3672V339.873H97.3301V338.574H93.7617V334.473H102.17V335.498H95.0469V337.535H102.252V338.574H98.5879V339.873H103.551ZM93.6934 343.934C93.6934 342.512 95.2861 341.712 97.9453 341.705C100.584 341.712 102.163 342.512 102.17 343.934C102.163 345.355 100.584 346.155 97.9453 346.162C95.2861 346.155 93.6934 345.355 93.6934 343.934ZM95.0059 343.934C94.999 344.72 96.0723 345.15 97.9453 345.137C99.791 345.15 100.871 344.72 100.871 343.934C100.871 343.161 99.791 342.717 97.9453 342.717C96.0723 342.717 94.999 343.161 95.0059 343.934ZM114.611 333.912V346.189H113.312V333.912H114.611ZM104.891 339.121C104.891 336.503 106.21 334.835 108.062 334.828C109.881 334.835 111.221 336.503 111.221 339.121C111.221 341.767 109.881 343.435 108.062 343.428C106.21 343.435 104.891 341.767 104.891 339.121ZM106.148 339.121C106.142 341.069 106.921 342.266 108.062 342.266C109.184 342.266 109.963 341.069 109.963 339.121C109.963 337.2 109.184 335.997 108.062 335.99C106.921 335.997 106.142 337.2 106.148 339.121ZM130.17 333.926V343.209H128.871V342.033H126.41V341.117H128.871V333.926H130.17ZM119.93 339.518C122.192 339.497 125.248 339.477 127.859 339.148L127.941 340.078C126.896 340.256 125.795 340.365 124.715 340.44V342.826H123.416V340.509C122.227 340.557 121.085 340.557 120.094 340.557L119.93 339.518ZM120.887 336.551C120.88 335.252 122.117 334.391 123.936 334.391C125.727 334.391 126.971 335.252 126.971 336.551C126.971 337.856 125.727 338.684 123.936 338.684C122.124 338.684 120.88 337.856 120.887 336.551ZM121.625 345.902V342.307H122.91V344.85H130.471V345.902H121.625ZM122.117 336.551C122.11 337.275 122.849 337.727 123.936 337.727C124.981 337.727 125.733 337.275 125.74 336.551C125.733 335.819 124.981 335.348 123.936 335.361C122.849 335.348 122.11 335.819 122.117 336.551ZM141.723 333.912V336.961H143.473V338.068H141.723V341.131H140.424V333.912H141.723ZM132.002 339.969C132.952 339.969 134.053 339.962 135.201 339.935V339.244C133.793 339.114 132.918 338.547 132.932 337.631C132.918 336.633 134.066 336.045 135.844 336.045C137.607 336.045 138.749 336.633 138.756 337.631C138.749 338.54 137.888 339.107 136.5 339.244V339.88C137.594 339.832 138.701 339.743 139.727 339.6L139.836 340.447C137.204 340.878 134.292 340.898 132.139 340.898L132.002 339.969ZM132.316 335.689V334.787H135.201V333.803H136.5V334.787H139.385V335.689H132.316ZM133.629 342.553V341.65H141.723V344.207H134.955V345.137H142.174V346.039H133.656V343.373H140.438V342.553H133.629ZM134.162 337.631C134.162 338.123 134.798 338.424 135.844 338.424C136.876 338.424 137.519 338.123 137.512 337.631C137.519 337.159 136.876 336.893 135.844 336.893C134.798 336.893 134.162 337.159 134.162 337.631ZM153.727 333.912V338.875H155.695V339.955H153.727V346.162H152.441V333.912H153.727ZM144.115 336.893V335.826H147.137V334.076H148.436V335.826H151.375V336.893H144.115ZM144.744 340.639C144.744 338.971 146.029 337.795 147.793 337.795C149.55 337.795 150.835 338.971 150.842 340.639C150.835 342.32 149.55 343.489 147.793 343.496C146.029 343.489 144.744 342.32 144.744 340.639ZM145.988 340.639C145.981 341.705 146.747 342.416 147.793 342.402C148.832 342.416 149.591 341.705 149.598 340.639C149.591 339.593 148.832 338.868 147.793 338.861C146.747 338.868 145.981 339.593 145.988 340.639ZM166.811 333.912V346.162H165.58V333.912H166.811ZM156.242 342.621C158.84 341.076 160.084 339.019 160.31 336.496H156.816V335.43H161.602C161.595 336.626 161.431 337.768 161.055 338.834H162.996V334.227H164.227V345.561H162.996V339.873H160.604C159.879 341.295 158.71 342.539 156.98 343.551L156.242 342.621ZM182.971 341.295V342.361H178.021V346.176H176.736V342.361H171.801V341.295H182.971ZM172.457 339.408C174.781 339.114 176.654 337.815 176.736 336.441H172.854V335.389H176.736V333.912H178.021V335.389H181.904V336.441H178.035C178.104 337.802 179.956 339.114 182.287 339.408L181.822 340.447C179.854 340.174 178.179 339.251 177.386 338C176.593 339.265 174.911 340.174 172.936 340.447L172.457 339.408ZM188.439 336.469C188.439 338.055 189.608 339.545 191.502 340.146L190.832 341.158C189.424 340.693 188.364 339.729 187.804 338.506C187.257 339.839 186.163 340.892 184.707 341.404L184.037 340.379C185.944 339.729 187.12 338.144 187.127 336.469V335.936H184.379V334.883H191.133V335.936H188.439V336.469ZM186.047 345.902V342.02H187.359V344.85H194.428V345.902H186.047ZM192.76 342.867V333.926H194.059V342.867H192.76ZM203.137 337.016V338.027H200.771V339.121C201.879 339.066 202.979 338.991 204.012 338.875L204.066 339.764C201.462 340.16 198.563 340.235 196.232 340.229L196.068 339.217C197.121 339.217 198.276 339.203 199.459 339.169V338.027H197.176V334.432H203V335.416H198.516V337.016H203.137ZM197.969 342.006V340.98H206.186V343.947H199.268V345H206.568V346.039H197.996V342.977H204.9V342.006H197.969ZM204.9 340.461V333.926H206.186V340.461H204.9ZM217.793 334.992C217.786 336.619 219.775 338.144 222.182 338.465L221.676 339.531C219.673 339.21 217.916 338.171 217.116 336.729C216.316 338.171 214.56 339.21 212.57 339.531L212.051 338.465C214.45 338.144 216.433 336.64 216.439 334.992V334.322H217.793V334.992ZM211.518 341.801V340.734H222.688V341.801H217.711V346.162H216.439V341.801H211.518ZM231.287 342.006C231.287 343.059 231.807 344.173 232.921 344.836C234.042 344.118 234.596 342.949 234.596 342.006V341.418H235.867V342.006C235.86 343.277 236.701 344.508 238.301 345.027L237.658 345.984C236.448 345.567 235.621 344.747 235.197 343.749C234.808 344.733 234.076 345.629 232.955 346.094C231.779 345.649 231.034 344.781 230.658 343.783C230.214 344.747 229.407 345.561 228.252 345.984L227.596 345.027C229.168 344.467 230.022 343.188 230.029 342.006V341.418H231.287V342.006ZM227.281 337.494C227.288 335.778 228.669 334.603 230.549 334.596C232.422 334.603 233.803 335.778 233.803 337.494C233.803 339.189 232.422 340.365 230.549 340.365C228.669 340.365 227.288 339.189 227.281 337.494ZM228.553 337.494C228.546 338.561 229.387 339.285 230.549 339.285C231.697 339.285 232.531 338.561 232.531 337.494C232.531 336.421 231.697 335.696 230.549 335.703C229.387 335.696 228.546 336.421 228.553 337.494ZM235.895 340.898V333.926H237.193V340.898H235.895ZM249.047 337.494V338.533H240.611V334.35H241.896V337.494H249.047ZM239.121 341.117V340.078H250.332V341.117H239.121ZM240.516 345.875V342.279H241.814V344.809H249.129V345.875H240.516ZM264.838 333.912V346.162H263.525V333.912H264.838ZM254.775 342.881C258.029 341.329 259.622 339.121 259.875 336.264H255.363V335.225H261.188C261.188 338.813 259.663 341.917 255.459 343.934L254.775 342.881ZM276.377 333.926V337.535H278.154V338.629H276.377V342.922H275.078V333.926H276.377ZM267.23 340.898V334.801H268.502V336.756H271.715V334.801H273V340.898H267.23ZM268.502 339.859H271.715V337.781H268.502V339.859ZM268.611 345.902V342.033H269.91V344.85H276.896V345.902H268.611ZM289.174 335.197V336.236H282.283V335.197H285.154V333.803H286.439V335.197H289.174ZM282.967 339.08C282.967 337.713 284.115 336.804 285.783 336.797C287.431 336.804 288.606 337.713 288.613 339.08C288.606 340.447 287.431 341.35 285.783 341.35C284.115 341.35 282.967 340.447 282.967 339.08ZM284.184 339.08C284.177 339.873 284.812 340.372 285.783 340.365C286.74 340.372 287.396 339.873 287.41 339.08C287.396 338.287 286.74 337.781 285.783 337.781C284.812 337.781 284.177 338.287 284.184 339.08ZM284.252 344.029C284.245 342.696 285.817 341.924 288.408 341.924C290.972 341.924 292.551 342.696 292.551 344.029C292.551 345.362 290.972 346.142 288.408 346.135C285.817 346.142 284.245 345.362 284.252 344.029ZM285.605 344.029C285.599 344.74 286.645 345.15 288.408 345.137C290.138 345.15 291.17 344.74 291.17 344.029C291.17 343.312 290.138 342.922 288.408 342.922C286.645 342.922 285.599 343.312 285.605 344.029ZM289.201 340.229V339.176H291.184V337.822H289.215V336.77H291.184V333.912H292.482V341.801H291.184V340.229H289.201ZM32.7988 359.744C32.792 361.46 33.9062 362.991 35.7656 363.6L35.0547 364.611C33.708 364.119 32.7168 363.176 32.1836 361.945C31.6572 363.347 30.5908 364.447 29.1074 364.98L28.4102 363.941C30.3652 363.271 31.5 361.638 31.5137 359.799V358.596H32.7988V359.744ZM30.4199 367.824C30.4131 366.341 31.9854 365.479 34.5625 365.486C37.126 365.479 38.6982 366.341 38.7051 367.824C38.6982 369.301 37.126 370.142 34.5625 370.135C31.9854 370.142 30.4131 369.301 30.4199 367.824ZM31.7051 367.824C31.6982 368.638 32.7646 369.116 34.5625 369.109C36.3467 369.116 37.4131 368.638 37.4199 367.824C37.4131 366.983 36.3467 366.498 34.5625 366.498C32.7646 366.498 31.6982 366.983 31.7051 367.824ZM34.7812 361.467V360.4H37.3652V357.912H38.6641V365.145H37.3652V361.467H34.7812Z" fill="#282828"/>
<g filter="url(#filter1_f_307_4069)">
<rect x="16" y="403" width="281" height="39" rx="16" fill="#578DF4"/>
</g>
<rect x="7" y="392" width="299" height="50" rx="16" fill="#4B84F0"/>
<path d="M61.3732 412.064H56.4612V410.48H63.6292V411.328C63.6292 415.008 60.3652 417.888 56.7652 418.736L55.9012 417.28C58.5252 416.544 61.3732 414.24 61.3732 412.192V412.064ZM58.1092 418.96H67.6772V424.368L65.4532 424.688V420.56H58.1092V418.96ZM67.6772 409.76V413.76H69.9812L69.6612 415.376H67.6772V418.08L65.4852 418.4V410.08L67.6772 409.76ZM78.8841 412.096H84.1161V410.144H86.3241V416.512L84.1161 416.912H76.6601V410.144H78.8841V412.096ZM88.4521 418.224L88.1321 419.808H82.7401V424.208L80.5001 424.528V419.808H74.5801V418.224H88.4521ZM78.8841 415.312H84.1161V413.696H78.8841V415.312ZM101.671 409.76V424.08L99.4946 424.4V415.536H96.5506V413.92H99.4946V410.08L101.671 409.76ZM94.9186 410.496V414.704C94.9186 415.04 94.9986 415.392 95.1906 415.648C96.0226 416.768 97.2706 418.304 98.3586 419.52L97.0786 420.752C95.9586 419.568 94.6146 418.064 93.7986 416.976C92.8546 418.176 91.4626 419.872 90.3266 421.104L88.9826 419.936C90.0706 418.672 91.3666 417.136 92.3106 415.776C92.5026 415.504 92.6466 415.136 92.6466 414.8V410.816L94.9186 410.496ZM112.921 409.984V414.528H114.409V410.08L116.425 409.76V424.08L114.409 424.4V416.144H112.921V423.616L110.921 423.936V410.304L112.921 409.984ZM106.777 410.672V418.784H107.465C108.313 418.784 109.673 418.656 110.441 418.464V420.064C109.673 420.24 108.377 420.4 107.193 420.4H104.729V410.672H106.777ZM131.44 410.4C133.184 410.4 134.832 411.12 134.832 413.312C134.832 415.488 133.184 416.224 131.44 416.224H127.92C126.112 416.224 124.528 415.488 124.528 413.312C124.528 411.12 126.112 410.4 127.92 410.4H131.44ZM136.304 418.832H133.408V421.488H131.264V418.832H129.856V421.44H127.664V418.832H122.752V417.264H136.624L136.304 418.832ZM134.608 424.336H124.832V420.336H127.056V422.736H134.928L134.608 424.336ZM131.232 411.984H128.128C127.264 411.984 126.672 412.352 126.672 413.312C126.672 414.256 127.264 414.64 128.128 414.64H131.232C132.032 414.64 132.688 414.256 132.688 413.312C132.688 412.352 132.032 411.984 131.232 411.984ZM143.314 414.816V412.288H138.434V410.704H145.506V416.384H140.658V418.944H141.81C143.266 418.944 145.49 418.88 147.026 418.56V420.144C145.394 420.416 143.122 420.528 141.618 420.528H138.434V414.816H143.314ZM149.842 409.76V424.08L147.666 424.4V410.08L149.842 409.76ZM162.245 418.752V416.816H159.365V415.216H162.245V413.696H159.781C158.677 416.08 155.893 418.048 153.285 418.832L152.245 417.44C155.429 416.56 157.973 413.984 157.973 412.304V412.08H153.077V410.48H160.277V411.584C160.277 411.76 160.261 411.936 160.245 412.096H162.245V410.08L164.421 409.76V418.432L162.245 418.752ZM161.141 418.848C162.885 418.848 164.469 419.552 164.469 421.712C164.469 423.888 162.885 424.592 161.141 424.592H157.717C155.909 424.592 154.293 423.888 154.293 421.712C154.293 419.552 155.909 418.848 157.717 418.848H161.141ZM160.933 420.432H157.893C157.029 420.432 156.437 420.784 156.437 421.712C156.437 422.656 157.029 423.008 157.893 423.008H160.933C161.733 423.008 162.325 422.656 162.325 421.712C162.325 420.784 161.733 420.432 160.933 420.432ZM176.807 418.608V416.48H174.327V415.968C173.703 417.152 172.311 417.776 170.791 417.776C168.727 417.776 166.903 416.624 166.903 414.48V413.536C166.903 411.392 168.727 410.24 170.791 410.24C172.311 410.24 173.703 410.864 174.327 412.064V411.216H176.807V410.08L178.967 409.76V418.288L176.807 418.608ZM175.703 418.848C177.447 418.848 179.031 419.552 179.031 421.712C179.031 423.888 177.447 424.592 175.703 424.592H172.279C170.471 424.592 168.855 423.888 168.855 421.712C168.855 419.552 170.471 418.848 172.279 418.848H175.703ZM175.495 420.432H172.455C171.591 420.432 170.999 420.784 170.999 421.712C170.999 422.656 171.591 423.008 172.455 423.008H175.495C176.295 423.008 176.887 422.656 176.887 421.712C176.887 420.784 176.295 420.432 175.495 420.432ZM172.519 414.416V413.6C172.519 412.48 171.767 411.84 170.791 411.84C169.815 411.84 169.063 412.48 169.063 413.6V414.416C169.063 415.536 169.815 416.176 170.791 416.176C171.767 416.176 172.519 415.536 172.519 414.416ZM174.679 414.48C174.679 414.624 174.663 414.752 174.647 414.88H176.807V412.8H174.599C174.647 413.04 174.679 413.28 174.679 413.536V414.48ZM193.226 424.464H183.498V421.04H190.906V420.384H183.466V418.96H193.146V422.368H185.706V423.024H193.546L193.226 424.464ZM182.266 414.048C182.266 412.752 183.866 412.064 185.866 412.064C187.866 412.064 189.466 412.752 189.466 414.048V414.256C189.466 415.296 188.442 415.968 187.002 416.192V416.88C188.138 416.816 189.354 416.704 190.378 416.528V418.032C188.106 418.336 185.642 418.432 183.178 418.432H181.242V416.944H184.762V416.192C183.306 415.968 182.266 415.312 182.266 414.256V414.048ZM193.146 409.76V413.568H195.354L195.034 415.184H193.146V418.08L190.938 418.4V410.08L193.146 409.76ZM189.802 411.76H181.77V410.288H184.826V409.456L187.034 409.136V410.288H190.122L189.802 411.76ZM187.386 414.112C187.386 413.728 186.826 413.504 185.866 413.504C184.906 413.504 184.346 413.728 184.346 414.112V414.192C184.346 414.576 184.906 414.832 185.866 414.832C186.826 414.832 187.386 414.576 187.386 414.192V414.112ZM195.564 416.576H201.452V415.264H197.612V410.144H207.356V411.728H199.836V413.696H207.644L207.324 415.264H203.756V416.576H209.436L209.116 418.16H195.564V416.576ZM204.252 419.04C206.044 419.04 207.66 419.712 207.66 421.856C207.66 424.016 206.044 424.688 204.252 424.688H200.716C198.924 424.688 197.308 424.016 197.308 421.856C197.308 419.712 198.924 419.04 200.716 419.04H204.252ZM204.172 420.64H200.812C200.092 420.64 199.452 420.944 199.452 421.856C199.452 422.784 200.092 423.088 200.812 423.088H204.172C204.892 423.088 205.516 422.784 205.516 421.856C205.516 420.944 204.892 420.64 204.172 420.64ZM226.739 418.784V424L224.515 424.4H217.299V418.784H226.739ZM223.907 415.008V416.592C222.611 416.848 220.659 417.04 218.675 417.04H215.587V410.384H222.483V411.984H217.811V415.44H219.219C220.787 415.44 222.755 415.248 223.907 415.008ZM226.739 409.76V412.944H229.043L228.723 414.544H226.739V417.904L224.547 418.224V410.08L226.739 409.76ZM219.507 422.8H224.515V420.368H219.507V422.8ZM238.198 418.848C239.942 418.848 241.526 419.552 241.526 421.712C241.526 423.888 239.942 424.592 238.198 424.592H234.774C232.966 424.592 231.35 423.888 231.35 421.712C231.35 419.552 232.966 418.848 234.774 418.848H238.198ZM238.47 415.36V416.96C237.174 417.2 235.222 417.392 233.238 417.392H230.15V410.448H237.046V412.048H232.374V415.808H233.782C235.35 415.808 237.318 415.616 238.47 415.36ZM241.302 409.76V412.944H243.606L243.286 414.576H241.302V418.112L239.11 418.432V410.08L241.302 409.76ZM237.99 420.432H234.95C234.086 420.432 233.494 420.784 233.494 421.712C233.494 422.656 234.086 423.008 234.95 423.008H237.99C238.79 423.008 239.382 422.656 239.382 421.712C239.382 420.784 238.79 420.432 237.99 420.432ZM252.44 410.8L252.12 412.384H249.56V415.008C249.56 415.344 249.64 415.696 249.848 415.952C250.728 417.04 251.848 418.32 252.936 419.536L251.656 420.768C250.536 419.584 249.352 418.32 248.456 417.28C247.48 418.448 246.248 419.856 245.096 421.104L243.752 419.936C244.856 418.656 245.992 417.408 246.968 416.08C247.16 415.808 247.32 415.44 247.32 415.104V412.384H244.472V410.8H252.44ZM255.832 409.76V415.264H258.136L257.816 417.056H255.832V424.08L253.64 424.4V410.08L255.832 409.76Z" fill="white"/>
<path d="M17.4521 464.607C16.6045 464.601 15.9141 463.91 15.9072 463.049C15.9141 462.201 16.6045 461.511 17.4521 461.504C18.3135 461.511 19.0039 462.201 19.0107 463.049C19.0039 463.91 18.3135 464.601 17.4521 464.607ZM38.623 456.5V457.539H34.8906C34.9658 458.872 36.7295 460.048 39.0059 460.328L38.5137 461.354C36.415 461.08 34.6924 460.103 34.0361 458.729C33.3662 460.103 31.6504 461.08 29.5586 461.354L29.0664 460.328C31.3564 460.048 33.1064 458.865 33.168 457.539H29.4766V456.5H38.623ZM28.4375 463.199V462.146H39.6484V463.199H34.7812V465.578H33.4961V463.199H28.4375ZM29.832 467.902V464.402H31.1309V466.85H38.4043V467.902H29.832ZM42.4375 456.541V458.332H45.5V456.541H46.7852V458.852H49.4648V455.912H50.7637V462.598H49.4648V459.932H46.7852V462.188H41.1387V456.541H42.4375ZM42.4375 461.135H45.5V459.344H42.4375V461.135ZM42.7793 467.984V463.172H44.0645V464.553H49.4648V463.172H50.75V467.984H42.7793ZM44.0645 466.932H49.4648V465.564H44.0645V466.932ZM57.1621 459.521C57.1553 461.572 58.502 463.691 60.3887 464.498L59.6777 465.51C58.2354 464.874 57.0869 463.521 56.5195 461.887C55.9521 463.637 54.8037 465.127 53.375 465.824L52.623 464.799C54.4688 463.931 55.8359 461.634 55.8496 459.521V458.223H53.0469V457.143H59.9512V458.223H57.1621V459.521ZM61.4961 468.162V455.912H62.7949V468.162H61.4961ZM74.9355 455.926V465.209H73.6367V464.033H71.1758V463.117H73.6367V455.926H74.9355ZM64.6953 461.518C66.958 461.497 70.0137 461.477 72.625 461.148L72.707 462.078C71.6611 462.256 70.5605 462.365 69.4805 462.44V464.826H68.1816V462.509C66.9922 462.557 65.8506 462.557 64.8594 462.557L64.6953 461.518ZM65.6523 458.551C65.6455 457.252 66.8828 456.391 68.7012 456.391C70.4922 456.391 71.7363 457.252 71.7363 458.551C71.7363 459.856 70.4922 460.684 68.7012 460.684C66.8896 460.684 65.6455 459.856 65.6523 458.551ZM66.3906 467.902V464.307H67.6758V466.85H75.2363V467.902H66.3906ZM66.8828 458.551C66.876 459.275 67.6143 459.727 68.7012 459.727C69.7471 459.727 70.499 459.275 70.5059 458.551C70.499 457.819 69.7471 457.348 68.7012 457.361C67.6143 457.348 66.876 457.819 66.8828 458.551ZM83.4395 456.637V457.703H78.8594V459.043H83.0977V460.055H78.8594V461.477C81.3066 461.477 82.7354 461.429 84.3965 461.148L84.5332 462.188C82.7627 462.488 81.2383 462.522 78.5586 462.516H77.5469V456.637H83.4395ZM78.9551 468.012V463.787H87.0078V468.012H78.9551ZM80.2402 466.959H85.7363V464.799H80.2402V466.959ZM85.709 463.213V455.926H87.0078V463.213H85.709ZM92.9414 456.787C94.876 456.78 96.2705 457.977 96.2773 459.699C96.2705 461.422 94.876 462.618 92.9414 462.625C91.0137 462.618 89.5986 461.422 89.6055 459.699C89.5986 457.977 91.0137 456.78 92.9414 456.787ZM89.0176 464.471C91.2461 464.471 94.3359 464.45 97.0156 464.061L97.1113 465.004C94.3428 465.537 91.3691 465.551 89.1816 465.551L89.0176 464.471ZM90.8906 459.699C90.877 460.786 91.752 461.49 92.9414 461.49C94.1309 461.49 95.0059 460.786 95.0059 459.699C95.0059 458.626 94.1309 457.908 92.9414 457.908C91.752 457.908 90.877 458.626 90.8906 459.699ZM97.7812 468.189V455.912H99.0801V468.189H97.7812ZM110.045 456.199C112.677 456.206 114.399 457.156 114.393 458.674C114.399 460.191 112.677 461.135 110.045 461.135C107.413 461.135 105.677 460.191 105.684 458.674C105.677 457.156 107.413 456.206 110.045 456.199ZM104.467 463.035V461.982H115.65V463.035H112.875V465.469H111.576V463.035H109.648V465.469H108.336V463.035H104.467ZM105.807 467.902V464.416H107.119V466.85H114.516V467.902H105.807ZM107.078 458.674C107.064 459.569 108.254 460.096 110.045 460.109C111.843 460.096 113.019 459.569 113.025 458.674C113.019 457.778 111.843 457.245 110.045 457.238C108.254 457.245 107.064 457.778 107.078 458.674ZM126.738 455.912V468.189H125.439V455.912H126.738ZM117.25 458.072V457.02H122.992V461.49H118.59V464.17C120.579 464.163 122.309 464.067 124.359 463.732L124.482 464.799C122.315 465.161 120.47 465.243 118.303 465.25H117.264V460.451H121.666V458.072H117.25ZM142.297 455.926V463.172H140.998V461.682H137.908V460.615H140.998V459.125H138.038C137.245 461.094 135.406 462.481 132.754 463.24L132.234 462.229C135.133 461.401 136.828 459.843 137.061 457.867H132.863V456.801H138.469C138.469 457.252 138.421 457.689 138.339 458.1H140.998V455.926H142.297ZM134.135 465.701C134.135 464.218 135.748 463.315 138.264 463.309C140.745 463.315 142.372 464.218 142.379 465.701C142.372 467.191 140.745 468.107 138.264 468.107C135.748 468.107 134.135 467.191 134.135 465.701ZM135.42 465.701C135.42 466.562 136.514 467.062 138.264 467.068C139.979 467.062 141.073 466.562 141.08 465.701C141.073 464.826 139.979 464.327 138.264 464.334C136.514 464.327 135.42 464.826 135.42 465.701ZM147.574 456.623C148.593 456.616 149.461 456.999 150.035 457.635H153.098V455.912H154.396V463.145H153.098V461.49H150.028C149.454 462.119 148.586 462.495 147.574 462.488C145.729 462.495 144.354 461.271 144.361 459.562C144.354 457.833 145.729 456.616 147.574 456.623ZM145.605 459.562C145.599 460.636 146.426 461.395 147.574 461.381C148.688 461.395 149.516 460.636 149.516 459.562C149.516 458.462 148.688 457.73 147.574 457.744C146.426 457.73 145.599 458.462 145.605 459.562ZM146.152 465.783C146.146 464.286 147.731 463.411 150.295 463.418C152.845 463.411 154.431 464.286 154.438 465.783C154.431 467.273 152.845 468.142 150.295 468.135C147.731 468.142 146.146 467.273 146.152 465.783ZM147.424 465.783C147.417 466.624 148.497 467.116 150.295 467.109C152.093 467.116 153.166 466.624 153.166 465.783C153.166 464.908 152.093 464.423 150.295 464.416C148.497 464.423 147.417 464.908 147.424 465.783ZM150.63 458.674C150.712 458.947 150.76 459.248 150.76 459.562C150.76 459.863 150.712 460.157 150.63 460.424H153.098V458.674H150.63ZM169.34 455.912V458.961H171.09V460.068H169.34V463.131H168.041V455.912H169.34ZM159.619 461.969C160.569 461.969 161.67 461.962 162.818 461.935V461.244C161.41 461.114 160.535 460.547 160.549 459.631C160.535 458.633 161.684 458.045 163.461 458.045C165.225 458.045 166.366 458.633 166.373 459.631C166.366 460.54 165.505 461.107 164.117 461.244V461.88C165.211 461.832 166.318 461.743 167.344 461.6L167.453 462.447C164.821 462.878 161.909 462.898 159.756 462.898L159.619 461.969ZM159.934 457.689V456.787H162.818V455.803H164.117V456.787H167.002V457.689H159.934ZM161.246 464.553V463.65H169.34V466.207H162.572V467.137H169.791V468.039H161.273V465.373H168.055V464.553H161.246ZM161.779 459.631C161.779 460.123 162.415 460.424 163.461 460.424C164.493 460.424 165.136 460.123 165.129 459.631C165.136 459.159 164.493 458.893 163.461 458.893C162.415 458.893 161.779 459.159 161.779 459.631ZM182.984 461.873V462.912H171.801V461.873H176.764V460.574H173.195V456.473H181.604V457.498H174.48V459.535H181.686V460.574H178.021V461.873H182.984ZM173.127 465.934C173.127 464.512 174.72 463.712 177.379 463.705C180.018 463.712 181.597 464.512 181.604 465.934C181.597 467.355 180.018 468.155 177.379 468.162C174.72 468.155 173.127 467.355 173.127 465.934ZM174.439 465.934C174.433 466.72 175.506 467.15 177.379 467.137C179.225 467.15 180.305 466.72 180.305 465.934C180.305 465.161 179.225 464.717 177.379 464.717C175.506 464.717 174.433 465.161 174.439 465.934ZM198.529 465.564V466.645H187.318V465.564H192.254V463.049H188.604V456.746H189.902V458.852H195.918V456.746H197.203V463.049H193.539V465.564H198.529ZM189.902 461.996H195.918V459.904H189.902V461.996ZM210.629 465.564V466.631H199.418V465.564H204.367V462.666H205.666V465.564H210.629ZM199.938 462.105C202.214 461.723 204.326 460.021 204.326 458.141V458.031H200.348V456.965H209.658V458.031H205.68V458.141C205.68 460.021 207.806 461.688 210.137 462.051L209.617 463.076C207.635 462.707 205.81 461.559 205.01 459.945C204.224 461.579 202.412 462.748 200.471 463.131L199.938 462.105ZM215.865 457.744C215.858 459.46 216.973 460.991 218.832 461.6L218.121 462.611C216.774 462.119 215.783 461.176 215.25 459.945C214.724 461.347 213.657 462.447 212.174 462.98L211.477 461.941C213.432 461.271 214.566 459.638 214.58 457.799V456.596H215.865V457.744ZM213.486 465.824C213.479 464.341 215.052 463.479 217.629 463.486C220.192 463.479 221.765 464.341 221.771 465.824C221.765 467.301 220.192 468.142 217.629 468.135C215.052 468.142 213.479 467.301 213.486 465.824ZM214.771 465.824C214.765 466.638 215.831 467.116 217.629 467.109C219.413 467.116 220.479 466.638 220.486 465.824C220.479 464.983 219.413 464.498 217.629 464.498C215.831 464.498 214.765 464.983 214.771 465.824ZM217.848 459.467V458.4H220.432V455.912H221.73V463.145H220.432V459.467H217.848ZM17.4521 488.607C16.6045 488.601 15.9141 487.91 15.9072 487.049C15.9141 486.201 16.6045 485.511 17.4521 485.504C18.3135 485.511 19.0039 486.201 19.0107 487.049C19.0039 487.91 18.3135 488.601 17.4521 488.607ZM38.5957 479.912V492.189H37.2969V479.912H38.5957ZM28.875 485.121C28.875 482.503 30.1943 480.835 32.0469 480.828C33.8652 480.835 35.2051 482.503 35.2051 485.121C35.2051 487.767 33.8652 489.435 32.0469 489.428C30.1943 489.435 28.875 487.767 28.875 485.121ZM30.1328 485.121C30.126 487.069 30.9053 488.266 32.0469 488.266C33.168 488.266 33.9473 487.069 33.9473 485.121C33.9473 483.2 33.168 481.997 32.0469 481.99C30.9053 481.997 30.126 483.2 30.1328 485.121ZM50.9961 479.912V487.637H49.7656V484.219H48.3438V487.213H47.127V480.145H48.3438V483.152H49.7656V479.912H50.9961ZM40.4824 482.332V481.307H42.957V480.008H44.2422V481.307H46.6758V482.332H40.4824ZM40.9609 485.012C40.9609 483.74 42.0547 482.906 43.5859 482.906C45.1514 482.906 46.2383 483.74 46.2383 485.012C46.2383 486.283 45.1514 487.117 43.5859 487.117C42.0547 487.117 40.9609 486.283 40.9609 485.012ZM42.123 485.012C42.123 485.709 42.7178 486.167 43.5859 486.174C44.4678 486.167 45.0693 485.709 45.0625 485.012C45.0693 484.314 44.4678 483.856 43.5859 483.863C42.7178 483.856 42.123 484.314 42.123 485.012ZM42.752 489.988C42.7383 488.601 44.2969 487.814 46.8945 487.814C49.499 487.814 51.0576 488.601 51.0645 489.988C51.0576 491.362 49.499 492.142 46.8945 492.135C44.2969 492.142 42.7383 491.362 42.752 489.988ZM44.0371 489.988C44.0234 490.727 45.0762 491.15 46.8945 491.137C48.7197 491.15 49.7588 490.727 49.7656 489.988C49.7588 489.216 48.7197 488.806 46.8945 488.812C45.0762 488.806 44.0234 489.216 44.0371 489.988ZM60.416 481.744C60.4092 483.46 61.5234 484.991 63.3828 485.6L62.6719 486.611C61.3252 486.119 60.334 485.176 59.8008 483.945C59.2744 485.347 58.208 486.447 56.7246 486.98L56.0273 485.941C57.9824 485.271 59.1172 483.638 59.1309 481.799V480.596H60.416V481.744ZM58.0371 489.824C58.0303 488.341 59.6025 487.479 62.1797 487.486C64.7432 487.479 66.3154 488.341 66.3223 489.824C66.3154 491.301 64.7432 492.142 62.1797 492.135C59.6025 492.142 58.0303 491.301 58.0371 489.824ZM59.3223 489.824C59.3154 490.638 60.3818 491.116 62.1797 491.109C63.9639 491.116 65.0303 490.638 65.0371 489.824C65.0303 488.983 63.9639 488.498 62.1797 488.498C60.3818 488.498 59.3154 488.983 59.3223 489.824ZM62.3984 483.467V482.4H64.9824V479.912H66.2812V487.145H64.9824V483.467H62.3984ZM74.9902 481.225V481.977C74.9834 483.009 74.9834 484.588 74.6348 486.775L73.3496 486.68C73.6641 484.725 73.6982 483.296 73.7051 482.277H68.7285V481.225H74.9902ZM68.0449 488.471C68.8105 488.464 69.665 488.457 70.5605 488.437V484.725H71.8457V488.396C73.1445 488.341 74.4775 488.259 75.7012 488.102L75.7695 489.072C73.2197 489.482 70.3691 489.537 68.1953 489.523L68.0449 488.471ZM76.3984 492.162V479.912H77.7109V484.971H79.584V486.078H77.7109V492.162H76.3984ZM91.4648 485.531V486.529H80.2539V485.531H91.4648ZM81.5801 488.32V487.391H90.084V490.084H82.8926V491.096H90.4668V492.012H81.5938V489.223H88.7988V488.32H81.5801ZM81.6621 481.143V480.227H90.0566V482.879H82.9746V483.809H90.2617V484.725H81.6895V482.018H88.7578V481.143H81.6621ZM106.395 481.648V482.701H96.3184V481.648H100.721V480.09H102.006V481.648H106.395ZM95.7852 490.809V489.756H98.6562V487.568C97.7676 487.179 97.2686 486.55 97.2754 485.723C97.2686 484.26 98.834 483.398 101.363 483.412C103.872 483.398 105.444 484.26 105.438 485.723C105.444 486.55 104.945 487.179 104.057 487.568V489.756H106.996V490.809H95.7852ZM98.6016 485.723C98.5879 486.55 99.6133 487.021 101.363 487.021C103.086 487.021 104.118 486.55 104.111 485.723C104.118 484.889 103.086 484.417 101.363 484.41C99.6133 484.417 98.5879 484.889 98.6016 485.723ZM99.9551 489.756H102.785V487.931C102.354 487.999 101.876 488.033 101.363 488.033C100.851 488.033 100.379 487.999 99.9551 487.931V489.756ZM114.707 481.225V481.977C114.7 483.009 114.7 484.588 114.352 486.775L113.066 486.68C113.381 484.725 113.415 483.296 113.422 482.277H108.445V481.225H114.707ZM107.762 488.471C108.527 488.464 109.382 488.457 110.277 488.437V484.725H111.562V488.396C112.861 488.341 114.194 488.259 115.418 488.102L115.486 489.072C112.937 489.482 110.086 489.537 107.912 489.523L107.762 488.471ZM116.115 492.162V479.912H117.428V484.971H119.301V486.078H117.428V492.162H116.115ZM124.373 482.086C124.366 483.631 125.474 485.142 127.326 485.777L126.656 486.789C125.282 486.317 124.264 485.333 123.73 484.123C123.197 485.47 122.124 486.55 120.668 487.062L119.998 486.037C121.878 485.395 123.054 483.761 123.047 482.1V481.758H120.395V480.705H126.998V481.758H124.373V482.086ZM121.898 488.908V487.855H130.197V492.162H128.898V488.908H121.898ZM126.629 484.096V483.029H128.898V479.912H130.197V487.24H128.898V484.096H126.629ZM137.662 480.65C140.232 480.65 142.188 482.011 142.188 484.068C142.188 486.14 140.232 487.493 137.662 487.486C135.099 487.493 133.144 486.14 133.15 484.068C133.144 482.011 135.099 480.65 137.662 480.65ZM132.084 490.576V489.496H143.295V490.576H132.084ZM134.395 484.068C134.388 485.497 135.782 486.42 137.662 486.42C139.535 486.42 140.923 485.497 140.93 484.068C140.923 482.646 139.535 481.696 137.662 481.703C135.782 481.696 134.388 482.646 134.395 484.068ZM155.395 489.605V490.699H144.184V489.605H149.119V487.459H145.551V483.562H152.742V481.84H145.523V480.773H154.027V484.602H146.836V486.393H154.314V487.459H150.404V489.605H155.395ZM166.523 480.842V481.525C166.51 482.346 166.51 483.562 166.209 485.148L164.924 485.025C165.19 483.672 165.231 482.681 165.245 481.908H160.344V480.842H166.523ZM159.605 486.201C160.357 486.201 161.212 486.194 162.107 486.174V483.59H163.393V486.133C164.705 486.078 166.059 485.982 167.289 485.805L167.371 486.748C164.814 487.199 161.889 487.247 159.729 487.254L159.605 486.201ZM161.465 491.902V488.279H162.764V490.85H169.791V491.902H161.465ZM168.068 489.113V479.912H169.395V483.809H171.076V484.902H169.395V489.113H168.068ZM181.973 479.912V492.189H180.674V479.912H181.973ZM172.484 482.072V481.02H178.227V485.49H173.824V488.17C175.813 488.163 177.543 488.067 179.594 487.732L179.717 488.799C177.55 489.161 175.704 489.243 173.537 489.25H172.498V484.451H176.9V482.072H172.484ZM193.525 479.871V482.742H195.316V483.809H193.525V486.611H192.227V479.871H193.525ZM183.914 481.977V480.951H186.922V479.803H188.221V480.951H191.215V481.977H183.914ZM184.584 484.451C184.577 483.214 185.767 482.441 187.564 482.441C189.362 482.441 190.531 483.214 190.531 484.451C190.531 485.695 189.362 486.454 187.564 486.447C185.767 486.454 184.577 485.695 184.584 484.451ZM185.609 488.156V487.186H193.525V490.029H186.908V491.055H193.949V492.039H185.637V489.113H192.24V488.156H185.609ZM185.842 484.451C185.828 485.114 186.505 485.504 187.564 485.504C188.617 485.504 189.301 485.114 189.314 484.451C189.301 483.788 188.617 483.378 187.564 483.371C186.505 483.378 185.828 483.788 185.842 484.451ZM205.693 480.992C205.687 482.619 207.676 484.144 210.082 484.465L209.576 485.531C207.573 485.21 205.816 484.171 205.017 482.729C204.217 484.171 202.46 485.21 200.471 485.531L199.951 484.465C202.351 484.144 204.333 482.64 204.34 480.992V480.322H205.693V480.992ZM199.418 487.801V486.734H210.588V487.801H205.611V492.162H204.34V487.801H199.418ZM219.188 488.006C219.188 489.059 219.707 490.173 220.821 490.836C221.942 490.118 222.496 488.949 222.496 488.006V487.418H223.768V488.006C223.761 489.277 224.602 490.508 226.201 491.027L225.559 491.984C224.349 491.567 223.521 490.747 223.098 489.749C222.708 490.733 221.977 491.629 220.855 492.094C219.68 491.649 218.935 490.781 218.559 489.783C218.114 490.747 217.308 491.561 216.152 491.984L215.496 491.027C217.068 490.467 217.923 489.188 217.93 488.006V487.418H219.188V488.006ZM215.182 483.494C215.188 481.778 216.569 480.603 218.449 480.596C220.322 480.603 221.703 481.778 221.703 483.494C221.703 485.189 220.322 486.365 218.449 486.365C216.569 486.365 215.188 485.189 215.182 483.494ZM216.453 483.494C216.446 484.561 217.287 485.285 218.449 485.285C219.598 485.285 220.432 484.561 220.432 483.494C220.432 482.421 219.598 481.696 218.449 481.703C217.287 481.696 216.446 482.421 216.453 483.494ZM223.795 486.898V479.926H225.094V486.898H223.795ZM236.947 483.494V484.533H228.512V480.35H229.797V483.494H236.947ZM227.021 487.117V486.078H238.232V487.117H227.021ZM228.416 491.875V488.279H229.715V490.809H237.029V491.875H228.416ZM246.217 483.672C246.217 485.6 247.112 487.562 248.801 488.471L248.076 489.428C246.887 488.799 246.066 487.63 245.622 486.242C245.185 487.726 244.364 489.004 243.182 489.715L242.416 488.73C244.111 487.746 244.986 485.647 245 483.672V483.18H242.785V482.113H245V480.35H246.217V482.113H248.391V483.18H246.217V483.672ZM247.584 485.764V484.684H249.348V480.172H250.578V491.547H249.348V485.764H247.584ZM251.822 492.162V479.912H253.066V492.162H251.822ZM265.18 479.912V492.162H263.949V479.912H265.18ZM254.584 488.621C257.188 487.076 258.433 485.019 258.658 482.496H255.186V481.43H259.943C259.943 482.059 259.896 482.667 259.8 483.262H261.447V480.227H262.678V491.561H261.447V487.391H259.355V486.324H261.447V484.328H259.561C258.966 486.386 257.66 488.177 255.35 489.551L254.584 488.621ZM276.363 481.129V489.086H270.635V481.129H276.363ZM271.906 488.033H275.078V482.154H271.906V488.033ZM278.414 492.162V479.912H279.713V484.711H281.682V485.805H279.713V492.162H278.414ZM288.107 480.773V484.465H284.061V486.283C286.104 486.276 287.314 486.215 288.75 485.969L288.887 487.021C287.294 487.302 285.988 487.336 283.664 487.336H282.762V483.467H286.795V481.812H282.734V480.773H288.107ZM284.43 491.861V488.266H285.729V490.795H292.838V491.861H284.43ZM288.9 485.723V484.656H291.184V482.961H288.9V481.922H291.184V479.926H292.482V488.936H291.184V485.723H288.9Z" fill="#282828"/>
<g filter="url(#filter2_f_307_4069)">
<rect x="16" y="525" width="281" height="39" rx="16" fill="#578DF4"/>
</g>
<rect x="7" y="514" width="299" height="50" rx="16" fill="#4B84F0"/>
<path d="M147.716 540.784V546L145.492 546.4H138.276V540.784H147.716ZM141.412 534.016H136.5V532.432H143.668V533.264C143.668 536.864 140.404 539.68 136.804 540.528L135.94 539.072C138.564 538.336 141.412 536.112 141.412 534.144V534.016ZM147.716 531.76V535.472H150.02L149.7 537.072H147.716V539.904L145.524 540.224V532.08L147.716 531.76ZM140.468 544.8H145.492V542.368H140.468V544.8ZM162.231 531.76V537.232H164.535L164.215 539.024H162.231V546.08L160.039 546.4V532.08L162.231 531.76ZM155.719 532.496V536.704C155.719 537.04 155.815 537.392 156.007 537.648C156.839 538.768 158.103 540.304 159.191 541.52L157.911 542.752C156.791 541.568 155.431 540.064 154.615 538.976C153.671 540.176 152.295 541.872 151.159 543.104L149.815 541.936C150.903 540.672 152.183 539.136 153.127 537.776C153.319 537.504 153.479 537.136 153.479 536.8V532.816L155.719 532.496ZM174.393 537.824V539.408C173.145 539.696 171.369 539.776 169.769 539.776H165.817V532.384H173.113V533.984H168.041V535.264H172.985V536.848H168.041V538.192H169.961C171.257 538.192 172.921 538.128 174.393 537.824ZM177.225 531.76V540.272L175.049 540.592V532.08L177.225 531.76ZM177.225 541.152V546L175.017 546.4H167.769V541.152H177.225ZM169.977 544.8H175.017V542.752H169.977V544.8Z" fill="white"/>
<path d="M17.4521 586.607C16.6045 586.601 15.9141 585.91 15.9072 585.049C15.9141 584.201 16.6045 583.511 17.4521 583.504C18.3135 583.511 19.0039 584.201 19.0107 585.049C19.0039 585.91 18.3135 586.601 17.4521 586.607ZM38.582 577.912V590.162H37.2832V577.912H38.582ZM28.5195 586.826C29.5312 586.819 30.6797 586.812 31.8828 586.785V585.555C30.4541 585.363 29.5244 584.522 29.5312 583.326C29.5244 581.945 30.7275 581.036 32.498 581.029C34.2891 581.036 35.5127 581.945 35.5195 583.326C35.5127 584.509 34.5898 585.343 33.168 585.548V586.737C34.3027 586.683 35.4512 586.601 36.5312 586.457L36.627 587.428C33.9062 587.879 30.9395 587.913 28.6973 587.906L28.5195 586.826ZM28.7793 580.414V579.375H31.8828V577.939H33.1816V579.375H36.2578V580.414H28.7793ZM30.7617 583.326C30.748 584.105 31.4727 584.591 32.498 584.584C33.5576 584.591 34.2754 584.105 34.2754 583.326C34.2754 582.54 33.5576 582.041 32.498 582.041C31.4727 582.041 30.748 582.54 30.7617 583.326ZM44.8027 581.029C44.7891 583.196 46.0537 585.418 47.8789 586.307L47.0723 587.346C45.7393 586.648 44.707 585.281 44.167 583.647C43.6201 585.384 42.5469 586.854 41.1523 587.578L40.3457 586.525C42.2256 585.623 43.4971 583.271 43.5039 581.029V578.938H44.8027V581.029ZM48.7949 590.162V577.912H50.0938V582.793H52.0625V583.9H50.0938V590.162H48.7949ZM56.3281 578.691C58.2148 578.691 59.6162 579.881 59.623 581.604C59.6162 583.121 58.5293 584.222 56.9844 584.468V586.409C58.0713 586.354 59.1582 586.272 60.1699 586.143L60.2656 587.113C57.6748 587.564 54.8242 587.585 52.7051 587.564L52.5 586.498C53.4502 586.491 54.5439 586.484 55.6855 586.457V584.468C54.1064 584.235 53.0264 583.128 53.0332 581.604C53.0264 579.881 54.4072 578.691 56.3281 578.691ZM54.291 581.604C54.2842 582.69 55.1523 583.415 56.3281 583.408C57.4902 583.415 58.3447 582.69 58.3516 581.604C58.3447 580.51 57.4902 579.799 56.3281 579.785C55.1523 579.799 54.2842 580.51 54.291 581.604ZM60.9082 590.162V577.912H62.207V582.889H64.0938V583.982H62.207V590.162H60.9082ZM78.3125 577.912V590.189H77.0137V577.912H78.3125ZM68.5918 583.121C68.5918 580.503 69.9111 578.835 71.7637 578.828C73.582 578.835 74.9219 580.503 74.9219 583.121C74.9219 585.767 73.582 587.435 71.7637 587.428C69.9111 587.435 68.5918 585.767 68.5918 583.121ZM69.8496 583.121C69.8428 585.069 70.6221 586.266 71.7637 586.266C72.8848 586.266 73.6641 585.069 73.6641 583.121C73.6641 581.2 72.8848 579.997 71.7637 579.99C70.6221 579.997 69.8428 581.2 69.8496 583.121ZM86.3242 579.936V580.988H80.2402V579.936H82.6465V578.268H83.9316V579.936H86.3242ZM80.6367 584.543C80.6299 582.896 81.751 581.727 83.2891 581.727C84.8408 581.727 85.9482 582.896 85.9551 584.543C85.9482 586.218 84.8408 587.394 83.2891 587.387C81.751 587.394 80.6299 586.218 80.6367 584.543ZM81.7852 584.543C81.7783 585.582 82.4072 586.279 83.2891 586.279C84.1709 586.279 84.8066 585.582 84.8066 584.543C84.8066 583.524 84.1709 582.813 83.2891 582.807C82.4072 582.813 81.7783 583.524 81.7852 584.543ZM86.8848 589.588V578.186H88.1152V583.012H89.5234V577.912H90.7539V590.162H89.5234V584.078H88.1152V589.588H86.8848ZM99.1895 578.842V579.525C99.1758 580.346 99.1758 581.562 98.875 583.148L97.5898 583.025C97.8564 581.672 97.8975 580.681 97.9111 579.908H93.0098V578.842H99.1895ZM92.2715 584.201C93.0234 584.201 93.8779 584.194 94.7734 584.174V581.59H96.0586V584.133C97.3711 584.078 98.7246 583.982 99.9551 583.805L100.037 584.748C97.4805 585.199 94.5547 585.247 92.3945 585.254L92.2715 584.201ZM94.1309 589.902V586.279H95.4297V588.85H102.457V589.902H94.1309ZM100.734 587.113V577.912H102.061V581.809H103.742V582.902H102.061V587.113H100.734ZM114.994 577.912V590.162H113.764V577.912H114.994ZM104.398 586.621C107.003 585.076 108.247 583.019 108.473 580.496H105V579.43H109.758C109.758 580.059 109.71 580.667 109.614 581.262H111.262V578.227H112.492V589.561H111.262V585.391H109.17V584.324H111.262V582.328H109.375C108.78 584.386 107.475 586.177 105.164 587.551L104.398 586.621ZM122.596 585.09V586.512H124.51V585.09H125.713V590.012H121.379V585.09H122.596ZM120.162 581.262C120.155 579.587 121.502 578.432 123.375 578.432C124.988 578.432 126.239 579.341 126.506 580.715H128.898V577.912H130.197V584.406H128.898V581.781H126.513C126.26 583.183 125.002 584.112 123.375 584.105C121.502 584.112 120.155 582.95 120.162 581.262ZM121.406 581.262C121.399 582.321 122.22 583.046 123.375 583.053C124.51 583.046 125.316 582.321 125.316 581.262C125.316 580.216 124.51 579.505 123.375 579.512C122.22 579.505 121.399 580.216 121.406 581.262ZM122.596 589H124.51V587.496H122.596V589ZM125.781 589.123C127.258 588.515 127.982 587.229 127.982 586.006V585.008H129.268V586.006C129.261 587.291 129.985 588.59 131.496 589.123L130.826 590.107C129.719 589.684 129.001 588.884 128.611 587.913C128.208 588.856 127.49 589.67 126.438 590.107L125.781 589.123ZM141.996 581.494V582.533H133.561V578.35H134.846V581.494H141.996ZM132.07 585.117V584.078H143.281V585.117H132.07ZM133.465 589.875V586.279H134.764V588.809H142.078V589.875H133.465ZM151.867 581.521C151.86 583.456 153.139 585.616 154.998 586.498L154.26 587.51C152.886 586.854 151.792 585.473 151.238 583.873C150.678 585.616 149.529 587.127 148.135 587.824L147.369 586.799C149.229 585.903 150.575 583.593 150.582 581.521V580.223H147.82V579.143H154.533V580.223H151.867V581.521ZM155.846 590.162V577.912H157.145V582.766H159.113V583.859H157.145V590.162H155.846ZM170.912 587.605V588.699H159.701V587.605H164.637V585.459H161.068V581.562H168.26V579.84H161.041V578.773H169.545V582.602H162.354V584.393H169.832V585.459H165.922V587.605H170.912ZM179.539 580.154C179.546 581.815 180.646 583.415 182.492 584.064L181.781 585.076C180.448 584.563 179.443 583.552 178.917 582.287C178.391 583.695 177.345 584.81 175.902 585.363L175.205 584.338C177.112 583.661 178.247 581.959 178.254 580.113V578.664H179.539V580.154ZM177.434 589.902V586.033H178.746V588.85H185.705V589.902H177.434ZM181.549 581.781V580.715H184.133V577.926H185.432V587.059H184.133V581.781H181.549ZM197.477 577.926V584.898H196.178V577.926H197.477ZM187.564 581.439C187.571 579.71 188.952 578.534 190.832 578.541C192.705 578.534 194.086 579.71 194.086 581.439C194.086 583.121 192.705 584.311 190.832 584.311C188.952 584.311 187.571 583.121 187.564 581.439ZM188.836 581.439C188.829 582.492 189.67 583.217 190.832 583.217C191.98 583.217 192.814 582.492 192.814 581.439C192.814 580.353 191.98 579.628 190.832 579.635C189.67 579.628 188.829 580.353 188.836 581.439ZM189.424 590.012V585.514H197.477V590.012H189.424ZM190.709 588.959H196.205V586.553H190.709V588.959ZM17.4521 610.607C16.6045 610.601 15.9141 609.91 15.9072 609.049C15.9141 608.201 16.6045 607.511 17.4521 607.504C18.3135 607.511 19.0039 608.201 19.0107 609.049C19.0039 609.91 18.3135 610.601 17.4521 610.607ZM38.6641 601.926V609.172H37.3652V607.682H34.2754V606.615H37.3652V605.125H34.4053C33.6123 607.094 31.7734 608.481 29.1211 609.24L28.6016 608.229C31.5 607.401 33.1953 605.843 33.4277 603.867H29.2305V602.801H34.8359C34.8359 603.252 34.7881 603.689 34.7061 604.1H37.3652V601.926H38.6641ZM30.502 611.701C30.502 610.218 32.1152 609.315 34.6309 609.309C37.1123 609.315 38.7393 610.218 38.7461 611.701C38.7393 613.191 37.1123 614.107 34.6309 614.107C32.1152 614.107 30.502 613.191 30.502 611.701ZM31.7871 611.701C31.7871 612.562 32.8809 613.062 34.6309 613.068C36.3467 613.062 37.4404 612.562 37.4473 611.701C37.4404 610.826 36.3467 610.327 34.6309 610.334C32.8809 610.327 31.7871 610.826 31.7871 611.701ZM43.9414 602.623C44.96 602.616 45.8281 602.999 46.4023 603.635H49.4648V601.912H50.7637V609.145H49.4648V607.49H46.3955C45.8213 608.119 44.9531 608.495 43.9414 608.488C42.0957 608.495 40.7217 607.271 40.7285 605.562C40.7217 603.833 42.0957 602.616 43.9414 602.623ZM41.9727 605.562C41.9658 606.636 42.793 607.395 43.9414 607.381C45.0557 607.395 45.8828 606.636 45.8828 605.562C45.8828 604.462 45.0557 603.73 43.9414 603.744C42.793 603.73 41.9658 604.462 41.9727 605.562ZM42.5195 611.783C42.5127 610.286 44.0986 609.411 46.6621 609.418C49.2119 609.411 50.7979 610.286 50.8047 611.783C50.7979 613.273 49.2119 614.142 46.6621 614.135C44.0986 614.142 42.5127 613.273 42.5195 611.783ZM43.791 611.783C43.7842 612.624 44.8643 613.116 46.6621 613.109C48.46 613.116 49.5332 612.624 49.5332 611.783C49.5332 610.908 48.46 610.423 46.6621 610.416C44.8643 610.423 43.7842 610.908 43.791 611.783ZM46.9971 604.674C47.0791 604.947 47.127 605.248 47.127 605.562C47.127 605.863 47.0791 606.157 46.9971 606.424H49.4648V604.674H46.9971ZM62.8633 601.926V610.895H61.5645V606.287H59.2266V605.234H61.5645V601.926H62.8633ZM52.6641 608.338C54.5439 607.702 55.7197 606.089 55.7129 604.4V603.922H53.0605V602.855H59.6641V603.922H57.0391V604.4C57.0322 605.925 58.1396 607.463 59.9922 608.078L59.3223 609.117C57.9482 608.639 56.9297 607.654 56.3965 606.438C55.8633 607.791 54.79 608.871 53.334 609.391L52.6641 608.338ZM54.9062 613.902V610.088H56.2051V612.85H63.1914V613.902H54.9062ZM74.375 601.926V605.535H76.1523V606.629H74.375V610.922H73.0762V601.926H74.375ZM65.2285 608.898V602.801H66.5V604.756H69.7129V602.801H70.998V608.898H65.2285ZM66.5 607.859H69.7129V605.781H66.5V607.859ZM66.6094 613.902V610.033H67.9082V612.85H74.8945V613.902H66.6094ZM87.3906 601.912V614.162H86.1465V601.912H87.3906ZM76.9863 607.203C76.9863 604.551 78.0254 602.89 79.625 602.896C81.1152 602.89 82.1201 604.305 82.2705 606.602H83.6582V602.145H84.9023V613.561H83.6582V607.654H82.2773C82.1611 610.047 81.1426 611.53 79.625 611.523C78.0254 611.53 76.9863 609.862 76.9863 607.203ZM78.1895 607.203C78.1895 609.151 78.7432 610.3 79.625 610.293C80.5273 610.3 81.0879 609.151 81.0879 607.203C81.0879 605.248 80.5273 604.106 79.625 604.113C78.7432 604.106 78.1895 605.248 78.1895 607.203ZM102.58 601.912V608.146H101.281V605.809H98.7383V604.756H101.281V601.912H102.58ZM92.5449 607.381C95.4023 606.711 97.0088 605.323 97.2344 603.525H93.2012V602.459H98.6289C98.6289 605.556 96.5508 607.552 92.9961 608.434L92.5449 607.381ZM94.5684 609.691V608.666H102.58V611.77H95.8809V613H102.949V614.039H94.5957V610.785H101.281V609.691H94.5684ZM114.68 601.912V614.189H113.395V609.336H111.002V608.283H113.395V606.793H111.002V605.727H113.395V601.912H114.68ZM104.467 610.812C106.319 609.958 107.536 607.866 107.529 605.85V605.043H104.809V604.004H107.543V602.158H108.842V604.004H111.494V605.043H108.814V605.85C108.814 607.784 110.065 609.794 111.945 610.621L111.207 611.619C109.819 611.004 108.739 609.712 108.192 608.174C107.659 609.794 106.586 611.161 105.178 611.811L104.467 610.812ZM129.609 601.912V604.797H131.387V605.877H129.609V608.83H128.311V601.912H129.609ZM119.93 607.969C122.862 607.196 124.585 605.658 124.824 603.744H120.504V602.678H126.232C126.226 605.815 124.1 608.023 120.449 609.008L119.93 607.969ZM121.762 613.998V609.35H129.609V613.998H121.762ZM123.061 612.959H128.324V610.43H123.061V612.959ZM143.254 607.955V609.008H132.084V607.955H137.02V606.615H133.479V602.404H141.887V603.443H134.777V605.549H142.01V606.615H138.318V607.955H143.254ZM133.328 611.141V610.088H141.9V614.23H140.615V611.141H133.328ZM157.746 601.912V614.189H156.447V601.912H157.746ZM148.025 607.121C148.025 604.503 149.345 602.835 151.197 602.828C153.016 602.835 154.355 604.503 154.355 607.121C154.355 609.767 153.016 611.435 151.197 611.428C149.345 611.435 148.025 609.767 148.025 607.121ZM149.283 607.121C149.276 609.069 150.056 610.266 151.197 610.266C152.318 610.266 153.098 609.069 153.098 607.121C153.098 605.2 152.318 603.997 151.197 603.99C150.056 603.997 149.276 605.2 149.283 607.121ZM170.146 601.912V609.637H168.916V606.219H167.494V609.213H166.277V602.145H167.494V605.152H168.916V601.912H170.146ZM159.633 604.332V603.307H162.107V602.008H163.393V603.307H165.826V604.332H159.633ZM160.111 607.012C160.111 605.74 161.205 604.906 162.736 604.906C164.302 604.906 165.389 605.74 165.389 607.012C165.389 608.283 164.302 609.117 162.736 609.117C161.205 609.117 160.111 608.283 160.111 607.012ZM161.273 607.012C161.273 607.709 161.868 608.167 162.736 608.174C163.618 608.167 164.22 607.709 164.213 607.012C164.22 606.314 163.618 605.856 162.736 605.863C161.868 605.856 161.273 606.314 161.273 607.012ZM161.902 611.988C161.889 610.601 163.447 609.814 166.045 609.814C168.649 609.814 170.208 610.601 170.215 611.988C170.208 613.362 168.649 614.142 166.045 614.135C163.447 614.142 161.889 613.362 161.902 611.988ZM163.188 611.988C163.174 612.727 164.227 613.15 166.045 613.137C167.87 613.15 168.909 612.727 168.916 611.988C168.909 611.216 167.87 610.806 166.045 610.812C164.227 610.806 163.174 611.216 163.188 611.988Z" fill="#282828"/>
<defs>
<filter id="filter0_f_307_4069" x="0" y="241" width="313" height="71" filterUnits="userSpaceOnUse" color-interpolation-filters="sRGB">
<feFlood flood-opacity="0" result="BackgroundImageFix"/>
<feBlend mode="normal" in="SourceGraphic" in2="BackgroundImageFix" result="shape"/>
<feGaussianBlur stdDeviation="8" result="effect1_foregroundBlur_307_4069"/>
</filter>
<filter id="filter1_f_307_4069" x="0" y="387" width="313" height="71" filterUnits="userSpaceOnUse" color-interpolation-filters="sRGB">
<feFlood flood-opacity="0" result="BackgroundImageFix"/>
<feBlend mode="normal" in="SourceGraphic" in2="BackgroundImageFix" result="shape"/>
<feGaussianBlur stdDeviation="8" result="effect1_foregroundBlur_307_4069"/>
</filter>
<filter id="filter2_f_307_4069" x="0" y="509" width="313" height="71" filterUnits="userSpaceOnUse" color-interpolation-filters="sRGB">
<feFlood flood-opacity="0" result="BackgroundImageFix"/>
<feBlend mode="normal" in="SourceGraphic" in2="BackgroundImageFix" result="shape"/>
<feGaussianBlur stdDeviation="8" result="effect1_foregroundBlur_307_4069"/>
</filter>
<clipPath id="clip0_307_4069">
<rect width="197" height="172" fill="white" transform="translate(58)"/>
</clipPath>
</defs>
</svg>
