<svg width="1336" height="516" viewBox="0 0 1336 516" fill="none" xmlns="http://www.w3.org/2000/svg">
<g filter="url(#filter0_f_578_14312)">
<rect x="479.5" y="365" width="378" height="69" rx="16" fill="#578DF4"/>
</g>
<rect x="467.5" y="344" width="402" height="88" rx="16" fill="#4B84F0"/>
<path d="M480.938 470.924C479.849 470.915 478.961 470.027 478.952 468.92C478.961 467.83 479.849 466.942 480.938 466.934C482.046 466.942 482.934 467.83 482.942 468.92C482.934 470.027 482.046 470.915 480.938 470.924ZM508.158 460.5V461.836H503.359C503.456 463.55 505.724 465.062 508.65 465.422L508.018 466.74C505.319 466.389 503.104 465.132 502.261 463.365C501.399 465.132 499.193 466.389 496.504 466.74L495.871 465.422C498.815 465.062 501.065 463.541 501.145 461.836H496.398V460.5H508.158ZM495.062 469.113V467.76H509.477V469.113H503.219V472.172H501.566V469.113H495.062ZM496.855 475.16V470.66H498.525V473.807H507.877V475.16H496.855ZM513.062 460.553V462.855H517V460.553H518.652V463.523H522.098V459.744H523.768V468.34H522.098V464.912H518.652V467.812H511.393V460.553H513.062ZM513.062 466.459H517V464.156H513.062V466.459ZM513.502 475.266V469.078H515.154V470.854H522.098V469.078H523.75V475.266H513.502ZM515.154 473.912H522.098V472.154H515.154V473.912ZM531.994 464.385C531.985 467.021 533.717 469.746 536.143 470.783L535.229 472.084C533.374 471.267 531.897 469.526 531.168 467.426C530.438 469.676 528.962 471.592 527.125 472.488L526.158 471.17C528.531 470.054 530.289 467.101 530.307 464.385V462.715H526.703V461.326H535.58V462.715H531.994V464.385ZM537.566 475.494V459.744H539.236V475.494H537.566ZM554.846 459.762V471.697H553.176V470.186H550.012V469.008H553.176V459.762H554.846ZM541.68 466.951C544.589 466.925 548.518 466.898 551.875 466.477L551.98 467.672C550.636 467.9 549.221 468.041 547.832 468.138V471.205H546.162V468.226C544.633 468.287 543.165 468.287 541.891 468.287L541.68 466.951ZM542.91 463.137C542.901 461.467 544.492 460.359 546.83 460.359C549.133 460.359 550.732 461.467 550.732 463.137C550.732 464.815 549.133 465.879 546.83 465.879C544.501 465.879 542.901 464.815 542.91 463.137ZM543.859 475.16V470.537H545.512V473.807H555.232V475.16H543.859ZM544.492 463.137C544.483 464.068 545.433 464.648 546.83 464.648C548.175 464.648 549.142 464.068 549.15 463.137C549.142 462.196 548.175 461.59 546.83 461.607C545.433 461.59 544.483 462.196 544.492 463.137ZM565.779 460.676V462.047H559.891V463.77H565.34V465.07H559.891V466.898C563.037 466.898 564.874 466.837 567.01 466.477L567.186 467.812C564.909 468.199 562.949 468.243 559.504 468.234H558.203V460.676H565.779ZM560.014 475.301V469.869H570.367V475.301H560.014ZM561.666 473.947H568.732V471.17H561.666V473.947ZM568.697 469.131V459.762H570.367V469.131H568.697ZM577.996 460.869C580.483 460.86 582.276 462.398 582.285 464.613C582.276 466.828 580.483 468.366 577.996 468.375C575.518 468.366 573.698 466.828 573.707 464.613C573.698 462.398 575.518 460.86 577.996 460.869ZM572.951 470.748C575.816 470.748 579.789 470.722 583.234 470.221L583.357 471.434C579.798 472.119 575.975 472.137 573.162 472.137L572.951 470.748ZM575.359 464.613C575.342 466.011 576.467 466.916 577.996 466.916C579.525 466.916 580.65 466.011 580.65 464.613C580.65 463.233 579.525 462.311 577.996 462.311C576.467 462.311 575.342 463.233 575.359 464.613ZM584.219 475.529V459.744H585.889V475.529H584.219ZM599.986 460.113C603.37 460.122 605.585 461.344 605.576 463.295C605.585 465.246 603.37 466.459 599.986 466.459C596.603 466.459 594.37 465.246 594.379 463.295C594.37 461.344 596.603 460.122 599.986 460.113ZM592.814 468.902V467.549H607.193V468.902H603.625V472.031H601.955V468.902H599.477V472.031H597.789V468.902H592.814ZM594.537 475.16V470.678H596.225V473.807H605.734V475.16H594.537ZM596.172 463.295C596.154 464.446 597.684 465.123 599.986 465.141C602.298 465.123 603.81 464.446 603.818 463.295C603.81 462.144 602.298 461.458 599.986 461.449C597.684 461.458 596.154 462.144 596.172 463.295ZM621.449 459.744V475.529H619.779V459.744H621.449ZM609.25 462.521V461.168H616.633V466.916H610.973V470.361C613.53 470.353 615.754 470.229 618.391 469.799L618.549 471.17C615.763 471.636 613.39 471.741 610.604 471.75H609.268V465.58H614.928V462.521H609.25ZM641.453 459.762V469.078H639.783V467.162H635.811V465.791H639.783V463.875H635.978C634.958 466.406 632.594 468.19 629.184 469.166L628.516 467.865C632.242 466.802 634.422 464.798 634.721 462.258H629.324V460.887H636.531C636.531 461.467 636.47 462.029 636.364 462.557H639.783V459.762H641.453ZM630.959 472.33C630.959 470.423 633.033 469.263 636.268 469.254C639.458 469.263 641.55 470.423 641.559 472.33C641.55 474.246 639.458 475.424 636.268 475.424C633.033 475.424 630.959 474.246 630.959 472.33ZM632.611 472.33C632.611 473.438 634.018 474.079 636.268 474.088C638.474 474.079 639.88 473.438 639.889 472.33C639.88 471.205 638.474 470.563 636.268 470.572C634.018 470.563 632.611 471.205 632.611 472.33ZM648.238 460.658C649.548 460.649 650.664 461.142 651.402 461.959H655.34V459.744H657.01V469.043H655.34V466.916H651.394C650.655 467.725 649.539 468.208 648.238 468.199C645.865 468.208 644.099 466.635 644.107 464.438C644.099 462.214 645.865 460.649 648.238 460.658ZM645.707 464.438C645.698 465.817 646.762 466.793 648.238 466.775C649.671 466.793 650.734 465.817 650.734 464.438C650.734 463.022 649.671 462.082 648.238 462.1C646.762 462.082 645.698 463.022 645.707 464.438ZM646.41 472.436C646.401 470.511 648.44 469.386 651.736 469.395C655.015 469.386 657.054 470.511 657.062 472.436C657.054 474.352 655.015 475.468 651.736 475.459C648.44 475.468 646.401 474.352 646.41 472.436ZM648.045 472.436C648.036 473.517 649.425 474.149 651.736 474.141C654.048 474.149 655.428 473.517 655.428 472.436C655.428 471.311 654.048 470.687 651.736 470.678C649.425 470.687 648.036 471.311 648.045 472.436ZM652.167 463.295C652.272 463.646 652.334 464.033 652.334 464.438C652.334 464.824 652.272 465.202 652.167 465.545H655.34V463.295H652.167ZM676.223 459.744V463.664H678.473V465.088H676.223V469.025H674.553V459.744H676.223ZM663.725 467.531C664.946 467.531 666.361 467.522 667.838 467.487V466.6C666.027 466.433 664.902 465.703 664.92 464.525C664.902 463.242 666.379 462.486 668.664 462.486C670.932 462.486 672.399 463.242 672.408 464.525C672.399 465.694 671.292 466.424 669.508 466.6V467.417C670.914 467.355 672.338 467.241 673.656 467.057L673.797 468.146C670.413 468.7 666.669 468.727 663.9 468.727L663.725 467.531ZM664.129 462.029V460.869H667.838V459.604H669.508V460.869H673.217V462.029H664.129ZM665.816 470.854V469.693H676.223V472.98H667.521V474.176H676.803V475.336H665.852V471.908H674.57V470.854H665.816ZM666.502 464.525C666.502 465.158 667.319 465.545 668.664 465.545C669.991 465.545 670.817 465.158 670.809 464.525C670.817 463.919 669.991 463.576 668.664 463.576C667.319 463.576 666.502 463.919 666.502 464.525ZM693.766 467.408V468.744H679.387V467.408H685.768V465.738H681.18V460.465H691.99V461.783H682.832V464.402H692.096V465.738H687.385V467.408H693.766ZM681.092 472.629C681.092 470.801 683.14 469.772 686.559 469.764C689.951 469.772 691.981 470.801 691.99 472.629C691.981 474.457 689.951 475.485 686.559 475.494C683.14 475.485 681.092 474.457 681.092 472.629ZM682.779 472.629C682.771 473.64 684.15 474.193 686.559 474.176C688.932 474.193 690.32 473.64 690.32 472.629C690.32 471.636 688.932 471.064 686.559 471.064C684.15 471.064 682.771 471.636 682.779 472.629ZM713.752 472.154V473.543H699.338V472.154H705.684V468.92H700.99V460.816H702.66V463.523H710.395V460.816H712.047V468.92H707.336V472.154H713.752ZM702.66 467.566H710.395V464.877H702.66V467.566ZM729.309 472.154V473.525H714.895V472.154H721.258V468.428H722.928V472.154H729.309ZM715.562 467.707C718.489 467.215 721.205 465.026 721.205 462.609V462.469H716.09V461.098H728.061V462.469H722.945V462.609C722.945 465.026 725.679 467.171 728.676 467.637L728.008 468.955C725.459 468.48 723.112 467.004 722.084 464.93C721.073 467.03 718.744 468.533 716.248 469.025L715.562 467.707ZM736.041 462.1C736.032 464.306 737.465 466.274 739.855 467.057L738.941 468.357C737.21 467.725 735.936 466.512 735.25 464.93C734.573 466.731 733.202 468.146 731.295 468.832L730.398 467.496C732.912 466.635 734.371 464.534 734.389 462.17V460.623H736.041V462.1ZM732.982 472.488C732.974 470.581 734.995 469.474 738.309 469.482C741.604 469.474 743.626 470.581 743.635 472.488C743.626 474.387 741.604 475.468 738.309 475.459C734.995 475.468 732.974 474.387 732.982 472.488ZM734.635 472.488C734.626 473.534 735.997 474.149 738.309 474.141C740.603 474.149 741.974 473.534 741.982 472.488C741.974 471.407 740.603 470.783 738.309 470.783C735.997 470.783 734.626 471.407 734.635 472.488ZM738.59 464.314V462.943H741.912V459.744H743.582V469.043H741.912V464.314H738.59ZM480.938 502.924C479.849 502.915 478.961 502.027 478.952 500.92C478.961 499.83 479.849 498.942 480.938 498.934C482.046 498.942 482.934 499.83 482.942 500.92C482.934 502.027 482.046 502.915 480.938 502.924ZM508.123 491.744V507.529H506.453V491.744H508.123ZM495.625 498.441C495.625 495.075 497.321 492.931 499.703 492.922C502.041 492.931 503.764 495.075 503.764 498.441C503.764 501.843 502.041 503.987 499.703 503.979C497.321 503.987 495.625 501.843 495.625 498.441ZM497.242 498.441C497.233 500.946 498.235 502.484 499.703 502.484C501.145 502.484 502.146 500.946 502.146 498.441C502.146 495.972 501.145 494.425 499.703 494.416C498.235 494.425 497.233 495.972 497.242 498.441ZM524.066 491.744V501.676H522.484V497.281H520.656V501.131H519.092V492.043H520.656V495.91H522.484V491.744H524.066ZM510.549 494.855V493.537H513.73V491.867H515.383V493.537H518.512V494.855H510.549ZM511.164 498.301C511.164 496.666 512.57 495.594 514.539 495.594C516.552 495.594 517.949 496.666 517.949 498.301C517.949 499.936 516.552 501.008 514.539 501.008C512.57 501.008 511.164 499.936 511.164 498.301ZM512.658 498.301C512.658 499.197 513.423 499.786 514.539 499.795C515.673 499.786 516.446 499.197 516.438 498.301C516.446 497.404 515.673 496.815 514.539 496.824C513.423 496.815 512.658 497.404 512.658 498.301ZM513.467 504.699C513.449 502.915 515.453 501.904 518.793 501.904C522.142 501.904 524.146 502.915 524.154 504.699C524.146 506.466 522.142 507.468 518.793 507.459C515.453 507.468 513.449 506.466 513.467 504.699ZM515.119 504.699C515.102 505.648 516.455 506.193 518.793 506.176C521.14 506.193 522.476 505.648 522.484 504.699C522.476 503.706 521.14 503.179 518.793 503.188C516.455 503.179 515.102 503.706 515.119 504.699ZM536.178 494.1C536.169 496.306 537.602 498.274 539.992 499.057L539.078 500.357C537.347 499.725 536.072 498.512 535.387 496.93C534.71 498.731 533.339 500.146 531.432 500.832L530.535 499.496C533.049 498.635 534.508 496.534 534.525 494.17V492.623H536.178V494.1ZM533.119 504.488C533.11 502.581 535.132 501.474 538.445 501.482C541.741 501.474 543.763 502.581 543.771 504.488C543.763 506.387 541.741 507.468 538.445 507.459C535.132 507.468 533.11 506.387 533.119 504.488ZM534.771 504.488C534.763 505.534 536.134 506.149 538.445 506.141C540.739 506.149 542.11 505.534 542.119 504.488C542.11 503.407 540.739 502.783 538.445 502.783C536.134 502.783 534.763 503.407 534.771 504.488ZM538.727 496.314V494.943H542.049V491.744H543.719V501.043H542.049V496.314H538.727ZM554.916 493.432V494.398C554.907 495.726 554.907 497.756 554.459 500.568L552.807 500.445C553.211 497.932 553.255 496.095 553.264 494.785H546.865V493.432H554.916ZM545.986 502.748C546.971 502.739 548.069 502.73 549.221 502.704V497.932H550.873V502.651C552.543 502.581 554.257 502.476 555.83 502.273L555.918 503.521C552.64 504.049 548.975 504.119 546.18 504.102L545.986 502.748ZM556.727 507.494V491.744H558.414V498.248H560.822V499.672H558.414V507.494H556.727ZM576.098 498.969V500.252H561.684V498.969H576.098ZM563.389 502.555V501.359H574.322V504.822H565.076V506.123H574.814V507.301H563.406V503.715H572.67V502.555H563.389ZM563.494 493.326V492.148H574.287V495.559H565.182V496.754H574.551V497.932H563.529V494.451H572.617V493.326H563.494ZM595.293 493.977V495.33H582.338V493.977H587.998V491.973H589.65V493.977H595.293ZM581.652 505.754V504.4H585.344V501.588C584.201 501.087 583.56 500.278 583.568 499.215C583.56 497.334 585.572 496.227 588.824 496.244C592.05 496.227 594.071 497.334 594.062 499.215C594.071 500.278 593.43 501.087 592.287 501.588V504.4H596.066V505.754H581.652ZM585.273 499.215C585.256 500.278 586.574 500.885 588.824 500.885C591.039 500.885 592.366 500.278 592.357 499.215C592.366 498.143 591.039 497.536 588.824 497.527C586.574 497.536 585.256 498.143 585.273 499.215ZM587.014 504.4H590.652V502.054C590.099 502.142 589.483 502.186 588.824 502.186C588.165 502.186 587.559 502.142 587.014 502.054V504.4ZM605.98 493.432V494.398C605.972 495.726 605.972 497.756 605.523 500.568L603.871 500.445C604.275 497.932 604.319 496.095 604.328 494.785H597.93V493.432H605.98ZM597.051 502.748C598.035 502.739 599.134 502.73 600.285 502.704V497.932H601.938V502.651C603.607 502.581 605.321 502.476 606.895 502.273L606.982 503.521C603.704 504.049 600.039 504.119 597.244 504.102L597.051 502.748ZM607.791 507.494V491.744H609.479V498.248H611.887V499.672H609.479V507.494H607.791ZM618.408 494.539C618.399 496.525 619.823 498.468 622.205 499.285L621.344 500.586C619.577 499.979 618.268 498.714 617.582 497.158C616.896 498.89 615.517 500.278 613.645 500.938L612.783 499.619C615.2 498.793 616.712 496.692 616.703 494.557V494.117H613.293V492.764H621.783V494.117H618.408V494.539ZM615.227 503.311V501.957H625.896V507.494H624.227V503.311H615.227ZM621.309 497.123V495.752H624.227V491.744H625.896V501.166H624.227V497.123H621.309ZM635.494 492.693C638.799 492.693 641.312 494.442 641.312 497.088C641.312 499.751 638.799 501.491 635.494 501.482C632.198 501.491 629.685 499.751 629.693 497.088C629.685 494.442 632.198 492.693 635.494 492.693ZM628.322 505.455V504.066H642.736V505.455H628.322ZM631.293 497.088C631.284 498.925 633.077 500.111 635.494 500.111C637.902 500.111 639.687 498.925 639.695 497.088C639.687 495.26 637.902 494.038 635.494 494.047C633.077 494.038 631.284 495.26 631.293 497.088ZM658.293 504.207V505.613H643.879V504.207H650.225V501.447H645.637V496.438H654.883V494.223H645.602V492.852H656.535V497.773H647.289V500.076H656.904V501.447H651.877V504.207H658.293ZM672.602 492.939V493.818C672.584 494.873 672.584 496.438 672.197 498.477L670.545 498.318C670.888 496.578 670.94 495.304 670.958 494.311H664.656V492.939H672.602ZM663.707 499.83C664.674 499.83 665.772 499.821 666.924 499.795V496.473H668.576V499.742C670.264 499.672 672.004 499.549 673.586 499.32L673.691 500.533C670.404 501.113 666.643 501.175 663.865 501.184L663.707 499.83ZM666.098 507.16V502.502H667.768V505.807H676.803V507.16H666.098ZM674.588 503.574V491.744H676.293V496.754H678.455V498.16H676.293V503.574H674.588ZM692.465 491.744V507.529H690.795V491.744H692.465ZM680.266 494.521V493.168H687.648V498.916H681.988V502.361C684.546 502.353 686.77 502.229 689.406 501.799L689.564 503.17C686.778 503.636 684.405 503.741 681.619 503.75H680.283V497.58H685.943V494.521H680.266ZM707.318 491.691V495.383H709.621V496.754H707.318V500.357H705.648V491.691H707.318ZM694.961 494.398V493.08H698.828V491.604H700.498V493.08H704.348V494.398H694.961ZM695.822 497.58C695.813 495.989 697.343 494.996 699.654 494.996C701.966 494.996 703.469 495.989 703.469 497.58C703.469 499.18 701.966 500.155 699.654 500.146C697.343 500.155 695.813 499.18 695.822 497.58ZM697.141 502.344V501.096H707.318V504.752H698.811V506.07H707.863V507.336H697.176V503.574H705.666V502.344H697.141ZM697.439 497.58C697.422 498.433 698.292 498.934 699.654 498.934C701.008 498.934 701.887 498.433 701.904 497.58C701.887 496.728 701.008 496.2 699.654 496.191C698.292 496.2 697.422 496.728 697.439 497.58ZM722.963 493.133C722.954 495.225 725.512 497.185 728.605 497.598L727.955 498.969C725.38 498.556 723.121 497.22 722.093 495.365C721.064 497.22 718.806 498.556 716.248 498.969L715.58 497.598C718.665 497.185 721.214 495.251 721.223 493.133V492.271H722.963V493.133ZM714.895 501.887V500.516H729.256V501.887H722.857V507.494H721.223V501.887H714.895ZM740.312 502.15C740.312 503.504 740.98 504.937 742.413 505.789C743.854 504.866 744.566 503.363 744.566 502.15V501.395H746.201V502.15C746.192 503.785 747.273 505.367 749.33 506.035L748.504 507.266C746.948 506.729 745.885 505.675 745.34 504.392C744.839 505.657 743.898 506.809 742.457 507.406C740.945 506.835 739.987 505.719 739.504 504.436C738.933 505.675 737.896 506.721 736.41 507.266L735.566 506.035C737.588 505.314 738.687 503.671 738.695 502.15V501.395H740.312V502.15ZM735.162 496.35C735.171 494.144 736.946 492.632 739.363 492.623C741.771 492.632 743.547 494.144 743.547 496.35C743.547 498.529 741.771 500.041 739.363 500.041C736.946 500.041 735.171 498.529 735.162 496.35ZM736.797 496.35C736.788 497.721 737.869 498.652 739.363 498.652C740.84 498.652 741.912 497.721 741.912 496.35C741.912 494.97 740.84 494.038 739.363 494.047C737.869 494.038 736.788 494.97 736.797 496.35ZM746.236 500.727V491.762H747.906V500.727H746.236ZM763.146 496.35V497.686H752.301V492.307H753.953V496.35H763.146ZM750.385 501.008V499.672H764.799V501.008H750.385ZM752.178 507.125V502.502H753.848V505.754H763.252V507.125H752.178ZM775.064 496.578C775.064 499.057 776.216 501.579 778.387 502.748L777.455 503.979C775.926 503.17 774.871 501.667 774.3 499.883C773.737 501.79 772.683 503.434 771.162 504.348L770.178 503.082C772.357 501.816 773.482 499.118 773.5 496.578V495.945H770.652V494.574H773.5V492.307H775.064V494.574H777.859V495.945H775.064V496.578ZM776.822 499.268V497.879H779.09V492.078H780.672V506.703H779.09V499.268H776.822ZM782.271 507.494V491.744H783.871V507.494H782.271ZM799.445 491.744V507.494H797.863V491.744H799.445ZM785.822 502.941C789.171 500.955 790.771 498.31 791.061 495.066H786.596V493.695H792.713C792.713 494.504 792.651 495.286 792.528 496.051H794.646V492.148H796.229V506.721H794.646V501.359H791.957V499.988H794.646V497.422H792.221C791.456 500.067 789.777 502.37 786.807 504.137L785.822 502.941ZM813.824 493.309V503.539H806.459V493.309H813.824ZM808.094 502.186H812.172V494.627H808.094V502.186ZM816.461 507.494V491.744H818.131V497.914H820.662V499.32H818.131V507.494H816.461ZM828.924 492.852V497.598H823.721V499.936C826.349 499.927 827.904 499.848 829.75 499.531L829.926 500.885C827.878 501.245 826.199 501.289 823.211 501.289H822.051V496.314H827.236V494.188H822.016V492.852H828.924ZM824.195 507.107V502.484H825.865V505.736H835.006V507.107H824.195ZM829.943 499.215V497.844H832.879V495.664H829.943V494.328H832.879V491.762H834.549V503.346H832.879V499.215H829.943Z" fill="#282828"/>
<path d="M537.701 381.338H530.947V379.16H540.803V380.326C540.803 385.386 536.315 389.346 531.365 390.512L530.177 388.51C533.785 387.498 537.701 384.33 537.701 381.514V381.338ZM533.213 390.82H546.369V398.256L543.311 398.696V393.02H533.213V390.82ZM546.369 378.17V383.67H549.537L549.097 385.892H546.369V389.61L543.355 390.05V378.61L546.369 378.17ZM561.778 381.382H568.972V378.698H572.008V387.454L568.972 388.004H558.72V378.698H561.778V381.382ZM574.934 389.808L574.494 391.986H567.08V398.036L564 398.476V391.986H555.86V389.808H574.934ZM561.778 385.804H568.972V383.582H561.778V385.804ZM593.11 378.17V397.86L590.118 398.3V386.112H586.07V383.89H590.118V378.61L593.11 378.17ZM583.826 379.182V384.968C583.826 385.43 583.936 385.914 584.2 386.266C585.344 387.806 587.06 389.918 588.556 391.59L586.796 393.284C585.256 391.656 583.408 389.588 582.286 388.092C580.988 389.742 579.074 392.074 577.512 393.768L575.664 392.162C577.16 390.424 578.942 388.312 580.24 386.442C580.504 386.068 580.702 385.562 580.702 385.1V379.622L583.826 379.182ZM608.579 378.478V384.726H610.625V378.61L613.397 378.17V397.86L610.625 398.3V386.948H608.579V397.222L605.829 397.662V378.918L608.579 378.478ZM600.131 379.424V390.578H601.077C602.243 390.578 604.113 390.402 605.169 390.138V392.338C604.113 392.58 602.331 392.8 600.703 392.8H597.315V379.424H600.131ZM634.042 379.05C636.44 379.05 638.706 380.04 638.706 383.054C638.706 386.046 636.44 387.058 634.042 387.058H629.202C626.716 387.058 624.538 386.046 624.538 383.054C624.538 380.04 626.716 379.05 629.202 379.05H634.042ZM640.73 390.644H636.748V394.296H633.8V390.644H631.864V394.23H628.85V390.644H622.096V388.488H641.17L640.73 390.644ZM638.398 398.212H624.956V392.712H628.014V396.012H638.838L638.398 398.212ZM633.756 381.228H629.488C628.3 381.228 627.486 381.734 627.486 383.054C627.486 384.352 628.3 384.88 629.488 384.88H633.756C634.856 384.88 635.758 384.352 635.758 383.054C635.758 381.734 634.856 381.228 633.756 381.228ZM650.37 385.122V381.646H643.66V379.468H653.384V387.278H646.718V390.798H648.302C650.304 390.798 653.362 390.71 655.474 390.27V392.448C653.23 392.822 650.106 392.976 648.038 392.976H643.66V385.122H650.37ZM659.346 378.17V397.86L656.354 398.3V378.61L659.346 378.17ZM676.399 390.534V387.872H672.439V385.672H676.399V383.582H673.011C671.493 386.86 667.665 389.566 664.079 390.644L662.649 388.73C667.027 387.52 670.525 383.978 670.525 381.668V381.36H663.793V379.16H673.693V380.678C673.693 380.92 673.671 381.162 673.649 381.382H676.399V378.61L679.391 378.17V390.094L676.399 390.534ZM674.881 390.666C677.279 390.666 679.457 391.634 679.457 394.604C679.457 397.596 677.279 398.564 674.881 398.564H670.173C667.687 398.564 665.465 397.596 665.465 394.604C665.465 391.634 667.687 390.666 670.173 390.666H674.881ZM674.595 392.844H670.415C669.227 392.844 668.413 393.328 668.413 394.604C668.413 395.902 669.227 396.386 670.415 396.386H674.595C675.695 396.386 676.509 395.902 676.509 394.604C676.509 393.328 675.695 392.844 674.595 392.844ZM696.423 390.336V387.41H693.013V386.706C692.155 388.334 690.241 389.192 688.151 389.192C685.313 389.192 682.805 387.608 682.805 384.66V383.362C682.805 380.414 685.313 378.83 688.151 378.83C690.241 378.83 692.155 379.688 693.013 381.338V380.172H696.423V378.61L699.393 378.17V389.896L696.423 390.336ZM694.905 390.666C697.303 390.666 699.481 391.634 699.481 394.604C699.481 397.596 697.303 398.564 694.905 398.564H690.197C687.711 398.564 685.489 397.596 685.489 394.604C685.489 391.634 687.711 390.666 690.197 390.666H694.905ZM694.619 392.844H690.439C689.251 392.844 688.437 393.328 688.437 394.604C688.437 395.902 689.251 396.386 690.439 396.386H694.619C695.719 396.386 696.533 395.902 696.533 394.604C696.533 393.328 695.719 392.844 694.619 392.844ZM690.527 384.572V383.45C690.527 381.91 689.493 381.03 688.151 381.03C686.809 381.03 685.775 381.91 685.775 383.45V384.572C685.775 386.112 686.809 386.992 688.151 386.992C689.493 386.992 690.527 386.112 690.527 384.572ZM693.497 384.66C693.497 384.858 693.475 385.034 693.453 385.21H696.423V382.35H693.387C693.453 382.68 693.497 383.01 693.497 383.362V384.66ZM718.998 398.388H705.622V393.68H715.808V392.778H705.578V390.82H718.888V395.506H708.658V396.408H719.438L718.998 398.388ZM703.928 384.066C703.928 382.284 706.128 381.338 708.878 381.338C711.628 381.338 713.828 382.284 713.828 384.066V384.352C713.828 385.782 712.42 386.706 710.44 387.014V387.96C712.002 387.872 713.674 387.718 715.082 387.476V389.544C711.958 389.962 708.57 390.094 705.182 390.094H702.52V388.048H707.36V387.014C705.358 386.706 703.928 385.804 703.928 384.352V384.066ZM718.888 378.17V383.406H721.924L721.484 385.628H718.888V389.61L715.852 390.05V378.61L718.888 378.17ZM714.29 380.92H703.246V378.896H707.448V377.752L710.484 377.312V378.896H714.73L714.29 380.92ZM710.968 384.154C710.968 383.626 710.198 383.318 708.878 383.318C707.558 383.318 706.788 383.626 706.788 384.154V384.264C706.788 384.792 707.558 385.144 708.878 385.144C710.198 385.144 710.968 384.792 710.968 384.264V384.154ZM722.214 387.542H730.31V385.738H725.03V378.698H738.428V380.876H728.088V383.582H738.824L738.384 385.738H733.478V387.542H741.288L740.848 389.72H722.214V387.542ZM734.16 390.93C736.624 390.93 738.846 391.854 738.846 394.802C738.846 397.772 736.624 398.696 734.16 398.696H729.298C726.834 398.696 724.612 397.772 724.612 394.802C724.612 391.854 726.834 390.93 729.298 390.93H734.16ZM734.05 393.13H729.43C728.44 393.13 727.56 393.548 727.56 394.802C727.56 396.078 728.44 396.496 729.43 396.496H734.05C735.04 396.496 735.898 396.078 735.898 394.802C735.898 393.548 735.04 393.13 734.05 393.13ZM765.079 390.578V397.75L762.021 398.3H752.099V390.578H765.079ZM761.185 385.386V387.564C759.403 387.916 756.719 388.18 753.991 388.18H749.745V379.028H759.227V381.228H752.803V385.98H754.739C756.895 385.98 759.601 385.716 761.185 385.386ZM765.079 378.17V382.548H768.247L767.807 384.748H765.079V389.368L762.065 389.808V378.61L765.079 378.17ZM755.135 396.1H762.021V392.756H755.135V396.1ZM780.834 390.666C783.232 390.666 785.41 391.634 785.41 394.604C785.41 397.596 783.232 398.564 780.834 398.564H776.126C773.64 398.564 771.418 397.596 771.418 394.604C771.418 391.634 773.64 390.666 776.126 390.666H780.834ZM781.208 385.87V388.07C779.426 388.4 776.742 388.664 774.014 388.664H769.768V379.116H779.25V381.316H772.826V386.486H774.762C776.918 386.486 779.624 386.222 781.208 385.87ZM785.102 378.17V382.548H788.27L787.83 384.792H785.102V389.654L782.088 390.094V378.61L785.102 378.17ZM780.548 392.844H776.368C775.18 392.844 774.366 393.328 774.366 394.604C774.366 395.902 775.18 396.386 776.368 396.386H780.548C781.648 396.386 782.462 395.902 782.462 394.604C782.462 393.328 781.648 392.844 780.548 392.844ZM800.418 379.6L799.978 381.778H796.458V385.386C796.458 385.848 796.568 386.332 796.854 386.684C798.064 388.18 799.604 389.94 801.1 391.612L799.34 393.306C797.8 391.678 796.172 389.94 794.94 388.51C793.598 390.116 791.904 392.052 790.32 393.768L788.472 392.162C789.99 390.402 791.552 388.686 792.894 386.86C793.158 386.486 793.378 385.98 793.378 385.518V381.778H789.462V379.6H800.418ZM805.082 378.17V385.738H808.25L807.81 388.202H805.082V397.86L802.068 398.3V378.61L805.082 378.17Z" fill="white"/>
<g filter="url(#filter1_f_578_14312)">
<rect x="59" y="365" width="378" height="69" rx="16" fill="#578DF4"/>
</g>
<rect x="47" y="344" width="402" height="88" rx="16" fill="#4B84F0"/>
<path d="M60.4385 470.924C59.3486 470.915 58.4609 470.027 58.4521 468.92C58.4609 467.83 59.3486 466.942 60.4385 466.934C61.5459 466.942 62.4336 467.83 62.4424 468.92C62.4336 470.027 61.5459 470.915 60.4385 470.924ZM87.6055 459.744V475.494H85.9355V459.744H87.6055ZM74.668 471.205C75.9688 471.196 77.4453 471.188 78.9922 471.152V469.57C77.1553 469.324 75.96 468.243 75.9688 466.705C75.96 464.93 77.5068 463.761 79.7832 463.752C82.0859 463.761 83.6592 464.93 83.668 466.705C83.6592 468.226 82.4727 469.298 80.6445 469.562V471.091C82.1035 471.021 83.5801 470.915 84.9688 470.73L85.0918 471.979C81.5938 472.559 77.7793 472.603 74.8965 472.594L74.668 471.205ZM75.002 462.961V461.625H78.9922V459.779H80.6621V461.625H84.6172V462.961H75.002ZM77.5508 466.705C77.5332 467.707 78.4648 468.331 79.7832 468.322C81.1455 468.331 82.0684 467.707 82.0684 466.705C82.0684 465.694 81.1455 465.053 79.7832 465.053C78.4648 465.053 77.5332 465.694 77.5508 466.705ZM95.6035 463.752C95.5859 466.538 97.2119 469.395 99.5586 470.537L98.5215 471.873C96.8076 470.977 95.4805 469.219 94.7861 467.118C94.083 469.351 92.7031 471.24 90.9102 472.172L89.873 470.818C92.29 469.658 93.9248 466.635 93.9336 463.752V461.062H95.6035V463.752ZM100.736 475.494V459.744H102.406V466.02H104.938V467.443H102.406V475.494H100.736ZM119.246 459.744V475.494H117.646V459.744H119.246ZM105.869 466.547C105.869 463.137 107.205 461.001 109.262 461.01C111.178 461.001 112.47 462.82 112.663 465.773H114.447V460.043H116.047V474.721H114.447V467.127H112.672C112.522 470.203 111.213 472.11 109.262 472.102C107.205 472.11 105.869 469.966 105.869 466.547ZM107.416 466.547C107.416 469.052 108.128 470.528 109.262 470.52C110.422 470.528 111.143 469.052 111.143 466.547C111.143 464.033 110.422 462.565 109.262 462.574C108.128 462.565 107.416 464.033 107.416 466.547ZM139.162 459.744V475.494H137.562V467.355H135.523V474.686H133.994V460.061H135.523V465.984H137.562V459.744H139.162ZM126.172 471.715V461.643H132.078V462.996H127.842V470.291C129.775 470.282 131.234 470.194 132.922 469.869L133.045 471.24C131.155 471.636 129.521 471.697 127.227 471.715H126.172ZM153.576 459.762V464.824H155.861V466.213H153.576V471.539H151.906V459.762H153.576ZM141.219 462.943V461.59H145.086V459.744H146.756V461.59H150.605V462.943H141.219ZM142.08 466.67C142.071 464.868 143.627 463.69 145.912 463.699C148.171 463.69 149.727 464.868 149.727 466.67C149.727 468.454 148.171 469.614 145.912 469.623C143.627 469.614 142.071 468.454 142.08 466.67ZM143.592 475.16V470.607H145.262V473.807H154.244V475.16H143.592ZM143.697 466.67C143.68 467.698 144.576 468.331 145.912 468.322C147.248 468.331 148.145 467.698 148.162 466.67C148.145 465.633 147.248 464.991 145.912 464.982C144.576 464.991 143.68 465.633 143.697 466.67ZM173.932 463.646V464.982H169.168V466.775H175.514V468.129H161.152V466.775H167.498V464.982H163.068V460.078H164.721V463.646H173.932ZM162.594 475.301V473.947H165.072V470.854H162.734V469.553H173.949V470.854H171.611V473.947H174.09V475.301H162.594ZM166.725 473.947H169.959V470.854H166.725V473.947ZM191.07 467.971V469.307H176.709V467.971H191.07ZM178.256 463.418C178.247 461.44 180.453 460.263 183.881 460.271C187.291 460.263 189.497 461.44 189.506 463.418C189.497 465.404 187.291 466.608 183.881 466.617C180.453 466.608 178.247 465.404 178.256 463.418ZM178.52 475.16V470.59H180.207V473.807H189.453V475.16H178.52ZM179.979 463.418C179.97 464.587 181.464 465.246 183.881 465.246C186.289 465.246 187.792 464.587 187.783 463.418C187.792 462.293 186.289 461.607 183.881 461.607C181.464 461.607 179.97 462.293 179.979 463.418ZM209.703 459.744V475.529H208.033V459.744H209.703ZM197.205 466.441C197.205 463.075 198.901 460.931 201.283 460.922C203.621 460.931 205.344 463.075 205.344 466.441C205.344 469.843 203.621 471.987 201.283 471.979C198.901 471.987 197.205 469.843 197.205 466.441ZM198.822 466.441C198.813 468.946 199.815 470.484 201.283 470.484C202.725 470.484 203.727 468.946 203.727 466.441C203.727 463.972 202.725 462.425 201.283 462.416C199.815 462.425 198.813 463.972 198.822 466.441ZM220.004 462.346V463.699H212.182V462.346H215.275V460.201H216.928V462.346H220.004ZM212.691 468.27C212.683 466.151 214.124 464.648 216.102 464.648C218.097 464.648 219.521 466.151 219.529 468.27C219.521 470.423 218.097 471.935 216.102 471.926C214.124 471.935 212.683 470.423 212.691 468.27ZM214.168 468.27C214.159 469.605 214.968 470.502 216.102 470.502C217.235 470.502 218.053 469.605 218.053 468.27C218.053 466.96 217.235 466.046 216.102 466.037C214.968 466.046 214.159 466.96 214.168 468.27ZM220.725 474.756V460.096H222.307V466.301H224.117V459.744H225.699V475.494H224.117V467.672H222.307V474.756H220.725ZM240.535 467.004V468.34H235.771V472.189H242.188V473.561H227.773V472.189H234.119V468.34H229.566V460.957H240.395V462.311H231.236V467.004H240.535ZM257.727 466.969V468.252H243.312V466.969H257.727ZM245.018 470.555V469.359H255.951V472.822H246.705V474.123H256.443V475.301H245.035V471.715H254.299V470.555H245.018ZM245.123 461.326V460.148H255.916V463.559H246.811V464.754H256.18V465.932H245.158V462.451H254.246V461.326H245.123ZM275.656 459.727V463.646H277.941V465.035H275.656V468.656H273.986V459.727H275.656ZM263.281 467.355C267.113 466.406 269.249 464.464 269.513 462.064H263.984V460.711H271.332C271.341 464.763 268.625 467.522 263.896 468.709L263.281 467.355ZM264.811 474.141C267.579 473.763 269.636 472.339 269.794 470.73H265.443V469.395H275.902V470.73H271.569C271.728 472.304 273.802 473.763 276.553 474.158L275.92 475.459C273.529 475.081 271.578 473.956 270.682 472.436C269.794 473.965 267.843 475.072 265.461 475.459L264.811 474.141ZM286.836 459.744V461.396H291.758V462.697H286.933C287.108 464.341 289.271 465.571 292.391 465.861L291.846 467.145C289.156 466.872 286.977 465.905 286.01 464.358C285.034 465.905 282.863 466.872 280.174 467.145L279.629 465.861C282.74 465.571 284.894 464.341 285.078 462.697H280.279V461.396H285.184V459.744H286.836ZM278.82 469.342V468.006H293.234V469.342H286.977V472.295H285.324V469.342H278.82ZM280.613 475.16V470.801H282.283V473.807H291.635V475.16H280.613ZM311.85 459.762V471.205H310.18V459.762H311.85ZM299.105 464.719C299.114 462.442 300.925 460.825 303.307 460.816C305.68 460.825 307.49 462.442 307.49 464.719C307.49 467.03 305.68 468.639 303.307 468.639C300.925 468.639 299.114 467.03 299.105 464.719ZM300.74 464.719C300.731 466.204 301.839 467.18 303.307 467.18C304.748 467.18 305.855 466.204 305.855 464.719C305.855 463.269 304.748 462.275 303.307 462.275C301.839 462.275 300.731 463.269 300.74 464.719ZM301.549 475.16V470.045H303.236V473.807H312.324V475.16H301.549ZM321.852 460.693V465.281H316.648V467.461C319.391 467.461 320.885 467.399 322.66 467.074L322.818 468.428C320.894 468.753 319.276 468.806 316.139 468.814H314.996V464.016H320.182V462.029H314.979V460.693H321.852ZM316.789 471.592V470.238H327.477V475.512H325.807V471.592H316.789ZM322.854 466.67V465.334H325.807V463.383H322.854V462.047H325.807V459.762H327.477V469.447H325.807V466.67H322.854ZM337.074 460.693C340.379 460.693 342.893 462.442 342.893 465.088C342.893 467.751 340.379 469.491 337.074 469.482C333.778 469.491 331.265 467.751 331.273 465.088C331.265 462.442 333.778 460.693 337.074 460.693ZM329.902 473.455V472.066H344.316V473.455H329.902ZM332.873 465.088C332.864 466.925 334.657 468.111 337.074 468.111C339.482 468.111 341.267 466.925 341.275 465.088C341.267 463.26 339.482 462.038 337.074 462.047C334.657 462.038 332.864 463.26 332.873 465.088ZM359.873 472.207V473.613H345.459V472.207H351.805V469.447H347.217V464.438H356.463V462.223H347.182V460.852H358.115V465.773H348.869V468.076H358.484V469.447H353.457V472.207H359.873ZM377.943 460.729V462.117C377.943 463.611 377.943 465.237 377.504 467.479H379.771V468.85H373.391V475.512H371.703V468.85H365.41V467.479H375.816C376.282 465.229 376.282 463.585 376.291 462.117V462.1H367.168V460.729H377.943ZM386.557 462.1C386.548 464.306 387.98 466.274 390.371 467.057L389.457 468.357C387.726 467.725 386.451 466.512 385.766 464.93C385.089 466.731 383.718 468.146 381.811 468.832L380.914 467.496C383.428 466.635 384.887 464.534 384.904 462.17V460.623H386.557V462.1ZM383.498 472.488C383.489 470.581 385.511 469.474 388.824 469.482C392.12 469.474 394.142 470.581 394.15 472.488C394.142 474.387 392.12 475.468 388.824 475.459C385.511 475.468 383.489 474.387 383.498 472.488ZM385.15 472.488C385.142 473.534 386.513 474.149 388.824 474.141C391.118 474.149 392.489 473.534 392.498 472.488C392.489 471.407 391.118 470.783 388.824 470.783C386.513 470.783 385.142 471.407 385.15 472.488ZM389.105 464.314V462.943H392.428V459.744H394.098V469.043H392.428V464.314H389.105ZM60.4385 502.924C59.3486 502.915 58.4609 502.027 58.4521 500.92C58.4609 499.83 59.3486 498.942 60.4385 498.934C61.5459 498.942 62.4336 499.83 62.4424 500.92C62.4336 502.027 61.5459 502.915 60.4385 502.924ZM81.752 492.113C85.1357 492.122 87.3506 493.344 87.3418 495.295C87.3506 497.246 85.1357 498.459 81.752 498.459C78.3682 498.459 76.1357 497.246 76.1445 495.295C76.1357 493.344 78.3682 492.122 81.752 492.113ZM74.5801 500.902V499.549H88.959V500.902H85.3906V504.031H83.7207V500.902H81.2422V504.031H79.5547V500.902H74.5801ZM76.3027 507.16V502.678H77.9902V505.807H87.5V507.16H76.3027ZM77.9375 495.295C77.9199 496.446 79.4492 497.123 81.752 497.141C84.0635 497.123 85.5752 496.446 85.584 495.295C85.5752 494.144 84.0635 493.458 81.752 493.449C79.4492 493.458 77.9199 494.144 77.9375 495.295ZM103.215 491.744V507.529H101.545V491.744H103.215ZM91.0156 494.521V493.168H98.3984V498.916H92.7383V502.361C95.2959 502.353 97.5195 502.229 100.156 501.799L100.314 503.17C97.5283 503.636 95.1553 503.741 92.3691 503.75H91.0332V497.58H96.6934V494.521H91.0156ZM118.824 491.762V501.078H117.154V499.162H113.182V497.791H117.154V495.875H113.349C112.329 498.406 109.965 500.19 106.555 501.166L105.887 499.865C109.613 498.802 111.793 496.798 112.092 494.258H106.695V492.887H113.902C113.902 493.467 113.841 494.029 113.735 494.557H117.154V491.762H118.824ZM108.33 504.33C108.33 502.423 110.404 501.263 113.639 501.254C116.829 501.263 118.921 502.423 118.93 504.33C118.921 506.246 116.829 507.424 113.639 507.424C110.404 507.424 108.33 506.246 108.33 504.33ZM109.982 504.33C109.982 505.438 111.389 506.079 113.639 506.088C115.845 506.079 117.251 505.438 117.26 504.33C117.251 503.205 115.845 502.563 113.639 502.572C111.389 502.563 109.982 503.205 109.982 504.33ZM125.609 492.658C126.919 492.649 128.035 493.142 128.773 493.959H132.711V491.744H134.381V501.043H132.711V498.916H128.765C128.026 499.725 126.91 500.208 125.609 500.199C123.236 500.208 121.47 498.635 121.479 496.438C121.47 494.214 123.236 492.649 125.609 492.658ZM123.078 496.438C123.069 497.817 124.133 498.793 125.609 498.775C127.042 498.793 128.105 497.817 128.105 496.438C128.105 495.022 127.042 494.082 125.609 494.1C124.133 494.082 123.069 495.022 123.078 496.438ZM123.781 504.436C123.772 502.511 125.812 501.386 129.107 501.395C132.386 501.386 134.425 502.511 134.434 504.436C134.425 506.352 132.386 507.468 129.107 507.459C125.812 507.468 123.772 506.352 123.781 504.436ZM125.416 504.436C125.407 505.517 126.796 506.149 129.107 506.141C131.419 506.149 132.799 505.517 132.799 504.436C132.799 503.311 131.419 502.687 129.107 502.678C126.796 502.687 125.407 503.311 125.416 504.436ZM129.538 495.295C129.644 495.646 129.705 496.033 129.705 496.438C129.705 496.824 129.644 497.202 129.538 497.545H132.711V495.295H129.538ZM153.594 491.744V495.664H155.844V497.088H153.594V501.025H151.924V491.744H153.594ZM141.096 499.531C142.317 499.531 143.732 499.522 145.209 499.487V498.6C143.398 498.433 142.273 497.703 142.291 496.525C142.273 495.242 143.75 494.486 146.035 494.486C148.303 494.486 149.771 495.242 149.779 496.525C149.771 497.694 148.663 498.424 146.879 498.6V499.417C148.285 499.355 149.709 499.241 151.027 499.057L151.168 500.146C147.784 500.7 144.04 500.727 141.271 500.727L141.096 499.531ZM141.5 494.029V492.869H145.209V491.604H146.879V492.869H150.588V494.029H141.5ZM143.188 502.854V501.693H153.594V504.98H144.893V506.176H154.174V507.336H143.223V503.908H151.941V502.854H143.188ZM143.873 496.525C143.873 497.158 144.69 497.545 146.035 497.545C147.362 497.545 148.188 497.158 148.18 496.525C148.188 495.919 147.362 495.576 146.035 495.576C144.69 495.576 143.873 495.919 143.873 496.525ZM171.137 499.408V500.744H156.758V499.408H163.139V497.738H158.551V492.465H169.361V493.783H160.203V496.402H169.467V497.738H164.756V499.408H171.137ZM158.463 504.629C158.463 502.801 160.511 501.772 163.93 501.764C167.322 501.772 169.353 502.801 169.361 504.629C169.353 506.457 167.322 507.485 163.93 507.494C160.511 507.485 158.463 506.457 158.463 504.629ZM160.15 504.629C160.142 505.64 161.521 506.193 163.93 506.176C166.303 506.193 167.691 505.64 167.691 504.629C167.691 503.636 166.303 503.064 163.93 503.064C161.521 503.064 160.142 503.636 160.15 504.629ZM185.357 491.744V507.529H183.688V491.744H185.357ZM172.859 498.441C172.859 495.075 174.556 492.931 176.938 492.922C179.275 492.931 180.998 495.075 180.998 498.441C180.998 501.843 179.275 503.987 176.938 503.979C174.556 503.987 172.859 501.843 172.859 498.441ZM174.477 498.441C174.468 500.946 175.47 502.484 176.938 502.484C178.379 502.484 179.381 500.946 179.381 498.441C179.381 495.972 178.379 494.425 176.938 494.416C175.47 494.425 174.468 495.972 174.477 498.441ZM205.361 491.762V503.697H203.691V502.186H200.527V501.008H203.691V491.762H205.361ZM192.195 498.951C195.104 498.925 199.033 498.898 202.391 498.477L202.496 499.672C201.151 499.9 199.736 500.041 198.348 500.138V503.205H196.678V500.226C195.148 500.287 193.681 500.287 192.406 500.287L192.195 498.951ZM193.426 495.137C193.417 493.467 195.008 492.359 197.346 492.359C199.648 492.359 201.248 493.467 201.248 495.137C201.248 496.815 199.648 497.879 197.346 497.879C195.017 497.879 193.417 496.815 193.426 495.137ZM194.375 507.16V502.537H196.027V505.807H205.748V507.16H194.375ZM195.008 495.137C194.999 496.068 195.948 496.648 197.346 496.648C198.69 496.648 199.657 496.068 199.666 495.137C199.657 494.196 198.69 493.59 197.346 493.607C195.948 493.59 194.999 494.196 195.008 495.137ZM220.215 491.744V495.664H222.465V497.088H220.215V501.025H218.545V491.744H220.215ZM207.717 499.531C208.938 499.531 210.354 499.522 211.83 499.487V498.6C210.02 498.433 208.895 497.703 208.912 496.525C208.895 495.242 210.371 494.486 212.656 494.486C214.924 494.486 216.392 495.242 216.4 496.525C216.392 497.694 215.284 498.424 213.5 498.6V499.417C214.906 499.355 216.33 499.241 217.648 499.057L217.789 500.146C214.405 500.7 210.661 500.727 207.893 500.727L207.717 499.531ZM208.121 494.029V492.869H211.83V491.604H213.5V492.869H217.209V494.029H208.121ZM209.809 502.854V501.693H220.215V504.98H211.514V506.176H220.795V507.336H209.844V503.908H218.562V502.854H209.809ZM210.494 496.525C210.494 497.158 211.312 497.545 212.656 497.545C213.983 497.545 214.81 497.158 214.801 496.525C214.81 495.919 213.983 495.576 212.656 495.576C211.312 495.576 210.494 495.919 210.494 496.525ZM235.648 491.744V498.125H238.18V499.514H235.648V507.494H233.996V491.744H235.648ZM223.291 495.576V494.205H227.176V491.955H228.846V494.205H232.625V495.576H223.291ZM224.1 500.393C224.1 498.248 225.752 496.736 228.02 496.736C230.278 496.736 231.931 498.248 231.939 500.393C231.931 502.555 230.278 504.058 228.02 504.066C225.752 504.058 224.1 502.555 224.1 500.393ZM225.699 500.393C225.69 501.764 226.675 502.678 228.02 502.66C229.355 502.678 230.331 501.764 230.34 500.393C230.331 499.048 229.355 498.116 228.02 498.107C226.675 498.116 225.69 499.048 225.699 500.393ZM252.471 491.744V507.494H250.889V491.744H252.471ZM238.883 502.941C242.223 500.955 243.822 498.31 244.112 495.066H239.621V493.695H245.773C245.765 495.233 245.554 496.701 245.07 498.072H247.566V492.148H249.148V506.721H247.566V499.408H244.49C243.559 501.236 242.056 502.836 239.832 504.137L238.883 502.941ZM273.248 501.236V502.607H266.885V507.512H265.232V502.607H258.887V501.236H273.248ZM259.73 498.811C262.719 498.433 265.127 496.763 265.232 494.996H260.24V493.643H265.232V491.744H266.885V493.643H271.877V494.996H266.902C266.99 496.745 269.372 498.433 272.369 498.811L271.771 500.146C269.24 499.795 267.087 498.608 266.067 497C265.048 498.626 262.886 499.795 260.346 500.146L259.73 498.811ZM280.279 495.031C280.279 497.07 281.782 498.986 284.217 499.76L283.355 501.061C281.545 500.463 280.183 499.224 279.462 497.65C278.759 499.364 277.353 500.718 275.48 501.377L274.619 500.059C277.071 499.224 278.583 497.185 278.592 495.031V494.346H275.059V492.992H283.742V494.346H280.279V495.031ZM277.203 507.16V502.168H278.891V505.807H287.979V507.16H277.203ZM285.834 503.258V491.762H287.504V503.258H285.834ZM299.176 495.734V497.035H296.135V498.441C297.559 498.371 298.974 498.274 300.301 498.125L300.371 499.268C297.022 499.777 293.296 499.874 290.299 499.865L290.088 498.564C291.441 498.564 292.927 498.547 294.447 498.503V497.035H291.512V492.412H299V493.678H293.234V495.734H299.176ZM292.531 502.15V500.832H303.096V504.646H294.201V506H303.588V507.336H292.566V503.398H301.443V502.15H292.531ZM301.443 500.164V491.762H303.096V500.164H301.443ZM318.02 493.133C318.011 495.225 320.568 497.185 323.662 497.598L323.012 498.969C320.437 498.556 318.178 497.22 317.149 495.365C316.121 497.22 313.862 498.556 311.305 498.969L310.637 497.598C313.722 497.185 316.271 495.251 316.279 493.133V492.271H318.02V493.133ZM309.951 501.887V500.516H324.312V501.887H317.914V507.494H316.279V501.887H309.951ZM335.369 502.15C335.369 503.504 336.037 504.937 337.47 505.789C338.911 504.866 339.623 503.363 339.623 502.15V501.395H341.258V502.15C341.249 503.785 342.33 505.367 344.387 506.035L343.561 507.266C342.005 506.729 340.941 505.675 340.396 504.392C339.896 505.657 338.955 506.809 337.514 507.406C336.002 506.835 335.044 505.719 334.561 504.436C333.989 505.675 332.952 506.721 331.467 507.266L330.623 506.035C332.645 505.314 333.743 503.671 333.752 502.15V501.395H335.369V502.15ZM330.219 496.35C330.228 494.144 332.003 492.632 334.42 492.623C336.828 492.632 338.604 494.144 338.604 496.35C338.604 498.529 336.828 500.041 334.42 500.041C332.003 500.041 330.228 498.529 330.219 496.35ZM331.854 496.35C331.845 497.721 332.926 498.652 334.42 498.652C335.896 498.652 336.969 497.721 336.969 496.35C336.969 494.97 335.896 494.038 334.42 494.047C332.926 494.038 331.845 494.97 331.854 496.35ZM341.293 500.727V491.762H342.963V500.727H341.293ZM358.203 496.35V497.686H347.357V492.307H349.01V496.35H358.203ZM345.441 501.008V499.672H359.855V501.008H345.441ZM347.234 507.125V502.502H348.904V505.754H358.309V507.125H347.234ZM378.506 491.744V507.494H376.818V491.744H378.506ZM365.568 503.275C369.752 501.28 371.8 498.441 372.125 494.768H366.324V493.432H373.812C373.812 498.046 371.853 502.036 366.447 504.629L365.568 503.275ZM393.342 491.762V496.402H395.627V497.809H393.342V503.328H391.672V491.762H393.342ZM381.582 500.727V492.887H383.217V495.4H387.348V492.887H389V500.727H381.582ZM383.217 499.391H387.348V496.719H383.217V499.391ZM383.357 507.16V502.186H385.027V505.807H394.01V507.16H383.357ZM409.795 493.396V494.732H400.936V493.396H404.627V491.604H406.279V493.396H409.795ZM401.814 498.389C401.814 496.631 403.291 495.462 405.436 495.453C407.554 495.462 409.065 496.631 409.074 498.389C409.065 500.146 407.554 501.307 405.436 501.307C403.291 501.307 401.814 500.146 401.814 498.389ZM403.379 498.389C403.37 499.408 404.188 500.05 405.436 500.041C406.666 500.05 407.51 499.408 407.527 498.389C407.51 497.369 406.666 496.719 405.436 496.719C404.188 496.719 403.37 497.369 403.379 498.389ZM403.467 504.752C403.458 503.038 405.479 502.045 408.811 502.045C412.106 502.045 414.137 503.038 414.137 504.752C414.137 506.466 412.106 507.468 408.811 507.459C405.479 507.468 403.458 506.466 403.467 504.752ZM405.207 504.752C405.198 505.666 406.543 506.193 408.811 506.176C411.034 506.193 412.361 505.666 412.361 504.752C412.361 503.829 411.034 503.328 408.811 503.328C406.543 503.328 405.198 503.829 405.207 504.752ZM409.83 499.865V498.512H412.379V496.771H409.848V495.418H412.379V491.744H414.049V501.887H412.379V499.865H409.83ZM422.064 494.1C422.056 496.306 423.488 498.274 425.879 499.057L424.965 500.357C423.233 499.725 421.959 498.512 421.273 496.93C420.597 498.731 419.226 500.146 417.318 500.832L416.422 499.496C418.936 498.635 420.395 496.534 420.412 494.17V492.623H422.064V494.1ZM419.006 504.488C418.997 502.581 421.019 501.474 424.332 501.482C427.628 501.474 429.649 502.581 429.658 504.488C429.649 506.387 427.628 507.468 424.332 507.459C421.019 507.468 418.997 506.387 419.006 504.488ZM420.658 504.488C420.649 505.534 422.021 506.149 424.332 506.141C426.626 506.149 427.997 505.534 428.006 504.488C427.997 503.407 426.626 502.783 424.332 502.783C422.021 502.783 420.649 503.407 420.658 504.488ZM424.613 496.314V494.943H427.936V491.744H429.605V501.043H427.936V496.314H424.613Z" fill="#282828"/>
<path d="M215.271 381.14H210.123C210.123 381.602 210.145 382.064 210.519 382.306C212.279 383.472 214.457 384.66 216.591 385.65L215.359 387.608C213.203 386.618 210.299 385.254 208.561 384.132C206.933 385.21 204.029 386.706 201.697 387.784L200.443 385.848C202.709 384.77 204.887 383.56 206.493 382.46C206.889 382.174 206.977 381.712 206.977 381.14H201.565V378.94H215.711L215.271 381.14ZM217.647 390.71H210.695V394.296H207.615V390.71H199.013V388.51H218.087L217.647 390.71ZM215.315 398.212H201.873V392.47H204.931V396.012H215.755L215.315 398.212ZM233.271 389.544V384.528H230.301V388.158L227.331 388.598H220.401V378.742H223.371V381.602H227.331V378.742H230.301V382.394H233.271V378.61L236.263 378.17V389.104L233.271 389.544ZM236.263 390.314V397.75L233.227 398.3H223.283V390.314H226.297V392.316H233.227V390.314H236.263ZM226.297 396.144H233.227V394.45H226.297V396.144ZM223.371 386.42H227.331V383.802H223.371V386.42ZM251.226 379.6L250.786 381.778H247.244V385.386C247.244 385.848 247.354 386.332 247.64 386.684C248.85 388.18 250.412 389.94 251.908 391.612L250.148 393.306C248.608 391.678 246.98 389.94 245.748 388.51C244.406 390.116 242.712 392.052 241.128 393.768L239.28 392.162C240.798 390.402 242.382 388.686 243.724 386.86C243.988 386.486 244.208 385.98 244.208 385.518V381.778H240.27V379.6H251.226ZM256.286 378.17V397.86L253.294 398.3V378.61L256.286 378.17ZM270.832 382.746C270.832 385.298 268.544 386.728 265.948 386.728C263.352 386.728 261.064 385.298 261.064 382.746V382.262C261.064 379.71 263.352 378.28 265.948 378.28C268.544 378.28 270.832 379.71 270.832 382.262V382.746ZM273.34 393.372V392.074H268.83V389.984H273.34V378.61L276.31 378.17V392.932L273.34 393.372ZM276.442 398.212H263.374V393.24H266.41V396.012H276.882L276.442 398.212ZM267.136 389.478V392.712H264.122V389.61H259.722V387.498H264.364C266.52 387.498 269.688 387.3 272.526 386.728V388.884C270.854 389.192 269.028 389.368 267.136 389.478ZM267.95 382.724V382.284C267.95 381.074 267.048 380.392 265.948 380.392C264.848 380.392 263.946 381.074 263.946 382.284V382.724C263.946 383.934 264.848 384.616 265.948 384.616C267.048 384.616 267.95 383.934 267.95 382.724ZM292.439 386.508V388.686C290.723 389.082 288.281 389.192 286.081 389.192H280.647V379.028H290.679V381.228H283.705V382.988H290.503V385.166H283.705V387.014H286.345C288.127 387.014 290.415 386.926 292.439 386.508ZM296.333 378.17V389.874L293.341 390.314V378.61L296.333 378.17ZM296.333 391.084V397.75L293.297 398.3H283.331V391.084H296.333ZM286.367 396.1H293.297V393.284H286.367V396.1Z" fill="white"/>
<g filter="url(#filter2_f_578_14312)">
<rect x="900" y="365.188" width="378" height="69" rx="16" fill="#578DF4"/>
</g>
<rect x="888" y="344" width="402" height="88" rx="16" fill="#4B84F0"/>
<path d="M901.438 470.924C900.349 470.915 899.461 470.027 899.452 468.92C899.461 467.83 900.349 466.942 901.438 466.934C902.546 466.942 903.434 467.83 903.442 468.92C903.434 470.027 902.546 470.915 901.438 470.924ZM928.605 459.744V475.494H926.936V459.744H928.605ZM915.668 471.205C916.969 471.196 918.445 471.188 919.992 471.152V469.57C918.155 469.324 916.96 468.243 916.969 466.705C916.96 464.93 918.507 463.761 920.783 463.752C923.086 463.761 924.659 464.93 924.668 466.705C924.659 468.226 923.473 469.298 921.645 469.562V471.091C923.104 471.021 924.58 470.915 925.969 470.73L926.092 471.979C922.594 472.559 918.779 472.603 915.896 472.594L915.668 471.205ZM916.002 462.961V461.625H919.992V459.779H921.662V461.625H925.617V462.961H916.002ZM918.551 466.705C918.533 467.707 919.465 468.331 920.783 468.322C922.146 468.331 923.068 467.707 923.068 466.705C923.068 465.694 922.146 465.053 920.783 465.053C919.465 465.053 918.533 465.694 918.551 466.705ZM936.604 463.752C936.586 466.538 938.212 469.395 940.559 470.537L939.521 471.873C937.808 470.977 936.48 469.219 935.786 467.118C935.083 469.351 933.703 471.24 931.91 472.172L930.873 470.818C933.29 469.658 934.925 466.635 934.934 463.752V461.062H936.604V463.752ZM941.736 475.494V459.744H943.406V466.02H945.938V467.443H943.406V475.494H941.736ZM951.422 460.746C953.848 460.746 955.649 462.275 955.658 464.49C955.649 466.441 954.252 467.856 952.266 468.173V470.669C953.663 470.599 955.061 470.493 956.361 470.326L956.484 471.574C953.153 472.154 949.488 472.181 946.764 472.154L946.5 470.783C947.722 470.774 949.128 470.766 950.596 470.73V468.173C948.565 467.874 947.177 466.45 947.186 464.49C947.177 462.275 948.952 460.746 951.422 460.746ZM948.803 464.49C948.794 465.888 949.91 466.819 951.422 466.811C952.916 466.819 954.015 465.888 954.023 464.49C954.015 463.084 952.916 462.17 951.422 462.152C949.91 462.17 948.794 463.084 948.803 464.49ZM957.311 475.494V459.744H958.98V466.143H961.406V467.549H958.98V475.494H957.311ZM979.688 459.744V475.529H978.018V459.744H979.688ZM967.189 466.441C967.189 463.075 968.886 460.931 971.268 460.922C973.605 460.931 975.328 463.075 975.328 466.441C975.328 469.843 973.605 471.987 971.268 471.979C968.886 471.987 967.189 469.843 967.189 466.441ZM968.807 466.441C968.798 468.946 969.8 470.484 971.268 470.484C972.709 470.484 973.711 468.946 973.711 466.441C973.711 463.972 972.709 462.425 971.268 462.416C969.8 462.425 968.798 463.972 968.807 466.441ZM989.988 462.346V463.699H982.166V462.346H985.26V460.201H986.912V462.346H989.988ZM982.676 468.27C982.667 466.151 984.108 464.648 986.086 464.648C988.081 464.648 989.505 466.151 989.514 468.27C989.505 470.423 988.081 471.935 986.086 471.926C984.108 471.935 982.667 470.423 982.676 468.27ZM984.152 468.27C984.144 469.605 984.952 470.502 986.086 470.502C987.22 470.502 988.037 469.605 988.037 468.27C988.037 466.96 987.22 466.046 986.086 466.037C984.952 466.046 984.144 466.96 984.152 468.27ZM990.709 474.756V460.096H992.291V466.301H994.102V459.744H995.684V475.494H994.102V467.672H992.291V474.756H990.709ZM1006.53 460.939V461.818C1006.51 462.873 1006.51 464.438 1006.12 466.477L1004.47 466.318C1004.82 464.578 1004.87 463.304 1004.89 462.311H998.584V460.939H1006.53ZM997.635 467.83C998.602 467.83 999.7 467.821 1000.85 467.795V464.473H1002.5V467.742C1004.19 467.672 1005.93 467.549 1007.51 467.32L1007.62 468.533C1004.33 469.113 1000.57 469.175 997.793 469.184L997.635 467.83ZM1000.03 475.16V470.502H1001.7V473.807H1010.73V475.16H1000.03ZM1008.52 471.574V459.744H1010.22V464.754H1012.38V466.16H1010.22V471.574H1008.52ZM1026.85 459.744V475.494H1025.27V459.744H1026.85ZM1013.23 470.941C1016.58 468.955 1018.17 466.31 1018.46 463.066H1014V461.695H1020.12C1020.12 462.504 1020.06 463.286 1019.93 464.051H1022.05V460.148H1023.63V474.721H1022.05V469.359H1019.36V467.988H1022.05V465.422H1019.62C1018.86 468.067 1017.18 470.37 1014.21 472.137L1013.23 470.941ZM1036.62 468.973V470.801H1039.08V468.973H1040.63V475.301H1035.06V468.973H1036.62ZM1033.49 464.051C1033.49 461.897 1035.22 460.412 1037.62 460.412C1039.7 460.412 1041.31 461.581 1041.65 463.348H1044.73V459.744H1046.4V468.094H1044.73V464.719H1041.66C1041.33 466.521 1039.72 467.716 1037.62 467.707C1035.22 467.716 1033.49 466.222 1033.49 464.051ZM1035.09 464.051C1035.08 465.413 1036.14 466.345 1037.62 466.354C1039.08 466.345 1040.12 465.413 1040.12 464.051C1040.12 462.706 1039.08 461.792 1037.62 461.801C1036.14 461.792 1035.08 462.706 1035.09 464.051ZM1036.62 474H1039.08V472.066H1036.62V474ZM1040.72 474.158C1042.62 473.376 1043.55 471.724 1043.55 470.15V468.867H1045.2V470.15C1045.19 471.803 1046.12 473.473 1048.07 474.158L1047.21 475.424C1045.78 474.879 1044.86 473.851 1044.36 472.603C1043.84 473.815 1042.92 474.861 1041.56 475.424L1040.72 474.158ZM1061.57 464.35V465.686H1050.72V460.307H1052.37V464.35H1061.57ZM1048.8 469.008V467.672H1063.22V469.008H1048.8ZM1050.6 475.125V470.502H1052.27V473.754H1061.67V475.125H1050.6ZM1074.26 464.385C1074.25 466.872 1075.89 469.649 1078.28 470.783L1077.33 472.084C1075.57 471.24 1074.16 469.465 1073.45 467.408C1072.73 469.649 1071.25 471.592 1069.46 472.488L1068.47 471.17C1070.87 470.019 1072.6 467.048 1072.61 464.385V462.715H1069.05V461.326H1077.69V462.715H1074.26V464.385ZM1079.37 475.494V459.744H1081.04V465.984H1083.57V467.391H1081.04V475.494H1079.37ZM1098.74 472.207V473.613H1084.33V472.207H1090.68V469.447H1086.09V464.438H1095.33V462.223H1086.05V460.852H1096.99V465.773H1087.74V468.076H1097.36V469.447H1092.33V472.207H1098.74ZM1109.84 462.627C1109.84 464.763 1111.26 466.819 1113.63 467.654L1112.72 468.955C1111 468.296 1109.71 466.995 1109.04 465.369C1108.36 467.18 1107.01 468.612 1105.16 469.324L1104.26 468.006C1106.72 467.136 1108.17 464.947 1108.18 462.574V460.711H1109.84V462.627ZM1107.13 475.16V470.186H1108.82V473.807H1117.76V475.16H1107.13ZM1112.42 464.719V463.348H1115.74V459.762H1117.41V471.504H1115.74V464.719H1112.42ZM1132.9 459.762V468.727H1131.23V459.762H1132.9ZM1120.15 464.279C1120.16 462.056 1121.94 460.544 1124.36 460.553C1126.76 460.544 1128.54 462.056 1128.54 464.279C1128.54 466.441 1126.76 467.971 1124.36 467.971C1121.94 467.971 1120.16 466.441 1120.15 464.279ZM1121.79 464.279C1121.78 465.633 1122.86 466.564 1124.36 466.564C1125.83 466.564 1126.9 465.633 1126.9 464.279C1126.9 462.882 1125.83 461.95 1124.36 461.959C1122.86 461.95 1121.78 462.882 1121.79 464.279ZM1122.54 475.301V469.518H1132.9V475.301H1122.54ZM1124.2 473.947H1131.26V470.854H1124.2V473.947ZM901.438 502.924C900.349 502.915 899.461 502.027 899.452 500.92C899.461 499.83 900.349 498.942 901.438 498.934C902.546 498.942 903.434 499.83 903.442 500.92C903.434 502.027 902.546 502.915 901.438 502.924ZM928.711 491.762V501.078H927.041V499.162H923.068V497.791H927.041V495.875H923.235C922.216 498.406 919.852 500.19 916.441 501.166L915.773 499.865C919.5 498.802 921.68 496.798 921.979 494.258H916.582V492.887H923.789C923.789 493.467 923.728 494.029 923.622 494.557H927.041V491.762H928.711ZM918.217 504.33C918.217 502.423 920.291 501.263 923.525 501.254C926.716 501.263 928.808 502.423 928.816 504.33C928.808 506.246 926.716 507.424 923.525 507.424C920.291 507.424 918.217 506.246 918.217 504.33ZM919.869 504.33C919.869 505.438 921.275 506.079 923.525 506.088C925.731 506.079 927.138 505.438 927.146 504.33C927.138 503.205 925.731 502.563 923.525 502.572C921.275 502.563 919.869 503.205 919.869 504.33ZM935.496 492.658C936.806 492.649 937.922 493.142 938.66 493.959H942.598V491.744H944.268V501.043H942.598V498.916H938.651C937.913 499.725 936.797 500.208 935.496 500.199C933.123 500.208 931.356 498.635 931.365 496.438C931.356 494.214 933.123 492.649 935.496 492.658ZM932.965 496.438C932.956 497.817 934.02 498.793 935.496 498.775C936.929 498.793 937.992 497.817 937.992 496.438C937.992 495.022 936.929 494.082 935.496 494.1C934.02 494.082 932.956 495.022 932.965 496.438ZM933.668 504.436C933.659 502.511 935.698 501.386 938.994 501.395C942.272 501.386 944.312 502.511 944.32 504.436C944.312 506.352 942.272 507.468 938.994 507.459C935.698 507.468 933.659 506.352 933.668 504.436ZM935.303 504.436C935.294 505.517 936.683 506.149 938.994 506.141C941.306 506.149 942.686 505.517 942.686 504.436C942.686 503.311 941.306 502.687 938.994 502.678C936.683 502.687 935.294 503.311 935.303 504.436ZM939.425 495.295C939.53 495.646 939.592 496.033 939.592 496.438C939.592 496.824 939.53 497.202 939.425 497.545H942.598V495.295H939.425ZM959.824 491.762V503.293H958.154V497.369H955.148V496.016H958.154V491.762H959.824ZM946.711 500.006C949.128 499.188 950.64 497.114 950.631 494.943V494.328H947.221V492.957H955.711V494.328H952.336V494.943C952.327 496.903 953.751 498.881 956.133 499.672L955.271 501.008C953.505 500.393 952.195 499.127 951.51 497.562C950.824 499.303 949.444 500.691 947.572 501.359L946.711 500.006ZM949.594 507.16V502.256H951.264V505.807H960.246V507.16H949.594ZM974.625 491.762V496.402H976.91V497.809H974.625V503.328H972.955V491.762H974.625ZM962.865 500.727V492.887H964.5V495.4H968.631V492.887H970.283V500.727H962.865ZM964.5 499.391H968.631V496.719H964.5V499.391ZM964.641 507.16V502.186H966.311V505.807H975.293V507.16H964.641ZM991.359 491.744V507.494H989.76V491.744H991.359ZM977.982 498.547C977.982 495.137 979.318 493.001 981.375 493.01C983.291 493.001 984.583 494.82 984.776 497.773H986.561V492.043H988.16V506.721H986.561V499.127H984.785C984.636 502.203 983.326 504.11 981.375 504.102C979.318 504.11 977.982 501.966 977.982 498.547ZM979.529 498.547C979.529 501.052 980.241 502.528 981.375 502.52C982.535 502.528 983.256 501.052 983.256 498.547C983.256 496.033 982.535 494.565 981.375 494.574C980.241 494.565 979.529 496.033 979.529 498.547ZM1010.89 491.744V499.76H1009.22V496.754H1005.95V495.4H1009.22V491.744H1010.89ZM997.986 498.775C1001.66 497.914 1003.73 496.13 1004.02 493.818H998.83V492.447H1005.81C1005.81 496.429 1003.14 498.995 998.566 500.129L997.986 498.775ZM1000.59 501.746V500.428H1010.89V504.418H1002.28V506H1011.36V507.336H1000.62V503.152H1009.22V501.746H1000.59ZM1026.45 491.744V507.529H1024.79V501.289H1021.72V499.936H1024.79V498.02H1021.72V496.648H1024.79V491.744H1026.45ZM1013.31 503.188C1015.7 502.089 1017.26 499.399 1017.25 496.807V495.77H1013.75V494.434H1017.27V492.061H1018.94V494.434H1022.35V495.77H1018.9V496.807C1018.9 499.294 1020.51 501.878 1022.93 502.941L1021.98 504.225C1020.2 503.434 1018.81 501.772 1018.1 499.795C1017.42 501.878 1016.04 503.636 1014.23 504.471L1013.31 503.188ZM1045.64 491.744V495.453H1047.93V496.842H1045.64V500.639H1043.97V491.744H1045.64ZM1033.2 499.531C1036.97 498.538 1039.18 496.561 1039.49 494.1H1033.93V492.729H1041.3C1041.29 496.763 1038.56 499.602 1033.86 500.867L1033.2 499.531ZM1035.55 507.283V501.307H1045.64V507.283H1035.55ZM1037.22 505.947H1043.99V502.695H1037.22V505.947ZM1063.18 499.514V500.867H1048.82V499.514H1055.17V497.791H1050.62V492.377H1061.43V493.713H1052.29V496.42H1061.58V497.791H1056.84V499.514H1063.18ZM1050.42 503.609V502.256H1061.44V507.582H1059.79V503.609H1050.42ZM1081.82 491.744V507.529H1080.15V491.744H1081.82ZM1069.32 498.441C1069.32 495.075 1071.01 492.931 1073.4 492.922C1075.73 492.931 1077.46 495.075 1077.46 498.441C1077.46 501.843 1075.73 503.987 1073.4 503.979C1071.01 503.987 1069.32 501.843 1069.32 498.441ZM1070.94 498.441C1070.93 500.946 1071.93 502.484 1073.4 502.484C1074.84 502.484 1075.84 500.946 1075.84 498.441C1075.84 495.972 1074.84 494.425 1073.4 494.416C1071.93 494.425 1070.93 495.972 1070.94 498.441ZM1097.76 491.744V501.676H1096.18V497.281H1094.35V501.131H1092.79V492.043H1094.35V495.91H1096.18V491.744H1097.76ZM1084.24 494.855V493.537H1087.42V491.867H1089.08V493.537H1092.21V494.855H1084.24ZM1084.86 498.301C1084.86 496.666 1086.26 495.594 1088.23 495.594C1090.25 495.594 1091.64 496.666 1091.64 498.301C1091.64 499.936 1090.25 501.008 1088.23 501.008C1086.26 501.008 1084.86 499.936 1084.86 498.301ZM1086.35 498.301C1086.35 499.197 1087.12 499.786 1088.23 499.795C1089.37 499.786 1090.14 499.197 1090.13 498.301C1090.14 497.404 1089.37 496.815 1088.23 496.824C1087.12 496.815 1086.35 497.404 1086.35 498.301ZM1087.16 504.699C1087.14 502.915 1089.15 501.904 1092.49 501.904C1095.83 501.904 1097.84 502.915 1097.85 504.699C1097.84 506.466 1095.83 507.468 1092.49 507.459C1089.15 507.468 1087.14 506.466 1087.16 504.699ZM1088.81 504.699C1088.79 505.648 1090.15 506.193 1092.49 506.176C1094.83 506.193 1096.17 505.648 1096.18 504.699C1096.17 503.706 1094.83 503.179 1092.49 503.188C1090.15 503.179 1088.79 503.706 1088.81 504.699Z" fill="#282828"/>
<path d="M1076.73 390.578V397.75L1073.68 398.3H1063.75V390.578H1076.73ZM1068.07 381.272H1061.31V379.094H1071.17V380.238C1071.17 385.188 1066.68 389.06 1061.73 390.226L1060.54 388.224C1064.15 387.212 1068.07 384.154 1068.07 381.448V381.272ZM1076.73 378.17V383.274H1079.9L1079.46 385.474H1076.73V389.368L1073.72 389.808V378.61L1076.73 378.17ZM1066.77 396.1H1073.68V392.756H1066.77V396.1ZM1096.69 378.17V385.694H1099.86L1099.42 388.158H1096.69V397.86L1093.68 398.3V378.61L1096.69 378.17ZM1087.74 379.182V384.968C1087.74 385.43 1087.87 385.914 1088.13 386.266C1089.28 387.806 1091.02 389.918 1092.51 391.59L1090.75 393.284C1089.21 391.656 1087.34 389.588 1086.22 388.092C1084.92 389.742 1083.03 392.074 1081.47 393.768L1079.62 392.162C1081.12 390.424 1082.88 388.312 1084.17 386.442C1084.44 386.068 1084.66 385.562 1084.66 385.1V379.622L1087.74 379.182ZM1113.42 386.508V388.686C1111.7 389.082 1109.26 389.192 1107.06 389.192H1101.62V379.028H1111.66V381.228H1104.68V382.988H1111.48V385.166H1104.68V387.014H1107.32C1109.1 387.014 1111.39 386.926 1113.42 386.508ZM1117.31 378.17V389.874L1114.32 390.314V378.61L1117.31 378.17ZM1117.31 391.084V397.75L1114.27 398.3H1104.31V391.084H1117.31ZM1107.34 396.1H1114.27V393.284H1107.34V396.1Z" fill="white"/>
<rect x="538" y="130.816" width="185" height="185" rx="32" transform="rotate(-45 538 130.816)" fill="#00456B"/>
<rect x="47" y="267.816" width="1243" height="56" rx="16" fill="#EBEBEB"/>
<path d="M519.921 287.842C523.357 287.842 525.616 289.099 525.616 291.094C525.616 293.071 523.357 294.302 519.921 294.311C516.502 294.302 514.217 293.071 514.226 291.094C514.217 289.099 516.502 287.842 519.921 287.842ZM512.696 296.859V295.277H527.198V296.859H523.7V299.848H521.749V296.859H519.657V299.848H517.688V296.859H512.696ZM514.384 303.064V298.477H516.353V301.482H525.739V303.064H514.384ZM516.335 291.094C516.317 292.148 517.741 292.755 519.921 292.764C522.118 292.755 523.533 292.148 523.524 291.094C523.533 290.004 522.118 289.389 519.921 289.389C517.741 289.389 516.317 290.004 516.335 291.094ZM541.489 287.49V303.398H539.556V287.49H541.489ZM529.114 290.461V288.879H536.603V294.838H531.136V298.037C533.641 298.02 535.794 297.888 538.272 297.475L538.448 299.074C535.75 299.54 533.377 299.646 530.521 299.637H529.132V293.291H534.616V290.461H529.114ZM557.116 287.508V296.789H555.165V295.031H551.386V293.449H555.165V291.744H551.535C550.533 294.267 548.213 296.033 544.759 297L543.968 295.453C547.686 294.451 549.672 292.562 549.971 290.197H544.812V288.615H552.106C552.106 289.169 552.062 289.696 551.975 290.197H555.165V287.508H557.116ZM546.464 300.129C546.464 298.178 548.6 296.974 551.86 296.965C555.077 296.974 557.222 298.178 557.222 300.129C557.222 302.08 555.077 303.302 551.86 303.293C548.6 303.302 546.464 302.08 546.464 300.129ZM548.415 300.129C548.415 301.175 549.725 301.746 551.86 301.746C553.961 301.746 555.262 301.175 555.271 300.129C555.262 299.065 553.961 298.494 551.86 298.494C549.725 298.494 548.415 299.065 548.415 300.129ZM563.778 288.387C565.062 288.378 566.178 288.853 566.925 289.652H570.722V287.49H572.673V296.842H570.722V294.82H566.916C566.16 295.603 565.053 296.077 563.778 296.068C561.379 296.077 559.577 294.469 559.577 292.236C559.577 289.986 561.379 288.378 563.778 288.387ZM561.44 292.236C561.44 293.537 562.416 294.416 563.778 294.416C565.097 294.416 566.072 293.537 566.081 292.236C566.072 290.892 565.097 290.057 563.778 290.057C562.416 290.057 561.44 290.892 561.44 292.236ZM561.897 300.27C561.88 298.31 563.963 297.167 567.294 297.176C570.634 297.167 572.717 298.31 572.726 300.27C572.717 302.221 570.634 303.363 567.294 303.363C563.963 303.363 561.88 302.221 561.897 300.27ZM563.813 300.27C563.796 301.28 565.088 301.825 567.294 301.834C569.544 301.825 570.81 301.28 570.81 300.27C570.81 299.232 569.544 298.679 567.294 298.67C565.088 298.679 563.796 299.232 563.813 300.27ZM567.804 291.217C567.892 291.542 567.944 291.876 567.944 292.236C567.944 292.588 567.892 292.922 567.812 293.238H570.722V291.217H567.804ZM592.413 287.49V303.398H590.444V287.49H592.413ZM579.704 294.258C579.695 290.83 581.444 288.65 583.853 288.65C586.234 288.65 587.992 290.83 588.001 294.258C587.992 297.712 586.234 299.883 583.853 299.883C581.444 299.883 579.695 297.712 579.704 294.258ZM581.585 294.258C581.585 296.701 582.508 298.116 583.853 298.125C585.188 298.116 586.103 296.701 586.103 294.258C586.103 291.832 585.188 290.408 583.853 290.408C582.508 290.408 581.585 291.832 581.585 294.258ZM597.651 288.211V294.697C599.743 294.68 601.519 294.574 603.505 294.24L603.698 295.787C601.439 296.209 599.436 296.306 596.913 296.297H595.683V288.211H597.651ZM597.581 303.188V297.457H608.058V303.188H597.581ZM599.497 301.605H606.124V299.021H599.497V301.605ZM601.993 293.326V291.85H606.106V290.549H601.993V289.072H606.106V287.49H608.058V296.807H606.106V293.326H601.993ZM623.526 287.49V303.398H621.558V287.49H623.526ZM610.817 294.258C610.809 290.83 612.558 288.65 614.966 288.65C617.348 288.65 619.105 290.83 619.114 294.258C619.105 297.712 617.348 299.883 614.966 299.883C612.558 299.883 610.809 297.712 610.817 294.258ZM612.698 294.258C612.698 296.701 613.621 298.116 614.966 298.125C616.302 298.116 617.216 296.701 617.216 294.258C617.216 291.832 616.302 290.408 614.966 290.408C613.621 290.408 612.698 291.832 612.698 294.258ZM643.442 287.508V296.789H641.491V295.031H637.712V293.449H641.491V291.744H637.861C636.859 294.267 634.539 296.033 631.085 297L630.294 295.453C634.012 294.451 635.998 292.562 636.297 290.197H631.138V288.615H638.433C638.433 289.169 638.389 289.696 638.301 290.197H641.491V287.508H643.442ZM632.79 300.129C632.79 298.178 634.926 296.974 638.187 296.965C641.403 296.974 643.548 298.178 643.548 300.129C643.548 302.08 641.403 303.302 638.187 303.293C634.926 303.302 632.79 302.08 632.79 300.129ZM634.741 300.129C634.741 301.175 636.051 301.746 638.187 301.746C640.287 301.746 641.588 301.175 641.597 300.129C641.588 299.065 640.287 298.494 638.187 298.494C636.051 298.494 634.741 299.065 634.741 300.129ZM650.104 288.387C651.388 288.378 652.504 288.853 653.251 289.652H657.048V287.49H658.999V296.842H657.048V294.82H653.242C652.486 295.603 651.379 296.077 650.104 296.068C647.705 296.077 645.903 294.469 645.903 292.236C645.903 289.986 647.705 288.378 650.104 288.387ZM647.767 292.236C647.767 293.537 648.742 294.416 650.104 294.416C651.423 294.416 652.398 293.537 652.407 292.236C652.398 290.892 651.423 290.057 650.104 290.057C648.742 290.057 647.767 290.892 647.767 292.236ZM648.224 300.27C648.206 298.31 650.289 297.167 653.62 297.176C656.96 297.167 659.043 298.31 659.052 300.27C659.043 302.221 656.96 303.363 653.62 303.363C650.289 303.363 648.206 302.221 648.224 300.27ZM650.14 300.27C650.122 301.28 651.414 301.825 653.62 301.834C655.87 301.825 657.136 301.28 657.136 300.27C657.136 299.232 655.87 298.679 653.62 298.67C651.414 298.679 650.122 299.232 650.14 300.27ZM654.13 291.217C654.218 291.542 654.271 291.876 654.271 292.236C654.271 292.588 654.218 292.922 654.139 293.238H657.048V291.217H654.13ZM673.835 287.49V291.357H675.979V292.992H673.835V296.842H671.884V287.49H673.835ZM661.108 295.242C662.304 295.242 663.684 295.242 665.116 295.207V294.407C663.332 294.223 662.225 293.493 662.233 292.324C662.225 291.041 663.736 290.285 666.065 290.285C668.395 290.285 669.897 291.041 669.897 292.324C669.897 293.476 668.816 294.214 667.067 294.398V295.137C668.421 295.066 669.783 294.961 671.058 294.785L671.216 296.016C667.814 296.587 664.088 296.613 661.319 296.613L661.108 295.242ZM661.513 289.898V288.562H665.116V287.367H667.067V288.562H670.636V289.898H661.513ZM663.218 298.793V297.475H673.835V300.902H665.204V301.922H674.397V303.24H663.253V299.689H671.884V298.793H663.218ZM664.114 292.324C664.097 292.896 664.835 293.203 666.065 293.203C667.296 293.203 668.034 292.896 668.034 292.324C668.034 291.797 667.296 291.524 666.065 291.516C664.835 291.524 664.097 291.797 664.114 292.324ZM691.308 295.102V296.666H676.806V295.102H683.099V293.59H678.581V288.211H689.55V289.74H680.532V292.043H689.638V293.59H685.015V295.102H691.308ZM678.493 300.48C678.493 298.617 680.576 297.571 684.03 297.58C687.458 297.571 689.523 298.617 689.532 300.48C689.523 302.326 687.458 303.372 684.03 303.381C680.576 303.372 678.493 302.326 678.493 300.48ZM680.479 300.48C680.471 301.403 681.719 301.878 684.03 301.869C686.307 301.878 687.563 301.403 687.581 300.48C687.563 299.566 686.307 299.074 684.03 299.074C681.719 299.074 680.471 299.566 680.479 300.48ZM706.073 287.49V303.381H704.192V287.49H706.073ZM692.521 294.363C692.521 290.865 693.874 288.694 695.948 288.703C697.873 288.694 699.183 290.496 699.411 293.467H700.94V287.771H702.804V302.607H700.94V295.049H699.429C699.244 298.151 697.917 300.05 695.948 300.041C693.874 300.05 692.521 297.87 692.521 294.363ZM694.331 294.363C694.322 296.851 694.938 298.187 695.948 298.178C697.003 298.187 697.627 296.851 697.636 294.363C697.627 291.885 697.003 290.54 695.948 290.549C694.938 290.54 694.322 291.885 694.331 294.363ZM724.724 287.508V292.096H726.938V293.713H724.724V299.197H722.772V287.508H724.724ZM712.735 296.613V288.633H714.669V291.059H718.378V288.633H720.312V296.613H712.735ZM714.546 303.064V298.02H716.497V301.482H725.356V303.064H714.546ZM714.669 295.066H718.378V292.57H714.669V295.066ZM732.159 288.387C733.442 288.378 734.559 288.853 735.306 289.652H739.103V287.49H741.054V296.842H739.103V294.82H735.297C734.541 295.603 733.434 296.077 732.159 296.068C729.76 296.077 727.958 294.469 727.958 292.236C727.958 289.986 729.76 288.378 732.159 288.387ZM729.821 292.236C729.821 293.537 730.797 294.416 732.159 294.416C733.478 294.416 734.453 293.537 734.462 292.236C734.453 290.892 733.478 290.057 732.159 290.057C730.797 290.057 729.821 290.892 729.821 292.236ZM730.278 300.27C730.261 298.31 732.344 297.167 735.675 297.176C739.015 297.167 741.098 298.31 741.106 300.27C741.098 302.221 739.015 303.363 735.675 303.363C732.344 303.363 730.261 302.221 730.278 300.27ZM732.194 300.27C732.177 301.28 733.469 301.825 735.675 301.834C737.925 301.825 739.19 301.28 739.19 300.27C739.19 299.232 737.925 298.679 735.675 298.67C733.469 298.679 732.177 299.232 732.194 300.27ZM736.185 291.217C736.272 291.542 736.325 291.876 736.325 292.236C736.325 292.588 736.272 292.922 736.193 293.238H739.103V291.217H736.185ZM752.761 294.082V295.664H749.544V298.433C750.933 298.38 752.321 298.283 753.64 298.143L753.798 299.584C750.3 300.103 746.617 300.138 743.62 300.146L743.374 298.529C744.684 298.538 746.116 298.529 747.593 298.503V295.664H744.481V288.949H752.69V290.496H746.415V294.082H752.761ZM754.589 303.398V287.49H756.54V303.398H754.589ZM771.763 294.715V296.262H767.052V299.9H773.38V301.5H758.86V299.9H765.118V296.262H760.618V288.668H771.64V290.232H762.569V294.715H771.763ZM788.919 296.086V297.668H774.399V296.086H780.692V294.768H776.245V290.549H785.175V289.371H776.192V287.842H787.126V291.973H778.179V293.238H787.442V294.768H782.626V296.086H788.919ZM776.017 300.217V298.67H787.214V303.275H785.245V300.217H776.017ZM807.165 294.469V296.051H802.472V299.9H808.765V301.482H794.245V299.9H800.503V296.051H795.915V288.756H797.919V294.469H807.165ZM817.396 288.439V293.221H812.386V295.172C814.943 295.172 816.394 295.102 818.081 294.785L818.274 296.367C816.376 296.692 814.732 296.736 811.612 296.736H810.452V291.762H815.444V289.986H810.417V288.439H817.396ZM812.245 299.602V298.037H823.108V303.381H821.157V299.602H812.245ZM818.345 294.662V293.098H821.157V291.322H818.345V289.758H821.157V287.508H823.108V297.281H821.157V294.662H818.345Z" fill="#282828"/>
<path d="M623.399 120.149V122.765H627.743L627.383 125.165H623.399V126.005C623.399 126.509 623.471 127.061 623.831 127.421C625.079 128.693 626.591 130.061 628.295 131.453L626.375 133.301C624.623 131.981 623.063 130.733 621.719 129.413C620.447 130.805 618.695 132.413 616.847 133.853L614.831 132.101C616.607 130.637 618.263 129.029 619.463 127.613C619.799 127.205 619.991 126.653 619.991 126.149V125.165H615.527V122.765H619.991V120.629L623.399 120.149ZM629.567 120.749L632.831 120.269V141.749L629.567 142.229V120.749ZM617.879 138.245H614.711V135.869H620.015V132.389H623.375V135.797C625.151 135.701 627.119 135.533 628.679 135.245V137.645C625.247 138.101 621.575 138.245 617.879 138.245ZM656.666 136.685L656.186 139.133H635.858V136.685H642.41V129.461H645.77V136.685H656.666ZM650.402 123.917H638.402V121.541H653.786C653.738 125.333 653.21 130.901 652.346 134.645H649.01C649.778 131.237 650.306 126.869 650.402 123.917ZM673.254 133.757V130.853H668.934V128.453H673.254V126.173H669.558C667.902 129.749 663.726 132.701 659.814 133.877L658.254 131.789C663.03 130.469 666.846 126.605 666.846 124.085V123.749H659.502V121.349H670.302V123.005C670.302 123.269 670.278 123.533 670.254 123.773H673.254V120.749L676.518 120.269V133.277L673.254 133.757ZM671.598 133.901C674.214 133.901 676.59 134.957 676.59 138.197C676.59 141.461 674.214 142.517 671.598 142.517H666.462C663.75 142.517 661.326 141.461 661.326 138.197C661.326 134.957 663.75 133.901 666.462 133.901H671.598ZM671.286 136.277H666.726C665.43 136.277 664.542 136.805 664.542 138.197C664.542 139.613 665.43 140.141 666.726 140.141H671.286C672.486 140.141 673.374 139.613 673.374 138.197C673.374 136.805 672.486 136.277 671.286 136.277ZM695.098 133.541V130.349H691.378V129.581C690.442 131.357 688.354 132.293 686.074 132.293C682.978 132.293 680.242 130.565 680.242 127.349V125.933C680.242 122.717 682.978 120.989 686.074 120.989C688.354 120.989 690.442 121.925 691.378 123.725V122.453H695.098V120.749L698.338 120.269V133.061L695.098 133.541ZM693.442 133.901C696.058 133.901 698.434 134.957 698.434 138.197C698.434 141.461 696.058 142.517 693.442 142.517H688.306C685.594 142.517 683.17 141.461 683.17 138.197C683.17 134.957 685.594 133.901 688.306 133.901H693.442ZM693.13 136.277H688.57C687.274 136.277 686.386 136.805 686.386 138.197C686.386 139.613 687.274 140.141 688.57 140.141H693.13C694.33 140.141 695.218 139.613 695.218 138.197C695.218 136.805 694.33 136.277 693.13 136.277ZM688.666 127.253V126.029C688.666 124.349 687.538 123.389 686.074 123.389C684.61 123.389 683.482 124.349 683.482 126.029V127.253C683.482 128.933 684.61 129.893 686.074 129.893C687.538 129.893 688.666 128.933 688.666 127.253ZM691.906 127.349C691.906 127.565 691.882 127.757 691.858 127.949H695.098V124.829H691.786C691.858 125.189 691.906 125.549 691.906 125.933V127.349ZM714.446 121.829L713.966 124.205H710.126V128.141C710.126 128.645 710.246 129.173 710.558 129.557C711.878 131.189 713.558 133.109 715.19 134.933L713.27 136.781C711.59 135.005 709.814 133.109 708.47 131.549C707.006 133.301 705.158 135.413 703.43 137.285L701.414 135.533C703.07 133.613 704.774 131.741 706.238 129.749C706.526 129.341 706.766 128.789 706.766 128.285V124.205H702.494V121.829H714.446ZM719.534 120.269V128.525H722.99L722.51 131.213H719.534V141.749L716.246 142.229V120.749L719.534 120.269Z" fill="white"/>
<defs>
<filter id="filter0_f_578_14312" x="463.5" y="349" width="410" height="101" filterUnits="userSpaceOnUse" color-interpolation-filters="sRGB">
<feFlood flood-opacity="0" result="BackgroundImageFix"/>
<feBlend mode="normal" in="SourceGraphic" in2="BackgroundImageFix" result="shape"/>
<feGaussianBlur stdDeviation="8" result="effect1_foregroundBlur_578_14312"/>
</filter>
<filter id="filter1_f_578_14312" x="43" y="349" width="410" height="101" filterUnits="userSpaceOnUse" color-interpolation-filters="sRGB">
<feFlood flood-opacity="0" result="BackgroundImageFix"/>
<feBlend mode="normal" in="SourceGraphic" in2="BackgroundImageFix" result="shape"/>
<feGaussianBlur stdDeviation="8" result="effect1_foregroundBlur_578_14312"/>
</filter>
<filter id="filter2_f_578_14312" x="884" y="349.188" width="410" height="101" filterUnits="userSpaceOnUse" color-interpolation-filters="sRGB">
<feFlood flood-opacity="0" result="BackgroundImageFix"/>
<feBlend mode="normal" in="SourceGraphic" in2="BackgroundImageFix" result="shape"/>
<feGaussianBlur stdDeviation="8" result="effect1_foregroundBlur_578_14312"/>
</filter>
</defs>
</svg>
