<svg width="339" height="241" viewBox="0 0 339 241" fill="none" xmlns="http://www.w3.org/2000/svg">
<circle cx="163.779" cy="122.5" r="118.242" stroke="#C1CFC5" stroke-opacity="0.6" stroke-width="0.516408" stroke-dasharray="5.16 3.1"/>
<circle cx="163.779" cy="122.5" r="96.2418" stroke="#C1CFC5" stroke-opacity="0.6" stroke-width="0.516408" stroke-dasharray="5.16 3.1"/>
<circle cx="164.279" cy="123" r="69" fill="#FF8D24"/>
<circle cx="164.279" cy="123" r="73.1313" stroke="#FF8D24" stroke-opacity="0.7" stroke-width="8.26252"/>
<g filter="url(#filter0_f_3562_2749)">
<ellipse cx="64" cy="196.5" rx="36" ry="35.5" fill="#99BCFF"/>
</g>
<circle cx="64" cy="194" r="36" fill="#4B84F0"/>
<path d="M54.873 186V176.102H56.9238V180.203H61.2168V176.102H63.2812V186H61.2168V181.898H56.9238V186H54.873ZM64.9492 186V176.102H68.832C71.0811 176.102 72.373 177.366 72.373 179.328C72.373 180.682 71.751 181.666 70.623 182.151L72.7285 186H70.459L68.5654 182.486H67V186H64.9492ZM67 180.818H68.4492C69.666 180.818 70.2607 180.319 70.2539 179.328C70.2607 178.33 69.666 177.79 68.4492 177.783H67V180.818ZM44.209 198.771C44.2021 200.282 45.084 201.731 47.0527 202.34L46.123 203.693C44.8037 203.256 43.8809 202.408 43.3477 201.321C42.8076 202.572 41.8438 203.557 40.4219 204.035L39.4785 202.668C41.5566 201.978 42.4453 200.323 42.459 198.607V197.473H44.209V198.771ZM41.2012 206.852C41.1943 205.341 42.8418 204.445 45.4668 204.445C48.0439 204.445 49.6572 205.341 49.6641 206.852C49.6572 208.376 48.0439 209.265 45.4668 209.258C42.8418 209.265 41.1943 208.376 41.2012 206.852ZM42.9512 206.852C42.9375 207.556 43.833 207.891 45.4668 207.891C47.0801 207.891 47.9414 207.556 47.9414 206.852C47.9414 206.175 47.0801 205.812 45.4668 205.812C43.833 205.812 42.9375 206.175 42.9512 206.852ZM47.791 204.199V196.816H49.541V199.729H51.2227V201.178H49.541V204.199H47.791ZM61.6406 196.816V199.619H63.3223V201.055H61.6406V203.803H59.8906V196.816H61.6406ZM52.248 203.338V197.596H57.7988V198.977H53.998V201.943C56.2539 201.93 57.4912 201.841 58.8789 201.561L59.0566 202.928C57.4912 203.29 56.0557 203.338 53.3008 203.338H52.248ZM53.5059 209.107V204.322H61.6406V209.107H53.5059ZM55.2285 207.74H59.918V205.703H55.2285V207.74ZM74.5605 196.816V206.127H72.9062V196.816H74.5605ZM63.7188 203.188C65.4141 202.374 66.0977 200.747 66.0977 199.277V197.65H67.793V199.277C67.7861 200.713 68.4082 202.142 70.0078 202.873L69.0371 204.213C68.0391 203.748 67.3691 202.962 66.959 202.012C66.5215 203.099 65.7764 204.001 64.6758 204.514L63.7188 203.188ZM66.125 209.039V205.033H67.875V207.645H74.875V209.039H66.125ZM68.873 201.082V199.66H70.3906V197.008H72.0449V205.758H70.3906V201.082H68.873ZM86.4688 196.816V209.285H84.7461V202.613H82.5586V201.205H84.7461V196.816H86.4688ZM76.543 206.469V197.855H82.3535V199.264H78.2793V201.328H81.9023V202.695H78.2793V205.047C80.0088 205.033 81.3896 204.972 82.9277 204.732L83.1055 206.127C81.2871 206.4 79.6602 206.462 77.5273 206.469H76.543Z" fill="white"/>
<g filter="url(#filter1_f_3562_2749)">
<circle cx="276.963" cy="164.405" r="33.4051" fill="#99BCFF"/>
</g>
<circle cx="277.058" cy="163.5" r="34.5" fill="#4B84F0"/>
<path d="M263.987 157.816V170.258H262.333V157.816H263.987ZM252.968 166.621C254.8 165.493 255.483 163.265 255.483 161.152V160.482H253.446V159.088H259.052V160.482H257.165V161.152C257.158 163.217 257.808 165.309 259.626 166.348L258.601 167.633C257.486 166.977 256.762 165.869 256.338 164.529C255.914 165.979 255.162 167.209 254.021 167.906L252.968 166.621ZM258.163 163.49V162.082H259.804V158.021H261.444V169.684H259.804V163.49H258.163ZM276.716 167.387V168.809H265.327V167.387H270.126V165.09H266.53V158.609H268.28V160.537H273.708V158.609H275.444V165.09H271.862V167.387H276.716ZM268.28 163.695H273.708V161.932H268.28V163.695ZM287.243 157.816V162.684H289.075V164.119H287.243V170.258H285.521V157.816H287.243ZM277.358 161.07V159.676H280.175V158.008H281.925V159.676H284.673V161.07H277.358ZM277.864 164.734C277.857 162.998 279.211 161.761 281.05 161.768C282.861 161.761 284.222 162.998 284.222 164.734C284.222 166.471 282.861 167.694 281.05 167.701C279.211 167.694 277.857 166.471 277.864 164.734ZM279.532 164.734C279.532 165.698 280.168 166.272 281.05 166.266C281.918 166.272 282.554 165.698 282.554 164.734C282.554 163.777 281.918 163.189 281.05 163.176C280.168 163.189 279.532 163.777 279.532 164.734ZM299.985 157.816V170.258H298.222V157.816H299.985ZM289.567 166.73C292.78 165.213 294.195 163.244 294.476 160.482H290.237V159.115H296.253C296.246 162.889 294.927 166.026 290.483 168.125L289.567 166.73Z" fill="white"/>
<g filter="url(#filter2_f_3562_2749)">
<circle cx="253.575" cy="42.0246" r="31.7053" fill="#99BCFF"/>
</g>
<circle cx="253.173" cy="41.8193" r="32.5" fill="#4B84F0"/>
<path d="M239.6 37.2158V38.3916C239.593 39.9502 239.593 41.7002 239.094 44.3389L237.344 44.1611C237.823 41.8096 237.843 40.0596 237.85 38.5967H230.522V37.2158H239.6ZM229.346 47.0596V45.6377H233.407V41.3584H235.143V45.6377H240.694V47.0596H229.346ZM252.794 42.124V43.4912H247.981V44.3799C250.169 44.5234 251.426 45.248 251.44 46.458C251.426 47.832 249.834 48.584 247.106 48.5771C244.365 48.584 242.745 47.832 242.745 46.458C242.745 45.248 244.03 44.5166 246.245 44.3799V43.4912H241.446V42.124H252.794ZM241.924 40.4014C244.529 40.2305 245.794 39.4785 246.074 38.624H242.54V37.2432H246.245V36.1768H247.967V37.2432H251.7V38.624H248.131C248.405 39.4785 249.676 40.2305 252.288 40.4014L251.768 41.7275C249.471 41.5635 247.885 40.9004 247.106 39.8955C246.32 40.9004 244.734 41.5635 242.458 41.7275L241.924 40.4014ZM244.522 46.458C244.515 47.0322 245.363 47.292 247.106 47.292C248.808 47.292 249.683 47.0322 249.69 46.458C249.683 45.8975 248.808 45.6377 247.106 45.6377C245.363 45.6377 244.515 45.8975 244.522 46.458ZM264.059 36.1357V48.6045H262.309V42.3154H260.067V40.9209H262.309V36.1357H264.059ZM253.491 44.9131C255.494 44.0176 256.464 41.8984 256.471 40.0322V39.5537H253.887V38.1592H256.471V36.4092H258.221V38.1592H260.737V39.5537H258.208V40.0322C258.201 41.8301 259.199 43.8398 261.229 44.7217L260.299 46.0615C258.884 45.4736 257.893 44.2842 257.346 42.8691C256.813 44.373 255.829 45.6377 254.407 46.2529L253.491 44.9131ZM276.077 36.1357V48.6045H274.34V36.1357H276.077ZM266.301 38.583V37.1748H272.221V41.9736H268.12V44.2568C270.02 44.2432 271.627 44.1475 273.452 43.8467L273.602 45.2549C271.558 45.6172 269.706 45.6924 267.436 45.6924H266.315V40.5928H270.444V38.583H266.301Z" fill="white"/>
<circle cx="137.279" cy="9" r="6" fill="url(#paint0_radial_3562_2749)"/>
<circle cx="123.176" cy="232.285" r="7.74611" fill="url(#paint1_radial_3562_2749)"/>
<circle cx="252.277" cy="225.055" r="4.64767" fill="url(#paint2_radial_3562_2749)"/>
<path d="M122.454 105.28C124.488 105.28 126.306 106 126.306 108.376C126.306 110.752 124.488 111.472 122.454 111.472H119.286C117.252 111.472 115.434 110.752 115.434 108.376C115.434 106 117.252 105.28 119.286 105.28H122.454ZM119.322 112.03V113.974H122.454V112.03H124.956V113.974H128.682L128.322 115.792H113.076V113.974H116.82V112.03H119.322ZM126.846 104.596H114.714V102.832H119.592V101.356L122.076 100.996V102.832H127.206L126.846 104.596ZM122.238 107.008H119.502C118.584 107.008 117.846 107.386 117.846 108.376C117.846 109.366 118.584 109.744 119.502 109.744H122.238C123.156 109.744 123.894 109.366 123.894 108.376C123.894 107.386 123.156 107.008 122.238 107.008ZM139.881 111.454C141.843 111.454 143.625 112.246 143.625 114.676C143.625 117.124 141.843 117.916 139.881 117.916H136.029C133.995 117.916 132.177 117.124 132.177 114.676C132.177 112.246 133.995 111.454 136.029 111.454H139.881ZM135.921 101.608V104.542C135.921 104.92 135.993 105.334 136.245 105.604C137.361 106.846 138.549 107.944 139.809 109.006L138.369 110.392C137.091 109.366 135.777 108.304 134.679 107.098C133.581 108.358 132.105 109.762 130.791 110.878L129.279 109.564C130.539 108.43 131.871 107.188 132.969 105.748C133.203 105.442 133.365 105.028 133.365 104.65V101.968L135.921 101.608ZM140.943 111.184V105.496H137.937V103.714H140.943V101.59L143.391 101.23V110.824L140.943 111.184ZM139.647 113.236H136.227C135.255 113.236 134.589 113.632 134.589 114.676C134.589 115.738 135.255 116.134 136.227 116.134H139.647C140.547 116.134 141.213 115.738 141.213 114.676C141.213 113.632 140.547 113.236 139.647 113.236ZM160.66 101.95C162.622 101.95 164.476 102.76 164.476 105.226C164.476 107.674 162.622 108.502 160.66 108.502H156.7C154.666 108.502 152.884 107.674 152.884 105.226C152.884 102.76 154.666 101.95 156.7 101.95H160.66ZM166.132 111.436H162.874V114.424H160.462V111.436H158.878V114.37H156.412V111.436H150.886V109.672H166.492L166.132 111.436ZM164.224 117.628H153.226V113.128H155.728V115.828H164.584L164.224 117.628ZM160.426 103.732H156.934C155.962 103.732 155.296 104.146 155.296 105.226C155.296 106.288 155.962 106.72 156.934 106.72H160.426C161.326 106.72 162.064 106.288 162.064 105.226C162.064 104.146 161.326 103.732 160.426 103.732ZM174.019 106.918V104.074H168.529V102.292H176.485V108.682H171.031V111.562H172.327C173.965 111.562 176.467 111.49 178.195 111.13V112.912C176.359 113.218 173.803 113.344 172.111 113.344H168.529V106.918H174.019ZM181.363 101.23V117.34L178.915 117.7V101.59L181.363 101.23ZM195.316 111.346V109.168H192.076V107.368H195.316V105.658H192.544C191.302 108.34 188.17 110.554 185.236 111.436L184.066 109.87C187.648 108.88 190.51 105.982 190.51 104.092V103.84H185.002V102.04H193.102V103.282C193.102 103.48 193.084 103.678 193.066 103.858H195.316V101.59L197.764 101.23V110.986L195.316 111.346ZM194.074 111.454C196.036 111.454 197.818 112.246 197.818 114.676C197.818 117.124 196.036 117.916 194.074 117.916H190.222C188.188 117.916 186.37 117.124 186.37 114.676C186.37 112.246 188.188 111.454 190.222 111.454H194.074ZM193.84 113.236H190.42C189.448 113.236 188.782 113.632 188.782 114.676C188.782 115.738 189.448 116.134 190.42 116.134H193.84C194.74 116.134 195.406 115.738 195.406 114.676C195.406 113.632 194.74 113.236 193.84 113.236ZM211.699 111.184V108.79H208.909V108.214C208.207 109.546 206.641 110.248 204.931 110.248C202.609 110.248 200.557 108.952 200.557 106.54V105.478C200.557 103.066 202.609 101.77 204.931 101.77C206.641 101.77 208.207 102.472 208.909 103.822V102.868H211.699V101.59L214.129 101.23V110.824L211.699 111.184ZM210.457 111.454C212.419 111.454 214.201 112.246 214.201 114.676C214.201 117.124 212.419 117.916 210.457 117.916H206.605C204.571 117.916 202.753 117.124 202.753 114.676C202.753 112.246 204.571 111.454 206.605 111.454H210.457ZM210.223 113.236H206.803C205.831 113.236 205.165 113.632 205.165 114.676C205.165 115.738 205.831 116.134 206.803 116.134H210.223C211.123 116.134 211.789 115.738 211.789 114.676C211.789 113.632 211.123 113.236 210.223 113.236ZM206.875 106.468V105.55C206.875 104.29 206.029 103.57 204.931 103.57C203.833 103.57 202.987 104.29 202.987 105.55V106.468C202.987 107.728 203.833 108.448 204.931 108.448C206.029 108.448 206.875 107.728 206.875 106.468ZM209.305 106.54C209.305 106.702 209.287 106.846 209.269 106.99H211.699V104.65H209.215C209.269 104.92 209.305 105.19 209.305 105.478V106.54Z" fill="white"/>
<rect x="111.279" y="129" width="106" height="28" rx="8" fill="#ED7204"/>
<path d="M127.136 138.492C127.13 141.686 126.181 144.439 122.39 146.391L121.675 145.395C123.433 144.486 124.529 143.432 125.156 142.172L121.91 142.477L121.722 141.363L125.56 141.129C125.707 140.631 125.794 140.104 125.835 139.547H122.273V138.492H127.136ZM127.113 142.652V141.586H129.292V137.449H130.593V148.043H129.292V142.652H127.113ZM141.761 143.426V144.48H139.488V148.078H138.187V144.48H135.714V148.078H134.402V144.48H132.082V143.426H141.761ZM133.265 142.195V137.988H140.578V142.195H133.265ZM134.542 141.152H139.277V139.02H134.542V141.152ZM151.3 137.449V148.043H150.011V137.449H151.3ZM143.074 145.383V138.48H144.363V144.27C145.845 144.246 147.427 144.117 149.062 143.789L149.226 144.879C147.363 145.266 145.634 145.389 143.988 145.383H143.074ZM157.535 138.668C157.529 139.664 157.435 140.619 157.189 141.516H158.496V137.707H159.726V147.539H158.496V142.57H156.802C156.222 143.848 155.22 144.973 153.574 145.898L152.835 145.008C154.271 144.188 155.156 143.232 155.671 142.137L153.023 142.406L152.871 141.281L156.041 141.105C156.152 140.666 156.222 140.203 156.257 139.723H153.386V138.668H157.535ZM160.734 148.043V137.449H161.976V148.043H160.734ZM172.019 137.449V148.055H170.707V137.449H172.019ZM163.546 141.961C163.541 139.676 164.707 138.223 166.312 138.223C167.9 138.223 169.072 139.676 169.078 141.961C169.072 144.264 167.9 145.711 166.312 145.711C164.707 145.711 163.541 144.264 163.546 141.961ZM164.8 141.961C164.8 143.59 165.416 144.533 166.312 144.539C167.203 144.533 167.812 143.59 167.812 141.961C167.812 140.344 167.203 139.395 166.312 139.395C165.416 139.395 164.8 140.344 164.8 141.961ZM177.433 139.324C177.427 140.818 178.265 142.271 179.894 142.887L179.167 143.895C178.037 143.449 177.228 142.564 176.789 141.469C176.332 142.646 175.476 143.578 174.257 144.047L173.554 143.016C175.242 142.406 176.115 140.912 176.121 139.324V138.059H177.433V139.324ZM175.464 147.832V144.551H176.789V146.777H182.683V147.832H175.464ZM179.214 142.043V141H181.148V139.957H179.214V138.902H181.148V137.461H182.449V145.324H181.148V142.043H179.214ZM190.031 140.672C190.031 142.289 190.693 143.953 192.199 144.738L191.46 145.699C190.476 145.184 189.808 144.258 189.427 143.15C189.052 144.346 188.384 145.371 187.394 145.934L186.644 144.973C188.126 144.111 188.794 142.348 188.8 140.672V140.379H186.949V139.312H188.8V137.824H190.031V139.312H191.859V140.379H190.031V140.672ZM192.421 147.527V137.637H193.652V141.598H194.742V137.449H195.984V148.043H194.742V142.676H193.652V147.527H192.421ZM199.066 137.918V141.451C200.484 141.434 201.855 141.346 203.32 141.07L203.496 142.137C201.791 142.447 200.255 142.541 198.621 142.535H197.777V137.918H199.066ZM199.066 144.316V143.285H206.039V146.051H200.378V146.859H206.343V147.914H199.078V145.055H204.738V144.316H199.066ZM201.972 140.086V139.043H204.738V137.449H206.039V142.852H204.738V140.086H201.972Z" fill="white"/>
<defs>
<filter id="filter0_f_3562_2749" x="19.7375" y="152.737" width="88.525" height="87.525" filterUnits="userSpaceOnUse" color-interpolation-filters="sRGB">
<feFlood flood-opacity="0" result="BackgroundImageFix"/>
<feBlend mode="normal" in="SourceGraphic" in2="BackgroundImageFix" result="shape"/>
<feGaussianBlur stdDeviation="4.13126" result="effect1_foregroundBlur_3562_2749"/>
</filter>
<filter id="filter1_f_3562_2749" x="234.65" y="122.092" width="84.6263" height="84.6261" filterUnits="userSpaceOnUse" color-interpolation-filters="sRGB">
<feFlood flood-opacity="0" result="BackgroundImageFix"/>
<feBlend mode="normal" in="SourceGraphic" in2="BackgroundImageFix" result="shape"/>
<feGaussianBlur stdDeviation="4.45402" result="effect1_foregroundBlur_3562_2749"/>
</filter>
<filter id="filter2_f_3562_2749" x="212.298" y="0.747927" width="82.5534" height="82.5535" filterUnits="userSpaceOnUse" color-interpolation-filters="sRGB">
<feFlood flood-opacity="0" result="BackgroundImageFix"/>
<feBlend mode="normal" in="SourceGraphic" in2="BackgroundImageFix" result="shape"/>
<feGaussianBlur stdDeviation="4.7857" result="effect1_foregroundBlur_3562_2749"/>
</filter>
<radialGradient id="paint0_radial_3562_2749" cx="0" cy="0" r="1" gradientUnits="userSpaceOnUse" gradientTransform="translate(137.279 9) rotate(90) scale(6)">
<stop stop-color="#00509A"/>
<stop offset="1" stop-color="#143484"/>
</radialGradient>
<radialGradient id="paint1_radial_3562_2749" cx="0" cy="0" r="1" gradientUnits="userSpaceOnUse" gradientTransform="translate(123.176 232.285) rotate(90) scale(9.67653)">
<stop stop-color="#22CD74"/>
<stop offset="1" stop-color="#09A36B"/>
</radialGradient>
<radialGradient id="paint2_radial_3562_2749" cx="0" cy="0" r="1" gradientUnits="userSpaceOnUse" gradientTransform="translate(252.277 225.055) rotate(90) scale(5.80592)">
<stop stop-color="#FFD600"/>
<stop offset="1" stop-color="#FFAE24"/>
</radialGradient>
</defs>
</svg>
