<svg width="1336" height="614" viewBox="0 0 1336 614" fill="none" xmlns="http://www.w3.org/2000/svg">
<path d="M668 82L1024 124H312L668 82Z" fill="url(#paint0_linear_7145_7494)"/>
<rect x="226" width="281" height="72" rx="16" fill="#1B4B66"/>
<rect x="829" width="281" height="72" rx="16" fill="#1B4B66"/>
<rect x="528" width="281" height="72" rx="16" fill="#1B4B66"/>
<path d="M226 174C226 158.915 226 151.373 230.686 146.686C235.373 142 242.915 142 258 142H1078C1093.08 142 1100.63 142 1105.31 146.686C1110 151.373 1110 158.915 1110 174C1110 189.085 1110 196.627 1105.31 201.314C1100.63 206 1093.08 206 1078 206H258C242.915 206 235.373 206 230.686 201.314C226 196.627 226 189.085 226 174Z" fill="#4B84F0"/>
<path d="M226 510C226 494.915 226 487.373 230.686 482.686C235.373 478 242.915 478 258 478H1078C1093.08 478 1100.63 478 1105.31 482.686C1110 487.373 1110 494.915 1110 510C1110 525.085 1110 532.627 1105.31 537.314C1100.63 542 1093.08 542 1078 542H258C242.915 542 235.373 542 230.686 537.314C226 532.627 226 525.085 226 510Z" fill="#4B84F0"/>
<path d="M226 582C226 566.915 226 559.373 230.686 554.686C235.373 550 242.915 550 258 550H1078C1093.08 550 1100.63 550 1105.31 554.686C1110 559.373 1110 566.915 1110 582C1110 597.085 1110 604.627 1105.31 609.314C1100.63 614 1093.08 614 1078 614H258C242.915 614 235.373 614 230.686 609.314C226 604.627 226 597.085 226 582Z" fill="#4B84F0"/>
<path d="M296.076 40.74L295.676 43.04H286.516V27.52H295.836V29.8H289.356V33.86H295.356V36.18H289.356V40.74H296.076ZM302.148 34.04H304.888C307.088 34.04 308.648 35.8 308.648 38.28C308.648 41.54 306.408 43.04 303.108 43.04H297.968V40.74H302.868C304.648 40.74 305.808 40.1 305.808 38.42C305.808 37.14 305.148 36.32 304.148 36.32H301.688C299.368 36.32 297.688 34.56 297.688 32.16C297.688 28.98 299.488 27.52 302.808 27.52H307.628L307.208 29.8H303.048C301.468 29.8 300.508 30.42 300.508 32.02C300.508 33.3 301.088 34.04 302.148 34.04ZM318.54 43.16H316.84C312.4 43.16 310.28 41.26 310.28 37.24V33.44C310.28 29.56 312.46 27.52 316.82 27.52H321.1L320.68 29.86H317C314.08 29.86 313.1 31.42 313.1 33.86V36.8C313.1 39.4 313.9 40.84 316.92 40.84H318.54V36.5H315.96V34.26H321.28V42.76L318.54 43.16ZM335.882 37.94V35.52H332.282V33.52H335.882V31.62H332.802C331.422 34.6 327.942 37.06 324.682 38.04L323.382 36.3C327.362 35.2 330.542 31.98 330.542 29.88V29.6H324.422V27.6H333.422V28.98C333.422 29.2 333.402 29.42 333.382 29.62H335.882V27.1L338.602 26.7V37.54L335.882 37.94ZM334.502 38.06C336.682 38.06 338.662 38.94 338.662 41.64C338.662 44.36 336.682 45.24 334.502 45.24H330.222C327.962 45.24 325.942 44.36 325.942 41.64C325.942 38.94 327.962 38.06 330.222 38.06H334.502ZM334.242 40.04H330.442C329.362 40.04 328.622 40.48 328.622 41.64C328.622 42.82 329.362 43.26 330.442 43.26H334.242C335.242 43.26 335.982 42.82 335.982 41.64C335.982 40.48 335.242 40.04 334.242 40.04ZM354.085 37.76V35.1H350.985V34.46C350.205 35.94 348.465 36.72 346.565 36.72C343.985 36.72 341.705 35.28 341.705 32.6V31.42C341.705 28.74 343.985 27.3 346.565 27.3C348.465 27.3 350.205 28.08 350.985 29.58V28.52H354.085V27.1L356.785 26.7V37.36L354.085 37.76ZM352.705 38.06C354.885 38.06 356.865 38.94 356.865 41.64C356.865 44.36 354.885 45.24 352.705 45.24H348.425C346.165 45.24 344.145 44.36 344.145 41.64C344.145 38.94 346.165 38.06 348.425 38.06H352.705ZM352.445 40.04H348.645C347.565 40.04 346.825 40.48 346.825 41.64C346.825 42.82 347.565 43.26 348.645 43.26H352.445C353.445 43.26 354.185 42.82 354.185 41.64C354.185 40.48 353.445 40.04 352.445 40.04ZM348.725 32.52V31.5C348.725 30.1 347.785 29.3 346.565 29.3C345.345 29.3 344.405 30.1 344.405 31.5V32.52C344.405 33.92 345.345 34.72 346.565 34.72C347.785 34.72 348.725 33.92 348.725 32.52ZM351.425 32.6C351.425 32.78 351.405 32.94 351.385 33.1H354.085V30.5H351.325C351.385 30.8 351.425 31.1 351.425 31.42V32.6ZM369.329 26.24V28.42H374.509L374.109 30.42H369.329V30.72C369.329 31.2 369.369 31.66 369.689 31.84C371.249 32.74 373.569 33.88 375.469 34.74L374.189 36.5C372.269 35.68 369.589 34.4 368.009 33.54C366.429 34.44 363.949 35.66 361.789 36.62L360.489 34.88C362.609 33.92 364.589 32.94 366.129 31.96C366.449 31.76 366.569 31.28 366.569 30.8V30.42H361.649V28.42H366.569V26.64L369.329 26.24ZM376.269 39.5H369.529V44.76L366.729 45.16V39.5H359.329V37.5H376.669L376.269 39.5ZM388.192 29.7H384.972V31.88C384.972 32.3 385.052 32.76 385.332 33.06C386.572 34.44 387.832 35.62 389.232 36.8L387.632 38.34C386.212 37.2 384.872 36.02 383.612 34.72C382.352 36.1 380.852 37.54 379.392 38.78L377.712 37.32C379.112 36.06 380.552 34.82 381.772 33.22C382.032 32.88 382.212 32.42 382.212 32V29.7H378.612V27.72H388.592L388.192 29.7ZM393.212 26.7V39.44L390.492 39.84V27.1L393.212 26.7ZM393.332 44.92H381.592V39.14H384.372V42.92H393.732L393.332 44.92ZM411.395 26.7V44.8L408.695 45.2V27.1L411.395 26.7ZM403.175 38.68V44.22L400.455 44.62V38.76H396.315V36.76H399.915C402.335 36.76 405.515 36.62 407.955 36.18V38.22C406.455 38.46 404.775 38.6 403.175 38.68ZM406.775 31.04V31.66C406.775 34.22 404.535 35.6 402.055 35.6C399.575 35.6 397.335 34.22 397.335 31.66V31.04C397.335 28.48 399.575 27.1 402.055 27.1C404.535 27.1 406.775 28.48 406.775 31.04ZM404.075 31.54V31.16C404.075 29.84 403.175 29.1 402.055 29.1C400.935 29.1 400.035 29.84 400.035 31.16V31.54C400.035 32.86 400.935 33.6 402.055 33.6C403.175 33.6 404.075 32.86 404.075 31.54ZM424.618 30.86C424.618 33.18 422.538 34.48 420.178 34.48C417.818 34.48 415.738 33.18 415.738 30.86V30.42C415.738 28.1 417.818 26.8 420.178 26.8C422.538 26.8 424.618 28.1 424.618 30.42V30.86ZM426.898 40.52V39.34H422.798V37.44H426.898V27.1L429.598 26.7V40.12L426.898 40.52ZM429.718 44.92H417.838V40.4H420.598V42.92H430.118L429.718 44.92ZM421.258 36.98V39.92H418.518V37.1H414.518V35.18H418.738C420.698 35.18 423.578 35 426.158 34.48V36.44C424.638 36.72 422.978 36.88 421.258 36.98ZM421.998 30.84V30.44C421.998 29.34 421.178 28.72 420.178 28.72C419.178 28.72 418.358 29.34 418.358 30.44V30.84C418.358 31.94 419.178 32.56 420.178 32.56C421.178 32.56 421.998 31.94 421.998 30.84ZM433.861 33.98C433.861 32.12 435.641 30.62 438.421 30.62C441.201 30.62 442.981 32.12 442.981 33.98V34.62C442.981 36.1 441.841 37.36 439.981 37.82V39.82C441.441 39.74 443.061 39.6 444.361 39.38V41.36C441.501 41.76 438.441 41.88 435.361 41.88H432.721V39.88H437.161V37.88C435.101 37.5 433.861 36.18 433.861 34.62V33.98ZM445.101 27.1L447.801 26.7V44.6L445.101 45V27.1ZM443.541 30.22H433.001V28.22H437.041V26.9L439.801 26.5V28.22H443.941L443.541 30.22ZM440.381 34.16C440.381 33.18 439.581 32.52 438.421 32.52C437.261 32.52 436.461 33.18 436.461 34.16V34.44C436.461 35.42 437.261 36.08 438.421 36.08C439.581 36.08 440.381 35.42 440.381 34.44V34.16Z" fill="white"/>
<path d="M959.395 26.7V44.6L956.695 45V27.1L959.395 26.7ZM951.315 36.34V31.64C951.315 30.2 950.815 29.36 949.415 29.36C948.015 29.36 947.515 30.2 947.515 31.64V36.34C947.515 37.78 948.015 38.64 949.415 38.64C950.815 38.64 951.315 37.78 951.315 36.34ZM954.035 31.58V36.42C954.035 39.1 952.195 40.66 949.415 40.66C946.635 40.66 944.795 39.1 944.795 36.42V31.58C944.795 28.9 946.635 27.34 949.415 27.34C952.195 27.34 954.035 28.9 954.035 31.58ZM977.038 26.7V33.54H979.918L979.518 35.78H977.038V44.6L974.298 45V27.1L977.038 26.7ZM968.898 27.62V32.88C968.898 33.3 969.018 33.74 969.258 34.06C970.298 35.46 971.878 37.38 973.238 38.9L971.638 40.44C970.238 38.96 968.538 37.08 967.518 35.72C966.338 37.22 964.618 39.34 963.198 40.88L961.518 39.42C962.878 37.84 964.478 35.92 965.658 34.22C965.898 33.88 966.098 33.42 966.098 33V28.02L968.898 27.62ZM981.842 33.98C981.842 32.12 983.622 30.62 986.402 30.62C989.182 30.62 990.962 32.12 990.962 33.98V34.62C990.962 36.1 989.822 37.36 987.962 37.82V39.82C989.422 39.74 991.042 39.6 992.342 39.38V41.36C989.482 41.76 986.422 41.88 983.342 41.88H980.702V39.88H985.142V37.88C983.082 37.5 981.842 36.18 981.842 34.62V33.98ZM993.082 27.1L995.782 26.7V44.6L993.082 45V27.1ZM991.522 30.22H980.982V28.22H985.022V26.9L987.782 26.5V28.22H991.922L991.522 30.22ZM988.362 34.16C988.362 33.18 987.562 32.52 986.402 32.52C985.242 32.52 984.442 33.18 984.442 34.16V34.44C984.442 35.42 985.242 36.08 986.402 36.08C987.562 36.08 988.362 35.42 988.362 34.44V34.16Z" fill="white"/>
<path d="M645.194 26.98V33.06H646.994V27.1L649.514 26.7V44.6L646.994 45V35.08H645.194V44.02L642.714 44.42V27.38L645.194 26.98ZM640.934 29.98H637.354V38.1H638.374C639.534 38.1 640.834 38.02 641.974 37.76V39.7C640.814 39.94 639.414 40.04 637.954 40.04H634.794V28H640.934V29.98ZM669.157 40.58L668.757 42.62H651.817V40.58H656.097V37.28H658.837V40.58H662.097V37.28H664.837V40.58H669.157ZM655.957 30.14H658.677L658.777 34.52H662.197L662.337 30.14H665.077L664.897 34.52H667.797L667.397 36.5H653.537V34.52H656.037L655.957 30.14ZM666.757 29.44H654.177V27.44H666.757V29.44ZM685.7 26.7V44.6L683 45V27.1L685.7 26.7ZM677.62 36.34V31.64C677.62 30.2 677.12 29.36 675.72 29.36C674.32 29.36 673.82 30.2 673.82 31.64V36.34C673.82 37.78 674.32 38.64 675.72 38.64C677.12 38.64 677.62 37.78 677.62 36.34ZM680.34 31.58V36.42C680.34 39.1 678.5 40.66 675.72 40.66C672.94 40.66 671.1 39.1 671.1 36.42V31.58C671.1 28.9 672.94 27.34 675.72 27.34C678.5 27.34 680.34 28.9 680.34 31.58ZM703.343 26.7V33.54H706.223L705.823 35.78H703.343V44.6L700.603 45V27.1L703.343 26.7ZM695.203 27.62V32.88C695.203 33.3 695.323 33.74 695.563 34.06C696.603 35.46 698.183 37.38 699.543 38.9L697.943 40.44C696.543 38.96 694.843 37.08 693.823 35.72C692.643 37.22 690.923 39.34 689.503 40.88L687.823 39.42C689.183 37.84 690.783 35.92 691.963 34.22C692.203 33.88 692.403 33.42 692.403 33V28.02L695.203 27.62Z" fill="white"/>
<path d="M615.689 166L615.289 167.98H612.089V171.26C612.089 171.68 612.189 172.12 612.449 172.44C613.549 173.8 614.949 175.4 616.309 176.92L614.709 178.46C613.309 176.98 611.829 175.4 610.709 174.1C609.489 175.56 607.949 177.32 606.509 178.88L604.829 177.42C606.209 175.82 607.629 174.26 608.849 172.6C609.089 172.26 609.289 171.8 609.289 171.38V167.98H605.729V166H615.689ZM619.929 164.7V171.58H622.809L622.409 173.82H619.929V182.6L617.189 183V165.1L619.929 164.7ZM639.952 174.48H636.312V175.66H637.692V180.24H628.392V181.26H638.312L637.912 183.08H625.612V178.48H634.932V177.46H625.572V175.66H627.112V174.48H623.012V172.52H640.352L639.952 174.48ZM633.692 164.88C635.992 164.88 638.052 165.66 638.052 168.14C638.052 170.62 635.992 171.4 633.692 171.4H629.592C627.292 171.4 625.232 170.62 625.232 168.14C625.232 165.66 627.292 164.88 629.592 164.88H633.692ZM633.692 166.8H629.612C628.692 166.8 627.912 167.18 627.912 168.14C627.912 169.1 628.692 169.48 629.612 169.48H633.692C634.592 169.48 635.372 169.1 635.372 168.14C635.372 167.18 634.592 166.8 633.692 166.8ZM629.912 174.48V175.66H633.492V174.48H629.912ZM655.995 167.4H651.315C651.315 167.82 651.335 168.24 651.675 168.46C653.275 169.52 655.255 170.6 657.195 171.5L656.075 173.28C654.115 172.38 651.475 171.14 649.895 170.12C648.415 171.1 645.775 172.46 643.655 173.44L642.515 171.68C644.575 170.7 646.555 169.6 648.015 168.6C648.375 168.34 648.455 167.92 648.455 167.4H643.535V165.4H656.395L655.995 167.4ZM658.155 176.1H651.835V179.36H649.035V176.1H641.215V174.1H658.555L658.155 176.1ZM656.035 182.92H643.815V177.7H646.595V180.92H656.435L656.035 182.92ZM676.758 175.04L676.358 177.02H669.618V182.76L666.818 183.16V177.02H659.418V175.04H676.758ZM669.518 165.16V167.12C669.518 167.54 669.558 168.06 669.878 168.3C671.338 169.4 673.878 171.06 675.658 172.14L674.178 173.82C672.378 172.76 669.578 171.1 668.158 170C666.678 171.08 663.958 172.84 661.978 173.94L660.478 172.28C662.398 171.14 664.758 169.58 666.218 168.42C666.538 168.16 666.658 167.62 666.658 167.2V165.56L669.518 165.16ZM692.802 164.7V170.64H695.562L695.162 172.66H692.802V177.68L690.042 178.08V165.1L692.802 164.7ZM677.922 174.18H681.002V169.78H683.662V174.18C685.422 174.12 687.642 173.96 689.342 173.68V175.66C686.502 176.06 683.422 176.18 680.342 176.18H677.922V174.18ZM692.902 182.92H681.022V177.3H683.782V180.92H693.302L692.902 182.92ZM685.682 167.44H678.762V165.44H688.542C688.462 167.52 688.162 171.14 687.682 172.82H685.002C685.442 171.34 685.682 168.72 685.682 167.44ZM703.325 171.02V167.86H697.225V165.88H706.065V172.98H700.005V176.18H701.445C703.265 176.18 706.045 176.1 707.965 175.7V177.68C705.925 178.02 703.085 178.16 701.205 178.16H697.225V171.02H703.325ZM711.485 164.7V182.6L708.765 183V165.1L711.485 164.7ZM724.908 166L724.508 167.98H721.308V171.26C721.308 171.68 721.408 172.12 721.668 172.44C722.768 173.8 724.168 175.4 725.528 176.92L723.928 178.46C722.528 176.98 721.048 175.4 719.928 174.1C718.708 175.56 717.168 177.32 715.728 178.88L714.048 177.42C715.428 175.82 716.848 174.26 718.068 172.6C718.308 172.26 718.508 171.8 718.508 171.38V167.98H714.948V166H724.908ZM729.148 164.7V171.58H732.028L731.628 173.82H729.148V182.6L726.408 183V165.1L729.148 164.7Z" fill="white"/>
<path d="M582.686 517.12H578.526C574.286 517.12 572.206 515.2 572.206 511.14V507.5C572.206 503.56 574.546 501.52 578.466 501.52H582.486V503.86H578.846C576.226 503.86 575.026 505.12 575.026 507.92V510.7C575.026 513.14 575.806 514.8 578.826 514.8H583.086L582.686 517.12ZM596.416 506.08C596.416 509.54 594.336 510.82 591.216 510.82H588.576V516.84L585.736 517.24V501.52H590.776C593.996 501.52 596.416 502.56 596.416 506.08ZM593.516 506.2C593.516 504.42 592.516 503.8 591.016 503.8H588.576V508.56H591.056C592.536 508.56 593.516 508.02 593.516 506.2ZM602.993 509.16H614.373C614.693 507.52 614.993 505.16 615.073 503.56H605.113V501.56H617.973C617.893 503.7 617.713 506.6 617.153 509.16H620.333L619.933 511.16H616.413V518.6L613.673 519V511.16H609.933V518.52L607.193 518.92V511.16H602.993V509.16ZM632.776 512.06C634.956 512.06 636.936 512.94 636.936 515.64C636.936 518.36 634.956 519.24 632.776 519.24H628.496C626.236 519.24 624.216 518.36 624.216 515.64C624.216 512.94 626.236 512.06 628.496 512.06H632.776ZM632.256 501.56L631.856 503.56H628.636V504.88C628.636 505.3 628.716 505.76 628.996 506.06C630.236 507.44 631.496 508.62 632.896 509.8L631.296 511.34C629.876 510.2 628.536 509.02 627.276 507.72C626.016 509.1 624.516 510.54 623.056 511.78L621.376 510.32C622.776 509.06 624.216 507.82 625.436 506.22C625.696 505.88 625.876 505.42 625.876 505V503.56H622.296V501.56H632.256ZM634.156 511.82V506.9H630.736V504.92H634.156V501.1L636.876 500.7V511.42L634.156 511.82ZM632.516 514.04H628.716C627.636 514.04 626.896 514.48 626.896 515.64C626.896 516.82 627.636 517.26 628.716 517.26H632.516C633.516 517.26 634.256 516.82 634.256 515.64C634.256 514.48 633.516 514.04 632.516 514.04ZM655.059 500.7V518.6L652.359 519V501.1L655.059 500.7ZM642.979 515.14H639.979V513.14H643.579C645.999 513.14 649.179 512.98 651.619 512.56V514.58C649.039 515.02 645.999 515.14 642.979 515.14ZM650.299 505.94V506.76C650.299 509.5 648.019 510.96 645.439 510.96C642.859 510.96 640.579 509.5 640.579 506.76V505.94C640.579 503.2 642.859 501.74 645.439 501.74C648.019 501.74 650.299 503.2 650.299 505.94ZM647.599 506.76V505.94C647.599 504.54 646.659 503.74 645.439 503.74C644.219 503.74 643.279 504.54 643.279 505.94V506.76C643.279 508.16 644.219 508.96 645.439 508.96C646.659 508.96 647.599 508.16 647.599 506.76ZM666.408 508.54C666.548 508.22 666.568 507.64 666.568 507.22V503.98H664.028V502.04H671.708L671.408 503.98H669.128V507.16C669.128 507.58 669.108 508.08 669.268 508.44C669.788 509.6 671.388 511.98 672.468 513.28L670.768 514.82C669.928 513.78 668.748 512.18 667.928 510.96C667.028 512.32 665.888 513.92 664.788 515.24L663.108 513.78C664.488 512.12 665.788 509.88 666.408 508.54ZM672.868 501.38L675.348 500.98V518.02L672.868 518.42V508.4H670.448V506.36H672.868V501.38ZM676.508 501.1L679.048 500.7V518.6L676.508 519V501.1ZM692.991 512.06C695.171 512.06 697.151 512.94 697.151 515.64C697.151 518.36 695.171 519.24 692.991 519.24H688.711C686.451 519.24 684.431 518.36 684.431 515.64C684.431 512.94 686.451 512.06 688.711 512.06H692.991ZM692.471 501.56L692.071 503.56H688.851V504.88C688.851 505.3 688.931 505.76 689.211 506.06C690.451 507.44 691.711 508.62 693.111 509.8L691.511 511.34C690.091 510.2 688.751 509.02 687.491 507.72C686.231 509.1 684.731 510.54 683.271 511.78L681.591 510.32C682.991 509.06 684.431 507.82 685.651 506.22C685.911 505.88 686.091 505.42 686.091 505V503.56H682.511V501.56H692.471ZM694.371 511.82V506.9H690.951V504.92H694.371V501.1L697.091 500.7V511.42L694.371 511.82ZM692.731 514.04H688.931C687.851 514.04 687.111 514.48 687.111 515.64C687.111 516.82 687.851 517.26 688.931 517.26H692.731C693.731 517.26 694.471 516.82 694.471 515.64C694.471 514.48 693.731 514.04 692.731 514.04ZM706.439 501.36H715.199V509.24L712.499 509.64H706.439V501.36ZM720.919 514.3L716.179 514.32C716.179 514.68 716.219 515.06 716.539 515.22C718.219 516.2 719.859 517 721.879 517.9L720.599 519.58C718.579 518.74 716.519 517.76 714.839 516.86C713.299 517.72 711.099 518.84 709.079 519.72L707.759 518.06C709.919 517.14 711.479 516.26 712.979 515.36C713.299 515.18 713.399 514.72 713.419 514.32H708.439V512.42H713.419V510.76L716.179 510.36V512.42H721.319L720.919 514.3ZM720.859 500.7V510.8L718.159 511.2V501.1L720.859 500.7ZM712.499 503.36H709.139V507.7H712.499V503.36ZM741.008 500.98V507.32H742.408V501.1L744.948 500.7V518.6L742.408 519V509.34H741.008V518.02L738.528 518.42V501.38L741.008 500.98ZM734.768 503.98H730.268V502H737.408V503.42C737.408 508.62 735.068 512.78 731.068 515.12L729.528 513.4C732.968 511.46 734.768 507.8 734.768 504.32V503.98ZM758.811 512.06C760.991 512.06 762.971 512.94 762.971 515.64C762.971 518.36 760.991 519.24 758.811 519.24H754.531C752.271 519.24 750.251 518.36 750.251 515.64C750.251 512.94 752.271 512.06 754.531 512.06H758.811ZM758.291 501.56L757.891 503.56H754.671V504.88C754.671 505.3 754.751 505.76 755.031 506.06C756.271 507.44 757.531 508.62 758.931 509.8L757.331 511.34C755.911 510.2 754.571 509.02 753.311 507.72C752.051 509.1 750.551 510.54 749.091 511.78L747.411 510.32C748.811 509.06 750.251 507.82 751.471 506.22C751.731 505.88 751.911 505.42 751.911 505V503.56H748.331V501.56H758.291ZM760.191 511.82V506.9H756.771V504.92H760.191V501.1L762.911 500.7V511.42L760.191 511.82ZM758.551 514.04H754.751C753.671 514.04 752.931 514.48 752.931 515.64C752.931 516.82 753.671 517.26 754.751 517.26H758.551C759.551 517.26 760.291 516.82 760.291 515.64C760.291 514.48 759.551 514.04 758.551 514.04Z" fill="white"/>
<path d="M570.617 572.6V574.78H574.237L573.937 576.78H570.617V577.48C570.617 577.9 570.677 578.36 570.977 578.66C572.017 579.72 573.277 580.86 574.697 582.02L573.097 583.56C571.637 582.46 570.337 581.42 569.217 580.32C568.157 581.48 566.697 582.82 565.157 584.02L563.477 582.56C564.957 581.34 566.337 580 567.337 578.82C567.617 578.48 567.777 578.02 567.777 577.6V576.78H564.057V574.78H567.777V573L570.617 572.6ZM575.757 573.1L578.477 572.7V590.6L575.757 591V573.1ZM566.017 587.68H563.377V585.7H567.797V582.8H570.597V585.64C572.077 585.56 573.717 585.42 575.017 585.18V587.18C572.157 587.56 569.097 587.68 566.017 587.68ZM598.34 586.38L597.94 588.42H581V586.38H586.46V580.36H589.26V586.38H598.34ZM593.12 575.74H583.12V573.76H595.94C595.9 576.92 595.46 581.56 594.74 584.68H591.96C592.6 581.84 593.04 578.2 593.12 575.74ZM612.164 583.94V581.52H608.564V579.52H612.164V577.62H609.084C607.704 580.6 604.224 583.06 600.964 584.04L599.664 582.3C603.644 581.2 606.824 577.98 606.824 575.88V575.6H600.704V573.6H609.704V574.98C609.704 575.2 609.684 575.42 609.664 575.62H612.164V573.1L614.884 572.7V583.54L612.164 583.94ZM610.784 584.06C612.964 584.06 614.944 584.94 614.944 587.64C614.944 590.36 612.964 591.24 610.784 591.24H606.504C604.244 591.24 602.224 590.36 602.224 587.64C602.224 584.94 604.244 584.06 606.504 584.06H610.784ZM610.524 586.04H606.724C605.644 586.04 604.904 586.48 604.904 587.64C604.904 588.82 605.644 589.26 606.724 589.26H610.524C611.524 589.26 612.264 588.82 612.264 587.64C612.264 586.48 611.524 586.04 610.524 586.04ZM630.367 583.76V581.1H627.267V580.46C626.487 581.94 624.747 582.72 622.847 582.72C620.267 582.72 617.987 581.28 617.987 578.6V577.42C617.987 574.74 620.267 573.3 622.847 573.3C624.747 573.3 626.487 574.08 627.267 575.58V574.52H630.367V573.1L633.067 572.7V583.36L630.367 583.76ZM628.987 584.06C631.167 584.06 633.147 584.94 633.147 587.64C633.147 590.36 631.167 591.24 628.987 591.24H624.707C622.447 591.24 620.427 590.36 620.427 587.64C620.427 584.94 622.447 584.06 624.707 584.06H628.987ZM628.727 586.04H624.927C623.847 586.04 623.107 586.48 623.107 587.64C623.107 588.82 623.847 589.26 624.927 589.26H628.727C629.727 589.26 630.467 588.82 630.467 587.64C630.467 586.48 629.727 586.04 628.727 586.04ZM625.007 578.52V577.5C625.007 576.1 624.067 575.3 622.847 575.3C621.627 575.3 620.687 576.1 620.687 577.5V578.52C620.687 579.92 621.627 580.72 622.847 580.72C624.067 580.72 625.007 579.92 625.007 578.52ZM627.707 578.6C627.707 578.78 627.687 578.94 627.667 579.1H630.367V576.5H627.607C627.667 576.8 627.707 577.1 627.707 577.42V578.6ZM646.27 575.7H643.05V577.88C643.05 578.3 643.13 578.76 643.41 579.06C644.65 580.44 645.91 581.62 647.31 582.8L645.71 584.34C644.29 583.2 642.95 582.02 641.69 580.72C640.43 582.1 638.93 583.54 637.47 584.78L635.79 583.32C637.19 582.06 638.63 580.82 639.85 579.22C640.11 578.88 640.29 578.42 640.29 578V575.7H636.69V573.72H646.67L646.27 575.7ZM651.29 572.7V585.44L648.57 585.84V573.1L651.29 572.7ZM651.41 590.92H639.67V585.14H642.45V588.92H651.81L651.41 590.92ZM670.298 574L669.898 575.98H666.698V579.26C666.698 579.68 666.798 580.12 667.058 580.44C668.158 581.8 669.558 583.4 670.918 584.92L669.318 586.46C667.918 584.98 666.438 583.4 665.318 582.1C664.098 583.56 662.558 585.32 661.118 586.88L659.438 585.42C660.818 583.82 662.238 582.26 663.458 580.6C663.698 580.26 663.898 579.8 663.898 579.38V575.98H660.338V574H670.298ZM674.538 572.7V579.58H677.418L677.018 581.82H674.538V590.6L671.798 591V573.1L674.538 572.7ZM694.562 582.48H690.922V583.66H692.302V588.24H683.002V589.26H692.922L692.522 591.08H680.222V586.48H689.542V585.46H680.182V583.66H681.722V582.48H677.622V580.52H694.962L694.562 582.48ZM688.302 572.88C690.602 572.88 692.662 573.66 692.662 576.14C692.662 578.62 690.602 579.4 688.302 579.4H684.202C681.902 579.4 679.842 578.62 679.842 576.14C679.842 573.66 681.902 572.88 684.202 572.88H688.302ZM688.302 574.8H684.222C683.302 574.8 682.522 575.18 682.522 576.14C682.522 577.1 683.302 577.48 684.222 577.48H688.302C689.202 577.48 689.982 577.1 689.982 576.14C689.982 575.18 689.202 574.8 688.302 574.8ZM684.522 582.48V583.66H688.102V582.48H684.522ZM710.605 575.4H705.925C705.925 575.82 705.945 576.24 706.285 576.46C707.885 577.52 709.865 578.6 711.805 579.5L710.685 581.28C708.725 580.38 706.085 579.14 704.505 578.12C703.025 579.1 700.385 580.46 698.265 581.44L697.125 579.68C699.185 578.7 701.165 577.6 702.625 576.6C702.985 576.34 703.065 575.92 703.065 575.4H698.145V573.4H711.005L710.605 575.4ZM712.765 584.1H706.445V587.36H703.645V584.1H695.825V582.1H713.165L712.765 584.1ZM710.645 590.92H698.425V585.7H701.205V588.92H711.045L710.645 590.92ZM731.368 583.04L730.968 585.02H724.228V590.76L721.428 591.16V585.02H714.028V583.04H731.368ZM724.128 573.16V575.12C724.128 575.54 724.168 576.06 724.488 576.3C725.948 577.4 728.488 579.06 730.268 580.14L728.788 581.82C726.988 580.76 724.188 579.1 722.768 578C721.288 579.08 718.568 580.84 716.588 581.94L715.088 580.28C717.008 579.14 719.368 577.58 720.828 576.42C721.148 576.16 721.268 575.62 721.268 575.2V573.56L724.128 573.16ZM753.496 572.7V590.6L750.796 591V573.1L753.496 572.7ZM741.416 587.14H738.416V585.14H742.016C744.436 585.14 747.616 584.98 750.056 584.56V586.58C747.476 587.02 744.436 587.14 741.416 587.14ZM748.736 577.94V578.76C748.736 581.5 746.456 582.96 743.876 582.96C741.296 582.96 739.016 581.5 739.016 578.76V577.94C739.016 575.2 741.296 573.74 743.876 573.74C746.456 573.74 748.736 575.2 748.736 577.94ZM746.036 578.76V577.94C746.036 576.54 745.096 575.74 743.876 575.74C742.656 575.74 741.716 576.54 741.716 577.94V578.76C741.716 580.16 742.656 580.96 743.876 580.96C745.096 580.96 746.036 580.16 746.036 578.76ZM767.1 574L766.7 575.98H763.48V579.26C763.48 579.68 763.58 580.12 763.84 580.44C764.94 581.8 766.36 583.4 767.72 584.92L766.12 586.46C764.72 584.98 763.24 583.4 762.12 582.1C760.9 583.56 759.36 585.32 757.92 586.88L756.24 585.42C757.62 583.82 759.06 582.26 760.28 580.6C760.52 580.26 760.72 579.8 760.72 579.38V575.98H757.14V574H767.1ZM771.7 572.7V590.6L768.98 591V573.1L771.7 572.7Z" fill="white"/>
<rect x="226" y="214" width="437" height="64" rx="16" fill="#FF8D24"/>
<path d="M414.792 239.4H410.112C410.112 239.82 410.132 240.24 410.472 240.46C412.072 241.52 414.052 242.6 415.992 243.5L414.872 245.28C412.912 244.38 410.272 243.14 408.692 242.12C407.212 243.1 404.572 244.46 402.452 245.44L401.312 243.68C403.372 242.7 405.352 241.6 406.812 240.6C407.172 240.34 407.252 239.92 407.252 239.4H402.332V237.4H415.192L414.792 239.4ZM416.952 248.1H410.632V251.36H407.832V248.1H400.012V246.1H417.352L416.952 248.1ZM414.832 254.92H402.612V249.7H405.392V252.92H415.232L414.832 254.92ZM431.155 247.04V242.48H428.455V245.78L425.755 246.18H419.455V237.22H422.155V239.82H425.755V237.22H428.455V240.54H431.155V237.1L433.875 236.7V246.64L431.155 247.04ZM433.875 247.74V254.5L431.115 255H422.075V247.74H424.815V249.56H431.115V247.74H433.875ZM424.815 253.04H431.115V251.5H424.815V253.04ZM422.155 244.2H425.755V241.82H422.155V244.2ZM447.478 238L447.078 239.98H443.858V243.26C443.858 243.68 443.958 244.12 444.218 244.44C445.318 245.8 446.738 247.4 448.098 248.92L446.498 250.46C445.098 248.98 443.618 247.4 442.498 246.1C441.278 247.56 439.738 249.32 438.298 250.88L436.618 249.42C437.998 247.82 439.438 246.26 440.658 244.6C440.898 244.26 441.098 243.8 441.098 243.38V239.98H437.518V238H447.478ZM452.078 236.7V254.6L449.358 255V237.1L452.078 236.7ZM465.302 240.86C465.302 243.18 463.222 244.48 460.862 244.48C458.502 244.48 456.422 243.18 456.422 240.86V240.42C456.422 238.1 458.502 236.8 460.862 236.8C463.222 236.8 465.302 238.1 465.302 240.42V240.86ZM467.582 250.52V249.34H463.482V247.44H467.582V237.1L470.282 236.7V250.12L467.582 250.52ZM470.402 254.92H458.522V250.4H461.282V252.92H470.802L470.402 254.92ZM461.942 246.98V249.92H459.202V247.1H455.202V245.18H459.422C461.382 245.18 464.262 245 466.842 244.48V246.44C465.322 246.72 463.662 246.88 461.942 246.98ZM462.682 240.84V240.44C462.682 239.34 461.862 238.72 460.862 238.72C459.862 238.72 459.042 239.34 459.042 240.44V240.84C459.042 241.94 459.862 242.56 460.862 242.56C461.862 242.56 462.682 241.94 462.682 240.84ZM484.945 244.28V246.26C483.385 246.62 481.165 246.72 479.165 246.72H474.225V237.48H483.345V239.48H477.005V241.08H483.185V243.06H477.005V244.74H479.405C481.025 244.74 483.105 244.66 484.945 244.28ZM488.485 236.7V247.34L485.765 247.74V237.1L488.485 236.7ZM488.485 248.44V254.5L485.725 255H476.665V248.44H488.485ZM479.425 253H485.725V250.44H479.425V253Z" fill="white"/>
<rect x="673" y="214" width="437" height="64" rx="16" fill="#FF8D24"/>
<path d="M841.723 247.98V254.5L838.943 255H829.923V247.98H841.723ZM833.843 239.52H827.703V237.54H836.663V238.58C836.663 243.08 832.583 246.6 828.083 247.66L827.003 245.84C830.283 244.92 833.843 242.14 833.843 239.68V239.52ZM841.723 236.7V241.34H844.603L844.203 243.34H841.723V246.88L838.983 247.28V237.1L841.723 236.7ZM832.663 253H838.943V249.96H832.663V253ZM859.867 236.7V243.54H862.747L862.347 245.78H859.867V254.6L857.127 255V237.1L859.867 236.7ZM851.727 237.62V242.88C851.727 243.3 851.847 243.74 852.087 244.06C853.127 245.46 854.707 247.38 856.067 248.9L854.467 250.44C853.067 248.96 851.367 247.08 850.347 245.72C849.167 247.22 847.447 249.34 846.027 250.88L844.347 249.42C845.707 247.84 847.307 245.92 848.487 244.22C848.727 243.88 848.927 243.42 848.927 243V238.02L851.727 237.62ZM864.27 250.36H867.13L865.39 255.46H862.95L864.27 250.36ZM889.977 236.7V249.44L887.277 249.84V237.1L889.977 236.7ZM890.097 254.92H878.377V249.14H881.157V252.92H890.497L890.097 254.92ZM884.717 242.78C884.717 245.46 882.477 246.9 879.957 246.9C877.437 246.9 875.197 245.46 875.197 242.78V241.62C875.197 238.94 877.437 237.5 879.957 237.5C882.477 237.5 884.717 238.94 884.717 241.62V242.78ZM882.017 242.7V241.7C882.017 240.3 881.157 239.5 879.957 239.5C878.757 239.5 877.897 240.3 877.897 241.7V242.7C877.897 244.1 878.757 244.9 879.957 244.9C881.157 244.9 882.017 244.1 882.017 242.7ZM907.64 236.7V243.54H910.52L910.12 245.78H907.64V254.6L904.9 255V237.1L907.64 236.7ZM899.5 237.62V242.88C899.5 243.3 899.62 243.74 899.86 244.06C900.9 245.46 902.48 247.38 903.84 248.9L902.24 250.44C900.84 248.96 899.14 247.08 898.12 245.72C896.94 247.22 895.22 249.34 893.8 250.88L892.12 249.42C893.48 247.84 895.08 245.92 896.26 244.22C896.5 243.88 896.7 243.42 896.7 243V238.02L899.5 237.62ZM912.043 250.36H914.903L913.163 255.46H910.723L912.043 250.36ZM939.43 250.58L939.03 252.62H922.09V250.58H925.65V244.44H928.39V250.58H929.83V244.44H932.57V250.58H939.43ZM934.21 239.74H924.21V237.76H937.03C936.99 240.92 936.65 245.56 936.07 248.68H933.29C933.79 245.84 934.23 242.2 934.21 239.74ZM957.233 247.46H953.593V249.14H954.973V254.96L952.213 255.36V251.14H942.733V249.14H944.393V247.46H940.293V245.5H957.633L957.233 247.46ZM951.153 237.1C953.333 237.1 955.393 238 955.393 240.68C955.393 243.38 953.333 244.28 951.153 244.28H946.753C944.493 244.28 942.513 243.38 942.513 240.68C942.513 238 944.493 237.1 946.753 237.1H951.153ZM950.893 239.08H947.013C945.933 239.08 945.193 239.52 945.193 240.68C945.193 241.84 945.933 242.3 947.013 242.3H950.893C951.893 242.3 952.713 241.84 952.713 240.68C952.713 239.52 951.893 239.08 950.893 239.08ZM947.193 247.46V249.14H950.773V247.46H947.193Z" fill="white"/>
<rect x="829.5" y="286.5" width="280" height="63" rx="15.5" fill="#F5F5F5" stroke="#E1E6EF"/>
<rect x="829.5" y="358.5" width="280" height="103" rx="15.5" fill="white" stroke="#E1E6EF"/>
<path d="M942.623 312.135C942.614 314.077 943.748 315.94 946.279 316.723L945.084 318.463C943.388 317.9 942.201 316.811 941.516 315.413C940.821 317.021 939.582 318.287 937.754 318.902L936.541 317.145C939.213 316.257 940.355 314.13 940.373 311.924V310.465H942.623V312.135ZM938.756 322.523C938.747 320.581 940.865 319.43 944.24 319.43C947.554 319.43 949.628 320.581 949.637 322.523C949.628 324.483 947.554 325.626 944.24 325.617C940.865 325.626 938.747 324.483 938.756 322.523ZM941.006 322.523C940.988 323.429 942.14 323.859 944.24 323.859C946.314 323.859 947.422 323.429 947.422 322.523C947.422 321.653 946.314 321.188 944.24 321.188C942.14 321.188 940.988 321.653 941.006 322.523ZM947.229 319.113V309.621H949.479V313.365H951.641V315.229H949.479V319.113H947.229ZM965.826 309.621V317.795H963.594V314.666H960.641V317.355H953.029V310.307H955.279V312.135H958.426V310.307H960.641V312.855H963.594V309.621H965.826ZM955.174 320.15V318.393H965.826V322.699H957.441V323.684H966.301V325.441H955.191V321.082H963.594V320.15H955.174ZM955.279 315.598H958.426V313.875H955.279V315.598ZM985.883 309.621V325.617H983.756V309.621H985.883ZM971.715 320.941C974.07 319.491 974.949 316.626 974.949 313.91V313.049H972.33V311.256H979.537V313.049H977.111V313.91C977.103 316.564 977.938 319.254 980.275 320.59L978.957 322.242C977.524 321.398 976.593 319.975 976.048 318.252C975.503 320.115 974.536 321.697 973.068 322.594L971.715 320.941ZM978.395 316.916V315.105H980.504V309.885H982.613V324.879H980.504V316.916H978.395ZM1000.65 316.775V318.551H996.008V321.961H1002.25V323.789H987.605V321.961H993.775V318.551H989.328V310.746H1000.53V312.539H991.578V316.775H1000.65Z" fill="#282828"/>
<rect x="226.5" y="286.5" width="280" height="63" rx="15.5" fill="#F5F5F5" stroke="#E1E6EF"/>
<rect x="226.5" y="358.5" width="280" height="103" rx="15.5" fill="white" stroke="#E1E6EF"/>
<path d="M277.977 399.422C276.898 399.43 276.031 398.562 276.039 397.484C276.031 396.422 276.898 395.555 277.977 395.562C279.039 395.555 279.906 396.422 279.898 397.484C279.906 398.562 279.039 399.43 277.977 399.422ZM303.375 400.25V401.672H290.469V400.25H296.031V397.172H291.891V390.359H301.891V397.172H297.75V400.25H303.375ZM293.594 395.812H300.172V391.75H293.594V395.812ZM316.078 389.266V403.391H314.359V389.266H316.078ZM305.109 399.844V390.641H306.828V398.359C308.805 398.328 310.914 398.156 313.094 397.719L313.312 399.172C310.828 399.688 308.523 399.852 306.328 399.844H305.109ZM329.969 389.266V403.406H328.25V395.781H325.594V394.375H328.25V389.266H329.969ZM318.766 400.156V390.484H325.375V391.906H320.516V394.438H324.812V395.812H320.516V398.719C322.664 398.711 324.273 398.633 326.094 398.344L326.266 399.75C324.211 400.062 322.398 400.141 319.875 400.156H318.766ZM343.719 389.281V397.891H341.969V389.281H343.719ZM332.672 391.547V390.125H339.188V394.266H334.406V395.781C336.82 395.773 338.547 395.695 340.562 395.391L340.781 396.781C338.555 397.148 336.641 397.211 333.906 397.203H332.703V392.969H337.469V391.547H332.672ZM334.141 400.766C334.133 399.094 335.961 398.141 338.969 398.141C341.961 398.141 343.797 399.094 343.797 400.766C343.797 402.406 341.961 403.375 338.969 403.375C335.961 403.375 334.133 402.406 334.141 400.766ZM335.859 400.766C335.859 401.578 336.969 402.008 338.969 402.016C340.953 402.008 342.055 401.578 342.062 400.766C342.055 399.945 340.953 399.5 338.969 399.5C336.969 399.5 335.859 399.945 335.859 400.766ZM277.977 427.422C276.898 427.43 276.031 426.562 276.039 425.484C276.031 424.422 276.898 423.555 277.977 423.562C279.039 423.555 279.906 424.422 279.898 425.484C279.906 426.562 279.039 427.43 277.977 427.422ZM295.516 420.656C295.5 423.18 296.766 425.727 298.953 426.781L297.891 428.172C296.359 427.398 295.258 425.906 294.656 424.109C294.039 426.031 292.883 427.625 291.266 428.438L290.203 427.047C292.477 425.969 293.773 423.266 293.781 420.656V418.406H295.516V420.656ZM299.797 431.391V417.266H301.531V422.797H303.703V424.281H301.531V431.391H299.797ZM316.422 417.266V431.391H314.75V424.25H313.188V430.672H311.562V417.531H313.188V422.828H314.75V417.266H316.422ZM304.906 427.875V418.891H306.656V426.344C307.875 426.32 309.203 426.211 310.688 425.922L310.859 427.438C308.953 427.773 307.336 427.875 305.844 427.875H304.906ZM322.703 418.141C324.945 418.141 326.578 419.539 326.594 421.547C326.578 423.281 325.359 424.562 323.578 424.875V426.938C324.836 426.875 326.109 426.766 327.312 426.594L327.453 427.844C324.289 428.445 320.898 428.469 318.406 428.469L318.188 427.047C319.266 427.047 320.523 427.047 321.844 427.008V424.883C320.07 424.57 318.82 423.289 318.828 421.547C318.82 419.539 320.484 418.141 322.703 418.141ZM320.547 421.547C320.539 422.711 321.469 423.469 322.703 423.469C323.961 423.469 324.883 422.711 324.891 421.547C324.883 420.359 323.953 419.633 322.703 419.641C321.469 419.633 320.539 420.359 320.547 421.547ZM328.156 431.406V417.266H329.891V431.406H328.156ZM347.906 417.266V431.391H346.25V417.266H347.906ZM335.5 427.375C337.539 426.133 338.438 423.586 338.438 421.125V420.188H335.984V418.781H342.391V420.188H340.109V421.125C340.109 423.508 340.961 425.898 342.984 427.062L341.953 428.344C340.648 427.57 339.781 426.227 339.289 424.617C338.789 426.359 337.891 427.844 336.562 428.672L335.5 427.375ZM341.359 423.594V422.188H343.391V417.531H345.031V430.703H343.391V423.594H341.359ZM362.484 428.266V429.688H349.578V428.266H355.141V425.516H351V418.203H352.734V420.516H359.281V418.203H361.016V425.516H356.859V428.266H362.484ZM352.734 424.109H359.281V421.906H352.734V424.109ZM372.547 420.656C372.531 423.25 373.898 425.844 376.188 426.828L375.156 428.219C373.531 427.469 372.344 425.977 371.688 424.133C371.039 426.117 369.82 427.742 368.109 428.547L367.047 427.094C369.398 426.078 370.773 423.383 370.781 420.656V418.406H372.547V420.656ZM377.203 431.406V417.266H378.953V431.406H377.203ZM388.328 419.203C388.328 421.383 390.461 423.578 393.422 424.094L392.641 425.547C390.273 425.055 388.336 423.617 387.414 421.719C386.484 423.602 384.547 425.047 382.188 425.547L381.422 424.094C384.336 423.562 386.477 421.375 386.484 419.203V418.156H388.328V419.203ZM381.031 429.594V428.156H393.938V429.594H381.031ZM400.828 418.141V419.547H397.125V420.875H400.297V422.219H397.125V423.672C398.812 423.656 399.984 423.586 401.359 423.344L401.547 424.703C399.914 425 398.57 425.062 396.391 425.062H395.453V418.141H400.828ZM397.406 431.219V426.312H406.938V431.219H397.406ZM399.141 429.812H405.219V427.688H399.141V429.812ZM400.906 422.125V420.719H402.5V417.5H404.156V425.609H402.5V422.125H400.906ZM405.281 425.719V417.266H406.938V425.719H405.281Z" fill="#282828"/>
<path d="M880.977 399.422C879.898 399.43 879.031 398.562 879.039 397.484C879.031 396.422 879.898 395.555 880.977 395.562C882.039 395.555 882.906 396.422 882.898 397.484C882.906 398.562 882.039 399.43 880.977 399.422ZM901.672 394.5C901.43 393.141 900.344 392.359 898.969 392.359C897.117 392.359 895.805 393.781 895.812 396.344C895.805 398.945 897.125 400.328 898.969 400.328C900.312 400.328 901.398 399.578 901.672 398.25H903.719C903.406 400.422 901.617 402.156 898.938 402.156C895.953 402.156 893.758 399.992 893.766 396.344C893.758 392.688 895.977 390.531 898.938 390.531C901.438 390.531 903.367 391.984 903.719 394.5H901.672ZM905.469 402V390.688H909.719C912.312 390.688 913.695 392.266 913.703 394.438C913.695 396.602 912.297 398.172 909.688 398.172H907.5V402H905.469ZM907.5 396.5H909.406C910.938 396.492 911.625 395.633 911.625 394.438C911.625 393.227 910.938 392.391 909.406 392.391H907.5V396.5ZM926.453 390.312V391.156C926.438 392.117 926.438 393.523 926.109 395.312L924.391 395.156C924.672 393.703 924.727 392.617 924.742 391.75H919.25V390.312H926.453ZM918.406 396.438C919.242 396.43 920.18 396.422 921.172 396.406V393.531H922.891V396.352C924.352 396.289 925.852 396.18 927.219 395.984L927.312 397.234C924.375 397.766 921.039 397.82 918.562 397.828L918.406 396.438ZM920.516 403.109V398.906H922.266V401.703H930.281V403.109H920.516ZM928.047 399.844V389.266H929.828V393.672H931.656V395.125H929.828V399.844H928.047ZM939.141 390.25V394.641H934.688V396.5C936.828 396.477 938.188 396.398 939.766 396.125L939.953 397.547C938.133 397.852 936.594 397.898 934 397.891H932.938V393.328H937.391V391.641H932.922V390.25H939.141ZM934.844 403.078V398.906H936.578V401.656H944.594V403.078H934.844ZM940.016 396.078V394.672H942.484V392.891H940.016V391.5H942.484V389.281H944.219V399.688H942.484V396.078H940.016ZM962.922 400.297V401.75H950.016V400.297H955.562V397.516H951.125V396.141H953.109V391.922H951.078V390.516H961.797V391.922H959.734V396.141H961.75V397.516H957.281V400.297H962.922ZM954.844 396.141H958.016V391.922H954.844V396.141ZM968.844 391.516C968.844 393.289 969.992 394.969 972.172 395.656L971.234 397.016C969.711 396.5 968.617 395.469 968 394.156C967.391 395.656 966.25 396.836 964.625 397.406L963.688 396.047C965.961 395.258 967.102 393.375 967.109 391.359V390.016H968.844V391.516ZM965.609 400.688C965.609 399.016 967.445 398.023 970.391 398.031C973.312 398.023 975.117 399.016 975.125 400.688C975.117 402.398 973.312 403.375 970.391 403.375C967.445 403.375 965.609 402.398 965.609 400.688ZM967.344 400.688C967.344 401.562 968.453 402 970.391 402C972.32 402 973.406 401.562 973.406 400.688C973.406 399.859 972.32 399.391 970.391 399.391C968.453 399.391 967.344 399.859 967.344 400.688ZM973.25 397.719V389.266H974.984V392.703H976.953V394.141H974.984V397.719H973.25ZM989 390.141V396.016H982.188V390.141H989ZM983.031 402.016C985.742 401.781 987.477 400.578 987.633 399.453H983.609V398.141H987.672V396.906H989.422V398.141H993.5V399.453H989.469C989.625 400.547 991.328 401.742 994.031 402.016L993.438 403.344C991.148 403.102 989.414 402.203 988.555 401.031C987.688 402.219 985.93 403.094 983.625 403.344L983.031 402.016ZM983.906 394.656H987.281V391.516H983.906V394.656ZM991.484 397.312V389.266H993.203V397.312H991.484ZM1010.86 389.281V397.703H1009.11V389.281H1010.86ZM999.203 396.172C1001.48 395.414 1002.69 393.586 1002.7 391.703V391.688H999.656V390.281H1007.42V391.688H1004.45V391.703C1004.45 393.445 1005.66 395.117 1007.91 395.812L1007.02 397.172C1005.42 396.672 1004.26 395.633 1003.62 394.312C1002.98 395.789 1001.79 396.977 1000.11 397.547L999.203 396.172ZM1001.25 400.703C1001.25 398.984 1003.09 397.984 1006.08 397.984C1009.05 397.984 1010.89 398.984 1010.89 400.703C1010.89 402.43 1009.05 403.414 1006.08 403.406C1003.09 403.414 1001.25 402.43 1001.25 400.703ZM1003 400.703C1003 401.586 1004.09 402.07 1006.08 402.062C1008.05 402.07 1009.18 401.586 1009.19 400.703C1009.18 399.836 1008.05 399.344 1006.08 399.344C1004.09 399.344 1003 399.836 1003 400.703ZM1025.11 389.266V403.391H1023.45V389.266H1025.11ZM1012.78 399.172C1015.7 397.445 1017.05 395.234 1017.31 392.391H1013.53V390.984H1019.03C1019.03 391.695 1018.98 392.391 1018.88 393.062H1020.53V389.609H1022.19V402.719H1020.53V398H1018.33V396.578H1020.53V394.484H1018.59C1017.91 396.828 1016.45 398.844 1013.8 400.406L1012.78 399.172Z" fill="#282828"/>
<path d="M338.921 309.621V325.652H336.688V309.621H338.921ZM326.353 312.768V310.957H333.964V317.127H328.69V320.062C331.134 320.045 333.199 319.922 335.546 319.535L335.739 321.346C333.111 321.812 330.729 321.908 327.812 321.908H326.37V315.352H331.679V312.768H326.353ZM349.485 311.73C349.477 314.077 351.56 316.582 355.181 317.197L354.196 319.061C351.401 318.507 349.336 316.934 348.299 314.886C347.244 316.916 345.17 318.498 342.401 319.061L341.435 317.197C344.994 316.564 347.077 314.051 347.095 311.73V310.57H349.485V311.73ZM341.065 323.648V321.803H355.708V323.648H341.065ZM369.718 311.027V312.891C369.709 315.22 369.709 317.435 368.979 320.906L366.747 320.695C367.063 319.368 367.248 318.19 367.362 317.109L358.081 317.566L357.8 315.773L367.477 315.422C367.512 314.543 367.521 313.717 367.521 312.891V312.82H358.292V311.027H369.718ZM356.622 323.701V321.873H371.212V323.701H356.622ZM385.292 310.781V311.783C385.292 312.891 385.292 314.49 384.923 316.477L382.726 316.266C383.016 314.736 383.086 313.567 383.104 312.609H377.065V310.781H385.292ZM376.116 317.637C377.013 317.637 378.023 317.637 379.087 317.61V314.473H381.319V317.54C382.919 317.47 384.545 317.347 386.048 317.127L386.171 318.744C382.84 319.359 379.096 319.421 376.31 319.43L376.116 317.637ZM378.472 325.336V320.52H380.722V323.543H389.704V325.336H378.472ZM386.909 321.592V309.621H389.212V314.49H391.146V316.371H389.212V321.592H386.909ZM405.296 309.621V325.652H403.063V309.621H405.296ZM392.728 312.768V310.957H400.339V317.127H395.065V320.062C397.509 320.045 399.574 319.922 401.921 319.535L402.114 321.346C399.486 321.812 397.104 321.908 394.187 321.908H392.745V315.352H398.054V312.768H392.728Z" fill="#282828"/>
<rect x="528.5" y="286.5" width="280" height="63" rx="15.5" fill="#F5F5F5" stroke="#E1E6EF"/>
<rect x="528.5" y="358.5" width="280" height="103" rx="15.5" fill="white" stroke="#E1E6EF"/>
<path d="M579.977 399.422C578.898 399.43 578.031 398.562 578.039 397.484C578.031 396.422 578.898 395.555 579.977 395.562C581.039 395.555 581.906 396.422 581.898 397.484C581.906 398.562 581.039 399.43 579.977 399.422ZM605.344 397.141V398.547H599.734V403.375H598.016V398.547H592.469V397.141H605.344ZM593.141 394.828C595.914 394.477 597.773 392.984 597.898 391.438H593.656V390.062H604.156V391.438H599.914C600.031 392.984 601.875 394.477 604.672 394.828L604.047 396.188C601.641 395.844 599.766 394.742 598.906 393.219C598.039 394.742 596.18 395.844 593.797 396.188L593.141 394.828ZM618.094 389.266V403.391H616.344V389.266H618.094ZM606.391 399.5C610.094 397.742 611.797 395.352 612.109 392.141H607.109V390.766H613.875C613.875 394.969 612.242 398.539 607.297 400.891L606.391 399.5ZM625.312 391.688C625.312 393.414 626.453 395.141 628.641 395.875L627.766 397.219C626.188 396.703 625.07 395.633 624.453 394.305C623.836 395.781 622.664 396.969 620.984 397.531L620.094 396.156C622.344 395.414 623.547 393.539 623.547 391.703V391.516H620.609V390.125H628.234V391.516H625.312V391.688ZM622.328 399.75V398.359H631.953V403.391H630.219V399.75H622.328ZM627.812 394.188V392.766H630.219V389.266H631.953V397.688H630.219V394.188H627.812ZM645.719 389.281V399.484H643.969V389.281H645.719ZM634.203 393.734C634.203 391.68 635.867 390.211 638.016 390.203C640.164 390.211 641.82 391.68 641.812 393.734C641.82 395.82 640.164 397.281 638.016 397.281C635.867 397.281 634.203 395.82 634.203 393.734ZM635.906 393.734C635.898 394.984 636.805 395.766 638.016 395.766C639.195 395.766 640.109 394.984 640.109 393.734C640.109 392.516 639.195 391.719 638.016 391.719C636.805 391.719 635.898 392.516 635.906 393.734ZM636.375 403.109V398.453H638.125V401.703H646.109V403.109H636.375ZM663.156 390.562V392C663.156 393.758 663.156 395.648 662.641 398.422L660.938 398.25C661.422 395.633 661.422 393.711 661.422 392V391.953H652.875V390.562H663.156ZM651.578 401.562V400.141H654.469V395.641H656.203V400.141H658V395.641H659.703V400.141H664.453V401.562H651.578ZM678.281 395.938V397.328H675.062V398.797H676.703V403.391H674.969V400.156H666.828V398.797H668.578V397.328H665.406V395.938H678.281ZM666.734 392.312C666.734 390.609 668.734 389.562 671.828 389.562C674.93 389.562 676.914 390.609 676.922 392.312C676.914 394.039 674.93 395.078 671.828 395.078C668.734 395.078 666.734 394.039 666.734 392.312ZM668.547 392.312C668.531 393.234 669.766 393.727 671.828 393.734C673.891 393.727 675.125 393.234 675.125 392.312C675.125 391.43 673.891 390.922 671.828 390.922C669.766 390.922 668.531 391.43 668.547 392.312ZM670.312 398.797H673.344V397.328H670.312V398.797ZM690.562 390.141V396.016H683.75V390.141H690.562ZM684.594 402.016C687.305 401.781 689.039 400.578 689.195 399.453H685.172V398.141H689.234V396.906H690.984V398.141H695.062V399.453H691.031C691.188 400.547 692.891 401.742 695.594 402.016L695 403.344C692.711 403.102 690.977 402.203 690.117 401.031C689.25 402.219 687.492 403.094 685.188 403.344L684.594 402.016ZM685.469 394.656H688.844V391.516H685.469V394.656ZM693.047 397.312V389.266H694.766V397.312H693.047ZM712.484 389.266V399.703H710.75V396.016H708.75V394.578H710.75V393.234H708.75V391.828H710.75V389.266H712.484ZM700.672 396.406C701.164 396.406 701.703 396.406 702.266 396.398V391.719H701.031V390.328H708.547V391.719H707.297V396.234C707.828 396.195 708.344 396.148 708.844 396.094L708.922 397.359C706.242 397.789 703.109 397.844 700.859 397.844L700.672 396.406ZM703.203 403.109V398.891H704.953V401.703H712.844V403.109H703.203ZM703.953 396.375C704.5 396.367 705.062 396.344 705.625 396.32V391.719H703.953V396.375ZM725.625 389.281V392.719H727.609V394.172H725.625V397.672H723.891V389.281H725.625ZM715.016 391.391V390H721.469V394.141H716.766V395.656C719.156 395.648 720.812 395.578 722.734 395.25L722.922 396.625C720.82 397.016 718.977 397.086 716.188 397.078H715.031V392.828H719.766V391.391H715.016ZM716.484 403.219V398.297H725.625V403.219H716.484ZM718.188 401.812H723.922V399.656H718.188V401.812ZM744.234 389.266V403.391H742.562V396.141H741.047V402.734H739.422V389.641H741.047V394.734H742.562V389.266H744.234ZM732 399.234C735.008 397.5 736.281 395.266 736.531 392.438H732.656V391.047H738.219C738.219 394.867 737.016 398.148 733 400.438L732 399.234ZM757.766 389.266V397.656H756.031V394.203H753.625V392.781H756.031V389.266H757.766ZM745.891 396.25C748.164 395.469 749.359 393.57 749.359 391.703V391.594H746.422V390.188H754.047V391.594H751.125V391.688C751.125 393.406 752.266 395.141 754.453 395.875L753.578 397.25C752.008 396.719 750.898 395.641 750.273 394.312C749.656 395.812 748.477 397.031 746.797 397.625L745.891 396.25ZM748.188 400.703C748.172 399.008 750.008 398.016 752.984 398.016C755.977 398.016 757.805 399.008 757.812 400.703C757.805 402.398 755.977 403.383 752.984 403.391C750.008 403.383 748.172 402.398 748.188 400.703ZM749.906 400.703C749.898 401.578 751.023 402.055 752.984 402.047C754.961 402.055 756.078 401.578 756.078 400.703C756.078 399.82 754.961 399.344 752.984 399.344C751.023 399.344 749.898 399.82 749.906 400.703Z" fill="#282828"/>
<path d="M648.829 315.703C648.618 314.297 647.537 313.444 646.052 313.436C644.074 313.444 642.765 314.956 642.765 317.637C642.765 320.379 644.092 321.829 646.034 321.838C647.484 321.829 648.574 321.038 648.829 319.658L651.501 319.676C651.211 322.031 649.233 324.176 645.999 324.176C642.598 324.176 640.075 321.776 640.075 317.637C640.075 313.479 642.642 311.098 645.999 311.098C648.935 311.098 651.149 312.776 651.501 315.703H648.829ZM653.347 324V311.273H658.339C661.23 311.273 662.892 313.058 662.892 315.562C662.892 318.103 661.204 319.852 658.269 319.852H655.983V324H653.347ZM655.983 317.725H657.847C659.411 317.725 660.176 316.846 660.167 315.562C660.176 314.297 659.411 313.444 657.847 313.436H655.983V317.725ZM681.384 311.01V312.574C681.375 314.525 681.375 316.714 680.786 319.939L678.589 319.746C679.107 316.811 679.125 314.64 679.134 312.785H669.554V311.01H681.384ZM668.112 323.666V321.838H671.224V316.811H673.456V321.838H675.214V316.811H677.429V321.838H682.702V323.666H668.112ZM698.259 317.092V318.867H694.743V320.361H696.483V325.617H694.251V322.119H685.286V320.361H687.114V318.867H683.669V317.092H698.259ZM685.128 313.084C685.128 311.133 687.422 309.929 690.964 309.938C694.479 309.929 696.773 311.133 696.782 313.084C696.773 315.044 694.479 316.248 690.964 316.248C687.422 316.248 685.128 315.044 685.128 313.084ZM687.466 313.084C687.448 314.033 688.723 314.508 690.964 314.508C693.17 314.508 694.462 314.033 694.462 313.084C694.462 312.161 693.17 311.669 690.964 311.678C688.723 311.669 687.448 312.161 687.466 313.084ZM689.382 320.361H692.528V318.867H689.382V320.361Z" fill="#282828"/>
<defs>
<linearGradient id="paint0_linear_7145_7494" x1="668" y1="82" x2="668" y2="124" gradientUnits="userSpaceOnUse">
<stop stop-color="#C0D4FB"/>
<stop offset="1" stop-color="#C0D4FB" stop-opacity="0"/>
</linearGradient>
</defs>
</svg>
