<svg width="1212" height="258" viewBox="0 0 1212 258" fill="none" xmlns="http://www.w3.org/2000/svg">
<path d="M373.5 66H320V129.75M373.5 195.5H320V129.75M320 129.75H250" stroke="#E1E6EF"/>
<g clip-path="url(#clip0_8389_9839)">
<rect width="204" height="204" rx="32" transform="matrix(0.707107 -0.707107 0.733472 0.679719 -13 132)" fill="#FF7C32"/>
<path d="M89.6833 101.6C92.2993 101.6 94.7713 102.68 94.7713 105.968C94.7713 109.232 92.2993 110.336 89.6833 110.336H84.4033C81.6913 110.336 79.3153 109.232 79.3153 105.968C79.3153 102.68 81.6913 101.6 84.4033 101.6H89.6833ZM96.9793 114.248H92.6353V118.232H89.4193V114.248H87.3073V118.16H84.0193V114.248H76.6513V111.896H97.4593L96.9793 114.248ZM94.4353 122.504H79.7713V116.504H83.1073V120.104H94.9153L94.4353 122.504ZM89.3713 103.976H84.7153C83.4193 103.976 82.5313 104.528 82.5313 105.968C82.5313 107.384 83.4193 107.96 84.7153 107.96H89.3713C90.5713 107.96 91.5553 107.384 91.5553 105.968C91.5553 104.528 90.5713 103.976 89.3713 103.976ZM107.495 108.224V104.432H100.175V102.056H110.783V110.576H103.511V114.416H105.239C107.423 114.416 110.759 114.32 113.063 113.84V116.216C110.615 116.624 107.207 116.792 104.951 116.792H100.175V108.224H107.495ZM117.287 100.64V122.12L114.023 122.6V101.12L117.287 100.64ZM135.891 114.128V111.224H131.571V108.824H135.891V106.544H132.195C130.539 110.12 126.363 113.072 122.451 114.248L120.891 112.16C125.667 110.84 129.483 106.976 129.483 104.456V104.12H122.139V101.72H132.939V103.376C132.939 103.64 132.915 103.904 132.891 104.144H135.891V101.12L139.155 100.64V113.648L135.891 114.128ZM134.235 114.272C136.851 114.272 139.227 115.328 139.227 118.568C139.227 121.832 136.851 122.888 134.235 122.888H129.099C126.387 122.888 123.963 121.832 123.963 118.568C123.963 115.328 126.387 114.272 129.099 114.272H134.235ZM133.923 116.648H129.363C128.067 116.648 127.179 117.176 127.179 118.568C127.179 119.984 128.067 120.512 129.363 120.512H133.923C135.123 120.512 136.011 119.984 136.011 118.568C136.011 117.176 135.123 116.648 133.923 116.648ZM157.735 113.912V110.72H154.015V109.952C153.079 111.728 150.991 112.664 148.711 112.664C145.615 112.664 142.879 110.936 142.879 107.72V106.304C142.879 103.088 145.615 101.36 148.711 101.36C150.991 101.36 153.079 102.296 154.015 104.096V102.824H157.735V101.12L160.975 100.64V113.432L157.735 113.912ZM156.079 114.272C158.695 114.272 161.071 115.328 161.071 118.568C161.071 121.832 158.695 122.888 156.079 122.888H150.943C148.231 122.888 145.807 121.832 145.807 118.568C145.807 115.328 148.231 114.272 150.943 114.272H156.079ZM155.767 116.648H151.207C149.911 116.648 149.023 117.176 149.023 118.568C149.023 119.984 149.911 120.512 151.207 120.512H155.767C156.967 120.512 157.855 119.984 157.855 118.568C157.855 117.176 156.967 116.648 155.767 116.648ZM151.303 107.624V106.4C151.303 104.72 150.175 103.76 148.711 103.76C147.247 103.76 146.119 104.72 146.119 106.4V107.624C146.119 109.304 147.247 110.264 148.711 110.264C150.175 110.264 151.303 109.304 151.303 107.624ZM154.543 107.72C154.543 107.936 154.519 108.128 154.495 108.32H157.735V105.2H154.423C154.495 105.56 154.543 105.92 154.543 106.304V107.72ZM172.217 101.432H182.729V110.888L179.489 111.368H172.217V101.432ZM189.593 116.96L183.905 116.984C183.905 117.416 183.953 117.872 184.337 118.064C186.353 119.24 188.321 120.2 190.745 121.28L189.209 123.296C186.785 122.288 184.313 121.112 182.297 120.032C180.449 121.064 177.809 122.408 175.385 123.464L173.801 121.472C176.393 120.368 178.265 119.312 180.065 118.232C180.449 118.016 180.569 117.464 180.593 116.984H174.617V114.704H180.593V112.712L183.905 112.232V114.704H190.073L189.593 116.96ZM189.521 100.64V112.76L186.281 113.24V101.12L189.521 100.64ZM179.489 103.832H175.457V109.04H179.489V103.832ZM84.5455 136.64V147.728L81.2815 148.208V137.12L84.5455 136.64ZM84.6895 158.696H70.3615V152.72H81.2335V151.328H70.3135V149.048H84.5455V154.928H73.6975V156.416H85.1695L84.6895 158.696ZM74.3455 136.808V140.264C74.3455 140.768 74.4655 141.32 74.7775 141.68C76.2415 143.264 77.8255 144.776 79.5055 146.144L77.5375 147.944C75.8815 146.696 74.0335 145.04 72.6655 143.672C71.1295 145.256 69.2815 146.96 67.5055 148.4L65.4895 146.648C67.2175 145.184 68.9455 143.624 70.4095 141.872C70.7455 141.464 70.9375 140.912 70.9375 140.408V137.288L74.3455 136.808ZM100.605 141.68H96.5492V143C96.5492 143.504 96.6452 144.2 96.9812 144.584C98.2292 146.072 99.6692 147.512 101.541 149.24L99.6452 151.016C97.7492 149.36 96.1892 147.92 94.8932 146.552C93.4532 148.16 91.6532 149.888 89.9492 151.448L87.9812 149.768C89.6132 148.16 91.2452 146.48 92.6132 144.752C92.9492 144.344 93.1412 143.648 93.1412 143.144V141.68H88.7972V139.28H93.1892V136.952L96.5012 136.472V139.28H101.085L100.605 141.68ZM103.125 152.984V145.52H99.5252V143.072H103.125V137.12L106.389 136.64V152.504L103.125 152.984ZM106.533 158.504H92.4452V151.856H95.7812V156.104H107.013L106.533 158.504ZM122.689 138.2L122.209 140.576H118.345V144.512C118.345 145.016 118.465 145.544 118.777 145.928C120.097 147.56 121.801 149.48 123.433 151.304L121.513 153.152C119.833 151.376 118.057 149.48 116.713 147.92C115.249 149.672 113.401 151.784 111.673 153.656L109.657 151.904C111.313 149.984 113.041 148.112 114.505 146.12C114.793 145.712 115.033 145.16 115.033 144.656V140.576H110.737V138.2H122.689ZM128.209 136.64V158.12L124.945 158.6V137.12L128.209 136.64ZM150.077 150.728V158L146.765 158.6H135.893V150.728H150.077ZM144.797 138.944L144.317 141.344H140.477V141.896C140.477 142.4 140.573 143.096 140.909 143.48C142.181 144.944 143.477 146.216 145.349 147.944L143.453 149.72C141.605 148.016 140.141 146.672 138.821 145.328C137.333 146.888 135.653 148.544 133.997 150.152L132.029 148.472C133.661 146.864 135.173 145.376 136.541 143.648C136.877 143.24 137.069 142.544 137.069 142.04V141.344H132.485V138.944H137.117V136.784L140.429 136.304V138.944H144.797ZM150.077 136.64V149.408L146.813 149.888V137.12L150.077 136.64ZM139.229 156.2H146.765V153.128H139.229V156.2ZM160.935 138.2H171.423V151.928L168.111 152.408H160.935V138.2ZM177.975 136.64V143.648H181.431L180.951 146.336H177.975V158.12L174.687 158.6V137.12L177.975 136.64ZM164.175 150.032H168.111V140.576H164.175V150.032ZM189.715 142.784V140.288H183.355V137.912H192.955V145.112H186.691V147.872H187.939C190.099 147.872 193.435 147.752 195.739 147.32V149.72C193.291 150.128 189.859 150.272 187.651 150.272H183.355V142.784H189.715ZM197.203 153.224V146.624H193.891V144.224H197.203V142.064H193.891V139.688H197.203V137.12L200.467 136.64V152.744L197.203 153.224ZM200.611 158.504H186.523V151.856H189.859V156.104H201.091L200.611 158.504Z" fill="white"/>
</g>
<g filter="url(#filter0_f_8389_9839)">
<rect x="382" y="43" width="345" height="64" rx="16" fill="#578DF4" fill-opacity="0.5"/>
</g>
<rect x="371" y="26" width="367" height="79" rx="16" fill="#4B84F0"/>
<path d="M480.758 56.05C483.156 56.05 485.422 57.04 485.422 60.054C485.422 63.046 483.156 64.058 480.758 64.058H475.918C473.432 64.058 471.254 63.046 471.254 60.054C471.254 57.04 473.432 56.05 475.918 56.05H480.758ZM487.446 67.644H483.464V71.296H480.516V67.644H478.58V71.23H475.566V67.644H468.812V65.488H487.886L487.446 67.644ZM485.114 75.212H471.672V69.712H474.73V73.012H485.554L485.114 75.212ZM480.472 58.228H476.204C475.016 58.228 474.202 58.734 474.202 60.054C474.202 61.352 475.016 61.88 476.204 61.88H480.472C481.572 61.88 482.474 61.352 482.474 60.054C482.474 58.734 481.572 58.228 480.472 58.228ZM497.086 62.122V58.646H490.376V56.468H500.1V64.278H493.434V67.798H495.018C497.02 67.798 500.078 67.71 502.19 67.27V69.448C499.946 69.822 496.822 69.976 494.754 69.976H490.376V62.122H497.086ZM506.062 55.17V74.86L503.07 75.3V55.61L506.062 55.17ZM523.115 67.534V64.872H519.155V62.672H523.115V60.582H519.727C518.209 63.86 514.381 66.566 510.795 67.644L509.365 65.73C513.743 64.52 517.241 60.978 517.241 58.668V58.36H510.509V56.16H520.409V57.678C520.409 57.92 520.387 58.162 520.365 58.382H523.115V55.61L526.107 55.17V67.094L523.115 67.534ZM521.597 67.666C523.995 67.666 526.173 68.634 526.173 71.604C526.173 74.596 523.995 75.564 521.597 75.564H516.889C514.403 75.564 512.181 74.596 512.181 71.604C512.181 68.634 514.403 67.666 516.889 67.666H521.597ZM521.311 69.844H517.131C515.943 69.844 515.129 70.328 515.129 71.604C515.129 72.902 515.943 73.386 517.131 73.386H521.311C522.411 73.386 523.225 72.902 523.225 71.604C523.225 70.328 522.411 69.844 521.311 69.844ZM543.139 67.336V64.41H539.729V63.706C538.871 65.334 536.957 66.192 534.867 66.192C532.029 66.192 529.521 64.608 529.521 61.66V60.362C529.521 57.414 532.029 55.83 534.867 55.83C536.957 55.83 538.871 56.688 539.729 58.338V57.172H543.139V55.61L546.109 55.17V66.896L543.139 67.336ZM541.621 67.666C544.019 67.666 546.197 68.634 546.197 71.604C546.197 74.596 544.019 75.564 541.621 75.564H536.913C534.427 75.564 532.205 74.596 532.205 71.604C532.205 68.634 534.427 67.666 536.913 67.666H541.621ZM541.335 69.844H537.155C535.967 69.844 535.153 70.328 535.153 71.604C535.153 72.902 535.967 73.386 537.155 73.386H541.335C542.435 73.386 543.249 72.902 543.249 71.604C543.249 70.328 542.435 69.844 541.335 69.844ZM537.243 61.572V60.45C537.243 58.91 536.209 58.03 534.867 58.03C533.525 58.03 532.491 58.91 532.491 60.45V61.572C532.491 63.112 533.525 63.992 534.867 63.992C536.209 63.992 537.243 63.112 537.243 61.572ZM540.213 61.66C540.213 61.858 540.191 62.034 540.169 62.21H543.139V59.35H540.103C540.169 59.68 540.213 60.01 540.213 60.362V61.66ZM572.32 55.17V65.334L569.328 65.774V55.61L572.32 55.17ZM572.452 75.388H559.318V69.91H569.284V68.634H559.274V66.544H572.32V71.934H562.376V73.298H572.892L572.452 75.388ZM562.97 55.324V58.492C562.97 58.954 563.08 59.46 563.366 59.79C564.708 61.242 566.16 62.628 567.7 63.882L565.896 65.532C564.378 64.388 562.684 62.87 561.43 61.616C560.022 63.068 558.328 64.63 556.7 65.95L554.852 64.344C556.436 63.002 558.02 61.572 559.362 59.966C559.67 59.592 559.846 59.086 559.846 58.624V55.764L562.97 55.324ZM587.041 59.79H583.323V61C583.323 61.462 583.411 62.1 583.719 62.452C584.863 63.816 586.183 65.136 587.899 66.72L586.161 68.348C584.423 66.83 582.993 65.51 581.805 64.256C580.485 65.73 578.835 67.314 577.273 68.744L575.469 67.204C576.965 65.73 578.461 64.19 579.715 62.606C580.023 62.232 580.199 61.594 580.199 61.132V59.79H576.217V57.59H580.243V55.456L583.279 55.016V57.59H587.481L587.041 59.79ZM589.351 70.152V63.31H586.051V61.066H589.351V55.61L592.343 55.17V69.712L589.351 70.152ZM592.475 75.212H579.561V69.118H582.619V73.012H592.915L592.475 75.212ZM604.871 63.948C605.025 63.596 605.047 62.958 605.047 62.496V60.12H601.725V57.986H605.047V55.852L607.907 55.412V57.986H611.009L610.679 60.12H607.907V62.43C607.907 62.892 607.885 63.442 608.061 63.838C608.633 65.114 610.327 67.622 611.493 69.074L609.601 70.702C608.699 69.536 607.423 67.798 606.565 66.456C605.619 67.952 604.387 69.712 603.177 71.164L601.263 69.58C602.781 67.754 604.189 65.422 604.871 63.948ZM611.999 55.918L614.727 55.478V74.222L611.999 74.662V64.366H609.557V62.078H611.999V55.918ZM615.915 55.61L618.709 55.17V74.86L615.915 75.3V55.61ZM632.022 55.918L634.706 55.478V74.222L632.022 74.662V67.27H629.294V65.092H632.022V61.902H629.954C629.096 65.884 626.852 69.052 623.552 71.032L621.858 69.14C625.51 67.006 627.446 62.98 627.446 59.152V58.778H622.672V56.6H630.35V58.162C630.35 58.69 630.328 59.196 630.284 59.702H632.022V55.918ZM635.938 55.61L638.732 55.17V74.86L635.938 75.3V55.61Z" fill="white"/>
<rect x="758.5" y="27.5" width="453" height="75" rx="19.5" stroke="#E1E6EF"/>
<rect x="768" y="35" width="165" height="60" rx="16" fill="#F5F5F5"/>
<path d="M812.99 69.832V71.6094H796.857V69.832H803.83V65.7695H805.998V69.832H812.99ZM797.561 64.793C801.076 64.207 803.693 61.8242 803.752 59.2852H798.205V57.5078H811.604V59.2852H806.037C806.105 61.8242 808.723 64.1484 812.346 64.6953L811.486 66.4141C808.508 65.877 806.057 64.2949 804.914 62.0879C803.781 64.3242 801.359 65.9551 798.42 66.5117L797.561 64.793ZM820.842 59.1484C820.842 61.3262 822.346 63.5039 825.158 64.3828L824.045 66.0625C822.043 65.418 820.588 64.0898 819.777 62.4102C818.986 64.2363 817.482 65.6914 815.393 66.3945L814.279 64.7148C817.121 63.7578 818.635 61.4629 818.654 59.1484V58.9336H814.846V57.1953H824.553V58.9336H820.842V59.1484ZM816.799 69.3047V67.5469H828.85V73.7383H826.662V69.3047H816.799ZM826.662 66.7266V56.082H828.85V66.7266H826.662ZM836.818 61.4727C836.818 64.207 837.941 66.9609 840.412 68.2891L839.201 69.8906C837.561 69.0215 836.447 67.4688 835.812 65.6133C835.188 67.6152 834.074 69.334 832.424 70.3008L831.154 68.6602C833.654 67.2148 834.758 64.2656 834.768 61.4727V60.9258H831.76V59.168H834.768V56.707H836.818V59.168H839.768V60.9258H836.818V61.4727ZM838.674 64.6562V62.8594H840.979V56.4141H843.029V72.8789H840.979V64.6562H838.674ZM844.553 73.7383V56.082H846.623V73.7383H844.553ZM863.947 56.082V73.7383H861.877V56.082H863.947ZM848.537 68.4648C852.189 66.3066 853.869 63.543 854.201 59.9883H849.475V58.2305H856.35C856.35 59.1191 856.291 59.9883 856.164 60.8281H858.225V56.5117H860.295V72.8984H858.225V67H855.471V65.2227H858.225V62.6055H855.793C854.953 65.5352 853.117 68.0547 849.807 70.0078L848.537 68.4648ZM884.865 57.1562V58.7383C884.855 60.3887 884.855 62.1953 884.396 64.6953H886.838V66.4531H879.826V73.7578H877.639V66.4531H870.744V64.6953H882.189C882.678 62.293 882.697 60.4863 882.697 58.9141H872.639V57.1562H884.865ZM894.494 58.6211C894.484 61.0234 895.891 63.2207 898.654 64.0898L897.482 65.7891C895.559 65.1055 894.211 63.8164 893.459 62.1465C892.678 64.0703 891.203 65.584 889.064 66.3359L887.912 64.5781C890.832 63.6211 892.297 61.2676 892.307 58.7188V57.0391H894.494V58.6211ZM890.842 70.3398C890.822 68.1914 893.117 66.9316 896.838 66.9414C900.578 66.9316 902.863 68.1914 902.873 70.3398C902.863 72.4883 900.578 73.7188 896.838 73.7188C893.117 73.7188 890.822 72.4883 890.842 70.3398ZM892.99 70.3398C892.98 71.4141 894.387 72.0098 896.838 72.0195C899.309 72.0098 900.705 71.4141 900.705 70.3398C900.705 69.2266 899.309 68.6309 896.838 68.6211C894.387 68.6309 892.98 69.2266 892.99 70.3398ZM897.131 61.2773V59.5H900.646V56.082H902.814V66.4727H900.646V61.2773H897.131Z" fill="#282828"/>
<path d="M963.758 61.5089C966.488 63.0358 966.488 66.9642 963.758 68.4911L951.953 75.0941C949.286 76.5853 946 74.658 946 71.603L946 58.397C946 55.342 949.286 53.4146 951.953 54.9059L963.758 61.5089Z" fill="#FFC633"/>
<rect x="975" y="35" width="227" height="60" rx="16" fill="#F5F5F5"/>
<path d="M1006.94 57.8203C1006.93 63.1426 1005.35 67.7324 999.027 70.9844L997.836 69.3242C1000.77 67.8105 1002.59 66.0527 1003.64 63.9531L998.227 64.4609L997.914 62.6055L1004.31 62.2148C1004.55 61.3848 1004.7 60.5059 1004.77 59.5781H998.832V57.8203H1006.94ZM1006.9 64.7539V62.9766H1010.53V56.082H1012.7V73.7383H1010.53V64.7539H1006.9ZM1031.31 66.043V67.8008H1027.52V73.7969H1025.36V67.8008H1021.23V73.7969H1019.05V67.8008H1015.18V66.043H1031.31ZM1017.15 63.9922V56.9805H1029.34V63.9922H1017.15ZM1019.28 62.2539H1027.17V58.6992H1019.28V62.2539ZM1047.21 56.082V73.7383H1045.06V56.082H1047.21ZM1033.5 69.3047V57.8008H1035.65V67.4492C1038.12 67.4102 1040.76 67.1953 1043.48 66.6484L1043.75 68.4648C1040.65 69.1094 1037.77 69.3145 1035.02 69.3047H1033.5ZM1057.6 58.1133C1057.59 59.7734 1057.44 61.3652 1057.03 62.8594H1059.2V56.5117H1061.25V72.8984H1059.2V64.6172H1056.38C1055.41 66.7461 1053.74 68.6211 1051 70.1641L1049.77 68.6797C1052.16 67.3125 1053.64 65.7207 1054.5 63.8945L1050.08 64.3438L1049.83 62.4688L1055.11 62.1758C1055.3 61.4434 1055.41 60.6719 1055.47 59.8711H1050.69V58.1133H1057.6ZM1062.93 73.7383V56.082H1065V73.7383H1062.93ZM1081.74 56.082V73.7578H1079.55V56.082H1081.74ZM1067.62 63.6016C1067.61 59.793 1069.55 57.3711 1072.23 57.3711C1074.88 57.3711 1076.83 59.793 1076.84 63.6016C1076.83 67.4395 1074.88 69.8516 1072.23 69.8516C1069.55 69.8516 1067.61 67.4395 1067.62 63.6016ZM1069.71 63.6016C1069.71 66.3164 1070.74 67.8887 1072.23 67.8984C1073.71 67.8887 1074.73 66.3164 1074.73 63.6016C1074.73 60.9062 1073.71 59.3242 1072.23 59.3242C1070.74 59.3242 1069.71 60.9062 1069.71 63.6016ZM1090.77 59.207C1090.76 61.6973 1092.15 64.1191 1094.87 65.1445L1093.66 66.8242C1091.77 66.082 1090.42 64.6074 1089.69 62.7812C1088.93 64.7441 1087.5 66.2969 1085.47 67.0781L1084.3 65.3594C1087.11 64.3438 1088.57 61.8535 1088.58 59.207V57.0977H1090.77V59.207ZM1087.48 73.3867V67.918H1089.69V71.6289H1099.52V73.3867H1087.48ZM1093.73 63.7383V62H1096.96V60.2617H1093.73V58.5039H1096.96V56.1016H1099.12V69.207H1096.96V63.7383H1093.73ZM1111.76 61.4531C1111.76 64.1484 1112.87 66.9219 1115.38 68.2305L1114.14 69.832C1112.5 68.9727 1111.39 67.4297 1110.76 65.584C1110.13 67.5762 1109.02 69.2852 1107.37 70.2227L1106.12 68.6211C1108.59 67.1855 1109.7 64.2461 1109.71 61.4531V60.9648H1106.62V59.1875H1109.71V56.707H1111.76V59.1875H1114.81V60.9648H1111.76V61.4531ZM1115.75 72.8789V56.3945H1117.8V62.9961H1119.61V56.082H1121.68V73.7383H1119.61V64.793H1117.8V72.8789H1115.75ZM1126.82 56.8633V62.752C1129.18 62.7227 1131.47 62.5762 1133.91 62.1172L1134.2 63.8945C1131.36 64.4121 1128.8 64.5684 1126.08 64.5586H1124.67V56.8633H1126.82ZM1126.82 67.5273V65.8086H1138.44V70.418H1129.01V71.7656H1138.95V73.5234H1126.84V68.7578H1136.27V67.5273H1126.82ZM1131.66 60.4766V58.7383H1136.27V56.082H1138.44V65.0859H1136.27V60.4766H1131.66ZM1161.8 64.8125V66.5508H1154.98V69.793H1152.78V66.5508H1145.67V64.8125H1161.8ZM1147.39 60.0859C1147.38 57.8691 1149.92 56.4727 1153.71 56.4727C1157.53 56.4727 1160.04 57.8691 1160.04 60.0859C1160.04 62.3125 1157.53 63.6895 1153.71 63.6797C1149.92 63.6895 1147.38 62.3125 1147.39 60.0859ZM1147.64 73.3867V68.1523H1149.83V71.6094H1160.02V73.3867H1147.64ZM1149.73 60.0859C1149.71 61.2578 1151.29 61.9414 1153.71 61.9414C1156.16 61.9414 1157.73 61.2578 1157.72 60.0859C1157.73 58.875 1156.16 58.1914 1153.71 58.1914C1151.29 58.1914 1149.71 58.875 1149.73 60.0859ZM1167.88 57.0781C1169.3 57.0684 1170.54 57.5957 1171.37 58.4844H1175.59V56.082H1177.76V66.4727H1175.59V64.2266H1171.36C1170.52 65.0957 1169.29 65.623 1167.88 65.6133C1165.21 65.623 1163.21 63.8359 1163.21 61.3555C1163.21 58.8555 1165.21 57.0684 1167.88 57.0781ZM1165.28 61.3555C1165.28 62.8008 1166.36 63.7773 1167.88 63.7773C1169.34 63.7773 1170.42 62.8008 1170.43 61.3555C1170.42 59.8613 1169.34 58.9336 1167.88 58.9336C1166.36 58.9336 1165.28 59.8613 1165.28 61.3555ZM1165.79 70.2812C1165.77 68.1035 1168.08 66.834 1171.78 66.8438C1175.49 66.834 1177.81 68.1035 1177.82 70.2812C1177.81 72.4492 1175.49 73.7188 1171.78 73.7188C1168.08 73.7188 1165.77 72.4492 1165.79 70.2812ZM1167.91 70.2812C1167.89 71.4043 1169.33 72.0098 1171.78 72.0195C1174.28 72.0098 1175.69 71.4043 1175.69 70.2812C1175.69 69.1289 1174.28 68.5137 1171.78 68.5039C1169.33 68.5137 1167.89 69.1289 1167.91 70.2812ZM1172.35 60.2227C1172.45 60.584 1172.5 60.9551 1172.5 61.3555C1172.5 61.7461 1172.45 62.1172 1172.36 62.4688H1175.59V60.2227H1172.35Z" fill="#282828"/>
<g filter="url(#filter1_f_8389_9839)">
<rect x="382" y="172" width="345" height="64" rx="16" fill="#578DF4" fill-opacity="0.5"/>
</g>
<rect x="371" y="155" width="367" height="79" rx="16" fill="#4B84F0"/>
<path d="M483.841 185.05C486.239 185.05 488.505 186.04 488.505 189.054C488.505 192.046 486.239 193.058 483.841 193.058H479.001C476.515 193.058 474.337 192.046 474.337 189.054C474.337 186.04 476.515 185.05 479.001 185.05H483.841ZM490.529 196.644H486.547V200.296H483.599V196.644H481.663V200.23H478.649V196.644H471.895V194.488H490.969L490.529 196.644ZM488.197 204.212H474.755V198.712H477.813V202.012H488.637L488.197 204.212ZM483.555 187.228H479.287C478.099 187.228 477.285 187.734 477.285 189.054C477.285 190.352 478.099 190.88 479.287 190.88H483.555C484.655 190.88 485.557 190.352 485.557 189.054C485.557 187.734 484.655 187.228 483.555 187.228ZM500.169 191.122V187.646H493.459V185.468H503.183V193.278H496.517V196.798H498.101C500.103 196.798 503.161 196.71 505.273 196.27V198.448C503.029 198.822 499.905 198.976 497.837 198.976H493.459V191.122H500.169ZM509.145 184.17V203.86L506.153 204.3V184.61L509.145 184.17ZM526.198 196.534V193.872H522.238V191.672H526.198V189.582H522.81C521.292 192.86 517.464 195.566 513.878 196.644L512.448 194.73C516.826 193.52 520.324 189.978 520.324 187.668V187.36H513.592V185.16H523.492V186.678C523.492 186.92 523.47 187.162 523.448 187.382H526.198V184.61L529.19 184.17V196.094L526.198 196.534ZM524.68 196.666C527.078 196.666 529.256 197.634 529.256 200.604C529.256 203.596 527.078 204.564 524.68 204.564H519.972C517.486 204.564 515.264 203.596 515.264 200.604C515.264 197.634 517.486 196.666 519.972 196.666H524.68ZM524.394 198.844H520.214C519.026 198.844 518.212 199.328 518.212 200.604C518.212 201.902 519.026 202.386 520.214 202.386H524.394C525.494 202.386 526.308 201.902 526.308 200.604C526.308 199.328 525.494 198.844 524.394 198.844ZM546.222 196.336V193.41H542.812V192.706C541.954 194.334 540.04 195.192 537.95 195.192C535.112 195.192 532.604 193.608 532.604 190.66V189.362C532.604 186.414 535.112 184.83 537.95 184.83C540.04 184.83 541.954 185.688 542.812 187.338V186.172H546.222V184.61L549.192 184.17V195.896L546.222 196.336ZM544.704 196.666C547.102 196.666 549.28 197.634 549.28 200.604C549.28 203.596 547.102 204.564 544.704 204.564H539.996C537.51 204.564 535.288 203.596 535.288 200.604C535.288 197.634 537.51 196.666 539.996 196.666H544.704ZM544.418 198.844H540.238C539.05 198.844 538.236 199.328 538.236 200.604C538.236 201.902 539.05 202.386 540.238 202.386H544.418C545.518 202.386 546.332 201.902 546.332 200.604C546.332 199.328 545.518 198.844 544.418 198.844ZM540.326 190.572V189.45C540.326 187.91 539.292 187.03 537.95 187.03C536.608 187.03 535.574 187.91 535.574 189.45V190.572C535.574 192.112 536.608 192.992 537.95 192.992C539.292 192.992 540.326 192.112 540.326 190.572ZM543.296 190.66C543.296 190.858 543.274 191.034 543.252 191.21H546.222V188.35H543.186C543.252 188.68 543.296 189.01 543.296 189.362V190.66ZM562.709 188.042H565.701L565.833 193.652H569.551L569.727 188.042H572.741L572.521 193.652H575.513L575.073 195.852H560.047V193.652H562.819L562.709 188.042ZM577.229 199.174L576.789 201.418H558.155V199.174H577.229ZM574.589 187.272H560.751V185.072H574.589V187.272ZM578.178 199.438H586.274V196.248H581.038V189.582H591.29V187.316H580.95V185.116H594.326V191.782H584.096V194.048H594.92L594.48 196.248H589.442V199.438H597.252L596.812 201.682H578.178V199.438ZM608.828 184.918L611.556 184.478V203.222L608.828 203.662V192.112H605.902V189.846H608.828V184.918ZM601.502 192.794C601.656 192.442 601.678 191.804 601.678 191.342V185.732L604.538 185.292V191.276C604.538 191.738 604.516 192.266 604.692 192.684C605.264 193.96 607.112 196.578 608.3 198.008L606.43 199.702C605.506 198.558 604.098 196.798 603.196 195.456C602.206 196.952 600.842 198.712 599.632 200.164L597.784 198.558C599.302 196.732 600.82 194.268 601.502 192.794ZM612.854 184.61L615.626 184.17V203.86L612.854 204.3V184.61ZM637.299 199.174L636.859 201.418H618.225V199.174H637.299ZM629.335 184.984V188.328C629.335 188.79 629.379 189.34 629.731 189.626C631.293 190.946 634.175 193.124 636.089 194.378L634.461 196.226C632.525 194.994 629.313 192.794 627.817 191.452C626.277 192.772 623.131 195.082 621.019 196.38L619.369 194.554C621.415 193.212 624.165 191.188 625.705 189.802C626.057 189.494 626.189 188.922 626.189 188.46V185.424L629.335 184.984Z" fill="white"/>
<rect x="758.5" y="156.5" width="453" height="75" rx="19.5" stroke="#E1E6EF"/>
<rect x="768" y="164" width="103" height="60" rx="16" fill="#F5F5F5"/>
<path d="M818.914 195.609V197.387H811.902V202.738H809.754V197.387H802.781V195.609H818.914ZM804.852 194.145V185.844H816.98V187.562H807V189.125H816.59V190.805H807V192.426H817.176V194.145H804.852ZM834.793 185.082V194.555H832.605V185.082H834.793ZM820.398 190.004C820.398 187.553 822.43 185.854 825.164 185.863C827.889 185.854 829.92 187.553 829.91 190.004C829.92 192.416 827.889 194.115 825.164 194.105C822.43 194.115 820.398 192.416 820.398 190.004ZM822.527 190.004C822.518 191.42 823.621 192.318 825.164 192.328C826.678 192.318 827.781 191.42 827.781 190.004C827.781 188.588 826.678 187.67 825.164 187.68C823.621 187.67 822.518 188.588 822.527 190.004ZM823.113 202.523V195.375H825.262V197.191H832.625V195.375H834.793V202.523H823.113ZM825.262 200.766H832.625V198.891H825.262V200.766Z" fill="#282828"/>
<path d="M911.758 190.509C914.488 192.036 914.488 195.964 911.758 197.491L899.953 204.094C897.286 205.585 894 203.658 894 200.603L894 187.397C894 184.342 897.286 182.415 899.953 183.906L911.758 190.509Z" fill="#FFC633"/>
<rect x="933" y="164" width="103" height="60" rx="16" fill="#F5F5F5"/>
<path d="M974.129 188.207C974.109 190.521 975.574 192.738 978.348 193.637L977.215 195.355C975.262 194.691 973.865 193.363 973.094 191.664C972.312 193.539 970.857 195.004 968.797 195.727L967.586 194.008C970.486 193.061 971.941 190.697 971.941 188.188V186.176H974.129V188.207ZM970.418 202.387V196.781H972.645V200.629H982.43V202.387H970.418ZM979.559 198.051V185.082H981.727V190.297H984.188V192.133H981.727V198.051H979.559ZM1001.14 192.719V194.32H994.188V195.609H999.168V199.75H989.129V200.961H999.656V202.582H987V198.266H997.039V197.172H986.98V195.609H992.039V194.32H985.125V192.719H1001.14ZM985.828 190.512C989.314 190.336 991.365 189.398 991.814 188.148H986.668V186.527H992.039V185.043H994.188V186.527H999.598V188.148H994.412C994.842 189.398 996.893 190.336 1000.42 190.512L999.773 192.133C996.6 191.938 994.227 191.078 993.113 189.652C992 191.078 989.637 191.938 986.434 192.133L985.828 190.512Z" fill="#282828"/>
<path d="M1076.76 190.509C1079.49 192.036 1079.49 195.964 1076.76 197.491L1064.95 204.094C1062.29 205.585 1059 203.658 1059 200.603L1059 187.397C1059 184.342 1062.29 182.415 1064.95 183.906L1076.76 190.509Z" fill="#FFC633"/>
<rect x="1098" y="164" width="103" height="60" rx="16" fill="#F5F5F5"/>
<path d="M1147.59 185.082V194.027H1145.42V192.484H1141.16V190.824H1145.42V189.086H1141.38C1140.29 191.781 1137.7 193.539 1133.8 194.418L1133.04 192.641C1137.19 191.771 1139.26 189.945 1139.56 187.602H1134.01V185.844H1141.98C1141.98 186.4 1141.93 186.928 1141.85 187.426H1145.42V185.082H1147.59ZM1135.96 196.43V194.711H1147.59V199.359H1138.15V200.824H1148.05V202.562H1135.98V197.738H1145.42V196.43H1135.96ZM1159.95 186.918V188.168C1159.95 189.74 1159.95 191.967 1159.46 195.004L1157.31 194.828C1157.74 192.152 1157.79 190.17 1157.8 188.656H1150.87V186.918H1159.95ZM1149.93 197.289C1150.97 197.279 1152.14 197.27 1153.35 197.24V191.957H1155.5V197.172C1157.29 197.094 1159.14 196.967 1160.83 196.762L1160.95 198.383C1157.3 198.979 1153.26 199.047 1150.14 199.027L1149.93 197.289ZM1161.75 202.738V185.082H1163.93V192.27H1166.49V194.105H1163.93V202.738H1161.75Z" fill="#282828"/>
<defs>
<filter id="filter0_f_8389_9839" x="366" y="27" width="377" height="96" filterUnits="userSpaceOnUse" color-interpolation-filters="sRGB">
<feFlood flood-opacity="0" result="BackgroundImageFix"/>
<feBlend mode="normal" in="SourceGraphic" in2="BackgroundImageFix" result="shape"/>
<feGaussianBlur stdDeviation="8" result="effect1_foregroundBlur_8389_9839"/>
</filter>
<filter id="filter1_f_8389_9839" x="366" y="156" width="377" height="96" filterUnits="userSpaceOnUse" color-interpolation-filters="sRGB">
<feFlood flood-opacity="0" result="BackgroundImageFix"/>
<feBlend mode="normal" in="SourceGraphic" in2="BackgroundImageFix" result="shape"/>
<feGaussianBlur stdDeviation="8" result="effect1_foregroundBlur_8389_9839"/>
</filter>
<clipPath id="clip0_8389_9839">
<rect width="268" height="258" fill="white"/>
</clipPath>
</defs>
</svg>
