<svg width="339" height="476" viewBox="0 0 339 476" fill="none" xmlns="http://www.w3.org/2000/svg">
<rect width="183" height="62" rx="31" fill="#69A2FF"/>
<path d="M20.8635 24.864L25.0915 35.728H22.9075L21.9135 32.956H17.6295L16.6215 35.728H14.5635L18.7915 24.864H20.8635ZM19.7995 27.034L18.2035 31.388H21.3535L19.7995 27.034ZM28.2099 33.754V35.938L26.2219 35.952V33.754H28.2099ZM34.721 28.966C34.721 27.622 36.121 26.894 37.871 26.894C39.621 26.894 41.021 27.622 41.021 28.966V29.176C41.021 30.254 40.125 30.968 38.865 31.206V32.004C39.817 31.962 40.727 31.878 41.819 31.682V33.04C39.831 33.32 37.675 33.404 35.519 33.404H33.825V32.032H36.905V31.206C35.631 30.982 34.721 30.268 34.721 29.176V28.966ZM44.241 24.29V28.56H46.173L45.893 30.044H44.241V34.006L42.309 34.286V24.57L44.241 24.29ZM44.311 37.044H35.995V33.894H37.927V35.644H44.591L44.311 37.044ZM41.315 26.642H34.287V25.326H36.961V24.444L38.893 24.164V25.326H41.595L41.315 26.642ZM39.201 29.022C39.201 28.56 38.641 28.21 37.871 28.21C37.101 28.21 36.541 28.56 36.541 29.022V29.12C36.541 29.568 37.101 29.974 37.871 29.974C38.641 29.974 39.201 29.568 39.201 29.12V29.022ZM55.4292 32.158V30.464H52.9092V29.064H55.4292V27.734H53.2732C52.3072 29.82 49.8712 31.542 47.5892 32.228L46.6792 31.01C49.4652 30.24 51.6912 27.986 51.6912 26.516V26.32H47.4072V24.92H53.7072V25.886C53.7072 26.04 53.6932 26.194 53.6792 26.334H55.4292V24.57L57.3332 24.29V31.878L55.4292 32.158ZM54.4632 32.242C55.9892 32.242 57.3752 32.858 57.3752 34.748C57.3752 36.652 55.9892 37.268 54.4632 37.268H51.4672C49.8852 37.268 48.4712 36.652 48.4712 34.748C48.4712 32.858 49.8852 32.242 51.4672 32.242H54.4632ZM54.2812 33.628H51.6212C50.8652 33.628 50.3472 33.936 50.3472 34.748C50.3472 35.574 50.8652 35.882 51.6212 35.882H54.2812C54.9812 35.882 55.4992 35.574 55.4992 34.748C55.4992 33.936 54.9812 33.628 54.2812 33.628ZM70.6252 24.85C72.1512 24.85 73.5932 25.48 73.5932 27.398C73.5932 29.302 72.1512 29.946 70.6252 29.946H67.5452C65.9632 29.946 64.5772 29.302 64.5772 27.398C64.5772 25.48 65.9632 24.85 67.5452 24.85H70.6252ZM74.8812 32.326H70.4572V34.664H68.4972V32.326H63.0232V30.926H75.1612L74.8812 32.326ZM73.3972 37.044H64.8432V33.544H66.7892V35.644H73.6772L73.3972 37.044ZM70.4432 26.236H67.7272C66.9712 26.236 66.4532 26.558 66.4532 27.398C66.4532 28.224 66.9712 28.56 67.7272 28.56H70.4432C71.1432 28.56 71.7172 28.224 71.7172 27.398C71.7172 26.558 71.1432 26.236 70.4432 26.236ZM84.8374 32.032V30.17H82.6674V29.722C82.1214 30.758 80.9034 31.304 79.5734 31.304C77.7674 31.304 76.1714 30.296 76.1714 28.42V27.594C76.1714 25.718 77.7674 24.71 79.5734 24.71C80.9034 24.71 82.1214 25.256 82.6674 26.306V25.564H84.8374V24.57L86.7274 24.29V31.752L84.8374 32.032ZM83.8714 32.242C85.3974 32.242 86.7834 32.858 86.7834 34.748C86.7834 36.652 85.3974 37.268 83.8714 37.268H80.8754C79.2934 37.268 77.8794 36.652 77.8794 34.748C77.8794 32.858 79.2934 32.242 80.8754 32.242H83.8714ZM83.6894 33.628H81.0294C80.2734 33.628 79.7554 33.936 79.7554 34.748C79.7554 35.574 80.2734 35.882 81.0294 35.882H83.6894C84.3894 35.882 84.9074 35.574 84.9074 34.748C84.9074 33.936 84.3894 33.628 83.6894 33.628ZM81.0854 28.364V27.65C81.0854 26.67 80.4274 26.11 79.5734 26.11C78.7194 26.11 78.0614 26.67 78.0614 27.65V28.364C78.0614 29.344 78.7194 29.904 79.5734 29.904C80.4274 29.904 81.0854 29.344 81.0854 28.364ZM82.9754 28.42C82.9754 28.546 82.9614 28.658 82.9474 28.77H84.8374V26.95H82.9054C82.9474 27.16 82.9754 27.37 82.9754 27.594V28.42ZM99.1336 24.29V28.448H101.066L100.786 29.862H99.1336V33.376L97.2016 33.656V24.57L99.1336 24.29ZM88.7176 30.926H90.8736V27.846H92.7356V30.926C93.9676 30.884 95.5216 30.772 96.7116 30.576V31.962C94.7236 32.242 92.5676 32.326 90.4116 32.326H88.7176V30.926ZM99.2036 37.044H90.8876V33.11H92.8196V35.644H99.4836L99.2036 37.044ZM94.1496 26.208H89.3056V24.808H96.1516C96.0956 26.264 95.8856 28.798 95.5496 29.974H93.6736C93.9816 28.938 94.1496 27.104 94.1496 26.208ZM106.5 28.714V26.502H102.23V25.116H108.418V30.086H104.176V32.326H105.184C106.458 32.326 108.404 32.27 109.748 31.99V33.376C108.32 33.614 106.332 33.712 105.016 33.712H102.23V28.714H106.5ZM112.212 24.29V36.82L110.308 37.1V24.57L112.212 24.29ZM120.814 26.754H122.718L122.802 30.324H125.168L125.28 26.754H127.198L127.058 30.324H128.962L128.682 31.724H119.12V30.324H120.884L120.814 26.754ZM130.054 33.838L129.774 35.266H117.916V33.838H130.054ZM128.374 26.264H119.568V24.864H128.374V26.264ZM130.658 34.006H135.81V31.976H132.478V27.734H139.002V26.292H132.422V24.892H140.934V29.134H134.424V30.576H141.312L141.032 31.976H137.826V34.006H142.796L142.516 35.434H130.658V34.006ZM150.162 24.766L151.898 24.486V36.414L150.162 36.694V29.344H148.3V27.902H150.162V24.766ZM145.5 29.778C145.598 29.554 145.612 29.148 145.612 28.854V25.284L147.432 25.004V28.812C147.432 29.106 147.418 29.442 147.53 29.708C147.894 30.52 149.07 32.186 149.826 33.096L148.636 34.174C148.048 33.446 147.152 32.326 146.578 31.472C145.948 32.424 145.08 33.544 144.31 34.468L143.134 33.446C144.1 32.284 145.066 30.716 145.5 29.778ZM152.724 24.57L154.488 24.29V36.82L152.724 37.1V24.57ZM168.28 33.838L168 35.266H156.142V33.838H168.28ZM163.212 24.808V26.936C163.212 27.23 163.24 27.58 163.464 27.762C164.458 28.602 166.292 29.988 167.51 30.786L166.474 31.962C165.242 31.178 163.198 29.778 162.246 28.924C161.266 29.764 159.264 31.234 157.92 32.06L156.87 30.898C158.172 30.044 159.922 28.756 160.902 27.874C161.126 27.678 161.21 27.314 161.21 27.02V25.088L163.212 24.808Z" fill="white"/>
<rect y="70" width="183" height="62" rx="31" fill="#4B84F0"/>
<path d="M38.7614 102.662C38.7614 105.196 36.7874 105.728 35.2614 105.728H31.0474V94.864H34.9814C36.4934 94.864 38.1174 95.536 38.1314 97.692C38.1454 98.952 37.4034 99.806 36.1434 100.044V100.072C37.6834 100.254 38.7614 101.332 38.7614 102.662ZM36.2274 97.902C36.2274 96.768 35.4434 96.432 34.5334 96.432H33.0354V99.302H34.3514C35.2614 99.302 36.2274 98.994 36.2274 97.902ZM36.7734 102.48C36.7734 101.052 35.5694 100.814 34.4774 100.814H33.0354V104.16H34.8414C35.9054 104.16 36.7734 103.74 36.7734 102.48ZM42.1142 103.754V105.938L40.1262 105.952V103.754H42.1142ZM59.6573 103.67L59.3773 105.098H47.5193V103.67H59.6573ZM49.0033 95.2H57.9213C57.8653 98.056 57.6133 100.408 56.7033 102.998H54.7713C55.5133 101.01 55.9473 98.196 55.9473 96.586H49.0033V95.2ZM65.5115 97.818V96.418H61.2415V95.032H67.4155V99.176H63.1875V100.604H64.1955C65.4555 100.604 67.3875 100.52 68.7455 100.268V101.668C67.3035 101.906 65.3295 101.99 64.0275 101.99H61.2415V97.818H65.5115ZM71.2235 94.29V103.516L69.3195 103.796V94.57L71.2235 94.29ZM71.3075 107.044H63.0895V103.166H65.0355V105.644H71.5875L71.3075 107.044ZM82.0756 102.158V100.464H79.5556V99.064H82.0756V97.734H79.9196C78.9536 99.82 76.5176 101.542 74.2356 102.228L73.3256 101.01C76.1116 100.24 78.3376 97.986 78.3376 96.516V96.32H74.0536V94.92H80.3536V95.886C80.3536 96.04 80.3396 96.194 80.3256 96.334H82.0756V94.57L83.9796 94.29V101.878L82.0756 102.158ZM81.1096 102.242C82.6356 102.242 84.0216 102.858 84.0216 104.748C84.0216 106.652 82.6356 107.268 81.1096 107.268H78.1136C76.5316 107.268 75.1176 106.652 75.1176 104.748C75.1176 102.858 76.5316 102.242 78.1136 102.242H81.1096ZM80.9276 103.628H78.2676C77.5116 103.628 76.9936 103.936 76.9936 104.748C76.9936 105.574 77.5116 105.882 78.2676 105.882H80.9276C81.6276 105.882 82.1456 105.574 82.1456 104.748C82.1456 103.936 81.6276 103.628 80.9276 103.628ZM94.8178 102.032V100.17H92.6478V99.722C92.1018 100.758 90.8838 101.304 89.5538 101.304C87.7478 101.304 86.1518 100.296 86.1518 98.42V97.594C86.1518 95.718 87.7478 94.71 89.5538 94.71C90.8838 94.71 92.1018 95.256 92.6478 96.306V95.564H94.8178V94.57L96.7078 94.29V101.752L94.8178 102.032ZM93.8518 102.242C95.3778 102.242 96.7638 102.858 96.7638 104.748C96.7638 106.652 95.3778 107.268 93.8518 107.268H90.8558C89.2738 107.268 87.8598 106.652 87.8598 104.748C87.8598 102.858 89.2738 102.242 90.8558 102.242H93.8518ZM93.6698 103.628H91.0098C90.2538 103.628 89.7358 103.936 89.7358 104.748C89.7358 105.574 90.2538 105.882 91.0098 105.882H93.6698C94.3698 105.882 94.8878 105.574 94.8878 104.748C94.8878 103.936 94.3698 103.628 93.6698 103.628ZM91.0658 98.364V97.65C91.0658 96.67 90.4078 96.11 89.5538 96.11C88.6998 96.11 88.0418 96.67 88.0418 97.65V98.364C88.0418 99.344 88.6998 99.904 89.5538 99.904C90.4078 99.904 91.0658 99.344 91.0658 98.364ZM92.9558 98.42C92.9558 98.546 92.9418 98.658 92.9278 98.77H94.8178V96.95H92.8858C92.9278 97.16 92.9558 97.37 92.9558 97.594V98.42ZM113.374 94.29V106.82L111.484 107.1V94.57L113.374 94.29ZM104.918 104.398H102.818V102.998H105.338C107.032 102.998 109.258 102.886 110.966 102.592V104.006C109.16 104.314 107.032 104.398 104.918 104.398ZM110.042 97.958V98.532C110.042 100.45 108.446 101.472 106.64 101.472C104.834 101.472 103.238 100.45 103.238 98.532V97.958C103.238 96.04 104.834 95.018 106.64 95.018C108.446 95.018 110.042 96.04 110.042 97.958ZM108.152 98.532V97.958C108.152 96.978 107.494 96.418 106.64 96.418C105.786 96.418 105.128 96.978 105.128 97.958V98.532C105.128 99.512 105.786 100.072 106.64 100.072C107.494 100.072 108.152 99.512 108.152 98.532ZM125.738 94.29V99.078H127.754L127.474 100.646H125.738V106.82L123.82 107.1V94.57L125.738 94.29ZM120.04 94.934V98.616C120.04 98.91 120.124 99.218 120.292 99.442C121.02 100.422 122.126 101.766 123.078 102.83L121.958 103.908C120.978 102.872 119.788 101.556 119.074 100.604C118.248 101.654 117.044 103.138 116.05 104.216L114.874 103.194C115.826 102.088 116.946 100.744 117.772 99.554C117.94 99.316 118.08 98.994 118.08 98.7V95.214L120.04 94.934ZM134.966 94.808V96.768C134.966 97.062 134.994 97.412 135.218 97.594C136.212 98.434 138.046 99.82 139.264 100.618L138.228 101.794C136.996 101.01 134.952 99.61 134 98.756C133.02 99.596 131.018 101.066 129.674 101.892L128.624 100.73C129.926 99.876 131.676 98.588 132.656 97.706C132.88 97.51 132.964 97.146 132.964 96.852V95.088L134.966 94.808ZM127.896 104.006H133.048V101.248H135.064V104.006H140.034L139.754 105.434H127.896V104.006ZM140.638 100.548H145.79V99.764H142.458V94.598H150.914V95.872H144.404V96.572H150.872V97.79H144.404V98.49H151.236L150.956 99.764H147.806V100.548H152.776L152.496 101.906H140.638V100.548ZM148.24 102.648C149.808 102.648 151.222 103.208 151.222 104.986C151.222 106.792 149.808 107.352 148.24 107.352H145.146C143.578 107.352 142.164 106.792 142.164 104.986C142.164 103.208 143.578 102.648 145.146 102.648H148.24ZM148.17 104.048H145.23C144.6 104.048 144.04 104.286 144.04 104.986C144.04 105.714 144.6 105.952 145.23 105.952H148.17C148.8 105.952 149.346 105.714 149.346 104.986C149.346 104.286 148.8 104.048 148.17 104.048Z" fill="white"/>
<rect y="140" width="183" height="62" rx="31" fill="#336BCD"/>
<path d="M55.2548 175.784H52.3428C49.3748 175.784 47.9188 174.44 47.9188 171.598V169.05C47.9188 166.292 49.5568 164.864 52.3008 164.864H55.1148V166.502H52.5668C50.7328 166.502 49.8928 167.384 49.8928 169.344V171.29C49.8928 172.998 50.4388 174.16 52.5528 174.16H55.5348L55.2548 175.784ZM59.2655 173.754V175.938L57.2775 175.952V173.754H59.2655ZM76.8086 174.006L76.5286 175.434H64.6706V174.006H67.1626V169.708H69.0806V174.006H70.0886V169.708H72.0066V174.006H76.8086ZM73.1546 166.418H66.1546V165.032H75.1286C75.1006 167.244 74.8626 170.492 74.4566 172.676H72.5106C72.8606 170.688 73.1686 168.14 73.1546 166.418ZM89.2708 171.822H86.7228V172.998H87.6888V177.072L85.7568 177.352V174.398H79.1208V172.998H80.2828V171.822H77.4128V170.45H89.5508L89.2708 171.822ZM85.0148 164.57C86.5408 164.57 87.9828 165.2 87.9828 167.076C87.9828 168.966 86.5408 169.596 85.0148 169.596H81.9348C80.3528 169.596 78.9668 168.966 78.9668 167.076C78.9668 165.2 80.3528 164.57 81.9348 164.57H85.0148ZM84.8328 165.956H82.1168C81.3608 165.956 80.8428 166.264 80.8428 167.076C80.8428 167.888 81.3608 168.21 82.1168 168.21H84.8328C85.5328 168.21 86.1068 167.888 86.1068 167.076C86.1068 166.264 85.5328 165.956 84.8328 165.956ZM82.2428 171.822V172.998H84.7488V171.822H82.2428ZM94.9328 164.752H101.065V170.268L99.1748 170.548H94.9328V164.752ZM105.069 173.81L101.751 173.824C101.751 174.076 101.779 174.342 102.003 174.454C103.179 175.14 104.327 175.7 105.741 176.33L104.845 177.506C103.431 176.918 101.989 176.232 100.813 175.602C99.7348 176.204 98.1948 176.988 96.7808 177.604L95.8568 176.442C97.3688 175.798 98.4608 175.182 99.5108 174.552C99.7348 174.426 99.8048 174.104 99.8188 173.824H96.3328V172.494H99.8188V171.332L101.751 171.052V172.494H105.349L105.069 173.81ZM105.027 164.29V171.36L103.137 171.64V164.57L105.027 164.29ZM99.1748 166.152H96.8228V169.19H99.1748V166.152ZM118.151 166.936C120.069 166.936 121.035 167.664 121.035 168.966C121.035 170.268 120.069 170.996 118.151 170.996H115.463C113.545 170.996 112.579 170.268 112.579 168.966C112.579 167.664 113.545 166.936 115.463 166.936H118.151ZM122.603 172.956H118.179V174.832H116.219V172.956H110.745V171.598H122.883L122.603 172.956ZM121.119 177.044H112.565V173.824H114.511V175.644H121.399L121.119 177.044ZM121.455 166.488H112.019V165.144H115.841V164.108L117.773 163.828V165.144H121.735L121.455 166.488ZM117.983 168.252H115.631C114.847 168.252 114.455 168.448 114.455 168.966C114.455 169.484 114.847 169.68 115.631 169.68H117.983C118.767 169.68 119.159 169.484 119.159 168.966C119.159 168.448 118.767 168.252 117.983 168.252ZM128.177 167.874V166.418H124.467V165.032H130.067V169.232H126.413V170.842H127.141C128.401 170.842 130.347 170.772 131.691 170.52V171.92C130.263 172.158 128.261 172.242 126.973 172.242H124.467V167.874H128.177ZM132.545 173.964V170.114H130.613V168.714H132.545V167.454H130.613V166.068H132.545V164.57L134.449 164.29V173.684L132.545 173.964ZM134.533 177.044H126.315V173.166H128.261V175.644H134.813L134.533 177.044Z" fill="white"/>
<rect y="210" width="183" height="62" rx="31" fill="#2057B1"/>
<path d="M31.8804 240.282C31.8804 244.076 30.3544 245.728 26.8404 245.728H23.2704V234.864H26.8404C30.2984 234.864 31.8804 236.558 31.8804 240.282ZM29.7944 240.296C29.7944 237.79 28.8704 236.46 27.1344 236.46H25.2584V244.118H27.1064C28.8984 244.118 29.7944 242.844 29.7944 240.296ZM35.8388 243.754V245.938L33.8508 245.952V243.754H35.8388ZM42.3499 238.966C42.3499 237.622 43.7499 236.894 45.4999 236.894C47.2499 236.894 48.6499 237.622 48.6499 238.966V239.176C48.6499 240.254 47.7539 240.968 46.4939 241.206V242.004C47.4459 241.962 48.3559 241.878 49.4479 241.682V243.04C47.4599 243.32 45.3039 243.404 43.1479 243.404H41.4539V242.032H44.5339V241.206C43.2599 240.982 42.3499 240.268 42.3499 239.176V238.966ZM51.8699 234.29V238.56H53.8019L53.5219 240.044H51.8699V244.006L49.9379 244.286V234.57L51.8699 234.29ZM51.9399 247.044H43.6239V243.894H45.5559V245.644H52.2199L51.9399 247.044ZM48.9439 236.642H41.9159V235.326H44.5899V234.444L46.5219 234.164V235.326H49.2239L48.9439 236.642ZM46.8299 239.022C46.8299 238.56 46.2699 238.21 45.4999 238.21C44.7299 238.21 44.1699 238.56 44.1699 239.022V239.12C44.1699 239.568 44.7299 239.974 45.4999 239.974C46.2699 239.974 46.8299 239.568 46.8299 239.12V239.022ZM63.0581 242.158V240.464H60.5381V239.064H63.0581V237.734H60.9021C59.9361 239.82 57.5001 241.542 55.2181 242.228L54.3081 241.01C57.0941 240.24 59.3201 237.986 59.3201 236.516V236.32H55.0361V234.92H61.3361V235.886C61.3361 236.04 61.3221 236.194 61.3081 236.334H63.0581V234.57L64.9621 234.29V241.878L63.0581 242.158ZM62.0921 242.242C63.6181 242.242 65.0041 242.858 65.0041 244.748C65.0041 246.652 63.6181 247.268 62.0921 247.268H59.0961C57.5141 247.268 56.1001 246.652 56.1001 244.748C56.1001 242.858 57.5141 242.242 59.0961 242.242H62.0921ZM61.9101 243.628H59.2501C58.4941 243.628 57.9761 243.936 57.9761 244.748C57.9761 245.574 58.4941 245.882 59.2501 245.882H61.9101C62.6101 245.882 63.1281 245.574 63.1281 244.748C63.1281 243.936 62.6101 243.628 61.9101 243.628ZM74.5861 240.464C74.5861 241.122 74.1101 241.584 73.3961 241.584C72.7521 241.584 72.2761 241.108 72.2761 240.464C72.2761 239.792 72.7661 239.344 73.4521 239.344C74.1101 239.344 74.5861 239.834 74.5861 240.464ZM87.8786 237.734V238.546C87.8786 240.422 86.3106 241.43 84.5466 241.43C82.7826 241.43 81.2146 240.422 81.2146 238.546V237.734C81.2146 235.858 82.7826 234.85 84.5466 234.85C86.3106 234.85 87.8786 235.858 87.8786 237.734ZM89.5726 234.57L91.5046 234.29V237.552H93.5206L93.2406 239.022H91.5046V243.208L89.5726 243.488V234.57ZM91.6866 247.044H83.3706V242.97H85.3026V245.644H91.9666L91.6866 247.044ZM85.9886 238.49V237.79C85.9886 236.81 85.3586 236.25 84.5466 236.25C83.7346 236.25 83.1046 236.81 83.1046 237.79V238.49C83.1046 239.47 83.7346 240.03 84.5466 240.03C85.3586 240.03 85.9886 239.47 85.9886 238.49ZM101.363 235.004L101.083 236.39H98.8288V237.916C98.8288 238.21 98.8848 238.532 99.0808 238.742C99.9488 239.708 100.831 240.534 101.811 241.36L100.691 242.438C99.6968 241.64 98.7588 240.814 97.8768 239.904C96.9948 240.87 95.9448 241.878 94.9228 242.746L93.7468 241.724C94.7268 240.842 95.7348 239.974 96.5888 238.854C96.7708 238.616 96.8968 238.294 96.8968 238V236.39H94.3768V235.004H101.363ZM102.693 243.656V238.994H100.299V237.594H102.693V234.57L104.597 234.29V243.376L102.693 243.656ZM104.681 247.044H96.4628V242.998H98.4088V245.644H104.961L104.681 247.044ZM113.045 242.186H115.565V239.484H113.045V242.186ZM113.045 238.084H115.565V235.144H117.455V243.292L115.565 243.572H111.155V235.144H113.045V238.084ZM121.249 234.29V246.82L119.345 247.1V234.57L121.249 234.29ZM130.925 242.242C132.451 242.242 133.837 242.858 133.837 244.748C133.837 246.652 132.451 247.268 130.925 247.268H127.929C126.347 247.268 124.933 246.652 124.933 244.748C124.933 242.858 126.347 242.242 127.929 242.242H130.925ZM127.915 234.556V236.964C127.915 237.258 127.971 237.58 128.167 237.79C129.035 238.756 129.973 239.68 130.953 240.506L129.833 241.584C128.839 240.786 127.803 239.89 126.949 238.952C126.095 239.932 124.947 241.024 123.925 241.892L122.749 240.87C123.729 239.988 124.765 239.022 125.619 237.902C125.801 237.664 125.927 237.342 125.927 237.048V234.836L127.915 234.556ZM133.655 234.29V237.65H135.671L135.391 239.064H133.655V241.738L131.737 242.018V234.57L133.655 234.29ZM130.743 243.628H128.083C127.327 243.628 126.809 243.936 126.809 244.748C126.809 245.574 127.327 245.882 128.083 245.882H130.743C131.443 245.882 131.961 245.574 131.961 244.748C131.961 243.936 131.443 243.628 130.743 243.628ZM143.877 234.486V238.742H145.137V234.57L146.901 234.29V246.82L145.137 247.1V240.156H143.877V246.414L142.141 246.694V234.766L143.877 234.486ZM140.895 236.586H138.389V242.27H139.103C139.915 242.27 140.825 242.214 141.623 242.032V243.39C140.811 243.558 139.831 243.628 138.809 243.628H136.597V235.2H140.895V236.586ZM160.651 240.156L160.371 241.556H148.513V240.156H160.651ZM156.115 234.43C157.641 234.43 159.083 235.032 159.083 236.866C159.083 238.7 157.641 239.316 156.115 239.316H153.035C151.453 239.316 150.067 238.7 150.067 236.866C150.067 235.032 151.453 234.43 153.035 234.43H156.115ZM155.933 235.816H153.217C152.461 235.816 151.943 236.11 151.943 236.866C151.943 237.622 152.461 237.93 153.217 237.93H155.933C156.633 237.93 157.207 237.622 157.207 236.866C157.207 236.11 156.633 235.816 155.933 235.816ZM156.115 242.396C157.641 242.396 159.083 242.998 159.083 244.832C159.083 246.666 157.641 247.282 156.115 247.282H153.035C151.453 247.282 150.067 246.666 150.067 244.832C150.067 242.998 151.453 242.396 153.035 242.396H156.115ZM155.933 243.782H153.217C152.461 243.782 151.943 244.076 151.943 244.832C151.943 245.588 152.461 245.896 153.217 245.896H155.933C156.633 245.896 157.207 245.588 157.207 244.832C157.207 244.076 156.633 243.782 155.933 243.782Z" fill="white"/>
<path d="M219.34 25.5156V34H217.805V27.0039H217.758L215.777 28.2695V26.875L217.875 25.5156H219.34ZM223.371 34.0938C222.867 34.0938 222.451 33.6836 222.457 33.1797C222.451 32.6875 222.867 32.2832 223.371 32.2773C223.857 32.2832 224.273 32.6875 224.273 33.1797C224.273 33.6836 223.857 34.0938 223.371 34.0938ZM239.031 32.6992V33.7656H229.352V32.6992H233.535V30.2617H234.836V32.6992H239.031ZM229.773 29.6758C231.883 29.3242 233.453 27.8945 233.488 26.3711H230.16V25.3047H238.199V26.3711H234.859C234.9 27.8945 236.471 29.2891 238.645 29.6172L238.129 30.6484C236.342 30.3262 234.871 29.377 234.186 28.0527C233.506 29.3945 232.053 30.373 230.289 30.707L229.773 29.6758ZM243.742 26.2891C243.742 27.5957 244.645 28.9023 246.332 29.4297L245.664 30.4375C244.463 30.0508 243.59 29.2539 243.104 28.2461C242.629 29.3418 241.727 30.2148 240.473 30.6367L239.805 29.6289C241.51 29.0547 242.418 27.6777 242.43 26.2891V26.1602H240.145V25.1172H245.969V26.1602H243.742V26.2891ZM241.316 32.3828V31.3281H248.547V35.043H247.234V32.3828H241.316ZM247.234 30.8359V24.4492H248.547V30.8359H247.234ZM253.844 26.1367C253.844 27.4668 254.705 28.7266 256.34 29.2422L255.637 30.2617C254.494 29.875 253.674 29.1016 253.211 28.1172C252.754 29.2422 251.898 30.127 250.68 30.5547L249.977 29.5352C251.682 28.9434 252.537 27.5312 252.543 26.0195V25.0117H253.844V26.1367ZM251.418 33.0156C251.418 31.7617 252.795 31.0176 255.004 31.0234C257.195 31.0176 258.549 31.7617 258.555 33.0156C258.549 34.2988 257.195 35.0312 255.004 35.0312C252.795 35.0312 251.418 34.2988 251.418 33.0156ZM252.719 33.0156C252.719 33.6719 253.551 34 255.004 34C256.451 34 257.266 33.6719 257.266 33.0156C257.266 32.3945 256.451 32.043 255.004 32.043C253.551 32.043 252.719 32.3945 252.719 33.0156ZM257.148 30.7891V24.4492H258.449V27.0273H259.926V28.1055H258.449V30.7891H257.148ZM268.855 24.4609V27.5312H270.285V28.5977H268.855V31.6211H267.555V24.4609H268.855ZM260.371 30.2617C261.174 30.2617 262.088 30.2559 263.043 30.2324V29.5352C261.854 29.4004 261.115 28.8613 261.121 28.0586C261.115 27.1152 262.123 26.5469 263.676 26.5469C265.229 26.5469 266.23 27.1152 266.23 28.0586C266.23 28.8555 265.51 29.3945 264.344 29.5352V30.1797C265.246 30.1328 266.154 30.0625 267.004 29.9453L267.109 30.8477C264.848 31.2344 262.381 31.2637 260.512 31.2695L260.371 30.2617ZM260.641 26.2305V25.2695H263.043V24.3672H264.344V25.2695H266.723V26.2305H260.641ZM261.777 33.3906C261.771 32.3066 263.066 31.7148 265.352 31.7148C267.607 31.7148 268.908 32.3066 268.914 33.3906C268.908 34.4629 267.607 35.0371 265.352 35.043C263.066 35.0371 261.771 34.4629 261.777 33.3906ZM262.375 28.0586C262.363 28.4805 262.855 28.7148 263.676 28.7148C264.496 28.7148 264.988 28.4805 264.988 28.0586C264.988 27.6543 264.496 27.4141 263.676 27.4141C262.855 27.4141 262.363 27.6543 262.375 28.0586ZM263.078 33.3906C263.072 33.8418 263.822 34.0879 265.352 34.082C266.846 34.0879 267.59 33.8418 267.602 33.3906C267.59 32.9102 266.846 32.6699 265.352 32.6758C263.822 32.6699 263.072 32.9102 263.078 33.3906ZM276.754 25.2344V25.8672C276.742 26.5879 276.742 27.6426 276.496 28.9844L275.207 28.8672C275.418 27.7773 275.459 26.9629 275.471 26.3125H271.352V25.2344H276.754ZM270.719 29.8281C271.346 29.8223 272.049 29.8164 272.793 29.8047V27.6484H274.082V29.7637C275.178 29.7168 276.303 29.6348 277.328 29.4883L277.398 30.4258C275.195 30.8242 272.693 30.8652 270.836 30.8711L270.719 29.8281ZM272.301 34.832V31.6797H273.613V33.7773H279.625V34.832H272.301ZM277.949 32.3828V24.4492H279.285V27.7539H280.656V28.8438H279.285V32.3828H277.949ZM290.031 24.4492V35.0547H288.742V24.4492H290.031ZM281.781 26.4297V25.375H286.773V29.3477H283.129V31.4805C284.799 31.4688 286.234 31.3809 287.887 31.1055L288.004 32.1719C286.205 32.4824 284.623 32.5527 282.719 32.5469H281.793V28.3164H285.449V26.4297H281.781Z" fill="#1B4B66"/>
<path d="M215.016 66V64.8984L218.016 62.0039C218.871 61.1484 219.316 60.6445 219.316 59.9297C219.316 59.1387 218.689 58.6406 217.863 58.6406C216.99 58.6406 216.428 59.1855 216.434 60.0469H214.981C214.975 58.4414 216.182 57.3984 217.875 57.3984C219.609 57.3984 220.775 58.4355 220.781 59.8594C220.775 60.8145 220.318 61.5879 218.648 63.1641L217.137 64.6641V64.7227H220.91V66H215.016ZM223.371 66.0938C222.867 66.0938 222.451 65.6836 222.457 65.1797C222.451 64.6875 222.867 64.2832 223.371 64.2773C223.857 64.2832 224.273 64.6875 224.273 65.1797C224.273 65.6836 223.857 66.0938 223.371 66.0938ZM238.176 56.4492V67.0547H236.887V56.4492H238.176ZM229.926 58.4297V57.375H234.918V61.3477H231.273V63.4805C232.943 63.4688 234.379 63.3809 236.031 63.1055L236.148 64.1719C234.35 64.4824 232.768 64.5527 230.863 64.5469H229.938V60.3164H233.594V58.4297H229.926ZM245.195 57.9023C245.195 59.5371 246.795 61.1836 249.016 61.5703L248.43 62.6602C246.654 62.291 245.201 61.2129 244.51 59.7891C243.812 61.2012 242.359 62.2852 240.59 62.6602L240.016 61.5703C242.201 61.1719 243.807 59.5312 243.812 57.9023V57.1172H245.195V57.9023ZM239.723 65.6953V64.6172H249.402V65.6953H239.723ZM258.684 57.4336V58.6992C258.684 60.2402 258.684 61.6934 258.215 63.9375L256.914 63.8203C257.131 62.8945 257.248 62.0801 257.318 61.3301L251.078 61.6523L250.902 60.5977L257.377 60.3516C257.4 59.7832 257.406 59.2383 257.406 58.6992V58.4883H251.219V57.4336H258.684ZM250.094 65.6953V64.6289H259.75V65.6953H250.094ZM266.383 57.2344V57.8672C266.371 58.5879 266.371 59.6426 266.125 60.9844L264.836 60.8672C265.047 59.7773 265.088 58.9629 265.1 58.3125H260.98V57.2344H266.383ZM260.348 61.8281C260.975 61.8223 261.678 61.8164 262.422 61.8047V59.6484H263.711V61.7637C264.807 61.7168 265.932 61.6348 266.957 61.4883L267.027 62.4258C264.824 62.8242 262.322 62.8652 260.465 62.8711L260.348 61.8281ZM261.93 66.832V63.6797H263.242V65.7773H269.254V66.832H261.93ZM267.578 64.3828V56.4492H268.914V59.7539H270.285V60.8438H268.914V64.3828H267.578ZM279.66 56.4492V67.0547H278.371V56.4492H279.66ZM271.41 58.4297V57.375H276.402V61.3477H272.758V63.4805C274.428 63.4688 275.863 63.3809 277.516 63.1055L277.633 64.1719C275.834 64.4824 274.252 64.5527 272.348 64.5469H271.422V60.3164H275.078V58.4297H271.41Z" fill="#1B4B66"/>
<path d="M217.922 98.1172C216.111 98.1172 214.816 97.1328 214.781 95.7031H216.316C216.357 96.3828 217.037 96.834 217.922 96.8281C218.854 96.834 219.527 96.3184 219.527 95.5625C219.527 94.8008 218.871 94.2559 217.77 94.25H217.008V93.0781H217.77C218.672 93.0781 219.299 92.5742 219.293 91.8359C219.299 91.1211 218.76 90.6406 217.934 90.6406C217.137 90.6406 216.451 91.0859 216.422 91.8008H214.957C214.992 90.377 216.287 89.3984 217.945 89.3984C219.668 89.3984 220.781 90.4531 220.77 91.7539C220.781 92.7031 220.148 93.3887 219.223 93.582V93.6523C220.418 93.8105 221.098 94.5781 221.086 95.6445C221.098 97.0801 219.756 98.1172 217.922 98.1172ZM223.371 98.0938C222.867 98.0938 222.451 97.6836 222.457 97.1797C222.451 96.6875 222.867 96.2832 223.371 96.2773C223.857 96.2832 224.273 96.6875 224.273 97.1797C224.273 97.6836 223.857 98.0938 223.371 98.0938ZM232.293 89.0469C233.148 89.041 233.893 89.3574 234.391 89.8906H236.922V88.4492H238.223V94.6836H236.922V93.3359H234.385C233.881 93.8574 233.143 94.1738 232.293 94.168C230.693 94.1738 229.492 93.1016 229.492 91.6133C229.492 90.1133 230.693 89.041 232.293 89.0469ZM230.734 91.6133C230.734 92.4805 231.385 93.0664 232.293 93.0664C233.172 93.0664 233.822 92.4805 233.828 91.6133C233.822 90.7168 233.172 90.1602 232.293 90.1602C231.385 90.1602 230.734 90.7168 230.734 91.6133ZM231.039 96.9688C231.027 95.6621 232.416 94.9004 234.637 94.9062C236.863 94.9004 238.252 95.6621 238.258 96.9688C238.252 98.2695 236.863 99.0312 234.637 99.0312C232.416 99.0312 231.027 98.2695 231.039 96.9688ZM232.316 96.9688C232.305 97.6426 233.166 98.0059 234.637 98.0117C236.137 98.0059 236.98 97.6426 236.98 96.9688C236.98 96.2773 236.137 95.9082 234.637 95.9023C233.166 95.9082 232.305 96.2773 232.316 96.9688ZM234.977 90.9336C235.035 91.1504 235.07 91.373 235.07 91.6133C235.07 91.8477 235.035 92.0703 234.982 92.2812H236.922V90.9336H234.977ZM249.52 90.1016V91.168H248.078V92.375H249.52V93.4414H248.078V95.2109H246.777V88.4492H248.078V90.1016H249.52ZM239.734 90.5469V89.5273H242.23V88.3789H243.531V89.5273H246.016V90.5469H239.734ZM240.273 92.8672C240.273 91.7305 241.328 90.9746 242.875 90.9688C244.404 90.9746 245.459 91.7305 245.465 92.8672C245.459 94.0039 244.404 94.7539 242.875 94.7539C241.328 94.7539 240.273 94.0039 240.273 92.8672ZM241.117 97.168C241.105 95.9902 242.459 95.2988 244.656 95.3047C246.83 95.2988 248.195 95.9902 248.195 97.168C248.195 98.334 246.83 99.0312 244.656 99.0312C242.459 99.0312 241.105 98.334 241.117 97.168ZM241.539 92.8672C241.533 93.4414 242.072 93.7754 242.875 93.7695C243.678 93.7754 244.223 93.4414 244.223 92.8672C244.223 92.2812 243.678 91.9297 242.875 91.9297C242.072 91.9297 241.533 92.2812 241.539 92.8672ZM242.406 97.168C242.4 97.7305 243.209 98.0469 244.656 98.0469C246.086 98.0469 246.889 97.7305 246.895 97.168C246.889 96.5879 246.086 96.3008 244.656 96.3008C243.209 96.3008 242.4 96.5879 242.406 97.168ZM256.012 89.1875V90.2422H255.074V93.248C255.461 93.2188 255.848 93.1836 256.211 93.1367V92.1875H257.664V91.2734H256.211V90.2305H257.664V88.4492H258.965V94.9414H257.664V93.2305H256.24L256.293 94.0977C254.271 94.4316 251.934 94.4668 250.246 94.4727L250.105 93.3945C250.475 93.3945 250.879 93.3945 251.301 93.3887V90.2422H250.375V89.1875H256.012ZM251.781 97.0859C251.77 95.8379 253.135 95.1289 255.379 95.1289C257.641 95.1289 258.994 95.8379 259 97.0859C258.994 98.3047 257.641 99.0312 255.379 99.0312C253.135 99.0312 251.77 98.3047 251.781 97.0859ZM252.566 93.3711C252.977 93.3594 253.398 93.3418 253.82 93.3242V90.2422H252.566V93.3711ZM253.07 97.0859C253.064 97.7012 253.896 98.0234 255.379 98.0234C256.867 98.0234 257.699 97.7012 257.699 97.0859C257.699 96.459 256.867 96.125 255.379 96.125C253.896 96.125 253.064 96.459 253.07 97.0859ZM268.762 88.4492V92.5859H270.332V93.6758H268.762V99.0195H267.461V88.4492H268.762ZM260.406 96.125C262.984 94.8359 264.379 93.043 264.637 90.6289H260.98V89.5508H265.961C265.955 92.6621 264.666 95.3984 261.145 97.1328L260.406 96.125Z" fill="#1B4B66"/>
<path d="M214.582 128.418V127.199L218.25 121.516H220.148V127.164H221.262V128.418H220.148V130H218.695V128.418H214.582ZM216.141 127.164H218.719V123.25H218.625L216.141 127.105V127.164ZM223.371 130.094C222.867 130.094 222.451 129.684 222.457 129.18C222.451 128.688 222.867 128.283 223.371 128.277C223.857 128.283 224.273 128.688 224.273 129.18C224.273 129.684 223.857 130.094 223.371 130.094ZM231.133 121V122.441H233.5V121H234.789V122.934H236.922V120.449H238.223V126.238H236.922V124.012H234.789V125.91H229.832V121H231.133ZM231.133 124.855H233.5V123.449H231.133V124.855ZM231.238 130.891V126.707H232.539V127.785H236.922V126.707H238.223V130.891H231.238ZM232.539 129.836H236.922V128.793H232.539V129.836ZM248.102 121.07V121.809C248.096 122.723 248.096 123.936 247.803 125.652H249.379V126.707H246.988V131.031H245.699V126.707H243.332V131.031H242.02V126.707H239.723V125.652H246.49C246.783 124.141 246.818 123.004 246.824 122.137H240.906V121.07H248.102ZM258.59 121.105V125.512H253.48V121.105H258.59ZM254.113 130.012C256.146 129.836 257.447 128.934 257.564 128.09H254.547V127.105H257.594V126.18H258.906V127.105H261.965V128.09H258.941C259.059 128.91 260.336 129.807 262.363 130.012L261.918 131.008C260.201 130.826 258.9 130.152 258.256 129.273C257.605 130.164 256.287 130.82 254.559 131.008L254.113 130.012ZM254.77 124.492H257.301V122.137H254.77V124.492ZM260.453 126.484V120.449H261.742V126.484H260.453ZM271.07 126.988C273.268 126.988 274.615 127.732 274.621 129.004C274.615 130.293 273.268 131.037 271.07 131.043C268.855 131.037 267.484 130.293 267.484 129.004C267.484 127.732 268.855 126.988 271.07 126.988ZM266.523 126.062V121.117H267.812V122.547H270.285V121.117H271.574V126.062H266.523ZM267.812 125.031H270.285V123.566H267.812V125.031ZM268.785 129.004C268.785 129.66 269.617 130.018 271.07 130.012C272.518 130.018 273.332 129.66 273.332 129.004C273.332 128.348 272.518 128.014 271.07 128.008C269.617 128.014 268.785 128.348 268.785 129.004ZM273.215 126.73V120.449H274.516V122.98H275.992V124.07H274.516V126.73H273.215ZM282.812 121.574V122.605H280.551C280.557 123.783 281.482 124.932 283.176 125.383L282.566 126.402C281.324 126.062 280.428 125.336 279.93 124.398C279.449 125.424 278.547 126.227 277.281 126.602L276.672 125.605C278.342 125.096 279.244 123.871 279.25 122.605H276.988V121.574H279.25V120.414H280.562V121.574H282.812ZM278.324 130.914V127.164H285.355V130.914H278.324ZM279.613 129.859H284.078V128.207H279.613V129.859ZM284.043 126.684V120.461H285.355V126.684H284.043ZM295.668 121.234V121.867C295.656 122.588 295.656 123.643 295.41 124.984L294.121 124.867C294.332 123.777 294.373 122.963 294.385 122.312H290.266V121.234H295.668ZM289.633 125.828C290.26 125.822 290.963 125.816 291.707 125.805V123.648H292.996V125.764C294.092 125.717 295.217 125.635 296.242 125.488L296.312 126.426C294.109 126.824 291.607 126.865 289.75 126.871L289.633 125.828ZM291.215 130.832V127.68H292.527V129.777H298.539V130.832H291.215ZM296.863 128.383V120.449H298.199V123.754H299.57V124.844H298.199V128.383H296.863ZM308.945 120.449V131.055H307.656V120.449H308.945ZM300.695 122.43V121.375H305.688V125.348H302.043V127.48C303.713 127.469 305.148 127.381 306.801 127.105L306.918 128.172C305.119 128.482 303.537 128.553 301.633 128.547H300.707V124.316H304.363V122.43H300.695Z" fill="#1B4B66"/>
<path d="M217.934 162.117C216.24 162.117 214.992 161.104 214.945 159.703H216.434C216.481 160.389 217.131 160.881 217.934 160.887C218.883 160.881 219.568 160.195 219.563 159.258C219.568 158.285 218.865 157.6 217.887 157.594C217.225 157.588 216.744 157.822 216.481 158.32H215.063L215.578 153.516H220.594V154.793H216.832L216.574 157.043H216.656C216.984 156.674 217.6 156.404 218.297 156.398C219.873 156.404 221.045 157.576 221.039 159.211C221.045 160.904 219.768 162.117 217.934 162.117ZM223.371 162.094C222.867 162.094 222.451 161.684 222.457 161.18C222.451 160.688 222.867 160.283 223.371 160.277C223.857 160.283 224.273 160.688 224.273 161.18C224.273 161.684 223.857 162.094 223.371 162.094ZM237.742 152.449V156H239.172V157.078H237.742V160.723H236.441V152.449H237.742ZM229.258 158.602C230.049 158.602 230.969 158.596 231.93 158.566V157.893C230.752 157.746 230.002 157.166 230.008 156.316C230.002 155.279 231.027 154.664 232.562 154.676C234.104 154.664 235.117 155.279 235.117 156.316C235.117 157.16 234.391 157.734 233.23 157.893V158.502C234.133 158.449 235.041 158.367 235.891 158.238L235.996 159.152C233.752 159.574 231.227 159.604 229.398 159.621L229.258 158.602ZM229.527 154.324V153.375H231.93V152.414H233.23V153.375H235.609V154.324H229.527ZM230.781 162.832V160.172H232.082V161.777H238.117V162.832H230.781ZM231.262 156.316C231.25 156.773 231.742 157.043 232.562 157.043C233.383 157.043 233.875 156.773 233.875 156.316C233.875 155.818 233.383 155.549 232.562 155.555C231.742 155.549 231.25 155.818 231.262 156.316ZM248.594 152.461V158.648H247.293V157.477H244.773V156.422H247.293V155.285H244.873C244.205 156.967 242.658 158.145 240.355 158.789L239.828 157.758C242.307 157.09 243.631 155.83 243.83 154.254H240.391V153.199H245.254C245.254 153.568 245.225 153.92 245.166 154.254H247.293V152.461H248.594ZM241.492 160.875C241.492 159.574 242.916 158.771 245.09 158.766C247.234 158.771 248.664 159.574 248.664 160.875C248.664 162.176 247.234 162.99 245.09 162.984C242.916 162.99 241.492 162.176 241.492 160.875ZM242.793 160.875C242.793 161.572 243.666 161.953 245.09 161.953C246.49 161.953 247.357 161.572 247.363 160.875C247.357 160.166 246.49 159.785 245.09 159.785C243.666 159.785 242.793 160.166 242.793 160.875ZM261.766 152.461V160.113H260.453V152.461H261.766ZM253.129 155.801C253.129 154.26 254.377 153.158 255.988 153.152C257.6 153.158 258.842 154.26 258.836 155.801C258.842 157.365 257.6 158.461 255.988 158.461C254.377 158.461 253.129 157.365 253.129 155.801ZM254.406 155.801C254.4 156.738 255.08 157.324 255.988 157.324C256.873 157.324 257.559 156.738 257.559 155.801C257.559 154.887 256.873 154.289 255.988 154.289C255.08 154.289 254.4 154.887 254.406 155.801ZM254.758 162.832V159.34H256.07V161.777H262.059V162.832H254.758ZM269.57 154.078V155.121H263.336V154.078H265.785V152.602H267.098V154.078H269.57ZM263.91 158.309C263.91 156.861 264.994 155.807 266.453 155.812C267.9 155.807 268.967 156.861 268.973 158.309C268.967 159.738 267.9 160.793 266.453 160.793C264.994 160.793 263.91 159.738 263.91 158.309ZM265.129 158.309C265.123 159.152 265.691 159.691 266.453 159.68C267.203 159.691 267.777 159.152 267.777 158.309C267.777 157.471 267.203 156.92 266.453 156.914C265.691 156.92 265.123 157.471 265.129 158.309ZM269.348 157.793V156.727H270.906V152.449H272.195V163.043H270.906V157.793H269.348ZM281.98 152.449V156.586H283.551V157.676H281.98V163.02H280.68V152.449H281.98ZM273.625 160.125C276.203 158.836 277.598 157.043 277.855 154.629H274.199V153.551H279.18C279.174 156.662 277.885 159.398 274.363 161.133L273.625 160.125Z" fill="#1B4B66"/>
<path d="M217.969 194.117C216.311 194.105 214.658 193.121 214.664 189.992C214.664 187.092 215.982 185.398 218.063 185.398C219.697 185.398 220.822 186.424 221.016 187.801H219.504C219.352 187.15 218.836 186.717 218.063 186.723C216.832 186.717 216.147 187.807 216.141 189.594H216.223C216.656 188.861 217.471 188.428 218.402 188.434C219.926 188.428 221.104 189.582 221.098 191.188C221.104 192.875 219.844 194.129 217.969 194.117ZM216.305 191.234C216.316 192.119 217.008 192.881 217.969 192.887C218.912 192.881 219.615 192.154 219.621 191.223C219.615 190.32 218.936 189.594 217.992 189.594C217.037 189.594 216.316 190.35 216.305 191.234ZM223.371 194.094C222.867 194.094 222.451 193.684 222.457 193.18C222.451 192.688 222.867 192.283 223.371 192.277C223.857 192.283 224.273 192.688 224.273 193.18C224.273 193.684 223.857 194.094 223.371 194.094ZM237.777 185.48V186.676C237.777 188.094 237.777 189.553 237.391 191.785L236.066 191.668C236.477 189.588 236.477 188.053 236.477 186.676V186.535H230.371V185.48H237.777ZM229.352 193.59V192.523H239.008V193.59H229.352ZM248.523 184.461V192.254H247.234V184.461H248.523ZM240.262 186.219V185.176H245.148V188.445H241.562V189.781C243.479 189.781 244.744 189.723 246.203 189.453L246.344 190.496C244.744 190.795 243.355 190.848 241.188 190.848H240.285V187.461H243.859V186.219H240.262ZM241.469 194.832V191.621H242.781V193.777H248.816V194.832H241.469ZM258.965 184.461V190.648H257.664V189.477H255.145V188.422H257.664V187.285H255.244C254.576 188.967 253.029 190.145 250.727 190.789L250.199 189.758C252.678 189.09 254.002 187.83 254.201 186.254H250.762V185.199H255.625C255.625 185.568 255.596 185.92 255.537 186.254H257.664V184.461H258.965ZM251.863 192.875C251.863 191.574 253.287 190.771 255.461 190.766C257.605 190.771 259.035 191.574 259.035 192.875C259.035 194.176 257.605 194.99 255.461 194.984C253.287 194.99 251.863 194.176 251.863 192.875ZM253.164 192.875C253.164 193.572 254.037 193.953 255.461 193.953C256.861 193.953 257.729 193.572 257.734 192.875C257.729 192.166 256.861 191.785 255.461 191.785C254.037 191.785 253.164 192.166 253.164 192.875ZM263.406 185.047C264.262 185.041 265.006 185.357 265.504 185.891H268.035V184.449H269.336V190.684H268.035V189.336H265.498C264.994 189.857 264.256 190.174 263.406 190.168C261.807 190.174 260.605 189.102 260.605 187.613C260.605 186.113 261.807 185.041 263.406 185.047ZM261.848 187.613C261.848 188.48 262.498 189.066 263.406 189.066C264.285 189.066 264.936 188.48 264.941 187.613C264.936 186.717 264.285 186.16 263.406 186.16C262.498 186.16 261.848 186.717 261.848 187.613ZM262.152 192.969C262.141 191.662 263.529 190.9 265.75 190.906C267.977 190.9 269.365 191.662 269.371 192.969C269.365 194.27 267.977 195.031 265.75 195.031C263.529 195.031 262.141 194.27 262.152 192.969ZM263.43 192.969C263.418 193.643 264.279 194.006 265.75 194.012C267.25 194.006 268.094 193.643 268.094 192.969C268.094 192.277 267.25 191.908 265.75 191.902C264.279 191.908 263.418 192.277 263.43 192.969ZM266.09 186.934C266.148 187.15 266.184 187.373 266.184 187.613C266.184 187.848 266.148 188.07 266.096 188.281H268.035V186.934H266.09ZM283.352 189.688V190.73H279.262V192.676H277.938V190.73H273.672V189.688H283.352ZM274.703 186.852C274.697 185.521 276.221 184.684 278.5 184.684C280.791 184.684 282.297 185.521 282.297 186.852C282.297 188.188 280.791 189.014 278.5 189.008C276.221 189.014 274.697 188.188 274.703 186.852ZM274.855 194.832V191.691H276.168V193.766H282.285V194.832H274.855ZM276.109 186.852C276.098 187.555 277.047 187.965 278.5 187.965C279.965 187.965 280.908 187.555 280.902 186.852C280.908 186.125 279.965 185.715 278.5 185.715C277.047 185.715 276.098 186.125 276.109 186.852ZM286.996 185.047C287.852 185.041 288.596 185.357 289.094 185.891H291.625V184.449H292.926V190.684H291.625V189.336H289.088C288.584 189.857 287.846 190.174 286.996 190.168C285.396 190.174 284.195 189.102 284.195 187.613C284.195 186.113 285.396 185.041 286.996 185.047ZM285.438 187.613C285.438 188.48 286.088 189.066 286.996 189.066C287.875 189.066 288.525 188.48 288.531 187.613C288.525 186.717 287.875 186.16 286.996 186.16C286.088 186.16 285.438 186.717 285.438 187.613ZM285.742 192.969C285.73 191.662 287.119 190.9 289.34 190.906C291.566 190.9 292.955 191.662 292.961 192.969C292.955 194.27 291.566 195.031 289.34 195.031C287.119 195.031 285.73 194.27 285.742 192.969ZM287.02 192.969C287.008 193.643 287.869 194.006 289.34 194.012C290.84 194.006 291.684 193.643 291.684 192.969C291.684 192.277 290.84 191.908 289.34 191.902C287.869 191.908 287.008 192.277 287.02 192.969ZM289.68 186.934C289.738 187.15 289.773 187.373 289.773 187.613C289.773 187.848 289.738 188.07 289.686 188.281H291.625V186.934H289.68ZM302.816 184.449V187.027H304.246V188.117H302.816V190.684H301.516V184.449H302.816ZM294.332 189.617C295.129 189.617 296.049 189.617 297.004 189.594V189.061C295.814 188.938 295.076 188.451 295.082 187.672C295.076 186.816 296.084 186.312 297.637 186.312C299.189 186.312 300.191 186.816 300.191 187.672C300.191 188.439 299.471 188.932 298.305 189.055V189.547C299.207 189.5 300.115 189.43 300.965 189.312L301.07 190.133C298.803 190.514 296.318 190.531 294.473 190.531L294.332 189.617ZM294.602 186.055V185.164H297.004V184.367H298.305V185.164H300.684V186.055H294.602ZM295.738 191.984V191.105H302.816V193.391H297.062V194.07H303.191V194.949H295.762V192.582H301.516V191.984H295.738ZM296.336 187.672C296.324 188.053 296.816 188.258 297.637 188.258C298.457 188.258 298.949 188.053 298.949 187.672C298.949 187.32 298.457 187.139 297.637 187.133C296.816 187.139 296.324 187.32 296.336 187.672ZM314.465 189.523V190.566H304.797V189.523H308.992V188.516H305.98V184.93H313.293V185.949H307.281V187.484H313.352V188.516H310.27V189.523H314.465ZM305.922 193.109C305.922 191.867 307.311 191.17 309.613 191.176C311.898 191.17 313.275 191.867 313.281 193.109C313.275 194.34 311.898 195.037 309.613 195.043C307.311 195.037 305.922 194.34 305.922 193.109ZM307.246 193.109C307.24 193.725 308.072 194.041 309.613 194.035C311.131 194.041 311.969 193.725 311.98 193.109C311.969 192.5 311.131 192.172 309.613 192.172C308.072 192.172 307.24 192.5 307.246 193.109Z" fill="#1B4B66"/>
<path d="M231.766 207.422C231.76 208.816 233.465 210.123 235.527 210.398L235.094 211.312C233.377 211.037 231.871 210.146 231.186 208.91C230.5 210.146 228.994 211.037 227.289 211.312L226.844 210.398C228.9 210.123 230.6 208.834 230.605 207.422V206.848H231.766V207.422ZM226.387 213.258V212.344H235.961V213.258H231.695V216.996H230.605V213.258H226.387ZM245.453 206.496V211.922H244.352V206.496H245.453ZM236.875 211.09C238.504 210.586 239.518 209.32 239.523 207.961H237.168V207.059H242.957V207.961H240.648C240.648 209.244 241.65 210.428 243.285 210.891L242.746 211.746C241.504 211.377 240.578 210.586 240.104 209.578C239.641 210.691 238.68 211.564 237.391 211.969L236.875 211.09ZM238.562 213.258V212.402H245.465V215.004H239.676V216.023H245.816V216.891H238.598V214.195H244.363V213.258H238.562ZM255.391 206.496V210.094H256.891V211.02H255.391V214.699H254.277V206.496H255.391ZM247.059 212.66C247.867 212.66 248.811 212.66 249.801 212.625V211.893C248.605 211.752 247.844 211.178 247.855 210.316C247.844 209.297 248.846 208.688 250.352 208.699C251.857 208.688 252.842 209.297 252.848 210.316C252.842 211.178 252.098 211.752 250.914 211.887V212.572C251.852 212.52 252.801 212.432 253.68 212.297L253.773 213.082C251.535 213.504 249.01 213.533 247.176 213.551L247.059 212.66ZM247.328 208.289V207.469H249.801V206.461H250.914V207.469H253.387V208.289H247.328ZM248.605 216.773V214.148H249.719V215.871H255.766V216.773H248.605ZM248.91 210.316C248.91 210.826 249.455 211.148 250.352 211.148C251.236 211.148 251.787 210.826 251.781 210.316C251.787 209.771 251.236 209.455 250.352 209.461C249.455 209.455 248.91 209.771 248.91 210.316ZM266.254 206.508V212.719H265.141V211.441H262.492V210.527H265.141V209.25H262.604C261.924 210.938 260.348 212.127 258.074 212.777L257.629 211.91C260.113 211.201 261.566 209.865 261.766 208.172H258.168V207.258H262.973C262.973 207.645 262.932 208.02 262.861 208.371H265.141V206.508H266.254ZM259.258 214.887C259.258 213.615 260.641 212.842 262.797 212.836C264.924 212.842 266.318 213.615 266.324 214.887C266.318 216.164 264.924 216.949 262.797 216.949C260.641 216.949 259.258 216.164 259.258 214.887ZM260.359 214.887C260.359 215.625 261.297 216.053 262.797 216.059C264.268 216.053 265.205 215.625 265.211 214.887C265.205 214.137 264.268 213.709 262.797 213.715C261.297 213.709 260.359 214.137 260.359 214.887ZM269.758 215.191L268.82 218.426H267.824L268.445 215.191H269.758ZM282.883 206.496V216.996H281.816V211.57H280.457V216.457H279.438V206.707H280.457V210.656H281.816V206.496H282.883ZM274.223 214.477V207.762H278.16V208.664H275.336V213.527C276.625 213.521 277.598 213.463 278.723 213.246L278.805 214.16C277.545 214.424 276.455 214.465 274.926 214.477H274.223ZM292.973 206.496V216.996H291.848V206.496H292.973ZM284.348 214.184C287.137 212.854 288.502 210.961 288.719 208.512H284.852V207.621H289.844C289.844 210.697 288.537 213.357 284.934 215.086L284.348 214.184ZM302.875 206.496V210.094H304.375V211.02H302.875V214.699H301.762V206.496H302.875ZM294.543 212.66C295.352 212.66 296.295 212.66 297.285 212.625V211.893C296.09 211.752 295.328 211.178 295.34 210.316C295.328 209.297 296.33 208.688 297.836 208.699C299.342 208.688 300.326 209.297 300.332 210.316C300.326 211.178 299.582 211.752 298.398 211.887V212.572C299.336 212.52 300.285 212.432 301.164 212.297L301.258 213.082C299.02 213.504 296.494 213.533 294.66 213.551L294.543 212.66ZM294.812 208.289V207.469H297.285V206.461H298.398V207.469H300.871V208.289H294.812ZM296.09 216.773V214.148H297.203V215.871H303.25V216.773H296.09ZM296.395 210.316C296.395 210.826 296.939 211.148 297.836 211.148C298.721 211.148 299.271 210.826 299.266 210.316C299.271 209.771 298.721 209.455 297.836 209.461C296.939 209.455 296.395 209.771 296.395 210.316ZM313.738 206.508V212.719H312.625V211.441H309.977V210.527H312.625V209.25H310.088C309.408 210.938 307.832 212.127 305.559 212.777L305.113 211.91C307.598 211.201 309.051 209.865 309.25 208.172H305.652V207.258H310.457C310.457 207.645 310.416 208.02 310.346 208.371H312.625V206.508H313.738ZM306.742 214.887C306.742 213.615 308.125 212.842 310.281 212.836C312.408 212.842 313.803 213.615 313.809 214.887C313.803 216.164 312.408 216.949 310.281 216.949C308.125 216.949 306.742 216.164 306.742 214.887ZM307.844 214.887C307.844 215.625 308.781 216.053 310.281 216.059C311.752 216.053 312.689 215.625 312.695 214.887C312.689 214.137 311.752 213.709 310.281 213.715C308.781 213.709 307.844 214.137 307.844 214.887ZM317.242 215.191L316.305 218.426H315.309L315.93 215.191H317.242ZM235.469 226.496V236.996H234.402V226.496H235.469ZM226.27 233.562C226.574 233.562 226.926 233.562 227.301 233.557V228.688H226.492V227.773H231.309V228.688H230.5V233.434C230.857 233.41 231.197 233.375 231.508 233.34L231.59 234.172C229.955 234.447 227.781 234.488 226.398 234.5L226.27 233.562ZM228.309 233.539C228.695 233.527 229.088 233.516 229.48 233.492V228.688H228.309V233.539ZM231.062 232.555V231.641H232.363V230.375H231.062V229.461H232.363V226.73H233.406V236.457H232.363V232.555H231.062ZM245.488 226.496V236.996H244.363V226.496H245.488ZM236.863 234.184C239.652 232.854 241.018 230.961 241.234 228.512H237.367V227.621H242.359C242.359 230.697 241.053 233.357 237.449 235.086L236.863 234.184ZM256.703 230.844V231.734H252.461V232.648H255.496V235.109H249.379V236.035H255.789V236.891H248.289V234.301H254.395V233.504H248.277V232.648H251.348V231.734H247.129V230.844H256.703ZM248.359 230.07V226.836H255.473V230.07H248.359ZM249.449 229.191H254.359V227.715H249.449V229.191ZM259.387 235.191L258.449 238.426H257.453L258.074 235.191H259.387ZM271.727 226.496V230.891H273.309V231.828H271.727V236.996H270.613V226.496H271.727ZM263.371 234.137C264.197 234.137 265.158 234.137 266.16 234.107V233.041C264.977 232.865 264.203 232.15 264.215 231.137C264.203 229.953 265.229 229.174 266.723 229.168C268.211 229.174 269.248 229.953 269.254 231.137C269.248 232.15 268.463 232.871 267.273 233.041V234.066C268.205 234.02 269.143 233.943 270.016 233.82L270.086 234.641C267.812 235.045 265.357 235.068 263.547 235.062L263.371 234.137ZM263.57 228.629V227.738H266.16V226.52H267.273V227.738H269.863V228.629H263.57ZM265.258 231.137C265.258 231.805 265.844 232.221 266.723 232.215C267.602 232.221 268.182 231.805 268.188 231.137C268.182 230.463 267.602 230.035 266.723 230.035C265.844 230.035 265.258 230.463 265.258 231.137ZM280.141 227.562V228.453H273.883V227.562H276.461V226.449H277.574V227.562H280.141ZM274.457 230.832C274.451 229.684 275.494 228.934 277.012 228.922C278.523 228.934 279.555 229.684 279.555 230.832C279.555 231.986 278.523 232.742 277.012 232.742C275.494 232.742 274.451 231.986 274.457 230.832ZM275.184 234.5V233.598H282.121V236.996H281.008V234.5H275.184ZM275.535 230.832C275.523 231.482 276.121 231.875 277.012 231.875C277.902 231.875 278.5 231.482 278.512 230.832C278.5 230.188 277.902 229.783 277.012 229.777C276.121 229.783 275.523 230.188 275.535 230.832ZM281.008 233.059V226.496H282.121V229.344H283.645V230.27H282.121V233.059H281.008ZM293.816 230.844V231.734H289.574V232.648H292.609V235.109H286.492V236.035H292.902V236.891H285.402V234.301H291.508V233.504H285.391V232.648H288.461V231.734H284.242V230.844H293.816ZM285.473 230.07V226.836H292.586V230.07H285.473ZM286.562 229.191H291.473V227.715H286.562V229.191ZM303.309 226.496V231.922H302.207V226.496H303.309ZM294.73 231.09C296.359 230.586 297.373 229.32 297.379 227.961H295.023V227.059H300.812V227.961H298.504C298.504 229.244 299.506 230.428 301.141 230.891L300.602 231.746C299.359 231.377 298.434 230.586 297.959 229.578C297.496 230.691 296.535 231.564 295.246 231.969L294.73 231.09ZM296.418 233.258V232.402H303.32V235.004H297.531V236.023H303.672V236.891H296.453V234.195H302.219V233.258H296.418ZM313.762 227.293V227.879C313.75 228.582 313.75 229.625 313.492 230.984L312.391 230.879C312.619 229.719 312.654 228.869 312.666 228.207H308.465V227.293H313.762ZM307.832 231.887C308.477 231.887 309.209 231.881 309.977 231.863V229.648H311.078V231.828C312.203 231.781 313.363 231.699 314.418 231.547L314.488 232.355C312.297 232.742 309.789 232.783 307.938 232.789L307.832 231.887ZM309.426 236.773V233.668H310.539V235.871H316.562V236.773H309.426ZM315.086 234.383V226.496H316.223V229.836H317.664V230.773H316.223V234.383H315.086ZM327.004 226.496V237.02H325.891V226.496H327.004ZM318.871 228.348V227.445H323.793V231.277H320.02V233.574C321.725 233.568 323.207 233.486 324.965 233.199L325.07 234.113C323.213 234.424 321.631 234.494 319.773 234.5H318.883V230.387H322.656V228.348H318.871Z" fill="#535353"/>
<path d="M215.531 268L219.211 260.852V260.793H214.945V259.516H220.793V260.816L217.113 268H215.531ZM223.371 268.094C222.867 268.094 222.451 267.684 222.457 267.18C222.451 266.688 222.867 266.283 223.371 266.277C223.857 266.283 224.273 266.688 224.273 267.18C224.273 267.684 223.857 268.094 223.371 268.094ZM238.141 258.93V259.973H235.07C235.188 260.975 236.482 261.924 238.527 262.164L238.035 263.195C236.137 262.967 234.736 262.129 234.168 260.986C233.6 262.123 232.211 262.967 230.312 263.195L229.832 262.164C231.877 261.924 233.154 260.969 233.277 259.973H230.23V258.93H238.141ZM229.34 264.836V263.781H239.02V264.836H234.93V266.77H233.641V264.836H229.34ZM230.512 268.832V265.797H231.812V267.777H237.953V268.832H230.512ZM245.242 259.328C245.236 260.658 246.73 262.012 248.992 262.305L248.477 263.359C246.678 263.09 245.248 262.205 244.557 261.01C243.865 262.205 242.441 263.09 240.66 263.359L240.145 262.305C242.383 262.012 243.871 260.67 243.871 259.328V258.789H245.242V259.328ZM239.723 265.352V264.273H249.379V265.352H245.172V269.043H243.883V265.352H239.723ZM256.012 259.188V260.242H255.074V263.248C255.461 263.219 255.848 263.184 256.211 263.137V262.188H257.664V261.273H256.211V260.23H257.664V258.449H258.965V264.941H257.664V263.23H256.24L256.293 264.098C254.271 264.432 251.934 264.467 250.246 264.473L250.105 263.395C250.475 263.395 250.879 263.395 251.301 263.389V260.242H250.375V259.188H256.012ZM251.781 267.086C251.77 265.838 253.135 265.129 255.379 265.129C257.641 265.129 258.994 265.838 259 267.086C258.994 268.305 257.641 269.031 255.379 269.031C253.135 269.031 251.77 268.305 251.781 267.086ZM252.566 263.371C252.977 263.359 253.398 263.342 253.82 263.324V260.242H252.566V263.371ZM253.07 267.086C253.064 267.701 253.896 268.023 255.379 268.023C256.867 268.023 257.699 267.701 257.699 267.086C257.699 266.459 256.867 266.125 255.379 266.125C253.896 266.125 253.064 266.459 253.07 267.086ZM268.762 258.449V262.586H270.332V263.676H268.762V269.02H267.461V258.449H268.762ZM260.406 266.125C262.984 264.836 264.379 263.043 264.637 260.629H260.98V259.551H265.961C265.955 262.662 264.666 265.398 261.145 267.133L260.406 266.125ZM276.754 259.234V259.867C276.742 260.588 276.742 261.643 276.496 262.984L275.207 262.867C275.418 261.777 275.459 260.963 275.471 260.312H271.352V259.234H276.754ZM270.719 263.828C271.346 263.822 272.049 263.816 272.793 263.805V261.648H274.082V263.764C275.178 263.717 276.303 263.635 277.328 263.488L277.398 264.426C275.195 264.824 272.693 264.865 270.836 264.871L270.719 263.828ZM272.301 268.832V265.68H273.613V267.777H279.625V268.832H272.301ZM277.949 266.383V258.449H279.285V261.754H280.656V262.844H279.285V266.383H277.949ZM290.031 258.449V269.055H288.742V258.449H290.031ZM281.781 260.43V259.375H286.773V263.348H283.129V265.48C284.799 265.469 286.234 265.381 287.887 265.105L288.004 266.172C286.205 266.482 284.623 266.553 282.719 266.547H281.793V262.316H285.449V260.43H281.781Z" fill="#1B4B66"/>
<path d="M217.875 300.117C215.982 300.117 214.647 299.109 214.652 297.727C214.647 296.648 215.449 295.77 216.469 295.605V295.559C215.578 295.371 214.975 294.598 214.969 293.672C214.975 292.359 216.199 291.398 217.875 291.398C219.539 291.398 220.77 292.359 220.77 293.672C220.77 294.604 220.148 295.371 219.27 295.559V295.605C220.283 295.77 221.092 296.648 221.098 297.727C221.092 299.109 219.75 300.117 217.875 300.117ZM216.223 297.586C216.217 298.371 216.867 298.91 217.875 298.91C218.871 298.91 219.522 298.371 219.527 297.586C219.522 296.789 218.83 296.197 217.875 296.203C216.92 296.197 216.217 296.783 216.223 297.586ZM216.457 293.812C216.463 294.557 217.049 295.066 217.875 295.066C218.689 295.066 219.281 294.557 219.281 293.812C219.281 293.092 218.707 292.594 217.875 292.594C217.025 292.594 216.463 293.092 216.457 293.812ZM223.371 300.094C222.867 300.094 222.451 299.684 222.457 299.18C222.451 298.688 222.867 298.283 223.371 298.277C223.857 298.283 224.273 298.688 224.273 299.18C224.273 299.684 223.857 300.094 223.371 300.094ZM238.223 290.461V298.277H236.922V295.617H234.789V296.555H229.832V291.152H231.133V292.863H233.5V291.152H234.789V292.289H236.922V290.461H238.223ZM231.133 295.523H233.5V293.871H231.133V295.523ZM231.238 300.832V297.504H232.562V299.777H238.457V300.832H231.238ZM234.789 294.562H236.922V293.344H234.789V294.562ZM248.594 290.461V296.648H247.293V295.477H244.773V294.422H247.293V293.285H244.873C244.205 294.967 242.658 296.145 240.355 296.789L239.828 295.758C242.307 295.09 243.631 293.83 243.83 292.254H240.391V291.199H245.254C245.254 291.568 245.225 291.92 245.166 292.254H247.293V290.461H248.594ZM241.492 298.875C241.492 297.574 242.916 296.771 245.09 296.766C247.234 296.771 248.664 297.574 248.664 298.875C248.664 300.176 247.234 300.99 245.09 300.984C242.916 300.99 241.492 300.176 241.492 298.875ZM242.793 298.875C242.793 299.572 243.666 299.953 245.09 299.953C246.49 299.953 247.357 299.572 247.363 298.875C247.357 298.166 246.49 297.785 245.09 297.785C243.666 297.785 242.793 298.166 242.793 298.875ZM256.012 291.234V291.867C256 292.588 256 293.643 255.754 294.984L254.465 294.867C254.676 293.777 254.717 292.963 254.729 292.312H250.609V291.234H256.012ZM249.977 295.828C250.604 295.822 251.307 295.816 252.051 295.805V293.648H253.34V295.764C254.436 295.717 255.561 295.635 256.586 295.488L256.656 296.426C254.453 296.824 251.951 296.865 250.094 296.871L249.977 295.828ZM251.559 300.832V297.68H252.871V299.777H258.883V300.832H251.559ZM257.207 298.383V290.449H258.543V293.754H259.914V294.844H258.543V298.383H257.207ZM269.289 290.449V301.055H268V290.449H269.289ZM261.039 292.43V291.375H266.031V295.348H262.387V297.48C264.057 297.469 265.492 297.381 267.145 297.105L267.262 298.172C265.463 298.482 263.881 298.553 261.977 298.547H261.051V294.316H264.707V292.43H261.039Z" fill="#1B4B66"/>
<rect x="201.5" y="0.5" width="137" height="325" rx="5.5" stroke="#3F8C9A"/>
<line x1="184.5" y1="30.5" x2="194.5" y2="30.5" stroke="#3F8C9A" stroke-linecap="round" stroke-dasharray="4 4"/>
<path d="M201 26.75C203.347 26.75 205.25 28.6528 205.25 31C205.25 33.3472 203.347 35.25 201 35.25C198.653 35.25 196.75 33.3472 196.75 31C196.75 28.6528 198.653 26.75 201 26.75Z" fill="white" stroke="#3F8C9A" stroke-width="1.5"/>
<line x1="92" y1="272.5" x2="92" y2="291.5" stroke="#7B9DE0" stroke-linecap="round" stroke-dasharray="4 4"/>
<rect y="298" width="183" height="48" rx="6" fill="#6485C6"/>
<path d="M41.3223 317.516V326H39.7871V319.004H39.7403L37.7598 320.27V318.875L39.8575 317.516H41.3223ZM45.3536 326.094C44.8496 326.094 44.4336 325.684 44.4395 325.18C44.4336 324.688 44.8496 324.283 45.3536 324.277C45.8399 324.283 46.2559 324.688 46.2559 325.18C46.2559 325.684 45.8399 326.094 45.3536 326.094ZM55.084 318.137C55.084 319.467 55.9453 320.727 57.5801 321.242L56.877 322.262C55.7344 321.875 54.9141 321.102 54.4512 320.117C53.9941 321.242 53.1387 322.127 51.9199 322.555L51.2168 321.535C52.9219 320.943 53.7773 319.531 53.7832 318.02V317.012H55.084V318.137ZM52.6582 325.016C52.6582 323.762 54.0352 323.018 56.2441 323.023C58.4355 323.018 59.7891 323.762 59.7949 325.016C59.7891 326.299 58.4355 327.031 56.2441 327.031C54.0352 327.031 52.6582 326.299 52.6582 325.016ZM53.959 325.016C53.959 325.672 54.791 326 56.2441 326C57.6914 326 58.5059 325.672 58.5059 325.016C58.5059 324.395 57.6914 324.043 56.2441 324.043C54.791 324.043 53.959 324.395 53.959 325.016ZM58.3887 322.789V316.449H59.6895V319.027H61.166V320.105H59.6895V322.789H58.3887ZM70.0957 316.461V319.531H71.5254V320.598H70.0957V323.621H68.7949V316.461H70.0957ZM61.6113 322.262C62.4141 322.262 63.3281 322.256 64.2832 322.232V321.535C63.0938 321.4 62.3555 320.861 62.3613 320.059C62.3555 319.115 63.3633 318.547 64.916 318.547C66.4688 318.547 67.4707 319.115 67.4707 320.059C67.4707 320.855 66.75 321.395 65.584 321.535V322.18C66.4863 322.133 67.3945 322.062 68.2441 321.945L68.3496 322.848C66.0879 323.234 63.6211 323.264 61.752 323.27L61.6113 322.262ZM61.8809 318.23V317.27H64.2832V316.367H65.584V317.27H67.9629V318.23H61.8809ZM63.0176 325.391C63.0117 324.307 64.3066 323.715 66.5918 323.715C68.8477 323.715 70.1484 324.307 70.1543 325.391C70.1484 326.463 68.8477 327.037 66.5918 327.043C64.3066 327.037 63.0117 326.463 63.0176 325.391ZM63.6152 320.059C63.6035 320.48 64.0957 320.715 64.916 320.715C65.7363 320.715 66.2285 320.48 66.2285 320.059C66.2285 319.654 65.7363 319.414 64.916 319.414C64.0957 319.414 63.6035 319.654 63.6152 320.059ZM64.3184 325.391C64.3125 325.842 65.0625 326.088 66.5918 326.082C68.0859 326.088 68.8301 325.842 68.8418 325.391C68.8301 324.91 68.0859 324.67 66.5918 324.676C65.0625 324.67 64.3125 324.91 64.3184 325.391ZM80.9473 316.449V321.922H79.6465V320.773H77.5137V321.582H72.5566V316.918H73.8574V318.254H76.2246V316.918H77.5137V317.855H79.6465V316.449H80.9473ZM73.8574 320.551H76.2246V319.25H73.8574V320.551ZM73.9629 323.375V322.355H80.9473V325.074H75.2754V325.883H81.2871V326.914H73.9746V324.113H79.6465V323.375H73.9629ZM77.5137 319.777H79.6465V318.84H77.5137V319.777ZM89.3027 318.992C89.291 320.938 90.3164 322.883 92.0332 323.621L91.2598 324.664C90.041 324.102 89.1504 322.982 88.6582 321.6C88.1719 323.088 87.2578 324.307 85.9746 324.91L85.1777 323.82C86.9414 323.059 87.9727 321.037 87.9785 318.992V317.305H89.3027V318.992ZM92.7949 327.055V316.449H94.1074V327.055H92.7949ZM105.533 320.539V321.605H103.963V327.02H102.662V316.449H103.963V320.539H105.533ZM96.041 324.406V317.48H97.3301V323.328C98.7422 323.305 100.242 323.182 101.842 322.848L101.982 323.949C100.195 324.307 98.502 324.4 96.9316 324.406H96.041ZM114.861 316.449V327.055H113.572V316.449H114.861ZM106.611 318.43V317.375H111.604V321.348H107.959V323.48C109.629 323.469 111.064 323.381 112.717 323.105L112.834 324.172C111.035 324.482 109.453 324.553 107.549 324.547H106.623V320.316H110.279V318.43H106.611ZM121.225 317.047C123.498 317.053 125.18 318.184 125.174 319.906C125.18 321.494 123.814 322.555 121.869 322.748V324.688H126.088V325.754H116.408V324.688H120.58V322.748C118.658 322.555 117.293 321.494 117.299 319.906C117.293 318.184 118.969 317.053 121.225 317.047ZM118.576 319.906C118.57 321.049 119.678 321.734 121.225 321.734C122.795 321.734 123.896 321.049 123.896 319.906C123.896 318.799 122.795 318.096 121.225 318.102C119.678 318.096 118.57 318.799 118.576 319.906ZM138.1 317.094V318.043C138.094 319.033 138.094 320.117 137.818 321.617H139.283V322.672H135.076V327.055H133.764V322.672H129.627V321.617H136.494C136.787 320.176 136.799 319.092 136.799 318.148H130.764V317.094H138.1ZM149.654 321.699V322.742H145.459V323.75H148.471V327.02H147.17V324.793H141.064V323.75H144.17V322.742H139.998V321.699H149.654ZM140.455 320.27C142.676 320.1 143.924 319.367 144.07 318.465H140.947V317.445H144.17V316.438H145.459V317.445H148.705V318.465H145.553C145.693 319.367 146.941 320.1 149.174 320.27L148.764 321.254C146.871 321.102 145.471 320.516 144.814 319.59C144.146 320.516 142.746 321.102 140.865 321.254L140.455 320.27Z" fill="white"/>
<path d="M96.25 298C96.25 300.347 94.3472 302.25 92 302.25C89.6528 302.25 87.75 300.347 87.75 298C87.75 295.653 89.6528 293.75 92 293.75C94.3472 293.75 96.25 295.653 96.25 298Z" fill="white" stroke="#6485C6" stroke-width="1.5"/>
<line x1="92" y1="347.5" x2="92" y2="356.5" stroke="#7B9DE0" stroke-linecap="round" stroke-dasharray="4 4"/>
<rect y="363" width="183" height="48" rx="6" fill="#6485C6"/>
<path d="M53.9786 391V389.898L56.9786 387.004C57.834 386.148 58.2793 385.645 58.2793 384.93C58.2793 384.139 57.6524 383.641 56.8262 383.641C55.9532 383.641 55.3907 384.186 55.3965 385.047H53.9434C53.9375 383.441 55.1446 382.398 56.8379 382.398C58.5723 382.398 59.7383 383.436 59.7442 384.859C59.7383 385.814 59.2813 386.588 57.6114 388.164L56.0996 389.664V389.723H59.8731V391H53.9786ZM62.334 391.094C61.8301 391.094 61.4141 390.684 61.42 390.18C61.4141 389.688 61.8301 389.283 62.334 389.277C62.8204 389.283 63.2364 389.688 63.2364 390.18C63.2364 390.684 62.8204 391.094 62.334 391.094ZM77.127 381.449V392.055H75.8145V381.449H77.127ZM68.877 389.559V382.316H70.1777V384.965H72.7441V382.316H74.0332V389.559H68.877ZM70.1777 388.492H72.7441V385.984H70.1777V388.492ZM82.4355 383.137C82.4355 384.467 83.2969 385.727 84.9316 386.242L84.2285 387.262C83.0859 386.875 82.2656 386.102 81.8027 385.117C81.3457 386.242 80.4902 387.127 79.2715 387.555L78.5684 386.535C80.2734 385.943 81.1289 384.531 81.1348 383.02V382.012H82.4355V383.137ZM80.0098 390.016C80.0098 388.762 81.3867 388.018 83.5957 388.023C85.7871 388.018 87.1406 388.762 87.1465 390.016C87.1406 391.299 85.7871 392.031 83.5957 392.031C81.3867 392.031 80.0098 391.299 80.0098 390.016ZM81.3105 390.016C81.3105 390.672 82.1426 391 83.5957 391C85.043 391 85.8574 390.672 85.8574 390.016C85.8574 389.395 85.043 389.043 83.5957 389.043C82.1426 389.043 81.3105 389.395 81.3105 390.016ZM85.7402 387.789V381.449H87.041V384.027H88.5176V385.105H87.041V387.789H85.7402ZM98.1738 381.449V392.043H96.9316V386.641H95.7363V391.504H94.541V381.648H95.7363V385.598H96.9316V381.449H98.1738ZM89.3848 389.57V382.703H93.3457V383.758H90.6973V388.469C91.8457 388.457 92.7949 388.398 93.873 388.199L93.9668 389.266C92.6836 389.523 91.5762 389.559 90.0996 389.57H89.3848ZM109.084 386.477V387.508H99.4277V386.477H109.084ZM100.424 383.746C100.424 382.48 101.924 381.695 104.244 381.695C106.57 381.695 108.059 382.48 108.064 383.746C108.059 385.029 106.57 385.797 104.244 385.797C101.924 385.797 100.424 385.029 100.424 383.746ZM100.553 390.121C100.553 388.879 101.93 388.193 104.244 388.199C106.523 388.193 107.906 388.879 107.912 390.121C107.906 391.357 106.523 392.049 104.244 392.043C101.93 392.049 100.553 391.357 100.553 390.121ZM101.783 383.746C101.771 384.426 102.697 384.783 104.244 384.777C105.791 384.783 106.717 384.426 106.717 383.746C106.717 383.072 105.791 382.715 104.244 382.715C102.697 382.715 101.771 383.072 101.783 383.746ZM101.877 390.121C101.871 390.725 102.703 391.041 104.244 391.035C105.762 391.041 106.6 390.725 106.611 390.121C106.6 389.5 105.762 389.184 104.244 389.184C102.703 389.184 101.871 389.5 101.877 390.121ZM122.303 387.426V388.457H118.225V389.863H116.936V388.457H112.646V387.426H122.303ZM113.127 383.359V382.375H116.818V381.379H118.119V382.375H121.775V383.359H113.127ZM113.807 391.832V389.184H115.107V390.801H121.248V391.832H113.807ZM113.947 385.316C113.947 384.268 115.23 383.711 117.463 383.711C119.695 383.711 120.984 384.268 120.99 385.316C120.984 386.371 119.695 386.945 117.463 386.945C115.23 386.945 113.947 386.371 113.947 385.316ZM115.283 385.316C115.271 385.785 115.992 386.008 117.463 386.008C118.934 386.008 119.66 385.785 119.654 385.316C119.66 384.854 118.934 384.625 117.463 384.625C115.992 384.625 115.271 384.854 115.283 385.316ZM128.08 382.188V385.48H124.74V386.875C126.346 386.857 127.365 386.799 128.549 386.594L128.689 387.66C127.324 387.889 126.17 387.924 124.225 387.918H123.428V384.496H126.768V383.23H123.416V382.188H128.08ZM124.857 391.809V388.68H126.158V390.742H132.17V391.809H124.857ZM128.736 386.559V385.504H130.588V384.168H128.736V383.125H130.588V381.461H131.889V389.266H130.588V386.559H128.736Z" fill="white"/>
<path d="M96.25 363C96.25 365.347 94.3472 367.25 92 367.25C89.6528 367.25 87.75 365.347 87.75 363C87.75 360.653 89.6528 358.75 92 358.75C94.3472 358.75 96.25 360.653 96.25 363Z" fill="white" stroke="#6485C6" stroke-width="1.5"/>
<line x1="92" y1="412.5" x2="92" y2="421.5" stroke="#7B9DE0" stroke-linecap="round" stroke-dasharray="4 4"/>
<rect y="428" width="183" height="48" rx="6" fill="#6485C6"/>
<path d="M45.0899 456.117C43.2793 456.117 41.9844 455.133 41.9493 453.703H43.4844C43.5254 454.383 44.2051 454.834 45.0899 454.828C46.0215 454.834 46.6954 454.318 46.6954 453.562C46.6954 452.801 46.0391 452.256 44.9375 452.25H44.1758V451.078H44.9375C45.8399 451.078 46.4668 450.574 46.461 449.836C46.4668 449.121 45.9278 448.641 45.1016 448.641C44.3047 448.641 43.6192 449.086 43.5899 449.801H42.125C42.1602 448.377 43.4551 447.398 45.1133 447.398C46.836 447.398 47.9493 448.453 47.9375 449.754C47.9493 450.703 47.3164 451.389 46.3907 451.582V451.652C47.586 451.811 48.2657 452.578 48.2539 453.645C48.2657 455.08 46.9239 456.117 45.0899 456.117ZM50.5391 456.094C50.0352 456.094 49.6192 455.684 49.625 455.18C49.6192 454.688 50.0352 454.283 50.5391 454.277C51.0254 454.283 51.4414 454.688 51.4414 455.18C51.4414 455.684 51.0254 456.094 50.5391 456.094ZM65.332 446.449V457.055H64.0195V446.449H65.332ZM57.082 454.559V447.316H58.3828V449.965H60.9492V447.316H62.2383V454.559H57.082ZM58.3828 453.492H60.9492V450.984H58.3828V453.492ZM70.6406 448.137C70.6406 449.467 71.502 450.727 73.1367 451.242L72.4336 452.262C71.291 451.875 70.4707 451.102 70.0078 450.117C69.5508 451.242 68.6953 452.127 67.4766 452.555L66.7734 451.535C68.4785 450.943 69.334 449.531 69.3398 448.02V447.012H70.6406V448.137ZM68.2148 455.016C68.2148 453.762 69.5918 453.018 71.8008 453.023C73.9922 453.018 75.3457 453.762 75.3516 455.016C75.3457 456.299 73.9922 457.031 71.8008 457.031C69.5918 457.031 68.2148 456.299 68.2148 455.016ZM69.5156 455.016C69.5156 455.672 70.3477 456 71.8008 456C73.248 456 74.0625 455.672 74.0625 455.016C74.0625 454.395 73.248 454.043 71.8008 454.043C70.3477 454.043 69.5156 454.395 69.5156 455.016ZM73.9453 452.789V446.449H75.2461V449.027H76.7227V450.105H75.2461V452.789H73.9453ZM86.3789 446.449V457.043H85.1367V451.641H83.9414V456.504H82.7461V446.648H83.9414V450.598H85.1367V446.449H86.3789ZM77.5898 454.57V447.703H81.5508V448.758H78.9023V453.469C80.0508 453.457 81 453.398 82.0781 453.199L82.1719 454.266C80.8887 454.523 79.7812 454.559 78.3047 454.57H77.5898ZM97.2891 451.477V452.508H87.6328V451.477H97.2891ZM88.6289 448.746C88.6289 447.48 90.1289 446.695 92.4492 446.695C94.7754 446.695 96.2637 447.48 96.2695 448.746C96.2637 450.029 94.7754 450.797 92.4492 450.797C90.1289 450.797 88.6289 450.029 88.6289 448.746ZM88.7578 455.121C88.7578 453.879 90.1348 453.193 92.4492 453.199C94.7285 453.193 96.1113 453.879 96.1172 455.121C96.1113 456.357 94.7285 457.049 92.4492 457.043C90.1348 457.049 88.7578 456.357 88.7578 455.121ZM89.9883 448.746C89.9766 449.426 90.9023 449.783 92.4492 449.777C93.9961 449.783 94.9219 449.426 94.9219 448.746C94.9219 448.072 93.9961 447.715 92.4492 447.715C90.9023 447.715 89.9766 448.072 89.9883 448.746ZM90.082 455.121C90.0762 455.725 90.9082 456.041 92.4492 456.035C93.9668 456.041 94.8047 455.725 94.8164 455.121C94.8047 454.5 93.9668 454.184 92.4492 454.184C90.9082 454.184 90.0762 454.5 90.082 455.121ZM104.086 449.684C104.086 451.324 104.76 452.977 106.242 453.773L105.516 454.734C104.531 454.213 103.863 453.281 103.482 452.168C103.107 453.369 102.439 454.4 101.449 454.98L100.688 453.996C102.188 453.129 102.85 451.359 102.855 449.684V449.355H101.051V448.301H102.855V446.824H104.086V448.301H105.855V449.355H104.086V449.684ZM105.199 451.594V450.516H106.582V446.648H107.812V456.527H106.582V451.594H105.199ZM108.727 457.043V446.449H109.969V457.043H108.727ZM120.363 446.449V457.043H119.121V446.449H120.363ZM111.117 453.879C113.309 452.584 114.316 450.926 114.516 448.793H111.68V447.738H115.805C115.805 448.271 115.77 448.793 115.693 449.297H116.93V446.707H118.172V456.539H116.93V453H115.277V451.934H116.93V450.363H115.471C114.967 452.121 113.865 453.633 111.879 454.805L111.117 453.879ZM133.535 446.449V457.043H132.281V451.605H131.145V456.551H129.926V446.73H131.145V450.551H132.281V446.449H133.535ZM124.359 453.926C126.615 452.625 127.57 450.949 127.758 448.828H124.852V447.785H129.023C129.023 450.65 128.121 453.111 125.109 454.828L124.359 453.926ZM138.668 448.324C138.662 449.73 139.506 451.102 141.152 451.664L140.438 452.684C139.295 452.256 138.48 451.43 138.029 450.387C137.578 451.553 136.711 452.467 135.469 452.93L134.777 451.898C136.482 451.324 137.35 449.859 137.355 448.312V447.105H138.668V448.324ZM136.699 456.832V453.469H138.023V455.777H143.918V456.832H136.699ZM140.273 449.859V448.793H142.383V446.461H143.684V454.324H142.383V449.859H140.273Z" fill="white"/>
<path d="M96.25 428C96.25 430.347 94.3472 432.25 92 432.25C89.6528 432.25 87.75 430.347 87.75 428C87.75 425.653 89.6528 423.75 92 423.75C94.3472 423.75 96.25 425.653 96.25 428Z" fill="white" stroke="#6485C6" stroke-width="1.5"/>
</svg>
