<svg width="1336" height="543" viewBox="0 0 1336 543" fill="none" xmlns="http://www.w3.org/2000/svg">
<g clip-path="url(#clip0_578_14308)">
<rect x="483" y="102" width="372" height="92" rx="46" fill="#4B84F0"/>
<path d="M586.125 151.326C586.125 155.308 583.023 156.144 580.625 156.144H574.003V139.072H580.185C582.561 139.072 585.113 140.128 585.135 143.516C585.157 145.496 583.991 146.838 582.011 147.212V147.256C584.431 147.542 586.125 149.236 586.125 151.326ZM582.143 143.846C582.143 142.064 580.911 141.536 579.481 141.536H577.127V146.046H579.195C580.625 146.046 582.143 145.562 582.143 143.846ZM583.001 151.04C583.001 148.796 581.109 148.422 579.393 148.422H577.127V153.68H579.965C581.637 153.68 583.001 153.02 583.001 151.04ZM591.394 153.042V156.474L588.27 156.496V153.042H591.394ZM618.961 152.91L618.521 155.154H599.887V152.91H618.961ZM602.219 139.6H616.233C616.145 144.088 615.749 147.784 614.319 151.854H611.283C612.449 148.73 613.131 144.308 613.131 141.778H602.219V139.6ZM628.161 143.714V141.514H621.451V139.336H631.153V145.848H624.509V148.092H626.093C628.073 148.092 631.109 147.96 633.243 147.564V149.764C630.977 150.138 627.875 150.27 625.829 150.27H621.451V143.714H628.161ZM637.137 138.17V152.668L634.145 153.108V138.61L637.137 138.17ZM637.269 158.212H624.355V152.118H627.413V156.012H637.709L637.269 158.212ZM654.19 150.534V147.872H650.23V145.672H654.19V143.582H650.802C649.284 146.86 645.456 149.566 641.87 150.644L640.44 148.73C644.818 147.52 648.316 143.978 648.316 141.668V141.36H641.584V139.16H651.484V140.678C651.484 140.92 651.462 141.162 651.44 141.382H654.19V138.61L657.182 138.17V150.094L654.19 150.534ZM652.672 150.666C655.07 150.666 657.248 151.634 657.248 154.604C657.248 157.596 655.07 158.564 652.672 158.564H647.964C645.478 158.564 643.256 157.596 643.256 154.604C643.256 151.634 645.478 150.666 647.964 150.666H652.672ZM652.386 152.844H648.206C647.018 152.844 646.204 153.328 646.204 154.604C646.204 155.902 647.018 156.386 648.206 156.386H652.386C653.486 156.386 654.3 155.902 654.3 154.604C654.3 153.328 653.486 152.844 652.386 152.844ZM674.214 150.336V147.41H670.804V146.706C669.946 148.334 668.032 149.192 665.942 149.192C663.104 149.192 660.596 147.608 660.596 144.66V143.362C660.596 140.414 663.104 138.83 665.942 138.83C668.032 138.83 669.946 139.688 670.804 141.338V140.172H674.214V138.61L677.184 138.17V149.896L674.214 150.336ZM672.696 150.666C675.094 150.666 677.272 151.634 677.272 154.604C677.272 157.596 675.094 158.564 672.696 158.564H667.988C665.502 158.564 663.28 157.596 663.28 154.604C663.28 151.634 665.502 150.666 667.988 150.666H672.696ZM672.41 152.844H668.23C667.042 152.844 666.228 153.328 666.228 154.604C666.228 155.902 667.042 156.386 668.23 156.386H672.41C673.51 156.386 674.324 155.902 674.324 154.604C674.324 153.328 673.51 152.844 672.41 152.844ZM668.318 144.572V143.45C668.318 141.91 667.284 141.03 665.942 141.03C664.6 141.03 663.566 141.91 663.566 143.45V144.572C663.566 146.112 664.6 146.992 665.942 146.992C667.284 146.992 668.318 146.112 668.318 144.572ZM671.288 144.66C671.288 144.858 671.266 145.034 671.244 145.21H674.214V142.35H671.178C671.244 142.68 671.288 143.01 671.288 143.362V144.66ZM703.373 138.17V157.86L700.403 158.3V138.61L703.373 138.17ZM690.085 154.054H686.785V151.854H690.745C693.407 151.854 696.905 151.678 699.589 151.216V153.438C696.751 153.922 693.407 154.054 690.085 154.054ZM698.137 143.934V144.836C698.137 147.85 695.629 149.456 692.791 149.456C689.953 149.456 687.445 147.85 687.445 144.836V143.934C687.445 140.92 689.953 139.314 692.791 139.314C695.629 139.314 698.137 140.92 698.137 143.934ZM695.167 144.836V143.934C695.167 142.394 694.133 141.514 692.791 141.514C691.449 141.514 690.415 142.394 690.415 143.934V144.836C690.415 146.376 691.449 147.256 692.791 147.256C694.133 147.256 695.167 146.376 695.167 144.836ZM722.803 138.17V145.694H725.971L725.531 148.158H722.803V157.86L719.789 158.3V138.61L722.803 138.17ZM713.849 139.182V144.968C713.849 145.43 713.981 145.914 714.245 146.266C715.389 147.806 717.127 149.918 718.623 151.59L716.863 153.284C715.323 151.656 713.453 149.588 712.331 148.092C711.033 149.742 709.141 152.074 707.579 153.768L705.731 152.162C707.227 150.424 708.987 148.312 710.285 146.442C710.549 146.068 710.769 145.562 710.769 145.1V139.622L713.849 139.182ZM737.304 138.984V142.064C737.304 142.526 737.348 143.076 737.7 143.362C739.262 144.682 742.144 146.86 744.058 148.114L742.43 149.962C740.494 148.73 737.282 146.53 735.786 145.188C734.246 146.508 731.1 148.818 728.988 150.116L727.338 148.29C729.384 146.948 732.134 144.924 733.674 143.538C734.026 143.23 734.158 142.658 734.158 142.196V139.424L737.304 138.984ZM726.194 153.438H734.29V149.104H737.458V153.438H745.268L744.828 155.682H726.194V153.438ZM746.218 148.004H754.314V146.772H749.078V138.654H762.366V140.656H752.136V141.756H762.3V143.67H752.136V144.77H762.872L762.432 146.772H757.482V148.004H765.292L764.852 150.138H746.218V148.004ZM758.164 151.304C760.628 151.304 762.85 152.184 762.85 154.978C762.85 157.816 760.628 158.696 758.164 158.696H753.302C750.838 158.696 748.616 157.816 748.616 154.978C748.616 152.184 750.838 151.304 753.302 151.304H758.164ZM758.054 153.504H753.434C752.444 153.504 751.564 153.878 751.564 154.978C751.564 156.122 752.444 156.496 753.434 156.496H758.054C759.044 156.496 759.902 156.122 759.902 154.978C759.902 153.878 759.044 153.504 758.054 153.504Z" fill="white"/>
<rect x="483" y="204" width="372" height="92" rx="46" fill="#336BCD"/>
<path d="M612.043 258.232H607.467C602.803 258.232 600.515 256.12 600.515 251.654V247.65C600.515 243.316 603.089 241.072 607.401 241.072H611.823V243.646H607.819C604.937 243.646 603.617 245.032 603.617 248.112V251.17C603.617 253.854 604.475 255.68 607.797 255.68H612.483L612.043 258.232ZM618.346 255.042V258.474L615.222 258.496V255.042H618.346ZM645.914 255.438L645.474 257.682H626.84V255.438H630.756V248.684H633.77V255.438H635.354V248.684H638.368V255.438H645.914ZM640.172 243.514H629.172V241.336H643.274C643.23 244.812 642.856 249.916 642.218 253.348H639.16C639.71 250.224 640.194 246.22 640.172 243.514ZM665.497 252.006H661.493V253.854H663.011V260.256L659.975 260.696V256.054H649.547V253.854H651.373V252.006H646.863V249.85H665.937L665.497 252.006ZM658.809 240.61C661.207 240.61 663.473 241.6 663.473 244.548C663.473 247.518 661.207 248.508 658.809 248.508H653.969C651.483 248.508 649.305 247.518 649.305 244.548C649.305 241.6 651.483 240.61 653.969 240.61H658.809ZM658.523 242.788H654.255C653.067 242.788 652.253 243.272 652.253 244.548C652.253 245.824 653.067 246.33 654.255 246.33H658.523C659.623 246.33 660.525 245.824 660.525 244.548C660.525 243.272 659.623 242.788 658.523 242.788ZM654.453 252.006V253.854H658.391V252.006H654.453ZM674.394 240.896H684.03V249.564L681.06 250.004H674.394V240.896ZM690.322 255.13L685.108 255.152C685.108 255.548 685.152 255.966 685.504 256.142C687.352 257.22 689.156 258.1 691.378 259.09L689.97 260.938C687.748 260.014 685.482 258.936 683.634 257.946C681.94 258.892 679.52 260.124 677.298 261.092L675.846 259.266C678.222 258.254 679.938 257.286 681.588 256.296C681.94 256.098 682.05 255.592 682.072 255.152H676.594V253.062H682.072V251.236L685.108 250.796V253.062H690.762L690.322 255.13ZM690.256 240.17V251.28L687.286 251.72V240.61L690.256 240.17ZM681.06 243.096H677.364V247.87H681.06V243.096ZM710.88 244.328C713.894 244.328 715.412 245.472 715.412 247.518C715.412 249.564 713.894 250.708 710.88 250.708H706.656C703.642 250.708 702.124 249.564 702.124 247.518C702.124 245.472 703.642 244.328 706.656 244.328H710.88ZM717.876 253.788H710.924V256.736H707.844V253.788H699.242V251.654H718.316L717.876 253.788ZM715.544 260.212H702.102V255.152H705.16V258.012H715.984L715.544 260.212ZM716.072 243.624H701.244V241.512H707.25V239.884L710.286 239.444V241.512H716.512L716.072 243.624ZM710.616 246.396H706.92C705.688 246.396 705.072 246.704 705.072 247.518C705.072 248.332 705.688 248.64 706.92 248.64H710.616C711.848 248.64 712.464 248.332 712.464 247.518C712.464 246.704 711.848 246.396 710.616 246.396ZM726.635 245.802V243.514H720.805V241.336H729.605V247.936H723.863V250.466H725.007C726.987 250.466 730.045 250.356 732.157 249.96V252.16C729.913 252.534 726.767 252.666 724.743 252.666H720.805V245.802H726.635ZM733.499 255.372V249.322H730.463V247.122H733.499V245.142H730.463V242.964H733.499V240.61L736.491 240.17V254.932L733.499 255.372ZM736.623 260.212H723.709V254.118H726.767V258.012H737.063L736.623 260.212Z" fill="white"/>
<path d="M919 458V434C919 429.582 915.418 426 911 426H427C422.582 426 419 429.582 419 434V458" stroke="#7B9DE0" stroke-width="1.5" stroke-linecap="round" stroke-dasharray="4 4"/>
<line x1="669" y1="398.75" x2="669" y2="455.25" stroke="#7B9DE0" stroke-width="1.5" stroke-linecap="round" stroke-dasharray="4 4"/>
<path d="M424 464C424 466.761 421.761 469 419 469C416.239 469 414 466.761 414 464C414 461.239 416.239 459 419 459C421.761 459 424 461.239 424 464Z" fill="white" stroke="#6485C6" stroke-width="2"/>
<rect x="549" y="463" width="240" height="80" rx="8" fill="#6485C6"/>
<path d="M613.218 509V507.348L617.718 503.006C619.001 501.723 619.669 500.967 619.669 499.895C619.669 498.708 618.729 497.961 617.489 497.961C616.18 497.961 615.336 498.778 615.345 500.07H613.165C613.156 497.662 614.967 496.098 617.507 496.098C620.108 496.098 621.857 497.653 621.866 499.789C621.857 501.222 621.172 502.382 618.667 504.746L616.399 506.996V507.084H622.06V509H613.218ZM625.751 509.141C624.995 509.141 624.371 508.525 624.38 507.77C624.371 507.031 624.995 506.425 625.751 506.416C626.481 506.425 627.105 507.031 627.105 507.77C627.105 508.525 626.481 509.141 625.751 509.141ZM647.94 494.674V510.582H645.972V494.674H647.94ZM635.565 506.838V495.975H637.517V499.947H641.366V495.975H643.3V506.838H635.565ZM637.517 505.238H641.366V501.477H637.517V505.238ZM655.903 497.205C655.903 499.2 657.195 501.09 659.647 501.863L658.593 503.393C656.879 502.812 655.648 501.652 654.954 500.176C654.269 501.863 652.985 503.19 651.157 503.832L650.103 502.303C652.66 501.415 653.943 499.297 653.952 497.029V495.518H655.903V497.205ZM652.265 507.523C652.265 505.643 654.33 504.526 657.644 504.535C660.931 504.526 662.961 505.643 662.97 507.523C662.961 509.448 660.931 510.547 657.644 510.547C654.33 510.547 652.265 509.448 652.265 507.523ZM654.216 507.523C654.216 508.508 655.464 509 657.644 509C659.814 509 661.036 508.508 661.036 507.523C661.036 506.592 659.814 506.064 657.644 506.064C655.464 506.064 654.216 506.592 654.216 507.523ZM660.86 504.184V494.674H662.812V498.541H665.026V500.158H662.812V504.184H660.86ZM679.511 494.674V510.564H677.647V502.461H675.854V509.756H674.062V494.973H675.854V500.896H677.647V494.674H679.511ZM666.327 506.855V496.555H672.269V498.137H668.296V505.203C670.019 505.186 671.442 505.098 673.06 504.799L673.2 506.398C671.275 506.785 669.614 506.838 667.399 506.855H666.327ZM695.876 502.215V503.762H681.392V502.215H695.876ZM682.886 498.119C682.886 496.221 685.136 495.043 688.616 495.043C692.105 495.043 694.338 496.221 694.347 498.119C694.338 500.044 692.105 501.195 688.616 501.195C685.136 501.195 682.886 500.044 682.886 498.119ZM683.079 507.682C683.079 505.818 685.145 504.79 688.616 504.799C692.035 504.79 694.109 505.818 694.118 507.682C694.109 509.536 692.035 510.573 688.616 510.564C685.145 510.573 683.079 509.536 683.079 507.682ZM684.925 498.119C684.907 499.139 686.296 499.675 688.616 499.666C690.937 499.675 692.325 499.139 692.325 498.119C692.325 497.108 690.937 496.572 688.616 496.572C686.296 496.572 684.907 497.108 684.925 498.119ZM685.065 507.682C685.057 508.587 686.305 509.062 688.616 509.053C690.893 509.062 692.149 508.587 692.167 507.682C692.149 506.75 690.893 506.275 688.616 506.275C686.305 506.275 685.057 506.75 685.065 507.682ZM715.704 503.639V505.186H709.587V507.295H707.653V505.186H701.22V503.639H715.704ZM701.94 497.539V496.062H707.478V494.568H709.429V496.062H714.913V497.539H701.94ZM702.96 510.248V506.275H704.911V508.701H714.122V510.248H702.96ZM703.171 500.475C703.171 498.901 705.096 498.066 708.444 498.066C711.793 498.066 713.727 498.901 713.735 500.475C713.727 502.057 711.793 502.918 708.444 502.918C705.096 502.918 703.171 502.057 703.171 500.475ZM705.175 500.475C705.157 501.178 706.238 501.512 708.444 501.512C710.65 501.512 711.74 501.178 711.731 500.475C711.74 499.78 710.65 499.438 708.444 499.438C706.238 499.438 705.157 499.78 705.175 500.475ZM724.37 495.781V500.721H719.36V502.812C721.769 502.786 723.298 502.698 725.073 502.391L725.284 503.99C723.236 504.333 721.505 504.386 718.587 504.377H717.392V499.244H722.401V497.346H717.374V495.781H724.37ZM719.536 510.213V505.52H721.487V508.613H730.505V510.213H719.536ZM725.354 502.338V500.756H728.132V498.752H725.354V497.188H728.132V494.691H730.083V506.398H728.132V502.338H725.354Z" fill="#F4F8FF"/>
<path d="M674 464C674 466.761 671.761 469 669 469C666.239 469 664 466.761 664 464C664 461.239 666.239 459 669 459C671.761 459 674 461.239 674 464Z" fill="white" stroke="#6485C6" stroke-width="2"/>
<rect x="799" y="463" width="240" height="80" rx="8" fill="#6485C6"/>
<path d="M849.385 509.176C846.669 509.176 844.727 507.699 844.674 505.555H846.977C847.038 506.574 848.058 507.251 849.385 507.242C850.782 507.251 851.793 506.478 851.793 505.344C851.793 504.201 850.809 503.384 849.156 503.375H848.014V501.617H849.156C850.51 501.617 851.45 500.861 851.441 499.754C851.45 498.682 850.642 497.961 849.402 497.961C848.207 497.961 847.179 498.629 847.135 499.701H844.938C844.99 497.565 846.933 496.098 849.42 496.098C852.004 496.098 853.674 497.68 853.656 499.631C853.674 501.055 852.725 502.083 851.336 502.373V502.479C853.129 502.716 854.148 503.867 854.131 505.467C854.148 507.62 852.136 509.176 849.385 509.176ZM857.559 509.141C856.803 509.141 856.179 508.525 856.188 507.77C856.179 507.031 856.803 506.425 857.559 506.416C858.288 506.425 858.912 507.031 858.912 507.77C858.912 508.525 858.288 509.141 857.559 509.141ZM879.748 494.674V510.582H877.779V494.674H879.748ZM867.373 506.838V495.975H869.324V499.947H873.174V495.975H875.107V506.838H867.373ZM869.324 505.238H873.174V501.477H869.324V505.238ZM887.711 497.205C887.711 499.2 889.003 501.09 891.455 501.863L890.4 503.393C888.687 502.812 887.456 501.652 886.762 500.176C886.076 501.863 884.793 503.19 882.965 503.832L881.91 502.303C884.468 501.415 885.751 499.297 885.76 497.029V495.518H887.711V497.205ZM884.072 507.523C884.072 505.643 886.138 504.526 889.451 504.535C892.738 504.526 894.769 505.643 894.777 507.523C894.769 509.448 892.738 510.547 889.451 510.547C886.138 510.547 884.072 509.448 884.072 507.523ZM886.023 507.523C886.023 508.508 887.271 509 889.451 509C891.622 509 892.844 508.508 892.844 507.523C892.844 506.592 891.622 506.064 889.451 506.064C887.271 506.064 886.023 506.592 886.023 507.523ZM892.668 504.184V494.674H894.619V498.541H896.834V500.158H894.619V504.184H892.668ZM911.318 494.674V510.564H909.455V502.461H907.662V509.756H905.869V494.973H907.662V500.896H909.455V494.674H911.318ZM898.135 506.855V496.555H904.076V498.137H900.104V505.203C901.826 505.186 903.25 505.098 904.867 504.799L905.008 506.398C903.083 506.785 901.422 506.838 899.207 506.855H898.135ZM927.684 502.215V503.762H913.199V502.215H927.684ZM914.693 498.119C914.693 496.221 916.943 495.043 920.424 495.043C923.913 495.043 926.146 496.221 926.154 498.119C926.146 500.044 923.913 501.195 920.424 501.195C916.943 501.195 914.693 500.044 914.693 498.119ZM914.887 507.682C914.887 505.818 916.952 504.79 920.424 504.799C923.843 504.79 925.917 505.818 925.926 507.682C925.917 509.536 923.843 510.573 920.424 510.564C916.952 510.573 914.887 509.536 914.887 507.682ZM916.732 498.119C916.715 499.139 918.104 499.675 920.424 499.666C922.744 499.675 924.133 499.139 924.133 498.119C924.133 497.108 922.744 496.572 920.424 496.572C918.104 496.572 916.715 497.108 916.732 498.119ZM916.873 507.682C916.864 508.587 918.112 509.062 920.424 509.053C922.7 509.062 923.957 508.587 923.975 507.682C923.957 506.75 922.7 506.275 920.424 506.275C918.112 506.275 916.864 506.75 916.873 507.682ZM937.879 499.525C937.879 501.986 938.89 504.465 941.113 505.66L940.023 507.102C938.547 506.319 937.545 504.922 936.974 503.252C936.411 505.054 935.409 506.601 933.924 507.471L932.781 505.994C935.031 504.693 936.024 502.039 936.033 499.525V499.033H933.326V497.451H936.033V495.236H937.879V497.451H940.533V499.033H937.879V499.525ZM939.549 502.391V500.773H941.623V494.973H943.469V509.791H941.623V502.391H939.549ZM944.84 510.564V494.674H946.703V510.564H944.84ZM962.295 494.674V510.564H960.432V494.674H962.295ZM948.426 505.818C951.713 503.876 953.225 501.389 953.523 498.189H949.27V496.607H955.457C955.457 497.407 955.404 498.189 955.29 498.945H957.145V495.061H959.008V509.809H957.145V504.5H954.666V502.9H957.145V500.545H954.956C954.2 503.182 952.548 505.449 949.568 507.207L948.426 505.818ZM982.053 494.674V510.564H980.172V502.408H978.467V509.826H976.639V495.096H978.467V500.826H980.172V494.674H982.053ZM968.289 505.889C971.673 503.938 973.105 501.424 973.387 498.242H969.027V496.678H975.285C975.285 500.976 973.932 504.667 969.414 507.242L968.289 505.889ZM989.752 497.486C989.743 499.596 991.009 501.652 993.479 502.496L992.406 504.025C990.692 503.384 989.471 502.145 988.794 500.58C988.117 502.329 986.816 503.7 984.953 504.395L983.916 502.848C986.474 501.986 987.774 499.789 987.783 497.469V495.658H989.752V497.486ZM986.799 510.248V505.203H988.785V508.666H997.627V510.248H986.799ZM992.16 499.789V498.189H995.324V494.691H997.275V506.486H995.324V499.789H992.16Z" fill="#F4F8FF"/>
<path d="M924 464C924 466.761 921.761 469 919 469C916.239 469 914 466.761 914 464C914 461.239 916.239 459 919 459C921.761 459 924 461.239 924 464Z" fill="white" stroke="#6485C6" stroke-width="2"/>
<rect x="299" y="463" width="240" height="80" rx="8" fill="#6485C6"/>
<path d="M343.733 496.273V509H341.431V498.506H341.36L338.39 500.404V498.312L341.536 496.273H343.733ZM349.78 509.141C349.024 509.141 348.4 508.525 348.409 507.77C348.4 507.031 349.024 506.425 349.78 506.416C350.51 506.425 351.134 507.031 351.134 507.77C351.134 508.525 350.51 509.141 349.78 509.141ZM364.376 497.205C364.376 499.2 365.668 501.09 368.12 501.863L367.065 503.393C365.352 502.812 364.121 501.652 363.427 500.176C362.741 501.863 361.458 503.19 359.63 503.832L358.575 502.303C361.133 501.415 362.416 499.297 362.425 497.029V495.518H364.376V497.205ZM360.737 507.523C360.737 505.643 362.803 504.526 366.116 504.535C369.403 504.526 371.434 505.643 371.442 507.523C371.434 509.448 369.403 510.547 366.116 510.547C362.803 510.547 360.737 509.448 360.737 507.523ZM362.688 507.523C362.688 508.508 363.937 509 366.116 509C368.287 509 369.509 508.508 369.509 507.523C369.509 506.592 368.287 506.064 366.116 506.064C363.937 506.064 362.688 506.592 362.688 507.523ZM369.333 504.184V494.674H371.284V498.541H373.499V500.158H371.284V504.184H369.333ZM386.894 494.691V499.297H389.038V500.896H386.894V505.432H384.942V494.691H386.894ZM374.167 503.393C375.371 503.393 376.742 503.384 378.175 503.349V502.303C376.391 502.101 375.283 501.292 375.292 500.088C375.283 498.673 376.795 497.82 379.124 497.82C381.453 497.82 382.956 498.673 382.956 500.088C382.956 501.283 381.875 502.092 380.126 502.303V503.27C381.479 503.199 382.842 503.094 384.116 502.918L384.274 504.271C380.882 504.852 377.182 504.896 374.378 504.904L374.167 503.393ZM374.571 497.346V495.904H378.175V494.551H380.126V495.904H383.694V497.346H374.571ZM376.276 508.086C376.268 506.46 378.21 505.572 381.638 505.572C385.021 505.572 386.973 506.46 386.981 508.086C386.973 509.694 385.021 510.556 381.638 510.564C378.21 510.556 376.268 509.694 376.276 508.086ZM377.173 500.088C377.155 500.721 377.894 501.072 379.124 501.072C380.354 501.072 381.093 500.721 381.093 500.088C381.093 499.481 380.354 499.121 379.124 499.121C377.894 499.121 377.155 499.481 377.173 500.088ZM378.228 508.086C378.219 508.763 379.344 509.132 381.638 509.123C383.879 509.132 384.995 508.763 385.013 508.086C384.995 507.365 383.879 507.005 381.638 507.014C379.344 507.005 378.219 507.365 378.228 508.086ZM403.171 494.674V502.883H401.22V501.16H398.021V502.373H390.585V495.377H392.536V497.381H396.087V495.377H398.021V496.783H401.22V494.674H403.171ZM392.536 500.826H396.087V498.875H392.536V500.826ZM392.694 505.062V503.533H403.171V507.611H394.663V508.824H403.681V510.371H392.712V506.17H401.22V505.062H392.694ZM398.021 499.666H401.22V498.26H398.021V499.666ZM415.704 498.488C415.687 501.406 417.225 504.324 419.8 505.432L418.64 506.996C416.812 506.152 415.476 504.474 414.737 502.399C414.008 504.632 412.637 506.46 410.712 507.365L409.517 505.73C412.162 504.588 413.709 501.556 413.718 498.488V495.957H415.704V498.488ZM420.942 510.582V494.674H422.911V510.582H420.942ZM440.05 500.809V502.408H437.694V510.529H435.743V494.674H437.694V500.809H440.05ZM425.812 506.609V496.221H427.745V504.992C429.863 504.957 432.113 504.772 434.513 504.271L434.724 505.924C432.043 506.46 429.503 506.601 427.147 506.609H425.812ZM454.042 494.674V510.582H452.108V494.674H454.042ZM441.667 497.645V496.062H449.155V502.021H443.688V505.221C446.193 505.203 448.347 505.071 450.825 504.658L451.001 506.258C448.303 506.724 445.93 506.829 443.073 506.82H441.685V500.475H447.169V497.645H441.667ZM463.587 495.57C466.997 495.579 469.52 497.275 469.511 499.859C469.52 502.241 467.472 503.832 464.554 504.122V507.031H470.882V508.631H456.362V507.031H462.62V504.122C459.737 503.832 457.689 502.241 457.698 499.859C457.689 497.275 460.203 495.579 463.587 495.57ZM459.614 499.859C459.605 501.573 461.267 502.602 463.587 502.602C465.942 502.602 467.595 501.573 467.595 499.859C467.595 498.198 465.942 497.144 463.587 497.152C461.267 497.144 459.605 498.198 459.614 499.859ZM488.899 495.641V497.064C488.891 498.55 488.891 500.176 488.478 502.426H490.675V504.008H484.364V510.582H482.396V504.008H476.19V502.426H486.491C486.931 500.264 486.948 498.638 486.948 497.223H477.896V495.641H488.899ZM506.231 502.549V504.113H499.938V505.625H504.456V510.529H502.505V507.189H493.347V505.625H498.005V504.113H491.747V502.549H506.231ZM492.433 500.404C495.764 500.149 497.636 499.051 497.855 497.697H493.171V496.168H498.005V494.656H499.938V496.168H504.808V497.697H500.079C500.29 499.051 502.162 500.149 505.511 500.404L504.896 501.881C502.057 501.652 499.956 500.773 498.972 499.385C497.97 500.773 495.869 501.652 493.048 501.881L492.433 500.404Z" fill="#F4F8FF"/>
<path d="M424 464C424 466.761 421.761 469 419 469C416.239 469 414 466.761 414 464C414 461.239 416.239 459 419 459C421.761 459 424 461.239 424 464Z" fill="white" stroke="#6485C6" stroke-width="2"/>
<rect x="483" y="306" width="372" height="92" rx="46" fill="#2057B1"/>
<path d="M574.812 351.586C574.812 357.548 572.414 360.144 566.892 360.144H561.282V343.072H566.892C572.326 343.072 574.812 345.734 574.812 351.586ZM571.534 351.608C571.534 347.67 570.082 345.58 567.354 345.58H564.406V357.614H567.31C570.126 357.614 571.534 355.612 571.534 351.608ZM581.032 357.042V360.474L577.908 360.496V357.042H581.032ZM591.264 349.518C591.264 347.406 593.464 346.262 596.214 346.262C598.964 346.262 601.164 347.406 601.164 349.518V349.848C601.164 351.542 599.756 352.664 597.776 353.038V354.292C599.272 354.226 600.702 354.094 602.418 353.786V355.92C599.294 356.36 595.906 356.492 592.518 356.492H589.856V354.336H594.696V353.038C592.694 352.686 591.264 351.564 591.264 349.848V349.518ZM606.224 342.17V348.88H609.26L608.82 351.212H606.224V357.438L603.188 357.878V342.61L606.224 342.17ZM606.334 362.212H593.266V357.262H596.302V360.012H606.774L606.334 362.212ZM601.626 345.866H590.582V343.798H594.784V342.412L597.82 341.972V343.798H602.066L601.626 345.866ZM598.304 349.606C598.304 348.88 597.424 348.33 596.214 348.33C595.004 348.33 594.124 348.88 594.124 349.606V349.76C594.124 350.464 595.004 351.102 596.214 351.102C597.424 351.102 598.304 350.464 598.304 349.76V349.606ZM623.806 354.534V351.872H619.846V349.672H623.806V347.582H620.418C618.9 350.86 615.072 353.566 611.486 354.644L610.056 352.73C614.434 351.52 617.932 347.978 617.932 345.668V345.36H611.2V343.16H621.1V344.678C621.1 344.92 621.078 345.162 621.056 345.382H623.806V342.61L626.798 342.17V354.094L623.806 354.534ZM622.288 354.666C624.686 354.666 626.864 355.634 626.864 358.604C626.864 361.596 624.686 362.564 622.288 362.564H617.58C615.094 362.564 612.872 361.596 612.872 358.604C612.872 355.634 615.094 354.666 617.58 354.666H622.288ZM622.002 356.844H617.822C616.634 356.844 615.82 357.328 615.82 358.604C615.82 359.902 616.634 360.386 617.822 360.386H622.002C623.102 360.386 623.916 359.902 623.916 358.604C623.916 357.328 623.102 356.844 622.002 356.844ZM641.921 351.872C641.921 352.906 641.173 353.632 640.051 353.632C639.039 353.632 638.291 352.884 638.291 351.872C638.291 350.816 639.061 350.112 640.139 350.112C641.173 350.112 641.921 350.882 641.921 351.872ZM662.809 347.582V348.858C662.809 351.806 660.345 353.39 657.573 353.39C654.801 353.39 652.337 351.806 652.337 348.858V347.582C652.337 344.634 654.801 343.05 657.573 343.05C660.345 343.05 662.809 344.634 662.809 347.582ZM665.471 342.61L668.507 342.17V347.296H671.675L671.235 349.606H668.507V356.184L665.471 356.624V342.61ZM668.793 362.212H655.725V355.81H658.761V360.012H669.233L668.793 362.212ZM659.839 348.77V347.67C659.839 346.13 658.849 345.25 657.573 345.25C656.297 345.25 655.307 346.13 655.307 347.67V348.77C655.307 350.31 656.297 351.19 657.573 351.19C658.849 351.19 659.839 350.31 659.839 348.77ZM683.999 343.292L683.559 345.47H680.017V347.868C680.017 348.33 680.105 348.836 680.413 349.166C681.777 350.684 683.163 351.982 684.703 353.28L682.943 354.974C681.381 353.72 679.907 352.422 678.521 350.992C677.135 352.51 675.485 354.094 673.879 355.458L672.031 353.852C673.571 352.466 675.155 351.102 676.497 349.342C676.783 348.968 676.981 348.462 676.981 348V345.47H673.021V343.292H683.999ZM686.089 356.888V349.562H682.327V347.362H686.089V342.61L689.081 342.17V356.448L686.089 356.888ZM689.213 362.212H676.299V355.854H679.357V360.012H689.653L689.213 362.212ZM702.356 354.578H706.316V350.332H702.356V354.578ZM702.356 348.132H706.316V343.512H709.286V356.316L706.316 356.756H699.386V343.512H702.356V348.132ZM715.248 342.17V361.86L712.256 362.3V342.61L715.248 342.17ZM730.454 354.666C732.852 354.666 735.03 355.634 735.03 358.604C735.03 361.596 732.852 362.564 730.454 362.564H725.746C723.26 362.564 721.038 361.596 721.038 358.604C721.038 355.634 723.26 354.666 725.746 354.666H730.454ZM725.724 342.588V346.372C725.724 346.834 725.812 347.34 726.12 347.67C727.484 349.188 728.958 350.64 730.498 351.938L728.738 353.632C727.176 352.378 725.548 350.97 724.206 349.496C722.864 351.036 721.06 352.752 719.454 354.116L717.606 352.51C719.146 351.124 720.774 349.606 722.116 347.846C722.402 347.472 722.6 346.966 722.6 346.504V343.028L725.724 342.588ZM734.744 342.17V347.45H737.912L737.472 349.672H734.744V353.874L731.73 354.314V342.61L734.744 342.17ZM730.168 356.844H725.988C724.8 356.844 723.986 357.328 723.986 358.604C723.986 359.902 724.8 360.386 725.988 360.386H730.168C731.268 360.386 732.082 359.902 732.082 358.604C732.082 357.328 731.268 356.844 730.168 356.844ZM750.807 342.478V349.166H752.787V342.61L755.559 342.17V361.86L752.787 362.3V351.388H750.807V361.222L748.079 361.662V342.918L750.807 342.478ZM746.121 345.778H742.183V354.71H743.305C744.581 354.71 746.011 354.622 747.265 354.336V356.47C745.989 356.734 744.449 356.844 742.843 356.844H739.367V343.6H746.121V345.778ZM777.167 351.388L776.727 353.588H758.093V351.388H777.167ZM770.039 342.39C772.437 342.39 774.703 343.336 774.703 346.218C774.703 349.1 772.437 350.068 770.039 350.068H765.199C762.713 350.068 760.535 349.1 760.535 346.218C760.535 343.336 762.713 342.39 765.199 342.39H770.039ZM769.753 344.568H765.485C764.297 344.568 763.483 345.03 763.483 346.218C763.483 347.406 764.297 347.89 765.485 347.89H769.753C770.853 347.89 771.755 347.406 771.755 346.218C771.755 345.03 770.853 344.568 769.753 344.568ZM770.039 354.908C772.437 354.908 774.703 355.854 774.703 358.736C774.703 361.618 772.437 362.586 770.039 362.586H765.199C762.713 362.586 760.535 361.618 760.535 358.736C760.535 355.854 762.713 354.908 765.199 354.908H770.039ZM769.753 357.086H765.485C764.297 357.086 763.483 357.548 763.483 358.736C763.483 359.924 764.297 360.408 765.485 360.408H769.753C770.853 360.408 771.755 359.924 771.755 358.736C771.755 357.548 770.853 357.086 769.753 357.086Z" fill="white"/>
<rect x="483" width="372" height="92" rx="46" fill="#69A2FF"/>
<path d="M558.5 37.072L565.144 54.144H561.712L560.15 49.788H553.418L551.834 54.144H548.6L555.244 37.072H558.5ZM556.828 40.482L554.32 47.324H559.27L556.828 40.482ZM570.044 51.042V54.474L566.92 54.496V51.042H570.044ZM580.276 43.518C580.276 41.406 582.476 40.262 585.226 40.262C587.976 40.262 590.176 41.406 590.176 43.518V43.848C590.176 45.542 588.768 46.664 586.788 47.038V48.292C588.284 48.226 589.714 48.094 591.43 47.786V49.92C588.306 50.36 584.918 50.492 581.53 50.492H578.868V48.336H583.708V47.038C581.706 46.686 580.276 45.564 580.276 43.848V43.518ZM595.236 36.17V42.88H598.272L597.832 45.212H595.236V51.438L592.2 51.878V36.61L595.236 36.17ZM595.346 56.212H582.278V51.262H585.314V54.012H595.786L595.346 56.212ZM590.638 39.866H579.594V37.798H583.796V36.412L586.832 35.972V37.798H591.078L590.638 39.866ZM587.316 43.606C587.316 42.88 586.436 42.33 585.226 42.33C584.016 42.33 583.136 42.88 583.136 43.606V43.76C583.136 44.464 584.016 45.102 585.226 45.102C586.436 45.102 587.316 44.464 587.316 43.76V43.606ZM612.817 48.534V45.872H608.857V43.672H612.817V41.582H609.429C607.911 44.86 604.083 47.566 600.497 48.644L599.067 46.73C603.445 45.52 606.943 41.978 606.943 39.668V39.36H600.211V37.16H610.111V38.678C610.111 38.92 610.089 39.162 610.067 39.382H612.817V36.61L615.809 36.17V48.094L612.817 48.534ZM611.299 48.666C613.697 48.666 615.875 49.634 615.875 52.604C615.875 55.596 613.697 56.564 611.299 56.564H606.591C604.105 56.564 601.883 55.596 601.883 52.604C601.883 49.634 604.105 48.666 606.591 48.666H611.299ZM611.013 50.844H606.833C605.645 50.844 604.831 51.328 604.831 52.604C604.831 53.902 605.645 54.386 606.833 54.386H611.013C612.113 54.386 612.927 53.902 612.927 52.604C612.927 51.328 612.113 50.844 611.013 50.844ZM636.697 37.05C639.095 37.05 641.361 38.04 641.361 41.054C641.361 44.046 639.095 45.058 636.697 45.058H631.857C629.371 45.058 627.193 44.046 627.193 41.054C627.193 38.04 629.371 37.05 631.857 37.05H636.697ZM643.385 48.798H636.433V52.472H633.353V48.798H624.751V46.598H643.825L643.385 48.798ZM641.053 56.212H627.611V50.712H630.669V54.012H641.493L641.053 56.212ZM636.411 39.228H632.143C630.955 39.228 630.141 39.734 630.141 41.054C630.141 42.352 630.955 42.88 632.143 42.88H636.411C637.511 42.88 638.413 42.352 638.413 41.054C638.413 39.734 637.511 39.228 636.411 39.228ZM659.03 48.336V45.41H655.62V44.706C654.762 46.334 652.848 47.192 650.758 47.192C647.92 47.192 645.412 45.608 645.412 42.66V41.362C645.412 38.414 647.92 36.83 650.758 36.83C652.848 36.83 654.762 37.688 655.62 39.338V38.172H659.03V36.61L662 36.17V47.896L659.03 48.336ZM657.512 48.666C659.91 48.666 662.088 49.634 662.088 52.604C662.088 55.596 659.91 56.564 657.512 56.564H652.804C650.318 56.564 648.096 55.596 648.096 52.604C648.096 49.634 650.318 48.666 652.804 48.666H657.512ZM657.226 50.844H653.046C651.858 50.844 651.044 51.328 651.044 52.604C651.044 53.902 651.858 54.386 653.046 54.386H657.226C658.326 54.386 659.14 53.902 659.14 52.604C659.14 51.328 658.326 50.844 657.226 50.844ZM653.134 42.572V41.45C653.134 39.91 652.1 39.03 650.758 39.03C649.416 39.03 648.382 39.91 648.382 41.45V42.572C648.382 44.112 649.416 44.992 650.758 44.992C652.1 44.992 653.134 44.112 653.134 42.572ZM656.104 42.66C656.104 42.858 656.082 43.034 656.06 43.21H659.03V40.35H655.994C656.06 40.68 656.104 41.01 656.104 41.362V42.66ZM681.496 36.17V42.704H684.532L684.092 44.926H681.496V50.448L678.46 50.888V36.61L681.496 36.17ZM665.128 46.598H668.516V41.758H671.442V46.598C673.378 46.532 675.82 46.356 677.69 46.048V48.226C674.566 48.666 671.178 48.798 667.79 48.798H665.128V46.598ZM681.606 56.212H668.538V50.03H671.574V54.012H682.046L681.606 56.212ZM673.664 39.184H666.052V36.984H676.81C676.722 39.272 676.392 43.254 675.864 45.102H672.916C673.4 43.474 673.664 40.592 673.664 39.184ZM693.071 43.122V39.646H686.361V37.468H696.085V45.278H689.419V48.798H691.003C693.005 48.798 696.063 48.71 698.175 48.27V50.448C695.931 50.822 692.807 50.976 690.739 50.976H686.361V43.122H693.071ZM702.047 36.17V55.86L699.055 56.3V36.61L702.047 36.17ZM715.564 40.042H718.556L718.688 45.652H722.406L722.582 40.042H725.596L725.376 45.652H728.368L727.928 47.852H712.902V45.652H715.674L715.564 40.042ZM730.084 51.174L729.644 53.418H711.01V51.174H730.084ZM727.444 39.272H713.606V37.072H727.444V39.272ZM731.034 51.438H739.13V48.248H733.894V41.582H744.146V39.316H733.806V37.116H747.182V43.782H736.952V46.048H747.776L747.336 48.248H742.298V51.438H750.108L749.668 53.682H731.034V51.438ZM761.683 36.918L764.411 36.478V55.222L761.683 55.662V44.112H758.757V41.846H761.683V36.918ZM754.357 44.794C754.511 44.442 754.533 43.804 754.533 43.342V37.732L757.393 37.292V43.276C757.393 43.738 757.371 44.266 757.547 44.684C758.119 45.96 759.967 48.578 761.155 50.008L759.285 51.702C758.361 50.558 756.953 48.798 756.051 47.456C755.061 48.952 753.697 50.712 752.487 52.164L750.639 50.558C752.157 48.732 753.675 46.268 754.357 44.794ZM765.709 36.61L768.481 36.17V55.86L765.709 56.3V36.61ZM790.155 51.174L789.715 53.418H771.081V51.174H790.155ZM782.191 36.984V40.328C782.191 40.79 782.235 41.34 782.587 41.626C784.149 42.946 787.031 45.124 788.945 46.378L787.317 48.226C785.381 46.994 782.169 44.794 780.673 43.452C779.133 44.772 775.987 47.082 773.875 48.38L772.225 46.554C774.271 45.212 777.021 43.188 778.561 41.802C778.913 41.494 779.045 40.922 779.045 40.46V37.424L782.191 36.984Z" fill="white"/>
<rect x="913.75" y="0.75" width="313.5" height="382.5" rx="7.25" stroke="#3F8C9A" stroke-width="1.5"/>
<path d="M974.145 262.992V262.322H972.791V262.992C972.784 264.64 970.802 266.144 968.402 266.465L968.922 267.531C970.911 267.21 972.668 266.171 973.468 264.729C974.268 266.171 976.024 267.21 978.027 267.531L978.533 266.465C976.127 266.144 974.138 264.619 974.145 262.992ZM967.869 269.801H972.791V274.162H974.062V269.801H979.039V268.734H967.869V269.801ZM990.113 261.912H988.828V268.242H990.113V261.912ZM980.105 267.271L980.707 268.297C982.211 267.825 983.332 266.807 983.872 265.508C984.426 266.684 985.506 267.606 986.955 268.037L987.584 267.039C985.677 266.499 984.508 265.118 984.508 263.621H987.201V262.568H980.447V263.621H983.195C983.188 265.207 982.006 266.684 980.105 267.271ZM982.074 269.801H988.842V270.895H982.115V274.039H990.537V273.027H983.373V271.838H990.127V268.803H982.074V269.801ZM1001.71 261.912H1000.41V271.482H1001.71V267.189H1003.46V266.109H1001.71V261.912ZM991.986 269.104L992.123 270.143C994.263 270.122 997.209 270.088 999.82 269.596L999.711 268.68C998.686 268.837 997.578 268.939 996.484 269.001V268.201C997.865 268.044 998.733 267.374 998.74 266.369C998.733 265.18 997.585 264.469 995.828 264.482C994.071 264.469 992.902 265.18 992.916 266.369C992.902 267.374 993.791 268.044 995.186 268.208V269.062C994.03 269.104 992.93 269.104 991.986 269.104ZM992.301 264.004H999.369V263.047H996.484V261.871H995.186V263.047H992.301V264.004ZM993.791 273.902H1002.14V272.85H995.09V270.84H993.791V273.902ZM994.146 266.369C994.146 265.733 994.782 265.364 995.828 265.371C996.86 265.364 997.503 265.733 997.496 266.369C997.503 266.964 996.86 267.34 995.828 267.34C994.782 267.34 994.146 266.964 994.146 266.369ZM1014.38 261.926H1013.08V264.1H1010.42C1010.5 263.689 1010.55 263.252 1010.55 262.801H1004.95V263.867H1009.14C1008.91 265.843 1007.22 267.401 1004.32 268.229L1004.84 269.24C1007.49 268.481 1009.33 267.094 1010.12 265.125H1013.08V266.615H1009.99V267.682H1013.08V269.172H1014.38V261.926ZM1006.22 271.701C1006.22 273.191 1007.83 274.107 1010.35 274.107C1012.83 274.107 1014.46 273.191 1014.46 271.701C1014.46 270.218 1012.83 269.315 1010.35 269.309C1007.83 269.315 1006.22 270.218 1006.22 271.701ZM1007.5 271.701C1007.5 270.826 1008.6 270.327 1010.35 270.334C1012.06 270.327 1013.16 270.826 1013.16 271.701C1013.16 272.562 1012.06 273.062 1010.35 273.068C1008.6 273.062 1007.5 272.562 1007.5 271.701ZM1018.47 272.057H1016.94L1016.21 275.83H1017.38L1018.47 272.057ZM1033.78 261.912H1032.54V266.766H1030.95V262.158H1029.76V273.533H1030.95V267.832H1032.54V274.162H1033.78V261.912ZM1023.68 271.223H1024.5C1026.28 271.209 1027.55 271.161 1029.02 270.854L1028.93 269.787C1027.62 270.04 1026.48 270.108 1024.98 270.115V264.441H1028.27V263.389H1023.68V271.223ZM1045.55 261.912H1044.24V274.162H1045.55V261.912ZM1035.49 270.881L1036.17 271.934C1040.38 269.917 1041.9 266.813 1041.9 263.225H1036.08V264.264H1040.59C1040.34 267.121 1038.74 269.329 1035.49 270.881ZM1057.11 261.912H1055.81V271.482H1057.11V267.189H1058.86V266.109H1057.11V261.912ZM1047.38 269.104L1047.52 270.143C1049.66 270.122 1052.61 270.088 1055.22 269.596L1055.11 268.68C1054.08 268.837 1052.98 268.939 1051.88 269.001V268.201C1053.26 268.044 1054.13 267.374 1054.14 266.369C1054.13 265.18 1052.98 264.469 1051.23 264.482C1049.47 264.469 1048.3 265.18 1048.31 266.369C1048.3 267.374 1049.19 268.044 1050.58 268.208V269.062C1049.43 269.104 1048.33 269.104 1047.38 269.104ZM1047.7 264.004H1054.77V263.047H1051.88V261.871H1050.58V263.047H1047.7V264.004ZM1049.19 273.902H1057.54V272.85H1050.49V270.84H1049.19V273.902ZM1049.54 266.369C1049.54 265.733 1050.18 265.364 1051.23 265.371C1052.26 265.364 1052.9 265.733 1052.89 266.369C1052.9 266.964 1052.26 267.34 1051.23 267.34C1050.18 267.34 1049.54 266.964 1049.54 266.369ZM1069.78 261.926H1068.48V264.1H1065.82C1065.9 263.689 1065.95 263.252 1065.95 262.801H1060.35V263.867H1064.54C1064.31 265.843 1062.62 267.401 1059.72 268.229L1060.24 269.24C1062.89 268.481 1064.73 267.094 1065.52 265.125H1068.48V266.615H1065.39V267.682H1068.48V269.172H1069.78V261.926ZM1061.62 271.701C1061.62 273.191 1063.23 274.107 1065.75 274.107C1068.23 274.107 1069.85 273.191 1069.86 271.701C1069.85 270.218 1068.23 269.315 1065.75 269.309C1063.23 269.315 1061.62 270.218 1061.62 271.701ZM1062.9 271.701C1062.9 270.826 1064 270.327 1065.75 270.334C1067.46 270.327 1068.56 270.826 1068.56 271.701C1068.56 272.562 1067.46 273.062 1065.75 273.068C1064 273.062 1062.9 272.562 1062.9 271.701ZM1073.87 272.057H1072.34L1071.61 275.83H1072.77L1073.87 272.057ZM1089.26 261.912H1088.02V274.162H1089.26V261.912ZM1078.53 270.156L1078.68 271.25C1080.29 271.236 1082.83 271.188 1084.74 270.867L1084.64 269.896C1084.28 269.938 1083.88 269.979 1083.46 270.006V264.469H1084.41V263.402H1078.79V264.469H1079.73V270.149C1079.29 270.156 1078.88 270.156 1078.53 270.156ZM1080.91 270.129V264.469H1082.28V270.074C1081.82 270.102 1081.36 270.115 1080.91 270.129ZM1084.12 268.98H1085.64V273.533H1086.86V262.186H1085.64V265.371H1084.12V266.438H1085.64V267.914H1084.12V268.98ZM1100.95 261.912H1099.64V274.162H1100.95V261.912ZM1090.89 270.881L1091.57 271.934C1095.78 269.917 1097.3 266.813 1097.3 263.225H1091.48V264.264H1095.99C1095.74 267.121 1094.14 269.329 1090.89 270.881ZM1114.04 266.984H1102.87V268.023H1107.79V269.09H1104.21V270.088H1111.34V271.018H1104.22V274.039H1112.97V273.041H1105.49V271.961H1112.63V269.09H1109.09V268.023H1114.04V266.984ZM1104.3 266.082H1112.6V262.309H1104.3V266.082ZM1105.57 265.057V263.334H1111.3V265.057H1105.57ZM1117.17 272.057H1115.63L1114.91 275.83H1116.07L1117.17 272.057ZM1131.56 261.912H1130.26V274.162H1131.56V268.133H1133.41V267.039H1131.56V261.912ZM1121.81 270.826L1122.02 271.906C1124.13 271.913 1127 271.886 1129.65 271.414L1129.57 270.457C1128.55 270.601 1127.45 270.689 1126.37 270.744V269.548C1127.75 269.35 1128.67 268.509 1128.68 267.326C1128.67 265.945 1127.46 265.036 1125.72 265.029C1123.98 265.036 1122.79 265.945 1122.8 267.326C1122.79 268.509 1123.69 269.343 1125.07 269.548V270.792C1123.9 270.826 1122.78 270.826 1121.81 270.826ZM1122.05 264.4H1129.39V263.361H1126.37V261.939H1125.07V263.361H1122.05V264.4ZM1124.02 267.326C1124.02 266.54 1124.7 266.041 1125.72 266.041C1126.75 266.041 1127.43 266.54 1127.43 267.326C1127.43 268.105 1126.75 268.591 1125.72 268.584C1124.7 268.591 1124.02 268.105 1124.02 267.326ZM1141.38 263.156H1138.38V261.857H1137.09V263.156H1134.08V264.195H1141.38V263.156ZM1134.75 266.971C1134.74 268.317 1135.96 269.199 1137.73 269.199C1139.49 269.199 1140.7 268.317 1140.7 266.971C1140.7 265.631 1139.49 264.756 1137.73 264.742C1135.96 264.756 1134.74 265.631 1134.75 266.971ZM1135.6 271.25H1142.39V274.162H1143.69V270.197H1135.6V271.25ZM1136.01 266.971C1135.99 266.219 1136.69 265.747 1137.73 265.74C1138.77 265.747 1139.46 266.219 1139.48 266.971C1139.46 267.729 1138.77 268.188 1137.73 268.188C1136.69 268.188 1135.99 267.729 1136.01 266.971ZM1142.39 269.568H1143.69V266.314H1145.47V265.234H1143.69V261.912H1142.39V269.568ZM1157.33 266.984H1146.16V268.023H1151.09V269.09H1147.5V270.088H1154.64V271.018H1147.52V274.039H1156.27V273.041H1148.79V271.961H1155.93V269.09H1152.38V268.023H1157.33V266.984ZM1147.6 266.082H1155.9V262.309H1147.6V266.082ZM1148.87 265.057V263.334H1154.6V265.057H1148.87ZM1168.41 261.912H1167.12V268.242H1168.41V261.912ZM1158.4 267.271L1159 268.297C1160.51 267.825 1161.63 266.807 1162.17 265.508C1162.72 266.684 1163.8 267.606 1165.25 268.037L1165.88 267.039C1163.97 266.499 1162.8 265.118 1162.8 263.621H1165.5V262.568H1158.74V263.621H1161.49C1161.48 265.207 1160.3 266.684 1158.4 267.271ZM1160.37 269.801H1167.14V270.895H1160.41V274.039H1168.83V273.027H1161.67V271.838H1168.42V268.803H1160.37V269.801ZM1180.6 262.842H1174.42V263.908H1179.33C1179.31 264.681 1179.27 265.672 1179 267.025L1180.29 267.148C1180.59 265.562 1180.59 264.346 1180.6 263.525V262.842ZM1173.69 268.201L1173.81 269.254C1175.97 269.247 1178.89 269.199 1181.45 268.748L1181.37 267.805C1180.14 267.982 1178.79 268.078 1177.47 268.133V265.59H1176.19V268.174C1175.29 268.194 1174.44 268.201 1173.69 268.201ZM1175.54 273.902H1183.87V272.85H1176.84V270.279H1175.54V273.902ZM1182.15 271.113H1183.47V266.902H1185.16V265.809H1183.47V261.912H1182.15V271.113ZM1196.05 261.912H1194.75V274.189H1196.05V261.912ZM1186.56 264.072H1190.98V266.451H1186.58V271.25H1187.62C1189.78 271.243 1191.63 271.161 1193.8 270.799L1193.67 269.732C1191.62 270.067 1189.89 270.163 1187.9 270.17V267.49H1192.31V263.02H1186.56V264.072Z" fill="#535353"/>
<path d="M952.292 245.156C954.792 245.172 956.471 243.5 956.464 241.25C956.471 239.109 954.901 237.57 952.87 237.578C951.628 237.57 950.542 238.148 949.964 239.125H949.854C949.862 236.742 950.776 235.289 952.417 235.297C953.448 235.289 954.135 235.867 954.339 236.734H956.354C956.096 234.898 954.596 233.531 952.417 233.531C949.643 233.531 947.885 235.789 947.885 239.656C947.878 243.828 950.081 245.141 952.292 245.156ZM950.073 241.312C950.089 240.133 951.05 239.125 952.323 239.125C953.581 239.125 954.487 240.094 954.495 241.297C954.487 242.539 953.55 243.508 952.292 243.516C951.01 243.508 950.089 242.492 950.073 241.312ZM959.495 245.125C960.143 245.125 960.698 244.578 960.698 243.906C960.698 243.25 960.143 242.711 959.495 242.703C958.823 242.711 958.268 243.25 958.276 243.906C958.268 244.578 958.823 245.125 959.495 245.125ZM978.703 233.641H968.828V235.047H976.969V235.234C976.969 237.07 976.969 239.117 976.422 241.891L978.188 242.047C978.703 239.07 978.703 237.125 978.703 235.234V233.641ZM967.469 244.453H980.344V243.031H967.469V244.453ZM993.031 232.281H991.312V242.672H993.031V232.281ZM982.016 234.625H986.812V236.281H982.047V240.797H983.25C986.141 240.797 987.992 240.727 990.125 240.328L989.938 238.938C987.992 239.297 986.305 239.375 983.75 239.375V237.594H988.531V233.234H982.016V234.625ZM983.625 246.109H993.422V244.703H985.375V241.828H983.625V246.109ZM1006.95 232.281H1005.22V234.672H1002.38C1002.46 234.227 1002.5 233.758 1002.5 233.266H996.016V234.672H1000.6C1000.34 236.773 998.57 238.453 995.266 239.344L995.969 240.719C999.039 239.859 1001.1 238.289 1001.99 236.047H1005.22V237.562H1001.86V238.969H1005.22V240.531H1006.95V232.281ZM997.484 243.5C997.484 245.234 999.383 246.32 1002.28 246.312C1005.14 246.32 1007.05 245.234 1007.05 243.5C1007.05 241.766 1005.14 240.695 1002.28 240.688C999.383 240.695 997.484 241.766 997.484 243.5ZM999.219 243.5C999.219 242.555 1000.38 242.047 1002.28 242.047C1004.15 242.047 1005.3 242.555 1005.31 243.5C1005.3 244.43 1004.15 244.938 1002.28 244.938C1000.38 244.938 999.219 244.43 999.219 243.5ZM1012.88 233.062C1010.74 233.055 1009.14 234.484 1009.14 236.484C1009.14 238.469 1010.74 239.898 1012.88 239.891C1014.01 239.898 1014.99 239.477 1015.66 238.781H1019.05V240.578H1020.78V232.266H1019.05V234.188H1015.67C1015.01 233.477 1014.02 233.055 1012.88 233.062ZM1010.8 236.484C1010.8 235.289 1011.66 234.547 1012.88 234.547C1014.05 234.547 1014.91 235.289 1014.92 236.484C1014.91 237.641 1014.05 238.422 1012.88 238.422C1011.66 238.422 1010.8 237.641 1010.8 236.484ZM1011.2 243.625C1011.19 245.359 1013.04 246.375 1016 246.375C1018.97 246.375 1020.82 245.359 1020.83 243.625C1020.82 241.883 1018.97 240.867 1016 240.875C1013.04 240.867 1011.19 241.883 1011.2 243.625ZM1012.91 243.625C1012.89 242.703 1014.04 242.211 1016 242.203C1018 242.211 1019.12 242.703 1019.12 243.625C1019.12 244.523 1018 245.008 1016 245.016C1014.04 245.008 1012.89 244.523 1012.91 243.625ZM1016.45 235.578H1019.05V237.375H1016.46C1016.53 237.094 1016.58 236.797 1016.58 236.484C1016.58 236.164 1016.53 235.867 1016.45 235.578ZM1039.47 239.25H1026.56V240.641H1032.25V243.234H1034.02V240.641H1039.47V239.25ZM1027.94 235.469C1027.93 237.25 1029.96 238.352 1033 238.344C1036.05 238.352 1038.06 237.25 1038.06 235.469C1038.06 233.695 1036.05 232.578 1033 232.578C1029.96 232.578 1027.93 233.695 1027.94 235.469ZM1028.14 246.109H1038.05V244.688H1029.89V241.922H1028.14V246.109ZM1029.81 235.469C1029.8 234.5 1031.06 233.953 1033 233.953C1034.95 233.953 1036.21 234.5 1036.2 235.469C1036.21 236.406 1034.95 236.953 1033 236.953C1031.06 236.953 1029.8 236.406 1029.81 235.469ZM1044.33 233.062C1042.2 233.055 1040.59 234.484 1040.59 236.484C1040.59 238.469 1042.2 239.898 1044.33 239.891C1045.46 239.898 1046.45 239.477 1047.12 238.781H1050.5V240.578H1052.23V232.266H1050.5V234.188H1047.12C1046.46 233.477 1045.47 233.055 1044.33 233.062ZM1042.25 236.484C1042.25 235.289 1043.12 234.547 1044.33 234.547C1045.5 234.547 1046.37 235.289 1046.38 236.484C1046.37 237.641 1045.5 238.422 1044.33 238.422C1043.12 238.422 1042.25 237.641 1042.25 236.484ZM1042.66 243.625C1042.64 245.359 1044.49 246.375 1047.45 246.375C1050.42 246.375 1052.27 245.359 1052.28 243.625C1052.27 241.883 1050.42 240.867 1047.45 240.875C1044.49 240.867 1042.64 241.883 1042.66 243.625ZM1044.36 243.625C1044.34 242.703 1045.49 242.211 1047.45 242.203C1049.45 242.211 1050.58 242.703 1050.58 243.625C1050.58 244.523 1049.45 245.008 1047.45 245.016C1045.49 245.008 1044.34 244.523 1044.36 243.625ZM1047.91 235.578H1050.5V237.375H1047.91C1047.98 237.094 1048.03 236.797 1048.03 236.484C1048.03 236.164 1047.98 235.867 1047.91 235.578ZM1065.42 232.266H1063.69V240.578H1065.42V237.156H1067.33V235.703H1065.42V232.266ZM1054.11 239.156L1054.3 240.375C1056.76 240.375 1060.07 240.352 1063.09 239.844L1062.95 238.75C1061.82 238.906 1060.61 239 1059.41 239.062V238.406C1060.96 238.242 1061.92 237.586 1061.92 236.562C1061.92 235.422 1060.59 234.75 1058.52 234.75C1056.45 234.75 1055.1 235.422 1055.11 236.562C1055.1 237.602 1056.09 238.25 1057.67 238.414V239.125C1056.4 239.156 1055.17 239.156 1054.11 239.156ZM1054.47 234.406H1062.58V233.219H1059.41V232.156H1057.67V233.219H1054.47V234.406ZM1055.98 242.312H1063.69V243.109H1056.02V246.266H1065.92V245.094H1057.75V244.188H1065.42V241.141H1055.98V242.312ZM1056.78 236.562C1056.77 236.094 1057.42 235.852 1058.52 235.844C1059.61 235.852 1060.27 236.094 1060.27 236.562C1060.27 237.07 1059.61 237.344 1058.52 237.344C1057.42 237.344 1056.77 237.07 1056.78 236.562ZM1080.95 239.031H1075.36V237.688H1079.47V236.312H1071.38V234.266H1079.39V232.906H1069.64V237.688H1073.66V239.031H1068.06V240.422H1080.95V239.031ZM1069.56 243.812C1069.56 245.453 1071.41 246.383 1074.48 246.391C1077.53 246.383 1079.37 245.453 1079.38 243.812C1079.37 242.156 1077.53 241.227 1074.48 241.234C1071.41 241.227 1069.56 242.156 1069.56 243.812ZM1071.33 243.812C1071.32 243 1072.43 242.562 1074.48 242.562C1076.51 242.562 1077.62 243 1077.64 243.812C1077.62 244.633 1076.51 245.055 1074.48 245.047C1072.43 245.055 1071.32 244.633 1071.33 243.812Z" fill="#1B4B66"/>
<path d="M952.245 205.156C954.69 205.156 956.393 203.539 956.385 201.281C956.393 199.102 954.831 197.539 952.729 197.531C951.8 197.539 950.979 197.898 950.542 198.391H950.432L950.776 195.391H955.792V193.688H949.104L948.417 200.094H950.307C950.659 199.43 951.3 199.117 952.182 199.125C953.487 199.133 954.425 200.047 954.417 201.344C954.425 202.594 953.51 203.508 952.245 203.516C951.175 203.508 950.307 202.852 950.245 201.938H948.26C948.323 203.805 949.987 205.156 952.245 205.156ZM959.495 205.125C960.143 205.125 960.698 204.578 960.698 203.906C960.698 203.25 960.143 202.711 959.495 202.703C958.823 202.711 958.268 203.25 958.276 203.906C958.268 204.578 958.823 205.125 959.495 205.125ZM978.656 192.266H976.922V203.297H978.656V198.438H980.562V197H978.656V192.266ZM967.344 200.469L967.531 201.828C969.969 201.805 973.336 201.766 976.328 201.203L976.188 199.984C975.055 200.156 973.844 200.266 972.641 200.336V199.523C974.188 199.312 975.156 198.547 975.156 197.422C975.156 196.039 973.805 195.219 971.75 195.234C969.703 195.219 968.336 196.039 968.344 197.422C968.336 198.555 969.336 199.328 970.906 199.523V200.422C969.625 200.461 968.398 200.469 967.344 200.469ZM967.703 194.766H975.812V193.5H972.641V192.219H970.906V193.5H967.703V194.766ZM969.375 206.109H979.156V204.703H971.109V202.562H969.375V206.109ZM970.016 197.422C970 196.758 970.656 196.398 971.75 196.406C972.844 196.398 973.5 196.758 973.5 197.422C973.5 198.031 972.844 198.391 971.75 198.391C970.656 198.391 970 198.031 970.016 197.422ZM993.125 192.281H991.391V194.672H988.555C988.633 194.227 988.672 193.758 988.672 193.266H982.188V194.672H986.773C986.508 196.773 984.742 198.453 981.438 199.344L982.141 200.719C985.211 199.859 987.273 198.289 988.164 196.047H991.391V197.562H988.031V198.969H991.391V200.531H993.125V192.281ZM983.656 203.5C983.656 205.234 985.555 206.32 988.453 206.312C991.312 206.32 993.219 205.234 993.219 203.5C993.219 201.766 991.312 200.695 988.453 200.688C985.555 200.695 983.656 201.766 983.656 203.5ZM985.391 203.5C985.391 202.555 986.555 202.047 988.453 202.047C990.32 202.047 991.477 202.555 991.484 203.5C991.477 204.43 990.32 204.938 988.453 204.938C986.555 204.938 985.391 204.43 985.391 203.5ZM1010.69 192.281H1008.94V202.484H1010.69V192.281ZM999.172 196.734C999.172 198.82 1000.84 200.281 1002.98 200.281C1005.13 200.281 1006.79 198.82 1006.78 196.734C1006.79 194.68 1005.13 193.211 1002.98 193.203C1000.84 193.211 999.172 194.68 999.172 196.734ZM1000.88 196.734C1000.87 195.516 1001.77 194.719 1002.98 194.719C1004.16 194.719 1005.08 195.516 1005.08 196.734C1005.08 197.984 1004.16 198.766 1002.98 198.766C1001.77 198.766 1000.87 197.984 1000.88 196.734ZM1001.34 206.109H1011.08V204.703H1003.09V201.453H1001.34V206.109ZM1021.09 194.438H1017.8V192.469H1016.05V194.438H1012.78V195.828H1021.09V194.438ZM1013.55 200.078C1013.55 201.984 1014.99 203.391 1016.94 203.391C1018.87 203.391 1020.29 201.984 1020.3 200.078C1020.29 198.148 1018.87 196.742 1016.94 196.75C1014.99 196.742 1013.55 198.148 1013.55 200.078ZM1015.17 200.078C1015.16 198.961 1015.92 198.227 1016.94 198.219C1017.94 198.227 1018.7 198.961 1018.7 200.078C1018.7 201.203 1017.94 201.922 1016.94 201.906C1015.92 201.922 1015.16 201.203 1015.17 200.078ZM1020.8 199.391H1022.88V206.391H1024.59V192.266H1022.88V197.969H1020.8V199.391ZM1037.64 192.266H1035.91V206.359H1037.64V199.234H1039.73V197.781H1037.64V192.266ZM1026.5 202.5L1027.48 203.844C1032.18 201.531 1033.9 197.883 1033.91 193.734H1027.27V195.172H1032.14C1031.8 198.391 1029.94 200.781 1026.5 202.5Z" fill="#1B4B66"/>
<path d="M949.042 311H951.151L956.057 301.422V299.688H948.26V301.391H953.948V301.469L949.042 311ZM959.495 311.125C960.143 311.125 960.698 310.578 960.698 309.906C960.698 309.25 960.143 308.711 959.495 308.703C958.823 308.711 958.268 309.25 958.276 309.906C958.268 310.578 958.823 311.125 959.495 311.125ZM979.188 298.906H968.641V300.297H972.703C972.539 301.625 970.836 302.898 968.109 303.219L968.75 304.594C971.281 304.289 973.133 303.164 973.891 301.648C974.648 303.172 976.516 304.289 979.047 304.594L979.703 303.219C976.977 302.898 975.25 301.633 975.094 300.297H979.188V298.906ZM967.453 306.781H973.188V309.359H974.906V306.781H980.359V305.375H967.453V306.781ZM969.016 312.109H978.938V310.703H970.75V308.062H969.016V312.109ZM988.656 299.438V298.719H986.828V299.438C986.828 301.227 984.844 303.016 981.859 303.406L982.547 304.812C984.922 304.453 986.82 303.273 987.742 301.68C988.664 303.273 990.57 304.453 992.969 304.812L993.656 303.406C990.641 303.016 988.648 301.211 988.656 299.438ZM981.297 307.469H986.844V312.391H988.562V307.469H994.172V306.031H981.297V307.469ZM1003.02 299.25H995.5V300.656H996.734V304.852C996.172 304.859 995.633 304.859 995.141 304.859L995.328 306.297C997.578 306.289 1000.7 306.242 1003.39 305.797L1003.32 304.641H1005.22V306.922H1006.95V298.266H1005.22V300.641H1003.28V302.031H1005.22V303.25H1003.28V304.516C1002.8 304.578 1002.28 304.625 1001.77 304.664V300.656H1003.02V299.25ZM997.375 309.781C997.359 311.406 999.18 312.375 1002.17 312.375C1005.19 312.375 1006.99 311.406 1007 309.781C1006.99 308.117 1005.19 307.172 1002.17 307.172C999.18 307.172 997.359 308.117 997.375 309.781ZM998.422 304.828V300.656H1000.09V304.766C999.531 304.789 998.969 304.812 998.422 304.828ZM999.094 309.781C999.086 308.945 1000.2 308.5 1002.17 308.5C1004.16 308.5 1005.27 308.945 1005.27 309.781C1005.27 310.602 1004.16 311.031 1002.17 311.031C1000.2 311.031 999.086 310.602 999.094 309.781ZM1020.02 298.266H1018.28V312.359H1020.02V305.234H1022.11V303.781H1020.02V298.266ZM1008.88 308.5L1009.86 309.844C1014.55 307.531 1016.27 303.883 1016.28 299.734H1009.64V301.172H1014.52C1014.17 304.391 1012.31 306.781 1008.88 308.5ZM1030.67 299.312H1023.47V300.75H1028.96C1028.95 301.617 1028.89 302.703 1028.61 304.156L1030.33 304.312C1030.66 302.523 1030.66 301.117 1030.67 300.156V299.312ZM1022.62 305.438L1022.78 306.828C1025.26 306.82 1028.59 306.766 1031.53 306.234L1031.44 304.984C1030.07 305.18 1028.57 305.289 1027.11 305.352V302.531H1025.39V305.406C1024.4 305.422 1023.46 305.43 1022.62 305.438ZM1024.73 312.109H1034.5V310.703H1026.48V307.906H1024.73V312.109ZM1032.27 308.844H1034.05V304.125H1035.88V302.672H1034.05V298.266H1032.27V308.844ZM1048.38 298.266H1046.66V312.406H1048.38V298.266ZM1037.38 300.906H1042.27V303.422H1037.39V309.062H1038.62C1041.16 309.07 1043.27 308.977 1045.67 308.562L1045.52 307.141C1043.31 307.508 1041.4 307.625 1039.17 307.641V304.797H1044.03V299.5H1037.38V300.906Z" fill="#1B4B66"/>
<path d="M952.167 351.156C954.667 351.156 956.456 349.812 956.464 347.969C956.456 346.531 955.378 345.359 954.026 345.141V345.078C955.198 344.828 956.026 343.805 956.026 342.562C956.026 340.812 954.385 339.531 952.167 339.531C949.932 339.531 948.3 340.812 948.292 342.562C948.3 343.797 949.104 344.828 950.292 345.078V345.141C948.932 345.359 947.862 346.531 947.87 347.969C947.862 349.812 949.643 351.156 952.167 351.156ZM949.964 347.781C949.956 346.711 950.893 345.93 952.167 345.938C953.44 345.93 954.362 346.719 954.37 347.781C954.362 348.828 953.495 349.547 952.167 349.547C950.823 349.547 949.956 348.828 949.964 347.781ZM950.276 342.75C950.284 341.789 951.034 341.125 952.167 341.125C953.276 341.125 954.042 341.789 954.042 342.75C954.042 343.742 953.253 344.422 952.167 344.422C951.065 344.422 950.284 343.742 950.276 342.75ZM959.495 351.125C960.143 351.125 960.698 350.578 960.698 349.906C960.698 349.25 960.143 348.711 959.495 348.703C958.823 348.711 958.268 349.25 958.276 349.906C958.268 350.578 958.823 351.125 959.495 351.125ZM979.297 338.281H977.562V340.719H974.719V339.203H973V341.484H969.844V339.203H968.109V346.406H974.719V345.156H977.562V348.703H979.297V338.281ZM969.844 345.031V342.828H973V345.031H969.844ZM969.984 352.109H979.609V350.703H971.75V347.672H969.984V352.109ZM974.719 343.75V342.125H977.562V343.75H974.719ZM993.125 338.281H991.391V340.672H988.555C988.633 340.227 988.672 339.758 988.672 339.266H982.188V340.672H986.773C986.508 342.773 984.742 344.453 981.438 345.344L982.141 346.719C985.211 345.859 987.273 344.289 988.164 342.047H991.391V343.562H988.031V344.969H991.391V346.531H993.125V338.281ZM983.656 349.5C983.656 351.234 985.555 352.32 988.453 352.312C991.312 352.32 993.219 351.234 993.219 349.5C993.219 347.766 991.312 346.695 988.453 346.688C985.555 346.695 983.656 347.766 983.656 349.5ZM985.391 349.5C985.391 348.555 986.555 348.047 988.453 348.047C990.32 348.047 991.477 348.555 991.484 349.5C991.477 350.43 990.32 350.938 988.453 350.938C986.555 350.938 985.391 350.43 985.391 349.5ZM1003.02 339.312H995.812V340.75H1001.3C1001.29 341.617 1001.23 342.703 1000.95 344.156L1002.67 344.312C1003 342.523 1003 341.117 1003.02 340.156V339.312ZM994.969 345.438L995.125 346.828C997.602 346.82 1000.94 346.766 1003.88 346.234L1003.78 344.984C1002.41 345.18 1000.91 345.289 999.453 345.352V342.531H997.734V345.406C996.742 345.422 995.805 345.43 994.969 345.438ZM997.078 352.109H1006.84V350.703H998.828V347.906H997.078V352.109ZM1004.61 348.844H1006.39V344.125H1008.22V342.672H1006.39V338.266H1004.61V348.844ZM1020.72 338.266H1019V352.406H1020.72V338.266ZM1009.72 340.906H1014.61V343.422H1009.73V349.062H1010.97C1013.51 349.07 1015.62 348.977 1018.02 348.562L1017.86 347.141C1015.66 347.508 1013.74 347.625 1011.52 347.641V344.797H1016.38V339.5H1009.72V340.906Z" fill="#1B4B66"/>
<path d="M954.12 33.6875H952.167L949.37 35.5V37.3594L952.01 35.6719H952.073V45H954.12V33.6875ZM959.495 45.125C960.143 45.125 960.698 44.5781 960.698 43.9062C960.698 43.25 960.143 42.7109 959.495 42.7031C958.823 42.7109 958.268 43.25 958.276 43.9062C958.268 44.5781 958.823 45.125 959.495 45.125ZM980.375 43.2656H974.781V40.0156H973.047V43.2656H967.469V44.6875H980.375V43.2656ZM968.031 39.2344L968.719 40.6094C971.07 40.1641 973.008 38.8594 973.914 37.0703C974.828 38.8359 976.789 40.1016 979.172 40.5312L979.859 39.1562C976.961 38.7188 974.867 36.8594 974.812 34.8281H979.266V33.4062H968.547V34.8281H972.984C972.938 36.8594 970.844 38.7656 968.031 39.2344ZM986.656 34.7188V34.5469H989.625V33.1562H981.859V34.5469H984.906V34.7188C984.891 36.5703 983.68 38.4062 981.406 39.1719L982.297 40.5156C983.969 39.9531 985.172 38.7891 985.805 37.3281C986.453 38.6719 987.617 39.7344 989.219 40.25L990.109 38.9062C987.859 38.2031 986.656 36.4609 986.656 34.7188ZM983.422 42.8438H991.312V46.3906H993.062V41.4375H983.422V42.8438ZM991.312 40.7812H993.062V32.2656H991.312V40.7812ZM1000.12 34.5156V33.0156H998.391V34.3594C998.383 36.375 997.242 38.2578 994.969 39.0469L995.906 40.4062C997.531 39.8359 998.672 38.6562 999.281 37.1562C999.898 38.4688 1000.99 39.5 1002.52 40.0156L1003.45 38.6562C1001.27 37.9688 1000.12 36.2891 1000.12 34.5156ZM996.891 43.6875C996.891 45.3984 998.727 46.375 1001.67 46.375C1004.59 46.375 1006.4 45.3984 1006.41 43.6875C1006.4 42.0156 1004.59 41.0234 1001.67 41.0312C998.727 41.0234 996.891 42.0156 996.891 43.6875ZM998.625 43.6875C998.625 42.8594 999.734 42.3906 1001.67 42.3906C1003.6 42.3906 1004.69 42.8594 1004.69 43.6875C1004.69 44.5625 1003.6 45 1001.67 45C999.734 45 998.625 44.5625 998.625 43.6875ZM1004.53 40.7188H1006.27V37.1406H1008.23V35.7031H1006.27V32.2656H1004.53V40.7188ZM1020.14 32.2812H1018.41V41.8281H1020.14V37.7969H1022.05V36.375H1020.14V32.2812ZM1008.83 40.0156L1009.02 41.3594C1011.51 41.3516 1014.8 41.3125 1017.81 40.7969L1017.67 39.5938C1016.54 39.75 1015.33 39.8438 1014.12 39.9062V39.0469C1015.68 38.8594 1016.64 38.1406 1016.64 37.0781C1016.64 35.8203 1015.3 35.0625 1013.23 35.0625C1011.16 35.0625 1009.82 35.8203 1009.83 37.0781C1009.82 38.1484 1010.8 38.8672 1012.39 39.0469V39.9766C1011.12 40.0078 1009.9 40.0156 1008.83 40.0156ZM1009.19 34.6406H1017.3V33.3594H1014.12V32.1562H1012.39V33.3594H1009.19V34.6406ZM1010.7 44.1875C1010.7 45.6172 1012.42 46.3828 1015.47 46.3906C1018.48 46.3828 1020.21 45.6172 1020.22 44.1875C1020.21 42.7422 1018.48 41.9531 1015.47 41.9531C1012.42 41.9531 1010.7 42.7422 1010.7 44.1875ZM1011.5 37.0781C1011.48 36.5391 1012.14 36.2188 1013.23 36.2188C1014.33 36.2188 1014.98 36.5391 1014.98 37.0781C1014.98 37.6406 1014.33 37.9531 1013.23 37.9531C1012.14 37.9531 1011.48 37.6406 1011.5 37.0781ZM1012.44 44.1875C1012.43 43.5469 1013.43 43.2266 1015.47 43.2344C1017.46 43.2266 1018.45 43.5469 1018.47 44.1875C1018.45 44.7891 1017.46 45.1172 1015.47 45.1094C1013.43 45.1172 1012.43 44.7891 1012.44 44.1875ZM1030.67 33.3125H1023.47V34.75H1028.96C1028.95 35.6172 1028.89 36.7031 1028.61 38.1562L1030.33 38.3125C1030.66 36.5234 1030.66 35.1172 1030.67 34.1562V33.3125ZM1022.62 39.4375L1022.78 40.8281C1025.26 40.8203 1028.59 40.7656 1031.53 40.2344L1031.44 38.9844C1030.07 39.1797 1028.57 39.2891 1027.11 39.3516V36.5312H1025.39V39.4062C1024.4 39.4219 1023.46 39.4297 1022.62 39.4375ZM1024.73 46.1094H1034.5V44.7031H1026.48V41.9062H1024.73V46.1094ZM1032.27 42.8438H1034.05V38.125H1035.88V36.6719H1034.05V32.2656H1032.27V42.8438ZM1048.38 32.2656H1046.66V46.4062H1048.38V32.2656ZM1037.38 34.9062H1042.27V37.4219H1037.39V43.0625H1038.62C1041.16 43.0703 1043.27 42.9766 1045.67 42.5625L1045.52 41.1406C1043.31 41.5078 1041.4 41.625 1039.17 41.6406V38.7969H1044.03V33.5H1037.38V34.9062Z" fill="#1B4B66"/>
<path d="M948.354 85H956.214V83.2969H951.182V83.2188L953.198 81.2188C955.425 79.1172 956.034 78.0859 956.042 76.8125C956.034 74.9141 954.479 73.5312 952.167 73.5312C949.909 73.5312 948.3 74.9219 948.307 77.0625H950.245C950.237 75.9141 950.987 75.1875 952.151 75.1875C953.253 75.1875 954.089 75.8516 954.089 76.9062C954.089 77.8594 953.495 78.5312 952.354 79.6719L948.354 83.5312V85ZM959.495 85.125C960.143 85.125 960.698 84.5781 960.698 83.9062C960.698 83.25 960.143 82.7109 959.495 82.7031C958.823 82.7109 958.268 83.25 958.276 83.9062C958.268 84.5781 958.823 85.125 959.495 85.125ZM979.234 72.2656H977.516V86.4062H979.234V72.2656ZM968.234 74.9062H973.125V77.4219H968.25V83.0625H969.484C972.023 83.0703 974.133 82.9766 976.531 82.5625L976.375 81.1406C974.172 81.5078 972.258 81.625 970.031 81.6406V78.7969H974.891V73.5H968.234V74.9062ZM988.594 74.2031V73.1562H986.75V74.2031C986.742 76.375 984.602 78.5625 981.688 79.0938L982.453 80.5469C984.812 80.0469 986.75 78.6016 987.68 76.7188C988.602 78.6172 990.539 80.0547 992.906 80.5469L993.688 79.0938C990.727 78.5781 988.594 76.3828 988.594 74.2031ZM981.297 84.5938H994.203V83.1562H981.297V84.5938ZM1006.58 73.5781H996.625V74.9844H1004.88V75.2656C1004.88 75.9844 1004.87 76.7109 1004.84 77.4688L996.203 77.7969L996.438 79.2031L1004.76 78.7734C1004.66 79.7734 1004.51 80.8594 1004.22 82.0938L1005.95 82.25C1006.58 79.2578 1006.58 77.3203 1006.58 75.2656V73.5781ZM995.125 84.5938H1008V83.1719H995.125V84.5938ZM1016.84 73.3125H1009.64V74.75H1015.13C1015.12 75.6172 1015.06 76.7031 1014.78 78.1562L1016.5 78.3125C1016.83 76.5234 1016.83 75.1172 1016.84 74.1562V73.3125ZM1008.8 79.4375L1008.95 80.8281C1011.43 80.8203 1014.77 80.7656 1017.7 80.2344L1017.61 78.9844C1016.24 79.1797 1014.74 79.2891 1013.28 79.3516V76.5312H1011.56V79.4062C1010.57 79.4219 1009.63 79.4297 1008.8 79.4375ZM1010.91 86.1094H1020.67V84.7031H1012.66V81.9062H1010.91V86.1094ZM1018.44 82.8438H1020.22V78.125H1022.05V76.6719H1020.22V72.2656H1018.44V82.8438ZM1034.55 72.2656H1032.83V86.4062H1034.55V72.2656ZM1023.55 74.9062H1028.44V77.4219H1023.56V83.0625H1024.8C1027.34 83.0703 1029.45 82.9766 1031.84 82.5625L1031.69 81.1406C1029.48 81.5078 1027.57 81.625 1025.34 81.6406V78.7969H1030.2V73.5H1023.55V74.9062Z" fill="#1B4B66"/>
<path d="M952.229 125.156C954.675 125.156 956.464 123.773 956.448 121.859C956.464 120.438 955.557 119.414 953.964 119.203V119.109C955.198 118.852 956.042 117.938 956.026 116.672C956.042 114.938 954.557 113.531 952.26 113.531C950.05 113.531 948.323 114.836 948.276 116.734H950.229C950.268 115.781 951.182 115.188 952.245 115.188C953.346 115.188 954.065 115.828 954.057 116.781C954.065 117.766 953.229 118.438 952.026 118.438H951.01V120H952.026C953.495 120.008 954.37 120.734 954.37 121.75C954.37 122.758 953.471 123.445 952.229 123.438C951.05 123.445 950.143 122.844 950.089 121.938H948.042C948.089 123.844 949.815 125.156 952.229 125.156ZM959.495 125.125C960.143 125.125 960.698 124.578 960.698 123.906C960.698 123.25 960.143 122.711 959.495 122.703C958.823 122.711 958.268 123.25 958.276 123.906C958.268 124.578 958.823 125.125 959.495 125.125ZM971.391 113.062C969.258 113.055 967.656 114.484 967.656 116.484C967.656 118.469 969.258 119.898 971.391 119.891C972.523 119.898 973.508 119.477 974.18 118.781H977.562V120.578H979.297V112.266H977.562V114.188H974.188C973.523 113.477 972.531 113.055 971.391 113.062ZM969.312 116.484C969.312 115.289 970.18 114.547 971.391 114.547C972.562 114.547 973.43 115.289 973.438 116.484C973.43 117.641 972.562 118.422 971.391 118.422C970.18 118.422 969.312 117.641 969.312 116.484ZM969.719 123.625C969.703 125.359 971.555 126.375 974.516 126.375C977.484 126.375 979.336 125.359 979.344 123.625C979.336 121.883 977.484 120.867 974.516 120.875C971.555 120.867 969.703 121.883 969.719 123.625ZM971.422 123.625C971.406 122.703 972.555 122.211 974.516 122.203C976.516 122.211 977.641 122.703 977.641 123.625C977.641 124.523 976.516 125.008 974.516 125.016C972.555 125.008 971.406 124.523 971.422 123.625ZM974.969 115.578H977.562V117.375H974.977C975.047 117.094 975.094 116.797 975.094 116.484C975.094 116.164 975.047 115.867 974.969 115.578ZM994.359 114.469H992.438V112.266H990.703V121.281H992.438V118.922H994.359V117.5H992.438V115.891H994.359V114.469ZM981.312 115.062H989.688V113.703H986.375V112.172H984.641V113.703H981.312V115.062ZM982.031 118.156C982.031 119.672 983.438 120.672 985.5 120.672C987.539 120.672 988.945 119.672 988.953 118.156C988.945 116.641 987.539 115.633 985.5 115.625C983.438 115.633 982.031 116.641 982.031 118.156ZM983.156 123.891C983.141 125.445 984.945 126.375 987.875 126.375C990.773 126.375 992.594 125.445 992.594 123.891C992.594 122.32 990.773 121.398 987.875 121.406C984.945 121.398 983.141 122.32 983.156 123.891ZM983.719 118.156C983.711 117.375 984.43 116.906 985.5 116.906C986.57 116.906 987.297 117.375 987.297 118.156C987.297 118.922 986.57 119.367 985.5 119.359C984.43 119.367 983.711 118.922 983.719 118.156ZM984.875 123.891C984.867 123.117 985.945 122.734 987.875 122.734C989.781 122.734 990.852 123.117 990.859 123.891C990.852 124.641 989.781 125.062 987.875 125.062C985.945 125.062 984.867 124.641 984.875 123.891ZM1003.02 113.25H995.5V114.656H996.734V118.852C996.172 118.859 995.633 118.859 995.141 118.859L995.328 120.297C997.578 120.289 1000.7 120.242 1003.39 119.797L1003.32 118.641H1005.22V120.922H1006.95V112.266H1005.22V114.641H1003.28V116.031H1005.22V117.25H1003.28V118.516C1002.8 118.578 1002.28 118.625 1001.77 118.664V114.656H1003.02V113.25ZM997.375 123.781C997.359 125.406 999.18 126.375 1002.17 126.375C1005.19 126.375 1006.99 125.406 1007 123.781C1006.99 122.117 1005.19 121.172 1002.17 121.172C999.18 121.172 997.359 122.117 997.375 123.781ZM998.422 118.828V114.656H1000.09V118.766C999.531 118.789 998.969 118.812 998.422 118.828ZM999.094 123.781C999.086 122.945 1000.2 122.5 1002.17 122.5C1004.16 122.5 1005.27 122.945 1005.27 123.781C1005.27 124.602 1004.16 125.031 1002.17 125.031C1000.2 125.031 999.086 124.602 999.094 123.781ZM1020.02 112.266H1018.28V126.359H1020.02V119.234H1022.11V117.781H1020.02V112.266ZM1008.88 122.5L1009.86 123.844C1014.55 121.531 1016.27 117.883 1016.28 113.734H1009.64V115.172H1014.52C1014.17 118.391 1012.31 120.781 1008.88 122.5Z" fill="#1B4B66"/>
<path d="M947.776 162.891H953.26V165H955.198V162.891H956.682V161.219H955.198V153.688H952.667L947.776 161.266V162.891ZM949.854 161.219V161.141L953.167 156H953.292V161.219H949.854ZM959.495 165.125C960.143 165.125 960.698 164.578 960.698 163.906C960.698 163.25 960.143 162.711 959.495 162.703C958.823 162.711 958.268 163.25 958.276 163.906C958.268 164.578 958.823 165.125 959.495 165.125ZM969.844 153H968.109V159.547H974.719V157.016H977.562V159.984H979.297V152.266H977.562V155.578H974.719V153H973V154.922H969.844V153ZM969.844 158.141V156.266H973V158.141H969.844ZM969.984 166.188H979.297V160.609H977.562V162.047H971.719V160.609H969.984V166.188ZM971.719 164.781V163.391H977.562V164.781H971.719ZM992.469 153.094H982.875V154.516H990.766C990.758 155.672 990.711 157.188 990.32 159.203H981.297V160.609H984.359V166.375H986.109V160.609H989.266V166.375H990.984V160.609H994.172V159.203H992.07C992.461 156.914 992.461 155.297 992.469 154.078V153.094ZM1006.45 153.141H999.641V159.016H1006.45V153.141ZM1000.48 165.016L1001.08 166.344C1003.38 166.094 1005.14 165.219 1006.01 164.031C1006.87 165.203 1008.6 166.102 1010.89 166.344L1011.48 165.016C1008.78 164.742 1007.08 163.547 1006.92 162.453H1010.95V161.141H1006.88V159.906H1005.12V161.141H1001.06V162.453H1005.09C1004.93 163.578 1003.2 164.781 1000.48 165.016ZM1001.36 157.656V154.516H1004.73V157.656H1001.36ZM1008.94 160.312H1010.66V152.266H1008.94V160.312ZM1023.09 160.984C1020.14 160.984 1018.31 161.977 1018.31 163.672C1018.31 165.391 1020.14 166.383 1023.09 166.391C1026.02 166.383 1027.82 165.391 1027.83 163.672C1027.82 161.977 1026.02 160.984 1023.09 160.984ZM1017.03 159.75H1023.77V153.156H1022.05V155.062H1018.75V153.156H1017.03V159.75ZM1018.75 158.375V156.422H1022.05V158.375H1018.75ZM1020.05 163.672C1020.05 162.797 1021.16 162.352 1023.09 162.344C1025.02 162.352 1026.11 162.797 1026.11 163.672C1026.11 164.547 1025.02 165.023 1023.09 165.016C1021.16 165.023 1020.05 164.547 1020.05 163.672ZM1025.95 160.641H1027.69V157.094H1029.66V155.641H1027.69V152.266H1025.95V160.641ZM1038.75 153.766H1035.75V152.219H1034V153.766H1030.98V155.141H1034C1033.99 156.828 1032.79 158.461 1030.56 159.141L1031.38 160.469C1033.06 159.969 1034.27 158.898 1034.91 157.531C1035.57 158.781 1036.77 159.75 1038.42 160.203L1039.23 158.844C1036.98 158.242 1035.74 156.711 1035.73 155.141H1038.75V153.766ZM1032.77 166.219H1042.14V161.219H1032.77V166.219ZM1034.48 164.812V162.609H1040.44V164.812H1034.48ZM1040.39 160.578H1042.14V152.281H1040.39V160.578ZM1055.89 153.312H1048.69V154.75H1054.18C1054.16 155.617 1054.11 156.703 1053.83 158.156L1055.55 158.312C1055.88 156.523 1055.88 155.117 1055.89 154.156V153.312ZM1047.84 159.438L1048 160.828C1050.48 160.82 1053.81 160.766 1056.75 160.234L1056.66 158.984C1055.29 159.18 1053.79 159.289 1052.33 159.352V156.531H1050.61V159.406C1049.62 159.422 1048.68 159.43 1047.84 159.438ZM1049.95 166.109H1059.72V164.703H1051.7V161.906H1049.95V166.109ZM1057.48 162.844H1059.27V158.125H1061.09V156.672H1059.27V152.266H1057.48V162.844ZM1073.59 152.266H1071.88V166.406H1073.59V152.266ZM1062.59 154.906H1067.48V157.422H1062.61V163.062H1063.84C1066.38 163.07 1068.49 162.977 1070.89 162.562L1070.73 161.141C1068.53 161.508 1066.62 161.625 1064.39 161.641V158.797H1069.25V153.5H1062.59V154.906Z" fill="#1B4B66"/>
<path d="M909 46L859 46" stroke="#3F8C9A" stroke-width="1.5" stroke-linecap="round" stroke-dasharray="4 4"/>
<path d="M919 46C919 48.7614 916.761 51 914 51C911.239 51 909 48.7614 909 46C909 43.2386 911.239 41 914 41C916.761 41 919 43.2386 919 46Z" fill="white" stroke="#3F8C9A" stroke-width="2"/>
</g>
<defs>
<clipPath id="clip0_578_14308">
<rect width="1120" height="543" fill="white" transform="translate(108)"/>
</clipPath>
</defs>
</svg>
