<svg width="339" height="560" viewBox="0 0 339 560" fill="none" xmlns="http://www.w3.org/2000/svg">
<rect x="0.5" y="0.5" width="338" height="175" rx="15.5" fill="#4D51AC"/>
<path d="M152.808 50.506L152.448 52.342H137.202V50.506H152.808ZM146.292 38.896V41.632C146.292 42.01 146.328 42.46 146.616 42.694C147.894 43.774 150.252 45.556 151.818 46.582L150.486 48.094C148.902 47.086 146.274 45.286 145.05 44.188C143.79 45.268 141.216 47.158 139.488 48.22L138.138 46.726C139.812 45.628 142.062 43.972 143.322 42.838C143.61 42.586 143.718 42.118 143.718 41.74V39.256L146.292 38.896ZM156.753 48.022H153.765V46.348H155.421L155.331 41.56H157.815L157.905 46.348L159.723 46.312L159.795 41.56H162.225L162.135 46.168C162.873 46.132 163.575 46.06 164.133 45.952V47.716C162.333 47.914 159.093 48.022 156.753 48.022ZM164.763 38.59L167.247 38.23V42.478H169.839L169.479 44.278H167.247V49.696L164.763 50.056V38.59ZM167.481 54.628H156.789V49.39H159.273V52.828H167.841L167.481 54.628ZM163.413 40.93H154.071V39.148H163.413V40.93ZM176.628 40.804H173.388V45.538H174.486C175.53 45.538 176.52 45.466 177.546 45.25V47.014C176.484 47.212 175.062 47.284 173.748 47.284H171.084V39.004H176.628V40.804ZM173.28 48.796H184.278V54.664L181.812 55.024V50.56H173.28V48.796ZM178.572 38.842L180.804 38.482V47.806L178.572 48.166V43.954H175.674V42.172H178.572V38.842ZM182.01 38.59L184.278 38.23V47.806L182.01 48.166V38.59ZM201.957 50.506L201.597 52.342H186.351V50.506H201.957ZM195.441 38.896V41.632C195.441 42.01 195.477 42.46 195.765 42.694C197.043 43.774 199.401 45.556 200.967 46.582L199.635 48.094C198.051 47.086 195.423 45.286 194.199 44.188C192.939 45.268 190.365 47.158 188.637 48.22L187.287 46.726C188.961 45.628 191.211 43.972 192.471 42.838C192.759 42.586 192.867 42.118 192.867 41.74V39.256L195.441 38.896Z" fill="white"/>
<path d="M75.8477 77.9121V82.6562H77.8164V83.75H75.8477V90.1621H74.5488V77.9121H75.8477ZM66.7695 87.25V78.9375H68.0547V82.082H71.2949V78.9375H72.5801V87.25H66.7695ZM68.0547 86.1836H71.2949V83.1074H68.0547V86.1836ZM88.5488 77.9121V90.1895H87.25V77.9121H88.5488ZM78.8281 83.1211C78.8281 80.5029 80.1475 78.835 82 78.8281C83.8184 78.835 85.1582 80.5029 85.1582 83.1211C85.1582 85.7666 83.8184 87.4346 82 87.4277C80.1475 87.4346 78.8281 85.7666 78.8281 83.1211ZM80.0859 83.1211C80.0791 85.0693 80.8584 86.2656 82 86.2656C83.1211 86.2656 83.9004 85.0693 83.9004 83.1211C83.9004 81.2002 83.1211 79.9971 82 79.9902C80.8584 79.9971 80.0791 81.2002 80.0859 83.1211ZM96.082 78.6504C98.7002 78.6572 100.607 79.9492 100.607 81.9043C100.607 83.7363 99.0078 84.96 96.7246 85.1445V87.5508H101.715V88.6309H90.5039V87.5508H95.4395V85.1445C93.1699 84.96 91.5635 83.7363 91.5703 81.9043C91.5635 79.9492 93.4775 78.6572 96.082 78.6504ZM92.8281 81.9043C92.8281 83.2783 94.1953 84.1328 96.082 84.1465C97.9824 84.1328 99.3428 83.2783 99.3496 81.9043C99.3428 80.5781 97.9824 79.7031 96.082 79.7168C94.1953 79.7031 92.8281 80.5781 92.8281 81.9043ZM112.242 79.6484C112.242 81.6445 114.368 83.5312 116.727 83.9551L116.125 85.0352C114.163 84.6113 112.365 83.3262 111.572 81.6035C110.766 83.3193 108.968 84.5977 107.006 85.0352L106.432 83.9551C108.756 83.5176 110.868 81.6445 110.875 79.6484V78.7188H112.242V79.6484ZM106.021 88.5488V87.4688H117.232V88.5488H106.021ZM125.08 79.0195V80.0723H123.918V83.9141C124.499 83.873 125.066 83.8184 125.613 83.75L125.695 84.7207C123.228 85.1104 120.37 85.165 118.271 85.1719L118.121 84.1055C118.593 84.1055 119.099 84.0986 119.625 84.0918V80.0723H118.463V79.0195H125.08ZM119.98 89.9023V86.0742H121.279V88.8496H128.266V89.9023H119.98ZM120.883 84.0645C121.464 84.0439 122.052 84.0234 122.646 83.9961V80.0723H120.883V84.0645ZM126.447 86.9355V77.9258H127.746V81.5488H129.523V82.6426H127.746V86.9355H126.447ZM140.707 85.9102V90.1758H139.408V86.9766H132.34V85.9102H140.707ZM130.795 84.6523V78.8418H135.512V79.8945H132.08V83.6133C133.734 83.6064 134.773 83.5518 136.018 83.3262L136.127 84.3652C134.746 84.6182 133.591 84.6523 131.588 84.6523H130.795ZM134.746 82.1367V81.0977H137.084V78.1719H138.287V85.2812H137.084V82.1367H134.746ZM139.477 85.3633V77.9258H140.707V85.3633H139.477ZM148.541 79.6484C148.541 81.6445 150.667 83.5312 153.025 83.9551L152.424 85.0352C150.462 84.6113 148.664 83.3262 147.871 81.6035C147.064 83.3193 145.267 84.5977 143.305 85.0352L142.73 83.9551C145.055 83.5176 147.167 81.6445 147.174 79.6484V78.7188H148.541V79.6484ZM142.32 88.5488V87.4688H153.531V88.5488H142.32ZM161.16 89.1367C159.171 89.1367 157.947 87.9609 157.947 86.375C157.947 85.1855 158.727 84.4609 159.861 83.6885C159.232 82.9229 158.774 82.2256 158.768 81.3438C158.774 79.9697 159.759 78.9922 161.27 78.9922C162.794 78.9922 163.73 79.9902 163.73 81.1523C163.73 82.0957 163.238 82.7861 162.418 83.3809L161.734 83.8799L163.717 86.2451C163.97 85.7529 164.127 85.165 164.127 84.502H165.439C165.439 85.876 165.043 86.7578 164.612 87.3184L166.027 89H164.387L163.717 88.2139C163.04 88.8428 162.056 89.1367 161.16 89.1367ZM159.41 86.334C159.403 87.1816 160.101 87.9062 161.174 87.9062C161.775 87.9062 162.391 87.6738 162.896 87.2568L160.682 84.6592L160.436 84.8438C159.656 85.418 159.403 86.0195 159.41 86.334ZM160.135 81.3574C160.135 81.8633 160.49 82.3691 160.941 82.9229L161.543 82.4922C162.083 82.1367 162.404 81.7744 162.404 81.1934C162.404 80.7285 161.967 80.209 161.297 80.209C160.613 80.2158 160.135 80.79 160.135 81.3574ZM180.137 77.9121V90.1895H178.838V77.9121H180.137ZM170.648 80.0723V79.0195H176.391V83.4902H171.988V86.1699C173.978 86.1631 175.707 86.0674 177.758 85.7324L177.881 86.7988C175.714 87.1611 173.868 87.2432 171.701 87.25H170.662V82.4512H175.064V80.0723H170.648ZM192.51 77.9258V87.0996H191.279V77.9258H192.51ZM182.037 84.3652C183.664 83.668 184.519 82.1709 184.512 80.7148V80.0996H182.338V79.0332H187.82V80.0996H185.77V80.7148C185.77 82.0615 186.583 83.4492 188.135 84.0781L187.479 85.1035C186.364 84.6387 185.592 83.791 185.168 82.7793C184.73 83.9141 183.917 84.8643 182.734 85.3633L182.037 84.3652ZM184.389 89.9023V86.0059H185.674V88.8496H192.865V89.9023H184.389ZM187.164 82.3281V81.2754H188.873V78.1719H190.104V86.7988H188.873V82.3281H187.164ZM207.439 79.1016V80.5918C207.439 82.3828 207.439 84.0645 206.906 86.6074L205.621 86.4844C205.881 85.3564 206.018 84.3789 206.086 83.4697L198.73 83.8594L198.566 82.793L206.147 82.5059C206.175 81.8496 206.175 81.2207 206.182 80.5918V80.168H198.908V79.1016H207.439ZM197.582 88.5215V87.4551H208.752V88.5215H197.582ZM214.426 79.2246V83.5859H211.322V86.1016C212.655 86.0947 213.927 86.04 215.438 85.7734L215.547 86.8398C213.845 87.1475 212.45 87.1816 210.912 87.1953H210.064V82.5469H213.182V80.2773H210.051V79.2246H214.426ZM215 83.2988V82.2461H216.449V78.1855H217.68V89.5332H216.449V83.2988H215ZM218.951 90.1621V77.9121H220.195V90.1621H218.951ZM227.359 78.6504C229.978 78.6572 231.885 79.9492 231.885 81.9043C231.885 83.7363 230.285 84.96 228.002 85.1445V87.5508H232.992V88.6309H221.781V87.5508H226.717V85.1445C224.447 84.96 222.841 83.7363 222.848 81.9043C222.841 79.9492 224.755 78.6572 227.359 78.6504ZM224.105 81.9043C224.105 83.2783 225.473 84.1328 227.359 84.1465C229.26 84.1328 230.62 83.2783 230.627 81.9043C230.62 80.5781 229.26 79.7031 227.359 79.7168C225.473 79.7031 224.105 80.5781 224.105 81.9043ZM243.424 77.9121V82.6973H245.393V83.791H243.424V90.1895H242.139V77.9121H243.424ZM234.359 80.0723V79.0195H239.965V83.5176H235.672V86.1699C237.771 86.1631 239.336 86.0879 241.127 85.7598L241.25 86.8125C239.336 87.168 237.682 87.25 235.385 87.2637H234.387V82.4648H238.68V80.0723H234.359ZM259.885 77.9121V90.1621H258.641V83.8047H257.123V89.5742H255.906V78.2402H257.123V82.752H258.641V77.9121H259.885ZM249.357 86.6621C252.078 85.1172 253.22 83.0322 253.425 80.5371H249.877V79.4707H254.689C254.683 82.6904 253.616 85.5889 250.109 87.5645L249.357 86.6621ZM263.248 78.4316V80.0996H266.461V78.4316H267.746V83.7773H261.977V78.4316H263.248ZM263.207 85.7734V84.748H271.123V87.8379H264.506V89H271.547V90.0391H263.234V86.8809H269.838V85.7734H263.207ZM263.248 82.7383H266.461V81.0977H263.248V82.7383ZM269.824 84.2148V77.9121H271.123V80.4824H272.9V81.5352H271.123V84.2148H269.824ZM98.4268 106.232C98.0576 105.063 97.1621 104.339 95.8564 104.346C94.1885 104.339 92.9102 105.651 92.9033 108.051C92.9102 110.443 94.1748 111.763 95.9248 111.756C97.5039 111.763 98.5498 110.758 98.5771 109.172H96.1436V107.928H100.04V109.049C100.04 111.558 98.3174 113.137 95.9111 113.137C93.2314 113.137 91.4131 111.188 91.4131 108.051C91.4131 104.893 93.2861 102.965 95.8428 102.965C97.9824 102.965 99.6367 104.298 99.9717 106.232H98.4268ZM101.776 113V103.102H105.304C107.607 103.102 108.735 104.38 108.735 106.205C108.735 107.538 108.134 108.543 106.931 109.001L109.118 113H107.409L105.399 109.268H105.304H103.28V113H101.776ZM103.28 107.969H105.153C106.609 107.962 107.218 107.319 107.218 106.205C107.218 105.091 106.609 104.394 105.153 104.387H103.28V107.969ZM115.79 105.713C115.694 104.79 114.888 104.264 113.753 104.264C112.543 104.264 111.777 104.886 111.771 105.727C111.771 106.663 112.789 107.032 113.575 107.217L114.532 107.477C115.797 107.784 117.383 108.475 117.39 110.266C117.383 111.94 116.05 113.164 113.712 113.164C111.497 113.164 110.103 112.057 110.007 110.252H111.511C111.6 111.332 112.557 111.845 113.712 111.852C114.977 111.845 115.893 111.209 115.899 110.238C115.893 109.377 115.072 109.028 114.026 108.748L112.851 108.434C111.258 107.996 110.273 107.189 110.267 105.809C110.273 104.1 111.791 102.965 113.794 102.965C115.804 102.965 117.205 104.113 117.253 105.713H115.79ZM132.019 101.926V110.826H130.72V101.926H132.019ZM122.106 105.781C122.113 104.011 123.521 102.753 125.374 102.746C127.22 102.753 128.628 104.011 128.628 105.781C128.628 107.579 127.22 108.83 125.374 108.83C123.521 108.83 122.113 107.579 122.106 105.781ZM123.378 105.781C123.371 106.937 124.232 107.695 125.374 107.695C126.495 107.695 127.356 106.937 127.356 105.781C127.356 104.653 126.495 103.881 125.374 103.881C124.232 103.881 123.371 104.653 123.378 105.781ZM124.007 113.902V109.924H125.319V112.85H132.388V113.902H124.007ZM145.13 107.682V108.734H133.96V107.682H145.13ZM134.548 106.014C136.77 105.774 138.526 104.776 138.67 103.58H134.985V102.514H144.132V103.58H140.406C140.557 104.77 142.286 105.774 144.556 106.014L144.091 107.039C141.965 106.793 140.208 105.897 139.545 104.605C138.868 105.897 137.125 106.793 134.999 107.039L134.548 106.014ZM135.286 111.92C135.286 110.498 136.879 109.678 139.538 109.678C142.177 109.678 143.756 110.498 143.763 111.92C143.756 113.342 142.177 114.142 139.538 114.135C136.879 114.142 135.286 113.342 135.286 111.92ZM136.599 111.92C136.592 112.692 137.665 113.116 139.538 113.109C141.384 113.116 142.464 112.692 142.464 111.92C142.464 111.127 141.384 110.703 139.538 110.689C137.665 110.703 136.592 111.127 136.599 111.92ZM148.261 112.057L147.167 115.83H146.005L146.729 112.057H148.261ZM162.22 108.051C162.22 111.216 160.319 113.137 157.763 113.137C155.186 113.137 153.292 111.209 153.292 108.051C153.292 104.886 155.186 102.965 157.763 102.965C160.319 102.965 162.22 104.886 162.22 108.051ZM154.782 108.051C154.789 110.457 156.054 111.763 157.763 111.756C159.458 111.763 160.723 110.457 160.729 108.051C160.723 105.645 159.458 104.339 157.763 104.346C156.054 104.339 154.789 105.645 154.782 108.051ZM163.915 113V103.102H170.122V104.4H165.419V107.395H169.794V108.68H165.419V111.701H170.177V113H163.915ZM171.968 113V103.102H173.472V107.818H173.595L177.737 103.102H179.624L175.632 107.559L179.638 113H177.819L174.634 108.584L173.472 109.924V113H171.968ZM188.962 108.051C188.962 111.216 187.062 113.137 184.505 113.137C181.928 113.137 180.034 111.209 180.034 108.051C180.034 104.886 181.928 102.965 184.505 102.965C187.062 102.965 188.962 104.886 188.962 108.051ZM181.524 108.051C181.531 110.457 182.796 111.763 184.505 111.756C186.2 111.763 187.465 110.457 187.472 108.051C187.465 105.645 186.2 104.339 184.505 104.346C182.796 104.339 181.531 105.645 181.524 108.051ZM194.909 107.422V108.68H190.521V107.422H194.909ZM195.497 104.4V103.102H203.167V104.4H200.091V113H198.587V104.4H195.497ZM204.698 113V103.102H210.905V104.4H206.202V107.395H210.577V108.68H206.202V111.701H210.96V113H204.698ZM213.804 103.102L216.155 106.957H216.237L218.603 103.102H220.339L217.249 108.051L220.366 113H218.603L216.237 109.186H216.155L213.776 113H212.026L215.185 108.051L212.04 103.102H213.804ZM234.681 101.926V110.826H233.382V101.926H234.681ZM224.769 105.781C224.775 104.011 226.184 102.753 228.036 102.746C229.882 102.753 231.29 104.011 231.29 105.781C231.29 107.579 229.882 108.83 228.036 108.83C226.184 108.83 224.775 107.579 224.769 105.781ZM226.04 105.781C226.033 106.937 226.895 107.695 228.036 107.695C229.157 107.695 230.019 106.937 230.019 105.781C230.019 104.653 229.157 103.881 228.036 103.881C226.895 103.881 226.033 104.653 226.04 105.781ZM226.669 113.902V109.924H227.981V112.85H235.05V113.902H226.669ZM247.792 107.682V108.734H236.622V107.682H247.792ZM237.21 106.014C239.432 105.774 241.188 104.776 241.332 103.58H237.647V102.514H246.794V103.58H243.068C243.219 104.77 244.948 105.774 247.218 106.014L246.753 107.039C244.627 106.793 242.87 105.897 242.207 104.605C241.53 105.897 239.787 106.793 237.661 107.039L237.21 106.014ZM237.948 111.92C237.948 110.498 239.541 109.678 242.2 109.678C244.839 109.678 246.418 110.498 246.425 111.92C246.418 113.342 244.839 114.142 242.2 114.135C239.541 114.142 237.948 113.342 237.948 111.92ZM239.261 111.92C239.254 112.692 240.327 113.116 242.2 113.109C244.046 113.116 245.126 112.692 245.126 111.92C245.126 111.127 244.046 110.703 242.2 110.689C240.327 110.703 239.254 111.127 239.261 111.92ZM105.857 129.713C105.762 128.79 104.955 128.264 103.82 128.264C102.61 128.264 101.845 128.886 101.838 129.727C101.838 130.663 102.856 131.032 103.643 131.217L104.6 131.477C105.864 131.784 107.45 132.475 107.457 134.266C107.45 135.94 106.117 137.164 103.779 137.164C101.564 137.164 100.17 136.057 100.074 134.252H101.578C101.667 135.332 102.624 135.845 103.779 135.852C105.044 135.845 105.96 135.209 105.967 134.238C105.96 133.377 105.14 133.028 104.094 132.748L102.918 132.434C101.325 131.996 100.341 131.189 100.334 129.809C100.341 128.1 101.858 126.965 103.861 126.965C105.871 126.965 107.272 128.113 107.32 129.713H105.857ZM115.756 130.232C115.387 129.063 114.491 128.339 113.186 128.346C111.518 128.339 110.239 129.651 110.232 132.051C110.239 134.443 111.504 135.763 113.254 135.756C114.833 135.763 115.879 134.758 115.906 133.172H113.473V131.928H117.369V133.049C117.369 135.558 115.646 137.137 113.24 137.137C110.561 137.137 108.742 135.188 108.742 132.051C108.742 128.893 110.615 126.965 113.172 126.965C115.312 126.965 116.966 128.298 117.301 130.232H115.756ZM124.492 129.713C124.396 128.79 123.59 128.264 122.455 128.264C121.245 128.264 120.479 128.886 120.473 129.727C120.473 130.663 121.491 131.032 122.277 131.217L123.234 131.477C124.499 131.784 126.085 132.475 126.092 134.266C126.085 135.94 124.752 137.164 122.414 137.164C120.199 137.164 118.805 136.057 118.709 134.252H120.213C120.302 135.332 121.259 135.845 122.414 135.852C123.679 135.845 124.595 135.209 124.602 134.238C124.595 133.377 123.774 133.028 122.729 132.748L121.553 132.434C119.96 131.996 118.976 131.189 118.969 129.809C118.976 128.1 120.493 126.965 122.496 126.965C124.506 126.965 125.907 128.113 125.955 129.713H124.492ZM131.123 137V127.102H137.33V128.4H132.627V131.395H137.002V132.68H132.627V135.701H137.385V137H131.123ZM145.875 130.328C145.636 129.05 144.576 128.339 143.318 128.346C141.609 128.339 140.345 129.651 140.338 132.051C140.345 134.464 141.616 135.763 143.318 135.756C144.562 135.763 145.615 135.065 145.875 133.801L147.393 133.814C147.078 135.77 145.485 137.137 143.305 137.137C140.728 137.137 138.848 135.216 138.848 132.051C138.848 128.886 140.741 126.965 143.305 126.965C145.396 126.965 147.058 128.202 147.393 130.328H145.875ZM157.619 132.051C157.619 135.216 155.719 137.137 153.162 137.137C150.585 137.137 148.691 135.209 148.691 132.051C148.691 128.886 150.585 126.965 153.162 126.965C155.719 126.965 157.619 128.886 157.619 132.051ZM150.182 132.051C150.188 134.457 151.453 135.763 153.162 135.756C154.857 135.763 156.122 134.457 156.129 132.051C156.122 129.645 154.857 128.339 153.162 128.346C151.453 128.339 150.188 129.645 150.182 132.051ZM162.732 137V127.102H166.26C168.563 127.102 169.691 128.482 169.691 130.314C169.691 132.14 168.557 133.527 166.26 133.527H164.236V137H162.732ZM164.236 132.242H166.109C167.565 132.249 168.174 131.429 168.174 130.314C168.174 129.193 167.565 128.394 166.109 128.387H164.236V132.242ZM171.154 137V129.576H172.562V130.752H172.645C172.918 129.959 173.663 129.46 174.531 129.467C174.709 129.46 174.996 129.48 175.146 129.494V130.889C175.023 130.861 174.682 130.8 174.381 130.807C173.369 130.8 172.617 131.504 172.617 132.475V137H171.154ZM179.139 137.15C177.033 137.15 175.659 135.619 175.666 133.322C175.659 131.012 177.033 129.48 179.139 129.48C181.23 129.48 182.598 131.012 182.598 133.322C182.598 135.619 181.23 137.15 179.139 137.15ZM177.129 133.322C177.129 134.737 177.778 135.934 179.139 135.934C180.479 135.934 181.121 134.737 181.121 133.322C181.121 131.9 180.479 130.69 179.139 130.684C177.778 130.69 177.129 131.9 177.129 133.322ZM186.809 137.15C185.018 137.144 183.705 135.701 183.705 133.309C183.705 130.889 185.038 129.48 186.822 129.48C188.203 129.48 188.702 130.314 188.969 130.779H189.037V127.102H190.5V137H189.078V135.838H188.969C188.695 136.323 188.162 137.144 186.809 137.15ZM185.195 133.281C185.188 134.771 185.858 135.899 187.137 135.906C188.381 135.899 189.078 134.84 189.078 133.281C189.078 131.736 188.395 130.718 187.137 130.725C185.845 130.718 185.188 131.818 185.195 133.281ZM197.117 133.91V129.576H198.566V137H197.145V135.715H197.062C196.721 136.508 195.962 137.096 194.848 137.096C193.412 137.096 192.4 136.132 192.4 134.293V129.576H193.863V134.115C193.863 135.127 194.479 135.77 195.367 135.77C196.181 135.77 197.117 135.175 197.117 133.91ZM203.488 137.15C201.321 137.15 200.009 135.558 200.016 133.322C200.009 131.06 201.369 129.48 203.461 129.48C205.156 129.48 206.38 130.479 206.537 131.982H205.115C204.965 131.285 204.411 130.704 203.488 130.697C202.285 130.704 201.479 131.702 201.479 133.281C201.479 134.908 202.265 135.913 203.488 135.906C204.315 135.913 204.931 135.448 205.115 134.648H206.537C206.38 136.091 205.238 137.15 203.488 137.15ZM211.391 129.576V130.738H209.873V134.812C209.88 135.653 210.29 135.804 210.762 135.811C210.974 135.811 211.295 135.79 211.5 135.77V137.041C211.302 137.068 210.987 137.096 210.584 137.096C209.442 137.096 208.41 136.467 208.424 135.113V130.738H207.33V129.576H208.424V127.799H209.873V129.576H211.391ZM225.951 125.926V134.826H224.652V125.926H225.951ZM216.039 129.781C216.046 128.011 217.454 126.753 219.307 126.746C221.152 126.753 222.561 128.011 222.561 129.781C222.561 131.579 221.152 132.83 219.307 132.83C217.454 132.83 216.046 131.579 216.039 129.781ZM217.311 129.781C217.304 130.937 218.165 131.695 219.307 131.695C220.428 131.695 221.289 130.937 221.289 129.781C221.289 128.653 220.428 127.881 219.307 127.881C218.165 127.881 217.304 128.653 217.311 129.781ZM217.939 137.902V133.924H219.252V136.85H226.32V137.902H217.939ZM239.062 131.682V132.734H227.893V131.682H239.062ZM228.48 130.014C230.702 129.774 232.459 128.776 232.603 127.58H228.918V126.514H238.064V127.58H234.339C234.489 128.77 236.219 129.774 238.488 130.014L238.023 131.039C235.897 130.793 234.141 129.897 233.478 128.605C232.801 129.897 231.058 130.793 228.932 131.039L228.48 130.014ZM229.219 135.92C229.219 134.498 230.812 133.678 233.471 133.678C236.109 133.678 237.688 134.498 237.695 135.92C237.688 137.342 236.109 138.142 233.471 138.135C230.812 138.142 229.219 137.342 229.219 135.92ZM230.531 135.92C230.524 136.692 231.598 137.116 233.471 137.109C235.316 137.116 236.396 136.692 236.396 135.92C236.396 135.127 235.316 134.703 233.471 134.689C231.598 134.703 230.524 135.127 230.531 135.92Z" fill="#F4F8FF"/>
<rect x="0.5" y="0.5" width="338" height="175" rx="15.5" stroke="#383957"/>
<rect x="0.5" y="192.5" width="338" height="223" rx="15.5" fill="#4D51AC"/>
<path d="M120.082 229.76V234.432H122.386L122.066 236.224H120.082V244.08L117.89 244.4V230.08L120.082 229.76ZM117.282 238.256V239.872C115.89 240.128 114.162 240.272 112.338 240.272H109.026V230.672H111.25V238.688H112.338C113.97 238.688 115.826 238.528 117.282 238.256ZM135.077 229.76V237.152L132.917 237.472V230.08L135.077 229.76ZM135.173 244.464H125.637V240.48H132.869V239.552H125.605V238.032H135.077V241.952H127.829V242.944H135.493L135.173 244.464ZM130.869 233.648C130.869 235.792 129.077 236.944 127.061 236.944C125.045 236.944 123.253 235.792 123.253 233.648V233.184C123.253 231.04 125.045 229.888 127.061 229.888C129.077 229.888 130.869 231.04 130.869 233.184V233.648ZM128.709 233.584V233.248C128.709 232.128 127.989 231.488 127.061 231.488C126.133 231.488 125.413 232.128 125.413 233.248V233.584C125.413 234.704 126.133 235.344 127.061 235.344C127.989 235.344 128.709 234.704 128.709 233.584ZM137.111 238H142.999V236.752H139.191V232.704H146.647V231.76H139.111V230.192H148.855V234.24H141.415V235.184H149.223L148.903 236.752H145.303V238H150.983L150.663 239.6H137.111V238ZM148.967 244.336H139.191V240.528H141.415V242.736H149.287L148.967 244.336ZM155.978 230.048H157.946L153.914 243.216H151.93L155.978 230.048ZM159.033 235.936H164.921V234.912H160.409V233.376H162.473L162.361 231.568H160.921V230.048H170.985V231.568H169.561L169.449 233.376H171.657L171.337 234.912H167.225V235.936H172.905L172.585 237.472H159.033V235.936ZM170.953 244.464H161.113V240.688H168.569V239.808H161.081V238.336H170.777V242.112H163.337V242.976H171.273L170.953 244.464ZM167.385 231.568H164.537L164.681 233.376H167.257L167.385 231.568ZM179.596 234.816V232.288H174.716V230.704H181.788V236.384H176.94V238.944H178.092C179.548 238.944 181.772 238.88 183.308 238.56V240.144C181.676 240.416 179.404 240.528 177.9 240.528H174.716V234.816H179.596ZM186.124 229.76V244.08L183.948 244.4V230.08L186.124 229.76ZM194.974 237.856C194.974 240 193.822 241.248 191.758 241.248C189.694 241.248 188.542 240 188.542 237.856V233.984C188.542 231.84 189.694 230.592 191.758 230.592C193.822 230.592 194.974 231.84 194.974 233.984V235.008H196.174V230.304L198.11 229.984V243.616L196.174 243.936V236.656H194.974V237.856ZM199.054 230.08L201.022 229.76V244.08L199.054 244.4V230.08ZM192.958 237.792V234.032C192.958 232.88 192.67 232.208 191.758 232.208C190.846 232.208 190.558 232.88 190.558 234.032V237.792C190.558 238.944 190.846 239.632 191.758 239.632C192.67 239.632 192.958 238.944 192.958 237.792ZM216.593 240.672L216.273 242.304H202.721V240.672H216.593ZM210.801 230.352V232.784C210.801 233.12 210.833 233.52 211.089 233.728C212.225 234.688 214.321 236.272 215.713 237.184L214.529 238.528C213.121 237.632 210.785 236.032 209.697 235.056C208.577 236.016 206.289 237.696 204.753 238.64L203.553 237.312C205.041 236.336 207.041 234.864 208.161 233.856C208.417 233.632 208.513 233.216 208.513 232.88V230.672L210.801 230.352ZM226.595 238.592V240.192C225.347 240.464 223.571 240.56 221.955 240.56H218.339V230.672H225.171V232.256H220.563V234.784H224.707V236.384H220.563V238.96H222.163C223.443 238.96 225.123 238.912 226.595 238.592ZM229.811 229.76V244.08L227.635 244.4V236.096H225.443V234.48H227.635V230.08L229.811 229.76Z" fill="white"/>
<path d="M49.1328 274.328C48.8936 273.05 47.834 272.339 46.5762 272.346C44.8672 272.339 43.6025 273.651 43.5957 276.051C43.6025 278.464 44.874 279.763 46.5762 279.756C47.8203 279.763 48.873 279.065 49.1328 277.801L50.6504 277.814C50.3359 279.77 48.7432 281.137 46.5625 281.137C43.9854 281.137 42.1055 279.216 42.1055 276.051C42.1055 272.886 43.999 270.965 46.5625 270.965C48.6543 270.965 50.3154 272.202 50.6504 274.328H49.1328ZM53.6172 276.598V281H52.1543V271.102H53.5898V274.793H53.6855C54.0342 273.986 54.7314 273.48 55.8867 273.48C57.4111 273.48 58.4297 274.424 58.4297 276.283V281H56.9668V276.461C56.9668 275.367 56.3789 274.738 55.3945 274.738C54.3623 274.738 53.6172 275.415 53.6172 276.598ZM63.3926 281.15C61.2051 281.15 59.8584 279.64 59.8652 277.336C59.8584 275.053 61.2256 273.48 63.2969 273.48C64.9854 273.48 66.5918 274.526 66.5918 277.213V277.732H61.3145C61.3555 279.147 62.1895 279.947 63.4062 279.947C64.2334 279.947 64.7734 279.592 65.0195 279.141H66.4961C66.168 280.344 65.0264 281.15 63.3926 281.15ZM61.3213 276.639H65.1562C65.1562 275.511 64.4248 274.677 63.3105 274.684C62.1416 274.677 61.3828 275.593 61.3213 276.639ZM68.041 281V273.576H69.4492V274.793H69.5312C69.8457 273.966 70.5771 273.48 71.5547 273.48C72.5459 273.48 73.2363 273.966 73.5508 274.793H73.6328C73.9814 273.993 74.7881 273.48 75.8613 273.48C77.2012 273.48 78.1514 274.321 78.1582 276.023V281H76.6953V276.16C76.6953 275.155 76.0664 274.738 75.3008 274.738C74.3643 274.738 73.8242 275.381 73.8242 276.27V281H72.375V276.078C72.375 275.265 71.8213 274.738 71.0215 274.738C70.2012 274.738 69.5039 275.422 69.5039 276.42V281H68.041ZM79.9219 281V273.576H81.3848V281H79.9219ZM79.7305 271.566C79.7373 271.088 80.1543 270.705 80.6602 270.705C81.1592 270.705 81.5762 271.088 81.5762 271.566C81.5762 272.045 81.1592 272.435 80.6602 272.428C80.1543 272.435 79.7373 272.045 79.7305 271.566ZM86.3066 281.15C84.1396 281.15 82.8271 279.558 82.834 277.322C82.8271 275.06 84.1875 273.48 86.2793 273.48C87.9746 273.48 89.1982 274.479 89.3555 275.982H87.9336C87.7832 275.285 87.2295 274.704 86.3066 274.697C85.1035 274.704 84.2969 275.702 84.2969 277.281C84.2969 278.908 85.083 279.913 86.3066 279.906C87.1338 279.913 87.749 279.448 87.9336 278.648H89.3555C89.1982 280.091 88.0566 281.15 86.3066 281.15ZM90.3945 278.908C90.3877 277.213 91.8301 276.775 93.1699 276.68C93.6621 276.652 94.7764 276.591 95.1182 276.577L95.1113 275.982C95.1182 275.142 94.5986 274.656 93.6074 274.656C92.7461 274.656 92.2266 275.053 92.0762 275.6H90.627C90.7568 274.369 91.9053 273.48 93.6621 273.48C94.8447 273.48 96.5674 273.911 96.5742 276.064V281H95.1523V279.988H95.0977C94.8105 280.542 94.127 281.164 92.8965 281.164C91.4883 281.164 90.3877 280.357 90.3945 278.908ZM91.8164 278.922C91.8164 279.633 92.4043 279.995 93.2246 280.002C94.4141 279.995 95.125 279.202 95.125 278.32L95.1182 277.644C94.7832 277.664 93.7236 277.739 93.375 277.76C92.418 277.828 91.8164 278.19 91.8164 278.922ZM99.8008 271.102V281H98.3379V271.102H99.8008ZM107.881 281.137C105.892 281.137 104.668 279.961 104.668 278.375C104.668 277.186 105.447 276.461 106.582 275.688C105.953 274.923 105.495 274.226 105.488 273.344C105.495 271.97 106.479 270.992 107.99 270.992C109.515 270.992 110.451 271.99 110.451 273.152C110.451 274.096 109.959 274.786 109.139 275.381L108.455 275.88L110.438 278.245C110.69 277.753 110.848 277.165 110.848 276.502H112.16C112.16 277.876 111.764 278.758 111.333 279.318L112.748 281H111.107L110.438 280.214C109.761 280.843 108.776 281.137 107.881 281.137ZM106.131 278.334C106.124 279.182 106.821 279.906 107.895 279.906C108.496 279.906 109.111 279.674 109.617 279.257L107.402 276.659L107.156 276.844C106.377 277.418 106.124 278.02 106.131 278.334ZM106.855 273.357C106.855 273.863 107.211 274.369 107.662 274.923L108.264 274.492C108.804 274.137 109.125 273.774 109.125 273.193C109.125 272.729 108.688 272.209 108.018 272.209C107.334 272.216 106.855 272.79 106.855 273.357ZM117.246 271.102H119.078L122.209 278.771H122.332L125.463 271.102H127.295V281H125.859V273.85H125.764L122.865 280.986H121.676L118.764 273.836H118.682V281H117.246V271.102ZM132.395 281.15C130.207 281.15 128.86 279.64 128.867 277.336C128.86 275.053 130.228 273.48 132.299 273.48C133.987 273.48 135.594 274.526 135.594 277.213V277.732H130.316C130.357 279.147 131.191 279.947 132.408 279.947C133.235 279.947 133.775 279.592 134.021 279.141H135.498C135.17 280.344 134.028 281.15 132.395 281.15ZM130.323 276.639H134.158C134.158 275.511 133.427 274.677 132.312 274.684C131.144 274.677 130.385 275.593 130.323 276.639ZM140.188 281.15C138.021 281.15 136.708 279.558 136.715 277.322C136.708 275.06 138.068 273.48 140.16 273.48C141.855 273.48 143.079 274.479 143.236 275.982H141.814C141.664 275.285 141.11 274.704 140.188 274.697C138.984 274.704 138.178 275.702 138.178 277.281C138.178 278.908 138.964 279.913 140.188 279.906C141.015 279.913 141.63 279.448 141.814 278.648H143.236C143.079 280.091 141.938 281.15 140.188 281.15ZM146.08 276.598V281H144.617V271.102H146.053V274.793H146.148C146.497 273.986 147.194 273.48 148.35 273.48C149.874 273.48 150.893 274.424 150.893 276.283V281H149.43V276.461C149.43 275.367 148.842 274.738 147.857 274.738C146.825 274.738 146.08 275.415 146.08 276.598ZM152.314 278.908C152.308 277.213 153.75 276.775 155.09 276.68C155.582 276.652 156.696 276.591 157.038 276.577L157.031 275.982C157.038 275.142 156.519 274.656 155.527 274.656C154.666 274.656 154.146 275.053 153.996 275.6H152.547C152.677 274.369 153.825 273.48 155.582 273.48C156.765 273.48 158.487 273.911 158.494 276.064V281H157.072V279.988H157.018C156.73 280.542 156.047 281.164 154.816 281.164C153.408 281.164 152.308 280.357 152.314 278.908ZM153.736 278.922C153.736 279.633 154.324 279.995 155.145 280.002C156.334 279.995 157.045 279.202 157.045 278.32L157.038 277.644C156.703 277.664 155.644 277.739 155.295 277.76C154.338 277.828 153.736 278.19 153.736 278.922ZM161.721 276.598V281H160.258V273.576H161.666V274.793H161.748C162.097 273.993 162.828 273.48 163.936 273.48C165.46 273.48 166.472 274.444 166.465 276.283V281H165.016V276.461C165.009 275.381 164.428 274.738 163.443 274.738C162.438 274.738 161.721 275.415 161.721 276.598ZM168.242 281V273.576H169.705V281H168.242ZM168.051 271.566C168.058 271.088 168.475 270.705 168.98 270.705C169.479 270.705 169.896 271.088 169.896 271.566C169.896 272.045 169.479 272.435 168.98 272.428C168.475 272.435 168.058 272.045 168.051 271.566ZM174.627 281.15C172.46 281.15 171.147 279.558 171.154 277.322C171.147 275.06 172.508 273.48 174.6 273.48C176.295 273.48 177.519 274.479 177.676 275.982H176.254C176.104 275.285 175.55 274.704 174.627 274.697C173.424 274.704 172.617 275.702 172.617 277.281C172.617 278.908 173.403 279.913 174.627 279.906C175.454 279.913 176.069 279.448 176.254 278.648H177.676C177.519 280.091 176.377 281.15 174.627 281.15ZM178.715 278.908C178.708 277.213 180.15 276.775 181.49 276.68C181.982 276.652 183.097 276.591 183.438 276.577L183.432 275.982C183.438 275.142 182.919 274.656 181.928 274.656C181.066 274.656 180.547 275.053 180.396 275.6H178.947C179.077 274.369 180.226 273.48 181.982 273.48C183.165 273.48 184.888 273.911 184.895 276.064V281H183.473V279.988H183.418C183.131 280.542 182.447 281.164 181.217 281.164C179.809 281.164 178.708 280.357 178.715 278.908ZM180.137 278.922C180.137 279.633 180.725 279.995 181.545 280.002C182.734 279.995 183.445 279.202 183.445 278.32L183.438 277.644C183.104 277.664 182.044 277.739 181.695 277.76C180.738 277.828 180.137 278.19 180.137 278.922ZM188.121 271.102V281H186.658V271.102H188.121ZM193.439 281V271.102H196.967C199.271 271.102 200.398 272.38 200.398 274.205C200.398 275.538 199.797 276.543 198.594 277.001L200.781 281H199.072L197.062 277.268H196.967H194.943V281H193.439ZM194.943 275.969H196.816C198.272 275.962 198.881 275.319 198.881 274.205C198.881 273.091 198.272 272.394 196.816 272.387H194.943V275.969ZM205.047 281.15C202.859 281.15 201.513 279.64 201.52 277.336C201.513 275.053 202.88 273.48 204.951 273.48C206.64 273.48 208.246 274.526 208.246 277.213V277.732H202.969C203.01 279.147 203.844 279.947 205.061 279.947C205.888 279.947 206.428 279.592 206.674 279.141H208.15C207.822 280.344 206.681 281.15 205.047 281.15ZM202.976 276.639H206.811C206.811 275.511 206.079 274.677 204.965 274.684C203.796 274.677 203.037 275.593 202.976 276.639ZM212.84 281.15C210.673 281.15 209.36 279.558 209.367 277.322C209.36 275.06 210.721 273.48 212.812 273.48C214.508 273.48 215.731 274.479 215.889 275.982H214.467C214.316 275.285 213.763 274.704 212.84 274.697C211.637 274.704 210.83 275.702 210.83 277.281C210.83 278.908 211.616 279.913 212.84 279.906C213.667 279.913 214.282 279.448 214.467 278.648H215.889C215.731 280.091 214.59 281.15 212.84 281.15ZM218.172 283.789C217.871 283.782 217.577 283.775 217.393 283.748V282.531C217.557 282.545 217.844 282.552 218.049 282.559C218.5 282.552 218.876 282.524 219.225 281.588L219.402 281.096L216.682 273.576H218.24L220.113 279.332H220.195L222.068 273.576H223.641L220.578 281.984C220.147 283.16 219.396 283.782 218.172 283.789ZM227.715 281.15C225.548 281.15 224.235 279.558 224.242 277.322C224.235 275.06 225.596 273.48 227.688 273.48C229.383 273.48 230.606 274.479 230.764 275.982H229.342C229.191 275.285 228.638 274.704 227.715 274.697C226.512 274.704 225.705 275.702 225.705 277.281C225.705 278.908 226.491 279.913 227.715 279.906C228.542 279.913 229.157 279.448 229.342 278.648H230.764C230.606 280.091 229.465 281.15 227.715 281.15ZM233.607 271.102V281H232.145V271.102H233.607ZM238.584 281.15C236.396 281.15 235.05 279.64 235.057 277.336C235.05 275.053 236.417 273.48 238.488 273.48C240.177 273.48 241.783 274.526 241.783 277.213V277.732H236.506C236.547 279.147 237.381 279.947 238.598 279.947C239.425 279.947 239.965 279.592 240.211 279.141H241.688C241.359 280.344 240.218 281.15 238.584 281.15ZM236.513 276.639H240.348C240.348 275.511 239.616 274.677 238.502 274.684C237.333 274.677 236.574 275.593 236.513 276.639ZM256.398 269.912V282.162H255.086V269.912H256.398ZM246.336 278.881C249.59 277.329 251.183 275.121 251.436 272.264H246.924V271.225H252.748C252.748 274.813 251.224 277.917 247.02 279.934L246.336 278.881ZM264.561 270.377C264.567 271.785 266.509 272.968 268.895 273.234L268.443 274.219C266.434 273.973 264.677 273.125 263.891 271.874C263.098 273.125 261.341 273.973 259.352 274.219L258.9 273.234C261.293 272.968 263.228 271.785 263.234 270.377V269.967H264.561V270.377ZM258.312 275.969V274.93H269.482V275.969H264.533V277.062H268.074V279.961H260.938V281.041H268.416V282.039H259.666V279.018H266.789V278.061H259.652V277.062H263.234V275.969H258.312ZM284.316 269.912V282.162H283.072V275.805H281.555V281.574H280.338V270.24H281.555V274.752H283.072V269.912H284.316ZM273.789 278.662C276.51 277.117 277.651 275.032 277.856 272.537H274.309V271.471H279.121C279.114 274.69 278.048 277.589 274.541 279.564L273.789 278.662ZM287.68 270.432V272.1H290.893V270.432H292.178V275.777H286.408V270.432H287.68ZM287.639 277.773V276.748H295.555V279.838H288.938V281H295.979V282.039H287.666V278.881H294.27V277.773H287.639ZM287.68 274.738H290.893V273.098H287.68V274.738ZM294.256 276.215V269.912H295.555V272.482H297.332V273.535H295.555V276.215H294.256ZM99.8965 305V295.102H103.424C105.728 295.102 106.855 296.482 106.855 298.314C106.855 300.14 105.721 301.527 103.424 301.527H101.4V305H99.8965ZM101.4 300.242H103.273C104.729 300.249 105.338 299.429 105.338 298.314C105.338 297.193 104.729 296.394 103.273 296.387H101.4V300.242ZM108.441 305V295.102H112.064C114.177 295.102 115.195 296.229 115.195 297.699C115.195 298.937 114.437 299.559 113.527 299.791V299.887C114.512 299.941 115.578 300.803 115.578 302.334C115.578 303.852 114.539 305 112.229 305H108.441ZM109.945 303.715H112.092C113.514 303.708 114.088 303.086 114.088 302.266C114.088 301.315 113.336 300.557 112.146 300.557H109.945V303.715ZM109.945 299.381H111.941C112.939 299.374 113.719 298.772 113.719 297.822C113.719 297.002 113.151 296.387 111.969 296.387H109.945V299.381ZM118.039 305H116.439L119.994 295.102H121.73L125.299 305H123.699L122.797 302.389H118.941L118.039 305ZM119.372 301.131H122.359L120.896 296.906H120.828L119.372 301.131ZM124.875 296.4V295.102H132.545V296.4H129.469V305H127.965V296.4H124.875ZM142.607 301.541C145.13 301.541 146.668 302.389 146.668 303.838C146.668 305.308 145.13 306.155 142.607 306.162C140.058 306.155 138.492 305.308 138.492 303.838C138.492 302.389 140.058 301.541 142.607 301.541ZM137.412 300.365V294.678H138.684V296.441H141.896V294.678H143.182V300.365H137.412ZM138.684 299.326H141.896V297.467H138.684V299.326ZM139.791 303.838C139.784 304.658 140.837 305.123 142.607 305.123C144.364 305.123 145.403 304.658 145.396 303.838C145.403 303.024 144.364 302.566 142.607 302.566C140.837 302.566 139.784 303.024 139.791 303.838ZM145.26 301.227V293.912H146.559V296.906H148.336V298.014H146.559V301.227H145.26ZM153.285 297.029C153.271 299.196 154.536 301.418 156.361 302.307L155.555 303.346C154.222 302.648 153.189 301.281 152.649 299.647C152.103 301.384 151.029 302.854 149.635 303.578L148.828 302.525C150.708 301.623 151.979 299.271 151.986 297.029V294.938H153.285V297.029ZM157.277 306.162V293.912H158.576V298.793H160.545V299.9H158.576V306.162H157.277ZM171.318 293.912V306.162H170.006V293.912H171.318ZM161.256 302.881C164.51 301.329 166.103 299.121 166.355 296.264H161.844V295.225H167.668C167.668 298.813 166.144 301.917 161.939 303.934L161.256 302.881ZM179.48 294.377C179.487 295.785 181.429 296.968 183.814 297.234L183.363 298.219C181.354 297.973 179.597 297.125 178.811 295.874C178.018 297.125 176.261 297.973 174.271 298.219L173.82 297.234C176.213 296.968 178.147 295.785 178.154 294.377V293.967H179.48V294.377ZM173.232 299.969V298.93H184.402V299.969H179.453V301.062H182.994V303.961H175.857V305.041H183.336V306.039H174.586V303.018H181.709V302.061H174.572V301.062H178.154V299.969H173.232ZM198.936 293.912V306.162H197.623V293.912H198.936ZM188.873 302.881C192.127 301.329 193.72 299.121 193.973 296.264H189.461V295.225H195.285C195.285 298.813 193.761 301.917 189.557 303.934L188.873 302.881ZM212.061 303.592V304.658H200.85V303.592H205.799V300.926H207.084V303.592H212.061ZM201.396 300.338C203.912 299.969 205.724 298.547 205.785 296.824H201.861V295.771H205.799V294.131H207.084V295.771H211.021V296.824H207.098C207.159 298.547 208.971 299.969 211.486 300.338L210.994 301.35C208.943 301.028 207.234 300.058 206.435 298.629C205.642 300.058 203.939 301.028 201.889 301.35L201.396 300.338ZM226.58 293.926V302.949H225.281V299.764H222.239C221.665 300.454 220.776 300.871 219.758 300.871C217.912 300.871 216.538 299.579 216.545 297.781C216.538 295.97 217.912 294.678 219.758 294.664C220.77 294.671 221.651 295.088 222.226 295.771H225.281V293.926H226.58ZM217.789 297.781C217.782 298.937 218.609 299.729 219.758 299.723C220.858 299.729 221.699 298.937 221.699 297.781C221.699 296.626 220.858 295.833 219.758 295.826C218.609 295.833 217.782 296.626 217.789 297.781ZM218.623 305.902V302.006H219.922V304.85H226.908V305.902H218.623ZM222.8 296.824C222.896 297.125 222.943 297.439 222.943 297.781C222.943 298.109 222.896 298.424 222.807 298.711H225.281V296.824H222.8ZM238.215 294.678V295.758C238.215 296.92 238.215 298.185 237.873 299.928H239.637V300.994H234.674V306.176H233.361V300.994H228.467V299.928H236.561C236.923 298.178 236.923 296.899 236.93 295.758V295.744H229.834V294.678H238.215ZM67.7812 320.264C67.7812 321.604 68.6357 322.957 70.2285 323.559L69.5449 324.557C68.4033 324.119 67.6035 323.285 67.166 322.28C66.7148 323.415 65.8809 324.399 64.6914 324.912L63.9805 323.9C65.6348 323.183 66.5234 321.624 66.5234 320.264V318.678H67.7812V320.264ZM66.2363 327.92C66.2227 326.525 67.8154 325.698 70.3789 325.691C72.9355 325.698 74.542 326.525 74.5488 327.92C74.542 329.314 72.9355 330.142 70.3789 330.135C67.8154 330.142 66.2227 329.314 66.2363 327.92ZM67.5215 327.92C67.5078 328.699 68.5947 329.15 70.3789 329.137C72.1562 329.15 73.2432 328.699 73.25 327.92C73.2432 327.134 72.1562 326.683 70.3789 326.689C68.5947 326.683 67.5078 327.134 67.5215 327.92ZM70.6113 325.076V318.145H71.8145V321.111H73.25V317.926H74.4805V325.459H73.25V322.178H71.8145V325.076H70.6113ZM87.332 324.324V325.363H82.4648V327.619H81.1797V325.363H76.1211V324.324H87.332ZM77.5156 329.902V326.553H78.8008V328.85H86.0879V329.902H77.5156ZM77.5977 323.244V318.295H78.8828V319.785H84.5566V318.295H85.8555V323.244H77.5977ZM78.8828 322.205H84.5566V320.756H78.8828V322.205ZM94.291 319.936V320.988H88.207V319.936H90.6133V318.268H91.8984V319.936H94.291ZM88.6035 324.543C88.5967 322.896 89.7178 321.727 91.2559 321.727C92.8076 321.727 93.915 322.896 93.9219 324.543C93.915 326.218 92.8076 327.394 91.2559 327.387C89.7178 327.394 88.5967 326.218 88.6035 324.543ZM89.752 324.543C89.7451 325.582 90.374 326.279 91.2559 326.279C92.1377 326.279 92.7734 325.582 92.7734 324.543C92.7734 323.524 92.1377 322.813 91.2559 322.807C90.374 322.813 89.7451 323.524 89.752 324.543ZM94.8516 329.588V318.186H96.082V323.012H97.4902V317.912H98.7207V330.162H97.4902V324.078H96.082V329.588H94.8516ZM104.682 319.744C104.675 321.46 105.789 322.991 107.648 323.6L106.938 324.611C105.591 324.119 104.6 323.176 104.066 321.945C103.54 323.347 102.474 324.447 100.99 324.98L100.293 323.941C102.248 323.271 103.383 321.638 103.396 319.799V318.596H104.682V319.744ZM102.303 327.824C102.296 326.341 103.868 325.479 106.445 325.486C109.009 325.479 110.581 326.341 110.588 327.824C110.581 329.301 109.009 330.142 106.445 330.135C103.868 330.142 102.296 329.301 102.303 327.824ZM103.588 327.824C103.581 328.638 104.647 329.116 106.445 329.109C108.229 329.116 109.296 328.638 109.303 327.824C109.296 326.983 108.229 326.498 106.445 326.498C104.647 326.498 103.581 326.983 103.588 327.824ZM106.664 321.467V320.4H109.248V317.912H110.547V325.145H109.248V321.467H106.664ZM116.412 319.102H118.244L121.375 326.771H121.498L124.629 319.102H126.461V329H125.025V321.85H124.93L122.031 328.986H120.842L117.93 321.836H117.848V329H116.412V319.102ZM128.484 329V319.102H132.107C134.22 319.102 135.238 320.229 135.238 321.699C135.238 322.937 134.479 323.559 133.57 323.791V323.887C134.555 323.941 135.621 324.803 135.621 326.334C135.621 327.852 134.582 329 132.271 329H128.484ZM129.988 327.715H132.135C133.557 327.708 134.131 327.086 134.131 326.266C134.131 325.315 133.379 324.557 132.189 324.557H129.988V327.715ZM129.988 323.381H131.984C132.982 323.374 133.762 322.772 133.762 321.822C133.762 321.002 133.194 320.387 132.012 320.387H129.988V323.381ZM151.262 325.09V326.115H140.092V325.09H145.027V324.201C142.867 324.105 141.644 323.456 141.65 322.342C141.644 321.125 143.113 320.482 145.67 320.482C148.22 320.482 149.696 321.125 149.689 322.342C149.696 323.449 148.473 324.099 146.326 324.201V325.09H151.262ZM140.666 320.004V319.006H145.027V317.789H146.326V319.006H150.633V320.004H140.666ZM141.5 329.902V326.84H142.812V328.863H150.004V329.902H141.5ZM142.963 322.342C142.956 322.957 143.886 323.271 145.67 323.271C147.44 323.271 148.377 322.957 148.377 322.342C148.377 321.727 147.44 321.412 145.67 321.412C143.886 321.412 142.956 321.727 142.963 322.342ZM162.35 317.912V324.488H161.051V317.912H162.35ZM152.438 321.316C152.444 319.635 153.825 318.466 155.705 318.473C157.578 318.466 158.959 319.635 158.959 321.316C158.959 322.991 157.578 324.16 155.705 324.146C153.825 324.16 152.444 322.991 152.438 321.316ZM153.709 321.316C153.702 322.376 154.543 323.08 155.705 323.08C156.854 323.08 157.688 322.376 157.688 321.316C157.688 320.271 156.854 319.56 155.705 319.566C154.543 319.56 153.702 320.271 153.709 321.316ZM154.338 330.012V325.076H155.609V326.457H161.064V325.076H162.35V330.012H154.338ZM155.609 328.945H161.064V327.482H155.609V328.945ZM168.27 329V319.102H171.797C174.101 319.102 175.229 320.482 175.229 322.314C175.229 324.14 174.094 325.527 171.797 325.527H169.773V329H168.27ZM169.773 324.242H171.646C173.103 324.249 173.711 323.429 173.711 322.314C173.711 321.193 173.103 320.394 171.646 320.387H169.773V324.242ZM176.814 329V319.102H183.021V320.4H178.318V323.395H182.693V324.68H178.318V327.701H183.076V329H176.814ZM184.375 320.4V319.102H192.045V320.4H188.969V329H187.465V320.4H184.375ZM202.107 325.541C204.63 325.541 206.168 326.389 206.168 327.838C206.168 329.308 204.63 330.155 202.107 330.162C199.558 330.155 197.992 329.308 197.992 327.838C197.992 326.389 199.558 325.541 202.107 325.541ZM196.912 324.365V318.678H198.184V320.441H201.396V318.678H202.682V324.365H196.912ZM198.184 323.326H201.396V321.467H198.184V323.326ZM199.291 327.838C199.284 328.658 200.337 329.123 202.107 329.123C203.864 329.123 204.903 328.658 204.896 327.838C204.903 327.024 203.864 326.566 202.107 326.566C200.337 326.566 199.284 327.024 199.291 327.838ZM204.76 325.227V317.912H206.059V320.906H207.836V322.014H206.059V325.227H204.76ZM212.785 321.029C212.771 323.196 214.036 325.418 215.861 326.307L215.055 327.346C213.722 326.648 212.689 325.281 212.149 323.647C211.603 325.384 210.529 326.854 209.135 327.578L208.328 326.525C210.208 325.623 211.479 323.271 211.486 321.029V318.938H212.785V321.029ZM216.777 330.162V317.912H218.076V322.793H220.045V323.9H218.076V330.162H216.777ZM234.236 317.912V330.162H232.924V317.912H234.236ZM224.174 326.881C227.428 325.329 229.021 323.121 229.273 320.264H224.762V319.225H230.586C230.586 322.813 229.062 325.917 224.857 327.934L224.174 326.881ZM242.398 318.377C242.405 319.785 244.347 320.968 246.732 321.234L246.281 322.219C244.271 321.973 242.515 321.125 241.729 319.874C240.936 321.125 239.179 321.973 237.189 322.219L236.738 321.234C239.131 320.968 241.065 319.785 241.072 318.377V317.967H242.398V318.377ZM236.15 323.969V322.93H247.32V323.969H242.371V325.062H245.912V327.961H238.775V329.041H246.254V330.039H237.504V327.018H244.627V326.061H237.49V325.062H241.072V323.969H236.15ZM262.154 317.912V330.162H260.91V323.805H259.393V329.574H258.176V318.24H259.393V322.752H260.91V317.912H262.154ZM251.627 326.662C254.348 325.117 255.489 323.032 255.694 320.537H252.146V319.471H256.959C256.952 322.69 255.886 325.589 252.379 327.564L251.627 326.662ZM265.518 318.432V320.1H268.73V318.432H270.016V323.777H264.246V318.432H265.518ZM265.477 325.773V324.748H273.393V327.838H266.775V329H273.816V330.039H265.504V326.881H272.107V325.773H265.477ZM265.518 322.738H268.73V321.098H265.518V322.738ZM272.094 324.215V317.912H273.393V320.482H275.17V321.535H273.393V324.215H272.094ZM122.257 341.912V354.189H120.958V341.912H122.257ZM112.769 344.072V343.02H118.511V347.49H114.108V350.17C116.098 350.163 117.827 350.067 119.878 349.732L120.001 350.799C117.834 351.161 115.988 351.243 113.821 351.25H112.782V346.451H117.185V344.072H112.769ZM134.63 341.926V351.1H133.399V341.926H134.63ZM124.157 348.365C125.784 347.668 126.639 346.171 126.632 344.715V344.1H124.458V343.033H129.94V344.1H127.89V344.715C127.89 346.062 128.703 347.449 130.255 348.078L129.599 349.104C128.484 348.639 127.712 347.791 127.288 346.779C126.851 347.914 126.037 348.864 124.854 349.363L124.157 348.365ZM126.509 353.902V350.006H127.794V352.85H134.985V353.902H126.509ZM129.284 346.328V345.275H130.993V342.172H132.224V350.799H130.993V346.328H129.284ZM149.819 342.227V343.211H148.042V345.344H149.765V346.314H145.923V347.367H150.872V348.393H139.702V347.367H144.624V346.314H140.782V345.344H142.519V343.211H140.728V342.227H149.819ZM141.042 350.211V349.268H149.464V352.029H142.327V353.055H149.806V354.039H141.056V351.113H148.179V350.211H141.042ZM143.804 345.344H146.743V343.211H143.804V345.344ZM161.974 341.912V354.189H160.675V341.912H161.974ZM152.485 344.072V343.02H158.228V347.49H153.825V350.17C155.814 350.163 157.544 350.067 159.595 349.732L159.718 350.799C157.551 351.161 155.705 351.243 153.538 351.25H152.499V346.451H156.901V344.072H152.485ZM174.442 341.912V354.162H173.198V341.912H174.442ZM164.038 347.203C164.038 344.551 165.077 342.89 166.677 342.896C168.167 342.89 169.172 344.305 169.322 346.602H170.71V342.145H171.954V353.561H170.71V347.654H169.329C169.213 350.047 168.194 351.53 166.677 351.523C165.077 351.53 164.038 349.862 164.038 347.203ZM165.241 347.203C165.241 349.151 165.795 350.3 166.677 350.293C167.579 350.3 168.14 349.151 168.14 347.203C168.14 345.248 167.579 344.106 166.677 344.113C165.795 344.106 165.241 345.248 165.241 347.203ZM182.222 343.648C182.222 345.645 184.348 347.531 186.706 347.955L186.104 349.035C184.143 348.611 182.345 347.326 181.552 345.604C180.745 347.319 178.947 348.598 176.985 349.035L176.411 347.955C178.735 347.518 180.848 345.645 180.854 343.648V342.719H182.222V343.648ZM176.001 352.549V351.469H187.212V352.549H176.001ZM198.313 341.912V354.189H197.028V347.504H194.595V346.438H197.028V341.912H198.313ZM188.661 351.291V343.006H194.39V344.059H189.974V346.438H193.87V347.477H189.974V350.211C192.024 350.211 193.446 350.149 195.073 349.869L195.21 350.922C193.426 351.209 191.888 351.284 189.618 351.291H188.661ZM214.104 341.912V354.162H212.86V347.805H211.343V353.574H210.126V342.24H211.343V346.752H212.86V341.912H214.104ZM203.577 350.662C206.298 349.117 207.439 347.032 207.645 344.537H204.097V343.471H208.909C208.902 346.69 207.836 349.589 204.329 351.564L203.577 350.662ZM217.468 342.432V344.1H220.681V342.432H221.966V347.777H216.196V342.432H217.468ZM217.427 349.773V348.748H225.343V351.838H218.726V353H225.767V354.039H217.454V350.881H224.058V349.773H217.427ZM217.468 346.738H220.681V345.098H217.468V346.738ZM224.044 348.215V341.912H225.343V344.482H227.12V345.535H225.343V348.215H224.044ZM94.9404 370.232C94.5713 369.063 93.6758 368.339 92.3701 368.346C90.7021 368.339 89.4238 369.651 89.417 372.051C89.4238 374.443 90.6885 375.763 92.4385 375.756C94.0176 375.763 95.0635 374.758 95.0908 373.172H92.6572V371.928H96.5537V373.049C96.5537 375.558 94.8311 377.137 92.4248 377.137C89.7451 377.137 87.9268 375.188 87.9268 372.051C87.9268 368.893 89.7998 366.965 92.3564 366.965C94.4961 366.965 96.1504 368.298 96.4854 370.232H94.9404ZM98.29 377V367.102H101.817C104.121 367.102 105.249 368.38 105.249 370.205C105.249 371.538 104.647 372.543 103.444 373.001L105.632 377H103.923L101.913 373.268H101.817H99.7939V377H98.29ZM99.7939 371.969H101.667C103.123 371.962 103.731 371.319 103.731 370.205C103.731 369.091 103.123 368.394 101.667 368.387H99.7939V371.969ZM112.304 369.713C112.208 368.79 111.401 368.264 110.267 368.264C109.057 368.264 108.291 368.886 108.284 369.727C108.284 370.663 109.303 371.032 110.089 371.217L111.046 371.477C112.311 371.784 113.896 372.475 113.903 374.266C113.896 375.94 112.563 377.164 110.226 377.164C108.011 377.164 106.616 376.057 106.521 374.252H108.024C108.113 375.332 109.07 375.845 110.226 375.852C111.49 375.845 112.406 375.209 112.413 374.238C112.406 373.377 111.586 373.028 110.54 372.748L109.364 372.434C107.771 371.996 106.787 371.189 106.78 369.809C106.787 368.1 108.305 366.965 110.308 366.965C112.317 366.965 113.719 368.113 113.767 369.713H112.304ZM117.157 376.057L116.063 379.83H114.901L115.626 376.057H117.157ZM131.116 372.051C131.116 375.216 129.216 377.137 126.659 377.137C124.082 377.137 122.188 375.209 122.188 372.051C122.188 368.886 124.082 366.965 126.659 366.965C129.216 366.965 131.116 368.886 131.116 372.051ZM123.679 372.051C123.686 374.457 124.95 375.763 126.659 375.756C128.354 375.763 129.619 374.457 129.626 372.051C129.619 369.645 128.354 368.339 126.659 368.346C124.95 368.339 123.686 369.645 123.679 372.051ZM132.812 377V367.102H139.019V368.4H134.315V371.395H138.69V372.68H134.315V375.701H139.073V377H132.812ZM140.864 377V367.102H142.368V371.818H142.491L146.634 367.102H148.521L144.528 371.559L148.534 377H146.716L143.53 372.584L142.368 373.924V377H140.864ZM157.858 372.051C157.858 375.216 155.958 377.137 153.401 377.137C150.824 377.137 148.931 375.209 148.931 372.051C148.931 368.886 150.824 366.965 153.401 366.965C155.958 366.965 157.858 368.886 157.858 372.051ZM150.421 372.051C150.428 374.457 151.692 375.763 153.401 375.756C155.097 375.763 156.361 374.457 156.368 372.051C156.361 369.645 155.097 368.339 153.401 368.346C151.692 368.339 150.428 369.645 150.421 372.051ZM163.806 371.422V372.68H159.417V371.422H163.806ZM164.394 368.4V367.102H172.063V368.4H168.987V377H167.483V368.4H164.394ZM173.595 377V367.102H179.802V368.4H175.099V371.395H179.474V372.68H175.099V375.701H179.856V377H173.595ZM182.7 367.102L185.052 370.957H185.134L187.499 367.102H189.235L186.146 372.051L189.263 377H187.499L185.134 373.186H185.052L182.673 377H180.923L184.081 372.051L180.937 367.102H182.7ZM192.202 376.057L191.108 379.83H189.946L190.671 376.057H192.202ZM206.161 372.051C206.161 375.216 204.261 377.137 201.704 377.137C199.127 377.137 197.233 375.209 197.233 372.051C197.233 368.886 199.127 366.965 201.704 366.965C204.261 366.965 206.161 368.886 206.161 372.051ZM198.724 372.051C198.73 374.457 199.995 375.763 201.704 375.756C203.399 375.763 204.664 374.457 204.671 372.051C204.664 369.645 203.399 368.339 201.704 368.346C199.995 368.339 198.73 369.645 198.724 372.051ZM207.856 377V367.102H211.479C213.592 367.102 214.61 368.229 214.61 369.699C214.61 370.937 213.852 371.559 212.942 371.791V371.887C213.927 371.941 214.993 372.803 214.993 374.334C214.993 375.852 213.954 377 211.644 377H207.856ZM209.36 375.715H211.507C212.929 375.708 213.503 375.086 213.503 374.266C213.503 373.315 212.751 372.557 211.562 372.557H209.36V375.715ZM209.36 371.381H211.356C212.354 371.374 213.134 370.772 213.134 369.822C213.134 369.002 212.566 368.387 211.384 368.387H209.36V371.381ZM216.606 377V367.102H220.134C222.438 367.102 223.565 368.482 223.565 370.314C223.565 372.14 222.431 373.527 220.134 373.527H218.11V377H216.606ZM218.11 372.242H219.983C221.439 372.249 222.048 371.429 222.048 370.314C222.048 369.193 221.439 368.394 219.983 368.387H218.11V372.242ZM238.167 365.926V374.826H236.868V365.926H238.167ZM228.255 369.781C228.262 368.011 229.67 366.753 231.522 366.746C233.368 366.753 234.776 368.011 234.776 369.781C234.776 371.579 233.368 372.83 231.522 372.83C229.67 372.83 228.262 371.579 228.255 369.781ZM229.526 369.781C229.52 370.937 230.381 371.695 231.522 371.695C232.644 371.695 233.505 370.937 233.505 369.781C233.505 368.653 232.644 367.881 231.522 367.881C230.381 367.881 229.52 368.653 229.526 369.781ZM230.155 377.902V373.924H231.468V376.85H238.536V377.902H230.155ZM251.278 371.682V372.734H240.108V371.682H251.278ZM240.696 370.014C242.918 369.774 244.675 368.776 244.818 367.58H241.134V366.514H250.28V367.58H246.555C246.705 368.77 248.435 369.774 250.704 370.014L250.239 371.039C248.113 370.793 246.356 369.897 245.693 368.605C245.017 369.897 243.273 370.793 241.147 371.039L240.696 370.014ZM241.435 375.92C241.435 374.498 243.027 373.678 245.687 373.678C248.325 373.678 249.904 374.498 249.911 375.92C249.904 377.342 248.325 378.142 245.687 378.135C243.027 378.142 241.435 377.342 241.435 375.92ZM242.747 375.92C242.74 376.692 243.813 377.116 245.687 377.109C247.532 377.116 248.612 376.692 248.612 375.92C248.612 375.127 247.532 374.703 245.687 374.689C243.813 374.703 242.74 375.127 242.747 375.92Z" fill="#F4F8FF"/>
<rect x="0.5" y="192.5" width="338" height="223" rx="15.5" stroke="#383957"/>
<rect x="0.5" y="432.5" width="338" height="127" rx="15.5" fill="#4D51AC"/>
<path d="M145.639 472.048H143.063V473.104C143.063 473.44 143.127 473.808 143.351 474.048C144.343 475.152 145.351 476.096 146.471 477.04L145.191 478.272C144.055 477.36 142.983 476.416 141.975 475.376C140.967 476.48 139.767 477.632 138.599 478.624L137.255 477.456C138.375 476.448 139.527 475.456 140.503 474.176C140.711 473.904 140.855 473.536 140.855 473.2V472.048H137.991V470.448H145.959L145.639 472.048ZM140.071 479.152H149.655V484.368L147.447 484.688V480.72H140.071V479.152ZM149.655 469.76V478.272L147.479 478.592V470.08L149.655 469.76ZM165.226 477.28H159.866V478.336H163.418V482.112H155.978V482.976H163.914L163.594 484.464H153.754V480.688H161.21V479.808H153.722V478.336H157.562V477.28H151.674V475.728H165.546L165.226 477.28ZM153.754 470.144H163.418V474.384L161.21 474.784H153.754V470.144ZM155.978 473.248H161.21V471.728H155.978V473.248ZM170.54 470.048H172.508L168.476 483.216H166.492L170.54 470.048ZM183.964 478.4V476.256H181.372V475.872C180.732 477.008 179.404 477.6 177.948 477.6C175.932 477.6 174.14 476.448 174.14 474.304V473.488C174.14 471.344 175.932 470.192 177.948 470.192C179.404 470.192 180.732 470.8 181.372 471.936V471.296H183.964V470.08L186.124 469.76V478.08L183.964 478.4ZM186.124 478.96V484L183.932 484.4H176.684V478.96H186.124ZM179.596 474.24V473.552C179.596 472.432 178.908 471.792 177.948 471.792C176.988 471.792 176.3 472.432 176.3 473.552V474.24C176.3 475.36 176.988 476 177.948 476C178.908 476 179.596 475.36 179.596 474.24ZM178.908 482.8H183.932V480.56H178.908V482.8ZM181.756 474.304C181.756 474.432 181.74 474.544 181.724 474.656H183.964V472.848H181.692C181.724 473.056 181.756 473.264 181.756 473.488V474.304ZM197.806 469.984V473.376H198.878V470.08L200.894 469.76V478.464L198.878 478.784V474.976H197.806V478.464L195.822 478.784V470.304L197.806 469.984ZM190.59 474.224C190.734 473.984 190.734 473.504 190.734 473.168V470.544L192.814 470.224V473.12C192.814 473.456 192.83 473.872 193.006 474.144C193.534 474.96 194.558 476.192 195.502 477.136L194.19 478.336C193.438 477.616 192.574 476.688 191.854 475.856C191.086 476.784 190.27 477.664 189.262 478.656L187.902 477.504C189.134 476.24 190.03 475.12 190.59 474.224ZM191.118 479.344H200.894V484.368L198.702 484.688V480.928H191.118V479.344Z" fill="white"/>
<path d="M131.28 516.051C131.28 519.216 129.38 521.137 126.823 521.137C124.246 521.137 122.353 519.209 122.353 516.051C122.353 512.886 124.246 510.965 126.823 510.965C129.38 510.965 131.28 512.886 131.28 516.051ZM123.843 516.051C123.85 518.457 125.114 519.763 126.823 519.756C128.519 519.763 129.783 518.457 129.79 516.051C129.783 513.645 128.519 512.339 126.823 512.346C125.114 512.339 123.85 513.645 123.843 516.051ZM132.976 521V511.102H139.183V512.4H134.479V515.395H138.854V516.68H134.479V519.701H139.237V521H132.976ZM141.028 521V511.102H142.532V515.818H142.655L146.798 511.102H148.685L144.692 515.559L148.698 521H146.88L143.694 516.584L142.532 517.924V521H141.028ZM158.022 516.051C158.022 519.216 156.122 521.137 153.565 521.137C150.988 521.137 149.095 519.209 149.095 516.051C149.095 512.886 150.988 510.965 153.565 510.965C156.122 510.965 158.022 512.886 158.022 516.051ZM150.585 516.051C150.592 518.457 151.856 519.763 153.565 519.756C155.261 519.763 156.525 518.457 156.532 516.051C156.525 513.645 155.261 512.339 153.565 512.346C151.856 512.339 150.592 513.645 150.585 516.051ZM163.97 515.422V516.68H159.581V515.422H163.97ZM164.558 512.4V511.102H172.228V512.4H169.151V521H167.647V512.4H164.558ZM173.759 521V511.102H179.966V512.4H175.263V515.395H179.638V516.68H175.263V519.701H180.021V521H173.759ZM182.864 511.102L185.216 514.957H185.298L187.663 511.102H189.399L186.31 516.051L189.427 521H187.663L185.298 517.186H185.216L182.837 521H181.087L184.245 516.051L181.101 511.102H182.864ZM203.741 509.926V518.826H202.442V509.926H203.741ZM193.829 513.781C193.836 512.011 195.244 510.753 197.097 510.746C198.942 510.753 200.351 512.011 200.351 513.781C200.351 515.579 198.942 516.83 197.097 516.83C195.244 516.83 193.836 515.579 193.829 513.781ZM195.101 513.781C195.094 514.937 195.955 515.695 197.097 515.695C198.218 515.695 199.079 514.937 199.079 513.781C199.079 512.653 198.218 511.881 197.097 511.881C195.955 511.881 195.094 512.653 195.101 513.781ZM195.729 521.902V517.924H197.042V520.85H204.11V521.902H195.729ZM216.853 515.682V516.734H205.683V515.682H216.853ZM206.271 514.014C208.492 513.774 210.249 512.776 210.393 511.58H206.708V510.514H215.854V511.58H212.129C212.279 512.77 214.009 513.774 216.278 514.014L215.813 515.039C213.688 514.793 211.931 513.897 211.268 512.605C210.591 513.897 208.848 514.793 206.722 515.039L206.271 514.014ZM207.009 519.92C207.009 518.498 208.602 517.678 211.261 517.678C213.899 517.678 215.479 518.498 215.485 519.92C215.479 521.342 213.899 522.142 211.261 522.135C208.602 522.142 207.009 521.342 207.009 519.92ZM208.321 519.92C208.314 520.692 209.388 521.116 211.261 521.109C213.106 521.116 214.187 520.692 214.187 519.92C214.187 519.127 213.106 518.703 211.261 518.689C209.388 518.703 208.314 519.127 208.321 519.92Z" fill="#F4F8FF"/>
<rect x="0.5" y="432.5" width="338" height="127" rx="15.5" stroke="#383957"/>
</svg>
