<svg width="1336" height="260" viewBox="0 0 1336 260" fill="none" xmlns="http://www.w3.org/2000/svg">
<rect x="154.5" y="0.5" width="327" height="259" rx="15.5" fill="#4D51AC" stroke="#383957"/>
<path d="M287.921 52.64C289.553 54.104 292.769 56.624 294.833 58.088L293.249 59.768C291.089 58.304 287.993 56 286.097 54.32C284.201 56.024 281.345 58.232 278.873 59.864L277.313 58.16C279.449 56.648 282.449 54.296 284.129 52.76C284.513 52.4 284.681 51.824 284.681 51.32V48.176L287.465 47.792V51.224C287.465 51.752 287.537 52.304 287.921 52.64ZM296.369 63.248L295.985 65.336H275.753V63.248H296.369ZM312.74 47.12L315.404 46.736V52.424H318.86L318.452 54.488H315.404V62.048C314.516 62.192 313.628 62.336 312.74 62.456V47.12ZM310.556 50.12H298.7V48.056H310.556V50.12ZM301.676 59.648H298.196V57.656H300.572C300.548 55.448 300.524 53.216 300.476 50.984H303.164L303.284 57.656L306.164 57.608L306.26 50.984H308.924L308.804 57.44C309.908 57.368 310.94 57.272 311.756 57.128V59.192C309.188 59.504 305.156 59.648 301.676 59.648ZM315.812 68.288H302.084V61.52H304.796V66.224H316.196L315.812 68.288ZM335.64 47.12L338.16 46.736V59.408L335.64 59.816V47.12ZM331.152 47.456L333.624 47.048V59.408L331.152 59.816V54.152H327.192V52.088H331.152V47.456ZM328.344 49.904H323.712V56.624H325.488C326.88 56.624 328.32 56.528 329.664 56.24V58.256C328.2 58.544 326.256 58.64 324.48 58.64H321.144V47.816H328.344V49.904ZM324.096 60.728H338.16V68.384L335.472 68.792V62.768H324.096V60.728ZM353.452 52.64C355.084 54.104 358.3 56.624 360.364 58.088L358.78 59.768C356.62 58.304 353.524 56 351.628 54.32C349.732 56.024 346.876 58.232 344.404 59.864L342.844 58.16C344.98 56.648 347.98 54.296 349.66 52.76C350.044 52.4 350.212 51.824 350.212 51.32V48.176L352.996 47.792V51.224C352.996 51.752 353.068 52.304 353.452 52.64ZM361.9 63.248L361.516 65.336H341.284V63.248H361.9Z" fill="white"/>
<path d="M224.348 112.912V117.656H226.316V118.75H224.348V125.162H223.049V112.912H224.348ZM215.27 122.25V113.938H216.555V117.082H219.795V113.938H221.08V122.25H215.27ZM216.555 121.184H219.795V118.107H216.555V121.184ZM237.049 112.912V125.189H235.75V112.912H237.049ZM227.328 118.121C227.328 115.503 228.647 113.835 230.5 113.828C232.318 113.835 233.658 115.503 233.658 118.121C233.658 120.767 232.318 122.435 230.5 122.428C228.647 122.435 227.328 120.767 227.328 118.121ZM228.586 118.121C228.579 120.069 229.358 121.266 230.5 121.266C231.621 121.266 232.4 120.069 232.4 118.121C232.4 116.2 231.621 114.997 230.5 114.99C229.358 114.997 228.579 116.2 228.586 118.121ZM244.582 113.65C247.2 113.657 249.107 114.949 249.107 116.904C249.107 118.736 247.508 119.96 245.225 120.145V122.551H250.215V123.631H239.004V122.551H243.939V120.145C241.67 119.96 240.063 118.736 240.07 116.904C240.063 114.949 241.978 113.657 244.582 113.65ZM241.328 116.904C241.328 118.278 242.695 119.133 244.582 119.146C246.482 119.133 247.843 118.278 247.85 116.904C247.843 115.578 246.482 114.703 244.582 114.717C242.695 114.703 241.328 115.578 241.328 116.904ZM260.742 114.648C260.742 116.645 262.868 118.531 265.227 118.955L264.625 120.035C262.663 119.611 260.865 118.326 260.072 116.604C259.266 118.319 257.468 119.598 255.506 120.035L254.932 118.955C257.256 118.518 259.368 116.645 259.375 114.648V113.719H260.742V114.648ZM254.521 123.549V122.469H265.732V123.549H254.521ZM273.58 114.02V115.072H272.418V118.914C272.999 118.873 273.566 118.818 274.113 118.75L274.195 119.721C271.728 120.11 268.87 120.165 266.771 120.172L266.621 119.105C267.093 119.105 267.599 119.099 268.125 119.092V115.072H266.963V114.02H273.58ZM268.48 124.902V121.074H269.779V123.85H276.766V124.902H268.48ZM269.383 119.064C269.964 119.044 270.552 119.023 271.146 118.996V115.072H269.383V119.064ZM274.947 121.936V112.926H276.246V116.549H278.023V117.643H276.246V121.936H274.947ZM289.207 120.91V125.176H287.908V121.977H280.84V120.91H289.207ZM279.295 119.652V113.842H284.012V114.895H280.58V118.613C282.234 118.606 283.273 118.552 284.518 118.326L284.627 119.365C283.246 119.618 282.091 119.652 280.088 119.652H279.295ZM283.246 117.137V116.098H285.584V113.172H286.787V120.281H285.584V117.137H283.246ZM287.977 120.363V112.926H289.207V120.363H287.977ZM297.041 114.648C297.041 116.645 299.167 118.531 301.525 118.955L300.924 120.035C298.962 119.611 297.164 118.326 296.371 116.604C295.564 118.319 293.767 119.598 291.805 120.035L291.23 118.955C293.555 118.518 295.667 116.645 295.674 114.648V113.719H297.041V114.648ZM290.82 123.549V122.469H302.031V123.549H290.82ZM309.66 124.137C307.671 124.137 306.447 122.961 306.447 121.375C306.447 120.186 307.227 119.461 308.361 118.688C307.732 117.923 307.274 117.226 307.268 116.344C307.274 114.97 308.259 113.992 309.77 113.992C311.294 113.992 312.23 114.99 312.23 116.152C312.23 117.096 311.738 117.786 310.918 118.381L310.234 118.88L312.217 121.245C312.47 120.753 312.627 120.165 312.627 119.502H313.939C313.939 120.876 313.543 121.758 313.112 122.318L314.527 124H312.887L312.217 123.214C311.54 123.843 310.556 124.137 309.66 124.137ZM307.91 121.334C307.903 122.182 308.601 122.906 309.674 122.906C310.275 122.906 310.891 122.674 311.396 122.257L309.182 119.659L308.936 119.844C308.156 120.418 307.903 121.02 307.91 121.334ZM308.635 116.357C308.635 116.863 308.99 117.369 309.441 117.923L310.043 117.492C310.583 117.137 310.904 116.774 310.904 116.193C310.904 115.729 310.467 115.209 309.797 115.209C309.113 115.216 308.635 115.79 308.635 116.357ZM328.637 112.912V125.189H327.338V112.912H328.637ZM319.148 115.072V114.02H324.891V118.49H320.488V121.17C322.478 121.163 324.207 121.067 326.258 120.732L326.381 121.799C324.214 122.161 322.368 122.243 320.201 122.25H319.162V117.451H323.564V115.072H319.148ZM341.01 112.926V122.1H339.779V112.926H341.01ZM330.537 119.365C332.164 118.668 333.019 117.171 333.012 115.715V115.1H330.838V114.033H336.32V115.1H334.27V115.715C334.27 117.062 335.083 118.449 336.635 119.078L335.979 120.104C334.864 119.639 334.092 118.791 333.668 117.779C333.23 118.914 332.417 119.864 331.234 120.363L330.537 119.365ZM332.889 124.902V121.006H334.174V123.85H341.365V124.902H332.889ZM335.664 117.328V116.275H337.373V113.172H338.604V121.799H337.373V117.328H335.664ZM355.939 114.102V115.592C355.939 117.383 355.939 119.064 355.406 121.607L354.121 121.484C354.381 120.356 354.518 119.379 354.586 118.47L347.23 118.859L347.066 117.793L354.647 117.506C354.675 116.85 354.675 116.221 354.682 115.592V115.168H347.408V114.102H355.939ZM346.082 123.521V122.455H357.252V123.521H346.082ZM362.926 114.225V118.586H359.822V121.102C361.155 121.095 362.427 121.04 363.938 120.773L364.047 121.84C362.345 122.147 360.95 122.182 359.412 122.195H358.564V117.547H361.682V115.277H358.551V114.225H362.926ZM363.5 118.299V117.246H364.949V113.186H366.18V124.533H364.949V118.299H363.5ZM367.451 125.162V112.912H368.695V125.162H367.451ZM375.859 113.65C378.478 113.657 380.385 114.949 380.385 116.904C380.385 118.736 378.785 119.96 376.502 120.145V122.551H381.492V123.631H370.281V122.551H375.217V120.145C372.947 119.96 371.341 118.736 371.348 116.904C371.341 114.949 373.255 113.657 375.859 113.65ZM372.605 116.904C372.605 118.278 373.973 119.133 375.859 119.146C377.76 119.133 379.12 118.278 379.127 116.904C379.12 115.578 377.76 114.703 375.859 114.717C373.973 114.703 372.605 115.578 372.605 116.904ZM391.924 112.912V117.697H393.893V118.791H391.924V125.189H390.639V112.912H391.924ZM382.859 115.072V114.02H388.465V118.518H384.172V121.17C386.271 121.163 387.836 121.088 389.627 120.76L389.75 121.812C387.836 122.168 386.182 122.25 383.885 122.264H382.887V117.465H387.18V115.072H382.859ZM408.385 112.912V125.162H407.141V118.805H405.623V124.574H404.406V113.24H405.623V117.752H407.141V112.912H408.385ZM397.857 121.662C400.578 120.117 401.72 118.032 401.925 115.537H398.377V114.471H403.189C403.183 117.69 402.116 120.589 398.609 122.564L397.857 121.662ZM411.748 113.432V115.1H414.961V113.432H416.246V118.777H410.477V113.432H411.748ZM411.707 120.773V119.748H419.623V122.838H413.006V124H420.047V125.039H411.734V121.881H418.338V120.773H411.707ZM411.748 117.738H414.961V116.098H411.748V117.738ZM418.324 119.215V112.912H419.623V115.482H421.4V116.535H419.623V119.215H418.324ZM246.927 139.232C246.558 138.063 245.662 137.339 244.356 137.346C242.688 137.339 241.41 138.651 241.403 141.051C241.41 143.443 242.675 144.763 244.425 144.756C246.004 144.763 247.05 143.758 247.077 142.172H244.644V140.928H248.54V142.049C248.54 144.558 246.817 146.137 244.411 146.137C241.731 146.137 239.913 144.188 239.913 141.051C239.913 137.893 241.786 135.965 244.343 135.965C246.482 135.965 248.137 137.298 248.472 139.232H246.927ZM250.276 146V136.102H253.804C256.107 136.102 257.235 137.38 257.235 139.205C257.235 140.538 256.634 141.543 255.431 142.001L257.618 146H255.909L253.899 142.268H253.804H251.78V146H250.276ZM251.78 140.969H253.653C255.109 140.962 255.718 140.319 255.718 139.205C255.718 138.091 255.109 137.394 253.653 137.387H251.78V140.969ZM264.29 138.713C264.194 137.79 263.388 137.264 262.253 137.264C261.043 137.264 260.277 137.886 260.271 138.727C260.271 139.663 261.289 140.032 262.075 140.217L263.032 140.477C264.297 140.784 265.883 141.475 265.89 143.266C265.883 144.94 264.55 146.164 262.212 146.164C259.997 146.164 258.603 145.057 258.507 143.252H260.011C260.1 144.332 261.057 144.845 262.212 144.852C263.477 144.845 264.393 144.209 264.399 143.238C264.393 142.377 263.572 142.028 262.526 141.748L261.351 141.434C259.758 140.996 258.773 140.189 258.767 138.809C258.773 137.1 260.291 135.965 262.294 135.965C264.304 135.965 265.705 137.113 265.753 138.713H264.29ZM280.519 134.926V143.826H279.22V134.926H280.519ZM270.606 138.781C270.613 137.011 272.021 135.753 273.874 135.746C275.72 135.753 277.128 137.011 277.128 138.781C277.128 140.579 275.72 141.83 273.874 141.83C272.021 141.83 270.613 140.579 270.606 138.781ZM271.878 138.781C271.871 139.937 272.732 140.695 273.874 140.695C274.995 140.695 275.856 139.937 275.856 138.781C275.856 137.653 274.995 136.881 273.874 136.881C272.732 136.881 271.871 137.653 271.878 138.781ZM272.507 146.902V142.924H273.819V145.85H280.888V146.902H272.507ZM293.63 140.682V141.734H282.46V140.682H293.63ZM283.048 139.014C285.27 138.774 287.026 137.776 287.17 136.58H283.485V135.514H292.632V136.58H288.906C289.057 137.77 290.786 138.774 293.056 139.014L292.591 140.039C290.465 139.793 288.708 138.897 288.045 137.605C287.368 138.897 285.625 139.793 283.499 140.039L283.048 139.014ZM283.786 144.92C283.786 143.498 285.379 142.678 288.038 142.678C290.677 142.678 292.256 143.498 292.263 144.92C292.256 146.342 290.677 147.142 288.038 147.135C285.379 147.142 283.786 146.342 283.786 144.92ZM285.099 144.92C285.092 145.692 286.165 146.116 288.038 146.109C289.884 146.116 290.964 145.692 290.964 144.92C290.964 144.127 289.884 143.703 288.038 143.689C286.165 143.703 285.092 144.127 285.099 144.92ZM296.761 145.057L295.667 148.83H294.505L295.229 145.057H296.761ZM310.72 141.051C310.72 144.216 308.819 146.137 306.263 146.137C303.686 146.137 301.792 144.209 301.792 141.051C301.792 137.886 303.686 135.965 306.263 135.965C308.819 135.965 310.72 137.886 310.72 141.051ZM303.282 141.051C303.289 143.457 304.554 144.763 306.263 144.756C307.958 144.763 309.223 143.457 309.229 141.051C309.223 138.645 307.958 137.339 306.263 137.346C304.554 137.339 303.289 138.645 303.282 141.051ZM312.415 146V136.102H318.622V137.4H313.919V140.395H318.294V141.68H313.919V144.701H318.677V146H312.415ZM320.468 146V136.102H321.972V140.818H322.095L326.237 136.102H328.124L324.132 140.559L328.138 146H326.319L323.134 141.584L321.972 142.924V146H320.468ZM337.462 141.051C337.462 144.216 335.562 146.137 333.005 146.137C330.428 146.137 328.534 144.209 328.534 141.051C328.534 137.886 330.428 135.965 333.005 135.965C335.562 135.965 337.462 137.886 337.462 141.051ZM330.024 141.051C330.031 143.457 331.296 144.763 333.005 144.756C334.7 144.763 335.965 143.457 335.972 141.051C335.965 138.645 334.7 137.339 333.005 137.346C331.296 137.339 330.031 138.645 330.024 141.051ZM343.409 140.422V141.68H339.021V140.422H343.409ZM343.997 137.4V136.102H351.667V137.4H348.591V146H347.087V137.4H343.997ZM353.198 146V136.102H359.405V137.4H354.702V140.395H359.077V141.68H354.702V144.701H359.46V146H353.198ZM362.304 136.102L364.655 139.957H364.737L367.103 136.102H368.839L365.749 141.051L368.866 146H367.103L364.737 142.186H364.655L362.276 146H360.526L363.685 141.051L360.54 136.102H362.304ZM383.181 134.926V143.826H381.882V134.926H383.181ZM373.269 138.781C373.275 137.011 374.684 135.753 376.536 135.746C378.382 135.753 379.79 137.011 379.79 138.781C379.79 140.579 378.382 141.83 376.536 141.83C374.684 141.83 373.275 140.579 373.269 138.781ZM374.54 138.781C374.533 139.937 375.395 140.695 376.536 140.695C377.657 140.695 378.519 139.937 378.519 138.781C378.519 137.653 377.657 136.881 376.536 136.881C375.395 136.881 374.533 137.653 374.54 138.781ZM375.169 146.902V142.924H376.481V145.85H383.55V146.902H375.169ZM396.292 140.682V141.734H385.122V140.682H396.292ZM385.71 139.014C387.932 138.774 389.688 137.776 389.832 136.58H386.147V135.514H395.294V136.58H391.568C391.719 137.77 393.448 138.774 395.718 139.014L395.253 140.039C393.127 139.793 391.37 138.897 390.707 137.605C390.03 138.897 388.287 139.793 386.161 140.039L385.71 139.014ZM386.448 144.92C386.448 143.498 388.041 142.678 390.7 142.678C393.339 142.678 394.918 143.498 394.925 144.92C394.918 146.342 393.339 147.142 390.7 147.135C388.041 147.142 386.448 146.342 386.448 144.92ZM387.761 144.92C387.754 145.692 388.827 146.116 390.7 146.109C392.546 146.116 393.626 145.692 393.626 144.92C393.626 144.127 392.546 143.703 390.7 143.689C388.827 143.703 387.754 144.127 387.761 144.92ZM254.357 160.713C254.262 159.79 253.455 159.264 252.32 159.264C251.11 159.264 250.345 159.886 250.338 160.727C250.338 161.663 251.356 162.032 252.143 162.217L253.1 162.477C254.364 162.784 255.95 163.475 255.957 165.266C255.95 166.94 254.617 168.164 252.279 168.164C250.064 168.164 248.67 167.057 248.574 165.252H250.078C250.167 166.332 251.124 166.845 252.279 166.852C253.544 166.845 254.46 166.209 254.467 165.238C254.46 164.377 253.64 164.028 252.594 163.748L251.418 163.434C249.825 162.996 248.841 162.189 248.834 160.809C248.841 159.1 250.358 157.965 252.361 157.965C254.371 157.965 255.772 159.113 255.82 160.713H254.357ZM264.256 161.232C263.887 160.063 262.991 159.339 261.686 159.346C260.018 159.339 258.739 160.651 258.732 163.051C258.739 165.443 260.004 166.763 261.754 166.756C263.333 166.763 264.379 165.758 264.406 164.172H261.973V162.928H265.869V164.049C265.869 166.558 264.146 168.137 261.74 168.137C259.061 168.137 257.242 166.188 257.242 163.051C257.242 159.893 259.115 157.965 261.672 157.965C263.812 157.965 265.466 159.298 265.801 161.232H264.256ZM272.992 160.713C272.896 159.79 272.09 159.264 270.955 159.264C269.745 159.264 268.979 159.886 268.973 160.727C268.973 161.663 269.991 162.032 270.777 162.217L271.734 162.477C272.999 162.784 274.585 163.475 274.592 165.266C274.585 166.94 273.252 168.164 270.914 168.164C268.699 168.164 267.305 167.057 267.209 165.252H268.713C268.802 166.332 269.759 166.845 270.914 166.852C272.179 166.845 273.095 166.209 273.102 165.238C273.095 164.377 272.274 164.028 271.229 163.748L270.053 163.434C268.46 162.996 267.476 162.189 267.469 160.809C267.476 159.1 268.993 157.965 270.996 157.965C273.006 157.965 274.407 159.113 274.455 160.713H272.992ZM279.623 168V158.102H285.83V159.4H281.127V162.395H285.502V163.68H281.127V166.701H285.885V168H279.623ZM294.375 161.328C294.136 160.05 293.076 159.339 291.818 159.346C290.109 159.339 288.845 160.651 288.838 163.051C288.845 165.464 290.116 166.763 291.818 166.756C293.062 166.763 294.115 166.065 294.375 164.801L295.893 164.814C295.578 166.77 293.985 168.137 291.805 168.137C289.228 168.137 287.348 166.216 287.348 163.051C287.348 159.886 289.241 157.965 291.805 157.965C293.896 157.965 295.558 159.202 295.893 161.328H294.375ZM306.119 163.051C306.119 166.216 304.219 168.137 301.662 168.137C299.085 168.137 297.191 166.209 297.191 163.051C297.191 159.886 299.085 157.965 301.662 157.965C304.219 157.965 306.119 159.886 306.119 163.051ZM298.682 163.051C298.688 165.457 299.953 166.763 301.662 166.756C303.357 166.763 304.622 165.457 304.629 163.051C304.622 160.645 303.357 159.339 301.662 159.346C299.953 159.339 298.688 160.645 298.682 163.051ZM311.232 168V158.102H314.76C317.063 158.102 318.191 159.482 318.191 161.314C318.191 163.14 317.057 164.527 314.76 164.527H312.736V168H311.232ZM312.736 163.242H314.609C316.065 163.249 316.674 162.429 316.674 161.314C316.674 160.193 316.065 159.394 314.609 159.387H312.736V163.242ZM319.654 168V160.576H321.062V161.752H321.145C321.418 160.959 322.163 160.46 323.031 160.467C323.209 160.46 323.496 160.48 323.646 160.494V161.889C323.523 161.861 323.182 161.8 322.881 161.807C321.869 161.8 321.117 162.504 321.117 163.475V168H319.654ZM327.639 168.15C325.533 168.15 324.159 166.619 324.166 164.322C324.159 162.012 325.533 160.48 327.639 160.48C329.73 160.48 331.098 162.012 331.098 164.322C331.098 166.619 329.73 168.15 327.639 168.15ZM325.629 164.322C325.629 165.737 326.278 166.934 327.639 166.934C328.979 166.934 329.621 165.737 329.621 164.322C329.621 162.9 328.979 161.69 327.639 161.684C326.278 161.69 325.629 162.9 325.629 164.322ZM335.309 168.15C333.518 168.144 332.205 166.701 332.205 164.309C332.205 161.889 333.538 160.48 335.322 160.48C336.703 160.48 337.202 161.314 337.469 161.779H337.537V158.102H339V168H337.578V166.838H337.469C337.195 167.323 336.662 168.144 335.309 168.15ZM333.695 164.281C333.688 165.771 334.358 166.899 335.637 166.906C336.881 166.899 337.578 165.84 337.578 164.281C337.578 162.736 336.895 161.718 335.637 161.725C334.345 161.718 333.688 162.818 333.695 164.281ZM345.617 164.91V160.576H347.066V168H345.645V166.715H345.562C345.221 167.508 344.462 168.096 343.348 168.096C341.912 168.096 340.9 167.132 340.9 165.293V160.576H342.363V165.115C342.363 166.127 342.979 166.77 343.867 166.77C344.681 166.77 345.617 166.175 345.617 164.91ZM351.988 168.15C349.821 168.15 348.509 166.558 348.516 164.322C348.509 162.06 349.869 160.48 351.961 160.48C353.656 160.48 354.88 161.479 355.037 162.982H353.615C353.465 162.285 352.911 161.704 351.988 161.697C350.785 161.704 349.979 162.702 349.979 164.281C349.979 165.908 350.765 166.913 351.988 166.906C352.815 166.913 353.431 166.448 353.615 165.648H355.037C354.88 167.091 353.738 168.15 351.988 168.15ZM359.891 160.576V161.738H358.373V165.812C358.38 166.653 358.79 166.804 359.262 166.811C359.474 166.811 359.795 166.79 360 166.77V168.041C359.802 168.068 359.487 168.096 359.084 168.096C357.942 168.096 356.91 167.467 356.924 166.113V161.738H355.83V160.576H356.924V158.799H358.373V160.576H359.891ZM374.451 156.926V165.826H373.152V156.926H374.451ZM364.539 160.781C364.546 159.011 365.954 157.753 367.807 157.746C369.652 157.753 371.061 159.011 371.061 160.781C371.061 162.579 369.652 163.83 367.807 163.83C365.954 163.83 364.546 162.579 364.539 160.781ZM365.811 160.781C365.804 161.937 366.665 162.695 367.807 162.695C368.928 162.695 369.789 161.937 369.789 160.781C369.789 159.653 368.928 158.881 367.807 158.881C366.665 158.881 365.804 159.653 365.811 160.781ZM366.439 168.902V164.924H367.752V167.85H374.82V168.902H366.439ZM387.562 162.682V163.734H376.393V162.682H387.562ZM376.98 161.014C379.202 160.774 380.959 159.776 381.103 158.58H377.418V157.514H386.564V158.58H382.839C382.989 159.77 384.719 160.774 386.988 161.014L386.523 162.039C384.397 161.793 382.641 160.897 381.978 159.605C381.301 160.897 379.558 161.793 377.432 162.039L376.98 161.014ZM377.719 166.92C377.719 165.498 379.312 164.678 381.971 164.678C384.609 164.678 386.188 165.498 386.195 166.92C386.188 168.342 384.609 169.142 381.971 169.135C379.312 169.142 377.719 168.342 377.719 166.92ZM379.031 166.92C379.024 167.692 380.098 168.116 381.971 168.109C383.816 168.116 384.896 167.692 384.896 166.92C384.896 166.127 383.816 165.703 381.971 165.689C380.098 165.703 379.024 166.127 379.031 166.92Z" fill="#F4F8FF"/>
<rect x="504.5" y="0.5" width="327" height="259" rx="15.5" fill="#4D51AC" stroke="#383957"/>
<path d="M593.585 46.736V53.816H597.041L596.633 56.096H593.585V68.024L590.921 68.432V47.12L593.585 46.736ZM589.889 59.6V61.688C587.825 62.072 585.305 62.36 582.473 62.36H577.601V48.176H580.313V60.296H582.473C584.849 60.296 587.729 60.008 589.889 59.6ZM616.053 46.688V57.68L613.413 58.088V47.096C614.301 46.952 615.165 46.808 616.053 46.688ZM604.389 47.048C607.389 47.048 609.813 48.752 609.813 51.656V52.784C609.813 55.688 607.389 57.416 604.389 57.416C601.413 57.416 598.965 55.688 598.965 52.784V51.656C598.965 48.752 601.413 47.048 604.389 47.048ZM604.389 49.112C602.805 49.112 601.605 50.12 601.605 51.776V52.664C601.605 54.296 602.805 55.328 604.389 55.328C605.997 55.328 607.149 54.296 607.149 52.664V51.776C607.149 50.144 605.997 49.112 604.389 49.112ZM616.269 68.48H602.493V62.768H613.341V61.04H602.445V59.048H616.053V64.688H605.181V66.512H616.653L616.269 68.48ZM628.537 56.984H622.849V51.176H634.009V49.472H622.729V47.432H636.721V53.216H625.561V54.944H637.249L636.841 56.984H631.393V59.24H640.105L639.721 61.304H619.489V59.24H628.537V56.984ZM636.937 68.288H622.849V62.624H625.561V66.224H637.345L636.937 68.288ZM647.933 47.24H650.453L644.381 66.656H641.861L647.933 47.24ZM654.652 52.28H657.772C657.724 51.272 657.652 50.264 657.58 49.256H655.444V47.24H669.916V49.256H667.804C667.732 50.264 667.66 51.272 667.612 52.28H670.9L670.492 54.296H664.276V56.024H672.988L672.604 58.064H652.372V56.024H661.42V54.296H654.652V52.28ZM665.14 49.256H660.244L660.46 52.28H664.948L665.14 49.256ZM669.916 68.48H655.732V63.056H666.892V61.52H655.684V59.552H669.604V64.952H658.444V66.536H670.324L669.916 68.48ZM692.648 46.712V68.048L689.984 68.48V47.12L692.648 46.712ZM683.528 54.44V50.288H676.136V48.224H686.216V56.48H678.848V60.68H681.416C683.576 60.68 686.84 60.512 688.928 60.056V62.12C686.864 62.48 683.696 62.744 681.128 62.744H676.136V54.44H683.528ZM712.379 47.144C713.195 47 714.035 46.88 714.851 46.76V68.048L712.379 68.456V47.144ZM708.179 67.76V56.48H705.995V58.52C705.995 61.592 704.315 63.392 701.411 63.392C698.531 63.392 696.827 61.592 696.827 58.52V52.928C696.827 49.856 698.531 48.056 701.411 48.056C704.315 48.056 705.995 49.856 705.995 52.928V54.32H708.179V47.456C708.995 47.336 709.811 47.216 710.627 47.072V67.352L708.179 67.76ZM701.411 50.144C699.923 50.144 699.347 51.2 699.347 53.048V58.4C699.347 60.248 699.923 61.304 701.411 61.304C702.923 61.304 703.475 60.248 703.475 58.4V53.648C703.475 51.464 703.067 50.144 701.411 50.144ZM730.071 52.64C731.703 54.104 734.919 56.624 736.983 58.088L735.399 59.768C733.239 58.304 730.143 56 728.247 54.32C726.351 56.024 723.495 58.232 721.023 59.864L719.463 58.16C721.599 56.648 724.599 54.296 726.279 52.76C726.663 52.4 726.831 51.824 726.831 51.32V48.176L729.615 47.792V51.224C729.615 51.752 729.687 52.304 730.071 52.64ZM738.519 63.248L738.135 65.336H717.903V63.248H738.519ZM758.155 46.712V68.024L755.491 68.456V56.072H752.035V53.96H755.491V47.144L758.155 46.712ZM746.467 62.84H741.547V48.176H751.411V50.264H744.259V54.392H750.811V56.456H744.259V60.752H746.779C748.699 60.752 751.627 60.632 753.643 60.2V62.288C751.651 62.672 748.915 62.84 746.467 62.84Z" fill="white"/>
<path d="M548.133 117.328C547.894 116.05 546.834 115.339 545.576 115.346C543.867 115.339 542.603 116.651 542.596 119.051C542.603 121.464 543.874 122.763 545.576 122.756C546.82 122.763 547.873 122.065 548.133 120.801L549.65 120.814C549.336 122.77 547.743 124.137 545.562 124.137C542.985 124.137 541.105 122.216 541.105 119.051C541.105 115.886 542.999 113.965 545.562 113.965C547.654 113.965 549.315 115.202 549.65 117.328H548.133ZM552.617 119.598V124H551.154V114.102H552.59V117.793H552.686C553.034 116.986 553.731 116.48 554.887 116.48C556.411 116.48 557.43 117.424 557.43 119.283V124H555.967V119.461C555.967 118.367 555.379 117.738 554.395 117.738C553.362 117.738 552.617 118.415 552.617 119.598ZM562.393 124.15C560.205 124.15 558.858 122.64 558.865 120.336C558.858 118.053 560.226 116.48 562.297 116.48C563.985 116.48 565.592 117.526 565.592 120.213V120.732H560.314C560.355 122.147 561.189 122.947 562.406 122.947C563.233 122.947 563.773 122.592 564.02 122.141H565.496C565.168 123.344 564.026 124.15 562.393 124.15ZM560.321 119.639H564.156C564.156 118.511 563.425 117.677 562.311 117.684C561.142 117.677 560.383 118.593 560.321 119.639ZM567.041 124V116.576H568.449V117.793H568.531C568.846 116.966 569.577 116.48 570.555 116.48C571.546 116.48 572.236 116.966 572.551 117.793H572.633C572.981 116.993 573.788 116.48 574.861 116.48C576.201 116.48 577.151 117.321 577.158 119.023V124H575.695V119.16C575.695 118.155 575.066 117.738 574.301 117.738C573.364 117.738 572.824 118.381 572.824 119.27V124H571.375V119.078C571.375 118.265 570.821 117.738 570.021 117.738C569.201 117.738 568.504 118.422 568.504 119.42V124H567.041ZM578.922 124V116.576H580.385V124H578.922ZM578.73 114.566C578.737 114.088 579.154 113.705 579.66 113.705C580.159 113.705 580.576 114.088 580.576 114.566C580.576 115.045 580.159 115.435 579.66 115.428C579.154 115.435 578.737 115.045 578.73 114.566ZM585.307 124.15C583.14 124.15 581.827 122.558 581.834 120.322C581.827 118.06 583.188 116.48 585.279 116.48C586.975 116.48 588.198 117.479 588.355 118.982H586.934C586.783 118.285 586.229 117.704 585.307 117.697C584.104 117.704 583.297 118.702 583.297 120.281C583.297 121.908 584.083 122.913 585.307 122.906C586.134 122.913 586.749 122.448 586.934 121.648H588.355C588.198 123.091 587.057 124.15 585.307 124.15ZM589.395 121.908C589.388 120.213 590.83 119.775 592.17 119.68C592.662 119.652 593.776 119.591 594.118 119.577L594.111 118.982C594.118 118.142 593.599 117.656 592.607 117.656C591.746 117.656 591.227 118.053 591.076 118.6H589.627C589.757 117.369 590.905 116.48 592.662 116.48C593.845 116.48 595.567 116.911 595.574 119.064V124H594.152V122.988H594.098C593.811 123.542 593.127 124.164 591.896 124.164C590.488 124.164 589.388 123.357 589.395 121.908ZM590.816 121.922C590.816 122.633 591.404 122.995 592.225 123.002C593.414 122.995 594.125 122.202 594.125 121.32L594.118 120.644C593.783 120.664 592.724 120.739 592.375 120.76C591.418 120.828 590.816 121.19 590.816 121.922ZM598.801 114.102V124H597.338V114.102H598.801ZM606.881 124.137C604.892 124.137 603.668 122.961 603.668 121.375C603.668 120.186 604.447 119.461 605.582 118.688C604.953 117.923 604.495 117.226 604.488 116.344C604.495 114.97 605.479 113.992 606.99 113.992C608.515 113.992 609.451 114.99 609.451 116.152C609.451 117.096 608.959 117.786 608.139 118.381L607.455 118.88L609.438 121.245C609.69 120.753 609.848 120.165 609.848 119.502H611.16C611.16 120.876 610.764 121.758 610.333 122.318L611.748 124H610.107L609.438 123.214C608.761 123.843 607.776 124.137 606.881 124.137ZM605.131 121.334C605.124 122.182 605.821 122.906 606.895 122.906C607.496 122.906 608.111 122.674 608.617 122.257L606.402 119.659L606.156 119.844C605.377 120.418 605.124 121.02 605.131 121.334ZM605.855 116.357C605.855 116.863 606.211 117.369 606.662 117.923L607.264 117.492C607.804 117.137 608.125 116.774 608.125 116.193C608.125 115.729 607.688 115.209 607.018 115.209C606.334 115.216 605.855 115.79 605.855 116.357ZM616.246 114.102H618.078L621.209 121.771H621.332L624.463 114.102H626.295V124H624.859V116.85H624.764L621.865 123.986H620.676L617.764 116.836H617.682V124H616.246V114.102ZM631.395 124.15C629.207 124.15 627.86 122.64 627.867 120.336C627.86 118.053 629.228 116.48 631.299 116.48C632.987 116.48 634.594 117.526 634.594 120.213V120.732H629.316C629.357 122.147 630.191 122.947 631.408 122.947C632.235 122.947 632.775 122.592 633.021 122.141H634.498C634.17 123.344 633.028 124.15 631.395 124.15ZM629.323 119.639H633.158C633.158 118.511 632.427 117.677 631.312 117.684C630.144 117.677 629.385 118.593 629.323 119.639ZM639.188 124.15C637.021 124.15 635.708 122.558 635.715 120.322C635.708 118.06 637.068 116.48 639.16 116.48C640.855 116.48 642.079 117.479 642.236 118.982H640.814C640.664 118.285 640.11 117.704 639.188 117.697C637.984 117.704 637.178 118.702 637.178 120.281C637.178 121.908 637.964 122.913 639.188 122.906C640.015 122.913 640.63 122.448 640.814 121.648H642.236C642.079 123.091 640.938 124.15 639.188 124.15ZM645.08 119.598V124H643.617V114.102H645.053V117.793H645.148C645.497 116.986 646.194 116.48 647.35 116.48C648.874 116.48 649.893 117.424 649.893 119.283V124H648.43V119.461C648.43 118.367 647.842 117.738 646.857 117.738C645.825 117.738 645.08 118.415 645.08 119.598ZM651.314 121.908C651.308 120.213 652.75 119.775 654.09 119.68C654.582 119.652 655.696 119.591 656.038 119.577L656.031 118.982C656.038 118.142 655.519 117.656 654.527 117.656C653.666 117.656 653.146 118.053 652.996 118.6H651.547C651.677 117.369 652.825 116.48 654.582 116.48C655.765 116.48 657.487 116.911 657.494 119.064V124H656.072V122.988H656.018C655.73 123.542 655.047 124.164 653.816 124.164C652.408 124.164 651.308 123.357 651.314 121.908ZM652.736 121.922C652.736 122.633 653.324 122.995 654.145 123.002C655.334 122.995 656.045 122.202 656.045 121.32L656.038 120.644C655.703 120.664 654.644 120.739 654.295 120.76C653.338 120.828 652.736 121.19 652.736 121.922ZM660.721 119.598V124H659.258V116.576H660.666V117.793H660.748C661.097 116.993 661.828 116.48 662.936 116.48C664.46 116.48 665.472 117.444 665.465 119.283V124H664.016V119.461C664.009 118.381 663.428 117.738 662.443 117.738C661.438 117.738 660.721 118.415 660.721 119.598ZM667.242 124V116.576H668.705V124H667.242ZM667.051 114.566C667.058 114.088 667.475 113.705 667.98 113.705C668.479 113.705 668.896 114.088 668.896 114.566C668.896 115.045 668.479 115.435 667.98 115.428C667.475 115.435 667.058 115.045 667.051 114.566ZM673.627 124.15C671.46 124.15 670.147 122.558 670.154 120.322C670.147 118.06 671.508 116.48 673.6 116.48C675.295 116.48 676.519 117.479 676.676 118.982H675.254C675.104 118.285 674.55 117.704 673.627 117.697C672.424 117.704 671.617 118.702 671.617 120.281C671.617 121.908 672.403 122.913 673.627 122.906C674.454 122.913 675.069 122.448 675.254 121.648H676.676C676.519 123.091 675.377 124.15 673.627 124.15ZM677.715 121.908C677.708 120.213 679.15 119.775 680.49 119.68C680.982 119.652 682.097 119.591 682.438 119.577L682.432 118.982C682.438 118.142 681.919 117.656 680.928 117.656C680.066 117.656 679.547 118.053 679.396 118.6H677.947C678.077 117.369 679.226 116.48 680.982 116.48C682.165 116.48 683.888 116.911 683.895 119.064V124H682.473V122.988H682.418C682.131 123.542 681.447 124.164 680.217 124.164C678.809 124.164 677.708 123.357 677.715 121.908ZM679.137 121.922C679.137 122.633 679.725 122.995 680.545 123.002C681.734 122.995 682.445 122.202 682.445 121.32L682.438 120.644C682.104 120.664 681.044 120.739 680.695 120.76C679.738 120.828 679.137 121.19 679.137 121.922ZM687.121 114.102V124H685.658V114.102H687.121ZM692.439 124V114.102H695.967C698.271 114.102 699.398 115.38 699.398 117.205C699.398 118.538 698.797 119.543 697.594 120.001L699.781 124H698.072L696.062 120.268H695.967H693.943V124H692.439ZM693.943 118.969H695.816C697.272 118.962 697.881 118.319 697.881 117.205C697.881 116.091 697.272 115.394 695.816 115.387H693.943V118.969ZM704.047 124.15C701.859 124.15 700.513 122.64 700.52 120.336C700.513 118.053 701.88 116.48 703.951 116.48C705.64 116.48 707.246 117.526 707.246 120.213V120.732H701.969C702.01 122.147 702.844 122.947 704.061 122.947C704.888 122.947 705.428 122.592 705.674 122.141H707.15C706.822 123.344 705.681 124.15 704.047 124.15ZM701.976 119.639H705.811C705.811 118.511 705.079 117.677 703.965 117.684C702.796 117.677 702.037 118.593 701.976 119.639ZM711.84 124.15C709.673 124.15 708.36 122.558 708.367 120.322C708.36 118.06 709.721 116.48 711.812 116.48C713.508 116.48 714.731 117.479 714.889 118.982H713.467C713.316 118.285 712.763 117.704 711.84 117.697C710.637 117.704 709.83 118.702 709.83 120.281C709.83 121.908 710.616 122.913 711.84 122.906C712.667 122.913 713.282 122.448 713.467 121.648H714.889C714.731 123.091 713.59 124.15 711.84 124.15ZM717.172 126.789C716.871 126.782 716.577 126.775 716.393 126.748V125.531C716.557 125.545 716.844 125.552 717.049 125.559C717.5 125.552 717.876 125.524 718.225 124.588L718.402 124.096L715.682 116.576H717.24L719.113 122.332H719.195L721.068 116.576H722.641L719.578 124.984C719.147 126.16 718.396 126.782 717.172 126.789ZM726.715 124.15C724.548 124.15 723.235 122.558 723.242 120.322C723.235 118.06 724.596 116.48 726.688 116.48C728.383 116.48 729.606 117.479 729.764 118.982H728.342C728.191 118.285 727.638 117.704 726.715 117.697C725.512 117.704 724.705 118.702 724.705 120.281C724.705 121.908 725.491 122.913 726.715 122.906C727.542 122.913 728.157 122.448 728.342 121.648H729.764C729.606 123.091 728.465 124.15 726.715 124.15ZM732.607 114.102V124H731.145V114.102H732.607ZM737.584 124.15C735.396 124.15 734.05 122.64 734.057 120.336C734.05 118.053 735.417 116.48 737.488 116.48C739.177 116.48 740.783 117.526 740.783 120.213V120.732H735.506C735.547 122.147 736.381 122.947 737.598 122.947C738.425 122.947 738.965 122.592 739.211 122.141H740.688C740.359 123.344 739.218 124.15 737.584 124.15ZM735.513 119.639H739.348C739.348 118.511 738.616 117.677 737.502 117.684C736.333 117.677 735.574 118.593 735.513 119.639ZM755.398 112.912V125.162H754.086V112.912H755.398ZM745.336 121.881C748.59 120.329 750.183 118.121 750.436 115.264H745.924V114.225H751.748C751.748 117.813 750.224 120.917 746.02 122.934L745.336 121.881ZM763.561 113.377C763.567 114.785 765.509 115.968 767.895 116.234L767.443 117.219C765.434 116.973 763.677 116.125 762.891 114.874C762.098 116.125 760.341 116.973 758.352 117.219L757.9 116.234C760.293 115.968 762.228 114.785 762.234 113.377V112.967H763.561V113.377ZM757.312 118.969V117.93H768.482V118.969H763.533V120.062H767.074V122.961H759.938V124.041H767.416V125.039H758.666V122.018H765.789V121.061H758.652V120.062H762.234V118.969H757.312ZM783.316 112.912V125.162H782.072V118.805H780.555V124.574H779.338V113.24H780.555V117.752H782.072V112.912H783.316ZM772.789 121.662C775.51 120.117 776.651 118.032 776.856 115.537H773.309V114.471H778.121C778.114 117.69 777.048 120.589 773.541 122.564L772.789 121.662ZM786.68 113.432V115.1H789.893V113.432H791.178V118.777H785.408V113.432H786.68ZM786.639 120.773V119.748H794.555V122.838H787.938V124H794.979V125.039H786.666V121.881H793.27V120.773H786.639ZM786.68 117.738H789.893V116.098H786.68V117.738ZM793.256 119.215V112.912H794.555V115.482H796.332V116.535H794.555V119.215H793.256ZM598.896 146V136.102H602.424C604.728 136.102 605.855 137.482 605.855 139.314C605.855 141.14 604.721 142.527 602.424 142.527H600.4V146H598.896ZM600.4 141.242H602.273C603.729 141.249 604.338 140.429 604.338 139.314C604.338 138.193 603.729 137.394 602.273 137.387H600.4V141.242ZM607.441 146V136.102H611.064C613.177 136.102 614.195 137.229 614.195 138.699C614.195 139.937 613.437 140.559 612.527 140.791V140.887C613.512 140.941 614.578 141.803 614.578 143.334C614.578 144.852 613.539 146 611.229 146H607.441ZM608.945 144.715H611.092C612.514 144.708 613.088 144.086 613.088 143.266C613.088 142.315 612.336 141.557 611.146 141.557H608.945V144.715ZM608.945 140.381H610.941C611.939 140.374 612.719 139.772 612.719 138.822C612.719 138.002 612.151 137.387 610.969 137.387H608.945V140.381ZM617.039 146H615.439L618.994 136.102H620.73L624.299 146H622.699L621.797 143.389H617.941L617.039 146ZM618.372 142.131H621.359L619.896 137.906H619.828L618.372 142.131ZM623.875 137.4V136.102H631.545V137.4H628.469V146H626.965V137.4H623.875ZM641.607 142.541C644.13 142.541 645.668 143.389 645.668 144.838C645.668 146.308 644.13 147.155 641.607 147.162C639.058 147.155 637.492 146.308 637.492 144.838C637.492 143.389 639.058 142.541 641.607 142.541ZM636.412 141.365V135.678H637.684V137.441H640.896V135.678H642.182V141.365H636.412ZM637.684 140.326H640.896V138.467H637.684V140.326ZM638.791 144.838C638.784 145.658 639.837 146.123 641.607 146.123C643.364 146.123 644.403 145.658 644.396 144.838C644.403 144.024 643.364 143.566 641.607 143.566C639.837 143.566 638.784 144.024 638.791 144.838ZM644.26 142.227V134.912H645.559V137.906H647.336V139.014H645.559V142.227H644.26ZM652.285 138.029C652.271 140.196 653.536 142.418 655.361 143.307L654.555 144.346C653.222 143.648 652.189 142.281 651.649 140.647C651.103 142.384 650.029 143.854 648.635 144.578L647.828 143.525C649.708 142.623 650.979 140.271 650.986 138.029V135.938H652.285V138.029ZM656.277 147.162V134.912H657.576V139.793H659.545V140.9H657.576V147.162H656.277ZM670.318 134.912V147.162H669.006V134.912H670.318ZM660.256 143.881C663.51 142.329 665.103 140.121 665.355 137.264H660.844V136.225H666.668C666.668 139.813 665.144 142.917 660.939 144.934L660.256 143.881ZM678.48 135.377C678.487 136.785 680.429 137.968 682.814 138.234L682.363 139.219C680.354 138.973 678.597 138.125 677.811 136.874C677.018 138.125 675.261 138.973 673.271 139.219L672.82 138.234C675.213 137.968 677.147 136.785 677.154 135.377V134.967H678.48V135.377ZM672.232 140.969V139.93H683.402V140.969H678.453V142.062H681.994V144.961H674.857V146.041H682.336V147.039H673.586V144.018H680.709V143.061H673.572V142.062H677.154V140.969H672.232ZM697.936 134.912V147.162H696.623V134.912H697.936ZM687.873 143.881C691.127 142.329 692.72 140.121 692.973 137.264H688.461V136.225H694.285C694.285 139.813 692.761 142.917 688.557 144.934L687.873 143.881ZM711.061 144.592V145.658H699.85V144.592H704.799V141.926H706.084V144.592H711.061ZM700.396 141.338C702.912 140.969 704.724 139.547 704.785 137.824H700.861V136.771H704.799V135.131H706.084V136.771H710.021V137.824H706.098C706.159 139.547 707.971 140.969 710.486 141.338L709.994 142.35C707.943 142.028 706.234 141.058 705.435 139.629C704.642 141.058 702.939 142.028 700.889 142.35L700.396 141.338ZM725.58 134.926V143.949H724.281V140.764H721.239C720.665 141.454 719.776 141.871 718.758 141.871C716.912 141.871 715.538 140.579 715.545 138.781C715.538 136.97 716.912 135.678 718.758 135.664C719.77 135.671 720.651 136.088 721.226 136.771H724.281V134.926H725.58ZM716.789 138.781C716.782 139.937 717.609 140.729 718.758 140.723C719.858 140.729 720.699 139.937 720.699 138.781C720.699 137.626 719.858 136.833 718.758 136.826C717.609 136.833 716.782 137.626 716.789 138.781ZM717.623 146.902V143.006H718.922V145.85H725.908V146.902H717.623ZM721.8 137.824C721.896 138.125 721.943 138.439 721.943 138.781C721.943 139.109 721.896 139.424 721.807 139.711H724.281V137.824H721.8ZM737.215 135.678V136.758C737.215 137.92 737.215 139.185 736.873 140.928H738.637V141.994H733.674V147.176H732.361V141.994H727.467V140.928H735.561C735.923 139.178 735.923 137.899 735.93 136.758V136.744H728.834V135.678H737.215ZM566.781 159.264C566.781 160.604 567.636 161.957 569.229 162.559L568.545 163.557C567.403 163.119 566.604 162.285 566.166 161.28C565.715 162.415 564.881 163.399 563.691 163.912L562.98 162.9C564.635 162.183 565.523 160.624 565.523 159.264V157.678H566.781V159.264ZM565.236 166.92C565.223 165.525 566.815 164.698 569.379 164.691C571.936 164.698 573.542 165.525 573.549 166.92C573.542 168.314 571.936 169.142 569.379 169.135C566.815 169.142 565.223 168.314 565.236 166.92ZM566.521 166.92C566.508 167.699 567.595 168.15 569.379 168.137C571.156 168.15 572.243 167.699 572.25 166.92C572.243 166.134 571.156 165.683 569.379 165.689C567.595 165.683 566.508 166.134 566.521 166.92ZM569.611 164.076V157.145H570.814V160.111H572.25V156.926H573.48V164.459H572.25V161.178H570.814V164.076H569.611ZM586.332 163.324V164.363H581.465V166.619H580.18V164.363H575.121V163.324H586.332ZM576.516 168.902V165.553H577.801V167.85H585.088V168.902H576.516ZM576.598 162.244V157.295H577.883V158.785H583.557V157.295H584.855V162.244H576.598ZM577.883 161.205H583.557V159.756H577.883V161.205ZM593.291 158.936V159.988H587.207V158.936H589.613V157.268H590.898V158.936H593.291ZM587.604 163.543C587.597 161.896 588.718 160.727 590.256 160.727C591.808 160.727 592.915 161.896 592.922 163.543C592.915 165.218 591.808 166.394 590.256 166.387C588.718 166.394 587.597 165.218 587.604 163.543ZM588.752 163.543C588.745 164.582 589.374 165.279 590.256 165.279C591.138 165.279 591.773 164.582 591.773 163.543C591.773 162.524 591.138 161.813 590.256 161.807C589.374 161.813 588.745 162.524 588.752 163.543ZM593.852 168.588V157.186H595.082V162.012H596.49V156.912H597.721V169.162H596.49V163.078H595.082V168.588H593.852ZM603.682 158.744C603.675 160.46 604.789 161.991 606.648 162.6L605.938 163.611C604.591 163.119 603.6 162.176 603.066 160.945C602.54 162.347 601.474 163.447 599.99 163.98L599.293 162.941C601.248 162.271 602.383 160.638 602.396 158.799V157.596H603.682V158.744ZM601.303 166.824C601.296 165.341 602.868 164.479 605.445 164.486C608.009 164.479 609.581 165.341 609.588 166.824C609.581 168.301 608.009 169.142 605.445 169.135C602.868 169.142 601.296 168.301 601.303 166.824ZM602.588 166.824C602.581 167.638 603.647 168.116 605.445 168.109C607.229 168.116 608.296 167.638 608.303 166.824C608.296 165.983 607.229 165.498 605.445 165.498C603.647 165.498 602.581 165.983 602.588 166.824ZM605.664 160.467V159.4H608.248V156.912H609.547V164.145H608.248V160.467H605.664ZM615.412 158.102H617.244L620.375 165.771H620.498L623.629 158.102H625.461V168H624.025V160.85H623.93L621.031 167.986H619.842L616.93 160.836H616.848V168H615.412V158.102ZM627.484 168V158.102H631.107C633.22 158.102 634.238 159.229 634.238 160.699C634.238 161.937 633.479 162.559 632.57 162.791V162.887C633.555 162.941 634.621 163.803 634.621 165.334C634.621 166.852 633.582 168 631.271 168H627.484ZM628.988 166.715H631.135C632.557 166.708 633.131 166.086 633.131 165.266C633.131 164.315 632.379 163.557 631.189 163.557H628.988V166.715ZM628.988 162.381H630.984C631.982 162.374 632.762 161.772 632.762 160.822C632.762 160.002 632.194 159.387 631.012 159.387H628.988V162.381ZM650.262 164.09V165.115H639.092V164.09H644.027V163.201C641.867 163.105 640.644 162.456 640.65 161.342C640.644 160.125 642.113 159.482 644.67 159.482C647.22 159.482 648.696 160.125 648.689 161.342C648.696 162.449 647.473 163.099 645.326 163.201V164.09H650.262ZM639.666 159.004V158.006H644.027V156.789H645.326V158.006H649.633V159.004H639.666ZM640.5 168.902V165.84H641.812V167.863H649.004V168.902H640.5ZM641.963 161.342C641.956 161.957 642.886 162.271 644.67 162.271C646.44 162.271 647.377 161.957 647.377 161.342C647.377 160.727 646.44 160.412 644.67 160.412C642.886 160.412 641.956 160.727 641.963 161.342ZM661.35 156.912V163.488H660.051V156.912H661.35ZM651.438 160.316C651.444 158.635 652.825 157.466 654.705 157.473C656.578 157.466 657.959 158.635 657.959 160.316C657.959 161.991 656.578 163.16 654.705 163.146C652.825 163.16 651.444 161.991 651.438 160.316ZM652.709 160.316C652.702 161.376 653.543 162.08 654.705 162.08C655.854 162.08 656.688 161.376 656.688 160.316C656.688 159.271 655.854 158.56 654.705 158.566C653.543 158.56 652.702 159.271 652.709 160.316ZM653.338 169.012V164.076H654.609V165.457H660.064V164.076H661.35V169.012H653.338ZM654.609 167.945H660.064V166.482H654.609V167.945ZM667.27 168V158.102H670.797C673.101 158.102 674.229 159.482 674.229 161.314C674.229 163.14 673.094 164.527 670.797 164.527H668.773V168H667.27ZM668.773 163.242H670.646C672.103 163.249 672.711 162.429 672.711 161.314C672.711 160.193 672.103 159.394 670.646 159.387H668.773V163.242ZM675.814 168V158.102H682.021V159.4H677.318V162.395H681.693V163.68H677.318V166.701H682.076V168H675.814ZM683.375 159.4V158.102H691.045V159.4H687.969V168H686.465V159.4H683.375ZM701.107 164.541C703.63 164.541 705.168 165.389 705.168 166.838C705.168 168.308 703.63 169.155 701.107 169.162C698.558 169.155 696.992 168.308 696.992 166.838C696.992 165.389 698.558 164.541 701.107 164.541ZM695.912 163.365V157.678H697.184V159.441H700.396V157.678H701.682V163.365H695.912ZM697.184 162.326H700.396V160.467H697.184V162.326ZM698.291 166.838C698.284 167.658 699.337 168.123 701.107 168.123C702.864 168.123 703.903 167.658 703.896 166.838C703.903 166.024 702.864 165.566 701.107 165.566C699.337 165.566 698.284 166.024 698.291 166.838ZM703.76 164.227V156.912H705.059V159.906H706.836V161.014H705.059V164.227H703.76ZM711.785 160.029C711.771 162.196 713.036 164.418 714.861 165.307L714.055 166.346C712.722 165.648 711.689 164.281 711.149 162.647C710.603 164.384 709.529 165.854 708.135 166.578L707.328 165.525C709.208 164.623 710.479 162.271 710.486 160.029V157.938H711.785V160.029ZM715.777 169.162V156.912H717.076V161.793H719.045V162.9H717.076V169.162H715.777ZM733.236 156.912V169.162H731.924V156.912H733.236ZM723.174 165.881C726.428 164.329 728.021 162.121 728.273 159.264H723.762V158.225H729.586C729.586 161.813 728.062 164.917 723.857 166.934L723.174 165.881ZM741.398 157.377C741.405 158.785 743.347 159.968 745.732 160.234L745.281 161.219C743.271 160.973 741.515 160.125 740.729 158.874C739.936 160.125 738.179 160.973 736.189 161.219L735.738 160.234C738.131 159.968 740.065 158.785 740.072 157.377V156.967H741.398V157.377ZM735.15 162.969V161.93H746.32V162.969H741.371V164.062H744.912V166.961H737.775V168.041H745.254V169.039H736.504V166.018H743.627V165.061H736.49V164.062H740.072V162.969H735.15ZM761.154 156.912V169.162H759.91V162.805H758.393V168.574H757.176V157.24H758.393V161.752H759.91V156.912H761.154ZM750.627 165.662C753.348 164.117 754.489 162.032 754.694 159.537H751.146V158.471H755.959C755.952 161.69 754.886 164.589 751.379 166.564L750.627 165.662ZM764.518 157.432V159.1H767.73V157.432H769.016V162.777H763.246V157.432H764.518ZM764.477 164.773V163.748H772.393V166.838H765.775V168H772.816V169.039H764.504V165.881H771.107V164.773H764.477ZM764.518 161.738H767.73V160.098H764.518V161.738ZM771.094 163.215V156.912H772.393V159.482H774.17V160.535H772.393V163.215H771.094ZM621.257 178.912V191.189H619.958V178.912H621.257ZM611.769 181.072V180.02H617.511V184.49H613.108V187.17C615.098 187.163 616.827 187.067 618.878 186.732L619.001 187.799C616.834 188.161 614.988 188.243 612.821 188.25H611.782V183.451H616.185V181.072H611.769ZM633.63 178.926V188.1H632.399V178.926H633.63ZM623.157 185.365C624.784 184.668 625.639 183.171 625.632 181.715V181.1H623.458V180.033H628.94V181.1H626.89V181.715C626.89 183.062 627.703 184.449 629.255 185.078L628.599 186.104C627.484 185.639 626.712 184.791 626.288 183.779C625.851 184.914 625.037 185.864 623.854 186.363L623.157 185.365ZM625.509 190.902V187.006H626.794V189.85H633.985V190.902H625.509ZM628.284 183.328V182.275H629.993V179.172H631.224V187.799H629.993V183.328H628.284ZM648.819 179.227V180.211H647.042V182.344H648.765V183.314H644.923V184.367H649.872V185.393H638.702V184.367H643.624V183.314H639.782V182.344H641.519V180.211H639.728V179.227H648.819ZM640.042 187.211V186.268H648.464V189.029H641.327V190.055H648.806V191.039H640.056V188.113H647.179V187.211H640.042ZM642.804 182.344H645.743V180.211H642.804V182.344ZM660.974 178.912V191.189H659.675V178.912H660.974ZM651.485 181.072V180.02H657.228V184.49H652.825V187.17C654.814 187.163 656.544 187.067 658.595 186.732L658.718 187.799C656.551 188.161 654.705 188.243 652.538 188.25H651.499V183.451H655.901V181.072H651.485ZM673.442 178.912V191.162H672.198V178.912H673.442ZM663.038 184.203C663.038 181.551 664.077 179.89 665.677 179.896C667.167 179.89 668.172 181.305 668.322 183.602H669.71V179.145H670.954V190.561H669.71V184.654H668.329C668.213 187.047 667.194 188.53 665.677 188.523C664.077 188.53 663.038 186.862 663.038 184.203ZM664.241 184.203C664.241 186.151 664.795 187.3 665.677 187.293C666.579 187.3 667.14 186.151 667.14 184.203C667.14 182.248 666.579 181.106 665.677 181.113C664.795 181.106 664.241 182.248 664.241 184.203ZM681.222 180.648C681.222 182.645 683.348 184.531 685.706 184.955L685.104 186.035C683.143 185.611 681.345 184.326 680.552 182.604C679.745 184.319 677.947 185.598 675.985 186.035L675.411 184.955C677.735 184.518 679.848 182.645 679.854 180.648V179.719H681.222V180.648ZM675.001 189.549V188.469H686.212V189.549H675.001ZM697.313 178.912V191.189H696.028V184.504H693.595V183.438H696.028V178.912H697.313ZM687.661 188.291V180.006H693.39V181.059H688.974V183.438H692.87V184.477H688.974V187.211C691.024 187.211 692.446 187.149 694.073 186.869L694.21 187.922C692.426 188.209 690.888 188.284 688.618 188.291H687.661ZM713.104 178.912V191.162H711.86V184.805H710.343V190.574H709.126V179.24H710.343V183.752H711.86V178.912H713.104ZM702.577 187.662C705.298 186.117 706.439 184.032 706.645 181.537H703.097V180.471H707.909C707.902 183.69 706.836 186.589 703.329 188.564L702.577 187.662ZM716.468 179.432V181.1H719.681V179.432H720.966V184.777H715.196V179.432H716.468ZM716.427 186.773V185.748H724.343V188.838H717.726V190H724.767V191.039H716.454V187.881H723.058V186.773H716.427ZM716.468 183.738H719.681V182.098H716.468V183.738ZM723.044 185.215V178.912H724.343V181.482H726.12V182.535H724.343V185.215H723.044ZM593.94 205.232C593.571 204.063 592.676 203.339 591.37 203.346C589.702 203.339 588.424 204.651 588.417 207.051C588.424 209.443 589.688 210.763 591.438 210.756C593.018 210.763 594.063 209.758 594.091 208.172H591.657V206.928H595.554V208.049C595.554 210.558 593.831 212.137 591.425 212.137C588.745 212.137 586.927 210.188 586.927 207.051C586.927 203.893 588.8 201.965 591.356 201.965C593.496 201.965 595.15 203.298 595.485 205.232H593.94ZM597.29 212V202.102H600.817C603.121 202.102 604.249 203.38 604.249 205.205C604.249 206.538 603.647 207.543 602.444 208.001L604.632 212H602.923L600.913 208.268H600.817H598.794V212H597.29ZM598.794 206.969H600.667C602.123 206.962 602.731 206.319 602.731 205.205C602.731 204.091 602.123 203.394 600.667 203.387H598.794V206.969ZM611.304 204.713C611.208 203.79 610.401 203.264 609.267 203.264C608.057 203.264 607.291 203.886 607.284 204.727C607.284 205.663 608.303 206.032 609.089 206.217L610.046 206.477C611.311 206.784 612.896 207.475 612.903 209.266C612.896 210.94 611.563 212.164 609.226 212.164C607.011 212.164 605.616 211.057 605.521 209.252H607.024C607.113 210.332 608.07 210.845 609.226 210.852C610.49 210.845 611.406 210.209 611.413 209.238C611.406 208.377 610.586 208.028 609.54 207.748L608.364 207.434C606.771 206.996 605.787 206.189 605.78 204.809C605.787 203.1 607.305 201.965 609.308 201.965C611.317 201.965 612.719 203.113 612.767 204.713H611.304ZM616.157 211.057L615.063 214.83H613.901L614.626 211.057H616.157ZM630.116 207.051C630.116 210.216 628.216 212.137 625.659 212.137C623.082 212.137 621.188 210.209 621.188 207.051C621.188 203.886 623.082 201.965 625.659 201.965C628.216 201.965 630.116 203.886 630.116 207.051ZM622.679 207.051C622.686 209.457 623.95 210.763 625.659 210.756C627.354 210.763 628.619 209.457 628.626 207.051C628.619 204.645 627.354 203.339 625.659 203.346C623.95 203.339 622.686 204.645 622.679 207.051ZM631.812 212V202.102H638.019V203.4H633.315V206.395H637.69V207.68H633.315V210.701H638.073V212H631.812ZM639.864 212V202.102H641.368V206.818H641.491L645.634 202.102H647.521L643.528 206.559L647.534 212H645.716L642.53 207.584L641.368 208.924V212H639.864ZM656.858 207.051C656.858 210.216 654.958 212.137 652.401 212.137C649.824 212.137 647.931 210.209 647.931 207.051C647.931 203.886 649.824 201.965 652.401 201.965C654.958 201.965 656.858 203.886 656.858 207.051ZM649.421 207.051C649.428 209.457 650.692 210.763 652.401 210.756C654.097 210.763 655.361 209.457 655.368 207.051C655.361 204.645 654.097 203.339 652.401 203.346C650.692 203.339 649.428 204.645 649.421 207.051ZM662.806 206.422V207.68H658.417V206.422H662.806ZM663.394 203.4V202.102H671.063V203.4H667.987V212H666.483V203.4H663.394ZM672.595 212V202.102H678.802V203.4H674.099V206.395H678.474V207.68H674.099V210.701H678.856V212H672.595ZM681.7 202.102L684.052 205.957H684.134L686.499 202.102H688.235L685.146 207.051L688.263 212H686.499L684.134 208.186H684.052L681.673 212H679.923L683.081 207.051L679.937 202.102H681.7ZM691.202 211.057L690.108 214.83H688.946L689.671 211.057H691.202ZM705.161 207.051C705.161 210.216 703.261 212.137 700.704 212.137C698.127 212.137 696.233 210.209 696.233 207.051C696.233 203.886 698.127 201.965 700.704 201.965C703.261 201.965 705.161 203.886 705.161 207.051ZM697.724 207.051C697.73 209.457 698.995 210.763 700.704 210.756C702.399 210.763 703.664 209.457 703.671 207.051C703.664 204.645 702.399 203.339 700.704 203.346C698.995 203.339 697.73 204.645 697.724 207.051ZM706.856 212V202.102H710.479C712.592 202.102 713.61 203.229 713.61 204.699C713.61 205.937 712.852 206.559 711.942 206.791V206.887C712.927 206.941 713.993 207.803 713.993 209.334C713.993 210.852 712.954 212 710.644 212H706.856ZM708.36 210.715H710.507C711.929 210.708 712.503 210.086 712.503 209.266C712.503 208.315 711.751 207.557 710.562 207.557H708.36V210.715ZM708.36 206.381H710.356C711.354 206.374 712.134 205.772 712.134 204.822C712.134 204.002 711.566 203.387 710.384 203.387H708.36V206.381ZM715.606 212V202.102H719.134C721.438 202.102 722.565 203.482 722.565 205.314C722.565 207.14 721.431 208.527 719.134 208.527H717.11V212H715.606ZM717.11 207.242H718.983C720.439 207.249 721.048 206.429 721.048 205.314C721.048 204.193 720.439 203.394 718.983 203.387H717.11V207.242ZM737.167 200.926V209.826H735.868V200.926H737.167ZM727.255 204.781C727.262 203.011 728.67 201.753 730.522 201.746C732.368 201.753 733.776 203.011 733.776 204.781C733.776 206.579 732.368 207.83 730.522 207.83C728.67 207.83 727.262 206.579 727.255 204.781ZM728.526 204.781C728.52 205.937 729.381 206.695 730.522 206.695C731.644 206.695 732.505 205.937 732.505 204.781C732.505 203.653 731.644 202.881 730.522 202.881C729.381 202.881 728.52 203.653 728.526 204.781ZM729.155 212.902V208.924H730.468V211.85H737.536V212.902H729.155ZM750.278 206.682V207.734H739.108V206.682H750.278ZM739.696 205.014C741.918 204.774 743.675 203.776 743.818 202.58H740.134V201.514H749.28V202.58H745.555C745.705 203.77 747.435 204.774 749.704 205.014L749.239 206.039C747.113 205.793 745.356 204.897 744.693 203.605C744.017 204.897 742.273 205.793 740.147 206.039L739.696 205.014ZM740.435 210.92C740.435 209.498 742.027 208.678 744.687 208.678C747.325 208.678 748.904 209.498 748.911 210.92C748.904 212.342 747.325 213.142 744.687 213.135C742.027 213.142 740.435 212.342 740.435 210.92ZM741.747 210.92C741.74 211.692 742.813 212.116 744.687 212.109C746.532 212.116 747.612 211.692 747.612 210.92C747.612 210.127 746.532 209.703 744.687 209.689C742.813 209.703 741.74 210.127 741.747 210.92Z" fill="#F4F8FF"/>
<rect x="854.5" y="0.5" width="327" height="259" rx="15.5" fill="#4D51AC" stroke="#383957"/>
<path d="M988.421 46.736V59.408L985.757 59.816V47.12L988.421 46.736ZM982.517 49.904H978.629V51.56C978.629 52.064 978.701 52.664 979.037 53.024C980.549 54.704 982.085 56.12 983.861 57.68L982.181 59.288C980.549 57.872 978.725 56.216 977.285 54.752C975.821 56.36 973.901 58.232 972.149 59.792L970.397 58.256C972.245 56.576 973.997 54.944 975.365 53.192C975.677 52.784 975.893 52.208 975.893 51.704V49.904H971.597V47.816H982.925L982.517 49.904ZM974.645 60.728H988.421V68.384L985.709 68.792V62.768H974.645V60.728ZM995.193 47.336H1009.06V53.576L1006.35 54.08H995.193V47.336ZM997.905 52.064H1006.35V49.424H997.905V52.064ZM1000.88 57.752H991.833V55.712H1012.45L1012.06 57.752H1003.74V59.552H1009.06V64.952H997.905V66.536H1009.78L1009.38 68.48H995.193V63.056H1006.35V61.52H995.145V59.552H1000.88V57.752ZM1020.28 47.24H1022.8L1016.72 66.656H1014.2L1020.28 47.24ZM1043.12 60.44V67.928L1040.44 68.384H1029.56V60.44H1043.12ZM1032.28 66.32H1040.44V62.528H1032.28V66.32ZM1031.22 47.336C1034.22 47.336 1036.64 49.064 1036.64 51.968V53.552C1036.64 56.456 1034.22 58.16 1031.22 58.16C1028.24 58.16 1025.8 56.456 1025.8 53.552V51.968C1025.8 49.064 1028.24 47.336 1031.22 47.336ZM1031.22 49.424C1029.61 49.424 1028.44 50.432 1028.44 52.088V53.408C1028.44 55.04 1029.61 56.096 1031.22 56.096C1032.85 56.096 1033.98 55.064 1033.98 53.408V52.088C1033.98 50.432 1032.85 49.424 1031.22 49.424ZM1036.86 51.2V49.136H1040.48V47.12L1043.12 46.736V59.408L1040.48 59.816V56.216H1036.86V54.152H1040.48V51.2H1036.86ZM1062.78 60.104V54.248H1060.67V59.696C1059.86 59.84 1058.99 59.984 1058.18 60.104V47.456L1060.67 47.072V52.184H1062.78V47.144L1065.28 46.736V59.696C1064.44 59.84 1063.6 59.984 1062.78 60.104ZM1053.4 47.528V51.632C1053.4 52.136 1053.45 52.688 1053.74 53.12C1054.77 54.632 1056.11 56.288 1057.55 57.824L1055.8 59.336C1054.6 58.112 1053.26 56.576 1052.18 55.208C1050.98 56.744 1049.68 58.28 1048.24 59.816L1046.42 58.376C1048.12 56.528 1049.46 54.776 1050.47 53.24C1050.74 52.856 1050.81 52.256 1050.81 51.728V47.912C1051.67 47.768 1052.54 47.648 1053.4 47.528ZM1051.22 61.016H1065.28V68.36C1064.37 68.504 1063.5 68.648 1062.62 68.768V63.08H1051.22V61.016Z" fill="white"/>
<path d="M979.78 119.051C979.78 122.216 977.88 124.137 975.323 124.137C972.746 124.137 970.853 122.209 970.853 119.051C970.853 115.886 972.746 113.965 975.323 113.965C977.88 113.965 979.78 115.886 979.78 119.051ZM972.343 119.051C972.35 121.457 973.614 122.763 975.323 122.756C977.019 122.763 978.283 121.457 978.29 119.051C978.283 116.645 977.019 115.339 975.323 115.346C973.614 115.339 972.35 116.645 972.343 119.051ZM981.476 124V114.102H987.683V115.4H982.979V118.395H987.354V119.68H982.979V122.701H987.737V124H981.476ZM989.528 124V114.102H991.032V118.818H991.155L995.298 114.102H997.185L993.192 118.559L997.198 124H995.38L992.194 119.584L991.032 120.924V124H989.528ZM1006.52 119.051C1006.52 122.216 1004.62 124.137 1002.07 124.137C999.488 124.137 997.595 122.209 997.595 119.051C997.595 115.886 999.488 113.965 1002.07 113.965C1004.62 113.965 1006.52 115.886 1006.52 119.051ZM999.085 119.051C999.092 121.457 1000.36 122.763 1002.07 122.756C1003.76 122.763 1005.03 121.457 1005.03 119.051C1005.03 116.645 1003.76 115.339 1002.07 115.346C1000.36 115.339 999.092 116.645 999.085 119.051ZM1012.47 118.422V119.68H1008.08V118.422H1012.47ZM1013.06 115.4V114.102H1020.73V115.4H1017.65V124H1016.15V115.4H1013.06ZM1022.26 124V114.102H1028.47V115.4H1023.76V118.395H1028.14V119.68H1023.76V122.701H1028.52V124H1022.26ZM1031.36 114.102L1033.72 117.957H1033.8L1036.16 114.102H1037.9L1034.81 119.051L1037.93 124H1036.16L1033.8 120.186H1033.72L1031.34 124H1029.59L1032.75 119.051L1029.6 114.102H1031.36ZM1052.24 112.926V121.826H1050.94V112.926H1052.24ZM1042.33 116.781C1042.34 115.011 1043.74 113.753 1045.6 113.746C1047.44 113.753 1048.85 115.011 1048.85 116.781C1048.85 118.579 1047.44 119.83 1045.6 119.83C1043.74 119.83 1042.34 118.579 1042.33 116.781ZM1043.6 116.781C1043.59 117.937 1044.46 118.695 1045.6 118.695C1046.72 118.695 1047.58 117.937 1047.58 116.781C1047.58 115.653 1046.72 114.881 1045.6 114.881C1044.46 114.881 1043.59 115.653 1043.6 116.781ZM1044.23 124.902V120.924H1045.54V123.85H1052.61V124.902H1044.23ZM1065.35 118.682V119.734H1054.18V118.682H1065.35ZM1054.77 117.014C1056.99 116.774 1058.75 115.776 1058.89 114.58H1055.21V113.514H1064.35V114.58H1060.63C1060.78 115.77 1062.51 116.774 1064.78 117.014L1064.31 118.039C1062.19 117.793 1060.43 116.897 1059.77 115.605C1059.09 116.897 1057.35 117.793 1055.22 118.039L1054.77 117.014ZM1055.51 122.92C1055.51 121.498 1057.1 120.678 1059.76 120.678C1062.4 120.678 1063.98 121.498 1063.99 122.92C1063.98 124.342 1062.4 125.142 1059.76 125.135C1057.1 125.142 1055.51 124.342 1055.51 122.92ZM1056.82 122.92C1056.81 123.692 1057.89 124.116 1059.76 124.109C1061.61 124.116 1062.69 123.692 1062.69 122.92C1062.69 122.127 1061.61 121.703 1059.76 121.689C1057.89 121.703 1056.81 122.127 1056.82 122.92Z" fill="#F4F8FF"/>
</svg>
