<svg width="1046" height="664" viewBox="0 0 1046 664" fill="none" xmlns="http://www.w3.org/2000/svg">
<circle cx="523" cy="308" r="308" fill="#1B1B29"/>
<circle cx="523" cy="308" r="308" fill="#1B1B29"/>
<g style="mix-blend-mode:soft-light">
<circle cx="523" cy="308" r="308" fill="#F8AC66" fill-opacity="0.3"/>
</g>
<g style="mix-blend-mode:soft-light">
<circle cx="523" cy="308" r="263" fill="#F8AC66" fill-opacity="0.4"/>
</g>
<g style="mix-blend-mode:soft-light">
<circle cx="523" cy="308" r="213" fill="#F8AC66" fill-opacity="0.6"/>
</g>
<g style="mix-blend-mode:soft-light">
<circle cx="520" cy="305" r="159" fill="#F8AC66" fill-opacity="0.8"/>
</g>
<circle cx="523" cy="308" r="103" fill="#FF8D24"/>
<path d="M493.381 288.84V291.24C491.509 291.648 488.845 291.792 486.421 291.792H480.709V279.768H491.653V282.144H484.045V284.544H491.461V286.92H484.045V289.416H486.733C488.653 289.416 491.173 289.32 493.381 288.84ZM497.653 278.64V284.88H501.085L500.605 287.256H497.653V294.216L494.341 294.696V279.12L497.653 278.64ZM497.965 300.504H483.685V293.808H487.021V298.104H498.445L497.965 300.504ZM513.4 279.528V282.888C513.4 283.392 513.448 283.992 513.832 284.304C515.536 285.744 518.68 288.12 520.768 289.488L518.992 291.504C516.88 290.16 513.376 287.76 511.744 286.296C510.064 287.736 506.632 290.256 504.328 291.672L502.528 289.68C504.76 288.216 507.76 286.008 509.44 284.496C509.824 284.16 509.968 283.536 509.968 283.032V280.008L513.4 279.528ZM501.28 295.296H510.112V290.568H513.568V295.296H522.088L521.608 297.744H501.28V295.296ZM536.396 280.2L535.916 282.576H532.052V286.512C532.052 287.016 532.172 287.544 532.484 287.928C533.804 289.56 535.508 291.48 537.14 293.304L535.22 295.152C533.54 293.376 531.764 291.48 530.42 289.92C528.956 291.672 527.108 293.784 525.38 295.656L523.364 293.904C525.02 291.984 526.748 290.112 528.212 288.12C528.5 287.712 528.74 287.16 528.74 286.656V282.576H524.444V280.2H536.396ZM541.94 278.64V300.12L538.676 300.6V287.592H534.62V285.192H538.676V279.12L541.94 278.64ZM563.184 292.176V300L559.848 300.6H549.024V292.176H563.184ZM553.728 282.024H546.36V279.648H557.112V280.896C557.112 286.296 552.216 290.52 546.816 291.792L545.52 289.608C549.456 288.504 553.728 285.168 553.728 282.216V282.024ZM563.184 278.64V284.208H566.64L566.16 286.608H563.184V290.856L559.896 291.336V279.12L563.184 278.64ZM552.312 298.2H559.848V294.552H552.312V298.2ZM452.55 324.048C452.718 323.664 452.742 322.968 452.742 322.464V318.576H449.694V316.248H458.91L458.55 318.576H455.814V322.392C455.814 322.896 455.79 323.496 455.982 323.928C456.606 325.32 458.526 328.176 459.822 329.736L457.782 331.584C456.774 330.336 455.358 328.416 454.374 326.952C453.294 328.584 451.926 330.504 450.606 332.088L448.59 330.336C450.246 328.344 451.806 325.656 452.55 324.048ZM460.302 315.456L463.278 314.976V335.424L460.302 335.904V323.88H457.398V321.432H460.302V315.456ZM464.67 315.12L467.718 314.64V336.12L464.67 336.6V315.12ZM490.882 327H482.842V328.728H488.17V336L484.858 336.6H473.674V328.728H479.386V327H470.554V324.624H491.362L490.882 327ZM472.618 320.736H475.714L475.522 317.544H473.386V315.216H488.482V317.544H486.37L486.178 320.736H489.49L489.01 323.064H472.618V320.736ZM477.01 334.2H484.858V331.128H477.01V334.2ZM483.082 317.544H478.81L479.026 320.736H482.89L483.082 317.544ZM498.853 315.072H501.805L495.757 334.824H492.781L498.853 315.072ZM512.677 318.576H505.237V316.2H516.133V317.904C516.133 324.432 511.573 329.616 506.317 332.016L504.349 329.88C508.933 327.96 512.677 323.16 512.677 318.984V318.576ZM522.229 314.64V336.12L518.965 336.6V315.12L522.229 314.64ZM545.608 325.92H537.568V327.504H542.896V333.168H531.736V334.464H543.64L543.16 336.696H528.4V331.032H539.584V329.712H528.352V327.504H534.112V325.92H525.28V323.592H546.088L545.608 325.92ZM537.4 314.616V315.984C537.4 316.488 537.424 317.184 537.832 317.448C539.584 318.576 542.944 320.232 544.816 320.976L543.328 323.088C541.12 322.2 537.832 320.568 535.672 319.296C533.536 320.592 530.104 322.248 528.04 323.064L526.552 321.024C528.688 320.208 531.64 318.816 533.464 317.568C533.92 317.256 533.968 316.704 533.968 316.2V315.096L537.4 314.616ZM568.227 314.976V322.584H569.907V315.12L572.955 314.64V336.12L569.907 336.6V325.008H568.227V335.424L565.251 335.904V315.456L568.227 314.976ZM560.739 318.576H555.339V316.2H563.907V317.904C563.907 324.144 561.099 329.136 556.299 331.944L554.451 329.88C558.579 327.552 560.739 323.16 560.739 318.984V318.576ZM594.054 336.696H579.726V330.72H590.574V329.328H579.678V327.048H593.91V332.928H583.038V334.416H594.534L594.054 336.696ZM580.014 318.288H584.166V315.216H587.382V325.008L584.166 325.488H576.798V315.216H580.014V318.288ZM593.91 314.64V319.08H597.342L596.862 321.48H593.91V325.728L590.598 326.208V315.12L593.91 314.64ZM580.014 323.088H584.166V320.688H580.014V323.088Z" fill="white"/>
<g opacity="0.3">
<path d="M805 663V611C805 606.582 801.418 603 797 603H249C244.582 603 241 606.582 241 611V663" stroke="#C4C4C4" stroke-width="1.5" stroke-linecap="square" stroke-dasharray="4 4"/>
<path d="M523 600V414" stroke="#C4C4C4" stroke-width="1.5" stroke-linecap="square" stroke-dasharray="4 4"/>
</g>
<circle cx="140" cy="140" r="140" transform="matrix(-1 0 0 1 280 168)" fill="url(#paint0_linear_4350_51620)"/>
<path d="M76.6974 288.644V304H73.6174V297.466H67.0394V304H63.9594V288.644H67.0394V294.958H73.6174V288.644H76.6974ZM91.3889 291.812L83.8429 309.764H80.5649L83.2049 303.692L78.3209 291.812H81.7749L84.9209 300.326L88.1109 291.812H91.3889ZM98.4613 304.198C97.2879 304.198 96.2319 303.941 95.2933 303.428C94.3546 302.9 93.6139 302.159 93.0713 301.206C92.5433 300.253 92.2793 299.153 92.2793 297.906C92.2793 296.659 92.5506 295.559 93.0933 294.606C93.6506 293.653 94.4059 292.919 95.3593 292.406C96.3126 291.878 97.3759 291.614 98.5493 291.614C99.7226 291.614 100.786 291.878 101.739 292.406C102.693 292.919 103.441 293.653 103.983 294.606C104.541 295.559 104.819 296.659 104.819 297.906C104.819 299.153 104.533 300.253 103.961 301.206C103.404 302.159 102.641 302.9 101.673 303.428C100.72 303.941 99.6493 304.198 98.4613 304.198ZM98.4613 301.514C99.0186 301.514 99.5393 301.382 100.023 301.118C100.522 300.839 100.918 300.429 101.211 299.886C101.505 299.343 101.651 298.683 101.651 297.906C101.651 296.747 101.343 295.86 100.727 295.244C100.126 294.613 99.3853 294.298 98.5053 294.298C97.6253 294.298 96.8846 294.613 96.2833 295.244C95.6966 295.86 95.4033 296.747 95.4033 297.906C95.4033 299.065 95.6893 299.959 96.2613 300.59C96.8479 301.206 97.5813 301.514 98.4613 301.514ZM111.743 304.198C110.745 304.198 109.851 304.022 109.059 303.67C108.267 303.303 107.636 302.812 107.167 302.196C106.712 301.58 106.463 300.898 106.419 300.15H109.521C109.579 300.619 109.807 301.008 110.203 301.316C110.613 301.624 111.119 301.778 111.721 301.778C112.307 301.778 112.762 301.661 113.085 301.426C113.422 301.191 113.591 300.891 113.591 300.524C113.591 300.128 113.385 299.835 112.975 299.644C112.579 299.439 111.941 299.219 111.061 298.984C110.151 298.764 109.403 298.537 108.817 298.302C108.245 298.067 107.746 297.708 107.321 297.224C106.91 296.74 106.705 296.087 106.705 295.266C106.705 294.591 106.895 293.975 107.277 293.418C107.673 292.861 108.23 292.421 108.949 292.098C109.682 291.775 110.54 291.614 111.523 291.614C112.975 291.614 114.133 291.981 114.999 292.714C115.864 293.433 116.341 294.408 116.429 295.64H113.481C113.437 295.156 113.231 294.775 112.865 294.496C112.513 294.203 112.036 294.056 111.435 294.056C110.877 294.056 110.445 294.159 110.137 294.364C109.843 294.569 109.697 294.855 109.697 295.222C109.697 295.633 109.902 295.948 110.313 296.168C110.723 296.373 111.361 296.586 112.227 296.806C113.107 297.026 113.833 297.253 114.405 297.488C114.977 297.723 115.468 298.089 115.879 298.588C116.304 299.072 116.524 299.717 116.539 300.524C116.539 301.228 116.341 301.859 115.945 302.416C115.563 302.973 115.006 303.413 114.273 303.736C113.554 304.044 112.711 304.198 111.743 304.198ZM130.573 291.812V304H127.471V302.46C127.075 302.988 126.554 303.406 125.909 303.714C125.278 304.007 124.589 304.154 123.841 304.154C122.887 304.154 122.044 303.956 121.311 303.56C120.577 303.149 119.998 302.555 119.573 301.778C119.162 300.986 118.957 300.047 118.957 298.962V291.812H122.037V298.522C122.037 299.49 122.279 300.238 122.763 300.766C123.247 301.279 123.907 301.536 124.743 301.536C125.593 301.536 126.261 301.279 126.745 300.766C127.229 300.238 127.471 299.49 127.471 298.522V291.812H130.573ZM140.366 291.636C141.818 291.636 142.991 292.098 143.886 293.022C144.78 293.931 145.228 295.207 145.228 296.85V304H142.148V297.268C142.148 296.3 141.906 295.559 141.422 295.046C140.938 294.518 140.278 294.254 139.442 294.254C138.591 294.254 137.916 294.518 137.418 295.046C136.934 295.559 136.692 296.3 136.692 297.268V304H133.612V291.812H136.692V293.33C137.102 292.802 137.623 292.391 138.254 292.098C138.899 291.79 139.603 291.636 140.366 291.636ZM152.931 291.614C153.84 291.614 154.639 291.797 155.329 292.164C156.018 292.516 156.561 292.978 156.957 293.55V291.812H160.059V304.088C160.059 305.217 159.831 306.222 159.377 307.102C158.922 307.997 158.24 308.701 157.331 309.214C156.421 309.742 155.321 310.006 154.031 310.006C152.3 310.006 150.877 309.603 149.763 308.796C148.663 307.989 148.039 306.889 147.893 305.496H150.951C151.112 306.053 151.457 306.493 151.985 306.816C152.527 307.153 153.18 307.322 153.943 307.322C154.837 307.322 155.563 307.051 156.121 306.508C156.678 305.98 156.957 305.173 156.957 304.088V302.196C156.561 302.768 156.011 303.245 155.307 303.626C154.617 304.007 153.825 304.198 152.931 304.198C151.904 304.198 150.965 303.934 150.115 303.406C149.264 302.878 148.589 302.137 148.091 301.184C147.607 300.216 147.365 299.109 147.365 297.862C147.365 296.63 147.607 295.537 148.091 294.584C148.589 293.631 149.257 292.897 150.093 292.384C150.943 291.871 151.889 291.614 152.931 291.614ZM156.957 297.906C156.957 297.158 156.81 296.52 156.517 295.992C156.223 295.449 155.827 295.039 155.329 294.76C154.83 294.467 154.295 294.32 153.723 294.32C153.151 294.32 152.623 294.459 152.139 294.738C151.655 295.017 151.259 295.427 150.951 295.97C150.657 296.498 150.511 297.129 150.511 297.862C150.511 298.595 150.657 299.241 150.951 299.798C151.259 300.341 151.655 300.759 152.139 301.052C152.637 301.345 153.165 301.492 153.723 301.492C154.295 301.492 154.83 301.353 155.329 301.074C155.827 300.781 156.223 300.37 156.517 299.842C156.81 299.299 156.957 298.654 156.957 297.906ZM188.835 288.644L184.545 304H180.915L178.033 293.066L175.019 304L171.411 304.022L167.275 288.644H170.575L173.281 300.568L176.405 288.644H179.837L182.785 300.502L185.513 288.644H188.835ZM190.054 297.862C190.054 296.63 190.296 295.537 190.78 294.584C191.279 293.631 191.946 292.897 192.782 292.384C193.633 291.871 194.579 291.614 195.62 291.614C196.529 291.614 197.321 291.797 197.996 292.164C198.685 292.531 199.235 292.993 199.646 293.55V291.812H202.748V304H199.646V302.218C199.25 302.79 198.7 303.267 197.996 303.648C197.307 304.015 196.507 304.198 195.598 304.198C194.571 304.198 193.633 303.934 192.782 303.406C191.946 302.878 191.279 302.137 190.78 301.184C190.296 300.216 190.054 299.109 190.054 297.862ZM199.646 297.906C199.646 297.158 199.499 296.52 199.206 295.992C198.913 295.449 198.517 295.039 198.018 294.76C197.519 294.467 196.984 294.32 196.412 294.32C195.84 294.32 195.312 294.459 194.828 294.738C194.344 295.017 193.948 295.427 193.64 295.97C193.347 296.498 193.2 297.129 193.2 297.862C193.2 298.595 193.347 299.241 193.64 299.798C193.948 300.341 194.344 300.759 194.828 301.052C195.327 301.345 195.855 301.492 196.412 301.492C196.984 301.492 197.519 301.353 198.018 301.074C198.517 300.781 198.913 300.37 199.206 299.842C199.499 299.299 199.646 298.654 199.646 297.906ZM217.416 291.812L209.87 309.764H206.592L209.232 303.692L204.348 291.812H207.802L210.948 300.326L214.138 291.812H217.416Z" fill="white"/>
<path d="M123.937 330.14C123.937 327.86 125.997 326.66 128.497 326.66C130.997 326.66 133.057 327.86 133.057 330.14V330.46C133.057 332.74 130.997 334 128.497 334C125.997 334 123.937 332.74 123.937 330.46V330.14ZM133.417 327.5H135.777V323.1L138.497 322.7V334L135.777 334.4V332.82H133.417V330.9H135.777V329.34H133.417V327.5ZM126.517 334.92H138.497V340.82L135.737 341.26V336.9H126.517V334.92ZM133.417 326.26H123.377V324.3H127.197V322.9L129.957 322.5V324.3H133.817L133.417 326.26ZM130.457 330.22C130.457 329.2 129.597 328.54 128.497 328.54C127.397 328.54 126.537 329.2 126.537 330.22V330.38C126.537 331.38 127.397 332.12 128.497 332.12C129.597 332.12 130.457 331.38 130.457 330.38V330.22ZM156.5 322.7V335.64L153.78 336.04V323.1L156.5 322.7ZM156.62 340.92H144.88V335.14H147.66V338.92H157.02L156.62 340.92ZM148 323.08V326.8C148 327.22 148.08 327.68 148.36 327.98C149.6 329.36 150.94 330.88 152.34 332.22L150.74 333.76C149.32 332.46 147.84 330.98 146.62 329.64C145.4 331.04 143.76 332.82 142.3 334.2L140.62 332.74C142.02 331.32 143.5 329.74 144.72 328.14C144.98 327.8 145.16 327.34 145.16 326.92V323.48L148 323.08Z" fill="white"/>
<circle cx="140" cy="140" r="140" transform="matrix(-1 0 0 1 1046 168)" fill="url(#paint1_linear_4350_51620)"/>
<path d="M854.695 289.644L849.063 305H845.323L839.691 289.644H842.991L847.215 301.854L851.417 289.644H854.695ZM859.621 289.644V305H856.541V289.644H859.621ZM867.966 305.154C866.896 305.154 865.928 304.971 865.062 304.604C864.212 304.237 863.537 303.709 863.038 303.02C862.54 302.331 862.283 301.517 862.268 300.578H865.568C865.612 301.209 865.832 301.707 866.228 302.074C866.639 302.441 867.196 302.624 867.9 302.624C868.619 302.624 869.184 302.455 869.594 302.118C870.005 301.766 870.21 301.311 870.21 300.754C870.21 300.299 870.071 299.925 869.792 299.632C869.514 299.339 869.162 299.111 868.736 298.95C868.326 298.774 867.754 298.583 867.02 298.378C866.023 298.085 865.209 297.799 864.578 297.52C863.962 297.227 863.427 296.794 862.972 296.222C862.532 295.635 862.312 294.858 862.312 293.89C862.312 292.981 862.54 292.189 862.994 291.514C863.449 290.839 864.087 290.326 864.908 289.974C865.73 289.607 866.668 289.424 867.724 289.424C869.308 289.424 870.592 289.813 871.574 290.59C872.572 291.353 873.122 292.423 873.224 293.802H869.836C869.807 293.274 869.58 292.841 869.154 292.504C868.744 292.152 868.194 291.976 867.504 291.976C866.903 291.976 866.419 292.13 866.052 292.438C865.7 292.746 865.524 293.193 865.524 293.78C865.524 294.191 865.656 294.535 865.92 294.814C866.199 295.078 866.536 295.298 866.932 295.474C867.343 295.635 867.915 295.826 868.648 296.046C869.646 296.339 870.46 296.633 871.09 296.926C871.721 297.219 872.264 297.659 872.718 298.246C873.173 298.833 873.4 299.603 873.4 300.556C873.4 301.377 873.188 302.14 872.762 302.844C872.337 303.548 871.714 304.113 870.892 304.538C870.071 304.949 869.096 305.154 867.966 305.154ZM879.151 289.644V305H876.071V289.644H879.151ZM889.322 305.154C887.884 305.154 886.564 304.817 885.362 304.142C884.159 303.467 883.206 302.536 882.502 301.348C881.798 300.145 881.446 298.789 881.446 297.278C881.446 295.782 881.798 294.44 882.502 293.252C883.206 292.049 884.159 291.111 885.362 290.436C886.564 289.761 887.884 289.424 889.322 289.424C890.774 289.424 892.094 289.761 893.282 290.436C894.484 291.111 895.43 292.049 896.12 293.252C896.824 294.44 897.176 295.782 897.176 297.278C897.176 298.789 896.824 300.145 896.12 301.348C895.43 302.536 894.484 303.467 893.282 304.142C892.079 304.817 890.759 305.154 889.322 305.154ZM889.322 302.404C890.246 302.404 891.06 302.199 891.764 301.788C892.468 301.363 893.018 300.761 893.414 299.984C893.81 299.207 894.008 298.305 894.008 297.278C894.008 296.251 893.81 295.357 893.414 294.594C893.018 293.817 892.468 293.223 891.764 292.812C891.06 292.401 890.246 292.196 889.322 292.196C888.398 292.196 887.576 292.401 886.858 292.812C886.154 293.223 885.604 293.817 885.208 294.594C884.812 295.357 884.614 296.251 884.614 297.278C884.614 298.305 884.812 299.207 885.208 299.984C885.604 300.761 886.154 301.363 886.858 301.788C887.576 302.199 888.398 302.404 889.322 302.404ZM912.601 305H909.521L902.547 294.462V305H899.467V289.622H902.547L909.521 300.182V289.622H912.601V305ZM921.503 301.524C922.911 300.351 924.033 299.375 924.869 298.598C925.705 297.806 926.402 296.985 926.959 296.134C927.516 295.283 927.795 294.447 927.795 293.626C927.795 292.878 927.619 292.291 927.267 291.866C926.915 291.441 926.372 291.228 925.639 291.228C924.906 291.228 924.341 291.477 923.945 291.976C923.549 292.46 923.344 293.127 923.329 293.978H920.337C920.396 292.218 920.916 290.883 921.899 289.974C922.896 289.065 924.158 288.61 925.683 288.61C927.355 288.61 928.638 289.057 929.533 289.952C930.428 290.832 930.875 291.998 930.875 293.45C930.875 294.594 930.567 295.687 929.951 296.728C929.335 297.769 928.631 298.679 927.839 299.456C927.047 300.219 926.013 301.143 924.737 302.228H931.227V304.78H920.359V302.492L921.503 301.524ZM933.168 296.772C933.168 294.235 933.623 292.247 934.532 290.81C935.456 289.373 936.981 288.654 939.108 288.654C941.235 288.654 942.753 289.373 943.662 290.81C944.586 292.247 945.048 294.235 945.048 296.772C945.048 299.324 944.586 301.326 943.662 302.778C942.753 304.23 941.235 304.956 939.108 304.956C936.981 304.956 935.456 304.23 934.532 302.778C933.623 301.326 933.168 299.324 933.168 296.772ZM942.012 296.772C942.012 295.687 941.939 294.777 941.792 294.044C941.66 293.296 941.381 292.687 940.956 292.218C940.545 291.749 939.929 291.514 939.108 291.514C938.287 291.514 937.663 291.749 937.238 292.218C936.827 292.687 936.549 293.296 936.402 294.044C936.27 294.777 936.204 295.687 936.204 296.772C936.204 297.887 936.27 298.825 936.402 299.588C936.534 300.336 936.813 300.945 937.238 301.414C937.663 301.869 938.287 302.096 939.108 302.096C939.929 302.096 940.553 301.869 940.978 301.414C941.403 300.945 941.682 300.336 941.814 299.588C941.946 298.825 942.012 297.887 942.012 296.772ZM947.435 293.186C947.508 291.719 948.021 290.59 948.975 289.798C949.943 288.991 951.211 288.588 952.781 288.588C953.851 288.588 954.768 288.779 955.531 289.16C956.293 289.527 956.865 290.033 957.247 290.678C957.643 291.309 957.841 292.027 957.841 292.834C957.841 293.758 957.599 294.543 957.115 295.188C956.645 295.819 956.081 296.244 955.421 296.464V296.552C956.271 296.816 956.931 297.285 957.401 297.96C957.885 298.635 958.127 299.5 958.127 300.556C958.127 301.436 957.921 302.221 957.511 302.91C957.115 303.599 956.521 304.142 955.729 304.538C954.951 304.919 954.013 305.11 952.913 305.11C951.255 305.11 949.906 304.692 948.865 303.856C947.823 303.02 947.273 301.788 947.215 300.16H950.207C950.236 300.879 950.478 301.458 950.933 301.898C951.402 302.323 952.04 302.536 952.847 302.536C953.595 302.536 954.167 302.331 954.563 301.92C954.973 301.495 955.179 300.952 955.179 300.292C955.179 299.412 954.9 298.781 954.343 298.4C953.785 298.019 952.92 297.828 951.747 297.828H951.109V295.298H951.747C953.829 295.298 954.871 294.601 954.871 293.208C954.871 292.577 954.68 292.086 954.299 291.734C953.932 291.382 953.397 291.206 952.693 291.206C952.003 291.206 951.468 291.397 951.087 291.778C950.72 292.145 950.507 292.614 950.449 293.186H947.435ZM960.561 296.772C960.561 294.235 961.015 292.247 961.925 290.81C962.849 289.373 964.374 288.654 966.501 288.654C968.627 288.654 970.145 289.373 971.055 290.81C971.979 292.247 972.441 294.235 972.441 296.772C972.441 299.324 971.979 301.326 971.055 302.778C970.145 304.23 968.627 304.956 966.501 304.956C964.374 304.956 962.849 304.23 961.925 302.778C961.015 301.326 960.561 299.324 960.561 296.772ZM969.405 296.772C969.405 295.687 969.331 294.777 969.185 294.044C969.053 293.296 968.774 292.687 968.349 292.218C967.938 291.749 967.322 291.514 966.501 291.514C965.679 291.514 965.056 291.749 964.631 292.218C964.22 292.687 963.941 293.296 963.795 294.044C963.663 294.777 963.597 295.687 963.597 296.772C963.597 297.887 963.663 298.825 963.795 299.588C963.927 300.336 964.205 300.945 964.631 301.414C965.056 301.869 965.679 302.096 966.501 302.096C967.322 302.096 967.945 301.869 968.371 301.414C968.796 300.945 969.075 300.336 969.207 299.588C969.339 298.825 969.405 297.887 969.405 296.772Z" fill="white"/>
<path d="M899.877 324.72L899.477 326.7H896.257V328.88C896.257 329.3 896.337 329.76 896.617 330.06C897.857 331.44 899.117 332.62 900.517 333.8L898.917 335.34C897.497 334.2 896.157 333.02 894.897 331.72C893.637 333.1 892.137 334.54 890.677 335.78L888.997 334.32C890.397 333.06 891.837 331.82 893.057 330.22C893.317 329.88 893.497 329.42 893.497 329V326.7H889.897V324.72H899.877ZM901.777 337.08V330.42H898.357V328.42H901.777V324.1L904.497 323.7V336.68L901.777 337.08ZM904.617 341.92H892.877V336.14H895.657V339.92H905.017L904.617 341.92ZM914.2 328.38V326.6H908.08V324.6H916.92V330.34H910.86V332.12H912.14C913.96 332.12 916.72 332.02 918.64 331.66V333.64C916.6 334 913.74 334.12 911.92 334.12H908.08V328.38H914.2ZM922.2 323.7V326.08H924.88L924.48 328.08H922.2V330.3H924.88L924.48 332.28H922.2V334.58L919.44 334.98V324.1L922.2 323.7ZM910.22 335.68H922.2V341.96L919.4 342.36V337.66H910.22V335.68Z" fill="white"/>
<path d="M40.9648 518.107H42.9336L43.8652 513.256H42.3711L40.9648 518.107ZM44.498 518.107H46.4668L47.3984 513.256H45.9043L44.498 518.107ZM53.9727 516.016V513.186H52.3555V516.121C52.3555 518.802 51.1602 521.614 48.9102 522.924L49.9648 524.137C51.4941 523.231 52.5752 521.562 53.1553 519.602C53.709 521.395 54.7197 522.897 56.2051 523.732L57.1895 522.414C55.0537 521.263 53.9727 518.626 53.9727 516.016ZM57.5762 526.721H59.1758V519.373H61.0742V527.494H62.6738V511.744H61.0742V518.02H59.1758V512.043H57.5762V526.721ZM79.0918 524.207H72.6758V521.447H77.7031V520.076H68.0879V517.773H77.334V512.852H66.4004V514.223H75.6816V516.438H66.4355V521.447H71.0234V524.207H64.6777V525.613H79.0918V524.207ZM94.6309 519.637H80.2168V520.99H86.7031V524.049H88.3906V520.99H94.6309V519.637ZM81.7988 515.312C81.79 517.272 84.0225 518.494 87.4062 518.494C90.79 518.494 93.0049 517.272 92.9961 515.312C93.0049 513.344 90.79 512.122 87.4062 512.113C84.0225 512.122 81.79 513.344 81.7988 515.312ZM82.0273 527.16H93.0312V525.789H83.6973V522.537H82.0273V527.16ZM83.5918 515.312C83.5742 514.144 85.1035 513.458 87.4062 513.449C89.7178 513.458 91.2295 514.144 91.2383 515.312C91.2295 516.446 89.7178 517.141 87.4062 517.141C85.1035 517.141 83.5742 516.446 83.5918 515.312ZM112.455 511.744H110.785V527.477H112.455V519.408H114.898V518.02H112.455V511.744ZM100.203 523.275L101.135 524.576C106.32 522.019 108.324 517.949 108.342 513.396H100.994V514.785H106.637C106.294 518.459 104.149 521.307 100.203 523.275ZM128.469 515.998H119.311V512.025H117.658V517.352H128.469V515.998ZM115.742 520.393H130.121V519.021H115.742V520.393ZM117.447 524.541C117.447 526.387 119.495 527.424 122.914 527.424C126.307 527.424 128.337 526.387 128.346 524.541C128.337 522.704 126.307 521.667 122.914 521.676C119.495 521.667 117.447 522.704 117.447 524.541ZM119.135 524.541C119.126 523.521 120.506 522.985 122.914 522.977C125.287 522.985 126.676 523.521 126.676 524.541C126.676 525.552 125.287 526.132 122.914 526.141C120.506 526.132 119.126 525.552 119.135 524.541ZM136.889 514.1V512.623H135.236V514.17C135.219 516.534 133.76 518.635 131.246 519.496L132.143 520.832C134.05 520.146 135.421 518.731 136.098 516.93C136.783 518.512 138.058 519.725 139.789 520.357L140.703 519.057C138.312 518.274 136.88 516.306 136.889 514.1ZM133.83 524.488C133.821 526.387 135.843 527.468 139.156 527.459C142.452 527.468 144.474 526.387 144.482 524.488C144.474 522.581 142.452 521.474 139.156 521.482C135.843 521.474 133.821 522.581 133.83 524.488ZM135.482 524.488C135.474 523.407 136.845 522.783 139.156 522.783C141.45 522.783 142.821 523.407 142.83 524.488C142.821 525.534 141.45 526.149 139.156 526.141C136.845 526.149 135.474 525.534 135.482 524.488ZM139.438 516.314H142.76V521.043H144.43V511.744H142.76V514.943H139.438V516.314ZM160.408 511.744H158.809V527.494H160.408V511.744ZM147.031 518.547C147.031 521.966 148.367 524.11 150.424 524.102C152.375 524.11 153.685 522.203 153.834 519.127H155.609V526.721H157.209V512.043H155.609V517.773H153.825C153.632 514.82 152.34 513.001 150.424 513.01C148.367 513.001 147.031 515.137 147.031 518.547ZM148.578 518.547C148.578 516.033 149.29 514.565 150.424 514.574C151.584 514.565 152.305 516.033 152.305 518.547C152.305 521.052 151.584 522.528 150.424 522.52C149.29 522.528 148.578 521.052 148.578 518.547ZM179.568 519.004H170.27V514.311H179.428V512.957H168.6V520.34H173.152V524.189H166.807V525.561H181.221V524.189H174.805V520.34H179.568V519.004ZM195.494 511.762H193.824V516.016H190.818V517.369H193.824V523.293H195.494V511.762ZM182.381 520.006L183.242 521.359C185.114 520.691 186.494 519.303 187.18 517.562C187.865 519.127 189.175 520.393 190.941 521.008L191.803 519.672C189.421 518.881 187.997 516.903 188.006 514.943V514.328H191.381V512.957H182.891V514.328H186.301V514.943C186.31 517.114 184.798 519.188 182.381 520.006ZM185.264 527.16H195.916V525.807H186.934V522.256H185.264V527.16ZM210.189 511.744H208.537V527.494H210.189V519.514H212.721V518.125H210.189V511.744ZM197.832 515.576H207.166V514.205H203.387V511.955H201.717V514.205H197.832V515.576ZM198.641 520.393C198.641 522.555 200.293 524.058 202.561 524.066C204.819 524.058 206.472 522.555 206.48 520.393C206.472 518.248 204.819 516.736 202.561 516.736C200.293 516.736 198.641 518.248 198.641 520.393ZM200.24 520.393C200.231 519.048 201.216 518.116 202.561 518.107C203.896 518.116 204.872 519.048 204.881 520.393C204.872 521.764 203.896 522.678 202.561 522.66C201.216 522.678 200.231 521.764 200.24 520.393ZM225.746 511.744H224.076V527.529H225.746V519.215H228.277V517.844H225.746V511.744ZM214.145 523.609H215.41C218.337 523.618 220.429 523.539 222.898 523.1L222.688 521.693C220.438 522.098 218.46 522.212 215.814 522.221V514.609H221.51V513.256H214.145V523.609ZM235.414 513.273H233.867V517.809H235.414V513.273ZM237.066 517.809H238.613V513.273H237.066V517.809Z" fill="#C4C4C4"/>
<path d="M822.925 496.992V498.328H817.282V500.314H822.626V501.65H817.282V503.76C820.209 503.733 821.896 503.663 823.909 503.32L824.085 504.621C821.932 505.034 820.077 505.104 816.843 505.113H815.612V496.992H822.925ZM817.317 511.16V506.344H818.987V509.807H827.97V511.16H817.317ZM825.632 507.398V495.727H827.302V500.561H829.587V501.949H827.302V507.398H825.632ZM844.897 508.119V509.49H830.483V508.119H836.794V504.375H838.446V508.119H844.897ZM830.976 503.285C834.008 502.775 836.715 500.438 836.724 497.941V496.746H838.481V497.941C838.481 500.438 841.224 502.775 844.265 503.285L843.544 504.656C840.986 504.155 838.648 502.573 837.611 500.42C836.574 502.564 834.254 504.155 831.714 504.656L830.976 503.285ZM859.188 495.744V511.529H857.519V502.775H854.267V501.404H857.519V495.744H859.188ZM845.864 507.135C848.272 505.983 849.969 503.004 849.978 500.174V498.697H846.497V497.326H855.163V498.697H851.665V500.174C851.665 502.837 853.344 505.711 855.761 506.783L854.759 508.119C852.939 507.24 851.542 505.403 850.839 503.259C850.136 505.544 848.703 507.504 846.884 508.436L845.864 507.135ZM873.972 495.744V499.453H876.257V500.842H873.972V504.639H872.302V495.744H873.972ZM861.526 503.531C865.297 502.538 867.512 500.561 867.819 498.1H862.265V496.729H869.63C869.621 500.763 866.888 503.602 862.194 504.867L861.526 503.531ZM863.882 511.283V505.307H873.972V511.283H863.882ZM865.552 509.947H872.319V506.695H865.552V509.947ZM894.644 495.744V511.494H892.956V495.744H894.644ZM881.706 507.275C885.89 505.28 887.938 502.441 888.263 498.768H882.462V497.432H889.95C889.95 502.046 887.99 506.036 882.585 508.629L881.706 507.275ZM905.138 496.342C905.146 498.152 907.643 499.673 910.71 500.016L910.13 501.281C907.546 500.965 905.287 499.875 904.276 498.267C903.257 499.875 900.998 500.965 898.44 501.281L897.86 500.016C900.937 499.673 903.424 498.152 903.433 496.342V495.814H905.138V496.342ZM897.104 503.531V502.195H911.466V503.531H905.103V504.938H909.655V508.664H900.479V510.053H910.095V511.336H898.845V507.451H908.003V506.221H898.827V504.938H903.433V503.531H897.104ZM930.538 495.744V511.494H928.938V503.32H926.987V510.738H925.423V496.166H926.987V501.967H928.938V495.744H930.538ZM917.003 506.994C920.501 505.008 921.969 502.327 922.232 499.119H917.671V497.748H923.858C923.85 501.888 922.479 505.614 917.97 508.154L917.003 506.994ZM934.862 496.412V498.557H938.993V496.412H940.646V503.285H933.228V496.412H934.862ZM934.81 505.852V504.533H944.987V508.506H936.479V510H945.532V511.336H934.845V507.275H943.335V505.852H934.81ZM934.862 501.949H938.993V499.84H934.862V501.949ZM943.317 503.848V495.744H944.987V499.049H947.272V500.402H944.987V503.848H943.317ZM955.341 496.008C958.892 495.999 960.957 496.957 960.966 498.715C960.957 500.481 958.892 501.439 955.341 501.439C951.79 501.439 949.707 500.481 949.716 498.715C949.707 496.957 951.79 495.999 955.341 496.008ZM948.169 503.742V502.406H962.53V503.742H948.169ZM949.892 506.203V504.955H960.72V508.646H951.544V510.053H961.159V511.336H949.909V507.434H959.067V506.203H949.892ZM951.456 498.715C951.447 499.69 952.836 500.191 955.341 500.191C957.863 500.191 959.252 499.69 959.243 498.715C959.252 497.783 957.863 497.238 955.341 497.238C952.836 497.238 951.447 497.783 951.456 498.715ZM982.481 504.023V505.342H968.085V504.023H974.448V502.652H969.966V496.166H980.724V497.484H971.653V498.768H980.319V500.016H971.653V501.352H980.829V502.652H976.118V504.023H982.481ZM969.825 508.928C969.825 507.275 971.785 506.37 975.292 506.379C978.746 506.37 980.715 507.275 980.724 508.928C980.715 510.589 978.746 511.468 975.292 511.459C971.785 511.468 969.825 510.589 969.825 508.928ZM971.495 508.928C971.486 509.78 972.805 510.211 975.292 510.193C977.744 510.211 979.054 509.78 979.054 508.928C979.054 508.075 977.744 507.627 975.292 507.627C972.805 507.627 971.486 508.075 971.495 508.928ZM996.052 495.762V500.824H998.337V502.213H996.052V507.539H994.382V495.762H996.052ZM983.694 498.943V497.59H987.562V495.744H989.231V497.59H993.081V498.943H983.694ZM984.556 502.67C984.547 500.868 986.103 499.69 988.388 499.699C990.646 499.69 992.202 500.868 992.202 502.67C992.202 504.454 990.646 505.614 988.388 505.623C986.103 505.614 984.547 504.454 984.556 502.67ZM986.067 511.16V506.607H987.737V509.807H996.72V511.16H986.067ZM986.173 502.67C986.155 503.698 987.052 504.331 988.388 504.322C989.724 504.331 990.62 503.698 990.638 502.67C990.62 501.633 989.724 500.991 988.388 500.982C987.052 500.991 986.155 501.633 986.173 502.67ZM834.069 531.752C834.052 534.626 835.792 537.526 838.235 538.607L837.233 539.926C835.423 539.064 833.99 537.298 833.252 535.145C832.522 537.456 831.072 539.354 829.183 540.277L828.163 538.871C830.642 537.772 832.382 534.758 832.382 531.752V529.062H834.069V531.752ZM839.659 543.529V527.744H841.329V543.529H839.659ZM849.345 530.645C849.336 532.648 850.733 534.477 853.124 535.232L852.333 536.533C850.54 535.962 849.23 534.775 848.536 533.281C847.851 535.004 846.471 536.366 844.581 537.025L843.72 535.689C846.181 534.881 847.666 532.851 847.675 530.662V530.223H844.212V528.869H852.737V530.223H849.345V530.645ZM845.847 540.506C845.847 538.66 847.859 537.579 851.138 537.588C854.381 537.579 856.358 538.66 856.358 540.506C856.358 542.378 854.381 543.468 851.138 543.459C847.859 543.468 845.847 542.378 845.847 540.506ZM847.517 540.506C847.508 541.561 848.861 542.149 851.138 542.141C853.396 542.149 854.732 541.561 854.724 540.506C854.732 539.478 853.396 538.897 851.138 538.906C848.861 538.897 847.508 539.478 847.517 540.506ZM854.548 537.201V527.744H856.218V531.646H858.503V533.018H856.218V537.201H854.548ZM877.276 527.744V543.494H875.677V535.32H873.726V542.738H872.161V528.166H873.726V533.967H875.677V527.744H877.276ZM863.741 538.994C867.239 537.008 868.707 534.327 868.971 531.119H864.409V529.748H870.597C870.588 533.888 869.217 537.614 864.708 540.154L863.741 538.994ZM892.481 538.08V543.512H890.812V539.469H881.812V538.08H892.481ZM879.351 535.918C881.741 535.153 883.218 533.255 883.218 531.207V530.926H879.79V529.572H883.218V527.674H884.888V529.572H888.298V530.926H884.87V531.207C884.87 533.132 886.355 534.907 888.755 535.602L887.999 536.938C886.153 536.375 884.782 535.206 884.07 533.703C883.385 535.329 882.014 536.604 880.159 537.219L879.351 535.918ZM887.753 533.633V532.262H890.812V527.744H892.481V537.342H890.812V533.633H887.753ZM907.616 528.746V535.215H900.128V528.746H907.616ZM901.165 542.158C904.03 541.877 906.271 540.444 906.386 539.029H901.798V537.764H906.421V536.287H908.073V537.764H912.714V539.029H908.108C908.223 540.4 910.411 541.842 913.276 542.158L912.714 543.441C910.244 543.143 908.205 542.088 907.256 540.699C906.289 542.105 904.224 543.143 901.745 543.441L901.165 542.158ZM901.763 533.914H905.964V530.082H901.763V533.914ZM910.692 536.744V527.744H912.345V536.744H910.692ZM924.72 531.752C924.702 534.538 926.328 537.395 928.675 538.537L927.638 539.873C925.924 538.977 924.597 537.219 923.902 535.118C923.199 537.351 921.819 539.24 920.026 540.172L918.989 538.818C921.406 537.658 923.041 534.635 923.05 531.752V529.062H924.72V531.752ZM929.853 543.494V527.744H931.522V534.02H934.054V535.443H931.522V543.494H929.853ZM939.169 528.465C941.243 528.447 942.852 529.651 943.194 531.418H946.271V527.744H947.94V536.199H946.271V532.789H943.203C942.878 534.6 941.261 535.812 939.169 535.812C936.761 535.812 935.029 534.292 935.038 532.121C935.029 529.977 936.761 528.447 939.169 528.465ZM936.638 532.121C936.629 533.466 937.684 534.406 939.169 534.406C940.628 534.406 941.665 533.466 941.665 532.121C941.665 530.768 940.628 529.845 939.169 529.854C937.684 529.845 936.629 530.768 936.638 532.121ZM937.675 543.301V536.955H939.327V538.783H946.271V536.955H947.94V543.301H937.675ZM939.327 541.93H946.271V540.102H939.327V541.93ZM967.153 527.762V532.438H969.403V533.809H967.153V538.361H965.483V527.762H967.153ZM954.655 536.604C955.877 536.604 957.292 536.604 958.769 536.568V535.505C956.976 535.303 955.833 534.459 955.851 533.193C955.833 531.752 957.336 530.855 959.595 530.873C961.854 530.855 963.33 531.752 963.339 533.193C963.33 534.45 962.214 535.294 960.438 535.505V536.507C961.845 536.437 963.269 536.322 964.587 536.129L964.728 537.324C961.344 537.913 957.608 537.939 954.831 537.939L954.655 536.604ZM955.06 530.346V529.098H958.769V527.621H960.438V529.098H964.147V530.346H955.06ZM956.624 540.4V539.1H967.153V543.494H965.483V540.4H956.624ZM957.433 533.193C957.433 533.932 958.25 534.415 959.595 534.406C960.922 534.415 961.748 533.932 961.739 533.193C961.748 532.438 960.922 531.998 959.595 532.016C958.25 531.998 957.433 532.438 957.433 533.193ZM983.835 527.744V543.494H982.235V535.355H980.196V542.686H978.667V528.061H980.196V533.984H982.235V527.744H983.835ZM970.845 539.715V529.643H976.751V530.996H972.515V538.291C974.448 538.282 975.907 538.194 977.595 537.869L977.718 539.24C975.828 539.636 974.193 539.697 971.899 539.715H970.845Z" fill="#C4C4C4"/>
<defs>
<linearGradient id="paint0_linear_4350_51620" x1="179.5" y1="7" x2="77.5" y2="280" gradientUnits="userSpaceOnUse">
<stop stop-color="#4B84F0"/>
<stop offset="1" stop-color="#1D53AC"/>
</linearGradient>
<linearGradient id="paint1_linear_4350_51620" x1="179.5" y1="7" x2="77.5" y2="280" gradientUnits="userSpaceOnUse">
<stop stop-color="#4B84F0"/>
<stop offset="1" stop-color="#1D53AC"/>
</linearGradient>
</defs>
</svg>
