<svg width="339" height="1032" viewBox="0 0 339 1032" fill="none" xmlns="http://www.w3.org/2000/svg">
<rect opacity="0.6" x="0.5" y="13.5" width="338" height="273" rx="15.5" fill="white" stroke="#999999" stroke-linecap="round" stroke-dasharray="3 3"/>
<rect x="96" y="13" width="148" height="13" fill="#FBFCFF"/>
<rect x="96" width="148" height="13" fill="#F4F8FF"/>
<path d="M139.257 5.76V20.08L137.097 20.4V6.08L139.257 5.76ZM129.593 17.312H127.193V15.712H130.073C132.009 15.712 134.553 15.584 136.505 15.248V16.864C134.441 17.216 132.009 17.312 129.593 17.312ZM135.449 9.952V10.608C135.449 12.8 133.625 13.968 131.561 13.968C129.497 13.968 127.673 12.8 127.673 10.608V9.952C127.673 7.76 129.497 6.592 131.561 6.592C133.625 6.592 135.449 7.76 135.449 9.952ZM133.289 10.608V9.952C133.289 8.832 132.537 8.192 131.561 8.192C130.585 8.192 129.833 8.832 129.833 9.952V10.608C129.833 11.728 130.585 12.368 131.561 12.368C132.537 12.368 133.289 11.728 133.289 10.608ZM153.387 5.76V11.232H155.691L155.371 13.024H153.387V20.08L151.195 20.4V6.08L153.387 5.76ZM146.875 6.496V10.704C146.875 11.04 146.971 11.392 147.163 11.648C147.995 12.768 149.259 14.304 150.347 15.52L149.067 16.752C147.947 15.568 146.587 14.064 145.771 12.976C144.827 14.176 143.451 15.872 142.315 17.104L140.971 15.936C142.059 14.672 143.339 13.136 144.283 11.776C144.475 11.504 144.635 11.136 144.635 10.8V6.816L146.875 6.496ZM161.966 7.888H157.054V6.32H164.222V7.088C164.222 7.376 164.19 7.648 164.142 7.92H166.222V6.08L168.382 5.76V12.96L166.222 13.28V12.448H163.342V10.848H166.222V9.504H163.678V9.328C162.638 11.456 160.222 13.248 157.358 13.824L156.493 12.4C159.246 11.728 161.966 9.584 161.966 8V7.888ZM168.494 20.464H158.942V16.384H166.19V15.344H158.91V13.84H168.382V17.856H161.166V18.944H168.814L168.494 20.464ZM179.68 14.848C181.424 14.848 183.008 15.552 183.008 17.712C183.008 19.888 181.424 20.592 179.68 20.592H176.256C174.448 20.592 172.832 19.888 172.832 17.712C172.832 15.552 174.448 14.848 176.256 14.848H179.68ZM179.264 6.448L178.944 8.048H176.368V9.104C176.368 9.44 176.432 9.808 176.656 10.048C177.648 11.152 178.656 12.096 179.776 13.04L178.496 14.272C177.36 13.36 176.288 12.416 175.28 11.376C174.272 12.48 173.072 13.632 171.904 14.624L170.56 13.456C171.68 12.448 172.832 11.456 173.808 10.176C174.016 9.904 174.16 9.536 174.16 9.2V8.048H171.296V6.448H179.264ZM180.784 14.656V10.72H178.048V9.136H180.784V6.08L182.96 5.76V14.336L180.784 14.656ZM179.472 16.432H176.432C175.568 16.432 174.976 16.784 174.976 17.712C174.976 18.656 175.568 19.008 176.432 19.008H179.472C180.272 19.008 180.864 18.656 180.864 17.712C180.864 16.784 180.272 16.432 179.472 16.432ZM191.139 8.384H186.179V6.8H193.443V7.936C193.443 12.288 190.403 15.744 186.899 17.344L185.587 15.92C188.643 14.64 191.139 11.44 191.139 8.656V8.384ZM197.507 5.76V20.08L195.331 20.4V6.08L197.507 5.76ZM199.541 12.752H208.581C208.853 11.424 209.141 9.392 209.205 8.048H201.237V6.448H211.525C211.461 8.224 211.285 10.656 210.821 12.752H213.413L213.093 14.336H207.701V20.208L205.461 20.528V14.336H199.541V12.752Z" fill="#1B4B66"/>
<rect x="22" y="176" width="143" height="60" rx="11" fill="white"/>
<path d="M43.503 209.118L43.223 210.728H36.811V199.864H43.335V201.46H38.799V204.302H42.999V205.926H38.799V209.118H43.503ZM47.7536 204.428H49.6716C51.2116 204.428 52.3036 205.66 52.3036 207.396C52.3036 209.678 50.7356 210.728 48.4256 210.728H44.8276V209.118H48.2576C49.5036 209.118 50.3156 208.67 50.3156 207.494C50.3156 206.598 49.8536 206.024 49.1536 206.024H47.4316C45.8076 206.024 44.6316 204.792 44.6316 203.112C44.6316 200.886 45.8916 199.864 48.2156 199.864H51.5896L51.2956 201.46H48.3836C47.2776 201.46 46.6056 201.894 46.6056 203.014C46.6056 203.91 47.0116 204.428 47.7536 204.428ZM59.2281 210.812H58.0381C54.9301 210.812 53.4461 209.482 53.4461 206.668V204.008C53.4461 201.292 54.9721 199.864 58.0241 199.864H61.0201L60.7261 201.502H58.1501C56.1061 201.502 55.4201 202.594 55.4201 204.302V206.36C55.4201 208.18 55.9801 209.188 58.0941 209.188H59.2281V206.15H57.4221V204.582H61.1461V210.532L59.2281 210.812ZM71.3676 207.158V205.464H68.8476V204.064H71.3676V202.734H69.2116C68.2456 204.82 65.8096 206.542 63.5276 207.228L62.6176 206.01C65.4036 205.24 67.6296 202.986 67.6296 201.516V201.32H63.3456V199.92H69.6456V200.886C69.6456 201.04 69.6316 201.194 69.6176 201.334H71.3676V199.57L73.2716 199.29V206.878L71.3676 207.158ZM70.4016 207.242C71.9276 207.242 73.3136 207.858 73.3136 209.748C73.3136 211.652 71.9276 212.268 70.4016 212.268H67.4056C65.8236 212.268 64.4096 211.652 64.4096 209.748C64.4096 207.858 65.8236 207.242 67.4056 207.242H70.4016ZM70.2196 208.628H67.5596C66.8036 208.628 66.2856 208.936 66.2856 209.748C66.2856 210.574 66.8036 210.882 67.5596 210.882H70.2196C70.9196 210.882 71.4376 210.574 71.4376 209.748C71.4376 208.936 70.9196 208.628 70.2196 208.628ZM84.1098 207.032V205.17H81.9398V204.722C81.3938 205.758 80.1758 206.304 78.8458 206.304C77.0398 206.304 75.4438 205.296 75.4438 203.42V202.594C75.4438 200.718 77.0398 199.71 78.8458 199.71C80.1758 199.71 81.3938 200.256 81.9398 201.306V200.564H84.1098V199.57L85.9998 199.29V206.752L84.1098 207.032ZM83.1438 207.242C84.6698 207.242 86.0558 207.858 86.0558 209.748C86.0558 211.652 84.6698 212.268 83.1438 212.268H80.1478C78.5658 212.268 77.1518 211.652 77.1518 209.748C77.1518 207.858 78.5658 207.242 80.1478 207.242H83.1438ZM82.9618 208.628H80.3018C79.5458 208.628 79.0278 208.936 79.0278 209.748C79.0278 210.574 79.5458 210.882 80.3018 210.882H82.9618C83.6618 210.882 84.1798 210.574 84.1798 209.748C84.1798 208.936 83.6618 208.628 82.9618 208.628ZM80.3578 203.364V202.65C80.3578 201.67 79.6998 201.11 78.8458 201.11C77.9918 201.11 77.3338 201.67 77.3338 202.65V203.364C77.3338 204.344 77.9918 204.904 78.8458 204.904C79.6998 204.904 80.3578 204.344 80.3578 203.364ZM82.2478 203.42C82.2478 203.546 82.2338 203.658 82.2198 203.77H84.1098V201.95H82.1778C82.2198 202.16 82.2478 202.37 82.2478 202.594V203.42ZM94.78 198.968V200.494H98.406L98.126 201.894H94.78V202.104C94.78 202.44 94.808 202.762 95.032 202.888C96.124 203.518 97.748 204.316 99.078 204.918L98.182 206.15C96.838 205.576 94.962 204.68 93.856 204.078C92.75 204.708 91.014 205.562 89.502 206.234L88.592 205.016C90.076 204.344 91.462 203.658 92.54 202.972C92.764 202.832 92.848 202.496 92.848 202.16V201.894H89.404V200.494H92.848V199.248L94.78 198.968ZM99.638 208.25H94.92V211.932L92.96 212.212V208.25H87.78V206.85H99.918L99.638 208.25ZM107.984 201.39H105.73V202.916C105.73 203.21 105.786 203.532 105.982 203.742C106.85 204.708 107.732 205.534 108.712 206.36L107.592 207.438C106.598 206.64 105.66 205.814 104.778 204.904C103.896 205.87 102.846 206.878 101.824 207.746L100.648 206.724C101.628 205.842 102.636 204.974 103.49 203.854C103.672 203.616 103.798 203.294 103.798 203V201.39H101.278V200.004H108.264L107.984 201.39ZM111.498 199.29V208.208L109.594 208.488V199.57L111.498 199.29ZM111.582 212.044H103.364V207.998H105.31V210.644H111.862L111.582 212.044ZM124.226 199.29V211.96L122.336 212.24V199.57L124.226 199.29ZM118.472 207.676V211.554L116.568 211.834V207.732H113.67V206.332H116.19C117.884 206.332 120.11 206.234 121.818 205.926V207.354C120.768 207.522 119.592 207.62 118.472 207.676ZM120.992 202.328V202.762C120.992 204.554 119.424 205.52 117.688 205.52C115.952 205.52 114.384 204.554 114.384 202.762V202.328C114.384 200.536 115.952 199.57 117.688 199.57C119.424 199.57 120.992 200.536 120.992 202.328ZM119.102 202.678V202.412C119.102 201.488 118.472 200.97 117.688 200.97C116.904 200.97 116.274 201.488 116.274 202.412V202.678C116.274 203.602 116.904 204.12 117.688 204.12C118.472 204.12 119.102 203.602 119.102 202.678ZM133.483 202.202C133.483 203.826 132.027 204.736 130.375 204.736C128.723 204.736 127.267 203.826 127.267 202.202V201.894C127.267 200.27 128.723 199.36 130.375 199.36C132.027 199.36 133.483 200.27 133.483 201.894V202.202ZM135.079 208.964V208.138H132.209V206.808H135.079V199.57L136.969 199.29V208.684L135.079 208.964ZM137.053 212.044H128.737V208.88H130.669V210.644H137.333L137.053 212.044ZM131.131 206.486V208.544H129.213V206.57H126.413V205.226H129.367C130.739 205.226 132.755 205.1 134.561 204.736V206.108C133.497 206.304 132.335 206.416 131.131 206.486ZM131.649 202.188V201.908C131.649 201.138 131.075 200.704 130.375 200.704C129.675 200.704 129.101 201.138 129.101 201.908V202.188C129.101 202.958 129.675 203.392 130.375 203.392C131.075 203.392 131.649 202.958 131.649 202.188ZM139.953 204.386C139.953 203.084 141.199 202.034 143.145 202.034C145.091 202.034 146.337 203.084 146.337 204.386V204.834C146.337 205.87 145.539 206.752 144.237 207.074V208.474C145.259 208.418 146.393 208.32 147.303 208.166V209.552C145.301 209.832 143.159 209.916 141.003 209.916H139.155V208.516H142.263V207.116C140.821 206.85 139.953 205.926 139.953 204.834V204.386ZM147.821 199.57L149.711 199.29V211.82L147.821 212.1V199.57ZM146.729 201.754H139.351V200.354H142.179V199.43L144.111 199.15V200.354H147.009L146.729 201.754ZM144.517 204.512C144.517 203.826 143.957 203.364 143.145 203.364C142.333 203.364 141.773 203.826 141.773 204.512V204.708C141.773 205.394 142.333 205.856 143.145 205.856C143.957 205.856 144.517 205.394 144.517 204.708V204.512Z" fill="#1B4B66"/>
<rect x="22" y="176" width="143" height="60" rx="11" stroke="#E1E6EF" stroke-width="2"/>
<rect x="175" y="176" width="143" height="60" rx="11" fill="white"/>
<path d="M217.741 206.668L219.379 210.784H217.265L215.893 207.2C215.571 206.374 215.123 206.164 214.773 206.164H213.485V210.588L211.511 210.868V199.864H215.473C217.489 199.864 218.763 200.774 218.763 202.748C218.763 204.022 217.923 205.1 216.761 205.38V205.422C217.223 205.562 217.601 206.29 217.741 206.668ZM216.859 202.986C216.859 201.782 216.061 201.46 215.333 201.46H213.485V204.582H214.997C216.019 204.582 216.859 204.148 216.859 202.986ZM227.744 208.278L229.578 210.308H227.226L226.498 209.426C225.77 210.168 224.79 210.49 223.726 210.49C221.752 210.49 220.198 209.356 220.198 207.48C220.198 206.192 220.8 205.226 222.354 204.568C221.612 203.84 221.038 203.21 221.038 202.09C221.038 200.522 222.578 199.682 224.006 199.682C225.392 199.682 226.82 200.48 226.82 202.062C226.82 203.434 225.896 204.204 224.818 204.806L226.652 207.06C227.128 206.5 227.31 205.52 227.366 204.652H229.046C228.976 206.01 228.486 207.34 227.744 208.278ZM225.14 202.202C225.14 201.446 224.622 201.054 224.006 201.054C223.418 201.054 222.844 201.474 222.844 202.244C222.844 202.832 223.39 203.392 223.782 203.812C224.3 203.546 225.14 202.86 225.14 202.202ZM225.574 208.348L223.334 205.632C222.634 206.01 222.06 206.57 222.06 207.41C222.06 208.348 222.858 209.062 223.81 209.062C224.566 209.062 225.154 208.768 225.574 208.348ZM239.524 205.282C239.524 209.076 237.998 210.728 234.484 210.728H230.914V199.864H234.484C237.942 199.864 239.524 201.558 239.524 205.282ZM237.438 205.296C237.438 202.79 236.514 201.46 234.778 201.46H232.902V209.118H234.75C236.542 209.118 237.438 207.844 237.438 205.296ZM255.652 199.29V211.96L253.762 212.24V199.57L255.652 199.29ZM249.898 207.676V211.554L247.994 211.834V207.732H245.096V206.332H247.616C249.31 206.332 251.536 206.234 253.244 205.926V207.354C252.194 207.522 251.018 207.62 249.898 207.676ZM252.418 202.328V202.762C252.418 204.554 250.85 205.52 249.114 205.52C247.378 205.52 245.81 204.554 245.81 202.762V202.328C245.81 200.536 247.378 199.57 249.114 199.57C250.85 199.57 252.418 200.536 252.418 202.328ZM250.528 202.678V202.412C250.528 201.488 249.898 200.97 249.114 200.97C248.33 200.97 247.7 201.488 247.7 202.412V202.678C247.7 203.602 248.33 204.12 249.114 204.12C249.898 204.12 250.528 203.602 250.528 202.678ZM264.908 202.202C264.908 203.826 263.452 204.736 261.8 204.736C260.148 204.736 258.692 203.826 258.692 202.202V201.894C258.692 200.27 260.148 199.36 261.8 199.36C263.452 199.36 264.908 200.27 264.908 201.894V202.202ZM266.504 208.964V208.138H263.634V206.808H266.504V199.57L268.394 199.29V208.684L266.504 208.964ZM268.478 212.044H260.162V208.88H262.094V210.644H268.758L268.478 212.044ZM262.556 206.486V208.544H260.638V206.57H257.838V205.226H260.792C262.164 205.226 264.18 205.1 265.986 204.736V206.108C264.922 206.304 263.76 206.416 262.556 206.486ZM263.074 202.188V201.908C263.074 201.138 262.5 200.704 261.8 200.704C261.1 200.704 260.526 201.138 260.526 201.908V202.188C260.526 202.958 261.1 203.392 261.8 203.392C262.5 203.392 263.074 202.958 263.074 202.188ZM271.379 204.386C271.379 203.084 272.625 202.034 274.571 202.034C276.517 202.034 277.763 203.084 277.763 204.386V204.834C277.763 205.87 276.965 206.752 275.663 207.074V208.474C276.685 208.418 277.819 208.32 278.729 208.166V209.552C276.727 209.832 274.585 209.916 272.429 209.916H270.581V208.516H273.689V207.116C272.247 206.85 271.379 205.926 271.379 204.834V204.386ZM279.247 199.57L281.137 199.29V211.82L279.247 212.1V199.57ZM278.155 201.754H270.777V200.354H273.605V199.43L275.537 199.15V200.354H278.435L278.155 201.754ZM275.943 204.512C275.943 203.826 275.383 203.364 274.571 203.364C273.759 203.364 273.199 203.826 273.199 204.512V204.708C273.199 205.394 273.759 205.856 274.571 205.856C275.383 205.856 275.943 205.394 275.943 204.708V204.512Z" fill="#1B4B66"/>
<rect x="175" y="176" width="143" height="60" rx="11" stroke="#E1E6EF" stroke-width="2"/>
<path d="M250.25 175C250.25 177.347 248.347 179.25 246 179.25C243.653 179.25 241.75 177.347 241.75 175C241.75 172.653 243.653 170.75 246 170.75C248.347 170.75 250.25 172.653 250.25 175Z" fill="white" stroke="#1B4B66" stroke-width="1.5"/>
<path d="M98.25 175C98.25 177.347 96.3472 179.25 94 179.25C91.6528 179.25 89.75 177.347 89.75 175C89.75 172.653 91.6528 170.75 94 170.75C96.3472 170.75 98.25 172.653 98.25 175Z" fill="white" stroke="#1B4B66" stroke-width="1.5"/>
<rect x="169.25" y="125.25" width="0.5" height="19.5" fill="#1B4B66" stroke="#C4C4C4" stroke-width="0.5"/>
<path d="M246 170V161C246 152.163 238.837 145 230 145H110C101.163 145 94 152.163 94 161V170" stroke="#C4C4C4"/>
<g opacity="0.5" filter="url(#filter0_f_307_2100)">
<rect x="60" y="69" width="219" height="56" rx="16" fill="#1B4B66"/>
</g>
<rect x="55" y="63" width="229" height="62" rx="12" fill="#1B4B66"/>
<path d="M110.081 87.29V99.82L108.191 100.1V87.57L110.081 87.29ZM104.425 94.038V90.748C104.425 89.74 104.075 89.152 103.095 89.152C102.115 89.152 101.765 89.74 101.765 90.748V94.038C101.765 95.046 102.115 95.648 103.095 95.648C104.075 95.648 104.425 95.046 104.425 94.038ZM106.329 90.706V94.094C106.329 95.97 105.041 97.062 103.095 97.062C101.149 97.062 99.8612 95.97 99.8612 94.094V90.706C99.8612 88.83 101.149 87.738 103.095 87.738C105.041 87.738 106.329 88.83 106.329 90.706ZM122.431 87.29V92.078H124.447L124.167 93.646H122.431V99.82L120.513 100.1V87.57L122.431 87.29ZM116.733 87.934V91.616C116.733 91.91 116.817 92.218 116.985 92.442C117.713 93.422 118.819 94.766 119.771 95.83L118.651 96.908C117.671 95.872 116.481 94.556 115.767 93.604C114.941 94.654 113.737 96.138 112.743 97.216L111.567 96.194C112.519 95.088 113.639 93.744 114.465 92.554C114.633 92.316 114.773 91.994 114.773 91.7V88.214L116.733 87.934ZM125.794 92.386C125.794 91.084 127.04 90.034 128.986 90.034C130.932 90.034 132.178 91.084 132.178 92.386V92.834C132.178 93.87 131.38 94.752 130.078 95.074V96.474C131.1 96.418 132.234 96.32 133.144 96.166V97.552C131.142 97.832 129 97.916 126.844 97.916H124.996V96.516H128.104V95.116C126.662 94.85 125.794 93.926 125.794 92.834V92.386ZM133.662 87.57L135.552 87.29V99.82L133.662 100.1V87.57ZM132.57 89.754H125.192V88.354H128.02V87.43L129.952 87.15V88.354H132.85L132.57 89.754ZM130.358 92.512C130.358 91.826 129.798 91.364 128.986 91.364C128.174 91.364 127.614 91.826 127.614 92.512V92.708C127.614 93.394 128.174 93.856 128.986 93.856C129.798 93.856 130.358 93.394 130.358 92.708V92.512ZM145.568 100.058H143.832C142.418 98.084 141.508 96.152 141.508 93.674C141.508 91.028 142.418 89.292 143.832 87.29H145.568C144.336 89.292 143.454 91.056 143.454 93.674C143.454 96.138 144.336 98.084 145.568 100.058ZM153.32 97.118L153.04 98.728H146.628V87.864H153.152V89.46H148.616V92.302H152.816V93.926H148.616V97.118H153.32ZM157.571 92.428H159.489C161.029 92.428 162.121 93.66 162.121 95.396C162.121 97.678 160.553 98.728 158.243 98.728H154.645V97.118H158.075C159.321 97.118 160.133 96.67 160.133 95.494C160.133 94.598 159.671 94.024 158.971 94.024H157.249C155.625 94.024 154.449 92.792 154.449 91.112C154.449 88.886 155.709 87.864 158.033 87.864H161.407L161.113 89.46H158.201C157.095 89.46 156.423 89.894 156.423 91.014C156.423 91.91 156.829 92.428 157.571 92.428ZM169.045 98.812H167.855C164.747 98.812 163.263 97.482 163.263 94.668V92.008C163.263 89.292 164.789 87.864 167.841 87.864H170.837L170.543 89.502H167.967C165.923 89.502 165.237 90.594 165.237 92.302V94.36C165.237 96.18 165.797 97.188 167.911 97.188H169.045V94.15H167.239V92.582H170.963V98.532L169.045 98.812ZM181.185 95.158V93.464H178.665V92.064H181.185V90.734H179.029C178.063 92.82 175.627 94.542 173.345 95.228L172.435 94.01C175.221 93.24 177.447 90.986 177.447 89.516V89.32H173.163V87.92H179.463V88.886C179.463 89.04 179.449 89.194 179.435 89.334H181.185V87.57L183.089 87.29V94.878L181.185 95.158ZM180.219 95.242C181.745 95.242 183.131 95.858 183.131 97.748C183.131 99.652 181.745 100.268 180.219 100.268H177.223C175.641 100.268 174.227 99.652 174.227 97.748C174.227 95.858 175.641 95.242 177.223 95.242H180.219ZM180.037 96.628H177.377C176.621 96.628 176.103 96.936 176.103 97.748C176.103 98.574 176.621 98.882 177.377 98.882H180.037C180.737 98.882 181.255 98.574 181.255 97.748C181.255 96.936 180.737 96.628 180.037 96.628ZM193.927 95.032V93.17H191.757V92.722C191.211 93.758 189.993 94.304 188.663 94.304C186.857 94.304 185.261 93.296 185.261 91.42V90.594C185.261 88.718 186.857 87.71 188.663 87.71C189.993 87.71 191.211 88.256 191.757 89.306V88.564H193.927V87.57L195.817 87.29V94.752L193.927 95.032ZM192.961 95.242C194.487 95.242 195.873 95.858 195.873 97.748C195.873 99.652 194.487 100.268 192.961 100.268H189.965C188.383 100.268 186.969 99.652 186.969 97.748C186.969 95.858 188.383 95.242 189.965 95.242H192.961ZM192.779 96.628H190.119C189.363 96.628 188.845 96.936 188.845 97.748C188.845 98.574 189.363 98.882 190.119 98.882H192.779C193.479 98.882 193.997 98.574 193.997 97.748C193.997 96.936 193.479 96.628 192.779 96.628ZM190.175 91.364V90.65C190.175 89.67 189.517 89.11 188.663 89.11C187.809 89.11 187.151 89.67 187.151 90.65V91.364C187.151 92.344 187.809 92.904 188.663 92.904C189.517 92.904 190.175 92.344 190.175 91.364ZM192.065 91.42C192.065 91.546 192.051 91.658 192.037 91.77H193.927V89.95H191.995C192.037 90.16 192.065 90.37 192.065 90.594V91.42ZM208.559 87.29V99.96L206.669 100.24V87.57L208.559 87.29ZM202.805 95.676V99.554L200.901 99.834V95.732H198.003V94.332H200.523C202.217 94.332 204.443 94.234 206.151 93.926V95.354C205.101 95.522 203.925 95.62 202.805 95.676ZM205.325 90.328V90.762C205.325 92.554 203.757 93.52 202.021 93.52C200.285 93.52 198.717 92.554 198.717 90.762V90.328C198.717 88.536 200.285 87.57 202.021 87.57C203.757 87.57 205.325 88.536 205.325 90.328ZM203.435 90.678V90.412C203.435 89.488 202.805 88.97 202.021 88.97C201.237 88.97 200.607 89.488 200.607 90.412V90.678C200.607 91.602 201.237 92.12 202.021 92.12C202.805 92.12 203.435 91.602 203.435 90.678ZM217.816 90.202C217.816 91.826 216.36 92.736 214.708 92.736C213.056 92.736 211.6 91.826 211.6 90.202V89.894C211.6 88.27 213.056 87.36 214.708 87.36C216.36 87.36 217.816 88.27 217.816 89.894V90.202ZM219.412 96.964V96.138H216.542V94.808H219.412V87.57L221.302 87.29V96.684L219.412 96.964ZM221.386 100.044H213.07V96.88H215.002V98.644H221.666L221.386 100.044ZM215.464 94.486V96.544H213.546V94.57H210.746V93.226H213.7C215.072 93.226 217.088 93.1 218.894 92.736V94.108C217.83 94.304 216.668 94.416 215.464 94.486ZM215.982 90.188V89.908C215.982 89.138 215.408 88.704 214.708 88.704C214.008 88.704 213.434 89.138 213.434 89.908V90.188C213.434 90.958 214.008 91.392 214.708 91.392C215.408 91.392 215.982 90.958 215.982 90.188ZM224.286 92.386C224.286 91.084 225.532 90.034 227.478 90.034C229.424 90.034 230.67 91.084 230.67 92.386V92.834C230.67 93.87 229.872 94.752 228.57 95.074V96.474C229.592 96.418 230.726 96.32 231.636 96.166V97.552C229.634 97.832 227.492 97.916 225.336 97.916H223.488V96.516H226.596V95.116C225.154 94.85 224.286 93.926 224.286 92.834V92.386ZM232.154 87.57L234.044 87.29V99.82L232.154 100.1V87.57ZM231.062 89.754H223.684V88.354H226.512V87.43L228.444 87.15V88.354H231.342L231.062 89.754ZM228.85 92.512C228.85 91.826 228.29 91.364 227.478 91.364C226.666 91.364 226.106 91.826 226.106 92.512V92.708C226.106 93.394 226.666 93.856 227.478 93.856C228.29 93.856 228.85 93.394 228.85 92.708V92.512ZM239.632 93.674C239.632 96.166 238.694 98.07 237.294 100.058H235.572C236.79 98.084 237.7 96.138 237.7 93.674C237.7 91.056 236.79 89.292 235.572 87.29H237.294C238.708 89.292 239.632 91.028 239.632 93.674Z" fill="white"/>
<rect opacity="0.6" x="0.5" y="360.5" width="338" height="671" rx="15.5" fill="white" stroke="#999999" stroke-linecap="round" stroke-dasharray="3 3"/>
<rect x="30" y="410" width="279" height="60" rx="6" fill="#1B4B66"/>
<path d="M144.987 443.118L144.707 444.728H138.295V433.864H144.819V435.46H140.283V438.302H144.483V439.926H140.283V443.118H144.987ZM149.238 438.428H151.156C152.696 438.428 153.788 439.66 153.788 441.396C153.788 443.678 152.22 444.728 149.91 444.728H146.312V443.118H149.742C150.988 443.118 151.8 442.67 151.8 441.494C151.8 440.598 151.338 440.024 150.638 440.024H148.916C147.292 440.024 146.116 438.792 146.116 437.112C146.116 434.886 147.376 433.864 149.7 433.864H153.074L152.78 435.46H149.868C148.762 435.46 148.09 435.894 148.09 437.014C148.09 437.91 148.496 438.428 149.238 438.428ZM160.712 444.812H159.522C156.414 444.812 154.93 443.482 154.93 440.668V438.008C154.93 435.292 156.456 433.864 159.508 433.864H162.504L162.21 435.502H159.634C157.59 435.502 156.904 436.594 156.904 438.302V440.36C156.904 442.18 157.464 443.188 159.578 443.188H160.712V440.15H158.906V438.582H162.63V444.532L160.712 444.812ZM172.852 441.158V439.464H170.332V438.064H172.852V436.734H170.696C169.73 438.82 167.294 440.542 165.012 441.228L164.102 440.01C166.888 439.24 169.114 436.986 169.114 435.516V435.32H164.83V433.92H171.13V434.886C171.13 435.04 171.116 435.194 171.102 435.334H172.852V433.57L174.756 433.29V440.878L172.852 441.158ZM171.886 441.242C173.412 441.242 174.798 441.858 174.798 443.748C174.798 445.652 173.412 446.268 171.886 446.268H168.89C167.308 446.268 165.894 445.652 165.894 443.748C165.894 441.858 167.308 441.242 168.89 441.242H171.886ZM171.704 442.628H169.044C168.288 442.628 167.77 442.936 167.77 443.748C167.77 444.574 168.288 444.882 169.044 444.882H171.704C172.404 444.882 172.922 444.574 172.922 443.748C172.922 442.936 172.404 442.628 171.704 442.628ZM185.594 441.032V439.17H183.424V438.722C182.878 439.758 181.66 440.304 180.33 440.304C178.524 440.304 176.928 439.296 176.928 437.42V436.594C176.928 434.718 178.524 433.71 180.33 433.71C181.66 433.71 182.878 434.256 183.424 435.306V434.564H185.594V433.57L187.484 433.29V440.752L185.594 441.032ZM184.628 441.242C186.154 441.242 187.54 441.858 187.54 443.748C187.54 445.652 186.154 446.268 184.628 446.268H181.632C180.05 446.268 178.636 445.652 178.636 443.748C178.636 441.858 180.05 441.242 181.632 441.242H184.628ZM184.446 442.628H181.786C181.03 442.628 180.512 442.936 180.512 443.748C180.512 444.574 181.03 444.882 181.786 444.882H184.446C185.146 444.882 185.664 444.574 185.664 443.748C185.664 442.936 185.146 442.628 184.446 442.628ZM181.842 437.364V436.65C181.842 435.67 181.184 435.11 180.33 435.11C179.476 435.11 178.818 435.67 178.818 436.65V437.364C178.818 438.344 179.476 438.904 180.33 438.904C181.184 438.904 181.842 438.344 181.842 437.364ZM183.732 437.42C183.732 437.546 183.718 437.658 183.704 437.77H185.594V435.95H183.662C183.704 436.16 183.732 436.37 183.732 436.594V437.42ZM197.748 438.596V439.982C196.656 440.234 195.102 440.304 193.702 440.304H190.244V433.836H196.628V435.236H192.19V436.356H196.516V437.742H192.19V438.918H193.87C195.004 438.918 196.46 438.862 197.748 438.596ZM200.226 433.29V440.738L198.322 441.018V433.57L200.226 433.29ZM200.226 441.508V445.75L198.294 446.1H191.952V441.508H200.226ZM193.884 444.7H198.294V442.908H193.884V444.7Z" fill="white"/>
<rect x="30.5" y="474.5" width="278" height="63" rx="5.5" fill="white"/>
<path d="M137.152 511V501.102H140.68C142.983 501.102 144.111 502.38 144.111 504.205C144.111 505.538 143.51 506.543 142.307 507.001L144.494 511H142.785L140.775 507.268H140.68H138.656V511H137.152ZM138.656 505.969H140.529C141.985 505.962 142.594 505.319 142.594 504.205C142.594 503.091 141.985 502.394 140.529 502.387H138.656V505.969ZM148.541 511.137C146.552 511.137 145.328 509.961 145.328 508.375C145.328 507.186 146.107 506.461 147.242 505.688C146.613 504.923 146.155 504.226 146.148 503.344C146.155 501.97 147.14 500.992 148.65 500.992C150.175 500.992 151.111 501.99 151.111 503.152C151.111 504.096 150.619 504.786 149.799 505.381L149.115 505.88L151.098 508.245C151.351 507.753 151.508 507.165 151.508 506.502H152.82C152.82 507.876 152.424 508.758 151.993 509.318L153.408 511H151.768L151.098 510.214C150.421 510.843 149.437 511.137 148.541 511.137ZM146.791 508.334C146.784 509.182 147.481 509.906 148.555 509.906C149.156 509.906 149.771 509.674 150.277 509.257L148.062 506.659L147.816 506.844C147.037 507.418 146.784 508.02 146.791 508.334ZM147.516 503.357C147.516 503.863 147.871 504.369 148.322 504.923L148.924 504.492C149.464 504.137 149.785 503.774 149.785 503.193C149.785 502.729 149.348 502.209 148.678 502.209C147.994 502.216 147.516 502.79 147.516 503.357ZM157.701 511H154.488V501.102H157.797C160.716 501.102 162.452 502.954 162.459 506.037C162.452 509.127 160.716 511 157.701 511ZM155.992 509.688H157.619C159.861 509.681 160.969 508.375 160.969 506.037C160.969 503.706 159.861 502.414 157.701 502.414H155.992V509.688ZM171.031 500.473C172.877 500.466 174.21 501.498 174.217 503.016C174.21 504.52 172.877 505.559 171.031 505.545C169.192 505.559 167.866 504.52 167.873 503.016C167.866 501.498 169.192 500.466 171.031 500.473ZM166.998 506.502C169.261 506.502 172.385 506.454 175.064 506.051L175.16 507.021C174.039 507.233 172.884 507.363 171.756 507.438V511.779H170.457V507.514C169.268 507.568 168.146 507.575 167.176 507.582L166.998 506.502ZM169.131 503.016C169.117 503.904 169.917 504.492 171.031 504.479C172.173 504.492 172.973 503.904 172.973 503.016C172.973 502.12 172.173 501.519 171.031 501.525C169.917 501.519 169.117 502.12 169.131 503.016ZM175.912 512.162V499.926H177.197V512.162H175.912ZM189.297 499.926V509.209H187.998V508.033H185.537V507.117H187.998V499.926H189.297ZM179.057 505.518C181.319 505.497 184.375 505.477 186.986 505.148L187.068 506.078C186.022 506.256 184.922 506.365 183.842 506.44V508.826H182.543V506.509C181.354 506.557 180.212 506.557 179.221 506.557L179.057 505.518ZM180.014 502.551C180.007 501.252 181.244 500.391 183.062 500.391C184.854 500.391 186.098 501.252 186.098 502.551C186.098 503.856 184.854 504.684 183.062 504.684C181.251 504.684 180.007 503.856 180.014 502.551ZM180.752 511.902V508.307H182.037V510.85H189.598V511.902H180.752ZM181.244 502.551C181.237 503.275 181.976 503.727 183.062 503.727C184.108 503.727 184.86 503.275 184.867 502.551C184.86 501.819 184.108 501.348 183.062 501.361C181.976 501.348 181.237 501.819 181.244 502.551ZM201.342 499.912V512.162H200.043V499.912H201.342ZM191.279 508.826C192.291 508.819 193.439 508.812 194.643 508.785V507.555C193.214 507.363 192.284 506.522 192.291 505.326C192.284 503.945 193.487 503.036 195.258 503.029C197.049 503.036 198.272 503.945 198.279 505.326C198.272 506.509 197.35 507.343 195.928 507.548V508.737C197.062 508.683 198.211 508.601 199.291 508.457L199.387 509.428C196.666 509.879 193.699 509.913 191.457 509.906L191.279 508.826ZM191.539 502.414V501.375H194.643V499.939H195.941V501.375H199.018V502.414H191.539ZM193.521 505.326C193.508 506.105 194.232 506.591 195.258 506.584C196.317 506.591 197.035 506.105 197.035 505.326C197.035 504.54 196.317 504.041 195.258 504.041C194.232 504.041 193.508 504.54 193.521 505.326Z" fill="#282828"/>
<rect x="30.5" y="474.5" width="278" height="63" rx="5.5" stroke="#E1E6EF"/>
<rect x="30" y="558" width="279" height="60" rx="6" fill="#1B4B66"/>
<path d="M147.081 578.158V576.464H144.561V575.064H147.081V573.734H144.925C143.959 575.82 141.523 577.542 139.241 578.228L138.331 577.01C141.117 576.24 143.343 573.986 143.343 572.516V572.32H139.059V570.92H145.359V571.886C145.359 572.04 145.345 572.194 145.331 572.334H147.081V570.57L148.985 570.29V577.878L147.081 578.158ZM146.115 578.242C147.641 578.242 149.027 578.858 149.027 580.748C149.027 582.652 147.641 583.268 146.115 583.268H143.119C141.537 583.268 140.123 582.652 140.123 580.748C140.123 578.858 141.537 578.242 143.119 578.242H146.115ZM145.933 579.628H143.273C142.517 579.628 141.999 579.936 141.999 580.748C141.999 581.574 142.517 581.882 143.273 581.882H145.933C146.633 581.882 147.151 581.574 147.151 580.748C147.151 579.936 146.633 579.628 145.933 579.628ZM159.823 578.032V576.17H157.653V575.722C157.107 576.758 155.889 577.304 154.559 577.304C152.753 577.304 151.157 576.296 151.157 574.42V573.594C151.157 571.718 152.753 570.71 154.559 570.71C155.889 570.71 157.107 571.256 157.653 572.306V571.564H159.823V570.57L161.713 570.29V577.752L159.823 578.032ZM158.857 578.242C160.383 578.242 161.769 578.858 161.769 580.748C161.769 582.652 160.383 583.268 158.857 583.268H155.861C154.279 583.268 152.865 582.652 152.865 580.748C152.865 578.858 154.279 578.242 155.861 578.242H158.857ZM158.675 579.628H156.015C155.259 579.628 154.741 579.936 154.741 580.748C154.741 581.574 155.259 581.882 156.015 581.882H158.675C159.375 581.882 159.893 581.574 159.893 580.748C159.893 579.936 159.375 579.628 158.675 579.628ZM156.071 574.364V573.65C156.071 572.67 155.413 572.11 154.559 572.11C153.705 572.11 153.047 572.67 153.047 573.65V574.364C153.047 575.344 153.705 575.904 154.559 575.904C155.413 575.904 156.071 575.344 156.071 574.364ZM157.961 574.42C157.961 574.546 157.947 574.658 157.933 574.77H159.823V572.95H157.891C157.933 573.16 157.961 573.37 157.961 573.594V574.42ZM174.119 570.29V574.448H176.051L175.771 575.862H174.119V579.376L172.187 579.656V570.57L174.119 570.29ZM163.703 576.926H165.859V573.846H167.721V576.926C168.953 576.884 170.507 576.772 171.697 576.576V577.962C169.709 578.242 167.553 578.326 165.397 578.326H163.703V576.926ZM174.189 583.044H165.873V579.11H167.805V581.644H174.469L174.189 583.044ZM169.135 572.208H164.291V570.808H171.137C171.081 572.264 170.871 574.798 170.535 575.974H168.659C168.967 574.938 169.135 573.104 169.135 572.208ZM181.485 574.714V572.502H177.215V571.116H183.403V576.086H179.161V578.326H180.169C181.443 578.326 183.389 578.27 184.733 577.99V579.376C183.305 579.614 181.317 579.712 180.001 579.712H177.215V574.714H181.485ZM187.197 570.29V582.82L185.293 583.1V570.57L187.197 570.29ZM197.461 575.596V576.982C196.369 577.234 194.815 577.304 193.415 577.304H189.957V570.836H196.341V572.236H191.903V573.356H196.229V574.742H191.903V575.918H193.583C194.717 575.918 196.173 575.862 197.461 575.596ZM199.939 570.29V577.738L198.035 578.018V570.57L199.939 570.29ZM199.939 578.508V582.75L198.007 583.1H191.665V578.508H199.939ZM193.597 581.7H198.007V579.908H193.597V581.7ZM129.189 605.058H127.453C126.039 603.084 125.129 601.152 125.129 598.674C125.129 596.028 126.039 594.292 127.453 592.29H129.189C127.957 594.292 127.075 596.056 127.075 598.674C127.075 601.138 127.957 603.084 129.189 605.058ZM141.814 601.67L141.534 603.098H129.676V601.67H141.814ZM131.16 593.2H140.078C140.022 596.056 139.77 598.408 138.86 600.998H136.928C137.67 599.01 138.104 596.196 138.104 594.586H131.16V593.2ZM147.668 595.818V594.418H143.398V593.032H149.572V597.176H145.344V598.604H146.352C147.612 598.604 149.544 598.52 150.902 598.268V599.668C149.46 599.906 147.486 599.99 146.184 599.99H143.398V595.818H147.668ZM153.38 592.29V601.516L151.476 601.796V592.57L153.38 592.29ZM153.464 605.044H145.246V601.166H147.192V603.644H153.744L153.464 605.044ZM164.232 600.158V598.464H161.712V597.064H164.232V595.734H162.076C161.11 597.82 158.674 599.542 156.392 600.228L155.482 599.01C158.268 598.24 160.494 595.986 160.494 594.516V594.32H156.21V592.92H162.51V593.886C162.51 594.04 162.496 594.194 162.482 594.334H164.232V592.57L166.136 592.29V599.878L164.232 600.158ZM163.266 600.242C164.792 600.242 166.178 600.858 166.178 602.748C166.178 604.652 164.792 605.268 163.266 605.268H160.27C158.688 605.268 157.274 604.652 157.274 602.748C157.274 600.858 158.688 600.242 160.27 600.242H163.266ZM163.084 601.628H160.424C159.668 601.628 159.15 601.936 159.15 602.748C159.15 603.574 159.668 603.882 160.424 603.882H163.084C163.784 603.882 164.302 603.574 164.302 602.748C164.302 601.936 163.784 601.628 163.084 601.628ZM176.974 600.032V598.17H174.804V597.722C174.258 598.758 173.04 599.304 171.71 599.304C169.904 599.304 168.308 598.296 168.308 596.42V595.594C168.308 593.718 169.904 592.71 171.71 592.71C173.04 592.71 174.258 593.256 174.804 594.306V593.564H176.974V592.57L178.864 592.29V599.752L176.974 600.032ZM176.008 600.242C177.534 600.242 178.92 600.858 178.92 602.748C178.92 604.652 177.534 605.268 176.008 605.268H173.012C171.43 605.268 170.016 604.652 170.016 602.748C170.016 600.858 171.43 600.242 173.012 600.242H176.008ZM175.826 601.628H173.166C172.41 601.628 171.892 601.936 171.892 602.748C171.892 603.574 172.41 603.882 173.166 603.882H175.826C176.526 603.882 177.044 603.574 177.044 602.748C177.044 601.936 176.526 601.628 175.826 601.628ZM173.222 596.364V595.65C173.222 594.67 172.564 594.11 171.71 594.11C170.856 594.11 170.198 594.67 170.198 595.65V596.364C170.198 597.344 170.856 597.904 171.71 597.904C172.564 597.904 173.222 597.344 173.222 596.364ZM175.112 596.42C175.112 596.546 175.098 596.658 175.084 596.77H176.974V594.95H175.042C175.084 595.16 175.112 595.37 175.112 595.594V596.42ZM195.18 600.186V604.75L193.234 605.1H186.92V600.186H195.18ZM192.702 596.882V598.268C191.568 598.492 189.86 598.66 188.124 598.66H185.422V592.836H191.456V594.236H187.368V597.26H188.6C189.972 597.26 191.694 597.092 192.702 596.882ZM195.18 592.29V595.076H197.196L196.916 596.476H195.18V599.416L193.262 599.696V592.57L195.18 592.29ZM188.852 603.7H193.234V601.572H188.852V603.7ZM205.206 600.242C206.732 600.242 208.118 600.858 208.118 602.748C208.118 604.652 206.732 605.268 205.206 605.268H202.21C200.628 605.268 199.214 604.652 199.214 602.748C199.214 600.858 200.628 600.242 202.21 600.242H205.206ZM205.444 597.19V598.59C204.31 598.8 202.602 598.968 200.866 598.968H198.164V592.892H204.198V594.292H200.11V597.582H201.342C202.714 597.582 204.436 597.414 205.444 597.19ZM207.922 592.29V595.076H209.938L209.658 596.504H207.922V599.598L206.004 599.878V592.57L207.922 592.29ZM205.024 601.628H202.364C201.608 601.628 201.09 601.936 201.09 602.748C201.09 603.574 201.608 603.882 202.364 603.882H205.024C205.724 603.882 206.242 603.574 206.242 602.748C206.242 601.936 205.724 601.628 205.024 601.628ZM213.86 598.674C213.86 601.166 212.922 603.07 211.522 605.058H209.8C211.018 603.084 211.928 601.138 211.928 598.674C211.928 596.056 211.018 594.292 209.8 592.29H211.522C212.936 594.292 213.86 596.028 213.86 598.674Z" fill="white"/>
<rect x="30.5" y="622.5" width="278" height="63" rx="5.5" fill="white"/>
<path d="M118.88 647.926V656.895H117.581V652.287H115.243V651.234H117.581V647.926H118.88ZM108.681 654.338C110.561 653.702 111.736 652.089 111.729 650.4V649.922H109.077V648.855H115.681V649.922H113.056V650.4C113.049 651.925 114.156 653.463 116.009 654.078L115.339 655.117C113.965 654.639 112.946 653.654 112.413 652.438C111.88 653.791 110.807 654.871 109.351 655.391L108.681 654.338ZM110.923 659.902V656.088H112.222V658.85H119.208V659.902H110.923ZM132.169 649.785V650.852H130.392V652.369H132.169V653.449H130.392V655.363H129.093V647.926H130.392V649.785H132.169ZM121.259 649.689V648.637H126.837V652.137H122.571V653.709C124.697 653.695 126.201 653.627 127.985 653.326L128.122 654.379C126.229 654.7 124.608 654.782 122.257 654.775H121.272V651.125H125.565V649.689H121.259ZM122.298 657.031V655.979H130.392V660.148H129.093V657.031H122.298ZM147.454 655.295V656.361H142.505V660.176H141.22V656.361H136.284V655.295H147.454ZM136.94 653.408C139.265 653.114 141.138 651.815 141.22 650.441H137.337V649.389H141.22V647.912H142.505V649.389H146.388V650.441H142.519C142.587 651.802 144.439 653.114 146.771 653.408L146.306 654.447C144.337 654.174 142.662 653.251 141.869 652C141.076 653.265 139.395 654.174 137.419 654.447L136.94 653.408ZM152.923 650.469C152.923 652.055 154.092 653.545 155.985 654.146L155.315 655.158C153.907 654.693 152.848 653.729 152.287 652.506C151.74 653.839 150.646 654.892 149.19 655.404L148.521 654.379C150.428 653.729 151.604 652.144 151.61 650.469V649.936H148.862V648.883H155.616V649.936H152.923V650.469ZM150.53 659.902V656.02H151.843V658.85H158.911V659.902H150.53ZM157.243 656.867V647.926H158.542V656.867H157.243ZM170.368 648.691V653.723H164.544V648.691H170.368ZM165.351 659.123C167.579 658.904 169.322 657.79 169.411 656.689H165.843V655.705H169.438V654.557H170.724V655.705H174.333V656.689H170.751C170.84 657.756 172.542 658.877 174.771 659.123L174.333 660.121C172.412 659.889 170.826 659.068 170.088 657.988C169.336 659.082 167.729 659.889 165.802 660.121L165.351 659.123ZM165.815 652.711H169.083V649.73H165.815V652.711ZM172.761 654.912V647.912H174.046V654.912H172.761ZM189.563 647.912V654.215H188.278V647.912H189.563ZM179.46 653.121C181.374 652.485 182.543 650.879 182.55 649.184V648.24H183.876V649.184C183.869 650.824 185.045 652.314 186.925 652.902L186.282 653.914C184.854 653.449 183.78 652.485 183.227 651.241C182.673 652.581 181.579 653.647 180.116 654.146L179.46 653.121ZM181.524 655.828V654.803H189.577V657.865H182.823V659H189.987V660.039H181.565V656.881H188.292V655.828H181.524ZM201.964 647.912V655.637H200.733V652.219H199.312V655.213H198.095V648.145H199.312V651.152H200.733V647.912H201.964ZM191.45 650.332V649.307H193.925V648.008H195.21V649.307H197.644V650.332H191.45ZM191.929 653.012C191.929 651.74 193.022 650.906 194.554 650.906C196.119 650.906 197.206 651.74 197.206 653.012C197.206 654.283 196.119 655.117 194.554 655.117C193.022 655.117 191.929 654.283 191.929 653.012ZM193.091 653.012C193.091 653.709 193.686 654.167 194.554 654.174C195.436 654.167 196.037 653.709 196.03 653.012C196.037 652.314 195.436 651.856 194.554 651.863C193.686 651.856 193.091 652.314 193.091 653.012ZM193.72 657.988C193.706 656.601 195.265 655.814 197.862 655.814C200.467 655.814 202.025 656.601 202.032 657.988C202.025 659.362 200.467 660.142 197.862 660.135C195.265 660.142 193.706 659.362 193.72 657.988ZM195.005 657.988C194.991 658.727 196.044 659.15 197.862 659.137C199.688 659.15 200.727 658.727 200.733 657.988C200.727 657.216 199.688 656.806 197.862 656.812C196.044 656.806 194.991 657.216 195.005 657.988ZM213.858 648.842V649.525C213.845 650.346 213.845 651.562 213.544 653.148L212.259 653.025C212.525 651.672 212.566 650.681 212.58 649.908H207.679V648.842H213.858ZM206.94 654.201C207.692 654.201 208.547 654.194 209.442 654.174V651.59H210.728V654.133C212.04 654.078 213.394 653.982 214.624 653.805L214.706 654.748C212.149 655.199 209.224 655.247 207.063 655.254L206.94 654.201ZM208.8 659.902V656.279H210.099V658.85H217.126V659.902H208.8ZM215.403 657.113V647.912H216.729V651.809H218.411V652.902H216.729V657.113H215.403ZM229.308 647.912V660.189H228.009V647.912H229.308ZM219.819 650.072V649.02H225.562V653.49H221.159V656.17C223.148 656.163 224.878 656.067 226.929 655.732L227.052 656.799C224.885 657.161 223.039 657.243 220.872 657.25H219.833V652.451H224.235V650.072H219.819Z" fill="#282828"/>
<rect x="30.5" y="622.5" width="278" height="63" rx="5.5" stroke="#E1E6EF"/>
<rect x="30" y="706" width="279" height="60" rx="6" fill="#1B4B66"/>
<path d="M128.418 735.254H133.57V734.106H130.21V729.626H138.736V731.012H132.156V732.734H138.988L138.708 734.106H135.586V735.254H140.556L140.276 736.64H128.418V735.254ZM136.02 737.41C137.588 737.41 139.002 737.998 139.002 739.874C139.002 741.764 137.588 742.352 136.02 742.352H132.926C131.358 742.352 129.944 741.764 129.944 739.874C129.944 737.998 131.358 737.41 132.926 737.41H136.02ZM135.95 738.81H133.01C132.38 738.81 131.82 739.076 131.82 739.874C131.82 740.686 132.38 740.952 133.01 740.952H135.95C136.58 740.952 137.126 740.686 137.126 739.874C137.126 739.076 136.58 738.81 135.95 738.81ZM145.85 732.594V731.32H142.14V729.92H147.74V733.966H144.086V735.352H144.814C146.088 735.352 148.02 735.268 149.364 735.03V736.416C147.936 736.668 145.934 736.752 144.66 736.752H142.14V732.594H145.85ZM152.122 729.29V737.046L150.218 737.326V734.638H148.3V733.252H150.218V732.132H148.3V730.746H150.218V729.57L152.122 729.29ZM143.736 737.676H152.122V742.072L150.19 742.352V739.062H143.736V737.676ZM162.386 734.596V735.982C161.294 736.234 159.74 736.304 158.34 736.304H154.882V729.836H161.266V731.236H156.828V732.356H161.154V733.742H156.828V734.918H158.508C159.642 734.918 161.098 734.862 162.386 734.596ZM164.864 729.29V736.738L162.96 737.018V729.57L164.864 729.29ZM164.864 737.508V741.75L162.932 742.1H156.59V737.508H164.864ZM158.522 740.7H162.932V738.908H158.522V740.7ZM170.41 729.542H172.132L168.604 741.064H166.868L170.41 729.542ZM181.26 737.326C182.786 737.326 184.172 737.928 184.172 739.79C184.172 741.666 182.786 742.268 181.26 742.268H177.984C176.402 742.268 174.988 741.666 174.988 739.79C174.988 737.928 176.402 737.326 177.984 737.326H181.26ZM181.526 729.486V732.272H182.464V729.57L184.228 729.29V736.752L182.464 737.032V733.658H181.526V736.654L179.79 736.934V729.766L181.526 729.486ZM175.212 733.126C175.338 732.916 175.338 732.496 175.338 732.202V729.976L177.158 729.696V732.16C177.158 732.454 177.172 732.818 177.326 733.056C177.788 733.77 178.684 734.89 179.51 735.716L178.362 736.766C177.704 736.136 176.948 735.282 176.318 734.554C175.646 735.366 174.932 736.178 174.05 737.046L172.86 736.038C173.938 734.932 174.722 733.91 175.212 733.126ZM181.078 738.712H178.138C177.382 738.712 176.864 739.006 176.864 739.79C176.864 740.588 177.382 740.882 178.138 740.882H181.078C181.778 740.882 182.296 740.588 182.296 739.79C182.296 739.006 181.778 738.712 181.078 738.712ZM190.712 729.696V732.664C190.712 732.958 190.768 733.266 190.964 733.476C191.832 734.428 192.77 735.338 193.75 736.15L192.63 737.228C191.636 736.43 190.6 735.534 189.746 734.596C188.892 735.576 187.744 736.668 186.722 737.536L185.546 736.514C186.526 735.646 187.562 734.694 188.416 733.588C188.598 733.364 188.724 733.042 188.724 732.762V729.976L190.712 729.696ZM194.534 729.57L196.452 729.29V733.168H198.468L198.188 734.596H196.452V738.208L194.534 738.488V729.57ZM196.648 742.044H188.318V737.97H190.264V740.644H196.928L196.648 742.044ZM207.052 734.596V735.982C205.96 736.234 204.406 736.304 203.006 736.304H199.548V729.836H205.932V731.236H201.494V732.356H205.82V733.742H201.494V734.918H203.174C204.308 734.918 205.764 734.862 207.052 734.596ZM209.53 729.29V736.738L207.626 737.018V729.57L209.53 729.29ZM209.53 737.508V741.75L207.598 742.1H201.256V737.508H209.53ZM203.188 740.7H207.598V738.908H203.188V740.7Z" fill="white"/>
<rect x="30.5" y="770.5" width="278" height="63" rx="5.5" fill="white"/>
<path d="M134.644 783.912V796.162H133.399V783.912H134.644ZM124.239 789.203C124.239 786.551 125.278 784.89 126.878 784.896C128.368 784.89 129.373 786.305 129.523 788.602H130.911V784.145H132.155V795.561H130.911V789.654H129.53C129.414 792.047 128.396 793.53 126.878 793.523C125.278 793.53 124.239 791.862 124.239 789.203ZM125.442 789.203C125.442 791.151 125.996 792.3 126.878 792.293C127.78 792.3 128.341 791.151 128.341 789.203C128.341 787.248 127.78 786.106 126.878 786.113C125.996 786.106 125.442 787.248 125.442 789.203ZM146.429 783.912V796.189H145.13V788.93H141.479V787.863H145.13V783.912H146.429ZM136.858 793.236V785.266H138.171V792.156C139.921 792.129 141.568 792.02 143.353 791.664L143.517 792.73C141.541 793.134 139.764 793.243 137.843 793.236H136.858ZM152.813 787.521C152.807 789.572 154.153 791.691 156.04 792.498L155.329 793.51C153.887 792.874 152.738 791.521 152.171 789.887C151.604 791.637 150.455 793.127 149.026 793.824L148.274 792.799C150.12 791.931 151.487 789.634 151.501 787.521V786.223H148.698V785.143H155.603V786.223H152.813V787.521ZM157.147 796.162V783.912H158.446V796.162H157.147ZM162.603 794.057L161.509 797.83H160.347L161.071 794.057H162.603ZM178.571 790.365V791.432H167.401V790.365H172.337V789.183C170.04 789.046 168.598 788.15 168.604 786.715C168.598 785.19 170.313 784.261 172.979 784.254C175.632 784.261 177.348 785.19 177.354 786.715C177.348 788.15 175.905 789.046 173.622 789.183V790.365H178.571ZM168.81 795.902V792.348H170.122V794.85H177.313V795.902H168.81ZM169.944 786.715C169.938 787.638 171.1 788.144 172.979 788.15C174.853 788.144 176.021 787.638 176.015 786.715C176.021 785.84 174.853 785.3 172.979 785.307C171.1 785.3 169.938 785.84 169.944 786.715ZM189.646 783.912V790.215H188.36V783.912H189.646ZM179.542 789.121C181.456 788.485 182.625 786.879 182.632 785.184V784.24H183.958V785.184C183.951 786.824 185.127 788.314 187.007 788.902L186.364 789.914C184.936 789.449 183.862 788.485 183.309 787.241C182.755 788.581 181.661 789.647 180.198 790.146L179.542 789.121ZM181.606 791.828V790.803H189.659V793.865H182.905V795H190.069V796.039H181.647V792.881H188.374V791.828H181.606ZM201.144 783.912V788.793H203.044V789.873H201.144V796.148H199.845V783.912H201.144ZM191.614 792.881C194.684 791.35 196.352 789.135 196.618 786.277H192.229V785.197H197.944C197.931 788.738 196.372 791.903 192.339 793.893L191.614 792.881ZM209.921 785.648C209.921 787.645 212.047 789.531 214.405 789.955L213.804 791.035C211.842 790.611 210.044 789.326 209.251 787.604C208.444 789.319 206.646 790.598 204.685 791.035L204.11 789.955C206.435 789.518 208.547 787.645 208.554 785.648V784.719H209.921V785.648ZM203.7 794.549V793.469H214.911V794.549H203.7ZM120.001 807.912V810.797H121.778V811.877H120.001V814.83H118.702V807.912H120.001ZM110.321 813.969C113.254 813.196 114.977 811.658 115.216 809.744H110.896V808.678H116.624C116.617 811.815 114.491 814.023 110.841 815.008L110.321 813.969ZM112.153 819.998V815.35H120.001V819.998H112.153ZM113.452 818.959H118.716V816.43H113.452V818.959ZM133.646 814.037V815.076H128.696V816.361H132.278V820.135H130.966V817.414H123.72V816.361H127.411V815.076H122.476V814.037H133.646ZM123.077 812.451C125.511 812.226 127.192 811.337 127.336 810.113H123.597V809.088H127.411V807.871H128.696V809.088H132.524V810.113H128.771C128.901 811.337 130.576 812.226 133.03 812.451L132.62 813.422C130.508 813.23 128.806 812.526 128.054 811.371C127.295 812.526 125.586 813.23 123.487 813.422L123.077 812.451ZM138.827 811.029C138.813 813.196 140.078 815.418 141.903 816.307L141.097 817.346C139.764 816.648 138.731 815.281 138.191 813.647C137.645 815.384 136.571 816.854 135.177 817.578L134.37 816.525C136.25 815.623 137.521 813.271 137.528 811.029V808.938H138.827V811.029ZM142.819 820.162V807.912H144.118V812.793H146.087V813.9H144.118V820.162H142.819ZM150.065 808.473C151.679 808.459 152.93 809.396 153.196 810.77H155.589V807.912H156.888V814.488H155.589V811.836H153.203C152.95 813.244 151.692 814.188 150.065 814.188C148.192 814.188 146.846 813.005 146.853 811.316C146.846 809.648 148.192 808.459 150.065 808.473ZM148.097 811.316C148.09 812.362 148.91 813.094 150.065 813.094C151.2 813.094 152.007 812.362 152.007 811.316C152.007 810.264 151.2 809.546 150.065 809.553C148.91 809.546 148.09 810.264 148.097 811.316ZM148.903 820.012V815.076H150.188V816.498H155.589V815.076H156.888V820.012H148.903ZM150.188 818.945H155.589V817.523H150.188V818.945ZM163.942 808.432V810.1H167.155V808.432H168.44V813.777H162.671V808.432H163.942ZM163.901 815.773V814.748H171.817V817.838H165.2V819H172.241V820.039H163.929V816.881H170.532V815.773H163.901ZM163.942 812.738H167.155V811.098H163.942V812.738ZM170.519 814.215V807.912H171.817V810.482H173.595V811.535H171.817V814.215H170.519ZM184.081 808.404V809.197C184.088 809.99 184.088 811.016 183.835 812.287H185.503V813.299H180.513V814.748H184.095V817.811H176.917V819H184.409V820.039H175.618V816.895H182.81V815.773H175.604V814.748H179.228V813.299H174.292V812.287H182.536C182.769 811.091 182.796 810.202 182.796 809.443H175.7V808.404H184.081ZM196.276 808.691V813.723H190.452V808.691H196.276ZM191.259 819.123C193.487 818.904 195.23 817.79 195.319 816.689H191.751V815.705H195.347V814.557H196.632V815.705H200.241V816.689H196.659C196.748 817.756 198.45 818.877 200.679 819.123L200.241 820.121C198.32 819.889 196.734 819.068 195.996 817.988C195.244 819.082 193.638 819.889 191.71 820.121L191.259 819.123ZM191.724 812.711H194.991V809.73H191.724V812.711ZM198.669 814.912V807.912H199.954V814.912H198.669ZM215.472 807.912V814.215H214.187V807.912H215.472ZM205.368 813.121C207.282 812.485 208.451 810.879 208.458 809.184V808.24H209.784V809.184C209.777 810.824 210.953 812.314 212.833 812.902L212.19 813.914C210.762 813.449 209.688 812.485 209.135 811.241C208.581 812.581 207.487 813.647 206.024 814.146L205.368 813.121ZM207.433 815.828V814.803H215.485V817.865H208.731V819H215.896V820.039H207.474V816.881H214.2V815.828H207.433ZM227.872 807.912V815.637H226.642V812.219H225.22V815.213H224.003V808.145H225.22V811.152H226.642V807.912H227.872ZM217.358 810.332V809.307H219.833V808.008H221.118V809.307H223.552V810.332H217.358ZM217.837 813.012C217.837 811.74 218.931 810.906 220.462 810.906C222.027 810.906 223.114 811.74 223.114 813.012C223.114 814.283 222.027 815.117 220.462 815.117C218.931 815.117 217.837 814.283 217.837 813.012ZM218.999 813.012C218.999 813.709 219.594 814.167 220.462 814.174C221.344 814.167 221.945 813.709 221.938 813.012C221.945 812.314 221.344 811.856 220.462 811.863C219.594 811.856 218.999 812.314 218.999 813.012ZM219.628 817.988C219.614 816.601 221.173 815.814 223.771 815.814C226.375 815.814 227.934 816.601 227.94 817.988C227.934 819.362 226.375 820.142 223.771 820.135C221.173 820.142 219.614 819.362 219.628 817.988ZM220.913 817.988C220.899 818.727 221.952 819.15 223.771 819.137C225.596 819.15 226.635 818.727 226.642 817.988C226.635 817.216 225.596 816.806 223.771 816.812C221.952 816.806 220.899 817.216 220.913 817.988Z" fill="#282828"/>
<rect x="30.5" y="770.5" width="278" height="63" rx="5.5" stroke="#E1E6EF"/>
<rect x="30" y="854" width="279" height="60" rx="6" fill="#1B4B66"/>
<path d="M139.115 881.966C139.115 880.622 140.515 879.894 142.265 879.894C144.015 879.894 145.415 880.622 145.415 881.966V882.176C145.415 883.254 144.519 883.968 143.259 884.206V885.004C144.211 884.962 145.121 884.878 146.213 884.682V886.04C144.225 886.32 142.069 886.404 139.913 886.404H138.219V885.032H141.299V884.206C140.025 883.982 139.115 883.268 139.115 882.176V881.966ZM148.635 877.29V881.56H150.567L150.287 883.044H148.635V887.006L146.703 887.286V877.57L148.635 877.29ZM148.705 890.044H140.389V886.894H142.321V888.644H148.985L148.705 890.044ZM145.709 879.642H138.681V878.326H141.355V877.444L143.287 877.164V878.326H145.989L145.709 879.642ZM143.595 882.022C143.595 881.56 143.035 881.21 142.265 881.21C141.495 881.21 140.935 881.56 140.935 882.022V882.12C140.935 882.568 141.495 882.974 142.265 882.974C143.035 882.974 143.595 882.568 143.595 882.12V882.022ZM159.823 885.158V883.464H157.303V882.064H159.823V880.734H157.667C156.701 882.82 154.265 884.542 151.983 885.228L151.073 884.01C153.859 883.24 156.085 880.986 156.085 879.516V879.32H151.801V877.92H158.101V878.886C158.101 879.04 158.087 879.194 158.073 879.334H159.823V877.57L161.727 877.29V884.878L159.823 885.158ZM158.857 885.242C160.383 885.242 161.769 885.858 161.769 887.748C161.769 889.652 160.383 890.268 158.857 890.268H155.861C154.279 890.268 152.865 889.652 152.865 887.748C152.865 885.858 154.279 885.242 155.861 885.242H158.857ZM158.675 886.628H156.015C155.259 886.628 154.741 886.936 154.741 887.748C154.741 888.574 155.259 888.882 156.015 888.882H158.675C159.375 888.882 159.893 888.574 159.893 887.748C159.893 886.936 159.375 886.628 158.675 886.628ZM170.493 880.734V881.546C170.493 883.422 168.925 884.43 167.161 884.43C165.397 884.43 163.829 883.422 163.829 881.546V880.734C163.829 878.858 165.397 877.85 167.161 877.85C168.925 877.85 170.493 878.858 170.493 880.734ZM172.187 877.57L174.119 877.29V880.552H176.135L175.855 882.022H174.119V886.208L172.187 886.488V877.57ZM174.301 890.044H165.985V885.97H167.917V888.644H174.581L174.301 890.044ZM168.603 881.49V880.79C168.603 879.81 167.973 879.25 167.161 879.25C166.349 879.25 165.719 879.81 165.719 880.79V881.49C165.719 882.47 166.349 883.03 167.161 883.03C167.973 883.03 168.603 882.47 168.603 881.49ZM183.977 878.004L183.697 879.39H181.443V880.916C181.443 881.21 181.499 881.532 181.695 881.742C182.563 882.708 183.445 883.534 184.425 884.36L183.305 885.438C182.311 884.64 181.373 883.814 180.491 882.904C179.609 883.87 178.559 884.878 177.537 885.746L176.361 884.724C177.341 883.842 178.349 882.974 179.203 881.854C179.385 881.616 179.511 881.294 179.511 881V879.39H176.991V878.004H183.977ZM185.307 886.656V881.994H182.913V880.594H185.307V877.57L187.211 877.29V886.376L185.307 886.656ZM187.295 890.044H179.077V885.998H181.023V888.644H187.575L187.295 890.044ZM197.461 882.596V883.982C196.369 884.234 194.815 884.304 193.415 884.304H189.957V877.836H196.341V879.236H191.903V880.356H196.229V881.742H191.903V882.918H193.583C194.717 882.918 196.173 882.862 197.461 882.596ZM199.939 877.29V884.738L198.035 885.018V877.57L199.939 877.29ZM199.939 885.508V889.75L198.007 890.1H191.665V885.508H199.939ZM193.597 888.7H198.007V886.908H193.597V888.7Z" fill="white"/>
<rect x="30.5" y="918.5" width="278" height="63" rx="5.5" fill="white"/>
<path d="M118.046 935.029C118.032 937.196 119.297 939.418 121.122 940.307L120.315 941.346C118.982 940.648 117.95 939.281 117.41 937.647C116.863 939.384 115.79 940.854 114.396 941.578L113.589 940.525C115.469 939.623 116.74 937.271 116.747 935.029V932.938H118.046V935.029ZM122.038 944.162V931.912H123.337V936.793H125.306V937.9H123.337V944.162H122.038ZM129.284 932.473C130.897 932.459 132.148 933.396 132.415 934.77H134.808V931.912H136.106V938.488H134.808V935.836H132.422C132.169 937.244 130.911 938.188 129.284 938.188C127.411 938.188 126.064 937.005 126.071 935.316C126.064 933.648 127.411 932.459 129.284 932.473ZM127.315 935.316C127.309 936.362 128.129 937.094 129.284 937.094C130.419 937.094 131.226 936.362 131.226 935.316C131.226 934.264 130.419 933.546 129.284 933.553C128.129 933.546 127.309 934.264 127.315 935.316ZM128.122 944.012V939.076H129.407V940.498H134.808V939.076H136.106V944.012H128.122ZM129.407 942.945H134.808V941.523H129.407V942.945ZM142.272 934.168C142.266 935.727 143.353 937.148 145.212 937.736L144.597 938.748C143.202 938.304 142.184 937.381 141.644 936.219C141.11 937.559 140.037 938.618 138.567 939.131L137.897 938.092C139.812 937.463 140.967 935.884 140.974 934.182V933.84H138.28V932.787H144.911V933.84H142.272V934.168ZM139.552 941.838C139.552 940.402 141.117 939.562 143.667 939.568C146.189 939.562 147.728 940.402 147.728 941.838C147.728 943.294 146.189 944.142 143.667 944.135C141.117 944.142 139.552 943.294 139.552 941.838ZM140.851 941.838C140.844 942.658 141.896 943.116 143.667 943.109C145.424 943.116 146.463 942.658 146.456 941.838C146.463 941.038 145.424 940.587 143.667 940.594C141.896 940.587 140.844 941.038 140.851 941.838ZM146.319 939.268V931.912H147.618V934.947H149.396V936.014H147.618V939.268H146.319ZM163.149 931.912V936.109H164.899V937.189H163.149V941.482H161.851V931.912H163.149ZM153.429 939.104C154.372 939.104 155.473 939.104 156.628 939.062V938.208C155.233 938.044 154.345 937.374 154.358 936.369C154.345 935.18 155.514 934.469 157.271 934.482C159.027 934.469 160.176 935.18 160.183 936.369C160.176 937.374 159.308 938.044 157.927 938.201V939.001C159.021 938.939 160.128 938.837 161.153 938.68L161.263 939.596C158.651 940.088 155.705 940.122 153.565 940.143L153.429 939.104ZM153.743 934.004V933.047H156.628V931.871H157.927V933.047H160.812V934.004H153.743ZM155.233 943.902V940.84H156.532V942.85H163.587V943.902H155.233ZM155.589 936.369C155.589 936.964 156.225 937.34 157.271 937.34C158.303 937.34 158.945 936.964 158.938 936.369C158.945 935.733 158.303 935.364 157.271 935.371C156.225 935.364 155.589 935.733 155.589 936.369ZM175.823 931.926V939.172H174.524V937.682H171.435V936.615H174.524V935.125H171.564C170.771 937.094 168.933 938.481 166.28 939.24L165.761 938.229C168.659 937.401 170.354 935.843 170.587 933.867H166.39V932.801H171.995C171.995 933.252 171.947 933.689 171.865 934.1H174.524V931.926H175.823ZM167.661 941.701C167.661 940.218 169.274 939.315 171.79 939.309C174.271 939.315 175.898 940.218 175.905 941.701C175.898 943.191 174.271 944.107 171.79 944.107C169.274 944.107 167.661 943.191 167.661 941.701ZM168.946 941.701C168.946 942.562 170.04 943.062 171.79 943.068C173.506 943.062 174.6 942.562 174.606 941.701C174.6 940.826 173.506 940.327 171.79 940.334C170.04 940.327 168.946 940.826 168.946 941.701ZM183.288 932.65C185.906 932.657 187.813 933.949 187.813 935.904C187.813 937.736 186.214 938.96 183.931 939.145V941.551H188.921V942.631H177.71V941.551H182.646V939.145C180.376 938.96 178.77 937.736 178.776 935.904C178.77 933.949 180.684 932.657 183.288 932.65ZM180.034 935.904C180.034 937.278 181.401 938.133 183.288 938.146C185.188 938.133 186.549 937.278 186.556 935.904C186.549 934.578 185.188 933.703 183.288 933.717C181.401 933.703 180.034 934.578 180.034 935.904ZM193.2 932.596C194.219 932.596 195.094 932.972 195.668 933.607H198.724V931.912H200.022V938.912H198.724V937.422H195.668C195.094 938.058 194.219 938.434 193.2 938.434C191.354 938.434 189.98 937.224 189.987 935.521C189.98 933.799 191.354 932.596 193.2 932.596ZM191.231 935.521C191.225 936.602 192.052 937.333 193.2 937.34C194.314 937.333 195.142 936.602 195.142 935.521C195.142 934.441 194.314 933.683 193.2 933.689C192.052 933.683 191.225 934.441 191.231 935.521ZM191.942 944.012V939.514H200.022V944.012H191.942ZM193.228 942.959H198.751V940.553H193.228V942.959ZM196.263 934.674C196.345 934.94 196.386 935.221 196.386 935.521C196.386 935.809 196.345 936.082 196.27 936.342H198.724V934.674H196.263ZM212.136 931.912V944.189H210.837V937.381H208.308V936.314H210.837V931.912H212.136ZM201.772 940.771C203.646 939.876 204.965 937.559 204.972 935.357V934.209H202.265V933.143H209.005V934.209H206.284V935.357C206.284 937.429 207.59 939.664 209.47 940.498L208.69 941.537C207.275 940.854 206.188 939.425 205.642 937.757C205.095 939.534 203.98 941.059 202.565 941.783L201.772 940.771ZM223.634 931.912V934.797H225.411V935.877H223.634V938.83H222.335V931.912H223.634ZM213.954 937.969C216.887 937.196 218.609 935.658 218.849 933.744H214.528V932.678H220.257C220.25 935.815 218.124 938.023 214.474 939.008L213.954 937.969ZM215.786 943.998V939.35H223.634V943.998H215.786ZM217.085 942.959H222.349V940.43H217.085V942.959ZM145.923 955.912V958.961H147.673V960.068H145.923V963.131H144.624V955.912H145.923ZM136.202 961.969C137.152 961.969 138.253 961.962 139.401 961.935V961.244C137.993 961.114 137.118 960.547 137.132 959.631C137.118 958.633 138.267 958.045 140.044 958.045C141.808 958.045 142.949 958.633 142.956 959.631C142.949 960.54 142.088 961.107 140.7 961.244V961.88C141.794 961.832 142.901 961.743 143.927 961.6L144.036 962.447C141.404 962.878 138.492 962.898 136.339 962.898L136.202 961.969ZM136.517 957.689V956.787H139.401V955.803H140.7V956.787H143.585V957.689H136.517ZM137.829 964.553V963.65H145.923V966.207H139.155V967.137H146.374V968.039H137.856V965.373H144.638V964.553H137.829ZM138.362 959.631C138.362 960.123 138.998 960.424 140.044 960.424C141.076 960.424 141.719 960.123 141.712 959.631C141.719 959.159 141.076 958.893 140.044 958.893C138.998 958.893 138.362 959.159 138.362 959.631ZM159.567 961.873V962.912H148.384V961.873H153.347V960.574H149.778V956.473H158.187V957.498H151.063V959.535H158.269V960.574H154.604V961.873H159.567ZM149.71 965.934C149.71 964.512 151.303 963.712 153.962 963.705C156.601 963.712 158.18 964.512 158.187 965.934C158.18 967.355 156.601 968.155 153.962 968.162C151.303 968.155 149.71 967.355 149.71 965.934ZM151.022 965.934C151.016 966.72 152.089 967.15 153.962 967.137C155.808 967.15 156.888 966.72 156.888 965.934C156.888 965.161 155.808 964.717 153.962 964.717C152.089 964.717 151.016 965.161 151.022 965.934ZM170.368 956.691V961.723H164.544V956.691H170.368ZM165.351 967.123C167.579 966.904 169.322 965.79 169.411 964.689H165.843V963.705H169.438V962.557H170.724V963.705H174.333V964.689H170.751C170.84 965.756 172.542 966.877 174.771 967.123L174.333 968.121C172.412 967.889 170.826 967.068 170.088 965.988C169.336 967.082 167.729 967.889 165.802 968.121L165.351 967.123ZM165.815 960.711H169.083V957.73H165.815V960.711ZM172.761 962.912V955.912H174.046V962.912H172.761ZM186.241 956.842V957.525C186.228 958.346 186.228 959.562 185.927 961.148L184.642 961.025C184.908 959.672 184.949 958.681 184.963 957.908H180.062V956.842H186.241ZM179.323 962.201C180.075 962.201 180.93 962.194 181.825 962.174V959.59H183.11V962.133C184.423 962.078 185.776 961.982 187.007 961.805L187.089 962.748C184.532 963.199 181.606 963.247 179.446 963.254L179.323 962.201ZM181.183 967.902V964.279H182.481V966.85H189.509V967.902H181.183ZM187.786 965.113V955.912H189.112V959.809H190.794V960.902H189.112V965.113H187.786ZM201.69 955.912V968.189H200.392V955.912H201.69ZM192.202 958.072V957.02H197.944V961.49H193.542V964.17C195.531 964.163 197.261 964.067 199.312 963.732L199.435 964.799C197.268 965.161 195.422 965.243 193.255 965.25H192.216V960.451H196.618V958.072H192.202Z" fill="#282828"/>
<rect x="30.5" y="918.5" width="278" height="63" rx="5.5" stroke="#E1E6EF"/>
<rect x="96" y="360" width="148" height="13" fill="#FBFCFF"/>
<rect x="96" y="347" width="148" height="13" fill="#F4F8FF"/>
<path d="M127.507 352.76V360.152L125.331 360.472V353.08L127.507 352.76ZM127.603 367.464H118.051V363.48H125.299V362.552H118.019V361.032H127.507V364.952H120.275V365.944H127.923L127.603 367.464ZM120.707 352.872V355.176C120.707 355.512 120.787 355.88 120.995 356.12C121.971 357.176 123.027 358.184 124.147 359.096L122.835 360.296C121.731 359.464 120.499 358.36 119.587 357.448C118.563 358.504 117.331 359.64 116.147 360.6L114.803 359.432C115.955 358.456 117.107 357.416 118.083 356.248C118.307 355.976 118.435 355.608 118.435 355.272V353.192L120.707 352.872ZM131.605 353.48H141.269V359.096L139.061 359.496H131.605V353.48ZM143.397 361.032L143.077 362.616H137.685V367.208L135.445 367.528V362.616H129.525V361.032H143.397ZM133.829 357.912H139.061V355.08H133.829V357.912ZM155.912 355.192H152.168V355.912C152.168 356.248 152.2 356.648 152.456 356.856C153.608 357.768 155.56 359.256 157 360.152L155.816 361.496C154.36 360.616 152.168 359.112 151.032 358.184C149.896 359.128 147.608 360.68 146.2 361.608L145 360.28C146.52 359.32 148.408 357.992 149.528 356.984C149.784 356.76 149.88 356.344 149.88 356.008V355.192H145.944V353.608H156.232L155.912 355.192ZM144.088 363.864H149.976V360.712H152.28V363.864H157.96L157.64 365.496H144.088V363.864ZM167.178 355.048H164.602V356.104C164.602 356.44 164.666 356.808 164.89 357.048C165.882 358.152 166.89 359.096 168.01 360.04L166.73 361.272C165.594 360.36 164.522 359.416 163.514 358.376C162.506 359.48 161.306 360.632 160.138 361.624L158.794 360.456C159.914 359.448 161.066 358.456 162.042 357.176C162.25 356.904 162.394 356.536 162.394 356.2V355.048H159.53V353.448H167.498L167.178 355.048ZM161.61 362.152H171.194V367.368L168.986 367.688V363.72H161.61V362.152ZM171.194 352.76V361.272L169.018 361.592V353.08L171.194 352.76ZM178.673 353.288H185.681V359.592L183.521 359.912H178.673V353.288ZM190.257 363.64L186.465 363.656C186.465 363.944 186.497 364.248 186.753 364.376C188.097 365.16 189.409 365.8 191.025 366.52L190.001 367.864C188.385 367.192 186.737 366.408 185.393 365.688C184.161 366.376 182.401 367.272 180.785 367.976L179.729 366.648C181.457 365.912 182.705 365.208 183.905 364.488C184.161 364.344 184.241 363.976 184.257 363.656H180.273V362.136H184.257V360.808L186.465 360.488V362.136H190.577L190.257 363.64ZM190.209 352.76V360.84L188.049 361.16V353.08L190.209 352.76ZM183.521 354.888H180.833V358.36H183.521V354.888ZM207.112 361.592V359.416H204.52V358.872C203.88 360.008 202.552 360.6 201.096 360.6C199.08 360.6 197.288 359.448 197.288 357.304V356.488C197.288 354.344 199.08 353.192 201.096 353.192C202.552 353.192 203.88 353.8 204.52 354.936V354.248H207.112V353.08L209.272 352.76V361.272L207.112 361.592ZM199.704 362.152H209.272V367.368L207.08 367.688V363.72H199.704V362.152ZM202.744 357.24V356.552C202.744 355.432 202.056 354.792 201.096 354.792C200.136 354.792 199.448 355.432 199.448 356.552V357.24C199.448 358.36 200.136 359 201.096 359C202.056 359 202.744 358.36 202.744 357.24ZM204.904 357.304C204.904 357.48 204.888 357.656 204.856 357.816H207.112V355.848H204.84C204.872 356.056 204.904 356.264 204.904 356.488V357.304ZM223.547 367.464H214.011V363.688H221.227V362.888H213.979V361.4H223.451V365.128H216.203V365.944H223.867L223.547 367.464ZM212.203 357.976C212.203 356.28 213.851 355.4 215.851 355.4C217.851 355.4 219.499 356.28 219.499 357.976V358.216C219.499 359.912 217.851 360.84 215.851 360.84C213.851 360.84 212.203 359.912 212.203 358.216V357.976ZM223.451 352.76V356.408H225.755L225.435 358.024H223.451V360.52L221.243 360.84V353.08L223.451 352.76ZM219.947 355.032H211.435V353.512H214.667V352.584L216.875 352.264V353.512H220.267L219.947 355.032ZM217.419 357.992C217.419 357.304 216.731 356.856 215.851 356.856C214.971 356.856 214.283 357.304 214.283 357.992V358.2C214.283 358.872 214.971 359.384 215.851 359.384C216.731 359.384 217.419 358.872 217.419 358.2V357.992Z" fill="#1B4B66"/>
<defs>
<filter id="filter0_f_307_2100" x="44" y="53" width="251" height="88" filterUnits="userSpaceOnUse" color-interpolation-filters="sRGB">
<feFlood flood-opacity="0" result="BackgroundImageFix"/>
<feBlend mode="normal" in="SourceGraphic" in2="BackgroundImageFix" result="shape"/>
<feGaussianBlur stdDeviation="8" result="effect1_foregroundBlur_307_2100"/>
</filter>
</defs>
</svg>
