<svg width="1336" height="740" viewBox="0 0 1336 740" fill="none" xmlns="http://www.w3.org/2000/svg">
<g clip-path="url(#clip0_578_14318)">
<rect opacity="0.6" x="113.5" y="16.5" width="1109" height="323" rx="23.5" fill="white" stroke="#999999" stroke-linecap="round" stroke-dasharray="3 3"/>
<rect x="607" y="16" width="122" height="15" fill="#FBFCFF"/>
<rect x="607" y="1" width="122" height="15" fill="#F4F8FF"/>
<path d="M633.571 6.7V24.6L630.871 25V7.1L633.571 6.7ZM621.491 21.14H618.491V19.14H622.091C624.511 19.14 627.691 18.98 630.131 18.56V20.58C627.551 21.02 624.511 21.14 621.491 21.14ZM628.811 11.94V12.76C628.811 15.5 626.531 16.96 623.951 16.96C621.371 16.96 619.091 15.5 619.091 12.76V11.94C619.091 9.2 621.371 7.74 623.951 7.74C626.531 7.74 628.811 9.2 628.811 11.94ZM626.111 12.76V11.94C626.111 10.54 625.171 9.74 623.951 9.74C622.731 9.74 621.791 10.54 621.791 11.94V12.76C621.791 14.16 622.731 14.96 623.951 14.96C625.171 14.96 626.111 14.16 626.111 12.76ZM651.234 6.7V13.54H654.114L653.714 15.78H651.234V24.6L648.494 25V7.1L651.234 6.7ZM643.094 7.62V12.88C643.094 13.3 643.214 13.74 643.454 14.06C644.494 15.46 646.074 17.38 647.434 18.9L645.834 20.44C644.434 18.96 642.734 17.08 641.714 15.72C640.534 17.22 638.814 19.34 637.394 20.88L635.714 19.42C637.074 17.84 638.674 15.92 639.854 14.22C640.094 13.88 640.294 13.42 640.294 13V8.02L643.094 7.62ZM661.957 9.36H655.817V7.4H664.777V8.36C664.777 8.72 664.737 9.06 664.677 9.4H667.277V7.1L669.977 6.7V15.7L667.277 16.1V15.06H663.677V13.06H667.277V11.38H664.097V11.16C662.797 13.82 659.777 16.06 656.197 16.78L655.117 15C658.557 14.16 661.957 11.48 661.957 9.5V9.36ZM670.117 25.08H658.177V19.98H667.237V18.68H658.137V16.8H669.977V21.82H660.957V23.18H670.517L670.117 25.08ZM684.1 18.06C686.28 18.06 688.26 18.94 688.26 21.64C688.26 24.36 686.28 25.24 684.1 25.24H679.82C677.56 25.24 675.54 24.36 675.54 21.64C675.54 18.94 677.56 18.06 679.82 18.06H684.1ZM683.58 7.56L683.18 9.56H679.96V10.88C679.96 11.3 680.04 11.76 680.32 12.06C681.56 13.44 682.82 14.62 684.22 15.8L682.62 17.34C681.2 16.2 679.86 15.02 678.6 13.72C677.34 15.1 675.84 16.54 674.38 17.78L672.7 16.32C674.1 15.06 675.54 13.82 676.76 12.22C677.02 11.88 677.2 11.42 677.2 11V9.56H673.62V7.56H683.58ZM685.48 17.82V12.9H682.06V10.92H685.48V7.1L688.2 6.7V17.42L685.48 17.82ZM683.84 20.04H680.04C678.96 20.04 678.22 20.48 678.22 21.64C678.22 22.82 678.96 23.26 680.04 23.26H683.84C684.84 23.26 685.58 22.82 685.58 21.64C685.58 20.48 684.84 20.04 683.84 20.04ZM698.423 9.98H692.223V8H701.303V9.42C701.303 14.86 697.503 19.18 693.123 21.18L691.483 19.4C695.303 17.8 698.423 13.8 698.423 10.32V9.98ZM706.383 6.7V24.6L703.663 25V7.1L706.383 6.7ZM708.926 15.44H720.226C720.566 13.78 720.926 11.24 721.006 9.56H711.046V7.56H723.906C723.826 9.78 723.606 12.82 723.026 15.44H726.266L725.866 17.42H719.126V24.76L716.326 25.16V17.42H708.926V15.44Z" fill="#1B4B66"/>
<g opacity="0.5" filter="url(#filter0_f_578_14318)">
<rect x="521" y="78" width="294" height="68" rx="16" fill="#1B4B66"/>
</g>
<rect x="509" y="66" width="323" height="80" rx="16" fill="#1B4B66"/>
<path d="M577.128 96.17V115.86L574.158 116.3V96.61L577.128 96.17ZM568.24 106.774V101.604C568.24 100.02 567.69 99.096 566.15 99.096C564.61 99.096 564.06 100.02 564.06 101.604V106.774C564.06 108.358 564.61 109.304 566.15 109.304C567.69 109.304 568.24 108.358 568.24 106.774ZM571.232 101.538V106.862C571.232 109.81 569.208 111.526 566.15 111.526C563.092 111.526 561.068 109.81 561.068 106.862V101.538C561.068 98.59 563.092 96.874 566.15 96.874C569.208 96.874 571.232 98.59 571.232 101.538ZM596.535 96.17V103.694H599.703L599.263 106.158H596.535V115.86L593.521 116.3V96.61L596.535 96.17ZM587.581 97.182V102.968C587.581 103.43 587.713 103.914 587.977 104.266C589.121 105.806 590.859 107.918 592.355 109.59L590.595 111.284C589.055 109.656 587.185 107.588 586.063 106.092C584.765 107.742 582.873 110.074 581.311 111.768L579.463 110.162C580.959 108.424 582.719 106.312 584.017 104.442C584.281 104.068 584.501 103.562 584.501 103.1V97.622L587.581 97.182ZM601.818 104.178C601.818 102.132 603.776 100.482 606.834 100.482C609.892 100.482 611.85 102.132 611.85 104.178V104.882C611.85 106.51 610.596 107.896 608.55 108.402V110.602C610.156 110.514 611.938 110.36 613.368 110.118V112.296C610.222 112.736 606.856 112.868 603.468 112.868H600.564V110.668H605.448V108.468C603.182 108.05 601.818 106.598 601.818 104.882V104.178ZM614.182 96.61L617.152 96.17V115.86L614.182 116.3V96.61ZM612.466 100.042H600.872V97.842H605.316V96.39L608.352 95.95V97.842H612.906L612.466 100.042ZM608.99 104.376C608.99 103.298 608.11 102.572 606.834 102.572C605.558 102.572 604.678 103.298 604.678 104.376V104.684C604.678 105.762 605.558 106.488 606.834 106.488C608.11 106.488 608.99 105.762 608.99 104.684V104.376ZM632.892 116.234H630.164C627.942 113.132 626.512 110.096 626.512 106.202C626.512 102.044 627.942 99.316 630.164 96.17H632.892C630.956 99.316 629.57 102.088 629.57 106.202C629.57 110.074 630.956 113.132 632.892 116.234ZM645.075 111.614L644.635 114.144H634.559V97.072H644.811V99.58H637.683V104.046H644.283V106.598H637.683V111.614H645.075ZM651.754 104.244H654.768C657.188 104.244 658.904 106.18 658.904 108.908C658.904 112.494 656.44 114.144 652.81 114.144H647.156V111.614H652.546C654.504 111.614 655.78 110.91 655.78 109.062C655.78 107.654 655.054 106.752 653.954 106.752H651.248C648.696 106.752 646.848 104.816 646.848 102.176C646.848 98.678 648.828 97.072 652.48 97.072H657.782L657.32 99.58H652.744C651.006 99.58 649.95 100.262 649.95 102.022C649.95 103.43 650.588 104.244 651.754 104.244ZM669.786 114.276H667.916C663.032 114.276 660.7 112.186 660.7 107.764V103.584C660.7 99.316 663.098 97.072 667.894 97.072H672.602L672.14 99.646H668.092C664.88 99.646 663.802 101.362 663.802 104.046V107.28C663.802 110.14 664.682 111.724 668.004 111.724H669.786V106.95H666.948V104.486H672.8V113.836L669.786 114.276ZM688.862 108.534V105.872H684.902V103.672H688.862V101.582H685.474C683.956 104.86 680.128 107.566 676.542 108.644L675.112 106.73C679.49 105.52 682.988 101.978 682.988 99.668V99.36H676.256V97.16H686.156V98.678C686.156 98.92 686.134 99.162 686.112 99.382H688.862V96.61L691.854 96.17V108.094L688.862 108.534ZM687.344 108.666C689.742 108.666 691.92 109.634 691.92 112.604C691.92 115.596 689.742 116.564 687.344 116.564H682.636C680.15 116.564 677.928 115.596 677.928 112.604C677.928 109.634 680.15 108.666 682.636 108.666H687.344ZM687.058 110.844H682.878C681.69 110.844 680.876 111.328 680.876 112.604C680.876 113.902 681.69 114.386 682.878 114.386H687.058C688.158 114.386 688.972 113.902 688.972 112.604C688.972 111.328 688.158 110.844 687.058 110.844ZM708.886 108.336V105.41H705.476V104.706C704.618 106.334 702.704 107.192 700.614 107.192C697.776 107.192 695.268 105.608 695.268 102.66V101.362C695.268 98.414 697.776 96.83 700.614 96.83C702.704 96.83 704.618 97.688 705.476 99.338V98.172H708.886V96.61L711.856 96.17V107.896L708.886 108.336ZM707.368 108.666C709.766 108.666 711.944 109.634 711.944 112.604C711.944 115.596 709.766 116.564 707.368 116.564H702.66C700.174 116.564 697.952 115.596 697.952 112.604C697.952 109.634 700.174 108.666 702.66 108.666H707.368ZM707.082 110.844H702.902C701.714 110.844 700.9 111.328 700.9 112.604C700.9 113.902 701.714 114.386 702.902 114.386H707.082C708.182 114.386 708.996 113.902 708.996 112.604C708.996 111.328 708.182 110.844 707.082 110.844ZM702.99 102.572V101.45C702.99 99.91 701.956 99.03 700.614 99.03C699.272 99.03 698.238 99.91 698.238 101.45V102.572C698.238 104.112 699.272 104.992 700.614 104.992C701.956 104.992 702.99 104.112 702.99 102.572ZM705.96 102.66C705.96 102.858 705.938 103.034 705.916 103.21H708.886V100.35H705.85C705.916 100.68 705.96 101.01 705.96 101.362V102.66ZM731.879 96.17V116.08L728.909 116.52V96.61L731.879 96.17ZM722.837 109.348V115.442L719.845 115.882V109.436H715.291V107.236H719.251C721.913 107.236 725.411 107.082 728.095 106.598V108.842C726.445 109.106 724.597 109.26 722.837 109.348ZM726.797 100.944V101.626C726.797 104.442 724.333 105.96 721.605 105.96C718.877 105.96 716.413 104.442 716.413 101.626V100.944C716.413 98.128 718.877 96.61 721.605 96.61C724.333 96.61 726.797 98.128 726.797 100.944ZM723.827 101.494V101.076C723.827 99.624 722.837 98.81 721.605 98.81C720.373 98.81 719.383 99.624 719.383 101.076V101.494C719.383 102.946 720.373 103.76 721.605 103.76C722.837 103.76 723.827 102.946 723.827 101.494ZM746.424 100.746C746.424 103.298 744.136 104.728 741.54 104.728C738.944 104.728 736.656 103.298 736.656 100.746V100.262C736.656 97.71 738.944 96.28 741.54 96.28C744.136 96.28 746.424 97.71 746.424 100.262V100.746ZM748.932 111.372V110.074H744.422V107.984H748.932V96.61L751.902 96.17V110.932L748.932 111.372ZM752.034 116.212H738.966V111.24H742.002V114.012H752.474L752.034 116.212ZM742.728 107.478V110.712H739.714V107.61H735.314V105.498H739.956C742.112 105.498 745.28 105.3 748.118 104.728V106.884C746.446 107.192 744.62 107.368 742.728 107.478ZM743.542 100.724V100.284C743.542 99.074 742.64 98.392 741.54 98.392C740.44 98.392 739.538 99.074 739.538 100.284V100.724C739.538 101.934 740.44 102.616 741.54 102.616C742.64 102.616 743.542 101.934 743.542 100.724ZM756.592 104.178C756.592 102.132 758.55 100.482 761.608 100.482C764.666 100.482 766.624 102.132 766.624 104.178V104.882C766.624 106.51 765.37 107.896 763.324 108.402V110.602C764.93 110.514 766.712 110.36 768.142 110.118V112.296C764.996 112.736 761.63 112.868 758.242 112.868H755.338V110.668H760.222V108.468C757.956 108.05 756.592 106.598 756.592 104.882V104.178ZM768.956 96.61L771.926 96.17V115.86L768.956 116.3V96.61ZM767.24 100.042H755.646V97.842H760.09V96.39L763.126 95.95V97.842H767.68L767.24 100.042ZM763.764 104.376C763.764 103.298 762.884 102.572 761.608 102.572C760.332 102.572 759.452 103.298 759.452 104.376V104.684C759.452 105.762 760.332 106.488 761.608 106.488C762.884 106.488 763.764 105.762 763.764 104.684V104.376ZM780.707 106.202C780.707 110.118 779.233 113.11 777.033 116.234H774.327C776.241 113.132 777.671 110.074 777.671 106.202C777.671 102.088 776.241 99.316 774.327 96.17H777.033C779.255 99.316 780.707 102.044 780.707 106.202Z" fill="white"/>
<rect x="667.25" y="146.25" width="0.5" height="31.5" fill="#1B4B66" stroke="#C4C4C4" stroke-width="0.5"/>
<path d="M831 214V194C831 185.163 823.837 178 815 178H521C512.163 178 505 185.163 505 194V214" stroke="#C4C4C4"/>
<rect x="353" y="211" width="304" height="78" rx="15" fill="white" stroke="#E1E6EF" stroke-width="2"/>
<rect x="679" y="211" width="304" height="78" rx="15" fill="white" stroke="#E1E6EF" stroke-width="2"/>
<path d="M434.076 254.74L433.676 257.04H424.516V241.52H433.836V243.8H427.356V247.86H433.356V250.18H427.356V254.74H434.076ZM440.148 248.04H442.888C445.088 248.04 446.648 249.8 446.648 252.28C446.648 255.54 444.408 257.04 441.108 257.04H435.968V254.74H440.868C442.648 254.74 443.808 254.1 443.808 252.42C443.808 251.14 443.148 250.32 442.148 250.32H439.688C437.368 250.32 435.688 248.56 435.688 246.16C435.688 242.98 437.488 241.52 440.808 241.52H445.628L445.208 243.8H441.048C439.468 243.8 438.508 244.42 438.508 246.02C438.508 247.3 439.088 248.04 440.148 248.04ZM456.54 257.16H454.84C450.4 257.16 448.28 255.26 448.28 251.24V247.44C448.28 243.56 450.46 241.52 454.82 241.52H459.1L458.68 243.86H455C452.08 243.86 451.1 245.42 451.1 247.86V250.8C451.1 253.4 451.9 254.84 454.92 254.84H456.54V250.5H453.96V248.26H459.28V256.76L456.54 257.16ZM473.882 251.94V249.52H470.282V247.52H473.882V245.62H470.802C469.422 248.6 465.942 251.06 462.682 252.04L461.382 250.3C465.362 249.2 468.542 245.98 468.542 243.88V243.6H462.422V241.6H471.422V242.98C471.422 243.2 471.402 243.42 471.382 243.62H473.882V241.1L476.602 240.7V251.54L473.882 251.94ZM472.502 252.06C474.682 252.06 476.662 252.94 476.662 255.64C476.662 258.36 474.682 259.24 472.502 259.24H468.222C465.962 259.24 463.942 258.36 463.942 255.64C463.942 252.94 465.962 252.06 468.222 252.06H472.502ZM472.242 254.04H468.442C467.362 254.04 466.622 254.48 466.622 255.64C466.622 256.82 467.362 257.26 468.442 257.26H472.242C473.242 257.26 473.982 256.82 473.982 255.64C473.982 254.48 473.242 254.04 472.242 254.04ZM492.085 251.76V249.1H488.985V248.46C488.205 249.94 486.465 250.72 484.565 250.72C481.985 250.72 479.705 249.28 479.705 246.6V245.42C479.705 242.74 481.985 241.3 484.565 241.3C486.465 241.3 488.205 242.08 488.985 243.58V242.52H492.085V241.1L494.785 240.7V251.36L492.085 251.76ZM490.705 252.06C492.885 252.06 494.865 252.94 494.865 255.64C494.865 258.36 492.885 259.24 490.705 259.24H486.425C484.165 259.24 482.145 258.36 482.145 255.64C482.145 252.94 484.165 252.06 486.425 252.06H490.705ZM490.445 254.04H486.645C485.565 254.04 484.825 254.48 484.825 255.64C484.825 256.82 485.565 257.26 486.645 257.26H490.445C491.445 257.26 492.185 256.82 492.185 255.64C492.185 254.48 491.445 254.04 490.445 254.04ZM486.725 246.52V245.5C486.725 244.1 485.785 243.3 484.565 243.3C483.345 243.3 482.405 244.1 482.405 245.5V246.52C482.405 247.92 483.345 248.72 484.565 248.72C485.785 248.72 486.725 247.92 486.725 246.52ZM489.425 246.6C489.425 246.78 489.405 246.94 489.385 247.1H492.085V244.5H489.325C489.385 244.8 489.425 245.1 489.425 245.42V246.6ZM507.329 240.24V242.42H512.509L512.109 244.42H507.329V244.72C507.329 245.2 507.369 245.66 507.689 245.84C509.249 246.74 511.569 247.88 513.469 248.74L512.189 250.5C510.269 249.68 507.589 248.4 506.009 247.54C504.429 248.44 501.949 249.66 499.789 250.62L498.489 248.88C500.609 247.92 502.589 246.94 504.129 245.96C504.449 245.76 504.569 245.28 504.569 244.8V244.42H499.649V242.42H504.569V240.64L507.329 240.24ZM514.269 253.5H507.529V258.76L504.729 259.16V253.5H497.329V251.5H514.669L514.269 253.5ZM526.192 243.7H522.972V245.88C522.972 246.3 523.052 246.76 523.332 247.06C524.572 248.44 525.832 249.62 527.232 250.8L525.632 252.34C524.212 251.2 522.872 250.02 521.612 248.72C520.352 250.1 518.852 251.54 517.392 252.78L515.712 251.32C517.112 250.06 518.552 248.82 519.772 247.22C520.032 246.88 520.212 246.42 520.212 246V243.7H516.612V241.72H526.592L526.192 243.7ZM531.212 240.7V253.44L528.492 253.84V241.1L531.212 240.7ZM531.332 258.92H519.592V253.14H522.372V256.92H531.732L531.332 258.92ZM549.395 240.7V258.8L546.695 259.2V241.1L549.395 240.7ZM541.175 252.68V258.22L538.455 258.62V252.76H534.315V250.76H537.915C540.335 250.76 543.515 250.62 545.955 250.18V252.22C544.455 252.46 542.775 252.6 541.175 252.68ZM544.775 245.04V245.66C544.775 248.22 542.535 249.6 540.055 249.6C537.575 249.6 535.335 248.22 535.335 245.66V245.04C535.335 242.48 537.575 241.1 540.055 241.1C542.535 241.1 544.775 242.48 544.775 245.04ZM542.075 245.54V245.16C542.075 243.84 541.175 243.1 540.055 243.1C538.935 243.1 538.035 243.84 538.035 245.16V245.54C538.035 246.86 538.935 247.6 540.055 247.6C541.175 247.6 542.075 246.86 542.075 245.54ZM562.618 244.86C562.618 247.18 560.538 248.48 558.178 248.48C555.818 248.48 553.738 247.18 553.738 244.86V244.42C553.738 242.1 555.818 240.8 558.178 240.8C560.538 240.8 562.618 242.1 562.618 244.42V244.86ZM564.898 254.52V253.34H560.798V251.44H564.898V241.1L567.598 240.7V254.12L564.898 254.52ZM567.718 258.92H555.838V254.4H558.598V256.92H568.118L567.718 258.92ZM559.258 250.98V253.92H556.518V251.1H552.518V249.18H556.738C558.698 249.18 561.578 249 564.158 248.48V250.44C562.638 250.72 560.978 250.88 559.258 250.98ZM559.998 244.84V244.44C559.998 243.34 559.178 242.72 558.178 242.72C557.178 242.72 556.358 243.34 556.358 244.44V244.84C556.358 245.94 557.178 246.56 558.178 246.56C559.178 246.56 559.998 245.94 559.998 244.84ZM571.861 247.98C571.861 246.12 573.641 244.62 576.421 244.62C579.201 244.62 580.981 246.12 580.981 247.98V248.62C580.981 250.1 579.841 251.36 577.981 251.82V253.82C579.441 253.74 581.061 253.6 582.361 253.38V255.36C579.501 255.76 576.441 255.88 573.361 255.88H570.721V253.88H575.161V251.88C573.101 251.5 571.861 250.18 571.861 248.62V247.98ZM583.101 241.1L585.801 240.7V258.6L583.101 259V241.1ZM581.541 244.22H571.001V242.22H575.041V240.9L577.801 240.5V242.22H581.941L581.541 244.22ZM578.381 248.16C578.381 247.18 577.581 246.52 576.421 246.52C575.261 246.52 574.461 247.18 574.461 248.16V248.44C574.461 249.42 575.261 250.08 576.421 250.08C577.581 250.08 578.381 249.42 578.381 248.44V248.16Z" fill="#1B4B66"/>
<path d="M789.916 251.24L792.256 257.12H789.236L787.276 252C786.816 250.82 786.176 250.52 785.676 250.52H783.836V256.84L781.016 257.24V241.52H786.676C789.556 241.52 791.376 242.82 791.376 245.64C791.376 247.46 790.176 249 788.516 249.4V249.46C789.176 249.66 789.716 250.7 789.916 251.24ZM788.656 245.98C788.656 244.26 787.516 243.8 786.476 243.8H783.836V248.26H785.996C787.456 248.26 788.656 247.64 788.656 245.98ZM804.206 253.54L806.826 256.44H803.466L802.426 255.18C801.386 256.24 799.986 256.7 798.466 256.7C795.646 256.7 793.426 255.08 793.426 252.4C793.426 250.56 794.286 249.18 796.506 248.24C795.446 247.2 794.626 246.3 794.626 244.7C794.626 242.46 796.826 241.26 798.866 241.26C800.846 241.26 802.886 242.4 802.886 244.66C802.886 246.62 801.566 247.72 800.026 248.58L802.646 251.8C803.326 251 803.586 249.6 803.666 248.36H806.066C805.966 250.3 805.266 252.2 804.206 253.54ZM800.486 244.86C800.486 243.78 799.746 243.22 798.866 243.22C798.026 243.22 797.206 243.82 797.206 244.92C797.206 245.76 797.986 246.56 798.546 247.16C799.286 246.78 800.486 245.8 800.486 244.86ZM801.106 253.64L797.906 249.76C796.906 250.3 796.086 251.1 796.086 252.3C796.086 253.64 797.226 254.66 798.586 254.66C799.666 254.66 800.506 254.24 801.106 253.64ZM821.034 249.26C821.034 254.68 818.854 257.04 813.834 257.04H808.734V241.52H813.834C818.774 241.52 821.034 243.94 821.034 249.26ZM818.054 249.28C818.054 245.7 816.734 243.8 814.254 243.8H811.574V254.74H814.214C816.774 254.74 818.054 252.92 818.054 249.28ZM844.075 240.7V258.8L841.375 259.2V241.1L844.075 240.7ZM835.855 252.68V258.22L833.135 258.62V252.76H828.995V250.76H832.595C835.015 250.76 838.195 250.62 840.635 250.18V252.22C839.135 252.46 837.455 252.6 835.855 252.68ZM839.455 245.04V245.66C839.455 248.22 837.215 249.6 834.735 249.6C832.255 249.6 830.015 248.22 830.015 245.66V245.04C830.015 242.48 832.255 241.1 834.735 241.1C837.215 241.1 839.455 242.48 839.455 245.04ZM836.755 245.54V245.16C836.755 243.84 835.855 243.1 834.735 243.1C833.615 243.1 832.715 243.84 832.715 245.16V245.54C832.715 246.86 833.615 247.6 834.735 247.6C835.855 247.6 836.755 246.86 836.755 245.54ZM857.298 244.86C857.298 247.18 855.218 248.48 852.858 248.48C850.498 248.48 848.418 247.18 848.418 244.86V244.42C848.418 242.1 850.498 240.8 852.858 240.8C855.218 240.8 857.298 242.1 857.298 244.42V244.86ZM859.578 254.52V253.34H855.478V251.44H859.578V241.1L862.278 240.7V254.12L859.578 254.52ZM862.398 258.92H850.518V254.4H853.278V256.92H862.798L862.398 258.92ZM853.938 250.98V253.92H851.198V251.1H847.198V249.18H851.418C853.378 249.18 856.258 249 858.838 248.48V250.44C857.318 250.72 855.658 250.88 853.938 250.98ZM854.678 244.84V244.44C854.678 243.34 853.858 242.72 852.858 242.72C851.858 242.72 851.038 243.34 851.038 244.44V244.84C851.038 245.94 851.858 246.56 852.858 246.56C853.858 246.56 854.678 245.94 854.678 244.84ZM866.541 247.98C866.541 246.12 868.321 244.62 871.101 244.62C873.881 244.62 875.661 246.12 875.661 247.98V248.62C875.661 250.1 874.521 251.36 872.661 251.82V253.82C874.121 253.74 875.741 253.6 877.041 253.38V255.36C874.181 255.76 871.121 255.88 868.041 255.88H865.401V253.88H869.841V251.88C867.781 251.5 866.541 250.18 866.541 248.62V247.98ZM877.781 241.1L880.481 240.7V258.6L877.781 259V241.1ZM876.221 244.22H865.681V242.22H869.721V240.9L872.481 240.5V242.22H876.621L876.221 244.22ZM873.061 248.16C873.061 247.18 872.261 246.52 871.101 246.52C869.941 246.52 869.141 247.18 869.141 248.16V248.44C869.141 249.42 869.941 250.08 871.101 250.08C872.261 250.08 873.061 249.42 873.061 248.44V248.16Z" fill="#1B4B66"/>
<path d="M510 211C510 213.761 507.761 216 505 216C502.239 216 500 213.761 500 211C500 208.239 502.239 206 505 206C507.761 206 510 208.239 510 211Z" fill="white" stroke="#1B4B66" stroke-width="2"/>
<circle cx="831" cy="211" r="5" fill="white" stroke="#1B4B66" stroke-width="2"/>
<rect opacity="0.6" x="115.5" y="416.5" width="1107" height="323" rx="23.5" fill="white" stroke="#999999" stroke-linecap="round" stroke-dasharray="3 3"/>
<rect x="595" y="416" width="152" height="15" fill="#FBFCFF"/>
<rect x="595" y="401" width="152" height="15" fill="#F4F8FF"/>
<path d="M619.384 407.235V416.475L616.664 416.875V407.635L619.384 407.235ZM619.504 425.615H607.564V420.635H616.624V419.475H607.524V417.575H619.384V422.475H610.344V423.715H619.904L619.504 425.615ZM610.884 407.375V410.255C610.884 410.675 610.984 411.135 611.244 411.435C612.464 412.755 613.784 414.015 615.184 415.155L613.544 416.655C612.164 415.615 610.624 414.235 609.484 413.095C608.204 414.415 606.664 415.835 605.184 417.035L603.504 415.575C604.944 414.355 606.384 413.055 607.604 411.595C607.884 411.255 608.044 410.795 608.044 410.375V407.775L610.884 407.375ZM624.507 408.135H636.587V415.155L633.827 415.655H624.507V408.135ZM639.247 417.575L638.847 419.555H632.107V425.295L629.307 425.695V419.555H621.907V417.575H639.247ZM627.287 413.675H633.827V410.135H627.287V413.675ZM654.89 410.275H650.21V411.175C650.21 411.595 650.25 412.095 650.57 412.355C652.01 413.495 654.45 415.355 656.25 416.475L654.77 418.155C652.95 417.055 650.21 415.175 648.79 414.015C647.37 415.195 644.51 417.135 642.75 418.295L641.25 416.635C643.15 415.435 645.51 413.775 646.91 412.515C647.23 412.235 647.35 411.715 647.35 411.295V410.275H642.43V408.295H655.29L654.89 410.275ZM640.11 421.115H647.47V417.175H650.35V421.115H657.45L657.05 423.155H640.11V421.115ZM668.973 410.095H665.753V411.415C665.753 411.835 665.833 412.295 666.113 412.595C667.353 413.975 668.613 415.155 670.013 416.335L668.413 417.875C666.993 416.735 665.653 415.555 664.393 414.255C663.133 415.635 661.633 417.075 660.173 418.315L658.493 416.855C659.893 415.595 661.333 414.355 662.553 412.755C662.813 412.415 662.993 411.955 662.993 411.535V410.095H659.413V408.095H669.373L668.973 410.095ZM662.013 418.975H673.993V425.495L671.233 425.895V420.935H662.013V418.975ZM673.993 407.235V417.875L671.273 418.275V407.635L673.993 407.235ZM683.342 407.895H692.102V415.775L689.402 416.175H683.342V407.895ZM697.822 420.835L693.082 420.855C693.082 421.215 693.122 421.595 693.442 421.755C695.122 422.735 696.762 423.535 698.782 424.435L697.502 426.115C695.482 425.275 693.422 424.295 691.742 423.395C690.202 424.255 688.002 425.375 685.982 426.255L684.662 424.595C686.822 423.675 688.382 422.795 689.882 421.895C690.202 421.715 690.302 421.255 690.322 420.855H685.342V418.955H690.322V417.295L693.082 416.895V418.955H698.222L697.822 420.835ZM697.762 407.235V417.335L695.062 417.735V407.635L697.762 407.235ZM689.402 409.895H686.042V414.235H689.402V409.895ZM718.89 418.275V415.555H715.65V414.875C714.85 416.295 713.19 417.035 711.37 417.035C708.85 417.035 706.61 415.595 706.61 412.915V411.895C706.61 409.215 708.85 407.775 711.37 407.775C713.19 407.775 714.85 408.535 715.65 409.955V409.095H718.89V407.635L721.59 407.235V417.875L718.89 418.275ZM709.63 418.975H721.59V425.495L718.85 425.895V420.935H709.63V418.975ZM713.43 412.835V411.975C713.43 410.575 712.57 409.775 711.37 409.775C710.17 409.775 709.31 410.575 709.31 411.975V412.835C709.31 414.235 710.17 415.035 711.37 415.035C712.57 415.035 713.43 414.235 713.43 412.835ZM716.13 412.915C716.13 413.135 716.11 413.355 716.07 413.555H718.89V411.095H716.05C716.09 411.355 716.13 411.615 716.13 411.895V412.915ZM739.433 425.615H727.513V420.895H736.533V419.895H727.473V418.035H739.313V422.695H730.253V423.715H739.833L739.433 425.615ZM725.253 413.755C725.253 411.635 727.313 410.535 729.813 410.535C732.313 410.535 734.373 411.635 734.373 413.755V414.055C734.373 416.175 732.313 417.335 729.813 417.335C727.313 417.335 725.253 416.175 725.253 414.055V413.755ZM739.313 407.235V411.795H742.193L741.793 413.815H739.313V416.935L736.553 417.335V407.635L739.313 407.235ZM734.933 410.075H724.293V408.175H728.333V407.015L731.093 406.615V408.175H735.333L734.933 410.075ZM731.773 413.775C731.773 412.915 730.913 412.355 729.813 412.355C728.713 412.355 727.853 412.915 727.853 413.775V414.035C727.853 414.875 728.713 415.515 729.813 415.515C730.913 415.515 731.773 414.875 731.773 414.035V413.775Z" fill="#1B4B66"/>
<rect x="0.5" y="-0.5" width="222" height="99" rx="7.5" transform="matrix(1 0 0 -1 205 673)" fill="white" stroke="#E1E6EF"/>
<rect x="205" y="482" width="223" height="84" rx="8" fill="#1B4B66"/>
<path d="M280.982 528.74L280.582 531.04H271.422V515.52H280.742V517.8H274.262V521.86H280.262V524.18H274.262V528.74H280.982ZM287.054 522.04H289.794C291.994 522.04 293.554 523.8 293.554 526.28C293.554 529.54 291.314 531.04 288.014 531.04H282.874V528.74H287.774C289.554 528.74 290.714 528.1 290.714 526.42C290.714 525.14 290.054 524.32 289.054 524.32H286.594C284.274 524.32 282.594 522.56 282.594 520.16C282.594 516.98 284.394 515.52 287.714 515.52H292.534L292.114 517.8H287.954C286.374 517.8 285.414 518.42 285.414 520.02C285.414 521.3 285.994 522.04 287.054 522.04ZM303.446 531.16H301.746C297.306 531.16 295.186 529.26 295.186 525.24V521.44C295.186 517.56 297.366 515.52 301.726 515.52H306.006L305.586 517.86H301.906C298.986 517.86 298.006 519.42 298.006 521.86V524.8C298.006 527.4 298.806 528.84 301.826 528.84H303.446V524.5H300.866V522.26H306.186V530.76L303.446 531.16ZM320.789 525.94V523.52H317.189V521.52H320.789V519.62H317.709C316.329 522.6 312.849 525.06 309.589 526.04L308.289 524.3C312.269 523.2 315.449 519.98 315.449 517.88V517.6H309.329V515.6H318.329V516.98C318.329 517.2 318.309 517.42 318.289 517.62H320.789V515.1L323.509 514.7V525.54L320.789 525.94ZM319.409 526.06C321.589 526.06 323.569 526.94 323.569 529.64C323.569 532.36 321.589 533.24 319.409 533.24H315.129C312.869 533.24 310.849 532.36 310.849 529.64C310.849 526.94 312.869 526.06 315.129 526.06H319.409ZM319.149 528.04H315.349C314.269 528.04 313.529 528.48 313.529 529.64C313.529 530.82 314.269 531.26 315.349 531.26H319.149C320.149 531.26 320.889 530.82 320.889 529.64C320.889 528.48 320.149 528.04 319.149 528.04ZM338.992 525.76V523.1H335.892V522.46C335.112 523.94 333.372 524.72 331.472 524.72C328.892 524.72 326.612 523.28 326.612 520.6V519.42C326.612 516.74 328.892 515.3 331.472 515.3C333.372 515.3 335.112 516.08 335.892 517.58V516.52H338.992V515.1L341.692 514.7V525.36L338.992 525.76ZM337.612 526.06C339.792 526.06 341.772 526.94 341.772 529.64C341.772 532.36 339.792 533.24 337.612 533.24H333.332C331.072 533.24 329.052 532.36 329.052 529.64C329.052 526.94 331.072 526.06 333.332 526.06H337.612ZM337.352 528.04H333.552C332.472 528.04 331.732 528.48 331.732 529.64C331.732 530.82 332.472 531.26 333.552 531.26H337.352C338.352 531.26 339.092 530.82 339.092 529.64C339.092 528.48 338.352 528.04 337.352 528.04ZM333.632 520.52V519.5C333.632 518.1 332.692 517.3 331.472 517.3C330.252 517.3 329.312 518.1 329.312 519.5V520.52C329.312 521.92 330.252 522.72 331.472 522.72C332.692 522.72 333.632 521.92 333.632 520.52ZM336.332 520.6C336.332 520.78 336.312 520.94 336.292 521.1H338.992V518.5H336.232C336.292 518.8 336.332 519.1 336.332 519.42V520.6ZM356.355 522.28V524.26C354.795 524.62 352.575 524.72 350.575 524.72H345.635V515.48H354.755V517.48H348.415V519.08H354.595V521.06H348.415V522.74H350.815C352.435 522.74 354.515 522.66 356.355 522.28ZM359.895 514.7V525.34L357.175 525.74V515.1L359.895 514.7ZM359.895 526.44V532.5L357.135 533H348.075V526.44H359.895ZM350.835 531H357.135V528.44H350.835V531Z" fill="white"/>
<path d="M258.648 617.344V627.594H257.164V622.328H254.492V621.125H257.164V617.344H258.648ZM246.992 624.672C249.141 623.945 250.484 622.102 250.477 620.172V619.625H247.445V618.406H254.992V619.625H251.992V620.172C251.984 621.914 253.25 623.672 255.367 624.375L254.602 625.562C253.031 625.016 251.867 623.891 251.258 622.5C250.648 624.047 249.422 625.281 247.758 625.875L246.992 624.672ZM249.555 631.031V626.672H251.039V629.828H259.023V631.031H249.555ZM273.836 619.469V620.688H271.805V622.422H273.836V623.656H271.805V625.844H270.32V617.344H271.805V619.469H273.836ZM261.367 619.359V618.156H267.742V622.156H262.867V623.953C265.297 623.938 267.016 623.859 269.055 623.516L269.211 624.719C267.047 625.086 265.195 625.18 262.508 625.172H261.383V621H266.289V619.359H261.367ZM262.555 627.75V626.547H271.805V631.312H270.32V627.75H262.555ZM285.711 618.562C285.703 620.422 287.977 622.164 290.727 622.531L290.148 623.75C287.859 623.383 285.852 622.195 284.938 620.547C284.023 622.195 282.016 623.383 279.742 623.75L279.148 622.531C281.891 622.164 284.156 620.445 284.164 618.562V617.797H285.711V618.562ZM278.539 626.344V625.125H291.305V626.344H285.617V631.328H284.164V626.344H278.539ZM303.977 617.344V625.062H302.492V617.344H303.977ZM293.07 619.203V618H299.508V621.906H294.555V623.562C297.008 623.555 298.797 623.492 300.93 623.141L301.117 624.344C298.828 624.719 296.922 624.781 294.273 624.797H293.102V620.75H298.039V619.203H293.07ZM294.789 631.156V625.719H296.273V627.234H302.508V625.719H303.977V631.156H294.789ZM296.273 629.953H302.508V628.406H296.273V629.953ZM317.492 618.219V623.969H310.836V618.219H317.492ZM311.758 630.141C314.305 629.891 316.297 628.617 316.398 627.359H312.32V626.234H316.43V624.922H317.898V626.234H322.023V627.359H317.93C318.031 628.578 319.977 629.859 322.523 630.141L322.023 631.281C319.828 631.016 318.016 630.078 317.172 628.844C316.312 630.094 314.477 631.016 312.273 631.281L311.758 630.141ZM312.289 622.812H316.023V619.406H312.289V622.812ZM320.227 625.328V617.328H321.695V625.328H320.227ZM332.805 619.422C332.797 621.383 334.07 623.133 336.195 623.828L335.383 624.984C333.844 624.422 332.711 623.344 332.102 621.938C331.5 623.539 330.281 624.797 328.586 625.406L327.789 624.219C330.023 623.453 331.32 621.586 331.336 619.484V618.109H332.805V619.422ZM330.086 628.656C330.078 626.961 331.875 625.977 334.82 625.984C337.75 625.977 339.547 626.961 339.555 628.656C339.547 630.344 337.75 631.305 334.82 631.297C331.875 631.305 330.078 630.344 330.086 628.656ZM331.555 628.656C331.547 629.586 332.766 630.133 334.82 630.125C336.859 630.133 338.078 629.586 338.086 628.656C338.078 627.695 336.859 627.141 334.82 627.141C332.766 627.141 331.547 627.695 331.555 628.656ZM335.07 621.391V620.172H338.023V617.328H339.508V625.594H338.023V621.391H335.07ZM349.461 618.828V619.688C349.453 620.867 349.453 622.672 349.055 625.172L347.586 625.062C347.945 622.828 347.984 621.195 347.992 620.031H342.305V618.828H349.461ZM341.523 627.109C342.398 627.102 343.375 627.094 344.398 627.07V622.828H345.867V627.023C347.352 626.961 348.875 626.867 350.273 626.688L350.352 627.797C347.438 628.266 344.18 628.328 341.695 628.312L341.523 627.109ZM351.07 631.328V617.328H352.57V623.109H354.711V624.375H352.57V631.328H351.07ZM365.711 626.125C368.742 626.125 370.656 627.086 370.664 628.719C370.656 630.344 368.742 631.305 365.711 631.297C362.711 631.305 360.789 630.344 360.789 628.719C360.789 627.086 362.711 626.125 365.711 626.125ZM359.414 624.969V623.766H364.523V621.141H365.977V623.766H372.148V624.969H359.414ZM360.898 619.203V618.016H370.555V619.188C370.562 620.305 370.562 621.461 370.164 622.906L368.711 622.75C369.086 621.32 369.086 620.289 369.086 619.203H360.898ZM362.273 628.719C362.258 629.625 363.594 630.148 365.711 630.156C367.852 630.148 369.18 629.625 369.195 628.719C369.18 627.797 367.852 627.258 365.711 627.25C363.594 627.258 362.258 627.797 362.273 628.719ZM385.211 617.328V631.328H383.789V624.062H382.055V630.656H380.664V617.703H382.055V622.859H383.789V617.328H385.211ZM373.18 627.328C376.289 625.562 377.594 623.18 377.828 620.328H373.773V619.109H379.273C379.266 622.789 378.047 626.102 374.039 628.359L373.18 627.328Z" fill="#282828"/>
<rect x="0.5" y="-0.5" width="222" height="99" rx="7.5" transform="matrix(1 0 0 -1 440 673)" fill="white" stroke="#E1E6EF"/>
<rect x="440" y="482" width="223" height="84" rx="8" fill="#1B4B66"/>
<path d="M519.472 509.94V507.52H515.872V505.52H519.472V503.62H516.392C515.012 506.6 511.532 509.06 508.272 510.04L506.972 508.3C510.952 507.2 514.132 503.98 514.132 501.88V501.6H508.012V499.6H517.012V500.98C517.012 501.2 516.992 501.42 516.972 501.62H519.472V499.1L522.192 498.7V509.54L519.472 509.94ZM518.092 510.06C520.272 510.06 522.252 510.94 522.252 513.64C522.252 516.36 520.272 517.24 518.092 517.24H513.812C511.552 517.24 509.532 516.36 509.532 513.64C509.532 510.94 511.552 510.06 513.812 510.06H518.092ZM517.832 512.04H514.032C512.952 512.04 512.212 512.48 512.212 513.64C512.212 514.82 512.952 515.26 514.032 515.26H517.832C518.832 515.26 519.572 514.82 519.572 513.64C519.572 512.48 518.832 512.04 517.832 512.04ZM537.675 509.76V507.1H534.575V506.46C533.795 507.94 532.055 508.72 530.155 508.72C527.575 508.72 525.295 507.28 525.295 504.6V503.42C525.295 500.74 527.575 499.3 530.155 499.3C532.055 499.3 533.795 500.08 534.575 501.58V500.52H537.675V499.1L540.375 498.7V509.36L537.675 509.76ZM536.295 510.06C538.475 510.06 540.455 510.94 540.455 513.64C540.455 516.36 538.475 517.24 536.295 517.24H532.015C529.755 517.24 527.735 516.36 527.735 513.64C527.735 510.94 529.755 510.06 532.015 510.06H536.295ZM536.035 512.04H532.235C531.155 512.04 530.415 512.48 530.415 513.64C530.415 514.82 531.155 515.26 532.235 515.26H536.035C537.035 515.26 537.775 514.82 537.775 513.64C537.775 512.48 537.035 512.04 536.035 512.04ZM532.315 504.52V503.5C532.315 502.1 531.375 501.3 530.155 501.3C528.935 501.3 527.995 502.1 527.995 503.5V504.52C527.995 505.92 528.935 506.72 530.155 506.72C531.375 506.72 532.315 505.92 532.315 504.52ZM535.015 504.6C535.015 504.78 534.995 504.94 534.975 505.1H537.675V502.5H534.915C534.975 502.8 535.015 503.1 535.015 503.42V504.6ZM558.098 498.7V504.64H560.858L560.458 506.66H558.098V511.68L555.338 512.08V499.1L558.098 498.7ZM543.218 508.18H546.298V503.78H548.958V508.18C550.718 508.12 552.938 507.96 554.638 507.68V509.66C551.798 510.06 548.718 510.18 545.638 510.18H543.218V508.18ZM558.198 516.92H546.318V511.3H549.078V514.92H558.598L558.198 516.92ZM550.978 501.44H544.058V499.44H553.838C553.758 501.52 553.458 505.14 552.978 506.82H550.298C550.738 505.34 550.978 502.72 550.978 501.44ZM568.622 505.02V501.86H562.522V499.88H571.362V506.98H565.302V510.18H566.742C568.562 510.18 571.342 510.1 573.262 509.7V511.68C571.222 512.02 568.382 512.16 566.502 512.16H562.522V505.02H568.622ZM576.782 498.7V516.6L574.062 517V499.1L576.782 498.7ZM591.445 506.28V508.26C589.885 508.62 587.665 508.72 585.665 508.72H580.725V499.48H589.845V501.48H583.505V503.08H589.685V505.06H583.505V506.74H585.905C587.525 506.74 589.605 506.66 591.445 506.28ZM594.985 498.7V509.34L592.265 509.74V499.1L594.985 498.7ZM594.985 510.44V516.5L592.225 517H583.165V510.44H594.985ZM585.925 515H592.225V512.44H585.925V515ZM493.912 548.94H491.432C489.412 546.12 488.112 543.36 488.112 539.82C488.112 536.04 489.412 533.56 491.432 530.7H493.912C492.152 533.56 490.892 536.08 490.892 539.82C490.892 543.34 492.152 546.12 493.912 548.94ZM511.948 544.1L511.548 546.14H494.608V544.1H511.948ZM496.728 532H509.468C509.388 536.08 509.028 539.44 507.728 543.14H504.968C506.028 540.3 506.648 536.28 506.648 533.98H496.728V532ZM520.311 535.74V533.74H514.211V531.76H523.031V537.68H516.991V539.72H518.431C520.231 539.72 522.991 539.6 524.931 539.24V541.24C522.871 541.58 520.051 541.7 518.191 541.7H514.211V535.74H520.311ZM528.471 530.7V543.88L525.751 544.28V531.1L528.471 530.7ZM528.591 548.92H516.851V543.38H519.631V546.92H528.991L528.591 548.92ZM543.974 541.94V539.52H540.374V537.52H543.974V535.62H540.894C539.514 538.6 536.034 541.06 532.774 542.04L531.474 540.3C535.454 539.2 538.634 535.98 538.634 533.88V533.6H532.514V531.6H541.514V532.98C541.514 533.2 541.494 533.42 541.474 533.62H543.974V531.1L546.694 530.7V541.54L543.974 541.94ZM542.594 542.06C544.774 542.06 546.754 542.94 546.754 545.64C546.754 548.36 544.774 549.24 542.594 549.24H538.314C536.054 549.24 534.034 548.36 534.034 545.64C534.034 542.94 536.054 542.06 538.314 542.06H542.594ZM542.334 544.04H538.534C537.454 544.04 536.714 544.48 536.714 545.64C536.714 546.82 537.454 547.26 538.534 547.26H542.334C543.334 547.26 544.074 546.82 544.074 545.64C544.074 544.48 543.334 544.04 542.334 544.04ZM562.177 541.76V539.1H559.077V538.46C558.297 539.94 556.557 540.72 554.657 540.72C552.077 540.72 549.797 539.28 549.797 536.6V535.42C549.797 532.74 552.077 531.3 554.657 531.3C556.557 531.3 558.297 532.08 559.077 533.58V532.52H562.177V531.1L564.877 530.7V541.36L562.177 541.76ZM560.797 542.06C562.977 542.06 564.957 542.94 564.957 545.64C564.957 548.36 562.977 549.24 560.797 549.24H556.517C554.257 549.24 552.237 548.36 552.237 545.64C552.237 542.94 554.257 542.06 556.517 542.06H560.797ZM560.537 544.04H556.737C555.657 544.04 554.917 544.48 554.917 545.64C554.917 546.82 555.657 547.26 556.737 547.26H560.537C561.537 547.26 562.277 546.82 562.277 545.64C562.277 544.48 561.537 544.04 560.537 544.04ZM556.817 536.52V535.5C556.817 534.1 555.877 533.3 554.657 533.3C553.437 533.3 552.497 534.1 552.497 535.5V536.52C552.497 537.92 553.437 538.72 554.657 538.72C555.877 538.72 556.817 537.92 556.817 536.52ZM559.517 536.6C559.517 536.78 559.497 536.94 559.477 537.1H562.177V534.5H559.417C559.477 534.8 559.517 535.1 559.517 535.42V536.6ZM588.186 541.98V548.5L585.406 549H576.386V541.98H588.186ZM584.646 537.26V539.24C583.026 539.56 580.586 539.8 578.106 539.8H574.246V531.48H582.866V533.48H577.026V537.8H578.786C580.746 537.8 583.206 537.56 584.646 537.26ZM588.186 530.7V534.68H591.066L590.666 536.68H588.186V540.88L585.446 541.28V531.1L588.186 530.7ZM579.146 547H585.406V543.96H579.146V547ZM602.509 542.06C604.689 542.06 606.669 542.94 606.669 545.64C606.669 548.36 604.689 549.24 602.509 549.24H598.229C595.969 549.24 593.949 548.36 593.949 545.64C593.949 542.94 595.969 542.06 598.229 542.06H602.509ZM602.849 537.7V539.7C601.229 540 598.789 540.24 596.309 540.24H592.449V531.56H601.069V533.56H595.229V538.26H596.989C598.949 538.26 601.409 538.02 602.849 537.7ZM606.389 530.7V534.68H609.269L608.869 536.72H606.389V541.14L603.649 541.54V531.1L606.389 530.7ZM602.249 544.04H598.449C597.369 544.04 596.629 544.48 596.629 545.64C596.629 546.82 597.369 547.26 598.449 547.26H602.249C603.249 547.26 603.989 546.82 603.989 545.64C603.989 544.48 603.249 544.04 602.249 544.04ZM614.872 539.82C614.872 543.38 613.532 546.1 611.532 548.94H609.072C610.812 546.12 612.112 543.34 612.112 539.82C612.112 536.08 610.812 533.56 609.072 530.7H611.532C613.552 533.56 614.872 536.04 614.872 539.82Z" fill="white"/>
<path d="M493.648 617.344V627.594H492.164V622.328H489.492V621.125H492.164V617.344H493.648ZM481.992 624.672C484.141 623.945 485.484 622.102 485.477 620.172V619.625H482.445V618.406H489.992V619.625H486.992V620.172C486.984 621.914 488.25 623.672 490.367 624.375L489.602 625.562C488.031 625.016 486.867 623.891 486.258 622.5C485.648 624.047 484.422 625.281 482.758 625.875L481.992 624.672ZM484.555 631.031V626.672H486.039V629.828H494.023V631.031H484.555ZM508.836 619.469V620.688H506.805V622.422H508.836V623.656H506.805V625.844H505.32V617.344H506.805V619.469H508.836ZM496.367 619.359V618.156H502.742V622.156H497.867V623.953C500.297 623.938 502.016 623.859 504.055 623.516L504.211 624.719C502.047 625.086 500.195 625.18 497.508 625.172H496.383V621H501.289V619.359H496.367ZM497.555 627.75V626.547H506.805V631.312H505.32V627.75H497.555ZM526.305 625.766V626.984H520.648V631.344H519.18V626.984H513.539V625.766H526.305ZM514.289 623.609C516.945 623.273 519.086 621.789 519.18 620.219H514.742V619.016H519.18V617.328H520.648V619.016H525.086V620.219H520.664C520.742 621.773 522.859 623.273 525.523 623.609L524.992 624.797C522.742 624.484 520.828 623.43 519.922 622C519.016 623.445 517.094 624.484 514.836 624.797L514.289 623.609ZM532.555 620.25C532.555 622.062 533.891 623.766 536.055 624.453L535.289 625.609C533.68 625.078 532.469 623.977 531.828 622.578C531.203 624.102 529.953 625.305 528.289 625.891L527.523 624.719C529.703 623.977 531.047 622.164 531.055 620.25V619.641H527.914V618.438H535.633V619.641H532.555V620.25ZM529.82 631.031V626.594H531.32V629.828H539.398V631.031H529.82ZM537.492 627.562V617.344H538.977V627.562H537.492ZM552.492 618.219V623.969H545.836V618.219H552.492ZM546.758 630.141C549.305 629.891 551.297 628.617 551.398 627.359H547.32V626.234H551.43V624.922H552.898V626.234H557.023V627.359H552.93C553.031 628.578 554.977 629.859 557.523 630.141L557.023 631.281C554.828 631.016 553.016 630.078 552.172 628.844C551.312 630.094 549.477 631.016 547.273 631.281L546.758 630.141ZM547.289 622.812H551.023V619.406H547.289V622.812ZM555.227 625.328V617.328H556.695V625.328H555.227ZM574.43 617.328V624.531H572.961V617.328H574.43ZM562.883 623.281C565.07 622.555 566.406 620.719 566.414 618.781V617.703H567.93V618.781C567.922 620.656 569.266 622.359 571.414 623.031L570.68 624.188C569.047 623.656 567.82 622.555 567.188 621.133C566.555 622.664 565.305 623.883 563.633 624.453L562.883 623.281ZM565.242 626.375V625.203H574.445V628.703H566.727V630H574.914V631.188H565.289V627.578H572.977V626.375H565.242ZM588.602 617.328V626.156H587.195V622.25H585.57V625.672H584.18V617.594H585.57V621.031H587.195V617.328H588.602ZM576.586 620.094V618.922H579.414V617.438H580.883V618.922H583.664V620.094H576.586ZM577.133 623.156C577.133 621.703 578.383 620.75 580.133 620.75C581.922 620.75 583.164 621.703 583.164 623.156C583.164 624.609 581.922 625.562 580.133 625.562C578.383 625.562 577.133 624.609 577.133 623.156ZM578.461 623.156C578.461 623.953 579.141 624.477 580.133 624.484C581.141 624.477 581.828 623.953 581.82 623.156C581.828 622.359 581.141 621.836 580.133 621.844C579.141 621.836 578.461 622.359 578.461 623.156ZM579.18 628.844C579.164 627.258 580.945 626.359 583.914 626.359C586.891 626.359 588.672 627.258 588.68 628.844C588.672 630.414 586.891 631.305 583.914 631.297C580.945 631.305 579.164 630.414 579.18 628.844ZM580.648 628.844C580.633 629.688 581.836 630.172 583.914 630.156C586 630.172 587.188 629.688 587.195 628.844C587.188 627.961 586 627.492 583.914 627.5C581.836 627.492 580.633 627.961 580.648 628.844ZM602.195 618.391V619.172C602.18 620.109 602.18 621.5 601.836 623.312L600.367 623.172C600.672 621.625 600.719 620.492 600.734 619.609H595.133V618.391H602.195ZM594.289 624.516C595.148 624.516 596.125 624.508 597.148 624.484V621.531H598.617V624.438C600.117 624.375 601.664 624.266 603.07 624.062L603.164 625.141C600.242 625.656 596.898 625.711 594.43 625.719L594.289 624.516ZM596.414 631.031V626.891H597.898V629.828H605.93V631.031H596.414ZM603.961 627.844V617.328H605.477V621.781H607.398V623.031H605.477V627.844H603.961ZM619.852 617.328V631.359H618.367V617.328H619.852ZM609.008 619.797V618.594H615.57V623.703H610.539V626.766C612.812 626.758 614.789 626.648 617.133 626.266L617.273 627.484C614.797 627.898 612.688 627.992 610.211 628H609.023V622.516H614.055V619.797H609.008Z" fill="#282828"/>
<rect x="0.5" y="-0.5" width="222" height="99" rx="7.5" transform="matrix(1 0 0 -1 675 673)" fill="white" stroke="#E1E6EF"/>
<rect x="675" y="482" width="223" height="84" rx="8" fill="#1B4B66"/>
<path d="M727.811 523.22H735.171V521.58H730.371V515.18H742.551V517.16H733.151V519.62H742.911L742.511 521.58H738.051V523.22H745.151L744.751 525.2H727.811V523.22ZM738.671 526.3C740.911 526.3 742.931 527.14 742.931 529.82C742.931 532.52 740.911 533.36 738.671 533.36H734.251C732.011 533.36 729.991 532.52 729.991 529.82C729.991 527.14 732.011 526.3 734.251 526.3H738.671ZM738.571 528.3H734.371C733.471 528.3 732.671 528.68 732.671 529.82C732.671 530.98 733.471 531.36 734.371 531.36H738.571C739.471 531.36 740.251 530.98 740.251 529.82C740.251 528.68 739.471 528.3 738.571 528.3ZM752.714 519.42V517.6H747.414V515.6H755.414V521.38H750.194V523.36H751.234C753.054 523.36 755.814 523.24 757.734 522.9V524.88C755.694 525.24 752.834 525.36 751.014 525.36H747.414V519.42H752.714ZM761.674 514.7V525.78L758.954 526.18V522.34H756.214V520.36H758.954V518.76H756.214V516.78H758.954V515.1L761.674 514.7ZM749.694 526.68H761.674V532.96L758.914 533.36V528.66H749.694V526.68ZM776.337 522.28V524.26C774.777 524.62 772.557 524.72 770.557 524.72H765.617V515.48H774.737V517.48H768.397V519.08H774.577V521.06H768.397V522.74H770.797C772.417 522.74 774.497 522.66 776.337 522.28ZM779.877 514.7V525.34L777.157 525.74V515.1L779.877 514.7ZM779.877 526.44V532.5L777.117 533H768.057V526.44H779.877ZM770.817 531H777.117V528.44H770.817V531ZM787.8 515.06H790.26L785.22 531.52H782.74L787.8 515.06ZM803.3 526.18C805.48 526.18 807.46 527.04 807.46 529.7C807.46 532.38 805.48 533.24 803.3 533.24H798.62C796.36 533.24 794.34 532.38 794.34 529.7C794.34 527.04 796.36 526.18 798.62 526.18H803.3ZM803.68 514.98V518.96H805.02V515.1L807.54 514.7V525.36L805.02 525.76V520.94H803.68V525.22L801.2 525.62V515.38L803.68 514.98ZM794.66 520.18C794.84 519.88 794.84 519.28 794.84 518.86V515.68L797.44 515.28V518.8C797.44 519.22 797.46 519.74 797.68 520.08C798.34 521.1 799.62 522.7 800.8 523.88L799.16 525.38C798.22 524.48 797.14 523.26 796.24 522.22C795.28 523.38 794.26 524.54 793 525.78L791.3 524.34C792.84 522.76 793.96 521.3 794.66 520.18ZM803.04 528.16H798.84C797.76 528.16 797.02 528.58 797.02 529.7C797.02 530.84 797.76 531.26 798.84 531.26H803.04C804.04 531.26 804.78 530.84 804.78 529.7C804.78 528.58 804.04 528.16 803.04 528.16ZM816.803 515.28V519.52C816.803 519.94 816.883 520.38 817.163 520.68C818.403 522.04 819.743 523.34 821.143 524.5L819.543 526.04C818.123 524.9 816.643 523.62 815.423 522.28C814.203 523.68 812.563 525.24 811.103 526.48L809.423 525.02C810.823 523.78 812.303 522.42 813.523 520.84C813.783 520.52 813.963 520.06 813.963 519.66V515.68L816.803 515.28ZM822.263 515.1L825.003 514.7V520.24H827.883L827.483 522.28H825.003V527.44L822.263 527.84V515.1ZM825.283 532.92H813.383V527.1H816.163V530.92H825.683L825.283 532.92ZM840.146 522.28V524.26C838.586 524.62 836.366 524.72 834.366 524.72H829.426V515.48H838.546V517.48H832.206V519.08H838.386V521.06H832.206V522.74H834.606C836.226 522.74 838.306 522.66 840.146 522.28ZM843.686 514.7V525.34L840.966 525.74V515.1L843.686 514.7ZM843.686 526.44V532.5L840.926 533H831.866V526.44H843.686ZM834.626 531H840.926V528.44H834.626V531Z" fill="white"/>
<path d="M746.664 603.328V617.328H745.242V603.328H746.664ZM734.773 609.375C734.773 606.344 735.961 604.445 737.789 604.453C739.492 604.445 740.641 606.062 740.812 608.688H742.398V603.594H743.82V616.641H742.398V609.891H740.82C740.688 612.625 739.523 614.32 737.789 614.312C735.961 614.32 734.773 612.414 734.773 609.375ZM736.148 609.375C736.148 611.602 736.781 612.914 737.789 612.906C738.82 612.914 739.461 611.602 739.461 609.375C739.461 607.141 738.82 605.836 737.789 605.844C736.781 605.836 736.148 607.141 736.148 609.375ZM760.133 603.328V617.359H758.648V609.062H754.477V607.844H758.648V603.328H760.133ZM749.195 613.984V604.875H750.695V612.75C752.695 612.719 754.578 612.594 756.617 612.188L756.805 613.406C754.547 613.867 752.516 613.992 750.32 613.984H749.195ZM767.43 607.453C767.422 609.797 768.961 612.219 771.117 613.141L770.305 614.297C768.656 613.57 767.344 612.023 766.695 610.156C766.047 612.156 764.734 613.859 763.102 614.656L762.242 613.484C764.352 612.492 765.914 609.867 765.93 607.453V605.969H762.727V604.734H770.617V605.969H767.43V607.453ZM772.383 617.328V603.328H773.867V617.328H772.383ZM778.617 614.922L777.367 619.234H776.039L776.867 614.922H778.617ZM796.867 610.703V611.922H784.102V610.703H789.742V609.352C787.117 609.195 785.469 608.172 785.477 606.531C785.469 604.789 787.43 603.727 790.477 603.719C793.508 603.727 795.469 604.789 795.477 606.531C795.469 608.172 793.82 609.195 791.211 609.352V610.703H796.867ZM785.711 617.031V612.969H787.211V615.828H795.43V617.031H785.711ZM787.008 606.531C787 607.586 788.328 608.164 790.477 608.172C792.617 608.164 793.953 607.586 793.945 606.531C793.953 605.531 792.617 604.914 790.477 604.922C788.328 604.914 787 605.531 787.008 606.531ZM809.523 603.328V610.531H808.055V603.328H809.523ZM797.977 609.281C800.164 608.555 801.5 606.719 801.508 604.781V603.703H803.023V604.781C803.016 606.656 804.359 608.359 806.508 609.031L805.773 610.188C804.141 609.656 802.914 608.555 802.281 607.133C801.648 608.664 800.398 609.883 798.727 610.453L797.977 609.281ZM800.336 612.375V611.203H809.539V614.703H801.82V616H810.008V617.188H800.383V613.578H808.07V612.375H800.336ZM822.664 603.328V608.906H824.836V610.141H822.664V617.312H821.18V603.328H822.664ZM811.773 613.578C815.281 611.828 817.188 609.297 817.492 606.031H812.477V604.797H819.008C818.992 608.844 817.211 612.461 812.602 614.734L811.773 613.578ZM832.695 605.312C832.695 607.594 835.125 609.75 837.82 610.234L837.133 611.469C834.891 610.984 832.836 609.516 831.93 607.547C831.008 609.508 828.953 610.969 826.711 611.469L826.055 610.234C828.711 609.734 831.125 607.594 831.133 605.312V604.25H832.695V605.312ZM825.586 615.484V614.25H838.398V615.484H825.586ZM729.93 631.328V634.625H731.961V635.859H729.93V639.234H728.445V631.328H729.93ZM718.867 638.25C722.219 637.367 724.188 635.609 724.461 633.422H719.523V632.203H726.07C726.062 635.789 723.633 638.312 719.461 639.438L718.867 638.25ZM720.961 645.141V639.828H729.93V645.141H720.961ZM722.445 643.953H728.461V641.062H722.445V643.953ZM745.523 638.328V639.516H739.867V640.984H743.961V645.297H742.461V642.188H734.18V640.984H738.398V639.516H732.758V638.328H745.523ZM733.445 636.516C736.227 636.258 738.148 635.242 738.312 633.844H734.039V632.672H738.398V631.281H739.867V632.672H744.242V633.844H739.953C740.102 635.242 742.016 636.258 744.82 636.516L744.352 637.625C741.938 637.406 739.992 636.602 739.133 635.281C738.266 636.602 736.312 637.406 733.914 637.625L733.445 636.516ZM751.445 634.891C751.43 637.367 752.875 639.906 754.961 640.922L754.039 642.109C752.516 641.312 751.336 639.75 750.719 637.883C750.094 639.867 748.867 641.547 747.273 642.375L746.352 641.172C748.5 640.141 749.953 637.453 749.961 634.891V632.5H751.445V634.891ZM756.008 645.328V631.328H757.492V636.906H759.742V638.172H757.492V645.328H756.008ZM764.289 631.969C766.133 631.953 767.562 633.023 767.867 634.594H770.602V631.328H772.086V638.844H770.602V635.812H767.875C767.586 637.422 766.148 638.5 764.289 638.5C762.148 638.5 760.609 637.148 760.617 635.219C760.609 633.312 762.148 631.953 764.289 631.969ZM762.039 635.219C762.031 636.414 762.969 637.25 764.289 637.25C765.586 637.25 766.508 636.414 766.508 635.219C766.508 634.016 765.586 633.195 764.289 633.203C762.969 633.195 762.031 634.016 762.039 635.219ZM762.961 645.156V639.516H764.43V641.141H770.602V639.516H772.086V645.156H762.961ZM764.43 643.938H770.602V642.312H764.43V643.938ZM780.148 631.922V633.828H783.82V631.922H785.289V638.031H778.695V631.922H780.148ZM780.102 640.312V639.141H789.148V642.672H781.586V644H789.633V645.188H780.133V641.578H787.68V640.312H780.102ZM780.148 636.844H783.82V634.969H780.148V636.844ZM787.664 638.531V631.328H789.148V634.266H791.18V635.469H789.148V638.531H787.664ZM803.164 631.891V632.797C803.172 633.703 803.172 634.875 802.883 636.328H804.789V637.484H799.086V639.141H803.18V642.641H794.977V644H803.539V645.188H793.492V641.594H801.711V640.312H793.477V639.141H797.617V637.484H791.977V636.328H801.398C801.664 634.961 801.695 633.945 801.695 633.078H793.586V631.891H803.164ZM817.102 632.219V637.969H810.445V632.219H817.102ZM811.367 644.141C813.914 643.891 815.906 642.617 816.008 641.359H811.93V640.234H816.039V638.922H817.508V640.234H821.633V641.359H817.539C817.641 642.578 819.586 643.859 822.133 644.141L821.633 645.281C819.438 645.016 817.625 644.078 816.781 642.844C815.922 644.094 814.086 645.016 811.883 645.281L811.367 644.141ZM811.898 636.812H815.633V633.406H811.898V636.812ZM819.836 639.328V631.328H821.305V639.328H819.836ZM839.039 631.328V638.531H837.57V631.328H839.039ZM827.492 637.281C829.68 636.555 831.016 634.719 831.023 632.781V631.703H832.539V632.781C832.531 634.656 833.875 636.359 836.023 637.031L835.289 638.188C833.656 637.656 832.43 636.555 831.797 635.133C831.164 636.664 829.914 637.883 828.242 638.453L827.492 637.281ZM829.852 640.375V639.203H839.055V642.703H831.336V644H839.523V645.188H829.898V641.578H837.586V640.375H829.852ZM853.211 631.328V640.156H851.805V636.25H850.18V639.672H848.789V631.594H850.18V635.031H851.805V631.328H853.211ZM841.195 634.094V632.922H844.023V631.438H845.492V632.922H848.273V634.094H841.195ZM841.742 637.156C841.742 635.703 842.992 634.75 844.742 634.75C846.531 634.75 847.773 635.703 847.773 637.156C847.773 638.609 846.531 639.562 844.742 639.562C842.992 639.562 841.742 638.609 841.742 637.156ZM843.07 637.156C843.07 637.953 843.75 638.477 844.742 638.484C845.75 638.477 846.438 637.953 846.43 637.156C846.438 636.359 845.75 635.836 844.742 635.844C843.75 635.836 843.07 636.359 843.07 637.156ZM843.789 642.844C843.773 641.258 845.555 640.359 848.523 640.359C851.5 640.359 853.281 641.258 853.289 642.844C853.281 644.414 851.5 645.305 848.523 645.297C845.555 645.305 843.773 644.414 843.789 642.844ZM845.258 642.844C845.242 643.688 846.445 644.172 848.523 644.156C850.609 644.172 851.797 643.688 851.805 642.844C851.797 641.961 850.609 641.492 848.523 641.5C846.445 641.492 845.242 641.961 845.258 642.844Z" fill="#282828"/>
<rect x="0.5" y="-0.5" width="222" height="99" rx="7.5" transform="matrix(1 0 0 -1 910 673)" fill="white" stroke="#E1E6EF"/>
<rect x="910" y="482" width="223" height="84" rx="8" fill="#1B4B66"/>
<path d="M977.592 521.38C977.592 519.46 979.592 518.42 982.092 518.42C984.592 518.42 986.592 519.46 986.592 521.38V521.68C986.592 523.22 985.312 524.24 983.512 524.58V525.72C984.872 525.66 986.172 525.54 987.732 525.26V527.2C984.892 527.6 981.812 527.72 978.732 527.72H976.312V525.76H980.712V524.58C978.892 524.26 977.592 523.24 977.592 521.68V521.38ZM991.192 514.7V520.8H993.952L993.552 522.92H991.192V528.58L988.432 528.98V515.1L991.192 514.7ZM991.292 532.92H979.412V528.42H982.172V530.92H991.692L991.292 532.92ZM987.012 518.06H976.972V516.18H980.792V514.92L983.552 514.52V516.18H987.412L987.012 518.06ZM983.992 521.46C983.992 520.8 983.192 520.3 982.092 520.3C980.992 520.3 980.192 520.8 980.192 521.46V521.6C980.192 522.24 980.992 522.82 982.092 522.82C983.192 522.82 983.992 522.24 983.992 521.6V521.46ZM1007.18 525.94V523.52H1003.58V521.52H1007.18V519.62H1004.1C1002.72 522.6 999.235 525.06 995.975 526.04L994.675 524.3C998.655 523.2 1001.84 519.98 1001.84 517.88V517.6H995.715V515.6H1004.72V516.98C1004.72 517.2 1004.7 517.42 1004.68 517.62H1007.18V515.1L1009.9 514.7V525.54L1007.18 525.94ZM1005.8 526.06C1007.98 526.06 1009.96 526.94 1009.96 529.64C1009.96 532.36 1007.98 533.24 1005.8 533.24H1001.52C999.255 533.24 997.235 532.36 997.235 529.64C997.235 526.94 999.255 526.06 1001.52 526.06H1005.8ZM1005.54 528.04H1001.74C1000.66 528.04 999.915 528.48 999.915 529.64C999.915 530.82 1000.66 531.26 1001.74 531.26H1005.54C1006.54 531.26 1007.28 530.82 1007.28 529.64C1007.28 528.48 1006.54 528.04 1005.54 528.04ZM1022.42 519.62V520.78C1022.42 523.46 1020.18 524.9 1017.66 524.9C1015.14 524.9 1012.9 523.46 1012.9 520.78V519.62C1012.9 516.94 1015.14 515.5 1017.66 515.5C1020.18 515.5 1022.42 516.94 1022.42 519.62ZM1024.84 515.1L1027.6 514.7V519.36H1030.48L1030.08 521.46H1027.6V527.44L1024.84 527.84V515.1ZM1027.86 532.92H1015.98V527.1H1018.74V530.92H1028.26L1027.86 532.92ZM1019.72 520.7V519.7C1019.72 518.3 1018.82 517.5 1017.66 517.5C1016.5 517.5 1015.6 518.3 1015.6 519.7V520.7C1015.6 522.1 1016.5 522.9 1017.66 522.9C1018.82 522.9 1019.72 522.1 1019.72 520.7ZM1041.68 515.72L1041.28 517.7H1038.06V519.88C1038.06 520.3 1038.14 520.76 1038.42 521.06C1039.66 522.44 1040.92 523.62 1042.32 524.8L1040.72 526.34C1039.3 525.2 1037.96 524.02 1036.7 522.72C1035.44 524.1 1033.94 525.54 1032.48 526.78L1030.8 525.32C1032.2 524.06 1033.64 522.82 1034.86 521.22C1035.12 520.88 1035.3 520.42 1035.3 520V517.7H1031.7V515.72H1041.68ZM1043.58 528.08V521.42H1040.16V519.42H1043.58V515.1L1046.3 514.7V527.68L1043.58 528.08ZM1046.42 532.92H1034.68V527.14H1037.46V530.92H1046.82L1046.42 532.92ZM1060.94 522.28V524.26C1059.38 524.62 1057.16 524.72 1055.16 524.72H1050.22V515.48H1059.34V517.48H1053V519.08H1059.18V521.06H1053V522.74H1055.4C1057.02 522.74 1059.1 522.66 1060.94 522.28ZM1064.48 514.7V525.34L1061.76 525.74V515.1L1064.48 514.7ZM1064.48 526.44V532.5L1061.72 533H1052.66V526.44H1064.48ZM1055.42 531H1061.72V528.44H1055.42V531Z" fill="white"/>
<path d="M962.695 606.891C962.68 609.367 964.125 611.906 966.211 612.922L965.289 614.109C963.766 613.312 962.586 611.75 961.969 609.883C961.344 611.867 960.117 613.547 958.523 614.375L957.602 613.172C959.75 612.141 961.203 609.453 961.211 606.891V604.5H962.695V606.891ZM967.258 617.328V603.328H968.742V608.906H970.992V610.172H968.742V617.328H967.258ZM975.539 603.969C977.383 603.953 978.812 605.023 979.117 606.594H981.852V603.328H983.336V610.844H981.852V607.812H979.125C978.836 609.422 977.398 610.5 975.539 610.5C973.398 610.5 971.859 609.148 971.867 607.219C971.859 605.312 973.398 603.953 975.539 603.969ZM973.289 607.219C973.281 608.414 974.219 609.25 975.539 609.25C976.836 609.25 977.758 608.414 977.758 607.219C977.758 606.016 976.836 605.195 975.539 605.203C974.219 605.195 973.281 606.016 973.289 607.219ZM974.211 617.156V611.516H975.68V613.141H981.852V611.516H983.336V617.156H974.211ZM975.68 615.938H981.852V614.312H975.68V615.938ZM990.383 605.906C990.375 607.688 991.617 609.312 993.742 609.984L993.039 611.141C991.445 610.633 990.281 609.578 989.664 608.25C989.055 609.781 987.828 610.992 986.148 611.578L985.383 610.391C987.57 609.672 988.891 607.867 988.898 605.922V605.531H985.82V604.328H993.398V605.531H990.383V605.906ZM987.273 614.672C987.273 613.031 989.062 612.07 991.977 612.078C994.859 612.07 996.617 613.031 996.617 614.672C996.617 616.336 994.859 617.305 991.977 617.297C989.062 617.305 987.273 616.336 987.273 614.672ZM988.758 614.672C988.75 615.609 989.953 616.133 991.977 616.125C993.984 616.133 995.172 615.609 995.164 614.672C995.172 613.758 993.984 613.242 991.977 613.25C989.953 613.242 988.75 613.758 988.758 614.672ZM995.008 611.734V603.328H996.492V606.797H998.523V608.016H996.492V611.734H995.008ZM1014.24 603.328V608.125H1016.24V609.359H1014.24V614.266H1012.76V603.328H1014.24ZM1003.13 611.547C1004.21 611.547 1005.47 611.547 1006.79 611.5V610.523C1005.2 610.336 1004.18 609.57 1004.2 608.422C1004.18 607.062 1005.52 606.25 1007.52 606.266C1009.53 606.25 1010.84 607.062 1010.85 608.422C1010.84 609.57 1009.85 610.336 1008.27 610.516V611.43C1009.52 611.359 1010.79 611.242 1011.96 611.062L1012.09 612.109C1009.1 612.672 1005.73 612.711 1003.29 612.734L1003.13 611.547ZM1003.49 605.719V604.625H1006.79V603.281H1008.27V604.625H1011.57V605.719H1003.49ZM1005.2 617.031V613.531H1006.68V615.828H1014.74V617.031H1005.2ZM1005.6 608.422C1005.6 609.102 1006.33 609.531 1007.52 609.531C1008.7 609.531 1009.44 609.102 1009.43 608.422C1009.44 607.695 1008.7 607.273 1007.52 607.281C1006.33 607.273 1005.6 607.695 1005.6 608.422ZM1028.73 603.344V611.625H1027.24V609.922H1023.71V608.703H1027.24V607H1023.86C1022.95 609.25 1020.85 610.836 1017.82 611.703L1017.23 610.547C1020.54 609.602 1022.48 607.82 1022.74 605.562H1017.95V604.344H1024.35C1024.35 604.859 1024.3 605.359 1024.2 605.828H1027.24V603.344H1028.73ZM1019.4 614.516C1019.4 612.82 1021.24 611.789 1024.12 611.781C1026.95 611.789 1028.81 612.82 1028.82 614.516C1028.81 616.219 1026.95 617.266 1024.12 617.266C1021.24 617.266 1019.4 616.219 1019.4 614.516ZM1020.87 614.516C1020.87 615.5 1022.12 616.07 1024.12 616.078C1026.08 616.07 1027.33 615.5 1027.34 614.516C1027.33 613.516 1026.08 612.945 1024.12 612.953C1022.12 612.945 1020.87 613.516 1020.87 614.516ZM1037.26 604.172C1040.25 604.18 1042.43 605.656 1042.43 607.891C1042.43 609.984 1040.6 611.383 1037.99 611.594V614.344H1043.7V615.578H1030.88V614.344H1036.52V611.594C1033.93 611.383 1032.09 609.984 1032.1 607.891C1032.09 605.656 1034.28 604.18 1037.26 604.172ZM1033.54 607.891C1033.54 609.461 1035.1 610.438 1037.26 610.453C1039.43 610.438 1040.98 609.461 1040.99 607.891C1040.98 606.375 1039.43 605.375 1037.26 605.391C1035.1 605.375 1033.54 606.375 1033.54 607.891ZM1048.59 604.109C1049.75 604.109 1050.75 604.539 1051.41 605.266H1054.9V603.328H1056.38V611.328H1054.9V609.625H1051.41C1050.75 610.352 1049.75 610.781 1048.59 610.781C1046.48 610.781 1044.91 609.398 1044.91 607.453C1044.91 605.484 1046.48 604.109 1048.59 604.109ZM1046.34 607.453C1046.33 608.688 1047.27 609.523 1048.59 609.531C1049.86 609.523 1050.8 608.688 1050.8 607.453C1050.8 606.219 1049.86 605.352 1048.59 605.359C1047.27 605.352 1046.33 606.219 1046.34 607.453ZM1047.15 617.156V612.016H1056.38V617.156H1047.15ZM1048.62 615.953H1054.93V613.203H1048.62V615.953ZM1052.09 606.484C1052.18 606.789 1052.23 607.109 1052.23 607.453C1052.23 607.781 1052.18 608.094 1052.09 608.391H1054.9V606.484H1052.09ZM1070.23 603.328V617.359H1068.74V609.578H1065.85V608.359H1068.74V603.328H1070.23ZM1058.38 613.453C1060.52 612.43 1062.03 609.781 1062.04 607.266V605.953H1058.95V604.734H1066.65V605.953H1063.54V607.266C1063.54 609.633 1065.03 612.188 1067.18 613.141L1066.29 614.328C1064.67 613.547 1063.43 611.914 1062.8 610.008C1062.18 612.039 1060.91 613.781 1059.29 614.609L1058.38 613.453ZM1083.37 603.328V606.625H1085.4V607.859H1083.37V611.234H1081.88V603.328H1083.37ZM1072.3 610.25C1075.66 609.367 1077.62 607.609 1077.9 605.422H1072.96V604.203H1079.51C1079.5 607.789 1077.07 610.312 1072.9 611.438L1072.3 610.25ZM1074.4 617.141V611.828H1083.37V617.141H1074.4ZM1075.88 615.953H1081.9V613.062H1075.88V615.953ZM994.555 631.328V634.812H996.555V636.078H994.555V639.578H993.07V631.328H994.555ZM983.445 638.25C984.531 638.25 985.789 638.242 987.102 638.211V637.422C985.492 637.273 984.492 636.625 984.508 635.578C984.492 634.438 985.805 633.766 987.836 633.766C989.852 633.766 991.156 634.438 991.164 635.578C991.156 636.617 990.172 637.266 988.586 637.422V638.148C989.836 638.094 991.102 637.992 992.273 637.828L992.398 638.797C989.391 639.289 986.062 639.312 983.602 639.312L983.445 638.25ZM983.805 633.359V632.328H987.102V631.203H988.586V632.328H991.883V633.359H983.805ZM985.305 641.203V640.172H994.555V643.094H986.82V644.156H995.07V645.188H985.336V642.141H993.086V641.203H985.305ZM985.914 635.578C985.914 636.141 986.641 636.484 987.836 636.484C989.016 636.484 989.75 636.141 989.742 635.578C989.75 635.039 989.016 634.734 987.836 634.734C986.641 634.734 985.914 635.039 985.914 635.578ZM1010.15 638.141V639.328H997.367V638.141H1003.04V636.656H998.961V631.969H1008.57V633.141H1000.43V635.469H1008.66V636.656H1004.48V638.141H1010.15ZM998.883 642.781C998.883 641.156 1000.7 640.242 1003.74 640.234C1006.76 640.242 1008.56 641.156 1008.57 642.781C1008.56 644.406 1006.76 645.32 1003.74 645.328C1000.7 645.32 998.883 644.406 998.883 642.781ZM1000.38 642.781C1000.38 643.68 1001.6 644.172 1003.74 644.156C1005.85 644.172 1007.09 643.68 1007.09 642.781C1007.09 641.898 1005.85 641.391 1003.74 641.391C1001.6 641.391 1000.38 641.898 1000.38 642.781ZM1022.49 632.219V637.969H1015.84V632.219H1022.49ZM1016.76 644.141C1019.3 643.891 1021.3 642.617 1021.4 641.359H1017.32V640.234H1021.43V638.922H1022.9V640.234H1027.02V641.359H1022.93C1023.03 642.578 1024.98 643.859 1027.52 644.141L1027.02 645.281C1024.83 645.016 1023.02 644.078 1022.17 642.844C1021.31 644.094 1019.48 645.016 1017.27 645.281L1016.76 644.141ZM1017.29 636.812H1021.02V633.406H1017.29V636.812ZM1025.23 639.328V631.328H1026.7V639.328H1025.23ZM1040.63 632.391V633.172C1040.62 634.109 1040.62 635.5 1040.27 637.312L1038.8 637.172C1039.11 635.625 1039.16 634.492 1039.17 633.609H1033.57V632.391H1040.63ZM1032.73 638.516C1033.59 638.516 1034.56 638.508 1035.59 638.484V635.531H1037.05V638.438C1038.55 638.375 1040.1 638.266 1041.51 638.062L1041.6 639.141C1038.68 639.656 1035.34 639.711 1032.87 639.719L1032.73 638.516ZM1034.85 645.031V640.891H1036.34V643.828H1044.37V645.031H1034.85ZM1042.4 641.844V631.328H1043.91V635.781H1045.84V637.031H1043.91V641.844H1042.4ZM1058.29 631.328V645.359H1056.8V631.328H1058.29ZM1047.45 633.797V632.594H1054.01V637.703H1048.98V640.766C1051.25 640.758 1053.23 640.648 1055.57 640.266L1055.71 641.484C1053.23 641.898 1051.12 641.992 1048.65 642H1047.46V636.516H1052.49V633.797H1047.45Z" fill="#282828"/>
</g>
<defs>
<filter id="filter0_f_578_14318" x="505" y="62" width="326" height="100" filterUnits="userSpaceOnUse" color-interpolation-filters="sRGB">
<feFlood flood-opacity="0" result="BackgroundImageFix"/>
<feBlend mode="normal" in="SourceGraphic" in2="BackgroundImageFix" result="shape"/>
<feGaussianBlur stdDeviation="8" result="effect1_foregroundBlur_578_14318"/>
</filter>
<clipPath id="clip0_578_14318">
<rect width="1110" height="740" fill="white" transform="translate(113)"/>
</clipPath>
</defs>
</svg>
