<svg width="375" height="699" viewBox="0 0 375 699" fill="none" xmlns="http://www.w3.org/2000/svg">
<path opacity="0.3" d="M277 698V676C277 671.582 273.418 668 269 668H107C102.582 668 99 671.582 99 676V698" stroke="#C4C4C4" stroke-linecap="square" stroke-dasharray="4 4"/>
<path opacity="0.3" d="M188 666V533" stroke="#C4C4C4" stroke-linecap="square" stroke-dasharray="4 4"/>
<g clip-path="url(#clip0_4341_967)">
<circle cx="188" cy="453" r="195" fill="#1B1B29"/>
<g style="mix-blend-mode:soft-light">
<circle cx="188" cy="453" r="195" fill="#F8AC66" fill-opacity="0.3"/>
</g>
<g style="mix-blend-mode:soft-light">
<circle cx="188" cy="453" r="170" fill="#F8AC66" fill-opacity="0.4"/>
</g>
<g style="mix-blend-mode:soft-light">
<circle cx="188" cy="453" r="145" fill="#F8AC66" fill-opacity="0.6"/>
</g>
<g style="mix-blend-mode:soft-light">
<circle cx="188" cy="453" r="115" fill="#F8AC66" fill-opacity="0.8"/>
</g>
<rect x="108" y="373" width="160" height="160" rx="80" fill="#FF8D24"/>
<path d="M166.16 436.88V438.68C164.756 438.986 162.758 439.094 160.94 439.094H156.656V430.076H164.864V431.858H159.158V433.658H164.72V435.44H159.158V437.312H161.174C162.614 437.312 164.504 437.24 166.16 436.88ZM169.364 429.23V433.91H171.938L171.578 435.692H169.364V440.912L166.88 441.272V429.59L169.364 429.23ZM169.598 445.628H158.888V440.606H161.39V443.828H169.958L169.598 445.628ZM181.175 429.896V432.416C181.175 432.794 181.211 433.244 181.499 433.478C182.777 434.558 185.135 436.34 186.701 437.366L185.369 438.878C183.785 437.87 181.157 436.07 179.933 434.972C178.673 436.052 176.099 437.942 174.371 439.004L173.021 437.51C174.695 436.412 176.945 434.756 178.205 433.622C178.493 433.37 178.601 432.902 178.601 432.524V430.256L181.175 429.896ZM172.085 441.722H178.709V438.176H181.301V441.722H187.691L187.331 443.558H172.085V441.722ZM198.422 430.4L198.062 432.182H195.164V435.134C195.164 435.512 195.254 435.908 195.488 436.196C196.478 437.42 197.756 438.86 198.98 440.228L197.54 441.614C196.28 440.282 194.948 438.86 193.94 437.69C192.842 439.004 191.456 440.588 190.16 441.992L188.648 440.678C189.89 439.238 191.186 437.834 192.284 436.34C192.5 436.034 192.68 435.62 192.68 435.242V432.182H189.458V430.4H198.422ZM202.58 429.23V445.34L200.132 445.7V435.944H197.09V434.144H200.132V429.59L202.58 429.23ZM218.513 439.382V445.25L216.011 445.7H207.893V439.382H218.513ZM211.421 431.768H205.895V429.986H213.959V430.922C213.959 434.972 210.287 438.14 206.237 439.094L205.265 437.456C208.217 436.628 211.421 434.126 211.421 431.912V431.768ZM218.513 429.23V433.406H221.105L220.745 435.206H218.513V438.392L216.047 438.752V429.59L218.513 429.23ZM210.359 443.9H216.011V441.164H210.359V443.9ZM135.537 466.286C135.663 465.998 135.681 465.476 135.681 465.098V462.182H133.395V460.436H140.307L140.037 462.182H137.985V465.044C137.985 465.422 137.967 465.872 138.111 466.196C138.579 467.24 140.019 469.382 140.991 470.552L139.461 471.938C138.705 471.002 137.643 469.562 136.905 468.464C136.095 469.688 135.069 471.128 134.079 472.316L132.567 471.002C133.809 469.508 134.979 467.492 135.537 466.286ZM141.351 459.842L143.583 459.482V474.818L141.351 475.178V466.16H139.173V464.324H141.351V459.842ZM144.627 459.59L146.913 459.23V475.34L144.627 475.7V459.59ZM164.286 468.5H158.256V469.796H162.252V475.25L159.768 475.7H151.38V469.796H155.664V468.5H149.04V466.718H164.646L164.286 468.5ZM150.588 463.802H152.91L152.766 461.408H151.164V459.662H162.486V461.408H160.902L160.758 463.802H163.242L162.882 465.548H150.588V463.802ZM153.882 473.9H159.768V471.596H153.882V473.9ZM158.436 461.408H155.232L155.394 463.802H158.292L158.436 461.408ZM170.265 459.554H172.479L167.943 474.368H165.711L170.265 459.554ZM180.632 462.182H175.052V460.4H183.224V461.678C183.224 466.574 179.804 470.462 175.862 472.262L174.386 470.66C177.824 469.22 180.632 465.62 180.632 462.488V462.182ZM187.796 459.23V475.34L185.348 475.7V459.59L187.796 459.23ZM205.331 467.69H199.301V468.878H203.297V473.126H194.927V474.098H203.855L203.495 475.772H192.425V471.524H200.813V470.534H192.389V468.878H196.709V467.69H190.085V465.944H205.691L205.331 467.69ZM199.175 459.212V460.238C199.175 460.616 199.193 461.138 199.499 461.336C200.813 462.182 203.333 463.424 204.737 463.982L203.621 465.566C201.965 464.9 199.499 463.676 197.879 462.722C196.277 463.694 193.703 464.936 192.155 465.548L191.039 464.018C192.641 463.406 194.855 462.362 196.223 461.426C196.565 461.192 196.601 460.778 196.601 460.4V459.572L199.175 459.212ZM222.295 459.482V465.188H223.555V459.59L225.841 459.23V475.34L223.555 475.7V467.006H222.295V474.818L220.063 475.178V459.842L222.295 459.482ZM216.679 462.182H212.629V460.4H219.055V461.678C219.055 466.358 216.949 470.102 213.349 472.208L211.963 470.66C215.059 468.914 216.679 465.62 216.679 462.488V462.182ZM241.666 475.772H230.92V471.29H239.056V470.246H230.884V468.536H241.558V472.946H233.404V474.062H242.026L241.666 475.772ZM231.136 461.966H234.25V459.662H236.662V467.006L234.25 467.366H228.724V459.662H231.136V461.966ZM241.558 459.23V462.56H244.132L243.772 464.36H241.558V467.546L239.074 467.906V459.59L241.558 459.23ZM231.136 465.566H234.25V463.766H231.136V465.566Z" fill="white"/>
</g>
<rect x="23" width="150" height="150" rx="75" fill="url(#paint0_linear_4341_967)"/>
<path d="M54.0824 55.256V67.656L51.8264 67.992V62.36H46.8344V67.656L44.5624 67.992V55.576L46.8344 55.256V60.488H51.8264V55.576L54.0824 55.256ZM62.4783 58.552H64.6543L61.2783 67.416C60.6223 69.16 59.9183 70.888 57.6783 70.888H56.3183V69.208H57.4062C58.4303 69.208 59.0063 68.152 59.1183 67.4L55.5983 58.552H57.9663L60.2383 65L62.4783 58.552ZM73.3837 61.768V64.568C73.3837 66.584 71.8318 67.992 69.2718 67.992C66.7118 67.992 65.1758 66.584 65.1758 64.568V61.768C65.1758 59.736 66.7118 58.264 69.2718 58.264C71.8318 58.264 73.3837 59.736 73.3837 61.768ZM71.2558 64.376V61.944C71.2558 60.76 70.5518 59.928 69.2718 59.928C67.9918 59.928 67.3038 60.76 67.3038 61.944V64.376C67.3038 65.512 67.9918 66.328 69.2718 66.328C70.5518 66.328 71.2558 65.512 71.2558 64.376ZM78.1711 62.248L79.7071 62.264C81.1791 62.28 82.2351 63.4 82.2351 64.968C82.2351 66.92 80.7311 67.928 78.7791 67.928H74.8591V66.264H78.4591C79.5151 66.264 80.1711 65.816 80.1711 65.016C80.1711 64.264 79.7871 63.848 79.0671 63.848L77.3071 63.832C75.9311 63.816 74.8911 62.664 74.8911 61.208C74.8911 59.288 76.1391 58.424 78.1071 58.424H81.6591L81.3231 60.088H78.3311C77.4351 60.088 76.9551 60.376 76.9551 61.128C76.9551 61.88 77.4191 62.248 78.1711 62.248ZM92.1063 58.312V67.544L90.0423 67.88V66.472C89.3703 67.352 88.3303 67.928 87.1143 67.928C84.9863 67.928 84.0743 66.456 84.0743 64.392V58.648L86.2343 58.312V63.56C86.2343 64.84 86.3303 66.232 87.8023 66.232C89.4983 66.248 89.9463 64.472 89.9463 63.144V58.648L92.1063 58.312ZM102.578 61.816V67.544L100.418 67.864V62.648C100.418 61.368 100.322 59.944 98.722 59.944C96.866 59.928 96.386 61.704 96.386 63.048V67.544L94.226 67.864V58.632L96.29 58.312V59.72C97.042 58.68 98.194 58.248 99.442 58.248C101.634 58.248 102.578 59.736 102.578 61.816ZM108.122 67.432C106.122 67.48 104.33 66.232 104.33 64.008V61.688C104.33 59.464 106.074 58.216 108.106 58.264C109.114 58.28 110.01 58.696 110.586 59.72V58.648L112.634 58.312V66.728C112.634 69.144 111.61 70.824 108.042 70.824H104.986V69.144H107.834C109.85 69.144 110.426 68.2 110.458 66.84L110.474 66.04C109.994 66.84 109.162 67.4 108.122 67.432ZM108.394 65.752C109.466 65.72 110.426 65.048 110.442 64.008L110.474 61.864C110.49 60.744 109.562 59.96 108.458 59.928C107.45 59.896 106.586 60.6 106.586 61.768V63.944C106.586 65.112 107.37 65.784 108.394 65.752ZM131.506 55.416H133.714L130.914 67.832H127.954L125.906 57.656H125.874L123.682 67.832H120.85L118.018 55.416H120.418L122.386 65.544H122.418L124.354 55.416H127.474L129.474 65.544H129.506L131.506 55.416ZM137.461 68.04C135.461 68.088 133.701 66.84 133.701 64.616V61.816C133.701 59.592 135.413 58.344 137.445 58.392C138.741 58.424 139.525 58.92 140.197 59.768V58.6L142.341 58.28V67.848L140.261 68.168V66.728C139.621 67.624 138.565 68.008 137.461 68.04ZM140.181 62.056C140.165 61.032 139.301 60.12 137.941 60.072C136.901 60.04 135.957 60.728 135.957 61.896V64.552C135.957 65.72 136.837 66.376 137.861 66.344C139.525 66.296 140.229 65.144 140.213 63.848L140.181 62.056ZM150.416 58.552H152.592L149.216 67.416C148.56 69.16 147.856 70.888 145.616 70.888H144.256V69.208H145.344C146.368 69.208 146.944 68.152 147.056 67.4L143.536 58.552H145.904L148.176 65L150.416 58.552ZM84.7495 86.712C84.7495 84.888 86.3975 83.928 88.3975 83.928C90.3975 83.928 92.0455 84.888 92.0455 86.712V86.968C92.0455 88.792 90.3975 89.8 88.3975 89.8C86.3975 89.8 84.7495 88.792 84.7495 86.968V86.712ZM92.3335 84.6H94.2215V81.08L96.3975 80.76V89.8L94.2215 90.12V88.856H92.3335V87.32H94.2215V86.072H92.3335V84.6ZM86.8135 90.536H96.3975V95.256L94.1895 95.608V92.12H86.8135V90.536ZM92.3335 83.608H84.3015V82.04H87.3575V80.92L89.5655 80.6V82.04H92.6535L92.3335 83.608ZM89.9655 86.776C89.9655 85.96 89.2775 85.432 88.3975 85.432C87.5175 85.432 86.8295 85.96 86.8295 86.776V86.904C86.8295 87.704 87.5175 88.296 88.3975 88.296C89.2775 88.296 89.9655 87.704 89.9655 86.904V86.776ZM110.8 80.76V91.112L108.624 91.432V81.08L110.8 80.76ZM110.896 95.336H101.504V90.712H103.728V93.736H111.216L110.896 95.336ZM104 81.064V84.04C104 84.376 104.064 84.744 104.288 84.984C105.28 86.088 106.352 87.304 107.472 88.376L106.192 89.608C105.056 88.568 103.872 87.384 102.896 86.312C101.92 87.432 100.608 88.856 99.44 89.96L98.096 88.792C99.216 87.656 100.4 86.392 101.376 85.112C101.584 84.84 101.728 84.472 101.728 84.136V81.384L104 81.064Z" fill="white"/>
<path d="M20.9727 180.861L22.0664 177.088H23.2285L22.5039 180.861H20.9727ZM23.7207 180.861L24.8145 177.088H25.9766L25.252 180.861H23.7207ZM31.0898 179.234C31.0898 181.265 31.9307 183.315 33.5918 184.211L32.8262 185.236C31.6709 184.587 30.8848 183.418 30.4541 182.023C30.0029 183.548 29.1621 184.847 27.9727 185.551L27.1523 184.607C28.9023 183.589 29.832 181.401 29.832 179.316V177.033H31.0898V179.234ZM33.8926 187.561V176.145H35.1367V180.793H36.6133V175.912H37.8574V188.162H36.6133V181.846H35.1367V187.561H33.8926ZM50.627 185.605V186.699H39.416V185.605H44.3516V183.459H40.7832V179.562H47.9746V177.84H40.7559V176.773H49.2598V180.602H42.0684V182.393H49.5469V183.459H45.6367V185.605H50.627ZM62.7129 182.051V183.104H57.8594V185.482H56.5469V183.104H51.502V182.051H62.7129ZM52.7324 178.688C52.7256 177.156 54.4619 176.206 57.0938 176.199C59.7256 176.206 61.4482 177.156 61.4414 178.688C61.4482 180.212 59.7256 181.162 57.0938 181.162C54.4619 181.162 52.7256 180.212 52.7324 178.688ZM52.9102 187.902V184.307H54.209V186.836H61.4688V187.902H52.9102ZM54.127 178.688C54.1133 179.569 55.3027 180.109 57.0938 180.109C58.8916 180.109 60.0674 179.569 60.0742 178.688C60.0674 177.778 58.8916 177.245 57.0938 177.238C55.3027 177.245 54.1133 177.778 54.127 178.688ZM76.5762 175.912V180.793H78.4766V181.873H76.5762V188.148H75.2773V175.912H76.5762ZM67.0469 184.881C70.1162 183.35 71.7842 181.135 72.0508 178.277H67.6621V177.197H73.377C73.3633 180.738 71.8047 183.903 67.7715 185.893L67.0469 184.881ZM89.0312 179.221V180.273H80.623V176.131H81.9082V179.221H89.0312ZM79.1328 182.639V181.572H90.3164V182.639H79.1328ZM80.459 185.865C80.459 184.437 82.0518 183.63 84.7109 183.637C87.3496 183.63 88.9287 184.437 88.9355 185.865C88.9287 187.301 87.3496 188.107 84.7109 188.107C82.0518 188.107 80.459 187.301 80.459 185.865ZM81.7715 185.865C81.7646 186.651 82.8379 187.103 84.7109 187.109C86.5566 187.103 87.6367 186.651 87.6367 185.865C87.6367 185.072 86.5566 184.655 84.7109 184.648C82.8379 184.655 81.7646 185.072 81.7715 185.865ZM95.5801 177.744C95.5732 179.46 96.6875 180.991 98.5469 181.6L97.8359 182.611C96.4893 182.119 95.498 181.176 94.9648 179.945C94.4385 181.347 93.3721 182.447 91.8887 182.98L91.1914 181.941C93.1465 181.271 94.2812 179.638 94.2949 177.799V176.596H95.5801V177.744ZM93.2012 185.824C93.1943 184.341 94.7666 183.479 97.3438 183.486C99.9072 183.479 101.479 184.341 101.486 185.824C101.479 187.301 99.9072 188.142 97.3438 188.135C94.7666 188.142 93.1943 187.301 93.2012 185.824ZM94.4863 185.824C94.4795 186.638 95.5459 187.116 97.3438 187.109C99.1279 187.116 100.194 186.638 100.201 185.824C100.194 184.983 99.1279 184.498 97.3438 184.498C95.5459 184.498 94.4795 184.983 94.4863 185.824ZM97.5625 179.467V178.4H100.146V175.912H101.445V183.145H100.146V179.467H97.5625ZM113.873 175.912V188.162H112.629V175.912H113.873ZM103.469 181.203C103.469 178.551 104.508 176.89 106.107 176.896C107.598 176.89 108.603 178.305 108.753 180.602H110.141V176.145H111.385V187.561H110.141V181.654H108.76C108.644 184.047 107.625 185.53 106.107 185.523C104.508 185.53 103.469 183.862 103.469 181.203ZM104.672 181.203C104.672 183.151 105.226 184.3 106.107 184.293C107.01 184.3 107.57 183.151 107.57 181.203C107.57 179.248 107.01 178.106 106.107 178.113C105.226 178.106 104.672 179.248 104.672 181.203ZM128.775 181.559V182.598H125.07V185.592H130.061V186.658H118.85V185.592H123.785V182.598H120.244V176.855H128.666V177.908H121.543V181.559H128.775ZM141.162 175.926V184.895H139.863V180.287H137.525V179.234H139.863V175.926H141.162ZM130.963 182.338C132.843 181.702 134.019 180.089 134.012 178.4V177.922H131.359V176.855H137.963V177.922H135.338V178.4C135.331 179.925 136.438 181.463 138.291 182.078L137.621 183.117C136.247 182.639 135.229 181.654 134.695 180.438C134.162 181.791 133.089 182.871 131.633 183.391L130.963 182.338ZM133.205 187.902V184.088H134.504V186.85H141.49V187.902H133.205ZM152.592 175.912V180.875H154.561V181.955H152.592V188.162H151.307V175.912H152.592ZM142.98 178.893V177.826H146.002V176.076H147.301V177.826H150.24V178.893H142.98ZM143.609 182.639C143.609 180.971 144.895 179.795 146.658 179.795C148.415 179.795 149.7 180.971 149.707 182.639C149.7 184.32 148.415 185.489 146.658 185.496C144.895 185.489 143.609 184.32 143.609 182.639ZM144.854 182.639C144.847 183.705 145.612 184.416 146.658 184.402C147.697 184.416 148.456 183.705 148.463 182.639C148.456 181.593 147.697 180.868 146.658 180.861C145.612 180.868 144.847 181.593 144.854 182.639ZM164.691 175.912V180.656H166.66V181.723H164.691V188.189H163.393V175.912H164.691ZM155.668 185.141V177.088H161.396V178.141H156.967V184.061C159.024 184.054 160.562 183.965 162.312 183.65L162.477 184.744C160.556 185.086 158.929 185.147 156.652 185.141H155.668ZM172.211 177.102V180.629H171.008V177.102H172.211ZM173.496 180.629V177.102H174.699V180.629H173.496Z" fill="#C4C4C4"/>
<rect x="202" width="150" height="150" rx="75" fill="url(#paint1_linear_4341_967)"/>
<path d="M237.357 55.416H239.629L235.533 67.832H232.749L228.605 55.416H231.053L234.205 65.512L237.357 55.416ZM243.455 55.256V67.672L241.199 67.992V55.576L243.455 55.256ZM248.898 60.632H251.09C252.85 60.632 254.098 62.04 254.098 64.024C254.098 66.632 252.306 67.832 249.666 67.832H245.554V65.992H249.474C250.898 65.992 251.826 65.48 251.826 64.136C251.826 63.112 251.298 62.456 250.498 62.456H248.53C246.674 62.456 245.33 61.048 245.33 59.128C245.33 56.584 246.77 55.416 249.426 55.416H253.282L252.946 57.24H249.618C248.354 57.24 247.586 57.736 247.586 59.016C247.586 60.04 248.05 60.632 248.898 60.632ZM258.236 55.256V67.672L255.98 67.992V55.576L258.236 55.256ZM260.703 64.024V59.576C260.703 56.92 262.831 55.192 265.343 55.192C267.823 55.192 269.951 56.92 269.951 59.576V64.024C269.951 66.68 267.823 68.408 265.343 68.408C262.831 68.408 260.703 66.68 260.703 64.024ZM262.959 59.768V63.784C262.959 65.4 263.791 66.52 265.327 66.52C266.863 66.52 267.695 65.4 267.695 63.784V59.768C267.695 58.152 266.863 57.032 265.327 57.032C263.791 57.032 262.959 58.152 262.959 59.768ZM282.065 68.152H279.889L274.465 59.208L274.513 67.992L272.289 68.312V55.416H274.417L279.905 64.312L279.841 55.576L282.065 55.256V68.152ZM296.444 66.04L296.188 67.848H288.54V65.864C288.668 65.736 289.964 64.472 290.572 63.848C292.284 62.088 293.916 60.408 293.916 58.856C293.916 57.768 293.164 57 291.772 57H288.828V55.192H292.316C294.7 55.192 296.172 56.536 296.172 58.888C296.172 60.744 294.652 62.568 293.244 64.088C292.588 64.76 291.42 65.928 291.292 66.04H296.444ZM297.913 64.088V59.176C297.913 56.536 299.353 55.128 301.977 55.128C304.617 55.128 306.057 56.536 306.057 59.176V64.088C306.057 66.728 304.617 68.136 301.977 68.136C299.353 68.136 297.913 66.728 297.913 64.088ZM303.833 63.576V59.688C303.833 57.72 303.209 56.856 301.977 56.856C300.745 56.856 300.137 57.72 300.137 59.688V63.576C300.137 65.544 300.745 66.392 301.977 66.392C303.209 66.392 303.833 65.544 303.833 63.576ZM315.431 64.328C315.431 67.32 313.511 68.088 310.695 68.088H307.431V66.296H310.407C312.183 66.296 313.111 65.64 313.111 64.28C313.111 62.68 311.815 62.2 310.279 62.2H308.919V60.408H310.215C311.767 60.408 312.679 59.8 312.679 58.632C312.679 57.48 312.023 56.952 310.743 56.952L307.847 56.936V55.112L311.223 55.128C313.111 55.144 314.967 56.056 314.967 58.296C314.967 59.928 314.007 60.904 312.775 61.272V61.304C314.279 61.544 315.431 62.664 315.431 64.328ZM316.757 64.088V59.176C316.757 56.536 318.197 55.128 320.821 55.128C323.461 55.128 324.901 56.536 324.901 59.176V64.088C324.901 66.728 323.461 68.136 320.821 68.136C318.197 68.136 316.757 66.728 316.757 64.088ZM322.677 63.576V59.688C322.677 57.72 322.053 56.856 320.821 56.856C319.589 56.856 318.981 57.72 318.981 59.688V63.576C318.981 65.544 319.589 66.392 320.821 66.392C322.053 66.392 322.677 65.544 322.677 63.576ZM271.702 81.576L271.382 83.16H268.806V84.904C268.806 85.24 268.87 85.608 269.094 85.848C270.086 86.952 271.094 87.896 272.214 88.84L270.934 90.072C269.798 89.16 268.726 88.216 267.718 87.176C266.71 88.28 265.51 89.432 264.342 90.424L262.998 89.256C264.118 88.248 265.27 87.256 266.246 85.976C266.454 85.704 266.598 85.336 266.598 85V83.16H263.718V81.576H271.702ZM273.222 91.464V86.136H270.486V84.536H273.222V81.08L275.398 80.76V91.144L273.222 91.464ZM275.494 95.336H266.102V90.712H268.326V93.736H275.814L275.494 95.336ZM283.16 84.504V83.08H278.264V81.48H285.336V86.072H280.488V87.496H281.512C282.968 87.496 285.176 87.416 286.712 87.128V88.712C285.08 89 282.792 89.096 281.336 89.096H278.264V84.504H283.16ZM289.56 80.76V82.664H291.704L291.384 84.264H289.56V86.04H291.704L291.384 87.624H289.56V89.464L287.352 89.784V81.08L289.56 80.76ZM279.976 90.344H289.56V95.368L287.32 95.688V91.928H279.976V90.344Z" fill="white"/>
<path d="M211.997 176.883V177.922H207.608V179.467H211.765V180.506H207.608V182.146C209.885 182.126 211.197 182.071 212.763 181.805L212.899 182.816C211.225 183.138 209.782 183.192 207.267 183.199H206.31V176.883H211.997ZM207.636 187.902V184.156H208.935V186.85H215.921V187.902H207.636ZM214.103 184.977V175.898H215.401V179.658H217.179V180.738H215.401V184.977H214.103ZM229.087 185.537V186.604H217.876V185.537H222.784V182.625H224.069V185.537H229.087ZM218.259 181.777C220.617 181.381 222.723 179.562 222.729 177.621V176.691H224.097V177.621C224.097 179.562 226.229 181.381 228.595 181.777L228.034 182.844C226.045 182.454 224.227 181.224 223.42 179.549C222.613 181.217 220.809 182.454 218.833 182.844L218.259 181.777ZM240.202 175.912V188.189H238.903V181.381H236.374V180.314H238.903V175.912H240.202ZM229.839 184.771C231.712 183.876 233.031 181.559 233.038 179.357V178.209H230.331V177.143H237.071V178.209H234.351V179.357C234.351 181.429 235.656 183.664 237.536 184.498L236.757 185.537C235.342 184.854 234.255 183.425 233.708 181.757C233.161 183.534 232.047 185.059 230.632 185.783L229.839 184.771ZM251.7 175.912V178.797H253.478V179.877H251.7V182.83H250.401V175.912H251.7ZM242.021 181.969C244.953 181.196 246.676 179.658 246.915 177.744H242.595V176.678H248.323C248.316 179.815 246.19 182.023 242.54 183.008L242.021 181.969ZM243.853 187.998V183.35H251.7V187.998H243.853ZM245.151 186.959H250.415V184.43H245.151V186.959ZM267.778 175.912V188.162H266.466V175.912H267.778ZM257.716 184.881C260.97 183.329 262.562 181.121 262.815 178.264H258.304V177.225H264.128C264.128 180.813 262.604 183.917 258.399 185.934L257.716 184.881ZM275.94 176.377C275.947 177.785 277.889 178.968 280.274 179.234L279.823 180.219C277.813 179.973 276.057 179.125 275.271 177.874C274.478 179.125 272.721 179.973 270.731 180.219L270.28 179.234C272.673 178.968 274.607 177.785 274.614 176.377V175.967H275.94V176.377ZM269.692 181.969V180.93H280.862V181.969H275.913V183.062H279.454V185.961H272.317V187.041H279.796V188.039H271.046V185.018H278.169V184.061H271.032V183.062H274.614V181.969H269.692ZM295.696 175.912V188.162H294.452V181.805H292.935V187.574H291.718V176.24H292.935V180.752H294.452V175.912H295.696ZM285.169 184.662C287.89 183.117 289.031 181.032 289.236 178.537H285.688V177.471H290.501C290.494 180.69 289.428 183.589 285.921 185.564L285.169 184.662ZM299.06 176.432V178.1H302.272V176.432H303.558V181.777H297.788V176.432H299.06ZM299.019 183.773V182.748H306.935V185.838H300.317V187H307.358V188.039H299.046V184.881H305.649V183.773H299.019ZM299.06 180.738H302.272V179.098H299.06V180.738ZM305.636 182.215V175.912H306.935V178.482H308.712V179.535H306.935V182.215H305.636ZM314.987 176.117C317.749 176.11 319.355 176.855 319.362 178.223C319.355 179.597 317.749 180.342 314.987 180.342C312.226 180.342 310.605 179.597 310.612 178.223C310.605 176.855 312.226 176.11 314.987 176.117ZM309.409 182.133V181.094H320.579V182.133H309.409ZM310.749 184.047V183.076H319.171V185.947H312.034V187.041H319.513V188.039H310.763V185.004H317.886V184.047H310.749ZM311.966 178.223C311.959 178.981 313.039 179.371 314.987 179.371C316.949 179.371 318.029 178.981 318.022 178.223C318.029 177.498 316.949 177.074 314.987 177.074C313.039 177.074 311.959 177.498 311.966 178.223ZM336.097 182.352V183.377H324.899V182.352H329.849V181.285H326.362V176.24H334.729V177.266H327.675V178.264H334.415V179.234H327.675V180.273H334.812V181.285H331.147V182.352H336.097ZM326.253 186.166C326.253 184.881 327.777 184.177 330.505 184.184C333.191 184.177 334.723 184.881 334.729 186.166C334.723 187.458 333.191 188.142 330.505 188.135C327.777 188.142 326.253 187.458 326.253 186.166ZM327.552 186.166C327.545 186.829 328.57 187.164 330.505 187.15C332.412 187.164 333.431 186.829 333.431 186.166C333.431 185.503 332.412 185.154 330.505 185.154C328.57 185.154 327.545 185.503 327.552 186.166ZM346.651 175.926V179.863H348.429V180.943H346.651V185.086H345.353V175.926H346.651ZM337.04 178.4V177.348H340.048V175.912H341.347V177.348H344.341V178.4H337.04ZM337.71 181.299C337.703 179.897 338.913 178.981 340.69 178.988C342.447 178.981 343.657 179.897 343.657 181.299C343.657 182.687 342.447 183.589 340.69 183.596C338.913 183.589 337.703 182.687 337.71 181.299ZM338.886 187.902V184.361H340.185V186.85H347.171V187.902H338.886ZM338.968 181.299C338.954 182.099 339.651 182.591 340.69 182.584C341.729 182.591 342.427 182.099 342.44 181.299C342.427 180.492 341.729 179.993 340.69 179.986C339.651 179.993 338.954 180.492 338.968 181.299ZM220.665 203.029C220.651 205.265 222.005 207.521 223.905 208.361L223.126 209.387C221.718 208.717 220.604 207.343 220.029 205.668C219.462 207.466 218.334 208.942 216.864 209.66L216.071 208.566C217.999 207.712 219.353 205.367 219.353 203.029V200.938H220.665V203.029ZM225.013 212.189V199.912H226.312V212.189H225.013ZM232.546 202.168C232.539 203.727 233.626 205.148 235.485 205.736L234.87 206.748C233.476 206.304 232.457 205.381 231.917 204.219C231.384 205.559 230.311 206.618 228.841 207.131L228.171 206.092C230.085 205.463 231.24 203.884 231.247 202.182V201.84H228.554V200.787H235.185V201.84H232.546V202.168ZM229.825 209.838C229.825 208.402 231.391 207.562 233.94 207.568C236.463 207.562 238.001 208.402 238.001 209.838C238.001 211.294 236.463 212.142 233.94 212.135C231.391 212.142 229.825 211.294 229.825 209.838ZM231.124 209.838C231.117 210.658 232.17 211.116 233.94 211.109C235.697 211.116 236.736 210.658 236.729 209.838C236.736 209.038 235.697 208.587 233.94 208.594C232.17 208.587 231.117 209.038 231.124 209.838ZM236.593 207.268V199.912H237.892V202.947H239.669V204.014H237.892V207.268H236.593ZM254.271 199.912V212.162H253.026V205.805H251.509V211.574H250.292V200.24H251.509V204.752H253.026V199.912H254.271ZM243.743 208.662C246.464 207.117 247.605 205.032 247.811 202.537H244.263V201.471H249.075C249.068 204.69 248.002 207.589 244.495 209.564L243.743 208.662ZM266.097 207.951V212.176H264.798V209.031H257.798V207.951H266.097ZM255.884 206.27C257.743 205.675 258.892 204.198 258.892 202.605V202.387H256.226V201.334H258.892V199.857H260.19V201.334H262.843V202.387H260.177V202.605C260.177 204.103 261.332 205.483 263.198 206.023L262.61 207.062C261.175 206.625 260.108 205.716 259.555 204.547C259.021 205.812 257.955 206.803 256.513 207.281L255.884 206.27ZM262.419 204.492V203.426H264.798V199.912H266.097V207.377H264.798V204.492H262.419ZM277.868 200.691V205.723H272.044V200.691H277.868ZM272.851 211.123C275.079 210.904 276.822 209.79 276.911 208.689H273.343V207.705H276.938V206.557H278.224V207.705H281.833V208.689H278.251C278.34 209.756 280.042 210.877 282.271 211.123L281.833 212.121C279.912 211.889 278.326 211.068 277.588 209.988C276.836 211.082 275.229 211.889 273.302 212.121L272.851 211.123ZM273.315 204.711H276.583V201.73H273.315V204.711ZM280.261 206.912V199.912H281.546V206.912H280.261ZM291.171 203.029C291.157 205.196 292.422 207.418 294.247 208.307L293.44 209.346C292.107 208.648 291.075 207.281 290.535 205.647C289.988 207.384 288.915 208.854 287.521 209.578L286.714 208.525C288.594 207.623 289.865 205.271 289.872 203.029V200.938H291.171V203.029ZM295.163 212.162V199.912H296.462V204.793H298.431V205.9H296.462V212.162H295.163ZM302.409 200.473C304.022 200.459 305.273 201.396 305.54 202.77H307.933V199.912H309.231V206.488H307.933V203.836H305.547C305.294 205.244 304.036 206.188 302.409 206.188C300.536 206.188 299.189 205.005 299.196 203.316C299.189 201.648 300.536 200.459 302.409 200.473ZM300.44 203.316C300.434 204.362 301.254 205.094 302.409 205.094C303.544 205.094 304.351 204.362 304.351 203.316C304.351 202.264 303.544 201.546 302.409 201.553C301.254 201.546 300.434 202.264 300.44 203.316ZM301.247 212.012V207.076H302.532V208.498H307.933V207.076H309.231V212.012H301.247ZM302.532 210.945H307.933V209.523H302.532V210.945ZM324.175 199.926V203.562H325.925V204.629H324.175V208.17H322.876V199.926H324.175ZM314.454 206.803C315.404 206.803 316.505 206.803 317.653 206.775V205.948C316.259 205.791 315.37 205.135 315.384 204.15C315.37 203.029 316.539 202.332 318.296 202.346C320.053 202.332 321.201 203.029 321.208 204.15C321.201 205.128 320.333 205.784 318.952 205.948V206.728C320.046 206.673 321.153 206.584 322.179 206.434L322.288 207.363C319.656 207.821 316.751 207.842 314.591 207.842L314.454 206.803ZM314.769 201.936V200.965H317.653V199.816H318.952V200.965H321.837V201.936H314.769ZM315.985 209.756V208.744H324.175V212.162H322.876V209.756H315.985ZM316.614 204.15C316.614 204.725 317.25 205.101 318.296 205.094C319.328 205.101 319.971 204.725 319.964 204.15C319.971 203.562 319.328 203.221 318.296 203.234C317.25 203.221 316.614 203.562 316.614 204.15ZM337.149 199.912V212.162H335.905V205.832H334.319V211.533H333.13V200.158H334.319V204.766H335.905V199.912H337.149ZM327.046 209.223V201.389H331.64V202.441H328.345V208.115C329.849 208.108 330.983 208.04 332.296 207.787L332.392 208.854C330.922 209.161 329.65 209.209 327.866 209.223H327.046Z" fill="#C4C4C4"/>
<defs>
<linearGradient id="paint0_linear_4341_967" x1="119.161" y1="3.75" x2="64.5179" y2="150" gradientUnits="userSpaceOnUse">
<stop stop-color="#4B84F0"/>
<stop offset="1" stop-color="#1D53AC"/>
</linearGradient>
<linearGradient id="paint1_linear_4341_967" x1="298.161" y1="3.75" x2="243.518" y2="150" gradientUnits="userSpaceOnUse">
<stop stop-color="#4B84F0"/>
<stop offset="1" stop-color="#1D53AC"/>
</linearGradient>
<clipPath id="clip0_4341_967">
<rect width="375" height="390" fill="white" transform="translate(0 258)"/>
</clipPath>
</defs>
</svg>
