<svg width="339" height="320" viewBox="0 0 339 320" fill="none" xmlns="http://www.w3.org/2000/svg">
<rect x="0.5" y="0.5" width="338" height="151" rx="15.5" fill="#DA7828"/>
<path d="M167.805 54.772H157.059V50.398H165.213V49.444H157.023V47.752H167.697V52.054H159.561V53.062H168.165L167.805 54.772ZM163.737 39.598L163.377 41.398H160.497V41.92C160.497 42.298 160.569 42.73 160.839 43C161.793 43.918 162.819 44.728 164.079 45.718L162.801 47.176C161.541 46.222 160.335 45.286 159.255 44.386C158.067 45.412 156.825 46.474 155.421 47.59L154.053 46.204C155.439 45.16 156.573 44.134 157.545 43.126C157.833 42.838 157.941 42.406 157.941 42.028V41.398H154.503V39.598H157.977V38.194L160.461 37.834V39.598H163.737ZM167.697 38.23V46.762L165.249 47.122V43.936H162.549V42.118H165.249V38.59L167.697 38.23ZM180.12 48.454C182.082 48.454 183.864 49.246 183.864 51.676C183.864 54.124 182.082 54.916 180.12 54.916H176.268C174.234 54.916 172.416 54.124 172.416 51.676C172.416 49.246 174.234 48.454 176.268 48.454H180.12ZM176.538 40.84H171.012V39.04H179.076V40.012C179.076 44.188 175.404 47.392 171.354 48.346L170.382 46.708C173.334 45.88 176.538 43.324 176.538 40.984V40.84ZM183.63 38.23V42.514H186.258L185.862 44.35H183.63V47.806L181.164 48.166V38.59L183.63 38.23ZM179.886 50.236H176.466C175.494 50.236 174.828 50.632 174.828 51.676C174.828 52.738 175.494 53.134 176.466 53.134H179.886C180.786 53.134 181.452 52.738 181.452 51.676C181.452 50.632 180.786 50.236 179.886 50.236Z" fill="white"/>
<path d="M97.2988 77.9258V86.8945H96V77.9258H97.2988ZM87.209 84.1328C89.1299 83.4219 90.2646 81.6582 90.2715 79.8125V78.5957H91.5977V79.8125C91.5908 81.6035 92.7256 83.2441 94.6191 83.9004L93.9492 84.9395C92.5342 84.4131 91.4883 83.374 90.9414 82.0479C90.4014 83.4697 89.3418 84.6045 87.9062 85.1582L87.209 84.1328ZM89.2871 89.9023V86.0469H90.5996V88.8496H97.668V89.9023H89.2871ZM109.822 77.9121V90.1621H108.578V83.873H107.115V89.5605H105.885V78.1445H107.115V82.7793H108.578V77.9121H109.822ZM99.0762 86.7031C100.867 85.6982 101.701 83.5859 101.701 81.1523V80.3594H99.4043V79.3066H105.092V80.3594H102.959V81.1523C102.959 83.3535 103.786 85.3496 105.57 86.2656L104.805 87.2637C103.602 86.6074 102.795 85.4658 102.357 84.0576C101.94 85.6641 101.134 86.9492 99.8828 87.6875L99.0762 86.7031ZM115.086 80.2637C115.086 81.6035 115.94 82.957 117.533 83.5586L116.85 84.5566C115.708 84.1191 114.908 83.2852 114.471 82.2803C114.02 83.415 113.186 84.3994 111.996 84.9121L111.285 83.9004C112.939 83.1826 113.828 81.624 113.828 80.2637V78.6777H115.086V80.2637ZM113.541 87.9199C113.527 86.5254 115.12 85.6982 117.684 85.6914C120.24 85.6982 121.847 86.5254 121.854 87.9199C121.847 89.3145 120.24 90.1416 117.684 90.1348C115.12 90.1416 113.527 89.3145 113.541 87.9199ZM114.826 87.9199C114.812 88.6992 115.899 89.1504 117.684 89.1367C119.461 89.1504 120.548 88.6992 120.555 87.9199C120.548 87.1338 119.461 86.6826 117.684 86.6895C115.899 86.6826 114.812 87.1338 114.826 87.9199ZM117.916 85.0762V78.1445H119.119V81.1113H120.555V77.9258H121.785V85.459H120.555V82.1777H119.119V85.0762H117.916ZM133.98 77.9121V90.1621H132.736V77.9121H133.98ZM123.576 83.2031C123.576 80.5508 124.615 78.8896 126.215 78.8965C127.705 78.8896 128.71 80.3047 128.86 82.6016H130.248V78.1445H131.492V89.5605H130.248V83.6543H128.867C128.751 86.0469 127.732 87.5303 126.215 87.5234C124.615 87.5303 123.576 85.8623 123.576 83.2031ZM124.779 83.2031C124.779 85.1514 125.333 86.2998 126.215 86.293C127.117 86.2998 127.678 85.1514 127.678 83.2031C127.678 81.248 127.117 80.1064 126.215 80.1133C125.333 80.1064 124.779 81.248 124.779 83.2031ZM145.766 77.9121V90.1895H144.467V82.9297H140.816V81.8633H144.467V77.9121H145.766ZM136.195 87.2363V79.2656H137.508V86.1562C139.258 86.1289 140.905 86.0195 142.689 85.6641L142.854 86.7305C140.878 87.1338 139.101 87.2432 137.18 87.2363H136.195ZM152.15 81.5215C152.144 83.5723 153.49 85.6914 155.377 86.498L154.666 87.5098C153.224 86.874 152.075 85.5205 151.508 83.8867C150.94 85.6367 149.792 87.127 148.363 87.8242L147.611 86.7988C149.457 85.9307 150.824 83.6338 150.838 81.5215V80.2227H148.035V79.1426H154.939V80.2227H152.15V81.5215ZM156.484 90.1621V77.9121H157.783V90.1621H156.484ZM160.477 85.2266C160.49 82.6494 161.222 80.5098 162.5 78.6777H163.84C162.896 80.0312 161.994 82.7861 161.994 85.2266C161.994 87.6738 162.896 90.4287 163.84 91.7891H162.5C161.222 89.9502 160.49 87.8105 160.477 85.2266ZM170.115 79.2793V80.3184H166.451V82.5059H169.91V83.5312H166.451V86.1152C168.112 86.1016 169.206 86.0469 170.498 85.8281L170.607 86.8945C169.172 87.1543 167.982 87.209 166.027 87.209H165.207V79.2793H170.115ZM171.318 89.5605V78.1445H172.562V82.7793H174.039V77.9121H175.283V90.1621H174.039V83.832H172.562V89.5605H171.318ZM188.203 79.6484V80.7148H186.467V82.2734H188.203V83.3535H186.467V85.1445H185.168V77.9121H186.467V79.6484H188.203ZM177.033 81.5352C177.02 79.8125 178.414 78.623 180.287 78.623C182.167 78.623 183.541 79.8125 183.555 81.5352C183.541 83.2441 182.167 84.4404 180.287 84.4473C178.414 84.4404 177.02 83.2441 177.033 81.5352ZM178.305 81.5352C178.291 82.6221 179.139 83.3398 180.287 83.3535C181.436 83.3398 182.276 82.6221 182.283 81.5352C182.276 80.4551 181.436 79.71 180.287 79.7168C179.139 79.71 178.291 80.4551 178.305 81.5352ZM178.4 87.8105C178.4 86.3408 179.986 85.4795 182.516 85.4727C185.018 85.4795 186.576 86.3408 186.576 87.8105C186.576 89.2734 185.018 90.1416 182.516 90.1348C179.986 90.1416 178.4 89.2734 178.4 87.8105ZM179.699 87.8105C179.692 88.6445 180.745 89.1025 182.516 89.0957C184.272 89.1025 185.312 88.6445 185.305 87.8105C185.312 86.9902 184.272 86.5186 182.516 86.5254C180.745 86.5186 179.692 86.9902 179.699 87.8105ZM195.764 78.6504V79.3477C195.757 80.127 195.757 81.2344 195.449 82.6426L194.164 82.5332C194.424 81.3369 194.465 80.4414 194.472 79.7168H189.584V78.6504H195.764ZM188.846 83.6953C189.604 83.6953 190.459 83.6885 191.348 83.6748V81.3301H192.633V83.6406C193.952 83.5928 195.299 83.5039 196.529 83.3535L196.611 84.2695C194.055 84.7002 191.17 84.7686 188.969 84.7754L188.846 83.6953ZM190.445 87.8652C190.445 86.4844 192.024 85.6504 194.588 85.6504C197.151 85.6504 198.73 86.4844 198.73 87.8652C198.73 89.3008 197.151 90.1279 194.588 90.1211C192.024 90.1279 190.445 89.3008 190.445 87.8652ZM191.758 87.8652C191.751 88.6787 192.817 89.1025 194.588 89.0957C196.352 89.1025 197.404 88.6787 197.418 87.8652C197.404 87.1133 196.352 86.6621 194.588 86.6621C192.817 86.6621 191.751 87.1133 191.758 87.8652ZM197.309 85.5V77.9121H198.635V81.1523H200.33V82.2324H198.635V85.5H197.309ZM203.242 88.0566L202.148 91.8301H200.986L201.711 88.0566H203.242ZM219.211 83.8184V84.8711H214.262V85.9375C216.518 86.0537 217.844 86.7852 217.857 88.0293C217.844 89.3965 216.265 90.1416 213.619 90.1348C210.953 90.1416 209.374 89.3965 209.381 88.0293C209.374 86.7852 210.7 86.0537 212.977 85.9375V84.8711H208.041V83.8184H219.211ZM209.066 79.416V78.3496H218.158V79.416H216.381V81.7539H218.104V82.8066H209.121V81.7539H210.857V79.416H209.066ZM210.68 88.0293C210.68 88.7676 211.746 89.1641 213.619 89.1504C215.465 89.1641 216.531 88.7676 216.531 88.0293C216.531 87.3115 215.465 86.9082 213.619 86.9082C211.746 86.9082 210.68 87.3115 210.68 88.0293ZM212.143 81.7539H215.082V79.416H212.143V81.7539ZM225.979 78.6504V82.2188H221.932V83.9141C224.064 83.9141 225.227 83.8662 226.607 83.6133L226.73 84.666C225.233 84.9189 223.976 84.96 221.535 84.9668H220.646V81.2344H224.68V79.6895H220.633V78.6504H225.979ZM222.041 87.127V86.0742H230.354V90.1758H229.055V87.127H222.041ZM226.758 83.2988V82.2598H229.055V80.7422H226.758V79.7031H229.055V77.9258H230.354V85.459H229.055V83.2988H226.758ZM246.842 83.668V84.7344H235.658V83.668H246.842ZM236.984 87.9199C236.984 86.498 238.577 85.6914 241.236 85.6914C243.875 85.6914 245.454 86.498 245.461 87.9199C245.454 89.3418 243.875 90.1416 241.236 90.1348C238.577 90.1416 236.984 89.3418 236.984 87.9199ZM237.053 82.6016V78.3496H245.461V79.416H238.338V81.5488H245.543V82.6016H237.053ZM238.297 87.9199C238.29 88.7061 239.363 89.1299 241.236 89.1367C243.082 89.1299 244.162 88.7061 244.162 87.9199C244.162 87.1406 243.082 86.7031 241.236 86.6895C239.363 86.7031 238.29 87.1406 238.297 87.9199ZM251.121 85.2266C251.107 87.8105 250.376 89.9502 249.098 91.7891H247.758C248.701 90.4287 249.604 87.6738 249.604 85.2266C249.604 82.7861 248.701 80.0312 247.758 78.6777H249.098C250.376 80.5098 251.107 82.6494 251.121 85.2266ZM106.91 104.318C106.91 105.59 108.141 106.738 110.014 107.148L109.426 108.146C107.97 107.805 106.855 107.025 106.295 105.993C105.741 107.128 104.627 107.989 103.123 108.379L102.549 107.367C104.422 106.896 105.625 105.686 105.625 104.318V104.113H102.959V103.074H105.625V101.857H106.924V103.074H109.576V104.113H106.91V104.318ZM104.805 109.869V108.857H112.816V111.879H106.131V113.027H113.254V114.039H104.832V110.922H111.531V109.869H104.805ZM109.221 105.945V104.906H111.531V101.912H112.816V108.324H111.531V105.945H109.221ZM124.342 101.912V105.002H126.119V106.055H124.342V109.186H123.043V101.912H124.342ZM114.703 108.229C117.574 107.422 119.331 105.822 119.57 103.84H115.25V102.787H120.979C120.979 105.952 118.825 108.242 115.236 109.281L114.703 108.229ZM116.371 111.729C116.357 110.238 117.971 109.315 120.432 109.322C122.899 109.315 124.479 110.238 124.479 111.729C124.479 113.232 122.899 114.142 120.432 114.148C117.971 114.142 116.357 113.232 116.371 111.729ZM117.656 111.729C117.649 112.59 118.716 113.116 120.432 113.123C122.134 113.116 123.207 112.59 123.207 111.729C123.207 110.867 122.134 110.341 120.432 110.348C118.716 110.341 117.649 110.867 117.656 111.729ZM140.748 101.912V114.162H139.504V101.912H140.748ZM130.057 110.785C131.793 109.739 132.675 107.511 132.682 105.33V104.346H130.426V103.293H136.031V104.346H133.926V105.33C133.926 107.422 134.773 109.521 136.496 110.512L135.717 111.469C134.548 110.771 133.748 109.521 133.317 108.044C132.88 109.644 132.046 111.011 130.85 111.756L130.057 110.785ZM135.129 107.312V106.246H137.029V102.172H138.26V113.547H137.029V107.312H135.129ZM153.504 107.777V108.816H148.555V110.129H152.137V114.012H143.674V110.129H147.27V108.816H142.334V107.777H153.504ZM143.359 103.348V102.295H152.451V103.348H150.674V105.686H152.396V106.738H143.414V105.686H145.15V103.348H143.359ZM144.959 112.959H150.879V111.154H144.959V112.959ZM146.436 105.686H149.375V103.348H146.436V105.686ZM168.051 101.912V114.162H166.766V107.832H164.018V106.766H166.766V101.912H168.051ZM157.824 110.867C161.071 109.281 162.514 107.073 162.739 104.264H158.371V103.225H164.059C164.045 106.772 162.664 109.835 158.508 111.893L157.824 110.867ZM174.955 103.197V107.627H171.592V110.211C172.918 110.204 174.176 110.143 175.652 109.91L175.762 110.949C174.06 111.25 172.692 111.291 171.168 111.305H170.334V106.561H173.697V104.264H170.32V103.197H174.955ZM176.445 113.533V102.158H177.635V106.684H179.221V101.912H180.465V114.162H179.221V107.736H177.635V113.533H176.445ZM189.98 105.521C189.974 107.572 191.32 109.691 193.207 110.498L192.496 111.51C191.054 110.874 189.905 109.521 189.338 107.887C188.771 109.637 187.622 111.127 186.193 111.824L185.441 110.799C187.287 109.931 188.654 107.634 188.668 105.521V104.223H185.865V103.143H192.77V104.223H189.98V105.521ZM194.314 114.162V101.912H195.613V114.162H194.314ZM208.766 107.996V109.062H197.568V107.996H202.504V106.205H203.789V107.996H208.766ZM198.211 105.85C200.556 105.549 202.483 104.168 202.49 102.623V102.104H203.803V102.623C203.796 104.188 205.717 105.549 208.082 105.85L207.576 106.875C205.635 106.561 203.919 105.617 203.14 104.264C202.36 105.617 200.645 106.561 198.689 106.875L198.211 105.85ZM198.812 111.168V110.143H207.371V114.162H206.059V111.168H198.812ZM222.725 101.926V105.562H224.475V106.629H222.725V110.17H221.426V101.926H222.725ZM213.004 108.803C213.954 108.803 215.055 108.803 216.203 108.775V107.948C214.809 107.791 213.92 107.135 213.934 106.15C213.92 105.029 215.089 104.332 216.846 104.346C218.603 104.332 219.751 105.029 219.758 106.15C219.751 107.128 218.883 107.784 217.502 107.948V108.728C218.596 108.673 219.703 108.584 220.729 108.434L220.838 109.363C218.206 109.821 215.301 109.842 213.141 109.842L213.004 108.803ZM213.318 103.936V102.965H216.203V101.816H217.502V102.965H220.387V103.936H213.318ZM214.535 111.756V110.744H222.725V114.162H221.426V111.756H214.535ZM215.164 106.15C215.164 106.725 215.8 107.101 216.846 107.094C217.878 107.101 218.521 106.725 218.514 106.15C218.521 105.562 217.878 105.221 216.846 105.234C215.8 105.221 215.164 105.562 215.164 106.15ZM235.699 101.912V114.162H234.455V107.832H232.869V113.533H231.68V102.158H232.869V106.766H234.455V101.912H235.699ZM225.596 111.223V103.389H230.189V104.441H226.895V110.115C228.398 110.108 229.533 110.04 230.846 109.787L230.941 110.854C229.472 111.161 228.2 111.209 226.416 111.223H225.596Z" fill="#F4F8FF"/>
<rect x="0.5" y="0.5" width="338" height="151" rx="15.5" stroke="#A6520D"/>
<rect x="0.5" y="168.5" width="338" height="151" rx="15.5" fill="#DA7828"/>
<path d="M154.683 212.782C154.683 211.108 156.285 209.758 158.787 209.758C161.289 209.758 162.891 211.108 162.891 212.782V213.358C162.891 214.69 161.883 215.806 160.227 216.22V218.02C161.793 217.948 163.197 217.732 164.133 217.588V219.37C161.577 219.73 158.805 219.838 156.033 219.838H153.855V218.038H157.707V216.292C155.835 215.968 154.683 214.78 154.683 213.358V212.782ZM164.763 206.59L167.247 206.23V213.178H169.731L169.371 215.014H167.247V222.34L164.763 222.7V206.59ZM163.395 209.398H153.909V207.598H157.545V206.41L160.029 206.05V207.598H163.755L163.395 209.398ZM160.551 212.944C160.551 212.062 159.831 211.468 158.787 211.468C157.743 211.468 157.023 212.062 157.023 212.944V213.196C157.023 214.078 157.743 214.672 158.787 214.672C159.831 214.672 160.551 214.078 160.551 213.196V212.944ZM170.976 212.926C170.976 210.874 172.83 209.794 175.08 209.794C177.33 209.794 179.184 210.874 179.184 212.926V213.214C179.184 215.266 177.33 216.4 175.08 216.4C172.83 216.4 170.976 215.266 170.976 213.214V212.926ZM183.63 206.23V211.396H186.222L185.862 213.142H183.63V216.22L181.146 216.58V206.59L183.63 206.23ZM172.848 217.228H183.63V222.664L181.11 223.024V219.01H172.848V217.228ZM179.688 209.434H170.112V207.67H173.748V206.392L176.232 206.032V207.67H180.048L179.688 209.434ZM176.844 212.998C176.844 212.08 176.07 211.486 175.08 211.486C174.09 211.486 173.316 212.08 173.316 212.998V213.142C173.316 214.042 174.09 214.708 175.08 214.708C176.07 214.708 176.844 214.042 176.844 213.142V212.998Z" fill="white"/>
<path d="M119.919 245.912V250.656H121.888V251.75H119.919V258.162H118.62V245.912H119.919ZM110.841 255.25V246.938H112.126V250.082H115.366V246.938H116.651V255.25H110.841ZM112.126 254.184H115.366V251.107H112.126V254.184ZM132.62 245.912V258.189H131.321V245.912H132.62ZM122.899 251.121C122.899 248.503 124.219 246.835 126.071 246.828C127.89 246.835 129.229 248.503 129.229 251.121C129.229 253.767 127.89 255.435 126.071 255.428C124.219 255.435 122.899 253.767 122.899 251.121ZM124.157 251.121C124.15 253.069 124.93 254.266 126.071 254.266C127.192 254.266 127.972 253.069 127.972 251.121C127.972 249.2 127.192 247.997 126.071 247.99C124.93 247.997 124.15 249.2 124.157 251.121ZM140.153 246.65C142.771 246.657 144.679 247.949 144.679 249.904C144.679 251.736 143.079 252.96 140.796 253.145V255.551H145.786V256.631H134.575V255.551H139.511V253.145C137.241 252.96 135.635 251.736 135.642 249.904C135.635 247.949 137.549 246.657 140.153 246.65ZM136.899 249.904C136.899 251.278 138.267 252.133 140.153 252.146C142.054 252.133 143.414 251.278 143.421 249.904C143.414 248.578 142.054 247.703 140.153 247.717C138.267 247.703 136.899 248.578 136.899 249.904ZM160.306 245.926V254.949H159.007V251.764H155.965C155.391 252.454 154.502 252.871 153.483 252.871C151.638 252.871 150.264 251.579 150.271 249.781C150.264 247.97 151.638 246.678 153.483 246.664C154.495 246.671 155.377 247.088 155.951 247.771H159.007V245.926H160.306ZM151.515 249.781C151.508 250.937 152.335 251.729 153.483 251.723C154.584 251.729 155.425 250.937 155.425 249.781C155.425 248.626 154.584 247.833 153.483 247.826C152.335 247.833 151.508 248.626 151.515 249.781ZM152.349 257.902V254.006H153.647V256.85H160.634V257.902H152.349ZM156.525 248.824C156.621 249.125 156.669 249.439 156.669 249.781C156.669 250.109 156.621 250.424 156.532 250.711H159.007V248.824H156.525ZM173.403 255.605V256.699H162.192V255.605H165.255V253.445H163.56V249.549H170.751V247.84H163.532V246.773H172.036V250.602H164.845V252.379H172.323V253.445H170.464V255.605H173.403ZM166.513 255.605H169.192V253.445H166.513V255.605ZM184.177 246.691V251.723H178.353V246.691H184.177ZM179.159 257.123C181.388 256.904 183.131 255.79 183.22 254.689H179.651V253.705H183.247V252.557H184.532V253.705H188.142V254.689H184.56C184.648 255.756 186.351 256.877 188.579 257.123L188.142 258.121C186.221 257.889 184.635 257.068 183.896 255.988C183.145 257.082 181.538 257.889 179.61 258.121L179.159 257.123ZM179.624 250.711H182.892V247.73H179.624V250.711ZM186.569 252.912V245.912H187.854V252.912H186.569ZM203.413 245.926V255.209H202.114V254.033H199.653V253.117H202.114V245.926H203.413ZM193.173 251.518C195.436 251.497 198.491 251.477 201.103 251.148L201.185 252.078C200.139 252.256 199.038 252.365 197.958 252.44V254.826H196.659V252.509C195.47 252.557 194.328 252.557 193.337 252.557L193.173 251.518ZM194.13 248.551C194.123 247.252 195.36 246.391 197.179 246.391C198.97 246.391 200.214 247.252 200.214 248.551C200.214 249.856 198.97 250.684 197.179 250.684C195.367 250.684 194.123 249.856 194.13 248.551ZM194.868 257.902V254.307H196.153V256.85H203.714V257.902H194.868ZM195.36 248.551C195.354 249.275 196.092 249.727 197.179 249.727C198.225 249.727 198.977 249.275 198.983 248.551C198.977 247.819 198.225 247.348 197.179 247.361C196.092 247.348 195.354 247.819 195.36 248.551ZM215.909 245.912V258.162H214.665V251.873H213.202V257.561H211.972V246.145H213.202V250.779H214.665V245.912H215.909ZM205.163 254.703C206.954 253.698 207.788 251.586 207.788 249.152V248.359H205.491V247.307H211.179V248.359H209.046V249.152C209.046 251.354 209.873 253.35 211.657 254.266L210.892 255.264C209.688 254.607 208.882 253.466 208.444 252.058C208.027 253.664 207.221 254.949 205.97 255.688L205.163 254.703ZM228.638 255.605V256.699H217.427V255.605H220.489V253.445H218.794V249.549H225.985V247.84H218.767V246.773H227.271V250.602H220.079V252.379H227.558V253.445H225.698V255.605H228.638ZM221.747 255.605H224.427V253.445H221.747V255.605ZM96.1914 271.102V281H94.6875V271.102H96.1914ZM103.588 273.713C103.492 272.79 102.686 272.264 101.551 272.264C100.341 272.264 99.5752 272.886 99.5684 273.727C99.5684 274.663 100.587 275.032 101.373 275.217L102.33 275.477C103.595 275.784 105.181 276.475 105.188 278.266C105.181 279.94 103.848 281.164 101.51 281.164C99.2949 281.164 97.9004 280.057 97.8047 278.252H99.3086C99.3975 279.332 100.354 279.845 101.51 279.852C102.774 279.845 103.69 279.209 103.697 278.238C103.69 277.377 102.87 277.028 101.824 276.748L100.648 276.434C99.0557 275.996 98.0713 275.189 98.0645 273.809C98.0713 272.1 99.5889 270.965 101.592 270.965C103.602 270.965 105.003 272.113 105.051 273.713H103.588ZM113.5 274.328C113.261 273.05 112.201 272.339 110.943 272.346C109.234 272.339 107.97 273.651 107.963 276.051C107.97 278.464 109.241 279.763 110.943 279.756C112.188 279.763 113.24 279.065 113.5 277.801L115.018 277.814C114.703 279.77 113.11 281.137 110.93 281.137C108.353 281.137 106.473 279.216 106.473 276.051C106.473 272.886 108.366 270.965 110.93 270.965C113.021 270.965 114.683 272.202 115.018 274.328H113.5ZM123.344 274.328C123.104 273.05 122.045 272.339 120.787 272.346C119.078 272.339 117.813 273.651 117.807 276.051C117.813 278.464 119.085 279.763 120.787 279.756C122.031 279.763 123.084 279.065 123.344 277.801L124.861 277.814C124.547 279.77 122.954 281.137 120.773 281.137C118.196 281.137 116.316 279.216 116.316 276.051C116.316 272.886 118.21 270.965 120.773 270.965C122.865 270.965 124.526 272.202 124.861 274.328H123.344ZM129.906 281V271.102H136.113V272.4H131.41V275.395H135.785V276.68H131.41V279.701H136.168V281H129.906ZM144.316 271.102H145.82V277.609C145.827 279.688 144.262 281.164 141.896 281.164C139.511 281.164 137.952 279.688 137.959 277.609V271.102H139.463V277.486C139.456 278.826 140.393 279.79 141.896 279.797C143.394 279.79 144.316 278.826 144.316 277.486V271.102ZM150.605 281.137C148.616 281.137 147.393 279.961 147.393 278.375C147.393 277.186 148.172 276.461 149.307 275.688C148.678 274.923 148.22 274.226 148.213 273.344C148.22 271.97 149.204 270.992 150.715 270.992C152.239 270.992 153.176 271.99 153.176 273.152C153.176 274.096 152.684 274.786 151.863 275.381L151.18 275.88L153.162 278.245C153.415 277.753 153.572 277.165 153.572 276.502H154.885C154.885 277.876 154.488 278.758 154.058 279.318L155.473 281H153.832L153.162 280.214C152.485 280.843 151.501 281.137 150.605 281.137ZM148.855 278.334C148.849 279.182 149.546 279.906 150.619 279.906C151.221 279.906 151.836 279.674 152.342 279.257L150.127 276.659L149.881 276.844C149.102 277.418 148.849 278.02 148.855 278.334ZM149.58 273.357C149.58 273.863 149.936 274.369 150.387 274.923L150.988 274.492C151.528 274.137 151.85 273.774 151.85 273.193C151.85 272.729 151.412 272.209 150.742 272.209C150.059 272.216 149.58 272.79 149.58 273.357ZM156.553 281V271.102H160.08C162.384 271.102 163.512 272.482 163.512 274.314C163.512 276.14 162.377 277.527 160.08 277.527H158.057V281H156.553ZM158.057 276.242H159.93C161.386 276.249 161.994 275.429 161.994 274.314C161.994 273.193 161.386 272.394 159.93 272.387H158.057V276.242ZM165.098 281V271.102H166.602V279.701H171.072V281H165.098ZM178.975 271.102H180.479V277.609C180.485 279.688 178.92 281.164 176.555 281.164C174.169 281.164 172.61 279.688 172.617 277.609V271.102H174.121V277.486C174.114 278.826 175.051 279.79 176.555 279.797C178.052 279.79 178.975 278.826 178.975 277.486V271.102ZM187.889 273.713C187.793 272.79 186.986 272.264 185.852 272.264C184.642 272.264 183.876 272.886 183.869 273.727C183.869 274.663 184.888 275.032 185.674 275.217L186.631 275.477C187.896 275.784 189.481 276.475 189.488 278.266C189.481 279.94 188.148 281.164 185.811 281.164C183.596 281.164 182.201 280.057 182.105 278.252H183.609C183.698 279.332 184.655 279.845 185.811 279.852C187.075 279.845 187.991 279.209 187.998 278.238C187.991 277.377 187.171 277.028 186.125 276.748L184.949 276.434C183.356 275.996 182.372 275.189 182.365 273.809C182.372 272.1 183.89 270.965 185.893 270.965C187.902 270.965 189.304 272.113 189.352 273.713H187.889ZM204.117 269.926V278.826H202.818V269.926H204.117ZM194.205 273.781C194.212 272.011 195.62 270.753 197.473 270.746C199.318 270.753 200.727 272.011 200.727 273.781C200.727 275.579 199.318 276.83 197.473 276.83C195.62 276.83 194.212 275.579 194.205 273.781ZM195.477 273.781C195.47 274.937 196.331 275.695 197.473 275.695C198.594 275.695 199.455 274.937 199.455 273.781C199.455 272.653 198.594 271.881 197.473 271.881C196.331 271.881 195.47 272.653 195.477 273.781ZM196.105 281.902V277.924H197.418V280.85H204.486V281.902H196.105ZM217.229 275.682V276.734H206.059V275.682H217.229ZM206.646 274.014C208.868 273.774 210.625 272.776 210.769 271.58H207.084V270.514H216.23V271.58H212.505C212.655 272.77 214.385 273.774 216.654 274.014L216.189 275.039C214.063 274.793 212.307 273.897 211.644 272.605C210.967 273.897 209.224 274.793 207.098 275.039L206.646 274.014ZM207.385 279.92C207.385 278.498 208.978 277.678 211.637 277.678C214.275 277.678 215.854 278.498 215.861 279.92C215.854 281.342 214.275 282.142 211.637 282.135C208.978 282.142 207.385 281.342 207.385 279.92ZM208.697 279.92C208.69 280.692 209.764 281.116 211.637 281.109C213.482 281.116 214.562 280.692 214.562 279.92C214.562 279.127 213.482 278.703 211.637 278.689C209.764 278.703 208.69 279.127 208.697 279.92ZM226.307 272.277C226.3 273.433 227.4 274.444 229.191 274.82L228.658 275.832C227.25 275.511 226.211 274.807 225.671 273.877C225.145 274.889 224.092 275.661 222.643 275.996L222.096 274.984C223.907 274.595 225.001 273.501 225.008 272.277H222.369V271.252H225.008V269.939H226.307V271.252H228.932V272.277H226.307ZM221.562 276.748C223.887 276.748 226.963 276.728 229.629 276.393L229.725 277.336C228.604 277.521 227.448 277.637 226.32 277.705V281.793H225.021V277.773C223.846 277.821 222.725 277.828 221.74 277.828L221.562 276.748ZM230.477 282.162V269.926H231.762V282.162H230.477ZM244.859 275.818V276.871H233.676V275.818H244.859ZM234.92 279.25V278.197H243.492V282.203H242.207V279.25H234.92ZM235.07 274.574V270.363H243.479V271.416H236.369V273.535H243.602V274.574H235.07Z" fill="#F4F8FF"/>
<rect x="0.5" y="168.5" width="338" height="151" rx="15.5" stroke="#A6520D"/>
</svg>
