<svg width="1336" height="260" viewBox="0 0 1336 260" fill="none" xmlns="http://www.w3.org/2000/svg">
<g clip-path="url(#clip0_580_14355)">
<rect x="154.5" y="0.5" width="327" height="259" rx="15.5" fill="#DA7828" stroke="#A6520D"/>
<path d="M309.74 50.696H305.684V51.464C305.684 51.968 305.756 52.544 306.116 52.904C307.46 54.224 308.972 55.496 310.652 56.84L309.092 58.472C307.532 57.224 305.732 55.784 304.34 54.536C302.828 55.928 300.884 57.632 299.228 59.024C298.7 58.496 298.124 57.992 297.596 57.464C299.396 56.024 301.1 54.44 302.372 53.072C302.756 52.664 302.9 52.112 302.9 51.608V50.696H298.22V48.584H302.948V46.592C303.836 46.472 304.748 46.352 305.66 46.208V48.584H310.172L309.74 50.696ZM315.284 46.736V58.016C314.396 58.16 313.508 58.304 312.62 58.424V54.128H308.948V52.04H312.62V47.144L315.284 46.736ZM315.476 68.48H301.7V62.912H312.572V61.328H301.652V59.336H315.284V64.832H304.412V66.512H315.884L315.476 68.48ZM336.528 46.736V52.472H339.984L339.552 54.584H336.528V59.528L333.864 59.96V47.144L336.528 46.736ZM330.48 49.016C330.48 54.32 325.992 58.616 320.568 60.056L319.416 58.136C323.688 56.864 327.672 53.336 327.672 50.168V49.976H320.304V47.912H330.48V49.016ZM327.12 68.648C324.408 68.648 322.32 67.4 322.32 64.472C322.32 61.568 324.408 60.32 327.12 60.32H332.16C334.848 60.32 336.864 61.568 336.864 64.472C336.864 67.4 334.848 68.648 332.16 68.648H327.12ZM327.36 62.384C325.872 62.384 324.96 63.08 324.96 64.472C324.96 65.888 325.872 66.584 327.36 66.584H331.896C333.36 66.584 334.224 65.888 334.224 64.472C334.224 63.08 333.36 62.384 331.896 62.384H327.36Z" fill="white"/>
<path d="M245.799 112.926V121.895H244.5V112.926H245.799ZM235.709 119.133C237.63 118.422 238.765 116.658 238.771 114.812V113.596H240.098V114.812C240.091 116.604 241.226 118.244 243.119 118.9L242.449 119.939C241.034 119.413 239.988 118.374 239.441 117.048C238.901 118.47 237.842 119.604 236.406 120.158L235.709 119.133ZM237.787 124.902V121.047H239.1V123.85H246.168V124.902H237.787ZM258.322 112.912V125.162H257.078V118.873H255.615V124.561H254.385V113.145H255.615V117.779H257.078V112.912H258.322ZM247.576 121.703C249.367 120.698 250.201 118.586 250.201 116.152V115.359H247.904V114.307H253.592V115.359H251.459V116.152C251.459 118.354 252.286 120.35 254.07 121.266L253.305 122.264C252.102 121.607 251.295 120.466 250.857 119.058C250.44 120.664 249.634 121.949 248.383 122.688L247.576 121.703ZM263.586 115.264C263.586 116.604 264.44 117.957 266.033 118.559L265.35 119.557C264.208 119.119 263.408 118.285 262.971 117.28C262.52 118.415 261.686 119.399 260.496 119.912L259.785 118.9C261.439 118.183 262.328 116.624 262.328 115.264V113.678H263.586V115.264ZM262.041 122.92C262.027 121.525 263.62 120.698 266.184 120.691C268.74 120.698 270.347 121.525 270.354 122.92C270.347 124.314 268.74 125.142 266.184 125.135C263.62 125.142 262.027 124.314 262.041 122.92ZM263.326 122.92C263.312 123.699 264.399 124.15 266.184 124.137C267.961 124.15 269.048 123.699 269.055 122.92C269.048 122.134 267.961 121.683 266.184 121.689C264.399 121.683 263.312 122.134 263.326 122.92ZM266.416 120.076V113.145H267.619V116.111H269.055V112.926H270.285V120.459H269.055V117.178H267.619V120.076H266.416ZM282.48 112.912V125.162H281.236V112.912H282.48ZM272.076 118.203C272.076 115.551 273.115 113.89 274.715 113.896C276.205 113.89 277.21 115.305 277.36 117.602H278.748V113.145H279.992V124.561H278.748V118.654H277.367C277.251 121.047 276.232 122.53 274.715 122.523C273.115 122.53 272.076 120.862 272.076 118.203ZM273.279 118.203C273.279 120.151 273.833 121.3 274.715 121.293C275.617 121.3 276.178 120.151 276.178 118.203C276.178 116.248 275.617 115.106 274.715 115.113C273.833 115.106 273.279 116.248 273.279 118.203ZM294.266 112.912V125.189H292.967V117.93H289.316V116.863H292.967V112.912H294.266ZM284.695 122.236V114.266H286.008V121.156C287.758 121.129 289.405 121.02 291.189 120.664L291.354 121.73C289.378 122.134 287.601 122.243 285.68 122.236H284.695ZM300.65 116.521C300.644 118.572 301.99 120.691 303.877 121.498L303.166 122.51C301.724 121.874 300.575 120.521 300.008 118.887C299.44 120.637 298.292 122.127 296.863 122.824L296.111 121.799C297.957 120.931 299.324 118.634 299.338 116.521V115.223H296.535V114.143H303.439V115.223H300.65V116.521ZM304.984 125.162V112.912H306.283V125.162H304.984ZM308.977 120.227C308.99 117.649 309.722 115.51 311 113.678H312.34C311.396 115.031 310.494 117.786 310.494 120.227C310.494 122.674 311.396 125.429 312.34 126.789H311C309.722 124.95 308.99 122.811 308.977 120.227ZM318.615 114.279V115.318H314.951V117.506H318.41V118.531H314.951V121.115C316.612 121.102 317.706 121.047 318.998 120.828L319.107 121.895C317.672 122.154 316.482 122.209 314.527 122.209H313.707V114.279H318.615ZM319.818 124.561V113.145H321.062V117.779H322.539V112.912H323.783V125.162H322.539V118.832H321.062V124.561H319.818ZM336.703 114.648V115.715H334.967V117.273H336.703V118.354H334.967V120.145H333.668V112.912H334.967V114.648H336.703ZM325.533 116.535C325.52 114.812 326.914 113.623 328.787 113.623C330.667 113.623 332.041 114.812 332.055 116.535C332.041 118.244 330.667 119.44 328.787 119.447C326.914 119.44 325.52 118.244 325.533 116.535ZM326.805 116.535C326.791 117.622 327.639 118.34 328.787 118.354C329.936 118.34 330.776 117.622 330.783 116.535C330.776 115.455 329.936 114.71 328.787 114.717C327.639 114.71 326.791 115.455 326.805 116.535ZM326.9 122.811C326.9 121.341 328.486 120.479 331.016 120.473C333.518 120.479 335.076 121.341 335.076 122.811C335.076 124.273 333.518 125.142 331.016 125.135C328.486 125.142 326.9 124.273 326.9 122.811ZM328.199 122.811C328.192 123.645 329.245 124.103 331.016 124.096C332.772 124.103 333.812 123.645 333.805 122.811C333.812 121.99 332.772 121.519 331.016 121.525C329.245 121.519 328.192 121.99 328.199 122.811ZM344.264 113.65V114.348C344.257 115.127 344.257 116.234 343.949 117.643L342.664 117.533C342.924 116.337 342.965 115.441 342.972 114.717H338.084V113.65H344.264ZM337.346 118.695C338.104 118.695 338.959 118.688 339.848 118.675V116.33H341.133V118.641C342.452 118.593 343.799 118.504 345.029 118.354L345.111 119.27C342.555 119.7 339.67 119.769 337.469 119.775L337.346 118.695ZM338.945 122.865C338.945 121.484 340.524 120.65 343.088 120.65C345.651 120.65 347.23 121.484 347.23 122.865C347.23 124.301 345.651 125.128 343.088 125.121C340.524 125.128 338.945 124.301 338.945 122.865ZM340.258 122.865C340.251 123.679 341.317 124.103 343.088 124.096C344.852 124.103 345.904 123.679 345.918 122.865C345.904 122.113 344.852 121.662 343.088 121.662C341.317 121.662 340.251 122.113 340.258 122.865ZM345.809 120.5V112.912H347.135V116.152H348.83V117.232H347.135V120.5H345.809ZM351.742 123.057L350.648 126.83H349.486L350.211 123.057H351.742ZM367.711 118.818V119.871H362.762V120.938C365.018 121.054 366.344 121.785 366.357 123.029C366.344 124.396 364.765 125.142 362.119 125.135C359.453 125.142 357.874 124.396 357.881 123.029C357.874 121.785 359.2 121.054 361.477 120.938V119.871H356.541V118.818H367.711ZM357.566 114.416V113.35H366.658V114.416H364.881V116.754H366.604V117.807H357.621V116.754H359.357V114.416H357.566ZM359.18 123.029C359.18 123.768 360.246 124.164 362.119 124.15C363.965 124.164 365.031 123.768 365.031 123.029C365.031 122.312 363.965 121.908 362.119 121.908C360.246 121.908 359.18 122.312 359.18 123.029ZM360.643 116.754H363.582V114.416H360.643V116.754ZM374.479 113.65V117.219H370.432V118.914C372.564 118.914 373.727 118.866 375.107 118.613L375.23 119.666C373.733 119.919 372.476 119.96 370.035 119.967H369.146V116.234H373.18V114.689H369.133V113.65H374.479ZM370.541 122.127V121.074H378.854V125.176H377.555V122.127H370.541ZM375.258 118.299V117.26H377.555V115.742H375.258V114.703H377.555V112.926H378.854V120.459H377.555V118.299H375.258ZM395.342 118.668V119.734H384.158V118.668H395.342ZM385.484 122.92C385.484 121.498 387.077 120.691 389.736 120.691C392.375 120.691 393.954 121.498 393.961 122.92C393.954 124.342 392.375 125.142 389.736 125.135C387.077 125.142 385.484 124.342 385.484 122.92ZM385.553 117.602V113.35H393.961V114.416H386.838V116.549H394.043V117.602H385.553ZM386.797 122.92C386.79 123.706 387.863 124.13 389.736 124.137C391.582 124.13 392.662 123.706 392.662 122.92C392.662 122.141 391.582 121.703 389.736 121.689C387.863 121.703 386.79 122.141 386.797 122.92ZM399.621 120.227C399.607 122.811 398.876 124.95 397.598 126.789H396.258C397.201 125.429 398.104 122.674 398.104 120.227C398.104 117.786 397.201 115.031 396.258 113.678H397.598C398.876 115.51 399.607 117.649 399.621 120.227ZM255.41 137.318C255.41 138.59 256.641 139.738 258.514 140.148L257.926 141.146C256.47 140.805 255.355 140.025 254.795 138.993C254.241 140.128 253.127 140.989 251.623 141.379L251.049 140.367C252.922 139.896 254.125 138.686 254.125 137.318V137.113H251.459V136.074H254.125V134.857H255.424V136.074H258.076V137.113H255.41V137.318ZM253.305 142.869V141.857H261.316V144.879H254.631V146.027H261.754V147.039H253.332V143.922H260.031V142.869H253.305ZM257.721 138.945V137.906H260.031V134.912H261.316V141.324H260.031V138.945H257.721ZM272.842 134.912V138.002H274.619V139.055H272.842V142.186H271.543V134.912H272.842ZM263.203 141.229C266.074 140.422 267.831 138.822 268.07 136.84H263.75V135.787H269.479C269.479 138.952 267.325 141.242 263.736 142.281L263.203 141.229ZM264.871 144.729C264.857 143.238 266.471 142.315 268.932 142.322C271.399 142.315 272.979 143.238 272.979 144.729C272.979 146.232 271.399 147.142 268.932 147.148C266.471 147.142 264.857 146.232 264.871 144.729ZM266.156 144.729C266.149 145.59 267.216 146.116 268.932 146.123C270.634 146.116 271.707 145.59 271.707 144.729C271.707 143.867 270.634 143.341 268.932 143.348C267.216 143.341 266.149 143.867 266.156 144.729ZM289.248 134.912V147.162H288.004V134.912H289.248ZM278.557 143.785C280.293 142.739 281.175 140.511 281.182 138.33V137.346H278.926V136.293H284.531V137.346H282.426V138.33C282.426 140.422 283.273 142.521 284.996 143.512L284.217 144.469C283.048 143.771 282.248 142.521 281.817 141.044C281.38 142.644 280.546 144.011 279.35 144.756L278.557 143.785ZM283.629 140.312V139.246H285.529V135.172H286.76V146.547H285.529V140.312H283.629ZM302.004 140.777V141.816H297.055V143.129H300.637V147.012H292.174V143.129H295.77V141.816H290.834V140.777H302.004ZM291.859 136.348V135.295H300.951V136.348H299.174V138.686H300.896V139.738H291.914V138.686H293.65V136.348H291.859ZM293.459 145.959H299.379V144.154H293.459V145.959ZM294.936 138.686H297.875V136.348H294.936V138.686ZM316.551 134.912V147.162H315.266V140.832H312.518V139.766H315.266V134.912H316.551ZM306.324 143.867C309.571 142.281 311.014 140.073 311.239 137.264H306.871V136.225H312.559C312.545 139.772 311.164 142.835 307.008 144.893L306.324 143.867ZM323.455 136.197V140.627H320.092V143.211C321.418 143.204 322.676 143.143 324.152 142.91L324.262 143.949C322.56 144.25 321.192 144.291 319.668 144.305H318.834V139.561H322.197V137.264H318.82V136.197H323.455ZM324.945 146.533V135.158H326.135V139.684H327.721V134.912H328.965V147.162H327.721V140.736H326.135V146.533H324.945ZM338.48 138.521C338.474 140.572 339.82 142.691 341.707 143.498L340.996 144.51C339.554 143.874 338.405 142.521 337.838 140.887C337.271 142.637 336.122 144.127 334.693 144.824L333.941 143.799C335.787 142.931 337.154 140.634 337.168 138.521V137.223H334.365V136.143H341.27V137.223H338.48V138.521ZM342.814 147.162V134.912H344.113V147.162H342.814ZM357.266 140.996V142.062H346.068V140.996H351.004V139.205H352.289V140.996H357.266ZM346.711 138.85C349.056 138.549 350.983 137.168 350.99 135.623V135.104H352.303V135.623C352.296 137.188 354.217 138.549 356.582 138.85L356.076 139.875C354.135 139.561 352.419 138.617 351.64 137.264C350.86 138.617 349.145 139.561 347.189 139.875L346.711 138.85ZM347.312 144.168V143.143H355.871V147.162H354.559V144.168H347.312ZM371.225 134.926V138.562H372.975V139.629H371.225V143.17H369.926V134.926H371.225ZM361.504 141.803C362.454 141.803 363.555 141.803 364.703 141.775V140.948C363.309 140.791 362.42 140.135 362.434 139.15C362.42 138.029 363.589 137.332 365.346 137.346C367.103 137.332 368.251 138.029 368.258 139.15C368.251 140.128 367.383 140.784 366.002 140.948V141.728C367.096 141.673 368.203 141.584 369.229 141.434L369.338 142.363C366.706 142.821 363.801 142.842 361.641 142.842L361.504 141.803ZM361.818 136.936V135.965H364.703V134.816H366.002V135.965H368.887V136.936H361.818ZM363.035 144.756V143.744H371.225V147.162H369.926V144.756H363.035ZM363.664 139.15C363.664 139.725 364.3 140.101 365.346 140.094C366.378 140.101 367.021 139.725 367.014 139.15C367.021 138.562 366.378 138.221 365.346 138.234C364.3 138.221 363.664 138.562 363.664 139.15ZM384.199 134.912V147.162H382.955V140.832H381.369V146.533H380.18V135.158H381.369V139.766H382.955V134.912H384.199ZM374.096 144.223V136.389H378.689V137.441H375.395V143.115C376.898 143.108 378.033 143.04 379.346 142.787L379.441 143.854C377.972 144.161 376.7 144.209 374.916 144.223H374.096Z" fill="#F4F8FF"/>
<rect x="504.5" y="0.5" width="327" height="259" rx="15.5" fill="#DA7828" stroke="#A6520D"/>
<path d="M659.812 50.672H647.452V48.608H652.468V46.856C653.38 46.712 654.268 46.592 655.156 46.472V48.608H660.244L659.812 50.672ZM661.996 47.144L664.684 46.736V56.072H667.972L667.564 58.184H664.684V68.048C663.772 68.168 662.884 68.312 661.996 68.456V47.144ZM653.812 51.344C656.932 51.344 659.092 53.12 659.092 55.328V56.144C659.092 57.968 657.628 59.48 655.372 59.96V62.384C657.508 62.288 659.74 62.048 661.012 61.832V63.896C657.796 64.352 653.62 64.496 650.02 64.496H647.26V62.432H652.612V60.032C650.164 59.648 648.508 58.064 648.508 56.144V55.328C648.508 53.12 650.692 51.344 653.812 51.344ZM653.812 53.336C652.204 53.336 651.1 54.224 651.1 55.568V55.904C651.1 57.248 652.204 58.136 653.812 58.136C655.42 58.136 656.5 57.248 656.5 55.904V55.568C656.5 54.224 655.42 53.336 653.812 53.336ZM681.488 50.816H669.08V48.776H674.072V46.952C674.984 46.808 675.872 46.688 676.76 46.568V48.776H681.92L681.488 50.816ZM686.528 46.736V53.648H689.96L689.552 55.688H686.528V59.984L683.84 60.392V47.144L686.528 46.736ZM675.488 51.416C678.368 51.416 680.672 52.952 680.672 55.544V55.904C680.672 58.472 678.368 60.056 675.488 60.056C672.584 60.056 670.304 58.472 670.304 55.904V55.544C670.304 52.952 672.584 51.416 675.488 51.416ZM675.488 53.432C674 53.432 672.872 54.248 672.872 55.64V55.784C672.872 57.176 674 58.064 675.488 58.064C676.952 58.064 678.08 57.176 678.08 55.784V55.64C678.08 54.248 676.952 53.432 675.488 53.432ZM672.752 61.304H686.528V68.36C685.616 68.504 684.704 68.648 683.792 68.768V63.368H672.752V61.304Z" fill="white"/>
<path d="M618.419 112.912V117.656H620.388V118.75H618.419V125.162H617.12V112.912H618.419ZM609.341 122.25V113.938H610.626V117.082H613.866V113.938H615.151V122.25H609.341ZM610.626 121.184H613.866V118.107H610.626V121.184ZM631.12 112.912V125.189H629.821V112.912H631.12ZM621.399 118.121C621.399 115.503 622.719 113.835 624.571 113.828C626.39 113.835 627.729 115.503 627.729 118.121C627.729 120.767 626.39 122.435 624.571 122.428C622.719 122.435 621.399 120.767 621.399 118.121ZM622.657 118.121C622.65 120.069 623.43 121.266 624.571 121.266C625.692 121.266 626.472 120.069 626.472 118.121C626.472 116.2 625.692 114.997 624.571 114.99C623.43 114.997 622.65 116.2 622.657 118.121ZM638.653 113.65C641.271 113.657 643.179 114.949 643.179 116.904C643.179 118.736 641.579 119.96 639.296 120.145V122.551H644.286V123.631H633.075V122.551H638.011V120.145C635.741 119.96 634.135 118.736 634.142 116.904C634.135 114.949 636.049 113.657 638.653 113.65ZM635.399 116.904C635.399 118.278 636.767 119.133 638.653 119.146C640.554 119.133 641.914 118.278 641.921 116.904C641.914 115.578 640.554 114.703 638.653 114.717C636.767 114.703 635.399 115.578 635.399 116.904ZM658.806 112.926V121.949H657.507V118.764H654.465C653.891 119.454 653.002 119.871 651.983 119.871C650.138 119.871 648.764 118.579 648.771 116.781C648.764 114.97 650.138 113.678 651.983 113.664C652.995 113.671 653.877 114.088 654.451 114.771H657.507V112.926H658.806ZM650.015 116.781C650.008 117.937 650.835 118.729 651.983 118.723C653.084 118.729 653.925 117.937 653.925 116.781C653.925 115.626 653.084 114.833 651.983 114.826C650.835 114.833 650.008 115.626 650.015 116.781ZM650.849 124.902V121.006H652.147V123.85H659.134V124.902H650.849ZM655.025 115.824C655.121 116.125 655.169 116.439 655.169 116.781C655.169 117.109 655.121 117.424 655.032 117.711H657.507V115.824H655.025ZM671.903 122.605V123.699H660.692V122.605H663.755V120.445H662.06V116.549H669.251V114.84H662.032V113.773H670.536V117.602H663.345V119.379H670.823V120.445H668.964V122.605H671.903ZM665.013 122.605H667.692V120.445H665.013V122.605ZM682.677 113.691V118.723H676.853V113.691H682.677ZM677.659 124.123C679.888 123.904 681.631 122.79 681.72 121.689H678.151V120.705H681.747V119.557H683.032V120.705H686.642V121.689H683.06C683.148 122.756 684.851 123.877 687.079 124.123L686.642 125.121C684.721 124.889 683.135 124.068 682.396 122.988C681.645 124.082 680.038 124.889 678.11 125.121L677.659 124.123ZM678.124 117.711H681.392V114.73H678.124V117.711ZM685.069 119.912V112.912H686.354V119.912H685.069ZM701.913 112.926V122.209H700.614V121.033H698.153V120.117H700.614V112.926H701.913ZM691.673 118.518C693.936 118.497 696.991 118.477 699.603 118.148L699.685 119.078C698.639 119.256 697.538 119.365 696.458 119.44V121.826H695.159V119.509C693.97 119.557 692.828 119.557 691.837 119.557L691.673 118.518ZM692.63 115.551C692.623 114.252 693.86 113.391 695.679 113.391C697.47 113.391 698.714 114.252 698.714 115.551C698.714 116.856 697.47 117.684 695.679 117.684C693.867 117.684 692.623 116.856 692.63 115.551ZM693.368 124.902V121.307H694.653V123.85H702.214V124.902H693.368ZM693.86 115.551C693.854 116.275 694.592 116.727 695.679 116.727C696.725 116.727 697.477 116.275 697.483 115.551C697.477 114.819 696.725 114.348 695.679 114.361C694.592 114.348 693.854 114.819 693.86 115.551ZM714.409 112.912V125.162H713.165V118.873H711.702V124.561H710.472V113.145H711.702V117.779H713.165V112.912H714.409ZM703.663 121.703C705.454 120.698 706.288 118.586 706.288 116.152V115.359H703.991V114.307H709.679V115.359H707.546V116.152C707.546 118.354 708.373 120.35 710.157 121.266L709.392 122.264C708.188 121.607 707.382 120.466 706.944 119.058C706.527 120.664 705.721 121.949 704.47 122.688L703.663 121.703ZM727.138 122.605V123.699H715.927V122.605H718.989V120.445H717.294V116.549H724.485V114.84H717.267V113.773H725.771V117.602H718.579V119.379H726.058V120.445H724.198V122.605H727.138ZM720.247 122.605H722.927V120.445H720.247V122.605ZM594.691 136.102V146H593.188V136.102H594.691ZM602.088 138.713C601.992 137.79 601.186 137.264 600.051 137.264C598.841 137.264 598.075 137.886 598.068 138.727C598.068 139.663 599.087 140.032 599.873 140.217L600.83 140.477C602.095 140.784 603.681 141.475 603.688 143.266C603.681 144.94 602.348 146.164 600.01 146.164C597.795 146.164 596.4 145.057 596.305 143.252H597.809C597.897 144.332 598.854 144.845 600.01 144.852C601.274 144.845 602.19 144.209 602.197 143.238C602.19 142.377 601.37 142.028 600.324 141.748L599.148 141.434C597.556 140.996 596.571 140.189 596.564 138.809C596.571 137.1 598.089 135.965 600.092 135.965C602.102 135.965 603.503 137.113 603.551 138.713H602.088ZM612 139.328C611.761 138.05 610.701 137.339 609.443 137.346C607.734 137.339 606.47 138.651 606.463 141.051C606.47 143.464 607.741 144.763 609.443 144.756C610.688 144.763 611.74 144.065 612 142.801L613.518 142.814C613.203 144.77 611.61 146.137 609.43 146.137C606.853 146.137 604.973 144.216 604.973 141.051C604.973 137.886 606.866 135.965 609.43 135.965C611.521 135.965 613.183 137.202 613.518 139.328H612ZM621.844 139.328C621.604 138.05 620.545 137.339 619.287 137.346C617.578 137.339 616.313 138.651 616.307 141.051C616.313 143.464 617.585 144.763 619.287 144.756C620.531 144.763 621.584 144.065 621.844 142.801L623.361 142.814C623.047 144.77 621.454 146.137 619.273 146.137C616.696 146.137 614.816 144.216 614.816 141.051C614.816 137.886 616.71 135.965 619.273 135.965C621.365 135.965 623.026 137.202 623.361 139.328H621.844ZM628.406 146V136.102H634.613V137.4H629.91V140.395H634.285V141.68H629.91V144.701H634.668V146H628.406ZM642.816 136.102H644.32V142.609C644.327 144.688 642.762 146.164 640.396 146.164C638.011 146.164 636.452 144.688 636.459 142.609V136.102H637.963V142.486C637.956 143.826 638.893 144.79 640.396 144.797C641.894 144.79 642.816 143.826 642.816 142.486V136.102ZM649.105 146.137C647.116 146.137 645.893 144.961 645.893 143.375C645.893 142.186 646.672 141.461 647.807 140.688C647.178 139.923 646.72 139.226 646.713 138.344C646.72 136.97 647.704 135.992 649.215 135.992C650.739 135.992 651.676 136.99 651.676 138.152C651.676 139.096 651.184 139.786 650.363 140.381L649.68 140.88L651.662 143.245C651.915 142.753 652.072 142.165 652.072 141.502H653.385C653.385 142.876 652.988 143.758 652.558 144.318L653.973 146H652.332L651.662 145.214C650.985 145.843 650.001 146.137 649.105 146.137ZM647.355 143.334C647.349 144.182 648.046 144.906 649.119 144.906C649.721 144.906 650.336 144.674 650.842 144.257L648.627 141.659L648.381 141.844C647.602 142.418 647.349 143.02 647.355 143.334ZM648.08 138.357C648.08 138.863 648.436 139.369 648.887 139.923L649.488 139.492C650.028 139.137 650.35 138.774 650.35 138.193C650.35 137.729 649.912 137.209 649.242 137.209C648.559 137.216 648.08 137.79 648.08 138.357ZM655.053 146V136.102H658.58C660.884 136.102 662.012 137.482 662.012 139.314C662.012 141.14 660.877 142.527 658.58 142.527H656.557V146H655.053ZM656.557 141.242H658.43C659.886 141.249 660.494 140.429 660.494 139.314C660.494 138.193 659.886 137.394 658.43 137.387H656.557V141.242ZM663.598 146V136.102H665.102V144.701H669.572V146H663.598ZM677.475 136.102H678.979V142.609C678.985 144.688 677.42 146.164 675.055 146.164C672.669 146.164 671.11 144.688 671.117 142.609V136.102H672.621V142.486C672.614 143.826 673.551 144.79 675.055 144.797C676.552 144.79 677.475 143.826 677.475 142.486V136.102ZM686.389 138.713C686.293 137.79 685.486 137.264 684.352 137.264C683.142 137.264 682.376 137.886 682.369 138.727C682.369 139.663 683.388 140.032 684.174 140.217L685.131 140.477C686.396 140.784 687.981 141.475 687.988 143.266C687.981 144.94 686.648 146.164 684.311 146.164C682.096 146.164 680.701 145.057 680.605 143.252H682.109C682.198 144.332 683.155 144.845 684.311 144.852C685.575 144.845 686.491 144.209 686.498 143.238C686.491 142.377 685.671 142.028 684.625 141.748L683.449 141.434C681.856 140.996 680.872 140.189 680.865 138.809C680.872 137.1 682.39 135.965 684.393 135.965C686.402 135.965 687.804 137.113 687.852 138.713H686.389ZM702.617 134.926V143.826H701.318V134.926H702.617ZM692.705 138.781C692.712 137.011 694.12 135.753 695.973 135.746C697.818 135.753 699.227 137.011 699.227 138.781C699.227 140.579 697.818 141.83 695.973 141.83C694.12 141.83 692.712 140.579 692.705 138.781ZM693.977 138.781C693.97 139.937 694.831 140.695 695.973 140.695C697.094 140.695 697.955 139.937 697.955 138.781C697.955 137.653 697.094 136.881 695.973 136.881C694.831 136.881 693.97 137.653 693.977 138.781ZM694.605 146.902V142.924H695.918V145.85H702.986V146.902H694.605ZM715.729 140.682V141.734H704.559V140.682H715.729ZM705.146 139.014C707.368 138.774 709.125 137.776 709.269 136.58H705.584V135.514H714.73V136.58H711.005C711.155 137.77 712.885 138.774 715.154 139.014L714.689 140.039C712.563 139.793 710.807 138.897 710.144 137.605C709.467 138.897 707.724 139.793 705.598 140.039L705.146 139.014ZM705.885 144.92C705.885 143.498 707.478 142.678 710.137 142.678C712.775 142.678 714.354 143.498 714.361 144.92C714.354 146.342 712.775 147.142 710.137 147.135C707.478 147.142 705.885 146.342 705.885 144.92ZM707.197 144.92C707.19 145.692 708.264 146.116 710.137 146.109C711.982 146.116 713.062 145.692 713.062 144.92C713.062 144.127 711.982 143.703 710.137 143.689C708.264 143.703 707.19 144.127 707.197 144.92ZM724.807 137.277C724.8 138.433 725.9 139.444 727.691 139.82L727.158 140.832C725.75 140.511 724.711 139.807 724.171 138.877C723.645 139.889 722.592 140.661 721.143 140.996L720.596 139.984C722.407 139.595 723.501 138.501 723.508 137.277H720.869V136.252H723.508V134.939H724.807V136.252H727.432V137.277H724.807ZM720.062 141.748C722.387 141.748 725.463 141.728 728.129 141.393L728.225 142.336C727.104 142.521 725.948 142.637 724.82 142.705V146.793H723.521V142.773C722.346 142.821 721.225 142.828 720.24 142.828L720.062 141.748ZM728.977 147.162V134.926H730.262V147.162H728.977ZM743.359 140.818V141.871H732.176V140.818H743.359ZM733.42 144.25V143.197H741.992V147.203H740.707V144.25H733.42ZM733.57 139.574V135.363H741.979V136.416H734.869V138.535H742.102V139.574H733.57Z" fill="#F4F8FF"/>
</g>
<defs>
<clipPath id="clip0_580_14355">
<rect width="678" height="260" fill="white" transform="translate(154)"/>
</clipPath>
</defs>
</svg>
