<svg width="794" height="106" viewBox="0 0 794 106" fill="none" xmlns="http://www.w3.org/2000/svg">
<rect x="0.5" y="0.5" width="97" height="105" rx="15.5" fill="white"/>
<path d="M35.8477 24.8574V37.2168H34.3984V30.9141H33.0039V36.5879H31.6094V25.0898H33.0039V29.6973H34.3984V24.8574H35.8477ZM25.5938 34.332V26.3203H30.2148V27.5508H27.125V33.0469C28.4648 33.0332 29.5723 32.9648 30.8301 32.7324L30.9395 33.9766C29.4424 34.2773 28.1504 34.3184 26.4277 34.332H25.5938ZM48.6035 34.5645V35.7949H37.3105V34.5645H40.2363V32.0215H38.2812V30.791H40.0176V27.127H38.2402V25.9102H47.6191V27.127H45.8145V30.791H47.5781V32.0215H45.623V34.5645H48.6035ZM41.5352 30.791H44.3105V27.127H41.5352V30.791ZM41.7539 34.5645H44.1055V32.0215H41.7539V34.5645ZM59.6914 24.8574V37.2305H58.1602V24.8574H59.6914ZM49.8066 30.1211C49.7998 27.4551 51.1602 25.7598 53.0332 25.7598C54.8857 25.7598 56.2529 27.4551 56.2598 30.1211C56.2529 32.8076 54.8857 34.4961 53.0332 34.4961C51.1602 34.4961 49.7998 32.8076 49.8066 30.1211ZM51.2695 30.1211C51.2695 32.0215 51.9873 33.1221 53.0332 33.1289C54.0723 33.1221 54.7832 32.0215 54.7832 30.1211C54.7832 28.2344 54.0723 27.127 53.0332 27.127C51.9873 27.127 51.2695 28.2344 51.2695 30.1211ZM65.9258 27.8242C65.9121 30.0322 67.0195 32.2607 68.9336 33.1836L68.0039 34.4004C66.6641 33.7236 65.7002 32.418 65.1738 30.8457C64.6338 32.5273 63.6221 33.9219 62.207 34.6328L61.2773 33.416C63.2666 32.4727 64.4014 30.1074 64.4082 27.8242V25.8555H65.9258V27.8242ZM69.6719 37.2168V24.8574H71.1895V29.6973H73.0898V30.9961H71.1895V37.2168H69.6719ZM17.2812 54.2266C17.2812 51.6562 18.0469 49.5098 19.332 47.6777H20.9727C20.0293 49.0381 19.0859 51.7793 19.0859 54.2266C19.0859 56.6738 20.0293 59.4219 20.9727 60.7891H19.332C18.0469 58.9434 17.2812 56.8037 17.2812 54.2266ZM32.0742 46.8574V59.2305H30.5703V46.8574H32.0742ZM22.4492 49.168V47.9375H28.2734V52.5723H24.0215V55.0605C25.9697 55.0469 27.6445 54.9443 29.5723 54.623L29.709 55.8672C27.6104 56.2295 25.7646 56.3115 23.543 56.3047H22.4629V51.3691H26.7285V49.168H22.4492ZM40.2637 48.5527C40.2637 50.46 42.1299 52.3809 44.7207 52.832L44.0371 54.1035C41.9658 53.6729 40.2705 52.415 39.4639 50.7539C38.6504 52.4014 36.9551 53.666 34.8906 54.1035L34.2207 52.832C36.7705 52.3672 38.6436 50.4531 38.6504 48.5527V47.6367H40.2637V48.5527ZM33.8789 57.6445V56.3867H45.1719V57.6445H33.8789ZM56 48.0059V49.4824C56 51.2803 56 52.9756 55.4531 55.5938L53.9355 55.457C54.1885 54.377 54.3252 53.4268 54.4072 52.5518L47.127 52.9277L46.9219 51.6973L54.4756 51.4102C54.5029 50.7471 54.5098 50.1113 54.5098 49.4824V49.2363H47.291V48.0059H56ZM45.9785 57.6445V56.4004H57.2441V57.6445H45.9785ZM64.9824 47.7734V48.5117C64.9688 49.3525 64.9688 50.583 64.6816 52.1484L63.1777 52.0117C63.4238 50.7402 63.4717 49.79 63.4854 49.0312H58.6797V47.7734H64.9824ZM57.9414 53.1328C58.6729 53.126 59.4932 53.1191 60.3613 53.1055V50.5898H61.8652V53.0576C63.1436 53.0029 64.4561 52.9072 65.6523 52.7363L65.7344 53.8301C63.1641 54.2949 60.2451 54.3428 58.0781 54.3496L57.9414 53.1328ZM59.7871 58.9707V55.293H61.3184V57.7402H68.332V58.9707H59.7871ZM66.377 56.1133V46.8574H67.9355V50.7129H69.5352V51.9844H67.9355V56.1133H66.377ZM80.4727 46.8574V59.2305H78.9688V46.8574H80.4727ZM70.8477 49.168V47.9375H76.6719V52.5723H72.4199V55.0605C74.3682 55.0469 76.043 54.9443 77.9707 54.623L78.1074 55.8672C76.0088 56.2295 74.1631 56.3115 71.9414 56.3047H70.8613V51.3691H75.127V49.168H70.8477ZM32.457 71.6328C32.457 72.9385 33.25 74.2305 34.8086 74.7637L34.125 75.9121C32.9902 75.4951 32.2109 74.7158 31.7666 73.7656C31.3359 74.8047 30.5498 75.6592 29.3809 76.1172L28.6699 74.9961C30.2354 74.3809 31.0078 73.0342 31.0215 71.6328V71.5371H28.9844V70.3477H31.0215V68.9941H32.457V70.3477H34.4668V71.5371H32.457V71.6328ZM30.748 78.2227V76.9922H39.2109V81.2168H37.6934V78.2227H30.748ZM35.1367 76.377V69.0762H36.5723V72.043H37.7617V68.8711H39.2109V76.4316H37.7617V73.2734H36.5723V76.377H35.1367ZM51.0371 68.8711V75.8711H49.5059V68.8711H51.0371ZM40.9609 72.4121C40.9609 70.6689 42.3828 69.4658 44.2969 69.459C46.2041 69.4658 47.626 70.6689 47.6191 72.4121C47.626 74.1143 46.2041 75.3379 44.2969 75.3379C42.3828 75.3379 40.9609 74.1143 40.9609 72.4121ZM42.4512 72.4121C42.4443 73.4102 43.2168 74.0596 44.2969 74.0527C45.3564 74.0596 46.1289 73.4102 46.1289 72.4121C46.1289 71.3867 45.3564 70.7441 44.2969 70.7441C43.2168 70.7441 42.4443 71.3867 42.4512 72.4121ZM42.834 81.0664V76.4727H51.0371V81.0664H42.834ZM44.3379 79.8359H49.5469V77.6758H44.3379V79.8359ZM57.2715 72.3711C57.2646 74.2783 58.4131 76.4521 60.3613 77.3613L59.5137 78.5645C58.1191 77.9082 57.0869 76.582 56.5332 75.0371C55.9727 76.7324 54.8926 78.1816 53.4707 78.8652L52.582 77.6758C54.5508 76.7393 55.7471 74.4287 55.7539 72.3711V71.332H53.0605V70.0742H59.8555V71.332H57.2715V72.3711ZM61.0039 81.2168V68.8574H62.5215V73.6699H64.4219V74.9414H62.5215V81.2168H61.0039ZM68.6191 76.2266C68.6191 78.8037 67.8535 80.9434 66.5684 82.7891H64.9277C65.8711 81.4219 66.8145 78.6738 66.8145 76.2266C66.8145 73.7793 65.8711 71.0381 64.9277 69.6777H66.5684C67.8535 71.5098 68.6191 73.6562 68.6191 76.2266Z" fill="#222222"/>
<rect x="0.5" y="0.5" width="97" height="105" rx="15.5" stroke="#E1E6EF"/>
<rect x="102" y="56" width="3" height="8" rx="1.5" transform="rotate(-90 102 56)" fill="#C2CBE5"/>
<rect x="114.5" y="0.5" width="97" height="105" rx="15.5" fill="white"/>
<path d="M149.561 35.8711V43.0898H148.043V41.7227H145.104V40.4922H148.043V39.166H145.22C144.44 41.1279 142.636 42.502 139.949 43.2539L139.334 42.0508C142.226 41.2715 143.771 39.8018 144.003 37.9629H139.99V36.7324H145.664C145.664 37.1631 145.63 37.5732 145.562 37.9629H148.043V35.8711H149.561ZM141.275 45.6875C141.275 44.1699 142.937 43.2334 145.473 43.2266C147.975 43.2334 149.643 44.1699 149.643 45.6875C149.643 47.2051 147.975 48.1553 145.473 48.1484C142.937 48.1553 141.275 47.2051 141.275 45.6875ZM142.793 45.6875C142.793 46.501 143.812 46.9453 145.473 46.9453C147.106 46.9453 148.118 46.501 148.125 45.6875C148.118 44.8604 147.106 44.416 145.473 44.416C143.812 44.416 142.793 44.8604 142.793 45.6875ZM154.742 36.5547C155.74 36.5479 156.608 36.917 157.189 37.5391H160.143V35.8574H161.66V43.1309H160.143V41.5586H157.183C156.595 42.167 155.733 42.5361 154.742 42.5293C152.876 42.5361 151.475 41.2852 151.475 39.5488C151.475 37.7988 152.876 36.5479 154.742 36.5547ZM152.924 39.5488C152.924 40.5605 153.683 41.2441 154.742 41.2441C155.768 41.2441 156.526 40.5605 156.533 39.5488C156.526 38.5029 155.768 37.8535 154.742 37.8535C153.683 37.8535 152.924 38.5029 152.924 39.5488ZM153.279 45.7969C153.266 44.2725 154.886 43.3838 157.477 43.3906C160.074 43.3838 161.694 44.2725 161.701 45.7969C161.694 47.3145 160.074 48.2031 157.477 48.2031C154.886 48.2031 153.266 47.3145 153.279 45.7969ZM154.77 45.7969C154.756 46.583 155.761 47.0068 157.477 47.0137C159.227 47.0068 160.211 46.583 160.211 45.7969C160.211 44.9902 159.227 44.5596 157.477 44.5527C155.761 44.5596 154.756 44.9902 154.77 45.7969ZM157.873 38.7559C157.941 39.0088 157.982 39.2686 157.982 39.5488C157.982 39.8223 157.941 40.082 157.88 40.3281H160.143V38.7559H157.873ZM173.76 35.8711V44.8945H172.242V40.3691H170.055V39.1387H172.242V35.8711H173.76ZM163.383 42.2285C165.352 41.5791 166.404 39.9658 166.404 38.3184V37.9902H163.834V36.7598H170.506V37.9902H167.949V38.332C167.949 39.8154 168.947 41.3535 170.861 41.9824L170.096 43.1992C168.715 42.7275 167.737 41.7842 167.197 40.6152C166.657 41.9141 165.625 42.9531 164.162 43.459L163.383 42.2285ZM165.652 47.9707V44.1016H167.17V46.7402H174.074V47.9707H165.652ZM186.98 37.6621V38.9062H185.258V40.2871H186.98V41.5312H185.258V43.377H183.74V35.8711H185.258V37.6621H186.98ZM175.975 37.7988V36.5684H181.621V40.2324H177.506V41.6133C179.598 41.5996 181.047 41.5312 182.729 41.2441L182.893 42.4609C181.054 42.7822 179.44 42.8643 177 42.8574H175.988V39.0566H180.131V37.7988H175.975ZM177.027 45.1816V43.9648H185.258V48.2031H183.74V45.1816H177.027ZM161.578 57.8574V64.1602H160.074V57.8574H161.578ZM151.297 62.957C153.3 62.3213 154.353 60.7354 154.346 59.1152V58.1582H155.918V59.1152C155.911 60.6875 156.957 62.1572 158.912 62.752L158.174 63.9277C156.738 63.4834 155.713 62.5674 155.152 61.3916C154.592 62.6699 153.539 63.6748 152.062 64.1465L151.297 62.957ZM153.402 65.9102V64.7344H161.605V67.9473H154.92V68.9043H161.975V70.1074H153.43V66.8125H160.088V65.9102H153.402ZM167.84 60.0859C167.84 61.5967 168.817 63.0186 170.752 63.6133L170.027 64.8027C168.64 64.3652 167.655 63.4834 167.115 62.3691C166.568 63.668 165.529 64.7002 164.039 65.1992L163.273 63.9961C165.263 63.3467 166.309 61.7402 166.309 60.0996V59.9492H163.697V58.7188H170.41V59.9492H167.84V60.0859ZM164.955 67.8379C164.955 66.3613 166.555 65.5 169.139 65.5C171.702 65.5 173.274 66.3613 173.281 67.8379C173.274 69.3281 171.702 70.2031 169.139 70.2031C166.555 70.2031 164.955 69.3281 164.955 67.8379ZM166.473 67.8379C166.473 68.6035 167.443 69.0068 169.139 69.0137C170.827 69.0068 171.777 68.6035 171.777 67.8379C171.777 67.0859 170.827 66.6895 169.139 66.6895C167.443 66.6895 166.473 67.0859 166.473 67.8379ZM171.641 65.2266V57.8574H173.158V60.8242H174.881V62.0684H173.158V65.2266H171.641Z" fill="#222222"/>
<rect x="114.5" y="0.5" width="97" height="105" rx="15.5" stroke="#E1E6EF"/>
<rect x="216" y="56" width="3" height="8" rx="1.5" transform="rotate(-90 216 56)" fill="#C2CBE5"/>
<rect x="228.5" y="0.5" width="97" height="105" rx="15.5" fill="white"/>
<path d="M263.93 46.8574V59.2168H262.48V52.9551H261.209V58.6152H259.773V47.0762H261.209V51.6973H262.48V46.8574H263.93ZM253.006 55.6211C254.838 54.582 255.576 52.4287 255.576 50.0156V49.4277H253.375V48.2109H259.076V49.4277H257.053V50.0156C257.053 52.21 257.791 54.2402 259.623 55.1836L258.734 56.3457C257.559 55.71 256.786 54.623 256.349 53.2832C255.932 54.8213 255.159 56.0586 253.936 56.7832L253.006 55.6211ZM276.59 53.8574V55.0879H271.668V59.2031H270.164V55.0879H265.297V53.8574H276.59ZM266.678 52.4082V47.4863H275.209V52.4082H266.678ZM268.168 51.2188H273.691V48.7031H268.168V51.2188ZM287.678 46.8574V53.1602H286.174V46.8574H287.678ZM277.396 51.957C279.399 51.3213 280.452 49.7354 280.445 48.1152V47.1582H282.018V48.1152C282.011 49.6875 283.057 51.1572 285.012 51.752L284.273 52.9277C282.838 52.4834 281.812 51.5674 281.252 50.3916C280.691 51.6699 279.639 52.6748 278.162 53.1465L277.396 51.957ZM279.502 54.9102V53.7344H287.705V56.9473H281.02V57.9043H288.074V59.1074H279.529V55.8125H286.188V54.9102H279.502ZM293.939 49.0859C293.939 50.5967 294.917 52.0186 296.852 52.6133L296.127 53.8027C294.739 53.3652 293.755 52.4834 293.215 51.3691C292.668 52.668 291.629 53.7002 290.139 54.1992L289.373 52.9961C291.362 52.3467 292.408 50.7402 292.408 49.0996V48.9492H289.797V47.7188H296.51V48.9492H293.939V49.0859ZM291.055 56.8379C291.055 55.3613 292.654 54.5 295.238 54.5C297.802 54.5 299.374 55.3613 299.381 56.8379C299.374 58.3281 297.802 59.2031 295.238 59.2031C292.654 59.2031 291.055 58.3281 291.055 56.8379ZM292.572 56.8379C292.572 57.6035 293.543 58.0068 295.238 58.0137C296.927 58.0068 297.877 57.6035 297.877 56.8379C297.877 56.0859 296.927 55.6895 295.238 55.6895C293.543 55.6895 292.572 56.0859 292.572 56.8379ZM297.74 54.2266V46.8574H299.258V49.8242H300.98V51.0684H299.258V54.2266H297.74Z" fill="#222222"/>
<rect x="228.5" y="0.5" width="97" height="105" rx="15.5" stroke="#E1E6EF"/>
<rect x="330" y="56" width="3" height="8" rx="1.5" transform="rotate(-90 330 56)" fill="#C2CBE5"/>
<rect x="342.5" y="0.5" width="97" height="105" rx="15.5" fill="white"/>
<path d="M377.096 36.6094V37.7168C377.089 38.8721 377.089 40.1367 376.768 41.8867H378.477V43.1172H373.568V48.2305H372.037V43.1172H367.211V41.8867H375.223C375.564 40.2051 375.578 38.9404 375.578 37.8398H368.537V36.6094H377.096ZM389.975 35.8574V48.2168H388.512V41.8867H387.199V47.6152H385.764V36.0762H387.199V40.6289H388.512V35.8574H389.975ZM379.693 45.0312V37.1973H384.547V45.0312H379.693ZM381.115 43.8281H383.125V38.4004H381.115V43.8281ZM401.158 35.8574V38.7285H402.881V39.9863H401.158V42.8164H399.641V35.8574H401.158ZM391.93 42.2695V36.6504H397.426V37.8809H393.434V41.0391C395.758 41.0322 397.05 40.9502 398.52 40.6562L398.684 41.8594C397.063 42.2148 395.628 42.2695 392.928 42.2695H391.93ZM393.174 48.0527V43.377H401.158V48.0527H393.174ZM394.678 46.8496H399.654V44.5938H394.678V46.8496ZM413.271 35.8574V38.8926H414.98V40.1367H413.271V43.0762H411.74V35.8574H413.271ZM403.988 42.2969V36.7324H409.525V37.9629H405.492V41.0664C407.857 41.0596 409.177 40.9844 410.633 40.6836L410.783 41.9004C409.184 42.2422 407.728 42.2969 404.986 42.2969H403.988ZM405.055 45.7422C405.055 44.2109 406.682 43.3086 409.238 43.3086C411.774 43.3086 413.374 44.2109 413.381 45.7422C413.374 47.3008 411.774 48.2031 409.238 48.2031C406.682 48.2031 405.055 47.3008 405.055 45.7422ZM406.559 45.7422C406.552 46.542 407.543 46.9863 409.238 46.9863C410.899 46.9863 411.897 46.542 411.904 45.7422C411.897 44.9561 410.899 44.5186 409.238 44.5254C407.543 44.5186 406.552 44.9561 406.559 45.7422ZM389.605 57.8711V64.8711H388.074V57.8711H389.605ZM379.529 61.4121C379.529 59.6689 380.951 58.4658 382.865 58.459C384.772 58.4658 386.194 59.6689 386.188 61.4121C386.194 63.1143 384.772 64.3379 382.865 64.3379C380.951 64.3379 379.529 63.1143 379.529 61.4121ZM381.02 61.4121C381.013 62.4102 381.785 63.0596 382.865 63.0527C383.925 63.0596 384.697 62.4102 384.697 61.4121C384.697 60.3867 383.925 59.7441 382.865 59.7441C381.785 59.7441 381.013 60.3867 381.02 61.4121ZM381.402 70.0664V65.4727H389.605V70.0664H381.402ZM382.906 68.8359H388.115V66.6758H382.906V68.8359ZM401.773 57.8711V67.2227H400.242V66.1426H397.822V65.0762H400.242V57.8711H401.773ZM391.355 63.4219C393.632 63.4082 396.701 63.3877 399.326 63.0527L399.408 64.1465C398.39 64.3174 397.337 64.4268 396.291 64.502V66.8809H394.773V64.584C393.618 64.6318 392.518 64.6387 391.547 64.6387L391.355 63.4219ZM392.299 60.5098C392.299 59.2041 393.557 58.3154 395.389 58.3223C397.187 58.3154 398.451 59.2041 398.465 60.5098C398.451 61.8359 397.187 62.6768 395.389 62.6836C393.557 62.6768 392.299 61.8359 392.299 60.5098ZM392.996 69.9707V66.3203H394.514V68.7402H402.061V69.9707H392.996ZM393.734 60.5098C393.734 61.1797 394.397 61.5693 395.389 61.5762C396.332 61.5693 397.009 61.1797 397.016 60.5098C397.009 59.8398 396.332 59.4365 395.389 59.4434C394.397 59.4365 393.734 59.8398 393.734 60.5098Z" fill="#222222"/>
<rect x="342.5" y="0.5" width="97" height="105" rx="15.5" stroke="#E1E6EF"/>
<rect x="444" y="56" width="3" height="8" rx="1.5" transform="rotate(-90 444 56)" fill="#C2CBE5"/>
<rect x="456.5" y="0.5" width="97" height="105" rx="15.5" fill="white"/>
<path d="M486.83 44.375C489.558 44.3818 491.103 45.0518 491.109 46.3027C491.103 47.5537 489.558 48.2031 486.83 48.2031C484.068 48.2031 482.523 47.5537 482.523 46.3027C482.523 45.0518 484.068 44.3818 486.83 44.375ZM481.211 43.8008V42.6113H486.078V41.8662C483.932 41.7568 482.729 41.1621 482.729 40.123C482.729 38.9541 484.212 38.3525 486.83 38.3457C489.476 38.3525 490.938 38.9541 490.945 40.123C490.938 41.1621 489.756 41.7568 487.596 41.8662V42.6113H492.477V43.8008H481.211ZM481.771 37.9629V36.8008H486.078V35.7344H487.596V36.8008H491.861V37.9629H481.771ZM484.082 46.3027C484.082 46.8428 484.991 47.0957 486.83 47.082C488.648 47.0957 489.571 46.8428 489.578 46.3027C489.571 45.7627 488.648 45.4961 486.83 45.4961C484.991 45.4961 484.082 45.7627 484.082 46.3027ZM484.355 40.123C484.355 40.5947 485.196 40.8408 486.83 40.8477C488.491 40.8408 489.312 40.5947 489.318 40.123C489.312 39.6172 488.491 39.3848 486.83 39.3848C485.196 39.3848 484.355 39.6172 484.355 40.123ZM504.604 45.4824V46.7266H493.311V45.4824H498.178V43.0762H494.555V36.6777H496.072V38.7012H501.801V36.6777H503.318V43.0762H499.682V45.4824H504.604ZM496.072 41.8457H501.801V39.918H496.072V41.8457ZM515.158 35.8574V38.7285H516.881V39.9863H515.158V42.8164H513.641V35.8574H515.158ZM505.93 42.2695V36.6504H511.426V37.8809H507.434V41.0391C509.758 41.0322 511.05 40.9502 512.52 40.6562L512.684 41.8594C511.063 42.2148 509.628 42.2695 506.928 42.2695H505.93ZM507.174 48.0527V43.377H515.158V48.0527H507.174ZM508.678 46.8496H513.654V44.5938H508.678V46.8496ZM527.271 35.8574V38.8926H528.98V40.1367H527.271V43.0762H525.74V35.8574H527.271ZM517.988 42.2969V36.7324H523.525V37.9629H519.492V41.0664C521.857 41.0596 523.177 40.9844 524.633 40.6836L524.783 41.9004C523.184 42.2422 521.728 42.2969 518.986 42.2969H517.988ZM519.055 45.7422C519.055 44.2109 520.682 43.3086 523.238 43.3086C525.774 43.3086 527.374 44.2109 527.381 45.7422C527.374 47.3008 525.774 48.2031 523.238 48.2031C520.682 48.2031 519.055 47.3008 519.055 45.7422ZM520.559 45.7422C520.552 46.542 521.543 46.9863 523.238 46.9863C524.899 46.9863 525.897 46.542 525.904 45.7422C525.897 44.9561 524.899 44.5186 523.238 44.5254C521.543 44.5186 520.552 44.9561 520.559 45.7422ZM503.605 57.8711V64.8711H502.074V57.8711H503.605ZM493.529 61.4121C493.529 59.6689 494.951 58.4658 496.865 58.459C498.772 58.4658 500.194 59.6689 500.188 61.4121C500.194 63.1143 498.772 64.3379 496.865 64.3379C494.951 64.3379 493.529 63.1143 493.529 61.4121ZM495.02 61.4121C495.013 62.4102 495.785 63.0596 496.865 63.0527C497.925 63.0596 498.697 62.4102 498.697 61.4121C498.697 60.3867 497.925 59.7441 496.865 59.7441C495.785 59.7441 495.013 60.3867 495.02 61.4121ZM495.402 70.0664V65.4727H503.605V70.0664H495.402ZM496.906 68.8359H502.115V66.6758H496.906V68.8359ZM515.773 57.8711V67.2227H514.242V66.1426H511.822V65.0762H514.242V57.8711H515.773ZM505.355 63.4219C507.632 63.4082 510.701 63.3877 513.326 63.0527L513.408 64.1465C512.39 64.3174 511.337 64.4268 510.291 64.502V66.8809H508.773V64.584C507.618 64.6318 506.518 64.6387 505.547 64.6387L505.355 63.4219ZM506.299 60.5098C506.299 59.2041 507.557 58.3154 509.389 58.3223C511.187 58.3154 512.451 59.2041 512.465 60.5098C512.451 61.8359 511.187 62.6768 509.389 62.6836C507.557 62.6768 506.299 61.8359 506.299 60.5098ZM506.996 69.9707V66.3203H508.514V68.7402H516.061V69.9707H506.996ZM507.734 60.5098C507.734 61.1797 508.397 61.5693 509.389 61.5762C510.332 61.5693 511.009 61.1797 511.016 60.5098C511.009 59.8398 510.332 59.4365 509.389 59.4434C508.397 59.4365 507.734 59.8398 507.734 60.5098Z" fill="#222222"/>
<rect x="456.5" y="0.5" width="97" height="105" rx="15.5" stroke="#E1E6EF"/>
<rect x="558" y="56" width="3" height="8" rx="1.5" transform="rotate(-90 558 56)" fill="#C2CBE5"/>
<rect x="570.5" y="0.5" width="97" height="105" rx="15.5" fill="white"/>
<path d="M603.298 46.8574V49.8379H605.021V51.1094H603.298V54.0625H601.78V46.8574H603.298ZM593.427 52.832C596.312 52.0869 597.959 50.6104 598.219 48.8125H594.042V47.582H599.853C599.846 50.8223 597.74 53.0576 594.056 53.9941L593.427 52.832ZM595.067 55.7988V54.582H603.298V59.2168H601.78V55.7988H595.067ZM614.536 54.582C617.223 54.5889 618.918 55.4365 618.925 56.9062C618.918 58.3418 617.223 59.2031 614.536 59.2031C611.877 59.2031 610.161 58.3418 610.161 56.9062C610.161 55.4365 611.877 54.5889 614.536 54.582ZM608.999 53.6934V52.4629H613.347V50.2207H614.851V52.4629H620.21V53.6934H608.999ZM610.284 48.6484V47.4453H618.843V48.4707C618.85 49.4482 618.85 50.4873 618.501 51.752L616.997 51.6152C617.305 50.4189 617.325 49.5439 617.325 48.6484H610.284ZM611.692 56.9062C611.679 57.6309 612.752 58.0273 614.536 58.0273C616.327 58.0273 617.407 57.6309 617.421 56.9062C617.407 56.1543 616.327 55.7305 614.536 55.7305C612.752 55.7305 611.679 56.1543 611.692 56.9062ZM625.501 49.0859C625.501 50.5967 626.479 52.0186 628.413 52.6133L627.688 53.8027C626.301 53.3652 625.316 52.4834 624.776 51.3691C624.229 52.668 623.19 53.7002 621.7 54.1992L620.935 52.9961C622.924 52.3467 623.97 50.7402 623.97 49.0996V48.9492H621.358V47.7188H628.071V48.9492H625.501V49.0859ZM622.616 56.8379C622.616 55.3613 624.216 54.5 626.8 54.5C629.363 54.5 630.936 55.3613 630.942 56.8379C630.936 58.3281 629.363 59.2031 626.8 59.2031C624.216 59.2031 622.616 58.3281 622.616 56.8379ZM624.134 56.8379C624.134 57.6035 625.104 58.0068 626.8 58.0137C628.488 58.0068 629.438 57.6035 629.438 56.8379C629.438 56.0859 628.488 55.6895 626.8 55.6895C625.104 55.6895 624.134 56.0859 624.134 56.8379ZM629.302 54.2266V46.8574H630.819V49.8242H632.542V51.0684H630.819V54.2266H629.302ZM637.601 49.0859C637.601 50.5967 638.578 52.0186 640.513 52.6133L639.788 53.8027C638.4 53.3652 637.416 52.4834 636.876 51.3691C636.329 52.668 635.29 53.7002 633.8 54.1992L633.034 52.9961C635.023 52.3467 636.069 50.7402 636.069 49.0996V48.9492H633.458V47.7188H640.171V48.9492H637.601V49.0859ZM634.716 56.8379C634.716 55.3613 636.315 54.5 638.899 54.5C641.463 54.5 643.035 55.3613 643.042 56.8379C643.035 58.3281 641.463 59.2031 638.899 59.2031C636.315 59.2031 634.716 58.3281 634.716 56.8379ZM636.233 56.8379C636.233 57.6035 637.204 58.0068 638.899 58.0137C640.588 58.0068 641.538 57.6035 641.538 56.8379C641.538 56.0859 640.588 55.6895 638.899 55.6895C637.204 55.6895 636.233 56.0859 636.233 56.8379ZM641.401 54.2266V46.8574H642.919V49.8242H644.642V51.0684H642.919V54.2266H641.401Z" fill="#222222"/>
<rect x="570.5" y="0.5" width="97" height="105" rx="15.5" stroke="#E1E6EF"/>
<rect x="672" y="56" width="3" height="8" rx="1.5" transform="rotate(-90 672 56)" fill="#C2CBE5"/>
<rect x="684.5" y="0.5" width="97" height="105" rx="15.5" fill="white"/>
<path d="M723.348 35.8574V38.8379H725.07V40.1094H723.348V43.0625H721.83V35.8574H723.348ZM713.477 41.832C716.361 41.0869 718.009 39.6104 718.269 37.8125H714.092V36.582H719.902C719.896 39.8223 717.79 42.0576 714.105 42.9941L713.477 41.832ZM715.117 44.7988V43.582H723.348V48.2168H721.83V44.7988H715.117ZM733.438 38.8242C733.424 41.0322 734.531 43.2607 736.445 44.1836L735.516 45.4004C734.176 44.7236 733.212 43.418 732.686 41.8457C732.146 43.5273 731.134 44.9219 729.719 45.6328L728.789 44.416C730.778 43.4727 731.913 41.1074 731.92 38.8242V36.8555H733.438V38.8242ZM737.184 48.2168V35.8574H738.701V40.6973H740.602V41.9961H738.701V48.2168H737.184ZM744.553 36.4043C746.152 36.3975 747.41 37.3203 747.718 38.6738H749.953V35.8574H751.471V42.4883H749.953V39.9043H747.731C747.438 41.292 746.166 42.2285 744.553 42.2285C742.659 42.2285 741.285 41.0117 741.285 39.3027C741.285 37.6143 742.659 36.3975 744.553 36.4043ZM742.734 39.3027C742.734 40.2939 743.486 40.9502 744.553 40.9434C745.592 40.9502 746.337 40.2939 746.344 39.3027C746.337 38.3115 745.592 37.6689 744.553 37.6758C743.486 37.6689 742.734 38.3115 742.734 39.3027ZM743.322 48.0664V43.0625H744.826V44.375H749.953V43.0625H751.471V48.0664H743.322ZM744.826 46.8359H749.953V45.5508H744.826V46.8359ZM726.54 65.0488V66.252H721.618V70.2168H720.114V66.252H715.247V65.0488H726.54ZM716.614 63.7637V58.3496H718.118V59.8672H723.642V58.3496H725.173V63.7637H716.614ZM718.118 62.5332H723.642V61.0703H718.118V62.5332ZM738.64 64.0371V65.2539H733.868V67.5234H732.364V65.2539H727.347V64.0371H738.64ZM728.714 69.9707V66.3887H730.231V68.7402H737.396V69.9707H728.714ZM728.782 62.8887V58.418H737.19V62.8887H728.782ZM730.259 61.6992H735.687V59.6074H730.259V61.6992ZM743.89 60.0859C743.89 61.5967 744.867 63.0186 746.802 63.6133L746.077 64.8027C744.689 64.3652 743.705 63.4834 743.165 62.3691C742.618 63.668 741.579 64.7002 740.089 65.1992L739.323 63.9961C741.312 63.3467 742.358 61.7402 742.358 60.0996V59.9492H739.747V58.7188H746.46V59.9492H743.89V60.0859ZM741.005 67.8379C741.005 66.3613 742.604 65.5 745.188 65.5C747.752 65.5 749.324 66.3613 749.331 67.8379C749.324 69.3281 747.752 70.2031 745.188 70.2031C742.604 70.2031 741.005 69.3281 741.005 67.8379ZM742.522 67.8379C742.522 68.6035 743.493 69.0068 745.188 69.0137C746.877 69.0068 747.827 68.6035 747.827 67.8379C747.827 67.0859 746.877 66.6895 745.188 66.6895C743.493 66.6895 742.522 67.0859 742.522 67.8379ZM747.69 65.2266V57.8574H749.208V60.8242H750.931V62.0684H749.208V65.2266H747.69Z" fill="#222222"/>
<rect x="684.5" y="0.5" width="97" height="105" rx="15.5" stroke="#E1E6EF"/>
</svg>
