<svg xmlns="http://www.w3.org/2000/svg" viewBox="0 0 24 22">
	<g>
		<path class="st0" d="M1,17c0-1.9,0-2.8,0.6-3.4C2.2,13,3.1,13,5,13c5,0,9,0,14,0c1.9,0,2.8,0,3.4,0.6S23,15.1,23,17l0,0
			c0,1.9,0,2.8-0.6,3.4S20.9,21,19,21H5c-1.9,0-2.8,0-3.4-0.6C1,19.8,1,18.9,1,17L1,17z" fill="none" stroke="#161618" stroke-width="2" stroke-linejoin="round" />
		<path class="st0" d="M3,1h18c1.1,0,2,0.9,2,2v4c0,1.1-0.9,2-2,2H3C1.9,9,1,8.1,1,7V3C1,1.9,1.9,1,3,1z" fill="none" stroke="#161618" stroke-width="2" stroke-linejoin="round" />
	</g>
</svg>
