<svg width="22" height="22" viewBox="0 0 22 22" fill="none" xmlns="http://www.w3.org/2000/svg">
<path fill-rule="evenodd" clip-rule="evenodd" d="M11 2C6.02944 2 2 6.02944 2 11C2 15.9706 6.02944 20 11 20C15.9706 20 20 15.9706 20 11C20 6.02944 15.9706 2 11 2ZM0 11C0 4.92487 4.92487 0 11 0C17.0751 0 22 4.92487 22 11C22 17.0751 17.0751 22 11 22C4.92487 22 0 17.0751 0 11ZM6.29289 10.2929C6.68342 9.90237 7.31658 9.90237 7.70711 10.2929L10 12.5858V7C10 6.44772 10.4477 6 11 6C11.5523 6 12 6.44772 12 7V12.5858L14.2929 10.2929C14.6834 9.90237 15.3166 9.90237 15.7071 10.2929C16.0976 10.6834 16.0976 11.3166 15.7071 11.7071L11.7078 15.7064C11.7054 15.7088 11.703 15.7112 11.7005 15.7136C11.5208 15.8901 11.2746 15.9992 11.003 16C11.002 16 11.001 16 11 16C10.999 16 10.998 16 10.997 16C10.8625 15.9996 10.7343 15.9727 10.6172 15.9241C10.502 15.8764 10.3938 15.8063 10.2995 15.7136C10.297 15.7112 10.2946 15.7088 10.2922 15.7064L6.29289 11.7071C5.90237 11.3166 5.90237 10.6834 6.29289 10.2929Z" fill="white"/>
</svg>
