<svg width="339" height="559" viewBox="0 0 339 559" fill="none" xmlns="http://www.w3.org/2000/svg">
<circle opacity="0.4" cx="170" cy="119" r="95.5" fill="white" stroke="#9735D0"/>
<path d="M121.202 91.598C122.672 91.598 123.778 92.606 124.002 94.104H124.982V90.884H126.424V99.592H124.982V95.364H123.988C123.736 96.82 122.644 97.786 121.202 97.786C119.564 97.786 118.36 96.512 118.36 94.692C118.36 92.872 119.564 91.598 121.202 91.598ZM119.746 94.692C119.746 95.784 120.362 96.484 121.202 96.484C122.042 96.484 122.672 95.784 122.672 94.692C122.672 93.6 122.042 92.914 121.202 92.914C120.362 92.914 119.746 93.6 119.746 94.692ZM120.586 102.882V98.766H122.126V101.65H129.21V102.882H120.586ZM127.404 99.942V90.674H128.86V99.942H127.404ZM131.828 91.766H140.606V92.9C140.606 94.398 140.606 96.148 140.06 98.794L138.534 98.626C138.758 97.632 138.884 96.736 138.968 95.952L131.674 96.344L131.478 95.028L139.052 94.776C139.08 94.132 139.08 93.544 139.08 93.012H131.828V91.766ZM130.54 101.58V100.334H134.684V97.268H136.21V100.334H141.796V101.58H130.54ZM146.109 91.556C147.971 91.556 149.315 93.264 149.315 95.966C149.315 98.682 147.971 100.39 146.109 100.39C144.233 100.39 142.889 98.682 142.889 95.966C142.889 93.264 144.233 91.556 146.109 91.556ZM144.359 95.966C144.359 97.884 145.073 99.004 146.109 99.004C147.145 99.004 147.845 97.884 147.845 95.966C147.845 94.062 147.145 92.956 146.109 92.956C145.073 92.956 144.359 94.062 144.359 95.966ZM150.925 103.134V90.674H152.479V95.476H154.369V96.75H152.479V103.134H150.925ZM159.017 91.514C160.963 91.514 162.405 92.774 162.405 94.538C162.405 96.316 160.963 97.562 159.017 97.562C157.057 97.562 155.615 96.316 155.615 94.538C155.615 92.774 157.057 91.514 159.017 91.514ZM155.055 99.284C157.267 99.284 160.375 99.27 163.021 98.864L163.133 99.984C160.403 100.516 157.421 100.544 155.237 100.544L155.055 99.284ZM157.113 94.538C157.113 95.574 157.925 96.246 159.017 96.246C160.095 96.246 160.907 95.574 160.907 94.538C160.907 93.488 160.095 92.844 159.017 92.844C157.925 92.844 157.113 93.488 157.113 94.538ZM163.763 103.148V90.646H165.289V103.148H163.763ZM170.476 96.778H175.334V95.532H171.876V91.178H180.374V92.396H173.388V94.3H180.486V95.532H176.874V96.778H181.746V97.996H170.476V96.778ZM171.722 100.208V98.99H180.402V103.19H178.862V100.208H171.722ZM182.712 100.362H187.57V97.926H183.958V91.486H185.484V93.516H191.196V91.486H192.722V97.926H189.096V100.362H193.996V101.622H182.712V100.362ZM185.484 96.694H191.196V94.734H185.484V96.694ZM201.669 93.74H203.741V90.674H205.281V98.094H203.741V95H201.669V93.74ZM194.907 96.75C196.881 96.078 197.917 94.44 197.917 92.788V92.648H195.341V91.416H202.033V92.648H199.471V92.788C199.471 94.314 200.465 95.84 202.383 96.498L201.613 97.702C200.241 97.226 199.275 96.274 198.729 95.098C198.197 96.4 197.161 97.45 195.691 97.954L194.907 96.75ZM196.867 99.942V98.696H205.281V103.134H203.741V99.942H196.867ZM215.935 90.674H217.475V99.676H215.935V90.674ZM207.395 94.622C207.395 92.788 208.851 91.486 210.727 91.486C212.617 91.486 214.059 92.788 214.059 94.622C214.059 96.428 212.617 97.744 210.727 97.744C208.851 97.744 207.395 96.428 207.395 94.622ZM208.893 94.622C208.893 95.7 209.691 96.4 210.727 96.4C211.763 96.4 212.561 95.7 212.561 94.622C212.561 93.516 211.763 92.816 210.727 92.816C209.691 92.816 208.893 93.516 208.893 94.622ZM209.299 102.882V98.78H210.825V101.65H217.811V102.882H209.299ZM110.747 112.66H112.217V125.12H110.747V112.66ZM101.955 122.278V114.116H106.687V115.348H103.467V121.004C104.923 120.99 105.973 120.906 107.163 120.668L107.303 121.928C105.903 122.222 104.671 122.278 102.795 122.278H101.955ZM105.833 118.54V117.294H108.199V112.912H109.641V124.546H108.199V118.54H105.833ZM122.521 112.646H124.075V125.148H122.521V112.646ZM114.177 117.966C114.177 115.264 115.535 113.556 117.411 113.556C119.287 113.556 120.645 115.264 120.645 117.966C120.645 120.682 119.287 122.39 117.411 122.39C115.535 122.39 114.177 120.682 114.177 117.966ZM115.661 117.966C115.661 119.884 116.375 121.004 117.411 121.004C118.447 121.004 119.161 119.884 119.161 117.966C119.161 116.062 118.447 114.956 117.411 114.956C116.375 114.956 115.661 116.062 115.661 117.966ZM134.884 112.646H136.41V125.148H134.884V118.414H132.56V117.182H134.884V112.646ZM126.596 122.264V113.738H132.35V114.998H128.122V117.21H131.888V118.428H128.122V121.018C130.012 121.004 131.412 120.948 133.008 120.682L133.162 121.914C131.356 122.208 129.788 122.264 127.576 122.264H126.596ZM144.684 116.51H147.078V112.66H148.618V121.886H147.078V117.756H144.684V116.51ZM138.496 119.548C140.386 118.946 141.59 118.134 142.304 117.154L138.706 117.434L138.496 116.216L142.878 116.048C143.004 115.67 143.088 115.278 143.13 114.872H139.112V113.64H144.74C144.74 117.042 143.214 119.394 139.098 120.752L138.496 119.548ZM140.596 124.882V120.976H142.15V123.65H148.968V124.882H140.596ZM156.878 114.662H159.314V112.674H160.854V119.03H159.314V115.894H156.878V114.662ZM150.438 117.896C152.426 117.266 153.448 115.726 153.448 114.06V113.066H154.988V114.06C154.988 115.586 155.982 117.056 157.872 117.658L157.088 118.848C155.744 118.4 154.778 117.504 154.246 116.37C153.7 117.63 152.692 118.624 151.236 119.1L150.438 117.896ZM152.706 120.794V119.604H160.854V122.81H154.246V123.776H161.246V124.98H152.72V121.69H159.328V120.794H152.706ZM163.431 113.556H169.395V114.774H164.957V115.95H169.045V117.154H164.957V118.386C167.267 118.386 168.695 118.33 170.319 118.064L170.459 119.268C168.695 119.562 167.141 119.604 164.481 119.604H163.431V113.556ZM164.621 122.782C164.621 121.326 166.245 120.458 168.863 120.458C171.481 120.458 173.091 121.326 173.091 122.782C173.091 124.28 171.481 125.12 168.863 125.12C166.245 125.12 164.621 124.28 164.621 122.782ZM166.175 122.782C166.175 123.538 167.127 123.944 168.863 123.944C170.585 123.944 171.565 123.538 171.565 122.782C171.565 122.04 170.585 121.634 168.863 121.634C167.127 121.634 166.175 122.04 166.175 122.782ZM171.495 120.276V112.674H173.035V120.276H171.495ZM178.207 122.348H189.491V123.622H178.207V122.348ZM179.117 115.04V113.794H188.511V115.04H186.733V119.002H188.483V120.234H179.173V119.002H180.909V115.04H179.117ZM182.449 119.002H185.207V115.04H182.449V119.002ZM190.794 113.948H195.204V118.54H192.292V120.892C193.566 120.878 194.756 120.808 196.142 120.57L196.268 121.816C194.616 122.11 193.23 122.152 191.662 122.152H190.808V117.336H193.734V115.18H190.794V113.948ZM195.75 118.26V117H197.094V112.926H198.522V124.504H197.094V118.26H195.75ZM199.614 125.12V112.66H201.084V125.12H199.614ZM211.416 112.674H212.956V119.744H211.416V112.674ZM202.89 116.23C202.89 114.494 204.304 113.276 206.222 113.276C208.14 113.276 209.554 114.494 209.554 116.23C209.554 117.966 208.14 119.184 206.222 119.184C204.304 119.184 202.89 117.966 202.89 116.23ZM204.388 116.23C204.388 117.266 205.172 117.91 206.222 117.91C207.272 117.91 208.056 117.266 208.056 116.23C208.056 115.208 207.272 114.55 206.222 114.55C205.172 114.55 204.388 115.208 204.388 116.23ZM204.766 124.98V120.346H212.956V124.98H204.766ZM206.278 123.762H211.458V121.564H206.278V123.762ZM223.792 112.66H225.332V125.134H223.792V122.278H221.174V121.088H223.792V112.66ZM214.86 119.086C217.184 119.086 220.264 119.072 222.938 118.708L223.036 119.814C221.902 120.01 220.726 120.136 219.592 120.22V124.756H218.052V120.304C216.974 120.346 215.966 120.346 215.042 120.346L214.86 119.086ZM215.728 115.74C215.728 114.242 217.044 113.234 218.892 113.234C220.74 113.234 222.042 114.242 222.042 115.74C222.042 117.252 220.74 118.246 218.892 118.246C217.044 118.246 215.728 117.252 215.728 115.74ZM217.184 115.74C217.184 116.58 217.884 117.084 218.892 117.084C219.9 117.084 220.586 116.58 220.586 115.74C220.586 114.914 219.9 114.382 218.892 114.382C217.884 114.382 217.184 114.914 217.184 115.74ZM228.441 113.822H237.191V115.292C237.191 117.112 237.191 118.834 236.631 121.48L235.105 121.34C235.357 120.248 235.497 119.282 235.567 118.4L228.301 118.778L228.105 117.532L235.637 117.266C235.665 116.58 235.665 115.936 235.665 115.292V115.068H228.441V113.822ZM227.153 123.552V122.278H238.423V123.552H227.153ZM138.616 140.946C138.616 139.126 139.33 136.732 140.338 135.136H141.906C140.758 136.718 139.96 139.112 139.96 140.946C139.96 142.78 140.758 145.174 141.906 146.756H140.338C139.33 145.16 138.616 142.766 138.616 140.946ZM150.464 135.78V137.082H145.27V140.148H149.736V141.436H145.27V144.81H150.464V146.112H143.786V135.78H150.464ZM155.535 144.81C157.747 144.81 159.231 143.256 159.231 140.946C159.231 138.636 157.747 137.082 155.535 137.082L154.065 137.096V144.796L155.535 144.81ZM152.581 146.112V135.78H155.549C158.573 135.78 160.701 137.908 160.701 140.946C160.701 143.984 158.573 146.112 155.549 146.112H152.581ZM168.921 135.78V137.082H163.867V140.288H168.151V141.576H163.867V146.112H162.383V135.78H168.921ZM173.666 140.946C173.666 142.766 172.966 145.146 171.958 146.756H170.39C171.524 145.188 172.322 142.78 172.322 140.946C172.322 139.112 171.524 136.704 170.39 135.136H171.958C172.966 136.746 173.666 139.126 173.666 140.946ZM185.563 137.74H187.635V134.674H189.175V142.094H187.635V139H185.563V137.74ZM178.801 140.75C180.775 140.078 181.811 138.44 181.811 136.788V136.648H179.235V135.416H185.927V136.648H183.365V136.788C183.365 138.314 184.359 139.84 186.277 140.498L185.507 141.702C184.135 141.226 183.169 140.274 182.623 139.098C182.091 140.4 181.055 141.45 179.585 141.954L178.801 140.75ZM180.761 143.942V142.696H189.175V147.134H187.635V143.942H180.761ZM191.08 140.68H193.698V139.084C192.774 138.678 192.242 138.048 192.242 137.236C192.242 135.752 193.978 134.87 196.708 134.87C199.438 134.87 201.174 135.752 201.174 137.236C201.174 138.048 200.642 138.692 199.69 139.098V140.68H202.336V141.884H191.08V140.68ZM192.382 144.88C192.382 143.452 194.006 142.64 196.694 142.64C199.368 142.64 200.992 143.452 200.992 144.88C200.992 146.322 199.368 147.134 196.694 147.134C194.006 147.134 192.382 146.322 192.382 144.88ZM193.824 137.236C193.824 138.006 194.888 138.426 196.708 138.426C198.514 138.426 199.578 138.006 199.578 137.236C199.578 136.466 198.514 136.046 196.708 136.046C194.888 136.046 193.824 136.466 193.824 137.236ZM193.936 144.88C193.936 145.594 194.902 145.958 196.694 145.958C198.472 145.958 199.438 145.594 199.438 144.88C199.438 144.18 198.472 143.816 196.694 143.816C194.902 143.816 193.936 144.18 193.936 144.88ZM195.224 140.68H198.164V139.49C197.716 139.56 197.226 139.588 196.708 139.588C196.176 139.588 195.672 139.56 195.224 139.49V140.68Z" fill="#6D0CA6"/>
<circle opacity="0.4" cx="170" cy="291" r="95.5" fill="white" stroke="#9735D0"/>
<path d="M140.363 274.78L144.199 285.112H142.617L141.581 282.298H137.339L136.261 285.112H134.679L138.585 274.78H140.363ZM137.815 281.01H141.091L139.481 276.656L137.815 281.01ZM145.426 275.116H146.91V285.112H145.426V275.116ZM148.734 275.116H150.218V285.112H148.734V275.116ZM152.043 279.106H158.147V280.59H152.043V279.106ZM160.197 278.434H161.681V285.112H160.197V278.434ZM160.099 275.942C160.099 275.452 160.449 275.102 160.939 275.102C161.429 275.102 161.779 275.452 161.779 275.942C161.779 276.432 161.429 276.782 160.939 276.782C160.449 276.782 160.099 276.432 160.099 275.942ZM168.299 281.444C168.299 280.38 167.753 279.736 166.829 279.736C165.919 279.75 165.219 280.464 165.233 281.444V285.126H163.749V278.448H165.233V279.358C165.653 278.84 166.367 278.462 167.011 278.462C168.271 278.462 169.783 279.288 169.783 281.388V285.126H168.299V281.444ZM171.58 279.106H177.684V280.59H171.58V279.106ZM184.774 283.922C186.958 283.922 188.428 282.326 188.428 279.946C188.428 277.566 186.958 275.97 184.774 275.97C182.59 275.97 181.134 277.566 181.134 279.946C181.134 282.326 182.59 283.922 184.774 283.922ZM179.636 279.946C179.636 276.852 181.764 274.668 184.774 274.668C187.798 274.668 189.926 276.852 189.926 279.946C189.926 283.04 187.798 285.224 184.774 285.224C181.764 285.224 179.636 283.04 179.636 279.946ZM196.107 281.444C196.107 280.38 195.561 279.736 194.637 279.736C193.727 279.75 193.027 280.464 193.041 281.444V285.126H191.557V278.448H193.041V279.358C193.461 278.84 194.175 278.462 194.819 278.462C196.079 278.462 197.591 279.288 197.591 281.388V285.126H196.107V281.444ZM202.318 285.154C200.428 285.154 199.098 283.768 199.098 281.808C199.098 279.834 200.428 278.448 202.318 278.448C204.39 278.448 205.048 280.142 205.09 280.254C205.496 281.206 205.37 282.27 205.37 282.382H200.554C200.722 283.278 201.478 283.894 202.318 283.894C203.424 283.894 203.872 283.25 203.984 283.054L205.174 283.586C204.852 284.342 203.914 285.154 202.318 285.154ZM200.554 281.206H203.97C203.83 280.38 203.354 279.708 202.318 279.708C201.422 279.708 200.722 280.338 200.554 281.206ZM129.244 305.81C131.456 305.81 132.94 304.256 132.94 301.946C132.94 299.636 131.456 298.082 129.244 298.082L127.774 298.096V305.796L129.244 305.81ZM126.29 307.112V296.78H129.258C132.282 296.78 134.41 298.908 134.41 301.946C134.41 304.984 132.282 307.112 129.258 307.112H126.29ZM138.783 307.182C136.935 307.182 135.619 305.782 135.619 303.822C135.619 301.862 136.935 300.462 138.783 300.462C139.441 300.462 140.169 300.77 140.701 301.4V300.448H142.185V307.126H140.701V306.23C140.169 306.902 139.441 307.182 138.783 307.182ZM137.103 303.822C137.103 305.082 137.817 305.922 138.881 305.922C139.861 305.922 140.701 305.04 140.715 303.822C140.701 302.604 139.861 301.722 138.881 301.722C137.817 301.722 137.103 302.548 137.103 303.822ZM144.778 307.126V301.722H143.518V300.434H144.778V298.096H146.262V300.434H147.844V301.722H146.262V307.126H144.778ZM152.059 307.182C150.211 307.182 148.895 305.782 148.895 303.822C148.895 301.862 150.211 300.462 152.059 300.462C152.717 300.462 153.445 300.77 153.977 301.4V300.448H155.461V307.126H153.977V306.23C153.445 306.902 152.717 307.182 152.059 307.182ZM150.379 303.822C150.379 305.082 151.093 305.922 152.157 305.922C153.137 305.922 153.977 305.04 153.991 303.822C153.977 302.604 153.137 301.722 152.157 301.722C151.093 301.722 150.379 302.548 150.379 303.822ZM164.605 301.932C165.725 301.932 166.509 301.134 166.509 300C166.509 298.88 165.711 298.082 164.591 298.082H162.323V301.932H164.605ZM160.839 307.112V296.78H164.647C166.607 296.78 167.979 298.11 167.979 300C167.979 301.89 166.607 303.22 164.647 303.22H162.323V307.112H160.839ZM169.228 297.116H170.712V307.112H169.228V297.116ZM175.274 307.182C173.426 307.182 172.11 305.782 172.11 303.822C172.11 301.862 173.426 300.462 175.274 300.462C175.932 300.462 176.66 300.77 177.192 301.4V300.448H178.676V307.126H177.192V306.23C176.66 306.902 175.932 307.182 175.274 307.182ZM173.594 303.822C173.594 305.082 174.308 305.922 175.372 305.922C176.352 305.922 177.192 305.04 177.206 303.822C177.192 302.604 176.352 301.722 175.372 301.722C174.308 301.722 173.594 302.548 173.594 303.822ZM181.268 307.126V301.722H180.008V300.434H181.268V298.096H182.752V300.434H184.334V301.722H182.752V307.126H181.268ZM188.123 307.126H186.639V301.736H185.463V300.42H186.639V299.02C186.639 297.788 187.493 296.85 188.725 296.766C189.299 296.724 190.013 296.948 190.349 297.284L189.593 298.376C189.285 298.11 189.089 298.054 188.851 298.082C188.417 298.124 188.123 298.488 188.123 299.02V300.42H189.999V301.736H188.123V307.126ZM194.074 305.908C195.11 305.908 195.81 305.082 195.81 303.808C195.81 302.548 195.11 301.708 194.074 301.708C193.038 301.708 192.338 302.534 192.338 303.808C192.338 305.082 193.024 305.908 194.074 305.908ZM190.854 303.808C190.854 301.834 192.184 300.434 194.074 300.434C195.964 300.434 197.294 301.834 197.294 303.808C197.294 305.768 195.964 307.182 194.074 307.182C192.184 307.182 190.854 305.768 190.854 303.808ZM198.733 307.126V300.448H200.217V301.428C200.665 300.798 201.477 300.378 202.261 300.42V301.792C201.071 301.736 200.217 302.786 200.217 303.808V307.126H198.733ZM212.332 303.332C212.332 302.38 211.814 301.75 211.058 301.75C210.204 301.75 209.63 302.408 209.63 303.262V307.126H208.132V303.332C208.132 302.38 207.628 301.75 206.886 301.75C206.032 301.75 205.43 302.478 205.43 303.416V307.126H203.946V300.448H205.43V301.358C205.822 300.826 206.396 300.462 207.026 300.462C207.824 300.462 208.608 300.966 209 301.666C209.462 300.966 210.358 300.462 211.156 300.462C212.738 300.462 213.83 301.638 213.83 303.276V307.126H212.332V303.332Z" fill="#6D0CA6"/>
<circle opacity="0.4" cx="170" cy="463" r="95.5" fill="white" stroke="#9735D0"/>
<path d="M105.793 435.262H114.277V436.228C114.277 437.222 114.277 438.314 113.983 439.784H115.663V441.03H104.379V439.784H112.457C112.751 438.44 112.779 437.432 112.779 436.508H105.793V435.262ZM105.723 446.994V442.472H114.263V446.994H105.723ZM107.235 445.762H112.765V443.676H107.235V445.762ZM116.616 440.358H127.872V441.576H125.268V443.172C126.08 443.55 126.528 444.124 126.528 444.88C126.528 446.322 124.904 447.134 122.23 447.134C119.542 447.134 117.918 446.322 117.918 444.88C117.918 444.11 118.38 443.522 119.234 443.144V441.576H116.616V440.358ZM117.778 437.264C117.778 435.78 119.514 434.898 122.244 434.898C124.974 434.898 126.71 435.78 126.71 437.264C126.71 438.748 124.974 439.63 122.244 439.63C119.514 439.63 117.778 438.748 117.778 437.264ZM119.36 437.264C119.36 438.048 120.424 438.454 122.244 438.454C124.05 438.454 125.114 438.048 125.114 437.264C125.114 436.494 124.05 436.074 122.244 436.074C120.424 436.074 119.36 436.494 119.36 437.264ZM119.472 444.88C119.472 445.594 120.438 445.958 122.23 445.958C124.008 445.958 124.974 445.594 124.974 444.88C124.974 444.166 124.008 443.802 122.23 443.802C120.438 443.802 119.472 444.166 119.472 444.88ZM120.774 442.738C121.222 442.668 121.698 442.64 122.23 442.64C122.776 442.64 123.28 442.668 123.728 442.738V441.576H120.774V442.738ZM130.924 444.712L129.972 447.932H128.866L129.398 444.712H130.924ZM141.779 442.472C144.453 442.472 146.175 443.354 146.175 444.81C146.175 446.252 144.453 447.134 141.779 447.134C139.105 447.134 137.397 446.252 137.397 444.81C137.397 443.354 139.105 442.472 141.779 442.472ZM136.221 441.562V440.33H140.561V438.076H142.087V440.33H147.449V441.562H136.221ZM137.509 436.48V435.262H146.077V436.298C146.077 437.292 146.077 438.328 145.741 439.616L144.229 439.448C144.537 438.258 144.551 437.376 144.551 436.48H137.509ZM138.923 444.81C138.923 445.552 139.987 445.958 141.779 445.958C143.571 445.958 144.635 445.552 144.635 444.81C144.635 444.054 143.571 443.634 141.779 443.634C139.987 443.634 138.923 444.054 138.923 444.81ZM154.016 442.472C156.69 442.472 158.412 443.354 158.412 444.81C158.412 446.252 156.69 447.134 154.016 447.134C151.342 447.134 149.634 446.252 149.634 444.81C149.634 443.354 151.342 442.472 154.016 442.472ZM148.458 441.562V440.33H152.798V438.076H154.324V440.33H159.686V441.562H148.458ZM149.746 436.48V435.262H158.314V436.298C158.314 437.292 158.314 438.328 157.978 439.616L156.466 439.448C156.774 438.258 156.788 437.376 156.788 436.48H149.746ZM151.16 444.81C151.16 445.552 152.224 445.958 154.016 445.958C155.808 445.958 156.872 445.552 156.872 444.81C156.872 444.054 155.808 443.634 154.016 443.634C152.224 443.634 151.16 444.054 151.16 444.81ZM162.752 444.712L161.8 447.932H160.694L161.226 444.712H162.752ZM177.206 434.66H178.662V447.12H177.206V434.66ZM167.812 443.606C169.59 442.486 170.36 440.246 170.36 438.062V437.25H168.218V435.99H173.832V437.25H171.858V438.062C171.858 440.162 172.586 442.29 174.35 443.326L173.44 444.432C172.306 443.746 171.55 442.57 171.116 441.156C170.696 442.696 169.912 443.998 168.736 444.74L167.812 443.606ZM172.922 440.26V439.014H174.7V434.898H176.128V446.532H174.7V440.26H172.922ZM180.272 444.362H185.144V441.506H186.684V444.362H191.556V445.622H180.272V444.362ZM180.748 440.792C183.254 440.386 185.06 438.706 185.102 436.914H181.21V435.682H190.59V436.914H186.698C186.74 438.706 188.56 440.344 191.108 440.736L190.506 441.954C188.406 441.562 186.712 440.456 185.914 438.902C185.116 440.47 183.436 441.604 181.364 442.01L180.748 440.792ZM194.58 444.712L193.628 447.932H192.522L193.054 444.712H194.58ZM196.637 441.66H207.921V442.92H205.177V447.12H203.609V442.92H200.893V447.12H199.311V442.92H196.637V441.66ZM197.799 437.88C197.799 436.186 199.605 435.136 202.237 435.136C204.883 435.136 206.689 436.186 206.689 437.88C206.689 439.574 204.883 440.638 202.237 440.638C199.605 440.638 197.799 439.574 197.799 437.88ZM199.381 437.88C199.381 438.86 200.501 439.406 202.237 439.406C203.987 439.406 205.121 438.86 205.121 437.88C205.121 436.928 203.987 436.354 202.237 436.354C200.501 436.354 199.381 436.928 199.381 437.88ZM208.859 441.156H213.717V440.218H210.301V435.01H218.799V436.186H211.827V437.012H218.505V438.16H211.827V439.042H218.883V440.218H215.257V441.156H220.115V442.374H208.859V441.156ZM210.175 445.104C210.175 443.774 211.743 443.088 214.487 443.088C217.203 443.088 218.785 443.774 218.785 445.104C218.785 446.42 217.203 447.12 214.487 447.12C211.743 447.12 210.175 446.42 210.175 445.104ZM211.729 445.104C211.729 445.706 212.653 445.986 214.487 445.986C216.307 445.986 217.245 445.706 217.245 445.104C217.245 444.502 216.307 444.208 214.487 444.208C212.653 444.208 211.729 444.502 211.729 445.104ZM224.35 440.47H235.606V441.716H224.35V440.47ZM225.638 444.852C225.638 443.396 227.262 442.584 229.95 442.584C232.624 442.584 234.248 443.396 234.248 444.852C234.248 446.308 232.624 447.134 229.95 447.134C227.262 447.134 225.638 446.308 225.638 444.852ZM225.736 439.476V435.066H234.234V436.312H227.248V438.244H234.318V439.476H225.736ZM227.192 444.852C227.192 445.58 228.172 445.944 229.95 445.944C231.728 445.944 232.694 445.58 232.694 444.852C232.694 444.138 231.728 443.76 229.95 443.76C228.172 443.76 227.192 444.138 227.192 444.852ZM134.184 456.646H135.738V461.378H137.628V462.652H135.738V469.148H134.184V456.646ZM126.54 466.11V457.85H132.35V459.082H128.08V464.822C130.026 464.808 131.538 464.724 133.218 464.416L133.372 465.704C131.482 466.054 129.802 466.11 127.562 466.11H126.54ZM141.744 457.374C143.648 457.374 145.076 458.606 145.076 460.356C145.076 462.106 143.648 463.338 141.744 463.338C139.826 463.338 138.412 462.106 138.412 460.356C138.412 458.606 139.826 457.374 141.744 457.374ZM139.826 466.712C139.826 465.186 141.436 464.29 143.998 464.29C146.56 464.29 148.156 465.186 148.156 466.712C148.156 468.224 146.56 469.12 143.998 469.12C141.436 469.12 139.826 468.224 139.826 466.712ZM139.91 460.356C139.91 461.406 140.694 462.05 141.744 462.05C142.794 462.05 143.578 461.406 143.578 460.356C143.578 459.32 142.794 458.662 141.744 458.662C140.694 458.662 139.91 459.32 139.91 460.356ZM141.352 466.712C141.352 467.482 142.304 467.916 143.998 467.916C145.678 467.916 146.644 467.482 146.644 466.712C146.644 465.914 145.678 465.508 143.998 465.508C142.304 465.508 141.352 465.914 141.352 466.712ZM146.476 463.982V456.674H148.016V458.326H149.696V459.586H148.016V461.014H149.696V462.274H148.016V463.982H146.476ZM158.712 456.674H160.252V460.58H161.988V461.854H160.252V465.998H158.712V456.674ZM150.522 459.264V458.046H153.42V456.66H154.96V458.046H157.858V459.264H150.522ZM151.166 462.176C151.166 460.762 152.412 459.81 154.19 459.81C155.982 459.81 157.228 460.762 157.228 462.176C157.228 463.604 155.982 464.556 154.19 464.556C152.412 464.556 151.166 463.604 151.166 462.176ZM152.328 468.882V465.27H153.868V467.65H160.756V468.882H152.328ZM152.636 462.176C152.636 462.932 153.266 463.366 154.19 463.366C155.114 463.366 155.744 462.932 155.744 462.176C155.744 461.42 155.114 460.986 154.19 460.986C153.266 460.986 152.636 461.42 152.636 462.176ZM168.869 457.416H170.409V458.858C170.409 460.482 171.403 462.05 173.349 462.708L172.565 463.912C171.193 463.45 170.213 462.498 169.667 461.294C169.135 462.624 168.113 463.66 166.657 464.178L165.831 462.974C167.861 462.288 168.869 460.622 168.869 458.844V457.416ZM167.819 468.882V464.934H169.359V467.65H176.205V468.882H167.819ZM174.175 465.802V456.66H175.715V460.356H177.451V461.63H175.715V465.802H174.175ZM181.623 457.206C183.247 457.206 184.507 458.13 184.801 459.502H187.013V456.674H188.553V463.352H187.013V460.748H184.815C184.535 462.148 183.261 463.086 181.623 463.086C179.747 463.086 178.361 461.868 178.361 460.146C178.361 458.424 179.747 457.206 181.623 457.206ZM179.831 460.146C179.831 461.154 180.573 461.798 181.623 461.798C182.659 461.798 183.401 461.154 183.401 460.146C183.401 459.124 182.659 458.48 181.623 458.48C180.573 458.48 179.831 459.124 179.831 460.146ZM180.391 468.98V463.94H181.931V465.256H187.027V463.94H188.553V468.98H180.391ZM181.931 467.748H187.027V466.446H181.931V467.748ZM195.162 463.142H197.094V461.252H195.4C194.812 463.338 193.524 465.116 191.186 466.502L190.318 465.41C192.852 463.884 194.028 461.938 194.252 459.418H190.962V458.172H195.778C195.778 458.816 195.736 459.432 195.652 460.034H197.094V456.954H198.536V468.532H197.094V464.374H195.162V463.142ZM199.642 469.12V456.66H201.098V469.12H199.642ZM206.684 457.514C208.63 457.514 210.072 458.774 210.072 460.538C210.072 462.316 208.63 463.562 206.684 463.562C204.724 463.562 203.282 462.316 203.282 460.538C203.282 458.774 204.724 457.514 206.684 457.514ZM202.722 465.284C204.934 465.284 208.042 465.27 210.688 464.864L210.8 465.984C208.07 466.516 205.088 466.544 202.904 466.544L202.722 465.284ZM204.78 460.538C204.78 461.574 205.592 462.246 206.684 462.246C207.762 462.246 208.574 461.574 208.574 460.538C208.574 459.488 207.762 458.844 206.684 458.844C205.592 458.844 204.78 459.488 204.78 460.538ZM211.43 469.148V456.646H212.956V469.148H211.43ZM107.52 478.66H108.99V491.12H107.52V478.66ZM98.7284 488.278V480.116H103.46V481.348H100.24V487.004C101.696 486.99 102.746 486.906 103.936 486.668L104.076 487.928C102.676 488.222 101.444 488.278 99.5684 488.278H98.7284ZM102.606 484.54V483.294H104.972V478.912H106.414V490.546H104.972V484.54H102.606ZM119.295 478.646H120.849V491.148H119.295V478.646ZM110.951 483.966C110.951 481.264 112.309 479.556 114.185 479.556C116.061 479.556 117.419 481.264 117.419 483.966C117.419 486.682 116.061 488.39 114.185 488.39C112.309 488.39 110.951 486.682 110.951 483.966ZM112.435 483.966C112.435 485.884 113.149 487.004 114.185 487.004C115.221 487.004 115.935 485.884 115.935 483.966C115.935 482.062 115.221 480.956 114.185 480.956C113.149 480.956 112.435 482.062 112.435 483.966ZM131.657 478.646H133.183V491.148H131.657V484.414H129.333V483.182H131.657V478.646ZM123.369 488.264V479.738H129.123V480.998H124.895V483.21H128.661V484.428H124.895V487.018C126.785 487.004 128.185 486.948 129.781 486.682L129.935 487.914C128.129 488.208 126.561 488.264 124.349 488.264H123.369ZM141.38 479.682H142.934V481.642C142.934 483.938 144.11 486.234 146.112 487.116L145.216 488.362C143.774 487.69 142.738 486.36 142.178 484.736C141.618 486.486 140.554 487.914 139.056 488.628L138.132 487.354C140.176 486.444 141.38 484.05 141.38 481.642V479.682ZM146.994 491.148V478.646H148.534V491.148H146.994ZM155.282 479.43H156.906V480.354C156.906 482.286 158.754 484.218 161.344 484.666L160.672 485.94C158.586 485.52 156.892 484.26 156.094 482.594C155.282 484.246 153.588 485.52 151.516 485.94L150.858 484.666C153.406 484.204 155.282 482.272 155.282 480.354V479.43ZM150.508 489.538V488.278H161.792V489.538H150.508ZM168.037 481.712H169.423V478.856H170.865V486.01H169.423V482.944H168.037V481.712ZM163.263 485.534V479.43H167.953V480.662H164.733V481.852H167.491V483.028H164.733V484.316C166.203 484.302 167.239 484.246 168.443 484.036L168.569 485.24C167.169 485.506 165.979 485.534 164.089 485.534H163.263ZM164.971 490.98V486.654H173.301V490.98H164.971ZM166.483 489.762H171.817V487.858H166.483V489.762ZM171.845 486.122V478.674H173.301V486.122H171.845ZM179.551 479.43H188.091V480.522C188.091 481.698 188.091 482.972 187.769 484.75H189.477V486.01H184.577V491.148H183.023V486.01H178.207V484.75H186.215C186.565 483.07 186.579 481.796 186.579 480.662H179.551V479.43ZM190.444 484.848H201.7V486.08H196.842V487.27H200.328V491.106H198.802V488.502H191.69V487.27H195.288V486.08H190.444V484.848ZM190.99 483.154C193.594 482.972 195.036 482.076 195.204 481.026H191.55V479.836H195.288V478.646H196.842V479.836H200.594V481.026H196.926C197.094 482.076 198.536 482.972 201.14 483.154L200.678 484.316C198.466 484.134 196.842 483.448 196.072 482.37C195.288 483.448 193.664 484.134 191.452 484.316L190.99 483.154ZM211.864 478.66H213.32V491.12H211.864V478.66ZM202.792 484.05C202.792 481.292 203.842 479.598 205.466 479.598C206.964 479.598 207.972 481.012 208.14 483.35H209.344V478.898H210.786V490.532H209.344V484.596H208.154C208.028 487.046 206.992 488.516 205.466 488.516C203.842 488.516 202.792 486.822 202.792 484.05ZM204.192 484.05C204.192 486.01 204.668 487.074 205.466 487.074C206.278 487.074 206.754 486.01 206.754 484.05C206.754 482.104 206.278 481.054 205.466 481.054C204.668 481.054 204.192 482.104 204.192 484.05ZM226.389 478.66H227.929V481.698H229.609V482.972H227.929V485.996H226.389V478.66ZM218.017 484.75C218.941 484.75 220.019 484.75 221.139 484.722V484.078C219.767 483.938 218.913 483.364 218.913 482.482C218.913 481.46 220.075 480.844 221.881 480.844C223.715 480.844 224.877 481.46 224.877 482.482C224.877 483.364 224.037 483.924 222.665 484.078V484.666C223.729 484.61 224.779 484.526 225.773 484.4L225.885 485.338C223.253 485.8 220.355 485.828 218.185 485.828L218.017 484.75ZM218.339 480.55V479.5H221.139V478.548H222.665V479.5H225.437V480.55H218.339ZM219.683 487.522V486.5H227.929V489.202H221.223V489.986H228.377V491.022H219.697V488.236H226.417V487.522H219.683ZM220.369 482.482C220.369 482.916 220.943 483.154 221.881 483.154C222.847 483.154 223.421 482.916 223.421 482.482C223.421 482.048 222.847 481.81 221.881 481.81C220.943 481.81 220.369 482.048 220.369 482.482ZM230.379 484.68H232.997V483.084C232.073 482.678 231.541 482.048 231.541 481.236C231.541 479.752 233.277 478.87 236.007 478.87C238.737 478.87 240.473 479.752 240.473 481.236C240.473 482.048 239.941 482.692 238.989 483.098V484.68H241.635V485.884H230.379V484.68ZM231.681 488.88C231.681 487.452 233.305 486.64 235.993 486.64C238.667 486.64 240.291 487.452 240.291 488.88C240.291 490.322 238.667 491.134 235.993 491.134C233.305 491.134 231.681 490.322 231.681 488.88ZM233.123 481.236C233.123 482.006 234.187 482.426 236.007 482.426C237.813 482.426 238.877 482.006 238.877 481.236C238.877 480.466 237.813 480.046 236.007 480.046C234.187 480.046 233.123 480.466 233.123 481.236ZM233.235 488.88C233.235 489.594 234.201 489.958 235.993 489.958C237.771 489.958 238.737 489.594 238.737 488.88C238.737 488.18 237.771 487.816 235.993 487.816C234.201 487.816 233.235 488.18 233.235 488.88ZM234.523 484.68H237.463V483.49C237.015 483.56 236.525 483.588 236.007 483.588C235.475 483.588 234.971 483.56 234.523 483.49V484.68Z" fill="#6D0CA6"/>
</svg>
