<svg width="793" height="224" viewBox="0 0 793 224" fill="none" xmlns="http://www.w3.org/2000/svg">
<circle opacity="0.4" cx="112" cy="112" r="111.5" fill="white" stroke="#9735D0"/>
<path d="M56.231 80.112C57.911 80.112 59.175 81.264 59.431 82.976H60.551V79.296H62.199V89.248H60.551V84.416H59.415C59.127 86.08 57.879 87.184 56.231 87.184C54.359 87.184 52.983 85.728 52.983 83.648C52.983 81.568 54.359 80.112 56.231 80.112ZM54.567 83.648C54.567 84.896 55.271 85.696 56.231 85.696C57.191 85.696 57.911 84.896 57.911 83.648C57.911 82.4 57.191 81.616 56.231 81.616C55.271 81.616 54.567 82.4 54.567 83.648ZM55.527 93.008V88.304H57.287V91.6H65.383V93.008H55.527ZM63.319 89.648V79.056H64.983V89.648H63.319ZM68.3754 80.304H78.4074V81.6C78.4074 83.312 78.4074 85.312 77.7834 88.336L76.0394 88.144C76.2954 87.008 76.4394 85.984 76.5354 85.088L68.1994 85.536L67.9754 84.032L76.6314 83.744C76.6634 83.008 76.6634 82.336 76.6634 81.728H68.3754V80.304ZM66.9034 91.52V90.096H71.6394V86.592H73.3834V90.096H79.7674V91.52H66.9034ZM84.6958 80.064C86.8238 80.064 88.3598 82.016 88.3598 85.104C88.3598 88.208 86.8238 90.16 84.6958 90.16C82.5518 90.16 81.0158 88.208 81.0158 85.104C81.0158 82.016 82.5518 80.064 84.6958 80.064ZM82.6957 85.104C82.6957 87.296 83.5118 88.576 84.6958 88.576C85.8798 88.576 86.6798 87.296 86.6798 85.104C86.6798 82.928 85.8798 81.664 84.6958 81.664C83.5118 81.664 82.6957 82.928 82.6957 85.104ZM90.1998 93.296V79.056H91.9758V84.544H94.1358V86H91.9758V93.296H90.1998ZM99.4481 80.016C101.672 80.016 103.32 81.456 103.32 83.472C103.32 85.504 101.672 86.928 99.4481 86.928C97.2081 86.928 95.5601 85.504 95.5601 83.472C95.5601 81.456 97.2081 80.016 99.4481 80.016ZM94.9201 88.896C97.4481 88.896 101 88.88 104.024 88.416L104.152 89.696C101.032 90.304 97.6241 90.336 95.1281 90.336L94.9201 88.896ZM97.2721 83.472C97.2721 84.656 98.2001 85.424 99.4481 85.424C100.68 85.424 101.608 84.656 101.608 83.472C101.608 82.272 100.68 81.536 99.4481 81.536C98.2001 81.536 97.2721 82.272 97.2721 83.472ZM104.872 93.312V79.024H106.616V93.312H104.872ZM112.544 86.032H118.096V84.608H114.144V79.632H123.856V81.024H115.872V83.2H123.984V84.608H119.856V86.032H125.424V87.424H112.544V86.032ZM113.968 89.952V88.56H123.888V93.36H122.128V89.952H113.968ZM126.528 90.128H132.08V87.344H127.952V79.984H129.696V82.304H136.224V79.984H137.968V87.344H133.824V90.128H139.424V91.568H126.528V90.128ZM129.696 85.936H136.224V83.696H129.696V85.936ZM148.193 82.56H150.561V79.056H152.321V87.536H150.561V84H148.193V82.56ZM140.465 86C142.721 85.232 143.905 83.36 143.905 81.472V81.312H140.961V79.904H148.609V81.312H145.681V81.472C145.681 83.216 146.817 84.96 149.009 85.712L148.129 87.088C146.561 86.544 145.457 85.456 144.833 84.112C144.225 85.6 143.041 86.8 141.361 87.376L140.465 86ZM142.705 89.648V88.224H152.321V93.296H150.561V89.648H142.705ZM164.497 79.056H166.257V89.344H164.497V79.056ZM154.737 83.568C154.737 81.472 156.401 79.984 158.545 79.984C160.705 79.984 162.353 81.472 162.353 83.568C162.353 85.632 160.705 87.136 158.545 87.136C156.401 87.136 154.737 85.632 154.737 83.568ZM156.449 83.568C156.449 84.8 157.361 85.6 158.545 85.6C159.729 85.6 160.641 84.8 160.641 83.568C160.641 82.304 159.729 81.504 158.545 81.504C157.361 81.504 156.449 82.304 156.449 83.568ZM156.913 93.008V88.32H158.657V91.6H166.641V93.008H156.913ZM44.2822 105.04H45.9622V119.28H44.2822V105.04ZM34.2342 116.032V106.704H39.6422V108.112H35.9622V114.576C37.6262 114.56 38.8262 114.464 40.1862 114.192L40.3462 115.632C38.7462 115.968 37.3382 116.032 35.1942 116.032H34.2342ZM38.6662 111.76V110.336H41.3702V105.328H43.0182V118.624H41.3702V111.76H38.6662ZM57.7386 105.024H59.5146V119.312H57.7386V105.024ZM48.2026 111.104C48.2026 108.016 49.7546 106.064 51.8986 106.064C54.0426 106.064 55.5946 108.016 55.5946 111.104C55.5946 114.208 54.0426 116.16 51.8986 116.16C49.7546 116.16 48.2026 114.208 48.2026 111.104ZM49.8986 111.104C49.8986 113.296 50.7146 114.576 51.8986 114.576C53.0826 114.576 53.8986 113.296 53.8986 111.104C53.8986 108.928 53.0826 107.664 51.8986 107.664C50.7146 107.664 49.8986 108.928 49.8986 111.104ZM71.8669 105.024H73.6109V119.312H71.8669V111.616H69.2109V110.208H71.8669V105.024ZM62.3949 116.016V106.272H68.9709V107.712H64.1389V110.24H68.4429V111.632H64.1389V114.592C66.2989 114.576 67.8989 114.512 69.7229 114.208L69.8989 115.616C67.8349 115.952 66.0429 116.016 63.5149 116.016H62.3949ZM83.0673 109.44H85.8033V105.04H87.5633V115.584H85.8033V110.864H83.0673V109.44ZM75.9953 112.912C78.1553 112.224 79.5313 111.296 80.3473 110.176L76.2353 110.496L75.9953 109.104L81.0033 108.912C81.1473 108.48 81.2433 108.032 81.2913 107.568H76.6993V106.16H83.1313C83.1313 110.048 81.3873 112.736 76.6833 114.288L75.9953 112.912ZM78.3953 119.008V114.544H80.1713V117.6H87.9633V119.008H78.3953ZM97.0037 107.328H99.7877V105.056H101.548V112.32H99.7877V108.736H97.0037V107.328ZM89.6437 111.024C91.9157 110.304 93.0837 108.544 93.0837 106.64V105.504H94.8437V106.64C94.8437 108.384 95.9797 110.064 98.1397 110.752L97.2437 112.112C95.7077 111.6 94.6037 110.576 93.9957 109.28C93.3717 110.72 92.2197 111.856 90.5557 112.4L89.6437 111.024ZM92.2357 114.336V112.976H101.548V116.64H93.9957V117.744H101.996V119.12H92.2517V115.36H99.8037V114.336H92.2357ZM104.492 106.064H111.308V107.456H106.236V108.8H110.908V110.176H106.236V111.584C108.876 111.584 110.508 111.52 112.364 111.216L112.524 112.592C110.508 112.928 108.732 112.976 105.692 112.976H104.492V106.064ZM105.852 116.608C105.852 114.944 107.708 113.952 110.7 113.952C113.692 113.952 115.532 114.944 115.532 116.608C115.532 118.32 113.692 119.28 110.7 119.28C107.708 119.28 105.852 118.32 105.852 116.608ZM107.628 116.608C107.628 117.472 108.716 117.936 110.7 117.936C112.668 117.936 113.788 117.472 113.788 116.608C113.788 115.76 112.668 115.296 110.7 115.296C108.716 115.296 107.628 115.76 107.628 116.608ZM113.708 113.744V105.056H115.468V113.744H113.708ZM121.38 116.112H134.276V117.568H121.38V116.112ZM122.42 107.76V106.336H133.156V107.76H131.124V112.288H133.124V113.696H122.484V112.288H124.468V107.76H122.42ZM126.228 112.288H129.38V107.76H126.228V112.288ZM135.764 106.512H140.804V111.76H137.476V114.448C138.932 114.432 140.292 114.352 141.876 114.08L142.02 115.504C140.132 115.84 138.548 115.888 136.756 115.888H135.78V110.384H139.124V107.92H135.764V106.512ZM141.428 111.44V110H142.964V105.344H144.596V118.576H142.964V111.44H141.428ZM145.844 119.28V105.04H147.524V119.28H145.844ZM159.333 105.056H161.093V113.136H159.333V105.056ZM149.589 109.12C149.589 107.136 151.205 105.744 153.397 105.744C155.589 105.744 157.205 107.136 157.205 109.12C157.205 111.104 155.589 112.496 153.397 112.496C151.205 112.496 149.589 111.104 149.589 109.12ZM151.301 109.12C151.301 110.304 152.197 111.04 153.397 111.04C154.597 111.04 155.493 110.304 155.493 109.12C155.493 107.952 154.597 107.2 153.397 107.2C152.197 107.2 151.301 107.952 151.301 109.12ZM151.733 119.12V113.824H161.093V119.12H151.733ZM153.461 117.728H159.381V115.216H153.461V117.728ZM173.477 105.04H175.237V119.296H173.477V116.032H170.485V114.672H173.477V105.04ZM163.269 112.384C165.925 112.384 169.445 112.368 172.501 111.952L172.613 113.216C171.317 113.44 169.973 113.584 168.677 113.68V118.864H166.917V113.776C165.685 113.824 164.533 113.824 163.477 113.824L163.269 112.384ZM164.261 108.56C164.261 106.848 165.765 105.696 167.877 105.696C169.989 105.696 171.477 106.848 171.477 108.56C171.477 110.288 169.989 111.424 167.877 111.424C165.765 111.424 164.261 110.288 164.261 108.56ZM165.925 108.56C165.925 109.52 166.725 110.096 167.877 110.096C169.029 110.096 169.813 109.52 169.813 108.56C169.813 107.616 169.029 107.008 167.877 107.008C166.725 107.008 165.925 107.616 165.925 108.56ZM178.789 106.368H188.789V108.048C188.789 110.128 188.789 112.096 188.149 115.12L186.405 114.96C186.693 113.712 186.853 112.608 186.933 111.6L178.629 112.032L178.405 110.608L187.013 110.304C187.045 109.52 187.045 108.784 187.045 108.048V107.792H178.789V106.368ZM177.317 117.488V116.032H190.197V117.488H177.317ZM76.1328 138.224C76.1328 136.144 76.9488 133.408 78.1008 131.584H79.8928C78.5807 133.392 77.6688 136.128 77.6688 138.224C77.6688 140.32 78.5807 143.056 79.8928 144.864H78.1008C76.9488 143.04 76.1328 140.304 76.1328 138.224ZM89.6735 132.32V133.808H83.7375V137.312H88.8415V138.784H83.7375V142.64H89.6735V144.128H82.0415V132.32H89.6735ZM95.4689 142.64C97.9969 142.64 99.6929 140.864 99.6929 138.224C99.6929 135.584 97.9969 133.808 95.4689 133.808L93.7889 133.824V142.624L95.4689 142.64ZM92.0929 144.128V132.32H95.4849C98.9409 132.32 101.373 134.752 101.373 138.224C101.373 141.696 98.9409 144.128 95.4849 144.128H92.0929ZM110.767 132.32V133.808H104.991V137.472H109.887V138.944H104.991V144.128H103.295V132.32H110.767ZM116.19 138.224C116.19 140.304 115.39 143.024 114.238 144.864H112.446C113.742 143.072 114.654 140.32 114.654 138.224C114.654 136.128 113.742 133.376 112.446 131.584H114.238C115.39 133.424 116.19 136.144 116.19 138.224ZM129.786 134.56H132.155V131.056H133.915V139.536H132.155V136H129.786V134.56ZM122.059 138C124.315 137.232 125.499 135.36 125.499 133.472V133.312H122.555V131.904H130.203V133.312H127.275V133.472C127.275 135.216 128.411 136.96 130.602 137.712L129.723 139.088C128.155 138.544 127.051 137.456 126.427 136.112C125.819 137.6 124.635 138.8 122.955 139.376L122.059 138ZM124.299 141.648V140.224H133.915V145.296H132.155V141.648H124.299ZM136.091 137.92H139.083V136.096C138.027 135.632 137.419 134.912 137.419 133.984C137.419 132.288 139.403 131.28 142.523 131.28C145.643 131.28 147.627 132.288 147.627 133.984C147.627 134.912 147.019 135.648 145.931 136.112V137.92H148.955V139.296H136.091V137.92ZM137.579 142.72C137.579 141.088 139.435 140.16 142.507 140.16C145.563 140.16 147.419 141.088 147.419 142.72C147.419 144.368 145.563 145.296 142.507 145.296C139.435 145.296 137.579 144.368 137.579 142.72ZM139.227 133.984C139.227 134.864 140.443 135.344 142.523 135.344C144.587 135.344 145.803 134.864 145.803 133.984C145.803 133.104 144.587 132.624 142.523 132.624C140.443 132.624 139.227 133.104 139.227 133.984ZM139.355 142.72C139.355 143.536 140.459 143.952 142.507 143.952C144.539 143.952 145.643 143.536 145.643 142.72C145.643 141.92 144.539 141.504 142.507 141.504C140.459 141.504 139.355 141.92 139.355 142.72ZM140.827 137.92H144.187V136.56C143.675 136.64 143.115 136.672 142.523 136.672C141.915 136.672 141.339 136.64 140.827 136.56V137.92Z" fill="#6D0CA6"/>
<circle opacity="0.4" cx="316" cy="112" r="111.5" fill="white" stroke="#9735D0"/>
<path d="M282.129 93.32L286.513 105.128H284.705L283.521 101.912H278.673L277.441 105.128H275.633L280.097 93.32H282.129ZM279.217 100.44H282.961L281.121 95.464L279.217 100.44ZM287.915 93.704H289.611V105.128H287.915V93.704ZM291.696 93.704H293.392V105.128H291.696V93.704ZM295.478 98.264H302.454V99.96H295.478V98.264ZM304.796 97.496H306.492V105.128H304.796V97.496ZM304.684 94.648C304.684 94.088 305.084 93.688 305.644 93.688C306.204 93.688 306.604 94.088 306.604 94.648C306.604 95.208 306.204 95.608 305.644 95.608C305.084 95.608 304.684 95.208 304.684 94.648ZM314.056 100.936C314.056 99.72 313.432 98.984 312.376 98.984C311.336 99 310.536 99.816 310.552 100.936V105.144H308.856V97.512H310.552V98.552C311.032 97.96 311.848 97.528 312.584 97.528C314.024 97.528 315.752 98.472 315.752 100.872V105.144H314.056V100.936ZM317.806 98.264H324.782V99.96H317.806V98.264ZM332.884 103.768C335.38 103.768 337.06 101.944 337.06 99.224C337.06 96.504 335.38 94.68 332.884 94.68C330.388 94.68 328.724 96.504 328.724 99.224C328.724 101.944 330.388 103.768 332.884 103.768ZM327.012 99.224C327.012 95.688 329.444 93.192 332.884 93.192C336.34 93.192 338.772 95.688 338.772 99.224C338.772 102.76 336.34 105.256 332.884 105.256C329.444 105.256 327.012 102.76 327.012 99.224ZM345.837 100.936C345.837 99.72 345.213 98.984 344.157 98.984C343.117 99 342.317 99.816 342.333 100.936V105.144H340.637V97.512H342.333V98.552C342.813 97.96 343.629 97.528 344.365 97.528C345.805 97.528 347.533 98.472 347.533 100.872V105.144H345.837V100.936ZM352.935 105.176C350.775 105.176 349.255 103.592 349.255 101.352C349.255 99.096 350.775 97.512 352.935 97.512C355.303 97.512 356.055 99.448 356.103 99.576C356.567 100.664 356.423 101.88 356.423 102.008H350.919C351.111 103.032 351.975 103.736 352.935 103.736C354.199 103.736 354.711 103 354.839 102.776L356.199 103.384C355.831 104.248 354.759 105.176 352.935 105.176ZM350.919 100.664H354.823C354.663 99.72 354.119 98.952 352.935 98.952C351.911 98.952 351.111 99.672 350.919 100.664ZM269.422 129.64C271.95 129.64 273.646 127.864 273.646 125.224C273.646 122.584 271.95 120.808 269.422 120.808L267.742 120.824V129.624L269.422 129.64ZM266.046 131.128V119.32H269.438C272.894 119.32 275.326 121.752 275.326 125.224C275.326 128.696 272.894 131.128 269.438 131.128H266.046ZM280.324 131.208C278.212 131.208 276.708 129.608 276.708 127.368C276.708 125.128 278.212 123.528 280.324 123.528C281.076 123.528 281.908 123.88 282.516 124.6V123.512H284.212V131.144H282.516V130.12C281.908 130.888 281.076 131.208 280.324 131.208ZM278.404 127.368C278.404 128.808 279.22 129.768 280.436 129.768C281.556 129.768 282.516 128.76 282.532 127.368C282.516 125.976 281.556 124.968 280.436 124.968C279.22 124.968 278.404 125.912 278.404 127.368ZM287.175 131.144V124.968H285.735V123.496H287.175V120.824H288.871V123.496H290.679V124.968H288.871V131.144H287.175ZM295.496 131.208C293.384 131.208 291.88 129.608 291.88 127.368C291.88 125.128 293.384 123.528 295.496 123.528C296.248 123.528 297.08 123.88 297.688 124.6V123.512H299.384V131.144H297.688V130.12C297.08 130.888 296.248 131.208 295.496 131.208ZM293.576 127.368C293.576 128.808 294.392 129.768 295.608 129.768C296.728 129.768 297.688 128.76 297.704 127.368C297.688 125.976 296.728 124.968 295.608 124.968C294.392 124.968 293.576 125.912 293.576 127.368ZM309.834 125.208C311.114 125.208 312.01 124.296 312.01 123C312.01 121.72 311.098 120.808 309.818 120.808H307.226V125.208H309.834ZM305.53 131.128V119.32H309.882C312.122 119.32 313.69 120.84 313.69 123C313.69 125.16 312.122 126.68 309.882 126.68H307.226V131.128H305.53ZM315.118 119.704H316.814V131.128H315.118V119.704ZM322.027 131.208C319.915 131.208 318.411 129.608 318.411 127.368C318.411 125.128 319.915 123.528 322.027 123.528C322.779 123.528 323.611 123.88 324.219 124.6V123.512H325.915V131.144H324.219V130.12C323.611 130.888 322.779 131.208 322.027 131.208ZM320.107 127.368C320.107 128.808 320.923 129.768 322.139 129.768C323.259 129.768 324.219 128.76 324.235 127.368C324.219 125.976 323.259 124.968 322.139 124.968C320.923 124.968 320.107 125.912 320.107 127.368ZM328.878 131.144V124.968H327.438V123.496H328.878V120.824H330.574V123.496H332.382V124.968H330.574V131.144H328.878ZM336.712 131.144H335.016V124.984H333.672V123.48H335.016V121.88C335.016 120.472 335.992 119.4 337.4 119.304C338.056 119.256 338.872 119.512 339.256 119.896L338.392 121.144C338.04 120.84 337.816 120.776 337.544 120.808C337.048 120.856 336.712 121.272 336.712 121.88V123.48H338.856V124.984H336.712V131.144ZM343.513 129.752C344.697 129.752 345.497 128.808 345.497 127.352C345.497 125.912 344.697 124.952 343.513 124.952C342.329 124.952 341.529 125.896 341.529 127.352C341.529 128.808 342.313 129.752 343.513 129.752ZM339.833 127.352C339.833 125.096 341.353 123.496 343.513 123.496C345.673 123.496 347.193 125.096 347.193 127.352C347.193 129.592 345.673 131.208 343.513 131.208C341.353 131.208 339.833 129.592 339.833 127.352ZM348.838 131.144V123.512H350.534V124.632C351.046 123.912 351.974 123.432 352.87 123.48V125.048C351.51 124.984 350.534 126.184 350.534 127.352V131.144H348.838ZM364.38 126.808C364.38 125.72 363.788 125 362.924 125C361.948 125 361.292 125.752 361.292 126.728V131.144H359.58V126.808C359.58 125.72 359.004 125 358.156 125C357.18 125 356.492 125.832 356.492 126.904V131.144H354.796V123.512H356.492V124.552C356.94 123.944 357.596 123.528 358.316 123.528C359.228 123.528 360.124 124.104 360.572 124.904C361.1 124.104 362.124 123.528 363.036 123.528C364.844 123.528 366.092 124.872 366.092 126.744V131.144H364.38V126.808Z" fill="#6D0CA6"/>
<circle opacity="0.4" cx="520" cy="112" r="111.5" fill="white" stroke="#9735D0"/>
<path d="M447.121 79.978H456.817V81.082C456.817 82.218 456.817 83.466 456.481 85.146H458.401V86.57H445.505V85.146H454.737C455.073 83.61 455.105 82.458 455.105 81.402H447.121V79.978ZM447.041 93.386V88.218H456.801V93.386H447.041ZM448.769 91.978H455.089V89.594H448.769V91.978ZM459.489 85.802H472.353V87.194H469.377V89.018C470.305 89.45 470.817 90.106 470.817 90.97C470.817 92.618 468.961 93.546 465.905 93.546C462.833 93.546 460.977 92.618 460.977 90.97C460.977 90.09 461.505 89.418 462.481 88.986V87.194H459.489V85.802ZM460.817 82.266C460.817 80.57 462.801 79.562 465.921 79.562C469.041 79.562 471.025 80.57 471.025 82.266C471.025 83.962 469.041 84.97 465.921 84.97C462.801 84.97 460.817 83.962 460.817 82.266ZM462.625 82.266C462.625 83.162 463.841 83.626 465.921 83.626C467.985 83.626 469.201 83.162 469.201 82.266C469.201 81.386 467.985 80.906 465.921 80.906C463.841 80.906 462.625 81.386 462.625 82.266ZM462.753 90.97C462.753 91.786 463.857 92.202 465.905 92.202C467.937 92.202 469.041 91.786 469.041 90.97C469.041 90.154 467.937 89.738 465.905 89.738C463.857 89.738 462.753 90.154 462.753 90.97ZM464.241 88.522C464.753 88.442 465.297 88.41 465.905 88.41C466.529 88.41 467.105 88.442 467.617 88.522V87.194H464.241V88.522ZM475.842 90.778L474.754 94.458H473.49L474.098 90.778H475.842ZM488.248 88.218C491.304 88.218 493.272 89.226 493.272 90.89C493.272 92.538 491.304 93.546 488.248 93.546C485.192 93.546 483.24 92.538 483.24 90.89C483.24 89.226 485.192 88.218 488.248 88.218ZM481.896 87.178V85.77H486.856V83.194H488.6V85.77H494.728V87.178H481.896ZM483.368 81.37V79.978H493.16V81.162C493.16 82.298 493.16 83.482 492.776 84.954L491.048 84.762C491.4 83.402 491.416 82.394 491.416 81.37H483.368ZM484.984 90.89C484.984 91.738 486.2 92.202 488.248 92.202C490.296 92.202 491.512 91.738 491.512 90.89C491.512 90.026 490.296 89.546 488.248 89.546C486.2 89.546 484.984 90.026 484.984 90.89ZM502.232 88.218C505.288 88.218 507.256 89.226 507.256 90.89C507.256 92.538 505.288 93.546 502.232 93.546C499.176 93.546 497.224 92.538 497.224 90.89C497.224 89.226 499.176 88.218 502.232 88.218ZM495.88 87.178V85.77H500.84V83.194H502.584V85.77H508.712V87.178H495.88ZM497.352 81.37V79.978H507.144V81.162C507.144 82.298 507.144 83.482 506.76 84.954L505.032 84.762C505.384 83.402 505.4 82.394 505.4 81.37H497.352ZM498.968 90.89C498.968 91.738 500.184 92.202 502.232 92.202C504.28 92.202 505.496 91.738 505.496 90.89C505.496 90.026 504.28 89.546 502.232 89.546C500.184 89.546 498.968 90.026 498.968 90.89ZM512.217 90.778L511.129 94.458H509.865L510.473 90.778H512.217ZM528.735 79.29H530.399V93.53H528.735V79.29ZM517.999 89.514C520.031 88.234 520.911 85.674 520.911 83.178V82.25H518.463V80.81H524.879V82.25H522.623V83.178C522.623 85.578 523.455 88.01 525.471 89.194L524.431 90.458C523.135 89.674 522.271 88.33 521.775 86.714C521.295 88.474 520.399 89.962 519.055 90.81L517.999 89.514ZM523.839 85.69V84.266H525.871V79.562H527.503V92.858H525.871V85.69H523.839ZM532.239 90.378H537.807V87.114H539.567V90.378H545.135V91.818H532.239V90.378ZM532.783 86.298C535.647 85.834 537.711 83.914 537.759 81.866H533.311V80.458H544.031V81.866H539.583C539.631 83.914 541.711 85.786 544.623 86.234L543.935 87.626C541.535 87.178 539.599 85.914 538.687 84.138C537.775 85.93 535.855 87.226 533.487 87.69L532.783 86.298ZM548.592 90.778L547.504 94.458H546.24L546.848 90.778H548.592ZM550.942 87.29H563.838V88.73H560.702V93.53H558.91V88.73H555.806V93.53H553.998V88.73H550.942V87.29ZM552.27 82.97C552.27 81.034 554.334 79.834 557.342 79.834C560.366 79.834 562.43 81.034 562.43 82.97C562.43 84.906 560.366 86.122 557.342 86.122C554.334 86.122 552.27 84.906 552.27 82.97ZM554.078 82.97C554.078 84.09 555.358 84.714 557.342 84.714C559.342 84.714 560.638 84.09 560.638 82.97C560.638 81.882 559.342 81.226 557.342 81.226C555.358 81.226 554.078 81.882 554.078 82.97ZM564.911 86.714H570.463V85.642H566.559V79.69H576.271V81.034H568.303V81.978H575.935V83.29H568.303V84.298H576.367V85.642H572.223V86.714H577.775V88.106H564.911V86.714ZM566.415 91.226C566.415 89.706 568.207 88.922 571.343 88.922C574.447 88.922 576.255 89.706 576.255 91.226C576.255 92.73 574.447 93.53 571.343 93.53C568.207 93.53 566.415 92.73 566.415 91.226ZM568.191 91.226C568.191 91.914 569.247 92.234 571.343 92.234C573.423 92.234 574.495 91.914 574.495 91.226C574.495 90.538 573.423 90.202 571.343 90.202C569.247 90.202 568.191 90.538 568.191 91.226ZM582.615 85.93H595.479V87.354H582.615V85.93ZM584.087 90.938C584.087 89.274 585.943 88.346 589.015 88.346C592.071 88.346 593.927 89.274 593.927 90.938C593.927 92.602 592.071 93.546 589.015 93.546C585.943 93.546 584.087 92.602 584.087 90.938ZM584.199 84.794V79.754H593.911V81.178H585.927V83.386H594.007V84.794H584.199ZM585.863 90.938C585.863 91.77 586.983 92.186 589.015 92.186C591.047 92.186 592.151 91.77 592.151 90.938C592.151 90.122 591.047 89.69 589.015 89.69C586.983 89.69 585.863 90.122 585.863 90.938ZM479.567 105.274H481.343V110.682H483.503V112.138H481.343V119.562H479.567V105.274ZM470.831 116.09V106.65H477.471V108.058H472.591V114.618C474.815 114.602 476.543 114.506 478.463 114.154L478.639 115.626C476.479 116.026 474.559 116.09 471.999 116.09H470.831ZM488.207 106.106C490.383 106.106 492.015 107.514 492.015 109.514C492.015 111.514 490.383 112.922 488.207 112.922C486.015 112.922 484.399 111.514 484.399 109.514C484.399 107.514 486.015 106.106 488.207 106.106ZM486.015 116.778C486.015 115.034 487.855 114.01 490.783 114.01C493.711 114.01 495.535 115.034 495.535 116.778C495.535 118.506 493.711 119.53 490.783 119.53C487.855 119.53 486.015 118.506 486.015 116.778ZM486.111 109.514C486.111 110.714 487.007 111.45 488.207 111.45C489.407 111.45 490.303 110.714 490.303 109.514C490.303 108.33 489.407 107.578 488.207 107.578C487.007 107.578 486.111 108.33 486.111 109.514ZM487.759 116.778C487.759 117.658 488.847 118.154 490.783 118.154C492.703 118.154 493.807 117.658 493.807 116.778C493.807 115.866 492.703 115.402 490.783 115.402C488.847 115.402 487.759 115.866 487.759 116.778ZM493.615 113.658V105.306H495.375V107.194H497.295V108.634H495.375V110.266H497.295V111.706H495.375V113.658H493.615ZM507.6 105.306H509.36V109.77H511.344V111.226H509.36V115.962H507.6V105.306ZM498.24 108.266V106.874H501.552V105.29H503.312V106.874H506.624V108.266H498.24ZM498.976 111.594C498.976 109.978 500.4 108.89 502.432 108.89C504.48 108.89 505.904 109.978 505.904 111.594C505.904 113.226 504.48 114.314 502.432 114.314C500.4 114.314 498.976 113.226 498.976 111.594ZM500.304 119.258V115.13H502.064V117.85H509.936V119.258H500.304ZM500.656 111.594C500.656 112.458 501.376 112.954 502.432 112.954C503.488 112.954 504.208 112.458 504.208 111.594C504.208 110.73 503.488 110.234 502.432 110.234C501.376 110.234 500.656 110.73 500.656 111.594ZM519.208 106.154H520.968V107.802C520.968 109.658 522.104 111.45 524.328 112.202L523.432 113.578C521.864 113.05 520.744 111.962 520.12 110.586C519.512 112.106 518.344 113.29 516.68 113.882L515.736 112.506C518.056 111.722 519.208 109.818 519.208 107.786V106.154ZM518.008 119.258V114.746H519.768V117.85H527.592V119.258H518.008ZM525.272 115.738V105.29H527.032V109.514H529.016V110.97H527.032V115.738H525.272ZM533.784 105.914C535.64 105.914 537.08 106.97 537.416 108.538H539.944V105.306H541.704V112.938H539.944V109.962H537.432C537.112 111.562 535.656 112.634 533.784 112.634C531.64 112.634 530.056 111.242 530.056 109.274C530.056 107.306 531.64 105.914 533.784 105.914ZM531.736 109.274C531.736 110.426 532.584 111.162 533.784 111.162C534.968 111.162 535.816 110.426 535.816 109.274C535.816 108.106 534.968 107.37 533.784 107.37C532.584 107.37 531.736 108.106 531.736 109.274ZM532.376 119.37V113.61H534.136V115.114H539.96V113.61H541.704V119.37H532.376ZM534.136 117.962H539.96V116.474H534.136V117.962ZM549.256 112.698H551.464V110.538H549.528C548.856 112.922 547.384 114.954 544.712 116.538L543.72 115.29C546.616 113.546 547.96 111.322 548.216 108.442H544.456V107.018H549.96C549.96 107.754 549.912 108.458 549.816 109.146H551.464V105.626H553.112V118.858H551.464V114.106H549.256V112.698ZM554.376 119.53V105.29H556.04V119.53H554.376ZM562.425 106.266C564.649 106.266 566.297 107.706 566.297 109.722C566.297 111.754 564.649 113.178 562.425 113.178C560.185 113.178 558.537 111.754 558.537 109.722C558.537 107.706 560.185 106.266 562.425 106.266ZM557.897 115.146C560.425 115.146 563.977 115.13 567.001 114.666L567.129 115.946C564.009 116.554 560.601 116.586 558.105 116.586L557.897 115.146ZM560.249 109.722C560.249 110.906 561.177 111.674 562.425 111.674C563.657 111.674 564.585 110.906 564.585 109.722C564.585 108.522 563.657 107.786 562.425 107.786C561.177 107.786 560.249 108.522 560.249 109.722ZM567.849 119.562V105.274H569.593V119.562H567.849ZM449.095 131.29H450.775V145.53H449.095V131.29ZM439.047 142.282V132.954H444.455V134.362H440.775V140.826C442.439 140.81 443.639 140.714 444.999 140.442L445.159 141.882C443.559 142.218 442.151 142.282 440.007 142.282H439.047ZM443.479 138.01V136.586H446.183V131.578H447.831V144.874H446.183V138.01H443.479ZM462.551 131.274H464.327V145.562H462.551V131.274ZM453.015 137.354C453.015 134.266 454.567 132.314 456.711 132.314C458.855 132.314 460.407 134.266 460.407 137.354C460.407 140.458 458.855 142.41 456.711 142.41C454.567 142.41 453.015 140.458 453.015 137.354ZM454.711 137.354C454.711 139.546 455.527 140.826 456.711 140.826C457.895 140.826 458.711 139.546 458.711 137.354C458.711 135.178 457.895 133.914 456.711 133.914C455.527 133.914 454.711 135.178 454.711 137.354ZM476.679 131.274H478.423V145.562H476.679V137.866H474.023V136.458H476.679V131.274ZM467.207 142.266V132.522H473.783V133.962H468.951V136.49H473.255V137.882H468.951V140.842C471.111 140.826 472.711 140.762 474.535 140.458L474.711 141.866C472.647 142.202 470.855 142.266 468.327 142.266H467.207ZM487.791 132.458H489.567V134.698C489.567 137.322 490.911 139.946 493.199 140.954L492.175 142.378C490.527 141.61 489.343 140.09 488.703 138.234C488.063 140.234 486.847 141.866 485.135 142.682L484.079 141.226C486.415 140.186 487.791 137.45 487.791 134.698V132.458ZM494.207 145.562V131.274H495.967V145.562H494.207ZM503.68 132.17H505.536V133.226C505.536 135.434 507.648 137.642 510.608 138.154L509.84 139.61C507.456 139.13 505.52 137.69 504.608 135.786C503.68 137.674 501.744 139.13 499.376 139.61L498.624 138.154C501.536 137.626 503.68 135.418 503.68 133.226V132.17ZM498.224 143.722V142.282H511.12V143.722H498.224ZM518.256 134.778H519.84V131.514H521.488V139.69H519.84V136.186H518.256V134.778ZM512.8 139.146V132.17H518.16V133.578H514.48V134.938H517.632V136.282H514.48V137.754C516.16 137.738 517.344 137.674 518.72 137.434L518.864 138.81C517.264 139.114 515.904 139.146 513.744 139.146H512.8ZM514.752 145.37V140.426H524.272V145.37H514.752ZM516.48 143.978H522.576V141.802H516.48V143.978ZM522.608 139.818V131.306H524.272V139.818H522.608ZM531.416 132.17H541.176V133.418C541.176 134.762 541.176 136.218 540.808 138.25H542.76V139.69H537.16V145.562H535.384V139.69H529.88V138.25H539.032C539.432 136.33 539.448 134.874 539.448 133.578H531.416V132.17ZM543.864 138.362H556.728V139.77H551.176V141.13H555.16V145.514H553.416V142.538H545.288V141.13H549.4V139.77H543.864V138.362ZM544.488 136.426C547.464 136.218 549.112 135.194 549.304 133.994H545.128V132.634H549.4V131.274H551.176V132.634H555.464V133.994H551.272C551.464 135.194 553.112 136.218 556.088 136.426L555.56 137.754C553.032 137.546 551.176 136.762 550.296 135.53C549.4 136.762 547.544 137.546 545.016 137.754L544.488 136.426ZM568.345 131.29H570.009V145.53H568.345V131.29ZM557.977 137.45C557.977 134.298 559.177 132.362 561.033 132.362C562.745 132.362 563.897 133.978 564.089 136.65H565.465V131.562H567.113V144.858H565.465V138.074H564.105C563.961 140.874 562.777 142.554 561.033 142.554C559.177 142.554 557.977 140.618 557.977 137.45ZM559.577 137.45C559.577 139.69 560.121 140.906 561.033 140.906C561.961 140.906 562.505 139.69 562.505 137.45C562.505 135.226 561.961 134.026 561.033 134.026C560.121 134.026 559.577 135.226 559.577 137.45ZM584.945 131.29H586.705V134.762H588.625V136.218H586.705V139.674H584.945V131.29ZM575.377 138.25C576.433 138.25 577.665 138.25 578.945 138.218V137.482C577.377 137.322 576.401 136.666 576.401 135.658C576.401 134.49 577.729 133.786 579.793 133.786C581.889 133.786 583.217 134.49 583.217 135.658C583.217 136.666 582.257 137.306 580.689 137.482V138.154C581.905 138.09 583.105 137.994 584.241 137.85L584.369 138.922C581.361 139.45 578.049 139.482 575.569 139.482L575.377 138.25ZM575.745 133.45V132.25H578.945V131.162H580.689V132.25H583.857V133.45H575.745ZM577.281 141.418V140.25H586.705V143.338H579.041V144.234H587.217V145.418H577.297V142.234H584.977V141.418H577.281ZM578.065 135.658C578.065 136.154 578.721 136.426 579.793 136.426C580.897 136.426 581.553 136.154 581.553 135.658C581.553 135.162 580.897 134.89 579.793 134.89C578.721 134.89 578.065 135.162 578.065 135.658ZM589.505 138.17H592.497V136.346C591.441 135.882 590.833 135.162 590.833 134.234C590.833 132.538 592.817 131.53 595.937 131.53C599.057 131.53 601.041 132.538 601.041 134.234C601.041 135.162 600.433 135.898 599.345 136.362V138.17H602.369V139.546H589.505V138.17ZM590.993 142.97C590.993 141.338 592.849 140.41 595.921 140.41C598.977 140.41 600.833 141.338 600.833 142.97C600.833 144.618 598.977 145.546 595.921 145.546C592.849 145.546 590.993 144.618 590.993 142.97ZM592.641 134.234C592.641 135.114 593.857 135.594 595.937 135.594C598.001 135.594 599.217 135.114 599.217 134.234C599.217 133.354 598.001 132.874 595.937 132.874C593.857 132.874 592.641 133.354 592.641 134.234ZM592.769 142.97C592.769 143.786 593.873 144.202 595.921 144.202C597.953 144.202 599.057 143.786 599.057 142.97C599.057 142.17 597.953 141.754 595.921 141.754C593.873 141.754 592.769 142.17 592.769 142.97ZM594.241 138.17H597.601V136.81C597.089 136.89 596.529 136.922 595.937 136.922C595.329 136.922 594.753 136.89 594.241 136.81V138.17Z" fill="#6D0CA6"/>
</svg>
