<svg width="791" height="277" viewBox="0 0 791 277" fill="none" xmlns="http://www.w3.org/2000/svg">
<circle opacity="0.4" cx="138.5" cy="138.5" r="138" fill="#9735D0" fill-opacity="0.14" stroke="#9735D0"/>
<path d="M72.5012 95.472H66.5012V99.536H71.6852V100.56H66.5012V104.976H72.5012V106H65.3492V94.448H72.5012V95.472ZM79.8739 101.664C79.8739 101.077 79.7086 100.597 79.3779 100.224C79.0473 99.8507 78.6153 99.664 78.0819 99.664C77.6766 99.664 77.3139 99.76 76.9939 99.952C76.6739 100.133 76.4233 100.379 76.2419 100.688C76.0606 100.987 75.9699 101.312 75.9699 101.664V106H74.8179V98.624H75.9699V99.728C76.2259 99.3973 76.5459 99.1307 76.9299 98.928C77.3246 98.7253 77.7086 98.624 78.0819 98.624C78.6473 98.624 79.1539 98.752 79.6019 99.008C80.0499 99.2533 80.3966 99.6 80.6419 100.048C80.8979 100.496 81.0259 101.003 81.0259 101.568V106H79.8739V101.664ZM89.9736 99.536V100.672H83.2216V99.536H89.9736ZM95.3739 104.992C95.7153 104.992 96.0673 104.917 96.4299 104.768C96.7926 104.608 97.0859 104.405 97.3099 104.16L98.1579 104.912C97.8273 105.253 97.4059 105.536 96.8939 105.76C96.3819 105.984 95.8966 106.096 95.4379 106.096C94.7126 106.096 94.0619 105.936 93.4859 105.616C92.9206 105.296 92.4779 104.853 92.1579 104.288C91.8379 103.712 91.6779 103.067 91.6779 102.352C91.6779 101.637 91.8379 100.997 92.1579 100.432C92.4779 99.8667 92.9206 99.424 93.4859 99.104C94.0619 98.784 94.7126 98.624 95.4379 98.624C95.8966 98.624 96.3819 98.736 96.8939 98.96C97.4059 99.184 97.8273 99.4667 98.1579 99.808L97.3099 100.56C97.0859 100.315 96.7926 100.117 96.4299 99.968C96.0673 99.808 95.7153 99.728 95.3739 99.728C94.6273 99.728 94.0139 99.9733 93.5339 100.464C93.0646 100.944 92.8299 101.573 92.8299 102.352C92.8299 103.131 93.0646 103.765 93.5339 104.256C94.0139 104.747 94.6273 104.992 95.3739 104.992ZM102.799 105.072C103.493 105.072 104.058 104.821 104.495 104.32C104.943 103.808 105.167 103.157 105.167 102.368C105.167 101.579 104.943 100.933 104.495 100.432C104.058 99.92 103.493 99.664 102.799 99.664C102.106 99.664 101.541 99.9147 101.103 100.416C100.666 100.917 100.447 101.568 100.447 102.368C100.447 103.168 100.666 103.819 101.103 104.32C101.541 104.821 102.106 105.072 102.799 105.072ZM99.2952 102.368C99.2952 101.653 99.4445 101.013 99.7432 100.448C100.042 99.872 100.458 99.424 100.991 99.104C101.525 98.784 102.127 98.624 102.799 98.624C103.482 98.624 104.09 98.784 104.623 99.104C105.157 99.424 105.573 99.872 105.871 100.448C106.17 101.013 106.319 101.653 106.319 102.368C106.319 103.083 106.17 103.728 105.871 104.304C105.573 104.869 105.157 105.312 104.623 105.632C104.09 105.952 103.482 106.112 102.799 106.112C102.127 106.112 101.525 105.952 100.991 105.632C100.458 105.312 100.042 104.869 99.7432 104.304C99.4445 103.728 99.2952 103.083 99.2952 102.368ZM108.082 98.624H109.234V99.92C109.49 99.504 109.852 99.168 110.322 98.912C110.791 98.656 111.287 98.5333 111.81 98.544V99.68C111.362 99.6693 110.94 99.7813 110.546 100.016C110.151 100.24 109.831 100.549 109.586 100.944C109.351 101.328 109.234 101.749 109.234 102.208V106H108.082V98.624ZM116.3 106.08C115.617 106.08 115.009 105.92 114.476 105.6C113.942 105.28 113.526 104.837 113.228 104.272C112.929 103.707 112.78 103.067 112.78 102.352C112.78 101.637 112.929 100.997 113.228 100.432C113.526 99.8667 113.942 99.424 114.476 99.104C115.009 98.784 115.617 98.624 116.3 98.624C116.982 98.624 117.542 98.7627 117.98 99.04C118.417 99.3173 118.732 99.6053 118.924 99.904C119.126 100.203 119.26 100.448 119.324 100.64C119.537 101.216 119.644 101.803 119.644 102.4C119.644 102.592 119.633 102.752 119.612 102.88H113.98C114.076 103.509 114.337 104.027 114.764 104.432C115.201 104.837 115.713 105.04 116.3 105.04C116.769 105.04 117.164 104.965 117.484 104.816C117.804 104.656 118.028 104.501 118.156 104.352C118.294 104.203 118.422 104.043 118.54 103.872L119.436 104.384C119.222 104.843 118.844 105.243 118.3 105.584C117.766 105.915 117.1 106.08 116.3 106.08ZM118.476 101.84C118.326 100.389 117.601 99.664 116.3 99.664C115.702 99.664 115.19 99.8667 114.764 100.272C114.337 100.677 114.076 101.205 113.98 101.856L118.476 101.84ZM121.613 96.48H120.781L121.277 93.536H122.525L121.613 96.48ZM125.708 103.728C125.911 104.155 126.199 104.48 126.572 104.704C126.956 104.928 127.313 105.04 127.644 105.04C128.124 105.04 128.519 104.944 128.828 104.752C129.137 104.549 129.292 104.277 129.292 103.936C129.292 103.723 129.212 103.547 129.052 103.408C128.892 103.259 128.705 103.141 128.492 103.056C128.279 102.971 127.959 102.859 127.532 102.72C126.999 102.539 126.583 102.379 126.284 102.24C125.985 102.101 125.713 101.893 125.468 101.616C125.223 101.328 125.1 100.971 125.1 100.544C125.1 99.9467 125.345 99.4667 125.836 99.104C126.327 98.7413 126.94 98.56 127.676 98.56C127.996 98.56 128.337 98.624 128.7 98.752C129.063 98.8693 129.388 99.0667 129.676 99.344C129.975 99.6107 130.177 99.9467 130.284 100.352L129.228 100.688C129.132 100.293 128.929 100.016 128.62 99.856C128.311 99.6853 127.996 99.6 127.676 99.6C127.26 99.6 126.919 99.6853 126.652 99.856C126.385 100.027 126.252 100.256 126.252 100.544C126.252 100.757 126.327 100.933 126.476 101.072C126.625 101.211 126.801 101.323 127.004 101.408C127.217 101.483 127.548 101.595 127.996 101.744C128.529 101.925 128.951 102.091 129.26 102.24C129.569 102.379 129.841 102.587 130.076 102.864C130.321 103.141 130.444 103.499 130.444 103.936C130.444 104.576 130.177 105.093 129.644 105.488C129.111 105.883 128.444 106.08 127.644 106.08C127.068 106.08 126.519 105.925 125.996 105.616C125.473 105.307 125.063 104.869 124.764 104.304L125.708 103.728ZM139.919 105.072C140.623 105.072 141.193 104.821 141.631 104.32C142.079 103.808 142.303 103.152 142.303 102.352C142.303 101.563 142.079 100.917 141.631 100.416C141.193 99.904 140.623 99.648 139.919 99.648C139.503 99.648 139.113 99.7707 138.751 100.016C138.388 100.261 138.095 100.592 137.871 101.008C137.657 101.424 137.551 101.872 137.551 102.352C137.551 102.843 137.657 103.296 137.871 103.712C138.084 104.128 138.372 104.459 138.735 104.704C139.108 104.949 139.503 105.072 139.919 105.072ZM136.383 98.624H137.535V99.952C137.791 99.536 138.143 99.2107 138.591 98.976C139.039 98.7413 139.487 98.624 139.935 98.624C140.617 98.624 141.225 98.784 141.759 99.104C142.292 99.424 142.708 99.8667 143.007 100.432C143.305 100.997 143.455 101.637 143.455 102.352C143.455 103.077 143.305 103.728 143.007 104.304C142.708 104.869 142.292 105.312 141.759 105.632C141.225 105.952 140.617 106.112 139.935 106.112C139.497 106.112 139.049 105.989 138.591 105.744C138.143 105.488 137.791 105.163 137.535 104.768V109.424H136.383V98.624ZM145.222 98.624H146.374V99.92C146.63 99.504 146.993 99.168 147.462 98.912C147.932 98.656 148.428 98.5333 148.95 98.544V99.68C148.502 99.6693 148.081 99.7813 147.686 100.016C147.292 100.24 146.972 100.549 146.726 100.944C146.492 101.328 146.374 101.749 146.374 102.208V106H145.222V98.624ZM153.424 105.072C154.118 105.072 154.683 104.821 155.12 104.32C155.568 103.808 155.792 103.157 155.792 102.368C155.792 101.579 155.568 100.933 155.12 100.432C154.683 99.92 154.118 99.664 153.424 99.664C152.731 99.664 152.166 99.9147 151.728 100.416C151.291 100.917 151.072 101.568 151.072 102.368C151.072 103.168 151.291 103.819 151.728 104.32C152.166 104.821 152.731 105.072 153.424 105.072ZM149.92 102.368C149.92 101.653 150.07 101.013 150.368 100.448C150.667 99.872 151.083 99.424 151.616 99.104C152.15 98.784 152.752 98.624 153.424 98.624C154.107 98.624 154.715 98.784 155.248 99.104C155.782 99.424 156.198 99.872 156.496 100.448C156.795 101.013 156.944 101.653 156.944 102.368C156.944 103.083 156.795 103.728 156.496 104.304C156.198 104.869 155.782 105.312 155.248 105.632C154.715 105.952 154.107 106.112 153.424 106.112C152.752 106.112 152.15 105.952 151.616 105.632C151.083 105.312 150.667 104.869 150.368 104.304C150.07 103.728 149.92 103.083 149.92 102.368ZM162.419 105.072C163.123 105.072 163.693 104.821 164.131 104.32C164.579 103.808 164.803 103.152 164.803 102.352C164.803 101.563 164.579 100.917 164.131 100.416C163.693 99.904 163.123 99.648 162.419 99.648C162.003 99.648 161.613 99.7707 161.251 100.016C160.888 100.261 160.595 100.592 160.371 101.008C160.157 101.424 160.051 101.872 160.051 102.352C160.051 102.843 160.157 103.296 160.371 103.712C160.584 104.128 160.872 104.459 161.235 104.704C161.608 104.949 162.003 105.072 162.419 105.072ZM158.883 98.624H160.035V99.952C160.291 99.536 160.643 99.2107 161.091 98.976C161.539 98.7413 161.987 98.624 162.435 98.624C163.117 98.624 163.725 98.784 164.259 99.104C164.792 99.424 165.208 99.8667 165.507 100.432C165.805 100.997 165.955 101.637 165.955 102.352C165.955 103.077 165.805 103.728 165.507 104.304C165.208 104.869 164.792 105.312 164.259 105.632C163.725 105.952 163.117 106.112 162.435 106.112C161.997 106.112 161.549 105.989 161.091 105.744C160.643 105.488 160.291 105.163 160.035 104.768V109.424H158.883V98.624ZM167.722 98.624H168.874V99.92C169.13 99.504 169.493 99.168 169.962 98.912C170.432 98.656 170.928 98.5333 171.45 98.544V99.68C171.002 99.6693 170.581 99.7813 170.186 100.016C169.792 100.24 169.472 100.549 169.226 100.944C168.992 101.328 168.874 101.749 168.874 102.208V106H167.722V98.624ZM174.581 98.624V106H173.429V98.624H174.581ZM173.269 95.696C173.269 95.4827 173.338 95.312 173.477 95.184C173.615 95.0453 173.791 94.976 174.005 94.976C174.218 94.976 174.389 95.0453 174.517 95.184C174.655 95.312 174.725 95.4827 174.725 95.696C174.725 95.9093 174.655 96.0853 174.517 96.224C174.389 96.3627 174.218 96.432 174.005 96.432C173.791 96.432 173.615 96.3627 173.477 96.224C173.338 96.0853 173.269 95.9093 173.269 95.696ZM180.19 106.08C179.508 106.08 178.9 105.92 178.366 105.6C177.833 105.28 177.417 104.837 177.118 104.272C176.82 103.707 176.67 103.067 176.67 102.352C176.67 101.637 176.82 100.997 177.118 100.432C177.417 99.8667 177.833 99.424 178.366 99.104C178.9 98.784 179.508 98.624 180.19 98.624C180.873 98.624 181.433 98.7627 181.87 99.04C182.308 99.3173 182.622 99.6053 182.814 99.904C183.017 100.203 183.15 100.448 183.214 100.64C183.428 101.216 183.534 101.803 183.534 102.4C183.534 102.592 183.524 102.752 183.502 102.88H177.87C177.966 103.509 178.228 104.027 178.654 104.432C179.092 104.837 179.604 105.04 180.19 105.04C180.66 105.04 181.054 104.965 181.374 104.816C181.694 104.656 181.918 104.501 182.046 104.352C182.185 104.203 182.313 104.043 182.43 103.872L183.326 104.384C183.113 104.843 182.734 105.243 182.19 105.584C181.657 105.915 180.99 106.08 180.19 106.08ZM182.366 101.84C182.217 100.389 181.492 99.664 180.19 99.664C179.593 99.664 179.081 99.8667 178.654 100.272C178.228 100.677 177.966 101.205 177.87 101.856L182.366 101.84ZM185.932 99.648H184.604V98.624H185.932V96.08H187.084V98.624H188.828V99.648H187.084V106H185.932V99.648ZM193.315 106.112C192.643 106.112 192.04 105.952 191.507 105.632C190.973 105.312 190.557 104.869 190.259 104.304C189.96 103.739 189.811 103.099 189.811 102.384C189.811 101.669 189.96 101.029 190.259 100.464C190.557 99.888 190.973 99.44 191.507 99.12C192.04 98.8 192.643 98.64 193.315 98.64C193.741 98.64 194.163 98.7573 194.579 98.992C195.005 99.2267 195.379 99.568 195.699 100.016V98.624H196.851V106H195.699V104.72C195.379 105.2 195.011 105.552 194.595 105.776C194.189 106 193.763 106.112 193.315 106.112ZM190.963 102.384C190.963 103.173 191.181 103.819 191.619 104.32C192.067 104.821 192.637 105.072 193.331 105.072C193.747 105.072 194.136 104.96 194.499 104.736C194.861 104.501 195.155 104.181 195.379 103.776C195.603 103.36 195.715 102.896 195.715 102.384C195.715 101.883 195.603 101.424 195.379 101.008C195.155 100.592 194.861 100.267 194.499 100.032C194.136 99.7973 193.747 99.68 193.331 99.68C192.637 99.68 192.067 99.936 191.619 100.448C191.181 100.949 190.963 101.595 190.963 102.384ZM198.754 98.624H199.906V99.92C200.162 99.504 200.524 99.168 200.994 98.912C201.463 98.656 201.959 98.5333 202.482 98.544V99.68C202.034 99.6693 201.612 99.7813 201.218 100.016C200.823 100.24 200.503 100.549 200.258 100.944C200.023 101.328 199.906 101.749 199.906 102.208V106H198.754V98.624ZM205.5 109.44L207.036 105.664L204.044 98.624H205.308L207.644 104.272L209.868 98.624H211.116L208.332 105.52L206.764 109.44H205.5ZM89.7839 132.112C89.1013 132.112 88.4933 131.952 87.9599 131.632C87.4266 131.312 87.0106 130.869 86.7119 130.304C86.4133 129.728 86.2639 129.077 86.2639 128.352C86.2639 127.627 86.4133 126.981 86.7119 126.416C87.0106 125.851 87.4266 125.408 87.9599 125.088C88.4933 124.768 89.1013 124.608 89.7839 124.608C90.2533 124.608 90.7013 124.725 91.1279 124.96C91.5653 125.195 91.9279 125.541 92.2159 126V120.768H93.3679V132H92.2159V130.704C91.9173 131.173 91.5546 131.525 91.1279 131.76C90.7013 131.995 90.2533 132.112 89.7839 132.112ZM87.4159 128.352C87.4159 129.152 87.6399 129.808 88.0879 130.32C88.5359 130.821 89.1173 131.072 89.8319 131.072C90.2479 131.072 90.6373 130.949 90.9999 130.704C91.3733 130.459 91.6666 130.128 91.8799 129.712C92.1039 129.296 92.2159 128.843 92.2159 128.352C92.2159 127.872 92.1039 127.424 91.8799 127.008C91.6666 126.592 91.3733 126.261 90.9999 126.016C90.6373 125.771 90.2479 125.648 89.8319 125.648C89.1173 125.648 88.5359 125.904 88.0879 126.416C87.6399 126.917 87.4159 127.563 87.4159 128.352ZM98.7367 132.112C98.0647 132.112 97.462 131.952 96.9287 131.632C96.3954 131.312 95.9794 130.869 95.6807 130.304C95.382 129.739 95.2327 129.099 95.2327 128.384C95.2327 127.669 95.382 127.029 95.6807 126.464C95.9794 125.888 96.3954 125.44 96.9287 125.12C97.462 124.8 98.0647 124.64 98.7367 124.64C99.1634 124.64 99.5847 124.757 100.001 124.992C100.427 125.227 100.801 125.568 101.121 126.016V124.624H102.273V132H101.121V130.72C100.801 131.2 100.433 131.552 100.017 131.776C99.6114 132 99.1847 132.112 98.7367 132.112ZM96.3847 128.384C96.3847 129.173 96.6034 129.819 97.0407 130.32C97.4887 130.821 98.0594 131.072 98.7527 131.072C99.1687 131.072 99.558 130.96 99.9207 130.736C100.283 130.501 100.577 130.181 100.801 129.776C101.025 129.36 101.137 128.896 101.137 128.384C101.137 127.883 101.025 127.424 100.801 127.008C100.577 126.592 100.283 126.267 99.9207 126.032C99.558 125.797 99.1687 125.68 98.7527 125.68C98.0594 125.68 97.4887 125.936 97.0407 126.448C96.6034 126.949 96.3847 127.595 96.3847 128.384ZM105.135 125.648H103.807V124.624H105.135V122.08H106.287V124.624H108.031V125.648H106.287V132H105.135V125.648ZM112.518 132.112C111.846 132.112 111.243 131.952 110.71 131.632C110.177 131.312 109.761 130.869 109.462 130.304C109.163 129.739 109.014 129.099 109.014 128.384C109.014 127.669 109.163 127.029 109.462 126.464C109.761 125.888 110.177 125.44 110.71 125.12C111.243 124.8 111.846 124.64 112.518 124.64C112.945 124.64 113.366 124.757 113.782 124.992C114.209 125.227 114.582 125.568 114.902 126.016V124.624H116.054V132H114.902V130.72C114.582 131.2 114.214 131.552 113.798 131.776C113.393 132 112.966 132.112 112.518 132.112ZM110.166 128.384C110.166 129.173 110.385 129.819 110.822 130.32C111.27 130.821 111.841 131.072 112.534 131.072C112.95 131.072 113.339 130.96 113.702 130.736C114.065 130.501 114.358 130.181 114.582 129.776C114.806 129.36 114.918 128.896 114.918 128.384C114.918 127.883 114.806 127.424 114.582 127.008C114.358 126.592 114.065 126.267 113.702 126.032C113.339 125.797 112.95 125.68 112.534 125.68C111.841 125.68 111.27 125.936 110.822 126.448C110.385 126.949 110.166 127.595 110.166 128.384ZM125.265 130.992C125.606 130.992 125.958 130.917 126.321 130.768C126.683 130.608 126.977 130.405 127.201 130.16L128.049 130.912C127.718 131.253 127.297 131.536 126.785 131.76C126.273 131.984 125.787 132.096 125.329 132.096C124.603 132.096 123.953 131.936 123.377 131.616C122.811 131.296 122.369 130.853 122.049 130.288C121.729 129.712 121.569 129.067 121.569 128.352C121.569 127.637 121.729 126.997 122.049 126.432C122.369 125.867 122.811 125.424 123.377 125.104C123.953 124.784 124.603 124.624 125.329 124.624C125.787 124.624 126.273 124.736 126.785 124.96C127.297 125.184 127.718 125.467 128.049 125.808L127.201 126.56C126.977 126.315 126.683 126.117 126.321 125.968C125.958 125.808 125.606 125.728 125.265 125.728C124.518 125.728 123.905 125.973 123.425 126.464C122.955 126.944 122.721 127.573 122.721 128.352C122.721 129.131 122.955 129.765 123.425 130.256C123.905 130.747 124.518 130.992 125.265 130.992ZM132.69 131.072C133.383 131.072 133.948 130.821 134.386 130.32C134.834 129.808 135.058 129.157 135.058 128.368C135.058 127.579 134.834 126.933 134.386 126.432C133.948 125.92 133.383 125.664 132.69 125.664C131.996 125.664 131.431 125.915 130.994 126.416C130.556 126.917 130.338 127.568 130.338 128.368C130.338 129.168 130.556 129.819 130.994 130.32C131.431 130.821 131.996 131.072 132.69 131.072ZM129.186 128.368C129.186 127.653 129.335 127.013 129.634 126.448C129.932 125.872 130.348 125.424 130.882 125.104C131.415 124.784 132.018 124.624 132.69 124.624C133.372 124.624 133.98 124.784 134.514 125.104C135.047 125.424 135.463 125.872 135.762 126.448C136.06 127.013 136.21 127.653 136.21 128.368C136.21 129.083 136.06 129.728 135.762 130.304C135.463 130.869 135.047 131.312 134.514 131.632C133.98 131.952 133.372 132.112 132.69 132.112C132.018 132.112 131.415 131.952 130.882 131.632C130.348 131.312 129.932 130.869 129.634 130.304C129.335 129.728 129.186 129.083 129.186 128.368ZM143.108 127.664C143.108 127.077 142.943 126.597 142.612 126.224C142.282 125.851 141.85 125.664 141.316 125.664C140.911 125.664 140.548 125.76 140.228 125.952C139.908 126.133 139.658 126.379 139.476 126.688C139.295 126.987 139.204 127.312 139.204 127.664V132H138.052V124.624H139.204V125.728C139.46 125.397 139.78 125.131 140.164 124.928C140.559 124.725 140.943 124.624 141.316 124.624C141.882 124.624 142.388 124.752 142.836 125.008C143.284 125.253 143.631 125.6 143.876 126.048C144.132 126.496 144.26 127.003 144.26 127.568V132H143.108V127.664ZM147.052 129.728C147.254 130.155 147.542 130.48 147.916 130.704C148.3 130.928 148.657 131.04 148.988 131.04C149.468 131.04 149.862 130.944 150.172 130.752C150.481 130.549 150.636 130.277 150.636 129.936C150.636 129.723 150.556 129.547 150.396 129.408C150.236 129.259 150.049 129.141 149.836 129.056C149.622 128.971 149.302 128.859 148.876 128.72C148.342 128.539 147.926 128.379 147.628 128.24C147.329 128.101 147.057 127.893 146.812 127.616C146.566 127.328 146.444 126.971 146.444 126.544C146.444 125.947 146.689 125.467 147.18 125.104C147.67 124.741 148.284 124.56 149.02 124.56C149.34 124.56 149.681 124.624 150.044 124.752C150.406 124.869 150.732 125.067 151.02 125.344C151.318 125.611 151.521 125.947 151.628 126.352L150.572 126.688C150.476 126.293 150.273 126.016 149.964 125.856C149.654 125.685 149.34 125.6 149.02 125.6C148.604 125.6 148.262 125.685 147.996 125.856C147.729 126.027 147.596 126.256 147.596 126.544C147.596 126.757 147.67 126.933 147.82 127.072C147.969 127.211 148.145 127.323 148.348 127.408C148.561 127.483 148.892 127.595 149.34 127.744C149.873 127.925 150.294 128.091 150.604 128.24C150.913 128.379 151.185 128.587 151.42 128.864C151.665 129.141 151.788 129.499 151.788 129.936C151.788 130.576 151.521 131.093 150.988 131.488C150.454 131.883 149.788 132.08 148.988 132.08C148.412 132.08 147.862 131.925 147.34 131.616C146.817 131.307 146.406 130.869 146.108 130.304L147.052 129.728ZM155.111 128.96C155.111 129.568 155.276 130.075 155.607 130.48C155.948 130.885 156.38 131.088 156.903 131.088C157.522 131.088 158.023 130.907 158.407 130.544C158.802 130.181 158.999 129.707 158.999 129.12V124.624H160.167V132H158.999V131.056C158.754 131.365 158.434 131.621 158.039 131.824C157.644 132.027 157.266 132.128 156.903 132.128C156.338 132.128 155.831 131.995 155.383 131.728C154.935 131.461 154.583 131.099 154.327 130.64C154.071 130.171 153.943 129.653 153.943 129.088V124.624H155.111V128.96ZM163.498 120.768V132H162.346V120.768H163.498ZM166.229 125.648H164.901V124.624H166.229V122.08H167.381V124.624H169.125V125.648H167.381V132H166.229V125.648ZM171.94 124.624V132H170.788V124.624H171.94ZM170.628 121.696C170.628 121.483 170.698 121.312 170.836 121.184C170.975 121.045 171.151 120.976 171.364 120.976C171.578 120.976 171.748 121.045 171.876 121.184C172.015 121.312 172.084 121.483 172.084 121.696C172.084 121.909 172.015 122.085 171.876 122.224C171.748 122.363 171.578 122.432 171.364 122.432C171.151 122.432 170.975 122.363 170.836 122.224C170.698 122.085 170.628 121.909 170.628 121.696ZM179.39 127.664C179.39 127.077 179.224 126.597 178.894 126.224C178.563 125.851 178.131 125.664 177.598 125.664C177.192 125.664 176.83 125.76 176.51 125.952C176.19 126.133 175.939 126.379 175.758 126.688C175.576 126.987 175.486 127.312 175.486 127.664V132H174.334V124.624H175.486V125.728C175.742 125.397 176.062 125.131 176.446 124.928C176.84 124.725 177.224 124.624 177.598 124.624C178.163 124.624 178.67 124.752 179.118 125.008C179.566 125.253 179.912 125.6 180.158 126.048C180.414 126.496 180.542 127.003 180.542 127.568V132H179.39V127.664ZM185.909 131.056C186.336 131.056 186.73 130.939 187.093 130.704C187.456 130.459 187.738 130.128 187.941 129.712C188.154 129.296 188.261 128.848 188.261 128.368C188.261 127.899 188.154 127.456 187.941 127.04C187.728 126.624 187.44 126.293 187.077 126.048C186.725 125.792 186.336 125.664 185.909 125.664C185.216 125.664 184.645 125.92 184.197 126.432C183.76 126.933 183.541 127.579 183.541 128.368C183.541 129.157 183.76 129.803 184.197 130.304C184.645 130.805 185.216 131.056 185.909 131.056ZM182.389 128.368C182.389 127.653 182.538 127.013 182.837 126.448C183.136 125.883 183.552 125.44 184.085 125.12C184.618 124.789 185.221 124.624 185.893 124.624C186.394 124.624 186.853 124.747 187.269 124.992C187.685 125.227 188.016 125.552 188.261 125.968V124.624H189.413V131.568C189.413 132.283 189.264 132.933 188.965 133.52C188.666 134.107 188.245 134.565 187.701 134.896C187.157 135.237 186.528 135.408 185.813 135.408C185.205 135.408 184.645 135.264 184.133 134.976C183.621 134.699 183.178 134.277 182.805 133.712L183.765 133.136C184.256 133.957 184.938 134.368 185.813 134.368C186.56 134.368 187.152 134.101 187.589 133.568C188.037 133.035 188.261 132.363 188.261 131.552V130.704C187.994 131.109 187.642 131.445 187.205 131.712C186.768 131.968 186.33 132.096 185.893 132.096C185.221 132.096 184.618 131.936 184.085 131.616C183.552 131.296 183.136 130.853 182.837 130.288C182.538 129.723 182.389 129.083 182.389 128.368ZM69.9691 158.144V151.984H68.6251V150.48H69.9691V148.88C69.9691 148.4 70.0758 147.963 70.2891 147.568C70.5131 147.173 70.8171 146.864 71.2011 146.64C71.5851 146.416 72.0225 146.304 72.5131 146.304C72.8331 146.304 73.1531 146.363 73.4731 146.48C73.7931 146.587 74.0385 146.725 74.2091 146.896L73.3451 148.144C73.0785 147.92 72.8331 147.808 72.6091 147.808C72.3318 147.808 72.1025 147.904 71.9211 148.096C71.7505 148.288 71.6651 148.549 71.6651 148.88V150.48H73.8091V151.984H71.6651V158.144H69.9691ZM75.9005 150.512H77.5965V151.632C77.8525 151.269 78.1938 150.981 78.6205 150.768C79.0472 150.555 79.4845 150.459 79.9325 150.48V152.048C79.4952 152.027 79.0952 152.128 78.7325 152.352C78.3805 152.565 78.1032 152.853 77.9005 153.216C77.6978 153.579 77.5965 153.957 77.5965 154.352V158.144H75.9005V150.512ZM84.4175 158.208C83.7242 158.208 83.1002 158.043 82.5455 157.712C82.0015 157.381 81.5748 156.928 81.2655 156.352C80.9562 155.765 80.8015 155.104 80.8015 154.368C80.8015 153.632 80.9562 152.976 81.2655 152.4C81.5748 151.813 82.0015 151.355 82.5455 151.024C83.1002 150.693 83.7242 150.528 84.4175 150.528C84.8122 150.528 85.2015 150.619 85.5855 150.8C85.9695 150.981 86.3108 151.248 86.6095 151.6V150.512H88.3055V158.144H86.6095V157.12C86.3215 157.483 85.9855 157.755 85.6015 157.936C85.2175 158.117 84.8228 158.208 84.4175 158.208ZM82.4975 154.368C82.4975 155.083 82.6842 155.664 83.0575 156.112C83.4308 156.549 83.9215 156.768 84.5295 156.768C84.9028 156.768 85.2495 156.667 85.5695 156.464C85.8895 156.251 86.1455 155.963 86.3375 155.6C86.5295 155.227 86.6255 154.816 86.6255 154.368C86.6255 153.92 86.5295 153.515 86.3375 153.152C86.1455 152.779 85.8895 152.491 85.5695 152.288C85.2495 152.075 84.9028 151.968 84.5295 151.968C83.9215 151.968 83.4308 152.187 83.0575 152.624C82.6842 153.061 82.4975 153.643 82.4975 154.368ZM100.083 153.808C100.083 153.264 99.9494 152.827 99.6828 152.496C99.4161 152.165 99.0641 152 98.6267 152C98.1468 152 97.7521 152.165 97.4427 152.496C97.1441 152.827 96.9948 153.237 96.9948 153.728V158.144H95.2828V153.808C95.2828 153.264 95.1494 152.827 94.8828 152.496C94.6268 152.165 94.2854 152 93.8588 152C93.3788 152 92.9788 152.181 92.6588 152.544C92.3494 152.907 92.1948 153.36 92.1948 153.904V158.144H90.4988V150.512H92.1948V151.552C92.4294 151.243 92.7014 150.997 93.0108 150.816C93.3308 150.624 93.6668 150.528 94.0188 150.528C94.4668 150.528 94.8988 150.656 95.3148 150.912C95.7308 151.168 96.0508 151.499 96.2748 151.904C96.5414 151.499 96.9041 151.168 97.3628 150.912C97.8214 150.656 98.2801 150.528 98.7388 150.528C99.3361 150.528 99.8641 150.667 100.323 150.944C100.792 151.221 101.155 151.605 101.411 152.096C101.667 152.576 101.795 153.125 101.795 153.744V158.144H100.083V153.808ZM107.341 158.176C106.626 158.176 105.992 158.016 105.437 157.696C104.882 157.365 104.445 156.912 104.125 156.336C103.816 155.749 103.661 155.088 103.661 154.352C103.661 153.605 103.816 152.944 104.125 152.368C104.445 151.781 104.882 151.328 105.437 151.008C105.992 150.677 106.626 150.512 107.341 150.512C108.333 150.512 109.074 150.763 109.565 151.264C110.056 151.755 110.37 152.192 110.509 152.576C110.733 153.099 110.845 153.723 110.845 154.448C110.845 154.64 110.84 154.779 110.829 154.864C110.829 154.939 110.829 154.987 110.829 155.008H105.325C105.421 155.52 105.661 155.936 106.045 156.256C106.429 156.576 106.861 156.736 107.341 156.736C107.885 156.736 108.306 156.629 108.605 156.416C108.904 156.203 109.117 155.989 109.245 155.776L110.605 156.384C110.392 156.875 110.002 157.296 109.437 157.648C108.882 158 108.184 158.176 107.341 158.176ZM109.229 153.664C109.144 153.152 108.946 152.741 108.637 152.432C108.328 152.112 107.896 151.952 107.341 151.952C106.84 151.952 106.402 152.112 106.029 152.432C105.656 152.752 105.421 153.163 105.325 153.664H109.229ZM120.012 158.144H118.444L116.94 153.216L115.468 158.144H113.9L111.612 150.512H113.372L114.7 155.392L116.076 150.512H117.772L119.196 155.392L120.492 150.512H122.252L120.012 158.144ZM126.544 156.752C127.141 156.752 127.621 156.533 127.984 156.096C128.347 155.659 128.528 155.077 128.528 154.352C128.528 153.637 128.347 153.061 127.984 152.624C127.621 152.176 127.141 151.952 126.544 151.952C125.947 151.952 125.467 152.171 125.104 152.608C124.741 153.045 124.56 153.627 124.56 154.352C124.56 155.077 124.741 155.659 125.104 156.096C125.467 156.533 125.947 156.752 126.544 156.752ZM122.864 154.352C122.864 153.605 123.019 152.944 123.328 152.368C123.648 151.781 124.085 151.323 124.64 150.992C125.195 150.661 125.829 150.496 126.544 150.496C127.259 150.496 127.893 150.661 128.448 150.992C129.003 151.323 129.435 151.781 129.744 152.368C130.064 152.944 130.224 153.605 130.224 154.352C130.224 155.088 130.064 155.749 129.744 156.336C129.435 156.923 129.003 157.381 128.448 157.712C127.893 158.043 127.259 158.208 126.544 158.208C125.829 158.208 125.195 158.043 124.64 157.712C124.085 157.381 123.648 156.923 123.328 156.336C123.019 155.749 122.864 155.088 122.864 154.352ZM131.869 150.512H133.565V151.632C133.821 151.269 134.163 150.981 134.589 150.768C135.016 150.555 135.453 150.459 135.901 150.48V152.048C135.464 152.027 135.064 152.128 134.701 152.352C134.349 152.565 134.072 152.853 133.869 153.216C133.667 153.579 133.565 153.957 133.565 154.352V158.144H131.869V150.512ZM139.491 153.664L142.211 150.512H144.499L141.523 153.92L144.435 158.144H142.371L140.307 155.184L139.491 156.144V158.144H137.795V146.704H139.491V153.664ZM151.146 155.632C150.783 154.395 150.602 153.259 150.602 152.224C150.602 151.189 150.783 150.053 151.146 148.816C151.519 147.579 151.994 146.501 152.57 145.584H154.362C153.711 146.491 153.178 147.563 152.762 148.8C152.346 150.037 152.138 151.179 152.138 152.224C152.138 153.269 152.346 154.411 152.762 155.648C153.178 156.885 153.711 157.957 154.362 158.864H152.57C151.994 157.947 151.519 156.869 151.146 155.632ZM164.142 147.808H158.206V151.312H163.31V152.784H158.206V156.64H164.142V158.128H156.51V146.32H164.142V147.808ZM169.938 156.64C170.77 156.64 171.506 156.459 172.146 156.096C172.786 155.723 173.282 155.205 173.634 154.544C173.986 153.872 174.162 153.099 174.162 152.224C174.162 151.349 173.986 150.581 173.634 149.92C173.282 149.248 172.786 148.731 172.146 148.368C171.506 147.995 170.77 147.808 169.938 147.808L168.258 147.824V156.624L169.938 156.64ZM166.562 146.32H169.954C171.095 146.32 172.108 146.571 172.994 147.072C173.89 147.573 174.588 148.272 175.09 149.168C175.591 150.064 175.842 151.083 175.842 152.224C175.842 153.365 175.591 154.384 175.09 155.28C174.588 156.176 173.89 156.875 172.994 157.376C172.108 157.877 171.095 158.128 169.954 158.128H166.562V146.32ZM185.236 147.808H179.46V151.472H184.356V152.944H179.46V158.128H177.764V146.32H185.236V147.808ZM190.115 148.816C190.478 150.053 190.659 151.189 190.659 152.224C190.659 153.259 190.478 154.395 190.115 155.632C189.752 156.869 189.283 157.947 188.707 158.864H186.915C187.566 157.968 188.094 156.901 188.499 155.664C188.915 154.416 189.123 153.269 189.123 152.224C189.123 151.179 188.915 150.037 188.499 148.8C188.094 147.552 187.566 146.48 186.915 145.584H188.707C189.283 146.501 189.752 147.579 190.115 148.816ZM199.023 150.496V158.128H197.327V150.496H199.023ZM197.215 147.648C197.215 147.371 197.306 147.141 197.487 146.96C197.669 146.779 197.898 146.688 198.175 146.688C198.453 146.688 198.682 146.779 198.863 146.96C199.045 147.141 199.135 147.371 199.135 147.648C199.135 147.925 199.045 148.155 198.863 148.336C198.682 148.517 198.453 148.608 198.175 148.608C197.898 148.608 197.669 148.517 197.487 148.336C197.306 148.155 197.215 147.925 197.215 147.648ZM202.443 155.52C202.603 155.904 202.848 156.203 203.179 156.416C203.509 156.629 203.824 156.736 204.123 156.736C204.528 156.736 204.848 156.667 205.083 156.528C205.317 156.379 205.435 156.171 205.435 155.904C205.435 155.691 205.317 155.52 205.083 155.392C204.848 155.264 204.469 155.109 203.947 154.928C203.435 154.747 203.013 154.576 202.683 154.416C202.352 154.256 202.059 154.027 201.803 153.728C201.557 153.419 201.435 153.04 201.435 152.592C201.435 151.931 201.701 151.408 202.235 151.024C202.768 150.629 203.435 150.432 204.235 150.432C204.576 150.432 204.933 150.501 205.307 150.64C205.691 150.779 206.032 150.992 206.331 151.28C206.64 151.568 206.853 151.925 206.971 152.352L205.547 152.864C205.429 152.491 205.243 152.235 204.987 152.096C204.741 151.957 204.491 151.888 204.235 151.888C203.893 151.888 203.621 151.952 203.419 152.08C203.227 152.208 203.131 152.379 203.131 152.592C203.131 152.805 203.237 152.971 203.451 153.088C203.664 153.205 204.048 153.36 204.603 153.552C205.115 153.733 205.536 153.909 205.867 154.08C206.208 154.24 206.501 154.469 206.747 154.768C207.003 155.067 207.131 155.44 207.131 155.888C207.131 156.581 206.853 157.141 206.299 157.568C205.744 157.984 205.019 158.192 204.123 158.192C203.525 158.192 202.944 158.021 202.379 157.68C201.813 157.328 201.392 156.864 201.115 156.288L202.443 155.52ZM115.339 184.208C114.646 184.208 114.022 184.043 113.467 183.712C112.923 183.381 112.497 182.928 112.187 182.352C111.878 181.765 111.723 181.104 111.723 180.368C111.723 179.632 111.878 178.976 112.187 178.4C112.497 177.813 112.923 177.355 113.467 177.024C114.022 176.693 114.646 176.528 115.339 176.528C115.734 176.528 116.123 176.619 116.507 176.8C116.891 176.981 117.233 177.248 117.531 177.6V176.512H119.227V184.144H117.531V183.12C117.243 183.483 116.907 183.755 116.523 183.936C116.139 184.117 115.745 184.208 115.339 184.208ZM113.419 180.368C113.419 181.083 113.606 181.664 113.979 182.112C114.353 182.549 114.843 182.768 115.451 182.768C115.825 182.768 116.171 182.667 116.491 182.464C116.811 182.251 117.067 181.963 117.259 181.6C117.451 181.227 117.547 180.816 117.547 180.368C117.547 179.92 117.451 179.515 117.259 179.152C117.067 178.779 116.811 178.491 116.491 178.288C116.171 178.075 115.825 177.968 115.451 177.968C114.843 177.968 114.353 178.187 113.979 178.624C113.606 179.061 113.419 179.643 113.419 180.368ZM125.213 182.752C125.831 182.752 126.322 182.533 126.685 182.096C127.058 181.648 127.245 181.061 127.245 180.336C127.245 179.611 127.058 179.029 126.685 178.592C126.322 178.144 125.831 177.92 125.213 177.92C124.839 177.92 124.487 178.027 124.157 178.24C123.837 178.453 123.581 178.747 123.389 179.12C123.207 179.493 123.117 179.899 123.117 180.336C123.117 180.773 123.207 181.179 123.389 181.552C123.581 181.925 123.837 182.219 124.157 182.432C124.487 182.645 124.839 182.752 125.213 182.752ZM121.405 176.496H123.101V177.616C123.378 177.253 123.73 176.976 124.157 176.784C124.583 176.592 124.967 176.496 125.309 176.496C126.013 176.496 126.637 176.661 127.181 176.992C127.735 177.312 128.167 177.765 128.477 178.352C128.786 178.928 128.941 179.589 128.941 180.336C128.941 181.083 128.786 181.749 128.477 182.336C128.167 182.923 127.735 183.381 127.181 183.712C126.637 184.032 126.013 184.192 125.309 184.192C124.957 184.192 124.567 184.096 124.141 183.904C123.725 183.712 123.378 183.429 123.101 183.056V187.52H121.405V176.496ZM134.556 182.752C135.175 182.752 135.666 182.533 136.028 182.096C136.402 181.648 136.588 181.061 136.588 180.336C136.588 179.611 136.402 179.029 136.028 178.592C135.666 178.144 135.175 177.92 134.556 177.92C134.183 177.92 133.831 178.027 133.5 178.24C133.18 178.453 132.924 178.747 132.732 179.12C132.551 179.493 132.46 179.899 132.46 180.336C132.46 180.773 132.551 181.179 132.732 181.552C132.924 181.925 133.18 182.219 133.5 182.432C133.831 182.645 134.183 182.752 134.556 182.752ZM130.748 176.496H132.444V177.616C132.722 177.253 133.074 176.976 133.5 176.784C133.927 176.592 134.311 176.496 134.652 176.496C135.356 176.496 135.98 176.661 136.524 176.992C137.079 177.312 137.511 177.765 137.82 178.352C138.13 178.928 138.284 179.589 138.284 180.336C138.284 181.083 138.13 181.749 137.82 182.336C137.511 182.923 137.079 183.381 136.524 183.712C135.98 184.032 135.356 184.192 134.652 184.192C134.3 184.192 133.911 184.096 133.484 183.904C133.068 183.712 132.722 183.429 132.444 183.056V187.52H130.748V176.496ZM141.564 172.704V184.128H139.868V172.704H141.564ZM145.601 176.496V184.128H143.905V176.496H145.601ZM143.793 173.648C143.793 173.371 143.884 173.141 144.065 172.96C144.247 172.779 144.476 172.688 144.753 172.688C145.031 172.688 145.26 172.779 145.441 172.96C145.623 173.141 145.713 173.371 145.713 173.648C145.713 173.925 145.623 174.155 145.441 174.336C145.26 174.517 145.031 174.608 144.753 174.608C144.476 174.608 144.247 174.517 144.065 174.336C143.884 174.155 143.793 173.925 143.793 173.648ZM151.341 184.176C150.626 184.176 149.992 184.016 149.437 183.696C148.882 183.365 148.445 182.912 148.125 182.336C147.816 181.749 147.661 181.088 147.661 180.352C147.661 179.605 147.816 178.944 148.125 178.368C148.445 177.781 148.882 177.328 149.437 177.008C149.992 176.677 150.626 176.512 151.341 176.512C152.333 176.512 153.074 176.763 153.565 177.264C154.056 177.755 154.37 178.192 154.509 178.576C154.733 179.099 154.845 179.723 154.845 180.448C154.845 180.64 154.84 180.779 154.829 180.864C154.829 180.939 154.829 180.987 154.829 181.008H149.325C149.421 181.52 149.661 181.936 150.045 182.256C150.429 182.576 150.861 182.736 151.341 182.736C151.885 182.736 152.306 182.629 152.605 182.416C152.904 182.203 153.117 181.989 153.245 181.776L154.605 182.384C154.392 182.875 154.002 183.296 153.437 183.648C152.882 184 152.184 184.176 151.341 184.176ZM153.229 179.664C153.144 179.152 152.946 178.741 152.637 178.432C152.328 178.112 151.896 177.952 151.341 177.952C150.84 177.952 150.402 178.112 150.029 178.432C149.656 178.752 149.421 179.163 149.325 179.664H153.229ZM160.027 184.208C159.334 184.208 158.71 184.043 158.155 183.712C157.601 183.381 157.169 182.928 156.859 182.352C156.55 181.765 156.395 181.099 156.395 180.352C156.395 179.605 156.55 178.944 156.859 178.368C157.169 177.781 157.601 177.323 158.155 176.992C158.71 176.661 159.334 176.496 160.027 176.496C160.39 176.496 160.774 176.587 161.179 176.768C161.595 176.949 161.953 177.237 162.251 177.632V172.704H163.947V184.144H162.251V183.072C161.942 183.456 161.579 183.744 161.163 183.936C160.758 184.117 160.379 184.208 160.027 184.208ZM158.091 180.368C158.091 181.093 158.278 181.68 158.651 182.128C159.025 182.565 159.521 182.784 160.139 182.784C160.523 182.784 160.875 182.677 161.195 182.464C161.515 182.251 161.771 181.963 161.963 181.6C162.155 181.227 162.251 180.816 162.251 180.368C162.251 179.931 162.155 179.525 161.963 179.152C161.771 178.779 161.51 178.485 161.179 178.272C160.859 178.059 160.513 177.952 160.139 177.952C159.521 177.952 159.025 178.176 158.651 178.624C158.278 179.061 158.091 179.643 158.091 180.368Z" fill="#6D0CA6"/>
<circle opacity="0.4" cx="395.5" cy="138.5" r="138" fill="#9735D0" fill-opacity="0.14" stroke="#9735D0"/>
<path d="M361.629 120.32L366.013 132.128H364.205L363.021 128.912H358.173L356.941 132.128H355.133L359.597 120.32H361.629ZM358.717 127.44H362.461L360.621 122.464L358.717 127.44ZM367.415 120.704H369.111V132.128H367.415V120.704ZM371.196 120.704H372.892V132.128H371.196V120.704ZM374.978 125.264H381.954V126.96H374.978V125.264ZM384.296 124.496H385.992V132.128H384.296V124.496ZM384.184 121.648C384.184 121.088 384.584 120.688 385.144 120.688C385.704 120.688 386.104 121.088 386.104 121.648C386.104 122.208 385.704 122.608 385.144 122.608C384.584 122.608 384.184 122.208 384.184 121.648ZM393.556 127.936C393.556 126.72 392.932 125.984 391.876 125.984C390.836 126 390.036 126.816 390.052 127.936V132.144H388.356V124.512H390.052V125.552C390.532 124.96 391.348 124.528 392.084 124.528C393.524 124.528 395.252 125.472 395.252 127.872V132.144H393.556V127.936ZM397.306 125.264H404.282V126.96H397.306V125.264ZM412.384 130.768C414.88 130.768 416.56 128.944 416.56 126.224C416.56 123.504 414.88 121.68 412.384 121.68C409.888 121.68 408.224 123.504 408.224 126.224C408.224 128.944 409.888 130.768 412.384 130.768ZM406.512 126.224C406.512 122.688 408.944 120.192 412.384 120.192C415.84 120.192 418.272 122.688 418.272 126.224C418.272 129.76 415.84 132.256 412.384 132.256C408.944 132.256 406.512 129.76 406.512 126.224ZM425.337 127.936C425.337 126.72 424.713 125.984 423.657 125.984C422.617 126 421.817 126.816 421.833 127.936V132.144H420.137V124.512H421.833V125.552C422.313 124.96 423.129 124.528 423.865 124.528C425.305 124.528 427.033 125.472 427.033 127.872V132.144H425.337V127.936ZM432.435 132.176C430.275 132.176 428.755 130.592 428.755 128.352C428.755 126.096 430.275 124.512 432.435 124.512C434.803 124.512 435.555 126.448 435.603 126.576C436.067 127.664 435.923 128.88 435.923 129.008H430.419C430.611 130.032 431.475 130.736 432.435 130.736C433.699 130.736 434.211 130 434.339 129.776L435.699 130.384C435.331 131.248 434.259 132.176 432.435 132.176ZM430.419 127.664H434.323C434.163 126.72 433.619 125.952 432.435 125.952C431.411 125.952 430.611 126.672 430.419 127.664ZM348.922 156.64C351.45 156.64 353.146 154.864 353.146 152.224C353.146 149.584 351.45 147.808 348.922 147.808L347.242 147.824V156.624L348.922 156.64ZM345.546 158.128V146.32H348.938C352.394 146.32 354.826 148.752 354.826 152.224C354.826 155.696 352.394 158.128 348.938 158.128H345.546ZM359.824 158.208C357.712 158.208 356.208 156.608 356.208 154.368C356.208 152.128 357.712 150.528 359.824 150.528C360.576 150.528 361.408 150.88 362.016 151.6V150.512H363.712V158.144H362.016V157.12C361.408 157.888 360.576 158.208 359.824 158.208ZM357.904 154.368C357.904 155.808 358.72 156.768 359.936 156.768C361.056 156.768 362.016 155.76 362.032 154.368C362.016 152.976 361.056 151.968 359.936 151.968C358.72 151.968 357.904 152.912 357.904 154.368ZM366.675 158.144V151.968H365.235V150.496H366.675V147.824H368.371V150.496H370.179V151.968H368.371V158.144H366.675ZM374.996 158.208C372.884 158.208 371.38 156.608 371.38 154.368C371.38 152.128 372.884 150.528 374.996 150.528C375.748 150.528 376.58 150.88 377.188 151.6V150.512H378.884V158.144H377.188V157.12C376.58 157.888 375.748 158.208 374.996 158.208ZM373.076 154.368C373.076 155.808 373.892 156.768 375.108 156.768C376.228 156.768 377.188 155.76 377.204 154.368C377.188 152.976 376.228 151.968 375.108 151.968C373.892 151.968 373.076 152.912 373.076 154.368ZM389.334 152.208C390.614 152.208 391.51 151.296 391.51 150C391.51 148.72 390.598 147.808 389.318 147.808H386.726V152.208H389.334ZM385.03 158.128V146.32H389.382C391.622 146.32 393.19 147.84 393.19 150C393.19 152.16 391.622 153.68 389.382 153.68H386.726V158.128H385.03ZM394.618 146.704H396.314V158.128H394.618V146.704ZM401.527 158.208C399.415 158.208 397.911 156.608 397.911 154.368C397.911 152.128 399.415 150.528 401.527 150.528C402.279 150.528 403.111 150.88 403.719 151.6V150.512H405.415V158.144H403.719V157.12C403.111 157.888 402.279 158.208 401.527 158.208ZM399.607 154.368C399.607 155.808 400.423 156.768 401.639 156.768C402.759 156.768 403.719 155.76 403.735 154.368C403.719 152.976 402.759 151.968 401.639 151.968C400.423 151.968 399.607 152.912 399.607 154.368ZM408.378 158.144V151.968H406.938V150.496H408.378V147.824H410.074V150.496H411.882V151.968H410.074V158.144H408.378ZM416.212 158.144H414.516V151.984H413.172V150.48H414.516V148.88C414.516 147.472 415.492 146.4 416.9 146.304C417.556 146.256 418.372 146.512 418.756 146.896L417.892 148.144C417.54 147.84 417.316 147.776 417.044 147.808C416.548 147.856 416.212 148.272 416.212 148.88V150.48H418.356V151.984H416.212V158.144ZM423.013 156.752C424.197 156.752 424.997 155.808 424.997 154.352C424.997 152.912 424.197 151.952 423.013 151.952C421.829 151.952 421.029 152.896 421.029 154.352C421.029 155.808 421.813 156.752 423.013 156.752ZM419.333 154.352C419.333 152.096 420.853 150.496 423.013 150.496C425.173 150.496 426.693 152.096 426.693 154.352C426.693 156.592 425.173 158.208 423.013 158.208C420.853 158.208 419.333 156.592 419.333 154.352ZM428.338 158.144V150.512H430.034V151.632C430.546 150.912 431.474 150.432 432.37 150.48V152.048C431.01 151.984 430.034 153.184 430.034 154.352V158.144H428.338ZM443.88 153.808C443.88 152.72 443.288 152 442.424 152C441.448 152 440.792 152.752 440.792 153.728V158.144H439.08V153.808C439.08 152.72 438.504 152 437.656 152C436.68 152 435.992 152.832 435.992 153.904V158.144H434.296V150.512H435.992V151.552C436.44 150.944 437.096 150.528 437.816 150.528C438.728 150.528 439.624 151.104 440.072 151.904C440.6 151.104 441.624 150.528 442.536 150.528C444.344 150.528 445.592 151.872 445.592 153.744V158.144H443.88V153.808Z" fill="#6D0CA6"/>
<circle opacity="0.4" cx="652.5" cy="138.5" r="138" fill="#9735D0" fill-opacity="0.14" stroke="#9735D0"/>
<path d="M557.157 93.112C554.453 93.112 552.885 91.208 552.885 88.504V81.448H554.037V88.52C554.037 90.616 555.141 92.088 557.157 92.088C559.173 92.088 560.277 90.616 560.277 88.52V81.448H561.429V88.504C561.429 91.208 559.861 93.112 557.157 93.112ZM564.901 93V86.648H563.573V85.624H564.901V83.08H566.053V85.624H567.797V86.648H566.053V93H564.901ZM569.46 85.624H570.612V93H569.46V85.624ZM569.3 82.696C569.3 82.28 569.604 81.976 570.036 81.976C570.452 81.976 570.756 82.28 570.756 82.696C570.756 83.128 570.452 83.432 570.036 83.432C569.604 83.432 569.3 83.128 569.3 82.696ZM572.877 81.768H574.029V93H572.877V81.768ZM576.429 85.624H577.581V93H576.429V85.624ZM576.269 82.696C576.269 82.28 576.573 81.976 577.005 81.976C577.421 81.976 577.725 82.28 577.725 82.696C577.725 83.128 577.421 83.432 577.005 83.432C576.573 83.432 576.269 83.128 576.269 82.696ZM585.078 85.624V86.728L581.03 91.96H585.078V93H579.638V91.896L583.686 86.664H579.638V85.624H585.078ZM590.112 93.08C588.048 93.08 586.592 91.528 586.592 89.352C586.592 87.176 588.048 85.624 590.112 85.624C592.384 85.624 593.072 87.448 593.136 87.64C593.584 88.824 593.424 89.88 593.424 89.88H587.792C587.984 91.144 588.944 92.04 590.112 92.04C591.696 92.04 592.256 91.016 592.352 90.872L593.248 91.384C592.88 92.2 591.84 93.08 590.112 93.08ZM587.792 88.856L592.288 88.84C592.16 87.608 591.584 86.664 590.112 86.664C588.928 86.664 587.984 87.544 587.792 88.856ZM598.518 93.112C596.454 93.112 594.998 91.56 594.998 89.352C594.998 87.16 596.454 85.608 598.518 85.608C599.414 85.608 600.342 86.04 600.95 87V81.768H602.102V93H600.95V91.704C600.326 92.664 599.414 93.112 598.518 93.112ZM596.15 89.352C596.15 90.952 597.142 92.072 598.566 92.072C599.83 92.072 600.95 90.856 600.95 89.352C600.95 87.88 599.83 86.648 598.566 86.648C597.142 86.648 596.15 87.768 596.15 89.352ZM609.151 93V86.648H607.823V85.624H609.151V83.08H610.303V85.624H612.047V86.648H610.303V93H609.151ZM616.534 92.072C617.926 92.072 618.902 90.952 618.902 89.368C618.902 87.784 617.926 86.664 616.534 86.664C615.142 86.664 614.182 87.768 614.182 89.368C614.182 90.968 615.142 92.072 616.534 92.072ZM613.03 89.368C613.03 87.192 614.486 85.624 616.534 85.624C618.598 85.624 620.054 87.192 620.054 89.368C620.054 91.544 618.598 93.112 616.534 93.112C614.486 93.112 613.03 91.544 613.03 89.368ZM629.464 93.144C628.696 93.144 627.736 92.808 627.064 91.768V93.032H625.912V81.768H627.064V87.016C627.736 85.992 628.696 85.656 629.48 85.656C631.544 85.656 633.016 87.208 633.016 89.384C633.016 91.592 631.544 93.144 629.464 93.144ZM627.064 89.384C627.064 90.888 628.152 92.104 629.448 92.104C630.872 92.104 631.864 90.984 631.864 89.384C631.864 87.8 630.872 86.696 629.448 86.696C628.152 86.696 627.064 87.912 627.064 89.384ZM636.189 89.96C636.189 91.16 636.925 92.088 637.981 92.088C639.213 92.088 640.077 91.304 640.077 90.12V85.624H641.245V93H640.077V92.056C639.581 92.68 638.717 93.128 637.981 93.128C636.253 93.128 635.021 91.8 635.021 90.088V85.624H636.189V89.96ZM643.616 85.624H644.768V93H643.616V85.624ZM643.456 82.696C643.456 82.28 643.76 81.976 644.192 81.976C644.608 81.976 644.912 82.28 644.912 82.696C644.912 83.128 644.608 83.432 644.192 83.432C643.76 83.432 643.456 83.128 643.456 82.696ZM647.034 81.768H648.186V93H647.034V81.768ZM653.425 93.112C651.361 93.112 649.905 91.56 649.905 89.352C649.905 87.16 651.361 85.608 653.425 85.608C654.321 85.608 655.249 86.04 655.857 87V81.768H657.009V93H655.857V91.704C655.233 92.664 654.321 93.112 653.425 93.112ZM651.057 89.352C651.057 90.952 652.049 92.072 653.473 92.072C654.737 92.072 655.857 90.856 655.857 89.352C655.857 87.88 654.737 86.648 653.473 86.648C652.049 86.648 651.057 87.768 651.057 89.352ZM666.393 93.112C664.329 93.112 662.873 91.56 662.873 89.352C662.873 87.16 664.329 85.608 666.393 85.608C667.289 85.608 668.217 86.04 668.825 87V81.768H669.977V93H668.825V91.704C668.201 92.664 667.289 93.112 666.393 93.112ZM664.025 89.352C664.025 90.952 665.017 92.072 666.441 92.072C667.705 92.072 668.825 90.856 668.825 89.352C668.825 87.88 667.705 86.648 666.441 86.648C665.017 86.648 664.025 87.768 664.025 89.352ZM675.346 93.112C673.298 93.112 671.842 91.56 671.842 89.384C671.842 87.208 673.298 85.64 675.346 85.64C676.162 85.64 677.074 86.088 677.73 87.016V85.624H678.882V93H677.73V91.72C677.058 92.728 676.178 93.112 675.346 93.112ZM672.994 89.384C672.994 90.952 673.97 92.072 675.362 92.072C676.61 92.072 677.73 90.952 677.746 89.384C677.73 87.832 676.61 86.68 675.362 86.68C673.97 86.68 672.994 87.8 672.994 89.384ZM681.76 93V86.648H680.432V85.624H681.76V83.08H682.912V85.624H684.656V86.648H682.912V93H681.76ZM689.143 93.112C687.095 93.112 685.639 91.56 685.639 89.384C685.639 87.208 687.095 85.64 689.143 85.64C689.959 85.64 690.871 86.088 691.527 87.016V85.624H692.679V93H691.527V91.72C690.855 92.728 689.975 93.112 689.143 93.112ZM686.791 89.384C686.791 90.952 687.767 92.072 689.159 92.072C690.407 92.072 691.527 90.952 691.543 89.384C691.527 87.832 690.407 86.68 689.159 86.68C687.767 86.68 686.791 87.8 686.791 89.384ZM699.489 90.728C699.937 91.656 700.849 92.04 701.425 92.04C702.369 92.04 703.073 91.624 703.073 90.936C703.073 90.264 702.177 90.008 701.313 89.72C700.305 89.368 698.881 88.952 698.881 87.544C698.881 86.328 700.017 85.56 701.457 85.56C702.305 85.56 703.729 86.04 704.065 87.352L703.009 87.688C702.785 86.792 701.937 86.6 701.457 86.6C700.641 86.6 700.033 86.952 700.033 87.544C700.033 88.216 700.849 88.44 701.777 88.744C702.849 89.112 704.225 89.528 704.225 90.936C704.225 92.232 703.009 93.08 701.425 93.08C700.305 93.08 699.169 92.472 698.545 91.304L699.489 90.728ZM708.108 96.44H706.844L708.38 92.664L705.388 85.624H706.652L708.988 91.272L711.212 85.624H712.46L709.676 92.52L708.108 96.44ZM714.302 90.728C714.75 91.656 715.662 92.04 716.238 92.04C717.182 92.04 717.886 91.624 717.886 90.936C717.886 90.264 716.99 90.008 716.126 89.72C715.118 89.368 713.694 88.952 713.694 87.544C713.694 86.328 714.83 85.56 716.27 85.56C717.118 85.56 718.542 86.04 718.878 87.352L717.822 87.688C717.598 86.792 716.75 86.6 716.27 86.6C715.454 86.6 714.846 86.952 714.846 87.544C714.846 88.216 715.662 88.44 716.59 88.744C717.662 89.112 719.038 89.528 719.038 90.936C719.038 92.232 717.822 93.08 716.238 93.08C715.118 93.08 713.982 92.472 713.358 91.304L714.302 90.728ZM721.76 93V86.648H720.432V85.624H721.76V83.08H722.912V85.624H724.656V86.648H722.912V93H721.76ZM729.159 93.08C727.095 93.08 725.639 91.528 725.639 89.352C725.639 87.176 727.095 85.624 729.159 85.624C731.431 85.624 732.119 87.448 732.183 87.64C732.631 88.824 732.471 89.88 732.471 89.88H726.839C727.031 91.144 727.991 92.04 729.159 92.04C730.743 92.04 731.303 91.016 731.399 90.872L732.295 91.384C731.927 92.2 730.887 93.08 729.159 93.08ZM726.839 88.856L731.335 88.84C731.207 87.608 730.631 86.664 729.159 86.664C727.975 86.664 727.031 87.544 726.839 88.856ZM743.821 88.488C743.821 87.416 743.149 86.664 742.189 86.664C741.069 86.664 740.285 87.352 740.285 88.344V93H739.133V88.488C739.133 87.416 738.477 86.664 737.533 86.664C736.397 86.664 735.613 87.608 735.613 88.664V93H734.461V85.624H735.613V86.712C736.061 86.072 736.829 85.624 737.533 85.624C738.461 85.624 739.389 86.184 739.805 87C740.285 86.184 741.245 85.624 742.189 85.624C743.805 85.624 744.973 86.76 744.973 88.376V93H743.821V88.488ZM747.895 90.728C748.343 91.656 749.255 92.04 749.831 92.04C750.775 92.04 751.479 91.624 751.479 90.936C751.479 90.264 750.583 90.008 749.719 89.72C748.711 89.368 747.287 88.952 747.287 87.544C747.287 86.328 748.423 85.56 749.863 85.56C750.711 85.56 752.135 86.04 752.471 87.352L751.415 87.688C751.191 86.792 750.343 86.6 749.863 86.6C749.047 86.6 748.439 86.952 748.439 87.544C748.439 88.216 749.255 88.44 750.183 88.744C751.255 89.112 752.631 89.528 752.631 90.936C752.631 92.232 751.415 93.08 749.831 93.08C748.711 93.08 747.575 92.472 746.951 91.304L747.895 90.728ZM554.655 111.624H555.807V119H554.655V111.624ZM554.495 108.696C554.495 108.28 554.799 107.976 555.231 107.976C555.647 107.976 555.951 108.28 555.951 108.696C555.951 109.128 555.647 109.432 555.231 109.432C554.799 109.432 554.495 109.128 554.495 108.696ZM563.257 114.664C563.257 113.48 562.521 112.664 561.465 112.664C560.217 112.664 559.353 113.624 559.353 114.664V119H558.201V111.624H559.353V112.728C559.865 112.072 560.729 111.624 561.465 111.624C563.193 111.624 564.409 112.84 564.409 114.568V119H563.257V114.664ZM577.156 111.624L574.1 119H573.012L569.94 111.624H571.204L573.556 117.432L575.892 111.624H577.156ZM581.401 119.112C579.353 119.112 577.897 117.56 577.897 115.384C577.897 113.208 579.353 111.64 581.401 111.64C582.217 111.64 583.129 112.088 583.785 113.016V111.624H584.937V119H583.785V117.72C583.113 118.728 582.233 119.112 581.401 119.112ZM579.049 115.384C579.049 116.952 580.025 118.072 581.417 118.072C582.665 118.072 583.785 116.952 583.801 115.384C583.785 113.832 582.665 112.68 581.417 112.68C580.025 112.68 579.049 113.8 579.049 115.384ZM586.855 119V111.624H588.007V112.92C588.503 112.088 589.527 111.512 590.583 111.544V112.68C589.223 112.648 588.007 113.816 588.007 115.208V119H586.855ZM592.562 111.624H593.714V119H592.562V111.624ZM592.402 108.696C592.402 108.28 592.706 107.976 593.138 107.976C593.554 107.976 593.858 108.28 593.858 108.696C593.858 109.128 593.554 109.432 593.138 109.432C592.706 109.432 592.402 109.128 592.402 108.696ZM599.307 118.072C600.699 118.072 601.675 116.952 601.675 115.368C601.675 113.784 600.699 112.664 599.307 112.664C597.915 112.664 596.955 113.768 596.955 115.368C596.955 116.968 597.915 118.072 599.307 118.072ZM595.803 115.368C595.803 113.192 597.259 111.624 599.307 111.624C601.371 111.624 602.827 113.192 602.827 115.368C602.827 117.544 601.371 119.112 599.307 119.112C597.259 119.112 595.803 117.544 595.803 115.368ZM605.994 115.96C605.994 117.16 606.73 118.088 607.786 118.088C609.018 118.088 609.882 117.304 609.882 116.12V111.624H611.05V119H609.882V118.056C609.386 118.68 608.522 119.128 607.786 119.128C606.058 119.128 604.826 117.8 604.826 116.088V111.624H605.994V115.96ZM613.997 116.728C614.445 117.656 615.357 118.04 615.933 118.04C616.877 118.04 617.581 117.624 617.581 116.936C617.581 116.264 616.685 116.008 615.821 115.72C614.813 115.368 613.389 114.952 613.389 113.544C613.389 112.328 614.525 111.56 615.965 111.56C616.813 111.56 618.237 112.04 618.573 113.352L617.517 113.688C617.293 112.792 616.445 112.6 615.965 112.6C615.149 112.6 614.541 112.952 614.541 113.544C614.541 114.216 615.357 114.44 616.285 114.744C617.357 115.112 618.733 115.528 618.733 116.936C618.733 118.232 617.517 119.08 615.933 119.08C614.813 119.08 613.677 118.472 613.053 117.304L613.997 116.728ZM624.64 111.624H625.792V119H624.64V111.624ZM624.48 108.696C624.48 108.28 624.784 107.976 625.216 107.976C625.632 107.976 625.936 108.28 625.936 108.696C625.936 109.128 625.632 109.432 625.216 109.432C624.784 109.432 624.48 109.128 624.48 108.696ZM633.241 114.664C633.241 113.48 632.505 112.664 631.449 112.664C630.201 112.664 629.337 113.624 629.337 114.664V119H628.185V111.624H629.337V112.728C629.849 112.072 630.713 111.624 631.449 111.624C633.177 111.624 634.393 112.84 634.393 114.568V119H633.241V114.664ZM639.761 119.112C637.697 119.112 636.241 117.56 636.241 115.352C636.241 113.16 637.697 111.608 639.761 111.608C640.657 111.608 641.585 112.04 642.193 113V107.768H643.345V119H642.193V117.704C641.569 118.664 640.657 119.112 639.761 119.112ZM637.393 115.352C637.393 116.952 638.385 118.072 639.809 118.072C641.073 118.072 642.193 116.856 642.193 115.352C642.193 113.88 641.073 112.648 639.809 112.648C638.385 112.648 637.393 113.768 637.393 115.352ZM646.994 115.96C646.994 117.16 647.73 118.088 648.786 118.088C650.018 118.088 650.882 117.304 650.882 116.12V111.624H652.05V119H650.882V118.056C650.386 118.68 649.522 119.128 648.786 119.128C647.058 119.128 645.826 117.8 645.826 116.088V111.624H646.994V115.96ZM654.997 116.728C655.445 117.656 656.357 118.04 656.933 118.04C657.877 118.04 658.581 117.624 658.581 116.936C658.581 116.264 657.685 116.008 656.821 115.72C655.813 115.368 654.389 114.952 654.389 113.544C654.389 112.328 655.525 111.56 656.965 111.56C657.813 111.56 659.237 112.04 659.573 113.352L658.517 113.688C658.293 112.792 657.445 112.6 656.965 112.6C656.149 112.6 655.541 112.952 655.541 113.544C655.541 114.216 656.357 114.44 657.285 114.744C658.357 115.112 659.733 115.528 659.733 116.936C659.733 118.232 658.517 119.08 656.933 119.08C655.813 119.08 654.677 118.472 654.053 117.304L654.997 116.728ZM662.456 119V112.648H661.128V111.624H662.456V109.08H663.608V111.624H665.352V112.648H663.608V119H662.456ZM667.043 119V111.624H668.195V112.92C668.691 112.088 669.715 111.512 670.771 111.544V112.68C669.411 112.648 668.195 113.816 668.195 115.208V119H667.043ZM672.749 111.624H673.901V119H672.749V111.624ZM672.589 108.696C672.589 108.28 672.893 107.976 673.325 107.976C673.741 107.976 674.045 108.28 674.045 108.696C674.045 109.128 673.741 109.432 673.325 109.432C672.893 109.432 672.589 109.128 672.589 108.696ZM679.511 119.08C677.447 119.08 675.991 117.528 675.991 115.352C675.991 113.176 677.447 111.624 679.511 111.624C681.783 111.624 682.471 113.448 682.535 113.64C682.983 114.824 682.823 115.88 682.823 115.88H677.191C677.383 117.144 678.343 118.04 679.511 118.04C681.095 118.04 681.655 117.016 681.751 116.872L682.647 117.384C682.279 118.2 681.239 119.08 679.511 119.08ZM677.191 114.856L681.687 114.84C681.559 113.608 680.983 112.664 679.511 112.664C678.327 112.664 677.383 113.544 677.191 114.856ZM685.341 116.728C685.789 117.656 686.701 118.04 687.277 118.04C688.221 118.04 688.925 117.624 688.925 116.936C688.925 116.264 688.029 116.008 687.165 115.72C686.157 115.368 684.733 114.952 684.733 113.544C684.733 112.328 685.869 111.56 687.309 111.56C688.157 111.56 689.581 112.04 689.917 113.352L688.861 113.688C688.637 112.792 687.789 112.6 687.309 112.6C686.493 112.6 685.885 112.952 685.885 113.544C685.885 114.216 686.701 114.44 687.629 114.744C688.701 115.112 690.077 115.528 690.077 116.936C690.077 118.232 688.861 119.08 687.277 119.08C686.157 119.08 685.021 118.472 684.397 117.304L685.341 116.728ZM693.432 117.784L692.552 120.744H691.704L692.184 117.784H693.432ZM700.935 116.728C701.383 117.656 702.295 118.04 702.871 118.04C703.815 118.04 704.519 117.624 704.519 116.936C704.519 116.264 703.623 116.008 702.759 115.72C701.751 115.368 700.327 114.952 700.327 113.544C700.327 112.328 701.463 111.56 702.903 111.56C703.751 111.56 705.175 112.04 705.511 113.352L704.455 113.688C704.231 112.792 703.383 112.6 702.903 112.6C702.087 112.6 701.479 112.952 701.479 113.544C701.479 114.216 702.295 114.44 703.223 114.744C704.295 115.112 705.671 115.528 705.671 116.936C705.671 118.232 704.455 119.08 702.871 119.08C701.751 119.08 700.615 118.472 699.991 117.304L700.935 116.728ZM708.994 115.96C708.994 117.16 709.73 118.088 710.786 118.088C712.018 118.088 712.882 117.304 712.882 116.12V111.624H714.05V119H712.882V118.056C712.386 118.68 711.522 119.128 710.786 119.128C709.058 119.128 707.826 117.8 707.826 116.088V111.624H708.994V115.96ZM719.413 117.992C720.101 117.992 720.901 117.656 721.349 117.16L722.197 117.912C721.541 118.6 720.389 119.096 719.477 119.096C717.269 119.096 715.717 117.528 715.717 115.352C715.717 113.176 717.269 111.624 719.477 111.624C720.389 111.624 721.541 112.12 722.197 112.808L721.349 113.56C720.901 113.064 720.101 112.728 719.413 112.728C717.925 112.728 716.869 113.8 716.869 115.352C716.869 116.92 717.925 117.992 719.413 117.992ZM728.883 114.872C728.883 113.576 728.163 112.664 727.123 112.664C726.003 112.664 725.043 113.816 725.043 115.16V119H723.891V107.768H725.043V112.808C725.459 112.136 726.227 111.624 727.123 111.624C728.819 111.624 730.035 112.968 730.035 114.808V119H728.883V114.872ZM739.479 119.112C737.431 119.112 735.975 117.56 735.975 115.384C735.975 113.208 737.431 111.64 739.479 111.64C740.295 111.64 741.207 112.088 741.863 113.016V111.624H743.015V119H741.863V117.72C741.191 118.728 740.311 119.112 739.479 119.112ZM737.127 115.384C737.127 116.952 738.103 118.072 739.495 118.072C740.743 118.072 741.863 116.952 741.879 115.384C741.863 113.832 740.743 112.68 739.495 112.68C738.103 112.68 737.127 113.8 737.127 115.384ZM745.981 116.728C746.429 117.656 747.341 118.04 747.917 118.04C748.861 118.04 749.565 117.624 749.565 116.936C749.565 116.264 748.669 116.008 747.805 115.72C746.797 115.368 745.373 114.952 745.373 113.544C745.373 112.328 746.509 111.56 747.949 111.56C748.797 111.56 750.221 112.04 750.557 113.352L749.501 113.688C749.277 112.792 748.429 112.6 747.949 112.6C747.133 112.6 746.525 112.952 746.525 113.544C746.525 114.216 747.341 114.44 748.269 114.744C749.341 115.112 750.717 115.528 750.717 116.936C750.717 118.232 749.501 119.08 747.917 119.08C746.797 119.08 745.661 118.472 745.037 117.304L745.981 116.728ZM573.212 145.144H571.516V138.984H570.172V137.48H571.516V135.88C571.516 134.472 572.492 133.4 573.9 133.304C574.556 133.256 575.372 133.512 575.756 133.896L574.892 135.144C574.54 134.84 574.316 134.776 574.044 134.808C573.548 134.856 573.212 135.272 573.212 135.88V137.48H575.356V138.984H573.212V145.144ZM577.171 137.496H578.867V145.128H577.171V137.496ZM577.059 134.648C577.059 134.088 577.459 133.688 578.019 133.688C578.579 133.688 578.979 134.088 578.979 134.648C578.979 135.208 578.579 135.608 578.019 135.608C577.459 135.608 577.059 135.208 577.059 134.648ZM586.431 140.936C586.431 139.72 585.807 138.984 584.751 138.984C583.711 139 582.911 139.816 582.927 140.936V145.144H581.231V137.512H582.927V138.552C583.407 137.96 584.223 137.528 584.959 137.528C586.399 137.528 588.127 138.472 588.127 140.872V145.144H586.431V140.936ZM593.464 145.208C591.352 145.208 589.848 143.608 589.848 141.368C589.848 139.128 591.352 137.528 593.464 137.528C594.216 137.528 595.048 137.88 595.656 138.6V137.512H597.352V145.144H595.656V144.12C595.048 144.888 594.216 145.208 593.464 145.208ZM591.544 141.368C591.544 142.808 592.36 143.768 593.576 143.768C594.696 143.768 595.656 142.76 595.672 141.368C595.656 139.976 594.696 138.968 593.576 138.968C592.36 138.968 591.544 139.912 591.544 141.368ZM604.634 140.936C604.634 139.72 604.01 138.984 602.954 138.984C601.914 139 601.114 139.816 601.13 140.936V145.144H599.434V137.512H601.13V138.552C601.61 137.96 602.426 137.528 603.162 137.528C604.602 137.528 606.33 138.472 606.33 140.872V145.144H604.634V140.936ZM611.524 143.576C612.116 143.576 612.804 143.272 613.236 142.792L614.404 143.96C613.748 144.68 612.548 145.192 611.588 145.192C609.316 145.192 607.715 143.592 607.715 141.352C607.715 139.096 609.316 137.496 611.588 137.496C612.596 137.496 613.716 138.008 614.404 138.744L613.236 139.896C612.804 139.416 612.116 139.112 611.524 139.112C610.26 139.112 609.412 139.992 609.412 141.352C609.412 142.696 610.26 143.576 611.524 143.576ZM619.091 145.176C616.931 145.176 615.411 143.592 615.411 141.352C615.411 139.096 616.931 137.512 619.091 137.512C621.459 137.512 622.211 139.448 622.259 139.576C622.723 140.664 622.579 141.88 622.579 142.008H617.075C617.267 143.032 618.131 143.736 619.091 143.736C620.355 143.736 620.867 143 620.995 142.776L622.355 143.384C621.987 144.248 620.915 145.176 619.091 145.176ZM617.075 140.664H620.979C620.819 139.72 620.275 138.952 619.091 138.952C618.067 138.952 617.267 139.672 617.075 140.664ZM626.443 143.528L625.355 147.208H624.091L624.699 143.528H626.443ZM637.01 143.752C638.242 143.752 639.042 142.792 639.042 141.336C639.042 139.88 638.242 138.92 637.01 138.92C635.858 138.92 634.914 139.992 634.914 141.336C634.914 142.68 635.858 143.752 637.01 143.752ZM633.202 148.52V137.496H634.898V138.616C635.506 137.816 636.514 137.496 637.106 137.496C639.234 137.496 640.738 139.08 640.738 141.336C640.738 143.608 639.234 145.192 637.106 145.192C636.498 145.192 635.506 144.856 634.898 144.056V148.52H633.202ZM644.318 141.864C644.318 143.032 645.006 143.752 646.014 143.752C647.086 143.752 647.822 143.048 647.806 141.88V137.512H649.517V145.144H647.806V144.264C647.326 144.856 646.542 145.208 645.79 145.208C643.95 145.208 642.622 143.88 642.622 141.928V137.512H644.318V141.864ZM655.619 145.224C655.075 145.224 654.115 144.984 653.411 144.088V145.16H651.715V133.704H653.411V138.648C654.115 137.72 655.075 137.512 655.635 137.512C657.747 137.512 659.267 139.112 659.267 141.368C659.267 143.624 657.747 145.224 655.619 145.224ZM653.411 141.384C653.411 142.744 654.355 143.8 655.523 143.8C656.755 143.8 657.571 142.84 657.571 141.384C657.571 139.928 656.755 138.984 655.523 138.984C654.355 138.984 653.411 140.056 653.411 141.384ZM660.868 133.704H662.564V145.128H660.868V133.704ZM664.905 137.496H666.601V145.128H664.905V137.496ZM664.793 134.648C664.793 134.088 665.193 133.688 665.753 133.688C666.313 133.688 666.713 134.088 666.713 134.648C666.713 135.208 666.313 135.608 665.753 135.608C665.193 135.608 664.793 135.208 664.793 134.648ZM672.133 143.576C672.725 143.576 673.413 143.272 673.845 142.792L675.013 143.96C674.357 144.68 673.157 145.192 672.197 145.192C669.925 145.192 668.325 143.592 668.325 141.352C668.325 139.096 669.925 137.496 672.197 137.496C673.205 137.496 674.325 138.008 675.013 138.744L673.845 139.896C673.413 139.416 672.725 139.112 672.133 139.112C670.869 139.112 670.021 139.992 670.021 141.352C670.021 142.696 670.869 143.576 672.133 143.576ZM681.224 142.52C681.56 143.352 682.392 143.736 682.904 143.736C683.704 143.736 684.216 143.432 684.216 142.904C684.216 142.424 683.512 142.2 682.728 141.928C681.688 141.56 680.216 141.064 680.216 139.592C680.216 138.248 681.448 137.432 683.016 137.432C683.96 137.432 685.368 137.976 685.752 139.352L684.328 139.864C684.072 139.016 683.384 138.888 683.016 138.888C682.344 138.888 681.912 139.16 681.912 139.592C681.912 140.072 682.568 140.264 683.384 140.552C684.472 140.936 685.912 141.432 685.912 142.888C685.912 144.28 684.68 145.192 682.904 145.192C681.736 145.192 680.456 144.456 679.896 143.288L681.224 142.52ZM691.216 145.176C689.056 145.176 687.536 143.592 687.536 141.352C687.536 139.096 689.056 137.512 691.216 137.512C693.584 137.512 694.336 139.448 694.384 139.576C694.848 140.664 694.704 141.88 694.704 142.008H689.2C689.392 143.032 690.256 143.736 691.216 143.736C692.48 143.736 692.992 143 693.12 142.776L694.48 143.384C694.112 144.248 693.04 145.176 691.216 145.176ZM689.2 140.664H693.104C692.944 139.72 692.4 138.952 691.216 138.952C690.192 138.952 689.392 139.672 689.2 140.664ZM699.742 143.576C700.334 143.576 701.022 143.272 701.454 142.792L702.622 143.96C701.966 144.68 700.766 145.192 699.806 145.192C697.534 145.192 695.934 143.592 695.934 141.352C695.934 139.096 697.534 137.496 699.806 137.496C700.814 137.496 701.934 138.008 702.622 138.744L701.454 139.896C701.022 139.416 700.334 139.112 699.742 139.112C698.478 139.112 697.63 139.992 697.63 141.352C697.63 142.696 698.478 143.576 699.742 143.576ZM705.05 145.144V138.968H703.61V137.496H705.05V134.824H706.746V137.496H708.554V138.968H706.746V145.144H705.05ZM713.435 143.752C714.619 143.752 715.419 142.808 715.419 141.352C715.419 139.912 714.619 138.952 713.435 138.952C712.251 138.952 711.451 139.896 711.451 141.352C711.451 142.808 712.235 143.752 713.435 143.752ZM709.755 141.352C709.755 139.096 711.275 137.496 713.435 137.496C715.595 137.496 717.115 139.096 717.115 141.352C717.115 143.592 715.595 145.208 713.435 145.208C711.275 145.208 709.755 143.592 709.755 141.352ZM718.76 145.144V137.512H720.456V138.632C720.968 137.912 721.896 137.432 722.792 137.48V139.048C721.432 138.984 720.456 140.184 720.456 141.352V145.144H718.76ZM725.177 142.52C725.513 143.352 726.345 143.736 726.857 143.736C727.657 143.736 728.169 143.432 728.169 142.904C728.169 142.424 727.465 142.2 726.681 141.928C725.641 141.56 724.169 141.064 724.169 139.592C724.169 138.248 725.401 137.432 726.969 137.432C727.913 137.432 729.321 137.976 729.705 139.352L728.281 139.864C728.025 139.016 727.337 138.888 726.969 138.888C726.297 138.888 725.865 139.16 725.865 139.592C725.865 140.072 726.521 140.264 727.337 140.552C728.425 140.936 729.865 141.432 729.865 142.888C729.865 144.28 728.633 145.192 726.857 145.192C725.689 145.192 724.409 144.456 723.849 143.288L725.177 142.52ZM733.693 143.528L732.605 147.208H731.341L731.949 143.528H733.693ZM591.747 166.808C591.747 165.72 591.155 165 590.291 165C589.315 165 588.659 165.752 588.659 166.728V171.144H586.947V166.808C586.947 165.72 586.371 165 585.523 165C584.547 165 583.859 165.832 583.859 166.904V171.144H582.163V163.512H583.859V164.552C584.307 163.944 584.963 163.528 585.683 163.528C586.595 163.528 587.491 164.104 587.939 164.904C588.467 164.104 589.491 163.528 590.403 163.528C592.211 163.528 593.459 164.872 593.459 166.744V171.144H591.747V166.808ZM598.941 171.208C596.829 171.208 595.325 169.608 595.325 167.368C595.325 165.128 596.829 163.528 598.941 163.528C599.693 163.528 600.525 163.88 601.133 164.6V163.512H602.829V171.144H601.133V170.12C600.525 170.888 599.693 171.208 598.941 171.208ZM597.021 167.368C597.021 168.808 597.837 169.768 599.053 169.768C600.173 169.768 601.133 168.76 601.149 167.368C601.133 165.976 600.173 164.968 599.053 164.968C597.837 164.968 597.021 165.912 597.021 167.368ZM610.11 166.936C610.11 165.72 609.486 164.984 608.43 164.984C607.39 165 606.59 165.816 606.606 166.936V171.144H604.91V163.512H606.606V164.552C607.086 163.96 607.902 163.528 608.638 163.528C610.078 163.528 611.806 164.472 611.806 166.872V171.144H610.11V166.936ZM615.388 167.864C615.388 169.032 616.076 169.752 617.084 169.752C618.156 169.752 618.892 169.048 618.876 167.88V163.512H620.588V171.144H618.876V170.264C618.396 170.856 617.612 171.208 616.86 171.208C615.02 171.208 613.692 169.88 613.692 167.928V163.512H615.388V167.864ZM625.157 171.144H623.461V164.984H622.117V163.48H623.461V161.88C623.461 160.472 624.437 159.4 625.845 159.304C626.501 159.256 627.317 159.512 627.701 159.896L626.837 161.144C626.485 160.84 626.261 160.776 625.989 160.808C625.493 160.856 625.157 161.272 625.157 161.88V163.48H627.301V164.984H625.157V171.144ZM631.894 171.208C629.782 171.208 628.278 169.608 628.278 167.368C628.278 165.128 629.782 163.528 631.894 163.528C632.646 163.528 633.478 163.88 634.086 164.6V163.512H635.782V171.144H634.086V170.12C633.478 170.888 632.646 171.208 631.894 171.208ZM629.974 167.368C629.974 168.808 630.79 169.768 632.006 169.768C633.126 169.768 634.086 168.76 634.102 167.368C634.086 165.976 633.126 164.968 632.006 164.968C630.79 164.968 629.974 165.912 629.974 167.368ZM641.141 169.576C641.733 169.576 642.421 169.272 642.853 168.792L644.021 169.96C643.365 170.68 642.165 171.192 641.205 171.192C638.933 171.192 637.333 169.592 637.333 167.352C637.333 165.096 638.933 163.496 641.205 163.496C642.213 163.496 643.333 164.008 644.021 164.744L642.853 165.896C642.421 165.416 641.733 165.112 641.141 165.112C639.877 165.112 639.029 165.992 639.029 167.352C639.029 168.696 639.877 169.576 641.141 169.576ZM646.448 171.144V164.968H645.008V163.496H646.448V160.824H648.144V163.496H649.952V164.968H648.144V171.144H646.448ZM653.263 167.864C653.263 169.032 653.951 169.752 654.959 169.752C656.031 169.752 656.767 169.048 656.751 167.88V163.512H658.463V171.144H656.751V170.264C656.271 170.856 655.487 171.208 654.735 171.208C652.895 171.208 651.567 169.88 651.567 167.928V163.512H653.263V167.864ZM660.565 171.144V163.512H662.261V164.632C662.773 163.912 663.701 163.432 664.597 163.48V165.048C663.237 164.984 662.261 166.184 662.261 167.352V171.144H660.565ZM666.538 163.496H668.234V171.128H666.538V163.496ZM666.426 160.648C666.426 160.088 666.826 159.688 667.386 159.688C667.946 159.688 668.346 160.088 668.346 160.648C668.346 161.208 667.946 161.608 667.386 161.608C666.826 161.608 666.426 161.208 666.426 160.648ZM675.798 166.936C675.798 165.72 675.174 164.984 674.118 164.984C673.078 165 672.278 165.816 672.294 166.936V171.144H670.598V163.512H672.294V164.552C672.774 163.96 673.59 163.528 674.326 163.528C675.766 163.528 677.494 164.472 677.494 166.872V171.144H675.798V166.936ZM682.928 169.736C684.144 169.736 685.024 168.664 685.024 167.336C685.024 166.04 684.144 164.952 682.928 164.952C681.728 164.952 680.912 165.896 680.912 167.336C680.912 168.792 681.728 169.736 682.928 169.736ZM679.216 167.352C679.216 165.112 680.72 163.496 682.832 163.496C683.616 163.496 684.496 163.896 685.024 164.616V163.496H686.72V170.568C686.72 172.744 685.248 174.536 682.912 174.536C681.632 174.536 680.4 174.008 679.648 172.76L680.992 171.864C681.552 172.68 682.096 173.032 682.912 173.032C684.272 173.032 685.024 171.96 685.024 170.712V170.04C684.432 170.792 683.552 171.192 682.832 171.192C680.72 171.192 679.216 169.592 679.216 167.352ZM690.81 169.528L689.722 173.208H688.458L689.066 169.528H690.81ZM700.785 171.208C698.673 171.208 697.169 169.608 697.169 167.368C697.169 165.128 698.673 163.528 700.785 163.528C701.537 163.528 702.369 163.88 702.977 164.6V163.512H704.673V171.144H702.977V170.12C702.369 170.888 701.537 171.208 700.785 171.208ZM698.865 167.368C698.865 168.808 699.681 169.768 700.897 169.768C702.017 169.768 702.977 168.76 702.993 167.368C702.977 165.976 702.017 164.968 700.897 164.968C699.681 164.968 698.865 165.912 698.865 167.368ZM711.954 166.936C711.954 165.72 711.33 164.984 710.274 164.984C709.234 165 708.434 165.816 708.45 166.936V171.144H706.754V163.512H708.45V164.552C708.93 163.96 709.746 163.528 710.482 163.528C711.922 163.528 713.65 164.472 713.65 166.872V171.144H711.954V166.936ZM719.004 171.208C716.892 171.208 715.372 169.608 715.372 167.352C715.372 165.096 716.892 163.496 719.004 163.496C719.628 163.496 720.572 163.768 721.228 164.632V159.704H722.924V171.144H721.228V170.072C720.556 170.888 719.628 171.208 719.004 171.208ZM717.068 167.368C717.068 168.824 717.884 169.784 719.116 169.784C720.268 169.784 721.228 168.728 721.228 167.368C721.228 166.024 720.268 164.952 719.116 164.952C717.884 164.952 717.068 165.912 717.068 167.368ZM615.035 197.208C612.923 197.208 611.403 195.608 611.403 193.352C611.403 191.096 612.923 189.496 615.035 189.496C615.659 189.496 616.603 189.768 617.259 190.632V185.704H618.955V197.144H617.259V196.072C616.587 196.888 615.659 197.208 615.035 197.208ZM613.099 193.368C613.099 194.824 613.915 195.784 615.147 195.784C616.299 195.784 617.259 194.728 617.259 193.368C617.259 192.024 616.299 190.952 615.147 190.952C613.915 190.952 613.099 191.912 613.099 193.368ZM621.444 189.496H623.14V197.128H621.444V189.496ZM621.332 186.648C621.332 186.088 621.732 185.688 622.292 185.688C622.852 185.688 623.252 186.088 623.252 186.648C623.252 187.208 622.852 187.608 622.292 187.608C621.732 187.608 621.332 187.208 621.332 186.648ZM626.56 194.52C626.896 195.352 627.728 195.736 628.24 195.736C629.04 195.736 629.552 195.432 629.552 194.904C629.552 194.424 628.848 194.2 628.064 193.928C627.024 193.56 625.552 193.064 625.552 191.592C625.552 190.248 626.784 189.432 628.352 189.432C629.296 189.432 630.704 189.976 631.088 191.352L629.664 191.864C629.408 191.016 628.72 190.888 628.352 190.888C627.68 190.888 627.248 191.16 627.248 191.592C627.248 192.072 627.904 192.264 628.72 192.552C629.808 192.936 631.248 193.432 631.248 194.888C631.248 196.28 630.016 197.192 628.24 197.192C627.072 197.192 625.792 196.456 625.232 195.288L626.56 194.52ZM633.901 197.144V190.968H632.461V189.496H633.901V186.824H635.597V189.496H637.405V190.968H635.597V197.144H633.901ZM638.924 197.144V189.512H640.62V190.632C641.132 189.912 642.06 189.432 642.956 189.48V191.048C641.596 190.984 640.62 192.184 640.62 193.352V197.144H638.924ZM644.898 189.496H646.594V197.128H644.898V189.496ZM644.786 186.648C644.786 186.088 645.186 185.688 645.746 185.688C646.306 185.688 646.706 186.088 646.706 186.648C646.706 187.208 646.306 187.608 645.746 187.608C645.186 187.608 644.786 187.208 644.786 186.648ZM652.877 197.224C652.333 197.224 651.373 196.984 650.669 196.088V197.16H648.973V185.704H650.669V190.648C651.373 189.72 652.333 189.512 652.893 189.512C655.005 189.512 656.525 191.112 656.525 193.368C656.525 195.624 655.005 197.224 652.877 197.224ZM650.669 193.384C650.669 194.744 651.613 195.8 652.781 195.8C654.013 195.8 654.829 194.84 654.829 193.384C654.829 191.928 654.013 190.984 652.781 190.984C651.613 190.984 650.669 192.056 650.669 193.384ZM660.122 193.864C660.122 195.032 660.81 195.752 661.818 195.752C662.89 195.752 663.626 195.048 663.61 193.88V189.512H665.322V197.144H663.61V196.264C663.13 196.856 662.346 197.208 661.594 197.208C659.754 197.208 658.426 195.88 658.426 193.928V189.512H660.122V193.864ZM668.464 197.144V190.968H667.024V189.496H668.464V186.824H670.16V189.496H671.968V190.968H670.16V197.144H668.464ZM673.71 189.496H675.406V197.128H673.71V189.496ZM673.598 186.648C673.598 186.088 673.998 185.688 674.558 185.688C675.118 185.688 675.518 186.088 675.518 186.648C675.518 187.208 675.118 187.608 674.558 187.608C673.998 187.608 673.598 187.208 673.598 186.648ZM681.146 195.752C682.33 195.752 683.13 194.808 683.13 193.352C683.13 191.912 682.33 190.952 681.146 190.952C679.962 190.952 679.162 191.896 679.162 193.352C679.162 194.808 679.946 195.752 681.146 195.752ZM677.466 193.352C677.466 191.096 678.986 189.496 681.146 189.496C683.306 189.496 684.826 191.096 684.826 193.352C684.826 195.592 683.306 197.208 681.146 197.208C678.986 197.208 677.466 195.592 677.466 193.352ZM691.751 192.936C691.751 191.72 691.127 190.984 690.071 190.984C689.031 191 688.231 191.816 688.247 192.936V197.144H686.551V189.512H688.247V190.552C688.727 189.96 689.543 189.528 690.279 189.528C691.719 189.528 693.447 190.472 693.447 192.872V197.144H691.751V192.936Z" fill="#6D0CA6"/>
</svg>
