<svg width="793" height="224" viewBox="0 0 793 224" fill="none" xmlns="http://www.w3.org/2000/svg">
<circle opacity="0.4" cx="112" cy="112" r="111.5" fill="white" stroke="#9735D0"/>
<path d="M56.231 80.112C57.911 80.112 59.175 81.264 59.431 82.976H60.551V79.296H62.199V89.248H60.551V84.416H59.415C59.127 86.08 57.879 87.184 56.231 87.184C54.359 87.184 52.983 85.728 52.983 83.648C52.983 81.568 54.359 80.112 56.231 80.112ZM54.567 83.648C54.567 84.896 55.271 85.696 56.231 85.696C57.191 85.696 57.911 84.896 57.911 83.648C57.911 82.4 57.191 81.616 56.231 81.616C55.271 81.616 54.567 82.4 54.567 83.648ZM55.527 93.008V88.304H57.287V91.6H65.383V93.008H55.527ZM63.319 89.648V79.056H64.983V89.648H63.319ZM68.3754 80.304H78.4074V81.6C78.4074 83.312 78.4074 85.312 77.7834 88.336L76.0394 88.144C76.2954 87.008 76.4394 85.984 76.5354 85.088L68.1994 85.536L67.9754 84.032L76.6314 83.744C76.6634 83.008 76.6634 82.336 76.6634 81.728H68.3754V80.304ZM66.9034 91.52V90.096H71.6394V86.592H73.3834V90.096H79.7674V91.52H66.9034ZM84.6958 80.064C86.8238 80.064 88.3598 82.016 88.3598 85.104C88.3598 88.208 86.8238 90.16 84.6958 90.16C82.5518 90.16 81.0158 88.208 81.0158 85.104C81.0158 82.016 82.5518 80.064 84.6958 80.064ZM82.6957 85.104C82.6957 87.296 83.5118 88.576 84.6958 88.576C85.8798 88.576 86.6798 87.296 86.6798 85.104C86.6798 82.928 85.8798 81.664 84.6958 81.664C83.5118 81.664 82.6957 82.928 82.6957 85.104ZM90.1998 93.296V79.056H91.9758V84.544H94.1358V86H91.9758V93.296H90.1998ZM99.4481 80.016C101.672 80.016 103.32 81.456 103.32 83.472C103.32 85.504 101.672 86.928 99.4481 86.928C97.2081 86.928 95.5601 85.504 95.5601 83.472C95.5601 81.456 97.2081 80.016 99.4481 80.016ZM94.9201 88.896C97.4481 88.896 101 88.88 104.024 88.416L104.152 89.696C101.032 90.304 97.6241 90.336 95.1281 90.336L94.9201 88.896ZM97.2721 83.472C97.2721 84.656 98.2001 85.424 99.4481 85.424C100.68 85.424 101.608 84.656 101.608 83.472C101.608 82.272 100.68 81.536 99.4481 81.536C98.2001 81.536 97.2721 82.272 97.2721 83.472ZM104.872 93.312V79.024H106.616V93.312H104.872ZM112.544 86.032H118.096V84.608H114.144V79.632H123.856V81.024H115.872V83.2H123.984V84.608H119.856V86.032H125.424V87.424H112.544V86.032ZM113.968 89.952V88.56H123.888V93.36H122.128V89.952H113.968ZM126.528 90.128H132.08V87.344H127.952V79.984H129.696V82.304H136.224V79.984H137.968V87.344H133.824V90.128H139.424V91.568H126.528V90.128ZM129.696 85.936H136.224V83.696H129.696V85.936ZM148.193 82.56H150.561V79.056H152.321V87.536H150.561V84H148.193V82.56ZM140.465 86C142.721 85.232 143.905 83.36 143.905 81.472V81.312H140.961V79.904H148.609V81.312H145.681V81.472C145.681 83.216 146.817 84.96 149.009 85.712L148.129 87.088C146.561 86.544 145.457 85.456 144.833 84.112C144.225 85.6 143.041 86.8 141.361 87.376L140.465 86ZM142.705 89.648V88.224H152.321V93.296H150.561V89.648H142.705ZM164.497 79.056H166.257V89.344H164.497V79.056ZM154.737 83.568C154.737 81.472 156.401 79.984 158.545 79.984C160.705 79.984 162.353 81.472 162.353 83.568C162.353 85.632 160.705 87.136 158.545 87.136C156.401 87.136 154.737 85.632 154.737 83.568ZM156.449 83.568C156.449 84.8 157.361 85.6 158.545 85.6C159.729 85.6 160.641 84.8 160.641 83.568C160.641 82.304 159.729 81.504 158.545 81.504C157.361 81.504 156.449 82.304 156.449 83.568ZM156.913 93.008V88.32H158.657V91.6H166.641V93.008H156.913ZM44.2822 105.04H45.9622V119.28H44.2822V105.04ZM34.2342 116.032V106.704H39.6422V108.112H35.9622V114.576C37.6262 114.56 38.8262 114.464 40.1862 114.192L40.3462 115.632C38.7462 115.968 37.3382 116.032 35.1942 116.032H34.2342ZM38.6662 111.76V110.336H41.3702V105.328H43.0182V118.624H41.3702V111.76H38.6662ZM57.7386 105.024H59.5146V119.312H57.7386V105.024ZM48.2026 111.104C48.2026 108.016 49.7546 106.064 51.8986 106.064C54.0426 106.064 55.5946 108.016 55.5946 111.104C55.5946 114.208 54.0426 116.16 51.8986 116.16C49.7546 116.16 48.2026 114.208 48.2026 111.104ZM49.8986 111.104C49.8986 113.296 50.7146 114.576 51.8986 114.576C53.0826 114.576 53.8986 113.296 53.8986 111.104C53.8986 108.928 53.0826 107.664 51.8986 107.664C50.7146 107.664 49.8986 108.928 49.8986 111.104ZM71.8669 105.024H73.6109V119.312H71.8669V111.616H69.2109V110.208H71.8669V105.024ZM62.3949 116.016V106.272H68.9709V107.712H64.1389V110.24H68.4429V111.632H64.1389V114.592C66.2989 114.576 67.8989 114.512 69.7229 114.208L69.8989 115.616C67.8349 115.952 66.0429 116.016 63.5149 116.016H62.3949ZM83.0673 109.44H85.8033V105.04H87.5633V115.584H85.8033V110.864H83.0673V109.44ZM75.9953 112.912C78.1553 112.224 79.5313 111.296 80.3473 110.176L76.2353 110.496L75.9953 109.104L81.0033 108.912C81.1473 108.48 81.2433 108.032 81.2913 107.568H76.6993V106.16H83.1313C83.1313 110.048 81.3873 112.736 76.6833 114.288L75.9953 112.912ZM78.3953 119.008V114.544H80.1713V117.6H87.9633V119.008H78.3953ZM97.0037 107.328H99.7877V105.056H101.548V112.32H99.7877V108.736H97.0037V107.328ZM89.6437 111.024C91.9157 110.304 93.0837 108.544 93.0837 106.64V105.504H94.8437V106.64C94.8437 108.384 95.9797 110.064 98.1397 110.752L97.2437 112.112C95.7077 111.6 94.6037 110.576 93.9957 109.28C93.3717 110.72 92.2197 111.856 90.5557 112.4L89.6437 111.024ZM92.2357 114.336V112.976H101.548V116.64H93.9957V117.744H101.996V119.12H92.2517V115.36H99.8037V114.336H92.2357ZM104.492 106.064H111.308V107.456H106.236V108.8H110.908V110.176H106.236V111.584C108.876 111.584 110.508 111.52 112.364 111.216L112.524 112.592C110.508 112.928 108.732 112.976 105.692 112.976H104.492V106.064ZM105.852 116.608C105.852 114.944 107.708 113.952 110.7 113.952C113.692 113.952 115.532 114.944 115.532 116.608C115.532 118.32 113.692 119.28 110.7 119.28C107.708 119.28 105.852 118.32 105.852 116.608ZM107.628 116.608C107.628 117.472 108.716 117.936 110.7 117.936C112.668 117.936 113.788 117.472 113.788 116.608C113.788 115.76 112.668 115.296 110.7 115.296C108.716 115.296 107.628 115.76 107.628 116.608ZM113.708 113.744V105.056H115.468V113.744H113.708ZM121.38 116.112H134.276V117.568H121.38V116.112ZM122.42 107.76V106.336H133.156V107.76H131.124V112.288H133.124V113.696H122.484V112.288H124.468V107.76H122.42ZM126.228 112.288H129.38V107.76H126.228V112.288ZM135.764 106.512H140.804V111.76H137.476V114.448C138.932 114.432 140.292 114.352 141.876 114.08L142.02 115.504C140.132 115.84 138.548 115.888 136.756 115.888H135.78V110.384H139.124V107.92H135.764V106.512ZM141.428 111.44V110H142.964V105.344H144.596V118.576H142.964V111.44H141.428ZM145.844 119.28V105.04H147.524V119.28H145.844ZM159.333 105.056H161.093V113.136H159.333V105.056ZM149.589 109.12C149.589 107.136 151.205 105.744 153.397 105.744C155.589 105.744 157.205 107.136 157.205 109.12C157.205 111.104 155.589 112.496 153.397 112.496C151.205 112.496 149.589 111.104 149.589 109.12ZM151.301 109.12C151.301 110.304 152.197 111.04 153.397 111.04C154.597 111.04 155.493 110.304 155.493 109.12C155.493 107.952 154.597 107.2 153.397 107.2C152.197 107.2 151.301 107.952 151.301 109.12ZM151.733 119.12V113.824H161.093V119.12H151.733ZM153.461 117.728H159.381V115.216H153.461V117.728ZM173.477 105.04H175.237V119.296H173.477V116.032H170.485V114.672H173.477V105.04ZM163.269 112.384C165.925 112.384 169.445 112.368 172.501 111.952L172.613 113.216C171.317 113.44 169.973 113.584 168.677 113.68V118.864H166.917V113.776C165.685 113.824 164.533 113.824 163.477 113.824L163.269 112.384ZM164.261 108.56C164.261 106.848 165.765 105.696 167.877 105.696C169.989 105.696 171.477 106.848 171.477 108.56C171.477 110.288 169.989 111.424 167.877 111.424C165.765 111.424 164.261 110.288 164.261 108.56ZM165.925 108.56C165.925 109.52 166.725 110.096 167.877 110.096C169.029 110.096 169.813 109.52 169.813 108.56C169.813 107.616 169.029 107.008 167.877 107.008C166.725 107.008 165.925 107.616 165.925 108.56ZM178.789 106.368H188.789V108.048C188.789 110.128 188.789 112.096 188.149 115.12L186.405 114.96C186.693 113.712 186.853 112.608 186.933 111.6L178.629 112.032L178.405 110.608L187.013 110.304C187.045 109.52 187.045 108.784 187.045 108.048V107.792H178.789V106.368ZM177.317 117.488V116.032H190.197V117.488H177.317ZM76.1328 138.224C76.1328 136.144 76.9488 133.408 78.1008 131.584H79.8928C78.5807 133.392 77.6688 136.128 77.6688 138.224C77.6688 140.32 78.5807 143.056 79.8928 144.864H78.1008C76.9488 143.04 76.1328 140.304 76.1328 138.224ZM89.6735 132.32V133.808H83.7375V137.312H88.8415V138.784H83.7375V142.64H89.6735V144.128H82.0415V132.32H89.6735ZM95.4689 142.64C97.9969 142.64 99.6929 140.864 99.6929 138.224C99.6929 135.584 97.9969 133.808 95.4689 133.808L93.7889 133.824V142.624L95.4689 142.64ZM92.0929 144.128V132.32H95.4849C98.9409 132.32 101.373 134.752 101.373 138.224C101.373 141.696 98.9409 144.128 95.4849 144.128H92.0929ZM110.767 132.32V133.808H104.991V137.472H109.887V138.944H104.991V144.128H103.295V132.32H110.767ZM116.19 138.224C116.19 140.304 115.39 143.024 114.238 144.864H112.446C113.742 143.072 114.654 140.32 114.654 138.224C114.654 136.128 113.742 133.376 112.446 131.584H114.238C115.39 133.424 116.19 136.144 116.19 138.224ZM129.786 134.56H132.155V131.056H133.915V139.536H132.155V136H129.786V134.56ZM122.059 138C124.315 137.232 125.499 135.36 125.499 133.472V133.312H122.555V131.904H130.203V133.312H127.275V133.472C127.275 135.216 128.411 136.96 130.602 137.712L129.723 139.088C128.155 138.544 127.051 137.456 126.427 136.112C125.819 137.6 124.635 138.8 122.955 139.376L122.059 138ZM124.299 141.648V140.224H133.915V145.296H132.155V141.648H124.299ZM136.091 137.92H139.083V136.096C138.027 135.632 137.419 134.912 137.419 133.984C137.419 132.288 139.403 131.28 142.523 131.28C145.643 131.28 147.627 132.288 147.627 133.984C147.627 134.912 147.019 135.648 145.931 136.112V137.92H148.955V139.296H136.091V137.92ZM137.579 142.72C137.579 141.088 139.435 140.16 142.507 140.16C145.563 140.16 147.419 141.088 147.419 142.72C147.419 144.368 145.563 145.296 142.507 145.296C139.435 145.296 137.579 144.368 137.579 142.72ZM139.227 133.984C139.227 134.864 140.443 135.344 142.523 135.344C144.587 135.344 145.803 134.864 145.803 133.984C145.803 133.104 144.587 132.624 142.523 132.624C140.443 132.624 139.227 133.104 139.227 133.984ZM139.355 142.72C139.355 143.536 140.459 143.952 142.507 143.952C144.539 143.952 145.643 143.536 145.643 142.72C145.643 141.92 144.539 141.504 142.507 141.504C140.459 141.504 139.355 141.92 139.355 142.72ZM140.827 137.92H144.187V136.56C143.675 136.64 143.115 136.672 142.523 136.672C141.915 136.672 141.339 136.64 140.827 136.56V137.92Z" fill="#6D0CA6"/>
<circle opacity="0.4" cx="316" cy="112" r="111.5" fill="white" stroke="#9735D0"/>
<path d="M276.551 93.32L280.935 105.128H279.127L277.943 101.912H273.095L271.863 105.128H270.055L274.519 93.32H276.551ZM273.639 100.44H277.383L275.543 95.464L273.639 100.44ZM284.585 93.32V103.64H289.929V105.128H282.889V93.32H284.585ZM293.71 93.32V103.64H299.054V105.128H292.014V93.32H293.71ZM301.056 98.264H308.032V99.96H301.056V98.264ZM310.374 97.496H312.07V105.128H310.374V97.496ZM310.262 94.648C310.262 94.088 310.662 93.688 311.222 93.688C311.782 93.688 312.182 94.088 312.182 94.648C312.182 95.208 311.782 95.608 311.222 95.608C310.662 95.608 310.262 95.208 310.262 94.648ZM319.634 100.936C319.634 99.72 319.01 98.984 317.954 98.984C316.914 99 316.114 99.816 316.13 100.936V105.144H314.434V97.512H316.13V98.552C316.61 97.96 317.426 97.528 318.162 97.528C319.602 97.528 321.33 98.472 321.33 100.872V105.144H319.634V100.936ZM323.384 98.264H330.36V99.96H323.384V98.264ZM338.462 103.768C340.958 103.768 342.638 101.944 342.638 99.224C342.638 96.504 340.958 94.68 338.462 94.68C335.966 94.68 334.302 96.504 334.302 99.224C334.302 101.944 335.966 103.768 338.462 103.768ZM332.59 99.224C332.59 95.688 335.022 93.192 338.462 93.192C341.918 93.192 344.35 95.688 344.35 99.224C344.35 102.76 341.918 105.256 338.462 105.256C335.022 105.256 332.59 102.76 332.59 99.224ZM351.415 100.936C351.415 99.72 350.791 98.984 349.735 98.984C348.695 99 347.895 99.816 347.911 100.936V105.144H346.215V97.512H347.911V98.552C348.391 97.96 349.207 97.528 349.943 97.528C351.383 97.528 353.111 98.472 353.111 100.872V105.144H351.415V100.936ZM358.513 105.176C356.353 105.176 354.833 103.592 354.833 101.352C354.833 99.096 356.353 97.512 358.513 97.512C360.881 97.512 361.633 99.448 361.681 99.576C362.145 100.664 362.001 101.88 362.001 102.008H356.497C356.689 103.032 357.553 103.736 358.513 103.736C359.777 103.736 360.289 103 360.417 102.776L361.777 103.384C361.409 104.248 360.337 105.176 358.513 105.176ZM356.497 100.664H360.401C360.241 99.72 359.697 98.952 358.513 98.952C357.489 98.952 356.689 99.672 356.497 100.664ZM269.422 129.64C271.95 129.64 273.646 127.864 273.646 125.224C273.646 122.584 271.95 120.808 269.422 120.808L267.742 120.824V129.624L269.422 129.64ZM266.046 131.128V119.32H269.438C272.894 119.32 275.326 121.752 275.326 125.224C275.326 128.696 272.894 131.128 269.438 131.128H266.046ZM280.324 131.208C278.212 131.208 276.708 129.608 276.708 127.368C276.708 125.128 278.212 123.528 280.324 123.528C281.076 123.528 281.908 123.88 282.516 124.6V123.512H284.212V131.144H282.516V130.12C281.908 130.888 281.076 131.208 280.324 131.208ZM278.404 127.368C278.404 128.808 279.22 129.768 280.436 129.768C281.556 129.768 282.516 128.76 282.532 127.368C282.516 125.976 281.556 124.968 280.436 124.968C279.22 124.968 278.404 125.912 278.404 127.368ZM287.175 131.144V124.968H285.735V123.496H287.175V120.824H288.871V123.496H290.679V124.968H288.871V131.144H287.175ZM295.496 131.208C293.384 131.208 291.88 129.608 291.88 127.368C291.88 125.128 293.384 123.528 295.496 123.528C296.248 123.528 297.08 123.88 297.688 124.6V123.512H299.384V131.144H297.688V130.12C297.08 130.888 296.248 131.208 295.496 131.208ZM293.576 127.368C293.576 128.808 294.392 129.768 295.608 129.768C296.728 129.768 297.688 128.76 297.704 127.368C297.688 125.976 296.728 124.968 295.608 124.968C294.392 124.968 293.576 125.912 293.576 127.368ZM309.834 125.208C311.114 125.208 312.01 124.296 312.01 123C312.01 121.72 311.098 120.808 309.818 120.808H307.226V125.208H309.834ZM305.53 131.128V119.32H309.882C312.122 119.32 313.69 120.84 313.69 123C313.69 125.16 312.122 126.68 309.882 126.68H307.226V131.128H305.53ZM315.118 119.704H316.814V131.128H315.118V119.704ZM322.027 131.208C319.915 131.208 318.411 129.608 318.411 127.368C318.411 125.128 319.915 123.528 322.027 123.528C322.779 123.528 323.611 123.88 324.219 124.6V123.512H325.915V131.144H324.219V130.12C323.611 130.888 322.779 131.208 322.027 131.208ZM320.107 127.368C320.107 128.808 320.923 129.768 322.139 129.768C323.259 129.768 324.219 128.76 324.235 127.368C324.219 125.976 323.259 124.968 322.139 124.968C320.923 124.968 320.107 125.912 320.107 127.368ZM328.878 131.144V124.968H327.438V123.496H328.878V120.824H330.574V123.496H332.382V124.968H330.574V131.144H328.878ZM336.712 131.144H335.016V124.984H333.672V123.48H335.016V121.88C335.016 120.472 335.992 119.4 337.4 119.304C338.056 119.256 338.872 119.512 339.256 119.896L338.392 121.144C338.04 120.84 337.816 120.776 337.544 120.808C337.048 120.856 336.712 121.272 336.712 121.88V123.48H338.856V124.984H336.712V131.144ZM343.513 129.752C344.697 129.752 345.497 128.808 345.497 127.352C345.497 125.912 344.697 124.952 343.513 124.952C342.329 124.952 341.529 125.896 341.529 127.352C341.529 128.808 342.313 129.752 343.513 129.752ZM339.833 127.352C339.833 125.096 341.353 123.496 343.513 123.496C345.673 123.496 347.193 125.096 347.193 127.352C347.193 129.592 345.673 131.208 343.513 131.208C341.353 131.208 339.833 129.592 339.833 127.352ZM348.838 131.144V123.512H350.534V124.632C351.046 123.912 351.974 123.432 352.87 123.48V125.048C351.51 124.984 350.534 126.184 350.534 127.352V131.144H348.838ZM364.38 126.808C364.38 125.72 363.788 125 362.924 125C361.948 125 361.292 125.752 361.292 126.728V131.144H359.58V126.808C359.58 125.72 359.004 125 358.156 125C357.18 125 356.492 125.832 356.492 126.904V131.144H354.796V123.512H356.492V124.552C356.94 123.944 357.596 123.528 358.316 123.528C359.228 123.528 360.124 124.104 360.572 124.904C361.1 124.104 362.124 123.528 363.036 123.528C364.844 123.528 366.092 124.872 366.092 126.744V131.144H364.38V126.808Z" fill="#6D0CA6"/>
<circle opacity="0.4" cx="520" cy="112" r="111.5" fill="white" stroke="#9735D0"/>
<path d="M446.621 79.728H456.317V80.832C456.317 81.968 456.317 83.216 455.981 84.896H457.901V86.32H445.005V84.896H454.237C454.573 83.36 454.605 82.208 454.605 81.152H446.621V79.728ZM446.541 93.136V87.968H456.301V93.136H446.541ZM448.269 91.728H454.589V89.344H448.269V91.728ZM458.989 85.552H471.853V86.944H468.877V88.768C469.805 89.2 470.317 89.856 470.317 90.72C470.317 92.368 468.461 93.296 465.405 93.296C462.333 93.296 460.477 92.368 460.477 90.72C460.477 89.84 461.005 89.168 461.981 88.736V86.944H458.989V85.552ZM460.317 82.016C460.317 80.32 462.301 79.312 465.421 79.312C468.541 79.312 470.525 80.32 470.525 82.016C470.525 83.712 468.541 84.72 465.421 84.72C462.301 84.72 460.317 83.712 460.317 82.016ZM462.125 82.016C462.125 82.912 463.341 83.376 465.421 83.376C467.485 83.376 468.701 82.912 468.701 82.016C468.701 81.136 467.485 80.656 465.421 80.656C463.341 80.656 462.125 81.136 462.125 82.016ZM462.253 90.72C462.253 91.536 463.357 91.952 465.405 91.952C467.437 91.952 468.541 91.536 468.541 90.72C468.541 89.904 467.437 89.488 465.405 89.488C463.357 89.488 462.253 89.904 462.253 90.72ZM463.741 88.272C464.253 88.192 464.797 88.16 465.405 88.16C466.029 88.16 466.605 88.192 467.117 88.272V86.944H463.741V88.272ZM475.342 90.528L474.254 94.208H472.99L473.598 90.528H475.342ZM487.748 87.968C490.804 87.968 492.772 88.976 492.772 90.64C492.772 92.288 490.804 93.296 487.748 93.296C484.692 93.296 482.74 92.288 482.74 90.64C482.74 88.976 484.692 87.968 487.748 87.968ZM481.396 86.928V85.52H486.356V82.944H488.1V85.52H494.228V86.928H481.396ZM482.868 81.12V79.728H492.66V80.912C492.66 82.048 492.66 83.232 492.276 84.704L490.548 84.512C490.9 83.152 490.916 82.144 490.916 81.12H482.868ZM484.484 90.64C484.484 91.488 485.7 91.952 487.748 91.952C489.796 91.952 491.012 91.488 491.012 90.64C491.012 89.776 489.796 89.296 487.748 89.296C485.7 89.296 484.484 89.776 484.484 90.64ZM501.732 87.968C504.788 87.968 506.756 88.976 506.756 90.64C506.756 92.288 504.788 93.296 501.732 93.296C498.676 93.296 496.724 92.288 496.724 90.64C496.724 88.976 498.676 87.968 501.732 87.968ZM495.38 86.928V85.52H500.34V82.944H502.084V85.52H508.212V86.928H495.38ZM496.852 81.12V79.728H506.644V80.912C506.644 82.048 506.644 83.232 506.26 84.704L504.532 84.512C504.884 83.152 504.9 82.144 504.9 81.12H496.852ZM498.468 90.64C498.468 91.488 499.684 91.952 501.732 91.952C503.78 91.952 504.996 91.488 504.996 90.64C504.996 89.776 503.78 89.296 501.732 89.296C499.684 89.296 498.468 89.776 498.468 90.64ZM511.717 90.528L510.629 94.208H509.365L509.973 90.528H511.717ZM528.235 79.04H529.899V93.28H528.235V79.04ZM517.499 89.264C519.531 87.984 520.411 85.424 520.411 82.928V82H517.963V80.56H524.379V82H522.123V82.928C522.123 85.328 522.955 87.76 524.971 88.944L523.931 90.208C522.635 89.424 521.771 88.08 521.275 86.464C520.795 88.224 519.899 89.712 518.555 90.56L517.499 89.264ZM523.339 85.44V84.016H525.371V79.312H527.003V92.608H525.371V85.44H523.339ZM531.739 90.128H537.307V86.864H539.067V90.128H544.635V91.568H531.739V90.128ZM532.283 86.048C535.147 85.584 537.211 83.664 537.259 81.616H532.811V80.208H543.531V81.616H539.083C539.131 83.664 541.211 85.536 544.123 85.984L543.435 87.376C541.035 86.928 539.099 85.664 538.187 83.888C537.275 85.68 535.355 86.976 532.987 87.44L532.283 86.048ZM548.092 90.528L547.004 94.208H545.74L546.348 90.528H548.092ZM550.442 87.04H563.338V88.48H560.202V93.28H558.41V88.48H555.306V93.28H553.498V88.48H550.442V87.04ZM551.77 82.72C551.77 80.784 553.834 79.584 556.842 79.584C559.866 79.584 561.93 80.784 561.93 82.72C561.93 84.656 559.866 85.872 556.842 85.872C553.834 85.872 551.77 84.656 551.77 82.72ZM553.578 82.72C553.578 83.84 554.858 84.464 556.842 84.464C558.842 84.464 560.138 83.84 560.138 82.72C560.138 81.632 558.842 80.976 556.842 80.976C554.858 80.976 553.578 81.632 553.578 82.72ZM564.411 86.464H569.963V85.392H566.059V79.44H575.771V80.784H567.803V81.728H575.435V83.04H567.803V84.048H575.867V85.392H571.723V86.464H577.275V87.856H564.411V86.464ZM565.915 90.976C565.915 89.456 567.707 88.672 570.843 88.672C573.947 88.672 575.755 89.456 575.755 90.976C575.755 92.48 573.947 93.28 570.843 93.28C567.707 93.28 565.915 92.48 565.915 90.976ZM567.691 90.976C567.691 91.664 568.747 91.984 570.843 91.984C572.923 91.984 573.995 91.664 573.995 90.976C573.995 90.288 572.923 89.952 570.843 89.952C568.747 89.952 567.691 90.288 567.691 90.976ZM582.115 85.68H594.979V87.104H582.115V85.68ZM583.587 90.688C583.587 89.024 585.443 88.096 588.515 88.096C591.571 88.096 593.427 89.024 593.427 90.688C593.427 92.352 591.571 93.296 588.515 93.296C585.443 93.296 583.587 92.352 583.587 90.688ZM583.699 84.544V79.504H593.411V80.928H585.427V83.136H593.507V84.544H583.699ZM585.363 90.688C585.363 91.52 586.483 91.936 588.515 91.936C590.547 91.936 591.651 91.52 591.651 90.688C591.651 89.872 590.547 89.44 588.515 89.44C586.483 89.44 585.363 89.872 585.363 90.688ZM458.09 105.024H459.866V110.432H462.026V111.888H459.866V119.312H458.09V105.024ZM449.354 115.84V106.4H455.994V107.808H451.114V114.368C453.338 114.352 455.066 114.256 456.986 113.904L457.162 115.376C455.002 115.776 453.082 115.84 450.522 115.84H449.354ZM466.731 105.856C468.907 105.856 470.539 107.264 470.539 109.264C470.539 111.264 468.907 112.672 466.731 112.672C464.539 112.672 462.923 111.264 462.923 109.264C462.923 107.264 464.539 105.856 466.731 105.856ZM464.539 116.528C464.539 114.784 466.379 113.76 469.307 113.76C472.235 113.76 474.059 114.784 474.059 116.528C474.059 118.256 472.235 119.28 469.307 119.28C466.379 119.28 464.539 118.256 464.539 116.528ZM464.635 109.264C464.635 110.464 465.531 111.2 466.731 111.2C467.931 111.2 468.827 110.464 468.827 109.264C468.827 108.08 467.931 107.328 466.731 107.328C465.531 107.328 464.635 108.08 464.635 109.264ZM466.283 116.528C466.283 117.408 467.371 117.904 469.307 117.904C471.227 117.904 472.331 117.408 472.331 116.528C472.331 115.616 471.227 115.152 469.307 115.152C467.371 115.152 466.283 115.616 466.283 116.528ZM472.139 113.408V105.056H473.899V106.944H475.819V108.384H473.899V110.016H475.819V111.456H473.899V113.408H472.139ZM486.123 105.056H487.883V109.52H489.867V110.976H487.883V115.712H486.123V105.056ZM476.763 108.016V106.624H480.075V105.04H481.835V106.624H485.147V108.016H476.763ZM477.499 111.344C477.499 109.728 478.923 108.64 480.955 108.64C483.003 108.64 484.427 109.728 484.427 111.344C484.427 112.976 483.003 114.064 480.955 114.064C478.923 114.064 477.499 112.976 477.499 111.344ZM478.827 119.008V114.88H480.587V117.6H488.459V119.008H478.827ZM479.179 111.344C479.179 112.208 479.899 112.704 480.955 112.704C482.011 112.704 482.731 112.208 482.731 111.344C482.731 110.48 482.011 109.984 480.955 109.984C479.899 109.984 479.179 110.48 479.179 111.344ZM494.044 105.904H495.804V107.552C495.804 109.408 496.94 111.2 499.164 111.952L498.267 113.328C496.7 112.8 495.58 111.712 494.956 110.336C494.348 111.856 493.18 113.04 491.516 113.632L490.572 112.256C492.892 111.472 494.044 109.568 494.044 107.536V105.904ZM492.844 119.008V114.496H494.604V117.6H502.428V119.008H492.844ZM500.108 115.488V105.04H501.868V109.264H503.852V110.72H501.868V115.488H500.108ZM508.62 105.664C510.476 105.664 511.916 106.72 512.252 108.288H514.78V105.056H516.54V112.688H514.78V109.712H512.268C511.948 111.312 510.492 112.384 508.62 112.384C506.476 112.384 504.892 110.992 504.892 109.024C504.892 107.056 506.476 105.664 508.62 105.664ZM506.572 109.024C506.572 110.176 507.42 110.912 508.62 110.912C509.804 110.912 510.652 110.176 510.652 109.024C510.652 107.856 509.804 107.12 508.62 107.12C507.42 107.12 506.572 107.856 506.572 109.024ZM507.212 119.12V113.36H508.972V114.864H514.796V113.36H516.54V119.12H507.212ZM508.972 117.712H514.796V116.224H508.972V117.712ZM524.092 112.448H526.3V110.288H524.364C523.692 112.672 522.22 114.704 519.548 116.288L518.556 115.04C521.452 113.296 522.796 111.072 523.052 108.192H519.292V106.768H524.796C524.796 107.504 524.748 108.208 524.652 108.896H526.3V105.376H527.948V118.608H526.3V113.856H524.092V112.448ZM529.212 119.28V105.04H530.876V119.28H529.212ZM537.261 106.016C539.485 106.016 541.133 107.456 541.133 109.472C541.133 111.504 539.485 112.928 537.261 112.928C535.021 112.928 533.373 111.504 533.373 109.472C533.373 107.456 535.021 106.016 537.261 106.016ZM532.733 114.896C535.261 114.896 538.813 114.88 541.837 114.416L541.965 115.696C538.845 116.304 535.437 116.336 532.941 116.336L532.733 114.896ZM535.085 109.472C535.085 110.656 536.013 111.424 537.261 111.424C538.493 111.424 539.421 110.656 539.421 109.472C539.421 108.272 538.493 107.536 537.261 107.536C536.013 107.536 535.085 108.272 535.085 109.472ZM542.685 119.312V105.024H544.429V119.312H542.685ZM560.853 105.04H562.533V119.28H560.853V105.04ZM550.805 116.032V106.704H556.213V108.112H552.533V114.576C554.197 114.56 555.397 114.464 556.757 114.192L556.917 115.632C555.317 115.968 553.909 116.032 551.765 116.032H550.805ZM555.237 111.76V110.336H557.941V105.328H559.589V118.624H557.941V111.76H555.237ZM574.309 105.024H576.085V119.312H574.309V105.024ZM564.773 111.104C564.773 108.016 566.325 106.064 568.469 106.064C570.613 106.064 572.165 108.016 572.165 111.104C572.165 114.208 570.613 116.16 568.469 116.16C566.325 116.16 564.773 114.208 564.773 111.104ZM566.469 111.104C566.469 113.296 567.285 114.576 568.469 114.576C569.653 114.576 570.469 113.296 570.469 111.104C570.469 108.928 569.653 107.664 568.469 107.664C567.285 107.664 566.469 108.928 566.469 111.104ZM588.437 105.024H590.181V119.312H588.437V111.616H585.781V110.208H588.437V105.024ZM578.965 116.016V106.272H585.541V107.712H580.709V110.24H585.013V111.632H580.709V114.592C582.869 114.576 584.469 114.512 586.293 114.208L586.469 115.616C584.405 115.952 582.613 116.016 580.085 116.016H578.965ZM464.471 132.208H466.247V134.448C466.247 137.072 467.591 139.696 469.879 140.704L468.855 142.128C467.207 141.36 466.023 139.84 465.383 137.984C464.743 139.984 463.527 141.616 461.815 142.432L460.759 140.976C463.095 139.936 464.471 137.2 464.471 134.448V132.208ZM470.887 145.312V131.024H472.647V145.312H470.887ZM480.359 131.92H482.215V132.976C482.215 135.184 484.327 137.392 487.287 137.904L486.519 139.36C484.135 138.88 482.199 137.44 481.287 135.536C480.359 137.424 478.423 138.88 476.055 139.36L475.303 137.904C478.215 137.376 480.359 135.168 480.359 132.976V131.92ZM474.903 143.472V142.032H487.799V143.472H474.903ZM494.936 134.528H496.52V131.264H498.168V139.44H496.52V135.936H494.936V134.528ZM489.48 138.896V131.92H494.84V133.328H491.16V134.688H494.312V136.032H491.16V137.504C492.84 137.488 494.024 137.424 495.4 137.184L495.544 138.56C493.944 138.864 492.584 138.896 490.424 138.896H489.48ZM491.432 145.12V140.176H500.952V145.12H491.432ZM493.16 143.728H499.256V141.552H493.16V143.728ZM499.288 139.568V131.056H500.952V139.568H499.288ZM508.096 131.92H517.856V133.168C517.856 134.512 517.856 135.968 517.488 138H519.44V139.44H513.84V145.312H512.064V139.44H506.56V138H515.712C516.112 136.08 516.128 134.624 516.128 133.328H508.096V131.92ZM520.544 138.112H533.408V139.52H527.856V140.88H531.84V145.264H530.096V142.288H521.968V140.88H526.08V139.52H520.544V138.112ZM521.168 136.176C524.144 135.968 525.792 134.944 525.984 133.744H521.808V132.384H526.08V131.024H527.856V132.384H532.144V133.744H527.952C528.144 134.944 529.792 135.968 532.768 136.176L532.24 137.504C529.712 137.296 527.856 136.512 526.976 135.28C526.08 136.512 524.224 137.296 521.696 137.504L521.168 136.176ZM545.024 131.04H546.688V145.28H545.024V131.04ZM534.656 137.2C534.656 134.048 535.856 132.112 537.712 132.112C539.424 132.112 540.576 133.728 540.768 136.4H542.144V131.312H543.792V144.608H542.144V137.824H540.784C540.64 140.624 539.456 142.304 537.712 142.304C535.856 142.304 534.656 140.368 534.656 137.2ZM536.256 137.2C536.256 139.44 536.8 140.656 537.712 140.656C538.64 140.656 539.184 139.44 539.184 137.2C539.184 134.976 538.64 133.776 537.712 133.776C536.8 133.776 536.256 134.976 536.256 137.2ZM561.624 131.04H563.384V134.512H565.304V135.968H563.384V139.424H561.624V131.04ZM552.056 138C553.112 138 554.344 138 555.624 137.968V137.232C554.056 137.072 553.08 136.416 553.08 135.408C553.08 134.24 554.408 133.536 556.472 133.536C558.568 133.536 559.896 134.24 559.896 135.408C559.896 136.416 558.936 137.056 557.368 137.232V137.904C558.584 137.84 559.784 137.744 560.92 137.6L561.048 138.672C558.04 139.2 554.728 139.232 552.248 139.232L552.056 138ZM552.424 133.2V132H555.624V130.912H557.368V132H560.536V133.2H552.424ZM553.96 141.168V140H563.384V143.088H555.72V143.984H563.896V145.168H553.976V141.984H561.656V141.168H553.96ZM554.744 135.408C554.744 135.904 555.4 136.176 556.472 136.176C557.576 136.176 558.232 135.904 558.232 135.408C558.232 134.912 557.576 134.64 556.472 134.64C555.4 134.64 554.744 134.912 554.744 135.408ZM566.185 137.92H569.177V136.096C568.121 135.632 567.513 134.912 567.513 133.984C567.513 132.288 569.497 131.28 572.617 131.28C575.737 131.28 577.721 132.288 577.721 133.984C577.721 134.912 577.113 135.648 576.025 136.112V137.92H579.049V139.296H566.185V137.92ZM567.673 142.72C567.673 141.088 569.529 140.16 572.601 140.16C575.657 140.16 577.513 141.088 577.513 142.72C577.513 144.368 575.657 145.296 572.601 145.296C569.529 145.296 567.673 144.368 567.673 142.72ZM569.321 133.984C569.321 134.864 570.537 135.344 572.617 135.344C574.681 135.344 575.897 134.864 575.897 133.984C575.897 133.104 574.681 132.624 572.617 132.624C570.537 132.624 569.321 133.104 569.321 133.984ZM569.449 142.72C569.449 143.536 570.553 143.952 572.601 143.952C574.633 143.952 575.737 143.536 575.737 142.72C575.737 141.92 574.633 141.504 572.601 141.504C570.553 141.504 569.449 141.92 569.449 142.72ZM570.921 137.92H574.281V136.56C573.769 136.64 573.209 136.672 572.617 136.672C572.009 136.672 571.433 136.64 570.921 136.56V137.92Z" fill="#6D0CA6"/>
</svg>
