<svg width="193" height="536" viewBox="0 0 193 536" fill="none" xmlns="http://www.w3.org/2000/svg">
<circle opacity="0.4" cx="96.5" cy="96" r="95.5" fill="#9735D0" fill-opacity="0.14" stroke="#9735D0"/>
<path d="M47.7021 68.598C49.1721 68.598 50.2781 69.606 50.5021 71.104H51.4821V67.884H52.9241V76.592H51.4821V72.364H50.4881C50.2361 73.82 49.1441 74.786 47.7021 74.786C46.0641 74.786 44.8601 73.512 44.8601 71.692C44.8601 69.872 46.0641 68.598 47.7021 68.598ZM46.2461 71.692C46.2461 72.784 46.8621 73.484 47.7021 73.484C48.5421 73.484 49.1721 72.784 49.1721 71.692C49.1721 70.6 48.5421 69.914 47.7021 69.914C46.8621 69.914 46.2461 70.6 46.2461 71.692ZM47.0861 79.882V75.766H48.6261V78.65H55.7101V79.882H47.0861ZM53.9041 76.942V67.674H55.3601V76.942H53.9041ZM58.3285 68.766H67.1065V69.9C67.1065 71.398 67.1065 73.148 66.5605 75.794L65.0345 75.626C65.2585 74.632 65.3845 73.736 65.4685 72.952L58.1745 73.344L57.9785 72.028L65.5525 71.776C65.5805 71.132 65.5805 70.544 65.5805 70.012H58.3285V68.766ZM57.0405 78.58V77.334H61.1845V74.268H62.7105V77.334H68.2965V78.58H57.0405ZM72.6088 68.556C74.4708 68.556 75.8148 70.264 75.8148 72.966C75.8148 75.682 74.4708 77.39 72.6088 77.39C70.7328 77.39 69.3888 75.682 69.3888 72.966C69.3888 70.264 70.7328 68.556 72.6088 68.556ZM70.8588 72.966C70.8588 74.884 71.5728 76.004 72.6088 76.004C73.6448 76.004 74.3448 74.884 74.3448 72.966C74.3448 71.062 73.6448 69.956 72.6088 69.956C71.5728 69.956 70.8588 71.062 70.8588 72.966ZM77.4248 80.134V67.674H78.9788V72.476H80.8688V73.75H78.9788V80.134H77.4248ZM85.5171 68.514C87.4631 68.514 88.9051 69.774 88.9051 71.538C88.9051 73.316 87.4631 74.562 85.5171 74.562C83.5571 74.562 82.1151 73.316 82.1151 71.538C82.1151 69.774 83.5571 68.514 85.5171 68.514ZM81.5551 76.284C83.7671 76.284 86.8751 76.27 89.5211 75.864L89.6331 76.984C86.9031 77.516 83.9211 77.544 81.7371 77.544L81.5551 76.284ZM83.6131 71.538C83.6131 72.574 84.4251 73.246 85.5171 73.246C86.5951 73.246 87.4071 72.574 87.4071 71.538C87.4071 70.488 86.5951 69.844 85.5171 69.844C84.4251 69.844 83.6131 70.488 83.6131 71.538ZM90.2631 80.148V67.646H91.7891V80.148H90.2631ZM96.976 73.778H101.834V72.532H98.376V68.178H106.874V69.396H99.888V71.3H106.986V72.532H103.374V73.778H108.246V74.996H96.976V73.778ZM98.222 77.208V75.99H106.902V80.19H105.362V77.208H98.222ZM109.212 77.362H114.07V74.926H110.458V68.486H111.984V70.516H117.696V68.486H119.222V74.926H115.596V77.362H120.496V78.622H109.212V77.362ZM111.984 73.694H117.696V71.734H111.984V73.694ZM128.169 70.74H130.241V67.674H131.781V75.094H130.241V72H128.169V70.74ZM121.407 73.75C123.381 73.078 124.417 71.44 124.417 69.788V69.648H121.841V68.416H128.533V69.648H125.971V69.788C125.971 71.314 126.965 72.84 128.883 73.498L128.113 74.702C126.741 74.226 125.775 73.274 125.229 72.098C124.697 73.4 123.661 74.45 122.191 74.954L121.407 73.75ZM123.367 76.942V75.696H131.781V80.134H130.241V76.942H123.367ZM142.435 67.674H143.975V76.676H142.435V67.674ZM133.895 71.622C133.895 69.788 135.351 68.486 137.227 68.486C139.117 68.486 140.559 69.788 140.559 71.622C140.559 73.428 139.117 74.744 137.227 74.744C135.351 74.744 133.895 73.428 133.895 71.622ZM135.393 71.622C135.393 72.7 136.191 73.4 137.227 73.4C138.263 73.4 139.061 72.7 139.061 71.622C139.061 70.516 138.263 69.816 137.227 69.816C136.191 69.816 135.393 70.516 135.393 71.622ZM135.799 79.882V75.78H137.325V78.65H144.311V79.882H135.799ZM37.2469 89.66H38.7169V102.12H37.2469V89.66ZM28.4549 99.278V91.116H33.1869V92.348H29.9669V98.004C31.4229 97.99 32.4729 97.906 33.6629 97.668L33.8029 98.928C32.4029 99.222 31.1709 99.278 29.2949 99.278H28.4549ZM32.3329 95.54V94.294H34.6989V89.912H36.1409V101.546H34.6989V95.54H32.3329ZM49.0212 89.646H50.5752V102.148H49.0212V89.646ZM40.6772 94.966C40.6772 92.264 42.0352 90.556 43.9112 90.556C45.7872 90.556 47.1452 92.264 47.1452 94.966C47.1452 97.682 45.7872 99.39 43.9112 99.39C42.0352 99.39 40.6772 97.682 40.6772 94.966ZM42.1612 94.966C42.1612 96.884 42.8752 98.004 43.9112 98.004C44.9472 98.004 45.6612 96.884 45.6612 94.966C45.6612 93.062 44.9472 91.956 43.9112 91.956C42.8752 91.956 42.1612 93.062 42.1612 94.966ZM61.3836 89.646H62.9096V102.148H61.3836V95.414H59.0596V94.182H61.3836V89.646ZM53.0956 99.264V90.738H58.8496V91.998H54.6216V94.21H58.3876V95.428H54.6216V98.018C56.5116 98.004 57.9116 97.948 59.5076 97.682L59.6616 98.914C57.8556 99.208 56.2876 99.264 54.0756 99.264H53.0956ZM71.1839 93.51H73.5779V89.66H75.1179V98.886H73.5779V94.756H71.1839V93.51ZM64.9959 96.548C66.8859 95.946 68.0899 95.134 68.8039 94.154L65.2059 94.434L64.9959 93.216L69.3779 93.048C69.5039 92.67 69.5879 92.278 69.6299 91.872H65.6119V90.64H71.2399C71.2399 94.042 69.7139 96.394 65.5979 97.752L64.9959 96.548ZM67.0959 101.882V97.976H68.6499V100.65H75.4679V101.882H67.0959ZM83.3782 91.662H85.8142V89.674H87.3542V96.03H85.8142V92.894H83.3782V91.662ZM76.9382 94.896C78.9262 94.266 79.9482 92.726 79.9482 91.06V90.066H81.4882V91.06C81.4882 92.586 82.4822 94.056 84.3722 94.658L83.5882 95.848C82.2442 95.4 81.2782 94.504 80.7462 93.37C80.2002 94.63 79.1922 95.624 77.7362 96.1L76.9382 94.896ZM79.2062 97.794V96.604H87.3542V99.81H80.7462V100.776H87.7462V101.98H79.2202V98.69H85.8282V97.794H79.2062ZM89.9306 90.556H95.8946V91.774H91.4566V92.95H95.5446V94.154H91.4566V95.386C93.7666 95.386 95.1946 95.33 96.8186 95.064L96.9586 96.268C95.1946 96.562 93.6406 96.604 90.9806 96.604H89.9306V90.556ZM91.1206 99.782C91.1206 98.326 92.7446 97.458 95.3626 97.458C97.9806 97.458 99.5906 98.326 99.5906 99.782C99.5906 101.28 97.9806 102.12 95.3626 102.12C92.7446 102.12 91.1206 101.28 91.1206 99.782ZM92.6746 99.782C92.6746 100.538 93.6266 100.944 95.3626 100.944C97.0846 100.944 98.0646 100.538 98.0646 99.782C98.0646 99.04 97.0846 98.634 95.3626 98.634C93.6266 98.634 92.6746 99.04 92.6746 99.782ZM97.9946 97.276V89.674H99.5346V97.276H97.9946ZM104.707 99.348H115.991V100.622H104.707V99.348ZM105.617 92.04V90.794H115.011V92.04H113.233V96.002H114.983V97.234H105.673V96.002H107.409V92.04H105.617ZM108.949 96.002H111.707V92.04H108.949V96.002ZM117.294 90.948H121.704V95.54H118.792V97.892C120.066 97.878 121.256 97.808 122.642 97.57L122.768 98.816C121.116 99.11 119.73 99.152 118.162 99.152H117.308V94.336H120.234V92.18H117.294V90.948ZM122.25 95.26V94H123.594V89.926H125.022V101.504H123.594V95.26H122.25ZM126.114 102.12V89.66H127.584V102.12H126.114ZM137.916 89.674H139.456V96.744H137.916V89.674ZM129.39 93.23C129.39 91.494 130.804 90.276 132.722 90.276C134.64 90.276 136.054 91.494 136.054 93.23C136.054 94.966 134.64 96.184 132.722 96.184C130.804 96.184 129.39 94.966 129.39 93.23ZM130.888 93.23C130.888 94.266 131.672 94.91 132.722 94.91C133.772 94.91 134.556 94.266 134.556 93.23C134.556 92.208 133.772 91.55 132.722 91.55C131.672 91.55 130.888 92.208 130.888 93.23ZM131.266 101.98V97.346H139.456V101.98H131.266ZM132.778 100.762H137.958V98.564H132.778V100.762ZM150.292 89.66H151.832V102.134H150.292V99.278H147.674V98.088H150.292V89.66ZM141.36 96.086C143.684 96.086 146.764 96.072 149.438 95.708L149.536 96.814C148.402 97.01 147.226 97.136 146.092 97.22V101.756H144.552V97.304C143.474 97.346 142.466 97.346 141.542 97.346L141.36 96.086ZM142.228 92.74C142.228 91.242 143.544 90.234 145.392 90.234C147.24 90.234 148.542 91.242 148.542 92.74C148.542 94.252 147.24 95.246 145.392 95.246C143.544 95.246 142.228 94.252 142.228 92.74ZM143.684 92.74C143.684 93.58 144.384 94.084 145.392 94.084C146.4 94.084 147.086 93.58 147.086 92.74C147.086 91.914 146.4 91.382 145.392 91.382C144.384 91.382 143.684 91.914 143.684 92.74ZM154.941 90.822H163.691V92.292C163.691 94.112 163.691 95.834 163.131 98.48L161.605 98.34C161.857 97.248 161.997 96.282 162.067 95.4L154.801 95.778L154.605 94.532L162.137 94.266C162.165 93.58 162.165 92.936 162.165 92.292V92.068H154.941V90.822ZM153.653 100.552V99.278H164.923V100.552H153.653ZM65.1162 117.946C65.1162 116.126 65.8302 113.732 66.8382 112.136H68.4062C67.2582 113.718 66.4602 116.112 66.4602 117.946C66.4602 119.78 67.2582 122.174 68.4062 123.756H66.8382C65.8302 122.16 65.1162 119.766 65.1162 117.946ZM76.9643 112.78V114.082H71.7703V117.148H76.2363V118.436H71.7703V121.81H76.9643V123.112H70.2863V112.78H76.9643ZM82.0353 121.81C84.2473 121.81 85.7313 120.256 85.7313 117.946C85.7313 115.636 84.2473 114.082 82.0353 114.082L80.5653 114.096V121.796L82.0353 121.81ZM79.0813 123.112V112.78H82.0493C85.0733 112.78 87.2013 114.908 87.2013 117.946C87.2013 120.984 85.0733 123.112 82.0493 123.112H79.0813ZM95.4213 112.78V114.082H90.3673V117.288H94.6513V118.576H90.3673V123.112H88.8833V112.78H95.4213ZM100.166 117.946C100.166 119.766 99.4665 122.146 98.4585 123.756H96.8905C98.0245 122.188 98.8225 119.78 98.8225 117.946C98.8225 116.112 98.0245 113.704 96.8905 112.136H98.4585C99.4665 113.746 100.166 116.126 100.166 117.946ZM112.063 114.74H114.135V111.674H115.675V119.094H114.135V116H112.063V114.74ZM105.301 117.75C107.275 117.078 108.311 115.44 108.311 113.788V113.648H105.735V112.416H112.427V113.648H109.865V113.788C109.865 115.314 110.859 116.84 112.777 117.498L112.007 118.702C110.635 118.226 109.669 117.274 109.123 116.098C108.591 117.4 107.555 118.45 106.085 118.954L105.301 117.75ZM107.261 120.942V119.696H115.675V124.134H114.135V120.942H107.261ZM117.58 117.68H120.198V116.084C119.274 115.678 118.742 115.048 118.742 114.236C118.742 112.752 120.478 111.87 123.208 111.87C125.938 111.87 127.674 112.752 127.674 114.236C127.674 115.048 127.142 115.692 126.19 116.098V117.68H128.836V118.884H117.58V117.68ZM118.882 121.88C118.882 120.452 120.506 119.64 123.194 119.64C125.868 119.64 127.492 120.452 127.492 121.88C127.492 123.322 125.868 124.134 123.194 124.134C120.506 124.134 118.882 123.322 118.882 121.88ZM120.324 114.236C120.324 115.006 121.388 115.426 123.208 115.426C125.014 115.426 126.078 115.006 126.078 114.236C126.078 113.466 125.014 113.046 123.208 113.046C121.388 113.046 120.324 113.466 120.324 114.236ZM120.436 121.88C120.436 122.594 121.402 122.958 123.194 122.958C124.972 122.958 125.938 122.594 125.938 121.88C125.938 121.18 124.972 120.816 123.194 120.816C121.402 120.816 120.436 121.18 120.436 121.88ZM121.724 117.68H124.664V116.49C124.216 116.56 123.726 116.588 123.208 116.588C122.676 116.588 122.172 116.56 121.724 116.49V117.68Z" fill="#6D0CA6"/>
<circle opacity="0.4" cx="96.5" cy="268" r="95.5" fill="#9735D0" fill-opacity="0.14" stroke="#9735D0"/>
<path d="M66.8629 251.78L70.6989 262.112H69.1169L68.0809 259.298H63.8389L62.7609 262.112H61.1789L65.0849 251.78H66.8629ZM64.3149 258.01H67.5909L65.9809 253.656L64.3149 258.01ZM71.9256 252.116H73.4096V262.112H71.9256V252.116ZM75.2342 252.116H76.7182V262.112H75.2342V252.116ZM78.5428 256.106H84.6468V257.59H78.5428V256.106ZM86.6965 255.434H88.1805V262.112H86.6965V255.434ZM86.5985 252.942C86.5985 252.452 86.9485 252.102 87.4385 252.102C87.9285 252.102 88.2785 252.452 88.2785 252.942C88.2785 253.432 87.9285 253.782 87.4385 253.782C86.9485 253.782 86.5985 253.432 86.5985 252.942ZM94.7986 258.444C94.7986 257.38 94.2526 256.736 93.3286 256.736C92.4186 256.75 91.7186 257.464 91.7326 258.444V262.126H90.2486V255.448H91.7326V256.358C92.1526 255.84 92.8666 255.462 93.5106 255.462C94.7706 255.462 96.2826 256.288 96.2826 258.388V262.126H94.7986V258.444ZM98.0799 256.106H104.184V257.59H98.0799V256.106ZM111.274 260.922C113.458 260.922 114.928 259.326 114.928 256.946C114.928 254.566 113.458 252.97 111.274 252.97C109.09 252.97 107.634 254.566 107.634 256.946C107.634 259.326 109.09 260.922 111.274 260.922ZM106.136 256.946C106.136 253.852 108.264 251.668 111.274 251.668C114.298 251.668 116.426 253.852 116.426 256.946C116.426 260.04 114.298 262.224 111.274 262.224C108.264 262.224 106.136 260.04 106.136 256.946ZM122.607 258.444C122.607 257.38 122.061 256.736 121.137 256.736C120.227 256.75 119.527 257.464 119.541 258.444V262.126H118.057V255.448H119.541V256.358C119.961 255.84 120.675 255.462 121.319 255.462C122.579 255.462 124.091 256.288 124.091 258.388V262.126H122.607V258.444ZM128.818 262.154C126.928 262.154 125.598 260.768 125.598 258.808C125.598 256.834 126.928 255.448 128.818 255.448C130.89 255.448 131.548 257.142 131.59 257.254C131.996 258.206 131.87 259.27 131.87 259.382H127.054C127.222 260.278 127.978 260.894 128.818 260.894C129.924 260.894 130.372 260.25 130.484 260.054L131.674 260.586C131.352 261.342 130.414 262.154 128.818 262.154ZM127.054 258.206H130.47C130.33 257.38 129.854 256.708 128.818 256.708C127.922 256.708 127.222 257.338 127.054 258.206ZM55.7443 282.81C57.9563 282.81 59.4403 281.256 59.4403 278.946C59.4403 276.636 57.9563 275.082 55.7443 275.082L54.2743 275.096V282.796L55.7443 282.81ZM52.7903 284.112V273.78H55.7583C58.7823 273.78 60.9103 275.908 60.9103 278.946C60.9103 281.984 58.7823 284.112 55.7583 284.112H52.7903ZM65.2833 284.182C63.4353 284.182 62.1193 282.782 62.1193 280.822C62.1193 278.862 63.4353 277.462 65.2833 277.462C65.9413 277.462 66.6693 277.77 67.2013 278.4V277.448H68.6853V284.126H67.2013V283.23C66.6693 283.902 65.9413 284.182 65.2833 284.182ZM63.6033 280.822C63.6033 282.082 64.3173 282.922 65.3813 282.922C66.3613 282.922 67.2013 282.04 67.2153 280.822C67.2013 279.604 66.3613 278.722 65.3813 278.722C64.3173 278.722 63.6033 279.548 63.6033 280.822ZM71.278 284.126V278.722H70.018V277.434H71.278V275.096H72.762V277.434H74.344V278.722H72.762V284.126H71.278ZM78.5587 284.182C76.7107 284.182 75.3947 282.782 75.3947 280.822C75.3947 278.862 76.7107 277.462 78.5587 277.462C79.2167 277.462 79.9447 277.77 80.4767 278.4V277.448H81.9607V284.126H80.4767V283.23C79.9447 283.902 79.2167 284.182 78.5587 284.182ZM76.8787 280.822C76.8787 282.082 77.5927 282.922 78.6567 282.922C79.6367 282.922 80.4767 282.04 80.4907 280.822C80.4767 279.604 79.6367 278.722 78.6567 278.722C77.5927 278.722 76.8787 279.548 76.8787 280.822ZM91.1048 278.932C92.2248 278.932 93.0088 278.134 93.0088 277C93.0088 275.88 92.2108 275.082 91.0908 275.082H88.8228V278.932H91.1048ZM87.3388 284.112V273.78H91.1468C93.1068 273.78 94.4788 275.11 94.4788 277C94.4788 278.89 93.1068 280.22 91.1468 280.22H88.8228V284.112H87.3388ZM95.7284 274.116H97.2124V284.112H95.7284V274.116ZM101.774 284.182C99.9255 284.182 98.6095 282.782 98.6095 280.822C98.6095 278.862 99.9255 277.462 101.774 277.462C102.432 277.462 103.16 277.77 103.692 278.4V277.448H105.176V284.126H103.692V283.23C103.16 283.902 102.432 284.182 101.774 284.182ZM100.094 280.822C100.094 282.082 100.808 282.922 101.872 282.922C102.852 282.922 103.692 282.04 103.706 280.822C103.692 279.604 102.852 278.722 101.872 278.722C100.808 278.722 100.094 279.548 100.094 280.822ZM107.768 284.126V278.722H106.508V277.434H107.768V275.096H109.252V277.434H110.834V278.722H109.252V284.126H107.768ZM114.623 284.126H113.139V278.736H111.963V277.42H113.139V276.02C113.139 274.788 113.993 273.85 115.225 273.766C115.799 273.724 116.513 273.948 116.849 274.284L116.093 275.376C115.785 275.11 115.589 275.054 115.351 275.082C114.917 275.124 114.623 275.488 114.623 276.02V277.42H116.499V278.736H114.623V284.126ZM120.574 282.908C121.61 282.908 122.31 282.082 122.31 280.808C122.31 279.548 121.61 278.708 120.574 278.708C119.538 278.708 118.838 279.534 118.838 280.808C118.838 282.082 119.524 282.908 120.574 282.908ZM117.354 280.808C117.354 278.834 118.684 277.434 120.574 277.434C122.464 277.434 123.794 278.834 123.794 280.808C123.794 282.768 122.464 284.182 120.574 284.182C118.684 284.182 117.354 282.768 117.354 280.808ZM125.233 284.126V277.448H126.717V278.428C127.165 277.798 127.977 277.378 128.761 277.42V278.792C127.571 278.736 126.717 279.786 126.717 280.808V284.126H125.233ZM138.832 280.332C138.832 279.38 138.314 278.75 137.558 278.75C136.704 278.75 136.13 279.408 136.13 280.262V284.126H134.632V280.332C134.632 279.38 134.128 278.75 133.386 278.75C132.532 278.75 131.93 279.478 131.93 280.416V284.126H130.446V277.448H131.93V278.358C132.322 277.826 132.896 277.462 133.526 277.462C134.324 277.462 135.108 277.966 135.5 278.666C135.962 277.966 136.858 277.462 137.656 277.462C139.238 277.462 140.33 278.638 140.33 280.276V284.126H138.832V280.332Z" fill="#6D0CA6"/>
<circle opacity="0.4" cx="96.5" cy="440" r="95.5" fill="#9735D0" fill-opacity="0.14" stroke="#9735D0"/>
<path d="M32.2933 412.262H40.7773V413.228C40.7773 414.222 40.7773 415.314 40.4833 416.784H42.1633V418.03H30.8793V416.784H38.9573C39.2513 415.44 39.2793 414.432 39.2793 413.508H32.2933V412.262ZM32.2233 423.994V419.472H40.7633V423.994H32.2233ZM33.7353 422.762H39.2653V420.676H33.7353V422.762ZM43.1156 417.358H54.3716V418.576H51.7676V420.172C52.5796 420.55 53.0276 421.124 53.0276 421.88C53.0276 423.322 51.4036 424.134 48.7296 424.134C46.0416 424.134 44.4176 423.322 44.4176 421.88C44.4176 421.11 44.8796 420.522 45.7336 420.144V418.576H43.1156V417.358ZM44.2776 414.264C44.2776 412.78 46.0136 411.898 48.7436 411.898C51.4736 411.898 53.2096 412.78 53.2096 414.264C53.2096 415.748 51.4736 416.63 48.7436 416.63C46.0136 416.63 44.2776 415.748 44.2776 414.264ZM45.8596 414.264C45.8596 415.048 46.9236 415.454 48.7436 415.454C50.5496 415.454 51.6136 415.048 51.6136 414.264C51.6136 413.494 50.5496 413.074 48.7436 413.074C46.9236 413.074 45.8596 413.494 45.8596 414.264ZM45.9716 421.88C45.9716 422.594 46.9376 422.958 48.7296 422.958C50.5076 422.958 51.4736 422.594 51.4736 421.88C51.4736 421.166 50.5076 420.802 48.7296 420.802C46.9376 420.802 45.9716 421.166 45.9716 421.88ZM47.2736 419.738C47.7216 419.668 48.1976 419.64 48.7296 419.64C49.2756 419.64 49.7796 419.668 50.2276 419.738V418.576H47.2736V419.738ZM57.424 421.712L56.472 424.932H55.366L55.898 421.712H57.424ZM68.2794 419.472C70.9534 419.472 72.6754 420.354 72.6754 421.81C72.6754 423.252 70.9534 424.134 68.2794 424.134C65.6054 424.134 63.8974 423.252 63.8974 421.81C63.8974 420.354 65.6054 419.472 68.2794 419.472ZM62.7214 418.562V417.33H67.0614V415.076H68.5874V417.33H73.9494V418.562H62.7214ZM64.0094 413.48V412.262H72.5774V413.298C72.5774 414.292 72.5774 415.328 72.2414 416.616L70.7294 416.448C71.0374 415.258 71.0514 414.376 71.0514 413.48H64.0094ZM65.4234 421.81C65.4234 422.552 66.4874 422.958 68.2794 422.958C70.0714 422.958 71.1354 422.552 71.1354 421.81C71.1354 421.054 70.0714 420.634 68.2794 420.634C66.4874 420.634 65.4234 421.054 65.4234 421.81ZM80.5158 419.472C83.1898 419.472 84.9118 420.354 84.9118 421.81C84.9118 423.252 83.1898 424.134 80.5158 424.134C77.8418 424.134 76.1338 423.252 76.1338 421.81C76.1338 420.354 77.8418 419.472 80.5158 419.472ZM74.9578 418.562V417.33H79.2978V415.076H80.8238V417.33H86.1858V418.562H74.9578ZM76.2458 413.48V412.262H84.8138V413.298C84.8138 414.292 84.8138 415.328 84.4778 416.616L82.9658 416.448C83.2738 415.258 83.2878 414.376 83.2878 413.48H76.2458ZM77.6598 421.81C77.6598 422.552 78.7238 422.958 80.5158 422.958C82.3078 422.958 83.3718 422.552 83.3718 421.81C83.3718 421.054 82.3078 420.634 80.5158 420.634C78.7238 420.634 77.6598 421.054 77.6598 421.81ZM89.2521 421.712L88.3001 424.932H87.1941L87.7261 421.712H89.2521ZM103.706 411.66H105.162V424.12H103.706V411.66ZM94.3116 420.606C96.0896 419.486 96.8596 417.246 96.8596 415.062V414.25H94.7176V412.99H100.332V414.25H98.3576V415.062C98.3576 417.162 99.0856 419.29 100.85 420.326L99.9396 421.432C98.8056 420.746 98.0496 419.57 97.6156 418.156C97.1956 419.696 96.4116 420.998 95.2356 421.74L94.3116 420.606ZM99.4216 417.26V416.014H101.2V411.898H102.628V423.532H101.2V417.26H99.4216ZM106.772 421.362H111.644V418.506H113.184V421.362H118.056V422.622H106.772V421.362ZM107.248 417.792C109.754 417.386 111.56 415.706 111.602 413.914H107.71V412.682H117.09V413.914H113.198C113.24 415.706 115.06 417.344 117.608 417.736L117.006 418.954C114.906 418.562 113.212 417.456 112.414 415.902C111.616 417.47 109.936 418.604 107.864 419.01L107.248 417.792ZM121.08 421.712L120.128 424.932H119.022L119.554 421.712H121.08ZM123.137 418.66H134.421V419.92H131.677V424.12H130.109V419.92H127.393V424.12H125.811V419.92H123.137V418.66ZM124.299 414.88C124.299 413.186 126.105 412.136 128.737 412.136C131.383 412.136 133.189 413.186 133.189 414.88C133.189 416.574 131.383 417.638 128.737 417.638C126.105 417.638 124.299 416.574 124.299 414.88ZM125.881 414.88C125.881 415.86 127.001 416.406 128.737 416.406C130.487 416.406 131.621 415.86 131.621 414.88C131.621 413.928 130.487 413.354 128.737 413.354C127.001 413.354 125.881 413.928 125.881 414.88ZM135.359 418.156H140.217V417.218H136.801V412.01H145.299V413.186H138.327V414.012H145.005V415.16H138.327V416.042H145.383V417.218H141.757V418.156H146.615V419.374H135.359V418.156ZM136.675 422.104C136.675 420.774 138.243 420.088 140.987 420.088C143.703 420.088 145.285 420.774 145.285 422.104C145.285 423.42 143.703 424.12 140.987 424.12C138.243 424.12 136.675 423.42 136.675 422.104ZM138.229 422.104C138.229 422.706 139.153 422.986 140.987 422.986C142.807 422.986 143.745 422.706 143.745 422.104C143.745 421.502 142.807 421.208 140.987 421.208C139.153 421.208 138.229 421.502 138.229 422.104ZM150.85 417.47H162.106V418.716H150.85V417.47ZM152.138 421.852C152.138 420.396 153.762 419.584 156.45 419.584C159.124 419.584 160.748 420.396 160.748 421.852C160.748 423.308 159.124 424.134 156.45 424.134C153.762 424.134 152.138 423.308 152.138 421.852ZM152.236 416.476V412.066H160.734V413.312H153.748V415.244H160.818V416.476H152.236ZM153.692 421.852C153.692 422.58 154.672 422.944 156.45 422.944C158.228 422.944 159.194 422.58 159.194 421.852C159.194 421.138 158.228 420.76 156.45 420.76C154.672 420.76 153.692 421.138 153.692 421.852ZM60.6836 433.646H62.2376V438.378H64.1276V439.652H62.2376V446.148H60.6836V433.646ZM53.0396 443.11V434.85H58.8496V436.082H54.5796V441.822C56.5256 441.808 58.0376 441.724 59.7176 441.416L59.8716 442.704C57.9816 443.054 56.3016 443.11 54.0616 443.11H53.0396ZM68.2439 434.374C70.1479 434.374 71.5759 435.606 71.5759 437.356C71.5759 439.106 70.1479 440.338 68.2439 440.338C66.3259 440.338 64.9119 439.106 64.9119 437.356C64.9119 435.606 66.3259 434.374 68.2439 434.374ZM66.3259 443.712C66.3259 442.186 67.9359 441.29 70.4979 441.29C73.0599 441.29 74.6559 442.186 74.6559 443.712C74.6559 445.224 73.0599 446.12 70.4979 446.12C67.9359 446.12 66.3259 445.224 66.3259 443.712ZM66.4099 437.356C66.4099 438.406 67.1939 439.05 68.2439 439.05C69.2939 439.05 70.0779 438.406 70.0779 437.356C70.0779 436.32 69.2939 435.662 68.2439 435.662C67.1939 435.662 66.4099 436.32 66.4099 437.356ZM67.8519 443.712C67.8519 444.482 68.8039 444.916 70.4979 444.916C72.1779 444.916 73.1439 444.482 73.1439 443.712C73.1439 442.914 72.1779 442.508 70.4979 442.508C68.8039 442.508 67.8519 442.914 67.8519 443.712ZM72.9759 440.982V433.674H74.5159V435.326H76.1959V436.586H74.5159V438.014H76.1959V439.274H74.5159V440.982H72.9759ZM85.2122 433.674H86.7522V437.58H88.4882V438.854H86.7522V442.998H85.2122V433.674ZM77.0222 436.264V435.046H79.9202V433.66H81.4602V435.046H84.3582V436.264H77.0222ZM77.6662 439.176C77.6662 437.762 78.9122 436.81 80.6902 436.81C82.4822 436.81 83.7282 437.762 83.7282 439.176C83.7282 440.604 82.4822 441.556 80.6902 441.556C78.9122 441.556 77.6662 440.604 77.6662 439.176ZM78.8282 445.882V442.27H80.3682V444.65H87.2562V445.882H78.8282ZM79.1362 439.176C79.1362 439.932 79.7662 440.366 80.6902 440.366C81.6142 440.366 82.2442 439.932 82.2442 439.176C82.2442 438.42 81.6142 437.986 80.6902 437.986C79.7662 437.986 79.1362 438.42 79.1362 439.176ZM95.3691 434.416H96.9091V435.858C96.9091 437.482 97.9031 439.05 99.8491 439.708L99.0651 440.912C97.6931 440.45 96.7131 439.498 96.1671 438.294C95.6351 439.624 94.6131 440.66 93.1571 441.178L92.3311 439.974C94.3611 439.288 95.3691 437.622 95.3691 435.844V434.416ZM94.3191 445.882V441.934H95.8591V444.65H102.705V445.882H94.3191ZM100.675 442.802V433.66H102.215V437.356H103.951V438.63H102.215V442.802H100.675ZM108.123 434.206C109.747 434.206 111.007 435.13 111.301 436.502H113.513V433.674H115.053V440.352H113.513V437.748H111.315C111.035 439.148 109.761 440.086 108.123 440.086C106.247 440.086 104.861 438.868 104.861 437.146C104.861 435.424 106.247 434.206 108.123 434.206ZM106.331 437.146C106.331 438.154 107.073 438.798 108.123 438.798C109.159 438.798 109.901 438.154 109.901 437.146C109.901 436.124 109.159 435.48 108.123 435.48C107.073 435.48 106.331 436.124 106.331 437.146ZM106.891 445.98V440.94H108.431V442.256H113.527V440.94H115.053V445.98H106.891ZM108.431 444.748H113.527V443.446H108.431V444.748ZM121.662 440.142H123.594V438.252H121.9C121.312 440.338 120.024 442.116 117.686 443.502L116.818 442.41C119.352 440.884 120.528 438.938 120.752 436.418H117.462V435.172H122.278C122.278 435.816 122.236 436.432 122.152 437.034H123.594V433.954H125.036V445.532H123.594V441.374H121.662V440.142ZM126.142 446.12V433.66H127.598V446.12H126.142ZM133.184 434.514C135.13 434.514 136.572 435.774 136.572 437.538C136.572 439.316 135.13 440.562 133.184 440.562C131.224 440.562 129.782 439.316 129.782 437.538C129.782 435.774 131.224 434.514 133.184 434.514ZM129.222 442.284C131.434 442.284 134.542 442.27 137.188 441.864L137.3 442.984C134.57 443.516 131.588 443.544 129.404 443.544L129.222 442.284ZM131.28 437.538C131.28 438.574 132.092 439.246 133.184 439.246C134.262 439.246 135.074 438.574 135.074 437.538C135.074 436.488 134.262 435.844 133.184 435.844C132.092 435.844 131.28 436.488 131.28 437.538ZM137.93 446.148V433.646H139.456V446.148H137.93ZM34.0204 455.66H35.4904V468.12H34.0204V455.66ZM25.2284 465.278V457.116H29.9604V458.348H26.7404V464.004C28.1964 463.99 29.2464 463.906 30.4364 463.668L30.5764 464.928C29.1764 465.222 27.9444 465.278 26.0684 465.278H25.2284ZM29.1064 461.54V460.294H31.4724V455.912H32.9144V467.546H31.4724V461.54H29.1064ZM45.7947 455.646H47.3487V468.148H45.7947V455.646ZM37.4507 460.966C37.4507 458.264 38.8087 456.556 40.6847 456.556C42.5607 456.556 43.9187 458.264 43.9187 460.966C43.9187 463.682 42.5607 465.39 40.6847 465.39C38.8087 465.39 37.4507 463.682 37.4507 460.966ZM38.9347 460.966C38.9347 462.884 39.6487 464.004 40.6847 464.004C41.7207 464.004 42.4347 462.884 42.4347 460.966C42.4347 459.062 41.7207 457.956 40.6847 457.956C39.6487 457.956 38.9347 459.062 38.9347 460.966ZM58.157 455.646H59.683V468.148H58.157V461.414H55.833V460.182H58.157V455.646ZM49.869 465.264V456.738H55.623V457.998H51.395V460.21H55.161V461.428H51.395V464.018C53.285 464.004 54.685 463.948 56.281 463.682L56.435 464.914C54.629 465.208 53.061 465.264 50.849 465.264H49.869ZM67.8799 456.682H69.4339V458.642C69.4339 460.938 70.6099 463.234 72.6119 464.116L71.7159 465.362C70.2739 464.69 69.2379 463.36 68.6779 461.736C68.1179 463.486 67.0539 464.914 65.5559 465.628L64.6319 464.354C66.6759 463.444 67.8799 461.05 67.8799 458.642V456.682ZM73.4939 468.148V455.646H75.0339V468.148H73.4939ZM81.7822 456.43H83.4062V457.354C83.4062 459.286 85.2542 461.218 87.8442 461.666L87.1722 462.94C85.0862 462.52 83.3922 461.26 82.5942 459.594C81.7822 461.246 80.0882 462.52 78.0162 462.94L77.3582 461.666C79.9062 461.204 81.7822 459.272 81.7822 457.354V456.43ZM77.0082 466.538V465.278H88.2922V466.538H77.0082ZM94.5366 458.712H95.9226V455.856H97.3646V463.01H95.9226V459.944H94.5366V458.712ZM89.7626 462.534V456.43H94.4526V457.662H91.2326V458.852H93.9906V460.028H91.2326V461.316C92.7026 461.302 93.7386 461.246 94.9426 461.036L95.0686 462.24C93.6686 462.506 92.4786 462.534 90.5886 462.534H89.7626ZM91.4706 467.98V463.654H99.8006V467.98H91.4706ZM92.9826 466.762H98.3166V464.858H92.9826V466.762ZM98.3446 463.122V455.674H99.8006V463.122H98.3446ZM106.051 456.43H114.591V457.522C114.591 458.698 114.591 459.972 114.269 461.75H115.977V463.01H111.077V468.148H109.523V463.01H104.707V461.75H112.715C113.065 460.07 113.079 458.796 113.079 457.662H106.051V456.43ZM116.944 461.848H128.2V463.08H123.342V464.27H126.828V468.106H125.302V465.502H118.19V464.27H121.788V463.08H116.944V461.848ZM117.49 460.154C120.094 459.972 121.536 459.076 121.704 458.026H118.05V456.836H121.788V455.646H123.342V456.836H127.094V458.026H123.426C123.594 459.076 125.036 459.972 127.64 460.154L127.178 461.316C124.966 461.134 123.342 460.448 122.572 459.37C121.788 460.448 120.164 461.134 117.952 461.316L117.49 460.154ZM138.364 455.66H139.82V468.12H138.364V455.66ZM129.292 461.05C129.292 458.292 130.342 456.598 131.966 456.598C133.464 456.598 134.472 458.012 134.64 460.35H135.844V455.898H137.286V467.532H135.844V461.596H134.654C134.528 464.046 133.492 465.516 131.966 465.516C130.342 465.516 129.292 463.822 129.292 461.05ZM130.692 461.05C130.692 463.01 131.168 464.074 131.966 464.074C132.778 464.074 133.254 463.01 133.254 461.05C133.254 459.104 132.778 458.054 131.966 458.054C131.168 458.054 130.692 459.104 130.692 461.05ZM152.889 455.66H154.429V458.698H156.109V459.972H154.429V462.996H152.889V455.66ZM144.517 461.75C145.441 461.75 146.519 461.75 147.639 461.722V461.078C146.267 460.938 145.413 460.364 145.413 459.482C145.413 458.46 146.575 457.844 148.381 457.844C150.215 457.844 151.377 458.46 151.377 459.482C151.377 460.364 150.537 460.924 149.165 461.078V461.666C150.229 461.61 151.279 461.526 152.273 461.4L152.385 462.338C149.753 462.8 146.855 462.828 144.685 462.828L144.517 461.75ZM144.839 457.55V456.5H147.639V455.548H149.165V456.5H151.937V457.55H144.839ZM146.183 464.522V463.5H154.429V466.202H147.723V466.986H154.877V468.022H146.197V465.236H152.917V464.522H146.183ZM146.869 459.482C146.869 459.916 147.443 460.154 148.381 460.154C149.347 460.154 149.921 459.916 149.921 459.482C149.921 459.048 149.347 458.81 148.381 458.81C147.443 458.81 146.869 459.048 146.869 459.482ZM156.879 461.68H159.497V460.084C158.573 459.678 158.041 459.048 158.041 458.236C158.041 456.752 159.777 455.87 162.507 455.87C165.237 455.87 166.973 456.752 166.973 458.236C166.973 459.048 166.441 459.692 165.489 460.098V461.68H168.135V462.884H156.879V461.68ZM158.181 465.88C158.181 464.452 159.805 463.64 162.493 463.64C165.167 463.64 166.791 464.452 166.791 465.88C166.791 467.322 165.167 468.134 162.493 468.134C159.805 468.134 158.181 467.322 158.181 465.88ZM159.623 458.236C159.623 459.006 160.687 459.426 162.507 459.426C164.313 459.426 165.377 459.006 165.377 458.236C165.377 457.466 164.313 457.046 162.507 457.046C160.687 457.046 159.623 457.466 159.623 458.236ZM159.735 465.88C159.735 466.594 160.701 466.958 162.493 466.958C164.271 466.958 165.237 466.594 165.237 465.88C165.237 465.18 164.271 464.816 162.493 464.816C160.701 464.816 159.735 465.18 159.735 465.88ZM161.023 461.68H163.963V460.49C163.515 460.56 163.025 460.588 162.507 460.588C161.975 460.588 161.471 460.56 161.023 460.49V461.68Z" fill="#6D0CA6"/>
</svg>
