<svg width="339" height="536" viewBox="0 0 339 536" fill="none" xmlns="http://www.w3.org/2000/svg">
<circle opacity="0.4" cx="169.5" cy="96" r="95.5" fill="white" stroke="#9735D0"/>
<path d="M113.731 70.112C115.411 70.112 116.675 71.264 116.931 72.976H118.051V69.296H119.699V79.248H118.051V74.416H116.915C116.627 76.08 115.379 77.184 113.731 77.184C111.859 77.184 110.483 75.728 110.483 73.648C110.483 71.568 111.859 70.112 113.731 70.112ZM112.067 73.648C112.067 74.896 112.771 75.696 113.731 75.696C114.691 75.696 115.411 74.896 115.411 73.648C115.411 72.4 114.691 71.616 113.731 71.616C112.771 71.616 112.067 72.4 112.067 73.648ZM113.027 83.008V78.304H114.787V81.6H122.883V83.008H113.027ZM120.819 79.648V69.056H122.483V79.648H120.819ZM125.875 70.304H135.907V71.6C135.907 73.312 135.907 75.312 135.283 78.336L133.539 78.144C133.795 77.008 133.939 75.984 134.035 75.088L125.699 75.536L125.475 74.032L134.131 73.744C134.163 73.008 134.163 72.336 134.163 71.728H125.875V70.304ZM124.403 81.52V80.096H129.139V76.592H130.883V80.096H137.267V81.52H124.403ZM142.196 70.064C144.324 70.064 145.86 72.016 145.86 75.104C145.86 78.208 144.324 80.16 142.196 80.16C140.052 80.16 138.516 78.208 138.516 75.104C138.516 72.016 140.052 70.064 142.196 70.064ZM140.196 75.104C140.196 77.296 141.012 78.576 142.196 78.576C143.38 78.576 144.18 77.296 144.18 75.104C144.18 72.928 143.38 71.664 142.196 71.664C141.012 71.664 140.196 72.928 140.196 75.104ZM147.7 83.296V69.056H149.476V74.544H151.636V76H149.476V83.296H147.7ZM156.948 70.016C159.172 70.016 160.82 71.456 160.82 73.472C160.82 75.504 159.172 76.928 156.948 76.928C154.708 76.928 153.06 75.504 153.06 73.472C153.06 71.456 154.708 70.016 156.948 70.016ZM152.42 78.896C154.948 78.896 158.5 78.88 161.524 78.416L161.652 79.696C158.532 80.304 155.124 80.336 152.628 80.336L152.42 78.896ZM154.772 73.472C154.772 74.656 155.7 75.424 156.948 75.424C158.18 75.424 159.108 74.656 159.108 73.472C159.108 72.272 158.18 71.536 156.948 71.536C155.7 71.536 154.772 72.272 154.772 73.472ZM162.372 83.312V69.024H164.116V83.312H162.372ZM170.044 76.032H175.596V74.608H171.644V69.632H181.356V71.024H173.372V73.2H181.484V74.608H177.356V76.032H182.924V77.424H170.044V76.032ZM171.468 79.952V78.56H181.388V83.36H179.628V79.952H171.468ZM184.028 80.128H189.58V77.344H185.452V69.984H187.196V72.304H193.724V69.984H195.468V77.344H191.324V80.128H196.924V81.568H184.028V80.128ZM187.196 75.936H193.724V73.696H187.196V75.936ZM205.693 72.56H208.061V69.056H209.821V77.536H208.061V74H205.693V72.56ZM197.965 76C200.221 75.232 201.405 73.36 201.405 71.472V71.312H198.461V69.904H206.109V71.312H203.181V71.472C203.181 73.216 204.317 74.96 206.509 75.712L205.629 77.088C204.061 76.544 202.957 75.456 202.333 74.112C201.725 75.6 200.541 76.8 198.861 77.376L197.965 76ZM200.205 79.648V78.224H209.821V83.296H208.061V79.648H200.205ZM221.997 69.056H223.757V79.344H221.997V69.056ZM212.237 73.568C212.237 71.472 213.901 69.984 216.045 69.984C218.205 69.984 219.853 71.472 219.853 73.568C219.853 75.632 218.205 77.136 216.045 77.136C213.901 77.136 212.237 75.632 212.237 73.568ZM213.949 73.568C213.949 74.8 214.861 75.6 216.045 75.6C217.229 75.6 218.141 74.8 218.141 73.568C218.141 72.304 217.229 71.504 216.045 71.504C214.861 71.504 213.949 72.304 213.949 73.568ZM214.413 83.008V78.32H216.157V81.6H224.141V83.008H214.413ZM101.782 95.04H103.462V109.28H101.782V95.04ZM91.7342 106.032V96.704H97.1422V98.112H93.4622V104.576C95.1262 104.56 96.3262 104.464 97.6862 104.192L97.8462 105.632C96.2462 105.968 94.8382 106.032 92.6942 106.032H91.7342ZM96.1662 101.76V100.336H98.8702V95.328H100.518V108.624H98.8702V101.76H96.1662ZM115.239 95.024H117.015V109.312H115.239V95.024ZM105.703 101.104C105.703 98.016 107.255 96.064 109.399 96.064C111.543 96.064 113.095 98.016 113.095 101.104C113.095 104.208 111.543 106.16 109.399 106.16C107.255 106.16 105.703 104.208 105.703 101.104ZM107.399 101.104C107.399 103.296 108.215 104.576 109.399 104.576C110.583 104.576 111.399 103.296 111.399 101.104C111.399 98.928 110.583 97.664 109.399 97.664C108.215 97.664 107.399 98.928 107.399 101.104ZM129.367 95.024H131.111V109.312H129.367V101.616H126.711V100.208H129.367V95.024ZM119.895 106.016V96.272H126.471V97.712H121.639V100.24H125.943V101.632H121.639V104.592C123.799 104.576 125.399 104.512 127.223 104.208L127.399 105.616C125.335 105.952 123.543 106.016 121.015 106.016H119.895ZM140.567 99.44H143.303V95.04H145.063V105.584H143.303V100.864H140.567V99.44ZM133.495 102.912C135.655 102.224 137.031 101.296 137.847 100.176L133.735 100.496L133.495 99.104L138.503 98.912C138.647 98.48 138.743 98.032 138.791 97.568H134.199V96.16H140.631C140.631 100.048 138.887 102.736 134.183 104.288L133.495 102.912ZM135.895 109.008V104.544H137.671V107.6H145.463V109.008H135.895ZM154.504 97.328H157.288V95.056H159.048V102.32H157.288V98.736H154.504V97.328ZM147.144 101.024C149.416 100.304 150.584 98.544 150.584 96.64V95.504H152.344V96.64C152.344 98.384 153.48 100.064 155.64 100.752L154.744 102.112C153.208 101.6 152.104 100.576 151.496 99.28C150.872 100.72 149.72 101.856 148.056 102.4L147.144 101.024ZM149.736 104.336V102.976H159.048V106.64H151.496V107.744H159.496V109.12H149.752V105.36H157.304V104.336H149.736ZM161.992 96.064H168.808V97.456H163.736V98.8H168.408V100.176H163.736V101.584C166.376 101.584 168.008 101.52 169.864 101.216L170.024 102.592C168.008 102.928 166.232 102.976 163.192 102.976H161.992V96.064ZM163.352 106.608C163.352 104.944 165.208 103.952 168.2 103.952C171.192 103.952 173.032 104.944 173.032 106.608C173.032 108.32 171.192 109.28 168.2 109.28C165.208 109.28 163.352 108.32 163.352 106.608ZM165.128 106.608C165.128 107.472 166.216 107.936 168.2 107.936C170.168 107.936 171.288 107.472 171.288 106.608C171.288 105.76 170.168 105.296 168.2 105.296C166.216 105.296 165.128 105.76 165.128 106.608ZM171.208 103.744V95.056H172.968V103.744H171.208ZM178.88 106.112H191.776V107.568H178.88V106.112ZM179.92 97.76V96.336H190.656V97.76H188.624V102.288H190.624V103.696H179.984V102.288H181.968V97.76H179.92ZM183.728 102.288H186.88V97.76H183.728V102.288ZM193.264 96.512H198.304V101.76H194.976V104.448C196.432 104.432 197.792 104.352 199.376 104.08L199.52 105.504C197.632 105.84 196.048 105.888 194.256 105.888H193.28V100.384H196.624V97.92H193.264V96.512ZM198.928 101.44V100H200.464V95.344H202.096V108.576H200.464V101.44H198.928ZM203.344 109.28V95.04H205.024V109.28H203.344ZM216.833 95.056H218.593V103.136H216.833V95.056ZM207.089 99.12C207.089 97.136 208.705 95.744 210.897 95.744C213.089 95.744 214.705 97.136 214.705 99.12C214.705 101.104 213.089 102.496 210.897 102.496C208.705 102.496 207.089 101.104 207.089 99.12ZM208.801 99.12C208.801 100.304 209.697 101.04 210.897 101.04C212.097 101.04 212.993 100.304 212.993 99.12C212.993 97.952 212.097 97.2 210.897 97.2C209.697 97.2 208.801 97.952 208.801 99.12ZM209.233 109.12V103.824H218.593V109.12H209.233ZM210.961 107.728H216.881V105.216H210.961V107.728ZM230.977 95.04H232.737V109.296H230.977V106.032H227.985V104.672H230.977V95.04ZM220.769 102.384C223.425 102.384 226.945 102.368 230.001 101.952L230.113 103.216C228.817 103.44 227.473 103.584 226.177 103.68V108.864H224.417V103.776C223.185 103.824 222.033 103.824 220.977 103.824L220.769 102.384ZM221.761 98.56C221.761 96.848 223.265 95.696 225.377 95.696C227.489 95.696 228.977 96.848 228.977 98.56C228.977 100.288 227.489 101.424 225.377 101.424C223.265 101.424 221.761 100.288 221.761 98.56ZM223.425 98.56C223.425 99.52 224.225 100.096 225.377 100.096C226.529 100.096 227.313 99.52 227.313 98.56C227.313 97.616 226.529 97.008 225.377 97.008C224.225 97.008 223.425 97.616 223.425 98.56ZM236.289 96.368H246.289V98.048C246.289 100.128 246.289 102.096 245.649 105.12L243.905 104.96C244.193 103.712 244.353 102.608 244.433 101.6L236.129 102.032L235.905 100.608L244.513 100.304C244.545 99.52 244.545 98.784 244.545 98.048V97.792H236.289V96.368ZM234.817 107.488V106.032H247.697V107.488H234.817ZM133.633 128.224C133.633 126.144 134.449 123.408 135.601 121.584H137.393C136.081 123.392 135.169 126.128 135.169 128.224C135.169 130.32 136.081 133.056 137.393 134.864H135.601C134.449 133.04 133.633 130.304 133.633 128.224ZM147.174 122.32V123.808H141.238V127.312H146.342V128.784H141.238V132.64H147.174V134.128H139.542V122.32H147.174ZM152.969 132.64C155.497 132.64 157.193 130.864 157.193 128.224C157.193 125.584 155.497 123.808 152.969 123.808L151.289 123.824V132.624L152.969 132.64ZM149.593 134.128V122.32H152.985C156.441 122.32 158.873 124.752 158.873 128.224C158.873 131.696 156.441 134.128 152.985 134.128H149.593ZM168.267 122.32V123.808H162.491V127.472H167.387V128.944H162.491V134.128H160.795V122.32H168.267ZM173.69 128.224C173.69 130.304 172.89 133.024 171.738 134.864H169.946C171.242 133.072 172.154 130.32 172.154 128.224C172.154 126.128 171.242 123.376 169.946 121.584H171.738C172.89 123.424 173.69 126.144 173.69 128.224ZM187.286 124.56H189.655V121.056H191.415V129.536H189.655V126H187.286V124.56ZM179.559 128C181.815 127.232 182.999 125.36 182.999 123.472V123.312H180.055V121.904H187.703V123.312H184.775V123.472C184.775 125.216 185.911 126.96 188.102 127.712L187.223 129.088C185.655 128.544 184.551 127.456 183.927 126.112C183.319 127.6 182.135 128.8 180.455 129.376L179.559 128ZM181.799 131.648V130.224H191.415V135.296H189.655V131.648H181.799ZM193.591 127.92H196.583V126.096C195.527 125.632 194.919 124.912 194.919 123.984C194.919 122.288 196.903 121.28 200.023 121.28C203.143 121.28 205.127 122.288 205.127 123.984C205.127 124.912 204.519 125.648 203.431 126.112V127.92H206.455V129.296H193.591V127.92ZM195.079 132.72C195.079 131.088 196.935 130.16 200.007 130.16C203.063 130.16 204.919 131.088 204.919 132.72C204.919 134.368 203.063 135.296 200.007 135.296C196.935 135.296 195.079 134.368 195.079 132.72ZM196.727 123.984C196.727 124.864 197.943 125.344 200.023 125.344C202.087 125.344 203.303 124.864 203.303 123.984C203.303 123.104 202.087 122.624 200.023 122.624C197.943 122.624 196.727 123.104 196.727 123.984ZM196.855 132.72C196.855 133.536 197.959 133.952 200.007 133.952C202.039 133.952 203.143 133.536 203.143 132.72C203.143 131.92 202.039 131.504 200.007 131.504C197.959 131.504 196.855 131.92 196.855 132.72ZM198.327 127.92H201.687V126.56C201.175 126.64 200.615 126.672 200.023 126.672C199.415 126.672 198.839 126.64 198.327 126.56V127.92Z" fill="#6D0CA6"/>
<circle opacity="0.4" cx="169.5" cy="268" r="95.5" fill="white" stroke="#9735D0"/>
<path d="M130.051 253.32L134.435 265.128H132.627L131.443 261.912H126.595L125.363 265.128H123.555L128.019 253.32H130.051ZM127.139 260.44H130.883L129.043 255.464L127.139 260.44ZM138.085 253.32V263.64H143.429V265.128H136.389V253.32H138.085ZM147.21 253.32V263.64H152.554V265.128H145.514V253.32H147.21ZM154.556 258.264H161.532V259.96H154.556V258.264ZM163.874 257.496H165.57V265.128H163.874V257.496ZM163.762 254.648C163.762 254.088 164.162 253.688 164.722 253.688C165.282 253.688 165.682 254.088 165.682 254.648C165.682 255.208 165.282 255.608 164.722 255.608C164.162 255.608 163.762 255.208 163.762 254.648ZM173.134 260.936C173.134 259.72 172.51 258.984 171.454 258.984C170.414 259 169.614 259.816 169.63 260.936V265.144H167.934V257.512H169.63V258.552C170.11 257.96 170.926 257.528 171.662 257.528C173.102 257.528 174.83 258.472 174.83 260.872V265.144H173.134V260.936ZM176.884 258.264H183.86V259.96H176.884V258.264ZM191.962 263.768C194.458 263.768 196.138 261.944 196.138 259.224C196.138 256.504 194.458 254.68 191.962 254.68C189.466 254.68 187.802 256.504 187.802 259.224C187.802 261.944 189.466 263.768 191.962 263.768ZM186.09 259.224C186.09 255.688 188.522 253.192 191.962 253.192C195.418 253.192 197.85 255.688 197.85 259.224C197.85 262.76 195.418 265.256 191.962 265.256C188.522 265.256 186.09 262.76 186.09 259.224ZM204.915 260.936C204.915 259.72 204.291 258.984 203.235 258.984C202.195 259 201.395 259.816 201.411 260.936V265.144H199.715V257.512H201.411V258.552C201.891 257.96 202.707 257.528 203.443 257.528C204.883 257.528 206.611 258.472 206.611 260.872V265.144H204.915V260.936ZM212.013 265.176C209.853 265.176 208.333 263.592 208.333 261.352C208.333 259.096 209.853 257.512 212.013 257.512C214.381 257.512 215.133 259.448 215.181 259.576C215.645 260.664 215.501 261.88 215.501 262.008H209.997C210.189 263.032 211.053 263.736 212.013 263.736C213.277 263.736 213.789 263 213.917 262.776L215.277 263.384C214.909 264.248 213.837 265.176 212.013 265.176ZM209.997 260.664H213.901C213.741 259.72 213.197 258.952 212.013 258.952C210.989 258.952 210.189 259.672 209.997 260.664ZM122.922 289.64C125.45 289.64 127.146 287.864 127.146 285.224C127.146 282.584 125.45 280.808 122.922 280.808L121.242 280.824V289.624L122.922 289.64ZM119.546 291.128V279.32H122.938C126.394 279.32 128.826 281.752 128.826 285.224C128.826 288.696 126.394 291.128 122.938 291.128H119.546ZM133.824 291.208C131.712 291.208 130.208 289.608 130.208 287.368C130.208 285.128 131.712 283.528 133.824 283.528C134.576 283.528 135.408 283.88 136.016 284.6V283.512H137.712V291.144H136.016V290.12C135.408 290.888 134.576 291.208 133.824 291.208ZM131.904 287.368C131.904 288.808 132.72 289.768 133.936 289.768C135.056 289.768 136.016 288.76 136.032 287.368C136.016 285.976 135.056 284.968 133.936 284.968C132.72 284.968 131.904 285.912 131.904 287.368ZM140.675 291.144V284.968H139.235V283.496H140.675V280.824H142.371V283.496H144.179V284.968H142.371V291.144H140.675ZM148.996 291.208C146.884 291.208 145.38 289.608 145.38 287.368C145.38 285.128 146.884 283.528 148.996 283.528C149.748 283.528 150.58 283.88 151.188 284.6V283.512H152.884V291.144H151.188V290.12C150.58 290.888 149.748 291.208 148.996 291.208ZM147.076 287.368C147.076 288.808 147.892 289.768 149.108 289.768C150.228 289.768 151.188 288.76 151.204 287.368C151.188 285.976 150.228 284.968 149.108 284.968C147.892 284.968 147.076 285.912 147.076 287.368ZM163.334 285.208C164.614 285.208 165.51 284.296 165.51 283C165.51 281.72 164.598 280.808 163.318 280.808H160.726V285.208H163.334ZM159.03 291.128V279.32H163.382C165.622 279.32 167.19 280.84 167.19 283C167.19 285.16 165.622 286.68 163.382 286.68H160.726V291.128H159.03ZM168.618 279.704H170.314V291.128H168.618V279.704ZM175.527 291.208C173.415 291.208 171.911 289.608 171.911 287.368C171.911 285.128 173.415 283.528 175.527 283.528C176.279 283.528 177.111 283.88 177.719 284.6V283.512H179.415V291.144H177.719V290.12C177.111 290.888 176.279 291.208 175.527 291.208ZM173.607 287.368C173.607 288.808 174.423 289.768 175.639 289.768C176.759 289.768 177.719 288.76 177.735 287.368C177.719 285.976 176.759 284.968 175.639 284.968C174.423 284.968 173.607 285.912 173.607 287.368ZM182.378 291.144V284.968H180.938V283.496H182.378V280.824H184.074V283.496H185.882V284.968H184.074V291.144H182.378ZM190.212 291.144H188.516V284.984H187.172V283.48H188.516V281.88C188.516 280.472 189.492 279.4 190.9 279.304C191.556 279.256 192.372 279.512 192.756 279.896L191.892 281.144C191.54 280.84 191.316 280.776 191.044 280.808C190.548 280.856 190.212 281.272 190.212 281.88V283.48H192.356V284.984H190.212V291.144ZM197.013 289.752C198.197 289.752 198.997 288.808 198.997 287.352C198.997 285.912 198.197 284.952 197.013 284.952C195.829 284.952 195.029 285.896 195.029 287.352C195.029 288.808 195.813 289.752 197.013 289.752ZM193.333 287.352C193.333 285.096 194.853 283.496 197.013 283.496C199.173 283.496 200.693 285.096 200.693 287.352C200.693 289.592 199.173 291.208 197.013 291.208C194.853 291.208 193.333 289.592 193.333 287.352ZM202.338 291.144V283.512H204.034V284.632C204.546 283.912 205.474 283.432 206.37 283.48V285.048C205.01 284.984 204.034 286.184 204.034 287.352V291.144H202.338ZM217.88 286.808C217.88 285.72 217.288 285 216.424 285C215.448 285 214.792 285.752 214.792 286.728V291.144H213.08V286.808C213.08 285.72 212.504 285 211.656 285C210.68 285 209.992 285.832 209.992 286.904V291.144H208.296V283.512H209.992V284.552C210.44 283.944 211.096 283.528 211.816 283.528C212.728 283.528 213.624 284.104 214.072 284.904C214.6 284.104 215.624 283.528 216.536 283.528C218.344 283.528 219.592 284.872 219.592 286.744V291.144H217.88V286.808Z" fill="#6D0CA6"/>
<circle opacity="0.4" cx="169.5" cy="440" r="95.5" fill="white" stroke="#9735D0"/>
<path d="M96.1209 413.728H105.817V414.832C105.817 415.968 105.817 417.216 105.481 418.896H107.401V420.32H94.5049V418.896H103.737C104.073 417.36 104.105 416.208 104.105 415.152H96.1209V413.728ZM96.0409 427.136V421.968H105.801V427.136H96.0409ZM97.7689 425.728H104.089V423.344H97.7689V425.728ZM108.489 419.552H121.353V420.944H118.377V422.768C119.305 423.2 119.817 423.856 119.817 424.72C119.817 426.368 117.961 427.296 114.905 427.296C111.833 427.296 109.977 426.368 109.977 424.72C109.977 423.84 110.505 423.168 111.481 422.736V420.944H108.489V419.552ZM109.817 416.016C109.817 414.32 111.801 413.312 114.921 413.312C118.041 413.312 120.025 414.32 120.025 416.016C120.025 417.712 118.041 418.72 114.921 418.72C111.801 418.72 109.817 417.712 109.817 416.016ZM111.625 416.016C111.625 416.912 112.841 417.376 114.921 417.376C116.985 417.376 118.201 416.912 118.201 416.016C118.201 415.136 116.985 414.656 114.921 414.656C112.841 414.656 111.625 415.136 111.625 416.016ZM111.753 424.72C111.753 425.536 112.857 425.952 114.905 425.952C116.937 425.952 118.041 425.536 118.041 424.72C118.041 423.904 116.937 423.488 114.905 423.488C112.857 423.488 111.753 423.904 111.753 424.72ZM113.241 422.272C113.753 422.192 114.297 422.16 114.905 422.16C115.529 422.16 116.105 422.192 116.617 422.272V420.944H113.241V422.272ZM124.842 424.528L123.754 428.208H122.49L123.098 424.528H124.842ZM137.248 421.968C140.304 421.968 142.272 422.976 142.272 424.64C142.272 426.288 140.304 427.296 137.248 427.296C134.192 427.296 132.24 426.288 132.24 424.64C132.24 422.976 134.192 421.968 137.248 421.968ZM130.896 420.928V419.52H135.856V416.944H137.6V419.52H143.728V420.928H130.896ZM132.368 415.12V413.728H142.16V414.912C142.16 416.048 142.16 417.232 141.776 418.704L140.048 418.512C140.4 417.152 140.416 416.144 140.416 415.12H132.368ZM133.984 424.64C133.984 425.488 135.2 425.952 137.248 425.952C139.296 425.952 140.512 425.488 140.512 424.64C140.512 423.776 139.296 423.296 137.248 423.296C135.2 423.296 133.984 423.776 133.984 424.64ZM151.232 421.968C154.288 421.968 156.256 422.976 156.256 424.64C156.256 426.288 154.288 427.296 151.232 427.296C148.176 427.296 146.224 426.288 146.224 424.64C146.224 422.976 148.176 421.968 151.232 421.968ZM144.88 420.928V419.52H149.84V416.944H151.584V419.52H157.712V420.928H144.88ZM146.352 415.12V413.728H156.144V414.912C156.144 416.048 156.144 417.232 155.76 418.704L154.032 418.512C154.384 417.152 154.4 416.144 154.4 415.12H146.352ZM147.968 424.64C147.968 425.488 149.184 425.952 151.232 425.952C153.28 425.952 154.496 425.488 154.496 424.64C154.496 423.776 153.28 423.296 151.232 423.296C149.184 423.296 147.968 423.776 147.968 424.64ZM161.217 424.528L160.129 428.208H158.865L159.473 424.528H161.217ZM177.735 413.04H179.399V427.28H177.735V413.04ZM166.999 423.264C169.031 421.984 169.911 419.424 169.911 416.928V416H167.463V414.56H173.879V416H171.623V416.928C171.623 419.328 172.455 421.76 174.471 422.944L173.431 424.208C172.135 423.424 171.271 422.08 170.775 420.464C170.295 422.224 169.399 423.712 168.055 424.56L166.999 423.264ZM172.839 419.44V418.016H174.871V413.312H176.503V426.608H174.871V419.44H172.839ZM181.239 424.128H186.807V420.864H188.567V424.128H194.135V425.568H181.239V424.128ZM181.783 420.048C184.647 419.584 186.711 417.664 186.759 415.616H182.311V414.208H193.031V415.616H188.583C188.631 417.664 190.711 419.536 193.623 419.984L192.935 421.376C190.535 420.928 188.599 419.664 187.687 417.888C186.775 419.68 184.855 420.976 182.487 421.44L181.783 420.048ZM197.592 424.528L196.504 428.208H195.24L195.848 424.528H197.592ZM199.942 421.04H212.838V422.48H209.702V427.28H207.91V422.48H204.806V427.28H202.998V422.48H199.942V421.04ZM201.27 416.72C201.27 414.784 203.334 413.584 206.342 413.584C209.366 413.584 211.43 414.784 211.43 416.72C211.43 418.656 209.366 419.872 206.342 419.872C203.334 419.872 201.27 418.656 201.27 416.72ZM203.078 416.72C203.078 417.84 204.358 418.464 206.342 418.464C208.342 418.464 209.638 417.84 209.638 416.72C209.638 415.632 208.342 414.976 206.342 414.976C204.358 414.976 203.078 415.632 203.078 416.72ZM213.911 420.464H219.463V419.392H215.559V413.44H225.271V414.784H217.303V415.728H224.935V417.04H217.303V418.048H225.367V419.392H221.223V420.464H226.775V421.856H213.911V420.464ZM215.415 424.976C215.415 423.456 217.207 422.672 220.343 422.672C223.447 422.672 225.255 423.456 225.255 424.976C225.255 426.48 223.447 427.28 220.343 427.28C217.207 427.28 215.415 426.48 215.415 424.976ZM217.191 424.976C217.191 425.664 218.247 425.984 220.343 425.984C222.423 425.984 223.495 425.664 223.495 424.976C223.495 424.288 222.423 423.952 220.343 423.952C218.247 423.952 217.191 424.288 217.191 424.976ZM231.615 419.68H244.479V421.104H231.615V419.68ZM233.087 424.688C233.087 423.024 234.943 422.096 238.015 422.096C241.071 422.096 242.927 423.024 242.927 424.688C242.927 426.352 241.071 427.296 238.015 427.296C234.943 427.296 233.087 426.352 233.087 424.688ZM233.199 418.544V413.504H242.911V414.928H234.927V417.136H243.007V418.544H233.199ZM234.863 424.688C234.863 425.52 235.983 425.936 238.015 425.936C240.047 425.936 241.151 425.52 241.151 424.688C241.151 423.872 240.047 423.44 238.015 423.44C235.983 423.44 234.863 423.872 234.863 424.688ZM107.59 439.024H109.366V444.432H111.526V445.888H109.366V453.312H107.59V439.024ZM98.8544 449.84V440.4H105.494V441.808H100.614V448.368C102.838 448.352 104.566 448.256 106.486 447.904L106.662 449.376C104.502 449.776 102.582 449.84 100.022 449.84H98.8544ZM116.231 439.856C118.407 439.856 120.039 441.264 120.039 443.264C120.039 445.264 118.407 446.672 116.231 446.672C114.039 446.672 112.423 445.264 112.423 443.264C112.423 441.264 114.039 439.856 116.231 439.856ZM114.039 450.528C114.039 448.784 115.879 447.76 118.807 447.76C121.735 447.76 123.559 448.784 123.559 450.528C123.559 452.256 121.735 453.28 118.807 453.28C115.879 453.28 114.039 452.256 114.039 450.528ZM114.135 443.264C114.135 444.464 115.031 445.2 116.231 445.2C117.431 445.2 118.327 444.464 118.327 443.264C118.327 442.08 117.431 441.328 116.231 441.328C115.031 441.328 114.135 442.08 114.135 443.264ZM115.783 450.528C115.783 451.408 116.871 451.904 118.807 451.904C120.727 451.904 121.831 451.408 121.831 450.528C121.831 449.616 120.727 449.152 118.807 449.152C116.871 449.152 115.783 449.616 115.783 450.528ZM121.639 447.408V439.056H123.399V440.944H125.319V442.384H123.399V444.016H125.319V445.456H123.399V447.408H121.639ZM135.623 439.056H137.383V443.52H139.367V444.976H137.383V449.712H135.623V439.056ZM126.263 442.016V440.624H129.575V439.04H131.335V440.624H134.647V442.016H126.263ZM126.999 445.344C126.999 443.728 128.423 442.64 130.455 442.64C132.503 442.64 133.927 443.728 133.927 445.344C133.927 446.976 132.503 448.064 130.455 448.064C128.423 448.064 126.999 446.976 126.999 445.344ZM128.327 453.008V448.88H130.087V451.6H137.959V453.008H128.327ZM128.679 445.344C128.679 446.208 129.399 446.704 130.455 446.704C131.511 446.704 132.231 446.208 132.231 445.344C132.231 444.48 131.511 443.984 130.455 443.984C129.399 443.984 128.679 444.48 128.679 445.344ZM143.544 439.904H145.304V441.552C145.304 443.408 146.44 445.2 148.664 445.952L147.767 447.328C146.2 446.8 145.08 445.712 144.456 444.336C143.848 445.856 142.68 447.04 141.016 447.632L140.072 446.256C142.392 445.472 143.544 443.568 143.544 441.536V439.904ZM142.344 453.008V448.496H144.104V451.6H151.928V453.008H142.344ZM149.608 449.488V439.04H151.368V443.264H153.352V444.72H151.368V449.488H149.608ZM158.12 439.664C159.976 439.664 161.416 440.72 161.752 442.288H164.28V439.056H166.04V446.688H164.28V443.712H161.768C161.448 445.312 159.992 446.384 158.12 446.384C155.976 446.384 154.392 444.992 154.392 443.024C154.392 441.056 155.976 439.664 158.12 439.664ZM156.072 443.024C156.072 444.176 156.92 444.912 158.12 444.912C159.304 444.912 160.152 444.176 160.152 443.024C160.152 441.856 159.304 441.12 158.12 441.12C156.92 441.12 156.072 441.856 156.072 443.024ZM156.712 453.12V447.36H158.472V448.864H164.296V447.36H166.04V453.12H156.712ZM158.472 451.712H164.296V450.224H158.472V451.712ZM173.592 446.448H175.8V444.288H173.864C173.192 446.672 171.72 448.704 169.048 450.288L168.056 449.04C170.952 447.296 172.296 445.072 172.552 442.192H168.792V440.768H174.296C174.296 441.504 174.248 442.208 174.152 442.896H175.8V439.376H177.448V452.608H175.8V447.856H173.592V446.448ZM178.712 453.28V439.04H180.376V453.28H178.712ZM186.761 440.016C188.985 440.016 190.633 441.456 190.633 443.472C190.633 445.504 188.985 446.928 186.761 446.928C184.521 446.928 182.873 445.504 182.873 443.472C182.873 441.456 184.521 440.016 186.761 440.016ZM182.233 448.896C184.761 448.896 188.313 448.88 191.337 448.416L191.465 449.696C188.345 450.304 184.937 450.336 182.441 450.336L182.233 448.896ZM184.585 443.472C184.585 444.656 185.513 445.424 186.761 445.424C187.993 445.424 188.921 444.656 188.921 443.472C188.921 442.272 187.993 441.536 186.761 441.536C185.513 441.536 184.585 442.272 184.585 443.472ZM192.185 453.312V439.024H193.929V453.312H192.185ZM210.353 439.04H212.033V453.28H210.353V439.04ZM200.305 450.032V440.704H205.713V442.112H202.033V448.576C203.697 448.56 204.897 448.464 206.257 448.192L206.417 449.632C204.817 449.968 203.409 450.032 201.265 450.032H200.305ZM204.737 445.76V444.336H207.441V439.328H209.089V452.624H207.441V445.76H204.737ZM223.809 439.024H225.585V453.312H223.809V439.024ZM214.273 445.104C214.273 442.016 215.825 440.064 217.969 440.064C220.113 440.064 221.665 442.016 221.665 445.104C221.665 448.208 220.113 450.16 217.969 450.16C215.825 450.16 214.273 448.208 214.273 445.104ZM215.969 445.104C215.969 447.296 216.785 448.576 217.969 448.576C219.153 448.576 219.969 447.296 219.969 445.104C219.969 442.928 219.153 441.664 217.969 441.664C216.785 441.664 215.969 442.928 215.969 445.104ZM237.937 439.024H239.681V453.312H237.937V445.616H235.281V444.208H237.937V439.024ZM228.465 450.016V440.272H235.041V441.712H230.209V444.24H234.513V445.632H230.209V448.592C232.369 448.576 233.969 448.512 235.793 448.208L235.969 449.616C233.905 449.952 232.113 450.016 229.585 450.016H228.465ZM113.971 466.208H115.747V468.448C115.747 471.072 117.091 473.696 119.379 474.704L118.355 476.128C116.707 475.36 115.523 473.84 114.883 471.984C114.243 473.984 113.027 475.616 111.315 476.432L110.259 474.976C112.595 473.936 113.971 471.2 113.971 468.448V466.208ZM120.387 479.312V465.024H122.147V479.312H120.387ZM129.859 465.92H131.715V466.976C131.715 469.184 133.827 471.392 136.787 471.904L136.019 473.36C133.635 472.88 131.699 471.44 130.787 469.536C129.859 471.424 127.923 472.88 125.555 473.36L124.803 471.904C127.715 471.376 129.859 469.168 129.859 466.976V465.92ZM124.403 477.472V476.032H137.299V477.472H124.403ZM144.436 468.528H146.02V465.264H147.668V473.44H146.02V469.936H144.436V468.528ZM138.98 472.896V465.92H144.34V467.328H140.66V468.688H143.812V470.032H140.66V471.504C142.34 471.488 143.524 471.424 144.9 471.184L145.044 472.56C143.444 472.864 142.084 472.896 139.924 472.896H138.98ZM140.932 479.12V474.176H150.452V479.12H140.932ZM142.66 477.728H148.756V475.552H142.66V477.728ZM148.788 473.568V465.056H150.452V473.568H148.788ZM157.596 465.92H167.356V467.168C167.356 468.512 167.356 469.968 166.988 472H168.94V473.44H163.34V479.312H161.564V473.44H156.06V472H165.212C165.612 470.08 165.628 468.624 165.628 467.328H157.596V465.92ZM170.044 472.112H182.908V473.52H177.356V474.88H181.34V479.264H179.596V476.288H171.468V474.88H175.58V473.52H170.044V472.112ZM170.668 470.176C173.644 469.968 175.292 468.944 175.484 467.744H171.308V466.384H175.58V465.024H177.356V466.384H181.644V467.744H177.452C177.644 468.944 179.292 469.968 182.268 470.176L181.74 471.504C179.212 471.296 177.356 470.512 176.476 469.28C175.58 470.512 173.724 471.296 171.196 471.504L170.668 470.176ZM194.524 465.04H196.188V479.28H194.524V465.04ZM184.156 471.2C184.156 468.048 185.356 466.112 187.212 466.112C188.924 466.112 190.076 467.728 190.268 470.4H191.644V465.312H193.292V478.608H191.644V471.824H190.284C190.14 474.624 188.956 476.304 187.212 476.304C185.356 476.304 184.156 474.368 184.156 471.2ZM185.756 471.2C185.756 473.44 186.3 474.656 187.212 474.656C188.14 474.656 188.684 473.44 188.684 471.2C188.684 468.976 188.14 467.776 187.212 467.776C186.3 467.776 185.756 468.976 185.756 471.2ZM211.124 465.04H212.884V468.512H214.804V469.968H212.884V473.424H211.124V465.04ZM201.556 472C202.612 472 203.844 472 205.124 471.968V471.232C203.556 471.072 202.58 470.416 202.58 469.408C202.58 468.24 203.908 467.536 205.972 467.536C208.068 467.536 209.396 468.24 209.396 469.408C209.396 470.416 208.436 471.056 206.868 471.232V471.904C208.084 471.84 209.284 471.744 210.42 471.6L210.548 472.672C207.54 473.2 204.228 473.232 201.748 473.232L201.556 472ZM201.924 467.2V466H205.124V464.912H206.868V466H210.036V467.2H201.924ZM203.46 475.168V474H212.884V477.088H205.22V477.984H213.396V479.168H203.476V475.984H211.156V475.168H203.46ZM204.244 469.408C204.244 469.904 204.9 470.176 205.972 470.176C207.076 470.176 207.732 469.904 207.732 469.408C207.732 468.912 207.076 468.64 205.972 468.64C204.9 468.64 204.244 468.912 204.244 469.408ZM215.685 471.92H218.677V470.096C217.621 469.632 217.013 468.912 217.013 467.984C217.013 466.288 218.997 465.28 222.117 465.28C225.237 465.28 227.221 466.288 227.221 467.984C227.221 468.912 226.613 469.648 225.525 470.112V471.92H228.549V473.296H215.685V471.92ZM217.173 476.72C217.173 475.088 219.029 474.16 222.101 474.16C225.157 474.16 227.013 475.088 227.013 476.72C227.013 478.368 225.157 479.296 222.101 479.296C219.029 479.296 217.173 478.368 217.173 476.72ZM218.821 467.984C218.821 468.864 220.037 469.344 222.117 469.344C224.181 469.344 225.397 468.864 225.397 467.984C225.397 467.104 224.181 466.624 222.117 466.624C220.037 466.624 218.821 467.104 218.821 467.984ZM218.949 476.72C218.949 477.536 220.053 477.952 222.101 477.952C224.133 477.952 225.237 477.536 225.237 476.72C225.237 475.92 224.133 475.504 222.101 475.504C220.053 475.504 218.949 475.92 218.949 476.72ZM220.421 471.92H223.781V470.56C223.269 470.64 222.709 470.672 222.117 470.672C221.509 470.672 220.933 470.64 220.421 470.56V471.92Z" fill="#6D0CA6"/>
</svg>
