<svg width="632" height="225" viewBox="0 0 632 225" fill="none" xmlns="http://www.w3.org/2000/svg">
<circle opacity="0.4" cx="112" cy="112.75" r="111.5" fill="white" stroke="#9735D0"/>
<path d="M56.231 80.862C57.911 80.862 59.175 82.014 59.431 83.726H60.551V80.046H62.199V89.998H60.551V85.166H59.415C59.127 86.83 57.879 87.934 56.231 87.934C54.359 87.934 52.983 86.478 52.983 84.398C52.983 82.318 54.359 80.862 56.231 80.862ZM54.567 84.398C54.567 85.646 55.271 86.446 56.231 86.446C57.191 86.446 57.911 85.646 57.911 84.398C57.911 83.15 57.191 82.366 56.231 82.366C55.271 82.366 54.567 83.15 54.567 84.398ZM55.527 93.758V89.054H57.287V92.35H65.383V93.758H55.527ZM63.319 90.398V79.806H64.983V90.398H63.319ZM68.3754 81.054H78.4074V82.35C78.4074 84.062 78.4074 86.062 77.7834 89.086L76.0394 88.894C76.2954 87.758 76.4394 86.734 76.5354 85.838L68.1994 86.286L67.9754 84.782L76.6314 84.494C76.6634 83.758 76.6634 83.086 76.6634 82.478H68.3754V81.054ZM66.9034 92.27V90.846H71.6394V87.342H73.3834V90.846H79.7674V92.27H66.9034ZM84.6958 80.814C86.8238 80.814 88.3598 82.766 88.3598 85.854C88.3598 88.958 86.8238 90.91 84.6958 90.91C82.5518 90.91 81.0158 88.958 81.0158 85.854C81.0158 82.766 82.5518 80.814 84.6958 80.814ZM82.6957 85.854C82.6957 88.046 83.5118 89.326 84.6958 89.326C85.8798 89.326 86.6798 88.046 86.6798 85.854C86.6798 83.678 85.8798 82.414 84.6958 82.414C83.5118 82.414 82.6957 83.678 82.6957 85.854ZM90.1998 94.046V79.806H91.9758V85.294H94.1358V86.75H91.9758V94.046H90.1998ZM99.4481 80.766C101.672 80.766 103.32 82.206 103.32 84.222C103.32 86.254 101.672 87.678 99.4481 87.678C97.2081 87.678 95.5601 86.254 95.5601 84.222C95.5601 82.206 97.2081 80.766 99.4481 80.766ZM94.9201 89.646C97.4481 89.646 101 89.63 104.024 89.166L104.152 90.446C101.032 91.054 97.6241 91.086 95.1281 91.086L94.9201 89.646ZM97.2721 84.222C97.2721 85.406 98.2001 86.174 99.4481 86.174C100.68 86.174 101.608 85.406 101.608 84.222C101.608 83.022 100.68 82.286 99.4481 82.286C98.2001 82.286 97.2721 83.022 97.2721 84.222ZM104.872 94.062V79.774H106.616V94.062H104.872ZM112.544 86.782H118.096V85.358H114.144V80.382H123.856V81.774H115.872V83.95H123.984V85.358H119.856V86.782H125.424V88.174H112.544V86.782ZM113.968 90.702V89.31H123.888V94.11H122.128V90.702H113.968ZM126.528 90.878H132.08V88.094H127.952V80.734H129.696V83.054H136.224V80.734H137.968V88.094H133.824V90.878H139.424V92.318H126.528V90.878ZM129.696 86.686H136.224V84.446H129.696V86.686ZM148.193 83.31H150.561V79.806H152.321V88.286H150.561V84.75H148.193V83.31ZM140.465 86.75C142.721 85.982 143.905 84.11 143.905 82.222V82.062H140.961V80.654H148.609V82.062H145.681V82.222C145.681 83.966 146.817 85.71 149.009 86.462L148.129 87.838C146.561 87.294 145.457 86.206 144.833 84.862C144.225 86.35 143.041 87.55 141.361 88.126L140.465 86.75ZM142.705 90.398V88.974H152.321V94.046H150.561V90.398H142.705ZM164.497 79.806H166.257V90.094H164.497V79.806ZM154.737 84.318C154.737 82.222 156.401 80.734 158.545 80.734C160.705 80.734 162.353 82.222 162.353 84.318C162.353 86.382 160.705 87.886 158.545 87.886C156.401 87.886 154.737 86.382 154.737 84.318ZM156.449 84.318C156.449 85.55 157.361 86.35 158.545 86.35C159.729 86.35 160.641 85.55 160.641 84.318C160.641 83.054 159.729 82.254 158.545 82.254C157.361 82.254 156.449 83.054 156.449 84.318ZM156.913 93.758V89.07H158.657V92.35H166.641V93.758H156.913ZM44.2822 105.79H45.9622V120.03H44.2822V105.79ZM34.2342 116.782V107.454H39.6422V108.862H35.9622V115.326C37.6262 115.31 38.8262 115.214 40.1862 114.942L40.3462 116.382C38.7462 116.718 37.3382 116.782 35.1942 116.782H34.2342ZM38.6662 112.51V111.086H41.3702V106.078H43.0182V119.374H41.3702V112.51H38.6662ZM57.7386 105.774H59.5146V120.062H57.7386V105.774ZM48.2026 111.854C48.2026 108.766 49.7546 106.814 51.8986 106.814C54.0426 106.814 55.5946 108.766 55.5946 111.854C55.5946 114.958 54.0426 116.91 51.8986 116.91C49.7546 116.91 48.2026 114.958 48.2026 111.854ZM49.8986 111.854C49.8986 114.046 50.7146 115.326 51.8986 115.326C53.0826 115.326 53.8986 114.046 53.8986 111.854C53.8986 109.678 53.0826 108.414 51.8986 108.414C50.7146 108.414 49.8986 109.678 49.8986 111.854ZM71.8669 105.774H73.6109V120.062H71.8669V112.366H69.2109V110.958H71.8669V105.774ZM62.3949 116.766V107.022H68.9709V108.462H64.1389V110.99H68.4429V112.382H64.1389V115.342C66.2989 115.326 67.8989 115.262 69.7229 114.958L69.8989 116.366C67.8349 116.702 66.0429 116.766 63.5149 116.766H62.3949ZM83.0673 110.19H85.8033V105.79H87.5633V116.334H85.8033V111.614H83.0673V110.19ZM75.9953 113.662C78.1553 112.974 79.5313 112.046 80.3473 110.926L76.2353 111.246L75.9953 109.854L81.0033 109.662C81.1473 109.23 81.2433 108.782 81.2913 108.318H76.6993V106.91H83.1313C83.1313 110.798 81.3873 113.486 76.6833 115.038L75.9953 113.662ZM78.3953 119.758V115.294H80.1713V118.35H87.9633V119.758H78.3953ZM97.0037 108.078H99.7877V105.806H101.548V113.07H99.7877V109.486H97.0037V108.078ZM89.6437 111.774C91.9157 111.054 93.0837 109.294 93.0837 107.39V106.254H94.8437V107.39C94.8437 109.134 95.9797 110.814 98.1397 111.502L97.2437 112.862C95.7077 112.35 94.6037 111.326 93.9957 110.03C93.3717 111.47 92.2197 112.606 90.5557 113.15L89.6437 111.774ZM92.2357 115.086V113.726H101.548V117.39H93.9957V118.494H101.996V119.87H92.2517V116.11H99.8037V115.086H92.2357ZM104.492 106.814H111.308V108.206H106.236V109.55H110.908V110.926H106.236V112.334C108.876 112.334 110.508 112.27 112.364 111.966L112.524 113.342C110.508 113.678 108.732 113.726 105.692 113.726H104.492V106.814ZM105.852 117.358C105.852 115.694 107.708 114.702 110.7 114.702C113.692 114.702 115.532 115.694 115.532 117.358C115.532 119.07 113.692 120.03 110.7 120.03C107.708 120.03 105.852 119.07 105.852 117.358ZM107.628 117.358C107.628 118.222 108.716 118.686 110.7 118.686C112.668 118.686 113.788 118.222 113.788 117.358C113.788 116.51 112.668 116.046 110.7 116.046C108.716 116.046 107.628 116.51 107.628 117.358ZM113.708 114.494V105.806H115.468V114.494H113.708ZM121.38 116.862H134.276V118.318H121.38V116.862ZM122.42 108.51V107.086H133.156V108.51H131.124V113.038H133.124V114.446H122.484V113.038H124.468V108.51H122.42ZM126.228 113.038H129.38V108.51H126.228V113.038ZM135.764 107.262H140.804V112.51H137.476V115.198C138.932 115.182 140.292 115.102 141.876 114.83L142.02 116.254C140.132 116.59 138.548 116.638 136.756 116.638H135.78V111.134H139.124V108.67H135.764V107.262ZM141.428 112.19V110.75H142.964V106.094H144.596V119.326H142.964V112.19H141.428ZM145.844 120.03V105.79H147.524V120.03H145.844ZM159.333 105.806H161.093V113.886H159.333V105.806ZM149.589 109.87C149.589 107.886 151.205 106.494 153.397 106.494C155.589 106.494 157.205 107.886 157.205 109.87C157.205 111.854 155.589 113.246 153.397 113.246C151.205 113.246 149.589 111.854 149.589 109.87ZM151.301 109.87C151.301 111.054 152.197 111.79 153.397 111.79C154.597 111.79 155.493 111.054 155.493 109.87C155.493 108.702 154.597 107.95 153.397 107.95C152.197 107.95 151.301 108.702 151.301 109.87ZM151.733 119.87V114.574H161.093V119.87H151.733ZM153.461 118.478H159.381V115.966H153.461V118.478ZM173.477 105.79H175.237V120.046H173.477V116.782H170.485V115.422H173.477V105.79ZM163.269 113.134C165.925 113.134 169.445 113.118 172.501 112.702L172.613 113.966C171.317 114.19 169.973 114.334 168.677 114.43V119.614H166.917V114.526C165.685 114.574 164.533 114.574 163.477 114.574L163.269 113.134ZM164.261 109.31C164.261 107.598 165.765 106.446 167.877 106.446C169.989 106.446 171.477 107.598 171.477 109.31C171.477 111.038 169.989 112.174 167.877 112.174C165.765 112.174 164.261 111.038 164.261 109.31ZM165.925 109.31C165.925 110.27 166.725 110.846 167.877 110.846C169.029 110.846 169.813 110.27 169.813 109.31C169.813 108.366 169.029 107.758 167.877 107.758C166.725 107.758 165.925 108.366 165.925 109.31ZM178.789 107.118H188.789V108.798C188.789 110.878 188.789 112.846 188.149 115.87L186.405 115.71C186.693 114.462 186.853 113.358 186.933 112.35L178.629 112.782L178.405 111.358L187.013 111.054C187.045 110.27 187.045 109.534 187.045 108.798V108.542H178.789V107.118ZM177.317 118.238V116.782H190.197V118.238H177.317ZM76.1328 138.974C76.1328 136.894 76.9488 134.158 78.1008 132.334H79.8928C78.5807 134.142 77.6688 136.878 77.6688 138.974C77.6688 141.07 78.5807 143.806 79.8928 145.614H78.1008C76.9488 143.79 76.1328 141.054 76.1328 138.974ZM89.6735 133.07V134.558H83.7375V138.062H88.8415V139.534H83.7375V143.39H89.6735V144.878H82.0415V133.07H89.6735ZM95.4689 143.39C97.9969 143.39 99.6929 141.614 99.6929 138.974C99.6929 136.334 97.9969 134.558 95.4689 134.558L93.7889 134.574V143.374L95.4689 143.39ZM92.0929 144.878V133.07H95.4849C98.9409 133.07 101.373 135.502 101.373 138.974C101.373 142.446 98.9409 144.878 95.4849 144.878H92.0929ZM110.767 133.07V134.558H104.991V138.222H109.887V139.694H104.991V144.878H103.295V133.07H110.767ZM116.19 138.974C116.19 141.054 115.39 143.774 114.238 145.614H112.446C113.742 143.822 114.654 141.07 114.654 138.974C114.654 136.878 113.742 134.126 112.446 132.334H114.238C115.39 134.174 116.19 136.894 116.19 138.974ZM129.786 135.31H132.155V131.806H133.915V140.286H132.155V136.75H129.786V135.31ZM122.059 138.75C124.315 137.982 125.499 136.11 125.499 134.222V134.062H122.555V132.654H130.203V134.062H127.275V134.222C127.275 135.966 128.411 137.71 130.602 138.462L129.723 139.838C128.155 139.294 127.051 138.206 126.427 136.862C125.819 138.35 124.635 139.55 122.955 140.126L122.059 138.75ZM124.299 142.398V140.974H133.915V146.046H132.155V142.398H124.299ZM136.091 138.67H139.083V136.846C138.027 136.382 137.419 135.662 137.419 134.734C137.419 133.038 139.403 132.03 142.523 132.03C145.643 132.03 147.627 133.038 147.627 134.734C147.627 135.662 147.019 136.398 145.931 136.862V138.67H148.955V140.046H136.091V138.67ZM137.579 143.47C137.579 141.838 139.435 140.91 142.507 140.91C145.563 140.91 147.419 141.838 147.419 143.47C147.419 145.118 145.563 146.046 142.507 146.046C139.435 146.046 137.579 145.118 137.579 143.47ZM139.227 134.734C139.227 135.614 140.443 136.094 142.523 136.094C144.587 136.094 145.803 135.614 145.803 134.734C145.803 133.854 144.587 133.374 142.523 133.374C140.443 133.374 139.227 133.854 139.227 134.734ZM139.355 143.47C139.355 144.286 140.459 144.702 142.507 144.702C144.539 144.702 145.643 144.286 145.643 143.47C145.643 142.67 144.539 142.254 142.507 142.254C140.459 142.254 139.355 142.67 139.355 143.47ZM140.827 138.67H144.187V137.31C143.675 137.39 143.115 137.422 142.523 137.422C141.915 137.422 141.339 137.39 140.827 137.31V138.67Z" fill="#6D0CA6"/>
<circle opacity="0.4" cx="316" cy="112.75" r="111.5" fill="white" stroke="#9735D0"/>
<path d="M276.551 94.07L280.935 105.878H279.127L277.943 102.662H273.095L271.863 105.878H270.055L274.519 94.07H276.551ZM273.639 101.19H277.383L275.543 96.214L273.639 101.19ZM284.585 94.07V104.39H289.929V105.878H282.889V94.07H284.585ZM293.71 94.07V104.39H299.054V105.878H292.014V94.07H293.71ZM301.056 99.014H308.032V100.71H301.056V99.014ZM310.374 98.246H312.07V105.878H310.374V98.246ZM310.262 95.398C310.262 94.838 310.662 94.438 311.222 94.438C311.782 94.438 312.182 94.838 312.182 95.398C312.182 95.958 311.782 96.358 311.222 96.358C310.662 96.358 310.262 95.958 310.262 95.398ZM319.634 101.686C319.634 100.47 319.01 99.734 317.954 99.734C316.914 99.75 316.114 100.566 316.13 101.686V105.894H314.434V98.262H316.13V99.302C316.61 98.71 317.426 98.278 318.162 98.278C319.602 98.278 321.33 99.222 321.33 101.622V105.894H319.634V101.686ZM323.384 99.014H330.36V100.71H323.384V99.014ZM338.462 104.518C340.958 104.518 342.638 102.694 342.638 99.974C342.638 97.254 340.958 95.43 338.462 95.43C335.966 95.43 334.302 97.254 334.302 99.974C334.302 102.694 335.966 104.518 338.462 104.518ZM332.59 99.974C332.59 96.438 335.022 93.942 338.462 93.942C341.918 93.942 344.35 96.438 344.35 99.974C344.35 103.51 341.918 106.006 338.462 106.006C335.022 106.006 332.59 103.51 332.59 99.974ZM351.415 101.686C351.415 100.47 350.791 99.734 349.735 99.734C348.695 99.75 347.895 100.566 347.911 101.686V105.894H346.215V98.262H347.911V99.302C348.391 98.71 349.207 98.278 349.943 98.278C351.383 98.278 353.111 99.222 353.111 101.622V105.894H351.415V101.686ZM358.513 105.926C356.353 105.926 354.833 104.342 354.833 102.102C354.833 99.846 356.353 98.262 358.513 98.262C360.881 98.262 361.633 100.198 361.681 100.326C362.145 101.414 362.001 102.63 362.001 102.758H356.497C356.689 103.782 357.553 104.486 358.513 104.486C359.777 104.486 360.289 103.75 360.417 103.526L361.777 104.134C361.409 104.998 360.337 105.926 358.513 105.926ZM356.497 101.414H360.401C360.241 100.47 359.697 99.702 358.513 99.702C357.489 99.702 356.689 100.422 356.497 101.414ZM269.422 130.39C271.95 130.39 273.646 128.614 273.646 125.974C273.646 123.334 271.95 121.558 269.422 121.558L267.742 121.574V130.374L269.422 130.39ZM266.046 131.878V120.07H269.438C272.894 120.07 275.326 122.502 275.326 125.974C275.326 129.446 272.894 131.878 269.438 131.878H266.046ZM280.324 131.958C278.212 131.958 276.708 130.358 276.708 128.118C276.708 125.878 278.212 124.278 280.324 124.278C281.076 124.278 281.908 124.63 282.516 125.35V124.262H284.212V131.894H282.516V130.87C281.908 131.638 281.076 131.958 280.324 131.958ZM278.404 128.118C278.404 129.558 279.22 130.518 280.436 130.518C281.556 130.518 282.516 129.51 282.532 128.118C282.516 126.726 281.556 125.718 280.436 125.718C279.22 125.718 278.404 126.662 278.404 128.118ZM287.175 131.894V125.718H285.735V124.246H287.175V121.574H288.871V124.246H290.679V125.718H288.871V131.894H287.175ZM295.496 131.958C293.384 131.958 291.88 130.358 291.88 128.118C291.88 125.878 293.384 124.278 295.496 124.278C296.248 124.278 297.08 124.63 297.688 125.35V124.262H299.384V131.894H297.688V130.87C297.08 131.638 296.248 131.958 295.496 131.958ZM293.576 128.118C293.576 129.558 294.392 130.518 295.608 130.518C296.728 130.518 297.688 129.51 297.704 128.118C297.688 126.726 296.728 125.718 295.608 125.718C294.392 125.718 293.576 126.662 293.576 128.118ZM309.834 125.958C311.114 125.958 312.01 125.046 312.01 123.75C312.01 122.47 311.098 121.558 309.818 121.558H307.226V125.958H309.834ZM305.53 131.878V120.07H309.882C312.122 120.07 313.69 121.59 313.69 123.75C313.69 125.91 312.122 127.43 309.882 127.43H307.226V131.878H305.53ZM315.118 120.454H316.814V131.878H315.118V120.454ZM322.027 131.958C319.915 131.958 318.411 130.358 318.411 128.118C318.411 125.878 319.915 124.278 322.027 124.278C322.779 124.278 323.611 124.63 324.219 125.35V124.262H325.915V131.894H324.219V130.87C323.611 131.638 322.779 131.958 322.027 131.958ZM320.107 128.118C320.107 129.558 320.923 130.518 322.139 130.518C323.259 130.518 324.219 129.51 324.235 128.118C324.219 126.726 323.259 125.718 322.139 125.718C320.923 125.718 320.107 126.662 320.107 128.118ZM328.878 131.894V125.718H327.438V124.246H328.878V121.574H330.574V124.246H332.382V125.718H330.574V131.894H328.878ZM336.712 131.894H335.016V125.734H333.672V124.23H335.016V122.63C335.016 121.222 335.992 120.15 337.4 120.054C338.056 120.006 338.872 120.262 339.256 120.646L338.392 121.894C338.04 121.59 337.816 121.526 337.544 121.558C337.048 121.606 336.712 122.022 336.712 122.63V124.23H338.856V125.734H336.712V131.894ZM343.513 130.502C344.697 130.502 345.497 129.558 345.497 128.102C345.497 126.662 344.697 125.702 343.513 125.702C342.329 125.702 341.529 126.646 341.529 128.102C341.529 129.558 342.313 130.502 343.513 130.502ZM339.833 128.102C339.833 125.846 341.353 124.246 343.513 124.246C345.673 124.246 347.193 125.846 347.193 128.102C347.193 130.342 345.673 131.958 343.513 131.958C341.353 131.958 339.833 130.342 339.833 128.102ZM348.838 131.894V124.262H350.534V125.382C351.046 124.662 351.974 124.182 352.87 124.23V125.798C351.51 125.734 350.534 126.934 350.534 128.102V131.894H348.838ZM364.38 127.558C364.38 126.47 363.788 125.75 362.924 125.75C361.948 125.75 361.292 126.502 361.292 127.478V131.894H359.58V127.558C359.58 126.47 359.004 125.75 358.156 125.75C357.18 125.75 356.492 126.582 356.492 127.654V131.894H354.796V124.262H356.492V125.302C356.94 124.694 357.596 124.278 358.316 124.278C359.228 124.278 360.124 124.854 360.572 125.654C361.1 124.854 362.124 124.278 363.036 124.278C364.844 124.278 366.092 125.622 366.092 127.494V131.894H364.38V127.558Z" fill="#6D0CA6"/>
<circle opacity="0.4" cx="520" cy="112.75" r="111.5" fill="white" stroke="#9735D0"/>
<path d="M446.621 80.478H456.317V81.582C456.317 82.718 456.317 83.966 455.981 85.646H457.901V87.07H445.005V85.646H454.237C454.573 84.11 454.605 82.958 454.605 81.902H446.621V80.478ZM446.541 93.886V88.718H456.301V93.886H446.541ZM448.269 92.478H454.589V90.094H448.269V92.478ZM458.989 86.302H471.853V87.694H468.877V89.518C469.805 89.95 470.317 90.606 470.317 91.47C470.317 93.118 468.461 94.046 465.405 94.046C462.333 94.046 460.477 93.118 460.477 91.47C460.477 90.59 461.005 89.918 461.981 89.486V87.694H458.989V86.302ZM460.317 82.766C460.317 81.07 462.301 80.062 465.421 80.062C468.541 80.062 470.525 81.07 470.525 82.766C470.525 84.462 468.541 85.47 465.421 85.47C462.301 85.47 460.317 84.462 460.317 82.766ZM462.125 82.766C462.125 83.662 463.341 84.126 465.421 84.126C467.485 84.126 468.701 83.662 468.701 82.766C468.701 81.886 467.485 81.406 465.421 81.406C463.341 81.406 462.125 81.886 462.125 82.766ZM462.253 91.47C462.253 92.286 463.357 92.702 465.405 92.702C467.437 92.702 468.541 92.286 468.541 91.47C468.541 90.654 467.437 90.238 465.405 90.238C463.357 90.238 462.253 90.654 462.253 91.47ZM463.741 89.022C464.253 88.942 464.797 88.91 465.405 88.91C466.029 88.91 466.605 88.942 467.117 89.022V87.694H463.741V89.022ZM475.342 91.278L474.254 94.958H472.99L473.598 91.278H475.342ZM487.748 88.718C490.804 88.718 492.772 89.726 492.772 91.39C492.772 93.038 490.804 94.046 487.748 94.046C484.692 94.046 482.74 93.038 482.74 91.39C482.74 89.726 484.692 88.718 487.748 88.718ZM481.396 87.678V86.27H486.356V83.694H488.1V86.27H494.228V87.678H481.396ZM482.868 81.87V80.478H492.66V81.662C492.66 82.798 492.66 83.982 492.276 85.454L490.548 85.262C490.9 83.902 490.916 82.894 490.916 81.87H482.868ZM484.484 91.39C484.484 92.238 485.7 92.702 487.748 92.702C489.796 92.702 491.012 92.238 491.012 91.39C491.012 90.526 489.796 90.046 487.748 90.046C485.7 90.046 484.484 90.526 484.484 91.39ZM501.732 88.718C504.788 88.718 506.756 89.726 506.756 91.39C506.756 93.038 504.788 94.046 501.732 94.046C498.676 94.046 496.724 93.038 496.724 91.39C496.724 89.726 498.676 88.718 501.732 88.718ZM495.38 87.678V86.27H500.34V83.694H502.084V86.27H508.212V87.678H495.38ZM496.852 81.87V80.478H506.644V81.662C506.644 82.798 506.644 83.982 506.26 85.454L504.532 85.262C504.884 83.902 504.9 82.894 504.9 81.87H496.852ZM498.468 91.39C498.468 92.238 499.684 92.702 501.732 92.702C503.78 92.702 504.996 92.238 504.996 91.39C504.996 90.526 503.78 90.046 501.732 90.046C499.684 90.046 498.468 90.526 498.468 91.39ZM511.717 91.278L510.629 94.958H509.365L509.973 91.278H511.717ZM528.235 79.79H529.899V94.03H528.235V79.79ZM517.499 90.014C519.531 88.734 520.411 86.174 520.411 83.678V82.75H517.963V81.31H524.379V82.75H522.123V83.678C522.123 86.078 522.955 88.51 524.971 89.694L523.931 90.958C522.635 90.174 521.771 88.83 521.275 87.214C520.795 88.974 519.899 90.462 518.555 91.31L517.499 90.014ZM523.339 86.19V84.766H525.371V80.062H527.003V93.358H525.371V86.19H523.339ZM531.739 90.878H537.307V87.614H539.067V90.878H544.635V92.318H531.739V90.878ZM532.283 86.798C535.147 86.334 537.211 84.414 537.259 82.366H532.811V80.958H543.531V82.366H539.083C539.131 84.414 541.211 86.286 544.123 86.734L543.435 88.126C541.035 87.678 539.099 86.414 538.187 84.638C537.275 86.43 535.355 87.726 532.987 88.19L532.283 86.798ZM548.092 91.278L547.004 94.958H545.74L546.348 91.278H548.092ZM550.442 87.79H563.338V89.23H560.202V94.03H558.41V89.23H555.306V94.03H553.498V89.23H550.442V87.79ZM551.77 83.47C551.77 81.534 553.834 80.334 556.842 80.334C559.866 80.334 561.93 81.534 561.93 83.47C561.93 85.406 559.866 86.622 556.842 86.622C553.834 86.622 551.77 85.406 551.77 83.47ZM553.578 83.47C553.578 84.59 554.858 85.214 556.842 85.214C558.842 85.214 560.138 84.59 560.138 83.47C560.138 82.382 558.842 81.726 556.842 81.726C554.858 81.726 553.578 82.382 553.578 83.47ZM564.411 87.214H569.963V86.142H566.059V80.19H575.771V81.534H567.803V82.478H575.435V83.79H567.803V84.798H575.867V86.142H571.723V87.214H577.275V88.606H564.411V87.214ZM565.915 91.726C565.915 90.206 567.707 89.422 570.843 89.422C573.947 89.422 575.755 90.206 575.755 91.726C575.755 93.23 573.947 94.03 570.843 94.03C567.707 94.03 565.915 93.23 565.915 91.726ZM567.691 91.726C567.691 92.414 568.747 92.734 570.843 92.734C572.923 92.734 573.995 92.414 573.995 91.726C573.995 91.038 572.923 90.702 570.843 90.702C568.747 90.702 567.691 91.038 567.691 91.726ZM582.115 86.43H594.979V87.854H582.115V86.43ZM583.587 91.438C583.587 89.774 585.443 88.846 588.515 88.846C591.571 88.846 593.427 89.774 593.427 91.438C593.427 93.102 591.571 94.046 588.515 94.046C585.443 94.046 583.587 93.102 583.587 91.438ZM583.699 85.294V80.254H593.411V81.678H585.427V83.886H593.507V85.294H583.699ZM585.363 91.438C585.363 92.27 586.483 92.686 588.515 92.686C590.547 92.686 591.651 92.27 591.651 91.438C591.651 90.622 590.547 90.19 588.515 90.19C586.483 90.19 585.363 90.622 585.363 91.438ZM458.09 105.774H459.866V111.182H462.026V112.638H459.866V120.062H458.09V105.774ZM449.354 116.59V107.15H455.994V108.558H451.114V115.118C453.338 115.102 455.066 115.006 456.986 114.654L457.162 116.126C455.002 116.526 453.082 116.59 450.522 116.59H449.354ZM466.731 106.606C468.907 106.606 470.539 108.014 470.539 110.014C470.539 112.014 468.907 113.422 466.731 113.422C464.539 113.422 462.923 112.014 462.923 110.014C462.923 108.014 464.539 106.606 466.731 106.606ZM464.539 117.278C464.539 115.534 466.379 114.51 469.307 114.51C472.235 114.51 474.059 115.534 474.059 117.278C474.059 119.006 472.235 120.03 469.307 120.03C466.379 120.03 464.539 119.006 464.539 117.278ZM464.635 110.014C464.635 111.214 465.531 111.95 466.731 111.95C467.931 111.95 468.827 111.214 468.827 110.014C468.827 108.83 467.931 108.078 466.731 108.078C465.531 108.078 464.635 108.83 464.635 110.014ZM466.283 117.278C466.283 118.158 467.371 118.654 469.307 118.654C471.227 118.654 472.331 118.158 472.331 117.278C472.331 116.366 471.227 115.902 469.307 115.902C467.371 115.902 466.283 116.366 466.283 117.278ZM472.139 114.158V105.806H473.899V107.694H475.819V109.134H473.899V110.766H475.819V112.206H473.899V114.158H472.139ZM486.123 105.806H487.883V110.27H489.867V111.726H487.883V116.462H486.123V105.806ZM476.763 108.766V107.374H480.075V105.79H481.835V107.374H485.147V108.766H476.763ZM477.499 112.094C477.499 110.478 478.923 109.39 480.955 109.39C483.003 109.39 484.427 110.478 484.427 112.094C484.427 113.726 483.003 114.814 480.955 114.814C478.923 114.814 477.499 113.726 477.499 112.094ZM478.827 119.758V115.63H480.587V118.35H488.459V119.758H478.827ZM479.179 112.094C479.179 112.958 479.899 113.454 480.955 113.454C482.011 113.454 482.731 112.958 482.731 112.094C482.731 111.23 482.011 110.734 480.955 110.734C479.899 110.734 479.179 111.23 479.179 112.094ZM494.044 106.654H495.804V108.302C495.804 110.158 496.94 111.95 499.164 112.702L498.267 114.078C496.7 113.55 495.58 112.462 494.956 111.086C494.348 112.606 493.18 113.79 491.516 114.382L490.572 113.006C492.892 112.222 494.044 110.318 494.044 108.286V106.654ZM492.844 119.758V115.246H494.604V118.35H502.428V119.758H492.844ZM500.108 116.238V105.79H501.868V110.014H503.852V111.47H501.868V116.238H500.108ZM508.62 106.414C510.476 106.414 511.916 107.47 512.252 109.038H514.78V105.806H516.54V113.438H514.78V110.462H512.268C511.948 112.062 510.492 113.134 508.62 113.134C506.476 113.134 504.892 111.742 504.892 109.774C504.892 107.806 506.476 106.414 508.62 106.414ZM506.572 109.774C506.572 110.926 507.42 111.662 508.62 111.662C509.804 111.662 510.652 110.926 510.652 109.774C510.652 108.606 509.804 107.87 508.62 107.87C507.42 107.87 506.572 108.606 506.572 109.774ZM507.212 119.87V114.11H508.972V115.614H514.796V114.11H516.54V119.87H507.212ZM508.972 118.462H514.796V116.974H508.972V118.462ZM524.092 113.198H526.3V111.038H524.364C523.692 113.422 522.22 115.454 519.548 117.038L518.556 115.79C521.452 114.046 522.796 111.822 523.052 108.942H519.292V107.518H524.796C524.796 108.254 524.748 108.958 524.652 109.646H526.3V106.126H527.948V119.358H526.3V114.606H524.092V113.198ZM529.212 120.03V105.79H530.876V120.03H529.212ZM537.261 106.766C539.485 106.766 541.133 108.206 541.133 110.222C541.133 112.254 539.485 113.678 537.261 113.678C535.021 113.678 533.373 112.254 533.373 110.222C533.373 108.206 535.021 106.766 537.261 106.766ZM532.733 115.646C535.261 115.646 538.813 115.63 541.837 115.166L541.965 116.446C538.845 117.054 535.437 117.086 532.941 117.086L532.733 115.646ZM535.085 110.222C535.085 111.406 536.013 112.174 537.261 112.174C538.493 112.174 539.421 111.406 539.421 110.222C539.421 109.022 538.493 108.286 537.261 108.286C536.013 108.286 535.085 109.022 535.085 110.222ZM542.685 120.062V105.774H544.429V120.062H542.685ZM560.853 105.79H562.533V120.03H560.853V105.79ZM550.805 116.782V107.454H556.213V108.862H552.533V115.326C554.197 115.31 555.397 115.214 556.757 114.942L556.917 116.382C555.317 116.718 553.909 116.782 551.765 116.782H550.805ZM555.237 112.51V111.086H557.941V106.078H559.589V119.374H557.941V112.51H555.237ZM574.309 105.774H576.085V120.062H574.309V105.774ZM564.773 111.854C564.773 108.766 566.325 106.814 568.469 106.814C570.613 106.814 572.165 108.766 572.165 111.854C572.165 114.958 570.613 116.91 568.469 116.91C566.325 116.91 564.773 114.958 564.773 111.854ZM566.469 111.854C566.469 114.046 567.285 115.326 568.469 115.326C569.653 115.326 570.469 114.046 570.469 111.854C570.469 109.678 569.653 108.414 568.469 108.414C567.285 108.414 566.469 109.678 566.469 111.854ZM588.437 105.774H590.181V120.062H588.437V112.366H585.781V110.958H588.437V105.774ZM578.965 116.766V107.022H585.541V108.462H580.709V110.99H585.013V112.382H580.709V115.342C582.869 115.326 584.469 115.262 586.293 114.958L586.469 116.366C584.405 116.702 582.613 116.766 580.085 116.766H578.965ZM464.471 132.958H466.247V135.198C466.247 137.822 467.591 140.446 469.879 141.454L468.855 142.878C467.207 142.11 466.023 140.59 465.383 138.734C464.743 140.734 463.527 142.366 461.815 143.182L460.759 141.726C463.095 140.686 464.471 137.95 464.471 135.198V132.958ZM470.887 146.062V131.774H472.647V146.062H470.887ZM480.359 132.67H482.215V133.726C482.215 135.934 484.327 138.142 487.287 138.654L486.519 140.11C484.135 139.63 482.199 138.19 481.287 136.286C480.359 138.174 478.423 139.63 476.055 140.11L475.303 138.654C478.215 138.126 480.359 135.918 480.359 133.726V132.67ZM474.903 144.222V142.782H487.799V144.222H474.903ZM494.936 135.278H496.52V132.014H498.168V140.19H496.52V136.686H494.936V135.278ZM489.48 139.646V132.67H494.84V134.078H491.16V135.438H494.312V136.782H491.16V138.254C492.84 138.238 494.024 138.174 495.4 137.934L495.544 139.31C493.944 139.614 492.584 139.646 490.424 139.646H489.48ZM491.432 145.87V140.926H500.952V145.87H491.432ZM493.16 144.478H499.256V142.302H493.16V144.478ZM499.288 140.318V131.806H500.952V140.318H499.288ZM508.096 132.67H517.856V133.918C517.856 135.262 517.856 136.718 517.488 138.75H519.44V140.19H513.84V146.062H512.064V140.19H506.56V138.75H515.712C516.112 136.83 516.128 135.374 516.128 134.078H508.096V132.67ZM520.544 138.862H533.408V140.27H527.856V141.63H531.84V146.014H530.096V143.038H521.968V141.63H526.08V140.27H520.544V138.862ZM521.168 136.926C524.144 136.718 525.792 135.694 525.984 134.494H521.808V133.134H526.08V131.774H527.856V133.134H532.144V134.494H527.952C528.144 135.694 529.792 136.718 532.768 136.926L532.24 138.254C529.712 138.046 527.856 137.262 526.976 136.03C526.08 137.262 524.224 138.046 521.696 138.254L521.168 136.926ZM545.024 131.79H546.688V146.03H545.024V131.79ZM534.656 137.95C534.656 134.798 535.856 132.862 537.712 132.862C539.424 132.862 540.576 134.478 540.768 137.15H542.144V132.062H543.792V145.358H542.144V138.574H540.784C540.64 141.374 539.456 143.054 537.712 143.054C535.856 143.054 534.656 141.118 534.656 137.95ZM536.256 137.95C536.256 140.19 536.8 141.406 537.712 141.406C538.64 141.406 539.184 140.19 539.184 137.95C539.184 135.726 538.64 134.526 537.712 134.526C536.8 134.526 536.256 135.726 536.256 137.95ZM561.624 131.79H563.384V135.262H565.304V136.718H563.384V140.174H561.624V131.79ZM552.056 138.75C553.112 138.75 554.344 138.75 555.624 138.718V137.982C554.056 137.822 553.08 137.166 553.08 136.158C553.08 134.99 554.408 134.286 556.472 134.286C558.568 134.286 559.896 134.99 559.896 136.158C559.896 137.166 558.936 137.806 557.368 137.982V138.654C558.584 138.59 559.784 138.494 560.92 138.35L561.048 139.422C558.04 139.95 554.728 139.982 552.248 139.982L552.056 138.75ZM552.424 133.95V132.75H555.624V131.662H557.368V132.75H560.536V133.95H552.424ZM553.96 141.918V140.75H563.384V143.838H555.72V144.734H563.896V145.918H553.976V142.734H561.656V141.918H553.96ZM554.744 136.158C554.744 136.654 555.4 136.926 556.472 136.926C557.576 136.926 558.232 136.654 558.232 136.158C558.232 135.662 557.576 135.39 556.472 135.39C555.4 135.39 554.744 135.662 554.744 136.158ZM566.185 138.67H569.177V136.846C568.121 136.382 567.513 135.662 567.513 134.734C567.513 133.038 569.497 132.03 572.617 132.03C575.737 132.03 577.721 133.038 577.721 134.734C577.721 135.662 577.113 136.398 576.025 136.862V138.67H579.049V140.046H566.185V138.67ZM567.673 143.47C567.673 141.838 569.529 140.91 572.601 140.91C575.657 140.91 577.513 141.838 577.513 143.47C577.513 145.118 575.657 146.046 572.601 146.046C569.529 146.046 567.673 145.118 567.673 143.47ZM569.321 134.734C569.321 135.614 570.537 136.094 572.617 136.094C574.681 136.094 575.897 135.614 575.897 134.734C575.897 133.854 574.681 133.374 572.617 133.374C570.537 133.374 569.321 133.854 569.321 134.734ZM569.449 143.47C569.449 144.286 570.553 144.702 572.601 144.702C574.633 144.702 575.737 144.286 575.737 143.47C575.737 142.67 574.633 142.254 572.601 142.254C570.553 142.254 569.449 142.67 569.449 143.47ZM570.921 138.67H574.281V137.31C573.769 137.39 573.209 137.422 572.617 137.422C572.009 137.422 571.433 137.39 570.921 137.31V138.67Z" fill="#6D0CA6"/>
</svg>
