<svg width="193" height="536" viewBox="0 0 193 536" fill="none" xmlns="http://www.w3.org/2000/svg">
<circle opacity="0.4" cx="96.5" cy="96" r="95.5" fill="white" stroke="#9735D0"/>
<path d="M47.7021 68.598C49.1721 68.598 50.2781 69.606 50.5021 71.104H51.4821V67.884H52.9241V76.592H51.4821V72.364H50.4881C50.2361 73.82 49.1441 74.786 47.7021 74.786C46.0641 74.786 44.8601 73.512 44.8601 71.692C44.8601 69.872 46.0641 68.598 47.7021 68.598ZM46.2461 71.692C46.2461 72.784 46.8621 73.484 47.7021 73.484C48.5421 73.484 49.1721 72.784 49.1721 71.692C49.1721 70.6 48.5421 69.914 47.7021 69.914C46.8621 69.914 46.2461 70.6 46.2461 71.692ZM47.0861 79.882V75.766H48.6261V78.65H55.7101V79.882H47.0861ZM53.9041 76.942V67.674H55.3601V76.942H53.9041ZM58.3285 68.766H67.1065V69.9C67.1065 71.398 67.1065 73.148 66.5605 75.794L65.0345 75.626C65.2585 74.632 65.3845 73.736 65.4685 72.952L58.1745 73.344L57.9785 72.028L65.5525 71.776C65.5805 71.132 65.5805 70.544 65.5805 70.012H58.3285V68.766ZM57.0405 78.58V77.334H61.1845V74.268H62.7105V77.334H68.2965V78.58H57.0405ZM72.6088 68.556C74.4708 68.556 75.8148 70.264 75.8148 72.966C75.8148 75.682 74.4708 77.39 72.6088 77.39C70.7328 77.39 69.3888 75.682 69.3888 72.966C69.3888 70.264 70.7328 68.556 72.6088 68.556ZM70.8588 72.966C70.8588 74.884 71.5728 76.004 72.6088 76.004C73.6448 76.004 74.3448 74.884 74.3448 72.966C74.3448 71.062 73.6448 69.956 72.6088 69.956C71.5728 69.956 70.8588 71.062 70.8588 72.966ZM77.4248 80.134V67.674H78.9788V72.476H80.8688V73.75H78.9788V80.134H77.4248ZM85.5171 68.514C87.4631 68.514 88.9051 69.774 88.9051 71.538C88.9051 73.316 87.4631 74.562 85.5171 74.562C83.5571 74.562 82.1151 73.316 82.1151 71.538C82.1151 69.774 83.5571 68.514 85.5171 68.514ZM81.5551 76.284C83.7671 76.284 86.8751 76.27 89.5211 75.864L89.6331 76.984C86.9031 77.516 83.9211 77.544 81.7371 77.544L81.5551 76.284ZM83.6131 71.538C83.6131 72.574 84.4251 73.246 85.5171 73.246C86.5951 73.246 87.4071 72.574 87.4071 71.538C87.4071 70.488 86.5951 69.844 85.5171 69.844C84.4251 69.844 83.6131 70.488 83.6131 71.538ZM90.2631 80.148V67.646H91.7891V80.148H90.2631ZM96.976 73.778H101.834V72.532H98.376V68.178H106.874V69.396H99.888V71.3H106.986V72.532H103.374V73.778H108.246V74.996H96.976V73.778ZM98.222 77.208V75.99H106.902V80.19H105.362V77.208H98.222ZM109.212 77.362H114.07V74.926H110.458V68.486H111.984V70.516H117.696V68.486H119.222V74.926H115.596V77.362H120.496V78.622H109.212V77.362ZM111.984 73.694H117.696V71.734H111.984V73.694ZM128.169 70.74H130.241V67.674H131.781V75.094H130.241V72H128.169V70.74ZM121.407 73.75C123.381 73.078 124.417 71.44 124.417 69.788V69.648H121.841V68.416H128.533V69.648H125.971V69.788C125.971 71.314 126.965 72.84 128.883 73.498L128.113 74.702C126.741 74.226 125.775 73.274 125.229 72.098C124.697 73.4 123.661 74.45 122.191 74.954L121.407 73.75ZM123.367 76.942V75.696H131.781V80.134H130.241V76.942H123.367ZM142.435 67.674H143.975V76.676H142.435V67.674ZM133.895 71.622C133.895 69.788 135.351 68.486 137.227 68.486C139.117 68.486 140.559 69.788 140.559 71.622C140.559 73.428 139.117 74.744 137.227 74.744C135.351 74.744 133.895 73.428 133.895 71.622ZM135.393 71.622C135.393 72.7 136.191 73.4 137.227 73.4C138.263 73.4 139.061 72.7 139.061 71.622C139.061 70.516 138.263 69.816 137.227 69.816C136.191 69.816 135.393 70.516 135.393 71.622ZM135.799 79.882V75.78H137.325V78.65H144.311V79.882H135.799ZM37.2469 89.66H38.7169V102.12H37.2469V89.66ZM28.4549 99.278V91.116H33.1869V92.348H29.9669V98.004C31.4229 97.99 32.4729 97.906 33.6629 97.668L33.8029 98.928C32.4029 99.222 31.1709 99.278 29.2949 99.278H28.4549ZM32.3329 95.54V94.294H34.6989V89.912H36.1409V101.546H34.6989V95.54H32.3329ZM49.0212 89.646H50.5752V102.148H49.0212V89.646ZM40.6772 94.966C40.6772 92.264 42.0352 90.556 43.9112 90.556C45.7872 90.556 47.1452 92.264 47.1452 94.966C47.1452 97.682 45.7872 99.39 43.9112 99.39C42.0352 99.39 40.6772 97.682 40.6772 94.966ZM42.1612 94.966C42.1612 96.884 42.8752 98.004 43.9112 98.004C44.9472 98.004 45.6612 96.884 45.6612 94.966C45.6612 93.062 44.9472 91.956 43.9112 91.956C42.8752 91.956 42.1612 93.062 42.1612 94.966ZM61.3836 89.646H62.9096V102.148H61.3836V95.414H59.0596V94.182H61.3836V89.646ZM53.0956 99.264V90.738H58.8496V91.998H54.6216V94.21H58.3876V95.428H54.6216V98.018C56.5116 98.004 57.9116 97.948 59.5076 97.682L59.6616 98.914C57.8556 99.208 56.2876 99.264 54.0756 99.264H53.0956ZM71.1839 93.51H73.5779V89.66H75.1179V98.886H73.5779V94.756H71.1839V93.51ZM64.9959 96.548C66.8859 95.946 68.0899 95.134 68.8039 94.154L65.2059 94.434L64.9959 93.216L69.3779 93.048C69.5039 92.67 69.5879 92.278 69.6299 91.872H65.6119V90.64H71.2399C71.2399 94.042 69.7139 96.394 65.5979 97.752L64.9959 96.548ZM67.0959 101.882V97.976H68.6499V100.65H75.4679V101.882H67.0959ZM83.3782 91.662H85.8142V89.674H87.3542V96.03H85.8142V92.894H83.3782V91.662ZM76.9382 94.896C78.9262 94.266 79.9482 92.726 79.9482 91.06V90.066H81.4882V91.06C81.4882 92.586 82.4822 94.056 84.3722 94.658L83.5882 95.848C82.2442 95.4 81.2782 94.504 80.7462 93.37C80.2002 94.63 79.1922 95.624 77.7362 96.1L76.9382 94.896ZM79.2062 97.794V96.604H87.3542V99.81H80.7462V100.776H87.7462V101.98H79.2202V98.69H85.8282V97.794H79.2062ZM89.9306 90.556H95.8946V91.774H91.4566V92.95H95.5446V94.154H91.4566V95.386C93.7666 95.386 95.1946 95.33 96.8186 95.064L96.9586 96.268C95.1946 96.562 93.6406 96.604 90.9806 96.604H89.9306V90.556ZM91.1206 99.782C91.1206 98.326 92.7446 97.458 95.3626 97.458C97.9806 97.458 99.5906 98.326 99.5906 99.782C99.5906 101.28 97.9806 102.12 95.3626 102.12C92.7446 102.12 91.1206 101.28 91.1206 99.782ZM92.6746 99.782C92.6746 100.538 93.6266 100.944 95.3626 100.944C97.0846 100.944 98.0646 100.538 98.0646 99.782C98.0646 99.04 97.0846 98.634 95.3626 98.634C93.6266 98.634 92.6746 99.04 92.6746 99.782ZM97.9946 97.276V89.674H99.5346V97.276H97.9946ZM104.707 99.348H115.991V100.622H104.707V99.348ZM105.617 92.04V90.794H115.011V92.04H113.233V96.002H114.983V97.234H105.673V96.002H107.409V92.04H105.617ZM108.949 96.002H111.707V92.04H108.949V96.002ZM117.294 90.948H121.704V95.54H118.792V97.892C120.066 97.878 121.256 97.808 122.642 97.57L122.768 98.816C121.116 99.11 119.73 99.152 118.162 99.152H117.308V94.336H120.234V92.18H117.294V90.948ZM122.25 95.26V94H123.594V89.926H125.022V101.504H123.594V95.26H122.25ZM126.114 102.12V89.66H127.584V102.12H126.114ZM137.916 89.674H139.456V96.744H137.916V89.674ZM129.39 93.23C129.39 91.494 130.804 90.276 132.722 90.276C134.64 90.276 136.054 91.494 136.054 93.23C136.054 94.966 134.64 96.184 132.722 96.184C130.804 96.184 129.39 94.966 129.39 93.23ZM130.888 93.23C130.888 94.266 131.672 94.91 132.722 94.91C133.772 94.91 134.556 94.266 134.556 93.23C134.556 92.208 133.772 91.55 132.722 91.55C131.672 91.55 130.888 92.208 130.888 93.23ZM131.266 101.98V97.346H139.456V101.98H131.266ZM132.778 100.762H137.958V98.564H132.778V100.762ZM150.292 89.66H151.832V102.134H150.292V99.278H147.674V98.088H150.292V89.66ZM141.36 96.086C143.684 96.086 146.764 96.072 149.438 95.708L149.536 96.814C148.402 97.01 147.226 97.136 146.092 97.22V101.756H144.552V97.304C143.474 97.346 142.466 97.346 141.542 97.346L141.36 96.086ZM142.228 92.74C142.228 91.242 143.544 90.234 145.392 90.234C147.24 90.234 148.542 91.242 148.542 92.74C148.542 94.252 147.24 95.246 145.392 95.246C143.544 95.246 142.228 94.252 142.228 92.74ZM143.684 92.74C143.684 93.58 144.384 94.084 145.392 94.084C146.4 94.084 147.086 93.58 147.086 92.74C147.086 91.914 146.4 91.382 145.392 91.382C144.384 91.382 143.684 91.914 143.684 92.74ZM154.941 90.822H163.691V92.292C163.691 94.112 163.691 95.834 163.131 98.48L161.605 98.34C161.857 97.248 161.997 96.282 162.067 95.4L154.801 95.778L154.605 94.532L162.137 94.266C162.165 93.58 162.165 92.936 162.165 92.292V92.068H154.941V90.822ZM153.653 100.552V99.278H164.923V100.552H153.653ZM65.1162 117.946C65.1162 116.126 65.8302 113.732 66.8382 112.136H68.4062C67.2582 113.718 66.4602 116.112 66.4602 117.946C66.4602 119.78 67.2582 122.174 68.4062 123.756H66.8382C65.8302 122.16 65.1162 119.766 65.1162 117.946ZM76.9643 112.78V114.082H71.7703V117.148H76.2363V118.436H71.7703V121.81H76.9643V123.112H70.2863V112.78H76.9643ZM82.0353 121.81C84.2473 121.81 85.7313 120.256 85.7313 117.946C85.7313 115.636 84.2473 114.082 82.0353 114.082L80.5653 114.096V121.796L82.0353 121.81ZM79.0813 123.112V112.78H82.0493C85.0733 112.78 87.2013 114.908 87.2013 117.946C87.2013 120.984 85.0733 123.112 82.0493 123.112H79.0813ZM95.4213 112.78V114.082H90.3673V117.288H94.6513V118.576H90.3673V123.112H88.8833V112.78H95.4213ZM100.166 117.946C100.166 119.766 99.4665 122.146 98.4585 123.756H96.8905C98.0245 122.188 98.8225 119.78 98.8225 117.946C98.8225 116.112 98.0245 113.704 96.8905 112.136H98.4585C99.4665 113.746 100.166 116.126 100.166 117.946ZM112.063 114.74H114.135V111.674H115.675V119.094H114.135V116H112.063V114.74ZM105.301 117.75C107.275 117.078 108.311 115.44 108.311 113.788V113.648H105.735V112.416H112.427V113.648H109.865V113.788C109.865 115.314 110.859 116.84 112.777 117.498L112.007 118.702C110.635 118.226 109.669 117.274 109.123 116.098C108.591 117.4 107.555 118.45 106.085 118.954L105.301 117.75ZM107.261 120.942V119.696H115.675V124.134H114.135V120.942H107.261ZM117.58 117.68H120.198V116.084C119.274 115.678 118.742 115.048 118.742 114.236C118.742 112.752 120.478 111.87 123.208 111.87C125.938 111.87 127.674 112.752 127.674 114.236C127.674 115.048 127.142 115.692 126.19 116.098V117.68H128.836V118.884H117.58V117.68ZM118.882 121.88C118.882 120.452 120.506 119.64 123.194 119.64C125.868 119.64 127.492 120.452 127.492 121.88C127.492 123.322 125.868 124.134 123.194 124.134C120.506 124.134 118.882 123.322 118.882 121.88ZM120.324 114.236C120.324 115.006 121.388 115.426 123.208 115.426C125.014 115.426 126.078 115.006 126.078 114.236C126.078 113.466 125.014 113.046 123.208 113.046C121.388 113.046 120.324 113.466 120.324 114.236ZM120.436 121.88C120.436 122.594 121.402 122.958 123.194 122.958C124.972 122.958 125.938 122.594 125.938 121.88C125.938 121.18 124.972 120.816 123.194 120.816C121.402 120.816 120.436 121.18 120.436 121.88ZM121.724 117.68H124.664V116.49C124.216 116.56 123.726 116.588 123.208 116.588C122.676 116.588 122.172 116.56 121.724 116.49V117.68Z" fill="#6D0CA6"/>
<circle opacity="0.4" cx="96.5" cy="268" r="95.5" fill="white" stroke="#9735D0"/>
<path d="M61.982 251.78L65.818 262.112H64.236L63.2 259.298H58.958L57.88 262.112H56.298L60.204 251.78H61.982ZM59.434 258.01H62.71L61.1 253.656L59.434 258.01ZM69.0119 251.78V260.81H73.6879V262.112H67.5279V251.78H69.0119ZM76.9963 251.78V260.81H81.6723V262.112H75.5123V251.78H76.9963ZM83.4237 256.106H89.5277V257.59H83.4237V256.106ZM91.5774 255.434H93.0614V262.112H91.5774V255.434ZM91.4794 252.942C91.4794 252.452 91.8294 252.102 92.3194 252.102C92.8094 252.102 93.1594 252.452 93.1594 252.942C93.1594 253.432 92.8094 253.782 92.3194 253.782C91.8294 253.782 91.4794 253.432 91.4794 252.942ZM99.6794 258.444C99.6794 257.38 99.1334 256.736 98.2094 256.736C97.2994 256.75 96.5994 257.464 96.6134 258.444V262.126H95.1294V255.448H96.6134V256.358C97.0334 255.84 97.7474 255.462 98.3914 255.462C99.6514 255.462 101.163 256.288 101.163 258.388V262.126H99.6794V258.444ZM102.961 256.106H109.065V257.59H102.961V256.106ZM116.154 260.922C118.338 260.922 119.808 259.326 119.808 256.946C119.808 254.566 118.338 252.97 116.154 252.97C113.97 252.97 112.514 254.566 112.514 256.946C112.514 259.326 113.97 260.922 116.154 260.922ZM111.016 256.946C111.016 253.852 113.144 251.668 116.154 251.668C119.178 251.668 121.306 253.852 121.306 256.946C121.306 260.04 119.178 262.224 116.154 262.224C113.144 262.224 111.016 260.04 111.016 256.946ZM127.488 258.444C127.488 257.38 126.942 256.736 126.018 256.736C125.108 256.75 124.408 257.464 124.422 258.444V262.126H122.938V255.448H124.422V256.358C124.842 255.84 125.556 255.462 126.2 255.462C127.46 255.462 128.972 256.288 128.972 258.388V262.126H127.488V258.444ZM133.699 262.154C131.809 262.154 130.479 260.768 130.479 258.808C130.479 256.834 131.809 255.448 133.699 255.448C135.771 255.448 136.429 257.142 136.471 257.254C136.877 258.206 136.751 259.27 136.751 259.382H131.935C132.103 260.278 132.859 260.894 133.699 260.894C134.805 260.894 135.253 260.25 135.365 260.054L136.555 260.586C136.233 261.342 135.295 262.154 133.699 262.154ZM131.935 258.206H135.351C135.211 257.38 134.735 256.708 133.699 256.708C132.803 256.708 132.103 257.338 131.935 258.206ZM55.7443 282.81C57.9563 282.81 59.4403 281.256 59.4403 278.946C59.4403 276.636 57.9563 275.082 55.7443 275.082L54.2743 275.096V282.796L55.7443 282.81ZM52.7903 284.112V273.78H55.7583C58.7823 273.78 60.9103 275.908 60.9103 278.946C60.9103 281.984 58.7823 284.112 55.7583 284.112H52.7903ZM65.2833 284.182C63.4353 284.182 62.1193 282.782 62.1193 280.822C62.1193 278.862 63.4353 277.462 65.2833 277.462C65.9413 277.462 66.6693 277.77 67.2013 278.4V277.448H68.6853V284.126H67.2013V283.23C66.6693 283.902 65.9413 284.182 65.2833 284.182ZM63.6033 280.822C63.6033 282.082 64.3173 282.922 65.3813 282.922C66.3613 282.922 67.2013 282.04 67.2153 280.822C67.2013 279.604 66.3613 278.722 65.3813 278.722C64.3173 278.722 63.6033 279.548 63.6033 280.822ZM71.278 284.126V278.722H70.018V277.434H71.278V275.096H72.762V277.434H74.344V278.722H72.762V284.126H71.278ZM78.5587 284.182C76.7107 284.182 75.3947 282.782 75.3947 280.822C75.3947 278.862 76.7107 277.462 78.5587 277.462C79.2167 277.462 79.9447 277.77 80.4767 278.4V277.448H81.9607V284.126H80.4767V283.23C79.9447 283.902 79.2167 284.182 78.5587 284.182ZM76.8787 280.822C76.8787 282.082 77.5927 282.922 78.6567 282.922C79.6367 282.922 80.4767 282.04 80.4907 280.822C80.4767 279.604 79.6367 278.722 78.6567 278.722C77.5927 278.722 76.8787 279.548 76.8787 280.822ZM91.1048 278.932C92.2248 278.932 93.0088 278.134 93.0088 277C93.0088 275.88 92.2108 275.082 91.0908 275.082H88.8228V278.932H91.1048ZM87.3388 284.112V273.78H91.1468C93.1068 273.78 94.4788 275.11 94.4788 277C94.4788 278.89 93.1068 280.22 91.1468 280.22H88.8228V284.112H87.3388ZM95.7284 274.116H97.2124V284.112H95.7284V274.116ZM101.774 284.182C99.9255 284.182 98.6095 282.782 98.6095 280.822C98.6095 278.862 99.9255 277.462 101.774 277.462C102.432 277.462 103.16 277.77 103.692 278.4V277.448H105.176V284.126H103.692V283.23C103.16 283.902 102.432 284.182 101.774 284.182ZM100.094 280.822C100.094 282.082 100.808 282.922 101.872 282.922C102.852 282.922 103.692 282.04 103.706 280.822C103.692 279.604 102.852 278.722 101.872 278.722C100.808 278.722 100.094 279.548 100.094 280.822ZM107.768 284.126V278.722H106.508V277.434H107.768V275.096H109.252V277.434H110.834V278.722H109.252V284.126H107.768ZM114.623 284.126H113.139V278.736H111.963V277.42H113.139V276.02C113.139 274.788 113.993 273.85 115.225 273.766C115.799 273.724 116.513 273.948 116.849 274.284L116.093 275.376C115.785 275.11 115.589 275.054 115.351 275.082C114.917 275.124 114.623 275.488 114.623 276.02V277.42H116.499V278.736H114.623V284.126ZM120.574 282.908C121.61 282.908 122.31 282.082 122.31 280.808C122.31 279.548 121.61 278.708 120.574 278.708C119.538 278.708 118.838 279.534 118.838 280.808C118.838 282.082 119.524 282.908 120.574 282.908ZM117.354 280.808C117.354 278.834 118.684 277.434 120.574 277.434C122.464 277.434 123.794 278.834 123.794 280.808C123.794 282.768 122.464 284.182 120.574 284.182C118.684 284.182 117.354 282.768 117.354 280.808ZM125.233 284.126V277.448H126.717V278.428C127.165 277.798 127.977 277.378 128.761 277.42V278.792C127.571 278.736 126.717 279.786 126.717 280.808V284.126H125.233ZM138.832 280.332C138.832 279.38 138.314 278.75 137.558 278.75C136.704 278.75 136.13 279.408 136.13 280.262V284.126H134.632V280.332C134.632 279.38 134.128 278.75 133.386 278.75C132.532 278.75 131.93 279.478 131.93 280.416V284.126H130.446V277.448H131.93V278.358C132.322 277.826 132.896 277.462 133.526 277.462C134.324 277.462 135.108 277.966 135.5 278.666C135.962 277.966 136.858 277.462 137.656 277.462C139.238 277.462 140.33 278.638 140.33 280.276V284.126H138.832V280.332Z" fill="#6D0CA6"/>
<circle opacity="0.4" cx="96.5" cy="440" r="95.5" fill="white" stroke="#9735D0"/>
<path d="M18.4437 412.262H26.9277V413.228C26.9277 414.222 26.9277 415.314 26.6337 416.784H28.3137V418.03H17.0297V416.784H25.1077C25.4017 415.44 25.4297 414.432 25.4297 413.508H18.4437V412.262ZM18.3737 423.994V419.472H26.9137V423.994H18.3737ZM19.8857 422.762H25.4157V420.676H19.8857V422.762ZM29.266 417.358H40.522V418.576H37.918V420.172C38.73 420.55 39.178 421.124 39.178 421.88C39.178 423.322 37.554 424.134 34.88 424.134C32.192 424.134 30.568 423.322 30.568 421.88C30.568 421.11 31.03 420.522 31.884 420.144V418.576H29.266V417.358ZM30.428 414.264C30.428 412.78 32.164 411.898 34.894 411.898C37.624 411.898 39.36 412.78 39.36 414.264C39.36 415.748 37.624 416.63 34.894 416.63C32.164 416.63 30.428 415.748 30.428 414.264ZM32.01 414.264C32.01 415.048 33.074 415.454 34.894 415.454C36.7 415.454 37.764 415.048 37.764 414.264C37.764 413.494 36.7 413.074 34.894 413.074C33.074 413.074 32.01 413.494 32.01 414.264ZM32.122 421.88C32.122 422.594 33.088 422.958 34.88 422.958C36.658 422.958 37.624 422.594 37.624 421.88C37.624 421.166 36.658 420.802 34.88 420.802C33.088 420.802 32.122 421.166 32.122 421.88ZM33.424 419.738C33.872 419.668 34.348 419.64 34.88 419.64C35.426 419.64 35.93 419.668 36.378 419.738V418.576H33.424V419.738ZM43.5744 421.712L42.6224 424.932H41.5164L42.0484 421.712H43.5744ZM54.4298 419.472C57.1038 419.472 58.8258 420.354 58.8258 421.81C58.8258 423.252 57.1038 424.134 54.4298 424.134C51.7558 424.134 50.0478 423.252 50.0478 421.81C50.0478 420.354 51.7558 419.472 54.4298 419.472ZM48.8718 418.562V417.33H53.2118V415.076H54.7378V417.33H60.0998V418.562H48.8718ZM50.1598 413.48V412.262H58.7278V413.298C58.7278 414.292 58.7278 415.328 58.3918 416.616L56.8798 416.448C57.1878 415.258 57.2018 414.376 57.2018 413.48H50.1598ZM51.5738 421.81C51.5738 422.552 52.6378 422.958 54.4298 422.958C56.2218 422.958 57.2858 422.552 57.2858 421.81C57.2858 421.054 56.2218 420.634 54.4298 420.634C52.6378 420.634 51.5738 421.054 51.5738 421.81ZM66.6662 419.472C69.3402 419.472 71.0622 420.354 71.0622 421.81C71.0622 423.252 69.3402 424.134 66.6662 424.134C63.9922 424.134 62.2842 423.252 62.2842 421.81C62.2842 420.354 63.9922 419.472 66.6662 419.472ZM61.1082 418.562V417.33H65.4482V415.076H66.9742V417.33H72.3362V418.562H61.1082ZM62.3962 413.48V412.262H70.9642V413.298C70.9642 414.292 70.9642 415.328 70.6282 416.616L69.1162 416.448C69.4242 415.258 69.4382 414.376 69.4382 413.48H62.3962ZM63.8102 421.81C63.8102 422.552 64.8742 422.958 66.6662 422.958C68.4582 422.958 69.5222 422.552 69.5222 421.81C69.5222 421.054 68.4582 420.634 66.6662 420.634C64.8742 420.634 63.8102 421.054 63.8102 421.81ZM75.4025 421.712L74.4505 424.932H73.3445L73.8765 421.712H75.4025ZM89.856 411.66H91.312V424.12H89.856V411.66ZM80.462 420.606C82.24 419.486 83.01 417.246 83.01 415.062V414.25H80.868V412.99H86.482V414.25H84.508V415.062C84.508 417.162 85.236 419.29 87 420.326L86.09 421.432C84.956 420.746 84.2 419.57 83.766 418.156C83.346 419.696 82.562 420.998 81.386 421.74L80.462 420.606ZM85.572 417.26V416.014H87.35V411.898H88.778V423.532H87.35V417.26H85.572ZM92.9223 421.362H97.7943V418.506H99.3343V421.362H104.206V422.622H92.9223V421.362ZM93.3983 417.792C95.9043 417.386 97.7103 415.706 97.7523 413.914H93.8603V412.682H103.24V413.914H99.3483C99.3903 415.706 101.21 417.344 103.758 417.736L103.156 418.954C101.056 418.562 99.3623 417.456 98.5643 415.902C97.7663 417.47 96.0863 418.604 94.0143 419.01L93.3983 417.792ZM107.231 421.712L106.279 424.932H105.173L105.705 421.712H107.231ZM109.288 418.66H120.572V419.92H117.828V424.12H116.26V419.92H113.544V424.12H111.962V419.92H109.288V418.66ZM110.45 414.88C110.45 413.186 112.256 412.136 114.888 412.136C117.534 412.136 119.34 413.186 119.34 414.88C119.34 416.574 117.534 417.638 114.888 417.638C112.256 417.638 110.45 416.574 110.45 414.88ZM112.032 414.88C112.032 415.86 113.152 416.406 114.888 416.406C116.638 416.406 117.772 415.86 117.772 414.88C117.772 413.928 116.638 413.354 114.888 413.354C113.152 413.354 112.032 413.928 112.032 414.88ZM121.51 418.156H126.368V417.218H122.952V412.01H131.45V413.186H124.478V414.012H131.156V415.16H124.478V416.042H131.534V417.218H127.908V418.156H132.766V419.374H121.51V418.156ZM122.826 422.104C122.826 420.774 124.394 420.088 127.138 420.088C129.854 420.088 131.436 420.774 131.436 422.104C131.436 423.42 129.854 424.12 127.138 424.12C124.394 424.12 122.826 423.42 122.826 422.104ZM124.38 422.104C124.38 422.706 125.304 422.986 127.138 422.986C128.958 422.986 129.896 422.706 129.896 422.104C129.896 421.502 128.958 421.208 127.138 421.208C125.304 421.208 124.38 421.502 124.38 422.104ZM137.001 417.47H148.257V418.716H137.001V417.47ZM138.289 421.852C138.289 420.396 139.913 419.584 142.601 419.584C145.275 419.584 146.899 420.396 146.899 421.852C146.899 423.308 145.275 424.134 142.601 424.134C139.913 424.134 138.289 423.308 138.289 421.852ZM138.387 416.476V412.066H146.885V413.312H139.899V415.244H146.969V416.476H138.387ZM139.843 421.852C139.843 422.58 140.823 422.944 142.601 422.944C144.379 422.944 145.345 422.58 145.345 421.852C145.345 421.138 144.379 420.76 142.601 420.76C140.823 420.76 139.843 421.138 139.843 421.852ZM160.598 411.646H162.152V416.378H164.042V417.652H162.152V424.148H160.598V411.646ZM152.954 421.11V412.85H158.764V414.082H154.494V419.822C156.44 419.808 157.952 419.724 159.632 419.416L159.786 420.704C157.896 421.054 156.216 421.11 153.976 421.11H152.954ZM168.158 412.374C170.062 412.374 171.49 413.606 171.49 415.356C171.49 417.106 170.062 418.338 168.158 418.338C166.24 418.338 164.826 417.106 164.826 415.356C164.826 413.606 166.24 412.374 168.158 412.374ZM166.24 421.712C166.24 420.186 167.85 419.29 170.412 419.29C172.974 419.29 174.57 420.186 174.57 421.712C174.57 423.224 172.974 424.12 170.412 424.12C167.85 424.12 166.24 423.224 166.24 421.712ZM166.324 415.356C166.324 416.406 167.108 417.05 168.158 417.05C169.208 417.05 169.992 416.406 169.992 415.356C169.992 414.32 169.208 413.662 168.158 413.662C167.108 413.662 166.324 414.32 166.324 415.356ZM167.766 421.712C167.766 422.482 168.718 422.916 170.412 422.916C172.092 422.916 173.058 422.482 173.058 421.712C173.058 420.914 172.092 420.508 170.412 420.508C168.718 420.508 167.766 420.914 167.766 421.712ZM172.89 418.982V411.674H174.43V413.326H176.11V414.586H174.43V416.014H176.11V417.274H174.43V418.982H172.89ZM26.9222 433.674H28.4622V437.58H30.1982V438.854H28.4622V442.998H26.9222V433.674ZM18.7322 436.264V435.046H21.6302V433.66H23.1702V435.046H26.0682V436.264H18.7322ZM19.3762 439.176C19.3762 437.762 20.6222 436.81 22.4002 436.81C24.1922 436.81 25.4382 437.762 25.4382 439.176C25.4382 440.604 24.1922 441.556 22.4002 441.556C20.6222 441.556 19.3762 440.604 19.3762 439.176ZM20.5382 445.882V442.27H22.0782V444.65H28.9662V445.882H20.5382ZM20.8462 439.176C20.8462 439.932 21.4762 440.366 22.4002 440.366C23.3242 440.366 23.9542 439.932 23.9542 439.176C23.9542 438.42 23.3242 437.986 22.4002 437.986C21.4762 437.986 20.8462 438.42 20.8462 439.176ZM33.8525 434.416H35.3925V435.858C35.3925 437.482 36.3865 439.05 38.3325 439.708L37.5485 440.912C36.1765 440.45 35.1965 439.498 34.6505 438.294C34.1185 439.624 33.0965 440.66 31.6405 441.178L30.8145 439.974C32.8445 439.288 33.8525 437.622 33.8525 435.844V434.416ZM32.8025 445.882V441.934H34.3425V444.65H41.1885V445.882H32.8025ZM39.1585 442.802V433.66H40.6985V437.356H42.4345V438.63H40.6985V442.802H39.1585ZM46.6068 434.206C48.2308 434.206 49.4908 435.13 49.7848 436.502H51.9968V433.674H53.5368V440.352H51.9968V437.748H49.7988C49.5188 439.148 48.2448 440.086 46.6068 440.086C44.7308 440.086 43.3448 438.868 43.3448 437.146C43.3448 435.424 44.7308 434.206 46.6068 434.206ZM44.8148 437.146C44.8148 438.154 45.5568 438.798 46.6068 438.798C47.6428 438.798 48.3848 438.154 48.3848 437.146C48.3848 436.124 47.6428 435.48 46.6068 435.48C45.5568 435.48 44.8148 436.124 44.8148 437.146ZM45.3748 445.98V440.94H46.9148V442.256H52.0108V440.94H53.5368V445.98H45.3748ZM46.9148 444.748H52.0108V443.446H46.9148V444.748ZM60.1452 440.142H62.0772V438.252H60.3832C59.7952 440.338 58.5072 442.116 56.1692 443.502L55.3012 442.41C57.8352 440.884 59.0112 438.938 59.2352 436.418H55.9452V435.172H60.7612C60.7612 435.816 60.7192 436.432 60.6352 437.034H62.0772V433.954H63.5192V445.532H62.0772V441.374H60.1452V440.142ZM64.6252 446.12V433.66H66.0812V446.12H64.6252ZM71.6675 434.514C73.6135 434.514 75.0555 435.774 75.0555 437.538C75.0555 439.316 73.6135 440.562 71.6675 440.562C69.7075 440.562 68.2655 439.316 68.2655 437.538C68.2655 435.774 69.7075 434.514 71.6675 434.514ZM67.7055 442.284C69.9175 442.284 73.0255 442.27 75.6715 441.864L75.7835 442.984C73.0535 443.516 70.0715 443.544 67.8875 443.544L67.7055 442.284ZM69.7635 437.538C69.7635 438.574 70.5755 439.246 71.6675 439.246C72.7455 439.246 73.5575 438.574 73.5575 437.538C73.5575 436.488 72.7455 435.844 71.6675 435.844C70.5755 435.844 69.7635 436.488 69.7635 437.538ZM76.4135 446.148V433.646H77.9395V446.148H76.4135ZM92.3104 433.66H93.7804V446.12H92.3104V433.66ZM83.5184 443.278V435.116H88.2504V436.348H85.0304V442.004C86.4864 441.99 87.5364 441.906 88.7264 441.668L88.8664 442.928C87.4664 443.222 86.2344 443.278 84.3584 443.278H83.5184ZM87.3964 439.54V438.294H89.7624V433.912H91.2044V445.546H89.7624V439.54H87.3964ZM104.085 433.646H105.639V446.148H104.085V433.646ZM95.7407 438.966C95.7407 436.264 97.0987 434.556 98.9747 434.556C100.851 434.556 102.209 436.264 102.209 438.966C102.209 441.682 100.851 443.39 98.9747 443.39C97.0987 443.39 95.7407 441.682 95.7407 438.966ZM97.2247 438.966C97.2247 440.884 97.9387 442.004 98.9747 442.004C100.011 442.004 100.725 440.884 100.725 438.966C100.725 437.062 100.011 435.956 98.9747 435.956C97.9387 435.956 97.2247 437.062 97.2247 438.966ZM116.447 433.646H117.973V446.148H116.447V439.414H114.123V438.182H116.447V433.646ZM108.159 443.264V434.738H113.913V435.998H109.685V438.21H113.451V439.428H109.685V442.018C111.575 442.004 112.975 441.948 114.571 441.682L114.725 442.914C112.919 443.208 111.351 443.264 109.139 443.264H108.159ZM126.17 434.682H127.724V436.642C127.724 438.938 128.9 441.234 130.902 442.116L130.006 443.362C128.564 442.69 127.528 441.36 126.968 439.736C126.408 441.486 125.344 442.914 123.846 443.628L122.922 442.354C124.966 441.444 126.17 439.05 126.17 436.642V434.682ZM131.784 446.148V433.646H133.324V446.148H131.784ZM140.072 434.43H141.696V435.354C141.696 437.286 143.544 439.218 146.134 439.666L145.462 440.94C143.376 440.52 141.682 439.26 140.884 437.594C140.072 439.246 138.378 440.52 136.306 440.94L135.648 439.666C138.196 439.204 140.072 437.272 140.072 435.354V434.43ZM135.298 444.538V443.278H146.582V444.538H135.298ZM152.827 436.712H154.213V433.856H155.655V441.01H154.213V437.944H152.827V436.712ZM148.053 440.534V434.43H152.743V435.662H149.523V436.852H152.281V438.028H149.523V439.316C150.993 439.302 152.029 439.246 153.233 439.036L153.359 440.24C151.959 440.506 150.769 440.534 148.879 440.534H148.053ZM149.761 445.98V441.654H158.091V445.98H149.761ZM151.273 444.762H156.607V442.858H151.273V444.762ZM156.635 441.122V433.674H158.091V441.122H156.635ZM164.341 434.43H172.881V435.522C172.881 436.698 172.881 437.972 172.559 439.75H174.267V441.01H169.367V446.148H167.813V441.01H162.997V439.75H171.005C171.355 438.07 171.369 436.796 171.369 435.662H164.341V434.43ZM70.8901 461.848H82.1461V463.08H77.2881V464.27H80.7741V468.106H79.2481V465.502H72.1361V464.27H75.7341V463.08H70.8901V461.848ZM71.4361 460.154C74.0401 459.972 75.4821 459.076 75.6501 458.026H71.9961V456.836H75.7341V455.646H77.2881V456.836H81.0401V458.026H77.3721C77.5401 459.076 78.9821 459.972 81.5861 460.154L81.1241 461.316C78.9121 461.134 77.2881 460.448 76.5181 459.37C75.7341 460.448 74.1101 461.134 71.8981 461.316L71.4361 460.154ZM92.3104 455.66H93.7664V468.12H92.3104V455.66ZM83.2384 461.05C83.2384 458.292 84.2884 456.598 85.9124 456.598C87.4104 456.598 88.4184 458.012 88.5864 460.35H89.7904V455.898H91.2324V467.532H89.7904V461.596H88.6004C88.4744 464.046 87.4384 465.516 85.9124 465.516C84.2884 465.516 83.2384 463.822 83.2384 461.05ZM84.6384 461.05C84.6384 463.01 85.1144 464.074 85.9124 464.074C86.7244 464.074 87.2004 463.01 87.2004 461.05C87.2004 459.104 86.7244 458.054 85.9124 458.054C85.1144 458.054 84.6384 459.104 84.6384 461.05ZM106.835 455.66H108.375V458.698H110.055V459.972H108.375V462.996H106.835V455.66ZM98.4633 461.75C99.3873 461.75 100.465 461.75 101.585 461.722V461.078C100.213 460.938 99.3593 460.364 99.3593 459.482C99.3593 458.46 100.521 457.844 102.327 457.844C104.161 457.844 105.323 458.46 105.323 459.482C105.323 460.364 104.483 460.924 103.111 461.078V461.666C104.175 461.61 105.225 461.526 106.219 461.4L106.331 462.338C103.699 462.8 100.801 462.828 98.6313 462.828L98.4633 461.75ZM98.7853 457.55V456.5H101.585V455.548H103.111V456.5H105.883V457.55H98.7853ZM100.129 464.522V463.5H108.375V466.202H101.669V466.986H108.823V468.022H100.143V465.236H106.863V464.522H100.129ZM100.815 459.482C100.815 459.916 101.389 460.154 102.327 460.154C103.293 460.154 103.867 459.916 103.867 459.482C103.867 459.048 103.293 458.81 102.327 458.81C101.389 458.81 100.815 459.048 100.815 459.482ZM110.826 461.68H113.444V460.084C112.52 459.678 111.988 459.048 111.988 458.236C111.988 456.752 113.724 455.87 116.454 455.87C119.184 455.87 120.92 456.752 120.92 458.236C120.92 459.048 120.388 459.692 119.436 460.098V461.68H122.082V462.884H110.826V461.68ZM112.128 465.88C112.128 464.452 113.752 463.64 116.44 463.64C119.114 463.64 120.738 464.452 120.738 465.88C120.738 467.322 119.114 468.134 116.44 468.134C113.752 468.134 112.128 467.322 112.128 465.88ZM113.57 458.236C113.57 459.006 114.634 459.426 116.454 459.426C118.26 459.426 119.324 459.006 119.324 458.236C119.324 457.466 118.26 457.046 116.454 457.046C114.634 457.046 113.57 457.466 113.57 458.236ZM113.682 465.88C113.682 466.594 114.648 466.958 116.44 466.958C118.218 466.958 119.184 466.594 119.184 465.88C119.184 465.18 118.218 464.816 116.44 464.816C114.648 464.816 113.682 465.18 113.682 465.88ZM114.97 461.68H117.91V460.49C117.462 460.56 116.972 460.588 116.454 460.588C115.922 460.588 115.418 460.56 114.97 460.49V461.68Z" fill="#6D0CA6"/>
</svg>
