<svg width="793" height="504" viewBox="0 0 793 504" fill="none" xmlns="http://www.w3.org/2000/svg">
<circle opacity="0.04" cx="100" cy="100" r="100" fill="#9735D0"/>
<path d="M68.4695 105.2C71.3895 102.4 75.3695 99.56 75.3695 97.1C75.3695 95.46 74.3295 94.3 72.8495 94.3C71.7095 94.3 70.5695 95.12 70.0495 96.3L68.1895 95.48C68.9895 93.64 70.9295 92.36 72.8495 92.36C75.5895 92.36 77.4895 94.32 77.4895 97.1C77.4895 100.16 74.1695 102.88 71.4695 105.2H77.7295V107.06H68.6695L68.4695 105.2ZM85.1529 105.32C87.1529 105.32 88.4929 103.08 88.4929 99.78C88.4929 96.46 87.1529 94.22 85.1529 94.22C83.1529 94.22 81.7929 96.46 81.7929 99.78C81.7929 103.08 83.1529 105.32 85.1529 105.32ZM79.6729 99.78C79.6729 95.42 81.9329 92.36 85.1529 92.36C88.3529 92.36 90.6129 95.42 90.6129 99.78C90.6129 104.12 88.3529 107.2 85.1529 107.2C81.9329 107.2 79.6729 104.12 79.6729 99.78ZM97.984 92.52V107.06L95.864 107.04V94.78L93.304 96.2L92.424 94.42L95.884 92.52H97.984ZM105.883 105.48C107.543 105.48 108.703 104.42 108.703 102.9C108.703 101.38 107.543 100.3 105.883 100.3C104.223 100.3 103.043 101.38 103.043 102.9C103.043 104.42 104.223 105.48 105.883 105.48ZM100.923 102.94C100.923 101.66 101.923 100.18 103.323 99.4C102.163 98.6 101.323 97.3 101.323 96.26C101.323 93.9 103.203 92.26 105.883 92.26C108.563 92.26 110.443 93.9 110.443 96.26C110.443 97.32 109.623 98.62 108.443 99.4C109.843 100.2 110.843 101.66 110.843 102.94C110.843 105.5 108.803 107.3 105.883 107.3C102.983 107.3 100.923 105.5 100.923 102.94ZM103.463 96.26C103.463 97.56 104.463 98.48 105.883 98.48C107.323 98.48 108.323 97.56 108.323 96.26C108.323 94.96 107.323 94.06 105.883 94.06C104.463 94.06 103.463 94.96 103.463 96.26ZM114.138 104.98C114.858 104.98 115.358 105.5 115.358 106.22C115.358 106.96 114.858 107.48 114.138 107.48C113.398 107.48 112.878 106.96 112.878 106.22C112.878 105.5 113.398 104.98 114.138 104.98ZM130.714 99.54C132.014 100.3 132.834 101.72 132.834 102.94C132.834 105.42 130.794 107.18 127.894 107.18C125.014 107.18 122.974 105.38 122.974 102.82H125.094C125.094 104.28 126.254 105.3 127.894 105.3C129.574 105.3 130.774 104.28 130.774 102.82C130.774 101.42 129.594 100.42 127.934 100.42H126.894V98.64H127.954C129.474 98.64 130.554 97.74 130.554 96.46C130.554 95.16 129.514 94.26 128.034 94.26C126.554 94.26 125.534 95.18 125.534 96.48H123.414C123.414 94.06 125.314 92.38 128.034 92.38C130.714 92.38 132.614 94.02 132.614 96.34C132.614 97.46 131.894 98.78 130.714 99.54Z" fill="#6D0CA6"/>
<path d="M241.044 93.648H244.356V91.866H246.336V93.648H249.63V95.214H246.318V95.394C246.318 97.158 247.614 98.886 250.08 99.606L249.198 101.154C247.398 100.632 246.12 99.552 245.4 98.202C244.698 99.75 243.384 100.974 241.512 101.55L240.558 100.02C243.06 99.246 244.356 97.338 244.356 95.394V95.214H241.044V93.648ZM242.43 106.356C245.598 105.87 247.632 104.016 247.632 102.216V101.928H249.648V102.216C249.648 104.088 251.61 105.87 254.832 106.356L254.076 107.904C251.52 107.49 249.576 106.284 248.622 104.646C247.668 106.266 245.724 107.508 243.186 107.904L242.43 106.356ZM249.198 97.878V96.276H251.952V91.938H253.932V102.9H251.952V97.878H249.198ZM260.475 101.514H274.983V103.134H268.719V107.976H266.721V103.134H260.475V101.514ZM262.347 100.182V92.622H273.255V94.188H264.291V95.592H272.913V97.122H264.291V98.598H273.435V100.182H262.347ZM276.495 93.504H285.243V95.142H281.913V96.474C281.913 98.94 283.389 101.784 285.891 102.954L284.793 104.52C282.993 103.656 281.679 101.946 280.959 99.966C280.239 102.144 278.871 104.016 277.035 104.916L275.901 103.35C278.403 102.144 279.951 99.138 279.951 96.474V95.142H276.495V93.504ZM286.683 107.958V91.938H288.681V98.184H291.111V99.822H288.681V107.958H286.683ZM296.736 92.874H305.466V94.422H302.118C302.136 96.294 303.522 98.13 306.006 98.868L305.034 100.398C303.198 99.858 301.884 98.688 301.146 97.212C300.444 98.814 299.094 100.074 297.186 100.668L296.196 99.12C298.752 98.364 300.084 96.42 300.102 94.422H296.736V92.874ZM298.806 107.76V101.334H300.75V102.972H307.374V101.334H309.318V107.76H298.806ZM300.75 106.158H307.374V104.502H300.75V106.158ZM307.338 100.614V91.938H309.318V100.614H307.338ZM323.539 91.938H325.411V102H323.539V97.644H322.027V101.46H320.173V92.244H322.027V96.042H323.539V91.938ZM311.731 95.232V93.666H314.737V92.082H316.681V93.666H319.651V95.232H311.731ZM312.289 98.616C312.289 96.96 313.711 95.844 315.709 95.844C317.725 95.844 319.147 96.96 319.147 98.616C319.147 100.29 317.725 101.388 315.709 101.388C313.711 101.388 312.289 100.29 312.289 98.616ZM314.035 98.616C314.035 99.462 314.719 99.984 315.709 99.984C316.699 99.984 317.401 99.462 317.401 98.616C317.401 97.77 316.699 97.284 315.709 97.284C314.719 97.284 314.035 97.77 314.035 98.616ZM314.611 105.078C314.611 103.242 316.645 102.216 320.047 102.216C323.467 102.216 325.501 103.242 325.501 105.078C325.501 106.896 323.467 107.94 320.047 107.94C316.645 107.94 314.611 106.896 314.611 105.078ZM316.573 105.078C316.573 105.996 317.797 106.446 320.047 106.446C322.315 106.446 323.521 105.996 323.521 105.078C323.521 104.142 322.315 103.692 320.047 103.692C317.797 103.692 316.573 104.142 316.573 105.078Z" fill="#15151A"/>
<circle opacity="0.08" cx="100" cy="252" r="100" fill="#9735D0"/>
<path d="M66.282 257.2C69.202 254.4 73.182 251.56 73.182 249.1C73.182 247.46 72.142 246.3 70.662 246.3C69.522 246.3 68.382 247.12 67.862 248.3L66.002 247.48C66.802 245.64 68.742 244.36 70.662 244.36C73.402 244.36 75.302 246.32 75.302 249.1C75.302 252.16 71.982 254.88 69.282 257.2H75.542V259.06H66.482L66.282 257.2ZM82.9654 257.32C84.9654 257.32 86.3054 255.08 86.3054 251.78C86.3054 248.46 84.9654 246.22 82.9654 246.22C80.9654 246.22 79.6054 248.46 79.6054 251.78C79.6054 255.08 80.9654 257.32 82.9654 257.32ZM77.4854 251.78C77.4854 247.42 79.7454 244.36 82.9654 244.36C86.1654 244.36 88.4254 247.42 88.4254 251.78C88.4254 256.12 86.1654 259.2 82.9654 259.2C79.7454 259.2 77.4854 256.12 77.4854 251.78ZM90.6765 257.2C93.5965 254.4 97.5765 251.56 97.5765 249.1C97.5765 247.46 96.5365 246.3 95.0565 246.3C93.9165 246.3 92.7765 247.12 92.2565 248.3L90.3965 247.48C91.1965 245.64 93.1365 244.36 95.0565 244.36C97.7965 244.36 99.6965 246.32 99.6965 249.1C99.6965 252.16 96.3765 254.88 93.6765 257.2H99.9365V259.06H90.8765L90.6765 257.2ZM107.36 257.32C109.36 257.32 110.7 255.08 110.7 251.78C110.7 248.46 109.36 246.22 107.36 246.22C105.36 246.22 104 248.46 104 251.78C104 255.08 105.36 257.32 107.36 257.32ZM101.88 251.78C101.88 247.42 104.14 244.36 107.36 244.36C110.56 244.36 112.82 247.42 112.82 251.78C112.82 256.12 110.56 259.2 107.36 259.2C104.14 259.2 101.88 256.12 101.88 251.78ZM116.111 256.98C116.831 256.98 117.331 257.5 117.331 258.22C117.331 258.96 116.831 259.48 116.111 259.48C115.371 259.48 114.851 258.96 114.851 258.22C114.851 257.5 115.371 256.98 116.111 256.98ZM127.647 252.54L125.527 252.28L126.027 244.5H133.807V246.36H128.067L127.827 249.92C128.487 249.62 129.227 249.44 129.887 249.44C132.887 249.44 135.007 251.46 135.007 254.32C135.007 257.22 132.887 259.26 129.887 259.26C127.527 259.26 125.487 257.68 124.967 255.44L127.027 254.96C127.327 256.3 128.507 257.26 129.887 257.26C131.647 257.26 132.887 256.04 132.887 254.32C132.887 252.64 131.647 251.44 129.887 251.44C129.147 251.44 128.227 251.9 127.647 252.54Z" fill="#6D0CA6"/>
<path d="M251.556 232.36V245.644H249.63V239.65H243.366V245.644H241.458V232.36H243.366V237.994H249.63V232.36H251.556ZM254.466 237.058H256.374V245.644H254.466V237.058ZM254.34 233.854C254.34 233.224 254.79 232.774 255.42 232.774C256.05 232.774 256.5 233.224 256.5 233.854C256.5 234.484 256.05 234.934 255.42 234.934C254.79 234.934 254.34 234.484 254.34 233.854ZM262.597 243.898C263.263 243.898 264.037 243.556 264.523 243.016L265.837 244.33C265.099 245.14 263.749 245.716 262.669 245.716C260.113 245.716 258.313 243.916 258.313 241.396C258.313 238.858 260.113 237.058 262.669 237.058C263.803 237.058 265.063 237.634 265.837 238.462L264.523 239.758C264.037 239.218 263.263 238.876 262.597 238.876C261.175 238.876 260.221 239.866 260.221 241.396C260.221 242.908 261.175 243.898 262.597 243.898ZM271.11 244.096C272.442 244.096 273.342 243.034 273.342 241.396C273.342 239.776 272.442 238.696 271.11 238.696C269.778 238.696 268.878 239.758 268.878 241.396C268.878 243.034 269.76 244.096 271.11 244.096ZM266.97 241.396C266.97 238.858 268.68 237.058 271.11 237.058C273.54 237.058 275.25 238.858 275.25 241.396C275.25 243.916 273.54 245.734 271.11 245.734C268.68 245.734 266.97 243.916 266.97 241.396ZM288.207 245.788C284.355 245.788 281.655 242.98 281.655 239.002C281.655 235.006 284.355 232.216 288.207 232.216C290.025 232.216 291.645 232.99 292.833 234.196L291.573 235.438C290.781 234.502 289.521 233.89 288.189 233.89C285.435 233.89 283.581 235.942 283.581 239.002C283.581 242.062 285.435 244.114 288.189 244.114C289.611 244.114 290.745 243.466 291.501 242.602L292.833 243.808C291.645 245.014 290.115 245.806 288.207 245.788ZM298.46 245.734C296.084 245.734 294.392 243.934 294.392 241.414C294.392 238.894 296.084 237.094 298.46 237.094C299.306 237.094 300.242 237.49 300.926 238.3V237.076H302.834V245.662H300.926V244.51C300.242 245.374 299.306 245.734 298.46 245.734ZM296.3 241.414C296.3 243.034 297.218 244.114 298.586 244.114C299.846 244.114 300.926 242.98 300.944 241.414C300.926 239.848 299.846 238.714 298.586 238.714C297.218 238.714 296.3 239.776 296.3 241.414ZM309.567 244.096C310.953 244.096 311.853 243.016 311.853 241.378C311.853 239.74 310.953 238.66 309.567 238.66C308.271 238.66 307.209 239.866 307.209 241.378C307.209 242.89 308.271 244.096 309.567 244.096ZM305.283 249.46V237.058H307.191V238.318C307.875 237.418 309.009 237.058 309.675 237.058C312.069 237.058 313.761 238.84 313.761 241.378C313.761 243.934 312.069 245.716 309.675 245.716C308.991 245.716 307.875 245.338 307.191 244.438V249.46H305.283ZM315.831 237.058H317.739V245.644H315.831V237.058ZM315.705 233.854C315.705 233.224 316.155 232.774 316.785 232.774C317.415 232.774 317.865 233.224 317.865 233.854C317.865 234.484 317.415 234.934 316.785 234.934C316.155 234.934 315.705 234.484 315.705 233.854ZM321.478 245.662V238.714H319.858V237.058H321.478V234.052H323.386V237.058H325.42V238.714H323.386V245.662H321.478ZM330.839 245.734C328.463 245.734 326.771 243.934 326.771 241.414C326.771 238.894 328.463 237.094 330.839 237.094C331.685 237.094 332.621 237.49 333.305 238.3V237.076H335.213V245.662H333.305V244.51C332.621 245.374 331.685 245.734 330.839 245.734ZM328.679 241.414C328.679 243.034 329.597 244.114 330.965 244.114C332.225 244.114 333.305 242.98 333.323 241.414C333.305 239.848 332.225 238.714 330.965 238.714C329.597 238.714 328.679 239.776 328.679 241.414ZM337.533 232.792H339.441V245.644H337.533V232.792ZM353.568 233.494H356.7V230.938H358.68V239.11H356.7V235.078H353.568V233.494ZM345.288 237.652C347.844 236.842 349.158 234.862 349.158 232.72V231.442H351.138V232.72C351.138 234.682 352.416 236.572 354.846 237.346L353.838 238.876C352.11 238.3 350.868 237.148 350.184 235.69C349.482 237.31 348.186 238.588 346.314 239.2L345.288 237.652ZM348.204 241.378V239.848H358.68V243.97H350.184V245.212H359.184V246.76H348.222V242.53H356.718V241.378H348.204ZM372.36 230.92H374.34V239.812H372.36V230.92ZM361.902 233.26V231.676H369.228V236.266H363.864V237.922C366.6 237.904 368.562 237.814 370.794 237.436L371.028 239.038C368.544 239.452 366.402 239.524 363.288 239.524H361.92V234.772H367.284V233.26H361.902ZM363.792 246.76V240.532H365.754V242.098H372.396V240.532H374.34V246.76H363.792ZM365.754 245.158H372.396V243.628H365.754V245.158Z" fill="#15151A"/>
<path d="M241.456 268.446C241.456 266.668 242.156 264.302 243.164 262.72H244.438C243.304 264.274 242.52 266.626 242.52 268.446C242.52 270.266 243.304 272.618 244.438 274.172H243.164C242.156 272.59 241.456 270.224 241.456 268.446ZM246.564 263.42H252.248V271.484H246.564V263.42ZM247.754 270.504H251.086V264.4H247.754V270.504ZM254.754 274.578V262.216H255.972V274.578H254.754ZM259.542 262.832H267.844V263.728C267.844 264.68 267.844 265.758 267.55 267.2H269.272V268.194H264.288V270.378H267.914V274.564H266.71V271.344H259.276V270.378H263.084V268.194H258.114V267.2H266.346C266.654 265.772 266.668 264.736 266.668 263.812H259.542V262.832ZM282.509 262.244H283.727V271.638H282.509V269.062H280.479V268.082H282.509V266.458H280.479V265.478H282.509V262.244ZM273.577 264.68V263.7H276.475V262.216H277.693V263.7H280.479V264.68H273.577ZM274.263 267.69C274.263 266.262 275.425 265.324 277.063 265.324C278.715 265.324 279.877 266.262 279.877 267.69C279.877 269.09 278.715 270.042 277.063 270.042C275.425 270.042 274.263 269.09 274.263 267.69ZM275.411 267.69C275.411 268.544 276.083 269.104 277.063 269.104C278.057 269.104 278.729 268.544 278.729 267.69C278.729 266.85 278.057 266.276 277.063 266.276C276.083 266.276 275.411 266.85 275.411 267.69ZM275.775 274.284V270.826H276.993V273.304H284.021V274.284H275.775ZM286.191 263.49H293.079V264.498H290.237V265.94C290.237 268.026 291.665 270.14 293.499 270.924L292.813 271.89C291.399 271.232 290.223 269.86 289.649 268.194C289.075 269.972 287.913 271.498 286.485 272.198L285.785 271.232C287.591 270.378 289.019 268.068 289.019 265.94V264.498H286.191V263.49ZM294.675 274.564V262.244H295.893V274.564H294.675ZM301.864 262.874H303.068V264.722H306.274V262.874H307.464V265.226H310.208V262.244H311.426V268.964H310.208V266.22H307.464V268.53H301.864V262.874ZM303.068 267.536H306.274V265.66H303.068V267.536ZM303.502 274.382V269.552H304.692V270.98H310.222V269.552H311.412V274.382H303.502ZM304.692 273.402H310.222V271.96H304.692V273.402ZM322.402 262.244H323.62V271.218H322.402V262.244ZM313.764 266.136C313.764 264.344 315.164 263.084 316.998 263.084C318.846 263.084 320.232 264.344 320.232 266.136C320.232 267.914 318.846 269.174 316.998 269.174C315.164 269.174 313.764 267.914 313.764 266.136ZM314.954 266.136C314.954 267.298 315.836 268.11 316.998 268.11C318.16 268.11 319.056 267.298 319.056 266.136C319.056 264.946 318.16 264.134 316.998 264.134C315.836 264.134 314.954 264.946 314.954 266.136ZM315.682 274.284V270.308H316.886V273.304H323.984V274.284H315.682ZM329.095 268.446C329.095 270.238 328.395 272.59 327.401 274.172H326.127C327.247 272.632 328.031 270.266 328.031 268.446C328.031 266.626 327.247 264.26 326.127 262.72H327.401C328.395 264.302 329.095 266.654 329.095 268.446Z" fill="#3F3F46"/>
<circle opacity="0.15" cx="100" cy="404" r="100" fill="#9735D0"/>
<path d="M65.2937 409.2C68.2137 406.4 72.1937 403.56 72.1937 401.1C72.1937 399.46 71.1537 398.3 69.6737 398.3C68.5337 398.3 67.3937 399.12 66.8737 400.3L65.0137 399.48C65.8137 397.64 67.7537 396.36 69.6737 396.36C72.4137 396.36 74.3137 398.32 74.3137 401.1C74.3137 404.16 70.9937 406.88 68.2937 409.2H74.5537V411.06H65.4937L65.2937 409.2ZM81.9771 409.32C83.9771 409.32 85.3171 407.08 85.3171 403.78C85.3171 400.46 83.9771 398.22 81.9771 398.22C79.9771 398.22 78.6171 400.46 78.6171 403.78C78.6171 407.08 79.9771 409.32 81.9771 409.32ZM76.4971 403.78C76.4971 399.42 78.7571 396.36 81.9771 396.36C85.1771 396.36 87.4371 399.42 87.4371 403.78C87.4371 408.12 85.1771 411.2 81.9771 411.2C78.7571 411.2 76.4971 408.12 76.4971 403.78ZM89.6882 409.2C92.6082 406.4 96.5882 403.56 96.5882 401.1C96.5882 399.46 95.5482 398.3 94.0682 398.3C92.9282 398.3 91.7882 399.12 91.2682 400.3L89.4082 399.48C90.2082 397.64 92.1482 396.36 94.0682 396.36C96.8082 396.36 98.7082 398.32 98.7082 401.1C98.7082 404.16 95.3882 406.88 92.6882 409.2H98.9482V411.06H89.8882L89.6882 409.2ZM106.332 396.52V411.06L104.212 411.04V398.78L101.652 400.2L100.772 398.42L104.232 396.52H106.332ZM110.611 408.98C111.331 408.98 111.831 409.5 111.831 410.22C111.831 410.96 111.331 411.48 110.611 411.48C109.871 411.48 109.351 410.96 109.351 410.22C109.351 409.5 109.871 408.98 110.611 408.98ZM124.867 396.52V411.06L122.747 411.04V398.78L120.187 400.2L119.307 398.42L122.767 396.52H124.867ZM134.027 396.52V411.06L131.907 411.04V398.78L129.347 400.2L128.467 398.42L131.927 396.52H134.027Z" fill="#6D0CA6"/>
<path d="M251.934 395.938H253.914V407.674H251.934V401.932H249.45V400.348H251.934V395.938ZM240.612 403.786H242.412V398.836H241.026V397.252H249.522V398.836H248.118V403.57C248.802 403.516 249.486 403.444 250.134 403.354L250.26 404.812C247.128 405.352 243.51 405.406 240.81 405.406L240.612 403.786ZM243.456 411.634V406.684H245.418V410.05H254.292V411.634H243.456ZM244.32 403.75C244.95 403.732 245.58 403.714 246.21 403.678V398.836H244.32V403.75ZM258.09 397.288H269.106V398.908H260.052V403.426H269.25V405.01H258.09V397.288ZM256.344 409.924V408.304H270.852V409.924H256.344ZM277.071 397.36H278.979V410.644H277.071V397.36ZM281.888 397.36H283.796V410.644H281.888V397.36ZM290.601 397.018H297.783V401.968H292.599V404.002C295.227 403.984 296.973 403.912 298.953 403.588L299.115 405.172C296.901 405.55 294.993 405.604 291.897 405.604H290.637V400.474H295.821V398.584H290.601V397.018ZM292.779 411.634V406.81H294.759V410.05H303.741V411.634H292.779ZM298.647 401.572V399.88H301.329V395.938H303.309V407.71H301.329V401.572H298.647ZM306.405 397.702H309.789V395.938H311.769V397.702H315.135V399.286H311.769C311.805 401.086 313.173 402.814 315.675 403.48L314.757 405.046C312.903 404.524 311.571 403.426 310.833 402.004C310.113 403.588 308.781 404.812 306.855 405.388L305.919 403.84C308.439 403.084 309.771 401.248 309.789 399.286H306.405V397.702ZM308.151 408.934C308.151 407.062 310.203 405.946 313.569 405.946C316.935 405.946 319.023 407.062 319.023 408.934C319.023 410.842 316.935 411.94 313.569 411.94C310.203 411.94 308.151 410.842 308.151 408.934ZM310.131 408.934C310.131 409.906 311.355 410.428 313.569 410.428C315.801 410.428 317.061 409.906 317.061 408.934C317.061 407.98 315.801 407.458 313.569 407.458C311.355 407.458 310.131 407.98 310.131 408.934ZM316.971 405.658V395.938H318.951V405.658H316.971Z" fill="#15151A"/>
</svg>
