<svg width="339" height="326" viewBox="0 0 339 326" fill="none" xmlns="http://www.w3.org/2000/svg">
<circle opacity="0.04" cx="65" cy="65" r="65" fill="#9735D0"/>
<path d="M39.3756 69.56C41.7116 67.32 44.8956 65.048 44.8956 63.08C44.8956 61.768 44.0636 60.84 42.8796 60.84C41.9676 60.84 41.0556 61.496 40.6396 62.44L39.1516 61.784C39.7916 60.312 41.3436 59.288 42.8796 59.288C45.0716 59.288 46.5916 60.856 46.5916 63.08C46.5916 65.528 43.9356 67.704 41.7756 69.56H46.7836V71.048H39.5356L39.3756 69.56ZM52.7223 69.656C54.3223 69.656 55.3943 67.864 55.3943 65.224C55.3943 62.568 54.3223 60.776 52.7223 60.776C51.1223 60.776 50.0343 62.568 50.0343 65.224C50.0343 67.864 51.1223 69.656 52.7223 69.656ZM48.3383 65.224C48.3383 61.736 50.1463 59.288 52.7223 59.288C55.2823 59.288 57.0903 61.736 57.0903 65.224C57.0903 68.696 55.2823 71.16 52.7223 71.16C50.1463 71.16 48.3383 68.696 48.3383 65.224ZM62.9872 59.416V71.048L61.2912 71.032V61.224L59.2432 62.36L58.5392 60.936L61.3072 59.416H62.9872ZM69.3067 69.784C70.6347 69.784 71.5627 68.936 71.5627 67.72C71.5627 66.504 70.6347 65.64 69.3067 65.64C67.9787 65.64 67.0347 66.504 67.0347 67.72C67.0347 68.936 67.9787 69.784 69.3067 69.784ZM65.3387 67.752C65.3387 66.728 66.1387 65.544 67.2587 64.92C66.3307 64.28 65.6587 63.24 65.6587 62.408C65.6587 60.52 67.1627 59.208 69.3067 59.208C71.4507 59.208 72.9547 60.52 72.9547 62.408C72.9547 63.256 72.2987 64.296 71.3547 64.92C72.4747 65.56 73.2747 66.728 73.2747 67.752C73.2747 69.8 71.6427 71.24 69.3067 71.24C66.9867 71.24 65.3387 69.8 65.3387 67.752ZM67.3707 62.408C67.3707 63.448 68.1707 64.184 69.3067 64.184C70.4587 64.184 71.2587 63.448 71.2587 62.408C71.2587 61.368 70.4587 60.648 69.3067 60.648C68.1707 60.648 67.3707 61.368 67.3707 62.408ZM75.9107 69.384C76.4867 69.384 76.8867 69.8 76.8867 70.376C76.8867 70.968 76.4867 71.384 75.9107 71.384C75.3187 71.384 74.9027 70.968 74.9027 70.376C74.9027 69.8 75.3187 69.384 75.9107 69.384ZM89.1713 65.032C90.2113 65.64 90.8673 66.776 90.8673 67.752C90.8673 69.736 89.2353 71.144 86.9153 71.144C84.6113 71.144 82.9793 69.704 82.9793 67.656H84.6753C84.6753 68.824 85.6033 69.64 86.9153 69.64C88.2593 69.64 89.2193 68.824 89.2193 67.656C89.2193 66.536 88.2753 65.736 86.9473 65.736H86.1153V64.312H86.9633C88.1793 64.312 89.0433 63.592 89.0433 62.568C89.0433 61.528 88.2113 60.808 87.0273 60.808C85.8433 60.808 85.0273 61.544 85.0273 62.584H83.3313C83.3313 60.648 84.8513 59.304 87.0273 59.304C89.1713 59.304 90.6913 60.616 90.6913 62.472C90.6913 63.368 90.1153 64.424 89.1713 65.032Z" fill="#6D0CA6"/>
<path d="M154.812 60.004H157.388V58.618H158.928V60.004H161.49V61.222H158.914V61.362C158.914 62.734 159.922 64.078 161.84 64.638L161.154 65.842C159.754 65.436 158.76 64.596 158.2 63.546C157.654 64.75 156.632 65.702 155.176 66.15L154.434 64.96C156.38 64.358 157.388 62.874 157.388 61.362V61.222H154.812V60.004ZM155.89 69.888C158.354 69.51 159.936 68.068 159.936 66.668V66.444H161.504V66.668C161.504 68.124 163.03 69.51 165.536 69.888L164.948 71.092C162.96 70.77 161.448 69.832 160.706 68.558C159.964 69.818 158.452 70.784 156.478 71.092L155.89 69.888ZM161.154 63.294V62.048H163.296V58.674H164.836V67.2H163.296V63.294H161.154ZM169.925 66.122H181.209V67.382H176.337V71.148H174.783V67.382H169.925V66.122ZM171.381 65.086V59.206H179.865V60.424H172.893V61.516H179.599V62.706H172.893V63.854H180.005V65.086H171.381ZM182.385 59.892H189.189V61.166H186.599V62.202C186.599 64.12 187.747 66.332 189.693 67.242L188.839 68.46C187.439 67.788 186.417 66.458 185.857 64.918C185.297 66.612 184.233 68.068 182.805 68.768L181.923 67.55C183.869 66.612 185.073 64.274 185.073 62.202V61.166H182.385V59.892ZM190.309 71.134V58.674H191.863V63.532H193.753V64.806H191.863V71.134H190.309ZM195.392 64.946C195.392 63.126 196.106 60.732 197.114 59.136H198.682C197.534 60.718 196.736 63.112 196.736 64.946C196.736 66.78 197.534 69.174 198.682 70.756H197.114C196.106 69.16 195.392 66.766 195.392 64.946ZM208.584 59.78L204.496 64.372L208.668 70.112H206.82L203.474 65.52L202.2 66.92V70.112H200.716V59.794H202.2V64.708L206.596 59.78H208.584ZM211.481 67.256C211.481 68.278 212.083 68.908 212.965 68.908C213.903 68.908 214.547 68.292 214.533 67.27V63.448H216.031V70.126H214.533V69.356C214.113 69.874 213.427 70.182 212.769 70.182C211.159 70.182 209.997 69.02 209.997 67.312V63.448H211.481V67.256ZM217.87 70.126V63.448H219.354V64.428C219.802 63.798 220.614 63.378 221.398 63.42V64.792C220.208 64.736 219.354 65.786 219.354 66.808V70.126H217.87ZM222.873 60.116H224.357V70.112H222.873V60.116ZM228.663 73.024H227.039L228.495 69.566L225.807 63.448H227.445L229.279 67.872L231.043 63.448H232.653L230.161 69.454L228.663 73.024ZM237.819 61.95L237.805 63.924L239.667 63.336L240.059 64.582L238.225 65.156L239.429 66.794L238.393 67.606L237.161 65.94L235.929 67.606L234.921 66.78L236.111 65.156L234.263 64.582L234.669 63.336L236.503 63.924L236.489 61.95H237.819ZM245.194 64.946C245.194 66.766 244.494 69.146 243.486 70.756H241.918C243.052 69.188 243.85 66.78 243.85 64.946C243.85 63.112 243.052 60.704 241.918 59.136H243.486C244.494 60.746 245.194 63.126 245.194 64.946ZM250.861 59.402H257.651V60.606H255.047C255.061 62.062 256.139 63.49 258.071 64.064L257.315 65.254C255.887 64.834 254.865 63.924 254.291 62.776C253.745 64.022 252.695 65.002 251.211 65.464L250.441 64.26C252.429 63.672 253.465 62.16 253.479 60.606H250.861V59.402ZM252.471 70.98V65.982H253.983V67.256H259.135V65.982H260.647V70.98H252.471ZM253.983 69.734H259.135V68.446H253.983V69.734ZM259.107 65.422V58.674H260.647V65.422H259.107ZM271.707 58.674H273.163V66.5H271.707V63.112H270.531V66.08H269.089V58.912H270.531V61.866H271.707V58.674ZM262.523 61.236V60.018H264.861V58.786H266.373V60.018H268.683V61.236H262.523ZM262.957 63.868C262.957 62.58 264.063 61.712 265.617 61.712C267.185 61.712 268.291 62.58 268.291 63.868C268.291 65.17 267.185 66.024 265.617 66.024C264.063 66.024 262.957 65.17 262.957 63.868ZM264.315 63.868C264.315 64.526 264.847 64.932 265.617 64.932C266.387 64.932 266.933 64.526 266.933 63.868C266.933 63.21 266.387 62.832 265.617 62.832C264.847 62.832 264.315 63.21 264.315 63.868ZM264.763 68.894C264.763 67.466 266.345 66.668 268.991 66.668C271.651 66.668 273.233 67.466 273.233 68.894C273.233 70.308 271.651 71.12 268.991 71.12C266.345 71.12 264.763 70.308 264.763 68.894ZM266.289 68.894C266.289 69.608 267.241 69.958 268.991 69.958C270.755 69.958 271.693 69.608 271.693 68.894C271.693 68.166 270.755 67.816 268.991 67.816C267.241 67.816 266.289 68.166 266.289 68.894Z" fill="#15151A"/>
<circle opacity="0.08" cx="65" cy="163" r="65" fill="#9735D0"/>
<path d="M38.1256 167.56C40.4616 165.32 43.6456 163.048 43.6456 161.08C43.6456 159.768 42.8136 158.84 41.6296 158.84C40.7176 158.84 39.8056 159.496 39.3896 160.44L37.9016 159.784C38.5416 158.312 40.0936 157.288 41.6296 157.288C43.8216 157.288 45.3416 158.856 45.3416 161.08C45.3416 163.528 42.6856 165.704 40.5256 167.56H45.5336V169.048H38.2856L38.1256 167.56ZM51.4723 167.656C53.0723 167.656 54.1443 165.864 54.1443 163.224C54.1443 160.568 53.0723 158.776 51.4723 158.776C49.8723 158.776 48.7843 160.568 48.7843 163.224C48.7843 165.864 49.8723 167.656 51.4723 167.656ZM47.0883 163.224C47.0883 159.736 48.8963 157.288 51.4723 157.288C54.0323 157.288 55.8403 159.736 55.8403 163.224C55.8403 166.696 54.0323 169.16 51.4723 169.16C48.8963 169.16 47.0883 166.696 47.0883 163.224ZM57.6412 167.56C59.9772 165.32 63.1612 163.048 63.1612 161.08C63.1612 159.768 62.3292 158.84 61.1452 158.84C60.2332 158.84 59.3212 159.496 58.9052 160.44L57.4172 159.784C58.0572 158.312 59.6092 157.288 61.1452 157.288C63.3372 157.288 64.8572 158.856 64.8572 161.08C64.8572 163.528 62.2012 165.704 60.0412 167.56H65.0492V169.048H57.8012L57.6412 167.56ZM70.9879 167.656C72.5879 167.656 73.6599 165.864 73.6599 163.224C73.6599 160.568 72.5879 158.776 70.9879 158.776C69.3879 158.776 68.2999 160.568 68.2999 163.224C68.2999 165.864 69.3879 167.656 70.9879 167.656ZM66.6039 163.224C66.6039 159.736 68.4119 157.288 70.9879 157.288C73.5479 157.288 75.3559 159.736 75.3559 163.224C75.3559 166.696 73.5479 169.16 70.9879 169.16C68.4119 169.16 66.6039 166.696 66.6039 163.224ZM77.9888 167.384C78.5648 167.384 78.9648 167.8 78.9648 168.376C78.9648 168.968 78.5648 169.384 77.9888 169.384C77.3968 169.384 76.9808 168.968 76.9808 168.376C76.9808 167.8 77.3968 167.384 77.9888 167.384ZM87.2174 163.832L85.5214 163.624L85.9214 157.4H92.1454V158.888H87.5534L87.3614 161.736C87.8894 161.496 88.4814 161.352 89.0094 161.352C91.4094 161.352 93.1054 162.968 93.1054 165.256C93.1054 167.576 91.4094 169.208 89.0094 169.208C87.1214 169.208 85.4894 167.944 85.0734 166.152L86.7214 165.768C86.9614 166.84 87.9054 167.608 89.0094 167.608C90.4174 167.608 91.4094 166.632 91.4094 165.256C91.4094 163.912 90.4174 162.952 89.0094 162.952C88.4174 162.952 87.6814 163.32 87.2174 163.832Z" fill="#6D0CA6"/>
<path d="M162.988 146.28V156.612H161.49V151.95H156.618V156.612H155.134V146.28H156.618V150.662H161.49V146.28H162.988ZM165.251 149.934H166.735V156.612H165.251V149.934ZM165.153 147.442C165.153 146.952 165.503 146.602 165.993 146.602C166.483 146.602 166.833 146.952 166.833 147.442C166.833 147.932 166.483 148.282 165.993 148.282C165.503 148.282 165.153 147.932 165.153 147.442ZM171.575 155.254C172.093 155.254 172.695 154.988 173.073 154.568L174.095 155.59C173.521 156.22 172.471 156.668 171.631 156.668C169.643 156.668 168.243 155.268 168.243 153.308C168.243 151.334 169.643 149.934 171.631 149.934C172.513 149.934 173.493 150.382 174.095 151.026L173.073 152.034C172.695 151.614 172.093 151.348 171.575 151.348C170.469 151.348 169.727 152.118 169.727 153.308C169.727 154.484 170.469 155.254 171.575 155.254ZM178.197 155.408C179.233 155.408 179.933 154.582 179.933 153.308C179.933 152.048 179.233 151.208 178.197 151.208C177.161 151.208 176.461 152.034 176.461 153.308C176.461 154.582 177.147 155.408 178.197 155.408ZM174.977 153.308C174.977 151.334 176.307 149.934 178.197 149.934C180.087 149.934 181.417 151.334 181.417 153.308C181.417 155.268 180.087 156.682 178.197 156.682C176.307 156.682 174.977 155.268 174.977 153.308ZM191.494 156.724C188.498 156.724 186.398 154.54 186.398 151.446C186.398 148.338 188.498 146.168 191.494 146.168C192.908 146.168 194.168 146.77 195.092 147.708L194.112 148.674C193.496 147.946 192.516 147.47 191.48 147.47C189.338 147.47 187.896 149.066 187.896 151.446C187.896 153.826 189.338 155.422 191.48 155.422C192.586 155.422 193.468 154.918 194.056 154.246L195.092 155.184C194.168 156.122 192.978 156.738 191.494 156.724ZM199.469 156.682C197.621 156.682 196.305 155.282 196.305 153.322C196.305 151.362 197.621 149.962 199.469 149.962C200.127 149.962 200.855 150.27 201.387 150.9V149.948H202.871V156.626H201.387V155.73C200.855 156.402 200.127 156.682 199.469 156.682ZM197.789 153.322C197.789 154.582 198.503 155.422 199.567 155.422C200.547 155.422 201.387 154.54 201.401 153.322C201.387 152.104 200.547 151.222 199.567 151.222C198.503 151.222 197.789 152.048 197.789 153.322ZM208.108 155.408C209.186 155.408 209.886 154.568 209.886 153.294C209.886 152.02 209.186 151.18 208.108 151.18C207.1 151.18 206.274 152.118 206.274 153.294C206.274 154.47 207.1 155.408 208.108 155.408ZM204.776 159.58V149.934H206.26V150.914C206.792 150.214 207.674 149.934 208.192 149.934C210.054 149.934 211.37 151.32 211.37 153.294C211.37 155.282 210.054 156.668 208.192 156.668C207.66 156.668 206.792 156.374 206.26 155.674V159.58H204.776ZM212.98 149.934H214.464V156.612H212.98V149.934ZM212.882 147.442C212.882 146.952 213.232 146.602 213.722 146.602C214.212 146.602 214.562 146.952 214.562 147.442C214.562 147.932 214.212 148.282 213.722 148.282C213.232 148.282 212.882 147.932 212.882 147.442ZM217.372 156.626V151.222H216.112V149.934H217.372V147.596H218.856V149.934H220.438V151.222H218.856V156.626H217.372ZM224.652 156.682C222.804 156.682 221.488 155.282 221.488 153.322C221.488 151.362 222.804 149.962 224.652 149.962C225.31 149.962 226.038 150.27 226.57 150.9V149.948H228.054V156.626H226.57V155.73C226.038 156.402 225.31 156.682 224.652 156.682ZM222.972 153.322C222.972 154.582 223.686 155.422 224.75 155.422C225.73 155.422 226.57 154.54 226.584 153.322C226.57 152.104 225.73 151.222 224.75 151.222C223.686 151.222 222.972 152.048 222.972 153.322ZM229.859 146.616H231.343V156.612H229.859V146.616ZM242.33 147.162H244.766V145.174H246.306V151.53H244.766V148.394H242.33V147.162ZM235.89 150.396C237.878 149.766 238.9 148.226 238.9 146.56V145.566H240.44V146.56C240.44 148.086 241.434 149.556 243.324 150.158L242.54 151.348C241.196 150.9 240.23 150.004 239.698 148.87C239.152 150.13 238.144 151.124 236.688 151.6L235.89 150.396ZM238.158 153.294V152.104H246.306V155.31H239.698V156.276H246.698V157.48H238.172V154.19H244.78V153.294H238.158ZM256.947 145.16H258.487V152.076H256.947V145.16ZM248.813 146.98V145.748H254.511V149.318H250.339V150.606C252.467 150.592 253.993 150.522 255.729 150.228L255.911 151.474C253.979 151.796 252.313 151.852 249.891 151.852H248.827V148.156H252.999V146.98H248.813ZM250.283 157.48V152.636H251.809V153.854H256.975V152.636H258.487V157.48H250.283ZM251.809 156.234H256.975V155.044H251.809V156.234Z" fill="#15151A"/>
<path d="M155.248 176.168C155.248 174.644 155.848 172.616 156.712 171.26H157.804C156.832 172.592 156.16 174.608 156.16 176.168C156.16 177.728 156.832 179.744 157.804 181.076H156.712C155.848 179.72 155.248 177.692 155.248 176.168ZM159.626 171.86H164.498V178.772H159.626V171.86ZM160.646 177.932H163.502V172.7H160.646V177.932ZM166.646 181.424V170.828H167.69V181.424H166.646ZM170.75 171.356H177.866V172.124C177.866 172.94 177.866 173.864 177.614 175.1H179.09V175.952H174.818V177.824H177.926V181.412H176.894V178.652H170.522V177.824H173.786V175.952H169.526V175.1H176.582C176.846 173.876 176.858 172.988 176.858 172.196H170.75V171.356ZM190.436 170.852H191.48V178.904H190.436V176.696H188.696V175.856H190.436V174.464H188.696V173.624H190.436V170.852ZM182.78 172.94V172.1H185.264V170.828H186.308V172.1H188.696V172.94H182.78ZM183.368 175.52C183.368 174.296 184.364 173.492 185.768 173.492C187.184 173.492 188.18 174.296 188.18 175.52C188.18 176.72 187.184 177.536 185.768 177.536C184.364 177.536 183.368 176.72 183.368 175.52ZM184.352 175.52C184.352 176.252 184.928 176.732 185.768 176.732C186.62 176.732 187.196 176.252 187.196 175.52C187.196 174.8 186.62 174.308 185.768 174.308C184.928 174.308 184.352 174.8 184.352 175.52ZM184.664 181.172V178.208H185.708V180.332H191.732V181.172H184.664ZM193.593 171.92H199.497V172.784H197.061V174.02C197.061 175.808 198.285 177.62 199.857 178.292L199.269 179.12C198.057 178.556 197.049 177.38 196.557 175.952C196.065 177.476 195.069 178.784 193.845 179.384L193.245 178.556C194.793 177.824 196.017 175.844 196.017 174.02V172.784H193.593V171.92ZM200.865 181.412V170.852H201.909V181.412H200.865ZM207.026 171.392H208.058V172.976H210.806V171.392H211.826V173.408H214.178V170.852H215.222V176.612H214.178V174.26H211.826V176.24H207.026V171.392ZM208.058 175.388H210.806V173.78H208.058V175.388ZM208.43 181.256V177.116H209.45V178.34H214.19V177.116H215.21V181.256H208.43ZM209.45 180.416H214.19V179.18H209.45V180.416ZM224.631 170.852H225.675V178.544H224.631V170.852ZM217.227 174.188C217.227 172.652 218.427 171.572 219.999 171.572C221.583 171.572 222.771 172.652 222.771 174.188C222.771 175.712 221.583 176.792 219.999 176.792C218.427 176.792 217.227 175.712 217.227 174.188ZM218.247 174.188C218.247 175.184 219.003 175.88 219.999 175.88C220.995 175.88 221.763 175.184 221.763 174.188C221.763 173.168 220.995 172.472 219.999 172.472C219.003 172.472 218.247 173.168 218.247 174.188ZM218.871 181.172V177.764H219.903V180.332H225.987V181.172H218.871ZM230.367 176.168C230.367 177.704 229.767 179.72 228.915 181.076H227.823C228.783 179.756 229.455 177.728 229.455 176.168C229.455 174.608 228.783 172.58 227.823 171.26H228.915C229.767 172.616 230.367 174.632 230.367 176.168Z" fill="#3F3F46"/>
<circle opacity="0.15" cx="65" cy="261" r="65" fill="#9735D0"/>
<path d="M37.2349 265.56C39.5709 263.32 42.7549 261.048 42.7549 259.08C42.7549 257.768 41.9229 256.84 40.7389 256.84C39.8269 256.84 38.9149 257.496 38.4989 258.44L37.0109 257.784C37.6509 256.312 39.2029 255.288 40.7389 255.288C42.9309 255.288 44.4509 256.856 44.4509 259.08C44.4509 261.528 41.7949 263.704 39.6349 265.56H44.6429V267.048H37.3949L37.2349 265.56ZM50.5817 265.656C52.1817 265.656 53.2537 263.864 53.2537 261.224C53.2537 258.568 52.1817 256.776 50.5817 256.776C48.9817 256.776 47.8937 258.568 47.8937 261.224C47.8937 263.864 48.9817 265.656 50.5817 265.656ZM46.1977 261.224C46.1977 257.736 48.0057 255.288 50.5817 255.288C53.1417 255.288 54.9497 257.736 54.9497 261.224C54.9497 264.696 53.1417 267.16 50.5817 267.16C48.0057 267.16 46.1977 264.696 46.1977 261.224ZM56.7506 265.56C59.0866 263.32 62.2706 261.048 62.2706 259.08C62.2706 257.768 61.4386 256.84 60.2546 256.84C59.3426 256.84 58.4306 257.496 58.0146 258.44L56.5266 257.784C57.1666 256.312 58.7186 255.288 60.2546 255.288C62.4466 255.288 63.9666 256.856 63.9666 259.08C63.9666 261.528 61.3106 263.704 59.1506 265.56H64.1586V267.048H56.9106L56.7506 265.56ZM70.0653 255.416V267.048L68.3693 267.032V257.224L66.3213 258.36L65.6173 256.936L68.3853 255.416H70.0653ZM73.4888 265.384C74.0648 265.384 74.4648 265.8 74.4648 266.376C74.4648 266.968 74.0648 267.384 73.4888 267.384C72.8968 267.384 72.4808 266.968 72.4808 266.376C72.4808 265.8 72.8968 265.384 73.4888 265.384ZM84.8934 255.416V267.048L83.1974 267.032V257.224L81.1494 258.36L80.4454 256.936L83.2134 255.416H84.8934ZM92.2216 255.416V267.048L90.5256 267.032V257.224L88.4776 258.36L87.7736 256.936L90.5416 255.416H92.2216Z" fill="#6D0CA6"/>
<path d="M163.282 243.174H164.822V252.302H163.282V247.836H161.35V246.604H163.282V243.174ZM154.476 249.278H155.876V245.428H154.798V244.196H161.406V245.428H160.314V249.11C160.846 249.068 161.378 249.012 161.882 248.942L161.98 250.076C159.544 250.496 156.73 250.538 154.63 250.538L154.476 249.278ZM156.688 255.382V251.532H158.214V254.15H165.116V255.382H156.688ZM157.36 249.25C157.85 249.236 158.34 249.222 158.83 249.194V245.428H157.36V249.25ZM168.07 244.224H176.638V245.484H169.596V248.998H176.75V250.23H168.07V244.224ZM166.712 254.052V252.792H177.996V254.052H166.712ZM182.833 244.28H184.317V254.612H182.833V244.28ZM186.579 244.28H188.063V254.612H186.579V244.28ZM193.356 244.014H198.942V247.864H194.91V249.446C196.954 249.432 198.312 249.376 199.852 249.124L199.978 250.356C198.256 250.65 196.772 250.692 194.364 250.692H193.384V246.702H197.416V245.232H193.356V244.014ZM195.05 255.382V251.63H196.59V254.15H203.576V255.382H195.05ZM199.614 247.556V246.24H201.7V243.174H203.24V252.33H201.7V247.556H199.614ZM205.648 244.546H208.28V243.174H209.82V244.546H212.438V245.778H209.82C209.848 247.178 210.912 248.522 212.858 249.04L212.144 250.258C210.702 249.852 209.666 248.998 209.092 247.892C208.532 249.124 207.496 250.076 205.998 250.524L205.27 249.32C207.23 248.732 208.266 247.304 208.28 245.778H205.648V244.546ZM207.006 253.282C207.006 251.826 208.602 250.958 211.22 250.958C213.838 250.958 215.462 251.826 215.462 253.282C215.462 254.766 213.838 255.62 211.22 255.62C208.602 255.62 207.006 254.766 207.006 253.282ZM208.546 253.282C208.546 254.038 209.498 254.444 211.22 254.444C212.956 254.444 213.936 254.038 213.936 253.282C213.936 252.54 212.956 252.134 211.22 252.134C209.498 252.134 208.546 252.54 208.546 253.282ZM213.866 250.734V243.174H215.406V250.734H213.866Z" fill="#15151A"/>
<path d="M157.708 271.636V273.424L159.388 272.896L159.676 273.784L158.008 274.312L159.076 275.788L158.332 276.376L157.24 274.876L156.16 276.376L155.428 275.788L156.496 274.312L154.816 273.784L155.104 272.896L156.772 273.424V271.636H157.708ZM171.358 268.852H172.402V276.652H171.358V272.656H169.522V271.816H171.358V268.852ZM163.714 274.096H165.022V270.616H164.002V269.764H169.582V270.616H168.562V273.964C169.066 273.916 169.558 273.868 170.026 273.808L170.086 274.576C168.01 274.936 165.598 274.96 163.834 274.96L163.714 274.096ZM165.61 279.172V275.968H166.642V278.332H172.666V279.172H165.61ZM166.03 274.072C166.534 274.06 167.038 274.048 167.554 274.024V270.616H166.03V274.072ZM175.39 269.8H182.554V270.652H176.422V273.88H182.662V274.72H175.39V269.8ZM174.19 277.984V277.132H183.754V277.984H174.19ZM188.02 269.8H189.028V278.536H188.02V269.8ZM196.622 269.8H197.63V278.536H196.622V269.8ZM202.728 274.144C203.76 274.144 204.48 273.436 204.48 272.404C204.48 271.372 203.76 270.688 202.728 270.688H200.7V274.144H202.728ZM199.692 278.536V269.8H202.764C204.36 269.8 205.476 270.88 205.476 272.416C205.488 273.604 204.708 274.612 203.436 274.936L205.884 278.536H204.684L202.296 275.032H200.7V278.536H199.692ZM210.838 274.144C211.87 274.144 212.59 273.436 212.59 272.404C212.59 271.372 211.87 270.688 210.838 270.688H208.81V274.144H210.838ZM207.802 278.536V269.8H210.874C212.47 269.8 213.586 270.88 213.586 272.416C213.598 273.604 212.818 274.612 211.546 274.936L213.994 278.536H212.794L210.406 275.032H208.81V278.536H207.802ZM219.502 271.528C219.85 271.528 220.09 271.78 220.09 272.116C220.09 272.464 219.85 272.716 219.502 272.716C219.154 272.716 218.902 272.464 218.902 272.116C218.902 271.78 219.154 271.528 219.502 271.528ZM218.902 276.16C218.902 275.812 219.154 275.572 219.502 275.572C219.85 275.572 220.09 275.812 220.09 276.16C220.09 276.508 219.85 276.76 219.502 276.76C219.154 276.76 218.902 276.508 218.902 276.16ZM229.516 269.824V275.26H230.74V276.136H229.516V278.512H228.52V276.136H224.74L224.62 275.26L228.556 269.824H229.516ZM225.832 275.26H228.52V271.54L225.832 275.26ZM236.911 269.824V275.26H238.135V276.136H236.911V278.512H235.915V276.136H232.135L232.015 275.26L235.951 269.824H236.911ZM233.227 275.26H235.915V271.54L233.227 275.26ZM241.881 278.512L247.329 269.8H248.421L242.949 278.512H241.881ZM239.889 272.032C239.889 270.7 240.897 269.656 242.193 269.656C243.477 269.656 244.485 270.7 244.485 272.032C244.485 273.352 243.477 274.396 242.193 274.396C240.897 274.396 239.889 273.352 239.889 272.032ZM240.873 272.032C240.873 272.8 241.449 273.424 242.193 273.424C242.937 273.424 243.513 272.8 243.513 272.032C243.513 271.252 242.937 270.64 242.193 270.64C241.449 270.64 240.873 271.252 240.873 272.032ZM245.709 276.232C245.709 274.912 246.717 273.868 248.013 273.868C249.297 273.868 250.305 274.912 250.305 276.232C250.305 277.564 249.297 278.608 248.013 278.608C246.717 278.608 245.709 277.564 245.709 276.232ZM246.693 276.232C246.693 277.012 247.269 277.636 248.013 277.636C248.757 277.636 249.333 277.012 249.333 276.232C249.333 275.464 248.757 274.84 248.013 274.84C247.269 274.84 246.693 275.464 246.693 276.232ZM255.432 274.168C255.432 272.644 256.032 270.616 256.896 269.26H257.988C257.016 270.592 256.344 272.608 256.344 274.168C256.344 275.728 257.016 277.744 257.988 279.076H256.896C256.032 277.72 255.432 275.692 255.432 274.168ZM260.986 269.116L260.242 271.54H259.522L259.918 269.116H260.986ZM262.697 277.636C264.425 275.968 266.957 274 266.957 272.452C266.957 271.384 266.273 270.628 265.301 270.628C264.581 270.628 263.849 271.156 263.513 271.924L262.613 271.528C263.081 270.472 264.197 269.728 265.301 269.728C266.861 269.728 267.953 270.856 267.953 272.452C267.953 274.288 265.733 276.124 264.077 277.636H268.097V278.524H262.817L262.697 277.636ZM273.85 274.024C274.618 274.492 275.062 275.332 275.062 276.052C275.062 277.54 273.886 278.584 272.218 278.584C270.55 278.584 269.374 277.528 269.374 276.028H270.37C270.37 277.012 271.138 277.696 272.218 277.696C273.31 277.696 274.078 277.012 274.078 276.04C274.078 275.116 273.31 274.456 272.242 274.456H271.606V273.568H272.242C273.238 273.568 273.958 272.98 273.958 272.128C273.958 271.252 273.262 270.64 272.29 270.64C271.306 270.64 270.622 271.264 270.622 272.152H269.626C269.626 270.736 270.718 269.752 272.29 269.752C273.838 269.752 274.942 270.724 274.942 272.116C274.942 272.776 274.546 273.556 273.85 274.024ZM277.067 277.396C277.439 277.396 277.703 277.66 277.703 278.044C277.703 278.428 277.439 278.704 277.067 278.704C276.683 278.704 276.407 278.428 276.407 278.044C276.407 277.66 276.683 277.396 277.067 277.396ZM282.366 269.836V278.512H281.37V270.94L279.954 271.852L279.462 271.06L281.37 269.836H282.366ZM291.639 268.84H292.683V275.044H291.639V274.516H289.575V273.844H291.639V268.84ZM283.983 272.788C286.023 272.788 288.579 272.764 290.835 272.524L290.907 273.184C289.898 273.328 288.855 273.412 287.835 273.472V275.08H286.803V273.508C285.843 273.544 284.931 273.544 284.115 273.544L283.983 272.788ZM284.775 270.628C284.775 269.644 285.807 269.044 287.379 269.044C288.951 269.044 289.983 269.644 289.983 270.628C289.983 271.6 288.951 272.2 287.379 272.2C285.807 272.2 284.775 271.6 284.775 270.628ZM285.567 276.16V275.428H292.683V277.648H286.623V278.536H293.031V279.292H285.591V276.964H291.663V276.16H285.567ZM285.747 270.628C285.747 271.168 286.395 271.504 287.379 271.504C288.375 271.504 289.011 271.168 289.011 270.628C289.011 270.088 288.375 269.752 287.379 269.752C286.395 269.752 285.747 270.088 285.747 270.628ZM304.904 268.84H305.948V279.4H304.904V268.84ZM297.38 276.628C300.188 275.284 301.568 273.304 301.772 270.82H297.872V269.968H302.828C302.828 273.052 301.496 275.728 297.932 277.456L297.38 276.628ZM308.637 269.356H316.437V270.208H313.221C313.257 271.432 314.853 272.464 316.749 272.704L316.353 273.544C314.613 273.292 313.101 272.44 312.537 271.24C311.973 272.44 310.461 273.292 308.709 273.544L308.313 272.704C310.221 272.464 311.805 271.42 311.841 270.208H308.637V269.356ZM307.749 275.104V274.264H317.313V275.104H313.137V277.192H312.093V275.104H307.749ZM308.949 279.184V276.172H309.993V278.344H316.257V279.184H308.949ZM321.117 274.168C321.117 275.704 320.517 277.72 319.665 279.076H318.573C319.533 277.756 320.205 275.728 320.205 274.168C320.205 272.608 319.533 270.58 318.573 269.26H319.665C320.517 270.616 321.117 272.632 321.117 274.168Z" fill="#3F3F46"/>
</svg>
