<svg width="793" height="504" viewBox="0 0 793 504" fill="none" xmlns="http://www.w3.org/2000/svg">
<circle opacity="0.04" cx="100" cy="100" r="100" fill="#9735D0"/>
<path d="M68.4695 105.2C71.3895 102.4 75.3695 99.56 75.3695 97.1C75.3695 95.46 74.3295 94.3 72.8495 94.3C71.7095 94.3 70.5695 95.12 70.0495 96.3L68.1895 95.48C68.9895 93.64 70.9295 92.36 72.8495 92.36C75.5895 92.36 77.4895 94.32 77.4895 97.1C77.4895 100.16 74.1695 102.88 71.4695 105.2H77.7295V107.06H68.6695L68.4695 105.2ZM85.1529 105.32C87.1529 105.32 88.4929 103.08 88.4929 99.78C88.4929 96.46 87.1529 94.22 85.1529 94.22C83.1529 94.22 81.7929 96.46 81.7929 99.78C81.7929 103.08 83.1529 105.32 85.1529 105.32ZM79.6729 99.78C79.6729 95.42 81.9329 92.36 85.1529 92.36C88.3529 92.36 90.6129 95.42 90.6129 99.78C90.6129 104.12 88.3529 107.2 85.1529 107.2C81.9329 107.2 79.6729 104.12 79.6729 99.78ZM97.984 92.52V107.06L95.864 107.04V94.78L93.304 96.2L92.424 94.42L95.884 92.52H97.984ZM105.883 105.48C107.543 105.48 108.703 104.42 108.703 102.9C108.703 101.38 107.543 100.3 105.883 100.3C104.223 100.3 103.043 101.38 103.043 102.9C103.043 104.42 104.223 105.48 105.883 105.48ZM100.923 102.94C100.923 101.66 101.923 100.18 103.323 99.4C102.163 98.6 101.323 97.3 101.323 96.26C101.323 93.9 103.203 92.26 105.883 92.26C108.563 92.26 110.443 93.9 110.443 96.26C110.443 97.32 109.623 98.62 108.443 99.4C109.843 100.2 110.843 101.66 110.843 102.94C110.843 105.5 108.803 107.3 105.883 107.3C102.983 107.3 100.923 105.5 100.923 102.94ZM103.463 96.26C103.463 97.56 104.463 98.48 105.883 98.48C107.323 98.48 108.323 97.56 108.323 96.26C108.323 94.96 107.323 94.06 105.883 94.06C104.463 94.06 103.463 94.96 103.463 96.26ZM114.138 104.98C114.858 104.98 115.358 105.5 115.358 106.22C115.358 106.96 114.858 107.48 114.138 107.48C113.398 107.48 112.878 106.96 112.878 106.22C112.878 105.5 113.398 104.98 114.138 104.98ZM130.714 99.54C132.014 100.3 132.834 101.72 132.834 102.94C132.834 105.42 130.794 107.18 127.894 107.18C125.014 107.18 122.974 105.38 122.974 102.82H125.094C125.094 104.28 126.254 105.3 127.894 105.3C129.574 105.3 130.774 104.28 130.774 102.82C130.774 101.42 129.594 100.42 127.934 100.42H126.894V98.64H127.954C129.474 98.64 130.554 97.74 130.554 96.46C130.554 95.16 129.514 94.26 128.034 94.26C126.554 94.26 125.534 95.18 125.534 96.48H123.414C123.414 94.06 125.314 92.38 128.034 92.38C130.714 92.38 132.614 94.02 132.614 96.34C132.614 97.46 131.894 98.78 130.714 99.54Z" fill="#6D0CA6"/>
<path d="M241.044 93.648H244.356V91.866H246.336V93.648H249.63V95.214H246.318V95.394C246.318 97.158 247.614 98.886 250.08 99.606L249.198 101.154C247.398 100.632 246.12 99.552 245.4 98.202C244.698 99.75 243.384 100.974 241.512 101.55L240.558 100.02C243.06 99.246 244.356 97.338 244.356 95.394V95.214H241.044V93.648ZM242.43 106.356C245.598 105.87 247.632 104.016 247.632 102.216V101.928H249.648V102.216C249.648 104.088 251.61 105.87 254.832 106.356L254.076 107.904C251.52 107.49 249.576 106.284 248.622 104.646C247.668 106.266 245.724 107.508 243.186 107.904L242.43 106.356ZM249.198 97.878V96.276H251.952V91.938H253.932V102.9H251.952V97.878H249.198ZM260.475 101.514H274.983V103.134H268.719V107.976H266.721V103.134H260.475V101.514ZM262.347 100.182V92.622H273.255V94.188H264.291V95.592H272.913V97.122H264.291V98.598H273.435V100.182H262.347ZM276.495 93.504H285.243V95.142H281.913V96.474C281.913 98.94 283.389 101.784 285.891 102.954L284.793 104.52C282.993 103.656 281.679 101.946 280.959 99.966C280.239 102.144 278.871 104.016 277.035 104.916L275.901 103.35C278.403 102.144 279.951 99.138 279.951 96.474V95.142H276.495V93.504ZM286.683 107.958V91.938H288.681V98.184H291.111V99.822H288.681V107.958H286.683ZM293.218 100.002C293.218 97.662 294.136 94.584 295.432 92.532H297.448C295.972 94.566 294.946 97.644 294.946 100.002C294.946 102.36 295.972 105.438 297.448 107.472H295.432C294.136 105.42 293.218 102.342 293.218 100.002ZM310.179 93.36L304.923 99.264L310.287 106.644H307.911L303.609 100.74L301.971 102.54V106.644H300.063V93.378H301.971V99.696L307.623 93.36H310.179ZM313.904 102.972C313.904 104.286 314.678 105.096 315.812 105.096C317.018 105.096 317.846 104.304 317.828 102.99V98.076H319.754V106.662H317.828V105.672C317.288 106.338 316.406 106.734 315.56 106.734C313.49 106.734 311.996 105.24 311.996 103.044V98.076H313.904V102.972ZM322.119 106.662V98.076H324.027V99.336C324.603 98.526 325.647 97.986 326.655 98.04V99.804C325.125 99.732 324.027 101.082 324.027 102.396V106.662H322.119ZM328.551 93.792H330.459V106.644H328.551V93.792ZM335.995 110.388H333.907L335.779 105.942L332.323 98.076H334.429L336.787 103.764L339.055 98.076H341.125L337.921 105.798L335.995 110.388ZM347.767 96.15L347.749 98.688L350.143 97.932L350.647 99.534L348.289 100.272L349.837 102.378L348.505 103.422L346.921 101.28L345.337 103.422L344.041 102.36L345.571 100.272L343.195 99.534L343.717 97.932L346.075 98.688L346.057 96.15H347.767ZM357.249 100.002C357.249 102.342 356.349 105.402 355.053 107.472H353.037C354.495 105.456 355.521 102.36 355.521 100.002C355.521 97.644 354.495 94.548 353.037 92.532H355.053C356.349 94.602 357.249 97.662 357.249 100.002ZM364.535 92.874H373.265V94.422H369.917C369.935 96.294 371.321 98.13 373.805 98.868L372.833 100.398C370.997 99.858 369.683 98.688 368.945 97.212C368.243 98.814 366.893 100.074 364.985 100.668L363.995 99.12C366.551 98.364 367.883 96.42 367.901 94.422H364.535V92.874ZM366.605 107.76V101.334H368.549V102.972H375.173V101.334H377.117V107.76H366.605ZM368.549 106.158H375.173V104.502H368.549V106.158ZM375.137 100.614V91.938H377.117V100.614H375.137ZM391.337 91.938H393.209V102H391.337V97.644H389.825V101.46H387.971V92.244H389.825V96.042H391.337V91.938ZM379.529 95.232V93.666H382.535V92.082H384.479V93.666H387.449V95.232H379.529ZM380.087 98.616C380.087 96.96 381.509 95.844 383.507 95.844C385.523 95.844 386.945 96.96 386.945 98.616C386.945 100.29 385.523 101.388 383.507 101.388C381.509 101.388 380.087 100.29 380.087 98.616ZM381.833 98.616C381.833 99.462 382.517 99.984 383.507 99.984C384.497 99.984 385.199 99.462 385.199 98.616C385.199 97.77 384.497 97.284 383.507 97.284C382.517 97.284 381.833 97.77 381.833 98.616ZM382.409 105.078C382.409 103.242 384.443 102.216 387.845 102.216C391.265 102.216 393.299 103.242 393.299 105.078C393.299 106.896 391.265 107.94 387.845 107.94C384.443 107.94 382.409 106.896 382.409 105.078ZM384.371 105.078C384.371 105.996 385.595 106.446 387.845 106.446C390.113 106.446 391.319 105.996 391.319 105.078C391.319 104.142 390.113 103.692 387.845 103.692C385.595 103.692 384.371 104.142 384.371 105.078Z" fill="#15151A"/>
<circle opacity="0.08" cx="100" cy="252" r="100" fill="#9735D0"/>
<path d="M66.282 257.2C69.202 254.4 73.182 251.56 73.182 249.1C73.182 247.46 72.142 246.3 70.662 246.3C69.522 246.3 68.382 247.12 67.862 248.3L66.002 247.48C66.802 245.64 68.742 244.36 70.662 244.36C73.402 244.36 75.302 246.32 75.302 249.1C75.302 252.16 71.982 254.88 69.282 257.2H75.542V259.06H66.482L66.282 257.2ZM82.9654 257.32C84.9654 257.32 86.3054 255.08 86.3054 251.78C86.3054 248.46 84.9654 246.22 82.9654 246.22C80.9654 246.22 79.6054 248.46 79.6054 251.78C79.6054 255.08 80.9654 257.32 82.9654 257.32ZM77.4854 251.78C77.4854 247.42 79.7454 244.36 82.9654 244.36C86.1654 244.36 88.4254 247.42 88.4254 251.78C88.4254 256.12 86.1654 259.2 82.9654 259.2C79.7454 259.2 77.4854 256.12 77.4854 251.78ZM90.6765 257.2C93.5965 254.4 97.5765 251.56 97.5765 249.1C97.5765 247.46 96.5365 246.3 95.0565 246.3C93.9165 246.3 92.7765 247.12 92.2565 248.3L90.3965 247.48C91.1965 245.64 93.1365 244.36 95.0565 244.36C97.7965 244.36 99.6965 246.32 99.6965 249.1C99.6965 252.16 96.3765 254.88 93.6765 257.2H99.9365V259.06H90.8765L90.6765 257.2ZM107.36 257.32C109.36 257.32 110.7 255.08 110.7 251.78C110.7 248.46 109.36 246.22 107.36 246.22C105.36 246.22 104 248.46 104 251.78C104 255.08 105.36 257.32 107.36 257.32ZM101.88 251.78C101.88 247.42 104.14 244.36 107.36 244.36C110.56 244.36 112.82 247.42 112.82 251.78C112.82 256.12 110.56 259.2 107.36 259.2C104.14 259.2 101.88 256.12 101.88 251.78ZM116.111 256.98C116.831 256.98 117.331 257.5 117.331 258.22C117.331 258.96 116.831 259.48 116.111 259.48C115.371 259.48 114.851 258.96 114.851 258.22C114.851 257.5 115.371 256.98 116.111 256.98ZM127.647 252.54L125.527 252.28L126.027 244.5H133.807V246.36H128.067L127.827 249.92C128.487 249.62 129.227 249.44 129.887 249.44C132.887 249.44 135.007 251.46 135.007 254.32C135.007 257.22 132.887 259.26 129.887 259.26C127.527 259.26 125.487 257.68 124.967 255.44L127.027 254.96C127.327 256.3 128.507 257.26 129.887 257.26C131.647 257.26 132.887 256.04 132.887 254.32C132.887 252.64 131.647 251.44 129.887 251.44C129.147 251.44 128.227 251.9 127.647 252.54Z" fill="#6D0CA6"/>
<path d="M251.556 232.36V245.644H249.63V239.65H243.366V245.644H241.458V232.36H243.366V237.994H249.63V232.36H251.556ZM254.466 237.058H256.374V245.644H254.466V237.058ZM254.34 233.854C254.34 233.224 254.79 232.774 255.42 232.774C256.05 232.774 256.5 233.224 256.5 233.854C256.5 234.484 256.05 234.934 255.42 234.934C254.79 234.934 254.34 234.484 254.34 233.854ZM262.597 243.898C263.263 243.898 264.037 243.556 264.523 243.016L265.837 244.33C265.099 245.14 263.749 245.716 262.669 245.716C260.113 245.716 258.313 243.916 258.313 241.396C258.313 238.858 260.113 237.058 262.669 237.058C263.803 237.058 265.063 237.634 265.837 238.462L264.523 239.758C264.037 239.218 263.263 238.876 262.597 238.876C261.175 238.876 260.221 239.866 260.221 241.396C260.221 242.908 261.175 243.898 262.597 243.898ZM271.11 244.096C272.442 244.096 273.342 243.034 273.342 241.396C273.342 239.776 272.442 238.696 271.11 238.696C269.778 238.696 268.878 239.758 268.878 241.396C268.878 243.034 269.76 244.096 271.11 244.096ZM266.97 241.396C266.97 238.858 268.68 237.058 271.11 237.058C273.54 237.058 275.25 238.858 275.25 241.396C275.25 243.916 273.54 245.734 271.11 245.734C268.68 245.734 266.97 243.916 266.97 241.396ZM288.207 245.788C284.355 245.788 281.655 242.98 281.655 239.002C281.655 235.006 284.355 232.216 288.207 232.216C290.025 232.216 291.645 232.99 292.833 234.196L291.573 235.438C290.781 234.502 289.521 233.89 288.189 233.89C285.435 233.89 283.581 235.942 283.581 239.002C283.581 242.062 285.435 244.114 288.189 244.114C289.611 244.114 290.745 243.466 291.501 242.602L292.833 243.808C291.645 245.014 290.115 245.806 288.207 245.788ZM298.46 245.734C296.084 245.734 294.392 243.934 294.392 241.414C294.392 238.894 296.084 237.094 298.46 237.094C299.306 237.094 300.242 237.49 300.926 238.3V237.076H302.834V245.662H300.926V244.51C300.242 245.374 299.306 245.734 298.46 245.734ZM296.3 241.414C296.3 243.034 297.218 244.114 298.586 244.114C299.846 244.114 300.926 242.98 300.944 241.414C300.926 239.848 299.846 238.714 298.586 238.714C297.218 238.714 296.3 239.776 296.3 241.414ZM309.567 244.096C310.953 244.096 311.853 243.016 311.853 241.378C311.853 239.74 310.953 238.66 309.567 238.66C308.271 238.66 307.209 239.866 307.209 241.378C307.209 242.89 308.271 244.096 309.567 244.096ZM305.283 249.46V237.058H307.191V238.318C307.875 237.418 309.009 237.058 309.675 237.058C312.069 237.058 313.761 238.84 313.761 241.378C313.761 243.934 312.069 245.716 309.675 245.716C308.991 245.716 307.875 245.338 307.191 244.438V249.46H305.283ZM315.831 237.058H317.739V245.644H315.831V237.058ZM315.705 233.854C315.705 233.224 316.155 232.774 316.785 232.774C317.415 232.774 317.865 233.224 317.865 233.854C317.865 234.484 317.415 234.934 316.785 234.934C316.155 234.934 315.705 234.484 315.705 233.854ZM321.478 245.662V238.714H319.858V237.058H321.478V234.052H323.386V237.058H325.42V238.714H323.386V245.662H321.478ZM330.839 245.734C328.463 245.734 326.771 243.934 326.771 241.414C326.771 238.894 328.463 237.094 330.839 237.094C331.685 237.094 332.621 237.49 333.305 238.3V237.076H335.213V245.662H333.305V244.51C332.621 245.374 331.685 245.734 330.839 245.734ZM328.679 241.414C328.679 243.034 329.597 244.114 330.965 244.114C332.225 244.114 333.305 242.98 333.323 241.414C333.305 239.848 332.225 238.714 330.965 238.714C329.597 238.714 328.679 239.776 328.679 241.414ZM337.533 232.792H339.441V245.644H337.533V232.792ZM353.568 233.494H356.7V230.938H358.68V239.11H356.7V235.078H353.568V233.494ZM345.288 237.652C347.844 236.842 349.158 234.862 349.158 232.72V231.442H351.138V232.72C351.138 234.682 352.416 236.572 354.846 237.346L353.838 238.876C352.11 238.3 350.868 237.148 350.184 235.69C349.482 237.31 348.186 238.588 346.314 239.2L345.288 237.652ZM348.204 241.378V239.848H358.68V243.97H350.184V245.212H359.184V246.76H348.222V242.53H356.718V241.378H348.204ZM372.36 230.92H374.34V239.812H372.36V230.92ZM361.902 233.26V231.676H369.228V236.266H363.864V237.922C366.6 237.904 368.562 237.814 370.794 237.436L371.028 239.038C368.544 239.452 366.402 239.524 363.288 239.524H361.92V234.772H367.284V233.26H361.902ZM363.792 246.76V240.532H365.754V242.098H372.396V240.532H374.34V246.76H363.792ZM365.754 245.158H372.396V243.628H365.754V245.158Z" fill="#15151A"/>
<path d="M241.456 268.446C241.456 266.668 242.156 264.302 243.164 262.72H244.438C243.304 264.274 242.52 266.626 242.52 268.446C242.52 270.266 243.304 272.618 244.438 274.172H243.164C242.156 272.59 241.456 270.224 241.456 268.446ZM246.564 263.42H252.248V271.484H246.564V263.42ZM247.754 270.504H251.086V264.4H247.754V270.504ZM254.754 274.578V262.216H255.972V274.578H254.754ZM259.542 262.832H267.844V263.728C267.844 264.68 267.844 265.758 267.55 267.2H269.272V268.194H264.288V270.378H267.914V274.564H266.71V271.344H259.276V270.378H263.084V268.194H258.114V267.2H266.346C266.654 265.772 266.668 264.736 266.668 263.812H259.542V262.832ZM282.509 262.244H283.727V271.638H282.509V269.062H280.479V268.082H282.509V266.458H280.479V265.478H282.509V262.244ZM273.577 264.68V263.7H276.475V262.216H277.693V263.7H280.479V264.68H273.577ZM274.263 267.69C274.263 266.262 275.425 265.324 277.063 265.324C278.715 265.324 279.877 266.262 279.877 267.69C279.877 269.09 278.715 270.042 277.063 270.042C275.425 270.042 274.263 269.09 274.263 267.69ZM275.411 267.69C275.411 268.544 276.083 269.104 277.063 269.104C278.057 269.104 278.729 268.544 278.729 267.69C278.729 266.85 278.057 266.276 277.063 266.276C276.083 266.276 275.411 266.85 275.411 267.69ZM275.775 274.284V270.826H276.993V273.304H284.021V274.284H275.775ZM286.191 263.49H293.079V264.498H290.237V265.94C290.237 268.026 291.665 270.14 293.499 270.924L292.813 271.89C291.399 271.232 290.223 269.86 289.649 268.194C289.075 269.972 287.913 271.498 286.485 272.198L285.785 271.232C287.591 270.378 289.019 268.068 289.019 265.94V264.498H286.191V263.49ZM294.675 274.564V262.244H295.893V274.564H294.675ZM301.864 262.874H303.068V264.722H306.274V262.874H307.464V265.226H310.208V262.244H311.426V268.964H310.208V266.22H307.464V268.53H301.864V262.874ZM303.068 267.536H306.274V265.66H303.068V267.536ZM303.502 274.382V269.552H304.692V270.98H310.222V269.552H311.412V274.382H303.502ZM304.692 273.402H310.222V271.96H304.692V273.402ZM322.402 262.244H323.62V271.218H322.402V262.244ZM313.764 266.136C313.764 264.344 315.164 263.084 316.998 263.084C318.846 263.084 320.232 264.344 320.232 266.136C320.232 267.914 318.846 269.174 316.998 269.174C315.164 269.174 313.764 267.914 313.764 266.136ZM314.954 266.136C314.954 267.298 315.836 268.11 316.998 268.11C318.16 268.11 319.056 267.298 319.056 266.136C319.056 264.946 318.16 264.134 316.998 264.134C315.836 264.134 314.954 264.946 314.954 266.136ZM315.682 274.284V270.308H316.886V273.304H323.984V274.284H315.682ZM329.095 268.446C329.095 270.238 328.395 272.59 327.401 274.172H326.127C327.247 272.632 328.031 270.266 328.031 268.446C328.031 266.626 327.247 264.26 326.127 262.72H327.401C328.395 264.302 329.095 266.654 329.095 268.446Z" fill="#3F3F46"/>
<circle opacity="0.15" cx="100" cy="404" r="100" fill="#9735D0"/>
<path d="M65.2937 409.2C68.2137 406.4 72.1937 403.56 72.1937 401.1C72.1937 399.46 71.1537 398.3 69.6737 398.3C68.5337 398.3 67.3937 399.12 66.8737 400.3L65.0137 399.48C65.8137 397.64 67.7537 396.36 69.6737 396.36C72.4137 396.36 74.3137 398.32 74.3137 401.1C74.3137 404.16 70.9937 406.88 68.2937 409.2H74.5537V411.06H65.4937L65.2937 409.2ZM81.9771 409.32C83.9771 409.32 85.3171 407.08 85.3171 403.78C85.3171 400.46 83.9771 398.22 81.9771 398.22C79.9771 398.22 78.6171 400.46 78.6171 403.78C78.6171 407.08 79.9771 409.32 81.9771 409.32ZM76.4971 403.78C76.4971 399.42 78.7571 396.36 81.9771 396.36C85.1771 396.36 87.4371 399.42 87.4371 403.78C87.4371 408.12 85.1771 411.2 81.9771 411.2C78.7571 411.2 76.4971 408.12 76.4971 403.78ZM89.6882 409.2C92.6082 406.4 96.5882 403.56 96.5882 401.1C96.5882 399.46 95.5482 398.3 94.0682 398.3C92.9282 398.3 91.7882 399.12 91.2682 400.3L89.4082 399.48C90.2082 397.64 92.1482 396.36 94.0682 396.36C96.8082 396.36 98.7082 398.32 98.7082 401.1C98.7082 404.16 95.3882 406.88 92.6882 409.2H98.9482V411.06H89.8882L89.6882 409.2ZM106.332 396.52V411.06L104.212 411.04V398.78L101.652 400.2L100.772 398.42L104.232 396.52H106.332ZM110.611 408.98C111.331 408.98 111.831 409.5 111.831 410.22C111.831 410.96 111.331 411.48 110.611 411.48C109.871 411.48 109.351 410.96 109.351 410.22C109.351 409.5 109.871 408.98 110.611 408.98ZM124.867 396.52V411.06L122.747 411.04V398.78L120.187 400.2L119.307 398.42L122.767 396.52H124.867ZM134.027 396.52V411.06L131.907 411.04V398.78L129.347 400.2L128.467 398.42L131.927 396.52H134.027Z" fill="#6D0CA6"/>
<path d="M251.934 382.938H253.914V394.674H251.934V388.932H249.45V387.348H251.934V382.938ZM240.612 390.786H242.412V385.836H241.026V384.252H249.522V385.836H248.118V390.57C248.802 390.516 249.486 390.444 250.134 390.354L250.26 391.812C247.128 392.352 243.51 392.406 240.81 392.406L240.612 390.786ZM243.456 398.634V393.684H245.418V397.05H254.292V398.634H243.456ZM244.32 390.75C244.95 390.732 245.58 390.714 246.21 390.678V385.836H244.32V390.75ZM258.09 384.288H269.106V385.908H260.052V390.426H269.25V392.01H258.09V384.288ZM256.344 396.924V395.304H270.852V396.924H256.344ZM277.071 384.36H278.979V397.644H277.071V384.36ZM281.888 384.36H283.796V397.644H281.888V384.36ZM290.601 384.018H297.783V388.968H292.599V391.002C295.227 390.984 296.973 390.912 298.953 390.588L299.115 392.172C296.901 392.55 294.993 392.604 291.897 392.604H290.637V387.474H295.821V385.584H290.601V384.018ZM292.779 398.634V393.81H294.759V397.05H303.741V398.634H292.779ZM298.647 388.572V386.88H301.329V382.938H303.309V394.71H301.329V388.572H298.647ZM306.405 384.702H309.789V382.938H311.769V384.702H315.135V386.286H311.769C311.805 388.086 313.173 389.814 315.675 390.48L314.757 392.046C312.903 391.524 311.571 390.426 310.833 389.004C310.113 390.588 308.781 391.812 306.855 392.388L305.919 390.84C308.439 390.084 309.771 388.248 309.789 386.286H306.405V384.702ZM308.151 395.934C308.151 394.062 310.203 392.946 313.569 392.946C316.935 392.946 319.023 394.062 319.023 395.934C319.023 397.842 316.935 398.94 313.569 398.94C310.203 398.94 308.151 397.842 308.151 395.934ZM310.131 395.934C310.131 396.906 311.355 397.428 313.569 397.428C315.801 397.428 317.061 396.906 317.061 395.934C317.061 394.98 315.801 394.458 313.569 394.458C311.355 394.458 310.131 394.98 310.131 395.934ZM316.971 392.658V382.938H318.951V392.658H316.971Z" fill="#15151A"/>
<path d="M244.326 417.492V419.578L246.286 418.962L246.622 419.998L244.676 420.614L245.922 422.336L245.054 423.022L243.78 421.272L242.52 423.022L241.666 422.336L242.912 420.614L240.952 419.998L241.288 418.962L243.234 419.578V417.492H244.326ZM260.251 414.244H261.469V423.344H260.251V418.682H258.109V417.702H260.251V414.244ZM251.333 420.362H252.859V416.302H251.669V415.308H258.179V416.302H256.989V420.208C257.577 420.152 258.151 420.096 258.697 420.026L258.767 420.922C256.345 421.342 253.531 421.37 251.473 421.37L251.333 420.362ZM253.545 426.284V422.546H254.749V425.304H261.777V426.284H253.545ZM254.035 420.334C254.623 420.32 255.211 420.306 255.813 420.278V416.302H254.035V420.334ZM264.955 415.35H273.313V416.344H266.159V420.11H273.439V421.09H264.955V415.35ZM263.555 424.898V423.904H274.713V424.898H263.555ZM279.69 415.35H280.866V425.542H279.69V415.35ZM289.725 415.35H290.901V425.542H289.725V415.35ZM296.85 420.418C298.054 420.418 298.894 419.592 298.894 418.388C298.894 417.184 298.054 416.386 296.85 416.386H294.484V420.418H296.85ZM293.308 425.542V415.35H296.892C298.754 415.35 300.056 416.61 300.056 418.402C300.07 419.788 299.16 420.964 297.676 421.342L300.532 425.542H299.132L296.346 421.454H294.484V425.542H293.308ZM306.31 420.418C307.514 420.418 308.354 419.592 308.354 418.388C308.354 417.184 307.514 416.386 306.31 416.386H303.944V420.418H306.31ZM302.768 425.542V415.35H306.352C308.214 415.35 309.516 416.61 309.516 418.402C309.53 419.788 308.62 420.964 307.136 421.342L309.992 425.542H308.592L305.806 421.454H303.944V425.542H302.768ZM316.419 417.366C316.825 417.366 317.105 417.66 317.105 418.052C317.105 418.458 316.825 418.752 316.419 418.752C316.013 418.752 315.719 418.458 315.719 418.052C315.719 417.66 316.013 417.366 316.419 417.366ZM315.719 422.77C315.719 422.364 316.013 422.084 316.419 422.084C316.825 422.084 317.105 422.364 317.105 422.77C317.105 423.176 316.825 423.47 316.419 423.47C316.013 423.47 315.719 423.176 315.719 422.77ZM328.102 415.378V421.72H329.53V422.742H328.102V425.514H326.94V422.742H322.53L322.39 421.72L326.982 415.378H328.102ZM323.804 421.72H326.94V417.38L323.804 421.72ZM336.729 415.378V421.72H338.157V422.742H336.729V425.514H335.567V422.742H331.157L331.017 421.72L335.609 415.378H336.729ZM332.431 421.72H335.567V417.38L332.431 421.72ZM342.528 425.514L348.884 415.35H350.158L343.774 425.514H342.528ZM340.204 417.954C340.204 416.4 341.38 415.182 342.892 415.182C344.39 415.182 345.566 416.4 345.566 417.954C345.566 419.494 344.39 420.712 342.892 420.712C341.38 420.712 340.204 419.494 340.204 417.954ZM341.352 417.954C341.352 418.85 342.024 419.578 342.892 419.578C343.76 419.578 344.432 418.85 344.432 417.954C344.432 417.044 343.76 416.33 342.892 416.33C342.024 416.33 341.352 417.044 341.352 417.954ZM346.994 422.854C346.994 421.314 348.17 420.096 349.682 420.096C351.18 420.096 352.356 421.314 352.356 422.854C352.356 424.408 351.18 425.626 349.682 425.626C348.17 425.626 346.994 424.408 346.994 422.854ZM348.142 422.854C348.142 423.764 348.814 424.492 349.682 424.492C350.55 424.492 351.222 423.764 351.222 422.854C351.222 421.958 350.55 421.23 349.682 421.23C348.814 421.23 348.142 421.958 348.142 422.854ZM358.337 420.446C358.337 418.668 359.037 416.302 360.045 414.72H361.319C360.185 416.274 359.401 418.626 359.401 420.446C359.401 422.266 360.185 424.618 361.319 426.172H360.045C359.037 424.59 358.337 422.224 358.337 420.446ZM364.817 414.552L363.949 417.38H363.109L363.571 414.552H364.817ZM366.813 424.492C368.829 422.546 371.783 420.25 371.783 418.444C371.783 417.198 370.985 416.316 369.851 416.316C369.011 416.316 368.157 416.932 367.765 417.828L366.715 417.366C367.261 416.134 368.563 415.266 369.851 415.266C371.671 415.266 372.945 416.582 372.945 418.444C372.945 420.586 370.355 422.728 368.423 424.492H373.113V425.528H366.953L366.813 424.492ZM379.825 420.278C380.721 420.824 381.239 421.804 381.239 422.644C381.239 424.38 379.867 425.598 377.921 425.598C375.975 425.598 374.603 424.366 374.603 422.616H375.765C375.765 423.764 376.661 424.562 377.921 424.562C379.195 424.562 380.091 423.764 380.091 422.63C380.091 421.552 379.195 420.782 377.949 420.782H377.207V419.746H377.949C379.111 419.746 379.951 419.06 379.951 418.066C379.951 417.044 379.139 416.33 378.005 416.33C376.857 416.33 376.059 417.058 376.059 418.094H374.897C374.897 416.442 376.171 415.294 378.005 415.294C379.811 415.294 381.099 416.428 381.099 418.052C381.099 418.822 380.637 419.732 379.825 420.278ZM383.578 424.212C384.012 424.212 384.32 424.52 384.32 424.968C384.32 425.416 384.012 425.738 383.578 425.738C383.13 425.738 382.808 425.416 382.808 424.968C382.808 424.52 383.13 424.212 383.578 424.212ZM389.761 415.392V425.514H388.599V416.68L386.947 417.744L386.373 416.82L388.599 415.392H389.761ZM400.578 414.23H401.796V421.468H400.578V420.852H398.17V420.068H400.578V414.23ZM391.646 418.836C394.026 418.836 397.008 418.808 399.64 418.528L399.724 419.298C398.548 419.466 397.33 419.564 396.14 419.634V421.51H394.936V419.676C393.816 419.718 392.752 419.718 391.8 419.718L391.646 418.836ZM392.57 416.316C392.57 415.168 393.774 414.468 395.608 414.468C397.442 414.468 398.646 415.168 398.646 416.316C398.646 417.45 397.442 418.15 395.608 418.15C393.774 418.15 392.57 417.45 392.57 416.316ZM393.494 422.77V421.916H401.796V424.506H394.726V425.542H402.202V426.424H393.522V423.708H400.606V422.77H393.494ZM393.704 416.316C393.704 416.946 394.46 417.338 395.608 417.338C396.77 417.338 397.512 416.946 397.512 416.316C397.512 415.686 396.77 415.294 395.608 415.294C394.46 415.294 393.704 415.686 393.704 416.316ZM416.055 414.23H417.273V426.55H416.055V414.23ZM407.277 423.316C410.553 421.748 412.163 419.438 412.401 416.54H407.851V415.546H413.633C413.633 419.144 412.079 422.266 407.921 424.282L407.277 423.316ZM420.409 414.832H429.509V415.826H425.757C425.799 417.254 427.661 418.458 429.873 418.738L429.411 419.718C427.381 419.424 425.617 418.43 424.959 417.03C424.301 418.43 422.537 419.424 420.493 419.718L420.031 418.738C422.257 418.458 424.105 417.24 424.147 415.826H420.409V414.832ZM419.373 421.538V420.558H430.531V421.538H425.659V423.974H424.441V421.538H419.373ZM420.773 426.298V422.784H421.991V425.318H429.299V426.298H420.773ZM434.97 420.446C434.97 422.238 434.27 424.59 433.276 426.172H432.002C433.122 424.632 433.906 422.266 433.906 420.446C433.906 418.626 433.122 416.26 432.002 414.72H433.276C434.27 416.302 434.97 418.654 434.97 420.446Z" fill="#3F3F46"/>
</svg>
