<svg width="339" height="326" viewBox="0 0 339 326" fill="none" xmlns="http://www.w3.org/2000/svg">
<circle opacity="0.04" cx="65" cy="65" r="65" fill="#9735D0"/>
<path d="M39.3756 69.56C41.7116 67.32 44.8956 65.048 44.8956 63.08C44.8956 61.768 44.0636 60.84 42.8796 60.84C41.9676 60.84 41.0556 61.496 40.6396 62.44L39.1516 61.784C39.7916 60.312 41.3436 59.288 42.8796 59.288C45.0716 59.288 46.5916 60.856 46.5916 63.08C46.5916 65.528 43.9356 67.704 41.7756 69.56H46.7836V71.048H39.5356L39.3756 69.56ZM52.7223 69.656C54.3223 69.656 55.3943 67.864 55.3943 65.224C55.3943 62.568 54.3223 60.776 52.7223 60.776C51.1223 60.776 50.0343 62.568 50.0343 65.224C50.0343 67.864 51.1223 69.656 52.7223 69.656ZM48.3383 65.224C48.3383 61.736 50.1463 59.288 52.7223 59.288C55.2823 59.288 57.0903 61.736 57.0903 65.224C57.0903 68.696 55.2823 71.16 52.7223 71.16C50.1463 71.16 48.3383 68.696 48.3383 65.224ZM62.9872 59.416V71.048L61.2912 71.032V61.224L59.2432 62.36L58.5392 60.936L61.3072 59.416H62.9872ZM69.3067 69.784C70.6347 69.784 71.5627 68.936 71.5627 67.72C71.5627 66.504 70.6347 65.64 69.3067 65.64C67.9787 65.64 67.0347 66.504 67.0347 67.72C67.0347 68.936 67.9787 69.784 69.3067 69.784ZM65.3387 67.752C65.3387 66.728 66.1387 65.544 67.2587 64.92C66.3307 64.28 65.6587 63.24 65.6587 62.408C65.6587 60.52 67.1627 59.208 69.3067 59.208C71.4507 59.208 72.9547 60.52 72.9547 62.408C72.9547 63.256 72.2987 64.296 71.3547 64.92C72.4747 65.56 73.2747 66.728 73.2747 67.752C73.2747 69.8 71.6427 71.24 69.3067 71.24C66.9867 71.24 65.3387 69.8 65.3387 67.752ZM67.3707 62.408C67.3707 63.448 68.1707 64.184 69.3067 64.184C70.4587 64.184 71.2587 63.448 71.2587 62.408C71.2587 61.368 70.4587 60.648 69.3067 60.648C68.1707 60.648 67.3707 61.368 67.3707 62.408ZM75.9107 69.384C76.4867 69.384 76.8867 69.8 76.8867 70.376C76.8867 70.968 76.4867 71.384 75.9107 71.384C75.3187 71.384 74.9027 70.968 74.9027 70.376C74.9027 69.8 75.3187 69.384 75.9107 69.384ZM89.1713 65.032C90.2113 65.64 90.8673 66.776 90.8673 67.752C90.8673 69.736 89.2353 71.144 86.9153 71.144C84.6113 71.144 82.9793 69.704 82.9793 67.656H84.6753C84.6753 68.824 85.6033 69.64 86.9153 69.64C88.2593 69.64 89.2193 68.824 89.2193 67.656C89.2193 66.536 88.2753 65.736 86.9473 65.736H86.1153V64.312H86.9633C88.1793 64.312 89.0433 63.592 89.0433 62.568C89.0433 61.528 88.2113 60.808 87.0273 60.808C85.8433 60.808 85.0273 61.544 85.0273 62.584H83.3313C83.3313 60.648 84.8513 59.304 87.0273 59.304C89.1713 59.304 90.6913 60.616 90.6913 62.472C90.6913 63.368 90.1153 64.424 89.1713 65.032Z" fill="#6D0CA6"/>
<path d="M154.812 48.504H157.388V47.118H158.928V48.504H161.49V49.722H158.914V49.862C158.914 51.234 159.922 52.578 161.84 53.138L161.154 54.342C159.754 53.936 158.76 53.096 158.2 52.046C157.654 53.25 156.632 54.202 155.176 54.65L154.434 53.46C156.38 52.858 157.388 51.374 157.388 49.862V49.722H154.812V48.504ZM155.89 58.388C158.354 58.01 159.936 56.568 159.936 55.168V54.944H161.504V55.168C161.504 56.624 163.03 58.01 165.536 58.388L164.948 59.592C162.96 59.27 161.448 58.332 160.706 57.058C159.964 58.318 158.452 59.284 156.478 59.592L155.89 58.388ZM161.154 51.794V50.548H163.296V47.174H164.836V55.7H163.296V51.794H161.154ZM169.925 54.622H181.209V55.882H176.337V59.648H174.783V55.882H169.925V54.622ZM171.381 53.586V47.706H179.865V48.924H172.893V50.016H179.599V51.206H172.893V52.354H180.005V53.586H171.381ZM182.385 48.392H189.189V49.666H186.599V50.702C186.599 52.62 187.747 54.832 189.693 55.742L188.839 56.96C187.439 56.288 186.417 54.958 185.857 53.418C185.297 55.112 184.233 56.568 182.805 57.268L181.923 56.05C183.869 55.112 185.073 52.774 185.073 50.702V49.666H182.385V48.392ZM190.309 59.634V47.174H191.863V52.032H193.753V53.306H191.863V59.634H190.309ZM195.392 53.446C195.392 51.626 196.106 49.232 197.114 47.636H198.682C197.534 49.218 196.736 51.612 196.736 53.446C196.736 55.28 197.534 57.674 198.682 59.256H197.114C196.106 57.66 195.392 55.266 195.392 53.446ZM208.584 48.28L204.496 52.872L208.668 58.612H206.82L203.474 54.02L202.2 55.42V58.612H200.716V48.294H202.2V53.208L206.596 48.28H208.584ZM211.481 55.756C211.481 56.778 212.083 57.408 212.965 57.408C213.903 57.408 214.547 56.792 214.533 55.77V51.948H216.031V58.626H214.533V57.856C214.113 58.374 213.427 58.682 212.769 58.682C211.159 58.682 209.997 57.52 209.997 55.812V51.948H211.481V55.756ZM217.87 58.626V51.948H219.354V52.928C219.802 52.298 220.614 51.878 221.398 51.92V53.292C220.208 53.236 219.354 54.286 219.354 55.308V58.626H217.87ZM222.873 48.616H224.357V58.612H222.873V48.616ZM228.663 61.524H227.039L228.495 58.066L225.807 51.948H227.445L229.279 56.372L231.043 51.948H232.653L230.161 57.954L228.663 61.524ZM237.819 50.45L237.805 52.424L239.667 51.836L240.059 53.082L238.225 53.656L239.429 55.294L238.393 56.106L237.161 54.44L235.929 56.106L234.921 55.28L236.111 53.656L234.263 53.082L234.669 51.836L236.503 52.424L236.489 50.45H237.819ZM245.194 53.446C245.194 55.266 244.494 57.646 243.486 59.256H241.918C243.052 57.688 243.85 55.28 243.85 53.446C243.85 51.612 243.052 49.204 241.918 47.636H243.486C244.494 49.246 245.194 51.626 245.194 53.446ZM250.861 47.902H257.651V49.106H255.047C255.061 50.562 256.139 51.99 258.071 52.564L257.315 53.754C255.887 53.334 254.865 52.424 254.291 51.276C253.745 52.522 252.695 53.502 251.211 53.964L250.441 52.76C252.429 52.172 253.465 50.66 253.479 49.106H250.861V47.902ZM252.471 59.48V54.482H253.983V55.756H259.135V54.482H260.647V59.48H252.471ZM253.983 58.234H259.135V56.946H253.983V58.234ZM259.107 53.922V47.174H260.647V53.922H259.107ZM271.707 47.174H273.163V55H271.707V51.612H270.531V54.58H269.089V47.412H270.531V50.366H271.707V47.174ZM262.523 49.736V48.518H264.861V47.286H266.373V48.518H268.683V49.736H262.523ZM262.957 52.368C262.957 51.08 264.063 50.212 265.617 50.212C267.185 50.212 268.291 51.08 268.291 52.368C268.291 53.67 267.185 54.524 265.617 54.524C264.063 54.524 262.957 53.67 262.957 52.368ZM264.315 52.368C264.315 53.026 264.847 53.432 265.617 53.432C266.387 53.432 266.933 53.026 266.933 52.368C266.933 51.71 266.387 51.332 265.617 51.332C264.847 51.332 264.315 51.71 264.315 52.368ZM264.763 57.394C264.763 55.966 266.345 55.168 268.991 55.168C271.651 55.168 273.233 55.966 273.233 57.394C273.233 58.808 271.651 59.62 268.991 59.62C266.345 59.62 264.763 58.808 264.763 57.394ZM266.289 57.394C266.289 58.108 267.241 58.458 268.991 58.458C270.755 58.458 271.693 58.108 271.693 57.394C271.693 56.666 270.755 56.316 268.991 56.316C267.241 56.316 266.289 56.666 266.289 57.394Z" fill="#15151A"/>
<path d="M157.708 75.636V77.424L159.388 76.896L159.676 77.784L158.008 78.312L159.076 79.788L158.332 80.376L157.24 78.876L156.16 80.376L155.428 79.788L156.496 78.312L154.816 77.784L155.104 76.896L156.772 77.424V75.636H157.708ZM164.278 73.8H165.286V82.536H164.278V73.8ZM170.384 78.144C171.416 78.144 172.136 77.436 172.136 76.404C172.136 75.372 171.416 74.688 170.384 74.688H168.356V78.144H170.384ZM167.348 82.536V73.8H170.42C172.016 73.8 173.132 74.88 173.132 76.416C173.144 77.604 172.364 78.612 171.092 78.936L173.54 82.536H172.34L169.952 79.032H168.356V82.536H167.348ZM178.494 78.144C179.526 78.144 180.246 77.436 180.246 76.404C180.246 75.372 179.526 74.688 178.494 74.688H176.466V78.144H178.494ZM175.458 82.536V73.8H178.53C180.126 73.8 181.242 74.88 181.242 76.416C181.254 77.604 180.474 78.612 179.202 78.936L181.65 82.536H180.45L178.062 79.032H176.466V82.536H175.458ZM187.158 75.528C187.506 75.528 187.746 75.78 187.746 76.116C187.746 76.464 187.506 76.716 187.158 76.716C186.81 76.716 186.558 76.464 186.558 76.116C186.558 75.78 186.81 75.528 187.158 75.528ZM186.558 80.16C186.558 79.812 186.81 79.572 187.158 79.572C187.506 79.572 187.746 79.812 187.746 80.16C187.746 80.508 187.506 80.76 187.158 80.76C186.81 80.76 186.558 80.508 186.558 80.16ZM195.169 81.72C196.309 81.72 197.101 80.904 197.101 79.74C197.101 78.564 196.309 77.748 195.169 77.748C194.065 77.748 193.273 78.564 193.273 79.74C193.273 80.904 194.065 81.72 195.169 81.72ZM192.277 79.74C192.277 79.116 192.481 78.564 192.733 78.108L195.169 73.812H196.321L194.533 76.932C194.749 76.896 194.965 76.86 195.193 76.86C196.909 76.86 198.097 78.048 198.097 79.74C198.097 81.42 196.897 82.608 195.193 82.608C193.477 82.608 192.277 81.42 192.277 79.74ZM202.522 81.708C203.782 81.708 204.658 80.256 204.658 78.168C204.658 76.08 203.782 74.628 202.522 74.628C201.25 74.628 200.362 76.08 200.362 78.168C200.362 80.256 201.25 81.708 202.522 81.708ZM199.366 78.168C199.366 75.576 200.662 73.752 202.522 73.752C204.358 73.752 205.654 75.576 205.654 78.168C205.654 80.76 204.358 82.596 202.522 82.596C200.662 82.596 199.366 80.76 199.366 78.168ZM209.397 82.512L214.845 73.8H215.937L210.465 82.512H209.397ZM207.405 76.032C207.405 74.7 208.413 73.656 209.709 73.656C210.993 73.656 212.001 74.7 212.001 76.032C212.001 77.352 210.993 78.396 209.709 78.396C208.413 78.396 207.405 77.352 207.405 76.032ZM208.389 76.032C208.389 76.8 208.965 77.424 209.709 77.424C210.453 77.424 211.029 76.8 211.029 76.032C211.029 75.252 210.453 74.64 209.709 74.64C208.965 74.64 208.389 75.252 208.389 76.032ZM213.225 80.232C213.225 78.912 214.233 77.868 215.529 77.868C216.813 77.868 217.821 78.912 217.821 80.232C217.821 81.564 216.813 82.608 215.529 82.608C214.233 82.608 213.225 81.564 213.225 80.232ZM214.209 80.232C214.209 81.012 214.785 81.636 215.529 81.636C216.273 81.636 216.849 81.012 216.849 80.232C216.849 79.464 216.273 78.84 215.529 78.84C214.785 78.84 214.209 79.464 214.209 80.232ZM222.947 78.168C222.947 76.644 223.547 74.616 224.411 73.26H225.503C224.531 74.592 223.859 76.608 223.859 78.168C223.859 79.728 224.531 81.744 225.503 83.076H224.411C223.547 81.72 222.947 79.692 222.947 78.168ZM228.501 73.116L227.757 75.54H227.037L227.433 73.116H228.501ZM230.212 81.636C231.94 79.968 234.472 78 234.472 76.452C234.472 75.384 233.788 74.628 232.816 74.628C232.096 74.628 231.364 75.156 231.028 75.924L230.128 75.528C230.596 74.472 231.712 73.728 232.816 73.728C234.376 73.728 235.468 74.856 235.468 76.452C235.468 78.288 233.248 80.124 231.592 81.636H235.612V82.524H230.332L230.212 81.636ZM241.366 78.024C242.134 78.492 242.578 79.332 242.578 80.052C242.578 81.54 241.402 82.584 239.734 82.584C238.066 82.584 236.89 81.528 236.89 80.028H237.886C237.886 81.012 238.654 81.696 239.734 81.696C240.826 81.696 241.594 81.012 241.594 80.04C241.594 79.116 240.826 78.456 239.758 78.456H239.122V77.568H239.758C240.754 77.568 241.474 76.98 241.474 76.128C241.474 75.252 240.778 74.64 239.806 74.64C238.822 74.64 238.138 75.264 238.138 76.152H237.142C237.142 74.736 238.234 73.752 239.806 73.752C241.354 73.752 242.458 74.724 242.458 76.116C242.458 76.776 242.062 77.556 241.366 78.024ZM244.583 81.396C244.955 81.396 245.219 81.66 245.219 82.044C245.219 82.428 244.955 82.704 244.583 82.704C244.199 82.704 243.923 82.428 243.923 82.044C243.923 81.66 244.199 81.396 244.583 81.396ZM249.882 73.836V82.512H248.886V74.94L247.47 75.852L246.978 75.06L248.886 73.836H249.882ZM259.154 72.84H260.198V79.044H259.154V78.516H257.09V77.844H259.154V72.84ZM251.498 76.788C253.538 76.788 256.094 76.764 258.35 76.524L258.422 77.184C257.414 77.328 256.37 77.412 255.35 77.472V79.08H254.318V77.508C253.358 77.544 252.446 77.544 251.63 77.544L251.498 76.788ZM252.29 74.628C252.29 73.644 253.322 73.044 254.894 73.044C256.466 73.044 257.498 73.644 257.498 74.628C257.498 75.6 256.466 76.2 254.894 76.2C253.322 76.2 252.29 75.6 252.29 74.628ZM253.082 80.16V79.428H260.198V81.648H254.138V82.536H260.546V83.292H253.106V80.964H259.178V80.16H253.082ZM253.262 74.628C253.262 75.168 253.91 75.504 254.894 75.504C255.89 75.504 256.526 75.168 256.526 74.628C256.526 74.088 255.89 73.752 254.894 73.752C253.91 73.752 253.262 74.088 253.262 74.628ZM272.42 72.84H273.464V83.4H272.42V72.84ZM264.896 80.628C267.704 79.284 269.084 77.304 269.288 74.82H265.388V73.968H270.344C270.344 77.052 269.012 79.728 265.448 81.456L264.896 80.628ZM276.152 73.356H283.952V74.208H280.736C280.772 75.432 282.368 76.464 284.264 76.704L283.868 77.544C282.128 77.292 280.616 76.44 280.052 75.24C279.488 76.44 277.976 77.292 276.224 77.544L275.828 76.704C277.736 76.464 279.32 75.42 279.356 74.208H276.152V73.356ZM275.264 79.104V78.264H284.828V79.104H280.652V81.192H279.608V79.104H275.264ZM276.464 83.184V80.172H277.508V82.344H283.772V83.184H276.464ZM288.633 78.168C288.633 79.704 288.033 81.72 287.181 83.076H286.089C287.049 81.756 287.721 79.728 287.721 78.168C287.721 76.608 287.049 74.58 286.089 73.26H287.181C288.033 74.616 288.633 76.632 288.633 78.168Z" fill="#3F3F46"/>
<circle opacity="0.08" cx="65" cy="163" r="65" fill="#9735D0"/>
<path d="M38.1256 167.56C40.4616 165.32 43.6456 163.048 43.6456 161.08C43.6456 159.768 42.8136 158.84 41.6296 158.84C40.7176 158.84 39.8056 159.496 39.3896 160.44L37.9016 159.784C38.5416 158.312 40.0936 157.288 41.6296 157.288C43.8216 157.288 45.3416 158.856 45.3416 161.08C45.3416 163.528 42.6856 165.704 40.5256 167.56H45.5336V169.048H38.2856L38.1256 167.56ZM51.4723 167.656C53.0723 167.656 54.1443 165.864 54.1443 163.224C54.1443 160.568 53.0723 158.776 51.4723 158.776C49.8723 158.776 48.7843 160.568 48.7843 163.224C48.7843 165.864 49.8723 167.656 51.4723 167.656ZM47.0883 163.224C47.0883 159.736 48.8963 157.288 51.4723 157.288C54.0323 157.288 55.8403 159.736 55.8403 163.224C55.8403 166.696 54.0323 169.16 51.4723 169.16C48.8963 169.16 47.0883 166.696 47.0883 163.224ZM57.6412 167.56C59.9772 165.32 63.1612 163.048 63.1612 161.08C63.1612 159.768 62.3292 158.84 61.1452 158.84C60.2332 158.84 59.3212 159.496 58.9052 160.44L57.4172 159.784C58.0572 158.312 59.6092 157.288 61.1452 157.288C63.3372 157.288 64.8572 158.856 64.8572 161.08C64.8572 163.528 62.2012 165.704 60.0412 167.56H65.0492V169.048H57.8012L57.6412 167.56ZM70.9879 167.656C72.5879 167.656 73.6599 165.864 73.6599 163.224C73.6599 160.568 72.5879 158.776 70.9879 158.776C69.3879 158.776 68.2999 160.568 68.2999 163.224C68.2999 165.864 69.3879 167.656 70.9879 167.656ZM66.6039 163.224C66.6039 159.736 68.4119 157.288 70.9879 157.288C73.5479 157.288 75.3559 159.736 75.3559 163.224C75.3559 166.696 73.5479 169.16 70.9879 169.16C68.4119 169.16 66.6039 166.696 66.6039 163.224ZM77.9888 167.384C78.5648 167.384 78.9648 167.8 78.9648 168.376C78.9648 168.968 78.5648 169.384 77.9888 169.384C77.3968 169.384 76.9808 168.968 76.9808 168.376C76.9808 167.8 77.3968 167.384 77.9888 167.384ZM87.2174 163.832L85.5214 163.624L85.9214 157.4H92.1454V158.888H87.5534L87.3614 161.736C87.8894 161.496 88.4814 161.352 89.0094 161.352C91.4094 161.352 93.1054 162.968 93.1054 165.256C93.1054 167.576 91.4094 169.208 89.0094 169.208C87.1214 169.208 85.4894 167.944 85.0734 166.152L86.7214 165.768C86.9614 166.84 87.9054 167.608 89.0094 167.608C90.4174 167.608 91.4094 166.632 91.4094 165.256C91.4094 163.912 90.4174 162.952 89.0094 162.952C88.4174 162.952 87.6814 163.32 87.2174 163.832Z" fill="#6D0CA6"/>
<path d="M162.988 146.28V156.612H161.49V151.95H156.618V156.612H155.134V146.28H156.618V150.662H161.49V146.28H162.988ZM165.251 149.934H166.735V156.612H165.251V149.934ZM165.153 147.442C165.153 146.952 165.503 146.602 165.993 146.602C166.483 146.602 166.833 146.952 166.833 147.442C166.833 147.932 166.483 148.282 165.993 148.282C165.503 148.282 165.153 147.932 165.153 147.442ZM171.575 155.254C172.093 155.254 172.695 154.988 173.073 154.568L174.095 155.59C173.521 156.22 172.471 156.668 171.631 156.668C169.643 156.668 168.243 155.268 168.243 153.308C168.243 151.334 169.643 149.934 171.631 149.934C172.513 149.934 173.493 150.382 174.095 151.026L173.073 152.034C172.695 151.614 172.093 151.348 171.575 151.348C170.469 151.348 169.727 152.118 169.727 153.308C169.727 154.484 170.469 155.254 171.575 155.254ZM178.197 155.408C179.233 155.408 179.933 154.582 179.933 153.308C179.933 152.048 179.233 151.208 178.197 151.208C177.161 151.208 176.461 152.034 176.461 153.308C176.461 154.582 177.147 155.408 178.197 155.408ZM174.977 153.308C174.977 151.334 176.307 149.934 178.197 149.934C180.087 149.934 181.417 151.334 181.417 153.308C181.417 155.268 180.087 156.682 178.197 156.682C176.307 156.682 174.977 155.268 174.977 153.308ZM191.494 156.724C188.498 156.724 186.398 154.54 186.398 151.446C186.398 148.338 188.498 146.168 191.494 146.168C192.908 146.168 194.168 146.77 195.092 147.708L194.112 148.674C193.496 147.946 192.516 147.47 191.48 147.47C189.338 147.47 187.896 149.066 187.896 151.446C187.896 153.826 189.338 155.422 191.48 155.422C192.586 155.422 193.468 154.918 194.056 154.246L195.092 155.184C194.168 156.122 192.978 156.738 191.494 156.724ZM199.469 156.682C197.621 156.682 196.305 155.282 196.305 153.322C196.305 151.362 197.621 149.962 199.469 149.962C200.127 149.962 200.855 150.27 201.387 150.9V149.948H202.871V156.626H201.387V155.73C200.855 156.402 200.127 156.682 199.469 156.682ZM197.789 153.322C197.789 154.582 198.503 155.422 199.567 155.422C200.547 155.422 201.387 154.54 201.401 153.322C201.387 152.104 200.547 151.222 199.567 151.222C198.503 151.222 197.789 152.048 197.789 153.322ZM208.108 155.408C209.186 155.408 209.886 154.568 209.886 153.294C209.886 152.02 209.186 151.18 208.108 151.18C207.1 151.18 206.274 152.118 206.274 153.294C206.274 154.47 207.1 155.408 208.108 155.408ZM204.776 159.58V149.934H206.26V150.914C206.792 150.214 207.674 149.934 208.192 149.934C210.054 149.934 211.37 151.32 211.37 153.294C211.37 155.282 210.054 156.668 208.192 156.668C207.66 156.668 206.792 156.374 206.26 155.674V159.58H204.776ZM212.98 149.934H214.464V156.612H212.98V149.934ZM212.882 147.442C212.882 146.952 213.232 146.602 213.722 146.602C214.212 146.602 214.562 146.952 214.562 147.442C214.562 147.932 214.212 148.282 213.722 148.282C213.232 148.282 212.882 147.932 212.882 147.442ZM217.372 156.626V151.222H216.112V149.934H217.372V147.596H218.856V149.934H220.438V151.222H218.856V156.626H217.372ZM224.652 156.682C222.804 156.682 221.488 155.282 221.488 153.322C221.488 151.362 222.804 149.962 224.652 149.962C225.31 149.962 226.038 150.27 226.57 150.9V149.948H228.054V156.626H226.57V155.73C226.038 156.402 225.31 156.682 224.652 156.682ZM222.972 153.322C222.972 154.582 223.686 155.422 224.75 155.422C225.73 155.422 226.57 154.54 226.584 153.322C226.57 152.104 225.73 151.222 224.75 151.222C223.686 151.222 222.972 152.048 222.972 153.322ZM229.859 146.616H231.343V156.612H229.859V146.616ZM242.33 147.162H244.766V145.174H246.306V151.53H244.766V148.394H242.33V147.162ZM235.89 150.396C237.878 149.766 238.9 148.226 238.9 146.56V145.566H240.44V146.56C240.44 148.086 241.434 149.556 243.324 150.158L242.54 151.348C241.196 150.9 240.23 150.004 239.698 148.87C239.152 150.13 238.144 151.124 236.688 151.6L235.89 150.396ZM238.158 153.294V152.104H246.306V155.31H239.698V156.276H246.698V157.48H238.172V154.19H244.78V153.294H238.158ZM256.947 145.16H258.487V152.076H256.947V145.16ZM248.813 146.98V145.748H254.511V149.318H250.339V150.606C252.467 150.592 253.993 150.522 255.729 150.228L255.911 151.474C253.979 151.796 252.313 151.852 249.891 151.852H248.827V148.156H252.999V146.98H248.813ZM250.283 157.48V152.636H251.809V153.854H256.975V152.636H258.487V157.48H250.283ZM251.809 156.234H256.975V155.044H251.809V156.234Z" fill="#15151A"/>
<path d="M155.248 176.168C155.248 174.644 155.848 172.616 156.712 171.26H157.804C156.832 172.592 156.16 174.608 156.16 176.168C156.16 177.728 156.832 179.744 157.804 181.076H156.712C155.848 179.72 155.248 177.692 155.248 176.168ZM159.626 171.86H164.498V178.772H159.626V171.86ZM160.646 177.932H163.502V172.7H160.646V177.932ZM166.646 181.424V170.828H167.69V181.424H166.646ZM170.75 171.356H177.866V172.124C177.866 172.94 177.866 173.864 177.614 175.1H179.09V175.952H174.818V177.824H177.926V181.412H176.894V178.652H170.522V177.824H173.786V175.952H169.526V175.1H176.582C176.846 173.876 176.858 172.988 176.858 172.196H170.75V171.356ZM190.436 170.852H191.48V178.904H190.436V176.696H188.696V175.856H190.436V174.464H188.696V173.624H190.436V170.852ZM182.78 172.94V172.1H185.264V170.828H186.308V172.1H188.696V172.94H182.78ZM183.368 175.52C183.368 174.296 184.364 173.492 185.768 173.492C187.184 173.492 188.18 174.296 188.18 175.52C188.18 176.72 187.184 177.536 185.768 177.536C184.364 177.536 183.368 176.72 183.368 175.52ZM184.352 175.52C184.352 176.252 184.928 176.732 185.768 176.732C186.62 176.732 187.196 176.252 187.196 175.52C187.196 174.8 186.62 174.308 185.768 174.308C184.928 174.308 184.352 174.8 184.352 175.52ZM184.664 181.172V178.208H185.708V180.332H191.732V181.172H184.664ZM193.593 171.92H199.497V172.784H197.061V174.02C197.061 175.808 198.285 177.62 199.857 178.292L199.269 179.12C198.057 178.556 197.049 177.38 196.557 175.952C196.065 177.476 195.069 178.784 193.845 179.384L193.245 178.556C194.793 177.824 196.017 175.844 196.017 174.02V172.784H193.593V171.92ZM200.865 181.412V170.852H201.909V181.412H200.865ZM207.026 171.392H208.058V172.976H210.806V171.392H211.826V173.408H214.178V170.852H215.222V176.612H214.178V174.26H211.826V176.24H207.026V171.392ZM208.058 175.388H210.806V173.78H208.058V175.388ZM208.43 181.256V177.116H209.45V178.34H214.19V177.116H215.21V181.256H208.43ZM209.45 180.416H214.19V179.18H209.45V180.416ZM224.631 170.852H225.675V178.544H224.631V170.852ZM217.227 174.188C217.227 172.652 218.427 171.572 219.999 171.572C221.583 171.572 222.771 172.652 222.771 174.188C222.771 175.712 221.583 176.792 219.999 176.792C218.427 176.792 217.227 175.712 217.227 174.188ZM218.247 174.188C218.247 175.184 219.003 175.88 219.999 175.88C220.995 175.88 221.763 175.184 221.763 174.188C221.763 173.168 220.995 172.472 219.999 172.472C219.003 172.472 218.247 173.168 218.247 174.188ZM218.871 181.172V177.764H219.903V180.332H225.987V181.172H218.871ZM230.367 176.168C230.367 177.704 229.767 179.72 228.915 181.076H227.823C228.783 179.756 229.455 177.728 229.455 176.168C229.455 174.608 228.783 172.58 227.823 171.26H228.915C229.767 172.616 230.367 174.632 230.367 176.168Z" fill="#3F3F46"/>
<circle opacity="0.15" cx="65" cy="261" r="65" fill="#9735D0"/>
<path d="M37.2349 265.56C39.5709 263.32 42.7549 261.048 42.7549 259.08C42.7549 257.768 41.9229 256.84 40.7389 256.84C39.8269 256.84 38.9149 257.496 38.4989 258.44L37.0109 257.784C37.6509 256.312 39.2029 255.288 40.7389 255.288C42.9309 255.288 44.4509 256.856 44.4509 259.08C44.4509 261.528 41.7949 263.704 39.6349 265.56H44.6429V267.048H37.3949L37.2349 265.56ZM50.5817 265.656C52.1817 265.656 53.2537 263.864 53.2537 261.224C53.2537 258.568 52.1817 256.776 50.5817 256.776C48.9817 256.776 47.8937 258.568 47.8937 261.224C47.8937 263.864 48.9817 265.656 50.5817 265.656ZM46.1977 261.224C46.1977 257.736 48.0057 255.288 50.5817 255.288C53.1417 255.288 54.9497 257.736 54.9497 261.224C54.9497 264.696 53.1417 267.16 50.5817 267.16C48.0057 267.16 46.1977 264.696 46.1977 261.224ZM56.7506 265.56C59.0866 263.32 62.2706 261.048 62.2706 259.08C62.2706 257.768 61.4386 256.84 60.2546 256.84C59.3426 256.84 58.4306 257.496 58.0146 258.44L56.5266 257.784C57.1666 256.312 58.7186 255.288 60.2546 255.288C62.4466 255.288 63.9666 256.856 63.9666 259.08C63.9666 261.528 61.3106 263.704 59.1506 265.56H64.1586V267.048H56.9106L56.7506 265.56ZM70.0653 255.416V267.048L68.3693 267.032V257.224L66.3213 258.36L65.6173 256.936L68.3853 255.416H70.0653ZM73.4888 265.384C74.0648 265.384 74.4648 265.8 74.4648 266.376C74.4648 266.968 74.0648 267.384 73.4888 267.384C72.8968 267.384 72.4808 266.968 72.4808 266.376C72.4808 265.8 72.8968 265.384 73.4888 265.384ZM84.8934 255.416V267.048L83.1974 267.032V257.224L81.1494 258.36L80.4454 256.936L83.2134 255.416H84.8934ZM92.2216 255.416V267.048L90.5256 267.032V257.224L88.4776 258.36L87.7736 256.936L90.5416 255.416H92.2216Z" fill="#6D0CA6"/>
<path d="M163.282 243.174H164.822V252.302H163.282V247.836H161.35V246.604H163.282V243.174ZM154.476 249.278H155.876V245.428H154.798V244.196H161.406V245.428H160.314V249.11C160.846 249.068 161.378 249.012 161.882 248.942L161.98 250.076C159.544 250.496 156.73 250.538 154.63 250.538L154.476 249.278ZM156.688 255.382V251.532H158.214V254.15H165.116V255.382H156.688ZM157.36 249.25C157.85 249.236 158.34 249.222 158.83 249.194V245.428H157.36V249.25ZM168.07 244.224H176.638V245.484H169.596V248.998H176.75V250.23H168.07V244.224ZM166.712 254.052V252.792H177.996V254.052H166.712ZM182.637 244.014H188.223V247.864H184.191V249.446C186.235 249.432 187.593 249.376 189.133 249.124L189.259 250.356C187.537 250.65 186.053 250.692 183.645 250.692H182.665V246.702H186.697V245.232H182.637V244.014ZM184.331 255.382V251.63H185.871V254.15H192.857V255.382H184.331ZM188.895 247.556V246.24H190.981V243.174H192.521V252.33H190.981V247.556H188.895ZM194.93 244.546H197.562V243.174H199.102V244.546H201.72V245.778H199.102C199.13 247.178 200.194 248.522 202.14 249.04L201.426 250.258C199.984 249.852 198.948 248.998 198.374 247.892C197.814 249.124 196.778 250.076 195.28 250.524L194.552 249.32C196.512 248.732 197.548 247.304 197.562 245.778H194.93V244.546ZM196.288 253.282C196.288 251.826 197.884 250.958 200.502 250.958C203.12 250.958 204.744 251.826 204.744 253.282C204.744 254.766 203.12 255.62 200.502 255.62C197.884 255.62 196.288 254.766 196.288 253.282ZM197.828 253.282C197.828 254.038 198.78 254.444 200.502 254.444C202.238 254.444 203.218 254.038 203.218 253.282C203.218 252.54 202.238 252.134 200.502 252.134C198.78 252.134 197.828 252.54 197.828 253.282ZM203.148 250.734V243.174H204.688V250.734H203.148Z" fill="#15151A"/>
<path d="M157.708 271.636V273.424L159.388 272.896L159.676 273.784L158.008 274.312L159.076 275.788L158.332 276.376L157.24 274.876L156.16 276.376L155.428 275.788L156.496 274.312L154.816 273.784L155.104 272.896L156.772 273.424V271.636H157.708ZM171.358 268.852H172.402V276.652H171.358V272.656H169.522V271.816H171.358V268.852ZM163.714 274.096H165.022V270.616H164.002V269.764H169.582V270.616H168.562V273.964C169.066 273.916 169.558 273.868 170.026 273.808L170.086 274.576C168.01 274.936 165.598 274.96 163.834 274.96L163.714 274.096ZM165.61 279.172V275.968H166.642V278.332H172.666V279.172H165.61ZM166.03 274.072C166.534 274.06 167.038 274.048 167.554 274.024V270.616H166.03V274.072ZM175.39 269.8H182.554V270.652H176.422V273.88H182.662V274.72H175.39V269.8ZM174.19 277.984V277.132H183.754V277.984H174.19ZM188.02 269.8H189.028V278.536H188.02V269.8ZM194.127 274.144C195.159 274.144 195.879 273.436 195.879 272.404C195.879 271.372 195.159 270.688 194.127 270.688H192.099V274.144H194.127ZM191.091 278.536V269.8H194.163C195.759 269.8 196.875 270.88 196.875 272.416C196.887 273.604 196.107 274.612 194.835 274.936L197.283 278.536H196.083L193.695 275.032H192.099V278.536H191.091ZM202.236 274.144C203.268 274.144 203.988 273.436 203.988 272.404C203.988 271.372 203.268 270.688 202.236 270.688H200.208V274.144H202.236ZM199.2 278.536V269.8H202.272C203.868 269.8 204.984 270.88 204.984 272.416C204.996 273.604 204.216 274.612 202.944 274.936L205.392 278.536H204.192L201.804 275.032H200.208V278.536H199.2ZM210.9 271.528C211.248 271.528 211.488 271.78 211.488 272.116C211.488 272.464 211.248 272.716 210.9 272.716C210.552 272.716 210.3 272.464 210.3 272.116C210.3 271.78 210.552 271.528 210.9 271.528ZM210.3 276.16C210.3 275.812 210.552 275.572 210.9 275.572C211.248 275.572 211.488 275.812 211.488 276.16C211.488 276.508 211.248 276.76 210.9 276.76C210.552 276.76 210.3 276.508 210.3 276.16ZM220.915 269.824V275.26H222.139V276.136H220.915V278.512H219.919V276.136H216.139L216.019 275.26L219.955 269.824H220.915ZM217.231 275.26H219.919V271.54L217.231 275.26ZM228.309 269.824V275.26H229.533V276.136H228.309V278.512H227.313V276.136H223.533L223.413 275.26L227.349 269.824H228.309ZM224.625 275.26H227.313V271.54L224.625 275.26ZM233.28 278.512L238.728 269.8H239.82L234.348 278.512H233.28ZM231.288 272.032C231.288 270.7 232.296 269.656 233.592 269.656C234.876 269.656 235.884 270.7 235.884 272.032C235.884 273.352 234.876 274.396 233.592 274.396C232.296 274.396 231.288 273.352 231.288 272.032ZM232.272 272.032C232.272 272.8 232.848 273.424 233.592 273.424C234.336 273.424 234.912 272.8 234.912 272.032C234.912 271.252 234.336 270.64 233.592 270.64C232.848 270.64 232.272 271.252 232.272 272.032ZM237.108 276.232C237.108 274.912 238.116 273.868 239.412 273.868C240.696 273.868 241.704 274.912 241.704 276.232C241.704 277.564 240.696 278.608 239.412 278.608C238.116 278.608 237.108 277.564 237.108 276.232ZM238.092 276.232C238.092 277.012 238.668 277.636 239.412 277.636C240.156 277.636 240.732 277.012 240.732 276.232C240.732 275.464 240.156 274.84 239.412 274.84C238.668 274.84 238.092 275.464 238.092 276.232ZM246.83 274.168C246.83 272.644 247.43 270.616 248.294 269.26H249.386C248.414 270.592 247.742 272.608 247.742 274.168C247.742 275.728 248.414 277.744 249.386 279.076H248.294C247.43 277.72 246.83 275.692 246.83 274.168ZM252.384 269.116L251.64 271.54H250.92L251.316 269.116H252.384ZM254.095 277.636C255.823 275.968 258.355 274 258.355 272.452C258.355 271.384 257.671 270.628 256.699 270.628C255.979 270.628 255.247 271.156 254.911 271.924L254.011 271.528C254.479 270.472 255.595 269.728 256.699 269.728C258.259 269.728 259.351 270.856 259.351 272.452C259.351 274.288 257.131 276.124 255.475 277.636H259.495V278.524H254.215L254.095 277.636ZM265.249 274.024C266.017 274.492 266.461 275.332 266.461 276.052C266.461 277.54 265.285 278.584 263.617 278.584C261.949 278.584 260.773 277.528 260.773 276.028H261.769C261.769 277.012 262.537 277.696 263.617 277.696C264.709 277.696 265.477 277.012 265.477 276.04C265.477 275.116 264.709 274.456 263.641 274.456H263.005V273.568H263.641C264.637 273.568 265.357 272.98 265.357 272.128C265.357 271.252 264.661 270.64 263.689 270.64C262.705 270.64 262.021 271.264 262.021 272.152H261.025C261.025 270.736 262.117 269.752 263.689 269.752C265.237 269.752 266.341 270.724 266.341 272.116C266.341 272.776 265.945 273.556 265.249 274.024ZM268.466 277.396C268.838 277.396 269.102 277.66 269.102 278.044C269.102 278.428 268.838 278.704 268.466 278.704C268.082 278.704 267.806 278.428 267.806 278.044C267.806 277.66 268.082 277.396 268.466 277.396ZM273.765 269.836V278.512H272.769V270.94L271.353 271.852L270.861 271.06L272.769 269.836H273.765ZM283.037 268.84H284.081V275.044H283.037V274.516H280.973V273.844H283.037V268.84ZM275.381 272.788C277.421 272.788 279.977 272.764 282.233 272.524L282.305 273.184C281.297 273.328 280.253 273.412 279.233 273.472V275.08H278.201V273.508C277.241 273.544 276.329 273.544 275.513 273.544L275.381 272.788ZM276.173 270.628C276.173 269.644 277.205 269.044 278.777 269.044C280.349 269.044 281.381 269.644 281.381 270.628C281.381 271.6 280.349 272.2 278.777 272.2C277.205 272.2 276.173 271.6 276.173 270.628ZM276.965 276.16V275.428H284.081V277.648H278.021V278.536H284.429V279.292H276.989V276.964H283.061V276.16H276.965ZM277.145 270.628C277.145 271.168 277.793 271.504 278.777 271.504C279.773 271.504 280.409 271.168 280.409 270.628C280.409 270.088 279.773 269.752 278.777 269.752C277.793 269.752 277.145 270.088 277.145 270.628ZM296.303 268.84H297.347V279.4H296.303V268.84ZM288.779 276.628C291.587 275.284 292.967 273.304 293.171 270.82H289.271V269.968H294.227C294.227 273.052 292.895 275.728 289.331 277.456L288.779 276.628ZM300.035 269.356H307.835V270.208H304.619C304.655 271.432 306.251 272.464 308.147 272.704L307.751 273.544C306.011 273.292 304.499 272.44 303.935 271.24C303.371 272.44 301.859 273.292 300.107 273.544L299.711 272.704C301.619 272.464 303.203 271.42 303.239 270.208H300.035V269.356ZM299.147 275.104V274.264H308.711V275.104H304.535V277.192H303.491V275.104H299.147ZM300.347 279.184V276.172H301.391V278.344H307.655V279.184H300.347ZM312.515 274.168C312.515 275.704 311.915 277.72 311.063 279.076H309.971C310.931 277.756 311.603 275.728 311.603 274.168C311.603 272.608 310.931 270.58 309.971 269.26H311.063C311.915 270.616 312.515 272.632 312.515 274.168Z" fill="#3F3F46"/>
</svg>
