<svg width="793" height="510" viewBox="0 0 793 510" fill="none" xmlns="http://www.w3.org/2000/svg">
<rect width="793" height="510" rx="16" fill="#F6F6F7"/>
<line x1="332.025" y1="128" x2="332.025" y2="178" stroke="#71717A" stroke-width="0.95" stroke-dasharray="2.85 2.85"/>
<path d="M247 231.2V188.8C247 184.603 250.403 181.2 254.6 181.2L409.45 181.2C413.647 181.2 417.05 184.603 417.05 188.8V231.2" stroke="#71717A" stroke-width="0.95" stroke-dasharray="2.85 2.85"/>
<line x1="461.025" y1="277.2" x2="461.025" y2="327.2" stroke="#71717A" stroke-width="0.95" stroke-dasharray="2.85 2.85"/>
<path d="M376 380.4V338C376 333.803 379.403 330.4 383.6 330.4H538.45C542.647 330.4 546.05 333.803 546.05 338V380.4" stroke="#71717A" stroke-width="0.95" stroke-dasharray="2.85 2.85"/>
<g filter="url(#filter0_d_10914_52616)">
<rect x="209" y="56" width="248" height="94" rx="15.2" fill="#9735D0" shape-rendering="crispEdges"/>
<path d="M284.66 93.82H286.86V106.8H284.66V93.82ZM272.2 102.62C275.06 101.58 276.52 99.06 276.52 96.56V94.78H278.74V96.56C278.74 99 280.18 101.36 283 102.3L281.86 104.06C279.86 103.34 278.44 101.92 277.66 100.1C276.88 102.04 275.42 103.6 273.32 104.36L272.2 102.62ZM275.18 111.26V105.58H277.38V109.5H287.36V111.26H275.18ZM293.92 94.78H296.12V96.36C296.12 98.78 297.5 101 300.24 101.88L299.08 103.6C297.18 102.94 295.84 101.64 295.08 99.98C294.3 101.9 292.82 103.4 290.68 104.14L289.54 102.36C292.44 101.4 293.92 99.02 293.92 96.44V94.78ZM292.42 108.18C292.42 106.02 294.74 104.76 298.48 104.76C302.2 104.76 304.5 106.02 304.5 108.18C304.5 110.36 302.2 111.6 298.48 111.6C294.74 111.6 292.42 110.36 292.42 108.18ZM294.64 108.18C294.64 109.3 296 109.9 298.48 109.9C300.92 109.9 302.32 109.3 302.32 108.18C302.32 107.06 300.92 106.46 298.48 106.46C296 106.46 294.64 107.06 294.64 108.18ZM298.74 99.06V97.24H302.22V93.82H304.42V104.28H302.22V99.06H298.74ZM307.561 95.04H317.141V96.82H313.481V97C313.481 99.16 314.861 101.22 317.641 102.1L316.581 103.8C314.601 103.18 313.201 101.92 312.441 100.32C311.661 102.2 310.181 103.68 308.061 104.4L306.961 102.66C309.801 101.7 311.281 99.38 311.281 97V96.82H307.561V95.04ZM309.361 108.2C309.361 106.06 311.661 104.82 315.321 104.82C318.981 104.82 321.261 106.06 321.261 108.2C321.261 110.34 318.981 111.6 315.321 111.6C311.661 111.6 309.361 110.34 309.361 108.2ZM311.521 108.2C311.521 109.3 312.901 109.9 315.321 109.9C317.721 109.9 319.101 109.3 319.101 108.2C319.101 107.1 317.721 106.54 315.321 106.54C312.901 106.54 311.521 107.1 311.521 108.2ZM318.861 104.44V93.82H321.061V98.08H323.541V99.88H321.061V104.44H318.861ZM324.621 104.5H340.721V106.3H333.761V111.64H331.541V106.3H324.621V104.5ZM325.521 101.7C329.041 101.26 331.301 99.46 331.521 97.66H326.101V95.9H331.541V93.84H333.761V95.9H339.221V97.66H333.781C334.001 99.42 336.281 101.26 339.781 101.7L339.001 103.42C336.061 103.06 333.801 101.76 332.661 100.04C331.521 101.78 329.241 103.04 326.281 103.42L325.521 101.7ZM342.822 95.14H352.522V96.9H348.802V97.4C348.802 99.64 350.322 101.8 353.102 102.72L351.982 104.42C349.962 103.76 348.522 102.42 347.722 100.7C346.942 102.56 345.442 104.02 343.342 104.74L342.222 103.02C345.062 102.06 346.562 99.76 346.562 97.4V96.9H342.822V95.14ZM345.102 111.26V105.54H347.302V109.5H357.282V111.26H345.102ZM354.582 106.74V93.82H356.802V106.74H354.582ZM361.662 94.48H363.842V96.4H371.402V94.48H373.602V101.68H368.702V103.34H375.662V105.1H359.582V103.34H366.502V101.68H361.662V94.48ZM361.582 111.28V106.3H363.762V109.5H373.862V111.28H361.582ZM363.842 99.96H371.402V98.1H363.842V99.96ZM377.063 104.2H393.183V105.94H386.163V111.62H383.963V105.94H377.063V104.2ZM378.963 102.32V94.52H381.143V96.7H389.043V94.52H391.203V102.32H378.963ZM381.143 100.56H389.043V98.42H381.143V100.56Z" fill="white"/>
</g>
<g filter="url(#filter1_d_10914_52616)">
<rect x="85" y="209.2" width="240" height="90" rx="15.2" fill="#F5EBFB" shape-rendering="crispEdges"/>
<path d="M132.442 233.56L137.374 246.844H135.34L134.008 243.226H128.554L127.168 246.844H125.134L130.156 233.56H132.442ZM129.166 241.57H133.378L131.308 235.972L129.166 241.57ZM139.784 233.56H141.692V246.844H139.784V233.56ZM160.197 233.56L155.571 246.844H153.339L148.425 233.56H150.459L154.437 244.27L158.163 233.56H160.197ZM164.565 246.934C162.189 246.934 160.497 245.134 160.497 242.614C160.497 240.094 162.189 238.294 164.565 238.294C165.411 238.294 166.347 238.69 167.031 239.5V238.276H168.939V246.862H167.031V245.71C166.347 246.574 165.411 246.934 164.565 246.934ZM162.405 242.614C162.405 244.234 163.323 245.314 164.691 245.314C165.951 245.314 167.031 244.18 167.049 242.614C167.031 241.048 165.951 239.914 164.691 239.914C163.323 239.914 162.405 240.976 162.405 242.614ZM171.26 233.992H173.168V246.844H171.26V233.992ZM177.584 243.172C177.584 244.486 178.358 245.296 179.492 245.296C180.698 245.296 181.526 244.504 181.508 243.19V238.276H183.434V246.862H181.508V245.872C180.968 246.538 180.086 246.934 179.24 246.934C177.17 246.934 175.676 245.44 175.676 243.244V238.276H177.584V243.172ZM189.686 246.898C187.256 246.898 185.546 245.116 185.546 242.596C185.546 240.058 187.256 238.276 189.686 238.276C192.35 238.276 193.196 240.454 193.25 240.598C193.772 241.822 193.61 243.19 193.61 243.334H187.418C187.634 244.486 188.606 245.278 189.686 245.278C191.108 245.278 191.684 244.45 191.828 244.198L193.358 244.882C192.944 245.854 191.738 246.898 189.686 246.898ZM187.418 241.822H191.81C191.63 240.76 191.018 239.896 189.686 239.896C188.534 239.896 187.634 240.706 187.418 241.822ZM195.852 239.122H203.7V241.03H195.852V239.122ZM208.117 243.172C208.117 244.486 208.891 245.296 210.025 245.296C211.231 245.296 212.059 244.504 212.041 243.19V238.276H213.967V246.862H212.041V245.872C211.501 246.538 210.619 246.934 209.773 246.934C207.703 246.934 206.209 245.44 206.209 243.244V238.276H208.117V243.172ZM220.813 245.296C222.199 245.296 223.099 244.216 223.099 242.578C223.099 240.94 222.199 239.86 220.813 239.86C219.517 239.86 218.455 241.066 218.455 242.578C218.455 244.09 219.517 245.296 220.813 245.296ZM216.529 250.66V238.258H218.437V239.518C219.121 238.618 220.255 238.258 220.921 238.258C223.315 238.258 225.007 240.04 225.007 242.578C225.007 245.134 223.315 246.916 220.921 246.916C220.237 246.916 219.121 246.538 218.437 245.638V250.66H216.529ZM237.949 246.988C234.097 246.988 231.397 244.18 231.397 240.202C231.397 236.206 234.097 233.416 237.949 233.416C239.767 233.416 241.387 234.19 242.575 235.396L241.315 236.638C240.523 235.702 239.263 235.09 237.931 235.09C235.177 235.09 233.323 237.142 233.323 240.202C233.323 243.262 235.177 245.314 237.931 245.314C239.353 245.314 240.487 244.666 241.243 243.802L242.575 245.008C241.387 246.214 239.857 247.006 237.949 246.988ZM248.274 246.898C245.844 246.898 244.134 245.116 244.134 242.596C244.134 240.058 245.844 238.276 248.274 238.276C250.938 238.276 251.784 240.454 251.838 240.598C252.36 241.822 252.198 243.19 252.198 243.334H246.006C246.222 244.486 247.194 245.278 248.274 245.278C249.696 245.278 250.272 244.45 250.416 244.198L251.946 244.882C251.532 245.854 250.326 246.898 248.274 246.898ZM246.006 241.822H250.398C250.218 240.76 249.606 239.896 248.274 239.896C247.122 239.896 246.222 240.706 246.006 241.822ZM260.082 242.128C260.082 240.76 259.38 239.932 258.192 239.932C257.022 239.95 256.122 240.868 256.14 242.128V246.862H254.232V238.276H256.14V239.446C256.68 238.78 257.598 238.294 258.426 238.294C260.046 238.294 261.99 239.356 261.99 242.056V246.862H260.082V242.128ZM265.138 246.862V239.914H263.518V238.258H265.138V235.252H267.046V238.258H269.08V239.914H267.046V246.862H265.138ZM274.571 246.898C272.141 246.898 270.431 245.116 270.431 242.596C270.431 240.058 272.141 238.276 274.571 238.276C277.235 238.276 278.081 240.454 278.135 240.598C278.657 241.822 278.495 243.19 278.495 243.334H272.303C272.519 244.486 273.491 245.278 274.571 245.278C275.993 245.278 276.569 244.45 276.713 244.198L278.243 244.882C277.829 245.854 276.623 246.898 274.571 246.898ZM272.303 241.822H276.695C276.515 240.76 275.903 239.896 274.571 239.896C273.419 239.896 272.519 240.706 272.303 241.822ZM280.439 246.862V238.276H282.347V239.536C282.923 238.726 283.967 238.186 284.975 238.24V240.004C283.445 239.932 282.347 241.282 282.347 242.596V246.862H280.439Z" fill="#6D0CA6"/>
<path d="M170.196 264.1L165.556 269.268L170.292 275.748H168.628L164.644 270.308L163.22 271.876V275.748H161.876V264.116H163.22V269.876L168.388 264.1H170.196ZM174.714 274.66C176.042 274.66 176.954 273.604 176.954 272.068C176.954 270.532 176.042 269.46 174.714 269.46C173.402 269.46 172.49 270.516 172.49 272.068C172.49 273.62 173.386 274.66 174.714 274.66ZM171.162 272.068C171.162 269.86 172.634 268.276 174.714 268.276C176.81 268.276 178.298 269.86 178.298 272.068C178.298 274.26 176.81 275.844 174.714 275.844C172.634 275.844 171.162 274.26 171.162 272.068ZM180.011 275.748V268.292H181.339V269.524C181.835 268.724 182.843 268.18 183.835 268.228V269.508C182.475 269.46 181.339 270.644 181.339 271.956V275.748H180.011ZM188.339 275.812C186.243 275.812 184.771 274.244 184.771 272.052C184.771 269.844 186.243 268.292 188.339 268.292C190.643 268.292 191.347 270.148 191.411 270.324C191.859 271.476 191.715 272.58 191.715 272.628H186.115C186.307 273.812 187.235 274.644 188.339 274.644C189.811 274.644 190.355 273.716 190.467 273.54L191.523 274.084C191.155 274.916 190.099 275.812 188.339 275.812ZM186.115 271.492L190.419 271.476C190.275 270.34 189.715 269.46 188.339 269.46C187.203 269.46 186.307 270.292 186.115 271.492ZM196.823 275.844C194.759 275.844 193.287 274.276 193.287 272.084C193.287 269.876 194.759 268.308 196.823 268.308C197.623 268.308 198.503 268.708 199.143 269.572V268.292H200.471V275.748H199.143V274.548C198.487 275.492 197.623 275.844 196.823 275.844ZM194.615 272.084C194.615 273.604 195.543 274.676 196.871 274.676C198.071 274.676 199.143 273.588 199.159 272.084C199.143 270.58 198.071 269.476 196.871 269.476C195.543 269.476 194.615 270.532 194.615 272.084ZM204.295 274.404L203.351 277.604H202.359L202.887 274.404H204.295ZM212.291 272.612C212.899 273.828 213.923 274.692 215.123 274.692C216.691 274.724 217.667 273.924 217.667 272.676C217.667 269.7 211.683 270.948 211.683 266.9C211.683 265.028 213.251 263.956 215.331 263.972C216.931 264.004 218.227 264.852 218.787 266.548L217.587 266.964C217.235 265.828 216.371 265.172 215.315 265.156C213.971 265.14 213.011 265.78 213.011 266.9C213.011 269.844 218.995 268.644 218.995 272.692C218.995 274.612 217.491 275.908 215.107 275.876C213.411 275.844 212.115 274.9 211.155 273.22L212.291 272.612ZM224.449 275.812C222.353 275.812 220.881 274.244 220.881 272.052C220.881 269.844 222.353 268.292 224.449 268.292C226.753 268.292 227.457 270.148 227.521 270.324C227.969 271.476 227.825 272.58 227.825 272.628H222.225C222.417 273.812 223.345 274.644 224.449 274.644C225.921 274.644 226.465 273.716 226.577 273.54L227.633 274.084C227.265 274.916 226.209 275.812 224.449 275.812ZM222.225 271.492L226.529 271.476C226.385 270.34 225.825 269.46 224.449 269.46C223.313 269.46 222.417 270.292 222.225 271.492ZM232.948 274.66C234.276 274.66 235.188 273.604 235.188 272.068C235.188 270.532 234.276 269.46 232.948 269.46C231.636 269.46 230.724 270.516 230.724 272.068C230.724 273.62 231.62 274.66 232.948 274.66ZM229.396 272.068C229.396 269.86 230.868 268.276 232.948 268.276C235.044 268.276 236.532 269.86 236.532 272.068C236.532 274.26 235.044 275.844 232.948 275.844C230.868 275.844 229.396 274.26 229.396 272.068ZM239.826 272.628C239.826 273.812 240.546 274.676 241.586 274.676C242.77 274.676 243.586 273.924 243.586 272.74V268.292H244.93V275.748H243.586V274.804C243.09 275.444 242.258 275.86 241.506 275.86C239.746 275.86 238.482 274.532 238.482 272.74V268.292H239.826V272.628ZM247.072 264.452H248.4V275.748H247.072V264.452Z" fill="#71717A"/>
</g>
<g filter="url(#filter2_d_10914_52616)">
<rect x="341" y="209.2" width="240" height="90" rx="15.2" fill="#F5EBFB" shape-rendering="crispEdges"/>
<path d="M387.521 239.684C388.961 239.684 389.969 238.658 389.969 237.2C389.969 235.76 388.943 234.734 387.503 234.734H384.587V239.684H387.521ZM382.679 246.344V233.06H387.575C390.095 233.06 391.859 234.77 391.859 237.2C391.859 239.63 390.095 241.34 387.575 241.34H384.587V246.344H382.679ZM397.215 244.796C398.547 244.796 399.447 243.734 399.447 242.096C399.447 240.476 398.547 239.396 397.215 239.396C395.883 239.396 394.983 240.458 394.983 242.096C394.983 243.734 395.865 244.796 397.215 244.796ZM393.075 242.096C393.075 239.558 394.785 237.758 397.215 237.758C399.645 237.758 401.355 239.558 401.355 242.096C401.355 244.616 399.645 246.434 397.215 246.434C394.785 246.434 393.075 244.616 393.075 242.096ZM403.205 246.362V237.776H405.113V239.036C405.689 238.226 406.733 237.686 407.741 237.74V239.504C406.211 239.432 405.113 240.782 405.113 242.096V246.362H403.205ZM410.862 246.362V239.414H409.242V237.758H410.862V234.752H412.77V237.758H414.804V239.414H412.77V246.362H410.862ZM419.675 246.362H417.767V239.432H416.255V237.74H417.767V235.94C417.767 234.356 418.865 233.15 420.449 233.042C421.187 232.988 422.105 233.276 422.537 233.708L421.565 235.112C421.169 234.77 420.917 234.698 420.611 234.734C420.053 234.788 419.675 235.256 419.675 235.94V237.74H422.087V239.432H419.675V246.362ZM427.326 244.796C428.658 244.796 429.558 243.734 429.558 242.096C429.558 240.476 428.658 239.396 427.326 239.396C425.994 239.396 425.094 240.458 425.094 242.096C425.094 243.734 425.976 244.796 427.326 244.796ZM423.186 242.096C423.186 239.558 424.896 237.758 427.326 237.758C429.756 237.758 431.466 239.558 431.466 242.096C431.466 244.616 429.756 246.434 427.326 246.434C424.896 246.434 423.186 244.616 423.186 242.096ZM433.263 233.492H435.171V246.344H433.263V233.492ZM437.805 237.758H439.713V246.344H437.805V237.758ZM437.679 234.554C437.679 233.924 438.129 233.474 438.759 233.474C439.389 233.474 439.839 233.924 439.839 234.554C439.839 235.184 439.389 235.634 438.759 235.634C438.129 235.634 437.679 235.184 437.679 234.554ZM446.17 244.796C447.502 244.796 448.402 243.734 448.402 242.096C448.402 240.476 447.502 239.396 446.17 239.396C444.838 239.396 443.938 240.458 443.938 242.096C443.938 243.734 444.82 244.796 446.17 244.796ZM442.03 242.096C442.03 239.558 443.74 237.758 446.17 237.758C448.6 237.758 450.31 239.558 450.31 242.096C450.31 244.616 448.6 246.434 446.17 246.434C443.74 246.434 442.03 244.616 442.03 242.096ZM456.895 233.06H458.803V246.344H456.895V233.06ZM467.417 241.628C467.417 240.26 466.715 239.432 465.527 239.432C464.357 239.45 463.457 240.368 463.475 241.628V246.362H461.567V237.776H463.475V238.946C464.015 238.28 464.933 237.794 465.761 237.794C467.381 237.794 469.325 238.856 469.325 241.556V246.362H467.417V241.628ZM477.331 241.628C477.331 240.26 476.629 239.432 475.441 239.432C474.271 239.45 473.371 240.368 473.389 241.628V246.362H471.481V237.776H473.389V238.946C473.929 238.28 474.847 237.794 475.675 237.794C477.295 237.794 479.239 238.856 479.239 241.556V246.362H477.331V241.628ZM485.316 244.796C486.648 244.796 487.548 243.734 487.548 242.096C487.548 240.476 486.648 239.396 485.316 239.396C483.984 239.396 483.084 240.458 483.084 242.096C483.084 243.734 483.966 244.796 485.316 244.796ZM481.176 242.096C481.176 239.558 482.886 237.758 485.316 237.758C487.746 237.758 489.456 239.558 489.456 242.096C489.456 244.616 487.746 246.434 485.316 246.434C482.886 246.434 481.176 244.616 481.176 242.096ZM499.046 237.776L495.41 246.362H493.754L490.154 237.776H492.242L494.582 243.788L496.94 237.776H499.046ZM503.807 246.434C501.431 246.434 499.739 244.634 499.739 242.114C499.739 239.594 501.431 237.794 503.807 237.794C504.653 237.794 505.589 238.19 506.273 239V237.776H508.181V246.362H506.273V245.21C505.589 246.074 504.653 246.434 503.807 246.434ZM501.647 242.114C501.647 243.734 502.565 244.814 503.933 244.814C505.193 244.814 506.273 243.68 506.291 242.114C506.273 240.548 505.193 239.414 503.933 239.414C502.565 239.414 501.647 240.476 501.647 242.114ZM511.514 246.362V239.414H509.894V237.758H511.514V234.752H513.422V237.758H515.456V239.414H513.422V246.362H511.514ZM517.416 237.758H519.324V246.344H517.416V237.758ZM517.29 234.554C517.29 233.924 517.74 233.474 518.37 233.474C519 233.474 519.45 233.924 519.45 234.554C519.45 235.184 519 235.634 518.37 235.634C517.74 235.634 517.29 235.184 517.29 234.554ZM525.781 244.796C527.113 244.796 528.013 243.734 528.013 242.096C528.013 240.476 527.113 239.396 525.781 239.396C524.449 239.396 523.549 240.458 523.549 242.096C523.549 243.734 524.431 244.796 525.781 244.796ZM521.641 242.096C521.641 239.558 523.351 237.758 525.781 237.758C528.211 237.758 529.921 239.558 529.921 242.096C529.921 244.616 528.211 246.434 525.781 246.434C523.351 246.434 521.641 244.616 521.641 242.096ZM537.712 241.628C537.712 240.26 537.01 239.432 535.822 239.432C534.652 239.45 533.752 240.368 533.77 241.628V246.362H531.862V237.776H533.77V238.946C534.31 238.28 535.228 237.794 536.056 237.794C537.676 237.794 539.62 238.856 539.62 241.556V246.362H537.712V241.628ZM441.039 275.488C437.187 275.488 434.487 272.68 434.487 268.702C434.487 264.706 437.187 261.916 441.039 261.916C442.857 261.916 444.477 262.69 445.665 263.896L444.405 265.138C443.613 264.202 442.353 263.59 441.021 263.59C438.267 263.59 436.413 265.642 436.413 268.702C436.413 271.762 438.267 273.814 441.021 273.814C442.443 273.814 443.577 273.166 444.333 272.302L445.665 273.508C444.477 274.714 442.947 275.506 441.039 275.488ZM451.364 275.398C448.934 275.398 447.224 273.616 447.224 271.096C447.224 268.558 448.934 266.776 451.364 266.776C454.028 266.776 454.874 268.954 454.928 269.098C455.45 270.322 455.288 271.69 455.288 271.834H449.096C449.312 272.986 450.284 273.778 451.364 273.778C452.786 273.778 453.362 272.95 453.506 272.698L455.036 273.382C454.622 274.354 453.416 275.398 451.364 275.398ZM449.096 270.322H453.488C453.308 269.26 452.696 268.396 451.364 268.396C450.212 268.396 449.312 269.206 449.096 270.322ZM463.172 270.628C463.172 269.26 462.47 268.432 461.282 268.432C460.112 268.45 459.212 269.368 459.23 270.628V275.362H457.322V266.776H459.23V267.946C459.77 267.28 460.688 266.794 461.516 266.794C463.136 266.794 465.08 267.856 465.08 270.556V275.362H463.172V270.628ZM468.228 275.362V268.414H466.608V266.758H468.228V263.752H470.136V266.758H472.17V268.414H470.136V275.362H468.228ZM477.661 275.398C475.231 275.398 473.521 273.616 473.521 271.096C473.521 268.558 475.231 266.776 477.661 266.776C480.325 266.776 481.171 268.954 481.225 269.098C481.747 270.322 481.585 271.69 481.585 271.834H475.393C475.609 272.986 476.581 273.778 477.661 273.778C479.083 273.778 479.659 272.95 479.803 272.698L481.333 273.382C480.919 274.354 479.713 275.398 477.661 275.398ZM475.393 270.322H479.785C479.605 269.26 478.993 268.396 477.661 268.396C476.509 268.396 475.609 269.206 475.393 270.322ZM483.529 275.362V266.776H485.437V268.036C486.013 267.226 487.057 266.686 488.065 266.74V268.504C486.535 268.432 485.437 269.782 485.437 271.096V275.362H483.529Z" fill="#6D0CA6"/>
</g>
<g filter="url(#filter3_d_10914_52616)">
<rect x="213" y="358.4" width="240" height="94" rx="15.2" fill="white" shape-rendering="crispEdges"/>
<path d="M254.108 391.336C254.108 391.736 254.092 392.2 254.092 392.36C254.092 395.672 251.836 397.608 248.556 397.656C245.116 397.656 242.684 395.16 242.684 391.624C242.684 388.088 245.116 385.608 248.556 385.608C252.252 385.608 253.548 388.456 253.548 388.456L252.092 389.208C252.092 389.208 251.164 387.096 248.556 387.096C246.06 387.096 244.38 388.92 244.38 391.624C244.38 394.344 246.06 396.168 248.556 396.168C250.7 396.104 252.412 395.064 252.428 392.744H248.748V391.336H254.108ZM255.993 386.104H257.689V397.528H255.993V386.104ZM262.966 396.152C264.15 396.152 264.95 395.208 264.95 393.752C264.95 392.312 264.15 391.352 262.966 391.352C261.782 391.352 260.982 392.296 260.982 393.752C260.982 395.208 261.766 396.152 262.966 396.152ZM259.286 393.752C259.286 391.496 260.806 389.896 262.966 389.896C265.126 389.896 266.646 391.496 266.646 393.752C266.646 395.992 265.126 397.608 262.966 397.608C260.806 397.608 259.286 395.992 259.286 393.752ZM272.291 397.624C271.747 397.624 270.787 397.384 270.083 396.488V397.56H268.387V386.104H270.083V391.048C270.787 390.12 271.747 389.912 272.307 389.912C274.419 389.912 275.939 391.512 275.939 393.768C275.939 396.024 274.419 397.624 272.291 397.624ZM270.083 393.784C270.083 395.144 271.027 396.2 272.195 396.2C273.427 396.2 274.243 395.24 274.243 393.784C274.243 392.328 273.427 391.384 272.195 391.384C271.027 391.384 270.083 392.456 270.083 393.784ZM281.043 397.608C278.931 397.608 277.427 396.008 277.427 393.768C277.427 391.528 278.931 389.928 281.043 389.928C281.795 389.928 282.627 390.28 283.235 391V389.912H284.931V397.544H283.235V396.52C282.627 397.288 281.795 397.608 281.043 397.608ZM279.123 393.768C279.123 395.208 279.939 396.168 281.155 396.168C282.275 396.168 283.235 395.16 283.251 393.768C283.235 392.376 282.275 391.368 281.155 391.368C279.939 391.368 279.123 392.312 279.123 393.768ZM286.993 386.104H288.689V397.528H286.993V386.104ZM294.718 385.72H296.414V397.528H294.718V385.72ZM304.071 393.336C304.071 392.12 303.447 391.384 302.391 391.384C301.351 391.4 300.551 392.216 300.567 393.336V397.544H298.871V389.912H300.567V390.952C301.047 390.36 301.863 389.928 302.599 389.928C304.039 389.928 305.767 390.872 305.767 393.272V397.544H304.071V393.336ZM315.077 389.912L311.845 397.544H310.373L307.173 389.912H309.029L311.109 395.256L313.205 389.912H315.077ZM319.372 397.576C317.212 397.576 315.692 395.992 315.692 393.752C315.692 391.496 317.212 389.912 319.372 389.912C321.74 389.912 322.492 391.848 322.54 391.976C323.004 393.064 322.86 394.28 322.86 394.408H317.356C317.548 395.432 318.412 396.136 319.372 396.136C320.636 396.136 321.148 395.4 321.276 395.176L322.636 395.784C322.268 396.648 321.196 397.576 319.372 397.576ZM317.356 393.064H321.26C321.1 392.12 320.556 391.352 319.372 391.352C318.348 391.352 317.548 392.072 317.356 393.064ZM325.724 394.92C326.06 395.752 326.892 396.136 327.404 396.136C328.204 396.136 328.716 395.832 328.716 395.304C328.716 394.824 328.012 394.6 327.228 394.328C326.188 393.96 324.716 393.464 324.716 391.992C324.716 390.648 325.948 389.832 327.516 389.832C328.46 389.832 329.868 390.376 330.252 391.752L328.828 392.264C328.572 391.416 327.884 391.288 327.516 391.288C326.844 391.288 326.412 391.56 326.412 391.992C326.412 392.472 327.068 392.664 327.884 392.952C328.972 393.336 330.412 393.832 330.412 395.288C330.412 396.68 329.18 397.592 327.404 397.592C326.236 397.592 324.956 396.856 324.396 395.688L325.724 394.92ZM333.066 397.544V391.368H331.626V389.896H333.066V387.224H334.762V389.896H336.57V391.368H334.762V397.544H333.066ZM347.864 393.208C347.864 392.12 347.272 391.4 346.408 391.4C345.432 391.4 344.776 392.152 344.776 393.128V397.544H343.064V393.208C343.064 392.12 342.488 391.4 341.64 391.4C340.664 391.4 339.976 392.232 339.976 393.304V397.544H338.28V389.912H339.976V390.952C340.424 390.344 341.08 389.928 341.8 389.928C342.712 389.928 343.608 390.504 344.056 391.304C344.584 390.504 345.608 389.928 346.52 389.928C348.328 389.928 349.576 391.272 349.576 393.144V397.544H347.864V393.208ZM355.122 397.576C352.962 397.576 351.442 395.992 351.442 393.752C351.442 391.496 352.962 389.912 355.122 389.912C357.49 389.912 358.242 391.848 358.29 391.976C358.754 393.064 358.61 394.28 358.61 394.408H353.106C353.298 395.432 354.162 396.136 355.122 396.136C356.386 396.136 356.898 395.4 357.026 395.176L358.386 395.784C358.018 396.648 356.946 397.576 355.122 397.576ZM353.106 393.064H357.01C356.85 392.12 356.306 391.352 355.122 391.352C354.098 391.352 353.298 392.072 353.106 393.064ZM365.618 393.336C365.618 392.12 364.994 391.384 363.938 391.384C362.898 391.4 362.098 392.216 362.114 393.336V397.544H360.418V389.912H362.114V390.952C362.594 390.36 363.41 389.928 364.146 389.928C365.586 389.928 367.314 390.872 367.314 393.272V397.544H365.618V393.336ZM370.112 397.544V391.368H368.672V389.896H370.112V387.224H371.808V389.896H373.616V391.368H371.808V397.544H370.112ZM390.842 391.336C390.842 391.736 390.826 392.2 390.826 392.36C390.826 395.672 388.57 397.608 385.29 397.656C381.85 397.656 379.418 395.16 379.418 391.624C379.418 388.088 381.85 385.608 385.29 385.608C388.986 385.608 390.282 388.456 390.282 388.456L388.826 389.208C388.826 389.208 387.898 387.096 385.29 387.096C382.794 387.096 381.114 388.92 381.114 391.624C381.114 394.344 382.794 396.168 385.29 396.168C387.434 396.104 389.146 395.064 389.162 392.744H385.482V391.336H390.842ZM392.776 397.544V389.912H394.472V391.032C394.984 390.312 395.911 389.832 396.808 389.88V391.448C395.448 391.384 394.472 392.584 394.472 393.752V397.544H392.776ZM401.357 396.152C402.541 396.152 403.341 395.208 403.341 393.752C403.341 392.312 402.541 391.352 401.357 391.352C400.173 391.352 399.373 392.296 399.373 393.752C399.373 395.208 400.157 396.152 401.357 396.152ZM397.677 393.752C397.677 391.496 399.197 389.896 401.357 389.896C403.517 389.896 405.036 391.496 405.036 393.752C405.036 395.992 403.517 397.608 401.357 397.608C399.197 397.608 397.677 395.992 397.677 393.752ZM408.63 394.264C408.63 395.432 409.318 396.152 410.326 396.152C411.398 396.152 412.134 395.448 412.118 394.28V389.912H413.83V397.544H412.118V396.664C411.638 397.256 410.854 397.608 410.102 397.608C408.262 397.608 406.934 396.28 406.934 394.328V389.912H408.63V394.264ZM419.916 396.152C421.148 396.152 421.948 395.192 421.948 393.736C421.948 392.28 421.148 391.32 419.916 391.32C418.764 391.32 417.82 392.392 417.82 393.736C417.82 395.08 418.764 396.152 419.916 396.152ZM416.108 400.92V389.896H417.804V391.016C418.412 390.216 419.42 389.896 420.012 389.896C422.14 389.896 423.644 391.48 423.644 393.736C423.644 396.008 422.14 397.592 420.012 397.592C419.404 397.592 418.412 397.256 417.804 396.456V400.92H416.108Z" fill="#6D0CA6"/>
<path d="M298.196 413.8L293.556 418.968L298.292 425.448H296.628L292.644 420.008L291.22 421.576V425.448H289.876V413.816H291.22V419.576L296.388 413.8H298.196ZM302.714 424.36C304.042 424.36 304.954 423.304 304.954 421.768C304.954 420.232 304.042 419.16 302.714 419.16C301.402 419.16 300.49 420.216 300.49 421.768C300.49 423.32 301.386 424.36 302.714 424.36ZM299.162 421.768C299.162 419.56 300.634 417.976 302.714 417.976C304.81 417.976 306.298 419.56 306.298 421.768C306.298 423.96 304.81 425.544 302.714 425.544C300.634 425.544 299.162 423.96 299.162 421.768ZM308.011 425.448V417.992H309.339V419.224C309.835 418.424 310.843 417.88 311.835 417.928V419.208C310.475 419.16 309.339 420.344 309.339 421.656V425.448H308.011ZM316.339 425.512C314.243 425.512 312.771 423.944 312.771 421.752C312.771 419.544 314.243 417.992 316.339 417.992C318.643 417.992 319.347 419.848 319.411 420.024C319.859 421.176 319.715 422.28 319.715 422.328H314.115C314.307 423.512 315.235 424.344 316.339 424.344C317.811 424.344 318.355 423.416 318.467 423.24L319.523 423.784C319.155 424.616 318.099 425.512 316.339 425.512ZM314.115 421.192L318.419 421.176C318.275 420.04 317.715 419.16 316.339 419.16C315.203 419.16 314.307 419.992 314.115 421.192ZM324.823 425.544C322.759 425.544 321.287 423.976 321.287 421.784C321.287 419.576 322.759 418.008 324.823 418.008C325.623 418.008 326.503 418.408 327.143 419.272V417.992H328.471V425.448H327.143V424.248C326.487 425.192 325.623 425.544 324.823 425.544ZM322.615 421.784C322.615 423.304 323.543 424.376 324.871 424.376C326.071 424.376 327.143 423.288 327.159 421.784C327.143 420.28 326.071 419.176 324.871 419.176C323.543 419.176 322.615 420.232 322.615 421.784ZM332.295 424.104L331.351 427.304H330.359L330.887 424.104H332.295ZM340.291 422.312C340.899 423.528 341.923 424.392 343.123 424.392C344.691 424.424 345.667 423.624 345.667 422.376C345.667 419.4 339.683 420.648 339.683 416.6C339.683 414.728 341.251 413.656 343.331 413.672C344.931 413.704 346.227 414.552 346.787 416.248L345.587 416.664C345.235 415.528 344.371 414.872 343.315 414.856C341.971 414.84 341.011 415.48 341.011 416.6C341.011 419.544 346.995 418.344 346.995 422.392C346.995 424.312 345.491 425.608 343.107 425.576C341.411 425.544 340.115 424.6 339.155 422.92L340.291 422.312ZM352.449 425.512C350.353 425.512 348.881 423.944 348.881 421.752C348.881 419.544 350.353 417.992 352.449 417.992C354.753 417.992 355.457 419.848 355.521 420.024C355.969 421.176 355.825 422.28 355.825 422.328H350.225C350.417 423.512 351.345 424.344 352.449 424.344C353.921 424.344 354.465 423.416 354.577 423.24L355.633 423.784C355.265 424.616 354.209 425.512 352.449 425.512ZM350.225 421.192L354.529 421.176C354.385 420.04 353.825 419.16 352.449 419.16C351.313 419.16 350.417 419.992 350.225 421.192ZM360.948 424.36C362.276 424.36 363.188 423.304 363.188 421.768C363.188 420.232 362.276 419.16 360.948 419.16C359.636 419.16 358.724 420.216 358.724 421.768C358.724 423.32 359.62 424.36 360.948 424.36ZM357.396 421.768C357.396 419.56 358.868 417.976 360.948 417.976C363.044 417.976 364.532 419.56 364.532 421.768C364.532 423.96 363.044 425.544 360.948 425.544C358.868 425.544 357.396 423.96 357.396 421.768ZM367.826 422.328C367.826 423.512 368.546 424.376 369.586 424.376C370.77 424.376 371.586 423.624 371.586 422.44V417.992H372.93V425.448H371.586V424.504C371.09 425.144 370.258 425.56 369.506 425.56C367.746 425.56 366.482 424.232 366.482 422.44V417.992H367.826V422.328ZM375.072 414.152H376.4V425.448H375.072V414.152Z" fill="#71717A"/>
</g>
<g filter="url(#filter4_d_10914_52616)">
<rect x="469" y="358.4" width="240" height="94" rx="15.2" fill="white" shape-rendering="crispEdges"/>
<path d="M554.272 385.72V397.528H552.56V392.2H546.992V397.528H545.296V385.72H546.992V390.728H552.56V385.72H554.272ZM556.859 389.896H558.555V397.528H556.859V389.896ZM556.747 387.048C556.747 386.488 557.147 386.088 557.707 386.088C558.267 386.088 558.667 386.488 558.667 387.048C558.667 387.608 558.267 388.008 557.707 388.008C557.147 388.008 556.747 387.608 556.747 387.048ZM564.086 395.976C564.678 395.976 565.366 395.672 565.798 395.192L566.966 396.36C566.31 397.08 565.11 397.592 564.15 397.592C561.878 397.592 560.278 395.992 560.278 393.752C560.278 391.496 561.878 389.896 564.15 389.896C565.158 389.896 566.278 390.408 566.966 391.144L565.798 392.296C565.366 391.816 564.678 391.512 564.086 391.512C562.822 391.512 561.974 392.392 561.974 393.752C561.974 395.096 562.822 395.976 564.086 395.976ZM571.653 396.152C572.837 396.152 573.637 395.208 573.637 393.752C573.637 392.312 572.837 391.352 571.653 391.352C570.469 391.352 569.669 392.296 569.669 393.752C569.669 395.208 570.453 396.152 571.653 396.152ZM567.973 393.752C567.973 391.496 569.493 389.896 571.653 389.896C573.813 389.896 575.333 391.496 575.333 393.752C575.333 395.992 573.813 397.608 571.653 397.608C569.493 397.608 567.973 395.992 567.973 393.752ZM586.851 397.656C583.427 397.656 581.027 395.16 581.027 391.624C581.027 388.072 583.427 385.592 586.851 385.592C588.467 385.592 589.907 386.28 590.963 387.352L589.843 388.456C589.139 387.624 588.019 387.08 586.835 387.08C584.387 387.08 582.739 388.904 582.739 391.624C582.739 394.344 584.387 396.168 586.835 396.168C588.099 396.168 589.107 395.592 589.779 394.824L590.963 395.896C589.907 396.968 588.547 397.672 586.851 397.656ZM595.964 397.608C593.852 397.608 592.348 396.008 592.348 393.768C592.348 391.528 593.852 389.928 595.964 389.928C596.716 389.928 597.548 390.28 598.156 391V389.912H599.852V397.544H598.156V396.52C597.548 397.288 596.716 397.608 595.964 397.608ZM594.044 393.768C594.044 395.208 594.86 396.168 596.076 396.168C597.196 396.168 598.156 395.16 598.172 393.768C598.156 392.376 597.196 391.368 596.076 391.368C594.86 391.368 594.044 392.312 594.044 393.768ZM605.838 396.152C607.07 396.152 607.87 395.192 607.87 393.736C607.87 392.28 607.07 391.32 605.838 391.32C604.686 391.32 603.742 392.392 603.742 393.736C603.742 395.08 604.686 396.152 605.838 396.152ZM602.03 400.92V389.896H603.726V391.016C604.334 390.216 605.342 389.896 605.934 389.896C608.062 389.896 609.566 391.48 609.566 393.736C609.566 396.008 608.062 397.592 605.934 397.592C605.326 397.592 604.334 397.256 603.726 396.456V400.92H602.03ZM611.405 389.896H613.101V397.528H611.405V389.896ZM611.293 387.048C611.293 386.488 611.693 386.088 612.253 386.088C612.813 386.088 613.213 386.488 613.213 387.048C613.213 387.608 612.813 388.008 612.253 388.008C611.693 388.008 611.293 387.608 611.293 387.048ZM616.425 397.544V391.368H614.985V389.896H616.425V387.224H618.121V389.896H619.929V391.368H618.121V397.544H616.425ZM624.746 397.608C622.634 397.608 621.13 396.008 621.13 393.768C621.13 391.528 622.634 389.928 624.746 389.928C625.498 389.928 626.33 390.28 626.938 391V389.912H628.634V397.544H626.938V396.52C626.33 397.288 625.498 397.608 624.746 397.608ZM622.826 393.768C622.826 395.208 623.642 396.168 624.858 396.168C625.978 396.168 626.938 395.16 626.954 393.768C626.938 392.376 625.978 391.368 624.858 391.368C623.642 391.368 622.826 392.312 622.826 393.768ZM630.696 386.104H632.392V397.528H630.696V386.104Z" fill="#6D0CA6"/>
<path d="M533.588 425.56C530.836 425.56 529.236 423.624 529.236 420.888V413.8H530.58V420.904C530.58 422.936 531.62 424.344 533.588 424.344C535.556 424.344 536.612 422.936 536.612 420.904V413.8H537.956V420.888C537.956 423.624 536.34 425.56 533.588 425.56ZM541.197 422.312C541.805 423.528 542.829 424.392 544.029 424.392C545.597 424.424 546.573 423.624 546.573 422.376C546.573 419.4 540.589 420.648 540.589 416.6C540.589 414.728 542.157 413.656 544.237 413.672C545.837 413.704 547.133 414.552 547.693 416.248L546.493 416.664C546.141 415.528 545.277 414.872 544.221 414.856C542.877 414.84 541.917 415.48 541.917 416.6C541.917 419.544 547.901 418.344 547.901 422.392C547.901 424.312 546.397 425.608 544.013 425.576C542.317 425.544 541.021 424.6 540.061 422.92L541.197 422.312ZM551.623 424.104L550.679 427.304H549.687L550.215 424.104H551.623ZM559.619 422.312C560.227 423.528 561.251 424.392 562.451 424.392C564.019 424.424 564.995 423.624 564.995 422.376C564.995 419.4 559.011 420.648 559.011 416.6C559.011 414.728 560.579 413.656 562.659 413.672C564.259 413.704 565.555 414.552 566.115 416.248L564.915 416.664C564.563 415.528 563.699 414.872 562.643 414.856C561.299 414.84 560.339 415.48 560.339 416.6C560.339 419.544 566.323 418.344 566.323 422.392C566.323 424.312 564.819 425.608 562.435 425.576C560.739 425.544 559.443 424.6 558.483 422.92L559.619 422.312ZM568.749 417.976H570.077V425.448H568.749V417.976ZM568.605 415.08C568.605 414.616 568.941 414.28 569.421 414.28C569.885 414.28 570.221 414.616 570.221 415.08C570.221 415.56 569.885 415.896 569.421 415.896C568.941 415.896 568.605 415.56 568.605 415.08ZM572.354 414.152H573.682V425.448H572.354V414.152ZM576.062 417.976H577.39V425.448H576.062V417.976ZM575.918 415.08C575.918 414.616 576.254 414.28 576.734 414.28C577.198 414.28 577.534 414.616 577.534 415.08C577.534 415.56 577.198 415.896 576.734 415.896C576.254 415.896 575.918 415.56 575.918 415.08ZM582.882 424.248C583.538 424.248 584.306 423.928 584.738 423.432L585.698 424.328C585.042 425.032 583.874 425.528 582.946 425.528C580.722 425.528 579.154 423.944 579.154 421.752C579.154 419.544 580.722 417.976 582.946 417.976C583.89 417.976 585.026 418.488 585.698 419.192L584.738 420.072C584.306 419.576 583.538 419.256 582.882 419.256C581.474 419.256 580.482 420.264 580.482 421.752C580.482 423.24 581.474 424.248 582.882 424.248ZM590.355 424.36C591.683 424.36 592.595 423.304 592.595 421.768C592.595 420.232 591.683 419.16 590.355 419.16C589.043 419.16 588.131 420.216 588.131 421.768C588.131 423.32 589.027 424.36 590.355 424.36ZM586.803 421.768C586.803 419.56 588.275 417.976 590.355 417.976C592.451 417.976 593.939 419.56 593.939 421.768C593.939 423.96 592.451 425.544 590.355 425.544C588.275 425.544 586.803 423.96 586.803 421.768ZM600.836 421.16C600.836 419.96 600.132 419.176 599.076 419.176C597.892 419.176 597.06 420.088 597.06 421.16V425.448H595.732V417.992H597.06V419.08C597.572 418.44 598.404 417.992 599.14 417.992C600.772 417.992 602.164 419.112 602.164 421.064V425.448H600.836V421.16ZM618.026 413.8L613.866 425.448H612.378L607.994 413.8H609.418L613.114 423.592L616.602 413.8H618.026ZM621.964 425.544C619.9 425.544 618.428 423.976 618.428 421.784C618.428 419.576 619.9 418.008 621.964 418.008C622.764 418.008 623.644 418.408 624.284 419.272V417.992H625.612V425.448H624.284V424.248C623.628 425.192 622.764 425.544 621.964 425.544ZM619.756 421.784C619.756 423.304 620.684 424.376 622.012 424.376C623.212 424.376 624.284 423.288 624.3 421.784C624.284 420.28 623.212 419.176 622.012 419.176C620.684 419.176 619.756 420.232 619.756 421.784ZM627.776 414.152H629.104V425.448H627.776V414.152ZM631.276 414.152H632.604V425.448H631.276V414.152ZM637.855 425.512C635.759 425.512 634.287 423.944 634.287 421.752C634.287 419.544 635.759 417.992 637.855 417.992C640.159 417.992 640.863 419.848 640.927 420.024C641.375 421.176 641.231 422.28 641.231 422.328H635.631C635.823 423.512 636.751 424.344 637.855 424.344C639.327 424.344 639.871 423.416 639.983 423.24L641.039 423.784C640.671 424.616 639.615 425.512 637.855 425.512ZM635.631 421.192L639.935 421.176C639.791 420.04 639.231 419.16 637.855 419.16C636.719 419.16 635.823 419.992 635.631 421.192ZM644.978 428.84H643.522L645.09 425.016L642.082 417.992H643.538L645.794 423.432L647.954 417.992H649.394L644.978 428.84Z" fill="#71717A"/>
</g>
<defs>
<filter id="filter0_d_10914_52616" x="174.8" y="21.8" width="316.4" height="162.4" filterUnits="userSpaceOnUse" color-interpolation-filters="sRGB">
<feFlood flood-opacity="0" result="BackgroundImageFix"/>
<feColorMatrix in="SourceAlpha" type="matrix" values="0 0 0 0 0 0 0 0 0 0 0 0 0 0 0 0 0 0 127 0" result="hardAlpha"/>
<feOffset/>
<feGaussianBlur stdDeviation="17.1"/>
<feComposite in2="hardAlpha" operator="out"/>
<feColorMatrix type="matrix" values="0 0 0 0 0.592485 0 0 0 0 0.207569 0 0 0 0 0.816667 0 0 0 0.5 0"/>
<feBlend mode="normal" in2="BackgroundImageFix" result="effect1_dropShadow_10914_52616"/>
<feBlend mode="normal" in="SourceGraphic" in2="effect1_dropShadow_10914_52616" result="shape"/>
</filter>
<filter id="filter1_d_10914_52616" x="79.6575" y="205.193" width="250.685" height="100.685" filterUnits="userSpaceOnUse" color-interpolation-filters="sRGB">
<feFlood flood-opacity="0" result="BackgroundImageFix"/>
<feColorMatrix in="SourceAlpha" type="matrix" values="0 0 0 0 0 0 0 0 0 0 0 0 0 0 0 0 0 0 127 0" result="hardAlpha"/>
<feOffset dy="1.33562"/>
<feGaussianBlur stdDeviation="2.67123"/>
<feComposite in2="hardAlpha" operator="out"/>
<feColorMatrix type="matrix" values="0 0 0 0 0 0 0 0 0 0 0 0 0 0 0 0 0 0 0.1 0"/>
<feBlend mode="normal" in2="BackgroundImageFix" result="effect1_dropShadow_10914_52616"/>
<feBlend mode="normal" in="SourceGraphic" in2="effect1_dropShadow_10914_52616" result="shape"/>
</filter>
<filter id="filter2_d_10914_52616" x="335.658" y="205.193" width="250.685" height="100.685" filterUnits="userSpaceOnUse" color-interpolation-filters="sRGB">
<feFlood flood-opacity="0" result="BackgroundImageFix"/>
<feColorMatrix in="SourceAlpha" type="matrix" values="0 0 0 0 0 0 0 0 0 0 0 0 0 0 0 0 0 0 127 0" result="hardAlpha"/>
<feOffset dy="1.33562"/>
<feGaussianBlur stdDeviation="2.67123"/>
<feComposite in2="hardAlpha" operator="out"/>
<feColorMatrix type="matrix" values="0 0 0 0 0 0 0 0 0 0 0 0 0 0 0 0 0 0 0.1 0"/>
<feBlend mode="normal" in2="BackgroundImageFix" result="effect1_dropShadow_10914_52616"/>
<feBlend mode="normal" in="SourceGraphic" in2="effect1_dropShadow_10914_52616" result="shape"/>
</filter>
<filter id="filter3_d_10914_52616" x="207.658" y="354.393" width="250.685" height="104.685" filterUnits="userSpaceOnUse" color-interpolation-filters="sRGB">
<feFlood flood-opacity="0" result="BackgroundImageFix"/>
<feColorMatrix in="SourceAlpha" type="matrix" values="0 0 0 0 0 0 0 0 0 0 0 0 0 0 0 0 0 0 127 0" result="hardAlpha"/>
<feOffset dy="1.33562"/>
<feGaussianBlur stdDeviation="2.67123"/>
<feComposite in2="hardAlpha" operator="out"/>
<feColorMatrix type="matrix" values="0 0 0 0 0 0 0 0 0 0 0 0 0 0 0 0 0 0 0.1 0"/>
<feBlend mode="normal" in2="BackgroundImageFix" result="effect1_dropShadow_10914_52616"/>
<feBlend mode="normal" in="SourceGraphic" in2="effect1_dropShadow_10914_52616" result="shape"/>
</filter>
<filter id="filter4_d_10914_52616" x="463.658" y="354.393" width="250.685" height="104.685" filterUnits="userSpaceOnUse" color-interpolation-filters="sRGB">
<feFlood flood-opacity="0" result="BackgroundImageFix"/>
<feColorMatrix in="SourceAlpha" type="matrix" values="0 0 0 0 0 0 0 0 0 0 0 0 0 0 0 0 0 0 127 0" result="hardAlpha"/>
<feOffset dy="1.33562"/>
<feGaussianBlur stdDeviation="2.67123"/>
<feComposite in2="hardAlpha" operator="out"/>
<feColorMatrix type="matrix" values="0 0 0 0 0 0 0 0 0 0 0 0 0 0 0 0 0 0 0.1 0"/>
<feBlend mode="normal" in2="BackgroundImageFix" result="effect1_dropShadow_10914_52616"/>
<feBlend mode="normal" in="SourceGraphic" in2="effect1_dropShadow_10914_52616" result="shape"/>
</filter>
</defs>
</svg>
