<svg width="793" height="504" viewBox="0 0 793 504" fill="none" xmlns="http://www.w3.org/2000/svg">
<circle opacity="0.04" cx="100" cy="100" r="100" fill="#9735D0"/>
<path d="M68.4695 105.2C71.3895 102.4 75.3695 99.56 75.3695 97.1C75.3695 95.46 74.3295 94.3 72.8495 94.3C71.7095 94.3 70.5695 95.12 70.0495 96.3L68.1895 95.48C68.9895 93.64 70.9295 92.36 72.8495 92.36C75.5895 92.36 77.4895 94.32 77.4895 97.1C77.4895 100.16 74.1695 102.88 71.4695 105.2H77.7295V107.06H68.6695L68.4695 105.2ZM85.1529 105.32C87.1529 105.32 88.4929 103.08 88.4929 99.78C88.4929 96.46 87.1529 94.22 85.1529 94.22C83.1529 94.22 81.7929 96.46 81.7929 99.78C81.7929 103.08 83.1529 105.32 85.1529 105.32ZM79.6729 99.78C79.6729 95.42 81.9329 92.36 85.1529 92.36C88.3529 92.36 90.6129 95.42 90.6129 99.78C90.6129 104.12 88.3529 107.2 85.1529 107.2C81.9329 107.2 79.6729 104.12 79.6729 99.78ZM97.984 92.52V107.06L95.864 107.04V94.78L93.304 96.2L92.424 94.42L95.884 92.52H97.984ZM105.883 105.48C107.543 105.48 108.703 104.42 108.703 102.9C108.703 101.38 107.543 100.3 105.883 100.3C104.223 100.3 103.043 101.38 103.043 102.9C103.043 104.42 104.223 105.48 105.883 105.48ZM100.923 102.94C100.923 101.66 101.923 100.18 103.323 99.4C102.163 98.6 101.323 97.3 101.323 96.26C101.323 93.9 103.203 92.26 105.883 92.26C108.563 92.26 110.443 93.9 110.443 96.26C110.443 97.32 109.623 98.62 108.443 99.4C109.843 100.2 110.843 101.66 110.843 102.94C110.843 105.5 108.803 107.3 105.883 107.3C102.983 107.3 100.923 105.5 100.923 102.94ZM103.463 96.26C103.463 97.56 104.463 98.48 105.883 98.48C107.323 98.48 108.323 97.56 108.323 96.26C108.323 94.96 107.323 94.06 105.883 94.06C104.463 94.06 103.463 94.96 103.463 96.26ZM114.138 104.98C114.858 104.98 115.358 105.5 115.358 106.22C115.358 106.96 114.858 107.48 114.138 107.48C113.398 107.48 112.878 106.96 112.878 106.22C112.878 105.5 113.398 104.98 114.138 104.98ZM130.714 99.54C132.014 100.3 132.834 101.72 132.834 102.94C132.834 105.42 130.794 107.18 127.894 107.18C125.014 107.18 122.974 105.38 122.974 102.82H125.094C125.094 104.28 126.254 105.3 127.894 105.3C129.574 105.3 130.774 104.28 130.774 102.82C130.774 101.42 129.594 100.42 127.934 100.42H126.894V98.64H127.954C129.474 98.64 130.554 97.74 130.554 96.46C130.554 95.16 129.514 94.26 128.034 94.26C126.554 94.26 125.534 95.18 125.534 96.48H123.414C123.414 94.06 125.314 92.38 128.034 92.38C130.714 92.38 132.614 94.02 132.614 96.34C132.614 97.46 131.894 98.78 130.714 99.54Z" fill="#6D0CA6"/>
<path d="M241.044 80.648H244.356V78.866H246.336V80.648H249.63V82.214H246.318V82.394C246.318 84.158 247.614 85.886 250.08 86.606L249.198 88.154C247.398 87.632 246.12 86.552 245.4 85.202C244.698 86.75 243.384 87.974 241.512 88.55L240.558 87.02C243.06 86.246 244.356 84.338 244.356 82.394V82.214H241.044V80.648ZM242.43 93.356C245.598 92.87 247.632 91.016 247.632 89.216V88.928H249.648V89.216C249.648 91.088 251.61 92.87 254.832 93.356L254.076 94.904C251.52 94.49 249.576 93.284 248.622 91.646C247.668 93.266 245.724 94.508 243.186 94.904L242.43 93.356ZM249.198 84.878V83.276H251.952V78.938H253.932V89.9H251.952V84.878H249.198ZM260.475 88.514H274.983V90.134H268.719V94.976H266.721V90.134H260.475V88.514ZM262.347 87.182V79.622H273.255V81.188H264.291V82.592H272.913V84.122H264.291V85.598H273.435V87.182H262.347ZM276.495 80.504H285.243V82.142H281.913V83.474C281.913 85.94 283.389 88.784 285.891 89.954L284.793 91.52C282.993 90.656 281.679 88.946 280.959 86.966C280.239 89.144 278.871 91.016 277.035 91.916L275.901 90.35C278.403 89.144 279.951 86.138 279.951 83.474V82.142H276.495V80.504ZM286.683 94.958V78.938H288.681V85.184H291.111V86.822H288.681V94.958H286.683ZM293.218 87.002C293.218 84.662 294.136 81.584 295.432 79.532H297.448C295.972 81.566 294.946 84.644 294.946 87.002C294.946 89.36 295.972 92.438 297.448 94.472H295.432C294.136 92.42 293.218 89.342 293.218 87.002ZM310.179 80.36L304.923 86.264L310.287 93.644H307.911L303.609 87.74L301.971 89.54V93.644H300.063V80.378H301.971V86.696L307.623 80.36H310.179ZM313.904 89.972C313.904 91.286 314.678 92.096 315.812 92.096C317.018 92.096 317.846 91.304 317.828 89.99V85.076H319.754V93.662H317.828V92.672C317.288 93.338 316.406 93.734 315.56 93.734C313.49 93.734 311.996 92.24 311.996 90.044V85.076H313.904V89.972ZM322.119 93.662V85.076H324.027V86.336C324.603 85.526 325.647 84.986 326.655 85.04V86.804C325.125 86.732 324.027 88.082 324.027 89.396V93.662H322.119ZM328.551 80.792H330.459V93.644H328.551V80.792ZM335.995 97.388H333.907L335.779 92.942L332.323 85.076H334.429L336.787 90.764L339.055 85.076H341.125L337.921 92.798L335.995 97.388ZM347.767 83.15L347.749 85.688L350.143 84.932L350.647 86.534L348.289 87.272L349.837 89.378L348.505 90.422L346.921 88.28L345.337 90.422L344.041 89.36L345.571 87.272L343.195 86.534L343.717 84.932L346.075 85.688L346.057 83.15H347.767ZM357.249 87.002C357.249 89.342 356.349 92.402 355.053 94.472H353.037C354.495 92.456 355.521 89.36 355.521 87.002C355.521 84.644 354.495 81.548 353.037 79.532H355.053C356.349 81.602 357.249 84.662 357.249 87.002ZM364.535 79.874H373.265V81.422H369.917C369.935 83.294 371.321 85.13 373.805 85.868L372.833 87.398C370.997 86.858 369.683 85.688 368.945 84.212C368.243 85.814 366.893 87.074 364.985 87.668L363.995 86.12C366.551 85.364 367.883 83.42 367.901 81.422H364.535V79.874ZM366.605 94.76V88.334H368.549V89.972H375.173V88.334H377.117V94.76H366.605ZM368.549 93.158H375.173V91.502H368.549V93.158ZM375.137 87.614V78.938H377.117V87.614H375.137ZM391.337 78.938H393.209V89H391.337V84.644H389.825V88.46H387.971V79.244H389.825V83.042H391.337V78.938ZM379.529 82.232V80.666H382.535V79.082H384.479V80.666H387.449V82.232H379.529ZM380.087 85.616C380.087 83.96 381.509 82.844 383.507 82.844C385.523 82.844 386.945 83.96 386.945 85.616C386.945 87.29 385.523 88.388 383.507 88.388C381.509 88.388 380.087 87.29 380.087 85.616ZM381.833 85.616C381.833 86.462 382.517 86.984 383.507 86.984C384.497 86.984 385.199 86.462 385.199 85.616C385.199 84.77 384.497 84.284 383.507 84.284C382.517 84.284 381.833 84.77 381.833 85.616ZM382.409 92.078C382.409 90.242 384.443 89.216 387.845 89.216C391.265 89.216 393.299 90.242 393.299 92.078C393.299 93.896 391.265 94.94 387.845 94.94C384.443 94.94 382.409 93.896 382.409 92.078ZM384.371 92.078C384.371 92.996 385.595 93.446 387.845 93.446C390.113 93.446 391.319 92.996 391.319 92.078C391.319 91.142 390.113 90.692 387.845 90.692C385.595 90.692 384.371 91.142 384.371 92.078Z" fill="#15151A"/>
<path d="M244.326 113.492V115.578L246.286 114.962L246.622 115.998L244.676 116.614L245.922 118.336L245.054 119.022L243.78 117.272L242.52 119.022L241.666 118.336L242.912 116.614L240.952 115.998L241.288 114.962L243.234 115.578V113.492H244.326ZM251.991 111.35H253.167V121.542H251.991V111.35ZM259.115 116.418C260.319 116.418 261.159 115.592 261.159 114.388C261.159 113.184 260.319 112.386 259.115 112.386H256.749V116.418H259.115ZM255.573 121.542V111.35H259.157C261.019 111.35 262.321 112.61 262.321 114.402C262.335 115.788 261.425 116.964 259.941 117.342L262.797 121.542H261.397L258.611 117.454H256.749V121.542H255.573ZM268.576 116.418C269.78 116.418 270.62 115.592 270.62 114.388C270.62 113.184 269.78 112.386 268.576 112.386H266.21V116.418H268.576ZM265.034 121.542V111.35H268.618C270.48 111.35 271.782 112.61 271.782 114.402C271.796 115.788 270.886 116.964 269.402 117.342L272.258 121.542H270.858L268.072 117.454H266.21V121.542H265.034ZM278.684 113.366C279.09 113.366 279.37 113.66 279.37 114.052C279.37 114.458 279.09 114.752 278.684 114.752C278.278 114.752 277.984 114.458 277.984 114.052C277.984 113.66 278.278 113.366 278.684 113.366ZM277.984 118.77C277.984 118.364 278.278 118.084 278.684 118.084C279.09 118.084 279.37 118.364 279.37 118.77C279.37 119.176 279.09 119.47 278.684 119.47C278.278 119.47 277.984 119.176 277.984 118.77ZM288.03 120.59C289.36 120.59 290.284 119.638 290.284 118.28C290.284 116.908 289.36 115.956 288.03 115.956C286.742 115.956 285.818 116.908 285.818 118.28C285.818 119.638 286.742 120.59 288.03 120.59ZM284.656 118.28C284.656 117.552 284.894 116.908 285.188 116.376L288.03 111.364H289.374L287.288 115.004C287.54 114.962 287.792 114.92 288.058 114.92C290.06 114.92 291.446 116.306 291.446 118.28C291.446 120.24 290.046 121.626 288.058 121.626C286.056 121.626 284.656 120.24 284.656 118.28ZM296.609 120.576C298.079 120.576 299.101 118.882 299.101 116.446C299.101 114.01 298.079 112.316 296.609 112.316C295.125 112.316 294.089 114.01 294.089 116.446C294.089 118.882 295.125 120.576 296.609 120.576ZM292.927 116.446C292.927 113.422 294.439 111.294 296.609 111.294C298.751 111.294 300.263 113.422 300.263 116.446C300.263 119.47 298.751 121.612 296.609 121.612C294.439 121.612 292.927 119.47 292.927 116.446ZM304.63 121.514L310.986 111.35H312.26L305.876 121.514H304.63ZM302.306 113.954C302.306 112.4 303.482 111.182 304.994 111.182C306.492 111.182 307.668 112.4 307.668 113.954C307.668 115.494 306.492 116.712 304.994 116.712C303.482 116.712 302.306 115.494 302.306 113.954ZM303.454 113.954C303.454 114.85 304.126 115.578 304.994 115.578C305.862 115.578 306.534 114.85 306.534 113.954C306.534 113.044 305.862 112.33 304.994 112.33C304.126 112.33 303.454 113.044 303.454 113.954ZM309.096 118.854C309.096 117.314 310.272 116.096 311.784 116.096C313.282 116.096 314.458 117.314 314.458 118.854C314.458 120.408 313.282 121.626 311.784 121.626C310.272 121.626 309.096 120.408 309.096 118.854ZM310.244 118.854C310.244 119.764 310.916 120.492 311.784 120.492C312.652 120.492 313.324 119.764 313.324 118.854C313.324 117.958 312.652 117.23 311.784 117.23C310.916 117.23 310.244 117.958 310.244 118.854ZM320.438 116.446C320.438 114.668 321.138 112.302 322.146 110.72H323.42C322.286 112.274 321.502 114.626 321.502 116.446C321.502 118.266 322.286 120.618 323.42 122.172H322.146C321.138 120.59 320.438 118.224 320.438 116.446ZM326.918 110.552L326.05 113.38H325.21L325.672 110.552H326.918ZM328.915 120.492C330.931 118.546 333.885 116.25 333.885 114.444C333.885 113.198 333.087 112.316 331.953 112.316C331.113 112.316 330.259 112.932 329.867 113.828L328.817 113.366C329.363 112.134 330.665 111.266 331.953 111.266C333.773 111.266 335.047 112.582 335.047 114.444C335.047 116.586 332.457 118.728 330.525 120.492H335.215V121.528H329.055L328.915 120.492ZM341.927 116.278C342.823 116.824 343.341 117.804 343.341 118.644C343.341 120.38 341.969 121.598 340.023 121.598C338.077 121.598 336.705 120.366 336.705 118.616H337.867C337.867 119.764 338.763 120.562 340.023 120.562C341.297 120.562 342.193 119.764 342.193 118.63C342.193 117.552 341.297 116.782 340.051 116.782H339.309V115.746H340.051C341.213 115.746 342.053 115.06 342.053 114.066C342.053 113.044 341.241 112.33 340.107 112.33C338.959 112.33 338.161 113.058 338.161 114.094H336.999C336.999 112.442 338.273 111.294 340.107 111.294C341.913 111.294 343.201 112.428 343.201 114.052C343.201 114.822 342.739 115.732 341.927 116.278ZM345.68 120.212C346.114 120.212 346.422 120.52 346.422 120.968C346.422 121.416 346.114 121.738 345.68 121.738C345.232 121.738 344.91 121.416 344.91 120.968C344.91 120.52 345.232 120.212 345.68 120.212ZM351.862 111.392V121.514H350.7V112.68L349.048 113.744L348.474 112.82L350.7 111.392H351.862ZM362.68 110.23H363.898V117.468H362.68V116.852H360.272V116.068H362.68V110.23ZM353.748 114.836C356.128 114.836 359.11 114.808 361.742 114.528L361.826 115.298C360.65 115.466 359.432 115.564 358.242 115.634V117.51H357.038V115.676C355.918 115.718 354.854 115.718 353.902 115.718L353.748 114.836ZM354.672 112.316C354.672 111.168 355.876 110.468 357.71 110.468C359.544 110.468 360.748 111.168 360.748 112.316C360.748 113.45 359.544 114.15 357.71 114.15C355.876 114.15 354.672 113.45 354.672 112.316ZM355.596 118.77V117.916H363.898V120.506H356.828V121.542H364.304V122.424H355.624V119.708H362.708V118.77H355.596ZM355.806 112.316C355.806 112.946 356.562 113.338 357.71 113.338C358.872 113.338 359.614 112.946 359.614 112.316C359.614 111.686 358.872 111.294 357.71 111.294C356.562 111.294 355.806 111.686 355.806 112.316ZM378.157 110.23H379.375V122.55H378.157V110.23ZM369.379 119.316C372.655 117.748 374.265 115.438 374.503 112.54H369.953V111.546H375.735C375.735 115.144 374.181 118.266 370.023 120.282L369.379 119.316ZM382.511 110.832H391.611V111.826H387.859C387.901 113.254 389.763 114.458 391.975 114.738L391.513 115.718C389.483 115.424 387.719 114.43 387.061 113.03C386.403 114.43 384.639 115.424 382.595 115.718L382.133 114.738C384.359 114.458 386.207 113.24 386.249 111.826H382.511V110.832ZM381.475 117.538V116.558H392.633V117.538H387.761V119.974H386.543V117.538H381.475ZM382.875 122.298V118.784H384.093V121.318H391.401V122.298H382.875ZM397.071 116.446C397.071 118.238 396.371 120.59 395.377 122.172H394.103C395.223 120.632 396.007 118.266 396.007 116.446C396.007 114.626 395.223 112.26 394.103 110.72H395.377C396.371 112.302 397.071 114.654 397.071 116.446Z" fill="#3F3F46"/>
<circle opacity="0.08" cx="100" cy="252" r="100" fill="#9735D0"/>
<path d="M66.282 257.2C69.202 254.4 73.182 251.56 73.182 249.1C73.182 247.46 72.142 246.3 70.662 246.3C69.522 246.3 68.382 247.12 67.862 248.3L66.002 247.48C66.802 245.64 68.742 244.36 70.662 244.36C73.402 244.36 75.302 246.32 75.302 249.1C75.302 252.16 71.982 254.88 69.282 257.2H75.542V259.06H66.482L66.282 257.2ZM82.9654 257.32C84.9654 257.32 86.3054 255.08 86.3054 251.78C86.3054 248.46 84.9654 246.22 82.9654 246.22C80.9654 246.22 79.6054 248.46 79.6054 251.78C79.6054 255.08 80.9654 257.32 82.9654 257.32ZM77.4854 251.78C77.4854 247.42 79.7454 244.36 82.9654 244.36C86.1654 244.36 88.4254 247.42 88.4254 251.78C88.4254 256.12 86.1654 259.2 82.9654 259.2C79.7454 259.2 77.4854 256.12 77.4854 251.78ZM90.6765 257.2C93.5965 254.4 97.5765 251.56 97.5765 249.1C97.5765 247.46 96.5365 246.3 95.0565 246.3C93.9165 246.3 92.7765 247.12 92.2565 248.3L90.3965 247.48C91.1965 245.64 93.1365 244.36 95.0565 244.36C97.7965 244.36 99.6965 246.32 99.6965 249.1C99.6965 252.16 96.3765 254.88 93.6765 257.2H99.9365V259.06H90.8765L90.6765 257.2ZM107.36 257.32C109.36 257.32 110.7 255.08 110.7 251.78C110.7 248.46 109.36 246.22 107.36 246.22C105.36 246.22 104 248.46 104 251.78C104 255.08 105.36 257.32 107.36 257.32ZM101.88 251.78C101.88 247.42 104.14 244.36 107.36 244.36C110.56 244.36 112.82 247.42 112.82 251.78C112.82 256.12 110.56 259.2 107.36 259.2C104.14 259.2 101.88 256.12 101.88 251.78ZM116.111 256.98C116.831 256.98 117.331 257.5 117.331 258.22C117.331 258.96 116.831 259.48 116.111 259.48C115.371 259.48 114.851 258.96 114.851 258.22C114.851 257.5 115.371 256.98 116.111 256.98ZM127.647 252.54L125.527 252.28L126.027 244.5H133.807V246.36H128.067L127.827 249.92C128.487 249.62 129.227 249.44 129.887 249.44C132.887 249.44 135.007 251.46 135.007 254.32C135.007 257.22 132.887 259.26 129.887 259.26C127.527 259.26 125.487 257.68 124.967 255.44L127.027 254.96C127.327 256.3 128.507 257.26 129.887 257.26C131.647 257.26 132.887 256.04 132.887 254.32C132.887 252.64 131.647 251.44 129.887 251.44C129.147 251.44 128.227 251.9 127.647 252.54Z" fill="#6D0CA6"/>
<path d="M251.556 232.36V245.644H249.63V239.65H243.366V245.644H241.458V232.36H243.366V237.994H249.63V232.36H251.556ZM254.466 237.058H256.374V245.644H254.466V237.058ZM254.34 233.854C254.34 233.224 254.79 232.774 255.42 232.774C256.05 232.774 256.5 233.224 256.5 233.854C256.5 234.484 256.05 234.934 255.42 234.934C254.79 234.934 254.34 234.484 254.34 233.854ZM262.597 243.898C263.263 243.898 264.037 243.556 264.523 243.016L265.837 244.33C265.099 245.14 263.749 245.716 262.669 245.716C260.113 245.716 258.313 243.916 258.313 241.396C258.313 238.858 260.113 237.058 262.669 237.058C263.803 237.058 265.063 237.634 265.837 238.462L264.523 239.758C264.037 239.218 263.263 238.876 262.597 238.876C261.175 238.876 260.221 239.866 260.221 241.396C260.221 242.908 261.175 243.898 262.597 243.898ZM271.11 244.096C272.442 244.096 273.342 243.034 273.342 241.396C273.342 239.776 272.442 238.696 271.11 238.696C269.778 238.696 268.878 239.758 268.878 241.396C268.878 243.034 269.76 244.096 271.11 244.096ZM266.97 241.396C266.97 238.858 268.68 237.058 271.11 237.058C273.54 237.058 275.25 238.858 275.25 241.396C275.25 243.916 273.54 245.734 271.11 245.734C268.68 245.734 266.97 243.916 266.97 241.396ZM288.207 245.788C284.355 245.788 281.655 242.98 281.655 239.002C281.655 235.006 284.355 232.216 288.207 232.216C290.025 232.216 291.645 232.99 292.833 234.196L291.573 235.438C290.781 234.502 289.521 233.89 288.189 233.89C285.435 233.89 283.581 235.942 283.581 239.002C283.581 242.062 285.435 244.114 288.189 244.114C289.611 244.114 290.745 243.466 291.501 242.602L292.833 243.808C291.645 245.014 290.115 245.806 288.207 245.788ZM298.46 245.734C296.084 245.734 294.392 243.934 294.392 241.414C294.392 238.894 296.084 237.094 298.46 237.094C299.306 237.094 300.242 237.49 300.926 238.3V237.076H302.834V245.662H300.926V244.51C300.242 245.374 299.306 245.734 298.46 245.734ZM296.3 241.414C296.3 243.034 297.218 244.114 298.586 244.114C299.846 244.114 300.926 242.98 300.944 241.414C300.926 239.848 299.846 238.714 298.586 238.714C297.218 238.714 296.3 239.776 296.3 241.414ZM309.567 244.096C310.953 244.096 311.853 243.016 311.853 241.378C311.853 239.74 310.953 238.66 309.567 238.66C308.271 238.66 307.209 239.866 307.209 241.378C307.209 242.89 308.271 244.096 309.567 244.096ZM305.283 249.46V237.058H307.191V238.318C307.875 237.418 309.009 237.058 309.675 237.058C312.069 237.058 313.761 238.84 313.761 241.378C313.761 243.934 312.069 245.716 309.675 245.716C308.991 245.716 307.875 245.338 307.191 244.438V249.46H305.283ZM315.831 237.058H317.739V245.644H315.831V237.058ZM315.705 233.854C315.705 233.224 316.155 232.774 316.785 232.774C317.415 232.774 317.865 233.224 317.865 233.854C317.865 234.484 317.415 234.934 316.785 234.934C316.155 234.934 315.705 234.484 315.705 233.854ZM321.478 245.662V238.714H319.858V237.058H321.478V234.052H323.386V237.058H325.42V238.714H323.386V245.662H321.478ZM330.839 245.734C328.463 245.734 326.771 243.934 326.771 241.414C326.771 238.894 328.463 237.094 330.839 237.094C331.685 237.094 332.621 237.49 333.305 238.3V237.076H335.213V245.662H333.305V244.51C332.621 245.374 331.685 245.734 330.839 245.734ZM328.679 241.414C328.679 243.034 329.597 244.114 330.965 244.114C332.225 244.114 333.305 242.98 333.323 241.414C333.305 239.848 332.225 238.714 330.965 238.714C329.597 238.714 328.679 239.776 328.679 241.414ZM337.533 232.792H339.441V245.644H337.533V232.792ZM353.568 233.494H356.7V230.938H358.68V239.11H356.7V235.078H353.568V233.494ZM345.288 237.652C347.844 236.842 349.158 234.862 349.158 232.72V231.442H351.138V232.72C351.138 234.682 352.416 236.572 354.846 237.346L353.838 238.876C352.11 238.3 350.868 237.148 350.184 235.69C349.482 237.31 348.186 238.588 346.314 239.2L345.288 237.652ZM348.204 241.378V239.848H358.68V243.97H350.184V245.212H359.184V246.76H348.222V242.53H356.718V241.378H348.204ZM372.36 230.92H374.34V239.812H372.36V230.92ZM361.902 233.26V231.676H369.228V236.266H363.864V237.922C366.6 237.904 368.562 237.814 370.794 237.436L371.028 239.038C368.544 239.452 366.402 239.524 363.288 239.524H361.92V234.772H367.284V233.26H361.902ZM363.792 246.76V240.532H365.754V242.098H372.396V240.532H374.34V246.76H363.792ZM365.754 245.158H372.396V243.628H365.754V245.158Z" fill="#15151A"/>
<path d="M241.456 268.446C241.456 266.668 242.156 264.302 243.164 262.72H244.438C243.304 264.274 242.52 266.626 242.52 268.446C242.52 270.266 243.304 272.618 244.438 274.172H243.164C242.156 272.59 241.456 270.224 241.456 268.446ZM246.564 263.42H252.248V271.484H246.564V263.42ZM247.754 270.504H251.086V264.4H247.754V270.504ZM254.754 274.578V262.216H255.972V274.578H254.754ZM259.542 262.832H267.844V263.728C267.844 264.68 267.844 265.758 267.55 267.2H269.272V268.194H264.288V270.378H267.914V274.564H266.71V271.344H259.276V270.378H263.084V268.194H258.114V267.2H266.346C266.654 265.772 266.668 264.736 266.668 263.812H259.542V262.832ZM282.509 262.244H283.727V271.638H282.509V269.062H280.479V268.082H282.509V266.458H280.479V265.478H282.509V262.244ZM273.577 264.68V263.7H276.475V262.216H277.693V263.7H280.479V264.68H273.577ZM274.263 267.69C274.263 266.262 275.425 265.324 277.063 265.324C278.715 265.324 279.877 266.262 279.877 267.69C279.877 269.09 278.715 270.042 277.063 270.042C275.425 270.042 274.263 269.09 274.263 267.69ZM275.411 267.69C275.411 268.544 276.083 269.104 277.063 269.104C278.057 269.104 278.729 268.544 278.729 267.69C278.729 266.85 278.057 266.276 277.063 266.276C276.083 266.276 275.411 266.85 275.411 267.69ZM275.775 274.284V270.826H276.993V273.304H284.021V274.284H275.775ZM286.191 263.49H293.079V264.498H290.237V265.94C290.237 268.026 291.665 270.14 293.499 270.924L292.813 271.89C291.399 271.232 290.223 269.86 289.649 268.194C289.075 269.972 287.913 271.498 286.485 272.198L285.785 271.232C287.591 270.378 289.019 268.068 289.019 265.94V264.498H286.191V263.49ZM294.675 274.564V262.244H295.893V274.564H294.675ZM301.864 262.874H303.068V264.722H306.274V262.874H307.464V265.226H310.208V262.244H311.426V268.964H310.208V266.22H307.464V268.53H301.864V262.874ZM303.068 267.536H306.274V265.66H303.068V267.536ZM303.502 274.382V269.552H304.692V270.98H310.222V269.552H311.412V274.382H303.502ZM304.692 273.402H310.222V271.96H304.692V273.402ZM322.402 262.244H323.62V271.218H322.402V262.244ZM313.764 266.136C313.764 264.344 315.164 263.084 316.998 263.084C318.846 263.084 320.232 264.344 320.232 266.136C320.232 267.914 318.846 269.174 316.998 269.174C315.164 269.174 313.764 267.914 313.764 266.136ZM314.954 266.136C314.954 267.298 315.836 268.11 316.998 268.11C318.16 268.11 319.056 267.298 319.056 266.136C319.056 264.946 318.16 264.134 316.998 264.134C315.836 264.134 314.954 264.946 314.954 266.136ZM315.682 274.284V270.308H316.886V273.304H323.984V274.284H315.682ZM329.095 268.446C329.095 270.238 328.395 272.59 327.401 274.172H326.127C327.247 272.632 328.031 270.266 328.031 268.446C328.031 266.626 327.247 264.26 326.127 262.72H327.401C328.395 264.302 329.095 266.654 329.095 268.446Z" fill="#3F3F46"/>
<circle opacity="0.15" cx="100" cy="404" r="100" fill="#9735D0"/>
<path d="M65.2937 409.2C68.2137 406.4 72.1937 403.56 72.1937 401.1C72.1937 399.46 71.1537 398.3 69.6737 398.3C68.5337 398.3 67.3937 399.12 66.8737 400.3L65.0137 399.48C65.8137 397.64 67.7537 396.36 69.6737 396.36C72.4137 396.36 74.3137 398.32 74.3137 401.1C74.3137 404.16 70.9937 406.88 68.2937 409.2H74.5537V411.06H65.4937L65.2937 409.2ZM81.9771 409.32C83.9771 409.32 85.3171 407.08 85.3171 403.78C85.3171 400.46 83.9771 398.22 81.9771 398.22C79.9771 398.22 78.6171 400.46 78.6171 403.78C78.6171 407.08 79.9771 409.32 81.9771 409.32ZM76.4971 403.78C76.4971 399.42 78.7571 396.36 81.9771 396.36C85.1771 396.36 87.4371 399.42 87.4371 403.78C87.4371 408.12 85.1771 411.2 81.9771 411.2C78.7571 411.2 76.4971 408.12 76.4971 403.78ZM89.6882 409.2C92.6082 406.4 96.5882 403.56 96.5882 401.1C96.5882 399.46 95.5482 398.3 94.0682 398.3C92.9282 398.3 91.7882 399.12 91.2682 400.3L89.4082 399.48C90.2082 397.64 92.1482 396.36 94.0682 396.36C96.8082 396.36 98.7082 398.32 98.7082 401.1C98.7082 404.16 95.3882 406.88 92.6882 409.2H98.9482V411.06H89.8882L89.6882 409.2ZM106.332 396.52V411.06L104.212 411.04V398.78L101.652 400.2L100.772 398.42L104.232 396.52H106.332ZM110.611 408.98C111.331 408.98 111.831 409.5 111.831 410.22C111.831 410.96 111.331 411.48 110.611 411.48C109.871 411.48 109.351 410.96 109.351 410.22C109.351 409.5 109.871 408.98 110.611 408.98ZM124.867 396.52V411.06L122.747 411.04V398.78L120.187 400.2L119.307 398.42L122.767 396.52H124.867ZM134.027 396.52V411.06L131.907 411.04V398.78L129.347 400.2L128.467 398.42L131.927 396.52H134.027Z" fill="#6D0CA6"/>
<path d="M251.934 382.938H253.914V394.674H251.934V388.932H249.45V387.348H251.934V382.938ZM240.612 390.786H242.412V385.836H241.026V384.252H249.522V385.836H248.118V390.57C248.802 390.516 249.486 390.444 250.134 390.354L250.26 391.812C247.128 392.352 243.51 392.406 240.81 392.406L240.612 390.786ZM243.456 398.634V393.684H245.418V397.05H254.292V398.634H243.456ZM244.32 390.75C244.95 390.732 245.58 390.714 246.21 390.678V385.836H244.32V390.75ZM258.09 384.288H269.106V385.908H260.052V390.426H269.25V392.01H258.09V384.288ZM256.344 396.924V395.304H270.852V396.924H256.344ZM276.819 384.018H284.001V388.968H278.817V391.002C281.445 390.984 283.191 390.912 285.171 390.588L285.333 392.172C283.119 392.55 281.211 392.604 278.115 392.604H276.855V387.474H282.039V385.584H276.819V384.018ZM278.997 398.634V393.81H280.977V397.05H289.959V398.634H278.997ZM284.865 388.572V386.88H287.547V382.938H289.527V394.71H287.547V388.572H284.865ZM292.624 384.702H296.008V382.938H297.988V384.702H301.354V386.286H297.988C298.024 388.086 299.392 389.814 301.894 390.48L300.976 392.046C299.122 391.524 297.79 390.426 297.052 389.004C296.332 390.588 295 391.812 293.074 392.388L292.138 390.84C294.658 390.084 295.99 388.248 296.008 386.286H292.624V384.702ZM294.37 395.934C294.37 394.062 296.422 392.946 299.788 392.946C303.154 392.946 305.242 394.062 305.242 395.934C305.242 397.842 303.154 398.94 299.788 398.94C296.422 398.94 294.37 397.842 294.37 395.934ZM296.35 395.934C296.35 396.906 297.574 397.428 299.788 397.428C302.02 397.428 303.28 396.906 303.28 395.934C303.28 394.98 302.02 394.458 299.788 394.458C297.574 394.458 296.35 394.98 296.35 395.934ZM303.19 392.658V382.938H305.17V392.658H303.19Z" fill="#15151A"/>
<path d="M244.326 417.492V419.578L246.286 418.962L246.622 419.998L244.676 420.614L245.922 422.336L245.054 423.022L243.78 421.272L242.52 423.022L241.666 422.336L242.912 420.614L240.952 419.998L241.288 418.962L243.234 419.578V417.492H244.326ZM260.251 414.244H261.469V423.344H260.251V418.682H258.109V417.702H260.251V414.244ZM251.333 420.362H252.859V416.302H251.669V415.308H258.179V416.302H256.989V420.208C257.577 420.152 258.151 420.096 258.697 420.026L258.767 420.922C256.345 421.342 253.531 421.37 251.473 421.37L251.333 420.362ZM253.545 426.284V422.546H254.749V425.304H261.777V426.284H253.545ZM254.035 420.334C254.623 420.32 255.211 420.306 255.813 420.278V416.302H254.035V420.334ZM264.955 415.35H273.313V416.344H266.159V420.11H273.439V421.09H264.955V415.35ZM263.555 424.898V423.904H274.713V424.898H263.555ZM279.69 415.35H280.866V425.542H279.69V415.35ZM286.814 420.418C288.018 420.418 288.858 419.592 288.858 418.388C288.858 417.184 288.018 416.386 286.814 416.386H284.448V420.418H286.814ZM283.272 425.542V415.35H286.856C288.718 415.35 290.02 416.61 290.02 418.402C290.034 419.788 289.124 420.964 287.64 421.342L290.496 425.542H289.096L286.31 421.454H284.448V425.542H283.272ZM296.275 420.418C297.479 420.418 298.319 419.592 298.319 418.388C298.319 417.184 297.479 416.386 296.275 416.386H293.909V420.418H296.275ZM292.733 425.542V415.35H296.317C298.179 415.35 299.481 416.61 299.481 418.402C299.495 419.788 298.585 420.964 297.101 421.342L299.957 425.542H298.557L295.771 421.454H293.909V425.542H292.733ZM306.384 417.366C306.79 417.366 307.07 417.66 307.07 418.052C307.07 418.458 306.79 418.752 306.384 418.752C305.978 418.752 305.684 418.458 305.684 418.052C305.684 417.66 305.978 417.366 306.384 417.366ZM305.684 422.77C305.684 422.364 305.978 422.084 306.384 422.084C306.79 422.084 307.07 422.364 307.07 422.77C307.07 423.176 306.79 423.47 306.384 423.47C305.978 423.47 305.684 423.176 305.684 422.77ZM318.067 415.378V421.72H319.495V422.742H318.067V425.514H316.905V422.742H312.495L312.355 421.72L316.947 415.378H318.067ZM313.769 421.72H316.905V417.38L313.769 421.72ZM326.694 415.378V421.72H328.122V422.742H326.694V425.514H325.532V422.742H321.122L320.982 421.72L325.574 415.378H326.694ZM322.396 421.72H325.532V417.38L322.396 421.72ZM332.493 425.514L338.849 415.35H340.123L333.739 425.514H332.493ZM330.169 417.954C330.169 416.4 331.345 415.182 332.857 415.182C334.355 415.182 335.531 416.4 335.531 417.954C335.531 419.494 334.355 420.712 332.857 420.712C331.345 420.712 330.169 419.494 330.169 417.954ZM331.317 417.954C331.317 418.85 331.989 419.578 332.857 419.578C333.725 419.578 334.397 418.85 334.397 417.954C334.397 417.044 333.725 416.33 332.857 416.33C331.989 416.33 331.317 417.044 331.317 417.954ZM336.959 422.854C336.959 421.314 338.135 420.096 339.647 420.096C341.145 420.096 342.321 421.314 342.321 422.854C342.321 424.408 341.145 425.626 339.647 425.626C338.135 425.626 336.959 424.408 336.959 422.854ZM338.107 422.854C338.107 423.764 338.779 424.492 339.647 424.492C340.515 424.492 341.187 423.764 341.187 422.854C341.187 421.958 340.515 421.23 339.647 421.23C338.779 421.23 338.107 421.958 338.107 422.854ZM348.302 420.446C348.302 418.668 349.002 416.302 350.01 414.72H351.284C350.15 416.274 349.366 418.626 349.366 420.446C349.366 422.266 350.15 424.618 351.284 426.172H350.01C349.002 424.59 348.302 422.224 348.302 420.446ZM354.781 414.552L353.913 417.38H353.073L353.535 414.552H354.781ZM356.778 424.492C358.794 422.546 361.748 420.25 361.748 418.444C361.748 417.198 360.95 416.316 359.816 416.316C358.976 416.316 358.122 416.932 357.73 417.828L356.68 417.366C357.226 416.134 358.528 415.266 359.816 415.266C361.636 415.266 362.91 416.582 362.91 418.444C362.91 420.586 360.32 422.728 358.388 424.492H363.078V425.528H356.918L356.778 424.492ZM369.79 420.278C370.686 420.824 371.204 421.804 371.204 422.644C371.204 424.38 369.832 425.598 367.886 425.598C365.94 425.598 364.568 424.366 364.568 422.616H365.73C365.73 423.764 366.626 424.562 367.886 424.562C369.16 424.562 370.056 423.764 370.056 422.63C370.056 421.552 369.16 420.782 367.914 420.782H367.172V419.746H367.914C369.076 419.746 369.916 419.06 369.916 418.066C369.916 417.044 369.104 416.33 367.97 416.33C366.822 416.33 366.024 417.058 366.024 418.094H364.862C364.862 416.442 366.136 415.294 367.97 415.294C369.776 415.294 371.064 416.428 371.064 418.052C371.064 418.822 370.602 419.732 369.79 420.278ZM373.543 424.212C373.977 424.212 374.285 424.52 374.285 424.968C374.285 425.416 373.977 425.738 373.543 425.738C373.095 425.738 372.773 425.416 372.773 424.968C372.773 424.52 373.095 424.212 373.543 424.212ZM379.725 415.392V425.514H378.563V416.68L376.911 417.744L376.337 416.82L378.563 415.392H379.725ZM390.543 414.23H391.761V421.468H390.543V420.852H388.135V420.068H390.543V414.23ZM381.611 418.836C383.991 418.836 386.973 418.808 389.605 418.528L389.689 419.298C388.513 419.466 387.295 419.564 386.105 419.634V421.51H384.901V419.676C383.781 419.718 382.717 419.718 381.765 419.718L381.611 418.836ZM382.535 416.316C382.535 415.168 383.739 414.468 385.573 414.468C387.407 414.468 388.611 415.168 388.611 416.316C388.611 417.45 387.407 418.15 385.573 418.15C383.739 418.15 382.535 417.45 382.535 416.316ZM383.459 422.77V421.916H391.761V424.506H384.691V425.542H392.167V426.424H383.487V423.708H390.571V422.77H383.459ZM383.669 416.316C383.669 416.946 384.425 417.338 385.573 417.338C386.735 417.338 387.477 416.946 387.477 416.316C387.477 415.686 386.735 415.294 385.573 415.294C384.425 415.294 383.669 415.686 383.669 416.316ZM406.02 414.23H407.238V426.55H406.02V414.23ZM397.242 423.316C400.518 421.748 402.128 419.438 402.366 416.54H397.816V415.546H403.598C403.598 419.144 402.044 422.266 397.886 424.282L397.242 423.316ZM410.374 414.832H419.474V415.826H415.722C415.764 417.254 417.626 418.458 419.838 418.738L419.376 419.718C417.346 419.424 415.582 418.43 414.924 417.03C414.266 418.43 412.502 419.424 410.458 419.718L409.996 418.738C412.222 418.458 414.07 417.24 414.112 415.826H410.374V414.832ZM409.338 421.538V420.558H420.496V421.538H415.624V423.974H414.406V421.538H409.338ZM410.738 426.298V422.784H411.956V425.318H419.264V426.298H410.738ZM424.935 420.446C424.935 422.238 424.235 424.59 423.241 426.172H421.967C423.087 424.632 423.871 422.266 423.871 420.446C423.871 418.626 423.087 416.26 421.967 414.72H423.241C424.235 416.302 424.935 418.654 424.935 420.446Z" fill="#3F3F46"/>
</svg>
