<svg width="793" height="510" viewBox="0 0 793 510" fill="none" xmlns="http://www.w3.org/2000/svg">
<rect width="793" height="510" rx="16" fill="#F6F6F7"/>
<line x1="346.684" y1="145" x2="346.684" y2="195" stroke="#71717A" stroke-width="0.95" stroke-dasharray="2.85 2.85"/>
<path d="M156 248.466V206.066C156 201.868 159.403 198.466 163.6 198.466L529.4 198.466C533.597 198.466 537 201.868 537 206.066V248.466" stroke="#71717A" stroke-width="0.95" stroke-dasharray="2.85 2.85"/>
<g filter="url(#filter0_d_10914_52616)">
<rect x="249" y="73" width="248" height="84" rx="15.2" fill="#9735D0" shape-rendering="crispEdges"/>
<path d="M324.66 105.82H326.86V118.8H324.66V105.82ZM312.2 114.62C315.06 113.58 316.52 111.06 316.52 108.56V106.78H318.74V108.56C318.74 111 320.18 113.36 323 114.3L321.86 116.06C319.86 115.34 318.44 113.92 317.66 112.1C316.88 114.04 315.42 115.6 313.32 116.36L312.2 114.62ZM315.18 123.26V117.58H317.38V121.5H327.36V123.26H315.18ZM333.92 106.78H336.12V108.36C336.12 110.78 337.5 113 340.24 113.88L339.08 115.6C337.18 114.94 335.84 113.64 335.08 111.98C334.3 113.9 332.82 115.4 330.68 116.14L329.54 114.36C332.44 113.4 333.92 111.02 333.92 108.44V106.78ZM332.42 120.18C332.42 118.02 334.74 116.76 338.48 116.76C342.2 116.76 344.5 118.02 344.5 120.18C344.5 122.36 342.2 123.6 338.48 123.6C334.74 123.6 332.42 122.36 332.42 120.18ZM334.64 120.18C334.64 121.3 336 121.9 338.48 121.9C340.92 121.9 342.32 121.3 342.32 120.18C342.32 119.06 340.92 118.46 338.48 118.46C336 118.46 334.64 119.06 334.64 120.18ZM338.74 111.06V109.24H342.22V105.82H344.42V116.28H342.22V111.06H338.74ZM347.561 107.04H357.141V108.82H353.481V109C353.481 111.16 354.861 113.22 357.641 114.1L356.581 115.8C354.601 115.18 353.201 113.92 352.441 112.32C351.661 114.2 350.181 115.68 348.061 116.4L346.961 114.66C349.801 113.7 351.281 111.38 351.281 109V108.82H347.561V107.04ZM349.361 120.2C349.361 118.06 351.661 116.82 355.321 116.82C358.981 116.82 361.261 118.06 361.261 120.2C361.261 122.34 358.981 123.6 355.321 123.6C351.661 123.6 349.361 122.34 349.361 120.2ZM351.521 120.2C351.521 121.3 352.901 121.9 355.321 121.9C357.721 121.9 359.101 121.3 359.101 120.2C359.101 119.1 357.721 118.54 355.321 118.54C352.901 118.54 351.521 119.1 351.521 120.2ZM358.861 116.44V105.82H361.061V110.08H363.541V111.88H361.061V116.44H358.861ZM364.621 116.5H380.721V118.3H373.761V123.64H371.541V118.3H364.621V116.5ZM365.521 113.7C369.041 113.26 371.301 111.46 371.521 109.66H366.101V107.9H371.541V105.84H373.761V107.9H379.221V109.66H373.781C374.001 111.42 376.281 113.26 379.781 113.7L379.001 115.42C376.061 115.06 373.801 113.76 372.661 112.04C371.521 113.78 369.241 115.04 366.281 115.42L365.521 113.7ZM382.822 107.14H392.522V108.9H388.802V109.4C388.802 111.64 390.322 113.8 393.102 114.72L391.982 116.42C389.962 115.76 388.522 114.42 387.722 112.7C386.942 114.56 385.442 116.02 383.342 116.74L382.222 115.02C385.062 114.06 386.562 111.76 386.562 109.4V108.9H382.822V107.14ZM385.102 123.26V117.54H387.302V121.5H397.282V123.26H385.102ZM394.582 118.74V105.82H396.802V118.74H394.582ZM401.662 106.48H403.842V108.4H411.402V106.48H413.602V113.68H408.702V115.34H415.662V117.1H399.582V115.34H406.502V113.68H401.662V106.48ZM401.582 123.28V118.3H403.762V121.5H413.862V123.28H401.582ZM403.842 111.96H411.402V110.1H403.842V111.96ZM417.063 116.2H433.183V117.94H426.163V123.62H423.963V117.94H417.063V116.2ZM418.963 114.32V106.52H421.143V108.7H429.043V106.52H431.203V114.32H418.963ZM421.143 112.56H429.043V110.42H421.143V112.56Z" fill="white"/>
</g>
<line x1="537.475" y1="240" x2="537.475" y2="326" stroke="#71717A" stroke-width="0.95" stroke-dasharray="2.85 2.85"/>
<path d="M452 378.934V336.534C452 332.337 455.403 328.934 459.6 328.934H614.45C618.647 328.934 622.05 332.337 622.05 336.534V378.934" stroke="#71717A" stroke-width="0.95" stroke-dasharray="2.85 2.85"/>
<g filter="url(#filter1_d_10914_52616)">
<rect x="309" y="353" width="220" height="84" rx="15.2" fill="white" shape-rendering="crispEdges"/>
<path d="M340.108 380.936C340.108 381.336 340.092 381.8 340.092 381.96C340.092 385.272 337.836 387.208 334.556 387.256C331.116 387.256 328.684 384.76 328.684 381.224C328.684 377.688 331.116 375.208 334.556 375.208C338.252 375.208 339.548 378.056 339.548 378.056L338.092 378.808C338.092 378.808 337.164 376.696 334.556 376.696C332.06 376.696 330.38 378.52 330.38 381.224C330.38 383.944 332.06 385.768 334.556 385.768C336.7 385.704 338.412 384.664 338.428 382.344H334.748V380.936H340.108ZM341.993 375.704H343.689V387.128H341.993V375.704ZM348.966 385.752C350.15 385.752 350.95 384.808 350.95 383.352C350.95 381.912 350.15 380.952 348.966 380.952C347.782 380.952 346.982 381.896 346.982 383.352C346.982 384.808 347.766 385.752 348.966 385.752ZM345.286 383.352C345.286 381.096 346.806 379.496 348.966 379.496C351.126 379.496 352.646 381.096 352.646 383.352C352.646 385.592 351.126 387.208 348.966 387.208C346.806 387.208 345.286 385.592 345.286 383.352ZM358.291 387.224C357.747 387.224 356.787 386.984 356.083 386.088V387.16H354.387V375.704H356.083V380.648C356.787 379.72 357.747 379.512 358.307 379.512C360.419 379.512 361.939 381.112 361.939 383.368C361.939 385.624 360.419 387.224 358.291 387.224ZM356.083 383.384C356.083 384.744 357.027 385.8 358.195 385.8C359.427 385.8 360.243 384.84 360.243 383.384C360.243 381.928 359.427 380.984 358.195 380.984C357.027 380.984 356.083 382.056 356.083 383.384ZM367.043 387.208C364.931 387.208 363.427 385.608 363.427 383.368C363.427 381.128 364.931 379.528 367.043 379.528C367.795 379.528 368.627 379.88 369.235 380.6V379.512H370.931V387.144H369.235V386.12C368.627 386.888 367.795 387.208 367.043 387.208ZM365.123 383.368C365.123 384.808 365.939 385.768 367.155 385.768C368.275 385.768 369.235 384.76 369.251 383.368C369.235 381.976 368.275 380.968 367.155 380.968C365.939 380.968 365.123 381.912 365.123 383.368ZM372.993 375.704H374.689V387.128H372.993V375.704ZM380.718 375.32H382.414V387.128H380.718V375.32ZM390.071 382.936C390.071 381.72 389.447 380.984 388.391 380.984C387.351 381 386.551 381.816 386.567 382.936V387.144H384.871V379.512H386.567V380.552C387.047 379.96 387.863 379.528 388.599 379.528C390.039 379.528 391.767 380.472 391.767 382.872V387.144H390.071V382.936ZM401.077 379.512L397.845 387.144H396.373L393.173 379.512H395.029L397.109 384.856L399.205 379.512H401.077ZM405.372 387.176C403.212 387.176 401.692 385.592 401.692 383.352C401.692 381.096 403.212 379.512 405.372 379.512C407.74 379.512 408.492 381.448 408.54 381.576C409.004 382.664 408.86 383.88 408.86 384.008H403.356C403.548 385.032 404.412 385.736 405.372 385.736C406.636 385.736 407.148 385 407.276 384.776L408.636 385.384C408.268 386.248 407.196 387.176 405.372 387.176ZM403.356 382.664H407.26C407.1 381.72 406.556 380.952 405.372 380.952C404.348 380.952 403.548 381.672 403.356 382.664ZM411.724 384.52C412.06 385.352 412.892 385.736 413.404 385.736C414.204 385.736 414.716 385.432 414.716 384.904C414.716 384.424 414.012 384.2 413.228 383.928C412.188 383.56 410.716 383.064 410.716 381.592C410.716 380.248 411.948 379.432 413.516 379.432C414.46 379.432 415.868 379.976 416.252 381.352L414.828 381.864C414.572 381.016 413.884 380.888 413.516 380.888C412.844 380.888 412.412 381.16 412.412 381.592C412.412 382.072 413.068 382.264 413.884 382.552C414.972 382.936 416.412 383.432 416.412 384.888C416.412 386.28 415.18 387.192 413.404 387.192C412.236 387.192 410.956 386.456 410.396 385.288L411.724 384.52ZM419.066 387.144V380.968H417.626V379.496H419.066V376.824H420.762V379.496H422.57V380.968H420.762V387.144H419.066ZM433.864 382.808C433.864 381.72 433.272 381 432.408 381C431.432 381 430.776 381.752 430.776 382.728V387.144H429.064V382.808C429.064 381.72 428.488 381 427.64 381C426.664 381 425.976 381.832 425.976 382.904V387.144H424.28V379.512H425.976V380.552C426.424 379.944 427.08 379.528 427.8 379.528C428.712 379.528 429.608 380.104 430.056 380.904C430.584 380.104 431.608 379.528 432.52 379.528C434.328 379.528 435.576 380.872 435.576 382.744V387.144H433.864V382.808ZM441.122 387.176C438.962 387.176 437.442 385.592 437.442 383.352C437.442 381.096 438.962 379.512 441.122 379.512C443.49 379.512 444.242 381.448 444.29 381.576C444.754 382.664 444.61 383.88 444.61 384.008H439.106C439.298 385.032 440.162 385.736 441.122 385.736C442.386 385.736 442.898 385 443.026 384.776L444.386 385.384C444.018 386.248 442.946 387.176 441.122 387.176ZM439.106 382.664H443.01C442.85 381.72 442.306 380.952 441.122 380.952C440.098 380.952 439.298 381.672 439.106 382.664ZM451.618 382.936C451.618 381.72 450.994 380.984 449.938 380.984C448.898 381 448.098 381.816 448.114 382.936V387.144H446.418V379.512H448.114V380.552C448.594 379.96 449.41 379.528 450.146 379.528C451.586 379.528 453.314 380.472 453.314 382.872V387.144H451.618V382.936ZM456.112 387.144V380.968H454.672V379.496H456.112V376.824H457.808V379.496H459.616V380.968H457.808V387.144H456.112ZM476.842 380.936C476.842 381.336 476.826 381.8 476.826 381.96C476.826 385.272 474.57 387.208 471.29 387.256C467.85 387.256 465.418 384.76 465.418 381.224C465.418 377.688 467.85 375.208 471.29 375.208C474.986 375.208 476.282 378.056 476.282 378.056L474.826 378.808C474.826 378.808 473.898 376.696 471.29 376.696C468.794 376.696 467.114 378.52 467.114 381.224C467.114 383.944 468.794 385.768 471.29 385.768C473.434 385.704 475.146 384.664 475.162 382.344H471.482V380.936H476.842ZM478.776 387.144V379.512H480.472V380.632C480.984 379.912 481.911 379.432 482.808 379.48V381.048C481.448 380.984 480.472 382.184 480.472 383.352V387.144H478.776ZM487.357 385.752C488.541 385.752 489.341 384.808 489.341 383.352C489.341 381.912 488.541 380.952 487.357 380.952C486.173 380.952 485.373 381.896 485.373 383.352C485.373 384.808 486.157 385.752 487.357 385.752ZM483.677 383.352C483.677 381.096 485.197 379.496 487.357 379.496C489.517 379.496 491.036 381.096 491.036 383.352C491.036 385.592 489.517 387.208 487.357 387.208C485.197 387.208 483.677 385.592 483.677 383.352ZM494.63 383.864C494.63 385.032 495.318 385.752 496.326 385.752C497.398 385.752 498.134 385.048 498.118 383.88V379.512H499.83V387.144H498.118V386.264C497.638 386.856 496.854 387.208 496.102 387.208C494.262 387.208 492.934 385.88 492.934 383.928V379.512H494.63V383.864ZM505.916 385.752C507.148 385.752 507.948 384.792 507.948 383.336C507.948 381.88 507.148 380.92 505.916 380.92C504.764 380.92 503.82 381.992 503.82 383.336C503.82 384.68 504.764 385.752 505.916 385.752ZM502.108 390.52V379.496H503.804V380.616C504.412 379.816 505.42 379.496 506.012 379.496C508.14 379.496 509.644 381.08 509.644 383.336C509.644 385.608 508.14 387.192 506.012 387.192C505.404 387.192 504.412 386.856 503.804 386.056V390.52H502.108Z" fill="#6D0CA6"/>
<path d="M376.932 411.912C377.54 413.128 378.564 413.992 379.764 413.992C381.332 414.024 382.308 413.224 382.308 411.976C382.308 409 376.324 410.248 376.324 406.2C376.324 404.328 377.892 403.256 379.972 403.272C381.572 403.304 382.868 404.152 383.428 405.848L382.228 406.264C381.876 405.128 381.012 404.472 379.956 404.456C378.612 404.44 377.652 405.08 377.652 406.2C377.652 409.144 383.636 407.944 383.636 411.992C383.636 413.912 382.132 415.208 379.748 415.176C378.052 415.144 376.756 414.2 375.796 412.52L376.932 411.912ZM389.089 415.112C386.993 415.112 385.521 413.544 385.521 411.352C385.521 409.144 386.993 407.592 389.089 407.592C391.393 407.592 392.097 409.448 392.161 409.624C392.609 410.776 392.465 411.88 392.465 411.928H386.865C387.057 413.112 387.985 413.944 389.089 413.944C390.561 413.944 391.105 413.016 391.217 412.84L392.273 413.384C391.905 414.216 390.849 415.112 389.089 415.112ZM386.865 410.792L391.169 410.776C391.025 409.64 390.465 408.76 389.089 408.76C387.953 408.76 387.057 409.592 386.865 410.792ZM397.589 413.96C398.917 413.96 399.829 412.904 399.829 411.368C399.829 409.832 398.917 408.76 397.589 408.76C396.277 408.76 395.365 409.816 395.365 411.368C395.365 412.92 396.261 413.96 397.589 413.96ZM394.037 411.368C394.037 409.16 395.509 407.576 397.589 407.576C399.685 407.576 401.173 409.16 401.173 411.368C401.173 413.56 399.685 415.144 397.589 415.144C395.509 415.144 394.037 413.56 394.037 411.368ZM404.466 411.928C404.466 413.112 405.186 413.976 406.226 413.976C407.41 413.976 408.226 413.224 408.226 412.04V407.592H409.57V415.048H408.226V414.104C407.73 414.744 406.898 415.16 406.146 415.16C404.386 415.16 403.122 413.832 403.122 412.04V407.592H404.466V411.928ZM411.713 403.752H413.041V415.048H411.713V403.752ZM416.717 413.704L415.773 416.904H414.781L415.309 413.704H416.717ZM431.977 403.4L427.337 408.568L432.073 415.048H430.409L426.425 409.608L425.001 411.176V415.048H423.657V403.416H425.001V409.176L430.169 403.4H431.977ZM436.495 413.96C437.823 413.96 438.735 412.904 438.735 411.368C438.735 409.832 437.823 408.76 436.495 408.76C435.183 408.76 434.271 409.816 434.271 411.368C434.271 412.92 435.167 413.96 436.495 413.96ZM432.943 411.368C432.943 409.16 434.415 407.576 436.495 407.576C438.591 407.576 440.079 409.16 440.079 411.368C440.079 413.56 438.591 415.144 436.495 415.144C434.415 415.144 432.943 413.56 432.943 411.368ZM441.792 415.048V407.592H443.12V408.824C443.616 408.024 444.624 407.48 445.616 407.528V408.808C444.256 408.76 443.12 409.944 443.12 411.256V415.048H441.792ZM450.121 415.112C448.025 415.112 446.553 413.544 446.553 411.352C446.553 409.144 448.025 407.592 450.121 407.592C452.425 407.592 453.129 409.448 453.193 409.624C453.641 410.776 453.497 411.88 453.497 411.928H447.897C448.089 413.112 449.017 413.944 450.121 413.944C451.593 413.944 452.137 413.016 452.249 412.84L453.305 413.384C452.937 414.216 451.881 415.112 450.121 415.112ZM447.897 410.792L452.201 410.776C452.057 409.64 451.497 408.76 450.121 408.76C448.985 408.76 448.089 409.592 447.897 410.792ZM458.604 415.144C456.54 415.144 455.068 413.576 455.068 411.384C455.068 409.176 456.54 407.608 458.604 407.608C459.404 407.608 460.284 408.008 460.924 408.872V407.592H462.252V415.048H460.924V413.848C460.268 414.792 459.404 415.144 458.604 415.144ZM456.396 411.384C456.396 412.904 457.324 413.976 458.652 413.976C459.852 413.976 460.924 412.888 460.94 411.384C460.924 409.88 459.852 408.776 458.652 408.776C457.324 408.776 456.396 409.832 456.396 411.384Z" fill="#71717A"/>
</g>
<g filter="url(#filter2_d_10914_52616)">
<rect x="545" y="353" width="220" height="84" rx="15.2" fill="white" shape-rendering="crispEdges"/>
<path d="M620.272 375.32V387.128H618.56V381.8H612.992V387.128H611.296V375.32H612.992V380.328H618.56V375.32H620.272ZM622.859 379.496H624.555V387.128H622.859V379.496ZM622.747 376.648C622.747 376.088 623.147 375.688 623.707 375.688C624.267 375.688 624.667 376.088 624.667 376.648C624.667 377.208 624.267 377.608 623.707 377.608C623.147 377.608 622.747 377.208 622.747 376.648ZM630.086 385.576C630.678 385.576 631.366 385.272 631.798 384.792L632.966 385.96C632.31 386.68 631.11 387.192 630.15 387.192C627.878 387.192 626.278 385.592 626.278 383.352C626.278 381.096 627.878 379.496 630.15 379.496C631.158 379.496 632.278 380.008 632.966 380.744L631.798 381.896C631.366 381.416 630.678 381.112 630.086 381.112C628.822 381.112 627.974 381.992 627.974 383.352C627.974 384.696 628.822 385.576 630.086 385.576ZM637.653 385.752C638.837 385.752 639.637 384.808 639.637 383.352C639.637 381.912 638.837 380.952 637.653 380.952C636.469 380.952 635.669 381.896 635.669 383.352C635.669 384.808 636.453 385.752 637.653 385.752ZM633.973 383.352C633.973 381.096 635.493 379.496 637.653 379.496C639.813 379.496 641.333 381.096 641.333 383.352C641.333 385.592 639.813 387.208 637.653 387.208C635.493 387.208 633.973 385.592 633.973 383.352ZM652.851 387.256C649.427 387.256 647.027 384.76 647.027 381.224C647.027 377.672 649.427 375.192 652.851 375.192C654.467 375.192 655.907 375.88 656.963 376.952L655.843 378.056C655.139 377.224 654.019 376.68 652.835 376.68C650.387 376.68 648.739 378.504 648.739 381.224C648.739 383.944 650.387 385.768 652.835 385.768C654.099 385.768 655.107 385.192 655.779 384.424L656.963 385.496C655.907 386.568 654.547 387.272 652.851 387.256ZM661.964 387.208C659.852 387.208 658.348 385.608 658.348 383.368C658.348 381.128 659.852 379.528 661.964 379.528C662.716 379.528 663.548 379.88 664.156 380.6V379.512H665.852V387.144H664.156V386.12C663.548 386.888 662.716 387.208 661.964 387.208ZM660.044 383.368C660.044 384.808 660.86 385.768 662.076 385.768C663.196 385.768 664.156 384.76 664.172 383.368C664.156 381.976 663.196 380.968 662.076 380.968C660.86 380.968 660.044 381.912 660.044 383.368ZM671.838 385.752C673.07 385.752 673.87 384.792 673.87 383.336C673.87 381.88 673.07 380.92 671.838 380.92C670.686 380.92 669.742 381.992 669.742 383.336C669.742 384.68 670.686 385.752 671.838 385.752ZM668.03 390.52V379.496H669.726V380.616C670.334 379.816 671.342 379.496 671.934 379.496C674.062 379.496 675.566 381.08 675.566 383.336C675.566 385.608 674.062 387.192 671.934 387.192C671.326 387.192 670.334 386.856 669.726 386.056V390.52H668.03ZM677.405 379.496H679.101V387.128H677.405V379.496ZM677.293 376.648C677.293 376.088 677.693 375.688 678.253 375.688C678.813 375.688 679.213 376.088 679.213 376.648C679.213 377.208 678.813 377.608 678.253 377.608C677.693 377.608 677.293 377.208 677.293 376.648ZM682.425 387.144V380.968H680.985V379.496H682.425V376.824H684.121V379.496H685.929V380.968H684.121V387.144H682.425ZM690.746 387.208C688.634 387.208 687.13 385.608 687.13 383.368C687.13 381.128 688.634 379.528 690.746 379.528C691.498 379.528 692.33 379.88 692.938 380.6V379.512H694.634V387.144H692.938V386.12C692.33 386.888 691.498 387.208 690.746 387.208ZM688.826 383.368C688.826 384.808 689.642 385.768 690.858 385.768C691.978 385.768 692.938 384.76 692.954 383.368C692.938 381.976 691.978 380.968 690.858 380.968C689.642 380.968 688.826 381.912 688.826 383.368ZM696.696 375.704H698.392V387.128H696.696V375.704Z" fill="#6D0CA6"/>
<path d="M596.26 411.912C596.868 413.128 597.892 413.992 599.092 413.992C600.66 414.024 601.636 413.224 601.636 411.976C601.636 409 595.652 410.248 595.652 406.2C595.652 404.328 597.22 403.256 599.3 403.272C600.9 403.304 602.196 404.152 602.756 405.848L601.556 406.264C601.204 405.128 600.34 404.472 599.284 404.456C597.94 404.44 596.98 405.08 596.98 406.2C596.98 409.144 602.964 407.944 602.964 411.992C602.964 413.912 601.46 415.208 599.076 415.176C597.38 415.144 596.084 414.2 595.124 412.52L596.26 411.912ZM605.39 407.576H606.718V415.048H605.39V407.576ZM605.246 404.68C605.246 404.216 605.582 403.88 606.062 403.88C606.526 403.88 606.862 404.216 606.862 404.68C606.862 405.16 606.526 405.496 606.062 405.496C605.582 405.496 605.246 405.16 605.246 404.68ZM608.994 403.752H610.322V415.048H608.994V403.752ZM612.702 407.576H614.03V415.048H612.702V407.576ZM612.558 404.68C612.558 404.216 612.894 403.88 613.374 403.88C613.838 403.88 614.174 404.216 614.174 404.68C614.174 405.16 613.838 405.496 613.374 405.496C612.894 405.496 612.558 405.16 612.558 404.68ZM619.523 413.848C620.179 413.848 620.947 413.528 621.379 413.032L622.339 413.928C621.683 414.632 620.515 415.128 619.587 415.128C617.363 415.128 615.795 413.544 615.795 411.352C615.795 409.144 617.363 407.576 619.587 407.576C620.531 407.576 621.667 408.088 622.339 408.792L621.379 409.672C620.947 409.176 620.179 408.856 619.523 408.856C618.115 408.856 617.123 409.864 617.123 411.352C617.123 412.84 618.115 413.848 619.523 413.848ZM626.995 413.96C628.323 413.96 629.235 412.904 629.235 411.368C629.235 409.832 628.323 408.76 626.995 408.76C625.683 408.76 624.771 409.816 624.771 411.368C624.771 412.92 625.667 413.96 626.995 413.96ZM623.443 411.368C623.443 409.16 624.915 407.576 626.995 407.576C629.091 407.576 630.579 409.16 630.579 411.368C630.579 413.56 629.091 415.144 626.995 415.144C624.915 415.144 623.443 413.56 623.443 411.368ZM637.476 410.76C637.476 409.56 636.772 408.776 635.716 408.776C634.532 408.776 633.7 409.688 633.7 410.76V415.048H632.372V407.592H633.7V408.68C634.212 408.04 635.044 407.592 635.78 407.592C637.412 407.592 638.804 408.712 638.804 410.664V415.048H637.476V410.76ZM654.667 403.4L650.507 415.048H649.019L644.635 403.4H646.059L649.755 413.192L653.243 403.4H654.667ZM658.604 415.144C656.54 415.144 655.068 413.576 655.068 411.384C655.068 409.176 656.54 407.608 658.604 407.608C659.404 407.608 660.284 408.008 660.924 408.872V407.592H662.252V415.048H660.924V413.848C660.268 414.792 659.404 415.144 658.604 415.144ZM656.396 411.384C656.396 412.904 657.324 413.976 658.652 413.976C659.852 413.976 660.924 412.888 660.94 411.384C660.924 409.88 659.852 408.776 658.652 408.776C657.324 408.776 656.396 409.832 656.396 411.384ZM664.416 403.752H665.744V415.048H664.416V403.752ZM667.916 403.752H669.244V415.048H667.916V403.752ZM674.496 415.112C672.4 415.112 670.928 413.544 670.928 411.352C670.928 409.144 672.4 407.592 674.496 407.592C676.8 407.592 677.504 409.448 677.568 409.624C678.016 410.776 677.872 411.88 677.872 411.928H672.272C672.464 413.112 673.392 413.944 674.496 413.944C675.968 413.944 676.512 413.016 676.624 412.84L677.68 413.384C677.312 414.216 676.256 415.112 674.496 415.112ZM672.272 410.792L676.576 410.776C676.432 409.64 675.872 408.76 674.496 408.76C673.36 408.76 672.464 409.592 672.272 410.792ZM681.619 418.44H680.163L681.731 414.616L678.723 407.592H680.179L682.435 413.032L684.595 407.592H686.035L681.619 418.44ZM689.389 413.704L688.445 416.904H687.453L687.981 413.704H689.389ZM700.713 415.16C697.961 415.16 696.361 413.224 696.361 410.488V403.4H697.705V410.504C697.705 412.536 698.745 413.944 700.713 413.944C702.681 413.944 703.737 412.536 703.737 410.504V403.4H705.081V410.488C705.081 413.224 703.465 415.16 700.713 415.16ZM708.322 411.912C708.93 413.128 709.954 413.992 711.154 413.992C712.722 414.024 713.698 413.224 713.698 411.976C713.698 409 707.714 410.248 707.714 406.2C707.714 404.328 709.282 403.256 711.362 403.272C712.962 403.304 714.258 404.152 714.818 405.848L713.618 406.264C713.266 405.128 712.402 404.472 711.346 404.456C710.002 404.44 709.042 405.08 709.042 406.2C709.042 409.144 715.026 407.944 715.026 411.992C715.026 413.912 713.522 415.208 711.138 415.176C709.442 415.144 708.146 414.2 707.186 412.52L708.322 411.912Z" fill="#71717A"/>
</g>
<line x1="157.475" y1="263.466" x2="157.475" y2="375.466" stroke="#71717A" stroke-width="0.95" stroke-dasharray="2.85 2.85"/>
<g filter="url(#filter3_d_10914_52616)">
<rect x="427" y="213" width="220" height="84" rx="15.2" fill="#F5EBFB" shape-rendering="crispEdges"/>
<path d="M463.521 242.484C464.961 242.484 465.969 241.458 465.969 240C465.969 238.56 464.943 237.534 463.503 237.534H460.587V242.484H463.521ZM458.679 249.144V235.86H463.575C466.095 235.86 467.859 237.57 467.859 240C467.859 242.43 466.095 244.14 463.575 244.14H460.587V249.144H458.679ZM473.215 247.596C474.547 247.596 475.447 246.534 475.447 244.896C475.447 243.276 474.547 242.196 473.215 242.196C471.883 242.196 470.983 243.258 470.983 244.896C470.983 246.534 471.865 247.596 473.215 247.596ZM469.075 244.896C469.075 242.358 470.785 240.558 473.215 240.558C475.645 240.558 477.355 242.358 477.355 244.896C477.355 247.416 475.645 249.234 473.215 249.234C470.785 249.234 469.075 247.416 469.075 244.896ZM479.205 249.162V240.576H481.113V241.836C481.689 241.026 482.733 240.486 483.741 240.54V242.304C482.211 242.232 481.113 243.582 481.113 244.896V249.162H479.205ZM486.862 249.162V242.214H485.242V240.558H486.862V237.552H488.77V240.558H490.804V242.214H488.77V249.162H486.862ZM495.675 249.162H493.767V242.232H492.255V240.54H493.767V238.74C493.767 237.156 494.865 235.95 496.449 235.842C497.187 235.788 498.105 236.076 498.537 236.508L497.565 237.912C497.169 237.57 496.917 237.498 496.611 237.534C496.053 237.588 495.675 238.056 495.675 238.74V240.54H498.087V242.232H495.675V249.162ZM503.326 247.596C504.658 247.596 505.558 246.534 505.558 244.896C505.558 243.276 504.658 242.196 503.326 242.196C501.994 242.196 501.094 243.258 501.094 244.896C501.094 246.534 501.976 247.596 503.326 247.596ZM499.186 244.896C499.186 242.358 500.896 240.558 503.326 240.558C505.756 240.558 507.466 242.358 507.466 244.896C507.466 247.416 505.756 249.234 503.326 249.234C500.896 249.234 499.186 247.416 499.186 244.896ZM509.263 236.292H511.171V249.144H509.263V236.292ZM513.805 240.558H515.713V249.144H513.805V240.558ZM513.679 237.354C513.679 236.724 514.129 236.274 514.759 236.274C515.389 236.274 515.839 236.724 515.839 237.354C515.839 237.984 515.389 238.434 514.759 238.434C514.129 238.434 513.679 237.984 513.679 237.354ZM522.17 247.596C523.502 247.596 524.402 246.534 524.402 244.896C524.402 243.276 523.502 242.196 522.17 242.196C520.838 242.196 519.938 243.258 519.938 244.896C519.938 246.534 520.82 247.596 522.17 247.596ZM518.03 244.896C518.03 242.358 519.74 240.558 522.17 240.558C524.6 240.558 526.31 242.358 526.31 244.896C526.31 247.416 524.6 249.234 522.17 249.234C519.74 249.234 518.03 247.416 518.03 244.896ZM532.895 235.86H534.803V249.144H532.895V235.86ZM543.417 244.428C543.417 243.06 542.715 242.232 541.527 242.232C540.357 242.25 539.457 243.168 539.475 244.428V249.162H537.567V240.576H539.475V241.746C540.015 241.08 540.933 240.594 541.761 240.594C543.381 240.594 545.325 241.656 545.325 244.356V249.162H543.417V244.428ZM553.331 244.428C553.331 243.06 552.629 242.232 551.441 242.232C550.271 242.25 549.371 243.168 549.389 244.428V249.162H547.481V240.576H549.389V241.746C549.929 241.08 550.847 240.594 551.675 240.594C553.295 240.594 555.239 241.656 555.239 244.356V249.162H553.331V244.428ZM561.316 247.596C562.648 247.596 563.548 246.534 563.548 244.896C563.548 243.276 562.648 242.196 561.316 242.196C559.984 242.196 559.084 243.258 559.084 244.896C559.084 246.534 559.966 247.596 561.316 247.596ZM557.176 244.896C557.176 242.358 558.886 240.558 561.316 240.558C563.746 240.558 565.456 242.358 565.456 244.896C565.456 247.416 563.746 249.234 561.316 249.234C558.886 249.234 557.176 247.416 557.176 244.896ZM575.046 240.576L571.41 249.162H569.754L566.154 240.576H568.242L570.582 246.588L572.94 240.576H575.046ZM579.807 249.234C577.431 249.234 575.739 247.434 575.739 244.914C575.739 242.394 577.431 240.594 579.807 240.594C580.653 240.594 581.589 240.99 582.273 241.8V240.576H584.181V249.162H582.273V248.01C581.589 248.874 580.653 249.234 579.807 249.234ZM577.647 244.914C577.647 246.534 578.565 247.614 579.933 247.614C581.193 247.614 582.273 246.48 582.291 244.914C582.273 243.348 581.193 242.214 579.933 242.214C578.565 242.214 577.647 243.276 577.647 244.914ZM587.514 249.162V242.214H585.894V240.558H587.514V237.552H589.422V240.558H591.456V242.214H589.422V249.162H587.514ZM593.416 240.558H595.324V249.144H593.416V240.558ZM593.29 237.354C593.29 236.724 593.74 236.274 594.37 236.274C595 236.274 595.45 236.724 595.45 237.354C595.45 237.984 595 238.434 594.37 238.434C593.74 238.434 593.29 237.984 593.29 237.354ZM601.781 247.596C603.113 247.596 604.013 246.534 604.013 244.896C604.013 243.276 603.113 242.196 601.781 242.196C600.449 242.196 599.549 243.258 599.549 244.896C599.549 246.534 600.431 247.596 601.781 247.596ZM597.641 244.896C597.641 242.358 599.351 240.558 601.781 240.558C604.211 240.558 605.921 242.358 605.921 244.896C605.921 247.416 604.211 249.234 601.781 249.234C599.351 249.234 597.641 247.416 597.641 244.896ZM613.712 244.428C613.712 243.06 613.01 242.232 611.822 242.232C610.652 242.25 609.752 243.168 609.77 244.428V249.162H607.862V240.576H609.77V241.746C610.31 241.08 611.228 240.594 612.056 240.594C613.676 240.594 615.62 241.656 615.62 244.356V249.162H613.712V244.428ZM517.039 274.288C513.187 274.288 510.487 271.48 510.487 267.502C510.487 263.506 513.187 260.716 517.039 260.716C518.857 260.716 520.477 261.49 521.665 262.696L520.405 263.938C519.613 263.002 518.353 262.39 517.021 262.39C514.267 262.39 512.413 264.442 512.413 267.502C512.413 270.562 514.267 272.614 517.021 272.614C518.443 272.614 519.577 271.966 520.333 271.102L521.665 272.308C520.477 273.514 518.947 274.306 517.039 274.288ZM527.364 274.198C524.934 274.198 523.224 272.416 523.224 269.896C523.224 267.358 524.934 265.576 527.364 265.576C530.028 265.576 530.874 267.754 530.928 267.898C531.45 269.122 531.288 270.49 531.288 270.634H525.096C525.312 271.786 526.284 272.578 527.364 272.578C528.786 272.578 529.362 271.75 529.506 271.498L531.036 272.182C530.622 273.154 529.416 274.198 527.364 274.198ZM525.096 269.122H529.488C529.308 268.06 528.696 267.196 527.364 267.196C526.212 267.196 525.312 268.006 525.096 269.122ZM539.172 269.428C539.172 268.06 538.47 267.232 537.282 267.232C536.112 267.25 535.212 268.168 535.23 269.428V274.162H533.322V265.576H535.23V266.746C535.77 266.08 536.688 265.594 537.516 265.594C539.136 265.594 541.08 266.656 541.08 269.356V274.162H539.172V269.428ZM544.228 274.162V267.214H542.608V265.558H544.228V262.552H546.136V265.558H548.17V267.214H546.136V274.162H544.228ZM553.661 274.198C551.231 274.198 549.521 272.416 549.521 269.896C549.521 267.358 551.231 265.576 553.661 265.576C556.325 265.576 557.171 267.754 557.225 267.898C557.747 269.122 557.585 270.49 557.585 270.634H551.393C551.609 271.786 552.581 272.578 553.661 272.578C555.083 272.578 555.659 271.75 555.803 271.498L557.333 272.182C556.919 273.154 555.713 274.198 553.661 274.198ZM551.393 269.122H555.785C555.605 268.06 554.993 267.196 553.661 267.196C552.509 267.196 551.609 268.006 551.393 269.122ZM559.529 274.162V265.576H561.437V266.836C562.013 266.026 563.057 265.486 564.065 265.54V267.304C562.535 267.232 561.437 268.582 561.437 269.896V274.162H559.529Z" fill="#6D0CA6"/>
</g>
<g filter="url(#filter4_d_10914_52616)">
<rect x="47" y="213" width="220" height="84" rx="15.2" fill="#F5EBFB" shape-rendering="crispEdges"/>
<path d="M84.442 248.36L89.374 261.644H87.34L86.008 258.026H80.554L79.168 261.644H77.134L82.156 248.36H84.442ZM81.166 256.37H85.378L83.308 250.772L81.166 256.37ZM91.7842 248.36H93.6922V261.644H91.7842V248.36ZM112.197 248.36L107.571 261.644H105.339L100.425 248.36H102.459L106.437 259.07L110.163 248.36H112.197ZM116.565 261.734C114.189 261.734 112.497 259.934 112.497 257.414C112.497 254.894 114.189 253.094 116.565 253.094C117.411 253.094 118.347 253.49 119.031 254.3V253.076H120.939V261.662H119.031V260.51C118.347 261.374 117.411 261.734 116.565 261.734ZM114.405 257.414C114.405 259.034 115.323 260.114 116.691 260.114C117.951 260.114 119.031 258.98 119.049 257.414C119.031 255.848 117.951 254.714 116.691 254.714C115.323 254.714 114.405 255.776 114.405 257.414ZM123.26 248.792H125.168V261.644H123.26V248.792ZM129.584 257.972C129.584 259.286 130.358 260.096 131.492 260.096C132.698 260.096 133.526 259.304 133.508 257.99V253.076H135.434V261.662H133.508V260.672C132.968 261.338 132.086 261.734 131.24 261.734C129.17 261.734 127.676 260.24 127.676 258.044V253.076H129.584V257.972ZM141.686 261.698C139.256 261.698 137.546 259.916 137.546 257.396C137.546 254.858 139.256 253.076 141.686 253.076C144.35 253.076 145.196 255.254 145.25 255.398C145.772 256.622 145.61 257.99 145.61 258.134H139.418C139.634 259.286 140.606 260.078 141.686 260.078C143.108 260.078 143.684 259.25 143.828 258.998L145.358 259.682C144.944 260.654 143.738 261.698 141.686 261.698ZM139.418 256.622H143.81C143.63 255.56 143.018 254.696 141.686 254.696C140.534 254.696 139.634 255.506 139.418 256.622ZM147.852 253.922H155.7V255.83H147.852V253.922ZM160.117 257.972C160.117 259.286 160.891 260.096 162.025 260.096C163.231 260.096 164.059 259.304 164.041 257.99V253.076H165.967V261.662H164.041V260.672C163.501 261.338 162.619 261.734 161.773 261.734C159.703 261.734 158.209 260.24 158.209 258.044V253.076H160.117V257.972ZM172.813 260.096C174.199 260.096 175.099 259.016 175.099 257.378C175.099 255.74 174.199 254.66 172.813 254.66C171.517 254.66 170.455 255.866 170.455 257.378C170.455 258.89 171.517 260.096 172.813 260.096ZM168.529 265.46V253.058H170.437V254.318C171.121 253.418 172.255 253.058 172.921 253.058C175.315 253.058 177.007 254.84 177.007 257.378C177.007 259.934 175.315 261.716 172.921 261.716C172.237 261.716 171.121 261.338 170.437 260.438V265.46H168.529ZM189.949 261.788C186.097 261.788 183.397 258.98 183.397 255.002C183.397 251.006 186.097 248.216 189.949 248.216C191.767 248.216 193.387 248.99 194.575 250.196L193.315 251.438C192.523 250.502 191.263 249.89 189.931 249.89C187.177 249.89 185.323 251.942 185.323 255.002C185.323 258.062 187.177 260.114 189.931 260.114C191.353 260.114 192.487 259.466 193.243 258.602L194.575 259.808C193.387 261.014 191.857 261.806 189.949 261.788ZM200.274 261.698C197.844 261.698 196.134 259.916 196.134 257.396C196.134 254.858 197.844 253.076 200.274 253.076C202.938 253.076 203.784 255.254 203.838 255.398C204.36 256.622 204.198 257.99 204.198 258.134H198.006C198.222 259.286 199.194 260.078 200.274 260.078C201.696 260.078 202.272 259.25 202.416 258.998L203.946 259.682C203.532 260.654 202.326 261.698 200.274 261.698ZM198.006 256.622H202.398C202.218 255.56 201.606 254.696 200.274 254.696C199.122 254.696 198.222 255.506 198.006 256.622ZM212.082 256.928C212.082 255.56 211.38 254.732 210.192 254.732C209.022 254.75 208.122 255.668 208.14 256.928V261.662H206.232V253.076H208.14V254.246C208.68 253.58 209.598 253.094 210.426 253.094C212.046 253.094 213.99 254.156 213.99 256.856V261.662H212.082V256.928ZM217.138 261.662V254.714H215.518V253.058H217.138V250.052H219.046V253.058H221.08V254.714H219.046V261.662H217.138ZM226.571 261.698C224.141 261.698 222.431 259.916 222.431 257.396C222.431 254.858 224.141 253.076 226.571 253.076C229.235 253.076 230.081 255.254 230.135 255.398C230.657 256.622 230.495 257.99 230.495 258.134H224.303C224.519 259.286 225.491 260.078 226.571 260.078C227.993 260.078 228.569 259.25 228.713 258.998L230.243 259.682C229.829 260.654 228.623 261.698 226.571 261.698ZM224.303 256.622H228.695C228.515 255.56 227.903 254.696 226.571 254.696C225.419 254.696 224.519 255.506 224.303 256.622ZM232.439 261.662V253.076H234.347V254.336C234.923 253.526 235.967 252.986 236.975 253.04V254.804C235.445 254.732 234.347 256.082 234.347 257.396V261.662H232.439Z" fill="#6D0CA6"/>
</g>
<g filter="url(#filter5_d_10914_52616)">
<rect x="47" y="353" width="220" height="84" rx="15.2" fill="white" shape-rendering="crispEdges"/>
<path d="M94.004 375.32L98.388 387.128H96.58L95.396 383.912H90.548L89.316 387.128H87.508L91.972 375.32H94.004ZM91.092 382.44H94.836L92.996 377.464L91.092 382.44ZM100.53 375.32H102.226V387.128H100.53V375.32ZM118.675 375.32L114.563 387.128H112.579L108.211 375.32H110.019L113.555 384.84L116.867 375.32H118.675ZM122.558 387.208C120.446 387.208 118.942 385.608 118.942 383.368C118.942 381.128 120.446 379.528 122.558 379.528C123.31 379.528 124.142 379.88 124.75 380.6V379.512H126.446V387.144H124.75V386.12C124.142 386.888 123.31 387.208 122.558 387.208ZM120.638 383.368C120.638 384.808 121.454 385.768 122.67 385.768C123.79 385.768 124.75 384.76 124.766 383.368C124.75 381.976 123.79 380.968 122.67 380.968C121.454 380.968 120.638 381.912 120.638 383.368ZM128.509 375.704H130.205V387.128H128.509V375.704ZM134.13 383.864C134.13 385.032 134.818 385.752 135.826 385.752C136.898 385.752 137.634 385.048 137.618 383.88V379.512H139.33V387.144H137.618V386.264C137.138 386.856 136.354 387.208 135.602 387.208C133.762 387.208 132.434 385.88 132.434 383.928V379.512H134.13V383.864ZM144.888 387.176C142.728 387.176 141.208 385.592 141.208 383.352C141.208 381.096 142.728 379.512 144.888 379.512C147.256 379.512 148.008 381.448 148.056 381.576C148.52 382.664 148.376 383.88 148.376 384.008H142.872C143.064 385.032 143.928 385.736 144.888 385.736C146.152 385.736 146.664 385 146.792 384.776L148.152 385.384C147.784 386.248 146.712 387.176 144.888 387.176ZM142.872 382.664H146.776C146.616 381.72 146.072 380.952 144.888 380.952C143.864 380.952 143.064 381.672 142.872 382.664ZM150.368 380.264H157.344V381.96H150.368V380.264ZM161.271 383.864C161.271 385.032 161.959 385.752 162.967 385.752C164.039 385.752 164.775 385.048 164.759 383.88V379.512H166.471V387.144H164.759V386.264C164.279 386.856 163.495 387.208 162.743 387.208C160.903 387.208 159.575 385.88 159.575 383.928V379.512H161.271V383.864ZM172.556 385.752C173.788 385.752 174.588 384.792 174.588 383.336C174.588 381.88 173.788 380.92 172.556 380.92C171.404 380.92 170.46 381.992 170.46 383.336C170.46 384.68 171.404 385.752 172.556 385.752ZM168.748 390.52V379.496H170.444V380.616C171.052 379.816 172.06 379.496 172.652 379.496C174.78 379.496 176.284 381.08 176.284 383.336C176.284 385.608 174.78 387.192 172.652 387.192C172.044 387.192 171.052 386.856 170.444 386.056V390.52H168.748ZM193.436 380.936C193.436 381.336 193.42 381.8 193.42 381.96C193.42 385.272 191.164 387.208 187.884 387.256C184.444 387.256 182.012 384.76 182.012 381.224C182.012 377.688 184.444 375.208 187.884 375.208C191.58 375.208 192.876 378.056 192.876 378.056L191.42 378.808C191.42 378.808 190.492 376.696 187.884 376.696C185.388 376.696 183.708 378.52 183.708 381.224C183.708 383.944 185.388 385.768 187.884 385.768C190.028 385.704 191.74 384.664 191.756 382.344H188.076V380.936H193.436ZM195.369 387.144V379.512H197.065V380.632C197.577 379.912 198.505 379.432 199.401 379.48V381.048C198.041 380.984 197.065 382.184 197.065 383.352V387.144H195.369ZM203.95 385.752C205.134 385.752 205.934 384.808 205.934 383.352C205.934 381.912 205.134 380.952 203.95 380.952C202.766 380.952 201.966 381.896 201.966 383.352C201.966 384.808 202.75 385.752 203.95 385.752ZM200.27 383.352C200.27 381.096 201.79 379.496 203.95 379.496C206.11 379.496 207.63 381.096 207.63 383.352C207.63 385.592 206.11 387.208 203.95 387.208C201.79 387.208 200.27 385.592 200.27 383.352ZM211.224 383.864C211.224 385.032 211.912 385.752 212.92 385.752C213.992 385.752 214.728 385.048 214.712 383.88V379.512H216.424V387.144H214.712V386.264C214.232 386.856 213.448 387.208 212.696 387.208C210.856 387.208 209.528 385.88 209.528 383.928V379.512H211.224V383.864ZM222.51 385.752C223.742 385.752 224.542 384.792 224.542 383.336C224.542 381.88 223.742 380.92 222.51 380.92C221.358 380.92 220.414 381.992 220.414 383.336C220.414 384.68 221.358 385.752 222.51 385.752ZM218.702 390.52V379.496H220.398V380.616C221.006 379.816 222.014 379.496 222.606 379.496C224.734 379.496 226.238 381.08 226.238 383.336C226.238 385.608 224.734 387.192 222.606 387.192C221.998 387.192 221.006 386.856 220.398 386.056V390.52H218.702Z" fill="#6D0CA6"/>
<path d="M114.932 411.912C115.54 413.128 116.564 413.992 117.764 413.992C119.332 414.024 120.308 413.224 120.308 411.976C120.308 409 114.324 410.248 114.324 406.2C114.324 404.328 115.892 403.256 117.972 403.272C119.572 403.304 120.868 404.152 121.428 405.848L120.228 406.264C119.876 405.128 119.012 404.472 117.956 404.456C116.612 404.44 115.652 405.08 115.652 406.2C115.652 409.144 121.636 407.944 121.636 411.992C121.636 413.912 120.132 415.208 117.748 415.176C116.052 415.144 114.756 414.2 113.796 412.52L114.932 411.912ZM127.089 415.112C124.993 415.112 123.521 413.544 123.521 411.352C123.521 409.144 124.993 407.592 127.089 407.592C129.393 407.592 130.097 409.448 130.161 409.624C130.609 410.776 130.465 411.88 130.465 411.928H124.865C125.057 413.112 125.985 413.944 127.089 413.944C128.561 413.944 129.105 413.016 129.217 412.84L130.273 413.384C129.905 414.216 128.849 415.112 127.089 415.112ZM124.865 410.792L129.169 410.776C129.025 409.64 128.465 408.76 127.089 408.76C125.953 408.76 125.057 409.592 124.865 410.792ZM135.589 413.96C136.917 413.96 137.829 412.904 137.829 411.368C137.829 409.832 136.917 408.76 135.589 408.76C134.277 408.76 133.365 409.816 133.365 411.368C133.365 412.92 134.261 413.96 135.589 413.96ZM132.037 411.368C132.037 409.16 133.509 407.576 135.589 407.576C137.685 407.576 139.173 409.16 139.173 411.368C139.173 413.56 137.685 415.144 135.589 415.144C133.509 415.144 132.037 413.56 132.037 411.368ZM142.466 411.928C142.466 413.112 143.186 413.976 144.226 413.976C145.41 413.976 146.226 413.224 146.226 412.04V407.592H147.57V415.048H146.226V414.104C145.73 414.744 144.898 415.16 144.146 415.16C142.386 415.16 141.122 413.832 141.122 412.04V407.592H142.466V411.928ZM149.713 403.752H151.041V415.048H149.713V403.752ZM154.717 413.704L153.773 416.904H152.781L153.309 413.704H154.717ZM169.977 403.4L165.337 408.568L170.073 415.048H168.409L164.425 409.608L163.001 411.176V415.048H161.657V403.416H163.001V409.176L168.169 403.4H169.977ZM174.495 413.96C175.823 413.96 176.735 412.904 176.735 411.368C176.735 409.832 175.823 408.76 174.495 408.76C173.183 408.76 172.271 409.816 172.271 411.368C172.271 412.92 173.167 413.96 174.495 413.96ZM170.943 411.368C170.943 409.16 172.415 407.576 174.495 407.576C176.591 407.576 178.079 409.16 178.079 411.368C178.079 413.56 176.591 415.144 174.495 415.144C172.415 415.144 170.943 413.56 170.943 411.368ZM179.792 415.048V407.592H181.12V408.824C181.616 408.024 182.624 407.48 183.616 407.528V408.808C182.256 408.76 181.12 409.944 181.12 411.256V415.048H179.792ZM188.121 415.112C186.025 415.112 184.553 413.544 184.553 411.352C184.553 409.144 186.025 407.592 188.121 407.592C190.425 407.592 191.129 409.448 191.193 409.624C191.641 410.776 191.497 411.88 191.497 411.928H185.897C186.089 413.112 187.017 413.944 188.121 413.944C189.593 413.944 190.137 413.016 190.249 412.84L191.305 413.384C190.937 414.216 189.881 415.112 188.121 415.112ZM185.897 410.792L190.201 410.776C190.057 409.64 189.497 408.76 188.121 408.76C186.985 408.76 186.089 409.592 185.897 410.792ZM196.604 415.144C194.54 415.144 193.068 413.576 193.068 411.384C193.068 409.176 194.54 407.608 196.604 407.608C197.404 407.608 198.284 408.008 198.924 408.872V407.592H200.252V415.048H198.924V413.848C198.268 414.792 197.404 415.144 196.604 415.144ZM194.396 411.384C194.396 412.904 195.324 413.976 196.652 413.976C197.852 413.976 198.924 412.888 198.94 411.384C198.924 409.88 197.852 408.776 196.652 408.776C195.324 408.776 194.396 409.832 194.396 411.384Z" fill="#71717A"/>
</g>
<defs>
<filter id="filter0_d_10914_52616" x="214.8" y="38.8" width="316.4" height="152.4" filterUnits="userSpaceOnUse" color-interpolation-filters="sRGB">
<feFlood flood-opacity="0" result="BackgroundImageFix"/>
<feColorMatrix in="SourceAlpha" type="matrix" values="0 0 0 0 0 0 0 0 0 0 0 0 0 0 0 0 0 0 127 0" result="hardAlpha"/>
<feOffset/>
<feGaussianBlur stdDeviation="17.1"/>
<feComposite in2="hardAlpha" operator="out"/>
<feColorMatrix type="matrix" values="0 0 0 0 0.592485 0 0 0 0 0.207569 0 0 0 0 0.816667 0 0 0 0.5 0"/>
<feBlend mode="normal" in2="BackgroundImageFix" result="effect1_dropShadow_10914_52616"/>
<feBlend mode="normal" in="SourceGraphic" in2="effect1_dropShadow_10914_52616" result="shape"/>
</filter>
<filter id="filter1_d_10914_52616" x="303.658" y="348.993" width="230.685" height="94.6849" filterUnits="userSpaceOnUse" color-interpolation-filters="sRGB">
<feFlood flood-opacity="0" result="BackgroundImageFix"/>
<feColorMatrix in="SourceAlpha" type="matrix" values="0 0 0 0 0 0 0 0 0 0 0 0 0 0 0 0 0 0 127 0" result="hardAlpha"/>
<feOffset dy="1.33562"/>
<feGaussianBlur stdDeviation="2.67123"/>
<feComposite in2="hardAlpha" operator="out"/>
<feColorMatrix type="matrix" values="0 0 0 0 0 0 0 0 0 0 0 0 0 0 0 0 0 0 0.1 0"/>
<feBlend mode="normal" in2="BackgroundImageFix" result="effect1_dropShadow_10914_52616"/>
<feBlend mode="normal" in="SourceGraphic" in2="effect1_dropShadow_10914_52616" result="shape"/>
</filter>
<filter id="filter2_d_10914_52616" x="539.658" y="348.993" width="230.685" height="94.6849" filterUnits="userSpaceOnUse" color-interpolation-filters="sRGB">
<feFlood flood-opacity="0" result="BackgroundImageFix"/>
<feColorMatrix in="SourceAlpha" type="matrix" values="0 0 0 0 0 0 0 0 0 0 0 0 0 0 0 0 0 0 127 0" result="hardAlpha"/>
<feOffset dy="1.33562"/>
<feGaussianBlur stdDeviation="2.67123"/>
<feComposite in2="hardAlpha" operator="out"/>
<feColorMatrix type="matrix" values="0 0 0 0 0 0 0 0 0 0 0 0 0 0 0 0 0 0 0.1 0"/>
<feBlend mode="normal" in2="BackgroundImageFix" result="effect1_dropShadow_10914_52616"/>
<feBlend mode="normal" in="SourceGraphic" in2="effect1_dropShadow_10914_52616" result="shape"/>
</filter>
<filter id="filter3_d_10914_52616" x="421.658" y="208.993" width="230.685" height="94.6849" filterUnits="userSpaceOnUse" color-interpolation-filters="sRGB">
<feFlood flood-opacity="0" result="BackgroundImageFix"/>
<feColorMatrix in="SourceAlpha" type="matrix" values="0 0 0 0 0 0 0 0 0 0 0 0 0 0 0 0 0 0 127 0" result="hardAlpha"/>
<feOffset dy="1.33562"/>
<feGaussianBlur stdDeviation="2.67123"/>
<feComposite in2="hardAlpha" operator="out"/>
<feColorMatrix type="matrix" values="0 0 0 0 0 0 0 0 0 0 0 0 0 0 0 0 0 0 0.1 0"/>
<feBlend mode="normal" in2="BackgroundImageFix" result="effect1_dropShadow_10914_52616"/>
<feBlend mode="normal" in="SourceGraphic" in2="effect1_dropShadow_10914_52616" result="shape"/>
</filter>
<filter id="filter4_d_10914_52616" x="41.6575" y="208.993" width="230.685" height="94.6849" filterUnits="userSpaceOnUse" color-interpolation-filters="sRGB">
<feFlood flood-opacity="0" result="BackgroundImageFix"/>
<feColorMatrix in="SourceAlpha" type="matrix" values="0 0 0 0 0 0 0 0 0 0 0 0 0 0 0 0 0 0 127 0" result="hardAlpha"/>
<feOffset dy="1.33562"/>
<feGaussianBlur stdDeviation="2.67123"/>
<feComposite in2="hardAlpha" operator="out"/>
<feColorMatrix type="matrix" values="0 0 0 0 0 0 0 0 0 0 0 0 0 0 0 0 0 0 0.1 0"/>
<feBlend mode="normal" in2="BackgroundImageFix" result="effect1_dropShadow_10914_52616"/>
<feBlend mode="normal" in="SourceGraphic" in2="effect1_dropShadow_10914_52616" result="shape"/>
</filter>
<filter id="filter5_d_10914_52616" x="41.6575" y="348.993" width="230.685" height="94.6849" filterUnits="userSpaceOnUse" color-interpolation-filters="sRGB">
<feFlood flood-opacity="0" result="BackgroundImageFix"/>
<feColorMatrix in="SourceAlpha" type="matrix" values="0 0 0 0 0 0 0 0 0 0 0 0 0 0 0 0 0 0 127 0" result="hardAlpha"/>
<feOffset dy="1.33562"/>
<feGaussianBlur stdDeviation="2.67123"/>
<feComposite in2="hardAlpha" operator="out"/>
<feColorMatrix type="matrix" values="0 0 0 0 0 0 0 0 0 0 0 0 0 0 0 0 0 0 0.1 0"/>
<feBlend mode="normal" in2="BackgroundImageFix" result="effect1_dropShadow_10914_52616"/>
<feBlend mode="normal" in="SourceGraphic" in2="effect1_dropShadow_10914_52616" result="shape"/>
</filter>
</defs>
</svg>
