<svg width="793" height="360" viewBox="0 0 793 360" fill="none" xmlns="http://www.w3.org/2000/svg">
<rect width="793" height="360" rx="16" fill="#F6F6F7"/>
<line x1="337.3" y1="179.525" x2="388.6" y2="179.525" stroke="#71717A" stroke-width="0.95" stroke-dasharray="2.85 2.85"/>
<path d="M444.65 264.55L398.1 264.55C393.903 264.55 390.5 261.147 390.5 256.95L390.5 102.1C390.5 97.9026 393.903 94.5 398.1 94.5L444.65 94.5" stroke="#71717A" stroke-width="0.95" stroke-dasharray="2.85 2.85"/>
<g filter="url(#filter0_d_3991_16182)">
<rect x="50.3999" y="127.8" width="286.9" height="104.4" rx="15.2" fill="#9735D0" shape-rendering="crispEdges"/>
<path d="M134.816 179.359C134.816 179.929 134.794 180.59 134.794 180.818C134.794 185.538 131.579 188.296 126.905 188.365C122.003 188.365 118.537 184.808 118.537 179.769C118.537 174.73 122.003 171.196 126.905 171.196C132.172 171.196 134.018 175.255 134.018 175.255L131.944 176.326C131.944 176.326 130.621 173.317 126.905 173.317C123.348 173.317 120.954 175.916 120.954 179.769C120.954 183.645 123.348 186.244 126.905 186.244C129.96 186.153 132.4 184.671 132.422 181.365H127.178V179.359H134.816ZM137.503 171.903H139.92V188.182H137.503V171.903ZM147.439 186.222C149.126 186.222 150.266 184.876 150.266 182.802C150.266 180.75 149.126 179.382 147.439 179.382C145.752 179.382 144.612 180.727 144.612 182.802C144.612 184.876 145.729 186.222 147.439 186.222ZM142.195 182.802C142.195 179.587 144.361 177.307 147.439 177.307C150.517 177.307 152.683 179.587 152.683 182.802C152.683 185.994 150.517 188.296 147.439 188.296C144.361 188.296 142.195 185.994 142.195 182.802ZM160.727 188.319C159.952 188.319 158.584 187.977 157.581 186.7V188.228H155.164V171.903H157.581V178.948C158.584 177.626 159.952 177.33 160.75 177.33C163.76 177.33 165.926 179.61 165.926 182.824C165.926 186.039 163.76 188.319 160.727 188.319ZM157.581 182.847C157.581 184.785 158.926 186.29 160.591 186.29C162.346 186.29 163.509 184.922 163.509 182.847C163.509 180.772 162.346 179.427 160.591 179.427C158.926 179.427 157.581 180.955 157.581 182.847ZM173.198 188.296C170.189 188.296 168.045 186.016 168.045 182.824C168.045 179.632 170.189 177.352 173.198 177.352C174.27 177.352 175.455 177.854 176.322 178.88V177.33H178.739V188.205H176.322V186.746C175.455 187.84 174.27 188.296 173.198 188.296ZM170.462 182.824C170.462 184.876 171.625 186.244 173.358 186.244C174.954 186.244 176.322 184.808 176.345 182.824C176.322 180.841 174.954 179.404 173.358 179.404C171.625 179.404 170.462 180.75 170.462 182.824ZM181.678 171.903H184.095V188.182H181.678V171.903ZM191.591 181.684H209.968V183.736H202.034V189.87H199.503V183.736H191.591V181.684ZM193.962 179.997V170.421H207.779V172.405H196.425V174.183H207.346V176.121H196.425V177.991H208.007V179.997H193.962ZM211.884 171.538H222.965V173.613H218.747V175.3C218.747 178.424 220.616 182.026 223.785 183.508L222.395 185.492C220.115 184.398 218.45 182.232 217.538 179.724C216.626 182.482 214.893 184.854 212.568 185.994L211.131 184.01C214.301 182.482 216.261 178.675 216.261 175.3V173.613H211.884V171.538ZM224.789 189.847V169.555H227.319V177.466H230.397V179.541H227.319V189.847H224.789ZM239.586 174.366H242.277V169.897H244.625V184.147H242.277V176.395H239.586V174.366ZM231.31 180.111C234.023 178.789 235.277 176.076 235.277 173.682V170.923H237.694V173.682C237.694 176.053 238.857 178.401 241.365 179.61L239.997 181.502C238.332 180.727 237.169 179.359 236.508 177.717C235.779 179.564 234.502 181.137 232.678 182.004L231.31 180.111ZM235.163 189.436V182.938H237.671V187.43H249.208V189.436H235.163ZM246.289 184.74V169.555H248.661V184.74H246.289ZM265.807 169.509H268.292V189.87H265.807V178.903H262.022V176.896H265.807V169.509ZM252.309 185.173V171.288H261.68V173.34H254.794V176.942H260.928V178.926H254.794V183.144C257.872 183.121 260.152 183.03 262.752 182.596L263.002 184.603C260.061 185.082 257.508 185.173 253.905 185.173H252.309Z" fill="white"/>
</g>
<g filter="url(#filter1_d_3991_16182)">
<rect x="444.65" y="54.6" width="298.3" height="106.4" rx="15.2" fill="white" shape-rendering="crispEdges"/>
<path d="M499.772 92.199C499.772 92.674 499.753 93.225 499.753 93.415C499.753 97.348 497.074 99.647 493.179 99.704C489.094 99.704 486.206 96.74 486.206 92.541C486.206 88.342 489.094 85.397 493.179 85.397C497.568 85.397 499.107 88.779 499.107 88.779L497.378 89.672C497.378 89.672 496.276 87.164 493.179 87.164C490.215 87.164 488.22 89.33 488.22 92.541C488.22 95.771 490.215 97.937 493.179 97.937C495.725 97.861 497.758 96.626 497.777 93.871H493.407V92.199H499.772ZM502.01 85.986H504.024V99.552H502.01V85.986ZM510.291 97.918C511.697 97.918 512.647 96.797 512.647 95.068C512.647 93.358 511.697 92.218 510.291 92.218C508.885 92.218 507.935 93.339 507.935 95.068C507.935 96.797 508.866 97.918 510.291 97.918ZM505.921 95.068C505.921 92.389 507.726 90.489 510.291 90.489C512.856 90.489 514.661 92.389 514.661 95.068C514.661 97.728 512.856 99.647 510.291 99.647C507.726 99.647 505.921 97.728 505.921 95.068ZM521.364 99.666C520.718 99.666 519.578 99.381 518.742 98.317V99.59H516.728V85.986H518.742V91.857C519.578 90.755 520.718 90.508 521.383 90.508C523.891 90.508 525.696 92.408 525.696 95.087C525.696 97.766 523.891 99.666 521.364 99.666ZM518.742 95.106C518.742 96.721 519.863 97.975 521.25 97.975C522.713 97.975 523.682 96.835 523.682 95.106C523.682 93.377 522.713 92.256 521.25 92.256C519.863 92.256 518.742 93.529 518.742 95.106ZM531.757 99.647C529.249 99.647 527.463 97.747 527.463 95.087C527.463 92.427 529.249 90.527 531.757 90.527C532.65 90.527 533.638 90.945 534.36 91.8V90.508H536.374V99.571H534.36V98.355C533.638 99.267 532.65 99.647 531.757 99.647ZM529.477 95.087C529.477 96.797 530.446 97.937 531.89 97.937C533.22 97.937 534.36 96.74 534.379 95.087C534.36 93.434 533.22 92.237 531.89 92.237C530.446 92.237 529.477 93.358 529.477 95.087ZM538.823 85.986H540.837V99.552H538.823V85.986ZM547.996 85.53H550.01V99.552H547.996V85.53ZM559.103 94.574C559.103 93.13 558.362 92.256 557.108 92.256C555.873 92.275 554.923 93.244 554.942 94.574V99.571H552.928V90.508H554.942V91.743C555.512 91.04 556.481 90.527 557.355 90.527C559.065 90.527 561.117 91.648 561.117 94.498V99.571H559.103V94.574ZM572.172 90.508L568.334 99.571H566.586L562.786 90.508H564.99L567.46 96.854L569.949 90.508H572.172ZM577.273 99.609C574.708 99.609 572.903 97.728 572.903 95.068C572.903 92.389 574.708 90.508 577.273 90.508C580.085 90.508 580.978 92.807 581.035 92.959C581.586 94.251 581.415 95.695 581.415 95.847H574.879C575.107 97.063 576.133 97.899 577.273 97.899C578.774 97.899 579.382 97.025 579.534 96.759L581.149 97.481C580.712 98.507 579.439 99.609 577.273 99.609ZM574.879 94.251H579.515C579.325 93.13 578.679 92.218 577.273 92.218C576.057 92.218 575.107 93.073 574.879 94.251ZM584.816 96.455C585.215 97.443 586.203 97.899 586.811 97.899C587.761 97.899 588.369 97.538 588.369 96.911C588.369 96.341 587.533 96.075 586.602 95.752C585.367 95.315 583.619 94.726 583.619 92.978C583.619 91.382 585.082 90.413 586.944 90.413C588.065 90.413 589.737 91.059 590.193 92.693L588.502 93.301C588.198 92.294 587.381 92.142 586.944 92.142C586.146 92.142 585.633 92.465 585.633 92.978C585.633 93.548 586.412 93.776 587.381 94.118C588.673 94.574 590.383 95.163 590.383 96.892C590.383 98.545 588.92 99.628 586.811 99.628C585.424 99.628 583.904 98.754 583.239 97.367L584.816 96.455ZM593.534 99.571V92.237H591.824V90.489H593.534V87.316H595.548V90.489H597.695V92.237H595.548V99.571H593.534ZM611.107 94.422C611.107 93.13 610.404 92.275 609.378 92.275C608.219 92.275 607.44 93.168 607.44 94.327V99.571H605.407V94.422C605.407 93.13 604.723 92.275 603.716 92.275C602.557 92.275 601.74 93.263 601.74 94.536V99.571H599.726V90.508H601.74V91.743C602.272 91.021 603.051 90.527 603.906 90.527C604.989 90.527 606.053 91.211 606.585 92.161C607.212 91.211 608.428 90.527 609.511 90.527C611.658 90.527 613.14 92.123 613.14 94.346V99.571H611.107V94.422ZM619.726 99.609C617.161 99.609 615.356 97.728 615.356 95.068C615.356 92.389 617.161 90.508 619.726 90.508C622.538 90.508 623.431 92.807 623.488 92.959C624.039 94.251 623.868 95.695 623.868 95.847H617.332C617.56 97.063 618.586 97.899 619.726 97.899C621.227 97.899 621.835 97.025 621.987 96.759L623.602 97.481C623.165 98.507 621.892 99.609 619.726 99.609ZM617.332 94.251H621.968C621.778 93.13 621.132 92.218 619.726 92.218C618.51 92.218 617.56 93.073 617.332 94.251ZM632.19 94.574C632.19 93.13 631.449 92.256 630.195 92.256C628.96 92.275 628.01 93.244 628.029 94.574V99.571H626.015V90.508H628.029V91.743C628.599 91.04 629.568 90.527 630.442 90.527C632.152 90.527 634.204 91.648 634.204 94.498V99.571H632.19V94.574ZM637.527 99.571V92.237H635.817V90.489H637.527V87.316H639.541V90.489H641.688V92.237H639.541V99.571H637.527ZM662.144 92.199C662.144 92.674 662.125 93.225 662.125 93.415C662.125 97.348 659.446 99.647 655.551 99.704C651.466 99.704 648.578 96.74 648.578 92.541C648.578 88.342 651.466 85.397 655.551 85.397C659.94 85.397 661.479 88.779 661.479 88.779L659.75 89.672C659.75 89.672 658.648 87.164 655.551 87.164C652.587 87.164 650.592 89.33 650.592 92.541C650.592 95.771 652.587 97.937 655.551 97.937C658.097 97.861 660.13 96.626 660.149 93.871H655.779V92.199H662.144ZM664.439 99.571V90.508H666.453V91.838C667.061 90.983 668.163 90.413 669.227 90.47V92.332C667.612 92.256 666.453 93.681 666.453 95.068V99.571H664.439ZM674.629 97.918C676.035 97.918 676.985 96.797 676.985 95.068C676.985 93.358 676.035 92.218 674.629 92.218C673.223 92.218 672.273 93.339 672.273 95.068C672.273 96.797 673.204 97.918 674.629 97.918ZM670.259 95.068C670.259 92.389 672.064 90.489 674.629 90.489C677.194 90.489 678.999 92.389 678.999 95.068C678.999 97.728 677.194 99.647 674.629 99.647C672.064 99.647 670.259 97.728 670.259 95.068ZM683.267 95.676C683.267 97.063 684.084 97.918 685.281 97.918C686.554 97.918 687.428 97.082 687.409 95.695V90.508H689.442V99.571H687.409V98.526C686.839 99.229 685.908 99.647 685.015 99.647C682.83 99.647 681.253 98.07 681.253 95.752V90.508H683.267V95.676ZM696.669 97.918C698.132 97.918 699.082 96.778 699.082 95.049C699.082 93.32 698.132 92.18 696.669 92.18C695.301 92.18 694.18 93.453 694.18 95.049C694.18 96.645 695.301 97.918 696.669 97.918ZM692.147 103.58V90.489H694.161V91.819C694.883 90.869 696.08 90.489 696.783 90.489C699.31 90.489 701.096 92.37 701.096 95.049C701.096 97.747 699.31 99.628 696.783 99.628C696.061 99.628 694.883 99.229 694.161 98.279V103.58H692.147Z" fill="#6D0CA6"/>
<path d="M556.603 118.803L551.644 124.326L556.705 131.251H554.927L550.669 125.437L549.147 127.113V131.251H547.711V118.82H549.147V124.976L554.67 118.803H556.603ZM561.432 130.089C562.851 130.089 563.826 128.96 563.826 127.318C563.826 125.677 562.851 124.531 561.432 124.531C560.029 124.531 559.055 125.66 559.055 127.318C559.055 128.977 560.012 130.089 561.432 130.089ZM557.635 127.318C557.635 124.959 559.209 123.266 561.432 123.266C563.672 123.266 565.262 124.959 565.262 127.318C565.262 129.661 563.672 131.354 561.432 131.354C559.209 131.354 557.635 129.661 557.635 127.318ZM567.093 131.251V123.283H568.512V124.599C569.042 123.744 570.12 123.163 571.18 123.214V124.582C569.726 124.531 568.512 125.796 568.512 127.199V131.251H567.093ZM575.994 131.32C573.754 131.32 572.18 129.644 572.18 127.301C572.18 124.941 573.754 123.283 575.994 123.283C578.456 123.283 579.209 125.266 579.277 125.454C579.756 126.686 579.602 127.866 579.602 127.917H573.617C573.822 129.182 574.814 130.071 575.994 130.071C577.567 130.071 578.148 129.08 578.268 128.892L579.397 129.473C579.003 130.362 577.875 131.32 575.994 131.32ZM573.617 126.703L578.217 126.686C578.063 125.472 577.464 124.531 575.994 124.531C574.78 124.531 573.822 125.42 573.617 126.703ZM585.061 131.354C582.855 131.354 581.282 129.678 581.282 127.335C581.282 124.976 582.855 123.3 585.061 123.3C585.916 123.3 586.856 123.727 587.54 124.651V123.283H588.959V131.251H587.54V129.969C586.839 130.978 585.916 131.354 585.061 131.354ZM582.701 127.335C582.701 128.96 583.693 130.106 585.112 130.106C586.394 130.106 587.54 128.943 587.557 127.335C587.54 125.728 586.394 124.548 585.112 124.548C583.693 124.548 582.701 125.677 582.701 127.335ZM593.046 129.815L592.038 133.235H590.977L591.542 129.815H593.046ZM601.592 127.9C602.242 129.199 603.336 130.123 604.619 130.123C606.295 130.157 607.338 129.302 607.338 127.968C607.338 124.788 600.942 126.121 600.942 121.795C600.942 119.794 602.618 118.649 604.841 118.666C606.551 118.7 607.936 119.606 608.535 121.419L607.252 121.863C606.876 120.649 605.953 119.948 604.824 119.931C603.388 119.914 602.362 120.598 602.362 121.795C602.362 124.941 608.757 123.659 608.757 127.985C608.757 130.037 607.15 131.422 604.602 131.388C602.789 131.354 601.404 130.345 600.378 128.55L601.592 127.9ZM614.586 131.32C612.346 131.32 610.772 129.644 610.772 127.301C610.772 124.941 612.346 123.283 614.586 123.283C617.048 123.283 617.8 125.266 617.869 125.454C618.348 126.686 618.194 127.866 618.194 127.917H612.209C612.414 129.182 613.406 130.071 614.586 130.071C616.159 130.071 616.74 129.08 616.86 128.892L617.989 129.473C617.595 130.362 616.467 131.32 614.586 131.32ZM612.209 126.703L616.809 126.686C616.655 125.472 616.056 124.531 614.586 124.531C613.372 124.531 612.414 125.42 612.209 126.703ZM623.67 130.089C625.089 130.089 626.064 128.96 626.064 127.318C626.064 125.677 625.089 124.531 623.67 124.531C622.267 124.531 621.293 125.66 621.293 127.318C621.293 128.977 622.25 130.089 623.67 130.089ZM619.873 127.318C619.873 124.959 621.447 123.266 623.67 123.266C625.91 123.266 627.5 124.959 627.5 127.318C627.5 129.661 625.91 131.354 623.67 131.354C621.447 131.354 619.873 129.661 619.873 127.318ZM631.02 127.917C631.02 129.182 631.789 130.106 632.901 130.106C634.166 130.106 635.038 129.302 635.038 128.037V123.283H636.475V131.251H635.038V130.242C634.508 130.926 633.619 131.371 632.815 131.371C630.934 131.371 629.583 129.952 629.583 128.037V123.283H631.02V127.917ZM638.765 119.179H640.184V131.251H638.765V119.179Z" fill="#71717A"/>
</g>
<g filter="url(#filter2_d_3991_16182)">
<rect x="444.65" y="199" width="298.3" height="106.4" rx="15.2" fill="white" shape-rendering="crispEdges"/>
<path d="M552.498 229.93V243.952H550.465V237.625H543.853V243.952H541.839V229.93H543.853V235.877H550.465V229.93H552.498ZM555.569 234.889H557.583V243.952H555.569V234.889ZM555.436 231.507C555.436 230.842 555.911 230.367 556.576 230.367C557.241 230.367 557.716 230.842 557.716 231.507C557.716 232.172 557.241 232.647 556.576 232.647C555.911 232.647 555.436 232.172 555.436 231.507ZM564.152 242.109C564.855 242.109 565.672 241.748 566.185 241.178L567.572 242.565C566.793 243.42 565.368 244.028 564.228 244.028C561.53 244.028 559.63 242.128 559.63 239.468C559.63 236.789 561.53 234.889 564.228 234.889C565.425 234.889 566.755 235.497 567.572 236.371L566.185 237.739C565.672 237.169 564.855 236.808 564.152 236.808C562.651 236.808 561.644 237.853 561.644 239.468C561.644 241.064 562.651 242.109 564.152 242.109ZM573.138 242.318C574.544 242.318 575.494 241.197 575.494 239.468C575.494 237.758 574.544 236.618 573.138 236.618C571.732 236.618 570.782 237.739 570.782 239.468C570.782 241.197 571.713 242.318 573.138 242.318ZM568.768 239.468C568.768 236.789 570.573 234.889 573.138 234.889C575.703 234.889 577.508 236.789 577.508 239.468C577.508 242.128 575.703 244.047 573.138 244.047C570.573 244.047 568.768 242.128 568.768 239.468ZM591.185 244.104C587.119 244.104 584.269 241.14 584.269 236.941C584.269 232.723 587.119 229.778 591.185 229.778C593.104 229.778 594.814 230.595 596.068 231.868L594.738 233.179C593.902 232.191 592.572 231.545 591.166 231.545C588.259 231.545 586.302 233.711 586.302 236.941C586.302 240.171 588.259 242.337 591.166 242.337C592.667 242.337 593.864 241.653 594.662 240.741L596.068 242.014C594.814 243.287 593.199 244.123 591.185 244.104ZM602.008 244.047C599.5 244.047 597.714 242.147 597.714 239.487C597.714 236.827 599.5 234.927 602.008 234.927C602.901 234.927 603.889 235.345 604.611 236.2V234.908H606.625V243.971H604.611V242.755C603.889 243.667 602.901 244.047 602.008 244.047ZM599.728 239.487C599.728 241.197 600.697 242.337 602.141 242.337C603.471 242.337 604.611 241.14 604.63 239.487C604.611 237.834 603.471 236.637 602.141 236.637C600.697 236.637 599.728 237.758 599.728 239.487ZM613.732 242.318C615.195 242.318 616.145 241.178 616.145 239.449C616.145 237.72 615.195 236.58 613.732 236.58C612.364 236.58 611.243 237.853 611.243 239.449C611.243 241.045 612.364 242.318 613.732 242.318ZM609.21 247.98V234.889H611.224V236.219C611.946 235.269 613.143 234.889 613.846 234.889C616.373 234.889 618.159 236.77 618.159 239.449C618.159 242.147 616.373 244.028 613.846 244.028C613.124 244.028 611.946 243.629 611.224 242.679V247.98H609.21ZM620.344 234.889H622.358V243.952H620.344V234.889ZM620.211 231.507C620.211 230.842 620.686 230.367 621.351 230.367C622.016 230.367 622.491 230.842 622.491 231.507C622.491 232.172 622.016 232.647 621.351 232.647C620.686 232.647 620.211 232.172 620.211 231.507ZM626.304 243.971V236.637H624.594V234.889H626.304V231.716H628.318V234.889H630.465V236.637H628.318V243.971H626.304ZM636.185 244.047C633.677 244.047 631.891 242.147 631.891 239.487C631.891 236.827 633.677 234.927 636.185 234.927C637.078 234.927 638.066 235.345 638.788 236.2V234.908H640.802V243.971H638.788V242.755C638.066 243.667 637.078 244.047 636.185 244.047ZM633.905 239.487C633.905 241.197 634.874 242.337 636.318 242.337C637.648 242.337 638.788 241.14 638.807 239.487C638.788 237.834 637.648 236.637 636.318 236.637C634.874 236.637 633.905 237.758 633.905 239.487ZM643.252 230.386H645.266V243.952H643.252V230.386Z" fill="#6D0CA6"/>
<path d="M534.578 275.771C531.637 275.771 529.927 273.702 529.927 270.778V263.202H531.363V270.795C531.363 272.967 532.475 274.471 534.578 274.471C536.681 274.471 537.81 272.967 537.81 270.795V263.202H539.246V270.778C539.246 273.702 537.519 275.771 534.578 275.771ZM542.711 272.3C543.36 273.599 544.455 274.523 545.737 274.523C547.413 274.557 548.456 273.702 548.456 272.368C548.456 269.187 542.061 270.521 542.061 266.195C542.061 264.194 543.737 263.049 545.96 263.066C547.67 263.1 549.055 264.006 549.653 265.819L548.371 266.263C547.995 265.049 547.071 264.348 545.943 264.331C544.506 264.314 543.48 264.998 543.48 266.195C543.48 269.341 549.876 268.059 549.876 272.385C549.876 274.437 548.268 275.822 545.72 275.788C543.908 275.754 542.523 274.745 541.497 272.949L542.711 272.3ZM553.853 274.215L552.845 277.635H551.784L552.349 274.215H553.853ZM562.399 272.3C563.049 273.599 564.143 274.523 565.426 274.523C567.101 274.557 568.145 273.702 568.145 272.368C568.145 269.187 561.749 270.521 561.749 266.195C561.749 264.194 563.425 263.049 565.648 263.066C567.358 263.1 568.743 264.006 569.342 265.819L568.059 266.263C567.683 265.049 566.759 264.348 565.631 264.331C564.194 264.314 563.168 264.998 563.168 266.195C563.168 269.341 569.564 268.059 569.564 272.385C569.564 274.437 567.956 275.822 565.409 275.788C563.596 275.754 562.211 274.745 561.185 272.949L562.399 272.3ZM572.157 267.666H573.576V275.651H572.157V267.666ZM572.003 264.57C572.003 264.075 572.362 263.715 572.875 263.715C573.371 263.715 573.73 264.075 573.73 264.57C573.73 265.083 573.371 265.443 572.875 265.443C572.362 265.443 572.003 265.083 572.003 264.57ZM576.009 263.579H577.428V275.651H576.009V263.579ZM579.972 267.666H581.391V275.651H579.972V267.666ZM579.818 264.57C579.818 264.075 580.177 263.715 580.69 263.715C581.186 263.715 581.545 264.075 581.545 264.57C581.545 265.083 581.186 265.443 580.69 265.443C580.177 265.443 579.818 265.083 579.818 264.57ZM587.261 274.369C587.962 274.369 588.783 274.027 589.245 273.497L590.271 274.454C589.57 275.207 588.322 275.737 587.33 275.737C584.953 275.737 583.277 274.044 583.277 271.701C583.277 269.341 584.953 267.666 587.33 267.666C588.339 267.666 589.553 268.213 590.271 268.965L589.245 269.906C588.783 269.376 587.962 269.034 587.261 269.034C585.757 269.034 584.696 270.111 584.696 271.701C584.696 273.291 585.757 274.369 587.261 274.369ZM595.248 274.488C596.667 274.488 597.642 273.36 597.642 271.718C597.642 270.077 596.667 268.931 595.248 268.931C593.845 268.931 592.871 270.06 592.871 271.718C592.871 273.377 593.828 274.488 595.248 274.488ZM591.451 271.718C591.451 269.358 593.025 267.666 595.248 267.666C597.488 267.666 599.078 269.358 599.078 271.718C599.078 274.061 597.488 275.754 595.248 275.754C593.025 275.754 591.451 274.061 591.451 271.718ZM606.449 271.068C606.449 269.786 605.697 268.948 604.568 268.948C603.303 268.948 602.414 269.923 602.414 271.068V275.651H600.994V267.683H602.414V268.845C602.961 268.161 603.85 267.683 604.637 267.683C606.381 267.683 607.868 268.88 607.868 270.966V275.651H606.449V271.068ZM624.822 263.202L620.376 275.651H618.785L614.1 263.202H615.622L619.572 273.668L623.3 263.202H624.822ZM629.03 275.754C626.824 275.754 625.251 274.078 625.251 271.735C625.251 269.376 626.824 267.7 629.03 267.7C629.885 267.7 630.825 268.127 631.509 269.051V267.683H632.928V275.651H631.509V274.369C630.808 275.378 629.885 275.754 629.03 275.754ZM626.67 271.735C626.67 273.36 627.662 274.506 629.081 274.506C630.363 274.506 631.509 273.343 631.526 271.735C631.509 270.128 630.363 268.948 629.081 268.948C627.662 268.948 626.67 270.077 626.67 271.735ZM635.241 263.579H636.66V275.651H635.241V263.579ZM638.982 263.579H640.401V275.651H638.982V263.579ZM646.014 275.72C643.773 275.72 642.2 274.044 642.2 271.701C642.2 269.341 643.773 267.683 646.014 267.683C648.476 267.683 649.228 269.666 649.297 269.854C649.776 271.086 649.622 272.265 649.622 272.317H643.637C643.842 273.582 644.834 274.471 646.014 274.471C647.587 274.471 648.168 273.48 648.288 273.291L649.416 273.873C649.023 274.762 647.895 275.72 646.014 275.72ZM643.637 271.103L648.237 271.086C648.083 269.871 647.484 268.931 646.014 268.931C644.799 268.931 643.842 269.82 643.637 271.103ZM653.627 279.276H652.071L653.746 275.19L650.532 267.683H652.088L654.499 273.497L656.807 267.683H658.346L653.627 279.276Z" fill="#71717A"/>
</g>
<defs>
<filter id="filter0_d_3991_16182" x="16.1999" y="93.6" width="355.3" height="172.8" filterUnits="userSpaceOnUse" color-interpolation-filters="sRGB">
<feFlood flood-opacity="0" result="BackgroundImageFix"/>
<feColorMatrix in="SourceAlpha" type="matrix" values="0 0 0 0 0 0 0 0 0 0 0 0 0 0 0 0 0 0 127 0" result="hardAlpha"/>
<feOffset/>
<feGaussianBlur stdDeviation="17.1"/>
<feComposite in2="hardAlpha" operator="out"/>
<feColorMatrix type="matrix" values="0 0 0 0 0.592485 0 0 0 0 0.207569 0 0 0 0 0.816667 0 0 0 0.5 0"/>
<feBlend mode="normal" in2="BackgroundImageFix" result="effect1_dropShadow_3991_16182"/>
<feBlend mode="normal" in="SourceGraphic" in2="effect1_dropShadow_3991_16182" result="shape"/>
</filter>
<filter id="filter1_d_3991_16182" x="439.307" y="50.5932" width="308.985" height="117.085" filterUnits="userSpaceOnUse" color-interpolation-filters="sRGB">
<feFlood flood-opacity="0" result="BackgroundImageFix"/>
<feColorMatrix in="SourceAlpha" type="matrix" values="0 0 0 0 0 0 0 0 0 0 0 0 0 0 0 0 0 0 127 0" result="hardAlpha"/>
<feOffset dy="1.33562"/>
<feGaussianBlur stdDeviation="2.67123"/>
<feComposite in2="hardAlpha" operator="out"/>
<feColorMatrix type="matrix" values="0 0 0 0 0 0 0 0 0 0 0 0 0 0 0 0 0 0 0.1 0"/>
<feBlend mode="normal" in2="BackgroundImageFix" result="effect1_dropShadow_3991_16182"/>
<feBlend mode="normal" in="SourceGraphic" in2="effect1_dropShadow_3991_16182" result="shape"/>
</filter>
<filter id="filter2_d_3991_16182" x="439.307" y="194.993" width="308.985" height="117.085" filterUnits="userSpaceOnUse" color-interpolation-filters="sRGB">
<feFlood flood-opacity="0" result="BackgroundImageFix"/>
<feColorMatrix in="SourceAlpha" type="matrix" values="0 0 0 0 0 0 0 0 0 0 0 0 0 0 0 0 0 0 127 0" result="hardAlpha"/>
<feOffset dy="1.33562"/>
<feGaussianBlur stdDeviation="2.67123"/>
<feComposite in2="hardAlpha" operator="out"/>
<feColorMatrix type="matrix" values="0 0 0 0 0 0 0 0 0 0 0 0 0 0 0 0 0 0 0.1 0"/>
<feBlend mode="normal" in2="BackgroundImageFix" result="effect1_dropShadow_3991_16182"/>
<feBlend mode="normal" in="SourceGraphic" in2="effect1_dropShadow_3991_16182" result="shape"/>
</filter>
</defs>
</svg>
