<svg width="339" height="326" viewBox="0 0 339 326" fill="none" xmlns="http://www.w3.org/2000/svg">
<circle opacity="0.04" cx="65" cy="65" r="65" fill="#9735D0"/>
<path d="M36.1725 71.38C38.8005 68.86 42.3825 66.304 42.3825 64.09C42.3825 62.614 41.4465 61.57 40.1145 61.57C39.0885 61.57 38.0625 62.308 37.5945 63.37L35.9205 62.632C36.6405 60.976 38.3865 59.824 40.1145 59.824C42.5805 59.824 44.2905 61.588 44.2905 64.09C44.2905 66.844 41.3025 69.292 38.8725 71.38H44.5065V73.054H36.3525L36.1725 71.38ZM51.1876 71.488C52.9876 71.488 54.1936 69.472 54.1936 66.502C54.1936 63.514 52.9876 61.498 51.1876 61.498C49.3876 61.498 48.1636 63.514 48.1636 66.502C48.1636 69.472 49.3876 71.488 51.1876 71.488ZM46.2556 66.502C46.2556 62.578 48.2896 59.824 51.1876 59.824C54.0676 59.824 56.1016 62.578 56.1016 66.502C56.1016 70.408 54.0676 73.18 51.1876 73.18C48.2896 73.18 46.2556 70.408 46.2556 66.502ZM62.7356 59.968V73.054L60.8276 73.036V62.002L58.5236 63.28L57.7316 61.678L60.8456 59.968H62.7356ZM69.845 71.632C71.339 71.632 72.383 70.678 72.383 69.31C72.383 67.942 71.339 66.97 69.845 66.97C68.351 66.97 67.289 67.942 67.289 69.31C67.289 70.678 68.351 71.632 69.845 71.632ZM65.381 69.346C65.381 68.194 66.281 66.862 67.541 66.16C66.497 65.44 65.741 64.27 65.741 63.334C65.741 61.21 67.433 59.734 69.845 59.734C72.257 59.734 73.949 61.21 73.949 63.334C73.949 64.288 73.211 65.458 72.149 66.16C73.409 66.88 74.309 68.194 74.309 69.346C74.309 71.65 72.473 73.27 69.845 73.27C67.235 73.27 65.381 71.65 65.381 69.346ZM67.667 63.334C67.667 64.504 68.567 65.332 69.845 65.332C71.141 65.332 72.041 64.504 72.041 63.334C72.041 62.164 71.141 61.354 69.845 61.354C68.567 61.354 67.667 62.164 67.667 63.334ZM77.2745 71.182C77.9225 71.182 78.3725 71.65 78.3725 72.298C78.3725 72.964 77.9225 73.432 77.2745 73.432C76.6085 73.432 76.1405 72.964 76.1405 72.298C76.1405 71.65 76.6085 71.182 77.2745 71.182ZM92.1927 66.286C93.3627 66.97 94.1007 68.248 94.1007 69.346C94.1007 71.578 92.2647 73.162 89.6547 73.162C87.0627 73.162 85.2267 71.542 85.2267 69.238H87.1347C87.1347 70.552 88.1787 71.47 89.6547 71.47C91.1667 71.47 92.2467 70.552 92.2467 69.238C92.2467 67.978 91.1847 67.078 89.6907 67.078H88.7547V65.476H89.7087C91.0767 65.476 92.0487 64.666 92.0487 63.514C92.0487 62.344 91.1127 61.534 89.7807 61.534C88.4487 61.534 87.5307 62.362 87.5307 63.532H85.6227C85.6227 61.354 87.3327 59.842 89.7807 59.842C92.1927 59.842 93.9027 61.318 93.9027 63.406C93.9027 64.414 93.2547 65.602 92.1927 66.286Z" fill="#6D0CA6"/>
<path d="M170.928 59.576H173.872V57.992H175.632V59.576H178.56V60.968H175.616V61.128C175.616 62.696 176.768 64.232 178.96 64.872L178.176 66.248C176.576 65.784 175.44 64.824 174.8 63.624C174.176 65 173.008 66.088 171.344 66.6L170.496 65.24C172.72 64.552 173.872 62.856 173.872 61.128V60.968H170.928V59.576ZM172.16 70.872C174.976 70.44 176.784 68.792 176.784 67.192V66.936H178.576V67.192C178.576 68.856 180.32 70.44 183.184 70.872L182.512 72.248C180.24 71.88 178.512 70.808 177.664 69.352C176.816 70.792 175.088 71.896 172.832 72.248L172.16 70.872ZM178.176 63.336V61.912H180.624V58.056H182.384V67.8H180.624V63.336H178.176ZM188.2 66.568H201.096V68.008H195.528V72.312H193.752V68.008H188.2V66.568ZM189.864 65.384V58.664H199.56V60.056H191.592V61.304H199.256V62.664H191.592V63.976H199.72V65.384H189.864ZM202.44 59.448H210.216V60.904H207.256V62.088C207.256 64.28 208.568 66.808 210.792 67.848L209.816 69.24C208.216 68.472 207.048 66.952 206.408 65.192C205.768 67.128 204.552 68.792 202.92 69.592L201.912 68.2C204.136 67.128 205.512 64.456 205.512 62.088V60.904H202.44V59.448ZM211.496 72.296V58.056H213.272V63.608H215.432V65.064H213.272V72.296H211.496ZM220.432 58.888H228.192V60.264H225.216C225.232 61.928 226.464 63.56 228.672 64.216L227.808 65.576C226.176 65.096 225.008 64.056 224.352 62.744C223.728 64.168 222.528 65.288 220.832 65.816L219.952 64.44C222.224 63.768 223.408 62.04 223.424 60.264H220.432V58.888ZM222.272 72.12V66.408H224V67.864H229.888V66.408H231.616V72.12H222.272ZM224 70.696H229.888V69.224H224V70.696ZM229.856 65.768V58.056H231.616V65.768H229.856ZM244.257 58.056H245.921V67H244.257V63.128H242.913V66.52H241.265V58.328H242.913V61.704H244.257V58.056ZM233.761 60.984V59.592H236.433V58.184H238.161V59.592H240.801V60.984H233.761ZM234.257 63.992C234.257 62.52 235.521 61.528 237.297 61.528C239.089 61.528 240.353 62.52 240.353 63.992C240.353 65.48 239.089 66.456 237.297 66.456C235.521 66.456 234.257 65.48 234.257 63.992ZM235.809 63.992C235.809 64.744 236.417 65.208 237.297 65.208C238.177 65.208 238.801 64.744 238.801 63.992C238.801 63.24 238.177 62.808 237.297 62.808C236.417 62.808 235.809 63.24 235.809 63.992ZM236.321 69.736C236.321 68.104 238.129 67.192 241.153 67.192C244.193 67.192 246.001 68.104 246.001 69.736C246.001 71.352 244.193 72.28 241.153 72.28C238.129 72.28 236.321 71.352 236.321 69.736ZM238.065 69.736C238.065 70.552 239.153 70.952 241.153 70.952C243.169 70.952 244.241 70.552 244.241 69.736C244.241 68.904 243.169 68.504 241.153 68.504C239.153 68.504 238.065 68.904 238.065 69.736Z" fill="#15151A"/>
<circle opacity="0.08" cx="65" cy="163" r="65" fill="#9735D0"/>
<path d="M34.2038 169.38C36.8318 166.86 40.4138 164.304 40.4138 162.09C40.4138 160.614 39.4778 159.57 38.1458 159.57C37.1198 159.57 36.0938 160.308 35.6258 161.37L33.9518 160.632C34.6718 158.976 36.4178 157.824 38.1458 157.824C40.6118 157.824 42.3218 159.588 42.3218 162.09C42.3218 164.844 39.3338 167.292 36.9038 169.38H42.5378V171.054H34.3838L34.2038 169.38ZM49.2189 169.488C51.0189 169.488 52.2249 167.472 52.2249 164.502C52.2249 161.514 51.0189 159.498 49.2189 159.498C47.4189 159.498 46.1949 161.514 46.1949 164.502C46.1949 167.472 47.4189 169.488 49.2189 169.488ZM44.2869 164.502C44.2869 160.578 46.3209 157.824 49.2189 157.824C52.0989 157.824 54.1329 160.578 54.1329 164.502C54.1329 168.408 52.0989 171.18 49.2189 171.18C46.3209 171.18 44.2869 168.408 44.2869 164.502ZM56.1588 169.38C58.7868 166.86 62.3688 164.304 62.3688 162.09C62.3688 160.614 61.4328 159.57 60.1008 159.57C59.0748 159.57 58.0488 160.308 57.5808 161.37L55.9068 160.632C56.6268 158.976 58.3728 157.824 60.1008 157.824C62.5668 157.824 64.2768 159.588 64.2768 162.09C64.2768 164.844 61.2888 167.292 58.8588 169.38H64.4928V171.054H56.3388L56.1588 169.38ZM71.1739 169.488C72.9739 169.488 74.1799 167.472 74.1799 164.502C74.1799 161.514 72.9739 159.498 71.1739 159.498C69.3739 159.498 68.1499 161.514 68.1499 164.502C68.1499 167.472 69.3739 169.488 71.1739 169.488ZM66.2419 164.502C66.2419 160.578 68.2759 157.824 71.1739 157.824C74.0539 157.824 76.0879 160.578 76.0879 164.502C76.0879 168.408 74.0539 171.18 71.1739 171.18C68.2759 171.18 66.2419 168.408 66.2419 164.502ZM79.0499 169.182C79.6979 169.182 80.1479 169.65 80.1479 170.298C80.1479 170.964 79.6979 171.432 79.0499 171.432C78.3839 171.432 77.9159 170.964 77.9159 170.298C77.9159 169.65 78.3839 169.182 79.0499 169.182ZM89.4321 165.186L87.5241 164.952L87.9741 157.95H94.9761V159.624H89.8101L89.5941 162.828C90.1881 162.558 90.8541 162.396 91.4481 162.396C94.1481 162.396 96.0561 164.214 96.0561 166.788C96.0561 169.398 94.1481 171.234 91.4481 171.234C89.3241 171.234 87.4881 169.812 87.0201 167.796L88.8741 167.364C89.1441 168.57 90.2061 169.434 91.4481 169.434C93.0321 169.434 94.1481 168.336 94.1481 166.788C94.1481 165.276 93.0321 164.196 91.4481 164.196C90.7821 164.196 89.9541 164.61 89.4321 165.186Z" fill="#6D0CA6"/>
<path d="M180.272 144.32V156.128H178.56V150.8H172.992V156.128H171.296V144.32H172.992V149.328H178.56V144.32H180.272ZM182.859 148.496H184.555V156.128H182.859V148.496ZM182.747 145.648C182.747 145.088 183.147 144.688 183.707 144.688C184.267 144.688 184.667 145.088 184.667 145.648C184.667 146.208 184.267 146.608 183.707 146.608C183.147 146.608 182.747 146.208 182.747 145.648ZM190.086 154.576C190.678 154.576 191.366 154.272 191.798 153.792L192.966 154.96C192.31 155.68 191.11 156.192 190.15 156.192C187.878 156.192 186.278 154.592 186.278 152.352C186.278 150.096 187.878 148.496 190.15 148.496C191.158 148.496 192.278 149.008 192.966 149.744L191.798 150.896C191.366 150.416 190.678 150.112 190.086 150.112C188.822 150.112 187.974 150.992 187.974 152.352C187.974 153.696 188.822 154.576 190.086 154.576ZM197.653 154.752C198.837 154.752 199.637 153.808 199.637 152.352C199.637 150.912 198.837 149.952 197.653 149.952C196.469 149.952 195.669 150.896 195.669 152.352C195.669 153.808 196.453 154.752 197.653 154.752ZM193.973 152.352C193.973 150.096 195.493 148.496 197.653 148.496C199.813 148.496 201.333 150.096 201.333 152.352C201.333 154.592 199.813 156.208 197.653 156.208C195.493 156.208 193.973 154.592 193.973 152.352ZM212.851 156.256C209.427 156.256 207.027 153.76 207.027 150.224C207.027 146.672 209.427 144.192 212.851 144.192C214.467 144.192 215.907 144.88 216.963 145.952L215.843 147.056C215.139 146.224 214.019 145.68 212.835 145.68C210.387 145.68 208.739 147.504 208.739 150.224C208.739 152.944 210.387 154.768 212.835 154.768C214.099 154.768 215.107 154.192 215.779 153.424L216.963 154.496C215.907 155.568 214.547 156.272 212.851 156.256ZM221.964 156.208C219.852 156.208 218.348 154.608 218.348 152.368C218.348 150.128 219.852 148.528 221.964 148.528C222.716 148.528 223.548 148.88 224.156 149.6V148.512H225.852V156.144H224.156V155.12C223.548 155.888 222.716 156.208 221.964 156.208ZM220.044 152.368C220.044 153.808 220.86 154.768 222.076 154.768C223.196 154.768 224.156 153.76 224.172 152.368C224.156 150.976 223.196 149.968 222.076 149.968C220.86 149.968 220.044 150.912 220.044 152.368ZM231.838 154.752C233.07 154.752 233.87 153.792 233.87 152.336C233.87 150.88 233.07 149.92 231.838 149.92C230.686 149.92 229.742 150.992 229.742 152.336C229.742 153.68 230.686 154.752 231.838 154.752ZM228.03 159.52V148.496H229.726V149.616C230.334 148.816 231.342 148.496 231.934 148.496C234.062 148.496 235.566 150.08 235.566 152.336C235.566 154.608 234.062 156.192 231.934 156.192C231.326 156.192 230.334 155.856 229.726 155.056V159.52H228.03ZM237.405 148.496H239.101V156.128H237.405V148.496ZM237.293 145.648C237.293 145.088 237.693 144.688 238.253 144.688C238.813 144.688 239.213 145.088 239.213 145.648C239.213 146.208 238.813 146.608 238.253 146.608C237.693 146.608 237.293 146.208 237.293 145.648ZM242.425 156.144V149.968H240.985V148.496H242.425V145.824H244.121V148.496H245.929V149.968H244.121V156.144H242.425ZM250.746 156.208C248.634 156.208 247.13 154.608 247.13 152.368C247.13 150.128 248.634 148.528 250.746 148.528C251.498 148.528 252.33 148.88 252.938 149.6V148.512H254.634V156.144H252.938V155.12C252.33 155.888 251.498 156.208 250.746 156.208ZM248.826 152.368C248.826 153.808 249.642 154.768 250.858 154.768C251.978 154.768 252.938 153.76 252.954 152.368C252.938 150.976 251.978 149.968 250.858 149.968C249.642 149.968 248.826 150.912 248.826 152.368ZM256.696 144.704H258.392V156.128H256.696V144.704ZM270.949 145.328H273.733V143.056H275.493V150.32H273.733V146.736H270.949V145.328ZM263.589 149.024C265.861 148.304 267.029 146.544 267.029 144.64V143.504H268.789V144.64C268.789 146.384 269.925 148.064 272.085 148.752L271.189 150.112C269.653 149.6 268.549 148.576 267.941 147.28C267.317 148.72 266.165 149.856 264.501 150.4L263.589 149.024ZM266.181 152.336V150.976H275.493V154.64H267.941V155.744H275.941V157.12H266.197V153.36H273.749V152.336H266.181ZM287.653 143.04H289.413V150.944H287.653V143.04ZM278.357 145.12V143.712H284.869V147.792H280.101V149.264C282.533 149.248 284.277 149.168 286.261 148.832L286.469 150.256C284.261 150.624 282.357 150.688 279.589 150.688H278.373V146.464H283.141V145.12H278.357ZM280.037 157.12V151.584H281.781V152.976H287.685V151.584H289.413V157.12H280.037ZM281.781 155.696H287.685V154.336H281.781V155.696Z" fill="#15151A"/>
<path d="M171.456 177.946C171.456 176.168 172.156 173.802 173.164 172.22H174.438C173.304 173.774 172.52 176.126 172.52 177.946C172.52 179.766 173.304 182.118 174.438 183.672H173.164C172.156 182.09 171.456 179.724 171.456 177.946ZM176.564 172.92H182.248V180.984H176.564V172.92ZM177.754 180.004H181.086V173.9H177.754V180.004ZM184.754 184.078V171.716H185.972V184.078H184.754ZM189.542 172.332H197.844V173.228C197.844 174.18 197.844 175.258 197.55 176.7H199.272V177.694H194.288V179.878H197.914V184.064H196.71V180.844H189.276V179.878H193.084V177.694H188.114V176.7H196.346C196.654 175.272 196.668 174.236 196.668 173.312H189.542V172.332ZM212.509 171.744H213.727V181.138H212.509V178.562H210.479V177.582H212.509V175.958H210.479V174.978H212.509V171.744ZM203.577 174.18V173.2H206.475V171.716H207.693V173.2H210.479V174.18H203.577ZM204.263 177.19C204.263 175.762 205.425 174.824 207.063 174.824C208.715 174.824 209.877 175.762 209.877 177.19C209.877 178.59 208.715 179.542 207.063 179.542C205.425 179.542 204.263 178.59 204.263 177.19ZM205.411 177.19C205.411 178.044 206.083 178.604 207.063 178.604C208.057 178.604 208.729 178.044 208.729 177.19C208.729 176.35 208.057 175.776 207.063 175.776C206.083 175.776 205.411 176.35 205.411 177.19ZM205.775 183.784V180.326H206.993V182.804H214.021V183.784H205.775ZM216.191 172.99H223.079V173.998H220.237V175.44C220.237 177.526 221.665 179.64 223.499 180.424L222.813 181.39C221.399 180.732 220.223 179.36 219.649 177.694C219.075 179.472 217.913 180.998 216.485 181.698L215.785 180.732C217.591 179.878 219.019 177.568 219.019 175.44V173.998H216.191V172.99ZM224.675 184.064V171.744H225.893V184.064H224.675ZM231.864 172.374H233.068V174.222H236.274V172.374H237.464V174.726H240.208V171.744H241.426V178.464H240.208V175.72H237.464V178.03H231.864V172.374ZM233.068 177.036H236.274V175.16H233.068V177.036ZM233.502 183.882V179.052H234.692V180.48H240.222V179.052H241.412V183.882H233.502ZM234.692 182.902H240.222V181.46H234.692V182.902ZM252.402 171.744H253.62V180.718H252.402V171.744ZM243.764 175.636C243.764 173.844 245.164 172.584 246.998 172.584C248.846 172.584 250.232 173.844 250.232 175.636C250.232 177.414 248.846 178.674 246.998 178.674C245.164 178.674 243.764 177.414 243.764 175.636ZM244.954 175.636C244.954 176.798 245.836 177.61 246.998 177.61C248.16 177.61 249.056 176.798 249.056 175.636C249.056 174.446 248.16 173.634 246.998 173.634C245.836 173.634 244.954 174.446 244.954 175.636ZM245.682 183.784V179.808H246.886V182.804H253.984V183.784H245.682ZM259.095 177.946C259.095 179.738 258.395 182.09 257.401 183.672H256.127C257.247 182.132 258.031 179.766 258.031 177.946C258.031 176.126 257.247 173.76 256.127 172.22H257.401C258.395 173.802 259.095 176.154 259.095 177.946Z" fill="#3F3F46"/>
<circle opacity="0.15" cx="65" cy="261" r="65" fill="#9735D0"/>
<path d="M34.2643 267.38C36.8923 264.86 40.4743 262.304 40.4743 260.09C40.4743 258.614 39.5383 257.57 38.2063 257.57C37.1803 257.57 36.1543 258.308 35.6863 259.37L34.0123 258.632C34.7323 256.976 36.4783 255.824 38.2063 255.824C40.6723 255.824 42.3823 257.588 42.3823 260.09C42.3823 262.844 39.3943 265.292 36.9643 267.38H42.5983V269.054H34.4443L34.2643 267.38ZM49.2794 267.488C51.0794 267.488 52.2854 265.472 52.2854 262.502C52.2854 259.514 51.0794 257.498 49.2794 257.498C47.4794 257.498 46.2554 259.514 46.2554 262.502C46.2554 265.472 47.4794 267.488 49.2794 267.488ZM44.3474 262.502C44.3474 258.578 46.3814 255.824 49.2794 255.824C52.1594 255.824 54.1934 258.578 54.1934 262.502C54.1934 266.408 52.1594 269.18 49.2794 269.18C46.3814 269.18 44.3474 266.408 44.3474 262.502ZM56.2194 267.38C58.8474 264.86 62.4294 262.304 62.4294 260.09C62.4294 258.614 61.4934 257.57 60.1614 257.57C59.1354 257.57 58.1094 258.308 57.6414 259.37L55.9674 258.632C56.6874 256.976 58.4334 255.824 60.1614 255.824C62.6274 255.824 64.3374 257.588 64.3374 260.09C64.3374 262.844 61.3494 265.292 58.9194 267.38H64.5534V269.054H56.3994L56.2194 267.38ZM71.1985 255.968V269.054L69.2905 269.036V258.002L66.9865 259.28L66.1945 257.678L69.3085 255.968H71.1985ZM75.0499 267.182C75.6979 267.182 76.1479 267.65 76.1479 268.298C76.1479 268.964 75.6979 269.432 75.0499 269.432C74.3839 269.432 73.9159 268.964 73.9159 268.298C73.9159 267.65 74.3839 267.182 75.0499 267.182ZM87.8801 255.968V269.054L85.9721 269.036V258.002L83.6681 259.28L82.8761 257.678L85.9901 255.968H87.8801ZM96.1243 255.968V269.054L94.2163 269.036V258.002L91.9123 259.28L91.1203 257.678L94.2343 255.968H96.1243Z" fill="#6D0CA6"/>
<path d="M180.608 254.056H182.368V264.488H180.608V259.384H178.4V257.976H180.608V254.056ZM170.544 261.032H172.144V256.632H170.912V255.224H178.464V256.632H177.216V260.84C177.824 260.792 178.432 260.728 179.008 260.648L179.12 261.944C176.336 262.424 173.12 262.472 170.72 262.472L170.544 261.032ZM173.072 268.008V263.608H174.816V266.6H182.704V268.008H173.072ZM173.84 261C174.4 260.984 174.96 260.968 175.52 260.936V256.632H173.84V261ZM186.08 255.256H195.872V256.696H187.824V260.712H196V262.12H186.08V255.256ZM184.528 266.488V265.048H197.424V266.488H184.528ZM202.952 255.32H204.648V267.128H202.952V255.32ZM207.234 255.32H208.93V267.128H207.234V255.32ZM214.978 255.016H221.362V259.416H216.754V261.224C219.09 261.208 220.642 261.144 222.402 260.856L222.546 262.264C220.578 262.6 218.882 262.648 216.13 262.648H215.01V258.088H219.618V256.408H214.978V255.016ZM216.914 268.008V263.72H218.674V266.6H226.658V268.008H216.914ZM222.13 259.064V257.56H224.514V254.056H226.274V264.52H224.514V259.064H222.13ZM229.027 255.624H232.035V254.056H233.795V255.624H236.787V257.032H233.795C233.827 258.632 235.043 260.168 237.267 260.76L236.451 262.152C234.803 261.688 233.619 260.712 232.963 259.448C232.323 260.856 231.139 261.944 229.427 262.456L228.595 261.08C230.835 260.408 232.019 258.776 232.035 257.032H229.027V255.624ZM230.579 265.608C230.579 263.944 232.403 262.952 235.395 262.952C238.387 262.952 240.243 263.944 240.243 265.608C240.243 267.304 238.387 268.28 235.395 268.28C232.403 268.28 230.579 267.304 230.579 265.608ZM232.339 265.608C232.339 266.472 233.427 266.936 235.395 266.936C237.379 266.936 238.499 266.472 238.499 265.608C238.499 264.76 237.379 264.296 235.395 264.296C233.427 264.296 232.339 264.76 232.339 265.608ZM238.419 262.696V254.056H240.179V262.696H238.419Z" fill="#15151A"/>
</svg>
