<svg width="793" height="386" viewBox="0 0 793 386" fill="none" xmlns="http://www.w3.org/2000/svg">
<g clip-path="url(#clip0_8024_41322)">
<ellipse cx="396.5" cy="214.5" rx="137.5" ry="137.5" stroke="#E4E4E7" stroke-width="2" stroke-linecap="round" stroke-dasharray="1 10"/>
<g filter="url(#filter0_d_8024_41322)">
<circle cx="397" cy="62" r="62" fill="white"/>
</g>
<g clip-path="url(#clip1_8024_41322)">
<path d="M373.818 72.6505C371.693 72.6505 370.004 74.3734 370.004 76.4649C370.004 78.5564 371.693 80.2793 373.818 80.2793C375.944 80.2793 377.633 78.5564 377.633 76.4649C377.633 74.3734 375.944 72.6505 373.818 72.6505Z" fill="#6D0CA6"/>
<path d="M373.818 81.4743C371.951 81.4743 370.262 82.115 369.028 83.007C367.845 83.863 366.887 85.1049 366.887 86.4018C366.887 87.9001 368.107 88.6666 369.292 89.0384C370.518 89.4232 372.135 89.5483 373.818 89.5483C375.5 89.5483 377.118 89.4232 378.344 89.0384C379.529 88.6666 380.749 87.9001 380.749 86.4018C380.749 85.1049 379.791 83.863 378.607 83.007C377.374 82.115 375.685 81.4743 373.818 81.4743Z" fill="#6D0CA6"/>
<path d="M389.273 72.6505C387.147 72.6505 385.458 74.3734 385.458 76.4649C385.458 78.5564 387.147 80.2793 389.273 80.2793C391.399 80.2793 393.087 78.5564 393.087 76.4649C393.087 74.3734 391.399 72.6505 389.273 72.6505Z" fill="#6D0CA6"/>
<path d="M389.272 81.4743C387.406 81.4743 385.716 82.115 384.483 83.007C383.299 83.863 382.341 85.1049 382.341 86.4018C382.341 87.9001 383.562 88.6666 384.747 89.0384C385.972 89.4232 387.59 89.5483 389.272 89.5483C390.955 89.5483 392.572 89.4232 393.798 89.0384C394.983 88.6666 396.203 87.9001 396.203 86.4018C396.203 85.1049 395.246 83.863 394.062 83.007C392.829 82.115 391.139 81.4743 389.272 81.4743Z" fill="#6D0CA6"/>
<path d="M404.727 72.6505C402.602 72.6505 400.913 74.3734 400.913 76.4649C400.913 78.5564 402.602 80.2793 404.727 80.2793C406.853 80.2793 408.542 78.5564 408.542 76.4649C408.542 74.3734 406.853 72.6505 404.727 72.6505Z" fill="#6D0CA6"/>
<path d="M404.727 81.4743C402.86 81.4743 401.171 82.115 399.937 83.007C398.754 83.863 397.796 85.1049 397.796 86.4018C397.796 87.9001 399.016 88.6666 400.201 89.0384C401.427 89.4232 403.045 89.5483 404.727 89.5483C406.409 89.5483 408.027 89.4232 409.253 89.0384C410.438 88.6666 411.658 87.9001 411.658 86.4018C411.658 85.1049 410.7 83.863 409.517 83.007C408.283 82.115 406.594 81.4743 404.727 81.4743Z" fill="#6D0CA6"/>
<path d="M420.182 72.6505C418.057 72.6505 416.368 74.3734 416.368 76.4649C416.368 78.5564 418.057 80.2793 420.182 80.2793C422.308 80.2793 423.997 78.5564 423.997 76.4649C423.997 74.3734 422.308 72.6505 420.182 72.6505Z" fill="#6D0CA6"/>
<path d="M420.182 81.4743C418.315 81.4743 416.626 82.115 415.392 83.007C414.209 83.863 413.251 85.1049 413.251 86.4018C413.251 87.9001 414.471 88.6666 415.656 89.0384C416.882 89.4232 418.5 89.5483 420.182 89.5483C421.865 89.5483 423.482 89.4232 424.708 89.0384C425.893 88.6666 427.113 87.9001 427.113 86.4018C427.113 85.1049 426.155 83.863 424.972 83.007C423.738 82.115 422.049 81.4743 420.182 81.4743Z" fill="#6D0CA6"/>
<path d="M397.001 32.9752C392.455 32.9752 388.843 36.6594 388.843 41.133C388.843 45.6065 392.455 49.2908 397.001 49.2908C401.547 49.2908 405.159 45.6065 405.159 41.133C405.159 36.6594 401.547 32.9752 397.001 32.9752Z" fill="#CC7DFA"/>
<path d="M397.001 50.9108C392.908 50.9108 389.204 52.316 386.504 54.2689C383.894 56.156 381.868 58.8366 381.868 61.5595C381.868 64.6505 384.374 66.2794 386.986 67.0991C389.672 67.9422 393.245 68.2227 397.001 68.2227C400.756 68.2227 404.329 67.9422 407.015 67.0991C409.627 66.2794 412.133 64.6505 412.133 61.5595C412.133 58.8366 410.107 56.156 407.497 54.2689C404.797 52.316 401.093 50.9108 397.001 50.9108Z" fill="#CC7DFA"/>
</g>
<path d="M383.701 131.86V145.144H381.775V139.15H375.511V145.144H373.603V131.86H375.511V137.494H381.775V131.86H383.701ZM389.407 148.888H387.319L389.191 144.442L385.735 136.576H387.841L390.199 142.264L392.467 136.576H394.537L391.333 144.298L389.407 148.888ZM400.737 143.596C402.123 143.596 403.023 142.516 403.023 140.878C403.023 139.24 402.123 138.16 400.737 138.16C399.441 138.16 398.379 139.366 398.379 140.878C398.379 142.39 399.441 143.596 400.737 143.596ZM396.453 148.96V136.558H398.361V137.818C399.045 136.918 400.179 136.558 400.845 136.558C403.239 136.558 404.931 138.34 404.931 140.878C404.931 143.434 403.239 145.216 400.845 145.216C400.161 145.216 399.045 144.838 398.361 143.938V148.96H396.453ZM410.725 145.198C408.295 145.198 406.585 143.416 406.585 140.896C406.585 138.358 408.295 136.576 410.725 136.576C413.389 136.576 414.235 138.754 414.289 138.898C414.811 140.122 414.649 141.49 414.649 141.634H408.457C408.673 142.786 409.645 143.578 410.725 143.578C412.147 143.578 412.723 142.75 412.867 142.498L414.397 143.182C413.983 144.154 412.777 145.198 410.725 145.198ZM408.457 140.122H412.849C412.669 139.06 412.057 138.196 410.725 138.196C409.573 138.196 408.673 139.006 408.457 140.122ZM416.593 145.162V136.576H418.501V137.836C419.077 137.026 420.121 136.486 421.129 136.54V138.304C419.599 138.232 418.501 139.582 418.501 140.896V145.162H416.593Z" fill="#15151A"/>
<g filter="url(#filter1_d_8024_41322)">
<circle cx="274" cy="295" r="62" fill="white"/>
</g>
<g clip-path="url(#clip2_8024_41322)">
<path d="M252.804 288.427C252.804 277.575 261.601 268.777 272.453 268.777H275.849C286.701 268.777 295.499 277.575 295.499 288.427V288.427C295.499 290.114 295.917 291.774 296.717 293.26L299.679 298.759C300.379 300.057 299.438 301.633 297.963 301.633H295.949C295.7 301.633 295.499 301.834 295.499 302.083V309.136C295.499 310.81 294.097 312.142 292.425 312.057L286.224 311.74C285.967 311.726 285.751 311.931 285.751 312.189V318.298C285.751 319.913 284.442 321.223 282.827 321.223H264.653C262.979 321.223 261.647 319.821 261.732 318.15L262.175 309.405C262.182 309.261 262.12 309.123 262.009 309.032C257.984 305.735 254.826 302.123 253.175 295.982C252.901 294.964 252.804 293.908 252.804 292.855V288.427Z" fill="#6D0CA6"/>
<path d="M263.806 290.438V292.444C263.806 292.875 264.01 293.28 264.356 293.536L268.491 296.597C268.837 296.854 269.041 297.259 269.041 297.689V300.808" stroke="#6D0CA6" stroke-width="2.95334" stroke-linecap="round"/>
<circle cx="263.806" cy="286.301" r="2.66093" stroke="#6D0CA6" stroke-width="2.95334" stroke-linecap="round"/>
<path d="M273.178 284.979V294.7" stroke="#6D0CA6" stroke-width="2.95334" stroke-linecap="round"/>
<circle cx="273.178" cy="280.842" r="2.66093" stroke="#6D0CA6" stroke-width="2.95334" stroke-linecap="round"/>
<path d="M282.55 290.438V292.444C282.55 292.875 282.346 293.28 282 293.536L277.866 296.597C277.519 296.854 277.315 297.259 277.315 297.689V300.808" stroke="#6D0CA6" stroke-width="2.95334" stroke-linecap="round"/>
<circle cx="4.1376" cy="4.1376" r="2.66093" transform="matrix(-1 0 0 1 286.688 282.163)" stroke="#6D0CA6" stroke-width="2.95334" stroke-linecap="round"/>
<path d="M245.5 288.427C245.5 277.575 254.297 268.777 265.15 268.777H268.545C279.398 268.777 288.195 277.575 288.195 288.427V288.427C288.195 290.114 288.614 291.774 289.414 293.26L292.375 298.759C293.075 300.057 292.134 301.633 290.659 301.633H288.645C288.396 301.633 288.195 301.834 288.195 302.083V309.136C288.195 310.81 286.793 312.142 285.121 312.057L278.921 311.74C278.663 311.726 278.448 311.931 278.448 312.189V318.298C278.448 319.913 277.138 321.223 275.523 321.223H257.349C255.676 321.223 254.344 319.821 254.428 318.15L254.871 309.405C254.879 309.261 254.817 309.123 254.706 309.032C250.681 305.735 247.522 302.123 245.871 295.982C245.597 294.964 245.5 293.908 245.5 292.855V288.427Z" fill="#CC7DFA"/>
<path fill-rule="evenodd" clip-rule="evenodd" d="M257.314 290.119C258.843 289.63 259.95 288.198 259.95 286.507C259.95 284.413 258.252 282.715 256.158 282.715C254.064 282.715 252.367 284.413 252.367 286.507C252.367 288.198 253.474 289.631 255.004 290.119C254.995 290.177 254.99 290.236 254.99 290.297V292.135C254.99 292.9 255.353 293.62 255.968 294.075L259.756 296.88C259.776 296.894 259.787 296.917 259.787 296.942V299.799C259.787 300.444 260.31 300.967 260.956 300.967C261.601 300.967 262.124 300.444 262.124 299.799V296.942C262.124 296.177 261.761 295.457 261.147 295.002L257.358 292.197C257.338 292.182 257.327 292.159 257.327 292.135V290.297C257.327 290.236 257.322 290.177 257.314 290.119ZM257.613 286.507C257.613 287.31 256.962 287.961 256.158 287.961C255.355 287.961 254.703 287.31 254.703 286.507C254.703 285.703 255.355 285.052 256.158 285.052C256.962 285.052 257.613 285.703 257.613 286.507Z" fill="white"/>
<path fill-rule="evenodd" clip-rule="evenodd" d="M266.589 285.117C268.118 284.628 269.225 283.196 269.225 281.505C269.225 279.411 267.528 277.713 265.434 277.713C263.34 277.713 261.642 279.411 261.642 281.505C261.642 283.196 262.75 284.629 264.28 285.117C264.271 285.175 264.266 285.235 264.266 285.295V294.203C264.266 294.848 264.789 295.371 265.435 295.371C266.08 295.371 266.603 294.848 266.603 294.203V285.295C266.603 285.234 266.598 285.175 266.589 285.117ZM266.888 281.505C266.888 282.308 266.237 282.959 265.434 282.959C264.63 282.959 263.979 282.308 263.979 281.505C263.979 280.701 264.63 280.05 265.434 280.05C266.237 280.05 266.888 280.701 266.888 281.505Z" fill="white"/>
<path fill-rule="evenodd" clip-rule="evenodd" d="M273.554 290.119C272.025 289.63 270.918 288.198 270.918 286.507C270.918 284.413 272.616 282.715 274.71 282.715C276.803 282.715 278.501 284.413 278.501 286.507C278.501 288.198 277.393 289.631 275.864 290.119C275.873 290.177 275.877 290.236 275.877 290.297V292.135C275.877 292.9 275.515 293.619 274.9 294.075L271.111 296.88C271.092 296.894 271.08 296.917 271.08 296.942V299.799C271.08 300.444 270.557 300.967 269.912 300.967C269.267 300.967 268.744 300.444 268.744 299.799V296.942C268.744 296.177 269.106 295.457 269.721 295.002L273.51 292.197C273.529 292.182 273.541 292.159 273.541 292.135V290.297C273.541 290.236 273.545 290.177 273.554 290.119ZM273.255 286.507C273.255 287.31 273.906 287.961 274.71 287.961C275.513 287.961 276.164 287.31 276.164 286.507C276.164 285.703 275.513 285.052 274.71 285.052C273.906 285.052 273.255 285.703 273.255 286.507Z" fill="white"/>
</g>
<path d="M229.104 364.86H231.012V378.144H229.104V364.86ZM239.627 373.428C239.627 372.06 238.925 371.232 237.737 371.232C236.567 371.25 235.667 372.168 235.685 373.428V378.162H233.777V369.576H235.685V370.746C236.225 370.08 237.143 369.594 237.971 369.594C239.591 369.594 241.535 370.656 241.535 373.356V378.162H239.627V373.428ZM244.683 378.162V371.214H243.063V369.558H244.683V366.552H246.591V369.558H248.625V371.214H246.591V378.162H244.683ZM254.116 378.198C251.686 378.198 249.976 376.416 249.976 373.896C249.976 371.358 251.686 369.576 254.116 369.576C256.78 369.576 257.626 371.754 257.68 371.898C258.202 373.122 258.04 374.49 258.04 374.634H251.848C252.064 375.786 253.036 376.578 254.116 376.578C255.538 376.578 256.114 375.75 256.258 375.498L257.788 376.182C257.374 377.154 256.168 378.198 254.116 378.198ZM251.848 373.122H256.24C256.06 372.06 255.448 371.196 254.116 371.196C252.964 371.196 252.064 372.006 251.848 373.122ZM259.93 365.292H261.838V378.144H259.93V365.292ZM264.184 365.292H266.092V378.144H264.184V365.292ZM268.726 369.558H270.634V378.144H268.726V369.558ZM268.6 366.354C268.6 365.724 269.05 365.274 269.68 365.274C270.31 365.274 270.76 365.724 270.76 366.354C270.76 366.984 270.31 367.434 269.68 367.434C269.05 367.434 268.6 366.984 268.6 366.354ZM277.127 376.578C278.495 376.578 279.485 375.372 279.485 373.878C279.485 372.42 278.495 371.196 277.127 371.196C275.777 371.196 274.859 372.258 274.859 373.878C274.859 375.516 275.777 376.578 277.127 376.578ZM272.951 373.896C272.951 371.376 274.643 369.558 277.019 369.558C277.901 369.558 278.891 370.008 279.485 370.818V369.558H281.393V377.514C281.393 379.962 279.737 381.978 277.109 381.978C275.669 381.978 274.283 381.384 273.437 379.98L274.949 378.972C275.579 379.89 276.191 380.286 277.109 380.286C278.639 380.286 279.485 379.08 279.485 377.676V376.92C278.819 377.766 277.829 378.216 277.019 378.216C274.643 378.216 272.951 376.416 272.951 373.896ZM287.286 378.198C284.856 378.198 283.146 376.416 283.146 373.896C283.146 371.358 284.856 369.576 287.286 369.576C289.95 369.576 290.796 371.754 290.85 371.898C291.372 373.122 291.21 374.49 291.21 374.634H285.018C285.234 375.786 286.206 376.578 287.286 376.578C288.708 376.578 289.284 375.75 289.428 375.498L290.958 376.182C290.544 377.154 289.338 378.198 287.286 378.198ZM285.018 373.122H289.41C289.23 372.06 288.618 371.196 287.286 371.196C286.134 371.196 285.234 372.006 285.018 373.122ZM299.094 373.428C299.094 372.06 298.392 371.232 297.204 371.232C296.034 371.25 295.134 372.168 295.152 373.428V378.162H293.244V369.576H295.152V370.746C295.692 370.08 296.61 369.594 297.438 369.594C299.058 369.594 301.002 370.656 301.002 373.356V378.162H299.094V373.428ZM306.845 376.398C307.511 376.398 308.285 376.056 308.771 375.516L310.085 376.83C309.347 377.64 307.997 378.216 306.917 378.216C304.361 378.216 302.561 376.416 302.561 373.896C302.561 371.358 304.361 369.558 306.917 369.558C308.051 369.558 309.311 370.134 310.085 370.962L308.771 372.258C308.285 371.718 307.511 371.376 306.845 371.376C305.423 371.376 304.469 372.366 304.469 373.896C304.469 375.408 305.423 376.398 306.845 376.398ZM315.358 378.198C312.928 378.198 311.218 376.416 311.218 373.896C311.218 371.358 312.928 369.576 315.358 369.576C318.022 369.576 318.868 371.754 318.922 371.898C319.444 373.122 319.282 374.49 319.282 374.634H313.09C313.306 375.786 314.278 376.578 315.358 376.578C316.78 376.578 317.356 375.75 317.5 375.498L319.03 376.182C318.616 377.154 317.41 378.198 315.358 378.198ZM313.09 373.122H317.482C317.302 372.06 316.69 371.196 315.358 371.196C314.206 371.196 313.306 372.006 313.09 373.122Z" fill="#15151A"/>
<g filter="url(#filter2_d_8024_41322)">
<circle cx="520" cy="295" r="62" fill="white"/>
</g>
<g clip-path="url(#clip3_8024_41322)">
<circle cx="519.925" cy="294.997" r="24" fill="#CC7DFA"/>
<path d="M511.706 288.871C511.256 283.869 507.399 279.208 505.526 277.502L504.492 276.618C508.664 273.11 514.048 270.997 519.926 270.997C525.238 270.997 530.147 272.723 534.123 275.644C534.685 277.35 533.615 280.913 532.491 282.618C532.084 283.236 531.162 284.003 530.15 284.73C527.869 286.369 524.99 287.179 523.526 290.197C523.108 291.06 523.126 291.903 523.327 292.636C523.472 293.163 523.564 293.736 523.565 294.296C523.57 296.108 521.738 297.417 519.926 297.397C515.212 297.346 512.126 293.546 511.706 288.871Z" fill="#6D0CA6"/>
<path d="M523.374 310.061C525.745 305.592 533.65 305.592 533.65 305.592C541.887 305.506 542.999 300.505 543.743 297.977C542.412 308.732 533.965 317.282 523.259 318.769C522.484 317.14 521.567 313.465 523.374 310.061Z" fill="#6D0CA6"/>
<path fill-rule="evenodd" clip-rule="evenodd" d="M497.535 303.606C497.386 303.258 497.241 302.87 497.101 302.438C496.658 301.079 496.334 299.668 496.139 298.215C491.268 303.665 489.145 308.739 491.001 311.954C494.446 317.919 510.288 315.221 526.385 305.927C542.483 296.633 552.741 284.263 549.297 278.297C547.414 275.036 541.827 274.364 534.519 275.942C535.915 277.013 537.19 278.234 538.319 279.58C538.387 279.66 538.449 279.739 538.505 279.817C540.722 279.54 542.462 279.583 543.703 279.829C544.43 279.973 544.876 280.166 545.124 280.315C545.344 280.448 545.393 280.535 545.399 280.546L545.4 280.548C545.407 280.559 545.457 280.645 545.462 280.902C545.468 281.191 545.412 281.673 545.173 282.375C544.684 283.815 543.58 285.731 541.705 287.991C537.98 292.484 531.845 297.579 524.135 302.03C516.426 306.481 508.946 309.247 503.193 310.227C500.298 310.72 498.087 310.718 496.595 310.422C495.868 310.278 495.422 310.085 495.174 309.935C494.954 309.803 494.905 309.716 494.899 309.705L494.898 309.703C494.891 309.692 494.841 309.606 494.836 309.349C494.83 309.06 494.886 308.578 495.125 307.875C495.514 306.731 496.291 305.286 497.535 303.606Z" fill="#6D0CA6"/>
</g>
<path d="M486.349 364.86V366.534H479.671V370.476H485.413V372.132H479.671V376.47H486.349V378.144H477.763V364.86H486.349ZM492.209 376.398C492.875 376.398 493.649 376.056 494.135 375.516L495.449 376.83C494.711 377.64 493.361 378.216 492.281 378.216C489.725 378.216 487.925 376.416 487.925 373.896C487.925 371.358 489.725 369.558 492.281 369.558C493.415 369.558 494.675 370.134 495.449 370.962L494.135 372.258C493.649 371.718 492.875 371.376 492.209 371.376C490.787 371.376 489.833 372.366 489.833 373.896C489.833 375.408 490.787 376.398 492.209 376.398ZM500.722 376.596C502.054 376.596 502.954 375.534 502.954 373.896C502.954 372.276 502.054 371.196 500.722 371.196C499.39 371.196 498.49 372.258 498.49 373.896C498.49 375.534 499.372 376.596 500.722 376.596ZM496.582 373.896C496.582 371.358 498.292 369.558 500.722 369.558C503.152 369.558 504.862 371.358 504.862 373.896C504.862 376.416 503.152 378.234 500.722 378.234C498.292 378.234 496.582 376.416 496.582 373.896ZM507.991 375.21C508.369 376.146 509.305 376.578 509.881 376.578C510.781 376.578 511.357 376.236 511.357 375.642C511.357 375.102 510.565 374.85 509.683 374.544C508.513 374.13 506.857 373.572 506.857 371.916C506.857 370.404 508.243 369.486 510.007 369.486C511.069 369.486 512.653 370.098 513.085 371.646L511.483 372.222C511.195 371.268 510.421 371.124 510.007 371.124C509.251 371.124 508.765 371.43 508.765 371.916C508.765 372.456 509.503 372.672 510.421 372.996C511.645 373.428 513.265 373.986 513.265 375.624C513.265 377.19 511.879 378.216 509.881 378.216C508.567 378.216 507.127 377.388 506.497 376.074L507.991 375.21ZM518.111 381.888H516.023L517.895 377.442L514.439 369.576H516.545L518.903 375.264L521.171 369.576H523.241L520.037 377.298L518.111 381.888ZM525.692 375.21C526.07 376.146 527.006 376.578 527.582 376.578C528.482 376.578 529.058 376.236 529.058 375.642C529.058 375.102 528.266 374.85 527.384 374.544C526.214 374.13 524.558 373.572 524.558 371.916C524.558 370.404 525.944 369.486 527.708 369.486C528.77 369.486 530.354 370.098 530.786 371.646L529.184 372.222C528.896 371.268 528.122 371.124 527.708 371.124C526.952 371.124 526.466 371.43 526.466 371.916C526.466 372.456 527.204 372.672 528.122 372.996C529.346 373.428 530.966 373.986 530.966 375.624C530.966 377.19 529.58 378.216 527.582 378.216C526.268 378.216 524.828 377.388 524.198 376.074L525.692 375.21ZM533.952 378.162V371.214H532.332V369.558H533.952V366.552H535.86V369.558H537.894V371.214H535.86V378.162H533.952ZM543.384 378.198C540.954 378.198 539.244 376.416 539.244 373.896C539.244 371.358 540.954 369.576 543.384 369.576C546.048 369.576 546.894 371.754 546.948 371.898C547.47 373.122 547.308 374.49 547.308 374.634H541.116C541.332 375.786 542.304 376.578 543.384 376.578C544.806 376.578 545.382 375.75 545.526 375.498L547.056 376.182C546.642 377.154 545.436 378.198 543.384 378.198ZM541.116 373.122H545.508C545.328 372.06 544.716 371.196 543.384 371.196C542.232 371.196 541.332 372.006 541.116 373.122ZM560.25 373.284C560.25 372.06 559.584 371.25 558.612 371.25C557.514 371.25 556.776 372.096 556.776 373.194V378.162H554.85V373.284C554.85 372.06 554.202 371.25 553.248 371.25C552.15 371.25 551.376 372.186 551.376 373.392V378.162H549.468V369.576H551.376V370.746C551.88 370.062 552.618 369.594 553.428 369.594C554.454 369.594 555.462 370.242 555.966 371.142C556.56 370.242 557.712 369.594 558.738 369.594C560.772 369.594 562.176 371.106 562.176 373.212V378.162H560.25V373.284Z" fill="#15151A"/>
</g>
<defs>
<filter id="filter0_d_8024_41322" x="307" y="-20" width="180" height="180" filterUnits="userSpaceOnUse" color-interpolation-filters="sRGB">
<feFlood flood-opacity="0" result="BackgroundImageFix"/>
<feColorMatrix in="SourceAlpha" type="matrix" values="0 0 0 0 0 0 0 0 0 0 0 0 0 0 0 0 0 0 127 0" result="hardAlpha"/>
<feOffset dy="8"/>
<feGaussianBlur stdDeviation="14"/>
<feComposite in2="hardAlpha" operator="out"/>
<feColorMatrix type="matrix" values="0 0 0 0 0 0 0 0 0 0 0 0 0 0 0 0 0 0 0.05 0"/>
<feBlend mode="normal" in2="BackgroundImageFix" result="effect1_dropShadow_8024_41322"/>
<feBlend mode="normal" in="SourceGraphic" in2="effect1_dropShadow_8024_41322" result="shape"/>
</filter>
<filter id="filter1_d_8024_41322" x="184" y="213" width="180" height="180" filterUnits="userSpaceOnUse" color-interpolation-filters="sRGB">
<feFlood flood-opacity="0" result="BackgroundImageFix"/>
<feColorMatrix in="SourceAlpha" type="matrix" values="0 0 0 0 0 0 0 0 0 0 0 0 0 0 0 0 0 0 127 0" result="hardAlpha"/>
<feOffset dy="8"/>
<feGaussianBlur stdDeviation="14"/>
<feComposite in2="hardAlpha" operator="out"/>
<feColorMatrix type="matrix" values="0 0 0 0 0 0 0 0 0 0 0 0 0 0 0 0 0 0 0.05 0"/>
<feBlend mode="normal" in2="BackgroundImageFix" result="effect1_dropShadow_8024_41322"/>
<feBlend mode="normal" in="SourceGraphic" in2="effect1_dropShadow_8024_41322" result="shape"/>
</filter>
<filter id="filter2_d_8024_41322" x="430" y="213" width="180" height="180" filterUnits="userSpaceOnUse" color-interpolation-filters="sRGB">
<feFlood flood-opacity="0" result="BackgroundImageFix"/>
<feColorMatrix in="SourceAlpha" type="matrix" values="0 0 0 0 0 0 0 0 0 0 0 0 0 0 0 0 0 0 127 0" result="hardAlpha"/>
<feOffset dy="8"/>
<feGaussianBlur stdDeviation="14"/>
<feComposite in2="hardAlpha" operator="out"/>
<feColorMatrix type="matrix" values="0 0 0 0 0 0 0 0 0 0 0 0 0 0 0 0 0 0 0.05 0"/>
<feBlend mode="normal" in2="BackgroundImageFix" result="effect1_dropShadow_8024_41322"/>
<feBlend mode="normal" in="SourceGraphic" in2="effect1_dropShadow_8024_41322" result="shape"/>
</filter>
<clipPath id="clip0_8024_41322">
<rect width="793" height="386" rx="16" fill="white"/>
</clipPath>
<clipPath id="clip1_8024_41322">
<rect width="72" height="72" fill="white" transform="translate(361 26)"/>
</clipPath>
<clipPath id="clip2_8024_41322">
<rect width="72" height="72" fill="white" transform="translate(238 259)"/>
</clipPath>
<clipPath id="clip3_8024_41322">
<rect width="72" height="72" fill="white" transform="translate(484 259)"/>
</clipPath>
</defs>
</svg>
