<svg width="141" height="141" viewBox="0 0 141 141" fill="none" xmlns="http://www.w3.org/2000/svg">
<rect x="0.5" y="0.5" width="140" height="140" rx="70" fill="#F5EBFB"/>
<path d="M70.5004 41.25C75.7173 41.25 80.0152 41.7042 83.3031 42.2526C86.6339 42.8082 88.2993 43.086 89.6908 44.7801C91.0823 46.4743 91.0087 48.3054 90.8616 51.9675C90.3567 64.54 87.6122 80.2436 72.6937 81.6327V91.8524H76.8771C79.7714 91.8524 80.9718 92.8253 81.2453 94.1769L81.7987 96.9126H59.2012L59.7547 94.1769C60.0281 92.8253 61.2286 91.8524 64.1229 91.8524H68.3062V81.6326C53.3886 80.2429 50.6441 64.5398 50.1392 51.9675L50.1392 51.9675C49.9921 48.3053 49.9186 46.4743 51.3101 44.7801C52.7015 43.086 54.3669 42.8082 57.6977 42.2526C60.9856 41.7042 65.2835 41.25 70.5004 41.25Z" fill="#CC7DFA"/>
<path fill-rule="evenodd" clip-rule="evenodd" d="M70.504 50.25C69.6017 50.25 68.9982 51.3327 67.7912 53.498L67.4789 54.0582C67.1359 54.6735 66.9644 54.9811 66.697 55.1841C66.4296 55.3871 66.0965 55.4625 65.4305 55.6132L64.8241 55.7504C62.4801 56.2807 61.3082 56.5459 61.0293 57.4425C60.7505 58.3392 61.5495 59.2735 63.1474 61.142L63.5608 61.6255C64.0149 62.1565 64.2419 62.422 64.3441 62.7504C64.4462 63.0789 64.4119 63.4331 64.3432 64.1416L64.2807 64.7865C64.0392 67.2796 63.9184 68.5262 64.6483 69.0803C65.3783 69.6345 66.4756 69.1292 68.6703 68.1188L69.238 67.8573C69.8617 67.5702 70.1735 67.4266 70.504 67.4266C70.8346 67.4266 71.1464 67.5702 71.77 67.8573L72.3378 68.1188C74.5324 69.1292 75.6297 69.6345 76.3597 69.0803C77.0897 68.5262 76.9689 67.2796 76.7273 64.7865L76.6648 64.1416C76.5962 63.4331 76.5618 63.0789 76.664 62.7504C76.7661 62.422 76.9931 62.1565 77.4472 61.6255L77.8606 61.142C79.4586 59.2735 80.2575 58.3392 79.9787 57.4425C79.6999 56.5459 78.5279 56.2807 76.184 55.7504L75.5776 55.6132C74.9115 55.4625 74.5785 55.3871 74.3111 55.1841C74.0437 54.9811 73.8722 54.6735 73.5292 54.0582L73.2169 53.498C72.0099 51.3327 71.4063 50.25 70.504 50.25Z" fill="white"/>
<path d="M42.75 59.0682L42.75 59.2779C42.7501 61.7668 42.7501 63.0112 43.3561 64.0294C43.9622 65.0476 45.0626 65.6519 47.2634 66.8607L49.5852 68.1358C47.986 62.7916 47.4525 57.0495 47.2552 52.1389C47.2468 51.9284 47.2373 51.7153 47.2276 51.4999L47.2209 51.3486C45.3153 52.0028 44.2454 52.4904 43.5781 53.4057C42.7499 54.5417 42.7499 56.0505 42.75 59.0682Z" fill="#6D0CA6"/>
<path d="M98.2499 59.0693L98.2499 59.279C98.2498 61.7679 98.2498 63.0123 97.6438 64.0305C97.0378 65.0487 95.9373 65.653 93.7365 66.8618L91.416 68.1362C93.0151 62.7922 93.5485 57.0504 93.7457 52.14C93.7542 51.9295 93.7637 51.7164 93.7733 51.501L93.7801 51.3501C95.6851 52.0041 96.7546 52.4917 97.4219 53.4068C98.25 54.5428 98.25 56.0516 98.2499 59.0693Z" fill="#6D0CA6"/>
<path d="M54 101.25C54 98.7647 56.0147 96.75 58.5 96.75H82.5C84.9853 96.75 87 98.7647 87 101.25V101.25H54V101.25Z" fill="#6D0CA6"/>
</svg>
