<svg width="140" height="140" viewBox="0 0 140 140" fill="none" xmlns="http://www.w3.org/2000/svg">
<rect width="140" height="140" rx="70" fill="#F5EBFB"/>
<path d="M105.25 79C105.25 88.9411 97.1911 97 87.25 97C77.3089 97 69.25 88.9411 69.25 79C69.25 69.0589 77.3089 61 87.25 61C97.1911 61 105.25 69.0589 105.25 79Z" fill="#6D0CA6"/>
<path d="M92.6881 80.3927H98.3929C98.0098 83.4417 96.3852 86.1083 94.0368 87.8785L91.184 82.9754C91.901 82.2767 92.4298 81.3886 92.6881 80.3927Z" fill="white"/>
<path d="M88.7534 84.3695L91.6067 89.2733C90.267 89.8333 88.795 90.1429 87.25 90.1429C85.7051 90.1429 84.233 89.8333 82.8933 89.2732L85.7466 84.3695C86.2251 84.5011 86.7293 84.5715 87.25 84.5715C87.7708 84.5715 88.2749 84.5011 88.7534 84.3695Z" fill="white"/>
<path d="M83.316 82.9753L80.4632 87.8784C78.1149 86.1082 76.4903 83.4417 76.1072 80.3927H81.812C82.0703 81.3885 82.5991 82.2767 83.316 82.9753Z" fill="white"/>
<path d="M98.3928 77.6069H92.6879C92.4296 76.6112 91.9008 75.7232 91.1839 75.0246L94.0367 70.1216C96.385 71.8916 98.0096 74.558 98.3928 77.6069Z" fill="white"/>
<path d="M91.6066 68.7267C90.267 68.1667 88.7949 67.8572 87.25 67.8572C85.7051 67.8572 84.233 68.1667 82.8934 68.7268L85.7467 73.6306C86.2252 73.4989 86.7293 73.4286 87.25 73.4286C87.7707 73.4286 88.2748 73.4989 88.7533 73.6305L91.6066 68.7267Z" fill="white"/>
<path d="M80.4633 70.1216L83.3161 75.0247C82.5992 75.7232 82.0705 76.6112 81.8121 77.6069H76.1072C76.4905 74.5581 78.115 71.8917 80.4633 70.1216Z" fill="white"/>
<path d="M47.5 60.25L60.25 58.75L63.25 88H43L42.25 73L47.5 60.25Z" fill="white"/>
<path fill-rule="evenodd" clip-rule="evenodd" d="M56.5 54.9997C64.7024 54.9997 68.8037 53.5 71.3518 56.0481C73.6641 58.3604 73.8782 61.9514 73.898 68.725H76.075C77.2762 68.725 78.25 69.6988 78.25 70.9V73.0751C78.25 73.7597 77.9277 74.4043 77.38 74.8151L73.9 77.4251C73.8802 84.1987 73.6641 87.7897 71.3518 90.102C70.8251 90.6287 70.232 91.0466 69.55 91.378V94.825C69.55 96.0262 68.5762 97 67.375 97H64.1125C62.9113 97 61.9375 96.0262 61.9375 94.825V92.6099C60.3561 92.6501 58.557 92.6501 56.5 92.6501C54.443 92.6501 52.6439 92.6501 51.0625 92.6099V94.825C51.0625 96.0262 50.0887 97 48.8875 97H45.625C44.4238 97 43.45 96.0262 43.45 94.825V91.378C42.768 91.0466 42.1749 90.6287 41.6482 90.102C37.75 87.2493 39.1198 84.1987 39.1 77.4251L35.62 74.8151C35.0723 74.4043 34.75 73.7597 34.75 73.0751V70.9C34.75 69.6988 35.7238 68.725 36.925 68.725L40.75 69.25C40.75 65.5 43.6878 59.5618 46 57.2495C47.2679 55.9816 48.2976 54.9997 56.5 54.9997ZM70.6375 69.8125C70.6375 72.8885 70.6375 74.4264 69.6819 75.382C68.7264 76.3376 67.1884 76.3376 64.1125 76.3376H56.5H50.3875C47.3116 76.3376 45.7736 76.3376 44.8181 75.382C43.8625 74.4264 43.9937 73.0751 44.8181 69.8125L45.3625 67.375C45.625 66.25 46 64.75 46.75 63.25C47.3544 62.0413 49.75 60.85 51.8875 60.85H56.5H64.1125C67.1884 60.85 68.7264 60.85 69.6819 61.8055C70.6375 62.7611 70.6375 64.2991 70.6375 67.375V69.8125ZM69.0062 83.9501C69.0062 83.0492 68.2759 82.3188 67.375 82.3188H64.1125C63.2116 82.3188 62.4812 83.0492 62.4812 83.9501C62.4812 84.851 63.2116 85.5814 64.1125 85.5814H67.375C68.2759 85.5814 69.0062 84.851 69.0062 83.9501ZM43.9937 83.9501C43.9937 83.0492 44.7241 82.3188 45.625 82.3188H48.8875C49.7884 82.3188 50.5187 83.0492 50.5187 83.9501C50.5187 84.851 49.7884 85.5814 48.8875 85.5814H45.625C44.7241 85.5814 43.9937 84.851 43.9937 83.9501Z" fill="#6D0CA6"/>
<path d="M85.75 46C85.75 43.5147 83.7353 41.5 81.25 41.5H58.75C56.2647 41.5 54.25 43.5147 54.25 46V98.5H85.75V46Z" fill="#CC7DFA"/>
<path d="M61 39.1C61 37.1118 62.6118 35.5 64.6 35.5H75.4C77.3882 35.5 79 37.1118 79 39.1V39.1C79 39.5971 78.5971 40 78.1 40H61.9C61.4029 40 61 39.5971 61 39.1V39.1Z" fill="#6D0CA6"/>
<path d="M102.25 98.5C102.25 96.8431 100.907 95.5 99.25 95.5H42.25C40.5931 95.5 39.25 96.8431 39.25 98.5V100H102.25V98.5Z" fill="#CC7DFA"/>
<path fill-rule="evenodd" clip-rule="evenodd" d="M60.3994 60.3994C60.3994 59.1568 61.4068 58.1494 62.6494 58.1494H76.4494C77.6921 58.1494 78.6994 59.1568 78.6994 60.3994C78.6994 61.6421 77.6921 62.6494 76.4494 62.6494H62.6494C61.4068 62.6494 60.3994 61.6421 60.3994 60.3994Z" fill="white"/>
<path fill-rule="evenodd" clip-rule="evenodd" d="M60.3994 52C60.3994 50.7574 61.4068 49.75 62.6494 49.75H76.4494C77.6921 49.75 78.6994 50.7574 78.6994 52C78.6994 53.2426 77.6921 54.25 76.4494 54.25H62.6494C61.4068 54.25 60.3994 53.2426 60.3994 52Z" fill="white"/>
<path fill-rule="evenodd" clip-rule="evenodd" d="M60.3994 68.7988C60.3994 67.5562 61.4068 66.5488 62.6494 66.5488H76.4494C77.6921 66.5488 78.6994 67.5562 78.6994 68.7988C78.6994 70.0415 77.6921 71.0488 76.4494 71.0488H62.6494C61.4068 71.0488 60.3994 70.0415 60.3994 68.7988Z" fill="white"/>
<path fill-rule="evenodd" clip-rule="evenodd" d="M67.75 94.75L67.75 89.5C67.75 88.2574 68.7574 87.25 70 87.25C71.2426 87.25 72.25 88.2574 72.25 89.5L72.25 94.75L67.75 94.75Z" fill="white"/>
</svg>
