<svg width="140" height="141" viewBox="0 0 140 141" fill="none" xmlns="http://www.w3.org/2000/svg">
<rect y="0.25" width="140" height="140" rx="70" fill="#F5EBFB"/>
<path d="M90.3336 54.4722C86.1986 54.4722 82.9137 57.8237 82.9137 61.8921C82.9137 65.9605 86.1986 69.312 90.3336 69.312C94.4686 69.312 97.7535 65.9605 97.7535 61.8921C97.7535 57.8237 94.4686 54.4722 90.3336 54.4722Z" fill="#6D0CA6"/>
<path d="M90.3334 70.0618C86.7019 70.0618 83.4159 71.3081 81.0166 73.0433C78.7139 74.7085 76.8508 77.1243 76.8508 79.647C76.8508 82.5616 79.2247 84.0526 81.5295 84.7759C83.9141 85.5243 87.0607 85.7677 90.3334 85.7677C93.6062 85.7677 96.7528 85.5243 99.1373 84.7759C101.442 84.0526 103.816 82.5616 103.816 79.647C103.816 77.1243 101.953 74.7085 99.6503 73.0433C97.251 71.3081 93.965 70.0618 90.3334 70.0618Z" fill="#6D0CA6"/>
<path d="M49.6578 54.4722C45.5228 54.4722 42.2379 57.8237 42.2379 61.8921C42.2379 65.9605 45.5228 69.312 49.6578 69.312C53.7928 69.312 57.0777 65.9605 57.0777 61.8921C57.0777 57.8237 53.7928 54.4722 49.6578 54.4722Z" fill="#6D0CA6"/>
<path d="M49.6577 70.0618C46.0261 70.0618 42.7401 71.3081 40.3408 73.0433C38.0381 74.7085 36.175 77.1243 36.175 79.647C36.175 82.5616 38.5489 84.0526 40.8538 84.7759C43.2383 85.5243 46.3849 85.7677 49.6577 85.7677C52.9304 85.7677 56.077 85.5243 58.4616 84.7759C60.7664 84.0526 63.1403 82.5616 63.1403 79.647C63.1403 77.1243 61.2772 74.7085 58.9745 73.0433C56.5752 71.3081 53.2892 70.0618 49.6577 70.0618Z" fill="#6D0CA6"/>
<path d="M70.2873 51.8193C65.4471 51.8193 61.6015 55.742 61.6015 60.5051C61.6015 65.2682 65.4471 69.1909 70.2873 69.1909C75.1276 69.1909 78.9731 65.2682 78.9731 60.5051C78.9731 55.742 75.1276 51.8193 70.2873 51.8193Z" fill="#CC7DFA"/>
<path d="M70.2868 70.9148C65.9292 70.9148 61.986 72.411 59.1108 74.4903C56.3324 76.4996 54.175 79.3536 54.175 82.2527C54.175 85.5438 56.8432 87.2782 59.6238 88.1509C62.4841 89.0486 66.288 89.3472 70.2868 89.3472C74.2856 89.3472 78.0895 89.0486 80.9498 88.1509C83.7304 87.2782 86.3986 85.5438 86.3986 82.2527C86.3986 79.3536 84.2412 76.4996 81.4628 74.4903C78.5876 72.411 74.6444 70.9148 70.2868 70.9148Z" fill="#CC7DFA"/>
</svg>
