<svg width="140" height="140" viewBox="0 0 140 140" fill="none" xmlns="http://www.w3.org/2000/svg">
<rect width="140" height="140" rx="70" fill="#F5EBFB"/>
<path d="M71.5 35.5C71.9368 35.5 72.3447 35.7174 72.587 36.0794L76.0709 41.2842C76.4711 41.8822 76.3089 42.6901 75.7085 43.0887C75.1082 43.4873 74.297 43.3257 73.8968 42.7278L72.8064 41.0988V58.0556C73.0177 57.9483 73.239 57.8557 73.469 57.7793L79.1563 55.8912C80.0454 55.596 80.6451 54.7673 80.6451 53.8338V51.9098C80.2965 51.8422 79.8907 51.6951 79.541 51.3468C79.1302 50.9377 78.9981 50.4516 78.9468 50.071C78.9029 49.7462 78.9031 49.3614 78.9032 49.0056V48.8861C78.9031 48.5302 78.9029 48.1454 78.9468 47.8206C78.9981 47.4401 79.1302 46.954 79.541 46.5449C79.9517 46.1358 80.4398 46.0042 80.8218 45.953C81.1479 45.9094 81.5343 45.9095 81.8916 45.9097H82.0116C82.3689 45.9095 82.7552 45.9094 83.0814 45.953C83.4634 46.0042 83.9515 46.1358 84.3622 46.5449C84.773 46.954 84.9051 47.4401 84.9564 47.8206C85.0003 48.1454 85.0001 48.5302 85 48.8861V49.0056C85.0001 49.3614 85.0003 49.7462 84.9564 50.071C84.9051 50.4516 84.773 50.9377 84.3622 51.3468C84.0125 51.6951 83.6067 51.8422 83.258 51.9098V53.8338C83.258 55.8874 81.9386 57.7107 79.9825 58.3601L74.2953 60.2482C73.4061 60.5434 72.8064 61.3721 72.8064 62.3056V64.8125C74.0832 65.3272 74.9838 66.5739 74.9838 68.0301C74.9838 69.9465 73.4241 71.5 71.5 71.5C69.5759 71.5 68.0161 69.9465 68.0161 68.0301C68.0161 66.5739 68.9168 65.3272 70.1935 64.8125V58.3865C70.1935 57.453 69.5938 56.6243 68.7047 56.3291L63.0174 54.441C61.0613 53.7916 59.7419 51.9683 59.7419 49.9147V46.4849C58.712 45.9976 58 44.9521 58 43.741C58 42.0641 59.3648 40.7048 61.0484 40.7048C62.732 40.7048 64.0968 42.0641 64.0968 43.741C64.0968 44.9521 63.3847 45.9976 62.3548 46.4849V49.9147C62.3548 50.8482 62.9546 51.6769 63.8437 51.9721L69.5309 53.8602C69.761 53.9366 69.9822 54.0292 70.1935 54.1365V41.0988L69.1031 42.7278C68.7029 43.3257 67.8918 43.4873 67.2914 43.0887C66.6911 42.6901 66.5288 41.8822 66.9291 41.2842L70.4129 36.0794C70.6552 35.7174 71.0632 35.5 71.5 35.5Z" fill="#CC7DFA"/>
<path fill-rule="evenodd" clip-rule="evenodd" d="M75.4321 62.8197C74.6135 62.5 73.5756 62.5 71.5 62.5C69.4244 62.5 68.3865 62.5 67.5679 62.8197C66.4764 63.246 65.6092 64.0636 65.157 65.0927C64.9506 65.5625 64.8699 66.1089 64.8383 66.9058C64.7918 68.0769 64.1548 69.161 63.0783 69.747C62.0018 70.3329 60.6875 70.311 59.5886 69.7634C58.8407 69.3907 58.2985 69.1835 57.7638 69.1171C56.5924 68.9717 55.4078 69.271 54.4705 69.9491C53.7675 70.4577 53.2486 71.3051 52.2107 72.9999C51.1729 74.6946 50.654 75.542 50.5383 76.3703C50.3841 77.4747 50.7016 78.5916 51.4208 79.4753C51.7491 79.8787 52.2104 80.2178 52.9265 80.642C53.9792 81.2656 54.6565 82.3279 54.6564 83.5C54.6564 84.6721 53.9791 85.7342 52.9265 86.3578C52.2103 86.782 51.7489 87.1211 51.4206 87.5245C50.7013 88.4083 50.3839 89.5252 50.5381 90.6296C50.6538 91.4578 51.1727 92.3052 52.2105 94C53.2483 95.6948 53.7672 96.5422 54.4702 97.0507C55.4076 97.7288 56.5922 98.0281 57.7636 97.8827C58.2982 97.8164 58.8404 97.6091 59.5882 97.2365C60.6873 96.6889 62.0016 96.667 63.0782 97.253C64.1547 97.839 64.7918 98.9231 64.8383 100.094C64.8699 100.891 64.9506 101.438 65.157 101.907C65.6092 102.936 66.4764 103.754 67.5679 104.18C68.3865 104.5 69.4244 104.5 71.5 104.5C73.5756 104.5 74.6135 104.5 75.4321 104.18C76.5236 103.754 77.3909 102.936 77.843 101.907C78.0494 101.437 78.1302 100.891 78.1618 100.094C78.2082 98.923 78.8452 97.839 79.9216 97.253C80.9982 96.6669 82.3126 96.6887 83.4117 97.2364C84.1594 97.609 84.7016 97.8162 85.2362 97.8826C86.4076 98.028 87.5922 97.7287 88.5296 97.0506C89.2326 96.542 89.7515 95.6946 90.7893 93.9999C91.8271 92.3051 92.346 91.4577 92.4617 90.6294C92.6159 89.525 92.2985 88.4081 91.5792 87.5244C91.2509 87.121 90.7895 86.7819 90.0734 86.3577C89.0208 85.7341 88.3435 84.6719 88.3436 83.4998C88.3437 82.3279 89.0209 81.2658 90.0734 80.6423C90.7896 80.218 91.2511 79.8789 91.5794 79.4755C92.2987 78.5917 92.6161 77.4748 92.4619 76.3704C92.3462 75.5422 91.8273 74.6948 90.7895 73C89.7517 71.3052 89.2328 70.4578 88.5298 69.9493C87.5925 69.2712 86.4078 68.9719 85.2365 69.1173C84.7018 69.1836 84.1596 69.3908 83.4118 69.7635C82.3128 70.3111 80.9984 70.333 79.9218 69.747C78.8453 69.161 78.2082 68.0769 78.1618 66.9057C78.1301 66.1088 78.0494 65.5625 77.843 65.0927C77.3909 64.0636 76.5236 63.246 75.4321 62.8197Z" fill="#6D0CA6"/>
<path d="M78.4995 83.4995C78.4995 87.3655 75.3655 90.4995 71.4995 90.4995C67.6335 90.4995 64.4995 87.3655 64.4995 83.4995C64.4995 79.6335 67.6335 76.4995 71.4995 76.4995C75.3655 76.4995 78.4995 79.6335 78.4995 83.4995Z" fill="#CC7DFA"/>
</svg>
