<svg width="140" height="141" viewBox="0 0 140 141" fill="none" xmlns="http://www.w3.org/2000/svg">
<rect y="0.25" width="140" height="140" rx="70" fill="#F5EBFB"/>
<path d="M89.896 88.2226C89.8958 87.8301 89.6753 87.4535 89.2977 87.2726C88.7732 87.0213 88.1442 87.2427 87.8929 87.7672L85.5941 92.5641C85.4378 92.8904 85.4599 93.2742 85.6527 93.5804C85.8455 93.8866 86.182 94.0724 86.5439 94.0724H97.4967C97.8586 94.0724 98.1951 93.8866 98.3879 93.5804C98.5807 93.2742 98.6028 92.8904 98.4464 92.5641L96.1477 87.7672C95.8963 87.2427 95.2674 87.0213 94.7428 87.2726C94.3653 87.4535 94.1448 87.8301 94.1446 88.2226H89.896Z" fill="#CC7DFA"/>
<path d="M81.6076 67.25C80.0265 67.25 78.729 68.5064 78.729 70.102V86.4246C78.729 88.0201 80.0265 89.2766 81.6076 89.2766H102.364C103.945 89.2766 105.243 88.0201 105.243 86.4246V70.102C105.243 68.5064 103.945 67.25 102.364 67.25H81.6076Z" fill="#6D0CA6"/>
<path d="M59.7199 83.0557C59.7195 82.3011 59.2955 81.577 58.5696 81.2291C57.561 80.7458 56.3516 81.1716 55.8683 82.1801L51.4483 91.4035C51.1476 92.0309 51.1901 92.7688 51.5609 93.3576C51.9316 93.9464 52.5787 94.3036 53.2745 94.3036H74.3345C75.0302 94.3036 75.6773 93.9464 76.048 93.3576C76.4188 92.7688 76.4613 92.0309 76.1606 91.4035L71.7406 82.1801C71.2573 81.1716 70.0479 80.7458 69.0393 81.2291C68.3134 81.577 67.8894 82.3011 67.889 83.0557H59.7199Z" fill="#6D0CA6"/>
<path d="M43.7844 42.7279C40.7442 42.7279 38.2494 45.1438 38.2494 48.2117V79.5967C38.2494 82.6646 40.7442 85.0805 43.7844 85.0805H83.6944C86.7346 85.0805 89.2294 82.6646 89.2294 79.5967V48.2117C89.2294 45.1438 86.7346 42.7279 83.6944 42.7279H43.7844Z" fill="#CC7DFA"/>
<path d="M76.667 56.836C75.6537 53.206 72.794 50.3463 69.164 49.333C67.5951 48.895 66.25 50.2563 66.25 51.8851V58.2753C66.25 59.0898 66.9102 59.75 67.7247 59.75H74.1149C75.7437 59.75 77.105 58.4049 76.667 56.836Z" fill="white"/>
<path fill-rule="evenodd" clip-rule="evenodd" d="M63.7421 52.1245C63.8114 52.9501 63.1984 53.6755 62.3729 53.7448C60.3413 53.9155 58.4029 54.6751 56.7947 55.9313C55.1864 57.1874 53.9777 58.8859 53.3167 60.8194C52.6556 62.753 52.571 64.8376 53.073 66.8187C53.5751 68.7997 54.6421 70.591 56.1433 71.974C57.6445 73.357 59.5149 74.2719 61.526 74.6073C63.5371 74.9427 65.6022 74.6842 67.4693 73.8633C69.3364 73.0423 70.9248 71.6943 72.0403 69.9834C73.1558 68.2726 73.75 66.273 73.75 64.2291C73.75 63.4006 74.4216 62.7291 75.25 62.7291C76.0784 62.7291 76.75 63.4006 76.75 64.2291C76.75 66.8546 75.9868 69.4234 74.5533 71.622C73.1198 73.8205 71.0779 75.5537 68.6768 76.6095C66.2756 77.6653 63.6193 77.9979 61.0324 77.5664C58.4455 77.135 56.0404 75.9583 54.1106 74.1804C52.1808 72.4025 50.8099 70.1005 50.165 67.5557C49.52 65.0108 49.6288 62.3329 50.478 59.8489C51.3272 57.3649 52.8803 55.182 54.948 53.567C57.0157 51.952 59.5084 50.9749 62.1218 50.7553C62.9473 50.686 63.6728 51.299 63.7421 52.1245Z" fill="white"/>
</svg>
