<svg width="140" height="140" viewBox="0 0 140 140" fill="none" xmlns="http://www.w3.org/2000/svg">
<rect width="140" height="140" rx="70" fill="#F5EBFB"/>
<path d="M44.5 56.5C44.5 49.8726 49.8726 44.5 56.5 44.5H83.5C90.1274 44.5 95.5 49.8726 95.5 56.5V83.5C95.5 90.1274 90.1274 95.5 83.5 95.5H56.5C49.8726 95.5 44.5 90.1274 44.5 83.5V56.5Z" fill="#CC7DFA"/>
<path d="M74.5652 64.5455C74.5652 65.6751 75.4412 66.5909 76.5217 66.5909H78.32L73.0699 72.0797C72.8152 72.346 72.4022 72.346 72.1475 72.0797L68.0107 67.7548C66.2279 65.891 63.3373 65.891 61.5545 67.7548L55.5731 74.0082C54.809 74.807 54.809 76.1021 55.5731 76.9009C56.3371 77.6997 57.5759 77.6997 58.34 76.9009L64.3215 70.6476C64.5761 70.3813 64.9891 70.3813 65.2438 70.6476L69.3806 74.9724C71.1634 76.8363 74.054 76.8363 75.8368 74.9724L81.087 69.4836V71.3636C81.087 72.4933 81.9629 73.4091 83.0435 73.4091C84.124 73.4091 85 72.4933 85 71.3636V64.5455C85 63.4158 84.124 62.5 83.0435 62.5H76.5217C75.4412 62.5 74.5652 63.4158 74.5652 64.5455Z" fill="white"/>
<path d="M65.5 50.5C65.5 42.2157 58.7843 35.5 50.5 35.5C42.2157 35.5 35.5 42.2157 35.5 50.5C35.5 58.7843 42.2157 65.5 50.5 65.5C58.7843 65.5 65.5 58.7843 65.5 50.5Z" fill="#6D0CA6"/>
<path fill-rule="evenodd" clip-rule="evenodd" d="M51.4836 43.4448C51.4836 42.9002 51.0421 42.4588 50.4976 42.4588C49.9531 42.4588 49.5116 42.9002 49.5116 43.4448V43.7308C47.595 44.1087 45.9852 45.5656 45.9852 47.5589C45.9852 49.5522 47.595 51.0091 49.5116 51.387V55.2392C48.5277 54.9198 47.9572 54.1433 47.9572 53.4363C47.9572 52.8917 47.5157 52.4503 46.9712 52.4503C46.4266 52.4503 45.9852 52.8917 45.9852 53.4363C45.9852 55.4296 47.595 56.8865 49.5116 57.2644V57.5504C49.5116 58.095 49.9531 58.5364 50.4976 58.5364C51.0421 58.5364 51.4836 58.095 51.4836 57.5504V57.2644C53.4002 56.8865 55.01 55.4296 55.01 53.4363C55.01 51.443 53.4002 49.9861 51.4836 49.6082V45.756C52.4675 46.0754 53.038 46.8519 53.038 47.5589C53.038 48.1035 53.4795 48.5449 54.024 48.5449C54.5686 48.5449 55.01 48.1035 55.01 47.5589C55.01 45.5656 53.4002 44.1087 51.4836 43.7308V43.4448ZM49.5116 45.756C48.5277 46.0754 47.9572 46.8519 47.9572 47.5589C47.9572 48.2659 48.5277 49.0425 49.5116 49.3618V45.756ZM51.4836 51.6334V55.2392C52.4675 54.9198 53.038 54.1433 53.038 53.4363C53.038 52.7293 52.4675 51.9528 51.4836 51.6334Z" fill="white"/>
</svg>
