<svg width="140" height="140" viewBox="0 0 140 140" fill="none" xmlns="http://www.w3.org/2000/svg">
<rect width="140" height="140" rx="70" fill="#F5EBFB"/>
<path d="M46 100.375C46 96.0258 49.5258 92.5 53.875 92.5H86.125C90.4742 92.5 94 96.0258 94 100.375V100.375C94 101.825 92.8247 103 91.375 103H48.625C47.1753 103 46 101.825 46 100.375V100.375Z" fill="#CC7DFA"/>
<path d="M50.5 52.15C50.5 47.925 53.9922 44.5 58.3 44.5H81.7C86.0078 44.5 89.5 47.925 89.5 52.15V87.85C89.5 92.075 86.0078 95.5 81.7 95.5H58.3C53.9922 95.5 50.5 92.075 50.5 87.85V52.15Z" fill="#6D0CA6"/>
<path d="M53.5 54.25C53.5 50.5221 56.4549 47.5 60.1 47.5H79.9C83.5451 47.5 86.5 50.5221 86.5 54.25V85.75C86.5 89.4779 83.5451 92.5 79.9 92.5H60.1C56.4549 92.5 53.5 89.4779 53.5 85.75V54.25Z" fill="#CC7DFA"/>
<path d="M61.5625 81.8125C60.3975 81.8125 59.4531 82.7695 59.4531 83.95C59.4531 85.1305 60.3975 86.0875 61.5625 86.0875H78.4375C79.6025 86.0875 80.5469 85.1305 80.5469 83.95C80.5469 82.7695 79.6025 81.8125 78.4375 81.8125H61.5625Z" fill="white"/>
<path d="M100 52C100 60.2843 93.2843 67 85 67C76.7157 67 70 60.2843 70 52C70 43.7157 76.7157 37 85 37C93.2843 37 100 43.7157 100 52Z" fill="#6D0CA6"/>
<path d="M75.5187 49.7769C75.1554 49.3993 75.1613 48.7931 75.5319 48.423C77.9603 45.9973 81.2894 44.5 84.9599 44.5C88.6741 44.5 92.0386 46.0331 94.4741 48.5098C94.8414 48.8833 94.842 49.4895 94.4754 49.8638C94.1088 50.2381 93.5139 50.2387 93.1465 49.8652C91.0489 47.7321 88.1563 46.4149 84.9599 46.4149C81.801 46.4149 78.9389 47.7014 76.8475 49.7904C76.4769 50.1606 75.882 50.1545 75.5187 49.7769Z" fill="white"/>
<path d="M79.354 53.4453C78.9789 53.0798 78.9657 52.4737 79.3244 52.0916C80.7591 50.5632 82.7405 49.6064 84.9377 49.6064C87.161 49.6064 89.1632 50.5861 90.6018 52.1462C90.9571 52.5316 90.9386 53.1375 90.5604 53.4996C90.1821 53.8617 89.5875 53.8428 89.2321 53.4574C88.1203 52.2517 86.6022 51.5213 84.9377 51.5213C83.2925 51.5213 81.7907 52.2347 80.6825 53.4152C80.3238 53.7973 79.729 53.8108 79.354 53.4453Z" fill="white"/>
<path d="M87.4657 56.9468C87.4657 55.5367 86.3439 54.3936 84.96 54.3936C83.5761 54.3936 82.4542 55.5367 82.4542 56.9468C82.4542 58.3569 83.5761 59.5 84.96 59.5C86.3439 59.5 87.4657 58.3569 87.4657 56.9468Z" fill="white"/>
</svg>
