<svg width="140" height="140" viewBox="0 0 140 140" fill="none" xmlns="http://www.w3.org/2000/svg">
<rect width="140" height="140" rx="70" fill="#F5EBFB"/>
<path fill-rule="evenodd" clip-rule="evenodd" d="M94.57 45.6014C95.4487 46.4801 95.4487 47.9047 94.57 48.7834L90.6163 52.737C89.7377 53.6157 88.313 53.6157 87.4344 52.737C86.5557 51.8583 86.5557 50.4337 87.4344 49.555L91.388 45.6014C92.2667 44.7227 93.6913 44.7227 94.57 45.6014Z" fill="#6D0CA6"/>
<path fill-rule="evenodd" clip-rule="evenodd" d="M51.4391 88.7323C52.3178 89.6109 52.3178 91.0356 51.4391 91.9142L47.4855 95.8679C46.6068 96.7466 45.1822 96.7466 44.3035 95.8679C43.4248 94.9892 43.4248 93.5646 44.3035 92.6859L48.2572 88.7323C49.1358 87.8536 50.5605 87.8536 51.4391 88.7323Z" fill="#6D0CA6"/>
<path fill-rule="evenodd" clip-rule="evenodd" d="M44.1395 45.597C45.0182 44.7183 46.4428 44.7183 47.3215 45.597L51.279 49.5545C52.1577 50.4332 52.1577 51.8578 51.279 52.7365C50.4003 53.6152 48.9757 53.6152 48.097 52.7365L44.1395 48.779C43.2608 47.9003 43.2608 46.4757 44.1395 45.597Z" fill="#6D0CA6"/>
<path fill-rule="evenodd" clip-rule="evenodd" d="M87.4388 88.8963C88.3175 88.0176 89.7421 88.0176 90.6208 88.8963L94.5782 92.8537C95.4569 93.7324 95.4569 95.157 94.5782 96.0357C93.6995 96.9144 92.2749 96.9144 91.3962 96.0357L87.4388 92.0783C86.5601 91.1996 86.5601 89.775 87.4388 88.8963Z" fill="#6D0CA6"/>
<path fill-rule="evenodd" clip-rule="evenodd" d="M37.5996 70.8188C37.5996 69.5762 38.607 68.5688 39.8496 68.5688H42.8496C44.0922 68.5688 45.0996 69.5762 45.0996 70.8188C45.0996 72.0615 44.0922 73.0688 42.8496 73.0688H39.8496C38.607 73.0688 37.5996 72.0615 37.5996 70.8188Z" fill="#CC7DFA"/>
<path fill-rule="evenodd" clip-rule="evenodd" d="M94.9263 70.8188C94.9263 69.5762 95.9336 68.5688 97.1763 68.5688H100.176C101.419 68.5688 102.426 69.5762 102.426 70.8188C102.426 72.0615 101.419 73.0688 100.176 73.0688H97.1763C95.9336 73.0688 94.9263 72.0615 94.9263 70.8188Z" fill="#CC7DFA"/>
<path fill-rule="evenodd" clip-rule="evenodd" d="M69.356 102.574C70.5986 102.574 71.606 101.566 71.606 100.324V97.3237C71.606 96.0811 70.5986 95.0737 69.356 95.0737C68.1133 95.0737 67.106 96.0811 67.106 97.3237V100.324C67.106 101.566 68.1133 102.574 69.356 102.574Z" fill="#CC7DFA"/>
<path fill-rule="evenodd" clip-rule="evenodd" d="M69.3589 45.25C70.6015 45.25 71.6089 44.2426 71.6089 43V40C71.6089 38.7574 70.6015 37.75 69.3589 37.75C68.1162 37.75 67.1089 38.7574 67.1089 40V43C67.1089 44.2426 68.1162 45.25 69.3589 45.25Z" fill="#CC7DFA"/>
<path fill-rule="evenodd" clip-rule="evenodd" d="M69.25 51.25C67.4746 51.25 66.2872 53.3802 63.9122 57.6407L63.2978 58.7429C62.6229 59.9536 62.2854 60.559 61.7593 60.9584C61.2331 61.3578 60.5778 61.5061 59.2673 61.8026L58.0741 62.0726C53.4622 63.116 51.1563 63.6378 50.6077 65.402C50.059 67.1662 51.6311 69.0045 54.7752 72.6811L55.5886 73.6323C56.4821 74.6771 56.9288 75.1995 57.1297 75.8457C57.3307 76.492 57.2632 77.189 57.1281 78.5829L57.0051 79.852C56.5298 84.7574 56.2921 87.2101 57.7284 88.3004C59.1647 89.3908 61.3238 88.3966 65.6419 86.4084L66.759 85.8941C67.9861 85.3291 68.5997 85.0466 69.25 85.0466C69.9004 85.0466 70.5139 85.3291 71.741 85.8941L72.8581 86.4084C77.1762 88.3966 79.3353 89.3908 80.7716 88.3004C82.2079 87.2101 81.9702 84.7574 81.4949 79.852L81.3719 78.5829C81.2369 77.189 81.1693 76.492 81.3703 75.8457C81.5712 75.1995 82.0179 74.6771 82.9114 73.6323L83.7248 72.6811C86.8689 69.0045 88.441 67.1662 87.8923 65.402C87.3437 63.6378 85.0378 63.116 80.4259 62.0726L79.2327 61.8026C77.9222 61.5061 77.2669 61.3578 76.7407 60.9584C76.2146 60.559 75.8771 59.9536 75.2023 58.7429L74.5878 57.6407C72.2129 53.3802 71.0254 51.25 69.25 51.25Z" fill="#CC7DFA"/>
</svg>
