<svg width="140" height="140" viewBox="0 0 140 140" fill="none" xmlns="http://www.w3.org/2000/svg">
<rect width="140" height="140" rx="70" fill="#F5EBFB"/>
<path d="M80.1992 59.7988L87.849 59.8C92.0739 59.8007 95.4993 56.3762 95.5 52.1512C95.5007 47.9262 92.0763 44.5007 87.8514 44.5C83.6265 44.4993 80.201 47.9238 80.2004 52.1488L80.1992 59.7988L59.8008 59.7988L59.7996 52.1488C59.799 47.9238 56.3735 44.4993 52.1486 44.5C47.9237 44.5007 44.4993 47.9262 44.5 52.1512C44.5007 56.3762 47.9261 59.8007 52.151 59.8L59.8008 59.7988L59.7996 80.1988H80.1992V59.7988Z" fill="#6D0CA6"/>
<path d="M80.1992 80.1988L87.849 80.2C92.0739 80.1993 95.4993 83.6238 95.5 87.8488C95.5007 92.0738 92.0763 95.4993 87.8514 95.5C83.6265 95.5007 80.201 92.0762 80.2004 87.8512L80.1992 80.1988Z" fill="#6D0CA6"/>
<path d="M52.151 80.2L59.8008 80.2012L59.7996 87.8512C59.799 92.0762 56.3735 95.5007 52.1486 95.5C47.9237 95.4993 44.4993 92.0738 44.5 87.8488C44.5007 83.6238 47.9261 80.1993 52.151 80.2Z" fill="#6D0CA6"/>
<path d="M80.1986 59.7989L59.8003 59.7988V80.2013L80.1986 80.1988V59.7989Z" fill="#CC7DFA"/>
<path d="M71.5866 52.5978C71.5866 53.5298 70.831 54.2853 69.8991 54.2853C68.9671 54.2853 68.2116 53.5298 68.2116 52.5978V49.7412C68.2116 48.8092 68.9671 48.0537 69.8991 48.0537C70.831 48.0537 71.5866 48.8092 71.5866 49.7412V52.5978Z" fill="#CC7DFA"/>
<path d="M87.7558 68.7671C86.8238 68.7671 86.0683 69.5226 86.0683 70.4546C86.0683 71.3865 86.8238 72.1421 87.7558 72.1421H90.6124C91.5444 72.1421 92.2999 71.3865 92.2999 70.4546C92.2999 69.5226 91.5444 68.7671 90.6124 68.7671H87.7558Z" fill="#CC7DFA"/>
<path d="M49.1875 68.7671C48.2555 68.7671 47.5 69.5226 47.5 70.4546C47.5 71.3865 48.2555 72.1421 49.1875 72.1421H52.0433C52.9753 72.1421 53.7308 71.3865 53.7308 70.4546C53.7308 69.5226 52.9753 68.7671 52.0433 68.7671L49.1875 68.7671Z" fill="#CC7DFA"/>
<path d="M69.9001 92.8547C70.8321 92.8547 71.5876 92.0991 71.5876 91.1672L71.5876 88.3114C71.5876 87.3794 70.8321 86.6239 69.9001 86.6239C68.9681 86.6239 68.2126 87.3794 68.2126 88.3114V91.1672C68.2126 92.0991 68.9681 92.8547 69.9001 92.8547Z" fill="#CC7DFA"/>
</svg>
