<svg width="141" height="140" viewBox="0 0 141 140" fill="none" xmlns="http://www.w3.org/2000/svg">
<rect x="0.5" width="140" height="140" rx="70" fill="#F5EBFB"/>
<circle cx="70.5" cy="61.75" r="20.25" fill="#CC7DFA"/>
<path d="M63.5647 56.5809C63.1855 52.3604 59.9307 48.4276 58.3507 46.9888L57.4779 46.2423C60.9985 43.2827 65.5414 41.5 70.5007 41.5C74.9828 41.5 79.1248 42.9562 82.4794 45.4213C82.9534 46.8601 82.0506 49.8664 81.1026 51.3053C80.7593 51.8264 79.9806 52.4734 79.1269 53.0868C77.2022 54.4697 74.7732 55.1536 73.5382 57.7C73.1852 58.4279 73.2003 59.1394 73.3701 59.7579C73.4922 60.2026 73.5702 60.6859 73.5714 61.1586C73.5754 62.6874 72.0294 63.7917 70.5007 63.775C66.523 63.7316 63.9191 60.526 63.5647 56.5809Z" fill="#6D0CA6"/>
<path d="M73.4094 74.4585C75.4103 70.6878 82.0799 70.6878 82.0799 70.6878C89.0297 70.6153 89.9685 66.3957 90.5961 64.2629C89.4728 73.3377 82.3456 80.5514 73.3123 81.8062C72.659 80.4314 71.8851 77.331 73.4094 74.4585Z" fill="#6D0CA6"/>
<path d="M56.7593 98.3389L57.0172 98.5968C57.9527 99.5323 58.4204 100 59.0016 100C59.5828 100 60.0505 99.5323 60.986 98.5968L62.0892 97.4936C62.6037 96.9791 62.8609 96.7219 62.9585 96.36C63.0561 95.9982 62.9727 95.6829 62.8058 95.0523C61.7077 90.9009 58.8394 86.3139 54.8676 85.3099C54.6007 85.2424 54.33 85.2125 54.0572 85.2283C52.8815 85.2965 51.9832 86.2756 52.0643 87.4708C52.0815 87.7232 52.1359 87.956 52.2496 88.1317C52.1445 87.999 52.0464 87.8693 51.955 87.7432C51.1949 86.6947 50.9191 85.4524 50.7491 84.2326L50.3105 81.085C50.1559 79.9753 49.2178 79.0371 48.1082 78.8822C47.1092 78.7428 46.2276 79.2764 46.0106 80.213C45.7576 81.3053 45.4883 82.757 45.5302 83.8505C45.5722 84.9456 45.9485 86.2621 46.3059 87.2866C46.7019 88.4214 47.3346 89.4799 48.0555 90.4792C49.5175 92.5059 51.3785 94.2808 53.4609 95.6517C54.6381 96.4267 55.7564 97.3359 56.7593 98.3389Z" fill="#CC7DFA"/>
<path d="M84.2408 98.3389L83.9829 98.5968C83.0474 99.5323 82.5797 100 81.9985 100C81.4173 100 80.9496 99.5323 80.0141 98.5968L78.9109 97.4936C78.3964 96.9791 78.1392 96.7219 78.0416 96.36C77.944 95.9982 78.0274 95.6829 78.1942 95.0523C79.2924 90.9009 82.1607 86.3139 86.1325 85.3099C86.3994 85.2424 86.6701 85.2125 86.9429 85.2283C88.1186 85.2965 89.0169 86.2756 88.9357 87.4708C88.9186 87.7232 88.8642 87.956 88.7505 88.1317C88.8556 87.999 88.9537 87.8693 89.0451 87.7432C89.8052 86.6947 90.081 85.4524 90.251 84.2326L90.6896 81.085C90.8442 79.9753 91.7823 79.0371 92.8919 78.8822C93.8908 78.7428 94.7725 79.2764 94.9895 80.213C95.2425 81.3053 95.5118 82.757 95.4699 83.8505C95.4279 84.9456 95.0516 86.2621 94.6941 87.2866C94.2982 88.4214 93.6655 89.4799 92.9446 90.4792C91.4826 92.5059 89.6216 94.2808 87.5392 95.6517C86.362 96.4267 85.2437 97.3359 84.2408 98.3389Z" fill="#CC7DFA"/>
<path fill-rule="evenodd" clip-rule="evenodd" d="M71.811 52.5378C71.811 51.8266 71.2241 51.25 70.5 51.25C69.7759 51.25 69.189 51.8266 69.189 52.5378V52.9115C66.6405 53.4051 64.5 55.3081 64.5 57.9116C64.5 60.5152 66.6405 62.4181 69.189 62.9117V67.9433C67.8807 67.5261 67.1221 66.5118 67.1221 65.5884C67.1221 64.8771 66.5351 64.3005 65.811 64.3005C65.087 64.3005 64.5 64.8771 64.5 65.5884C64.5 68.1919 66.6405 70.0949 69.189 70.5885V70.9621C69.189 71.6734 69.7759 72.25 70.5 72.25C71.2241 72.25 71.811 71.6734 71.811 70.9621V70.5885C74.3595 70.0949 76.5 68.1919 76.5 65.5884C76.5 62.9848 74.3595 61.0819 71.811 60.5883V55.5567C73.1193 55.9739 73.8779 56.9882 73.8779 57.9116C73.8779 58.6229 74.4649 59.1995 75.189 59.1995C75.913 59.1995 76.5 58.6229 76.5 57.9116C76.5 55.3081 74.3595 53.4051 71.811 52.9115V52.5378ZM69.189 55.5567C67.8807 55.9739 67.1221 56.9882 67.1221 57.9116C67.1221 58.8351 67.8807 59.8493 69.189 60.2665V55.5567ZM71.811 63.2335V67.9433C73.1193 67.5261 73.8779 66.5118 73.8779 65.5884C73.8779 64.6649 73.1193 63.6507 71.811 63.2335Z" fill="white"/>
</svg>
