<svg width="140" height="140" viewBox="0 0 140 140" fill="none" xmlns="http://www.w3.org/2000/svg">
<rect width="140" height="140" rx="70" fill="#F5EBFB"/>
<path d="M51.6372 101.052H50.802C47.7725 101.052 46.2578 101.052 45.3166 100.111C44.3755 99.17 44.3755 97.6553 44.3755 94.6258V91.0529C44.3755 89.3868 44.3755 88.5537 44.8034 87.8098C45.2314 87.0659 45.8769 86.6904 47.1681 85.9394C55.6686 80.9954 67.7407 78.2124 75.7979 83.018C76.3393 83.3409 76.8261 83.7307 77.2422 84.198C79.0355 86.2123 78.9048 89.2524 76.838 91.0563C76.4016 91.4372 75.9364 91.7261 75.4679 91.8265C75.8529 91.7819 76.2219 91.7307 76.5739 91.6745C79.5025 91.2074 81.9608 89.6425 84.2113 87.9424L90.0183 83.5558C92.0654 82.0094 95.1038 82.0091 97.1513 83.5551C98.9947 84.9469 99.5583 87.2387 98.3929 89.1066C97.0339 91.285 95.1192 94.0718 93.2807 95.7746C91.4395 97.4799 88.6985 99.0023 86.4608 100.082C83.982 101.279 81.2435 101.968 78.4581 102.419C72.8089 103.334 66.9214 103.194 61.3296 102.042C58.1684 101.391 54.8853 101.052 51.6372 101.052Z" fill="#CC7DFA"/>
<path d="M79.9013 39.9703C79.9013 38.3298 78.5714 37 76.931 37H62.0796C60.4392 37 59.1094 38.3298 59.1094 39.9703V54.8216H79.9013V39.9703Z" fill="#CC7DFA"/>
<path fill-rule="evenodd" clip-rule="evenodd" d="M70.0001 54.6016C69.3335 54.6016 68.8876 55.4015 67.9958 57.0013L67.765 57.4152C67.5116 57.8698 67.3849 58.0971 67.1873 58.2471C66.9898 58.3971 66.7437 58.4527 66.2516 58.5641L65.8036 58.6654C64.0718 59.0573 63.2059 59.2532 62.9999 59.9156C62.7939 60.5781 63.3842 61.2684 64.5648 62.649L64.8702 63.0061C65.2057 63.3984 65.3735 63.5946 65.4489 63.8373C65.5244 64.08 65.4991 64.3417 65.4483 64.8651L65.4022 65.3416C65.2237 67.1836 65.1344 68.1046 65.6737 68.514C66.2131 68.9234 67.0238 68.5502 68.6453 67.8036L69.0648 67.6104C69.5255 67.3983 69.7559 67.2922 70.0001 67.2922C70.2443 67.2922 70.4747 67.3983 70.9355 67.6104L71.355 67.8036C72.9764 68.5502 73.7872 68.9234 74.3265 68.514C74.8658 68.1046 74.7766 67.1836 74.5981 65.3416L74.5519 64.8651C74.5012 64.3417 74.4758 64.0799 74.5513 63.8373C74.6267 63.5946 74.7945 63.3984 75.13 63.0062L75.4354 62.649C76.616 61.2684 77.2063 60.5781 77.0003 59.9156C76.7943 59.2532 75.9284 59.0573 74.1967 58.6654L73.7486 58.5641C73.2565 58.4527 73.0105 58.3971 72.8129 58.2471C72.6153 58.0971 72.4886 57.8698 72.2352 57.4152L72.0045 57.0013C71.1127 55.4015 70.6668 54.6016 70.0001 54.6016Z" fill="white"/>
<path fill-rule="evenodd" clip-rule="evenodd" d="M70.0001 77.5944C78.7491 77.5944 85.8416 70.5019 85.8416 61.7529C85.8416 53.004 78.7491 45.9115 70.0001 45.9115C61.2511 45.9115 54.1587 53.004 54.1587 61.7529C54.1587 70.5019 61.2511 77.5944 70.0001 77.5944ZM70.0001 55.8124C69.4376 55.8124 69.0614 56.4873 68.309 57.8372L68.1143 58.1864C67.9005 58.57 67.7936 58.7618 67.6269 58.8883C67.4602 59.0148 67.2525 59.0618 66.8373 59.1558L66.4593 59.2413C64.9981 59.5719 64.2675 59.7372 64.0937 60.2962C63.9199 60.8551 64.418 61.4375 65.4141 62.6024L65.6718 62.9038C65.9549 63.2348 66.0964 63.4003 66.1601 63.605C66.2238 63.8098 66.2024 64.0306 66.1596 64.4723L66.1206 64.8743C65.97 66.4285 65.8947 67.2056 66.3498 67.551C66.8048 67.8965 67.4889 67.5815 68.857 66.9516L69.2109 66.7886C69.5997 66.6096 69.7941 66.5201 70.0001 66.5201C70.2062 66.5201 70.4006 66.6096 70.7893 66.7886L71.1433 66.9516C72.5114 67.5815 73.1954 67.8965 73.6505 67.551C74.1056 67.2056 74.0303 66.4285 73.8797 64.8743L73.8407 64.4723C73.7979 64.0306 73.7765 63.8098 73.8402 63.605C73.9039 63.4003 74.0454 63.2348 74.3284 62.9038L74.5862 62.6024C75.5823 61.4375 76.0804 60.8551 75.9066 60.2962C75.7327 59.7372 75.0022 59.5719 73.541 59.2413L73.1629 59.1558C72.7477 59.0618 72.5401 59.0148 72.3734 58.8883C72.2067 58.7618 72.0998 58.57 71.886 58.1864L71.6913 57.8372C70.9389 56.4873 70.5626 55.8124 70.0001 55.8124Z" fill="#6D0CA6"/>
</svg>
