<svg width="140" height="140" viewBox="0 0 140 140" fill="none" xmlns="http://www.w3.org/2000/svg">
<rect width="140" height="140" rx="70" fill="#F5EBFB"/>
<path d="M69.9995 40C71.2133 40 72.1972 40.9636 72.1972 42.1522V47.8913C72.1972 49.0799 71.2133 50.0435 69.9995 50.0435C68.7858 50.0435 67.8018 49.0799 67.8018 47.8913V42.1522C67.8018 40.9636 68.7858 40 69.9995 40Z" fill="#6D0CA6"/>
<path d="M45.6537 47.0061C46.5119 46.1656 47.9034 46.1656 48.7616 47.0061L52.9056 51.0642C53.7639 51.9047 53.7639 53.2674 52.9056 54.1079C52.0474 54.9484 50.6559 54.9484 49.7976 54.1079L45.6537 50.0497C44.7954 49.2092 44.7954 47.8465 45.6537 47.0061Z" fill="#6D0CA6"/>
<path d="M94.3454 47.0061C95.2036 47.8465 95.2036 49.2092 94.3454 50.0497L90.2014 54.1079C89.3432 54.9484 87.9517 54.9484 87.0934 54.1079C86.2352 53.2674 86.2352 51.9047 87.0934 51.0642L91.2374 47.0061C92.0956 46.1656 93.4871 46.1656 94.3454 47.0061Z" fill="#6D0CA6"/>
<path d="M38.4995 70.8478C38.4995 69.6592 39.4834 68.6957 40.6972 68.6957H46.5577C47.7714 68.6957 48.7553 69.6592 48.7553 70.8478C48.7553 72.0364 47.7714 73 46.5577 73H40.6972C39.4834 73 38.4995 72.0364 38.4995 70.8478Z" fill="#6D0CA6"/>
<path d="M91.2437 70.8478C91.2437 69.6592 92.2276 68.6957 93.4414 68.6957H99.3019C100.516 68.6957 101.5 69.6592 101.5 70.8478C101.5 72.0364 100.516 73 99.3019 73H93.4414C92.2276 73 91.2437 72.0364 91.2437 70.8478Z" fill="#6D0CA6"/>
<path d="M53.4995 73V70.9231C53.4995 62.129 60.8868 55 69.9995 55C79.1122 55 86.4995 62.129 86.4995 70.9231V73H53.4995Z" fill="#6D0CA6"/>
<path d="M49.584 80.75C49.584 79.7835 50.3675 79 51.334 79H88.6673C89.6338 79 90.4173 79.7835 90.4173 80.75C90.4173 81.7165 89.6338 82.5 88.6673 82.5H51.334C50.3675 82.5 49.584 81.7165 49.584 80.75Z" fill="#CC7DFA"/>
<path d="M56.5845 89.75C56.5845 88.7835 57.368 88 58.3345 88H81.6678C82.6343 88 83.4178 88.7835 83.4178 89.75C83.4178 90.7165 82.6343 91.5 81.6678 91.5H58.3345C57.368 91.5 56.5845 90.7165 56.5845 89.75Z" fill="#CC7DFA"/>
<path d="M63.5845 99.0833C63.5845 98.1168 64.368 97.3333 65.3345 97.3333H74.6678C75.6343 97.3333 76.4178 98.1168 76.4178 99.0833C76.4178 100.05 75.6343 100.833 74.6678 100.833H65.3345C64.368 100.833 63.5845 100.05 63.5845 99.0833Z" fill="#CC7DFA"/>
</svg>
