<svg width="140" height="140" viewBox="0 0 140 140" fill="none" xmlns="http://www.w3.org/2000/svg">
<rect width="140" height="140" rx="70" fill="#F5EBFB"/>
<path fill-rule="evenodd" clip-rule="evenodd" d="M82.8847 49.0631C82.0909 48.5746 81.0515 48.8221 80.5631 49.6158L71.7938 63.8658C71.3054 64.6596 71.5529 65.699 72.3466 66.1874C73.1403 66.6759 74.1797 66.4284 74.6682 65.6346L83.4374 51.3847C83.9259 50.5909 83.6784 49.5515 82.8847 49.0631ZM67.6539 73.8131C66.8602 73.3246 65.8207 73.5721 65.3323 74.3658L56.5631 88.6158C56.0746 89.4095 56.3221 90.449 57.1158 90.9374C57.9096 91.4259 58.949 91.1784 59.4374 90.3846L68.2066 76.1346C68.6951 75.3409 68.4476 74.3015 67.6539 73.8131Z" fill="#6D0CA6"/>
<path fill-rule="evenodd" clip-rule="evenodd" d="M57.1158 49.0631C57.9096 48.5746 58.949 48.8221 59.4374 49.6158L68.2066 63.8658C68.6951 64.6596 68.4476 65.699 67.6539 66.1874C66.8602 66.6759 65.8207 66.4284 65.3323 65.6346L56.5631 51.3847C56.0746 50.5909 56.3221 49.5515 57.1158 49.0631ZM72.3466 73.8131C73.1403 73.3246 74.1797 73.5721 74.6682 74.3658L83.4374 88.6158C83.9259 89.4095 83.6784 90.449 82.8846 90.9374C82.0909 91.4259 81.0515 91.1784 80.5631 90.3846L71.7938 76.1346C71.3054 75.3409 71.5529 74.3015 72.3466 73.8131Z" fill="#6D0CA6"/>
<path fill-rule="evenodd" clip-rule="evenodd" d="M47.3125 70C47.3125 69.068 48.068 68.3125 49 68.3125H64C64.932 68.3125 65.6875 69.068 65.6875 70C65.6875 70.932 64.932 71.6875 64 71.6875H49C48.068 71.6875 47.3125 70.932 47.3125 70Z" fill="#6D0CA6"/>
<path fill-rule="evenodd" clip-rule="evenodd" d="M74.3125 70C74.3125 69.068 75.068 68.3125 76 68.3125H91C91.932 68.3125 92.6875 69.068 92.6875 70C92.6875 70.932 91.932 71.6875 91 71.6875H76C75.068 71.6875 74.3125 70.932 74.3125 70Z" fill="#6D0CA6"/>
<path fill-rule="evenodd" clip-rule="evenodd" d="M51.0926 63.7776C50.2854 63.3116 50.0089 62.2796 50.4749 61.4724L53.0241 57.0572C53.4901 56.25 54.5221 55.9735 55.3292 56.4395C56.1364 56.9055 56.4129 57.9375 55.9469 58.7447L53.3977 63.1599C52.9317 63.9671 51.8997 64.2436 51.0926 63.7776ZM51.0986 76.2334C51.9058 75.7674 52.9378 76.0439 53.4038 76.851L55.9588 81.2764C56.4248 82.0835 56.1483 83.1156 55.3411 83.5816C54.534 84.0476 53.502 83.771 53.036 82.9639L50.481 78.5385C50.015 77.7314 50.2915 76.6994 51.0986 76.2334ZM64.5624 89.4858C64.5624 88.5538 65.318 87.7983 66.2499 87.7983H73.7499C74.6819 87.7983 75.4374 88.5538 75.4374 89.4858C75.4374 90.4178 74.6819 91.1733 73.7499 91.1733H66.2499C65.318 91.1733 64.5624 90.4178 64.5624 89.4858ZM64.5624 50.5146C64.5624 49.5827 65.318 48.8271 66.2499 48.8271L73.7499 48.8271C74.6819 48.8271 75.4374 49.5827 75.4374 50.5146C75.4374 51.4466 74.6819 52.2021 73.7499 52.2021L66.2499 52.2021C65.318 52.2021 64.5624 51.4466 64.5624 50.5146ZM84.6764 83.551C83.8693 83.0851 83.5927 82.053 84.0587 81.2459L86.6042 76.8369C87.0702 76.0298 88.1022 75.7533 88.9094 76.2193C89.7165 76.6853 89.993 77.7173 89.527 78.5244L86.9815 82.9334C86.5155 83.7405 85.4835 84.017 84.6764 83.551ZM84.7281 56.539C85.5352 56.073 86.5673 56.3496 87.0333 57.1567L89.525 61.4725C89.991 62.2796 89.7145 63.3117 88.9073 63.7777C88.1002 64.2436 87.0682 63.9671 86.6022 63.16L84.1104 58.8442C83.6445 58.0371 83.921 57.005 84.7281 56.539Z" fill="#6D0CA6"/>
<circle cx="58" cy="50.5" r="9" fill="#CC7DFA"/>
<path d="M58.0015 45.5737C56.7231 45.5737 55.7075 46.6098 55.7075 47.8677C55.7075 49.1256 56.7231 50.1617 58.0015 50.1617C59.2798 50.1617 60.2954 49.1256 60.2954 47.8677C60.2954 46.6098 59.2798 45.5737 58.0015 45.5737Z" fill="#6D0CA6"/>
<path d="M58.0003 50.563C56.8564 50.563 55.8213 50.9557 55.0663 51.5017C54.3379 52.0284 53.7666 52.7805 53.7666 53.5497C53.7666 54.4268 54.4785 54.8856 55.2075 55.1144C55.9584 55.35 56.9552 55.428 58.0003 55.428C59.0454 55.428 60.0422 55.35 60.7931 55.1144C61.5221 54.8856 62.234 54.4268 62.234 53.5497C62.234 52.7805 61.6627 52.0284 60.9343 51.5017C60.1793 50.9557 59.1442 50.563 58.0003 50.563Z" fill="#6D0CA6"/>
<circle cx="49" cy="70" r="9" fill="#CC7DFA"/>
<path d="M49.0015 65.0737C47.7231 65.0737 46.7075 66.1098 46.7075 67.3677C46.7075 68.6256 47.7231 69.6617 49.0015 69.6617C50.2798 69.6617 51.2954 68.6256 51.2954 67.3677C51.2954 66.1098 50.2798 65.0737 49.0015 65.0737Z" fill="#6D0CA6"/>
<path d="M49.0003 70.063C47.8564 70.063 46.8213 70.4557 46.0663 71.0017C45.3379 71.5284 44.7666 72.2805 44.7666 73.0497C44.7666 73.9268 45.4785 74.3856 46.2075 74.6144C46.9584 74.85 47.9552 74.928 49.0003 74.928C50.0454 74.928 51.0422 74.85 51.7931 74.6144C52.5221 74.3856 53.234 73.9268 53.234 73.0497C53.234 72.2805 52.6627 71.5284 51.9343 71.0017C51.1793 70.4557 50.1442 70.063 49.0003 70.063Z" fill="#6D0CA6"/>
<circle cx="58" cy="89.5" r="9" fill="#CC7DFA"/>
<path d="M58.0015 84.5737C56.7231 84.5737 55.7075 85.6098 55.7075 86.8677C55.7075 88.1256 56.7231 89.1617 58.0015 89.1617C59.2798 89.1617 60.2954 88.1256 60.2954 86.8677C60.2954 85.6098 59.2798 84.5737 58.0015 84.5737Z" fill="#6D0CA6"/>
<path d="M58.0003 89.563C56.8564 89.563 55.8213 89.9557 55.0663 90.5017C54.3379 91.0284 53.7666 91.7805 53.7666 92.5497C53.7666 93.4268 54.4785 93.8856 55.2075 94.1144C55.9584 94.35 56.9552 94.428 58.0003 94.428C59.0454 94.428 60.0422 94.35 60.7931 94.1144C61.5221 93.8856 62.234 93.4268 62.234 92.5497C62.234 91.7805 61.6627 91.0284 60.9343 90.5017C60.1793 89.9557 59.1442 89.563 58.0003 89.563Z" fill="#6D0CA6"/>
<circle cx="82" cy="50.5" r="9" fill="#CC7DFA"/>
<path d="M82 45.5723C80.7217 45.5723 79.7061 46.6083 79.7061 47.8662C79.7061 49.1241 80.7217 50.1602 82 50.1602C83.2784 50.1602 84.294 49.1241 84.294 47.8662C84.294 46.6083 83.2784 45.5723 82 45.5723Z" fill="#6D0CA6"/>
<path d="M82.0003 50.5615C80.8564 50.5615 79.8213 50.9542 79.0663 51.5002C78.3379 52.027 77.7666 52.779 77.7666 53.5482C77.7666 54.4253 78.4785 54.8841 79.2075 55.1129C79.9584 55.3486 80.9552 55.4265 82.0003 55.4265C83.0454 55.4265 84.0422 55.3486 84.7931 55.1129C85.5221 54.8841 86.234 54.4253 86.234 53.5482C86.234 52.779 85.6627 52.027 84.9343 51.5002C84.1793 50.9542 83.1442 50.5615 82.0003 50.5615Z" fill="#6D0CA6"/>
<circle cx="91" cy="70" r="9" fill="#CC7DFA"/>
<path d="M91.0015 65.0737C89.7231 65.0737 88.7075 66.1098 88.7075 67.3677C88.7075 68.6256 89.7231 69.6617 91.0015 69.6617C92.2798 69.6617 93.2954 68.6256 93.2954 67.3677C93.2954 66.1098 92.2798 65.0737 91.0015 65.0737Z" fill="#6D0CA6"/>
<path d="M91.0003 70.063C89.8564 70.063 88.8213 70.4557 88.0663 71.0017C87.3379 71.5284 86.7666 72.2805 86.7666 73.0497C86.7666 73.9268 87.4785 74.3856 88.2075 74.6144C88.9584 74.85 89.9552 74.928 91.0003 74.928C92.0454 74.928 93.0422 74.85 93.7931 74.6144C94.5221 74.3856 95.234 73.9268 95.234 73.0497C95.234 72.2805 94.6627 71.5284 93.9343 71.0017C93.1793 70.4557 92.1442 70.063 91.0003 70.063Z" fill="#6D0CA6"/>
<circle cx="82" cy="89.5" r="9" fill="#CC7DFA"/>
<path d="M82.0015 84.5737C80.7231 84.5737 79.7075 85.6098 79.7075 86.8677C79.7075 88.1256 80.7231 89.1617 82.0015 89.1617C83.2798 89.1617 84.2954 88.1256 84.2954 86.8677C84.2954 85.6098 83.2798 84.5737 82.0015 84.5737Z" fill="#6D0CA6"/>
<path d="M82.0003 89.563C80.8564 89.563 79.8213 89.9557 79.0663 90.5017C78.3379 91.0284 77.7666 91.7805 77.7666 92.5497C77.7666 93.4268 78.4785 93.8856 79.2075 94.1144C79.9584 94.35 80.9552 94.428 82.0003 94.428C83.0454 94.428 84.0422 94.35 84.7931 94.1144C85.5221 93.8856 86.234 93.4268 86.234 92.5497C86.234 91.7805 85.6627 91.0284 84.9343 90.5017C84.1793 89.9557 83.1442 89.563 82.0003 89.563Z" fill="#6D0CA6"/>
</svg>
