<svg width="140" height="140" viewBox="0 0 140 140" fill="none" xmlns="http://www.w3.org/2000/svg">
<rect width="140" height="140" rx="70" fill="#F5EBFB"/>
<path d="M55 60.911C55 57.6465 57.6465 55 60.911 55H79.089C82.3535 55 85 57.6465 85 60.911V79.089C85 82.3535 82.3535 85 79.089 85H60.911C57.6465 85 55 82.3535 55 79.089V60.911Z" fill="#6D0CA6"/>
<path fill-rule="evenodd" clip-rule="evenodd" d="M86.5 58C86.5 57.1716 87.1716 56.5 88 56.5L92.5 56.5C93.3284 56.5 94 57.1716 94 58C94 58.8284 93.3284 59.5 92.5 59.5L88 59.5C87.1716 59.5 86.5 58.8284 86.5 58Z" fill="#CC7DFA"/>
<path fill-rule="evenodd" clip-rule="evenodd" d="M86.5 64C86.5 63.1716 87.1716 62.5 88 62.5L91 62.5C91.8284 62.5 92.5 63.1716 92.5 64C92.5 64.8284 91.8284 65.5 91 65.5L88 65.5C87.1716 65.5 86.5 64.8284 86.5 64Z" fill="#6D0CA6"/>
<path fill-rule="evenodd" clip-rule="evenodd" d="M86.5 70C86.5 69.1716 87.1716 68.5 88 68.5L91 68.5C91.8284 68.5 92.5 69.1716 92.5 70C92.5 70.8284 91.8284 71.5 91 71.5L88 71.5C87.1716 71.5 86.5 70.8284 86.5 70Z" fill="#6D0CA6"/>
<path fill-rule="evenodd" clip-rule="evenodd" d="M86.5 76C86.5 75.1716 87.1716 74.5 88 74.5L91 74.5C91.8284 74.5 92.5 75.1716 92.5 76C92.5 76.8284 91.8284 77.5 91 77.5L88 77.5C87.1716 77.5 86.5 76.8284 86.5 76Z" fill="#6D0CA6"/>
<path fill-rule="evenodd" clip-rule="evenodd" d="M86.5 82C86.5 81.1716 87.1716 80.5 88 80.5L92.5 80.5C93.3284 80.5 94 81.1716 94 82C94 82.8284 93.3284 83.5 92.5 83.5L88 83.5C87.1716 83.5 86.5 82.8284 86.5 82Z" fill="#CC7DFA"/>
<path fill-rule="evenodd" clip-rule="evenodd" d="M76 53.5C75.1716 53.5 74.5 52.8284 74.5 52L74.5 49C74.5 48.1716 75.1716 47.5 76 47.5C76.8284 47.5 77.5 48.1716 77.5 49L77.5 52C77.5 52.8284 76.8284 53.5 76 53.5Z" fill="#6D0CA6"/>
<path fill-rule="evenodd" clip-rule="evenodd" d="M82 53.5C81.1716 53.5 80.5 52.8284 80.5 52L80.5 47.5C80.5 46.6716 81.1716 46 82 46C82.8284 46 83.5 46.6716 83.5 47.5L83.5 52C83.5 52.8284 82.8284 53.5 82 53.5Z" fill="#CC7DFA"/>
<path fill-rule="evenodd" clip-rule="evenodd" d="M76 86.5C76.8284 86.5 77.5 87.1716 77.5 88L77.5 91C77.5 91.8284 76.8284 92.5 76 92.5C75.1716 92.5 74.5 91.8284 74.5 91L74.5 88C74.5 87.1716 75.1716 86.5 76 86.5Z" fill="#6D0CA6"/>
<path fill-rule="evenodd" clip-rule="evenodd" d="M82 86.5C82.8284 86.5 83.5 87.1716 83.5 88L83.5 92.5C83.5 93.3284 82.8284 94 82 94C81.1716 94 80.5 93.3284 80.5 92.5L80.5 88C80.5 87.1716 81.1716 86.5 82 86.5Z" fill="#CC7DFA"/>
<path fill-rule="evenodd" clip-rule="evenodd" d="M65.184 62.5C66.3226 62.5 67.7025 63.1246 68.1592 64.6194L71.363 75.1062C71.613 75.9243 71.1524 76.7902 70.3343 77.0402C69.5161 77.2901 68.6503 76.8295 68.4003 76.0114L67.721 73.788H62.647L61.9678 76.0114C61.7178 76.8295 60.8519 77.2901 60.0338 77.0402C59.2157 76.7902 58.7551 75.9243 59.005 75.1062L62.2089 64.6194C62.6656 63.1246 64.0454 62.5 65.184 62.5ZM63.5935 70.6901H66.7746L65.2196 65.6003C65.2089 65.5988 65.1969 65.5979 65.184 65.5979C65.1711 65.5979 65.1592 65.5988 65.1485 65.6003L63.5935 70.6901Z" fill="#CC7DFA"/>
<path fill-rule="evenodd" clip-rule="evenodd" d="M72.4953 64.049C72.4953 63.1935 73.1888 62.5 74.0442 62.5H79.514C80.3695 62.5 81.063 63.1935 81.063 64.049C81.063 64.9044 80.3695 65.5979 79.514 65.5979H78.3281V74.0099H79.514C80.3695 74.0099 81.063 74.7034 81.063 75.5588C81.063 76.4143 80.3695 77.1078 79.514 77.1078H74.0442C73.1888 77.1078 72.4953 76.4143 72.4953 75.5588C72.4953 74.7034 73.1888 74.0099 74.0442 74.0099H75.2302V65.5979H74.0442C73.1888 65.5979 72.4953 64.9044 72.4953 64.049Z" fill="#CC7DFA"/>
<path d="M66.25 43.8657C68.6736 45.1879 70 47.5947 70 50.3555V50.5296C70 51.358 69.3284 52.0296 68.5 52.0296H60.9641C55.9664 52.0296 51.915 56.081 51.915 61.0786V79.1524C51.915 84.15 55.9664 88.2014 60.9641 88.2014H68.4317C69.2816 88.2014 69.9701 88.9086 69.8618 89.7516C69.5484 92.1916 68.6606 94.5688 66.785 96.0692C64.1013 97.5333 61.6105 97.5458 58.2827 96.379C56.83 95.8696 54.6418 94.6079 53.923 92.1217C53.8341 91.8141 53.5845 91.5724 53.2687 91.5197C48.8503 90.783 46.0556 88.9141 44.5563 86.0272C43.2512 83.5144 43.1006 80.7766 43.3897 78.6426C40.686 76.7375 39.4193 72.2391 40.2543 68.4372C40.9266 66.0838 42.182 63.5917 44.2338 62.5186C44.6592 62.2962 44.8824 61.7665 44.7185 61.3154C44.0413 59.4518 43.6725 56.0663 46.4324 52.7519C47.9499 50.9295 50.3505 50.1373 52.4349 50.0177C52.7672 49.9986 53.0609 49.7807 53.0904 49.4492C53.1218 49.0963 53.1466 48.6912 53.4838 47.806C54.0281 46.3772 54.4703 45.4927 57.1238 43.8658C59.7167 42.5498 63.4119 42.8851 66.25 43.8657Z" fill="#CC7DFA"/>
</svg>
