<svg width="141" height="140" viewBox="0 0 141 140" fill="none" xmlns="http://www.w3.org/2000/svg">
<rect x="0.5" width="140" height="140" rx="70" fill="#F5EBFB"/>
<path d="M46.2307 56.0674C44 56.0674 41.9878 56.9641 40.5001 58.4084L45.1875 47.3175C46.2307 44.0794 48.099 43 50.4037 43H75.1819C77.4865 43 79.3548 44.0794 80.398 47.3175L85.5 58.75C84.0122 57.3057 81.5855 56.0674 79.3548 56.0674H46.2307Z" fill="#6D0CA6"/>
<path d="M46.2307 68.0674C44 68.0674 41.9878 68.9641 40.5001 70.4084L45.1875 51.8175C46.2307 48.5794 48.099 47.5 50.4037 47.5H75.1819C77.4865 47.5 79.3548 48.5794 80.398 51.8175L85.5 70.75C84.0122 69.3057 81.5855 68.0674 79.3548 68.0674H46.2307Z" fill="#6D0CA6"/>
<path d="M46.2307 80.0674C44 80.0674 41.9878 80.9641 40.5001 82.4084L45.1875 63.8175C46.2307 60.5794 48.099 59.5 50.4037 59.5H75.1819C77.4865 59.5 79.3548 60.5794 80.398 63.8175L85.5 82.75C84.0122 81.3057 81.5855 80.0674 79.3548 80.0674H46.2307Z" fill="#6D0CA6"/>
<path d="M40.5 58C40.5 56.3431 41.8431 55 43.5 55H82.5C84.1569 55 85.5 56.3431 85.5 58V62.5C85.5 64.1569 84.1569 65.5 82.5 65.5H43.5C41.8431 65.5 40.5 64.1569 40.5 62.5V58Z" fill="#CC7DFA"/>
<path fill-rule="evenodd" clip-rule="evenodd" d="M52.125 60.25C52.125 59.2145 52.9645 58.375 54 58.375H79.5C80.5355 58.375 81.375 59.2145 81.375 60.25C81.375 61.2855 80.5355 62.125 79.5 62.125H54C52.9645 62.125 52.125 61.2855 52.125 60.25Z" fill="white"/>
<path d="M49.5 60.25C49.5 61.4926 48.4926 62.5 47.25 62.5C46.0074 62.5 45 61.4926 45 60.25C45 59.0074 46.0074 58 47.25 58C48.4926 58 49.5 59.0074 49.5 60.25Z" fill="white"/>
<path d="M40.5 70C40.5 68.3431 41.8431 67 43.5 67H82.5C84.1569 67 85.5 68.3431 85.5 70V74.5C85.5 76.1569 84.1569 77.5 82.5 77.5H43.5C41.8431 77.5 40.5 76.1569 40.5 74.5V70Z" fill="#CC7DFA"/>
<path fill-rule="evenodd" clip-rule="evenodd" d="M52.125 72.25C52.125 71.2145 52.9645 70.375 54 70.375H79.5C80.5355 70.375 81.375 71.2145 81.375 72.25C81.375 73.2855 80.5355 74.125 79.5 74.125H54C52.9645 74.125 52.125 73.2855 52.125 72.25Z" fill="white"/>
<path d="M49.5 72.25C49.5 73.4926 48.4926 74.5 47.25 74.5C46.0074 74.5 45 73.4926 45 72.25C45 71.0074 46.0074 70 47.25 70C48.4926 70 49.5 71.0074 49.5 72.25Z" fill="white"/>
<path d="M40.5 82C40.5 80.3431 41.8431 79 43.5 79H82.5C84.1569 79 85.5 80.3431 85.5 82V86.5C85.5 88.1569 84.1569 89.5 82.5 89.5H43.5C41.8431 89.5 40.5 88.1569 40.5 86.5V82Z" fill="#CC7DFA"/>
<path fill-rule="evenodd" clip-rule="evenodd" d="M52.125 84.25C52.125 83.2145 52.9645 82.375 54 82.375H79.5C80.5355 82.375 81.375 83.2145 81.375 84.25C81.375 85.2855 80.5355 86.125 79.5 86.125H54C52.9645 86.125 52.125 85.2855 52.125 84.25Z" fill="white"/>
<path d="M49.5 84.25C49.5 85.4926 48.4926 86.5 47.25 86.5C46.0074 86.5 45 85.4926 45 84.25C45 83.0074 46.0074 82 47.25 82C48.4926 82 49.5 83.0074 49.5 84.25Z" fill="white"/>
<path d="M103.5 82.75C103.5 93.1053 95.1053 101.5 84.75 101.5C74.3947 101.5 66 93.1053 66 82.75C66 72.3947 74.3947 64 84.75 64C95.1053 64 103.5 72.3947 103.5 82.75Z" fill="#6D0CA6"/>
<path d="M77.9908 80.2868C77.9596 79.6003 78.5077 79.0267 79.1949 79.0267H89.931C90.6182 79.0267 91.1664 79.6003 91.1351 80.2868L90.7467 88.8338C90.6589 90.765 89.0676 92.2857 87.1343 92.2857H81.9916C80.0584 92.2857 78.4671 90.765 78.3793 88.8338L77.9908 80.2868Z" fill="white"/>
<path d="M82.1493 82.1429C82.5357 82.101 82.8803 82.4063 82.9189 82.8246L83.3877 87.8998C83.4263 88.3181 83.1444 88.6912 82.758 88.733C82.3716 88.7749 82.027 88.4696 81.9884 88.0513L81.5197 82.9761C81.481 82.5578 81.7629 82.1847 82.1493 82.1429Z" fill="#6D0CA6"/>
<path d="M86.9768 82.1429C87.3632 82.1847 87.6451 82.5578 87.6064 82.9761L87.1377 88.0513C87.099 88.4696 86.7545 88.7749 86.3681 88.733C85.9817 88.6912 85.6998 88.3181 85.7384 87.8998L86.2072 82.8246C86.2458 82.4063 86.5904 82.101 86.9768 82.1429Z" fill="#6D0CA6"/>
<path fill-rule="evenodd" clip-rule="evenodd" d="M88.3495 73.5128C88.2474 73.2066 87.9608 73 87.638 73H81.487C81.1642 73 80.8776 73.2066 80.7755 73.5128L80.3138 74.8979C80.2117 75.2041 79.9251 75.4107 79.6023 75.4107H76.875C76.4608 75.4107 76.125 75.7465 76.125 76.1607V77.0714C76.125 77.4856 76.4608 77.8214 76.875 77.8214H92.25C92.6642 77.8214 93 77.4856 93 77.0714V76.1607C93 75.7465 92.6642 75.4107 92.25 75.4107H89.5227C89.1999 75.4107 88.9133 75.2041 88.8112 74.8979L88.3495 73.5128Z" fill="white"/>
</svg>
