<svg width="140" height="140" viewBox="0 0 140 140" fill="none" xmlns="http://www.w3.org/2000/svg">
<rect width="140" height="140" rx="70" fill="#F5EBFB"/>
<circle cx="70" cy="70" r="27.9243" fill="#CC7DFA"/>
<path d="M60.4365 62.872C59.9136 57.0519 55.4253 51.6287 53.2466 49.6446L52.043 48.6153C56.8978 44.534 63.1624 42.0757 70.0011 42.0757C76.1819 42.0757 81.8936 44.0837 86.5195 47.483C87.1732 49.4671 85.9282 53.6128 84.621 55.5969C84.1475 56.3156 83.0736 57.2078 81.8965 58.0536C79.2424 59.9606 75.8928 60.9038 74.1898 64.4151C73.703 65.4189 73.7238 66.4001 73.9579 67.253C74.1263 67.8661 74.2339 68.5327 74.2356 69.1845C74.241 71.2926 72.1091 72.8154 70.0011 72.7924C64.516 72.7325 60.9253 68.3121 60.4365 62.872Z" fill="#6D0CA6"/>
<path d="M74.0113 87.5253C76.7705 82.3256 85.9678 82.3256 85.9678 82.3256C95.5514 82.2256 96.846 76.4069 97.7114 73.4658C96.1625 85.9797 86.3341 95.9273 73.8774 97.6577C72.9765 95.7617 71.9094 91.4863 74.0113 87.5253Z" fill="#6D0CA6"/>
</svg>
