<svg width="101" height="100" viewBox="0 0 101 100" fill="none" xmlns="http://www.w3.org/2000/svg">
<g style="mix-blend-mode:darken">
<g clip-path="url(#clip0_3769_8464)">
<rect x="0.5" width="100" height="100" rx="8" fill="#F9F9F9"/>
<path d="M78.1552 42.0469C74.0368 42.0469 70.765 45.385 70.765 49.4371C70.765 53.4893 74.0368 56.8274 78.1552 56.8274C82.2737 56.8274 85.5455 53.4893 85.5455 49.4371C85.5455 45.385 82.2737 42.0469 78.1552 42.0469Z" fill="#6D0CA6"/>
<path d="M78.1553 57.5742C74.5383 57.5742 71.2655 58.8155 68.8757 60.5437C66.5823 62.2023 64.7266 64.6085 64.7266 67.1211C64.7266 70.0241 67.091 71.5091 69.3866 72.2295C71.7616 72.9749 74.8956 73.2174 78.1553 73.2174C81.415 73.2174 84.5491 72.9749 86.9241 72.2295C89.2197 71.5091 91.5841 70.0241 91.5841 67.1211C91.5841 64.6085 89.7284 62.2023 87.435 60.5437C85.0452 58.8155 81.7724 57.5742 78.1553 57.5742Z" fill="#6D0CA6"/>
<path d="M22.8427 42.0469C18.7243 42.0469 15.4525 45.385 15.4525 49.4371C15.4525 53.4893 18.7243 56.8274 22.8427 56.8274C26.9612 56.8274 30.233 53.4893 30.233 49.4371C30.233 45.385 26.9612 42.0469 22.8427 42.0469Z" fill="#6D0CA6"/>
<path d="M22.8428 57.5742C19.2258 57.5742 15.953 58.8155 13.5632 60.5437C11.2698 62.2023 9.41406 64.6085 9.41406 67.1211C9.41406 70.0241 11.7785 71.5091 14.0741 72.2295C16.4491 72.9749 19.5831 73.2174 22.8428 73.2174C26.1026 73.2174 29.2366 72.9749 31.6116 72.2295C33.9072 71.5091 36.2716 70.0241 36.2716 67.1211C36.2716 64.6085 34.4159 62.2023 32.1225 60.5437C29.7327 58.8155 26.4599 57.5742 22.8428 57.5742Z" fill="#6D0CA6"/>
<path d="M50.5017 39.4062C45.6807 39.4062 41.8506 43.3133 41.8506 48.0573C41.8506 52.8014 45.6807 56.7084 50.5017 56.7084C55.3226 56.7084 59.1527 52.8014 59.1527 48.0573C59.1527 43.3133 55.3226 39.4062 50.5017 39.4062Z" fill="#CC7DFA"/>
<path d="M50.5005 58.4248C46.1604 58.4248 42.2329 59.915 39.3692 61.986C36.6019 63.9873 34.4531 66.8299 34.4531 69.7174C34.4531 72.9954 37.1107 74.7228 39.8802 75.592C42.729 76.4862 46.5177 76.7836 50.5005 76.7836C54.4834 76.7836 58.272 76.4862 61.1209 75.592C63.8904 74.7228 66.548 72.9954 66.548 69.7174C66.548 66.8299 64.3992 63.9873 61.6318 61.986C58.7682 59.915 54.8407 58.4248 50.5005 58.4248Z" fill="#CC7DFA"/>
<path d="M29.7734 30.592C29.7734 32.6861 32.0194 34.9008 33.6636 36.2415C34.4079 36.8485 34.78 37.1519 35.3613 37.1519C35.9426 37.1519 36.3148 36.8485 37.0591 36.2415C38.7032 34.9008 40.9492 32.6861 40.9492 30.592C40.9492 27.2889 37.8758 25.7877 35.3613 28.49C32.8469 25.7877 29.7734 27.289 29.7734 30.592Z" fill="#6D0CA6"/>
<path d="M60.0547 30.592C60.0547 32.6861 62.3007 34.9008 63.9448 36.2415C64.6891 36.8485 65.0613 37.1519 65.6426 37.1519C66.2239 37.1519 66.596 36.8485 67.3403 36.2415C68.9844 34.9008 71.2304 32.6861 71.2304 30.592C71.2304 27.2889 68.157 25.7877 65.6426 28.49C63.1281 25.7877 60.0547 27.289 60.0547 30.592Z" fill="#6D0CA6"/>
</g>
</g>
<defs>
<clipPath id="clip0_3769_8464">
<rect x="0.5" width="100" height="100" rx="8" fill="white"/>
</clipPath>
</defs>
</svg>
