<svg width="841" height="366" viewBox="0 0 841 366" fill="none" xmlns="http://www.w3.org/2000/svg">
<rect x="1" y="334.6" width="840" height="1.4" fill="#71717A"/>
<rect x="1" y="193.2" width="840" height="1.4" fill="#F6F6F7"/>
<rect x="758.4" y="53.2" width="1.4" height="281.4" fill="#F6F6F7"/>
<rect x="623.3" y="53.2" width="1.4" height="281.4" fill="#F6F6F7"/>
<rect x="353.1" y="53.2" width="1.4" height="281.4" fill="#F6F6F7"/>
<rect x="488.2" y="53.2" width="1.4" height="281.4" fill="#F6F6F7"/>
<rect x="144.5" y="151.9" width="1.4" height="182.7" fill="#F6F6F7"/>
<rect x="81.5" y="180.6" width="1.4" height="154" fill="#F6F6F7"/>
<rect x="79.3999" y="332.5" width="5.6" height="5.6" rx="2.8" fill="#3F3F46"/>
<rect x="142.4" y="332.5" width="5.6" height="5.6" rx="2.8" fill="#3F3F46"/>
<rect x="351" y="332.5" width="5.6" height="5.6" rx="2.8" fill="#3F3F46"/>
<rect x="486.1" y="332.5" width="5.6" height="5.6" rx="2.8" fill="#3F3F46"/>
<rect x="621.2" y="332.5" width="5.6" height="5.6" rx="2.8" fill="#3F3F46"/>
<rect x="756.3" y="332.5" width="5.6" height="5.6" rx="2.8" fill="#3F3F46"/>
<path d="M69.5271 360.418C69.6643 360.281 69.8374 360.121 70.0465 359.938C70.2556 359.755 70.4156 359.611 70.5267 359.507C71.0559 359.036 71.4773 358.648 71.7909 358.34C72.1045 358.027 72.3691 357.707 72.5847 357.38C72.8003 357.053 72.9081 356.743 72.9081 356.449C72.9081 356.044 72.7905 355.714 72.5553 355.459C72.3266 355.204 72.0326 355.077 71.6733 355.077C71.3924 355.077 71.1245 355.169 70.8697 355.351C70.6214 355.534 70.432 355.77 70.3013 356.057L69.3899 355.655C69.5859 355.204 69.8962 354.839 70.3209 354.558C70.7521 354.27 71.2029 354.126 71.6733 354.126C72.1176 354.126 72.5096 354.224 72.8493 354.42C73.1956 354.616 73.4634 354.891 73.6529 355.244C73.8489 355.596 73.9469 355.998 73.9469 356.449C73.9469 356.893 73.813 357.334 73.5451 357.772C73.2838 358.21 72.9669 358.612 72.5945 358.977C72.2221 359.343 71.7419 359.778 71.1539 360.281L70.9971 360.418H74.0645V361.329H69.6251L69.5271 360.418ZM77.702 360.477C78.0221 360.477 78.3063 360.363 78.5546 360.134C78.8029 359.905 78.9956 359.588 79.1328 359.183C79.27 358.772 79.3386 358.298 79.3386 357.762C79.3386 357.227 79.27 356.753 79.1328 356.341C78.9956 355.93 78.8029 355.61 78.5546 355.381C78.3063 355.152 78.0221 355.038 77.702 355.038C77.3819 355.038 77.0944 355.152 76.8396 355.381C76.5913 355.61 76.3986 355.93 76.2614 356.341C76.1242 356.753 76.0556 357.227 76.0556 357.762C76.0556 358.298 76.1242 358.772 76.2614 359.183C76.3986 359.588 76.5913 359.905 76.8396 360.134C77.0944 360.363 77.3819 360.477 77.702 360.477ZM75.0168 357.762C75.0168 357.057 75.1311 356.429 75.3598 355.881C75.5885 355.325 75.9053 354.894 76.3104 354.587C76.7155 354.28 77.1793 354.126 77.702 354.126C78.2181 354.126 78.6787 354.28 79.0838 354.587C79.4889 354.894 79.8057 355.325 80.0344 355.881C80.2631 356.429 80.3774 357.057 80.3774 357.762C80.3774 358.461 80.2631 359.089 80.0344 359.644C79.8057 360.193 79.4889 360.624 79.0838 360.937C78.6787 361.245 78.2181 361.398 77.702 361.398C77.1859 361.398 76.722 361.245 76.3104 360.937C75.9053 360.624 75.5885 360.193 75.3598 359.644C75.1311 359.089 75.0168 358.461 75.0168 357.762ZM81.4804 360.418C81.6176 360.281 81.7908 360.121 81.9998 359.938C82.2089 359.755 82.369 359.611 82.48 359.507C83.0092 359.036 83.4306 358.648 83.7442 358.34C84.0578 358.027 84.3224 357.707 84.538 357.38C84.7536 357.053 84.8614 356.743 84.8614 356.449C84.8614 356.044 84.7438 355.714 84.5086 355.459C84.28 355.204 83.986 355.077 83.6266 355.077C83.3457 355.077 83.0778 355.169 82.823 355.351C82.5748 355.534 82.3853 355.77 82.2546 356.057L81.3432 355.655C81.5392 355.204 81.8496 354.839 82.2742 354.558C82.7054 354.27 83.1562 354.126 83.6266 354.126C84.0709 354.126 84.4629 354.224 84.8026 354.42C85.1489 354.616 85.4168 354.891 85.6062 355.244C85.8022 355.596 85.9002 355.998 85.9002 356.449C85.9002 356.893 85.7663 357.334 85.4984 357.772C85.2371 358.21 84.9202 358.612 84.5478 358.977C84.1754 359.343 83.6952 359.778 83.1072 360.281L82.9504 360.418H86.0178V361.329H81.5784L81.4804 360.418ZM89.6357 361.329L88.5969 361.32V355.312L87.3425 356.008L86.9113 355.136L88.6067 354.205H89.6357V361.329Z" fill="#71717A"/>
<path d="M131.827 360.418C131.964 360.281 132.137 360.121 132.346 359.938C132.555 359.755 132.715 359.611 132.827 359.507C133.356 359.036 133.777 358.648 134.091 358.34C134.404 358.027 134.669 357.707 134.885 357.38C135.1 357.053 135.208 356.743 135.208 356.449C135.208 356.044 135.09 355.714 134.855 355.459C134.626 355.204 134.332 355.077 133.973 355.077C133.692 355.077 133.424 355.169 133.17 355.351C132.921 355.534 132.732 355.77 132.601 356.057L131.69 355.655C131.886 355.204 132.196 354.839 132.621 354.558C133.052 354.27 133.503 354.126 133.973 354.126C134.417 354.126 134.809 354.224 135.149 354.42C135.495 354.616 135.763 354.891 135.953 355.244C136.149 355.596 136.247 355.998 136.247 356.449C136.247 356.893 136.113 357.334 135.845 357.772C135.584 358.21 135.267 358.612 134.894 358.977C134.522 359.343 134.042 359.778 133.454 360.281L133.297 360.418H136.364V361.329H131.925L131.827 360.418ZM140.002 360.477C140.322 360.477 140.606 360.363 140.854 360.134C141.103 359.905 141.295 359.588 141.433 359.183C141.57 358.772 141.638 358.298 141.638 357.762C141.638 357.227 141.57 356.753 141.433 356.341C141.295 355.93 141.103 355.61 140.854 355.381C140.606 355.152 140.322 355.038 140.002 355.038C139.682 355.038 139.394 355.152 139.139 355.381C138.891 355.61 138.698 355.93 138.561 356.341C138.424 356.753 138.355 357.227 138.355 357.762C138.355 358.298 138.424 358.772 138.561 359.183C138.698 359.588 138.891 359.905 139.139 360.134C139.394 360.363 139.682 360.477 140.002 360.477ZM137.317 357.762C137.317 357.057 137.431 356.429 137.66 355.881C137.888 355.325 138.205 354.894 138.61 354.587C139.015 354.28 139.479 354.126 140.002 354.126C140.518 354.126 140.979 354.28 141.384 354.587C141.789 354.894 142.106 355.325 142.334 355.881C142.563 356.429 142.677 357.057 142.677 357.762C142.677 358.461 142.563 359.089 142.334 359.644C142.106 360.193 141.789 360.624 141.384 360.937C140.979 361.245 140.518 361.398 140.002 361.398C139.486 361.398 139.022 361.245 138.61 360.937C138.205 360.624 137.888 360.193 137.66 359.644C137.431 359.089 137.317 358.461 137.317 357.762ZM143.78 360.418C143.917 360.281 144.091 360.121 144.3 359.938C144.509 359.755 144.669 359.611 144.78 359.507C145.309 359.036 145.73 358.648 146.044 358.34C146.358 358.027 146.622 357.707 146.838 357.38C147.053 357.053 147.161 356.743 147.161 356.449C147.161 356.044 147.044 355.714 146.808 355.459C146.58 355.204 146.286 355.077 145.926 355.077C145.645 355.077 145.378 355.169 145.123 355.351C144.875 355.534 144.685 355.77 144.554 356.057L143.643 355.655C143.839 355.204 144.149 354.839 144.574 354.558C145.005 354.27 145.456 354.126 145.926 354.126C146.371 354.126 146.763 354.224 147.102 354.42C147.449 354.616 147.717 354.891 147.906 355.244C148.102 355.596 148.2 355.998 148.2 356.449C148.2 356.893 148.066 357.334 147.798 357.772C147.537 358.21 147.22 358.612 146.848 358.977C146.475 359.343 145.995 359.778 145.407 360.281L145.25 360.418H148.318V361.329H143.878L143.78 360.418ZM149.427 360.418C149.564 360.281 149.737 360.121 149.946 359.938C150.155 359.755 150.315 359.611 150.426 359.507C150.956 359.036 151.377 358.648 151.691 358.34C152.004 358.027 152.269 357.707 152.484 357.38C152.7 357.053 152.808 356.743 152.808 356.449C152.808 356.044 152.69 355.714 152.455 355.459C152.226 355.204 151.932 355.077 151.573 355.077C151.292 355.077 151.024 355.169 150.769 355.351C150.521 355.534 150.332 355.77 150.201 356.057L149.29 355.655C149.486 355.204 149.796 354.839 150.221 354.558C150.652 354.27 151.103 354.126 151.573 354.126C152.017 354.126 152.409 354.224 152.749 354.42C153.095 354.616 153.363 354.891 153.553 355.244C153.749 355.596 153.847 355.998 153.847 356.449C153.847 356.893 153.713 357.334 153.445 357.772C153.183 358.21 152.867 358.612 152.494 358.977C152.122 359.343 151.642 359.778 151.054 360.281L150.897 360.418H153.964V361.329H149.525L149.427 360.418Z" fill="#71717A"/>
<path d="M340.427 360.418C340.564 360.281 340.737 360.121 340.946 359.938C341.155 359.755 341.316 359.611 341.427 359.507C341.956 359.036 342.377 358.648 342.691 358.34C343.004 358.027 343.269 357.707 343.485 357.38C343.7 357.053 343.808 356.743 343.808 356.449C343.808 356.044 343.69 355.714 343.455 355.459C343.227 355.204 342.933 355.077 342.573 355.077C342.292 355.077 342.024 355.169 341.77 355.351C341.521 355.534 341.332 355.77 341.201 356.057L340.29 355.655C340.486 355.204 340.796 354.839 341.221 354.558C341.652 354.27 342.103 354.126 342.573 354.126C343.017 354.126 343.409 354.224 343.749 354.42C344.095 354.616 344.363 354.891 344.553 355.244C344.749 355.596 344.847 355.998 344.847 356.449C344.847 356.893 344.713 357.334 344.445 357.772C344.184 358.21 343.867 358.612 343.494 358.977C343.122 359.343 342.642 359.778 342.054 360.281L341.897 360.418H344.964V361.329H340.525L340.427 360.418ZM348.602 360.477C348.922 360.477 349.206 360.363 349.454 360.134C349.703 359.905 349.895 359.588 350.033 359.183C350.17 358.772 350.238 358.298 350.238 357.762C350.238 357.227 350.17 356.753 350.033 356.341C349.895 355.93 349.703 355.61 349.454 355.381C349.206 355.152 348.922 355.038 348.602 355.038C348.282 355.038 347.994 355.152 347.739 355.381C347.491 355.61 347.298 355.93 347.161 356.341C347.024 356.753 346.955 357.227 346.955 357.762C346.955 358.298 347.024 358.772 347.161 359.183C347.298 359.588 347.491 359.905 347.739 360.134C347.994 360.363 348.282 360.477 348.602 360.477ZM345.917 357.762C345.917 357.057 346.031 356.429 346.26 355.881C346.488 355.325 346.805 354.894 347.21 354.587C347.615 354.28 348.079 354.126 348.602 354.126C349.118 354.126 349.579 354.28 349.984 354.587C350.389 354.894 350.706 355.325 350.934 355.881C351.163 356.429 351.277 357.057 351.277 357.762C351.277 358.461 351.163 359.089 350.934 359.644C350.706 360.193 350.389 360.624 349.984 360.937C349.579 361.245 349.118 361.398 348.602 361.398C348.086 361.398 347.622 361.245 347.21 360.937C346.805 360.624 346.488 360.193 346.26 359.644C346.031 359.089 345.917 358.461 345.917 357.762ZM352.38 360.418C352.518 360.281 352.691 360.121 352.9 359.938C353.109 359.755 353.269 359.611 353.38 359.507C353.909 359.036 354.331 358.648 354.644 358.34C354.958 358.027 355.222 357.707 355.438 357.38C355.654 357.053 355.761 356.743 355.761 356.449C355.761 356.044 355.644 355.714 355.409 355.459C355.18 355.204 354.886 355.077 354.527 355.077C354.246 355.077 353.978 355.169 353.723 355.351C353.475 355.534 353.285 355.77 353.155 356.057L352.243 355.655C352.439 355.204 352.749 354.839 353.174 354.558C353.605 354.27 354.056 354.126 354.527 354.126C354.971 354.126 355.363 354.224 355.703 354.42C356.049 354.616 356.317 354.891 356.506 355.244C356.702 355.596 356.8 355.998 356.8 356.449C356.8 356.893 356.666 357.334 356.398 357.772C356.137 358.21 355.82 358.612 355.448 358.977C355.075 359.343 354.595 359.778 354.007 360.281L353.85 360.418H356.918V361.329H352.478L352.38 360.418ZM358.164 358.007L358.409 354.195H362.221V355.106H359.409L359.291 356.851C359.637 356.694 359.974 356.616 360.3 356.616C360.784 356.616 361.215 356.717 361.594 356.919C361.979 357.122 362.277 357.406 362.486 357.772C362.701 358.131 362.809 358.543 362.809 359.007C362.809 359.477 362.701 359.895 362.486 360.261C362.277 360.627 361.979 360.915 361.594 361.124C361.215 361.326 360.784 361.427 360.3 361.427C359.921 361.427 359.562 361.349 359.222 361.192C358.889 361.029 358.605 360.807 358.37 360.526C358.135 360.238 357.975 359.915 357.89 359.556L358.899 359.32C358.971 359.647 359.137 359.918 359.399 360.134C359.66 360.343 359.961 360.447 360.3 360.447C360.732 360.447 361.084 360.314 361.359 360.046C361.633 359.778 361.77 359.432 361.77 359.007C361.77 358.595 361.633 358.259 361.359 357.997C361.084 357.73 360.732 357.596 360.3 357.596C360.117 357.596 359.925 357.648 359.722 357.752C359.52 357.85 359.347 357.978 359.203 358.135L358.164 358.007Z" fill="#71717A"/>
<path d="M475.527 360.418C475.664 360.281 475.837 360.121 476.047 359.938C476.256 359.755 476.416 359.611 476.527 359.507C477.056 359.036 477.477 358.648 477.791 358.34C478.105 358.027 478.369 357.707 478.585 357.38C478.8 357.053 478.908 356.743 478.908 356.449C478.908 356.044 478.791 355.714 478.555 355.459C478.327 355.204 478.033 355.077 477.673 355.077C477.392 355.077 477.125 355.169 476.87 355.351C476.621 355.534 476.432 355.77 476.301 356.057L475.39 355.655C475.586 355.204 475.896 354.839 476.321 354.558C476.752 354.27 477.203 354.126 477.673 354.126C478.118 354.126 478.51 354.224 478.849 354.42C479.196 354.616 479.463 354.891 479.653 355.244C479.849 355.596 479.947 355.998 479.947 356.449C479.947 356.893 479.813 357.334 479.545 357.772C479.284 358.21 478.967 358.612 478.595 358.977C478.222 359.343 477.742 359.778 477.154 360.281L476.997 360.418H480.065V361.329H475.625L475.527 360.418ZM483.702 360.477C484.022 360.477 484.306 360.363 484.555 360.134C484.803 359.905 484.996 359.588 485.133 359.183C485.27 358.772 485.339 358.298 485.339 357.762C485.339 357.227 485.27 356.753 485.133 356.341C484.996 355.93 484.803 355.61 484.555 355.381C484.306 355.152 484.022 355.038 483.702 355.038C483.382 355.038 483.094 355.152 482.84 355.381C482.591 355.61 482.399 355.93 482.261 356.341C482.124 356.753 482.056 357.227 482.056 357.762C482.056 358.298 482.124 358.772 482.261 359.183C482.399 359.588 482.591 359.905 482.84 360.134C483.094 360.363 483.382 360.477 483.702 360.477ZM481.017 357.762C481.017 357.057 481.131 356.429 481.36 355.881C481.588 355.325 481.905 354.894 482.31 354.587C482.715 354.28 483.179 354.126 483.702 354.126C484.218 354.126 484.679 354.28 485.084 354.587C485.489 354.894 485.806 355.325 486.034 355.881C486.263 356.429 486.377 357.057 486.377 357.762C486.377 358.461 486.263 359.089 486.034 359.644C485.806 360.193 485.489 360.624 485.084 360.937C484.679 361.245 484.218 361.398 483.702 361.398C483.186 361.398 482.722 361.245 482.31 360.937C481.905 360.624 481.588 360.193 481.36 359.644C481.131 359.089 481.017 358.461 481.017 357.762ZM491.126 357.645C491.44 357.828 491.691 358.076 491.881 358.389C492.07 358.697 492.165 359.004 492.165 359.311C492.165 359.709 492.06 360.069 491.851 360.389C491.649 360.702 491.364 360.947 490.999 361.124C490.633 361.3 490.215 361.388 489.744 361.388C489.28 361.388 488.865 361.297 488.5 361.114C488.134 360.931 487.846 360.679 487.637 360.359C487.435 360.033 487.333 359.663 487.333 359.252H488.372C488.372 359.611 488.5 359.905 488.754 360.134C489.009 360.356 489.339 360.467 489.744 360.467C490.156 360.467 490.492 360.356 490.754 360.134C491.021 359.905 491.155 359.611 491.155 359.252C491.155 358.906 491.025 358.625 490.763 358.409C490.502 358.187 490.169 358.076 489.764 358.076H489.254V357.204H489.774C490.146 357.204 490.45 357.106 490.685 356.91C490.927 356.707 491.048 356.449 491.048 356.135C491.048 355.815 490.933 355.557 490.705 355.361C490.476 355.159 490.179 355.057 489.813 355.057C489.453 355.057 489.159 355.159 488.931 355.361C488.702 355.564 488.588 355.825 488.588 356.145H487.549C487.549 355.753 487.644 355.407 487.833 355.106C488.029 354.799 488.297 354.561 488.637 354.391C488.983 354.221 489.375 354.136 489.813 354.136C490.244 354.136 490.629 354.221 490.969 354.391C491.309 354.554 491.574 354.783 491.763 355.077C491.959 355.371 492.057 355.704 492.057 356.077C492.057 356.358 491.972 356.645 491.802 356.939C491.632 357.227 491.407 357.462 491.126 357.645ZM495.779 361.329L494.74 361.32V355.312L493.486 356.008L493.055 355.136L494.75 354.205H495.779V361.329Z" fill="#71717A"/>
<path d="M610.627 360.418C610.764 360.281 610.938 360.121 611.147 359.938C611.356 359.755 611.516 359.611 611.627 359.507C612.156 359.036 612.577 358.648 612.891 358.34C613.205 358.027 613.469 357.707 613.685 357.38C613.9 357.053 614.008 356.743 614.008 356.449C614.008 356.044 613.891 355.714 613.655 355.459C613.427 355.204 613.133 355.077 612.773 355.077C612.492 355.077 612.225 355.169 611.97 355.351C611.722 355.534 611.532 355.77 611.401 356.057L610.49 355.655C610.686 355.204 610.996 354.839 611.421 354.558C611.852 354.27 612.303 354.126 612.773 354.126C613.218 354.126 613.61 354.224 613.949 354.42C614.296 354.616 614.564 354.891 614.753 355.244C614.949 355.596 615.047 355.998 615.047 356.449C615.047 356.893 614.913 357.334 614.645 357.772C614.384 358.21 614.067 358.612 613.695 358.977C613.322 359.343 612.842 359.778 612.254 360.281L612.097 360.418H615.165V361.329H610.725L610.627 360.418ZM618.802 360.477C619.122 360.477 619.406 360.363 619.655 360.134C619.903 359.905 620.096 359.588 620.233 359.183C620.37 358.772 620.439 358.298 620.439 357.762C620.439 357.227 620.37 356.753 620.233 356.341C620.096 355.93 619.903 355.61 619.655 355.381C619.406 355.152 619.122 355.038 618.802 355.038C618.482 355.038 618.194 355.152 617.94 355.381C617.691 355.61 617.499 355.93 617.361 356.341C617.224 356.753 617.156 357.227 617.156 357.762C617.156 358.298 617.224 358.772 617.361 359.183C617.499 359.588 617.691 359.905 617.94 360.134C618.194 360.363 618.482 360.477 618.802 360.477ZM616.117 357.762C616.117 357.057 616.231 356.429 616.46 355.881C616.689 355.325 617.005 354.894 617.41 354.587C617.816 354.28 618.279 354.126 618.802 354.126C619.318 354.126 619.779 354.28 620.184 354.587C620.589 354.894 620.906 355.325 621.134 355.881C621.363 356.429 621.477 357.057 621.477 357.762C621.477 358.461 621.363 359.089 621.134 359.644C620.906 360.193 620.589 360.624 620.184 360.937C619.779 361.245 619.318 361.398 618.802 361.398C618.286 361.398 617.822 361.245 617.41 360.937C617.005 360.624 616.689 360.193 616.46 359.644C616.231 359.089 616.117 358.461 616.117 357.762ZM626.226 357.645C626.54 357.828 626.791 358.076 626.981 358.389C627.17 358.697 627.265 359.004 627.265 359.311C627.265 359.709 627.16 360.069 626.951 360.389C626.749 360.702 626.465 360.947 626.099 361.124C625.733 361.3 625.315 361.388 624.844 361.388C624.38 361.388 623.966 361.297 623.6 361.114C623.234 360.931 622.946 360.679 622.737 360.359C622.535 360.033 622.434 359.663 622.434 359.252H623.472C623.472 359.611 623.6 359.905 623.855 360.134C624.109 360.356 624.439 360.467 624.844 360.467C625.256 360.467 625.592 360.356 625.854 360.134C626.122 359.905 626.256 359.611 626.256 359.252C626.256 358.906 626.125 358.625 625.864 358.409C625.602 358.187 625.269 358.076 624.864 358.076H624.354V357.204H624.874C625.246 357.204 625.55 357.106 625.785 356.91C626.027 356.707 626.148 356.449 626.148 356.135C626.148 355.815 626.033 355.557 625.805 355.361C625.576 355.159 625.279 355.057 624.913 355.057C624.554 355.057 624.26 355.159 624.031 355.361C623.802 355.564 623.688 355.825 623.688 356.145H622.649C622.649 355.753 622.744 355.407 622.933 355.106C623.129 354.799 623.397 354.561 623.737 354.391C624.083 354.221 624.475 354.136 624.913 354.136C625.344 354.136 625.73 354.221 626.069 354.391C626.409 354.554 626.674 354.783 626.863 355.077C627.059 355.371 627.157 355.704 627.157 356.077C627.157 356.358 627.072 356.645 626.902 356.939C626.732 357.227 626.507 357.462 626.226 357.645ZM628.508 358.007L628.753 354.195H632.565V355.106H629.752L629.635 356.851C629.981 356.694 630.317 356.616 630.644 356.616C631.128 356.616 631.559 356.717 631.938 356.919C632.323 357.122 632.62 357.406 632.83 357.772C633.045 358.131 633.153 358.543 633.153 359.007C633.153 359.477 633.045 359.895 632.83 360.261C632.62 360.627 632.323 360.915 631.938 361.124C631.559 361.326 631.128 361.427 630.644 361.427C630.265 361.427 629.906 361.349 629.566 361.192C629.233 361.029 628.949 360.807 628.714 360.526C628.478 360.238 628.318 359.915 628.233 359.556L629.243 359.32C629.315 359.647 629.481 359.918 629.743 360.134C630.004 360.343 630.304 360.447 630.644 360.447C631.075 360.447 631.428 360.314 631.703 360.046C631.977 359.778 632.114 359.432 632.114 359.007C632.114 358.595 631.977 358.259 631.703 357.997C631.428 357.73 631.075 357.596 630.644 357.596C630.461 357.596 630.268 357.648 630.066 357.752C629.863 357.85 629.69 357.978 629.547 358.135L628.508 358.007Z" fill="#71717A"/>
<path d="M746.427 360.418C746.564 360.281 746.737 360.121 746.946 359.938C747.155 359.755 747.316 359.611 747.427 359.507C747.956 359.036 748.377 358.648 748.691 358.34C749.004 358.027 749.269 357.707 749.485 357.38C749.7 357.053 749.808 356.743 749.808 356.449C749.808 356.044 749.69 355.714 749.455 355.459C749.227 355.204 748.933 355.077 748.573 355.077C748.292 355.077 748.024 355.169 747.77 355.351C747.521 355.534 747.332 355.77 747.201 356.057L746.29 355.655C746.486 355.204 746.796 354.839 747.221 354.558C747.652 354.27 748.103 354.126 748.573 354.126C749.017 354.126 749.409 354.224 749.749 354.42C750.095 354.616 750.363 354.891 750.553 355.244C750.749 355.596 750.847 355.998 750.847 356.449C750.847 356.893 750.713 357.334 750.445 357.772C750.184 358.21 749.867 358.612 749.494 358.977C749.122 359.343 748.642 359.778 748.054 360.281L747.897 360.418H750.964V361.329H746.525L746.427 360.418ZM754.602 360.477C754.922 360.477 755.206 360.363 755.454 360.134C755.703 359.905 755.895 359.588 756.033 359.183C756.17 358.772 756.238 358.298 756.238 357.762C756.238 357.227 756.17 356.753 756.033 356.341C755.895 355.93 755.703 355.61 755.454 355.381C755.206 355.152 754.922 355.038 754.602 355.038C754.282 355.038 753.994 355.152 753.739 355.381C753.491 355.61 753.298 355.93 753.161 356.341C753.024 356.753 752.955 357.227 752.955 357.762C752.955 358.298 753.024 358.772 753.161 359.183C753.298 359.588 753.491 359.905 753.739 360.134C753.994 360.363 754.282 360.477 754.602 360.477ZM751.917 357.762C751.917 357.057 752.031 356.429 752.26 355.881C752.488 355.325 752.805 354.894 753.21 354.587C753.615 354.28 754.079 354.126 754.602 354.126C755.118 354.126 755.579 354.28 755.984 354.587C756.389 354.894 756.706 355.325 756.934 355.881C757.163 356.429 757.277 357.057 757.277 357.762C757.277 358.461 757.163 359.089 756.934 359.644C756.706 360.193 756.389 360.624 755.984 360.937C755.579 361.245 755.118 361.398 754.602 361.398C754.086 361.398 753.622 361.245 753.21 360.937C752.805 360.624 752.488 360.193 752.26 359.644C752.031 359.089 751.917 358.461 751.917 357.762ZM762.438 358.585H763.339V359.487H762.438V361.329H761.399V359.487H758.331L758.233 358.585L761.448 354.195H762.438V358.585ZM761.399 358.585V355.93L759.468 358.585H761.399ZM766.976 360.477C767.296 360.477 767.581 360.363 767.829 360.134C768.077 359.905 768.27 359.588 768.407 359.183C768.544 358.772 768.613 358.298 768.613 357.762C768.613 357.227 768.544 356.753 768.407 356.341C768.27 355.93 768.077 355.61 767.829 355.381C767.581 355.152 767.296 355.038 766.976 355.038C766.656 355.038 766.369 355.152 766.114 355.381C765.866 355.61 765.673 355.93 765.536 356.341C765.399 356.753 765.33 357.227 765.33 357.762C765.33 358.298 765.399 358.772 765.536 359.183C765.673 359.588 765.866 359.905 766.114 360.134C766.369 360.363 766.656 360.477 766.976 360.477ZM764.291 357.762C764.291 357.057 764.405 356.429 764.634 355.881C764.863 355.325 765.18 354.894 765.585 354.587C765.99 354.28 766.454 354.126 766.976 354.126C767.492 354.126 767.953 354.28 768.358 354.587C768.763 354.894 769.08 355.325 769.309 355.881C769.537 356.429 769.652 357.057 769.652 357.762C769.652 358.461 769.537 359.089 769.309 359.644C769.08 360.193 768.763 360.624 768.358 360.937C767.953 361.245 767.492 361.398 766.976 361.398C766.46 361.398 765.996 361.245 765.585 360.937C765.18 360.624 764.863 360.193 764.634 359.644C764.405 359.089 764.291 358.461 764.291 357.762Z" fill="#71717A"/>
<path d="M82.1997 180.6H145.2L353.8 229.6L488.9 269.5L624 297.5L759.1 335.3" stroke="#9735D0" stroke-width="1.4"/>
<circle cx="82.1998" cy="180.6" r="4.55" stroke="#6D0CA6" stroke-width="0.7"/>
<circle cx="82.1999" cy="180.6" r="2.8" fill="#6D0CA6"/>
<circle cx="145.2" cy="180.6" r="4.55" stroke="#6D0CA6" stroke-width="0.7"/>
<circle cx="145.2" cy="180.6" r="2.8" fill="#6D0CA6"/>
<circle cx="145.2" cy="225.4" r="4.55" stroke="#6D0CA6" stroke-width="0.7"/>
<circle cx="145.2" cy="225.4" r="2.8" fill="#6D0CA6"/>
<circle cx="353.8" cy="229.6" r="4.55" stroke="#6D0CA6" stroke-width="0.7"/>
<circle cx="353.8" cy="229.6" r="2.8" fill="#6D0CA6"/>
<circle cx="488.9" cy="269.5" r="4.55" stroke="#6D0CA6" stroke-width="0.7"/>
<circle cx="488.9" cy="269.5" r="2.8" fill="#6D0CA6"/>
<circle cx="624" cy="297.5" r="4.55" stroke="#6D0CA6" stroke-width="0.7"/>
<circle cx="624" cy="297.5" r="2.8" fill="#6D0CA6"/>
<circle cx="759.1" cy="335.3" r="4.55" stroke="#6D0CA6" stroke-width="0.7"/>
<circle cx="759.1" cy="335.3" r="2.8" fill="#6D0CA6"/>
<rect x="126.3" y="234.5" width="36" height="18" rx="9" fill="white"/>
<path d="M138.653 244.398H139.684V245.428H138.653V247.534H137.466V245.428H133.961L133.849 244.398L137.522 239.38H138.653V244.398ZM137.466 244.398V241.362L135.26 244.398H137.466ZM140.951 246.492C141.108 246.335 141.306 246.152 141.545 245.943C141.784 245.734 141.966 245.57 142.093 245.45C142.698 244.913 143.18 244.469 143.538 244.118C143.897 243.759 144.199 243.393 144.445 243.02C144.692 242.647 144.815 242.292 144.815 241.956C144.815 241.493 144.681 241.116 144.412 240.825C144.15 240.534 143.814 240.388 143.404 240.388C143.083 240.388 142.777 240.493 142.485 240.702C142.202 240.911 141.985 241.179 141.836 241.508L140.794 241.049C141.018 240.534 141.373 240.115 141.858 239.794C142.351 239.466 142.866 239.302 143.404 239.302C143.912 239.302 144.36 239.414 144.748 239.638C145.144 239.862 145.45 240.175 145.666 240.578C145.89 240.982 146.002 241.441 146.002 241.956C146.002 242.464 145.849 242.968 145.543 243.468C145.244 243.968 144.882 244.427 144.457 244.846C144.031 245.264 143.482 245.76 142.81 246.335L142.631 246.492H146.137V247.534H141.063L140.951 246.492ZM147.987 246.369C148.188 246.369 148.352 246.436 148.479 246.57C148.606 246.697 148.67 246.862 148.67 247.063C148.67 247.272 148.606 247.44 148.479 247.567C148.352 247.702 148.188 247.769 147.987 247.769C147.777 247.769 147.606 247.702 147.471 247.567C147.344 247.44 147.281 247.272 147.281 247.063C147.281 246.862 147.344 246.697 147.471 246.57C147.606 246.436 147.777 246.369 147.987 246.369ZM153.388 247.534L152.201 247.522V240.657L150.768 241.452L150.275 240.455L152.212 239.391H153.388V247.534Z" fill="#15151A"/>
<rect x="334.9" y="238.7" width="36" height="18" rx="9" fill="white"/>
<path d="M347.254 248.598H348.284V249.628H347.254V251.734H346.066V249.628H342.561L342.449 248.598L346.122 243.58H347.254V248.598ZM346.066 248.598V245.562L343.86 248.598H346.066ZM352.418 251.734L351.231 251.722V244.857L349.797 245.652L349.305 244.655L351.242 243.591H352.418V251.734ZM354.815 250.569C355.016 250.569 355.181 250.636 355.308 250.77C355.434 250.897 355.498 251.062 355.498 251.263C355.498 251.472 355.434 251.64 355.308 251.767C355.181 251.902 355.016 251.969 354.815 251.969C354.606 251.969 354.434 251.902 354.3 251.767C354.173 251.64 354.109 251.472 354.109 251.263C354.109 251.062 354.173 250.897 354.3 250.77C354.434 250.636 354.606 250.569 354.815 250.569ZM361.516 247.522C361.874 247.731 362.162 248.015 362.378 248.374C362.595 248.724 362.703 249.075 362.703 249.426C362.703 249.882 362.584 250.292 362.345 250.658C362.113 251.017 361.788 251.297 361.37 251.498C360.952 251.7 360.474 251.801 359.937 251.801C359.407 251.801 358.932 251.696 358.514 251.487C358.096 251.278 357.768 250.991 357.529 250.625C357.297 250.251 357.182 249.83 357.182 249.359H358.369C358.369 249.77 358.514 250.106 358.806 250.367C359.097 250.621 359.474 250.748 359.937 250.748C360.407 250.748 360.792 250.621 361.09 250.367C361.396 250.106 361.55 249.77 361.55 249.359C361.55 248.963 361.4 248.642 361.102 248.396C360.803 248.142 360.422 248.015 359.959 248.015H359.377V247.018H359.97C360.396 247.018 360.743 246.906 361.012 246.682C361.288 246.451 361.426 246.156 361.426 245.798C361.426 245.432 361.296 245.137 361.034 244.913C360.773 244.681 360.433 244.566 360.015 244.566C359.604 244.566 359.268 244.681 359.007 244.913C358.746 245.144 358.615 245.443 358.615 245.809H357.428C357.428 245.361 357.536 244.965 357.753 244.622C357.977 244.271 358.283 243.998 358.671 243.804C359.067 243.61 359.515 243.513 360.015 243.513C360.508 243.513 360.948 243.61 361.337 243.804C361.725 243.991 362.027 244.252 362.244 244.588C362.468 244.924 362.58 245.305 362.58 245.73C362.58 246.051 362.483 246.38 362.289 246.716C362.095 247.044 361.837 247.313 361.516 247.522Z" fill="#15151A"/>
<rect x="468.6" y="278.6" width="38" height="18" rx="9" fill="white"/>
<path d="M476.316 290.592C476.473 290.435 476.671 290.252 476.91 290.043C477.149 289.834 477.332 289.67 477.459 289.55C478.064 289.013 478.545 288.569 478.904 288.218C479.262 287.859 479.564 287.493 479.811 287.12C480.057 286.747 480.18 286.392 480.18 286.056C480.18 285.593 480.046 285.216 479.777 284.925C479.516 284.634 479.18 284.488 478.769 284.488C478.448 284.488 478.142 284.593 477.851 284.802C477.567 285.011 477.351 285.28 477.201 285.608L476.16 285.149C476.384 284.634 476.738 284.216 477.224 283.894C477.716 283.566 478.232 283.402 478.769 283.402C479.277 283.402 479.725 283.514 480.113 283.738C480.509 283.962 480.815 284.275 481.032 284.678C481.256 285.082 481.368 285.541 481.368 286.056C481.368 286.564 481.215 287.068 480.908 287.568C480.61 288.068 480.248 288.528 479.822 288.946C479.396 289.364 478.848 289.86 478.176 290.435L477.996 290.592H481.502V291.634H476.428L476.316 290.592ZM487.406 288.498H488.437V289.528H487.406V291.634H486.219V289.528H482.714L482.602 288.498L486.275 283.48H487.406V288.498ZM486.219 288.498V285.462L484.013 288.498H486.219ZM490.286 290.469C490.488 290.469 490.652 290.536 490.779 290.67C490.906 290.797 490.97 290.962 490.97 291.163C490.97 291.372 490.906 291.54 490.779 291.667C490.652 291.802 490.488 291.869 490.286 291.869C490.077 291.869 489.906 291.802 489.771 291.667C489.644 291.54 489.581 291.372 489.581 291.163C489.581 290.962 489.644 290.797 489.771 290.67C489.906 290.536 490.077 290.469 490.286 290.469ZM492.978 287.837L493.258 283.48H497.615V284.522H494.4L494.266 286.515C494.662 286.336 495.046 286.246 495.419 286.246C495.972 286.246 496.465 286.362 496.898 286.594C497.338 286.825 497.678 287.15 497.917 287.568C498.163 287.979 498.287 288.449 498.287 288.979C498.287 289.517 498.163 289.995 497.917 290.413C497.678 290.831 497.338 291.16 496.898 291.398C496.465 291.63 495.972 291.746 495.419 291.746C494.986 291.746 494.576 291.656 494.187 291.477C493.807 291.29 493.482 291.036 493.213 290.715C492.944 290.387 492.761 290.017 492.664 289.606L493.818 289.338C493.9 289.711 494.09 290.021 494.389 290.267C494.688 290.506 495.031 290.626 495.419 290.626C495.912 290.626 496.315 290.473 496.629 290.166C496.943 289.86 497.099 289.465 497.099 288.979C497.099 288.509 496.943 288.124 496.629 287.826C496.315 287.52 495.912 287.366 495.419 287.366C495.21 287.366 494.99 287.426 494.759 287.546C494.527 287.658 494.329 287.803 494.165 287.982L492.978 287.837Z" fill="#15151A"/>
<rect x="605.1" y="306.6" width="36" height="18" rx="9" fill="white"/>
<path d="M615.684 319.634L614.496 319.622V312.757L613.063 313.552L612.57 312.555L614.508 311.491H615.684V319.634ZM621.664 315.422C622.022 315.632 622.31 315.915 622.526 316.274C622.743 316.625 622.851 316.976 622.851 317.326C622.851 317.782 622.732 318.193 622.493 318.558C622.261 318.917 621.937 319.197 621.518 319.398C621.1 319.6 620.622 319.701 620.085 319.701C619.555 319.701 619.081 319.596 618.662 319.387C618.244 319.178 617.916 318.891 617.677 318.525C617.445 318.152 617.33 317.73 617.33 317.259H618.517C618.517 317.67 618.662 318.006 618.954 318.267C619.245 318.521 619.622 318.648 620.085 318.648C620.555 318.648 620.94 318.521 621.238 318.267C621.545 318.006 621.698 317.67 621.698 317.259C621.698 316.864 621.548 316.542 621.25 316.296C620.951 316.042 620.57 315.915 620.107 315.915H619.525V314.918H620.118C620.544 314.918 620.891 314.806 621.16 314.582C621.436 314.351 621.574 314.056 621.574 313.698C621.574 313.332 621.444 313.037 621.182 312.813C620.921 312.581 620.581 312.466 620.163 312.466C619.753 312.466 619.417 312.581 619.155 312.813C618.894 313.044 618.763 313.343 618.763 313.709H617.576C617.576 313.261 617.684 312.865 617.901 312.522C618.125 312.171 618.431 311.898 618.819 311.704C619.215 311.51 619.663 311.413 620.163 311.413C620.656 311.413 621.097 311.51 621.485 311.704C621.873 311.891 622.176 312.152 622.392 312.488C622.616 312.824 622.728 313.205 622.728 313.63C622.728 313.952 622.631 314.28 622.437 314.616C622.243 314.945 621.985 315.213 621.664 315.422ZM624.697 318.469C624.899 318.469 625.063 318.536 625.19 318.67C625.317 318.797 625.38 318.962 625.38 319.163C625.38 319.372 625.317 319.54 625.19 319.667C625.063 319.802 624.899 319.869 624.697 319.869C624.488 319.869 624.316 319.802 624.182 319.667C624.055 319.54 623.992 319.372 623.992 319.163C623.992 318.962 624.055 318.797 624.182 318.67C624.316 318.536 624.488 318.469 624.697 318.469ZM629.875 318.67C630.353 318.67 630.745 318.514 631.051 318.2C631.365 317.886 631.522 317.487 631.522 317.002C631.522 316.501 631.369 316.094 631.062 315.781C630.756 315.467 630.361 315.31 629.875 315.31C629.397 315.31 629.005 315.467 628.699 315.781C628.401 316.094 628.251 316.501 628.251 317.002C628.251 317.487 628.401 317.886 628.699 318.2C629.005 318.514 629.397 318.67 629.875 318.67ZM627.064 317.002C627.064 316.516 627.213 315.997 627.512 315.445L629.752 311.458H631.118L629.494 314.314C629.674 314.284 629.812 314.269 629.909 314.269C630.454 314.269 630.936 314.388 631.354 314.627C631.779 314.859 632.112 315.18 632.35 315.59C632.589 316.001 632.709 316.472 632.709 317.002C632.709 317.524 632.589 317.991 632.35 318.402C632.112 318.812 631.776 319.133 631.342 319.365C630.917 319.596 630.432 319.712 629.886 319.712C629.341 319.712 628.852 319.596 628.419 319.365C627.994 319.133 627.661 318.812 627.422 318.402C627.184 317.991 627.064 317.524 627.064 317.002Z" fill="#15151A"/>
<rect x="124.9" y="189.7" width="38" height="18" rx="9" fill="white"/>
<path d="M137.254 199.598H138.284V200.628H137.254V202.734H136.066V200.628H132.561L132.449 199.598L136.122 194.58H137.254V199.598ZM136.066 199.598V196.562L133.86 199.598H136.066ZM139.708 198.937L139.988 194.58H144.345V195.622H141.13L140.996 197.615C141.392 197.436 141.776 197.346 142.149 197.346C142.702 197.346 143.195 197.462 143.628 197.694C144.068 197.925 144.408 198.25 144.647 198.668C144.893 199.079 145.017 199.549 145.017 200.079C145.017 200.617 144.893 201.095 144.647 201.513C144.408 201.931 144.068 202.259 143.628 202.498C143.195 202.73 142.702 202.846 142.149 202.846C141.716 202.846 141.306 202.756 140.917 202.577C140.537 202.39 140.212 202.136 139.943 201.815C139.674 201.487 139.491 201.117 139.394 200.706L140.548 200.438C140.63 200.811 140.82 201.121 141.119 201.367C141.418 201.606 141.761 201.726 142.149 201.726C142.642 201.726 143.045 201.572 143.359 201.266C143.673 200.96 143.829 200.564 143.829 200.079C143.829 199.609 143.673 199.224 143.359 198.926C143.045 198.619 142.642 198.466 142.149 198.466C141.94 198.466 141.72 198.526 141.489 198.646C141.257 198.758 141.059 198.903 140.895 199.082L139.708 198.937ZM146.871 201.569C147.073 201.569 147.237 201.636 147.364 201.77C147.491 201.897 147.554 202.062 147.554 202.263C147.554 202.472 147.491 202.64 147.364 202.767C147.237 202.902 147.073 202.969 146.871 202.969C146.662 202.969 146.49 202.902 146.356 202.767C146.229 202.64 146.165 202.472 146.165 202.263C146.165 202.062 146.229 201.897 146.356 201.77C146.49 201.636 146.662 201.569 146.871 201.569ZM152.049 201.77C152.527 201.77 152.919 201.614 153.225 201.3C153.539 200.986 153.695 200.587 153.695 200.102C153.695 199.601 153.542 199.194 153.236 198.881C152.93 198.567 152.534 198.41 152.049 198.41C151.571 198.41 151.179 198.567 150.873 198.881C150.574 199.194 150.425 199.601 150.425 200.102C150.425 200.587 150.574 200.986 150.873 201.3C151.179 201.614 151.571 201.77 152.049 201.77ZM149.238 200.102C149.238 199.616 149.387 199.097 149.686 198.545L151.926 194.558H153.292L151.668 197.414C151.847 197.384 151.985 197.369 152.083 197.369C152.628 197.369 153.109 197.488 153.527 197.727C153.953 197.959 154.285 198.28 154.524 198.69C154.763 199.101 154.883 199.571 154.883 200.102C154.883 200.624 154.763 201.091 154.524 201.502C154.285 201.912 153.949 202.233 153.516 202.465C153.091 202.696 152.605 202.812 152.06 202.812C151.515 202.812 151.026 202.696 150.593 202.465C150.167 202.233 149.835 201.912 149.596 201.502C149.357 201.091 149.238 200.624 149.238 200.102Z" fill="#15151A"/>
<rect x="126.3" y="123.2" width="36" height="18" rx="9" fill="white"/>
<path d="M139.121 133.098H140.151V134.128H139.121V136.234H137.933V134.128H134.428L134.316 133.098L137.989 128.08H139.121V133.098ZM137.933 133.098V130.062L135.727 133.098H137.933ZM141.978 136.256L145.17 129.088L141.429 129.099V128.046H146.357L146.469 129.088L143.277 136.256H141.978ZM148.333 135.069C148.535 135.069 148.699 135.136 148.826 135.27C148.953 135.397 149.017 135.562 149.017 135.763C149.017 135.972 148.953 136.14 148.826 136.267C148.699 136.402 148.535 136.469 148.333 136.469C148.124 136.469 147.953 136.402 147.818 136.267C147.691 136.14 147.628 135.972 147.628 135.763C147.628 135.562 147.691 135.397 147.818 135.27C147.953 135.136 148.124 135.069 148.333 135.069ZM153.735 136.234L152.548 136.222V129.357L151.115 130.152L150.622 129.155L152.559 128.091H153.735V136.234Z" fill="#15151A"/>
<rect x="334.9" y="98.7" width="36" height="18" rx="9" fill="white"/>
<path d="M343.137 107.937L343.417 103.58H347.774V104.622H344.559L344.425 106.615C344.821 106.436 345.205 106.346 345.578 106.346C346.131 106.346 346.624 106.462 347.057 106.694C347.497 106.925 347.837 107.25 348.076 107.668C348.322 108.079 348.446 108.549 348.446 109.079C348.446 109.617 348.322 110.095 348.076 110.513C347.837 110.931 347.497 111.259 347.057 111.498C346.624 111.73 346.131 111.846 345.578 111.846C345.145 111.846 344.735 111.756 344.346 111.577C343.966 111.39 343.641 111.136 343.372 110.815C343.103 110.487 342.92 110.117 342.823 109.706L343.977 109.438C344.059 109.811 344.249 110.121 344.548 110.367C344.847 110.606 345.19 110.726 345.578 110.726C346.071 110.726 346.474 110.572 346.788 110.266C347.102 109.96 347.258 109.564 347.258 109.079C347.258 108.609 347.102 108.224 346.788 107.926C346.474 107.619 346.071 107.466 345.578 107.466C345.369 107.466 345.149 107.526 344.918 107.646C344.686 107.758 344.488 107.903 344.324 108.082L343.137 107.937ZM352.585 111.734L351.397 111.722V104.857L349.964 105.652L349.471 104.655L351.409 103.591H352.585V111.734ZM354.981 110.569C355.183 110.569 355.347 110.636 355.474 110.77C355.601 110.897 355.664 111.062 355.664 111.263C355.664 111.472 355.601 111.64 355.474 111.767C355.347 111.902 355.183 111.969 354.981 111.969C354.772 111.969 354.6 111.902 354.466 111.767C354.339 111.64 354.276 111.472 354.276 111.263C354.276 111.062 354.339 110.897 354.466 110.77C354.6 110.636 354.772 110.569 354.981 110.569ZM357.673 107.937L357.953 103.58H362.31V104.622H359.095L358.961 106.615C359.356 106.436 359.741 106.346 360.114 106.346C360.667 106.346 361.16 106.462 361.593 106.694C362.033 106.925 362.373 107.25 362.612 107.668C362.858 108.079 362.982 108.549 362.982 109.079C362.982 109.617 362.858 110.095 362.612 110.513C362.373 110.931 362.033 111.259 361.593 111.498C361.16 111.73 360.667 111.846 360.114 111.846C359.681 111.846 359.271 111.756 358.882 111.577C358.502 111.39 358.177 111.136 357.908 110.815C357.639 110.487 357.456 110.117 357.359 109.706L358.513 109.438C358.595 109.811 358.785 110.121 359.084 110.367C359.383 110.606 359.726 110.726 360.114 110.726C360.607 110.726 361.01 110.572 361.324 110.266C361.638 109.96 361.794 109.564 361.794 109.079C361.794 108.609 361.638 108.224 361.324 107.926C361.01 107.619 360.607 107.466 360.114 107.466C359.905 107.466 359.685 107.526 359.454 107.646C359.222 107.758 359.024 107.903 358.86 108.082L357.673 107.937Z" fill="#15151A"/>
<rect x="468.6" y="70.7" width="38" height="18" rx="9" fill="white"/>
<path d="M476.869 79.9368L477.149 75.58H481.505V76.6216H478.291L478.157 78.6152C478.552 78.436 478.937 78.3464 479.31 78.3464C479.863 78.3464 480.355 78.4621 480.789 78.6936C481.229 78.925 481.569 79.2498 481.808 79.668C482.054 80.0786 482.177 80.549 482.177 81.0792C482.177 81.6168 482.054 82.0946 481.808 82.5128C481.569 82.9309 481.229 83.2594 480.789 83.4984C480.355 83.7298 479.863 83.8456 479.31 83.8456C478.877 83.8456 478.466 83.756 478.078 83.5768C477.697 83.3901 477.373 83.1362 477.104 82.8152C476.835 82.4866 476.652 82.117 476.555 81.7064L477.709 81.4376C477.791 81.8109 477.981 82.1208 478.28 82.3672C478.578 82.6061 478.922 82.7256 479.31 82.7256C479.803 82.7256 480.206 82.5725 480.52 82.2664C480.833 81.9602 480.99 81.5645 480.99 81.0792C480.99 80.6088 480.833 80.2242 480.52 79.9256C480.206 79.6194 479.803 79.4664 479.31 79.4664C479.101 79.4664 478.881 79.5261 478.649 79.6456C478.418 79.7576 478.22 79.9032 478.056 80.0824L476.869 79.9368ZM486.092 82.7704C486.57 82.7704 486.962 82.6136 487.268 82.3C487.582 81.9864 487.739 81.5869 487.739 81.1016C487.739 80.6013 487.586 80.1944 487.28 79.8808C486.973 79.5672 486.578 79.4104 486.092 79.4104C485.615 79.4104 485.223 79.5672 484.916 79.8808C484.618 80.1944 484.468 80.6013 484.468 81.1016C484.468 81.5869 484.618 81.9864 484.916 82.3C485.223 82.6136 485.615 82.7704 486.092 82.7704ZM483.281 81.1016C483.281 80.6162 483.431 80.0973 483.729 79.5448L485.969 75.5576H487.336L485.712 78.4136C485.891 78.3837 486.029 78.3688 486.126 78.3688C486.671 78.3688 487.153 78.4882 487.571 78.7272C487.996 78.9586 488.329 79.2797 488.568 79.6904C488.807 80.101 488.926 80.5714 488.926 81.1016C488.926 81.6242 488.807 82.0909 488.568 82.5016C488.329 82.9122 487.993 83.2333 487.56 83.4648C487.134 83.6962 486.649 83.812 486.104 83.812C485.559 83.812 485.069 83.6962 484.636 83.4648C484.211 83.2333 483.879 82.9122 483.64 82.5016C483.401 82.0909 483.281 81.6242 483.281 81.1016ZM490.769 82.5688C490.971 82.5688 491.135 82.636 491.262 82.7704C491.389 82.8973 491.452 83.0616 491.452 83.2632C491.452 83.4722 491.389 83.6402 491.262 83.7672C491.135 83.9016 490.971 83.9688 490.769 83.9688C490.56 83.9688 490.388 83.9016 490.254 83.7672C490.127 83.6402 490.064 83.4722 490.064 83.2632C490.064 83.0616 490.127 82.8973 490.254 82.7704C490.388 82.636 490.56 82.5688 490.769 82.5688ZM497.47 79.5224C497.829 79.7314 498.116 80.0152 498.333 80.3736C498.549 80.7245 498.658 81.0754 498.658 81.4264C498.658 81.8818 498.538 82.2925 498.299 82.6584C498.068 83.0168 497.743 83.2968 497.325 83.4984C496.907 83.7 496.429 83.8008 495.891 83.8008C495.361 83.8008 494.887 83.6962 494.469 83.4872C494.051 83.2781 493.722 82.9906 493.483 82.6248C493.252 82.2514 493.136 81.8296 493.136 81.3592H494.323C494.323 81.7698 494.469 82.1058 494.76 82.3672C495.051 82.621 495.428 82.748 495.891 82.748C496.362 82.748 496.746 82.621 497.045 82.3672C497.351 82.1058 497.504 81.7698 497.504 81.3592C497.504 80.9634 497.355 80.6424 497.056 80.396C496.757 80.1421 496.376 80.0152 495.914 80.0152H495.331V79.0184H495.925C496.35 79.0184 496.698 78.9064 496.966 78.6824C497.243 78.4509 497.381 78.156 497.381 77.7976C497.381 77.4317 497.25 77.1368 496.989 76.9128C496.727 76.6813 496.388 76.5656 495.97 76.5656C495.559 76.5656 495.223 76.6813 494.962 76.9128C494.7 77.1442 494.57 77.4429 494.57 77.8088H493.382C493.382 77.3608 493.491 76.965 493.707 76.6216C493.931 76.2706 494.237 75.9981 494.626 75.804C495.021 75.6098 495.469 75.5128 495.97 75.5128C496.462 75.5128 496.903 75.6098 497.291 75.804C497.679 75.9906 497.982 76.252 498.198 76.588C498.422 76.924 498.534 77.3048 498.534 77.7304C498.534 78.0514 498.437 78.38 498.243 78.716C498.049 79.0445 497.791 79.3133 497.47 79.5224Z" fill="#15151A"/>
<rect x="604.4" y="49.7" width="37" height="18" rx="9" fill="white"/>
<path d="M612.355 58.9368L612.635 54.58H616.992V55.6216H613.777L613.643 57.6152C614.038 57.436 614.423 57.3464 614.796 57.3464C615.349 57.3464 615.842 57.4621 616.275 57.6936C616.715 57.925 617.055 58.2498 617.294 58.668C617.54 59.0786 617.664 59.549 617.664 60.0792C617.664 60.6168 617.54 61.0946 617.294 61.5128C617.055 61.9309 616.715 62.2594 616.275 62.4984C615.842 62.7298 615.349 62.8456 614.796 62.8456C614.363 62.8456 613.953 62.756 613.564 62.5768C613.184 62.3901 612.859 62.1362 612.59 61.8152C612.321 61.4866 612.138 61.117 612.041 60.7064L613.195 60.4376C613.277 60.8109 613.467 61.1208 613.766 61.3672C614.065 61.6061 614.408 61.7256 614.796 61.7256C615.289 61.7256 615.692 61.5725 616.006 61.2664C616.32 60.9602 616.476 60.5645 616.476 60.0792C616.476 59.6088 616.32 59.2242 616.006 58.9256C615.692 58.6194 615.289 58.4664 614.796 58.4664C614.587 58.4664 614.367 58.5261 614.136 58.6456C613.904 58.7576 613.706 58.9032 613.542 59.0824L612.355 58.9368ZM621.545 61.8488C622.008 61.8488 622.385 61.7144 622.676 61.4456C622.975 61.1768 623.124 60.8296 623.124 60.404C623.124 59.9784 622.975 59.6312 622.676 59.3624C622.385 59.0861 622.008 58.948 621.545 58.948C621.082 58.948 620.701 59.0861 620.403 59.3624C620.104 59.6312 619.955 59.9784 619.955 60.404C619.955 60.8296 620.104 61.1768 620.403 61.4456C620.701 61.7144 621.082 61.8488 621.545 61.8488ZM618.767 60.4264C618.767 60.068 618.894 59.7021 619.148 59.3288C619.402 58.9554 619.723 58.6605 620.111 58.444C619.783 58.22 619.514 57.9437 619.305 57.6152C619.096 57.2866 618.991 56.9768 618.991 56.6856C618.991 56.2525 619.1 55.868 619.316 55.532C619.533 55.1885 619.835 54.9234 620.223 54.7368C620.612 54.5426 621.052 54.4456 621.545 54.4456C622.038 54.4456 622.478 54.5426 622.867 54.7368C623.255 54.9234 623.557 55.1885 623.774 55.532C623.99 55.868 624.099 56.2525 624.099 56.6856C624.099 56.9842 623.994 57.2978 623.785 57.6264C623.576 57.9549 623.307 58.2274 622.979 58.444C623.374 58.668 623.695 58.9666 623.942 59.34C624.196 59.7058 624.323 60.068 624.323 60.4264C624.323 60.8968 624.203 61.3186 623.964 61.692C623.733 62.0578 623.404 62.3453 622.979 62.5544C622.561 62.7634 622.083 62.868 621.545 62.868C621.007 62.868 620.526 62.7634 620.1 62.5544C619.682 62.3453 619.354 62.0578 619.115 61.692C618.883 61.3186 618.767 60.8968 618.767 60.4264ZM620.19 56.6856C620.19 57.0514 620.317 57.3501 620.571 57.5816C620.825 57.813 621.149 57.9288 621.545 57.9288C621.948 57.9288 622.277 57.813 622.531 57.5816C622.785 57.3501 622.911 57.0514 622.911 56.6856C622.911 56.3197 622.785 56.0248 622.531 55.8008C622.277 55.5693 621.948 55.4536 621.545 55.4536C621.149 55.4536 620.825 55.5693 620.571 55.8008C620.317 56.0248 620.19 56.3197 620.19 56.6856ZM626.168 61.5688C626.369 61.5688 626.534 61.636 626.661 61.7704C626.788 61.8973 626.851 62.0616 626.851 62.2632C626.851 62.4722 626.788 62.6402 626.661 62.7672C626.534 62.9016 626.369 62.9688 626.168 62.9688C625.959 62.9688 625.787 62.9016 625.653 62.7672C625.526 62.6402 625.462 62.4722 625.462 62.2632C625.462 62.0616 625.526 61.8973 625.653 61.7704C625.787 61.636 625.959 61.5688 626.168 61.5688ZM629.263 62.756L632.455 55.588L628.714 55.5992V54.5464H633.642L633.754 55.588L630.562 62.756H629.263Z" fill="#15151A"/>
<rect x="744.4" y="18.8999" width="28" height="18" rx="9" fill="white"/>
<path d="M755.165 30.9703C755.642 30.9703 756.034 30.8135 756.341 30.4999C756.654 30.1863 756.811 29.7868 756.811 29.3015C756.811 28.8012 756.658 28.3943 756.352 28.0807C756.046 27.7671 755.65 27.6103 755.165 27.6103C754.687 27.6103 754.295 27.7671 753.989 28.0807C753.69 28.3943 753.541 28.8012 753.541 29.3015C753.541 29.7868 753.69 30.1863 753.989 30.4999C754.295 30.8135 754.687 30.9703 755.165 30.9703ZM752.353 29.3015C752.353 28.8162 752.503 28.2972 752.801 27.7447L755.041 23.7575H756.408L754.784 26.6135C754.963 26.5836 755.101 26.5687 755.198 26.5687C755.743 26.5687 756.225 26.6882 756.643 26.9271C757.069 27.1586 757.401 27.4796 757.64 27.8903C757.879 28.301 757.998 28.7714 757.998 29.3015C757.998 29.8242 757.879 30.2908 757.64 30.7015C757.401 31.1122 757.065 31.4332 756.632 31.6647C756.206 31.8962 755.721 32.0119 755.176 32.0119C754.631 32.0119 754.142 31.8962 753.709 31.6647C753.283 31.4332 752.951 31.1122 752.712 30.7015C752.473 30.2908 752.353 29.8242 752.353 29.3015ZM759.259 30.8919C759.416 30.7351 759.614 30.5522 759.852 30.3431C760.091 30.134 760.274 29.9698 760.401 29.8503C761.006 29.3127 761.488 28.8684 761.846 28.5175C762.204 28.1591 762.507 27.7932 762.753 27.4199C763 27.0466 763.123 26.6919 763.123 26.3559C763.123 25.893 762.988 25.5159 762.72 25.2247C762.458 24.9335 762.122 24.7879 761.712 24.7879C761.391 24.7879 761.084 24.8924 760.793 25.1015C760.51 25.3106 760.293 25.5794 760.144 25.9079L759.102 25.4487C759.326 24.9335 759.681 24.5154 760.166 24.1943C760.659 23.8658 761.174 23.7015 761.712 23.7015C762.219 23.7015 762.667 23.8135 763.056 24.0375C763.451 24.2615 763.758 24.5751 763.974 24.9783C764.198 25.3815 764.31 25.8407 764.31 26.3559C764.31 26.8636 764.157 27.3676 763.851 27.8679C763.552 28.3682 763.19 28.8274 762.764 29.2455C762.339 29.6636 761.79 30.1602 761.118 30.7351L760.939 30.8919H764.444V31.9335H759.371L759.259 30.8919Z" fill="#15151A"/>
<rect x="61.8999" y="189.7" width="38" height="18" rx="9" fill="white"/>
<path d="M74.2535 199.598H75.2839V200.628H74.2535V202.734H73.0663V200.628H69.5607L69.4487 199.598L73.1223 194.58H74.2535V199.598ZM73.0663 199.598V196.562L70.8599 199.598H73.0663ZM76.7079 198.937L76.9879 194.58H81.3447V195.622H78.1303L77.9959 197.615C78.3916 197.436 78.7761 197.346 79.1495 197.346C79.702 197.346 80.1948 197.462 80.6279 197.694C81.0684 197.925 81.4081 198.25 81.6471 198.668C81.8935 199.079 82.0167 199.549 82.0167 200.079C82.0167 200.617 81.8935 201.095 81.6471 201.513C81.4081 201.931 81.0684 202.259 80.6279 202.498C80.1948 202.73 79.702 202.846 79.1495 202.846C78.7164 202.846 78.3057 202.756 77.9175 202.577C77.5367 202.39 77.2119 202.136 76.9431 201.815C76.6743 201.487 76.4913 201.117 76.3943 200.706L77.5479 200.438C77.63 200.811 77.8204 201.121 78.1191 201.367C78.4177 201.606 78.7612 201.726 79.1495 201.726C79.6423 201.726 80.0455 201.572 80.3591 201.266C80.6727 200.96 80.8295 200.564 80.8295 200.079C80.8295 199.609 80.6727 199.224 80.3591 198.926C80.0455 198.619 79.6423 198.466 79.1495 198.466C78.9404 198.466 78.7201 198.526 78.4887 198.646C78.2572 198.758 78.0593 198.903 77.8951 199.082L76.7079 198.937ZM83.871 201.569C84.0726 201.569 84.2368 201.636 84.3638 201.77C84.4907 201.897 84.5542 202.062 84.5542 202.263C84.5542 202.472 84.4907 202.64 84.3638 202.767C84.2368 202.902 84.0726 202.969 83.871 202.969C83.6619 202.969 83.4902 202.902 83.3558 202.767C83.2288 202.64 83.1654 202.472 83.1654 202.263C83.1654 202.062 83.2288 201.897 83.3558 201.77C83.4902 201.636 83.6619 201.569 83.871 201.569ZM89.049 201.77C89.5268 201.77 89.9188 201.614 90.225 201.3C90.5386 200.986 90.6954 200.587 90.6954 200.102C90.6954 199.601 90.5423 199.194 90.2362 198.881C89.93 198.567 89.5343 198.41 89.049 198.41C88.5711 198.41 88.1791 198.567 87.873 198.881C87.5743 199.194 87.425 199.601 87.425 200.102C87.425 200.587 87.5743 200.986 87.873 201.3C88.1791 201.614 88.5711 201.77 89.049 201.77ZM86.2378 200.102C86.2378 199.616 86.3871 199.097 86.6858 198.545L88.9258 194.558H90.2922L88.6682 197.414C88.8474 197.384 88.9855 197.369 89.0826 197.369C89.6276 197.369 90.1092 197.488 90.5274 197.727C90.953 197.959 91.2852 198.28 91.5242 198.69C91.7631 199.101 91.8826 199.571 91.8826 200.102C91.8826 200.624 91.7631 201.091 91.5242 201.502C91.2852 201.912 90.9492 202.233 90.5162 202.465C90.0906 202.696 89.6052 202.812 89.0602 202.812C88.5151 202.812 88.026 202.696 87.593 202.465C87.1674 202.233 86.8351 201.912 86.5962 201.502C86.3572 201.091 86.2378 200.624 86.2378 200.102Z" fill="#15151A"/>
<path d="M145.2 151.9V170.1M145.2 170.1L140.3 165.2M145.2 170.1L150.1 165.2" stroke="#9735D0" stroke-width="1.4"/>
<path d="M488.9 184.1V259M488.9 259L484 254.1M488.9 259L493.8 254.1" stroke="#9735D0" stroke-width="1.4"/>
<path d="M145.2 151.9L353.8 130.2L488.9 102.2L624 81.1999L759.1 50.3999" stroke="#009B46" stroke-width="1.4" stroke-dasharray="2.8 2.8"/>
<circle cx="145.2" cy="151.9" r="2.8" fill="#009B46"/>
<circle cx="353.8" cy="130.2" r="2.8" fill="#009B46"/>
<circle cx="488.9" cy="102.2" r="2.8" fill="#009B46"/>
<circle cx="624" cy="81.1999" r="2.8" fill="#009B46"/>
<circle cx="759.1" cy="50.4001" r="2.8" fill="#009B46"/>
<path d="M162.7 164.5L166.337 170.8H159.063L162.7 164.5Z" fill="#9735D0"/>
<path d="M171.737 169.625L170.847 169.617V164.468L169.771 165.064L169.402 164.316L170.855 163.518H171.737V169.625ZM173.534 168.752C173.686 168.752 173.809 168.802 173.904 168.903C173.999 168.998 174.047 169.121 174.047 169.272C174.047 169.429 173.999 169.555 173.904 169.65C173.809 169.751 173.686 169.802 173.534 169.802C173.378 169.802 173.249 169.751 173.148 169.65C173.053 169.555 173.005 169.429 173.005 169.272C173.005 169.121 173.053 168.998 173.148 168.903C173.249 168.802 173.378 168.752 173.534 168.752ZM175.553 166.778L175.763 163.51H179.031V164.291H176.62L176.519 165.786C176.816 165.652 177.104 165.585 177.384 165.585C177.799 165.585 178.168 165.672 178.493 165.845C178.823 166.019 179.078 166.262 179.257 166.576C179.442 166.884 179.535 167.237 179.535 167.634C179.535 168.038 179.442 168.396 179.257 168.71C179.078 169.023 178.823 169.27 178.493 169.449C178.168 169.622 177.799 169.709 177.384 169.709C177.059 169.709 176.751 169.642 176.46 169.508C176.175 169.368 175.931 169.177 175.729 168.936C175.528 168.69 175.391 168.413 175.318 168.105L176.183 167.903C176.245 168.183 176.387 168.416 176.611 168.6C176.835 168.78 177.093 168.869 177.384 168.869C177.754 168.869 178.056 168.754 178.291 168.525C178.527 168.295 178.644 167.998 178.644 167.634C178.644 167.282 178.527 166.993 178.291 166.769C178.056 166.54 177.754 166.425 177.384 166.425C177.227 166.425 177.062 166.47 176.889 166.559C176.715 166.643 176.567 166.752 176.443 166.887L175.553 166.778Z" fill="#9735D0"/>
<path d="M503.6 234.5L507.237 240.8H499.963L503.6 234.5Z" fill="#9735D0"/>
<path d="M513.215 237.273H513.988V238.046H513.215V239.625H512.325V238.046H509.695L509.611 237.273L512.367 233.51H513.215V237.273ZM512.325 237.273V234.997L510.67 237.273H512.325ZM516.92 238.903C517.279 238.903 517.573 238.785 517.802 238.55C518.038 238.315 518.155 238.015 518.155 237.651C518.155 237.276 518.04 236.971 517.811 236.736C517.581 236.5 517.284 236.383 516.92 236.383C516.562 236.383 516.268 236.5 516.038 236.736C515.814 236.971 515.702 237.276 515.702 237.651C515.702 238.015 515.814 238.315 516.038 238.55C516.268 238.785 516.562 238.903 516.92 238.903ZM514.812 237.651C514.812 237.287 514.924 236.898 515.148 236.484L516.828 233.493H517.853L516.635 235.635C516.769 235.613 516.873 235.602 516.946 235.602C517.354 235.602 517.716 235.691 518.029 235.87C518.348 236.044 518.598 236.285 518.777 236.593C518.956 236.901 519.046 237.254 519.046 237.651C519.046 238.043 518.956 238.393 518.777 238.701C518.598 239.009 518.346 239.25 518.021 239.424C517.702 239.597 517.338 239.684 516.929 239.684C516.52 239.684 516.153 239.597 515.828 239.424C515.509 239.25 515.26 239.009 515.081 238.701C514.902 238.393 514.812 238.043 514.812 237.651ZM520.428 238.752C520.579 238.752 520.702 238.802 520.798 238.903C520.893 238.998 520.94 239.121 520.94 239.272C520.94 239.429 520.893 239.555 520.798 239.65C520.702 239.751 520.579 239.802 520.428 239.802C520.271 239.802 520.142 239.751 520.042 239.65C519.946 239.555 519.899 239.429 519.899 239.272C519.899 239.121 519.946 238.998 520.042 238.903C520.142 238.802 520.271 238.752 520.428 238.752ZM522.329 238.844C522.447 238.726 522.595 238.589 522.774 238.432C522.954 238.276 523.091 238.152 523.186 238.063C523.64 237.66 524.001 237.326 524.27 237.063C524.538 236.794 524.765 236.52 524.95 236.24C525.135 235.96 525.227 235.694 525.227 235.442C525.227 235.095 525.126 234.812 524.925 234.594C524.729 234.375 524.477 234.266 524.169 234.266C523.928 234.266 523.698 234.344 523.48 234.501C523.267 234.658 523.105 234.86 522.993 235.106L522.212 234.762C522.38 234.375 522.646 234.062 523.01 233.821C523.379 233.574 523.766 233.451 524.169 233.451C524.55 233.451 524.886 233.535 525.177 233.703C525.474 233.871 525.703 234.106 525.866 234.409C526.034 234.711 526.118 235.056 526.118 235.442C526.118 235.823 526.003 236.201 525.773 236.576C525.549 236.951 525.278 237.296 524.958 237.609C524.639 237.923 524.228 238.295 523.724 238.726L523.589 238.844H526.218V239.625H522.413L522.329 238.844ZM532.604 233.468H533.519L529.639 239.65H528.74L532.604 233.468ZM527.32 235.047C527.32 234.739 527.393 234.456 527.539 234.199C527.684 233.941 527.88 233.74 528.127 233.594C528.379 233.443 528.656 233.367 528.958 233.367C529.255 233.367 529.527 233.443 529.773 233.594C530.025 233.74 530.224 233.941 530.369 234.199C530.515 234.456 530.588 234.739 530.588 235.047C530.588 235.355 530.515 235.638 530.369 235.896C530.224 236.153 530.025 236.358 529.773 236.509C529.527 236.654 529.255 236.727 528.958 236.727C528.656 236.727 528.379 236.654 528.127 236.509C527.88 236.358 527.684 236.153 527.539 235.896C527.393 235.638 527.32 235.355 527.32 235.047ZM528.16 235.047C528.16 235.282 528.236 235.484 528.387 235.652C528.544 235.814 528.734 235.896 528.958 235.896C529.182 235.896 529.37 235.814 529.521 235.652C529.678 235.484 529.756 235.282 529.756 235.047C529.756 234.812 529.678 234.613 529.521 234.451C529.37 234.288 529.182 234.207 528.958 234.207C528.734 234.207 528.544 234.288 528.387 234.451C528.236 234.613 528.16 234.812 528.16 235.047ZM531.596 238.021C531.596 237.713 531.669 237.43 531.814 237.172C531.96 236.915 532.156 236.713 532.402 236.568C532.654 236.416 532.931 236.341 533.234 236.341C533.531 236.341 533.802 236.416 534.049 236.568C534.301 236.713 534.499 236.915 534.645 237.172C534.791 237.43 534.863 237.713 534.863 238.021C534.863 238.329 534.791 238.612 534.645 238.869C534.499 239.127 534.301 239.331 534.049 239.482C533.802 239.634 533.531 239.709 533.234 239.709C532.931 239.709 532.654 239.634 532.402 239.482C532.156 239.331 531.96 239.127 531.814 238.869C531.669 238.612 531.596 238.329 531.596 238.021ZM532.436 238.021C532.436 238.256 532.511 238.458 532.663 238.626C532.819 238.788 533.01 238.869 533.234 238.869C533.458 238.869 533.645 238.788 533.797 238.626C533.953 238.458 534.032 238.256 534.032 238.021C534.032 237.786 533.953 237.587 533.797 237.424C533.645 237.262 533.458 237.181 533.234 237.181C533.01 237.181 532.819 237.262 532.663 237.424C532.511 237.587 532.436 237.786 532.436 238.021Z" fill="#9735D0"/>
<path d="M500.117 219.892C500.274 219.735 500.471 219.552 500.71 219.343C500.949 219.134 501.132 218.97 501.259 218.85C501.864 218.313 502.346 217.868 502.704 217.518C503.062 217.159 503.365 216.793 503.611 216.42C503.858 216.047 503.981 215.692 503.981 215.356C503.981 214.893 503.846 214.516 503.578 214.225C503.316 213.934 502.98 213.788 502.57 213.788C502.248 213.788 501.942 213.892 501.651 214.102C501.367 214.311 501.151 214.579 501.002 214.908L499.96 214.449C500.184 213.934 500.539 213.515 501.024 213.194C501.517 212.866 502.032 212.702 502.57 212.702C503.077 212.702 503.525 212.814 503.914 213.038C504.309 213.262 504.615 213.575 504.832 213.978C505.056 214.382 505.168 214.841 505.168 215.356C505.168 215.864 505.015 216.368 504.709 216.868C504.41 217.368 504.048 217.827 503.622 218.246C503.197 218.664 502.648 219.16 501.976 219.735L501.797 219.892H505.302V220.934H500.229L500.117 219.892ZM509.459 219.959C509.825 219.959 510.15 219.828 510.434 219.567C510.718 219.306 510.938 218.944 511.095 218.481C511.251 218.01 511.33 217.469 511.33 216.857C511.33 216.244 511.251 215.703 511.095 215.233C510.938 214.762 510.718 214.396 510.434 214.135C510.15 213.874 509.825 213.743 509.459 213.743C509.094 213.743 508.765 213.874 508.474 214.135C508.19 214.396 507.97 214.762 507.813 215.233C507.656 215.703 507.578 216.244 507.578 216.857C507.578 217.469 507.656 218.01 507.813 218.481C507.97 218.944 508.19 219.306 508.474 219.567C508.765 219.828 509.094 219.959 509.459 219.959ZM506.391 216.857C506.391 216.05 506.521 215.334 506.783 214.706C507.044 214.072 507.406 213.579 507.869 213.228C508.332 212.877 508.862 212.702 509.459 212.702C510.049 212.702 510.576 212.877 511.039 213.228C511.502 213.579 511.864 214.072 512.125 214.706C512.386 215.334 512.517 216.05 512.517 216.857C512.517 217.656 512.386 218.372 512.125 219.007C511.864 219.634 511.502 220.127 511.039 220.486C510.576 220.836 510.049 221.012 509.459 221.012C508.87 221.012 508.339 220.836 507.869 220.486C507.406 220.127 507.044 219.634 506.783 219.007C506.521 218.372 506.391 217.656 506.391 216.857ZM513.778 219.892C513.934 219.735 514.132 219.552 514.371 219.343C514.61 219.134 514.793 218.97 514.92 218.85C515.525 218.313 516.006 217.868 516.365 217.518C516.723 217.159 517.026 216.793 517.272 216.42C517.518 216.047 517.642 215.692 517.642 215.356C517.642 214.893 517.507 214.516 517.238 214.225C516.977 213.934 516.641 213.788 516.23 213.788C515.909 213.788 515.603 213.892 515.312 214.102C515.028 214.311 514.812 214.579 514.662 214.908L513.621 214.449C513.845 213.934 514.2 213.515 514.685 213.194C515.178 212.866 515.693 212.702 516.23 212.702C516.738 212.702 517.186 212.814 517.574 213.038C517.97 213.262 518.276 213.575 518.493 213.978C518.717 214.382 518.829 214.841 518.829 215.356C518.829 215.864 518.676 216.368 518.37 216.868C518.071 217.368 517.709 217.827 517.283 218.246C516.858 218.664 516.309 219.16 515.637 219.735L515.458 219.892H518.963V220.934H513.89L513.778 219.892ZM523.098 220.934L521.911 220.922V214.057L520.477 214.852L519.984 213.855L521.922 212.791H523.098V220.934ZM532.864 211.828V219.186H531.632V215.871H529.056V214.897H531.632V213.99H529.056V213.015H531.632V211.828H532.864ZM525.125 212.5H526.357V216.812C527.716 216.797 528.97 216.689 530.12 216.487L530.232 217.484C529.523 217.618 528.828 217.712 528.149 217.764C527.469 217.809 526.723 217.831 525.909 217.831H525.125V212.5ZM526.357 218.537H527.578V220.62H533.099V221.606H526.357V218.537ZM545.458 211.828V221.796H544.282V216.734H543.196V221.303H542.054V212.03H543.196V215.726H544.282V211.828H545.458ZM537.26 213.015H540.934V214.012H538.47V218.458C539.56 218.443 540.545 218.354 541.426 218.19L541.538 219.198C540.971 219.31 540.415 219.384 539.87 219.422C539.324 219.459 538.679 219.478 537.932 219.478H537.26V213.015ZM554.956 211.817V221.818H553.724V211.817H554.956ZM547.251 212.646H548.471V215.143H550.857V212.646H552.067V219.455H547.251V212.646ZM550.857 218.47V216.106H548.471V218.47H550.857Z" fill="#9735D0"/>
<path d="M0 9.80005H57.4" stroke="#009B46" stroke-width="1.4" stroke-dasharray="2.8 2.8"/>
<path d="M0 30.8H57.4" stroke="#9735D0" stroke-width="1.4"/>
<circle cx="28.6999" cy="9.8" r="2.8" fill="#009B46"/>
<circle cx="28.6999" cy="30.8" r="2.8" fill="#6D0CA6"/>
<circle cx="28.6998" cy="30.7999" r="4.55" stroke="#6D0CA6" stroke-width="0.7"/>
<path d="M74.6928 4.895H76.9272C77.3061 4.895 77.6426 4.97993 77.9366 5.1498C78.2371 5.31313 78.469 5.5418 78.6324 5.8358C78.8022 6.1298 78.8872 6.463 78.8872 6.8354C78.8872 7.05753 78.8316 7.29273 78.7206 7.541C78.6095 7.78273 78.4625 7.99507 78.2796 8.178C78.3318 8.20413 78.4102 8.24987 78.5148 8.3152C78.7892 8.4916 79.0146 8.73987 79.191 9.06C79.3674 9.38013 79.4556 9.70353 79.4556 10.0302C79.4556 10.4157 79.3706 10.7619 79.2008 11.069C79.0374 11.3695 78.8055 11.6047 78.505 11.7746C78.211 11.9445 77.8745 12.0294 77.4956 12.0294H74.6928V4.895ZM77.4662 11.3042C77.8124 11.3042 78.0966 11.1866 78.3188 10.9514C78.5409 10.7162 78.652 10.4124 78.652 10.04C78.652 9.64147 78.5409 9.31807 78.3188 9.0698C78.0966 8.82153 77.8124 8.6974 77.4662 8.6974H75.516V11.3042H77.4662ZM77.0546 7.982C77.3616 7.96893 77.6099 7.85787 77.7994 7.6488C77.9954 7.4332 78.0934 7.16207 78.0934 6.8354C78.0934 6.47607 77.9823 6.18533 77.7602 5.9632C77.538 5.73453 77.2538 5.6202 76.9076 5.6202H75.516V7.982H77.0546ZM86.8589 12.0294H85.9867L85.2321 10.0106H82.1255L81.3415 12.0294H80.4693L83.2035 4.895H84.1737L86.8589 12.0294ZM84.9577 9.2952L83.6935 5.9338L82.3901 9.2952H84.9577ZM90.0778 12.098C89.529 12.098 89.052 11.9771 88.647 11.7354C88.2484 11.4937 87.9414 11.1572 87.7258 10.726C87.5167 10.2948 87.4122 9.79827 87.4122 9.2364V4.895H88.2354V9.2462C88.2354 9.88647 88.3954 10.3993 88.7156 10.7848C89.0357 11.1637 89.4898 11.3532 90.0778 11.3532C90.6658 11.3532 91.1198 11.1637 91.44 10.7848C91.7666 10.3993 91.93 9.88647 91.93 9.2462V4.895H92.7532V9.2364C92.7532 9.79827 92.6454 10.2948 92.4298 10.726C92.2207 11.1572 91.9136 11.4937 91.5086 11.7354C91.1035 11.9771 90.6266 12.098 90.0778 12.098ZM96.5837 7.8546L97.9557 7.4234L98.1909 8.1486L96.8287 8.5798L97.7009 9.7852L97.0933 10.2654L96.2015 9.0404L95.3195 10.2654L94.7217 9.7852L95.5939 8.5798L94.2219 8.1486L94.4571 7.4234L95.8193 7.8546V6.3944H96.5837V7.8546ZM101.876 7.8546L103.248 7.4234L103.483 8.1486L102.121 8.5798L102.993 9.7852L102.386 10.2654L101.494 9.0404L100.612 10.2654L100.014 9.7852L100.886 8.5798L99.5143 8.1486L99.7495 7.4234L101.112 7.8546V6.3944H101.876V7.8546Z" fill="#3F3F46"/>
<path d="M82.9765 25.111V27.1788H84.2407V27.8844H82.9765V29.9914H82.1239V25.111H82.9765ZM76.2635 29.423C77.2957 29.1486 78.1091 28.7435 78.7037 28.2078C79.3047 27.6721 79.6412 27.0514 79.7131 26.3458H76.6457V25.6598H80.6245C80.6245 26.7443 80.2717 27.6688 79.5661 28.4332C78.8605 29.1976 77.8674 29.7529 76.5869 30.0992L76.2635 29.423ZM77.5277 30.3834H82.9765V33.6174H77.5277V30.3834ZM82.1435 32.9314V31.0694H78.3607V32.9314H82.1435ZM92.6297 29.4426V30.1286H89.1605V31.0694H91.6693V33.7154H90.8265V31.7554H85.7011V31.0694H88.3079V30.1286H84.8387V29.4426H92.6297ZM85.2895 28.3352C85.8448 28.2895 86.3414 28.1882 86.7791 28.0314C87.2234 27.8681 87.5762 27.6655 87.8375 27.4238C88.0988 27.1821 88.2426 26.9142 88.2687 26.6202H85.6325V25.9538H88.3079V25.0816H89.1605V25.9538H91.8457V26.6202H89.1997C89.2258 26.9142 89.3696 27.1821 89.6309 27.4238C89.8922 27.6655 90.2418 27.8681 90.6795 28.0314C91.1238 28.1882 91.6236 28.2895 92.1789 28.3352L91.9143 28.982C91.176 28.9101 90.526 28.7468 89.9641 28.492C89.4022 28.2372 88.9906 27.9073 88.7293 27.5022C88.4745 27.9073 88.0629 28.2372 87.4945 28.492C86.9326 28.7468 86.2826 28.9101 85.5443 28.982L85.2895 28.3352ZM101.915 28.4724V27.365H99.7983C99.5239 28.051 99.0699 28.639 98.4361 29.129C97.8089 29.619 97.0315 30.0012 96.1037 30.2756L95.7607 29.5994C96.7865 29.3054 97.5933 28.8873 98.1813 28.345C98.7759 27.7962 99.1091 27.1625 99.1809 26.4438H96.2115V25.748H100.102C100.102 26.0747 100.073 26.385 100.014 26.679H101.915V25.111H102.768V30.256H101.915V29.1584H99.7101V28.4724H101.915ZM97.0935 32.0298C97.0935 31.5071 97.3483 31.0988 97.8579 30.8048C98.3741 30.5043 99.0731 30.354 99.9551 30.354C100.831 30.354 101.523 30.5043 102.033 30.8048C102.549 31.0988 102.807 31.5071 102.807 32.0298C102.807 32.5459 102.549 32.951 102.033 33.245C101.523 33.5455 100.831 33.6958 99.9551 33.6958C99.0731 33.6958 98.3741 33.5455 97.8579 33.245C97.3483 32.951 97.0935 32.5459 97.0935 32.0298ZM97.9363 32.0298C97.9363 32.3434 98.116 32.5884 98.4753 32.7648C98.8412 32.9412 99.3345 33.0294 99.9551 33.0294C100.582 33.0294 101.076 32.9412 101.435 32.7648C101.794 32.5884 101.974 32.3434 101.974 32.0298C101.974 31.7162 101.794 31.4712 101.435 31.2948C101.076 31.1119 100.582 31.0204 99.9551 31.0204C99.3345 31.0204 98.8412 31.1119 98.4753 31.2948C98.116 31.4712 97.9363 31.7162 97.9363 32.0298ZM107.697 31.9906V30.4128H105.198V27.708H110.245V26.4242H105.179V25.7382H111.088V28.3842H106.031V29.7268H111.284V30.4128H108.54V31.9906H112.039V32.6864H104.228V31.9906H107.697ZM115.449 28.8546L116.821 28.4234L117.057 29.1486L115.694 29.5798L116.567 30.7852L115.959 31.2654L115.067 30.0404L114.185 31.2654L113.587 30.7852L114.46 29.5798L113.088 29.1486L113.323 28.4234L114.685 28.8546V27.3944H115.449V28.8546ZM120.742 28.8546L122.114 28.4234L122.349 29.1486L120.987 29.5798L121.859 30.7852L121.251 31.2654L120.36 30.0404L119.478 31.2654L118.88 30.7852L119.752 29.5798L118.38 29.1486L118.615 28.4234L119.977 28.8546V27.3944H120.742V28.8546ZM126.034 28.8546L127.406 28.4234L127.641 29.1486L126.279 29.5798L127.151 30.7852L126.544 31.2654L125.652 30.0404L124.77 31.2654L124.172 30.7852L125.044 29.5798L123.672 29.1486L123.908 28.4234L125.27 28.8546V27.3944H126.034V28.8546Z" fill="#3F3F46"/>
<path d="M2.3356 66.5202C2.11347 65.7689 2.0024 65.0829 2.0024 64.4622C2.0024 63.8415 2.11347 63.1588 2.3356 62.414C2.55773 61.6627 2.8452 61.0093 3.198 60.454H4.0898C3.69127 60.9963 3.36787 61.6398 3.1196 62.3846C2.87133 63.1294 2.7472 63.8219 2.7472 64.4622C2.7472 65.1025 2.87133 65.795 3.1196 66.5398C3.36787 67.2846 3.69127 67.9281 4.0898 68.4704H3.198C2.8452 67.9151 2.55773 67.265 2.3356 66.5202ZM11.8106 60.111V62.6492H13.0748V63.345H11.8106V66.3536H10.958V60.111H11.8106ZM5.49939 60.846H9.31159V61.5418H6.34219V64.1486C7.20459 64.1486 7.90693 64.129 8.44919 64.0898C8.99799 64.0506 9.54026 63.9755 10.076 63.8644L10.174 64.5504C9.59253 64.668 9.01106 64.7497 8.42959 64.7954C7.85466 64.8346 7.10333 64.8542 6.17559 64.8542H5.49939V60.846ZM6.42059 65.7264H7.26339V67.8628H12.183V68.5488H6.42059V65.7264ZM16.4658 60.5128C16.8905 60.5128 17.2694 60.5879 17.6026 60.7382C17.9424 60.8885 18.207 61.1008 18.3964 61.3752C18.5859 61.6431 18.6806 61.9501 18.6806 62.2964C18.6806 62.6427 18.5859 62.953 18.3964 63.2274C18.207 63.4953 17.9424 63.7043 17.6026 63.8546C17.2694 64.0049 16.8905 64.08 16.4658 64.08C16.0477 64.08 15.6688 64.0049 15.329 63.8546C14.9958 63.7043 14.7345 63.4953 14.545 63.2274C14.3556 62.953 14.2608 62.6427 14.2608 62.2964C14.2608 61.9501 14.3556 61.6431 14.545 61.3752C14.7345 61.1008 14.9958 60.8885 15.329 60.7382C15.6688 60.5879 16.0477 60.5128 16.4658 60.5128ZM13.6434 64.7758C14.7214 64.7758 15.7243 64.7562 16.652 64.717C17.5798 64.6778 18.4618 64.5929 19.298 64.4622L19.3568 65.0992C18.6643 65.2299 17.8574 65.3279 16.9362 65.3932V68.4704H16.0836V65.4422C15.3846 65.4749 14.6071 65.4912 13.7512 65.4912L13.6434 64.7758ZM15.0742 62.2964C15.0742 62.6165 15.2049 62.8779 15.4662 63.0804C15.7276 63.2764 16.0608 63.3744 16.4658 63.3744C16.8774 63.3744 17.2139 63.2764 17.4752 63.0804C17.7366 62.8779 17.8672 62.6165 17.8672 62.2964C17.8672 61.9763 17.7366 61.7149 17.4752 61.5124C17.2139 61.3099 16.8774 61.2086 16.4658 61.2086C16.0608 61.2086 15.7276 61.3099 15.4662 61.5124C15.2049 61.7149 15.0742 61.9763 15.0742 62.2964ZM19.8958 60.111H20.7386V68.7448H19.8958V60.111ZM23.2771 62.3062C23.4208 62.3062 23.5351 62.3519 23.6201 62.4434C23.7115 62.5349 23.7573 62.6492 23.7573 62.7864C23.7573 62.9301 23.7115 63.0477 23.6201 63.1392C23.5351 63.2307 23.4208 63.2764 23.2771 63.2764C23.1333 63.2764 23.0157 63.2307 22.9243 63.1392C22.8328 63.0477 22.7871 62.9301 22.7871 62.7864C22.7871 62.6492 22.8328 62.5349 22.9243 62.4434C23.0157 62.3519 23.1333 62.3062 23.2771 62.3062ZM22.7871 66.089C22.7871 65.9453 22.8328 65.8309 22.9243 65.746C23.0157 65.6545 23.1333 65.6088 23.2771 65.6088C23.4208 65.6088 23.5351 65.6545 23.6201 65.746C23.7115 65.8309 23.7573 65.9453 23.7573 66.089C23.7573 66.2327 23.7115 66.3503 23.6201 66.4418C23.5351 66.5333 23.4208 66.579 23.2771 66.579C23.1333 66.579 23.0157 66.5333 22.9243 66.4418C22.8328 66.3503 22.7871 66.2327 22.7871 66.089ZM29.4369 61.2576V60.1796H30.2699V61.2576H32.1515V61.924H30.2699V62.1592C30.2699 62.7211 30.4626 63.2339 30.8481 63.6978C31.2401 64.1617 31.7595 64.4949 32.4063 64.6974L31.9947 65.3638C31.5047 65.207 31.0735 64.9685 30.7011 64.6484C30.3352 64.3283 30.0576 63.9526 29.8681 63.5214C29.6786 63.9853 29.401 64.3903 29.0351 64.7366C28.6692 65.0829 28.2348 65.3442 27.7317 65.5206L27.3103 64.8542C27.9571 64.6321 28.4732 64.276 28.8587 63.786C29.2442 63.296 29.4369 62.7537 29.4369 62.1592V61.924H27.5455V61.2576H29.4369ZM28.8783 65.9812H29.7309V67.8628H34.6505V68.5488H28.8783V65.9812ZM31.8575 62.7472H33.5627V60.1208H34.4153V66.5496H33.5627V63.4528H31.8575V62.7472ZM36.7969 64.178H35.9639V63.4528H36.7969V61.875H37.6201V63.4528H38.6981V64.178H37.6201V68.0294H36.7969V64.178ZM43.4987 68.1078C42.8193 68.1078 42.2117 67.9543 41.6759 67.6472C41.1402 67.3336 40.7221 66.9024 40.4215 66.3536C40.1275 65.7983 39.9805 65.1678 39.9805 64.4622C39.9805 63.7566 40.1275 63.1294 40.4215 62.5806C40.7221 62.0253 41.1402 61.5941 41.6759 61.287C42.2117 60.9734 42.8193 60.8166 43.4987 60.8166C43.9757 60.8166 44.4265 60.9113 44.8511 61.1008C45.2823 61.2903 45.6613 61.5516 45.9879 61.8848L45.4391 62.3748C45.1974 62.1135 44.9067 61.9109 44.5669 61.7672C44.2272 61.6169 43.8711 61.5418 43.4987 61.5418C42.9761 61.5418 42.5089 61.6659 42.0973 61.9142C41.6923 62.1559 41.3754 62.4989 41.1467 62.9432C40.9246 63.3875 40.8135 63.8938 40.8135 64.4622C40.8135 65.0306 40.9246 65.5369 41.1467 65.9812C41.3754 66.4255 41.6923 66.7717 42.0973 67.02C42.5089 67.2617 42.9761 67.3826 43.4987 67.3826C43.8711 67.3826 44.2207 67.3107 44.5473 67.167C44.8805 67.0167 45.168 66.8142 45.4097 66.5594L45.9879 67.0396C45.6613 67.3728 45.2856 67.6341 44.8609 67.8236C44.4363 68.0131 43.9822 68.1078 43.4987 68.1078ZM50.5623 67.3826C51.0915 67.3826 51.5587 67.2617 51.9637 67.02C52.3753 66.7717 52.6922 66.4255 52.9143 65.9812C53.143 65.5369 53.2573 65.0306 53.2573 64.4622C53.2573 63.8938 53.143 63.3875 52.9143 62.9432C52.6922 62.4989 52.3753 62.1559 51.9637 61.9142C51.5587 61.6659 51.0915 61.5418 50.5623 61.5418C50.0397 61.5418 49.5725 61.6659 49.1609 61.9142C48.7559 62.1559 48.439 62.4989 48.2103 62.9432C47.9882 63.3875 47.8771 63.8938 47.8771 64.4622C47.8771 65.0306 47.9882 65.5369 48.2103 65.9812C48.439 66.4255 48.7559 66.7717 49.1609 67.02C49.5725 67.2617 50.0397 67.3826 50.5623 67.3826ZM47.0441 64.4622C47.0441 63.7566 47.1944 63.1294 47.4949 62.5806C47.7955 62.0253 48.2103 61.5941 48.7395 61.287C49.2753 60.9734 49.8829 60.8166 50.5623 60.8166C51.2418 60.8166 51.8494 60.9734 52.3851 61.287C52.9209 61.5941 53.339 62.0253 53.6395 62.5806C53.9401 63.1294 54.0903 63.7566 54.0903 64.4622C54.0903 65.1678 53.9401 65.7983 53.6395 66.3536C53.339 66.9024 52.9209 67.3336 52.3851 67.6472C51.8494 67.9543 51.2418 68.1078 50.5623 68.1078C49.8829 68.1078 49.2753 67.9543 48.7395 67.6472C48.2103 67.3336 47.7955 66.9024 47.4949 66.3536C47.1944 65.7983 47.0441 65.1678 47.0441 64.4622ZM55.4619 67.2944C55.7297 67.0331 56.0107 66.7717 56.3047 66.5104C56.8731 65.9943 57.3304 65.5565 57.6767 65.1972C58.0295 64.8379 58.3267 64.472 58.5685 64.0996C58.8167 63.7272 58.9409 63.3809 58.9409 63.0608C58.9409 62.6231 58.8135 62.267 58.5587 61.9926C58.3104 61.7117 57.987 61.5712 57.5885 61.5712C57.2945 61.5712 57.0103 61.6692 56.7359 61.8652C56.468 62.0612 56.2655 62.316 56.1283 62.6296L55.3933 62.3062C55.5827 61.875 55.8833 61.5222 56.2949 61.2478C56.7065 60.9734 57.1377 60.8362 57.5885 60.8362C58.0066 60.8362 58.379 60.9309 58.7057 61.1204C59.0389 61.3099 59.2969 61.5745 59.4799 61.9142C59.6628 62.2474 59.7543 62.6296 59.7543 63.0608C59.7543 63.4855 59.6203 63.9199 59.3525 64.3642C59.0846 64.8019 58.7612 65.2135 58.3823 65.599C58.0099 65.9845 57.5297 66.4418 56.9417 66.971L56.5889 67.2944H59.8719V68.0196H55.5599L55.4619 67.2944ZM63.1397 68.0686C62.715 68.0686 62.3361 67.9706 62.0029 67.7746C61.6762 67.5786 61.4182 67.3075 61.2287 66.9612C61.0458 66.6084 60.9543 66.2099 60.9543 65.7656C60.9543 65.3213 61.0458 64.9261 61.2287 64.5798C61.4182 64.227 61.6762 63.9526 62.0029 63.7566C62.3361 63.5606 62.715 63.4626 63.1397 63.4626C63.7342 63.4626 64.1752 63.6096 64.4627 63.9036C64.7502 64.1976 64.9364 64.4655 65.0213 64.7072C65.152 65.0469 65.2173 65.4193 65.2173 65.8244C65.2173 65.942 65.214 66.0204 65.2075 66.0596C65.2075 66.0923 65.2075 66.1119 65.2075 66.1184H61.7775C61.8363 66.4777 61.9931 66.775 62.2479 67.0102C62.5027 67.2389 62.8 67.3532 63.1397 67.3532C63.7212 67.3532 64.1556 67.1278 64.4431 66.677L65.0899 67.0102C64.9592 67.2977 64.724 67.5459 64.3843 67.755C64.0511 67.9641 63.6362 68.0686 63.1397 68.0686ZM64.4137 65.4128C64.3092 64.5896 63.8845 64.178 63.1397 64.178C62.7934 64.178 62.4929 64.2956 62.2381 64.5308C61.9898 64.7595 61.8363 65.0567 61.7775 65.4226L64.4137 65.4128ZM68.3751 67.2944C68.6234 67.2944 68.8521 67.2291 69.0611 67.0984C69.2767 66.9612 69.4466 66.7783 69.5707 66.5496C69.7014 66.3144 69.7667 66.0531 69.7667 65.7656C69.7667 65.4781 69.7014 65.2135 69.5707 64.9718C69.4466 64.7235 69.2767 64.5275 69.0611 64.3838C68.8521 64.2401 68.6234 64.1682 68.3751 64.1682C67.9635 64.1682 67.6271 64.3185 67.3657 64.619C67.1109 64.913 66.9835 65.2952 66.9835 65.7656C66.9835 66.2229 67.1109 66.5921 67.3657 66.873C67.6271 67.1539 67.9635 67.2944 68.3751 67.2944ZM66.1701 65.7656C66.1701 65.3213 66.2616 64.9261 66.4445 64.5798C66.634 64.227 66.8921 63.9526 67.2187 63.7566C67.5519 63.5606 67.9276 63.4626 68.3457 63.4626C68.6005 63.4626 68.8619 63.5312 69.1297 63.6684C69.4041 63.7991 69.6197 63.9853 69.7765 64.227V63.4626H70.5899V70.1168H69.7765V67.3238C69.6197 67.559 69.4041 67.7452 69.1297 67.8824C68.8553 68.0196 68.594 68.0882 68.3457 68.0882C67.9276 68.0882 67.5519 67.9902 67.2187 67.7942C66.8921 67.5982 66.634 67.3238 66.4445 66.971C66.2616 66.6182 66.1701 66.2164 66.1701 65.7656ZM73.649 62.4042C73.8711 63.149 73.9822 63.835 73.9822 64.4622C73.9822 65.0894 73.8711 65.7754 73.649 66.5202C73.4268 67.265 73.1426 67.9151 72.7964 68.4704H71.9046C72.2966 67.9347 72.6167 67.2944 72.865 66.5496C73.1132 65.7983 73.2374 65.1025 73.2374 64.4622C73.2374 63.8219 73.1132 63.1294 72.865 62.3846C72.6167 61.6333 72.2966 60.9897 71.9046 60.454H72.7964C73.1426 61.0093 73.4268 61.6594 73.649 62.4042Z" fill="#3F3F46"/>
</svg>
