<?xml version="1.0" standalone="no"?>
<!DOCTYPE svg PUBLIC "-//W3C//DTD SVG 1.1//EN" "http://www.w3.org/Graphics/SVG/1.1/DTD/svg11.dtd" >
<svg>
<metadata>
Created by FontForge 20120731 at Wed Apr 26 22:34:51 2023
 By fw_worker
</metadata>
<defs>
<font id="BrandNewHyosungOTFB" horiz-adv-x="910" >
  <font-face 
    font-family="(null)"
    font-weight="700"
    font-stretch="normal"
    units-per-em="1000"
    panose-1="2 0 8 3 0 0 0 0 0 0"
    ascent="800"
    descent="-200"
    x-height="528"
    cap-height="688"
    bbox="-40 -277 987 841"
    underline-thickness="50"
    underline-position="-100"
    stemh="-1"
    stemv="-1"
    unicode-range="U+000A-FFE6"
  />
<missing-glyph horiz-adv-x="900" 
d="M810 -100h-721v800h721v-800zM140 650v-700h619v700h-619z" />
    <glyph glyph-name=".notdef" horiz-adv-x="900" 
d="M810 -100h-721v800h721v-800zM140 650v-700h619v700h-619z" />
    <glyph glyph-name="Korea1.1" unicode=" " horiz-adv-x="280" 
 />
    <glyph glyph-name="Korea1.2" unicode="!" horiz-adv-x="415" 
d="M130 727h156l-22 -579h-115zM280 63v-146l-144 -20v166h144z" />
    <glyph glyph-name="Korea1.3" unicode="&#x22;" horiz-adv-x="491" 
d="M278 776h138l-10 -239h-118zM76 776h139l-10 -239h-119z" />
    <glyph glyph-name="Korea1.4" unicode="#" horiz-adv-x="566" 
d="M253 469l-26 -197h88l26 197h-88zM503 272v-95h-84l-27 -199h-116l26 199h-87l-27 -199h-116l26 199h-71v95h84l26 197h-73v94h85l23 161h116l-21 -161h86l23 161h116l-21 -161h68v-94h-82l-26 -197h72z" />
    <glyph glyph-name="Korea1.5" unicode="$" horiz-adv-x="566" 
d="M519 193c0 -122 -71 -191 -177 -216v-76h-101v64h-3c-74 0 -135 17 -190 38l15 125c47 -31 114 -52 171 -52h7v227c-85 37 -180 81 -180 208c0 128 80 198 180 219v78h101v-72c49 -3 98 -12 142 -26l-13 -114c-40 16 -85 27 -129 30v-222c85 -38 177 -86 177 -211z
M201 521c0 -29 16 -50 40 -67v154c-25 -16 -40 -44 -40 -87zM378 183c0 30 -15 51 -36 68v-141c21 17 36 42 36 73z" />
    <glyph glyph-name="Korea1.6" unicode="%" horiz-adv-x="930" 
d="M905 159c0 -119 -68 -194 -201 -194c-131 0 -203 76 -203 195c0 118 72 193 203 193c133 0 201 -76 201 -194zM771 160c0 46 -9 112 -67 112c-57 0 -69 -68 -69 -113c0 -46 12 -113 69 -113c58 0 67 68 67 114zM625 737h110l-424 -772h-111zM430 542
c0 -118 -66 -193 -201 -193c-130 0 -203 76 -203 195c0 118 73 193 203 193c135 0 201 -76 201 -195zM297 544c0 45 -9 112 -68 112c-56 0 -67 -68 -67 -114c0 -45 11 -112 67 -112c59 0 68 67 68 114z" />
    <glyph glyph-name="Korea1.7" unicode="&#x26;" horiz-adv-x="732" 
d="M589 123l131 -145h-168l-52 63c-52 -53 -122 -76 -198 -76c-141 0 -252 81 -252 215c0 92 43 161 154 208c-53 52 -94 97 -94 177c0 112 110 172 212 172c99 0 201 -57 201 -170c0 -98 -66 -153 -143 -196l131 -161c34 40 47 110 51 172h120c-5 -97 -40 -192 -93 -259z
M403 557c0 54 -37 82 -81 82c-42 0 -83 -30 -83 -85c0 -42 39 -82 67 -112c37 19 97 68 97 115zM434 118l-160 194c-50 -27 -91 -67 -91 -127c0 -67 57 -118 125 -118c54 0 96 21 126 51z" />
    <glyph glyph-name="Korea1.8" unicode="'" horiz-adv-x="288" 
d="M74 776h139l-10 -239h-119z" />
    <glyph glyph-name="Korea1.9" unicode="(" horiz-adv-x="343" 
d="M334 -147h-124c-101 141 -166 279 -166 456c0 189 65 313 166 456h124c-88 -143 -151 -269 -151 -456c0 -176 63 -315 151 -456z" />
    <glyph glyph-name="Korea1.10" unicode=")" horiz-adv-x="343" 
d="M298 309c0 -178 -67 -314 -167 -456h-123c87 141 152 280 152 456c0 187 -65 313 -152 456h123c101 -143 167 -267 167 -456z" />
    <glyph glyph-name="Korea1.11" unicode="*" horiz-adv-x="510" 
d="M454 642l36 -115l-163 -34l113 -128l-101 -70l-82 144l-87 -144l-100 70l115 128l-162 34l37 115l155 -66l-18 168h122l-19 -167z" />
    <glyph glyph-name="Korea1.12" unicode="+" horiz-adv-x="610" 
d="M570 416v-104h-206v-211h-118v211h-206v104h206v211h118v-211h206z" />
    <glyph glyph-name="Korea1.13" unicode="," horiz-adv-x="288" 
d="M92 82h143l-87 -255h-122z" />
    <glyph glyph-name="Korea1.14" unicode="-" horiz-adv-x="460" 
d="M416 417v-107h-371v107h371z" />
    <glyph glyph-name="Korea1.15" unicode="." horiz-adv-x="300" 
d="M220 89v-156l-142 -1v157h142z" />
    <glyph glyph-name="Korea1.16" unicode="/" horiz-adv-x="460" 
d="M295 747h123l-252 -823h-124z" />
    <glyph glyph-name="Korea1.17" unicode="0" horiz-adv-x="589" 
d="M40 182v307c0 165 90 253 254 253c165 0 255 -88 255 -253v-307c0 -165 -90 -253 -255 -253c-164 0 -254 88 -254 253zM410 214v243c0 123 -39 177 -116 177s-115 -54 -115 -177v-243c0 -123 38 -176 115 -176s116 53 116 176z" />
    <glyph glyph-name="Korea1.18" unicode="1" horiz-adv-x="589" 
d="M426 724v-770l-141 -21v679h-140v112h281z" />
    <glyph glyph-name="Korea1.19" unicode="2" horiz-adv-x="589" 
d="M537 60l-16 -113h-478v124c8 8 89 87 127 126c107 110 209 215 209 312c0 68 -47 116 -134 116h-184v113h218c149 0 241 -84 241 -231c0 -116 -95 -230 -183 -325c-41 -42 -114 -115 -122 -122h322z" />
    <glyph glyph-name="Korea1.20" unicode="3" horiz-adv-x="589" 
d="M546 167c0 -187 -120 -235 -296 -235h-204v112h186c111 0 169 41 169 126c0 100 -81 130 -177 130h-85v112h81c97 0 154 38 154 111c0 72 -41 105 -121 105l-181 1v114l211 -1c118 -1 234 -58 234 -198c0 -102 -60 -163 -137 -186v-2c94 -15 166 -85 166 -189z" />
    <glyph glyph-name="Korea1.21" unicode="4" horiz-adv-x="589" 
d="M342 92h-326v114l284 518h179v-525h104l-20 -107h-84v-138l-137 -21v159zM342 199v381h-2l-195 -381h197z" />
    <glyph glyph-name="Korea1.22" unicode="5" horiz-adv-x="589" 
d="M538 169c0 -147 -105 -236 -290 -236h-180v113h165c80 0 163 34 163 129v64c0 97 -132 125 -186 64h-124l8 421h436l-20 -108h-283l-4 -199c16 14 56 29 89 31c102 7 226 -54 226 -190v-89z" />
    <glyph glyph-name="Korea1.23" unicode="6" horiz-adv-x="589" 
d="M547 256v-113c0 -128 -105 -213 -247 -213c-138 0 -254 68 -254 213v313c0 148 79 268 243 268h224l-19 -114h-198c-82 0 -119 -64 -119 -146v-81l2 -1c38 51 84 74 148 74c141 0 220 -84 220 -200zM404 143v102c0 67 -52 104 -107 104c-57 0 -108 -36 -108 -103v-103
c0 -68 33 -104 109 -104c74 0 106 38 106 104z" />
    <glyph glyph-name="Korea1.24" unicode="7" horiz-adv-x="589" 
d="M526 724v-118l-264 -658h-152l283 664h-326v112h459z" />
    <glyph glyph-name="Korea1.25" unicode="8" horiz-adv-x="589" 
d="M294 741c135 0 243 -88 243 -192v-28c0 -79 -43 -136 -119 -170c87 -36 143 -97 143 -184v-35c0 -118 -118 -203 -267 -203c-148 0 -266 85 -266 203v35c0 87 55 148 143 184c-76 34 -119 91 -119 170v28c0 104 107 192 242 192zM294 412c65 0 105 44 105 101v31
c0 55 -39 93 -105 93c-65 0 -105 -38 -105 -93v-31c0 -57 41 -101 105 -101zM294 37c64 0 117 33 117 105v39c0 65 -52 116 -117 116c-64 0 -116 -51 -116 -116v-39c0 -72 53 -105 116 -105z" />
    <glyph glyph-name="Korea1.26" unicode="9" horiz-adv-x="589" 
d="M46 412v113c0 128 105 213 247 213c138 0 254 -68 254 -213v-313c0 -148 -79 -268 -243 -268h-224v114h216c83 0 120 64 120 146v81l-2 1c-39 -51 -84 -74 -148 -74c-141 0 -220 84 -220 200zM189 525v-102c0 -67 52 -104 106 -104c58 0 109 36 109 103v103
c0 68 -33 104 -110 104c-74 0 -105 -38 -105 -104z" />
    <glyph glyph-name="Korea1.27" unicode=":" horiz-adv-x="288" 
d="M212 593v-149h-137v149h137zM212 140v-150h-137v150h137z" />
    <glyph glyph-name="Korea1.28" unicode=";" horiz-adv-x="288" 
d="M213 593v-149h-138v149h138zM92 133h143l-87 -259h-125z" />
    <glyph glyph-name="Korea1.29" unicode="&#x3c;" horiz-adv-x="550" 
d="M494 144v-139l-447 317v87l447 317v-139l-319 -221z" />
    <glyph glyph-name="Korea1.30" unicode="=" horiz-adv-x="550" 
d="M495 532v-105h-438v105h438zM495 303v-104h-438v104h438z" />
    <glyph glyph-name="Korea1.31" unicode="&#x3e;" horiz-adv-x="550" 
d="M494 409v-87l-447 -317v139l320 222l-320 221v139z" />
    <glyph glyph-name="Korea1.32" unicode="?" horiz-adv-x="530" 
d="M503 543c0 -94 -73 -153 -127 -218c-31 -37 -53 -72 -53 -115v-61h-125v60c0 76 37 134 77 179c39 45 80 81 80 139c0 73 -61 101 -124 101c-58 0 -117 -19 -165 -44l-13 117c65 20 136 36 208 36c123 0 242 -57 242 -194zM333 63v-145l-144 -20v165h144z" />
    <glyph glyph-name="Korea1.33" unicode="@" horiz-adv-x="810" 
d="M778 430c0 -210 -186 -289 -257 -289c-28 0 -54 19 -55 55h-2c-27 -29 -64 -55 -106 -55c-86 0 -159 72 -159 171c0 136 94 252 214 252c50 0 91 -22 119 -66l13 51h85l-59 -255c-3 -13 -7 -27 -7 -38c0 -10 4 -17 16 -17c52 0 118 61 118 186c0 168 -141 220 -269 220
c-171 0 -291 -132 -291 -283c0 -169 115 -284 274 -284c83 0 168 17 235 70h85c-74 -111 -189 -162 -321 -162c-186 0 -375 127 -375 376c0 211 168 375 393 375c170 0 349 -99 349 -307zM500 382c0 49 -31 85 -78 85c-70 0 -119 -75 -119 -140c0 -50 30 -87 80 -87
c67 0 117 75 117 142z" />
    <glyph glyph-name="Korea1.34" unicode="A" horiz-adv-x="761" 
d="M456 724l302 -776h-156l-71 198h-306l-72 -198h-147l302 776h148zM380 569l-114 -311h225z" />
    <glyph glyph-name="Korea1.35" unicode="B" horiz-adv-x="646" 
d="M627 167c0 -181 -141 -219 -250 -219h-301v776h281c108 0 224 -48 225 -202c1 -90 -52 -151 -142 -168v-2c110 -13 187 -90 187 -185zM446 507c0 81 -56 105 -121 105h-107v-205h94c65 0 134 22 134 100zM485 180c0 102 -86 119 -164 119h-103v-239h129
c76 0 138 30 138 120z" />
    <glyph glyph-name="Korea1.36" unicode="C" horiz-adv-x="646" 
d="M580 -56h-208c-212 0 -316 96 -316 299v182c0 197 117 299 313 299h201v-117h-182c-131 0 -191 -63 -191 -203v-139c0 -122 39 -205 190 -205h213z" />
    <glyph glyph-name="Korea1.37" unicode="D" horiz-adv-x="761" 
d="M698 337c0 -271 -109 -389 -360 -389h-255v776h255c247 0 360 -121 360 -387zM549 336c0 179 -66 274 -190 274h-134v-547h132c128 0 192 91 192 273z" />
    <glyph glyph-name="Korea1.38" unicode="E" horiz-adv-x="600" 
d="M545 63l-20 -115h-458v776h466v-114h-324v-203h300v-116h-300v-228h336z" />
    <glyph glyph-name="Korea1.39" unicode="F" horiz-adv-x="530" 
d="M510 724v-114h-290v-203h278v-116h-278v-333l-143 -20v786h433z" />
    <glyph glyph-name="Korea1.40" unicode="G" horiz-adv-x="662" 
d="M469 -58h-85c-222 0 -328 95 -328 296v190c0 194 109 296 327 296h214l-21 -117h-184c-146 0 -195 -78 -195 -200v-147c0 -130 40 -202 191 -202h81v217h-129v112h266v-425z" />
    <glyph glyph-name="Korea1.41" unicode="H" horiz-adv-x="761" 
d="M678 734v-775l-141 -21v352h-312v-331l-142 -21v776l142 20v-327h312v307z" />
    <glyph glyph-name="Korea1.42" unicode="I" horiz-adv-x="324" 
d="M233 734v-776l-141 -20v776z" />
    <glyph glyph-name="Korea1.43" unicode="J" horiz-adv-x="415" 
d="M338 734v-605c0 -89 -52 -194 -204 -194h-111v125h73c90 0 101 62 101 136v518z" />
    <glyph glyph-name="Korea1.44" unicode="K" horiz-adv-x="704" 
d="M375 386l323 -438h-179l-235 334l-57 -63v-261l-142 -20v776l142 20v-326l271 316h175z" />
    <glyph glyph-name="Korea1.45" unicode="L" horiz-adv-x="530" 
d="M521 63l-20 -115h-414v766l142 20v-671h292z" />
    <glyph glyph-name="Korea1.46" unicode="M" horiz-adv-x="951" 
d="M874 724v-766l-136 -20v672l-188 -651l-137 -17l-194 668v-652l-135 -20v786h227l169 -612l167 612h227z" />
    <glyph glyph-name="Korea1.47" unicode="N" horiz-adv-x="776" 
d="M695 -72h-136l-339 559l3 -549l-139 -20v806h133l343 -556l-4 546l139 20v-806z" />
    <glyph glyph-name="Korea1.48" unicode="O" horiz-adv-x="703" 
d="M63 186v278c0 166 133 274 290 274c155 0 288 -108 288 -274v-278c0 -166 -133 -274 -288 -274c-157 0 -290 108 -290 274zM204 452v-251c0 -101 52 -171 148 -171s148 70 148 171v251c0 101 -52 171 -148 171s-148 -70 -148 -171z" />
    <glyph glyph-name="Korea1.49" unicode="P" horiz-adv-x="643" 
d="M620 496c0 -173 -104 -237 -260 -237h-132v-301l-142 -20v786h252c161 0 282 -52 282 -228zM475 490c0 89 -50 120 -125 120h-122v-238h124c74 0 123 27 123 118z" />
    <glyph glyph-name="Korea1.50" unicode="Q" horiz-adv-x="718" 
d="M62 186v278c0 166 135 274 296 274c159 0 294 -108 294 -274v-278c0 -83 -34 -152 -87 -199l109 -151h-153l-62 92c-32 -10 -66 -16 -101 -16c-161 0 -296 108 -296 274zM203 452v-251c0 -101 54 -171 154 -171c11 0 22 0 32 2l-108 163h133l71 -99c17 28 26 64 26 105
v251c0 101 -54 171 -154 171s-154 -70 -154 -171z" />
    <glyph glyph-name="Korea1.51" unicode="R" horiz-adv-x="646" 
d="M521 238l117 -294h-151l-98 256c-23 59 -55 74 -80 74h-92v-316l-141 -20v786h283c144 0 235 -65 235 -206c0 -91 -60 -168 -143 -188v-3c33 -10 60 -62 70 -89zM458 501c0 86 -57 109 -109 109h-132v-223h108c73 0 133 31 133 114z" />
    <glyph glyph-name="Korea1.52" unicode="S" horiz-adv-x="600" 
d="M249 398h137c110 0 188 -88 188 -212c0 -163 -112 -238 -277 -238h-257v115h245c89 0 147 32 147 116c0 64 -33 105 -83 105h-123c-116 0 -200 88 -200 208c0 159 90 232 256 232h241l-21 -114h-208c-79 0 -127 -31 -127 -111c0 -64 29 -101 82 -101z" />
    <glyph glyph-name="Korea1.53" unicode="T" horiz-adv-x="589" 
d="M582 724l-20 -114h-198v-652l-140 -20v672h-217v114h575z" />
    <glyph glyph-name="Korea1.54" unicode="U" horiz-adv-x="761" 
d="M684 734v-506c0 -203 -111 -293 -301 -293c-192 0 -303 90 -303 293v486l142 20v-466c0 -132 41 -218 161 -218c118 0 160 86 160 218v446z" />
    <glyph glyph-name="Korea1.55" unicode="V" horiz-adv-x="704" 
d="M556 724h142l-256 -776h-174l-259 776h153l197 -631z" />
    <glyph glyph-name="Korea1.56" unicode="W" horiz-adv-x="988" 
d="M849 724h138l-175 -776h-185l-128 636h-2l-137 -636h-177l-177 776h150l123 -633h2l121 633h195l125 -633h2z" />
    <glyph glyph-name="Korea1.57" unicode="X" horiz-adv-x="704" 
d="M449 352l249 -404h-169l-180 310l-178 -310h-162l248 404l-226 372h167l161 -284l164 284h154z" />
    <glyph glyph-name="Korea1.58" unicode="Y" horiz-adv-x="704" 
d="M545 724h152l-271 -454v-313l-140 -19v334l-276 452h168l181 -320z" />
    <glyph glyph-name="Korea1.59" unicode="Z" horiz-adv-x="589" 
d="M563 63l-20 -115h-507v118l348 544h-334v114h485v-118l-348 -543h376z" />
    <glyph glyph-name="Korea1.60" unicode="[" horiz-adv-x="343" 
d="M302 -51v-96h-223v912h223v-96h-100v-720h100z" />
    <glyph glyph-name="Korea1.61" unicode="\" horiz-adv-x="460" 
d="M166 737l252 -823h-123l-253 823h124z" />
    <glyph glyph-name="Korea1.62" unicode="]" horiz-adv-x="343" 
d="M264 765v-912h-224v96h100v720h-100v96h224z" />
    <glyph glyph-name="Korea1.63" unicode="^" horiz-adv-x="510" 
d="M303 756l186 -276h-145l-89 168l-88 -168h-145l186 276h95z" />
    <glyph glyph-name="Korea1.64" unicode="_" horiz-adv-x="460" 
d="M462 -107v-93h-464v93h464z" />
    <glyph glyph-name="Korea1.65" unicode="`" horiz-adv-x="288" 
d="M177 759l96 -172h-109l-142 172h155z" />
    <glyph glyph-name="Korea1.66" unicode="a" horiz-adv-x="638" 
d="M270 -65c-125 -3 -235 75 -235 214v175c0 139 107 217 234 214c81 -2 130 -33 172 -86v73l134 20v-598l-130 -20v90c-40 -56 -106 -80 -175 -82zM440 309c-1 64 -55 121 -140 124c-65 2 -124 -41 -124 -114v-166c0 -73 55 -114 119 -112c104 3 148 75 147 156z" />
    <glyph glyph-name="Korea1.67" unicode="b" horiz-adv-x="646" 
d="M378 -65c-69 1 -135 26 -175 82v-70l-130 -20v808l134 20v-303c42 53 91 84 172 86c127 3 234 -75 234 -214v-175c0 -139 -110 -216 -235 -214zM208 311l-2 -114c-1 -81 44 -155 149 -157c64 -1 117 40 117 113v166c0 73 -58 117 -121 115c-82 -2 -142 -59 -143 -123z
" />
    <glyph glyph-name="Korea1.68" unicode="c" horiz-adv-x="524" 
d="M44 315c0 147 105 231 253 231h170v-106h-156c-66 0 -126 -45 -126 -134v-128c0 -75 38 -130 124 -130h175l-20 -106h-169c-162 0 -251 95 -251 231v142z" />
    <glyph glyph-name="Korea1.69" unicode="d" horiz-adv-x="646" 
d="M272 -65c-125 -3 -237 75 -237 214v175c0 139 109 217 236 214c81 -2 129 -33 170 -86v283l134 20v-808l-130 -20v90c-39 -56 -104 -80 -173 -82zM440 311c-1 64 -55 122 -145 123c-67 1 -119 -42 -119 -115v-166c0 -73 47 -115 115 -113c105 3 152 74 151 157z" />
    <glyph glyph-name="Korea1.70" unicode="e" horiz-adv-x="589" 
d="M546 192h-376v-36c0 -80 40 -112 140 -112h211l-20 -102h-197c-174 0 -261 79 -261 219v150c0 124 102 235 259 235c139 0 244 -94 244 -229v-125zM170 302v-16h250v33c0 80 -45 125 -118 125c-88 0 -132 -58 -132 -142z" />
    <glyph glyph-name="Korea1.71" unicode="f" horiz-adv-x="415" 
d="M21 511h99v73c0 118 56 196 177 196h95v-107h-68c-55 0 -69 -44 -69 -95v-67h147l-20 -102h-127v-453l-135 -20v473h-99v102z" />
    <glyph glyph-name="Korea1.72" unicode="g" horiz-adv-x="615" 
d="M283 -27c-125 -3 -237 75 -237 214v145c0 139 109 217 236 214c63 -1 119 -27 155 -91v67l128 21v-526c0 -151 -64 -256 -287 -256h-191v105h178c126 0 162 59 164 144l1 50c-30 -50 -82 -85 -147 -87zM300 78c67 2 127 44 128 109l2 134c1 70 -57 119 -126 121
c-63 2 -117 -42 -117 -115v-136c0 -73 49 -115 113 -113z" />
    <glyph glyph-name="Korea1.73" unicode="h" horiz-adv-x="646" 
d="M207 755v-305c38 55 101 87 178 88c133 2 191 -93 191 -223v-357l-135 -21v326c0 80 -9 171 -99 167c-94 -4 -135 -108 -135 -192v-280l-135 -21v797z" />
    <glyph glyph-name="Korea1.74" unicode="i" horiz-adv-x="300" 
d="M217 755v-134h-136v134h136zM216 524v-567l-134 -20v587h134z" />
    <glyph glyph-name="Korea1.75" unicode="j" horiz-adv-x="310" 
d="M228 755v-134h-137v134h137zM227 524v-569c0 -106 -14 -202 -152 -202h-73v109h38c34 0 53 28 53 107v555h134z" />
    <glyph glyph-name="Korea1.76" unicode="k" horiz-adv-x="589" 
d="M346 292l232 -345h-160l-157 249l-53 -61v-178l-135 -20v798l135 20v-454l181 223h163z" />
    <glyph glyph-name="Korea1.77" unicode="l" horiz-adv-x="300" 
d="M217 755v-798l-134 -20v798z" />
    <glyph glyph-name="Korea1.78" unicode="m" horiz-adv-x="935" 
d="M874 328v-363l-136 -20v363c0 55 -3 132 -86 132c-97 0 -114 -113 -114 -192v-283l-134 -20v363c0 55 -4 132 -87 132c-97 0 -114 -113 -114 -192v-283l-135 -20v577l126 20v-88c46 68 110 92 168 92c74 0 131 -31 161 -101c34 70 108 101 173 101
c136 0 178 -94 178 -218z" />
    <glyph glyph-name="Korea1.79" unicode="n" horiz-adv-x="646" 
d="M583 324v-358l-135 -20v326c0 80 -6 169 -106 169c-116 1 -146 -110 -146 -194v-281l-135 -20v577l129 20v-88c47 65 119 92 197 92c137 0 196 -93 196 -223z" />
    <glyph glyph-name="Korea1.80" unicode="o" horiz-adv-x="616" 
d="M565 327v-175c0 -126 -97 -214 -257 -214s-256 88 -256 214v175c0 127 96 219 256 219s257 -92 257 -219zM432 164v152c0 74 -44 126 -124 126s-123 -52 -123 -126v-152c0 -71 43 -122 123 -122s124 51 124 122z" />
    <glyph glyph-name="Korea1.81" unicode="p" horiz-adv-x="646" 
d="M73 522l129 20l1 -86c37 63 93 88 156 90c127 5 234 -75 234 -214v-145c0 -139 -110 -217 -235 -214c-68 2 -123 40 -153 94l2 -296l-134 -20v771zM341 78c64 -2 111 40 111 113v136c0 73 -52 117 -115 115c-69 -2 -129 -51 -128 -121l2 -134c1 -65 63 -107 130 -109z
" />
    <glyph glyph-name="Korea1.82" unicode="q" horiz-adv-x="646" 
d="M446 522l129 20v-771l-134 -20l2 316c-30 -54 -85 -92 -153 -94c-125 -3 -235 75 -235 214v145c0 139 107 219 234 214c63 -2 119 -27 156 -90zM307 78c67 2 129 44 130 109l2 134c1 70 -59 119 -128 121c-63 2 -115 -42 -115 -115v-136c0 -73 47 -115 111 -113z" />
    <glyph glyph-name="Korea1.83" unicode="r" horiz-adv-x="415" 
d="M388 546v-129h-12c-115 0 -166 -88 -166 -199v-252l-135 -21v577l120 21v-118c18 68 93 121 181 121h12z" />
    <glyph glyph-name="Korea1.84" unicode="s" horiz-adv-x="544" 
d="M248 297l96 -1c92 -1 158 -71 158 -169c0 -122 -94 -185 -216 -185h-245v104h225c66 0 107 28 107 78c0 47 -24 73 -69 73l-110 1c-86 1 -151 73 -151 164c0 120 78 174 201 174h222l-21 -104h-187c-56 0 -86 -18 -86 -65s29 -70 76 -70z" />
    <glyph glyph-name="Korea1.85" unicode="t" horiz-adv-x="415" 
d="M19 527h92v117l136 29v-146h149l-20 -104h-129v-286c0 -51 18 -94 70 -94h80l-20 -106h-92c-111 0 -174 66 -174 176v310h-92v104z" />
    <glyph glyph-name="Korea1.86" unicode="u" horiz-adv-x="646" 
d="M575 543v-577l-129 -21v88c-42 -55 -107 -91 -183 -91c-133 0 -190 92 -190 221v359l135 21v-328c0 -80 6 -167 98 -167c106 -1 134 110 134 193v281z" />
    <glyph glyph-name="Korea1.87" unicode="v" horiz-adv-x="589" 
d="M443 533h134l-205 -577h-153l-207 577h145l145 -435h2z" />
    <glyph glyph-name="Korea1.88" unicode="w" horiz-adv-x="914" 
d="M779 533h130l-173 -577h-153l-123 460l-120 -460h-154l-181 577h143l123 -450l114 450h157l122 -448z" />
    <glyph glyph-name="Korea1.89" unicode="x" horiz-adv-x="589" 
d="M386 258l193 -302h-161l-129 221l-131 -221h-148l197 302l-177 275h161l112 -195l111 195h143z" />
    <glyph glyph-name="Korea1.90" unicode="y" horiz-adv-x="589" 
d="M442 528h136l-211 -554c-41 -109 -85 -217 -225 -217h-85v105h68c64 0 100 66 107 113l-220 553h148l142 -403z" />
    <glyph glyph-name="Korea1.91" unicode="z" horiz-adv-x="530" 
d="M506 83l-20 -105h-449v104l277 345h-264v106h434v-102l-276 -348h298z" />
    <glyph glyph-name="Korea1.92" unicode="{" horiz-adv-x="343" 
d="M330 -45v-81h-78c-72 0 -144 46 -144 138v160c0 78 -47 105 -86 105v85c39 0 86 26 86 99v165c0 95 75 139 144 139h78v-81h-47c-46 0 -52 -32 -52 -77v-161c0 -97 -70 -122 -111 -126v-2c41 -4 111 -22 111 -132v-154c0 -47 6 -77 52 -77h47z" />
    <glyph glyph-name="Korea1.93" unicode="|" horiz-adv-x="310" 
d="M210 764v-890h-110v890h110z" />
    <glyph glyph-name="Korea1.94" unicode="}" horiz-adv-x="343" 
d="M320 362v-85c-38 0 -86 -27 -86 -104v-161c0 -95 -71 -138 -144 -138h-78v81h48c45 0 51 30 51 77v155c0 108 71 127 111 131v2c-40 4 -111 28 -111 126v161c0 45 -6 77 -51 77h-48v81h78c73 0 144 -44 144 -139v-164c0 -74 48 -100 86 -100z" />
    <glyph glyph-name="Korea1.95" unicode="~" horiz-adv-x="566" 
d="M504 455l49 -87c-24 -49 -78 -112 -141 -112c-51 0 -90 17 -129 36c-40 18 -75 36 -121 36c-53 0 -79 -37 -98 -75l-50 88c24 44 74 111 148 111c52 0 91 -18 128 -34c41 -19 80 -39 119 -39c38 0 73 35 95 76z" />
    <glyph glyph-name="Korea1.96" unicode="&#x20a9;" 
d="M908 366h-82l-79 -398h-177l-74 398h-84l-78 -398h-171l-79 398h-82v86h64l-53 262h145l41 -262h118l47 262h186l48 -262h121l43 262h134l-53 -262h65v-86zM303 366h-90l42 -261h2zM705 366h-92l48 -261h2zM430 452h50l-23 127h-3z" />
    <glyph glyph-name="Korea1.97" unicode="&#x2010;" 
 />
    <glyph glyph-name="Korea1.98" unicode="&#xa9;" 
d="M455 -92c-224 0 -402 159 -402 401c0 240 178 401 402 401s402 -161 402 -401c0 -242 -178 -401 -402 -401zM455 0c170 0 292 136 292 309c0 172 -122 308 -292 308s-292 -136 -292 -308c0 -173 122 -309 292 -309zM537 202h117c-5 -84 -98 -157 -183 -157
c-155 0 -235 103 -235 270c0 165 80 267 234 267c94 0 184 -87 184 -160h-117c-6 30 -34 66 -79 66c-69 0 -103 -64 -103 -173c0 -105 35 -176 107 -176c35 0 66 27 75 63z" />
    <glyph glyph-name="Korea1.99" 
 />
    <glyph glyph-name="Korea1.100" 
 />
    <glyph glyph-name="Korea1.101" unicode="&#x3000;" 
 />
    <glyph glyph-name="Korea1.102" unicode="&#x3001;" 
d="M36 66c12 10 35 3 55 -9c52 -29 95 -66 122 -110c16 -27 24 -88 -22 -106c-44 -17 -67 25 -69 64c-2 46 -28 85 -77 120c-9 7 -23 27 -9 41z" />
    <glyph glyph-name="Korea1.103" unicode="&#x3002;" 
d="M150 80c69 0 124 -53 124 -120s-55 -120 -124 -120c-68 0 -123 53 -123 120s55 120 123 120zM150 -94c29 0 54 26 54 54s-25 54 -54 54c-28 0 -53 -26 -53 -54s25 -54 53 -54z" />
    <glyph glyph-name="Korea1.104" unicode="&#x30fb;" 
 />
    <glyph glyph-name="Korea1.105" unicode="&#x2025;" 
d="M316 324c0 -47 -32 -80 -84 -80c-46 0 -80 34 -80 80c0 48 36 80 85 80c47 0 79 -35 79 -80zM765 324c0 -47 -34 -80 -85 -80c-47 0 -79 34 -79 80c0 48 33 80 84 80c46 0 80 -35 80 -80z" />
    <glyph glyph-name="Korea1.106" unicode="&#x2026;" 
d="M235 324c0 -47 -34 -80 -85 -80c-46 0 -80 34 -80 80c0 48 35 80 84 80c47 0 81 -35 81 -80zM538 324c0 -47 -34 -80 -85 -80c-46 0 -80 34 -80 80c0 48 35 80 84 80c47 0 81 -35 81 -80zM840 324c0 -47 -34 -80 -85 -80c-46 0 -80 34 -80 80c0 48 35 80 84 80
c47 0 81 -35 81 -80z" />
    <glyph glyph-name="Korea1.107" unicode="&#xa8;" horiz-adv-x="450" 
d="M118 670c-46 0 -79 31 -79 74s33 75 79 75s77 -32 77 -75s-31 -74 -77 -74zM333 670c-46 0 -78 31 -78 74s32 75 78 75s78 -32 78 -75s-32 -74 -78 -74z" />
    <glyph glyph-name="Korea1.108" unicode="&#x3003;" 
d="M428 229l83 197c8 19 29 43 67 39c43 -5 45 -51 33 -70l-131 -189c-8 -11 -25 -27 -43 -20c-16 6 -15 26 -9 43zM276 241l83 197c8 19 29 43 66 39c44 -5 47 -51 32 -70l-132 -189c-7 -11 -22 -27 -40 -20c-17 6 -16 25 -9 43z" />
    <glyph glyph-name="Korea1.109" unicode="&#x2013;" 
 />
    <glyph glyph-name="Korea1.110" unicode="&#x2014;" 
 />
    <glyph glyph-name="Korea1.111" unicode="&#x2016;" 
 />
    <glyph glyph-name="Korea1.112" unicode="&#xff3c;" 
d="M391 737l252 -823h-123l-253 823h124z" />
    <glyph glyph-name="Korea1.113" unicode="&#xff5e;" 
d="M676 455l49 -87c-24 -49 -78 -112 -141 -112c-51 0 -90 17 -129 36c-40 18 -75 36 -121 36c-53 0 -79 -37 -98 -75l-50 88c24 44 74 111 148 111c52 0 91 -18 128 -34c41 -19 80 -39 119 -39c38 0 73 35 95 76z" />
    <glyph glyph-name="Korea1.114" unicode="&#x2018;" horiz-adv-x="310" 
d="M193 675c39 -5 65 -36 65 -74s-38 -72 -77 -72c-57 0 -89 53 -89 102c0 34 13 74 36 103c23 30 61 58 91 71l32 -33c-33 -16 -61 -44 -69 -60c-5 -9 -7 -17 -7 -24c0 -4 4 -11 18 -13z" />
    <glyph glyph-name="Korea1.115" unicode="&#x2019;" horiz-adv-x="310" 
d="M111 619c-39 5 -65 36 -65 74s38 72 77 72c57 0 89 -53 89 -102c0 -34 -13 -74 -36 -103c-24 -30 -61 -58 -91 -71l-34 33c35 16 63 44 71 60c5 9 7 17 7 23c0 5 -4 12 -18 14z" />
    <glyph glyph-name="Korea1.116" unicode="&#x201c;" horiz-adv-x="460" 
d="M358 672c39 -5 63 -36 63 -74s-36 -72 -76 -72c-56 0 -88 53 -88 102c0 34 12 74 36 103c22 30 60 58 91 71l32 -33c-33 -16 -62 -44 -70 -60c-5 -9 -7 -17 -7 -24c0 -4 4 -11 19 -13zM173 672c38 -5 63 -36 63 -74s-37 -72 -76 -72c-57 0 -88 53 -88 102
c0 34 12 74 35 103c23 30 61 58 91 71l33 -33c-34 -16 -62 -44 -70 -60c-5 -9 -8 -17 -8 -24c0 -4 5 -11 20 -13z" />
    <glyph glyph-name="Korea1.117" unicode="&#x201d;" horiz-adv-x="460" 
d="M104 619c-39 5 -64 36 -64 74s37 72 76 72c57 0 89 -53 89 -102c0 -34 -12 -74 -36 -103c-23 -30 -61 -58 -91 -71l-33 33c34 16 62 44 70 60c5 9 7 17 7 23c0 5 -4 12 -18 14zM289 619c-39 5 -64 36 -64 74s38 72 77 72c57 0 88 -53 88 -102c0 -34 -12 -74 -36 -103
c-23 -30 -60 -58 -90 -71l-34 33c35 16 62 44 71 60c5 9 7 17 7 23c0 5 -4 12 -19 14z" />
    <glyph glyph-name="Korea1.118" unicode="&#x3014;" 
d="M870 -180l-357 105v761l357 93v-110l-245 -65v-598l245 -71v-115z" />
    <glyph glyph-name="Korea1.119" unicode="&#x3015;" 
d="M401 -75l-358 -105v115l246 71v598l-246 65v110l358 -93v-761z" />
    <glyph glyph-name="Korea1.120" unicode="&#x3008;" 
d="M893 720l-242 -420l240 -415l-80 -49l-265 464l264 466z" />
    <glyph glyph-name="Korea1.121" unicode="&#x3009;" 
d="M26 -115l240 415l-242 420l82 46l265 -466l-265 -464z" />
    <glyph glyph-name="Korea1.122" unicode="&#x300a;" 
d="M585 295l235 451h67l-235 -451l235 -447h-66zM481 295l236 451h66l-237 -451l237 -447h-66z" />
    <glyph glyph-name="Korea1.123" unicode="&#x300b;" 
d="M129 -152l236 447l-236 451h66l235 -451l-235 -447h-66zM25 -152l237 447l-237 451h66l236 -451l-236 -447h-66z" />
    <glyph glyph-name="Korea1.124" unicode="&#x300c;" 
d="M887 721h-257v-390h-70v458h327v-68z" />
    <glyph glyph-name="Korea1.125" unicode="&#x300d;" 
d="M347 -189h-326v68h258v390h68v-458z" />
    <glyph glyph-name="Korea1.126" unicode="&#x300e;" 
d="M883 661h-196v-330h-132v458h328v-128zM615 731v-342h13v330h195v12h-208z" />
    <glyph glyph-name="Korea1.127" unicode="&#x300f;" 
d="M227 269h131v-458h-327v128h196v330zM287 211v-330h-196v-12h208v342h-12z" />
    <glyph glyph-name="Korea1.128" unicode="&#x3010;" 
d="M888 -180h-386v959h385c-160 -101 -268 -279 -268 -479c0 -201 108 -378 269 -480z" />
    <glyph glyph-name="Korea1.129" unicode="&#x3011;" 
d="M414 780v-959h-386c161 102 269 279 269 480c0 200 -108 378 -268 479h385z" />
    <glyph glyph-name="Korea1.130" unicode="&#xb1;" horiz-adv-x="600" 
d="M555 68v-98h-510v98h510zM553 432v-102h-191v-198h-113v198h-192v102h192v196h113v-196h191z" />
    <glyph glyph-name="Korea1.131" unicode="&#xd7;" horiz-adv-x="600" 
d="M371 358l184 -178l-74 -87l-187 187l-175 -176l-82 77l180 175l-174 173l81 80l169 -174l169 169l79 -75z" />
    <glyph glyph-name="Korea1.132" unicode="&#xf7;" horiz-adv-x="600" 
d="M299 629c50 0 83 -40 83 -83c0 -47 -37 -80 -81 -80c-49 0 -84 31 -84 80c0 43 34 83 82 83zM580 396v-106h-560v106h560zM217 138c0 45 34 82 82 82c50 0 84 -37 84 -82c0 -43 -39 -82 -82 -82c-46 0 -84 34 -84 82z" />
    <glyph glyph-name="Korea1.133" unicode="&#x2260;" 
d="M398 161l-156 -194l-76 59l109 135h-151v90h223l103 127h-326v90h396l147 180l74 -59l-98 -121h147v-90h-217l-103 -127h320v-90h-392z" />
    <glyph glyph-name="Korea1.134" unicode="&#x2264;" 
d="M366 434l384 -200l-53 -95l-550 274c-8 4 -20 13 -20 20c0 8 10 15 20 20l539 272l48 -97zM771 89v-107h-643v107h643z" />
    <glyph glyph-name="Korea1.135" unicode="&#x2265;" 
d="M201 139l-54 95l386 200l-369 194l48 97l538 -272c10 -5 21 -12 21 -20c0 -7 -12 -16 -21 -20zM770 -18h-643v107h643v-107z" />
    <glyph glyph-name="Korea1.136" unicode="&#x221e;" 
d="M638 119c-95 0 -154 64 -181 103c-25 -39 -85 -103 -179 -103c-109 0 -198 80 -198 181c0 100 89 181 198 181c94 0 152 -64 179 -103c27 39 86 103 181 103c107 0 196 -81 196 -181c0 -101 -89 -181 -196 -181zM278 404c-64 0 -114 -46 -114 -104s50 -104 114 -104
c73 0 116 79 127 104c-11 25 -54 104 -127 104zM638 196c62 0 113 47 113 104s-51 104 -113 104c-75 0 -118 -79 -129 -104c11 -25 54 -104 129 -104z" />
    <glyph glyph-name="Korea1.137" unicode="&#x2234;" 
d="M181 -3c-45 0 -85 40 -85 86s40 85 85 85c48 0 87 -39 87 -85s-39 -86 -87 -86zM731 -3c-45 0 -84 40 -84 86s39 85 84 85c48 0 87 -39 87 -85s-39 -86 -87 -86zM455 438c-43 0 -84 40 -84 86s41 85 84 85c50 0 89 -39 89 -85s-39 -86 -89 -86z" />
    <glyph glyph-name="Korea1.138" unicode="&#xb0;" horiz-adv-x="450" 
d="M225 584c-75 0 -134 56 -134 128c0 71 59 129 134 129s134 -58 134 -129c0 -72 -59 -128 -134 -128zM225 666c25 0 47 20 47 46s-22 47 -47 47s-47 -21 -47 -47s22 -46 47 -46z" />
    <glyph glyph-name="Korea1.139" unicode="&#x2032;" 
d="M150 592l57 144c9 24 40 43 66 28c36 -22 19 -60 0 -92c-24 -37 -54 -69 -80 -104c-20 -27 -55 -6 -43 24z" />
    <glyph glyph-name="Korea1.140" unicode="&#x2033;" 
d="M372 677l-113 -140c-21 -27 -61 -5 -49 24l70 167c12 29 51 45 75 28c30 -16 37 -56 17 -79zM231 696l-110 -140c-19 -27 -58 -5 -48 24l68 167c15 29 52 46 79 28c28 -15 32 -55 11 -79z" />
    <glyph glyph-name="Korea1.141" unicode="&#x2103;" 
d="M165 731c64 0 119 -53 119 -116s-55 -116 -119 -116c-66 0 -121 53 -121 116s55 116 121 116zM722 134h124c-22 -113 -115 -246 -294 -246c-191 0 -310 150 -310 362c0 213 119 362 310 362c181 0 274 -141 292 -236h-123c-17 57 -65 129 -167 129
c-117 0 -192 -102 -192 -255c0 -152 75 -255 192 -255c97 0 152 72 168 139zM165 566c28 0 50 21 50 49s-22 49 -50 49c-30 0 -51 -21 -51 -49s21 -49 51 -49z" />
    <glyph glyph-name="Korea1.142" unicode="&#x212b;" 
d="M451 781c65 0 120 -53 120 -116s-55 -116 -120 -116c-64 0 -119 53 -119 116s55 116 119 116zM451 616c30 0 50 21 50 49s-20 49 -50 49c-29 0 -51 -21 -51 -49s22 -49 51 -49zM593 29h-291l-56 -136h-116l251 629h135l253 -628h-119zM339 124h216l-106 275z" />
    <glyph glyph-name="Korea1.143" unicode="&#xffe0;" 
d="M748 732l90 -74l-114 -128c16 -35 24 -71 26 -131h-111l-4 30c-71 -79 -235 -260 -298 -324c30 -24 58 -35 92 -38c62 -5 115 8 153 41c29 26 47 68 55 147h114c-19 -114 -31 -151 -67 -196c-96 -115 -298 -135 -416 -42l-38 -44l-71 -78l-82 72l120 137
c-38 70 -53 149 -53 215c0 215 125 363 319 359c81 -2 141 -23 187 -57zM277 196l296 336c-27 24 -57 37 -92 39c-160 13 -222 -116 -223 -257c0 -41 6 -81 19 -118z" />
    <glyph glyph-name="Korea1.144" unicode="&#xffe1;" 
d="M695 144l113 -14c-47 -152 -132 -229 -246 -229c-55 0 -104 20 -164 61c-43 -40 -87 -57 -137 -57c-81 0 -150 48 -150 119c0 66 57 109 134 109c40 0 74 -8 119 -34c4 15 5 27 5 44c0 40 -8 74 -27 118h-204v89h157c-29 58 -38 97 -38 142c0 125 87 206 219 206
c124 0 221 -66 248 -231c-25 -5 -56 -10 -83 -14l-20 -4c-26 116 -73 156 -146 156c-70 0 -114 -40 -114 -107c0 -40 24 -88 57 -148h254v-89h-216c14 -44 20 -73 20 -103c0 -39 -6 -74 -24 -117c42 -24 74 -37 113 -37c55 0 93 33 130 140zM263 1c17 0 40 7 55 18
c-31 19 -48 22 -70 22c-25 0 -39 -4 -39 -12c0 -12 19 -28 54 -28z" />
    <glyph glyph-name="Korea1.145" unicode="&#xffe5;" 
d="M513 -93h-127v195h-222v93h222v68l-8 12h-214v93h153l-203 314h144l191 -303l192 303h143l-202 -314h153v-93h-214l-8 -12v-68h222v-93h-222v-195z" />
    <glyph glyph-name="Korea1.146" unicode="&#x2642;" 
d="M810 481l-71 -84l-230 195v-264c120 -25 207 -117 207 -228c0 -130 -117 -233 -261 -233c-141 0 -259 103 -259 233c0 110 86 201 203 227v256l-217 -201l-77 74l348 313zM608 100c0 72 -68 133 -153 133c-84 0 -150 -61 -150 -133s66 -133 150 -133c85 0 153 61 153 133
z" />
    <glyph glyph-name="Korea1.147" unicode="&#x2640;" 
d="M806 134h-294v-257h-107v257h-296v101h296v51c-121 25 -208 116 -208 228c0 130 117 233 258 233c145 0 261 -103 261 -233c0 -110 -86 -201 -204 -227v-52h294v-101zM608 514c0 73 -66 133 -153 133c-84 0 -150 -60 -150 -133c0 -72 66 -133 150 -133
c87 0 153 61 153 133z" />
    <glyph glyph-name="Korea1.148" unicode="&#x2220;" 
d="M852 48v-96h-738c-40 0 -64 35 -37 69c5 7 11 12 17 18l635 623l76 -68l-560 -546h607z" />
    <glyph glyph-name="Korea1.149" unicode="&#x22a5;" 
d="M512 620v-562h312v-92h-732v92h310v562h110z" />
    <glyph glyph-name="Korea1.150" unicode="&#x2312;" 
d="M820 551h-85c-27 113 -147 181 -289 181c-141 0 -257 -67 -286 -181h-85c30 147 184 246 371 246c188 0 344 -99 374 -246z" />
    <glyph glyph-name="Korea1.151" unicode="&#x2202;" 
d="M414 536l-106 52c20 40 28 54 46 72c41 37 90 59 138 59c109 0 184 -89 184 -214c0 -102 -49 -273 -110 -380c-42 -75 -106 -120 -175 -120c-54 0 -109 25 -140 64c-20 25 -29 60 -29 101c0 154 102 283 220 283c43 0 74 -15 111 -56c14 60 18 84 18 118
c0 59 -29 98 -74 98c-34 0 -55 -19 -83 -77zM497 273c0 45 -25 80 -58 80c-23 0 -45 -16 -69 -45c-30 -39 -43 -77 -43 -126c0 -45 23 -74 62 -74c27 0 51 16 73 53c21 37 35 79 35 112z" />
    <glyph glyph-name="Korea1.152" unicode="&#x2207;" 
d="M917 675l-460 -771l-460 771h920zM793 607h-672l336 -563z" />
    <glyph glyph-name="Korea1.153" unicode="&#x2261;" 
d="M800 412h-685v87h685v-87zM800 256h-686v88h686v-88zM800 101h-686v87h686v-87z" />
    <glyph glyph-name="Korea1.154" unicode="&#x2252;" 
d="M80 334v93h754v-93h-754zM80 173v93h754v-93h-754zM172 554c0 48 36 85 87 85c50 0 86 -37 86 -85c0 -47 -36 -85 -86 -85c-51 0 -87 38 -87 85zM571 47c0 46 37 85 86 85s86 -39 86 -85c0 -47 -37 -85 -86 -85s-86 38 -86 85z" />
    <glyph glyph-name="Korea1.155" unicode="&#xa7;" 
d="M658 -19c0 -83 -84 -137 -176 -137c-103 0 -204 62 -204 150c0 40 27 72 70 72c41 0 67 -33 67 -69c0 -15 -8 -28 -8 -42c0 -10 19 -34 64 -34c48 0 75 29 75 48c0 12 -2 18 -7 23c-10 13 -49 48 -96 81c-68 49 -124 97 -150 129c-25 28 -38 62 -38 96
c0 58 40 112 94 128c-52 49 -81 98 -81 146c0 88 83 157 177 157c100 0 187 -67 187 -157c0 -39 -24 -74 -67 -74c-44 0 -69 35 -69 74c0 15 9 27 9 41c0 9 -20 33 -62 33c-48 0 -69 -23 -69 -54c0 -30 22 -63 127 -144c107 -82 147 -126 147 -194c0 -57 -35 -108 -86 -127
c44 -35 96 -81 96 -146zM535 229c0 20 -8 35 -28 60c-22 24 -52 45 -80 63c-2 1 -2 2 -2 2h-9c-34 0 -54 -21 -54 -42c0 -22 16 -50 64 -87c37 -27 53 -33 74 -33c20 0 35 11 35 37z" />
    <glyph glyph-name="Korea1.156" unicode="&#x203b;" 
d="M672 319c0 45 36 82 83 82c48 0 86 -33 86 -81s-35 -81 -86 -81c-44 0 -83 33 -83 80zM64 319c0 45 34 82 84 82c46 0 83 -33 83 -81s-35 -81 -83 -81c-49 0 -84 33 -84 80zM372 621c0 45 35 82 85 82c46 0 85 -35 85 -82c0 -45 -34 -82 -85 -82c-46 0 -85 36 -85 82z
M372 19c0 44 35 80 85 80c46 0 85 -34 85 -79c0 -49 -35 -82 -85 -82c-46 0 -85 33 -85 81zM778 700l70 -69l-321 -311l321 -311l-70 -69l-321 311l-320 -311l-71 69l321 311l-321 311l71 69l320 -311z" />
    <glyph glyph-name="Korea1.157" unicode="&#x2606;" 
d="M455 97l-312 -216l125 346l-303 211h380l118 320l106 -320h383l-310 -214l116 -341zM398 367h-204l165 -112l-65 -179l159 110l159 -110l-59 178l170 113h-212l-50 164z" />
    <glyph glyph-name="Korea1.158" unicode="&#x2605;" 
d="M751 -105l-297 210l-307 -211l122 339l-296 208h373l115 314l105 -314h378l-306 -210z" />
    <glyph glyph-name="Korea1.159" unicode="&#x25cb;" 
d="M457 701c228 0 413 -178 413 -400c0 -221 -185 -400 -413 -400c-227 0 -412 179 -412 400s185 400 412 400zM457 -32c189 0 343 150 343 333s-154 333 -343 333s-343 -149 -343 -333c0 -183 154 -333 343 -333z" />
    <glyph glyph-name="Korea1.160" unicode="&#x25cf;" 
d="M47 301c0 220 184 398 410 398c227 0 410 -178 410 -398s-183 -398 -410 -398c-226 0 -410 178 -410 398z" />
    <glyph glyph-name="Korea1.161" unicode="&#x25ce;" 
d="M457 542c138 0 249 -108 249 -242s-111 -242 -249 -242s-249 108 -249 242s111 242 249 242zM457 126c98 0 179 78 179 174s-81 174 -179 174s-180 -78 -180 -174s82 -174 180 -174zM457 701c228 0 413 -178 413 -400c0 -221 -185 -400 -413 -400
c-227 0 -412 179 -412 400s185 400 412 400zM457 -32c189 0 343 150 343 333s-154 333 -343 333s-343 -149 -343 -333c0 -183 154 -333 343 -333z" />
    <glyph glyph-name="Korea1.162" unicode="&#x25c7;" 
d="M457 738l451 -438l-451 -438l-451 438zM457 -41l351 341l-351 341l-351 -341z" />
    <glyph glyph-name="Korea1.163" unicode="&#x25c6;" 
d="M9 300l448 435l448 -435l-448 -435z" />
    <glyph glyph-name="Korea1.164" unicode="&#x25a1;" 
d="M846 678v-756h-778v756h778zM139 -9h636v618h-636v-618z" />
    <glyph glyph-name="Korea1.165" unicode="&#x25a0;" 
d="M70 676h774v-752h-774v752z" />
    <glyph glyph-name="Korea1.166" unicode="&#x25b3;" 
d="M917 -74h-920l460 771zM793 -6l-336 563l-336 -563h672z" />
    <glyph glyph-name="Korea1.167" unicode="&#x25b2;" 
d="M457 692l456 -764h-912z" />
    <glyph glyph-name="Korea1.168" unicode="&#x25bd;" 
d="M917 675l-460 -771l-460 771h920zM793 607h-672l336 -563z" />
    <glyph glyph-name="Korea1.169" unicode="&#x25bc;" 
d="M1 673h912l-456 -764z" />
    <glyph glyph-name="Korea1.170" unicode="&#x2192;" 
d="M932 303l-361 -136l30 95h-587v75h587l-30 97z" />
    <glyph glyph-name="Korea1.171" unicode="&#x2190;" 
d="M904 263h-586l30 -96l-363 136l363 131l-30 -96h586v-75z" />
    <glyph glyph-name="Korea1.172" unicode="&#x2191;" 
d="M595 438l-98 30v-621h-79v621l-99 -30l138 352z" />
    <glyph glyph-name="Korea1.173" unicode="&#x2193;" 
d="M595 164l-138 -353l-138 352l98 -30v622h79v-621z" />
    <glyph glyph-name="Korea1.174" unicode="&#x2194;" 
d="M935 300l-314 -173l31 135h-391l31 -135l-312 173l312 172l-31 -134h391l-31 134z" />
    <glyph glyph-name="Korea1.175" unicode="&#x3013;" 
d="M815 466v-87h-715v87h715zM815 221v-88h-715v88h715z" />
    <glyph glyph-name="Korea1.176" unicode="&#xab;" horiz-adv-x="600" 
d="M568 -38h-116l-191 278l191 278h118l-170 -279zM363 -38h-116l-194 278l194 278h117l-170 -278z" />
    <glyph glyph-name="Korea1.177" unicode="&#xbb;" horiz-adv-x="600" 
d="M354 -38h-117l169 278l-169 278h117l193 -278zM148 -38h-118l170 278c-53 88 -117 190 -170 278h118l192 -278z" />
    <glyph glyph-name="Korea1.178" unicode="&#x221a;" 
d="M870 718h-313l-279 -850l-169 420l-52 -56l-34 53l137 140l127 -314l214 676h369v-69z" />
    <glyph glyph-name="Korea1.179" unicode="&#x223d;" 
d="M884 292c-3 -108 -86 -201 -217 -201c-83 0 -130 36 -157 54l50 89c19 -12 66 -41 111 -41c142 0 144 211 -4 218c-84 4 -125 -64 -163 -137c-23 -47 -97 -190 -257 -181c-104 6 -216 80 -213 219c2 102 85 202 217 202c82 0 130 -36 156 -55l-48 -84
c-10 6 -63 39 -111 39c-144 0 -151 -215 5 -223c92 -5 145 110 183 174c51 82 117 150 234 147c105 -3 219 -77 214 -220z" />
    <glyph glyph-name="Korea1.180" unicode="&#x221d;" 
d="M790 219l63 -81c-67 -42 -103 -55 -156 -55c-104 0 -168 62 -200 108c-34 -46 -98 -108 -199 -108c-125 0 -228 96 -228 217s103 217 228 217c101 0 166 -63 199 -109c33 46 98 109 200 109c52 0 93 -13 153 -56l-59 -82c-44 32 -62 36 -94 36c-91 0 -131 -84 -143 -115
c12 -31 52 -115 143 -115c30 0 50 6 93 34zM440 300c-15 33 -60 115 -142 115c-69 0 -123 -51 -123 -115s54 -115 123 -115c82 0 127 82 142 115z" />
    <glyph glyph-name="Korea1.181" unicode="&#x2235;" 
d="M733 609c45 0 85 -40 85 -86s-40 -85 -85 -85c-48 0 -86 39 -86 85s38 86 86 86zM184 609c44 0 84 -40 84 -86s-40 -85 -84 -85c-49 0 -88 39 -88 85s39 86 88 86zM453 169c46 0 85 -40 85 -86s-39 -85 -85 -85c-47 0 -86 39 -86 85s39 86 86 86z" />
    <glyph glyph-name="Korea1.182" unicode="&#x222b;" 
d="M585 652v20c0 11 -2 13 -10 13c-17 0 -29 -10 -45 -40c-14 -32 -21 -64 -21 -113c0 -28 3 -88 8 -141c3 -61 6 -110 6 -159c0 -77 -8 -146 -22 -186c-29 -86 -106 -140 -197 -140c-58 0 -96 29 -96 75c0 31 26 54 61 54c36 0 60 -24 62 -62c1 -15 2 -16 11 -16
c47 0 94 85 94 179c0 11 -1 32 -1 43c-1 19 -2 39 -5 59l-3 24c-5 67 -9 130 -9 183c0 97 17 177 48 219s78 66 131 66c62 0 109 -29 109 -73c0 -34 -27 -60 -63 -60c-35 0 -58 21 -58 55z" />
    <glyph glyph-name="Korea1.183" unicode="&#x222c;" 
d="M612 447l5 -187v-25c0 -99 -15 -175 -46 -235c-28 -55 -89 -95 -141 -95c-39 0 -69 24 -69 57c0 27 23 48 50 48c24 0 39 -10 49 -36c3 -10 6 -17 11 -17c9 1 20 10 28 30c13 31 21 66 28 107c2 15 5 26 7 47c3 19 3 28 3 33l-3 108l-4 108c-2 73 -2 109 -2 109
c-1 122 82 231 174 231c38 0 72 -28 72 -62c0 -30 -24 -51 -58 -51c-27 0 -47 15 -58 41c-3 11 -7 18 -9 18c-1 0 -3 -7 -8 -16l-18 -37c-2 -6 -2 -8 -3 -14c-15 -54 -9 -106 -8 -162zM396 252c2 -5 2 -16 2 -17c0 -99 -16 -177 -47 -234c-29 -53 -92 -95 -145 -95
c-36 0 -64 25 -64 56c0 27 23 51 50 51c24 0 41 -13 48 -39c4 -14 9 -18 12 -18c7 0 20 13 27 30c25 55 39 142 38 215l-3 80l-3 163c-3 99 7 142 31 188c32 58 87 98 139 98c38 0 70 -28 70 -62c0 -30 -23 -51 -53 -51c-26 0 -49 16 -58 41c-5 11 -6 18 -9 18
c-4 0 -15 -25 -23 -46c-10 -26 -17 -60 -15 -89l2 -92c3 -123 3 -170 3 -187v-9c0 -2 -1 -1 -2 -1z" />
    <glyph glyph-name="Korea1.184" unicode="&#x2208;" 
d="M829 345v-90h-670c4 -56 72 -164 222 -164h449v-87h-437c-205 0 -329 129 -329 296c0 166 124 296 329 296h437v-87h-449c-150 0 -218 -109 -222 -164h670z" />
    <glyph glyph-name="Korea1.185" unicode="&#x220b;" 
d="M755 255h-670v90h670c-5 55 -71 164 -222 164h-449v87h437c205 0 330 -130 330 -296c0 -167 -125 -296 -330 -296h-437v87h449c151 0 217 108 222 164z" />
    <glyph glyph-name="Korea1.186" unicode="&#x2286;" 
d="M842 113h-436v-1c-243 0 -355 118 -355 266c0 150 114 268 340 268h451v-102h-463c-163 0 -222 -86 -222 -166c0 -82 59 -164 222 -164h463v-101zM863 -46h-812v103h812v-103z" />
    <glyph glyph-name="Korea1.187" unicode="&#x2287;" 
d="M523 113l-450 -1v101h463c162 0 221 83 221 165c0 80 -59 165 -221 165h-463v103h450c227 0 340 -118 340 -268c0 -148 -112 -265 -340 -265zM863 -46h-812v103h812v-103z" />
    <glyph glyph-name="Korea1.188" unicode="&#x2282;" 
d="M843 -5h-438v-1c-221 0 -354 133 -354 306c0 172 133 306 340 306h452v-101h-463c-156 0 -221 -115 -221 -200v-10c0 -86 63 -199 221 -199h463v-101z" />
    <glyph glyph-name="Korea1.189" unicode="&#x2283;" 
d="M523 -5l-451 -1v101h462c158 0 221 114 221 200v10c0 85 -63 199 -221 199h-462v102h451c208 0 340 -134 340 -306c0 -173 -132 -305 -340 -305z" />
    <glyph glyph-name="Korea1.190" unicode="&#x222a;" 
d="M758 674v-438c0 -202 -138 -330 -315 -330s-315 128 -315 330v438h103v-449c0 -153 118 -215 206 -215h11c88 0 204 62 204 215v449h106z" />
    <glyph glyph-name="Korea1.191" unicode="&#x2229;" 
d="M772 -74h-104v449c0 152 -119 215 -205 215h-11c-89 0 -205 -62 -205 -215v-449h-105v438c0 202 137 330 315 330c176 0 315 -128 315 -330v-438z" />
    <glyph glyph-name="Korea1.192" unicode="&#x2227;" 
d="M837 -32l-85 -45l-295 587l-295 -587l-85 45l334 666c5 10 24 36 46 36c24 0 40 -23 46 -36z" />
    <glyph glyph-name="Korea1.193" unicode="&#x2228;" 
d="M752 679l85 -45l-334 -666c-6 -13 -22 -36 -46 -36c-22 0 -41 26 -46 36l-334 666l85 45l295 -587z" />
    <glyph glyph-name="Korea1.194" unicode="&#xffe2;" 
d="M575 382h-351v81h440v-312h-89v231z" />
    <glyph glyph-name="Korea1.195" unicode="&#x21d2;" 
d="M676 168h-656v69h725l69 62l-69 62h-725v69h656l-115 109l53 50l304 -290l-304 -290l-53 50z" />
    <glyph glyph-name="Korea1.196" unicode="&#x21d4;" 
d="M689 168h-454l115 -109l-54 -50l-304 290l304 290l54 -50l-115 -109h454l-115 109l55 50l303 -290l-303 -290l-55 50zM97 299l66 -62h597l67 62l-67 62h-597z" />
    <glyph glyph-name="Korea1.197" unicode="&#x2200;" 
d="M234 691l62 -178h314l62 177h127l-273 -772h-145l-273 773h126zM453 66l116 333h-233z" />
    <glyph glyph-name="Korea1.198" unicode="&#x2203;" 
d="M209 572v117h512v-771h-502v116h382v203h-363v115h363v220h-392z" />
    <glyph glyph-name="Korea1.199" unicode="&#xb4;" horiz-adv-x="450" 
d="M206 656h-100l90 173h147z" />
    <glyph glyph-name="Korea1.200" unicode="&#x2dc;" 
 />
    <glyph glyph-name="Korea1.201" unicode="&#x2c7;" 
d="M671 753l-197 -153c-10 -8 -25 -8 -35 0l-196 152c-40 31 -10 62 36 40l177 -89l178 90c47 23 77 -9 37 -40z" />
    <glyph glyph-name="Korea1.202" unicode="&#x2d8;" 
d="M620 802l73 -24c-66 -100 -130 -139 -225 -143c-102 -5 -177 34 -247 135l65 38c52 -76 103 -101 176 -99c65 2 110 25 158 93z" />
    <glyph glyph-name="Korea1.203" unicode="&#x2dd;" 
d="M504 787c17 -23 15 -48 -1 -62c-49 -43 -181 -98 -204 -102c-19 -3 -24 15 -12 28c41 41 102 102 143 137c16 13 58 23 74 -1zM678 787c16 -23 14 -48 -1 -62c-49 -43 -182 -98 -204 -102c-21 -3 -26 15 -12 28c40 41 101 102 142 137c17 13 58 23 75 -1z" />
    <glyph glyph-name="Korea1.204" unicode="&#x2da;" 
d="M575 691c0 -61 -54 -109 -118 -109c-62 0 -115 48 -115 109s53 109 115 109c64 0 118 -48 118 -109zM509 691c0 24 -21 46 -52 46c-28 0 -49 -22 -49 -46s21 -46 49 -46c31 0 52 22 52 46z" />
    <glyph glyph-name="Korea1.205" unicode="&#x2d9;" 
d="M537 725c0 -42 -38 -78 -81 -78c-45 0 -79 40 -79 80c0 42 39 76 80 76c43 0 80 -36 80 -78z" />
    <glyph glyph-name="Korea1.206" unicode="&#xb8;" horiz-adv-x="450" 
d="M211 51h107l-37 -74c37 -14 60 -45 60 -80c0 -63 -59 -117 -137 -118c-20 0 -46 1 -96 23l25 65c39 -9 47 -9 56 -9c17 0 30 11 30 22c0 13 -21 22 -76 23z" />
    <glyph glyph-name="Korea1.207" unicode="&#x2db;" 
d="M543 -111c0 -46 -37 -92 -83 -92c-49 0 -86 44 -86 94c0 37 22 77 55 106c6 6 15 11 23 11c12 0 20 -9 20 -20c0 -7 -2 -15 -6 -20c-15 -27 -20 -40 -20 -61c0 -19 11 -28 22 -28c21 0 32 35 52 35c18 0 23 -16 23 -25z" />
    <glyph glyph-name="Korea1.208" unicode="&#xa1;" horiz-adv-x="399" 
d="M275 -199h-151l18 557h112zM269 590v-150h-139v150h139z" />
    <glyph glyph-name="Korea1.209" unicode="&#xbf;" horiz-adv-x="510" 
d="M51 -22c0 90 71 147 122 210c30 35 51 69 51 110v59h121v-58c0 -73 -36 -129 -74 -172s-77 -78 -77 -134c0 -70 58 -97 119 -97c56 0 112 19 159 43l12 -113c-62 -19 -131 -35 -200 -35c-118 0 -233 55 -233 187zM215 440v149h138v-149h-138z" />
    <glyph glyph-name="Korea1.210" unicode="&#x2236;" 
 />
    <glyph glyph-name="Korea1.211" unicode="&#x222e;" 
d="M704 648c0 -34 -23 -54 -57 -54c-73 0 -43 72 -67 70c-9 -1 -17 -8 -27 -29c-17 -35 -26 -64 -33 -120c-2 -13 -2 -31 -8 -77c76 -23 115 -72 115 -146c0 -79 -50 -133 -135 -149c-4 -83 -12 -118 -29 -158c-29 -71 -84 -105 -158 -105c-58 0 -94 24 -94 68
c0 33 24 57 57 57c34 0 55 -17 62 -47c3 -23 3 -29 11 -29c17 0 45 27 56 71c6 22 10 52 14 80c0 12 2 32 4 68c-73 21 -116 70 -116 143c0 77 48 126 130 150c7 58 14 93 24 126c30 95 89 151 167 151c50 0 84 -25 84 -70zM578 294c0 44 -15 69 -69 97
c-2 -12 -1 -23 -2 -35l-7 -83c-2 -41 -3 -57 -3 -66v-17c54 16 81 52 81 104zM425 393c-47 -20 -76 -54 -76 -101c0 -43 25 -73 67 -93c1 91 2 120 9 194z" />
    <glyph glyph-name="Korea1.212" unicode="&#x2211;" 
d="M386 591l181 -238l-282 -265h414l-25 -107h-562l21 93l302 292l-184 242l27 91h510l-17 -108h-385z" />
    <glyph glyph-name="Korea1.213" unicode="&#x220f;" 
d="M105 660h704v-117h-150v-600h-113v600h-181v-600h-113v600h-147v117z" />
    <glyph glyph-name="Korea1.214" unicode="&#xa4;" 
d="M453 533c-133 0 -242 -110 -242 -242c0 -133 109 -242 242 -242s243 109 243 242c0 132 -110 242 -243 242zM241 1l-116 -117l-79 79l118 119c-43 60 -66 129 -66 209c0 78 25 152 67 210l-119 121l79 78l119 -121c57 43 131 68 209 68c77 0 150 -24 207 -66l120 119
l80 -79l-121 -118c45 -60 69 -133 69 -212s-23 -153 -65 -211l117 -117l-80 -79l-117 116c-57 -43 -131 -65 -210 -65s-155 23 -212 66z" />
    <glyph glyph-name="Korea1.215" unicode="&#x2109;" 
d="M165 731c65 0 119 -52 119 -116s-54 -116 -119 -116c-66 0 -120 52 -120 116s54 116 120 116zM807 603v-109h-353v-179h309v-110h-309v-288h-117v686h470zM165 566c28 0 50 21 50 49s-22 49 -50 49c-30 0 -51 -21 -51 -49s21 -49 51 -49z" />
    <glyph glyph-name="Korea1.216" unicode="&#x2030;" 
d="M91 -80h-103l558 759h103zM323 -55c-66 49 -57 159 -3 237c55 79 153 125 222 76s59 -158 4 -236c-54 -79 -153 -125 -223 -77zM372 14c15 -9 56 -1 100 62c40 59 35 103 20 113c-11 9 -55 1 -96 -60c-44 -60 -36 -105 -24 -115zM650 -55c-66 48 -57 158 -2 236
s152 126 222 77c67 -48 57 -158 3 -237c-55 -79 -155 -124 -223 -76zM699 13c13 -8 55 -1 100 62c41 59 34 103 20 113c-13 9 -54 1 -97 -60c-43 -60 -35 -105 -23 -115zM95 342c-68 49 -59 158 -4 236c54 80 153 126 221 77c69 -48 58 -158 5 -237
c-54 -79 -154 -124 -222 -76zM144 411c10 -11 55 -2 98 62c42 60 35 102 21 112c-14 9 -55 1 -97 -60c-42 -60 -35 -100 -22 -114z" />
    <glyph glyph-name="Korea1.217" unicode="&#x25c1;" 
d="M826 -148l-804 451l804 453v-904zM754 -26v660l-585 -331z" />
    <glyph glyph-name="Korea1.218" unicode="&#x25c0;" 
d="M826 -148l-804 451l804 453v-904z" />
    <glyph glyph-name="Korea1.219" unicode="&#x25b7;" 
d="M882 303l-804 -451v904zM735 303l-586 331v-660z" />
    <glyph glyph-name="Korea1.220" unicode="&#x25b6;" 
d="M892 303l-804 -451v904z" />
    <glyph glyph-name="Korea1.221" unicode="&#x2664;" 
d="M817 217c0 -93 -66 -166 -161 -166c-46 0 -84 10 -114 25c4 -142 48 -158 187 -171l15 -44h-574l15 44c139 13 183 29 187 171c-30 -15 -67 -25 -113 -25c-96 0 -162 73 -162 166c0 99 69 168 139 224c90 72 176 178 221 384c45 -206 131 -312 221 -384
c71 -56 139 -125 139 -224zM736 207c3 68 -24 110 -74 153c-15 13 -31 25 -44 36c-70 56 -127 131 -161 197c-33 -66 -91 -141 -161 -196c-65 -53 -123 -93 -118 -189c3 -58 43 -92 118 -86c41 4 101 35 154 131c0 -186 -4 -272 -39 -326h94c-36 53 -40 137 -40 326
c53 -96 115 -127 154 -131c76 -6 115 28 117 85z" />
    <glyph glyph-name="Korea1.222" unicode="&#x2660;" 
d="M817 217c0 -93 -66 -166 -161 -166c-54 0 -102 7 -138 24c9 -139 69 -157 211 -170l15 -44h-574l15 44c142 13 203 31 212 170c-36 -17 -84 -24 -138 -24c-96 0 -162 73 -162 166c0 99 68 169 139 225c88 72 176 177 221 383c45 -206 133 -311 221 -383
c72 -56 139 -126 139 -225z" />
    <glyph glyph-name="Korea1.223" unicode="&#x2661;" 
d="M836 507c2 -87 -42 -168 -102 -242c-57 -75 -126 -144 -178 -206c-36 -46 -65 -93 -99 -207c-34 114 -63 160 -99 206c-99 125 -284 278 -280 449c2 103 84 181 190 181c77 0 148 -34 191 -104c43 69 112 104 187 104c106 0 188 -77 190 -181zM759 492
c0 76 -42 130 -129 126c-74 -4 -133 -88 -173 -227c-40 139 -99 224 -173 228c-85 3 -128 -52 -128 -127c0 -86 65 -167 126 -236c38 -45 77 -84 108 -121c26 -29 49 -58 69 -94c20 35 42 64 67 93c31 38 68 77 106 122c62 69 127 150 127 236z" />
    <glyph glyph-name="Korea1.224" unicode="&#x2665;" 
d="M836 506c0 -87 -45 -168 -102 -242s-126 -142 -178 -205c-36 -46 -65 -93 -99 -207c-34 114 -63 160 -99 206c-101 127 -280 273 -280 447c0 106 84 182 190 182c86 0 153 -56 189 -133c36 78 104 134 189 134c106 0 190 -76 190 -182z" />
    <glyph glyph-name="Korea1.225" unicode="&#x2667;" 
d="M864 257c0 -103 -86 -193 -202 -193c-44 0 -88 15 -125 45c8 -158 56 -190 192 -202l15 -44h-575l16 44c135 12 184 43 192 203c-36 -28 -78 -45 -123 -45c-114 0 -204 86 -204 192c0 93 73 184 181 194c12 1 24 2 38 0c-10 22 -11 42 -11 71c0 109 96 190 201 190
c102 0 197 -79 197 -189c0 -29 -5 -51 -14 -74c112 13 222 -74 222 -192zM595 358l-68 63c41 35 51 76 51 115c0 57 -54 110 -123 110c-66 0 -121 -53 -121 -110c0 -38 9 -77 48 -110l-64 -65c-82 57 -187 0 -187 -103c0 -66 45 -118 109 -118c51 0 97 22 122 69h89
c0 -127 -7 -224 -47 -281h107c-38 57 -48 151 -48 281h88c24 -46 71 -70 123 -70c64 0 109 52 109 118c0 101 -104 163 -188 101z" />
    <glyph glyph-name="Korea1.226" unicode="&#x2663;" 
d="M864 257c0 -103 -86 -193 -202 -193c-50 0 -105 12 -146 42c11 -154 77 -186 213 -199l15 -44h-575l16 44c136 13 202 45 213 200c-42 -30 -95 -42 -144 -42c-114 0 -204 86 -204 192c0 93 73 184 181 194c12 1 24 2 38 0c-10 22 -11 42 -11 71c0 109 101 190 201 190
c96 0 197 -79 197 -189c0 -29 -5 -51 -14 -74c112 13 222 -74 222 -192z" />
    <glyph glyph-name="Korea1.227" unicode="&#x25c9;" 
 />
    <glyph glyph-name="Korea1.228" unicode="&#x25c8;" 
d="M926 299l-472 -487l-465 483l471 486zM830 298l-371 384l-375 -386l371 -386zM731 299l-277 -284l-269 279l276 286z" />
    <glyph glyph-name="Korea1.229" unicode="&#x25a3;" 
d="M863 -107h-810v820h810v-820zM790 -40v688h-661v-688h661zM677 82h-435v442h435v-442z" />
    <glyph glyph-name="Korea1.230" unicode="&#x25d0;" 
d="M459 -128c-250 0 -443 187 -443 429c0 241 192 427 441 427c252 0 442 -185 442 -427c0 -245 -190 -429 -440 -429zM471 659v-719c206 7 352 177 352 360c0 181 -147 352 -352 359z" />
    <glyph glyph-name="Korea1.231" unicode="&#x25d1;" 
d="M896 300c0 -244 -189 -428 -436 -428c-251 0 -443 185 -443 428c0 221 167 425 448 425c240 0 431 -188 431 -425zM446 -61v720c-212 -9 -353 -182 -353 -364c0 -174 145 -346 353 -356z" />
    <glyph glyph-name="Korea1.232" unicode="&#x2592;" 
d="M864 -95h-814v790h814v-790zM803 -36v672h-692v-672h692zM732 592c0 -20 -15 -34 -35 -34s-33 15 -33 34c0 18 12 35 33 35c19 0 35 -15 35 -35zM573 592c0 -20 -18 -34 -36 -34c-20 0 -35 15 -35 34c0 18 14 35 35 35c18 0 36 -15 36 -35zM773 397
c0 -19 -14 -34 -34 -34c-21 0 -35 15 -35 34s14 34 34 34s35 -14 35 -34zM633 397c0 -20 -14 -34 -36 -34c-20 0 -33 15 -33 34c0 18 13 35 33 35c21 0 36 -15 36 -35zM411 591c0 -18 -14 -33 -34 -33c-21 0 -35 13 -35 33s14 35 34 35c21 0 35 -15 35 -35zM713 203
c0 -21 -15 -35 -37 -35c-19 0 -34 15 -34 35c0 17 15 34 34 34c21 0 37 -15 37 -34zM492 397c0 -20 -17 -34 -37 -34c-19 0 -33 15 -33 34c0 18 13 35 33 35s37 -15 37 -35zM251 592c0 -20 -15 -34 -36 -34c-19 0 -33 15 -33 34c0 18 12 35 33 35c20 0 36 -14 36 -35zM774 8
c0 -21 -16 -35 -36 -35s-34 15 -34 35c0 19 14 34 34 34c21 0 36 -14 36 -34zM564 203c0 -21 -18 -35 -38 -35c-19 0 -34 15 -34 35c0 17 14 34 34 34s38 -15 38 -34zM351 397c0 -19 -15 -34 -34 -34c-21 0 -35 13 -35 34c0 19 14 34 33 34c21 0 36 -15 36 -34zM633 8
c0 -21 -16 -35 -36 -35s-33 15 -33 35c0 19 13 34 33 34c22 0 36 -14 36 -34zM212 397c0 -20 -15 -34 -36 -34c-19 0 -34 15 -34 34c0 18 14 35 34 35s36 -14 36 -35zM403 202c0 -19 -15 -34 -35 -34c-21 0 -35 13 -35 34c0 19 14 34 34 34c21 0 36 -15 36 -34zM491 8
c0 -19 -16 -35 -36 -35s-34 15 -34 35c0 19 14 34 34 34c19 0 36 -14 36 -34zM264 203c0 -21 -16 -35 -36 -35c-21 0 -35 15 -35 35c0 17 14 34 35 34c19 0 36 -14 36 -34zM351 8c0 -20 -15 -35 -36 -35c-19 0 -34 15 -34 35c0 19 15 34 34 34c21 0 36 -15 36 -34zM211 8
c0 -21 -17 -35 -35 -35c-20 0 -35 15 -35 35c0 19 15 34 35 34c21 0 35 -15 35 -34z" />
    <glyph glyph-name="Korea1.233" unicode="&#x25a4;" 
d="M864 -95h-814v790h814v-790zM803 520v116h-692v-116h692zM803 329v132h-692v-132h692zM803 139v132h-692v-132h692zM803 -36v116h-692v-116h692z" />
    <glyph glyph-name="Korea1.234" unicode="&#x25a5;" 
d="M864 -95h-814v790h814v-790zM803 -36v672h-119v-672h119zM622 -36v672h-134v-672h134zM426 -36v672h-134v-672h134zM231 -36v672h-120v-672h120z" />
    <glyph glyph-name="Korea1.235" unicode="&#x25a8;" 
d="M864 -95h-814v790h814v-790zM753 636h-190l-452 -438v-186zM221 636h-110v-107zM477 636h-171l-195 -190v-165zM802 -36v119l-123 -119h123zM802 414v186l-655 -636h191zM802 166v163l-378 -365h170z" />
    <glyph glyph-name="Korea1.236" unicode="&#x25a7;" 
d="M864 -95h-814v790h814v-790zM803 529v107h-109zM803 281v165l-195 190h-171zM803 12v186l-452 438h-190zM768 -36l-656 636v-186l464 -450h192zM491 -36l-379 365v-163l208 -202h171zM235 -36l-123 119v-119h123z" />
    <glyph glyph-name="Korea1.237" unicode="&#x25a6;" 
d="M864 -95h-814v790h814v-790zM801 508v125h-130v-125h130zM613 508v125h-129v-125h129zM801 327v125h-130v-125h130zM425 508v125h-130v-125h130zM613 327v125h-129v-125h129zM801 146v126h-130v-126h130zM237 508v125h-125v-125h125zM425 327v125h-130v-125h130zM613 146
v126h-129v-126h129zM801 -34v124h-130v-124h130zM237 327v125h-125v-125h125zM425 146v126h-130v-126h130zM613 -34v124h-129v-124h129zM237 146v126h-125v-126h125zM425 -34v124h-130v-124h130zM237 -34v124h-125v-124h125z" />
    <glyph glyph-name="Korea1.238" unicode="&#x25a9;" 
d="M864 -97h-814v790h814v-790zM769 634h-146l73 -69zM803 460v140l-72 -70zM659 530l-83 81l-83 -81l83 -81zM779 414l-83 81l-84 -81l84 -81zM528 634h-142l71 -69zM803 228v140l-72 -70zM421 530l-83 81l-84 -81l84 -81zM540 414l-83 81l-83 -81l83 -81zM659 298l-83 81
l-83 -81l83 -81zM779 182l-83 81l-84 -81l84 -81zM803 -4v140l-72 -70zM291 634h-145l72 -69zM183 530l-72 70v-140zM769 -38l-73 69l-73 -69h146zM659 66l-83 81l-83 -81l83 -81zM302 414l-84 81l-83 -81l83 -81zM421 298l-83 81l-84 -81l84 -81zM540 182l-83 81l-83 -81
l83 -81zM183 298l-72 70v-140zM528 -38l-71 69l-71 -69h142zM421 66l-83 81l-84 -81l84 -81zM302 182l-84 81l-83 -81l83 -81zM183 66l-72 70v-140zM291 -38l-73 69l-72 -69h145z" />
    <glyph glyph-name="Korea1.239" unicode="&#x2668;" 
d="M628 545c-14 -102 41 -123 52 -234c11 -110 -58 -172 -79 -219c-25 -48 -19 -86 -33 -89c-13 -3 -16 74 1 118c26 67 60 166 28 245c-49 115 -29 181 0 259c14 37 8 90 14 91c8 1 32 -54 17 -171zM484 578c-36 -110 25 -164 46 -281c14 -64 -49 -170 -68 -209
c-37 -65 -25 -93 -38 -92s-25 70 5 146c42 104 15 204 -3 241c-61 135 -4 208 24 271c27 62 20 119 22 119c18 1 44 -99 12 -195zM321 542c-16 -65 40 -161 49 -272c4 -45 -29 -117 -62 -184c-27 -58 -16 -80 -30 -79c-9 0 -29 55 -6 118c14 41 39 154 9 238
c-39 103 -21 195 22 278c15 30 20 79 26 78c12 -2 22 -60 -8 -177zM715 248c28 -2 190 -57 197 -156c10 -135 -224 -211 -405 -222c-259 -16 -506 66 -506 192c0 120 175 178 238 196c16 5 23 -10 1 -17c-11 -4 -161 -60 -161 -157c0 -89 186 -144 385 -141
c171 3 382 71 383 164c1 62 -101 118 -135 127c-18 5 -10 15 3 14z" />
    <glyph glyph-name="Korea1.240" unicode="&#x260f;" 
d="M772 546c77 -21 102 -60 114 -148c7 -56 -23 -59 -59 -58l-82 3c-38 1 -57 9 -67 66c-6 34 -26 55 -73 66v-51c0 -33 4 -38 32 -61c25 -20 42 -27 54 -60l78 -221c0 -18 -10 -76 -11 -79c0 -4 -10 -3 -18 -3h-564c-7 0 -17 -1 -17 3c-2 3 -12 61 -12 79l78 221
c12 33 29 40 54 60c29 23 32 28 32 61v51c-47 -11 -67 -32 -73 -66c-10 -57 -29 -65 -67 -66l-82 -3c-36 -1 -66 2 -59 58c12 88 37 127 114 148c96 27 216 41 315 41c103 0 217 -14 313 -41zM523 440l9 49c-9 1 -45 4 -75 4c-32 0 -66 -3 -75 -4l9 -49c15 2 44 3 66 3
s52 -1 66 -3zM754 367l66 -2c34 -1 40 9 32 53c-11 68 -47 91 -127 111c-82 21 -185 30 -266 30c-83 0 -186 -9 -268 -30c-79 -20 -115 -43 -127 -111c-7 -44 -2 -54 32 -53l66 2c29 1 39 10 48 60c9 52 69 72 126 81c72 12 172 12 245 0c56 -9 116 -29 125 -81
c9 -50 19 -59 48 -60zM731 30l8 45l-72 205c-17 46 -38 55 -62 72c-28 19 -31 43 -31 76v55c-3 0 -9 1 -12 1l-15 -70c-1 0 -49 4 -90 4s-88 -5 -90 -5l-12 72l-13 -2v-55c0 -33 -3 -57 -31 -76c-24 -17 -45 -26 -62 -72l-71 -205l7 -45h546zM459 370c70 0 129 -59 129 -127
c0 -73 -60 -130 -134 -130s-128 63 -128 132c0 71 62 125 133 125zM454 141c60 0 104 45 104 102c0 53 -44 99 -99 99c-56 0 -105 -42 -105 -97c0 -54 44 -104 100 -104z" />
    <glyph glyph-name="Korea1.241" unicode="&#x260e;" 
d="M797 372c27 -1 74 1 92 6c0 -35 -26 -39 -62 -38l-82 3c-33 1 -58 12 -62 46c37 -12 65 -15 114 -17zM772 548c94 -26 104 -62 114 -150c-19 -5 -67 -7 -96 -6c-48 2 -69 6 -112 17c-2 31 -37 60 -73 66v-51c0 -33 6 -35 32 -61c27 -26 42 -27 54 -60l78 -221
c0 -18 -10 -78 -11 -81c0 -4 -10 -3 -18 -3h-564c-7 0 -17 -1 -17 3c-2 3 -12 63 -12 81l78 221c12 33 28 34 54 60s32 28 32 61v51c-36 -6 -71 -35 -73 -66c-42 -11 -64 -15 -112 -17c-29 -1 -77 1 -96 6c10 88 20 124 114 150c100 27 216 39 315 39c103 0 213 -12 313 -39
zM120 372c49 2 77 5 114 17c-5 -34 -29 -45 -63 -46l-82 -3c-36 -1 -62 3 -62 38c19 -5 65 -7 93 -6zM457 413l90 -4l15 74c-26 2 -64 7 -105 7s-78 -6 -105 -8l15 -74zM454 113c74 0 134 57 134 130c0 68 -59 127 -129 127c-71 0 -133 -54 -133 -125
c0 -69 54 -132 128 -132z" />
    <glyph glyph-name="Korea1.242" unicode="&#x261c;" 
d="M847 462v-326h-133v46c-23 0 -49 2 -83 -12c-84 -39 -140 -30 -214 -28c-12 -20 -37 -25 -62 -25c-42 0 -125 23 -125 75c0 16 10 32 24 39c-8 8 -10 20 -10 30c0 21 14 37 34 45c-5 4 -10 15 -10 22c0 13 7 24 16 34l-108 6c-33 2 -120 1 -120 62c0 45 72 49 120 50
l165 5l91 -2c13 10 31 16 50 16c74 0 138 -43 198 -73c15 -6 15 -7 34 -7v43h133zM742 163h40v272h-40v-272zM714 207v187c-20 0 -23 -2 -35 3c-59 25 -131 77 -190 77c-30 0 -45 -9 -64 -29l-48 -49c-10 -9 -28 -24 -28 -37c0 -18 25 -26 40 -26c25 0 47 16 65 31l46 37
l11 -13l-42 -47c12 -8 29 -24 38 -37c2 0 48 -8 88 -5c20 2 44 8 60 13l7 2l7 -8v-6c-2 -1 -47 -18 -70 -21c-47 -5 -87 0 -89 0c-10 -32 -17 -47 -53 -53c0 -22 -8 -44 -33 -48v-15c65 -4 139 -2 203 30c31 16 61 14 87 14zM448 252c18 0 36 10 36 31c0 17 -24 42 -43 42
c-8 0 -27 -12 -53 -12c-33 0 -57 16 -76 39c-8 -5 -15 -11 -15 -22c0 -24 37 -40 54 -48c17 -7 80 -30 97 -30zM336 386l73 74h-85l-145 -2c-23 0 -96 1 -96 -30c0 -28 38 -36 58 -37l137 -5h58zM404 198c17 0 28 11 26 27c0 9 -14 10 -19 12c-27 7 -73 27 -93 39
c-6 3 -16 8 -23 8c-13 0 -22 -11 -22 -23c0 -19 22 -36 37 -42c21 -8 72 -21 94 -21zM355 136c19 0 45 4 45 26c0 10 -7 14 -16 15c-55 8 -89 22 -110 37c-9 5 -19 -10 -16 -25c4 -33 72 -53 97 -53z" />
    <glyph glyph-name="Korea1.243" unicode="&#x261e;" 
d="M573 505l163 -5c48 -1 121 -5 121 -50c0 -61 -87 -60 -121 -62l-107 -6c9 -10 17 -21 17 -34c0 -7 -6 -18 -10 -22c20 -8 32 -24 32 -45c0 -10 -1 -22 -10 -30c14 -7 26 -23 26 -39c0 -52 -83 -75 -128 -75c-22 0 -47 5 -60 25c-73 -2 -130 -11 -216 28
c-31 14 -59 12 -81 12v-46h-133v326h133v-43c20 0 20 1 34 7c60 30 123 73 198 73c19 0 37 -6 50 -16zM635 406l137 5c20 1 58 9 58 37c0 31 -72 30 -96 30l-145 2h-86l74 -74h58zM562 302c16 8 53 24 53 48c0 11 -5 17 -13 22c-19 -23 -46 -39 -76 -39c-26 0 -45 12 -54 12
c-19 0 -45 -25 -45 -42c0 -21 19 -31 38 -31c17 0 81 23 97 30zM603 239c16 6 36 23 36 42c0 12 -9 23 -20 23c-8 0 -17 -5 -24 -8c-20 -12 -67 -32 -93 -39c-4 -2 -19 -3 -20 -12c-1 -16 10 -27 27 -27c21 0 74 13 94 21zM557 156c26 0 94 20 99 53c1 15 -8 30 -17 25
c-20 -15 -55 -29 -111 -37c-8 -1 -16 -5 -16 -15c0 -22 26 -26 45 -26zM524 353c13 0 41 8 41 26c0 13 -19 28 -29 37l-47 49c-21 20 -35 29 -64 29c-60 0 -131 -52 -191 -77c-13 -5 -14 -3 -35 -3v-187c25 0 55 2 88 -14c64 -32 138 -34 203 -30v15c-26 4 -35 26 -35 48
c-37 6 -42 21 -52 53c-3 0 -42 -5 -89 0c-23 3 -68 20 -70 21v6l7 8l8 -2c16 -5 38 -11 58 -13c42 -3 88 5 90 5c9 13 26 29 37 37l-42 47l11 13l46 -37c16 -15 41 -31 65 -31zM131 183h40v272h-40v-272z" />
    <glyph glyph-name="Korea1.244" unicode="&#xb6;" 
d="M767 -164h-110v909h110v-909zM577 -164h-109l-1 458h-51c-156 -2 -263 84 -263 225c0 177 166 233 341 226l83 -2v-907zM467 401v241h-24c-115 0 -178 -47 -178 -121c0 -73 64 -122 161 -120h41z" />
    <glyph glyph-name="Korea1.245" unicode="&#x2020;" 
d="M724 504v-106h-205v-534h-108v534h-206v106h206v229h108v-229h205z" />
    <glyph glyph-name="Korea1.246" unicode="&#x2021;" 
d="M730 614v-107h-209v-49h192v-106h-192v-485h-109v485h-191v106h191v49h-207v107h207v122h109v-122h209z" />
    <glyph glyph-name="Korea1.247" unicode="&#x2195;" 
d="M635 109l-180 -303l-176 303l138 -30v441l-138 -30l176 303l180 -303l-138 30v-441z" />
    <glyph glyph-name="Korea1.248" unicode="&#x2197;" 
d="M922 750l-167 -336l-31 91l-658 -640l-55 53l659 640l-95 31z" />
    <glyph glyph-name="Korea1.249" unicode="&#x2199;" 
d="M911 686l-657 -641l92 -29l-346 -162l166 337l34 -93l656 642z" />
    <glyph glyph-name="Korea1.250" unicode="&#x2196;" 
d="M906 -82l-54 -53l-659 640l-31 -91l-167 336l346 -161l-95 -31z" />
    <glyph glyph-name="Korea1.251" unicode="&#x2198;" 
d="M917 -146l-346 162l93 31l-658 639l55 54l657 -640l32 91z" />
    <glyph glyph-name="Korea1.252" unicode="&#x266d;" 
d="M433 673v-292c119 126 299 14 235 -192c-70 -223 -271 -241 -338 -243v727h103zM434 251v-206c36 10 68 35 92 65c49 62 78 196 18 216c-71 25 -110 -70 -110 -75z" />
    <glyph glyph-name="Korea1.253" unicode="&#x2669;" 
d="M488 705h68v-618c0 -107 -83 -182 -194 -182c-61 0 -89 21 -89 70c0 81 91 141 210 141h4z" />
    <glyph glyph-name="Korea1.254" unicode="&#x266a;" 
d="M407 117v591l17 1c21 -2 26 -5 62 -43c17 -17 43 -49 62 -65l18 -15c29 -26 40 -32 45 -36c6 -5 4 -6 4 -6c2 -1 4 -2 7 -6c45 -44 66 -65 86 -96c26 -41 35 -72 35 -112c0 -43 -8 -76 -26 -106c-41 -68 -123 -139 -166 -142c0 0 -5 4 -6 6c-3 1 -4 10 -4 10
c1 2 3 7 24 27c56 47 96 121 96 171c0 48 -28 95 -80 142c-47 37 -69 54 -110 75l-1 -421c0 -108 -80 -185 -192 -185c-54 0 -81 25 -81 67c0 82 87 142 201 142c0 0 2 1 9 1z" />
    <glyph glyph-name="Korea1.255" unicode="&#x266c;" 
d="M299 619l480 101v-548c0 -70 -20 -109 -68 -141c-34 -30 -77 -44 -125 -44c-58 0 -90 24 -90 66c0 45 40 101 97 123c41 18 58 20 118 20v262l-343 -77v-287c0 -77 -25 -122 -81 -156c-40 -29 -74 -39 -117 -39c-56 0 -90 26 -90 69c0 75 96 140 206 140h13v511zM368 478
l343 75v59l-343 -73v-61z" />
    <glyph glyph-name="Korea1.256" unicode="&#x327f;" 
d="M30 235h80c32 -165 160 -299 343 -299c93 0 181 40 244 105h-89l-188 232l-50 -48v-182h-95v504h95v-195l188 195h114l-187 -213l225 -280c46 53 77 120 86 195h-136v77h218c8 -268 -189 -467 -425 -467c-225 0 -392 171 -423 376zM876 343h-80
c-32 165 -160 299 -343 299c-170 0 -322 -132 -343 -313h136v-77h-218c-8 268 189 467 425 467c225 0 392 -171 423 -376z" />
    <glyph glyph-name="Korea1.257" unicode="&#x321c;" 
d="M703 642h55c58 -68 141 -188 141 -372s-84 -307 -141 -372h-55c87 115 120 242 120 372c0 127 -31 258 -120 372zM211 -102h-54c-58 65 -141 188 -141 372s82 304 141 372h54c-90 -114 -119 -245 -119 -372c0 -130 32 -257 119 -372zM732 341l-47 -68
c-27 2 -83 16 -131 38c-44 19 -84 52 -99 72c-12 -20 -52 -52 -96 -72c-48 -22 -106 -36 -131 -38l-47 68c35 2 96 14 146 40c43 22 76 57 84 91c1 5 2 15 2 20h-184v71h455v-71h-184c0 -5 0 -15 1 -19c8 -34 41 -70 83 -92c55 -28 113 -39 148 -40zM759 162h-260v-211h-85
v211h-262v77h607v-77z" />
    <glyph glyph-name="Korea1.258" unicode="&#x2116;" 
d="M426 656v-699h-117l-196 517v-517h-94v699h117l196 -517v517h94zM633 433c114 0 183 -110 183 -243s-69 -242 -183 -242c-113 0 -182 109 -182 242s69 243 182 243zM843 51c34 0 61 -31 61 -64c0 -35 -27 -63 -61 -63c-32 0 -59 28 -59 63c0 33 27 64 59 64zM633 40
c62 0 94 64 94 150c0 83 -32 150 -94 150c-59 0 -95 -67 -95 -150c0 -85 35 -150 95 -150z" />
    <glyph glyph-name="Korea1.259" unicode="&#x33c7;" 
d="M371 165h93c-9 -99 -71 -218 -217 -213c-151 5 -231 147 -231 357c0 216 94 378 233 378c155 0 206 -120 214 -198h-92c-8 38 -29 104 -122 102c-89 -2 -139 -136 -139 -281c0 -144 48 -262 139 -263c81 -1 113 64 122 118zM643 448c108 0 175 -109 175 -242
c0 -132 -67 -241 -175 -241c-109 0 -174 109 -174 241c0 133 65 242 174 242zM845 67c32 0 60 -31 60 -64c0 -34 -28 -62 -60 -62c-31 0 -59 28 -59 62c0 33 28 64 59 64zM643 57c59 0 89 63 89 149c0 83 -30 150 -89 150s-90 -67 -90 -150c0 -85 31 -149 90 -149z" />
    <glyph glyph-name="Korea1.260" unicode="&#x2122;" 
d="M588 272l-90 236v-236h-69v376h90l96 -251l90 251h97v-376h-70v241l-88 -241h-56zM208 272v315h-125v61h323v-61h-124v-315h-74z" />
    <glyph glyph-name="Korea1.261" unicode="&#x33c2;" 
d="M797 309v-317h-71v290c0 67 -2 100 -37 99c-35 0 -38 -47 -38 -115v-274h-68v290c0 67 -8 99 -48 99c-34 0 -35 -47 -35 -115v-274h-70v456h70v-40c9 26 27 58 68 53c28 -3 55 -29 64 -66c6 24 32 75 89 66c60 -9 76 -79 76 -152zM317 -9h-71c-6 12 -7 29 -8 45
c-18 -32 -48 -55 -96 -59c-59 -5 -114 37 -122 112c-7 84 42 125 69 140c41 23 77 23 110 34c16 5 39 24 39 58c0 32 -17 70 -67 70c-52 0 -70 -36 -67 -78h-66c-6 98 55 151 133 151c75 0 134 -55 134 -145v-257c0 -37 11 -69 12 -71zM853 82c27 0 50 -25 50 -55
c0 -31 -23 -54 -50 -54c-25 0 -47 23 -47 54c0 30 22 55 47 55zM370 82c26 0 48 -25 48 -55c0 -31 -22 -54 -48 -54c-28 0 -50 23 -50 54c0 30 22 55 50 55zM240 153v62c-7 -5 -16 -11 -28 -16c-24 -11 -58 -11 -83 -23c-27 -15 -45 -36 -41 -75c5 -40 31 -55 59 -52
c61 7 93 64 93 104z" />
    <glyph glyph-name="Korea1.262" unicode="&#x33d8;" 
d="M787 309v-321h-71v294c0 68 -1 101 -37 101c-36 -1 -40 -48 -40 -118v-277h-69v294c0 68 -7 101 -48 101c-34 0 -37 -48 -37 -118v-277h-70v462h70v-40c10 26 28 59 70 54c29 -4 56 -30 65 -67c8 24 33 76 91 67c62 -10 76 -80 76 -155zM179 467c88 0 146 -102 146 -248
c0 -147 -58 -248 -146 -248c-37 0 -70 19 -93 51v-188h-67v617h67v-35c22 30 53 51 93 51zM852 79c28 0 51 -26 51 -57c0 -30 -23 -54 -51 -54c-27 0 -49 24 -49 54c0 31 22 57 49 57zM348 79c27 0 50 -26 50 -57c0 -30 -23 -54 -50 -54s-50 24 -50 54c0 31 23 57 50 57z
M171 53c51 0 82 69 82 166s-31 167 -82 167c-53 0 -83 -70 -83 -167s30 -166 83 -166z" />
    <glyph glyph-name="Korea1.263" unicode="&#x2121;" 
d="M879 598v-663h-94v663h94zM476 598v-84h-180v-580h-94v580h-179v84h453zM743 121h-309c2 -70 53 -125 108 -125c59 0 83 31 92 59h93c-19 -64 -70 -134 -185 -134c-116 0 -201 103 -201 232c0 127 78 231 200 231c110 0 205 -82 202 -263zM435 196h213
c-4 60 -41 114 -107 114c-59 0 -98 -46 -106 -114z" />
    <glyph glyph-name="Korea1.264" unicode="&#xff01;" 
d="M377 727h156l-22 -579h-115zM527 63v-146l-144 -20v166h144z" />
    <glyph glyph-name="Korea1.265" unicode="&#xff02;" 
d="M487 776h138l-10 -239h-118zM285 776h139l-10 -239h-119z" />
    <glyph glyph-name="Korea1.266" unicode="&#xff03;" 
d="M425 469l-26 -197h88l26 197h-88zM675 272v-95h-84l-27 -199h-116l26 199h-87l-27 -199h-116l26 199h-71v95h84l26 197h-73v94h85l23 161h116l-21 -161h86l23 161h116l-21 -161h68v-94h-82l-26 -197h72z" />
    <glyph glyph-name="Korea1.267" unicode="&#xff04;" 
d="M691 193c0 -122 -71 -191 -177 -216v-76h-101v64h-3c-74 0 -135 17 -190 38l15 125c47 -31 114 -52 171 -52h7v227c-85 37 -180 81 -180 208c0 128 80 198 180 219v78h101v-72c49 -3 98 -12 142 -26l-13 -114c-40 16 -85 27 -129 30v-222c85 -38 177 -86 177 -211z
M373 521c0 -29 16 -50 40 -67v154c-25 -16 -40 -44 -40 -87zM550 183c0 30 -15 51 -36 68v-141c21 17 36 42 36 73z" />
    <glyph glyph-name="Korea1.268" unicode="&#xff05;" 
d="M895 159c0 -119 -68 -194 -201 -194c-131 0 -203 76 -203 195c0 118 72 193 203 193c133 0 201 -76 201 -194zM761 160c0 46 -9 112 -67 112c-57 0 -69 -68 -69 -113c0 -46 12 -113 69 -113c58 0 67 68 67 114zM615 737h110l-424 -772h-111zM420 542
c0 -118 -66 -193 -201 -193c-130 0 -203 76 -203 195c0 118 73 193 203 193c135 0 201 -76 201 -195zM287 544c0 45 -9 112 -68 112c-56 0 -67 -68 -67 -114c0 -45 11 -112 67 -112c59 0 68 67 68 114z" />
    <glyph glyph-name="Korea1.269" unicode="&#xff06;" 
d="M678 123l131 -145h-168l-52 63c-52 -53 -122 -76 -198 -76c-141 0 -252 81 -252 215c0 92 43 161 154 208c-53 52 -94 97 -94 177c0 112 110 172 212 172c99 0 201 -57 201 -170c0 -98 -66 -153 -143 -196l131 -161c34 40 47 110 51 172h120c-5 -97 -40 -192 -93 -259z
M492 557c0 54 -37 82 -81 82c-42 0 -83 -30 -83 -85c0 -42 39 -82 67 -112c37 19 97 68 97 115zM523 118l-160 194c-50 -27 -91 -67 -91 -127c0 -67 57 -118 125 -118c54 0 96 21 126 51z" />
    <glyph glyph-name="Korea1.270" unicode="&#xff07;" 
d="M385 776h139l-10 -239h-119z" />
    <glyph glyph-name="Korea1.271" unicode="&#xff08;" 
d="M617 -147h-124c-101 141 -166 279 -166 456c0 189 65 313 166 456h124c-88 -143 -151 -269 -151 -456c0 -176 63 -315 151 -456z" />
    <glyph glyph-name="Korea1.272" unicode="&#xff09;" 
d="M581 309c0 -178 -67 -314 -167 -456h-123c87 141 152 280 152 456c0 187 -65 313 -152 456h123c101 -143 167 -267 167 -456z" />
    <glyph glyph-name="Korea1.273" unicode="&#xff0a;" 
d="M654 642l36 -115l-163 -34l113 -128l-101 -70l-82 144l-87 -144l-100 70l115 128l-162 34l37 115l155 -66l-18 168h122l-19 -167z" />
    <glyph glyph-name="Korea1.274" unicode="&#xff0b;" 
d="M720 416v-104h-206v-211h-118v211h-206v104h206v211h118v-211h206z" />
    <glyph glyph-name="Korea1.275" unicode="&#xff0c;" 
d="M403 82h143l-87 -255h-122z" />
    <glyph glyph-name="Korea1.276" unicode="&#xff0d;" 
d="M641 417v-107h-371v107h371z" />
    <glyph glyph-name="Korea1.277" unicode="&#xff0e;" 
d="M525 89v-156l-142 -1v157h142z" />
    <glyph glyph-name="Korea1.278" unicode="&#xff0f;" 
d="M520 747h123l-252 -823h-124z" />
    <glyph glyph-name="Korea1.279" unicode="&#xff10;" 
d="M200 182v307c0 165 90 253 254 253c165 0 255 -88 255 -253v-307c0 -165 -90 -253 -255 -253c-164 0 -254 88 -254 253zM570 214v243c0 123 -39 177 -116 177s-115 -54 -115 -177v-243c0 -123 38 -176 115 -176s116 53 116 176z" />
    <glyph glyph-name="Korea1.280" unicode="&#xff11;" 
d="M586 724v-770l-141 -21v679h-140v112h281z" />
    <glyph glyph-name="Korea1.281" unicode="&#xff12;" 
d="M697 60l-16 -113h-478v124c8 8 89 87 127 126c107 110 209 215 209 312c0 68 -47 116 -134 116h-184v113h218c149 0 241 -84 241 -231c0 -116 -95 -230 -183 -325c-41 -42 -114 -115 -122 -122h322z" />
    <glyph glyph-name="Korea1.282" unicode="&#xff13;" 
d="M706 167c0 -187 -120 -235 -296 -235h-204v112h186c111 0 169 41 169 126c0 100 -81 130 -177 130h-85v112h81c97 0 154 38 154 111c0 72 -41 105 -121 105l-181 1v114l211 -1c118 -1 234 -58 234 -198c0 -102 -60 -163 -137 -186v-2c94 -15 166 -85 166 -189z" />
    <glyph glyph-name="Korea1.283" unicode="&#xff14;" 
d="M502 92h-326v114l284 518h179v-525h104l-20 -107h-84v-138l-137 -21v159zM502 199v381h-2l-195 -381h197z" />
    <glyph glyph-name="Korea1.284" unicode="&#xff15;" 
d="M698 169c0 -147 -105 -236 -290 -236h-180v113h165c80 0 163 34 163 129v64c0 97 -132 125 -186 64h-124l8 421h436l-20 -108h-283l-4 -199c16 14 56 29 89 31c102 7 226 -54 226 -190v-89z" />
    <glyph glyph-name="Korea1.285" unicode="&#xff16;" 
d="M707 256v-113c0 -128 -105 -213 -247 -213c-138 0 -254 68 -254 213v313c0 148 79 268 243 268h224l-19 -114h-198c-82 0 -119 -64 -119 -146v-81l2 -1c38 51 84 74 148 74c141 0 220 -84 220 -200zM564 143v102c0 67 -52 104 -107 104c-57 0 -108 -36 -108 -103v-103
c0 -68 33 -104 109 -104c74 0 106 38 106 104z" />
    <glyph glyph-name="Korea1.286" unicode="&#xff17;" 
d="M686 724v-118l-264 -658h-152l283 664h-326v112h459z" />
    <glyph glyph-name="Korea1.287" unicode="&#xff18;" 
d="M454 741c135 0 243 -88 243 -192v-28c0 -79 -43 -136 -119 -170c87 -36 143 -97 143 -184v-35c0 -118 -118 -203 -267 -203c-148 0 -266 85 -266 203v35c0 87 55 148 143 184c-76 34 -119 91 -119 170v28c0 104 107 192 242 192zM454 412c65 0 105 44 105 101v31
c0 55 -39 93 -105 93c-65 0 -105 -38 -105 -93v-31c0 -57 41 -101 105 -101zM454 37c64 0 117 33 117 105v39c0 65 -52 116 -117 116c-64 0 -116 -51 -116 -116v-39c0 -72 53 -105 116 -105z" />
    <glyph glyph-name="Korea1.288" unicode="&#xff19;" 
d="M206 412v113c0 128 105 213 247 213c138 0 254 -68 254 -213v-313c0 -148 -79 -268 -243 -268h-224v114h216c83 0 120 64 120 146v81l-2 1c-39 -51 -84 -74 -148 -74c-141 0 -220 84 -220 200zM349 525v-102c0 -67 52 -104 106 -104c58 0 109 36 109 103v103
c0 68 -33 104 -110 104c-74 0 -105 -38 -105 -104z" />
    <glyph glyph-name="Korea1.289" unicode="&#xff1a;" 
d="M523 593v-149h-137v149h137zM523 140v-150h-137v150h137z" />
    <glyph glyph-name="Korea1.290" unicode="&#xff1b;" 
d="M524 593v-149h-138v149h138zM403 133h143l-87 -259h-125z" />
    <glyph glyph-name="Korea1.291" unicode="&#xff1c;" 
d="M674 144v-139l-447 317v87l447 317v-139l-319 -221z" />
    <glyph glyph-name="Korea1.292" unicode="&#xff1d;" 
d="M675 532v-105h-438v105h438zM675 303v-104h-438v104h438z" />
    <glyph glyph-name="Korea1.293" unicode="&#xff1e;" 
d="M674 409v-87l-447 -317v139l320 222l-320 221v139z" />
    <glyph glyph-name="Korea1.294" unicode="&#xff1f;" 
d="M693 543c0 -94 -73 -153 -127 -218c-31 -37 -53 -72 -53 -115v-61h-125v60c0 76 37 134 77 179c39 45 80 81 80 139c0 73 -61 101 -124 101c-58 0 -117 -19 -165 -44l-13 117c65 20 136 36 208 36c123 0 242 -57 242 -194zM523 63v-145l-144 -20v165h144z" />
    <glyph glyph-name="Korea1.295" unicode="&#xff20;" 
d="M828 430c0 -210 -186 -289 -257 -289c-28 0 -54 19 -55 55h-2c-27 -29 -64 -55 -106 -55c-86 0 -159 72 -159 171c0 136 94 252 214 252c50 0 91 -22 119 -66l13 51h85l-59 -255c-3 -13 -7 -27 -7 -38c0 -10 4 -17 16 -17c52 0 118 61 118 186c0 168 -141 220 -269 220
c-171 0 -291 -132 -291 -283c0 -169 115 -284 274 -284c83 0 168 17 235 70h85c-74 -111 -189 -162 -321 -162c-186 0 -375 127 -375 376c0 211 168 375 393 375c170 0 349 -99 349 -307zM550 382c0 49 -31 85 -78 85c-70 0 -119 -75 -119 -140c0 -50 30 -87 80 -87
c67 0 117 75 117 142z" />
    <glyph glyph-name="Korea1.296" unicode="&#xff21;" 
d="M530 724l302 -776h-156l-71 198h-306l-72 -198h-147l302 776h148zM454 569l-114 -311h225z" />
    <glyph glyph-name="Korea1.297" unicode="&#xff22;" 
d="M759 167c0 -181 -141 -219 -250 -219h-301v776h281c108 0 224 -48 225 -202c1 -90 -52 -151 -142 -168v-2c110 -13 187 -90 187 -185zM578 507c0 81 -56 105 -121 105h-107v-205h94c65 0 134 22 134 100zM617 180c0 102 -86 119 -164 119h-103v-239h129
c76 0 138 30 138 120z" />
    <glyph glyph-name="Korea1.298" unicode="&#xff23;" 
d="M712 -56h-208c-212 0 -316 96 -316 299v182c0 197 117 299 313 299h201v-117h-182c-131 0 -191 -63 -191 -203v-139c0 -122 39 -205 190 -205h213z" />
    <glyph glyph-name="Korea1.299" unicode="&#xff24;" 
d="M772 337c0 -271 -109 -389 -360 -389h-255v776h255c247 0 360 -121 360 -387zM623 336c0 179 -66 274 -190 274h-134v-547h132c128 0 192 91 192 273z" />
    <glyph glyph-name="Korea1.300" unicode="&#xff25;" 
d="M700 63l-20 -115h-458v776h466v-114h-324v-203h300v-116h-300v-228h336z" />
    <glyph glyph-name="Korea1.301" unicode="&#xff26;" 
d="M700 724v-114h-290v-203h278v-116h-278v-333l-143 -20v786h433z" />
    <glyph glyph-name="Korea1.302" unicode="&#xff27;" 
d="M593 -58h-85c-222 0 -328 95 -328 296v190c0 194 109 296 327 296h214l-21 -117h-184c-146 0 -195 -78 -195 -200v-147c0 -130 40 -202 191 -202h81v217h-129v112h266v-425z" />
    <glyph glyph-name="Korea1.303" unicode="&#xff28;" 
d="M752 734v-775l-141 -21v352h-312v-331l-142 -21v776l142 20v-327h312v307z" />
    <glyph glyph-name="Korea1.304" unicode="&#xff29;" 
d="M526 734v-776l-141 -20v776z" />
    <glyph glyph-name="Korea1.305" unicode="&#xff2a;" 
d="M585 734v-605c0 -89 -52 -194 -204 -194h-111v125h73c90 0 101 62 101 136v518z" />
    <glyph glyph-name="Korea1.306" unicode="&#xff2b;" 
d="M478 386l323 -438h-179l-235 334l-57 -63v-261l-142 -20v776l142 20v-326l271 316h175z" />
    <glyph glyph-name="Korea1.307" unicode="&#xff2c;" 
d="M711 63l-20 -115h-414v766l142 20v-671h292z" />
    <glyph glyph-name="Korea1.308" unicode="&#xff2d;" 
d="M853 724v-766l-136 -20v672l-188 -651l-137 -17l-194 668v-652l-135 -20v786h227l169 -612l167 612h227z" />
    <glyph glyph-name="Korea1.309" unicode="&#xff2e;" 
d="M762 -72h-136l-339 559l3 -549l-139 -20v806h133l343 -556l-4 546l139 20v-806z" />
    <glyph glyph-name="Korea1.310" unicode="&#xff2f;" 
d="M166 186v278c0 166 133 274 290 274c155 0 288 -108 288 -274v-278c0 -166 -133 -274 -288 -274c-157 0 -290 108 -290 274zM307 452v-251c0 -101 52 -171 148 -171s148 70 148 171v251c0 101 -52 171 -148 171s-148 -70 -148 -171z" />
    <glyph glyph-name="Korea1.311" unicode="&#xff30;" 
d="M753 496c0 -173 -104 -237 -260 -237h-132v-301l-142 -20v786h252c161 0 282 -52 282 -228zM608 490c0 89 -50 120 -125 120h-122v-238h124c74 0 123 27 123 118z" />
    <glyph glyph-name="Korea1.312" unicode="&#xff31;" 
d="M158 186v278c0 166 135 274 296 274c159 0 294 -108 294 -274v-278c0 -83 -34 -152 -87 -199l109 -151h-153l-62 92c-32 -10 -66 -16 -101 -16c-161 0 -296 108 -296 274zM299 452v-251c0 -101 54 -171 154 -171c11 0 22 0 32 2l-108 163h133l71 -99c17 28 26 64 26 105
v251c0 101 -54 171 -154 171s-154 -70 -154 -171z" />
    <glyph glyph-name="Korea1.313" unicode="&#xff32;" 
d="M653 238l117 -294h-151l-98 256c-23 59 -55 74 -80 74h-92v-316l-141 -20v786h283c144 0 235 -65 235 -206c0 -91 -60 -168 -143 -188v-3c33 -10 60 -62 70 -89zM590 501c0 86 -57 109 -109 109h-132v-223h108c73 0 133 31 133 114z" />
    <glyph glyph-name="Korea1.314" unicode="&#xff33;" 
d="M404 398h137c110 0 188 -88 188 -212c0 -163 -112 -238 -277 -238h-257v115h245c89 0 147 32 147 116c0 64 -33 105 -83 105h-123c-116 0 -200 88 -200 208c0 159 90 232 256 232h241l-21 -114h-208c-79 0 -127 -31 -127 -111c0 -64 29 -101 82 -101z" />
    <glyph glyph-name="Korea1.315" unicode="&#xff34;" 
d="M742 724l-20 -114h-198v-652l-140 -20v672h-217v114h575z" />
    <glyph glyph-name="Korea1.316" unicode="&#xff35;" 
d="M758 734v-506c0 -203 -111 -293 -301 -293c-192 0 -303 90 -303 293v486l142 20v-466c0 -132 41 -218 161 -218c118 0 160 86 160 218v446z" />
    <glyph glyph-name="Korea1.317" unicode="&#xff36;" 
d="M659 724h142l-256 -776h-174l-259 776h153l197 -631z" />
    <glyph glyph-name="Korea1.318" unicode="&#xff37;" 
d="M810 724h138l-175 -776h-185l-128 636h-2l-137 -636h-177l-177 776h150l123 -633h2l121 633h195l125 -633h2z" />
    <glyph glyph-name="Korea1.319" unicode="&#xff38;" 
d="M552 352l249 -404h-169l-180 310l-178 -310h-162l248 404l-226 372h167l161 -284l164 284h154z" />
    <glyph glyph-name="Korea1.320" unicode="&#xff39;" 
d="M648 724h152l-271 -454v-313l-140 -19v334l-276 452h168l181 -320z" />
    <glyph glyph-name="Korea1.321" unicode="&#xff3a;" 
d="M723 63l-20 -115h-507v118l348 544h-334v114h485v-118l-348 -543h376z" />
    <glyph glyph-name="Korea1.322" unicode="&#xff3b;" 
d="M585 -51v-96h-223v912h223v-96h-100v-720h100z" />
    <glyph glyph-name="Korea1.323" unicode="&#xffe6;" 
d="M908 366h-82l-79 -398h-177l-74 398h-84l-78 -398h-171l-79 398h-82v86h64l-53 262h145l41 -262h118l47 262h186l48 -262h121l43 262h134l-53 -262h65v-86zM303 366h-90l42 -261h2zM705 366h-92l48 -261h2zM430 452h50l-23 127h-3z" />
    <glyph glyph-name="Korea1.324" unicode="&#xff3d;" 
d="M547 765v-912h-224v96h100v720h-100v96h224z" />
    <glyph glyph-name="Korea1.325" unicode="&#xff3e;" 
d="M503 756l186 -276h-145l-89 168l-88 -168h-145l186 276h95z" />
    <glyph glyph-name="Korea1.326" unicode="&#xff3f;" 
d="M687 -107v-93h-464v93h464z" />
    <glyph glyph-name="Korea1.327" unicode="&#xff40;" 
d="M488 759l96 -172h-109l-142 172h155z" />
    <glyph glyph-name="Korea1.328" unicode="&#xff41;" 
d="M406 -65c-125 -3 -235 75 -235 214v175c0 139 107 217 234 214c81 -2 130 -33 172 -86v73l134 20v-598l-130 -20v90c-40 -56 -106 -80 -175 -82zM576 309c-1 64 -55 121 -140 124c-65 2 -124 -41 -124 -114v-166c0 -73 55 -114 119 -112c104 3 148 75 147 156z" />
    <glyph glyph-name="Korea1.329" unicode="&#xff42;" 
d="M510 -65c-69 1 -135 26 -175 82v-70l-130 -20v808l134 20v-303c42 53 91 84 172 86c127 3 234 -75 234 -214v-175c0 -139 -110 -216 -235 -214zM340 311l-2 -114c-1 -81 44 -155 149 -157c64 -1 117 40 117 113v166c0 73 -58 117 -121 115c-82 -2 -142 -59 -143 -123z
" />
    <glyph glyph-name="Korea1.330" unicode="&#xff43;" 
d="M237 315c0 147 105 231 253 231h170v-106h-156c-66 0 -126 -45 -126 -134v-128c0 -75 38 -130 124 -130h175l-20 -106h-169c-162 0 -251 95 -251 231v142z" />
    <glyph glyph-name="Korea1.331" unicode="&#xff44;" 
d="M404 -65c-125 -3 -237 75 -237 214v175c0 139 109 217 236 214c81 -2 129 -33 170 -86v283l134 20v-808l-130 -20v90c-39 -56 -104 -80 -173 -82zM572 311c-1 64 -55 122 -145 123c-67 1 -119 -42 -119 -115v-166c0 -73 47 -115 115 -113c105 3 152 74 151 157z" />
    <glyph glyph-name="Korea1.332" unicode="&#xff45;" 
d="M706 192h-376v-36c0 -80 40 -112 140 -112h211l-20 -102h-197c-174 0 -261 79 -261 219v150c0 124 102 235 259 235c139 0 244 -94 244 -229v-125zM330 302v-16h250v33c0 80 -45 125 -118 125c-88 0 -132 -58 -132 -142z" />
    <glyph glyph-name="Korea1.333" unicode="&#xff46;" 
d="M268 511h99v73c0 118 56 196 177 196h95v-107h-68c-55 0 -69 -44 -69 -95v-67h147l-20 -102h-127v-453l-135 -20v473h-99v102z" />
    <glyph glyph-name="Korea1.334" unicode="&#xff47;" 
d="M430 -27c-125 -3 -237 75 -237 214v145c0 139 109 217 236 214c63 -1 119 -27 155 -91v67l128 21v-526c0 -151 -64 -256 -287 -256h-191v105h178c126 0 162 59 164 144l1 50c-30 -50 -82 -85 -147 -87zM447 78c67 2 127 44 128 109l2 134c1 70 -57 119 -126 121
c-63 2 -117 -42 -117 -115v-136c0 -73 49 -115 113 -113z" />
    <glyph glyph-name="Korea1.335" unicode="&#xff48;" 
d="M339 755v-305c38 55 101 87 178 88c133 2 191 -93 191 -223v-357l-135 -21v326c0 80 -9 171 -99 167c-94 -4 -135 -108 -135 -192v-280l-135 -21v797z" />
    <glyph glyph-name="Korea1.336" unicode="&#xff49;" 
d="M522 755v-134h-136v134h136zM521 524v-567l-134 -20v587h134z" />
    <glyph glyph-name="Korea1.337" unicode="&#xff4a;" 
d="M528 755v-134h-137v134h137zM527 524v-569c0 -106 -14 -202 -152 -202h-73v109h38c34 0 53 28 53 107v555h134z" />
    <glyph glyph-name="Korea1.338" unicode="&#xff4b;" 
d="M506 292l232 -345h-160l-157 249l-53 -61v-178l-135 -20v798l135 20v-454l181 223h163z" />
    <glyph glyph-name="Korea1.339" unicode="&#xff4c;" 
d="M522 755v-798l-134 -20v798z" />
    <glyph glyph-name="Korea1.340" unicode="&#xff4d;" 
d="M861 328v-363l-136 -20v363c0 55 -3 132 -86 132c-97 0 -114 -113 -114 -192v-283l-134 -20v363c0 55 -4 132 -87 132c-97 0 -114 -113 -114 -192v-283l-135 -20v577l126 20v-88c46 68 110 92 168 92c74 0 131 -31 161 -101c34 70 108 101 173 101
c136 0 178 -94 178 -218z" />
    <glyph glyph-name="Korea1.341" unicode="&#xff4e;" 
d="M715 324v-358l-135 -20v326c0 80 -6 169 -106 169c-116 1 -146 -110 -146 -194v-281l-135 -20v577l129 20v-88c47 65 119 92 197 92c137 0 196 -93 196 -223z" />
    <glyph glyph-name="Korea1.342" unicode="&#xff4f;" 
d="M712 327v-175c0 -126 -97 -214 -257 -214s-256 88 -256 214v175c0 127 96 219 256 219s257 -92 257 -219zM579 164v152c0 74 -44 126 -124 126s-123 -52 -123 -126v-152c0 -71 43 -122 123 -122s124 51 124 122z" />
    <glyph glyph-name="Korea1.343" unicode="&#xff50;" 
d="M205 522l129 20l1 -86c37 63 93 88 156 90c127 5 234 -75 234 -214v-145c0 -139 -110 -217 -235 -214c-68 2 -123 40 -153 94l2 -296l-134 -20v771zM473 78c64 -2 111 40 111 113v136c0 73 -52 117 -115 115c-69 -2 -129 -51 -128 -121l2 -134c1 -65 63 -107 130 -109z
" />
    <glyph glyph-name="Korea1.344" unicode="&#xff51;" 
d="M578 522l129 20v-771l-134 -20l2 316c-30 -54 -85 -92 -153 -94c-125 -3 -235 75 -235 214v145c0 139 107 219 234 214c63 -2 119 -27 156 -90zM439 78c67 2 129 44 130 109l2 134c1 70 -59 119 -128 121c-63 2 -115 -42 -115 -115v-136c0 -73 47 -115 111 -113z" />
    <glyph glyph-name="Korea1.345" unicode="&#xff52;" 
d="M635 546v-129h-12c-115 0 -166 -88 -166 -199v-252l-135 -21v577l120 21v-118c18 68 93 121 181 121h12z" />
    <glyph glyph-name="Korea1.346" unicode="&#xff53;" 
d="M431 297l96 -1c92 -1 158 -71 158 -169c0 -122 -94 -185 -216 -185h-245v104h225c66 0 107 28 107 78c0 47 -24 73 -69 73l-110 1c-86 1 -151 73 -151 164c0 120 78 174 201 174h222l-21 -104h-187c-56 0 -86 -18 -86 -65s29 -70 76 -70z" />
    <glyph glyph-name="Korea1.347" unicode="&#xff54;" 
d="M266 527h92v117l136 29v-146h149l-20 -104h-129v-286c0 -51 18 -94 70 -94h80l-20 -106h-92c-111 0 -174 66 -174 176v310h-92v104z" />
    <glyph glyph-name="Korea1.348" unicode="&#xff55;" 
d="M707 543v-577l-129 -21v88c-42 -55 -107 -91 -183 -91c-133 0 -190 92 -190 221v359l135 21v-328c0 -80 6 -167 98 -167c106 -1 134 110 134 193v281z" />
    <glyph glyph-name="Korea1.349" unicode="&#xff56;" 
d="M603 533h134l-205 -577h-153l-207 577h145l145 -435h2z" />
    <glyph glyph-name="Korea1.350" unicode="&#xff57;" 
d="M777 533h130l-173 -577h-153l-123 460l-120 -460h-154l-181 577h143l123 -450l114 450h157l122 -448z" />
    <glyph glyph-name="Korea1.351" unicode="&#xff58;" 
d="M546 258l193 -302h-161l-129 221l-131 -221h-148l197 302l-177 275h161l112 -195l111 195h143z" />
    <glyph glyph-name="Korea1.352" unicode="&#xff59;" 
d="M602 528h136l-211 -554c-41 -109 -85 -217 -225 -217h-85v105h68c64 0 100 66 107 113l-220 553h148l142 -403z" />
    <glyph glyph-name="Korea1.353" unicode="&#xff5a;" 
d="M696 83l-20 -105h-449v104l277 345h-264v106h434v-102l-276 -348h298z" />
    <glyph glyph-name="Korea1.354" unicode="&#xff5b;" 
d="M613 -45v-81h-78c-72 0 -144 46 -144 138v160c0 78 -47 105 -86 105v85c39 0 86 26 86 99v165c0 95 75 139 144 139h78v-81h-47c-46 0 -52 -32 -52 -77v-161c0 -97 -70 -122 -111 -126v-2c41 -4 111 -22 111 -132v-154c0 -47 6 -77 52 -77h47z" />
    <glyph glyph-name="Korea1.355" unicode="&#xff5c;" 
d="M510 764v-890h-110v890h110z" />
    <glyph glyph-name="Korea1.356" unicode="&#xff5d;" 
d="M603 362v-85c-38 0 -86 -27 -86 -104v-161c0 -95 -71 -138 -144 -138h-78v81h48c45 0 51 30 51 77v155c0 108 71 127 111 131v2c-40 4 -111 28 -111 126v161c0 45 -6 77 -51 77h-48v81h78c73 0 144 -44 144 -139v-164c0 -74 48 -100 86 -100z" />
    <glyph glyph-name="Korea1.357" unicode="&#xffe3;" 
d="M921 800v-80h-927v80h927z" />
    <glyph glyph-name="Korea1.358" unicode="&#x3131;" 
d="M132 562h643c-4 -123 -17 -338 -53 -479h-140c20 74 44 278 48 379h-498v100z" />
    <glyph glyph-name="Korea1.359" unicode="&#x3132;" 
d="M345 63h-139c54 125 83 271 87 400h-189v100h326c-4 -250 -26 -343 -85 -500zM713 63h-141c48 145 72 285 72 400h-184v100h326c-9 -197 -19 -309 -73 -500z" />
    <glyph glyph-name="Korea1.360" unicode="&#x3133;" 
d="M741 571v-227c0 -18 5 -38 16 -52c40 -53 94 -109 147 -160l-80 -69c-54 45 -111 99 -151 145c-40 -47 -91 -101 -149 -148l-71 63v-38l-134 -20v397h-203v99h337v-425c49 45 94 95 136 149c12 15 18 35 18 53v215z" />
    <glyph glyph-name="Korea1.361" unicode="&#x3134;" 
d="M291 560v-362h500l-20 -99h-619v461h139z" />
    <glyph glyph-name="Korea1.362" unicode="&#x3135;" 
d="M804 472h-119v-128c0 -18 5 -38 16 -52c40 -53 93 -109 146 -160l-80 -69c-54 45 -109 99 -149 145c-40 -47 -87 -101 -145 -148l-71 62v-32c-33 -8 -88 -14 -128 -14h-143v494h133v-394h30c30 0 73 2 108 11v-49c48 45 91 94 133 147c12 15 18 35 18 53v134h-138v98h409
z" />
    <glyph glyph-name="Korea1.363" unicode="&#x3136;" 
d="M794 173c0 -77 -74 -138 -187 -138c-90 0 -155 38 -178 93v-35c-43 -11 -127 -17 -170 -17h-134v477h134v-379h26c40 0 102 6 135 14v69c0 77 74 138 187 138s187 -61 187 -138v-84zM838 519l-15 -95h-442v95h159v70l130 18v-88h168zM531 182c0 -25 23 -57 76 -57
s76 32 76 57v67c0 25 -23 57 -76 57s-76 -32 -76 -57v-67z" />
    <glyph glyph-name="Korea1.364" unicode="&#x3137;" 
d="M761 98h-607v448h609v-99h-470v-250h488z" />
    <glyph glyph-name="Korea1.365" unicode="&#x3138;" 
d="M810 193l-20 -99h-656v462h285v-99h-146v-264h187v363h333v-99h-196v-264h213z" />
    <glyph glyph-name="Korea1.366" unicode="&#x3139;" 
d="M767 67h-611v308h466v107h-470v100h608v-306h-465v-109h492z" />
    <glyph glyph-name="Korea1.367" unicode="&#x313a;" 
d="M791 572v-490l-137 -20v410h-166v100h303zM318 372v100h-194v100h323v-296h-188v-100h96c52 0 133 6 172 14v-100c-59 -10 -141 -14 -205 -14h-196v296h192z" />
    <glyph glyph-name="Korea1.368" unicode="&#x313b;" 
d="M804 571v-476l-135 -20h-201v496h336zM589 170h80v304h-80v-304zM305 372v102h-200v97h314v-293h-183v-106h80c37 0 91 4 120 8v-95c-39 -6 -103 -10 -151 -10h-178v297h198z" />
    <glyph glyph-name="Korea1.369" unicode="&#x313c;" 
d="M591 167h80v144h-80v-144zM806 570v-484l-135 -20h-209v504h129v-157h80v157h135zM305 372v102h-200v97h314v-293h-183v-106h80c37 0 91 4 120 8v-95c-39 -6 -103 -10 -151 -10h-178v297h198z" />
    <glyph glyph-name="Korea1.370" unicode="&#x313d;" 
d="M741 582v-237c0 -18 5 -38 16 -52c40 -53 92 -109 145 -160l-80 -69c-54 45 -109 99 -149 145c-40 -47 -89 -101 -147 -148l-21 18v-3c-51 -8 -121 -10 -184 -10h-192v314h196v95h-199v98h333v-291h-195v-114h90c41 0 99 2 139 8c34 35 66 71 96 110c12 15 18 35 18 53
v225z" />
    <glyph glyph-name="Korea1.371" unicode="&#x313e;" 
d="M796 78h-317v489h319v-99h-188v-97h188v-99h-188v-98h206zM320 367v101h-203v99h322v-293h-186v-96h63c40 0 105 2 133 6v-98c-38 -6 -127 -8 -185 -8h-145v289h201z" />
    <glyph glyph-name="Korea1.372" unicode="&#x313f;" 
d="M822 483h-41l-3 -314h55l-20 -90h-384v7c-38 -4 -100 -7 -145 -7h-175v290h192v116h-194v88h308v-297h-177v-107h82c39 0 99 4 127 8v-8h53l-3 314h-56v90h381v-90zM665 169l4 314h-64l4 -314h56z" />
    <glyph glyph-name="Korea1.373" unicode="&#x3140;" 
d="M258 361v113h-157v95h285v-303h-153v-95h47c38 0 108 4 140 12v-97c-38 -8 -112 -10 -158 -10h-159v285h155zM806 193c0 -77 -70 -138 -177 -138s-177 61 -177 138v74c0 77 70 138 177 138s177 -61 177 -138v-74zM840 529l-15 -95h-402v95h139v70l130 18v-88h148z
M563 202c0 -25 19 -57 66 -57s66 32 66 57v57c0 25 -19 57 -66 57s-66 -32 -66 -57v-57z" />
    <glyph glyph-name="Korea1.374" unicode="&#x3141;" 
d="M156 550h604v-425l-138 -25h-466v450zM295 199h327v252h-327v-252z" />
    <glyph glyph-name="Korea1.375" unicode="&#x3142;" 
d="M295 176h327v150h-327v-150zM295 426h327v156h138v-480l-138 -25h-466v505h139v-156z" />
    <glyph glyph-name="Korea1.376" unicode="&#x3143;" 
d="M787 576v-470l-133 -25h-516v495h133v-166h126v166h132v-166h125v166h133zM529 178h125v135h-125v-135zM271 178h126v135h-126v-135z" />
    <glyph glyph-name="Korea1.377" unicode="&#x3144;" 
d="M741 582v-237c0 -18 5 -38 16 -52c40 -53 92 -109 145 -160l-80 -69c-54 45 -109 99 -149 145c-40 -47 -89 -101 -147 -148l-61 53v-14l-128 -20h-226v490h135v-159h91v159h128v-422c44 43 85 89 124 138c12 15 18 35 18 53v225zM246 176h91v139h-91v-139z" />
    <glyph glyph-name="Korea1.378" unicode="&#x3145;" 
d="M531 577v-140c0 -21 2 -46 18 -59c71 -60 202 -159 289 -216l-74 -84c-88 56 -234 156 -302 217c-70 -60 -213 -165 -309 -224l-75 83c93 61 218 153 288 216c16 14 22 40 22 61v126z" />
    <glyph glyph-name="Korea1.379" unicode="&#x3146;" 
d="M376 576v-178c0 -21 10 -41 18 -59c15 -34 41 -77 68 -119c27 42 50 85 66 119c9 18 18 38 18 59v158l136 20v-184c0 -21 12 -44 23 -61c41 -65 84 -118 154 -192l-85 -76c-71 74 -115 128 -159 189c-28 -47 -97 -148 -157 -203c-53 54 -115 146 -147 203
c-45 -62 -90 -113 -163 -189l-86 75c68 71 113 127 155 193c11 17 23 40 23 61v164z" />
    <glyph glyph-name="Korea1.380" unicode="&#x3147;" 
d="M545 563c151 0 242 -93 242 -238s-91 -239 -242 -239h-158c-153 0 -244 94 -244 239s91 238 244 238h158zM529 464h-128c-74 0 -124 -49 -124 -139s50 -140 124 -140h128c74 0 124 50 124 140s-50 139 -124 139z" />
    <glyph glyph-name="Korea1.381" unicode="&#x3148;" 
d="M765 471h-234v-45c0 -21 2 -46 18 -59c72 -57 194 -150 284 -206l-74 -84c-91 55 -228 149 -299 207c-71 -59 -214 -156 -302 -214l-75 83c95 60 213 143 283 206c16 14 22 40 22 61v51h-246v99h643z" />
    <glyph glyph-name="Korea1.382" unicode="&#x3149;" 
d="M790 472h-108v-80c0 -21 10 -44 22 -61c42 -58 81 -109 150 -181l-85 -76c-69 72 -110 117 -155 170c-31 -47 -96 -130 -156 -185c-53 54 -114 132 -148 185c-46 -53 -85 -98 -157 -170l-86 75c67 70 109 125 151 182c13 17 22 40 22 61v80h-128v98h698zM531 339
c9 18 16 38 16 59v74h-172v-74c0 -21 7 -41 16 -59c16 -32 42 -73 71 -114c29 41 52 80 69 114z" />
    <glyph glyph-name="Korea1.383" unicode="&#x314a;" 
d="M781 443h-255v-25c0 -21 2 -46 18 -59c72 -59 191 -148 281 -206l-74 -84c-91 55 -221 149 -292 207c-71 -59 -210 -156 -298 -214l-75 83c95 60 210 145 280 206c16 14 22 40 22 61v31h-261v98h261v89l138 20v-109h275z" />
    <glyph glyph-name="Korea1.384" unicode="&#x314b;" 
d="M607 231c-154 -12 -341 -17 -479 -17v100c132 0 338 6 493 19c6 45 11 90 12 136h-491v99h631c-2 -158 -26 -366 -66 -524h-141c16 58 30 121 41 187z" />
    <glyph glyph-name="Korea1.385" unicode="&#x314c;" 
d="M295 278v-108h484l-20 -99h-603v509h604v-100h-465v-103h462v-99h-462z" />
    <glyph glyph-name="Korea1.386" unicode="&#x314d;" 
d="M369 429l7 -255h169l7 255h136l-7 -255h134l-20 -100h-683v100h127l-6 255h136zM773 464h-629v100h629v-100z" />
    <glyph glyph-name="Korea1.387" unicode="&#x314e;" 
d="M547 410c113 0 214 -41 214 -177s-101 -177 -214 -177h-176c-113 0 -214 41 -214 177s101 177 214 177h176zM791 458h-674v98h271v82l138 20v-102h285zM535 314h-152c-51 0 -92 -22 -92 -81s41 -81 92 -81h152c51 0 92 22 92 81s-41 81 -92 81z" />
    <glyph glyph-name="Korea1.388" unicode="&#x314f;" 
d="M465 765v-364h206l-20 -105h-186v-426l-137 -20v895z" />
    <glyph glyph-name="Korea1.389" unicode="&#x3150;" 
d="M416 751v-354h83v348l126 20v-895l-126 -20v446h-83v-397l-124 -20v852z" />
    <glyph glyph-name="Korea1.390" unicode="&#x3151;" 
d="M615 137h-139v-267l-138 -20v895l138 20v-247h159l-20 -100h-139v-181h159z" />
    <glyph glyph-name="Korea1.391" unicode="&#x3152;" 
d="M434 751v-189h75v183l126 20v-895l-126 -20v359h-75v-310l-124 -20v852zM434 463v-155h75v155h-75z" />
    <glyph glyph-name="Korea1.392" unicode="&#x3153;" 
d="M457 -150v446h-197v101h197v348l136 20v-895z" />
    <glyph glyph-name="Korea1.393" unicode="&#x3154;" 
d="M401 -121v415h-161v103h161v334l124 20v-852zM587 745l127 20v-895l-127 -20v895z" />
    <glyph glyph-name="Korea1.394" unicode="&#x3155;" 
d="M478 -150v331h-223v99h223v154h-223v99h223v212l135 20v-895z" />
    <glyph glyph-name="Korea1.395" unicode="&#x3156;" 
d="M396 -121v293h-153v99h153v150h-153v99h153v211l123 20v-852zM587 745l127 20v-895l-127 -20v895z" />
    <glyph glyph-name="Korea1.396" unicode="&#x3157;" 
d="M26 239h368v265h144v-265h355l-20 -100h-847v100z" />
    <glyph glyph-name="Korea1.397" unicode="&#x3158;" 
d="M785 765v-345h138l-20 -102h-118v-448l-138 -20v895zM395 349v-197c74 4 152 11 217 22v-100c-142 -19 -296 -25 -450 -25h-121v100h213v200h141z" />
    <glyph glyph-name="Korea1.398" unicode="&#x3159;" 
d="M644 751v-339h59v333l122 20v-895l-122 -20v460h-59v-411l-120 -20v852zM55 149h164v197h126v-191c52 4 101 10 143 19v-96c-89 -13 -222 -23 -329 -23h-104v94z" />
    <glyph glyph-name="Korea1.399" unicode="&#x315a;" 
d="M408 349v-197c77 3 162 10 229 22v-100c-143 -19 -296 -25 -450 -25h-132v100h213v200h140zM674 745l135 20v-895l-135 -20v895z" />
    <glyph glyph-name="Korea1.400" unicode="&#x315b;" 
d="M26 239h214v267h137v-267h163v267h137v-267h216l-20 -100h-847v100z" />
    <glyph glyph-name="Korea1.401" unicode="&#x315c;" 
d="M873 350h-337v-367l-140 -20v387h-370v99h867z" />
    <glyph glyph-name="Korea1.402" unicode="&#x315d;" 
d="M674 -150v207h-209v99h209v589l135 20v-895zM388 238v-349l-138 -20v365h-195v100h180c121 0 280 8 402 29v-101c-75 -13 -160 -20 -249 -24z" />
    <glyph glyph-name="Korea1.403" unicode="&#x315e;" 
d="M536 -121v197h-152v98h152v557l120 20v-852zM699 745l122 20v-895l-122 -20v895zM335 249v-342l-122 -20v357h-158v100h158c88 0 205 7 287 25v-101c-47 -8 -104 -14 -165 -19z" />
    <glyph glyph-name="Korea1.404" unicode="&#x315f;" 
d="M809 765v-895l-135 -20v895zM272 225h-217v99h180c121 0 280 8 402 29v-101c-76 -13 -153 -20 -229 -23v-340l-136 -20v356z" />
    <glyph glyph-name="Korea1.405" unicode="&#x3160;" 
d="M560 362h-187v-368l-137 -20v388h-210v100h867l-20 -100h-176v-372l-137 -20v392z" />
    <glyph glyph-name="Korea1.406" unicode="&#x3161;" 
d="M893 362l-20 -99h-847v99h867z" />
    <glyph glyph-name="Korea1.407" unicode="&#x3162;" 
d="M809 765v-895l-135 -20v895zM205 53h-150v99h180c121 0 280 8 402 30v-102c-129 -21 -281 -27 -432 -27z" />
    <glyph glyph-name="Korea1.408" unicode="&#x3163;" 
d="M530 765v-895l-135 -20v895z" />
    <glyph glyph-name="Korea1.409" unicode="&#x3165;" 
d="M788 163v-105h-313v484h127v-379h186zM439 163v-105h-313v484h125v-379h188z" />
    <glyph glyph-name="Korea1.410" unicode="&#x3166;" 
d="M788 163v-105h-313v484h313v-105h-186v-274h186zM439 163v-105h-313v484h125v-379h188z" />
    <glyph glyph-name="Korea1.411" unicode="&#x3167;" 
d="M247 163h179v-105h-300v484h121v-379zM508 39l-74 78c49 31 85 67 112 112c26 39 41 128 41 206v107h121v-107c0 -79 15 -167 41 -206c28 -46 80 -97 118 -113l-78 -77c-21 8 -72 50 -97 80c-18 20 -36 47 -45 70c-9 -23 -26 -50 -43 -70c-24 -30 -77 -72 -96 -80z" />
    <glyph glyph-name="Korea1.412" unicode="&#x3168;" 
d="M631 577l189 -519h-376zM427 163v-105h-302v484h126v-379h176zM590 159h85l-43 117z" />
    <glyph glyph-name="Korea1.413" unicode="&#x3169;" 
d="M251 163v-105h-242v291h127v88h-127v105h242v-298h-126v-81h126zM909 124l-75 -76c-20 7 -57 28 -82 56c-21 24 -38 47 -44 70c-5 -23 -24 -48 -43 -70c-27 -28 -63 -51 -83 -57l-54 54v-43h-114v379h-137v105h251v-411c29 15 71 52 91 99c18 44 31 129 31 207v105h117
v-105c0 -78 11 -163 31 -207c23 -56 79 -100 111 -106z" />
    <glyph glyph-name="Korea1.414" unicode="&#x316a;" 
d="M788 163v-105h-313v484h313v-105h-196v-274h196zM439 163v-105h-314v291h188v88h-188v105h314v-298h-190v-81h190z" />
    <glyph glyph-name="Korea1.415" unicode="&#x316b;" 
d="M259 163v-105h-243v291h127v88h-127v105h243v-298h-127v-81h127zM904 124l-72 -76c-22 7 -59 28 -82 56c-23 24 -38 47 -45 70c-6 -23 -25 -48 -44 -70c-26 -28 -62 -51 -83 -57l-35 37c1 -4 4 -25 4 -26h-251v484h108v-139h35v139h107v-398c27 18 56 49 71 86
c19 44 31 129 31 207v105h112v-105c0 -78 13 -163 32 -207c24 -56 80 -100 112 -106zM404 163h35v135h-35v-135z" />
    <glyph glyph-name="Korea1.416" unicode="&#x316c;" 
d="M641 577l189 -519h-375zM438 163v-105h-314v291h189v88h-189v105h314v-298h-189v-81h189zM600 159h85l-43 117z" />
    <glyph glyph-name="Korea1.417" unicode="&#x316d;" 
d="M814 542v-105h-349v105h349zM438 163v-105h-314v291h189v88h-189v105h314v-298h-189v-81h189zM640 352c93 0 171 -71 171 -157s-78 -157 -171 -157c-92 0 -168 71 -168 157s76 157 168 157zM640 137c34 0 57 26 57 58s-23 58 -57 58c-30 0 -56 -26 -56 -58s26 -58 56 -58
z" />
    <glyph glyph-name="Korea1.418" unicode="&#x316e;" 
d="M788 542v-484h-313v484h127v-136h62v136h124zM439 542v-484h-313v484h313zM251 163h62v274h-62v-274zM602 163h62v138h-62v-138z" />
    <glyph glyph-name="Korea1.419" unicode="&#x316f;" 
d="M250 163h62v274h-62v-274zM125 542h313v-425c35 17 89 67 118 112c26 39 44 128 44 206v107h124v-107c0 -79 18 -167 44 -206c29 -46 84 -97 121 -113l-80 -77c-23 8 -76 50 -102 80c-17 20 -36 47 -44 70c-10 -23 -29 -50 -46 -70c-25 -30 -80 -72 -101 -80l-78 75v-56
h-313v484z" />
    <glyph glyph-name="Korea1.420" unicode="&#x3170;" 
d="M635 577l189 -519h-377zM438 542v-484h-313v484h313zM251 163h62v274h-62v-274zM592 159h84l-41 117z" />
    <glyph glyph-name="Korea1.421" unicode="&#x3171;" 
d="M706 682v-364h-498v364h498zM457 296c152 0 258 -83 258 -196s-107 -196 -258 -196c-149 0 -258 83 -258 196s109 196 258 196zM326 423h262v154h-262v-154zM457 3c76 0 135 39 135 97c0 57 -59 97 -135 97s-134 -41 -134 -97c0 -57 59 -97 134 -97z" />
    <glyph glyph-name="Korea1.422" unicode="&#x3172;" 
d="M438 542v-484h-313v484h126v-143h62v143h125zM809 542v-494h-125v389h-209v105h334zM251 163h62v131h-62v-131z" />
    <glyph glyph-name="Korea1.423" unicode="&#x3173;" 
d="M788 163v-105h-313v484h313v-105h-196v-274h196zM439 542v-484h-313v484h125v-143h62v143h126zM251 163h62v131h-62v-131z" />
    <glyph glyph-name="Korea1.424" unicode="&#x3174;" 
d="M851 542v-484h-118v377h-133v107h251zM689 122l-76 -75c-20 7 -58 30 -80 58c-22 25 -39 50 -45 73c-6 -23 -25 -50 -45 -73c-27 -28 -62 -52 -82 -58l-48 48v-37h-260v484h113v-139h35v139h112v-408c34 21 67 59 85 97c18 44 33 128 33 206v105h114v-105
c0 -78 11 -162 32 -206c23 -48 71 -94 112 -109zM166 163h35v135h-35v-135z" />
    <glyph glyph-name="Korea1.425" unicode="&#x3175;" 
d="M855 163v-105h-219v27l-37 -37c-23 7 -61 28 -83 57c-20 25 -38 50 -44 73c-7 -23 -26 -50 -46 -73c-24 -28 -61 -52 -80 -58l-33 33v-22h-260v484h113v-139h35v139h112v-397c25 19 53 50 69 86c20 44 32 128 32 206v105h114v-105c0 -78 14 -162 34 -206
c16 -37 47 -70 74 -89v400h219v-105h-105v-274h105zM166 163h35v135h-35v-135z" />
    <glyph glyph-name="Korea1.426" unicode="&#x3176;" 
d="M835 116l-77 -78c-20 7 -65 40 -91 69c-23 22 -44 55 -50 79c-7 -24 -30 -56 -50 -79c-26 -29 -71 -61 -94 -69l-35 35v-15h-313v484h126v-143h62v143h125v-402c25 19 54 48 73 80c24 41 42 121 42 200v17h-88v105h313v-105h-99v-17c0 -80 18 -159 43 -200
c27 -48 79 -90 113 -104zM251 163h62v131h-62v-131z" />
    <glyph glyph-name="Korea1.427" unicode="&#x3177;" 
d="M788 163v-105h-313v484h313v-105h-186v-84h180v-106h-180v-84h186zM439 542v-484h-313v484h125v-143h62v143h126zM251 163h62v131h-62v-131z" />
    <glyph glyph-name="Korea1.428" unicode="&#x3178;" 
d="M706 682v-364h-498v364h115v-83h269v83h114zM457 294c151 0 256 -82 256 -194s-107 -194 -256 -194c-148 0 -256 82 -256 194s108 194 256 194zM323 422h269v73h-269v-73zM457 4c75 0 133 40 133 96c0 55 -58 96 -133 96s-133 -42 -133 -96c0 -55 60 -96 133 -96z" />
    <glyph glyph-name="Korea1.429" unicode="&#x3179;" 
d="M726 682v-364h-251v364h107v-92h39v92h105zM439 682v-364h-251v364h106v-92h39v92h106zM457 294c151 0 256 -82 256 -194s-107 -194 -256 -194c-148 0 -256 82 -256 194s108 194 256 194zM582 415h40v78h-40v-78zM294 415h40v78h-40v-78zM457 4c75 0 133 39 133 96
c0 56 -58 96 -133 96s-133 -41 -133 -96c0 -56 60 -96 133 -96z" />
    <glyph glyph-name="Korea1.430" unicode="&#x317a;" 
d="M789 542v-494h-125v389h-210v105h335zM531 110l-81 -73c-22 7 -71 45 -99 74c-21 23 -40 55 -46 79c-9 -24 -28 -55 -48 -79c-26 -28 -78 -67 -99 -74l-82 73c33 14 90 64 118 109c26 40 45 132 45 210v113h130v-113c0 -79 20 -170 46 -210c29 -45 84 -95 116 -109z" />
    <glyph glyph-name="Korea1.431" unicode="&#x317b;" 
d="M799 163v-105h-312v29l-57 -50c-22 7 -71 45 -99 74c-21 23 -41 55 -47 79c-7 -24 -27 -55 -49 -79c-24 -28 -77 -67 -98 -74l-81 73c32 14 89 64 118 109c26 40 45 132 45 210v113h128v-113c0 -79 22 -170 47 -210c23 -36 62 -75 93 -95v418h125v-379h187z" />
    <glyph glyph-name="Korea1.432" unicode="&#x317c;" 
d="M799 163v-105h-312v29l-57 -50c-22 7 -71 45 -99 74c-21 23 -41 55 -47 79c-7 -24 -27 -55 -49 -79c-24 -28 -77 -67 -98 -74l-81 73c32 14 89 64 118 109c26 40 45 132 45 210v113h128v-113c0 -79 22 -170 47 -210c23 -36 62 -75 93 -95v418h312v-105h-197v-274h197z
" />
    <glyph glyph-name="Korea1.433" unicode="&#x317d;" 
d="M799 542v-484h-312v29l-57 -50c-22 7 -71 45 -99 74c-21 23 -41 55 -47 79c-7 -24 -27 -55 -49 -79c-24 -28 -77 -67 -98 -74l-81 73c32 14 89 64 118 109c26 40 45 132 45 210v113h128v-113c0 -79 22 -170 47 -210c23 -36 62 -75 93 -95v418h122v-136h69v136h121z
M609 163h69v138h-69v-138z" />
    <glyph glyph-name="Korea1.434" unicode="&#x317e;" 
d="M828 118l-78 -81c-23 7 -69 44 -96 72c-22 22 -43 55 -51 78c-6 -23 -28 -56 -49 -78c-27 -28 -72 -63 -95 -72c-24 10 -72 45 -98 74c-22 23 -42 55 -48 79c-7 -24 -26 -56 -47 -79c-26 -29 -78 -67 -100 -74l-80 73c31 14 89 64 117 109c26 40 45 132 45 210v114h130
v-114c0 -79 20 -170 45 -210c10 -14 21 -29 32 -42c16 13 27 28 38 45c25 41 46 129 46 207v7h-110v106h351v-106h-112v-7c0 -79 20 -165 46 -207c30 -48 82 -90 114 -104z" />
    <glyph glyph-name="Korea1.435" unicode="&#x317f;" 
d="M457 610l263 -552h-522zM367 162h180l-90 195z" />
    <glyph glyph-name="Korea1.436" unicode="&#x3180;" 
d="M661 559c108 0 185 -91 185 -260c0 -167 -77 -260 -185 -260c-106 0 -186 93 -186 260c0 169 80 260 186 260zM253 559c108 0 186 -91 186 -260c0 -167 -78 -260 -186 -260c-106 0 -185 93 -185 260c0 169 79 260 185 260zM662 143c45 0 70 63 70 157
c0 92 -25 155 -70 155c-47 0 -72 -63 -72 -155c0 -94 25 -157 72 -157zM254 143c46 0 70 63 70 157c0 92 -24 155 -70 155s-72 -63 -72 -155c0 -94 26 -157 72 -157z" />
    <glyph glyph-name="Korea1.437" unicode="&#x3181;" 
d="M521 662v-160c140 -26 234 -136 234 -283c0 -169 -125 -289 -298 -289c-172 0 -298 121 -298 289c0 146 94 257 234 283v160h128zM457 38c100 0 175 77 175 181c0 103 -74 181 -175 181s-175 -79 -175 -181c0 -103 74 -181 175 -181z" />
    <glyph glyph-name="Korea1.438" unicode="&#x3182;" 
d="M499 39l-79 76c-32 -44 -85 -67 -146 -67c-106 0 -186 68 -186 199c0 107 51 174 128 196v114h119v-115c74 -23 125 -90 125 -195c0 -54 -17 -98 -39 -130c36 17 90 67 118 112c26 39 44 128 44 206v113h124v-113c0 -79 18 -167 42 -206c31 -46 86 -97 124 -113l-81 -77
c-22 8 -75 50 -102 80c-16 20 -36 47 -45 70c-9 -23 -27 -50 -45 -70c-26 -30 -80 -72 -101 -80zM275 144c45 0 70 42 70 104c0 60 -25 102 -70 102c-47 0 -73 -42 -73 -102c0 -62 26 -104 73 -104z" />
    <glyph glyph-name="Korea1.439" unicode="&#x3183;" 
d="M631 577l189 -519h-375zM336 557v-115c73 -23 124 -90 124 -195c0 -131 -79 -199 -186 -199c-106 0 -185 68 -185 199c0 107 51 174 127 196v114h120zM276 144c44 0 70 42 70 104c0 60 -26 102 -70 102c-47 0 -74 -42 -74 -102c0 -62 27 -104 74 -104zM592 159h82
l-42 117z" />
    <glyph glyph-name="Korea1.440" unicode="&#x3184;" 
d="M716 423v-105h-518v105h81v154h-81v105h518v-105h-81v-154h81zM457 295c151 0 257 -82 257 -195s-108 -195 -257 -195c-148 0 -257 82 -257 195s109 195 257 195zM398 423h118v154h-118v-154zM457 4c76 0 134 39 134 96c0 56 -58 96 -134 96s-134 -41 -134 -96
c0 -56 59 -96 134 -96z" />
    <glyph glyph-name="Korea1.441" unicode="&#x3185;" 
d="M788 455v-105h-313v105h100v97c0 23 -1 23 -3 47h122c-2 -24 -4 -24 -4 -47v-97h98zM439 455v-105h-313v105h98v97c0 23 -1 23 -3 47h122c-2 -24 -4 -24 -4 -47v-97h100zM631 323c85 0 155 -68 155 -149c0 -82 -70 -150 -155 -150c-84 0 -152 68 -152 150
c0 81 68 149 152 149zM283 323c84 0 152 -68 152 -149c0 -82 -68 -150 -152 -150c-85 0 -154 68 -154 150c0 81 69 149 154 149zM631 112c26 0 52 30 52 62c0 31 -26 61 -52 61s-50 -30 -50 -61c0 -32 24 -62 50 -62zM283 112c23 0 50 30 50 62c0 31 -27 61 -50 61
c-28 0 -52 -30 -52 -61c0 -32 24 -62 52 -62z" />
    <glyph glyph-name="Korea1.442" unicode="&#x3186;" 
d="M726 642v-107h-538v107h538zM457 466c151 0 258 -100 258 -236s-109 -236 -258 -236c-148 0 -258 100 -258 236s110 236 258 236zM457 97c76 0 136 56 136 133c0 76 -60 133 -136 133s-135 -58 -135 -133c0 -76 59 -133 135 -133z" />
    <glyph glyph-name="Korea1.443" unicode="&#x3187;" 
d="M901 273v-117h-143v-308h-131v894h131v-229h143v-116h-143v-124h143zM602 206v-106c-74 -9 -156 -15 -228 -18c-127 -6 -341 -4 -341 -4v107h110v277h126v-276c44 0 71 1 99 2c1 0 1 9 2 9v265h127v-267c38 2 68 6 105 11z" />
    <glyph glyph-name="Korea1.444" unicode="&#x3188;" 
d="M840 743v-895h-121v301h-64v-261h-122v844h122v-212h64v223h121zM512 210v-103c-59 -8 -184 -17 -245 -18c-78 -2 -244 -1 -244 -1v107h88v277h119v-277c33 0 48 1 76 1v276h120v-271c38 3 57 5 86 9zM655 255h64v158h-64v-158z" />
    <glyph glyph-name="Korea1.445" unicode="&#x3189;" 
d="M809 742v-894h-129v894h129zM654 206v-106c-71 -9 -160 -15 -232 -18c-127 -6 -352 -4 -352 -4v107h111v277h127v-276c42 0 77 1 105 2c2 0 2 9 2 9v265h127v-267c39 2 76 6 112 11z" />
    <glyph glyph-name="Korea1.446" unicode="&#x318a;" 
d="M840 742v-894h-128v123h-192v98h192v58h-192v99h192v516h128zM676 407v-107c-67 -11 -57 -13 -168 -18c-17 -1 -19 -2 -40 -2v-382h-117v380h-89v-380h-117v380h-94v105s294 -1 400 3c112 4 168 7 225 21z" />
    <glyph glyph-name="Korea1.447" unicode="&#x318b;" 
d="M677 732v-844h-119v105h-128v98h128v69h-128v99h128v473h119zM851 742v-894h-117v894h117zM527 440v-104c-52 -10 -31 -11 -120 -16c-8 0 -14 -1 -21 -1v-421h-111v418h-63v-418h-112v418h-79v105s263 -1 348 3c86 4 122 8 158 16z" />
    <glyph glyph-name="Korea1.448" unicode="&#x318c;" 
d="M840 742v-894h-129v894h129zM686 404v-108c-41 -6 -75 -10 -128 -12v-386h-123v381c-37 -1 -64 -1 -107 -1v-380h-125v380h-139v107s290 -1 397 2c82 2 175 10 225 17z" />
    <glyph glyph-name="Korea1.449" unicode="&#x318d;" 
d="M457 380c46 0 82 -35 82 -80s-36 -80 -82 -80s-82 35 -82 80s36 80 82 80z" />
    <glyph glyph-name="Korea1.450" unicode="&#x318e;" 
d="M348 378c47 0 78 -32 78 -78s-31 -79 -78 -79c-46 0 -79 33 -79 79s33 78 79 78zM629 746v-907h-113v907h113z" />
    <glyph glyph-name="Korea1.451" unicode="&#x2170;" 
d="M518 696v-125h-120v125h120zM518 487v-555h-120v555h120z" />
    <glyph glyph-name="Korea1.452" unicode="&#x2171;" 
d="M683 683v-125h-119v125h119zM352 683v-125h-117v125h117zM683 474v-555h-119v555h119zM352 474v-555h-117v555h117z" />
    <glyph glyph-name="Korea1.453" unicode="&#x2172;" 
d="M735 683v-125h-117v125h117zM519 683v-125h-119v125h119zM302 683v-125h-118v125h118zM735 474v-555h-117v555h117zM519 474v-555h-119v555h119zM302 474v-555h-118v555h118z" />
    <glyph glyph-name="Korea1.454" unicode="&#x2173;" 
d="M265 683v-125h-121v125h121zM701 473h140l-199 -547h-150l-197 547h140l133 -392zM265 473v-554h-121v554h121z" />
    <glyph glyph-name="Korea1.455" unicode="&#x2174;" 
d="M595 495h130l-200 -568h-137l-197 568h130l134 -413z" />
    <glyph glyph-name="Korea1.456" unicode="&#x2175;" 
d="M800 695v-125h-120v125h120zM505 485h138l-194 -547h-146l-195 547h138l130 -392zM800 485v-554h-120v554h120z" />
    <glyph glyph-name="Korea1.457" unicode="&#x2176;" 
d="M839 693v-125h-109v125h109zM687 693v-125h-110v125h110zM416 484h136l-176 -548h-149l-178 548h135l117 -388zM839 484v-555h-109v555h109zM687 484v-555h-110v555h110z" />
    <glyph glyph-name="Korea1.458" unicode="&#x2177;" 
d="M887 693v-125h-104v125h104zM744 693v-125h-104v125h104zM602 693v-125h-104v125h104zM345 484h135l-160 -548h-154l-160 548h132l104 -394zM887 484v-555h-104v555h104zM744 484v-555h-104v555h104zM602 484v-555h-104v555h104z" />
    <glyph glyph-name="Korea1.459" unicode="&#x2178;" 
d="M630 212l184 -284h-146l-111 169l-109 -169h-145l185 284l-176 270h144l101 -156l102 156h146zM275 693v-125h-121v125h121zM275 483v-554h-121v554h121z" />
    <glyph glyph-name="Korea1.460" unicode="&#x2179;" 
d="M532 222l193 -291h-144l-122 181l-125 -181h-143l194 291l-185 277h145l114 -167l112 167h144z" />
    <glyph glyph-name="Korea1.461" unicode="&#x2160;" 
d="M517 692v-764h-120v764h120z" />
    <glyph glyph-name="Korea1.462" unicode="&#x2161;" 
d="M685 693v-764h-119v764h119zM349 693v-764h-119v764h119z" />
    <glyph glyph-name="Korea1.463" unicode="&#x2162;" 
d="M725 693v-764h-119v764h119zM517 693v-764h-119v764h119zM308 693v-764h-119v764h119z" />
    <glyph glyph-name="Korea1.464" unicode="&#x2163;" 
d="M685 683h132l-206 -764h-143l-205 764h132l143 -578zM246 683v-764h-121v764h121z" />
    <glyph glyph-name="Korea1.465" unicode="&#x2164;" 
d="M674 693h136l-273 -764h-144l-273 764h138l207 -607z" />
    <glyph glyph-name="Korea1.466" unicode="&#x2165;" 
d="M792 693v-764h-123v764h123zM512 693h133l-202 -764h-143l-201 764h131l142 -578z" />
    <glyph glyph-name="Korea1.467" unicode="&#x2166;" 
d="M833 693v-764h-113v764h113zM679 693v-764h-112v764h112zM417 693h132l-176 -764h-145l-178 764h135l116 -571z" />
    <glyph glyph-name="Korea1.468" unicode="&#x2167;" 
d="M881 692v-763h-103v763h103zM739 692v-763h-104v763h104zM595 692v-763h-103v763h103zM351 692h114l-145 -763h-139l-146 763h113l101 -572z" />
    <glyph glyph-name="Korea1.469" unicode="&#x2168;" 
d="M611 315l221 -390h-136l-152 270l-151 -270h-135l219 390l-214 380h135l146 -261l148 261h133zM224 695v-770h-119v770h119z" />
    <glyph glyph-name="Korea1.470" unicode="&#x2169;" 
d="M530 325l257 -400h-136l-187 294l-186 -294h-134l254 400l-235 370h133l168 -265l167 265h137z" />
    <glyph glyph-name="Korea1.471" unicode="&#x391;" 
d="M565 685h139l84 -764h-134l-17 177h-320l-116 -177h-140zM594 549l-205 -336l235 -1z" />
    <glyph glyph-name="Korea1.472" unicode="&#x392;" 
d="M336 688l227 -1c76 -1 123 -15 161 -62c33 -37 47 -74 47 -126c0 -93 -48 -149 -124 -182c56 -25 97 -88 97 -180c0 -66 -22 -124 -67 -163c-46 -38 -96 -55 -172 -55h-391zM363 379h146c81 0 146 53 146 113c0 52 -41 91 -100 91h-132zM336 272l-72 -248h241
c80 0 132 45 132 114c0 75 -56 134 -128 134h-173z" />
    <glyph glyph-name="Korea1.473" unicode="&#x393;" 
d="M108 -80l227 765h414l66 -170l-111 -40l-46 99h-228l-192 -654h-130z" />
    <glyph glyph-name="Korea1.474" unicode="&#x394;" 
d="M655 691h126v-772h-735zM662 521l-396 -491h395z" />
    <glyph glyph-name="Korea1.475" unicode="&#x395;" 
d="M451 582l-71 -213h316l-38 -106h-316l-74 -241h350l-28 -105h-486l257 772h446l-29 -107h-327z" />
    <glyph glyph-name="Korea1.476" unicode="&#x396;" 
d="M274 573l16 117h503l-25 -133l-491 -523h387l-22 -116h-535l25 124l495 531h-353z" />
    <glyph glyph-name="Korea1.477" unicode="&#x397;" 
d="M311 379h343l86 309h121l-217 -768h-122l99 348h-345l-99 -348h-124l226 768h121z" />
    <glyph glyph-name="Korea1.478" unicode="&#x398;" 
d="M247 587c56 66 160 110 271 110c177 0 288 -106 288 -271c0 -120 -54 -300 -110 -379c-60 -81 -178 -139 -289 -139c-60 0 -130 20 -176 48c-78 45 -121 128 -121 231c0 133 63 310 137 400zM697 450c0 99 -63 148 -184 148c-122 0 -192 -52 -245 -180
c-30 -76 -47 -150 -47 -229c0 -111 71 -180 185 -180c131 0 189 50 243 198c30 83 48 170 48 243zM383 399l-13 -56h180l13 56h62l-44 -193h-62l13 55h-179l-13 -55h-63l44 193h62z" />
    <glyph glyph-name="Korea1.479" unicode="&#x399;" 
d="M300 -82l189 772h127l-192 -772h-124z" />
    <glyph glyph-name="Korea1.480" unicode="&#x39a;" 
d="M124 -82l135 773h125l-61 -313l315 313h162l-396 -381l297 -392h-150l-249 333l-61 -333h-117z" />
    <glyph glyph-name="Korea1.481" unicode="&#x39b;" 
d="M519 691h159v-774h-133v596l-322 -596h-133z" />
    <glyph glyph-name="Korea1.482" unicode="&#x39c;" 
d="M425 139l283 551h159l-135 -771h-119l99 549l-287 -549h-69l-88 572l-98 -572h-118l136 771h153z" />
    <glyph glyph-name="Korea1.483" unicode="&#x39d;" 
d="M581 123l104 566h127l-154 -773h-132l-187 592l-111 -592h-127l151 773h147z" />
    <glyph glyph-name="Korea1.484" unicode="&#x39e;" 
d="M732 523h-86l10 55h-263l-18 -55h-91l37 161h455zM648 256h-405l29 107h404zM592 84h92l-45 -161h-506l43 161h92l-14 -55h320z" />
    <glyph glyph-name="Korea1.485" unicode="&#x39f;" 
d="M254 582c62 73 148 113 246 113c179 0 288 -114 288 -299c0 -141 -38 -269 -112 -361c-63 -79 -153 -123 -256 -123c-181 0 -291 115 -291 308c0 135 48 273 125 362zM658 387c0 134 -56 210 -157 210c-69 0 -130 -36 -170 -98c-46 -73 -80 -195 -80 -298
c0 -113 62 -181 165 -181c93 0 156 50 200 163c29 71 42 134 42 204z" />
    <glyph glyph-name="Korea1.486" unicode="&#x3a0;" 
d="M181 580l18 109h609l-22 -109h-52l-113 -662h-120l117 662h-269l-123 -662h-120l122 662h-47z" />
    <glyph glyph-name="Korea1.487" unicode="&#x3a1;" 
d="M146 -82l155 772h241c143 0 227 -74 227 -199c0 -165 -93 -259 -254 -259h-183l-64 -314h-122zM394 578l-40 -236h160c88 0 134 51 134 145c0 63 -32 91 -109 91h-145z" />
    <glyph glyph-name="Korea1.488" unicode="&#x3a3;" 
d="M402 579l165 -257l-270 -296h373l-21 -108h-530l26 115l272 293l-165 252l24 110h496l-22 -109h-348z" />
    <glyph glyph-name="Korea1.489" unicode="&#x3a4;" 
d="M295 -84l121 662h-218l23 111h541l-25 -111h-201l-121 -662h-120z" />
    <glyph glyph-name="Korea1.490" unicode="&#x3a5;" 
d="M436 532c31 54 62 80 114 110c62 32 89 38 206 45l-25 -118c-102 -10 -166 -44 -210 -108c-30 -36 -60 -120 -74 -191l-57 -351h-115l62 389c6 34 9 64 9 87c0 96 -33 153 -141 197l38 102c102 -33 136 -59 173 -117c12 -20 17 -30 20 -45z" />
    <glyph glyph-name="Korea1.491" unicode="&#x3a6;" 
d="M480 689h113l-14 -64c170 -30 243 -118 243 -276c0 -134 -65 -259 -164 -317c-49 -31 -112 -41 -205 -41l-14 -73h-110l19 79c-59 10 -100 22 -131 38c-73 42 -116 125 -116 228c0 129 60 243 159 311c56 35 118 53 210 58zM563 523l-91 -423h23c56 0 61 6 90 20
c82 45 122 124 122 238c0 64 -30 120 -79 147c-20 11 -39 14 -65 18zM364 111l91 422c-78 -6 -101 -13 -141 -43c-68 -49 -102 -120 -102 -212c0 -94 47 -149 152 -167z" />
    <glyph glyph-name="Korea1.492" unicode="&#x3a7;" 
d="M495 438l184 251h143l-274 -370l167 -402h-136l-118 303l-222 -303h-148l310 418l-141 354h134z" />
    <glyph glyph-name="Korea1.493" unicode="&#x3a8;" 
d="M416 -81h-117l42 225c-168 6 -237 61 -237 181c0 27 10 93 27 180c7 39 13 71 13 98c0 42 -8 64 -24 86h138c9 -19 12 -31 12 -55c0 -21 -12 -89 -28 -150c-19 -75 -26 -110 -26 -147c0 -16 1 -21 15 -44c14 -27 45 -36 125 -38l74 434h122l-76 -441
c153 6 162 17 202 281c16 102 26 140 43 160h142c-18 -14 -26 -30 -35 -52c-13 -29 -27 -92 -37 -158c-19 -123 -39 -188 -61 -232c-43 -73 -119 -110 -231 -110h-44z" />
    <glyph glyph-name="Korea1.494" unicode="&#x3a9;" 
d="M361 -81h-280l30 110h169c-58 59 -77 93 -97 155c-14 45 -19 90 -19 132c0 214 140 372 332 372c181 0 305 -115 305 -283c0 -96 -31 -193 -80 -258c-24 -29 -67 -65 -136 -118h146l-19 -110h-289l31 149c157 95 224 189 224 319c0 114 -74 191 -180 191
c-130 0 -213 -108 -213 -277c0 -102 30 -164 110 -238z" />
    <glyph glyph-name="Korea1.495" unicode="&#x3b1;" 
d="M701 458l107 -33c-48 -147 -90 -223 -202 -353c14 -34 33 -44 78 -44l-49 -102c-71 0 -98 13 -126 60c-57 -46 -100 -62 -159 -62c-109 0 -183 78 -183 195c0 79 32 173 81 243c54 76 134 118 218 118c90 0 145 -48 145 -130c0 -26 -3 -73 -10 -114l6 -2
c49 73 66 116 94 224zM466 64c14 11 19 18 21 20c1 34 2 46 8 116c3 17 4 42 7 70v22c1 21 1 22 1 25c0 35 -21 58 -52 58c-74 0 -159 -131 -159 -246c0 -62 35 -103 86 -103c22 0 42 6 63 20c8 4 11 8 25 18z" />
    <glyph glyph-name="Korea1.496" unicode="&#x3b2;" 
d="M309 -29l-27 -141h-123l117 605c31 170 124 264 261 264c110 0 183 -63 183 -162c0 -92 -50 -154 -140 -186c78 -34 118 -99 118 -201c0 -143 -96 -241 -237 -241c-65 0 -110 19 -152 62zM439 287l-38 -1l18 109h45c71 0 124 55 124 127c0 43 -23 66 -60 66
c-57 0 -102 -51 -121 -143l-70 -330c-2 -10 5 -35 13 -49c19 -27 57 -48 98 -48c71 0 116 54 116 138c0 80 -50 132 -125 131z" />
    <glyph glyph-name="Korea1.497" unicode="&#x3b3;" 
d="M473 153l-37 -239h-132l35 228c4 32 8 70 8 92c0 74 -36 124 -95 124c-16 0 -33 -3 -73 -19l19 119c33 12 54 16 82 16c74 0 121 -40 154 -133c66 104 110 133 202 133c34 0 58 -4 114 -21l-26 -116c-31 16 -48 21 -75 21c-47 0 -96 -25 -128 -66
c-21 -27 -37 -75 -48 -139z" />
    <glyph glyph-name="Korea1.498" unicode="&#x3b4;" 
d="M728 669l-21 -114c-75 16 -93 20 -114 23c-25 4 -65 7 -82 7c-22 0 -40 -6 -40 -16c-1 -4 15 -22 30 -36l13 -10c126 -99 170 -176 170 -291c0 -63 -19 -131 -53 -189c-48 -85 -122 -129 -215 -129c-139 0 -229 94 -229 239c0 86 30 172 80 223c41 39 84 57 163 73
c-119 104 -128 113 -128 152c0 62 75 93 221 93c67 0 111 -7 205 -25zM557 221c0 79 -40 130 -98 130c-71 0 -141 -102 -141 -209c0 -71 40 -121 97 -121c77 0 142 92 142 200z" />
    <glyph glyph-name="Korea1.499" unicode="&#x3b5;" 
d="M676 97l-25 -135c-69 -32 -157 -49 -244 -49c-152 0 -231 56 -231 163c0 78 34 122 111 148c-38 40 -51 66 -51 106c0 95 89 156 231 156c97 0 156 -16 236 -62l-26 -108c-68 37 -140 57 -204 57c-67 0 -102 -19 -102 -52c0 -25 25 -39 74 -39h96l-22 -116h-77
c-89 0 -127 -23 -127 -71c0 -43 36 -66 113 -66c85 0 155 19 248 68z" />
    <glyph glyph-name="Korea1.500" unicode="&#x3b6;" 
d="M253 542l30 108h299c2 4 5 8 7 10c20 22 31 31 41 31c5 0 15 -2 19 -7l19 -14l52 -40c7 -6 8 -7 12 -14c2 -5 6 -12 6 -15c0 -11 -16 -24 -33 -28c-18 -3 -23 -4 -33 -13c-60 -49 -80 -69 -130 -124c-55 -61 -135 -160 -170 -211c-34 -46 -45 -70 -45 -89
c0 -25 21 -35 92 -45c113 -13 160 -28 193 -60c25 -25 38 -57 38 -96c0 -98 -65 -159 -171 -159c-30 0 -73 4 -119 12l15 110c37 -10 52 -11 76 -11c46 0 71 15 70 39c-3 25 -24 42 -69 48l-103 18l-6 2h-7c-97 21 -142 64 -142 133c0 38 16 75 61 140c38 51 96 124 133 168
c7 4 34 35 74 76l28 31h-237z" />
    <glyph glyph-name="Korea1.501" unicode="&#x3b7;" 
d="M380 479l-5 -44c39 41 75 56 131 56c107 0 178 -69 178 -177c0 -29 -5 -65 -11 -104l-71 -373h-134l67 379c7 37 10 66 10 82c0 53 -26 84 -73 84c-58 0 -111 -54 -125 -123l-49 -278h-136l87 498h131z" />
    <glyph glyph-name="Korea1.502" unicode="&#x3b8;" 
d="M299 566c52 84 134 127 233 127c125 0 200 -91 200 -238c0 -136 -38 -295 -99 -396c-58 -100 -132 -146 -231 -146c-136 0 -214 91 -214 245c0 142 44 305 111 408zM356 365h243c2 35 4 71 4 86c0 93 -29 138 -85 138c-70 0 -116 -64 -162 -224zM574 262h-249
c-5 -43 -9 -79 -9 -106c0 -85 33 -136 89 -136c64 0 113 60 152 173c8 19 9 34 17 69z" />
    <glyph glyph-name="Korea1.503" unicode="&#x3b9;" 
d="M418 478h135l-72 -381c-3 -15 -4 -25 -4 -35c0 -13 16 -29 31 -29c1 0 6 1 10 2c25 5 35 8 44 10c7 1 12 4 25 8l-26 -122c-56 -16 -86 -20 -129 -20c-72 0 -96 19 -96 78c0 22 2 44 5 68z" />
    <glyph glyph-name="Korea1.504" unicode="&#x3ba;" 
d="M385 288l220 189h186l-345 -280l203 -281h-154l-145 206l-39 -206h-135l116 561h131z" />
    <glyph glyph-name="Korea1.505" unicode="&#x3bb;" 
d="M291 582l60 110c100 -31 153 -74 195 -159c24 -46 52 -128 83 -239c15 -62 21 -81 28 -105c35 -94 62 -136 123 -187l-113 -92c-65 75 -82 98 -107 170c-23 62 -41 125 -69 245c-17 -11 -21 -17 -38 -39c-14 -29 -24 -48 -65 -141c-59 -132 -105 -182 -212 -235l-78 113
c83 22 130 74 201 218c60 127 83 165 134 216c1 1 2 3 6 4c-42 74 -69 99 -148 121z" />
    <glyph glyph-name="Korea1.506" unicode="&#x3bc;" horiz-adv-x="650" 
d="M625 533l-98 -555h-124l13 75c-50 -53 -119 -88 -192 -88c-21 0 -39 3 -55 7l-30 -172h-127l130 733h130l-54 -305c-14 -77 -23 -161 65 -161c102 -1 148 106 162 186l50 280h130z" />
    <glyph glyph-name="Korea1.507" unicode="&#x3bd;" 
d="M813 479l-33 -117c-40 0 -60 -6 -78 -27c-29 -29 -44 -60 -66 -153l-30 -115c-15 -49 -25 -73 -41 -96c-29 -39 -72 -59 -122 -59c-97 0 -145 67 -151 207l-9 116c-6 100 -21 129 -67 129c-13 0 -30 -3 -77 -13l-16 110c44 14 71 19 106 19c81 0 127 -28 156 -91
c20 -43 21 -59 28 -176c3 -57 3 -79 5 -87l1 -9c2 -31 3 -40 6 -50c7 -13 18 -22 27 -22c10 0 23 18 29 45l17 52c27 94 36 129 38 143l5 20c45 134 98 175 242 175c4 0 16 0 30 -1z" />
    <glyph glyph-name="Korea1.508" unicode="&#x3be;" 
d="M278 561l30 104h292c20 2 31 6 38 9c29 11 41 12 53 12c14 0 25 -12 38 -46c7 -19 10 -32 10 -42c0 -24 -10 -32 -45 -32h-29c-10 0 -30 -1 -54 -4c-79 -21 -111 -35 -139 -63c-28 -22 -39 -41 -39 -62c0 -38 57 -63 147 -63h35l-23 -114c-74 0 -102 -1 -139 -10
c-78 -16 -128 -61 -128 -115c0 -40 19 -51 97 -63c76 -12 99 -19 125 -36c34 -21 56 -63 56 -109c0 -59 -31 -110 -84 -131c-23 -10 -55 -12 -103 -12c-21 0 -41 1 -80 2l15 112c28 -4 47 -4 59 -4c44 0 70 10 70 32c0 23 -14 30 -82 37c-37 5 -65 10 -87 17
c-73 20 -118 72 -118 139c0 72 43 139 114 178c20 11 37 17 75 30c-60 29 -82 58 -82 106c0 50 31 94 94 127v1h-116z" />
    <glyph glyph-name="Korea1.509" unicode="&#x3bf;" 
d="M301 410c47 53 112 78 195 78c131 0 222 -92 222 -229c0 -85 -29 -180 -72 -244c-49 -70 -117 -102 -208 -102c-141 0 -231 93 -231 241c0 91 35 188 94 256zM583 277c0 59 -36 98 -97 98c-39 0 -70 -20 -93 -61c-32 -51 -51 -122 -51 -184c0 -70 34 -108 100 -108
c51 0 84 33 113 106c18 46 28 103 28 149z" />
    <glyph glyph-name="Korea1.510" unicode="&#x3c0;" 
d="M305 477h473l-25 -112h-49c-5 -28 -10 -47 -11 -61c-10 -58 -18 -104 -23 -126c-3 -24 -5 -50 -5 -73c0 -47 17 -97 72 -125l-115 -72c-65 42 -91 112 -91 170c0 71 13 175 39 287h-172c-34 -297 -54 -371 -121 -450l-118 51c33 39 47 64 58 104c17 64 24 106 46 289
c-22 -2 -31 -4 -61 -19l10 121c31 12 49 16 93 16z" />
    <glyph glyph-name="Korea1.511" unicode="&#x3c1;" 
d="M305 -10l-37 -188h-129l76 354c50 232 138 329 295 329c136 0 219 -82 219 -215c0 -94 -43 -205 -102 -266c-45 -46 -108 -72 -174 -72c-60 0 -99 15 -148 58zM595 252c0 70 -38 117 -92 117c-77 0 -149 -101 -149 -210c0 -63 41 -113 95 -113c77 0 146 99 146 206z" />
    <glyph glyph-name="Korea1.512" unicode="&#x3c3;" 
d="M646 578l80 17l27 -113c-83 -16 -111 -24 -174 -53c68 -41 92 -88 92 -177c0 -65 -20 -139 -50 -197c-50 -94 -125 -141 -232 -141c-142 0 -228 93 -228 239c0 131 73 244 206 321c72 43 176 80 279 104zM540 244c0 70 -38 116 -98 116c-80 0 -147 -100 -147 -218
c0 -73 36 -114 95 -114c47 0 87 26 112 80c23 43 38 99 38 136z" />
    <glyph glyph-name="Korea1.513" unicode="&#x3c4;" 
d="M716 482l-22 -123c-46 -11 -66 -14 -102 -14c-13 0 -46 3 -77 7l-43 -247c-2 -20 -5 -36 -7 -50c-4 -26 11 -33 44 -33c12 0 64 7 79 10l-30 -110c-58 -7 -101 -10 -135 -10c-68 0 -99 34 -99 81l5 43l58 324c-14 1 -26 2 -33 2c-40 0 -94 -10 -139 -26l15 123
c55 15 83 19 141 19c25 0 62 -1 96 -5l26 -2l68 -7c11 -1 14 -1 25 -1c38 0 68 4 130 19z" />
    <glyph glyph-name="Korea1.514" unicode="&#x3c5;" 
d="M516 390l45 96c64 -17 84 -23 108 -41c32 -20 45 -39 45 -70c0 -7 -3 -31 -8 -57l-39 -223c-26 -141 -76 -182 -234 -182c-147 0 -213 50 -213 162c0 27 5 64 12 99l30 147c2 12 4 21 4 23c0 13 -13 22 -65 42l53 100c111 -27 147 -57 147 -123c0 -11 -3 -29 -6 -44
l-37 -191c-3 -12 -4 -21 -4 -35c0 -38 30 -60 80 -60c61 0 85 25 100 99l39 189c2 11 2 18 2 22c1 18 -9 26 -59 47z" />
    <glyph glyph-name="Korea1.515" unicode="&#x3c6;" 
d="M374 30l41 250c20 123 89 192 187 192c104 0 175 -81 175 -204c0 -117 -48 -234 -120 -289c-46 -39 -93 -55 -184 -62l-20 -125h-120l21 128c-61 7 -90 17 -120 38c-59 39 -94 108 -94 190c0 123 74 245 183 298c25 11 45 17 107 25l-17 -120c-44 -11 -66 -22 -93 -54
c-36 -45 -53 -88 -53 -150c0 -75 27 -103 107 -117zM542 285l-45 -249c55 4 87 26 117 80c18 37 34 101 34 152c0 64 -14 92 -44 92c-29 0 -56 -32 -62 -75z" />
    <glyph glyph-name="Korea1.516" unicode="&#x3c7;" 
d="M477 330l114 148h157l-220 -271l71 -158c12 -30 25 -37 66 -37h30l-18 -98l-63 -2c-78 -1 -109 17 -135 74l-47 104l-136 -178l-162 2l246 296l-57 129c-7 19 -28 30 -53 30h-35l-17 109h115c56 0 84 -18 107 -67z" />
    <glyph glyph-name="Korea1.517" unicode="&#x3c8;" 
d="M367 37l93 486h116l-91 -493c89 2 115 9 144 42c30 41 47 116 47 234c0 60 -9 84 -45 123l119 48c41 -49 56 -93 56 -186c0 -84 -16 -170 -34 -228c-40 -105 -124 -146 -309 -145l-23 -117h-118l25 128c-155 7 -228 62 -228 168c0 85 29 224 65 295c19 41 33 59 69 83
l100 -60c-40 -35 -53 -57 -71 -115c-7 -25 -17 -71 -30 -135c-3 -16 -5 -30 -5 -43c0 -57 34 -82 120 -85z" />
    <glyph glyph-name="Korea1.518" unicode="&#x3c9;" 
d="M573 376l25 111c60 -16 87 -27 113 -50c47 -41 70 -106 70 -188c0 -93 -32 -204 -77 -263c-35 -45 -86 -71 -137 -71c-62 0 -103 29 -134 98c-37 -71 -73 -96 -135 -96c-100 0 -163 86 -163 219c0 122 53 240 131 298c44 32 92 48 154 52l15 1l-16 -114
c-45 -7 -69 -20 -94 -51c-36 -44 -62 -124 -62 -190c0 -62 14 -92 46 -92c35 0 64 42 75 105l26 153h128l-24 -147c-3 -16 -4 -30 -4 -35c0 -47 18 -81 47 -81c55 0 93 87 93 201c0 95 -18 126 -77 140z" />
    <glyph glyph-name="Korea1.519" unicode="&#x2500;" 
d="M0 281v38h910v-38h-910z" />
    <glyph glyph-name="Korea1.520" unicode="&#x2502;" 
d="M440 -200v1000h35v-1000h-35z" />
    <glyph glyph-name="Korea1.521" unicode="&#x250c;" 
d="M435 -200v519h475v-38h-439v-481h-36z" />
    <glyph glyph-name="Korea1.522" unicode="&#x2510;" 
d="M444 281h-444v38h480v-519h-36v481z" />
    <glyph glyph-name="Korea1.523" unicode="&#x2518;" 
d="M444 319v481h36v-519h-480v38h444z" />
    <glyph glyph-name="Korea1.524" unicode="&#x2514;" 
d="M435 281v519h36v-481h439v-38h-475z" />
    <glyph glyph-name="Korea1.525" unicode="&#x251c;" 
d="M435 -200v1000h36v-481h439v-38h-439v-481h-36z" />
    <glyph glyph-name="Korea1.526" unicode="&#x252c;" 
d="M0 281v38h910v-38h-435v-481h-35v481h-440z" />
    <glyph glyph-name="Korea1.527" unicode="&#x2524;" 
d="M444 800h36v-1000h-36v481h-444v38h444v481z" />
    <glyph glyph-name="Korea1.528" unicode="&#x2534;" 
d="M440 319v481h35v-481h435v-38h-910v38h440z" />
    <glyph glyph-name="Korea1.529" unicode="&#x253c;" 
d="M440 319v481h35v-481h435v-38h-435v-481h-35v481h-440v38h440z" />
    <glyph glyph-name="Korea1.530" unicode="&#x2501;" 
d="M0 263v75h910v-75h-910z" />
    <glyph glyph-name="Korea1.531" unicode="&#x2503;" 
d="M423 -200v1000h70v-1000h-70z" />
    <glyph glyph-name="Korea1.532" unicode="&#x250f;" 
d="M419 -200v538h491v-75h-421v-463h-70z" />
    <glyph glyph-name="Korea1.533" unicode="&#x2513;" 
d="M0 263v75h497v-538h-70v463h-427z" />
    <glyph glyph-name="Korea1.534" unicode="&#x251b;" 
d="M427 338v462h70v-537h-497v75h427z" />
    <glyph glyph-name="Korea1.535" unicode="&#x2517;" 
d="M419 263v537h70v-462h421v-75h-491z" />
    <glyph glyph-name="Korea1.536" unicode="&#x2523;" 
d="M419 -200v1000h70v-462h421v-75h-421v-463h-70z" />
    <glyph glyph-name="Korea1.537" unicode="&#x2533;" 
d="M423 263h-423v75h910v-75h-417v-463h-70v463z" />
    <glyph glyph-name="Korea1.538" unicode="&#x252b;" 
d="M427 263h-427v75h427v462h70v-1000h-70v463z" />
    <glyph glyph-name="Korea1.539" unicode="&#x253b;" 
d="M0 338h423v462h70v-462h417v-75h-910v75z" />
    <glyph glyph-name="Korea1.540" unicode="&#x254b;" 
d="M0 338h423v462h70v-462h417v-75h-417v-463h-70v463h-423v75z" />
    <glyph glyph-name="Korea1.541" unicode="&#x2520;" 
d="M489 319h421v-38h-421v-481h-70v1000h70v-481z" />
    <glyph glyph-name="Korea1.542" unicode="&#x252f;" 
d="M0 338h910v-75h-435v-463h-35v463h-440v75z" />
    <glyph glyph-name="Korea1.543" unicode="&#x2528;" 
d="M497 800v-1000h-70v481h-427v38h427v481h70z" />
    <glyph glyph-name="Korea1.544" unicode="&#x2537;" 
d="M0 338h440v462h35v-462h435v-75h-910v75z" />
    <glyph glyph-name="Korea1.545" unicode="&#x253f;" 
d="M0 338h440v462h35v-462h435v-75h-435v-463h-35v463h-440v75z" />
    <glyph glyph-name="Korea1.546" unicode="&#x251d;" 
d="M471 338h439v-75h-439v-463h-36v1000h36v-462z" />
    <glyph glyph-name="Korea1.547" unicode="&#x2530;" 
d="M0 319h910v-38h-417v-481h-70v481h-423v38z" />
    <glyph glyph-name="Korea1.548" unicode="&#x2525;" 
d="M0 338h444v462h36v-1000h-36v463h-444v75z" />
    <glyph glyph-name="Korea1.549" unicode="&#x2538;" 
d="M0 319h423v481h70v-481h417v-38h-910v38z" />
    <glyph glyph-name="Korea1.550" unicode="&#x2542;" 
d="M0 319h423v481h70v-481h417v-38h-417v-481h-70v481h-423v38z" />
    <glyph glyph-name="Korea1.551" unicode="&#x2512;" 
d="M427 -200v481h-427v38h497v-519h-70z" />
    <glyph glyph-name="Korea1.552" unicode="&#x2511;" 
d="M444 -200v463h-444v75h480v-538h-36z" />
    <glyph glyph-name="Korea1.553" unicode="&#x251a;" 
d="M0 319h427v481h70v-519h-497v38z" />
    <glyph glyph-name="Korea1.554" unicode="&#x2519;" 
d="M0 338h444v462h36v-537h-480v75z" />
    <glyph glyph-name="Korea1.555" unicode="&#x2516;" 
d="M489 800v-481h421v-38h-491v519h70z" />
    <glyph glyph-name="Korea1.556" unicode="&#x2515;" 
d="M471 800v-462h439v-75h-475v537h36z" />
    <glyph glyph-name="Korea1.557" unicode="&#x250e;" 
d="M910 281h-421v-481h-70v519h491v-38z" />
    <glyph glyph-name="Korea1.558" unicode="&#x250d;" 
d="M435 -200v538h475v-75h-439v-463h-36z" />
    <glyph glyph-name="Korea1.559" unicode="&#x251e;" 
d="M419 281v519h70v-481h421v-38h-439v-481h-36v481h-16z" />
    <glyph glyph-name="Korea1.560" unicode="&#x251f;" 
d="M435 319v481h36v-481h439v-38h-421v-481h-70v519h16z" />
    <glyph glyph-name="Korea1.561" unicode="&#x2521;" 
d="M471 -200h-36v463h-16v537h70v-462h421v-75h-439v-463z" />
    <glyph glyph-name="Korea1.562" unicode="&#x2522;" 
d="M489 -200h-70v538h16v462h36v-462h439v-75h-421v-463z" />
    <glyph glyph-name="Korea1.563" unicode="&#x2526;" 
d="M427 319v481h70v-519h-18v-481h-35v481h-444v38h427z" />
    <glyph glyph-name="Korea1.564" unicode="&#x2527;" 
d="M0 281v38h444v481h35v-481h18v-519h-70v481h-427z" />
    <glyph glyph-name="Korea1.565" unicode="&#x2529;" 
d="M444 263h-444v75h427v462h70v-537h-18v-463h-35v463z" />
    <glyph glyph-name="Korea1.566" unicode="&#x252a;" 
d="M427 263h-427v75h444v462h35v-462h18v-538h-70v463z" />
    <glyph glyph-name="Korea1.567" unicode="&#x252d;" 
d="M440 263h-440v75h475v-19h435v-38h-435v-481h-35v463z" />
    <glyph glyph-name="Korea1.568" unicode="&#x252e;" 
d="M440 281h-440v38h440v19h470v-75h-435v-463h-35v481z" />
    <glyph glyph-name="Korea1.569" unicode="&#x2531;" 
d="M423 263h-423v75h493v-19h417v-38h-417v-481h-70v463z" />
    <glyph glyph-name="Korea1.570" unicode="&#x2532;" 
d="M423 281h-423v38h423v19h487v-75h-417v-463h-70v481z" />
    <glyph glyph-name="Korea1.571" unicode="&#x2535;" 
d="M475 263h-475v75h440v462h35v-481h435v-38h-435v-18z" />
    <glyph glyph-name="Korea1.572" unicode="&#x2536;" 
d="M440 281h-440v38h440v481h35v-462h435v-75h-470v18z" />
    <glyph glyph-name="Korea1.573" unicode="&#x2539;" 
d="M493 263h-493v75h423v462h70v-481h417v-38h-417v-18z" />
    <glyph glyph-name="Korea1.574" unicode="&#x253a;" 
d="M423 281h-423v38h423v481h70v-462h417v-75h-487v18z" />
    <glyph glyph-name="Korea1.575" unicode="&#x253d;" 
d="M440 263h-440v75h440v462h35v-481h435v-38h-435v-481h-35v463z" />
    <glyph glyph-name="Korea1.576" unicode="&#x253e;" 
d="M440 800h35v-462h435v-75h-435v-463h-35v481h-440v38h440v481z" />
    <glyph glyph-name="Korea1.577" unicode="&#x2540;" 
d="M423 800h70v-481h417v-38h-435v-481h-35v481h-440v38h423v481z" />
    <glyph glyph-name="Korea1.578" unicode="&#x2541;" 
d="M440 800h35v-481h435v-38h-417v-481h-70v481h-423v38h440v481z" />
    <glyph glyph-name="Korea1.579" unicode="&#x2543;" 
d="M423 800h70v-481h417v-38h-417v-18h-18v-463h-35v463h-440v75h423v462z" />
    <glyph glyph-name="Korea1.580" unicode="&#x2544;" 
d="M475 263v-463h-35v463h-17v18h-423v38h423v481h70v-462h417v-75h-435z" />
    <glyph glyph-name="Korea1.581" unicode="&#x2545;" 
d="M440 800h35v-462h18v-19h417v-38h-417v-481h-70v463h-423v75h440v462z" />
    <glyph glyph-name="Korea1.582" unicode="&#x2546;" 
d="M440 800h35v-462h435v-75h-417v-463h-70v481h-423v38h423v19h17v462z" />
    <glyph glyph-name="Korea1.583" unicode="&#x2547;" 
d="M423 800h70v-462h417v-75h-435v-463h-35v463h-440v75h423v462z" />
    <glyph glyph-name="Korea1.584" unicode="&#x2548;" 
d="M440 800h35v-462h435v-75h-417v-463h-70v463h-423v75h440v462z" />
    <glyph glyph-name="Korea1.585" unicode="&#x2549;" 
d="M423 800h70v-481h417v-38h-417v-481h-70v463h-423v75h423v462z" />
    <glyph glyph-name="Korea1.586" unicode="&#x254a;" 
d="M423 800h70v-462h417v-75h-417v-463h-70v481h-423v38h423v481z" />
    <glyph glyph-name="Korea1.587" unicode="&#x3395;" 
d="M320 -38c-24 -30 -59 -50 -111 -50c-37 0 -60 24 -60 24l-21 -114h-98l104 653h102l-52 -348c-10 -68 1 -96 41 -96c68 0 101 96 111 146l50 298h102l-72 -440c-2 -12 1 -24 4 -24c5 -3 44 -2 61 -1l-28 -98c-46 0 -86 -2 -107 17c-14 11 -21 20 -26 33zM822 62l76 -66
c-35 -79 -70 -107 -124 -122c-52 -16 -118 13 -161 74c-23 -11 -50 -25 -98 -27l-36 102c22 1 68 8 85 14c-42 89 -49 195 -46 311c6 205 88 362 195 370c118 5 164 -165 135 -383c-24 -181 -82 -283 -140 -336c15 -23 37 -28 55 -19c17 9 38 34 59 82zM712 611
c-42 -3 -84 -145 -88 -264c-4 -93 13 -228 29 -257c40 43 82 144 93 255c13 125 11 269 -34 266z" />
    <glyph glyph-name="Korea1.588" unicode="&#x3396;" 
d="M123 476v-20c19 21 41 33 63 33c60 0 77 -30 84 -57c25 40 42 57 92 57c81 0 120 -64 120 -189v-385h-93v378c0 70 -14 94 -38 94c-23 0 -42 -29 -42 -94v-378h-95v380c0 78 -18 92 -42 91c-20 -1 -41 -24 -41 -91v-380h-92v561h84zM839 59l74 -63
c-34 -74 -71 -104 -124 -119c-50 -15 -115 12 -160 76c-25 -14 -61 -25 -108 -27l-34 95c22 2 77 10 95 17c-42 91 -50 199 -46 314c6 206 86 364 195 370c113 6 159 -163 133 -381c-25 -180 -85 -286 -144 -341c17 -27 43 -31 62 -22c17 9 38 34 57 81zM728 622
c-45 -4 -88 -149 -91 -271c-4 -96 12 -229 31 -263c45 47 85 149 99 263c12 125 10 272 -39 271z" />
    <glyph glyph-name="Korea1.589" unicode="&#x3397;" 
d="M329 -86v45c-24 -31 -60 -55 -113 -55c-127 -1 -177 117 -177 287c0 173 72 288 195 287c47 -1 75 -18 95 -41v251h93v-774h-93zM235 384c-66 0 -101 -80 -101 -193c0 -107 29 -195 91 -195c60 0 94 90 94 195s-23 193 -84 193zM797 58l74 -63
c-37 -74 -71 -104 -124 -117c-50 -11 -118 13 -159 72c-23 -12 -62 -26 -110 -28l-34 94c28 3 79 13 95 20c-42 90 -49 200 -45 315c6 206 85 364 194 370c116 6 160 -163 132 -381c-23 -181 -85 -286 -144 -341c19 -27 43 -31 63 -22c18 9 39 35 58 81zM685 621
c-46 -4 -87 -149 -91 -271c-3 -96 13 -228 31 -263c44 47 88 149 97 263c14 125 10 273 -37 271z" />
    <glyph glyph-name="Korea1.590" unicode="&#x2113;" 
d="M588 55l74 -63c-38 -74 -70 -104 -125 -119c-50 -15 -116 13 -159 76c-26 -13 -63 -25 -108 -27l-36 95c24 2 76 10 95 18c-42 90 -49 198 -45 313c5 206 86 364 194 371c115 5 161 -164 133 -382c-23 -180 -85 -286 -143 -341c18 -27 41 -31 60 -22c19 10 40 35 60 81z
M476 618c-47 -4 -87 -149 -92 -271c-3 -95 14 -228 32 -263c44 48 86 149 98 263c13 125 9 273 -38 271z" />
    <glyph glyph-name="Korea1.591" unicode="&#x3398;" 
d="M223 155l-34 -40v-202h-104v775h104v-424l179 211h124l-193 -242l190 -320h-125zM805 57l76 -63c-38 -74 -72 -104 -126 -117c-50 -11 -116 13 -157 71c-24 -11 -55 -25 -102 -27l-33 94c26 3 69 13 85 20c-43 90 -49 200 -46 315c6 206 87 364 194 371
c116 5 161 -164 134 -382c-25 -181 -85 -286 -143 -341c16 -27 41 -31 60 -22c21 10 40 35 58 81zM695 620c-47 -4 -89 -149 -92 -271c-3 -96 14 -228 31 -263c45 47 88 149 98 263c13 125 10 273 -37 271z" />
    <glyph glyph-name="Korea1.592" unicode="&#x33c4;" 
d="M348 93h104c-21 -123 -82 -205 -214 -205c-152 0 -223 126 -223 301c0 178 88 299 238 299c134 0 194 -114 194 -221h-102c-1 28 -18 115 -95 115c-83 0 -130 -67 -130 -190c0 -125 37 -204 122 -204c62 0 100 47 106 105zM797 93h103c-20 -123 -78 -205 -211 -205
c-152 0 -225 126 -225 301c0 178 88 299 238 299c131 0 193 -114 193 -221h-100c-1 28 -19 115 -96 115c-84 0 -129 -67 -129 -190c0 -125 34 -204 121 -204c60 0 99 47 106 105z" />
    <glyph glyph-name="Korea1.593" unicode="&#x33a3;" 
d="M86 476v-19c15 17 30 28 49 28c36 0 54 -22 59 -32c10 15 29 34 65 34c65 0 94 -63 94 -188v-384h-78v385c0 71 -13 85 -26 85c-11 0 -25 -19 -25 -85v-385h-82v387c0 79 -12 84 -26 83c-9 -1 -25 -15 -25 -83v-387h-82v561h77zM880 545c18 -11 37 -34 37 -73
c0 -63 -43 -110 -107 -110c-63 0 -107 48 -107 129h66c0 -37 14 -61 41 -61c22 0 35 20 35 40c0 13 -4 31 -22 36c-15 4 -36 3 -49 3v55c13 0 33 -1 46 6c13 6 20 26 20 37c0 15 -12 29 -32 29c-22 0 -34 -16 -34 -50h-65c-1 86 45 119 101 119c54 0 99 -44 99 -96
c0 -29 -12 -53 -29 -64zM449 476v-19c15 17 31 28 50 28c35 0 53 -22 58 -32c11 15 30 34 63 34c68 0 97 -63 97 -188v-384h-79v385c0 71 -13 85 -25 85c-11 0 -25 -19 -25 -85v-385h-81v387c0 79 -13 84 -27 83c-9 -1 -27 -15 -27 -83v-387h-80v561h76z" />
    <glyph glyph-name="Korea1.594" unicode="&#x33a4;" 
d="M450 476v-17c16 15 34 22 50 22c46 0 58 -29 62 -35c8 12 26 35 64 35c67 0 100 -56 100 -181v-386h-82v389c0 70 -14 83 -24 83c-13 0 -27 -18 -27 -83v-389h-85v391c0 79 -14 82 -27 81c-10 -1 -27 -14 -27 -81v-391h-84v562h80zM882 545c18 -11 36 -34 36 -73
c0 -63 -42 -110 -106 -110c-63 0 -108 48 -108 129h66c0 -37 15 -61 42 -61c21 0 36 20 36 40c0 13 -6 31 -24 36c-14 4 -36 3 -48 3v55c12 0 33 -1 46 6c12 6 20 26 20 37c0 15 -12 29 -32 29c-23 0 -34 -16 -34 -50h-65c-1 86 45 119 101 119c54 0 99 -44 99 -96
c0 -29 -12 -53 -29 -64zM195 486c121 0 158 -119 158 -215h-87c2 34 -16 123 -72 124c-75 1 -101 -83 -100 -203c1 -121 27 -203 99 -203c52 0 74 57 73 111h89c-4 -109 -46 -206 -162 -206c-132 0 -191 112 -191 298c0 168 53 294 193 294z" />
    <glyph glyph-name="Korea1.595" unicode="&#x33a5;" 
d="M206 476v-29c25 29 52 38 80 38c65 0 89 -24 100 -57c17 32 54 61 112 61c91 0 138 -65 138 -190v-385h-101v377c0 71 -17 95 -53 95c-31 0 -56 -30 -56 -95v-377h-101v379c0 76 -23 93 -57 92c-29 -1 -53 -25 -53 -92v-379h-100v562h91zM804 546c18 -11 36 -34 36 -73
c0 -63 -43 -110 -107 -110c-62 0 -107 48 -107 129h66c0 -37 14 -61 41 -61c22 0 37 20 37 40c0 13 -4 31 -24 36c-15 4 -35 3 -49 3v55c14 0 34 -1 46 6c13 6 22 26 22 37c0 15 -14 29 -34 29c-22 0 -34 -16 -34 -50h-65c-1 85 46 119 101 119c54 0 100 -44 100 -96
c0 -29 -12 -53 -29 -64z" />
    <glyph glyph-name="Korea1.596" unicode="&#x33a6;" 
d="M445 476v-16c16 15 31 22 45 22c39 0 58 -17 65 -34c11 19 37 35 65 35c67 0 98 -45 98 -170v-399h-85v400c0 70 -9 74 -22 74c-11 0 -22 -10 -22 -74v-400h-89v402c0 78 -13 73 -26 72c-8 -1 -22 -5 -22 -72v-402h-88v562h81zM880 545c16 -11 35 -34 35 -73
c0 -63 -42 -110 -106 -110c-63 0 -106 48 -106 129h66c0 -37 14 -61 40 -61c22 0 35 20 35 40c0 13 -4 31 -22 36c-15 4 -35 3 -48 3v55c13 0 32 -1 45 6c13 6 20 26 20 37c0 15 -12 29 -32 29c-21 0 -33 -16 -33 -50h-65c-1 86 45 119 100 119c54 0 99 -44 99 -96
c0 -29 -13 -53 -28 -64zM105 690v-428l143 214h106l-157 -243l155 -319h-108l-112 239l-27 -38v-201h-91v776h91z" />
    <glyph glyph-name="Korea1.597" unicode="&#x3399;" 
d="M454 476v-15c19 19 38 27 61 27c62 0 79 -29 85 -49c12 23 39 49 92 49c82 0 122 -63 122 -188v-385h-98v378c0 70 -11 92 -38 92c-20 0 -39 -27 -39 -92v-378h-98v380c0 78 -18 92 -40 91c-19 -1 -38 -24 -38 -91v-380h-97v561h88zM169 -85v460h-67v101h67v48
c0 63 7 88 27 117c21 30 55 49 94 49h56v-102c-35 0 -48 2 -58 -11c-15 -12 -17 -26 -17 -56v-45h75v-101h-75v-460h-102z" />
    <glyph glyph-name="Korea1.598" unicode="&#x339a;" 
d="M502 477v-19c19 20 38 29 61 29c51 0 71 -21 83 -45c18 26 43 47 91 47c83 0 123 -63 123 -188v-384h-96v385c0 71 -14 86 -38 86c-21 0 -41 -21 -41 -86v-385h-97v387c0 77 -18 84 -41 83c-19 -1 -38 -16 -38 -83v-387h-96v560h89zM161 477v-17c13 16 47 38 106 24
c84 -17 108 -108 108 -190v-377h-98v349c0 93 -18 116 -50 116c-33 0 -66 -33 -66 -124v-341h-97v560h97z" />
    <glyph glyph-name="Korea1.599" unicode="&#x339b;" 
d="M547 477v-16c19 19 38 28 60 28c54 0 79 -27 83 -48c14 27 37 48 89 48c81 0 120 -64 120 -188v-386h-96v381c0 71 -13 95 -36 95c-25 0 -40 -29 -40 -95v-381h-96v385c0 78 -17 92 -38 91c-19 -1 -38 -24 -38 -91v-385h-94v562h86zM347 477h92l-72 -442
c-2 -11 2 -24 11 -28c7 -4 38 -4 55 -3l-24 -90c-46 0 -80 -1 -101 18c-10 8 -15 19 -20 31c-23 -26 -54 -49 -108 -49c-36 0 -57 26 -61 35l-22 -124h-91l104 652h92l-52 -346c-11 -72 3 -102 44 -102c68 0 91 74 103 151z" />
    <glyph glyph-name="Korea1.600" unicode="&#x339c;" 
d="M565 475v-21c17 18 33 28 51 28c50 0 71 -12 81 -35c14 21 34 39 81 39c81 0 117 -63 117 -188v-383h-97v384c0 71 -14 86 -30 86c-15 0 -34 -21 -34 -86v-384h-99v386c0 77 -13 84 -31 83c-14 -1 -31 -16 -31 -83v-386h-99v560h91zM113 475v-19c18 18 34 28 53 28
c54 0 74 -24 78 -36c15 19 36 38 83 38c81 0 117 -56 117 -180v-391h-99v384c0 71 -12 86 -31 86c-12 0 -29 -21 -29 -86v-384h-100v386c0 77 -16 84 -34 83c-13 -1 -32 -16 -32 -83v-386h-96v560h90z" />
    <glyph glyph-name="Korea1.601" unicode="&#x339d;" 
d="M555 476v-18c18 18 36 26 54 26c52 0 68 -23 76 -40c17 23 35 42 84 42c81 0 117 -60 117 -185v-386h-98v386c0 70 -14 84 -30 84c-13 0 -33 -18 -33 -84v-386h-99v388c0 78 -16 82 -33 81c-14 -1 -29 -13 -29 -81v-388h-99v561h90zM340 98h102
c-15 -120 -67 -207 -201 -207c-140 0 -216 121 -216 300s79 299 225 299c135 0 186 -115 186 -221h-99c1 42 -18 120 -89 120c-76 0 -119 -73 -119 -195c0 -121 36 -203 118 -203c57 0 86 45 93 107z" />
    <glyph glyph-name="Korea1.602" unicode="&#x339e;" 
d="M540 476v-13c18 17 37 25 55 25c56 0 72 -21 81 -40c9 18 31 40 83 40c81 0 120 -63 120 -188v-386h-101v386c0 71 -14 87 -33 87c-12 0 -31 -22 -31 -87v-386h-101v388c0 78 -14 85 -32 84c-16 -1 -34 -16 -34 -84v-388h-100v562h93zM175 156l-33 -39v-203h-93v775h93
v-423l165 210h118l-179 -242l175 -320h-116z" />
    <glyph glyph-name="Korea1.603" unicode="&#x339f;" 
d="M83 476v-17c16 16 33 24 49 24c37 0 51 -16 62 -33c12 18 29 33 61 33c68 0 98 -47 98 -171v-398h-81v398c0 69 -10 73 -25 73c-10 0 -24 -8 -24 -73v-398h-83v400c0 78 -12 72 -28 71c-8 -1 -22 -5 -22 -71v-400h-82v562h75zM916 455v-65h-194c0 51 9 83 43 120
c13 16 33 35 47 50c13 13 27 26 29 47c1 19 -6 30 -26 30c-25 0 -28 -36 -28 -62h-68c-3 73 32 129 96 129c68 0 97 -48 94 -99c-1 -35 -29 -70 -46 -85c-21 -17 -53 -54 -55 -65h108zM447 478v-21c15 16 30 26 47 26c38 0 51 -14 61 -33c12 17 28 35 67 35
c67 0 98 -58 98 -183v-388h-82v398c0 69 -11 73 -23 73s-23 -8 -23 -73v-398h-85v400c0 78 -13 72 -26 71c-10 -1 -25 -5 -25 -71v-400h-82v564h73z" />
    <glyph glyph-name="Korea1.604" unicode="&#x33a0;" 
d="M445 476v-20c16 19 31 28 51 28c45 0 59 -31 61 -37c11 15 27 38 65 38c66 0 99 -60 99 -185v-386h-83v392c0 70 -12 83 -23 83c-13 0 -25 -18 -25 -83v-392h-86v394c0 79 -13 82 -26 81c-10 -1 -26 -14 -26 -81v-394h-83v562h76zM916 455v-65h-194c0 51 9 83 43 120
c13 16 33 35 47 50c13 13 27 26 29 47c1 19 -6 30 -26 30c-25 0 -28 -36 -28 -62h-68c-3 73 32 129 96 129c68 0 97 -48 94 -99c-1 -35 -29 -70 -46 -85c-21 -17 -53 -54 -55 -65h108zM195 486c120 0 157 -119 157 -215h-87c2 34 -16 123 -71 124c-75 1 -101 -83 -99 -203
c1 -122 27 -203 98 -203c51 0 73 57 72 111h88c-3 -109 -45 -206 -160 -206c-131 0 -190 112 -190 298c0 168 53 294 192 294z" />
    <glyph glyph-name="Korea1.605" unicode="&#x33a1;" 
d="M218 476v-29c26 29 52 38 79 38c66 0 89 -25 100 -58c17 32 55 60 112 60c92 0 138 -64 138 -188v-385h-101v377c0 71 -16 95 -52 95c-30 0 -56 -30 -56 -95v-377h-101v379c0 76 -23 93 -57 92c-30 -1 -53 -25 -53 -92v-379h-100v562h91zM848 455v-69h-199
c-1 51 10 91 44 128c14 16 33 32 47 47c14 13 33 28 35 49c1 9 -6 26 -30 26c-26 0 -30 -35 -26 -61h-72c-4 63 26 131 98 131c69 0 99 -49 97 -100c0 -33 -25 -64 -42 -81c-17 -16 -42 -38 -47 -44c-11 -12 -13 -18 -15 -26h110z" />
    <glyph glyph-name="Korea1.606" unicode="&#x33a2;" 
d="M446 476v-12c15 14 30 21 47 21c46 0 61 -27 63 -33c9 16 30 36 63 36c68 0 99 -54 99 -178v-395h-86v400c0 70 -9 74 -21 74c-9 0 -25 -10 -25 -74v-400h-86v402c0 78 -13 73 -24 72c-10 -1 -26 -7 -26 -72v-402h-84v561h80zM914 454v-69h-195c-1 51 9 92 41 129
c18 20 32 29 47 46c14 13 31 28 33 49c1 9 -6 26 -28 26c-25 0 -29 -36 -25 -61h-71c-3 63 23 131 96 131c68 0 96 -47 96 -98c-1 -37 -23 -66 -39 -82c-18 -17 -41 -39 -46 -45c-11 -12 -16 -26 -16 -26h107zM103 689v-426l146 213h106l-159 -242l157 -319h-108l-116 239
l-26 -38v-201h-92v774h92z" />
    <glyph glyph-name="Korea1.607" unicode="&#x33ca;" 
d="M733 446c3 13 6 24 7 42h88c-8 -58 -13 -135 -13 -215v-202c0 -40 24 -98 44 -131l-93 -41c-20 34 -29 37 -34 61c-12 -24 -46 -57 -110 -57c-121 0 -168 130 -168 297c0 181 72 293 184 293c43 0 75 -16 95 -47zM713 206c0 93 -8 190 -79 190c-60 0 -85 -79 -85 -196
c0 -103 16 -203 78 -203c66 0 86 102 86 209zM177 689v-243c24 27 63 60 131 49c90 -17 118 -119 118 -202v-378h-94v346c0 91 -24 129 -67 129c-45 0 -88 -66 -88 -147v-328h-95v774h95z" />
    <glyph glyph-name="Korea1.608" unicode="&#x338d;" 
d="M750 449v28h91v-490c0 -178 -89 -243 -176 -243c-121 0 -175 95 -180 202h91c3 -55 31 -106 90 -106c56 0 84 54 84 146v8c-26 -31 -58 -45 -100 -45c-102 0 -179 111 -179 271c0 159 73 269 180 269c43 0 76 -11 99 -40zM657 396c-53 0 -91 -65 -91 -176
c0 -112 38 -172 91 -172c54 0 93 63 93 175s-39 173 -93 173zM302 -32c-25 -32 -61 -52 -103 -52c-35 0 -58 22 -62 31l-21 -120h-95l104 649h96l-52 -344c-9 -71 8 -101 52 -101c62 0 87 89 97 149l51 296h98l-73 -439c-3 -13 2 -27 6 -28c8 -3 42 -3 59 -2l-26 -91
c-47 0 -85 -3 -105 17c-13 11 -21 21 -26 35z" />
    <glyph glyph-name="Korea1.609" unicode="&#x338e;" 
d="M759 446v29h90v-490c0 -179 -89 -243 -178 -243c-111 0 -173 95 -178 201h91c3 -55 32 -103 88 -103c58 0 87 51 87 143v8c-27 -32 -59 -48 -101 -48c-103 0 -180 114 -180 274s73 270 183 270c41 0 74 -12 98 -41zM666 389c-53 0 -94 -60 -94 -172s41 -172 94 -172
c52 0 93 63 93 175c0 111 -41 169 -93 169zM125 476v-7c3 3 22 18 52 18c60 0 74 -25 77 -41c13 21 33 41 84 41c78 0 114 -64 114 -189v-383h-92v376c0 72 -17 95 -35 95c-13 0 -31 -29 -31 -95v-376h-96v378c0 79 -15 93 -31 92c-19 -2 -36 -23 -36 -92v-378h-94v561h88z
" />
    <glyph glyph-name="Korea1.610" unicode="&#x338f;" 
d="M757 449v27h88v-488c0 -179 -86 -243 -176 -243c-113 0 -173 94 -179 200h92c2 -54 31 -102 88 -102s87 50 87 143v9c-27 -33 -61 -49 -101 -49c-104 0 -181 114 -181 274c0 159 73 268 182 268c43 0 74 -10 100 -39zM664 393c-53 0 -94 -62 -94 -173
c0 -112 41 -173 94 -173c52 0 93 64 93 176s-41 170 -93 170zM223 162l-38 -48v-200h-100v775h100v-426l179 213h123l-193 -233l188 -329h-115z" />
    <glyph glyph-name="Korea1.611" unicode="&#x33cf;" 
d="M247 161l-39 -48v-199h-98v774h98v-426l180 214h122l-193 -234l188 -328h-115zM763 373h-68v-289c0 -31 0 -44 11 -58c8 -11 44 -12 57 -12v-100h-68c-60 0 -102 43 -102 119v340h-61v101h61v171h102v-171h68v-101z" />
    <glyph glyph-name="Korea1.612" unicode="&#x3388;" 
d="M847 51l67 -42c-21 -75 -51 -119 -95 -133c-41 -13 -82 14 -111 68c-10 -7 -26 -22 -72 -31l-24 100c19 3 45 13 54 20c-34 96 -40 199 -37 315c5 206 66 364 152 371c97 5 129 -160 108 -382c-17 -181 -61 -279 -109 -340c15 -26 25 -25 30 -23c12 7 23 30 37 77z
M520 -57c-9 -20 -33 -47 -85 -47c-98 0 -133 131 -133 299c0 181 52 293 143 293c38 0 63 -19 73 -31l2 25h84c-7 -56 -11 -134 -11 -214v-201c0 -42 15 -97 27 -129l-74 -50c-13 22 -17 28 -19 33c-3 3 -3 5 -7 22zM212 97h91c-10 -120 -54 -204 -147 -204
c-110 0 -154 126 -154 301c0 177 58 298 162 298c96 0 136 -114 136 -219h-89c-1 29 -13 114 -49 114c-40 0 -68 -66 -68 -190s22 -205 64 -205c27 0 50 46 54 105zM499 200c0 109 -12 191 -52 191c-34 0 -52 -81 -52 -196c0 -96 14 -203 46 -203c39 0 58 103 58 208z
M780 617c-23 -2 -58 -150 -62 -269c-3 -91 13 -235 19 -254c22 31 57 138 64 252c11 125 7 274 -21 271z" />
    <glyph glyph-name="Korea1.613" unicode="&#x3389;" 
d="M696 -92l-7 28l-57 -48c-6 20 -11 38 -14 53c-13 -26 -32 -41 -62 -41c-81 0 -104 124 -104 299c0 181 39 288 112 288c21 0 36 -10 48 -33l4 26h70c-6 -55 -11 -127 -11 -208v-201c0 -17 1 -40 4 -63c19 5 39 22 43 27c-23 104 -26 201 -24 318c3 206 44 363 115 369
c80 7 102 -154 85 -380c-12 -183 -43 -275 -82 -340c5 -14 12 -23 16 -22c7 4 16 32 26 84l59 -51c-16 -76 -33 -119 -69 -130c-39 -11 -69 18 -89 58c0 0 -22 -23 -63 -33zM79 691v-404l96 189h88l-117 -232l107 -329h-82l-77 232l-16 -29v-203h-74v776h75zM365 104h80
c-9 -122 -36 -206 -110 -206c-86 0 -122 125 -122 299c0 178 42 290 127 290c77 0 104 -112 104 -220h-79c-1 29 -10 114 -26 114c-24 0 -43 -58 -43 -181c0 -120 18 -201 41 -201c10 0 25 47 28 105zM593 204c0 109 -9 186 -28 186c-18 0 -33 -82 -33 -191
c0 -108 10 -203 28 -203c21 0 33 105 33 208zM814 621c-10 -1 -36 -160 -40 -269c-3 -102 10 -241 10 -241c6 13 31 131 38 238c8 125 4 273 -8 272z" />
    <glyph glyph-name="Korea1.614" unicode="&#x33c8;" 
d="M336 -86v40c-22 -28 -52 -47 -105 -47c-130 -1 -179 115 -179 285c0 173 74 288 195 286c46 -1 71 -13 89 -33v245h95v-776h-95zM249 385c-64 0 -102 -80 -102 -193c0 -108 31 -195 93 -195c59 0 93 90 93 195s-22 193 -84 193zM772 326c38 -29 83 -86 82 -201
c-1 -128 -79 -211 -176 -211h-203v775h210c94 0 141 -82 148 -171c9 -92 -20 -158 -61 -192zM567 11h110c45 0 80 54 80 133c0 70 -42 126 -79 126h-111v-259zM567 367h105c37 0 68 55 68 119c0 65 -28 115 -67 115h-106v-234z" />
    <glyph glyph-name="Korea1.615" unicode="&#x33a7;" 
d="M122 689v-8c17 17 37 25 69 23c38 -4 56 -32 56 -32c4 11 40 45 96 32c64 -15 79 -79 79 -150v-276h-83v257c0 52 -7 78 -28 78c-19 -1 -38 -33 -38 -93v-242h-84v257c0 53 -6 81 -31 80c-18 -1 -36 -35 -36 -95v-242h-81v411h81zM788 131c53 -25 81 -72 75 -125
c-10 -72 -67 -129 -172 -129c-117 0 -173 84 -175 182h88c2 -73 37 -102 89 -102c51 0 81 24 82 53c1 21 -11 38 -35 48c-26 11 -70 13 -118 30c-57 24 -92 52 -91 121c1 63 54 130 159 130c125 0 162 -91 162 -162h-86c0 54 -25 83 -76 83c-49 0 -70 -29 -70 -51
c0 -25 18 -34 39 -43c20 -7 75 -11 129 -35zM884 640l-747 -772l-48 57l741 768z" />
    <glyph glyph-name="Korea1.616" unicode="&#x33a8;" 
d="M108 695v-16c16 18 35 27 65 25c39 -3 56 -31 56 -31c2 6 33 43 88 30c61 -14 76 -68 76 -139v-264h-82v250c0 46 -6 71 -26 70c-17 -1 -35 -28 -35 -82v-238h-82v250c0 51 -5 73 -27 73c-17 -1 -33 -31 -33 -85v-238h-80v395h80zM836 640l-745 -773l-49 58l742 768z
M709 108c51 -23 77 -70 71 -121c-6 -67 -62 -123 -163 -123c-114 0 -165 81 -168 175h86c1 -67 36 -96 83 -96c49 0 74 23 75 49c1 19 -9 36 -29 44c-26 11 -69 13 -113 29c-56 22 -88 52 -88 116c1 60 51 126 152 126c119 0 157 -88 157 -158h-86c0 52 -22 81 -71 81
c-44 0 -65 -28 -65 -49c0 -22 17 -31 37 -40c17 -5 70 -8 122 -33zM906 280v-50h-147c0 36 10 55 33 84c15 13 32 24 36 31c10 9 20 18 20 31c0 9 -6 16 -16 16c-15 0 -23 -17 -19 -39h-55c0 43 21 90 73 90c54 0 70 -37 70 -69c0 -29 -12 -44 -28 -57
c-14 -12 -33 -24 -41 -37h74z" />
    <glyph glyph-name="Korea1.617" unicode="&#x33b0;" 
d="M165 477v-27c17 22 54 45 105 45c113 0 185 -112 185 -296s-72 -298 -185 -298c-49 0 -88 21 -105 42v-211h-92v745h92zM261 387c-58 0 -96 -65 -96 -188c0 -121 38 -191 96 -191c57 0 97 70 97 191c0 123 -40 188 -97 188zM472 110h103c7 -68 43 -108 109 -108
c50 0 85 22 90 66c4 25 -17 51 -41 67c-45 23 -100 27 -144 45c-61 25 -103 70 -99 148c3 86 74 166 190 166c130 0 193 -103 190 -192h-105c2 36 -18 86 -89 86c-59 0 -79 -33 -80 -61c-1 -43 21 -51 55 -62c32 -11 95 -20 145 -51c50 -32 88 -69 84 -144
c-4 -104 -87 -175 -194 -175c-163 0 -213 131 -214 215z" />
    <glyph glyph-name="Korea1.618" unicode="&#x33b1;" 
d="M454 109h103c8 -68 42 -112 109 -112c50 0 83 25 90 71c3 24 -17 50 -41 66c-44 21 -100 27 -144 44c-60 25 -102 70 -99 149c3 86 72 166 191 166c129 0 190 -103 188 -192h-106c2 36 -14 86 -88 86c-59 0 -77 -34 -78 -61c-2 -43 19 -51 55 -63c29 -10 96 -21 145 -53
c50 -33 86 -69 82 -143c-6 -105 -85 -170 -193 -170c-163 0 -212 127 -214 212zM178 476v-30c28 30 64 50 127 38c93 -16 119 -111 119 -191v-377h-97v334c0 93 -24 131 -65 131c-43 0 -84 -50 -84 -139v-326h-96v560h96z" />
    <glyph glyph-name="Korea1.619" unicode="&#x33b2;" 
d="M305 -32c-24 -33 -55 -54 -102 -54c-36 0 -62 23 -65 31l-21 -119h-94l106 651h96l-53 -354c-12 -71 8 -101 52 -101c61 0 86 93 97 155l51 300h94l-73 -442c-2 -11 4 -26 11 -27c9 -3 40 -3 59 -2l-27 -92c-47 0 -85 -3 -105 17c-14 11 -22 23 -26 37zM467 109h102
c6 -69 42 -111 107 -111c51 0 84 23 91 69c3 25 -16 50 -41 66c-43 23 -101 28 -143 46c-61 25 -103 69 -100 148c4 86 72 165 190 165c132 0 192 -103 190 -190h-105c1 33 -17 86 -89 86c-58 0 -78 -34 -79 -62c-1 -43 21 -50 55 -63c29 -11 96 -23 145 -53
c49 -32 86 -70 82 -144c-5 -105 -85 -168 -193 -168c-162 0 -210 126 -212 211z" />
    <glyph glyph-name="Korea1.620" unicode="&#x33b3;" 
d="M475 108h102c6 -68 43 -112 107 -112c50 0 86 25 91 71c3 24 -16 50 -42 66c-43 21 -100 27 -143 44c-60 25 -102 70 -99 149c3 86 74 166 190 166c132 0 193 -103 190 -192h-104c2 36 -17 86 -90 86c-58 0 -78 -34 -79 -61c-1 -43 21 -51 55 -63c28 -10 96 -21 145 -53
c49 -33 86 -69 82 -143c-5 -105 -85 -170 -194 -170c-161 0 -209 127 -211 212zM122 476v-18c5 6 26 30 56 30c56 0 70 -26 76 -43c12 22 35 43 82 43c79 0 114 -64 114 -189v-383h-92v383c0 71 -16 87 -35 87c-17 0 -31 -21 -31 -87v-383h-96v385c0 78 -14 85 -32 84
s-35 -16 -35 -84v-385h-93v560h86z" />
    <glyph glyph-name="Korea1.621" unicode="&#x33b4;" 
d="M443 691l174 -600l173 600h102l-223 -775h-105l-223 775h102zM165 -72v-203h-93v754h93v-23c12 19 43 38 84 38c107 0 169 -109 169 -295c0 -188 -68 -300 -173 -300c-37 0 -70 16 -80 29zM241 391c-46 0 -76 -70 -76 -192s30 -193 76 -193c47 0 79 71 79 193
s-32 192 -79 192z" />
    <glyph glyph-name="Korea1.622" unicode="&#x33b5;" 
d="M425 688l172 -602l173 602h103l-226 -775h-104l-221 775h103zM171 474v-23c13 16 50 43 109 30c86 -18 113 -110 113 -191v-377h-96v334c0 93 -27 131 -59 131c-37 0 -67 -31 -67 -122v-343h-98v561h98z" />
    <glyph glyph-name="Korea1.623" unicode="&#x33b6;" 
d="M268 -49c-10 -13 -46 -37 -87 -37c-32 0 -52 16 -52 16l-18 -107h-94l92 654h96l-45 -349c-10 -71 7 -100 40 -100c47 0 69 88 78 151l44 298h97l-63 -443c-2 -13 3 -27 6 -29c3 -5 36 -3 50 -2l-25 -90c-42 0 -82 -4 -98 15c-12 12 -18 19 -21 23zM466 689l172 -600
l173 600h103l-225 -775h-104l-222 775h103z" />
    <glyph glyph-name="Korea1.624" unicode="&#x33b7;" 
d="M465 689l172 -604l173 604h102l-223 -775h-105l-223 775h104zM119 475v-15c12 11 33 22 54 22c49 0 71 -23 73 -32c9 14 30 36 76 36c76 0 107 -63 107 -188v-384h-90v384c0 70 -14 86 -29 86c-12 0 -30 -21 -30 -86v-384h-94v386c0 78 -15 85 -29 84s-31 -17 -31 -84
v-386h-92v561h85z" />
    <glyph glyph-name="Korea1.625" unicode="&#x33b8;" 
d="M470 688l171 -602l172 602h103l-223 -775h-105l-221 775h103zM187 153l-28 -39v-201h-94v775h94v-415l145 201h112l-164 -232l162 -329h-109z" />
    <glyph glyph-name="Korea1.626" unicode="&#x33b9;" 
d="M605 688l105 -541l105 541h102l-157 -774h-103l-156 774h104zM203 -86l-93 440v-440h-91v774h110l126 -581l125 581h109v-774h-90v457l-93 -457h-103z" />
    <glyph glyph-name="Korea1.627" unicode="&#x3380;" 
d="M677 689l234 -775h-96l-63 197h-255l-62 -197h-97l235 775h104zM723 212l-98 327l-99 -327h197zM127 477v-20c25 27 50 41 83 41c100 0 162 -115 162 -301c0 -188 -62 -301 -162 -301c-41 0 -73 29 -83 44v-217h-88v754h88zM203 387c-44 0 -76 -68 -76 -190
s32 -193 76 -193c45 0 75 71 75 193s-29 190 -75 190z" />
    <glyph glyph-name="Korea1.628" unicode="&#x3381;" 
d="M681 689l234 -775h-98l-60 199h-257l-61 -199h-195v345c0 93 -21 121 -50 121c-33 0 -67 -29 -67 -129v-337h-97v562h97v-22c13 16 48 42 105 29c86 -17 109 -109 109 -191v-378l234 775h106zM726 214l-98 328l-100 -328h198z" />
    <glyph glyph-name="Korea1.629" unicode="&#x3382;" 
d="M122 -58l-19 -115h-94l96 649h96l-48 -344c-9 -71 6 -100 44 -100c50 0 74 89 83 150l45 294h95l-65 -439c-2 -9 3 -30 3 -30s3 -1 7 -1c2 -1 5 -3 5 -3l206 687h104l236 -776h-99l-59 198h-258l-60 -198h-73c-41 0 -59 5 -74 17c-23 17 -24 20 -25 28
c-9 -14 -38 -41 -92 -41c-22 0 -40 10 -54 24zM726 213l-98 330l-99 -330h197z" />
    <glyph glyph-name="Korea1.630" unicode="&#x3383;" 
d="M706 681l211 -768h-94l-54 196h-227l-53 -196h-93l210 768h100zM107 475v-17c8 10 29 25 52 25c48 0 60 -24 62 -28c9 17 29 28 68 28c73 0 106 -59 106 -184v-386h-92v392c0 71 -10 80 -24 80c-9 0 -25 -14 -25 -80v-392h-92v394c0 78 -14 79 -26 78
c-10 -1 -25 -10 -25 -78v-394h-93v562h89zM740 210l-88 301l-82 -301h170z" />
    <glyph glyph-name="Korea1.631" unicode="&#x3384;" 
d="M495 110l-61 -196h-133l-119 241l-30 -40v-201h-91v775h91v-417l148 204h111l-165 -233l119 -242l206 688h105l234 -775h-97l-62 196h-256zM722 212l-98 329l-99 -329h197z" />
    <glyph glyph-name="Korea1.632" unicode="&#x33ba;" 
d="M657 690l76 -530l79 530h93l-125 -774h-97l-79 527l-79 -527h-96l-125 774h94l79 -524l72 524h108zM130 478v-19c21 22 43 31 73 31c95 0 149 -105 149 -291c0 -188 -62 -298 -156 -298c-37 0 -59 28 -66 36v-212h-87v753h87zM195 389c-35 0 -65 -68 -65 -190
s30 -193 65 -193c34 0 64 71 64 193s-30 190 -64 190z" />
    <glyph glyph-name="Korea1.633" unicode="&#x33bb;" 
d="M646 690l77 -530l78 530h94l-125 -774h-97l-80 527l-78 -527h-96l-125 774h94l79 -524l72 524h107zM135 476v-18c11 15 43 36 99 22c82 -17 103 -105 103 -188v-377h-92v348c0 92 -20 119 -46 119c-33 0 -64 -36 -64 -127v-340h-93v561h93z" />
    <glyph glyph-name="Korea1.634" unicode="&#x33bc;" 
d="M700 -86l-68 504l-66 -504h-97l-115 776h97l67 -520l63 520h103l66 -522l65 522h97l-114 -776h-98zM236 -49c-13 -16 -36 -37 -83 -37c-27 0 -43 12 -45 14l-16 -104h-92l89 652h92l-43 -347c-9 -71 5 -100 34 -100c41 0 64 85 71 150l43 297h94l-61 -441
c-2 -11 5 -28 5 -28c7 -4 35 -3 48 -2l-21 -91c-39 0 -82 -4 -100 18c-8 9 -11 11 -12 12s-1 2 -3 7z" />
    <glyph glyph-name="Korea1.635" unicode="&#x33bd;" 
d="M104 477v-18c14 14 32 25 47 25c43 0 55 -14 64 -27c11 14 32 29 67 29c73 0 107 -61 107 -186v-386h-93v399c0 70 -10 73 -23 73s-23 -8 -23 -73v-399h-93v398c0 68 -5 74 -24 74c-14 0 -24 -8 -24 -74v-398h-93v563h88zM701 -86l-67 517l-68 -517h-96l-116 774h98
l66 -519l65 519h102l65 -519l67 519h96l-115 -774h-97z" />
    <glyph glyph-name="Korea1.636" unicode="&#x33be;" 
d="M271 475h110l-31 214h96l66 -487l64 487h103l64 -489l68 489h95l-113 -776h-99l-66 500l-67 -500h-97l-83 562l-164 -233l162 -329h-107l-120 241l-30 -40v-201h-92v776h92v-418z" />
    <glyph glyph-name="Korea1.637" unicode="&#x33bf;" 
d="M321 -87v391l-61 -391h-95l-64 366v-366h-85v776h98l98 -569l96 569h98v-776h-85zM711 689l52 -489l52 489h95l-100 -776h-97l-51 456l-51 -456h-96l-100 776h94l56 -485l49 485h97z" />
    <glyph glyph-name="Korea1.638" unicode="&#x3390;" 
d="M476 688v-775h-100v360h-207v-360h-101v775h101v-313h207v313h100zM852 475v-95l-239 -373h256v-94h-369v92l240 373h-219v97h331z" />
    <glyph glyph-name="Korea1.639" unicode="&#x3391;" 
d="M101 689v-305l137 305h95l-151 -337l169 -439h-98l-128 325l-24 -49v-276h-88v776h88zM905 12v-99h-234v90l127 370h-124v102h225v-89l-130 -374h136zM651 689v-776h-91v339h-110v-339h-92v776h92v-330h110v330h91z" />
    <glyph glyph-name="Korea1.640" unicode="&#x3392;" 
d="M160 -86l-63 419v-419h-83v775h104l81 -513l83 513h101v-775h-81v417l-64 -417h-78zM916 9v-95h-221v86l122 377h-117v98h208v-91l-122 -375h130zM684 689v-775h-88v344h-96v-344h-91v775h91v-325h96v325h88z" />
    <glyph glyph-name="Korea1.641" unicode="&#x3393;" 
d="M262 -87v28c-16 -20 -41 -39 -78 -40c-134 -3 -183 159 -183 394c0 230 56 398 190 398c138 0 156 -145 154 -259h-84c0 70 -16 163 -71 163c-66 0 -95 -128 -96 -302c-1 -171 26 -298 91 -298c54 0 77 113 77 196v32h-81v85h165v-397h-84zM668 688v-775h-90v342h-115
v-342h-93v775h93v-330h115v330h90zM907 7v-95h-222v86l121 379h-115v98h207v-91l-123 -377h132z" />
    <glyph glyph-name="Korea1.642" unicode="&#x3394;" 
d="M341 689v-99h-118v-676h-89v676h-126v99h333zM903 8v-95h-234v86l133 377h-129v98h222v-91l-135 -375h143zM657 689v-775h-90v340h-118v-340h-90v775h90v-329h118v329h90z" />
    <glyph glyph-name="Korea1.643" unicode="&#x2126;" 
d="M746 368c0 -159 -87 -278 -181 -315v-49h141v-91h-198c-25 0 -34 17 -34 42v123c0 35 5 50 35 59c76 25 137 104 137 232c0 146 -78 237 -197 237c-115 0 -195 -96 -195 -240c0 -116 42 -190 144 -233c35 -14 32 -43 32 -56l-1 -122c0 -21 -8 -42 -35 -42h-191v91h133v46
c-104 38 -184 148 -184 314c-1 188 126 341 297 341c174 0 297 -144 297 -337z" />
    <glyph glyph-name="Korea1.644" unicode="&#x33c0;" 
d="M867 363c0 -157 -57 -268 -128 -308v-50h93v-91h-130c-46 0 -40 27 -40 43v117c0 36 5 56 23 61c55 18 86 103 86 229c0 144 -53 234 -124 234c-65 0 -121 -94 -121 -237c0 -112 29 -193 87 -228c29 -15 25 -33 25 -57v-119c0 -21 -14 -43 -37 -43h-129v91h84v48
c-74 40 -127 142 -127 306c0 190 87 339 218 339c136 0 220 -141 220 -335zM199 157l-30 -40v-203h-93v772h93v-412l147 203h109l-162 -232l160 -331h-106z" />
    <glyph glyph-name="Korea1.645" unicode="&#x33c1;" 
d="M136 688l111 -570l109 570h100v-773h-83v425l-79 -425h-92l-82 412v-412h-85v773h101zM914 360c0 -157 -58 -268 -127 -308v-47h93v-91h-133c-33 0 -42 22 -42 45v114c0 25 1 52 23 59c58 21 90 103 90 229c0 144 -52 234 -124 234c-65 0 -120 -94 -120 -237
c0 -112 23 -192 91 -226c25 -11 24 -34 24 -58v-117c0 -20 -8 -43 -42 -43h-128v91h84v45c-74 40 -126 142 -126 306c0 190 87 339 217 339c136 0 220 -141 220 -335z" />
    <glyph glyph-name="Korea1.646" unicode="&#x338a;" 
d="M169 478v-26c29 32 62 45 106 45c113 0 186 -112 186 -298c0 -188 -73 -303 -186 -303c-52 0 -91 23 -106 41v-212h-94v753h94zM265 391c-57 0 -96 -70 -96 -192s39 -193 96 -193s96 71 96 193s-39 192 -96 192zM879 691v-103h-282v-227h237v-105h-237v-340h-105v775h387
z" />
    <glyph glyph-name="Korea1.647" unicode="&#x338b;" 
d="M858 688v-101h-291v-232h248v-104h-248v-337h-105v774h396zM188 475v-19c15 16 51 39 112 26c84 -17 111 -110 111 -191v-377h-97v334c0 93 -25 131 -54 131c-34 0 -72 -31 -72 -121v-344h-96v561h96z" />
    <glyph glyph-name="Korea1.648" unicode="&#x338c;" 
d="M294 -32c-24 -33 -54 -54 -103 -54c-35 0 -60 23 -61 26l-3 -1l-22 -115h-92l106 652h93l-53 -357c-11 -71 9 -100 53 -100c63 0 87 89 97 151l52 306h96l-72 -441c-2 -13 3 -27 7 -28c8 -3 41 -3 58 -2l-25 -91c-47 0 -87 -4 -104 15c-15 12 -23 24 -27 39zM884 690
v-103h-291v-228h248v-104h-248v-341h-105v776h396z" />
    <glyph glyph-name="Korea1.649" unicode="&#x33d6;" 
d="M331 196c0 176 49 302 147 302c96 0 143 -126 143 -302c0 -175 -47 -303 -143 -303c-98 0 -147 128 -147 303zM478 396c-39 0 -65 -81 -65 -200c0 -118 26 -201 65 -201c35 0 61 83 61 201c0 119 -26 200 -61 200zM84 476v-15c8 12 24 23 36 23c37 0 47 -15 52 -25
c9 13 25 27 52 27c63 0 90 -60 90 -185v-386h-81v397c0 70 -11 74 -16 74s-15 -8 -15 -74v-397h-83v402c0 77 -10 69 -14 69c-6 -1 -18 -2 -18 -69v-402h-80l1 561h76zM851 66l60 -70c-23 -72 -47 -102 -90 -117c-38 -13 -93 16 -115 63c-4 -1 -22 -19 -70 -22l-22 94
c17 3 48 15 54 21c-32 98 -36 202 -33 317c5 206 60 364 143 370c92 8 120 -158 101 -380c-16 -182 -54 -276 -98 -341c14 -24 23 -24 29 -20c7 2 23 30 41 85zM778 622c-19 -3 -50 -154 -54 -271c-1 -106 12 -236 14 -244c14 19 46 132 53 243c10 125 6 273 -13 272z" />
    <glyph glyph-name="Korea1.650" unicode="&#x33c5;" 
d="M741 -86v38c-23 -28 -51 -46 -103 -46c-130 -1 -179 116 -179 286c0 173 72 289 195 288c57 -1 77 -19 87 -34v244h100v-776h-100zM655 386c-62 0 -99 -80 -99 -194c0 -108 30 -194 91 -194c57 0 92 89 92 194s-23 194 -84 194zM348 94h102c-18 -121 -79 -206 -204 -206
c-146 0 -213 127 -213 302c0 178 86 299 229 299c125 0 182 -114 182 -221h-96c-1 28 -17 115 -88 115c-81 0 -125 -67 -125 -190c0 -125 35 -204 114 -204c58 0 95 46 99 105z" />
    <glyph glyph-name="Korea1.651" unicode="&#x33ad;" 
d="M471 459c1 10 3 19 5 28h80c-7 -57 -18 -147 -18 -215v-202c0 -40 19 -96 35 -130l-75 -47c-13 24 -20 41 -26 57c-19 -30 -47 -48 -89 -48c-105 0 -146 130 -146 297c0 182 58 293 155 293c30 0 58 -10 79 -33zM448 205c0 93 -9 190 -57 190c-38 0 -61 -79 -61 -196
c0 -106 13 -202 55 -202c47 0 63 104 63 208zM803 447v242h86v-775h-86v34c-23 -25 -51 -41 -91 -41c-116 -1 -158 115 -158 285c0 173 62 289 171 288c37 -1 59 -13 78 -33zM726 386c-50 0 -81 -80 -81 -194c0 -108 26 -194 74 -194c46 0 76 89 76 194s-22 194 -69 194z
M114 475v-62c18 29 35 41 71 59c30 18 72 15 72 15v-112c-28 0 -54 -6 -68 -16c-48 -30 -75 -83 -75 -177v-268h-96v561h96z" />
    <glyph glyph-name="Korea1.652" unicode="&#x33ae;" 
d="M531 632v123h69v-408h-68v12c-14 -11 -30 -18 -56 -18c-65 0 -104 63 -104 154c0 92 36 156 114 155c24 0 39 -9 45 -18zM489 584c-29 0 -49 -38 -49 -87c0 -50 15 -90 43 -90c26 0 44 42 44 90c0 47 -12 87 -38 87zM791 87c40 -19 57 -52 51 -92
c-5 -50 -42 -91 -118 -91c-85 0 -122 57 -124 133h73c1 -48 22 -64 52 -64c32 0 45 15 47 28c1 10 -4 23 -17 26c-16 4 -42 9 -77 22c-42 16 -65 37 -65 84c1 49 34 97 111 97c86 0 115 -58 115 -120h-70c0 40 -16 51 -45 51c-28 0 -39 -17 -39 -28c0 -7 11 -18 23 -21
c6 -4 43 -7 83 -25zM907 561l-695 -734l-46 51l690 729zM173 653v-51c19 34 48 53 86 53c27 0 45 -13 53 -23c-1 5 -3 12 -2 22h60c-2 -29 -9 -82 -9 -118v-103c0 -18 11 -43 26 -64l-61 -29l-16 19s-14 -20 -60 -20c-72 0 -100 71 -100 160c0 32 6 59 14 81
c-17 0 -30 -3 -36 -5c-27 -17 -45 -41 -45 -85v-143h-75v301h75v-19s9 5 43 17c21 11 47 7 47 7zM292 502c0 46 -5 87 -33 87c-19 0 -36 -36 -36 -89c0 -47 11 -93 32 -93c27 0 37 47 37 95z" />
    <glyph glyph-name="Korea1.653" unicode="&#x33af;" 
d="M531 632v123h69v-408h-68v12c-14 -11 -30 -18 -56 -18c-65 0 -104 63 -104 154c0 92 36 156 113 155c25 0 40 -9 46 -18zM488 584c-28 0 -48 -38 -48 -87c0 -50 15 -90 43 -90c26 0 44 42 44 90c0 47 -12 87 -39 87zM725 87c41 -19 57 -52 53 -92
c-6 -50 -45 -91 -120 -91c-84 0 -123 57 -125 133h74c1 -48 21 -64 52 -64c32 0 45 15 47 28c1 10 -4 23 -17 26c-15 4 -42 9 -77 22c-41 16 -65 37 -65 84c1 49 34 97 111 97c85 0 116 -58 116 -120h-70c0 40 -17 51 -46 51s-38 -17 -38 -28c0 -7 9 -18 21 -21
c7 -4 44 -7 84 -25zM904 561l-695 -734l-46 51l690 729zM918 216v-53h-144c-1 38 6 63 32 89c9 11 26 22 35 30c11 10 22 20 23 31c1 9 -7 16 -19 16c-16 0 -19 -17 -18 -39h-53c-1 45 18 88 70 88c54 0 73 -35 73 -67c0 -28 -18 -42 -32 -56c-14 -13 -33 -24 -43 -39h76z
M173 653v-51c19 34 48 53 86 53c27 0 45 -13 53 -23c-1 5 -3 12 -2 22h60c-2 -29 -9 -82 -9 -118v-103c0 -18 11 -43 26 -64l-61 -29l-16 19s-14 -20 -60 -20c-73 0 -100 71 -100 160c0 32 6 59 14 81c-17 0 -30 -3 -37 -5c-26 -17 -44 -41 -44 -85v-143h-75v301h75v-19
s9 5 42 17c22 11 48 7 48 7zM292 502c0 46 -5 87 -33 87c-19 0 -36 -36 -36 -89c0 -47 11 -93 32 -93c26 0 37 47 37 95z" />
    <glyph glyph-name="Korea1.654" unicode="&#x33db;" 
d="M638 476v-75c28 36 54 55 94 75c37 17 101 17 101 17v-112c-31 0 -80 -5 -101 -14c-53 -32 -94 -87 -94 -182v-269h-98v560h98zM85 111h103c6 -68 43 -112 107 -112c50 0 85 25 91 71c3 24 -16 50 -42 66c-44 21 -99 27 -144 44c-59 25 -101 70 -99 149
c3 86 74 166 192 166c130 0 191 -103 188 -192h-105c3 36 -15 86 -88 86c-59 0 -79 -34 -80 -61c-1 -43 21 -51 56 -63c28 -10 96 -21 144 -53c49 -33 87 -69 83 -143c-4 -105 -86 -170 -194 -170c-162 0 -210 127 -212 212z" />
    <glyph glyph-name="Korea1.655" unicode="&#x33a9;" 
d="M749 447c2 14 6 24 9 40h93c-10 -58 -23 -145 -23 -215v-202c0 -40 17 -101 42 -137l-93 -37c-25 45 -21 49 -26 71c-12 -26 -41 -65 -117 -65c-123 0 -171 130 -171 297c0 181 72 293 184 293c45 0 80 -15 102 -45zM723 205c0 93 -9 190 -78 190c-57 0 -83 -79 -83 -196
c0 -105 17 -203 76 -203c66 0 85 102 85 209zM72 690h214c110 0 193 -93 193 -237c0 -138 -83 -236 -193 -236h-120v-303h-94v776zM166 314h120c42 0 94 48 94 139c0 94 -51 142 -94 142h-120v-281z" />
    <glyph glyph-name="Korea1.656" unicode="&#x33aa;" 
d="M94 689v-412l125 197h102l-144 -232l142 -329h-98l-104 239l-23 -37v-202h-86v776h86zM815 -60c-10 -24 -37 -39 -75 -39c-95 0 -128 129 -128 297c0 182 50 293 139 293c36 0 53 -12 65 -25c1 -1 0 12 1 20h81c-7 -57 -13 -135 -13 -215v-202c0 -36 13 -107 28 -139
l-83 -32c-8 17 -13 29 -15 42zM791 204c0 93 -7 190 -41 190c-29 0 -47 -80 -47 -196c0 -114 10 -202 40 -202c34 0 48 105 48 208zM331 689h141c86 0 157 -89 157 -233c0 -138 -64 -245 -152 -245h-59v-298h-87v776zM418 309h58c28 0 66 55 66 147c0 94 -38 138 -66 138
h-58v-285z" />
    <glyph glyph-name="Korea1.657" unicode="&#x33ab;" 
d="M157 -85l-62 399v-399h-76v774h97l78 -512l79 512h93v-774h-76v424l-62 -424h-71zM827 -50c-4 -8 -32 -48 -71 -48c-89 0 -118 128 -118 298c0 181 40 286 121 286c29 0 54 -18 63 -37c2 8 3 24 4 33l73 3c-4 -57 -15 -132 -15 -213v-202c0 -36 14 -99 25 -128l-66 -39
c-4 22 -10 28 -16 47zM794 205c0 103 -4 190 -35 190c-28 0 -39 -81 -39 -195c0 -116 11 -203 36 -203c27 0 38 92 38 208zM384 689h134c78 0 135 -91 135 -235c0 -138 -61 -239 -138 -239h-49v-301h-82v775zM466 313h42c29 0 59 52 59 144c0 94 -28 137 -58 137h-43v-281z
" />
    <glyph glyph-name="Korea1.658" unicode="&#x33ac;" 
d="M264 -86v40c-15 -23 -38 -46 -77 -47c-130 -3 -179 156 -179 390c0 228 55 398 186 398c136 0 154 -145 151 -258h-82c0 69 -16 155 -69 155c-65 0 -93 -121 -94 -295c-1 -171 25 -295 89 -295c51 0 75 110 75 193v32h-80v85h163v-398h-83zM369 689h143
c79 0 129 -96 129 -240c0 -138 -50 -236 -129 -236h-61v-299h-82v775zM828 -102l-12 50c-4 -11 -29 -46 -67 -46c-91 0 -120 128 -120 297c0 182 44 291 127 291c28 0 48 -15 55 -30c0 -1 3 17 4 27h77c-8 -57 -15 -135 -15 -215v-202c0 -36 12 -103 24 -133zM451 310h52
c21 0 52 47 52 139c0 94 -30 145 -52 145h-52v-284zM792 200c0 93 -10 195 -37 195c-23 0 -40 -78 -40 -194c0 -115 11 -206 35 -206c28 0 42 89 42 205z" />
    <glyph glyph-name="Korea1.659" unicode="&#x33dd;" 
d="M110 689l53 -471l51 471h95l52 -474l54 474h90l-98 -775h-93l-52 472l-53 -472h-91l-99 775h91zM617 689v-250c21 22 50 37 96 38c120 2 195 -113 195 -286c0 -170 -63 -285 -190 -284c-50 0 -80 23 -101 47v-40h-93v775h93zM712 384c-63 0 -85 -88 -85 -193
s37 -194 86 -194c63 0 100 87 100 194c0 113 -36 193 -101 193z" />
    <glyph glyph-name="Korea1.660" unicode="&#x33d0;" 
d="M536 476v-16c19 20 38 30 61 30c60 0 78 -28 84 -47c14 26 38 47 89 47c84 0 123 -64 123 -189v-386h-96v382c0 70 -16 91 -38 91c-20 0 -40 -26 -40 -91v-382h-98v384c0 78 -19 89 -41 88c-17 -1 -38 -21 -38 -88v-384h-97v561h91zM363 59l74 -63
c-36 -74 -70 -104 -124 -117c-50 -11 -117 13 -159 72c-23 -12 -62 -26 -110 -28l-34 94c26 3 80 13 96 20c-43 90 -50 200 -46 315c5 206 85 364 193 370c117 6 162 -163 134 -381c-24 -181 -85 -286 -145 -341c18 -27 44 -31 63 -22s38 35 58 81zM251 622
c-46 -4 -87 -149 -91 -271c-3 -96 15 -229 30 -263c45 47 88 149 99 263c14 125 11 272 -38 271z" />
    <glyph glyph-name="Korea1.661" unicode="&#x33d3;" 
d="M371 61l73 -63c-35 -74 -69 -104 -123 -117c-50 -11 -117 13 -158 72c-25 -13 -63 -26 -111 -28l-34 94c27 3 80 13 94 20c-41 90 -48 200 -44 315c5 206 85 364 194 370c116 6 161 -163 133 -381c-24 -181 -85 -286 -145 -341c18 -27 44 -31 63 -22s38 35 58 81z
M260 623c-47 -3 -88 -148 -92 -270c-3 -96 15 -229 30 -263c45 47 89 149 99 263c14 124 11 272 -37 270zM892 477l-173 -272l183 -288h-113l-126 199l-127 -199h-112l183 288l-174 272h113l117 -182l116 182h113z" />
    <glyph glyph-name="Korea1.662" unicode="&#x33c3;" 
d="M755 452v25h89v-753h-89l1 219c-26 -31 -56 -47 -95 -47c-109 0 -181 114 -181 302c0 186 74 294 183 294c38 0 67 -11 92 -40zM667 -5c52 0 88 75 88 203c0 129 -36 199 -88 199c-56 0 -91 -70 -91 -199c0 -128 35 -203 91 -203zM378 328c36 -29 82 -87 81 -201
c-2 -128 -83 -212 -180 -212h-202v775h209c93 0 145 -81 152 -171c8 -92 -20 -157 -60 -191zM167 368h105c37 0 71 56 71 120c0 66 -30 112 -70 112h-106v-232zM167 12h111c46 0 84 55 84 135c0 68 -47 124 -83 124h-112v-259z" />
    <glyph glyph-name="Korea1.663" unicode="&#x33c9;" 
d="M395 -84v46c-32 -40 -78 -68 -136 -68c-157 0 -244 161 -244 405s95 401 249 401c139 0 213 -112 223 -257h-106c-7 87 -43 154 -121 154c-87 0 -143 -123 -143 -298s55 -303 142 -303c76 0 132 116 134 215h-147v100h244v-395h-95zM599 478l112 -382l103 382h102
l-188 -652c-15 -45 -27 -65 -55 -85c-32 -20 -54 -17 -79 -17h-38v100h52c12 0 27 18 30 36l19 66l-163 552h105z" />
    <glyph glyph-name="Korea1.664" unicode="&#x33dc;" 
d="M594 477l111 -390l105 390h102l-160 -565h-94l-167 565h103zM497 106c-15 -120 -87 -220 -237 -220c-166 0 -243 149 -247 294h106c4 -128 64 -191 142 -191c79 0 118 53 129 123c8 54 -18 86 -58 112c-45 28 -109 22 -171 54c-81 41 -126 94 -125 204
c0 105 72 221 219 221c174 0 226 -159 226 -256h-105c0 89 -40 156 -121 156c-72 0 -110 -64 -110 -121c0 -62 36 -90 63 -104c37 -17 127 -21 187 -63c70 -47 111 -111 102 -209z" />
    <glyph glyph-name="Korea1.665" unicode="&#x33c6;" 
d="M544 60l113 -165c-1 4 -1 7 -1 11h74c1 -31 18 -50 49 -50c32 0 46 21 46 59v5c-3 0 -15 -12 -55 -12c-68 0 -124 59 -124 143c0 83 49 142 123 142c22 0 46 -6 56 -19v11h73v-269c0 -95 -58 -127 -119 -127c-72 0 -114 41 -122 104h-92l-74 114l-13 -11v-103h-75v394h75
v-190l87 88h99zM775 125c-30 0 -51 -25 -51 -74c0 -48 21 -73 51 -73c29 0 50 27 50 75s-20 72 -50 72zM721 754l53 -50l-721 -774l-53 51zM265 466h84c-18 -91 -65 -152 -153 -152c-99 0 -158 85 -158 205c0 121 59 206 158 206c88 0 139 -71 152 -152h-82
c-6 33 -27 72 -70 72c-46 0 -77 -51 -77 -126s31 -125 77 -125c36 0 62 31 69 72z" />
    <glyph glyph-name="Korea1.666" unicode="&#xc6;" horiz-adv-x="858" 
d="M818 88v-110h-397v190h-207l-74 -190h-140l302 746h514v-110h-261v-195h238v-111h-238v-220h263zM391 614l-139 -338h169v338h-30z" />
    <glyph glyph-name="Korea1.667" unicode="&#xd0;" horiz-adv-x="732" 
d="M689 352c0 -279 -183 -374 -407 -374h-200v324h-77v110h77v312h200c219 0 407 -96 407 -372zM410 412v-110h-192v-214h86c132 0 242 100 242 263c0 161 -113 263 -240 263h-88v-202h192z" />
    <glyph glyph-name="Korea1.668" unicode="&#xaa;" horiz-adv-x="450" 
d="M368 441h-74l-3 19c-19 -15 -49 -26 -86 -26c-86 -1 -131 41 -131 117c0 63 63 113 157 113c24 0 27 0 50 -1c-1 41 -16 63 -64 63c-31 0 -71 -16 -107 -43l-2 71c38 24 74 42 119 42c97 0 135 -54 135 -147v-118c0 -29 4 -73 6 -90zM285 571v25h-25
c-22 1 -105 -3 -105 -45c0 -30 25 -48 48 -48c51 0 82 33 82 68z" />
    <glyph glyph-name="Korea1.669" unicode="&#x126;" horiz-adv-x="732" 
d="M722 619v-110h-70v-531h-136v329h-300v-329h-136v531h-70v110h70v105h136v-105h300v105h136v-105h70zM216 419h300v90h-300v-90z" />
    <glyph glyph-name="Korea1.670" unicode="&#x132;" horiz-adv-x="675" 
d="M225 724v-746h-135v746h135zM597 724v-570c0 -83 -49 -189 -198 -189c-38 0 -68 3 -105 14v118c20 -7 42 -12 68 -12c46 0 72 18 85 43s14 58 14 88v508h136z" />
    <glyph glyph-name="Korea1.671" unicode="&#x13f;" horiz-adv-x="510" 
d="M503 88v-110h-419v746h136v-636h283zM407 502c46 0 81 -36 81 -79c0 -44 -35 -78 -81 -78c-47 0 -82 34 -82 78s35 79 82 79z" />
    <glyph glyph-name="Korea1.672" unicode="&#x141;" horiz-adv-x="510" 
d="M276 550l81 -75l-137 -139v-248h283v-110h-419v220l-45 -45l-79 73l124 127v371h136v-232z" />
    <glyph glyph-name="Korea1.673" unicode="&#xd8;" horiz-adv-x="788" 
d="M679 759l82 -76l-80 -91c43 -65 65 -147 65 -239c0 -220 -125 -388 -350 -388c-84 0 -153 22 -207 61l-80 -92l-81 72l85 98c-45 67 -68 152 -68 249c0 221 125 384 351 384c84 0 154 -24 209 -64zM396 627c-147 0 -208 -143 -208 -274c0 -47 7 -94 22 -137l312 362
c-32 30 -73 49 -126 49zM604 353c0 42 -7 86 -21 126l-312 -359c31 -27 72 -44 125 -44c151 0 208 143 208 277z" />
    <glyph glyph-name="Korea1.674" unicode="&#x152;" horiz-adv-x="887" 
d="M837 88v-110h-395v3c-28 -10 -59 -16 -91 -16c-205 0 -316 166 -316 388c0 221 113 384 316 384c33 0 63 -6 91 -15v2h393v-110h-259v-195h236v-111h-236v-220h261zM351 627c-132 0 -187 -143 -187 -274c0 -134 50 -277 187 -277c36 0 66 7 91 23v503
c-25 16 -55 25 -91 25z" />
    <glyph glyph-name="Korea1.675" unicode="&#xba;" horiz-adv-x="450" 
d="M221 430c-94 0 -123 108 -123 181c0 69 27 178 123 178s122 -109 122 -178c0 -73 -28 -181 -122 -181zM221 498c41 0 47 80 47 113c0 27 -8 113 -47 113s-46 -86 -46 -113c0 -33 4 -113 46 -113z" />
    <glyph glyph-name="Korea1.676" unicode="&#xde;" horiz-adv-x="732" 
d="M214 89v-111h-134v746h134v-116h235c127 0 243 -74 243 -256c0 -180 -113 -263 -243 -263h-235zM214 203h231c66 0 109 67 109 149c0 79 -43 144 -109 144h-231v-293z" />
    <glyph glyph-name="Korea1.677" unicode="&#x166;" horiz-adv-x="566" 
d="M525 418v-108h-175v-332h-135v332h-173v108h173v196h-208v110h552v-110h-209v-196h175z" />
    <glyph glyph-name="Korea1.678" unicode="&#x14a;" horiz-adv-x="746" 
d="M668 724v-763c0 -83 -45 -189 -194 -189c-38 0 -68 3 -105 14v118c20 -7 42 -12 68 -12c46 0 72 18 85 43c8 16 11 35 13 54l-322 568v-579h-131v746h171l283 -521v521h132z" />
    <glyph glyph-name="Korea1.679" unicode="&#x3260;" 
d="M824 300c0 221 -162 400 -367 400c-204 0 -366 -179 -366 -400s162 -400 366 -400c205 0 367 179 367 400zM665 513v-428h-101v334h-324v94h425zM889 300c0 -257 -193 -466 -432 -466c-238 0 -431 209 -431 466s193 466 431 466c239 0 432 -209 432 -466z" />
    <glyph glyph-name="Korea1.680" unicode="&#x3261;" 
d="M824 300c0 221 -162 400 -367 400c-204 0 -366 -179 -366 -400s162 -400 366 -400c205 0 367 179 367 400zM676 181v-94h-426v428h101v-334h325zM889 300c0 -257 -193 -466 -432 -466c-238 0 -431 209 -431 466s193 466 431 466c239 0 432 -209 432 -466z" />
    <glyph glyph-name="Korea1.681" unicode="&#x3262;" 
d="M824 300c0 221 -162 400 -367 400c-204 0 -366 -179 -366 -400s162 -400 366 -400c205 0 367 179 367 400zM670 180v-94h-422v428h418v-94h-315v-240h319zM889 300c0 -257 -193 -466 -432 -466c-238 0 -431 209 -431 466s193 466 431 466c239 0 432 -209 432 -466z" />
    <glyph glyph-name="Korea1.682" unicode="&#x3263;" 
d="M824 300c0 221 -162 400 -367 400c-204 0 -366 -179 -366 -400s162 -400 366 -400c205 0 367 179 367 400zM676 179v-95h-428v263h317v74h-317v95h419v-263h-317v-74h326zM889 300c0 -257 -193 -466 -432 -466c-238 0 -431 209 -431 466s193 466 431 466
c239 0 432 -209 432 -466z" />
    <glyph glyph-name="Korea1.683" unicode="&#x3264;" 
d="M824 300c0 221 -162 400 -367 400c-204 0 -366 -179 -366 -400s162 -400 366 -400c205 0 367 179 367 400zM667 516v-432h-419v432h419zM350 179h215v242h-215v-242zM889 300c0 -257 -193 -466 -432 -466c-238 0 -431 209 -431 466s193 466 431 466
c239 0 432 -209 432 -466z" />
    <glyph glyph-name="Korea1.684" unicode="&#x3265;" 
d="M824 300c0 221 -162 400 -367 400c-204 0 -366 -179 -366 -400s162 -400 366 -400c205 0 367 179 367 400zM667 515v-432h-419v432h102v-117h215v117h102zM350 178h215v125h-215v-125zM889 300c0 -257 -193 -466 -432 -466c-238 0 -431 209 -431 466s193 466 431 466
c239 0 432 -209 432 -466z" />
    <glyph glyph-name="Korea1.685" unicode="&#x3266;" 
d="M824 300c0 221 -162 400 -367 400c-204 0 -366 -179 -366 -400s162 -400 366 -400c205 0 367 179 367 400zM721 162l-74 -61c-33 5 -68 19 -113 57s-64 68 -77 99c-12 -31 -38 -69 -77 -101c-44 -39 -80 -49 -112 -55l-74 61c37 8 81 23 132 69c54 49 80 125 80 201v123
h103v-123c0 -76 24 -152 80 -201c51 -45 95 -61 132 -69zM889 300c0 -257 -193 -466 -432 -466c-238 0 -431 209 -431 466s193 466 431 466c239 0 432 -209 432 -466z" />
    <glyph glyph-name="Korea1.686" unicode="&#x3267;" 
d="M824 300c0 221 -162 400 -367 400c-204 0 -366 -179 -366 -400s162 -400 366 -400c205 0 367 179 367 400zM685 300c0 -137 -94 -251 -228 -251c-133 0 -226 114 -226 251s93 251 226 251c134 0 228 -114 228 -251zM584 300c0 86 -45 156 -127 156
c-81 0 -126 -70 -126 -156s45 -156 126 -156c82 0 127 70 127 156zM889 300c0 -257 -193 -466 -432 -466c-238 0 -431 209 -431 466s193 466 431 466c239 0 432 -209 432 -466z" />
    <glyph glyph-name="Korea1.687" unicode="&#x3268;" 
d="M824 300c0 221 -162 400 -367 400c-204 0 -366 -179 -366 -400s162 -400 366 -400c205 0 367 179 367 400zM721 165l-74 -62c-33 5 -68 19 -113 58c-44 38 -64 67 -77 99c-12 -32 -39 -69 -77 -101c-45 -38 -80 -50 -112 -56l-74 62c37 8 81 21 132 68
c49 44 73 110 78 177h-164v94h435v-94h-165c6 -67 29 -133 79 -177c51 -46 95 -60 132 -68zM889 300c0 -257 -193 -466 -432 -466c-238 0 -431 209 -431 466s193 466 431 466c239 0 432 -209 432 -466z" />
    <glyph glyph-name="Korea1.688" unicode="&#x3269;" 
d="M824 300c0 221 -162 400 -367 400c-204 0 -366 -179 -366 -400s162 -400 366 -400c205 0 367 179 367 400zM597 559v-96h-279v96h279zM721 121l-74 -61c-33 5 -68 19 -113 57c-44 39 -64 68 -77 99c-12 -31 -39 -68 -77 -101c-45 -37 -80 -49 -112 -55l-74 61
c37 9 81 22 132 68c39 34 62 83 72 133h-157v94h433v-94h-157c10 -50 32 -99 72 -133c51 -45 95 -59 132 -68zM889 300c0 -257 -193 -466 -432 -466c-238 0 -431 209 -431 466s193 466 431 466c239 0 432 -209 432 -466z" />
    <glyph glyph-name="Korea1.689" unicode="&#x326a;" 
d="M824 300c0 221 -162 400 -367 400c-204 0 -366 -179 -366 -400s162 -400 366 -400c205 0 367 179 367 400zM666 519v-438h-101v155h-316v94h316v95h-316v94h417zM889 300c0 -257 -193 -466 -432 -466c-238 0 -431 209 -431 466s193 466 431 466c239 0 432 -209 432 -466z
" />
    <glyph glyph-name="Korea1.690" unicode="&#x326b;" 
d="M824 300c0 221 -162 400 -367 400c-204 0 -366 -179 -366 -400s162 -400 366 -400c205 0 367 179 367 400zM673 175v-94h-425v438h421v-94h-319v-78h315v-94h-315v-78h323zM889 300c0 -257 -193 -466 -432 -466c-238 0 -431 209 -431 466s193 466 431 466
c239 0 432 -209 432 -466z" />
    <glyph glyph-name="Korea1.691" unicode="&#x326c;" 
d="M824 300c0 221 -162 400 -367 400c-204 0 -366 -179 -366 -400s162 -400 366 -400c205 0 367 179 367 400zM666 180v-94h-417v94h74v240h-64v94h397v-94h-64v-240h74zM425 180h65v240h-65v-240zM889 300c0 -257 -193 -466 -432 -466c-238 0 -431 209 -431 466
s193 466 431 466c239 0 432 -209 432 -466z" />
    <glyph glyph-name="Korea1.692" unicode="&#x326d;" 
d="M824 300c0 221 -162 400 -367 400c-204 0 -366 -179 -366 -400s162 -400 366 -400c205 0 367 179 367 400zM598 549v-93h-283v93h283zM685 426v-93h-148c59 -22 99 -78 99 -144c0 -94 -76 -168 -179 -168c-101 0 -177 74 -177 168c0 66 40 122 99 144h-148v93h454z
M536 188c0 43 -32 78 -79 78c-42 0 -78 -35 -78 -78c0 -40 33 -76 78 -76s79 37 79 76zM889 300c0 -257 -193 -466 -432 -466c-238 0 -431 209 -431 466s193 466 431 466c239 0 432 -209 432 -466z" />
    <glyph glyph-name="Korea1.693" unicode="&#x326e;" 
d="M824 300c0 221 -162 400 -367 400c-204 0 -366 -179 -366 -400s162 -400 366 -400c205 0 367 179 367 400zM207 545h308c-5 -93 -34 -202 -90 -281c-60 -83 -144 -142 -212 -166l-54 65c62 24 125 60 178 127c45 54 71 129 76 172h-206v83zM732 361v-82h-76v-281h-87v603
h87v-240h76zM889 300c0 -257 -193 -466 -432 -466c-238 0 -431 209 -431 466s193 466 431 466c239 0 432 -209 432 -466z" />
    <glyph glyph-name="Korea1.694" unicode="&#x326f;" 
d="M824 300c0 221 -162 400 -367 400c-204 0 -366 -179 -366 -400s162 -400 366 -400c205 0 367 179 367 400zM546 235v-78c-35 -8 -93 -16 -140 -20c-71 -4 -188 -3 -194 -3v412h88v-330c10 0 60 1 115 3c44 2 99 10 131 16zM732 366v-83h-75v-287h-87v605h87v-235h75z
M889 300c0 -257 -193 -466 -432 -466c-238 0 -431 209 -431 466s193 466 431 466c239 0 432 -209 432 -466z" />
    <glyph glyph-name="Korea1.695" unicode="&#x3270;" 
d="M824 300c0 221 -162 400 -367 400c-204 0 -366 -179 -366 -400s162 -400 366 -400c205 0 367 179 367 400zM544 236v-79c-39 -8 -109 -18 -171 -20l-163 -2v406h293v-82h-206v-242c10 0 54 0 110 2c39 2 102 10 137 17zM731 364v-82h-74v-284h-88v605h88v-239h74z
M889 300c0 -257 -193 -466 -432 -466c-238 0 -431 209 -431 466s193 466 431 466c239 0 432 -209 432 -466z" />
    <glyph glyph-name="Korea1.696" unicode="&#x3271;" 
d="M824 300c0 221 -162 400 -367 400c-204 0 -366 -179 -366 -400s162 -400 366 -400c205 0 367 179 367 400zM543 214v-80c-37 -7 -107 -16 -155 -18l-186 -2v263h203v94h-203v81h290v-257h-203v-99c10 0 61 0 112 2c46 2 103 9 142 16zM730 362v-82h-76v-283h-87v604h87
v-239h76zM889 300c0 -257 -193 -466 -432 -466c-238 0 -431 209 -431 466s193 466 431 466c239 0 432 -209 432 -466z" />
    <glyph glyph-name="Korea1.697" unicode="&#x3272;" 
d="M824 300c0 221 -162 400 -367 400c-204 0 -366 -179 -366 -400s162 -400 366 -400c205 0 367 179 367 400zM505 544l1 -416h-299v416h298zM737 361v-81h-78v-284h-86v606h86v-241h78zM296 211h121v251h-121v-251zM889 300c0 -257 -193 -466 -432 -466
c-238 0 -431 209 -431 466s193 466 431 466c239 0 432 -209 432 -466z" />
    <glyph glyph-name="Korea1.698" unicode="&#x3273;" 
d="M824 300c0 221 -162 400 -367 400c-204 0 -366 -179 -366 -400s162 -400 366 -400c205 0 367 179 367 400zM504 561v-432h-298v432h89v-123h121v123h88zM735 363v-82h-77v-283h-87v606h87v-241h77zM295 213h121v144h-121v-144zM889 300c0 -257 -193 -466 -432 -466
c-238 0 -431 209 -431 466s193 466 431 466c239 0 432 -209 432 -466z" />
    <glyph glyph-name="Korea1.699" unicode="&#x3274;" 
d="M824 300c0 221 -162 400 -367 400c-204 0 -366 -179 -366 -400s162 -400 366 -400c205 0 367 179 367 400zM552 178l-56 -71c-16 7 -53 32 -88 64c-24 24 -52 57 -60 80c-8 -23 -34 -57 -59 -80c-35 -33 -73 -59 -91 -66l-58 72c30 10 82 46 117 92c31 40 48 86 48 151
v147h88v-147c0 -65 16 -111 47 -151c34 -46 83 -79 112 -91zM729 363v-83h-76v-284h-88v606h88v-239h76zM889 300c0 -257 -193 -466 -432 -466c-238 0 -431 209 -431 466s193 466 431 466c239 0 432 -209 432 -466z" />
    <glyph glyph-name="Korea1.700" unicode="&#x3275;" 
d="M824 300c0 221 -162 400 -367 400c-204 0 -366 -179 -366 -400s162 -400 366 -400c205 0 367 179 367 400zM517 331c0 -152 -72 -237 -169 -237c-99 0 -169 85 -169 237c0 154 70 237 169 237c98 0 169 -83 169 -237zM736 362v-81h-77v-284h-88v606h88v-241h77zM426 332
c0 88 -27 151 -78 151c-50 0 -79 -62 -79 -151c0 -90 29 -151 79 -151c51 0 78 62 78 151zM889 300c0 -257 -193 -466 -432 -466c-238 0 -431 209 -431 466s193 466 431 466c239 0 432 -209 432 -466z" />
    <glyph glyph-name="Korea1.701" unicode="&#x3276;" 
d="M824 300c0 221 -162 400 -367 400c-204 0 -366 -179 -366 -400s162 -400 366 -400c205 0 367 179 367 400zM565 179l-53 -74c-18 8 -58 33 -92 64c-25 24 -50 57 -59 77c-8 -20 -33 -53 -59 -77c-34 -32 -71 -56 -91 -64l-58 72c28 10 77 36 113 81c30 41 51 85 51 150
v56h-122v82h332v-82h-121v-56c0 -65 19 -109 51 -150c37 -45 80 -69 108 -79zM742 362v-81h-76v-284h-89v606h89v-241h76zM889 300c0 -257 -193 -466 -432 -466c-238 0 -431 209 -431 466s193 466 431 466c239 0 432 -209 432 -466z" />
    <glyph glyph-name="Korea1.702" unicode="&#x3277;" 
d="M824 300c0 221 -162 400 -367 400c-204 0 -366 -179 -366 -400s162 -400 366 -400c205 0 367 179 367 400zM441 589v-84h-180v84h180zM731 363v-82h-76v-283h-88v606h88v-241h76zM555 177l-53 -73c-17 7 -55 28 -91 59c-24 23 -52 54 -60 70c-8 -17 -35 -48 -61 -71
c-38 -32 -70 -51 -89 -60l-58 69c26 12 67 31 110 75c34 35 54 74 54 128v14h-122v82h331v-82h-120v-14c0 -54 20 -91 53 -125c43 -42 79 -61 106 -72zM889 300c0 -257 -193 -466 -432 -466c-238 0 -431 209 -431 466s193 466 431 466c239 0 432 -209 432 -466z" />
    <glyph glyph-name="Korea1.703" unicode="&#x3278;" 
d="M889 300c0 -257 -193 -466 -432 -466c-238 0 -431 209 -431 466s193 466 431 466c239 0 432 -209 432 -466zM824 300c0 221 -162 400 -367 400c-204 0 -366 -179 -366 -400s162 -400 366 -400c205 0 367 179 367 400zM204 546h311c-5 -92 -35 -202 -92 -281
c-60 -84 -148 -142 -213 -168l-54 67c63 23 123 59 179 127c7 7 12 15 17 23l-22 -2l-134 -1v82l157 2l43 4c9 24 14 47 16 65h-208v82zM732 363v-83h-77v-282h-87v605h87v-240h77z" />
    <glyph glyph-name="Korea1.704" unicode="&#x3279;" 
d="M824 300c0 221 -162 400 -367 400c-204 0 -366 -179 -366 -400s162 -400 366 -400c205 0 367 179 367 400zM548 215v-79c-32 -7 -86 -15 -124 -17c-73 -4 -203 -4 -210 -4v430h293v-80h-204v-89h197v-81h-197v-98c11 0 63 0 119 3c40 2 95 10 126 15zM735 363v-82h-74
v-283h-88v604h88v-239h74zM889 300c0 -257 -193 -466 -432 -466c-238 0 -431 209 -431 466s193 466 431 466c239 0 432 -209 432 -466z" />
    <glyph glyph-name="Korea1.705" unicode="&#x327a;" 
d="M824 300c0 221 -162 400 -367 400c-204 0 -366 -179 -366 -400s162 -400 366 -400c205 0 367 179 367 400zM530 547v-83h-343v83h343zM739 363v-82h-74v-283h-89v606h89v-241h74zM558 214v-82c-42 -6 -105 -15 -172 -16l-206 -1v83h63l-16 246h87l13 -246c29 0 43 0 66 1
l13 245h88l-15 -240c29 1 54 6 79 10zM889 300c0 -257 -193 -466 -432 -466c-238 0 -431 209 -431 466s193 466 431 466c239 0 432 -209 432 -466z" />
    <glyph glyph-name="Korea1.706" unicode="&#x327b;" 
d="M824 300c0 221 -162 400 -367 400c-204 0 -366 -179 -366 -400s162 -400 366 -400c205 0 367 179 367 400zM448 588v-82h-194v82h194zM538 475v-82h-372v82h372zM732 363v-82h-77v-283h-88v606h88v-241h77zM515 216c0 -84 -69 -154 -164 -154c-94 0 -162 70 -162 154
s68 153 162 153c95 0 164 -69 164 -153zM351 288c-47 0 -74 -33 -74 -72c0 -40 27 -71 74 -71c49 0 74 31 74 71c0 39 -26 72 -74 72zM889 300c0 -257 -193 -466 -432 -466c-238 0 -431 209 -431 466s193 466 431 466c239 0 432 -209 432 -466z" />
    <glyph glyph-name="Korea1.707" unicode="&#x24d0;" 
d="M824 300c0 221 -162 400 -367 400c-204 0 -366 -179 -366 -400s162 -400 366 -400c205 0 367 179 367 400zM651 84h-94c-7 13 -11 29 -13 51c-24 -29 -79 -59 -135 -64c-76 -8 -141 26 -150 105c-10 80 37 133 97 154c48 16 98 18 132 27c25 6 57 13 57 47
c0 30 -29 55 -89 55c-56 0 -92 -32 -87 -75h-90c-7 94 76 160 178 160c98 0 179 -56 179 -142v-246c0 -37 14 -70 15 -72zM545 264v32c-8 -9 -28 -16 -45 -21c-31 -8 -81 -15 -102 -24c-33 -13 -53 -34 -45 -63c7 -25 55 -29 91 -20c51 14 101 55 101 96zM889 300
c0 -257 -193 -466 -432 -466c-238 0 -431 209 -431 466s193 466 431 466c239 0 432 -209 432 -466z" />
    <glyph glyph-name="Korea1.708" unicode="&#x24d1;" 
d="M824 300c0 221 -162 400 -367 400c-204 0 -366 -179 -366 -400s162 -400 366 -400c205 0 367 179 367 400zM692 218c0 -139 -72 -238 -182 -238c-51 0 -95 23 -126 60v-44h-92v611h92v-211c31 38 75 60 126 60c110 0 182 -100 182 -238zM491 368
c-66 0 -107 -61 -107 -150c0 -88 41 -151 107 -151s107 63 107 151c0 89 -41 150 -107 150zM889 300c0 -257 -193 -466 -432 -466c-238 0 -431 209 -431 466s193 466 431 466c239 0 432 -209 432 -466z" />
    <glyph glyph-name="Korea1.709" unicode="&#x24d2;" 
d="M824 300c0 221 -162 400 -367 400c-204 0 -366 -179 -366 -400s162 -400 366 -400c205 0 367 179 367 400zM553 217h100c-18 -78 -82 -156 -189 -156c-124 0 -200 107 -200 237c0 131 76 238 200 238c108 0 176 -89 189 -156h-99c-7 24 -33 66 -89 66
c-67 0 -109 -67 -109 -148s42 -147 109 -147c51 0 80 37 88 66zM889 300c0 -257 -193 -466 -432 -466c-238 0 -431 209 -431 466s193 466 431 466c239 0 432 -209 432 -466z" />
    <glyph glyph-name="Korea1.710" unicode="&#x24d3;" 
d="M824 300c0 221 -162 400 -367 400c-204 0 -366 -179 -366 -400s162 -400 366 -400c205 0 367 179 367 400zM624 608v-611h-91v43c-31 -37 -73 -59 -126 -59c-111 0 -183 99 -183 238c0 138 72 238 183 238c53 0 95 -21 126 -58v209h91zM426 369c-68 0 -106 -61 -106 -150
c0 -88 38 -151 106 -151c72 0 107 63 107 151c0 89 -35 150 -107 150zM889 300c0 -257 -193 -466 -432 -466c-238 0 -431 209 -431 466s193 466 431 466c239 0 432 -209 432 -466z" />
    <glyph glyph-name="Korea1.711" unicode="&#x24d4;" 
d="M824 300c0 221 -162 400 -367 400c-204 0 -366 -179 -366 -400s162 -400 366 -400c205 0 367 179 367 400zM657 263h-301c0 -46 39 -112 104 -112c46 0 71 29 80 45h103c-19 -61 -69 -136 -182 -136c-119 0 -202 107 -202 238s78 240 200 240c107 0 209 -91 198 -275z
M359 347h198c-7 50 -42 99 -97 99c-58 0 -92 -44 -101 -99zM889 300c0 -257 -193 -466 -432 -466c-238 0 -431 209 -431 466s193 466 431 466c239 0 432 -209 432 -466z" />
    <glyph glyph-name="Korea1.712" unicode="&#x24d5;" 
d="M824 300c0 221 -162 400 -367 400c-204 0 -366 -179 -366 -400s162 -400 366 -400c205 0 367 179 367 400zM548 429v-85h-56v-354h-92v354h-49v85h49v52c0 40 7 62 25 83c16 19 40 32 72 32h51v-85c-20 0 -32 2 -42 -7c-12 -10 -14 -20 -14 -42v-33h56zM889 300
c0 -257 -193 -466 -432 -466c-238 0 -431 209 -431 466s193 466 431 466c239 0 432 -209 432 -466z" />
    <glyph glyph-name="Korea1.713" unicode="&#x24d6;" 
d="M824 300c0 221 -162 400 -367 400c-204 0 -366 -179 -366 -400s162 -400 366 -400c205 0 367 179 367 400zM641 586v-405c0 -145 -104 -187 -194 -187c-116 0 -186 72 -190 147h92c1 -32 41 -62 99 -62c61 0 102 31 102 96v52c-32 -36 -77 -56 -128 -56
c-108 0 -181 91 -181 215c0 123 73 216 181 216c52 0 96 -21 128 -55v39h91zM550 386c0 77 -42 129 -108 129c-65 0 -106 -52 -106 -129c0 -76 41 -128 106 -128c66 0 108 52 108 128zM889 300c0 -257 -193 -466 -432 -466c-238 0 -431 209 -431 466s193 466 431 466
c239 0 432 -209 432 -466z" />
    <glyph glyph-name="Korea1.714" unicode="&#x24d7;" 
d="M824 300c0 221 -162 400 -367 400c-204 0 -366 -179 -366 -400s162 -400 366 -400c205 0 367 179 367 400zM634 300v-307h-91v261c0 69 -25 103 -77 103c-56 0 -95 -46 -95 -114v-250h-91v611h91v-209c28 32 75 63 142 57c83 -8 121 -89 121 -152zM889 300
c0 -257 -193 -466 -432 -466c-238 0 -431 209 -431 466s193 466 431 466c239 0 432 -209 432 -466z" />
    <glyph glyph-name="Korea1.715" unicode="&#x24d8;" 
d="M824 300c0 221 -162 400 -367 400c-204 0 -366 -179 -366 -400s162 -400 366 -400c205 0 367 179 367 400zM504 601v-99h-92v99h92zM504 435v-445h-92v445h92zM889 300c0 -257 -193 -466 -432 -466c-238 0 -431 209 -431 466s193 466 431 466c239 0 432 -209 432 -466z
" />
    <glyph glyph-name="Korea1.716" unicode="&#x24d9;" 
d="M824 300c0 221 -162 400 -367 400c-204 0 -366 -179 -366 -400s162 -400 366 -400c205 0 367 179 367 400zM518 664v-100h-93v100h93zM518 496v-442c0 -42 -9 -71 -25 -88c-17 -18 -42 -29 -74 -29h-49v84c19 0 32 -2 43 8c11 11 12 21 12 43v424h93zM889 300
c0 -257 -193 -466 -432 -466c-238 0 -431 209 -431 466s193 466 431 466c239 0 432 -209 432 -466z" />
    <glyph glyph-name="Korea1.717" unicode="&#x24da;" 
d="M824 300c0 221 -162 400 -367 400c-204 0 -366 -179 -366 -400s162 -400 366 -400c205 0 367 179 367 400zM472 271l185 -276h-105l-145 209l-37 -41v-168h-91v612h91v-323l147 155h112zM889 300c0 -257 -193 -466 -432 -466c-238 0 -431 209 -431 466s193 466 431 466
c239 0 432 -209 432 -466z" />
    <glyph glyph-name="Korea1.718" unicode="&#x24db;" 
d="M824 300c0 221 -162 400 -367 400c-204 0 -366 -179 -366 -400s162 -400 366 -400c205 0 367 179 367 400zM503 606v-612h-92v612h92zM889 300c0 -257 -193 -466 -432 -466c-238 0 -431 209 -431 466s193 466 431 466c239 0 432 -209 432 -466z" />
    <glyph glyph-name="Korea1.719" unicode="&#x24dc;" 
d="M824 300c0 221 -162 400 -367 400c-204 0 -366 -179 -366 -400s162 -400 366 -400c205 0 367 179 367 400zM725 383v-309h-92v269c0 58 -10 99 -57 98c-46 -3 -72 -40 -72 -108v-259h-91v269c0 58 -10 99 -59 98c-44 -3 -70 -40 -70 -108v-259h-91v444h91v-46
c17 24 51 63 113 61c42 -1 75 -25 91 -63c17 24 49 70 132 62c75 -6 105 -77 105 -149zM889 300c0 -257 -193 -466 -432 -466c-238 0 -431 209 -431 466s193 466 431 466c239 0 432 -209 432 -466z" />
    <glyph glyph-name="Korea1.720" unicode="&#x24dd;" 
d="M824 300c0 221 -162 400 -367 400c-204 0 -366 -179 -366 -400s162 -400 366 -400c205 0 367 179 367 400zM635 373v-306h-91v259c0 70 -25 103 -77 103c-56 0 -95 -44 -95 -113v-249h-91v443h91v-42c28 32 75 63 142 57c83 -8 121 -90 121 -152zM889 300
c0 -257 -193 -466 -432 -466c-238 0 -431 209 -431 466s193 466 431 466c239 0 432 -209 432 -466z" />
    <glyph glyph-name="Korea1.721" unicode="&#x24de;" 
d="M824 300c0 221 -162 400 -367 400c-204 0 -366 -179 -366 -400s162 -400 366 -400c205 0 367 179 367 400zM657 298c0 -130 -75 -237 -198 -237c-124 0 -200 107 -200 237c0 132 76 239 200 239c123 0 198 -107 198 -239zM459 445c-65 0 -107 -66 -107 -147
s42 -147 107 -147c64 0 106 66 106 147s-42 147 -106 147zM889 300c0 -257 -193 -466 -432 -466c-238 0 -431 209 -431 466s193 466 431 466c239 0 432 -209 432 -466z" />
    <glyph glyph-name="Korea1.722" unicode="&#x24df;" 
d="M824 300c0 221 -162 400 -367 400c-204 0 -366 -179 -366 -400s162 -400 366 -400c205 0 367 179 367 400zM684 367c0 -138 -72 -238 -181 -238c-52 0 -96 21 -128 60v-185h-90v584h90v-43c32 37 76 60 128 60c109 0 181 -99 181 -238zM483 518c-66 0 -108 -64 -108 -151
c0 -89 42 -150 108 -150c67 0 107 61 107 150c0 87 -40 151 -107 151zM889 300c0 -257 -193 -466 -432 -466c-238 0 -431 209 -431 466s193 466 431 466c239 0 432 -209 432 -466z" />
    <glyph glyph-name="Korea1.723" unicode="&#x24e0;" 
d="M824 300c0 221 -162 400 -367 400c-204 0 -366 -179 -366 -400s162 -400 366 -400c205 0 367 179 367 400zM622 591v-584h-91v184c-31 -37 -76 -59 -127 -59c-109 0 -182 99 -182 237c0 139 73 238 182 238c51 0 96 -22 127 -60v44h91zM423 520c-67 0 -106 -62 -106 -151
c0 -88 39 -150 106 -150s108 62 108 150c0 89 -41 151 -108 151zM889 300c0 -257 -193 -466 -432 -466c-238 0 -431 209 -431 466s193 466 431 466c239 0 432 -209 432 -466z" />
    <glyph glyph-name="Korea1.724" unicode="&#x24e1;" 
d="M824 300c0 221 -162 400 -367 400c-204 0 -366 -179 -366 -400s162 -400 366 -400c205 0 367 179 367 400zM596 517v-98c-23 0 -50 -5 -75 -22c-35 -25 -55 -62 -55 -126v-213h-92v444h92v-61c16 28 35 45 70 62c24 11 58 14 60 14zM889 300c0 -257 -193 -466 -432 -466
c-238 0 -431 209 -431 466s193 466 431 466c239 0 432 -209 432 -466z" />
    <glyph glyph-name="Korea1.725" unicode="&#x24e2;" 
d="M824 300c0 221 -162 400 -367 400c-204 0 -366 -179 -366 -400s162 -400 366 -400c205 0 367 179 367 400zM631 200c-4 -77 -80 -139 -167 -138c-138 1 -180 104 -181 156h87c3 -35 33 -71 91 -71c50 0 75 25 77 49c3 20 -11 38 -34 48c-39 19 -96 28 -130 43
c-56 23 -82 62 -78 121c4 62 62 128 158 128c107 0 166 -72 165 -140h-87c1 24 -24 54 -72 54s-71 -19 -73 -43c-3 -26 11 -39 41 -50c34 -12 94 -24 135 -45c38 -19 71 -57 68 -112zM889 300c0 -257 -193 -466 -432 -466c-238 0 -431 209 -431 466s193 466 431 466
c239 0 432 -209 432 -466z" />
    <glyph glyph-name="Korea1.726" unicode="&#x24e3;" 
d="M824 300c0 221 -162 400 -367 400c-204 0 -366 -179 -366 -400s162 -400 366 -400c205 0 367 179 367 400zM552 94v-85h-52c-30 0 -54 13 -72 33c-16 18 -24 46 -24 86v242h-50v85h50v136h92v-136h56v-85h-56v-223c0 -24 2 -32 13 -43c10 -10 24 -10 43 -10zM889 300
c0 -257 -193 -466 -432 -466c-238 0 -431 209 -431 466s193 466 431 466c239 0 432 -209 432 -466z" />
    <glyph glyph-name="Korea1.727" unicode="&#x24e4;" 
d="M824 300c0 221 -162 400 -367 400c-204 0 -366 -179 -366 -400s162 -400 366 -400c205 0 367 179 367 400zM631 530v-444h-92v42c-23 -31 -71 -61 -130 -58c-79 5 -126 73 -126 156v304h90v-260c0 -73 25 -104 77 -103c56 1 89 42 89 114v249h92zM889 300
c0 -257 -193 -466 -432 -466c-238 0 -431 209 -431 466s193 466 431 466c239 0 432 -209 432 -466z" />
    <glyph glyph-name="Korea1.728" unicode="&#x24e5;" 
d="M824 300c0 221 -162 400 -367 400c-204 0 -366 -179 -366 -400s162 -400 366 -400c205 0 367 179 367 400zM565 492h98l-151 -438h-105l-152 438h99l106 -315zM889 300c0 -257 -193 -466 -432 -466c-238 0 -431 209 -431 466s193 466 431 466c239 0 432 -209 432 -466z
" />
    <glyph glyph-name="Korea1.729" unicode="&#x24e6;" 
d="M824 300c0 221 -162 400 -367 400c-204 0 -366 -179 -366 -400s162 -400 366 -400c205 0 367 179 367 400zM634 492h92l-107 -436h-100l-63 266l-62 -266h-99l-108 436h92l65 -283l64 283h97l65 -283zM889 300c0 -257 -193 -466 -432 -466c-238 0 -431 209 -431 466
s193 466 431 466c239 0 432 -209 432 -466z" />
    <glyph glyph-name="Korea1.730" unicode="&#x24e7;" 
d="M824 300c0 221 -162 400 -367 400c-204 0 -366 -179 -366 -400s162 -400 366 -400c205 0 367 179 367 400zM511 300l145 -224h-108l-91 140l-89 -140h-108l144 224l-136 213h107l82 -129l85 129h106zM889 300c0 -257 -193 -466 -432 -466c-238 0 -431 209 -431 466
s193 466 431 466c239 0 432 -209 432 -466z" />
    <glyph glyph-name="Korea1.731" unicode="&#x24e8;" 
d="M824 300c0 221 -162 400 -367 400c-204 0 -366 -179 -366 -400s162 -400 366 -400c205 0 367 179 367 400zM574 579h99l-182 -526c-13 -35 -32 -56 -55 -68c-23 -13 -47 -14 -69 -14h-45v83h41c23 0 42 19 47 37l13 37l-157 451h99l104 -313zM889 300
c0 -257 -193 -466 -432 -466c-238 0 -431 209 -431 466s193 466 431 466c239 0 432 -209 432 -466z" />
    <glyph glyph-name="Korea1.732" unicode="&#x24e9;" 
d="M824 300c0 221 -162 400 -367 400c-204 0 -366 -179 -366 -400s162 -400 366 -400c205 0 367 179 367 400zM632 162v-84h-348v84l219 275h-198v84h314v-84l-221 -275h234zM889 300c0 -257 -193 -466 -432 -466c-238 0 -431 209 -431 466s193 466 431 466
c239 0 432 -209 432 -466z" />
    <glyph glyph-name="Korea1.733" unicode="&#x2460;" 
d="M824 300c0 221 -162 400 -367 400c-204 0 -366 -179 -366 -400s162 -400 366 -400c205 0 367 179 367 400zM521 612v-619h-97v422h-122v89c37 0 72 10 99 30c19 16 37 46 37 78h83zM889 300c0 -257 -193 -466 -432 -466c-238 0 -431 209 -431 466s193 466 431 466
c239 0 432 -209 432 -466z" />
    <glyph glyph-name="Korea1.734" unicode="&#x2461;" 
d="M824 300c0 221 -162 400 -367 400c-204 0 -366 -179 -366 -400s162 -400 366 -400c205 0 367 179 367 400zM655 96v-92h-393c0 89 21 173 128 261l97 77c31 27 65 59 67 110c1 55 -28 101 -89 101c-67 0 -96 -54 -95 -118h-97c-3 105 67 209 193 209
c123 0 187 -91 187 -189s-59 -146 -107 -187l-104 -85c-30 -24 -56 -58 -65 -87h278zM889 300c0 -257 -193 -466 -432 -466c-238 0 -431 209 -431 466s193 466 431 466c239 0 432 -209 432 -466z" />
    <glyph glyph-name="Korea1.735" unicode="&#x2462;" 
d="M824 300c0 221 -162 400 -367 400c-204 0 -366 -179 -366 -400s162 -400 366 -400c205 0 367 179 367 400zM658 167c0 -108 -85 -191 -202 -191c-114 0 -206 82 -201 203h98c-3 -60 36 -106 102 -106c63 0 100 40 102 95c4 41 -25 76 -63 88c-27 8 -56 7 -79 7v97
c29 0 60 2 83 13c25 14 42 39 44 75c2 41 -25 86 -88 86c-62 0 -89 -45 -86 -97h-98c-3 110 80 188 184 188c109 0 187 -82 187 -174c0 -77 -45 -122 -74 -138c52 -23 91 -81 91 -146zM889 300c0 -257 -193 -466 -432 -466c-238 0 -431 209 -431 466s193 466 431 466
c239 0 432 -209 432 -466z" />
    <glyph glyph-name="Korea1.736" unicode="&#x2463;" 
d="M824 300c0 221 -162 400 -367 400c-204 0 -366 -179 -366 -400s162 -400 366 -400c205 0 367 179 367 400zM659 177v-97h-76v-93h-98v93h-256v111l257 416h97v-430h76zM328 177h157v251zM889 300c0 -257 -193 -466 -432 -466c-238 0 -431 209 -431 466s193 466 431 466
c239 0 432 -209 432 -466z" />
    <glyph glyph-name="Korea1.737" unicode="&#x2464;" 
d="M824 300c0 221 -162 400 -367 400c-204 0 -366 -179 -366 -400s162 -400 366 -400c205 0 367 179 367 400zM889 300c0 -257 -193 -466 -432 -466c-238 0 -431 209 -431 466s193 466 431 466c239 0 432 -209 432 -466zM265 266l47 329h315v-100h-234l-21 -129
c35 18 100 44 176 6c80 -39 99 -126 101 -165c7 -98 -38 -179 -105 -214c-55 -29 -105 -33 -165 -12c-19 7 -116 55 -128 173h98c0 -4 7 -76 82 -87c77 -11 106 47 115 80s9 99 -30 134c-38 34 -113 36 -148 -15h-103z" />
    </font>
</defs>
</svg>
