<?xml version="1.0" standalone="no"?>
<!DOCTYPE svg PUBLIC "-//W3C//DTD SVG 1.1//EN" "http://www.w3.org/Graphics/SVG/1.1/DTD/svg11.dtd" >
<svg>
<metadata>
Created by FontForge 20120731 at Wed Apr 26 22:28:48 2023
 By fw_worker
Copyright (c) 2023 by HYOSUNG CORPORATION. All rights reserved.
</metadata>
<defs>
<font id="BrandNewHyosungB" horiz-adv-x="910" >
  <font-face 
    font-family="Brand New Hyosung Bold"
    font-weight="700"
    font-stretch="normal"
    units-per-em="1000"
    panose-1="2 0 8 3 0 0 0 0 0 0"
    ascent="800"
    descent="-200"
    x-height="528"
    cap-height="688"
    bbox="-40 -277 987 841"
    underline-thickness="25"
    underline-position="-123"
    unicode-range="U+000A-FFE6"
  />
<missing-glyph horiz-adv-x="900" 
d="M89 -100v800h721v-800h-721zM140 -50h619v700h-619v-700z" />
    <glyph glyph-name=".notdef" horiz-adv-x="900" 
d="M89 -100v800h721v-800h-721zM140 -50h619v700h-619v-700z" />
    <glyph glyph-name="glyph1" horiz-adv-x="0" 
 />
    <glyph glyph-name="glyph2" horiz-adv-x="333" 
 />
    <glyph glyph-name="uni000A" unicode="&#xa;" horiz-adv-x="333" 
 />
    <glyph glyph-name="space" unicode=" " horiz-adv-x="280" 
 />
    <glyph glyph-name="exclam" unicode="!" horiz-adv-x="415" 
d="M286 727l-22 -579h-115l-19 579h156zM280 -83l-144 -20v166h144v-146z" />
    <glyph glyph-name="quotedbl" unicode="&#x22;" horiz-adv-x="491" 
d="M416 776l-10 -239h-118l-10 239h138zM215 776l-10 -239h-119l-10 239h139z" />
    <glyph glyph-name="numbersign" unicode="#" horiz-adv-x="566" 
d="M227 272h88l26 197h-88zM503 177h-84l-27 -199h-116l26 199h-87l-27 -199h-116l26 199h-71v95h84l26 197h-73v94h85l23 161h116l-21 -161h86l23 161h116l-21 -161h68v-94h-82l-26 -197h72v-95z" />
    <glyph glyph-name="dollar" unicode="$" horiz-adv-x="566" 
d="M519 193q0 -92 -48.5 -144.5t-128.5 -71.5v-76h-101v64h-3q-56 0 -102 11t-88 27l15 125q35 -23 81.5 -37.5t89.5 -14.5h7v227q-32 14 -64 30.5t-58 40t-42 56.5t-16 81t14 85.5t38.5 64.5t57 44t70.5 25v78h101v-72q75 -5 142 -26l-13 -114q-30 12 -63 20t-66 10v-222
q32 -14 63.5 -31.5t57 -41.5t41 -57.5t15.5 -80.5zM201 521q0 -22 11 -38t29 -29v154q-19 -12 -29.5 -33.5t-10.5 -53.5zM378 183q0 23 -10 39t-26 29v-141q16 13 26 31.5t10 41.5z" />
    <glyph glyph-name="percent" unicode="%" horiz-adv-x="930" 
d="M905 159q0 -90 -50.5 -142t-150.5 -52q-99 0 -151 52.5t-52 142.5q0 89 52 141t151 52q100 0 150.5 -52.5t50.5 -141.5zM771 160q0 17 -2.5 37t-9.5 36.5t-20 27.5t-35 11q-21 0 -34.5 -11.5t-21 -28.5t-10.5 -36.5t-3 -36.5t3 -37t10.5 -37t21 -28t34.5 -11
q22 0 35 11.5t20 28.5t9.5 37t2.5 37zM735 737l-424 -772h-111l425 772h110zM430 542q0 -89 -49.5 -141t-151.5 -52q-98 0 -150.5 52.5t-52.5 142.5q0 89 52.5 141t150.5 52q102 0 151.5 -52.5t49.5 -142.5zM297 544q0 17 -2.5 36.5t-9.5 36.5t-20.5 28t-35.5 11
q-21 0 -34 -11.5t-20.5 -28.5t-10 -37t-2.5 -37t2.5 -36.5t10 -36.5t20.5 -28t34 -11q22 0 35.5 11t20.5 28t9.5 37t2.5 38z" />
    <glyph glyph-name="ampersand" unicode="&#x26;" horiz-adv-x="732" 
d="M720 -22h-168l-52 63q-39 -40 -90 -58t-108 -18q-53 0 -99 14.5t-80 42.5t-53.5 68t-19.5 90q0 69 35 121t119 87q-20 19 -37 38t-30 40t-20 45t-7 54q0 42 19 74t49 54t68 33t76 11q37 0 73 -10.5t64.5 -32t46 -53.5t17.5 -74q0 -37 -11.5 -66t-31 -52.5t-45.5 -42.5
t-55 -35l131 -161q25 30 36.5 77.5t14.5 94.5h120q-4 -73 -28.5 -140.5t-64.5 -118.5zM403 557q0 41 -24 61.5t-57 20.5q-16 0 -31 -5.5t-26.5 -16.5t-18.5 -26.5t-7 -36.5q0 -16 6.5 -31t16.5 -29.5t21.5 -27.5t22.5 -24q14 7 31 19.5t31.5 27.5t24.5 32.5t10 35.5z
M274 312q-38 -20 -64.5 -51t-26.5 -76q0 -25 10 -46.5t27 -37.5t39.5 -25t48.5 -9q41 0 72 14t54 37z" />
    <glyph glyph-name="quotesingle" unicode="'" horiz-adv-x="288" 
d="M213 776l-10 -239h-119l-10 239h139z" />
    <glyph glyph-name="parenleft" unicode="(" horiz-adv-x="343" 
d="M210 -147q-38 53 -68.5 106t-52.5 108.5t-33.5 115.5t-11.5 126q0 71 11.5 131t33.5 114.5t52.5 105.5t68.5 105h124q-33 -54 -60.5 -105.5t-48 -106t-31.5 -114.5t-11 -130q0 -66 11 -125.5t31.5 -115.5t48 -109t60.5 -106h-124z" />
    <glyph glyph-name="parenright" unicode=")" horiz-adv-x="343" 
d="M298 309q0 -67 -12 -126.5t-34 -115t-53 -108.5t-68 -106h-123q33 53 60.5 106t48 109t32 115.5t11.5 125.5q0 70 -11.5 130t-32 114.5t-48 106t-60.5 105.5h123q38 -54 69 -105t52.5 -105.5t33.5 -114.5t12 -131z" />
    <glyph glyph-name="asterisk" unicode="*" horiz-adv-x="510" 
d="M490 527l-163 -34l113 -128l-101 -70l-82 144l-87 -144l-100 70l115 128l-162 34l37 115l155 -66l-18 168h122l-19 -167l154 65z" />
    <glyph glyph-name="plus" unicode="+" horiz-adv-x="610" 
d="M570 312h-206v-211h-118v211h-206v104h206v211h118v-211h206v-104z" />
    <glyph glyph-name="comma" unicode="," horiz-adv-x="288" 
d="M235 82l-87 -255h-122l66 255h143z" />
    <glyph glyph-name="hyphen" unicode="-" horiz-adv-x="460" 
d="M416 310h-371v107h371v-107z" />
    <glyph glyph-name="period" unicode="." horiz-adv-x="300" 
d="M220 -67l-142 -1v157h142v-156z" />
    <glyph glyph-name="slash" unicode="/" horiz-adv-x="460" 
d="M418 747l-252 -823h-124l253 823h123z" />
    <glyph glyph-name="zero" unicode="0" horiz-adv-x="589" 
d="M40 489q0 125 65 189t189 64q125 0 190 -64t65 -189v-307q0 -125 -65 -189t-190 -64q-124 0 -189 64t-65 189v307zM410 457q0 93 -29 135t-87 42t-86.5 -42t-28.5 -135v-243q0 -93 28.5 -134.5t86.5 -41.5t87 41.5t29 134.5v243z" />
    <glyph glyph-name="one" unicode="1" horiz-adv-x="589" 
d="M426 -46l-141 -21v679h-140v112h281v-770z" />
    <glyph glyph-name="two" unicode="2" horiz-adv-x="589" 
d="M521 -53h-478v124q3 3 18 17.5t34.5 34t40 39.5t34.5 35q40 41 77.5 81.5t67 79.5t47 77t17.5 74q0 51 -34 83.5t-100 32.5h-184v113h218q112 0 176.5 -60t64.5 -171q0 -44 -16 -86.5t-42.5 -84t-59 -80t-65.5 -74.5q-15 -16 -35 -36t-38.5 -38t-32 -31.5l-16.5 -16.5
h322z" />
    <glyph glyph-name="three" unicode="3" horiz-adv-x="589" 
d="M546 167q0 -70 -21.5 -115.5t-60.5 -72t-93.5 -37t-120.5 -10.5h-204v112h186q169 0 169 126q0 37 -14 62t-38.5 40t-56.5 21.5t-68 6.5h-85v112h81q73 0 113.5 28t40.5 83q0 54 -30.5 79.5t-90.5 25.5l-181 1v114l211 -1q44 0 86 -11.5t75 -35.5t53 -61.5t20 -89.5
q0 -38 -10.5 -68.5t-29 -54t-43.5 -39t-54 -24.5v-2q35 -6 65.5 -21.5t53 -39.5t35 -56.5t12.5 -71.5z" />
    <glyph glyph-name="four" unicode="4" horiz-adv-x="589" 
d="M16 92v114l284 518h179v-525h104l-20 -107h-84v-138l-137 -21v159h-326zM342 580h-2l-195 -381h197v381z" />
    <glyph glyph-name="five" unicode="5" horiz-adv-x="589" 
d="M538 169q0 -111 -75 -173.5t-215 -62.5h-180v113h165q30 0 59 7t52.5 22t37.5 39.5t14 60.5v64q0 36 -21.5 59.5t-51.5 32t-61.5 2t-51.5 -29.5h-124l8 421h436l-20 -108h-283l-4 -199q12 11 38 20t51 11q38 3 78 -7.5t73 -34t54 -60.5t21 -88v-89z" />
    <glyph glyph-name="six" unicode="6" horiz-adv-x="589" 
d="M547 143q0 -48 -18.5 -87.5t-51.5 -67t-78.5 -43t-98.5 -15.5q-52 0 -98 13t-80.5 39t-55 66.5t-20.5 94.5v313q0 55 15 104t45 85.5t75.5 57.5t107.5 21h224l-19 -114h-198q-31 0 -53.5 -11.5t-37 -31t-21.5 -46t-7 -57.5v-81l2 -1q29 38 64.5 56t83.5 18q53 0 94 -15
t69 -41.5t42.5 -63.5t14.5 -80v-113zM404 245q0 25 -9 44.5t-24 32.5t-34 20t-40 7t-40.5 -6.5t-34.5 -19.5t-24 -32.5t-9 -44.5v-103q0 -51 26 -77.5t83 -26.5q56 0 81 27t25 77v102z" />
    <glyph glyph-name="seven" unicode="7" horiz-adv-x="589" 
d="M526 606l-264 -658h-152l283 664h-326v112h459v-118z" />
    <glyph glyph-name="eight" unicode="8" horiz-adv-x="589" 
d="M294 741q51 0 95 -15.5t77 -41.5t52 -61t19 -74v-28q0 -60 -31 -102t-88 -68q66 -27 104.5 -72.5t38.5 -111.5v-35q0 -44 -21 -81.5t-57 -64.5t-84.5 -42t-104.5 -15t-104.5 15t-84.5 42t-56.5 64.5t-20.5 81.5v35q0 66 38.5 111.5t104.5 72.5q-57 26 -88 68t-31 102v28
q0 39 19 74t51.5 61t76.5 41.5t95 15.5zM294 412q49 0 77 29t28 72v31q0 42 -27.5 67.5t-77.5 25.5q-49 0 -77 -25.5t-28 -67.5v-31q0 -43 28.5 -72t76.5 -29zM294 37q48 0 82.5 25.5t34.5 79.5v39q0 24 -9 45.5t-25 37t-37.5 24.5t-45.5 9t-45 -9t-37 -24.5t-25 -37
t-9 -45.5v-39q0 -27 9.5 -47t25 -32.5t36.5 -19t45 -6.5z" />
    <glyph glyph-name="nine" unicode="9" horiz-adv-x="589" 
d="M46 525q0 48 18.5 87.5t51.5 67t78.5 43t98.5 15.5q52 0 98 -13t80.5 -39t55 -66.5t20.5 -94.5v-313q0 -56 -15 -104.5t-45 -85t-76 -57.5t-107 -21h-224v114h216q31 0 53.5 11.5t37.5 31t22 46t7 57.5v81l-2 1q-29 -38 -64.5 -56t-83.5 -18q-53 0 -94 15t-69 41.5
t-42.5 63t-14.5 80.5v113zM189 423q0 -25 9 -44.5t24 -32.5t34 -20t39 -7q22 0 41.5 6.5t34.5 19.5t24 32.5t9 44.5v103q0 51 -26 77.5t-84 26.5q-56 0 -80.5 -27t-24.5 -77v-102z" />
    <glyph glyph-name="colon" unicode=":" horiz-adv-x="288" 
d="M212 444h-137v149h137v-149zM212 -10h-137v150h137v-150z" />
    <glyph glyph-name="semicolon" unicode=";" horiz-adv-x="288" 
d="M213 444h-138v149h138v-149zM235 133l-87 -259h-125l69 259h143z" />
    <glyph glyph-name="less" unicode="&#x3c;" horiz-adv-x="550" 
d="M494 5l-447 317v87l447 317v-139l-319 -221l319 -222v-139z" />
    <glyph glyph-name="equal" unicode="=" horiz-adv-x="550" 
d="M495 427h-438v105h438v-105zM495 199h-438v104h438v-104z" />
    <glyph glyph-name="greater" unicode="&#x3e;" horiz-adv-x="550" 
d="M494 322l-447 -317v139l320 222l-320 221v139l447 -317v-87z" />
    <glyph glyph-name="question" unicode="?" horiz-adv-x="530" 
d="M503 543q0 -35 -12.5 -64.5t-31 -55.5t-41 -50t-42.5 -48q-23 -28 -38 -55.5t-15 -59.5v-61h-125v60q0 57 23.5 101t53.5 78q15 17 29 32.5t25.5 32t18.5 34.5t7 40q0 27 -10.5 46.5t-28 31.5t-39.5 17.5t-46 5.5q-44 0 -86.5 -12.5t-78.5 -31.5l-13 117
q49 15 101.5 25.5t106.5 10.5q46 0 89.5 -11t77.5 -34.5t54.5 -60.5t20.5 -88zM333 -82l-144 -20v165h144v-145z" />
    <glyph glyph-name="at" unicode="@" horiz-adv-x="810" 
d="M778 430q0 -53 -14 -94.5t-36.5 -73.5t-51 -55t-57 -37.5t-54.5 -21.5t-44 -7q-21 0 -37.5 14t-17.5 41h-2q-20 -22 -47 -38.5t-59 -16.5t-61 13t-51 35.5t-34.5 54t-12.5 68.5q0 51 16.5 96.5t45.5 80t68 55t84 20.5q77 0 119 -66l13 51h85l-59 -255q-2 -10 -4.5 -20
t-2.5 -18q0 -17 16 -17q19 0 40 11.5t38.5 34.5t28.5 58t11 82q0 63 -24 105t-62.5 67.5t-86.5 36.5t-96 11q-64 0 -117.5 -23t-92 -62t-60 -90t-21.5 -108q0 -63 20.5 -115.5t57 -90t86.5 -58t110 -20.5q63 0 123.5 15t111.5 55h85q-56 -84 -138.5 -123t-182.5 -39
q-70 0 -137 23.5t-120 71t-85.5 118t-32.5 163.5q0 79 30 147.5t82.5 119t124.5 79.5t156 29q64 0 126.5 -18.5t112 -57t80 -96t30.5 -135.5zM500 382q0 37 -21.5 61t-56.5 24q-26 0 -48 -12.5t-38 -33t-24.5 -45.5t-8.5 -49q0 -38 21 -62.5t59 -24.5q25 0 46.5 13t37 33
t24.5 45.5t9 50.5z" />
    <glyph glyph-name="A" unicode="A" horiz-adv-x="761" 
d="M758 -52h-156l-71 198h-306l-72 -198h-147l302 776h148zM266 258h225l-111 311z" />
    <glyph glyph-name="B" unicode="B" horiz-adv-x="646" 
d="M627 167q0 -68 -23.5 -110.5t-60.5 -66.5t-81 -33t-85 -9h-301v776h281q40 0 80.5 -10t72.5 -33.5t52 -62t20 -96.5q1 -68 -36.5 -111.5t-105.5 -56.5v-2q41 -5 75.5 -21t59 -40.5t38.5 -56t14 -67.5zM446 507q0 30 -10 50.5t-26.5 32.5t-38.5 17t-46 5h-107v-205h94
q24 0 48 4.5t43 16t31 31t12 48.5zM485 180q0 38 -14.5 61.5t-38 36t-53 17t-58.5 4.5h-103v-239h129q28 0 53.5 6t44 20t29.5 37t11 57z" />
    <glyph glyph-name="C" unicode="C" horiz-adv-x="646" 
d="M372 -56q-160 0 -238 73t-78 226v182q0 148 83 223.5t230 75.5h201v-117h-182q-99 0 -145 -48.5t-46 -154.5v-139q0 -46 8.5 -83.5t30 -64.5t58 -42t93.5 -15h213l-20 -116h-208z" />
    <glyph glyph-name="D" unicode="D" horiz-adv-x="761" 
d="M698 337q0 -102 -21 -175.5t-65 -121t-112 -70t-162 -22.5h-255v776h255q185 0 272.5 -94t87.5 -293zM549 336q0 135 -48 204.5t-142 69.5h-134v-547h132q192 0 192 273z" />
    <glyph glyph-name="E" unicode="E" horiz-adv-x="600" 
d="M525 -52h-458v776h466v-114h-324v-203h300v-116h-300v-228h336z" />
    <glyph glyph-name="F" unicode="F" horiz-adv-x="530" 
d="M510 610h-290v-203h278v-116h-278v-333l-143 -20v786h433v-114z" />
    <glyph glyph-name="G" unicode="G" horiz-adv-x="662" 
d="M384 -58q-167 0 -247.5 72.5t-80.5 223.5v190q0 146 81 221t246 75h214l-21 -117h-184q-55 0 -92 -14t-60 -40t-33 -63t-10 -83v-147q0 -49 8.5 -86.5t30.5 -63t58.5 -39t93.5 -13.5h81v217h-129v112h266v-425l-137 -20h-85z" />
    <glyph glyph-name="H" unicode="H" horiz-adv-x="761" 
d="M678 -41l-141 -21v352h-312v-331l-142 -21v776l142 20v-327h312v307l141 20v-775z" />
    <glyph glyph-name="I" unicode="I" horiz-adv-x="324" 
d="M233 -42l-141 -20v776l141 20v-776z" />
    <glyph glyph-name="J" unicode="J" horiz-adv-x="415" 
d="M338 129q0 -33 -10.5 -67.5t-34.5 -62.5t-63 -46t-96 -18h-111v125h73q34 0 54 11t30.5 29.5t13.5 43t3 52.5v518l141 20v-605z" />
    <glyph glyph-name="K" unicode="K" horiz-adv-x="704" 
d="M698 -52h-179l-235 334l-57 -63v-261l-142 -20v776l142 20v-326l271 316h175l-298 -338z" />
    <glyph glyph-name="L" unicode="L" horiz-adv-x="530" 
d="M501 -52h-414v766l142 20v-671h292z" />
    <glyph glyph-name="M" unicode="M" horiz-adv-x="951" 
d="M874 -42l-136 -20v672l-188 -651l-137 -17l-194 668v-652l-135 -20v786h227l169 -612l167 612h227v-766z" />
    <glyph glyph-name="N" unicode="N" horiz-adv-x="776" 
d="M559 -72l-339 559l3 -549l-139 -20v806h133l343 -556l-4 546l139 20v-806h-136z" />
    <glyph glyph-name="O" unicode="O" horiz-adv-x="703" 
d="M63 464q0 62 23 112.5t63 86.5t92.5 55.5t111.5 19.5q58 0 110.5 -19.5t92 -55.5t62.5 -86.5t23 -112.5v-278q0 -62 -23 -112.5t-62.5 -86.5t-92 -55.5t-110.5 -19.5q-59 0 -111.5 19.5t-92.5 55.5t-63 86.5t-23 112.5v278zM204 201q0 -76 38 -123.5t110 -47.5t110 47.5
t38 123.5v251q0 76 -38 123.5t-110 47.5t-110 -47.5t-38 -123.5v-251z" />
    <glyph glyph-name="P" unicode="P" horiz-adv-x="643" 
d="M620 496q0 -65 -18.5 -110t-53 -73.5t-82.5 -41t-106 -12.5h-132v-301l-142 -20v786h252q60 0 112 -11t89.5 -37t59 -70t21.5 -110zM475 490q0 67 -34.5 93.5t-90.5 26.5h-122v-238h124q28 0 50.5 5.5t38.5 19t25 36.5t9 57z" />
    <glyph glyph-name="Q" unicode="Q" horiz-adv-x="718" 
d="M62 464q0 62 23.5 112.5t64 86.5t94.5 55.5t114 19.5t113 -19.5t93.5 -55.5t64 -86.5t23.5 -112.5v-278q0 -63 -23.5 -113.5t-63.5 -85.5l109 -151h-153l-62 92q-24 -8 -49.5 -12t-51.5 -4q-60 0 -114 19.5t-94.5 55.5t-64 86.5t-23.5 112.5v278zM203 201
q0 -76 39.5 -123.5t114.5 -47.5h16t16 2l-108 163h133l71 -99q26 43 26 105v251q0 76 -39.5 123.5t-114.5 47.5t-114.5 -47.5t-39.5 -123.5v-251z" />
    <glyph glyph-name="R" unicode="R" horiz-adv-x="646" 
d="M638 -56h-151l-98 256q-17 44 -39 59t-41 15h-92v-316l-141 -20v786h283q108 0 171.5 -50t63.5 -156q0 -34 -10.5 -65t-29.5 -55.5t-45.5 -42.5t-57.5 -25v-3q12 -4 23.5 -14.5t20.5 -23.5t15.5 -27t10.5 -24zM458 501q0 32 -9.5 53t-25.5 33.5t-35.5 17.5t-38.5 5h-132
v-223h108q27 0 51.5 6t42.5 19.5t28.5 35.5t10.5 53z" />
    <glyph glyph-name="S" unicode="S" horiz-adv-x="600" 
d="M386 398q41 0 75.5 -15.5t59.5 -44t39 -67.5t14 -85q0 -61 -20 -106t-56.5 -74t-87.5 -43.5t-113 -14.5h-257v115h245q67 0 107 26.5t40 89.5q0 48 -22.5 76.5t-60.5 28.5h-123q-44 0 -80.5 15.5t-63 43.5t-41.5 66t-15 83q0 120 65.5 176t190.5 56h241l-21 -114h-208
q-60 0 -93.5 -25.5t-33.5 -85.5q0 -48 21 -74.5t61 -26.5h137z" />
    <glyph glyph-name="T" unicode="T" horiz-adv-x="589" 
d="M562 610h-198v-652l-140 -20v672h-217v114h575z" />
    <glyph glyph-name="U" unicode="U" horiz-adv-x="761" 
d="M684 228q0 -76 -20.5 -131.5t-59 -91.5t-94.5 -53t-127 -17q-144 0 -223.5 70.5t-79.5 222.5v486l142 20v-466q0 -50 8.5 -90t27 -68.5t49.5 -44t76 -15.5q44 0 74.5 15.5t49.5 44t27.5 68.5t8.5 90v446l141 20v-506z" />
    <glyph glyph-name="V" unicode="V" horiz-adv-x="704" 
d="M698 724l-256 -776h-174l-259 776h153l197 -631l197 631h142z" />
    <glyph glyph-name="W" unicode="W" horiz-adv-x="988" 
d="M987 724l-175 -776h-185l-128 636h-2l-137 -636h-177l-177 776h150l123 -633h2l121 633h195l125 -633h2l125 633h138z" />
    <glyph glyph-name="X" unicode="X" horiz-adv-x="704" 
d="M698 -52h-169l-180 310l-178 -310h-162l248 404l-226 372h167l161 -284l164 284h154l-228 -372z" />
    <glyph glyph-name="Y" unicode="Y" horiz-adv-x="704" 
d="M697 724l-271 -454v-313l-140 -19v334l-276 452h168l181 -320l186 320h152z" />
    <glyph glyph-name="Z" unicode="Z" horiz-adv-x="589" 
d="M543 -52h-507v118l348 544h-334v114h485v-118l-348 -543h376z" />
    <glyph glyph-name="bracketleft" unicode="[" horiz-adv-x="343" 
d="M302 -147h-223v912h223v-96h-100v-720h100v-96z" />
    <glyph glyph-name="backslash" unicode="\" horiz-adv-x="460" 
d="M418 -86h-123l-253 823h124z" />
    <glyph glyph-name="bracketright" unicode="]" horiz-adv-x="343" 
d="M264 -147h-224v96h100v720h-100v96h224v-912z" />
    <glyph glyph-name="asciicircum" unicode="^" horiz-adv-x="510" 
d="M489 480h-145l-89 168l-88 -168h-145l186 276h95z" />
    <glyph glyph-name="underscore" unicode="_" horiz-adv-x="460" 
d="M462 -200h-464v93h464v-93z" />
    <glyph glyph-name="grave" unicode="`" horiz-adv-x="288" 
d="M273 587h-109l-142 172h155z" />
    <glyph glyph-name="a" unicode="a" horiz-adv-x="638" 
d="M270 -65q-47 -1 -89.5 12.5t-75 41t-51.5 68t-19 92.5v175q0 52 18.5 92.5t50.5 68t74.5 41t90.5 12.5q61 -2 100.5 -24t71.5 -62v73l134 20v-598l-130 -20v90q-30 -42 -76.5 -61t-98.5 -21zM440 309q0 24 -10 46t-28.5 39t-44 27.5t-57.5 11.5q-24 1 -46.5 -6.5
t-40 -22.5t-27.5 -36.5t-10 -48.5v-166q0 -27 9.5 -48.5t26 -35.5t38 -21.5t45.5 -6.5q39 1 67 14t46 34.5t26 49.5t8 58z" />
    <glyph glyph-name="b" unicode="b" horiz-adv-x="646" 
d="M378 -65q-52 1 -98.5 20.5t-76.5 61.5v-70l-130 -20v808l134 20v-303q32 40 71.5 62t100.5 24q48 1 90.5 -12.5t74.5 -41t50.5 -68t18.5 -92.5v-175q0 -52 -19 -92.5t-51.5 -67.5t-75 -41t-89.5 -13zM206 197q0 -30 8.5 -58t26.5 -50t46.5 -35t67.5 -14q24 0 45.5 7
t37 21.5t25 36t9.5 48.5v166q0 27 -10 49t-27 37t-38.5 22.5t-45.5 6.5q-31 -1 -57 -11t-45 -27t-30 -39t-11 -46z" />
    <glyph glyph-name="c" unicode="c" horiz-adv-x="524" 
d="M44 315q0 55 18.5 98t52.5 72.5t80 45t102 15.5h170v-106h-156q-25 0 -47.5 -8.5t-40 -25t-28 -42t-10.5 -58.5v-128q0 -56 29.5 -93t94.5 -37h175l-20 -106h-169q-61 0 -107.5 17t-78.5 47.5t-48.5 73t-16.5 93.5v142z" />
    <glyph glyph-name="d" unicode="d" horiz-adv-x="646" 
d="M272 -65q-47 -1 -90 12.5t-75.5 41t-52 68t-19.5 92.5v175q0 52 19 92.5t51.5 68t75 41t90.5 12.5q61 -2 100 -24t70 -62v283l134 20v-808l-130 -20v90q-29 -42 -75 -61t-98 -21zM440 311q0 24 -10 46t-29 39t-45.5 27.5t-60.5 10.5q-51 1 -85 -29.5t-34 -85.5v-166
q0 -55 32 -85t83 -28q39 1 68 14t47.5 34.5t27 49.5t8.5 59z" />
    <glyph glyph-name="e" unicode="e" horiz-adv-x="589" 
d="M170 192v-36q0 -60 32.5 -86t107.5 -26h211l-20 -102h-197q-131 0 -196 56.5t-65 162.5v150q0 46 18.5 89t52 75t81.5 51.5t107 19.5q52 0 96.5 -17t77.5 -47t51.5 -72t18.5 -93v-125h-376zM170 286h250v33q0 60 -31.5 92.5t-86.5 32.5q-66 0 -99 -39.5t-33 -102.5v-16z
" />
    <glyph glyph-name="f" unicode="f" horiz-adv-x="415" 
d="M120 511v73q0 89 43 142.5t134 53.5h95v-107h-68q-21 0 -34 -7.5t-21 -20.5t-11 -30.5t-3 -36.5v-67h147l-20 -102h-127v-453l-135 -20v473h-99v102h99z" />
    <glyph glyph-name="g" unicode="g" horiz-adv-x="615" 
d="M283 -27q-47 -1 -90 12.5t-75.5 41t-52 68t-19.5 92.5v145q0 52 19 92.5t51.5 68t75 41t90.5 12.5t88 -22t67 -69v67l128 21v-526q0 -57 -13.5 -104t-46.5 -80.5t-88 -52.5t-139 -19h-191v105h178q47 0 78.5 10.5t50 29.5t26.5 45.5t9 58.5l1 50q-23 -38 -60.5 -61.5
t-86.5 -25.5zM300 78q25 1 48 9t40.5 22t28.5 34t11 44l2 134q0 26 -10 48t-27 38t-40 25t-49 10q-24 1 -45 -6.5t-37 -22.5t-25.5 -37t-9.5 -49v-136q0 -55 32.5 -85t80.5 -28z" />
    <glyph glyph-name="h" unicode="h" horiz-adv-x="646" 
d="M207 450q29 42 74.5 64.5t103.5 23.5q50 1 86 -15.5t59.5 -46.5t34.5 -71t11 -90v-357l-135 -21v326q0 30 -3 60.5t-13 54.5t-29.5 38.5t-53.5 13.5q-35 -2 -60.5 -20t-42 -46t-24.5 -61.5t-8 -64.5v-280l-135 -21v797l135 21v-305z" />
    <glyph glyph-name="i" unicode="i" horiz-adv-x="300" 
d="M217 621h-136v134h136v-134zM216 -43l-134 -20v587h134v-567z" />
    <glyph glyph-name="j" unicode="j" horiz-adv-x="310" 
d="M228 621h-137v134h137v-134zM227 -45q0 -40 -4.5 -76.5t-20 -64.5t-45.5 -44.5t-82 -16.5h-73v109h38q26 0 39.5 23.5t13.5 83.5v555h134v-569z" />
    <glyph glyph-name="k" unicode="k" horiz-adv-x="589" 
d="M578 -53h-160l-157 249l-53 -61v-178l-135 -20v798l135 20v-454l181 223h163l-206 -232z" />
    <glyph glyph-name="l" unicode="l" horiz-adv-x="300" 
d="M217 -43l-134 -20v798l134 20v-798z" />
    <glyph glyph-name="m" unicode="m" horiz-adv-x="935" 
d="M874 -35l-136 -20v363q0 21 -2 44t-10 42.5t-25.5 32.5t-48.5 13q-36 0 -58.5 -19t-35 -47.5t-16.5 -62t-4 -63.5v-283l-134 -20v363q0 21 -2 44t-10.5 42.5t-26 32.5t-48.5 13q-36 0 -58.5 -19t-35 -47.5t-16.5 -62t-4 -63.5v-283l-135 -20v577l126 20v-88
q35 51 79.5 71.5t88.5 20.5q56 0 97 -24t64 -77q13 26 32.5 45t42.5 31.5t48.5 18.5t49.5 6q51 0 85 -16.5t55 -46t29.5 -69.5t8.5 -86v-363z" />
    <glyph glyph-name="n" unicode="n" horiz-adv-x="646" 
d="M583 -34l-135 -20v326q0 30 -2.5 60t-13 54.5t-32 39.5t-58.5 15q-44 0 -72 -18.5t-44.5 -47t-23 -63t-6.5 -65.5v-281l-135 -20v577l129 20v-88q35 49 86.5 70.5t110.5 21.5q51 0 88 -16.5t61 -46t35.5 -70.5t11.5 -90v-358z" />
    <glyph glyph-name="o" unicode="o" horiz-adv-x="616" 
d="M565 152q0 -47 -17.5 -86.5t-51 -68t-81 -44t-107.5 -15.5t-107.5 15.5t-80.5 44t-50.5 68t-17.5 86.5v175q0 48 17.5 88t50.5 69t80.5 45.5t107.5 16.5t107.5 -16.5t81 -45.5t51 -69t17.5 -88v-175zM432 316q0 56 -32 91t-92 35t-91.5 -35t-31.5 -91v-152
q0 -54 31.5 -88t91.5 -34t92 34t32 88v152z" />
    <glyph glyph-name="p" unicode="p" horiz-adv-x="646" 
d="M202 542l1 -86q28 48 68 68t88 22t90.5 -11.5t74.5 -41.5t50.5 -68.5t18.5 -92.5v-145q0 -52 -19 -92.5t-51.5 -68t-75 -41t-89.5 -12.5q-51 2 -90.5 27.5t-62.5 66.5l2 -296l-134 -20v771zM341 78q48 -2 79.5 28t31.5 85v136q0 27 -9 49t-25 37t-36.5 22.5t-44.5 6.5
q-26 -1 -49.5 -10t-41 -25t-27.5 -38t-10 -48l2 -134q0 -24 11 -44t29 -34t41.5 -22t48.5 -9z" />
    <glyph glyph-name="q" unicode="q" horiz-adv-x="646" 
d="M575 542v-771l-134 -20l2 316q-23 -41 -62.5 -66.5t-90.5 -27.5q-47 -1 -89.5 12.5t-75 41t-51.5 68t-19 92.5v145q0 52 18.5 92.5t50.5 68.5t74.5 41.5t90.5 11.5t88 -22t68 -68l1 66zM307 78q25 1 48.5 9t41.5 22t29 34t11 44l2 134q0 26 -10 48t-27.5 38t-41 25
t-49.5 10q-24 1 -44.5 -6.5t-36.5 -22.5t-25 -37t-9 -49v-136q0 -55 31.5 -85t79.5 -28z" />
    <glyph glyph-name="r" unicode="r" horiz-adv-x="415" 
d="M388 417h-12q-43 0 -74.5 -15.5t-51.5 -42.5t-30 -63t-10 -78v-252l-135 -21v577l120 21v-118q7 25 23.5 47.5t40.5 38.5t54 25.5t63 9.5h12v-129z" />
    <glyph glyph-name="s" unicode="s" horiz-adv-x="544" 
d="M344 296q34 0 63 -13t50 -35.5t33 -53t12 -67.5q0 -46 -16.5 -80.5t-45.5 -58t-68.5 -35t-85.5 -11.5h-245v104h225q50 0 78.5 20t28.5 58q0 73 -69 73l-110 1q-32 0 -60 13t-48 35t-31.5 52t-11.5 64q0 90 54.5 132t146.5 42h222l-21 -104h-187q-42 0 -64 -15t-22 -50
t20.5 -52.5t55.5 -17.5z" />
    <glyph glyph-name="t" unicode="t" horiz-adv-x="415" 
d="M111 527v117l136 29v-146h149l-20 -104h-129v-286q0 -38 15.5 -66t54.5 -28h80l-20 -106h-92q-84 0 -129 46.5t-45 129.5v310h-92v104h92z" />
    <glyph glyph-name="u" unicode="u" horiz-adv-x="646" 
d="M575 -34l-129 -21v88q-32 -42 -79 -66.5t-104 -24.5q-50 0 -86 16.5t-59 45.5t-34 70t-11 89v359l135 21v-328q0 -30 2.5 -60t12 -53.5t29 -38.5t54.5 -15q40 0 66 18t41 46.5t21 63t6 65.5v281l135 21v-577z" />
    <glyph glyph-name="v" unicode="v" horiz-adv-x="589" 
d="M577 533l-205 -577h-153l-207 577h145l145 -435h2l139 435h134z" />
    <glyph glyph-name="w" unicode="w" horiz-adv-x="914" 
d="M909 533l-173 -577h-153l-123 460l-120 -460h-154l-181 577h143l123 -450l114 450h157l122 -448l115 448h130z" />
    <glyph glyph-name="x" unicode="x" horiz-adv-x="589" 
d="M579 -44h-161l-129 221l-131 -221h-148l197 302l-177 275h161l112 -195l111 195h143l-171 -275z" />
    <glyph glyph-name="y" unicode="y" horiz-adv-x="589" 
d="M578 528l-211 -554q-15 -41 -32.5 -80t-43 -69.5t-61.5 -49t-88 -18.5h-85v105h68q24 0 42.5 11t32 28t21.5 36.5t11 37.5l-220 553h148l142 -403l140 403h136z" />
    <glyph glyph-name="z" unicode="z" horiz-adv-x="530" 
d="M486 -22h-449v104l277 345h-264v106h434v-102l-276 -348h298z" />
    <glyph glyph-name="braceleft" unicode="{" horiz-adv-x="343" 
d="M330 -126h-78q-27 0 -53 8.5t-46 26t-32.5 43t-12.5 60.5v160q0 29 -8 49t-20.5 32.5t-27.5 18t-30 5.5v85q15 0 30 5t27.5 17t20.5 31t8 46v165q0 36 13 62t33.5 43t46 25.5t51.5 8.5h78v-81h-47q-17 0 -27.5 -5.5t-16 -16t-7 -24.5t-1.5 -31v-161q0 -36 -11.5 -60
t-28.5 -38t-36.5 -20.5t-34.5 -7.5v-2q15 -2 34.5 -7t36.5 -19t28.5 -39.5t11.5 -66.5v-154q0 -18 1.5 -32t7 -24t16 -15.5t27.5 -5.5h47v-81z" />
    <glyph glyph-name="bar" unicode="|" horiz-adv-x="310" 
d="M210 -126h-110v890h110v-890z" />
    <glyph glyph-name="braceright" unicode="}" horiz-adv-x="343" 
d="M320 277q-14 0 -29.5 -5.5t-28 -17.5t-20.5 -32t-8 -49v-161q0 -36 -12 -62t-32.5 -43t-46.5 -25t-53 -8h-78v81h48q34 0 42.5 21t8.5 56v155q0 40 11.5 65t29 39.5t36.5 19.5t34 7v2q-15 1 -34 7.5t-36.5 20.5t-29 37.5t-11.5 60.5v161q0 34 -8.5 55.5t-42.5 21.5h-48
v81h78q27 0 53 -8.5t46.5 -25.5t32.5 -43t12 -62v-164q0 -28 8 -47t20.5 -31t28 -17t29.5 -5v-85z" />
    <glyph glyph-name="asciitilde" unicode="~" horiz-adv-x="566" 
d="M553 368q-9 -18 -23.5 -38t-32.5 -36.5t-39.5 -27t-45.5 -10.5q-38 0 -69 11t-60 25q-30 14 -58 25t-63 11q-20 0 -35 -6.5t-26.5 -17t-20.5 -24t-16 -27.5l-50 88q9 16 23 35.5t32.5 36.5t41.5 28t51 11q39 0 69.5 -11t58.5 -23q31 -14 60.5 -26.5t58.5 -12.5t53.5 22.5
t41.5 53.5z" />
    <glyph glyph-name="uni00A0" unicode="&#xa0;" horiz-adv-x="280" 
 />
    <glyph glyph-name="exclamdown" unicode="&#xa1;" horiz-adv-x="399" 
d="M124 -199l18 557h112l21 -557h-151zM269 440h-139v150h139v-150z" />
    <glyph glyph-name="cent" unicode="&#xa2;" horiz-adv-x="454" 
d="M348 -129h-110v100q-50 10 -87.5 36t-63 64t-38 85.5t-12.5 101.5q0 52 13 98.5t38.5 84t63 63.5t86.5 36v97h110v-94q45 -6 77 -16l-12 -104q-14 7 -30 12t-35 7v-373q23 3 44.5 10t36.5 15l6 -110q-42 -14 -87 -17v-96zM174 258q0 -49 15.5 -93t48.5 -70v321
q-31 -26 -47.5 -67.5t-16.5 -90.5z" />
    <glyph glyph-name="sterling" unicode="&#xa3;" 
d="M738 -56q-50 -22 -82.5 -30.5t-55.5 -8.5q-32 0 -61.5 7t-57 15.5t-52.5 15.5t-49 8q-34 1 -73.5 -12t-81.5 -40l-56 112q28 16 51.5 39t41 49.5t27.5 55.5t10 58q0 18 -6 44h-101v108h70q-10 26 -15.5 58t-5.5 62q0 53 19 95.5t51.5 72.5t76 46t92.5 16
q91 0 154.5 -58.5t85.5 -164.5l-116 -21q-11 65 -45.5 101t-80.5 36q-23 0 -43.5 -8.5t-36 -23t-25 -34t-9.5 -42.5q0 -51 24 -135h162v-108h-138q3 -17 4 -31t1 -28q0 -32 -10.5 -64.5t-38.5 -74.5q42 -1 75.5 -6.5t63.5 -13.5q33 -9 54 -12.5t40.5 -1.5t42 10.5t57.5 22.5
z" />
    <glyph glyph-name="currency" unicode="&#xa4;" 
d="M453 533q-50 0 -94 -19.5t-77 -52.5t-52 -77t-19 -93q0 -50 19 -94t52 -77t77 -52t94 -19t94 19t77 52t52.5 77t19.5 94q0 49 -19.5 93t-52.5 77t-77 52.5t-94 19.5zM125 -116l-79 79l118 119q-32 45 -49 97t-17 112q0 59 17.5 112.5t49.5 97.5l-119 121l79 78l119 -121
q43 32 96.5 50t112.5 18q58 0 111 -17t96 -49l120 119l80 -79l-121 -118q69 -92 69 -212q0 -60 -16.5 -113.5t-48.5 -97.5l117 -117l-80 -79l-117 116q-43 -32 -96.5 -48.5t-113.5 -16.5t-114.5 17t-97.5 49z" />
    <glyph glyph-name="yen" unicode="&#xa5;" horiz-adv-x="677" 
d="M565 122h-155v-144h-135v144h-158v104h158v46h-158v105h104l-211 347h161l174 -308l179 308h146l-208 -347h103v-105h-155v-46h155v-104z" />
    <glyph glyph-name="brokenbar" unicode="&#xa6;" horiz-adv-x="500" 
d="M318 375h-136v385h136v-385zM318 -185h-136v386h136v-386z" />
    <glyph glyph-name="section" unicode="&#xa7;" 
d="M658 -19q0 -31 -14.5 -56.5t-39 -43.5t-56.5 -27.5t-66 -9.5q-39 0 -75.5 11t-65 31t-46 47.5t-17.5 60.5q0 30 19 51t51 21q31 0 49 -21t18 -48q0 -11 -4 -21t-4 -21q0 -8 15 -21t49 -13q18 0 32 5t23.5 12t14.5 15.5t5 15.5q0 16 -7 23q-8 10 -34.5 33t-61.5 48
q-51 37 -90.5 71t-59.5 58q-38 43 -38 96q0 44 26.5 80t67.5 48q-39 37 -60 73.5t-21 72.5q0 33 14.5 61.5t39 50t56.5 33.5t67 12q37 0 71 -12t60 -33t41 -49.5t15 -62.5q0 -29 -17.5 -51.5t-49.5 -22.5q-33 0 -51 22.5t-18 51.5q0 11 4.5 20.5t4.5 20.5q0 7 -15 20t-47 13
q-36 0 -52.5 -15.5t-16.5 -38.5q0 -11 5 -23.5t19 -29t39 -39t64 -52.5q40 -31 68 -55.5t45.5 -47t25.5 -44.5t8 -47q0 -43 -24 -78t-62 -49q16 -13 33.5 -28.5t31 -33.5t22.5 -39t9 -45zM535 229q0 15 -6.5 28t-21.5 32q-17 18 -38 33.5t-42 29.5l-2 1v1h-9q-26 0 -40 -13
t-14 -29q0 -17 14 -38t50 -49q28 -20 43 -26.5t31 -6.5q15 0 25 8.5t10 28.5z" />
    <glyph glyph-name="dieresis" unicode="&#xa8;" horiz-adv-x="450" 
d="M118 670q-35 0 -57 21t-22 53t22 53.5t57 21.5t56 -21.5t21 -53.5t-21 -53t-56 -21zM333 670q-35 0 -56.5 21t-21.5 53t21.5 53.5t56.5 21.5t56.5 -21.5t21.5 -53.5t-21.5 -53t-56.5 -21z" />
    <glyph glyph-name="copyright" unicode="&#xa9;" 
d="M455 -92q-84 0 -157.5 28.5t-127.5 81t-85.5 126.5t-31.5 165q0 90 31.5 164t85.5 126.5t127.5 81.5t157.5 29t157.5 -29t127.5 -81.5t85.5 -126.5t31.5 -164q0 -91 -31.5 -165t-85.5 -126.5t-127.5 -81t-157.5 -28.5zM455 0q64 0 117.5 24t92.5 65.5t60.5 98t21.5 121.5
q0 64 -21.5 120.5t-60.5 98t-92.5 65.5t-117.5 24t-117.5 -24t-92.5 -65.5t-60.5 -98t-21.5 -120.5q0 -65 21.5 -121.5t60.5 -98t92.5 -65.5t117.5 -24zM654 202q-2 -32 -19 -60t-42.5 -50t-57.5 -34.5t-64 -12.5q-116 0 -175.5 72.5t-59.5 197.5q0 124 59 195.5t175 71.5
q35 0 68.5 -14.5t59 -38t41 -52t15.5 -55.5h-117q-2 11 -8.5 23t-16.5 21.5t-23.5 15.5t-30.5 6q-52 0 -77.5 -45.5t-25.5 -127.5q0 -79 26.5 -127.5t80.5 -48.5q26 0 47 18t28 45h117z" />
    <glyph glyph-name="ordfeminine" unicode="&#xaa;" horiz-adv-x="450" 
d="M294 441l-3 19q-14 -11 -36 -18.5t-50 -7.5q-65 -1 -98 29.5t-33 87.5q0 24 11.5 44.5t32 35.5t49.5 24t64 9h25.5t24.5 -1q-1 31 -14.5 47t-49.5 16q-23 0 -51.5 -11.5t-55.5 -31.5l-2 71q29 18 57 30t62 12q73 0 104 -38.5t31 -108.5v-118q0 -22 2 -49.5t4 -40.5h-74z
M285 596h-25q-8 0 -25.5 -1t-35 -5.5t-31 -13.5t-13.5 -25q0 -23 15.5 -35.5t32.5 -12.5q38 0 60 21t22 47v25z" />
    <glyph glyph-name="guillemotleft" unicode="&#xab;" horiz-adv-x="600" 
d="M452 -38l-191 278l191 278h118l-170 -279l168 -277h-116zM247 -38l-194 278l194 278h117l-170 -278l169 -278h-116z" />
    <glyph glyph-name="logicalnot" unicode="&#xac;" horiz-adv-x="500" 
d="M371 189v230h-381v103h500v-333h-119z" />
    <glyph glyph-name="uni00AD" unicode="&#xad;" horiz-adv-x="500" 
d="M455 257h-410v112h410v-112z" />
    <glyph glyph-name="registered" unicode="&#xae;" 
d="M455 -94q-84 0 -158 29t-128.5 81.5t-86 127t-31.5 165.5q0 90 31.5 164.5t86 127.5t128.5 82t158 29t158 -29t128.5 -82t86 -127.5t31.5 -164.5q0 -91 -31.5 -165.5t-86 -127t-128.5 -81.5t-158 -29zM455 2q52 0 97 16t81 45h-77q-15 20 -26.5 49t-16.5 54
q-2 11 -6.5 24.5t-9.5 24.5q-7 17 -20 28t-30 11h-49v-191h-107v493h200q37 0 67.5 -11.5t52 -31.5t33.5 -48t12 -61q0 -49 -21 -79.5t-58 -46.5q10 -14 21.5 -35.5t18.5 -56.5q4 -20 14 -47.5t26 -53.5q42 42 65 99.5t23 124.5q0 64 -21.5 120t-60 97t-92 65t-116.5 24
t-116.5 -24t-92 -65t-60 -97t-21.5 -120q0 -65 21.5 -121t60 -97t92 -65t116.5 -24zM486 346q29 0 46.5 14.5t17.5 43.5q0 26 -17.5 42t-46.5 16h-88v-116h88z" />
    <glyph glyph-name="macron" unicode="&#xaf;" horiz-adv-x="700" 
d="M695 695h-690v112h690v-112z" />
    <glyph glyph-name="degree" unicode="&#xb0;" horiz-adv-x="450" 
d="M225 584q-28 0 -52.5 10t-42.5 27t-28.5 40.5t-10.5 50.5t10.5 50.5t28.5 41t42.5 27.5t52.5 10t52.5 -10t42.5 -27.5t28.5 -41t10.5 -50.5t-10.5 -50.5t-28.5 -40.5t-42.5 -27t-52.5 -10zM225 666q19 0 33 13t14 33t-14 33.5t-33 13.5t-33 -13.5t-14 -33.5t14 -33
t33 -13z" />
    <glyph glyph-name="plusminus" unicode="&#xb1;" horiz-adv-x="600" 
d="M555 -30h-510v98h510v-98zM553 330h-191v-198h-113v198h-192v102h192v196h113v-196h191v-102z" />
    <glyph glyph-name="uni00B2" unicode="&#xb2;" horiz-adv-x="450" 
d="M335 439h-229v70l61 53q12 11 27.5 26.5t29 33t23 35t9.5 32.5q0 14 -13 24.5t-34 10.5q-17 0 -41.5 -13t-43.5 -24l-11 74q23 10 48 18.5t51 8.5q53 0 86 -25.5t33 -76.5q0 -22 -11.5 -45.5t-27.5 -46t-34.5 -41.5t-31.5 -31l-17 -16h126v-67z" />
    <glyph glyph-name="uni00B3" unicode="&#xb3;" horiz-adv-x="450" 
d="M335 535q0 -29 -13 -49t-33.5 -32.5t-46.5 -18t-53 -5.5q-20 0 -42.5 4.5t-41.5 13.5l5 79q19 -10 42.5 -20t40.5 -10q10 0 22.5 2.5t22.5 7t17 12t7 17.5q0 28 -22.5 40t-48.5 12h-41v65h39q9 0 19.5 1.5t19.5 5.5t15.5 11.5t6.5 19.5q0 20 -14.5 27t-33.5 7
q-23 0 -41.5 -8t-40.5 -20l-2 74q21 9 43.5 13.5t43.5 4.5q56 0 88 -25t32 -76q0 -21 -10 -38.5t-24 -29.5q20 -14 32 -36t12 -49z" />
    <glyph glyph-name="acute" unicode="&#xb4;" horiz-adv-x="450" 
d="M106 656l90 173h147l-137 -173h-100z" />
    <glyph glyph-name="uni00B5" unicode="&#xb5;" horiz-adv-x="621" 
d="M200 -197h-129l-1 730h130v-305q0 -29 2.5 -57.5t11.5 -51.5t28 -37.5t52 -14.5q38 0 63 17.5t39.5 45t20.5 60.5t6 63v280h130v-555h-124v75q-31 -40 -76 -64t-100 -24q-29 0 -53 6v-168z" />
    <glyph glyph-name="paragraph" unicode="&#xb6;" 
d="M657 -164v909h110v-909h-110zM468 -164l-1 458h-51q-59 -1 -107 14.5t-83 44.5t-54 71t-19 95q0 66 28.5 111t76 71t109 36.5t127.5 7.5l83 -2v-907h-109zM467 642h-24q-87 0 -132.5 -32.5t-45.5 -88.5q0 -27 11.5 -49.5t32.5 -38.5t51 -24.5t66 -7.5h41v241z" />
    <glyph glyph-name="periodcentered" unicode="&#xb7;" horiz-adv-x="450" 
d="M307 324q0 -35 -23.5 -57.5t-61.5 -22.5q-35 0 -57.5 22.5t-22.5 57.5q0 36 23.5 58t60.5 22q35 0 58 -23t23 -57z" />
    <glyph glyph-name="cedilla" unicode="&#xb8;" horiz-adv-x="450" 
d="M318 51l-37 -74q28 -11 44 -32.5t16 -47.5q0 -24 -10.5 -45t-29 -37t-43.5 -26t-54 -10q-15 0 -36.5 3t-59.5 20l25 65q29 -7 39 -8t17 -1q13 0 21.5 7t8.5 15q0 10 -17 16t-59 7l68 148h107z" />
    <glyph glyph-name="uni00B9" unicode="&#xb9;" horiz-adv-x="450" 
d="M295 436h-77v251q-7 -6 -14 -11.5t-15 -12.5l-38 -32v90l84 62h60v-347z" />
    <glyph glyph-name="ordmasculine" unicode="&#xba;" horiz-adv-x="450" 
d="M221 430q-35 0 -59 18t-38 45t-20 59t-6 59q0 26 5.5 57t20 58t38 45t59.5 18t59.5 -18t37.5 -45t19.5 -58t5.5 -57q0 -27 -6 -59t-20 -59t-37.5 -45t-58.5 -18zM221 498q15 0 24.5 13t14.5 31t6.5 37.5t1.5 31.5q0 10 -2 29t-7 37.5t-14 32.5t-24 14t-24 -14t-14 -32.5
t-6.5 -37.5t-1.5 -29q0 -12 1.5 -31.5t6 -37.5t13.5 -31t25 -13z" />
    <glyph glyph-name="guillemotright" unicode="&#xbb;" horiz-adv-x="600" 
d="M237 -38l169 278l-169 278h117l193 -278l-193 -278h-117zM30 -38l170 278q-40 66 -85 139t-85 139h118l192 -278l-192 -278h-118z" />
    <glyph glyph-name="onequarter" unicode="&#xbc;" 
d="M282 329h-89v282h-99v69q46 0 82 19q11 8 20.5 22.5t9.5 31.5h76v-424zM741 715l74 -47l-691 -819l-74 51zM829 -99h-59v-59h-86v59h-209v81l210 284h85v-292h59v-73zM684 -30v171l-118 -171h118z" />
    <glyph glyph-name="onehalf" unicode="&#xbd;" 
d="M281 330h-90v282h-99v69q24 0 44.5 5t38.5 14q11 8 19.5 22.5t8.5 31.5h78v-424zM836 -170h-326q0 23 3.5 46.5t14.5 46.5t31 45.5t52 44.5l83 53q17 12 33.5 28.5t18.5 42.5q2 25 -15.5 44.5t-50.5 19.5q-38 0 -57 -22.5t-17 -55.5h-88q-1 28 9.5 54.5t31.5 47t51.5 33
t69.5 12.5q37 0 66 -11t49 -29t30 -42t10 -50q0 -25 -8 -44t-20.5 -34t-27.5 -26.5t-30 -21.5l-91 -61q-17 -12 -28.5 -26t-16.5 -27h223v-68zM741 715l74 -47l-691 -819l-74 51z" />
    <glyph glyph-name="threequarters" unicode="&#xbe;" 
d="M305 558q31 -12 53 -39t22 -61q0 -27 -12.5 -51t-35 -42t-53 -28.5t-66.5 -10.5q-35 0 -66 10t-54 28.5t-36 45t-12 58.5h90q-3 -32 19.5 -50t58.5 -18q35 0 55.5 16.5t23.5 42.5q2 20 -12 35t-40 21q-14 4 -31 4.5t-31 0.5v74q21 0 38 2t30 7q29 13 32 47q2 18 -13.5 36
t-51.5 18q-35 0 -52.5 -18.5t-15.5 -44.5h-86q-1 28 10.5 52t32 41t49.5 27t62 10t61.5 -9.5t48.5 -26t31.5 -38t11.5 -45.5q0 -38 -20 -61.5t-41 -32.5zM829 -99h-59v-59h-86v59h-209v81l210 284h85v-292h59v-73zM684 -30v171l-117 -171h117zM751 715l74 -47l-691 -819
l-72 51z" />
    <glyph glyph-name="questiondown" unicode="&#xbf;" horiz-adv-x="510" 
d="M51 -22q0 34 12 62t30 53t39.5 48t40.5 47q23 26 37 52.5t14 57.5v59h121v-58q0 -55 -22.5 -97.5t-51.5 -74.5q-14 -16 -28 -31t-25 -31t-17.5 -33.5t-6.5 -38.5q0 -26 10 -44.5t26.5 -30t38 -17t44.5 -5.5q42 0 83 12.5t76 30.5l12 -113q-47 -14 -97.5 -24.5
t-102.5 -10.5q-44 0 -86 10.5t-74.5 33.5t-52.5 58t-20 85zM215 589h138v-149h-138v149z" />
    <glyph glyph-name="AE" unicode="&#xc6;" horiz-adv-x="858" 
d="M818 -22h-397v190h-207l-74 -190h-140l302 746h514v-110h-261v-195h238v-111h-238v-220h263v-110zM252 276h169v338h-30z" />
    <glyph glyph-name="Eth" unicode="&#xd0;" horiz-adv-x="732" 
d="M689 352q0 -105 -32 -176.5t-87.5 -115.5t-129.5 -63t-158 -19h-200v324h-77v110h77v312h200q82 0 156 -19.5t129.5 -63t88.5 -115t33 -174.5zM410 302h-192v-214h86q49 0 93 18t77 52t52.5 83t19.5 110q0 60 -19.5 109t-52.5 83t-76.5 52.5t-91.5 18.5h-88v-202h192
v-110z" />
    <glyph glyph-name="multiply" unicode="&#xd7;" horiz-adv-x="600" 
d="M555 180l-74 -87l-187 187l-175 -176l-82 77l180 175l-174 173l81 80l169 -174l169 169l79 -75l-170 -171z" />
    <glyph glyph-name="Oslash" unicode="&#xd8;" horiz-adv-x="788" 
d="M761 683l-80 -91q32 -49 48.5 -109.5t16.5 -129.5q0 -83 -23 -153.5t-67.5 -123t-110 -82t-149.5 -29.5q-63 0 -114.5 16t-92.5 45l-80 -92l-81 72l85 98q-68 101 -68 249q0 83 23 153.5t67.5 121.5t110 80t150.5 29q63 0 115 -17t94 -47l74 86zM396 627
q-55 0 -94.5 -24.5t-64.5 -63.5t-37 -88t-12 -98q0 -35 5.5 -70t16.5 -67l312 362q-24 23 -55 36t-71 13zM604 353q0 32 -5 64t-16 62l-312 -359q23 -20 54 -32t71 -12q57 0 96.5 24.5t64 64t36 89t11.5 99.5z" />
    <glyph glyph-name="Thorn" unicode="&#xde;" horiz-adv-x="732" 
d="M214 -22h-134v746h134v-116h235q48 0 91.5 -14.5t77.5 -45.5t54 -79.5t20 -116.5t-19.5 -117.5t-53 -81.5t-77.5 -48t-93 -16h-235v-111zM445 203q25 0 45 11.5t34 32t22 47.5t8 58q0 30 -8 56t-22 45.5t-34 31t-45 11.5h-231v-293h231z" />
    <glyph glyph-name="germandbls" unicode="&#xdf;" horiz-adv-x="600" 
d="M75 -56v564q0 51 17.5 92t48 70.5t72 45.5t88.5 16q45 0 84.5 -14.5t69.5 -39.5t47 -59t17 -73q0 -45 -20 -81t-67 -64q66 -27 100 -74.5t34 -120.5q0 -51 -17.5 -92.5t-49 -71t-77 -45.5t-100.5 -16q-31 0 -56.5 3t-64.5 11v-51h-126zM277 451q70 2 95.5 25.5t25.5 68.5
q0 33 -25.5 58t-67.5 25q-50 0 -77 -31t-27 -83v-408l12 -4q28 -9 45 -11.5t39 -2.5q26 0 50.5 9.5t43 26.5t29.5 40t11 50q0 48 -23.5 84.5t-70.5 41.5q-17 2 -28.5 2h-31.5v109z" />
    <glyph glyph-name="ae" unicode="&#xe6;" horiz-adv-x="830" 
d="M469 216q4 -69 42 -111t98 -42q47 0 89 14.5t76 39.5v-110q-33 -20 -74.5 -31t-95.5 -11q-64 0 -111.5 21t-79.5 61q-29 -40 -77 -61.5t-122 -21.5q-37 0 -69.5 10t-57 30.5t-38.5 51t-14 72.5q0 61 22 98t56.5 57.5t76.5 27.5t83 7h73q0 66 -26 98t-83 32
q-40 0 -78 -15.5t-68 -41.5l-3 112q35 20 78.5 31.5t85.5 11.5q61 0 101.5 -19t64.5 -57q28 35 67.5 55.5t91.5 20.5q65 0 108 -24.5t68.5 -68.5t36 -104.5t10.5 -132.5h-331zM346 237h-54q-20 0 -45 -4.5t-47 -15.5t-36.5 -31.5t-14.5 -51.5q0 -37 24 -54.5t56 -17.5
q51 0 84 32.5t33 85.5v57zM687 306q-2 27 -8 52.5t-19 45.5t-32 32t-46 12t-47 -12t-34 -32t-22 -45.5t-10 -52.5h218z" />
    <glyph glyph-name="eth" unicode="&#xf0;" horiz-adv-x="650" 
d="M399 616q158 -184 158 -388q0 -64 -19.5 -114t-53.5 -84.5t-80.5 -53t-100.5 -18.5q-55 0 -101 17.5t-79 49t-51.5 76.5t-18.5 99t20 99t54 76.5t79.5 49t96.5 17.5q8 0 27 -0.5t39 -5.5q-12 23 -30 47.5t-41 50.5q-25 -16 -52.5 -32.5t-51.5 -32.5l-71 76l103 64
q-23 19 -48 35t-54 30l72 105q44 -26 77.5 -49.5t57.5 -43.5l80 64l63 -79zM303 74q26 0 49 9t40 25.5t27 39.5t10 52q0 28 -10 51.5t-27 40t-40 25.5t-49 9t-49 -9t-40 -25.5t-27 -40t-10 -51.5q0 -29 10 -52t27 -39.5t40 -25.5t49 -9z" />
    <glyph glyph-name="divide" unicode="&#xf7;" horiz-adv-x="600" 
d="M299 629q37 0 60 -25.5t23 -57.5q0 -35 -24 -57.5t-57 -22.5q-37 0 -60.5 21.5t-23.5 58.5q0 16 6 31t17 26.5t26 18.5t33 7zM580 290h-560v106h560v-106zM217 138q0 34 23 58t59 24q38 0 61 -24t23 -58q0 -16 -7 -31t-18 -26t-26 -18t-31 -7q-35 0 -59.5 23t-24.5 59z
" />
    <glyph glyph-name="oslash" unicode="&#xf8;" horiz-adv-x="621" 
d="M587 254q0 -58 -19 -110.5t-54.5 -92t-86.5 -63t-116 -23.5q-44 0 -81 10.5t-68 30.5l-64 -74l-84 72l69 80q-23 37 -35 80t-12 90q0 65 20.5 119t57.5 92.5t87.5 59.5t109.5 21q39 0 74.5 -9.5t65.5 -26.5l72 82l85 -76l-73 -84q25 -36 38.5 -80.5t13.5 -97.5zM451 254
q0 38 -9 73l-206 -236q32 -24 75 -24q36 0 62.5 14.5t43.5 40t25.5 59.5t8.5 73zM311 444q-34 0 -60 -15t-43.5 -41t-26.5 -60.5t-9 -73.5q0 -33 6 -61l200 232q-30 19 -67 19z" />
    <glyph glyph-name="thorn" unicode="&#xfe;" horiz-adv-x="621" 
d="M587 259q0 -55 -12 -108t-39 -94t-70 -66.5t-104 -25.5q-51 0 -89.5 16.5t-73.5 59.5v-250h-129v932h124v-266q24 38 65.5 63.5t104.5 25.5q60 0 102.5 -24.5t69 -64.5t39 -91.5t12.5 -106.5zM450 258q0 28 -5.5 60.5t-19.5 60.5t-37 46.5t-58 18.5t-59 -18t-40 -45.5
t-23 -61t-7 -63.5q0 -29 6.5 -62.5t21.5 -61.5t39 -46.5t60 -18.5q35 0 58.5 19t37.5 48t20 62t6 62z" />
    <glyph glyph-name="dcroat" unicode="&#x111;" horiz-adv-x="621" 
d="M553 -22h-125v63q-61 -76 -168 -76q-61 0 -103.5 25.5t-69.5 66.5t-39 94t-12 108t12.5 106.5t39.5 91.5t69.5 64.5t102.5 24.5q55 0 94 -19.5t69 -57.5v105h-184v99h184v72h130v-72h69v-99h-69v-596zM422 256q0 30 -7 63.5t-23 61t-40.5 45.5t-58.5 18q-35 0 -58 -18.5
t-37 -46.5t-19.5 -60.5t-5.5 -60.5q0 -29 6 -62t20 -62t37.5 -48t58.5 -19q36 0 60 18.5t39 46.5t21.5 61.5t6.5 62.5z" />
    <glyph glyph-name="Hbar" unicode="&#x126;" horiz-adv-x="732" 
d="M722 509h-70v-531h-136v329h-300v-329h-136v531h-70v110h70v105h136v-105h300v105h136v-105h70v-110zM516 419v90h-300v-90h300z" />
    <glyph glyph-name="hbar" unicode="&#x127;" horiz-adv-x="621" 
d="M0 572v99h70v74h130v-74h183v-99h-183v-113q28 40 71.5 63.5t98.5 23.5q48 0 82.5 -16t57 -44.5t33 -67.5t10.5 -86v-354h-130v304q0 29 -2.5 58t-11.5 52t-28 37.5t-52 14.5q-38 0 -63 -17.5t-39.5 -45t-20.5 -60.5t-6 -63v-280h-130v594h-70z" />
    <glyph glyph-name="dotlessi" unicode="&#x131;" horiz-adv-x="288" 
d="M208 -22h-129v555h129v-555z" />
    <glyph glyph-name="IJ" unicode="&#x132;" horiz-adv-x="675" 
d="M225 -22h-135v746h135v-746zM597 154q0 -31 -10 -64.5t-33 -61t-61 -45.5t-94 -18q-29 0 -53 3t-52 11v118q15 -5 31.5 -8.5t36.5 -3.5q35 0 55 12t30 31t12 42t2 46v508h136v-570z" />
    <glyph glyph-name="ij" unicode="&#x133;" horiz-adv-x="576" 
d="M209 626h-131v129h131v-129zM208 -22h-129v555h129v-555zM498 626h-132v129h132v-129zM497 -14q0 -38 -4 -73.5t-18.5 -62.5t-43.5 -43t-79 -16q-17 0 -35.5 2t-30.5 5l4 97q20 -2 34 1q44 10 44 103v534h129v-547z" />
    <glyph glyph-name="kgreenlandic" unicode="&#x138;" horiz-adv-x="566" 
d="M556 -22h-154l-151 239l-51 -58v-181h-130v566h130v-225l174 214h157l-198 -223z" />
    <glyph glyph-name="Ldot" unicode="&#x13f;" horiz-adv-x="510" 
d="M503 -22h-419v746h136v-636h283v-110zM407 502q35 0 58 -23.5t23 -55.5q0 -33 -23 -55.5t-58 -22.5t-58.5 22.5t-23.5 55.5t23.5 56t58.5 23z" />
    <glyph glyph-name="ldot" unicode="&#x140;" horiz-adv-x="450" 
d="M208 -22h-129v767h129v-767zM335 439q35 0 58 -23.5t23 -55.5q0 -33 -23 -55.5t-58 -22.5t-58.5 22.5t-23.5 55.5t23.5 56t58.5 23z" />
    <glyph glyph-name="Lslash" unicode="&#x141;" horiz-adv-x="510" 
d="M357 475l-137 -139v-248h283v-110h-419v220l-45 -45l-79 73l124 127v371h136v-232l56 58z" />
    <glyph glyph-name="lslash" unicode="&#x142;" horiz-adv-x="288" 
d="M0 192v126l79 70v357h129v-243l80 71v-126l-80 -71v-398h-129v284z" />
    <glyph glyph-name="napostrophe" unicode="&#x149;" horiz-adv-x="730" 
d="M11 488q28 14 48.5 35.5t25.5 44.5q3 13 -8 13q-32 -2 -52 19t-20 56q0 34 24 56t58 22q38 0 65 -28t27 -73q0 -60 -35 -109t-98 -76zM670 -22h-130v304q0 29 -2.5 58t-11.5 52t-28 37.5t-52 14.5q-38 0 -63 -17.5t-39.5 -45t-20.5 -60.5t-6 -63v-280h-130v555h124v-75
q32 47 76.5 67.5t99.5 20.5q48 0 82.5 -16t57 -44.5t33 -67.5t10.5 -86v-354z" />
    <glyph glyph-name="Eng" unicode="&#x14a;" horiz-adv-x="746" 
d="M668 -39q0 -31 -9.5 -64.5t-32 -61t-59.5 -45.5t-93 -18q-29 0 -53 3t-52 11v118q15 -5 31.5 -8.5t36.5 -3.5q35 0 55 12t30 31q6 12 8.5 26t4.5 28l-322 568v-579h-131v746h171l283 -521v521h132v-763z" />
    <glyph glyph-name="eng" unicode="&#x14b;" horiz-adv-x="621" 
d="M553 -22q0 -37 -4.5 -71t-19.5 -59.5t-43.5 -41t-76.5 -15.5q-19 0 -37.5 2t-30.5 5l4 105q9 -1 21 -2.5t20 0.5q23 4 30 23.5t7 57.5v300q0 29 -2.5 58t-11.5 52t-28 37.5t-52 14.5q-38 0 -63 -17.5t-39.5 -45t-20.5 -60.5t-6 -63v-280h-130v555h124v-75
q32 47 76.5 67.5t99.5 20.5q48 0 82.5 -16t57 -44.5t33 -67.5t10.5 -86v-354z" />
    <glyph glyph-name="OE" unicode="&#x152;" horiz-adv-x="887" 
d="M837 -22h-395v3q-21 -8 -44 -12t-47 -4q-77 0 -136 29.5t-99 81.5t-60.5 123t-20.5 154t21 153.5t61 121.5t99 80t135 29q25 0 47.5 -4t43.5 -11v2h393v-110h-259v-195h236v-111h-236v-220h261v-110zM351 627q-50 0 -85 -24.5t-58 -63.5t-33.5 -88t-10.5 -98
q0 -50 10 -99.5t32 -89t58 -64t87 -24.5q55 0 91 23v503q-39 25 -91 25z" />
    <glyph glyph-name="oe" unicode="&#x153;" horiz-adv-x="894" 
d="M538 216q4 -69 42 -111t98 -42q47 0 89 14.5t76 39.5v-110q-33 -20 -74.5 -31t-95.5 -11q-143 0 -206 104q-32 -48 -81 -76t-114 -28q-58 0 -104 23.5t-77.5 63t-48.5 92t-17 110.5q0 65 18.5 119t51.5 92.5t78.5 59.5t98.5 21q61 0 111.5 -27.5t84.5 -76.5q28 48 72 76
t106 28q65 0 108 -24.5t68.5 -68.5t36 -104.5t10.5 -132.5h-331zM398 254q0 39 -7.5 74t-23.5 60.5t-39.5 40.5t-55.5 15q-30 0 -53.5 -15t-39.5 -41t-24 -60.5t-8 -73.5q0 -38 8 -72t23.5 -59.5t39 -40.5t54.5 -15q33 0 56.5 14.5t39 40t23 59.5t7.5 73zM756 306
q-2 27 -8 52.5t-19 45.5t-32 32t-46 12t-47 -12t-34 -32t-22 -45.5t-10 -52.5h218z" />
    <glyph glyph-name="Tbar" unicode="&#x166;" horiz-adv-x="566" 
d="M525 310h-175v-332h-135v332h-173v108h173v196h-208v110h552v-110h-209v-196h175v-108z" />
    <glyph glyph-name="tbar" unicode="&#x167;" horiz-adv-x="399" 
d="M10 259v99h99v75h-89v100h89v108l130 42v-150h134v-100h-134v-75h141v-99h-141v-101q0 -37 15 -64t53 -27q20 0 39 4t34 12l4 -105q-21 -7 -50 -10t-58 -3q-81 0 -124 45t-43 125v124h-99z" />
    <glyph glyph-name="afii57929" unicode="&#x2bc;" horiz-adv-x="310" 
d="M111 619q-29 4 -47 24.5t-18 49.5q0 14 6.5 27t17.5 23t24.5 16t28.5 6q21 0 38 -9t28 -23.5t17 -33t6 -36.5q0 -26 -9.5 -53.5t-26.5 -49.5q-18 -23 -43 -42t-48 -29l-34 33q26 12 45.5 30t25.5 30q7 13 7 23q0 4 -3.5 8t-14.5 6z" />
    <glyph glyph-name="caron" unicode="&#x2c7;" 
d="M474 600q-8 -6 -17.5 -6t-17.5 6l-196 152q-15 12 -17.5 22.5t3.5 17.5t19.5 7.5t30.5 -7.5l177 -89l178 90q18 9 31.5 8t19.5 -8t3.5 -17.5t-17.5 -22.5z" />
    <glyph glyph-name="uni02D0" unicode="&#x2d0;" 
d="M459 393l-118 196h231zM341 107l118 196l113 -196h-231z" />
    <glyph glyph-name="breve" unicode="&#x2d8;" 
d="M693 778q-25 -38 -50 -64t-52 -43.5t-57 -26t-66 -9.5q-77 -4 -135.5 27.5t-111.5 107.5l65 38q39 -57 80 -79t96 -20q49 1 85.5 21.5t72.5 71.5z" />
    <glyph glyph-name="dotaccent" unicode="&#x2d9;" 
d="M537 725q0 -16 -6.5 -30t-18 -24.5t-26 -17t-30.5 -6.5q-17 0 -31.5 7t-25 18t-16.5 25.5t-6 29.5q0 32 24.5 54t55.5 22q16 0 30.5 -6.5t25.5 -17t17.5 -24.5t6.5 -30z" />
    <glyph glyph-name="ring" unicode="&#x2da;" 
d="M575 691q0 -23 -9.5 -43t-25.5 -34.5t-37.5 -23t-45.5 -8.5q-23 0 -44 8.5t-37 23t-25 34.5t-9 43t9 43t25 34.5t37 23t44 8.5q24 0 45.5 -8.5t37.5 -23t25.5 -34.5t9.5 -43zM509 691q0 18 -14.5 32t-37.5 14q-21 0 -35 -14t-14 -32t14 -32t35 -14q23 0 37.5 14t14.5 32z
" />
    <glyph glyph-name="ogonek" unicode="&#x2db;" 
d="M543 -111q0 -17 -6.5 -33.5t-18 -29.5t-26.5 -21t-32 -8q-18 0 -34 7.5t-27.5 20.5t-18 30t-6.5 36q0 28 15 56t40 50q11 11 23 11q9 0 14.5 -6t5.5 -14q0 -13 -6 -20q-11 -20 -15.5 -32.5t-4.5 -28.5q0 -14 7 -21t15 -7t14 5.5t12 12t12 12t14 5.5q14 0 18.5 -9t4.5 -16
z" />
    <glyph glyph-name="hungarumlaut" unicode="&#x2dd;" 
d="M504 787q13 -17 12 -34t-13 -28q-18 -16 -49 -33.5t-62.5 -32t-57.5 -25t-35 -11.5q-14 -2 -17.5 8t5.5 20l33.5 33.5t38 37t38 36t33.5 30.5q6 5 16 9t21 4.5t21 -2.5t16 -12zM678 787q12 -17 11 -34t-12 -28q-18 -16 -49.5 -33.5t-63 -32t-57.5 -25t-34 -11.5
q-16 -2 -19.5 8t7.5 20l33.5 33.5t37.5 37t37.5 36t33.5 30.5q6 5 16.5 9t21 4.5t21 -2.5t16.5 -12z" />
    <glyph glyph-name="Alpha" unicode="&#x391;" 
d="M704 685l84 -764h-134l-17 177h-320l-116 -177h-140l504 764h139zM389 213l235 -1l-30 337z" />
    <glyph glyph-name="Beta" unicode="&#x392;" 
d="M563 687q57 -1 94.5 -14t66.5 -48q25 -28 36 -57.5t11 -68.5q0 -70 -33.5 -113.5t-90.5 -68.5q42 -19 69.5 -65t27.5 -115q0 -50 -16.5 -92t-50.5 -71q-35 -29 -75 -42t-97 -13h-391l222 769zM509 379q30 0 57 9t46.5 25t31 36t11.5 43q0 39 -27.5 65t-72.5 26h-132
l-60 -204h146zM264 24h241q60 0 96 31t36 83q0 28 -10 52.5t-27 42.5t-40.5 28.5t-50.5 10.5h-173z" />
    <glyph glyph-name="Gamma" unicode="&#x393;" 
d="M335 685h414l66 -170l-111 -40l-46 99h-228l-192 -654h-130z" />
    <glyph glyph-name="Delta" unicode="&#x394;" 
d="M781 691v-772h-735l609 772h126zM266 30h395l1 491z" />
    <glyph glyph-name="Epsilon" unicode="&#x395;" 
d="M380 369h316l-38 -106h-316l-74 -241h350l-28 -105h-486l257 772h446l-29 -107h-327z" />
    <glyph glyph-name="Zeta" unicode="&#x396;" 
d="M290 690h503l-25 -133l-491 -523h387l-22 -116h-535l25 124l495 531h-353z" />
    <glyph glyph-name="Eta" unicode="&#x397;" 
d="M654 379l86 309h121l-217 -768h-122l99 348h-345l-99 -348h-124l226 768h121l-89 -309h343z" />
    <glyph glyph-name="Theta" unicode="&#x398;" 
d="M247 587q21 25 50.5 45t64.5 34.5t74.5 22.5t81.5 8q66 0 119.5 -19t91 -54.5t57.5 -85.5t20 -112q0 -45 -9.5 -98.5t-24.5 -106t-35 -98.5t-41 -76q-23 -30 -55 -55.5t-70.5 -44t-80 -29t-83.5 -10.5q-45 0 -93 13.5t-83 34.5q-59 34 -90 93.5t-31 137.5q0 50 11 106
t29.5 110t43.5 102t53 82zM697 450q0 148 -184 148q-46 0 -82.5 -10t-66 -32t-53 -56t-43.5 -82q-23 -57 -35 -113t-12 -116q0 -84 49.5 -132t135.5 -48q49 0 85.5 10t65 33.5t50.5 61t42 93.5q23 63 35.5 125.5t12.5 117.5zM370 343h180l13 56h62l-44 -193h-62l13 55h-179
l-13 -55h-63l44 193h62z" />
    <glyph glyph-name="Iota" unicode="&#x399;" 
d="M489 690h127l-192 -772h-124z" />
    <glyph glyph-name="Kappa" unicode="&#x39a;" 
d="M259 691h125l-61 -313l315 313h162l-396 -381l297 -392h-150l-249 333l-61 -333h-117z" />
    <glyph glyph-name="Lambda" unicode="&#x39b;" 
d="M678 691v-774h-133v596l-322 -596h-133l429 774h159z" />
    <glyph glyph-name="Mu" unicode="&#x39c;" 
d="M708 690h159l-135 -771h-119l99 549l-287 -549h-69l-88 572l-98 -572h-118l136 771h153l84 -551z" />
    <glyph glyph-name="Nu" unicode="&#x39d;" 
d="M685 689h127l-154 -773h-132l-187 592l-111 -592h-127l151 773h147l182 -566z" />
    <glyph glyph-name="Xi" unicode="&#x39e;" 
d="M646 523l10 55h-263l-18 -55h-91l37 161h455l-44 -161h-86zM243 256l29 107h404l-28 -107h-405zM684 84l-45 -161h-506l43 161h92l-14 -55h320l18 55h92z" />
    <glyph glyph-name="Omicron" unicode="&#x39f;" 
d="M254 582q47 55 109.5 84t136.5 29q67 0 120.5 -20.5t90.5 -59.5t57 -94.5t20 -124.5q0 -106 -28 -199t-84 -162q-48 -60 -113 -91.5t-143 -31.5q-68 0 -122 21t-91.5 60.5t-57.5 97t-20 129.5q0 51 8.5 101t25 97t39.5 89t52 75zM658 387q0 101 -40.5 155.5t-116.5 54.5
q-52 0 -96 -25.5t-74 -72.5q-17 -27 -32 -62.5t-25.5 -75t-16.5 -80.5t-6 -80q0 -85 43.5 -133t121.5 -48q70 0 118.5 39t81.5 124q22 54 32 102.5t10 101.5z" />
    <glyph glyph-name="Pi" unicode="&#x3a0;" 
d="M199 689h609l-22 -109h-52l-113 -662h-120l117 662h-269l-123 -662h-120l122 662h-47z" />
    <glyph glyph-name="Rho" unicode="&#x3a1;" 
d="M301 690h241q108 0 167.5 -52.5t59.5 -146.5q0 -125 -66.5 -192t-187.5 -67h-183l-64 -314h-122zM354 342h160q66 0 100 37t34 108q0 48 -25.5 69.5t-83.5 21.5h-145z" />
    <glyph glyph-name="Sigma" unicode="&#x3a3;" 
d="M567 322l-270 -296h373l-21 -108h-530l26 115l272 293l-165 252l24 110h496l-22 -109h-348z" />
    <glyph glyph-name="Tau" unicode="&#x3a4;" 
d="M416 578h-218l23 111h541l-25 -111h-201l-121 -662h-120z" />
    <glyph glyph-name="Upsilon" unicode="&#x3a5;" 
d="M436 532q12 20 24 35.5t25.5 28.5t29 24t35.5 22q23 12 42 19.5t40.5 12.5t50.5 7.5t73 5.5l-25 -118q-77 -8 -127 -34t-83 -74q-11 -14 -22 -35.5t-21 -47t-18 -53.5t-13 -55l-57 -351h-115l62 389q9 51 9 87t-7 65t-23 53t-43.5 43t-67.5 36l38 102q38 -12 64.5 -24
t46 -25.5t34 -29.5t28.5 -38q9 -15 13.5 -24.5t6.5 -20.5z" />
    <glyph glyph-name="Phi" unicode="&#x3a6;" 
d="M593 689l-14 -64q128 -23 185.5 -90t57.5 -186q0 -50 -11.5 -98t-33 -89t-52 -74.5t-67.5 -55.5q-37 -23 -86 -32t-119 -9l-14 -73h-110l19 79q-45 8 -76.5 17t-54.5 21q-55 32 -85.5 91t-30.5 137q0 97 42 178.5t117 132.5q42 26 91.5 40t118.5 18l10 57h113zM472 100
h23q21 0 33.5 1t21.5 3.5t16.5 6.5t18.5 9q122 67 122 238q0 48 -21 87.5t-58 59.5q-15 8 -30 11.5t-35 6.5zM455 533q-29 -2 -49 -5t-35.5 -7.5t-28.5 -12t-28 -18.5q-102 -74 -102 -212q0 -71 36.5 -112t115.5 -55z" />
    <glyph glyph-name="Chi" unicode="&#x3a7;" 
d="M679 689h143l-274 -370l167 -402h-136l-118 303l-222 -303h-148l310 418l-141 354h134l101 -251z" />
    <glyph glyph-name="Psi" unicode="&#x3a8;" 
d="M299 -81l42 225q-126 4 -181.5 47.5t-55.5 133.5q0 20 7 67t20 113q5 29 9 53.5t4 44.5q0 32 -6 50.5t-18 35.5h138q7 -14 9.5 -25.5t2.5 -29.5q0 -8 -2 -24t-6 -36t-9 -43.5t-11 -46.5q-7 -28 -12 -49.5t-8 -38.5t-4.5 -31t-1.5 -28q0 -12 2 -19.5t13 -24.5
q11 -20 38 -28t87 -10l74 434h122l-76 -441q57 2 90.5 9t53 34.5t31.5 83t27 154.5q6 38 11 65t10 45.5t10.5 30t11.5 19.5h142q-14 -11 -21 -23t-14 -29q-10 -22 -19.5 -65t-17.5 -93q-14 -92 -29.5 -145.5t-31.5 -86.5q-65 -110 -231 -110h-44l-39 -218h-117z" />
    <glyph glyph-name="Omega" unicode="&#x3a9;" 
d="M81 -81l30 110h169q-22 22 -37 40.5t-26 36t-19 36.5t-15 42q-11 34 -15 67t-4 65q0 80 25 148.5t69 118t105 77.5t133 28q68 0 124 -20.5t96.5 -58t62.5 -89.5t22 -115q0 -72 -21.5 -140.5t-58.5 -117.5q-18 -22 -51 -50t-85 -68h146l-19 -110h-289l31 149
q59 36 101.5 72t69.5 74.5t40 81t13 91.5q0 43 -13 78t-37 60t-57 39t-73 14q-49 0 -88.5 -19.5t-67 -55.5t-42.5 -87.5t-15 -114.5q0 -38 6 -69.5t19 -60t34 -54.5t51 -54l-34 -144h-280z" />
    <glyph glyph-name="alpha" unicode="&#x3b1;" 
d="M808 425q-18 -55 -36 -99t-41 -84t-53 -80.5t-72 -89.5q11 -26 27.5 -35t50.5 -9l-49 -102q-27 0 -46 3t-33 9.5t-25.5 18t-21.5 29.5q-21 -17 -40.5 -29t-38.5 -19.5t-38.5 -10.5t-41.5 -3q-41 0 -74.5 14t-57.5 39.5t-37.5 61.5t-13.5 80q0 60 22 125t59 118
q41 57 98 87.5t120 30.5q68 0 106.5 -34t38.5 -96q0 -20 -2.5 -51.5t-7.5 -62.5l6 -2q18 27 31 50.5t23.5 48.5t19.5 54.5t20 70.5zM466 64q11 8 15 13t6 7q0 13 0.5 22.5t1.5 21.5t2.5 29t3.5 43q2 13 3.5 31t3.5 39v22q1 16 1 19.5v5.5q0 26 -14.5 42t-37.5 16
q-28 0 -56 -22.5t-51 -57.5t-37.5 -79t-14.5 -87q0 -47 24 -75t62 -28q33 0 63 20q6 3 10 6.5t15 11.5z" />
    <glyph glyph-name="beta" unicode="&#x3b2;" 
d="M282 -170h-123l117 605q23 128 90.5 196t170.5 68q83 0 133 -43.5t50 -118.5q0 -69 -36 -115.5t-104 -70.5q59 -26 88.5 -75t29.5 -126q0 -54 -17 -98t-48.5 -76t-75 -49.5t-96.5 -17.5q-49 0 -84.5 15t-67.5 47zM401 286l18 109h45q27 0 49.5 9.5t39 27t26 40.5t9.5 50
q0 32 -16 49t-44 17q-43 0 -75 -37t-46 -106l-70 -330q-2 -8 2.5 -23t10.5 -26q14 -20 40.5 -34t57.5 -14q54 0 85 37.5t31 100.5q0 60 -34 96t-91 35z" />
    <glyph glyph-name="gamma" unicode="&#x3b3;" 
d="M436 -86h-132l35 228q3 24 5.5 49.5t2.5 42.5q0 56 -25 90t-70 34q-12 0 -27.5 -3.5t-45.5 -15.5l19 119q25 9 43 12.5t39 3.5q56 0 92.5 -31.5t61.5 -101.5q25 39 46.5 64.5t44.5 41t49.5 21.5t61.5 6q13 0 24.5 -1t24.5 -3t28.5 -6.5t36.5 -10.5l-26 -116
q-23 12 -39 16.5t-36 4.5q-35 0 -69.5 -17.5t-58.5 -48.5q-16 -20 -28 -55.5t-20 -83.5z" />
    <glyph glyph-name="delta" unicode="&#x3b4;" 
d="M707 555q-28 6 -46.5 10t-31 6.5t-20.5 4t-16 2.5q-19 3 -44 5t-38 2q-17 0 -28.5 -4t-11.5 -12q-1 -3 9 -14t21 -22l13 -10q47 -37 79.5 -71t52.5 -68.5t29 -71.5t9 -80q0 -48 -13.5 -96.5t-39.5 -92.5q-73 -129 -215 -129q-52 0 -94.5 17t-72.5 48t-46 75.5t-16 98.5
q0 65 21 125t59 98q31 29 67.5 45t95.5 28q-45 39 -70.5 62t-38 38t-16 26t-3.5 26q0 93 221 93q25 0 47 -1.5t45.5 -4.5t50.5 -7.5t62 -11.5zM557 221q0 60 -27 95t-71 35q-27 0 -52 -17.5t-45 -47t-32 -67t-12 -77.5q0 -54 27 -87.5t70 -33.5q29 0 54.5 16t45 43.5
t31 63.5t11.5 77z" />
    <glyph glyph-name="epsilon" unicode="&#x3b5;" 
d="M651 -38q-52 -24 -115 -36.5t-129 -12.5q-115 0 -173 41t-58 122q0 59 26.5 93.5t84.5 54.5q-29 30 -40 53t-11 53q0 72 62 114t169 42q36 0 66.5 -3t58 -10.5t54.5 -19.5t57 -29l-26 -108q-51 28 -103.5 42.5t-100.5 14.5q-102 0 -102 -52q0 -39 74 -39h96l-22 -116h-77
q-67 0 -97 -17.5t-30 -53.5q0 -66 113 -66q32 0 61.5 3.5t59.5 12t61 21.5t66 31z" />
    <glyph glyph-name="zeta" unicode="&#x3b6;" 
d="M283 650h299q3 6 7 10q15 17 24 24t17 7q4 0 10 -1.5t9 -5.5l19 -14l52 -40l7 -7t5 -7q2 -4 4 -8.5t2 -6.5q0 -8 -10 -16.5t-23 -11.5q-14 -2 -19.5 -4t-13.5 -9q-23 -18 -39 -32t-30 -27.5t-28 -28.5t-33 -36q-21 -23 -45 -51.5t-47.5 -57.5t-44 -56t-33.5 -46
q-26 -35 -35.5 -55t-9.5 -34q0 -19 19.5 -28.5t72.5 -16.5q42 -5 73 -10.5t53.5 -12.5t38.5 -16t28 -21q38 -38 38 -96q0 -74 -45.5 -116.5t-125.5 -42.5q-23 0 -53.5 3t-65.5 9l15 110q28 -8 43 -9.5t33 -1.5q35 0 53 10.5t17 28.5q-2 19 -18.5 31t-50.5 17l-103 18l-6 2
h-7q-73 16 -107.5 48.5t-34.5 84.5q0 29 13.5 60t47.5 80q14 19 31.5 41.5t35.5 45t35 43.5t31 38q5 3 24.5 24t49.5 52l28 31h-237z" />
    <glyph glyph-name="eta" unicode="&#x3b7;" 
d="M375 435q29 31 59 43.5t72 12.5q40 0 73 -12.5t56 -35.5t36 -56t13 -73q0 -22 -3 -48.5t-8 -55.5l-71 -373h-134l67 379q5 28 7.5 49t2.5 33q0 40 -19 62t-54 22q-22 0 -42 -9.5t-37 -26t-29 -39t-17 -48.5l-49 -278h-136l87 498h131z" />
    <glyph glyph-name="theta" unicode="&#x3b8;" 
d="M299 566q39 63 98.5 95t134.5 32q94 0 147 -63.5t53 -174.5q0 -51 -7 -105t-19.5 -106t-31 -99.5t-41.5 -85.5q-44 -75 -100 -110.5t-131 -35.5q-103 0 -158.5 64.5t-55.5 180.5q0 53 8 109t22.5 109.5t35 102t45.5 87.5zM599 365q2 26 3 50.5t1 35.5q0 138 -85 138
q-26 0 -48.5 -12.5t-42 -39.5t-37 -69.5t-34.5 -102.5h243zM325 262q-4 -32 -6.5 -59t-2.5 -47q0 -64 23.5 -100t65.5 -36q48 0 85.5 44t66.5 129q6 14 8.5 28.5t8.5 40.5h-249z" />
    <glyph glyph-name="iota" unicode="&#x3b9;" 
d="M553 478l-72 -381q-4 -20 -4 -35q0 -10 10 -19.5t21 -9.5q2 0 10 2q19 4 28 6t16 4q5 1 10 3t15 5l-26 -122q-42 -12 -69.5 -16t-59.5 -4q-54 0 -75 17t-21 61q0 17 1.5 33.5t3.5 34.5l77 421h135z" />
    <glyph glyph-name="kappa" unicode="&#x3ba;" 
d="M605 477h186l-345 -280l203 -281h-154l-145 206l-39 -206h-135l116 561h131l-38 -189z" />
    <glyph glyph-name="lambda" unicode="&#x3bb;" 
d="M351 692q37 -12 66.5 -26t52.5 -33t41.5 -43.5t34.5 -56.5q18 -35 39 -95t44 -144q6 -23 10 -39t7 -27.5t5.5 -20.5t5.5 -18q13 -35 25.5 -61.5t26.5 -48t31 -40t40 -37.5l-113 -92q-24 28 -40.5 48t-28 38t-20.5 37.5t-18 46.5q-9 23 -16.5 47.5t-16 53.5t-17.5 64
t-19 80q-13 -8 -19 -15.5t-19 -23.5q-5 -11 -10 -21.5t-12 -25.5t-17.5 -37t-25.5 -57q-22 -50 -43 -85t-45 -62t-54 -47.5t-70 -40.5l-78 113q31 8 56.5 23t48.5 40.5t46 63t50 91.5q22 48 39 80.5t31.5 56t29.5 42t34 37.5l2 2t4 2q-16 28 -30 47t-30.5 33t-37 23.5
t-50.5 17.5z" />
    <glyph glyph-name="mu" unicode="&#x3bc;" horiz-adv-x="650" 
d="M527 -22h-124l13 75q-38 -40 -87.5 -64t-104.5 -24q-16 0 -29.5 2t-25.5 5l-30 -172h-127l130 733h130l-54 -305q-5 -29 -8 -57.5t2 -51.5t21.5 -37.5t49.5 -14.5q38 0 66 17.5t47.5 45t31.5 60.5t17 63l50 280h130z" />
    <glyph glyph-name="nu" unicode="&#x3bd;" 
d="M780 362q-30 0 -47 -5.5t-31 -21.5q-11 -11 -19.5 -23t-16 -29.5t-15 -41.5t-15.5 -59l-30 -115q-11 -37 -20 -58t-21 -38q-22 -29 -53 -44t-69 -15q-73 0 -109.5 50.5t-41.5 156.5l-9 116q-2 37 -6.5 62t-12 40t-19.5 21t-29 6q-10 0 -26 -2.5t-51 -10.5l-16 110
q33 11 56.5 15t49.5 4q61 0 97.5 -21.5t58.5 -69.5q7 -16 11.5 -29t7.5 -31t4.5 -45t4.5 -71q2 -43 2.5 -62t2.5 -25l1 -9q2 -23 3 -32.5t3 -17.5q5 -10 12.5 -16t14.5 -6q8 0 16 12.5t13 32.5l17 52q10 35 17 60t11.5 41.5t6.5 26.5l3 15l5 20q17 50 36.5 83.5t47.5 54
t66 29t92 8.5h11t19 -1z" />
    <glyph glyph-name="xi" unicode="&#x3be;" 
d="M308 665h292q15 2 24 4.5t14 4.5q22 8 33 10t20 2q11 0 19.5 -10t18.5 -36q10 -27 10 -42q0 -18 -9.5 -25t-35.5 -7h-29q-8 0 -22 -1t-32 -3q-30 -8 -51.5 -15t-37.5 -14t-28 -15.5t-22 -18.5q-21 -17 -30 -31.5t-9 -30.5q0 -29 39.5 -46t107.5 -17h35l-23 -114
q-28 0 -48 -0.5t-35.5 -1.5t-28.5 -3t-27 -5q-59 -12 -93.5 -43t-34.5 -72q0 -15 4 -25t15 -17t30 -12t48 -9q28 -5 47.5 -8.5t33.5 -7.5t24 -9t20 -11q26 -16 41 -45t15 -64q0 -45 -22 -80t-62 -51q-17 -8 -42 -10t-61 -2q-16 0 -33.5 0.5t-46.5 1.5l15 112
q21 -3 35.5 -3.5t23.5 -0.5q33 0 51.5 7.5t18.5 24.5t-15.5 24.5t-66.5 12.5q-28 4 -49 8t-38 9q-55 15 -86.5 51.5t-31.5 87.5q0 54 30 101.5t84 76.5q15 8 30.5 14t44.5 16q-45 22 -63.5 46t-18.5 60q0 38 23 70t71 57v1h-116z" />
    <glyph glyph-name="omicron" unicode="&#x3bf;" 
d="M301 410q69 78 195 78q49 0 90 -16.5t70 -46.5t45.5 -72.5t16.5 -93.5q0 -32 -5 -65t-14.5 -65t-23 -61t-29.5 -53q-37 -53 -88 -77.5t-120 -24.5q-53 0 -95.5 17t-72.5 48t-46.5 75.5t-16.5 100.5q0 69 24.5 137t69.5 119zM583 277q0 45 -25.5 71.5t-71.5 26.5
q-59 0 -93 -61q-24 -38 -37.5 -87.5t-13.5 -96.5q0 -53 25 -80.5t75 -27.5q38 0 64.5 25.5t48.5 80.5q14 35 21 74.5t7 74.5z" />
    <glyph glyph-name="pi" unicode="&#x3c0;" 
d="M778 477l-25 -112h-49q-4 -21 -7 -35.5t-4 -25.5q-8 -44 -13.5 -76.5t-9.5 -49.5q-2 -18 -3.5 -37t-1.5 -36q0 -35 15.5 -69.5t56.5 -55.5l-115 -72q-49 32 -70 79t-21 91q0 54 9.5 128t29.5 159h-172q-13 -111 -24 -184.5t-24 -122.5t-30.5 -81t-42.5 -62l-118 51
q25 29 37.5 51.5t20.5 52.5q6 24 11 46.5t10 53.5t11 75.5t14 113.5q-8 -1 -14.5 -2t-13 -3t-14.5 -5t-19 -9l10 121q23 9 41.5 12.5t51.5 3.5h473z" />
    <glyph glyph-name="rho" unicode="&#x3c1;" 
d="M268 -198h-129l76 354q19 87 45 149.5t62 102t82.5 58.5t105.5 19q102 0 160.5 -57.5t58.5 -157.5q0 -35 -7.5 -72.5t-21 -73t-32.5 -66.5t-41 -54q-34 -35 -79 -53.5t-95 -18.5q-45 0 -78 13t-70 45zM595 252q0 53 -25.5 85t-66.5 32q-29 0 -56 -17.5t-47.5 -46.5
t-33 -67t-12.5 -79q0 -24 7 -44.5t20 -35.5t30.5 -24t37.5 -9q29 0 55.5 17t46.5 45.5t32 66t12 77.5z" />
    <glyph glyph-name="sigma" unicode="&#x3c3;" 
d="M726 595l27 -113q-31 -6 -53.5 -11t-41 -10.5t-37 -13t-42.5 -18.5q51 -31 71.5 -70.5t20.5 -106.5q0 -49 -13.5 -101t-36.5 -96q-38 -71 -94.5 -106t-137.5 -35q-53 0 -95.5 17t-72 48t-45 75t-15.5 99q0 99 53 181t153 140q54 32 127.5 59t151.5 45zM540 244
q0 53 -26.5 84.5t-71.5 31.5q-30 0 -56.5 -17.5t-47 -47.5t-32 -69.5t-11.5 -83.5q0 -55 25 -84.5t70 -29.5q35 0 64 19.5t48 60.5q17 32 27.5 70t10.5 66z" />
    <glyph glyph-name="tau" unicode="&#x3c4;" 
d="M694 359q-17 -4 -30 -7t-24.5 -4.5t-23 -2t-24.5 -0.5q-10 0 -32 2t-45 5l-43 -247q-2 -15 -3.5 -27t-3.5 -23q-3 -20 8 -26.5t36 -6.5q4 0 15 1t23.5 2.5t23.5 3.5t17 3l-30 -110q-44 -5 -76.5 -7.5t-58.5 -2.5q-51 0 -75 23t-24 58l5 43l58 324q-11 1 -19.5 1.5
t-13.5 0.5q-30 0 -67.5 -7t-71.5 -19l15 123q21 6 37.5 9.5t32 5.5t32.5 3t39 1q19 0 44.5 -1t51.5 -4l26 -2l68 -7q8 -1 12.5 -1h12.5q14 0 27.5 1t28.5 3t33 5.5t41 9.5z" />
    <glyph glyph-name="upsilon" unicode="&#x3c5;" 
d="M561 486q24 -6 40.5 -11t28.5 -9.5t21 -9t18 -11.5q24 -15 34.5 -31t10.5 -39q0 -5 -2 -21t-6 -36l-39 -223q-10 -53 -25.5 -88t-42 -56t-67 -29.5t-99.5 -8.5q-111 0 -162 38.5t-51 123.5q0 20 3.5 46.5t8.5 52.5l30 147q2 9 3 15t1 8q0 10 -13 18.5t-52 23.5l53 100
q42 -10 70 -21.5t45 -25.5t24.5 -32.5t7.5 -43.5q0 -8 -2 -20.5t-4 -23.5l-37 -191q-4 -16 -4 -35q0 -29 21 -44.5t59 -15.5q46 0 67.5 21.5t32.5 77.5l39 189q2 8 2 13.5v8.5q1 13 -10.5 22t-48.5 25z" />
    <glyph glyph-name="phi" unicode="&#x3c6;" 
d="M415 280q15 93 64 142.5t123 49.5q39 0 71 -14.5t55.5 -41.5t36 -64.5t12.5 -83.5q0 -44 -8.5 -87t-24.5 -81t-38 -69t-49 -52q-17 -15 -35 -25.5t-40 -17.5t-48.5 -11.5t-60.5 -7.5l-20 -125h-120l21 128q-46 5 -72 13.5t-48 24.5q-45 29 -69.5 78.5t-24.5 111.5
q0 46 13.5 91t37.5 84.5t57.5 71t74.5 51.5q9 4 18.5 7.5t21.5 6.5t28 5.5t39 5.5l-17 -120q-33 -8 -53 -19t-40 -35q-27 -34 -40 -68.5t-13 -81.5q0 -56 23.5 -81.5t83.5 -35.5zM497 36q42 3 68 21t49 59q7 14 13 32t10.5 38.5t7.5 41.5t3 40q0 48 -10.5 70t-33.5 22
q-22 0 -39.5 -21.5t-22.5 -53.5z" />
    <glyph glyph-name="chi" unicode="&#x3c7;" 
d="M591 478h157l-220 -271l71 -158q9 -23 22 -30t44 -7h30l-18 -98l-63 -2q-29 0 -50 3.5t-37 12t-27 23t-21 35.5l-47 104l-136 -178l-162 2l246 296l-57 129q-5 14 -19.5 22t-33.5 8h-35l-17 109h115q42 0 66 -15t41 -52l37 -81z" />
    <glyph glyph-name="psi" unicode="&#x3c8;" 
d="M460 523h116l-91 -493q33 1 56 3t38.5 6.5t27 12.5t22.5 20q23 31 35 88t12 146q0 22 -2 39t-7 30.5t-14 26t-22 27.5l119 48q15 -18 26 -36.5t17.5 -40t9.5 -48t3 -61.5q0 -63 -10 -123.5t-24 -104.5q-15 -39 -39 -67t-61 -45.5t-88.5 -25t-120.5 -7.5l-23 -117h-118
l25 128q-117 5 -172.5 46.5t-55.5 121.5q0 32 5 72t14 80.5t20.5 78t25.5 64.5q14 31 28 48t41 35l100 -60q-15 -13 -25.5 -24.5t-18.5 -24.5t-14 -28.5t-13 -37.5q-5 -19 -12.5 -53t-17.5 -82q-2 -12 -3.5 -22.5t-1.5 -20.5q0 -43 27.5 -63t92.5 -22z" />
    <glyph glyph-name="omega" unicode="&#x3c9;" 
d="M598 487q22 -6 39 -11.5t30 -11t23.5 -12t20.5 -15.5q35 -31 52.5 -78.5t17.5 -109.5q0 -35 -5.5 -72t-16 -72t-24.5 -66t-31 -53q-26 -34 -62.5 -52.5t-74.5 -18.5q-47 0 -79 23t-55 75q-28 -53 -58.5 -74.5t-76.5 -21.5q-38 0 -68 15.5t-51 44t-32.5 69t-11.5 90.5
q0 46 9.5 90t26.5 83t41.5 71t53.5 54q33 24 70 36.5t84 15.5l15 1l-16 -114q-34 -5 -54.5 -16.5t-39.5 -34.5q-14 -17 -25 -39t-19.5 -47.5t-13 -52t-4.5 -51.5q0 -92 46 -92q26 0 46.5 28.5t28.5 76.5l26 153h128l-24 -147q-2 -12 -3 -21.5t-1 -13.5q0 -35 12.5 -58
t34.5 -23q21 0 38 15.5t29 42.5t19 63.5t7 79.5q0 36 -3.5 60t-12.5 40t-24 25.5t-37 14.5z" />
    <glyph glyph-name="afii10023" unicode="&#x401;" 
d="M498 683q0 30 19 48.5t48 18.5q31 0 50 -18.5t19 -48.5q0 -28 -19 -46t-50 -18q-29 0 -48 18t-19 46zM261 683q0 30 19.5 48.5t48.5 18.5q31 0 49.5 -18t18.5 -49q0 -29 -18.5 -46.5t-49.5 -17.5q-30 0 -49 18t-19 46zM189 -82v647h539v-104h-425v-155h350v-105h-350
v-177h425v-106h-539z" />
    <glyph glyph-name="afii10017" unicode="&#x410;" 
d="M391 690h127l283 -772h-143l-66 212h-269l-72 -212h-141zM351 230h210l-104 336z" />
    <glyph glyph-name="afii10018" unicode="&#x411;" 
d="M207 687h458l65 -119l-101 -63l-40 70h-254v-194l165 -1q116 -1 174.5 -62t58.5 -179q0 -48 -14.5 -91.5t-40.5 -69.5q-26 -28 -70.5 -43.5t-92.5 -15.5l-308 1v767zM335 32h119q41 0 69.5 6t46 20t25.5 36t8 54q0 120 -149 120h-119v-236z" />
    <glyph glyph-name="afii10019" unicode="&#x412;" 
d="M185 692h316q108 0 163 -52.5t55 -153.5q0 -97 -78 -156q26 -11 43 -22.5t28 -22.5q22 -27 36 -66.5t14 -83.5q0 -66 -26 -115.5t-71 -75.5q-54 -28 -136 -28h-344v776zM305 578v-203l197 -1q45 0 71 28t26 76t-28 74t-81 26h-185zM305 261v-231h211q61 0 92.5 29.5
t31.5 84.5q0 117 -135 117h-200z" />
    <glyph glyph-name="afii10020" unicode="&#x413;" 
d="M219 -83v661h-47v113h504l90 -147l-100 -60l-58 94h-260v-661h-129z" />
    <glyph glyph-name="afii10021" unicode="&#x414;" 
d="M801 -93l-91 -77l-77 90h-358q-11 -14 -25 -28t-29 -26.5t-30 -22.5t-28 -15q-17 24 -36 48t-48 51l7.5 3t8.5 6q40 22 65.5 43t39.5 47t19 61.5t5 86.5v408h-58v107h585v-107h-50v-553zM575 30v552h-227v-423q0 -31 -4 -64t-11 -65h242z" />
    <glyph glyph-name="afii10022" unicode="&#x415;" 
d="M710 -79h-539v766h539v-105h-425v-210h350v-105h-350v-241h425v-105z" />
    <glyph glyph-name="afii10024" unicode="&#x416;" 
d="M395 687h120v-320h29q30 0 46.5 20t18.5 64l2 25q1 15 3.5 35t5.5 37q14 75 63.5 107t149.5 32v-117h-10q-27 0 -45.5 -5t-29.5 -17.5t-16.5 -33.5t-7.5 -53q-5 -72 -41 -127q32 -17 46.5 -27.5t21.5 -19.5q19 -23 27 -67t10 -119q1 -40 3.5 -66t8 -45.5t14.5 -35.5
t23 -34l-142 -1q-11 22 -16 53.5t-7 80.5l-2 15q-3 55 -8 92.5t-14.5 60t-26 32t-41.5 9.5h-65v-342h-120v342h-58q-29 0 -46.5 -10t-31.5 -32q-5 -9 -8.5 -24.5t-5.5 -34.5t-3.5 -40.5t-1.5 -41.5q0 -33 -1.5 -56t-4 -40.5t-7 -32t-11.5 -30.5h-142q12 13 20.5 26.5
t14 32.5t8 46t3.5 67q2 62 7.5 100.5t16.5 66.5q10 25 28 41.5t57 33.5q-13 18 -21.5 33t-14 31t-9 34.5t-6.5 42.5q-3 27 -8 45.5t-13.5 29.5t-21.5 15.5t-32 4.5q-8 0 -11.5 0.5t-8.5 -0.5v117q31 0 54.5 -1.5t41 -5.5t31 -11t26.5 -18q23 -19 37.5 -50.5t19.5 -80.5
q5 -33 8 -55t3 -26q11 -69 65 -71l26 -1v320z" />
    <glyph glyph-name="afii10025" unicode="&#x417;" 
d="M144 636l68 -50q24 31 48.5 52t54 33.5t65.5 18t83 5.5q121 0 183 -54t62 -158q0 -110 -81 -153q57 -26 81 -69t24 -112q0 -115 -70 -175.5t-203 -60.5q-69 0 -123.5 20t-92.5 60q-35 35 -51.5 80.5t-22.5 118.5h136q6 -47 16 -77t28 -48t45.5 -25t68.5 -7q66 0 103 32
t37 89q0 56 -28.5 86t-83.5 30h-113v115h110q89 0 89 83q0 57 -36 86.5t-105 29.5q-52 0 -95 -18t-66 -50q-14 -15 -19 -32.5t-7 -44.5h-105v195z" />
    <glyph glyph-name="afii10026" unicode="&#x418;" 
d="M743 691v-773h-131v542l-10 2l-286 -544h-143v773h128v-536l11 -2l286 538h145z" />
    <glyph glyph-name="afii10027" unicode="&#x419;" 
d="M628 757q-15 -151 -176 -151q-114 0 -149 83q-7 16 -10.5 29t-7.5 39h102q4 -34 18 -45.5t48 -11.5q36 0 52 12t21 45h102zM173 -83v663h124v-465l11 -2l300 467h133v-663h-130v461l-9 2l-294 -463h-135z" />
    <glyph glyph-name="afii10028" unicode="&#x41a;" 
d="M183 -83v773h128v-320h68q34 0 55 16t35 48q5 10 9.5 30t11.5 51q13 48 25.5 77t28.5 46q12 14 24.5 23.5t28.5 15t36.5 8t48.5 2.5h57v-117h-23q-29 0 -47.5 -4.5t-31 -18t-20.5 -37.5t-17 -63q-5 -24 -9.5 -40t-11.5 -29t-17 -24t-26 -25l226 -412h-145l-147 279
q-20 36 -36.5 49.5t-42.5 13.5h-80v-342h-128z" />
    <glyph glyph-name="afii10029" unicode="&#x41b;" 
d="M704 -81h-123v669h-243v-190q0 -42 -2.5 -84.5t-7 -81.5t-10.5 -72t-13 -56q-20 -65 -52.5 -110t-84.5 -84l-75 106q14 9 24 17t17.5 16.5t14.5 18t15 22.5q21 37 30 77q11 48 16.5 111t5.5 140v170h-49l-2 107h588v-107h-49v-669z" />
    <glyph glyph-name="afii10030" unicode="&#x41c;" 
d="M860 -83h-116l-58 485l-18 1l-146 -486h-121l-140 489l-19 -1l-57 -488h-117l92 771h125l166 -553h17l173 553h119z" />
    <glyph glyph-name="afii10031" unicode="&#x41d;" 
d="M166 -81v770h120v-314h346v314h118v-770h-118v347h-346v-347h-120z" />
    <glyph glyph-name="afii10032" unicode="&#x41e;" 
d="M157 301q0 90 21 162.5t60 123.5t94.5 78.5t124.5 27.5q131 0 217 -99q90 -105 90 -286q0 -89 -21 -161.5t-59.5 -124t-93.5 -79.5t-123 -28q-69 0 -126 28t-98 79t-63.5 122t-22.5 157zM648 302q0 64 -13 115.5t-37.5 88t-59 56t-76.5 19.5q-88 0 -138 -71t-50 -195
q0 -132 50.5 -207t141.5 -75q40 0 73.5 19.5t57.5 55t37.5 85t13.5 109.5z" />
    <glyph glyph-name="afii10033" unicode="&#x41f;" 
d="M713 -81h-122v662h-270v-662h-123v662h-64v107h639v-107h-60v-662z" />
    <glyph glyph-name="afii10034" unicode="&#x420;" 
d="M199 -78v764h294q52 0 94.5 -9.5t71.5 -25.5q45 -26 70.5 -77t25.5 -112q0 -59 -24 -109.5t-65 -76.5q-32 -18 -76 -28.5t-97 -10.5h-176v-315h-118zM317 575v-227h164q72 0 113.5 30.5t41.5 86.5q0 110 -155 110h-164z" />
    <glyph glyph-name="afii10035" unicode="&#x421;" 
d="M621 470q-13 53 -51.5 81.5t-99.5 28.5q-98 0 -153 -72.5t-55 -202.5q0 -59 11 -104t32 -80q28 -43 73 -67t95 -24q59 0 96.5 30t51.5 87h129q-20 -110 -90.5 -169t-186.5 -59q-77 0 -138.5 26.5t-105 75.5t-67 118.5t-23.5 156.5q0 104 29 181t87 132q43 39 97 59.5
t114 20.5q66 0 124.5 -25t97.5 -68q23 -26 36 -55t21 -72z" />
    <glyph glyph-name="afii10036" unicode="&#x422;" 
d="M161 694h589v-116h-227v-662h-125v662h-237v116z" />
    <glyph glyph-name="afii10037" unicode="&#x423;" 
d="M398 159l-258 534h132l190 -386l156 386h131l-267 -654q-16 -38 -31.5 -63t-33.5 -40t-40.5 -21t-52.5 -6q-23 0 -43 3t-53 11v130q32 -9 48.5 -13t31.5 -4q13 0 23 2.5t18 10t15 20.5t15 33z" />
    <glyph glyph-name="afii10038" unicode="&#x424;" 
d="M399 -84v85q-147 17 -224.5 95.5t-77.5 207.5q0 34 7.5 67.5t21.5 64.5t35 57.5t47 46.5q32 28 77 43.5t114 23.5v83h115v-83q145 -18 223 -95t78 -202q0 -36 -7.5 -71t-22 -66.5t-35 -58t-46.5 -45.5q-34 -31 -78.5 -46t-111.5 -22v-85h-115zM514 106q21 4 36 7.5
t26.5 7.5t20.5 10t20 15q79 54 79 168q0 46 -16 83.5t-46 60.5q-12 10 -21 16.5t-21 11t-30 9t-48 10.5v-399zM399 505q-99 -15 -143 -66.5t-44 -135.5q0 -83 44 -132t143 -65v399z" />
    <glyph glyph-name="afii10039" unicode="&#x425;" 
d="M525 311l253 -391h-151l-170 286l-192 -286h-144l267 383l-247 387h148l168 -277l164 277h141z" />
    <glyph glyph-name="afii10040" unicode="&#x426;" 
d="M144 -81v112h47v660h130v-660h271v660h130v-681l85 -113l-96 -70l-73 92h-494z" />
    <glyph glyph-name="afii10041" unicode="&#x427;" 
d="M723 -75h-129v258q-47 -26 -86.5 -36.5t-86.5 -10.5q-115 0 -174 55t-59 163v330h131v-306q0 -63 33 -96.5t97 -33.5q31 0 57.5 7t46 19t30.5 28.5t11 36.5v345h129v-759z" />
    <glyph glyph-name="afii10042" unicode="&#x428;" 
d="M83 -75v110h43v649h129v-649h138v649h130v-649h129v649h131v-649h42v-110h-742z" />
    <glyph glyph-name="afii10043" unicode="&#x429;" 
d="M70 -74v111h35v645h129v-645h159v645h129v-645h154v645h121v-673l67 -118l-106 -55l-54 90h-634z" />
    <glyph glyph-name="afii10044" unicode="&#x42a;" 
d="M378 690v-285h160q125 0 194 -64t69 -179q0 -117 -63 -179.5t-183 -62.5h-295v653h-147v117h265zM378 22h183q57 0 88.5 37t31.5 100q0 65 -36 104t-100 39h-167v-280z" />
    <glyph glyph-name="afii10045" unicode="&#x42b;" 
d="M789 690v-767h-122v767h122zM126 -77v767h122v-282h119q115 0 174 -65t59 -192q0 -53 -17 -95t-48.5 -71.5t-76.5 -45.5t-100 -16h-232zM248 28h101q67 0 98 33t31 101q0 63 -33 101t-91 38h-106v-273z" />
    <glyph glyph-name="afii10046" unicode="&#x42c;" 
d="M197 -81v767h123v-282h150q134 0 202.5 -63.5t68.5 -186.5q0 -65 -25.5 -119t-70.5 -81q-26 -15 -71 -25t-93 -10h-284zM320 24h143q26 0 43 1t29 4t21 8t18 13q44 32 44 107q0 87 -62 124q-18 12 -39.5 14t-62.5 2h-134v-273z" />
    <glyph glyph-name="afii10047" unicode="&#x42d;" 
d="M169 459q26 108 101.5 168t190.5 60q143 0 220.5 -98.5t77.5 -280.5q0 -189 -79 -288t-231 -99q-94 0 -159.5 38.5t-97.5 110.5q-24 49 -31 106h116q5 -29 9 -43.5t9 -25.5q21 -37 60 -59t90 -22q92 0 140.5 59.5t56.5 187.5q-34 -17 -58 -25t-34 -8q-11 0 -32.5 8
t-40.5 19q-19 14 -29 18.5t-24 4.5q-11 0 -23 -6t-39 -25l-41 90q45 31 69.5 42.5t37.5 11.5q6 0 15.5 -2.5t20 -7t21 -9.5t18.5 -9q20 -14 34.5 -22t28.5 -8q13 0 32.5 11t39.5 25q-11 103 -56 151.5t-129 48.5q-65 0 -104 -29t-65 -93h-115z" />
    <glyph glyph-name="afii10048" unicode="&#x42e;" 
d="M181 282v-353h-121v751h121v-296h106q7 59 18.5 97t31.5 70q42 65 106 102.5t136 37.5q64 0 118 -27.5t92 -78.5t59.5 -122.5t21.5 -158.5q0 -99 -28.5 -181.5t-77.5 -130.5q-38 -35 -85 -55t-96 -20q-86 0 -158 54.5t-114 152.5q-11 26 -18 64.5t-10 93.5h-102zM743 306
q0 64 -12 116t-34.5 89t-54.5 57.5t-71 20.5q-37 0 -67.5 -21.5t-52 -59t-33.5 -89.5t-12 -113q0 -64 12 -116.5t34 -90t53 -58.5t69 -21q39 0 70 20.5t53 58t34 90t12 117.5z" />
    <glyph glyph-name="afii10049" unicode="&#x42f;" 
d="M713 -82h-121v332h-180q-55 0 -79 -23.5t-29 -82.5q-5 -50 -9 -81.5t-9.5 -55t-12.5 -43.5t-19 -46h-126q14 28 23 51t14 49.5t8.5 60.5t6.5 84q2 28 7 48t15.5 35t27 26t41.5 21q-57 33 -84.5 79.5t-27.5 103.5q0 49 15.5 88.5t43.5 67.5t68 43t89 15h338v-772zM592 583
h-193q-58 0 -89.5 -27.5t-31.5 -75.5q0 -54 33 -86.5t89 -32.5h192v222z" />
    <glyph glyph-name="afii10065" unicode="&#x430;" 
d="M562 -72q-5 5 -5.5 8t-1.5 5l-1 11q-1 6 -1.5 7t-2.5 3v10q-38 -31 -76 -45t-82 -14q-84 0 -134.5 46t-50.5 124q0 51 21.5 86t62.5 53q25 13 59.5 21t96.5 17q57 8 78.5 20.5t21.5 38.5q0 27 -22.5 41.5t-64.5 14.5q-50 0 -70.5 -15t-22.5 -55h-129q5 94 58 138t164 44
q105 0 160 -41t55 -121v-287q0 -21 0.5 -36.5t3 -27.5t6.5 -23t10 -23h-133zM548 195q-11 -10 -20 -16t-20 -10t-26 -6.5t-38 -5.5t-35.5 -5t-19.5 -4t-11 -3t-11 -4q-35 -11 -35 -56q0 -32 21 -49t60 -17q30 0 59 8.5t47 22.5q9 7 14.5 14t8.5 16t4 21t1 30z" />
    <glyph glyph-name="afii10066" unicode="&#x431;" 
d="M691 562q-35 -17 -55.5 -23t-42.5 -6q-30 0 -56 10q-22 11 -34.5 16.5t-19.5 8.5q-7 2 -12 2.5t-15 0.5q-39 0 -64.5 -43.5t-39.5 -139.5q29 22 54 30t59 8q47 0 86 -19t67 -52.5t43.5 -80.5t15.5 -103q0 -57 -16.5 -105t-45.5 -82.5t-70.5 -54t-90.5 -19.5
q-56 0 -100 24t-75 69.5t-47 111.5t-16 150q0 96 19 179.5t54 140.5q34 57 72.5 81t91.5 24q13 0 22 -1t18 -3.5t21 -7.5t32 -13q14 -8 27.5 -12t21.5 -4q11 0 21 1t21 4t24 7.5t30 11.5v-111zM555 165q0 65 -25.5 104t-67.5 42q-25 1 -46.5 -9.5t-37 -30t-24.5 -47.5
t-9 -61q0 -65 30 -104.5t78 -39.5q45 0 73.5 40t28.5 106z" />
    <glyph glyph-name="afii10067" unicode="&#x432;" 
d="M222 480h303q37 0 68.5 -10.5t53.5 -29.5t34.5 -45.5t12.5 -57.5q0 -35 -16 -64.5t-53 -55.5q45 -23 66 -58t21 -77q0 -37 -15 -68t-42 -54t-64 -36t-82 -13h-287v569zM343 256h128q45 0 70 16t25 45q0 34 -26 49t-86 15h-111v-125zM342 14h137q53 0 74 14t21 52
q0 74 -88 74h-144v-140z" />
    <glyph glyph-name="afii10068" unicode="&#x433;" 
d="M253 -93v574h395l79 -143l-105 -64l-48 84h-195v-451h-126z" />
    <glyph glyph-name="afii10069" unicode="&#x434;" 
d="M678 8l77 -125l-98 -65l-64 97h-280q-29 -40 -62.5 -61.5t-83.5 -38.5l-70 107q26 9 51.5 21.5t45.5 29.5q39 36 46 110q2 8 2.5 24.5t2.5 51.5q2 26 2.5 51.5t0.5 51.5v105h-42v115h519v-115h-47v-359zM361 33h195v334h-185v-103q0 -19 -1 -51t-2 -73q0 -11 -0.5 -20
t-0.5 -14q-1 -10 -1 -15.5v-7.5q0 -6 -1 -10.5t-1 -6.5q-1 -5 -1 -10q-1 -4 -1 -14l-1 -3v-6z" />
    <glyph glyph-name="afii10070" unicode="&#x435;" 
d="M699 156h-364q12 -128 130 -128q54 0 78.5 18.5t32.5 63.5h122q-17 -100 -75.5 -151.5t-157.5 -51.5q-58 0 -104.5 20.5t-79.5 58t-51 91t-18 119.5t18 120.5t50.5 94t77.5 61.5t99 22q60 0 111.5 -28t85.5 -76q45 -68 45 -188v-46zM572 276q-12 100 -109 100
q-104 0 -121 -100h230z" />
    <glyph glyph-name="afii10072" unicode="&#x436;" 
d="M755 365q-20 -2 -32 -5.5t-18.5 -10t-9.5 -17.5t-6 -29t-6.5 -31t-7.5 -23.5t-10.5 -19t-15.5 -18.5q49 -17 70 -56.5t21 -107.5q0 -27 1 -44t4 -31.5t8.5 -29t14.5 -35.5h-135q-14 34 -19 53.5t-3 39.5l1 44v9t1 7q0 4 1 7q1 24 -2.5 39.5t-14 24.5t-30 13.5t-49.5 8.5
v-246h-124v246q-28 -3 -46.5 -9.5t-29.5 -18t-15.5 -28.5t-4.5 -42v-16t1 -20q2 -13 2.5 -23t0.5 -16q0 -29 -5 -43t-18 -30h-145l3 4q13 14 20.5 25t11.5 23.5t5.5 29.5t1.5 43q0 38 5 66t16 49t28.5 36t42.5 27q-11 6 -17.5 12t-11.5 15.5t-8.5 24t-7.5 37.5q-4 19 -8 31
t-11 19t-18 10.5t-29 5.5v127q49 -6 80 -14t49.5 -23.5t27.5 -41.5t14 -68q2 -23 5.5 -37t10.5 -21.5t18.5 -9.5t31.5 -2v218h124v-218q18 2 29 5.5t18 12.5t11 24t8 40q7 40 16.5 65.5t28 40t48.5 21t78 9.5v-128z" />
    <glyph glyph-name="afii10073" unicode="&#x437;" 
d="M192 433l68 -29q36 53 82.5 77.5t111.5 24.5q110 0 173.5 -47t63.5 -128q0 -36 -14 -62.5t-49 -53.5q21 -17 35 -31t22.5 -29t11.5 -31t3 -35q0 -86 -59.5 -134.5t-171.5 -48.5q-78 0 -142.5 31t-98.5 86q-6 8 -10 17t-8 20t-8.5 26.5t-9.5 36.5h138q22 -55 55.5 -77.5
t87.5 -22.5q90 0 90 71q0 30 -19 47.5t-54 17.5h-101l-1 112h85q41 0 59.5 13t18.5 39q0 71 -98 71q-40 0 -75 -14.5t-55 -40.5q-7 -9 -10.5 -18t-8.5 -26h-112v138z" />
    <glyph glyph-name="afii10074" unicode="&#x438;" 
d="M697 -94h-123v345l-2 1l-223 -346h-134v580h124v-360l2 -1l228 361h128v-580z" />
    <glyph glyph-name="afii10075" unicode="&#x439;" 
d="M633 649q-19 -171 -177 -171q-79 0 -122 41.5t-55 129.5h114q4 -35 19 -48.5t47 -13.5t46.5 13.5t16.5 48.5h111zM213 -96v567h123v-353l3 -1l227 354h130v-567h-125v337l-2 1l-223 -338h-133z" />
    <glyph glyph-name="afii10076" unicode="&#x43a;" 
d="M235 -93v579l129 1v-216h52q19 0 32 3.5t22 12.5t15.5 24t12.5 38q11 39 24 65.5t30 42.5t39 23t52 7h59v-136h-41q-24 1 -35.5 -11t-18.5 -41q-5 -20 -9.5 -34t-10.5 -24.5t-13.5 -19t-18.5 -17.5l164 -297h-141l-111 199q-11 21 -21.5 27.5t-27.5 6.5h-54v-233h-129z
" />
    <glyph glyph-name="afii10077" unicode="&#x43b;" 
d="M684 -93h-127v457h-177v-88.5t-1 -53t-2 -36t-4 -37.5q-7 -49 -18 -86t-28.5 -66.5t-42.5 -53t-60 -46.5l-63 117q23 11 34.5 21.5t19.5 24.5q9 15 16.5 39t12.5 54t7.5 63.5t2.5 68.5l-1 79h-48v123h529v-123h-50v-457z" />
    <glyph glyph-name="afii10078" unicode="&#x43c;" 
d="M457 75l148 412h129l42 -582h-125l-23 333h-2l-107 -333h-116l-135 362l-16 -362h-123l25 582h145z" />
    <glyph glyph-name="afii10079" unicode="&#x43d;" 
d="M213 487h126v-208h233v208h124v-581h-124v245h-233v-245h-126v581z" />
    <glyph glyph-name="afii10080" unicode="&#x43e;" 
d="M299 439q13 12 31.5 22t39.5 17.5t42.5 12t41.5 4.5q57 0 105 -21.5t82 -60t53 -92.5t19 -118q0 -63 -19.5 -117t-54 -94.5t-80.5 -63.5t-100 -23t-101 23.5t-82 64t-55.5 94.5t-20.5 116q0 68 26 131.5t73 104.5zM584 204q0 79 -33.5 124.5t-95.5 45.5q-57 0 -90.5 -46
t-33.5 -124q0 -80 33 -127t90 -47q63 0 96.5 46.5t33.5 127.5z" />
    <glyph glyph-name="afii10081" unicode="&#x43f;" 
d="M717 487v-121h-41v-460h-126v460h-184v-460h-126v460h-41v121h518z" />
    <glyph glyph-name="afii10082" unicode="&#x440;" 
d="M226 -224v722h128v-61q26 30 63 45.5t77 15.5q44 0 83 -19t65 -52q28 -31 43.5 -86t15.5 -120q0 -60 -10.5 -102.5t-33.5 -76.5q-29 -47 -74 -72t-97 -25q-37 0 -68.5 12.5t-63.5 38.5v-220h-128zM570 220q0 76 -27.5 119t-77.5 43q-51 0 -80.5 -45.5t-29.5 -118.5
q0 -75 27 -114.5t80 -39.5q49 0 78.5 42.5t29.5 113.5z" />
    <glyph glyph-name="afii10083" unicode="&#x441;" 
d="M579 310q-15 72 -113 72q-68 0 -105 -47t-37 -131q0 -81 36.5 -129t98.5 -48q48 0 77.5 24t38.5 68h122q-6 -51 -25 -92t-50 -70t-71.5 -44.5t-88.5 -15.5q-60 0 -110 22.5t-86 63.5t-56 97t-20 124t20.5 125t56.5 98t86.5 64t110.5 23q52 0 93.5 -14.5t71.5 -41.5
t47.5 -64.5t20.5 -83.5h-118z" />
    <glyph glyph-name="afii10084" unicode="&#x442;" 
d="M394 -96v460h-181v125h490v-125h-182v-460h-127z" />
    <glyph glyph-name="afii10085" unicode="&#x443;" 
d="M242 -42q17 -5 35 -7t35 -2q21 0 33.5 9.5t21.5 35.5l27 69l-204 423h143l130 -265l111 265h139l-240 -558q-14 -34 -27 -56t-29 -34.5t-37 -17.5t-49 -5q-15 0 -37.5 3t-51.5 8v132z" />
    <glyph glyph-name="afii10086" unicode="&#x444;" 
d="M519 580v-141q18 16 33 27t29.5 17.5t30 9t34.5 2.5q46 0 85 -22.5t67.5 -62.5t45 -94.5t16.5 -117.5q0 -62 -16 -114.5t-44.5 -91t-67.5 -60.5t-85 -22q-70 0 -129 56v-144h-120v139q-54 -51 -125 -51q-45 0 -83 22t-66 61.5t-43.5 93.5t-15.5 118t16 117t45 91.5t69 60
t89 21.5q34 0 61 -12t53 -36v133h121zM518 86q14 -35 40 -50.5t62 -15.5q56 0 87 47.5t31 132.5q0 86 -32.5 134.5t-91.5 48.5q-32 0 -54 -13t-42 -45v-239zM398 330q-22 29 -44.5 41t-52.5 12q-56 0 -86 -47t-30 -135q0 -84 30 -132t81 -48q35 0 57 13.5t45 48.5v247z" />
    <glyph glyph-name="afii10087" unicode="&#x445;" 
d="M527 207l200 -298h-153l-120 186l-123 -186h-147l201 297l-189 278h153l108 -165l107 165h143z" />
    <glyph glyph-name="afii10088" unicode="&#x446;" 
d="M683 4l81 -136l-112 -62l-60 103h-408v121h46v456h125v-456h202v456h126v-482z" />
    <glyph glyph-name="afii10089" unicode="&#x447;" 
d="M675 -97h-129v186q-32 -17 -66 -25t-82 -8q-91 0 -140 51.5t-49 145.5v235h129v-192q0 -32 4.5 -54t15.5 -35.5t29 -19t45 -5.5q26 0 52.5 8t41.5 20q11 13 15.5 28.5t4.5 45.5v204h129v-585z" />
    <glyph glyph-name="afii10090" unicode="&#x448;" 
d="M781 -98h-654v127h38v460h130v-460h96v460h133v-460h94v460h131v-460h32v-127z" />
    <glyph glyph-name="afii10091" unicode="&#x449;" 
d="M753 -16l71 -118l-112 -61l-57 102h-533v127h47v457h130v-457h96v457h130v-457h96v457h132v-507z" />
    <glyph glyph-name="afii10092" unicode="&#x44a;" 
d="M399 299h144q43 0 78.5 -14.5t61 -40t40 -62t14.5 -79.5t-14.5 -79t-40.5 -62.5t-61.5 -41t-78.5 -14.5h-268v459h-110v122h235v-188zM399 27h132q38 0 60.5 20.5t22.5 52.5q0 38 -23 59.5t-65 21.5h-127v-154z" />
    <glyph glyph-name="afii10093" unicode="&#x44b;" 
d="M633 -94v581h125v-581h-125zM159 -94v581h125v-183h106q42 0 76.5 -14t59.5 -39.5t39 -61t14 -77.5q0 -44 -14 -82t-39.5 -65.5t-60 -43t-76.5 -15.5h-230zM284 27h85q41 0 63 21.5t22 59.5q0 78 -91 78h-79v-159z" />
    <glyph glyph-name="afii10094" unicode="&#x44c;" 
d="M246 486h124v-185h144q43 0 79 -14t61.5 -39.5t39.5 -61.5t14 -79q0 -44 -14.5 -81t-41 -64t-62 -42t-77.5 -15h-267v581zM370 26h121q44 0 69 21.5t25 56.5q0 78 -99 78h-116v-156z" />
    <glyph glyph-name="afii10095" unicode="&#x44d;" 
d="M227 311q15 53 34.5 86t53.5 60q61 47 138 47q121 0 187.5 -78.5t66.5 -220.5q0 -144 -65.5 -223t-185.5 -79q-107 0 -176 81q-15 17 -27 43.5t-26 72.5h124q18 -43 41.5 -59.5t63.5 -16.5q63 0 91 28t31 93q-16 -5 -26.5 -7.5t-23.5 -2.5q-4 0 -16.5 2.5t-29.5 7.5
q-1 0 -5 2.5t-7 3.5q-7 2 -16 4.5t-17 2.5q-9 0 -20.5 -4.5t-34.5 -20.5l-40 108q33 23 51.5 30.5t36.5 7.5q14 0 30.5 -3t30.5 -8q31 -10 46 -10q11 0 23 3t21 10q-6 56 -37.5 86.5t-80.5 30.5q-39 0 -65 -17.5t-45 -59.5h-126z" />
    <glyph glyph-name="afii10096" unicode="&#x44e;" 
d="M254 272h80q5 37 13.5 60t26.5 50q35 58 86.5 88t118.5 30q54 0 100.5 -23t80 -63.5t53 -96.5t19.5 -122t-19 -121t-52.5 -95t-79.5 -62.5t-100 -22.5q-49 0 -91 18t-74.5 51.5t-55 81t-31.5 106.5h-75v-245h-125v582h125v-216zM703 198q0 39 -9 72t-24.5 56t-38 36
t-49.5 13q-29 0 -52 -13t-39.5 -36.5t-25.5 -56t-9 -71.5t9 -72t25.5 -56.5t39.5 -37t52 -13.5q27 0 49 13t38 37t25 57t9 72z" />
    <glyph glyph-name="afii10097" unicode="&#x44f;" 
d="M686 486v-581h-123v224h-129q-21 0 -35 -6.5t-22 -23.5q-3 -5 -4.5 -10t-3 -14.5t-2.5 -25.5t-2 -42q0 -14 -2 -26t-5 -23.5t-7 -23.5t-10 -27h-153q7 12 11.5 21t7.5 17.5t6 18.5t6 24q5 20 7.5 40t3.5 39q1 24 2 37.5t2.5 22t4 14.5t6.5 15q7 13 18.5 21t33.5 18
q-44 24 -61.5 52.5t-17.5 68.5q0 38 14 69.5t39.5 54t60.5 34.5t78 12h276zM563 365h-121q-41 0 -63.5 -14.5t-22.5 -42.5q0 -29 23.5 -42t68.5 -13h115v112z" />
    <glyph glyph-name="afii10071" unicode="&#x451;" 
d="M476 601q0 31 18 50.5t47 19.5t46.5 -19.5t17.5 -50.5q0 -29 -18 -49t-46 -20q-29 0 -47 20t-18 49zM287 600q0 31 18 50t46 19q29 0 47.5 -19t18.5 -50q0 -28 -18.5 -48t-47.5 -20q-28 0 -46 20t-18 48zM699 152h-365q12 -127 130 -127q55 0 79 18.5t32 63.5h122
q-16 -100 -74.5 -152t-158.5 -52q-57 0 -103.5 20t-79.5 57.5t-51 91t-18 119.5t18 121t50.5 94.5t77.5 61.5t98 22q61 0 113.5 -27t83.5 -78q23 -31 34.5 -79t11.5 -108v-46zM573 272q-12 100 -110 100q-106 0 -121 -100h231z" />
    <glyph glyph-name="afii00208" unicode="&#x2015;" 
d="M810 370v-116h-710v116h710z" />
    <glyph glyph-name="quoteleft" unicode="&#x2018;" horiz-adv-x="310" 
d="M193 675q29 -4 47 -24.5t18 -49.5q0 -14 -6.5 -27t-17.5 -23t-24.5 -16t-28.5 -6q-21 0 -38 9t-28 23.5t-17 33t-6 36.5q0 26 9.5 53.5t26.5 49.5q17 23 42.5 42t48.5 29l32 -33q-25 -12 -44 -30t-25 -30q-7 -13 -7 -24q0 -3 3.5 -7t14.5 -6z" />
    <glyph glyph-name="quoteright" unicode="&#x2019;" horiz-adv-x="310" 
d="M111 619q-29 4 -47 24.5t-18 49.5q0 14 6.5 27t17.5 23t24.5 16t28.5 6q21 0 38 -9t28 -23.5t17 -33t6 -36.5q0 -26 -9.5 -53.5t-26.5 -49.5q-18 -23 -43 -42t-48 -29l-34 33q26 12 45.5 30t25.5 30q7 13 7 23q0 4 -3.5 8t-14.5 6z" />
    <glyph glyph-name="quotedblleft" unicode="&#x201c;" horiz-adv-x="460" 
d="M358 672q29 -4 46 -24.5t17 -49.5q0 -14 -6.5 -27t-17 -23t-24 -16t-28.5 -6q-21 0 -37.5 9t-27.5 23.5t-17 33t-6 36.5q0 26 9 53.5t27 49.5q17 23 42.5 42t48.5 29l32 -33q-25 -12 -44.5 -30t-25.5 -30q-7 -13 -7 -24q0 -3 4 -7t15 -6zM173 672q29 -4 46 -24.5
t17 -49.5q0 -14 -6.5 -27t-17 -23t-24 -16t-28.5 -6q-21 0 -37.5 9t-28 23.5t-17 33t-5.5 36.5q0 26 9 53.5t26 49.5q17 23 42.5 42t48.5 29l33 -33q-26 -12 -45 -30t-25 -30q-8 -14 -8 -24q0 -3 4.5 -7t15.5 -6z" />
    <glyph glyph-name="quotedblright" unicode="&#x201d;" horiz-adv-x="460" 
d="M104 619q-29 4 -46.5 24.5t-17.5 49.5q0 14 6.5 27t17 23t24 16t28.5 6q21 0 38 -9t28 -23.5t17 -33t6 -36.5q0 -26 -9 -53.5t-27 -49.5q-17 -23 -42.5 -42t-48.5 -29l-33 33q26 12 45 30t25 30q7 13 7 23q0 4 -3.5 8t-14.5 6zM289 619q-29 4 -46.5 24.5t-17.5 49.5
q0 14 6.5 27t17.5 23t24.5 16t28.5 6q21 0 37.5 -9t28 -23.5t17 -33t5.5 -36.5q0 -26 -9 -53.5t-27 -49.5q-17 -23 -42 -42t-48 -29l-34 33q26 12 45 30t26 30q7 13 7 23q0 4 -4 8t-15 6z" />
    <glyph glyph-name="dagger" unicode="&#x2020;" 
d="M724 398h-205v-534h-108v534h-206v106h206v229h108v-229h205v-106z" />
    <glyph glyph-name="daggerdbl" unicode="&#x2021;" 
d="M730 507h-209v-49h192v-106h-192v-485h-109v485h-191v106h191v49h-207v107h207v122h109v-122h209v-107z" />
    <glyph glyph-name="twodotenleader" unicode="&#x2025;" 
d="M316 324q0 -35 -22.5 -57.5t-61.5 -22.5q-35 0 -57.5 22.5t-22.5 57.5q0 36 24 58t61 22q35 0 57 -23t22 -57zM765 324q0 -35 -23.5 -57.5t-61.5 -22.5q-35 0 -57 22.5t-22 57.5q0 36 23 58t61 22q35 0 57.5 -23t22.5 -57z" />
    <glyph glyph-name="ellipsis" unicode="&#x2026;" 
d="M235 324q0 -35 -23.5 -57.5t-61.5 -22.5q-35 0 -57.5 22.5t-22.5 57.5q0 36 23.5 58t60.5 22q35 0 58 -23t23 -57zM538 324q0 -35 -23.5 -57.5t-61.5 -22.5q-35 0 -57.5 22.5t-22.5 57.5q0 36 23.5 58t60.5 22q35 0 58 -23t23 -57zM840 324q0 -35 -23.5 -57.5
t-61.5 -22.5q-35 0 -57.5 22.5t-22.5 57.5q0 36 23.5 58t60.5 22q35 0 58 -23t23 -57z" />
    <glyph glyph-name="perthousand" unicode="&#x2030;" 
d="M-12 -80l558 759h103l-558 -759h-103zM323 -55q-25 18 -36 46.5t-10.5 61t12 66.5t31.5 63q21 30 48.5 52.5t57.5 33.5t60 9.5t56 -19.5t37.5 -46.5t11 -60.5t-12 -66t-32.5 -63q-20 -30 -47.5 -52.5t-58 -34t-61 -10t-56.5 19.5zM372 14q11 -7 39 4t61 58q30 45 30.5 75
t-10.5 38q-4 3 -14 3t-23 -6.5t-28.5 -20t-30.5 -36.5q-17 -23 -24.5 -42t-9 -34t1.5 -25t8 -14zM650 -55q-25 18 -36 46t-10.5 60.5t12 66.5t32.5 63t48 51.5t57 34.5t60.5 10.5t56.5 -19.5q25 -18 36.5 -46t10.5 -60.5t-12.5 -66.5t-31.5 -64q-21 -30 -48.5 -52t-58 -33.5
t-61 -10t-55.5 19.5zM699 13q5 -3 15 -2.5t23 7t29 20t33 37.5q15 22 22 41t8.5 34t-2 24.5t-8.5 13.5q-5 3 -14.5 3t-22.5 -6.5t-28.5 -20t-31.5 -36.5t-23.5 -42t-9 -34t1.5 -25t8 -14zM95 342q-26 18 -37.5 46.5t-11 60.5t12 66t32.5 63q20 30 47.5 52.5t57.5 34t60 10
t56 -19.5t37.5 -46t11 -60.5t-12 -66.5t-31.5 -64t-48 -52t-58 -33.5t-60.5 -10t-55.5 19.5zM144 411q4 -4 13.5 -4t23 7t29.5 21t32 38q16 22 23 41t8.5 33.5t-2 24t-8.5 13.5q-5 3 -15 3t-23 -6.5t-28 -20t-31 -36.5t-23 -41.5t-8.5 -33t1.5 -24.5t8 -15z" />
    <glyph glyph-name="minute" unicode="&#x2032;" 
d="M207 736q7 18 26.5 28.5t39.5 -0.5q13 -8 17.5 -19t3 -23t-7.5 -25t-13 -25q-18 -28 -39 -53t-41 -51q-8 -10 -17 -12t-16.5 2.5t-11 13.5t1.5 20z" />
    <glyph glyph-name="second" unicode="&#x2033;" 
d="M259 537q-8 -10 -18.5 -11.5t-18.5 2.5t-12.5 13t0.5 20l70 167q4 11 13 19t20 12t22 3.5t20 -6.5q11 -6 18 -16t9 -21t-0.5 -22t-9.5 -20zM121 556q-7 -10 -17 -11.5t-18 2.5t-12.5 13t-0.5 20l68 167q11 22 35 31.5t44 -3.5q10 -6 16 -15.5t7.5 -20.5t-1.5 -22.5
t-11 -20.5z" />
    <glyph glyph-name="uni203B" unicode="&#x203b;" 
d="M672 319q0 34 24 58t59 24q36 0 61 -22.5t25 -58.5t-24 -58.5t-62 -22.5q-33 0 -58 22.5t-25 57.5zM64 319q0 34 23 58t61 24q35 0 59 -22.5t24 -58.5t-23.5 -58.5t-59.5 -22.5q-37 0 -60.5 22.5t-23.5 57.5zM372 621q0 34 23.5 58t61.5 24q17 0 32.5 -6t27 -17t18.5 -26
t7 -33q0 -34 -23.5 -58t-61.5 -24q-35 0 -60 23.5t-25 58.5zM372 19q0 33 23.5 56.5t61.5 23.5q35 0 60 -22.5t25 -56.5q0 -37 -23.5 -59.5t-61.5 -22.5q-35 0 -60 22.5t-25 58.5zM848 631l-321 -311l321 -311l-70 -69l-321 311l-320 -311l-71 69l321 311l-321 311l71 69
l320 -311l321 311z" />
    <glyph glyph-name="uni2074" unicode="&#x2074;" horiz-adv-x="450" 
d="M334 507h-41v-69h-68v69h-158v52l142 233h84v-223h41v-62zM225 569v125l-71 -125h71z" />
    <glyph glyph-name="uni207F" unicode="&#x207f;" horiz-adv-x="450" 
d="M150 781v-19q21 15 43.5 20.5t48.5 5.5q31 0 53 -12t36.5 -30.5t21.5 -40t7 -40.5v-224h-74v199q0 33 -10 54.5t-47 21.5q-11 0 -24.5 -6.5t-25 -17.5t-19 -25.5t-7.5 -30.5v-195h-80v340h77z" />
    <glyph glyph-name="uni2081" unicode="&#x2081;" horiz-adv-x="450" 
d="M294 -83h-76v251q-16 -14 -34.5 -28.5t-32.5 -27.5v86l84 66h59v-347z" />
    <glyph glyph-name="uni2082" unicode="&#x2082;" horiz-adv-x="450" 
d="M335 -70h-229v67l61 55q12 9 27 23.5t29 31.5t23.5 35.5t9.5 35.5q0 14 -13 24t-34 10q-17 0 -41.5 -13t-43.5 -24l-11 77q23 10 48 18.5t51 8.5q53 0 86 -26.5t33 -75.5q0 -22 -11 -45.5t-27.5 -45.5t-35 -41t-32.5 -32l-21 -19h131v-64z" />
    <glyph glyph-name="uni2083" unicode="&#x2083;" horiz-adv-x="450" 
d="M335 26q0 -30 -13 -50t-33.5 -32.5t-46.5 -17.5t-53 -5q-20 0 -42.5 4.5t-41.5 13.5l5 76q19 -10 42.5 -20t40.5 -10q10 0 22.5 2.5t22.5 7.5t17 13t7 19q0 26 -22.5 37.5t-48.5 11.5h-41v67h39q9 0 19.5 1.5t19.5 5.5t15.5 11t6.5 18q0 20 -14.5 27t-33.5 7
q-23 0 -41.5 -8t-40.5 -20l-2 77q21 9 43.5 13.5t43.5 4.5q56 0 88 -25.5t32 -76.5q0 -21 -10 -39t-25 -31q20 -14 32.5 -35t12.5 -47z" />
    <glyph glyph-name="uni2084" unicode="&#x2084;" horiz-adv-x="450" 
d="M334 -5h-41v-66h-68v66h-158v54l142 234h84v-224h41v-64zM225 59v122l-71 -122h71z" />
    <glyph glyph-name="uni20A9" unicode="&#x20a9;" 
d="M826 366l-79 -398h-177l-74 398h-84l-78 -398h-171l-79 398h-82v86h64l-53 262h145l41 -262h118l47 262h186l48 -262h121l43 262h134l-53 -262h65v-86h-82zM213 366l42 -261h2l46 261h-90zM613 366l48 -261h2l42 261h-92zM480 452l-23 127h-3l-24 -127h50z" />
    <glyph glyph-name="uni2103" unicode="&#x2103;" 
d="M165 731q24 0 45.5 -9.5t38 -25t26 -36.5t9.5 -45t-9.5 -45t-26 -36.5t-38 -25t-45.5 -9.5q-25 0 -47 9.5t-38.5 25t-26 36.5t-9.5 45t9.5 45t26 36.5t38.5 25t47 9.5zM846 134q-8 -42 -30 -86t-58 -79.5t-87.5 -58t-118.5 -22.5q-72 0 -129 26.5t-97.5 74.5t-62 114.5
t-21.5 146.5t21.5 146.5t62 114.5t97.5 74.5t129 26.5q68 0 119.5 -23.5t87.5 -59t57 -76.5t28 -77h-123q-6 21 -18.5 44t-33 42t-49 31t-66.5 12q-44 0 -79.5 -18.5t-60.5 -52t-38.5 -80.5t-13.5 -104t13.5 -104t38.5 -80.5t60.5 -52t79.5 -18.5q36 0 64.5 12.5t49.5 32
t34.5 44.5t19.5 50h124zM165 566q21 0 35.5 14t14.5 35t-14.5 35t-35.5 14q-23 0 -37 -14t-14 -35t14 -35t37 -14z" />
    <glyph glyph-name="uni2109" unicode="&#x2109;" 
d="M165 731q24 0 46 -9t38 -25t25.5 -37t9.5 -45t-9.5 -45t-25.5 -37t-38 -25t-46 -9q-25 0 -46.5 9t-38 25t-26 37t-9.5 45t9.5 45t26 37t38 25t46.5 9zM807 494h-353v-179h309v-110h-309v-288h-117v686h470v-109zM165 566q21 0 35.5 14t14.5 35t-14.5 35t-35.5 14
q-23 0 -37 -14t-14 -35t14 -35t37 -14z" />
    <glyph glyph-name="afii61289" unicode="&#x2113;" 
d="M662 -8q-14 -28 -27.5 -48t-28.5 -34t-31.5 -22.5t-37.5 -14.5q-19 -6 -40 -3.5t-42 12t-41 26.5t-36 41q-20 -10 -47 -17.5t-61 -9.5l-36 95l22.5 2.5t27 4t26 5.5t19.5 6q-32 68 -40 147t-5 166q2 77 17.5 144t41 116.5t60 78.5t75.5 32q43 2 73 -27t47 -80.5t20 -122
t-7 -152.5q-9 -68 -24 -121.5t-34.5 -95.5t-41 -72.5t-43.5 -51.5q14 -20 30 -24.5t30 2.5q14 8 29.5 27t30.5 54zM476 618q-18 -2 -33.5 -27t-28 -64t-20.5 -86.5t-10 -93.5q-1 -36 1.5 -76.5t7 -77.5t10.5 -66.5t13 -42.5q16 18 32 45.5t29 61.5t22.5 73.5t14.5 82.5
q5 47 6 95.5t-2.5 87.5t-13.5 64t-28 24z" />
    <glyph glyph-name="afii61352" unicode="&#x2116;" 
d="M426 -43h-117l-196 517v-517h-94v699h117l196 -517v517h94v-699zM633 433q43 0 77 -19.5t57.5 -52.5t36 -77t12.5 -94t-12.5 -94t-36 -77t-57.5 -52t-77 -19q-42 0 -76 19t-57.5 52t-36 77t-12.5 94t12.5 94t36 77t57.5 52.5t76 19.5zM843 51q26 0 43.5 -19.5t17.5 -44.5
q0 -26 -17.5 -44.5t-43.5 -18.5q-24 0 -41.5 18.5t-17.5 44.5q0 25 17.5 44.5t41.5 19.5zM633 40q23 0 40.5 11.5t29.5 31.5t18 47.5t6 59.5q0 31 -6 58.5t-18 47.5t-29.5 32t-40.5 12q-22 0 -39.5 -12t-30 -32t-19 -47.5t-6.5 -58.5q0 -32 6.5 -59.5t18.5 -47.5t29.5 -31.5
t40.5 -11.5z" />
    <glyph glyph-name="uni2121" unicode="&#x2121;" 
d="M879 -65h-94v663h94v-663zM476 514h-180v-580h-94v580h-179v84h453v-84zM434 121q1 -26 10 -49t24 -40t34 -26.5t40 -9.5q44 0 64.5 19t27.5 40h93q-7 -24 -20.5 -48t-36 -43t-54 -31t-74.5 -12q-44 0 -80.5 18t-63.5 49.5t-42 74t-15 90.5t14 90t40 73.5t63 49.5t83 18
q41 0 78.5 -15.5t65 -48t43.5 -82t15 -117.5h-309zM648 196q-2 22 -9.5 43t-21 36.5t-32.5 25t-44 9.5q-45 0 -72.5 -31.5t-33.5 -82.5h213z" />
    <glyph glyph-name="trademark" unicode="&#x2122;" 
d="M498 508v-236h-69v376h90l96 -251l90 251h97v-376h-70v241l-88 -241h-56zM208 587h-125v61h323v-61h-124v-315h-74v315z" />
    <glyph glyph-name="uni2126" unicode="&#x2126;" 
d="M746 368q0 -60 -15 -111.5t-40 -92t-58 -69t-68 -42.5v-49h141v-91h-198q-19 0 -26.5 11.5t-7.5 30.5v123q0 26 6 39t29 20q28 9 53 28.5t44 49t29.5 68t10.5 86.5q0 55 -14 98.5t-40 74.5t-62 47.5t-81 16.5q-43 0 -79 -17.5t-61.5 -49t-40 -75.5t-14.5 -98
q0 -88 33.5 -144.5t110.5 -88.5q13 -5 19.5 -12.5t9.5 -15.5t3 -15.5v-12.5l-1 -122q0 -16 -7.5 -29t-27.5 -13h-191v91h133v46q-39 14 -72.5 41.5t-58.5 67.5t-39 91.5t-14 113.5q0 70 22 132.5t62 108.5t94.5 73t118.5 27q65 0 119.5 -25.5t94 -70.5t61.5 -107t22 -134z
" />
    <glyph glyph-name="uni212B" unicode="&#x212b;" 
d="M451 781q24 0 46 -9.5t38.5 -25t26 -36.5t9.5 -45t-9.5 -45t-26 -36.5t-38.5 -25t-46 -9.5t-45.5 9.5t-38 25t-26 36.5t-9.5 45t9.5 45t26 36.5t38 25t45.5 9.5zM451 616q23 0 36.5 14t13.5 35t-13.5 35t-36.5 14q-22 0 -36.5 -14t-14.5 -35t14.5 -35t36.5 -14zM302 29
l-56 -136h-116l251 629h135l253 -628h-119l-57 135h-291zM555 124l-106 275l-110 -275h216z" />
    <glyph glyph-name="onethird" unicode="&#x2153;" 
d="M288 329h-88v282h-99v69q47 0 82 19q11 8 20 22.5t9 31.5h76v-424zM782 59q31 -12 52 -39t21 -61q0 -27 -12.5 -51t-35 -42t-53 -28.5t-65.5 -10.5q-36 0 -67 10t-54 28.5t-35.5 45t-11.5 58.5h90q-4 -32 18 -50t59 -18q35 0 56 16.5t24 42.5q1 19 -13 34t-38 22
q-15 4 -31.5 4.5t-33.5 0.5v73q22 0 39 1.5t31 8.5q28 11 31 47q2 17 -14 35t-51 18t-51.5 -18.5t-15.5 -44.5h-87q-2 28 9.5 52.5t32.5 41.5t50 27t62 10q34 0 62 -9.5t48 -26t31 -38t11 -45.5q0 -38 -19 -61.5t-39 -32.5zM741 715l74 -47l-691 -819l-74 51z" />
    <glyph glyph-name="twothirds" unicode="&#x2154;" 
d="M371 326h-327q0 23 3.5 46.5t14.5 46.5t31 45.5t52 44.5l82 53q18 12 35 28.5t19 42.5q1 25 -16 45t-52 20q-36 0 -55.5 -23t-17.5 -55h-89q-1 27 9.5 53.5t31.5 47t51.5 33t69.5 12.5q38 0 67 -11t49 -29t30.5 -42t10.5 -50q0 -25 -8 -44t-21 -33.5t-28 -26t-30 -21.5
l-90 -62q-35 -25 -46 -53h224v-68zM765 58q31 -12 52.5 -39t21.5 -61q0 -27 -12.5 -51t-35 -42t-53 -28.5t-66.5 -10.5q-35 0 -66 10t-54 28.5t-36 45t-11 58.5h89q-2 -32 19.5 -50t57.5 -18q35 0 56 16.5t23 42.5q2 19 -12 34.5t-38 21.5q-14 5 -31.5 5h-31.5v73q21 0 38 2
t30 8q28 13 32 47q2 17 -13.5 35t-52.5 18q-35 0 -52 -18.5t-15 -44.5h-87q-1 28 10.5 52.5t32.5 41.5t49.5 27t61.5 10t61.5 -9.5t48.5 -26t31.5 -38t11.5 -45.5q0 -38 -19.5 -61.5t-39.5 -32.5zM751 715l73 -47l-690 -819l-72 51z" />
    <glyph glyph-name="oneeighth" unicode="&#x215b;" 
d="M286 329h-90v282h-99v69q47 0 83 19q11 8 20 22.5t9 31.5h77v-424zM741 715l74 -47l-691 -819l-74 51zM781 62q34 -17 55 -45.5t21 -61.5q0 -27 -14 -50.5t-38 -41t-56.5 -28t-69.5 -10.5q-36 0 -68.5 10.5t-56.5 28t-38 41t-14 50.5q0 33 21 61t54 45q-26 17 -42.5 41
t-16.5 52q0 25 13 46.5t35 37.5t51 25t62 9q34 0 63.5 -9t51.5 -25t35 -37.5t13 -46.5q0 -28 -17 -52t-44 -40zM679 96q35 0 53.5 15t18.5 38q0 22 -18.5 37.5t-53.5 15.5q-38 0 -54.5 -15.5t-16.5 -37.5q0 -23 16.5 -38t54.5 -15zM679 -105q41 0 63.5 18.5t22.5 44.5
q0 27 -22.5 45.5t-63.5 18.5q-42 0 -63.5 -18.5t-21.5 -45.5q0 -26 21.5 -44.5t63.5 -18.5z" />
    <glyph glyph-name="threeeighths" unicode="&#x215c;" 
d="M310 553q31 -12 53 -39t22 -61q0 -27 -13 -51t-35.5 -42t-53 -28.5t-66.5 -10.5q-35 0 -66 10t-54 28.5t-35.5 45t-11.5 58.5h89q-3 -32 19 -50t58 -18t57 16.5t23 42.5q1 20 -12.5 35t-37.5 21q-15 4 -32 4.5t-32 0.5v74q20 0 37.5 2t31.5 7q12 6 21 18t11 29
q2 18 -14 36t-53 18q-35 0 -51.5 -18.5t-14.5 -44.5h-88q-1 28 10.5 52t32.5 41t49.5 27t61.5 10t61.5 -9.5t48.5 -26t31.5 -38t11.5 -45.5q0 -38 -19.5 -61.5t-39.5 -32.5zM781 62q34 -17 55 -45.5t21 -61.5q0 -27 -14 -50.5t-38 -41t-56.5 -28t-69.5 -10.5
q-36 0 -68.5 10.5t-56.5 28t-38 41t-14 50.5q0 33 21 61t54 45q-26 17 -42.5 41t-16.5 52q0 25 13 46.5t35 37.5t51 25t62 9q34 0 63.5 -9t51.5 -25t35 -37.5t13 -46.5q0 -28 -17 -52t-44 -40zM679 96q35 0 53.5 15t18.5 38q0 22 -18.5 37.5t-53.5 15.5q-38 0 -54.5 -15.5
t-16.5 -37.5q0 -23 16.5 -38t54.5 -15zM679 -105q41 0 63.5 18.5t22.5 44.5q0 27 -22.5 45.5t-63.5 18.5q-42 0 -63.5 -18.5t-21.5 -45.5q0 -26 21.5 -44.5t63.5 -18.5zM741 715l74 -47l-691 -819l-74 51z" />
    <glyph glyph-name="fiveeighths" unicode="&#x215d;" 
d="M260 617q19 -5 38 -15t34.5 -26.5t25.5 -39.5t10 -55q0 -35 -14.5 -63t-38 -47.5t-53.5 -29.5t-60 -10q-37 0 -66.5 12t-51 30.5t-34 42t-14.5 46.5h88q5 -25 25 -41t51 -16q32 0 54 20.5t25 53.5q4 36 -18.5 57.5t-57.5 21.5q-20 0 -37 -6t-27 -17h-93l39 226h262v-73
h-187l-17 -81q23 10 55.5 14t61.5 -4zM783 62q34 -17 55.5 -45.5t21.5 -61.5q0 -27 -14 -50.5t-38.5 -41t-57 -28t-68.5 -10.5q-37 0 -69 10.5t-56 28t-38 41t-14 50.5q0 33 20.5 61t55.5 45q-27 17 -44.5 41t-17.5 52q0 25 13 46.5t35 37.5t52 25t63 9t62.5 -9t51 -25
t34.5 -37.5t13 -46.5q0 -28 -16.5 -52t-43.5 -40zM682 96q35 0 53 15t18 38q0 22 -18 37.5t-53 15.5q-38 0 -54.5 -15.5t-16.5 -37.5q0 -23 16.5 -38t54.5 -15zM682 -105q41 0 63.5 18.5t22.5 44.5q0 27 -22.5 45.5t-63.5 18.5q-42 0 -64 -18.5t-22 -45.5q0 -26 22 -44.5
t64 -18.5zM741 715l74 -47l-691 -819l-74 51z" />
    <glyph glyph-name="seveneighths" unicode="&#x215e;" 
d="M403 742v-77q-17 -15 -44.5 -47.5t-55.5 -86.5q-15 -27 -26 -55.5t-18.5 -55.5t-11 -50.5t-3.5 -40.5h-98q2 30 16 79.5t46 108.5q15 26 31 49t31.5 42t28 33t19.5 22h-238v79h323zM782 62q35 -17 55.5 -45.5t20.5 -61.5q0 -27 -14 -50.5t-38 -41t-56.5 -28t-69.5 -10.5
q-36 0 -68.5 10.5t-56.5 28t-38 41t-14 50.5q0 33 21 61t56 45q-27 17 -44 41t-17 52q0 25 13 46.5t35 37.5t51 25t62 9q34 0 63.5 -9t51.5 -25t35 -37.5t13 -46.5q0 -28 -16.5 -52t-44.5 -40zM680 96q37 0 54.5 15t17.5 38q0 22 -17.5 37.5t-54.5 15.5q-38 0 -54 -15.5
t-16 -37.5q0 -23 16 -38t54 -15zM680 -105q41 0 64.5 18.5t23.5 44.5q0 27 -23.5 45.5t-64.5 18.5q-40 0 -62.5 -18.5t-22.5 -45.5q0 -26 22.5 -44.5t62.5 -18.5zM741 715l74 -47l-691 -819l-74 51z" />
    <glyph glyph-name="uni2160" unicode="&#x2160;" 
d="M517 -72h-120v764h120v-764z" />
    <glyph glyph-name="uni2161" unicode="&#x2161;" 
d="M685 -71h-119v764h119v-764zM349 -71h-119v764h119v-764z" />
    <glyph glyph-name="uni2162" unicode="&#x2162;" 
d="M725 -71h-119v764h119v-764zM517 -71h-119v764h119v-764zM308 -71h-119v764h119v-764z" />
    <glyph glyph-name="uni2163" unicode="&#x2163;" 
d="M817 683l-206 -764h-143l-205 764h132l143 -578l147 578h132zM246 -81h-121v764h121v-764z" />
    <glyph glyph-name="uni2164" unicode="&#x2164;" 
d="M810 693l-273 -764h-144l-273 764h138l207 -607l209 607h136z" />
    <glyph glyph-name="uni2165" unicode="&#x2165;" 
d="M792 -71h-123v764h123v-764zM645 693l-202 -764h-143l-201 764h131l142 -578l140 578h133z" />
    <glyph glyph-name="uni2166" unicode="&#x2166;" 
d="M833 -71h-113v764h113v-764zM679 -71h-112v764h112v-764zM549 693l-176 -764h-145l-178 764h135l116 -571l116 571h132z" />
    <glyph glyph-name="uni2167" unicode="&#x2167;" 
d="M881 -71h-103v763h103v-763zM739 -71h-104v763h104v-763zM595 -71h-103v763h103v-763zM465 692l-145 -763h-139l-146 763h113l101 -572l102 572h114z" />
    <glyph glyph-name="uni2168" unicode="&#x2168;" 
d="M832 -75h-136l-152 270l-151 -270h-135l219 390l-214 380h135l146 -261l148 261h133l-214 -380zM224 -75h-119v770h119v-770z" />
    <glyph glyph-name="uni2169" unicode="&#x2169;" 
d="M787 -75h-136l-187 294l-186 -294h-134l254 400l-235 370h133l168 -265l167 265h137l-238 -370z" />
    <glyph glyph-name="uni2170" unicode="&#x2170;" 
d="M518 571h-120v125h120v-125zM518 -68h-120v555h120v-555z" />
    <glyph glyph-name="uni2171" unicode="&#x2171;" 
d="M683 558h-119v125h119v-125zM352 558h-117v125h117v-125zM683 -81h-119v555h119v-555zM352 -81h-117v555h117v-555z" />
    <glyph glyph-name="uni2172" unicode="&#x2172;" 
d="M735 558h-117v125h117v-125zM519 558h-119v125h119v-125zM302 558h-118v125h118v-125zM735 -81h-117v555h117v-555zM519 -81h-119v555h119v-555zM302 -81h-118v555h118v-555z" />
    <glyph glyph-name="uni2173" unicode="&#x2173;" 
d="M265 558h-121v125h121v-125zM841 473l-199 -547h-150l-197 547h140l133 -392l133 392h140zM265 -81h-121v554h121v-554z" />
    <glyph glyph-name="uni2174" unicode="&#x2174;" 
d="M725 495l-200 -568h-137l-197 568h130l134 -413l140 413h130z" />
    <glyph glyph-name="uni2175" unicode="&#x2175;" 
d="M800 570h-120v125h120v-125zM643 485l-194 -547h-146l-195 547h138l130 -392l129 392h138zM800 -69h-120v554h120v-554z" />
    <glyph glyph-name="uni2176" unicode="&#x2176;" 
d="M839 568h-109v125h109v-125zM687 568h-110v125h110v-125zM552 484l-176 -548h-149l-178 548h135l117 -388l115 388h136zM839 -71h-109v555h109v-555zM687 -71h-110v555h110v-555z" />
    <glyph glyph-name="uni2177" unicode="&#x2177;" 
d="M887 568h-104v125h104v-125zM744 568h-104v125h104v-125zM602 568h-104v125h104v-125zM480 484l-160 -548h-154l-160 548h132l104 -394l103 394h135zM887 -71h-104v555h104v-555zM744 -71h-104v555h104v-555zM602 -71h-104v555h104v-555z" />
    <glyph glyph-name="uni2178" unicode="&#x2178;" 
d="M814 -72h-146l-111 169l-109 -169h-145l185 284l-176 270h144l101 -156l102 156h146l-175 -270zM275 568h-121v125h121v-125zM275 -71h-121v554h121v-554z" />
    <glyph glyph-name="uni2179" unicode="&#x2179;" 
d="M725 -69h-144l-122 181l-125 -181h-143l194 291l-185 277h145l114 -167l112 167h144l-183 -277z" />
    <glyph glyph-name="arrowleft" unicode="&#x2190;" 
d="M318 263l30 -96l-363 136l363 131l-30 -96h586v-75h-586z" />
    <glyph glyph-name="arrowup" unicode="&#x2191;" 
d="M497 468v-621h-79v621l-99 -30l138 352l138 -352z" />
    <glyph glyph-name="arrowright" unicode="&#x2192;" 
d="M571 167l30 95h-587v75h587l-30 97l361 -131z" />
    <glyph glyph-name="arrowdown" unicode="&#x2193;" 
d="M457 -189l-138 352l98 -30v622h79v-621l99 30z" />
    <glyph glyph-name="arrowboth" unicode="&#x2194;" 
d="M621 127l31 135h-391l31 -135l-312 173l312 172l-31 -134h391l-31 134l314 -172z" />
    <glyph glyph-name="arrowupdn" unicode="&#x2195;" 
d="M455 -194l-176 303l138 -30v441l-138 -30l176 303l180 -303l-138 30v-441l138 30z" />
    <glyph glyph-name="uni2196" unicode="&#x2196;" 
d="M852 -135l-659 640l-31 -91l-167 336l346 -161l-95 -31l660 -640z" />
    <glyph glyph-name="uni2197" unicode="&#x2197;" 
d="M755 414l-31 91l-658 -640l-55 53l659 640l-95 31l347 161z" />
    <glyph glyph-name="uni2198" unicode="&#x2198;" 
d="M571 16l93 31l-658 639l55 54l657 -640l32 91l167 -337z" />
    <glyph glyph-name="uni2199" unicode="&#x2199;" 
d="M254 45l92 -29l-346 -162l166 337l34 -93l656 642l55 -54z" />
    <glyph glyph-name="arrowdblright" unicode="&#x21d2;" 
d="M20 168v69h725l69 62l-69 62h-725v69h656l-115 109l53 50l304 -290l-304 -290l-53 50l115 109h-656z" />
    <glyph glyph-name="arrowdblboth" unicode="&#x21d4;" 
d="M235 168l115 -109l-54 -50l-304 290l304 290l54 -50l-115 -109h454l-115 109l55 50l303 -290l-303 -290l-55 50l115 109h-454zM163 237h597l67 62l-67 62h-597l-66 -62z" />
    <glyph glyph-name="universal" unicode="&#x2200;" 
d="M296 513h314l62 177h127l-273 -772h-145l-273 773h126zM569 399h-233l117 -333z" />
    <glyph glyph-name="partialdiff" unicode="&#x2202;" 
d="M308 588q7 15 13 25.5t11 18.5t10 14.5t12 13.5q31 28 66.5 43.5t71.5 15.5q41 0 75 -16t58 -44.5t37.5 -67.5t13.5 -86q0 -38 -8.5 -87t-23.5 -101t-35 -102t-43 -90q-32 -57 -77.5 -88.5t-97.5 -31.5q-41 0 -79 17.5t-61 46.5q-15 19 -22 44.5t-7 56.5q0 58 18 109.5
t48 90t70 61t84 22.5q32 0 57.5 -12.5t53.5 -43.5q5 22 8.5 38.5t5.5 30t3 25t1 24.5q0 45 -20 71.5t-54 26.5q-26 0 -44 -16.5t-39 -60.5zM497 273q0 34 -16.5 57t-41.5 23q-32 0 -69 -45q-23 -29 -33 -59t-10 -67q0 -34 16.5 -54t45.5 -20q41 0 73 53q16 28 25.5 57.5
t9.5 54.5z" />
    <glyph glyph-name="existential" unicode="&#x2203;" 
d="M209 689h512v-771h-502v116h382v203h-363v115h363v220h-392v117z" />
    <glyph glyph-name="gradient" unicode="&#x2207;" 
d="M457 -96l-460 771h920zM121 607l336 -563l336 563h-672z" />
    <glyph glyph-name="element" unicode="&#x2208;" 
d="M829 255h-670q1 -21 15 -49.5t41 -54t68.5 -43t97.5 -17.5h449v-87h-437q-77 0 -138 23t-103.5 62.5t-65 93.5t-22.5 117q0 62 22.5 116t65 94t103.5 63t138 23h437v-87h-449q-56 0 -97.5 -18t-68.5 -43.5t-41 -53.5t-15 -49h670v-90z" />
    <glyph glyph-name="suchthat" unicode="&#x220b;" 
d="M85 255v90h670q-2 21 -15.5 49t-40.5 53.5t-68 43.5t-98 18h-449v87h437q77 0 138 -23t104 -63t65.5 -94t22.5 -116q0 -63 -22.5 -117t-65.5 -93.5t-104 -62.5t-138 -23h-437v87h449q57 0 98 17.5t68 43t40.5 54t15.5 49.5h-670z" />
    <glyph glyph-name="product" unicode="&#x220f;" 
d="M809 660v-117h-150v-600h-113v600h-181v-600h-113v600h-147v117h704z" />
    <glyph glyph-name="summation" unicode="&#x2211;" 
d="M567 353l-282 -265h414l-25 -107h-562l21 93l302 292l-184 242l27 91h510l-17 -108h-385z" />
    <glyph glyph-name="radical" unicode="&#x221a;" 
d="M557 718l-279 -850l-169 420l-52 -56l-34 53l137 140l127 -314l214 676h369v-69h-313z" />
    <glyph glyph-name="proportional" unicode="&#x221d;" 
d="M853 138q-25 -16 -45 -26.5t-38 -17t-35.5 -9t-37.5 -2.5q-39 0 -70.5 10.5t-56.5 26.5t-43 35t-30 36q-13 -17 -31.5 -36t-43 -35t-55.5 -26.5t-69 -10.5q-47 0 -88.5 17t-72.5 46t-49 69t-18 85t18 85t49 69t72.5 46t88.5 17q38 0 69 -10.5t56 -26.5t43.5 -35.5
t30.5 -36.5q12 17 30.5 36.5t43.5 35.5t56.5 26.5t69.5 10.5q39 0 73.5 -12t79.5 -44l-59 -82q-17 12 -29 19t-22.5 11t-20.5 5t-22 1q-34 0 -59 -13.5t-42 -32.5t-27.5 -38t-14.5 -31q4 -12 14.5 -31t27.5 -38t42 -32.5t59 -13.5q22 0 41.5 6.5t51.5 27.5zM440 300
q-6 12 -17 31.5t-28.5 38t-41.5 32t-55 13.5q-26 0 -48.5 -9t-39 -24.5t-26 -36.5t-9.5 -45t9.5 -45t26 -36.5t39 -24.5t48.5 -9q31 0 55 13.5t41.5 32t28.5 38t17 31.5z" />
    <glyph glyph-name="infinity" unicode="&#x221e;" 
d="M638 119q-36 0 -65 10.5t-51.5 26.5t-38.5 33.5t-26 32.5q-9 -15 -25 -32.5t-38.5 -33.5t-51.5 -26.5t-64 -10.5q-41 0 -77 14t-63 38.5t-42.5 57.5t-15.5 71q0 37 15.5 70t42.5 58t63 39t77 14q35 0 63.5 -10.5t51 -26.5t38.5 -33.5t26 -32.5q10 15 26 32.5t38.5 33.5
t51.5 26.5t65 10.5q40 0 75.5 -14t62.5 -39t42.5 -58t15.5 -70q0 -38 -15.5 -71t-42.5 -57.5t-62.5 -38.5t-75.5 -14zM278 404q-24 0 -45 -8t-36 -22t-24 -33t-9 -41t9 -41t24 -33t36 -22t45 -8q27 0 49 12.5t38 30t26 35t14 26.5q-4 9 -14 26.5t-26 35t-38 30t-49 12.5z
M638 196q23 0 43.5 8t36 22.5t24.5 33.5t9 40t-9 40t-24.5 33.5t-36 22.5t-43.5 8q-28 0 -50 -12.5t-38.5 -30t-26.5 -35t-14 -26.5q4 -9 14 -26.5t26.5 -35t38.5 -30t50 -12.5z" />
    <glyph glyph-name="angle" unicode="&#x2220;" 
d="M852 -48h-738q-15 0 -26.5 6t-17 15.5t-4.5 22t11 25.5q4 5 8 9l9 9l635 623l76 -68l-560 -546h607v-96z" />
    <glyph glyph-name="uni2225" unicode="&#x2225;" 
d="M526 -201l-1 994h86v-994h-85zM303 -201v994h84v-994h-84z" />
    <glyph glyph-name="logicaland" unicode="&#x2227;" 
d="M752 -77l-295 587l-295 -587l-85 45l334 666q2 4 6.5 10t10.5 12t13.5 10t15.5 4q18 0 29.5 -13t16.5 -23l334 -666z" />
    <glyph glyph-name="logicalor" unicode="&#x2228;" 
d="M837 634l-334 -666q-5 -10 -16.5 -23t-29.5 -13q-8 0 -15.5 4t-13.5 10t-10.5 12t-6.5 10l-334 666l85 45l295 -587l295 587z" />
    <glyph glyph-name="intersection" unicode="&#x2229;" 
d="M668 -74v449q0 57 -20 97.5t-50.5 67t-66.5 38.5t-68 12h-11q-33 0 -69.5 -12t-66.5 -38t-49.5 -67t-19.5 -98v-449h-105v438q0 76 24 137t66.5 104t100 66t124.5 23q66 0 123.5 -23t100 -66t67 -104t24.5 -137v-438h-104z" />
    <glyph glyph-name="union" unicode="&#x222a;" 
d="M758 236q0 -76 -24.5 -137t-67 -104t-100 -66t-123.5 -23t-123.5 23t-100 66t-67 104t-24.5 137v438h103v-449q0 -57 20 -98t50 -67t66.5 -38t69.5 -12h11q33 0 69 12t66 38t49.5 67t19.5 98v449h106v-438z" />
    <glyph glyph-name="integral" unicode="&#x222b;" 
d="M585 672q0 8 -2 10.5t-8 2.5q-13 0 -23 -8.5t-22 -31.5q-11 -24 -16 -50t-5 -63q0 -21 2 -61t6 -80q2 -46 4 -84t2 -75q0 -58 -5.5 -107t-16.5 -79q-22 -65 -75 -102.5t-122 -37.5q-44 0 -70 20t-26 55q0 23 17.5 38.5t43.5 15.5q27 0 43.5 -16.5t18.5 -45.5
q1 -11 2.5 -13.5t8.5 -2.5q18 0 34.5 14.5t30 39.5t21.5 57.5t8 67.5q0 8 -0.5 21.5t-0.5 21.5q-1 14 -2 29t-3 30l-3 24q-4 51 -6.5 97t-2.5 86q0 73 12.5 130t35.5 89t57 49t74 17q47 0 78 -20t31 -53q0 -26 -18 -43t-45 -17q-26 0 -42 14.5t-16 40.5v20z" />
    <glyph glyph-name="uni222C" unicode="&#x222c;" 
d="M617 260v-25q0 -146 -46 -235q-11 -21 -27 -38t-34.5 -30t-39.5 -20t-40 -7q-29 0 -49 16t-20 41q0 20 15 34t35 14q18 0 29.5 -8t19.5 -28q5 -17 11 -17q7 1 14.5 8t13.5 22q10 23 16.5 49.5t11.5 57.5q2 11 3.5 21t3.5 26q2 14 2.5 21.5t0.5 11.5l-3 108l-4 108
q-1 27 -1.5 47.5t-0.5 34.5v27q0 46 14 87.5t38 73.5t55.5 51t66.5 19q29 0 50.5 -18t21.5 -44q0 -23 -16 -37t-42 -14q-41 0 -58 41q-5 18 -9 18q-1 0 -2.5 -4.5t-5.5 -11.5l-18 -37q-2 -5 -2 -7t-1 -7q-11 -41 -10 -80.5t2 -81.5zM396 252q2 -4 2 -10v-7q0 -148 -47 -234
q-11 -20 -27.5 -37.5t-36 -30t-40.5 -20t-41 -7.5q-27 0 -45.5 16.5t-18.5 39.5q0 20 15 35.5t35 15.5q37 0 48 -39q3 -11 6.5 -14.5t5.5 -3.5q5 0 13.5 8.5t13.5 21.5q9 21 16.5 46.5t12.5 54t7 58t2 56.5l-3 80l-3 163q-1 37 0.5 64.5t5 49.5t10 39.5t15.5 34.5
q24 44 62 71t77 27q29 0 49.5 -18t20.5 -44q0 -23 -15 -37t-38 -14q-20 0 -35.5 11t-22.5 30q-4 8 -5.5 13t-3.5 5q-3 0 -10 -15t-13 -31q-8 -20 -12.5 -43.5t-2.5 -45.5l2 -92q1 -46 1.5 -78.5t1 -54.5t0.5 -35v-19v-9q0 -1 -2 -1z" />
    <glyph glyph-name="uni222E" unicode="&#x222e;" 
d="M704 648q0 -26 -15.5 -40t-41.5 -14q-27 0 -37.5 11t-14 24.5t-5 24.5t-10.5 10q-7 -1 -13 -7t-14 -22q-13 -26 -20.5 -52t-12.5 -68q-2 -10 -2.5 -26t-5.5 -51q115 -35 115 -146q0 -60 -35.5 -98.5t-99.5 -50.5q-2 -31 -4 -54t-5.5 -41t-8.5 -33t-11 -30
q-22 -54 -62 -79.5t-96 -25.5q-44 0 -69 17.5t-25 50.5q0 25 16 41t41 16q51 0 62 -47q2 -17 3.5 -23t7.5 -6q13 0 30.5 19t25.5 52q5 17 8 38l6 42q0 9 1 25t3 43q-55 16 -85.5 52t-30.5 91q0 58 34 95t96 55q5 44 10.5 72.5t13.5 53.5q23 72 65.5 111.5t101.5 39.5
q38 0 61 -18t23 -52zM578 294q0 33 -14 54.5t-55 42.5q-2 -9 -1.5 -17.5t-0.5 -17.5l-7 -83q-2 -31 -2.5 -45t-0.5 -21v-17q81 24 81 104zM425 393q-35 -15 -55.5 -40.5t-20.5 -60.5q0 -32 17.5 -55t49.5 -38q0 34 0.5 58t1.5 45t2.5 42t4.5 49z" />
    <glyph glyph-name="therefore" unicode="&#x2234;" 
d="M181 -3q-17 0 -32.5 7t-27 19t-18.5 27.5t-7 32.5t7 32.5t18.5 27t27 18.5t32.5 7q18 0 34 -7t27.5 -18.5t18.5 -27t7 -32.5t-7 -32.5t-18.5 -27.5t-27.5 -19t-34 -7zM731 -3q-17 0 -32 7t-26.5 19t-18.5 27.5t-7 32.5q0 35 25 60t59 25q18 0 34 -7t27.5 -18.5t18.5 -27
t7 -32.5t-7 -32.5t-18.5 -27.5t-27.5 -19t-34 -7zM455 438q-16 0 -31 7t-27 19t-19 27.5t-7 32.5t7 32.5t19 27t27 18.5t31 7q38 0 63.5 -25t25.5 -60t-25.5 -60.5t-63.5 -25.5z" />
    <glyph glyph-name="uni2235" unicode="&#x2235;" 
d="M733 609q17 0 32.5 -7t27 -19t18.5 -27.5t7 -32.5t-7 -32.5t-18.5 -27t-27 -18.5t-32.5 -7q-18 0 -33.5 7t-27.5 18.5t-18.5 27t-6.5 32.5t6.5 32.5t18.5 27.5t27.5 19t33.5 7zM184 609q16 0 31.5 -7t27 -19t18.5 -27.5t7 -32.5t-7 -32.5t-18.5 -27t-27 -18.5t-31.5 -7
q-37 0 -62.5 25t-25.5 60t25.5 60.5t62.5 25.5zM453 169q35 0 60 -25.5t25 -60.5t-25 -60t-60 -25q-18 0 -33.5 7t-27 18.5t-18.5 27t-7 32.5t7 32.5t18.5 27.5t27 19t33.5 7z" />
    <glyph glyph-name="similar" unicode="&#x223c;" 
d="M243 267q-10 -6 -20.5 -13.5t-21.5 -14.5q-12 -6 -23 -9.5t-25 -1.5q-15 1 -21.5 7.5t-8 15t1.5 18t8 17.5q8 12 28 33t49 41t65 34.5t76 13.5q49 -2 84 -16t59 -28q18 -10 38.5 -20t41.5 -11q24 -2 46 2t39.5 10t30.5 13.5t19 14.5q17 18 36 23t33 -1q11 -5 16.5 -19.5
t-11.5 -40.5q-7 -11 -26 -31t-46.5 -39t-62.5 -32.5t-74 -12.5q-47 2 -79.5 14.5t-58.5 25.5q-8 5 -16.5 9.5t-17.5 9.5q-39 20 -80 15.5t-79 -27.5z" />
    <glyph glyph-name="uni223D" unicode="&#x223d;" 
d="M884 292q-1 -41 -16.5 -77t-44 -64t-68 -44t-88.5 -16q-31 0 -55.5 6t-44 14.5t-33.5 17.5t-24 16l50 89q7 -5 19 -11.5t27 -13.5t31.5 -11.5t33.5 -4.5q35 0 59 15.5t36 39.5t12 51.5t-12.5 52t-37 41t-61.5 18.5q-32 1 -56 -9.5t-43 -30t-34.5 -45t-29.5 -52.5
q-9 -18 -27.5 -49.5t-49.5 -62t-75.5 -51.5t-104.5 -18q-39 2 -77.5 17t-69 42.5t-49 67.5t-17.5 92q1 38 16.5 74.5t43.5 65t67.5 45.5t89.5 17q31 0 55.5 -6t43.5 -14.5t33 -18t24 -16.5l-48 -84q-4 2 -15 8.5t-26.5 13t-33.5 12t-36 5.5q-36 0 -60.5 -16t-37 -40
t-12.5 -52.5t12.5 -53t38 -42t64.5 -19.5q34 -2 62 16t50 45t39.5 58t31.5 55q19 31 41.5 58t50.5 47.5t63 31.5t79 10q39 -1 78 -15.5t70 -42t49.5 -68t16.5 -94.5z" />
    <glyph glyph-name="uni2252" unicode="&#x2252;" 
d="M80 427h754v-93h-754v93zM80 266h754v-93h-754v93zM172 554q0 36 24.5 60.5t62.5 24.5t62 -24.5t24 -60.5q0 -35 -24 -60t-62 -25t-62.5 25t-24.5 60zM571 47q0 35 24.5 60t61.5 25t61.5 -25t24.5 -60t-24.5 -60t-61.5 -25t-61.5 25t-24.5 60z" />
    <glyph glyph-name="notequal" unicode="&#x2260;" 
d="M242 -33l-76 59l109 135h-151v90h223l103 127h-326v90h396l147 180l74 -59l-98 -121h147v-90h-217l-103 -127h320v-90h-392z" />
    <glyph glyph-name="equivalence" unicode="&#x2261;" 
d="M115 412v87h685v-87h-685zM114 256v88h686v-88h-686zM114 101v87h686v-87h-686z" />
    <glyph glyph-name="lessequal" unicode="&#x2264;" 
d="M750 234l-53 -95l-550 274q-6 3 -13 9t-7 11q0 6 6 11t14 9l539 272l48 -97l-368 -194zM771 -18h-643v107h643v-107z" />
    <glyph glyph-name="greaterequal" unicode="&#x2265;" 
d="M147 234l386 200l-369 194l48 97l538 -272q8 -4 14.5 -9t6.5 -11q0 -5 -7 -11t-14 -9l-549 -274zM127 -18v107h643v-107h-643z" />
    <glyph glyph-name="uni226A" unicode="&#x226a;" 
d="M899 -26l-62 -72l-529 360q-8 5 -17 14.5t-9 23.5q0 15 10.5 25t21.5 18l525 356l57 -77l-480 -322zM652 -26l-61 -72l-530 360q-8 5 -17 14.5t-9 23.5q0 15 10.5 25t21.5 18l525 356l57 -77l-479 -322z" />
    <glyph glyph-name="uni226B" unicode="&#x226b;" 
d="M877 300q0 -13 -6.5 -21t-10.5 -11l-16 -11l-523 -355l-62 72l482 326l-479 322l58 77q134 -91 269 -178.5t264 -184.5q9 -7 16.5 -16t7.5 -20zM630 300q0 -13 -6.5 -21t-11.5 -11q-3 -3 -7 -5.5t-8 -5.5l-523 -355l-62 72l482 326l-479 322l58 77q133 -91 268.5 -178.5
t264.5 -184.5q9 -7 16.5 -16t7.5 -20z" />
    <glyph glyph-name="propersubset" unicode="&#x2282;" 
d="M405 -5v-1q-83 0 -148.5 23.5t-111.5 64.5t-70 97t-24 121q0 64 24 120t68.5 97.5t107 65t140.5 23.5h452v-101h-463q-59 0 -100.5 -19.5t-68.5 -49t-39.5 -64.5t-12.5 -67v-10q0 -32 12.5 -67.5t39 -64.5t68.5 -48t101 -19h463v-101h-438z" />
    <glyph glyph-name="propersuperset" unicode="&#x2283;" 
d="M72 -6v101h462q59 0 101 19t68.5 48.5t39 65t12.5 67.5v10q0 32 -12.5 67t-39 64.5t-68.5 48.5t-101 19h-462v102h451q78 0 141 -23.5t107 -65t68 -97.5t24 -120q0 -65 -24 -120.5t-68 -96.5t-107 -64.5t-141 -23.5z" />
    <glyph glyph-name="reflexsubset" unicode="&#x2286;" 
d="M406 113v-1q-91 0 -158 20.5t-110.5 56.5t-65 84.5t-21.5 104.5t21.5 105t64 85t106 57t148.5 21h451v-102h-463q-61 0 -103.5 -14.5t-68.5 -38.5t-38 -53.5t-12 -59.5q0 -31 12 -60.5t38 -52.5t68.5 -37t103.5 -14h463v-101h-436zM51 -46v103h812v-103h-812z" />
    <glyph glyph-name="reflexsuperset" unicode="&#x2287;" 
d="M73 112v101h463q61 0 103 14t68 37.5t38 53t12 60.5q0 30 -12 59.5t-38 53t-68 38t-103 14.5h-463v103h450q85 0 149 -21t106.5 -57t63.5 -85t21 -105t-21 -104t-63.5 -84t-106.5 -56.5t-149 -20.5zM51 -46v103h812v-103h-812z" />
    <glyph glyph-name="uni2299" unicode="&#x2299;" 
d="M897 299q0 -91 -33 -169t-91.5 -135t-138 -89.5t-172.5 -32.5q-95 0 -176.5 32.5t-141.5 90t-94 135.5t-34 168t34.5 167t94.5 134t141.5 89.5t176.5 32.5q92 0 171 -32.5t137.5 -89.5t92 -134t33.5 -167zM824 296q0 75 -29.5 141.5t-80 115.5t-118 77.5t-144.5 28.5
q-73 0 -138.5 -29t-114.5 -78.5t-77.5 -115.5t-28.5 -140t29 -139.5t78.5 -114t116.5 -76.5t143 -28q75 0 141.5 28t116 76.5t78 114t28.5 139.5zM674 300q0 -44 -16.5 -81.5t-45 -65t-68 -43t-85.5 -15.5t-85.5 15.5t-68 42.5t-44.5 64.5t-16 81.5q0 45 16 82t44.5 63.5
t67.5 41.5t86 15q46 0 85.5 -15t68.5 -41.5t45 -63.5t16 -81z" />
    <glyph glyph-name="perpendicular" unicode="&#x22a5;" 
d="M512 58h312v-92h-732v92h310v562h110v-562z" />
    <glyph glyph-name="uni2312" unicode="&#x2312;" 
d="M735 551q-10 42 -36.5 76t-65 57t-86.5 35.5t-101 12.5t-100 -12.5t-85 -35.5t-64 -56.5t-37 -76.5h-85q11 55 44 100.5t82.5 77.5t112 50t132.5 18t133.5 -18t113 -50t83 -77.5t44.5 -100.5h-85z" />
    <glyph glyph-name="uni2460" unicode="&#x2460;" 
d="M824 300q0 83 -28.5 156t-78 127t-116.5 85.5t-144 31.5t-143.5 -31.5t-116 -85.5t-78 -127t-28.5 -156t28.5 -156t78 -127t116 -85.5t143.5 -31.5t144 31.5t116.5 85.5t78 127t28.5 156zM521 -7h-97v422h-122v89q58 0 99 30q14 12 25.5 33t11.5 45h83v-619zM889 300
q0 -96 -34 -181t-92.5 -148.5t-137 -100t-168.5 -36.5q-89 0 -167.5 36.5t-137 100t-92.5 148.5t-34 181t34 181t92.5 148.5t137 100t167.5 36.5q90 0 168.5 -36.5t137 -100t92.5 -148.5t34 -181z" />
    <glyph glyph-name="uni2461" unicode="&#x2461;" 
d="M824 300q0 83 -28.5 156t-78 127t-116.5 85.5t-144 31.5t-143.5 -31.5t-116 -85.5t-78 -127t-28.5 -156t28.5 -156t78 -127t116 -85.5t143.5 -31.5t144 31.5t116.5 85.5t78 127t28.5 156zM655 4h-393q0 33 5 66t19 65t39 64.5t65 65.5l97 77q12 10 23.5 21.5t21 24.5
t15.5 29t7 35q1 42 -21 71.5t-68 29.5q-50 0 -73 -35t-22 -83h-97q-1 39 11 77t37 67t61.5 47t83.5 18q46 0 81 -16t58.5 -42t35.5 -60t12 -71t-10 -65t-25.5 -50t-34.5 -39.5t-37 -32.5l-104 -85q-23 -18 -40.5 -41.5t-24.5 -45.5h278v-92zM889 300q0 -96 -34 -181
t-92.5 -148.5t-137 -100t-168.5 -36.5q-89 0 -167.5 36.5t-137 100t-92.5 148.5t-34 181t34 181t92.5 148.5t137 100t167.5 36.5q90 0 168.5 -36.5t137 -100t92.5 -148.5t34 -181z" />
    <glyph glyph-name="uni2462" unicode="&#x2462;" 
d="M824 300q0 83 -28.5 156t-78 127t-116.5 85.5t-144 31.5t-143.5 -31.5t-116 -85.5t-78 -127t-28.5 -156t28.5 -156t78 -127t116 -85.5t143.5 -31.5t144 31.5t116.5 85.5t78 127t28.5 156zM658 167q0 -41 -15 -75.5t-42 -60.5t-64 -40.5t-81 -14.5q-43 0 -80.5 14.5
t-65 41.5t-42.5 64.5t-13 82.5h98q-2 -45 25 -75.5t77 -30.5q48 0 74 26.5t28 68.5q3 31 -15.5 55t-47.5 33q-20 6 -41 6.5t-38 0.5v97q22 0 44 2.5t39 10.5q19 11 30.5 29.5t13.5 45.5q1 15 -4 30.5t-15.5 28t-27.5 20t-41 7.5q-47 0 -67.5 -29t-18.5 -68h-98
q-1 41 13 75.5t39 59.5t59 39t73 14q41 0 75.5 -14.5t59 -38.5t38.5 -55.5t14 -65.5q0 -29 -7.5 -52t-18.5 -40t-24 -28.5t-24 -17.5q39 -17 65 -57t26 -89zM889 300q0 -96 -34 -181t-92.5 -148.5t-137 -100t-168.5 -36.5q-89 0 -167.5 36.5t-137 100t-92.5 148.5t-34 181
t34 181t92.5 148.5t137 100t167.5 36.5q90 0 168.5 -36.5t137 -100t92.5 -148.5t34 -181z" />
    <glyph glyph-name="uni2463" unicode="&#x2463;" 
d="M824 300q0 83 -28.5 156t-78 127t-116.5 85.5t-144 31.5t-143.5 -31.5t-116 -85.5t-78 -127t-28.5 -156t28.5 -156t78 -127t116 -85.5t143.5 -31.5t144 31.5t116.5 85.5t78 127t28.5 156zM659 80h-76v-93h-98v93h-256v111l257 416h97v-430h76v-97zM485 177v251l-157 -251
h157zM889 300q0 -96 -34 -181t-92.5 -148.5t-137 -100t-168.5 -36.5q-89 0 -167.5 36.5t-137 100t-92.5 148.5t-34 181t34 181t92.5 148.5t137 100t167.5 36.5q90 0 168.5 -36.5t137 -100t92.5 -148.5t34 -181z" />
    <glyph glyph-name="uni2464" unicode="&#x2464;" 
d="M824 300q0 83 -28.5 156t-78 127t-116.5 85.5t-144 31.5t-143.5 -31.5t-116 -85.5t-78 -127t-28.5 -156t28.5 -156t78 -127t116 -85.5t143.5 -31.5t144 31.5t116.5 85.5t78 127t28.5 156zM889 300q0 -96 -34 -181t-92.5 -148.5t-137 -100t-168.5 -36.5q-89 0 -167.5 36.5
t-137 100t-92.5 148.5t-34 181t34 181t92.5 148.5t137 100t167.5 36.5q90 0 168.5 -36.5t137 -100t92.5 -148.5t34 -181zM312 595h315v-100h-234l-21 -129q13 7 31.5 14t41 10t48.5 -0.5t55 -17.5q30 -15 49 -37t30.5 -45.5t16 -45.5t5.5 -37q5 -74 -24.5 -131t-80.5 -83
q-42 -22 -81 -25t-84 13q-7 3 -26.5 13.5t-40.5 31.5t-39 52.5t-22 75.5h98q0 -2 2.5 -14t10.5 -27t24.5 -28.5t44.5 -17.5q29 -4 49 3.5t33.5 20t21.5 28.5t11 28t4.5 29.5t-1.5 36.5t-10.5 37t-22.5 31q-14 13 -34 19.5t-41 5t-40.5 -11t-32.5 -28.5h-103z" />
    <glyph glyph-name="uni2465" unicode="&#x2465;" 
d="M824 300q0 83 -28.5 156t-78 127t-116.5 85.5t-144 31.5t-143.5 -31.5t-116 -85.5t-78 -127t-28.5 -156t28.5 -156t78 -127t116 -85.5t143.5 -31.5t144 31.5t116.5 85.5t78 127t28.5 156zM663 191q0 -45 -14.5 -84t-41 -67.5t-62 -45t-77.5 -16.5q-41 0 -73.5 13
t-57.5 35.5t-43 53t-28 65.5q-10 33 -14.5 75.5t-3.5 87.5t7.5 88t18.5 76q25 72 74 114t124 42q39 0 72 -15t58 -40.5t40.5 -58.5t18.5 -68h-93q-2 16 -9 32t-19 29t-29.5 21t-39.5 8q-24 0 -41 -7t-29 -19t-20 -27.5t-14 -31.5q-12 -32 -14.5 -58t-1.5 -44q19 22 50 38.5
t80 15.5q40 0 73.5 -17t57.5 -46t37.5 -67.5t13.5 -81.5zM566 187q0 54 -29 86.5t-74 32.5q-48 0 -76 -32.5t-28 -86.5q0 -55 28 -87.5t76 -32.5q45 0 74 32.5t29 87.5zM889 300q0 -96 -34 -181t-92.5 -148.5t-137 -100t-168.5 -36.5q-89 0 -167.5 36.5t-137 100
t-92.5 148.5t-34 181t34 181t92.5 148.5t137 100t167.5 36.5q90 0 168.5 -36.5t137 -100t92.5 -148.5t34 -181z" />
    <glyph glyph-name="uni2466" unicode="&#x2466;" 
d="M889 300q0 -96 -34 -181t-92.5 -148.5t-137 -100t-168.5 -36.5q-89 0 -167.5 36.5t-137 100t-92.5 148.5t-34 181t34 181t92.5 148.5t137 100t167.5 36.5q90 0 168.5 -36.5t137 -100t92.5 -148.5t34 -181zM824 300q0 83 -28.5 156t-78 127t-116.5 85.5t-144 31.5
t-143.5 -31.5t-116 -85.5t-78 -127t-28.5 -156t28.5 -156t78 -127t116 -85.5t143.5 -31.5t144 31.5t116.5 85.5t78 127t28.5 156zM653 480q-24 -30 -41.5 -54.5t-32 -50t-29 -55.5t-32.5 -72q-19 -44 -32 -85t-20.5 -76.5t-10 -63t-2.5 -45.5h-111q1 34 10.5 76t23 84.5
t29 80.5t28.5 64q26 50 56 96.5t68 99.5h-297v105h393v-104z" />
    <glyph glyph-name="uni2467" unicode="&#x2467;" 
d="M824 300q0 83 -28.5 156t-78 127t-116.5 85.5t-144 31.5t-143.5 -31.5t-116 -85.5t-78 -127t-28.5 -156t28.5 -156t78 -127t116 -85.5t143.5 -31.5t144 31.5t116.5 85.5t78 127t28.5 156zM672 163q0 -39 -17 -73.5t-46.5 -61t-68.5 -41.5t-83 -15t-83 15t-68 41.5t-46 61
t-17 73.5q0 48 26 89t68 66q-34 24 -54 58.5t-20 76.5q0 36 15.5 67t41.5 54.5t61.5 37t75.5 13.5t76 -13.5t62 -37t41.5 -54.5t15.5 -67q0 -42 -19.5 -76.5t-54.5 -57.5q42 -26 68 -67t26 -89zM457 527q-48 0 -70.5 -23.5t-22.5 -56.5q0 -34 22.5 -56.5t70.5 -22.5t71 22.5
t23 56.5q0 33 -23 56.5t-71 23.5zM569 167q0 41 -29 69t-83 28q-53 0 -82 -28t-29 -69t29 -68t82 -27q54 0 83 27t29 68zM889 300q0 -96 -34 -181t-92.5 -148.5t-137 -100t-168.5 -36.5q-89 0 -167.5 36.5t-137 100t-92.5 148.5t-34 181t34 181t92.5 148.5t137 100
t167.5 36.5q90 0 168.5 -36.5t137 -100t92.5 -148.5t34 -181z" />
    <glyph glyph-name="uni2468" unicode="&#x2468;" 
d="M824 300q0 83 -28.5 156t-78 127t-116.5 85.5t-144 31.5t-143.5 -31.5t-116 -85.5t-78 -127t-28.5 -156t28.5 -156t78 -127t116 -85.5t143.5 -31.5t144 31.5t116.5 85.5t78 127t28.5 156zM659 455q10 -32 14.5 -74.5t4 -87.5t-6.5 -88.5t-18 -76.5q-26 -72 -74 -114
t-122 -42q-39 0 -73 15t-59.5 40.5t-41 58t-17.5 67.5h93q2 -15 9 -31t19 -28.5t29 -20.5t40 -8q46 0 69.5 25t34.5 58q11 32 13 58t1 46q-8 -10 -21 -20.5t-29.5 -18.5t-37 -13t-42.5 -4q-40 1 -74 17t-58 44t-37.5 67t-12.5 85q1 45 16 84t40.5 67.5t61 45t77.5 16.5
q40 0 73 -12.5t58 -35t42.5 -53t28.5 -66.5zM563 410q0 52 -28 83.5t-72 31.5q-45 0 -72.5 -31.5t-27.5 -83.5t27.5 -84t72.5 -32q44 0 72 32t28 84zM889 300q0 -96 -34 -181t-92.5 -148.5t-137 -100t-168.5 -36.5q-89 0 -167.5 36.5t-137 100t-92.5 148.5t-34 181t34 181
t92.5 148.5t137 100t167.5 36.5q90 0 168.5 -36.5t137 -100t92.5 -148.5t34 -181z" />
    <glyph glyph-name="uni2469" unicode="&#x2469;" 
d="M824 300q0 83 -28.5 156t-78 127t-116.5 85.5t-144 31.5t-143.5 -31.5t-116 -85.5t-78 -127t-28.5 -156t28.5 -156t78 -127t116 -85.5t143.5 -31.5t144 31.5t116.5 85.5t78 127t28.5 156zM769 304q0 -69 -12.5 -126.5t-37 -99t-61 -64.5t-84.5 -23q-49 0 -86 23
t-61.5 64.5t-37 99t-12.5 126.5t12.5 126.5t37 98.5t61.5 64t86 23q48 0 84.5 -23t61 -64t37 -98.5t12.5 -126.5zM351 6h-92v407h-115v84q55 0 93 29q14 11 25.5 31t11.5 44h77v-595zM574 522q-25 0 -43.5 -16t-31 -45t-19 -69t-6.5 -88t6.5 -88t19 -69.5t31 -45.5t43.5 -16
q23 0 41 16t30.5 45.5t19 69.5t6.5 88t-6.5 88t-19 69t-30.5 45t-41 16zM889 300q0 -96 -34 -181t-92.5 -148.5t-137 -100t-168.5 -36.5q-89 0 -167.5 36.5t-137 100t-92.5 148.5t-34 181t34 181t92.5 148.5t137 100t167.5 36.5q90 0 168.5 -36.5t137 -100t92.5 -148.5
t34 -181z" />
    <glyph glyph-name="uni246A" unicode="&#x246a;" 
d="M824 300q0 83 -28.5 156t-78.5 127t-117 85.5t-144 31.5t-143.5 -31.5t-115.5 -85.5t-77.5 -127t-28.5 -156t28.5 -156t78 -127t116 -85.5t143.5 -31.5t144 31.5t116.5 85.5t78 127t28.5 156zM651 4h-94v410h-115v84q54 0 94 28q14 12 25.5 32t11.5 44h78v-598zM390 4
h-93v410h-117v84q26 0 50.5 7t42.5 21q15 12 26 32t11 44h80v-598zM889 300q0 -96 -34 -181t-92.5 -148.5t-137 -100t-168.5 -36.5q-89 0 -167.5 36.5t-137 100t-92.5 148.5t-34 181t34 181t92.5 148.5t137 100t167.5 36.5q90 0 168.5 -36.5t137 -100t92.5 -148.5t34 -181z
" />
    <glyph glyph-name="uni246B" unicode="&#x246b;" 
d="M824 300q0 83 -28.5 156t-78 127t-116.5 85.5t-144 31.5t-143.5 -31.5t-116 -85.5t-78 -127t-28.5 -156t28.5 -156t78 -127t116 -85.5t143.5 -31.5t144 31.5t116.5 85.5t78 127t28.5 156zM714 438q0 -35 -10 -62.5t-25 -50t-31 -39t-28 -28.5l-87 -80q-13 -14 -29 -36.5
t-21 -40.5h227v-86h-340q0 75 30.5 135.5t81.5 108.5l81 77q17 16 34.5 41t18.5 60q2 35 -14 61t-54 26q-40 0 -58 -31t-17 -73h-91q-1 37 7.5 72.5t29 63.5t52.5 45t78 17q41 0 72 -15t51.5 -40t31 -57.5t10.5 -67.5zM349 14h-91v407h-111v84q50 0 87 28q14 11 25.5 31
t11.5 44h78v-594zM889 300q0 -96 -34 -181t-92.5 -148.5t-137 -100t-168.5 -36.5q-89 0 -167.5 36.5t-137 100t-92.5 148.5t-34 181t34 181t92.5 148.5t137 100t167.5 36.5q90 0 168.5 -36.5t137 -100t92.5 -148.5t34 -181z" />
    <glyph glyph-name="uni246C" unicode="&#x246c;" 
d="M824 300q0 83 -28.5 156t-78 127t-116.5 85.5t-144 31.5t-143.5 -31.5t-116 -85.5t-78 -127t-28.5 -156t28.5 -156t78 -127t116 -85.5t143.5 -31.5t144 31.5t116.5 85.5t78 127t28.5 156zM754 174q0 -39 -14 -72t-39.5 -57t-60 -37.5t-75.5 -13.5q-42 0 -77.5 14
t-61.5 39t-40.5 60.5t-12.5 79.5l98 1q-3 -43 21 -70.5t72 -27.5q42 0 66.5 24t26.5 61q2 29 -15.5 51t-44.5 31q-18 5 -37 5h-36v96q22 0 41.5 2.5t35.5 10.5q38 22 41 70q1 13 -3.5 27t-14.5 25t-25 18.5t-36 7.5q-44 0 -63.5 -27t-17.5 -62h-94q-1 39 12 72t37 57
t56 37.5t70 13.5t70 -13.5t55 -36.5t36 -53t13 -63q0 -28 -7 -49.5t-17 -38t-22 -27t-22 -16.5q37 -17 61 -54t24 -85zM350 4h-92v407h-115v84q52 0 92 28q14 11 25 31t11 44h79v-594zM889 300q0 -96 -34 -181t-92.5 -148.5t-137 -100t-168.5 -36.5q-89 0 -167.5 36.5
t-137 100t-92.5 148.5t-34 181t34 181t92.5 148.5t137 100t167.5 36.5q90 0 168.5 -36.5t137 -100t92.5 -148.5t34 -181z" />
    <glyph glyph-name="uni246D" unicode="&#x246d;" 
d="M824 300q0 83 -28.5 156t-78 127t-116.5 85.5t-144 31.5t-143.5 -31.5t-116 -85.5t-78 -127t-28.5 -156t28.5 -156t78 -127t116 -85.5t143.5 -31.5t144 31.5t116.5 85.5t78 127t28.5 156zM345 3h-92v407h-113v84q27 0 49 7t42 21q14 11 25 31.5t11 43.5h78v-594zM766 93
h-74v-91h-92v91h-234v106l234 396h92v-410h74v-92zM600 185v240l-139 -240h139zM889 300q0 -96 -34 -181t-92.5 -148.5t-137 -100t-168.5 -36.5q-89 0 -167.5 36.5t-137 100t-92.5 148.5t-34 181t34 181t92.5 148.5t137 100t167.5 36.5q90 0 168.5 -36.5t137 -100
t92.5 -148.5t34 -181z" />
    <glyph glyph-name="uni246E" unicode="&#x246e;" 
d="M824 300q0 83 -28.5 156t-78 127t-116.5 85.5t-144 31.5t-143.5 -31.5t-116 -85.5t-78 -127t-28.5 -156t28.5 -156t78 -127t116 -85.5t143.5 -31.5t144 31.5t116.5 85.5t78 127t28.5 156zM343 -1h-92v407h-110v84q26 0 47.5 7t40.5 21q14 11 25.5 31.5t11.5 43.5h77v-594
zM735 194q0 -48 -16 -86.5t-42.5 -64.5t-59.5 -40t-66 -14q-42 0 -75.5 15.5t-57.5 41t-37.5 56.5t-16.5 63h90q6 -36 30 -58t62 -22q39 0 63.5 29t27.5 79q2 50 -22 82.5t-66 32.5q-53 0 -78 -36h-94l43 318h287v-94h-211l-21 -128q24 16 61 22t68 -3q22 -6 45.5 -19.5
t42.5 -36.5t31 -56.5t12 -80.5zM889 300q0 -96 -34 -181t-92.5 -148.5t-137 -100t-168.5 -36.5q-89 0 -167.5 36.5t-137 100t-92.5 148.5t-34 181t34 181t92.5 148.5t137 100t167.5 36.5q90 0 168.5 -36.5t137 -100t92.5 -148.5t34 -181z" />
    <glyph glyph-name="uni2474" unicode="&#x2474;" 
d="M521 -10h-96v426h-123v89q27 0 52.5 7.5t45.5 22.5q15 12 27 33t12 46h82v-624zM899 300q0 -77 -14 -141t-35 -115.5t-45.5 -90.5t-46.5 -66h-54q66 97 92.5 200.5t26.5 212.5q0 106 -26 212t-93 201h54q22 -28 47 -67.5t46 -90.5t34.5 -115t13.5 -140zM157 -113
q-22 27 -46.5 66t-45.5 90.5t-35 115.5t-14 141q0 76 13.5 140t34.5 115t46 90.5t47 67.5h55q-68 -95 -94 -201t-26 -212q0 -109 27 -212.5t93 -200.5h-55z" />
    <glyph glyph-name="uni2475" unicode="&#x2475;" 
d="M655 -13h-393q0 34 5 66.5t19 65t39 65t65 65.5l97 79q24 20 44.5 46.5t22.5 65.5q2 42 -21 72t-68 30q-50 0 -73 -35t-22 -84h-97q-1 39 11 77t37 67.5t61.5 47.5t84.5 18q46 0 81 -16t58 -42.5t35 -61t12 -71.5q0 -38 -10 -66t-25.5 -50t-34.5 -39.5t-37 -32.5
l-104 -86q-23 -19 -41 -42.5t-25 -46.5h279v-92zM899 300q0 -77 -14 -141t-35 -115.5t-45.5 -90.5t-46.5 -66h-54q66 97 92.5 200.5t26.5 212.5q0 106 -26 212t-93 201h54q22 -28 47 -67.5t46 -90.5t34.5 -115t13.5 -140zM157 -113q-22 27 -46.5 66t-45.5 90.5t-35 115.5
t-14 141q0 76 13.5 140t34.5 115t46 90.5t47 67.5h55q-68 -95 -94 -201t-26 -212q0 -109 27 -212.5t93 -200.5h-55z" />
    <glyph glyph-name="uni2476" unicode="&#x2476;" 
d="M658 164q0 -41 -15 -76t-42 -61t-64 -40.5t-81 -14.5q-43 0 -80.5 15t-65 42t-42.5 64.5t-13 82.5h97q-2 -46 25.5 -76.5t77.5 -30.5q48 0 74.5 27t28.5 69q2 32 -16.5 56.5t-47.5 33.5q-20 6 -41 6h-39v97q23 0 45 3t39 11q19 11 30.5 30t13.5 48q1 15 -4 30.5
t-15.5 27.5t-27.5 20t-41 8q-47 0 -68 -29.5t-19 -68.5h-97q-2 42 12 76.5t39.5 59.5t59.5 39t73 14q41 0 75 -14.5t59 -38.5t38.5 -55.5t13.5 -65.5q0 -30 -7.5 -53.5t-18.5 -41t-24 -29t-24 -17.5q39 -18 65.5 -57.5t26.5 -90.5zM899 300q0 -77 -14 -141t-35 -115.5
t-45.5 -90.5t-46.5 -66h-54q66 97 92.5 200.5t26.5 212.5q0 106 -26 212t-93 201h54q22 -28 47 -67.5t46 -90.5t34.5 -115t13.5 -140zM157 -113q-22 27 -46.5 66t-45.5 90.5t-35 115.5t-14 141q0 76 13.5 140t34.5 115t46 90.5t47 67.5h55q-68 -95 -94 -201t-26 -212
q0 -109 27 -212.5t93 -200.5h-55z" />
    <glyph glyph-name="uni2477" unicode="&#x2477;" 
d="M675 80h-77v-94h-97v94h-257v111l259 420h95v-435h77v-96zM501 176v258l-159 -258h159zM899 300q0 -77 -14 -141t-35 -115.5t-45.5 -90.5t-46.5 -66h-54q66 97 92.5 200.5t26.5 212.5q0 106 -26 212t-93 201h54q22 -28 47 -67.5t46 -90.5t34.5 -115t13.5 -140zM157 -113
q-22 27 -46.5 66t-45.5 90.5t-35 115.5t-14 141q0 76 13.5 140t34.5 115t46 90.5t47 67.5h55q-68 -95 -94 -201t-26 -212q0 -109 27 -212.5t93 -200.5h-55z" />
    <glyph glyph-name="uni2478" unicode="&#x2478;" 
d="M656 194q0 -51 -17.5 -92t-45.5 -69t-64 -43t-72 -15q-44 0 -80 16.5t-61.5 43t-40 60t-17.5 67.5h96q5 -39 31.5 -64t69.5 -25q42 0 70 32t31 86q2 28 -4.5 51t-20 39.5t-32 26t-40.5 9.5q-30 0 -52.5 -11t-35.5 -29h-101l46 331h316v-100h-234l-21 -132
q26 17 65.5 23.5t73.5 -2.5q23 -6 48 -20t45.5 -38t33.5 -60t13 -85zM899 300q0 -77 -14 -141t-35 -115.5t-45.5 -90.5t-46.5 -66h-54q66 97 92.5 200.5t26.5 212.5q0 106 -26 212t-93 201h54q22 -28 47 -67.5t46 -90.5t34.5 -115t13.5 -140zM157 -113q-22 27 -46.5 66
t-45.5 90.5t-35 115.5t-14 141q0 76 13.5 140t34.5 115t46 90.5t47 67.5h55q-68 -95 -94 -201t-26 -212q0 -109 27 -212.5t93 -200.5h-55z" />
    <glyph glyph-name="uni2479" unicode="&#x2479;" 
d="M666 188q0 -45 -15 -84.5t-41.5 -68t-62.5 -45t-78 -16.5q-41 0 -73.5 13t-57 36t-42.5 54t-28 66q-10 33 -14.5 76t-4 88t7 88.5t18.5 76.5q26 73 75 115t122 42q39 0 73 -15t59 -40.5t40.5 -58.5t18.5 -68h-92q-2 16 -9.5 32.5t-19.5 29.5t-29.5 21t-40.5 8
q-24 0 -41 -7.5t-29 -19.5t-20 -27.5t-14 -31.5q-13 -33 -15 -60t-2 -45q20 22 50.5 39t81.5 16q40 0 73.5 -17t58 -46t38 -68t13.5 -83zM565 188q0 53 -28.5 85t-73.5 32q-44 0 -71.5 -32t-27.5 -85q0 -54 27.5 -85.5t71.5 -31.5q45 0 73.5 31.5t28.5 85.5zM899 300
q0 -77 -14 -141t-35 -115.5t-45.5 -90.5t-46.5 -66h-54q66 97 92.5 200.5t26.5 212.5q0 106 -26 212t-93 201h54q22 -28 47 -67.5t46 -90.5t34.5 -115t13.5 -140zM157 -113q-22 27 -46.5 66t-45.5 90.5t-35 115.5t-14 141q0 76 13.5 140t34.5 115t46 90.5t47 67.5h55
q-68 -95 -94 -201t-26 -212q0 -109 27 -212.5t93 -200.5h-55z" />
    <glyph glyph-name="uni247A" unicode="&#x247a;" 
d="M664 501q-9 -11 -24 -30t-34.5 -51t-42.5 -79t-48 -113q-26 -67 -39 -130.5t-13 -105.5h-112q3 42 21 116t56 161q19 40 40 76.5t40.5 66.5t35.5 52.5t25 33.5h-298v105h394zM899 300q0 -77 -14 -141t-35 -115.5t-45.5 -90.5t-46.5 -66h-54q66 97 92.5 200.5t26.5 212.5
q0 106 -26 212t-93 201h54q22 -28 47 -67.5t46 -90.5t34.5 -115t13.5 -140zM157 -113q-22 27 -46.5 66t-45.5 90.5t-35 115.5t-14 141q0 76 13.5 140t34.5 115t46 90.5t47 67.5h55q-68 -95 -94 -201t-26 -212q0 -109 27 -212.5t93 -200.5h-55z" />
    <glyph glyph-name="uni247B" unicode="&#x247b;" 
d="M672 161q0 -39 -17 -74t-46.5 -61.5t-68.5 -41.5t-83 -15t-83 15t-68 41.5t-46 61.5t-17 74q0 49 26 90.5t68 66.5q-33 24 -53.5 60t-20.5 78q0 36 15.5 67.5t41.5 55t61.5 37t75.5 13.5t76 -13.5t62 -37t41.5 -55t15.5 -67.5q0 -42 -19.5 -78t-54.5 -59q42 -26 68 -67.5
t26 -90.5zM552 449q0 33 -23.5 57t-71.5 24t-71 -24t-23 -57q0 -35 23 -58t71 -23t71.5 23t23.5 58zM571 165q0 42 -30 70.5t-84 28.5q-52 0 -82 -28.5t-30 -70.5q0 -41 30 -68.5t82 -27.5q54 0 84 27.5t30 68.5zM899 300q0 -77 -14 -141t-35 -115.5t-45.5 -90.5t-46.5 -66
h-54q66 97 92.5 200.5t26.5 212.5q0 106 -26 212t-93 201h54q22 -28 47 -67.5t46 -90.5t34.5 -115t13.5 -140zM157 -113q-22 27 -46.5 66t-45.5 90.5t-35 115.5t-14 141q0 76 13.5 140t34.5 115t46 90.5t47 67.5h55q-68 -95 -94 -201t-26 -212q0 -109 27 -212.5t93 -200.5
h-55z" />
    <glyph glyph-name="uni247C" unicode="&#x247c;" 
d="M648 458q10 -32 15 -75t4.5 -88.5t-6.5 -89.5t-18 -77q-26 -73 -74 -115t-123 -42q-39 0 -72.5 15t-59.5 40.5t-41.5 58t-18.5 67.5h92q2 -16 9.5 -32t19.5 -29t30 -21t41 -8t40 7t29 19t20 27.5t14 31.5q13 34 14.5 60.5t1.5 46.5q-8 -10 -21 -20.5t-30 -19t-37 -13.5
t-43 -4q-41 1 -75 17t-58.5 44.5t-37.5 67.5t-13 86q1 45 16.5 84.5t41.5 68.5t61 45.5t77 16.5q41 0 73.5 -13t57.5 -35.5t42.5 -53.5t28.5 -67zM552 413q0 53 -27.5 85t-72.5 32t-73 -32t-28 -85q0 -54 28 -86t73 -32t72.5 32t27.5 86zM899 300q0 -77 -14 -141t-35 -115.5
t-45.5 -90.5t-46.5 -66h-54q66 97 92.5 200.5t26.5 212.5q0 106 -26 212t-93 201h54q22 -28 47 -67.5t46 -90.5t34.5 -115t13.5 -140zM157 -113q-22 27 -46.5 66t-45.5 90.5t-35 115.5t-14 141q0 76 13.5 140t34.5 115t46 90.5t47 67.5h55q-68 -95 -94 -201t-26 -212
q0 -109 27 -212.5t93 -200.5h-55z" />
    <glyph glyph-name="uni247D" unicode="&#x247d;" 
d="M776 302q0 -71 -13 -129.5t-38 -100.5t-62.5 -65.5t-85.5 -23.5t-85 23t-62 65t-38 101t-13 130t13 130t38 101t62 65t85 23t85.5 -23.5t62.5 -65.5t38 -101t13 -129zM577 526q-24 0 -42.5 -16.5t-31 -46.5t-19 -71t-6.5 -90t6.5 -90t19.5 -70.5t31 -46t42 -16.5
t42.5 16.5t31 46t19 70.5t6.5 90t-6.5 90t-19 71t-31 46.5t-42.5 16.5zM354 -1h-94v414h-120v86q58 0 96 30q14 11 26 31.5t12 45.5h80v-607zM899 300q0 -77 -14 -141t-35 -115.5t-45.5 -90.5t-46.5 -66h-54q66 97 92.5 200.5t26.5 212.5q0 106 -26 212t-93 201h54
q22 -28 47 -67.5t46 -90.5t34.5 -115t13.5 -140zM157 -113q-22 27 -46.5 66t-45.5 90.5t-35 115.5t-14 141q0 76 13.5 140t34.5 115t46 90.5t47 67.5h55q-68 -95 -94 -201t-26 -212q0 -109 27 -212.5t93 -200.5h-55z" />
    <glyph glyph-name="uni247E" unicode="&#x247e;" 
d="M667 -1h-94v414h-120v86q57 0 95 30q15 11 26.5 31.5t11.5 45.5h81v-607zM395 -1h-95v414h-119v86q26 0 50.5 7.5t44.5 22.5q15 11 26.5 31.5t11.5 45.5h81v-607zM899 300q0 -77 -14 -141t-35 -115.5t-45.5 -90.5t-46.5 -66h-54q66 97 92.5 200.5t26.5 212.5
q0 106 -26 212t-93 201h54q22 -28 47 -67.5t46 -90.5t34.5 -115t13.5 -140zM157 -113q-22 27 -46.5 66t-45.5 90.5t-35 115.5t-14 141q0 76 13.5 140t34.5 115t46 90.5t47 67.5h55q-68 -95 -94 -201t-26 -212q0 -109 27 -212.5t93 -200.5h-55z" />
    <glyph glyph-name="uni247F" unicode="&#x247f;" 
d="M736 6h-351q0 40 9 75.5t25 67t36.5 58.5t43.5 49l82 78q16 14 34 41.5t19 62.5q2 37 -14.5 64t-52.5 27q-21 0 -36 -8.5t-24 -23.5t-13 -34.5t-3 -41.5h-95q-1 38 8 74t30 64.5t53.5 46t79.5 17.5q43 0 74.5 -15.5t52.5 -41t31.5 -58.5t10.5 -69q0 -35 -10.5 -64
t-25.5 -52t-31.5 -39.5t-28.5 -27.5l-88 -83q-8 -7 -16 -17t-15 -21t-12 -22t-6 -20h233v-87zM352 5h-93v414h-119v86q27 0 51.5 7.5t43.5 21.5q14 11 26 32t12 45h79v-606zM899 300q0 -77 -14 -141t-35 -115.5t-45.5 -90.5t-46.5 -66h-54q66 97 92.5 200.5t26.5 212.5
q0 106 -26 212t-93 201h54q22 -28 47 -67.5t46 -90.5t34.5 -115t13.5 -140zM157 -113q-22 27 -46.5 66t-45.5 90.5t-35 115.5t-14 141q0 76 13.5 140t34.5 115t46 90.5t47 67.5h55q-68 -95 -94 -201t-26 -212q0 -109 27 -212.5t93 -200.5h-55z" />
    <glyph glyph-name="uni2480" unicode="&#x2480;" 
d="M356 -3h-93v414h-120v86q55 0 96 30q15 11 26.5 31.5t11.5 45.5h79v-607zM771 170q0 -39 -14 -73t-39.5 -59t-60 -39t-75.5 -14t-76.5 15t-61.5 41t-39.5 62.5t-10.5 78.5h97q-3 -43 21 -71t69 -28q41 0 65 25t26 64q2 29 -15 52t-43 32q-17 5 -35.5 5h-35.5v98
q21 0 41 2.5t34 10.5q36 20 39 72q1 14 -3.5 28.5t-14 26t-24.5 19t-35 7.5q-40 0 -60 -27.5t-18 -63.5h-95q-2 40 11 73.5t36.5 58t56 38t69.5 13.5q38 0 70 -14t55 -37t36 -54t13 -64q0 -29 -7 -51.5t-17 -39t-22.5 -27.5t-22.5 -17q35 -18 60.5 -56.5t25.5 -86.5z
M899 300q0 -77 -14 -141t-35 -115.5t-45.5 -90.5t-46.5 -66h-54q66 97 92.5 200.5t26.5 212.5q0 106 -26 212t-93 201h54q22 -28 47 -67.5t46 -90.5t34.5 -115t13.5 -140zM157 -113q-22 27 -46.5 66t-45.5 90.5t-35 115.5t-14 141q0 76 13.5 140t34.5 115t46 90.5t47 67.5
h55q-68 -95 -94 -201t-26 -212q0 -109 27 -212.5t93 -200.5h-55z" />
    <glyph glyph-name="uni2481" unicode="&#x2481;" 
d="M778 91h-70v-94h-93v94h-239v107l241 405h91v-419h70v-93zM615 184v244l-144 -244h144zM348 -1h-95v414h-119v86q27 0 51.5 7.5t44.5 22.5q14 11 26 31.5t12 45.5h80v-607zM899 300q0 -77 -14 -141t-35 -115.5t-45.5 -90.5t-46.5 -66h-54q66 97 92.5 200.5t26.5 212.5
q0 106 -26 212t-93 201h54q22 -28 47 -67.5t46 -90.5t34.5 -115t13.5 -140zM157 -113q-22 27 -46.5 66t-45.5 90.5t-35 115.5t-14 141q0 76 13.5 140t34.5 115t46 90.5t47 67.5h55q-68 -95 -94 -201t-26 -212q0 -109 27 -212.5t93 -200.5h-55z" />
    <glyph glyph-name="uni2482" unicode="&#x2482;" 
d="M351 -6h-92v413h-121v87q56 0 96 29q14 11 26 31.5t12 45.5h79v-606zM759 189q0 -50 -16 -89t-42.5 -66t-59.5 -41t-67 -14q-42 0 -75.5 16t-57.5 41.5t-38 57.5t-17 64h94q5 -36 28 -58.5t61 -22.5q37 0 61.5 30t26.5 80q2 25 -4 46.5t-17 37.5t-27.5 24.5t-35.5 8.5
q-56 0 -77 -35h-98l43 328h296v-96h-218l-19 -136q12 8 27.5 13.5t32.5 8.5t35 2.5t34 -5.5q22 -6 45 -19.5t42 -36.5t31 -57t12 -82zM899 300q0 -77 -14 -141t-35 -115.5t-45.5 -90.5t-46.5 -66h-54q66 97 92.5 200.5t26.5 212.5q0 106 -26 212t-93 201h54q22 -28 47 -67.5
t46 -90.5t34.5 -115t13.5 -140zM157 -113q-22 27 -46.5 66t-45.5 90.5t-35 115.5t-14 141q0 76 13.5 140t34.5 115t46 90.5t47 67.5h55q-68 -95 -94 -201t-26 -212q0 -109 27 -212.5t93 -200.5h-55z" />
    <glyph glyph-name="uni249C" unicode="&#x249c;" 
d="M576 64q-11 20 -14 50q-20 -22 -58 -41t-81 -24q-30 -3 -57 2.5t-48.5 19.5t-35.5 36.5t-17 54.5q-4 31 2.5 57.5t21 47t35 35.5t44.5 23q36 12 73 17t63 11q9 2 19 5t19 8.5t14.5 13.5t5.5 21q0 23 -22.5 39t-67.5 16q-43 0 -67.5 -22t-21.5 -57h-96q-3 38 11 69.5
t39.5 54.5t60.5 35.5t75 12.5q39 0 73 -10.5t59.5 -30t40.5 -47.5t15 -62v-258q0 -15 2.5 -28.5t5.5 -24t5.5 -17t2.5 -7.5h-101zM562 283q-8 -6 -20.5 -11t-23.5 -9q-12 -3 -27 -6t-29.5 -6t-28 -6t-22.5 -6q-24 -11 -36.5 -26t-7.5 -38q2 -10 11.5 -15.5t22.5 -7.5t28 -1
t28 5q20 5 39 15t33.5 23t23.5 28.5t9 31.5v29zM899 300q0 -77 -14 -141t-35 -115.5t-45.5 -90.5t-46.5 -66h-54q66 97 92.5 200.5t26.5 212.5q0 106 -26 212t-93 201h54q22 -28 47 -67.5t46 -90.5t34.5 -115t13.5 -140zM157 -113q-22 27 -46.5 66t-45.5 90.5t-35 115.5
t-14 141q0 76 13.5 140t34.5 115t46 90.5t47 67.5h55q-68 -95 -94 -201t-26 -212q0 -109 27 -212.5t93 -200.5h-55z" />
    <glyph glyph-name="uni249D" unicode="&#x249d;" 
d="M683 212q0 -55 -13.5 -101.5t-38.5 -80t-60 -52t-78 -18.5q-39 0 -72 15.5t-58 44.5v-44h-99v645h99v-220q25 29 58 45t72 16q43 0 78 -18.5t60 -52t38.5 -79.5t13.5 -100zM582 212q0 68 -28.5 111.5t-81.5 43.5q-50 0 -79.5 -43.5t-29.5 -111.5q0 -34 7.5 -62.5
t22 -49.5t34.5 -32.5t45 -11.5q53 0 81.5 43.5t28.5 112.5zM899 300q0 -77 -14 -141t-35 -115.5t-45.5 -90.5t-46.5 -66h-54q66 97 92.5 200.5t26.5 212.5q0 106 -26 212t-93 201h54q22 -28 47 -67.5t46 -90.5t34.5 -115t13.5 -140zM157 -113q-22 27 -46.5 66t-45.5 90.5
t-35 115.5t-14 141q0 76 13.5 140t34.5 115t46 90.5t47 67.5h55q-68 -95 -94 -201t-26 -212q0 -109 27 -212.5t93 -200.5h-55z" />
    <glyph glyph-name="uni249E" unicode="&#x249e;" 
d="M666 215q-7 -32 -23.5 -62t-41.5 -53.5t-58.5 -38t-75.5 -14.5q-49 0 -87.5 20t-65.5 54t-41.5 80t-14.5 98q0 51 14.5 97t41.5 80t65.5 54t87.5 20q42 0 76.5 -16t60 -40.5t41 -54t21.5 -57.5h-108q-2 10 -8.5 22.5t-17.5 23t-27 17.5t-37 7q-26 0 -46.5 -12t-34.5 -33
t-21.5 -49t-7.5 -59q0 -32 7.5 -60t21.5 -48.5t34.5 -32.5t46.5 -12q19 0 34 6.5t26.5 16.5t18.5 22t10 24h109zM899 300q0 -77 -14 -141t-35 -115.5t-45.5 -90.5t-46.5 -66h-54q66 97 92.5 200.5t26.5 212.5q0 106 -26 212t-93 201h54q22 -28 47 -67.5t46 -90.5t34.5 -115
t13.5 -140zM157 -113q-22 27 -46.5 66t-45.5 90.5t-35 115.5t-14 141q0 76 13.5 140t34.5 115t46 90.5t47 67.5h55q-68 -95 -94 -201t-26 -212q0 -109 27 -212.5t93 -200.5h-55z" />
    <glyph glyph-name="uni249F" unicode="&#x249f;" 
d="M651 -20h-99v43q-24 -29 -56.5 -44t-71.5 -15q-44 0 -79.5 18.5t-60.5 52t-38.5 79.5t-13.5 101q0 54 13.5 100t38.5 79.5t60.5 52.5t79.5 19q39 0 71.5 -15t56.5 -43v216h99v-644zM552 215q0 69 -27 112.5t-81 43.5t-81 -43.5t-27 -112.5q0 -34 6.5 -62.5t20 -49.5
t34 -32.5t47.5 -11.5t47 11.5t33.5 32.5t20.5 49.5t7 62.5zM899 300q0 -77 -14 -141t-35 -115.5t-45.5 -90.5t-46.5 -66h-54q66 97 92.5 200.5t26.5 212.5q0 106 -26 212t-93 201h54q22 -28 47 -67.5t46 -90.5t34.5 -115t13.5 -140zM157 -113q-22 27 -46.5 66t-45.5 90.5
t-35 115.5t-14 141q0 76 13.5 140t34.5 115t46 90.5t47 67.5h55q-68 -95 -94 -201t-26 -212q0 -109 27 -212.5t93 -200.5h-55z" />
    <glyph glyph-name="uni24A0" unicode="&#x24a0;" 
d="M352 260q1 -18 8.5 -38t21 -37t32.5 -28t43 -11q18 0 32.5 5t24.5 12.5t17 16t10 14.5l110 1q-8 -26 -22.5 -52t-37 -47.5t-55 -35t-76.5 -13.5q-47 0 -86 20t-67 54t-43.5 79.5t-15.5 97.5t15 98.5t42.5 80.5t66 54t85.5 20q42 0 81.5 -18t69 -54.5t46 -91t12.5 -127.5
h-314zM557 351q-3 19 -11 37t-20.5 32t-30 22.5t-38.5 8.5q-43 0 -68 -29t-33 -71h201zM899 300q0 -77 -14 -141t-35 -115.5t-45.5 -90.5t-46.5 -66h-54q66 97 92.5 200.5t26.5 212.5q0 106 -26 212t-93 201h54q22 -28 47 -67.5t46 -90.5t34.5 -115t13.5 -140zM157 -113
q-22 27 -46.5 66t-45.5 90.5t-35 115.5t-14 141q0 76 13.5 140t34.5 115t46 90.5t47 67.5h55q-68 -95 -94 -201t-26 -212q0 -109 27 -212.5t93 -200.5h-55z" />
    <glyph glyph-name="uni24A1" unicode="&#x24a1;" 
d="M561 350h-60v-370h-98v370h-52v92h52v53q0 32 6 52t20 37q13 15 32 24t44 9h56v-92q-16 0 -27 -0.5t-19 -6.5q-9 -8 -11.5 -17t-2.5 -26v-33h60v-92zM899 300q0 -77 -14 -141t-35 -115.5t-45.5 -90.5t-46.5 -66h-54q66 97 92.5 200.5t26.5 212.5q0 106 -26 212t-93 201
h54q22 -28 47 -67.5t46 -90.5t34.5 -115t13.5 -140zM157 -113q-22 27 -46.5 66t-45.5 90.5t-35 115.5t-14 141q0 76 13.5 140t34.5 115t46 90.5t47 67.5h55q-68 -95 -94 -201t-26 -212q0 -109 27 -212.5t93 -200.5h-55z" />
    <glyph glyph-name="uni24A2" unicode="&#x24a2;" 
d="M661 181q0 -57 -19 -95.5t-48.5 -61t-66 -32t-72.5 -9.5q-45 0 -81 13t-61.5 35t-39.5 50.5t-16 59.5h99q2 -27 29.5 -46.5t70.5 -19.5q48 0 77 24t29 75v50q-26 -27 -59 -41.5t-73 -14.5q-42 0 -77 17t-59.5 47.5t-38.5 72.5t-14 91t13.5 90.5t38 72t59.5 47.5t78 17
q40 0 73 -14t59 -40v38h99v-426zM451 529q-50 0 -79 -36.5t-29 -96.5t29 -96.5t79 -36.5q51 0 81 36.5t30 96.5t-30 96.5t-81 36.5zM899 300q0 -77 -14 -141t-35 -115.5t-45.5 -90.5t-46.5 -66h-54q66 97 92.5 200.5t26.5 212.5q0 106 -26 215t-93 205l54 -7
q22 -28 47 -67.5t46 -90.5t34.5 -115t13.5 -140zM157 -113q-22 27 -46.5 66t-45.5 90.5t-35 115.5t-14 141q0 76 13.5 140t34.5 115t46 90.5t47 67.5h55q-68 -95 -94 -201t-26 -212q0 -109 27 -212.5t93 -200.5h-55z" />
    <glyph glyph-name="uni24A3" unicode="&#x24a3;" 
d="M649 -23h-98v275q0 54 -18.5 79.5t-59.5 25.5q-43 0 -69.5 -31.5t-26.5 -84.5v-264h-98v645h98v-217q23 24 58 42.5t86 13.5q33 -3 57 -18.5t40 -38.5t23.5 -50t7.5 -52v-325zM899 300q0 -77 -14 -141t-35 -115.5t-45.5 -90.5t-46.5 -66h-54q66 97 92.5 200.5t26.5 212.5
q0 106 -26 212t-93 201h54q22 -28 47 -67.5t46 -90.5t34.5 -115t13.5 -140zM157 -113q-22 27 -46.5 66t-45.5 90.5t-35 115.5t-14 141q0 76 13.5 140t34.5 115t46 90.5t47 67.5h55q-68 -95 -94 -201t-26 -212q0 -109 27 -212.5t93 -200.5h-55z" />
    <glyph glyph-name="uni24A4" unicode="&#x24a4;" 
d="M508 512h-100v109h100v-109zM508 -24h-100v469h100v-469zM899 300q0 -77 -14 -141t-35 -115.5t-45.5 -90.5t-46.5 -66h-54q66 97 92.5 200.5t26.5 212.5q0 106 -26 212t-93 201h54q22 -28 47 -67.5t46 -90.5t34.5 -115t13.5 -140zM157 -113q-22 27 -46.5 66t-45.5 90.5
t-35 115.5t-14 141q0 76 13.5 140t34.5 115t46 90.5t47 67.5h55q-68 -95 -94 -201t-26 -212q0 -109 27 -212.5t93 -200.5h-55z" />
    <glyph glyph-name="uni24A5" unicode="&#x24a5;" 
d="M521 588h-99v108h99v-108zM521 30q0 -63 -26 -92q-14 -15 -33 -23.5t-45 -8.5h-53v93h27t18 8q9 8 11 17t2 26v457h99v-477zM899 300q0 -77 -14 -141t-35 -115.5t-45.5 -90.5t-46.5 -66h-54q66 97 92.5 200.5t26.5 212.5q0 106 -26 212t-93 201h54q22 -28 47 -67.5
t46 -90.5t34.5 -115t13.5 -140zM157 -113q-22 27 -46.5 66t-45.5 90.5t-35 115.5t-14 141q0 76 13.5 140t34.5 115t46 90.5t47 67.5h55q-68 -95 -94 -201t-26 -212q0 -109 27 -212.5t93 -200.5h-55z" />
    <glyph glyph-name="uni24A6" unicode="&#x24a6;" 
d="M667 -21l-113 1l-149 216l-38 -39v-177h-99v644h99v-335l150 159h123l-167 -178zM899 300q0 -77 -14 -141t-35 -115.5t-45.5 -90.5t-46.5 -66h-54q66 97 92.5 200.5t26.5 212.5q0 106 -26 212t-93 201h54q22 -28 47 -67.5t46 -90.5t34.5 -115t13.5 -140zM157 -113
q-22 27 -46.5 66t-45.5 90.5t-35 115.5t-14 141q0 76 13.5 140t34.5 115t46 90.5t47 67.5h55q-68 -95 -94 -201t-26 -212q0 -109 27 -212.5t93 -200.5h-55z" />
    <glyph glyph-name="uni24A7" unicode="&#x24a7;" 
d="M507 -22h-100v644h100v-644zM899 300q0 -77 -14 -141t-35 -115.5t-45.5 -90.5t-46.5 -66h-54q66 97 92.5 200.5t26.5 212.5q0 106 -26 212t-93 201h54q22 -28 47 -67.5t46 -90.5t34.5 -115t13.5 -140zM157 -113q-22 27 -46.5 66t-45.5 90.5t-35 115.5t-14 141
q0 76 13.5 140t34.5 115t46 90.5t47 67.5h55q-68 -95 -94 -201t-26 -212q0 -109 27 -212.5t93 -200.5h-55z" />
    <glyph glyph-name="uni24A8" unicode="&#x24a8;" 
d="M735 57h-99v284q0 45 -10.5 73t-46.5 27q-72 -3 -72 -110v-274h-99v284q0 45 -11 73t-47 27q-34 -2 -53.5 -29.5t-19.5 -80.5v-274h-98v469h98v-44q7 10 18 20.5t25 19.5t32 15t41 5q33 -1 57.5 -17.5t37.5 -45.5q7 9 17.5 21.5t26 22.5t38.5 15.5t55 2.5q30 -3 50.5 -17
t34 -36t19.5 -49.5t6 -56.5v-325zM899 300q0 -77 -14 -141t-35 -115.5t-45.5 -90.5t-46.5 -66h-54q66 97 92.5 200.5t26.5 212.5q0 106 -26 212t-93 201h54q22 -28 47 -67.5t46 -90.5t34.5 -115t13.5 -140zM157 -113q-22 27 -46.5 66t-45.5 90.5t-35 115.5t-14 141
q0 76 13.5 140t34.5 115t46 90.5t47 67.5h55q-68 -95 -94 -201t-26 -212q0 -109 27 -212.5t93 -200.5h-55z" />
    <glyph glyph-name="uni24A9" unicode="&#x24a9;" 
d="M642 53h-98v274q0 107 -79 107q-44 0 -69.5 -32t-25.5 -85v-264h-100v470h100v-42q21 25 56.5 43.5t86.5 12.5q33 -3 57.5 -19t40.5 -39.5t23.5 -50.5t7.5 -52v-323zM899 300q0 -77 -14 -141t-35 -115.5t-45.5 -90.5t-46.5 -66h-54q66 97 92.5 200.5t26.5 212.5
q0 106 -26 212t-93 201h54q22 -28 47 -67.5t46 -90.5t34.5 -115t13.5 -140zM157 -113q-22 27 -46.5 66t-45.5 90.5t-35 115.5t-14 141q0 76 13.5 140t34.5 115t46 90.5t47 67.5h55q-68 -95 -94 -201t-26 -212q0 -109 27 -212.5t93 -200.5h-55z" />
    <glyph glyph-name="uni24AA" unicode="&#x24aa;" 
d="M667 298q0 -52 -14.5 -97.5t-41.5 -79.5t-65.5 -54t-86.5 -20t-87 20t-66.5 54t-42 79.5t-14.5 97.5t14.5 98t42 80.5t66.5 54.5t87 20t86.5 -20t65.5 -54.5t41.5 -80.5t14.5 -98zM565 298q0 32 -7.5 60t-21 48.5t-33.5 32.5t-44 12q-25 0 -45 -12t-34 -32.5t-21.5 -48.5
t-7.5 -60t7.5 -59.5t21.5 -48.5t34 -33t45 -12q24 0 44 12t33.5 33t21 48.5t7.5 59.5zM899 300q0 -77 -14 -141t-35 -115.5t-45.5 -90.5t-46.5 -66h-54q66 97 92.5 200.5t26.5 212.5q0 106 -26 212t-93 201h54q22 -28 47 -67.5t46 -90.5t34.5 -115t13.5 -140zM157 -113
q-22 27 -46.5 66t-45.5 90.5t-35 115.5t-14 141q0 76 13.5 140t34.5 115t46 90.5t47 67.5h55q-68 -95 -94 -201t-26 -212q0 -109 27 -212.5t93 -200.5h-55z" />
    <glyph glyph-name="uni24AB" unicode="&#x24ab;" 
d="M691 374q0 -55 -14 -101t-39 -79.5t-60 -52.5t-78 -19q-79 0 -130 60v-191h-99v616h99v-42q25 28 57.5 43.5t72.5 15.5q43 0 78 -18.5t60 -51.5t39 -79t14 -101zM589 374q0 33 -7.5 61.5t-21.5 49.5t-34.5 33t-45.5 12t-45.5 -12t-34.5 -33t-22 -49.5t-8 -61.5
q0 -69 29.5 -112.5t80.5 -43.5t80 43.5t29 112.5zM899 300q0 -77 -14 -141t-35 -115.5t-45.5 -90.5t-46.5 -66h-54q66 97 92.5 200.5t26.5 212.5q0 106 -26 212t-93 201h54q22 -28 47 -67.5t46 -90.5t34.5 -115t13.5 -140zM157 -113q-22 27 -46.5 66t-45.5 90.5t-35 115.5
t-14 141q0 76 13.5 140t34.5 115t46 90.5t47 67.5h55q-68 -95 -94 -201t-26 -212q0 -109 27 -212.5t93 -200.5h-55z" />
    <glyph glyph-name="uni24AC" unicode="&#x24ac;" 
d="M641 -8h-99v191q-25 -29 -58 -44.5t-72 -15.5q-43 0 -78.5 18.5t-60.5 52t-38.5 79.5t-13.5 101t13.5 101t38.5 79.5t60.5 52t78.5 18.5q79 0 130 -60v43h99v-616zM542 374q0 69 -29.5 112t-81.5 43q-51 0 -79.5 -43t-28.5 -112q0 -34 7.5 -62.5t21 -49.5t33.5 -32.5
t46 -11.5t46.5 11.5t35 32.5t22 49.5t7.5 62.5zM899 300q0 -77 -14 -141t-35 -115.5t-45.5 -90.5t-46.5 -66h-54q66 97 92.5 200.5t26.5 212.5q0 106 -26 212t-93 201h54q22 -28 47 -67.5t46 -90.5t34.5 -115t13.5 -140zM157 -113q-22 27 -46.5 66t-45.5 90.5t-35 115.5
t-14 141q0 76 13.5 140t34.5 115t46 90.5t47 67.5h55q-68 -95 -94 -201t-26 -212q0 -109 27 -212.5t93 -200.5h-55z" />
    <glyph glyph-name="uni24AD" unicode="&#x24ad;" 
d="M593 441q-21 0 -41 -4t-38 -16q-28 -21 -43 -51.5t-15 -80.5v-225h-97v470h97v-61q14 20 29.5 33.5t39.5 27.5q10 4 21.5 7.5t21.5 5t17 2.5t8 1v-109zM899 300q0 -77 -14 -141t-35 -115.5t-45.5 -90.5t-46.5 -66h-54q66 97 92.5 200.5t26.5 212.5q0 106 -26 212t-93 201
h54q22 -28 47 -67.5t46 -90.5t34.5 -115t13.5 -140zM157 -113q-22 27 -46.5 66t-45.5 90.5t-35 115.5t-14 141q0 76 13.5 140t34.5 115t46 90.5t47 67.5h55q-68 -95 -94 -201t-26 -212q0 -109 27 -212.5t93 -200.5h-55z" />
    <glyph glyph-name="uni24AE" unicode="&#x24ae;" 
d="M640 195q-2 -31 -16.5 -58t-38.5 -47t-55 -31t-65 -11q-54 0 -90.5 18.5t-58.5 44.5t-31.5 54.5t-9.5 50.5h95q2 -28 24.5 -50.5t67.5 -22.5q38 0 57 14.5t21 33.5q2 16 -8 28.5t-27 20.5q-31 14 -69 23t-66 21q-87 37 -81 129q1 24 13 48.5t33 44t51 31.5t69 12
q42 0 74 -13t54 -34.5t33.5 -48.5t10.5 -54h-93q2 20 -17.5 38t-56.5 18q-36 0 -54 -11.5t-20 -31.5t9 -31.5t34 -19.5q26 -8 66.5 -18.5t72.5 -27.5q30 -16 52 -45.5t20 -74.5zM899 300q0 -77 -14 -141t-35 -115.5t-45.5 -90.5t-46.5 -66h-54q66 97 92.5 200.5t26.5 212.5
q0 106 -26 212t-93 201h54q22 -28 47 -67.5t46 -90.5t34.5 -115t13.5 -140zM157 -113q-22 27 -46.5 66t-45.5 90.5t-35 115.5t-14 141q0 76 13.5 140t34.5 115t46 90.5t47 67.5h55q-68 -95 -94 -201t-26 -212q0 -109 27 -212.5t93 -200.5h-55z" />
    <glyph glyph-name="uni24AF" unicode="&#x24af;" 
d="M561 -7h-56q-25 0 -43.5 9t-32.5 25q-26 29 -26 92v250h-52v93h52v143h99v-143h59v-93h-59v-231q0 -17 2 -26t11 -17q8 -7 19 -8t27 -1v-93zM899 300q0 -77 -14 -141t-35 -115.5t-45.5 -90.5t-46.5 -66h-54q66 97 92.5 200.5t26.5 212.5q0 106 -26 212t-93 201h54
q22 -28 47 -67.5t46 -90.5t34.5 -115t13.5 -140zM157 -113q-22 27 -46.5 66t-45.5 90.5t-35 115.5t-14 141q0 76 13.5 140t34.5 115t46 90.5t47 67.5h55q-68 -95 -94 -201t-26 -212q0 -109 27 -212.5t93 -200.5h-55z" />
    <glyph glyph-name="uni24B0" unicode="&#x24b0;" 
d="M642 74h-99v42q-20 -24 -54.5 -43t-78.5 -16q-32 2 -57 15.5t-42.5 36t-26.5 52t-9 62.5v320h99v-275q0 -56 18.5 -81t58.5 -24q43 1 67.5 30.5t24.5 86.5v263h99v-469zM899 300q0 -77 -14 -141t-35 -115.5t-45.5 -90.5t-46.5 -66h-54q66 97 92.5 200.5t26.5 212.5
q0 106 -26 212t-93 201h54q22 -28 47 -67.5t46 -90.5t34.5 -115t13.5 -140zM157 -113q-22 27 -46.5 66t-45.5 90.5t-35 115.5t-14 141q0 76 13.5 140t34.5 115t46 90.5t47 67.5h55q-68 -95 -94 -201t-26 -212q0 -109 27 -212.5t93 -200.5h-55z" />
    <glyph glyph-name="uni24B1" unicode="&#x24b1;" 
d="M674 531l-159 -463h-112l-158 463h107l108 -327l106 327h108zM899 300q0 -77 -14 -141t-35 -115.5t-45.5 -90.5t-46.5 -66h-54q66 97 92.5 200.5t26.5 212.5q0 106 -26 212t-93 201h54q22 -28 47 -67.5t46 -90.5t34.5 -115t13.5 -140zM157 -113q-22 27 -46.5 66
t-45.5 90.5t-35 115.5t-14 141q0 76 13.5 140t34.5 115t46 90.5t47 67.5h55q-68 -95 -94 -201t-26 -212q0 -109 27 -212.5t93 -200.5h-55z" />
    <glyph glyph-name="uni24B2" unicode="&#x24b2;" 
d="M739 527l-112 -462h-106l-64 283l-64 -283h-106l-111 462h98l67 -300l65 300h103l66 -300l66 300h98zM899 300q0 -77 -14 -141t-35 -115.5t-45.5 -90.5t-46.5 -66h-54q66 97 92.5 200.5t26.5 212.5q0 106 -26 212t-93 201h54q22 -28 47 -67.5t46 -90.5t34.5 -115
t13.5 -140zM157 -113q-22 27 -46.5 66t-45.5 90.5t-35 115.5t-14 141q0 76 13.5 140t34.5 115t46 90.5t47 67.5h55q-68 -95 -94 -201t-26 -212q0 -109 27 -212.5t93 -200.5h-55z" />
    <glyph glyph-name="uni24B3" unicode="&#x24b3;" 
d="M668 65h-117l-92 147l-93 -147h-117l152 238l-142 225h114l86 -134l85 134h114l-142 -225zM899 300q0 -77 -14 -141t-35 -115.5t-45.5 -90.5t-46.5 -66h-54q66 97 92.5 200.5t26.5 212.5q0 106 -26 212t-93 201h54q22 -28 47 -67.5t46 -90.5t34.5 -115t13.5 -140z
M157 -113q-22 27 -46.5 66t-45.5 90.5t-35 115.5t-14 141q0 76 13.5 140t34.5 115t46 90.5t47 67.5h55q-68 -95 -94 -201t-26 -212q0 -109 27 -212.5t93 -200.5h-55z" />
    <glyph glyph-name="uni24B4" unicode="&#x24b4;" 
d="M675 619l-192 -551q-8 -29 -24 -46.5t-33 -27.5q-18 -11 -36 -13t-37 -2h-48v93h45q17 0 30 10.5t18 24.5l12 39l-164 473h106l108 -322l108 322h107zM899 300q0 -77 -14 -141t-35 -115.5t-45.5 -90.5t-46.5 -66h-54q66 97 92.5 200.5t26.5 212.5q0 106 -26 212t-93 201
h54q22 -28 47 -67.5t46 -90.5t34.5 -115t13.5 -140zM157 -113q-22 27 -46.5 66t-45.5 90.5t-35 115.5t-14 141q0 76 13.5 140t34.5 115t46 90.5t47 67.5h55q-68 -95 -94 -201t-26 -212q0 -109 27 -212.5t93 -200.5h-55z" />
    <glyph glyph-name="uni24B5" unicode="&#x24b5;" 
d="M648 64h-366v92l225 286h-203v93h329l-1 -92l-226 -286h242v-93zM899 300q0 -77 -14 -141t-35 -115.5t-45.5 -90.5t-46.5 -66h-54q66 97 92.5 200.5t26.5 212.5q0 106 -26 212t-93 201h54q22 -28 47 -67.5t46 -90.5t34.5 -115t13.5 -140zM157 -113q-22 27 -46.5 66
t-45.5 90.5t-35 115.5t-14 141q0 76 13.5 140t34.5 115t46 90.5t47 67.5h55q-68 -95 -94 -201t-26 -212q0 -109 27 -212.5t93 -200.5h-55z" />
    <glyph glyph-name="uni24D0" unicode="&#x24d0;" 
d="M824 300q0 83 -28.5 156t-78 127t-116.5 85.5t-144 31.5t-143.5 -31.5t-116 -85.5t-78 -127t-28.5 -156t28.5 -156t78 -127t116 -85.5t143.5 -31.5t144 31.5t116.5 85.5t78 127t28.5 156zM557 84q-10 19 -13 51q-18 -22 -55.5 -41t-79.5 -23q-29 -3 -54.5 2t-45.5 18
t-33.5 34t-16.5 51q-4 30 2.5 55t20 44.5t32.5 33t42 21.5q36 12 71 16t61 11q9 2 19.5 5t18.5 8t13.5 13t5.5 21q0 23 -22 39t-67 16q-42 0 -66.5 -21.5t-20.5 -53.5h-90q-3 35 10.5 64.5t38 50.5t58 33t71.5 12q37 0 69.5 -10t57 -28.5t38.5 -45t14 -58.5v-246
q0 -28 7 -49t8 -23h-94zM545 296q-6 -7 -19 -12t-26 -9q-12 -3 -26.5 -6t-28.5 -6t-26.5 -6t-20.5 -6q-25 -10 -38 -25.5t-7 -37.5q3 -9 12.5 -15t22.5 -8t27.5 -1t28.5 4q19 5 37 15t32.5 23t23 28t8.5 30v32zM889 300q0 -96 -34 -181t-92.5 -148.5t-137 -100t-168.5 -36.5
q-89 0 -167.5 36.5t-137 100t-92.5 148.5t-34 181t34 181t92.5 148.5t137 100t167.5 36.5q90 0 168.5 -36.5t137 -100t92.5 -148.5t34 -181z" />
    <glyph glyph-name="uni24D1" unicode="&#x24d1;" 
d="M824 300q0 83 -28.5 156t-78 127t-116.5 85.5t-144 31.5t-143.5 -31.5t-116 -85.5t-78 -127t-28.5 -156t28.5 -156t78 -127t116 -85.5t143.5 -31.5t144 31.5t116.5 85.5t78 127t28.5 156zM692 218q0 -52 -13 -96t-37 -75.5t-57.5 -49t-74.5 -17.5q-38 0 -70.5 16
t-55.5 44v-44h-92v611h92v-211q23 29 55.5 44.5t70.5 15.5q41 0 74.5 -18t57.5 -49.5t37 -75t13 -95.5zM491 368q-50 0 -78.5 -41.5t-28.5 -108.5q0 -66 28.5 -108.5t78.5 -42.5t78.5 42.5t28.5 108.5q0 67 -28.5 108.5t-78.5 41.5zM889 300q0 -96 -34 -181t-92.5 -148.5
t-137 -100t-168.5 -36.5q-89 0 -167.5 36.5t-137 100t-92.5 148.5t-34 181t34 181t92.5 148.5t137 100t167.5 36.5q90 0 168.5 -36.5t137 -100t92.5 -148.5t34 -181z" />
    <glyph glyph-name="uni24D2" unicode="&#x24d2;" 
d="M824 300q0 83 -28.5 156t-78 127t-116.5 85.5t-144 31.5t-143.5 -31.5t-116 -85.5t-78 -127t-28.5 -156t28.5 -156t78 -127t116 -85.5t143.5 -31.5t144 31.5t116.5 85.5t78 127t28.5 156zM653 217q-7 -29 -22 -57t-39 -50t-56 -35.5t-72 -13.5q-47 0 -84 18.5t-62.5 51
t-39.5 75.5t-14 92t14 92.5t39.5 75.5t62.5 51t84 19q40 0 73 -15t57 -38t39 -50.5t20 -52.5h-99q-3 9 -9 20.5t-17 21.5t-26.5 17t-36.5 7q-25 0 -45 -11.5t-34.5 -32t-22 -47.5t-7.5 -57t7.5 -57t22 -47t34.5 -31.5t45 -11.5q19 0 34 6t26 16t18 21.5t10 22.5h100z
M889 300q0 -96 -34 -181t-92.5 -148.5t-137 -100t-168.5 -36.5q-89 0 -167.5 36.5t-137 100t-92.5 148.5t-34 181t34 181t92.5 148.5t137 100t167.5 36.5q90 0 168.5 -36.5t137 -100t92.5 -148.5t34 -181z" />
    <glyph glyph-name="uni24D3" unicode="&#x24d3;" 
d="M824 300q0 83 -28.5 156t-78 127t-116.5 85.5t-144 31.5t-143.5 -31.5t-116 -85.5t-78 -127t-28.5 -156t28.5 -156t78 -127t116 -85.5t143.5 -31.5t144 31.5t116.5 85.5t78 127t28.5 156zM624 -3h-91v43q-23 -28 -54.5 -43.5t-71.5 -15.5q-42 0 -75.5 17.5t-57.5 49
t-37 75.5t-13 96t13 95.5t37 75t57.5 49.5t75.5 18q40 0 71.5 -15t54.5 -43v209h91v-611zM426 369q-51 0 -78.5 -41.5t-27.5 -108.5q0 -66 27.5 -108.5t78.5 -42.5q54 0 80.5 42.5t26.5 108.5q0 67 -26.5 108.5t-80.5 41.5zM889 300q0 -96 -34 -181t-92.5 -148.5t-137 -100
t-168.5 -36.5q-89 0 -167.5 36.5t-137 100t-92.5 148.5t-34 181t34 181t92.5 148.5t137 100t167.5 36.5q90 0 168.5 -36.5t137 -100t92.5 -148.5t34 -181z" />
    <glyph glyph-name="uni24D4" unicode="&#x24d4;" 
d="M824 300q0 83 -28.5 156t-78 127t-116.5 85.5t-144 31.5t-143.5 -31.5t-116 -85.5t-78 -127t-28.5 -156t28.5 -156t78 -127t116 -85.5t143.5 -31.5t144 31.5t116.5 85.5t78 127t28.5 156zM356 263q0 -17 7 -37t20.5 -36.5t33 -27.5t43.5 -11q35 0 54 16.5t26 28.5h103
q-7 -23 -20.5 -47t-35.5 -44t-53 -32.5t-73 -12.5q-45 0 -82 19t-63.5 51t-41.5 75.5t-15 92.5t14 92.5t40 76.5t63 52t83 19q40 0 77.5 -17t65.5 -51.5t43.5 -86t11.5 -120.5h-301zM557 347q-3 19 -10.5 36.5t-20 31.5t-29 22.5t-37.5 8.5q-44 0 -69 -28.5t-32 -70.5h198z
M889 300q0 -96 -34 -181t-92.5 -148.5t-137 -100t-168.5 -36.5q-89 0 -167.5 36.5t-137 100t-92.5 148.5t-34 181t34 181t92.5 148.5t137 100t167.5 36.5q90 0 168.5 -36.5t137 -100t92.5 -148.5t34 -181z" />
    <glyph glyph-name="uni24D5" unicode="&#x24d5;" 
d="M824 300q0 83 -28.5 156t-78 127t-116.5 85.5t-144 31.5t-143.5 -31.5t-116 -85.5t-78 -127t-28.5 -156t28.5 -156t78 -127t116 -85.5t143.5 -31.5t144 31.5t116.5 85.5t78 127t28.5 156zM548 344h-56v-354h-92v354h-49v85h49v52q0 30 5.5 48.5t19.5 34.5q12 14 30 23
t42 9h51v-85h-24.5t-17.5 -7q-9 -8 -11.5 -16.5t-2.5 -25.5v-33h56v-85zM889 300q0 -96 -34 -181t-92.5 -148.5t-137 -100t-168.5 -36.5q-89 0 -167.5 36.5t-137 100t-92.5 148.5t-34 181t34 181t92.5 148.5t137 100t167.5 36.5q90 0 168.5 -36.5t137 -100t92.5 -148.5
t34 -181z" />
    <glyph glyph-name="uni24D6" unicode="&#x24d6;" 
d="M824 300q0 83 -28.5 156t-78 127t-116.5 85.5t-144 31.5t-143.5 -31.5t-116 -85.5t-78 -127t-28.5 -156t28.5 -156t78 -127t116 -85.5t143.5 -31.5t144 31.5t116.5 85.5t78 127t28.5 156zM641 181q0 -54 -17.5 -90t-45.5 -57.5t-62.5 -30.5t-68.5 -9q-44 0 -78.5 12.5
t-58.5 33t-38 47t-15 54.5h92q1 -24 28 -43t71 -19q46 0 74 23.5t28 72.5v52q-24 -27 -57 -41.5t-71 -14.5q-41 0 -74 16t-57 45t-37 68t-13 86q0 46 13 85.5t37 68.5t57 45.5t74 16.5q39 0 71.5 -14.5t56.5 -40.5v39h91v-405zM550 386q0 58 -29 93.5t-79 35.5
q-49 0 -77.5 -35.5t-28.5 -93.5q0 -57 28.5 -92.5t77.5 -35.5q50 0 79 35.5t29 92.5zM889 300q0 -96 -34 -181t-92.5 -148.5t-137 -100t-168.5 -36.5q-89 0 -167.5 36.5t-137 100t-92.5 148.5t-34 181t34 181t92.5 148.5t137 100t167.5 36.5q90 0 168.5 -36.5t137 -100
t92.5 -148.5t34 -181z" />
    <glyph glyph-name="uni24D7" unicode="&#x24d7;" 
d="M824 300q0 83 -28.5 156t-78 127t-116.5 85.5t-144 31.5t-143.5 -31.5t-116 -85.5t-78 -127t-28.5 -156t28.5 -156t78 -127t116 -85.5t143.5 -31.5t144 31.5t116.5 85.5t78 127t28.5 156zM634 -7h-91v261q0 103 -77 103q-42 0 -68.5 -31.5t-26.5 -82.5v-250h-91v611h91
v-209q21 24 56.5 42.5t85.5 14.5q31 -3 54 -18.5t38 -37t22 -47t7 -49.5v-307zM889 300q0 -96 -34 -181t-92.5 -148.5t-137 -100t-168.5 -36.5q-89 0 -167.5 36.5t-137 100t-92.5 148.5t-34 181t34 181t92.5 148.5t137 100t167.5 36.5q90 0 168.5 -36.5t137 -100
t92.5 -148.5t34 -181z" />
    <glyph glyph-name="uni24D8" unicode="&#x24d8;" 
d="M824 300q0 83 -28.5 156t-78 127t-116.5 85.5t-144 31.5t-143.5 -31.5t-116 -85.5t-78 -127t-28.5 -156t28.5 -156t78 -127t116 -85.5t143.5 -31.5t144 31.5t116.5 85.5t78 127t28.5 156zM504 502h-92v99h92v-99zM504 -10h-92v445h92v-445zM889 300q0 -96 -34 -181
t-92.5 -148.5t-137 -100t-168.5 -36.5q-89 0 -167.5 36.5t-137 100t-92.5 148.5t-34 181t34 181t92.5 148.5t137 100t167.5 36.5q90 0 168.5 -36.5t137 -100t92.5 -148.5t34 -181z" />
    <glyph glyph-name="uni24D9" unicode="&#x24d9;" 
d="M824 300q0 83 -28.5 156t-78 127t-116.5 85.5t-144 31.5t-143.5 -31.5t-116 -85.5t-78 -127t-28.5 -156t28.5 -156t78 -127t116 -85.5t143.5 -31.5t144 31.5t116.5 85.5t78 127t28.5 156zM518 564h-93v100h93v-100zM518 54q0 -61 -25 -88q-27 -29 -74 -29h-49v84h24.5
t18.5 8t10 17t2 26v424h93v-442zM889 300q0 -96 -34 -181t-92.5 -148.5t-137 -100t-168.5 -36.5q-89 0 -167.5 36.5t-137 100t-92.5 148.5t-34 181t34 181t92.5 148.5t137 100t167.5 36.5q90 0 168.5 -36.5t137 -100t92.5 -148.5t34 -181z" />
    <glyph glyph-name="uni24DA" unicode="&#x24da;" 
d="M824 300q0 83 -28.5 156t-78 127t-116.5 85.5t-144 31.5t-143.5 -31.5t-116 -85.5t-78 -127t-28.5 -156t28.5 -156t78 -127t116 -85.5t143.5 -31.5t144 31.5t116.5 85.5t78 127t28.5 156zM657 -5h-105l-145 209l-37 -41v-168h-91v612h91v-323l147 155h112l-157 -168z
M889 300q0 -96 -34 -181t-92.5 -148.5t-137 -100t-168.5 -36.5q-89 0 -167.5 36.5t-137 100t-92.5 148.5t-34 181t34 181t92.5 148.5t137 100t167.5 36.5q90 0 168.5 -36.5t137 -100t92.5 -148.5t34 -181z" />
    <glyph glyph-name="uni24DB" unicode="&#x24db;" 
d="M824 300q0 83 -28.5 156t-78 127t-116.5 85.5t-144 31.5t-143.5 -31.5t-116 -85.5t-78 -127t-28.5 -156t28.5 -156t78 -127t116 -85.5t143.5 -31.5t144 31.5t116.5 85.5t78 127t28.5 156zM503 -6h-92v612h92v-612zM889 300q0 -96 -34 -181t-92.5 -148.5t-137 -100
t-168.5 -36.5q-89 0 -167.5 36.5t-137 100t-92.5 148.5t-34 181t34 181t92.5 148.5t137 100t167.5 36.5q90 0 168.5 -36.5t137 -100t92.5 -148.5t34 -181z" />
    <glyph glyph-name="uni24DC" unicode="&#x24dc;" 
d="M824 300q0 83 -28.5 156t-78 127t-116.5 85.5t-144 31.5t-143.5 -31.5t-116 -85.5t-78 -127t-28.5 -156t28.5 -156t78 -127t116 -85.5t143.5 -31.5t144 31.5t116.5 85.5t78 127t28.5 156zM725 74h-92v269q0 44 -11 71.5t-46 26.5q-35 -2 -53.5 -29.5t-18.5 -78.5v-259
h-91v269q0 43 -11 71t-48 27q-33 -2 -51.5 -29.5t-18.5 -78.5v-259h-91v444h91v-46q6 9 16 20t23.5 20.5t32 15.5t41.5 5q32 -1 55.5 -17.5t35.5 -45.5q6 9 16 21t25.5 22t37.5 16t53 3q28 -2 48 -15.5t32.5 -34t18.5 -46.5t6 -53v-309zM889 300q0 -96 -34 -181
t-92.5 -148.5t-137 -100t-168.5 -36.5q-89 0 -167.5 36.5t-137 100t-92.5 148.5t-34 181t34 181t92.5 148.5t137 100t167.5 36.5q90 0 168.5 -36.5t137 -100t92.5 -148.5t34 -181z" />
    <glyph glyph-name="uni24DD" unicode="&#x24dd;" 
d="M824 300q0 83 -28.5 156t-78 127t-116.5 85.5t-144 31.5t-143.5 -31.5t-116 -85.5t-78 -127t-28.5 -156t28.5 -156t78 -127t116 -85.5t143.5 -31.5t144 31.5t116.5 85.5t78 127t28.5 156zM635 67h-91v259q0 103 -77 103q-42 0 -68.5 -30.5t-26.5 -82.5v-249h-91v443h91
v-42q21 24 56.5 42.5t85.5 14.5q31 -3 54 -18.5t38 -37.5t22 -47.5t7 -48.5v-306zM889 300q0 -96 -34 -181t-92.5 -148.5t-137 -100t-168.5 -36.5q-89 0 -167.5 36.5t-137 100t-92.5 148.5t-34 181t34 181t92.5 148.5t137 100t167.5 36.5q90 0 168.5 -36.5t137 -100
t92.5 -148.5t34 -181z" />
    <glyph glyph-name="uni24DE" unicode="&#x24de;" 
d="M824 300q0 83 -28.5 156t-78 127t-116.5 85.5t-144 31.5t-143.5 -31.5t-116 -85.5t-78 -127t-28.5 -156t28.5 -156t78 -127t116 -85.5t143.5 -31.5t144 31.5t116.5 85.5t78 127t28.5 156zM657 298q0 -49 -13.5 -92t-39 -75.5t-62.5 -51t-83 -18.5q-47 0 -84 18.5
t-62.5 51t-39.5 75.5t-14 92t14 93t39.5 76t62.5 51t84 19q46 0 83 -19t62.5 -51t39 -76t13.5 -93zM459 445q-24 0 -44 -11.5t-34 -31.5t-21.5 -47t-7.5 -57t7.5 -57t21.5 -47t34 -31.5t44 -11.5t43.5 11.5t33.5 31.5t21.5 47t7.5 57t-7.5 57t-21.5 47t-33.5 31.5
t-43.5 11.5zM889 300q0 -96 -34 -181t-92.5 -148.5t-137 -100t-168.5 -36.5q-89 0 -167.5 36.5t-137 100t-92.5 148.5t-34 181t34 181t92.5 148.5t137 100t167.5 36.5q90 0 168.5 -36.5t137 -100t92.5 -148.5t34 -181z" />
    <glyph glyph-name="uni24DF" unicode="&#x24df;" 
d="M824 300q0 83 -28.5 156t-78 127t-116.5 85.5t-144 31.5t-143.5 -31.5t-116 -85.5t-78 -127t-28.5 -156t28.5 -156t78 -127t116 -85.5t143.5 -31.5t144 31.5t116.5 85.5t78 127t28.5 156zM684 367q0 -52 -13 -95.5t-36.5 -75t-57 -49.5t-74.5 -18q-79 0 -128 60v-185h-90
v584h90v-43q24 28 56.5 44t71.5 16q41 0 74.5 -17.5t57 -49t36.5 -75.5t13 -96zM483 518q-25 0 -45 -11.5t-34 -31.5t-21.5 -47.5t-7.5 -60.5q0 -67 29 -108.5t79 -41.5q51 0 79 41.5t28 108.5q0 33 -7.5 60.5t-21 47.5t-33.5 31.5t-45 11.5zM889 300q0 -96 -34 -181
t-92.5 -148.5t-137 -100t-168.5 -36.5q-89 0 -167.5 36.5t-137 100t-92.5 148.5t-34 181t34 181t92.5 148.5t137 100t167.5 36.5q90 0 168.5 -36.5t137 -100t92.5 -148.5t34 -181z" />
    <glyph glyph-name="uni24E0" unicode="&#x24e0;" 
d="M824 300q0 83 -28.5 156t-78 127t-116.5 85.5t-144 31.5t-143.5 -31.5t-116 -85.5t-78 -127t-28.5 -156t28.5 -156t78 -127t116 -85.5t143.5 -31.5t144 31.5t116.5 85.5t78 127t28.5 156zM622 7h-91v184q-23 -28 -56 -43.5t-71 -15.5q-41 0 -74.5 17.5t-57.5 49t-37 75
t-13 95.5t13 96t37 75.5t57.5 49t74.5 17.5q38 0 71 -15.5t56 -44.5v44h91v-584zM423 520q-51 0 -78.5 -42t-27.5 -109q0 -66 27.5 -108t78.5 -42t79.5 42t28.5 108q0 67 -28.5 109t-79.5 42zM889 300q0 -96 -34 -181t-92.5 -148.5t-137 -100t-168.5 -36.5
q-89 0 -167.5 36.5t-137 100t-92.5 148.5t-34 181t34 181t92.5 148.5t137 100t167.5 36.5q90 0 168.5 -36.5t137 -100t92.5 -148.5t34 -181z" />
    <glyph glyph-name="uni24E1" unicode="&#x24e1;" 
d="M824 300q0 83 -28.5 156t-78 127t-116.5 85.5t-144 31.5t-143.5 -31.5t-116 -85.5t-78 -127t-28.5 -156t28.5 -156t78 -127t116 -85.5t143.5 -31.5t144 31.5t116.5 85.5t78 127t28.5 156zM596 419q-17 0 -36.5 -4.5t-38.5 -17.5q-26 -19 -40.5 -48.5t-14.5 -77.5v-213
h-92v444h92v-61q12 21 28 35t42 27q9 4 19 7t19 4.5t15 2t7 0.5v-98zM889 300q0 -96 -34 -181t-92.5 -148.5t-137 -100t-168.5 -36.5q-89 0 -167.5 36.5t-137 100t-92.5 148.5t-34 181t34 181t92.5 148.5t137 100t167.5 36.5q90 0 168.5 -36.5t137 -100t92.5 -148.5t34 -181
z" />
    <glyph glyph-name="uni24E2" unicode="&#x24e2;" 
d="M824 300q0 83 -28.5 156t-78 127t-116.5 85.5t-144 31.5t-143.5 -31.5t-116 -85.5t-78 -127t-28.5 -156t28.5 -156t78 -127t116 -85.5t143.5 -31.5t144 31.5t116.5 85.5t78 127t28.5 156zM631 200q-2 -29 -16 -54.5t-36.5 -44t-52 -29t-62.5 -10.5q-52 0 -86.5 17.5
t-55.5 41.5t-30 50.5t-9 46.5h87q2 -26 24.5 -48.5t66.5 -22.5q38 0 56.5 15.5t20.5 33.5q2 15 -7.5 27.5t-26.5 20.5q-15 7 -32 12.5t-34.5 10.5t-34 9.5t-29.5 10.5q-84 34 -78 121q1 23 12.5 46t32 41t49 29.5t64.5 11.5q40 0 71 -12.5t52 -32t31.5 -45t10.5 -50.5h-87
q1 18 -17.5 36t-54.5 18t-53.5 -12.5t-19.5 -30.5q-2 -20 8 -31t33 -19q13 -5 30 -9.5t35 -9.5t36.5 -11.5t33.5 -14.5q29 -14 49.5 -42t18.5 -70zM889 300q0 -96 -34 -181t-92.5 -148.5t-137 -100t-168.5 -36.5q-89 0 -167.5 36.5t-137 100t-92.5 148.5t-34 181t34 181
t92.5 148.5t137 100t167.5 36.5q90 0 168.5 -36.5t137 -100t92.5 -148.5t34 -181z" />
    <glyph glyph-name="uni24E3" unicode="&#x24e3;" 
d="M824 300q0 83 -28.5 156t-78 127t-116.5 85.5t-144 31.5t-143.5 -31.5t-116 -85.5t-78 -127t-28.5 -156t28.5 -156t78 -127t116 -85.5t143.5 -31.5t144 31.5t116.5 85.5t78 127t28.5 156zM552 9h-52q-23 0 -40.5 9t-31.5 24q-24 27 -24 86v242h-50v85h50v136h92v-136h56
v-85h-56v-223q0 -18 2.5 -26.5t10.5 -16.5t18.5 -9t24.5 -1v-85zM889 300q0 -96 -34 -181t-92.5 -148.5t-137 -100t-168.5 -36.5q-89 0 -167.5 36.5t-137 100t-92.5 148.5t-34 181t34 181t92.5 148.5t137 100t167.5 36.5q90 0 168.5 -36.5t137 -100t92.5 -148.5t34 -181z
" />
    <glyph glyph-name="uni24E4" unicode="&#x24e4;" 
d="M824 300q0 83 -28.5 156t-78 127t-116.5 85.5t-144 31.5t-143.5 -31.5t-116 -85.5t-78 -127t-28.5 -156t28.5 -156t78 -127t116 -85.5t143.5 -31.5t144 31.5t116.5 85.5t78 127t28.5 156zM631 86h-92v42q-17 -23 -51.5 -41.5t-78.5 -16.5q-30 2 -53 15t-39.5 34t-25 48.5
t-8.5 58.5v304h90v-260q0 -55 19 -79.5t58 -23.5q42 1 65.5 30.5t23.5 83.5v249h92v-444zM889 300q0 -96 -34 -181t-92.5 -148.5t-137 -100t-168.5 -36.5q-89 0 -167.5 36.5t-137 100t-92.5 148.5t-34 181t34 181t92.5 148.5t137 100t167.5 36.5q90 0 168.5 -36.5t137 -100
t92.5 -148.5t34 -181z" />
    <glyph glyph-name="uni24E5" unicode="&#x24e5;" 
d="M824 300q0 83 -28.5 156t-78 127t-116.5 85.5t-144 31.5t-143.5 -31.5t-116 -85.5t-78 -127t-28.5 -156t28.5 -156t78 -127t116 -85.5t143.5 -31.5t144 31.5t116.5 85.5t78 127t28.5 156zM663 492l-151 -438h-105l-152 438h99l106 -315l105 315h98zM889 300
q0 -96 -34 -181t-92.5 -148.5t-137 -100t-168.5 -36.5q-89 0 -167.5 36.5t-137 100t-92.5 148.5t-34 181t34 181t92.5 148.5t137 100t167.5 36.5q90 0 168.5 -36.5t137 -100t92.5 -148.5t34 -181z" />
    <glyph glyph-name="uni24E6" unicode="&#x24e6;" 
d="M824 300q0 83 -28.5 156t-78 127t-116.5 85.5t-144 31.5t-143.5 -31.5t-116 -85.5t-78 -127t-28.5 -156t28.5 -156t78 -127t116 -85.5t143.5 -31.5t144 31.5t116.5 85.5t78 127t28.5 156zM726 492l-107 -436h-100l-63 266l-62 -266h-99l-108 436h92l65 -283l64 283h97
l65 -283l64 283h92zM889 300q0 -96 -34 -181t-92.5 -148.5t-137 -100t-168.5 -36.5q-89 0 -167.5 36.5t-137 100t-92.5 148.5t-34 181t34 181t92.5 148.5t137 100t167.5 36.5q90 0 168.5 -36.5t137 -100t92.5 -148.5t34 -181z" />
    <glyph glyph-name="uni24E7" unicode="&#x24e7;" 
d="M824 300q0 83 -28.5 156t-78 127t-116.5 85.5t-144 31.5t-143.5 -31.5t-116 -85.5t-78 -127t-28.5 -156t28.5 -156t78 -127t116 -85.5t143.5 -31.5t144 31.5t116.5 85.5t78 127t28.5 156zM656 76h-108l-91 140l-89 -140h-108l144 224l-136 213h107l82 -129l85 129h106
l-137 -213zM889 300q0 -96 -34 -181t-92.5 -148.5t-137 -100t-168.5 -36.5q-89 0 -167.5 36.5t-137 100t-92.5 148.5t-34 181t34 181t92.5 148.5t137 100t167.5 36.5q90 0 168.5 -36.5t137 -100t92.5 -148.5t34 -181z" />
    <glyph glyph-name="uni24E8" unicode="&#x24e8;" 
d="M824 300q0 83 -28.5 156t-78 127t-116.5 85.5t-144 31.5t-143.5 -31.5t-116 -85.5t-78 -127t-28.5 -156t28.5 -156t78 -127t116 -85.5t143.5 -31.5t144 31.5t116.5 85.5t78 127t28.5 156zM673 579l-182 -526q-10 -26 -24 -42.5t-31 -25.5q-17 -10 -34.5 -12t-34.5 -2h-45
v83h41q17 0 30 11.5t17 25.5l13 37l-157 451h99l104 -313l105 313h99zM889 300q0 -96 -34 -181t-92.5 -148.5t-137 -100t-168.5 -36.5q-89 0 -167.5 36.5t-137 100t-92.5 148.5t-34 181t34 181t92.5 148.5t137 100t167.5 36.5q90 0 168.5 -36.5t137 -100t92.5 -148.5
t34 -181z" />
    <glyph glyph-name="uni24E9" unicode="&#x24e9;" 
d="M824 300q0 83 -28.5 156t-78 127t-116.5 85.5t-144 31.5t-143.5 -31.5t-116 -85.5t-78 -127t-28.5 -156t28.5 -156t78 -127t116 -85.5t143.5 -31.5t144 31.5t116.5 85.5t78 127t28.5 156zM632 78h-348v84l219 275h-198v84h314v-84l-221 -275h234v-84zM889 300
q0 -96 -34 -181t-92.5 -148.5t-137 -100t-168.5 -36.5q-89 0 -167.5 36.5t-137 100t-92.5 148.5t-34 181t34 181t92.5 148.5t137 100t167.5 36.5q90 0 168.5 -36.5t137 -100t92.5 -148.5t34 -181z" />
    <glyph glyph-name="SF100000" unicode="&#x2500;" 
d="M0 319h910v-38h-910v38z" />
    <glyph glyph-name="uni2501" unicode="&#x2501;" 
d="M0 338h910v-75h-910v75z" />
    <glyph glyph-name="SF110000" unicode="&#x2502;" 
d="M440 800h35v-1000h-35v1000z" />
    <glyph glyph-name="uni2503" unicode="&#x2503;" 
d="M423 800h70v-1000h-70v1000z" />
    <glyph glyph-name="SF010000" unicode="&#x250c;" 
d="M435 319h475v-38h-439v-481h-36v519z" />
    <glyph glyph-name="uni250D" unicode="&#x250d;" 
d="M435 338h475v-75h-439v-463h-36v538z" />
    <glyph glyph-name="uni250E" unicode="&#x250e;" 
d="M489 281v-481h-70v519h491v-38h-421z" />
    <glyph glyph-name="uni250F" unicode="&#x250f;" 
d="M419 338h491v-75h-421v-463h-70v538z" />
    <glyph glyph-name="SF030000" unicode="&#x2510;" 
d="M0 281v38h480v-519h-36v481h-444z" />
    <glyph glyph-name="uni2511" unicode="&#x2511;" 
d="M444 263h-444v75h480v-538h-36v463z" />
    <glyph glyph-name="uni2512" unicode="&#x2512;" 
d="M427 281h-427v38h497v-519h-70v481z" />
    <glyph glyph-name="uni2513" unicode="&#x2513;" 
d="M0 338h497v-538h-70v463h-427v75z" />
    <glyph glyph-name="SF020000" unicode="&#x2514;" 
d="M435 800h36v-481h439v-38h-475v519z" />
    <glyph glyph-name="uni2515" unicode="&#x2515;" 
d="M471 338h439v-75h-475v537h36v-462z" />
    <glyph glyph-name="uni2516" unicode="&#x2516;" 
d="M489 319h421v-38h-491v519h70v-481z" />
    <glyph glyph-name="uni2517" unicode="&#x2517;" 
d="M419 800h70v-462h421v-75h-491v537z" />
    <glyph glyph-name="SF040000" unicode="&#x2518;" 
d="M444 800h36v-519h-480v38h444v481z" />
    <glyph glyph-name="uni2519" unicode="&#x2519;" 
d="M444 338v462h36v-537h-480v75h444z" />
    <glyph glyph-name="uni251A" unicode="&#x251a;" 
d="M427 319v481h70v-519h-497v38h427z" />
    <glyph glyph-name="uni251B" unicode="&#x251b;" 
d="M427 800h70v-537h-497v75h427v462z" />
    <glyph glyph-name="SF080000" unicode="&#x251c;" 
d="M435 800h36v-481h439v-38h-439v-481h-36v1000z" />
    <glyph glyph-name="uni251D" unicode="&#x251d;" 
d="M910 338v-75h-439v-463h-36v1000h36v-462h439z" />
    <glyph glyph-name="uni251E" unicode="&#x251e;" 
d="M419 800h70v-481h421v-38h-439v-481h-36v481h-16v519z" />
    <glyph glyph-name="uni251F" unicode="&#x251f;" 
d="M435 800h36v-481h439v-38h-421v-481h-70v519h16v481z" />
    <glyph glyph-name="uni2520" unicode="&#x2520;" 
d="M910 319v-38h-421v-481h-70v1000h70v-481h421z" />
    <glyph glyph-name="uni2521" unicode="&#x2521;" 
d="M435 -200v463h-16v537h70v-462h421v-75h-439v-463h-36z" />
    <glyph glyph-name="uni2522" unicode="&#x2522;" 
d="M419 -200v538h16v462h36v-462h439v-75h-421v-463h-70z" />
    <glyph glyph-name="uni2523" unicode="&#x2523;" 
d="M419 800h70v-462h421v-75h-421v-463h-70v1000z" />
    <glyph glyph-name="SF090000" unicode="&#x2524;" 
d="M480 800v-1000h-36v481h-444v38h444v481h36z" />
    <glyph glyph-name="uni2525" unicode="&#x2525;" 
d="M444 338v462h36v-1000h-36v463h-444v75h444z" />
    <glyph glyph-name="uni2526" unicode="&#x2526;" 
d="M427 800h70v-519h-18v-481h-35v481h-444v38h427v481z" />
    <glyph glyph-name="uni2527" unicode="&#x2527;" 
d="M0 319h444v481h35v-481h18v-519h-70v481h-427v38z" />
    <glyph glyph-name="uni2528" unicode="&#x2528;" 
d="M497 -200h-70v481h-427v38h427v481h70v-1000z" />
    <glyph glyph-name="uni2529" unicode="&#x2529;" 
d="M0 263v75h427v462h70v-537h-18v-463h-35v463h-444z" />
    <glyph glyph-name="uni252A" unicode="&#x252a;" 
d="M0 263v75h444v462h35v-462h18v-538h-70v463h-427z" />
    <glyph glyph-name="uni252B" unicode="&#x252b;" 
d="M0 263v75h427v462h70v-1000h-70v463h-427z" />
    <glyph glyph-name="SF060000" unicode="&#x252c;" 
d="M0 319h910v-38h-435v-481h-35v481h-440v38z" />
    <glyph glyph-name="uni252D" unicode="&#x252d;" 
d="M0 263v75h475v-19h435v-38h-435v-481h-35v463h-440z" />
    <glyph glyph-name="uni252E" unicode="&#x252e;" 
d="M0 281v38h440v19h470v-75h-435v-463h-35v481h-440z" />
    <glyph glyph-name="uni252F" unicode="&#x252f;" 
d="M910 338v-75h-435v-463h-35v463h-440v75h910z" />
    <glyph glyph-name="uni2530" unicode="&#x2530;" 
d="M910 319v-38h-417v-481h-70v481h-423v38h910z" />
    <glyph glyph-name="uni2531" unicode="&#x2531;" 
d="M0 263v75h493v-19h417v-38h-417v-481h-70v463h-423z" />
    <glyph glyph-name="uni2532" unicode="&#x2532;" 
d="M0 281v38h423v19h487v-75h-417v-463h-70v481h-423z" />
    <glyph glyph-name="uni2533" unicode="&#x2533;" 
d="M0 263v75h910v-75h-417v-463h-70v463h-423z" />
    <glyph glyph-name="SF070000" unicode="&#x2534;" 
d="M440 800h35v-481h435v-38h-910v38h440v481z" />
    <glyph glyph-name="uni2535" unicode="&#x2535;" 
d="M0 263v75h440v462h35v-481h435v-38h-435v-18h-475z" />
    <glyph glyph-name="uni2536" unicode="&#x2536;" 
d="M0 281v38h440v481h35v-462h435v-75h-470v18h-440z" />
    <glyph glyph-name="uni2537" unicode="&#x2537;" 
d="M440 338v462h35v-462h435v-75h-910v75h440z" />
    <glyph glyph-name="uni2538" unicode="&#x2538;" 
d="M423 319v481h70v-481h417v-38h-910v38h423z" />
    <glyph glyph-name="uni2539" unicode="&#x2539;" 
d="M0 263v75h423v462h70v-481h417v-38h-417v-18h-493z" />
    <glyph glyph-name="uni253A" unicode="&#x253a;" 
d="M0 281v38h423v481h70v-462h417v-75h-487v18h-423z" />
    <glyph glyph-name="uni253B" unicode="&#x253b;" 
d="M423 338v462h70v-462h417v-75h-910v75h423z" />
    <glyph glyph-name="SF050000" unicode="&#x253c;" 
d="M440 800h35v-481h435v-38h-435v-481h-35v481h-440v38h440v481z" />
    <glyph glyph-name="uni253D" unicode="&#x253d;" 
d="M0 263v75h440v462h35v-481h435v-38h-435v-481h-35v463h-440z" />
    <glyph glyph-name="uni253E" unicode="&#x253e;" 
d="M475 800v-462h435v-75h-435v-463h-35v481h-440v38h440v481h35z" />
    <glyph glyph-name="uni253F" unicode="&#x253f;" 
d="M440 338v462h35v-462h435v-75h-435v-463h-35v463h-440v75h440z" />
    <glyph glyph-name="uni2540" unicode="&#x2540;" 
d="M493 800v-481h417v-38h-435v-481h-35v481h-440v38h423v481h70z" />
    <glyph glyph-name="uni2541" unicode="&#x2541;" 
d="M475 800v-481h435v-38h-417v-481h-70v481h-423v38h440v481h35z" />
    <glyph glyph-name="uni2542" unicode="&#x2542;" 
d="M423 319v481h70v-481h417v-38h-417v-481h-70v481h-423v38h423z" />
    <glyph glyph-name="uni2543" unicode="&#x2543;" 
d="M493 800v-481h417v-38h-417v-18h-18v-463h-35v463h-440v75h423v462h70z" />
    <glyph glyph-name="uni2544" unicode="&#x2544;" 
d="M475 -200h-35v463h-17v18h-423v38h423v481h70v-462h417v-75h-435v-463z" />
    <glyph glyph-name="uni2545" unicode="&#x2545;" 
d="M475 800v-462h18v-19h417v-38h-417v-481h-70v463h-423v75h440v462h35z" />
    <glyph glyph-name="uni2546" unicode="&#x2546;" 
d="M475 800v-462h435v-75h-417v-463h-70v481h-423v38h423v19h17v462h35z" />
    <glyph glyph-name="uni2547" unicode="&#x2547;" 
d="M493 800v-462h417v-75h-435v-463h-35v463h-440v75h423v462h70z" />
    <glyph glyph-name="uni2548" unicode="&#x2548;" 
d="M475 800v-462h435v-75h-417v-463h-70v463h-423v75h440v462h35z" />
    <glyph glyph-name="uni2549" unicode="&#x2549;" 
d="M493 800v-481h417v-38h-417v-481h-70v463h-423v75h423v462h70z" />
    <glyph glyph-name="uni254A" unicode="&#x254a;" 
d="M493 800v-462h417v-75h-417v-463h-70v481h-423v38h423v481h70z" />
    <glyph glyph-name="uni254B" unicode="&#x254b;" 
d="M423 338v462h70v-462h417v-75h-417v-463h-70v463h-423v75h423z" />
    <glyph glyph-name="shade" unicode="&#x2592;" 
d="M50 -95v790h814v-790h-814zM803 636h-692v-672h692v672zM732 592q0 -15 -10 -24.5t-25 -9.5t-24 10t-9 24t8.5 24.5t24.5 10.5q14 0 24.5 -10t10.5 -25zM573 592q0 -15 -11 -24.5t-25 -9.5q-15 0 -25 10t-10 24t9.5 24.5t25.5 10.5q14 0 25 -10t11 -25zM773 397
q0 -14 -9.5 -24t-24.5 -10q-16 0 -25.5 10t-9.5 24t9.5 24t24.5 10t25 -9.5t10 -24.5zM633 397q0 -15 -9.5 -24.5t-26.5 -9.5q-15 0 -24 10t-9 24t9 24.5t24 10.5q16 0 26 -10t10 -25zM411 591q0 -14 -9.5 -23.5t-24.5 -9.5q-16 0 -25.5 9t-9.5 24t9.5 25t24.5 10
q16 0 25.5 -10t9.5 -25zM713 203q0 -16 -10 -25.5t-27 -9.5q-14 0 -24 10t-10 25q0 13 10 23.5t24 10.5q16 0 26.5 -10t10.5 -24zM492 397q0 -15 -11 -24.5t-26 -9.5q-14 0 -23.5 10t-9.5 24t9 24.5t24 10.5t26 -10t11 -25zM251 592q0 -15 -10 -24.5t-26 -9.5
q-14 0 -23.5 10t-9.5 24t8.5 24.5t24.5 10.5q15 0 25.5 -9.5t10.5 -25.5zM774 8q0 -16 -10.5 -25.5t-25.5 -9.5t-24.5 10t-9.5 25q0 14 9.5 24t24.5 10q16 0 26 -9.5t10 -24.5zM564 203q0 -16 -11.5 -25.5t-26.5 -9.5q-14 0 -24 10t-10 25q0 13 9.5 23.5t24.5 10.5t26.5 -10
t11.5 -24zM351 397q0 -14 -10 -24t-24 -10q-16 0 -25.5 9t-9.5 25q0 14 9.5 24t23.5 10q16 0 26 -10t10 -24zM633 8q0 -16 -10.5 -25.5t-25.5 -9.5t-24 10t-9 25q0 14 9 24t24 10q17 0 26.5 -9.5t9.5 -24.5zM212 397q0 -15 -10 -24.5t-26 -9.5q-14 0 -24 10t-10 24t9.5 24.5
t24.5 10.5t25.5 -9.5t10.5 -25.5zM403 202q0 -14 -10 -24t-25 -10q-16 0 -25.5 9t-9.5 25q0 14 9.5 24t24.5 10q16 0 26 -10t10 -24zM491 8q0 -14 -10.5 -24.5t-25.5 -10.5t-24.5 10t-9.5 25q0 14 9.5 24t24.5 10q14 0 25 -9.5t11 -24.5zM264 203q0 -16 -10.5 -25.5
t-25.5 -9.5q-16 0 -25.5 10t-9.5 25q0 13 9.5 23.5t25.5 10.5q14 0 25 -9.5t11 -24.5zM351 8q0 -15 -10 -25t-26 -10q-14 0 -24 10t-10 25q0 14 10 24t24 10q16 0 26 -10t10 -24zM211 8q0 -16 -10.5 -25.5t-24.5 -9.5q-15 0 -25 10t-10 25q0 14 10 24t25 10q16 0 25.5 -10
t9.5 -24z" />
    <glyph glyph-name="filledbox" unicode="&#x25a0;" 
d="M844 676v-752h-774v752h774z" />
    <glyph glyph-name="H22073" unicode="&#x25a1;" 
d="M846 -78h-778v756h778v-756zM775 -9v618h-636v-618h636z" />
    <glyph glyph-name="uni25A3" unicode="&#x25a3;" 
d="M53 -107v820h810v-820h-810zM790 648h-661v-688h661v688zM242 82v442h435v-442h-435z" />
    <glyph glyph-name="uni25A4" unicode="&#x25a4;" 
d="M50 -95v790h814v-790h-814zM803 636h-692v-116h692v116zM803 461h-692v-132h692v132zM803 271h-692v-132h692v132zM803 80h-692v-116h692v116z" />
    <glyph glyph-name="uni25A5" unicode="&#x25a5;" 
d="M50 -95v790h814v-790h-814zM803 636h-119v-672h119v672zM622 636h-134v-672h134v672zM426 636h-134v-672h134v672zM231 636h-120v-672h120v672z" />
    <glyph glyph-name="uni25A6" unicode="&#x25a6;" 
d="M50 -95v790h814v-790h-814zM801 633h-130v-125h130v125zM613 633h-129v-125h129v125zM801 452h-130v-125h130v125zM425 633h-130v-125h130v125zM613 452h-129v-125h129v125zM801 272h-130v-126h130v126zM237 633h-125v-125h125v125zM425 452h-130v-125h130v125zM613 272
h-129v-126h129v126zM801 90h-130v-124h130v124zM237 452h-125v-125h125v125zM425 272h-130v-126h130v126zM613 90h-129v-124h129v124zM237 272h-125v-126h125v126zM425 90h-130v-124h130v124zM237 90h-125v-124h125v124z" />
    <glyph glyph-name="uni25A7" unicode="&#x25a7;" 
d="M50 -95v790h814v-790h-814zM803 636h-109l109 -107v107zM803 446l-195 190h-171l366 -355v165zM803 198l-452 438h-190l642 -624v186zM112 600v-186l464 -450h192zM112 329v-163l208 -202h171zM112 83v-119h123z" />
    <glyph glyph-name="uni25A8" unicode="&#x25a8;" 
d="M50 -95v790h814v-790h-814zM563 636l-452 -438v-186l642 624h-190zM111 636v-107l110 107h-110zM306 636l-195 -190v-165l366 355h-171zM802 83l-123 -119h123v119zM802 600l-655 -636h191l464 450v186zM802 329l-378 -365h170l208 202v163z" />
    <glyph glyph-name="uni25A9" unicode="&#x25a9;" 
d="M50 -97v790h814v-790h-814zM623 634l73 -69l73 69h-146zM803 600l-72 -70l72 -70v140zM576 611l-83 -81l83 -81l83 81zM696 495l-84 -81l84 -81l83 81zM386 634l71 -69l71 69h-142zM803 368l-72 -70l72 -70v140zM338 611l-84 -81l84 -81l83 81zM457 495l-83 -81l83 -81
l83 81zM576 379l-83 -81l83 -81l83 81zM696 263l-84 -81l84 -81l83 81zM803 136l-72 -70l72 -70v140zM146 634l72 -69l73 69h-145zM111 600v-140l72 70zM696 31l-73 -69h146zM576 147l-83 -81l83 -81l83 81zM218 495l-83 -81l83 -81l84 81zM338 379l-84 -81l84 -81l83 81z
M457 263l-83 -81l83 -81l83 81zM111 368v-140l72 70zM457 31l-71 -69h142zM338 147l-84 -81l84 -81l83 81zM218 263l-83 -81l83 -81l84 81zM111 136v-140l72 70zM218 31l-72 -69h145z" />
    <glyph glyph-name="triagup" unicode="&#x25b2;" 
d="M913 -72h-912l456 764z" />
    <glyph glyph-name="uni25B3" unicode="&#x25b3;" 
d="M-3 -74l460 771l460 -771h-920zM457 557l-336 -563h672z" />
    <glyph glyph-name="uni25B6" unicode="&#x25b6;" 
d="M88 -148v904l804 -453z" />
    <glyph glyph-name="uni25B7" unicode="&#x25b7;" 
d="M78 -148v904l804 -453zM149 634v-660l586 329z" />
    <glyph glyph-name="triagdn" unicode="&#x25bc;" 
d="M913 673l-456 -764l-456 764h912z" />
    <glyph glyph-name="uni25BD" unicode="&#x25bd;" 
d="M457 -96l-460 771h920zM121 607l336 -563l336 563h-672z" />
    <glyph glyph-name="uni25C0" unicode="&#x25c0;" 
d="M22 303l804 453v-904z" />
    <glyph glyph-name="uni25C1" unicode="&#x25c1;" 
d="M22 303l804 453v-904zM754 634l-585 -331l585 -329v660z" />
    <glyph glyph-name="uni25C6" unicode="&#x25c6;" 
d="M457 735l448 -435l-448 -435l-448 435z" />
    <glyph glyph-name="uni25C7" unicode="&#x25c7;" 
d="M908 300l-451 -438l-451 438l451 438zM808 300l-351 341l-351 -341l351 -341z" />
    <glyph glyph-name="uni25C8" unicode="&#x25c8;" 
d="M454 -188l-465 483l471 486l466 -482zM459 682l-375 -386l371 -386l375 388zM454 15l-269 279l276 286l270 -281z" />
    <glyph glyph-name="circle" unicode="&#x25cb;" 
d="M457 701q85 0 160.5 -31.5t131.5 -85.5t88.5 -127t32.5 -156t-32.5 -156t-88.5 -127t-131.5 -85.5t-160.5 -31.5t-160 31.5t-131 85.5t-88.5 127t-32.5 156t32.5 156t88.5 127t131 85.5t160 31.5zM457 -32q71 0 133.5 26.5t109 71.5t73.5 105.5t27 129.5t-27 129.5
t-73.5 105.5t-109 71.5t-133.5 26.5t-133.5 -26t-109 -71.5t-73.5 -106t-27 -129.5t27 -129.5t73.5 -105.5t109 -71.5t133.5 -26.5z" />
    <glyph glyph-name="uni25CE" unicode="&#x25ce;" 
d="M457 542q52 0 97 -19t79 -52t53.5 -77t19.5 -94t-19.5 -94t-53.5 -77t-79 -52t-97 -19t-97.5 19t-79 52t-53 77t-19.5 94t19.5 94t53 77t79 52t97.5 19zM457 126q37 0 69.5 13.5t57 37.5t38.5 55.5t14 67.5t-14 67.5t-38.5 55.5t-57 37.5t-69.5 13.5t-69.5 -13.5
t-57 -37.5t-39 -55.5t-14.5 -67.5t14.5 -67.5t39 -55.5t57 -37.5t69.5 -13.5zM457 701q85 0 160.5 -31.5t131.5 -85.5t88.5 -127t32.5 -156t-32.5 -156t-88.5 -127t-131.5 -85.5t-160.5 -31.5t-160 31.5t-131 85.5t-88.5 127t-32.5 156t32.5 156t88.5 127t131 85.5t160 31.5
zM457 -32q71 0 133.5 26.5t109 71.5t73.5 105.5t27 129.5t-27 129.5t-73.5 105.5t-109 71.5t-133.5 26.5t-133.5 -26t-109 -71.5t-73.5 -106t-27 -129.5t27 -129.5t73.5 -105.5t109 -71.5t133.5 -26.5z" />
    <glyph glyph-name="H18533" unicode="&#x25cf;" 
d="M47 301q0 82 32.5 154.5t88 126.5t130 85.5t159.5 31.5t160 -31.5t130.5 -85.5t87.5 -126.5t32 -154.5q0 -83 -32 -155.5t-87.5 -126.5t-130.5 -85t-160 -31t-159.5 31t-130 85t-88 126.5t-32.5 155.5z" />
    <glyph glyph-name="uni25D0" unicode="&#x25d0;" 
d="M459 -128q-94 0 -175 33t-140.5 90.5t-93.5 136t-34 169.5q0 90 34 168t93 135.5t140 90.5t174 33q94 0 175 -32.5t140.5 -90t93 -135.5t33.5 -169q0 -92 -33.5 -170.5t-92.5 -136t-139.5 -90t-174.5 -32.5zM471 -60q77 3 142 33.5t111.5 80.5t72.5 113.5t26 132.5
q0 68 -26 131.5t-73 113t-111.5 80.5t-141.5 34v-719z" />
    <glyph glyph-name="uni25D1" unicode="&#x25d1;" 
d="M896 300q0 -92 -33.5 -170t-92 -135.5t-138 -90t-172.5 -32.5q-94 0 -175 32.5t-140.5 90t-93.5 136t-34 169.5q0 83 30.5 159.5t88 135.5t141 94.5t188.5 35.5q90 0 168.5 -33t137 -90.5t92 -135t33.5 -166.5zM446 659q-80 -3 -145 -35t-111 -82t-71.5 -114.5
t-25.5 -132.5q0 -65 26 -127.5t72.5 -112t111.5 -81t143 -35.5v720z" />
    <glyph glyph-name="uni2605" unicode="&#x2605;" 
d="M454 105l-307 -211l122 339l-296 208h373l115 314l105 -314h378l-306 -210l113 -336z" />
    <glyph glyph-name="uni2606" unicode="&#x2606;" 
d="M143 -119l125 346l-303 211h380l118 320l106 -320h383l-310 -214l116 -341l-303 214zM194 367l165 -112l-65 -179l159 110l159 -110l-59 178l170 113h-212l-50 164l-63 -164h-204z" />
    <glyph glyph-name="uni260E" unicode="&#x260e;" 
d="M797 372h23t26 0.5t24.5 2t18.5 3.5q0 -26 -17.5 -32.5t-44.5 -5.5l-82 3q-25 1 -42 10.5t-20 35.5q28 -9 52.5 -12t61.5 -5zM772 548q35 -10 56 -22t32.5 -29.5t16.5 -41.5t9 -57q-7 -2 -19 -3.5t-25.5 -2t-27 -0.5h-24.5q-18 1 -31.5 2t-26 3t-25.5 5t-29 7
q-2 23 -24 42t-49 24v-51q0 -12 1.5 -19.5t5 -13.5t9.5 -12l16 -16t18 -16t14.5 -11.5t11.5 -13t10 -19.5l78 -221q0 -7 -1.5 -20t-3.5 -26t-4 -23.5t-2 -11.5q0 -3 -6 -3h-12h-564h-11t-6 3q-1 1 -3 11.5t-4 23.5t-3.5 26t-1.5 20l78 221q4 12 9.5 19.5t12 13t14.5 11.5
t18 16l16 16t9.5 12t5 13.5t1.5 19.5v51q-27 -5 -49 -24t-24 -42q-16 -4 -28.5 -7t-25 -5t-26.5 -3t-32 -2h-24.5t-27 0.5t-25.5 2t-19 3.5q4 33 9 57t16.5 41.5t32.5 29.5t56 22q75 20 157.5 29.5t157.5 9.5q78 0 158 -9.5t155 -29.5zM120 372q37 2 61.5 5t52.5 12
q-4 -26 -20.5 -35.5t-42.5 -10.5l-82 -3q-27 -1 -44.5 5.5t-17.5 32.5q7 -2 18.5 -3.5t24.5 -2t26 -0.5h24zM547 409l15 74q-20 2 -47 4.5t-58 2.5t-58 -3t-47 -5l15 -74l90 5zM454 113q28 0 52.5 10t42.5 27.5t28.5 41.5t10.5 51q0 25 -10.5 48.5t-28 40.5t-41 27.5
t-49.5 10.5q-27 0 -51 -9.5t-42 -26.5t-29 -39.5t-11 -49.5q0 -26 9.5 -50t26.5 -42t40.5 -29t51.5 -11z" />
    <glyph glyph-name="uni260F" unicode="&#x260f;" 
d="M772 546q29 -8 48.5 -19.5t32.5 -29t20.5 -42t12.5 -57.5q3 -21 -1 -33t-12.5 -17.5t-20.5 -6.5t-25 -1l-82 3q-14 0 -25 2.5t-19 9.5t-13.5 20t-9.5 34q-5 26 -21.5 42t-51.5 24v-51q0 -12 1 -20t4.5 -14t9.5 -12t17 -15q19 -15 32 -25t22 -35l78 -221q0 -7 -1.5 -19.5
t-3.5 -25.5t-4 -23t-2 -11q0 -3 -6 -3h-12h-564h-11t-6 3q-1 1 -3 11t-4 23t-3.5 25.5t-1.5 19.5l78 221q9 25 22 35t32 25q11 9 17.5 15t9.5 12t4 14t1 20v51q-35 -8 -51.5 -24t-21.5 -42q-4 -21 -9.5 -34t-13.5 -20t-19 -9.5t-25 -2.5l-82 -3q-14 0 -25.5 1t-20 6.5
t-12.5 17.5t-1 33q4 33 12 57.5t21 42t32.5 29t48.5 19.5q36 10 76 17.5t80.5 13t81 8t77.5 2.5q78 0 159.5 -10.5t153.5 -30.5zM532 489q-7 1 -29.5 2.5t-45.5 1.5q-24 0 -46 -1.5t-29 -2.5l9 -49q11 2 30 2.5t36 0.5t36 -0.5t30 -2.5zM820 365q26 -1 32 9.5t0 43.5
q-4 25 -13 43t-24.5 30.5t-37.5 21t-52 16.5q-62 16 -133.5 23t-132.5 7q-63 0 -134.5 -7t-133.5 -23q-30 -8 -51.5 -16.5t-37 -21t-25 -30.5t-13.5 -43q-5 -33 0.5 -43.5t31.5 -9.5l66 2q11 0 18.5 2.5t13 9t9.5 18t7 30.5t15.5 33t29.5 23.5t38.5 15.5t42.5 9
q27 4 58.5 6.5t63.5 2.5t64 -2.5t59 -6.5q21 -3 42 -9t38 -15.5t29.5 -23.5t15.5 -33t7 -30.5t9.5 -18t13 -9t18.5 -2.5zM739 75l-72 205q-6 17 -13.5 28t-15 18.5t-16 13.5t-17.5 12q-21 14 -26 32.5t-5 43.5v55q-2 0 -6 0.5t-6 0.5l-15 -70l-8.5 0.5t-21.5 1.5t-29 1.5
t-31 0.5t-31 -1t-28.5 -1.5t-21 -1.5t-9.5 -1l-12 72l-13 -2v-55q0 -25 -5 -43.5t-26 -32.5q-9 -6 -17.5 -12t-16 -13.5t-15 -18.5t-13.5 -28l-71 -205l7 -45h546zM459 370q26 0 49.5 -10.5t41 -27.5t28 -40.5t10.5 -48.5q0 -27 -10.5 -51t-28.5 -41.5t-42.5 -27.5
t-52.5 -10t-51.5 11t-40.5 29t-26.5 42t-9.5 50q0 27 11 49.5t29 39.5t42 26.5t51 9.5zM454 141q45 0 74.5 29.5t29.5 72.5q0 20 -7.5 38t-21 31.5t-31.5 21.5t-39 8t-40 -7.5t-33.5 -20.5t-23 -30.5t-8.5 -38.5q0 -20 7.5 -39t21 -33.5t32 -23t39.5 -8.5z" />
    <glyph glyph-name="uni261C" unicode="&#x261c;" 
d="M847 136h-133v46q-17 0 -37 -0.5t-46 -11.5q-32 -15 -58.5 -21.5t-52 -8t-50.5 -0.5t-53 2q-9 -15 -26 -20t-36 -5q-16 0 -37.5 4.5t-41 13.5t-33 23t-13.5 34q0 12 6.5 23t17.5 16q-6 6 -8 14t-2 16q0 16 9.5 27.5t24.5 17.5q-4 3 -7 10t-3 12q0 10 4.5 18t11.5 16
l-108 6q-12 1 -32.5 2t-40 7t-33.5 18t-14 35q0 17 12 26.5t30 15t39 7t39 1.5l165 5l91 -2q21 16 50 16q28 0 54 -7t50.5 -18t47.5 -24t46 -24q11 -5 15.5 -6t18.5 -1v43h133v-326zM782 163v272h-40v-272h40zM714 394q-15 0 -20.5 -0.5t-14.5 3.5q-22 9 -46 22.5t-49 25.5
t-49 20.5t-46 8.5q-23 0 -36.5 -7t-27.5 -22l-48 -49q-8 -7 -18 -17t-10 -20q0 -14 14.5 -20t25.5 -6q19 0 35 10t30 21l46 37l11 -13l-42 -47q9 -6 20 -16.5t18 -20.5q1 0 9 -1t20.5 -2.5t28 -2t30.5 0.5q15 2 31.5 5.5t28.5 7.5l7 2l7 -8v-6q-1 0 -8.5 -3t-18.5 -6.5
t-22.5 -7t-20.5 -4.5q-35 -4 -61.5 -2t-27.5 2q-8 -24 -17 -36t-36 -17q0 -17 -7 -31t-26 -17v-15q49 -3 102 1.5t101 28.5q23 12 45 13t42 1v187zM448 252q14 0 25 7.5t11 23.5q0 6 -4 13.5t-10.5 14t-14 10.5t-14.5 4q-6 0 -19.5 -6t-33.5 -6q-25 0 -43.5 11t-32.5 28
q-6 -4 -10.5 -9t-4.5 -13q0 -9 6 -16.5t14.5 -13.5t18 -10.5t15.5 -7.5t19.5 -8t28.5 -10t29 -8.5t20 -3.5zM409 460h-85l-145 -2q-9 0 -25 -0.5t-31.5 -3t-27.5 -8.5t-12 -18q0 -11 6 -17.5t15 -11t19 -6.5t18 -2l137 -5h58zM404 198q13 0 20.5 7.5t5.5 19.5q0 7 -7.5 8.5
t-11.5 3.5q-10 3 -23 7.5t-26 10t-25 11t-19 10.5q-5 2 -11.5 5t-11.5 3q-10 0 -16 -7t-6 -16q0 -14 13 -25.5t24 -16.5q8 -3 20.5 -6.5t26 -7t26.5 -5.5t21 -2zM355 136q14 0 29.5 4.5t15.5 21.5q0 13 -16 15q-42 6 -68 16t-42 21q-7 4 -12.5 -5t-3.5 -20q1 -12 13 -22
t27.5 -17t31.5 -10.5t25 -3.5z" />
    <glyph glyph-name="uni261E" unicode="&#x261e;" 
d="M736 500q18 0 39 -1.5t39.5 -7t30.5 -15t12 -26.5q0 -23 -14 -35t-33.5 -18t-40 -7t-33.5 -2l-107 -6q7 -8 12 -16t5 -18q0 -5 -3.5 -12t-6.5 -10q32 -13 32 -45q0 -8 -1.5 -16t-8.5 -14q11 -5 18.5 -16t7.5 -23q0 -20 -13.5 -34t-33.5 -23t-42 -13.5t-39 -4.5t-33.5 5
t-26.5 20q-27 -1 -52.5 -2t-51 0.5t-53 8t-59.5 21.5q-23 11 -43.5 11.5t-37.5 0.5v-46h-133v326h133v-43h11.5t7.5 1t6.5 2.5t8.5 3.5q22 11 45.5 24t48 24t50.5 18t54 7q29 0 50 -16l92 2zM772 411q7 0 17 2t19 6.5t15.5 11t6.5 17.5q0 12 -11.5 18t-27.5 8.5t-32 3
t-25 0.5l-145 2h-86l74 -74h58zM562 302l15 7.5t17.5 10.5t14.5 13.5t6 16.5q0 14 -13 22q-14 -17 -33.5 -28t-42.5 -11q-20 0 -33.5 6t-20.5 6t-15 -4t-14.5 -10.5t-11 -14t-4.5 -13.5q0 -16 12 -23.5t26 -7.5q6 0 20 3.5t29 8.5t28.5 10t19.5 8zM603 239q12 5 24 16.5
t12 25.5q0 9 -6 16t-14 7q-6 0 -12.5 -3t-11.5 -5q-8 -5 -19.5 -10.5t-24.5 -11t-26 -10t-23 -7.5q-3 -2 -11 -3.5t-9 -8.5q-1 -12 6.5 -19.5t20.5 -7.5q8 0 21 2t26.5 5.5t26 7t20.5 6.5zM557 156q10 0 26 3.5t31.5 10.5t27.5 17t14 22q1 11 -4.5 20t-12.5 5
q-15 -11 -42 -21t-69 -16q-6 -1 -11 -4t-5 -11q0 -17 15.5 -21.5t29.5 -4.5zM524 353q5 0 12 1.5t13.5 4.5t11 8t4.5 12q0 10 -10.5 20t-18.5 17l-47 49q-16 15 -29 22t-35 7q-23 0 -47 -8.5t-48.5 -20.5t-49 -25.5t-46.5 -22.5q-10 -4 -14.5 -3.5t-20.5 0.5v-187
q19 0 41 -1t47 -13q48 -24 101 -28.5t102 -1.5v15q-20 3 -27.5 17t-7.5 31q-14 2 -22.5 6t-13.5 10.5t-8.5 15.5t-7.5 21q-2 0 -28 -2t-61 2q-9 1 -20.5 4.5t-22.5 7t-18.5 6.5t-8.5 3v6l7 8l8 -2q12 -4 27.5 -7.5t30.5 -5.5q32 -2 60 1.5t30 3.5q7 10 18 20.5t19 16.5
l-42 47l11 13l46 -37q12 -11 29.5 -21t35.5 -10zM171 183v272h-40v-272h40z" />
    <glyph glyph-name="female" unicode="&#x2640;" 
d="M512 134v-257h-107v257h-296v101h296v51q-45 9 -83.5 30t-66 51t-43 67.5t-15.5 79.5q0 49 20.5 91.5t55.5 74t82 49.5t100 18q54 0 102 -18t83 -49.5t55.5 -74t20.5 -91.5q0 -41 -15.5 -78t-42.5 -67t-64.5 -51t-81.5 -31v-52h294v-101h-294zM608 514q0 27 -11.5 51.5
t-32 42.5t-48.5 28.5t-61 10.5q-32 0 -59 -10.5t-47.5 -28.5t-32 -42.5t-11.5 -51.5t11.5 -51t32 -42.5t47.5 -29t59 -10.5q33 0 61 10.5t48.5 29t32 42.5t11.5 51z" />
    <glyph glyph-name="male" unicode="&#x2642;" 
d="M739 397l-230 195v-264q45 -9 83 -30.5t65.5 -51.5t43 -67t15.5 -79q0 -49 -20.5 -91.5t-56 -74t-83 -49.5t-101.5 -18q-53 0 -100 18t-82.5 49.5t-56 74t-20.5 91.5q0 41 15.5 78t42.5 67t64 51t81 31v256l-217 -201l-77 74l348 313l357 -288zM608 100q0 27 -12 51
t-32.5 42.5t-48.5 29t-60 10.5t-59 -10.5t-47.5 -29t-32 -42.5t-11.5 -51t11.5 -51t32 -42.5t47.5 -29t59 -10.5t60 10.5t48.5 29t32.5 42.5t12 51z" />
    <glyph glyph-name="spade" unicode="&#x2660;" 
d="M817 217q0 -35 -12 -65t-33 -52.5t-50.5 -35.5t-65.5 -13q-41 0 -76 5.5t-62 18.5q3 -52 16.5 -83.5t39 -49t64 -25t91.5 -12.5l15 -44h-574l15 44q53 5 91.5 12.5t64 25t39.5 49t17 83.5q-27 -13 -62 -18.5t-76 -5.5q-36 0 -66 13t-51 35.5t-33 52.5t-12 65
q0 37 11.5 69t31 59.5t44.5 51.5t52 45q33 27 65.5 61t61.5 80t53 105.5t41 136.5q17 -77 41 -136.5t53 -105.5t61.5 -80t65.5 -61q27 -21 52 -45t44.5 -51.5t31 -59.5t11.5 -69z" />
    <glyph glyph-name="uni2661" unicode="&#x2661;" 
d="M836 507q2 -66 -27.5 -126t-74.5 -116q-43 -57 -91 -108t-87 -98q-14 -17 -26 -35.5t-24 -42.5t-24 -55t-25 -74q-13 43 -25 74t-24 54.5t-24.5 42t-25.5 35.5q-37 47 -86 99t-92.5 108.5t-73.5 117t-28 124.5q1 39 15.5 72t40 57t60 38t74.5 14q58 0 108.5 -25.5
t82.5 -78.5q32 52 81 78t106 26q40 0 74 -13.5t59.5 -38t40.5 -57.5t16 -72zM759 492q0 57 -31.5 93t-97.5 33q-56 -3 -99.5 -62.5t-73.5 -164.5q-30 105 -73.5 165t-99.5 63q-64 2 -96 -34t-32 -93q0 -32 11 -63.5t29 -61t40.5 -57.5t45.5 -54q29 -34 57 -63.5t51 -57.5
q20 -22 37 -44.5t32 -49.5q15 26 31.5 48.5t35.5 44.5q23 29 50 58.5t56 63.5q23 26 46 54t41 57.5t29 61t11 63.5z" />
    <glyph glyph-name="club" unicode="&#x2663;" 
d="M864 257q0 -39 -15.5 -74t-42.5 -61.5t-64 -42t-80 -15.5q-38 0 -76.5 9.5t-69.5 32.5q4 -58 18.5 -94.5t41 -58t64.5 -31.5t89 -15l15 -44h-575l16 44q51 5 89 15t64.5 31.5t41 58.5t18.5 95q-32 -23 -69.5 -32.5t-74.5 -9.5q-43 0 -80 15t-64.5 41t-43.5 61t-16 75
q0 35 13 68t37 60t57 44.5t74 21.5q9 1 18 1.5t20 -1.5q-8 17 -9.5 33t-1.5 38q0 41 17.5 75.5t45.5 60t64 40t74 14.5q36 0 71.5 -14t63 -39t45 -60t17.5 -76q0 -22 -3.5 -39.5t-10.5 -34.5q42 5 82 -8t71 -39t50 -63.5t19 -81.5z" />
    <glyph glyph-name="uni2664" unicode="&#x2664;" 
d="M817 217q0 -35 -12 -65t-33 -52.5t-50.5 -35.5t-65.5 -13q-35 0 -63 7t-51 18q1 -53 11 -84.5t32 -49t57 -25t87 -12.5l15 -44h-574l15 44q52 5 87 12.5t57 25t31.5 49t11.5 84.5q-23 -11 -50.5 -18t-62.5 -7q-36 0 -66 13t-51 35.5t-33 52.5t-12 65q0 37 12 69
t31.5 59.5t44.5 51t51 44.5q34 27 66.5 61.5t61 80.5t52.5 105.5t41 136.5q17 -77 41 -136.5t52.5 -105.5t61 -80.5t66.5 -61.5q27 -21 52 -44.5t44.5 -51t31 -59.5t11.5 -69zM736 207q2 51 -17 86t-57 67q-11 10 -22.5 19t-21.5 17q-53 42 -94 94.5t-67 102.5
q-25 -50 -66.5 -102t-94.5 -94q-24 -20 -46.5 -38.5t-39 -40t-25.5 -48t-7 -62.5q2 -44 31.5 -67.5t86.5 -18.5q31 3 72.5 31t81.5 100q0 -70 -1 -122t-5 -90.5t-12 -66t-21 -47.5h94q-14 20 -21.5 47t-12 65t-5.5 90.5t-1 123.5q20 -36 41 -60.5t41 -39.5t38.5 -22.5
t33.5 -8.5q57 -5 86 18.5t31 66.5z" />
    <glyph glyph-name="heart" unicode="&#x2665;" 
d="M836 506q0 -66 -29.5 -126t-72.5 -116t-91 -106.5t-87 -98.5q-14 -17 -26 -35.5t-24 -42.5t-24 -55t-25 -74q-13 43 -25 74t-24 54.5t-24.5 42t-25.5 35.5q-38 48 -86.5 99t-91.5 106.5t-72.5 116t-29.5 125.5q0 40 15 73.5t40.5 57.5t60 37.5t74.5 13.5
q65 0 113.5 -37.5t75.5 -95.5q27 59 76 96.5t113 37.5q40 0 74.5 -13.5t60 -37.5t40.5 -57.5t15 -73.5z" />
    <glyph glyph-name="uni2667" unicode="&#x2667;" 
d="M864 257q0 -39 -15.5 -74t-42.5 -61.5t-64 -42t-80 -15.5q-33 0 -65 11t-60 34q3 -59 14 -96.5t33.5 -59.5t58 -32t86.5 -14l15 -44h-575l16 44q51 4 86 14t57.5 32t34 59.5t14.5 97.5q-27 -21 -58 -33t-65 -12q-43 0 -80 15t-64.5 41t-43.5 61t-16 75q0 35 13 68t37 60
t57 44.5t74 21.5q9 1 18 1.5t20 -1.5q-8 17 -9.5 33t-1.5 38q0 41 16.5 75.5t44.5 60t64.5 40t75.5 14.5q38 0 73.5 -14t63 -39t44 -60t16.5 -76q0 -22 -3.5 -39.5t-10.5 -34.5q42 5 82 -8t71 -39t50 -63.5t19 -81.5zM527 421q31 26 41 56t10 59q0 21 -9.5 41t-26 35.5
t-39 24.5t-48.5 9q-25 0 -47 -9t-38.5 -24.5t-26 -35.5t-9.5 -41q0 -29 9.5 -57t38.5 -53l-64 -65q-31 21 -64 22t-60.5 -14t-45 -43.5t-17.5 -67.5q0 -25 8 -46.5t22.5 -37.5t34.5 -25t44 -9q38 0 70.5 17t51.5 52h89q0 -96 -8.5 -167t-38.5 -114h107q-29 43 -38.5 113
t-9.5 168h88q18 -35 51 -52.5t72 -17.5q24 0 44 9t34.5 25t22.5 37.5t8 46.5q0 38 -17.5 67t-45 44.5t-61 14t-64.5 -24.5z" />
    <glyph glyph-name="uni2668" unicode="&#x2668;" 
d="M628 545q-5 -38 1 -64t16 -50t20.5 -51t14.5 -69q4 -41 -5 -74t-22.5 -59t-28.5 -47t-23 -39q-9 -18 -13.5 -33.5t-7 -27.5t-5 -19.5t-7.5 -8.5t-8 11t-3 30.5t3 39t9 37.5q10 25 20 55.5t16 62.5t5 64.5t-13 62.5q-18 43 -24.5 78t-4.5 65.5t10 58.5t19 57q5 14 7 29.5
t3 29t1.5 23t2.5 9.5q3 0 8 -10t9 -31t5 -53.5t-5 -76.5zM484 578q-14 -41 -11 -73.5t13 -64t23 -65.5t21 -78q5 -24 -2 -54t-19.5 -59.5t-26 -55t-20.5 -40.5q-14 -24 -20 -42t-8 -29t-3.5 -16t-6.5 -5t-9 12.5t-4.5 32.5t3.5 46t15 55q16 39 20 76.5t1 69.5t-10 56.5
t-14 38.5q-23 51 -26 90.5t4.5 72t21 58.5t24.5 50q10 23 14.5 44.5t6 38t1 26.5t0.5 10q7 0 14 -16.5t10.5 -44.5t1.5 -63t-14 -71zM321 542q-6 -24 -0.5 -54t15.5 -64.5t20.5 -73t13.5 -80.5q1 -17 -3.5 -38.5t-13.5 -45.5t-21 -49.5t-24 -50.5q-10 -22 -14 -37t-6 -24.5
t-3.5 -13.5t-6.5 -4q-3 0 -8 9.5t-7 26t-1 37.5t10 45q5 15 11.5 42.5t9.5 60.5t1 68t-13 67q-29 78 -19.5 146.5t41.5 131.5q6 11 9.5 25l6.5 26t5.5 19.5t4.5 7.5q9 -2 11.5 -45.5t-19.5 -131.5zM715 248q7 -1 24 -5.5t38 -13.5t44 -22.5t43 -30.5t33 -38t15 -46
q4 -51 -33.5 -90.5t-97.5 -67t-133 -44t-141 -20.5q-97 -6 -188.5 5.5t-162 37t-113 64t-42.5 85.5q0 30 13.5 55t34.5 45t47.5 36t53 28t50 20t39.5 12q12 4 14.5 -4t-13.5 -13q-4 -2 -29.5 -13t-55 -31t-53 -48.5t-23.5 -64.5q0 -33 32 -60t85.5 -45t123 -27.5t144.5 -8.5
q64 1 132 13.5t123.5 34.5t91.5 51.5t36 64.5q0 23 -16 44.5t-38.5 39t-45 29t-35.5 14.5q-14 4 -10.5 9.5t13.5 4.5z" />
    <glyph glyph-name="uni2669" unicode="&#x2669;" 
d="M556 705v-618q0 -40 -14.5 -73.5t-40.5 -57.5t-61.5 -37.5t-77.5 -13.5q-46 0 -67.5 16.5t-21.5 53.5q0 30 16 56t44.5 45t66.5 29.5t83 10.5h4l1 589h68z" />
    <glyph glyph-name="musicalnote" unicode="&#x266a;" 
d="M407 708l17 1q8 -1 13.5 -2.5t12 -5.5t14.5 -12.5t22 -22.5q13 -13 30.5 -33t31.5 -32l18 -15q22 -20 31.5 -26.5t13.5 -9.5q4 -4 4 -5v-1q4 -2 7 -6l29.5 -29.5t22.5 -23.5t18 -21t16 -22q20 -31 27.5 -56.5t7.5 -55.5q0 -63 -26 -106q-15 -26 -37 -50.5t-45.5 -44.5
t-45.5 -33t-38 -14q-2 1 -3 2q-3 3 -3 4q-1 0 -3 5q-1 2 -1 5q1 2 4.5 7t19.5 20q21 18 38.5 39.5t30.5 44.5t20 45.5t7 41.5q0 70 -80 142l-31.5 24.5t-26 19t-25 16t-27.5 15.5l-1 -421q0 -41 -14.5 -74.5t-40 -58.5t-60.5 -38.5t-77 -13.5q-41 0 -61 17.5t-20 49.5
q0 31 15.5 57t42.5 45t63.5 29.5t79.5 10.5h2q1 0 2.5 0.5t4.5 0.5v591z" />
    <glyph glyph-name="uni266C" unicode="&#x266c;" 
d="M779 720v-548q0 -53 -16 -85t-52 -56q-26 -23 -57.5 -33.5t-67.5 -10.5q-44 0 -67 17t-23 49q0 17 7 35t20 35t31 31t39 22q15 7 27 11t25 6t28 2.5t38 0.5v262l-343 -77v-287q0 -58 -19.5 -94t-61.5 -62q-30 -22 -57.5 -30.5t-59.5 -8.5q-42 0 -66 18.5t-24 50.5
q0 28 16.5 53.5t45 44.5t66 30.5t78.5 11.5h13v511zM711 553v59l-343 -73v-61z" />
    <glyph glyph-name="uni266D" unicode="&#x266d;" 
d="M433 381q45 47 96 52t90 -23.5t56 -86t-7 -134.5q-18 -56 -45 -95.5t-59 -66.5t-66 -42.5t-66 -24t-58.5 -11t-43.5 -3.5v727h103v-292zM434 45q27 8 50.5 25t41.5 40t31.5 57t18 67t-2.5 58.5t-29 33.5q-27 9 -47.5 -0.5t-34.5 -25.5t-21 -31.5t-7 -17.5v-206z" />
    <glyph glyph-name="uni3000" unicode="&#x3000;" 
 />
    <glyph glyph-name="uni3001" unicode="&#x3001;" 
d="M36 66q9 8 24.5 4t30.5 -13q39 -22 70.5 -49.5t51.5 -60.5q6 -10 10 -25.5t2.5 -31t-9.5 -29t-25 -20.5q-17 -6 -29.5 -2.5t-21 13.5t-13 24t-5.5 29q-3 67 -77 120q-3 3 -7 7.5t-6 10.5t-1.5 12t5.5 11z" />
    <glyph glyph-name="uni3002" unicode="&#x3002;" 
d="M150 80q26 0 48.5 -9.5t39.5 -25.5t26.5 -38t9.5 -47t-9.5 -47t-26.5 -38t-39.5 -25.5t-48.5 -9.5t-48 9.5t-39 25.5t-26.5 38t-9.5 47t9.5 47t26.5 38t39 25.5t48 9.5zM150 -94q22 0 38 16.5t16 37.5t-16 37.5t-38 16.5q-21 0 -37 -16.5t-16 -37.5t16 -37.5t37 -16.5z
" />
    <glyph glyph-name="uni3003" unicode="&#x3003;" 
d="M511 426q6 14 22 28t45 11q16 -2 25 -10.5t12 -19.5t1.5 -22t-5.5 -18l-131 -189q-6 -8 -17.5 -16.5t-25.5 -3.5q-12 5 -13 17.5t4 25.5zM359 438q6 14 22 28t44 11q16 -2 25.5 -10.5t12.5 -19.5t1.5 -22t-7.5 -18l-132 -189q-5 -8 -15.5 -16.5t-24.5 -3.5
q-13 5 -13.5 17t4.5 26z" />
    <glyph glyph-name="uni3008" unicode="&#x3008;" 
d="M651 300l240 -415l-80 -49l-265 464l264 466l83 -46z" />
    <glyph glyph-name="uni3009" unicode="&#x3009;" 
d="M266 300l-242 420l82 46l265 -466l-265 -464l-80 49z" />
    <glyph glyph-name="uni300A" unicode="&#x300a;" 
d="M820 746h67l-235 -451l235 -447h-66l-236 447zM717 746h66l-237 -451l237 -447h-66l-236 447z" />
    <glyph glyph-name="uni300B" unicode="&#x300b;" 
d="M365 295l-236 451h66l235 -451l-235 -447h-66zM262 295l-237 451h66l236 -451l-236 -447h-66z" />
    <glyph glyph-name="uni300C" unicode="&#x300c;" 
d="M630 721v-390h-70v458h327v-68h-257z" />
    <glyph glyph-name="uni300D" unicode="&#x300d;" 
d="M21 -189v68h258v390h68v-458h-326z" />
    <glyph glyph-name="uni300E" unicode="&#x300e;" 
d="M687 661v-330h-132v458h328v-128h-196zM615 389h13v330h195v12h-208v-342z" />
    <glyph glyph-name="uni300F" unicode="&#x300f;" 
d="M358 269v-458h-327v128h196v330h131zM287 -119h-196v-12h208v342h-12v-330z" />
    <glyph glyph-name="uni3010" unicode="&#x3010;" 
d="M502 -180v959h385q-60 -38 -109.5 -89.5t-84.5 -113t-54.5 -131.5t-19.5 -145t19.5 -145.5t54.5 -132t85 -113t110 -89.5h-386z" />
    <glyph glyph-name="uni3011" unicode="&#x3011;" 
d="M414 -179h-386q60 38 110 89.5t85 113t54.5 132t19.5 145.5t-19.5 145t-54.5 131.5t-84.5 113t-109.5 89.5h385v-959z" />
    <glyph glyph-name="uni3013" unicode="&#x3013;" 
d="M815 379h-715v87h715v-87zM815 133h-715v88h715v-88z" />
    <glyph glyph-name="uni3014" unicode="&#x3014;" 
d="M513 -75v761l357 93v-110l-245 -65v-598l245 -71v-115z" />
    <glyph glyph-name="uni3015" unicode="&#x3015;" 
d="M43 -180v115l246 71v598l-246 65v110l358 -93v-761z" />
    <glyph glyph-name="uni3041" unicode="&#x3041;" 
d="M399 -58l-6 24q-66 -44 -125 -44q-19 0 -35.5 8t-28.5 22t-19 32.5t-7 38.5q0 131 173 215q0 26 0.5 38t2.5 26q-23 -2 -45 -3t-45 -3q-6 16 -9.5 28t-7.5 22.5t-7.5 21t-9.5 23.5q25 -3 38.5 -4t27.5 -1h34t35 2q4 26 8.5 52t10.5 52l46 -11q29 -7 40.5 -15.5
t11.5 -16.5q-2 -15 -19 -25q-2 -8 -3 -12.5t-3 -11.5q19 3 33 5.5l28 5t29.5 5.5t37.5 8l12 -85q-26 -6 -46.5 -10.5t-38.5 -7.5t-34 -5.5t-34 -3.5v-21t-2 -21l-1 -6q12 2 19.5 3.5t13.5 2.5t11.5 1.5t12.5 0.5q2 15 4 20t4 20l94 -28q-4 -11 -5 -11.5t-3 -7.5
q147 -42 147 -167q0 -35 -14.5 -68.5t-38.5 -61t-55.5 -46t-66.5 -23.5l-68 92q24 -2 51 5t49.5 21t37 36t14.5 50q0 30 -22 52.5t-64 31.5q-12 -26 -23 -46t-22 -38t-23.5 -34t-28.5 -34q5 -13 11 -25t8 -26zM356 143q-26 -17 -42 -31t-26 -26t-13.5 -23.5t-3.5 -24.5
q0 -24 21 -24q4 0 6.5 0.5t7.5 3.5l49 29q2 2 5.5 4t8.5 4q-3 15 -4.5 25.5t-3 20.5l-3 20t-2.5 22zM466 185q-7 -2 -13 -3.5t-12 -3.5q2 -8 2 -16.5t1 -17.5q4 6 6.5 11t4.5 10z" />
    </font>
</defs>
</svg>
