<?xml version="1.0" standalone="no"?>
<!DOCTYPE svg PUBLIC "-//W3C//DTD SVG 1.1//EN" "http://www.w3.org/Graphics/SVG/1.1/DTD/svg11.dtd" >
<svg>
<metadata>
Created by FontForge 20120731 at Wed Apr 26 22:37:35 2023
 By fw_worker
</metadata>
<defs>
<font id="BrandNewHyosungOTFM" horiz-adv-x="910" >
  <font-face 
    font-family="(null)"
    font-weight="500"
    font-stretch="normal"
    units-per-em="1000"
    panose-1="2 0 6 3 0 0 0 0 0 0"
    ascent="800"
    descent="-200"
    x-height="523"
    cap-height="680"
    bbox="-31 -263.06 963 831"
    underline-thickness="50"
    underline-position="-100"
    stemh="-1"
    stemv="-1"
    unicode-range="U+000A-FFE6"
  />
<missing-glyph horiz-adv-x="900" 
d="M810 -100h-721v800h721v-800zM140 650v-700h619v700h-619z" />
    <glyph glyph-name=".notdef" horiz-adv-x="900" 
d="M810 -100h-721v800h721v-800zM140 650v-700h619v700h-619z" />
    <glyph glyph-name="Korea1.1" unicode=" " horiz-adv-x="280" 
 />
    <glyph glyph-name="Korea1.2" unicode="!" horiz-adv-x="408" 
d="M139 719h130l-16 -556h-98zM267 69v-127l-126 -17v144h126z" />
    <glyph glyph-name="Korea1.3" unicode="&#x22;" horiz-adv-x="491" 
d="M287 773h120l-10 -235h-100zM85 773h121l-10 -235h-101z" />
    <glyph glyph-name="Korea1.4" unicode="#" horiz-adv-x="566" 
d="M498 267v-86h-85l-27 -197h-98l27 197h-112l-27 -197h-98l27 197h-73v86h84l29 206h-77v86h89l22 158h98l-22 -158h112l23 158h98l-22 -158h67v-86h-80l-28 -206h73zM242 473l-28 -206h113l29 206h-114z" />
    <glyph glyph-name="Korea1.5" unicode="$" horiz-adv-x="566" 
d="M335 799v-70c47 -3 102 -11 145 -26c-3 -33 -7 -66 -11 -99c-44 17 -88 27 -134 29v-229c83 -40 173 -91 173 -213c0 -116 -70 -183 -173 -207v-74h-88v63c-4 -1 -8 -1 -11 -1c-69 0 -131 16 -184 33l12 105c38 -20 109 -43 170 -43c3 0 8 0 13 1v249
c-85 40 -178 84 -178 205c0 111 76 181 178 201v76h88zM188 532c0 -37 24 -61 59 -83v170c-33 -14 -59 -42 -59 -87zM387 183c0 40 -21 66 -52 87v-173c29 19 52 47 52 86z" />
    <glyph glyph-name="Korea1.6" unicode="%" horiz-adv-x="930" 
d="M631 730h99l-424 -759h-100zM412 530c0 -111 -53 -196 -191 -196c-128 0 -191 88 -191 200c0 111 63 196 191 196c138 0 191 -89 191 -200zM296 534c0 48 -8 122 -75 122c-61 0 -73 -78 -73 -126c0 -47 12 -122 73 -122c67 0 75 76 75 126zM900 167
c0 -111 -53 -196 -190 -196c-129 0 -191 88 -191 200c0 111 62 195 191 195c137 0 190 -88 190 -199zM783 171c0 49 -8 121 -73 121c-62 0 -75 -78 -75 -125c0 -48 13 -122 75 -122c65 0 73 77 73 126z" />
    <glyph glyph-name="Korea1.7" unicode="&#x26;" horiz-adv-x="732" 
d="M581 125l130 -141h-145l-59 67c-52 -56 -121 -80 -208 -80c-142 0 -238 83 -238 207c0 103 57 169 158 211c-46 47 -87 97 -87 169c0 113 93 172 199 172c97 0 189 -55 189 -167c0 -93 -78 -155 -154 -192l144 -170c30 38 45 104 50 179h105c-8 -109 -41 -197 -84 -255z
M416 557c0 61 -37 89 -86 89c-47 0 -88 -34 -88 -93c0 -46 37 -88 69 -120c41 20 105 68 105 124zM447 119l-171 204c-53 -33 -98 -72 -98 -138c0 -75 63 -128 136 -128c63 0 107 35 133 62z" />
    <glyph glyph-name="Korea1.8" unicode="'" horiz-adv-x="288" 
d="M83 768h121l-10 -235h-101z" />
    <glyph glyph-name="Korea1.9" unicode="(" horiz-adv-x="343" 
d="M58 309c0 181 70 314 168 453h103c-86 -139 -156 -277 -156 -453c0 -172 71 -314 156 -451h-103c-98 138 -168 273 -168 451z" />
    <glyph glyph-name="Korea1.10" unicode=")" horiz-adv-x="343" 
d="M284 310c0 -179 -71 -314 -169 -453h-103c85 137 157 281 157 453c0 175 -71 313 -157 452h103c98 -139 169 -271 169 -452z" />
    <glyph glyph-name="Korea1.11" unicode="*" horiz-adv-x="510" 
d="M458 633l32 -101l-173 -35l118 -134l-90 -61l-88 151l-91 -151l-89 61l121 134l-175 35l33 101l167 -68l-18 174h108l-17 -173z" />
    <glyph glyph-name="Korea1.12" unicode="+" horiz-adv-x="610" 
d="M565 410v-91h-208v-214h-104v214h-208v91h208v212h104v-212h208z" />
    <glyph glyph-name="Korea1.13" unicode="," horiz-adv-x="288" 
d="M98 86h125l-86 -250h-104z" />
    <glyph glyph-name="Korea1.14" unicode="-" horiz-adv-x="460" 
d="M411 409v-91h-361v91h361z" />
    <glyph glyph-name="Korea1.15" unicode="." horiz-adv-x="295" 
d="M209 80v-135l-125 -1v136h125z" />
    <glyph glyph-name="Korea1.16" unicode="/" horiz-adv-x="460" 
d="M304 740h105l-253 -809h-105z" />
    <glyph glyph-name="Korea1.17" unicode="0" horiz-adv-x="579" 
d="M531 194c0 -150 -88 -243 -242 -243c-155 0 -243 93 -243 243v295c0 150 88 244 243 244c154 0 242 -94 242 -244v-295zM161 222c0 -119 43 -179 128 -179c84 0 128 60 128 179v239c0 119 -44 180 -128 180c-85 0 -128 -61 -128 -180v-239z" />
    <glyph glyph-name="Korea1.18" unicode="1" horiz-adv-x="579" 
d="M400 717v-744l-115 -18v666h-142v96h257z" />
    <glyph glyph-name="Korea1.19" unicode="2" horiz-adv-x="579" 
d="M525 61l-14 -94h-464v115c28 24 86 77 130 119c89 88 211 206 211 314c0 73 -53 119 -140 119h-182v94h203c148 0 239 -80 239 -218c0 -124 -122 -247 -204 -332c-41 -40 -99 -93 -125 -117h346z" />
    <glyph glyph-name="Korea1.20" unicode="3" horiz-adv-x="579" 
d="M527 172c0 -172 -132 -220 -293 -220h-181v94h172c96 0 180 40 180 129c0 106 -91 142 -186 142h-74v94h70c82 0 164 32 164 117c0 78 -52 108 -134 108h-164v95l187 -1c131 0 232 -58 232 -193c0 -92 -63 -154 -144 -173v-2c96 -16 171 -84 171 -190z" />
    <glyph glyph-name="Korea1.21" unicode="4" horiz-adv-x="579" 
d="M17 113v94l291 510h158v-512h102l-17 -92h-85v-141l-114 -17v158h-335zM132 205h220v399h-2z" />
    <glyph glyph-name="Korea1.22" unicode="5" horiz-adv-x="579" 
d="M517 269v-107c0 -133 -96 -208 -276 -208h-170v93h163c92 0 166 38 166 121v82c0 67 -50 104 -113 104c-45 0 -81 -19 -96 -39h-104c3 133 5 268 7 402h419l-17 -92h-292c-1 -72 -3 -144 -5 -216c19 21 68 42 117 42c104 0 201 -67 201 -182z" />
    <glyph glyph-name="Korea1.23" unicode="6" horiz-adv-x="579" 
d="M532 262v-115c0 -120 -96 -195 -237 -195c-133 0 -237 66 -237 203v303c0 143 68 259 226 259h218l-16 -96h-195c-87 0 -128 -67 -128 -152c0 -31 0 -61 1 -92c36 54 95 74 157 74c129 0 211 -79 211 -189zM415 152v96c0 72 -51 111 -120 111c-61 0 -120 -39 -120 -112
v-91c0 -75 37 -113 118 -113c82 0 122 39 122 109z" />
    <glyph glyph-name="Korea1.24" unicode="7" horiz-adv-x="579" 
d="M515 717v-95l-268 -655h-126l281 657h-336v93h449z" />
    <glyph glyph-name="Korea1.25" unicode="8" horiz-adv-x="579" 
d="M289 734c131 0 230 -85 230 -184v-28c0 -72 -46 -134 -124 -162c89 -28 149 -101 149 -184v-27c0 -117 -111 -199 -255 -199c-143 0 -253 82 -253 199v27c0 83 59 156 149 184c-79 28 -125 90 -125 162v28c0 99 99 184 229 184zM289 412c72 0 117 45 117 108v22
c0 60 -45 104 -117 104c-71 0 -116 -44 -116 -104v-22c0 -63 45 -108 116 -108zM289 43c76 0 129 40 129 115v29c0 72 -57 128 -129 128c-70 0 -128 -56 -128 -128v-29c0 -75 53 -115 128 -115z" />
    <glyph glyph-name="Korea1.26" unicode="9" horiz-adv-x="579" 
d="M52 423v103c0 120 100 203 235 203s241 -74 241 -206v-311c0 -140 -77 -251 -231 -251h-212v97h204c91 0 129 68 129 146v103s0 1 -1 1c-33 -54 -89 -77 -153 -77c-133 0 -212 85 -212 192zM168 520v-84c0 -71 60 -114 120 -114c65 0 124 41 124 113v66
c0 85 -35 136 -125 136c-78 0 -119 -44 -119 -117z" />
    <glyph glyph-name="Korea1.27" unicode=":" horiz-adv-x="288" 
d="M204 585v-132h-121v132h121zM204 129v-132h-121v132h121z" />
    <glyph glyph-name="Korea1.28" unicode=";" horiz-adv-x="288" 
d="M205 585v-132h-122v132h122zM97 133h124l-86 -251h-105z" />
    <glyph glyph-name="Korea1.29" unicode="&#x3c;" horiz-adv-x="550" 
d="M490 142v-121l-436 304v80l436 303v-121l-332 -222z" />
    <glyph glyph-name="Korea1.30" unicode="=" horiz-adv-x="550" 
d="M492 525v-91h-432v91h432zM492 297v-92h-432v92h432z" />
    <glyph glyph-name="Korea1.31" unicode="&#x3e;" horiz-adv-x="550" 
d="M487 405v-80l-436 -304v121l332 223l-332 222v121z" />
    <glyph glyph-name="Korea1.32" unicode="?" horiz-adv-x="521" 
d="M484 541c0 -92 -65 -149 -119 -212c-32 -37 -51 -74 -51 -114v-51h-108v53c0 68 28 114 69 162c38 44 85 88 85 151c0 73 -60 103 -125 103c-63 0 -123 -20 -166 -45l-12 104c53 19 125 38 195 38c117 0 232 -62 232 -189zM323 69v-128l-126 -17v145h126z" />
    <glyph glyph-name="Korea1.33" unicode="@" horiz-adv-x="810" 
d="M771 427c0 -198 -172 -284 -249 -284c-29 0 -55 19 -57 56h-2c-29 -29 -68 -56 -111 -56c-85 0 -154 73 -154 165c0 130 90 253 218 253c49 0 89 -20 119 -66l14 52h80l-66 -257c-4 -14 -8 -29 -8 -41c1 -13 4 -22 18 -22c57 0 124 77 124 188c0 161 -129 237 -273 237
c-172 0 -291 -131 -291 -292c0 -185 124 -290 293 -290c85 0 169 29 227 83h80c-69 -104 -183 -161 -310 -161c-204 0 -380 131 -380 369c0 218 170 369 382 369c178 0 346 -114 346 -303zM503 389c0 48 -34 85 -80 85c-77 0 -130 -84 -130 -152c0 -53 31 -91 83 -91
c73 0 127 88 127 158z" />
    <glyph glyph-name="Korea1.34" unicode="A" horiz-adv-x="748" 
d="M438 717l304 -750h-130l-75 199h-330l-76 -199h-122l307 750h122zM244 259h257l-127 338z" />
    <glyph glyph-name="Korea1.35" unicode="B" horiz-adv-x="635" 
d="M605 175c0 -157 -121 -208 -268 -208h-251v750h236c138 0 237 -57 238 -191c1 -87 -47 -146 -138 -166v-2c102 -10 183 -82 183 -183zM446 514c0 82 -59 110 -130 110h-113v-219h88c69 0 155 16 155 109zM484 185c0 108 -90 127 -176 127h-105v-251h117
c88 0 164 30 164 124z" />
    <glyph glyph-name="Korea1.36" unicode="C" horiz-adv-x="635" 
d="M374 -41c-207 0 -314 98 -314 292v172c0 188 113 292 311 292h196v-100h-188c-132 0 -200 -70 -200 -210v-135c0 -131 55 -211 199 -211h221l-20 -100h-205z" />
    <glyph glyph-name="Korea1.37" unicode="D" horiz-adv-x="748" 
d="M686 346c0 -262 -112 -379 -347 -379h-250v750h250c226 0 347 -123 347 -371zM563 345c0 190 -84 274 -210 274h-147v-553h138c144 0 219 81 219 279z" />
    <glyph glyph-name="Korea1.38" unicode="E" horiz-adv-x="585" 
d="M516 717v-98h-318v-214h294v-100h-294v-239h327l-17 -98h-427v749h435z" />
    <glyph glyph-name="Korea1.39" unicode="F" horiz-adv-x="521" 
d="M494 717v-98h-290v-214h278v-99h-278v-330l-117 -16v757h407z" />
    <glyph glyph-name="Korea1.40" unicode="G" horiz-adv-x="656" 
d="M378 58h112v230h-127v94h242v-406l-115 -17h-110c-213 0 -320 96 -320 289v181c0 186 110 290 316 290h205c-5 -34 -12 -67 -17 -100h-183c-143 0 -202 -78 -202 -208v-144c0 -134 54 -209 199 -209z" />
    <glyph glyph-name="Korea1.41" unicode="H" horiz-adv-x="748" 
d="M659 726v-749c-38 -5 -77 -11 -116 -17v345h-337v-328c-39 -5 -78 -11 -117 -17v749l117 17v-321h337v304z" />
    <glyph glyph-name="Korea1.42" unicode="I" horiz-adv-x="316" 
d="M216 726v-750l-116 -16v749z" />
    <glyph glyph-name="Korea1.43" unicode="J" horiz-adv-x="408" 
d="M320 727v-576c0 -98 -49 -196 -200 -196h-97v102h72c89 0 108 57 108 139v514z" />
    <glyph glyph-name="Korea1.44" unicode="K" horiz-adv-x="692" 
d="M352 389l326 -422h-154l-248 337l-69 -72v-256l-116 -17v750l116 17v-338l299 329h149z" />
    <glyph glyph-name="Korea1.45" unicode="L" horiz-adv-x="521" 
d="M513 66l-17 -99h-404v743l117 17v-661h304z" />
    <glyph glyph-name="Korea1.46" unicode="M" horiz-adv-x="934" 
d="M853 717v-741l-115 -17v652l-210 -638l-117 -15l-210 653v-635l-114 -17v758h190l194 -609l192 609h190z" />
    <glyph glyph-name="Korea1.47" unicode="N" horiz-adv-x="762" 
d="M675 726v-769h-135l-336 588h-1l2 -580l-115 -17v769h133l338 -588h1l-2 580z" />
    <glyph glyph-name="Korea1.48" unicode="O" horiz-adv-x="675" 
d="M614 196c0 -150 -117 -254 -276 -254c-160 0 -278 104 -278 254v280c0 150 118 255 278 255c159 0 276 -105 276 -255v-280zM176 215c0 -107 56 -176 161 -176c106 0 162 69 162 176v244c0 107 -56 176 -162 176c-105 0 -161 -69 -161 -176v-244z" />
    <glyph glyph-name="Korea1.49" unicode="P" horiz-adv-x="632" 
d="M603 498c0 -161 -111 -222 -254 -222h-141v-300l-117 -16v757h241c153 0 271 -54 271 -219zM481 497c0 89 -58 122 -143 122h-130v-246h140c71 0 133 30 133 124z" />
    <glyph glyph-name="Korea1.50" unicode="Q" horiz-adv-x="712" 
d="M521 -134l-66 96c-34 -13 -72 -21 -114 -21c-162 0 -281 106 -281 256v279c0 150 119 256 281 256c161 0 280 -106 280 -256v-279c0 -74 -28 -136 -76 -181l112 -150h-136zM176 215c0 -106 57 -176 164 -176c21 0 40 3 56 8l-118 171h116l84 -111c18 28 27 65 27 108v244
c0 107 -57 177 -165 177c-107 0 -164 -70 -164 -177v-244z" />
    <glyph glyph-name="Korea1.51" unicode="R" horiz-adv-x="635" 
d="M498 243l124 -278h-129l-106 252c-25 58 -69 71 -96 71h-89v-312l-116 -16v757h237c138 0 250 -50 250 -202c0 -88 -65 -162 -152 -181v-3c36 -12 60 -51 77 -88zM457 505c0 77 -49 114 -124 114h-131v-233h100c90 0 155 43 155 119z" />
    <glyph glyph-name="Korea1.52" unicode="S" horiz-adv-x="594" 
d="M249 392h122c106 0 186 -84 186 -202c0 -153 -102 -229 -265 -229h-242v98h231c101 0 160 38 160 124c0 68 -36 111 -97 111h-116c-110 0 -191 85 -191 199c0 153 88 223 244 223h226l-19 -97h-195c-85 0 -140 -34 -140 -119c0 -68 34 -108 96 -108z" />
    <glyph glyph-name="Korea1.53" unicode="T" horiz-adv-x="579" 
d="M571 717l-17 -98h-207v-643l-116 -17v660h-220v98h560z" />
    <glyph glyph-name="Korea1.54" unicode="U" horiz-adv-x="748" 
d="M664 726v-468c0 -202 -105 -303 -288 -303c-184 0 -289 101 -289 303v451l116 17v-445c0 -136 43 -227 173 -227c129 0 172 91 172 227v428z" />
    <glyph glyph-name="Korea1.55" unicode="V" horiz-adv-x="692" 
d="M560 717h120l-261 -750h-145l-259 750h129l205 -640z" />
    <glyph glyph-name="Korea1.56" unicode="W" horiz-adv-x="971" 
d="M844 717h119l-183 -750h-152l-138 643h-2l-142 -643h-152l-181 750h126l134 -632h2l133 632h164l136 -632h2z" />
    <glyph glyph-name="Korea1.57" unicode="X" horiz-adv-x="692" 
d="M427 359l255 -392h-146l-195 313l-189 -313h-139l253 390l-230 360h144l171 -285l174 285h134z" />
    <glyph glyph-name="Korea1.58" unicode="Y" horiz-adv-x="692" 
d="M546 717h133l-271 -429v-312l-118 -16v329l-273 428h139l194 -321z" />
    <glyph glyph-name="Korea1.59" unicode="Z" horiz-adv-x="579" 
d="M550 66l-17 -99h-494v101l355 551h-341v98h470v-101l-354 -550h381z" />
    <glyph glyph-name="Korea1.60" unicode="[" horiz-adv-x="343" 
d="M295 -64v-79h-204v904h204v-79h-102v-746h102z" />
    <glyph glyph-name="Korea1.61" unicode="\" horiz-adv-x="460" 
d="M156 731l253 -809h-105l-253 809h105z" />
    <glyph glyph-name="Korea1.62" unicode="]" horiz-adv-x="343" 
d="M251 761v-904h-204v79h103v746h-103v79h204z" />
    <glyph glyph-name="Korea1.63" unicode="^" horiz-adv-x="510" 
d="M300 751l179 -271h-123l-101 182l-100 -182h-123l179 271h89z" />
    <glyph glyph-name="Korea1.64" unicode="_" horiz-adv-x="460" 
d="M462 -117v-83h-464v83h464z" />
    <glyph glyph-name="Korea1.65" unicode="`" horiz-adv-x="288" 
d="M168 756l93 -167h-91l-138 167h136z" />
    <glyph glyph-name="Korea1.66" unicode="a" horiz-adv-x="622" 
d="M451 50c-34 -60 -105 -93 -187 -93c-116 0 -220 71 -220 205v162c0 129 99 205 215 205c89 0 148 -33 188 -94v83l110 17v-565c-35 -6 -71 -11 -106 -16v96zM447 210c1 32 -1 65 -1 97c0 66 -61 130 -153 133c-71 0 -134 -42 -134 -121v-153c0 -75 57 -120 125 -120
c115 0 163 79 163 164z" />
    <glyph glyph-name="Korea1.67" unicode="b" horiz-adv-x="630" 
d="M180 46v-78c-36 -5 -71 -11 -107 -17v778l111 17v-307c38 59 96 95 183 95c117 0 220 -73 220 -206v-170c0 -130 -102 -205 -217 -205c-84 0 -157 31 -190 93zM183 206c0 -83 48 -165 160 -165c69 0 128 42 128 121v161c0 76 -59 122 -128 122c-92 0 -158 -66 -158 -133z
" />
    <glyph glyph-name="Korea1.68" unicode="c" horiz-adv-x="506" 
d="M53 176v151c0 129 91 213 235 213h162v-90h-151c-74 0 -132 -47 -132 -135v-131c0 -79 47 -132 130 -132h171l-17 -88h-164c-152 0 -234 85 -234 212z" />
    <glyph glyph-name="Korea1.69" unicode="d" horiz-adv-x="635" 
d="M453 46c-34 -58 -104 -93 -186 -93c-116 0 -222 71 -222 205v170c0 130 101 206 216 206c90 0 148 -34 188 -95v290l110 17v-778c-36 -5 -71 -11 -106 -17v95zM449 206c-1 35 -1 71 -1 106c0 65 -62 133 -156 133c-72 0 -131 -43 -131 -122v-161c0 -76 54 -121 122 -121
c116 0 166 79 166 165z" />
    <glyph glyph-name="Korea1.70" unicode="e" horiz-adv-x="579" 
d="M530 205h-375v-41c0 -83 44 -117 150 -117h197l-17 -89h-186c-166 0 -251 76 -251 211v143c0 124 100 227 249 227c137 0 233 -92 233 -221v-113zM155 288h270v32c0 85 -47 133 -128 133c-92 0 -142 -58 -142 -150v-15z" />
    <glyph glyph-name="Korea1.71" unicode="f" horiz-adv-x="408" 
d="M130 -42v462h-105v86h105v56c0 139 50 206 180 206h74v-88h-55c-70 0 -88 -42 -88 -114v-60h148l-16 -86h-132v-445z" />
    <glyph glyph-name="Korea1.72" unicode="g" horiz-adv-x="618" 
d="M443 90c-29 -59 -91 -100 -171 -100c-116 0 -222 71 -222 205v137c0 130 101 206 216 206c80 0 144 -29 180 -97v78c36 5 71 12 107 17v-511c0 -153 -75 -241 -274 -241h-191v88h194c142 0 161 80 161 218zM440 216c-1 34 1 68 1 102c0 68 -62 131 -146 131
c-69 0 -129 -43 -129 -122v-128c0 -76 53 -121 121 -121c94 0 152 62 153 138z" />
    <glyph glyph-name="Korea1.73" unicode="h" horiz-adv-x="635" 
d="M559 310v-334c-37 -5 -73 -11 -110 -17v305c0 105 -21 179 -106 179c-105 0 -156 -91 -156 -206v-261c-37 -5 -73 -11 -110 -17v770c37 6 73 12 110 17v-299h1c37 55 99 87 174 87c135 0 197 -86 197 -224z" />
    <glyph glyph-name="Korea1.74" unicode="i" horiz-adv-x="290" 
d="M203 747v-122h-118v122h118zM199 522v-546l-110 -17v563h110z" />
    <glyph glyph-name="Korea1.75" unicode="j" horiz-adv-x="300" 
d="M212 747v-122h-119v122h119zM208 522v-536c0 -106 -7 -207 -141 -207h-65v92h40c38 0 55 35 55 110v541h111z" />
    <glyph glyph-name="Korea1.76" unicode="k" horiz-adv-x="579" 
d="M534 521l-210 -223l234 -331h-140c-55 84 -111 168 -166 253l-64 -69v-175l-111 -16v770l111 16v-458c67 78 135 156 203 233h143z" />
    <glyph glyph-name="Korea1.77" unicode="l" horiz-adv-x="296" 
d="M203 747v-771l-110 -17v771z" />
    <glyph glyph-name="Korea1.78" unicode="m" horiz-adv-x="907" 
d="M844 333v-353l-111 -17v348c0 61 -11 141 -91 141c-100 0 -131 -103 -131 -194v-278l-111 -17v348c0 61 -11 141 -92 141c-99 0 -131 -103 -131 -194v-278l-110 -17v557l104 15v-86c41 64 97 91 169 91c65 0 126 -31 154 -102c36 74 114 102 168 102
c136 0 182 -89 182 -207z" />
    <glyph glyph-name="Korea1.79" unicode="n" horiz-adv-x="619" 
d="M554 315v-334c-36 -5 -73 -11 -110 -17v307c0 108 -20 179 -112 181c-116 0 -159 -94 -159 -208v-263c-37 -5 -74 -11 -111 -17v557l107 11v-87c38 60 109 94 186 94c138 0 199 -87 199 -224z" />
    <glyph glyph-name="Korea1.80" unicode="o" horiz-adv-x="601" 
d="M546 161c0 -122 -95 -205 -246 -205c-152 0 -245 83 -245 205v166c0 122 93 210 245 210c151 0 246 -88 246 -210v-166zM436 315c0 79 -49 134 -136 134s-135 -55 -135 -134v-142c0 -77 48 -130 135 -130s136 53 136 130v142z" />
    <glyph glyph-name="Korea1.81" unicode="p" horiz-adv-x="635" 
d="M186 69c1 -92 1 -184 1 -276c-37 -6 -73 -12 -110 -17v741l106 17v-92c36 64 99 96 176 96c118 0 220 -72 220 -206v-154c0 -130 -103 -205 -217 -205c-82 0 -147 40 -176 96zM190 200c0 -74 58 -138 149 -138c69 0 125 41 125 120v145c0 76 -57 122 -125 122
c-84 0 -150 -59 -150 -130c0 -40 0 -79 1 -119z" />
    <glyph glyph-name="Korea1.82" unicode="q" horiz-adv-x="635" 
d="M450 69c-28 -57 -93 -94 -174 -96c-116 0 -220 73 -220 205v154c0 129 99 206 215 206c80 0 145 -29 182 -96c0 25 1 51 1 76c35 6 70 12 105 17v-742c-37 -6 -73 -12 -110 -17c0 98 0 196 1 293zM446 200c1 40 1 78 1 118c0 68 -63 131 -146 131
c-70 0 -129 -43 -129 -122v-145c0 -75 53 -120 120 -120c94 0 153 62 154 138z" />
    <glyph glyph-name="Korea1.83" unicode="r" horiz-adv-x="394" 
d="M367 539v-104h-12c-101 0 -170 -74 -170 -202v-254c-37 -6 -74 -12 -110 -17v556l101 18v-107h1c20 63 94 110 178 110h12z" />
    <glyph glyph-name="Korea1.84" unicode="s" horiz-adv-x="512" 
d="M232 295h92c85 -1 152 -69 152 -161c0 -117 -89 -177 -204 -177h-234v90h211c74 0 119 28 119 83c0 52 -28 79 -81 79h-103c-82 1 -147 71 -147 157c0 114 74 166 189 166h211l-18 -89h-176c-64 0 -99 -20 -99 -72c0 -51 34 -76 88 -76z" />
    <glyph glyph-name="Korea1.85" unicode="t" horiz-adv-x="408" 
d="M121 115v318h-94v88h94v119l111 24v-143h149l-17 -88h-132v-295c0 -57 25 -93 72 -93h84l-16 -90h-84c-105 0 -167 54 -167 160z" />
    <glyph glyph-name="Korea1.86" unicode="u" horiz-adv-x="619" 
d="M550 535v-552c-36 -6 -71 -12 -106 -17v86h-1c-35 -57 -103 -93 -178 -93c-136 0 -196 86 -196 222v337c37 6 73 12 110 17v-310c0 -106 20 -179 108 -179c110 0 153 93 153 207v265c36 6 73 12 110 17z" />
    <glyph glyph-name="Korea1.87" unicode="v" horiz-adv-x="579" 
d="M452 527h110l-206 -555h-129l-209 555h120l157 -443h2z" />
    <glyph glyph-name="Korea1.88" unicode="w" horiz-adv-x="898" 
d="M781 526h107l-175 -554h-127l-135 459l-134 -459h-129l-178 554h119l126 -453l132 453h131l134 -452z" />
    <glyph glyph-name="Korea1.89" unicode="x" horiz-adv-x="579" 
d="M361 261l200 -289h-135l-141 218l-142 -218h-125l203 289l-180 266h136l118 -197l123 197h120z" />
    <glyph glyph-name="Korea1.90" unicode="y" horiz-adv-x="579" 
d="M451 523h111l-213 -526c-42 -103 -81 -216 -216 -216h-82v87h69c68 0 102 64 117 125l-23 60l-195 470h121l154 -409h1z" />
    <glyph glyph-name="Korea1.91" unicode="z" horiz-adv-x="521" 
d="M492 80l-16 -87h-435v88l290 358h-276v88h415v-85l-289 -362h311z" />
    <glyph glyph-name="Korea1.92" unicode="{" horiz-adv-x="343" 
d="M325 -49v-74h-80c-56 0 -125 45 -125 131v168c0 72 -47 105 -88 105v76c41 0 88 34 88 101v172c0 88 70 131 125 131h80v-74h-51c-45 0 -52 -37 -52 -77v-167c0 -92 -70 -119 -101 -123v-2c31 -4 101 -25 101 -127v-163c0 -40 7 -77 52 -77h51z" />
    <glyph glyph-name="Korea1.93" unicode="|" horiz-adv-x="310" 
d="M205 760v-883h-99v883h99z" />
    <glyph glyph-name="Korea1.94" unicode="}" horiz-adv-x="343" 
d="M310 357v-76c-41 0 -88 -33 -88 -102v-171c0 -88 -68 -131 -125 -131h-80v74h52c44 0 51 37 51 77v165c0 96 70 121 101 125v2c-31 4 -101 27 -101 125v165c0 40 -7 77 -51 77h-52v74h80c57 0 125 -43 125 -131v-168c0 -71 47 -105 88 -105z" />
    <glyph glyph-name="Korea1.95" unicode="~" horiz-adv-x="566" 
d="M505 445l43 -68c-21 -49 -69 -108 -141 -108c-43 0 -85 16 -127 33s-81 37 -117 37c-48 0 -76 -35 -99 -74l-44 67c26 47 68 108 144 108c42 0 84 -15 126 -32c41 -17 84 -38 117 -38c42 0 76 35 98 75z" />
    <glyph glyph-name="Korea1.96" unicode="&#x20a9;" 
d="M908 384h-87l-92 -410h-147l-82 410h-90l-84 -410h-148l-90 410h-86v77h68l-54 246h124l44 -246h145l48 246h159l49 -246h146l46 246h117l-56 -246h70v-77zM426 461h59l-28 142h-2zM315 384h-116l55 -297h2zM717 384h-118l61 -297h2z" />
    <glyph glyph-name="Korea1.97" unicode="&#x2010;" 
 />
    <glyph glyph-name="Korea1.98" unicode="&#xa9;" 
d="M455 -83c-219 0 -393 155 -393 392c0 235 174 392 393 392s393 -157 393 -392c0 -237 -174 -392 -393 -392zM455 -12c175 0 301 143 301 321c0 177 -126 320 -301 320s-301 -143 -301 -320c0 -178 126 -321 301 -321zM544 193h101c-5 -74 -93 -139 -174 -139
c-149 0 -226 99 -226 261c0 160 77 258 225 258c89 0 175 -77 175 -142h-101c-6 30 -37 66 -86 66c-75 0 -112 -68 -112 -182c0 -110 38 -185 116 -185c39 0 73 27 82 63z" />
    <glyph glyph-name="Korea1.99" 
 />
    <glyph glyph-name="Korea1.100" 
 />
    <glyph glyph-name="Korea1.101" unicode="&#x3000;" 
 />
    <glyph glyph-name="Korea1.102" unicode="&#x3001;" 
d="M125 -98c-2 49 -31 92 -82 127c-6 5 -14 15 -14 24c0 8 5 16 17 16c11 0 25 -6 40 -14c66 -38 138 -94 138 -160c0 -26 -13 -59 -51 -59c-29 0 -46 32 -48 66z" />
    <glyph glyph-name="Korea1.103" unicode="&#x3002;" 
d="M150 75c68 0 121 -51 121 -116c0 -66 -53 -117 -121 -117c-66 0 -119 51 -119 117c0 65 53 116 119 116zM150 -100c33 0 59 27 59 59c0 31 -26 59 -59 59c-31 0 -58 -28 -58 -59c0 -32 27 -59 58 -59z" />
    <glyph glyph-name="Korea1.104" unicode="&#x30fb;" 
 />
    <glyph glyph-name="Korea1.105" unicode="&#x2025;" 
d="M310 324c0 -44 -30 -76 -78 -76c-43 0 -75 33 -75 76c0 44 33 75 79 75c44 0 74 -33 74 -75zM759 324c0 -44 -32 -76 -79 -76c-44 0 -74 33 -74 76c0 44 31 75 79 75c42 0 74 -33 74 -75z" />
    <glyph glyph-name="Korea1.106" unicode="&#x2026;" 
d="M233 324c0 -44 -32 -76 -79 -76c-43 0 -75 33 -75 76c0 44 33 75 79 75c43 0 75 -33 75 -75zM532 324c0 -44 -33 -76 -80 -76c-43 0 -75 33 -75 76c0 44 33 75 80 75c42 0 75 -33 75 -75zM831 324c0 -44 -32 -76 -79 -76c-43 0 -74 33 -74 76c0 44 32 75 78 75
c43 0 75 -33 75 -75z" />
    <glyph glyph-name="Korea1.107" unicode="&#xa8;" horiz-adv-x="450" 
d="M121 679c-40 0 -69 27 -69 65c0 37 29 66 69 66c39 0 67 -29 67 -66c0 -38 -28 -65 -67 -65zM330 679c-40 0 -68 27 -68 65c0 37 28 66 68 66s68 -29 68 -66c0 -38 -28 -65 -68 -65z" />
    <glyph glyph-name="Korea1.108" unicode="&#x3003;" 
d="M463 411l-136 -194c-7 -10 -17 -21 -29 -21s-18 8 -18 19c0 6 2 13 5 21l85 203c10 15 23 38 56 38c32 0 44 -22 44 -42c0 -9 -3 -18 -7 -24zM604 399c-46 -65 -90 -130 -136 -195c-7 -9 -17 -20 -29 -20s-19 8 -19 20c0 6 1 13 4 20c28 67 58 134 86 203
c6 14 25 37 54 37c34 0 46 -21 46 -42c0 -9 -2 -17 -6 -23z" />
    <glyph glyph-name="Korea1.109" unicode="&#x2013;" 
 />
    <glyph glyph-name="Korea1.110" unicode="&#x2014;" 
 />
    <glyph glyph-name="Korea1.111" unicode="&#x2016;" 
 />
    <glyph glyph-name="Korea1.112" unicode="&#xff3c;" 
d="M381 731l253 -809h-105l-253 809h105z" />
    <glyph glyph-name="Korea1.113" unicode="&#xff5e;" 
d="M677 445l43 -68c-21 -49 -69 -108 -141 -108c-43 0 -85 16 -127 33s-81 37 -117 37c-48 0 -76 -35 -99 -74l-44 67c26 47 68 108 144 108c42 0 84 -15 126 -32c41 -17 84 -38 117 -38c42 0 76 35 98 75z" />
    <glyph glyph-name="Korea1.114" unicode="&#x2018;" horiz-adv-x="310" 
d="M103 626c0 79 58 146 120 174l26 -27c-46 -25 -73 -66 -73 -91c0 -9 5 -14 16 -15c35 0 65 -29 65 -67c0 -39 -35 -69 -72 -69c-51 0 -82 46 -82 95z" />
    <glyph glyph-name="Korea1.115" unicode="&#x2019;" horiz-adv-x="310" 
d="M202 670c0 -79 -58 -145 -119 -175l-28 28c48 25 74 67 74 88c0 10 -4 16 -16 17c-35 0 -65 29 -65 68s35 69 72 69c51 0 82 -47 82 -95z" />
    <glyph glyph-name="Korea1.116" unicode="&#x201c;" horiz-adv-x="460" 
d="M265 624c0 78 55 144 119 175c10 -9 18 -19 27 -28c-45 -24 -74 -64 -74 -90c0 -9 5 -14 17 -15c32 0 64 -28 64 -68c0 -39 -34 -69 -71 -69c-50 0 -82 47 -82 95zM85 624c0 79 54 144 118 175l27 -28c-48 -24 -75 -69 -75 -91c0 -9 8 -13 26 -15c29 -4 56 -30 56 -67
c0 -39 -34 -69 -71 -69c-50 0 -81 47 -81 95z" />
    <glyph glyph-name="Korea1.117" unicode="&#x201d;" horiz-adv-x="460" 
d="M196 670c0 -79 -58 -145 -120 -175l-27 28c45 23 74 65 74 89c0 10 -6 15 -17 16c-34 0 -64 29 -64 68s35 69 71 69c51 0 83 -47 83 -95zM376 670c0 -78 -56 -144 -119 -175l-27 28c46 24 74 66 74 90c0 9 -5 14 -17 15c-30 0 -65 26 -65 68c0 39 35 69 72 69
c51 0 82 -47 82 -95z" />
    <glyph glyph-name="Korea1.118" unicode="&#x3014;" 
d="M872 -173l-346 102v753l346 90v-99l-246 -65v-606l246 -71v-104z" />
    <glyph glyph-name="Korea1.119" unicode="&#x3015;" 
d="M391 -71l-347 -102v104l246 71v606l-246 65v99l347 -90v-753z" />
    <glyph glyph-name="Korea1.120" unicode="&#x3008;" 
d="M886 723l-244 -423l242 -419l-69 -42l-264 461l263 463z" />
    <glyph glyph-name="Korea1.121" unicode="&#x3009;" 
d="M33 -119l242 419l-244 423l71 40l264 -463l-264 -461z" />
    <glyph glyph-name="Korea1.122" unicode="&#x300a;" 
d="M883 -152h-59l-238 447l238 451h59l-237 -451zM777 -152h-59c-80 149 -159 298 -238 447c79 150 158 301 238 451h59l-239 -451c80 -149 160 -298 239 -447z" />
    <glyph glyph-name="Korea1.123" unicode="&#x300b;" 
d="M430 295l-237 -447h-60l239 447l-239 451h60zM325 295l-238 -447h-59l239 447l-239 451h59z" />
    <glyph glyph-name="Korea1.124" unicode="&#x300c;" 
d="M882 784v-59h-257v-390h-61v449h318z" />
    <glyph glyph-name="Korea1.125" unicode="&#x300d;" 
d="M346 264v-448h-318v59h258v389h60z" />
    <glyph glyph-name="Korea1.126" unicode="&#x300e;" 
d="M877 667h-196v-330h-120v446h316v-116zM609 737v-354h24v330h196v24h-220z" />
    <glyph glyph-name="Korea1.127" unicode="&#x300f;" 
d="M233 263h119v-446h-315v116h196v330zM281 217v-330h-196v-24h219v354h-23z" />
    <glyph glyph-name="Korea1.128" unicode="&#x3010;" 
d="M889 -180h-366v959h365c-161 -101 -268 -279 -268 -479c0 -201 107 -378 269 -480z" />
    <glyph glyph-name="Korea1.129" unicode="&#x3011;" 
d="M397 780v-959h-365c161 102 269 279 269 480c0 200 -108 378 -268 479h364z" />
    <glyph glyph-name="Korea1.130" unicode="&#xb1;" horiz-adv-x="600" 
d="M551 426v-89h-195v-202h-101v202h-196v89h196v200h101v-200h195zM553 62v-86h-506v86h506z" />
    <glyph glyph-name="Korea1.131" unicode="&#xd7;" horiz-adv-x="600" 
d="M363 358l188 -183l-64 -75l-191 191l-179 -181l-71 66l185 180l-179 177l70 70l174 -179l173 174l68 -65z" />
    <glyph glyph-name="Korea1.132" unicode="&#xf7;" horiz-adv-x="600" 
d="M299 628c45 0 77 -37 77 -77c0 -43 -35 -74 -75 -74c-45 0 -78 29 -78 74c0 40 32 77 76 77zM580 388v-91h-560v91h560zM223 132c0 42 32 76 76 76c45 0 78 -34 78 -76c0 -40 -37 -76 -76 -76c-42 0 -78 31 -78 76z" />
    <glyph glyph-name="Korea1.133" unicode="&#x2260;" 
d="M525 464l143 176c22 -17 44 -34 66 -52c-34 -41 -67 -83 -100 -124h157v-78h-219l-115 -143h334v-78h-397c-52 -66 -104 -130 -157 -195l-67 51c39 48 78 96 116 144h-160v78h223l115 143h-338v78h399z" />
    <glyph glyph-name="Korea1.134" unicode="&#x2264;" 
d="M347 432l398 -207l-45 -80l-539 268c-5 3 -22 13 -22 18s16 14 22 18l527 266l41 -82zM770 79v-90h-634v90h634z" />
    <glyph glyph-name="Korea1.135" unicode="&#x2265;" 
d="M216 715c163 -85 329 -166 493 -250l39 -20c8 -4 17 -9 17 -14s-17 -15 -23 -18c-180 -89 -358 -179 -538 -269c-15 27 -30 54 -46 81c133 69 266 137 399 207l-382 200c14 28 27 56 41 83zM769 78v-89h-635v89h635z" />
    <glyph glyph-name="Korea1.136" unicode="&#x221e;" 
d="M640 481c106 0 194 -81 194 -181c0 -101 -88 -181 -194 -181c-100 0 -160 74 -183 111c-22 -37 -82 -111 -183 -111c-107 0 -194 80 -194 181c0 100 87 181 194 181c101 0 160 -75 183 -112c23 37 83 112 183 112zM274 187c83 0 126 91 135 113c-9 21 -52 113 -135 113
c-67 0 -121 -51 -121 -113c0 -63 54 -113 121 -113zM640 413c-84 0 -127 -92 -136 -113c9 -22 52 -113 136 -113c66 0 121 50 121 113c0 62 -55 113 -121 113z" />
    <glyph glyph-name="Korea1.137" unicode="&#x2234;" 
d="M457 600c45 0 82 -35 82 -78s-37 -79 -82 -79c-42 0 -79 36 -79 79s37 78 79 78zM731 162c46 0 82 -36 82 -79s-36 -79 -81 -79c-42 0 -79 36 -79 79s37 79 78 79zM259 83c0 -42 -36 -79 -80 -79c-43 0 -81 36 -81 79c0 42 37 78 80 78c44 0 81 -36 81 -78z" />
    <glyph glyph-name="Korea1.138" unicode="&#xb0;" horiz-adv-x="450" 
d="M350 712c0 -68 -55 -119 -125 -119c-71 0 -125 51 -125 119c0 66 54 119 125 119c70 0 125 -53 125 -119zM277 712c0 27 -23 51 -52 51c-30 0 -53 -24 -53 -51c0 -28 23 -51 53 -51c29 0 52 23 52 51z" />
    <glyph glyph-name="Korea1.139" unicode="&#x2032;" 
d="M273 764c15 -9 20 -20 20 -33c0 -15 -7 -33 -17 -50c-22 -37 -91 -126 -109 -126c-11 0 -20 8 -20 20c0 4 1 8 3 12c19 50 40 100 60 150c7 17 25 32 45 32c6 0 12 -2 18 -5z" />
    <glyph glyph-name="Korea1.140" unicode="&#x2033;" 
d="M228 699l-110 -141c-17 -23 -50 -5 -41 21l68 166c14 27 48 43 73 27c26 -14 29 -51 10 -73zM369 680l-114 -141c-18 -23 -51 -5 -41 21l70 166c11 27 47 42 69 27c28 -15 34 -52 16 -73z" />
    <glyph glyph-name="Korea1.141" unicode="&#x2103;" 
d="M161 730c64 0 119 -52 119 -115s-55 -116 -119 -116c-66 0 -120 53 -120 116s54 115 120 115zM161 558c33 0 58 24 58 57c0 32 -25 56 -58 56c-34 0 -58 -24 -58 -56c0 -33 24 -57 58 -57zM245 251c0 212 117 361 304 361c177 0 268 -139 285 -228h-105
c-18 60 -69 137 -179 137c-122 0 -202 -109 -202 -270c0 -162 80 -270 202 -270c105 0 163 77 180 145h105c-21 -103 -110 -237 -286 -237c-187 0 -304 149 -304 362z" />
    <glyph glyph-name="Korea1.142" unicode="&#x212b;" 
d="M334 665c0 63 54 115 118 115c65 0 120 -52 120 -115s-55 -116 -120 -116c-64 0 -118 53 -118 116zM509 665c1 31 -25 55 -57 55c-33 0 -57 -24 -57 -55c0 -32 24 -56 57 -56s57 24 57 56zM505 522l253 -623h-100l-61 146h-294l-60 -146h-98l252 623h108zM336 126h228
c-37 96 -76 192 -113 288c-39 -96 -77 -192 -115 -288z" />
    <glyph glyph-name="Korea1.143" unicode="&#xffe0;" 
d="M268 29l-23 -25c-8 -7 -15 -16 -24 -24l-63 -72l-69 60l118 134c-39 70 -54 150 -54 217c0 208 120 350 302 350c86 0 150 -24 195 -61c24 25 71 80 98 111l76 -62l-111 -126c17 -35 24 -71 26 -123h-92c-2 14 -5 26 -8 39c-60 -66 -252 -281 -313 -343
c31 -29 73 -47 129 -47c98 0 175 39 190 189h95c-18 -104 -29 -140 -64 -182c-52 -63 -139 -96 -227 -96c-72 0 -135 22 -181 61zM248 314c0 -42 7 -91 26 -134l284 320l27 32c-35 35 -76 49 -126 49c-151 0 -211 -131 -211 -267z" />
    <glyph glyph-name="Korea1.144" unicode="&#xffe1;" 
d="M703 136l99 -12c-46 -142 -126 -215 -237 -215c-55 0 -103 18 -167 63c-45 -43 -87 -61 -138 -61c-78 0 -143 47 -143 112c0 62 53 103 127 103c41 0 75 -10 125 -40c6 22 9 36 9 57c0 45 -9 81 -30 128h-203v74h164c-35 69 -44 103 -44 151c0 122 84 201 214 201
c122 0 214 -65 242 -220c-30 -6 -61 -10 -89 -16c-26 113 -75 157 -154 157c-76 0 -123 -44 -123 -116c0 -36 17 -77 38 -115l23 -42h254v-74h-223c17 -50 22 -81 22 -113c0 -38 -8 -74 -26 -121c48 -28 81 -40 125 -40c61 0 98 33 135 139zM332 19c-41 25 -58 30 -85 30
c-31 0 -47 -10 -47 -21c0 -17 23 -36 62 -36c22 0 49 9 70 27z" />
    <glyph glyph-name="Korea1.145" unicode="&#xffe5;" 
d="M722 357v-77h-213l-5 -8v-81h218v-77h-218v-198h-110v198h-218v77h218v81l-5 8h-213v77h162c-69 106 -138 211 -208 316h122l197 -303l196 303h122l-207 -316h162z" />
    <glyph glyph-name="Korea1.146" unicode="&#x2642;" 
d="M797 480l-60 -70l-237 202v-292c120 -22 207 -112 207 -220c0 -124 -112 -224 -252 -224c-137 0 -250 100 -250 224c0 107 86 196 203 219v285l-226 -210l-64 62l335 301zM617 100c0 78 -72 142 -162 142c-89 0 -159 -64 -159 -142s70 -142 159 -142c90 0 162 64 162 142
z" />
    <glyph glyph-name="Korea1.147" unicode="&#x2640;" 
d="M797 143h-294v-257h-89v257h-296v83h296v68c-121 21 -208 111 -208 220c0 125 112 224 249 224c140 0 252 -99 252 -224c0 -107 -86 -197 -204 -219v-69h294v-83zM617 514c0 78 -71 142 -162 142c-88 0 -159 -64 -159 -142s71 -142 159 -142c91 0 162 64 162 142z" />
    <glyph glyph-name="Korea1.148" unicode="&#x2220;" 
d="M843 39v-78h-729c-27 0 -46 21 -33 46c1 9 13 19 19 26l629 616l62 -55l-568 -555h620z" />
    <glyph glyph-name="Korea1.149" unicode="&#x22a5;" 
d="M97 -27v76h313v562h93v-562h314v-76h-720z" />
    <glyph glyph-name="Korea1.150" unicode="&#x2312;" 
d="M822 551h-72c-27 116 -153 190 -301 190c-147 0 -269 -73 -298 -190h-72c29 145 184 246 370 246c188 0 344 -101 373 -246z" />
    <glyph glyph-name="Korea1.151" unicode="&#x2202;" 
d="M477 719c102 0 174 -86 174 -211c0 -103 -48 -277 -108 -385c-42 -75 -103 -118 -167 -118c-90 0 -162 55 -162 160c0 153 101 281 212 281c47 0 81 -19 115 -69c18 79 22 105 22 142c0 62 -31 109 -83 109c-38 0 -65 -27 -93 -86l-88 46c44 93 110 131 178 131zM453 151
c22 39 37 83 37 119c0 48 -27 91 -67 91c-64 0 -121 -103 -121 -184c0 -49 26 -85 70 -85c33 0 59 20 81 59z" />
    <glyph glyph-name="Korea1.152" unicode="&#x2207;" 
d="M457 -91c-153 255 -305 510 -457 766h913zM109 615l348 -584c115 195 231 389 347 584h-695z" />
    <glyph glyph-name="Korea1.153" unicode="&#x2261;" 
d="M795 421h-675v72h675v-72zM795 263h-676v74h676v-74zM795 107h-676v72h676v-72z" />
    <glyph glyph-name="Korea1.154" unicode="&#x2252;" 
d="M175 558c0 45 33 80 79 80c47 0 81 -35 81 -80c0 -43 -34 -78 -81 -78c-46 0 -79 35 -79 78zM81 343v79h752v-79h-752zM81 178v79h752v-79h-752zM581 42c0 43 34 79 80 79c45 0 80 -36 80 -79s-35 -79 -80 -79c-46 0 -80 36 -80 79z" />
    <glyph glyph-name="Korea1.155" unicode="&#xa7;" 
d="M645 -17c0 -76 -76 -128 -165 -128c-99 0 -193 61 -193 141c0 32 26 62 61 62c34 0 57 -28 57 -59c0 -15 -7 -28 -7 -42c0 -17 26 -43 71 -43c50 0 83 31 83 57c0 14 -2 21 -8 28l-6 6c-14 16 -52 47 -92 77c-130 95 -181 147 -181 217c0 65 50 114 106 120
c-61 54 -94 106 -94 154c0 82 78 148 167 148c95 0 175 -64 175 -148c0 -34 -23 -65 -57 -65c-37 0 -59 30 -59 65c0 15 9 27 9 41c0 17 -27 42 -70 42c-52 0 -78 -25 -78 -63c0 -35 27 -70 130 -151c105 -82 141 -124 141 -187c0 -68 -46 -101 -99 -121
c59 -43 109 -89 109 -151zM541 230c0 23 -8 40 -30 66c-24 27 -73 68 -91 68h-3c-39 0 -64 -24 -64 -51c0 -25 19 -57 67 -94c36 -28 55 -35 78 -35c26 0 43 16 43 46z" />
    <glyph glyph-name="Korea1.156" unicode="&#x203b;" 
d="M381 624c0 40 31 73 76 73c41 0 76 -32 76 -73c0 -40 -30 -73 -76 -73c-41 0 -76 32 -76 73zM780 690l58 -56l-323 -314l323 -314l-58 -56l-323 313l-323 -313l-58 56l323 314l-323 314l58 56l323 -313zM689 319c0 40 32 73 74 73c43 0 76 -29 76 -72s-31 -72 -76 -72
c-40 0 -74 29 -74 71zM70 319c0 40 31 73 75 73c41 0 74 -29 74 -72s-31 -72 -74 -72s-75 29 -75 71zM381 16c0 39 31 72 76 72c41 0 76 -31 76 -71c0 -43 -31 -74 -76 -74c-41 0 -76 31 -76 73z" />
    <glyph glyph-name="Korea1.157" unicode="&#x2606;" 
d="M637 224c39 -111 76 -223 114 -333c-99 69 -198 139 -296 209c-102 -71 -204 -141 -306 -211c41 111 81 225 122 338l-296 207h372l115 314l105 -314h375c-102 -69 -203 -140 -305 -210zM515 371c-19 59 -36 118 -54 176c-23 -58 -45 -117 -67 -176h-218
c59 -39 117 -79 175 -119l-69 -191l171 118c56 -39 112 -79 169 -118l-63 190c60 41 121 80 182 120h-226z" />
    <glyph glyph-name="Korea1.158" unicode="&#x2605;" 
d="M934 437c-101 -68 -200 -137 -301 -206c38 -109 75 -220 112 -328c-98 68 -194 136 -291 205l-301 -206c40 109 79 220 119 331l-289 204h365c37 103 75 205 113 308c34 -103 68 -205 103 -308h370z" />
    <glyph glyph-name="Korea1.159" unicode="&#x25cb;" 
d="M457 -99c-227 0 -412 179 -412 400s185 400 412 400c228 0 413 -178 413 -400c0 -221 -185 -400 -413 -400zM457 642c-194 0 -352 -153 -352 -341s158 -341 352 -341c193 0 351 153 351 341c0 187 -158 341 -351 341z" />
    <glyph glyph-name="Korea1.160" unicode="&#x25cf;" 
d="M867 301c0 -220 -183 -398 -410 -398c-226 0 -410 178 -410 398s184 398 410 398c227 0 410 -178 410 -398z" />
    <glyph glyph-name="Korea1.161" unicode="&#x25ce;" 
d="M457 -99c-227 0 -412 179 -412 400s185 400 412 400c228 0 413 -178 413 -400c0 -221 -185 -400 -413 -400zM457 642c-194 0 -352 -153 -352 -341s158 -341 352 -341c193 0 351 153 351 341c0 187 -158 341 -351 341zM457 59c-138 0 -248 107 -248 241
c0 133 110 240 248 240c137 0 247 -107 247 -240c0 -134 -110 -241 -247 -241zM457 480c-103 0 -186 -81 -186 -180c0 -100 83 -181 186 -181c102 0 185 81 185 181c0 99 -83 180 -185 180z" />
    <glyph glyph-name="Korea1.162" unicode="&#x25c7;" 
d="M457 -136l-450 436l450 436c149 -146 299 -291 449 -436zM457 650l-361 -350c120 -118 240 -234 361 -350c120 116 240 232 360 350z" />
    <glyph glyph-name="Korea1.163" unicode="&#x25c6;" 
d="M902 300c-148 -145 -297 -289 -445 -432c-149 143 -298 287 -446 432l446 432z" />
    <glyph glyph-name="Korea1.164" unicode="&#x25a1;" 
d="M68 -78v756h778v-756h-778zM784 617h-654v-634h654v634z" />
    <glyph glyph-name="Korea1.165" unicode="&#x25a0;" 
d="M844 -76h-774v752h774v-752z" />
    <glyph glyph-name="Korea1.166" unicode="&#x25b3;" 
d="M0 -74l457 766l456 -766h-913zM457 569l-348 -583h695c-116 194 -232 388 -347 583z" />
    <glyph glyph-name="Korea1.167" unicode="&#x25b2;" 
d="M909 -72h-905c151 253 301 506 453 759z" />
    <glyph glyph-name="Korea1.168" unicode="&#x25bd;" 
d="M457 -91c-153 255 -305 510 -457 766h913zM109 615l348 -584c115 195 231 389 347 584h-695z" />
    <glyph glyph-name="Korea1.169" unicode="&#x25bc;" 
d="M909 673c-151 -254 -301 -507 -452 -759c-152 252 -302 505 -453 759h905z" />
    <glyph glyph-name="Korea1.170" unicode="&#x2192;" 
d="M923 303l-343 -130l30 93h-596v66h596l-30 96z" />
    <glyph glyph-name="Korea1.171" unicode="&#x2190;" 
d="M904 267h-595l30 -94l-345 130l345 125l-30 -95h595v-66z" />
    <glyph glyph-name="Korea1.172" unicode="&#x2191;" 
d="M589 447l-97 30v-630h-69v630l-98 -30l132 334z" />
    <glyph glyph-name="Korea1.173" unicode="&#x2193;" 
d="M589 155l-132 -335l-132 334l96 -30v631h70v-630z" />
    <glyph glyph-name="Korea1.174" unicode="&#x2194;" 
d="M930 300l-300 -165l31 131h-409l31 -131l-298 165l298 164l-31 -131h409l-31 131z" />
    <glyph glyph-name="Korea1.175" unicode="&#x3013;" 
d="M809 455v-73h-704v73h704zM809 218v-74h-704v74h704z" />
    <glyph glyph-name="Korea1.176" unicode="&#xab;" horiz-adv-x="600" 
d="M569 -29h-96l-185 269l185 269h97l-165 -270c11 -18 154 -250 164 -268zM363 -29h-95l-188 269l188 269h96l-165 -269z" />
    <glyph glyph-name="Korea1.177" unicode="&#xbb;" horiz-adv-x="600" 
d="M333 -29h-96l163 269l-163 269h96c62 -90 124 -180 187 -269zM127 -29h-97c55 89 109 179 164 269c-14 21 -26 43 -40 66l-124 203h97l186 -269z" />
    <glyph glyph-name="Korea1.178" unicode="&#x221a;" 
d="M864 723h-311l-275 -839l-166 414l-54 -57l-28 44l128 130l129 -320l218 687h359v-59z" />
    <glyph glyph-name="Korea1.179" unicode="&#x223d;" 
d="M876 290c-3 -104 -82 -193 -208 -193c-79 0 -125 35 -145 48c14 25 28 49 41 74c12 -8 60 -38 108 -38c11 0 21 3 30 7c56 11 86 57 86 104c0 66 -45 125 -129 125s-126 -73 -161 -142c-23 -45 -93 -176 -237 -176c-101 0 -217 69 -217 204c0 99 80 199 208 199
c79 0 125 -34 144 -48c-13 -23 -26 -46 -40 -69c-6 4 -56 35 -107 35c-78 0 -119 -59 -119 -118s42 -123 129 -123c96 -1 145 113 186 179c49 79 112 142 218 142c107 0 213 -71 213 -210z" />
    <glyph glyph-name="Korea1.180" unicode="&#x221d;" 
d="M790 207l52 -67c-57 -36 -92 -48 -142 -48c-110 0 -172 71 -200 116c-30 -44 -93 -116 -199 -116c-120 0 -219 92 -219 208s99 208 219 208c106 0 170 -73 199 -117c29 44 93 117 200 117c49 0 89 -12 140 -49l-49 -67c-37 28 -57 32 -91 32c-102 0 -143 -97 -154 -124
c11 -27 52 -124 154 -124c32 0 54 7 90 31zM453 300c-12 28 -60 124 -152 124c-74 0 -132 -55 -132 -124s58 -124 132 -124c92 0 140 95 152 124z" />
    <glyph glyph-name="Korea1.181" unicode="&#x2235;" 
d="M733 604c43 0 80 -36 80 -79s-37 -79 -80 -79c-44 0 -80 36 -80 79s36 79 80 79zM183 604c41 0 78 -36 78 -79s-37 -79 -78 -79c-46 0 -82 36 -82 79s36 79 82 79zM458 162c44 0 80 -36 80 -79c0 -42 -36 -78 -80 -78s-80 36 -80 78c0 43 36 79 80 79z" />
    <glyph glyph-name="Korea1.182" unicode="&#x222b;" 
d="M594 730c62 0 106 -29 106 -69c0 -33 -26 -57 -59 -57s-54 19 -54 52v20c0 12 -4 17 -15 17c-37 0 -71 -69 -71 -159c0 -65 14 -216 14 -303c0 -78 -9 -147 -22 -186c-29 -85 -104 -138 -194 -138c-56 0 -91 28 -91 71c0 28 23 50 56 50c34 0 56 -22 58 -58
c1 -16 2 -20 15 -20c52 0 100 90 100 184v10c-1 8 -2 16 -2 24v17l-5 56c0 7 -1 15 -2 24c-6 66 -9 129 -9 181c0 203 67 284 175 284z" />
    <glyph glyph-name="Korea1.183" unicode="&#x222c;" 
d="M706 730c36 0 68 -27 68 -59c0 -27 -23 -47 -54 -47c-45 0 -62 60 -67 60c-1 0 -8 -8 -13 -19l-18 -40c-11 -33 -13 -71 -13 -100c0 -26 1 -51 2 -77l3 -101c1 -33 1 -74 2 -89v-28c0 -192 -67 -325 -184 -325c-37 0 -64 23 -64 54c0 23 18 41 38 41c10 0 18 -2 25 -11
c29 0 30 -40 43 -40c30 0 49 77 61 141l7 48c3 20 1 29 2 34l-2 110l-4 108c-2 57 -2 94 -2 110c0 122 78 230 170 230zM484 730c36 0 65 -27 65 -59c0 -28 -21 -47 -48 -47c-47 0 -62 60 -67 60c-13 0 -43 -83 -43 -141l2 -93c3 -143 4 -176 3 -190v-5c0 -5 0 -8 -1 -12
c1 -3 1 -9 1 -9c0 -100 -16 -178 -46 -234c-29 -52 -92 -94 -142 -94c-34 0 -60 24 -60 53c0 15 23 46 46 46c22 0 37 -10 44 -35c4 -16 11 -22 16 -22c41 0 69 155 69 251l-6 246c0 11 -1 22 -1 32c0 164 82 253 168 253z" />
    <glyph glyph-name="Korea1.184" unicode="&#x2208;" 
d="M825 337v-74h-678c5 -70 75 -181 234 -181h445v-73h-434c-202 0 -324 127 -324 291c0 163 122 291 324 291h434v-73h-445c-159 0 -229 -112 -234 -181h678z" />
    <glyph glyph-name="Korea1.185" unicode="&#x220b;" 
d="M767 263h-678v74h678c-6 69 -75 181 -233 181h-446v73h434c202 0 325 -128 325 -291c0 -164 -123 -291 -325 -291h-434v73h446c158 0 227 111 233 181z" />
    <glyph glyph-name="Korea1.186" unicode="&#x2286;" 
d="M838 119h-442v-1c-232 0 -341 116 -341 261c0 146 111 262 335 262h448v-85h-460c-172 0 -234 -91 -234 -177c0 -88 63 -175 234 -175h460v-85zM859 -42h-804v87h804v-87z" />
    <glyph glyph-name="Korea1.187" unicode="&#x2287;" 
d="M524 119l-448 -1v85h461c170 0 233 88 233 176c0 86 -63 176 -233 176h-461v86h448c224 0 335 -116 335 -262c0 -145 -109 -260 -335 -260zM859 -42h-804v87h804v-87z" />
    <glyph glyph-name="Korea1.188" unicode="&#x2282;" 
d="M839 -1h-443v-1c-210 0 -341 132 -341 302c0 169 131 301 335 301h449v-85h-460c-165 0 -233 -120 -233 -211v-10c0 -92 67 -210 233 -210h460v-86z" />
    <glyph glyph-name="Korea1.189" unicode="&#x2283;" 
d="M524 -1l-449 -1v86h460c166 0 233 119 233 211v10c0 91 -67 210 -233 210h-460v86h449c205 0 335 -132 335 -301c0 -170 -130 -301 -335 -301z" />
    <glyph glyph-name="Korea1.190" unicode="&#x222a;" 
d="M753 671v-436c0 -199 -136 -326 -310 -326s-311 127 -311 326v436h88v-447c0 -161 123 -227 217 -227h11c93 0 216 66 216 227v447h89z" />
    <glyph glyph-name="Korea1.191" unicode="&#x2229;" 
d="M767 -71h-87v447c0 160 -124 227 -217 227h-11c-95 0 -217 -66 -217 -227v-447h-89v436c0 200 136 326 311 326c174 0 310 -126 310 -326v-436z" />
    <glyph glyph-name="Korea1.192" unicode="&#x2227;" 
d="M830 -30l-74 -39l-299 595l-300 -595l-72 39l332 663c4 8 22 32 40 32c20 0 33 -19 41 -32z" />
    <glyph glyph-name="Korea1.193" unicode="&#x2228;" 
d="M756 671l74 -39l-332 -663c-8 -13 -21 -32 -41 -32c-18 0 -36 24 -40 32l-332 663l72 39l300 -595z" />
    <glyph glyph-name="Korea1.194" unicode="&#xffe2;" 
d="M659 456v-299h-73v231h-358v68h431z" />
    <glyph glyph-name="Korea1.195" unicode="&#x21d2;" 
d="M616 10l-46 44l120 116h-676v61h737c25 22 49 45 74 68l-74 67h-737v61h676l-120 116l46 44l301 -288c-100 -97 -201 -193 -301 -289z" />
    <glyph glyph-name="Korea1.196" unicode="&#x21d4;" 
d="M629 10c-16 15 -32 29 -47 44c39 39 79 78 119 116h-481c39 -38 80 -77 119 -116l-47 -44c-99 96 -199 192 -297 289c98 96 198 192 297 288l47 -44c-39 -39 -80 -77 -119 -116h481c-40 39 -80 77 -119 116c15 15 31 29 47 44l298 -288zM764 366h-607l-71 -67
c24 -23 47 -46 71 -68h607l70 68z" />
    <glyph glyph-name="Korea1.197" unicode="&#x2200;" 
d="M688 681h105l-275 -754h-123l-274 755h104c23 -61 45 -123 67 -184h328zM456 46l131 357h-261z" />
    <glyph glyph-name="Korea1.198" unicode="&#x2203;" 
d="M721 680v-753h-490v94h389v225h-372v94h372v244h-400v96h501z" />
    <glyph glyph-name="Korea1.199" unicode="&#xb4;" horiz-adv-x="450" 
d="M202 660h-85l85 164h130z" />
    <glyph glyph-name="Korea1.200" unicode="&#x2dc;" 
 />
    <glyph glyph-name="Korea1.201" unicode="&#x2c7;" 
d="M669 759l-196 -153c-9 -7 -22 -7 -32 0l-196 152c-35 28 -9 54 32 34l179 -89l181 90c40 21 67 -6 32 -34z" />
    <glyph glyph-name="Korea1.202" unicode="&#x2d8;" 
d="M621 802l64 -22c-62 -94 -125 -132 -218 -136c-100 -5 -174 33 -240 129l57 34c50 -74 103 -100 177 -98c67 2 113 26 160 93z" />
    <glyph glyph-name="Korea1.203" unicode="&#x2dd;" 
d="M501 790c15 -22 13 -46 -1 -58c-47 -41 -181 -97 -202 -101c-15 -2 -19 11 -8 22c41 41 102 102 143 137c14 12 54 21 68 0zM675 790c14 -22 13 -46 -1 -58c-47 -41 -182 -97 -202 -101c-16 -2 -21 11 -8 22c40 41 101 102 142 137c15 12 54 21 69 0z" />
    <glyph glyph-name="Korea1.204" unicode="&#x2da;" 
d="M571 695c0 -58 -51 -104 -113 -104c-61 0 -112 46 -112 104c0 59 51 105 112 105c62 0 113 -46 113 -105zM513 695c0 27 -23 51 -55 51c-31 0 -54 -24 -54 -51c0 -26 23 -50 54 -50c32 0 55 24 55 50z" />
    <glyph glyph-name="Korea1.205" unicode="&#x2d9;" 
d="M532 729c0 -39 -35 -73 -76 -73c-43 0 -74 37 -74 75c0 40 37 72 75 72c41 0 75 -34 75 -74z" />
    <glyph glyph-name="Korea1.206" unicode="&#xb8;" horiz-adv-x="450" 
d="M118 -189l18 50c31 -7 41 -7 51 -7c21 0 38 14 38 30c0 18 -20 31 -71 32l62 135h91l-36 -75c33 -8 59 -39 59 -74c0 -63 -58 -110 -128 -111h-9c-17 1 -39 5 -75 20z" />
    <glyph glyph-name="Korea1.207" unicode="&#x2db;" 
d="M460 -200c-48 0 -84 42 -84 91c0 36 21 76 55 105c7 5 15 9 20 9c10 0 16 -6 16 -15c0 -6 -2 -13 -5 -18c-16 -28 -21 -42 -21 -65c0 -22 14 -32 27 -32c24 0 36 35 54 35c13 0 18 -12 18 -21c0 -45 -37 -89 -80 -89z" />
    <glyph glyph-name="Korea1.208" unicode="&#xa1;" horiz-adv-x="399" 
d="M261 580v-132h-123v132h123zM263 -189h-127l15 544h96z" />
    <glyph glyph-name="Korea1.209" unicode="&#xbf;" horiz-adv-x="510" 
d="M214 447v132h122v-132h-122zM56 -15c0 90 64 146 117 207c31 36 50 73 50 112v50h105v-52c0 -67 -28 -112 -68 -158c-37 -43 -83 -86 -83 -149c0 -71 59 -100 122 -100c62 0 121 20 164 44l10 -101c-51 -19 -121 -38 -190 -38c-114 0 -227 61 -227 185z" />
    <glyph glyph-name="Korea1.210" unicode="&#x2236;" 
 />
    <glyph glyph-name="Korea1.211" unicode="&#x222e;" 
d="M699 648c0 -33 -20 -51 -52 -51c-71 0 -37 70 -65 70c-13 0 -22 -7 -33 -31c-27 -59 -24 -58 -42 -201c78 -23 116 -71 116 -143c0 -78 -49 -130 -135 -146c-12 -196 -72 -262 -183 -262c-57 0 -91 23 -91 64c0 27 18 50 45 50c14 0 25 -5 32 -15c48 0 26 -57 50 -57
c18 0 47 28 60 74c12 43 12 55 17 150c-73 21 -115 69 -115 141c0 75 46 123 129 147c21 176 78 276 188 276c48 0 79 -24 79 -66zM429 398c-55 -23 -84 -58 -84 -106c0 -46 25 -76 74 -99c1 91 3 131 10 205zM582 294c0 45 -16 70 -77 102c-2 -20 -1 -32 -2 -40l-7 -83
c-2 -41 -3 -57 -3 -66v-22c60 18 89 55 89 109z" />
    <glyph glyph-name="Korea1.212" unicode="&#x2211;" 
d="M293 692h497c-5 -32 -9 -64 -15 -96h-393c63 -80 125 -162 187 -243l-290 -271h422c-7 -32 -15 -63 -23 -94h-548c6 27 12 55 19 82c101 98 202 197 304 295c-62 81 -124 162 -185 243c8 28 16 56 25 84z" />
    <glyph glyph-name="Korea1.213" unicode="&#x220f;" 
d="M800 651v-100h-149v-599h-96v599h-199v-599h-95v599h-147v100h686z" />
    <glyph glyph-name="Korea1.214" unicode="&#xa4;" 
d="M241 14l-116 -117l-66 65l118 118c-45 59 -69 130 -69 211c0 79 26 153 70 211l-118 121l65 64l119 -121c57 46 131 72 210 72c78 0 151 -26 209 -71l119 120l66 -65l-121 -118c48 -59 73 -133 73 -213s-24 -154 -70 -212l118 -117l-66 -65l-117 116
c-58 -46 -131 -69 -211 -69s-156 24 -213 70zM454 544c-139 0 -253 -115 -253 -253c0 -140 114 -254 253 -254s254 114 254 254c0 138 -115 253 -254 253z" />
    <glyph glyph-name="Korea1.215" unicode="&#x2109;" 
d="M165 731c65 0 119 -52 119 -116s-54 -116 -119 -116c-66 0 -120 52 -120 116s54 116 120 116zM165 559c32 0 57 24 57 56s-25 56 -57 56c-34 0 -58 -24 -58 -56s24 -56 58 -56zM797 602v-90h-361v-207h317v-91h-317v-297h-98v685h459z" />
    <glyph glyph-name="Korea1.216" unicode="&#x2030;" 
d="M566 676h85l-565 -753h-86zM93 569c40 58 102 96 157 96c69 0 109 -56 109 -119c0 -112 -103 -226 -202 -226c-71 0 -109 56 -109 119c0 43 16 90 45 130zM252 461c24 35 34 66 34 90c0 27 -11 43 -32 43c-26 0 -63 -21 -97 -69c-25 -36 -36 -67 -36 -91
c0 -27 12 -45 33 -45c25 0 63 21 98 72zM323 177c41 57 102 95 158 95c69 0 109 -56 109 -119c0 -112 -104 -225 -204 -225c-70 0 -107 56 -107 119c0 43 15 90 44 130zM645 176c41 57 103 96 159 96c67 0 107 -56 107 -119c0 -113 -105 -226 -204 -226
c-69 0 -107 55 -107 118c0 43 16 90 45 131zM483 68c23 35 33 67 33 91c0 26 -11 43 -32 43c-40 0 -133 -83 -133 -162c0 -28 11 -42 32 -42c26 0 64 20 100 70zM803 67c25 35 35 67 35 91c0 28 -12 43 -33 43c-24 -1 -62 -21 -97 -69c-26 -36 -36 -70 -36 -94
c0 -27 10 -41 32 -41c25 0 64 20 99 70z" />
    <glyph glyph-name="Korea1.217" unicode="&#x25c1;" 
d="M824 -143l-795 446l795 448v-894zM761 -35v678l-604 -340z" />
    <glyph glyph-name="Korea1.218" unicode="&#x25c0;" 
d="M824 -143l-795 446l795 448v-894z" />
    <glyph glyph-name="Korea1.219" unicode="&#x25b7;" 
d="M875 303l-795 -446v894zM746 303l-604 340v-678z" />
    <glyph glyph-name="Korea1.220" unicode="&#x25b6;" 
d="M885 303l-795 -446v894z" />
    <glyph glyph-name="Korea1.221" unicode="&#x2664;" 
d="M814 216c0 -91 -64 -162 -158 -162c-49 0 -89 11 -120 28c5 -152 49 -170 190 -183c4 -12 8 -23 13 -35h-565c5 12 9 23 13 35c141 13 185 31 190 183c-31 -17 -70 -28 -120 -28c-94 0 -158 71 -158 162c0 96 66 165 138 222c92 73 179 179 220 367
c39 -188 128 -294 220 -367c70 -56 137 -126 137 -222zM742 206v10c0 85 -48 121 -121 184c-72 58 -131 137 -164 205c-33 -68 -93 -147 -165 -204c-62 -50 -121 -91 -121 -182c0 -65 34 -104 108 -104c43 0 113 23 166 120c0 -179 -4 -262 -44 -314h113
c-40 51 -45 133 -45 314c54 -97 126 -120 167 -120c68 0 105 34 106 91z" />
    <glyph glyph-name="Korea1.222" unicode="&#x2660;" 
d="M815 217c0 -92 -64 -163 -158 -163c-58 0 -108 8 -144 28c7 -151 71 -170 214 -183l12 -36h-564l12 36c143 13 207 32 214 183c-36 -20 -85 -28 -144 -28c-93 0 -158 71 -158 163c0 97 67 166 138 222c91 73 179 180 220 367c41 -187 130 -294 220 -367
c71 -56 138 -125 138 -222z" />
    <glyph glyph-name="Korea1.223" unicode="&#x2661;" 
d="M834 507c1 -173 -177 -321 -281 -447c-38 -46 -67 -95 -96 -194c-30 100 -60 146 -97 193c-89 112 -280 268 -280 442c0 105 79 184 187 184c78 0 149 -36 191 -109c43 72 113 109 188 109c105 0 185 -75 188 -178zM765 493c0 75 -40 131 -126 131
c-83 0 -146 -86 -182 -215c-36 123 -97 212 -174 216c-89 0 -134 -53 -134 -132c0 -88 67 -172 128 -240c70 -85 134 -137 181 -223c47 83 110 146 178 223c61 69 129 151 129 240z" />
    <glyph glyph-name="Korea1.224" unicode="&#x2665;" 
d="M834 507c0 -97 -59 -188 -122 -264c-52 -66 -111 -125 -158 -183c-38 -46 -68 -94 -97 -194c-30 100 -59 147 -97 193c-100 127 -280 274 -280 447c0 104 83 179 188 179c86 0 155 -60 189 -141c35 82 103 142 190 142c104 0 187 -75 187 -179z" />
    <glyph glyph-name="Korea1.225" unicode="&#x2667;" 
d="M861 257c0 -102 -85 -190 -198 -190c-47 0 -92 17 -131 51c6 -169 56 -204 194 -217c4 -12 8 -23 13 -35h-566c5 12 9 23 13 35c138 13 188 47 195 218c-37 -32 -82 -51 -129 -51c-112 0 -200 84 -200 189c0 96 81 191 197 191c8 0 17 -1 27 -3c-13 25 -15 45 -15 78
c0 107 95 186 198 186c99 0 193 -77 193 -185c0 -32 -6 -56 -18 -80c10 1 20 2 30 2c103 0 197 -82 197 -189zM790 257c0 78 -60 131 -123 131c-24 0 -49 -7 -72 -24l-61 57c39 33 49 76 49 116c0 60 -57 115 -128 115c-69 0 -127 -55 -127 -115c0 -39 10 -80 47 -111
c-20 -20 -40 -39 -59 -59c-22 15 -44 21 -67 21c-67 0 -126 -51 -126 -130c0 -69 48 -123 116 -123c52 0 100 22 125 69h82c0 -130 -7 -228 -53 -282h128c-42 55 -54 149 -54 282h81c24 -46 73 -70 126 -70c68 0 116 54 116 123z" />
    <glyph glyph-name="Korea1.226" unicode="&#x2663;" 
d="M861 257c0 -102 -84 -190 -197 -190c-54 0 -112 14 -153 49c9 -167 77 -202 216 -215l12 -36h-565l13 36c138 13 207 47 215 216c-41 -35 -98 -49 -149 -49c-113 0 -200 85 -200 189c0 91 71 180 178 190c13 2 28 2 46 -1c-14 25 -16 45 -16 77c0 107 99 187 198 187
c95 0 193 -78 193 -186c0 -32 -6 -55 -17 -80c113 19 226 -68 226 -187z" />
    <glyph glyph-name="Korea1.227" unicode="&#x25c9;" 
 />
    <glyph glyph-name="Korea1.228" unicode="&#x25c8;" 
d="M925 299l-471 -483l-463 479l469 482zM840 298l-381 392l-384 -394l380 -394zM727 299l-273 -279l-265 274l272 281z" />
    <glyph glyph-name="Korea1.229" unicode="&#x25a3;" 
d="M860 -105h-804v816h804v-816zM797 -46v701h-675v-701h675zM674 85h-429v436h429v-436z" />
    <glyph glyph-name="Korea1.230" unicode="&#x25d0;" 
d="M894 301c0 -244 -187 -426 -435 -426c-249 0 -440 185 -440 426c0 239 190 423 438 423c250 0 437 -183 437 -423zM466 665v-731c214 5 363 178 363 366c0 185 -150 360 -363 365z" />
    <glyph glyph-name="Korea1.231" unicode="&#x25d1;" 
d="M893 300c0 -243 -187 -426 -433 -426c-250 0 -440 184 -440 426c0 220 164 423 445 423c239 0 428 -187 428 -423zM451 -67v732c-219 -6 -364 -184 -364 -370c0 -179 149 -355 364 -362z" />
    <glyph glyph-name="Korea1.232" unicode="&#x2592;" 
d="M861 -93h-808v786h808v-786zM810 -43v686h-706v-686h706zM729 594c0 -18 -13 -30 -31 -30c-17 0 -29 13 -29 30c0 16 11 30 29 30c17 0 31 -13 31 -30zM569 594c0 -18 -15 -30 -32 -30s-31 13 -31 30c0 16 13 30 31 30c17 0 32 -13 32 -30zM246 594
c0 -18 -14 -30 -32 -30c-17 0 -29 13 -29 30c0 16 11 30 29 30c17 0 32 -12 32 -30zM406 593c0 -16 -12 -29 -29 -29c-19 0 -31 11 -31 29s12 30 30 30s30 -12 30 -30zM630 398c0 -18 -13 -30 -32 -30c-18 0 -29 13 -29 30c0 16 11 30 29 30s32 -13 32 -30zM487 398
c0 -18 -14 -30 -32 -30c-16 0 -29 13 -29 30c0 16 12 30 29 30c18 0 32 -13 32 -30zM206 398c0 -18 -13 -30 -31 -30c-17 0 -30 13 -30 30c0 16 12 30 30 30c17 0 31 -12 31 -30zM771 398c0 -17 -13 -30 -31 -30s-30 13 -30 30c0 16 12 29 29 29c19 0 32 -12 32 -29z
M346 397c0 -16 -13 -29 -30 -29c-19 0 -30 11 -30 29c0 17 12 30 29 30c18 0 31 -13 31 -30zM710 202c0 -18 -13 -30 -33 -30c-16 0 -29 13 -29 30c0 16 13 30 29 30c19 0 33 -13 33 -30zM559 202c0 -18 -15 -30 -33 -30c-17 0 -30 13 -30 30c0 16 13 30 30 30
c19 0 33 -13 33 -30zM258 202c0 -18 -14 -30 -32 -30s-30 13 -30 30c0 16 12 30 30 30c17 0 32 -12 32 -30zM398 201c0 -16 -13 -29 -30 -29c-19 0 -31 11 -31 29c0 17 12 30 30 30s31 -13 31 -30zM772 6c0 -18 -14 -30 -33 -30c-17 0 -29 12 -29 30c0 17 12 30 29 30
c20 0 33 -12 33 -30zM630 6c0 -18 -15 -30 -32 -30c-18 0 -29 12 -29 30c0 17 11 30 29 30c19 0 32 -12 32 -30zM486 6c0 -17 -13 -30 -31 -30c-17 0 -30 12 -30 30c0 17 13 30 30 30s31 -12 31 -30zM346 6c0 -18 -13 -30 -31 -30s-31 12 -31 30c0 17 13 30 31 30
s31 -13 31 -30zM205 6c0 -18 -14 -30 -30 -30c-19 0 -31 12 -31 30c0 17 12 30 31 30c18 0 30 -13 30 -30z" />
    <glyph glyph-name="Korea1.233" unicode="&#x25a4;" 
d="M861 -93h-808v786h808v-786zM810 516v127h-706v-127h706zM810 325v141h-706v-141h706zM810 134v141h-706v-141h706zM810 -43v127h-706v-127h706z" />
    <glyph glyph-name="Korea1.234" unicode="&#x25a5;" 
d="M861 -93h-808v786h808v-786zM810 -43v686h-130v-686h130zM628 -43v686h-145v-686h145zM430 -43v686h-144v-686h144zM235 -43v686h-131v-686h131z" />
    <glyph glyph-name="Korea1.235" unicode="&#x25a8;" 
d="M861 -92h-809v784h809v-784zM766 642h-206l-456 -443v-199c221 213 441 428 662 642zM230 642h-126v-123zM487 642h-184l-199 -194v-179zM808 413v199c-225 -218 -450 -437 -675 -654h206zM808 163v176c-132 -128 -264 -254 -396 -381h184c71 67 141 136 212 205zM808 92
l-139 -134h139v134z" />
    <glyph glyph-name="Korea1.236" unicode="&#x25a7;" 
d="M861 -93h-808v786h808v-786zM810 520v123h-126zM810 270v179l-200 194h-184zM810 -1v200l-457 444h-205zM781 -43l-675 656v-200l469 -456h206zM502 -43l-396 383v-177l211 -206h185zM245 -43l-139 136v-136h139z" />
    <glyph glyph-name="Korea1.237" unicode="&#x25a6;" 
d="M861 -93h-809v786h809v-786zM808 505v135h-141v-135h141zM619 505v135h-140v-135h140zM429 505v135h-140v-135h140zM241 505v135h-136v-135h136zM808 323v135h-141v-135h141zM619 323v135h-140v-135h140zM429 323v135h-140v-135h140zM241 323v135h-136v-135h136zM808 141
v135h-141v-135h141zM619 141v135h-140v-135h140zM429 141v135h-140v-135h140zM241 141v135h-136v-135h136zM808 -40v134h-141v-134h141zM619 -40v134h-140v-134h140zM429 -40v134h-140v-134h140zM241 -40v134h-136v-134h136z" />
    <glyph glyph-name="Korea1.238" unicode="&#x25a9;" 
d="M861 -95h-808v786h808v-786zM782 641h-168l83 -81zM540 641h-166l83 -81zM301 641h-168l84 -81zM667 531l-91 89l-89 -89l89 -88zM427 531l-89 89l-92 -89l92 -88zM810 450v163l-84 -82zM188 531l-84 82v-163zM788 414l-91 89l-90 -89l90 -87zM547 414l-90 89l-90 -89
l90 -87zM307 414l-90 89l-91 -89l91 -87zM667 298l-91 88l-89 -88l89 -88zM427 298l-89 88l-92 -88l92 -88zM810 217v162l-84 -81zM188 298l-84 81v-162zM788 182l-91 87l-90 -87l90 -89zM547 182l-90 87l-90 -87l90 -89zM307 182l-90 87l-91 -87l91 -89zM667 65l-91 88
l-89 -88l89 -89zM427 65l-89 88l-92 -88l92 -89zM810 -17v163l-84 -81zM188 65l-84 81v-163zM782 -45l-85 81l-83 -81h168zM540 -45l-83 81l-83 -81h166zM301 -45l-84 81l-84 -81h168z" />
    <glyph glyph-name="Korea1.239" unicode="&#x2668;" 
d="M484 578c-36 -110 25 -164 46 -281c14 -64 -49 -170 -68 -209c-37 -65 -25 -93 -38 -92s-25 70 5 146c42 104 15 204 -3 241c-61 135 -4 208 24 271c27 62 20 119 22 119c18 1 44 -99 12 -195zM321 542c-16 -65 40 -161 49 -272c4 -45 -29 -117 -62 -184
c-27 -58 -16 -80 -30 -79c-9 0 -29 55 -6 118c14 41 39 154 9 238c-39 103 -21 195 22 278c15 30 20 79 26 78c12 -2 22 -60 -8 -177zM628 545c-14 -102 41 -123 52 -234c11 -110 -58 -172 -79 -219c-25 -48 -19 -86 -33 -89c-13 -3 -16 74 1 118c26 67 60 166 28 245
c-49 115 -29 181 0 259c14 37 8 90 14 91c8 1 32 -54 17 -171zM715 248c28 -2 190 -57 197 -156c10 -135 -224 -211 -405 -222c-259 -16 -506 66 -506 192c0 120 175 178 238 196c16 5 23 -10 1 -17c-11 -4 -161 -60 -161 -157c0 -89 186 -144 385 -141
c171 3 382 71 383 164c1 62 -101 118 -135 127c-18 5 -10 15 3 14z" />
    <glyph glyph-name="Korea1.240" unicode="&#x260f;" 
d="M772 546c77 -21 102 -60 114 -148c7 -56 -23 -59 -59 -58l-82 3c-38 1 -57 9 -67 66c-6 34 -26 55 -73 66v-51c0 -33 4 -38 32 -61c25 -20 42 -27 54 -60l78 -221c0 -18 -10 -76 -11 -79c0 -4 -10 -3 -18 -3h-564c-7 0 -17 -1 -17 3c-2 3 -12 61 -12 79l78 221
c12 33 29 40 54 60c29 23 32 28 32 61v51c-47 -11 -67 -32 -73 -66c-10 -57 -29 -65 -67 -66l-82 -3c-36 -1 -66 2 -59 58c12 88 37 127 114 148c96 27 216 41 315 41c103 0 217 -14 313 -41zM731 30l8 45l-72 205c-17 46 -38 55 -62 72c-28 19 -31 43 -31 76v55h-3l-6 1h-3
l-15 -70c-1 0 -49 4 -90 4s-88 -5 -90 -5l-12 72l-13 -2v-55c0 -33 -3 -57 -31 -76c-24 -17 -45 -26 -62 -72l-71 -205l7 -45h546zM754 367l66 -2c34 -1 40 9 32 53c-11 68 -47 91 -127 111c-82 21 -185 30 -266 30c-83 0 -186 -9 -268 -30c-79 -20 -115 -43 -127 -111
c-7 -44 -2 -54 32 -53l66 2c29 1 39 10 48 60c9 52 69 72 126 81c72 12 172 12 245 0c56 -9 116 -29 125 -81c9 -50 19 -59 48 -60zM459 370c70 0 129 -59 129 -127c0 -73 -60 -130 -134 -130s-128 63 -128 132c0 71 62 125 133 125zM454 141c60 0 104 45 104 102
c0 53 -44 99 -99 99c-56 0 -105 -42 -105 -97c0 -54 44 -104 100 -104zM523 440l9 49c-9 1 -45 4 -75 4c-32 0 -66 -3 -75 -4l9 -49c15 2 44 3 66 3s52 -1 66 -3z" />
    <glyph glyph-name="Korea1.241" unicode="&#x260e;" 
d="M772 548c94 -26 104 -62 114 -150c-19 -5 -67 -7 -96 -6c-48 2 -69 6 -112 17c-2 31 -37 60 -73 66v-51c0 -33 6 -35 32 -61c27 -26 42 -27 54 -60l78 -221c0 -18 -10 -78 -11 -81c0 -4 -10 -3 -18 -3h-564c-7 0 -17 -1 -17 3c-2 3 -12 63 -12 81l78 221
c12 33 28 34 54 60s32 28 32 61v51c-36 -6 -71 -35 -73 -66c-42 -11 -64 -15 -112 -17c-29 -1 -77 1 -96 6c10 88 20 124 114 150c100 27 216 39 315 39c103 0 213 -12 313 -39zM457 413l90 -4l15 74c-26 2 -64 7 -105 7s-78 -6 -105 -8l15 -74zM797 372c27 -1 74 1 92 6
c0 -35 -26 -39 -62 -38l-82 3c-33 1 -58 12 -62 46c37 -12 65 -15 114 -17zM120 372c49 2 77 5 114 17c-5 -34 -29 -45 -63 -46l-82 -3c-36 -1 -62 3 -62 38c19 -5 65 -7 93 -6zM454 113c74 0 134 57 134 130c0 68 -59 127 -129 127c-71 0 -133 -54 -133 -125
c0 -69 54 -132 128 -132z" />
    <glyph glyph-name="Korea1.242" unicode="&#x261c;" 
d="M847 462v-326h-133v46c-23 0 -49 2 -83 -12c-84 -39 -140 -30 -214 -28c-12 -20 -37 -25 -62 -25c-42 0 -125 23 -125 75c0 16 10 32 24 39c-8 8 -10 20 -10 30c0 21 14 37 34 45c-5 4 -10 15 -10 22c0 13 7 24 16 34l-108 6c-33 2 -120 1 -120 62c0 45 72 49 120 50
l165 5l91 -2c13 10 31 16 50 16c74 0 138 -43 198 -73c15 -6 15 -7 34 -7v43h133zM714 207v187c-20 0 -23 -2 -35 3c-59 25 -131 77 -190 77c-30 0 -45 -9 -64 -29l-48 -49c-10 -9 -28 -24 -28 -37c0 -18 25 -26 40 -26c25 0 47 16 65 31l46 37l11 -13l-42 -47
c12 -8 29 -24 38 -37c2 0 48 -8 88 -5c20 2 44 8 60 13l7 2l7 -8v-6c-2 -1 -47 -18 -70 -21c-47 -5 -87 0 -89 0c-10 -32 -17 -47 -53 -53c0 -22 -8 -44 -33 -48v-15c65 -4 139 -2 203 30c31 16 61 14 87 14zM336 386l73 74h-85l-145 -2c-23 0 -96 1 -96 -30
c0 -28 38 -36 58 -37l137 -5h58zM742 163h40v272h-40v-272zM448 252c18 0 36 10 36 31c0 17 -24 42 -43 42c-8 0 -27 -12 -53 -12c-33 0 -57 16 -76 39c-8 -5 -15 -11 -15 -22c0 -24 37 -40 54 -48c17 -7 80 -30 97 -30zM404 198c17 0 28 11 26 27c0 9 -14 10 -19 12
c-27 7 -73 27 -93 39c-6 3 -16 8 -23 8c-13 0 -22 -11 -22 -23c0 -19 22 -36 37 -42c21 -8 72 -21 94 -21zM355 136c19 0 45 4 45 26c0 10 -7 14 -16 15c-55 8 -89 22 -110 37c-9 5 -19 -10 -16 -25c4 -33 72 -53 97 -53z" />
    <glyph glyph-name="Korea1.243" unicode="&#x261e;" 
d="M573 505l163 -5c48 -1 121 -5 121 -50c0 -61 -87 -60 -121 -62l-107 -6c9 -10 17 -21 17 -34c0 -7 -6 -18 -10 -22c20 -8 32 -24 32 -45c0 -10 -1 -22 -10 -30c14 -7 26 -23 26 -39c0 -52 -83 -75 -128 -75c-22 0 -47 5 -60 25c-73 -2 -130 -11 -216 28
c-31 14 -59 12 -81 12v-46h-133v326h133v-43c20 0 20 1 34 7c60 30 123 73 198 73c19 0 37 -6 50 -16zM524 353c13 0 41 8 41 26c0 13 -19 28 -29 37l-47 49c-21 20 -35 29 -64 29c-60 0 -131 -52 -191 -77c-13 -5 -14 -3 -35 -3v-187c25 0 55 2 88 -14
c64 -32 138 -34 203 -30v15c-26 4 -35 26 -35 48c-37 6 -42 21 -52 53c-3 0 -42 -5 -89 0c-23 3 -68 20 -70 21v6l7 8l8 -2c16 -5 38 -11 58 -13c42 -3 88 5 90 5c9 13 26 29 37 37l-42 47l11 13l46 -37c16 -15 41 -31 65 -31zM635 406l137 5c20 1 58 9 58 37
c0 31 -72 30 -96 30l-145 2h-86l74 -74h58zM131 183h40v272h-40v-272zM562 302c16 8 53 24 53 48c0 11 -5 17 -13 22c-19 -23 -46 -39 -76 -39c-26 0 -45 12 -54 12c-19 0 -45 -25 -45 -42c0 -21 19 -31 38 -31c17 0 81 23 97 30zM603 239c16 6 36 23 36 42
c0 12 -9 23 -20 23c-8 0 -17 -5 -24 -8c-20 -12 -67 -32 -93 -39c-4 -2 -19 -3 -20 -12c-1 -16 10 -27 27 -27c21 0 74 13 94 21zM557 156c26 0 94 20 99 53c1 15 -8 30 -17 25c-20 -15 -55 -29 -111 -37c-8 -1 -16 -5 -16 -15c0 -22 26 -26 45 -26z" />
    <glyph glyph-name="Korea1.244" unicode="&#xb6;" 
d="M753 -157h-91v895h91v-895zM565 -157h-90c0 154 -1 307 -1 460h-60c-151 0 -253 79 -253 217c0 169 142 218 330 218l74 -2v-893zM474 393v259h-33c-118 0 -186 -49 -186 -130c0 -78 65 -130 161 -130c20 0 38 0 58 1z" />
    <glyph glyph-name="Korea1.245" unicode="&#x2020;" 
d="M721 499v-89h-212v-546h-94v546h-213v89h213v234h94v-234h212z" />
    <glyph glyph-name="Korea1.246" unicode="&#x2021;" 
d="M726 611v-89h-217v-70h200v-89h-200v-496h-93v496h-197v89h197v70h-215v89h215v125h93v-125h217z" />
    <glyph glyph-name="Korea1.247" unicode="&#x2195;" 
d="M627 100l-171 -290l-169 290l134 -30v459l-134 -30l169 289l171 -289l-135 30v-459z" />
    <glyph glyph-name="Korea1.248" unicode="&#x2197;" 
d="M912 741l-158 -319l-30 89l-658 -640l-48 47l658 640l-93 30z" />
    <glyph glyph-name="Korea1.249" unicode="&#x2199;" 
d="M904 686l-658 -640l92 -29l-328 -153l157 319l32 -90l657 640z" />
    <glyph glyph-name="Korea1.250" unicode="&#x2196;" 
d="M899 -82l-47 -47l-659 640l-30 -89l-158 319l328 -153l-93 -30z" />
    <glyph glyph-name="Korea1.251" unicode="&#x2198;" 
d="M907 -136l-328 153l92 30l-658 639l48 47l657 -639l31 89z" />
    <glyph glyph-name="Korea1.252" unicode="&#x266d;" 
d="M525 408c103 0 132 -99 132 -169c0 -178 -175 -286 -327 -293v726h88v-318c32 37 71 54 107 54zM535 98c32 40 53 104 53 156c0 54 -21 86 -68 86c-67 0 -101 -85 -101 -91v-225c17 0 78 26 116 74z" />
    <glyph glyph-name="Korea1.253" unicode="&#x2669;" 
d="M491 705h61v-620c0 -106 -80 -180 -190 -180c-59 0 -86 20 -86 67c0 79 90 139 207 139h7z" />
    <glyph glyph-name="Korea1.254" unicode="&#x266a;" 
d="M409 110v598c5 0 9 1 15 1c18 -2 24 -7 59 -43c16 -17 44 -49 63 -65l18 -15l45 -37l11 -12c101 -97 122 -142 122 -207c0 -41 -9 -77 -26 -106c-40 -67 -124 -138 -163 -141l-4 5c-3 1 -4 7 -4 7c1 2 3 7 23 25c57 50 98 123 98 176c0 84 -105 175 -199 225
c0 -144 -1 -288 -1 -431c0 -106 -79 -183 -190 -183c-52 0 -79 25 -79 65c0 79 89 138 205 138h7z" />
    <glyph glyph-name="Korea1.255" unicode="&#x266c;" 
d="M303 619l472 100v-548c0 -69 -20 -108 -66 -140c-33 -29 -77 -43 -123 -43c-56 0 -87 23 -87 62c0 44 41 99 95 121c39 18 61 20 121 20v273l-351 -79v-293c0 -76 -24 -121 -78 -155c-39 -27 -74 -38 -116 -38c-54 0 -86 25 -86 66c0 73 94 138 202 138h17v516zM364 475
l351 77v67l-351 -76v-68z" />
    <glyph glyph-name="Korea1.256" unicode="&#x327f;" 
d="M654 550c-39 -47 -122 -138 -198 -216l248 -298h-83l-209 253c-27 -27 -52 -50 -70 -67v-186h-68v514h68v-250c67 61 164 160 236 249zM676 254v53h201c10 -249 -193 -444 -422 -444c-221 0 -391 167 -418 373h59c26 -175 169 -319 359 -319c186 0 347 146 363 337h-142z
M877 331h-57c-26 180 -169 320 -361 320c-184 0 -348 -147 -360 -337h140v-53h-200c-8 254 192 444 420 444c223 0 394 -166 418 -374z" />
    <glyph glyph-name="Korea1.257" unicode="&#x321c;" 
d="M707 641h50c56 -66 138 -183 138 -371c0 -184 -83 -307 -138 -371h-50c83 109 120 237 120 371c0 131 -36 262 -120 371zM206 -101h-49c-56 64 -138 187 -138 371c0 188 81 305 138 371h49c-84 -109 -120 -240 -120 -371c0 -134 38 -262 120 -371zM732 335l-43 -58
c-27 4 -83 17 -135 43c-43 21 -84 58 -99 79c-13 -21 -54 -58 -97 -79c-52 -26 -108 -39 -135 -43l-42 58c35 2 96 15 148 44c59 32 89 78 89 119h-189v61h455v-61h-190c0 -15 -1 -24 5 -31c31 -91 175 -127 233 -132zM756 235v-65h-263v-219h-74v219h-265v65h602z" />
    <glyph glyph-name="Korea1.258" unicode="&#x2116;" 
d="M424 652v-695h-97l-223 543v-543h-80v695h97l224 -541v541h79zM635 431c116 0 182 -109 182 -241s-66 -241 -182 -241c-115 0 -180 109 -180 241s65 241 180 241zM635 26c68 0 106 70 106 164c0 91 -38 163 -106 163c-66 0 -106 -72 -106 -163c0 -93 39 -164 106 -164z
M850 50c31 0 57 -29 57 -59c0 -33 -26 -59 -57 -59c-30 0 -56 26 -56 59c0 30 26 59 56 59z" />
    <glyph glyph-name="Korea1.259" unicode="&#x33c7;" 
d="M24 305c0 212 93 370 231 370c152 0 203 -125 209 -203h-75c-10 49 -37 121 -132 121c-96 0 -156 -129 -156 -287c0 -155 58 -276 154 -276c89 0 124 72 133 133h76c-9 -93 -64 -212 -203 -212c-154 0 -237 142 -237 354zM645 439c109 0 171 -109 171 -240
s-62 -239 -171 -239s-171 108 -171 239s62 240 171 240zM645 37c65 0 99 69 99 162c0 90 -34 162 -99 162c-64 0 -100 -72 -100 -162c0 -92 36 -162 100 -162zM848 59c30 0 55 -28 55 -59s-25 -56 -55 -56c-28 0 -53 25 -53 56s25 59 53 59z" />
    <glyph glyph-name="Korea1.260" unicode="&#x2122;" 
d="M734 532l-93 -256h-51l-96 250v-250h-62v367h83l99 -255l91 255h92v-367h-63v256zM212 276v313h-125v54h315v-54h-123v-313h-67z" />
    <glyph glyph-name="Korea1.261" unicode="&#x33c2;" 
d="M310 -6h-61c-6 11 -8 27 -9 44c-21 -35 -58 -59 -109 -59c-59 0 -112 44 -112 128c0 126 108 139 146 149c25 6 75 11 75 67c0 38 -20 77 -72 77c-48 0 -72 -32 -72 -80v-8h-58c0 5 -1 9 -1 14c0 87 56 139 131 139c77 0 132 -56 132 -149v-250c0 -37 10 -70 10 -72z
M788 309v-315c-20 0 -40 1 -60 1v291c0 67 -5 107 -41 107c-38 0 -46 -50 -46 -118v-280h-61v291c0 66 -9 107 -48 107c-36 0 -45 -51 -45 -121v-277c-20 0 -41 -1 -61 -1v454h61v-36c9 24 28 50 61 50c35 0 64 -28 74 -66c6 23 29 67 76 67c70 0 90 -74 90 -154zM241 138
c3 13 3 72 3 86c-26 -23 -62 -22 -96 -34l-17 -8c-29 -17 -48 -36 -48 -72c0 -46 26 -69 57 -69c58 0 100 58 101 97zM365 81c25 0 46 -24 46 -52c0 -29 -21 -50 -46 -50c-26 0 -47 21 -47 50c0 28 21 52 47 52zM847 81c25 0 47 -24 47 -52c0 -29 -22 -50 -47 -50
s-45 21 -45 50c0 28 20 52 45 52z" />
    <glyph glyph-name="Korea1.262" unicode="&#x33d8;" 
d="M327 221c0 -137 -56 -242 -146 -242c-37 0 -69 16 -93 44v-180h-62v606h62v-30c23 27 55 46 93 46c90 0 146 -107 146 -244zM783 -10h-63v293c0 67 -7 105 -39 105c-36 0 -47 -47 -47 -114v-284h-64v293c0 66 -12 105 -46 105c-32 0 -45 -48 -45 -118v-280h-64v456h64
v-27c13 20 36 38 63 38c31 0 59 -22 70 -57c9 23 32 60 77 60c75 0 94 -76 94 -157v-313zM261 221c0 100 -35 171 -85 171c-58 0 -86 -70 -86 -171c0 -100 29 -170 86 -170c50 0 85 70 85 170zM897 27c0 -28 -22 -51 -50 -51c-25 0 -48 23 -48 51c0 30 23 55 48 55
c28 0 50 -25 50 -55zM399 27c0 -28 -23 -51 -49 -51s-48 23 -48 51c0 30 22 55 48 55c27 0 49 -25 49 -55z" />
    <glyph glyph-name="Korea1.263" unicode="&#x2121;" 
d="M873 594v-648h-81v648h81zM471 593v-71h-183v-577h-82v578c-51 -1 -134 -1 -181 -1v71h446zM742 134h-319c3 -79 61 -135 118 -135c62 0 91 32 103 67h83c-21 -65 -74 -133 -186 -133c-116 0 -200 101 -200 226c0 123 78 225 200 225c109 0 204 -82 201 -250zM425 200
h232c-5 66 -50 119 -116 119c-61 0 -107 -47 -116 -119z" />
    <glyph glyph-name="Korea1.264" unicode="&#xff01;" 
d="M390 719h130l-16 -556h-98zM518 69v-127l-126 -17v144h126z" />
    <glyph glyph-name="Korea1.265" unicode="&#xff02;" 
d="M496 773h120l-10 -235h-100zM294 773h121l-10 -235h-101z" />
    <glyph glyph-name="Korea1.266" unicode="&#xff03;" 
d="M670 267v-86h-85l-27 -197h-98l27 197h-112l-27 -197h-98l27 197h-73v86h84l29 206h-77v86h89l22 158h98l-22 -158h112l23 158h98l-22 -158h67v-86h-80l-28 -206h73zM414 473l-28 -206h113l29 206h-114z" />
    <glyph glyph-name="Korea1.267" unicode="&#xff04;" 
d="M507 799v-70c47 -3 102 -11 145 -26c-3 -33 -7 -66 -11 -99c-44 17 -88 27 -134 29v-229c83 -40 173 -91 173 -213c0 -116 -70 -183 -173 -207v-74h-88v63c-4 -1 -8 -1 -11 -1c-69 0 -131 16 -184 33l12 105c38 -20 109 -43 170 -43c3 0 8 0 13 1v249
c-85 40 -178 84 -178 205c0 111 76 181 178 201v76h88zM360 532c0 -37 24 -61 59 -83v170c-33 -14 -59 -42 -59 -87zM559 183c0 40 -21 66 -52 87v-173c29 19 52 47 52 86z" />
    <glyph glyph-name="Korea1.268" unicode="&#xff05;" 
d="M621 730h99l-424 -759h-100zM402 530c0 -111 -53 -196 -191 -196c-128 0 -191 88 -191 200c0 111 63 196 191 196c138 0 191 -89 191 -200zM286 534c0 48 -8 122 -75 122c-61 0 -73 -78 -73 -126c0 -47 12 -122 73 -122c67 0 75 76 75 126zM890 167
c0 -111 -53 -196 -190 -196c-129 0 -191 88 -191 200c0 111 62 195 191 195c137 0 190 -88 190 -199zM773 171c0 49 -8 121 -73 121c-62 0 -75 -78 -75 -125c0 -48 13 -122 75 -122c65 0 73 77 73 126z" />
    <glyph glyph-name="Korea1.269" unicode="&#xff06;" 
d="M670 125l130 -141h-145l-59 67c-52 -56 -121 -80 -208 -80c-142 0 -238 83 -238 207c0 103 57 169 158 211c-46 47 -87 97 -87 169c0 113 93 172 199 172c97 0 189 -55 189 -167c0 -93 -78 -155 -154 -192l144 -170c30 38 45 104 50 179h105c-8 -109 -41 -197 -84 -255z
M505 557c0 61 -37 89 -86 89c-47 0 -88 -34 -88 -93c0 -46 37 -88 69 -120c41 20 105 68 105 124zM536 119l-171 204c-53 -33 -98 -72 -98 -138c0 -75 63 -128 136 -128c63 0 107 35 133 62z" />
    <glyph glyph-name="Korea1.270" unicode="&#xff07;" 
d="M394 768h121l-10 -235h-101z" />
    <glyph glyph-name="Korea1.271" unicode="&#xff08;" 
d="M341 309c0 181 70 314 168 453h103c-86 -139 -156 -277 -156 -453c0 -172 71 -314 156 -451h-103c-98 138 -168 273 -168 451z" />
    <glyph glyph-name="Korea1.272" unicode="&#xff09;" 
d="M567 310c0 -179 -71 -314 -169 -453h-103c85 137 157 281 157 453c0 175 -71 313 -157 452h103c98 -139 169 -271 169 -452z" />
    <glyph glyph-name="Korea1.273" unicode="&#xff0a;" 
d="M658 633l32 -101l-173 -35l118 -134l-90 -61l-88 151l-91 -151l-89 61l121 134l-175 35l33 101l167 -68l-18 174h108l-17 -173z" />
    <glyph glyph-name="Korea1.274" unicode="&#xff0b;" 
d="M715 410v-91h-208v-214h-104v214h-208v91h208v212h104v-212h208z" />
    <glyph glyph-name="Korea1.275" unicode="&#xff0c;" 
d="M409 86h125l-86 -250h-104z" />
    <glyph glyph-name="Korea1.276" unicode="&#xff0d;" 
d="M636 409v-91h-361v91h361z" />
    <glyph glyph-name="Korea1.277" unicode="&#xff0e;" 
d="M516 80v-135l-125 -1v136h125z" />
    <glyph glyph-name="Korea1.278" unicode="&#xff0f;" 
d="M529 740h105l-253 -809h-105z" />
    <glyph glyph-name="Korea1.279" unicode="&#xff10;" 
d="M696 194c0 -150 -88 -243 -242 -243c-155 0 -243 93 -243 243v295c0 150 88 244 243 244c154 0 242 -94 242 -244v-295zM326 222c0 -119 43 -179 128 -179c84 0 128 60 128 179v239c0 119 -44 180 -128 180c-85 0 -128 -61 -128 -180v-239z" />
    <glyph glyph-name="Korea1.280" unicode="&#xff11;" 
d="M565 717v-744l-115 -18v666h-142v96h257z" />
    <glyph glyph-name="Korea1.281" unicode="&#xff12;" 
d="M690 61l-14 -94h-464v115c28 24 86 77 130 119c89 88 211 206 211 314c0 73 -53 119 -140 119h-182v94h203c148 0 239 -80 239 -218c0 -124 -122 -247 -204 -332c-41 -40 -99 -93 -125 -117h346z" />
    <glyph glyph-name="Korea1.282" unicode="&#xff13;" 
d="M692 172c0 -172 -132 -220 -293 -220h-181v94h172c96 0 180 40 180 129c0 106 -91 142 -186 142h-74v94h70c82 0 164 32 164 117c0 78 -52 108 -134 108h-164v95l187 -1c131 0 232 -58 232 -193c0 -92 -63 -154 -144 -173v-2c96 -16 171 -84 171 -190z" />
    <glyph glyph-name="Korea1.283" unicode="&#xff14;" 
d="M182 113v94l291 510h158v-512h102l-17 -92h-85v-141l-114 -17v158h-335zM297 205h220v399h-2z" />
    <glyph glyph-name="Korea1.284" unicode="&#xff15;" 
d="M682 269v-107c0 -133 -96 -208 -276 -208h-170v93h163c92 0 166 38 166 121v82c0 67 -50 104 -113 104c-45 0 -81 -19 -96 -39h-104c3 133 5 268 7 402h419l-17 -92h-292c-1 -72 -3 -144 -5 -216c19 21 68 42 117 42c104 0 201 -67 201 -182z" />
    <glyph glyph-name="Korea1.285" unicode="&#xff16;" 
d="M697 262v-115c0 -120 -96 -195 -237 -195c-133 0 -237 66 -237 203v303c0 143 68 259 226 259h218l-16 -96h-195c-87 0 -128 -67 -128 -152c0 -31 0 -61 1 -92c36 54 95 74 157 74c129 0 211 -79 211 -189zM580 152v96c0 72 -51 111 -120 111c-61 0 -120 -39 -120 -112
v-91c0 -75 37 -113 118 -113c82 0 122 39 122 109z" />
    <glyph glyph-name="Korea1.286" unicode="&#xff17;" 
d="M680 717v-95l-268 -655h-126l281 657h-336v93h449z" />
    <glyph glyph-name="Korea1.287" unicode="&#xff18;" 
d="M454 734c131 0 230 -85 230 -184v-28c0 -72 -46 -134 -124 -162c89 -28 149 -101 149 -184v-27c0 -117 -111 -199 -255 -199c-143 0 -253 82 -253 199v27c0 83 59 156 149 184c-79 28 -125 90 -125 162v28c0 99 99 184 229 184zM454 412c72 0 117 45 117 108v22
c0 60 -45 104 -117 104c-71 0 -116 -44 -116 -104v-22c0 -63 45 -108 116 -108zM454 43c76 0 129 40 129 115v29c0 72 -57 128 -129 128c-70 0 -128 -56 -128 -128v-29c0 -75 53 -115 128 -115z" />
    <glyph glyph-name="Korea1.288" unicode="&#xff19;" 
d="M217 423v103c0 120 100 203 235 203s241 -74 241 -206v-311c0 -140 -77 -251 -231 -251h-212v97h204c91 0 129 68 129 146v103s0 1 -1 1c-33 -54 -89 -77 -153 -77c-133 0 -212 85 -212 192zM333 520v-84c0 -71 60 -114 120 -114c65 0 124 41 124 113v66
c0 85 -35 136 -125 136c-78 0 -119 -44 -119 -117z" />
    <glyph glyph-name="Korea1.289" unicode="&#xff1a;" 
d="M515 585v-132h-121v132h121zM515 129v-132h-121v132h121z" />
    <glyph glyph-name="Korea1.290" unicode="&#xff1b;" 
d="M516 585v-132h-122v132h122zM408 133h124l-86 -251h-105z" />
    <glyph glyph-name="Korea1.291" unicode="&#xff1c;" 
d="M670 142v-121l-436 304v80l436 303v-121l-332 -222z" />
    <glyph glyph-name="Korea1.292" unicode="&#xff1d;" 
d="M672 525v-91h-432v91h432zM672 297v-92h-432v92h432z" />
    <glyph glyph-name="Korea1.293" unicode="&#xff1e;" 
d="M667 405v-80l-436 -304v121l332 223l-332 222v121z" />
    <glyph glyph-name="Korea1.294" unicode="&#xff1f;" 
d="M678 541c0 -92 -65 -149 -119 -212c-32 -37 -51 -74 -51 -114v-51h-108v53c0 68 28 114 69 162c38 44 85 88 85 151c0 73 -60 103 -125 103c-63 0 -123 -20 -166 -45l-12 104c53 19 125 38 195 38c117 0 232 -62 232 -189zM517 69v-128l-126 -17v145h126z" />
    <glyph glyph-name="Korea1.295" unicode="&#xff20;" 
d="M821 427c0 -198 -172 -284 -249 -284c-29 0 -55 19 -57 56h-2c-29 -29 -68 -56 -111 -56c-85 0 -154 73 -154 165c0 130 90 253 218 253c49 0 89 -20 119 -66l14 52h80l-66 -257c-4 -14 -8 -29 -8 -41c1 -13 4 -22 18 -22c57 0 124 77 124 188c0 161 -129 237 -273 237
c-172 0 -291 -131 -291 -292c0 -185 124 -290 293 -290c85 0 169 29 227 83h80c-69 -104 -183 -161 -310 -161c-204 0 -380 131 -380 369c0 218 170 369 382 369c178 0 346 -114 346 -303zM553 389c0 48 -34 85 -80 85c-77 0 -130 -84 -130 -152c0 -53 31 -91 83 -91
c73 0 127 88 127 158z" />
    <glyph glyph-name="Korea1.296" unicode="&#xff21;" 
d="M519 717l304 -750h-130l-75 199h-330l-76 -199h-122l307 750h122zM325 259h257l-127 338z" />
    <glyph glyph-name="Korea1.297" unicode="&#xff22;" 
d="M742 175c0 -157 -121 -208 -268 -208h-251v750h236c138 0 237 -57 238 -191c1 -87 -47 -146 -138 -166v-2c102 -10 183 -82 183 -183zM583 514c0 82 -59 110 -130 110h-113v-219h88c69 0 155 16 155 109zM621 185c0 108 -90 127 -176 127h-105v-251h117
c88 0 164 30 164 124z" />
    <glyph glyph-name="Korea1.298" unicode="&#xff23;" 
d="M511 -41c-207 0 -314 98 -314 292v172c0 188 113 292 311 292h196v-100h-188c-132 0 -200 -70 -200 -210v-135c0 -131 55 -211 199 -211h221l-20 -100h-205z" />
    <glyph glyph-name="Korea1.299" unicode="&#xff24;" 
d="M767 346c0 -262 -112 -379 -347 -379h-250v750h250c226 0 347 -123 347 -371zM644 345c0 190 -84 274 -210 274h-147v-553h138c144 0 219 81 219 279z" />
    <glyph glyph-name="Korea1.300" unicode="&#xff25;" 
d="M678 717v-98h-318v-214h294v-100h-294v-239h327l-17 -98h-427v749h435z" />
    <glyph glyph-name="Korea1.301" unicode="&#xff26;" 
d="M688 717v-98h-290v-214h278v-99h-278v-330l-117 -16v757h407z" />
    <glyph glyph-name="Korea1.302" unicode="&#xff27;" 
d="M505 58h112v230h-127v94h242v-406l-115 -17h-110c-213 0 -320 96 -320 289v181c0 186 110 290 316 290h205c-5 -34 -12 -67 -17 -100h-183c-143 0 -202 -78 -202 -208v-144c0 -134 54 -209 199 -209z" />
    <glyph glyph-name="Korea1.303" unicode="&#xff28;" 
d="M740 726v-749c-38 -5 -77 -11 -116 -17v345h-337v-328c-39 -5 -78 -11 -117 -17v749l117 17v-321h337v304z" />
    <glyph glyph-name="Korea1.304" unicode="&#xff29;" 
d="M513 726v-750l-116 -16v749z" />
    <glyph glyph-name="Korea1.305" unicode="&#xff2a;" 
d="M571 727v-576c0 -98 -49 -196 -200 -196h-97v102h72c89 0 108 57 108 139v514z" />
    <glyph glyph-name="Korea1.306" unicode="&#xff2b;" 
d="M461 389l326 -422h-154l-248 337l-69 -72v-256l-116 -17v750l116 17v-338l299 329h149z" />
    <glyph glyph-name="Korea1.307" unicode="&#xff2c;" 
d="M707 66l-17 -99h-404v743l117 17v-661h304z" />
    <glyph glyph-name="Korea1.308" unicode="&#xff2d;" 
d="M841 717v-741l-115 -17v652l-210 -638l-117 -15l-210 653v-635l-114 -17v758h190l194 -609l192 609h190z" />
    <glyph glyph-name="Korea1.309" unicode="&#xff2e;" 
d="M749 726v-769h-135l-336 588h-1l2 -580l-115 -17v769h133l338 -588h1l-2 580z" />
    <glyph glyph-name="Korea1.310" unicode="&#xff2f;" 
d="M731 196c0 -150 -117 -254 -276 -254c-160 0 -278 104 -278 254v280c0 150 118 255 278 255c159 0 276 -105 276 -255v-280zM293 215c0 -107 56 -176 161 -176c106 0 162 69 162 176v244c0 107 -56 176 -162 176c-105 0 -161 -69 -161 -176v-244z" />
    <glyph glyph-name="Korea1.311" unicode="&#xff30;" 
d="M742 498c0 -161 -111 -222 -254 -222h-141v-300l-117 -16v757h241c153 0 271 -54 271 -219zM620 497c0 89 -58 122 -143 122h-130v-246h140c71 0 133 30 133 124z" />
    <glyph glyph-name="Korea1.312" unicode="&#xff31;" 
d="M620 -134l-66 96c-34 -13 -72 -21 -114 -21c-162 0 -281 106 -281 256v279c0 150 119 256 281 256c161 0 280 -106 280 -256v-279c0 -74 -28 -136 -76 -181l112 -150h-136zM275 215c0 -106 57 -176 164 -176c21 0 40 3 56 8l-118 171h116l84 -111c18 28 27 65 27 108v244
c0 107 -57 177 -165 177c-107 0 -164 -70 -164 -177v-244z" />
    <glyph glyph-name="Korea1.313" unicode="&#xff32;" 
d="M635 243l124 -278h-129l-106 252c-25 58 -69 71 -96 71h-89v-312l-116 -16v757h237c138 0 250 -50 250 -202c0 -88 -65 -162 -152 -181v-3c36 -12 60 -51 77 -88zM594 505c0 77 -49 114 -124 114h-131v-233h100c90 0 155 43 155 119z" />
    <glyph glyph-name="Korea1.314" unicode="&#xff33;" 
d="M407 392h122c106 0 186 -84 186 -202c0 -153 -102 -229 -265 -229h-242v98h231c101 0 160 38 160 124c0 68 -36 111 -97 111h-116c-110 0 -191 85 -191 199c0 153 88 223 244 223h226l-19 -97h-195c-85 0 -140 -34 -140 -119c0 -68 34 -108 96 -108z" />
    <glyph glyph-name="Korea1.315" unicode="&#xff34;" 
d="M736 717l-17 -98h-207v-643l-116 -17v660h-220v98h560z" />
    <glyph glyph-name="Korea1.316" unicode="&#xff35;" 
d="M745 726v-468c0 -202 -105 -303 -288 -303c-184 0 -289 101 -289 303v451l116 17v-445c0 -136 43 -227 173 -227c129 0 172 91 172 227v428z" />
    <glyph glyph-name="Korea1.317" unicode="&#xff36;" 
d="M669 717h120l-261 -750h-145l-259 750h129l205 -640z" />
    <glyph glyph-name="Korea1.318" unicode="&#xff37;" 
d="M813 717h119l-183 -750h-152l-138 643h-2l-142 -643h-152l-181 750h126l134 -632h2l133 632h164l136 -632h2z" />
    <glyph glyph-name="Korea1.319" unicode="&#xff38;" 
d="M536 359l255 -392h-146l-195 313l-189 -313h-139l253 390l-230 360h144l171 -285l174 285h134z" />
    <glyph glyph-name="Korea1.320" unicode="&#xff39;" 
d="M655 717h133l-271 -429v-312l-118 -16v329l-273 428h139l194 -321z" />
    <glyph glyph-name="Korea1.321" unicode="&#xff3a;" 
d="M715 66l-17 -99h-494v101l355 551h-341v98h470v-101l-354 -550h381z" />
    <glyph glyph-name="Korea1.322" unicode="&#xff3b;" 
d="M578 -64v-79h-204v904h204v-79h-102v-746h102z" />
    <glyph glyph-name="Korea1.323" unicode="&#xffe6;" 
d="M908 384h-87l-92 -410h-147l-82 410h-90l-84 -410h-148l-90 410h-86v77h68l-54 246h124l44 -246h145l48 246h159l49 -246h146l46 246h117l-56 -246h70v-77zM426 461h59l-28 142h-2zM315 384h-116l55 -297h2zM717 384h-118l61 -297h2z" />
    <glyph glyph-name="Korea1.324" unicode="&#xff3d;" 
d="M534 761v-904h-204v79h103v746h-103v79h204z" />
    <glyph glyph-name="Korea1.325" unicode="&#xff3e;" 
d="M500 751l179 -271h-123l-101 182l-100 -182h-123l179 271h89z" />
    <glyph glyph-name="Korea1.326" unicode="&#xff3f;" 
d="M687 -117v-83h-464v83h464z" />
    <glyph glyph-name="Korea1.327" unicode="&#xff40;" 
d="M479 756l93 -167h-91l-138 167h136z" />
    <glyph glyph-name="Korea1.328" unicode="&#xff41;" 
d="M595 50c-34 -60 -105 -93 -187 -93c-116 0 -220 71 -220 205v162c0 129 99 205 215 205c89 0 148 -33 188 -94v83l110 17v-565c-35 -6 -71 -11 -106 -16v96zM591 210c1 32 -1 65 -1 97c0 66 -61 130 -153 133c-71 0 -134 -42 -134 -121v-153c0 -75 57 -120 125 -120
c115 0 163 79 163 164z" />
    <glyph glyph-name="Korea1.329" unicode="&#xff42;" 
d="M320 46v-78c-36 -5 -71 -11 -107 -17v778l111 17v-307c38 59 96 95 183 95c117 0 220 -73 220 -206v-170c0 -130 -102 -205 -217 -205c-84 0 -157 31 -190 93zM323 206c0 -83 48 -165 160 -165c69 0 128 42 128 121v161c0 76 -59 122 -128 122c-92 0 -158 -66 -158 -133z
" />
    <glyph glyph-name="Korea1.330" unicode="&#xff43;" 
d="M255 176v151c0 129 91 213 235 213h162v-90h-151c-74 0 -132 -47 -132 -135v-131c0 -79 47 -132 130 -132h171l-17 -88h-164c-152 0 -234 85 -234 212z" />
    <glyph glyph-name="Korea1.331" unicode="&#xff44;" 
d="M590 46c-34 -58 -104 -93 -186 -93c-116 0 -222 71 -222 205v170c0 130 101 206 216 206c90 0 148 -34 188 -95v290l110 17v-778c-36 -5 -71 -11 -106 -17v95zM586 206c-1 35 -1 71 -1 106c0 65 -62 133 -156 133c-72 0 -131 -43 -131 -122v-161c0 -76 54 -121 122 -121
c116 0 166 79 166 165z" />
    <glyph glyph-name="Korea1.332" unicode="&#xff45;" 
d="M695 205h-375v-41c0 -83 44 -117 150 -117h197l-17 -89h-186c-166 0 -251 76 -251 211v143c0 124 100 227 249 227c137 0 233 -92 233 -221v-113zM320 288h270v32c0 85 -47 133 -128 133c-92 0 -142 -58 -142 -150v-15z" />
    <glyph glyph-name="Korea1.333" unicode="&#xff46;" 
d="M381 -42v462h-105v86h105v56c0 139 50 206 180 206h74v-88h-55c-70 0 -88 -42 -88 -114v-60h148l-16 -86h-132v-445z" />
    <glyph glyph-name="Korea1.334" unicode="&#xff47;" 
d="M589 90c-29 -59 -91 -100 -171 -100c-116 0 -222 71 -222 205v137c0 130 101 206 216 206c80 0 144 -29 180 -97v78c36 5 71 12 107 17v-511c0 -153 -75 -241 -274 -241h-191v88h194c142 0 161 80 161 218zM586 216c-1 34 1 68 1 102c0 68 -62 131 -146 131
c-69 0 -129 -43 -129 -122v-128c0 -76 53 -121 121 -121c94 0 152 62 153 138z" />
    <glyph glyph-name="Korea1.335" unicode="&#xff48;" 
d="M696 310v-334c-37 -5 -73 -11 -110 -17v305c0 105 -21 179 -106 179c-105 0 -156 -91 -156 -206v-261c-37 -5 -73 -11 -110 -17v770c37 6 73 12 110 17v-299h1c37 55 99 87 174 87c135 0 197 -86 197 -224z" />
    <glyph glyph-name="Korea1.336" unicode="&#xff49;" 
d="M513 747v-122h-118v122h118zM509 522v-546l-110 -17v563h110z" />
    <glyph glyph-name="Korea1.337" unicode="&#xff4a;" 
d="M517 747v-122h-119v122h119zM513 522v-536c0 -106 -7 -207 -141 -207h-65v92h40c38 0 55 35 55 110v541h111z" />
    <glyph glyph-name="Korea1.338" unicode="&#xff4b;" 
d="M699 521l-210 -223l234 -331h-140c-55 84 -111 168 -166 253l-64 -69v-175l-111 -16v770l111 16v-458c67 78 135 156 203 233h143z" />
    <glyph glyph-name="Korea1.339" unicode="&#xff4c;" 
d="M510 747v-771l-110 -17v771z" />
    <glyph glyph-name="Korea1.340" unicode="&#xff4d;" 
d="M845 333v-353l-111 -17v348c0 61 -11 141 -91 141c-100 0 -131 -103 -131 -194v-278l-111 -17v348c0 61 -11 141 -92 141c-99 0 -131 -103 -131 -194v-278l-110 -17v557l104 15v-86c41 64 97 91 169 91c65 0 126 -31 154 -102c36 74 114 102 168 102
c136 0 182 -89 182 -207z" />
    <glyph glyph-name="Korea1.341" unicode="&#xff4e;" 
d="M699 315v-334c-36 -5 -73 -11 -110 -17v307c0 108 -20 179 -112 181c-116 0 -159 -94 -159 -208v-263c-37 -5 -74 -11 -111 -17v557l107 11v-87c38 60 109 94 186 94c138 0 199 -87 199 -224z" />
    <glyph glyph-name="Korea1.342" unicode="&#xff4f;" 
d="M700 161c0 -122 -95 -205 -246 -205c-152 0 -245 83 -245 205v166c0 122 93 210 245 210c151 0 246 -88 246 -210v-166zM590 315c0 79 -49 134 -136 134s-135 -55 -135 -134v-142c0 -77 48 -130 135 -130s136 53 136 130v142z" />
    <glyph glyph-name="Korea1.343" unicode="&#xff50;" 
d="M323 69c1 -92 1 -184 1 -276c-37 -6 -73 -12 -110 -17v741l106 17v-92c36 64 99 96 176 96c118 0 220 -72 220 -206v-154c0 -130 -103 -205 -217 -205c-82 0 -147 40 -176 96zM327 200c0 -74 58 -138 149 -138c69 0 125 41 125 120v145c0 76 -57 122 -125 122
c-84 0 -150 -59 -150 -130c0 -40 0 -79 1 -119z" />
    <glyph glyph-name="Korea1.344" unicode="&#xff51;" 
d="M587 69c-28 -57 -93 -94 -174 -96c-116 0 -220 73 -220 205v154c0 129 99 206 215 206c80 0 145 -29 182 -96c0 25 1 51 1 76c35 6 70 12 105 17v-742c-37 -6 -73 -12 -110 -17c0 98 0 196 1 293zM583 200c1 40 1 78 1 118c0 68 -63 131 -146 131
c-70 0 -129 -43 -129 -122v-145c0 -75 53 -120 120 -120c94 0 153 62 154 138z" />
    <glyph glyph-name="Korea1.345" unicode="&#xff52;" 
d="M625 539v-104h-12c-101 0 -170 -74 -170 -202v-254c-37 -6 -74 -12 -110 -17v556l101 18v-107h1c20 63 94 110 178 110h12z" />
    <glyph glyph-name="Korea1.346" unicode="&#xff53;" 
d="M431 295h92c85 -1 152 -69 152 -161c0 -117 -89 -177 -204 -177h-234v90h211c74 0 119 28 119 83c0 52 -28 79 -81 79h-103c-82 1 -147 71 -147 157c0 114 74 166 189 166h211l-18 -89h-176c-64 0 -99 -20 -99 -72c0 -51 34 -76 88 -76z" />
    <glyph glyph-name="Korea1.347" unicode="&#xff54;" 
d="M372 115v318h-94v88h94v119l111 24v-143h149l-17 -88h-132v-295c0 -57 25 -93 72 -93h84l-16 -90h-84c-105 0 -167 54 -167 160z" />
    <glyph glyph-name="Korea1.348" unicode="&#xff55;" 
d="M695 535v-552c-36 -6 -71 -12 -106 -17v86h-1c-35 -57 -103 -93 -178 -93c-136 0 -196 86 -196 222v337c37 6 73 12 110 17v-310c0 -106 20 -179 108 -179c110 0 153 93 153 207v265c36 6 73 12 110 17z" />
    <glyph glyph-name="Korea1.349" unicode="&#xff56;" 
d="M617 527h110l-206 -555h-129l-209 555h120l157 -443h2z" />
    <glyph glyph-name="Korea1.350" unicode="&#xff57;" 
d="M787 526h107l-175 -554h-127l-135 459l-134 -459h-129l-178 554h119l126 -453l132 453h131l134 -452z" />
    <glyph glyph-name="Korea1.351" unicode="&#xff58;" 
d="M526 261l200 -289h-135l-141 218l-142 -218h-125l203 289l-180 266h136l118 -197l123 197h120z" />
    <glyph glyph-name="Korea1.352" unicode="&#xff59;" 
d="M616 523h111l-213 -526c-42 -103 -81 -216 -216 -216h-82v87h69c68 0 102 64 117 125l-23 60l-195 470h121l154 -409h1z" />
    <glyph glyph-name="Korea1.353" unicode="&#xff5a;" 
d="M686 80l-16 -87h-435v88l290 358h-276v88h415v-85l-289 -362h311z" />
    <glyph glyph-name="Korea1.354" unicode="&#xff5b;" 
d="M608 -49v-74h-80c-56 0 -125 45 -125 131v168c0 72 -47 105 -88 105v76c41 0 88 34 88 101v172c0 88 70 131 125 131h80v-74h-51c-45 0 -52 -37 -52 -77v-167c0 -92 -70 -119 -101 -123v-2c31 -4 101 -25 101 -127v-163c0 -40 7 -77 52 -77h51z" />
    <glyph glyph-name="Korea1.355" unicode="&#xff5c;" 
d="M505 760v-883h-99v883h99z" />
    <glyph glyph-name="Korea1.356" unicode="&#xff5d;" 
d="M593 357v-76c-41 0 -88 -33 -88 -102v-171c0 -88 -68 -131 -125 -131h-80v74h52c44 0 51 37 51 77v165c0 96 70 121 101 125v2c-31 4 -101 27 -101 125v165c0 40 -7 77 -51 77h-52v74h80c57 0 125 -43 125 -131v-168c0 -71 47 -105 88 -105z" />
    <glyph glyph-name="Korea1.357" unicode="&#xffe3;" 
d="M921 800v-67h-927v67h927z" />
    <glyph glyph-name="Korea1.358" unicode="&#x3131;" 
d="M149 554h612c-5 -161 -21 -335 -61 -473h-116c29 94 55 270 58 387h-493v86z" />
    <glyph glyph-name="Korea1.359" unicode="&#x3132;" 
d="M347 68h-113c47 119 78 267 82 406h-198v86h311c-4 -233 -30 -345 -82 -492zM705 68h-116c43 135 68 278 68 406h-197v86h313c-9 -199 -21 -319 -68 -492z" />
    <glyph glyph-name="Korea1.360" unicode="&#x3133;" 
d="M441 550v-459l-103 -13v391h-206v81h309zM711 562v-211c0 -19 4 -40 16 -55c41 -53 90 -108 142 -163l-69 -61c-52 51 -102 103 -143 152c-41 -50 -89 -106 -141 -155l-67 63c44 44 154 151 154 213v202z" />
    <glyph glyph-name="Korea1.361" unicode="&#x3134;" 
d="M278 553v-360h499l-16 -86h-596v446h113z" />
    <glyph glyph-name="Korea1.362" unicode="&#x3135;" 
d="M786 470h-117v-119c0 -19 4 -40 16 -55c41 -53 90 -108 142 -163l-69 -61c-52 51 -102 103 -143 152c-41 -50 -89 -106 -141 -155l-67 63c44 44 154 151 154 213v125h-138v86h376zM262 92h-117v458h104v-376h52c32 0 79 6 102 14v-82c-36 -6 -101 -14 -141 -14z" />
    <glyph glyph-name="Korea1.363" unicode="&#x3136;" 
d="M262 92h-117v458h104v-376h52c32 0 79 6 102 14v-82c-36 -6 -101 -14 -141 -14zM797 432h-409v82h155v74l114 15v-89h155zM602 400c101 0 173 -56 173 -134v-66c0 -78 -72 -135 -173 -135s-173 57 -173 135v66c0 78 72 134 173 134zM602 321c-49 0 -77 -29 -77 -67v-31
c0 -38 16 -78 77 -78c60 0 77 40 77 78v31c0 38 -29 67 -77 67z" />
    <glyph glyph-name="Korea1.364" unicode="&#x3137;" 
d="M749 104h-583v438h583v-86h-470v-266h487z" />
    <glyph glyph-name="Korea1.365" unicode="&#x3138;" 
d="M797 184l-17 -86h-633v453h272v-86h-159v-281h200v367h320v-86h-209v-281h226z" />
    <glyph glyph-name="Korea1.366" unicode="&#x3139;" 
d="M757 74h-588v293h466v118h-470v87h582v-291h-465v-121h491z" />
    <glyph glyph-name="Korea1.367" unicode="&#x313a;" 
d="M774 564v-476l-112 -17v408h-170v85h282zM342 365v114h-201v85h306v-280h-196v-116h104c52 0 128 5 167 13v-84c-53 -9 -136 -14 -200 -14h-179v282h199z" />
    <glyph glyph-name="Korea1.368" unicode="&#x313b;" 
d="M782 566v-470l-110 -17h-200v487h310zM327 366v116h-197v84h293v-279h-185v-124h77c37 0 93 4 121 8v-82c-38 -6 -99 -10 -153 -10h-151v287h195zM573 161h99v321h-99v-321z" />
    <glyph glyph-name="Korea1.369" unicode="&#x313c;" 
d="M785 564v-469l-110 -17h-207v486h107v-160h100v160h110zM325 366v115h-202v84h300v-278h-191v-120h82c37 0 93 4 122 8v-82c-39 -6 -100 -10 -153 -10h-158v283h200zM575 163h100v154h-100v-154z" />
    <glyph glyph-name="Korea1.370" unicode="&#x313d;" 
d="M709 582v-231c0 -19 4 -40 16 -55c41 -53 90 -108 142 -163l-69 -61c-52 51 -102 103 -143 152c-41 -50 -89 -106 -141 -155l-23 19c0 -10 -143 -12 -170 -12h-175v294h199v110h-201v85h309v-277h-198v-125h99c39 0 92 2 131 8c46 51 116 121 116 174v222z" />
    <glyph glyph-name="Korea1.371" unicode="&#x313e;" 
d="M785 85h-298v477h298v-86h-191v-109h191v-85h-191v-114h208zM343 363v113h-208v86h308v-278h-198v-113h77c40 0 102 3 130 7v-84c-38 -6 -113 -9 -172 -9h-143v278h206z" />
    <glyph glyph-name="Korea1.372" unicode="&#x313f;" 
d="M310 363v113h-194v86h294v-278h-184v-113h77c40 0 102 3 130 7v-84c-38 -6 -113 -9 -172 -9h-143v278h192zM801 485h-55l-3 -325h77l-13 -76h-355v76h44l-4 325h-50v78h359v-78zM660 160l4 325h-90l4 -325h82z" />
    <glyph glyph-name="Korea1.373" unicode="&#x3140;" 
d="M807 432h-379v82h140v74l107 15v-89h147zM292 358v123h-169v83h273v-286h-165v-116h63c38 0 103 4 133 10v-83c-38 -7 -105 -10 -157 -10h-145v279h167zM622 400c95 0 163 -56 163 -134v-66c0 -78 -68 -135 -163 -135s-163 57 -163 135v66c0 78 68 134 163 134zM622 321
c-43 0 -67 -29 -67 -67v-31c0 -38 14 -78 67 -78c52 0 67 40 67 78v31c0 38 -25 67 -67 67z" />
    <glyph glyph-name="Korea1.374" unicode="&#x3141;" 
d="M169 545h578v-423l-112 -19h-466v442zM282 189h353v271h-353v-271z" />
    <glyph glyph-name="Korea1.375" unicode="&#x3142;" 
d="M282 410h353v160h112v-469l-112 -20h-466v489h113v-160zM282 167h353v156h-353v-156z" />
    <glyph glyph-name="Korea1.376" unicode="&#x3143;" 
d="M775 566v-462l-109 -19h-518v481h109v-165h151v165h111v-165h147v165h109zM519 169h147v148h-147v-148zM257 169h151v148h-151v-148z" />
    <glyph glyph-name="Korea1.377" unicode="&#x3144;" 
d="M437 564v-469l-110 -17h-207v486h107v-160h100v160h110zM227 163h100v154h-100v-154zM711 572v-218c0 -19 4 -41 16 -56c41 -54 90 -110 142 -165l-69 -61c-52 51 -102 103 -143 152c-41 -50 -89 -106 -141 -155l-67 63c44 44 154 153 154 216v209z" />
    <glyph glyph-name="Korea1.378" unicode="&#x3145;" 
d="M536 377c68 -61 202 -166 288 -227l-66 -70c-90 61 -219 157 -298 227c-79 -71 -198 -163 -301 -231l-65 71c89 63 214 161 284 225c16 15 23 38 23 60v124c39 6 77 11 116 16v-136c0 -22 3 -45 19 -59z" />
    <glyph glyph-name="Korea1.379" unicode="&#x3146;" 
d="M362 571v-162c0 -22 7 -45 15 -63c19 -42 53 -95 83 -137c30 41 61 94 81 135c9 17 17 40 17 62v148l111 17v-166c0 -21 7 -42 17 -60c36 -63 87 -131 154 -203l-71 -66c-64 67 -116 131 -156 188c-35 -55 -96 -141 -155 -196c-54 53 -115 138 -150 196
c-41 -60 -95 -122 -160 -191l-73 65c69 74 120 139 158 205c11 18 19 39 19 61v150z" />
    <glyph glyph-name="Korea1.380" unicode="&#x3147;" 
d="M377 94c-135 0 -221 89 -221 231c0 143 86 231 221 231h173c134 0 220 -88 220 -231c0 -142 -86 -231 -220 -231h-173zM391 470c-77 0 -124 -53 -124 -145c0 -91 46 -145 124 -145h144c76 0 124 55 124 145c0 92 -47 145 -124 145h-144z" />
    <glyph glyph-name="Korea1.381" unicode="&#x3148;" 
d="M536 362c68 -60 194 -158 283 -217c-22 -24 -43 -49 -64 -73c-92 61 -216 152 -296 220c-79 -70 -201 -157 -297 -222c-22 24 -43 47 -64 72c92 61 212 150 281 215c16 15 22 38 22 60v59h-248v86h617l-17 -86h-236v-55c0 -22 3 -45 19 -59z" />
    <glyph glyph-name="Korea1.382" unicode="&#x3149;" 
d="M781 479h-113v-77c0 -22 6 -43 16 -61c37 -59 83 -125 151 -197l-71 -65c-63 66 -111 125 -151 177c-37 -55 -95 -131 -154 -186c-54 52 -114 130 -149 186c-42 -54 -89 -114 -155 -180l-72 64c69 74 116 138 154 199c12 18 18 40 18 62v78h-130v86h673zM364 479v-74
c0 -22 6 -45 14 -63c19 -41 52 -93 83 -134c32 41 62 91 82 132c9 17 15 41 15 62v77h-194z" />
    <glyph glyph-name="Korea1.383" unicode="&#x314a;" 
d="M534 343c69 -60 189 -152 277 -211c-21 -24 -41 -47 -63 -71c-91 59 -209 146 -289 213c-82 -68 -198 -153 -294 -216c-20 24 -42 47 -63 71c92 60 207 147 277 209c16 14 22 39 22 61v33h-261v86h261v96l114 17v-113h268l-16 -86h-252v-29c0 -22 2 -46 19 -60z" />
    <glyph glyph-name="Korea1.384" unicode="&#x314b;" 
d="M623 248c-155 -15 -336 -19 -482 -19v87c139 0 340 4 493 19c6 45 10 92 12 140h-491v86h605c-2 -160 -23 -350 -63 -508h-116c18 63 32 128 42 195z" />
    <glyph glyph-name="Korea1.385" unicode="&#x314c;" 
d="M282 282v-118h483l-17 -86h-579v490h578v-86h-465v-114h462v-86h-462z" />
    <glyph glyph-name="Korea1.386" unicode="&#x314d;" 
d="M760 470h-603v87h603v-87zM356 433l8 -261h193l8 261h111l-8 -261h133l-16 -86h-660v86h127l-6 261h110z" />
    <glyph glyph-name="Korea1.387" unicode="&#x314e;" 
d="M786 456h-665v86h281v89l113 17v-106h290c-7 -29 -12 -57 -19 -86zM359 63c-111 0 -198 49 -198 170c0 120 87 169 198 169h198c111 0 198 -49 198 -169c0 -121 -87 -170 -198 -170h-198zM371 318c-61 0 -99 -28 -99 -85c0 -58 38 -86 99 -86h174c61 0 99 28 99 86
c0 57 -38 85 -99 85h-174z" />
    <glyph glyph-name="Korea1.388" unicode="&#x314f;" 
d="M471 761v-361h197l-17 -92h-180v-435l-112 -17v889z" />
    <glyph glyph-name="Korea1.389" unicode="&#x3150;" 
d="M512 -144v465h-103v-419l-104 -17v846l104 17v-339h103v336l105 16v-888z" />
    <glyph glyph-name="Korea1.390" unicode="&#x3151;" 
d="M467 761v-234h159l-17 -86h-142v-197h159l-17 -87h-142v-284l-111 -17v889z" />
    <glyph glyph-name="Korea1.391" unicode="&#x3152;" 
d="M518 -144v360h-99v-314l-104 -17v846l104 17v-191h99v188l105 16v-888zM419 302h99v170h-99v-170z" />
    <glyph glyph-name="Korea1.392" unicode="&#x3153;" 
d="M461 -144v470h-197v88h197v331l110 16v-888z" />
    <glyph glyph-name="Korea1.393" unicode="&#x3154;" 
d="M591 745l106 16v-888l-106 -17v889zM411 -115v439h-148v90h148v317l104 17v-846z" />
    <glyph glyph-name="Korea1.394" unicode="&#x3155;" 
d="M477 -144v350h-207v86h207v164h-208v86h208v203l110 16v-888z" />
    <glyph glyph-name="Korea1.395" unicode="&#x3156;" 
d="M591 745l106 16v-888l-106 -17v889zM410 -115v291h-152v85h152v174h-152v85h152v211l104 17v-846z" />
    <glyph glyph-name="Korea1.396" unicode="&#x3157;" 
d="M30 211h376v272h119v-272h364l-17 -86h-842v86z" />
    <glyph glyph-name="Korea1.397" unicode="&#x3158;" 
d="M772 761v-355h137l-16 -89h-121v-444l-112 -17v889zM387 344v-204c83 4 171 12 232 23v-87c-134 -18 -307 -25 -458 -25h-115v86h226v207h115z" />
    <glyph glyph-name="Korea1.398" unicode="&#x3159;" 
d="M710 -144v462h-75v-416l-102 -17v846l102 17v-341h75v338l103 16v-888zM60 135h173v212h106v-207c56 5 111 11 156 21v-85c-88 -15 -230 -24 -342 -24h-93v83z" />
    <glyph glyph-name="Korea1.399" unicode="&#x315a;" 
d="M686 745l111 16v-888l-111 -17v889zM400 344v-204c87 4 181 11 244 23v-87c-135 -18 -311 -25 -462 -25h-120v86h223v207h115z" />
    <glyph glyph-name="Korea1.400" unicode="&#x315b;" 
d="M30 217h222v267h111v-267h190v267h111v-267h225l-17 -87h-842v87z" />
    <glyph glyph-name="Korea1.401" unicode="&#x315c;" 
d="M872 356h-349v-371l-115 -17v388h-378v86h859z" />
    <glyph glyph-name="Korea1.402" unicode="&#x315d;" 
d="M686 -144v206l-209 -2v88h209v596l110 17v-888c-37 -5 -73 -11 -110 -17zM379 244v-352c-37 -5 -75 -11 -113 -17v366h-204v86h187c111 0 286 11 394 31v-87c-75 -13 -166 -22 -264 -27z" />
    <glyph glyph-name="Korea1.403" unicode="&#x315e;" 
d="M705 744l103 17v-888c-34 -5 -68 -11 -103 -17v888zM545 -115v200h-161v84h161v562l102 16v-845c-34 -5 -68 -11 -102 -17zM328 256v-346c-34 -5 -68 -11 -102 -17v359h-168v86h165c80 0 204 7 284 24v-86c-47 -9 -110 -16 -179 -20z" />
    <glyph glyph-name="Korea1.404" unicode="&#x315f;" 
d="M796 761v-888c-37 -5 -73 -11 -110 -17v888zM400 234v-342c-37 -5 -74 -11 -111 -17v355c-25 -1 -49 -1 -72 -1h-155v87h188c119 0 284 9 393 29v-87c-75 -13 -159 -20 -243 -24z" />
    <glyph glyph-name="Korea1.405" unicode="&#x3160;" 
d="M570 365h-207v-373l-112 -17v390h-221v86h859l-17 -86h-189v-379l-113 -16v395z" />
    <glyph glyph-name="Korea1.406" unicode="&#x3161;" 
d="M889 353l-17 -86h-842v86h859z" />
    <glyph glyph-name="Korea1.407" unicode="&#x3162;" 
d="M797 761v-888l-111 -17v889zM206 58h-144v86h189c110 0 283 11 393 30v-88c-136 -21 -297 -28 -438 -28z" />
    <glyph glyph-name="Korea1.408" unicode="&#x3163;" 
d="M518 761v-888l-111 -17v889z" />
    <glyph glyph-name="Korea1.409" unicode="&#x3165;" 
d="M782 148v-87h-305v478h105v-391h200zM443 148v-87h-305v478h104v-391h201z" />
    <glyph glyph-name="Korea1.410" unicode="&#x3166;" 
d="M782 148v-87h-305v478h305v-87h-200v-304h200zM443 148v-87h-305v478h104v-391h201z" />
    <glyph glyph-name="Korea1.411" unicode="&#x3167;" 
d="M426 143v-85h-294v483h101v-398h193zM859 101l-66 -62c-46 15 -130 102 -147 166c-21 -68 -99 -149 -146 -166l-63 62c45 24 90 72 120 123c24 40 40 129 40 208v109h99v-109c0 -80 17 -168 40 -208c30 -53 86 -107 123 -123z" />
    <glyph glyph-name="Korea1.412" unicode="&#x3168;" 
d="M630 576l184 -515h-367zM433 149v-88h-295v478h104v-390h191zM570 146h121l-60 172z" />
    <glyph glyph-name="Korea1.413" unicode="&#x3169;" 
d="M265 148v-87h-237v280h140v110h-140v88h237v-285h-142v-106h142zM901 114l-63 -63c-22 8 -57 30 -82 58c-21 23 -40 51 -48 76c-7 -25 -28 -55 -47 -76c-26 -28 -62 -52 -83 -59l-44 43v-32h-94v390h-151v88h245v-418c35 17 75 57 96 104c19 43 32 133 32 210v104h94
v-104c0 -77 11 -167 31 -210c24 -54 76 -100 114 -111z" />
    <glyph glyph-name="Korea1.414" unicode="&#x316a;" 
d="M782 148v-87h-305v478h305v-87h-207v-304h207zM443 148v-87h-306v280h202v111h-202v87h306v-285h-203v-106h203z" />
    <glyph glyph-name="Korea1.415" unicode="&#x316b;" 
d="M277 148v-87h-237v280h142v110h-142v88h237v-285h-143v-106h143zM901 114l-60 -63c-24 8 -59 30 -82 58c-23 23 -42 51 -50 76c-8 -25 -29 -55 -47 -76c-26 -28 -62 -52 -84 -59l-26 28c1 -3 2 -17 2 -17h-244v478h90v-152h66v152h89v-406c31 20 60 54 76 92
c20 43 32 133 32 210v104h92v-104c0 -77 11 -167 32 -210c24 -54 76 -100 114 -111zM400 148h66v152h-66v-152z" />
    <glyph glyph-name="Korea1.416" unicode="&#x316c;" 
d="M640 576l183 -515h-365zM443 149v-88h-306v281h202v110h-202v87h306v-285h-203v-105h203zM579 146h122l-61 172z" />
    <glyph glyph-name="Korea1.417" unicode="&#x316d;" 
d="M807 539v-88h-339v88h339zM443 148v-87h-306v280h202v110h-202v88h306v-286h-203v-105h203zM638 352c91 0 166 -70 166 -156c0 -85 -75 -155 -166 -155c-90 0 -165 70 -165 155c0 86 75 156 165 156zM638 124c41 0 72 33 72 72c0 40 -31 73 -72 73c-39 0 -72 -33 -72 -73
c0 -39 33 -72 72 -72z" />
    <glyph glyph-name="Korea1.418" unicode="&#x316e;" 
d="M782 539v-479h-306v479h105v-150h97v150h104zM443 539v-479h-305v479h305zM241 148h97v303h-97v-303zM581 148h97v153h-97v-153z" />
    <glyph glyph-name="Korea1.419" unicode="&#x316f;" 
d="M443 539v-479h-305v479h305zM241 148h97v303h-97v-303zM875 101l-66 -62c-46 15 -130 102 -147 166c-21 -68 -99 -149 -146 -166l-63 62c45 24 90 72 120 123c24 40 40 129 40 208v109h99v-109c0 -80 17 -168 40 -208c30 -53 86 -107 123 -123z" />
    <glyph glyph-name="Korea1.420" unicode="&#x3170;" 
d="M635 576l184 -515h-366zM440 539v-478h-305v478h305zM239 149h97v303h-97v-303zM574 146h121l-60 173z" />
    <glyph glyph-name="Korea1.421" unicode="&#x3171;" 
d="M703 677v-359h-486v359h486zM317 406h286v184h-286v-184zM460 296c147 0 251 -81 251 -193s-105 -194 -251 -194c-145 0 -251 82 -251 194s106 193 251 193zM460 -6c86 0 150 44 150 109c0 63 -64 109 -150 109c-85 0 -149 -47 -149 -109c0 -64 65 -109 149 -109z" />
    <glyph glyph-name="Korea1.422" unicode="&#x3172;" 
d="M802 539v-486h-104v398h-221v88h325zM443 539v-479h-306v479h105v-155h96v155h105zM242 148h96v149h-96v-149z" />
    <glyph glyph-name="Korea1.423" unicode="&#x3173;" 
d="M782 148v-88h-306v479h306v-88h-207v-303h207zM443 539v-479h-305v479h103v-155h97v155h105zM241 148h97v149h-97v-149z" />
    <glyph glyph-name="Korea1.424" unicode="&#x3174;" 
d="M843 539v-478h-97v389h-149v89h246zM683 112l-64 -62c-22 8 -58 32 -81 60c-21 23 -41 53 -49 78c-7 -25 -28 -56 -47 -78c-26 -29 -62 -53 -84 -60l-39 39v-28h-252v478h93v-152h67v152h92v-416c38 21 73 61 92 103c18 43 33 132 33 209v104h92v-104
c0 -77 11 -166 32 -209c23 -49 71 -96 115 -114zM160 148h67v152h-67v-152z" />
    <glyph glyph-name="Korea1.425" unicode="&#x3175;" 
d="M846 148v-88h-210c-3 3 -5 6 -8 8c-13 -4 -26 -6 -36 -11l-15 6c-43 26 -90 77 -103 124c-19 -58 -85 -121 -131 -138c-6 7 -18 19 -26 26v-14c-9 0 -17 -1 -25 -1h-224v479h93v-152h66v152h92v-406c72 52 108 139 108 301v105h93v-105c0 -163 37 -251 112 -303v408h214
v-88h-117v-303h117zM161 148h66v151h-66v-151z" />
    <glyph glyph-name="Korea1.426" unicode="&#x3176;" 
d="M827 108l-65 -65c-24 8 -69 44 -94 73c-21 22 -43 58 -51 84c-8 -27 -32 -62 -51 -85c-26 -29 -74 -64 -98 -72l-28 27l-1 -9h-301v478h104v-154h97v154h104v-407c29 22 64 56 83 92c22 41 38 122 38 200v27h-96v88h308v-88h-107v-27c0 -79 17 -159 39 -200
c26 -52 80 -99 119 -116zM242 148h97v149h-97v-149z" />
    <glyph glyph-name="Korea1.427" unicode="&#x3177;" 
d="M782 148v-88h-306v479h306v-88h-201v-107h195v-88h-195v-108h201zM443 539v-479h-305v479h103v-155h97v155h105zM241 148h97v149h-97v-149z" />
    <glyph glyph-name="Korea1.428" unicode="&#x3178;" 
d="M703 677v-359h-486v359h98v-96h290v96h98zM315 405h290v90h-290v-90zM460 295c146 0 249 -81 249 -192s-104 -192 -249 -192c-143 0 -249 81 -249 192s106 192 249 192zM460 -5c85 0 148 44 148 108c0 62 -63 108 -148 108s-149 -47 -149 -108c0 -62 66 -108 149 -108z
" />
    <glyph glyph-name="Korea1.429" unicode="&#x3179;" 
d="M722 677v-359h-245v359h88v-102h69v102h88zM443 677v-359h-245v359h88v-102h69v102h88zM566 400h69v93h-69v-93zM286 400h70v93h-70v-93zM460 295c146 0 249 -81 249 -192s-104 -192 -249 -192c-143 0 -249 81 -249 192s106 192 249 192zM460 -5c85 0 148 44 148 108
c0 62 -63 108 -148 108s-149 -47 -149 -108c0 -63 66 -108 149 -108z" />
    <glyph glyph-name="Korea1.430" unicode="&#x317a;" 
d="M782 539v-485h-104v397h-221v88h325zM531 104l-70 -61c-23 7 -69 43 -98 75c-22 22 -43 59 -51 87c-10 -28 -33 -64 -52 -87c-28 -32 -77 -68 -98 -75l-71 61c39 15 94 68 124 119c23 40 42 130 42 207v109h108v-109c0 -78 20 -167 42 -207c31 -52 86 -103 124 -119z" />
    <glyph glyph-name="Korea1.431" unicode="&#x317b;" 
d="M792 148v-87h-305v21l-47 -39c-22 7 -68 43 -98 75c-20 22 -43 59 -51 87c-8 -28 -31 -64 -52 -87c-27 -32 -77 -68 -98 -75l-70 61c39 15 94 68 124 119c23 40 42 130 42 207v109h107v-109c0 -78 21 -167 44 -207c24 -43 65 -85 99 -106v422h105v-391h200z" />
    <glyph glyph-name="Korea1.432" unicode="&#x317c;" 
d="M792 148v-87h-305v21l-47 -39c-22 7 -68 43 -98 75c-20 22 -43 59 -51 87c-8 -28 -31 -64 -52 -87c-27 -32 -77 -68 -98 -75l-70 61c39 15 94 68 124 119c23 40 42 130 42 207v109h107v-109c0 -78 21 -167 44 -207c24 -43 65 -85 99 -106v422h305v-88h-208v-303h208z" />
    <glyph glyph-name="Korea1.433" unicode="&#x317d;" 
d="M792 539v-478h-305v21l-47 -39c-22 7 -68 43 -98 75c-20 22 -43 59 -51 87c-8 -28 -31 -64 -52 -87c-27 -32 -77 -68 -98 -75l-70 61c39 15 94 68 124 119c23 40 42 130 42 207v109h107v-109c0 -78 21 -167 44 -207c24 -43 65 -85 99 -106v422h102v-147h102v147h101z
M589 148h102v157h-102v-157z" />
    <glyph glyph-name="Korea1.434" unicode="&#x317e;" 
d="M828 109l-68 -66c-23 7 -66 42 -96 73c-21 22 -45 60 -54 87c-8 -27 -33 -65 -52 -87c-30 -31 -74 -65 -96 -73c-23 9 -68 43 -97 75c-22 22 -44 59 -52 87c-9 -28 -32 -65 -52 -87c-27 -32 -77 -68 -98 -75l-70 61c38 15 94 68 123 119c24 40 43 130 43 207v110h107
v-110c0 -78 20 -167 43 -207c13 -24 31 -47 50 -64c22 17 40 41 54 67c23 40 44 127 44 204v21h-118v88h344v-88h-120v-21c0 -78 20 -163 44 -204c30 -55 83 -100 121 -117z" />
    <glyph glyph-name="Korea1.435" unicode="&#x317f;" 
d="M460 610l253 -547h-503zM350 150h219l-109 248z" />
    <glyph glyph-name="Korea1.436" unicode="&#x3180;" 
d="M476 299c0 166 77 256 180 256c106 0 181 -90 181 -256c0 -165 -75 -257 -181 -257c-103 0 -180 92 -180 257zM83 299c0 166 76 256 179 256c106 0 181 -90 181 -256c0 -165 -75 -257 -181 -257c-103 0 -179 92 -179 257zM657 128c54 0 85 68 85 172
c0 101 -31 169 -85 169c-55 0 -87 -68 -87 -169c0 -104 32 -172 87 -172zM263 128c55 0 85 68 85 172c0 101 -30 169 -85 169c-54 0 -86 -68 -86 -169c0 -104 32 -172 86 -172z" />
    <glyph glyph-name="Korea1.437" unicode="&#x3181;" 
d="M514 663v-162c140 -22 235 -133 235 -281c0 -166 -121 -284 -289 -284c-166 0 -289 119 -289 284c0 147 96 258 236 281v162h107zM460 27c108 0 188 82 188 193c0 110 -79 193 -188 193c-108 0 -187 -84 -187 -193c0 -110 79 -193 187 -193z" />
    <glyph glyph-name="Korea1.438" unicode="&#x3182;" 
d="M334 556v-113c77 -20 130 -88 130 -195c0 -129 -77 -197 -181 -197s-181 68 -181 197c0 109 54 177 133 196v112h99zM284 132c50 0 83 44 83 116c0 73 -33 118 -83 118c-53 0 -86 -45 -86 -118c0 -72 33 -116 86 -116zM866 104l-70 -61c-23 7 -69 43 -98 75
c-22 22 -43 59 -51 87c-10 -28 -33 -64 -52 -87c-28 -32 -77 -68 -98 -75l-71 61c39 15 94 68 124 119c23 40 42 130 42 207v109h108v-109c0 -78 20 -167 42 -207c31 -52 86 -103 124 -119z" />
    <glyph glyph-name="Korea1.439" unicode="&#x3183;" 
d="M629 576l185 -515h-367zM334 556v-113c77 -20 130 -88 130 -195c0 -129 -77 -197 -181 -197s-181 68 -181 197c0 109 54 177 133 196v112h99zM284 132c50 0 83 44 83 116c0 73 -33 118 -83 118c-53 0 -86 -45 -86 -118c0 -72 33 -116 86 -116zM571 145h119l-60 174z" />
    <glyph glyph-name="Korea1.440" unicode="&#x3184;" 
d="M712 404v-87h-504v87h84v186h-84v87h504v-87h-84v-186h84zM393 404h135v186h-135v-186zM460 296c146 0 251 -81 251 -193s-106 -194 -251 -194c-144 0 -251 82 -251 194s107 193 251 193zM460 -7c87 0 150 45 150 110c0 63 -63 110 -150 110c-86 0 -150 -48 -150 -110
c0 -64 66 -110 150 -110z" />
    <glyph glyph-name="Korea1.441" unicode="&#x3185;" 
d="M779 446v-87h-305v87h103v101c0 18 -1 23 -2 41h105c-2 -24 -4 -33 -4 -56v-86h103zM441 446v-87h-306v87h101v101c0 18 -1 23 -3 41h105c-2 -24 -3 -33 -3 -56v-86h106zM626 326c84 0 151 -68 151 -151s-67 -152 -151 -152c-83 0 -148 69 -148 152s65 151 148 151z
M288 326c83 0 149 -68 149 -151s-66 -152 -149 -152s-150 69 -150 152s67 151 150 151zM626 100c34 0 64 34 64 75s-30 76 -64 76c-32 0 -62 -35 -62 -76s30 -75 62 -75zM288 100c31 0 62 34 62 75s-31 76 -62 76c-34 0 -63 -35 -63 -76s29 -75 63 -75z" />
    <glyph glyph-name="Korea1.442" unicode="&#x3186;" 
d="M722 638v-89h-524v89h524zM460 465c147 0 251 -99 251 -234c0 -134 -106 -233 -251 -233s-251 99 -251 233c0 135 106 234 251 234zM460 84c86 0 151 62 151 147c0 84 -65 147 -151 147c-85 0 -150 -64 -150 -147c0 -84 66 -147 150 -147z" />
    <glyph glyph-name="Korea1.443" unicode="&#x3187;" 
d="M892 264v-98h-146v-318h-110v892h110v-240h146v-97h-146v-139h146zM613 197v-89c-158 -21 -319 -23 -485 -23h-83v90h123v285h104v-284c51 0 83 0 108 3l5 4c1 1 2 1 3 1v276h105v-276c45 3 79 7 120 13z" />
    <glyph glyph-name="Korea1.444" unicode="&#x3188;" 
d="M826 742v-894h-100v314h-80v-281h-102v850h102v-225h80v236h100zM523 206v-89c-52 -7 -172 -19 -247 -20c-82 -1 -238 -1 -238 -1v91h95v283h100v-283c37 0 58 2 88 2v281h101v-276c35 3 69 7 101 12zM646 253h80v161h-80v-161z" />
    <glyph glyph-name="Korea1.445" unicode="&#x3189;" 
d="M664 197v-90c-157 -19 -321 -23 -496 -23h-87v91h122v285h105v-284c45 0 85 1 120 2c1 9 1 23 1 31v251h106v-276c47 3 87 8 129 13zM796 740v-892h-107v892h107z" />
    <glyph glyph-name="Korea1.446" unicode="&#x318a;" 
d="M684 396v-92c-66 -11 -70 -13 -179 -18h-11c-10 0 -13 -1 -27 -1v-381h-99v379h-102v-379h-100v379h-103v90h110c276 0 425 1 511 23zM832 740v-892h-107v141h-202v84h202v64h-202v85h202v518h107z" />
    <glyph glyph-name="Korea1.447" unicode="&#x318b;" 
d="M538 435v-88c-52 -10 -48 -12 -125 -16c-7 -1 -14 -1 -22 -1v-427h-94v424h-72v-424h-96v424h-90v89s256 -1 339 3c84 4 124 9 160 16zM677 731v-850h-100v129h-144v84h144v78h-144v85h144v474h100zM843 741v-893h-100v893h100z" />
    <glyph glyph-name="Korea1.448" unicode="&#x318c;" 
d="M833 741v-893h-108v893h108zM699 396v-92c-45 -7 -84 -12 -146 -16v-385h-103v381c-40 -1 -79 -1 -120 -1v-380h-105v380h-150v92s249 -1 368 1c85 2 206 12 256 20z" />
    <glyph glyph-name="Korea1.449" unicode="&#x318d;" 
d="M460 372c42 0 74 -32 74 -72c0 -41 -32 -72 -74 -72s-74 31 -74 72c0 40 32 72 74 72z" />
    <glyph glyph-name="Korea1.450" unicode="&#x318e;" 
d="M622 743v-901h-96v901h96zM347 370c41 0 70 -29 70 -70s-29 -70 -70 -70s-70 29 -70 70s29 70 70 70z" />
    <glyph glyph-name="Korea1.451" unicode="&#x2170;" 
d="M510 691v-102h-102v102h102zM510 487v-552h-100v552h100z" />
    <glyph glyph-name="Korea1.452" unicode="&#x2171;" 
d="M666 684v-103h-101v103h101zM352 684v-103h-100v103h100zM665 479v-552h-99v552h99zM351 479v-552h-98v552h98z" />
    <glyph glyph-name="Korea1.453" unicode="&#x2172;" 
d="M712 684v-103h-100v103h100zM510 684v-103h-102v103h102zM307 684v-103h-101v103h101zM711 479v-552h-98v552h98zM509 479v-552h-100v552h100zM306 479v-552h-99v552h99z" />
    <glyph glyph-name="Korea1.454" unicode="&#x2173;" 
d="M255 684v-103h-102v103h102zM723 479h113l-212 -548h-121l-210 548h113l159 -424zM253 479v-551h-99v551h99z" />
    <glyph glyph-name="Korea1.455" unicode="&#x2174;" 
d="M620 490h108l-212 -559h-115l-209 559h107l160 -435z" />
    <glyph glyph-name="Korea1.456" unicode="&#x2175;" 
d="M792 691v-103h-102v103h102zM532 485h112l-210 -547h-118l-209 547h112l157 -424zM790 485v-551h-99v551h99z" />
    <glyph glyph-name="Korea1.457" unicode="&#x2176;" 
d="M830 690v-103h-93v103h93zM679 690v-103h-93v103h93zM442 485h108l-187 -548h-119l-188 548h108l139 -422zM829 485v-552h-91v552h91zM678 485v-552h-91v552h91z" />
    <glyph glyph-name="Korea1.458" unicode="&#x2177;" 
d="M881 690v-103h-90v103h90zM739 690v-103h-90v103h90zM598 690v-103h-91v103h91zM370 485h109l-173 -548h-123l-172 548h106l127 -425zM880 485v-552h-88v552h88zM739 485v-552h-89v552h89zM598 485v-552h-90v552h90z" />
    <glyph glyph-name="Korea1.459" unicode="&#x2178;" 
d="M264 690v-103h-102v103h102zM262 484v-551h-99v551h99zM609 215l197 -283h-118l-138 194l-137 -194h-118l198 283l-189 269h117l129 -181l129 181h117z" />
    <glyph glyph-name="Korea1.460" unicode="&#x2179;" 
d="M520 220l203 -286h-119l-144 200l-147 -200h-118l204 286l-194 273h119l136 -187l134 187h119z" />
    <glyph glyph-name="Korea1.461" unicode="&#x2160;" 
d="M507 688v-756h-100v756h100z" />
    <glyph glyph-name="Korea1.462" unicode="&#x2161;" 
d="M667 689v-756h-98v756h98zM346 689v-756h-99v756h99z" />
    <glyph glyph-name="Korea1.463" unicode="&#x2162;" 
d="M711 689v-756h-99v756h99zM508 689v-756h-100v756h100zM303 689v-756h-100v756h100z" />
    <glyph glyph-name="Korea1.464" unicode="&#x2163;" 
d="M705 683h107l-216 -755h-118l-215 755h108l166 -616zM234 683v-755h-100v755h100z" />
    <glyph glyph-name="Korea1.465" unicode="&#x2164;" 
d="M694 689h110l-280 -756h-118l-280 756h111l228 -632z" />
    <glyph glyph-name="Korea1.466" unicode="&#x2165;" 
d="M784 689v-756h-101v756h101zM540 689h107l-213 -756h-118l-213 756h107l166 -616z" />
    <glyph glyph-name="Korea1.467" unicode="&#x2166;" 
d="M825 689v-756h-92v756h92zM674 689v-756h-94v756h94zM442 689h106l-186 -756h-118l-187 756h109l137 -612z" />
    <glyph glyph-name="Korea1.468" unicode="&#x2167;" 
d="M877 688v-755h-88v755h88zM736 688v-755h-88v755h88zM594 688v-755h-89v755h89zM375 688h98l-164 -755h-115l-164 755h97l123 -613z" />
    <glyph glyph-name="Korea1.469" unicode="&#x2168;" 
d="M594 319l237 -388h-113l-180 293l-180 -293h-112l236 388l-225 371h112l169 -276l170 276h111zM208 690v-759h-97v759h97z" />
    <glyph glyph-name="Korea1.470" unicode="&#x2169;" 
d="M519 325l256 -394h-112l-200 306l-199 -306h-111l254 394l-236 365h111l181 -278l180 278h113z" />
    <glyph glyph-name="Korea1.471" unicode="&#x391;" 
d="M695 679l82 -750h-111l-18 184h-339l-123 -184h-117c167 249 334 500 500 750h126zM370 209h266l-34 363z" />
    <glyph glyph-name="Korea1.472" unicode="&#x392;" 
d="M336 681l221 -1c73 -1 121 -16 157 -60c31 -34 45 -72 45 -121c0 -89 -47 -144 -136 -182c69 -30 110 -92 110 -180c0 -62 -24 -121 -66 -158c-43 -35 -95 -53 -168 -53h-383zM346 371h158c86 0 154 56 154 121c0 57 -44 98 -108 98h-139zM323 279l-77 -262h253
c86 0 140 47 140 121c0 79 -59 141 -135 141h-181z" />
    <glyph glyph-name="Korea1.473" unicode="&#x393;" 
d="M804 519l-95 -33l-39 92h-251l-182 -651h-109c70 250 140 501 211 752h406z" />
    <glyph glyph-name="Korea1.474" unicode="&#x394;" 
d="M45 -73l624 755h102v-755h-726zM229 20h438v519c-146 -173 -292 -345 -438 -519z" />
    <glyph glyph-name="Korea1.475" unicode="&#x395;" 
d="M114 -74c81 251 161 503 242 755h441l-27 -92h-337l-73 -228h327c-12 -30 -22 -61 -33 -91h-325c-26 -85 -52 -170 -79 -255h361l-25 -89h-472z" />
    <glyph glyph-name="Korea1.476" unicode="&#x396;" 
d="M120 -73l19 98c166 185 331 371 497 557h-363l19 99h493c-7 -34 -14 -70 -22 -104c-165 -184 -329 -368 -495 -552h397l-21 -98h-524z" />
    <glyph glyph-name="Korea1.477" unicode="&#x397;" 
d="M278 681h105c-30 -105 -58 -211 -88 -316h366l84 316h104c-68 -252 -137 -503 -205 -753h-104c32 113 63 228 94 343h-366c-32 -115 -63 -230 -95 -343h-106c70 250 141 501 211 753z" />
    <glyph glyph-name="Korea1.478" unicode="&#x398;" 
d="M512 687c195 0 299 -118 282 -297c-28 -292 -152 -472 -384 -472c-172 0 -287 99 -287 275c0 122 54 281 124 375c57 76 154 119 265 119zM292 461c-45 -82 -73 -173 -73 -268c0 -125 70 -187 191 -187c82 0 139 24 185 81c59 74 107 229 107 344c0 112 -68 169 -191 169
c-107 0 -168 -41 -219 -139zM381 394l-13 -55h185l13 55h55c-15 -61 -28 -123 -43 -184h-55c4 18 9 36 14 54h-184l-14 -54h-55l41 184h56z" />
    <glyph glyph-name="Korea1.479" unicode="&#x399;" 
d="M305 -74l192 756h110l-193 -756h-109z" />
    <glyph glyph-name="Korea1.480" unicode="&#x39a;" 
d="M563 -72c-86 107 -171 215 -256 323l-71 -323h-101l159 752h106l-69 -307c108 102 215 205 324 307h136l-404 -376l302 -376h-126z" />
    <glyph glyph-name="Korea1.481" unicode="&#x39b;" 
d="M565 -69c0 199 1 398 1 599c-119 -201 -239 -400 -358 -599h-113c149 248 299 497 447 747h133c0 -250 1 -499 1 -747h-111z" />
    <glyph glyph-name="Korea1.482" unicode="&#x39c;" 
d="M347 -73c-20 200 -41 400 -62 600c-41 -200 -82 -400 -124 -600h-100l154 754h143l59 -572l283 572h151c-51 -251 -102 -503 -154 -754h-102l121 584c-97 -195 -194 -390 -292 -584h-77z" />
    <glyph glyph-name="Korea1.483" unicode="&#x39d;" 
d="M638 -75h-122l-175 606l-133 -606h-109c56 252 114 503 170 756h130l173 -597l131 597h109z" />
    <glyph glyph-name="Korea1.484" unicode="&#x39e;" 
d="M731 530h-74l10 55h-277l-17 -55h-79l35 149h442zM646 262h-392l25 95h392zM599 77h79l-41 -149h-493l38 149h79l-13 -55h334z" />
    <glyph glyph-name="Korea1.485" unicode="&#x39f;" 
d="M502 681c164 0 279 -119 274 -275c-7 -231 -121 -481 -352 -481c-180 0 -279 105 -279 278c0 108 31 218 84 310c70 112 150 168 273 168zM338 498c-53 -85 -91 -213 -91 -308c0 -108 67 -170 170 -170c93 0 150 43 199 156c31 73 52 150 52 224c0 118 -52 192 -166 192
c-70 0 -124 -31 -164 -94z" />
    <glyph glyph-name="Korea1.486" unicode="&#x3a0;" 
d="M779 587h-52c-44 -220 -86 -439 -129 -659h-104c43 220 87 439 131 659h-266l-137 -659h-103c46 220 90 439 136 659h-62l18 93h589z" />
    <glyph glyph-name="Korea1.487" unicode="&#x3a1;" 
d="M155 -72l151 752h229c136 0 215 -75 215 -202c0 -149 -88 -242 -242 -242h-187l-63 -308h-103zM388 586l-48 -256h161c94 0 144 49 144 149c0 73 -37 107 -121 107h-136z" />
    <glyph glyph-name="Korea1.488" unicode="&#x3a3;" 
d="M145 24l281 303l-165 258c7 31 15 62 23 94h474c-7 -31 -14 -62 -20 -93h-359c57 -88 114 -175 170 -263l-282 -304h388c-7 -30 -14 -60 -20 -91h-513c7 32 15 65 23 96z" />
    <glyph glyph-name="Korea1.489" unicode="&#x3a4;" 
d="M722 586h-198c-42 -220 -84 -440 -127 -659h-103l126 659h-220c7 31 13 62 21 93h522c-7 -31 -15 -62 -21 -93z" />
    <glyph glyph-name="Korea1.490" unicode="&#x3a5;" 
d="M385 -73h-98c20 126 40 253 61 381c6 34 9 64 9 87c0 100 -35 158 -139 201c12 30 23 60 34 90c110 -37 169 -88 183 -174c53 104 130 157 311 168c-8 -35 -16 -70 -23 -104c-164 -17 -246 -105 -282 -304c-18 -115 -37 -231 -56 -345z" />
    <glyph glyph-name="Korea1.491" unicode="&#x3a6;" 
d="M588 676l-14 -64c157 -22 235 -108 235 -254c0 -123 -60 -241 -147 -304c-56 -46 -126 -60 -229 -60l-15 -63h-97l18 67c-153 24 -229 106 -229 256c0 128 60 244 161 309c55 35 117 51 208 55l13 58h96zM357 93l105 436c-72 -4 -104 -14 -143 -40
c-69 -47 -112 -132 -112 -227c0 -96 48 -153 150 -169zM557 523l-106 -437c20 0 36 2 49 4c130 6 209 137 209 268c0 97 -52 152 -152 165z" />
    <glyph glyph-name="Korea1.492" unicode="&#x3a7;" 
d="M578 -75l-129 304c-79 -101 -159 -203 -237 -304h-124c105 132 209 266 313 400l-150 357h111l115 -269c68 90 136 179 203 269h121l-280 -369l171 -388h-114z" />
    <glyph glyph-name="Korea1.493" unicode="&#x3a8;" 
d="M399 -74h-100l42 220c-165 5 -230 61 -230 178c0 34 9 93 30 182l3 20c8 34 13 60 13 75c0 44 -17 49 -26 72c14 5 45 6 71 6c36 0 59 -6 59 -47c0 -12 -6 -56 -18 -105l-11 -45c-18 -71 -28 -113 -27 -150c0 -47 9 -90 151 -93c27 147 54 292 82 439h102
c-27 -148 -56 -295 -83 -443c156 0 175 25 223 273l5 23c28 147 30 147 140 147c10 0 19 -1 25 -4c-20 -24 -39 -56 -52 -102l-18 -86c-26 -124 -45 -192 -71 -239c-40 -69 -106 -105 -240 -105h-28z" />
    <glyph glyph-name="Korea1.494" unicode="&#x3a9;" 
d="M687 -69h-281c9 42 20 82 30 125c172 87 247 197 247 338c0 115 -75 188 -189 188c-137 0 -220 -115 -220 -282c0 -108 31 -175 112 -249l-31 -120h-261c8 30 16 60 25 90h169c-84 92 -114 179 -114 292c0 213 133 365 322 365c172 0 289 -111 289 -275
c0 -88 -27 -178 -73 -242c-34 -47 -78 -90 -166 -140h160z" />
    <glyph glyph-name="Korea1.495" unicode="&#x3b1;" 
d="M675 34l-40 -98c-12 -1 -23 -2 -32 -2c-54 0 -76 17 -91 74c-54 -48 -103 -79 -171 -79c-100 0 -166 77 -166 191c0 179 122 361 282 361c94 0 143 -55 143 -148c0 -19 -1 -41 -4 -63l2 -33c41 70 63 129 86 223l90 -36c-45 -145 -80 -212 -179 -336c5 -43 10 -59 44 -59
c8 0 18 2 36 5zM470 76c27 52 37 73 42 194v6c0 69 -16 109 -66 109c-80 0 -173 -136 -173 -255c0 -58 33 -108 91 -108c36 0 73 21 106 54z" />
    <glyph glyph-name="Korea1.496" unicode="&#x3b2;" 
d="M145 -173l135 586c41 181 115 275 250 275c106 0 175 -62 175 -160c0 -88 -45 -145 -139 -180c72 -33 108 -92 108 -183c0 -141 -99 -245 -234 -245c-63 0 -108 21 -151 71l-39 -164h-105zM399 299l17 91h44c84 0 138 62 138 130c0 45 -29 73 -73 73
c-60 0 -103 -49 -127 -146l-85 -346c14 -55 55 -91 116 -91c80 0 135 65 135 159c0 90 -56 131 -132 131c-11 0 -22 -1 -33 -1z" />
    <glyph glyph-name="Korea1.497" unicode="&#x3b3;" 
d="M430 -77h-111l41 237c7 39 10 82 11 104c0 64 -30 107 -89 107c-20 0 -37 -4 -74 -23v103c34 19 53 23 87 23c75 0 117 -34 148 -120c57 87 99 113 180 113c38 0 63 -5 113 -27c-9 -34 -19 -68 -29 -102c-35 18 -53 24 -80 24c-51 0 -88 -21 -115 -60
c-18 -26 -30 -60 -41 -135c-2 -6 -3 -13 -3 -19c-13 -75 -26 -149 -38 -225z" />
    <glyph glyph-name="Korea1.498" unicode="&#x3b4;" 
d="M725 664l-18 -94c-79 17 -91 21 -143 21c-71 0 -102 -6 -102 -20c0 -5 15 -29 52 -60c104 -100 147 -168 147 -273c0 -166 -112 -305 -252 -315c-139 0 -222 67 -222 208c0 153 81 284 222 303l44 6c-94 95 -124 124 -124 159c0 56 82 86 223 86c57 0 91 -6 173 -21z
M394 342c-55 -32 -100 -130 -100 -218c0 -67 37 -112 94 -112c90 0 169 111 169 226c0 75 -39 121 -101 121c-21 0 -42 -5 -62 -17z" />
    <glyph glyph-name="Korea1.499" unicode="&#x3b5;" 
d="M707 433l-30 -91c-77 34 -131 48 -189 48c-66 0 -104 -26 -104 -63c0 -28 27 -48 78 -48h112l-21 -95h-85c-104 0 -159 -39 -159 -92c0 -46 38 -73 115 -73c70 0 127 14 222 57l-24 -112c-71 -29 -135 -41 -213 -41c-144 0 -218 54 -218 156c0 79 41 128 130 157
c-39 33 -53 60 -53 98c0 91 94 151 228 151c73 0 126 -13 211 -52z" />
    <glyph glyph-name="Korea1.500" unicode="&#x3b6;" 
d="M271 547l30 94h271l6 4c26 17 38 22 56 36c22 -10 35 -22 62 -50c8 -8 21 -32 21 -40c0 -22 -31 -30 -51 -33c-15 -9 -23 -16 -34 -27c-76 -72 -321 -347 -321 -414c0 -29 22 -35 111 -47c151 -13 206 -56 206 -144c0 -92 -65 -148 -163 -148c-25 0 -56 3 -101 10
c5 32 11 64 17 96c35 -8 49 -8 68 -8c46 0 67 16 67 41c0 26 -26 45 -75 51l-97 14c-5 0 -8 2 -13 2c-82 16 -127 55 -127 121c0 51 21 82 85 171c35 45 73 94 106 133c20 23 75 83 119 138h-243z" />
    <glyph glyph-name="Korea1.501" unicode="&#x3b7;" 
d="M601 -152h-111l73 405c4 24 7 44 7 59c0 50 -27 78 -82 78c-69 0 -131 -56 -145 -127c-16 -96 -34 -190 -50 -284h-113c30 164 59 329 89 495h108l-8 -52c44 45 91 64 145 64c103 0 171 -61 171 -160c0 -7 -1 -12 -1 -16c-17 -147 -54 -310 -83 -462z" />
    <glyph glyph-name="Korea1.502" unicode="&#x3b8;" 
d="M718 467c1 -135 -49 -306 -116 -414c-55 -89 -121 -131 -208 -131c-126 0 -195 78 -195 222c0 139 48 313 116 419c50 77 128 121 214 121c119 0 189 -80 189 -217zM338 347h264c7 52 11 99 11 123c0 83 -30 126 -91 126c-97 0 -155 -128 -184 -249zM578 262h-262
c-7 -48 -12 -86 -12 -118c0 -90 29 -133 92 -133c78 0 143 92 182 251z" />
    <glyph glyph-name="Korea1.503" unicode="&#x3b9;" 
d="M434 473h107l-89 -393c-3 -14 -4 -25 -5 -33c-2 -19 14 -30 44 -30c1 0 4 1 6 1l32 6c7 1 13 3 23 6l-21 -95c-48 -9 -80 -11 -121 -11c-60 0 -86 23 -86 64c0 12 2 23 5 35z" />
    <glyph glyph-name="Korea1.504" unicode="&#x3ba;" 
d="M511 -74c-56 76 -113 152 -170 228l-46 -228h-111l119 547h111l-43 -193c80 65 162 129 243 193h150c-113 -88 -225 -177 -337 -265c70 -95 140 -188 211 -282h-127z" />
    <glyph glyph-name="Korea1.505" unicode="&#x3bb;" 
d="M302 596l50 88c92 -33 132 -68 177 -147c41 -73 84 -251 110 -355l16 -42c25 -67 50 -109 95 -147l-98 -72c-88 104 -105 182 -145 349c-6 23 -9 49 -16 74c-43 -28 -60 -66 -114 -184l-23 -46c-50 -101 -95 -145 -174 -193c-24 31 -48 60 -73 90c79 33 123 84 193 221
c53 115 81 161 129 204c6 4 12 10 22 15c-41 88 -68 116 -149 145z" />
    <glyph glyph-name="Korea1.506" unicode="&#x3bc;" horiz-adv-x="650" 
d="M622 526l-95 -542h-104c5 26 10 53 14 79c-44 -57 -118 -91 -191 -91c-35 0 -62 6 -84 18l-32 -185h-106l128 721h107l-52 -298c-5 -28 -8 -54 -8 -76c0 -58 21 -96 83 -96c108 -1 165 93 186 204l7 38c14 76 25 152 40 228h107z" />
    <glyph glyph-name="Korea1.507" unicode="&#x3bd;" 
d="M794 484l-25 -106c-70 0 -95 -20 -142 -178l-33 -100c-48 -130 -94 -180 -168 -180c-113 0 -110 124 -122 255l-6 63c-11 113 -25 140 -69 140c-13 0 -28 -4 -64 -24l-30 93c42 26 68 35 105 35c66 0 106 -23 133 -76c22 -43 28 -81 35 -188c3 -42 3 -66 5 -83v-5
c6 -76 4 -96 26 -96c17 0 44 60 65 119l36 116c60 180 93 215 254 215z" />
    <glyph glyph-name="Korea1.508" unicode="&#x3be;" 
d="M592 264c-33 1 -60 -1 -84 -1c-111 0 -197 -66 -197 -140c0 -40 19 -55 94 -66c71 -11 102 -21 127 -35c36 -21 58 -57 58 -101c0 -88 -57 -137 -174 -137c-20 0 -37 1 -79 6l18 95c28 -6 43 -7 57 -7c45 0 72 16 72 38c0 31 -40 38 -91 44c-108 16 -193 47 -193 150
c0 94 71 174 195 214c-57 27 -77 54 -77 98c0 51 30 91 96 124v3h-106l25 89h260c33 3 66 16 82 29c9 0 49 -56 49 -83c0 -36 -37 -16 -118 -33c-142 -37 -179 -81 -179 -123c0 -41 49 -69 132 -69h54z" />
    <glyph glyph-name="Korea1.509" unicode="&#x3bf;" 
d="M710 277c0 -176 -100 -353 -285 -353c-128 0 -214 81 -214 217c0 163 103 347 289 347c129 0 210 -81 210 -211zM372 305c-31 -54 -49 -124 -49 -181c0 -69 38 -107 106 -107c57 0 97 33 132 109c24 51 38 114 38 164c0 63 -38 102 -104 102c-51 0 -91 -27 -123 -87z" />
    <glyph glyph-name="Korea1.510" unicode="&#x3c0;" 
d="M257 -72l-95 51c30 37 46 65 60 103c25 71 37 123 58 303c-26 -1 -45 -2 -75 -10l13 99c26 7 45 9 78 9h475l-24 -95h-62c-35 -140 -43 -212 -43 -276c0 -45 10 -101 66 -139c-33 -16 -66 -32 -100 -47c-53 42 -74 106 -74 160c0 72 12 161 41 302h-186
c-9 -68 -15 -131 -25 -186c-27 -142 -56 -202 -107 -274z" />
    <glyph glyph-name="Korea1.511" unicode="&#x3c1;" 
d="M148 -165c28 118 58 235 86 353c46 197 118 300 276 300c128 0 203 -76 203 -204c0 -176 -115 -333 -269 -333c-60 0 -97 18 -144 73l-43 -189h-109zM356 222c-6 -30 -10 -57 -13 -85c9 -55 44 -90 95 -90c87 0 164 112 164 229c0 71 -37 113 -99 113
c-75 0 -139 -74 -147 -167z" />
    <glyph glyph-name="Korea1.512" unicode="&#x3c3;" 
d="M694 581c9 -31 19 -61 29 -93c-75 -18 -101 -27 -149 -48c69 -39 93 -86 93 -172c0 -183 -115 -345 -274 -345c-126 0 -202 86 -202 224c0 130 68 239 185 317c86 52 207 88 318 117zM463 378c-100 0 -164 -162 -164 -241c0 -75 36 -115 94 -115c93 0 166 125 166 235
c0 76 -37 121 -96 121z" />
    <glyph glyph-name="Korea1.513" unicode="&#x3c4;" 
d="M708 475l-18 -102c-41 -10 -60 -12 -93 -12c-14 0 -48 3 -88 7c-14 -85 -30 -170 -44 -255c-4 -24 -11 -49 -11 -66c0 -1 1 -2 1 -3v-4c0 -18 14 -24 39 -25c7 0 18 0 30 1l49 7c-8 -30 -15 -60 -22 -91c-56 -6 -93 -9 -127 -9c-57 0 -89 28 -89 66v5l5 41l60 340
c-25 2 -39 3 -46 3c-40 0 -86 -8 -128 -22l12 102c51 13 77 16 133 16c25 0 62 0 97 -4l27 -3c30 -3 51 -6 69 -7h6c5 -1 9 -1 14 -1c40 0 68 3 124 16z" />
    <glyph glyph-name="Korea1.514" unicode="&#x3c5;" 
d="M550 418l59 68c83 -32 100 -62 100 -105c0 -13 -3 -37 -8 -63c-60 -303 -81 -394 -295 -394c-120 0 -188 39 -188 121c0 14 2 29 5 44l8 42c4 20 9 40 14 57l18 79l19 83c0 22 -1 30 -54 52l59 79c79 -27 107 -57 107 -110c0 -60 -32 -160 -51 -234
c-6 -23 -12 -36 -12 -58c0 -39 19 -57 89 -57c69 0 98 29 120 103c20 69 55 198 55 238c0 21 -7 33 -45 55z" />
    <glyph glyph-name="Korea1.515" unicode="&#x3c6;" 
d="M424 -172h-105l30 132c-133 14 -205 91 -205 208c0 157 105 283 280 313l-6 -100c-121 -36 -165 -113 -165 -211c0 -75 29 -106 116 -120c21 89 41 177 63 266c11 99 92 164 176 164c101 0 166 -78 166 -197c0 -112 -44 -213 -116 -266c-52 -39 -118 -55 -206 -59z
M535 303c-21 -84 -41 -167 -61 -251c58 4 97 16 126 48c34 37 66 116 66 188c0 65 -20 95 -57 95c-32 0 -61 -30 -74 -80z" />
    <glyph glyph-name="Korea1.516" unicode="&#x3c7;" 
d="M728 473l-215 -262l66 -145c27 -59 59 -64 105 -64c-6 -25 -11 -50 -16 -76c-18 0 -36 -1 -54 -1c-77 0 -105 15 -128 68l-57 121l-148 -189c-45 0 -90 1 -136 1c80 95 161 190 241 286c-19 45 -41 90 -61 136c-11 25 -34 37 -65 37h-26l-14 88h105
c86 0 108 -75 146 -160l125 160h132z" />
    <glyph glyph-name="Korea1.517" unicode="&#x3c8;" 
d="M253 474l82 -57c-37 -32 -51 -51 -68 -100c-14 -39 -41 -143 -41 -202c0 -73 63 -88 141 -88c33 169 66 338 100 507h102c-34 -170 -68 -340 -101 -511c89 4 121 15 152 44c39 31 64 124 64 248c0 54 -5 76 -28 118l99 34c27 -44 38 -79 38 -156c0 -81 -15 -163 -35 -221
c-39 -113 -123 -156 -309 -164c-8 -33 -15 -67 -22 -100h-101c8 36 15 71 22 106c-171 5 -227 59 -227 177c0 145 55 306 132 365z" />
    <glyph glyph-name="Korea1.518" unicode="&#x3c9;" 
d="M604 421c17 20 36 41 54 61c93 -47 118 -125 118 -224c0 -182 -91 -336 -220 -336c-60 0 -105 30 -134 96c-37 -67 -74 -92 -130 -92c-96 0 -156 81 -156 205c0 76 25 158 67 225c30 47 74 98 175 128l40 -65c-93 -49 -175 -166 -175 -293c0 -66 27 -99 59 -99
c35 0 66 38 83 104l50 200h108l-48 -198c-3 -13 -6 -24 -5 -32c0 -46 25 -80 58 -80c67 0 120 97 120 225c0 83 -15 126 -64 175z" />
    <glyph glyph-name="Korea1.519" unicode="&#x2500;" 
d="M0 281v38h910v-38h-910z" />
    <glyph glyph-name="Korea1.520" unicode="&#x2502;" 
d="M440 -200v1000h35v-1000h-35z" />
    <glyph glyph-name="Korea1.521" unicode="&#x250c;" 
d="M435 -200v519h475v-38h-439v-481h-36z" />
    <glyph glyph-name="Korea1.522" unicode="&#x2510;" 
d="M444 281h-443v38h479v-519h-36v481z" />
    <glyph glyph-name="Korea1.523" unicode="&#x2518;" 
d="M444 319v481h36v-519h-480v38h444z" />
    <glyph glyph-name="Korea1.524" unicode="&#x2514;" 
d="M435 281v519h36v-481h439v-38h-475z" />
    <glyph glyph-name="Korea1.525" unicode="&#x251c;" 
d="M435 -200v1000h36v-481h439v-38h-439v-481h-36z" />
    <glyph glyph-name="Korea1.526" unicode="&#x252c;" 
d="M0 281v38h910v-38h-435v-481h-35v481h-440z" />
    <glyph glyph-name="Korea1.527" unicode="&#x2524;" 
d="M444 800h36v-1000h-36v481h-444v38h444v481z" />
    <glyph glyph-name="Korea1.528" unicode="&#x2534;" 
d="M440 319v481h35v-481h435v-38h-910v38h440z" />
    <glyph glyph-name="Korea1.529" unicode="&#x253c;" 
d="M440 319v481h35v-481h435v-38h-435v-481h-35v481h-440v38h440z" />
    <glyph glyph-name="Korea1.530" unicode="&#x2501;" 
d="M0 263v75h910v-75h-910z" />
    <glyph glyph-name="Korea1.531" unicode="&#x2503;" 
d="M423 -200v1000h70v-1000h-70z" />
    <glyph glyph-name="Korea1.532" unicode="&#x250f;" 
d="M419 -200v538h491v-75h-421v-463h-70z" />
    <glyph glyph-name="Korea1.533" unicode="&#x2513;" 
d="M0 263v75h497v-538h-70v463h-427z" />
    <glyph glyph-name="Korea1.534" unicode="&#x251b;" 
d="M427 338v462h70v-537h-497v75h427z" />
    <glyph glyph-name="Korea1.535" unicode="&#x2517;" 
d="M419 263v537h70v-462h421v-75h-491z" />
    <glyph glyph-name="Korea1.536" unicode="&#x2523;" 
d="M419 -200v1000h70v-462h421v-75h-421v-463h-70z" />
    <glyph glyph-name="Korea1.537" unicode="&#x2533;" 
d="M423 263h-423v75h910v-75h-417v-463h-70v463z" />
    <glyph glyph-name="Korea1.538" unicode="&#x252b;" 
d="M427 263h-427v75h427v462h70v-1000h-70v463z" />
    <glyph glyph-name="Korea1.539" unicode="&#x253b;" 
d="M0 338h423v462h70v-462h417v-75h-910v75z" />
    <glyph glyph-name="Korea1.540" unicode="&#x254b;" 
d="M0 338h423v462h70v-462h417v-75h-417v-463h-70v463h-423v75z" />
    <glyph glyph-name="Korea1.541" unicode="&#x2520;" 
d="M489 319h421v-38h-421v-481h-70v1000h70v-481z" />
    <glyph glyph-name="Korea1.542" unicode="&#x252f;" 
d="M0 338h910v-75h-435v-463h-35v463h-440v75z" />
    <glyph glyph-name="Korea1.543" unicode="&#x2528;" 
d="M497 800v-1000h-70v481h-427v38h427v481h70z" />
    <glyph glyph-name="Korea1.544" unicode="&#x2537;" 
d="M0 338h440v462h35v-462h435v-75h-910v75z" />
    <glyph glyph-name="Korea1.545" unicode="&#x253f;" 
d="M0 338h440v462h35v-462h435v-75h-435v-463h-35v463h-440v75z" />
    <glyph glyph-name="Korea1.546" unicode="&#x251d;" 
d="M471 338h439v-75h-439v-463h-36v1000h36v-462z" />
    <glyph glyph-name="Korea1.547" unicode="&#x2530;" 
d="M0 319h910v-38h-417v-481h-70v481h-423v38z" />
    <glyph glyph-name="Korea1.548" unicode="&#x2525;" 
d="M0 338h444v462h36v-1000h-36v463h-444v75z" />
    <glyph glyph-name="Korea1.549" unicode="&#x2538;" 
d="M0 319h423v481h70v-481h417v-38h-910v38z" />
    <glyph glyph-name="Korea1.550" unicode="&#x2542;" 
d="M0 319h423v481h70v-481h417v-38h-417v-481h-70v481h-423v38z" />
    <glyph glyph-name="Korea1.551" unicode="&#x2512;" 
d="M427 -200v481h-427v38h497v-519h-70z" />
    <glyph glyph-name="Korea1.552" unicode="&#x2511;" 
d="M444 -200v463h-444v75h480v-538h-36z" />
    <glyph glyph-name="Korea1.553" unicode="&#x251a;" 
d="M0 319h427v481h70v-519h-497v38z" />
    <glyph glyph-name="Korea1.554" unicode="&#x2519;" 
d="M0 338h444v462h36v-537h-480v75z" />
    <glyph glyph-name="Korea1.555" unicode="&#x2516;" 
d="M489 800v-481h421v-38h-491v519h70z" />
    <glyph glyph-name="Korea1.556" unicode="&#x2515;" 
d="M471 800v-462h439v-75h-475v537h36z" />
    <glyph glyph-name="Korea1.557" unicode="&#x250e;" 
d="M910 281h-421v-481h-70v519h491v-38z" />
    <glyph glyph-name="Korea1.558" unicode="&#x250d;" 
d="M435 -200v538h475v-75h-439v-463h-36z" />
    <glyph glyph-name="Korea1.559" unicode="&#x251e;" 
d="M419 281v519h70v-481h421v-38h-439v-481h-36v481h-16z" />
    <glyph glyph-name="Korea1.560" unicode="&#x251f;" 
d="M435 319v481h36v-481h439v-38h-421v-481h-70v519h16z" />
    <glyph glyph-name="Korea1.561" unicode="&#x2521;" 
d="M471 -200h-36v463h-16v537h70v-462h421v-75h-439v-463z" />
    <glyph glyph-name="Korea1.562" unicode="&#x2522;" 
d="M489 -200h-70v538h16v462h36v-462h439v-75h-421v-463z" />
    <glyph glyph-name="Korea1.563" unicode="&#x2526;" 
d="M427 319v481h70v-519h-18v-481h-35v481h-444v38h427z" />
    <glyph glyph-name="Korea1.564" unicode="&#x2527;" 
d="M0 281v38h444v481h35v-481h18v-519h-70v481h-427z" />
    <glyph glyph-name="Korea1.565" unicode="&#x2529;" 
d="M444 263h-444v75h427v462h70v-537h-18v-463h-35v463z" />
    <glyph glyph-name="Korea1.566" unicode="&#x252a;" 
d="M427 263h-427v75h444v462h35v-462h18v-538h-70v463z" />
    <glyph glyph-name="Korea1.567" unicode="&#x252d;" 
d="M440 263h-440v75h475v-19h435v-38h-435v-481h-35v463z" />
    <glyph glyph-name="Korea1.568" unicode="&#x252e;" 
d="M440 281h-440v38h440v19h470v-75h-435v-463h-35v481z" />
    <glyph glyph-name="Korea1.569" unicode="&#x2531;" 
d="M423 263h-423v75h493v-19h417v-38h-417v-481h-70v463z" />
    <glyph glyph-name="Korea1.570" unicode="&#x2532;" 
d="M423 281h-423v38h423v19h487v-75h-417v-463h-70v481z" />
    <glyph glyph-name="Korea1.571" unicode="&#x2535;" 
d="M475 263h-475v75h440v462h35v-481h435v-38h-435v-18z" />
    <glyph glyph-name="Korea1.572" unicode="&#x2536;" 
d="M440 281h-440v38h440v481h35v-462h435v-75h-470v18z" />
    <glyph glyph-name="Korea1.573" unicode="&#x2539;" 
d="M493 263h-493v75h423v462h70v-481h417v-38h-417v-18z" />
    <glyph glyph-name="Korea1.574" unicode="&#x253a;" 
d="M423 281h-423v38h423v481h70v-462h417v-75h-487v18z" />
    <glyph glyph-name="Korea1.575" unicode="&#x253d;" 
d="M440 263h-440v75h440v462h35v-481h435v-38h-435v-481h-35v463z" />
    <glyph glyph-name="Korea1.576" unicode="&#x253e;" 
d="M440 800h35v-462h435v-75h-435v-463h-35v481h-440v38h440v481z" />
    <glyph glyph-name="Korea1.577" unicode="&#x2540;" 
d="M423 800h70v-481h417v-38h-435v-481h-35v481h-440v38h423v481z" />
    <glyph glyph-name="Korea1.578" unicode="&#x2541;" 
d="M440 800h35v-481h435v-38h-417v-481h-70v481h-423v38h440v481z" />
    <glyph glyph-name="Korea1.579" unicode="&#x2543;" 
d="M423 800h70v-481h417v-38h-417v-18h-18v-463h-35v463h-440v75h423v462z" />
    <glyph glyph-name="Korea1.580" unicode="&#x2544;" 
d="M475 263v-463h-35v463h-17v18h-423v38h423v481h70v-462h417v-75h-435z" />
    <glyph glyph-name="Korea1.581" unicode="&#x2545;" 
d="M440 800h35v-462h18v-19h417v-38h-417v-481h-70v463h-423v75h440v462z" />
    <glyph glyph-name="Korea1.582" unicode="&#x2546;" 
d="M440 800h35v-462h435v-75h-417v-463h-70v481h-423v38h423v19h17v462z" />
    <glyph glyph-name="Korea1.583" unicode="&#x2547;" 
d="M423 800h70v-462h417v-75h-435v-463h-35v463h-440v75h423v462z" />
    <glyph glyph-name="Korea1.584" unicode="&#x2548;" 
d="M440 800h35v-462h435v-75h-417v-463h-70v463h-423v75h440v462z" />
    <glyph glyph-name="Korea1.585" unicode="&#x2549;" 
d="M423 800h70v-481h417v-38h-417v-481h-70v463h-423v75h423v462z" />
    <glyph glyph-name="Korea1.586" unicode="&#x254a;" 
d="M423 800h70v-462h417v-75h-417v-463h-70v481h-423v38h423v481z" />
    <glyph glyph-name="Korea1.587" unicode="&#x3395;" 
d="M817 58c23 -19 46 -38 68 -58c-36 -76 -85 -116 -147 -116c-44 0 -94 27 -129 79c-23 -12 -60 -26 -100 -28l-32 88c23 1 64 7 88 17c-37 79 -48 171 -48 270c0 221 79 401 197 401c86 0 130 -104 130 -254c0 -243 -84 -389 -150 -451c14 -21 29 -29 44 -29
c26 0 55 22 79 81zM706 617c-53 -4 -94 -171 -94 -299c0 -92 15 -198 33 -232c67 70 108 214 108 381c0 85 -12 150 -47 150zM390 471h90l-70 -430c-1 -3 -1 -6 -1 -10c0 -23 11 -23 36 -23c9 0 19 0 27 1c-7 -27 -16 -55 -24 -83c-92 0 -117 15 -125 57
c-23 -32 -58 -57 -114 -57c-33 0 -56 23 -62 34c-8 -41 -16 -82 -23 -124h-87l102 635h90c-16 -113 -34 -225 -50 -338c-2 -16 -4 -30 -4 -43c0 -41 15 -59 50 -59c71 0 107 96 116 150z" />
    <glyph glyph-name="Korea1.588" unicode="&#x3396;" 
d="M835 56c23 -18 44 -37 67 -56c-36 -74 -86 -115 -145 -115c-44 0 -94 27 -131 81c-24 -14 -65 -27 -105 -29c-10 29 -21 57 -31 85c23 2 69 8 94 19c-36 78 -48 169 -48 265c0 225 75 407 196 407c84 0 129 -106 129 -257c0 -239 -85 -387 -151 -450
c14 -21 31 -30 47 -30c26 0 54 21 78 80zM723 623c-55 -4 -95 -175 -95 -305c0 -93 14 -197 35 -233c69 71 109 216 109 384c0 85 -12 154 -49 154zM480 302v-376h-84v369c0 72 -16 97 -42 97s-46 -30 -46 -97v-369h-86v371c0 77 -18 94 -44 94c-22 0 -47 -22 -47 -94v-371
h-82v545h75v-27c18 23 42 40 66 40c56 0 74 -30 83 -62c24 38 44 62 92 62c77 0 115 -62 115 -182z" />
    <glyph glyph-name="Korea1.589" unicode="&#x3397;" 
d="M796 56l66 -56c-37 -73 -81 -112 -143 -112c-44 0 -97 25 -131 76c-23 -13 -67 -28 -107 -30c-10 28 -22 56 -32 84c27 3 72 11 94 21c-37 79 -47 171 -47 269c0 225 75 405 195 405c86 0 130 -105 130 -255c0 -242 -85 -389 -152 -452c14 -22 31 -31 47 -31
c26 0 56 22 80 81zM420 679v-753h-83v55c-22 -32 -59 -64 -116 -64c-123 0 -172 111 -172 277c0 167 70 279 187 279c53 0 84 -26 101 -48v254h83zM683 623c-54 -4 -96 -169 -96 -298c0 -94 15 -203 35 -241c70 73 109 216 109 386c0 85 -13 153 -48 153zM239 389
c-67 0 -104 -81 -104 -195c0 -108 29 -196 94 -196c63 0 98 90 98 196c0 107 -23 195 -88 195z" />
    <glyph glyph-name="Korea1.590" unicode="&#x2113;" 
d="M588 55l67 -56c-35 -68 -68 -98 -119 -113c-49 -14 -113 13 -157 77c-24 -13 -67 -26 -105 -28l-32 85c24 2 68 8 93 19c-41 91 -49 198 -46 312c6 201 85 355 189 361c111 6 155 -158 128 -371c-23 -175 -86 -281 -144 -336c22 -33 47 -37 67 -27c21 10 41 33 59 77z
M476 622c-50 -4 -91 -148 -95 -272c-4 -99 12 -226 34 -267c50 53 91 151 102 266c14 123 11 275 -41 273z" />
    <glyph glyph-name="Korea1.591" unicode="&#x3398;" 
d="M805 56l67 -56c-34 -68 -69 -98 -120 -110c-47 -11 -113 13 -154 72c-24 -12 -62 -27 -103 -29l-30 85c26 3 66 10 89 21c-44 91 -51 199 -48 313c6 201 85 355 189 361c111 6 155 -158 128 -371c-24 -176 -85 -281 -143 -336c19 -33 46 -37 67 -27c22 10 40 33 58 77z
M226 168l-39 -46v-197h-94v754h94v-424l184 216h112l-188 -234l186 -312h-113zM693 623c-50 -4 -92 -148 -95 -272c-3 -99 12 -226 34 -267c50 52 92 151 102 266c13 124 11 275 -41 273z" />
    <glyph glyph-name="Korea1.592" unicode="&#x33c4;" 
d="M357 93h95c-19 -113 -80 -193 -208 -193c-147 0 -216 123 -216 293c0 173 86 290 232 290c129 0 187 -110 187 -209h-92c-1 28 -18 113 -98 113c-86 0 -133 -68 -133 -191c0 -126 37 -206 125 -206c63 0 103 48 108 103zM793 93h94c-18 -113 -75 -193 -203 -193
c-148 0 -220 123 -220 293c0 173 86 290 232 290c128 0 188 -110 188 -209h-92c-1 28 -18 113 -99 113c-86 0 -132 -68 -132 -191c0 -126 35 -206 124 -206c62 0 103 48 108 103z" />
    <glyph glyph-name="Korea1.593" unicode="&#x33a3;" 
d="M908 470c0 -59 -42 -102 -103 -102s-103 45 -103 118h58c0 -35 15 -60 45 -60c25 0 40 21 40 44c0 37 -33 40 -71 40v51c43 0 65 12 65 44c0 10 -26 30 -44 30c-20 0 -30 -21 -30 -48h-57c0 77 43 110 97 110c51 0 95 -42 95 -91c0 -35 -16 -56 -30 -64
c19 -11 38 -36 38 -72zM86 471v-22c14 18 30 32 50 32c37 0 55 -23 61 -42c12 24 30 44 66 44c63 0 92 -61 92 -182v-375h-71v373c0 72 -13 92 -30 92c-14 0 -30 -25 -30 -92v-373h-73v375c0 78 -13 90 -29 90c-13 0 -31 -17 -31 -90v-375h-74v545h69zM447 471v-22
c13 18 31 32 51 32c36 0 54 -23 60 -42c13 24 31 44 66 44c64 0 93 -61 93 -182v-375h-72v373c0 72 -14 92 -29 92c-14 0 -30 -25 -30 -92v-373h-73v375c0 78 -14 90 -29 90c-13 0 -33 -17 -33 -90v-375h-72v545h68z" />
    <glyph glyph-name="Korea1.594" unicode="&#x33a4;" 
d="M445 471v-21c14 17 33 29 50 29c43 0 58 -27 63 -44c12 22 31 45 68 45c63 0 95 -58 95 -178v-376h-74v374c0 73 -14 91 -28 91c-16 0 -31 -23 -31 -91v-374h-77v376c0 78 -14 89 -29 89c-13 0 -33 -14 -33 -89v-376h-75v545h71zM198 481c118 0 154 -116 154 -204h-78v5
c0 36 -19 118 -77 118c-77 0 -104 -80 -104 -199c0 -125 27 -210 103 -210c57 0 78 57 78 109h80c-3 -100 -45 -193 -158 -193c-128 0 -187 108 -187 288c0 164 53 286 189 286zM909 470c0 -59 -42 -102 -103 -102s-103 45 -103 118h57c0 -35 16 -60 46 -60
c24 0 41 21 41 44c0 37 -36 40 -72 40v51c40 0 65 10 65 44c0 11 -26 30 -44 30c-20 0 -30 -20 -30 -48h-57c0 77 43 110 97 110c51 0 95 -42 95 -91c0 -35 -16 -56 -30 -64c20 -11 38 -36 38 -72z" />
    <glyph glyph-name="Korea1.595" unicode="&#x33a5;" 
d="M832 471c0 -60 -42 -103 -104 -103c-59 0 -102 46 -102 119h57c0 -35 16 -61 45 -61c25 0 42 21 42 44c0 40 -39 41 -73 41v51c42 0 68 12 68 43c0 9 -14 33 -39 33s-38 -18 -38 -50h-56c0 76 43 109 96 109c52 0 96 -42 96 -91c0 -34 -16 -56 -29 -63
c19 -12 37 -36 37 -72zM630 301v-375h-92v368c0 72 -18 98 -56 98c-34 0 -60 -32 -60 -98v-368h-92v370c0 76 -24 95 -57 95c-34 0 -60 -25 -60 -95v-370h-92v545h83v-35c25 33 54 45 83 45c61 0 85 -24 98 -62c20 36 57 65 112 65c87 0 133 -62 133 -183z" />
    <glyph glyph-name="Korea1.596" unicode="&#x33a6;" 
d="M911 470c0 -59 -40 -102 -102 -102c-61 0 -102 45 -102 118h57c0 -35 16 -60 45 -60c25 0 39 21 39 44c0 38 -33 40 -70 40v51c44 0 65 12 65 44c0 10 -26 30 -44 30c-19 0 -30 -20 -30 -48h-56c0 77 41 110 96 110c51 0 94 -42 94 -91c0 -35 -16 -56 -28 -64
c18 -11 36 -36 36 -72zM143 166l-32 -45v-195h-83v754h83v-430l151 221h96c-52 -78 -104 -156 -155 -234l154 -311h-99zM445 471v-20c16 17 31 28 47 28c40 0 59 -21 65 -41c12 22 34 43 66 43c65 0 95 -47 95 -168v-387h-77v382c0 72 -11 86 -26 86s-27 -20 -27 -86v-382
h-80v384c0 75 -13 84 -27 84c-12 0 -29 -9 -29 -84v-384h-79v545h72z" />
    <glyph glyph-name="Korea1.597" unicode="&#x3399;" 
d="M176 -74v453h-66v91h66v50c0 60 7 87 25 114c19 28 53 47 89 47h53v-92c-27 0 -44 4 -56 -11c-17 -14 -18 -32 -18 -61v-47h74v-91h-74v-453h-93zM450 472v-23c18 22 41 35 65 35c57 0 74 -29 82 -56c16 30 43 56 92 56c79 0 117 -61 117 -182v-376h-88v369
c0 72 -12 96 -41 96c-24 0 -44 -29 -44 -96v-369h-88v371c0 80 -20 96 -44 95c-22 -1 -43 -26 -43 -95v-371h-87v546h79z" />
    <glyph glyph-name="Korea1.598" unicode="&#x339a;" 
d="M497 472v-24c18 22 39 35 64 35c52 0 71 -23 81 -52c21 32 45 53 92 53c80 0 117 -61 117 -181v-376h-86v373c0 73 -15 93 -42 93c-23 0 -44 -26 -44 -93v-373h-89v375c0 80 -19 91 -44 90c-22 -1 -42 -21 -42 -90v-375h-87v545h80zM163 472v-24c18 22 52 44 108 32
c80 -17 104 -106 104 -184v-369h-89v338c0 94 -19 122 -53 122c-36 0 -70 -38 -70 -130v-330h-88v545h88z" />
    <glyph glyph-name="Korea1.599" unicode="&#x339b;" 
d="M540 472v-23c18 22 40 35 64 35c53 0 75 -26 81 -53c19 32 42 53 91 53c78 0 116 -61 116 -181v-377h-87v371c0 73 -15 98 -41 98s-43 -30 -43 -98v-371h-88v374c0 80 -19 96 -43 95c-21 -1 -42 -26 -42 -95v-374h-86v546h78zM354 472h85l-71 -430c-3 -14 2 -29 12 -33
c9 -4 34 -4 51 -3l-22 -80c-46 0 -77 0 -96 15c-12 11 -19 26 -22 41c-22 -29 -52 -56 -108 -56c-33 0 -55 24 -64 41l-22 -129h-82l102 634h83l-51 -337c-11 -72 4 -105 49 -105c71 0 94 77 107 153z" />
    <glyph glyph-name="Korea1.600" unicode="&#x339c;" 
d="M556 471v-26c17 22 35 36 55 36c50 0 70 -19 78 -43c15 25 37 45 83 45c76 0 111 -61 111 -182v-375h-88v373c0 72 -15 93 -35 93c-17 0 -36 -26 -36 -93v-373h-90v375c0 79 -16 91 -35 90c-17 -1 -36 -21 -36 -90v-375h-89v545h82zM116 471v-24c17 21 35 35 56 35
c53 0 71 -25 76 -44c15 25 38 45 84 45c77 0 112 -58 112 -177v-380h-90v373c0 72 -13 93 -35 93c-15 0 -33 -26 -33 -93v-373h-91v375c0 79 -17 91 -37 90c-16 -1 -36 -21 -36 -90v-375h-88v545h82z" />
    <glyph glyph-name="Korea1.601" unicode="&#x339d;" 
d="M345 98h92c-14 -112 -65 -196 -194 -196c-136 0 -210 117 -210 292c0 174 78 291 219 291c131 0 180 -112 180 -210h-90c1 40 -18 118 -92 118c-78 0 -123 -73 -123 -196c0 -122 37 -205 122 -205c59 0 89 46 96 106zM546 472v-24c17 21 37 34 57 34c52 0 68 -25 76 -46
c16 27 36 47 83 47c77 0 112 -60 112 -180v-377h-89v374c0 72 -14 92 -34 92c-16 0 -36 -25 -36 -92v-374h-90v376c0 80 -17 90 -36 89c-17 -1 -35 -20 -35 -89v-376h-89v546h81z" />
    <glyph glyph-name="Korea1.602" unicode="&#x339e;" 
d="M186 168l-38 -45v-198h-85v755h85v-423l172 214h108l-176 -233l174 -313h-108zM535 472v-22c18 21 38 34 58 34c53 0 70 -23 79 -46c11 24 34 46 82 46c77 0 114 -61 114 -182v-377h-90v374c0 73 -15 94 -37 94c-15 0 -35 -27 -35 -94v-374h-90v376c0 80 -16 92 -36 91
c-19 -1 -38 -21 -38 -91v-376h-89v547h82z" />
    <glyph glyph-name="Korea1.603" unicode="&#x339f;" 
d="M446 473v-24c13 18 31 31 49 31c38 0 54 -19 62 -43c13 25 30 45 68 45c64 0 94 -57 94 -178v-378h-74v381c0 71 -13 84 -28 84s-28 -17 -28 -84v-381h-76v383c0 74 -13 82 -28 82c-13 0 -31 -8 -31 -82v-383h-75v547h67zM84 471v-21c18 19 34 27 55 27
c33 0 50 -17 58 -40c13 26 30 44 64 44c65 0 95 -51 95 -171v-384h-74v381c0 71 -11 84 -29 84c-14 0 -28 -17 -28 -84v-381h-75v383c0 74 -12 82 -28 82c-13 0 -31 -6 -31 -82v-383h-74v545h67zM909 450v-56h-186c0 43 11 80 42 114c28 31 74 59 78 98c0 17 -5 33 -31 33
c-25 0 -32 -28 -32 -50c0 -4 1 -7 1 -10h-61v8c0 57 31 110 92 110c63 0 90 -43 90 -89c0 -36 -22 -67 -41 -84c-37 -31 -59 -58 -63 -74h111z" />
    <glyph glyph-name="Korea1.604" unicode="&#x33a0;" 
d="M442 471v-23c14 20 32 32 51 32c43 0 58 -28 62 -44c13 23 32 46 68 46c64 0 96 -60 96 -180v-376h-75v376c0 72 -13 91 -28 91s-30 -24 -30 -91v-376h-77v378c0 77 -13 89 -29 89c-13 0 -32 -15 -32 -89v-378h-75v545h69zM198 481c117 0 154 -116 154 -204h-79v5
c0 36 -19 118 -76 118c-77 0 -104 -80 -104 -199c0 -126 28 -210 103 -210c56 0 77 57 77 109h80c-3 -100 -45 -193 -157 -193c-128 0 -187 108 -187 288c0 164 53 286 189 286zM910 450v-56h-187c0 43 11 80 42 114c29 32 74 58 79 98c0 17 -6 33 -32 33
c-25 0 -32 -28 -32 -50c0 -4 1 -7 1 -10h-61v8c0 57 31 110 92 110c63 0 90 -43 90 -89c0 -36 -21 -67 -41 -84c-36 -31 -59 -57 -63 -74h112z" />
    <glyph glyph-name="Korea1.605" unicode="&#x33a1;" 
d="M641 301v-375h-92v368c0 72 -17 98 -55 98c-34 0 -60 -32 -60 -98v-368h-92v370c0 76 -24 95 -57 95c-35 0 -61 -25 -61 -95v-370h-91v545h82v-35c26 33 55 45 83 45c63 0 85 -25 98 -63c20 36 59 65 112 65c88 0 133 -62 133 -182zM841 450v-58h-189c-1 44 11 84 42 118
c27 30 79 60 82 98c0 11 -7 31 -34 31c-25 0 -32 -25 -32 -47c0 -5 0 -9 1 -13h-62v10c0 52 29 109 93 109s92 -46 92 -91c0 -35 -22 -62 -39 -80c-42 -37 -63 -57 -67 -77h113z" />
    <glyph glyph-name="Korea1.606" unicode="&#x33a2;" 
d="M445 471v-17c15 15 31 26 48 26c44 0 61 -26 63 -40c12 21 31 43 67 43c65 0 95 -51 95 -171v-386h-78v382c0 72 -11 86 -25 86c-13 0 -29 -19 -29 -86v-382h-78v384c0 75 -13 84 -27 84c-12 0 -31 -11 -31 -84v-384h-76v545h71zM142 166l-32 -44v-196h-83v754h83v-429
l153 220h96c-53 -78 -105 -156 -157 -234l156 -311h-99c-40 80 -78 160 -117 240zM908 450v-59h-186c-1 45 10 84 41 119c29 33 76 58 80 97c0 11 -5 31 -33 31c-23 0 -30 -24 -30 -46c0 -5 0 -10 1 -14h-62v9c0 53 26 111 91 111s92 -46 92 -94c0 -34 -21 -62 -38 -77
c-56 -51 -66 -63 -66 -77h110z" />
    <glyph glyph-name="Korea1.607" unicode="&#x33ca;" 
d="M175 680v-247c24 29 59 58 110 58c103 0 137 -112 137 -197v-368h-85v336c0 93 -25 132 -71 132c-47 0 -91 -67 -91 -150v-318h-85v754h85zM851 -51c-28 -13 -56 -25 -84 -37c-19 31 -27 34 -34 66c-16 -32 -49 -64 -110 -64c-117 0 -162 125 -162 288
c0 177 69 285 177 285c47 0 79 -20 98 -56c2 19 6 29 8 51h78c-9 -57 -12 -129 -12 -208v-199c0 -43 22 -94 41 -126zM717 208c0 92 -8 192 -82 192c-63 0 -89 -80 -89 -198c0 -107 16 -204 81 -204c70 0 90 101 90 210z" />
    <glyph glyph-name="Korea1.608" unicode="&#x338d;" 
d="M751 -8v20c-25 -34 -59 -53 -103 -53c-99 0 -174 108 -174 263s71 263 175 263c45 0 80 -16 102 -49v36h82v-479c0 -172 -86 -235 -172 -235c-113 0 -168 91 -173 190h82c3 -52 32 -103 92 -103s89 54 89 147zM377 471h88c-23 -142 -48 -286 -71 -429c-1 -3 -1 -6 -1 -9
c0 -28 15 -27 42 -27c7 0 15 1 21 1c-8 -25 -15 -53 -23 -79c-90 0 -116 14 -124 58c-23 -32 -57 -58 -104 -58c-32 0 -56 22 -65 38l-22 -127h-86l102 632h87c-16 -112 -34 -223 -50 -335c-2 -13 -3 -24 -3 -34c0 -49 20 -71 58 -71c65 0 91 92 101 151zM655 399
c-56 0 -96 -64 -96 -177s40 -174 96 -174s96 64 96 177s-40 174 -96 174z" />
    <glyph glyph-name="Korea1.609" unicode="&#x338e;" 
d="M760 -10v21c-26 -35 -60 -55 -104 -55c-99 0 -174 109 -174 265c0 155 70 263 176 263c44 0 79 -17 102 -50v36h80v-478c0 -173 -85 -235 -171 -235c-108 0 -168 91 -173 189h82c3 -52 33 -101 92 -101c60 0 90 52 90 145zM127 471v-15c9 11 29 27 56 27
c56 0 71 -26 76 -48c15 27 36 48 83 48c74 0 109 -62 109 -182v-375h-82v368c0 73 -18 98 -39 98c-17 0 -36 -31 -36 -98v-368h-86v370c0 78 -15 95 -34 95c-21 0 -41 -24 -41 -95v-370h-84v545h78zM664 395c-56 0 -97 -62 -97 -174c0 -114 41 -175 97 -175
c54 0 96 64 96 178c0 112 -42 171 -96 171z" />
    <glyph glyph-name="Korea1.610" unicode="&#x338f;" 
d="M234 173l-44 -54v-193h-90v754h90v-427c62 72 123 145 184 218h111l-187 -225l184 -320h-104zM754 -8v21c-25 -36 -61 -56 -104 -56c-99 0 -175 110 -175 265s71 263 177 263c45 0 79 -16 102 -49v35h80v-477c0 -173 -84 -235 -171 -235c-108 0 -167 90 -173 188h83
c2 -51 31 -101 91 -101s90 52 90 146zM658 397c-56 0 -97 -62 -97 -175s41 -175 97 -175c55 0 96 65 96 178s-41 172 -96 172z" />
    <glyph glyph-name="Korea1.611" unicode="&#x33cf;" 
d="M262 172l-45 -53v-193h-89v753h89v-427c62 73 123 146 184 219h111l-187 -226c61 -107 123 -213 184 -319h-104c-48 81 -95 164 -143 246zM688 377v-289c0 -67 24 -73 68 -73v-89h-63c-69 0 -98 50 -98 152v299h-60v92h60v168h93v-168h68v-92h-68z" />
    <glyph glyph-name="Korea1.612" unicode="&#x3388;" 
d="M850 51l60 -37c-21 -76 -61 -127 -111 -127c-34 0 -66 26 -92 72c-10 -8 -35 -25 -75 -32c-7 30 -14 60 -22 89c20 3 44 11 59 21c-30 83 -39 171 -39 268c0 222 58 399 151 407c76 0 111 -97 111 -253c0 -245 -61 -385 -117 -454c12 -23 22 -28 29 -28c17 0 30 22 46 74
zM780 621c-31 -3 -68 -172 -68 -297c0 -91 14 -208 23 -232c42 57 76 211 76 381c0 83 -9 148 -31 148zM216 98h83c-9 -110 -52 -191 -143 -191c-109 0 -152 121 -152 291c0 173 57 290 160 290c94 0 134 -110 134 -207h-83c-1 29 -13 113 -53 113c-44 0 -73 -68 -73 -193
s22 -205 69 -205c30 0 54 46 58 102zM521 -34c-12 -30 -37 -56 -86 -56c-97 0 -132 126 -132 289c0 177 52 285 142 285c35 0 62 -19 77 -38c0 10 1 21 2 33h77c-7 -56 -13 -128 -13 -207v-199c0 -44 16 -93 29 -125l-70 -44c-19 31 -20 32 -26 62zM502 204
c0 108 -11 193 -56 193c-38 0 -57 -81 -57 -198c0 -100 14 -203 51 -203c44 0 62 100 62 208z" />
    <glyph glyph-name="Korea1.613" unicode="&#x3389;" 
d="M251 -27l-59 -47l-88 242c-14 -15 -21 -31 -28 -47v-195h-69v754h70v-419l110 210h84l-124 -229zM866 51l44 -37c-16 -76 -45 -127 -82 -127c-25 0 -49 26 -68 72c-8 -8 -26 -25 -56 -32c-5 30 -10 60 -16 89c15 3 33 11 44 21c-23 83 -29 171 -29 268
c0 222 43 399 112 407c56 0 82 -97 82 -253c0 -245 -45 -385 -87 -454c9 -23 16 -28 22 -28c12 0 22 22 34 74zM814 621c-23 -3 -51 -172 -51 -297c0 -91 11 -208 17 -232c32 57 57 211 57 381c0 83 -7 148 -23 148zM396 98h62c-7 -110 -39 -191 -106 -191
c-81 0 -113 121 -113 291c0 173 43 290 119 290c69 0 99 -110 99 -207h-61c-1 29 -10 113 -40 113c-32 0 -54 -68 -54 -193s17 -205 51 -205c23 0 40 46 43 102zM622 -34c-9 -30 -27 -56 -64 -56c-71 0 -97 126 -97 289c0 177 38 285 105 285c26 0 46 -19 57 -38
c0 10 1 21 1 33h57c-5 -56 -9 -128 -9 -207v-199c0 -44 12 -93 21 -125l-52 -44c-14 31 -14 32 -19 62zM608 204c0 108 -8 193 -41 193c-29 0 -43 -81 -43 -198c0 -100 11 -203 38 -203c33 0 46 100 46 208z" />
    <glyph glyph-name="Korea1.614" unicode="&#x33c8;" 
d="M426 680v-754h-85v48c-20 -30 -52 -56 -109 -56c-125 0 -172 111 -172 277s70 278 185 278c54 0 80 -21 96 -41v248h85zM762 327c38 -30 83 -87 83 -195c0 -126 -74 -206 -169 -206h-197v753h203c102 0 144 -96 144 -193c0 -74 -26 -127 -64 -159zM561 363h109
c39 0 71 56 71 122c0 65 -30 115 -70 115h-110v-237zM250 390c-66 0 -105 -81 -105 -195c0 -109 32 -196 96 -196c62 0 97 89 97 196c0 106 -23 195 -88 195zM561 11h114c48 0 83 56 83 137c0 71 -43 128 -82 128h-115v-265z" />
    <glyph glyph-name="Korea1.615" unicode="&#x33a7;" 
d="M128 680v-16c16 21 37 33 72 31c35 -4 52 -29 55 -38c8 17 42 50 96 38c59 -14 74 -76 74 -144v-268h-73v250c0 54 -7 81 -33 81c-22 -1 -42 -34 -42 -96v-235h-75v250c0 55 -6 84 -34 83c-21 -1 -40 -36 -40 -98v-235h-72v397h72zM874 639l-735 -756l-42 50l729 752z
M779 132c51 -23 77 -68 71 -118c-8 -69 -63 -124 -165 -124c-113 0 -167 82 -169 171h79c1 -71 38 -101 92 -101c53 0 84 25 85 57c1 23 -12 41 -37 52c-28 12 -72 13 -118 30c-53 22 -88 50 -87 114c1 60 53 124 154 124c120 0 156 -88 156 -151h-77c0 51 -26 83 -79 83
c-52 0 -73 -31 -73 -56c0 -27 20 -38 41 -46c22 -8 77 -12 127 -35z" />
    <glyph glyph-name="Korea1.616" unicode="&#x33a8;" 
d="M115 688v-18c14 17 32 29 60 29c41 0 59 -28 61 -35c6 11 28 37 66 37c76 0 95 -64 95 -137v-256h-73v240c0 48 -6 75 -28 75c-21 0 -40 -30 -40 -87v-228h-73v240c0 53 -6 78 -31 78c-20 0 -37 -35 -37 -90v-228h-71v380h71zM827 639c-244 -253 -489 -505 -733 -756
l-43 51c243 249 487 500 730 751c15 -16 31 -31 46 -46zM892 280v-44h-139c0 33 9 53 32 81c27 24 56 37 56 62c0 10 -6 18 -19 18c-15 0 -23 -14 -23 -30c0 -3 0 -6 1 -9h-48c0 38 20 83 69 83c51 0 67 -34 67 -64c0 -26 -13 -43 -27 -54c-25 -20 -41 -33 -46 -43h77z
M698 109c44 -20 69 -58 69 -99c0 -71 -53 -132 -158 -132c-110 0 -160 78 -163 163h77c2 -64 38 -94 87 -94c50 0 79 24 79 53c0 60 -70 47 -145 76c-52 20 -83 48 -83 106s47 123 146 123c115 0 151 -85 151 -147h-77c0 50 -23 80 -74 80c-47 0 -69 -29 -69 -53
c0 -23 20 -36 40 -43s71 -9 120 -33z" />
    <glyph glyph-name="Korea1.617" unicode="&#x33b0;" 
d="M167 472v-34c24 30 61 52 109 52c109 0 179 -109 179 -288s-70 -290 -179 -290c-46 0 -85 21 -109 49v-216h-82v727h82zM472 110h94c7 -66 44 -107 112 -107c52 0 86 22 94 69c4 27 -18 54 -44 70c-46 25 -101 29 -143 45c-58 24 -99 68 -95 142c3 82 71 160 184 160
c126 0 186 -100 183 -181h-95c1 33 -18 85 -92 85c-62 0 -82 -34 -83 -65c-1 -45 23 -54 57 -66s96 -20 143 -49c46 -30 84 -67 80 -138c-4 -100 -83 -168 -187 -168c-158 0 -207 126 -208 203zM267 392c-61 0 -100 -66 -100 -190c0 -122 39 -193 100 -193
c60 0 100 71 100 193c0 124 -40 190 -100 190z" />
    <glyph glyph-name="Korea1.618" unicode="&#x33b1;" 
d="M455 109h93c8 -66 44 -110 112 -110c53 0 86 25 93 73c5 27 -16 53 -42 70c-46 23 -102 28 -143 44c-58 24 -99 68 -96 143c3 82 70 159 185 159c126 0 185 -100 183 -180h-97c2 32 -15 85 -91 85c-62 0 -81 -36 -82 -65c-2 -46 22 -55 58 -67c32 -11 96 -21 142 -51
c46 -31 83 -68 79 -138c-5 -100 -82 -163 -186 -163c-158 0 -206 123 -208 200zM177 472v-36c33 35 69 55 129 44c88 -16 114 -109 114 -185v-369h-87v327c0 94 -25 134 -68 134c-46 0 -88 -52 -88 -142v-319h-87v546h87z" />
    <glyph glyph-name="Korea1.619" unicode="&#x33b2;" 
d="M380 472h84c-23 -143 -47 -287 -71 -431c0 -2 -1 -4 -1 -5c0 -30 19 -31 48 -31c7 0 14 1 20 1l-24 -79c-97 0 -118 19 -123 59c-23 -33 -54 -59 -105 -59c-32 0 -58 22 -66 38c-7 -42 -14 -84 -22 -126h-85l103 633h87c-17 -115 -34 -229 -52 -344c-2 -13 -3 -25 -3 -36
c0 -48 20 -69 59 -69c64 0 91 96 101 156zM466 109h93c6 -67 43 -109 111 -109c52 0 94 26 94 79c0 77 -129 84 -186 107c-56 23 -95 64 -95 134c0 85 65 167 183 167c129 0 184 -100 184 -179h-96v4c0 32 -21 81 -92 81c-60 0 -82 -35 -82 -66c-1 -46 23 -53 58 -66
c66 -24 221 -47 221 -180c0 -105 -78 -171 -186 -171c-158 0 -205 122 -207 199z" />
    <glyph glyph-name="Korea1.620" unicode="&#x33b3;" 
d="M479 108h93c6 -65 44 -110 110 -110c52 0 88 26 94 73c4 27 -15 54 -43 70c-45 23 -102 29 -143 45c-57 24 -98 67 -95 142c3 82 71 159 184 159c127 0 187 -99 183 -180h-94c2 33 -18 85 -93 85c-61 0 -82 -35 -83 -65c-1 -45 24 -54 58 -66c32 -12 96 -22 143 -52
c45 -30 83 -67 79 -138c-5 -100 -83 -162 -187 -162c-158 0 -204 123 -206 199zM129 472v-22c9 14 31 34 58 34c54 0 68 -26 75 -49c15 28 37 49 83 49c74 0 108 -62 108 -182v-376h-83v373c0 72 -16 93 -38 93c-19 0 -35 -26 -35 -93v-373h-87v375c0 80 -16 91 -36 90
s-39 -21 -39 -90v-375h-83v546h77z" />
    <glyph glyph-name="Korea1.621" unicode="&#x33b4;" 
d="M439 681l175 -601l175 601h93l-220 -755h-97l-220 755h94zM165 -57v-206h-83v737h83v-31c18 26 50 46 89 46c102 0 163 -107 163 -288c0 -183 -67 -292 -167 -292c-35 0 -69 17 -85 34zM246 395c-48 0 -81 -71 -81 -194s33 -195 81 -195c50 0 82 72 82 195
s-32 194 -82 194z" />
    <glyph glyph-name="Korea1.622" unicode="&#x33b5;" 
d="M422 679l174 -602l175 602h92l-220 -754h-97l-218 754h94zM169 471v-28c19 22 56 47 112 35c82 -17 108 -107 108 -184v-369h-87v326c0 94 -26 134 -60 134c-38 0 -73 -40 -73 -133v-327h-87v546h87z" />
    <glyph glyph-name="Korea1.623" unicode="&#x33b6;" 
d="M457 680l174 -601c58 200 117 400 175 601h93l-220 -754h-97c-73 250 -145 502 -218 754h93zM130 -48c-6 -39 -12 -77 -19 -115h-84l89 635h87c-14 -113 -29 -226 -44 -339c-2 -13 -3 -25 -3 -36c0 -47 18 -68 47 -68c50 0 73 91 82 153l42 290h88l-62 -431
c0 -3 -1 -5 -1 -8c0 -26 7 -30 32 -30c8 0 17 0 23 1c-8 -25 -15 -52 -23 -78h-31c-64 0 -78 32 -81 44c-11 -17 -47 -43 -88 -43c-29 0 -50 17 -54 25z" />
    <glyph glyph-name="Korea1.624" unicode="&#x33b7;" 
d="M457 680l174 -603l175 603h92l-218 -755h-98l-218 755h93zM119 471v-20c12 15 33 29 55 29c46 0 68 -24 72 -42c13 23 33 45 76 45c71 0 103 -61 103 -182v-376h-81v373c0 72 -15 93 -32 93c-16 0 -34 -26 -34 -93v-373h-85v375c0 81 -17 92 -34 91
c-16 -1 -34 -22 -34 -91v-375h-83v546h77z" />
    <glyph glyph-name="Korea1.625" unicode="&#x33b8;" 
d="M458 679l174 -602l173 602h94l-220 -754h-97l-217 754h93zM195 166l-33 -46v-195h-85v754h85v-416l150 208h101l-159 -225l158 -321h-98z" />
    <glyph glyph-name="Korea1.626" unicode="&#x33b9;" 
d="M598 679c35 -183 71 -366 107 -549l108 549h92c-51 -251 -102 -503 -154 -753h-94l-153 753h94zM410 -74v472l-100 -472h-96c-33 154 -66 308 -100 463v-463h-81v753h102c42 -195 85 -390 128 -586c43 196 84 391 127 586h100v-753h-80z" />
    <glyph glyph-name="Korea1.627" unicode="&#x3380;" 
d="M671 679c77 -251 153 -503 230 -753h-87l-62 193h-260c-21 -65 -41 -128 -61 -193h-87l230 753h97zM518 210h208l-104 342zM131 -46v-217h-78v735h78v-26c26 30 53 47 88 47c95 0 156 -112 156 -294s-61 -292 -156 -292c-39 0 -70 24 -88 47zM211 392
c-46 0 -80 -69 -80 -193c0 -123 34 -195 80 -195c48 0 79 72 79 195c0 124 -30 193 -79 193z" />
    <glyph glyph-name="Korea1.628" unicode="&#x3381;" 
d="M671 679c77 -251 153 -503 230 -753h-87l-62 193h-260c-21 -65 -41 -128 -61 -193h-87l230 753h97zM518 210h208l-104 342zM127 472v-39c27 31 60 55 111 44c77 -16 101 -106 101 -181v-367h-87v325c0 97 -22 140 -55 140c-36 0 -70 -53 -70 -149v-316h-86v543h86z" />
    <glyph glyph-name="Korea1.629" unicode="&#x3382;" 
d="M436 -74h-69c-86 0 -94 38 -95 51c-13 -21 -43 -48 -93 -48c-25 0 -46 16 -57 31c-6 -40 -13 -81 -20 -121h-84l93 632h86l-46 -335c-2 -13 -3 -25 -3 -36c0 -47 18 -68 51 -68c53 0 78 91 87 151l43 288h86c-22 -142 -42 -286 -64 -429c0 -2 -1 -4 -1 -6
c0 -29 10 -33 23 -33c69 225 136 451 205 677h97l230 -754h-88l-59 194h-263zM522 210h207c-34 115 -68 229 -103 344z" />
    <glyph glyph-name="Korea1.630" unicode="&#x3383;" 
d="M701 675l207 -750h-85l-54 193h-231l-53 -193h-84l207 750h93zM743 209l-93 316l-87 -316h180zM110 471v-18c9 13 29 27 51 27c46 0 61 -24 64 -36c10 21 29 37 69 37c70 0 101 -59 101 -179v-377h-83v377c0 73 -11 89 -27 89c-12 0 -29 -21 -29 -89v-377h-83v379
c0 81 -16 88 -30 87c-13 -1 -29 -17 -29 -87v-379h-83v546h79z" />
    <glyph glyph-name="Korea1.631" unicode="&#x3384;" 
d="M491 119l-60 -193h-126c-40 79 -80 161 -120 241c-12 -15 -23 -31 -35 -47v-194h-82v754h82v-419l153 210h99c-53 -75 -106 -150 -160 -225c42 -84 83 -167 125 -249c69 226 137 454 206 682h98l229 -753h-87c-21 64 -41 128 -61 193h-261zM518 210h208l-104 343z" />
    <glyph glyph-name="Korea1.632" unicode="&#x33ba;" 
d="M390 680c28 -178 55 -355 82 -533l76 533h99l79 -536c27 179 55 357 81 536h85l-123 -753h-90l-81 535l-81 -535h-89l-123 753h85zM129 -51v-211h-78v735h78c0 -9 -1 -17 -1 -26c21 25 45 38 77 38c91 0 143 -103 143 -285s-60 -288 -150 -288c-34 0 -57 22 -69 37z
M197 393c-38 0 -68 -69 -68 -193c0 -123 30 -194 68 -194c37 0 67 71 67 194c0 124 -30 193 -67 193z" />
    <glyph glyph-name="Korea1.633" unicode="&#x33bb;" 
d="M385 680l82 -533l75 533h99l80 -536l81 536h84l-122 -753h-90c-28 178 -54 356 -82 535l-81 -535h-88c-42 250 -82 502 -123 753h85zM133 471v-25c13 17 36 34 71 34c103 0 129 -97 129 -186v-368h-82v336c0 95 -24 126 -51 126c-34 0 -67 -42 -67 -134v-328h-83v545h83z
" />
    <glyph glyph-name="Korea1.634" unicode="&#x33bc;" 
d="M677 680c23 -175 46 -350 68 -526c24 176 46 351 70 526h86l-111 -754h-90l-70 520c-24 -174 -47 -347 -70 -520h-89l-112 754h87l70 -525l66 525h95zM239 -31c-14 -21 -38 -42 -82 -42c-25 0 -41 11 -48 20l-17 -109h-82l86 633h83c-14 -112 -28 -224 -41 -337
c-2 -15 -3 -28 -3 -40c0 -44 15 -64 41 -64c44 0 65 89 74 151l41 290h84l-58 -429v-5c0 -32 10 -32 29 -32c8 0 16 0 22 1l-18 -79h-28c-51 0 -74 16 -83 42z" />
    <glyph glyph-name="Korea1.635" unicode="&#x33bd;" 
d="M678 679l67 -524c23 175 47 349 71 524h86l-112 -753h-89l-70 527l-71 -527h-89c-37 250 -74 502 -112 753h88l69 -525c23 175 45 350 67 525h95zM218 446c12 20 33 36 69 36c70 0 101 -60 101 -180v-376h-83v380c0 72 -12 85 -27 85c-14 0 -27 -18 -27 -85v-380h-84v381
c0 72 -9 84 -26 84s-30 -11 -30 -84v-381h-83v546h78v-18c13 15 31 26 48 26c43 0 57 -17 64 -34z" />
    <glyph glyph-name="Korea1.636" unicode="&#x33be;" 
d="M689 -71l-67 523l-69 -523h-85l-107 752h83l67 -511l65 511h91l66 -513l68 513h83l-107 -752h-88zM166 170l-36 -48v-193h-78v752h78v-421l150 210h95l-154 -222l153 -319h-92z" />
    <glyph glyph-name="Korea1.637" unicode="&#x33bf;" 
d="M115 680c34 -192 68 -384 101 -576c34 192 67 384 100 576h90v-755h-76v417l-68 -417h-89l-72 404v-404h-76v755h90zM505 680l60 -502c17 167 34 335 52 502h90l56 -504l55 504h86c-32 -252 -66 -504 -98 -755h-90l-54 476l-55 -476h-89l-99 755h86z" />
    <glyph glyph-name="Korea1.638" unicode="&#x3390;" 
d="M472 679v-754h-91v352h-213v-352h-92v754h92v-309h213v309h91zM845 471v-87l-241 -375h256v-84h-356v85l242 375h-221v86h320z" />
    <glyph glyph-name="Korea1.639" unicode="&#x3391;" 
d="M645 680v-755h-82v334h-118v-334h-83v755h83v-324h118v324h82zM187 353l168 -428h-88c-44 108 -87 218 -131 326l-29 -58v-268h-79v755h79v-314c49 105 96 209 144 314h86zM891 13v-88h-223v83l128 370h-125v92h215v-82c-44 -125 -88 -250 -131 -375h136z" />
    <glyph glyph-name="Korea1.640" unicode="&#x3392;" 
d="M312 372c-23 -149 -48 -298 -71 -447h-71c-23 149 -48 299 -71 449v-449h-74v755h96l84 -528c30 176 58 352 87 528h94v-755h-74v447zM678 679v-754h-80v339h-103v-339h-82v754h82v-320h103v320h80zM903 9v-84h-210v79l122 378h-118v88h198v-84l-123 -377h131z" />
    <glyph glyph-name="Korea1.641" unicode="&#x3393;" 
d="M667 679v-754h-81v338h-123v-338h-84v754h84v-324h123v324h81zM273 197v35h-83v75h158v-382h-75v39c-15 -21 -38 -50 -84 -50c-129 0 -177 152 -177 383c0 224 54 389 185 389c127 0 150 -133 150 -234v-13h-75c0 69 -17 158 -76 158c-69 0 -100 -125 -100 -300
c0 -173 25 -297 95 -297c58 0 82 111 82 197zM898 8v-84h-210v79l121 379h-117v88h197v-84l-123 -378h132z" />
    <glyph glyph-name="Korea1.642" unicode="&#x3394;" 
d="M344 680v-90h-120v-665h-81v665h-128v90h329zM653 680v-755h-81v337h-127v-337h-82v755h82v-323h127v323h81zM896 9v-85h-225v80l134 378h-130v88h213v-84l-136 -377h144z" />
    <glyph glyph-name="Korea1.643" unicode="&#x2126;" 
d="M739 369c0 -155 -85 -271 -179 -308v-56h140v-81h-188c-29 0 -34 24 -34 47v107c0 37 12 54 29 59c85 24 141 104 141 233c0 146 -78 238 -199 238c-116 0 -197 -97 -197 -241c0 -118 44 -191 136 -230c43 -9 37 -61 37 -70c0 -1 1 -105 -2 -109c-1 -17 -8 -34 -31 -34
h-182v81h131v53c-104 38 -182 145 -182 307c-1 182 123 331 290 331c170 0 290 -140 290 -327z" />
    <glyph glyph-name="Korea1.644" unicode="&#x33c0;" 
d="M859 364c0 -153 -56 -262 -126 -301v-57h92v-81h-128c-40 0 -36 29 -36 47v103c0 38 6 55 20 61c58 19 92 102 92 229c0 144 -54 235 -127 235c-69 0 -125 -95 -125 -238c0 -114 31 -193 85 -226c35 -9 30 -54 30 -69c0 -2 1 -102 -2 -106c-1 -17 -9 -36 -32 -36h-126v81
h84v55c-74 39 -127 139 -127 299c0 184 86 330 213 330c131 0 213 -138 213 -326zM202 169l-35 -47v-197h-83v753h83v-416l152 210h98l-158 -225l158 -322h-96z" />
    <glyph glyph-name="Korea1.645" unicode="&#x33c1;" 
d="M209 -74l-89 445v-445h-76v753h93l115 -577l112 577h93v-753h-75v452l-87 -452h-86zM905 362c0 -153 -57 -262 -125 -301v-56h91v-80h-129c-33 0 -37 27 -37 48v101c0 32 4 52 20 60c60 21 94 101 94 229c0 144 -53 235 -127 235c-68 0 -123 -95 -123 -238
c0 -114 27 -193 86 -225c26 -6 29 -38 29 -58v-33c0 -9 1 -29 1 -47c0 -30 5 -72 -38 -72h-125v80h84v54c-74 39 -125 139 -125 299c0 184 85 330 211 330c131 0 213 -138 213 -326z" />
    <glyph glyph-name="Korea1.646" unicode="&#x338a;" 
d="M868 681v-93h-279v-232h236v-94h-236v-336h-96v755h375zM169 473l-1 -36c28 37 64 55 110 55c110 0 180 -110 180 -291c0 -183 -70 -295 -180 -295c-48 0 -88 23 -109 49v-218h-84v736h84zM269 395c-61 0 -100 -71 -100 -194s39 -195 100 -195c59 0 99 72 99 195
s-40 194 -99 194z" />
    <glyph glyph-name="Korea1.647" unicode="&#x338b;" 
d="M851 679v-91h-290v-235h247v-94h-247v-334h-95v754h385zM195 471v-25c19 22 57 44 114 33c80 -17 107 -107 107 -185v-369h-88v327c0 94 -26 134 -58 134c-36 0 -75 -41 -75 -133v-328h-87v546h87z" />
    <glyph glyph-name="Korea1.648" unicode="&#x338c;" 
d="M369 471h87l-71 -430c0 -2 -1 -5 -1 -7c0 -28 13 -29 38 -29c9 0 18 0 26 1l-23 -79h-35c-70 0 -84 30 -89 59c-22 -33 -53 -59 -104 -59c-32 0 -57 22 -64 35c-10 -41 -17 -83 -25 -124h-83l103 633h85l-51 -343c-2 -13 -4 -25 -3 -36c0 -47 21 -68 59 -68
c65 0 90 92 101 153c16 98 34 196 50 294zM876 680v-93h-289v-233h246v-93h-246v-335h-96v754h385z" />
    <glyph glyph-name="Korea1.649" unicode="&#x33d6;" 
d="M855 63l55 -63c-22 -66 -46 -95 -88 -109c-36 -12 -90 16 -113 64c-4 -2 -31 -20 -73 -23l-21 85c17 3 48 12 60 21c-33 98 -38 201 -35 315c5 201 59 355 140 361c89 7 117 -155 98 -371c-16 -176 -56 -273 -100 -336c17 -30 27 -30 36 -25c10 4 24 29 41 81zM779 624
c-23 -3 -54 -152 -57 -272c-1 -105 11 -232 17 -250c20 28 51 136 59 248c9 124 6 276 -19 274zM339 199c0 171 49 294 144 294c94 0 142 -123 142 -294c0 -170 -48 -294 -142 -294c-95 0 -144 124 -144 294zM87 472v-16c9 14 25 25 37 25c36 0 48 -17 54 -32
c11 18 28 34 56 34c61 0 86 -60 86 -180v-377h-74v380c0 72 -11 85 -19 85c-9 0 -21 -18 -21 -85v-380h-74v385c0 79 -12 81 -21 80c-8 -1 -20 -11 -20 -80v-385h-75l1 546h70zM483 401c-42 0 -69 -82 -69 -202c0 -119 27 -203 69 -203c39 0 67 84 67 203
c0 120 -28 202 -67 202z" />
    <glyph glyph-name="Korea1.650" unicode="&#x33c5;" 
d="M736 -75v45c-22 -28 -51 -53 -107 -53c-126 -1 -174 113 -174 278c0 168 71 281 190 280c55 -1 79 -25 91 -42v248h90v-756h-90zM350 94h92c-17 -112 -76 -194 -197 -194c-141 0 -207 123 -207 293c0 173 83 291 223 291c121 0 176 -111 176 -209h-87
c-1 28 -17 113 -92 113c-82 0 -128 -68 -128 -192c0 -126 36 -206 119 -206c59 0 98 48 101 104zM646 391c-64 0 -102 -81 -102 -196c0 -109 31 -196 94 -196c60 0 96 90 96 196c0 107 -24 196 -88 196z" />
    <glyph glyph-name="Korea1.651" unicode="&#x33ad;" 
d="M800 -74v43c-21 -27 -51 -51 -95 -51c-111 0 -152 111 -152 277c0 167 59 280 164 280c40 0 66 -20 83 -40v245h77v-754h-77zM474 -28c-17 -35 -45 -59 -91 -59c-101 0 -141 126 -141 289c0 177 57 285 150 285c34 0 64 -14 83 -42c1 12 3 22 6 37h71
c-7 -57 -17 -136 -17 -208v-200c0 -42 17 -92 33 -125l-67 -42c-14 26 -20 43 -27 65zM29 -74v545h88v-72c20 36 39 50 76 70c27 15 63 14 68 14v-102c-97 0 -144 -73 -144 -197v-258h-88zM452 207c0 92 -9 192 -61 192c-41 0 -65 -79 -65 -197c0 -107 13 -204 59 -204
c51 0 67 102 67 209zM720 390c-54 0 -86 -80 -86 -195c0 -109 27 -196 78 -196c48 0 79 89 79 196c0 106 -21 195 -71 195z" />
    <glyph glyph-name="Korea1.652" unicode="&#x33ae;" 
d="M545 353v16c-11 -11 -29 -21 -59 -21c-61 0 -97 59 -97 147c0 87 34 147 107 146c28 0 43 -16 48 -22v125h60v-391h-59zM499 585c-31 0 -53 -39 -53 -89c0 -51 18 -92 47 -92c28 0 47 43 47 92c0 48 -13 89 -41 89zM908 576l-710 -751l-42 50l707 748zM782 95
c37 -20 52 -52 48 -89c-5 -47 -41 -86 -111 -86c-82 0 -115 57 -117 125h64c1 -46 21 -66 54 -66c31 0 48 16 49 32c1 13 -8 22 -20 27c-9 4 -20 6 -33 9s-27 6 -43 11c-40 17 -63 36 -63 83c1 43 35 89 108 89c80 0 106 -62 106 -115h-60c0 37 -16 57 -46 57
s-41 -18 -41 -31c0 -12 10 -17 23 -23l17 -4c16 -3 40 -8 65 -19zM102 639v-29c8 10 21 18 46 28c19 8 42 7 42 7v-63c-19 0 -31 -2 -43 -7h1c-29 -18 -46 -40 -46 -85v-137h-65v286h65zM335 623v7c0 5 0 11 1 15h52l-3 -32c-2 -25 -5 -56 -5 -78v-101c0 -20 9 -40 24 -61
l-54 -25c-9 9 -11 14 -14 27c-6 -11 -23 -29 -59 -29c-70 0 -96 67 -96 152c0 93 39 148 102 148c23 0 43 -14 52 -23zM319 501c0 44 -5 89 -35 89c-21 0 -38 -38 -38 -91c0 -49 9 -95 34 -95c29 0 39 47 39 97z" />
    <glyph glyph-name="Korea1.653" unicode="&#x33af;" 
d="M535 353l1 15c-11 -12 -29 -20 -59 -20c-61 0 -101 59 -101 147c0 87 38 145 111 144c28 0 43 -8 48 -12v117h60v-391h-60zM490 585c-31 0 -52 -39 -52 -89c0 -51 16 -92 46 -92c28 0 47 43 47 92c0 48 -13 89 -41 89zM91 639v-38c8 12 21 29 47 38c18 8 40 6 40 6v-63
c-19 0 -31 -2 -41 -7h1c-30 -18 -47 -40 -47 -85v-137h-64v286h64zM719 92c37 -19 52 -48 49 -86c-5 -47 -42 -86 -114 -86c-80 0 -114 57 -117 125h64c1 -46 22 -66 54 -66s48 16 49 32c1 11 -10 21 -19 26c-8 3 -22 7 -36 11c-12 3 -26 7 -41 12c-39 17 -60 35 -60 81
c1 43 33 89 105 89c81 0 109 -62 109 -115h-63c0 37 -15 57 -46 57c-29 0 -41 -18 -41 -31c0 -10 12 -20 23 -26l17 -4c16 -3 41 -8 67 -19zM899 576l-710 -751l-43 50l707 748zM897 219v-48h-137c-2 34 8 61 29 86l10 8c7 6 17 17 24 23c8 8 19 18 20 27c1 8 -4 16 -16 16
c-15 0 -21 -19 -18 -39h-49c0 40 17 87 66 87c51 0 68 -35 68 -65c0 -27 -12 -41 -26 -55l-16 -13l-19 -15l-6 -7c-3 -3 -4 -2 -5 -5h75zM338 340c-14 18 -15 21 -16 33c-8 -10 -28 -27 -54 -27c-70 0 -96 67 -96 152c0 93 39 148 102 148c23 0 42 -16 49 -23c1 7 1 11 1 20
h50c0 -3 -1 -8 -1 -12c-3 -27 -7 -62 -7 -96v-101c0 -20 11 -53 26 -75zM310 501c0 44 -5 89 -35 89c-22 0 -38 -38 -38 -91c0 -49 9 -95 34 -95c29 0 39 47 39 97z" />
    <glyph glyph-name="Korea1.654" unicode="&#x33db;" 
d="M92 110h94c6 -66 44 -110 110 -110c52 0 94 27 94 80c1 77 -127 83 -186 107c-56 22 -96 65 -96 134c0 85 67 168 186 168c127 0 182 -100 182 -181h-95v5c0 33 -20 80 -92 80c-62 0 -84 -35 -84 -65c-1 -46 24 -54 59 -66c66 -24 222 -47 222 -179
c0 -106 -80 -172 -188 -172c-158 0 -204 122 -206 199zM543 -73v544h89v-83c27 41 57 63 99 83c34 16 94 17 94 17v-102c-31 0 -74 -4 -97 -15c-55 -32 -96 -89 -96 -185v-259h-89z" />
    <glyph glyph-name="Korea1.655" unicode="&#x33a9;" 
d="M83 680h208c106 0 187 -90 187 -229c0 -134 -81 -230 -187 -230h-123v-295h-85v754zM168 309h123c44 0 98 48 98 142c0 95 -53 144 -98 144h-123v-286zM858 -58c-28 -11 -55 -22 -83 -32c-21 38 -19 48 -26 77c-15 -34 -45 -74 -118 -74c-118 0 -164 126 -164 289
c0 176 69 285 178 285c47 0 85 -19 104 -55c1 20 6 29 9 50h84c-10 -58 -22 -135 -22 -208v-200c0 -42 16 -98 38 -132zM724 207c0 92 -9 192 -81 192c-60 0 -87 -79 -87 -197c0 -108 17 -204 80 -204c69 0 88 100 88 209z" />
    <glyph glyph-name="Korea1.656" unicode="&#x33aa;" 
d="M95 680v-415l132 205h92l-142 -224l141 -321h-88l-107 240l-28 -44v-196h-77v755h77zM335 680h146c81 0 145 -88 145 -227c0 -134 -60 -234 -143 -234h-69v-294h-79v755zM414 306h69c25 0 63 53 63 147c0 95 -37 142 -63 142h-69v-289zM815 -43c-12 -27 -37 -45 -77 -45
c-92 0 -124 126 -124 290c0 177 49 284 135 284c33 0 54 -12 67 -30c1 4 1 15 3 25h72c-6 -56 -12 -128 -12 -207v-200c0 -40 12 -108 25 -138l-74 -29c-8 21 -13 34 -15 50zM793 207c0 92 -7 192 -46 192c-32 0 -51 -80 -51 -197c0 -114 11 -205 45 -205
c38 0 52 103 52 210z" />
    <glyph glyph-name="Korea1.657" unicode="&#x33ab;" 
d="M296 376c-23 -150 -46 -301 -70 -450h-65c-24 145 -46 291 -70 437v-437h-69v754h91l81 -528l84 528h88v-754h-70v450zM392 680h135c76 0 130 -90 130 -229c0 -134 -56 -231 -132 -231h-58v-294h-75v754zM467 308h54c18 0 57 42 57 145c0 95 -30 141 -56 141h-55v-286z
M828 -40c-7 -16 -33 -47 -69 -47c-87 0 -115 125 -115 289c0 177 41 281 120 281c28 0 53 -16 62 -35c2 9 3 22 4 31c23 0 45 1 68 1c-4 -56 -14 -127 -14 -206v-200c0 -40 12 -97 24 -126c-22 -12 -43 -25 -65 -38c-4 23 -10 33 -15 50zM803 207c0 98 -5 192 -40 192
c-30 0 -43 -81 -43 -197c0 -114 11 -204 40 -204c31 0 43 95 43 209z" />
    <glyph glyph-name="Korea1.658" unicode="&#x33ac;" 
d="M374 680h140c77 0 127 -92 127 -231c0 -134 -50 -230 -127 -230h-65v-293h-75v754zM274 198v35h-82v75h156v-382h-74v45c-14 -23 -36 -54 -83 -54c-127 0 -175 151 -175 381c0 223 54 389 182 389c127 0 149 -132 149 -232v-14h-74c0 68 -17 153 -75 153
c-68 0 -99 -121 -99 -296c0 -172 25 -296 94 -296c57 0 81 110 81 196zM815 -41c-7 -18 -31 -46 -67 -46c-87 0 -116 125 -116 289c0 177 43 283 123 283c28 0 49 -15 58 -31l4 28h70c-6 -57 -14 -129 -14 -208v-200c0 -40 11 -99 23 -128l-68 -39c-4 18 -8 35 -13 52z
M449 306h60c21 0 54 49 54 143c0 95 -32 145 -54 145h-60v-288zM794 204c0 93 -8 195 -40 195c-27 0 -44 -79 -44 -196c0 -114 11 -206 39 -206c32 0 45 93 45 207z" />
    <glyph glyph-name="Korea1.659" unicode="&#x33dd;" 
d="M318 -74l-54 498l-57 -498h-83l-96 754h82c18 -166 36 -332 55 -498l54 498h88c18 -167 37 -334 54 -501l57 501h81l-95 -754h-86zM611 -74h-84v754h84v-254c18 21 48 47 99 47c117 0 189 -110 189 -279c0 -164 -60 -276 -182 -276c-58 0 -85 28 -106 55v-47zM709 389
c-65 0 -88 -88 -88 -195c0 -106 37 -195 90 -195c65 0 102 87 102 195c0 114 -36 195 -104 195z" />
    <glyph glyph-name="Korea1.660" unicode="&#x33d0;" 
d="M370 57l66 -56c-33 -68 -68 -98 -119 -110c-47 -11 -113 13 -155 73c-23 -13 -66 -28 -107 -30l-31 85c26 3 72 11 95 21c-43 91 -51 199 -47 313c5 201 83 355 187 361c112 6 156 -158 129 -371c-24 -176 -86 -281 -145 -336c21 -33 48 -37 69 -27s39 33 58 77zM257 624
c-49 -4 -91 -148 -94 -272c-4 -99 13 -226 33 -267c50 52 92 151 103 266c13 124 11 275 -42 273zM526 472v-23c18 22 40 36 65 36c57 0 74 -27 82 -53c17 32 42 53 90 53c80 0 118 -62 118 -182v-377h-87v371c0 73 -17 96 -42 96c-23 0 -44 -28 -44 -96v-371h-88v373
c0 81 -21 94 -45 93c-21 -1 -42 -23 -42 -93v-373h-88v546h81z" />
    <glyph glyph-name="Korea1.661" unicode="&#x33d3;" 
d="M378 58l66 -56c-33 -68 -67 -98 -118 -110c-48 -11 -114 13 -155 73c-24 -14 -67 -28 -108 -30l-31 85c27 3 72 11 93 21c-41 91 -49 199 -45 313c5 201 83 355 188 361c111 6 155 -158 128 -371c-24 -176 -86 -281 -145 -336c21 -33 48 -37 69 -27s40 34 58 77zM266 624
c-50 -3 -91 -147 -95 -271c-4 -99 13 -226 33 -267c50 52 92 151 103 266c14 123 12 275 -41 272zM877 472l-169 -265l179 -280h-103l-127 199l-129 -199h-100l179 280l-170 265h101l119 -183l118 183h102z" />
    <glyph glyph-name="Korea1.662" unicode="&#x33c3;" 
d="M373 328c37 -30 83 -87 83 -195c0 -126 -79 -207 -173 -207h-197v754h203c102 0 148 -95 148 -194c0 -73 -26 -126 -64 -158zM167 363h109c39 0 75 57 75 123c0 65 -34 114 -74 114h-110v-237zM755 -263c0 75 1 150 1 225c-26 -36 -58 -55 -99 -55
c-105 0 -176 110 -176 293c0 181 73 289 178 289c40 0 71 -17 96 -50v33h80v-735h-80zM662 -4c56 0 93 75 93 204c0 130 -37 202 -93 202c-57 0 -93 -72 -93 -202c0 -129 36 -204 93 -204zM167 12h115c48 0 87 56 87 137c0 70 -48 128 -86 128h-116v-265z" />
    <glyph glyph-name="Korea1.663" unicode="&#x33c9;" 
d="M403 -74v55c-29 -41 -77 -76 -139 -76c-152 0 -237 158 -237 396s93 392 242 392c135 0 207 -109 217 -246h-96c-7 85 -44 153 -125 153c-89 0 -146 -123 -146 -299s55 -304 145 -304c79 0 135 116 137 221l-145 1v92h234v-385h-87zM590 473l113 -387l106 387h93
l-185 -638c-13 -41 -27 -63 -53 -81c-28 -19 -51 -17 -75 -17h-34v91h47c14 0 30 18 34 38l19 67l-160 540h95z" />
    <glyph glyph-name="Korea1.664" unicode="&#x33dc;" 
d="M497 112c-15 -117 -85 -214 -231 -214c-162 0 -236 145 -240 282h96c4 -125 65 -189 145 -189c82 0 121 53 132 125c8 56 -18 89 -59 115c-48 30 -111 24 -170 54c-79 39 -123 91 -122 197c1 101 71 214 213 214c169 0 220 -155 220 -244h-96c0 86 -40 154 -124 154
c-75 0 -114 -65 -114 -124c0 -65 37 -91 66 -106c39 -19 126 -23 184 -62c68 -46 109 -108 100 -202zM587 473l114 -394l106 394h92l-157 -552h-84l-164 552h93z" />
    <glyph glyph-name="Korea1.665" unicode="&#x33c6;" 
d="M746 762l43 -42l-721 -793l-48 42zM815 168v18h60v-260c0 -90 -53 -120 -108 -120c-72 0 -112 45 -115 106h62c2 -29 19 -49 53 -49s48 22 48 62v23c-8 -11 -21 -24 -57 -24c-63 0 -115 55 -115 135c0 79 46 134 113 134c22 0 52 -8 59 -25zM762 136
c-30 0 -53 -26 -53 -77c0 -50 23 -77 53 -77c32 0 53 29 53 79s-21 75 -53 75zM490 23l-18 -16v-98h-63v377h63v-193l91 93h81l-109 -117l106 -160h-78zM295 452h70c-15 -80 -60 -139 -140 -139c-92 0 -147 82 -147 196c0 116 55 198 147 198c80 0 129 -69 140 -140h-69
c-6 32 -26 71 -71 71c-48 0 -80 -52 -80 -129c0 -76 32 -127 80 -127c37 0 62 31 70 70z" />
    <glyph glyph-name="Korea1.666" unicode="&#xc6;" horiz-adv-x="858" 
d="M537 621v-210h242v-96h-242v-236h267v-95h-379v194h-224l-78 -194h-118c103 244 205 488 307 733h491v-96h-266zM235 269h190v352h-39c-50 -118 -101 -235 -151 -352z" />
    <glyph glyph-name="Korea1.667" unicode="&#xd0;" horiz-adv-x="732" 
d="M681 355c0 -251 -151 -371 -384 -371h-208v325h-84v96h84v312h208c223 0 384 -125 384 -362zM403 405v-96h-201v-229h102c159 0 257 99 257 272c0 164 -107 269 -248 269h-111v-216h201z" />
    <glyph glyph-name="Korea1.668" unicode="&#xaa;" horiz-adv-x="450" 
d="M366 449h-63l-3 25c-19 -16 -51 -32 -93 -32c-84 -1 -127 39 -127 113c0 59 61 109 153 109c24 0 33 0 57 -1c-1 47 -16 75 -71 75c-33 0 -71 -15 -103 -38l-2 59c34 23 70 39 115 39c95 0 131 -54 131 -144v-119c0 -27 4 -69 6 -86zM294 575v31h-32
c-24 1 -112 -2 -112 -51c0 -35 30 -56 55 -56c55 0 89 37 89 76z" />
    <glyph glyph-name="Korea1.669" unicode="&#x126;" horiz-adv-x="732" 
d="M716 611v-94h-71v-533h-113v330h-331v-330h-113v533h-70v94h70v106h113v-106h331v106h113v-106h71zM201 412h331v105h-331v-105z" />
    <glyph glyph-name="Korea1.670" unicode="&#x132;" horiz-adv-x="675" 
d="M213 717v-733h-113v733h113zM586 717v-553c0 -94 -47 -193 -201 -193c-34 0 -63 5 -90 14v97c22 -7 45 -11 66 -11c45 0 74 14 90 38c17 24 21 59 21 98v510h114z" />
    <glyph glyph-name="Korea1.671" unicode="&#x13f;" horiz-adv-x="510" 
d="M499 79v-95h-409v733h114v-638h295zM471 402c-6 -29 -32 -51 -65 -51c-42 0 -74 32 -74 71s32 71 74 71s73 -33 73 -71c0 -8 -3 -14 -8 -20z" />
    <glyph glyph-name="Korea1.672" unicode="&#x141;" horiz-adv-x="510" 
d="M-31 225l121 123v369h114v-253l70 72c22 -21 45 -41 68 -62l-138 -140v-255h295v-95h-409v235l-54 -55c-23 20 -44 41 -67 61z" />
    <glyph glyph-name="Korea1.673" unicode="&#xd8;" horiz-adv-x="788" 
d="M751 685l-80 -91c46 -66 70 -150 70 -243c0 -217 -125 -379 -345 -379c-85 0 -156 23 -210 63c-27 -30 -53 -59 -79 -90c-24 21 -47 42 -70 61l84 96c-48 66 -72 152 -72 249c0 213 126 378 347 378c84 0 154 -25 209 -66l75 86zM169 351c0 -54 10 -109 32 -156l334 386
c-36 32 -82 53 -139 53c-156 0 -227 -144 -227 -283zM622 351c0 52 -11 104 -32 149l-334 -384c35 -30 81 -49 140 -49c160 0 226 145 226 284z" />
    <glyph glyph-name="Korea1.674" unicode="&#x152;" horiz-adv-x="887" 
d="M826 717v-96h-259v-210h236v-96h-236v-236h260v-95h-373v4c-29 -10 -61 -16 -94 -16c-205 0 -316 162 -316 379c0 213 112 378 316 378c34 0 65 -6 94 -16v4h372zM360 67c36 0 68 7 94 22v521c-27 15 -58 24 -94 24c-144 0 -206 -144 -206 -283s56 -284 206 -284z" />
    <glyph glyph-name="Korea1.675" unicode="&#xba;" horiz-adv-x="450" 
d="M223 438c-92 0 -119 106 -119 177c0 69 25 176 119 176s118 -107 118 -176c0 -71 -26 -177 -118 -177zM223 494c47 0 53 86 53 121c0 30 -9 121 -53 121s-53 -91 -53 -121c0 -35 5 -121 53 -121z" />
    <glyph glyph-name="Korea1.676" unicode="&#xde;" horiz-adv-x="732" 
d="M446 100h-246v-116h-111v733h111v-120h246c123 0 237 -71 237 -247c0 -174 -110 -250 -237 -250zM442 504h-242v-309h242c77 0 127 56 127 155c0 97 -50 154 -127 154z" />
    <glyph glyph-name="Korea1.677" unicode="&#x166;" horiz-adv-x="566" 
d="M516 316h-177v-332h-113v332h-175v94h175v211h-215v96h543v-96h-215v-211h177v-94z" />
    <glyph glyph-name="Korea1.678" unicode="&#x14a;" horiz-adv-x="746" 
d="M660 717v-742c0 -94 -45 -193 -198 -193c-35 0 -63 4 -90 13v98c21 -8 44 -12 65 -12c77 0 101 40 109 95l-346 608h-1v-600h-110v733h154l306 -559v559h111z" />
    <glyph glyph-name="Korea1.679" unicode="&#x3260;" 
d="M457 762c237 0 429 -207 429 -462c0 -256 -192 -462 -429 -462s-429 206 -429 462c0 255 192 462 429 462zM457 708c-208 0 -374 -183 -374 -408c0 -226 166 -408 374 -408s374 182 374 408c0 225 -166 408 -374 408zM572 88v340h-329v82h419v-422h-90z" />
    <glyph glyph-name="Korea1.680" unicode="&#x3261;" 
d="M457 762c237 0 429 -207 429 -462c0 -256 -192 -462 -429 -462s-429 206 -429 462c0 255 192 462 429 462zM457 708c-208 0 -374 -183 -374 -408c0 -226 166 -408 374 -408s374 182 374 408c0 225 -166 408 -374 408zM342 511v-339h330v-83h-420v422h90z" />
    <glyph glyph-name="Korea1.681" unicode="&#x3262;" 
d="M457 762c237 0 429 -207 429 -462c0 -256 -192 -462 -429 -462s-429 206 -429 462c0 255 192 462 429 462zM457 708c-208 0 -374 -183 -374 -408c0 -226 166 -408 374 -408s374 182 374 408c0 225 -166 408 -374 408zM662 511v-83h-319v-257h324v-83h-416v423h411z" />
    <glyph glyph-name="Korea1.682" unicode="&#x3263;" 
d="M457 762c237 0 429 -207 429 -462c0 -256 -192 -462 -429 -462s-429 206 -429 462c0 255 192 462 429 462zM457 708c-208 0 -374 -183 -374 -408c0 -226 166 -408 374 -408s374 182 374 408c0 225 -166 408 -374 408zM672 170v-83h-421v254h321v88h-321v83h412v-254h-321
v-88h330z" />
    <glyph glyph-name="Korea1.683" unicode="&#x3264;" 
d="M457 762c237 0 429 -207 429 -462c0 -256 -192 -462 -429 -462s-429 206 -429 462c0 255 192 462 429 462zM457 708c-208 0 -374 -183 -374 -408c0 -226 166 -408 374 -408s374 182 374 408c0 225 -166 408 -374 408zM663 87h-412v425h412v-425zM342 429v-259h230v259
h-230z" />
    <glyph glyph-name="Korea1.684" unicode="&#x3265;" 
d="M457 762c237 0 429 -207 429 -462c0 -256 -192 -462 -429 -462s-429 206 -429 462c0 255 192 462 429 462zM457 708c-208 0 -374 -183 -374 -408c0 -226 166 -408 374 -408s374 182 374 408c0 225 -166 408 -374 408zM663 87h-412v424h91v-120h230v120h91v-424zM342 308
v-138h230v138h-230z" />
    <glyph glyph-name="Korea1.685" unicode="&#x3266;" 
d="M457 762c237 0 429 -207 429 -462c0 -256 -192 -462 -429 -462s-429 206 -429 462c0 255 192 462 429 462zM457 708c-208 0 -374 -183 -374 -408c0 -226 166 -408 374 -408s374 182 374 408c0 225 -166 408 -374 408zM381 159c-45 -40 -81 -50 -113 -56l-68 55
c36 8 82 26 132 71c54 49 78 126 78 200v122h94v-122c0 -74 23 -151 78 -200c50 -44 96 -63 132 -71l-68 -55c-33 5 -69 16 -114 57c-43 38 -62 69 -75 100c-12 -31 -35 -66 -76 -101z" />
    <glyph glyph-name="Korea1.686" unicode="&#x3267;" 
d="M457 762c237 0 429 -207 429 -462c0 -256 -192 -462 -429 -462s-429 206 -429 462c0 255 192 462 429 462zM457 708c-208 0 -374 -183 -374 -408c0 -226 166 -408 374 -408s374 182 374 408c0 225 -166 408 -374 408zM457 547c131 0 224 -112 224 -247
c0 -136 -93 -248 -224 -248c-132 0 -224 112 -224 248c0 135 92 247 224 247zM457 464c-86 0 -134 -74 -134 -164c0 -91 48 -165 134 -165s134 74 134 165c0 90 -48 164 -134 164z" />
    <glyph glyph-name="Korea1.687" unicode="&#x3268;" 
d="M457 762c237 0 429 -207 429 -462c0 -256 -192 -462 -429 -462s-429 206 -429 462c0 255 192 462 429 462zM457 708c-208 0 -374 -183 -374 -408c0 -226 166 -408 374 -408s374 182 374 408c0 225 -166 408 -374 408zM409 418h-167v83h430v-83h-167
c2 -70 27 -139 77 -184c51 -46 95 -62 132 -69l-68 -57c-33 5 -68 18 -113 59c-43 38 -63 70 -76 101c-12 -31 -36 -67 -77 -102c-45 -38 -80 -52 -112 -58l-68 57c36 6 81 23 132 69c50 45 74 114 77 184z" />
    <glyph glyph-name="Korea1.688" unicode="&#x3269;" 
d="M457 762c237 0 429 -207 429 -462c0 -256 -192 -462 -429 -462s-429 206 -429 462c0 255 192 462 429 462zM457 708c-208 0 -374 -183 -374 -408c0 -226 166 -408 374 -408s374 182 374 408c0 225 -166 408 -374 408zM321 465v84h272v-84h-272zM405 334h-160v83h424v-83
h-160c8 -55 32 -106 73 -142c51 -45 95 -62 132 -70l-68 -55c-32 6 -68 18 -113 58c-44 38 -64 71 -76 100c-12 -30 -36 -66 -77 -101c-45 -38 -81 -51 -112 -57l-68 55c36 7 81 25 132 70c41 36 64 87 73 142z" />
    <glyph glyph-name="Korea1.689" unicode="&#x326a;" 
d="M457 762c237 0 429 -207 429 -462c0 -256 -192 -462 -429 -462s-429 206 -429 462c0 255 192 462 429 462zM457 708c-208 0 -374 -183 -374 -408c0 -226 166 -408 374 -408s374 182 374 408c0 225 -166 408 -374 408zM572 247h-321v83h321v103h-321v83h411v-433h-90v164z
" />
    <glyph glyph-name="Korea1.690" unicode="&#x326b;" 
d="M457 762c237 0 429 -207 429 -462c0 -256 -192 -462 -429 -462s-429 206 -429 462c0 255 192 462 429 462zM457 708c-208 0 -374 -183 -374 -408c0 -226 166 -408 374 -408s374 182 374 408c0 225 -166 408 -374 408zM662 258h-320v-92h328v-83h-419v433h416v-83h-325
v-92h320v-83z" />
    <glyph glyph-name="Korea1.691" unicode="&#x326c;" 
d="M457 762c237 0 429 -207 429 -462c0 -256 -192 -462 -429 -462s-429 206 -429 462c0 255 192 462 429 462zM457 708c-208 0 -374 -183 -374 -408c0 -226 166 -408 374 -408s374 182 374 408c0 225 -166 408 -374 408zM329 171v257h-68v83h392v-83h-68v-257h77v-83h-411
v83h78zM494 171v257h-74v-257h74z" />
    <glyph glyph-name="Korea1.692" unicode="&#x326d;" 
d="M313 498v83h289v-83h-289zM692 461v-83h-469v83h469zM457 356c103 0 179 -72 179 -168c0 -95 -76 -168 -179 -168c-101 0 -178 73 -178 168c0 96 77 168 178 168zM457 279c-50 0 -91 -42 -91 -92c0 -46 37 -89 91 -89s91 44 91 89c0 50 -35 92 -91 92zM457 762
c237 0 429 -207 429 -462c0 -256 -192 -462 -429 -462s-429 206 -429 462c0 255 192 462 429 462zM457 708c-208 0 -374 -183 -374 -408c0 -226 166 -408 374 -408s374 182 374 408c0 225 -166 408 -374 408z" />
    <glyph glyph-name="Korea1.693" unicode="&#x326e;" 
d="M457 762c237 0 429 -207 429 -462c0 -256 -192 -462 -429 -462s-429 206 -429 462c0 255 192 462 429 462zM457 708c-208 0 -374 -183 -374 -408c0 -226 166 -408 374 -408s374 182 374 408c0 225 -166 408 -374 408zM731 285h-79v-287h-80v603h80v-242h79v-74zM340 288
c45 55 72 132 77 179h-209v75h301c-9 -209 -140 -386 -301 -442l-52 57c68 25 132 63 184 131z" />
    <glyph glyph-name="Korea1.694" unicode="&#x326f;" 
d="M457 762c237 0 429 -207 429 -462c0 -256 -192 -462 -429 -462s-429 206 -429 462c0 255 192 462 429 462zM457 708c-208 0 -374 -183 -374 -408c0 -226 166 -408 374 -408s374 182 374 408c0 225 -166 408 -374 408zM573 -3v604h80v-234h78v-74h-78v-296h-80zM547 231
v-71c-35 -8 -91 -17 -143 -20c-72 -4 -189 -3 -193 -3v405h81v-331c50 0 177 6 255 20z" />
    <glyph glyph-name="Korea1.695" unicode="&#x3270;" 
d="M457 762c237 0 429 -207 429 -462c0 -256 -192 -462 -429 -462s-429 206 -429 462c0 255 192 462 429 462zM457 708c-208 0 -374 -183 -374 -408c0 -226 166 -408 374 -408s374 182 374 408c0 225 -166 408 -374 408zM572 -2v604h80v-242h79v-74h-79v-288h-80zM545 232
v-71c-37 -7 -111 -22 -185 -22c-50 0 -101 -1 -150 -1v398h292v-73h-212v-251c42 0 166 1 255 20z" />
    <glyph glyph-name="Korea1.696" unicode="&#x3271;" 
d="M457 762c237 0 429 -207 429 -462c0 -256 -192 -462 -429 -462s-429 206 -429 462c0 255 192 462 429 462zM457 708c-208 0 -374 -183 -374 -408c0 -226 166 -408 374 -408s374 182 374 408c0 225 -166 408 -374 408zM570 -3v604h81v-242h79v-74h-79v-288h-81zM544 210
v-72c-34 -7 -104 -17 -156 -19l-186 -2v256h206v102h-206v74h287v-250h-207v-108c17 0 168 2 262 19z" />
    <glyph glyph-name="Korea1.697" unicode="&#x3272;" 
d="M457 762c237 0 429 -207 429 -462c0 -256 -192 -462 -429 -462s-429 206 -429 462c0 255 192 462 429 462zM457 708c-208 0 -374 -183 -374 -408c0 -226 166 -408 374 -408s374 182 374 408c0 225 -166 408 -374 408zM736 285h-80v-288h-80v604h80v-243h80v-73zM207 131
v409h296v-409h-296zM421 467h-132v-261h132v261z" />
    <glyph glyph-name="Korea1.698" unicode="&#x3273;" 
d="M457 762c237 0 429 -207 429 -462c0 -256 -192 -462 -429 -462s-429 206 -429 462c0 255 192 462 429 462zM457 708c-208 0 -374 -183 -374 -408c0 -226 166 -408 374 -408s374 182 374 408c0 225 -166 408 -374 408zM734 286h-79v-288h-80v605h80v-243h79v-74zM206 131
v426h82v-125h132v125h82v-426h-296zM420 359h-132v-152h132v152z" />
    <glyph glyph-name="Korea1.699" unicode="&#x3274;" 
d="M457 762c237 0 429 -207 429 -462c0 -256 -192 -462 -429 -462s-429 206 -429 462c0 255 192 462 429 462zM457 708c-208 0 -374 -183 -374 -408c0 -226 166 -408 374 -408s374 182 374 408c0 225 -166 408 -374 408zM729 285h-79v-288h-81v604h81v-241h79v-75zM390 563
v-145c0 -141 104 -225 163 -248l-51 -62c-17 7 -59 35 -95 70l-13 14c-22 24 -38 48 -46 70c-20 -66 -119 -142 -154 -155l-52 62c59 21 167 108 167 249v145h81z" />
    <glyph glyph-name="Korea1.700" unicode="&#x3275;" 
d="M457 762c237 0 429 -207 429 -462c0 -256 -192 -462 -429 -462s-429 206 -429 462c0 255 192 462 429 462zM457 708c-208 0 -374 -183 -374 -408c0 -226 166 -408 374 -408s374 182 374 408c0 225 -166 408 -374 408zM733 286h-79v-288h-82v604h82v-243h79v-73zM181 330
c0 152 68 234 164 234s166 -82 166 -234c0 -150 -71 -233 -166 -233c-96 0 -164 83 -164 233zM262 331c0 -93 32 -157 84 -157c53 0 83 65 83 157c0 91 -30 156 -83 156c-52 0 -84 -64 -84 -156z" />
    <glyph glyph-name="Korea1.701" unicode="&#x3276;" 
d="M457 762c237 0 429 -207 429 -462c0 -256 -192 -462 -429 -462s-429 206 -429 462c0 255 192 462 429 462zM457 708c-208 0 -374 -183 -374 -408c0 -226 166 -408 374 -408s374 182 374 408c0 225 -166 408 -374 408zM741 286h-80v-288h-81v604h81v-243h80v-73zM320 408
v60h-125v75h331v-75h-124v-60c0 -145 108 -219 163 -238l-50 -63c-37 14 -130 83 -154 149c-23 -64 -117 -136 -155 -149l-52 62c58 21 166 95 166 239z" />
    <glyph glyph-name="Korea1.702" unicode="&#x3277;" 
d="M457 762c237 0 429 -207 429 -462c0 -256 -192 -462 -429 -462s-429 206 -429 462c0 255 192 462 429 462zM457 708c-208 0 -374 -183 -374 -408c0 -226 166 -408 374 -408s374 182 374 408c0 225 -166 408 -374 408zM730 286h-79v-288h-81v605h81v-243h79v-74zM261 509
v76h179v-76h-179zM310 374v25h-125v74h331v-74h-124v-25c0 -130 122 -189 163 -204c-17 -21 -34 -42 -50 -63c-32 12 -131 75 -154 131c-25 -56 -123 -119 -155 -132l-53 60c44 18 167 79 167 208z" />
    <glyph glyph-name="Korea1.703" unicode="&#x3278;" 
d="M457 762c237 0 429 -207 429 -462c0 -256 -192 -462 -429 -462s-429 206 -429 462c0 255 192 462 429 462zM457 708c-208 0 -374 -183 -374 -408c0 -226 166 -408 374 -408s374 182 374 408c0 225 -166 408 -374 408zM731 285h-80v-287h-80v604h80v-242h80v-75zM400 395
c9 27 15 53 17 73h-211v75h304c-4 -91 -38 -202 -91 -276c-56 -78 -145 -140 -215 -168l-51 59c70 25 158 77 208 160l-43 -2c-47 -2 -96 0 -122 -1v74l154 2z" />
    <glyph glyph-name="Korea1.704" unicode="&#x3279;" 
d="M457 762c237 0 429 -207 429 -462c0 -256 -192 -462 -429 -462s-429 206 -429 462c0 255 192 462 429 462zM457 708c-208 0 -374 -183 -374 -408c0 -226 166 -408 374 -408s374 182 374 408c0 225 -166 408 -374 408zM576 -2v603h81v-241h78v-74h-78v-288h-81zM549 211
v-71c-100 -21 -297 -22 -335 -22v424h291v-73h-209v-97h203v-73h-203v-107c47 0 173 6 253 19z" />
    <glyph glyph-name="Korea1.705" unicode="&#x327a;" 
d="M457 762c237 0 429 -207 429 -462c0 -256 -192 -462 -429 -462s-429 206 -429 462c0 255 192 462 429 462zM457 708c-208 0 -374 -183 -374 -408c0 -226 166 -408 374 -408s374 182 374 408c0 225 -166 408 -374 408zM579 -2v604h82v-242h78v-75h-78v-287h-82zM529 468
h-343v75h343v-75zM561 209v-74c-39 -6 -99 -15 -166 -17h-48c-56 0 -112 -1 -167 -1v75h65c-5 86 -11 171 -17 256h81c4 -85 10 -170 14 -256c31 0 47 0 71 1c4 85 10 170 14 255h82l-17 -250c31 1 61 7 88 11z" />
    <glyph glyph-name="Korea1.706" unicode="&#x327b;" 
d="M457 762c237 0 429 -207 429 -462c0 -256 -192 -462 -429 -462s-429 206 -429 462c0 255 192 462 429 462zM457 708c-208 0 -374 -183 -374 -408c0 -226 166 -408 374 -408s374 182 374 408c0 225 -166 408 -374 408zM731 286h-80v-287h-81v604h81v-242h80v-75zM258 510
v74h187v-74h-187zM167 402v74h371v-74h-371zM351 379c94 0 161 -68 161 -152c0 -83 -67 -152 -161 -152c-92 0 -158 69 -158 152c0 84 66 152 158 152zM351 305c-48 0 -77 -35 -77 -78s29 -77 77 -77c51 0 78 34 78 77s-27 78 -78 78z" />
    <glyph glyph-name="Korea1.707" unicode="&#x24d0;" 
d="M457 762c237 0 429 -207 429 -462c0 -256 -192 -462 -429 -462s-429 206 -429 462c0 255 192 462 429 462zM457 708c-208 0 -374 -183 -374 -408c0 -226 166 -408 374 -408s374 182 374 408c0 225 -166 408 -374 408zM632 402v-247c0 -38 14 -68 15 -70h-84
c-9 16 -13 33 -14 54c-27 -34 -87 -69 -154 -69c-78 0 -136 43 -136 128c0 201 291 101 291 204c0 32 -28 66 -94 66c-58 0 -93 -30 -93 -69c0 -3 0 -6 1 -9h-82c0 4 -1 7 -1 11c0 86 81 142 176 142c94 0 175 -55 175 -141zM550 255v50c-22 -30 -112 -25 -151 -43l-13 -6
c-28 -13 -40 -34 -40 -60c0 -33 28 -46 64 -46c80 0 140 60 140 105z" />
    <glyph glyph-name="Korea1.708" unicode="&#x24d1;" 
d="M457 762c237 0 429 -207 429 -462c0 -256 -192 -462 -429 -462s-429 206 -429 462c0 255 192 462 429 462zM457 708c-208 0 -374 -183 -374 -408c0 -226 166 -408 374 -408s374 182 374 408c0 225 -166 408 -374 408zM377 42v-44h-83v605h83v-208c31 38 75 59 128 59
c110 0 183 -98 183 -236c0 -139 -73 -235 -183 -235c-53 0 -97 21 -128 59zM489 375c-70 0 -112 -64 -112 -157s42 -158 112 -158s113 65 113 158s-43 157 -113 157z" />
    <glyph glyph-name="Korea1.709" unicode="&#x24d2;" 
d="M457 762c237 0 429 -207 429 -462c0 -256 -192 -462 -429 -462s-429 206 -429 462c0 255 192 462 429 462zM457 708c-208 0 -374 -183 -374 -408c0 -226 166 -408 374 -408s374 182 374 408c0 225 -166 408 -374 408zM559 214h91c-19 -78 -80 -152 -186 -152
c-123 0 -199 106 -199 236s76 237 199 237c107 0 173 -84 186 -153h-90c-7 29 -35 73 -96 73c-69 0 -114 -71 -114 -157c0 -87 45 -157 114 -157c54 0 85 38 95 73z" />
    <glyph glyph-name="Korea1.710" unicode="&#x24d3;" 
d="M457 762c237 0 429 -207 429 -462c0 -256 -192 -462 -429 -462s-429 206 -429 462c0 255 192 462 429 462zM457 708c-208 0 -374 -183 -374 -408c0 -226 166 -408 374 -408s374 182 374 408c0 225 -166 408 -374 408zM539 -1v43c-32 -37 -75 -58 -128 -58
c-111 0 -184 96 -184 235c0 138 73 236 184 236c53 0 96 -21 128 -58v207h82v-605h-82zM426 376c-71 0 -112 -64 -112 -157s41 -158 112 -158c74 0 113 65 113 158s-39 157 -113 157z" />
    <glyph glyph-name="Korea1.711" unicode="&#x24d4;" 
d="M457 762c237 0 429 -207 429 -462c0 -256 -192 -462 -429 -462s-429 206 -429 462c0 255 192 462 429 462zM457 708c-208 0 -374 -183 -374 -408c0 -226 166 -408 374 -408s374 182 374 408c0 225 -166 408 -374 408zM459 536c102 0 196 -83 196 -249v-20h-307
c1 -60 47 -126 111 -126c53 0 80 33 90 54h92c-19 -61 -68 -134 -180 -134c-119 0 -201 106 -201 237c0 130 78 238 199 238zM351 342h214c-6 59 -45 113 -106 113s-100 -47 -108 -113z" />
    <glyph glyph-name="Korea1.712" unicode="&#x24d5;" 
d="M457 762c237 0 429 -207 429 -462c0 -256 -192 -462 -429 -462s-429 206 -429 462c0 255 192 462 429 462zM457 708c-208 0 -374 -183 -374 -408c0 -226 166 -408 374 -408s374 182 374 408c0 225 -166 408 -374 408zM404 -7v363h-49v75h49v50c0 76 33 114 90 114h49v-74
h-14c-38 0 -42 -26 -42 -55v-35h56v-75h-56v-363h-83z" />
    <glyph glyph-name="Korea1.713" unicode="&#x24d6;" 
d="M457 762c237 0 429 -207 429 -462c0 -256 -192 -462 -429 -462s-429 206 -429 462c0 255 192 462 429 462zM457 708c-208 0 -374 -183 -374 -408c0 -226 166 -408 374 -408s374 182 374 408c0 225 -166 408 -374 408zM560 544v43h77v-413c0 -134 -94 -179 -188 -179
c-113 0 -181 68 -185 141h80c3 -33 36 -68 109 -68s109 39 109 109v58c-35 -39 -80 -65 -129 -65c-104 0 -188 98 -188 216c0 120 76 216 187 216c49 0 94 -21 128 -58zM444 526c-69 0 -115 -53 -115 -139c0 -87 46 -140 115 -140c68 0 114 53 114 140
c0 86 -46 139 -114 139z" />
    <glyph glyph-name="Korea1.714" unicode="&#x24d7;" 
d="M457 762c237 0 429 -207 429 -462c0 -256 -192 -462 -429 -462s-429 206 -429 462c0 255 192 462 429 462zM457 708c-208 0 -374 -183 -374 -408c0 -226 166 -408 374 -408s374 182 374 408c0 225 -166 408 -374 408zM282 -4v605h83v-209c27 30 69 61 130 61
c95 0 136 -86 136 -151v-306h-83v267c0 71 -29 104 -82 104c-58 0 -101 -50 -101 -117v-254h-83z" />
    <glyph glyph-name="Korea1.715" unicode="&#x24d8;" 
d="M457 762c237 0 429 -207 429 -462c0 -256 -192 -462 -429 -462s-429 206 -429 462c0 255 192 462 429 462zM457 708c-208 0 -374 -183 -374 -408c0 -226 166 -408 374 -408s374 182 374 408c0 225 -166 408 -374 408zM499 600v-89h-83v89h83zM499 436v-441h-83v441h83z
" />
    <glyph glyph-name="Korea1.716" unicode="&#x24d9;" 
d="M457 762c237 0 429 -207 429 -462c0 -256 -192 -462 -429 -462s-429 206 -429 462c0 255 192 462 429 462zM457 708c-208 0 -374 -183 -374 -408c0 -226 166 -408 374 -408s374 182 374 408c0 225 -166 408 -374 408zM513 494v-440c0 -86 -35 -113 -94 -113h-45v72h12
c36 0 43 22 43 56v425h84zM513 659v-90h-84v90h84z" />
    <glyph glyph-name="Korea1.717" unicode="&#x24da;" 
d="M457 762c237 0 429 -207 429 -462c0 -256 -192 -462 -429 -462s-429 206 -429 462c0 255 192 462 429 462zM457 708c-208 0 -374 -183 -374 -408c0 -226 166 -408 374 -408s374 182 374 408c0 225 -166 408 -374 408zM406 213c-15 -14 -29 -29 -43 -44v-172h-81v606h81
v-330l162 165h99l-161 -166c64 -92 127 -184 191 -275h-93c-52 72 -104 144 -155 216z" />
    <glyph glyph-name="Korea1.718" unicode="&#x24db;" 
d="M457 762c237 0 429 -207 429 -462c0 -256 -192 -462 -429 -462s-429 206 -429 462c0 255 192 462 429 462zM457 708c-208 0 -374 -183 -374 -408c0 -226 166 -408 374 -408s374 182 374 408c0 225 -166 408 -374 408zM415 -3v606h83v-606h-83z" />
    <glyph glyph-name="Korea1.719" unicode="&#x24dc;" 
d="M457 762c237 0 429 -207 429 -462c0 -256 -192 -462 -429 -462s-429 206 -429 462c0 255 192 462 429 462zM457 708c-208 0 -374 -183 -374 -408c0 -226 166 -408 374 -408s374 182 374 408c0 225 -166 408 -374 408zM499 339v-264h-82v276c0 60 -10 99 -61 99
c-49 0 -81 -42 -81 -111v-264h-82v441h82v-48c20 27 52 63 112 63c44 0 79 -22 97 -67c17 22 48 68 120 68c88 0 119 -73 119 -149v-308h-83v276c0 60 -10 99 -59 99c-52 0 -82 -42 -82 -111z" />
    <glyph glyph-name="Korea1.720" unicode="&#x24dd;" 
d="M457 762c237 0 429 -207 429 -462c0 -256 -192 -462 -429 -462s-429 206 -429 462c0 255 192 462 429 462zM457 708c-208 0 -374 -183 -374 -408c0 -226 166 -408 374 -408s374 182 374 408c0 225 -166 408 -374 408zM283 68v441h83v-44c26 29 68 60 128 60
c97 0 138 -85 138 -151v-306h-83v266c0 72 -26 104 -82 104c-58 0 -101 -48 -101 -116v-254h-83z" />
    <glyph glyph-name="Korea1.721" unicode="&#x24de;" 
d="M457 762c237 0 429 -207 429 -462c0 -256 -192 -462 -429 -462s-429 206 -429 462c0 255 192 462 429 462zM457 708c-208 0 -374 -183 -374 -408c0 -226 166 -408 374 -408s374 182 374 408c0 225 -166 408 -374 408zM459 535c121 0 196 -106 196 -237
c0 -130 -75 -236 -196 -236c-124 0 -199 106 -199 236c0 131 75 237 199 237zM459 455c-69 0 -114 -71 -114 -157s45 -157 114 -157c67 0 111 71 111 157s-44 157 -111 157z" />
    <glyph glyph-name="Korea1.722" unicode="&#x24df;" 
d="M457 762c237 0 429 -207 429 -462c0 -256 -192 -462 -429 -462s-429 206 -429 462c0 255 192 462 429 462zM457 708c-208 0 -374 -183 -374 -408c0 -226 166 -408 374 -408s374 182 374 408c0 225 -166 408 -374 408zM368 191v-187h-81v584h81v-44c33 38 77 60 130 60
c109 0 182 -98 182 -236c0 -139 -73 -237 -182 -237c-53 0 -97 22 -130 60zM482 525c-70 0 -114 -66 -114 -157c0 -93 44 -158 114 -158s112 65 112 158c0 91 -42 157 -112 157z" />
    <glyph glyph-name="Korea1.723" unicode="&#x24e0;" 
d="M457 762c237 0 429 -207 429 -462c0 -256 -192 -462 -429 -462s-429 206 -429 462c0 255 192 462 429 462zM457 708c-208 0 -374 -183 -374 -408c0 -226 166 -408 374 -408s374 182 374 408c0 225 -166 408 -374 408zM540 191c-33 -38 -77 -60 -130 -60
c-109 0 -182 98 -182 237c0 138 73 236 182 236c53 0 97 -22 130 -60v44h81v-584h-81v187zM426 525c-70 0 -112 -66 -112 -157c0 -93 42 -158 112 -158s114 65 114 158c0 91 -44 157 -114 157z" />
    <glyph glyph-name="Korea1.724" unicode="&#x24e1;" 
d="M457 762c237 0 429 -207 429 -462c0 -256 -192 -462 -429 -462s-429 206 -429 462c0 255 192 462 429 462zM457 708c-208 0 -374 -183 -374 -408c0 -226 166 -408 374 -408s374 182 374 408c0 225 -166 408 -374 408zM378 60v442h82v-64c18 30 38 49 72 66
c23 11 57 13 60 13v-89c-78 0 -132 -49 -132 -152v-216h-82z" />
    <glyph glyph-name="Korea1.725" unicode="&#x24e2;" 
d="M457 762c237 0 429 -207 429 -462c0 -256 -192 -462 -429 -462s-429 206 -429 462c0 255 192 462 429 462zM457 708c-208 0 -374 -183 -374 -408c0 -226 166 -408 374 -408s374 182 374 408c0 225 -166 408 -374 408zM284 217h79c5 -42 36 -76 98 -76c54 0 83 27 83 60
c0 58 -119 69 -168 90s-78 55 -78 110c0 64 56 134 158 134c107 0 161 -74 161 -138h-80c0 24 -19 60 -80 60c-56 0 -76 -32 -76 -55c0 -87 248 -35 248 -196c0 -80 -74 -143 -163 -143c-141 0 -181 102 -182 154z" />
    <glyph glyph-name="Korea1.726" unicode="&#x24e3;" 
d="M457 762c237 0 429 -207 429 -462c0 -256 -192 -462 -429 -462s-429 206 -429 462c0 255 192 462 429 462zM457 708c-208 0 -374 -183 -374 -408c0 -226 166 -408 374 -408s374 182 374 408c0 225 -166 408 -374 408zM491 380v-237c0 -43 14 -56 56 -56v-75h-50
c-51 0 -89 35 -89 116v252h-50v75h50v133h83v-133h56v-75h-56z" />
    <glyph glyph-name="Korea1.727" unicode="&#x24e4;" 
d="M457 762c237 0 429 -207 429 -462c0 -256 -192 -462 -429 -462s-429 206 -429 462c0 255 192 462 429 462zM457 708c-208 0 -374 -183 -374 -408c0 -226 166 -408 374 -408s374 182 374 408c0 225 -166 408 -374 408zM629 528v-441h-83v47c-22 -32 -67 -63 -126 -63
c-75 0 -136 60 -136 155v302h80v-267c0 -71 28 -104 79 -104c62 0 103 39 103 118v253h83z" />
    <glyph glyph-name="Korea1.728" unicode="&#x24e5;" 
d="M457 762c237 0 429 -207 429 -462c0 -256 -192 -462 -429 -462s-429 206 -429 462c0 255 192 462 429 462zM457 708c-208 0 -374 -183 -374 -408c0 -226 166 -408 374 -408s374 182 374 408c0 225 -166 408 -374 408zM348 492c36 -111 74 -222 111 -333
c37 111 74 222 110 333h88l-150 -438h-96l-152 438h89z" />
    <glyph glyph-name="Korea1.729" unicode="&#x24e6;" 
d="M457 762c237 0 429 -207 429 -462c0 -256 -192 -462 -429 -462s-429 206 -429 462c0 255 192 462 429 462zM457 708c-208 0 -374 -183 -374 -408c0 -226 166 -408 374 -408s374 182 374 408c0 225 -166 408 -374 408zM526 56c-24 96 -47 193 -70 289
c-24 -96 -46 -193 -70 -289h-89l-111 436h83l72 -306l71 306h88c24 -102 48 -204 71 -306c24 102 49 204 72 306h83l-110 -436h-90z" />
    </font>
</defs>
</svg>
