<?xml version="1.0" standalone="no"?>
<!DOCTYPE svg PUBLIC "-//W3C//DTD SVG 1.1//EN" "http://www.w3.org/Graphics/SVG/1.1/DTD/svg11.dtd" >
<svg>
<metadata>
Created by FontForge 20120731 at Wed Apr 26 22:36:03 2023
 By fw_worker
</metadata>
<defs>
<font id="BrandNewHyosungOTFL" horiz-adv-x="910" >
  <font-face 
    font-family="(null)"
    font-weight="200"
    font-stretch="normal"
    units-per-em="1000"
    panose-1="2 0 3 3 0 0 0 0 0 0"
    ascent="800"
    descent="-200"
    x-height="519"
    cap-height="671"
    bbox="-20 -248 934 819"
    underline-thickness="50"
    underline-position="-100"
    stemh="-1"
    stemv="-1"
    unicode-range="U+000A-FFE6"
  />
<missing-glyph horiz-adv-x="900" 
d="M810 -100h-721v800h721v-800zM140 650v-700h619v700h-619z" />
    <glyph glyph-name=".notdef" horiz-adv-x="900" 
d="M810 -100h-721v800h721v-800zM140 650v-700h619v700h-619z" />
    <glyph glyph-name="Korea1.1" unicode=" " horiz-adv-x="280" 
 />
    <glyph glyph-name="Korea1.2" unicode="!" horiz-adv-x="399" 
d="M150 709h99l-10 -528h-77zM251 76v-103l-103 -13v116h103z" />
    <glyph glyph-name="Korea1.3" unicode="&#x22;" horiz-adv-x="491" 
d="M299 769h98l-10 -230h-78zM97 769h97l-10 -230h-77z" />
    <glyph glyph-name="Korea1.4" unicode="#" horiz-adv-x="566" 
d="M229 478l-31 -216h144l33 216h-146zM491 262v-76h-85l-27 -195h-76l28 195h-143l-27 -195h-76l28 195h-75v76h85l31 216h-81v76h93l21 155h76l-23 -155h145l22 155h76l-23 -155h66v-76h-77l-31 -216h73z" />
    <glyph glyph-name="Korea1.5" unicode="$" horiz-adv-x="566" 
d="M328 788v-67c44 -2 106 -10 149 -25l-9 -82c-50 18 -93 27 -140 29v-237c81 -44 167 -98 167 -217c0 -109 -69 -172 -167 -197v-71h-73v60c-14 -1 -28 -2 -41 -2c-55 0 -113 17 -157 30l9 81c28 -7 104 -32 168 -32c6 0 13 0 21 1v276c-85 43 -175 88 -175 202
c0 94 73 161 175 179v72h73zM173 546c0 -46 35 -75 82 -102v190c-43 -12 -82 -39 -82 -88zM400 185c0 51 -29 83 -72 110v-213c39 21 72 54 72 103z" />
    <glyph glyph-name="Korea1.6" unicode="%" horiz-adv-x="930" 
d="M895 177c0 -102 -36 -199 -178 -199c-127 0 -177 103 -177 206s50 199 177 199c142 0 178 -104 178 -206zM798 184c0 53 -6 133 -81 133c-67 0 -81 -90 -81 -140s14 -133 81 -133c75 0 81 87 81 140zM639 721h85l-425 -742h-85zM391 515c0 -102 -37 -200 -179 -200
c-126 0 -176 103 -176 207c0 103 50 199 176 199c142 0 179 -104 179 -206zM294 522c0 52 -6 133 -82 133c-67 0 -80 -90 -80 -140s13 -134 80 -134c76 0 82 88 82 141z" />
    <glyph glyph-name="Korea1.7" unicode="&#x26;" horiz-adv-x="732" 
d="M571 128l128 -137h-115l-69 73c-51 -60 -119 -85 -219 -85c-143 0 -221 85 -221 197c0 115 73 179 163 214c-38 42 -80 98 -80 160c0 114 73 171 183 171c96 0 176 -52 176 -163c0 -86 -93 -157 -169 -186l160 -183c26 37 44 98 50 188h86c-11 -122 -42 -203 -73 -249z
M431 557c0 70 -37 97 -92 97c-53 0 -94 -38 -94 -102c0 -50 35 -95 73 -130c46 21 113 69 113 135zM462 120l-183 217c-58 -40 -107 -78 -107 -153c0 -83 71 -140 149 -140c74 0 121 53 141 76z" />
    <glyph glyph-name="Korea1.8" unicode="'" horiz-adv-x="288" 
d="M95 759h97l-10 -230h-77z" />
    <glyph glyph-name="Korea1.9" unicode="(" horiz-adv-x="343" 
d="M76 311c0 171 77 314 171 448h77c-83 -134 -162 -287 -162 -448c0 -167 81 -316 162 -448h-77c-95 135 -171 267 -171 448z" />
    <glyph glyph-name="Korea1.10" unicode=")" horiz-adv-x="343" 
d="M266 311c0 -181 -76 -313 -171 -448h-77c81 132 162 281 162 448c0 161 -79 314 -162 448h77c94 -134 171 -277 171 -448z" />
    <glyph glyph-name="Korea1.11" unicode="*" horiz-adv-x="510" 
d="M462 623l28 -85l-186 -37l125 -141l-77 -49l-95 159l-95 -159l-77 49l130 141l-192 37l29 85l180 -71l-18 182h92l-15 -182z" />
    <glyph glyph-name="Korea1.12" unicode="+" horiz-adv-x="610" 
d="M558 402v-74h-210v-217h-86v217h-210v74h210v215h86v-215h210z" />
    <glyph glyph-name="Korea1.13" unicode="," horiz-adv-x="288" 
d="M106 90h102l-85 -243h-82z" />
    <glyph glyph-name="Korea1.14" unicode="-" horiz-adv-x="460" 
d="M405 400v-72h-349v72h349z" />
    <glyph glyph-name="Korea1.15" unicode="." horiz-adv-x="288" 
d="M195 70v-111h-103v111h103z" />
    <glyph glyph-name="Korea1.16" unicode="/" horiz-adv-x="460" 
d="M316 731h83l-255 -792h-82z" />
    <glyph glyph-name="Korea1.17" unicode="0" horiz-adv-x="566" 
d="M511 491v-281c0 -131 -86 -233 -228 -233s-228 102 -228 233v281c0 131 86 233 228 233s228 -102 228 -233zM140 468v-235c0 -114 49 -183 143 -183s143 69 143 183v235c0 114 -49 183 -143 183s-143 -69 -143 -183z" />
    <glyph glyph-name="Korea1.18" unicode="1" horiz-adv-x="566" 
d="M369 709v-715l-85 -13v652h-143v76h228z" />
    <glyph glyph-name="Korea1.19" unicode="2" horiz-adv-x="566" 
d="M511 63l-13 -71h-445v103c52 45 82 66 132 110c68 61 214 197 214 317c0 79 -61 123 -148 123h-179v71h185c147 0 236 -76 236 -202c0 -135 -154 -267 -230 -340c-41 -38 -79 -67 -128 -111h376z" />
    <glyph glyph-name="Korea1.20" unicode="3" horiz-adv-x="566" 
d="M503 179c0 -154 -145 -202 -289 -202h-152v71h154c79 0 195 40 195 134c0 113 -105 156 -198 156h-60v71h55c65 0 177 26 177 125c0 85 -65 111 -149 111h-144v71h158c147 0 229 -58 229 -188c0 -79 -67 -142 -152 -156v-2c98 -17 176 -84 176 -191z" />
    <glyph glyph-name="Korea1.21" unicode="4" horiz-adv-x="566" 
d="M365 139h-347v70l300 500h133v-497h99l-13 -73h-86v-145l-86 -13v158zM365 212v421h-2l-246 -421h248z" />
    <glyph glyph-name="Korea1.22" unicode="5" horiz-adv-x="566" 
d="M492 283v-129c0 -115 -87 -176 -259 -176h-158v72h162c105 0 169 43 169 110v104c0 87 -53 121 -143 114c-49 -4 -85 -32 -95 -48h-78l6 379h397l-13 -73h-302l-7 -236c13 21 56 50 106 54c125 10 215 -65 215 -171z" />
    <glyph glyph-name="Korea1.23" unicode="6" horiz-adv-x="566" 
d="M515 270v-117c0 -110 -85 -176 -225 -176c-127 0 -217 66 -217 193v291c0 137 55 248 206 248h210l-12 -74h-191c-96 0 -141 -73 -139 -166l2 -98c32 60 108 76 165 76c116 0 201 -75 201 -177zM429 163v90c0 77 -49 120 -136 120c-65 0 -134 -43 -134 -123v-77
c0 -84 41 -124 129 -124c91 0 141 40 141 114z" />
    <glyph glyph-name="Korea1.24" unicode="7" horiz-adv-x="566" 
d="M501 709v-68l-272 -650h-95l279 647h-349v71h437z" />
    <glyph glyph-name="Korea1.25" unicode="8" horiz-adv-x="566" 
d="M284 725c124 0 214 -81 214 -174v-28c0 -64 -50 -132 -132 -152c93 -18 157 -106 157 -183v-19c0 -114 -102 -193 -239 -193s-239 79 -239 193v19c0 77 64 165 157 183c-82 20 -132 88 -132 152v28c0 93 90 174 214 174zM284 413c80 0 131 45 131 115v11
c0 67 -52 117 -131 117s-131 -50 -131 -117v-11c0 -70 51 -115 131 -115zM284 50c90 0 143 48 143 128v16c0 82 -64 143 -143 143s-143 -61 -143 -143v-16c0 -80 53 -128 143 -128z" />
    <glyph glyph-name="Korea1.26" unicode="9" horiz-adv-x="566" 
d="M60 438v91c0 109 95 191 220 191c133 0 226 -82 226 -199v-309c0 -130 -75 -231 -217 -231h-197v78h189c102 0 141 72 141 145v131c-27 -57 -96 -80 -159 -80c-124 0 -203 87 -203 183zM144 514v-62c0 -76 69 -126 137 -126c72 0 141 48 141 127v62
c0 80 -56 132 -142 132c-83 0 -136 -51 -136 -133z" />
    <glyph glyph-name="Korea1.27" unicode=":" horiz-adv-x="288" 
d="M195 575v-111h-103v111h103zM195 116v-111h-103v111h103z" />
    <glyph glyph-name="Korea1.28" unicode=";" horiz-adv-x="288" 
d="M195 575v-111h-103v111h103zM104 134h101l-85 -243h-82z" />
    <glyph glyph-name="Korea1.29" unicode="&#x3c;" horiz-adv-x="550" 
d="M485 140v-99l-422 287v72l422 287v-99l-347 -224z" />
    <glyph glyph-name="Korea1.30" unicode="=" horiz-adv-x="550" 
d="M489 517v-75h-425v75h425zM489 289v-76h-425v76h425z" />
    <glyph glyph-name="Korea1.31" unicode="&#x3e;" horiz-adv-x="550" 
d="M479 400v-72l-422 -287v99l346 224l-346 224v99z" />
    <glyph glyph-name="Korea1.32" unicode="?" horiz-adv-x="510" 
d="M460 538c0 -89 -55 -144 -109 -204c-33 -37 -49 -76 -49 -113v-39h-86v44c0 60 17 91 60 141c36 43 91 97 91 167c0 72 -60 105 -127 105c-69 0 -131 -22 -168 -45l-9 86c37 19 110 41 179 41c109 0 218 -68 218 -183zM311 76v-106l-104 -14v120h104z" />
    <glyph glyph-name="Korea1.33" unicode="@" horiz-adv-x="810" 
d="M763 423c0 -184 -156 -278 -239 -278c-31 0 -58 20 -61 57h-2c-30 -28 -73 -57 -116 -57c-85 0 -149 75 -149 158c0 122 85 255 224 255c48 0 87 -18 118 -67l16 54h73l-74 -259c-4 -15 -8 -32 -8 -45c1 -17 4 -29 20 -29c62 0 130 98 130 191c0 153 -114 257 -277 257
c-174 0 -291 -130 -291 -303c0 -204 134 -297 316 -297c88 0 171 43 218 100h74c-63 -97 -177 -161 -298 -161c-225 0 -386 137 -386 361c0 226 172 361 369 361c188 0 343 -132 343 -298zM506 397c0 48 -37 85 -81 85c-86 0 -145 -94 -145 -167c0 -55 33 -95 87 -95
c80 0 139 104 139 177z" />
    <glyph glyph-name="Korea1.34" unicode="A" horiz-adv-x="732" 
d="M415 709l307 -718h-97l-81 200h-358l-82 -200h-91l312 718h90zM216 261h298l-147 370z" />
    <glyph glyph-name="Korea1.35" unicode="B" horiz-adv-x="621" 
d="M579 184c0 -126 -97 -193 -290 -193h-191v718h182c174 0 253 -68 253 -178c0 -83 -40 -139 -133 -164v-2c92 -5 179 -72 179 -181zM447 523c0 83 -64 115 -142 115h-121v-236h82c74 0 181 10 181 121zM483 191c0 115 -96 137 -191 137h-108v-266h103
c103 0 196 30 196 129z" />
    <glyph glyph-name="Korea1.36" unicode="C" horiz-adv-x="621" 
d="M577 -22h-201c-200 0 -310 99 -310 283v160c0 176 107 283 307 283h190v-79h-195c-134 0 -211 -79 -211 -219v-129c0 -142 75 -220 209 -220h231z" />
    <glyph glyph-name="Korea1.37" unicode="D" horiz-adv-x="732" 
d="M672 356c0 -249 -116 -365 -332 -365h-243v718h243c200 0 332 -126 332 -353zM580 356c0 203 -105 274 -235 274h-162v-560h145c164 0 252 69 252 286z" />
    <glyph glyph-name="Korea1.38" unicode="E" horiz-adv-x="566" 
d="M496 709v-79h-311v-227h287v-79h-287v-254h316l-13 -79h-389v718h397z" />
    <glyph glyph-name="Korea1.39" unicode="F" horiz-adv-x="510" 
d="M475 709v-79h-290v-227h277v-79h-277v-325l-86 -13v723h376z" />
    <glyph glyph-name="Korea1.40" unicode="G" horiz-adv-x="649" 
d="M366 58h151v247h-124v71h212v-383l-88 -14h-141c-201 0 -310 99 -310 282v170c0 176 112 282 302 282h195l-13 -79h-182c-138 0 -211 -78 -211 -218v-139c0 -140 73 -219 209 -219z" />
    <glyph glyph-name="Korea1.41" unicode="H" horiz-adv-x="732" 
d="M637 717v-718l-85 -13v338h-369v-325l-85 -13v718l85 13v-314h369v301z" />
    <glyph glyph-name="Korea1.42" unicode="I" horiz-adv-x="306" 
d="M196 717v-718l-86 -13v718z" />
    <glyph glyph-name="Korea1.43" unicode="J" horiz-adv-x="399" 
d="M297 717v-540c0 -108 -45 -198 -195 -198h-80v74h71c89 0 118 51 118 142v509z" />
    <glyph glyph-name="Korea1.44" unicode="K" horiz-adv-x="677" 
d="M324 393l330 -402h-123l-265 341l-83 -84v-251l-85 -13v720l85 13v-353l332 345h119z" />
    <glyph glyph-name="Korea1.45" unicode="L" horiz-adv-x="510" 
d="M504 70l-13 -79h-392v713l86 13v-647h319z" />
    <glyph glyph-name="Korea1.46" unicode="M" horiz-adv-x="914" 
d="M828 709v-713l-88 -13v631h-2l-229 -613l-94 -13l-234 626h-2v-618l-88 -13v726h145l224 -605h5l218 605h145z" />
    <glyph glyph-name="Korea1.47" unicode="N" horiz-adv-x="746" 
d="M651 717v-726h-134l-332 627h-2v-622l-85 -13v726h134l331 -627h2v622z" />
    <glyph glyph-name="Korea1.48" unicode="O" horiz-adv-x="640" 
d="M583 491v-281c0 -131 -99 -233 -263 -233s-263 102 -263 233v281c0 131 99 233 263 233s263 -102 263 -233zM142 468v-235c0 -114 61 -183 178 -183s178 69 178 183v235c0 114 -61 183 -178 183s-178 -69 -178 -183z" />
    <glyph glyph-name="Korea1.49" unicode="P" horiz-adv-x="618" 
d="M583 501c0 -147 -120 -205 -247 -205h-152v-297l-86 -13v723h226c144 0 259 -57 259 -208zM489 505c0 89 -69 125 -166 125h-139v-255h159c68 0 146 34 146 130z" />
    <glyph glyph-name="Korea1.50" unicode="Q" horiz-adv-x="704" 
d="M583 491v-281c0 -62 -22 -117 -63 -158l116 -149h-115l-72 99c-36 -16 -80 -25 -129 -25c-164 0 -263 102 -263 233v281c0 131 99 233 263 233s263 -102 263 -233zM142 468v-235c0 -114 61 -183 178 -183c32 0 60 5 84 15l-130 182h95l99 -128c20 29 30 68 30 114v235
c0 114 -61 183 -178 183s-178 -69 -178 -183z" />
    <glyph glyph-name="Korea1.51" unicode="R" horiz-adv-x="621" 
d="M470 250l132 -259h-101l-116 246c-27 57 -87 68 -116 68h-85v-306l-86 -13v723h181c131 0 268 -33 268 -197c0 -86 -71 -156 -163 -173v-2c40 -15 61 -38 86 -87zM455 510c0 67 -38 119 -141 119h-130v-245h90c111 0 181 59 181 126z" />
    <glyph glyph-name="Korea1.52" unicode="S" horiz-adv-x="587" 
d="M249 385h104c101 0 184 -80 184 -191c0 -140 -90 -218 -250 -218h-224v78h214c115 0 174 45 174 133c0 73 -39 120 -114 120h-107c-102 0 -180 81 -180 188c0 145 86 211 229 211h208l-15 -77h-181c-91 0 -154 -36 -154 -127c0 -74 39 -117 112 -117z" />
    <glyph glyph-name="Korea1.53" unicode="T" horiz-adv-x="566" 
d="M558 709l-13 -78h-219v-633l-86 -13v646h-223v78h541z" />
    <glyph glyph-name="Korea1.54" unicode="U" horiz-adv-x="732" 
d="M640 717v-422c0 -200 -99 -316 -272 -316c-174 0 -273 116 -273 316v409l85 13v-421c0 -140 45 -238 188 -238c142 0 187 98 187 238v408z" />
    <glyph glyph-name="Korea1.55" unicode="V" horiz-adv-x="677" 
d="M564 709h93l-266 -718h-109l-260 718h99l216 -651z" />
    <glyph glyph-name="Korea1.56" unicode="W" horiz-adv-x="950" 
d="M837 709h97l-194 -718h-111l-149 651h-2l-149 -651h-121l-187 718h98l146 -631h2l148 631h126l150 -631h2z" />
    <glyph glyph-name="Korea1.57" unicode="X" horiz-adv-x="677" 
d="M401 367l261 -376h-117l-214 316l-202 -316h-111l259 373l-235 345h117l183 -286l186 286h108z" />
    <glyph glyph-name="Korea1.58" unicode="Y" horiz-adv-x="677" 
d="M548 709h109l-271 -400v-310l-90 -13v323l-271 400h104l211 -322z" />
    <glyph glyph-name="Korea1.59" unicode="Z" horiz-adv-x="566" 
d="M534 70l-13 -79h-479v80l364 559h-350v79h453v-80l-361 -559h386z" />
    <glyph glyph-name="Korea1.60" unicode="[" horiz-adv-x="343" 
d="M287 -80v-59h-181v896h181v-59h-106v-778h106z" />
    <glyph glyph-name="Korea1.61" unicode="\" horiz-adv-x="460" 
d="M143 723l255 -792h-83l-254 792h82z" />
    <glyph glyph-name="Korea1.62" unicode="]" horiz-adv-x="343" 
d="M236 757v-896h-180v59h106v778h-106v59h180z" />
    <glyph glyph-name="Korea1.63" unicode="^" horiz-adv-x="510" 
d="M296 745l170 -265h-95l-116 199l-115 -199h-95l170 265h81z" />
    <glyph glyph-name="Korea1.64" unicode="_" horiz-adv-x="460" 
d="M462 -130v-70h-464v70h464z" />
    <glyph glyph-name="Korea1.65" unicode="`" horiz-adv-x="288" 
d="M157 752l90 -161h-69l-133 161h112z" />
    <glyph glyph-name="Korea1.66" unicode="a" horiz-adv-x="602" 
d="M459 92c-26 -69 -103 -109 -201 -109c-105 0 -203 73 -203 196v145c0 123 97 196 203 196c93 0 163 -37 198 -105v96l81 13v-527l-78 -12v107zM455 227v78c0 70 -69 141 -170 144c-78 2 -145 -47 -145 -130v-136c0 -83 66 -131 142 -130c120 2 173 87 173 174z" />
    <glyph glyph-name="Korea1.67" unicode="b" horiz-adv-x="611" 
d="M152 82v-89l-77 -13v743l81 13v-311c35 68 104 105 197 105c106 0 203 -73 203 -196v-165c0 -123 -98 -196 -203 -196c-98 0 -177 43 -201 109zM157 217c0 -87 52 -172 172 -174c76 -1 142 47 142 130v156c0 83 -67 132 -145 130c-101 -3 -169 -74 -169 -144v-98z" />
    <glyph glyph-name="Korea1.68" unicode="c" horiz-adv-x="484" 
d="M65 180v163c0 106 74 191 214 191h151v-70h-145c-83 0 -138 -51 -138 -136v-135c0 -85 57 -134 137 -134h165l-13 -70h-158c-140 0 -213 75 -213 191z" />
    <glyph glyph-name="Korea1.69" unicode="d" horiz-adv-x="621" 
d="M463 82c-27 -65 -103 -109 -201 -109c-105 0 -203 73 -203 196v165c0 123 97 196 203 196c93 0 162 -37 197 -105v298l81 13v-743l-77 -13v102zM458 217v98c0 70 -68 141 -169 144c-78 2 -145 -47 -145 -130v-156c0 -83 66 -131 142 -130c120 2 172 87 172 174z" />
    <glyph glyph-name="Korea1.70" unicode="e" horiz-adv-x="566" 
d="M511 222h-375v-48c0 -86 50 -124 163 -124h180l-13 -72h-173c-156 0 -238 73 -238 201v135c0 123 97 217 236 217c135 0 220 -89 220 -211v-98zM136 305v-15h296v32c0 90 -51 143 -141 143c-98 0 -155 -59 -155 -160z" />
    <glyph glyph-name="Korea1.71" unicode="f" horiz-adv-x="399" 
d="M30 501h113v35c0 164 43 217 183 217h49v-65h-40c-88 0 -112 -39 -112 -137v-50h151l-13 -67h-138v-435l-80 -13v448h-113v67z" />
    <glyph glyph-name="Korea1.72" unicode="g" horiz-adv-x="621" 
d="M460 128c-27 -73 -103 -119 -201 -119c-105 0 -203 73 -203 196v129c0 123 97 196 203 196c93 0 165 -37 200 -105v91l81 13v-493c0 -158 -88 -225 -258 -225h-191v67h213c93 0 156 52 156 171v79zM455 253v62c0 70 -68 141 -169 144c-78 2 -145 -47 -145 -130v-120
c0 -83 66 -131 142 -130c120 2 172 87 172 174z" />
    <glyph glyph-name="Korea1.73" unicode="h" horiz-adv-x="621" 
d="M539 305v-307l-79 -13v281c0 141 -38 193 -121 195c-115 3 -175 -78 -175 -225v-238l-80 -13v739l80 13v-292h2c35 55 97 86 169 86c137 0 204 -80 204 -226z" />
    <glyph glyph-name="Korea1.74" unicode="i" horiz-adv-x="277" 
d="M187 738v-107h-97v107h97zM179 519v-520l-81 -13v533h81z" />
    <glyph glyph-name="Korea1.75" unicode="j" horiz-adv-x="288" 
d="M192 738v-107h-97v107h97zM184 519v-496c0 -104 3 -212 -127 -212h-54v72h41c44 0 59 43 59 113v523h81z" />
    <glyph glyph-name="Korea1.76" unicode="k" horiz-adv-x="566" 
d="M512 519l-214 -213l237 -315h-115l-178 259l-78 -78v-173l-80 -13v738l80 13v-463l230 245h118z" />
    <glyph glyph-name="Korea1.77" unicode="l" horiz-adv-x="291" 
d="M186 737v-738l-81 -13v738z" />
    <glyph glyph-name="Korea1.78" unicode="m" horiz-adv-x="873" 
d="M808 340v-341l-80 -13v328c0 69 -22 152 -99 152c-102 0 -152 -89 -152 -195v-272l-81 -13v328c0 69 -21 152 -100 152c-101 0 -151 -89 -151 -195v-272l-80 -13v528l77 13v-83c35 59 83 89 171 89c55 0 119 -32 146 -104c37 79 121 104 162 104c135 0 187 -83 187 -193z
" />
    <glyph glyph-name="Korea1.79" unicode="n" horiz-adv-x="585" 
d="M520 305v-306l-79 -13v285c0 141 -38 192 -121 195c-115 4 -175 -78 -175 -225v-242l-80 -13v533h79v-85h2c25 56 98 97 170 97c141 0 204 -80 204 -226z" />
    <glyph glyph-name="Korea1.80" unicode="o" horiz-adv-x="583" 
d="M523 327v-154c0 -117 -91 -196 -232 -196s-231 79 -231 196v154c0 117 90 201 231 201s232 -84 232 -201zM442 186v129c0 85 -55 144 -151 144s-150 -59 -150 -144v-129c0 -85 54 -140 150 -140s151 55 151 140z" />
    <glyph glyph-name="Korea1.81" unicode="p" horiz-adv-x="621" 
d="M164 72v-254l-81 -13v707l77 13v-100c35 68 105 105 199 105c107 0 205 -73 205 -196v-165c0 -123 -97 -196 -200 -196c-98 0 -172 40 -200 99zM165 217c0 -87 52 -172 172 -174c76 -1 142 47 142 130v156c0 83 -67 132 -145 130c-101 -3 -169 -74 -169 -144v-98z" />
    <glyph glyph-name="Korea1.82" unicode="q" horiz-adv-x="621" 
d="M459 72c-24 -61 -102 -99 -199 -99c-104 0 -201 73 -201 196v165c0 123 98 196 206 196c94 0 164 -37 199 -105v90l76 13v-710l-81 -13v267zM458 217v98c0 70 -68 141 -169 144c-78 2 -145 -47 -145 -130v-156c0 -83 66 -131 142 -130c120 2 172 87 172 174z" />
    <glyph glyph-name="Korea1.83" unicode="r" horiz-adv-x="369" 
d="M342 531v-72h-12c-84 0 -174 -57 -174 -207v-258l-81 -13v534l79 13v-93h2c23 56 95 96 175 96h11z" />
    <glyph glyph-name="Korea1.84" unicode="s" horiz-adv-x="474" 
d="M213 293h86c76 0 145 -65 145 -151c0 -110 -82 -166 -189 -166h-221v73h195c83 0 134 28 134 89c0 58 -33 85 -96 85h-96c-77 0 -141 69 -141 148c0 106 68 157 174 157h197l-14 -72h-162c-74 0 -115 -22 -115 -81c0 -56 39 -82 103 -82z" />
    <glyph glyph-name="Korea1.85" unicode="t" horiz-adv-x="399" 
d="M37 513h96v123l80 18v-141h149l-13 -67h-136v-306c0 -65 35 -93 76 -93h88l-12 -69h-73c-97 0 -159 38 -159 140v328h-96v67z" />
    <glyph glyph-name="Korea1.86" unicode="u" horiz-adv-x="585" 
d="M520 527v-524l-78 -13v86h-2c-25 -61 -98 -97 -171 -97c-141 0 -204 80 -204 226v309l80 13v-288c0 -141 37 -192 120 -195c115 -4 176 78 176 225v245z" />
    <glyph glyph-name="Korea1.87" unicode="v" horiz-adv-x="566" 
d="M462 519h82l-208 -528h-100l-211 528h90l172 -452h2z" />
    <glyph glyph-name="Korea1.88" unicode="w" horiz-adv-x="879" 
d="M787 519h79l-178 -528h-95l-154 460h-2l-149 -460h-95l-174 528h91l130 -458h2l154 458h96l148 -458h2z" />
    <glyph glyph-name="Korea1.89" unicode="x" horiz-adv-x="566" 
d="M330 265l208 -274h-102l-155 215l-156 -215h-97l211 274l-184 254h104l127 -199l136 199h92z" />
    <glyph glyph-name="Korea1.90" unicode="y" horiz-adv-x="566" 
d="M462 519h81l-214 -494c-41 -96 -78 -215 -205 -215h-79v64h71c71 0 104 61 128 141l-18 51l-197 453h88l169 -417h2z" />
    <glyph glyph-name="Korea1.91" unicode="z" horiz-adv-x="510" 
d="M476 76l-13 -65h-418v68l306 375h-290v65h392v-64l-306 -379h329z" />
    <glyph glyph-name="Korea1.92" unicode="{" horiz-adv-x="343" 
d="M319 -53v-66h-82c-38 0 -102 43 -102 122v177c0 65 -47 107 -90 107v64c43 0 90 43 90 103v181c0 79 63 122 102 122h82v-66h-57c-42 0 -52 -43 -52 -77v-174c0 -86 -68 -115 -87 -120v-2c19 -3 87 -28 87 -121v-173c0 -33 10 -77 52 -77h57z" />
    <glyph glyph-name="Korea1.93" unicode="|" horiz-adv-x="310" 
d="M198 756v-875h-85v875h85z" />
    <glyph glyph-name="Korea1.94" unicode="}" horiz-adv-x="343" 
d="M297 351v-64c-43 0 -90 -42 -90 -100v-184c0 -79 -64 -122 -102 -122h-82v66h58c41 0 51 44 51 77v177c0 80 68 112 87 117v2c-19 3 -87 26 -87 124v170c0 34 -10 77 -51 77h-58v66h82c38 0 102 -43 102 -122v-174c0 -67 47 -110 90 -110z" />
    <glyph glyph-name="Korea1.95" unicode="~" horiz-adv-x="566" 
d="M506 432l35 -43c-16 -51 -57 -103 -141 -103c-32 0 -79 13 -123 29s-89 38 -113 38c-41 0 -73 -32 -99 -74l-38 43c28 49 62 104 140 104c29 0 75 -12 123 -30c42 -15 88 -37 114 -37c47 0 81 36 102 73z" />
    <glyph glyph-name="Korea1.96" unicode="&#x20a9;" 
d="M908 406h-92l-108 -425h-111l-91 425h-99l-90 -425h-121l-104 425h-90v66h74l-56 227h97l49 -227h177l50 227h126l50 -227h177l49 227h96l-58 -227h75v-66zM329 406h-148l71 -341h3zM732 406h-149l76 -341h2zM421 472h71l-34 160h-2z" />
    <glyph glyph-name="Korea1.97" unicode="&#x2010;" 
 />
    <glyph glyph-name="Korea1.98" unicode="&#xa9;" 
d="M455 -72c-212 0 -382 151 -382 381c0 228 170 381 382 381s382 -153 382 -381c0 -230 -170 -381 -382 -381zM455 -20c182 0 312 144 312 329c0 184 -130 328 -312 328s-312 -144 -312 -328c0 -185 130 -329 312 -329zM553 182h80c-3 -62 -86 -117 -162 -117
c-141 0 -215 95 -215 250c0 153 74 247 214 247c84 0 164 -65 164 -120h-81c-6 30 -40 66 -95 66c-83 0 -123 -72 -123 -193c0 -117 41 -196 127 -196c45 0 82 27 91 63z" />
    <glyph glyph-name="Korea1.99" 
 />
    <glyph glyph-name="Korea1.100" 
 />
    <glyph glyph-name="Korea1.101" unicode="&#x3000;" 
 />
    <glyph glyph-name="Korea1.102" unicode="&#x3001;" 
d="M130 -103c-2 54 -34 100 -89 138c-9 7 -18 21 -9 29c6 6 24 3 48 -10c56 -32 103 -71 131 -117c17 -28 22 -84 -19 -100c-35 -15 -60 18 -62 60z" />
    <glyph glyph-name="Korea1.103" unicode="&#x3002;" 
d="M151 70c65 0 117 -50 117 -113s-52 -113 -117 -113c-64 0 -116 50 -116 113s52 113 116 113zM151 -108c36 0 65 30 65 65s-29 65 -65 65c-35 0 -64 -30 -64 -65s29 -65 64 -65z" />
    <glyph glyph-name="Korea1.104" unicode="&#x30fb;" 
 />
    <glyph glyph-name="Korea1.105" unicode="&#x2025;" 
d="M752 323c0 -40 -29 -69 -72 -69c-40 0 -68 30 -68 69c0 41 28 69 72 69c39 0 68 -30 68 -69zM303 323c0 -40 -28 -69 -72 -69c-39 0 -68 30 -68 69c0 41 29 69 72 69c40 0 68 -30 68 -69z" />
    <glyph glyph-name="Korea1.106" unicode="&#x2026;" 
d="M524 323c0 -40 -30 -69 -73 -69c-39 0 -68 30 -68 69c0 41 29 69 73 69c38 0 68 -30 68 -69zM230 323c0 -40 -28 -69 -72 -69c-38 0 -68 30 -68 69c0 41 30 69 73 69c39 0 67 -30 67 -69zM821 323c0 -40 -30 -69 -73 -69c-39 0 -67 30 -67 69c0 41 28 69 72 69
c38 0 68 -30 68 -69z" />
    <glyph glyph-name="Korea1.107" unicode="&#xa8;" horiz-adv-x="450" 
d="M124 689c-32 0 -56 23 -56 54s24 55 56 55s56 -24 56 -55s-24 -54 -56 -54zM326 689c-32 0 -56 23 -56 54s24 55 56 55s56 -24 56 -55s-24 -54 -56 -54z" />
    <glyph glyph-name="Korea1.108" unicode="&#x3003;" 
d="M597 405l-143 -202c-8 -12 -19 -22 -29 -17c-9 3 -13 13 -5 32l89 211c8 18 27 39 59 35c37 -4 41 -42 29 -59zM472 418l-142 -202c-8 -13 -19 -22 -31 -18c-8 3 -12 14 -3 33l89 210c6 19 24 39 58 36c38 -4 40 -43 29 -59z" />
    <glyph glyph-name="Korea1.109" unicode="&#x2013;" 
 />
    <glyph glyph-name="Korea1.110" unicode="&#x2014;" 
 />
    <glyph glyph-name="Korea1.111" unicode="&#x2016;" 
 />
    <glyph glyph-name="Korea1.112" unicode="&#xff3c;" 
d="M368 723l255 -792h-83l-254 792h82z" />
    <glyph glyph-name="Korea1.113" unicode="&#xff5e;" 
d="M678 432l35 -43c-16 -51 -57 -103 -141 -103c-32 0 -79 13 -123 29s-89 38 -113 38c-41 0 -73 -32 -99 -74l-38 43c28 49 62 104 140 104c29 0 75 -12 123 -30c42 -15 88 -37 114 -37c47 0 81 36 102 73z" />
    <glyph glyph-name="Korea1.114" unicode="&#x2018;" horiz-adv-x="310" 
d="M118 620c0 81 53 148 110 176l19 -21c-27 -17 -59 -52 -67 -82c-6 -23 -2 -34 12 -34c9 0 25 -2 34 -7c15 -8 31 -27 31 -53c0 -40 -31 -65 -65 -65c-44 0 -74 39 -74 86z" />
    <glyph glyph-name="Korea1.115" unicode="&#x2019;" horiz-adv-x="310" 
d="M191 680c0 -81 -53 -148 -110 -176l-19 21c27 17 59 52 67 82c6 23 2 34 -12 34c-9 0 -25 2 -34 7c-15 8 -31 27 -31 53c0 40 31 65 65 65c44 0 74 -39 74 -86z" />
    <glyph glyph-name="Korea1.116" unicode="&#x201c;" horiz-adv-x="460" 
d="M276 620c0 81 52 148 110 176l20 -21c-28 -17 -60 -52 -68 -82c-7 -23 -2 -34 12 -34c10 0 25 -2 34 -7c16 -8 31 -27 31 -53c0 -40 -31 -65 -65 -65c-43 0 -74 39 -74 86zM101 620c0 81 52 148 110 176l19 -21c-27 -17 -59 -52 -67 -82c-6 -23 -2 -34 12 -34
c10 0 25 -2 34 -7c15 -8 31 -27 31 -53c0 -40 -31 -65 -65 -65c-43 0 -74 39 -74 86z" />
    <glyph glyph-name="Korea1.117" unicode="&#x201d;" horiz-adv-x="460" 
d="M185 680c0 -81 -53 -148 -110 -176l-20 21c28 17 59 52 67 82c7 23 2 34 -12 34c-9 0 -24 2 -33 7c-16 8 -32 27 -32 53c0 40 32 65 65 65c43 0 75 -39 75 -86zM360 680c0 -81 -53 -148 -111 -176l-19 21c28 17 60 52 68 82c6 23 2 34 -12 34c-10 0 -25 2 -35 7
c-15 8 -31 27 -31 53c0 40 31 65 66 65c42 0 74 -39 74 -86z" />
    <glyph glyph-name="Korea1.118" unicode="&#x3014;" 
d="M875 -164l-334 98v743l334 86v-85l-247 -65v-616l247 -71v-90z" />
    <glyph glyph-name="Korea1.119" unicode="&#x3015;" 
d="M379 -66l-334 -98v90l247 71v616l-247 65v85l334 -86v-743z" />
    <glyph glyph-name="Korea1.120" unicode="&#x3008;" 
d="M878 727l-246 -427l244 -423l-57 -35l-262 458l262 460z" />
    <glyph glyph-name="Korea1.121" unicode="&#x3009;" 
d="M41 -123l244 423l-246 427l59 33l262 -460l-262 -458z" />
    <glyph glyph-name="Korea1.122" unicode="&#x300a;" 
d="M880 -152h-51l-241 447l241 452h51l-241 -452zM771 -152h-51l-241 447l241 452h51l-241 -452z" />
    <glyph glyph-name="Korea1.123" unicode="&#x300b;" 
d="M431 295l-240 -447h-51l242 447l-242 452h51zM324 295l-241 -447h-51l242 447l-242 452h51z" />
    <glyph glyph-name="Korea1.124" unicode="&#x300c;" 
d="M877 780v-50h-257v-390h-51v440h308z" />
    <glyph glyph-name="Korea1.125" unicode="&#x300d;" 
d="M346 260v-440h-309v50h258v390h51z" />
    <glyph glyph-name="Korea1.126" unicode="&#x300e;" 
d="M870 674h-196v-330h-105v432h301v-102zM602 744v-368h38v330h196v38h-234z" />
    <glyph glyph-name="Korea1.127" unicode="&#x300f;" 
d="M240 256h105v-432h-301v102h196v330zM274 224v-330h-196v-38h233v368h-37z" />
    <glyph glyph-name="Korea1.128" unicode="&#x3010;" 
d="M890 -180h-342v959h341c-162 -101 -268 -279 -268 -479c0 -201 106 -378 269 -480z" />
    <glyph glyph-name="Korea1.129" unicode="&#x3011;" 
d="M376 780v-959h-340c162 102 269 279 269 480c0 200 -107 378 -268 479h339z" />
    <glyph glyph-name="Korea1.130" unicode="&#xb1;" horiz-adv-x="600" 
d="M550 54v-70h-500v70h500zM548 419v-74h-200v-207h-86v207h-200v74h200v205h86v-205h200z" />
    <glyph glyph-name="Korea1.131" unicode="&#xd7;" horiz-adv-x="600" 
d="M354 358l193 -189l-52 -60l-196 195l-184 -186l-57 53l190 185l-185 183l57 56l179 -184l179 179l55 -51z" />
    <glyph glyph-name="Korea1.132" unicode="&#xf7;" horiz-adv-x="600" 
d="M299 627c40 0 69 -33 69 -70s-31 -66 -67 -66c-39 0 -70 27 -70 66c0 37 30 70 68 70zM580 379v-74h-560v74h560zM231 125c0 37 30 68 68 68c40 0 70 -31 70 -68c0 -36 -33 -68 -68 -68c-38 0 -70 27 -70 68z" />
    <glyph glyph-name="Korea1.133" unicode="&#x2260;" 
d="M533 460l138 172l55 -44l-103 -128h170v-64h-221l-129 -162h350v-64h-402l-158 -197l-56 43l123 154h-171v64h223l130 162h-353v64h404z" />
    <glyph glyph-name="Korea1.134" unicode="&#x2264;" 
d="M324 430l415 -215l-35 -63l-525 262c-3 1 -25 13 -25 15s22 13 25 15l512 259l31 -64zM769 66v-69h-624v69h624z" />
    <glyph glyph-name="Korea1.135" unicode="&#x2265;" 
d="M221 703l512 -259c3 -2 25 -13 25 -15s-22 -14 -25 -15l-524 -262l-36 63l414 215l-397 209zM769 66v-69h-625v69h625z" />
    <glyph glyph-name="Korea1.136" unicode="&#x221e;" 
d="M643 481c106 0 191 -81 191 -181s-85 -181 -191 -181s-166 88 -186 122c-18 -34 -78 -122 -186 -122c-105 0 -191 81 -191 181s86 181 191 181c108 0 168 -88 186 -122c20 34 80 122 186 122zM271 176c94 0 138 106 145 124c-7 18 -51 124 -145 124
c-72 0 -130 -55 -130 -124s58 -124 130 -124zM643 424c-94 0 -138 -106 -145 -124c7 -18 51 -124 145 -124c72 0 131 55 131 124s-59 124 -131 124z" />
    <glyph glyph-name="Korea1.137" unicode="&#x2234;" 
d="M460 591c40 0 74 -32 74 -71s-34 -70 -73 -70c-41 0 -74 31 -74 70s32 71 73 71zM733 155c42 0 75 -32 75 -71s-32 -70 -74 -70c-39 0 -72 31 -72 70s33 71 71 71zM248 83h1c0 -39 -33 -70 -72 -70c-41 0 -75 31 -75 70s33 71 74 71c39 0 72 -32 72 -71z" />
    <glyph glyph-name="Korea1.138" unicode="&#xb0;" horiz-adv-x="450" 
d="M339 712c0 -62 -48 -107 -114 -107s-114 45 -114 107s48 107 114 107s114 -45 114 -107zM285 712c0 30 -26 57 -60 57s-60 -27 -60 -57s26 -57 60 -57s60 27 60 57z" />
    <glyph glyph-name="Korea1.139" unicode="&#x2032;" 
d="M274 765c62 -36 -39 -127 -94 -200c-14 -19 -40 -6 -30 17l64 157c9 23 39 38 60 26z" />
    <glyph glyph-name="Korea1.140" unicode="&#x2033;" 
d="M365 683l-115 -141c-15 -19 -39 -5 -31 16l70 166c10 24 42 38 62 25c25 -14 30 -47 14 -66zM224 702l-110 -141c-14 -19 -40 -5 -32 16l69 166c11 24 42 39 64 25c24 -13 26 -46 9 -66z" />
    <glyph glyph-name="Korea1.141" unicode="&#x2103;" 
d="M249 253c0 212 115 361 297 361c172 0 260 -138 276 -219h-83c-18 64 -74 147 -193 147c-129 0 -214 -118 -214 -289c0 -173 85 -291 214 -291c115 0 176 85 194 156h82c-20 -91 -104 -228 -276 -228c-182 0 -297 148 -297 363zM158 730c64 0 119 -52 119 -115
s-55 -115 -119 -115c-66 0 -120 52 -120 115s54 115 120 115zM158 550c38 0 67 27 67 65s-29 65 -67 65c-39 0 -68 -27 -68 -65s29 -65 68 -65z" />
    <glyph glyph-name="Korea1.142" unicode="&#x212b;" 
d="M337 665c0 63 53 115 117 115c65 0 120 -52 120 -115s-55 -115 -120 -115c-64 0 -117 52 -117 115zM492 524l254 -619h-77l-66 160h-297l-66 -160h-76l253 619h75zM520 665c0 36 -28 63 -66 63c-37 0 -64 -27 -64 -63s27 -63 64 -63c38 0 66 27 66 63zM333 130h244
l-123 303z" />
    <glyph glyph-name="Korea1.143" unicode="&#xffe0;" 
d="M268 44h-3l-53 -57l-55 -64l-52 46l116 132c-40 69 -56 150 -56 218c0 207 120 343 298 339c84 -2 146 -27 189 -64c12 10 77 87 98 110l59 -48l-109 -123c18 -35 25 -71 27 -114h-70c-2 20 -6 34 -11 52c-49 -53 -285 -317 -338 -367c37 -35 74 -53 118 -57
c67 -6 126 8 170 46c34 31 54 79 60 142h71c-14 -90 -27 -123 -60 -163c-50 -61 -130 -94 -223 -93c-75 0 -133 26 -176 65zM436 346l155 175l9 12c-31 35 -72 55 -118 58c-178 15 -244 -133 -245 -277c0 -54 10 -108 32 -156c18 17 92 103 167 188z" />
    <glyph glyph-name="Korea1.144" unicode="&#xffe1;" 
d="M714 128l81 -10c-43 -132 -119 -201 -225 -201c-56 0 -103 16 -171 66c-47 -46 -88 -65 -139 -65c-75 0 -134 44 -134 104c0 57 48 96 118 96c43 0 77 -13 132 -47c9 30 13 47 13 74c0 50 -10 88 -33 140h-202v56h174c-44 82 -53 110 -53 160c0 119 82 195 209 195
c76 0 143 -31 186 -86c27 -32 37 -60 48 -120c-25 -4 -47 -9 -71 -13c-27 110 -77 159 -164 159c-84 0 -135 -49 -135 -129c0 -48 27 -98 52 -142l15 -24h253v-56h-231c20 -59 24 -91 24 -125c0 -38 -9 -74 -29 -126c56 -34 91 -47 141 -47c67 0 104 35 141 141zM350 19
c-52 33 -71 40 -103 40c-38 0 -57 -16 -57 -32c0 -22 28 -46 72 -46c27 0 59 12 88 38z" />
    <glyph glyph-name="Korea1.145" unicode="&#xffe5;" 
d="M707 345v-58h-212l-1 -2v-97h213v-58h-213v-204h-89v204h-213v58h213v97l-1 2h-212v58h173l-214 318h95l203 -303l203 303h95l-213 -318h173z" />
    <glyph glyph-name="Korea1.146" unicode="&#x2642;" 
d="M781 478l-46 -52l-246 210v-325c121 -18 207 -106 207 -211c0 -117 -106 -213 -241 -213c-132 0 -239 96 -239 213c0 104 85 191 204 210v319l-238 -220l-48 46l319 287zM628 100c0 85 -77 153 -173 153c-94 0 -170 -68 -170 -153s76 -153 170 -153c96 0 173 68 173 153z
" />
    <glyph glyph-name="Korea1.147" unicode="&#x2640;" 
d="M786 154h-294v-257h-67v257h-295v61h295v88c-122 18 -208 106 -208 211c0 118 106 213 238 213c135 0 241 -95 241 -213c0 -104 -85 -191 -204 -210v-89h294v-61zM628 514c0 85 -77 153 -173 153c-93 0 -169 -68 -169 -153s76 -153 169 -153c96 0 173 68 173 153z" />
    <glyph glyph-name="Korea1.148" unicode="&#x2220;" 
d="M832 28v-56h-718c-10 0 -24 5 -27 17c-4 12 14 28 21 36l622 609l45 -41l-579 -565h636z" />
    <glyph glyph-name="Korea1.149" unicode="&#x22a5;" 
d="M104 -20v58h317v562h71v-562h317v-58h-705z" />
    <glyph glyph-name="Korea1.150" unicode="&#x2312;" 
d="M825 551h-57c-27 120 -159 200 -315 200c-154 0 -283 -79 -312 -200h-57c28 142 183 246 369 246c188 0 344 -104 372 -246z" />
    <glyph glyph-name="Korea1.151" unicode="&#x2202;" 
d="M459 719c94 0 163 -81 163 -206c0 -104 -47 -281 -106 -392c-41 -75 -100 -116 -158 -116c-51 0 -99 24 -127 59c-15 23 -25 54 -25 96c0 156 99 275 202 278c51 2 92 -25 120 -85c22 102 27 132 27 171c0 67 -35 123 -94 123c-43 0 -79 -37 -105 -96l-68 37
c13 28 32 60 45 74c38 37 83 57 126 57zM444 140c22 41 38 88 38 128c0 52 -28 104 -77 104c-32 0 -61 -23 -84 -55c-33 -44 -48 -89 -48 -145c0 -55 29 -99 80 -99c39 0 68 25 91 67z" />
    <glyph glyph-name="Korea1.152" unicode="&#x2207;" 
d="M457 -86l-453 761h906zM96 626l361 -609l361 609h-722z" />
    <glyph glyph-name="Korea1.153" unicode="&#x2261;" 
d="M789 431h-663v55h663v-55zM789 272h-664v56h664v-56zM789 114h-664v55h664v-55z" />
    <glyph glyph-name="Korea1.154" unicode="&#x2252;" 
d="M83 353v62h749v-62h-749zM83 185v62h749v-62h-749zM178 564c0 40 31 72 71 72c43 0 74 -32 74 -72c0 -39 -31 -71 -74 -71c-40 0 -71 32 -71 71zM593 37c0 38 31 71 73 71c39 0 72 -33 72 -71c0 -39 -33 -72 -72 -72c-42 0 -73 33 -73 72z" />
    <glyph glyph-name="Korea1.155" unicode="&#xa7;" 
d="M631 -15c0 -67 -68 -117 -152 -117c-94 0 -180 59 -180 130c0 30 21 52 50 52c26 0 45 -22 45 -49c0 -16 -7 -29 -7 -42c0 -27 36 -54 81 -54c53 0 92 33 92 68c0 15 -2 25 -9 34c-10 16 -55 54 -100 87c-64 48 -117 94 -141 125c-21 24 -31 54 -31 83
c0 60 46 112 101 112c6 0 12 -1 19 -2c-71 60 -109 115 -109 164c0 74 71 137 153 137c89 0 162 -61 162 -137c0 -30 -19 -54 -46 -54c-28 0 -47 23 -47 54c0 14 9 26 9 41c0 27 -36 53 -80 53c-55 0 -88 -29 -88 -74c0 -41 32 -80 133 -160c103 -82 134 -121 134 -178
c0 -63 -46 -115 -107 -114h-7c35 -26 68 -52 86 -72c22 -24 39 -58 39 -87zM550 233c0 26 -9 46 -33 73c-22 26 -41 39 -68 59c-5 3 -17 13 -24 13h-10c-41 0 -72 -27 -72 -62c0 -32 22 -65 71 -103c36 -28 55 -37 82 -37c34 0 54 22 54 57z" />
    <glyph glyph-name="Korea1.156" unicode="&#x203b;" 
d="M709 319c0 34 27 62 63 62c37 0 65 -25 65 -61s-27 -61 -65 -61c-34 0 -63 25 -63 60zM77 319c0 34 27 62 65 62c34 0 63 -25 63 -61s-27 -61 -63 -61c-37 0 -65 25 -65 60zM393 627c0 35 25 63 64 63c35 0 64 -28 64 -63c0 -34 -25 -62 -64 -62c-35 0 -64 28 -64 62z
M393 13c0 33 25 61 64 61c35 0 64 -27 64 -60c0 -37 -25 -64 -64 -64c-35 0 -64 27 -64 63zM783 678l42 -41l-324 -317l324 -317l-42 -41l-326 315l-326 -315l-42 41l324 317l-324 317l42 41l326 -315z" />
    <glyph glyph-name="Korea1.157" unicode="&#x2606;" 
d="M633 226l111 -327l-289 205l-298 -207l119 331l-289 203h363l112 306l103 -306h365zM520 378l-59 190l-71 -190h-234l187 -128l-75 -207l185 128l182 -127l-68 205l196 129h-243z" />
    <glyph glyph-name="Korea1.158" unicode="&#x2605;" 
d="M922 434l-293 -201l109 -322l-284 201l-293 -202l116 324l-283 200h357l110 300l101 -300h360z" />
    <glyph glyph-name="Korea1.159" unicode="&#x25cb;" 
d="M457 -99c-227 0 -412 179 -412 400s185 400 412 400c228 0 413 -178 413 -400c0 -221 -185 -400 -413 -400zM457 652c-198 0 -361 -157 -361 -351c0 -193 163 -351 361 -351c199 0 361 158 361 351s-162 351 -361 351z" />
    <glyph glyph-name="Korea1.160" unicode="&#x25cf;" 
d="M867 301c0 -220 -183 -398 -410 -398c-226 0 -410 178 -410 398s184 398 410 398c227 0 410 -178 410 -398z" />
    <glyph glyph-name="Korea1.161" unicode="&#x25ce;" 
d="M457 62c-136 0 -245 106 -245 238s109 238 245 238s246 -106 246 -238s-110 -238 -246 -238zM457 488c-107 0 -193 -84 -193 -188s86 -188 193 -188c108 0 193 84 193 188s-85 188 -193 188zM457 -99c-227 0 -412 179 -412 400s185 400 412 400c228 0 413 -178 413 -400
c0 -221 -185 -400 -413 -400zM457 652c-198 0 -361 -157 -361 -351c0 -193 163 -351 361 -351c199 0 361 158 361 351s-162 351 -361 351z" />
    <glyph glyph-name="Korea1.162" unicode="&#x25c7;" 
d="M457 -134l-447 434l447 434l447 -434zM457 663l-373 -363l373 -363l373 363z" />
    <glyph glyph-name="Korea1.163" unicode="&#x25c6;" 
d="M900 300l-443 -430l-443 430l443 430z" />
    <glyph glyph-name="Korea1.164" unicode="&#x25a1;" 
d="M68 -78v756h778v-756h-778zM796 628h-677v-656h677v656z" />
    <glyph glyph-name="Korea1.165" unicode="&#x25a0;" 
d="M844 -76h-774v752h774v-752z" />
    <glyph glyph-name="Korea1.166" unicode="&#x25b3;" 
d="M4 -74l453 761l453 -761h-906zM457 584l-361 -609h722z" />
    <glyph glyph-name="Korea1.167" unicode="&#x25b2;" 
d="M906 -72h-898l449 754z" />
    <glyph glyph-name="Korea1.168" unicode="&#x25bd;" 
d="M457 -86l-453 761h906zM96 626l361 -609l361 609h-722z" />
    <glyph glyph-name="Korea1.169" unicode="&#x25bc;" 
d="M906 673l-449 -754l-449 754h898z" />
    <glyph glyph-name="Korea1.170" unicode="&#x2192;" 
d="M912 303l-321 -122l31 91h-608v55h608l-31 93z" />
    <glyph glyph-name="Korea1.171" unicode="&#x2190;" 
d="M904 273h-607l31 -92l-322 122l322 117l-31 -92h607v-55z" />
    <glyph glyph-name="Korea1.172" unicode="&#x2191;" 
d="M581 458l-94 30v-641h-58v641l-96 -30l124 312z" />
    <glyph glyph-name="Korea1.173" unicode="&#x2193;" 
d="M581 144l-124 -313l-124 312l94 -30v642h58v-641z" />
    <glyph glyph-name="Korea1.174" unicode="&#x2194;" 
d="M923 300l-281 -156l31 128h-433l31 -128l-280 156l280 155l-31 -127h433l-31 127z" />
    <glyph glyph-name="Korea1.175" unicode="&#x3013;" 
d="M802 442v-56h-690v56h690zM802 214v-56h-690v56h690z" />
    <glyph glyph-name="Korea1.176" unicode="&#xab;" horiz-adv-x="600" 
d="M570 -18h-72l-177 258l177 258h72l-158 -258c24 -41 135 -217 158 -258zM363 -18h-70l-180 258l180 258h71l-158 -258z" />
    <glyph glyph-name="Korea1.177" unicode="&#xbb;" horiz-adv-x="600" 
d="M308 -18h-71l157 258l-157 258h71l179 -258zM102 -18h-72l158 258l-158 258h72l178 -258z" />
    <glyph glyph-name="Korea1.178" unicode="&#x221a;" 
d="M856 730h-308l-270 -826l-163 406l-56 -58l-21 32l118 119l131 -328l223 700h346v-45z" />
    <glyph glyph-name="Korea1.179" unicode="&#x223d;" 
d="M868 288c-4 -99 -78 -182 -198 -182c-74 0 -119 33 -129 40l30 55c3 -2 52 -33 104 -33c72 0 127 55 128 114c1 81 -50 140 -132 144c-98 5 -145 -78 -180 -148c-24 -46 -93 -178 -240 -170c-94 6 -196 73 -193 199c3 91 79 182 197 182c74 0 119 -33 129 -40l-30 -51
c-2 2 -49 31 -103 31c-168 0 -178 -253 4 -263c106 -5 158 112 202 184c50 80 110 140 216 137c96 -3 198 -70 195 -199z" />
    <glyph glyph-name="Korea1.180" unicode="&#x221d;" 
d="M791 192l38 -49c-45 -29 -78 -40 -125 -40c-117 0 -177 83 -201 125c-24 -41 -87 -125 -198 -125c-114 0 -208 88 -208 197s94 197 208 197c111 0 175 -85 198 -126c24 41 88 126 201 126c46 0 83 -11 123 -40l-35 -50c-30 23 -52 28 -88 28c-115 0 -158 -113 -167 -135
c9 -22 52 -135 167 -135c35 0 59 8 87 27zM469 300c-9 23 -60 135 -164 135c-80 0 -144 -60 -144 -135s64 -135 144 -135c104 0 155 112 164 135z" />
    <glyph glyph-name="Korea1.181" unicode="&#x2235;" 
d="M733 597c41 0 74 -31 74 -70s-33 -71 -74 -71c-38 0 -72 32 -72 71s34 70 72 70zM464 154c41 0 73 -31 73 -70s-32 -71 -73 -71c-40 0 -73 32 -73 71s33 70 73 70zM181 597c39 0 72 -31 72 -70s-33 -71 -72 -71c-41 0 -74 32 -74 71s33 70 74 70z" />
    <glyph glyph-name="Korea1.182" unicode="&#x222b;" 
d="M592 731c62 0 101 -28 101 -65c0 -30 -24 -52 -54 -52c-31 0 -48 17 -48 47v20c0 15 -6 23 -22 23c-23 0 -36 -15 -52 -46c-17 -35 -24 -69 -24 -120c0 -29 4 -90 7 -145c5 -62 7 -112 7 -162c0 -78 -8 -148 -22 -187c-28 -84 -103 -137 -190 -137c-55 0 -87 28 -87 67
c0 26 21 46 52 46s50 -19 52 -54c1 -18 3 -26 21 -26c58 0 106 98 106 193c0 11 -3 33 -3 44l-1 35l-3 34c0 6 -1 13 -2 24c-6 65 -9 127 -9 179c0 99 16 178 45 219c30 40 74 63 126 63z" />
    <glyph glyph-name="Korea1.183" unicode="&#x222c;" 
d="M711 730c34 0 63 -25 63 -54c0 -24 -20 -43 -49 -43c-21 0 -40 13 -49 36c-6 16 -15 25 -18 25c-2 0 -10 -9 -18 -22l-19 -43c-1 -6 -1 -9 -3 -15c-6 -22 -8 -49 -8 -69l1 -95l2 -94c1 -40 2 -98 2 -100v-30c0 -97 -14 -171 -44 -229c-28 -54 -85 -92 -135 -92
c-36 0 -58 21 -58 49c0 23 18 40 39 40c19 0 32 -8 40 -31c6 -16 15 -24 21 -24c15 1 28 16 37 37c13 33 22 69 31 111c1 15 3 28 6 49c1 20 2 29 2 35l-2 111l-4 110l-2 111c-2 122 78 227 165 227zM489 730c34 0 59 -25 59 -54c0 -26 -18 -43 -43 -43c-22 0 -42 14 -51 36
c-4 16 -13 25 -16 25c-4 0 -22 -28 -32 -53c-10 -28 -17 -64 -17 -95l2 -94c5 -166 4 -180 4 -193v-26c0 -101 -16 -179 -46 -235c-28 -51 -90 -92 -138 -92c-32 0 -54 22 -54 48c0 23 18 43 40 43c19 0 32 -10 39 -34c4 -17 13 -25 22 -25c13 0 29 20 36 37
c24 58 38 148 38 223l-6 249c-3 100 6 143 32 188c29 58 83 95 131 95z" />
    <glyph glyph-name="Korea1.184" unicode="&#x2208;" 
d="M820 328v-56h-687c6 -86 79 -202 247 -202h441v-55h-431c-197 0 -317 124 -317 285c0 160 120 285 317 285h431v-55h-441c-168 0 -241 -117 -247 -202h687z" />
    <glyph glyph-name="Korea1.185" unicode="&#x220b;" 
d="M781 272h-687v56h687c-6 85 -79 202 -246 202h-442v55h431c198 0 318 -125 318 -285c0 -161 -120 -285 -318 -285h-431v55h442c167 0 240 116 246 202z" />
    <glyph glyph-name="Korea1.186" unicode="&#x2286;" 
d="M834 126h-450v-1c-218 0 -325 114 -325 256c0 141 109 255 330 255h445v-65h-458c-182 0 -247 -97 -247 -190c0 -95 67 -189 247 -189h458v-66zM855 -36h-796v66h796v-66z" />
    <glyph glyph-name="Korea1.187" unicode="&#x2287;" 
d="M526 126l-446 -1v66h458c180 0 248 95 248 190c0 93 -68 189 -248 189h-458v66h446c220 0 329 -114 329 -255c0 -142 -106 -255 -329 -255zM855 -36h-796v66h796v-66z" />
    <glyph glyph-name="Korea1.188" unicode="&#x2282;" 
d="M835 5h-451v-1c-196 0 -325 129 -325 296c0 166 129 296 330 296h446v-66h-457c-176 0 -248 -127 -248 -225v-10c0 -99 72 -224 248 -224h457v-66z" />
    <glyph glyph-name="Korea1.189" unicode="&#x2283;" 
d="M526 5l-447 -1v66h457c177 0 248 126 248 225v10c0 98 -71 224 -248 224h-457v67h447c201 0 329 -130 329 -296c0 -167 -128 -295 -329 -295z" />
    <glyph glyph-name="Korea1.190" unicode="&#x222a;" 
d="M748 667v-434c0 -195 -135 -320 -305 -320c-171 0 -305 125 -305 320v434h68v-445c0 -170 130 -240 231 -240h11c100 0 231 70 231 240v445h69z" />
    <glyph glyph-name="Korea1.191" unicode="&#x2229;" 
d="M762 -67h-67v445c0 170 -131 240 -232 240h-11c-102 0 -231 -70 -231 -240v-445h-69v434c0 196 134 320 305 320s305 -124 305 -320v-434z" />
    <glyph glyph-name="Korea1.192" unicode="&#x2227;" 
d="M821 -28l-59 -32l-305 606l-305 -606l-58 32l330 659c3 6 20 28 33 28c15 0 25 -15 34 -28z" />
    <glyph glyph-name="Korea1.193" unicode="&#x2228;" 
d="M762 662l59 -32l-330 -659c-9 -13 -19 -28 -34 -28c-13 0 -30 22 -33 28l-330 659l58 32l305 -606z" />
    <glyph glyph-name="Korea1.194" unicode="&#xffe2;" 
d="M654 449v-283h-54v231h-367v52h421z" />
    <glyph glyph-name="Korea1.195" unicode="&#x21d2;" 
d="M620 12l-39 38l128 123h-701v51h752l79 75l-79 75h-752v51h701l-128 123l39 38l297 -287z" />
    <glyph glyph-name="Korea1.196" unicode="&#x21d4;" 
d="M630 12l-38 38l124 123h-513l124 -123l-39 -38l-290 287l290 287l39 -38l-124 -123h513l-124 123l38 38l291 -287zM769 374h-619l-77 -75l77 -75h619l75 75z" />
    <glyph glyph-name="Korea1.197" unicode="&#x2200;" 
d="M708 671h78l-277 -735h-95l-277 737h78l74 -192h344zM461 22l148 388h-295z" />
    <glyph glyph-name="Korea1.198" unicode="&#x2203;" 
d="M721 671v-734h-474v70h397v250h-382v70h382v272h-409v72h486z" />
    <glyph glyph-name="Korea1.199" unicode="&#xb4;" horiz-adv-x="450" 
d="M197 666h-66l78 151h109z" />
    <glyph glyph-name="Korea1.200" unicode="&#x2dc;" 
 />
    <glyph glyph-name="Korea1.201" unicode="&#x2c7;" 
d="M666 767l-195 -153c-8 -7 -18 -6 -27 0l-196 152c-29 23 -8 44 26 27l182 -91l184 92c33 17 56 -4 26 -27z" />
    <glyph glyph-name="Korea1.202" unicode="&#x2d8;" 
d="M623 801l52 -18c-57 -88 -119 -124 -210 -128c-97 -5 -169 32 -231 122l47 28c49 -71 103 -98 179 -96c70 2 117 27 163 92z" />
    <glyph glyph-name="Korea1.203" unicode="&#x2dd;" 
d="M498 793c13 -19 11 -42 -1 -52c-45 -39 -182 -97 -200 -100c-10 -1 -12 5 -4 14c41 41 102 102 143 137c12 11 50 19 62 1zM672 793c12 -19 11 -42 -1 -52c-45 -39 -183 -97 -200 -100c-10 -1 -14 5 -4 14c40 41 102 102 142 137c13 11 49 19 63 1z" />
    <glyph glyph-name="Korea1.204" unicode="&#x2da;" 
d="M566 701c0 -55 -48 -99 -107 -99s-107 44 -107 99s48 99 107 99s107 -44 107 -99zM519 701c0 30 -26 56 -60 56s-60 -26 -60 -56s26 -56 60 -56s60 26 60 56z" />
    <glyph glyph-name="Korea1.205" unicode="&#x2d9;" 
d="M527 735c0 -37 -33 -68 -71 -68c-40 0 -68 34 -68 70s34 66 69 66c39 0 70 -31 70 -68z" />
    <glyph glyph-name="Korea1.206" unicode="&#xb8;" horiz-adv-x="450" 
d="M131 -178l9 30c21 -4 34 -5 46 -5c28 0 47 19 47 40c0 26 -18 43 -65 44l55 120h72l-36 -78c30 0 59 -31 59 -67c0 -61 -58 -101 -118 -101c-15 0 -34 4 -69 17z" />
    <glyph glyph-name="Korea1.207" unicode="&#x2db;" 
d="M460 -198c-45 0 -81 40 -81 88c0 35 21 74 56 104c7 6 14 9 16 9c8 0 12 -5 12 -11c0 -5 -2 -12 -4 -16c-18 -29 -24 -44 -24 -69c0 -24 15 -39 33 -39c28 0 41 36 57 36c8 0 12 -7 12 -16c0 -44 -36 -86 -77 -86z" />
    <glyph glyph-name="Korea1.208" unicode="&#xa1;" horiz-adv-x="399" 
d="M249 -176h-99l12 528h77zM251 568v-111h-103v111h103z" />
    <glyph glyph-name="Korea1.209" unicode="&#xbf;" horiz-adv-x="510" 
d="M63 -6c0 89 55 144 109 204c33 37 49 76 49 113v39h86v-44c0 -60 -17 -91 -60 -141c-36 -43 -91 -97 -91 -167c0 -72 60 -105 127 -105c69 0 131 22 168 45l9 -86c-37 -19 -110 -41 -179 -41c-109 0 -218 68 -218 183zM212 456v111h104v-111h-104z" />
    <glyph glyph-name="Korea1.210" unicode="&#x2236;" 
 />
    <glyph glyph-name="Korea1.211" unicode="&#x222e;" 
d="M695 648c0 -30 -18 -46 -48 -46c-29 0 -41 16 -43 30c-2 13 -2 43 -24 40c-15 -1 -24 -8 -35 -33c-20 -43 -25 -58 -33 -122c-2 -13 -3 -39 -9 -85c79 -23 116 -70 116 -140c0 -75 -47 -126 -135 -142c-5 -82 -14 -128 -30 -161c-28 -68 -78 -101 -149 -101
c-54 0 -86 21 -86 60c0 29 20 49 49 49c28 0 47 -15 53 -41c2 -15 2 -35 20 -35c20 0 50 29 65 77c6 22 10 54 12 82c0 12 3 38 5 74c-74 21 -115 68 -115 137c0 73 44 120 129 144c7 58 14 96 25 129c29 92 84 146 158 146c47 0 75 -22 75 -62zM587 294
c0 48 -16 73 -85 109c-3 -29 -2 -42 -3 -47l-7 -83c-2 -41 -3 -57 -3 -66v-28c67 21 98 59 98 115zM435 405c-65 -27 -94 -62 -94 -113c0 -48 25 -78 83 -105c1 91 5 144 11 218z" />
    <glyph glyph-name="Korea1.212" unicode="&#x2211;" 
d="M312 685h481l-11 -81h-403l194 -250l-300 -279h431l-19 -80h-533l17 72l306 297l-186 246z" />
    <glyph glyph-name="Korea1.213" unicode="&#x220f;" 
d="M791 641v-79h-149v-600h-74v600h-221v-600h-74v600h-146v79h664z" />
    <glyph glyph-name="Korea1.214" unicode="&#xa4;" 
d="M455 557c-147 0 -267 -120 -267 -267s120 -267 267 -267s268 120 268 267s-121 267 -268 267zM241 30l-117 -118l-48 48l117 118c-47 58 -73 131 -73 212s27 155 75 213l-118 121l47 47l119 -121c57 49 131 76 212 76c80 0 153 -27 211 -75l119 120l48 -48l-121 -118
c51 -58 78 -133 78 -215c0 -81 -26 -154 -75 -212l118 -118l-48 -48l-118 117c-58 -49 -130 -75 -212 -75c-81 0 -156 27 -214 76z" />
    <glyph glyph-name="Korea1.215" unicode="&#x2109;" 
d="M785 600v-67h-372v-240h328v-69h-328v-306h-73v682h445zM165 730c64 0 118 -52 118 -115s-54 -115 -118 -115c-65 0 -119 52 -119 115s54 115 119 115zM165 551c37 0 65 28 65 64s-28 64 -65 64c-38 0 -66 -28 -66 -64s28 -64 66 -64z" />
    <glyph glyph-name="Korea1.216" unicode="&#x2030;" 
d="M642 172c60 80 156 119 219 77c61 -42 58 -144 0 -225c-59 -82 -157 -119 -221 -77c-59 42 -57 144 2 225zM97 560c59 81 155 118 217 77c62 -42 58 -144 0 -226c-57 -81 -157 -117 -218 -76c-61 42 -58 144 1 225zM592 673h63l-575 -748h-66zM328 173
c60 80 155 118 218 76c62 -42 58 -144 0 -225c-57 -80 -157 -118 -218 -77c-61 42 -59 145 0 226zM810 58c45 63 51 127 18 148c-30 21 -89 -5 -136 -68c-46 -64 -52 -129 -20 -150s91 4 138 70zM265 447c44 63 49 125 18 147c-31 21 -90 -5 -137 -68
c-46 -64 -50 -127 -18 -149c29 -22 89 3 137 70zM497 59c43 63 49 126 17 148c-31 21 -90 -5 -136 -68c-45 -63 -51 -129 -18 -150c30 -21 89 4 137 70z" />
    <glyph glyph-name="Korea1.217" unicode="&#x25c1;" 
d="M821 -136l-784 439l784 441v-880zM770 -47v702l-627 -352z" />
    <glyph glyph-name="Korea1.218" unicode="&#x25c0;" 
d="M821 -136l-784 439l784 441v-880z" />
    <glyph glyph-name="Korea1.219" unicode="&#x25b7;" 
d="M867 303l-784 -439v880zM760 303l-626 352v-702z" />
    <glyph glyph-name="Korea1.220" unicode="&#x25b6;" 
d="M877 303l-784 -439v880z" />
    <glyph glyph-name="Korea1.221" unicode="&#x2664;" 
d="M812 216c0 -89 -62 -158 -154 -158c-54 0 -95 14 -128 33c5 -167 51 -187 194 -200l9 -25h-552l9 25c143 13 189 33 194 200c-33 -19 -74 -33 -129 -33c-90 0 -153 69 -153 158c0 95 66 162 137 219c94 73 182 183 218 347c36 -164 125 -274 219 -347
c70 -57 136 -124 136 -219zM751 206c2 72 -28 117 -80 162c-14 13 -30 25 -45 37c-75 61 -137 145 -169 215c-31 -70 -94 -154 -169 -214c-30 -24 -62 -48 -87 -78c-23 -31 -40 -69 -38 -122c3 -66 51 -102 133 -96c45 4 108 38 144 103c0 -170 -5 -251 -51 -301h137
c-45 50 -51 130 -51 301c37 -65 101 -99 145 -103c82 -7 130 30 131 96z" />
    <glyph glyph-name="Korea1.222" unicode="&#x2660;" 
d="M812 216c0 -89 -62 -158 -154 -158c-63 0 -114 10 -150 32c4 -164 72 -186 216 -199l9 -25h-552l9 25c143 13 212 35 217 199c-37 -22 -88 -32 -152 -32c-90 0 -153 69 -153 158c0 95 66 163 137 220c93 73 182 182 218 346c36 -164 126 -273 219 -346
c70 -57 136 -125 136 -220z" />
    <glyph glyph-name="Korea1.223" unicode="&#x2661;" 
d="M832 509c2 -110 -77 -213 -146 -292c-47 -55 -94 -104 -135 -155c-39 -47 -70 -96 -94 -179c-24 83 -55 131 -94 179c-40 51 -88 100 -135 155c-69 79 -148 182 -145 292c2 100 80 174 184 174c79 0 151 -38 190 -116c43 77 114 116 191 116c102 0 181 -73 184 -174z
M773 495c0 80 -44 142 -141 137c-83 -5 -144 -96 -175 -201c-31 104 -94 198 -175 202c-94 4 -141 -58 -141 -138c0 -91 70 -177 130 -245c39 -47 78 -86 111 -124c29 -33 53 -66 75 -109c24 42 50 75 77 109l109 124c61 68 130 154 130 245z" />
    <glyph glyph-name="Korea1.224" unicode="&#x2665;" 
d="M832 509c0 -110 -77 -213 -146 -292c-47 -55 -94 -104 -135 -155c-39 -47 -70 -96 -94 -179c-24 83 -55 131 -94 178c-99 126 -280 275 -280 447c0 101 81 174 184 174c88 0 158 -64 190 -151c33 88 101 152 191 152c102 0 184 -73 184 -174z" />
    <glyph glyph-name="Korea1.225" unicode="&#x2667;" 
d="M858 257c0 -100 -83 -186 -192 -186c-51 0 -98 20 -139 59c3 -185 55 -224 197 -237l9 -25h-553l9 25c142 13 193 51 198 238c-38 -36 -86 -59 -136 -59c-110 0 -195 83 -195 185c0 89 70 176 174 186c16 2 33 2 56 -4c-18 29 -21 49 -21 86c0 104 94 182 194 182
c96 0 189 -76 189 -181c0 -36 -7 -61 -22 -88c115 26 232 -61 232 -181zM799 257c0 72 -56 136 -118 138c-30 1 -57 -3 -84 -23l-53 50c36 31 47 76 47 117c0 63 -62 121 -136 121c-71 0 -133 -58 -133 -121c0 -40 10 -83 45 -112l-53 -51c-26 18 -50 19 -81 18
c-64 -2 -118 -64 -118 -136c0 -71 51 -129 123 -129c53 0 104 22 130 69h73c0 -133 -8 -234 -60 -284h154c-48 52 -61 149 -62 284h73c23 -46 75 -70 130 -70c73 0 123 58 123 129z" />
    <glyph glyph-name="Korea1.226" unicode="&#x2663;" 
d="M858 257c0 -100 -83 -186 -192 -186c-58 0 -120 16 -160 57c5 -183 77 -222 218 -235l9 -25h-553l9 25c142 13 213 51 218 236c-39 -41 -101 -57 -156 -57c-110 0 -195 83 -195 185c0 89 70 176 174 186c16 2 33 2 56 -4c-18 29 -21 49 -21 86c0 104 97 182 194 182
c93 0 189 -76 189 -181c0 -36 -7 -61 -22 -88c115 26 232 -61 232 -181z" />
    <glyph glyph-name="Korea1.227" unicode="&#x25c9;" 
 />
    <glyph glyph-name="Korea1.228" unicode="&#x25c8;" 
d="M923 299l-468 -478l-462 474l468 477zM852 298l-392 402l-396 -404l392 -404zM722 299l-267 -273l-261 268l268 275z" />
    <glyph glyph-name="Korea1.229" unicode="&#x25a3;" 
d="M857 -102h-798v810h798v-810zM806 -54v717h-692v-717h692zM670 89h-421v428h421v-428z" />
    <glyph glyph-name="Korea1.230" unicode="&#x25d0;" 
d="M890 301c0 -241 -185 -423 -431 -423c-247 0 -436 185 -436 423c0 237 189 420 434 420c248 0 433 -182 433 -420zM460 674v-749c225 4 377 182 377 375c0 191 -154 370 -377 374z" />
    <glyph glyph-name="Korea1.231" unicode="&#x25d1;" 
d="M890 300c0 -241 -186 -423 -430 -423c-248 0 -437 183 -437 423c0 218 162 420 442 420c238 0 425 -186 425 -420zM457 -75v748c-227 -4 -378 -186 -378 -378c0 -184 155 -366 378 -370z" />
    <glyph glyph-name="Korea1.232" unicode="&#x2592;" 
d="M858 -90h-802v780h802v-780zM818 -51v702h-722v-702h722zM726 596c0 -15 -11 -24 -26 -24s-24 10 -24 24c0 13 9 25 24 25c14 0 26 -11 26 -25zM565 596c0 -15 -13 -24 -28 -24c-14 0 -25 10 -25 24c0 13 11 25 25 25c15 0 28 -11 28 -25zM768 399c0 -15 -11 -25 -26 -25
s-25 10 -25 25c0 13 10 23 24 23c16 0 27 -10 27 -23zM626 399c0 -15 -11 -25 -26 -25c-16 0 -25 10 -25 25c0 13 9 24 25 24c14 0 26 -11 26 -24zM400 595c0 -13 -10 -23 -24 -23c-15 0 -26 8 -26 23s11 25 25 25c15 0 25 -10 25 -25zM706 201c0 -14 -10 -24 -27 -24
c-13 0 -23 10 -23 24s10 25 23 25c16 0 27 -11 27 -25zM482 399c0 -15 -11 -25 -27 -25c-13 0 -23 10 -23 25c0 13 10 24 23 24c16 0 27 -11 27 -24zM239 596c0 -15 -11 -24 -27 -24c-14 0 -24 10 -24 24c0 13 10 25 24 25c15 0 27 -10 27 -25zM769 4c0 -15 -12 -25 -28 -25
c-14 0 -24 10 -24 25c0 14 10 24 24 24c17 0 28 -9 28 -24zM554 201c0 -15 -12 -24 -27 -24s-25 10 -25 24s10 25 25 25c16 0 27 -11 27 -25zM339 398c0 -14 -10 -24 -25 -24s-24 9 -24 24c0 14 10 24 24 24c15 0 25 -10 25 -24zM626 4c0 -15 -13 -25 -26 -25
c-16 0 -25 10 -25 25c0 14 9 24 25 24c15 0 26 -9 26 -24zM199 399c0 -15 -10 -25 -26 -25c-14 0 -25 10 -25 25c0 13 11 24 25 24c15 0 26 -9 26 -24zM391 200c0 -13 -10 -23 -24 -23c-16 0 -26 9 -26 23c0 15 10 25 25 25s25 -10 25 -25zM481 4c0 -14 -10 -25 -26 -25
c-14 0 -25 10 -25 25c0 14 11 24 25 24c15 0 26 -9 26 -24zM251 201c0 -14 -11 -24 -27 -24c-14 0 -24 10 -24 24s10 25 24 25c15 0 27 -10 27 -25zM339 4c0 -15 -10 -25 -25 -25s-26 10 -26 25c0 14 11 24 26 24s25 -10 25 -24zM198 4c0 -15 -11 -25 -25 -25
c-16 0 -26 10 -26 25c0 14 10 24 26 24c15 0 25 -10 25 -24z" />
    <glyph glyph-name="Korea1.233" unicode="&#x25a4;" 
d="M858 -90h-802v780h802v-780zM818 512v139h-722v-139h722zM818 320v153h-722v-153h722zM818 127v153h-722v-153h722zM818 -51v139h-722v-139h722z" />
    <glyph glyph-name="Korea1.234" unicode="&#x25a5;" 
d="M858 -90h-802v780h802v-780zM818 -51v702h-142v-702h142zM635 -51v702h-157v-702h157zM436 -51v702h-157v-702h157zM239 -51v702h-143v-702h143z" />
    <glyph glyph-name="Korea1.235" unicode="&#x25a8;" 
d="M858 -90h-802v780h802v-780zM782 651h-224l-462 -450v-217zM243 651h-147v-143zM501 651h-200l-205 -199v-196zM816 105l-159 -156h159v156zM816 412v216l-699 -679h224zM816 160v193l-418 -404h202z" />
    <glyph glyph-name="Korea1.236" unicode="&#x25a7;" 
d="M858 -90h-802v780h802v-780zM818 508v143h-147zM818 256v196l-205 199h-201zM818 -16v217l-463 450h-223zM797 -51l-699 679v-216l476 -463h223zM516 -51l-418 404v-193l216 -211h202zM258 -51l-160 156v-156h160z" />
    <glyph glyph-name="Korea1.237" unicode="&#x25a6;" 
d="M858 -90h-803v781h803v-781zM817 501v148h-155v-148h155zM626 501v148h-154v-148h154zM817 319v146h-155v-146h155zM435 501v148h-153v-148h153zM626 319v146h-154v-146h154zM817 135v147h-155v-147h155zM245 501v148h-149v-148h149zM435 319v146h-153v-146h153zM626 135
v147h-154v-147h154zM817 -48v147h-155v-147h155zM245 319v146h-149v-146h149zM435 135v147h-153v-147h153zM626 -48v147h-154v-147h154zM245 135v147h-149v-147h149zM435 -48v147h-153v-147h153zM245 -48v147h-149v-147h149z" />
    <glyph glyph-name="Korea1.238" unicode="&#x25a9;" 
d="M858 -92h-802v780h802v-780zM797 649h-195l97 -95zM818 438v190l-97 -95zM677 533l-100 97l-98 -97l98 -97zM799 415l-100 97l-99 -97l99 -96zM555 649h-195l97 -95zM818 203v190l-97 -95zM435 533l-98 97l-100 -97l100 -97zM556 415l-99 97l-99 -97l99 -96zM677 298
l-100 97l-98 -97l98 -97zM799 181l-100 96l-99 -96l99 -97zM313 649h-196l98 -95zM818 -32v190l-97 -95zM194 533l-98 95v-190zM797 -53l-98 95l-97 -95h195zM314 415l-99 97l-100 -97l100 -96zM435 298l-98 97l-100 -97l100 -97zM556 181l-99 96l-99 -96l99 -97zM677 63
l-100 97l-98 -97l98 -97zM555 -53l-98 95l-97 -95h195zM194 298l-98 95v-190zM435 63l-98 97l-100 -97l100 -97zM314 181l-99 96l-100 -96l100 -97zM194 63l-98 95v-190zM313 -53l-98 95l-98 -95h196z" />
    <glyph glyph-name="Korea1.239" unicode="&#x2668;" 
d="M628 545c-14 -102 41 -123 52 -234c11 -110 -58 -172 -79 -219c-25 -48 -19 -86 -33 -89c-13 -3 -16 74 1 118c26 67 60 166 28 245c-49 115 -29 181 0 259c14 37 8 90 14 91c8 1 32 -54 17 -171zM484 578c-36 -110 25 -164 46 -281c14 -64 -49 -170 -68 -209
c-37 -65 -25 -93 -38 -92s-25 70 5 146c42 104 15 204 -3 241c-61 135 -4 208 24 271c27 62 20 119 22 119c18 1 44 -99 12 -195zM321 542c-16 -65 40 -161 49 -272c4 -45 -29 -117 -62 -184c-27 -58 -16 -80 -30 -79c-9 0 -29 55 -6 118c14 41 39 154 9 238
c-39 103 -21 195 22 278c15 30 20 79 26 78c12 -2 22 -60 -8 -177zM715 248c28 -2 190 -57 197 -156c10 -135 -224 -211 -405 -222c-259 -16 -506 66 -506 192c0 120 175 178 238 196c16 5 23 -10 1 -17c-11 -4 -161 -60 -161 -157c0 -89 186 -144 385 -141
c171 3 382 71 383 164c1 62 -101 118 -135 127c-18 5 -10 15 3 14z" />
    <glyph glyph-name="Korea1.240" unicode="&#x260f;" 
d="M772 546c77 -21 102 -60 114 -148c7 -56 -23 -59 -59 -58l-82 3c-38 1 -57 9 -67 66c-6 34 -26 55 -73 66v-51c0 -33 4 -38 32 -61c25 -20 42 -27 54 -60l78 -221c0 -18 -10 -76 -11 -79c0 -4 -10 -3 -18 -3h-564c-7 0 -17 -1 -17 3c-2 3 -12 61 -12 79l78 221
c12 33 29 40 54 60c29 23 32 28 32 61v51c-47 -11 -67 -32 -73 -66c-10 -57 -29 -65 -67 -66l-82 -3c-36 -1 -66 2 -59 58c12 88 37 127 114 148c96 27 216 41 315 41c103 0 217 -14 313 -41zM523 440l9 49c-9 1 -45 4 -75 4c-32 0 -66 -3 -75 -4l9 -49c15 2 44 3 66 3
s52 -1 66 -3zM754 367l66 -2c34 -1 40 9 32 53c-11 68 -47 91 -127 111c-82 21 -185 30 -266 30c-83 0 -186 -9 -268 -30c-79 -20 -115 -43 -127 -111c-7 -44 -2 -54 32 -53l66 2c29 1 39 10 48 60c9 52 69 72 126 81c72 12 172 12 245 0c56 -9 116 -29 125 -81
c9 -50 19 -59 48 -60zM731 30l8 45l-72 205c-17 46 -38 55 -62 72c-28 19 -31 43 -31 76v55c-3 0 -9 1 -12 1l-15 -70c-1 0 -49 4 -90 4s-88 -5 -90 -5l-12 72l-13 -2v-55c0 -33 -3 -57 -31 -76c-24 -17 -45 -26 -62 -72l-71 -205l7 -45h546zM459 370c70 0 129 -59 129 -127
c0 -73 -60 -130 -134 -130s-128 63 -128 132c0 71 62 125 133 125zM454 141c60 0 104 45 104 102c0 53 -44 99 -99 99c-56 0 -105 -42 -105 -97c0 -54 44 -104 100 -104z" />
    <glyph glyph-name="Korea1.241" unicode="&#x260e;" 
d="M797 372c27 -1 74 1 92 6c0 -35 -26 -39 -62 -38l-82 3c-33 1 -58 12 -62 46c37 -12 65 -15 114 -17zM772 548c94 -26 104 -62 114 -150c-19 -5 -67 -7 -96 -6c-48 2 -69 6 -112 17c-2 31 -37 60 -73 66v-51c0 -33 6 -35 32 -61c27 -26 42 -27 54 -60l78 -221
c0 -18 -10 -78 -11 -81c0 -4 -10 -3 -18 -3h-564c-7 0 -17 -1 -17 3c-2 3 -12 63 -12 81l78 221c12 33 28 34 54 60s32 28 32 61v51c-36 -6 -71 -35 -73 -66c-42 -11 -64 -15 -112 -17c-29 -1 -77 1 -96 6c10 88 20 124 114 150c100 27 216 39 315 39c103 0 213 -12 313 -39
zM120 372c49 2 77 5 114 17c-5 -34 -29 -45 -63 -46l-82 -3c-36 -1 -62 3 -62 38c19 -5 65 -7 93 -6zM457 413l90 -4l15 74c-26 2 -64 7 -105 7s-78 -6 -105 -8l15 -74zM454 113c74 0 134 57 134 130c0 68 -59 127 -129 127c-71 0 -133 -54 -133 -125
c0 -69 54 -132 128 -132z" />
    <glyph glyph-name="Korea1.242" unicode="&#x261c;" 
d="M847 462v-326h-133v46c-23 0 -49 2 -83 -12c-84 -39 -140 -30 -214 -28c-12 -20 -37 -25 -62 -25c-42 0 -125 23 -125 75c0 16 10 32 24 39c-8 8 -10 20 -10 30c0 21 14 37 34 45c-5 4 -10 15 -10 22c0 13 7 24 16 34l-108 6c-33 2 -120 1 -120 62c0 45 72 49 120 50
l165 5l91 -2c13 10 31 16 50 16c74 0 138 -43 198 -73c15 -6 15 -7 34 -7v43h133zM742 163h40v272h-40v-272zM714 207v187c-20 0 -23 -2 -35 3c-59 25 -131 77 -190 77c-30 0 -45 -9 -64 -29l-48 -49c-10 -9 -28 -24 -28 -37c0 -18 25 -26 40 -26c25 0 48 16 65 31l46 37
l11 -13l-42 -47c12 -8 29 -24 38 -37c2 0 48 -8 88 -5c20 2 44 8 60 13l7 2l7 -8v-6c-2 -1 -47 -18 -70 -21c-47 -5 -87 0 -89 0c-10 -32 -17 -47 -53 -53c0 -22 -8 -44 -33 -48v-15c65 -4 139 -2 203 30c31 16 61 14 87 14zM448 252c18 0 36 10 36 31c0 17 -24 42 -43 42
c-8 0 -27 -12 -53 -12c-33 0 -57 16 -76 39c-8 -5 -15 -11 -15 -22c0 -24 37 -40 54 -48c17 -7 80 -30 97 -30zM336 386l73 74h-85l-145 -2c-23 0 -96 1 -96 -30c0 -28 38 -36 58 -37l137 -5h58zM404 198c17 0 28 11 26 27c0 9 -14 10 -19 12c-27 7 -73 27 -93 39
c-6 3 -16 8 -23 8c-13 0 -22 -11 -22 -23c0 -19 22 -36 37 -42c21 -8 72 -21 94 -21zM355 136c19 0 45 4 45 26c0 10 -7 14 -16 15c-55 8 -89 22 -110 37c-9 5 -19 -10 -16 -25c4 -33 72 -53 97 -53z" />
    <glyph glyph-name="Korea1.243" unicode="&#x261e;" 
d="M573 505l163 -5c48 -1 121 -5 121 -50c0 -61 -87 -60 -121 -62l-107 -6c9 -10 17 -21 17 -34c0 -7 -6 -18 -10 -22c20 -8 32 -24 32 -45c0 -10 -1 -22 -10 -30c14 -7 26 -23 26 -39c0 -52 -83 -75 -128 -75c-22 0 -47 5 -60 25c-73 -2 -130 -11 -216 28
c-31 14 -59 12 -81 12v-46h-133v326h133v-43c20 0 20 1 34 7c60 30 123 73 198 73c19 0 37 -6 50 -16zM635 406l137 5c20 1 58 9 58 37c0 31 -72 30 -96 30l-145 2h-86l74 -74h58zM562 302c16 8 53 24 53 48c0 11 -5 17 -13 22c-19 -23 -46 -39 -76 -39c-26 0 -45 12 -54 12
c-19 0 -45 -25 -45 -42c0 -21 19 -31 38 -31c17 0 81 23 97 30zM603 239c16 6 36 23 36 42c0 12 -9 23 -20 23c-8 0 -17 -5 -24 -8c-20 -12 -67 -32 -93 -39c-4 -2 -19 -3 -20 -12c-1 -16 10 -27 27 -27c21 0 74 13 94 21zM557 156c26 0 94 20 99 53c1 15 -8 30 -17 25
c-20 -15 -55 -29 -111 -37c-8 -1 -16 -5 -16 -15c0 -22 26 -26 45 -26zM524 353c13 0 41 8 41 26c0 13 -19 28 -29 37l-47 49c-20 20 -35 29 -64 29c-60 0 -131 -52 -191 -77c-13 -5 -14 -3 -35 -3v-187c25 0 55 2 88 -14c64 -32 138 -34 203 -30v15c-26 4 -35 26 -35 48
c-37 6 -42 21 -52 53c-3 0 -42 -5 -89 0c-23 3 -68 20 -70 21v6l7 8l8 -2c16 -5 38 -11 58 -13c42 -3 88 5 90 5c9 13 26 29 37 37l-42 47l11 13l46 -37c16 -15 41 -31 65 -31zM131 183h40v272h-40v-272z" />
    <glyph glyph-name="Korea1.244" unicode="&#xb6;" 
d="M738 -149h-69v879h69v-879zM551 -149h-67l-1 465l-71 -1c-144 -2 -240 78 -240 207c0 122 77 193 223 203c63 5 68 5 93 5l63 -2v-877zM483 384v282h-44c-122 0 -195 -53 -195 -142c0 -88 75 -146 179 -142z" />
    <glyph glyph-name="Korea1.245" unicode="&#x2020;" 
d="M718 492v-67h-222v-561h-75v561h-222v67h222v241h75v-241h222z" />
    <glyph glyph-name="Korea1.246" unicode="&#x2021;" 
d="M722 607v-66h-227v-97h209v-67h-209v-510h-74v510h-205v67h205v97h-224v66h224v129h74v-129h227z" />
    <glyph glyph-name="Korea1.247" unicode="&#x2195;" 
d="M618 89l-161 -273l-161 273l131 -30v481l-131 -30l161 273l161 -273l-131 30v-481z" />
    <glyph glyph-name="Korea1.248" unicode="&#x2197;" 
d="M899 729l-147 -298l-28 88l-658 -640l-40 39l657 640l-90 28z" />
    <glyph glyph-name="Korea1.249" unicode="&#x2199;" 
d="M896 686l-659 -639l91 -28l-306 -143l147 298l29 -88l658 639z" />
    <glyph glyph-name="Korea1.250" unicode="&#x2196;" 
d="M891 -82l-39 -39l-659 640l-29 -88l-147 298l306 -143l-90 -28z" />
    <glyph glyph-name="Korea1.251" unicode="&#x2198;" 
d="M894 -124l-306 143l91 28l-658 639l40 39l657 -639l30 88z" />
    <glyph glyph-name="Korea1.252" unicode="&#x266d;" 
d="M600 409c85 -29 96 -136 67 -220c-74 -222 -286 -241 -337 -243v726h71v-351c37 57 99 121 199 88zM546 84c68 81 80 242 9 265c-103 33 -153 -93 -153 -101v-247c0 -1 1 1 2 1c13 0 32 6 45 11c29 11 66 32 97 71z" />
    <glyph glyph-name="Korea1.253" unicode="&#x2669;" 
d="M495 706h53v-623c0 -105 -78 -179 -186 -179c-57 0 -83 20 -83 65c0 75 90 136 204 136h11z" />
    <glyph glyph-name="Korea1.254" unicode="&#x266a;" 
d="M413 103v605l11 1c15 -2 24 -7 56 -41c18 -19 46 -51 64 -67l19 -15c29 -26 39 -34 45 -38c1 -1 3 -4 3 -5l8 -7c47 -44 69 -67 87 -96c25 -37 35 -74 35 -110c0 -37 -10 -78 -26 -104c-39 -66 -124 -137 -159 -140l-4 7c1 2 3 6 21 22c59 53 101 125 101 181
c0 52 -28 99 -85 150c-47 39 -75 59 -126 85l-1 -443c0 -106 -77 -181 -187 -181c-51 0 -76 23 -76 61c0 76 85 136 199 136c0 0 4 1 15 -1z" />
    <glyph glyph-name="Korea1.255" unicode="&#x266c;" 
d="M307 619l464 99v-548c0 -68 -20 -107 -65 -139c-31 -27 -76 -42 -120 -42c-53 0 -83 22 -83 58c0 43 41 97 93 119c36 16 63 20 123 20v285l-359 -82v-299c0 -75 -24 -120 -76 -154c-37 -25 -74 -37 -114 -37c-52 0 -82 24 -82 63c0 69 93 134 198 134h21v523zM360 472
l359 79v77l-359 -79v-77z" />
    <glyph glyph-name="Korea1.256" unicode="&#x327f;" 
d="M870 326h-50c-26 180 -169 325 -361 325c-184 0 -348 -142 -360 -342h140v-48h-193c-8 251 185 439 413 439c219 0 387 -169 411 -374zM454 337l250 -301h-68l-220 262c-37 -32 -66 -60 -84 -75c-1 -2 -4 -38 -5 -39v-148h-58v514h58v-260c71 63 184 169 258 260h69
c-69 -84 -138 -157 -200 -213zM676 259v48h194c10 -246 -186 -439 -415 -439c-217 0 -384 170 -411 373h52c26 -175 169 -324 359 -324c186 0 347 141 363 342h-142z" />
    <glyph glyph-name="Korea1.257" unicode="&#x321c;" 
d="M713 640h44c53 -63 134 -177 134 -370c0 -183 -82 -308 -134 -370h-44c77 102 121 233 121 370c0 136 -44 269 -121 370zM733 329l-37 -45c-29 5 -85 18 -140 47c-42 24 -84 66 -99 88c-15 -22 -57 -64 -99 -88c-54 -29 -111 -42 -141 -47l-36 45c37 5 97 16 151 48
c47 28 93 77 93 110c1 1 1 17 1 19h-196v49h454v-49h-196c0 -2 -1 -18 0 -19c1 -33 47 -82 95 -110c56 -32 113 -43 150 -48zM754 232v-51h-267v-232h-61v232h-269v51h597zM201 -100h-44c-52 62 -134 187 -134 370c0 193 81 307 134 370h44c-77 -101 -121 -234 -121 -370
c0 -137 44 -268 121 -370z" />
    <glyph glyph-name="Korea1.258" unicode="&#x2116;" 
d="M858 49c28 0 53 -26 53 -54c0 -29 -25 -53 -53 -53c-27 0 -51 24 -51 53c0 28 24 54 51 54zM638 429c118 0 180 -109 180 -240c0 -130 -62 -239 -180 -239s-179 109 -179 239c0 131 61 240 179 240zM421 648v-690h-71l-258 573v-573h-62v690h73l258 -572v572h60zM638 10
c75 0 121 77 121 179c0 101 -46 180 -121 180c-74 0 -120 -79 -120 -180c0 -102 45 -179 120 -179z" />
    <glyph glyph-name="Korea1.259" unicode="&#x33c7;" 
d="M852 51c28 0 50 -26 50 -53c0 -29 -22 -52 -50 -52c-23 0 -46 23 -46 52c0 27 23 53 46 53zM649 428c109 0 166 -108 166 -237c0 -130 -57 -238 -166 -238c-110 0 -168 108 -168 238c0 129 58 237 168 237zM34 301c0 208 92 360 230 360c148 0 199 -131 203 -209h-56
c-12 62 -46 145 -148 144c-101 0 -171 -125 -171 -294c0 -170 70 -291 171 -291c99 -1 137 83 146 151h56c-10 -89 -59 -216 -202 -214c-147 1 -229 147 -229 353zM649 13c71 0 111 76 111 178c0 100 -40 178 -111 178c-70 0 -113 -78 -113 -178c0 -101 43 -178 113 -178z
" />
    <glyph glyph-name="Korea1.260" unicode="&#x2122;" 
d="M737 556l-99 -275h-45l-102 267v-267h-55v358h76l101 -262l94 262h86v-358h-56v275zM218 281v312h-126v46h307v-46h-122v-312h-59z" />
    <glyph glyph-name="Korea1.261" unicode="&#x33c2;" 
d="M841 81c22 0 42 -22 42 -48s-20 -47 -42 -47c-25 0 -43 21 -43 47s18 48 43 48zM779 309v-313l-48 1v295c0 68 -8 116 -45 116c-43 1 -57 -54 -57 -120v-291h-51v295c0 68 -10 115 -48 116c-39 1 -58 -55 -58 -127v-284l-49 -1v454h50v-32c11 25 34 48 68 46
c36 -1 61 -33 69 -66c8 26 33 70 86 66c62 -4 83 -75 83 -155zM361 81c22 0 42 -22 42 -48s-20 -47 -42 -47c-25 0 -44 21 -44 47s19 48 44 48zM303 -3h-50c-5 11 -9 27 -9 45c-22 -34 -57 -56 -99 -60c-61 -7 -118 30 -124 114c-5 77 34 119 71 139c24 14 50 18 73 24
c16 4 31 8 43 13c19 8 36 25 36 55c0 44 -25 86 -78 86c-51 0 -81 -38 -78 -102h-50c-4 94 48 156 128 156c78 0 128 -56 128 -153v-243c0 -35 9 -72 9 -74zM244 121c5 4 5 109 5 114c-5 -6 -13 -11 -20 -13c-23 -8 -52 -11 -76 -22c-18 -10 -40 -19 -52 -33
c-16 -16 -24 -36 -22 -63c4 -49 31 -75 71 -69c45 6 92 47 94 86z" />
    <glyph glyph-name="Korea1.262" unicode="&#x33d8;" 
d="M891 35c0 -28 -21 -50 -48 -50c-24 0 -47 22 -47 50s23 52 47 52c28 0 48 -24 48 -52zM780 -8h-54v294c0 69 -11 108 -41 109c-37 1 -56 -45 -56 -109v-294h-57v294c0 68 -15 108 -44 109c-30 1 -56 -47 -56 -118v-285h-56v451h56v-12c15 16 36 26 60 26
c37 0 59 -25 71 -52c13 26 37 53 82 52c73 -2 95 -81 95 -160v-305zM402 35c0 -29 -23 -50 -48 -50s-47 22 -47 50s21 52 47 52s48 -24 48 -52zM330 225c0 -125 -54 -238 -145 -238c-38 0 -69 13 -93 39v-174h-57v596h57v-24c24 24 56 39 93 39c92 0 145 -112 145 -238z
M271 225c0 104 -38 175 -88 175c-63 0 -90 -70 -90 -175s28 -175 90 -175c50 0 88 71 88 175z" />
    <glyph glyph-name="Korea1.263" unicode="&#x2121;" 
d="M866 589v-629h-66v629h66zM740 150h-331c4 -90 72 -147 131 -147c66 0 101 33 116 76h70c-22 -66 -77 -132 -186 -132c-117 1 -198 99 -198 219c0 119 78 218 198 218c108 0 203 -82 200 -234zM464 588v-56h-185v-573h-67v574c-115 -1 -80 -1 -184 -1v56h436zM413 204
h256c-7 75 -63 125 -129 125c-62 0 -117 -47 -127 -125z" />
    <glyph glyph-name="Korea1.264" unicode="&#xff01;" 
d="M405 709h99l-10 -528h-77zM506 76v-103l-103 -13v116h103z" />
    <glyph glyph-name="Korea1.265" unicode="&#xff02;" 
d="M508 769h98l-10 -230h-78zM306 769h97l-10 -230h-77z" />
    <glyph glyph-name="Korea1.266" unicode="&#xff03;" 
d="M401 478l-31 -216h144l33 216h-146zM663 262v-76h-85l-27 -195h-76l28 195h-143l-27 -195h-76l28 195h-75v76h85l31 216h-81v76h93l21 155h76l-23 -155h145l22 155h76l-23 -155h66v-76h-77l-31 -216h73z" />
    <glyph glyph-name="Korea1.267" unicode="&#xff04;" 
d="M500 788v-67c44 -2 106 -10 149 -25l-9 -82c-50 18 -93 27 -140 29v-237c81 -44 167 -98 167 -217c0 -109 -69 -172 -167 -197v-71h-73v60c-14 -1 -28 -2 -41 -2c-55 0 -113 17 -157 30l9 81c28 -7 104 -32 168 -32c6 0 13 0 21 1v276c-85 43 -175 88 -175 202
c0 94 73 161 175 179v72h73zM345 546c0 -46 35 -75 82 -102v190c-43 -12 -82 -39 -82 -88zM572 185c0 51 -29 83 -72 110v-213c39 21 72 54 72 103z" />
    <glyph glyph-name="Korea1.268" unicode="&#xff05;" 
d="M885 177c0 -102 -36 -199 -178 -199c-127 0 -177 103 -177 206s50 199 177 199c142 0 178 -104 178 -206zM788 184c0 53 -6 133 -81 133c-67 0 -81 -90 -81 -140s14 -133 81 -133c75 0 81 87 81 140zM629 721h85l-425 -742h-85zM381 515c0 -102 -37 -200 -179 -200
c-126 0 -176 103 -176 207c0 103 50 199 176 199c142 0 179 -104 179 -206zM284 522c0 52 -6 133 -82 133c-67 0 -80 -90 -80 -140s13 -134 80 -134c76 0 82 88 82 141z" />
    <glyph glyph-name="Korea1.269" unicode="&#xff06;" 
d="M660 128l128 -137h-115l-69 73c-51 -60 -119 -85 -219 -85c-143 0 -221 85 -221 197c0 115 73 179 163 214c-38 42 -80 98 -80 160c0 114 73 171 183 171c96 0 176 -52 176 -163c0 -86 -93 -157 -169 -186l160 -183c26 37 44 98 50 188h86c-11 -122 -42 -203 -73 -249z
M520 557c0 70 -37 97 -92 97c-53 0 -94 -38 -94 -102c0 -50 35 -95 73 -130c46 21 113 69 113 135zM551 120l-183 217c-58 -40 -107 -78 -107 -153c0 -83 71 -140 149 -140c74 0 121 53 141 76z" />
    <glyph glyph-name="Korea1.270" unicode="&#xff07;" 
d="M406 759h97l-10 -230h-77z" />
    <glyph glyph-name="Korea1.271" unicode="&#xff08;" 
d="M359 311c0 171 77 314 171 448h77c-83 -134 -162 -287 -162 -448c0 -167 81 -316 162 -448h-77c-95 135 -171 267 -171 448z" />
    <glyph glyph-name="Korea1.272" unicode="&#xff09;" 
d="M549 311c0 -181 -76 -313 -171 -448h-77c81 132 162 281 162 448c0 161 -79 314 -162 448h77c94 -134 171 -277 171 -448z" />
    <glyph glyph-name="Korea1.273" unicode="&#xff0a;" 
d="M662 623l28 -85l-186 -37l125 -141l-77 -49l-95 159l-95 -159l-77 49l130 141l-192 37l29 85l180 -71l-18 182h92l-15 -182z" />
    <glyph glyph-name="Korea1.274" unicode="&#xff0b;" 
d="M708 402v-74h-210v-217h-86v217h-210v74h210v215h86v-215h210z" />
    <glyph glyph-name="Korea1.275" unicode="&#xff0c;" 
d="M417 90h102l-85 -243h-82z" />
    <glyph glyph-name="Korea1.276" unicode="&#xff0d;" 
d="M630 400v-72h-349v72h349z" />
    <glyph glyph-name="Korea1.277" unicode="&#xff0e;" 
d="M506 70v-111h-103v111h103z" />
    <glyph glyph-name="Korea1.278" unicode="&#xff0f;" 
d="M541 731h83l-255 -792h-82z" />
    <glyph glyph-name="Korea1.279" unicode="&#xff10;" 
d="M683 491v-281c0 -131 -86 -233 -228 -233s-228 102 -228 233v281c0 131 86 233 228 233s228 -102 228 -233zM312 468v-235c0 -114 49 -183 143 -183s143 69 143 183v235c0 114 -49 183 -143 183s-143 -69 -143 -183z" />
    <glyph glyph-name="Korea1.280" unicode="&#xff11;" 
d="M541 709v-715l-85 -13v652h-143v76h228z" />
    <glyph glyph-name="Korea1.281" unicode="&#xff12;" 
d="M683 63l-13 -71h-445v103c52 45 82 66 132 110c68 61 214 197 214 317c0 79 -61 123 -148 123h-179v71h185c147 0 236 -76 236 -202c0 -135 -154 -267 -230 -340c-41 -38 -79 -67 -128 -111h376z" />
    <glyph glyph-name="Korea1.282" unicode="&#xff13;" 
d="M675 179c0 -154 -145 -202 -289 -202h-152v71h154c79 0 195 40 195 134c0 113 -105 156 -198 156h-60v71h55c65 0 177 26 177 125c0 85 -65 111 -149 111h-144v71h158c147 0 229 -58 229 -188c0 -79 -67 -142 -152 -156v-2c98 -17 176 -84 176 -191z" />
    <glyph glyph-name="Korea1.283" unicode="&#xff14;" 
d="M537 139h-347v70l300 500h133v-497h99l-13 -73h-86v-145l-86 -13v158zM537 212v421h-2l-246 -421h248z" />
    <glyph glyph-name="Korea1.284" unicode="&#xff15;" 
d="M664 283v-129c0 -115 -87 -176 -259 -176h-158v72h162c105 0 169 43 169 110v104c0 87 -53 121 -143 114c-49 -4 -85 -32 -95 -48h-78l6 379h397l-13 -73h-302l-7 -236c13 21 56 50 106 54c125 10 215 -65 215 -171z" />
    <glyph glyph-name="Korea1.285" unicode="&#xff16;" 
d="M687 270v-117c0 -110 -85 -176 -225 -176c-127 0 -217 66 -217 193v291c0 137 55 248 206 248h210l-12 -74h-191c-96 0 -141 -73 -139 -166l2 -98c32 60 108 76 165 76c116 0 201 -75 201 -177zM601 163v90c0 77 -49 120 -136 120c-65 0 -134 -43 -134 -123v-77
c0 -84 41 -124 129 -124c91 0 141 40 141 114z" />
    <glyph glyph-name="Korea1.286" unicode="&#xff17;" 
d="M673 709v-68l-272 -650h-95l279 647h-349v71h437z" />
    <glyph glyph-name="Korea1.287" unicode="&#xff18;" 
d="M456 725c124 0 214 -81 214 -174v-28c0 -64 -50 -132 -132 -152c93 -18 157 -106 157 -183v-19c0 -114 -102 -193 -239 -193s-239 79 -239 193v19c0 77 64 165 157 183c-82 20 -132 88 -132 152v28c0 93 90 174 214 174zM456 413c80 0 131 45 131 115v11
c0 67 -52 117 -131 117s-131 -50 -131 -117v-11c0 -70 51 -115 131 -115zM456 50c90 0 143 48 143 128v16c0 82 -64 143 -143 143s-143 -61 -143 -143v-16c0 -80 53 -128 143 -128z" />
    <glyph glyph-name="Korea1.288" unicode="&#xff19;" 
d="M232 438v91c0 109 95 191 220 191c133 0 226 -82 226 -199v-309c0 -130 -75 -231 -217 -231h-197v78h189c102 0 141 72 141 145v131c-27 -57 -96 -80 -159 -80c-124 0 -203 87 -203 183zM316 514v-62c0 -76 69 -126 137 -126c72 0 141 48 141 127v62
c0 80 -56 132 -142 132c-83 0 -136 -51 -136 -133z" />
    <glyph glyph-name="Korea1.289" unicode="&#xff1a;" 
d="M506 575v-111h-103v111h103zM506 116v-111h-103v111h103z" />
    <glyph glyph-name="Korea1.290" unicode="&#xff1b;" 
d="M506 575v-111h-103v111h103zM415 134h101l-85 -243h-82z" />
    <glyph glyph-name="Korea1.291" unicode="&#xff1c;" 
d="M665 140v-99l-422 287v72l422 287v-99l-347 -224z" />
    <glyph glyph-name="Korea1.292" unicode="&#xff1d;" 
d="M669 517v-75h-425v75h425zM669 289v-76h-425v76h425z" />
    <glyph glyph-name="Korea1.293" unicode="&#xff1e;" 
d="M659 400v-72l-422 -287v99l346 224l-346 224v99z" />
    <glyph glyph-name="Korea1.294" unicode="&#xff1f;" 
d="M660 538c0 -89 -55 -144 -109 -204c-33 -37 -49 -76 -49 -113v-39h-86v44c0 60 17 91 60 141c36 43 91 97 91 167c0 72 -60 105 -127 105c-69 0 -131 -22 -168 -45l-9 86c37 19 110 41 179 41c109 0 218 -68 218 -183zM511 76v-106l-104 -14v120h104z" />
    <glyph glyph-name="Korea1.295" unicode="&#xff20;" 
d="M813 423c0 -184 -156 -278 -239 -278c-31 0 -58 20 -61 57h-2c-30 -28 -73 -57 -116 -57c-85 0 -149 75 -149 158c0 122 85 255 224 255c48 0 87 -18 118 -67l16 54h73l-74 -259c-4 -15 -8 -32 -8 -45c1 -17 4 -29 20 -29c62 0 130 98 130 191c0 153 -114 257 -277 257
c-174 0 -291 -130 -291 -303c0 -204 134 -297 316 -297c88 0 171 43 218 100h74c-63 -97 -177 -161 -298 -161c-225 0 -386 137 -386 361c0 226 172 361 369 361c188 0 343 -132 343 -298zM556 397c0 48 -37 85 -81 85c-86 0 -145 -94 -145 -167c0 -55 33 -95 87 -95
c80 0 139 104 139 177z" />
    <glyph glyph-name="Korea1.296" unicode="&#xff21;" 
d="M504 709l307 -718h-97l-81 200h-358l-82 -200h-91l312 718h90zM305 261h298l-147 370z" />
    <glyph glyph-name="Korea1.297" unicode="&#xff22;" 
d="M723 184c0 -126 -97 -193 -290 -193h-191v718h182c174 0 253 -68 253 -178c0 -83 -40 -139 -133 -164v-2c92 -5 179 -72 179 -181zM591 523c0 83 -64 115 -142 115h-121v-236h82c74 0 181 10 181 121zM627 191c0 115 -96 137 -191 137h-108v-266h103
c103 0 196 30 196 129z" />
    <glyph glyph-name="Korea1.298" unicode="&#xff23;" 
d="M721 -22h-201c-200 0 -310 99 -310 283v160c0 176 107 283 307 283h190v-79h-195c-134 0 -211 -79 -211 -219v-129c0 -142 75 -220 209 -220h231z" />
    <glyph glyph-name="Korea1.299" unicode="&#xff24;" 
d="M761 356c0 -249 -116 -365 -332 -365h-243v718h243c200 0 332 -126 332 -353zM669 356c0 203 -105 274 -235 274h-162v-560h145c164 0 252 69 252 286z" />
    <glyph glyph-name="Korea1.300" unicode="&#xff25;" 
d="M668 709v-79h-311v-227h287v-79h-287v-254h316l-13 -79h-389v718h397z" />
    <glyph glyph-name="Korea1.301" unicode="&#xff26;" 
d="M675 709v-79h-290v-227h277v-79h-277v-325l-86 -13v723h376z" />
    <glyph glyph-name="Korea1.302" unicode="&#xff27;" 
d="M496 58h151v247h-124v71h212v-383l-88 -14h-141c-201 0 -310 99 -310 282v170c0 176 112 282 302 282h195l-13 -79h-182c-138 0 -211 -78 -211 -218v-139c0 -140 73 -219 209 -219z" />
    <glyph glyph-name="Korea1.303" unicode="&#xff28;" 
d="M726 717v-718l-85 -13v338h-369v-325l-85 -13v718l85 13v-314h369v301z" />
    <glyph glyph-name="Korea1.304" unicode="&#xff29;" 
d="M498 717v-718l-86 -13v718z" />
    <glyph glyph-name="Korea1.305" unicode="&#xff2a;" 
d="M552 717v-540c0 -108 -45 -198 -195 -198h-80v74h71c89 0 118 51 118 142v509z" />
    <glyph glyph-name="Korea1.306" unicode="&#xff2b;" 
d="M440 393l330 -402h-123l-265 341l-83 -84v-251l-85 -13v720l85 13v-353l332 345h119z" />
    <glyph glyph-name="Korea1.307" unicode="&#xff2c;" 
d="M704 70l-13 -79h-392v713l86 13v-647h319z" />
    <glyph glyph-name="Korea1.308" unicode="&#xff2d;" 
d="M826 709v-713l-88 -13v631h-2l-229 -613l-94 -13l-234 626h-2v-618l-88 -13v726h145l224 -605h5l218 605h145z" />
    <glyph glyph-name="Korea1.309" unicode="&#xff2e;" 
d="M733 717v-726h-134l-332 627h-2v-622l-85 -13v726h134l331 -627h2v622z" />
    <glyph glyph-name="Korea1.310" unicode="&#xff2f;" 
d="M718 491v-281c0 -131 -99 -233 -263 -233s-263 102 -263 233v281c0 131 99 233 263 233s263 -102 263 -233zM277 468v-235c0 -114 61 -183 178 -183s178 69 178 183v235c0 114 -61 183 -178 183s-178 -69 -178 -183z" />
    <glyph glyph-name="Korea1.311" unicode="&#xff30;" 
d="M729 501c0 -147 -120 -205 -247 -205h-152v-297l-86 -13v723h226c144 0 259 -57 259 -208zM635 505c0 89 -69 125 -166 125h-139v-255h159c68 0 146 34 146 130z" />
    <glyph glyph-name="Korea1.312" unicode="&#xff31;" 
d="M686 491v-281c0 -62 -22 -117 -63 -158l116 -149h-115l-72 99c-36 -16 -80 -25 -129 -25c-164 0 -263 102 -263 233v281c0 131 99 233 263 233s263 -102 263 -233zM245 468v-235c0 -114 61 -183 178 -183c32 0 60 5 84 15l-130 182h95l99 -128c20 29 30 68 30 114v235
c0 114 -61 183 -178 183s-178 -69 -178 -183z" />
    <glyph glyph-name="Korea1.313" unicode="&#xff32;" 
d="M614 250l132 -259h-101l-116 246c-27 57 -87 68 -116 68h-85v-306l-86 -13v723h181c131 0 268 -33 268 -197c0 -86 -71 -156 -163 -173v-2c40 -15 61 -38 86 -87zM599 510c0 67 -38 119 -141 119h-130v-245h90c111 0 181 59 181 126z" />
    <glyph glyph-name="Korea1.314" unicode="&#xff33;" 
d="M410 385h104c101 0 184 -80 184 -191c0 -140 -90 -218 -250 -218h-224v78h214c115 0 174 45 174 133c0 73 -39 120 -114 120h-107c-102 0 -180 81 -180 188c0 145 86 211 229 211h208l-15 -77h-181c-91 0 -154 -36 -154 -127c0 -74 39 -117 112 -117z" />
    <glyph glyph-name="Korea1.315" unicode="&#xff34;" 
d="M730 709l-13 -78h-219v-633l-86 -13v646h-223v78h541z" />
    <glyph glyph-name="Korea1.316" unicode="&#xff35;" 
d="M729 717v-422c0 -200 -99 -316 -272 -316c-174 0 -273 116 -273 316v409l85 13v-421c0 -140 45 -238 188 -238c142 0 187 98 187 238v408z" />
    <glyph glyph-name="Korea1.317" unicode="&#xff36;" 
d="M680 709h93l-266 -718h-109l-260 718h99l216 -651z" />
    <glyph glyph-name="Korea1.318" unicode="&#xff37;" 
d="M817 709h97l-194 -718h-111l-149 651h-2l-149 -651h-121l-187 718h98l146 -631h2l148 631h126l150 -631h2z" />
    <glyph glyph-name="Korea1.319" unicode="&#xff38;" 
d="M517 367l261 -376h-117l-214 316l-202 -316h-111l259 373l-235 345h117l183 -286l186 286h108z" />
    <glyph glyph-name="Korea1.320" unicode="&#xff39;" 
d="M664 709h109l-271 -400v-310l-90 -13v323l-271 400h104l211 -322z" />
    <glyph glyph-name="Korea1.321" unicode="&#xff3a;" 
d="M706 70l-13 -79h-479v80l364 559h-350v79h453v-80l-361 -559h386z" />
    <glyph glyph-name="Korea1.322" unicode="&#xff3b;" 
d="M570 -80v-59h-181v896h181v-59h-106v-778h106z" />
    <glyph glyph-name="Korea1.323" unicode="&#xffe6;" 
d="M908 406h-92l-108 -425h-111l-91 425h-99l-90 -425h-121l-104 425h-90v66h74l-56 227h97l49 -227h177l50 227h126l50 -227h177l49 227h96l-58 -227h75v-66zM329 406h-148l71 -341h3zM732 406h-149l76 -341h2zM421 472h71l-34 160h-2z" />
    <glyph glyph-name="Korea1.324" unicode="&#xff3d;" 
d="M519 757v-896h-180v59h106v778h-106v59h180z" />
    <glyph glyph-name="Korea1.325" unicode="&#xff3e;" 
d="M496 745l170 -265h-95l-116 199l-115 -199h-95l170 265h81z" />
    <glyph glyph-name="Korea1.326" unicode="&#xff3f;" 
d="M687 -130v-70h-464v70h464z" />
    <glyph glyph-name="Korea1.327" unicode="&#xff40;" 
d="M468 752l90 -161h-69l-133 161h112z" />
    <glyph glyph-name="Korea1.328" unicode="&#xff41;" 
d="M613 92c-26 -69 -103 -109 -201 -109c-105 0 -203 73 -203 196v145c0 123 97 196 203 196c93 0 163 -37 198 -105v96l81 13v-527l-78 -12v107zM609 227v78c0 70 -69 141 -170 144c-78 2 -145 -47 -145 -130v-136c0 -83 66 -131 142 -130c120 2 173 87 173 174z" />
    <glyph glyph-name="Korea1.329" unicode="&#xff42;" 
d="M301 82v-89l-77 -13v743l81 13v-311c35 68 104 105 197 105c106 0 203 -73 203 -196v-165c0 -123 -98 -196 -203 -196c-98 0 -177 43 -201 109zM306 217c0 -87 52 -172 172 -174c76 -1 142 47 142 130v156c0 83 -67 132 -145 130c-101 -3 -169 -74 -169 -144v-98z" />
    <glyph glyph-name="Korea1.330" unicode="&#xff43;" 
d="M278 180v163c0 106 74 191 214 191h151v-70h-145c-83 0 -138 -51 -138 -136v-135c0 -85 57 -134 137 -134h165l-13 -70h-158c-140 0 -213 75 -213 191z" />
    <glyph glyph-name="Korea1.331" unicode="&#xff44;" 
d="M607 82c-27 -65 -103 -109 -201 -109c-105 0 -203 73 -203 196v165c0 123 97 196 203 196c93 0 162 -37 197 -105v298l81 13v-743l-77 -13v102zM602 217v98c0 70 -68 141 -169 144c-78 2 -145 -47 -145 -130v-156c0 -83 66 -131 142 -130c120 2 172 87 172 174z" />
    <glyph glyph-name="Korea1.332" unicode="&#xff45;" 
d="M683 222h-375v-48c0 -86 50 -124 163 -124h180l-13 -72h-173c-156 0 -238 73 -238 201v135c0 123 97 217 236 217c135 0 220 -89 220 -211v-98zM308 305v-15h296v32c0 90 -51 143 -141 143c-98 0 -155 -59 -155 -160z" />
    <glyph glyph-name="Korea1.333" unicode="&#xff46;" 
d="M285 501h113v35c0 164 43 217 183 217h49v-65h-40c-88 0 -112 -39 -112 -137v-50h151l-13 -67h-138v-435l-80 -13v448h-113v67z" />
    <glyph glyph-name="Korea1.334" unicode="&#xff47;" 
d="M604 128c-27 -73 -103 -119 -201 -119c-105 0 -203 73 -203 196v129c0 123 97 196 203 196c93 0 165 -37 200 -105v91l81 13v-493c0 -158 -88 -225 -258 -225h-191v67h213c93 0 156 52 156 171v79zM599 253v62c0 70 -68 141 -169 144c-78 2 -145 -47 -145 -130v-120
c0 -83 66 -131 142 -130c120 2 172 87 172 174z" />
    <glyph glyph-name="Korea1.335" unicode="&#xff48;" 
d="M683 305v-307l-79 -13v281c0 141 -38 193 -121 195c-115 3 -175 -78 -175 -225v-238l-80 -13v739l80 13v-292h2c35 55 97 86 169 86c137 0 204 -80 204 -226z" />
    <glyph glyph-name="Korea1.336" unicode="&#xff49;" 
d="M503 738v-107h-97v107h97zM495 519v-520l-81 -13v533h81z" />
    <glyph glyph-name="Korea1.337" unicode="&#xff4a;" 
d="M503 738v-107h-97v107h97zM495 519v-496c0 -104 3 -212 -127 -212h-54v72h41c44 0 59 43 59 113v523h81z" />
    <glyph glyph-name="Korea1.338" unicode="&#xff4b;" 
d="M684 519l-214 -213l237 -315h-115l-178 259l-78 -78v-173l-80 -13v738l80 13v-463l230 245h118z" />
    <glyph glyph-name="Korea1.339" unicode="&#xff4c;" 
d="M495 737v-738l-81 -13v738z" />
    <glyph glyph-name="Korea1.340" unicode="&#xff4d;" 
d="M826 340v-341l-80 -13v328c0 69 -22 152 -99 152c-102 0 -152 -89 -152 -195v-272l-81 -13v328c0 69 -21 152 -100 152c-101 0 -151 -89 -151 -195v-272l-80 -13v528l77 13v-83c35 59 83 89 171 89c55 0 119 -32 146 -104c37 79 121 104 162 104c135 0 187 -83 187 -193z
" />
    <glyph glyph-name="Korea1.341" unicode="&#xff4e;" 
d="M682 305v-306l-79 -13v285c0 141 -38 192 -121 195c-115 4 -175 -78 -175 -225v-242l-80 -13v533h79v-85h2c25 56 98 97 170 97c141 0 204 -80 204 -226z" />
    <glyph glyph-name="Korea1.342" unicode="&#xff4f;" 
d="M686 327v-154c0 -117 -91 -196 -232 -196s-231 79 -231 196v154c0 117 90 201 231 201s232 -84 232 -201zM605 186v129c0 85 -55 144 -151 144s-150 -59 -150 -144v-129c0 -85 54 -140 150 -140s151 55 151 140z" />
    <glyph glyph-name="Korea1.343" unicode="&#xff50;" 
d="M308 72v-254l-81 -13v707l77 13v-100c35 68 105 105 199 105c107 0 205 -73 205 -196v-165c0 -123 -97 -196 -200 -196c-98 0 -172 40 -200 99zM309 217c0 -87 52 -172 172 -174c76 -1 142 47 142 130v156c0 83 -67 132 -145 130c-101 -3 -169 -74 -169 -144v-98z" />
    <glyph glyph-name="Korea1.344" unicode="&#xff51;" 
d="M603 72c-24 -61 -102 -99 -199 -99c-104 0 -201 73 -201 196v165c0 123 98 196 206 196c94 0 164 -37 199 -105v90l76 13v-710l-81 -13v267zM602 217v98c0 70 -68 141 -169 144c-78 2 -145 -47 -145 -130v-156c0 -83 66 -131 142 -130c120 2 172 87 172 174z" />
    <glyph glyph-name="Korea1.345" unicode="&#xff52;" 
d="M612 531v-72h-12c-84 0 -174 -57 -174 -207v-258l-81 -13v534l79 13v-93h2c23 56 95 96 175 96h11z" />
    <glyph glyph-name="Korea1.346" unicode="&#xff53;" 
d="M431 293h86c76 0 145 -65 145 -151c0 -110 -82 -166 -189 -166h-221v73h195c83 0 134 28 134 89c0 58 -33 85 -96 85h-96c-77 0 -141 69 -141 148c0 106 68 157 174 157h197l-14 -72h-162c-74 0 -115 -22 -115 -81c0 -56 39 -82 103 -82z" />
    <glyph glyph-name="Korea1.347" unicode="&#xff54;" 
d="M292 513h96v123l80 18v-141h149l-13 -67h-136v-306c0 -65 35 -93 76 -93h88l-12 -69h-73c-97 0 -159 38 -159 140v328h-96v67z" />
    <glyph glyph-name="Korea1.348" unicode="&#xff55;" 
d="M682 527v-524l-78 -13v86h-2c-25 -61 -98 -97 -171 -97c-141 0 -204 80 -204 226v309l80 13v-288c0 -141 37 -192 120 -195c115 -4 176 78 176 225v245z" />
    <glyph glyph-name="Korea1.349" unicode="&#xff56;" 
d="M634 519h82l-208 -528h-100l-211 528h90l172 -452h2z" />
    <glyph glyph-name="Korea1.350" unicode="&#xff57;" 
d="M802 519h79l-178 -528h-95l-154 460h-2l-149 -460h-95l-174 528h91l130 -458h2l154 458h96l148 -458h2z" />
    <glyph glyph-name="Korea1.351" unicode="&#xff58;" 
d="M502 265l208 -274h-102l-155 215l-156 -215h-97l211 274l-184 254h104l127 -199l136 199h92z" />
    <glyph glyph-name="Korea1.352" unicode="&#xff59;" 
d="M634 519h81l-214 -494c-41 -96 -78 -215 -205 -215h-79v64h71c71 0 104 61 128 141l-18 51l-197 453h88l169 -417h2z" />
    <glyph glyph-name="Korea1.353" unicode="&#xff5a;" 
d="M676 76l-13 -65h-418v68l306 375h-290v65h392v-64l-306 -379h329z" />
    <glyph glyph-name="Korea1.354" unicode="&#xff5b;" 
d="M602 -53v-66h-82c-38 0 -102 43 -102 122v177c0 65 -47 107 -90 107v64c43 0 90 43 90 103v181c0 79 63 122 102 122h82v-66h-57c-42 0 -52 -43 -52 -77v-174c0 -86 -68 -115 -87 -120v-2c19 -3 87 -28 87 -121v-173c0 -33 10 -77 52 -77h57z" />
    <glyph glyph-name="Korea1.355" unicode="&#xff5c;" 
d="M498 756v-875h-85v875h85z" />
    <glyph glyph-name="Korea1.356" unicode="&#xff5d;" 
d="M580 351v-64c-43 0 -90 -42 -90 -100v-184c0 -79 -64 -122 -102 -122h-82v66h58c41 0 51 44 51 77v177c0 80 68 112 87 117v2c-19 3 -87 26 -87 124v170c0 34 -10 77 -51 77h-58v66h82c38 0 102 -43 102 -122v-174c0 -67 47 -110 90 -110z" />
    <glyph glyph-name="Korea1.357" unicode="&#xffe3;" 
d="M921 800v-50h-927v50h927z" />
    <glyph glyph-name="Korea1.358" unicode="&#x3131;" 
d="M170 545h573c-5 -209 -25 -331 -69 -466h-87c40 117 69 259 69 396h-486v70z" />
    <glyph glyph-name="Korea1.359" unicode="&#x3132;" 
d="M349 75h-81c39 111 72 261 77 412h-209v70h292c-4 -213 -36 -347 -79 -482zM695 75h-85c37 121 63 269 63 412h-213v70h297c-8 -201 -23 -331 -62 -482z" />
    <glyph glyph-name="Korea1.360" unicode="&#x3133;" 
d="M434 540v-442l-81 -13v384h-211v71h292zM699 555v-183c0 -21 1 -42 16 -60c42 -53 86 -107 137 -166l-55 -51c-50 58 -93 107 -137 160c-41 -53 -89 -111 -132 -164l-58 47c51 63 91 111 130 168c13 19 20 39 20 60v177z" />
    <glyph glyph-name="Korea1.361" unicode="&#x3134;" 
d="M263 544v-357h498l-13 -70h-568v427h83z" />
    <glyph glyph-name="Korea1.362" unicode="&#x3135;" 
d="M772 469h-123v-111c0 -21 1 -42 16 -60c42 -53 86 -109 137 -168l-55 -51c-50 58 -93 109 -137 162c-41 -53 -90 -114 -133 -167l-57 48c51 63 93 113 132 170c13 19 20 39 20 60v117h-139v71h352zM264 104h-115v436h80v-366h55c34 0 92 6 119 14v-70
c-35 -6 -99 -14 -139 -14z" />
    <glyph glyph-name="Korea1.363" unicode="&#x3136;" 
d="M580 400c92 0 166 -53 166 -135v-63c0 -82 -74 -135 -166 -135s-166 53 -166 135v63c0 82 74 135 166 135zM259 104h-115v443h80v-373h45c34 0 92 6 118 12v-68c-34 -6 -84 -14 -128 -14zM777 434h-400v67h166v85l79 12v-97h169zM580 333c-49 0 -88 -27 -88 -86v-28
c0 -58 39 -85 88 -85s88 27 88 85v28c0 59 -39 86 -88 86z" />
    <glyph glyph-name="Korea1.364" unicode="&#x3137;" 
d="M735 111h-554v427h551v-70h-469v-286h485z" />
    <glyph glyph-name="Korea1.365" unicode="&#x3138;" 
d="M781 174l-13 -70h-606v440h257v-70h-175v-300h216v370h305v-70h-226v-300h242z" />
    <glyph glyph-name="Korea1.366" unicode="&#x3139;" 
d="M744 82h-559v275h465v132h-470v70h552v-272h-465v-135h489z" />
    <glyph glyph-name="Korea1.367" unicode="&#x313a;" 
d="M753 555v-460l-82 -13v405h-175v68h257zM371 357v130h-209v68h285v-262h-205v-134h113c52 0 122 4 162 12v-66c-47 -8 -131 -14 -195 -14h-158v266h207z" />
    <glyph glyph-name="Korea1.368" unicode="&#x313b;" 
d="M755 559v-461l-80 -13h-198v474h278zM554 151h121v340h-121v-340zM353 359v132h-193v68h269v-262h-189v-144h73c38 0 96 4 124 8v-66c-38 -6 -96 -10 -156 -10h-119v274h191z" />
    <glyph glyph-name="Korea1.369" unicode="&#x313c;" 
d="M556 160h124v165h-124v-165zM760 558v-451l-80 -13h-203v464h79v-165h124v165h80zM350 360v130h-203v68h282v-260h-201v-136h84c38 0 96 4 125 8v-66c-38 -6 -97 -10 -156 -10h-132v266h201z" />
    <glyph glyph-name="Korea1.370" unicode="&#x313d;" 
d="M672 583v-223c0 -21 1 -42 16 -60c42 -53 86 -107 137 -166l-55 -51c-50 58 -93 107 -137 160c-41 -53 -89 -111 -132 -164l-25 20c-47 -6 -105 -9 -154 -9h-154v269h203v129h-205v68h280v-259h-201v-139h109c38 0 85 4 122 9c36 44 68 83 98 127c13 19 20 39 20 60v217z
" />
    <glyph glyph-name="Korea1.371" unicode="&#x313e;" 
d="M772 94h-276v461h273v-69h-195v-124h195v-68h-195v-134h211zM371 358v128h-215v69h291v-259h-211v-134h94c39 0 97 4 125 8v-66c-38 -6 -96 -10 -156 -10h-141v264h213z" />
    <glyph glyph-name="Korea1.372" unicode="&#x313f;" 
d="M771 485h-41l-3 -325h73l-13 -66h-323v66h46l-4 325h-42v68h307v-68zM654 160l4 325h-80l4 -325h72zM338 351v138h-191v64h268v-265h-188v-126h95c39 0 81 4 109 8v-66c-37 -6 -84 -10 -145 -10h-137v257h189z" />
    <glyph glyph-name="Korea1.373" unicode="&#x3140;" 
d="M614 395c80 0 146 -51 146 -129v-56c0 -80 -66 -132 -146 -132s-146 52 -146 132v56c0 78 66 129 146 129zM334 356v134h-184v68h259v-264h-179v-142h83c38 0 96 4 123 8v-66c-37 -6 -96 -10 -156 -10h-128v272h182zM787 430h-351v67h141v79l79 12v-91h145zM614 328
c-37 0 -68 -25 -68 -79v-22c0 -56 31 -82 68 -82s68 26 68 82v22c0 54 -31 79 -68 79z" />
    <glyph glyph-name="Korea1.374" unicode="&#x3141;" 
d="M185 540h547v-421l-82 -13h-465v434zM267 176h383v294h-383v-294z" />
    <glyph glyph-name="Korea1.375" unicode="&#x3142;" 
d="M267 157h383v163h-383v-163zM267 391h383v165h82v-457l-82 -13h-465v470h82v-165z" />
    <glyph glyph-name="Korea1.376" unicode="&#x3143;" 
d="M760 554v-452l-80 -13h-520v465h80v-163h181v163h85v-163h174v163h80zM506 159h174v162h-174v-162zM240 159h181v162h-181v-162z" />
    <glyph glyph-name="Korea1.377" unicode="&#x3144;" 
d="M207 157h155v178h-155v-178zM440 560v-458l-78 -13h-235v471h80v-157h155v157h78zM683 563v-205c0 -21 1 -42 16 -60c42 -53 86 -107 137 -166l-55 -51c-50 58 -93 107 -137 160c-41 -53 -89 -111 -132 -164l-58 47c51 63 91 111 130 168c13 19 20 39 20 60v199z" />
    <glyph glyph-name="Korea1.378" unicode="&#x3145;" 
d="M522 376c64 -62 201 -174 285 -239l-55 -54c-92 68 -202 158 -293 239c-91 -84 -181 -160 -292 -238l-53 56c85 65 210 171 279 236c16 15 24 36 24 59v121l85 12v-133c0 -23 3 -43 20 -59z" />
    <glyph glyph-name="Korea1.379" unicode="&#x3146;" 
d="M345 565v-143c0 -23 4 -50 12 -67c23 -52 66 -118 100 -160c35 41 76 106 101 155c9 17 14 43 14 66v136l81 13v-143c0 -23 1 -41 10 -60c30 -61 90 -146 153 -217l-54 -52c-54 58 -116 133 -151 185c-44 -64 -95 -132 -154 -187c-55 51 -115 128 -153 187
c-36 -56 -100 -133 -157 -192l-56 52c70 78 129 154 162 219c10 19 13 39 13 62v133z" />
    <glyph glyph-name="Korea1.380" unicode="&#x3147;" 
d="M365 105c-112 0 -192 82 -192 222s80 222 192 222h193c112 0 192 -82 192 -222s-80 -222 -192 -222h-193zM379 479c-79 0 -124 -58 -124 -152s43 -152 124 -152h165c79 0 124 58 124 152s-45 152 -124 152h-165z" />
    <glyph glyph-name="Korea1.381" unicode="&#x3148;" 
d="M740 484h-238v-69c0 -23 3 -42 20 -59c63 -63 194 -167 280 -230l-51 -58c-92 68 -202 154 -292 235c-90 -84 -186 -159 -292 -233l-50 59c88 62 212 160 279 227c16 16 21 36 21 59v69h-249v70h585z" />
    <glyph glyph-name="Korea1.382" unicode="&#x3149;" 
d="M770 488h-120v-74c0 -23 1 -41 10 -60c30 -62 86 -146 151 -217l-54 -51c-55 58 -111 133 -146 185c-43 -65 -93 -133 -151 -187c-55 50 -113 127 -150 187c-36 -56 -94 -133 -152 -192l-55 50c72 78 124 154 157 220c10 19 13 39 13 62v77h-131v70h641zM558 341
c8 17 14 44 14 67v80h-221v-74c0 -23 5 -51 12 -68c22 -53 63 -117 97 -158c35 40 74 103 98 153z" />
    <glyph glyph-name="Korea1.383" unicode="&#x314a;" 
d="M750 420h-248v-35c0 -23 2 -45 20 -61c66 -60 188 -157 274 -216l-50 -56c-92 64 -194 143 -287 221c-94 -80 -182 -149 -287 -219l-49 57c87 59 202 150 273 213c17 15 21 38 21 61v35h-259v72h259v104l85 12v-116h261z" />
    <glyph glyph-name="Korea1.384" unicode="&#x314b;" 
d="M643 268c-156 -17 -331 -20 -487 -20v70c149 0 344 3 495 19c5 46 8 94 10 145h-490v71h574c-2 -162 -20 -331 -60 -490h-85c19 71 34 137 43 205z" />
    <glyph glyph-name="Korea1.385" unicode="&#x314c;" 
d="M267 287v-130h481l-13 -70h-550v467h547v-70h-465v-126h461v-71h-461z" />
    <glyph glyph-name="Korea1.386" unicode="&#x314d;" 
d="M341 439l8 -269h223l8 269h81l-9 -269h133l-13 -70h-632v70h129l-8 269h80zM745 478h-573v70h573v-70z" />
    <glyph glyph-name="Korea1.387" unicode="&#x314e;" 
d="M346 73c-109 0 -178 59 -178 160s69 160 178 160h224c109 0 178 -59 178 -160s-69 -160 -178 -160h-224zM357 323c-72 0 -107 -34 -107 -90s35 -90 107 -90h202c72 0 107 34 107 90s-35 90 -107 90h-202zM781 454h-654v71h293v99l82 12v-111h296z" />
    <glyph glyph-name="Korea1.388" unicode="&#x314f;" 
d="M478 757v-358h187l-13 -76h-174v-447l-80 -13v881z" />
    <glyph glyph-name="Korea1.389" unicode="&#x3150;" 
d="M401 744v-320h128v320l79 13v-881l-79 -13v488h-128v-446l-79 -13v839z" />
    <glyph glyph-name="Korea1.390" unicode="&#x3151;" 
d="M601 182h-144v-306l-79 -13v881l79 13v-218h157l-13 -70h-144v-216h157z" />
    <glyph glyph-name="Korea1.391" unicode="&#x3152;" 
d="M401 744v-192h128v192l79 13v-881l-79 -13v362h-128v-320l-79 -13v839zM401 482v-187h128v187h-128z" />
    <glyph glyph-name="Korea1.392" unicode="&#x3153;" 
d="M465 -137v500h-197v72h197v309l80 13v-881z" />
    <glyph glyph-name="Korea1.393" unicode="&#x3154;" 
d="M424 -108v469h-133v74h133v296l78 13v-839zM597 744l79 13v-881l-79 -13v881z" />
    <glyph glyph-name="Korea1.394" unicode="&#x3155;" 
d="M475 -137v373h-187v71h187v175h-188v70h188v192l80 13v-881z" />
    <glyph glyph-name="Korea1.395" unicode="&#x3156;" 
d="M428 -108v288h-151v68h151v205h-151v68h151v210l79 13v-839zM597 744l79 13v-881l-79 -13v881z" />
    <glyph glyph-name="Korea1.396" unicode="&#x3157;" 
d="M34 177h387v281h89v-281h374l-13 -70h-837v70z" />
    <glyph glyph-name="Korea1.397" unicode="&#x3158;" 
d="M757 757v-369h136l-13 -72h-123v-440l-80 -13v881zM377 338v-212c95 4 194 12 251 23v-71c-124 -17 -321 -25 -468 -25h-107v70h240v215h84z" />
    <glyph glyph-name="Korea1.398" unicode="&#x3159;" 
d="M623 744v-344h96v344l79 13v-881l-79 -13v465h-96v-423l-79 -13v839zM67 119h183v230h81v-227c62 5 125 12 173 23v-71c-88 -17 -240 -25 -358 -25h-79v70z" />
    <glyph glyph-name="Korea1.399" unicode="&#x315a;" 
d="M390 338v-212c99 4 204 12 262 23v-71c-124 -17 -329 -25 -475 -25h-106v70h235v215h84zM701 744l81 13v-881l-81 -13v881z" />
    <glyph glyph-name="Korea1.400" unicode="&#x315b;" 
d="M34 189h233v269h80v-269h221v269h80v-269h236l-13 -70h-837v70z" />
    <glyph glyph-name="Korea1.401" unicode="&#x315c;" 
d="M871 364h-363v-376l-85 -13v389h-389v70h850z" />
    <glyph glyph-name="Korea1.402" unicode="&#x315d;" 
d="M701 -137v205l-209 -4v75h209v605l81 13v-881zM370 253v-358l-83 -13v368h-216v70h197c98 0 293 14 384 33v-70c-76 -13 -174 -24 -282 -30z" />
    <glyph glyph-name="Korea1.403" unicode="&#x315e;" 
d="M556 -108v204h-172v68h172v567l81 13v-839zM714 744l80 13v-881l-80 -13v881zM321 265v-352l-79 -13v363c-29 -1 -60 -1 -91 -1h-88v70h173c70 0 203 6 281 23v-68c-47 -11 -117 -18 -196 -22z" />
    <glyph glyph-name="Korea1.404" unicode="&#x315f;" 
d="M392 241v-346l-82 -13v355c-33 -1 -65 -1 -93 -1h-146v71h199c116 0 288 11 382 29v-70c-75 -12 -169 -20 -260 -25zM782 757v-881l-81 -13v881z" />
    <glyph glyph-name="Korea1.405" unicode="&#x3160;" 
d="M582 368h-231v-378l-82 -13v391h-235v70h850l-13 -70h-206v-386l-83 -13v399z" />
    <glyph glyph-name="Korea1.406" unicode="&#x3161;" 
d="M884 343l-13 -71h-837v71h850z" />
    <glyph glyph-name="Korea1.407" unicode="&#x3162;" 
d="M782 757v-881l-81 -13v881zM207 65h-136v70h199c98 0 288 14 382 29v-70c-145 -21 -315 -29 -445 -29z" />
    <glyph glyph-name="Korea1.408" unicode="&#x3163;" 
d="M503 757v-881l-81 -13v881z" />
    <glyph glyph-name="Korea1.409" unicode="&#x3165;" 
d="M775 130v-66h-296v472h78v-406h218zM449 130v-66h-296v472h77v-406h219z" />
    <glyph glyph-name="Korea1.410" unicode="&#x3166;" 
d="M775 130v-66h-296v472h296v-66h-218v-340h218zM449 130v-66h-296v472h77v-406h219z" />
    <glyph glyph-name="Korea1.411" unicode="&#x3167;" 
d="M427 120v-60h-286v480h76v-420h210zM851 83l-52 -44c-20 7 -65 43 -95 79c-23 27 -53 77 -58 108c-6 -31 -36 -81 -59 -108c-27 -36 -77 -72 -95 -79l-51 44c40 16 96 77 130 135c21 42 39 132 39 211v111h73v-111c0 -80 18 -169 38 -210c32 -61 93 -119 130 -136z" />
    <glyph glyph-name="Korea1.412" unicode="&#x3168;" 
d="M628 574l178 -509h-355zM440 131v-66h-286v471h78v-405h208zM545 130h165l-81 239z" />
    <glyph glyph-name="Korea1.413" unicode="&#x3169;" 
d="M892 101l-48 -47c-25 10 -57 34 -82 61c-22 22 -44 57 -53 84c-11 -27 -33 -63 -52 -84c-26 -28 -61 -53 -84 -62l-32 31v-20h-69v405h-169v67h238v-428c42 20 81 63 103 111c20 42 32 137 32 213v104h66v-104c0 -76 11 -171 32 -213c24 -52 72 -100 118 -118zM283 130
v-66h-231v268h155v137h-155v67h231v-270h-162v-136h162z" />
    <glyph glyph-name="Korea1.414" unicode="&#x316a;" 
d="M775 130v-66h-296v472h296v-66h-220v-340h220zM449 130v-66h-297v268h218v138h-218v66h297v-270h-219v-136h219z" />
    <glyph glyph-name="Korea1.415" unicode="&#x316b;" 
d="M898 101l-47 -47c-26 10 -58 34 -82 61c-21 22 -45 57 -55 84c-10 -27 -34 -63 -51 -84c-25 -28 -61 -53 -85 -62l-15 17v-6h-235v472h67v-168h104v168h68v-417c34 23 65 60 82 100c21 42 32 137 32 213v104h68v-104c0 -76 9 -171 31 -213c24 -52 72 -100 118 -118z
M298 130v-66h-229v268h160v137h-160v67h229v-270h-161v-136h161zM395 130h104v172h-104v-172z" />
    <glyph glyph-name="Korea1.416" unicode="&#x316c;" 
d="M638 574l177 -509h-353zM450 131v-66h-297v268h218v137h-218v66h297v-270h-220v-135h220zM554 130h167l-83 239z" />
    <glyph glyph-name="Korea1.417" unicode="&#x316d;" 
d="M798 536v-67h-327v67h327zM636 352c88 0 160 -69 160 -154c0 -84 -72 -154 -160 -154c-89 0 -161 70 -161 154c0 85 72 154 161 154zM450 130v-66h-298v268h219v137h-219v67h298v-271h-220v-135h220zM636 109c50 0 89 41 89 89c0 49 -39 90 -89 90s-91 -41 -91 -90
c0 -48 41 -89 91 -89z" />
    <glyph glyph-name="Korea1.418" unicode="&#x316e;" 
d="M775 536v-472h-296v472h78v-166h140v166h78zM449 536v-472h-296v472h296zM557 130h140v173h-140v-173zM230 130h140v340h-140v-340z" />
    <glyph glyph-name="Korea1.419" unicode="&#x316f;" 
d="M445 540v-480h-308v480h308zM886 83l-54 -44c-19 7 -66 43 -100 79c-22 27 -54 77 -59 108c-6 -31 -39 -81 -62 -108c-29 -36 -80 -72 -98 -79l-53 44c40 16 101 77 133 135c24 42 41 132 41 211v111h77v-111c0 -80 18 -169 40 -210c34 -61 94 -119 135 -136zM214 120
h155v360h-155v-360z" />
    <glyph glyph-name="Korea1.420" unicode="&#x3170;" 
d="M636 574l178 -509h-354zM442 536v-471h-295v471h295zM552 130h166l-82 242zM225 131h140v339h-140v-339z" />
    <glyph glyph-name="Korea1.421" unicode="&#x3171;" 
d="M699 671v-353h-470v353h470zM464 297c140 0 242 -80 242 -190c0 -111 -103 -191 -242 -191c-140 0 -243 80 -243 191c0 110 103 190 243 190zM305 385h316v220h-316v-220zM464 -17c99 0 167 51 167 124c0 71 -68 123 -167 123c-97 0 -168 -53 -168 -123
c0 -72 73 -124 168 -124z" />
    <glyph glyph-name="Korea1.422" unicode="&#x3172;" 
d="M795 536v-475h-79v409h-236v66h315zM450 536v-472h-297v472h79v-169h138v169h80zM232 130h138v171h-138v-171z" />
    <glyph glyph-name="Korea1.423" unicode="&#x3173;" 
d="M775 130v-66h-296v472h296v-66h-220v-340h220zM449 536v-472h-296v472h77v-169h140v169h79zM230 130h140v171h-140v-171z" />
    <glyph glyph-name="Korea1.424" unicode="&#x3174;" 
d="M833 536v-472h-70v405h-169v67h239zM676 100l-49 -47c-25 10 -58 35 -82 63c-20 21 -44 57 -54 84c-10 -27 -32 -63 -51 -84c-25 -29 -61 -54 -85 -63l-29 29v-18h-241v472h67v-168h106v168h68v-427c43 22 80 65 100 111c19 42 33 136 33 212v104h67v-104
c0 -76 11 -170 30 -212c25 -50 71 -99 120 -120zM152 130h106v172h-106v-172z" />
    <glyph glyph-name="Korea1.425" unicode="&#x3175;" 
d="M837 130v-66h-200l-18 -15c-13 5 -28 17 -34 21c-17 11 -39 27 -57 46c-19 22 -42 57 -51 84c-9 -27 -33 -63 -52 -84c-25 -29 -59 -54 -84 -63c-1 1 -14 14 -17 16c-1 1 -1 -3 -1 -4l-3 -1h-232v472h68v-168h104v168h68v-417c34 23 66 61 84 101c19 41 31 136 31 212
v104h68v-104c0 -76 10 -171 32 -212c19 -40 51 -79 85 -102v418h209v-67h-133v-339h133zM156 130h104v172h-104v-172z" />
    <glyph glyph-name="Korea1.426" unicode="&#x3176;" 
d="M817 98l-51 -48c-28 9 -73 48 -97 76c-19 22 -42 62 -51 91c-11 -30 -36 -70 -53 -92c-26 -29 -78 -67 -102 -75l-20 17l-2 -3h-288v472h79v-169h139v169h78v-413c33 25 76 64 95 106c20 41 34 123 34 199v41h-106v67h301v-67h-117v-41c0 -77 16 -158 34 -199
c25 -57 82 -109 127 -131zM232 130h139v171h-139v-171z" />
    <glyph glyph-name="Korea1.427" unicode="&#x3177;" 
d="M775 130v-66h-296v472h296v-66h-218v-137h212v-66h-212v-137h218zM449 536v-472h-296v472h77v-169h140v169h79zM230 130h140v171h-140v-171z" />
    <glyph glyph-name="Korea1.428" unicode="&#x3178;" 
d="M699 671v-353h-470v353h76v-111h317v111h77zM464 296c140 0 241 -79 241 -189s-102 -190 -241 -190c-138 0 -241 80 -241 190s103 189 241 189zM305 384h317v110h-317v-110zM464 -17c98 0 166 51 166 124c0 70 -68 123 -166 123c-97 0 -168 -54 -168 -123
c0 -71 73 -124 168 -124z" />
    <glyph glyph-name="Korea1.429" unicode="&#x3179;" 
d="M717 671v-353h-238v353h66v-114h105v114h67zM449 671v-353h-239v353h66v-114h105v114h68zM464 296c140 0 241 -79 241 -189s-102 -190 -241 -190c-138 0 -241 80 -241 190s103 189 241 189zM546 382h106v112h-106v-112zM277 382h107v112h-107v-112zM464 -17
c98 0 166 51 166 124c0 70 -68 123 -166 123c-97 0 -168 -54 -168 -123c0 -71 73 -124 168 -124z" />
    <glyph glyph-name="Korea1.430" unicode="&#x317a;" 
d="M774 536v-475h-79v408h-235v67h314zM530 96l-56 -46c-24 7 -66 40 -97 76c-22 22 -47 64 -57 97c-11 -33 -38 -75 -56 -97c-31 -36 -77 -69 -97 -76l-57 47c46 17 99 73 130 132c20 40 39 126 39 202v105h81v-105c0 -77 20 -162 38 -202c32 -61 87 -113 132 -133z" />
    <glyph glyph-name="Korea1.431" unicode="&#x317b;" 
d="M784 130v-66h-296v13l-35 -27c-22 7 -64 40 -97 76c-20 22 -45 64 -56 97c-10 -33 -37 -75 -57 -97c-30 -36 -76 -69 -97 -76l-56 47c46 17 100 73 131 132c19 40 39 126 39 202v105h80v-105c0 -77 21 -162 40 -202c26 -53 70 -99 108 -121v428h79v-406h217z" />
    <glyph glyph-name="Korea1.432" unicode="&#x317c;" 
d="M784 130v-66h-296v13l-35 -27c-22 7 -64 40 -97 76c-20 22 -45 64 -56 97c-10 -33 -37 -75 -57 -97c-30 -36 -76 -69 -97 -76l-56 47c46 17 100 73 131 132c19 40 39 126 39 202v105h80v-105c0 -77 21 -162 40 -202c26 -53 70 -99 108 -121v428h296v-67h-221v-339h221z
" />
    <glyph glyph-name="Korea1.433" unicode="&#x317d;" 
d="M784 536v-472h-296v13l-35 -27c-22 7 -64 40 -97 76c-20 22 -45 64 -56 97c-10 -33 -37 -75 -57 -97c-30 -36 -76 -69 -97 -76l-56 47c46 17 100 73 131 132c19 40 39 126 39 202v105h80v-105c0 -77 21 -162 40 -202c26 -53 70 -99 108 -121v428h77v-160h141v160h78z
M565 130h141v180h-141v-180z" />
    <glyph glyph-name="Korea1.434" unicode="&#x317e;" 
d="M827 99l-55 -49c-22 7 -63 39 -96 75c-20 22 -47 65 -57 97c-11 -32 -39 -75 -57 -97c-32 -35 -75 -67 -97 -75c-22 8 -63 40 -96 76c-20 22 -46 64 -57 97c-10 -33 -38 -75 -57 -97c-29 -36 -76 -69 -96 -76l-57 47c46 17 100 73 130 132c22 40 40 126 40 202v105h79
v-105c0 -77 21 -162 40 -202c18 -38 45 -71 74 -93c28 22 54 57 72 94c21 40 41 125 41 201v38h-126v67h334v-67h-129v-38c0 -77 21 -160 41 -201c31 -62 85 -112 129 -131z" />
    <glyph glyph-name="Korea1.435" unicode="&#x317f;" 
d="M464 611l240 -541h-479zM329 136h268l-133 312z" />
    <glyph glyph-name="Korea1.436" unicode="&#x3180;" 
d="M479 299c0 163 73 253 173 253c102 0 174 -90 174 -253c0 -161 -72 -253 -174 -253c-100 0 -173 92 -173 253zM102 299c0 163 73 253 173 253c102 0 174 -90 174 -253c0 -161 -72 -253 -174 -253c-100 0 -173 92 -173 253zM652 110c64 0 103 74 103 190
c0 114 -39 188 -103 188c-65 0 -105 -74 -105 -188c0 -116 40 -190 105 -190zM276 110c64 0 103 74 103 190c0 114 -39 188 -103 188c-65 0 -105 -74 -105 -188c0 -116 40 -190 105 -190z" />
    <glyph glyph-name="Korea1.437" unicode="&#x3181;" 
d="M505 665v-166c141 -17 236 -129 236 -277c0 -162 -115 -279 -277 -279c-160 0 -279 118 -279 279c0 148 100 259 239 277v166h81zM464 14c117 0 203 88 203 208c0 118 -85 208 -203 208c-116 0 -202 -91 -202 -208c0 -119 86 -208 202 -208z" />
    <glyph glyph-name="Korea1.438" unicode="&#x3182;" 
d="M848 99l-56 -48c-22 8 -65 42 -98 79c-18 21 -45 61 -56 94c-10 -33 -38 -75 -55 -96c-31 -36 -78 -69 -99 -77l-55 49c48 18 100 74 132 133c21 40 38 125 38 201v104h79v-104c0 -77 18 -161 37 -200c32 -62 89 -115 133 -135zM335 554v-111c80 -16 135 -84 135 -194
c0 -127 -75 -194 -176 -194s-175 67 -175 194c0 112 56 181 140 196v109h76zM294 117c59 0 100 46 100 132c0 87 -41 135 -100 135s-101 -48 -101 -135c0 -86 42 -132 101 -132z" />
    <glyph glyph-name="Korea1.439" unicode="&#x3183;" 
d="M627 574l179 -510h-356zM332 554v-110c82 -17 137 -85 137 -195c0 -127 -74 -194 -175 -194s-176 67 -176 194c0 112 57 181 140 196v109h74zM545 129h164l-82 242zM294 118c57 0 99 46 99 131c0 87 -42 136 -99 136c-60 0 -100 -49 -100 -136c0 -85 40 -131 100 -131z
" />
    <glyph glyph-name="Korea1.440" unicode="&#x3184;" 
d="M708 381v-66h-488v66h89v224h-89v66h488v-66h-89v-224h89zM464 298c140 0 243 -80 243 -191s-103 -192 -243 -192s-243 81 -243 192s103 191 243 191zM386 381h157v224h-157v-224zM464 -20c100 0 169 53 169 127c0 72 -69 126 -169 126c-98 0 -169 -55 -169 -126
c0 -73 73 -127 169 -127z" />
    <glyph glyph-name="Korea1.441" unicode="&#x3185;" 
d="M770 436v-66h-297v66h108v73c0 23 1 43 -2 67h84c-2 -24 -2 -44 -2 -67v-73h109zM621 331c83 0 147 -69 147 -154c0 -84 -64 -154 -147 -154c-81 0 -143 70 -143 154c0 85 62 154 143 154zM444 436v-66h-296v66h103v73c0 23 1 43 -2 67h84c-2 -24 -2 -44 -2 -67v-73h113z
M296 331c81 0 145 -69 145 -154c0 -84 -64 -154 -145 -154s-145 70 -145 154c0 85 64 154 145 154zM621 86c43 0 78 40 78 92s-35 93 -78 93c-40 0 -76 -41 -76 -93s36 -92 76 -92zM296 86c41 0 76 40 76 92s-35 93 -76 93c-42 0 -78 -41 -78 -93s36 -92 78 -92z" />
    <glyph glyph-name="Korea1.442" unicode="&#x3186;" 
d="M717 633v-67h-507v67h507zM464 463c141 0 243 -97 243 -230s-103 -230 -243 -230c-141 0 -243 97 -243 230s102 230 243 230zM464 69c98 0 168 68 168 164c0 94 -70 164 -168 164c-96 0 -169 -71 -169 -164c0 -94 75 -164 169 -164z" />
    <glyph glyph-name="Korea1.443" unicode="&#x3187;" 
d="M881 254v-75h-149v-332h-83v892h83v-253h149v-74h-149v-158h149zM627 187v-69c-73 -10 -155 -17 -232 -20c-119 -5 -334 -4 -334 -4v69h138v295h78v-294c49 0 88 1 113 2c7 0 14 4 21 4v288h78v-287c53 4 92 9 138 16z" />
    <glyph glyph-name="Korea1.444" unicode="&#x3188;" 
d="M810 740v-893h-76v332h-98v-306h-78v857h78v-242h98v252h76zM537 202v-72c-45 -7 -157 -22 -249 -23c-88 -1 -232 -1 -232 -1v71h105v291h76v-291c41 0 69 4 102 4v287h78v-282c32 3 83 8 120 16zM636 251h98v164h-98v-164z" />
    <glyph glyph-name="Korea1.445" unicode="&#x3189;" 
d="M782 739v-892h-82v892h82zM677 188v-71c-75 -9 -158 -18 -238 -21c-118 -5 -344 -4 -344 -4v71h135v296h79v-295c49 0 95 2 139 3v292h80v-287c56 4 100 9 149 16z" />
    <glyph glyph-name="Korea1.446" unicode="&#x318a;" 
d="M824 739v-892h-82v163h-215v68h215v73h-215v68h215v520h82zM695 384v-73c-66 -11 -87 -13 -192 -18c-6 0 -12 0 -21 -1c-1 0 -3 1 -16 1v-383h-77v380h-118v-380h-78v380h-114v71s293 -1 393 2c104 4 167 7 223 21z" />
    <glyph glyph-name="Korea1.447" unicode="&#x318b;" 
d="M834 739v-892h-79v892h79zM677 730v-857h-77v157h-163v67h163v90h-163v68h163v475h77zM551 430v-70c-51 -10 -69 -13 -130 -16c-7 -1 -15 -1 -23 -1v-433h-75v431c-26 0 -53 -1 -83 -1v-430h-75v430h-103v70s246 -1 326 3c82 4 127 10 163 17z" />
    <glyph glyph-name="Korea1.448" unicode="&#x318c;" 
d="M824 739v-892h-82v892h82zM715 386v-73c-51 -8 -94 -14 -168 -19v-384h-78v381c-44 -1 -99 -1 -136 -1v-380h-80v379l-164 1v72s199 -1 333 1c88 1 242 13 293 23z" />
    <glyph glyph-name="Korea1.449" unicode="&#x318d;" 
d="M464 363c36 0 63 -28 63 -63s-27 -63 -63 -63c-37 0 -64 28 -64 63s27 63 64 63z" />
    <glyph glyph-name="Korea1.450" unicode="&#x318e;" 
d="M345 360c35 0 60 -25 60 -60s-25 -60 -60 -60s-59 25 -59 60s24 60 59 60zM614 739v-893h-75v893h75z" />
    <glyph glyph-name="Korea1.451" unicode="&#x2170;" 
d="M501 686v-76h-80v76h80zM500 486v-548h-76v548h76z" />
    <glyph glyph-name="Korea1.452" unicode="&#x2171;" 
d="M645 685v-76h-79v76h79zM351 685v-76h-78v76h78zM642 485v-548h-74v548h74zM349 485v-548h-74v548h74z" />
    <glyph glyph-name="Korea1.453" unicode="&#x2172;" 
d="M684 685v-76h-80v76h80zM499 685v-76h-81v76h81zM313 685v-76h-79v76h79zM681 485v-548h-75v548h75zM497 485v-548h-76v548h76zM311 485v-548h-75v548h75z" />
    <glyph glyph-name="Korea1.454" unicode="&#x2173;" 
d="M243 686v-76h-79v76h79zM750 486h79l-227 -548h-85l-226 548h79l191 -463zM239 486v-548h-73v548h73z" />
    <glyph glyph-name="Korea1.455" unicode="&#x2174;" 
d="M651 485h80l-226 -548h-87l-225 548h79l191 -463z" />
    <glyph glyph-name="Korea1.456" unicode="&#x2175;" 
d="M782 686v-76h-79v76h79zM778 486v-548h-73v548h73zM565 486h80l-229 -548h-83l-227 548h79l192 -463z" />
    <glyph glyph-name="Korea1.457" unicode="&#x2176;" 
d="M818 686v-76h-73v76h73zM670 686v-76h-74v76h74zM816 486v-548h-68v548h68zM668 486v-548h-69v548h69zM473 486h74l-199 -548h-83l-200 548h75l166 -463z" />
    <glyph glyph-name="Korea1.458" unicode="&#x2177;" 
d="M874 686v-76h-73v76h73zM734 686v-76h-75v76h75zM594 686v-76h-75v76h75zM872 486v-548h-69v548h69zM732 486v-548h-70v548h70zM593 486v-548h-72v548h72zM400 486h78l-190 -548h-85l-186 548h75l154 -463z" />
    <glyph glyph-name="Korea1.459" unicode="&#x2178;" 
d="M250 686v-76h-78v76h78zM583 218l213 -280h-84l-171 224l-171 -224h-84l213 280l-204 268h84l162 -212l162 212h83zM247 486v-548h-72v548h72z" />
    <glyph glyph-name="Korea1.460" unicode="&#x2179;" 
d="M505 218l215 -280h-87l-172 223l-173 -223h-87l215 280l-205 268h87l163 -211l161 211h89z" />
    <glyph glyph-name="Korea1.461" unicode="&#x2160;" 
d="M495 684v-746h-75v746h75z" />
    <glyph glyph-name="Korea1.462" unicode="&#x2161;" 
d="M646 684v-746h-74v746h74zM342 684v-746h-74v746h74z" />
    <glyph glyph-name="Korea1.463" unicode="&#x2162;" 
d="M695 684v-746h-76v746h76zM496 684v-746h-76v746h76zM296 684v-746h-75v746h75z" />
    <glyph glyph-name="Korea1.464" unicode="&#x2163;" 
d="M730 684h77l-229 -746h-87l-227 746h77l195 -663zM219 684v-746h-74v746h74z" />
    <glyph glyph-name="Korea1.465" unicode="&#x2164;" 
d="M718 684h78l-288 -746h-87l-288 746h78l253 -663z" />
    <glyph glyph-name="Korea1.466" unicode="&#x2165;" 
d="M774 684v-746h-74v746h74zM574 684h75l-227 -746h-86l-228 746h77l195 -663z" />
    <glyph glyph-name="Korea1.467" unicode="&#x2166;" 
d="M816 684v-746h-68v746h68zM667 684v-746h-70v746h70zM472 684h75l-198 -746h-85l-199 746h77l163 -663z" />
    <glyph glyph-name="Korea1.468" unicode="&#x2167;" 
d="M872 684v-746h-69v746h69zM732 684v-746h-68v746h68zM592 684v-746h-71v746h71zM405 684h77l-186 -746h-86l-187 746h78l151 -663z" />
    <glyph glyph-name="Korea1.469" unicode="&#x2168;" 
d="M574 324l255 -386h-85l-214 322l-215 -322h-83l257 387l-240 359h84l197 -294l197 294h85zM189 684v-746h-70v746h70z" />
    <glyph glyph-name="Korea1.470" unicode="&#x2169;" 
d="M505 325l255 -387h-83l-215 322l-216 -322h-83l255 386l-237 360h84l197 -294l196 294h84z" />
    <glyph glyph-name="Korea1.471" unicode="&#x391;" 
d="M684 673l81 -736h-84l-19 196h-361l-133 -196h-88l496 736h108zM347 206h305l-40 395z" />
    <glyph glyph-name="Korea1.472" unicode="&#x392;" 
d="M335 672l215 -1c69 -1 118 -17 152 -56c29 -31 42 -71 42 -115c0 -84 -46 -138 -150 -183c85 -36 126 -96 126 -179c0 -59 -26 -118 -66 -152c-39 -33 -94 -51 -163 -51h-372zM326 361h171c92 0 164 61 164 131c0 63 -48 107 -118 107h-146zM308 288l-84 -280h267
c93 0 150 51 150 131c0 83 -63 149 -144 149h-189z" />
    <glyph glyph-name="Korea1.473" unicode="&#x393;" 
d="M791 526l-75 -26l-30 84h-280l-169 -649h-84l191 737h398z" />
    <glyph glyph-name="Korea1.474" unicode="&#x394;" 
d="M185 9h490v554zM44 -64l644 735h72v-735h-716z" />
    <glyph glyph-name="Korea1.475" unicode="&#x395;" 
d="M128 -65l222 737h436l-24 -73h-350l-76 -247h340l-26 -73h-336l-84 -271h374l-21 -73h-455z" />
    <glyph glyph-name="Korea1.476" unicode="&#x396;" 
d="M136 -64l13 69l498 588h-374l23 79h481l-18 -70l-500 -587h408l-19 -79h-512z" />
    <glyph glyph-name="Korea1.477" unicode="&#x397;" 
d="M277 673h86l-86 -324h393l83 324h83l-192 -737h-81l89 339h-393l-90 -339h-84z" />
    <glyph glyph-name="Korea1.478" unicode="&#x398;" 
d="M726 594c43 -44 61 -108 61 -189c0 -151 -65 -316 -157 -397c-57 -53 -128 -78 -215 -78c-181 0 -275 94 -275 271c0 111 43 245 108 344c60 89 146 130 258 130c89 0 173 -30 220 -81zM323 515c-65 -89 -105 -202 -105 -315c0 -90 23 -138 73 -168
c29 -18 74 -29 124 -29c77 0 137 27 186 81c62 70 110 209 110 328c0 89 -29 137 -89 166c-30 16 -72 26 -113 26c-87 0 -139 -27 -186 -89zM379 390l-13 -55h191l14 55h46l-41 -175h-47l15 54h-191l-14 -54h-45l38 175h47z" />
    <glyph glyph-name="Korea1.479" unicode="&#x399;" 
d="M312 -65l195 737h90l-195 -737h-90z" />
    <glyph glyph-name="Korea1.480" unicode="&#x39a;" 
d="M578 -61l-264 312l-83 -312h-82l189 729h83l-80 -301l335 301h106l-414 -370l308 -359h-98z" />
    <glyph glyph-name="Korea1.481" unicode="&#x39b;" 
d="M591 -54l1 605l-401 -605h-88l469 717h100l3 -717h-84z" />
    <glyph glyph-name="Korea1.482" unicode="&#x39c;" 
d="M338 -64l-31 636l-156 -636h-79l177 736h131l29 -599l282 599h142l-177 -736h-83l150 629l-299 -629h-86z" />
    <glyph glyph-name="Korea1.483" unicode="&#x39d;" 
d="M614 -65h-109l-161 626l-160 -626h-86l193 737h110l160 -635l166 635h87z" />
    <glyph glyph-name="Korea1.484" unicode="&#x39e;" 
d="M729 538h-59l10 55h-294l-16 -55h-63l31 134h426zM643 270h-376l21 79h376zM607 69h64l-36 -134h-478l33 134h63l-13 -55h351z" />
    <glyph glyph-name="Korea1.485" unicode="&#x39f;" 
d="M674 617c60 -43 88 -102 88 -198c0 -129 -49 -276 -130 -380c-48 -68 -114 -99 -202 -99c-165 0 -268 88 -268 232c0 107 33 224 90 329c67 118 137 164 253 164c67 0 123 -16 169 -48zM347 497c-60 -99 -104 -234 -104 -320c0 -46 11 -77 36 -105c33 -32 84 -51 141 -51
c93 0 144 35 197 148c40 80 67 185 67 261c0 70 -28 115 -90 141c-27 11 -62 17 -89 17c-72 0 -117 -27 -158 -91z" />
    <glyph glyph-name="Korea1.486" unicode="&#x3a0;" 
d="M771 597h-52l-149 -657h-84l148 657h-262l-153 -657h-84l155 657h-82l18 72h565z" />
    <glyph glyph-name="Korea1.487" unicode="&#x3a1;" 
d="M166 -60l148 728h214c126 0 199 -75 199 -204c0 -76 -28 -144 -80 -181c-37 -27 -82 -40 -147 -40l-191 -1l-62 -302h-81zM381 596l-57 -280h163c43 0 79 8 102 23c31 23 53 74 53 131c0 85 -43 126 -135 126h-126z" />
    <glyph glyph-name="Korea1.488" unicode="&#x3a3;" 
d="M145 15l294 314l-167 265l22 74h447l-16 -72h-372l176 -271l-297 -314h405l-19 -72h-492z" />
    <glyph glyph-name="Korea1.489" unicode="&#x3a4;" 
d="M704 596h-193l-134 -657h-83l132 657h-223l18 72h499z" />
    <glyph glyph-name="Korea1.490" unicode="&#x3a5;" 
d="M380 -65h-78l60 373c6 34 9 66 9 89c0 104 -38 164 -135 206l29 74c73 -27 112 -55 141 -104c16 -24 24 -48 28 -85c31 70 68 110 128 142c49 28 89 38 172 42l-20 -87c-95 -9 -158 -42 -206 -112c-31 -45 -59 -113 -73 -198z" />
    <glyph glyph-name="Korea1.491" unicode="&#x3a6;" 
d="M584 661l-14 -63c57 -6 87 -15 124 -36c63 -37 100 -108 100 -193c0 -108 -54 -218 -126 -288c-65 -63 -143 -84 -259 -84l-15 -52h-82l18 54c-140 23 -209 104 -209 245c0 129 62 244 165 307c56 34 112 48 205 52l17 58h76zM349 73l123 453c-65 -2 -107 -14 -146 -37
c-71 -43 -124 -147 -124 -245c0 -99 49 -158 147 -171zM550 524l-123 -454c69 2 100 11 138 32c88 50 148 153 148 257c0 101 -50 154 -163 165z" />
    <glyph glyph-name="Korea1.492" unicode="&#x3a7;" 
d="M578 -66l-143 307l-256 -307h-93l317 379l-163 361h84l133 -290l226 290h93l-287 -367l175 -373h-86z" />
    <glyph glyph-name="Korea1.493" unicode="&#x3a8;" 
d="M379 -66h-80l42 215c-73 3 -110 11 -143 29c-49 26 -78 83 -78 146c0 42 9 92 34 184c13 46 19 80 19 92c0 24 -4 34 -13 39c-7 3 -15 6 -15 15c0 8 7 8 15 9c33 4 94 16 94 -33c0 -15 -10 -59 -22 -106c-10 -37 -23 -96 -30 -130c-5 -23 -9 -50 -9 -68
c0 -78 28 -101 163 -106l92 446h79l-93 -446h7c158 0 187 28 242 263l12 52c7 31 14 59 22 87c0 1 2 2 3 7c9 30 29 37 76 37c10 0 39 4 39 -10c0 -8 -4 -15 -12 -22c-20 -16 -27 -41 -36 -62c-7 -24 -18 -72 -35 -131c-39 -163 -69 -222 -139 -261
c-38 -23 -91 -31 -179 -31h-10z" />
    <glyph glyph-name="Korea1.494" unicode="&#x3a9;" 
d="M657 -56h-271l28 98c90 39 134 66 178 115c61 67 98 156 98 247c0 116 -75 185 -200 185c-70 0 -117 -21 -161 -72c-41 -53 -67 -136 -67 -218c0 -74 21 -143 53 -196c12 -18 26 -33 60 -66l-27 -93h-237l18 68h169c-80 98 -110 180 -110 298c0 212 123 357 310 357
c160 0 269 -106 269 -265c0 -105 -40 -208 -114 -285c-38 -41 -75 -70 -154 -105h178z" />
    <glyph glyph-name="Korea1.495" unicode="&#x3b1;" 
d="M664 43l-27 -95c-21 -6 -35 -8 -46 -8c-50 0 -69 23 -75 96c-49 -53 -107 -103 -184 -103c-90 0 -147 78 -147 189c0 105 38 217 106 286c45 51 100 75 156 75c92 0 144 -62 144 -170l-4 -72c33 68 60 145 77 223l70 -41c-41 -142 -68 -197 -151 -315c0 -55 0 -80 28 -80
c11 0 9 0 53 15zM451 68c24 25 48 42 58 73c14 37 17 81 17 129c0 89 -30 128 -85 128c-52 0 -90 -32 -136 -97c-37 -52 -54 -114 -54 -168c0 -35 13 -64 34 -87c14 -20 32 -28 62 -28c37 0 66 14 104 50z" />
    <glyph glyph-name="Korea1.496" unicode="&#x3b2;" 
d="M130 -178l180 647c38 139 107 207 213 207c100 0 164 -62 164 -157c0 -84 -38 -136 -138 -173c23 -11 35 -20 47 -30c32 -27 49 -79 49 -131c0 -140 -101 -252 -230 -252c-61 0 -105 22 -150 81l-53 -192h-82zM398 316l15 70h44c50 0 79 11 109 36c29 27 46 65 46 96
c0 48 -37 83 -90 83c-61 0 -105 -47 -135 -150l-103 -367c33 -60 69 -83 123 -83c91 0 159 78 159 186c0 78 -47 129 -113 129h-55z" />
    <glyph glyph-name="Korea1.497" unicode="&#x3b3;" 
d="M424 -66h-85l47 248c12 53 18 100 18 126c0 50 -32 80 -85 80c-25 0 -42 -5 -75 -28l-22 83c35 27 52 32 92 32c76 0 113 -26 142 -104c44 66 84 89 153 89c42 0 68 -7 112 -34l-34 -85c-40 20 -59 26 -85 26c-57 0 -79 -15 -99 -51c-16 -26 -22 -42 -34 -131z" />
    <glyph glyph-name="Korea1.498" unicode="&#x3b4;" 
d="M722 658l-15 -68c-48 12 -67 15 -112 15c-66 0 -118 -9 -133 -17c-8 -3 -9 -7 -9 -14c0 -8 4 -15 37 -49c19 -20 56 -70 79 -100c44 -59 65 -115 65 -178c0 -69 -21 -140 -61 -198c-54 -81 -122 -118 -217 -118c-107 0 -169 66 -169 174c0 92 42 201 101 260
c43 42 101 67 161 67c4 0 20 -1 34 -3c-48 59 -76 95 -98 126c-15 18 -22 34 -22 43c0 49 100 77 227 77c41 0 69 -2 132 -17zM336 305c-41 -58 -72 -143 -72 -203c0 -62 36 -99 92 -99c32 0 67 11 91 28c63 50 113 150 113 231c0 68 -42 107 -107 107
c-46 0 -86 -21 -117 -64z" />
    <glyph glyph-name="Korea1.499" unicode="&#x3b5;" 
d="M712 445l-33 -70c-90 31 -121 37 -172 37c-64 0 -107 -34 -107 -76c0 -32 31 -60 84 -60h132l-21 -70h-95c-119 0 -197 -50 -197 -117c0 -50 40 -82 118 -82c51 0 91 9 190 45l-24 -86c-72 -26 -108 -32 -175 -32c-64 0 -110 10 -143 32c-36 26 -59 73 -59 118
c0 79 50 135 154 167c-40 26 -56 54 -56 89c0 83 96 146 208 146c58 0 103 -9 196 -41z" />
    <glyph glyph-name="Korea1.500" unicode="&#x3b6;" 
d="M295 554l28 78h237c39 0 53 6 79 38c5 -5 53 -61 53 -90c0 -35 -48 -37 -72 -40c-106 -132 -205 -247 -299 -383c-22 -30 -28 -44 -28 -63c0 -26 13 -39 82 -43c30 -2 73 -7 97 -11c86 -14 130 -52 130 -125c0 -85 -60 -135 -154 -135c-17 0 -34 1 -79 6l20 80
c32 -5 46 -5 59 -5c46 0 62 17 62 44s-24 49 -82 54l-90 9c-5 0 -8 2 -11 2c-73 13 -110 48 -110 114c0 46 19 81 84 163l243 307h-249z" />
    <glyph glyph-name="Korea1.501" unicode="&#x3b7;" 
d="M601 -139h-83l81 439c1 8 2 17 2 30c0 46 -27 71 -92 71c-83 0 -156 -58 -169 -133l-52 -293h-84l90 494h80l-11 -61c50 50 110 72 162 72c97 0 162 -51 162 -139c0 -14 -1 -26 -3 -34z" />
    <glyph glyph-name="Korea1.502" unicode="&#x3b8;" 
d="M702 482c0 -130 -61 -319 -136 -436c-50 -77 -110 -115 -181 -115c-114 0 -171 65 -171 196c0 139 53 324 122 433c47 69 120 115 191 115c112 0 175 -68 175 -193zM316 325h290c13 60 22 122 22 160c0 78 -34 121 -101 121c-106 0 -168 -134 -194 -220
c-7 -14 -12 -37 -17 -61zM584 262h-279c-10 -55 -15 -100 -15 -145c0 -82 27 -117 97 -117c40 0 79 23 117 76c36 52 62 127 80 186z" />
    <glyph glyph-name="Korea1.503" unicode="&#x3b9;" 
d="M454 469h74l-106 -386c-20 -73 -19 -84 50 -84c8 0 24 2 38 5l-15 -66h-110c-63 0 -77 42 -64 87z" />
    <glyph glyph-name="Korea1.504" unicode="&#x3ba;" 
d="M531 -62l-199 256l-56 -256h-82l124 531h87l-51 -197l271 197h106l-327 -247l221 -284h-94z" />
    <glyph glyph-name="Korea1.505" unicode="&#x3bb;" 
d="M317 614l38 61c62 -26 91 -47 124 -89c87 -106 105 -280 140 -412l4 -17c23 -83 50 -134 91 -176l-79 -48c-30 40 -39 55 -51 78c-36 73 -58 194 -75 273c-6 27 -9 57 -17 84c-44 -26 -57 -42 -96 -126c-25 -49 -44 -88 -47 -92c-56 -114 -94 -163 -162 -217l-67 65
c85 53 126 112 219 296c42 81 61 104 128 146c-41 104 -68 137 -150 174z" />
    <glyph glyph-name="Korea1.506" unicode="&#x3bc;" horiz-adv-x="650" 
d="M620 519l-93 -528h-78l15 85h-2c-36 -61 -115 -97 -188 -97c-52 0 -91 11 -119 31l-35 -199h-80l125 708h80l-51 -291c-22 -133 7 -181 87 -184c114 -4 190 78 216 225l44 250h79z" />
    <glyph glyph-name="Korea1.507" unicode="&#x3bd;" 
d="M772 491l-15 -92c-18 0 -29 1 -34 1c-28 0 -36 -4 -73 -95c-23 -55 -44 -109 -69 -163c-65 -150 -110 -216 -167 -216c-67 0 -72 69 -76 115l-7 83l-3 27c-22 210 -32 245 -81 245c-14 0 -26 -4 -49 -37l-48 71c40 42 65 56 105 56c109 0 143 -88 152 -338
c3 -48 3 -75 4 -100c2 -21 3 -27 14 -27c7 0 16 5 29 28c40 59 64 135 91 201c29 74 48 119 48 121c25 99 79 119 179 120z" />
    <glyph glyph-name="Korea1.508" unicode="&#x3be;" 
d="M592 271h-84c-115 0 -214 -76 -214 -162c0 -40 20 -59 92 -70c64 -10 104 -20 129 -32c39 -19 61 -52 61 -95c0 -83 -59 -129 -158 -129c-20 0 -33 2 -79 10l22 74c28 -8 39 -9 55 -9c51 0 73 16 73 44c0 41 -70 48 -100 53c-45 9 -86 13 -125 39c-35 22 -55 59 -55 107
c0 60 35 120 96 167c32 25 58 38 107 53c-53 24 -72 49 -72 89c0 51 29 88 100 121l-1 4h-94l20 71h220c25 0 52 13 72 39c0 0 50 -57 50 -77c0 -10 -10 -14 -21 -14c-29 0 -34 -1 -86 -16c-136 -35 -180 -69 -180 -119c0 -46 41 -77 114 -77h78z" />
    <glyph glyph-name="Korea1.509" unicode="&#x3bf;" 
d="M702 300c0 -106 -44 -219 -117 -293c-46 -52 -104 -75 -179 -75c-114 0 -190 76 -190 194c0 115 64 252 145 316c40 29 96 46 146 46c125 0 195 -66 195 -188zM347 295c-29 -57 -46 -126 -46 -178c0 -66 42 -105 114 -105c64 0 112 33 154 112c31 57 51 129 51 182
c0 69 -41 107 -113 107c-66 0 -117 -35 -160 -118z" />
    <glyph glyph-name="Korea1.510" unicode="&#x3c0;" 
d="M234 -57l-67 50c52 75 79 131 101 220c14 55 22 104 33 205h-91l16 73h537l-22 -73h-79c-24 -93 -46 -201 -46 -296c0 -43 0 -107 57 -159l-80 -17c-39 44 -55 102 -55 151c0 73 11 144 44 321h-204c-7 -61 -12 -126 -26 -187c-7 -34 -15 -59 -28 -95
c-25 -83 -46 -123 -90 -193z" />
    <glyph glyph-name="Korea1.511" unicode="&#x3c1;" 
d="M161 -126l121 443c30 108 119 175 229 175c119 0 184 -67 184 -190c0 -176 -119 -328 -260 -328c-60 0 -96 21 -139 93l-52 -193h-83zM359 299l-36 -135c1 -72 40 -115 103 -115c51 0 92 25 128 78c38 52 58 115 58 179c0 73 -37 109 -108 109c-72 0 -126 -41 -145 -116z
" />
    <glyph glyph-name="Korea1.512" unicode="&#x3c3;" 
d="M401 361c-54 -51 -96 -150 -96 -230c0 -77 36 -118 93 -118c93 0 185 126 185 260c0 84 -36 127 -94 127c-29 0 -66 -16 -88 -39zM656 566l31 -69c-65 -22 -88 -31 -117 -43c69 -37 93 -84 93 -166c0 -190 -119 -354 -265 -354c-106 0 -169 79 -169 206
c0 104 40 206 107 273c69 69 226 122 320 153z" />
    <glyph glyph-name="Korea1.513" unicode="&#x3c4;" 
d="M700 467l-14 -76c-35 -8 -52 -9 -82 -9c-15 0 -51 2 -101 7l-58 -331c-9 -43 7 -54 72 -50l38 5l-12 -69c-53 -6 -82 -8 -117 -8c-48 -1 -83 26 -76 59l5 40l61 359c-37 4 -54 5 -61 5c-40 0 -77 -6 -115 -17l9 75c46 12 69 14 123 14c26 0 62 -1 99 -4l27 -4
c38 -4 58 -6 70 -6c12 -1 16 -1 27 -1c36 0 57 1 105 11z" />
    <glyph glyph-name="Korea1.514" unicode="&#x3c5;" 
d="M593 454l75 33c26 -35 36 -62 36 -97c0 -51 -19 -123 -53 -229c-62 -177 -119 -225 -266 -225c-109 0 -172 31 -172 98c0 37 16 74 28 111c24 73 37 113 37 118c4 12 25 82 25 105c0 25 -7 38 -42 54l68 53c39 -27 57 -56 57 -93c0 -65 -50 -203 -74 -274
c-6 -20 -11 -41 -11 -65c0 -27 30 -33 79 -33c79 0 111 12 136 50c24 30 42 76 62 142c31 98 43 154 43 186c0 25 -6 42 -28 66z" />
    <glyph glyph-name="Korea1.515" unicode="&#x3c6;" 
d="M389 -128h-85l40 135c-128 17 -195 80 -195 187c0 149 94 256 269 300l8 -75c-74 -24 -105 -40 -133 -74c-41 -38 -56 -84 -56 -145c0 -75 32 -111 127 -124l89 284c24 78 89 130 163 130c97 0 155 -73 155 -187c0 -186 -120 -297 -324 -297h-19zM527 325l-81 -252
c83 4 128 18 165 51c43 37 77 118 77 189c0 66 -27 100 -71 100c-24 0 -41 -8 -61 -35c-13 -18 -23 -36 -29 -53z" />
    <glyph glyph-name="Korea1.516" unicode="&#x3c7;" 
d="M704 467l-209 -250l80 -173c20 -44 44 -53 96 -53l-14 -51l-41 -1c-76 -1 -100 16 -121 61l-68 144l-163 -205l-104 1l235 276l-66 144c-14 32 -44 46 -80 46h-15l-11 61h94c49 0 72 -15 88 -55l60 -118l138 173h101z" />
    <glyph glyph-name="Korea1.517" unicode="&#x3c8;" 
d="M254 473l60 -52c-36 -28 -47 -45 -64 -83c-27 -73 -48 -173 -48 -230c0 -92 63 -93 136 -93h29l110 534h84l-113 -533c89 7 128 21 163 47c58 48 85 140 85 302c0 31 0 40 -9 73l75 18c11 -39 16 -62 16 -120c0 -96 -20 -192 -53 -254c-30 -66 -84 -107 -165 -130
c-34 -8 -63 -13 -128 -17l-20 -79h-79l17 79c-88 2 -121 8 -151 22c-49 24 -74 77 -74 147c0 91 29 226 67 294c16 32 30 47 62 75z" />
    <glyph glyph-name="Korea1.518" unicode="&#x3c9;" 
d="M642 477h90c30 -85 40 -139 40 -207c0 -187 -98 -340 -228 -340c-59 0 -108 30 -135 95c-36 -63 -74 -89 -123 -89c-91 0 -148 78 -148 191c0 71 27 150 74 227c23 32 49 65 102 123h103c-86 -99 -197 -216 -197 -357c0 -70 29 -108 74 -108c37 0 69 33 93 103l79 257h84
l-78 -259c-4 -10 -6 -18 -6 -30c0 -44 34 -77 71 -77c82 0 154 109 154 254c0 67 -12 126 -49 217z" />
    <glyph glyph-name="Korea1.519" unicode="&#x2500;" 
d="M0 281v38h910v-38h-910z" />
    <glyph glyph-name="Korea1.520" unicode="&#x2502;" 
d="M440 -200v1000h35v-1000h-35z" />
    <glyph glyph-name="Korea1.521" unicode="&#x250c;" 
d="M435 -200v519h475v-38h-439v-481h-36z" />
    <glyph glyph-name="Korea1.522" unicode="&#x2510;" 
d="M444 281h-442v38h478v-519h-36v481z" />
    <glyph glyph-name="Korea1.523" unicode="&#x2518;" 
d="M444 319v481h36v-519h-480v38h444z" />
    <glyph glyph-name="Korea1.524" unicode="&#x2514;" 
d="M435 281v519h36v-481h439v-38h-475z" />
    <glyph glyph-name="Korea1.525" unicode="&#x251c;" 
d="M435 -200v1000h36v-481h439v-38h-439v-481h-36z" />
    <glyph glyph-name="Korea1.526" unicode="&#x252c;" 
d="M0 281v38h910v-38h-435v-481h-35v481h-440z" />
    <glyph glyph-name="Korea1.527" unicode="&#x2524;" 
d="M444 800h36v-1000h-36v481h-444v38h444v481z" />
    <glyph glyph-name="Korea1.528" unicode="&#x2534;" 
d="M440 319v481h35v-481h435v-38h-910v38h440z" />
    <glyph glyph-name="Korea1.529" unicode="&#x253c;" 
d="M440 319v481h35v-481h435v-38h-435v-481h-35v481h-440v38h440z" />
    <glyph glyph-name="Korea1.530" unicode="&#x2501;" 
d="M0 263v75h910v-75h-910z" />
    <glyph glyph-name="Korea1.531" unicode="&#x2503;" 
d="M423 -200v1000h70v-1000h-70z" />
    <glyph glyph-name="Korea1.532" unicode="&#x250f;" 
d="M419 -200v538h491v-75h-421v-463h-70z" />
    <glyph glyph-name="Korea1.533" unicode="&#x2513;" 
d="M0 263v75h497v-538h-70v463h-427z" />
    <glyph glyph-name="Korea1.534" unicode="&#x251b;" 
d="M427 338v462h70v-537h-497v75h427z" />
    <glyph glyph-name="Korea1.535" unicode="&#x2517;" 
d="M419 263v537h70v-462h421v-75h-491z" />
    <glyph glyph-name="Korea1.536" unicode="&#x2523;" 
d="M419 -200v1000h70v-462h421v-75h-421v-463h-70z" />
    <glyph glyph-name="Korea1.537" unicode="&#x2533;" 
d="M423 263h-423v75h910v-75h-417v-463h-70v463z" />
    <glyph glyph-name="Korea1.538" unicode="&#x252b;" 
d="M427 263h-427v75h427v462h70v-1000h-70v463z" />
    <glyph glyph-name="Korea1.539" unicode="&#x253b;" 
d="M0 338h423v462h70v-462h417v-75h-910v75z" />
    <glyph glyph-name="Korea1.540" unicode="&#x254b;" 
d="M0 338h423v462h70v-462h417v-75h-417v-463h-70v463h-423v75z" />
    <glyph glyph-name="Korea1.541" unicode="&#x2520;" 
d="M489 319h421v-38h-421v-481h-70v1000h70v-481z" />
    <glyph glyph-name="Korea1.542" unicode="&#x252f;" 
d="M0 338h910v-75h-435v-463h-35v463h-440v75z" />
    <glyph glyph-name="Korea1.543" unicode="&#x2528;" 
d="M497 800v-1000h-70v481h-427v38h427v481h70z" />
    <glyph glyph-name="Korea1.544" unicode="&#x2537;" 
d="M0 338h440v462h35v-462h435v-75h-910v75z" />
    <glyph glyph-name="Korea1.545" unicode="&#x253f;" 
d="M0 338h440v462h35v-462h435v-75h-435v-463h-35v463h-440v75z" />
    <glyph glyph-name="Korea1.546" unicode="&#x251d;" 
d="M471 338h439v-75h-439v-463h-36v1000h36v-462z" />
    <glyph glyph-name="Korea1.547" unicode="&#x2530;" 
d="M0 319h910v-38h-417v-481h-70v481h-423v38z" />
    <glyph glyph-name="Korea1.548" unicode="&#x2525;" 
d="M0 338h444v462h36v-1000h-36v463h-444v75z" />
    <glyph glyph-name="Korea1.549" unicode="&#x2538;" 
d="M0 319h423v481h70v-481h417v-38h-910v38z" />
    <glyph glyph-name="Korea1.550" unicode="&#x2542;" 
d="M0 319h423v481h70v-481h417v-38h-417v-481h-70v481h-423v38z" />
    <glyph glyph-name="Korea1.551" unicode="&#x2512;" 
d="M427 -200v481h-427v38h497v-519h-70z" />
    <glyph glyph-name="Korea1.552" unicode="&#x2511;" 
d="M444 -200v463h-444v75h480v-538h-36z" />
    <glyph glyph-name="Korea1.553" unicode="&#x251a;" 
d="M0 319h427v481h70v-519h-497v38z" />
    <glyph glyph-name="Korea1.554" unicode="&#x2519;" 
d="M0 338h444v462h36v-537h-480v75z" />
    <glyph glyph-name="Korea1.555" unicode="&#x2516;" 
d="M489 800v-481h421v-38h-491v519h70z" />
    <glyph glyph-name="Korea1.556" unicode="&#x2515;" 
d="M471 800v-462h439v-75h-475v537h36z" />
    <glyph glyph-name="Korea1.557" unicode="&#x250e;" 
d="M910 281h-421v-481h-70v519h491v-38z" />
    <glyph glyph-name="Korea1.558" unicode="&#x250d;" 
d="M435 -200v538h475v-75h-439v-463h-36z" />
    <glyph glyph-name="Korea1.559" unicode="&#x251e;" 
d="M419 281v519h70v-481h421v-38h-439v-481h-36v481h-16z" />
    <glyph glyph-name="Korea1.560" unicode="&#x251f;" 
d="M435 319v481h36v-481h439v-38h-421v-481h-70v519h16z" />
    <glyph glyph-name="Korea1.561" unicode="&#x2521;" 
d="M471 -200h-36v463h-16v537h70v-462h421v-75h-439v-463z" />
    <glyph glyph-name="Korea1.562" unicode="&#x2522;" 
d="M489 -200h-70v538h16v462h36v-462h439v-75h-421v-463z" />
    <glyph glyph-name="Korea1.563" unicode="&#x2526;" 
d="M427 319v481h70v-519h-18v-481h-35v481h-444v38h427z" />
    <glyph glyph-name="Korea1.564" unicode="&#x2527;" 
d="M0 281v38h444v481h35v-481h18v-519h-70v481h-427z" />
    <glyph glyph-name="Korea1.565" unicode="&#x2529;" 
d="M444 263h-444v75h427v462h70v-537h-18v-463h-35v463z" />
    <glyph glyph-name="Korea1.566" unicode="&#x252a;" 
d="M427 263h-427v75h444v462h35v-462h18v-538h-70v463z" />
    <glyph glyph-name="Korea1.567" unicode="&#x252d;" 
d="M440 263h-440v75h475v-19h435v-38h-435v-481h-35v463z" />
    <glyph glyph-name="Korea1.568" unicode="&#x252e;" 
d="M440 281h-440v38h440v19h470v-75h-435v-463h-35v481z" />
    <glyph glyph-name="Korea1.569" unicode="&#x2531;" 
d="M423 263h-423v75h493v-19h417v-38h-417v-481h-70v463z" />
    <glyph glyph-name="Korea1.570" unicode="&#x2532;" 
d="M423 281h-423v38h423v19h487v-75h-417v-463h-70v481z" />
    <glyph glyph-name="Korea1.571" unicode="&#x2535;" 
d="M475 263h-475v75h440v462h35v-481h435v-38h-435v-18z" />
    <glyph glyph-name="Korea1.572" unicode="&#x2536;" 
d="M440 281h-440v38h440v481h35v-462h435v-75h-470v18z" />
    <glyph glyph-name="Korea1.573" unicode="&#x2539;" 
d="M493 263h-493v75h423v462h70v-481h417v-38h-417v-18z" />
    <glyph glyph-name="Korea1.574" unicode="&#x253a;" 
d="M423 281h-423v38h423v481h70v-462h417v-75h-487v18z" />
    <glyph glyph-name="Korea1.575" unicode="&#x253d;" 
d="M440 263h-440v75h440v462h35v-481h435v-38h-435v-481h-35v463z" />
    <glyph glyph-name="Korea1.576" unicode="&#x253e;" 
d="M440 800h35v-462h435v-75h-435v-463h-35v481h-440v38h440v481z" />
    <glyph glyph-name="Korea1.577" unicode="&#x2540;" 
d="M423 800h70v-481h417v-38h-435v-481h-35v481h-440v38h423v481z" />
    <glyph glyph-name="Korea1.578" unicode="&#x2541;" 
d="M440 800h35v-481h435v-38h-417v-481h-70v481h-423v38h440v481z" />
    <glyph glyph-name="Korea1.579" unicode="&#x2543;" 
d="M423 800h70v-481h417v-38h-417v-18h-18v-463h-35v463h-440v75h423v462z" />
    <glyph glyph-name="Korea1.580" unicode="&#x2544;" 
d="M475 263v-463h-35v463h-17v18h-423v38h423v481h70v-462h417v-75h-435z" />
    <glyph glyph-name="Korea1.581" unicode="&#x2545;" 
d="M440 800h35v-462h18v-19h417v-38h-417v-481h-70v463h-423v75h440v462z" />
    <glyph glyph-name="Korea1.582" unicode="&#x2546;" 
d="M440 800h35v-462h435v-75h-417v-463h-70v481h-423v38h423v19h17v462z" />
    <glyph glyph-name="Korea1.583" unicode="&#x2547;" 
d="M423 800h70v-462h417v-75h-435v-463h-35v463h-440v75h423v462z" />
    <glyph glyph-name="Korea1.584" unicode="&#x2548;" 
d="M440 800h35v-462h435v-75h-417v-463h-70v463h-423v75h440v462z" />
    <glyph glyph-name="Korea1.585" unicode="&#x2549;" 
d="M423 800h70v-481h417v-38h-417v-481h-70v463h-423v75h423v462z" />
    <glyph glyph-name="Korea1.586" unicode="&#x254a;" 
d="M423 800h70v-462h417v-75h-417v-463h-70v481h-423v38h423v481z" />
    <glyph glyph-name="Korea1.587" unicode="&#x3395;" 
d="M397 467h75l-69 -417c-3 -17 2 -35 13 -39c12 -5 30 -4 47 -3l-19 -67c-46 0 -74 -1 -90 12c-16 15 -26 35 -27 54c-20 -33 -57 -66 -116 -66c-29 0 -52 22 -66 47l-25 -135h-74l101 614h75l-49 -326c-11 -74 2 -109 53 -109c78 0 112 95 122 154zM813 54l58 -47
c-31 -61 -66 -91 -113 -104c-46 -13 -109 12 -153 77c-23 -13 -72 -28 -102 -30l-27 74c23 2 59 6 92 21c-42 92 -51 197 -48 310c6 194 82 343 182 349c105 6 148 -152 121 -359c-22 -169 -86 -275 -144 -330c25 -39 52 -44 76 -32c23 10 42 31 58 71zM700 626
c-53 -3 -96 -146 -99 -272c-4 -104 10 -223 36 -272c58 58 97 153 109 269c13 122 12 278 -46 275z" />
    <glyph glyph-name="Korea1.588" unicode="&#x3396;" 
d="M478 305v-366h-72v359c0 75 -18 102 -48 102c-29 0 -51 -32 -51 -102v-359h-74v361c0 83 -21 100 -50 99c-26 -1 -50 -27 -50 -99v-361h-71v528h64v-37c16 26 44 49 71 49c51 0 69 -29 80 -68c23 36 48 68 93 68c71 0 108 -59 108 -174zM832 54l57 -47
c-30 -61 -65 -91 -111 -104c-47 -13 -109 12 -154 77c-23 -13 -71 -28 -102 -30l-27 74c23 2 60 6 92 21c-42 92 -51 197 -48 310c6 194 82 343 182 349c105 6 149 -152 121 -359c-22 -169 -86 -275 -144 -330c25 -39 52 -44 77 -32c22 10 40 31 57 71zM719 626
c-52 -3 -96 -146 -99 -272c-4 -104 10 -223 37 -272c57 58 96 153 109 269c12 122 12 278 -47 275z" />
    <glyph glyph-name="Korea1.589" unicode="&#x3397;" 
d="M419 669v-730h-72v67c-19 -33 -57 -75 -119 -75c-119 -1 -165 109 -165 268c0 162 68 271 181 270c58 -1 90 -36 103 -57v257h72zM245 397c-69 0 -108 -82 -108 -198c0 -110 30 -199 99 -199c66 0 102 91 102 199c0 109 -24 198 -93 198zM795 54l57 -47
c-30 -61 -65 -91 -113 -102c-44 -10 -109 13 -151 74c-23 -14 -71 -30 -103 -32l-28 74c26 3 62 8 93 23c-43 92 -51 198 -48 311c6 194 81 343 181 349c105 6 148 -152 122 -359c-23 -169 -86 -275 -144 -330c24 -39 52 -44 75 -32c23 10 42 31 59 71zM681 626
c-53 -3 -96 -146 -99 -272c-4 -104 11 -223 37 -272c57 58 97 153 108 269c13 122 12 278 -46 275z" />
    <glyph glyph-name="Korea1.590" unicode="&#x2113;" 
d="M589 54l57 -47c-30 -61 -65 -91 -112 -104c-46 -13 -108 12 -153 77c-23 -13 -72 -28 -102 -30l-28 74c24 2 60 6 92 21c-41 92 -50 197 -47 310c6 194 83 343 182 349c106 6 147 -152 121 -359c-23 -169 -86 -275 -145 -330c27 -39 54 -44 77 -32c23 10 41 31 58 71z
M476 626c-54 -3 -96 -146 -99 -272c-4 -104 11 -223 36 -272c58 58 97 153 108 269c14 122 13 278 -45 275z" />
    <glyph glyph-name="Korea1.591" unicode="&#x3398;" 
d="M230 183l-45 -53v-191h-82v730h82v-424l189 221h98l-181 -224l181 -303h-100zM804 54l56 -47c-28 -61 -64 -91 -111 -102c-45 -10 -109 13 -152 74c-22 -14 -70 -30 -103 -32l-26 74c25 3 61 8 93 23c-44 92 -52 198 -49 311c6 194 81 343 181 349
c105 6 148 -152 121 -359c-22 -169 -85 -275 -143 -330c24 -39 52 -44 75 -32c24 10 41 31 58 71zM691 626c-53 -3 -96 -146 -99 -272c-4 -104 10 -223 37 -272c57 58 97 153 108 269c12 122 12 278 -46 275z" />
    <glyph glyph-name="Korea1.592" unicode="&#x33c4;" 
d="M369 94h82c-16 -102 -76 -180 -199 -180c-142 0 -209 119 -209 283c0 167 85 281 225 281c123 0 180 -107 180 -195h-80c-1 28 -18 111 -103 111c-88 0 -136 -69 -136 -194c0 -127 37 -208 129 -208c64 0 106 49 111 102zM789 94h83c-16 -102 -72 -179 -195 -179
c-143 0 -212 118 -212 282c0 167 83 281 223 281c124 0 182 -107 182 -195h-82c-1 28 -17 111 -103 111c-87 0 -136 -69 -136 -194c0 -127 37 -208 129 -208c65 0 107 49 111 102z" />
    <glyph glyph-name="Korea1.593" unicode="&#x33a3;" 
d="M87 467v-27c12 20 31 37 51 37c39 0 57 -25 63 -54c15 34 33 56 69 56c60 0 89 -59 89 -174v-366h-63v359c0 75 -14 101 -34 101c-19 0 -36 -31 -36 -101v-359h-63v361c0 84 -17 100 -37 99c-17 -1 -34 -27 -34 -99v-361h-64v528h59zM445 467v-27c12 20 32 37 52 37
c39 0 57 -25 63 -54c15 34 33 56 69 56c60 0 88 -59 88 -174v-366h-62v359c0 75 -15 101 -35 101c-18 0 -35 -31 -35 -101v-359h-64v361c0 84 -16 100 -36 99c-17 -1 -35 -27 -35 -99v-361h-62v528h57zM898 469c0 -55 -40 -93 -98 -93c-59 0 -98 42 -98 105h47
c0 -32 18 -59 51 -59c28 0 45 22 45 48c0 19 -16 36 -30 39c-7 2 -29 4 -41 4v46c12 0 36 2 41 4c14 8 24 23 24 40c0 20 -15 38 -42 38c-28 0 -43 -22 -43 -51h-46c-1 66 42 98 92 98c47 0 89 -40 89 -85c0 -41 -20 -60 -30 -63c21 -12 39 -38 39 -71z" />
    <glyph glyph-name="Korea1.594" unicode="&#x33a4;" 
d="M440 467v-27c12 20 32 37 51 37c39 0 57 -25 63 -54c16 34 37 56 72 56c60 0 91 -59 91 -174v-366h-65v359c0 75 -14 101 -34 101c-18 0 -35 -31 -35 -101v-359h-67v361c0 84 -16 100 -36 99c-17 -1 -36 -27 -36 -99v-361h-65v528h61zM899 469c0 -55 -41 -93 -99 -93
c-59 0 -98 42 -98 105h47c0 -32 18 -59 51 -59c28 0 46 22 46 48c0 19 -17 36 -31 39c-7 2 -29 4 -41 4v46c12 0 36 2 41 4c14 8 24 23 24 40c0 20 -15 38 -41 38c-29 0 -44 -22 -44 -51h-46c-1 66 42 98 92 98c48 0 89 -40 89 -85c0 -41 -20 -60 -30 -63
c21 -12 40 -38 40 -71zM203 477c114 0 149 -113 149 -191h-68c2 31 -16 120 -83 121c-82 1 -109 -84 -109 -207c1 -124 30 -207 108 -207c61 0 85 59 84 108h70c-3 -90 -44 -180 -154 -180c-123 0 -182 105 -182 279c0 158 53 277 185 277z" />
    <glyph glyph-name="Korea1.595" unicode="&#x33a5;" 
d="M623 305v-366h-80v359c0 75 -19 102 -61 102c-37 0 -64 -33 -64 -102v-359h-81v361c0 82 -27 100 -64 99c-35 -1 -62 -28 -62 -99v-361h-81v528h72v-44c26 39 58 54 87 54c57 0 80 -24 95 -69c24 42 62 71 113 71c83 0 126 -59 126 -174zM823 469c0 -55 -40 -93 -99 -93
c-57 0 -98 42 -98 105h48c0 -32 17 -59 50 -59c28 0 47 22 47 48c0 19 -18 36 -31 39c-8 2 -29 4 -42 4v46c13 0 36 2 41 4c14 8 26 23 26 40c0 20 -17 38 -43 38c-29 0 -43 -22 -43 -51h-47c-1 66 43 98 92 98s91 -40 91 -85c0 -41 -22 -60 -31 -63c21 -12 39 -38 39 -71z
" />
    <glyph glyph-name="Korea1.596" unicode="&#x33a6;" 
d="M447 467v-25c14 18 29 34 48 34c41 0 61 -26 66 -49c13 26 29 52 67 52c62 0 91 -49 91 -164v-376h-68v362c0 75 -13 101 -31 101s-32 -31 -32 -101v-362h-70v364c0 83 -17 100 -34 99c-15 -1 -31 -27 -31 -99v-364h-69v528h63zM907 469c0 -55 -38 -93 -98 -93
c-58 0 -97 42 -97 105h46c0 -32 19 -59 51 -59c29 0 46 22 46 48c0 19 -16 36 -30 39c-7 2 -29 4 -41 4v46c12 0 36 2 40 4c15 8 25 23 25 40c0 20 -16 38 -42 38c-29 0 -42 -22 -42 -51h-47c-1 66 40 98 91 98c48 0 90 -40 90 -85c0 -41 -20 -60 -29 -63
c20 -12 37 -38 37 -71zM158 182l-39 -52v-191h-72v730h72v-432l162 229h83l-153 -224l154 -303h-88z" />
    <glyph glyph-name="Korea1.597" unicode="&#x3399;" 
d="M445 467v-32c18 25 44 44 69 44c53 0 70 -29 80 -64c21 38 47 64 92 64c74 0 111 -59 111 -174v-366h-76v359c0 75 -14 100 -46 100c-27 0 -49 -30 -49 -100v-359h-77v361c0 83 -22 100 -49 99c-25 -1 -47 -27 -47 -99v-361h-76v528h68zM185 -61v445h-66v79h66v52
c0 56 6 87 22 111s50 43 84 43h49v-79c-17 0 -40 6 -55 -10c-19 -18 -19 -39 -19 -68v-49h74v-79h-74v-445h-81z" />
    <glyph glyph-name="Korea1.598" unicode="&#x339a;" 
d="M165 467v-34c25 30 58 52 111 42c75 -16 98 -104 98 -177v-359h-76v325c0 95 -22 130 -58 130c-39 0 -75 -45 -75 -139v-316h-76v528h76zM490 467v-32c17 25 42 44 68 44c53 0 71 -26 80 -61c24 40 47 61 93 61c75 0 110 -59 110 -174v-366h-75v359c0 75 -17 102 -47 102
c-26 0 -48 -32 -48 -102v-359h-78v361c0 83 -21 100 -48 99c-26 -1 -47 -27 -47 -99v-361h-77v528h69z" />
    <glyph glyph-name="Korea1.599" unicode="&#x339b;" 
d="M362 467h76l-69 -417c-3 -17 2 -34 13 -38c13 -5 30 -5 47 -4l-20 -67c-46 0 -73 0 -89 12c-15 13 -24 33 -26 52c-21 -33 -49 -64 -108 -64c-29 0 -52 22 -66 47l-24 -135h-71l100 614h73l-51 -326c-10 -74 5 -109 55 -109c76 0 99 79 112 154zM532 467v-32
c16 25 42 44 69 44c52 0 70 -26 79 -61c24 40 47 61 93 61c74 0 110 -59 110 -174v-366h-76v359c0 75 -16 102 -47 102c-26 0 -47 -32 -47 -102v-359h-77v361c0 83 -23 100 -49 99c-25 -1 -48 -27 -48 -99v-361h-76v528h69z" />
    <glyph glyph-name="Korea1.600" unicode="&#x339c;" 
d="M545 467v-32c16 25 38 44 59 44c50 0 69 -26 76 -53c15 32 39 53 84 53c70 0 105 -59 105 -174v-366h-78v359c0 75 -15 102 -40 102c-20 0 -39 -32 -39 -102v-359h-80v361c0 83 -18 100 -39 99s-42 -27 -42 -99v-361h-77v528h71zM119 467v-32c16 25 38 44 60 44
c52 0 68 -26 75 -53c15 32 40 53 84 53c72 0 105 -59 105 -174v-366h-77v359c0 75 -15 102 -41 102c-19 0 -38 -32 -38 -102v-359h-80v361c0 83 -18 100 -41 99c-20 -1 -40 -27 -40 -99v-361h-78v528h71z" />
    <glyph glyph-name="Korea1.601" unicode="&#x339d;" 
d="M536 467v-32c15 25 38 44 59 44c52 0 69 -26 76 -53c15 32 39 53 83 53c71 0 105 -59 105 -174v-366h-77v359c0 75 -15 102 -40 102c-20 0 -39 -32 -39 -102v-359h-80v361c0 83 -18 100 -39 99s-42 -27 -42 -99v-361h-77v528h71zM351 97h80c-13 -101 -62 -181 -185 -181
c-132 0 -204 112 -204 281c0 168 77 281 212 281c126 0 174 -108 174 -195h-79c1 36 -18 116 -97 116c-81 0 -127 -74 -127 -199c0 -123 38 -207 126 -207c62 0 94 47 100 104z" />
    <glyph glyph-name="Korea1.602" unicode="&#x339e;" 
d="M530 467v-32c16 25 39 44 60 44c51 0 68 -26 77 -53c14 32 38 53 82 53c72 0 105 -59 105 -174v-366h-76v359c0 75 -16 102 -41 102c-19 0 -40 -32 -40 -102v-359h-78v361c0 83 -18 100 -41 99c-21 -1 -42 -27 -42 -99v-361h-75v528h69zM200 183l-44 -53v-191h-76v730h76
v-424l181 221h95l-173 -224l174 -303h-98z" />
    <glyph glyph-name="Korea1.603" unicode="&#x339f;" 
d="M87 467v-27c12 20 31 37 51 37c39 0 57 -25 63 -54c15 34 33 56 69 56c60 0 91 -56 91 -171v-369h-65v362c0 75 -14 98 -34 98c-19 0 -34 -28 -34 -98v-362h-65v364c0 83 -17 97 -37 96c-17 -1 -33 -24 -33 -96v-364h-65v528h59zM445 467v-27c12 20 32 37 52 37
c39 0 57 -25 63 -54c15 34 32 56 69 56c60 0 90 -56 90 -171v-369h-64v362c0 75 -15 98 -35 98c-18 0 -33 -28 -33 -98v-362h-66v364c0 83 -16 97 -36 96c-17 -1 -33 -24 -33 -96v-364h-65v528h58zM902 446v-46h-176c-1 34 12 77 41 107c14 16 30 30 45 44
c14 14 33 30 35 55c1 14 -6 37 -37 37c-34 0 -39 -38 -36 -59h-51c-3 46 22 106 87 106c62 0 87 -49 85 -92c-1 -31 -19 -51 -36 -67c-18 -16 -40 -36 -45 -42c-18 -17 -25 -30 -27 -43h115z" />
    <glyph glyph-name="Korea1.604" unicode="&#x33a0;" 
d="M440 467v-27c12 20 32 37 51 37c39 0 57 -25 63 -54c16 34 37 56 72 56c60 0 91 -59 91 -174v-366h-65v359c0 75 -14 101 -34 101c-18 0 -35 -31 -35 -101v-359h-67v361c0 84 -16 100 -36 99c-17 -1 -36 -27 -36 -99v-361h-65v528h61zM903 446v-46h-177
c-1 34 12 77 41 107c14 16 31 30 45 44s33 30 36 55c1 14 -7 37 -38 37c-34 0 -39 -38 -36 -59h-51c-3 46 23 106 87 106c62 0 87 -49 85 -92c-1 -31 -19 -51 -36 -67c-18 -16 -40 -36 -45 -42c-17 -17 -25 -30 -27 -43h116zM203 477c114 0 149 -113 149 -191h-68
c2 31 -16 120 -83 121c-82 1 -109 -84 -109 -207c1 -124 30 -207 108 -207c61 0 85 59 84 108h70c-3 -90 -44 -180 -154 -180c-123 0 -182 105 -182 279c0 158 53 277 185 277z" />
    <glyph glyph-name="Korea1.605" unicode="&#x33a1;" 
d="M635 305v-366h-81v359c0 75 -18 102 -60 102c-37 0 -64 -33 -64 -102v-359h-81v361c0 82 -27 100 -64 99c-36 -1 -63 -28 -63 -99v-361h-80v528h71v-44c26 39 59 54 88 54c58 0 79 -24 95 -69c24 42 63 71 112 71c84 0 127 -59 127 -174zM833 446v-46h-177
c-1 34 12 77 40 107c15 16 32 30 45 44c15 14 36 30 37 55c1 14 -7 37 -38 37c-35 0 -39 -38 -37 -59h-50c-4 46 23 106 87 106c62 0 87 -49 85 -92c-1 -31 -20 -51 -36 -67l-46 -42c-16 -17 -24 -30 -27 -43h117z" />
    <glyph glyph-name="Korea1.606" unicode="&#x33a2;" 
d="M445 467v-25c14 18 31 34 50 34c41 0 60 -26 63 -49c15 26 32 52 70 52c62 0 90 -49 90 -164v-376h-67v362c0 75 -13 101 -31 101s-34 -31 -34 -101v-362h-68v364c0 83 -16 100 -34 99c-15 -1 -33 -27 -33 -99v-364h-67v528h61zM902 446v-46h-176c-1 34 12 77 41 107
c14 16 30 30 45 44c14 14 33 30 35 55c1 14 -6 37 -38 37c-33 0 -38 -38 -35 -59h-51c-3 46 22 106 86 106c63 0 88 -49 86 -92c-1 -31 -19 -51 -37 -67c-17 -16 -39 -36 -44 -42c-18 -17 -25 -30 -27 -43h115zM158 182l-39 -52v-191h-72v730h72v-432l162 229h83l-153 -224
l154 -303h-88z" />
    <glyph glyph-name="Korea1.607" unicode="&#x33ca;" 
d="M174 669v-251c33 41 75 74 135 64c80 -13 109 -111 109 -186v-357h-74v326c0 95 -26 135 -75 135c-51 0 -95 -68 -95 -153v-308h-74v730h74zM843 -42l-74 -32c-17 29 -24 32 -33 74c-21 -42 -53 -74 -111 -74c-111 0 -154 122 -154 280c0 171 65 275 169 275
c50 0 84 -26 100 -67c1 27 6 34 9 62h67c-10 -56 -12 -121 -12 -199v-196c0 -46 21 -91 39 -123zM723 211c0 91 -8 195 -86 195c-66 0 -93 -81 -93 -200c0 -112 16 -207 85 -207c74 0 94 100 94 212z" />
    <glyph glyph-name="Korea1.608" unicode="&#x338d;" 
d="M754 -2v38c-24 -41 -62 -66 -108 -66c-95 0 -167 106 -167 256s68 256 169 256c47 0 84 -23 106 -61v45h70v-466c0 -166 -83 -225 -166 -225c-103 0 -160 86 -165 174h71c3 -49 33 -100 95 -100c64 0 95 54 95 149zM653 404c-58 0 -101 -64 -101 -178
c0 -115 43 -178 101 -178c59 0 101 66 101 181c0 114 -42 175 -101 175zM387 467h77l-70 -417c-3 -17 2 -35 13 -39c13 -5 30 -4 46 -3l-18 -67c-46 0 -73 -1 -90 12c-16 15 -25 35 -26 54c-21 -33 -52 -66 -106 -66c-29 0 -53 22 -68 47l-24 -135h-74l100 614h76l-49 -326
c-11 -74 10 -109 60 -109c68 0 95 95 105 154z" />
    <glyph glyph-name="Korea1.609" unicode="&#x338e;" 
d="M130 467v-26c16 22 39 38 61 38c51 0 67 -26 75 -56c18 35 39 56 83 56c69 0 102 -59 102 -174v-366h-71v359c0 75 -18 102 -43 102c-22 0 -41 -32 -41 -102v-359h-74v361c0 83 -19 100 -42 99s-43 -27 -43 -99v-361h-72v528h65zM763 -2v38c-25 -41 -63 -66 -109 -66
c-94 0 -167 106 -167 256s68 256 169 256c48 0 85 -23 107 -61v45h68v-466c0 -166 -81 -225 -164 -225c-103 0 -161 86 -166 174h71c2 -49 33 -100 96 -100c64 0 95 54 95 149zM662 404c-59 0 -101 -64 -101 -178c0 -115 42 -178 101 -178c58 0 101 66 101 181
c0 114 -43 175 -101 175z" />
    <glyph glyph-name="Korea1.610" unicode="&#x338f;" 
d="M249 187l-51 -60v-188h-79v730h79v-428l190 225h96l-180 -216l180 -311h-92zM752 -2v38c-24 -41 -62 -66 -108 -66c-94 0 -167 106 -167 256s68 256 169 256c48 0 85 -23 106 -61v45h70v-466c0 -166 -82 -225 -165 -225c-103 0 -161 86 -166 174h72
c2 -49 32 -100 95 -100c64 0 94 54 94 149zM652 404c-59 0 -101 -64 -101 -178c0 -115 42 -178 101 -178s100 66 100 181c0 114 -41 175 -100 175z" />
    <glyph glyph-name="Korea1.611" unicode="&#x33cf;" 
d="M281 187l-51 -60v-188h-79v730h79v-428l189 225h97l-181 -216l181 -311h-91zM680 384v-289c0 -29 -2 -45 15 -63c13 -16 39 -15 53 -15v-78h-57c-34 0 -57 19 -72 43c-17 26 -20 45 -20 101v301h-60v79h60v166h81v-166h68v-79h-68z" />
    <glyph glyph-name="Korea1.612" unicode="&#x3388;" 
d="M222 101h74c-9 -100 -50 -178 -139 -178c-107 0 -150 118 -150 282c0 166 56 279 158 279c92 0 131 -105 131 -193h-75c0 29 -13 112 -58 112c-49 0 -80 -70 -80 -195c0 -127 24 -209 76 -209c34 0 60 48 63 102zM780 626c-34 -3 -69 -149 -72 -272
c-4 -99 10 -227 26 -264c36 47 69 145 78 261c11 122 9 278 -32 275zM854 52l53 -31c-18 -61 -50 -103 -89 -115c-39 -11 -77 14 -111 71c-10 -9 -46 -29 -78 -34l-20 78c20 3 42 8 65 22c-35 96 -43 199 -40 312c5 194 66 343 148 349c90 6 123 -150 101 -359
c-17 -169 -64 -270 -114 -329c21 -41 36 -39 46 -33c16 8 26 26 39 69zM507 211c0 106 -11 195 -61 195c-42 0 -64 -81 -64 -200c0 -105 15 -207 58 -207c50 0 67 100 67 212zM523 -8c-16 -41 -42 -66 -88 -66c-95 0 -130 122 -130 280c0 171 53 275 140 275
c32 0 62 -20 82 -48c0 13 1 26 3 43h68c-7 -56 -14 -121 -14 -199v-196c0 -46 17 -89 30 -121l-64 -38c-13 23 -22 47 -27 70z" />
    <glyph glyph-name="Korea1.613" unicode="&#x3389;" 
d="M80 669v-404l110 201h74l-117 -216l112 -311h-73l-82 235l-25 -45v-190h-64v730h65zM618 436c2 13 2 24 4 40h61c-6 -56 -10 -121 -10 -199v-196c0 -46 7 -91 17 -123l-52 -42c-6 14 -11 37 -17 59c-10 -28 -30 -49 -66 -49c-78 0 -102 119 -102 280
c0 171 39 275 110 275c27 0 43 -18 55 -45zM602 211c0 106 -10 195 -38 195c-25 0 -41 -84 -41 -200c0 -105 11 -207 35 -207c29 0 44 100 44 212zM861 60l52 -40c-14 -60 -32 -98 -68 -111c-31 -12 -65 19 -88 59c0 0 -23 -21 -56 -28l-17 78c16 3 28 10 44 24
c-26 101 -31 200 -29 313c4 194 46 343 116 349c74 6 97 -147 80 -359c-13 -169 -46 -266 -86 -329c17 -40 18 -34 25 -33c11 1 17 26 27 77zM814 626c-19 -2 -45 -153 -47 -272c-3 -99 8 -231 14 -251c16 30 42 134 48 248c7 122 5 277 -15 275zM382 104h70
c-8 -102 -35 -180 -109 -180c-84 0 -118 116 -118 280c0 167 42 273 125 273c75 0 102 -107 102 -195h-70c-1 28 -9 111 -34 111c-28 0 -51 -61 -51 -186s18 -205 48 -205c18 0 34 48 37 102z" />
    <glyph glyph-name="Korea1.614" unicode="&#x33c8;" 
d="M421 669v-730h-73v59c-18 -33 -51 -67 -113 -67c-119 -1 -164 109 -164 268c0 162 67 271 180 270c58 -1 84 -31 97 -51v251h73zM252 397c-69 0 -108 -82 -108 -198c0 -110 32 -199 99 -199c66 0 102 91 102 199c0 109 -24 198 -93 198zM750 329c42 -32 87 -90 86 -195
c-1 -118 -72 -195 -161 -195h-190v729h195c86 0 130 -72 137 -154c7 -84 -20 -147 -67 -185zM555 359h113c43 0 75 57 75 126s-29 115 -74 115h-114v-241zM555 13h119c51 0 86 57 86 140c0 73 -43 132 -85 132h-120v-272z" />
    <glyph glyph-name="Korea1.615" unicode="&#x33a7;" 
d="M136 670v-26c15 25 36 42 74 39c33 -3 49 -25 55 -45c12 25 44 56 96 45c53 -11 68 -71 68 -135v-259h-62v241c0 58 -6 86 -38 85c-26 -1 -46 -35 -46 -99v-227h-64v241c0 58 -7 89 -39 88c-24 -1 -44 -38 -44 -102v-227h-62v381h62zM769 134c47 -22 72 -64 66 -111
c-7 -64 -59 -117 -157 -117c-109 0 -160 79 -163 157h68c1 -67 40 -99 96 -99s89 27 90 62c0 26 -13 44 -39 56c-32 13 -76 14 -118 30c-50 20 -84 48 -83 106c1 56 51 117 147 117c114 0 150 -84 150 -138h-67c0 48 -26 82 -83 82c-54 0 -77 -32 -77 -61
c0 -30 24 -42 44 -50c25 -9 79 -13 126 -34zM861 638l-720 -737l-34 42l715 733z" />
    <glyph glyph-name="Korea1.616" unicode="&#x33a8;" 
d="M124 681v-21c15 21 35 37 70 34c32 -3 48 -24 52 -41c13 23 42 52 90 41c52 -11 68 -68 68 -129v-247h-62v229c0 53 -7 82 -34 81c-25 -1 -43 -35 -43 -94v-216h-62v229c0 56 -8 83 -37 83c-23 -1 -42 -37 -42 -96v-216h-59v363h59zM817 638l-719 -737l-34 42l714 733z
M686 112c46 -21 70 -62 63 -106c-6 -62 -55 -112 -148 -112c-106 0 -154 75 -158 151h67c2 -63 39 -94 92 -94c52 0 82 26 83 58c0 24 -11 40 -37 52c-28 13 -71 14 -111 29c-49 18 -80 46 -78 101c1 54 47 113 139 113c110 0 143 -81 143 -133h-64c0 46 -25 77 -79 77
c-50 0 -73 -30 -73 -57s23 -39 43 -47c23 -7 73 -11 118 -32zM877 282v-37h-131c-1 26 10 53 31 76c9 9 22 19 32 28c11 9 24 18 24 34c1 11 -6 21 -22 21c-22 0 -27 -21 -25 -38h-40c0 30 19 74 64 74c47 0 64 -31 64 -58c0 -23 -14 -40 -27 -50c-14 -11 -29 -24 -32 -28
c-12 -10 -18 -18 -19 -22h81z" />
    <glyph glyph-name="Korea1.617" unicode="&#x33b0;" 
d="M170 467v-44c31 41 69 60 114 60c104 0 172 -104 172 -277s-68 -280 -172 -280c-44 0 -83 21 -114 58v-223h-70v706h70zM275 399c-65 0 -105 -68 -105 -193c0 -124 40 -196 105 -196c63 0 104 72 104 196c0 125 -41 193 -104 193zM472 109h83c7 -63 45 -105 115 -105
c55 0 89 23 99 73c4 30 -18 57 -47 74c-47 26 -103 31 -141 45c-55 23 -95 65 -91 135c2 77 67 151 177 151c120 0 178 -96 175 -166h-84c1 28 -18 84 -95 84c-66 0 -87 -37 -88 -70c-1 -49 26 -59 61 -71c37 -13 96 -20 140 -47c42 -27 80 -65 76 -131
c-4 -94 -80 -160 -179 -160c-153 0 -200 121 -201 188z" />
    <glyph glyph-name="Korea1.618" unicode="&#x33b1;" 
d="M456 109h82c6 -63 45 -108 115 -108c56 0 90 26 97 76c6 30 -15 57 -44 74c-49 26 -104 31 -141 45c-56 23 -95 65 -92 135c3 77 67 151 177 151c121 0 179 -96 176 -166h-85c2 28 -17 84 -96 84c-64 0 -85 -37 -87 -70c-1 -49 27 -59 62 -71c36 -13 96 -22 139 -50
c42 -27 80 -65 76 -131c-4 -94 -80 -154 -179 -154c-152 0 -197 118 -200 185zM175 467v-44c39 41 76 61 133 52c82 -15 108 -106 108 -177v-359h-75v318c0 95 -27 137 -73 137c-50 0 -93 -53 -93 -146v-309h-75v528h75z" />
    <glyph glyph-name="Korea1.619" unicode="&#x33b2;" 
d="M466 109h82c6 -63 45 -108 115 -108c55 0 90 26 97 76c6 30 -15 57 -45 74c-48 26 -104 31 -141 45c-56 23 -94 65 -91 135c3 77 67 151 176 151c121 0 180 -96 177 -166h-85c2 28 -17 84 -96 84c-64 0 -86 -37 -87 -70c-1 -49 27 -59 62 -71c36 -13 95 -22 139 -50
c42 -27 80 -65 76 -131c-4 -94 -80 -154 -179 -154c-153 0 -198 118 -200 185zM390 467h73l-69 -417c-3 -17 5 -35 16 -39c14 -5 31 -4 47 -3l-19 -67c-46 0 -74 -1 -89 12c-16 15 -25 35 -26 54c-21 -33 -53 -66 -107 -66c-29 0 -53 22 -68 47l-23 -135h-74l100 614h76
l-51 -332c-11 -75 10 -110 61 -110c68 0 95 99 105 158z" />
    <glyph glyph-name="Korea1.620" unicode="&#x33b3;" 
d="M483 109h83c6 -63 45 -108 114 -108c55 0 91 26 98 76c5 30 -15 57 -46 74c-47 26 -103 31 -141 45c-55 23 -94 65 -91 135c3 77 68 151 177 151c120 0 179 -96 175 -166h-83c2 28 -18 84 -96 84c-65 0 -87 -37 -88 -70c-1 -49 27 -59 61 -71c37 -13 96 -22 140 -50
c42 -27 81 -65 77 -131c-5 -94 -81 -154 -180 -154c-153 0 -198 118 -200 185zM137 467v-26c15 22 38 38 60 38c52 0 67 -26 75 -56c18 35 39 56 83 56c70 0 102 -59 102 -174v-366h-72v359c0 75 -16 102 -42 102c-21 0 -40 -32 -40 -102v-359h-76v361c0 83 -18 100 -41 99
c-22 -1 -43 -27 -43 -99v-361h-72v528h66z" />
    <glyph glyph-name="Korea1.621" unicode="&#x33b4;" 
d="M166 -38v-210h-72v716h72v-40c25 34 57 54 95 54c95 0 155 -103 155 -279s-66 -281 -159 -281c-34 0 -68 18 -91 40zM252 400c-51 0 -86 -72 -86 -197c0 -124 35 -197 86 -197c53 0 86 73 86 197c0 125 -33 197 -86 197zM434 669l177 -602l176 602h82l-216 -730h-87
l-215 730h83z" />
    <glyph glyph-name="Korea1.622" unicode="&#x33b5;" 
d="M167 467v-34c26 30 63 52 115 42c77 -16 103 -104 103 -177v-359h-76v318c0 95 -25 137 -63 137c-39 0 -79 -52 -79 -146v-309h-75v528h75zM418 669l176 -602l178 602h79l-213 -730h-88l-214 730h82z" />
    <glyph glyph-name="Korea1.623" unicode="&#x33b6;" 
d="M133 -23l-20 -124h-73l85 614h77l-43 -326c-11 -74 8 -109 48 -109c55 0 78 95 87 154l40 281h77l-60 -417c-3 -17 1 -32 8 -38c8 -9 30 -6 43 -5l-20 -66c-40 0 -69 -1 -82 12c-16 17 -21 28 -22 39c-12 -21 -48 -50 -89 -50c-26 0 -47 19 -56 35zM447 669l176 -602
l178 602h80l-214 -730h-88l-213 730h81z" />
    <glyph glyph-name="Korea1.624" unicode="&#x33b7;" 
d="M448 669l176 -602l177 602h81l-214 -730h-88l-213 730h81zM118 467v-27c13 20 35 37 57 37c43 0 65 -25 70 -54c18 34 37 56 77 56c66 0 99 -59 99 -174v-366h-70v359c0 75 -16 101 -37 101c-20 0 -39 -31 -39 -101v-359h-73v361c0 84 -19 100 -40 99
c-20 -1 -39 -27 -39 -99v-361h-71v528h66z" />
    <glyph glyph-name="Korea1.625" unicode="&#x33b8;" 
d="M205 182l-39 -54v-189h-75v730h75v-419l156 217h87l-152 -217l153 -311h-86zM443 669l177 -602l176 602h82l-215 -730h-88l-213 730h81z" />
    <glyph glyph-name="Korea1.626" unicode="&#x33b9;" 
d="M590 669l109 -559l113 559h79l-149 -730h-85l-148 730h81zM424 -61v494l-108 -494h-87l-108 494v-494h-69v730h91l130 -591l131 591h89v-730h-69z" />
    <glyph glyph-name="Korea1.627" unicode="&#x3380;" 
d="M138 -30v-218h-66v716h66v-35c26 34 56 54 92 54c91 0 149 -108 149 -284s-58 -284 -149 -284c-35 0 -66 19 -92 51zM222 400c-49 0 -84 -72 -84 -197c0 -124 35 -197 84 -197c52 0 84 73 84 197c0 125 -32 197 -84 197zM665 668l224 -729h-76l-60 191h-266l-60 -191h-75
l224 729h89zM510 208h220l-110 360z" />
    <glyph glyph-name="Korea1.628" unicode="&#x3381;" 
d="M669 668l224 -729h-75l-59 191h-268l-59 -191h-74l223 729h88zM515 208h219l-109 360zM129 467v-34c27 30 60 52 111 42c77 -16 99 -104 99 -177v-359h-75v318c0 95 -24 137 -59 137c-39 0 -76 -52 -76 -146v-309h-74v528h74z" />
    <glyph glyph-name="Korea1.629" unicode="&#x3382;" 
d="M432 -61h-63c-31 0 -57 4 -68 13c-16 13 -22 29 -24 46c-18 -29 -48 -57 -94 -57c-29 0 -52 23 -60 39l-21 -127h-72l89 614h75l-45 -326c-10 -74 10 -109 53 -109c58 0 83 95 92 154l42 281h74l-62 -417c-3 -17 3 -39 10 -42c5 -2 12 -3 20 -4l203 664h88l224 -729h-75
l-59 191h-268zM515 208h219l-109 360z" />
    <glyph glyph-name="Korea1.630" unicode="&#x3383;" 
d="M694 668l202 -729h-73l-53 191h-236l-53 -191h-73l202 729h84zM747 208l-100 335l-92 -335h192zM113 467v-19c11 15 30 29 50 29c44 0 62 -25 66 -46c13 26 31 48 72 48c66 0 95 -59 95 -174v-366h-72v359c0 75 -13 101 -31 101c-16 0 -34 -31 -34 -101v-359h-73v361
c0 84 -17 100 -35 99c-16 -1 -33 -27 -33 -99v-361h-72v528h67z" />
    <glyph glyph-name="Korea1.631" unicode="&#x3384;" 
d="M488 130l-60 -191h-117l-121 244l-41 -55v-189h-71v730h71v-421l159 218h85l-154 -216l131 -260l207 678h89l223 -729h-75l-60 191h-266zM511 208h220l-110 360z" />
    <glyph glyph-name="Korea1.632" unicode="&#x33ba;" 
d="M382 669l86 -545l79 545h89l83 -543l84 543h74l-120 -730h-81l-84 547l-84 -547h-80l-120 730h74zM128 -38v-210h-67v716h67l-1 -35c20 30 47 48 81 48c86 0 137 -102 137 -278s-59 -279 -143 -279c-31 0 -55 15 -74 38zM201 400c-43 0 -73 -72 -73 -197
c0 -124 30 -197 73 -197c40 0 71 73 71 197c0 125 -31 197 -71 197z" />
    <glyph glyph-name="Korea1.633" unicode="&#x33bb;" 
d="M382 669l86 -545l79 545h89l83 -543l85 543h73l-120 -730h-81l-84 547l-84 -547h-80l-120 730h74zM131 467v-34c25 30 57 50 107 40c72 -16 92 -102 92 -175v-359h-71v323c0 95 -21 134 -56 134c-37 0 -72 -49 -72 -143v-314h-71v528h71z" />
    <glyph glyph-name="Korea1.634" unicode="&#x33bc;" 
d="M670 669l71 -530l74 530h74l-107 -730h-81l-73 543l-74 -543h-80l-108 730h76l73 -532l69 532h86zM244 -11c-16 -26 -41 -48 -81 -48c-23 0 -39 11 -52 29l-17 -117h-70l81 614h72l-39 -326c-10 -74 7 -109 43 -109c49 0 70 94 79 153l38 282h73l-56 -416
c-2 -17 5 -34 9 -38c9 -8 27 -6 41 -5l-16 -67c-38 0 -70 -1 -83 14c-13 12 -18 23 -22 34z" />
    <glyph glyph-name="Korea1.635" unicode="&#x33bd;" 
d="M223 433c14 27 34 46 72 46c65 0 93 -59 93 -174v-366h-72v359c0 75 -13 101 -31 101c-15 0 -32 -31 -32 -101v-359h-73v364c0 83 -15 97 -33 96s-32 -24 -32 -96v-364h-72v528h67v-18c11 16 30 28 49 28c42 0 59 -22 64 -44zM670 669l70 -530l75 530h74l-107 -730h-81
l-73 543l-74 -543h-80l-108 730h76l73 -532l69 532h86z" />
    <glyph glyph-name="Korea1.636" unicode="&#x33be;" 
d="M662 669l70 -530l73 530h76l-107 -730h-82l-72 543l-75 -543h-79l-108 730h75l74 -532l69 532h86zM176 183l-41 -55v-189h-71v730h71v-421l160 218h84l-153 -216l154 -311h-83z" />
    <glyph glyph-name="Korea1.637" unicode="&#x33bf;" 
d="M118 670l105 -584l104 584h81v-732h-66v452l-77 -452h-82l-80 454v-454h-66v732h81zM502 670l63 -523l56 523h83l59 -523l60 523h75l-96 -732h-81l-59 503l-58 -503h-82l-97 732h77z" />
    <glyph glyph-name="Korea1.638" unicode="&#x3390;" 
d="M467 669v-730h-80v344h-221v-344h-80v730h80v-306h221v306h80zM836 467v-79l-243 -377h257v-72h-341v78l245 376h-225v74h307z" />
    <glyph glyph-name="Korea1.639" unicode="&#x3391;" 
d="M638 670v-732h-71v331h-126v-331h-72v732h72v-317h126v317h71zM194 356l168 -418h-76l-135 331l-35 -70v-261h-69v732h69v-324l152 324h75zM876 15v-77h-210v77l128 370h-126v80h203v-74l-133 -376h138z" />
    <glyph glyph-name="Korea1.640" unicode="&#x3392;" 
d="M888 11v-73h-197v73l123 379h-120v76h186v-76l-124 -379h132zM326 423l-81 -485h-61l-82 487v-487h-63v731h86l89 -546l92 546h84v-731h-64v485zM671 668v-730h-69v334h-113v-334h-70v730h70v-314h113v314h69z" />
    <glyph glyph-name="Korea1.641" unicode="&#x3393;" 
d="M888 11v-73h-196v73l122 379h-119v76h185v-76l-124 -379h132zM287 202v40h-84v63h148v-366h-64v52c-13 -25 -34 -61 -90 -62c-123 -3 -171 150 -171 372c0 217 53 377 179 377c128 0 147 -144 146 -232h-65c0 68 -17 151 -82 151c-75 0 -104 -120 -105 -296
c-1 -175 26 -297 100 -297c64 0 88 109 88 198zM666 668v-729h-70v334h-133v-334h-72v729h72v-315h133v315h70z" />
    <glyph glyph-name="Korea1.642" unicode="&#x3394;" 
d="M347 669v-78h-122v-652h-72v652h-130v78h324zM888 11v-73h-214v73l135 379h-132v76h203v-76l-138 -379h146zM648 669v-730h-70v332h-137v-332h-72v730h72v-315h137v315h70z" />
    <glyph glyph-name="Korea1.643" unicode="&#x2126;" 
d="M731 370c0 -149 -83 -262 -178 -299v-65h139v-68h-174c-34 0 -34 32 -34 53v87c0 40 19 59 20 60c96 22 147 102 147 233c0 147 -79 239 -202 239c-118 0 -200 -97 -200 -242c0 -120 46 -192 127 -227c53 -3 44 -82 44 -86c0 -3 2 -84 -4 -93c-3 -12 -8 -24 -27 -24h-171
v68h130v62c-105 37 -180 142 -180 298c-1 175 118 320 281 320c166 0 282 -136 282 -316z" />
    <glyph glyph-name="Korea1.644" unicode="&#x33c0;" 
d="M849 365c0 -147 -55 -255 -124 -293v-65h91v-69h-124c-34 0 -33 33 -33 52v86c0 41 9 53 17 61c62 21 99 100 99 229c0 145 -54 237 -131 237c-72 0 -128 -96 -128 -240c0 -116 33 -193 82 -223c42 -3 35 -80 35 -84s3 -81 -3 -90c-2 -13 -4 -28 -26 -28h-123v69h84v63
c-74 38 -126 137 -126 291c0 177 83 319 205 319c125 0 205 -134 205 -315zM205 183l-40 -55v-189h-72v730h72v-421l158 218h85l-153 -216l154 -311h-84z" />
    <glyph glyph-name="Korea1.645" unicode="&#x33c1;" 
d="M219 -61l-98 487v-487h-65v730h83l120 -585l116 585h84v-730h-66v487l-96 -487h-78zM896 365c0 -147 -56 -255 -124 -293v-65h89v-69h-123c-34 0 -33 33 -33 52v86c0 41 9 53 17 61c63 21 99 100 99 229c0 145 -53 237 -130 237c-73 0 -128 -96 -128 -240
c0 -116 32 -193 81 -223c43 -3 36 -80 36 -84s3 -81 -3 -90c-2 -13 -4 -28 -28 -28h-122v69h84v63c-74 38 -125 137 -125 291c0 177 83 319 205 319c124 0 205 -134 205 -315z" />
    <glyph glyph-name="Korea1.646" unicode="&#x338a;" 
d="M169 468l-3 -50c28 43 67 69 116 69c105 0 173 -108 173 -284s-68 -284 -173 -284c-44 0 -84 22 -113 57v-224h-72v716h72zM273 400c-64 0 -104 -72 -104 -197c0 -124 40 -197 104 -197c62 0 103 73 103 197c0 125 -41 197 -103 197zM854 669v-80h-274v-239h233v-81h-233
v-330h-85v730h359z" />
    <glyph glyph-name="Korea1.647" unicode="&#x338b;" 
d="M842 669v-80h-288v-239h245v-81h-245v-330h-82v730h370zM203 467v-34c25 30 65 52 116 42c76 -16 103 -104 103 -177v-359h-77v318c0 95 -26 137 -62 137c-40 0 -80 -52 -80 -146v-309h-76v528h76z" />
    <glyph glyph-name="Korea1.648" unicode="&#x338c;" 
d="M867 669v-80h-287v-239h244v-81h-244v-330h-84v730h371zM380 467h75l-68 -417c-3 -17 2 -35 12 -39c13 -5 31 -4 47 -3l-20 -67c-45 0 -74 -1 -88 12c-17 15 -26 35 -27 54c-20 -33 -52 -66 -106 -66c-29 0 -54 22 -67 47l-25 -135h-72l100 614h74l-49 -326
c-12 -74 10 -109 61 -109c68 0 94 95 105 154z" />
    <glyph glyph-name="Korea1.649" unicode="&#x33d6;" 
d="M349 203c0 165 49 283 140 283c92 0 140 -118 140 -283c0 -164 -48 -284 -140 -284c-91 0 -140 120 -140 284zM489 407c-45 0 -74 -83 -74 -204c0 -120 29 -205 74 -205c44 0 75 85 75 205c0 121 -31 204 -75 204zM91 467v-16c10 15 26 26 39 26c33 0 48 -19 56 -40
c12 25 30 42 60 42c58 0 81 -59 81 -174v-366h-64v359c0 75 -12 100 -24 100c-13 0 -27 -30 -27 -100v-359h-65v364c0 83 -13 96 -28 95c-12 -1 -24 -23 -24 -95v-364h-67v528h63zM861 59l47 -53c-19 -59 -44 -88 -84 -101c-35 -11 -86 16 -111 66c-5 -4 -42 -22 -78 -25
l-18 74c17 3 47 8 66 22c-33 97 -39 200 -36 313c4 194 57 343 136 349c84 7 112 -150 93 -359c-15 -169 -57 -269 -101 -330c19 -37 32 -37 44 -31c13 6 25 28 42 75zM781 626c-28 -3 -59 -149 -61 -272c-2 -104 9 -227 20 -259c28 40 57 142 66 256c9 122 7 278 -25 275z
" />
    <glyph glyph-name="Korea1.650" unicode="&#x33c5;" 
d="M729 -61v53c-20 -29 -50 -61 -110 -61c-121 -1 -168 109 -168 268c0 162 69 271 184 270c51 -1 80 -33 94 -52v252h78v-730h-78zM636 397c-68 0 -107 -82 -107 -198c0 -110 32 -199 98 -199c64 0 100 91 100 199c0 109 -24 198 -91 198zM353 94h79
c-15 -102 -71 -180 -189 -180c-135 0 -198 119 -198 283c0 167 79 281 214 281c116 0 170 -107 170 -195h-76c-1 28 -18 111 -98 111c-83 0 -130 -69 -130 -194c0 -127 36 -208 123 -208c62 0 102 49 105 102z" />
    <glyph glyph-name="Korea1.651" unicode="&#x33ad;" 
d="M457 211c0 91 -8 195 -64 195c-45 0 -71 -81 -71 -200c0 -108 14 -207 65 -207c55 0 70 100 70 212zM478 -3c-15 -40 -43 -71 -94 -71c-96 0 -134 122 -134 280c0 171 55 275 144 275c37 0 71 -19 87 -53c1 16 4 27 8 48h59c-7 -56 -16 -121 -16 -199v-196
c0 -46 16 -90 32 -122l-59 -36c-14 28 -20 46 -27 74zM44 -61v528h77v-85c23 46 44 63 82 84c27 14 65 13 65 13v-90c-28 0 -51 -4 -70 -16c-51 -33 -77 -87 -77 -185v-249h-77zM713 397c-58 0 -91 -82 -91 -198c0 -110 27 -199 82 -199c52 0 83 91 83 199
c0 109 -20 198 -74 198zM797 -61v54c-18 -29 -50 -62 -100 -62c-105 -1 -145 109 -145 268c0 162 59 271 160 270c43 -1 70 -27 85 -47v247h66v-730h-66z" />
    <glyph glyph-name="Korea1.652" unicode="&#x33ae;" 
d="M95 635v-40c15 21 27 30 55 39c17 8 44 7 44 7v-51c-19 0 -35 -1 -48 -8c-34 -17 -51 -41 -51 -90v-129h-56v272h56zM788 94c35 -16 50 -47 45 -81c-4 -44 -39 -80 -109 -80c-77 0 -111 54 -113 112h54c1 -44 24 -65 60 -65c38 0 55 17 56 36c1 17 -8 26 -22 34
c-21 9 -49 10 -80 19c-37 16 -59 34 -59 77c0 41 33 83 103 83c79 0 105 -59 105 -103h-52c0 35 -17 57 -53 57c-33 0 -47 -21 -47 -37s13 -23 27 -29c13 -6 49 -9 85 -23zM911 579l-718 -737l-35 41l715 733zM554 363l1 25c-11 -13 -32 -30 -68 -30c-58 0 -100 56 -100 139
s39 139 110 138c30 0 48 -12 57 -21v125h47v-376h-47zM500 593c-36 0 -59 -40 -59 -95c0 -54 20 -97 53 -97s53 45 53 97c0 53 -13 95 -47 95zM337 390c-9 -18 -27 -34 -64 -34c-67 0 -92 64 -92 144c0 89 37 142 98 142c26 0 50 -10 59 -25c2 9 2 14 3 24h41
c-2 -28 -7 -64 -7 -104v-101c0 -23 7 -51 19 -67l-42 -20c-11 15 -12 29 -15 41zM322 503c0 45 -6 95 -42 95c-27 0 -45 -39 -45 -97c0 -53 10 -100 42 -100c34 0 45 48 45 102z" />
    <glyph glyph-name="Korea1.653" unicode="&#x33af;" 
d="M545 363l1 25c-11 -13 -32 -30 -68 -30c-58 0 -100 56 -100 139s39 139 110 138c30 0 48 -12 57 -21v125h47v-376h-47zM902 579l-718 -737l-36 41l716 733zM326 390c-9 -18 -25 -34 -62 -34c-67 0 -92 64 -92 144c0 89 37 142 98 142c26 0 50 -10 59 -25l3 22h38
c-3 -28 -7 -62 -7 -102v-101c0 -23 10 -53 22 -70l-43 -15c-10 15 -13 27 -16 39zM713 94c34 -16 51 -47 46 -81c-5 -44 -40 -80 -110 -80c-76 0 -112 54 -113 112h53c1 -44 25 -65 61 -65c37 0 55 17 56 36c1 17 -9 26 -22 34c-20 9 -50 10 -80 19c-36 16 -59 34 -59 77
c1 41 34 83 103 83c79 0 105 -59 105 -103h-52c0 35 -16 57 -53 57c-33 0 -46 -21 -46 -37s12 -23 27 -29c11 -6 49 -9 84 -23zM86 635v-40c15 21 27 30 55 39c17 8 44 7 44 7v-51c-19 0 -36 -1 -48 -8c-34 -17 -51 -41 -51 -90v-129h-56v272h56zM491 593
c-37 0 -59 -40 -59 -95c0 -54 19 -97 53 -97c33 0 53 45 53 97c0 53 -13 95 -47 95zM880 218v-36h-130c0 25 9 53 30 75c9 9 24 20 33 29c11 8 23 17 24 33c1 12 -6 21 -22 21c-22 0 -28 -21 -26 -38h-39c0 31 19 75 64 75c47 0 64 -32 64 -59c0 -23 -14 -39 -27 -50
c-14 -11 -29 -24 -33 -28c-11 -9 -16 -18 -19 -22h81zM313 503c0 45 -6 95 -42 95c-27 0 -45 -39 -45 -97c0 -53 10 -100 42 -100c34 0 45 48 45 102z" />
    <glyph glyph-name="Korea1.654" unicode="&#x33db;" 
d="M101 109h84c5 -63 44 -108 113 -108c55 0 91 26 99 76c4 30 -17 57 -46 74c-48 26 -104 31 -142 45c-55 23 -95 65 -91 135c2 77 68 151 178 151c120 0 178 -96 176 -166h-84c1 28 -18 84 -97 84c-66 0 -87 -37 -88 -70c0 -49 28 -59 62 -71c36 -13 96 -22 139 -50
c42 -27 80 -65 77 -131c-5 -94 -81 -154 -180 -154c-153 0 -198 118 -200 185zM548 -61v528h78v-93c26 46 60 72 105 93c31 14 86 15 86 15v-88c-31 0 -68 -4 -93 -16c-57 -33 -98 -92 -98 -190v-249h-78z" />
    <glyph glyph-name="Korea1.655" unicode="&#x33a9;" 
d="M98 669h201c100 0 179 -87 179 -220c0 -129 -79 -221 -179 -221h-127v-289h-74v730zM172 303h127c46 0 101 50 101 146c0 97 -54 147 -101 147h-127v-293zM844 -48l-71 -27c-15 30 -17 48 -26 85c-18 -43 -50 -84 -118 -84c-112 0 -157 122 -157 280
c0 171 66 275 172 275c50 0 91 -24 105 -66c1 27 6 34 10 61h73c-9 -56 -21 -121 -21 -199v-196c0 -46 15 -97 33 -129zM727 211c0 91 -9 195 -86 195c-64 0 -92 -81 -92 -200c0 -112 17 -207 85 -207c73 0 93 100 93 212z" />
    <glyph glyph-name="Korea1.656" unicode="&#x33aa;" 
d="M96 669v-418l141 215h79l-138 -216l138 -311h-76l-109 243l-35 -54v-189h-66v730h66zM815 -22c-14 -30 -37 -52 -79 -52c-88 0 -119 122 -119 280c0 171 48 275 130 275c30 0 54 -14 68 -37c2 9 4 18 6 32h62c-6 -56 -12 -121 -12 -199v-196c0 -46 11 -110 23 -138
l-64 -24c-8 24 -12 40 -15 59zM796 211c0 91 -7 195 -52 195c-36 0 -56 -81 -56 -200c0 -112 12 -207 51 -207c43 0 57 100 57 212zM341 669h150c77 0 132 -87 132 -220c0 -129 -55 -221 -132 -221h-82v-289h-68v730zM409 303h82c23 0 61 50 61 146c0 97 -37 147 -61 147
h-82v-293z" />
    <glyph glyph-name="Korea1.657" unicode="&#x33ab;" 
d="M305 423l-80 -485h-59l-78 487v-487h-62v731h84l86 -546l89 546h81v-731h-61v485zM403 669h136c73 0 124 -87 124 -220c0 -129 -51 -221 -124 -221h-70v-289h-66v730zM831 -28c-12 -27 -34 -46 -68 -46c-83 0 -111 122 -111 280c0 171 42 275 119 275c27 0 51 -15 61 -33
l4 28h62c-5 -56 -13 -121 -13 -199v-196c0 -46 10 -97 22 -126l-62 -37c-6 23 -11 38 -14 54zM469 303h70c21 0 54 50 54 146c0 97 -32 147 -54 147h-70v-293zM814 211c0 91 -6 195 -45 195c-32 0 -49 -81 -49 -200c0 -112 11 -207 45 -207c36 0 49 100 49 212z" />
    <glyph glyph-name="Korea1.658" unicode="&#x33ac;" 
d="M382 669h136c74 0 123 -87 123 -220c0 -129 -49 -221 -123 -221h-71v-289h-65v730zM815 -28c-11 -27 -33 -46 -68 -46c-82 0 -111 122 -111 280c0 171 43 275 119 275c28 0 51 -15 61 -33l5 28h62c-5 -56 -13 -121 -13 -199v-196c0 -46 10 -97 20 -126l-60 -37zM287 202
v40h-84v63h148v-366h-64v52c-13 -25 -34 -61 -90 -62c-123 -3 -171 150 -171 372c0 217 53 377 179 377c128 0 147 -144 146 -232h-65c0 68 -17 151 -82 151c-75 0 -104 -120 -105 -296c-1 -175 26 -297 100 -297c64 0 88 109 88 198zM447 303h71c20 0 55 50 55 146
c0 97 -34 147 -55 147h-71v-293zM798 211c0 91 -6 195 -45 195c-31 0 -49 -81 -49 -200c0 -112 11 -207 45 -207c37 0 49 100 49 212z" />
    <glyph glyph-name="Korea1.659" unicode="&#x33dd;" 
d="M324 -61l-57 533l-61 -533h-74l-93 730h71l59 -531l57 531h79l58 -533l60 533h70l-92 -730h-77zM605 -61h-73v730h73v-257c13 21 45 56 103 57c113 1 181 -108 181 -270c0 -159 -58 -269 -176 -268c-63 0 -88 36 -108 65v-57zM707 397c-69 0 -93 -89 -93 -198
c0 -108 38 -199 95 -199c69 0 106 89 106 199c0 116 -37 198 -108 198z" />
    <glyph glyph-name="Korea1.660" unicode="&#x33d0;" 
d="M379 54l56 -47c-29 -61 -65 -91 -112 -102c-44 -10 -109 13 -151 74c-24 -14 -71 -30 -103 -32l-28 74c26 3 62 8 93 23c-43 92 -51 198 -48 311c6 194 81 343 181 349c105 6 148 -152 122 -359c-23 -169 -86 -275 -145 -330c25 -39 53 -44 76 -32c23 10 41 31 59 71z
M265 626c-53 -3 -96 -146 -99 -272c-4 -104 11 -223 37 -272c57 58 97 153 108 269c12 122 12 278 -46 275zM514 467v-32c16 25 42 44 70 44c52 0 69 -26 79 -61c22 40 47 61 92 61c74 0 111 -59 111 -174v-366h-76v359c0 75 -17 102 -47 102c-26 0 -48 -32 -48 -102v-359
h-77v361c0 83 -22 100 -49 99c-25 -1 -48 -27 -48 -99v-361h-76v528h69z" />
    <glyph glyph-name="Korea1.661" unicode="&#x33d3;" 
d="M387 54l57 -47c-30 -61 -65 -91 -112 -102c-45 -10 -110 13 -152 74c-23 -14 -71 -30 -103 -32l-28 74c27 3 62 8 93 23c-43 92 -51 198 -48 311c6 194 81 343 181 349c105 6 148 -152 122 -359c-23 -169 -86 -275 -145 -330c25 -39 53 -44 76 -32c23 10 42 31 59 71z
M273 626c-53 -3 -95 -146 -99 -272c-4 -104 11 -223 37 -272c57 58 97 153 108 269c14 122 13 278 -46 275zM858 467l-164 -257l174 -271h-89l-130 200l-130 -200h-87l174 271l-165 257h87l121 -186l121 186h88z" />
    <glyph glyph-name="Korea1.662" unicode="&#x33c3;" 
d="M755 -248l1 232c-25 -41 -59 -64 -103 -64c-100 0 -169 107 -169 283s71 283 171 283c43 0 76 -23 100 -62v43h69v-715h-69zM658 -4c59 0 97 77 97 207c0 131 -38 206 -97 206s-97 -75 -97 -206c0 -130 38 -207 97 -207zM369 329c40 -32 86 -90 85 -195
c-1 -118 -77 -195 -166 -195h-189v730h195c85 0 133 -73 140 -155c9 -84 -19 -147 -65 -185zM169 13h118c52 0 92 57 92 140c0 73 -49 132 -91 132h-119v-272zM169 359h112c42 0 80 57 80 126s-34 116 -78 116h-114v-242z" />
    <glyph glyph-name="Korea1.663" unicode="&#x33c9;" 
d="M413 -61v66c-26 -44 -77 -87 -143 -87c-146 0 -229 154 -229 386c0 230 91 380 234 380c131 0 199 -105 209 -231h-84c-7 81 -45 150 -128 150c-93 0 -151 -123 -151 -299c0 -177 56 -305 149 -305c82 0 139 116 141 228l-143 1v83h222v-372h-77zM578 468l116 -395
l110 395h80l-180 -623c-12 -35 -28 -59 -52 -76c-23 -17 -46 -16 -69 -16h-29v79h41c17 0 34 19 39 42l19 67l-156 527h81z" />
    <glyph glyph-name="Korea1.664" unicode="&#x33dc;" 
d="M578 468l118 -398l108 398h80l-154 -537h-71l-162 537h81zM497 119c-14 -112 -83 -206 -224 -206c-157 0 -228 140 -232 266h85c4 -121 66 -186 148 -186c85 0 124 54 136 128c9 59 -17 92 -60 118c-51 32 -113 26 -169 54c-76 38 -119 89 -118 189c1 97 69 206 206 206
c162 0 211 -151 211 -230h-83c0 82 -42 152 -128 152c-79 0 -119 -66 -119 -128c0 -68 37 -93 69 -109c41 -21 126 -25 181 -61c65 -43 105 -104 97 -193z" />
    <glyph glyph-name="Korea1.665" unicode="&#x33c6;" 
d="M752 756l38 -36l-729 -778l-43 35zM803 172v15h50v-253c0 -86 -51 -115 -105 -115c-70 0 -109 44 -112 95h55c2 -25 20 -48 57 -48c38 0 55 25 55 67v26c-8 -11 -31 -23 -64 -23c-62 0 -112 54 -112 129c0 76 47 130 113 130c28 0 48 -7 63 -23zM743 147
c-34 0 -58 -29 -58 -82s24 -80 58 -80c36 0 60 29 60 82c0 52 -24 80 -60 80zM491 37l-22 -22v-94h-55v365h55v-198l99 99h70l-108 -110l107 -156h-68zM313 450h63c-14 -70 -59 -128 -138 -128c-91 0 -146 79 -146 190s55 191 146 191c79 0 129 -67 138 -129h-62
c-6 30 -27 70 -76 70c-53 0 -87 -54 -87 -132c0 -79 34 -131 87 -131c41 0 67 31 75 69z" />
    <glyph glyph-name="Korea1.666" unicode="&#xc6;" horiz-adv-x="858" 
d="M517 630v-227h247v-79h-247v-254h270v-79h-356v200h-245l-83 -200h-90l312 718h463v-79h-271zM216 261h215v369h-51z" />
    <glyph glyph-name="Korea1.667" unicode="&#xd0;" horiz-adv-x="732" 
d="M672 358c0 -216 -112 -367 -356 -367h-219v326h-92v80h92v312h219c228 0 356 -160 356 -351zM395 397v-80h-212v-247h121c192 0 276 99 276 283c0 167 -101 277 -259 277h-138v-233h212z" />
    <glyph glyph-name="Korea1.668" unicode="&#xaa;" horiz-adv-x="450" 
d="M364 458h-50l-4 34c-18 -18 -53 -41 -101 -41c-81 -1 -122 37 -122 108c0 56 58 105 148 105c25 0 41 0 67 -1c-1 54 -18 89 -81 89c-34 0 -71 -12 -98 -31l-2 44c30 21 66 35 110 35c92 0 127 -54 127 -139v-122c0 -23 4 -64 6 -81zM306 580v38h-41
c-27 1 -122 0 -122 -59c0 -41 36 -64 64 -64c60 0 99 41 99 85z" />
    <glyph glyph-name="Korea1.669" unicode="&#x126;" horiz-adv-x="732" 
d="M708 602v-75h-71v-536h-85v332h-369v-332h-85v536h-71v75h71v107h85v-107h369v107h85v-107h71zM183 403h369v124h-369v-124z" />
    <glyph glyph-name="Korea1.670" unicode="&#x132;" horiz-adv-x="675" 
d="M198 709v-718h-86v718h86zM572 709v-532c0 -108 -45 -198 -203 -198c-30 0 -57 6 -72 13v72c24 -8 47 -11 63 -11c44 0 77 10 96 33c21 23 30 59 30 109v514h86z" />
    <glyph glyph-name="Korea1.671" unicode="&#x13f;" horiz-adv-x="510" 
d="M496 70v-79h-397v718h86v-639h311zM451 378c-13 -12 -28 -18 -46 -18c-35 0 -63 28 -63 61s28 62 63 62c37 0 65 -29 65 -62c0 -16 -7 -30 -19 -43z" />
    <glyph glyph-name="Korea1.672" unicode="&#x141;" horiz-adv-x="510" 
d="M-20 224l119 120v365h86v-278l87 88l52 -45l-139 -141v-263h311v-79h-397v255l-66 -67z" />
    <glyph glyph-name="Korea1.673" unicode="&#xd8;" horiz-adv-x="788" 
d="M739 688l-80 -91c51 -66 78 -153 78 -248c0 -212 -125 -370 -341 -370c-86 0 -158 25 -213 69l-78 -90l-56 49l82 94c-50 65 -76 151 -76 248c0 204 127 372 341 372c85 0 156 -26 211 -70l75 87zM645 349c0 64 -16 127 -46 178l-360 -415c39 -34 91 -55 157 -55
c173 0 249 148 249 292zM146 349c0 -63 14 -127 45 -178l360 415c-40 35 -92 57 -155 57c-165 0 -250 -144 -250 -294z" />
    <glyph glyph-name="Korea1.674" unicode="&#x152;" horiz-adv-x="887" 
d="M817 709v-79h-261v-227h237v-79h-237v-254h260v-79h-346v4c-30 -10 -63 -16 -98 -16c-206 0 -317 159 -317 370c0 204 112 372 317 372c35 0 68 -7 98 -17v5h347zM372 57c37 0 70 7 98 20v544c-29 14 -62 22 -98 22c-158 0 -230 -144 -230 -294c0 -144 64 -292 230 -292z
" />
    <glyph glyph-name="Korea1.675" unicode="&#xba;" horiz-adv-x="450" 
d="M225 447c-89 0 -114 104 -114 173c0 68 23 173 114 173s114 -105 114 -173c0 -69 -25 -173 -114 -173zM225 490c55 0 61 93 61 130c0 33 -11 130 -61 130s-61 -97 -61 -130c0 -37 6 -130 61 -130z" />
    <glyph glyph-name="Korea1.676" unicode="&#xde;" horiz-adv-x="732" 
d="M443 115h-258v-125h-85v719h85v-125h258c119 0 229 -67 229 -235c0 -167 -106 -234 -229 -234zM439 514h-254v-327h254c91 0 150 41 150 162c0 119 -59 165 -150 165z" />
    <glyph glyph-name="Korea1.677" unicode="&#x166;" horiz-adv-x="566" 
d="M505 325h-179v-334h-86v334h-178v76h178v230h-223v78h533v-78h-224v-230h179v-76z" />
    <glyph glyph-name="Korea1.678" unicode="&#x14a;" horiz-adv-x="746" 
d="M651 709v-718c0 -108 -45 -198 -203 -198c-30 0 -57 6 -72 13v72c24 -8 47 -11 63 -11c44 0 77 10 96 33c13 15 21 34 26 59l-376 659h-2v-627h-85v718h134l333 -605v605h86z" />
    <glyph glyph-name="Korea1.679" unicode="&#x3260;" 
d="M457 759c236 0 426 -206 426 -459s-190 -459 -426 -459c-235 0 -425 206 -425 459s190 459 425 459zM457 718c-212 0 -383 -187 -383 -418s171 -418 383 -418c213 0 384 187 384 418s-171 418 -384 418zM582 93v346h-335v69h412v-415h-77z" />
    <glyph glyph-name="Korea1.680" unicode="&#x3261;" 
d="M457 759c236 0 426 -206 426 -459s-190 -459 -426 -459c-235 0 -425 206 -425 459s190 459 425 459zM457 718c-212 0 -383 -187 -383 -418s171 -418 383 -418c213 0 384 187 384 418s-171 418 -384 418zM333 507v-346h335v-69h-413v415h78z" />
    <glyph glyph-name="Korea1.681" unicode="&#x3262;" 
d="M457 759c236 0 426 -206 426 -459s-190 -459 -426 -459c-235 0 -425 206 -425 459s190 459 425 459zM457 718c-212 0 -383 -187 -383 -418s171 -418 383 -418c213 0 384 187 384 418s-171 418 -384 418zM659 508v-69h-325v-278h331v-69h-410v416h404z" />
    <glyph glyph-name="Korea1.682" unicode="&#x3263;" 
d="M457 759c236 0 426 -206 426 -459s-190 -459 -426 -459c-235 0 -425 206 -425 459s190 459 425 459zM457 718c-212 0 -383 -187 -383 -418s171 -418 383 -418c213 0 384 187 384 418s-171 418 -384 418zM668 161v-69h-413v243h327v104h-327v69h404v-243h-326v-104h335z
" />
    <glyph glyph-name="Korea1.683" unicode="&#x3264;" 
d="M457 759c236 0 426 -206 426 -459s-190 -459 -426 -459c-235 0 -425 206 -425 459s190 459 425 459zM457 718c-212 0 -383 -187 -383 -418s171 -418 383 -418c213 0 384 187 384 418s-171 418 -384 418zM659 92h-404v416h404v-416zM333 439v-278h249v278h-249z" />
    <glyph glyph-name="Korea1.684" unicode="&#x3265;" 
d="M457 759c236 0 426 -206 426 -459s-190 -459 -426 -459c-235 0 -425 206 -425 459s190 459 425 459zM457 718c-212 0 -383 -187 -383 -418s171 -418 383 -418c213 0 384 187 384 418s-171 418 -384 418zM659 92h-404v416h78v-125h249v125h77v-416zM333 315v-153h249v153
h-249z" />
    <glyph glyph-name="Korea1.685" unicode="&#x3266;" 
d="M457 759c236 0 426 -206 426 -459s-190 -459 -426 -459c-235 0 -425 206 -425 459s190 459 425 459zM457 718c-212 0 -383 -187 -383 -418s171 -418 383 -418c213 0 384 187 384 418s-171 418 -384 418zM384 163c-46 -40 -83 -51 -114 -57l-61 48c35 8 82 29 132 74
c53 48 76 126 76 199v120h81v-120c0 -73 22 -151 76 -199c50 -44 97 -66 132 -74l-61 -48c-32 5 -67 16 -114 57c-42 40 -61 71 -74 102c-12 -31 -31 -63 -73 -102z" />
    <glyph glyph-name="Korea1.686" unicode="&#x3267;" 
d="M457 759c236 0 426 -206 426 -459s-190 -459 -426 -459c-235 0 -425 206 -425 459s190 459 425 459zM457 718c-212 0 -383 -187 -383 -418s171 -418 383 -418c213 0 384 187 384 418s-171 418 -384 418zM457 544c129 0 221 -110 221 -244s-92 -244 -221 -244
s-220 110 -220 244s91 244 220 244zM457 474c-91 0 -143 -77 -143 -174s52 -174 143 -174c93 0 144 77 144 174s-51 174 -144 174z" />
    <glyph glyph-name="Korea1.687" unicode="&#x3268;" 
d="M457 759c236 0 426 -206 426 -459s-190 -459 -426 -459c-235 0 -425 206 -425 459s190 459 425 459zM457 718c-212 0 -383 -187 -383 -418s171 -418 383 -418c213 0 384 187 384 418s-171 418 -384 418zM416 429h-170v69h423v-69h-170c1 -72 23 -148 75 -193
c50 -45 97 -64 132 -71l-61 -49c-32 5 -65 19 -112 60c-42 40 -63 72 -76 102c-12 -30 -32 -63 -75 -102c-46 -39 -81 -54 -112 -60l-61 49c35 7 82 25 132 71c51 45 74 121 75 193z" />
    <glyph glyph-name="Korea1.688" unicode="&#x3269;" 
d="M457 759c236 0 426 -206 426 -459s-190 -459 -426 -459c-235 0 -425 206 -425 459s190 459 425 459zM457 718c-212 0 -383 -187 -383 -418s171 -418 383 -418c213 0 384 187 384 418s-171 418 -384 418zM414 350h-162v69h411v-69h-162c8 -59 30 -117 73 -154
c50 -45 97 -64 132 -71l-61 -49c-32 5 -65 19 -112 60c-42 40 -63 72 -76 102c-12 -30 -32 -63 -75 -102c-46 -39 -81 -54 -112 -60l-61 49c35 7 82 25 132 71c42 37 65 95 73 154zM326 468v70h263v-70h-263z" />
    <glyph glyph-name="Korea1.689" unicode="&#x326a;" 
d="M457 759c236 0 426 -206 426 -459s-190 -459 -426 -459c-235 0 -425 206 -425 459s190 459 425 459zM457 718c-212 0 -383 -187 -383 -418s171 -418 383 -418c213 0 384 187 384 418s-171 418 -384 418zM582 261h-327v69h327v114h-327v69h404v-426h-77v174z" />
    <glyph glyph-name="Korea1.690" unicode="&#x326b;" 
d="M457 759c236 0 426 -206 426 -459s-190 -459 -426 -459c-235 0 -425 206 -425 459s190 459 425 459zM457 718c-212 0 -383 -187 -383 -418s171 -418 383 -418c213 0 384 187 384 418s-171 418 -384 418zM659 265h-325v-109h334v-69h-413v426h410v-69h-331v-109h325v-70z
" />
    <glyph glyph-name="Korea1.691" unicode="&#x326c;" 
d="M457 759c236 0 426 -206 426 -459s-190 -459 -426 -459c-235 0 -425 206 -425 459s190 459 425 459zM457 718c-212 0 -383 -187 -383 -418s171 -418 383 -418c213 0 384 187 384 418s-171 418 -384 418zM338 161v278h-73v69h385v-69h-73v-278h82v-69h-404v69h83zM500 161
v278h-84v-278h84z" />
    <glyph glyph-name="Korea1.692" unicode="&#x326d;" 
d="M457 759c236 0 426 -206 426 -459s-190 -459 -426 -459c-235 0 -425 206 -425 459s190 459 425 459zM457 718c-212 0 -383 -187 -383 -418s171 -418 383 -418c213 0 384 187 384 418s-171 418 -384 418zM457 345c97 0 169 -69 169 -159s-72 -158 -169 -158
c-95 0 -168 68 -168 158s73 159 168 159zM457 276c-50 0 -91 -41 -91 -91c0 -46 38 -89 91 -89s90 44 90 89c0 50 -35 91 -90 91zM320 468v70h274v-70h-274zM678 439v-70h-441v70h441z" />
    <glyph glyph-name="Korea1.693" unicode="&#x326e;" 
d="M457 759c236 0 426 -206 426 -459s-190 -459 -426 -459c-235 0 -425 206 -425 459s190 459 425 459zM457 718c-212 0 -383 -187 -383 -418s171 -418 383 -418c213 0 384 187 384 418s-171 418 -384 418zM345 286c45 57 72 136 77 189h-212v65h292
c-2 -89 -36 -201 -85 -269c-51 -74 -131 -138 -215 -167l-48 47c74 26 141 67 191 135zM731 293h-83v-295h-72v604h72v-245h83v-64z" />
    <glyph glyph-name="Korea1.694" unicode="&#x326f;" 
d="M457 759c236 0 426 -206 426 -459s-190 -459 -426 -459c-235 0 -425 206 -425 459s190 459 425 459zM457 718c-212 0 -383 -187 -383 -418s171 -418 383 -418c213 0 384 187 384 418s-171 418 -384 418zM549 227v-62c-35 -8 -88 -18 -146 -21c-72 -4 -187 -3 -192 -3v398
h73v-333l126 3c43 2 105 12 139 18zM577 -3v604h72v-231h82v-64h-82v-309h-72z" />
    <glyph glyph-name="Korea1.695" unicode="&#x3270;" 
d="M457 759c236 0 426 -206 426 -459s-190 -459 -426 -459c-235 0 -425 206 -425 459s190 459 425 459zM457 718c-212 0 -383 -187 -383 -418s171 -418 383 -418c213 0 384 187 384 418s-171 418 -384 418zM548 228v-62c-36 -8 -115 -22 -202 -23l-136 -1v390h292v-64h-219
v-261l111 2c42 2 120 13 154 19zM576 -2v603h72v-244h83v-64h-83v-295h-72z" />
    <glyph glyph-name="Korea1.696" unicode="&#x3271;" 
d="M457 759c236 0 426 -206 426 -459s-190 -459 -426 -459c-235 0 -425 206 -425 459s190 459 425 459zM457 718c-212 0 -383 -187 -383 -418s171 -418 383 -418c213 0 384 187 384 418s-171 418 -384 418zM547 207v-62c-31 -7 -100 -19 -157 -21l-187 -3v248h210v113h-210
v64h284v-242h-212v-118c2 0 58 -1 123 3c48 3 108 11 149 18zM575 -3v604h73v-244h82v-65h-82v-295h-73z" />
    <glyph glyph-name="Korea1.697" unicode="&#x3272;" 
d="M457 759c236 0 426 -206 426 -459s-190 -459 -426 -459c-235 0 -425 206 -425 459s190 459 425 459zM457 718c-212 0 -383 -187 -383 -418s171 -418 383 -418c213 0 384 187 384 418s-171 418 -384 418zM735 293h-82v-295h-73v602h73v-244h82v-63zM209 135v402h292v-402
h-292zM428 474h-146v-274h146v274z" />
    <glyph glyph-name="Korea1.698" unicode="&#x3273;" 
d="M426 362h-146v-162h146v162zM457 759c236 0 426 -206 426 -459s-190 -459 -426 -459c-235 0 -425 206 -425 459s190 459 425 459zM457 718c-212 0 -383 -187 -383 -418s171 -418 383 -418c213 0 384 187 384 418s-171 418 -384 418zM207 135v419h73v-128h146v128h74v-419
h-293zM734 293h-82v-295h-72v604h72v-244h82v-65z" />
    <glyph glyph-name="Korea1.699" unicode="&#x3274;" 
d="M388 560v-144c0 -65 22 -122 53 -163c35 -46 88 -82 115 -92l-45 -50c-19 7 -67 39 -104 76c-29 31 -47 59 -57 89c-8 -29 -27 -59 -55 -90c-37 -37 -85 -69 -104 -76l-46 51c27 10 80 46 115 92c32 41 54 98 54 163v144h74zM457 759c236 0 426 -206 426 -459
s-190 -459 -426 -459c-235 0 -425 206 -425 459s190 459 425 459zM457 718c-212 0 -383 -187 -383 -418s171 -418 383 -418c213 0 384 187 384 418s-171 418 -384 418zM730 292h-82v-295h-73v604h73v-244h82v-65z" />
    <glyph glyph-name="Korea1.700" unicode="&#x3275;" 
d="M457 759c236 0 426 -206 426 -459s-190 -459 -426 -459c-235 0 -425 206 -425 459s190 459 425 459zM457 718c-212 0 -383 -187 -383 -418s171 -418 383 -418c213 0 384 187 384 418s-171 418 -384 418zM185 330c0 149 66 230 158 230c93 0 161 -81 161 -230
c0 -147 -68 -229 -161 -229c-92 0 -158 82 -158 229zM731 293h-83v-295h-73v603h73v-244h83v-64zM254 331c0 -97 36 -164 90 -164c56 0 89 68 89 164c0 95 -33 162 -89 162c-54 0 -90 -66 -90 -162z" />
    <glyph glyph-name="Korea1.701" unicode="&#x3276;" 
d="M457 759c236 0 426 -206 426 -459s-190 -459 -426 -459c-235 0 -425 206 -425 459s190 459 425 459zM457 718c-212 0 -383 -187 -383 -418s171 -418 383 -418c213 0 384 187 384 418s-171 418 -384 418zM324 409v66h-128v65h330v-65h-128v-66c0 -65 21 -123 52 -164
c36 -47 89 -74 117 -84l-47 -51c-18 7 -67 35 -103 71c-29 29 -47 58 -56 89c-10 -31 -26 -60 -56 -89c-37 -36 -85 -64 -103 -71l-46 51c28 10 81 37 115 84c31 41 53 99 53 164zM740 293h-83v-295h-73v603h73v-244h83v-64z" />
    <glyph glyph-name="Korea1.702" unicode="&#x3277;" 
d="M457 759c236 0 426 -206 426 -459s-190 -459 -426 -459c-235 0 -425 206 -425 459s190 459 425 459zM457 718c-212 0 -383 -187 -383 -418s171 -418 383 -418c213 0 384 187 384 418s-171 418 -384 418zM729 293h-82v-295h-73v604h73v-244h82v-65zM262 516v65h178v-65
h-178zM314 376v37h-129v65h331v-65h-128v-37c0 -64 22 -109 54 -142c39 -42 86 -63 113 -72l-46 -51c-21 8 -65 29 -103 64c-28 25 -47 47 -55 71c-9 -24 -28 -46 -55 -71c-38 -35 -83 -56 -104 -64l-48 51c29 9 76 30 115 72c32 33 55 78 55 142z" />
    <glyph glyph-name="Korea1.703" unicode="&#x3278;" 
d="M457 759c236 0 426 -206 426 -459s-190 -459 -426 -459c-235 0 -425 206 -425 459s190 459 425 459zM457 718c-212 0 -383 -187 -383 -418s171 -418 383 -418c213 0 384 187 384 418s-171 418 -384 418zM405 392c11 30 18 59 20 83h-216v65h297c-3 -89 -41 -202 -90 -269
c-50 -72 -143 -138 -218 -168l-48 48c73 26 139 70 195 136c10 12 20 25 27 38l-25 -2c-47 -4 -145 -3 -151 -3v65l152 2c22 1 41 3 57 5zM731 293h-83v-295h-73v604h73v-244h83v-65z" />
    <glyph glyph-name="Korea1.704" unicode="&#x3279;" 
d="M457 759c236 0 426 -206 426 -459s-190 -459 -426 -459c-235 0 -425 206 -425 459s190 459 425 459zM457 718c-212 0 -383 -187 -383 -418s171 -418 383 -418c213 0 384 187 384 418s-171 418 -384 418zM552 208v-62c-36 -8 -101 -18 -141 -20c-75 -4 -190 -4 -197 -4
v417h290v-64h-216v-107h210v-64h-210v-117l119 3c44 2 111 12 145 18zM580 -2v603h73v-244h82v-64h-82v-295h-73z" />
    <glyph glyph-name="Korea1.705" unicode="&#x327a;" 
d="M457 759c236 0 426 -206 426 -459s-190 -459 -426 -459c-235 0 -425 206 -425 459s190 459 425 459zM457 718c-212 0 -383 -187 -383 -418s171 -418 383 -418c213 0 384 187 384 418s-171 418 -384 418zM583 -3v604h74v-244h82v-65h-82v-295h-74zM565 204v-64
c-43 -8 -119 -19 -214 -19h-171v65h69l-18 269h73l16 -269c33 0 51 0 76 1l16 268h74l-19 -264c34 2 70 8 98 13zM528 475h-342v64h342v-64z" />
    <glyph glyph-name="Korea1.706" unicode="&#x327b;" 
d="M353 327c-50 0 -82 -37 -82 -85s32 -85 82 -85c53 0 83 37 83 85s-30 85 -83 85zM457 759c236 0 426 -206 426 -459s-190 -459 -426 -459c-235 0 -425 206 -425 459s190 459 425 459zM457 718c-212 0 -383 -187 -383 -418s171 -418 383 -418c213 0 384 187 384 418
s-171 418 -384 418zM353 392c92 0 157 -67 157 -150c0 -82 -65 -150 -157 -150c-91 0 -155 68 -155 150c0 83 64 150 155 150zM169 414v64h369v-64h-369zM265 517v64h178v-64h-178zM730 294h-82v-295h-74v603h74v-243h82v-65z" />
    <glyph glyph-name="Korea1.707" unicode="&#x24d0;" 
d="M457 759c236 0 426 -206 426 -459s-190 -459 -426 -459c-235 0 -425 206 -425 459s190 459 425 459zM457 718c-212 0 -383 -187 -383 -418s171 -418 383 -418c213 0 384 187 384 418s-171 418 -384 418zM629 403v-249c0 -38 14 -65 15 -66h-73c-10 18 -14 37 -14 58
c-27 -34 -76 -70 -141 -74c-77 -4 -144 32 -152 107c-10 78 33 128 90 146c49 15 100 14 146 23c26 6 57 16 57 53c0 35 -26 79 -100 79c-72 0 -105 -38 -99 -81h-71c-7 92 76 143 170 143c90 0 172 -53 172 -139zM557 246v71c-5 -8 -21 -16 -39 -20
c-32 -8 -94 -12 -116 -20c-44 -15 -71 -44 -65 -87c5 -44 48 -59 86 -57c88 8 134 70 134 113z" />
    <glyph glyph-name="Korea1.708" unicode="&#x24d1;" 
d="M457 759c236 0 426 -206 426 -459s-190 -459 -426 -459c-235 0 -425 206 -425 459s190 459 425 459zM457 718c-212 0 -383 -187 -383 -418s171 -418 383 -418c213 0 384 187 384 418s-171 418 -384 418zM369 45v-45h-72v600h72v-206c32 38 76 59 130 59
c110 0 185 -96 185 -234s-75 -234 -185 -234c-54 0 -98 22 -130 60zM488 385c-76 0 -119 -68 -119 -166s43 -166 119 -166c75 0 119 68 119 166s-44 166 -119 166z" />
    <glyph glyph-name="Korea1.709" unicode="&#x24d2;" 
d="M457 759c236 0 426 -206 426 -459s-190 -459 -426 -459c-235 0 -425 206 -425 459s190 459 425 459zM457 718c-212 0 -383 -187 -383 -418s171 -418 383 -418c213 0 384 187 384 418s-171 418 -384 418zM568 211h79c-20 -78 -78 -147 -183 -147c-121 0 -196 105 -196 235
c0 129 75 235 196 235c106 0 170 -78 183 -148h-78c-8 35 -38 82 -105 82c-72 0 -120 -76 -120 -169c0 -94 48 -169 120 -169c57 0 92 38 104 81z" />
    <glyph glyph-name="Korea1.710" unicode="&#x24d3;" 
d="M457 759c236 0 426 -206 426 -459s-190 -459 -426 -459c-235 0 -425 206 -425 459s190 459 425 459zM457 718c-212 0 -383 -187 -383 -418s171 -418 383 -418c213 0 384 187 384 418s-171 418 -384 418zM547 1v45c-33 -37 -77 -60 -131 -60c-110 0 -185 96 -185 234
s75 234 185 234c54 0 98 -21 131 -59v206h71v-600h-71zM427 386c-75 0 -119 -68 -119 -166s44 -166 119 -166c76 0 120 68 120 166s-44 166 -120 166z" />
    <glyph glyph-name="Korea1.711" unicode="&#x24d4;" 
d="M457 759c236 0 426 -206 426 -459s-190 -459 -426 -459c-235 0 -425 206 -425 459s190 459 425 459zM457 718c-212 0 -383 -187 -383 -418s171 -418 383 -418c213 0 384 187 384 418s-171 418 -384 418zM459 534c106 0 198 -85 194 -260h-313c2 -79 57 -144 119 -144
c61 0 90 37 101 64h79c-18 -61 -67 -130 -178 -130c-117 0 -198 105 -198 235c0 128 77 235 196 235zM342 336h233c-3 71 -48 132 -116 132c-65 0 -111 -52 -117 -132z" />
    <glyph glyph-name="Korea1.712" unicode="&#x24d5;" 
d="M457 759c236 0 426 -206 426 -459s-190 -459 -426 -459c-235 0 -425 206 -425 459s190 459 425 459zM457 718c-212 0 -383 -187 -383 -418s171 -418 383 -418c213 0 384 187 384 418s-171 418 -384 418zM409 -5v377h-48v62h48v48c0 44 4 59 17 79c14 19 37 34 65 34h47
v-61c-12 0 -31 2 -43 -10c-14 -15 -14 -29 -14 -52v-38h57v-62h-57v-377h-72z" />
    <glyph glyph-name="Korea1.713" unicode="&#x24d6;" 
d="M457 759c236 0 426 -206 426 -459s-190 -459 -426 -459c-235 0 -425 206 -425 459s190 459 425 459zM457 718c-212 0 -383 -187 -383 -418s171 -418 383 -418c213 0 384 187 384 418s-171 418 -384 418zM562 544v43h70v-413c0 -134 -93 -179 -184 -179
c-112 0 -179 68 -183 141h71c3 -38 37 -78 113 -78s113 41 113 115v60c-35 -39 -80 -63 -129 -63c-103 0 -187 98 -187 216c0 120 77 216 187 216c50 0 95 -21 129 -58zM442 534c-71 0 -119 -59 -119 -148c0 -88 48 -147 119 -147c72 0 120 59 120 147
c0 89 -48 148 -120 148z" />
    <glyph glyph-name="Korea1.714" unicode="&#x24d7;" 
d="M457 759c236 0 426 -206 426 -459s-190 -459 -426 -459c-235 0 -425 206 -425 459s190 459 425 459zM457 718c-212 0 -383 -187 -383 -418s171 -418 383 -418c213 0 384 187 384 418s-171 418 -384 418zM286 -1v600h72v-209c31 33 80 70 152 62c84 -10 118 -89 118 -147
v-306h-72v275c0 73 -29 106 -88 106c-62 0 -110 -54 -110 -121v-260h-72z" />
    <glyph glyph-name="Korea1.715" unicode="&#x24d8;" 
d="M457 759c236 0 426 -206 426 -459s-190 -459 -426 -459c-235 0 -425 206 -425 459s190 459 425 459zM457 718c-212 0 -383 -187 -383 -418s171 -418 383 -418c213 0 384 187 384 418s-171 418 -384 418zM494 438v-438h-72v438h72zM494 599v-76h-72v76h72z" />
    <glyph glyph-name="Korea1.716" unicode="&#x24d9;" 
d="M457 759c236 0 426 -206 426 -459s-190 -459 -426 -459c-235 0 -425 206 -425 459s190 459 425 459zM457 718c-212 0 -383 -187 -383 -418s171 -418 383 -418c213 0 384 187 384 418s-171 418 -384 418zM509 654v-77h-73v77h73zM509 493v-437c0 -43 -6 -66 -18 -82
c-13 -18 -39 -30 -72 -30h-40v61c13 0 31 -2 45 11s12 28 12 51v426h73z" />
    <glyph glyph-name="Korea1.717" unicode="&#x24da;" 
d="M457 759c236 0 426 -206 426 -459s-190 -459 -426 -459c-235 0 -425 206 -425 459s190 459 425 459zM457 718c-212 0 -383 -187 -383 -418s171 -418 383 -418c213 0 384 187 384 418s-171 418 -384 418zM405 226l-50 -49v-178h-69v600h69v-338l181 177h84l-167 -164
l199 -275h-80z" />
    <glyph glyph-name="Korea1.718" unicode="&#x24db;" 
d="M457 759c236 0 426 -206 426 -459s-190 -459 -426 -459c-235 0 -425 206 -425 459s190 459 425 459zM457 718c-212 0 -383 -187 -383 -418s171 -418 383 -418c213 0 384 187 384 418s-171 418 -384 418zM421 0v600h72v-600h-72z" />
    <glyph glyph-name="Korea1.719" unicode="&#x24dc;" 
d="M457 759c236 0 426 -206 426 -459s-190 -459 -426 -459c-235 0 -425 206 -425 459s190 459 425 459zM457 718c-212 0 -383 -187 -383 -418s171 -418 383 -418c213 0 384 187 384 418s-171 418 -384 418zM493 347v-270h-71v285c0 67 -10 103 -71 99
c-52 -4 -85 -44 -85 -114v-270h-72v438h72v-51c25 33 59 73 129 66c38 -4 70 -27 86 -72c19 24 58 81 142 72c76 -9 99 -78 99 -147v-306h-73v285c0 67 -9 103 -69 99c-53 -4 -87 -44 -87 -114z" />
    <glyph glyph-name="Korea1.720" unicode="&#x24dd;" 
d="M457 759c236 0 426 -206 426 -459s-190 -459 -426 -459c-235 0 -425 206 -425 459s190 459 425 459zM457 718c-212 0 -383 -187 -383 -418s171 -418 383 -418c213 0 384 187 384 418s-171 418 -384 418zM287 71v438h72v-47c31 33 80 70 152 62c84 -10 118 -89 118 -147
v-306h-72v274c0 74 -29 106 -88 106c-62 0 -110 -53 -110 -120v-260h-72z" />
    <glyph glyph-name="Korea1.721" unicode="&#x24de;" 
d="M457 759c236 0 426 -206 426 -459s-190 -459 -426 -459c-235 0 -425 206 -425 459s190 459 425 459zM457 718c-212 0 -383 -187 -383 -418s171 -418 383 -418c213 0 384 187 384 418s-171 418 -384 418zM459 534c120 0 194 -105 194 -235s-74 -235 -194 -235
c-122 0 -196 105 -196 235s74 235 196 235zM459 468c-73 0 -121 -76 -121 -169s48 -169 121 -169c71 0 119 76 119 169s-48 169 -119 169z" />
    <glyph glyph-name="Korea1.722" unicode="&#x24df;" 
d="M457 759c236 0 426 -206 426 -459s-190 -459 -426 -459c-235 0 -425 206 -425 459s190 459 425 459zM457 718c-212 0 -383 -187 -383 -418s171 -418 383 -418c213 0 384 187 384 418s-171 418 -384 418zM361 195v-190h-70v584h70v-45c33 38 78 60 131 60
c110 0 184 -96 184 -234c0 -139 -74 -235 -184 -235c-53 0 -98 23 -131 60zM481 535c-75 0 -120 -68 -120 -165c0 -98 45 -167 120 -167c74 0 120 69 120 167c0 97 -46 165 -120 165z" />
    <glyph glyph-name="Korea1.723" unicode="&#x24e0;" 
d="M457 759c236 0 426 -206 426 -459s-190 -459 -426 -459c-235 0 -425 206 -425 459s190 459 425 459zM457 718c-212 0 -383 -187 -383 -418s171 -418 383 -418c213 0 384 187 384 418s-171 418 -384 418zM545 7v190c-33 -37 -78 -60 -131 -60c-109 0 -184 96 -184 235
c0 138 75 234 184 234c53 0 98 -22 131 -60v45h70v-584h-70zM425 537c-75 0 -120 -68 -120 -165c0 -98 45 -167 120 -167s120 69 120 167c0 97 -45 165 -120 165z" />
    <glyph glyph-name="Korea1.724" unicode="&#x24e1;" 
d="M457 759c236 0 426 -206 426 -459s-190 -459 -426 -459c-235 0 -425 206 -425 459s190 459 425 459zM457 718c-212 0 -383 -187 -383 -418s171 -418 383 -418c213 0 384 187 384 418s-171 418 -384 418zM384 64v438h70v-67c20 36 41 55 75 72c23 10 56 10 59 10v-76
c-25 0 -45 -2 -65 -12c-44 -26 -69 -68 -69 -146v-219h-70z" />
    <glyph glyph-name="Korea1.725" unicode="&#x24e2;" 
d="M457 759c236 0 426 -206 426 -459s-190 -459 -426 -459c-235 0 -425 206 -425 459s190 459 425 459zM457 718c-212 0 -383 -187 -383 -418s171 -418 383 -418c213 0 384 187 384 418s-171 418 -384 418zM287 216h69c6 -49 40 -81 107 -81c53 0 83 22 89 59
c4 23 -9 47 -39 60c-44 20 -101 27 -134 42c-47 20 -80 58 -77 116c3 62 59 122 157 122c106 0 158 -76 156 -134h-71c2 23 -16 66 -89 66c-60 0 -80 -33 -81 -58c-1 -36 21 -46 52 -57c33 -12 93 -24 135 -44c37 -18 69 -54 67 -109c-5 -77 -75 -133 -164 -133
c-139 1 -177 99 -177 151z" />
    <glyph glyph-name="Korea1.726" unicode="&#x24e3;" 
d="M457 759c236 0 426 -206 426 -459s-190 -459 -426 -459c-235 0 -425 206 -425 459s190 459 425 459zM457 718c-212 0 -383 -187 -383 -418s171 -418 383 -418c213 0 384 187 384 418s-171 418 -384 418zM487 393v-253c0 -24 -2 -35 12 -51c11 -10 31 -10 44 -10v-63h-48
c-28 0 -50 16 -64 35s-17 35 -17 79v263h-49v63h49v130h73v-130h56v-63h-56z" />
    <glyph glyph-name="Korea1.727" unicode="&#x24e4;" 
d="M457 759c236 0 426 -206 426 -459s-190 -459 -426 -459c-235 0 -425 206 -425 459s190 459 425 459zM457 718c-212 0 -383 -187 -383 -418s171 -418 383 -418c213 0 384 187 384 418s-171 418 -384 418zM627 527v-438h-72v54c-23 -36 -68 -70 -132 -70
c-65 0 -137 49 -137 154v300h69v-275c0 -76 37 -111 97 -107c59 4 103 45 103 123v259h72z" />
    <glyph glyph-name="Korea1.728" unicode="&#x24e5;" 
d="M457 759c236 0 426 -206 426 -459s-190 -459 -426 -459c-235 0 -425 206 -425 459s190 459 425 459zM457 718c-212 0 -383 -187 -383 -418s171 -418 383 -418c213 0 384 187 384 418s-171 418 -384 418zM341 493l118 -355l117 355h75l-150 -439h-85l-150 439h75z" />
    <glyph glyph-name="Korea1.729" unicode="&#x24e6;" 
d="M457 759c236 0 426 -206 426 -459s-190 -459 -426 -459c-235 0 -425 206 -425 459s190 459 425 459zM457 718c-212 0 -383 -187 -383 -418s171 -418 383 -418c213 0 384 187 384 418s-171 418 -384 418zM536 56l-80 319l-78 -319h-78l-115 438h73l81 -336l78 336h79
l78 -336l82 336h71l-114 -438h-77z" />
    <glyph glyph-name="Korea1.730" unicode="&#x24e7;" 
d="M457 759c236 0 426 -206 426 -459s-190 -459 -426 -459c-235 0 -425 206 -425 459s190 459 425 459zM457 718c-212 0 -383 -187 -383 -418s171 -418 383 -418c213 0 384 187 384 418s-171 418 -384 418zM640 514l-140 -214l148 -224h-83l-106 162l-108 -162h-82l147 224
l-139 214h82l100 -151l99 151h82z" />
    <glyph glyph-name="Korea1.731" unicode="&#x24e8;" 
d="M457 759c236 0 426 -206 426 -459s-190 -459 -426 -459c-235 0 -425 206 -425 459s190 459 425 459zM457 718c-212 0 -383 -187 -383 -418s171 -418 383 -418c213 0 384 187 384 418s-171 418 -384 418zM349 566l118 -339l121 339h71l-184 -513c-9 -27 -28 -49 -50 -59
c-22 -14 -42 -13 -65 -13h-25v61h36c22 0 37 16 44 34l19 52l-158 438h73z" />
    <glyph glyph-name="Korea1.732" unicode="&#x24e9;" 
d="M457 759c236 0 426 -206 426 -459s-190 -459 -426 -459c-235 0 -425 206 -425 459s190 459 425 459zM457 718c-212 0 -383 -187 -383 -418s171 -418 383 -418c213 0 384 187 384 418s-171 418 -384 418zM615 520v-63l-245 -314h259v-63h-342v63l244 314h-223v63h307z" />
    <glyph glyph-name="Korea1.733" unicode="&#x2460;" 
d="M513 -8h-76v445h-129v65c37 0 75 9 103 31c22 15 42 47 42 79h60v-620zM457 759c236 0 426 -206 426 -459s-190 -459 -426 -459c-235 0 -425 206 -425 459s190 459 425 459zM457 718c-212 0 -383 -187 -383 -418s171 -418 383 -418c213 0 384 187 384 418
s-171 418 -384 418z" />
    <glyph glyph-name="Korea1.734" unicode="&#x2461;" 
d="M457 759c236 0 426 -206 426 -459s-190 -459 -426 -459c-235 0 -425 206 -425 459s190 459 425 459zM457 718c-212 0 -383 -187 -383 -418s171 -418 383 -418c213 0 384 187 384 418s-171 418 -384 418zM539 260l-96 -72c-33 -23 -88 -65 -95 -109h307v-72h-397
c0 88 30 159 145 244l98 74c43 32 72 77 72 130c0 74 -35 118 -109 118c-91 0 -113 -65 -113 -128h-76c-1 101 59 198 192 198c128 0 188 -86 188 -187c0 -100 -63 -157 -116 -196z" />
    <glyph glyph-name="Korea1.735" unicode="&#x2462;" 
d="M457 759c236 0 426 -206 426 -459s-190 -459 -426 -459c-235 0 -425 206 -425 459s190 459 425 459zM457 718c-212 0 -383 -187 -383 -418s171 -418 383 -418c213 0 384 187 384 418s-171 418 -384 418zM253 173h77c-3 -58 37 -127 126 -127c75 0 121 52 121 120
c0 54 -38 90 -79 102c-29 8 -60 6 -83 6v72c23 0 58 -2 82 9c42 20 64 54 64 101c0 54 -40 99 -108 99c-83 0 -111 -57 -109 -111h-75c-4 117 84 183 186 183c100 0 188 -80 188 -171c0 -88 -58 -132 -80 -142c57 -27 99 -83 99 -151c0 -109 -84 -189 -205 -189
c-119 0 -208 90 -204 199z" />
    <glyph glyph-name="Korea1.736" unicode="&#x2463;" 
d="M457 759c236 0 426 -206 426 -459s-190 -459 -426 -459c-235 0 -425 206 -425 459s190 459 425 459zM457 718c-212 0 -383 -187 -383 -418s171 -418 383 -418c213 0 384 187 384 418s-171 418 -384 418zM495 103h-273v88l273 417h76v-434h92v-71h-92v-115h-76v115z
M495 174v305l-199 -305h199z" />
    <glyph glyph-name="Korea1.737" unicode="&#x2464;" 
d="M457 759c236 0 426 -206 426 -459s-190 -459 -426 -459c-235 0 -425 206 -425 459s190 459 425 459zM457 718c-212 0 -383 -187 -383 -418s171 -418 383 -418c213 0 384 187 384 418s-171 418 -384 418zM339 267h-76l48 328h317v-80h-256l-24 -158c31 27 81 37 128 34
c70 -5 174 -60 174 -210c0 -138 -101 -215 -199 -215c-124 0 -192 86 -202 175h75c4 -55 48 -103 122 -103c70 0 120 56 120 142c0 79 -45 142 -117 142c-55 0 -93 -22 -110 -55z" />
    <glyph glyph-name="Korea1.738" unicode="&#x2465;" 
d="M457 759c236 0 426 -206 426 -459s-190 -459 -426 -459c-235 0 -425 206 -425 459s190 459 425 459zM457 718c-212 0 -383 -187 -383 -418s171 -418 383 -418c213 0 384 187 384 418s-171 418 -384 418zM663 453h-77c-3 42 -45 103 -115 103c-74 0 -104 -49 -122 -98
c-19 -55 -21 -99 -18 -123c32 39 76 65 149 62c110 -4 184 -98 184 -213c0 -119 -87 -208 -197 -208c-114 0 -175 75 -202 165c-26 83 -25 240 7 331c35 98 98 155 200 155c105 0 182 -87 191 -174zM462 319c-70 0 -119 -52 -119 -135c0 -81 49 -136 119 -136
c68 0 118 55 118 136c0 83 -50 135 -118 135z" />
    <glyph glyph-name="Korea1.739" unicode="&#x2466;" 
d="M457 759c236 0 426 -206 426 -459s-190 -459 -426 -459c-235 0 -425 206 -425 459s190 459 425 459zM457 718c-212 0 -383 -187 -383 -418s171 -418 383 -418c213 0 384 187 384 418s-171 418 -384 418zM255 508v80h402v-80c-32 -37 -92 -119 -144 -228
c-52 -114 -82 -237 -79 -304h-95c3 54 25 161 79 279c53 115 136 226 157 253h-320z" />
    </font>
</defs>
</svg>
