<?xml version="1.0" standalone="no"?>
<!DOCTYPE svg PUBLIC "-//W3C//DTD SVG 1.1//EN" "http://www.w3.org/Graphics/SVG/1.1/DTD/svg11.dtd" >
<svg>
<metadata>
Created by FontForge 20120731 at Wed Apr 26 22:30:41 2023
 By fw_worker
Copyright (c) 2023 by HYOSUNG CORPORATION. All rights reserved.
</metadata>
<defs>
<font id="BrandNewHyosungL" horiz-adv-x="910" >
  <font-face 
    font-family="Brand New Hyosung Light"
    font-weight="300"
    font-stretch="normal"
    units-per-em="1000"
    panose-1="2 0 3 3 0 0 0 0 0 0"
    ascent="800"
    descent="-200"
    x-height="519"
    cap-height="671"
    bbox="-20 -248 934 819"
    underline-thickness="25"
    underline-position="-123"
    unicode-range="U+000A-FFE6"
  />
<missing-glyph horiz-adv-x="900" 
d="M89 -100v800h721v-800h-721zM140 -50h619v700h-619v-700z" />
    <glyph glyph-name=".notdef" horiz-adv-x="900" 
d="M89 -100v800h721v-800h-721zM140 -50h619v700h-619v-700z" />
    <glyph glyph-name="glyph1" horiz-adv-x="0" 
 />
    <glyph glyph-name="glyph2" horiz-adv-x="333" 
 />
    <glyph glyph-name="uni000A" unicode="&#xa;" horiz-adv-x="333" 
 />
    <glyph glyph-name="space" unicode=" " horiz-adv-x="280" 
 />
    <glyph glyph-name="exclam" unicode="!" horiz-adv-x="399" 
d="M249 709l-10 -528h-77l-12 528h99zM251 -27l-103 -13v116h103v-103z" />
    <glyph glyph-name="quotedbl" unicode="&#x22;" horiz-adv-x="491" 
d="M397 769l-10 -230h-78l-10 230h98zM194 769l-10 -230h-77l-10 230h97z" />
    <glyph glyph-name="numbersign" unicode="#" horiz-adv-x="566" 
d="M198 262h144l33 216h-146zM491 186h-85l-27 -195h-76l28 195h-143l-27 -195h-76l28 195h-75v76h85l31 216h-81v76h93l21 155h76l-23 -155h145l22 155h76l-23 -155h66v-76h-77l-31 -216h73v-76z" />
    <glyph glyph-name="dollar" unicode="$" horiz-adv-x="566" 
d="M328 721q33 -2 75 -8t74 -17l-9 -82q-38 14 -71.5 20.5t-68.5 8.5v-237q30 -17 60 -36t54 -44.5t38.5 -58.5t14.5 -78q0 -41 -12.5 -73.5t-34.5 -56.5t-52.5 -41t-67.5 -26v-71h-73v60q-11 -1 -21 -1.5t-20 -0.5q-42 0 -83 10t-74 20l9 81q10 -3 29 -8t41.5 -10.5
t48 -9.5t49.5 -4h10t11 1v276q-32 16 -63.5 33.5t-56 41t-40 54t-15.5 73.5q0 35 13 65t36 53t55.5 38.5t70.5 22.5v72h73v-67zM173 546q0 -35 23.5 -58.5t58.5 -43.5v190q-32 -9 -57 -30t-25 -58zM400 185q0 38 -20 64t-52 46v-213q29 16 50.5 41t21.5 62z" />
    <glyph glyph-name="percent" unicode="%" horiz-adv-x="930" 
d="M895 177q0 -38 -8 -74t-28 -64t-54.5 -44.5t-87.5 -16.5q-48 0 -81.5 17.5t-54.5 46.5t-31 66t-10 76t10 74.5t31 63.5t54.5 44.5t81.5 16.5q53 0 87.5 -18t54.5 -47t28 -66t8 -75zM798 184q0 20 -2 43t-10.5 43t-24.5 33.5t-44 13.5q-25 0 -41 -15t-25 -36.5t-12 -45.5
t-3 -43t3 -42t12 -43.5t25 -34t41 -13.5q28 0 44 14.5t24.5 35.5t10.5 45.5t2 44.5zM724 721l-425 -742h-85l425 742h85zM391 515q0 -38 -8 -74t-28.5 -64t-55 -45t-87.5 -17q-47 0 -80.5 17.5t-54.5 47t-31 66.5t-10 76t10 74.5t31 63.5t54.5 44.5t80.5 16.5q53 0 87.5 -18
t55 -47t28.5 -66t8 -75zM294 522q0 19 -2 42.5t-10.5 43.5t-25 33.5t-44.5 13.5q-25 0 -40.5 -15t-24.5 -36.5t-12 -45.5t-3 -43t3 -42t12 -43.5t24.5 -34.5t40.5 -14q28 0 44.5 14.5t25 36t10.5 46t2 44.5z" />
    <glyph glyph-name="ampersand" unicode="&#x26;" horiz-adv-x="732" 
d="M699 -9h-115l-69 73q-38 -45 -91 -65t-128 -20q-54 0 -95 15t-69 41.5t-42.5 62.5t-14.5 78q0 43 13 77t35 60t51.5 45t63.5 32q-14 16 -28.5 34t-26 38.5t-18.5 42.5t-7 45q0 86 50 128.5t133 42.5q36 0 68 -10t56 -30t38 -50.5t14 -72.5q0 -32 -15.5 -61t-40.5 -53
t-55 -42.5t-58 -29.5l160 -183q20 28 32.5 74t17.5 114h86q-8 -92 -29 -153t-44 -96zM431 557q0 53 -25 75t-67 22q-40 0 -67 -27t-27 -75q0 -38 22 -71t51 -59q17 8 37 20.5t37 30t28 38.5t11 46zM279 337q-22 -15 -41.5 -30t-34 -33t-23 -40t-8.5 -50q0 -31 12.5 -57
t33 -44.5t47.5 -28.5t56 -10q28 0 50.5 8.5t40 20.5t30 25t20.5 22z" />
    <glyph glyph-name="quotesingle" unicode="'" horiz-adv-x="288" 
d="M192 759l-10 -230h-77l-10 230h97z" />
    <glyph glyph-name="parenleft" unicode="(" horiz-adv-x="343" 
d="M76 311q0 64 13.5 123t36.5 114.5t54.5 108t66.5 102.5h77q-31 -50 -60.5 -104t-52 -110t-36 -115t-13.5 -119q0 -63 14 -122t36.5 -115t52 -109t59.5 -102h-77q-36 51 -67 101.5t-54 105t-36.5 114t-13.5 127.5z" />
    <glyph glyph-name="parenright" unicode=")" horiz-adv-x="343" 
d="M266 311q0 -68 -13.5 -127.5t-36.5 -114t-54 -105t-67 -101.5h-77q30 49 59.5 102t52 109t36.5 115t14 122q0 60 -13.5 119t-36 115t-52 110t-60.5 104h77q35 -50 66 -102.5t54.5 -108t37 -114.5t13.5 -123z" />
    <glyph glyph-name="asterisk" unicode="*" horiz-adv-x="510" 
d="M490 538l-186 -37l125 -141l-77 -49l-95 159l-95 -159l-77 49l130 141l-192 37l29 85l180 -71l-18 182h92l-15 -182l171 71z" />
    <glyph glyph-name="plus" unicode="+" horiz-adv-x="610" 
d="M558 328h-210v-217h-86v217h-210v74h210v215h86v-215h210v-74z" />
    <glyph glyph-name="comma" unicode="," horiz-adv-x="288" 
d="M208 90l-85 -243h-82l65 243h102z" />
    <glyph glyph-name="hyphen" unicode="-" horiz-adv-x="460" 
d="M405 328h-349v72h349v-72z" />
    <glyph glyph-name="period" unicode="." horiz-adv-x="288" 
d="M195 -41h-103v111h103v-111z" />
    <glyph glyph-name="slash" unicode="/" horiz-adv-x="460" 
d="M399 731l-255 -792h-82l254 792h83z" />
    <glyph glyph-name="zero" unicode="0" horiz-adv-x="566" 
d="M511 210q0 -49 -15.5 -91.5t-45 -74t-72 -49.5t-95.5 -18t-95.5 18t-72 49.5t-45 74t-15.5 91.5v281q0 49 15.5 91.5t45 74t72 49.5t95.5 18t95.5 -18t72 -49.5t45 -74t15.5 -91.5v-281zM140 233q0 -86 36 -134.5t107 -48.5t107 48.5t36 134.5v235q0 86 -36 134.5
t-107 48.5t-107 -48.5t-36 -134.5v-235z" />
    <glyph glyph-name="one" unicode="1" horiz-adv-x="566" 
d="M369 -6l-85 -13v652h-143v76h228v-715z" />
    <glyph glyph-name="two" unicode="2" horiz-adv-x="566" 
d="M498 -8h-445v103q19 17 35.5 30t31.5 25.5t30.5 25t34.5 29.5q25 23 62 58.5t70.5 78t57.5 89t24 91.5q0 60 -41 91.5t-107 31.5h-179v71h185q111 0 173.5 -53.5t62.5 -148.5q0 -34 -12 -67t-31 -65t-43.5 -61.5t-50 -56t-50 -49.5t-43.5 -41q-31 -29 -61 -53.5
t-67 -57.5h376z" />
    <glyph glyph-name="three" unicode="3" horiz-adv-x="566" 
d="M503 179q0 -58 -25 -96.5t-65.5 -62t-92.5 -33.5t-106 -10h-152v71h154q30 0 64 7.5t63 24t48.5 42t19.5 60.5q0 42 -18 72t-46.5 48.5t-63.5 27t-70 8.5h-60v71h55q24 0 55 5.5t58 20t45.5 38.5t18.5 61q0 32 -11.5 53.5t-31.5 34t-47.5 18t-58.5 5.5h-144v71h158
q111 0 170 -45t59 -143q0 -30 -12 -56t-32.5 -46.5t-48 -34.5t-59.5 -19v-2q37 -6 69 -22t56 -40t37.5 -56.5t13.5 -72.5z" />
    <glyph glyph-name="four" unicode="4" horiz-adv-x="566" 
d="M18 139v70l300 500h133v-497h99l-13 -73h-86v-145l-86 -13v158h-347zM365 633h-2l-246 -421h248v421z" />
    <glyph glyph-name="five" unicode="5" horiz-adv-x="566" 
d="M492 283v-129q0 -87 -64.5 -131.5t-194.5 -44.5h-158v72h162q79 0 124 29.5t45 80.5v104q0 66 -37.5 92.5t-105.5 21.5q-37 -3 -62 -19.5t-33 -28.5h-78l6 379h397l-13 -73h-302l-7 -236q10 16 39 33.5t67 20.5q47 4 86.5 -7.5t68 -34.5t44.5 -56t16 -73z" />
    <glyph glyph-name="six" unicode="6" horiz-adv-x="566" 
d="M515 153q0 -83 -59.5 -129.5t-165.5 -46.5q-48 0 -87.5 12.5t-68.5 36.5t-45 60t-16 84v291q0 51 11 96.5t35.5 79t63.5 53t96 19.5h210l-12 -74h-191q-36 0 -62.5 -13t-44 -35.5t-25.5 -52.5t-7 -65l2 -98q12 22 31.5 37t42 23.5t46.5 12t45 3.5q43 0 80 -13.5t64 -37
t42 -56t15 -70.5v-117zM429 253q0 58 -35 89t-101 31q-24 0 -48 -8t-43 -23.5t-31 -38.5t-12 -53v-77q0 -63 31.5 -93.5t97.5 -30.5q69 0 105 29t36 85v90z" />
    <glyph glyph-name="seven" unicode="7" horiz-adv-x="566" 
d="M501 641l-272 -650h-95l279 647h-349v71h437v-68z" />
    <glyph glyph-name="eight" unicode="8" horiz-adv-x="566" 
d="M284 725q46 0 85.5 -14t68 -38t44.5 -55.5t16 -66.5v-28q0 -24 -9 -48t-26 -44.5t-41.5 -36.5t-55.5 -23q35 -7 64 -25.5t49.5 -44t32 -55t11.5 -58.5v-19q0 -43 -18 -78.5t-50 -61t-76 -39.5t-95 -14t-95 14t-76 39.5t-50 61t-18 78.5v19q0 29 11.5 58.5t32 55t49.5 44
t64 25.5q-31 7 -55.5 23t-41.5 36.5t-26 44.5t-9 48v28q0 35 16 66.5t44.5 55.5t67.5 38t86 14zM284 413q60 0 95.5 31t35.5 84v11q0 51 -35.5 84t-95.5 33t-95.5 -33t-35.5 -84v-11q0 -53 35.5 -84t95.5 -31zM284 50q68 0 105.5 34t37.5 94v16q0 31 -11 57t-30.5 45
t-45.5 30t-56 11t-56 -11t-45.5 -30t-30.5 -45t-11 -57v-16q0 -60 37.5 -94t105.5 -34z" />
    <glyph glyph-name="nine" unicode="9" horiz-adv-x="566" 
d="M60 529q0 41 17 76t46.5 60.5t69.5 40t87 14.5q50 0 91.5 -14.5t71.5 -41t46.5 -63t16.5 -80.5v-309q0 -49 -14 -91t-41.5 -73t-68 -49t-93.5 -18h-197v78h189q38 0 65 12.5t44 32.5t24.5 46.5t7.5 53.5v131q-10 -21 -27.5 -36.5t-38.5 -25t-45 -14t-48 -4.5
q-47 0 -84.5 15t-63.5 40.5t-40.5 58.5t-14.5 69v91zM144 452q0 -29 12 -52t31 -39.5t43.5 -25.5t50.5 -9q27 0 52.5 8.5t45 25t31.5 40t12 53.5v62q0 60 -38.5 96t-103.5 36q-63 0 -99.5 -35.5t-36.5 -97.5v-62z" />
    <glyph glyph-name="colon" unicode=":" horiz-adv-x="288" 
d="M195 464h-103v111h103v-111zM195 5h-103v111h103v-111z" />
    <glyph glyph-name="semicolon" unicode=";" horiz-adv-x="288" 
d="M195 464h-103v111h103v-111zM205 134l-85 -243h-82l66 243h101z" />
    <glyph glyph-name="less" unicode="&#x3c;" horiz-adv-x="550" 
d="M485 41l-422 287v72l422 287v-99l-347 -224l347 -224v-99z" />
    <glyph glyph-name="equal" unicode="=" horiz-adv-x="550" 
d="M489 442h-425v75h425v-75zM489 213h-425v76h425v-76z" />
    <glyph glyph-name="greater" unicode="&#x3e;" horiz-adv-x="550" 
d="M479 328l-422 -287v99l346 224l-346 224v99l422 -287v-72z" />
    <glyph glyph-name="question" unicode="?" horiz-adv-x="510" 
d="M460 538q0 -33 -9.5 -61t-25 -52t-35 -46.5t-39.5 -44.5q-49 -55 -49 -113v-39h-86v44q0 22 3.5 40t10.5 34t18.5 32t27.5 35q13 16 29 34.5t30 39t23 44t9 49.5q0 27 -10.5 47t-28 32.5t-40.5 19t-48 6.5q-52 0 -96 -14t-72 -31l-9 86q14 7 34 14.5t43.5 13.5t49.5 9.5
t52 3.5q41 0 80 -12.5t70 -36t49.5 -57.5t18.5 -77zM311 -30l-104 -14v120h104v-106z" />
    <glyph glyph-name="at" unicode="@" horiz-adv-x="810" 
d="M763 423q0 -69 -25.5 -121t-62.5 -87t-78.5 -52.5t-72.5 -17.5q-23 0 -41 14.5t-20 42.5h-2q-23 -21 -53.5 -39t-62.5 -18t-59 13t-47 35t-31.5 50.5t-11.5 59.5q0 46 15.5 91.5t44.5 82t70.5 59t93.5 22.5q36 0 65.5 -15t52.5 -52l16 54h73l-74 -259q-3 -11 -5.5 -23
t-2.5 -22q1 -13 4.5 -21t15.5 -8q23 0 46.5 17t42 44t30 61t11.5 69q0 57 -20.5 104.5t-57 81.5t-87.5 52.5t-112 18.5q-65 0 -119 -23t-92 -63.5t-59 -96t-21 -120.5q0 -77 24 -132.5t66 -92.5t100 -54.5t126 -17.5q66 0 124.5 28.5t93.5 71.5h74q-24 -36 -56.5 -66
t-71 -51t-82 -32.5t-88.5 -11.5q-84 0 -155 25t-122.5 71.5t-80 113.5t-28.5 151q0 85 30 152t80.5 113.5t117.5 71t141 24.5q70 0 132.5 -23t109.5 -63.5t74 -95t27 -116.5zM506 397q0 36 -24 60.5t-57 24.5q-32 0 -59 -16t-46 -40.5t-29.5 -54t-10.5 -56.5q0 -42 23 -68.5
t64 -26.5q30 0 55.5 17.5t44 43.5t29 57.5t10.5 58.5z" />
    <glyph glyph-name="A" unicode="A" horiz-adv-x="732" 
d="M722 -9h-97l-81 200h-358l-82 -200h-91l312 718h90zM514 261l-147 370l-151 -370h298z" />
    <glyph glyph-name="B" unicode="B" horiz-adv-x="621" 
d="M579 184q0 -95 -72 -144t-218 -49h-191v718h182q131 0 192 -47.5t61 -130.5q0 -63 -31.5 -104t-101.5 -60v-2q34 -2 66.5 -15t57.5 -36.5t40 -56t15 -73.5zM447 523q0 31 -11 53t-30.5 35.5t-45.5 20t-55 6.5h-121v-236h82q28 0 59.5 3.5t58.5 15.5t45 36t18 66zM483 191
q0 43 -16.5 70t-43.5 42t-61 20t-70 5h-108v-266h103q39 0 74.5 6t62.5 21t43 40t16 62z" />
    <glyph glyph-name="C" unicode="C" horiz-adv-x="621" 
d="M376 -22q-151 0 -230.5 72t-79.5 211v160q0 132 78.5 207.5t228.5 75.5h190v-79h-195q-101 0 -156 -56.5t-55 -162.5v-129q0 -107 54 -163.5t155 -56.5h231l-20 -79h-201z" />
    <glyph glyph-name="D" unicode="D" horiz-adv-x="732" 
d="M672 356q0 -187 -85 -276t-247 -89h-243v718h243q75 0 136 -23t104.5 -68t67.5 -111t24 -151zM580 356q0 76 -18.5 128.5t-50.5 84.5t-74.5 46.5t-91.5 14.5h-162v-560h145q61 0 108.5 14t79 47.5t48 88.5t16.5 136z" />
    <glyph glyph-name="E" unicode="E" horiz-adv-x="566" 
d="M496 630h-311v-227h287v-79h-287v-254h316l-13 -79h-389v718h397v-79z" />
    <glyph glyph-name="F" unicode="F" horiz-adv-x="510" 
d="M475 630h-290v-227h277v-79h-277v-325l-86 -13v723h376v-79z" />
    <glyph glyph-name="G" unicode="G" horiz-adv-x="649" 
d="M517 58v247h-124v71h212v-383l-88 -14h-141q-152 0 -231 72t-79 210v170q0 66 20.5 118.5t59.5 88.5t95 55.5t127 19.5h195l-13 -79h-182q-104 0 -157.5 -56t-53.5 -162v-139q0 -106 53 -162.5t156 -56.5h151z" />
    <glyph glyph-name="H" unicode="H" horiz-adv-x="732" 
d="M637 -1l-85 -13v338h-369v-325l-85 -13v718l85 13v-314h369v301l85 13v-718z" />
    <glyph glyph-name="I" unicode="I" horiz-adv-x="306" 
d="M196 -1l-86 -13v718l86 13v-718z" />
    <glyph glyph-name="J" unicode="J" horiz-adv-x="399" 
d="M297 177q0 -41 -9.5 -77t-32 -63t-60 -42.5t-93.5 -15.5h-80v74h71q67 0 92.5 36.5t25.5 105.5v509l86 13v-540z" />
    <glyph glyph-name="K" unicode="K" horiz-adv-x="677" 
d="M654 -9h-123l-265 341l-83 -84v-251l-85 -13v720l85 13v-353l332 345h119l-310 -316z" />
    <glyph glyph-name="L" unicode="L" horiz-adv-x="510" 
d="M491 -9h-392v713l86 13v-647h319z" />
    <glyph glyph-name="M" unicode="M" horiz-adv-x="914" 
d="M828 -4l-88 -13v631h-2l-229 -613l-94 -13l-234 626h-2v-618l-88 -13v726h145l224 -605h5l218 605h145v-713z" />
    <glyph glyph-name="N" unicode="N" horiz-adv-x="746" 
d="M651 -9h-134l-332 627h-2v-622l-85 -13v726h134l331 -627h2v622l86 13v-726z" />
    <glyph glyph-name="O" unicode="O" horiz-adv-x="640" 
d="M583 210q0 -49 -18 -91.5t-52 -74t-83 -49.5t-110 -18q-62 0 -110.5 18t-82.5 49.5t-52 74t-18 91.5v281q0 49 18 91.5t52 74t82.5 49.5t110.5 18q61 0 110 -18t83 -49.5t52 -74t18 -91.5v-281zM142 233q0 -86 45 -134.5t133 -48.5t133 48.5t45 134.5v235q0 86 -45 134.5
t-133 48.5t-133 -48.5t-45 -134.5v-235z" />
    <glyph glyph-name="P" unicode="P" horiz-adv-x="618" 
d="M583 501q0 -55 -20.5 -94t-55 -63.5t-79 -36t-92.5 -11.5h-152v-297l-86 -13v723h226q54 0 101 -11.5t82.5 -36t55.5 -64t20 -96.5zM489 505q0 33 -12.5 57t-34.5 39t-52.5 22t-66.5 7h-139v-255h159q25 0 51 7t47 22t34.5 40t13.5 61z" />
    <glyph glyph-name="Q" unicode="Q" horiz-adv-x="704" 
d="M583 210q0 -95 -63 -158l116 -149h-115l-72 99q-56 -25 -129 -25q-62 0 -110.5 18t-82.5 49.5t-52 74t-18 91.5v281q0 49 18 91.5t52 74t82.5 49.5t110.5 18q61 0 110 -18t83 -49.5t52 -74t18 -91.5v-281zM142 233q0 -86 45 -134.5t133 -48.5q48 0 84 15l-130 182h95
l99 -128q30 43 30 114v235q0 86 -45 134.5t-133 48.5t-133 -48.5t-45 -134.5v-235z" />
    <glyph glyph-name="R" unicode="R" horiz-adv-x="621" 
d="M602 -9h-101l-116 246q-10 21 -25.5 34.5t-32 21t-32 10t-26.5 2.5h-85v-306l-86 -13v723h181q49 0 97 -7.5t86 -29.5t61.5 -60.5t23.5 -99.5q0 -32 -12.5 -61t-34.5 -51.5t-52 -38.5t-64 -22v-2q30 -11 48.5 -30.5t37.5 -56.5zM455 510q0 25 -7.5 47t-24.5 38t-43.5 25
t-65.5 9h-130v-245h90q42 0 75.5 10.5t57 27.5t36 40t12.5 48z" />
    <glyph glyph-name="S" unicode="S" horiz-adv-x="587" 
d="M353 385q38 0 71.5 -14t58.5 -39.5t39.5 -60.5t14.5 -77q0 -106 -64.5 -162t-185.5 -56h-224v78h214q174 0 174 133q0 55 -28.5 87.5t-85.5 32.5h-107q-38 0 -71 14.5t-57 39.5t-38 59.5t-14 74.5q0 109 60.5 160t168.5 51h208l-15 -77h-181q-34 0 -62.5 -7t-48.5 -22.5
t-31.5 -39.5t-11.5 -58q0 -56 28.5 -86.5t83.5 -30.5h104z" />
    <glyph glyph-name="T" unicode="T" horiz-adv-x="566" 
d="M545 631h-219v-633l-86 -13v646h-223v78h541z" />
    <glyph glyph-name="U" unicode="U" horiz-adv-x="732" 
d="M640 295q0 -151 -70.5 -233.5t-201.5 -82.5t-202 82.5t-71 233.5v409l85 13v-421q0 -53 9.5 -96.5t31 -75t57.5 -49t90 -17.5q53 0 89 17.5t57.5 49t31 75t9.5 96.5v408l85 13v-422z" />
    <glyph glyph-name="V" unicode="V" horiz-adv-x="677" 
d="M657 709l-266 -718h-109l-260 718h99l216 -651l227 651h93z" />
    <glyph glyph-name="W" unicode="W" horiz-adv-x="950" 
d="M934 709l-194 -718h-111l-149 651h-2l-149 -651h-121l-187 718h98l146 -631h2l148 631h126l150 -631h2l144 631h97z" />
    <glyph glyph-name="X" unicode="X" horiz-adv-x="677" 
d="M662 -9h-117l-214 316l-202 -316h-111l259 373l-235 345h117l183 -286l186 286h108l-235 -342z" />
    <glyph glyph-name="Y" unicode="Y" horiz-adv-x="677" 
d="M657 709l-271 -400v-310l-90 -13v323l-271 400h104l211 -322l208 322h109z" />
    <glyph glyph-name="Z" unicode="Z" horiz-adv-x="566" 
d="M521 -9h-479v80l364 559h-350v79h453v-80l-361 -559h386z" />
    <glyph glyph-name="bracketleft" unicode="[" horiz-adv-x="343" 
d="M287 -139h-181v896h181v-59h-106v-778h106v-59z" />
    <glyph glyph-name="backslash" unicode="\" horiz-adv-x="460" 
d="M398 -69h-83l-254 792h82z" />
    <glyph glyph-name="bracketright" unicode="]" horiz-adv-x="343" 
d="M236 -139h-180v59h106v778h-106v59h180v-896z" />
    <glyph glyph-name="asciicircum" unicode="^" horiz-adv-x="510" 
d="M466 480h-95l-116 199l-115 -199h-95l170 265h81z" />
    <glyph glyph-name="underscore" unicode="_" horiz-adv-x="460" 
d="M462 -200h-464v70h464v-70z" />
    <glyph glyph-name="grave" unicode="`" horiz-adv-x="288" 
d="M247 591h-69l-133 161h112z" />
    <glyph glyph-name="a" unicode="a" horiz-adv-x="602" 
d="M459 92q-20 -52 -73.5 -80.5t-127.5 -28.5q-39 0 -76 13.5t-65 38.5t-45 61.5t-17 82.5v145q0 46 17 82.5t45 61.5t64.5 38.5t76.5 13.5q70 0 121 -27t77 -78v96l81 13v-527l-78 -12v107zM455 305q0 26 -12.5 51.5t-35 45.5t-53.5 33t-69 14q-29 1 -55.5 -7.5
t-46.5 -25.5t-31.5 -41.5t-11.5 -55.5v-136q0 -31 11.5 -55.5t31 -41t45 -25t54.5 -8.5q45 1 77.5 16t54 39t31.5 55t10 64v78z" />
    <glyph glyph-name="b" unicode="b" horiz-adv-x="611" 
d="M152 -7l-77 -13v743l81 13v-311q26 51 76.5 78t120.5 27q40 0 76.5 -13.5t64.5 -38.5t45 -61.5t17 -82.5v-165q0 -46 -17 -82.5t-45 -61.5t-65 -38.5t-76 -13.5q-74 0 -128.5 29.5t-72.5 79.5v-89zM157 217q0 -33 10 -64t31 -55t53.5 -39t77.5 -16q28 0 54 8.5t45.5 25
t31 41t11.5 55.5v156q0 31 -11.5 55.5t-31.5 41.5t-46.5 25.5t-55.5 7.5q-38 -1 -69 -14t-53.5 -33t-34.5 -45.5t-12 -51.5v-98z" />
    <glyph glyph-name="c" unicode="c" horiz-adv-x="484" 
d="M65 180v163q0 40 13.5 74.5t40.5 60.5t67 41t93 15h151v-70h-145q-63 0 -100.5 -36t-37.5 -100v-135q0 -64 38.5 -99t98.5 -35h165l-13 -70h-158q-105 0 -159 52t-54 139z" />
    <glyph glyph-name="d" unicode="d" horiz-adv-x="621" 
d="M463 82q-20 -49 -73.5 -79t-127.5 -30q-39 0 -76 13.5t-65 38.5t-45 61.5t-17 82.5v165q0 46 17 82.5t45 61.5t64.5 38.5t76.5 13.5q70 0 120.5 -27t76.5 -78v298l81 13v-743l-77 -13v102zM458 315q0 26 -12 51.5t-34.5 45.5t-53.5 33t-69 14q-29 1 -55.5 -7.5
t-46.5 -25.5t-31.5 -41.5t-11.5 -55.5v-156q0 -31 11.5 -55.5t31 -41t45 -25t54.5 -8.5q45 1 77.5 16t53.5 39t31 55t10 64v98z" />
    <glyph glyph-name="e" unicode="e" horiz-adv-x="566" 
d="M136 222v-48q0 -65 39 -94.5t124 -29.5h180l-13 -72h-173q-118 0 -178 52t-60 149v135q0 46 17.5 85.5t48.5 69t74.5 46t95.5 16.5q51 0 91.5 -16t69 -44t44 -66.5t15.5 -84.5v-98h-375zM136 290h296v32q0 68 -36.5 105.5t-104.5 37.5q-74 0 -114.5 -42t-40.5 -118v-15z
" />
    <glyph glyph-name="f" unicode="f" horiz-adv-x="399" 
d="M143 501v35q0 61 9 103t30 67t56 36t88 11h49v-65h-40q-33 0 -54.5 -7.5t-34.5 -24t-18 -42.5t-5 -63v-50h151l-13 -67h-138v-435l-80 -13v448h-113v67h113z" />
    <glyph glyph-name="g" unicode="g" horiz-adv-x="621" 
d="M460 128q-20 -55 -73.5 -87t-127.5 -32q-39 0 -76 13.5t-65 38.5t-45 61.5t-17 82.5v129q0 46 17 82.5t45 61.5t64.5 38.5t76.5 13.5q70 0 122 -27t78 -78v91l81 13v-493q0 -119 -65 -172t-193 -53h-191v67h213q70 0 113 41t43 130v79zM455 315q0 26 -12 51.5t-34.5 45.5
t-53.5 33t-69 14q-29 1 -55.5 -7.5t-46.5 -25.5t-31.5 -41.5t-11.5 -55.5v-120q0 -31 11.5 -55.5t31 -41t45 -25t54.5 -8.5q45 1 77.5 16t53.5 39t31 55t10 64v62z" />
    <glyph glyph-name="h" unicode="h" horiz-adv-x="621" 
d="M539 -2l-79 -13v281q0 53 -7 89.5t-22 60t-38 34t-54 11.5q-87 2 -131 -56t-44 -169v-238l-80 -13v739l80 13v-292h2q26 42 70.5 64t98.5 22q103 0 153.5 -58t50.5 -168v-307z" />
    <glyph glyph-name="i" unicode="i" horiz-adv-x="277" 
d="M187 631h-97v107h97v-107zM179 -1l-81 -13v533h81v-520z" />
    <glyph glyph-name="j" unicode="j" horiz-adv-x="288" 
d="M192 631h-97v107h97v-107zM184 23q0 -39 -1.5 -77t-13 -68t-37.5 -48.5t-75 -18.5h-54v72h41q33 0 46 30t13 83v523h81v-496z" />
    <glyph glyph-name="k" unicode="k" horiz-adv-x="566" 
d="M298 306l237 -315h-115l-178 259l-78 -78v-173l-80 -13v738l80 13v-463l230 245h118z" />
    <glyph glyph-name="l" unicode="l" horiz-adv-x="291" 
d="M186 -1l-81 -13v738l81 13v-738z" />
    <glyph glyph-name="m" unicode="m" horiz-adv-x="873" 
d="M808 -1l-80 -13v328q0 26 -4.5 53t-16 49t-30.5 36t-48 14q-38 0 -66.5 -15.5t-47.5 -42t-28.5 -62t-9.5 -75.5v-272l-81 -13v328q0 26 -4.5 53t-16 49t-30.5 36t-49 14q-38 0 -66.5 -15.5t-47 -42t-28 -62t-9.5 -75.5v-272l-80 -13v528l77 13v-83q26 45 65.5 67
t105.5 22q21 0 42.5 -6t41 -19t36 -32.5t26.5 -46.5q14 30 35 50t44.5 32t45.5 17t37 5q51 0 86.5 -14.5t58 -40.5t32.5 -61.5t10 -76.5v-341z" />
    <glyph glyph-name="n" unicode="n" horiz-adv-x="585" 
d="M520 -1l-79 -13v285q0 53 -7 89.5t-22 59.5t-38 34t-54 12q-87 3 -131 -55.5t-44 -169.5v-242l-80 -13v533h79v-85h2q9 21 27 39t40.5 30.5t49 20t53.5 7.5q106 0 155 -58t49 -168v-306z" />
    <glyph glyph-name="o" unicode="o" horiz-adv-x="583" 
d="M523 173q0 -44 -16.5 -80t-46.5 -62t-73 -40t-96 -14t-95.5 14t-72.5 40t-46.5 62t-16.5 80v154q0 44 16.5 81t46.5 63.5t72.5 41.5t95.5 15t96 -15t73 -41.5t46.5 -63.5t16.5 -81v-154zM442 315q0 64 -39.5 104t-111.5 40t-111 -40t-39 -104v-129q0 -64 39 -102t111 -38
t111.5 38t39.5 102v129z" />
    <glyph glyph-name="p" unicode="p" horiz-adv-x="621" 
d="M164 -182l-81 -13v707l77 13v-100q26 51 77 78t122 27q40 0 77 -13.5t65.5 -38.5t45.5 -61.5t17 -82.5v-165q0 -46 -17 -82.5t-44.5 -61.5t-63.5 -38.5t-75 -13.5q-74 0 -126.5 27t-73.5 72v-254zM165 217q0 -33 10 -64t31 -55t53.5 -39t77.5 -16q28 0 54 8.5t45.5 25
t31 41t11.5 55.5v156q0 31 -11.5 55.5t-31.5 41.5t-46.5 25.5t-55.5 7.5q-38 -1 -69 -14t-53.5 -33t-34.5 -45.5t-12 -51.5v-98z" />
    <glyph glyph-name="q" unicode="q" horiz-adv-x="621" 
d="M459 72q-18 -46 -72 -72.5t-127 -26.5q-39 0 -75.5 13.5t-64 38.5t-44.5 61.5t-17 82.5v165q0 46 17 82.5t45.5 61.5t65.5 38.5t78 13.5q71 0 122 -27t77 -78v90l76 13v-710l-81 -13v267zM458 315q0 26 -12 51.5t-34.5 45.5t-53.5 33t-69 14q-29 1 -55.5 -7.5
t-46.5 -25.5t-31.5 -41.5t-11.5 -55.5v-156q0 -31 11.5 -55.5t31 -41t45 -25t54.5 -8.5q45 1 77.5 16t53.5 39t31 55t10 64v98z" />
    <glyph glyph-name="r" unicode="r" horiz-adv-x="369" 
d="M342 459h-12q-32 0 -63 -11.5t-55.5 -36t-40 -64t-15.5 -95.5v-258l-81 -13v534l79 13v-93h2q9 21 26 38.5t40 30.5t51 20t58 7h11v-72z" />
    <glyph glyph-name="s" unicode="s" horiz-adv-x="474" 
d="M299 293q28 0 54.5 -11.5t46.5 -32t32 -48t12 -59.5q0 -41 -14.5 -72t-40 -52t-60 -31.5t-74.5 -10.5h-221v73h195q63 0 98.5 21.5t35.5 67.5q0 85 -96 85h-96q-29 0 -54.5 12t-45 32.5t-30.5 47t-11 56.5q0 80 47 118.5t127 38.5h197l-14 -72h-162q-56 0 -85.5 -18
t-29.5 -63q0 -42 27.5 -62t75.5 -20h86z" />
    <glyph glyph-name="t" unicode="t" horiz-adv-x="399" 
d="M133 513v123l80 18v-141h149l-13 -67h-136v-306q0 -49 22.5 -71t53.5 -22h88l-12 -69h-73q-36 0 -65.5 7.5t-50.5 24t-32 43.5t-11 65v328h-96v67h96z" />
    <glyph glyph-name="u" unicode="u" horiz-adv-x="585" 
d="M520 3l-78 -13v86h-2q-9 -23 -27 -41t-40.5 -30.5t-49.5 -19t-54 -6.5q-106 0 -155 58t-49 168v309l80 13v-288q0 -53 7 -89.5t22 -59.5t37.5 -34t53.5 -12q87 -3 131.5 55.5t44.5 169.5v245l79 13v-524z" />
    <glyph glyph-name="v" unicode="v" horiz-adv-x="566" 
d="M544 519l-208 -528h-100l-211 528h90l172 -452h2l173 452h82z" />
    <glyph glyph-name="w" unicode="w" horiz-adv-x="879" 
d="M866 519l-178 -528h-95l-154 460h-2l-149 -460h-95l-174 528h91l130 -458h2l154 458h96l148 -458h2l145 458h79z" />
    <glyph glyph-name="x" unicode="x" horiz-adv-x="566" 
d="M538 -9h-102l-155 215l-156 -215h-97l211 274l-184 254h104l127 -199l136 199h92l-184 -254z" />
    <glyph glyph-name="y" unicode="y" horiz-adv-x="566" 
d="M543 519l-214 -494q-15 -36 -31.5 -74t-39 -69.5t-54.5 -51.5t-80 -20h-79v64h71q27 0 47 11t35 29.5t26 44.5t20 56l-18 51l-197 453h88l169 -417h2l174 417h81z" />
    <glyph glyph-name="z" unicode="z" horiz-adv-x="510" 
d="M463 11h-418v68l306 375h-290v65h392v-64l-306 -379h329z" />
    <glyph glyph-name="braceleft" unicode="{" horiz-adv-x="343" 
d="M319 -119h-82q-14 0 -32 8t-33.5 23.5t-26 38t-10.5 52.5v177q0 24 -8 44t-21 34t-29 21.5t-32 7.5v64q16 0 32 7.5t29 21.5t21 32.5t8 41.5v181q0 30 10.5 52.5t26 38t33 23.5t32.5 8h82v-66h-57q-16 0 -26 -7.5t-16 -18.5t-8 -24.5t-2 -26.5v-174q0 -32 -11 -54
t-25.5 -36t-29 -21t-21.5 -9v-2q7 -1 21.5 -7t29 -19.5t25.5 -36.5t11 -58v-173q0 -12 2 -26t8 -25t16 -18.5t26 -7.5h57v-66z" />
    <glyph glyph-name="bar" unicode="|" horiz-adv-x="310" 
d="M198 -119h-85v875h85v-875z" />
    <glyph glyph-name="braceright" unicode="}" horiz-adv-x="343" 
d="M297 287q-16 0 -32 -7.5t-29 -21t-21 -31.5t-8 -40v-184q0 -30 -10.5 -52.5t-26 -38t-33.5 -23.5t-32 -8h-82v66h58q15 0 25 7.5t16 18.5t8 25t2 26v177q0 30 11 51.5t25.5 35.5t29 21t21.5 9v2q-7 1 -21.5 7t-29 19.5t-25.5 37t-11 60.5v170q0 13 -2 26.5t-8 24.5
t-16 18.5t-25 7.5h-58v66h82q14 0 32 -8t33.5 -23.5t26 -38t10.5 -52.5v-174q0 -25 8 -45.5t21 -34.5t29 -22t32 -8v-64z" />
    <glyph glyph-name="asciitilde" unicode="~" horiz-adv-x="566" 
d="M541 389q-6 -19 -17 -37.5t-28 -33t-41 -23.5t-55 -9q-24 0 -57 8.5t-66 20.5t-64 25t-49 13q-31 0 -55 -21t-44 -53l-38 43q10 18 22.5 36.5t29 33.5t38 24.5t50.5 9.5q22 0 54.5 -8t68.5 -22q32 -11 63 -24t51 -13q35 0 60.5 22.5t41.5 50.5z" />
    <glyph glyph-name="uni00A0" unicode="&#xa0;" horiz-adv-x="280" 
 />
    <glyph glyph-name="exclamdown" unicode="&#xa1;" horiz-adv-x="399" 
d="M150 -176l12 528h77l10 -528h-99zM251 457h-103v111h103v-111z" />
    <glyph glyph-name="cent" unicode="&#xa2;" horiz-adv-x="454" 
d="M329 530q24 -2 50.5 -7.5t41.5 -12.5l-7 -67q-23 10 -45 15t-40 7v-421q23 2 49.5 10.5t47.5 23.5l8 -74q-25 -12 -54 -17t-51 -7v-99h-85v106q-47 10 -83.5 35t-61 60.5t-37.5 79.5t-13 92q0 51 13.5 95.5t39 79.5t61.5 59t81 35v106h85v-99zM136 254q0 -27 5.5 -56
t18.5 -56t33.5 -49.5t50.5 -35.5v396q-28 -12 -48 -34t-33.5 -49t-20 -57t-6.5 -59z" />
    <glyph glyph-name="sterling" unicode="&#xa3;" 
d="M714 -45q-42 -18 -67.5 -24t-46.5 -6q-29 0 -63 8.5t-63 17.5q-25 8 -49 14t-45 6q-34 0 -71 -10.5t-75 -33.5q-10 21 -19 38t-19 37q27 17 49.5 40.5t39 51t25.5 58t9 61.5q0 13 -2.5 29.5t-7.5 34.5h-97v68h75l-5 19q-8 27 -14.5 58t-6.5 63q0 49 17.5 88t47 66
t69.5 41.5t85 14.5q81 0 138.5 -48t77.5 -138q-22 -4 -39 -7.5t-37 -7.5q-14 64 -52 99t-90 35q-26 0 -50.5 -9.5t-43 -27t-29.5 -41t-11 -50.5q0 -29 7 -68t21 -87h158v-68h-142q9 -51 9 -79q0 -32 -14.5 -68.5t-53.5 -91.5q26 2 43.5 1.5t41.5 -2.5q18 -1 39 -5.5t43 -9.5
q23 -6 48 -11t50 -6q32 -1 96 26z" />
    <glyph glyph-name="currency" unicode="&#xa4;" 
d="M455 557q-55 0 -103.5 -21t-85 -57.5t-57.5 -85t-21 -103.5t21 -103.5t57.5 -85t85 -57.5t103.5 -21t104 21t85.5 57.5t57.5 85t21 103.5t-21 103.5t-57.5 85t-85.5 57.5t-104 21zM124 -88l-48 48l117 118q-35 44 -54 97.5t-19 114.5t19.5 115t55.5 98l-118 121l47 47
l119 -121q43 37 97 56.5t115 19.5q60 0 113.5 -19.5t97.5 -55.5l119 120l48 -48l-121 -118q38 -44 58 -98.5t20 -116.5q0 -123 -75 -212l118 -118l-48 -48l-118 117q-89 -75 -212 -75q-61 0 -115.5 19.5t-98.5 56.5z" />
    <glyph glyph-name="yen" unicode="&#xa5;" horiz-adv-x="677" 
d="M554 137h-168v-146h-90v146h-167v76h167v74h-167v75h131l-235 347h104l211 -322l208 322h109l-235 -347h132v-75h-168v-74h168v-76z" />
    <glyph glyph-name="brokenbar" unicode="&#xa6;" horiz-adv-x="500" 
d="M293 375h-86v386h86v-386zM293 -185h-86v386h86v-386z" />
    <glyph glyph-name="section" unicode="&#xa7;" 
d="M631 -15q0 -25 -12 -46.5t-32.5 -37t-48.5 -24.5t-59 -9q-35 0 -67.5 10.5t-57.5 28t-40 41t-15 50.5q0 23 14 37.5t36 14.5q20 0 32.5 -14.5t12.5 -34.5q0 -12 -3.5 -22t-3.5 -20q0 -20 23.5 -37t57.5 -17q20 0 37 5.5t29 15t19 22t7 25.5q0 22 -9 34q-8 12 -37 37
t-63 50q-48 36 -85.5 69t-55.5 56q-16 18 -23.5 39.5t-7.5 43.5t8 42.5t22 36t32 24.5t39 9q5 0 9.5 -0.5t9.5 -1.5q-54 45 -81.5 86t-27.5 78q0 28 12.5 52.5t33.5 43.5t48.5 30t58.5 11q33 0 62.5 -10.5t51.5 -29.5t35 -44t13 -53q0 -23 -13 -38.5t-33 -15.5
q-21 0 -34 15.5t-13 38.5q0 11 4.5 20.5t4.5 20.5q0 20 -23.5 36.5t-56.5 16.5q-42 0 -65 -20t-23 -54q0 -15 6.5 -31t22 -34.5t41 -41.5t63.5 -53q39 -31 64.5 -54.5t41 -44t22 -39.5t6.5 -40q0 -24 -8 -44.5t-22.5 -36.5t-34 -24.5t-42.5 -8.5h-7q26 -20 49 -38.5
t37 -33.5q17 -18 28 -41.5t11 -45.5zM550 233q0 20 -7.5 36.5t-25.5 36.5q-17 20 -32.5 32t-35.5 27q-4 2 -11.5 7.5t-12.5 5.5h-10q-31 0 -51.5 -18t-20.5 -44q0 -24 17 -49t54 -54q27 -21 44.5 -29t37.5 -8q26 0 40 15.5t14 41.5z" />
    <glyph glyph-name="dieresis" unicode="&#xa8;" horiz-adv-x="450" 
d="M124 689q-24 0 -40 15.5t-16 38.5t16 39t40 16t40 -16t16 -39t-16 -38.5t-40 -15.5zM326 689q-24 0 -40 15.5t-16 38.5t16 39t40 16t40 -16t16 -39t-16 -38.5t-40 -15.5z" />
    <glyph glyph-name="copyright" unicode="&#xa9;" 
d="M455 -72q-80 0 -149.5 27t-121 77t-81.5 120.5t-30 156.5q0 85 30 155.5t81.5 120.5t121 77.5t149.5 27.5q79 0 149 -27.5t121.5 -77.5t81.5 -120.5t30 -155.5q0 -86 -30 -156.5t-81.5 -120.5t-121.5 -77t-149 -27zM455 -20q68 0 125.5 25.5t99 69.5t64.5 104.5t23 129.5
t-23 129t-64.5 104t-99 69.5t-125.5 25.5t-125.5 -25.5t-99 -69.5t-64.5 -104t-23 -129t23 -129.5t64.5 -104.5t99 -69.5t125.5 -25.5zM633 182q-1 -23 -16 -44.5t-38 -37.5t-51.5 -25.5t-56.5 -9.5q-106 0 -160.5 66.5t-54.5 183.5q0 115 54 181t160 66q31 0 61 -11
t52.5 -28.5t36.5 -38.5t14 -42h-81q-2 11 -9.5 23t-19.5 21.5t-28.5 15.5t-37.5 6q-63 0 -93 -51t-30 -142q0 -44 7.5 -80t23.5 -62t40 -40t56 -14q34 0 59 18t32 45h80z" />
    <glyph glyph-name="ordfeminine" unicode="&#xaa;" horiz-adv-x="450" 
d="M314 458l-4 34q-14 -14 -39.5 -27.5t-61.5 -13.5q-61 -1 -91.5 26.5t-30.5 81.5q0 21 10.5 40t30 33.5t46.5 23t61 8.5h33t34 -1q0 20 -4 36.5t-13 28t-24.5 18t-39.5 6.5q-26 0 -52 -8.5t-46 -22.5l-2 44q23 16 50 25.5t60 9.5q69 0 98 -37.5t29 -101.5v-122
q0 -9 0.5 -20t1.5 -22.5t2 -22t2 -16.5h-50zM306 618h-41q-10 0 -30.5 -0.5t-40.5 -6.5t-35.5 -18t-15.5 -34q0 -31 21.5 -47.5t42.5 -16.5q45 0 72 26t27 59v38z" />
    <glyph glyph-name="guillemotleft" unicode="&#xab;" horiz-adv-x="600" 
d="M498 -18l-177 258l177 258h72l-158 -258q6 -10 18.5 -30.5t28 -45.5t33 -53t33 -53t27.5 -45.5t18 -30.5h-72zM293 -18l-180 258l180 258h71l-158 -258l157 -258h-70z" />
    <glyph glyph-name="logicalnot" unicode="&#xac;" horiz-adv-x="500" 
d="M391 209v230h-381v63h460v-293h-79z" />
    <glyph glyph-name="uni00AD" unicode="&#xad;" horiz-adv-x="500" 
d="M435 273h-370v72h370v-72z" />
    <glyph glyph-name="registered" unicode="&#xae;" 
d="M455 -72q-80 0 -149.5 27t-121 77t-81.5 120.5t-30 156.5q0 85 30 155.5t81.5 120.5t121 77.5t149.5 27.5q79 0 149 -27.5t121.5 -77.5t81.5 -120.5t30 -155.5q0 -86 -30 -156.5t-81.5 -120.5t-121.5 -77t-149 -27zM455 -20q68 0 125.5 25.5t99 69.5t64.5 104.5t23 129.5
t-23 129t-64.5 104t-99 69.5t-125.5 25.5t-125.5 -25.5t-99 -69.5t-64.5 -104t-23 -129t23 -129.5t64.5 -104.5t99 -69.5t125.5 -25.5zM575 65q-12 16 -21.5 43.5t-14.5 52.5q-3 14 -8 28.5t-12 31.5q-10 26 -29 41t-47 15h-76v-212h-74v503h200q36 0 65.5 -11t50.5 -30.5
t32.5 -46.5t11.5 -59q0 -54 -30.5 -86.5t-76.5 -44.5q23 -17 34 -37t16 -33q4 -10 7.5 -21t5.5 -24q5 -29 16 -59.5t25 -50.5h-75zM486 335q42 0 68 22t26 64q0 39 -26 63t-68 24h-119v-173h119z" />
    <glyph glyph-name="macron" unicode="&#xaf;" horiz-adv-x="700" 
d="M675 715h-650v72h650v-72z" />
    <glyph glyph-name="degree" unicode="&#xb0;" horiz-adv-x="450" 
d="M339 712q0 -47 -32 -77t-82 -30t-82 30t-32 77t32 77t82 30t82 -30t32 -77zM285 712q0 23 -17 40t-43 17t-43 -17t-17 -40t17 -40t43 -17t43 17t17 40z" />
    <glyph glyph-name="plusminus" unicode="&#xb1;" horiz-adv-x="600" 
d="M550 -16h-500v70h500v-70zM548 345h-200v-207h-86v207h-200v74h200v205h86v-205h200v-74z" />
    <glyph glyph-name="uni00B2" unicode="&#xb2;" horiz-adv-x="450" 
d="M331 456h-212v53l61 52q11 10 27 25.5t31 34.5t25.5 40t10.5 41t-17 34t-44 14q-22 0 -44 -9.5t-36 -17.5l-6 46q20 8 43 15.5t46 7.5q48 0 79.5 -24t31.5 -69q0 -21 -11.5 -44.5t-28 -45t-34.5 -40t-32 -30.5l-47 -41h157v-42z" />
    <glyph glyph-name="uni00B3" unicode="&#xb3;" horiz-adv-x="450" 
d="M331 543q0 -27 -12 -45.5t-31.5 -30t-44.5 -16t-50 -4.5q-20 0 -39.5 4t-35.5 10l5 49q12 -7 32.5 -14t41.5 -7q12 0 26.5 3t27 10t21 17t8.5 25q0 18 -7.5 30.5t-20 20.5t-27.5 11.5t-30 3.5h-32v42h30q10 0 23 2.5t24.5 8.5t19.5 16t8 25q0 26 -18.5 36.5t-43.5 10.5
q-23 0 -40 -5.5t-33 -14.5l-2 48q17 6 37.5 10t40.5 4q51 0 81 -22.5t30 -69.5q0 -26 -14.5 -44.5t-38.5 -27.5q28 -10 46 -32t18 -54z" />
    <glyph glyph-name="acute" unicode="&#xb4;" horiz-adv-x="450" 
d="M131 666l78 151h109l-121 -151h-66z" />
    <glyph glyph-name="uni00B5" unicode="&#xb5;" horiz-adv-x="621" 
d="M164 239q0 -53 7 -89.5t22 -59.5t37.5 -34t53.5 -12q87 -3 131.5 55.5t44.5 169.5v250h79v-528h-78v85h-2q-9 -23 -27 -41t-40.5 -30.5t-49.5 -19t-54 -6.5q-78 0 -125 32v-208h-81v716h82v-280z" />
    <glyph glyph-name="paragraph" unicode="&#xb6;" 
d="M669 -149v879h69v-879h-69zM484 -149l-1 465l-71 -1q-54 -1 -98.5 13t-76 41t-48.5 66t-17 87q0 92 56.5 143.5t166.5 59.5q24 2 38 3t23 1.5t16 0.5h16l63 -2v-877h-67zM483 666h-44q-92 0 -143.5 -37.5t-51.5 -104.5q0 -33 13.5 -60t37 -45.5t56.5 -28.5t72 -8l60 2
v282z" />
    <glyph glyph-name="periodcentered" unicode="&#xb7;" horiz-adv-x="450" 
d="M294 323q0 -30 -19.5 -49.5t-51.5 -19.5q-29 0 -48 20t-19 49q0 31 19.5 50t51.5 19q29 0 48 -20t19 -49z" />
    <glyph glyph-name="cedilla" unicode="&#xb8;" horiz-adv-x="450" 
d="M140 -148q16 -3 26.5 -4t19.5 -1q21 0 34 12t13 28q0 20 -15 31.5t-50 12.5l55 120h72l-36 -78q23 0 41 -20t18 -47q0 -23 -10 -41.5t-26.5 -32t-38 -20.5t-43.5 -7q-11 0 -27 3.5t-42 13.5z" />
    <glyph glyph-name="uni00B9" unicode="&#xb9;" horiz-adv-x="450" 
d="M286 453h-48v275l-74 -59v60l82 58h40v-334z" />
    <glyph glyph-name="ordmasculine" unicode="&#xba;" horiz-adv-x="450" 
d="M225 447q-33 0 -55 17.5t-35 43.5t-18.5 56t-5.5 56q0 25 5 55.5t18 56.5t35 43.5t56 17.5t56 -17.5t35 -43.5t18 -56.5t5 -55.5q0 -26 -5.5 -56t-18.5 -56t-35 -43.5t-55 -17.5zM225 490q21 0 33 15t18 36t8 43t2 36q0 12 -2.5 34t-9.5 43.5t-18.5 37t-30.5 15.5
t-31 -15.5t-18.5 -37t-9 -43.5t-2.5 -34q0 -14 2 -36t8 -43t18 -36t33 -15z" />
    <glyph glyph-name="guillemotright" unicode="&#xbb;" horiz-adv-x="600" 
d="M237 -18l157 258l-157 258h71l179 -258l-179 -258h-71zM30 -18l158 258l-158 258h72l178 -258l-178 -258h-72z" />
    <glyph glyph-name="onequarter" unicode="&#xbc;" 
d="M280 330h-61v293h-90v52q21 0 40.5 4.5t33.5 14.5q11 8 19.5 22t8.5 31h49v-417zM798 675l-667 -817l-47 35l668 816zM825 -89h-64v-74h-60v74h-201v59l204 288h57v-292h64v-55zM701 -35v188l-136 -188h136z" />
    <glyph glyph-name="onehalf" unicode="&#xbd;" 
d="M288 329h-62v294h-91v51q46 0 75 19q11 8 19.5 22t8.5 31h50v-417zM826 -168h-298q0 43 25 91t78 81l76 46q22 14 38.5 36t16.5 51q0 33 -19.5 54t-59.5 21q-23 0 -39 -7.5t-26 -19.5t-14 -28t-4 -33h-63q0 25 9 50t27.5 45.5t46 33t64.5 12.5q36 0 62.5 -10.5t44 -28
t26 -41t8.5 -49.5t-7.5 -46t-19.5 -35.5t-27 -28t-29 -21.5l-17.5 -10.5t-26.5 -16.5t-28.5 -18.5t-23.5 -16.5q-17 -14 -28.5 -29t-14.5 -30h223v-52zM798 675l-668 -817l-47 35l669 816z" />
    <glyph glyph-name="threequarters" unicode="&#xbe;" 
d="M323 542q29 -13 48 -39t19 -60q0 -28 -11 -52t-30.5 -41t-47 -27t-60.5 -10t-61.5 10.5t-49 29t-31.5 44t-10 55.5l62 -1q-3 -33 20 -59t69 -26q40 0 62.5 22t23.5 56q0 25 -16 43t-41 25q-16 4 -32 3t-31 -1v52q15 0 33 1t30 7q44 20 44 64q1 26 -18 45.5t-57 19.5
q-44 0 -61.5 -23.5t-15.5 -52.5h-61q-1 30 9.5 53.5t30 40t45.5 25t55 8.5q30 0 55 -9.5t43.5 -25t28.5 -37t10 -45.5q0 -20 -5.5 -35.5t-14 -27.5t-18 -20t-16.5 -12zM822 675l-668 -817l-47 35l669 816zM816 -92h-64v-73h-61v73h-201v60l205 288h57v-292h64v-56zM691 -37
v187l-135 -187h135z" />
    <glyph glyph-name="questiondown" unicode="&#xbf;" horiz-adv-x="510" 
d="M63 -6q0 33 9.5 61t25 52t35 46t39.5 45q49 55 49 113v39h86v-44q0 -23 -3.5 -40.5t-10.5 -33.5t-18.5 -32t-27.5 -35q-14 -16 -29.5 -34.5t-29.5 -39t-23 -44t-9 -49.5q0 -27 10.5 -47t28 -32.5t40.5 -19t48 -6.5q52 0 96 14t72 31l9 -86q-14 -7 -34 -14.5t-43.5 -13.5
t-49.5 -9.5t-52 -3.5q-41 0 -80 12.5t-70 36t-49.5 57.5t-18.5 77zM212 567h104v-111h-104v111z" />
    <glyph glyph-name="AE" unicode="&#xc6;" horiz-adv-x="858" 
d="M517 403h247v-79h-247v-254h270v-79h-356v200h-245l-83 -200h-90l312 718h463v-79h-271v-227zM431 261v369h-51l-164 -369h215z" />
    <glyph glyph-name="Eth" unicode="&#xd0;" horiz-adv-x="732" 
d="M672 358q0 -81 -21.5 -148.5t-65 -116t-111 -75.5t-158.5 -27h-219v326h-92v80h92v312h219q85 0 151.5 -28t112 -76t69 -111.5t23.5 -135.5zM395 317h-212v-247h121q144 0 210 72.5t66 210.5q0 63 -18.5 114t-52 87t-81.5 56t-107 20h-138v-233h212v-80z" />
    <glyph glyph-name="multiply" unicode="&#xd7;" horiz-adv-x="600" 
d="M547 169l-52 -60l-196 195l-184 -186l-57 53l190 185l-185 183l57 56l179 -184l179 179l55 -51l-179 -181z" />
    <glyph glyph-name="Oslash" unicode="&#xd8;" horiz-adv-x="788" 
d="M659 597q38 -50 58 -113t20 -135q0 -80 -23 -147.5t-66.5 -117t-107 -77.5t-144.5 -28q-65 0 -118 18t-95 51l-78 -90l-56 49l82 94q-38 49 -57 112t-19 136q0 76 23 144t67 118.5t107.5 80t143.5 29.5q64 0 116.5 -18.5t94.5 -51.5l75 87l57 -50zM645 349q0 48 -11.5 94
t-34.5 84l-360 -415q29 -26 68 -40.5t89 -14.5q65 0 112 25.5t77.5 66.5t45 93.5t14.5 106.5zM146 349q0 -48 11 -94t34 -84l360 415q-30 26 -68.5 41.5t-86.5 15.5q-62 0 -108.5 -25t-78 -66t-47.5 -94t-16 -109z" />
    <glyph glyph-name="Thorn" unicode="&#xde;" horiz-adv-x="732" 
d="M185 115v-125h-85v719h85v-125h258q45 0 86 -13t73 -41.5t51 -73t19 -107.5t-18.5 -107t-50 -72.5t-73 -41.5t-87.5 -13h-258zM185 514v-327h254q34 0 62 8.5t47.5 27.5t30 50t10.5 76q0 89 -41 127t-109 38h-254z" />
    <glyph glyph-name="germandbls" unicode="&#xdf;" horiz-adv-x="610" 
d="M90 -35v548q0 44 16 81t44.5 63.5t66.5 41.5t83 15q44 0 82 -12.5t66.5 -34.5t45 -52t16.5 -66q0 -47 -27.5 -86.5t-76.5 -58.5q75 -22 110.5 -78t35.5 -128q0 -50 -18.5 -87.5t-50.5 -62.5t-74 -37.5t-88 -12.5q-35 0 -73 6t-73 18v-57h-85zM298 436q64 8 95 34.5
t31 76.5q0 45 -33.5 71t-86.5 26q-63 0 -96 -33t-33 -88v-423q32 -11 62.5 -18t57.5 -7q88 0 128.5 36.5t40.5 108.5q0 63 -40.5 101t-125.5 37v78z" />
    <glyph glyph-name="ae" unicode="&#xe6;" horiz-adv-x="830" 
d="M452 237q-1 -41 13 -76t37 -60.5t52.5 -40t61.5 -14.5q42 0 79 17t61 41v-88q-11 -7 -23.5 -13.5t-29 -12t-38.5 -8.5t-52 -3q-72 0 -120.5 26t-77.5 73q-16 -31 -38 -50t-47 -30t-52 -15t-52 -4q-85 0 -128 43.5t-43 129.5q0 33 15 62.5t42.5 51.5t65.5 35t84 13h51
t51 -2q0 34 -5.5 61.5t-19.5 47.5t-37 31t-58 11q-38 0 -74.5 -13.5t-64.5 -36.5l-2 66q32 23 69 37.5t85 14.5q63 0 102 -24.5t59 -69.5q30 44 74.5 69t99.5 25q56 0 93 -23.5t58.5 -64t30.5 -93.5t9 -113h-331zM369 246l-61 2q-15 0 -44.5 -1.5t-59 -11t-51 -29.5
t-21.5 -55q0 -26 9 -45.5t23 -33t30 -20t30 -6.5q33 0 60 12t45.5 31.5t29 45t10.5 52.5v59zM701 298q0 31 -7 61t-21 53t-36 37.5t-51 14.5q-34 0 -58.5 -17t-40 -42t-24 -54t-11.5 -53h249z" />
    <glyph glyph-name="eth" unicode="&#xf0;" horiz-adv-x="650" 
d="M420 394q-11 27 -21.5 49.5t-23 42.5t-27.5 39.5t-34 41.5l-113 -75l-44 49l111 73q-24 20 -56 41.5t-57 35.5l39 58q38 -20 70 -40t69 -48l81 60l43 -49l-82 -59q46 -54 76 -101.5t47.5 -92.5t24 -88.5t6.5 -89.5q0 -128 -60.5 -194.5t-163.5 -66.5q-51 0 -93 16
t-72 44.5t-46.5 68.5t-16.5 89q0 50 17 91t47 70t71 45t90 16q12 0 27 -1t31 -4t31.5 -8t28.5 -13zM302 47q69 0 106 46t37 119q0 66 -40 102.5t-106 36.5q-68 0 -107 -42t-39 -112q0 -33 11 -60.5t30.5 -47.5t47 -31t60.5 -11z" />
    <glyph glyph-name="divide" unicode="&#xf7;" horiz-adv-x="600" 
d="M299 627q30 0 49.5 -21t19.5 -49t-20 -47t-47 -19q-29 0 -49.5 18.5t-20.5 47.5q0 28 19.5 49t48.5 21zM580 305h-560v74h560v-74zM231 125q0 28 19.5 48t48.5 20q30 0 50 -20t20 -48q0 -14 -5.5 -26t-15 -21.5t-22 -15t-25.5 -5.5q-29 0 -49.5 18.5t-20.5 49.5z" />
    <glyph glyph-name="oslash" unicode="&#xf8;" horiz-adv-x="621" 
d="M513 438q30 -37 46 -83.5t16 -98.5q0 -55 -19.5 -105t-54.5 -88.5t-83 -61t-106 -22.5q-45 0 -84 13.5t-71 36.5l-61 -71l-56 49l64 75q-27 36 -41.5 81t-14.5 93q0 56 18.5 106t53 87.5t83 59.5t109.5 22q42 0 78.5 -11t66.5 -31l67 78l57 -50zM488 256q0 61 -32 117
l-251 -289q20 -19 47 -29.5t60 -10.5q46 0 79 21t54.5 52.5t32 68.5t10.5 70zM135 256q0 -26 6 -54.5t19 -55.5l247 285q-20 16 -44 25.5t-51 9.5q-41 0 -74 -19.5t-56 -50t-35 -67.5t-12 -73z" />
    <glyph glyph-name="thorn" unicode="&#xfe;" horiz-adv-x="621" 
d="M575 267q0 -53 -13.5 -104.5t-41.5 -92t-71 -66t-101 -25.5q-40 0 -70 7.5t-52.5 19.5t-37 27.5t-22.5 31.5h-2v-254h-81v898h78v-262h2q9 13 24.5 27.5t38.5 27t53 21t66 8.5q56 0 99 -22.5t72 -59t44 -84t15 -98.5zM488 257q0 38 -9 75.5t-28 67t-48.5 48t-71.5 18.5
t-73 -18.5t-52 -49t-31.5 -68.5t-10.5 -77q0 -34 10 -71t30 -67.5t51.5 -50.5t75.5 -20q41 0 70.5 21.5t49 54t28.5 69.5t9 68z" />
    <glyph glyph-name="dcroat" unicode="&#x111;" horiz-adv-x="621" 
d="M621 586h-81v-595h-76v78h-2q-8 -13 -23 -28.5t-38 -29t-54.5 -23t-70.5 -9.5q-59 0 -102 25.5t-71 66.5t-41.5 92.5t-13.5 103.5q0 51 15 98.5t44 84t72 59t99 22.5q75 0 117.5 -25.5t61.5 -60.5h3v141h-219v65h219v78h80v-78h81v-65zM460 253q0 39 -10.5 77t-31.5 68.5
t-52.5 49t-73.5 18.5t-71.5 -18t-48.5 -47.5t-28 -67t-9 -76.5q0 -31 9 -68t28.5 -69.5t49 -54t70.5 -21.5q43 0 75 20t52.5 50.5t30.5 67.5t10 71z" />
    <glyph glyph-name="Hbar" unicode="&#x126;" horiz-adv-x="732" 
d="M708 527h-71v-536h-85v332h-369v-332h-85v536h-71v75h71v107h85v-107h369v107h85v-107h71v-75zM552 403v124h-369v-124h369z" />
    <glyph glyph-name="hbar" unicode="&#x127;" horiz-adv-x="621" 
d="M380 586h-216v-141h2q26 42 70.5 64t98.5 22q106 0 155 -58t49 -168v-314h-79v280q0 53 -7 89.5t-22 59.5t-38 34t-54 12q-87 3 -131 -55.5t-44 -169.5v-250h-80v595h-84v65h84v78h80v-78h216v-65z" />
    <glyph glyph-name="dotlessi" unicode="&#x131;" horiz-adv-x="288" 
d="M183 -9h-81v528h81v-528z" />
    <glyph glyph-name="IJ" unicode="&#x132;" horiz-adv-x="675" 
d="M198 -9h-86v718h86v-718zM572 177q0 -41 -9.5 -77t-33 -63t-62.5 -42.5t-98 -15.5q-23 0 -42 4t-30 9v72q18 -6 34.5 -8.5t28.5 -2.5q33 0 57.5 8t38.5 25q30 33 30 109v514h86v-532z" />
    <glyph glyph-name="ij" unicode="&#x133;" horiz-adv-x="576" 
d="M191 631h-97v107h97v-107zM183 -9h-81v528h81v-528zM480 631h-97v107h97v-107zM472 23q0 -39 -1.5 -77.5t-13 -69t-37.5 -49t-75 -16.5l-57 2l2 75l42 -5q33 -4 46 28t13 85v523h81v-496z" />
    <glyph glyph-name="kgreenlandic" unicode="&#x138;" horiz-adv-x="566" 
d="M535 -9h-115l-189 249l-67 -68v-181h-80v533h80v-250l230 245h118l-225 -224z" />
    <glyph glyph-name="Ldot" unicode="&#x13f;" horiz-adv-x="510" 
d="M496 -9h-397v718h86v-639h311v-79zM451 378q-20 -18 -46 -18t-44.5 18t-18.5 43t18.5 43.5t44.5 18.5q28 0 46.5 -18.5t18.5 -43.5q0 -22 -19 -43z" />
    <glyph glyph-name="ldot" unicode="&#x140;" horiz-adv-x="450" 
d="M183 -9h-81v738h81v-738zM381 317q-20 -18 -46 -18t-44.5 18t-18.5 43t18.5 43.5t44.5 18.5q28 0 46.5 -18.5t18.5 -43.5q0 -22 -19 -43z" />
    <glyph glyph-name="Lslash" unicode="&#x141;" horiz-adv-x="510" 
d="M99 344v365h86v-278l87 88l52 -45l-139 -141v-263h311v-79h-397v255l-66 -67l-53 45z" />
    <glyph glyph-name="lslash" unicode="&#x142;" horiz-adv-x="288" 
d="M183 373v-382h-81v311l-102 -90v86l102 90v341h81v-270l105 93v-86z" />
    <glyph glyph-name="napostrophe" unicode="&#x149;" horiz-adv-x="730" 
d="M650 -9h-79v280q0 53 -7 89.5t-22 59.5t-38 34t-54 12q-87 3 -131 -55.5t-44 -169.5v-250h-80v528h79v-85h2q9 21 27 39t40.5 30.5t49 20t53.5 7.5q106 0 155 -58t49 -168v-314zM36 485q23 15 43 40.5t25 50.5q3 14 0.5 22.5t-16.5 8.5q-23 0 -40.5 14.5t-17.5 42.5
t18 43.5t41 15.5q30 0 49.5 -23t19.5 -58q0 -57 -29.5 -104t-74.5 -70z" />
    <glyph glyph-name="Eng" unicode="&#x14a;" horiz-adv-x="746" 
d="M651 -9q0 -41 -9.5 -77t-33 -63t-62.5 -42.5t-98 -15.5q-23 0 -42 4t-30 9v72q18 -6 34.5 -8.5t28.5 -2.5q33 0 57.5 8t38.5 25q18 21 26 59l-376 659h-2v-627h-85v718h134l333 -605v605h86v-718z" />
    <glyph glyph-name="eng" unicode="&#x14b;" horiz-adv-x="621" 
d="M539 11q0 -38 -2 -74.5t-13.5 -65t-37 -45.5t-72.5 -15l-56 2l2 74l42 -4q32 -4 45 27.5t13 83.5v277q0 53 -7 89.5t-22 59.5t-38 34t-54 12q-87 3 -131 -55.5t-44 -169.5v-250h-80v528h79v-85h2q9 21 27 39t40.5 30.5t49 20t53.5 7.5q106 0 155 -58t49 -168v-294z" />
    <glyph glyph-name="OE" unicode="&#x152;" horiz-adv-x="887" 
d="M817 630h-261v-227h237v-79h-237v-254h260v-79h-346v4q-23 -8 -47.5 -12t-50.5 -4q-77 0 -136.5 28t-99.5 77.5t-60.5 117.5t-20.5 147q0 76 20.5 144t61 118.5t99.5 80t136 29.5q26 0 50.5 -4.5t47.5 -12.5v5h347v-79zM372 57q55 0 98 20v544q-46 22 -98 22
q-59 0 -102.5 -25t-72 -66t-42 -94t-13.5 -109q0 -54 12.5 -106.5t40 -93.5t71.5 -66.5t106 -25.5z" />
    <glyph glyph-name="oe" unicode="&#x153;" horiz-adv-x="894" 
d="M506 237q-1 -41 13.5 -76t38.5 -60.5t54.5 -40t62.5 -14.5q42 0 81.5 17t63.5 41v-88q-22 -14 -54.5 -25.5t-93.5 -11.5q-78 0 -131 30t-81 84q-30 -51 -76 -82.5t-108 -31.5q-54 0 -96 22.5t-71.5 61t-45 88.5t-15.5 105q0 56 15 106t44 87.5t71.5 59.5t97.5 22
q65 0 110.5 -30.5t74.5 -81.5q29 51 79.5 81.5t110.5 30.5q56 0 94 -23.5t60.5 -64t32 -93.5t9.5 -113h-341zM424 256q0 36 -9.5 73t-28 67.5t-46.5 50t-64 19.5q-37 0 -65 -19.5t-46.5 -50t-28 -67.5t-9.5 -73q0 -33 7.5 -70.5t25 -69t46 -52t70.5 -20.5q41 0 69.5 21
t46 52.5t25 68.5t7.5 70zM765 298q0 31 -7.5 61t-23 53t-38 37.5t-51.5 14.5q-34 0 -59 -17t-42 -42t-26 -54t-12 -53h259z" />
    <glyph glyph-name="Tbar" unicode="&#x166;" horiz-adv-x="566" 
d="M326 325v-334h-86v334h-178v76h178v230h-223v78h533v-78h-224v-230h179v-76h-179z" />
    <glyph glyph-name="tbar" unicode="&#x167;" horiz-adv-x="399" 
d="M364 276h-151v-139q0 -24 8 -42t20.5 -29t28.5 -16.5t31 -5.5q20 0 38 5.5t32 13.5l1 -69q-17 -8 -38.5 -11.5t-41.5 -3.5q-36 0 -65.5 7.5t-50.5 24t-32 43.5t-11 65v157h-106v65h106v105h-96v67h96v116l80 25v-141h141v-67h-141v-105h151v-65z" />
    <glyph glyph-name="afii57929" unicode="&#x2bc;" horiz-adv-x="310" 
d="M191 680q0 -30 -9 -57.5t-24.5 -50.5t-35.5 -40.5t-41 -27.5l-19 21q20 13 40.5 36t26.5 46q9 34 -12 34q-7 0 -17 1.5t-17 5.5q-11 6 -21 19.5t-10 33.5q0 30 19.5 47.5t45.5 17.5q33 0 53.5 -25.5t20.5 -60.5z" />
    <glyph glyph-name="caron" unicode="&#x2c7;" 
d="M471 614q-12 -10 -27 0l-196 152q-11 9 -13 16.5t2.5 12t14 4.5t22.5 -6l182 -91l184 92q12 6 22 6t14.5 -4.5t2.5 -12t-13 -16.5z" />
    <glyph glyph-name="uni02D0" unicode="&#x2d0;" 
d="M463 409l-103 172h203zM360 115l103 172l100 -172h-203z" />
    <glyph glyph-name="breve" unicode="&#x2d8;" 
d="M675 783q-43 -66 -92 -95.5t-118 -32.5q-73 -4 -128.5 25t-102.5 97l47 28q37 -54 79.5 -76t99.5 -20q53 2 90.5 22.5t72.5 69.5z" />
    <glyph glyph-name="dotaccent" unicode="&#x2d9;" 
d="M527 735q0 -28 -21 -48t-50 -20q-30 0 -49 21.5t-19 48.5q0 13 6 25t15.5 21t22 14.5t25.5 5.5q29 0 49.5 -20t20.5 -48z" />
    <glyph glyph-name="ring" unicode="&#x2da;" 
d="M566 701q0 -21 -8.5 -39t-23 -31.5t-34 -21t-41.5 -7.5t-41.5 7.5t-34 21t-23 31.5t-8.5 39t8.5 39t23 31.5t34 21t41.5 7.5t41.5 -7.5t34 -21t23 -31.5t8.5 -39zM519 701q0 23 -17 39.5t-43 16.5t-43 -16.5t-17 -39.5t17 -39.5t43 -16.5t43 16.5t17 39.5z" />
    <glyph glyph-name="ogonek" unicode="&#x2db;" 
d="M460 -198q-34 0 -57.5 26t-23.5 62q0 26 15 53.5t41 50.5q5 5 9.5 7t6.5 2q12 0 12 -11q0 -8 -4 -16q-14 -22 -19 -36t-5 -33q0 -18 9.5 -28.5t23.5 -10.5q10 0 18 5.5t15 12.5l12.5 12.5t11.5 5.5q12 0 12 -16q0 -17 -6.5 -32.5t-17 -27.5t-24.5 -19t-29 -7z" />
    <glyph glyph-name="hungarumlaut" unicode="&#x2dd;" 
d="M498 793q10 -14 9 -29t-10 -23q-17 -15 -48 -32t-62.5 -31.5t-57 -25t-32.5 -11.5q-8 -1 -9 3t5 11l33.5 33.5t38 37t38 36t33.5 30.5q4 4 13 7.5t18 4t17.5 -1.5t13.5 -9zM672 793q9 -14 8.5 -29t-9.5 -23q-17 -15 -48 -32t-62.5 -31.5t-57.5 -25t-32 -11.5q-8 -1 -10 3
t6 11l33.5 33.5t37.5 37t37.5 36t33.5 30.5q5 4 13.5 7.5t17.5 4t18 -1.5t14 -9z" />
    <glyph glyph-name="Alpha" unicode="&#x391;" 
d="M765 -63h-84l-19 196h-361l-133 -196h-88l496 736h108zM652 206l-40 395l-265 -395h305z" />
    <glyph glyph-name="Beta" unicode="&#x392;" 
d="M550 671q52 -1 89 -14t63 -42q22 -23 32 -52.5t10 -62.5q0 -63 -36 -106t-114 -77q126 -53 126 -179q0 -45 -18 -85.5t-48 -66.5q-60 -51 -163 -51h-372l216 737zM497 361q34 0 64 10.5t52.5 28.5t35 42t12.5 50q0 48 -32.5 77.5t-85.5 29.5h-146l-71 -238h171zM224 8
h267q70 0 110 35.5t40 95.5q0 31 -11 58t-30.5 47.5t-46 32t-56.5 11.5h-189z" />
    <glyph glyph-name="Gamma" unicode="&#x393;" 
d="M716 500l-30 84h-280l-169 -649h-84l191 737h398l49 -146z" />
    <glyph glyph-name="Delta" unicode="&#x394;" 
d="M675 9v554l-490 -554h490zM688 671h72v-735h-716z" />
    <glyph glyph-name="Epsilon" unicode="&#x395;" 
d="M350 672h436l-24 -73h-350l-76 -247h340l-26 -73h-336l-84 -271h374l-21 -73h-455z" />
    <glyph glyph-name="Zeta" unicode="&#x396;" 
d="M149 5l498 588h-374l23 79h481l-18 -70l-500 -587h408l-19 -79h-512z" />
    <glyph glyph-name="Eta" unicode="&#x397;" 
d="M363 673l-86 -324h393l83 324h83l-192 -737h-81l89 339h-393l-90 -339h-84l192 737h86z" />
    <glyph glyph-name="Theta" unicode="&#x398;" 
d="M726 594q32 -33 46.5 -80.5t14.5 -108.5q0 -57 -11.5 -114.5t-32.5 -110t-50 -97.5t-63 -75q-84 -78 -215 -78q-137 0 -206 68.5t-69 202.5q0 42 7.5 87t22 89.5t34.5 87.5t44 80q45 67 109 98.5t149 31.5q67 0 126 -21.5t94 -59.5zM323 515q-49 -67 -77 -148.5
t-28 -166.5q0 -68 17.5 -106.5t55.5 -61.5q22 -14 54 -21.5t70 -7.5q58 0 103.5 20t82.5 61q23 26 43 64t35 81.5t23.5 90.5t8.5 92q0 67 -22 105.5t-67 60.5q-23 12 -52.5 19t-60.5 7q-65 0 -108 -21.5t-78 -67.5zM366 335h191l14 55h46l-41 -175h-47l15 54h-191l-14 -54
h-45l38 175h47z" />
    <glyph glyph-name="Iota" unicode="&#x399;" 
d="M507 672h90l-195 -737h-90z" />
    <glyph glyph-name="Kappa" unicode="&#x39a;" 
d="M314 251l-83 -312h-82l189 729h83l-80 -301l335 301h106l-414 -370l308 -359h-98z" />
    <glyph glyph-name="Lambda" unicode="&#x39b;" 
d="M592 551l-401 -605h-88l469 717h100l3 -717h-84z" />
    <glyph glyph-name="Mu" unicode="&#x39c;" 
d="M307 572l-156 -636h-79l177 736h131l29 -599l282 599h142l-177 -736h-83l150 629l-299 -629h-86z" />
    <glyph glyph-name="Nu" unicode="&#x39d;" 
d="M505 -65l-161 626l-160 -626h-86l193 737h110l160 -635l166 635h87l-200 -737h-109z" />
    <glyph glyph-name="Xi" unicode="&#x39e;" 
d="M670 538l10 55h-294l-16 -55h-63l31 134h426l-35 -134h-59zM267 270l21 79h376l-21 -79h-376zM671 69l-36 -134h-478l33 134h63l-13 -55h351l16 55h64z" />
    <glyph glyph-name="Omicron" unicode="&#x39f;" 
d="M674 617q45 -32 66.5 -79t21.5 -119q0 -48 -9 -99t-25.5 -100.5t-41 -95.5t-54.5 -85q-36 -51 -86 -75t-116 -24q-62 0 -111.5 16t-84.5 46t-53.5 73t-18.5 97q0 81 23.5 165.5t66.5 163.5q25 44 51.5 75.5t56.5 51t65.5 28.5t79.5 9q100 0 169 -48zM347 497
q-23 -37 -42 -79.5t-32.5 -85.5t-21.5 -83t-8 -72q0 -35 8.5 -59.5t27.5 -45.5q25 -24 61.5 -37.5t79.5 -13.5q35 0 62.5 7t51 24.5t43.5 46t40 70.5q15 30 27.5 64t21 68t13.5 67t5 62q0 53 -21.5 87t-68.5 54q-20 8 -44.5 12.5t-44.5 4.5q-54 0 -90.5 -21.5t-67.5 -69.5z
" />
    <glyph glyph-name="Pi" unicode="&#x3a0;" 
d="M719 597l-149 -657h-84l148 657h-262l-153 -657h-84l155 657h-82l18 72h565l-20 -72h-52z" />
    <glyph glyph-name="Rho" unicode="&#x3a1;" 
d="M314 668h214q95 0 147 -53.5t52 -150.5q0 -57 -20.5 -105t-59.5 -76q-28 -20 -63 -30t-84 -10l-191 -1l-62 -302h-81zM324 316h163q67 0 102 23q23 17 38 52.5t15 78.5q0 64 -33 95t-102 31h-126z" />
    <glyph glyph-name="Sigma" unicode="&#x3a3;" 
d="M439 329l-167 265l22 74h447l-16 -72h-372l176 -271l-297 -314h405l-19 -72h-492l19 76z" />
    <glyph glyph-name="Tau" unicode="&#x3a4;" 
d="M511 596l-134 -657h-83l132 657h-223l18 72h499l-16 -72h-193z" />
    <glyph glyph-name="Upsilon" unicode="&#x3a5;" 
d="M302 -65l60 373q5 26 7 49t2 40q0 39 -7.5 70t-23.5 56t-42 44.5t-62 35.5l29 74q55 -20 87 -43.5t54 -60.5q12 -18 18.5 -37.5t9.5 -47.5q23 53 53 85.5t75 56.5q18 10 35.5 17.5t37.5 12.5t44 7.5t55 4.5l-20 -87q-72 -7 -121 -33t-85 -79q-23 -34 -42.5 -84
t-30.5 -114l-55 -340h-78z" />
    <glyph glyph-name="Phi" unicode="&#x3a6;" 
d="M570 598q43 -5 69.5 -12.5t54.5 -23.5q48 -28 74 -78.5t26 -114.5q0 -41 -9.5 -81t-26.5 -77.5t-40 -70.5t-50 -59q-49 -47 -110.5 -65.5t-148.5 -18.5l-15 -52h-82l18 54q-209 34 -209 245q0 48 11.5 93.5t32.5 85t51.5 72t69.5 56.5q42 26 88.5 37.5t116.5 14.5l17 58
h76zM472 526q-49 -2 -83 -11t-63 -26q-27 -16 -49.5 -42.5t-39 -59.5t-26 -69.5t-9.5 -73.5q0 -75 36.5 -118t110.5 -53zM427 70q26 1 45.5 3t35 6t29.5 9.5t28 13.5q33 19 60 46.5t46.5 61.5t30.5 72t11 77q0 76 -39 116.5t-124 48.5z" />
    <glyph glyph-name="Chi" unicode="&#x3a7;" 
d="M435 241l-256 -307h-93l317 379l-163 361h84l133 -290l226 290h93l-287 -367l175 -373h-86z" />
    <glyph glyph-name="Psi" unicode="&#x3a8;" 
d="M299 -66l42 215q-55 2 -86.5 8.5t-56.5 20.5q-37 20 -57.5 59t-20.5 87q0 31 7.5 73t26.5 111q10 35 14.5 59t4.5 33q0 18 -3 26.5t-10 12.5q-5 2 -10 5t-5 10q0 6 4.5 7t10.5 2q12 1 28.5 3t31 0t24.5 -10t10 -26q0 -11 -6.5 -41t-15.5 -65q-4 -14 -8 -31t-8 -35
t-7.5 -34.5t-6.5 -29.5q-4 -17 -6.5 -35.5t-2.5 -32.5q0 -29 6.5 -48.5t24.5 -31.5t49.5 -18t82.5 -8l92 446h79l-93 -446h7q59 0 96.5 8t63 35.5t43.5 79.5t39 140l12 52q5 23 10.5 44.5t11.5 42.5q0 1 1 2t2 5q7 23 24 30t52 7q4 0 10.5 0.5t13 0t11 -3t4.5 -7.5
q0 -12 -12 -22q-15 -12 -22 -29t-14 -33q-5 -18 -13.5 -52t-21.5 -79q-15 -61 -28.5 -104t-29.5 -73t-35.5 -49.5t-45.5 -34.5q-29 -17 -71 -24t-108 -7h-10l-45 -215h-80z" />
    <glyph glyph-name="Omega" unicode="&#x3a9;" 
d="M386 -56l28 98q34 15 59.5 27.5t46.5 26t38 28.5t34 33q46 51 72 114.5t26 132.5q0 88 -53 136.5t-147 48.5q-53 0 -90.5 -17t-70.5 -55q-31 -40 -49 -98t-18 -120q0 -56 14.5 -106t38.5 -90q9 -14 21.5 -27.5t38.5 -38.5l-27 -93h-237l18 68h169q-30 37 -51 71.5t-34 70
t-19 74t-6 82.5q0 79 22 145t62.5 113t98 73t127.5 26q60 0 109.5 -19t85 -54t55 -83.5t19.5 -108.5q0 -79 -29 -153t-85 -132q-14 -15 -29 -28.5t-33 -26t-40 -25t-52 -25.5h178l-20 -68h-271z" />
    <glyph glyph-name="alpha" unicode="&#x3b1;" 
d="M637 -52q-16 -5 -27 -6.5t-19 -1.5q-38 0 -54 20.5t-21 75.5q-18 -20 -38.5 -38.5t-43 -33t-48 -23t-54.5 -8.5q-34 0 -61 14t-46 39t-29.5 59.5t-10.5 76.5q0 39 7 79t20.5 77.5t33 70.5t45.5 59q34 38 74 56.5t82 18.5q69 0 106.5 -44.5t37.5 -125.5l-4 -72
q25 51 44.5 107.5t32.5 115.5l70 -41q-15 -53 -29 -92.5t-30.5 -74t-38.5 -69.5t-53 -79q0 -42 3.5 -61t24.5 -19h6.5t7.5 1.5t13.5 4.5l25.5 9zM451 68q18 19 34 34.5t24 38.5q11 28 14 60.5t3 68.5q0 67 -21.5 97.5t-63.5 30.5q-39 0 -70 -24t-66 -73q-28 -39 -41 -83
t-13 -85q0 -26 9 -48t25 -39q11 -15 25 -21.5t37 -6.5q28 0 51.5 11.5t52.5 38.5z" />
    <glyph glyph-name="beta" unicode="&#x3b2;" 
d="M310 469q29 105 81 156t132 51q75 0 119.5 -42.5t44.5 -114.5q0 -63 -31.5 -104t-106.5 -69q17 -8 27.5 -15t19.5 -15q24 -20 36.5 -56t12.5 -75q0 -53 -18 -98.5t-49 -80t-73 -54t-90 -19.5q-46 0 -81 18t-69 63l-53 -192h-82zM413 386h44q38 0 62 8.5t47 27.5
q22 20 34 46.5t12 49.5q0 36 -25 59.5t-65 23.5q-46 0 -79 -36t-56 -114l-103 -367q25 -45 53.5 -64t69.5 -19q34 0 63 14t50.5 38.5t33.5 58.5t12 75q0 59 -31.5 94t-81.5 35h-55z" />
    <glyph glyph-name="gamma" unicode="&#x3b3;" 
d="M339 -66l47 248q9 40 13.5 73t4.5 53q0 38 -22.5 59t-62.5 21q-19 0 -34.5 -5.5t-40.5 -22.5l-22 83q13 10 23.5 16.5t20.5 10t21.5 4.5t26.5 1q57 0 88.5 -23t53.5 -81q33 50 67 69.5t86 19.5q31 0 55 -7t57 -27l-34 -85q-30 15 -47.5 20.5t-37.5 5.5q-43 0 -63.5 -12
t-35.5 -39q-6 -10 -10.5 -19t-8 -23t-7.5 -35t-8 -54l-45 -251h-85z" />
    <glyph glyph-name="delta" unicode="&#x3b4;" 
d="M707 590l-31.5 7t-25.5 5t-25 2.5t-30 0.5q-50 0 -86 -5.5t-47 -11.5q-6 -2 -7.5 -5.5t-1.5 -8.5q0 -6 6 -15t31 -34q7 -8 17 -20t21 -26t21.5 -28.5t19.5 -25.5q33 -45 49 -87.5t16 -90.5q0 -52 -15.5 -103t-45.5 -95q-41 -61 -93 -89.5t-124 -28.5q-81 0 -125 46.5
t-44 127.5q0 34 7.5 71t21 71.5t32 65t40.5 52.5q32 32 74 49.5t87 17.5q3 0 13 -0.5t21 -2.5q-36 45 -58.5 74t-39.5 52q-11 14 -16.5 25t-5.5 18q0 18 17.5 32.5t48.5 24.5t72 15t89 5q15 0 29 -0.5t29 -2.5t32.5 -5t41.5 -9zM336 305q-15 -22 -28.5 -48t-23 -53
t-15 -53.5t-5.5 -48.5q0 -47 25 -73t67 -26q24 0 48.5 7.5t42.5 20.5q24 19 44.5 46t35.5 58t24 64t9 63q0 51 -29 79t-78 28q-71 0 -117 -64z" />
    <glyph glyph-name="epsilon" unicode="&#x3b5;" 
d="M679 375q-34 12 -58 19t-43 11t-35.5 5.5t-35.5 1.5q-48 0 -77.5 -22t-29.5 -54q0 -24 22 -42t62 -18h132l-21 -70h-95q-45 0 -81 -9t-62 -24.5t-40 -37t-14 -46.5q0 -38 29.5 -60t88.5 -22q19 0 37 2t40 7t49 13.5t64 22.5l-24 -86q-27 -10 -48.5 -16t-41 -9.5t-40 -5
t-45.5 -1.5q-95 0 -143 32q-27 20 -43 52t-16 66q0 120 154 167q-30 20 -43 41.5t-13 47.5q0 31 16.5 58t45 46.5t66.5 30.5t80 11q22 0 42 -2t42.5 -6.5t49.5 -12.5t62 -20z" />
    <glyph glyph-name="zeta" unicode="&#x3b6;" 
d="M323 632h237q15 0 25.5 1.5t19 5.5t16.5 11.5t18 19.5q2 -2 10.5 -12t18 -24t17 -28.5t7.5 -25.5q0 -13 -8 -20.5t-19 -11.5t-23.5 -5.5t-21.5 -2.5q-80 -99 -154.5 -190t-144.5 -193q-17 -23 -22.5 -36t-5.5 -27q0 -10 3 -17.5t12 -12.5t25 -8.5t42 -4.5q23 -2 51 -5
t46 -6q65 -11 97.5 -40.5t32.5 -84.5q0 -64 -41.5 -99.5t-112.5 -35.5q-13 0 -29 1t-50 5l20 80q24 -4 36.5 -4.5t22.5 -0.5q35 0 48.5 12t13.5 32t-19 35t-63 19l-90 9q-4 0 -6.5 1t-4.5 1q-55 10 -82.5 37t-27.5 77q0 17 4 33t13.5 35t26 41.5t40.5 53.5l243 307h-249z
" />
    <glyph glyph-name="eta" unicode="&#x3b7;" 
d="M518 -139l81 439q1 6 1.5 13t0.5 17q0 35 -21.5 53t-70.5 18q-31 0 -59.5 -10t-51 -28t-38 -42.5t-20.5 -52.5l-52 -293h-84l90 494h80l-11 -61q38 38 80.5 55t81.5 17q73 0 117.5 -36.5t44.5 -102.5q0 -22 -3 -34l-83 -446h-83z" />
    <glyph glyph-name="theta" unicode="&#x3b8;" 
d="M702 482q0 -49 -10.5 -106.5t-29 -116t-43.5 -114t-53 -99.5q-75 -115 -181 -115q-171 0 -171 196q0 52 9.5 111t26 117t38.5 111t48 94q35 52 86 83.5t105 31.5q85 0 130 -49.5t45 -143.5zM606 325q10 45 16 88t6 72q0 59 -25 90t-76 31q-40 0 -71.5 -22.5t-55.5 -55.5
t-40.5 -71.5t-26.5 -70.5q-5 -11 -9 -27t-8 -34h290zM305 262q-8 -42 -11.5 -76.5t-3.5 -68.5q0 -62 22 -89.5t75 -27.5q30 0 59 18t58 58q27 39 46.5 90t33.5 96h-279z" />
    <glyph glyph-name="iota" unicode="&#x3b9;" 
d="M528 469l-106 -386q-8 -27 -10.5 -43.5t2 -25.5t18.5 -12t40 -3q6 0 16.5 1.5t21.5 3.5l-15 -66h-110q-47 0 -60.5 26.5t-3.5 60.5l133 444h74z" />
    <glyph glyph-name="kappa" unicode="&#x3ba;" 
d="M332 194l-56 -256h-82l124 531h87l-51 -197l271 197h106l-327 -247l221 -284h-94z" />
    <glyph glyph-name="lambda" unicode="&#x3bb;" 
d="M355 675q23 -10 41 -19t32 -19.5t26.5 -22.5t24.5 -28q33 -40 54 -90.5t35.5 -105.5t26 -111t24.5 -105l4 -17q17 -63 38.5 -103.5t52.5 -72.5l-79 -48q-11 15 -19 26t-13.5 19.5t-10 16t-8.5 16.5q-14 27 -25 62t-20 72t-16.5 73t-13.5 66q-5 20 -8 42t-9 42
q-17 -10 -28.5 -19t-21.5 -22.5t-20.5 -33.5t-25.5 -51q-19 -37 -32 -63t-15 -29q-21 -43 -39.5 -74.5t-37 -56.5t-39.5 -45.5t-46 -40.5l-67 65q32 20 57 43t49.5 56t51 80.5t61.5 116.5q16 30 28.5 51t26 36.5t31 29t42.5 29.5q-15 39 -29 66t-30.5 46.5t-38 33.5
t-52.5 28z" />
    <glyph glyph-name="mu" unicode="&#x3bc;" horiz-adv-x="650" 
d="M527 -9h-78l15 85h-2q-14 -23 -34.5 -41t-45.5 -30.5t-53 -19t-55 -6.5q-76 0 -119 31l-35 -199h-80l125 708h80l-51 -291q-8 -50 -7 -84.5t12 -56.5t31.5 -32t50.5 -11q86 -3 141 55.5t75 169.5l44 250h79z" />
    <glyph glyph-name="nu" unicode="&#x3bd;" 
d="M757 399q-14 0 -22 0.5t-12 0.5q-11 0 -18.5 -2t-15 -11.5t-16.5 -28.5t-23 -53q-17 -42 -33.5 -82t-35.5 -81q-24 -56 -45.5 -97t-41 -67.5t-39.5 -39t-41 -12.5q-25 0 -39.5 11.5t-22 28.5t-10.5 37.5t-4 37.5l-7 83l-3 27q-8 79 -15 127t-15.5 74t-20.5 35t-30 9
q-11 0 -21.5 -6t-27.5 -31l-48 71q30 32 52.5 44t52.5 12q41 0 68.5 -17.5t45 -57.5t26.5 -104.5t12 -158.5q2 -36 2.5 -58.5t1.5 -41.5q2 -16 4 -21.5t10 -5.5q5 0 12 5.5t17 22.5q30 45 50.5 98t40.5 103q22 56 35 87.5t13 33.5q9 37 24.5 60.5t37 36.5t50.5 18t67 5z" />
    <glyph glyph-name="xi" unicode="&#x3be;" 
d="M508 271q-43 0 -82 -13t-68 -35.5t-46.5 -52t-17.5 -61.5q0 -30 19 -46t73 -24q48 -8 79 -15.5t50 -16.5q29 -14 45 -38.5t16 -56.5q0 -63 -41.5 -96t-116.5 -33q-15 0 -30 2t-49 8l22 74q21 -6 32 -7.5t23 -1.5q38 0 55.5 11.5t17.5 32.5q0 15 -11.5 24.5t-27.5 15.5
t-33 8.5t-28 4.5q-34 7 -65 13t-60 26q-26 17 -40.5 44t-14.5 63q0 45 25 88.5t71 78.5q24 19 47 30.5t60 22.5q-40 18 -56 38.5t-16 50.5q0 38 23 67t77 54l-1 4h-94l20 71h220q19 0 38 9.5t34 29.5q14 -16 25 -31q9 -13 17 -25.5t8 -20.5t-6.5 -11t-14.5 -3
q-11 0 -18.5 -0.5t-16 -2t-20.5 -4.5t-31 -9q-51 -13 -85.5 -26.5t-55.5 -27.5t-30 -30t-9 -35q0 -35 29.5 -56t84.5 -21h78l-20 -71h-84z" />
    <glyph glyph-name="omicron" unicode="&#x3bf;" 
d="M702 300q0 -80 -31 -158.5t-86 -134.5q-35 -39 -78.5 -57t-100.5 -18q-43 0 -78 13.5t-60 39t-38.5 61.5t-13.5 80q0 43 11.5 89t31 88.5t46 78.5t56.5 60q30 22 69 34t77 12q94 0 144.5 -48t50.5 -140zM347 295q-22 -43 -34 -91t-12 -87q0 -50 30 -77.5t84 -27.5
q48 0 85 26t69 86q23 43 37 92.5t14 89.5q0 52 -29.5 79.5t-83.5 27.5q-50 0 -89 -27.5t-71 -90.5z" />
    <glyph glyph-name="pi" unicode="&#x3c0;" 
d="M167 -7q19 28 34.5 53.5t27.5 51.5t21.5 54t17.5 61q5 21 9.5 41t8 44t7.5 53t8 67h-91l16 73h537l-22 -73h-79q-18 -70 -32 -147t-14 -149q0 -16 1 -35.5t6 -40.5t17 -42.5t33 -40.5l-80 -17q-29 33 -42 73.5t-13 77.5q0 27 2 56t7.5 65.5t14 85t20.5 114.5h-204
q-5 -46 -10 -93.5t-16 -93.5q-5 -26 -11.5 -47t-16.5 -48q-9 -31 -18 -55.5t-19.5 -46t-23.5 -43.5t-29 -48z" />
    <glyph glyph-name="rho" unicode="&#x3c1;" 
d="M282 317q23 81 84.5 128t144.5 47q90 0 137 -48.5t47 -141.5q0 -66 -21 -125.5t-56.5 -104.5t-82.5 -71.5t-100 -26.5q-45 0 -76 19.5t-63 73.5l-52 -193h-83zM323 164q1 -54 28 -84.5t75 -30.5q75 0 128 78q29 39 43.5 85t14.5 94q0 109 -108 109q-54 0 -92.5 -29.5
t-52.5 -86.5z" />
    <glyph glyph-name="sigma" unicode="&#x3c3;" 
d="M401 361q-20 -19 -37.5 -46t-30.5 -58t-20.5 -63.5t-7.5 -62.5q0 -58 25 -88t68 -30q35 0 68 22t59 58t42 83t16 97q0 63 -25 95t-69 32q-22 0 -46.5 -11t-41.5 -28zM687 497q-24 -8 -41.5 -14t-30.5 -11t-23.5 -9.5t-21.5 -8.5q52 -28 72.5 -66t20.5 -100
q0 -71 -21 -135.5t-57 -113t-84 -77t-103 -28.5q-80 0 -124.5 55t-44.5 151q0 78 28 150t79 123q26 26 66 48.5t84.5 42t89.5 35t80 27.5z" />
    <glyph glyph-name="tau" unicode="&#x3c4;" 
d="M686 391q-26 -6 -43 -7.5t-39 -1.5q-11 0 -37 1.5t-64 5.5l-58 -331q-7 -32 8 -42.5t64 -7.5l38 5l-12 -69q-40 -5 -65.5 -6.5t-51.5 -1.5q-36 -1 -58.5 16.5t-17.5 42.5l5 40l61 359q-28 3 -42 4t-19 1q-30 0 -58 -4.5t-57 -12.5l9 75q17 4 31 7t27.5 4.5t29 2t35.5 0.5
t45.5 -1t53.5 -3l27 -4q29 -3 45 -4.5t25 -1.5q9 -1 14 -1h13q13 0 24.5 0.5t23.5 1.5t25.5 3t31.5 6z" />
    <glyph glyph-name="upsilon" unicode="&#x3c5;" 
d="M668 487q20 -26 28 -48.5t8 -48.5q0 -38 -13.5 -93.5t-39.5 -135.5q-23 -66 -47 -109.5t-54 -69t-70 -36t-95 -10.5q-82 0 -127 23.5t-45 74.5q0 28 9.5 55.5t18.5 55.5q18 55 27.5 84.5t9.5 33.5q1 4 5.5 18t8.5 30.5t7.5 32t3.5 24.5q0 19 -8 30.5t-34 23.5l68 53
q57 -39 57 -93q0 -24 -8 -60t-20 -74.5t-24.5 -75.5t-21.5 -64q-5 -15 -8 -31t-3 -34q0 -20 21 -26.5t58 -6.5q30 0 51 2.5t37 8.5t27.5 15.5t20.5 23.5q18 23 32.5 57.5t29.5 84.5q23 74 33 118t10 68q0 19 -5.5 33.5t-22.5 32.5z" />
    <glyph glyph-name="phi" unicode="&#x3c6;" 
d="M304 -128l40 135q-97 13 -146 59.5t-49 127.5q0 112 68.5 189.5t200.5 110.5l8 -75q-28 -9 -48 -17t-35.5 -16.5t-27.5 -18t-22 -22.5q-31 -29 -43.5 -64t-12.5 -81q0 -56 28 -85t99 -39l89 284q18 59 62.5 94.5t100.5 35.5q73 0 114 -50.5t41 -136.5q0 -70 -22 -125
t-63.5 -93.5t-102 -58.5t-136.5 -20h-19l-39 -134h-85zM446 73q62 3 99.5 14.5t65.5 36.5q16 14 30 35t24.5 46.5t16.5 53t6 54.5q0 50 -19 75t-52 25q-18 0 -32 -7.5t-29 -27.5q-20 -28 -29 -53z" />
    <glyph glyph-name="chi" unicode="&#x3c7;" 
d="M495 217l80 -173q15 -33 36 -43t60 -10l-14 -51l-41 -1q-29 0 -48.5 3t-33 10.5t-22.5 19t-17 28.5l-68 144l-163 -205l-104 1l235 276l-66 144q-11 24 -32 35t-48 11h-15l-11 61h94q37 0 56.5 -12.5t31.5 -42.5l60 -118l138 173h101z" />
    <glyph glyph-name="psi" unicode="&#x3c8;" 
d="M314 421q-14 -11 -23 -19.5t-16 -18t-13 -20.5t-12 -25q-10 -27 -19 -58.5t-15.5 -62.5t-10 -59.5t-3.5 -49.5q0 -35 11 -53.5t29.5 -27.5t43.5 -10.5t52 -1.5h29l110 534h84l-113 -533q33 3 58 7t44 9.5t33.5 13t27.5 17.5q44 36 64.5 108t20.5 194v20t-1 15.5t-3 16.5
t-5 21l75 18q4 -15 7 -27t5 -25.5t3 -29.5t1 -38q0 -72 -14 -139.5t-39 -114.5q-23 -50 -63.5 -81.5t-101.5 -48.5q-13 -3 -25.5 -5.5t-27 -4.5t-33 -4t-42.5 -3l-20 -79h-79l17 79q-33 1 -56.5 2.5t-41 4t-30 6.5t-23.5 9q-37 18 -55.5 56t-18.5 91q0 34 5 74.5t14 81
t21.5 76.5t26.5 62q12 24 25 39t37 36z" />
    <glyph glyph-name="omega" unicode="&#x3c9;" 
d="M732 477q11 -32 19 -58.5t12.5 -51t6.5 -48.5t2 -49q0 -70 -17.5 -132t-48 -108t-72 -73t-90.5 -27q-45 0 -80 23t-55 72q-27 -48 -56.5 -68.5t-66.5 -20.5q-34 0 -61.5 14t-46.5 39t-29.5 60.5t-10.5 77.5q0 54 19.5 111.5t54.5 115.5q9 12 18.5 24.5t21.5 27t27 32
t35 39.5h103q-32 -37 -67 -77.5t-64 -85t-47.5 -93t-18.5 -101.5t20 -80.5t54 -27.5q58 0 93 103l79 257h84l-78 -259q-3 -8 -4.5 -14.5t-1.5 -15.5q0 -33 21.5 -55t49.5 -22q31 0 59 19.5t49 53.5t33.5 80.5t12.5 100.5q0 50 -10.5 99.5t-38.5 117.5h90z" />
    <glyph glyph-name="afii10023" unicode="&#x401;" 
d="M280 484v-178h375v-74h-375v-218h424v-70h-496v612h496v-72h-424zM495 652q0 26 18.5 43t41.5 17t41 -17t18 -43q0 -27 -19 -43.5t-42 -16.5q-22 0 -40 17t-18 43zM302 652q0 26 19 43t42 17t41 -17t18 -43q0 -27 -18 -43.5t-43 -16.5q-22 0 -40.5 17t-18.5 43z" />
    <glyph glyph-name="afii10017" unicode="&#x410;" 
d="M308 161l-84 -217h-83l275 723h83l268 -723h-84l-81 217h-294zM335 233h239l-117 332z" />
    <glyph glyph-name="afii10018" unicode="&#x411;" 
d="M311 590v-218h158q56 0 96 -9t72 -29q42 -26 63.5 -73t21.5 -107q0 -109 -61.5 -160.5t-181.5 -51.5h-249v724h390l65 -75l-50 -61l-49 60h-275zM311 294v-276h168q85 0 124 34t39 100q0 73 -39.5 107.5t-131.5 34.5h-160z" />
    <glyph glyph-name="afii10019" unicode="&#x412;" 
d="M637 630q35 -23 51.5 -60.5t16.5 -88.5q0 -49 -20.5 -85.5t-65.5 -64.5q60 -27 86.5 -70.5t26.5 -106.5q0 -209 -228 -209h-295v719h273q59 0 94.5 -7.5t60.5 -26.5zM284 592v-229h226q55 0 87.5 33t32.5 87q0 51 -31 80t-90 29h-225zM499 16q31 0 60 7t51.5 22.5
t35.5 41t13 61.5q0 66 -42.5 104.5t-114.5 38.5h-218v-275h215z" />
    <glyph glyph-name="afii10020" unicode="&#x413;" 
d="M621 593h-270v-657h-77v657h-70v77h453l62 -96l-58 -44z" />
    <glyph glyph-name="afii10021" unicode="&#x414;" 
d="M600 -58h-311q-10 -13 -19.5 -23t-20.5 -18t-24 -16t-31 -17l-50 64q27 14 44.5 27.5t29 29.5t17.5 36.5t10 49.5q2 14 3 28t3 43q2 33 3 66t1 53v326h-35v74h481v-74h-37v-596l68 -72l-55 -56zM328 243q0 -26 -1 -62.5t-4 -71.5q-3 -53 -10 -96h279v578h-264v-348z" />
    <glyph glyph-name="afii10022" unicode="&#x415;" 
d="M709 593h-420v-234h372v-72h-372v-271h420v-72h-497v721h497v-72z" />
    <glyph glyph-name="afii10024" unicode="&#x416;" 
d="M194 315q13 16 28 23.5t46 11.5q-20 24 -28 49.5t-14 66.5q-4 36 -9.5 59.5t-16.5 37.5t-28.5 19.5t-44.5 7.5v76q46 -2 77.5 -11.5t52 -30t31.5 -52.5t17 -79q7 -62 20.5 -89.5t39.5 -38.5q8 -3 20.5 -4t36.5 -2v307h75v-307q46 1 70 15t35.5 35.5t14 48.5t5.5 55
q2 27 8.5 53t25.5 47t54 35.5t94 17.5v-76q-31 -2 -50.5 -9t-31.5 -18.5t-18 -26t-9 -32.5q-3 -17 -5 -36t-6.5 -38.5t-12.5 -38.5t-23 -37q24 -5 40.5 -10.5t28.5 -13t21 -18t17 -24.5q15 -28 22.5 -74.5t9.5 -118.5q1 -26 2.5 -46.5t4.5 -37.5t8 -33t13 -34h-84
q-8 26 -12 62.5t-8 101.5q-2 27 -3 43.5t-3 28.5t-4.5 21.5t-5.5 20.5q-9 32 -33 47t-67 15h-98v-340h-75v340h-111q-24 0 -41.5 -7.5t-29 -27t-18 -53t-9.5 -86.5q-2 -38 -3.5 -64t-3.5 -44.5t-5 -32t-7 -25.5h-88q10 18 15.5 33t9.5 33.5t6 44t4 65.5q5 73 17 121t36 74z
" />
    <glyph glyph-name="afii10025" unicode="&#x417;" 
d="M700 482q0 -53 -20 -90.5t-69 -69.5q57 -27 84 -70t27 -100q0 -105 -64.5 -159t-184.5 -54q-79 0 -136 24t-92 75q-11 16 -19 31t-13 33t-8 40.5t-5 51.5h69q5 -29 9.5 -48t9.5 -33t12 -24.5t16 -20.5q26 -26 66.5 -41t92.5 -15q82 0 124 33.5t42 96.5q0 62 -42.5 95.5
t-126.5 33.5h-53v80h53q63 0 101 36t38 96q0 53 -38.5 82.5t-116.5 29.5q-79 0 -129 -40.5t-81 -131.5h-52v137l33 -12q44 63 100 91t132 28q53 0 97.5 -13t76.5 -37.5t49.5 -58.5t17.5 -76z" />
    <glyph glyph-name="afii10026" unicode="&#x418;" 
d="M641 543l-366 -607h-83v736h78v-592l360 592h91v-736h-80v607z" />
    <glyph glyph-name="afii10027" unicode="&#x419;" 
d="M642 424l-375 -487h-74v611h78v-488l368 488h83v-611h-80v487zM454 559q-31 0 -59.5 15.5t-48.5 44.5q-12 18 -20 39t-18 63h78q13 -39 30 -55.5t43 -16.5q24 0 41.5 16t31.5 56h78q-6 -23 -11.5 -38.5t-11 -27.5t-11 -21t-12.5 -18q-21 -27 -49.5 -42t-60.5 -15z" />
    <glyph glyph-name="afii10028" unicode="&#x41a;" 
d="M378 366q37 0 59 7.5t35 22.5t19.5 38t12.5 55q6 29 10 41.5t4 16.5q4 6 6 11q11 39 29.5 61t43 33t54.5 15t64 6l1 -83h-17q-26 0 -44.5 -4t-31 -14.5t-20.5 -27.5t-14 -44q-9 -40 -16.5 -66.5t-15 -45.5t-16 -32t-20.5 -25l239 -394h-86l-213 356q-19 -7 -35 -9.5
t-39 -2.5h-91v-344h-79v735h79v-306h82z" />
    <glyph glyph-name="afii10029" unicode="&#x41b;" 
d="M591 -57v651h-249q-2 -92 -6 -181q-2 -47 -4 -85.5t-4.5 -72t-5.5 -63t-7 -58.5q-8 -54 -19 -91t-30 -61t-47.5 -37.5t-71.5 -19.5l-21 82q46 6 64 17t27 32q8 20 13.5 44.5t10.5 66.5q3 27 6.5 66t6.5 85.5t5.5 98.5t4.5 105l2 72h-71v77h546v-77h-73v-651h-77z" />
    <glyph glyph-name="afii10030" unicode="&#x41c;" 
d="M614 671h99l111 -733h-78l-92 579l-160 -579h-77l-152 575l-91 -575h-76l110 733h97l150 -583z" />
    <glyph glyph-name="afii10031" unicode="&#x41d;" 
d="M646 373v308h88v-753h-88v366h-380v-366h-88v753h88v-308h380z" />
    <glyph glyph-name="afii10032" unicode="&#x41e;" 
d="M181 302q0 88 18 157t52.5 116.5t85.5 72.5t118 25q68 0 121 -25.5t89.5 -73.5t55.5 -117t19 -155t-19.5 -154t-56.5 -116t-89.5 -73.5t-119.5 -25.5q-64 0 -115 25.5t-86 73.5t-54 116.5t-19 153.5zM657 303q0 139 -51.5 214t-145.5 75t-146 -76.5t-52 -213.5
q0 -66 13.5 -119t39 -90t62.5 -57t83 -20q93 0 145 75t52 212z" />
    <glyph glyph-name="afii10033" unicode="&#x41f;" 
d="M671 591v-653h-77v653h-271v-653h-76v653h-84v80h588v-80h-80z" />
    <glyph glyph-name="afii10034" unicode="&#x420;" 
d="M219 671l294 -1q109 0 167.5 -53t58.5 -158q0 -104 -57 -156t-169 -52l-211 -1v-312h-83v733zM302 589v-256h211q142 0 142 124q0 132 -140 132h-213z" />
    <glyph glyph-name="afii10035" unicode="&#x421;" 
d="M460 600q-50 0 -91 -19.5t-69.5 -56.5t-44 -90.5t-15.5 -120.5q0 -77 20 -142t54 -102q46 -59 138 -59q48 0 89 20t67 55q16 22 26.5 50t18.5 82h85q-6 -38 -12 -66t-14 -51t-18.5 -41.5t-24.5 -36.5q-38 -45 -96 -71t-122 -26q-68 0 -123 27.5t-93 78t-58.5 121
t-20.5 157.5q0 84 21.5 152.5t61 118t95.5 76.5t125 27q77 0 142 -35.5t100 -97.5q8 -14 14 -27.5t10.5 -29.5t7 -36t4.5 -48h-85q-3 20 -5.5 34.5t-5.5 25.5t-6 19.5t-7 16.5q-23 44 -67.5 69.5t-100.5 25.5z" />
    <glyph glyph-name="afii10036" unicode="&#x422;" 
d="M191 671h530v-79h-224v-654h-82v654h-224v79z" />
    <glyph glyph-name="afii10037" unicode="&#x423;" 
d="M731 680l-251 -634q-9 -24 -18 -47.5t-23 -41.5t-34.5 -29.5t-53.5 -11.5q-14 0 -31 2t-46 10v92q31 -9 44.5 -11.5t25.5 -2.5q18 0 28 8t21 36l47 112l-262 518h91l210 -427l168 427h84z" />
    <glyph glyph-name="afii10038" unicode="&#x424;" 
d="M120 299q0 75 30 142t84 106q37 29 79 43.5t107 20.5v66h73v-65q36 -3 64.5 -7.5t51.5 -13t42.5 -20.5t39.5 -28q50 -39 75.5 -102t25.5 -138t-26.5 -137.5t-75.5 -100.5q-20 -16 -40 -27.5t-43 -19t-51 -11.5t-63 -5v-71h-73v71q-35 2 -62 6t-49.5 11.5t-42.5 19
t-40 28.5q-52 40 -79 100t-27 132zM494 74q105 11 164 69.5t59 163.5q0 106 -54 165t-169 65v-463zM198 307q0 -57 21 -103.5t59 -74.5q28 -21 59 -35t84 -20v460q-56 -3 -88 -16.5t-61 -36.5q-35 -29 -54.5 -73.5t-19.5 -100.5z" />
    <glyph glyph-name="afii10039" unicode="&#x425;" 
d="M142 -67l264 380l-249 363h100l198 -289l197 289h103l-250 -362l265 -381h-103l-212 309l-214 -309h-99z" />
    <glyph glyph-name="afii10040" unicode="&#x426;" 
d="M300 675v-663h281v663h77v-675l84 -89l-65 -57l-74 78h-455v80h73v663h79z" />
    <glyph glyph-name="afii10041" unicode="&#x427;" 
d="M305 310q14 -20 45 -33t74 -13q88 0 130 42.5t42 133.5v236h81v-744h-81v315q-66 -67 -173 -67q-68 0 -115.5 20.5t-73.5 62.5q-8 15 -13.5 30.5t-9 35t-5 45t-1.5 60.5v242h81v-254q0 -79 19 -112z" />
    <glyph glyph-name="afii10042" unicode="&#x428;" 
d="M260 676v-665h157v665h81v-665h153v665h80v-665h64v-78h-681v78h68v665h78z" />
    <glyph glyph-name="afii10043" unicode="&#x429;" 
d="M244 10h175v665h81v-665h170v665h80v-699l45 -74l-63 -49l-51 79h-573v78h57v665h79v-665z" />
    <glyph glyph-name="afii10044" unicode="&#x42a;" 
d="M326 295v-282h203q76 0 111 32.5t35 99.5q0 73 -34 111.5t-100 38.5h-215zM326 369h214q212 0 212 -217q0 -109 -50 -161.5t-156 -52.5h-297v658h-127v75h204v-302z" />
    <glyph glyph-name="afii10045" unicode="&#x42b;" 
d="M165 -68v744h80v-305h140q102 0 158 -58t56 -164t-55 -161t-159 -55zM245 293v-282h121q76 0 113.5 36.5t37.5 105.5q0 67 -38 103.5t-114 36.5h-120zM672 676h81v-744h-81v744z" />
    <glyph glyph-name="afii10046" unicode="&#x42c;" 
d="M729 156q0 -61 -17.5 -108.5t-49.5 -75.5q-27 -21 -61.5 -29.5t-86.5 -8.5h-295v744h80v-305h215q215 0 215 -217zM611 43q17 17 26.5 45.5t9.5 69.5q0 69 -31 103.5t-98 34.5h-219v-283h219q36 0 56.5 8t36.5 22z" />
    <glyph glyph-name="afii10047" unicode="&#x42d;" 
d="M446 13q32 0 61.5 8.5t54 24t43 37t28.5 48.5q10 25 15.5 51.5t10.5 75.5q-23 -17 -37.5 -24.5t-28.5 -7.5q-24 0 -46.5 11t-43.5 23.5t-40.5 23.5t-37.5 11q-14 0 -33.5 -13t-58.5 -52l-32 74q44 37 71 52t53 15q25 0 48.5 -9.5t45 -21t40.5 -21t35 -9.5q10 0 25 7
t42 24q-6 122 -59 187t-147 65q-95 0 -145 -61q-9 -11 -16.5 -22.5t-13.5 -26.5t-11.5 -34t-11.5 -45h-75q4 33 9.5 58.5t13 46t18 38t25.5 34.5q38 45 91.5 68.5t115.5 23.5q40 0 77.5 -10.5t69.5 -30t57 -48t40 -64.5q18 -44 27.5 -96t9.5 -102q0 -103 -20.5 -178
t-64.5 -124q-38 -42 -92 -64.5t-117 -22.5t-113.5 21.5t-84.5 64.5q-12 15 -21 30.5t-16.5 35t-13.5 44t-11 57.5h75q4 -19 7 -32t7 -23.5t8 -18.5t9 -17q24 -40 64.5 -61t93.5 -21z" />
    <glyph glyph-name="afii10048" unicode="&#x42e;" 
d="M723 101q10 17 18.5 41t14.5 51t9.5 56t3.5 56q0 148 -53 223.5t-149 75.5q-40 0 -75 -21.5t-61 -60.5t-41 -93t-15 -119q0 -68 14.5 -123.5t40.5 -95t62.5 -61t80.5 -21.5q46 0 85 23.5t65 68.5zM184 371h112q3 22 5.5 39t5.5 31.5t7 28t9 27.5q35 88 101 138t150 50
q61 0 111 -27t85 -76t54 -118t19 -152q0 -86 -18.5 -157t-52.5 -121t-83.5 -77.5t-110.5 -27.5q-81 0 -145.5 49t-102.5 140q-8 20 -14 38.5t-9.5 38.5t-6 43t-4.5 52h-112v-349h-77v733h77v-303z" />
    <glyph glyph-name="afii10049" unicode="&#x42f;" 
d="M269 305q-42 24 -62.5 66.5t-20.5 102.5q0 94 46.5 145.5t135.5 51.5h328v-734h-75v333h-214q-37 0 -60.5 -7t-37.5 -27.5t-20.5 -57.5t-8.5 -96q-1 -30 -1.5 -50.5t-2.5 -36.5t-6 -29t-10 -29h-89q9 19 14.5 35t9 32.5t5 34.5t1.5 41q1 48 4 83.5t10.5 61.5t20.5 45.5
t33 34.5zM621 348v247h-243q-56 0 -84.5 -30.5t-28.5 -87.5q0 -60 30.5 -94.5t82.5 -34.5h243z" />
    <glyph glyph-name="afii10065" unicode="&#x430;" 
d="M653 56q0 -18 1 -31.5t4.5 -25.5t10.5 -24.5t18 -27.5l-85 -5q-7 12 -9.5 17t-3.5 9q-2 5 -3.5 15.5t-2.5 22.5q-46 -41 -91.5 -57t-103.5 -16q-82 0 -129.5 40.5t-47.5 115.5q0 51 19 83t51 51t73.5 28t85.5 14q21 2 34.5 4t24 3.5t19 4t17.5 6.5q32 15 32 41
q0 32 -30 53.5t-85 21.5q-134 0 -146 -107h-81q4 49 18 80t46 55q29 23 71.5 35.5t87.5 12.5q205 0 205 -159v-260zM308 152q-11 -13 -15 -25.5t-4 -29.5q0 -38 27 -60t78 -22q88 0 134.5 38.5t46.5 112.5v59q-27 -16 -65 -21.5t-76 -9.5t-72.5 -12t-53.5 -30z" />
    <glyph glyph-name="afii10066" unicode="&#x431;" 
d="M331 372q50 69 133 69q46 0 82 -17.5t61 -49.5t38 -77.5t13 -100.5q0 -58 -13.5 -105.5t-39 -81t-62.5 -52t-83 -18.5q-50 0 -93 26.5t-69 75.5q-11 19 -20.5 47t-16.5 61t-10.5 69t-3.5 71q0 85 12.5 155t36.5 120.5t58.5 78.5t79.5 28q20 0 30 -5t24 -13q14 -11 34 -16
t31 -5q19 0 37 4.5t51 21.5v-80q-26 -16 -42 -21.5t-34 -5.5q-9 0 -23 1t-31 4q-14 2 -25.5 7.5t-20.5 10.5q-4 2 -12 6.5t-11 4.5q-24 0 -43 -11t-33 -36t-23 -65.5t-12 -100.5zM586 190q0 82 -34 129t-88 47q-27 0 -50 -12.5t-40.5 -35.5t-27 -55.5t-9.5 -72.5
q0 -38 10 -69.5t26.5 -54t39 -35t47.5 -12.5q26 0 49 12.5t40 35t27 54t10 69.5z" />
    <glyph glyph-name="afii10067" unicode="&#x432;" 
d="M315 396v-152h173q22 0 41.5 7t34 18.5t22.5 26t8 30.5q0 30 -26.5 50t-79.5 20h-173zM620 91q0 39 -40 57q-19 10 -43 16.5t-47 6.5h-175v-163h176q22 0 42.5 6t39.5 13q24 8 35.5 25t11.5 39zM674 335q0 -38 -18 -68.5t-55 -49.5q54 -21 76 -51.5t22 -75.5
q0 -89 -61 -126q-14 -9 -27.5 -14.5t-30 -8.5t-37.5 -4.5t-48 -1.5l-258 -1v537h256q52 0 85 -9t57 -31q18 -17 28.5 -42t10.5 -54z" />
    <glyph glyph-name="afii10068" unicode="&#x433;" 
d="M593 393h-235v-456h-87v539h367l52 -90l-63 -48z" />
    <glyph glyph-name="afii10069" unicode="&#x434;" 
d="M698 -88l-59 -55l-64 82h-280q-12 -15 -21.5 -25.5t-19.5 -19.5t-22 -17.5t-28 -18.5l-48 63q39 27 64.5 57.5t40.5 72t21 98.5t6 138v104h-36v77h425l1 -77h-38v-401zM368 281q0 -23 -1 -48.5t-3.5 -50t-5.5 -46.5t-6 -38q-4 -21 -8.5 -41t-12.5 -43h235v377h-198v-110z
" />
    <glyph glyph-name="afii10070" unicode="&#x435;" 
d="M689 113q-8 -28 -15.5 -49t-17.5 -37.5t-21.5 -29t-26.5 -24.5q-27 -24 -66.5 -36.5t-82.5 -12.5q-57 0 -103 20.5t-78.5 57t-50 88.5t-17.5 115q0 64 18 116.5t50.5 90t79 58t103.5 20.5q35 0 68 -10.5t60.5 -29.5t47.5 -45.5t31 -57.5q6 -15 9.5 -30.5t6 -33.5
t3.5 -40.5t2 -52.5h-396q2 -38 6.5 -59.5t13.5 -42.5q19 -40 57 -62.5t90 -22.5q58 0 91 25.5t51 84.5h87zM609 261q-12 75 -49.5 112t-106.5 37q-64 0 -103.5 -38t-53.5 -110z" />
    <glyph glyph-name="afii10072" unicode="&#x436;" 
d="M740 405q-24 -2 -37.5 -9t-21.5 -18t-12 -26t-10 -33q-6 -23 -9 -38t-7 -24q-4 -11 -14 -23q22 -12 38 -26t25.5 -32t14.5 -42t6 -56q0 -22 2 -39t5 -33t8 -32t12 -37h-86q-9 33 -14 58.5t-7 50.5q-1 21 -3 44t-10 42t-25 31t-48 12h-52v-238h-75v238h-61
q-24 0 -43 -12.5t-24 -32.5q-5 -14 -7 -32.5t-4 -53.5q0 -19 -1 -33t-2.5 -26t-4.5 -23t-7 -25h-83q7 18 11 31.5t6.5 25.5t3.5 24t1 27q1 30 3 51t4.5 36t6 26t8.5 21q15 38 67 57q-13 16 -19 32t-10 31.5t-7.5 31.5t-10.5 33q-8 16 -23 27.5t-48 13.5v76q46 -3 74.5 -14.5
t45.5 -28.5t24.5 -37.5t11.5 -41.5q4 -20 7 -39t11.5 -34t24.5 -24.5t45 -10.5v230h75v-230q32 1 49 11.5t25.5 26.5t11.5 36.5t8 41.5q3 19 10.5 38.5t23.5 35.5t44 26.5t73 13.5v-76z" />
    <glyph glyph-name="afii10073" unicode="&#x437;" 
d="M673 337q0 -38 -16 -64.5t-56 -50.5q54 -20 77 -50t23 -80q0 -38 -17.5 -67.5t-49 -50.5t-75.5 -32t-96 -11q-65 0 -115.5 19t-82.5 56q-20 22 -30 47t-14 72l79 1q3 -18 6.5 -30t8 -21t10.5 -15.5t14 -12.5q40 -31 124 -31q80 0 119.5 21.5t39.5 55.5q0 33 -37.5 55.5
t-109.5 22.5h-65v80h65q53 0 85.5 24.5t32.5 59.5q0 32 -35 53.5t-104 21.5q-71 0 -112 -24t-66 -83h-50v114l37 -12q35 45 81.5 64.5t115.5 19.5q46 0 85.5 -10.5t67.5 -30.5t44 -48t16 -63z" />
    <glyph glyph-name="afii10074" unicode="&#x438;" 
d="M686 470v-535h-75v393l-302 -393h-73v535h77v-408l309 408h64z" />
    <glyph glyph-name="afii10075" unicode="&#x439;" 
d="M379 639q11 -43 31 -61.5t50 -18.5q29 0 50 19t33 61h74q-17 -85 -56.5 -121.5t-100.5 -36.5q-38 0 -72 16t-56 54q-5 8 -9 15.5t-7 17.5t-6 23t-7 32h76zM684 469v-535h-76v393l-302 -393h-73v535h77v-409l310 409h64z" />
    <glyph glyph-name="afii10076" unicode="&#x43a;" 
d="M430 251q27 1 44 17.5t31 59.5q4 14 10 38t13 41q8 21 18.5 34t27.5 21.5t43 12.5t65 6v-84q-29 -1 -42.5 -3.5t-23.5 -9.5q-9 -4 -16 -20t-17 -58q-5 -18 -9.5 -30.5t-9.5 -22t-11.5 -17.5t-16.5 -18l163 -281h-88l-112 196q-12 20 -24.5 28t-29.5 8h-112v-232h-76v533
h76v-220z" />
    <glyph glyph-name="afii10077" unicode="&#x43b;" 
d="M630 -56h-78v463h-189q0 -35 -0.5 -60t-1.5 -44.5t-2 -35.5t-3 -34q-6 -57 -16.5 -102t-28.5 -81t-44.5 -65t-64.5 -56l-46 71q25 17 43 34t31.5 37t22.5 43.5t16 54.5q12 57 13.5 118t3.5 120h-77v73h493v-73h-72v-463z" />
    <glyph glyph-name="afii10078" unicode="&#x43c;" 
d="M157 -65l42 536h89l168 -416l167 416h95l40 -536h-78l-31 389l-162 -389h-59l-161 391l-33 -391h-77z" />
    <glyph glyph-name="afii10079" unicode="&#x43d;" 
d="M605 470h77v-535h-77v238h-298v-238h-76v535h76v-217h298v217z" />
    <glyph glyph-name="afii10080" unicode="&#x43e;" 
d="M208 208q0 59 18.5 109t51.5 86.5t79 57t102 20.5t102 -20t79 -56t51 -86.5t18 -110.5t-18 -110.5t-51 -86.5t-79 -56t-102 -20t-102 20.5t-79 57t-51.5 86.5t-18.5 109zM627 208q0 42 -13 77.5t-35.5 61t-53.5 40t-68 14.5t-67.5 -13.5t-52.5 -38.5t-34 -60t-12 -77
q0 -43 12.5 -79t34.5 -62.5t52.5 -41t66.5 -14.5q37 0 68 14.5t53.5 40.5t35.5 61t13 77z" />
    <glyph glyph-name="afii10081" unicode="&#x43f;" 
d="M635 -62h-77v454h-200v-454h-77v454h-65v81h483v-81h-64v-454z" />
    <glyph glyph-name="afii10082" unicode="&#x440;" 
d="M307 406q39 43 75 60.5t81 17.5q52 0 94 -19t72 -54t46 -84t16 -108q0 -60 -16 -110t-45.5 -85.5t-71 -55t-92.5 -19.5q-47 0 -85.5 18t-73.5 63v-211h-77v654h77v-67zM611 216q0 89 -40.5 137.5t-109.5 48.5t-110.5 -48.5t-41.5 -133.5q0 -91 41 -140t111 -49
q69 0 109.5 48.5t40.5 136.5z" />
    <glyph glyph-name="afii10083" unicode="&#x441;" 
d="M295 205q0 -91 44.5 -138.5t122.5 -47.5q62 0 94.5 27t46.5 95h83q-11 -61 -28.5 -95t-48.5 -59q-28 -24 -68 -37t-87 -13q-54 0 -98.5 19.5t-76 55t-48.5 84.5t-17 109t18.5 110.5t52 87t80.5 57t103 20.5q45 0 83 -13.5t66 -38.5t45 -60.5t19 -79.5h-78q-10 54 -47 82
t-94 28q-38 0 -68.5 -13.5t-52.5 -39t-34 -61t-12 -79.5z" />
    <glyph glyph-name="afii10084" unicode="&#x442;" 
d="M230 472h454v-82h-187v-453h-83v453h-184v82z" />
    <glyph glyph-name="afii10085" unicode="&#x443;" 
d="M701 464l-209 -492q-18 -44 -32 -71.5t-28.5 -42.5t-32 -20.5t-43.5 -5.5q-17 0 -32 1.5t-46 8.5v94q32 -8 45.5 -10.5t24.5 -2.5q10 0 17 1.5t13.5 9t14.5 24t21 46.5l-198 460h90l156 -356l145 356h94z" />
    <glyph glyph-name="afii10086" unicode="&#x444;" 
d="M172 212q0 -94 41 -147.5t107 -53.5q24 0 45 6t53 23v340q-34 16 -55.5 22t-42.5 6q-32 0 -59 -14t-46.5 -40t-31 -62t-11.5 -80zM746 204q0 63 -13 103t-41 65q-21 18 -45.5 27t-47.5 9q-27 0 -48.5 -5t-55.5 -21v-341q26 -17 46 -23.5t42 -6.5q36 0 66 13.5t51.5 38.5
t33.5 61t12 80zM98 204q0 60 17.5 110.5t49 88t74.5 58.5t94 21q26 0 44 -4.5t41 -16.5v88h76v-89q26 13 47 17.5t48 4.5q52 0 94.5 -19t72.5 -53t46 -81.5t16 -105.5q0 -77 -19 -134.5t-64 -95.5q-30 -29 -70 -44.5t-82 -15.5q-25 0 -44.5 4.5t-44.5 18.5v-90h-76v90
q-23 -14 -42.5 -18.5t-43.5 -4.5q-50 0 -93 21t-74.5 57.5t-49 86t-17.5 106.5z" />
    <glyph glyph-name="afii10087" unicode="&#x445;" 
d="M457 138l-151 -197h-103l204 265l-195 259h96l149 -194l142 194h102l-193 -262l200 -262h-104z" />
    <glyph glyph-name="afii10088" unicode="&#x446;" 
d="M345 463v-444h212v444h79v-476l53 -76l-60 -55l-59 81h-365v82h65v444h75z" />
    <glyph glyph-name="afii10089" unicode="&#x447;" 
d="M575 465h81v-527h-81v212q-31 -24 -65 -35t-78 -11q-105 0 -155.5 50t-50.5 155v156h80v-169q0 -57 27 -83t88 -26q76 0 115 25.5t39 67.5v185z" />
    <glyph glyph-name="afii10090" unicode="&#x448;" 
d="M295 463v-444h121v444h78v-444h120v444h81v-444h55v-81h-591v81h56v444h80z" />
    <glyph glyph-name="afii10091" unicode="&#x449;" 
d="M306 21h121v444h80v-444h122v444h79v-479l45 -84l-60 -45l-52 82h-477v82h66v444h76v-444z" />
    <glyph glyph-name="afii10092" unicode="&#x44a;" 
d="M398 205v-189h137q45 0 70 24t25 67q0 46 -25 72t-67 26h-140zM398 471v-186h138q82 0 129.5 -45t47.5 -129q0 -81 -45.5 -127.5t-121.5 -46.5h-225v458h-145v76h222z" />
    <glyph glyph-name="afii10093" unicode="&#x44b;" 
d="M272 205v-193h128q52 0 78 26t26 69t-26.5 70.5t-77.5 27.5h-128zM272 282l146 1q79 1 125 -46.5t46 -127.5q0 -81 -45.5 -127.5t-126.5 -46.5h-224v539h79v-192zM723 -65h-77v539h77v-539z" />
    <glyph glyph-name="afii10094" unicode="&#x44c;" 
d="M338 207v-193h178q51 0 74.5 23.5t23.5 66.5q0 48 -25 75.5t-73 27.5h-178zM338 284h197q77 0 119 -46.5t42 -129.5q0 -81 -42 -126t-120 -45h-273v535h77v-188z" />
    <glyph glyph-name="afii10095" unicode="&#x44d;" 
d="M618 173q-18 -10 -28 -13t-18 -3q-20 0 -38.5 9.5t-36 21.5t-35.5 22.5t-37 11.5q-11 1 -28.5 -12t-45.5 -53l-22 73q24 30 49.5 46.5t49.5 16.5q19 0 39.5 -9t40 -20t37.5 -20t32 -9q7 0 15.5 3t27.5 13q-7 77 -49 118.5t-112 41.5q-51 0 -86.5 -26t-46.5 -76h-78
q18 87 73.5 134t135.5 47q56 0 100.5 -19.5t75 -55t46.5 -86.5t16 -114q0 -64 -15.5 -116t-45 -88.5t-71.5 -56.5t-95 -20q-83 0 -136 41.5t-85 137.5h78q25 -54 57 -77.5t81 -23.5q66 0 105.5 40t49.5 121z" />
    <glyph glyph-name="afii10096" unicode="&#x44e;" 
d="M733 207q0 44 -10 80t-29 61.5t-45 39t-57 13.5q-63 0 -101 -51.5t-38 -144.5q0 -97 37.5 -149t100.5 -52q31 0 57 15t45 41.5t29.5 64t10.5 82.5zM243 252h136q7 52 25.5 94t46.5 72t64 46t78 16q48 0 87.5 -20t67.5 -55.5t43 -85t15 -107.5q0 -64 -15 -117t-43 -91
t-67.5 -59t-88.5 -21q-62 0 -110 34t-77 96q-13 28 -17.5 55t-8.5 69h-136v-242h-77v533h77v-217z" />
    <glyph glyph-name="afii10097" unicode="&#x44f;" 
d="M590 246v146h-216q-34 0 -53 -19.5t-19 -56.5q0 -30 20.5 -50t51.5 -20h216zM208 -61q5 15 9 28.5t6 27t3.5 28.5t2.5 34q1 30 3.5 52.5t9.5 39.5t19 30t31 24q-35 14 -51.5 44.5t-16.5 70.5q0 68 37 110.5t99 42.5h308v-532h-78v228h-183q-32 0 -54.5 -11.5t-30.5 -30.5
q-5 -8 -7.5 -22t-3.5 -24q-2 -23 -3.5 -38.5t-3 -30t-4 -31t-7.5 -40.5h-85z" />
    <glyph glyph-name="afii10071" unicode="&#x451;" 
d="M466 588q0 13 6 25t16 20t21 13t22 5q10 0 20.5 -5t19.5 -13t15 -20t6 -25q0 -14 -6 -25.5t-15 -20t-20 -13.5t-21 -5t-21.5 5t-21 14t-15.5 20.5t-6 24.5zM307 588q0 13 6 25t15 20t20 13t22 5q10 0 21.5 -5t21 -13t15.5 -20t6 -25q0 -14 -6 -25.5t-15.5 -20t-21 -13.5
t-22.5 -5q-10 0 -21 5t-20 14t-15 20.5t-6 24.5zM690 112q-15 -55 -33.5 -86.5t-48.5 -54.5q-27 -23 -66.5 -35.5t-82.5 -12.5q-57 0 -102.5 20.5t-78 57t-50 88t-17.5 114.5q0 64 17.5 117t50.5 90t79 57.5t103 20.5q36 0 69 -10.5t60.5 -29.5t47.5 -44.5t31 -56.5
q6 -16 9.5 -31.5t6 -33.5t3.5 -40.5t2 -53.5h-396q2 -37 6 -59t14 -42q18 -39 56.5 -62t89.5 -23q58 0 91.5 25.5t50.5 84.5h88zM609 259q-11 75 -48.5 109.5t-106.5 34.5q-129 0 -157 -143z" />
    <glyph glyph-name="afii00208" unicode="&#x2015;" 
d="M810 346v-73h-710v73h710z" />
    <glyph glyph-name="quoteleft" unicode="&#x2018;" horiz-adv-x="310" 
d="M118 620q0 30 9 57.5t24.5 50.5t35.5 40t41 28l19 -21q-20 -13 -40.5 -36t-26.5 -46q-9 -34 12 -34q7 0 17 -1.5t17 -5.5q11 -6 21 -19.5t10 -33.5q0 -30 -19.5 -47.5t-45.5 -17.5q-33 0 -53.5 25.5t-20.5 60.5z" />
    <glyph glyph-name="quoteright" unicode="&#x2019;" horiz-adv-x="310" 
d="M191 680q0 -30 -9 -57.5t-24.5 -50.5t-35.5 -40.5t-41 -27.5l-19 21q20 13 40.5 36t26.5 46q9 34 -12 34q-7 0 -17 1.5t-17 5.5q-11 6 -21 19.5t-10 33.5q0 30 19.5 47.5t45.5 17.5q33 0 53.5 -25.5t20.5 -60.5z" />
    <glyph glyph-name="quotedblleft" unicode="&#x201c;" horiz-adv-x="460" 
d="M276 620q0 30 9 57.5t24 50.5t35 40t42 28l20 -21q-21 -13 -41.5 -36t-26.5 -46q-10 -34 12 -34q8 0 17.5 -1.5t16.5 -5.5q12 -6 21.5 -19.5t9.5 -33.5q0 -30 -19.5 -47.5t-45.5 -17.5q-32 0 -53 25.5t-21 60.5zM101 620q0 30 9 57.5t24 50.5t35 40t42 28l19 -21
q-20 -13 -40.5 -36t-26.5 -46q-9 -34 12 -34q8 0 17.5 -1.5t16.5 -5.5q11 -6 21 -19.5t10 -33.5q0 -30 -19.5 -47.5t-45.5 -17.5q-32 0 -53 25.5t-21 60.5z" />
    <glyph glyph-name="quotedblright" unicode="&#x201d;" horiz-adv-x="460" 
d="M185 680q0 -30 -9 -57.5t-24.5 -50.5t-35.5 -40.5t-41 -27.5l-20 21q21 13 41 36t26 46q10 34 -12 34q-7 0 -16.5 1.5t-16.5 5.5q-12 6 -22 19.5t-10 33.5q0 30 20 47.5t45 17.5q32 0 53.5 -25.5t21.5 -60.5zM360 680q0 -30 -9 -57.5t-24.5 -50.5t-35.5 -40.5t-42 -27.5
l-19 21q21 13 41.5 36t26.5 46q9 34 -12 34q-8 0 -17.5 1.5t-17.5 5.5q-11 6 -21 19.5t-10 33.5q0 30 20 47.5t46 17.5q32 0 53 -25.5t21 -60.5z" />
    <glyph glyph-name="dagger" unicode="&#x2020;" 
d="M718 425h-222v-561h-75v561h-222v67h222v241h75v-241h222v-67z" />
    <glyph glyph-name="daggerdbl" unicode="&#x2021;" 
d="M722 541h-227v-97h209v-67h-209v-510h-74v510h-205v67h205v97h-224v66h224v129h74v-129h227v-66z" />
    <glyph glyph-name="twodotenleader" unicode="&#x2025;" 
d="M752 323q0 -30 -20 -49.5t-52 -19.5q-30 0 -49 20t-19 49q0 31 19.5 50t52.5 19q29 0 48.5 -20t19.5 -49zM303 323q0 -30 -19.5 -49.5t-52.5 -19.5q-29 0 -48.5 20t-19.5 49q0 31 20 50t52 19q30 0 49 -20t19 -49z" />
    <glyph glyph-name="ellipsis" unicode="&#x2026;" 
d="M524 323q0 -30 -20.5 -49.5t-52.5 -19.5q-29 0 -48.5 20t-19.5 49q0 31 20 50t53 19q29 0 48.5 -20t19.5 -49zM230 323q0 -30 -19.5 -49.5t-52.5 -19.5q-29 0 -48.5 20t-19.5 49q0 31 20.5 50t52.5 19q29 0 48 -20t19 -49zM821 323q0 -30 -20.5 -49.5t-52.5 -19.5
q-29 0 -48 20t-19 49q0 31 19.5 50t52.5 19q29 0 48.5 -20t19.5 -49z" />
    <glyph glyph-name="perthousand" unicode="&#x2030;" 
d="M642 172q22 30 50.5 51.5t58 32.5t58 10t52.5 -17q23 -16 34 -41.5t10.5 -56.5t-11.5 -64t-33 -63q-22 -31 -50.5 -52.5t-58.5 -32.5t-59 -9.5t-53 17.5q-22 16 -33 41.5t-10.5 56.5t12 64t33.5 63zM97 560q22 30 50 52t57.5 32.5t58 9t51.5 -16.5q23 -16 34 -41.5
t11 -56.5t-11.5 -64t-33.5 -64q-21 -30 -49.5 -51.5t-58 -32t-58.5 -9t-52 16.5q-23 16 -34 41.5t-10.5 56.5t12 64t33.5 63zM655 673l-575 -748h-66l578 748h63zM328 173q22 30 50.5 51.5t57.5 32t57.5 9.5t52.5 -17q23 -16 34 -41.5t11 -56.5t-11.5 -64t-33.5 -63
q-21 -30 -49.5 -51.5t-58 -32.5t-58.5 -9.5t-52 16.5q-23 16 -34 42t-11 56.5t11.5 64t33.5 63.5zM810 58q34 48 38.5 90t-20.5 58q-11 8 -27 7t-34.5 -9.5t-37.5 -25t-37 -40.5q-17 -24 -27 -47.5t-12.5 -43.5t2.5 -35.5t17 -23.5t28.5 -7.5t35 9.5t37.5 26t37 42zM265 447
q33 48 37 89t-19 58q-12 8 -28 7t-34.5 -9.5t-37.5 -25t-37 -40.5q-17 -24 -26.5 -47t-11.5 -43t3 -35.5t17 -23.5q11 -8 27 -7.5t34.5 9.5t38 26t37.5 42zM497 59q32 48 36.5 89.5t-19.5 58.5q-12 8 -28 7t-34.5 -9.5t-37.5 -25t-36 -40.5t-26.5 -47.5t-12 -43.5t3 -35.5
t17.5 -23.5q23 -16 62 2t75 68z" />
    <glyph glyph-name="minute" unicode="&#x2032;" 
d="M274 765q23 -14 19 -36.5t-22 -49.5t-44 -57t-47 -57q-5 -7 -12 -8.5t-12 1.5t-7.5 9t1.5 15l64 157q7 17 25.5 26t34.5 0z" />
    <glyph glyph-name="second" unicode="&#x2033;" 
d="M250 542q-6 -7 -12.5 -8.5t-11.5 1.5t-7.5 9t0.5 14l70 166q8 18 27.5 26.5t34.5 -1.5q19 -11 22.5 -31.5t-8.5 -34.5zM114 561q-5 -7 -12 -8.5t-12.5 1.5t-8 9t0.5 14l69 166q8 18 27.5 27t36.5 -2q18 -10 20 -30.5t-11 -35.5z" />
    <glyph glyph-name="uni203B" unicode="&#x203b;" 
d="M709 319q0 26 18 44t45 18q28 0 46.5 -17t18.5 -44t-18 -44t-47 -17q-26 0 -44.5 17t-18.5 43zM77 319q0 26 18 44t47 18q26 0 44.5 -17t18.5 -44t-18 -44t-45 -17q-28 0 -46.5 17t-18.5 43zM393 627q0 26 17.5 44.5t46.5 18.5q26 0 45 -18.5t19 -44.5t-17.5 -44
t-46.5 -18q-26 0 -45 18t-19 44zM393 13q0 25 17.5 43t46.5 18q26 0 45 -17.5t19 -42.5q0 -28 -17.5 -46t-46.5 -18q-26 0 -45 18t-19 45zM825 637l-324 -317l324 -317l-42 -41l-326 315l-326 -315l-42 41l324 317l-324 317l42 41l326 -315l326 315z" />
    <glyph glyph-name="uni2074" unicode="&#x2074;" horiz-adv-x="450" 
d="M330 525h-42v-70h-46v70h-162v36l141 235h67v-232h42v-39zM242 564v190l-108 -190h108z" />
    <glyph glyph-name="uni207F" unicode="&#x207f;" horiz-adv-x="450" 
d="M138 794v-35q24 24 52 35t60 11q29 0 49.5 -11.5t34 -29t20 -38.5t6.5 -39v-224h-52v198q0 20 -2.5 37t-10 29.5t-22 19.5t-39.5 7q-14 0 -30 -8t-30 -21.5t-23.5 -31t-9.5 -36.5v-194h-56v331h53z" />
    <glyph glyph-name="uni2081" unicode="&#x2081;" horiz-adv-x="450" 
d="M286 -87h-48v275l-74 -59v60l82 58h40v-334z" />
    <glyph glyph-name="uni2082" unicode="&#x2082;" horiz-adv-x="450" 
d="M331 -74h-212v53l61 52q11 10 27 25.5t31 34.5t25.5 40t10.5 41t-17 34t-44 14q-22 0 -44 -9.5t-36 -17.5l-6 46q20 8 43 15.5t46 7.5q48 0 79.5 -24t31.5 -69q0 -21 -11.5 -44.5t-28 -45t-34.5 -40t-32 -30.5l-47 -41h157v-42z" />
    <glyph glyph-name="uni2083" unicode="&#x2083;" horiz-adv-x="450" 
d="M331 13q0 -27 -12 -45.5t-31.5 -30t-44.5 -16t-50 -4.5q-20 0 -39.5 4t-35.5 10l5 49q12 -7 32.5 -14t41.5 -7q12 0 26.5 3t27 10t21 17t8.5 25q0 18 -7.5 30.5t-20 20.5t-27.5 11.5t-30 3.5h-32v42h30q10 0 23 2.5t24.5 8.5t19.5 16t8 25q0 26 -18.5 36.5t-43.5 10.5
q-23 0 -40 -5.5t-33 -14.5l-2 48q17 6 37.5 10t40.5 4q51 0 81 -22.5t30 -69.5q0 -26 -14.5 -44.5t-38.5 -27.5q28 -10 46 -32t18 -54z" />
    <glyph glyph-name="uni2084" unicode="&#x2084;" horiz-adv-x="450" 
d="M330 -5h-42v-70h-46v70h-162v36l141 235h67v-232h42v-39zM242 34v190l-108 -190h108z" />
    <glyph glyph-name="uni20A9" unicode="&#x20a9;" 
d="M816 406l-108 -425h-111l-91 425h-99l-90 -425h-121l-104 425h-90v66h74l-56 227h97l49 -227h177l50 227h126l50 -227h177l49 227h96l-58 -227h75v-66h-92zM181 406l71 -341h3l74 341h-148zM583 406l76 -341h2l71 341h-149zM492 472l-34 160h-2l-35 -160h71z" />
    <glyph glyph-name="uni2103" unicode="&#x2103;" 
d="M249 253q0 79 21 145.5t59.5 114.5t93.5 74.5t123 26.5q64 0 113 -23t83.5 -56.5t54 -71.5t25.5 -68h-83q-7 24 -21 50t-37.5 47.5t-56.5 35.5t-78 14q-48 0 -87.5 -21t-67.5 -59.5t-43.5 -91.5t-15.5 -117q0 -65 15.5 -118.5t43.5 -92t67.5 -59.5t87.5 -21q43 0 76 14.5
t57 37t39 50t22 54.5h82q-8 -34 -27.5 -74t-53.5 -74t-82.5 -57t-112.5 -23q-68 0 -123 26.5t-93.5 74.5t-59.5 114.5t-21 147.5zM158 730q24 0 45.5 -9t38 -25t26 -36.5t9.5 -44.5t-9.5 -44.5t-26 -36.5t-38 -25t-45.5 -9q-25 0 -46.5 9t-38 25t-26 36.5t-9.5 44.5
t9.5 44.5t26 36.5t38 25t46.5 9zM158 550q29 0 48 18t19 47t-19 47t-48 18t-48.5 -18t-19.5 -47t19.5 -47t48.5 -18z" />
    <glyph glyph-name="uni2109" unicode="&#x2109;" 
d="M785 533h-372v-240h328v-69h-328v-306h-73v682h445v-67zM165 730q24 0 45.5 -9t37.5 -25t25.5 -36.5t9.5 -44.5t-9.5 -44.5t-25.5 -36.5t-37.5 -25t-45.5 -9t-46 9t-38 25t-25.5 36.5t-9.5 44.5t9.5 44.5t25.5 36.5t38 25t46 9zM165 551q28 0 46.5 18.5t18.5 45.5
t-18.5 45.5t-46.5 18.5q-29 0 -47.5 -18.5t-18.5 -45.5t18.5 -45.5t47.5 -18.5z" />
    <glyph glyph-name="afii61289" unicode="&#x2113;" 
d="M646 7q-23 -46 -50 -70t-62 -34t-77 9t-76 68q-9 -5 -21.5 -10t-27 -9t-28.5 -7t-25 -4l-28 74q18 2 43 6t49 15q-31 69 -40 147t-7 163q2 73 17 135.5t39 109.5t56.5 74.5t69.5 29.5q40 2 67.5 -24.5t42.5 -75t18 -115t-7 -144.5q-9 -63 -24.5 -115t-35 -93t-41.5 -71
t-44 -51q20 -29 40 -35t37 3q17 8 31 24.5t27 46.5zM476 626q-20 -1 -37.5 -26t-31 -64t-21.5 -87t-9 -95q-2 -39 0 -79.5t7 -77t12.5 -67t16.5 -48.5q44 44 72 112.5t36 156.5q5 46 7 95t-2.5 89.5t-16 66t-33.5 24.5z" />
    <glyph glyph-name="afii61352" unicode="&#x2116;" 
d="M858 49q21 0 37 -16.5t16 -37.5q0 -22 -16 -37.5t-37 -15.5q-20 0 -35.5 15.5t-15.5 37.5q0 21 15.5 37.5t35.5 16.5zM638 429q44 0 78 -19t56.5 -52t34 -76.5t11.5 -92.5t-11.5 -92.5t-34 -76t-56.5 -51.5t-78 -19t-77.5 19t-56 51.5t-34 76t-11.5 92.5t11.5 92.5
t34 76.5t56 52t77.5 19zM421 -42h-71l-258 573v-573h-62v690h73l258 -572v572h60v-690zM638 10q28 0 50.5 13.5t38 37.5t24 57t8.5 71t-8.5 71t-24 57t-38 38t-50.5 14t-50 -14t-37.5 -38t-24 -57t-8.5 -71t8 -71t23.5 -57t38 -37.5t50.5 -13.5z" />
    <glyph glyph-name="uni2121" unicode="&#x2121;" 
d="M866 -40h-66v629h66v-629zM409 150q1 -34 13.5 -61t31.5 -46t41.5 -29.5t44.5 -10.5q50 0 77.5 22t38.5 54h70q-8 -25 -23 -48.5t-37.5 -42t-53.5 -30t-72 -11.5q-44 0 -80.5 17.5t-62.5 47.5t-40.5 69.5t-14.5 84.5t14 84.5t40 69t62.5 47t81.5 17.5q40 0 77 -15
t64.5 -45t43.5 -73.5t15 -100.5h-331zM464 532h-185v-573h-67v574q-43 0 -62.5 -0.5t-33.5 -0.5h-31.5h-56.5v56h436v-56zM669 204q-3 28 -14 51t-28.5 39.5t-39.5 25.5t-47 9q-47 0 -83 -33t-44 -92h256z" />
    <glyph glyph-name="trademark" unicode="&#x2122;" 
d="M638 281h-45l-102 267v-267h-55v358h76l101 -262l94 262h86v-358h-56v275zM218 593h-126v46h307v-46h-122v-312h-59v312z" />
    <glyph glyph-name="uni2126" unicode="&#x2126;" 
d="M731 370q0 -56 -14.5 -104.5t-39 -87t-56.5 -66t-68 -41.5v-65h139v-68h-174q-13 0 -20 5.5t-10 13.5t-3.5 17t-0.5 17v87q0 30 9.5 44.5t10.5 15.5q72 17 109.5 75.5t37.5 157.5q0 55 -14.5 99.5t-40.5 75.5t-63.5 47.5t-83.5 16.5q-44 0 -81 -17.5t-63.5 -49t-41 -76.5
t-14.5 -99q0 -91 33 -146t94 -81q20 -1 29.5 -14t12.5 -28.5t2.5 -29t-0.5 -14.5v-14.5v-30t-1 -31t-3 -17.5q-2 -9 -7.5 -16.5t-19.5 -7.5h-171v68h130v62q-39 14 -72 40.5t-57 64t-37.5 86t-13.5 107.5q0 66 20.5 124t58 101.5t89.5 69t113 25.5q62 0 114 -24t89.5 -66.5
t58 -100.5t20.5 -125z" />
    <glyph glyph-name="uni212B" unicode="&#x212b;" 
d="M337 665q0 24 9.5 44.5t25 36.5t37 25t45.5 9t46 -9t38.5 -25t26 -36.5t9.5 -44.5t-9.5 -44.5t-26 -36.5t-38.5 -25t-46 -9t-45.5 9t-37 25t-25 36.5t-9.5 44.5zM746 -95h-77l-66 160h-297l-66 -160h-76l253 619h75zM520 665q0 27 -18.5 45t-47.5 18q-28 0 -46 -18
t-18 -45t18 -45t46 -18q29 0 47.5 18t18.5 45zM577 130l-123 303l-121 -303h244z" />
    <glyph glyph-name="onethird" unicode="&#x2153;" 
d="M276 330h-65v293h-93v52q22 0 42 4.5t34 14.5q11 8 20.5 22t9.5 31h52v-417zM772 56q29 -14 50 -40t21 -59q0 -28 -11.5 -52t-32 -41.5t-49.5 -27.5t-63 -10q-35 0 -64.5 10.5t-51 29t-33.5 44t-11 55.5h66q-2 -33 20.5 -59.5t72.5 -26.5q42 0 65 22t24 56
q2 25 -15.5 43.5t-43.5 24.5q-16 4 -33 3.5t-34 -0.5v51q17 0 35.5 1t31.5 7q46 20 47 64q1 26 -20 45.5t-58 19.5q-47 0 -65 -23.5t-17 -52.5h-64q-1 30 10.5 54t31.5 40.5t47 25t58 8.5t57 -9.5t45 -25.5t29.5 -37.5t10.5 -45.5q0 -20 -5.5 -35.5t-14 -27t-18.5 -19.5
t-18 -12zM797 675l-689 -817l-48 35l689 816z" />
    <glyph glyph-name="twothirds" unicode="&#x2154;" 
d="M350 328h-303q0 43 25.5 91t79.5 81l77 46q23 15 40 36.5t17 50.5q1 34 -19.5 55t-60.5 21q-23 0 -39.5 -7.5t-26.5 -19.5t-14.5 -28t-4.5 -33h-63q0 25 9 50t27.5 45t46.5 32.5t66 12.5q36 0 62.5 -10.5t44.5 -28t27 -41t9 -49.5t-7.5 -45.5t-19.5 -35.5t-27 -28
t-30 -21q-6 -3 -18.5 -10.5t-27 -17t-28.5 -19t-23 -16.5q-18 -14 -30 -29t-14 -30h225v-52zM814 675l-688 -817l-48 35l689 816zM765 51q30 -13 50.5 -39t20.5 -60q0 -28 -11.5 -52t-32 -41t-49.5 -27t-63 -10q-35 0 -64.5 10.5t-51 29t-33 44t-10.5 55.5l64 -1
q-2 -33 21 -59t73 -26q42 0 65.5 22t24.5 56q0 25 -17.5 43t-42.5 25q-16 4 -33 3t-34 -1v51q17 0 36 1.5t31 7.5q45 19 46 64q2 26 -19 45.5t-59 19.5q-23 0 -39 -6.5t-25.5 -17t-13.5 -24t-3 -28.5l-63 -1q-2 30 9.5 54t31.5 40.5t47 25t58 8.5t57 -9.5t45 -25t29.5 -37
t10.5 -45.5q0 -20 -5.5 -35.5t-14 -27.5t-18 -20t-18.5 -12z" />
    <glyph glyph-name="oneeighth" unicode="&#x215b;" 
d="M273 328h-64v293h-93v52q22 0 42 4.5t35 14.5q11 8 19.5 22t8.5 31h52v-417zM680 -165q-36 0 -66 10t-52.5 26.5t-35 38t-12.5 45.5q0 29 20 56t66 49q-37 23 -54 46t-17 48q0 22 11.5 41.5t31.5 34.5t48 23.5t60 8.5q33 0 61 -8.5t48 -23.5t31.5 -34.5t11.5 -41.5
q0 -25 -16.5 -48t-53.5 -45q45 -23 65 -50t20 -56q0 -24 -12.5 -45.5t-34.5 -38t-53 -26.5t-67 -10zM680 212q-39 0 -60 -18t-21 -45q0 -29 21 -46t60 -17q38 0 60.5 17t22.5 46q0 27 -22.5 45t-60.5 18zM680 32q-44 0 -70 -21t-26 -53t26 -52.5t70 -20.5q45 0 71.5 20.5
t26.5 52.5t-26.5 53t-71.5 21zM834 675l-688 -817l-48 35l689 816z" />
    <glyph glyph-name="threeeighths" unicode="&#x215c;" 
d="M319 545q30 -14 50 -40t20 -59q0 -28 -11.5 -52t-31.5 -41.5t-48.5 -27.5t-62.5 -10t-63 10.5t-50 29t-32.5 44t-9.5 55.5h62q-2 -33 21 -59.5t71 -26.5q42 0 65 22t24 56q0 25 -17 43.5t-41 24.5q-17 4 -33.5 3.5t-32.5 -0.5v51q16 0 34.5 1t31.5 7q44 20 45 64
q1 26 -19 46t-58 20q-23 0 -38.5 -6.5t-25 -17t-13.5 -24.5t-3 -28l-62 -1q-1 30 9.5 54t30 40.5t46.5 25t57 8.5t56 -9.5t45 -25.5t30 -37.5t11 -45.5q0 -20 -6 -35.5t-14.5 -27t-18.5 -19.5t-18 -12zM680 -165q-36 0 -66 10t-52.5 26.5t-35 38t-12.5 45.5q0 29 20 56
t67 49q-38 23 -55 46t-17 48q0 22 11.5 41.5t32 34.5t48 23.5t59.5 8.5q33 0 61 -8.5t48 -23.5t31.5 -34.5t11.5 -41.5q0 -25 -16.5 -48t-53.5 -45q45 -23 65 -50t20 -56q0 -24 -12.5 -45.5t-34.5 -38t-53 -26.5t-67 -10zM680 212q-39 0 -59.5 -18t-20.5 -45q0 -29 20.5 -46
t59.5 -17q38 0 60.5 17t22.5 46q0 27 -22.5 45t-60.5 18zM680 32q-44 0 -70 -21t-26 -53t26 -52.5t70 -20.5q45 0 71.5 20.5t26.5 52.5t-26.5 53t-71.5 21zM834 675l-688 -817l-48 35l689 816z" />
    <glyph glyph-name="fiveeighths" unicode="&#x215d;" 
d="M251 611q19 -3 40.5 -11.5t40 -25.5t30.5 -42.5t12 -61.5q0 -35 -13.5 -62.5t-35 -46.5t-49 -28.5t-55.5 -9.5q-35 0 -62 10.5t-46.5 28t-31 40t-14.5 46.5l66 -5q2 -29 25.5 -49t62.5 -20q38 0 63 25.5t27 66.5q1 42 -23.5 69t-63.5 27q-56 0 -79 -36l-67 -2l35 225h243
v-53h-190l-20 -107q23 14 51.5 19.5t53.5 2.5zM680 -165q-36 0 -66 10t-52.5 26.5t-35 38t-12.5 45.5q0 29 20.5 56t66.5 49q-38 23 -55 46t-17 48q0 22 11.5 41.5t32 34.5t48 23.5t59.5 8.5q33 0 61 -8.5t48 -23.5t31.5 -34.5t11.5 -41.5q0 -25 -16.5 -48t-53.5 -45
q45 -23 65.5 -50t20.5 -56q0 -24 -12.5 -45.5t-35 -38t-53.5 -26.5t-67 -10zM680 212q-39 0 -59.5 -18t-20.5 -45q0 -29 20.5 -46t59.5 -17q38 0 60.5 17t22.5 46q0 27 -22.5 45t-60.5 18zM680 32q-44 0 -70 -21t-26 -53t26 -52.5t70 -20.5q45 0 71.5 20.5t26.5 52.5
t-26.5 53t-71.5 21zM834 675l-688 -817l-48 35l689 816z" />
    <glyph glyph-name="seveneighths" unicode="&#x215e;" 
d="M157 339q4 30 17.5 75t42.5 98q29 51 63 92t62 69h-252v59h303v-62q-18 -17 -45.5 -49.5t-53.5 -84.5q-28 -53 -43.5 -106.5t-17.5 -90.5h-76zM680 -165q-36 0 -66 10t-52.5 26.5t-35 38t-12.5 45.5q0 29 20 56t67 49q-38 23 -55 46t-17 48q0 22 11.5 41.5t31.5 34.5
t48 23.5t60 8.5q33 0 61 -8.5t48 -23.5t31.5 -34.5t11.5 -41.5q0 -25 -16.5 -48t-53.5 -45q45 -23 65 -50t20 -56q0 -24 -12.5 -45.5t-34.5 -38t-53 -26.5t-67 -10zM680 212q-39 0 -59.5 -18t-20.5 -45q0 -29 20.5 -46t59.5 -17q38 0 60.5 17t22.5 46q0 27 -22.5 45
t-60.5 18zM680 32q-44 0 -70 -21t-26 -53t26 -52.5t70 -20.5q45 0 71.5 20.5t26.5 52.5t-26.5 53t-71.5 21zM834 675l-688 -817l-48 35l689 816z" />
    <glyph glyph-name="uni2160" unicode="&#x2160;" 
d="M495 -62h-75v746h75v-746z" />
    <glyph glyph-name="uni2161" unicode="&#x2161;" 
d="M646 -62h-74v746h74v-746zM342 -62h-74v746h74v-746z" />
    <glyph glyph-name="uni2162" unicode="&#x2162;" 
d="M695 -62h-76v746h76v-746zM496 -62h-76v746h76v-746zM296 -62h-75v746h75v-746z" />
    <glyph glyph-name="uni2163" unicode="&#x2163;" 
d="M807 684l-229 -746h-87l-227 746h77l195 -663l194 663h77zM219 -62h-74v746h74v-746z" />
    <glyph glyph-name="uni2164" unicode="&#x2164;" 
d="M796 684l-288 -746h-87l-288 746h78l253 -663l254 663h78z" />
    <glyph glyph-name="uni2165" unicode="&#x2165;" 
d="M774 -62h-74v746h74v-746zM649 684l-227 -746h-86l-228 746h77l195 -663l194 663h75z" />
    <glyph glyph-name="uni2166" unicode="&#x2166;" 
d="M816 -62h-68v746h68v-746zM667 -62h-70v746h70v-746zM547 684l-198 -746h-85l-199 746h77l163 -663l167 663h75z" />
    <glyph glyph-name="uni2167" unicode="&#x2167;" 
d="M872 -62h-69v746h69v-746zM732 -62h-68v746h68v-746zM592 -62h-71v746h71v-746zM482 684l-186 -746h-86l-187 746h78l151 -663l153 663h77z" />
    <glyph glyph-name="uni2168" unicode="&#x2168;" 
d="M829 -62h-85l-214 322l-215 -322h-83l257 387l-240 359h84l197 -294l197 294h85l-238 -360zM189 -62h-70v746h70v-746z" />
    <glyph glyph-name="uni2169" unicode="&#x2169;" 
d="M760 -62h-83l-215 322l-216 -322h-83l255 386l-237 360h84l197 -294l196 294h84l-237 -359z" />
    <glyph glyph-name="uni2170" unicode="&#x2170;" 
d="M501 610h-80v76h80v-76zM500 -62h-76v548h76v-548z" />
    <glyph glyph-name="uni2171" unicode="&#x2171;" 
d="M645 609h-79v76h79v-76zM351 609h-78v76h78v-76zM642 -63h-74v548h74v-548zM349 -63h-74v548h74v-548z" />
    <glyph glyph-name="uni2172" unicode="&#x2172;" 
d="M684 609h-80v76h80v-76zM499 609h-81v76h81v-76zM313 609h-79v76h79v-76zM681 -63h-75v548h75v-548zM497 -63h-76v548h76v-548zM311 -63h-75v548h75v-548z" />
    <glyph glyph-name="uni2173" unicode="&#x2173;" 
d="M243 610h-79v76h79v-76zM829 486l-227 -548h-85l-226 548h79l191 -463l189 463h79zM239 -62h-73v548h73v-548z" />
    <glyph glyph-name="uni2174" unicode="&#x2174;" 
d="M731 485l-226 -548h-87l-225 548h79l191 -463l188 463h80z" />
    <glyph glyph-name="uni2175" unicode="&#x2175;" 
d="M782 610h-79v76h79v-76zM778 -62h-73v548h73v-548zM645 486l-229 -548h-83l-227 548h79l192 -463l188 463h80z" />
    <glyph glyph-name="uni2176" unicode="&#x2176;" 
d="M818 610h-73v76h73v-76zM670 610h-74v76h74v-76zM816 -62h-68v548h68v-548zM668 -62h-69v548h69v-548zM547 486l-199 -548h-83l-200 548h75l166 -463l167 463h74z" />
    <glyph glyph-name="uni2177" unicode="&#x2177;" 
d="M874 610h-73v76h73v-76zM734 610h-75v76h75v-76zM594 610h-75v76h75v-76zM872 -62h-69v548h69v-548zM732 -62h-70v548h70v-548zM593 -62h-72v548h72v-548zM478 486l-190 -548h-85l-186 548h75l154 -463l154 463h78z" />
    <glyph glyph-name="uni2178" unicode="&#x2178;" 
d="M250 610h-78v76h78v-76zM796 -62h-84l-171 224l-171 -224h-84l213 280l-204 268h84l162 -212l162 212h83l-203 -268zM247 -62h-72v548h72v-548z" />
    <glyph glyph-name="uni2179" unicode="&#x2179;" 
d="M720 -62h-87l-172 223l-173 -223h-87l215 280l-205 268h87l163 -211l161 211h89l-206 -268z" />
    <glyph glyph-name="arrowleft" unicode="&#x2190;" 
d="M297 273l31 -92l-322 122l322 117l-31 -92h607v-55h-607z" />
    <glyph glyph-name="arrowup" unicode="&#x2191;" 
d="M487 488v-641h-58v641l-96 -30l124 312l124 -312z" />
    <glyph glyph-name="arrowright" unicode="&#x2192;" 
d="M591 181l31 91h-608v55h608l-31 93l321 -117z" />
    <glyph glyph-name="arrowdown" unicode="&#x2193;" 
d="M457 -169l-124 312l94 -30v642h58v-641l96 30z" />
    <glyph glyph-name="arrowboth" unicode="&#x2194;" 
d="M642 144l31 128h-433l31 -128l-280 156l280 155l-31 -127h433l-31 127l281 -155z" />
    <glyph glyph-name="arrowupdn" unicode="&#x2195;" 
d="M457 -184l-161 273l131 -30v481l-131 -30l161 273l161 -273l-131 30v-481l131 30z" />
    <glyph glyph-name="uni2196" unicode="&#x2196;" 
d="M852 -121l-659 640l-29 -88l-147 298l306 -143l-90 -28l658 -640z" />
    <glyph glyph-name="uni2197" unicode="&#x2197;" 
d="M752 431l-28 88l-658 -640l-40 39l657 640l-90 28l306 143z" />
    <glyph glyph-name="uni2198" unicode="&#x2198;" 
d="M588 19l91 28l-658 639l40 39l657 -639l30 88l146 -298z" />
    <glyph glyph-name="uni2199" unicode="&#x2199;" 
d="M237 47l91 -28l-306 -143l147 298l29 -88l658 639l40 -39z" />
    <glyph glyph-name="arrowdblright" unicode="&#x21d2;" 
d="M581 50l128 123h-701v51h752l79 75l-79 75h-752v51h701l-128 123l39 38l297 -287l-297 -287z" />
    <glyph glyph-name="arrowdblboth" unicode="&#x21d4;" 
d="M592 50l124 123h-513l124 -123l-39 -38l-290 287l290 287l39 -38l-124 -123h513l-124 123l38 38l291 -287l-291 -287zM150 374l-77 -75l77 -75h619l75 75l-75 75h-619z" />
    <glyph glyph-name="universal" unicode="&#x2200;" 
d="M786 671l-277 -735h-95l-277 737h78l74 -192h344l75 190h78zM609 410h-295l147 -388z" />
    <glyph glyph-name="partialdiff" unicode="&#x2202;" 
d="M459 719q35 0 65 -14.5t51.5 -41.5t34 -65t12.5 -85q0 -39 -8.5 -89.5t-22.5 -104t-33.5 -105t-41.5 -93.5q-31 -57 -72.5 -86.5t-85.5 -29.5q-38 0 -72 16.5t-55 42.5q-11 17 -18 40.5t-7 55.5q0 58 17 108.5t45.5 88t64.5 59t75 22.5q79 3 120 -85q8 38 13.5 64t8.5 45
t4 33t1 29q0 25 -6.5 47.5t-18.5 39t-29.5 26.5t-39.5 10q-32 0 -58.5 -25.5t-46.5 -70.5l-68 37q10 21 22.5 42t22.5 32q59 57 126 57zM444 140q17 31 27.5 64.5t10.5 63.5q0 19 -5 38t-15 33.5t-24.5 23.5t-32.5 9q-24 0 -45.5 -15.5t-38.5 -39.5q-25 -33 -36.5 -68
t-11.5 -77t21 -70.5t59 -28.5q29 0 51.5 17.5t39.5 49.5z" />
    <glyph glyph-name="existential" unicode="&#x2203;" 
d="M721 -63h-474v70h397v250h-382v70h382v272h-409v72h486v-734z" />
    <glyph glyph-name="gradient" unicode="&#x2207;" 
d="M4 675h906l-453 -761zM457 17l361 609h-722z" />
    <glyph glyph-name="element" unicode="&#x2208;" 
d="M820 272h-687q2 -32 17.5 -67.5t45.5 -65.5t75.5 -49.5t108.5 -19.5h441v-55h-431q-74 0 -132.5 22t-99.5 60t-63 90.5t-22 112.5t22 112t63 90.5t99.5 60.5t132.5 22h431v-55h-441q-63 0 -108.5 -19.5t-75.5 -49.5t-45.5 -65.5t-17.5 -67.5h687v-56z" />
    <glyph glyph-name="suchthat" unicode="&#x220b;" 
d="M94 272v56h687q-2 32 -17.5 67.5t-45.5 65.5t-75 49.5t-108 19.5h-442v55h431q74 0 133 -22t100 -60.5t63 -90.5t22 -112t-22 -112.5t-63 -90.5t-100 -60t-133 -22h-431v55h442q63 0 108 19.5t75 49.5t45.5 65.5t17.5 67.5h-687z" />
    <glyph glyph-name="product" unicode="&#x220f;" 
d="M791 562h-149v-600h-74v600h-221v-600h-74v600h-146v79h664v-79z" />
    <glyph glyph-name="summation" unicode="&#x2211;" 
d="M793 685l-11 -81h-403l194 -250l-300 -279h431l-19 -80h-533l17 72l306 297l-186 246l23 75h481z" />
    <glyph glyph-name="radical" unicode="&#x221a;" 
d="M548 730l-270 -826l-163 406l-56 -58l-21 32l118 119l131 -328l223 700h346v-45h-308z" />
    <glyph glyph-name="proportional" unicode="&#x221d;" 
d="M829 143q-34 -22 -62 -31t-63 -9q-44 0 -77.5 13.5t-58 33t-40.5 41t-25 37.5q-9 -15 -25.5 -36.5t-41 -41t-57 -33.5t-74.5 -14q-43 0 -80.5 15.5t-66 42t-45 62.5t-16.5 77t16.5 77t45 62.5t66 42t80.5 15.5q42 0 74.5 -14t57.5 -33.5t41 -41.5t25 -37q9 15 25.5 37
t41.5 41.5t58.5 33.5t75.5 14q35 0 64 -9t59 -31l-35 -50q-23 17 -42 22.5t-46 5.5q-43 0 -73.5 -18t-50 -41.5t-30 -45.5t-13.5 -30q3 -8 13.5 -30.5t30 -45.5t50 -41t73.5 -18q26 0 46 6.5t41 20.5zM469 300q-3 9 -14.5 31t-32 45t-49.5 41t-68 18q-30 0 -56.5 -10.5
t-46 -29t-30.5 -43t-11 -52.5t11 -52.5t30.5 -43t46 -29t56.5 -10.5q39 0 68 18t49.5 41t32 45t14.5 31z" />
    <glyph glyph-name="infinity" unicode="&#x221e;" 
d="M643 481q40 0 74.5 -14t60.5 -39t41 -58t15 -70q0 -38 -15 -70.5t-41 -57.5t-60.5 -39t-74.5 -14t-71 14.5t-54 34t-38.5 40t-22.5 33.5q-7 -13 -21.5 -33.5t-37.5 -40t-55 -34t-72 -14.5q-39 0 -74 14t-61 39t-41 57.5t-15 70.5q0 37 15 70t41 58t61 39t74 14
q40 0 72 -14.5t55 -34t37.5 -40t21.5 -33.5q7 13 22.5 33.5t38.5 40t54 34t71 14.5zM271 176q35 0 61 17t44 38.5t27.5 41.5t12.5 27q-3 7 -12.5 27t-27.5 41.5t-44 38.5t-61 17q-27 0 -50.5 -9.5t-41.5 -26.5t-28 -39.5t-10 -48.5t10 -48.5t28 -39.5t41.5 -26.5t50.5 -9.5z
M643 424q-35 0 -61 -17t-44 -38.5t-27.5 -41.5t-12.5 -27q3 -7 12.5 -27t27.5 -41.5t44 -38.5t61 -17q27 0 51 9.5t41.5 26.5t28 39.5t10.5 48.5t-10.5 48.5t-28 39.5t-41.5 26.5t-51 9.5z" />
    <glyph glyph-name="angle" unicode="&#x2220;" 
d="M832 -28h-718q-8 0 -16.5 4t-10.5 13q-3 9 6.5 19.5t14.5 16.5l622 609l45 -41l-579 -565h636v-56z" />
    <glyph glyph-name="uni2225" unicode="&#x2225;" 
d="M592 -186h-56v974h56v-974zM379 -186h-56v974h56v-974z" />
    <glyph glyph-name="logicaland" unicode="&#x2227;" 
d="M762 -60l-305 606l-305 -606l-58 32l330 659q2 5 12.5 16.5t20.5 11.5q11 0 19 -9t15 -19l330 -659z" />
    <glyph glyph-name="logicalor" unicode="&#x2228;" 
d="M821 630l-330 -659q-7 -10 -15 -19t-19 -9q-10 0 -20.5 11.5t-12.5 16.5l-330 659l58 32l305 -606l305 606z" />
    <glyph glyph-name="intersection" unicode="&#x2229;" 
d="M695 -67v445q0 64 -22 109.5t-56 74.5t-75 42.5t-79 13.5h-11q-38 0 -79 -13.5t-75 -42.5t-55.5 -74.5t-21.5 -109.5v-445h-69v434q0 73 23.5 132.5t65 101t97 64t119.5 22.5t119.5 -22.5t97 -64t65 -101t23.5 -132.5v-434h-67z" />
    <glyph glyph-name="union" unicode="&#x222a;" 
d="M748 233q0 -73 -24 -132t-65 -101t-96.5 -64.5t-119.5 -22.5t-119.5 22.5t-97 64.5t-65 101t-23.5 132v434h68v-445q0 -64 22 -109.5t55.5 -74.5t74.5 -42.5t79 -13.5h11q37 0 78 13.5t75 42.5t56 74.5t22 109.5v445h69v-434z" />
    <glyph glyph-name="integral" unicode="&#x222b;" 
d="M592 731q47 0 74 -18.5t27 -46.5q0 -23 -15.5 -37.5t-38.5 -14.5q-48 0 -48 47v20q0 23 -22 23q-17 0 -28.5 -11.5t-23.5 -34.5q-13 -26 -18.5 -54t-5.5 -66q0 -22 2.5 -62.5t4.5 -82.5q4 -47 5.5 -85.5t1.5 -76.5q0 -59 -5.5 -108.5t-16.5 -78.5q-11 -32 -29.5 -57
t-43.5 -43t-54.5 -27.5t-62.5 -9.5q-42 0 -64.5 19t-22.5 48q0 20 14.5 33t37.5 13q49 0 52 -54q1 -14 4 -20t17 -6q22 0 41 17t33.5 44t23 61.5t8.5 70.5q0 8 -1.5 22t-1.5 22l-1 35l-3 34q0 5 -0.5 10.5t-1.5 13.5q-5 49 -7 94.5t-2 84.5q0 75 11.5 131.5t33.5 87.5
q23 30 55 46.5t71 16.5z" />
    <glyph glyph-name="uni222C" unicode="&#x222c;" 
d="M711 730q26 0 44.5 -16t18.5 -38q0 -18 -13.5 -30.5t-35.5 -12.5q-16 0 -29 9.5t-20 26.5q-5 12 -10.5 18.5t-7.5 6.5t-7 -6t-11 -16l-19 -43q-1 -5 -1 -7.5t-2 -7.5q-5 -17 -6.5 -35.5t-1.5 -33.5l1 -95l2 -94q0 -15 0.5 -32t1 -32t0.5 -25v-11v-30q0 -144 -44 -229
q-21 -41 -59 -66.5t-76 -25.5q-27 0 -42.5 14t-15.5 35q0 17 11.5 28.5t27.5 11.5q14 0 24 -7t16 -24q5 -12 10.5 -18t10.5 -6q11 1 20.5 11t16.5 26q10 25 17 52t14 59q1 11 2.5 22t3.5 27l1.5 22.5t0.5 12.5l-2 111l-4 110l-2 111q-1 46 12.5 87t36.5 72t53 49.5t63 18.5z
M489 730q26 0 42.5 -16t16.5 -38q0 -20 -12 -31.5t-31 -11.5q-17 0 -30.5 9.5t-20.5 26.5q-3 12 -8.5 18.5t-7.5 6.5q-3 0 -13.5 -17t-18.5 -36q-8 -21 -12.5 -46.5t-4.5 -48.5l2 -94q2 -62 3 -98t1 -55.5v-27v-12.5v-26q0 -149 -46 -235q-11 -19 -27 -36t-34.5 -29.5
t-38.5 -19.5t-38 -7q-24 0 -39 14t-15 34q0 17 11.5 30t28.5 13q29 0 39 -34q6 -25 22 -25q10 0 20.5 12t15.5 25q18 44 28 105t10 118l-6 249q-1 37 0 65t5 49.5t10.5 39t16.5 34.5q22 44 58.5 69.5t72.5 25.5z" />
    <glyph glyph-name="uni222E" unicode="&#x222e;" 
d="M695 648q0 -23 -12.5 -34.5t-35.5 -11.5q-22 0 -31.5 9.5t-11.5 20.5q-1 5 -1.5 12t-3 14t-7 11t-12.5 3q-11 -1 -19 -7.5t-16 -25.5q-8 -16 -12.5 -28t-8.5 -25t-6.5 -29t-5.5 -40q-2 -10 -3 -30t-6 -55q116 -34 116 -140q0 -57 -34.5 -93.5t-100.5 -48.5
q-4 -62 -11 -99t-19 -62q-42 -101 -149 -101q-41 0 -63.5 15.5t-22.5 44.5q0 22 13.5 35.5t35.5 13.5q44 0 53 -41q2 -11 4 -23t16 -12q15 0 34.5 20.5t30.5 56.5q5 17 7.5 39t4.5 43q0 9 1.5 28t3.5 46q-56 16 -85.5 50.5t-29.5 86.5q0 108 129 144q5 44 11 74t14 55
q22 69 62 107.5t96 38.5q35 0 55 -16t20 -46zM587 294q0 18 -3.5 32t-13 27t-26 24.5t-42.5 25.5q-2 -22 -2 -32.5t-1 -14.5l-7 -83q-2 -31 -2.5 -45t-0.5 -21v-28q98 31 98 115zM435 405q-49 -20 -71.5 -47.5t-22.5 -65.5q0 -36 19.5 -60.5t63.5 -44.5q0 34 1 62t2.5 53.5
t3.5 50t4 52.5z" />
    <glyph glyph-name="therefore" unicode="&#x2234;" 
d="M460 591q30 0 52 -21t22 -50t-22 -49.5t-51 -20.5q-31 0 -52.5 20.5t-21.5 49.5t21 50t52 21zM733 155q32 0 53.5 -21t21.5 -50t-21 -49.5t-53 -20.5q-29 0 -50.5 20.5t-21.5 49.5t21 50t50 21zM249 83q0 -29 -21.5 -49.5t-50.5 -20.5q-31 0 -53 20.5t-22 49.5t21.5 50
t52.5 21q29 0 50.5 -21t21.5 -50h1z" />
    <glyph glyph-name="uni2235" unicode="&#x2235;" 
d="M733 597q31 0 52.5 -20.5t21.5 -49.5t-21.5 -50t-52.5 -21q-14 0 -27 5.5t-23 15.5t-16 22.5t-6 27.5q0 29 21.5 49.5t50.5 20.5zM464 154q31 0 52 -20.5t21 -49.5t-21 -50t-52 -21q-30 0 -51.5 21t-21.5 50t21.5 49.5t51.5 20.5zM181 597q29 0 50.5 -20.5t21.5 -49.5
t-21.5 -50t-50.5 -21q-31 0 -52.5 21t-21.5 50t21.5 49.5t52.5 20.5z" />
    <glyph glyph-name="similar" unicode="&#x223c;" 
d="M444 265q-8 5 -17.5 11t-19.5 11q-9 6 -20 10.5t-20 6.5q-51 8 -84.5 -3.5t-58.5 -28.5q-8 -6 -18 -14t-20.5 -15t-22 -11.5t-22.5 -2.5q-16 2 -18 14t9 30q7 13 27.5 36.5t49 46t64 38t74.5 14.5q46 -2 80.5 -17.5t61.5 -31.5q20 -12 42.5 -24t46.5 -14q27 -2 51.5 2.5
t45 12t35 17.5t22.5 20q11 13 24.5 17.5t23 1t12 -15t-7.5 -30.5q-6 -12 -25 -34t-46 -42.5t-61 -35.5t-71 -14q-48 2 -80 16t-57 29z" />
    <glyph glyph-name="uni223D" unicode="&#x223d;" 
d="M868 288q-2 -37 -16 -70t-39.5 -58t-61.5 -39.5t-81 -14.5q-28 0 -50 5.5t-38.5 12t-26.5 13t-14 9.5l30 55q1 -1 10 -6t23.5 -11t32.5 -11t38 -5q27 0 50 9.5t40.5 25.5t27.5 36.5t10 42.5q1 61 -34.5 101t-97.5 43q-37 2 -64.5 -11t-49 -35t-37.5 -49t-29 -53
q-9 -17 -27 -47t-47 -58.5t-70 -48t-96 -16.5q-35 2 -70 16t-63 38.5t-44.5 61t-15.5 83.5q1 34 15.5 67t40 58.5t61.5 41t80 15.5q28 0 50 -5.5t38.5 -12t26.5 -13t14 -9.5l-30 -51q-1 1 -9.5 6t-22.5 10.5t-32.5 10t-38.5 4.5q-42 0 -70.5 -19t-43.5 -47t-15.5 -61.5
t14 -63t44 -50t75.5 -22.5q40 -2 70 16.5t54 46.5t42.5 61t35.5 60q19 30 40 55.5t47 44t57.5 28.5t71.5 9q36 -1 71.5 -14t63 -38t44.5 -62t16 -85z" />
    <glyph glyph-name="uni2252" unicode="&#x2252;" 
d="M83 415h749v-62h-749v62zM83 247h749v-62h-749v62zM178 564q0 30 20.5 51t50.5 21q32 0 53 -21t21 -51q0 -29 -21 -50t-53 -21q-30 0 -50.5 21t-20.5 50zM593 37q0 29 20.5 50t52.5 21q15 0 28 -6t22.5 -15.5t15.5 -22.5t6 -27q0 -29 -21.5 -50.5t-50.5 -21.5
q-32 0 -52.5 21.5t-20.5 50.5z" />
    <glyph glyph-name="notequal" unicode="&#x2260;" 
d="M671 632l55 -44l-103 -128h170v-64h-221l-129 -162h350v-64h-402l-158 -197l-56 43l123 154h-171v64h223l130 162h-353v64h404z" />
    <glyph glyph-name="equivalence" unicode="&#x2261;" 
d="M126 431v55h663v-55h-663zM125 272v56h664v-56h-664zM125 114v55h664v-55h-664z" />
    <glyph glyph-name="lessequal" unicode="&#x2264;" 
d="M739 215l-35 -63l-525 262q-1 0 -5 2.5t-8.5 5t-8 4.5t-3.5 3t3.5 3t8 4.5t8.5 4.5t5 3l512 259l31 -64l-398 -209zM769 -3h-624v69h624v-69z" />
    <glyph glyph-name="greaterequal" unicode="&#x2265;" 
d="M733 444q1 -1 5 -3t8.5 -4.5t8 -4.5t3.5 -3t-3.5 -3t-8 -4.5t-8.5 -5t-5 -2.5l-524 -262l-36 63l414 215l-397 209l31 64zM769 -3h-625v69h625v-69z" />
    <glyph glyph-name="uni226A" unicode="&#x226a;" 
d="M871 -30l-38 -41l-514 349q-5 4 -10.5 9t-5.5 13q0 7 5.5 12.5t10.5 9.5l515 349l34 -44l-488 -327zM622 -30l-36 -41l-514 349q-5 4 -10.5 9t-5.5 13q0 7 5.5 12.5t10.5 9.5l515 349l33 -44l-486 -327z" />
    <glyph glyph-name="uni226B" unicode="&#x226b;" 
d="M856 300q0 -6 -3 -10t-7 -6q-2 -3 -6 -5.5t-8 -4.5l-508 -345l-36 41l490 330l-487 327l33 44l515 -349q5 -4 11 -9.5t6 -12.5zM610 300q0 -6 -4 -10l-6 -6q-8 -7 -15 -10l-507 -345l-37 41l489 330l-487 327l34 44l508 -345l8 -4q5 -4 11 -9.5t6 -12.5z" />
    <glyph glyph-name="propersubset" unicode="&#x2282;" 
d="M384 5v-1q-74 0 -133.5 23t-102.5 62.5t-66 93.5t-23 117q0 62 23.5 116t66.5 94t104 63t136 23h446v-66h-457q-66 0 -113 -21.5t-77 -54.5t-44 -72.5t-14 -76.5v-10q0 -37 14 -76.5t44 -72.5t77 -54t113 -21h457v-66h-451z" />
    <glyph glyph-name="propersuperset" unicode="&#x2283;" 
d="M79 4v66h457q66 0 113 21t77 54t44 73t14 77v10q0 37 -14 76.5t-44 72.5t-77 54t-113 21h-457v67h447q75 0 136 -23t104 -63t66 -94t23 -116q0 -63 -23 -116.5t-66 -93.5t-104 -62.5t-136 -22.5z" />
    <glyph glyph-name="reflexsubset" unicode="&#x2286;" 
d="M384 126v-1q-82 0 -143 20t-101.5 54.5t-60.5 81.5t-20 100t20.5 99.5t61.5 81t103 54.5t145 20h445v-65h-458q-68 0 -115.5 -16.5t-76.5 -43.5t-42 -61t-13 -69q0 -36 13.5 -70t42.5 -60.5t76 -42.5t115 -16h458v-66h-450zM59 -36v66h796v-66h-796z" />
    <glyph glyph-name="reflexsuperset" unicode="&#x2287;" 
d="M80 125v66h458q67 0 114.5 16.5t77 43t43 60.5t13.5 70q0 35 -13.5 69t-43 60.5t-77 43t-114.5 16.5h-458v66h446q82 0 144 -20t103 -54.5t61.5 -81t20.5 -99.5t-20 -99.5t-61 -81t-102.5 -54.5t-145.5 -20zM59 -36v66h796v-66h-796z" />
    <glyph glyph-name="uni2299" unicode="&#x2299;" 
d="M891 299q0 -90 -32.5 -167t-90.5 -133.5t-136.5 -88.5t-169.5 -32q-94 0 -174.5 32.5t-139.5 89t-92.5 133.5t-33.5 166q0 88 34 165t93 133t140 88.5t174 32.5q91 0 169 -32.5t135.5 -88.5t90.5 -133t33 -165zM837 296q0 78 -30 147t-82 120t-122 80.5t-151 29.5
q-77 0 -145 -30t-118.5 -81.5t-80 -120t-29.5 -145.5t29.5 -145t81.5 -118.5t121 -79.5t149 -29q78 0 147 29t120 79.5t80.5 118.5t29.5 145zM666 300q0 -43 -16 -79t-43.5 -62.5t-65.5 -41t-82 -14.5q-45 0 -82.5 14.5t-65 40.5t-43 62t-15.5 79t15.5 78.5t42.5 61t65 40
t83 14.5t83 -14.5t65.5 -40t43 -61t15.5 -77.5z" />
    <glyph glyph-name="perpendicular" unicode="&#x22a5;" 
d="M104 38h317v562h71v-562h317v-58h-705v58z" />
    <glyph glyph-name="uni2312" unicode="&#x2312;" 
d="M768 551q-10 45 -38.5 82t-70.5 63t-95 40.5t-111 14.5t-110 -14t-93 -40.5t-69.5 -63.5t-39.5 -82h-57q10 53 43 98t82 78t111.5 51.5t132.5 18.5t133 -18.5t112.5 -51.5t82.5 -78t44 -98h-57z" />
    <glyph glyph-name="uni2460" unicode="&#x2460;" 
d="M437 -8v445h-129v65q28 0 55 7t48 24q17 11 29.5 33t12.5 46h60v-620h-76zM457 759q88 0 166 -36t135.5 -98.5t91 -146t33.5 -178.5t-33.5 -178.5t-91 -146t-135.5 -98.5t-166 -36t-165.5 36t-135 98.5t-91 146t-33.5 178.5t33.5 178.5t91 146t135 98.5t165.5 36z
M457 718q-80 0 -149.5 -33t-121.5 -89.5t-82 -132.5t-30 -163t30 -163t82 -132.5t121.5 -89.5t149.5 -33t150 33t122 89.5t82 132.5t30 163t-30 163t-82 132.5t-122 89.5t-150 33z" />
    <glyph glyph-name="uni2461" unicode="&#x2461;" 
d="M457 759q88 0 166 -36t135.5 -98.5t91 -146t33.5 -178.5t-33.5 -178.5t-91 -146t-135.5 -98.5t-166 -36t-165.5 36t-135 98.5t-91 146t-33.5 178.5t33.5 178.5t91 146t135 98.5t165.5 36zM457 718q-80 0 -149.5 -33t-121.5 -89.5t-82 -132.5t-30 -163t30 -163t82 -132.5
t121.5 -89.5t149.5 -33t150 33t122 89.5t82 132.5t30 163t-30 163t-82 132.5t-122 89.5t-150 33zM443 188q-12 -9 -27.5 -20.5t-29.5 -26t-24.5 -30.5t-13.5 -32h307v-72h-397q0 33 6.5 63.5t23 60t44.5 59t71 61.5l98 74q32 24 52 57t20 73q0 56 -26.5 87t-82.5 31
q-34 0 -56 -11t-34.5 -29t-17.5 -41t-5 -47h-76q0 38 11 73.5t34.5 63.5t60 44.5t86.5 16.5q48 0 83.5 -15t58.5 -40.5t34.5 -59.5t11.5 -72t-10.5 -67.5t-27.5 -53.5t-37.5 -42t-40.5 -33z" />
    <glyph glyph-name="uni2462" unicode="&#x2462;" 
d="M457 759q88 0 166 -36t135.5 -98.5t91 -146t33.5 -178.5t-33.5 -178.5t-91 -146t-135.5 -98.5t-166 -36t-165.5 36t-135 98.5t-91 146t-33.5 178.5t33.5 178.5t91 146t135 98.5t165.5 36zM457 718q-80 0 -149.5 -33t-121.5 -89.5t-82 -132.5t-30 -163t30 -163t82 -132.5
t121.5 -89.5t149.5 -33t150 33t122 89.5t82 132.5t30 163t-30 163t-82 132.5t-122 89.5t-150 33zM330 173q-1 -22 6 -44.5t22.5 -41t40 -30t57.5 -11.5q57 0 89 34.5t32 85.5q0 41 -24 67t-55 35q-22 6 -44 6h-39v72q17 0 40.5 0.5t41.5 8.5q64 30 64 101q0 41 -28.5 70
t-79.5 29q-31 0 -52.5 -10t-34 -25.5t-18 -35.5t-4.5 -40h-75q-2 44 13 78t40.5 57.5t60 35.5t72.5 12q37 0 71.5 -14t60 -37.5t41 -54.5t15.5 -65q0 -33 -9.5 -58t-22.5 -42.5t-26.5 -27.5t-21.5 -14q43 -20 71 -60t28 -91q0 -41 -15 -75.5t-42 -60t-65 -39.5t-83 -14
t-83 16t-65.5 43t-42.5 63t-13 77h77z" />
    <glyph glyph-name="uni2463" unicode="&#x2463;" 
d="M457 759q88 0 166 -36t135.5 -98.5t91 -146t33.5 -178.5t-33.5 -178.5t-91 -146t-135.5 -98.5t-166 -36t-165.5 36t-135 98.5t-91 146t-33.5 178.5t33.5 178.5t91 146t135 98.5t165.5 36zM457 718q-80 0 -149.5 -33t-121.5 -89.5t-82 -132.5t-30 -163t30 -163t82 -132.5
t121.5 -89.5t149.5 -33t150 33t122 89.5t82 132.5t30 163t-30 163t-82 132.5t-122 89.5t-150 33zM222 103v88l273 417h76v-434h92v-71h-92v-115h-76v115h-273zM495 479l-199 -305h199v305z" />
    <glyph glyph-name="uni2464" unicode="&#x2464;" 
d="M457 759q88 0 166 -36t135.5 -98.5t91 -146t33.5 -178.5t-33.5 -178.5t-91 -146t-135.5 -98.5t-166 -36t-165.5 36t-135 98.5t-91 146t-33.5 178.5t33.5 178.5t91 146t135 98.5t165.5 36zM457 718q-80 0 -149.5 -33t-121.5 -89.5t-82 -132.5t-30 -163t30 -163t82 -132.5
t121.5 -89.5t149.5 -33t150 33t122 89.5t82 132.5t30 163t-30 163t-82 132.5t-122 89.5t-150 33zM263 267l48 328h317v-80h-256l-24 -158q23 20 58 28t70 6q26 -2 56.5 -14t56.5 -36.5t43.5 -64t17.5 -95.5q0 -52 -17.5 -92t-45.5 -67.5t-63.5 -41.5t-72.5 -14
q-47 0 -82.5 15t-61 39.5t-40 56t-18.5 64.5h75q1 -21 10 -39.5t24.5 -32.5t37.5 -22.5t50 -8.5q53 0 86.5 38.5t33.5 103.5q0 30 -8 55.5t-23.5 45t-37 30.5t-48.5 11q-42 0 -69.5 -15t-40.5 -40h-76z" />
    <glyph glyph-name="uni2465" unicode="&#x2465;" 
d="M457 759q88 0 166 -36t135.5 -98.5t91 -146t33.5 -178.5t-33.5 -178.5t-91 -146t-135.5 -98.5t-166 -36t-165.5 36t-135 98.5t-91 146t-33.5 178.5t33.5 178.5t91 146t135 98.5t165.5 36zM457 718q-80 0 -149.5 -33t-121.5 -89.5t-82 -132.5t-30 -163t30 -163t82 -132.5
t121.5 -89.5t149.5 -33t150 33t122 89.5t82 132.5t30 163t-30 163t-82 132.5t-122 89.5t-150 33zM586 453q-1 16 -9.5 34t-23 33.5t-35.5 25.5t-47 10q-28 0 -48 -8.5t-34 -22t-23.5 -31.5t-16.5 -36q-14 -42 -17 -73.5t-1 -49.5q24 29 59 46.5t90 15.5q41 -2 75 -19t58 -46
t37.5 -67t13.5 -81q0 -45 -15.5 -83t-42 -65.5t-62.5 -43.5t-77 -16q-43 0 -76 13t-57.5 35.5t-41.5 52.5t-27 64q-10 31 -14.5 74t-4 88.5t7 90t18.5 78.5q26 74 74.5 114.5t125.5 40.5q39 0 72.5 -15t59 -39.5t41 -55.5t18.5 -64h-77zM462 319q-53 0 -86 -36t-33 -99
q0 -61 33 -98.5t86 -37.5q51 0 84.5 37.5t33.5 98.5q0 63 -33.5 99t-84.5 36z" />
    <glyph glyph-name="uni2466" unicode="&#x2466;" 
d="M457 759q88 0 166 -36t135.5 -98.5t91 -146t33.5 -178.5t-33.5 -178.5t-91 -146t-135.5 -98.5t-166 -36t-165.5 36t-135 98.5t-91 146t-33.5 178.5t33.5 178.5t91 146t135 98.5t165.5 36zM457 718q-80 0 -149.5 -33t-121.5 -89.5t-82 -132.5t-30 -163t30 -163t82 -132.5
t121.5 -89.5t149.5 -33t150 33t122 89.5t82 132.5t30 163t-30 163t-82 132.5t-122 89.5t-150 33zM255 588h402v-80q-24 -28 -64.5 -87t-79.5 -141q-20 -43 -35 -86.5t-25 -83.5t-15 -74.5t-4 -59.5h-95q2 41 20 115.5t59 163.5q20 43 44 84t46.5 75.5t40.5 59t26 34.5h-320
v80z" />
    <glyph glyph-name="uni2467" unicode="&#x2467;" 
d="M457 759q88 0 166 -36t135.5 -98.5t91 -146t33.5 -178.5t-33.5 -178.5t-91 -146t-135.5 -98.5t-166 -36t-165.5 36t-135 98.5t-91 146t-33.5 178.5t33.5 178.5t91 146t135 98.5t165.5 36zM457 718q-80 0 -149.5 -33t-121.5 -89.5t-82 -132.5t-30 -163t30 -163t82 -132.5
t121.5 -89.5t149.5 -33t150 33t122 89.5t82 132.5t30 163t-30 163t-82 132.5t-122 89.5t-150 33zM578 319q45 -26 72 -67t27 -91q0 -39 -17.5 -73.5t-47.5 -60.5t-70 -41t-85 -15t-85 15t-69.5 41t-47 60.5t-17.5 73.5q0 50 27 91t72 67q-35 23 -56.5 58.5t-21.5 77.5
q0 36 15.5 67t42.5 54.5t63 37t77 13.5t77.5 -13.5t63.5 -37t43 -54.5t16 -67q0 -42 -21.5 -77.5t-57.5 -58.5zM457 279q-65 0 -100 -34t-35 -84q0 -49 35 -82.5t100 -33.5q66 0 101 33.5t35 82.5q0 50 -35 84t-101 34zM457 554q-30 0 -51.5 -7.5t-35.5 -21t-21 -31.5
t-7 -38q0 -41 28 -69.5t87 -28.5q58 0 87.5 28.5t29.5 69.5t-29.5 69.5t-87.5 28.5z" />
    <glyph glyph-name="uni2468" unicode="&#x2468;" 
d="M457 759q88 0 166 -36t135.5 -98.5t91 -146t33.5 -178.5t-33.5 -178.5t-91 -146t-135.5 -98.5t-166 -36t-165.5 36t-135 98.5t-91 146t-33.5 178.5t33.5 178.5t91 146t135 98.5t165.5 36zM457 718q-80 0 -149.5 -33t-121.5 -89.5t-82 -132.5t-30 -163t30 -163t82 -132.5
t121.5 -89.5t149.5 -33t150 33t122 89.5t82 132.5t30 163t-30 163t-82 132.5t-122 89.5t-150 33zM342 147q1 -16 9.5 -34t23.5 -33.5t37 -25.5t50 -10q25 0 44 7.5t32.5 20.5t23 30t16.5 35q16 44 17.5 78t-0.5 57q-11 -14 -25.5 -27t-33 -22.5t-41 -15.5t-49.5 -5
q-42 2 -76 19.5t-58.5 46.5t-38 67t-13.5 81q0 45 15.5 83t42 65.5t62.5 43.5t77 16t73.5 -12t57.5 -33.5t42 -51t28 -63.5q10 -31 15 -75t4.5 -91t-6 -92.5t-17.5 -79.5q-26 -74 -73.5 -113.5t-123.5 -39.5q-40 0 -74 14.5t-59.5 39t-41 56t-16.5 64.5h76zM462 279
q51 0 84.5 37t33.5 100q0 61 -33.5 98.5t-84.5 37.5q-52 0 -85.5 -37.5t-33.5 -98.5q0 -63 33.5 -100t85.5 -37z" />
    <glyph glyph-name="uni2469" unicode="&#x2469;" 
d="M457 759q88 0 166 -36t135.5 -98.5t91 -146t33.5 -178.5t-33.5 -178.5t-91 -146t-135.5 -98.5t-166 -36t-165.5 36t-135 98.5t-91 146t-33.5 178.5t33.5 178.5t91 146t135 98.5t165.5 36zM457 718q-80 0 -149.5 -33t-121.5 -89.5t-82 -132.5t-30 -163t30 -163t82 -132.5
t121.5 -89.5t149.5 -33t150 33t122 89.5t82 132.5t30 163t-30 163t-82 132.5t-122 89.5t-150 33zM268 5v437h-119v52q54 0 95 30q14 11 26 32t12 44h54v-595h-68zM564 616q48 0 85 -23t61.5 -64t37 -99t12.5 -127t-12.5 -126.5t-37 -99t-61.5 -64.5t-85 -23t-85.5 23
t-62.5 64.5t-38 99t-13 126.5t13 127t38 99t62.5 64t85.5 23zM564 550q-30 0 -53.5 -18.5t-39 -51t-23.5 -78t-8 -99.5t8 -99t23.5 -77.5t39 -51t53.5 -18.5q29 0 51.5 18.5t38 51t23.5 77.5t8 99t-8 99.5t-23.5 78t-38 51t-51.5 18.5z" />
    <glyph glyph-name="uni246A" unicode="&#x246a;" 
d="M457 759q88 0 166 -36t135.5 -98.5t91 -146t33.5 -178.5t-33.5 -178.5t-91 -146t-135.5 -98.5t-166 -36t-165.5 36t-135 98.5t-91 146t-33.5 178.5t33.5 178.5t91 146t135 98.5t165.5 36zM454 718q-80 0 -149 -33t-120.5 -89.5t-81 -132.5t-29.5 -163t30 -163t82 -132.5
t121.5 -89.5t149.5 -33t150 33t122 89.5t82 132.5t30 163t-30.5 163t-83 132.5t-123 89.5t-150.5 33zM320 -1v446h-120v54q26 0 51 7t45 23q14 11 26 32.5t12 44.5h57v-607h-71zM567 -1v446h-121v54q26 0 51.5 7t45.5 23q15 11 26.5 32.5t11.5 44.5h56v-607h-70z" />
    <glyph glyph-name="uni246B" unicode="&#x246b;" 
d="M457 759q88 0 166 -36t135.5 -98.5t91 -146t33.5 -178.5t-33.5 -178.5t-91 -146t-135.5 -98.5t-166 -36t-165.5 36t-135 98.5t-91 146t-33.5 178.5t33.5 178.5t91 146t135 98.5t165.5 36zM457 718q-80 0 -149.5 -33t-121.5 -89.5t-82 -132.5t-30 -163t30 -163t82 -132.5
t121.5 -89.5t149.5 -33t150 33t122 89.5t82 132.5t30 163t-30 163t-82 132.5t-122 89.5t-150 33zM264 13v437h-112v52q26 0 47 7t41 23q14 11 25.5 31.5t11.5 43.5h56v-594h-69zM517 185q-11 -9 -24 -20t-25 -24.5t-21.5 -28.5t-11.5 -31h265v-68h-344q0 31 5.5 59.5
t20 56.5t38.5 56.5t61 58.5l86 70q27 24 44 55.5t17 69.5q0 52 -22 81t-70 29q-30 0 -49 -10.5t-30 -27t-15 -38.5t-4 -44h-67q0 36 9.5 70.5t30 60.5t52 42t74.5 16q42 0 73 -14.5t52 -38.5t31.5 -56.5t10.5 -68.5t-10 -64.5t-25.5 -51t-34 -40t-34.5 -31.5z" />
    <glyph glyph-name="uni246C" unicode="&#x246c;" 
d="M457 759q88 0 166 -36t135.5 -98.5t91 -146t33.5 -178.5t-33.5 -178.5t-91 -146t-135.5 -98.5t-166 -36t-165.5 36t-135 98.5t-91 146t-33.5 178.5t33.5 178.5t91 146t135 98.5t165.5 36zM457 718q-80 0 -149.5 -33t-121.5 -89.5t-82 -132.5t-30 -163t30 -163t82 -132.5
t121.5 -89.5t149.5 -33t150 33t122 89.5t82 132.5t30 163t-30 163t-82 132.5t-122 89.5t-150 33zM259 2v438h-112v51q27 0 47.5 7.5t40.5 22.5q14 11 25.5 32t11.5 44h55v-595h-68zM425 181q-1 -21 6 -42.5t21.5 -39t37.5 -28.5t55 -11q54 0 84 32.5t30 82.5q0 38 -23 62.5
t-53 34.5q-20 5 -40.5 5h-36.5v65h38t39 8q60 31 60 97q0 38 -26 66.5t-76 28.5q-29 0 -49 -9.5t-32.5 -24.5t-17.5 -34.5t-4 -38.5h-68q0 41 13.5 73t37.5 54.5t55.5 34t67.5 11.5t67 -13t54.5 -35.5t37 -51.5t13.5 -61q0 -31 -8 -54.5t-19.5 -40t-23.5 -26t-20 -12.5
q41 -20 65.5 -57t24.5 -85q0 -39 -13.5 -71.5t-38.5 -56.5t-60 -37t-77 -13t-78 14.5t-62 40t-40 59.5t-13 73h72z" />
    <glyph glyph-name="uni246D" unicode="&#x246d;" 
d="M457 759q88 0 166 -36t135.5 -98.5t91 -146t33.5 -178.5t-33.5 -178.5t-91 -146t-135.5 -98.5t-166 -36t-165.5 36t-135 98.5t-91 146t-33.5 178.5t33.5 178.5t91 146t135 98.5t165.5 36zM457 718q-80 0 -149.5 -33t-121.5 -89.5t-82 -132.5t-30 -163t30 -163t82 -132.5
t121.5 -89.5t149.5 -33t150 33t122 89.5t82 132.5t30 163t-30 163t-82 132.5t-122 89.5t-150 33zM259 1v437h-112v51q27 0 47.5 7.5t40.5 22.5q14 11 25.5 32t11.5 44h55v-594h-68zM353 111v84l252 400h73v-416h89v-68h-89v-110h-70v110h-255zM608 471l-185 -292h185v292z
" />
    <glyph glyph-name="uni246E" unicode="&#x246e;" 
d="M457 759q88 0 166 -36t135.5 -98.5t91 -146t33.5 -178.5t-33.5 -178.5t-91 -146t-135.5 -98.5t-166 -36t-165.5 36t-135 98.5t-91 146t-33.5 178.5t33.5 178.5t91 146t135 98.5t165.5 36zM457 718q-80 0 -149.5 -33t-121.5 -89.5t-82 -132.5t-30 -163t30 -163t82 -132.5
t121.5 -89.5t149.5 -33t150 33t122 89.5t82 132.5t30 163t-30 163t-82 132.5t-122 89.5t-150 33zM254 -3v438h-111v51q26 0 47 7.5t41 22.5q14 11 25.5 32t11.5 44h55v-595h-69zM360 279l45 313h295v-68h-243l-23 -159q21 19 56 26.5t67 5.5q25 -2 53.5 -13.5t53 -35.5
t40.5 -62t16 -92q0 -49 -16 -87t-42 -64t-59 -39.5t-67 -13.5q-44 0 -78 14t-57.5 37.5t-37.5 53t-17 60.5h67q1 -20 9.5 -39t23.5 -33.5t36 -23t48 -8.5q52 0 84.5 39t32.5 103q0 30 -8 56t-22.5 45.5t-35.5 30.5t-48 11q-40 0 -66.5 -17t-40.5 -40h-66z" />
    <glyph glyph-name="uni2474" unicode="&#x2474;" 
d="M22 300q0 75 13.5 137t34 112.5t44.5 89t46 66.5h39q-67 -94 -91.5 -197.5t-24.5 -207.5q0 -106 25.5 -208.5t90.5 -196.5h-39q-21 27 -45.5 65t-45 88.5t-34 113.5t-13.5 138zM893 300q0 -75 -13.5 -138t-34 -113.5t-45 -88.5t-45.5 -65h-39q66 95 91.5 197t25.5 208
q0 104 -25 207.5t-92 197.5h39q22 -28 46 -66.5t44.5 -89t34 -112.5t13.5 -137zM436 -10v448h-126v64q27 0 53.5 7.5t46.5 23.5q16 12 28.5 34t12.5 47h59v-624h-74z" />
    <glyph glyph-name="uni2475" unicode="&#x2475;" 
d="M22 300q0 75 13.5 137t34 112.5t44.5 89t46 66.5h39q-67 -94 -91.5 -197.5t-24.5 -207.5q0 -106 25.5 -208.5t90.5 -196.5h-39q-21 27 -45.5 65t-45 88.5t-34 113.5t-13.5 138zM893 300q0 -75 -13.5 -138t-34 -113.5t-45 -88.5t-45.5 -65h-39q66 95 91.5 197t25.5 208
q0 104 -25 207.5t-92 197.5h39q22 -28 46 -66.5t44.5 -89t34 -112.5t13.5 -137zM444 172q-12 -9 -26.5 -21t-28 -26t-24.5 -30t-14 -33h300v-72h-387q0 33 6.5 63.5t22.5 60t43.5 59.5t69.5 62l95 75q32 24 51 57t19 73q0 57 -25.5 87.5t-79.5 30.5q-33 0 -55 -11t-34.5 -29
t-17.5 -41t-5 -47h-73q0 38 11 74t34 64t58.5 45t83.5 17q47 0 81.5 -15t57 -41t33.5 -60.5t11 -72.5t-10.5 -68t-26.5 -54t-36.5 -42t-39.5 -33z" />
    <glyph glyph-name="uni2476" unicode="&#x2476;" 
d="M22 300q0 75 13.5 137t34 112.5t44.5 89t46 66.5h39q-67 -94 -91.5 -197.5t-24.5 -207.5q0 -106 25.5 -208.5t90.5 -196.5h-39q-21 27 -45.5 65t-45 88.5t-34 113.5t-13.5 138zM893 300q0 -75 -13.5 -138t-34 -113.5t-45 -88.5t-45.5 -65h-39q66 95 91.5 197t25.5 208
q0 104 -25 207.5t-92 197.5h39q22 -28 46 -66.5t44.5 -89t34 -112.5t13.5 -137zM333 172q-1 -22 5.5 -45t21.5 -41.5t38.5 -30t56.5 -11.5q55 0 87 34t32 87q0 40 -23.5 66t-54.5 36q-21 6 -42.5 6h-38.5v72q17 0 40 0.5t40 8.5q62 30 62 103q0 40 -27.5 69.5t-77.5 29.5
q-30 0 -51 -10t-33.5 -26t-17.5 -36t-4 -40h-73q-2 44 12 78t39 57.5t58.5 36t71.5 12.5q37 0 70.5 -14t58.5 -37.5t39.5 -54.5t14.5 -65q0 -33 -9 -58.5t-21.5 -43t-26 -28t-22.5 -14.5q42 -21 70 -60.5t28 -91.5q0 -41 -14.5 -76t-41 -60t-63.5 -39t-81 -14t-80.5 15.5
t-63 42.5t-41 63.5t-12.5 78.5h74z" />
    <glyph glyph-name="uni2477" unicode="&#x2477;" 
d="M22 300q0 75 13.5 137t34 112.5t44.5 89t46 66.5h39q-67 -94 -91.5 -197.5t-24.5 -207.5q0 -106 25.5 -208.5t90.5 -196.5h-39q-21 27 -45.5 65t-45 88.5t-34 113.5t-13.5 138zM893 300q0 -75 -13.5 -138t-34 -113.5t-45 -88.5t-45.5 -65h-39q66 95 91.5 197t25.5 208
q0 104 -25 207.5t-92 197.5h39q22 -28 46 -66.5t44.5 -89t34 -112.5t13.5 -137zM244 104v88l265 420h74v-436h90v-72h-90v-116h-74v116h-265zM509 482l-195 -306h195v306z" />
    <glyph glyph-name="uni2478" unicode="&#x2478;" 
d="M22 300q0 75 13.5 137t34 112.5t44.5 89t46 66.5h39q-67 -94 -91.5 -197.5t-24.5 -207.5q0 -106 25.5 -208.5t90.5 -196.5h-39q-21 27 -45.5 65t-45 88.5t-34 113.5t-13.5 138zM893 300q0 -75 -13.5 -138t-34 -113.5t-45 -88.5t-45.5 -65h-39q66 95 91.5 197t25.5 208
q0 104 -25 207.5t-92 197.5h39q22 -28 46 -66.5t44.5 -89t34 -112.5t13.5 -137zM275 280l47 329h309v-80h-248l-24 -159q23 21 56.5 29t67.5 6q25 -2 55 -14t55.5 -37t42.5 -64.5t17 -96.5q0 -52 -17 -92.5t-44 -68t-62 -41.5t-71 -14q-45 0 -80.5 15t-60 39.5t-39 56
t-17.5 65.5h74q3 -42 33.5 -73t84.5 -31q51 0 84.5 39t33.5 104q0 30 -8 56t-23 45.5t-36.5 30.5t-47.5 11q-41 0 -67.5 -15t-40.5 -40h-74z" />
    <glyph glyph-name="uni2479" unicode="&#x2479;" 
d="M22 300q0 75 13.5 137t34 112.5t44.5 89t46 66.5h39q-67 -94 -91.5 -197.5t-24.5 -207.5q0 -106 25.5 -208.5t90.5 -196.5h-39q-21 27 -45.5 65t-45 88.5t-34 113.5t-13.5 138zM893 300q0 -75 -13.5 -138t-34 -113.5t-45 -88.5t-45.5 -65h-39q66 95 91.5 197t25.5 208
q0 104 -25 207.5t-92 197.5h39q22 -28 46 -66.5t44.5 -89t34 -112.5t13.5 -137zM584 453q-1 16 -9 34.5t-22.5 34t-35 25.5t-45.5 10q-28 0 -47.5 -8.5t-33.5 -22.5t-23 -31.5t-16 -36.5q-14 -41 -16.5 -73t-1.5 -51q24 31 58 48t88 15q40 -2 73 -19t56.5 -46t36.5 -67
t13 -81q0 -45 -15 -83.5t-40.5 -67t-60.5 -44.5t-75 -16q-41 0 -73.5 13.5t-56.5 36t-41 52.5t-27 64q-9 32 -14 75t-4 89t7 90.5t18 79.5q26 75 73 115.5t122 40.5q39 0 71.5 -15t57 -40t39.5 -56.5t18 -64.5h-74zM463 321q-51 0 -83.5 -37.5t-32.5 -99.5q0 -63 32.5 -100
t83.5 -37q50 0 82.5 37t32.5 100q0 62 -32.5 99.5t-82.5 37.5z" />
    <glyph glyph-name="uni247A" unicode="&#x247a;" 
d="M22 300q0 75 13.5 137t34 112.5t44.5 89t46 66.5h39q-67 -94 -91.5 -197.5t-24.5 -207.5q0 -106 25.5 -208.5t90.5 -196.5h-39q-21 27 -45.5 65t-45 88.5t-34 113.5t-13.5 138zM893 300q0 -75 -13.5 -138t-34 -113.5t-45 -88.5t-45.5 -65h-39q66 95 91.5 197t25.5 208
q0 104 -25 207.5t-92 197.5h39q22 -28 46 -66.5t44.5 -89t34 -112.5t13.5 -137zM271 605h394v-80q-26 -28 -65 -87.5t-77 -141.5q-19 -43 -34 -87t-25 -84.5t-15 -75.5t-4 -60h-93q3 42 20.5 117t57.5 165q19 43 42.5 84.5t45.5 75.5t39.5 59t25.5 35h-312v80z" />
    <glyph glyph-name="uni247B" unicode="&#x247b;" 
d="M22 300q0 75 13.5 137t34 112.5t44.5 89t46 66.5h39q-67 -94 -91.5 -197.5t-24.5 -207.5q0 -106 25.5 -208.5t90.5 -196.5h-39q-21 27 -45.5 65t-45 88.5t-34 113.5t-13.5 138zM893 300q0 -75 -13.5 -138t-34 -113.5t-45 -88.5t-45.5 -65h-39q66 95 91.5 197t25.5 208
q0 104 -25 207.5t-92 197.5h39q22 -28 46 -66.5t44.5 -89t34 -112.5t13.5 -137zM576 320q44 -26 70.5 -67.5t26.5 -91.5q0 -39 -17 -74t-46 -60.5t-68 -40.5t-83 -15t-83.5 15t-68.5 40.5t-46 60.5t-17 74q0 50 26.5 91.5t70.5 66.5q-35 24 -56 60t-21 78q0 36 15.5 67.5
t41.5 55t61.5 37t76.5 13.5q40 0 75 -13.5t61.5 -37t42 -55t15.5 -67.5q0 -42 -21 -78t-56 -59zM459 280q-32 0 -56.5 -9.5t-41.5 -25.5t-26 -37.5t-9 -46.5q0 -50 35 -83.5t98 -33.5t97.5 33.5t34.5 83.5t-34.5 84.5t-97.5 34.5zM459 557q-30 0 -51.5 -8t-35.5 -21.5
t-20.5 -31.5t-6.5 -38q0 -41 27.5 -70t86.5 -29q56 0 84.5 28.5t28.5 70.5q0 41 -28.5 70t-84.5 29z" />
    <glyph glyph-name="uni247C" unicode="&#x247c;" 
d="M22 300q0 75 13.5 137t34 112.5t44.5 89t46 66.5h39q-67 -94 -91.5 -197.5t-24.5 -207.5q0 -106 25.5 -208.5t90.5 -196.5h-39q-21 27 -45.5 65t-45 88.5t-34 113.5t-13.5 138zM893 300q0 -75 -13.5 -138t-34 -113.5t-45 -88.5t-45.5 -65h-39q66 95 91.5 197t25.5 208
q0 104 -25 207.5t-92 197.5h39q22 -28 46 -66.5t44.5 -89t34 -112.5t13.5 -137zM333 148q1 -16 9 -34.5t23 -34t36 -25.5t49 -10q25 0 43.5 7.5t32 20.5t22.5 30t16 36q14 43 15.5 77.5t0.5 57.5q-20 -28 -56.5 -50t-88.5 -20q-41 2 -74.5 19.5t-57.5 46.5t-37 67t-13 81
q0 45 15 83.5t41 67t61 44.5t75 16t72 -12t56 -34t41 -51.5t28 -63.5q10 -32 15 -76t4.5 -91.5t-6.5 -93.5t-18 -80q-24 -74 -70.5 -114t-121.5 -40q-39 0 -72 14.5t-58 39t-40 56.5t-16 66h74zM450 280q51 0 83 37.5t32 99.5q0 63 -32 100t-83 37t-83.5 -37t-32.5 -100
q0 -62 32.5 -99.5t83.5 -37.5z" />
    <glyph glyph-name="uni247D" unicode="&#x247d;" 
d="M22 300q0 75 13.5 137t34 112.5t44.5 89t46 66.5h39q-67 -94 -91.5 -197.5t-24.5 -207.5q0 -106 25.5 -208.5t90.5 -196.5h-39q-21 27 -45.5 65t-45 88.5t-34 113.5t-13.5 138zM893 300q0 -75 -13.5 -138t-34 -113.5t-45 -88.5t-45.5 -65h-39q66 95 91.5 197t25.5 208
q0 104 -25 207.5t-92 197.5h39q22 -28 46 -66.5t44.5 -89t34 -112.5t13.5 -137zM263 -10v448h-125v64q27 0 52.5 7.5t46.5 23.5q17 12 28.5 34t11.5 47h59v-624h-73zM571 628q47 0 83 -24t60 -67.5t36.5 -104t12.5 -132.5t-12.5 -132.5t-36.5 -104t-60 -67.5t-83 -24t-83 24
t-60 67.5t-36.5 104t-12.5 132.5t12.5 132.5t36.5 104t60 67.5t83 24zM571 558q-27 0 -48 -19t-35 -53.5t-21.5 -82t-7.5 -103.5t7.5 -103.5t21.5 -82t35 -53.5t48 -19t48 19t35 53.5t21.5 82t7.5 103.5t-7.5 103.5t-21.5 82t-35 53.5t-48 19z" />
    <glyph glyph-name="uni247E" unicode="&#x247e;" 
d="M22 300q0 75 13.5 137t34 112.5t44.5 89t46 66.5h39q-67 -94 -91.5 -197.5t-24.5 -207.5q0 -106 25.5 -208.5t90.5 -196.5h-39q-21 27 -45.5 65t-45 88.5t-34 113.5t-13.5 138zM893 300q0 -75 -13.5 -138t-34 -113.5t-45 -88.5t-45.5 -65h-39q66 95 91.5 197t25.5 208
q0 104 -25 207.5t-92 197.5h39q22 -28 46 -66.5t44.5 -89t34 -112.5t13.5 -137zM309 -10v448h-125v64q26 0 52 7.5t48 23.5q16 12 27.5 34t11.5 47h61v-624h-75zM588 -10v448h-126v64q27 0 52.5 7.5t47.5 23.5q16 12 28 34t12 47h60v-624h-74z" />
    <glyph glyph-name="uni247F" unicode="&#x247f;" 
d="M22 300q0 75 13.5 137t34 112.5t44.5 89t46 66.5h39q-67 -94 -91.5 -197.5t-24.5 -207.5q0 -106 25.5 -208.5t90.5 -196.5h-39q-21 27 -45.5 65t-45 88.5t-34 113.5t-13.5 138zM893 300q0 -75 -13.5 -138t-34 -113.5t-45 -88.5t-45.5 -65h-39q66 95 91.5 197t25.5 208
q0 104 -25 207.5t-92 197.5h39q22 -28 46 -66.5t44.5 -89t34 -112.5t13.5 -137zM263 -10v448h-125v64q27 0 52.5 7.5t46.5 23.5q17 12 28.5 34t11.5 47h59v-624h-73zM545 171q-10 -9 -22.5 -21.5t-23.5 -27t-19 -30t-9 -31.5h254v-72h-348q0 40 11 75t29 66t41 57t47 47
l84 75q10 9 20.5 23t19 31t14 36.5t5.5 39.5q0 57 -21.5 87.5t-65.5 30.5q-28 0 -46.5 -11t-29 -29t-15 -41t-4.5 -47h-73q0 38 9.5 74t30 64t52.5 45t76 17q42 0 73 -15t51 -41t30 -60.5t10 -72.5t-10.5 -68.5t-25.5 -55t-32.5 -42.5t-32.5 -31z" />
    <glyph glyph-name="uni2480" unicode="&#x2480;" 
d="M22 300q0 75 13.5 137t34 112.5t44.5 89t46 66.5h39q-67 -94 -91.5 -197.5t-24.5 -207.5q0 -106 25.5 -208.5t90.5 -196.5h-39q-21 27 -45.5 65t-45 88.5t-34 113.5t-13.5 138zM893 300q0 -75 -13.5 -138t-34 -113.5t-45 -88.5t-45.5 -65h-39q66 95 91.5 197t25.5 208
q0 104 -25 207.5t-92 197.5h39q22 -28 46 -66.5t44.5 -89t34 -112.5t13.5 -137zM272 -10v448h-125v64q58 0 99 31q17 12 29 34t12 47h58v-624h-73zM469 172q-1 -22 4.5 -45t18.5 -41.5t33 -30t48 -11.5q45 0 71.5 34t26.5 87q0 40 -20 66t-46 36q-17 6 -35 6h-32v72
q14 0 33 0.5t33 8.5q53 30 53 103q0 40 -23.5 69.5t-64.5 29.5q-25 0 -42 -10t-28 -26t-15.5 -36t-4.5 -40h-72q-1 44 12 78t35.5 57.5t53 36t64.5 12.5q33 0 62.5 -14t52 -37.5t35.5 -54.5t13 -65q0 -33 -8 -58.5t-19.5 -43t-23.5 -28t-19 -14.5q37 -21 62 -60.5t25 -91.5
q0 -41 -13 -76t-36.5 -60t-56.5 -39t-73 -14q-39 0 -72.5 15.5t-57.5 42.5t-37 63.5t-11 78.5h74z" />
    <glyph glyph-name="uni2481" unicode="&#x2481;" 
d="M22 300q0 75 13.5 137t34 112.5t44.5 89t46 66.5h39q-67 -94 -91.5 -197.5t-24.5 -207.5q0 -106 25.5 -208.5t90.5 -196.5h-39q-21 27 -45.5 65t-45 88.5t-34 113.5t-13.5 138zM893 300q0 -75 -13.5 -138t-34 -113.5t-45 -88.5t-45.5 -65h-39q66 95 91.5 197t25.5 208
q0 104 -25 207.5t-92 197.5h39q22 -28 46 -66.5t44.5 -89t34 -112.5t13.5 -137zM272 -10v448h-125v64q58 0 99 31q17 12 29 34t12 47h58v-624h-73zM380 106v88l239 420h66v-436h82v-72h-82v-116h-72v116h-233zM613 469l-165 -291h165v291z" />
    <glyph glyph-name="uni2482" unicode="&#x2482;" 
d="M22 300q0 75 13.5 137t34 112.5t44.5 89t46 66.5h39q-67 -94 -91.5 -197.5t-24.5 -207.5q0 -106 25.5 -208.5t90.5 -196.5h-39q-21 27 -45.5 65t-45 88.5t-34 113.5t-13.5 138zM893 300q0 -75 -13.5 -138t-34 -113.5t-45 -88.5t-45.5 -65h-39q66 95 91.5 197t25.5 208
q0 104 -25 207.5t-92 197.5h39q22 -28 46 -66.5t44.5 -89t34 -112.5t13.5 -137zM272 -10v448h-125v64q58 0 99 31q17 12 29 34t12 47h58v-624h-73zM403 285l42 329h278v-80h-220l-22 -159q21 21 49.5 29t60.5 6q22 -2 49 -14t49.5 -37t38 -64.5t15.5 -96.5q0 -52 -15 -92.5
t-40 -68t-56 -41.5t-64 -14q-40 0 -71.5 15t-54 39.5t-35.5 56t-16 65.5h75q2 -42 27.5 -73t71.5 -31q41 0 69.5 39t28.5 104q0 30 -7 56t-19.5 45.5t-30.5 30.5t-40 11q-35 0 -56.5 -15t-32.5 -40h-74z" />
    <glyph glyph-name="uni249C" unicode="&#x249c;" 
d="M22 300q0 75 13.5 137t34 112.5t44.5 89t46 66.5h39q-67 -94 -91.5 -197.5t-24.5 -207.5q0 -106 25.5 -208.5t90.5 -196.5h-39q-21 27 -45.5 65t-45 88.5t-34 113.5t-13.5 138zM893 300q0 -75 -13.5 -138t-34 -113.5t-45 -88.5t-45.5 -65h-39q66 95 91.5 197t25.5 208
q0 104 -25 207.5t-92 197.5h39q22 -28 46 -66.5t44.5 -89t34 -112.5t13.5 -137zM652 141q0 -29 7.5 -48t8.5 -21h-75q-8 15 -11.5 30t-3.5 31q-21 -27 -58.5 -50.5t-89.5 -26.5q-30 -2 -57 4.5t-48 20.5t-35 35.5t-18 51.5q-7 60 21.5 98.5t73.5 53.5q18 6 37.5 9t39 5t38 4
t36.5 6q10 2 21 5.5t19.5 9.5t14 15.5t5.5 23.5t-5.5 28.5t-17.5 26.5t-32 19.5t-49 7.5q-57 0 -82.5 -25t-21.5 -59h-74q-3 36 10.5 63.5t38.5 46.5t58.5 28.5t70.5 9.5q35 0 67.5 -10t57 -28.5t39 -45t14.5 -60.5v-259zM578 311q-4 -6 -15.5 -12t-25.5 -9q-13 -3 -30 -5.5
t-34.5 -5t-32.5 -5t-24 -5.5q-35 -11 -54 -33.5t-14 -56.5q5 -35 32.5 -48t58.5 -11q34 3 60 15.5t43.5 29.5t26.5 36t9 36v74z" />
    <glyph glyph-name="uni249D" unicode="&#x249d;" 
d="M22 300q0 75 13.5 137t34 112.5t44.5 89t46 66.5h39q-67 -94 -91.5 -197.5t-24.5 -207.5q0 -106 25.5 -208.5t90.5 -196.5h-39q-21 27 -45.5 65t-45 88.5t-34 113.5t-13.5 138zM893 300q0 -75 -13.5 -138t-34 -113.5t-45 -88.5t-45.5 -65h-39q66 95 91.5 197t25.5 208
q0 104 -25 207.5t-92 197.5h39q22 -28 46 -66.5t44.5 -89t34 -112.5t13.5 -137zM345 -14h-74v624h74v-214q26 29 59.5 45.5t75.5 16.5q43 0 78.5 -18t61 -50t39.5 -77t14 -99t-14 -99t-39.5 -77t-61 -50t-78.5 -18q-42 0 -75.5 17t-59.5 46v-47zM469 387q-59 0 -91.5 -48
t-32.5 -125q0 -76 32.5 -124t91.5 -48q58 0 91 48t33 124q0 38 -8.5 70t-24.5 55t-39 35.5t-52 12.5z" />
    <glyph glyph-name="uni249E" unicode="&#x249e;" 
d="M22 300q0 75 13.5 137t34 112.5t44.5 89t46 66.5h39q-67 -94 -91.5 -197.5t-24.5 -207.5q0 -106 25.5 -208.5t90.5 -196.5h-39q-21 27 -45.5 65t-45 88.5t-34 113.5t-13.5 138zM893 300q0 -75 -13.5 -138t-34 -113.5t-45 -88.5t-45.5 -65h-39q66 95 91.5 197t25.5 208
q0 104 -25 207.5t-92 197.5h39q22 -28 46 -66.5t44.5 -89t34 -112.5t13.5 -137zM657 208q-8 -30 -23 -57.5t-38 -48.5t-55 -33.5t-73 -12.5q-47 0 -85 19t-64 52t-40 77.5t-14 95.5q0 50 14 94.5t40 77.5t64 52.5t85 19.5q41 0 74 -13.5t57 -35.5t38.5 -49.5t19.5 -54.5h-81
q-3 13 -11 28t-20.5 28t-31.5 21t-45 8q-28 0 -51 -14t-39.5 -38t-25.5 -56t-9 -68t9 -68t25.5 -56t39.5 -38t51 -14q45 0 72 25t35 59h82z" />
    <glyph glyph-name="uni249F" unicode="&#x249f;" 
d="M22 300q0 75 13.5 137t34 112.5t44.5 89t46 66.5h39q-67 -94 -91.5 -197.5t-24.5 -207.5q0 -106 25.5 -208.5t90.5 -196.5h-39q-21 27 -45.5 65t-45 88.5t-34 113.5t-13.5 138zM893 300q0 -75 -13.5 -138t-34 -113.5t-45 -88.5t-45.5 -65h-39q66 95 91.5 197t25.5 208
q0 104 -25 207.5t-92 197.5h39q22 -28 46 -66.5t44.5 -89t34 -112.5t13.5 -137zM568 37q-26 -30 -59 -47t-75 -17q-44 0 -79.5 18t-61 50t-39.5 77t-14 99t14 99t39.5 77t61 50t79.5 18q42 0 75 -16.5t59 -45.5v214h74v-624h-74v48zM444 390q-29 0 -52 -12.5t-39 -35.5
t-24.5 -55t-8.5 -70q0 -76 33 -124t91 -48q59 0 91.5 48t32.5 124q0 77 -32.5 125t-91.5 48z" />
    <glyph glyph-name="uni24A0" unicode="&#x24a0;" 
d="M22 300q0 75 13.5 137t34 112.5t44.5 89t46 66.5h39q-67 -94 -91.5 -197.5t-24.5 -207.5q0 -106 25.5 -208.5t90.5 -196.5h-39q-21 27 -45.5 65t-45 88.5t-34 113.5t-13.5 138zM893 300q0 -75 -13.5 -138t-34 -113.5t-45 -88.5t-45.5 -65h-39q66 95 91.5 197t25.5 208
q0 104 -25 207.5t-92 197.5h39q22 -28 46 -66.5t44.5 -89t34 -112.5t13.5 -137zM456 543q42 0 79.5 -16.5t65.5 -50t44 -84.5t14 -119h-326q1 -31 11.5 -58t27.5 -47.5t38.5 -32.5t45.5 -12q25 0 43 6.5t31 16.5t20.5 22t11.5 23h83q-7 -24 -21 -48.5t-36 -44t-54 -31.5
t-75 -12q-45 0 -83 19t-65 52t-42.5 77.5t-15.5 95.5q0 50 14.5 94.5t41 77.5t64 52.5t83.5 19.5zM578 337q-2 28 -10.5 53t-24.5 44t-38 30t-49 11q-51 0 -83.5 -37.5t-37.5 -100.5h243z" />
    <glyph glyph-name="uni24A1" unicode="&#x24a1;" 
d="M22 300q0 75 13.5 137t34 112.5t44.5 89t46 66.5h39q-67 -94 -91.5 -197.5t-24.5 -207.5q0 -106 25.5 -208.5t90.5 -196.5h-39q-21 27 -45.5 65t-45 88.5t-34 113.5t-13.5 138zM893 300q0 -75 -13.5 -138t-34 -113.5t-45 -88.5t-45.5 -65h-39q66 95 91.5 197t25.5 208
q0 104 -25 207.5t-92 197.5h39q22 -28 46 -66.5t44.5 -89t34 -112.5t13.5 -137zM416 380h-52v64h52v50q0 17 0.5 29.5t3 21.5t6 16.5t9.5 15.5q10 14 26.5 24.5t38.5 10.5h49v-64q-9 0 -22 -0.5t-22 -10.5q-11 -11 -12.5 -23t-1.5 -30v-40h58v-64h-58v-392h-75v392z" />
    <glyph glyph-name="uni24A2" unicode="&#x24a2;" 
d="M22 300q0 75 13.5 137t34 112.5t44.5 89t46 66.5h39q-67 -94 -91.5 -197.5t-24.5 -207.5q0 -106 25.5 -208.5t90.5 -196.5h-39q-21 27 -45.5 65t-45 88.5t-34 113.5t-13.5 138zM893 300q0 -75 -13.5 -138t-34 -113.5t-45 -88.5t-45.5 -65h-39q66 95 91.5 197t25.5 208
q0 104 -25 207.5t-92 197.5h39q22 -28 46 -66.5t44.5 -89t34 -112.5t13.5 -137zM578 604h74v-430q0 -52 -17 -87.5t-44 -57.5t-61.5 -31.5t-69.5 -9.5q-44 0 -78.5 12.5t-59 32.5t-38 46.5t-15.5 55.5h74q2 -31 30.5 -56.5t87.5 -25.5q60 0 88.5 31.5t28.5 88.5v62
q-26 -30 -60.5 -47.5t-74.5 -17.5t-75 17.5t-61.5 48.5t-42 71.5t-15.5 87.5q0 46 14.5 87t40 72t61.5 48.5t78 17.5q41 0 75 -16.5t60 -45.5v46zM453 549q-56 0 -89.5 -42.5t-33.5 -111.5t33.5 -111.5t89.5 -42.5t90.5 42.5t34.5 111.5q0 34 -9 62.5t-25.5 49t-39.5 31.5
t-51 11z" />
    <glyph glyph-name="uni24A3" unicode="&#x24a3;" 
d="M22 300q0 75 13.5 137t34 112.5t44.5 89t46 66.5h39q-67 -94 -91.5 -197.5t-24.5 -207.5q0 -106 25.5 -208.5t90.5 -196.5h-39q-21 27 -45.5 65t-45 88.5t-34 113.5t-13.5 138zM893 300q0 -75 -13.5 -138t-34 -113.5t-45 -88.5t-45.5 -65h-39q66 95 91.5 197t25.5 208
q0 104 -25 207.5t-92 197.5h39q22 -28 46 -66.5t44.5 -89t34 -112.5t13.5 -137zM286 611h74v-219q12 13 27.5 26t35 23t43.5 14.5t52 1.5q33 -4 56 -20t38 -38t22 -47t7 -47v-318h-74v284q0 59 -22.5 85t-70.5 26q-24 0 -45 -10t-36.5 -27t-24 -39.5t-8.5 -48.5v-270h-74
v624z" />
    <glyph glyph-name="uni24A4" unicode="&#x24a4;" 
d="M22 300q0 75 13.5 137t34 112.5t44.5 89t46 66.5h39q-67 -94 -91.5 -197.5t-24.5 -207.5q0 -106 25.5 -208.5t90.5 -196.5h-39q-21 27 -45.5 65t-45 88.5t-34 113.5t-13.5 138zM893 300q0 -75 -13.5 -138t-34 -113.5t-45 -88.5t-45.5 -65h-39q66 95 91.5 197t25.5 208
q0 104 -25 207.5t-92 197.5h39q22 -28 46 -66.5t44.5 -89t34 -112.5t13.5 -137zM495 -12h-75v456h75v-456zM495 532h-75v80h75v-80z" />
    <glyph glyph-name="uni24A5" unicode="&#x24a5;" 
d="M22 300q0 75 13.5 137t34 112.5t44.5 89t46 66.5h39q-67 -94 -91.5 -197.5t-24.5 -207.5q0 -106 25.5 -208.5t90.5 -196.5h-39q-21 27 -45.5 65t-45 88.5t-34 113.5t-13.5 138zM893 300q0 -75 -13.5 -138t-34 -113.5t-45 -88.5t-45.5 -65h-39q66 95 91.5 197t25.5 208
q0 104 -25 207.5t-92 197.5h39q22 -28 46 -66.5t44.5 -89t34 -112.5t13.5 -137zM508 609h-74v80h74v-80zM508 31q0 -35 -4 -54.5t-13 -32.5q-11 -14 -30 -22.5t-45 -8.5h-42v64q11 0 23.5 0.5t22.5 10.5q11 11 12.5 23t1.5 30v480h74v-490z" />
    <glyph glyph-name="uni24A6" unicode="&#x24a6;" 
d="M22 300q0 75 13.5 137t34 112.5t44.5 89t46 66.5h39q-67 -94 -91.5 -197.5t-24.5 -207.5q0 -106 25.5 -208.5t90.5 -196.5h-39q-21 27 -45.5 65t-45 88.5t-34 113.5t-13.5 138zM893 300q0 -75 -13.5 -138t-34 -113.5t-45 -88.5t-45.5 -65h-39q66 95 91.5 197t25.5 208
q0 104 -25 207.5t-92 197.5h39q22 -28 46 -66.5t44.5 -89t34 -112.5t13.5 -137zM345 173v-185h-74v624h74v-352l187 184h89l-173 -170l206 -286h-83l-173 235z" />
    <glyph glyph-name="uni24A7" unicode="&#x24a7;" 
d="M22 300q0 75 13.5 137t34 112.5t44.5 89t46 66.5h39q-67 -94 -91.5 -197.5t-24.5 -207.5q0 -106 25.5 -208.5t90.5 -196.5h-39q-21 27 -45.5 65t-45 88.5t-34 113.5t-13.5 138zM893 300q0 -75 -13.5 -138t-34 -113.5t-45 -88.5t-45.5 -65h-39q66 95 91.5 197t25.5 208
q0 104 -25 207.5t-92 197.5h39q22 -28 46 -66.5t44.5 -89t34 -112.5t13.5 -137zM420 612h75v-624h-75v624z" />
    <glyph glyph-name="uni24A8" unicode="&#x24a8;" 
d="M22 300q0 75 13.5 137t34 112.5t44.5 89t46 66.5h39q-67 -94 -91.5 -197.5t-24.5 -207.5q0 -106 25.5 -208.5t90.5 -196.5h-39q-21 27 -45.5 65t-45 88.5t-34 113.5t-13.5 138zM893 300q0 -75 -13.5 -138t-34 -113.5t-45 -88.5t-45.5 -65h-39q66 95 91.5 197t25.5 208
q0 104 -25 207.5t-92 197.5h39q22 -28 46 -66.5t44.5 -89t34 -112.5t13.5 -137zM495 63h-75v297q0 26 -2.5 46t-10.5 33t-22 18.5t-38 4.5q-40 -2 -64.5 -33t-24.5 -85v-281h-74v456h74v-54q10 13 22.5 26.5t28.5 24t36.5 16t47.5 2.5q29 -3 52.5 -21t37.5 -53q7 9 18.5 23
t29 26.5t42 20.5t56.5 4q30 -3 49.5 -17.5t31 -35.5t16.5 -47t5 -53v-318h-74v297q0 26 -2.5 46t-10 33t-22 18.5t-38.5 4.5q-41 -2 -65 -33t-24 -85v-281z" />
    <glyph glyph-name="uni24A9" unicode="&#x24a9;" 
d="M22 300q0 75 13.5 137t34 112.5t44.5 89t46 66.5h39q-67 -94 -91.5 -197.5t-24.5 -207.5q0 -106 25.5 -208.5t90.5 -196.5h-39q-21 27 -45.5 65t-45 88.5t-34 113.5t-13.5 138zM893 300q0 -75 -13.5 -138t-34 -113.5t-45 -88.5t-45.5 -65h-39q66 95 91.5 197t25.5 208
q0 104 -25 207.5t-92 197.5h39q22 -28 46 -66.5t44.5 -89t34 -112.5t13.5 -137zM279 520h73v-51q13 13 29 26t35.5 23t43 14.5t52.5 1.5q33 -4 56 -20t37.5 -38t21.5 -47t7 -47v-318h-73v284q0 59 -23 85t-70 26q-24 0 -45.5 -10t-37 -27t-24.5 -39.5t-9 -48.5v-270h-73v456
z" />
    <glyph glyph-name="uni24AA" unicode="&#x24aa;" 
d="M22 300q0 75 13.5 137t34 112.5t44.5 89t46 66.5h39q-67 -94 -91.5 -197.5t-24.5 -207.5q0 -106 25.5 -208.5t90.5 -196.5h-39q-21 27 -45.5 65t-45 88.5t-34 113.5t-13.5 138zM893 300q0 -75 -13.5 -138t-34 -113.5t-45 -88.5t-45.5 -65h-39q66 95 91.5 197t25.5 208
q0 104 -25 207.5t-92 197.5h39q22 -28 46 -66.5t44.5 -89t34 -112.5t13.5 -137zM457 543q47 0 85 -19.5t64.5 -52.5t40.5 -77.5t14 -94.5t-14 -94.5t-40.5 -77.5t-64.5 -52.5t-85 -19.5t-84.5 19.5t-64 52.5t-40.5 77.5t-14 94.5t14 94.5t40.5 77.5t64 52.5t84.5 19.5z
M457 475q-28 0 -51 -14t-39 -38t-25 -56t-9 -68t9 -68t25 -56t39 -38t51 -14t51.5 14t39.5 38t25 56t9 68t-9 68t-25 56t-39.5 38t-51.5 14z" />
    <glyph glyph-name="uni24AB" unicode="&#x24ab;" 
d="M22 300q0 75 13.5 137t34 112.5t44.5 89t46 66.5h39q-67 -94 -91.5 -197.5t-24.5 -207.5q0 -106 25.5 -208.5t90.5 -196.5h-39q-21 27 -45.5 65t-45 88.5t-34 113.5t-13.5 138zM893 300q0 -75 -13.5 -138t-34 -113.5t-45 -88.5t-45.5 -65h-39q66 95 91.5 197t25.5 208
q0 104 -25 207.5t-92 197.5h39q22 -28 46 -66.5t44.5 -89t34 -112.5t13.5 -137zM354 -5h-73v608h73v-46q26 29 60 45.5t76 16.5q43 0 78 -18t60.5 -50.5t39.5 -77t14 -98.5t-14 -99t-39.5 -77t-60.5 -50t-78 -18q-42 0 -76 16.5t-60 45.5v-198zM478 548q-59 0 -91.5 -48
t-32.5 -125t32.5 -125t91.5 -48q29 0 52 12.5t39 35.5t24.5 55t8.5 70t-8.5 70t-24.5 55t-39 35.5t-52 12.5z" />
    <glyph glyph-name="uni24AC" unicode="&#x24ac;" 
d="M22 300q0 75 13.5 137t34 112.5t44.5 89t46 66.5h39q-67 -94 -91.5 -197.5t-24.5 -207.5q0 -106 25.5 -208.5t90.5 -196.5h-39q-21 27 -45.5 65t-45 88.5t-34 113.5t-13.5 138zM893 300q0 -75 -13.5 -138t-34 -113.5t-45 -88.5t-45.5 -65h-39q66 95 91.5 197t25.5 208
q0 104 -25 207.5t-92 197.5h39q22 -28 46 -66.5t44.5 -89t34 -112.5t13.5 -137zM558 193q-25 -29 -58.5 -45.5t-75.5 -16.5q-43 0 -78.5 18t-61 50t-39.5 77t-14 99t14 98.5t39.5 77t61 50.5t78.5 18q42 0 75.5 -16.5t58.5 -45.5v46h74v-608h-74v198zM435 548
q-29 0 -52 -12.5t-39 -35.5t-24.5 -55t-8.5 -70t8.5 -70t24.5 -55t39 -35.5t52 -12.5q59 0 91 48t32 125t-32 125t-91 48z" />
    <glyph glyph-name="uni24AD" unicode="&#x24ad;" 
d="M22 300q0 75 13.5 137t34 112.5t44.5 89t46 66.5h39q-67 -94 -91.5 -197.5t-24.5 -207.5q0 -106 25.5 -208.5t90.5 -196.5h-39q-21 27 -45.5 65t-45 88.5t-34 113.5t-13.5 138zM893 300q0 -75 -13.5 -138t-34 -113.5t-45 -88.5t-45.5 -65h-39q66 95 91.5 197t25.5 208
q0 104 -25 207.5t-92 197.5h39q22 -28 46 -66.5t44.5 -89t34 -112.5t13.5 -137zM370 528h74v-70q16 29 33.5 45.5t43.5 29.5q19 8 38.5 9.5t21.5 1.5v-80q-20 0 -35 -2t-30 -10q-35 -20 -53.5 -55.5t-18.5 -95.5v-229h-74v456z" />
    <glyph glyph-name="uni24AE" unicode="&#x24ae;" 
d="M22 300q0 75 13.5 137t34 112.5t44.5 89t46 66.5h39q-67 -94 -91.5 -197.5t-24.5 -207.5q0 -106 25.5 -208.5t90.5 -196.5h-39q-21 27 -45.5 65t-45 88.5t-34 113.5t-13.5 138zM893 300q0 -75 -13.5 -138t-34 -113.5t-45 -88.5t-45.5 -65h-39q66 95 91.5 197t25.5 208
q0 104 -25 207.5t-92 197.5h39q22 -28 46 -66.5t44.5 -89t34 -112.5t13.5 -137zM352 212q5 -38 31.5 -61t79.5 -23q42 0 64.5 16t27.5 45q5 18 -6 35t-34 28q-35 16 -74 24.5t-65 19.5q-38 16 -60 45.5t-20 74.5q1 24 12 47t31.5 41t51 29t69.5 11q41 0 71.5 -13.5t51 -34
t30 -45.5t8.5 -47h-74q0 9 -3.5 21t-13.5 22.5t-28.5 18t-46.5 7.5q-24 0 -40 -5.5t-26 -14.5t-14.5 -19.5t-4.5 -20.5q0 -29 15.5 -40t39.5 -20q13 -5 30.5 -9.5t36.5 -10t38 -12t35 -14.5q29 -14 50 -42.5t19 -71.5q-2 -30 -16 -55t-36.5 -43.5t-53 -28.5t-64.5 -10
q-54 0 -89.5 17t-56.5 41t-29.5 51t-9.5 47h73z" />
    <glyph glyph-name="uni24AF" unicode="&#x24af;" 
d="M22 300q0 75 13.5 137t34 112.5t44.5 89t46 66.5h39q-67 -94 -91.5 -197.5t-24.5 -207.5q0 -106 25.5 -208.5t90.5 -196.5h-39q-21 27 -45.5 65t-45 88.5t-34 113.5t-13.5 138zM893 300q0 -75 -13.5 -138t-34 -113.5t-45 -88.5t-45.5 -65h-39q66 95 91.5 197t25.5 208
q0 104 -25 207.5t-92 197.5h39q22 -28 46 -66.5t44.5 -89t34 -112.5t13.5 -137zM491 131q0 -18 1.5 -29t12.5 -23q9 -9 22.5 -10.5t22.5 -1.5v-64h-49q-22 0 -38.5 10.5t-27.5 25.5q-6 7 -9.5 14.5t-5.5 16.5t-3 21.5t-1 29.5v274h-51v64h51v136h75v-136h59v-64h-59v-264z
" />
    <glyph glyph-name="uni24B0" unicode="&#x24b0;" 
d="M22 300q0 75 13.5 137t34 112.5t44.5 89t46 66.5h39q-67 -94 -91.5 -197.5t-24.5 -207.5q0 -106 25.5 -208.5t90.5 -196.5h-39q-21 27 -45.5 65t-45 88.5t-34 113.5t-13.5 138zM893 300q0 -75 -13.5 -138t-34 -113.5t-45 -88.5t-45.5 -65h-39q66 95 91.5 197t25.5 208
q0 104 -25 207.5t-92 197.5h39q22 -28 46 -66.5t44.5 -89t34 -112.5t13.5 -137zM636 79h-73v57q-19 -28 -54 -50.5t-84 -22.5q-26 0 -52 9.5t-46.5 29.5t-33 50t-12.5 71v312h73v-286q0 -60 26.5 -87t72.5 -24q47 3 78.5 35t31.5 93v269h73v-456z" />
    <glyph glyph-name="uni24B1" unicode="&#x24b1;" 
d="M22 300q0 75 13.5 137t34 112.5t44.5 89t46 66.5h39q-67 -94 -91.5 -197.5t-24.5 -207.5q0 -106 25.5 -208.5t90.5 -196.5h-39q-21 27 -45.5 65t-45 88.5t-34 113.5t-13.5 138zM893 300q0 -75 -13.5 -138t-34 -113.5t-45 -88.5t-45.5 -65h-39q66 95 91.5 197t25.5 208
q0 104 -25 207.5t-92 197.5h39q22 -28 46 -66.5t44.5 -89t34 -112.5t13.5 -137zM459 158l122 369h77l-155 -456h-89l-155 456h77z" />
    <glyph glyph-name="uni24B2" unicode="&#x24b2;" 
d="M22 300q0 75 13.5 137t34 112.5t44.5 89t46 66.5h39q-67 -94 -91.5 -197.5t-24.5 -207.5q0 -106 25.5 -208.5t90.5 -196.5h-39q-21 27 -45.5 65t-45 88.5t-34 113.5t-13.5 138zM893 300q0 -75 -13.5 -138t-34 -113.5t-45 -88.5t-45.5 -65h-39q66 95 91.5 197t25.5 208
q0 104 -25 207.5t-92 197.5h39q22 -28 46 -66.5t44.5 -89t34 -112.5t13.5 -137zM460 401l-82 -332h-82l-118 456h73l86 -350l81 350h82l82 -350l85 350h73l-118 -456h-81z" />
    <glyph glyph-name="uni24B3" unicode="&#x24b3;" 
d="M22 300q0 75 13.5 137t34 112.5t44.5 89t46 66.5h39q-67 -94 -91.5 -197.5t-24.5 -207.5q0 -106 25.5 -208.5t90.5 -196.5h-39q-21 27 -45.5 65t-45 88.5t-34 113.5t-13.5 138zM893 300q0 -75 -13.5 -138t-34 -113.5t-45 -88.5t-45.5 -65h-39q66 95 91.5 197t25.5 208
q0 104 -25 207.5t-92 197.5h39q22 -28 46 -66.5t44.5 -89t34 -112.5t13.5 -137zM501 304l154 -234h-85l-111 169l-112 -169h-85l154 234l-147 222h85l105 -157l104 157h85z" />
    <glyph glyph-name="uni24B4" unicode="&#x24b4;" 
d="M22 300q0 75 13.5 137t34 112.5t44.5 89t46 66.5h39q-67 -94 -91.5 -197.5t-24.5 -207.5q0 -106 25.5 -208.5t90.5 -196.5h-39q-21 27 -45.5 65t-45 88.5t-34 113.5t-13.5 138zM893 300q0 -75 -13.5 -138t-34 -113.5t-45 -88.5t-45.5 -65h-39q66 95 91.5 197t25.5 208
q0 104 -25 207.5t-92 197.5h39q22 -28 46 -66.5t44.5 -89t34 -112.5t13.5 -137zM457 250l126 353h74l-190 -533q-8 -22 -21.5 -38t-29.5 -25q-19 -10 -35.5 -11t-34.5 -1h-26v64h39q16 0 28 10t16 24l19 54l-163 456h76z" />
    <glyph glyph-name="uni24B5" unicode="&#x24b5;" 
d="M22 300q0 75 13.5 137t34 112.5t44.5 89t46 66.5h39q-67 -94 -91.5 -197.5t-24.5 -207.5q0 -106 25.5 -208.5t90.5 -196.5h-39q-21 27 -45.5 65t-45 88.5t-34 113.5t-13.5 138zM893 300q0 -75 -13.5 -138t-34 -113.5t-45 -88.5t-45.5 -65h-39q66 95 91.5 197t25.5 208
q0 104 -25 207.5t-92 197.5h39q22 -28 46 -66.5t44.5 -89t34 -112.5t13.5 -137zM628 464l-254 -328h269v-64h-356v64l254 328h-232v64h319v-64z" />
    <glyph glyph-name="uni24D0" unicode="&#x24d0;" 
d="M457 759q88 0 166 -36t135.5 -98.5t91 -146t33.5 -178.5t-33.5 -178.5t-91 -146t-135.5 -98.5t-166 -36t-165.5 36t-135 98.5t-91 146t-33.5 178.5t33.5 178.5t91 146t135 98.5t165.5 36zM457 718q-80 0 -149.5 -33t-121.5 -89.5t-82 -132.5t-30 -163t30 -163t82 -132.5
t121.5 -89.5t149.5 -33t150 33t122 89.5t82 132.5t30 163t-30 163t-82 132.5t-122 89.5t-150 33zM629 154q0 -29 7 -47t8 -19h-73q-14 25 -14 58q-20 -26 -56 -48.5t-85 -25.5q-29 -2 -55 4t-46.5 19.5t-34 34.5t-16.5 49q-4 29 1.5 53t18 42.5t31 31t39.5 19.5
q37 11 74 13.5t72 9.5q10 2 20 5.5t18 9.5t13.5 15t5.5 23q0 13 -5 27t-17 25.5t-31 19t-47 7.5q-54 0 -79 -24.5t-20 -56.5h-71q-3 34 10 61t37 45t56 27.5t67 9.5q34 0 65 -9.5t55 -27.5t38 -44t14 -58v-249zM557 317q-4 -6 -14.5 -11.5t-24.5 -8.5q-12 -3 -28.5 -5.5
t-33 -4.5t-31.5 -4.5t-23 -5.5q-33 -11 -51.5 -33t-13.5 -54q4 -33 30.5 -46t55.5 -11q33 3 58 15t42 28.5t25.5 35t8.5 34.5v71z" />
    <glyph glyph-name="uni24D1" unicode="&#x24d1;" 
d="M457 759q88 0 166 -36t135.5 -98.5t91 -146t33.5 -178.5t-33.5 -178.5t-91 -146t-135.5 -98.5t-166 -36t-165.5 36t-135 98.5t-91 146t-33.5 178.5t33.5 178.5t91 146t135 98.5t165.5 36zM457 718q-80 0 -149.5 -33t-121.5 -89.5t-82 -132.5t-30 -163t30 -163t82 -132.5
t121.5 -89.5t149.5 -33t150 33t122 89.5t82 132.5t30 163t-30 163t-82 132.5t-122 89.5t-150 33zM369 0h-72v600h72v-206q50 59 130 59q41 0 75 -17t58.5 -48t38 -74t13.5 -95t-13.5 -95t-38 -74t-58.5 -48t-75 -17t-73.5 15.5t-56.5 44.5v-45zM488 385q-57 0 -88 -46
t-31 -120t31 -120t88 -46t88 46t31 120t-31 120t-88 46z" />
    <glyph glyph-name="uni24D2" unicode="&#x24d2;" 
d="M457 759q88 0 166 -36t135.5 -98.5t91 -146t33.5 -178.5t-33.5 -178.5t-91 -146t-135.5 -98.5t-166 -36t-165.5 36t-135 98.5t-91 146t-33.5 178.5t33.5 178.5t91 146t135 98.5t165.5 36zM457 718q-80 0 -149.5 -33t-121.5 -89.5t-82 -132.5t-30 -163t30 -163t82 -132.5
t121.5 -89.5t149.5 -33t150 33t122 89.5t82 132.5t30 163t-30 163t-82 132.5t-122 89.5t-150 33zM647 211q-8 -29 -22.5 -56t-37 -47t-53.5 -32t-70 -12q-45 0 -81.5 18.5t-62 50.5t-39 74.5t-13.5 91.5q0 48 13.5 91t39 75t62 50.5t81.5 18.5q40 0 71.5 -13.5t55 -34.5
t37.5 -47.5t19 -52.5h-78q-3 13 -10.5 27.5t-20 26.5t-31 20t-43.5 8q-27 0 -49 -13.5t-38 -36.5t-24.5 -53.5t-8.5 -65.5t8.5 -66t24.5 -54t38 -36t49 -13q43 0 69 24.5t35 56.5h79z" />
    <glyph glyph-name="uni24D3" unicode="&#x24d3;" 
d="M457 759q88 0 166 -36t135.5 -98.5t91 -146t33.5 -178.5t-33.5 -178.5t-91 -146t-135.5 -98.5t-166 -36t-165.5 36t-135 98.5t-91 146t-33.5 178.5t33.5 178.5t91 146t135 98.5t165.5 36zM457 718q-80 0 -149.5 -33t-121.5 -89.5t-82 -132.5t-30 -163t30 -163t82 -132.5
t121.5 -89.5t149.5 -33t150 33t122 89.5t82 132.5t30 163t-30 163t-82 132.5t-122 89.5t-150 33zM547 46q-25 -28 -57.5 -44t-73.5 -16t-75 17t-58.5 48t-38 74t-13.5 95t13.5 95t38 74t58.5 48t75 17q80 0 131 -59v206h71v-600h-71v45zM427 386q-57 0 -88 -46t-31 -120
t31 -120t88 -46t88.5 46t31.5 120t-31.5 120t-88.5 46z" />
    <glyph glyph-name="uni24D4" unicode="&#x24d4;" 
d="M457 759q88 0 166 -36t135.5 -98.5t91 -146t33.5 -178.5t-33.5 -178.5t-91 -146t-135.5 -98.5t-166 -36t-165.5 36t-135 98.5t-91 146t-33.5 178.5t33.5 178.5t91 146t135 98.5t165.5 36zM457 718q-80 0 -149.5 -33t-121.5 -89.5t-82 -132.5t-30 -163t30 -163t82 -132.5
t121.5 -89.5t149.5 -33t150 33t122 89.5t82 132.5t30 163t-30 163t-82 132.5t-122 89.5t-150 33zM459 534q40 0 75.5 -16t62.5 -48.5t42 -81t14 -114.5h-313q1 -30 11 -56t26 -45.5t37.5 -31t44.5 -11.5t40 6t29 15.5t20 21t12 21.5h79q-7 -23 -20 -46t-34 -42t-51.5 -30.5
t-72.5 -11.5q-44 0 -80.5 18.5t-62.5 50.5t-40.5 74.5t-14.5 91.5q0 48 14 90.5t39.5 75t61.5 51t81 18.5zM575 336q-1 27 -10 51t-24 42t-36 28.5t-46 10.5q-49 0 -80.5 -36t-36.5 -96h233z" />
    <glyph glyph-name="uni24D5" unicode="&#x24d5;" 
d="M457 759q88 0 166 -36t135.5 -98.5t91 -146t33.5 -178.5t-33.5 -178.5t-91 -146t-135.5 -98.5t-166 -36t-165.5 36t-135 98.5t-91 146t-33.5 178.5t33.5 178.5t91 146t135 98.5t165.5 36zM457 718q-80 0 -149.5 -33t-121.5 -89.5t-82 -132.5t-30 -163t30 -163t82 -132.5
t121.5 -89.5t149.5 -33t150 33t122 89.5t82 132.5t30 163t-30 163t-82 132.5t-122 89.5t-150 33zM409 372h-48v62h48v48q0 33 3.5 48.5t13.5 30.5q11 14 27.5 24t37.5 10h47v-61q-9 0 -21.5 -0.5t-21.5 -9.5q-11 -11 -12.5 -23t-1.5 -29v-38h57v-62h-57v-377h-72v377z" />
    <glyph glyph-name="uni24D6" unicode="&#x24d6;" 
d="M457 759q88 0 166 -36t135.5 -98.5t91 -146t33.5 -178.5t-33.5 -178.5t-91 -146t-135.5 -98.5t-166 -36t-165.5 36t-135 98.5t-91 146t-33.5 178.5t33.5 178.5t91 146t135 98.5t165.5 36zM457 718q-80 0 -149.5 -33t-121.5 -89.5t-82 -132.5t-30 -163t30 -163t82 -132.5
t121.5 -89.5t149.5 -33t150 33t122 89.5t82 132.5t30 163t-30 163t-82 132.5t-122 89.5t-150 33zM562 587h70v-413q0 -50 -16 -84.5t-42 -55.5t-59 -30t-67 -9q-42 0 -75.5 12t-56.5 31.5t-36.5 45t-14.5 52.5h71q1 -14 8 -28t21 -25t34.5 -18t49.5 -7q57 0 85 29.5t28 85.5
v60q-26 -29 -59 -46t-70 -17q-39 0 -73 17t-59.5 46.5t-40 69t-14.5 83.5q0 45 13.5 84.5t38.5 68.5t59.5 46t75.5 17q38 0 70.5 -15t58.5 -43v43zM442 534q-54 0 -86.5 -40.5t-32.5 -107.5q0 -66 32.5 -106.5t86.5 -40.5t87 40.5t33 106.5q0 67 -33 107.5t-87 40.5z" />
    <glyph glyph-name="uni24D7" unicode="&#x24d7;" 
d="M457 759q88 0 166 -36t135.5 -98.5t91 -146t33.5 -178.5t-33.5 -178.5t-91 -146t-135.5 -98.5t-166 -36t-165.5 36t-135 98.5t-91 146t-33.5 178.5t33.5 178.5t91 146t135 98.5t165.5 36zM457 718q-80 0 -149.5 -33t-121.5 -89.5t-82 -132.5t-30 -163t30 -163t82 -132.5
t121.5 -89.5t149.5 -33t150 33t122 89.5t82 132.5t30 163t-30 163t-82 132.5t-122 89.5t-150 33zM286 599h72v-209q12 12 27 24.5t33.5 22t41.5 14t50 1.5q31 -4 53.5 -19t37 -36.5t21 -45.5t6.5 -46v-306h-72v275q0 55 -21.5 80.5t-66.5 25.5q-23 0 -43 -9.5t-35 -26
t-23.5 -38.5t-8.5 -47v-260h-72v600z" />
    <glyph glyph-name="uni24D8" unicode="&#x24d8;" 
d="M457 759q88 0 166 -36t135.5 -98.5t91 -146t33.5 -178.5t-33.5 -178.5t-91 -146t-135.5 -98.5t-166 -36t-165.5 36t-135 98.5t-91 146t-33.5 178.5t33.5 178.5t91 146t135 98.5t165.5 36zM457 718q-80 0 -149.5 -33t-121.5 -89.5t-82 -132.5t-30 -163t30 -163t82 -132.5
t121.5 -89.5t149.5 -33t150 33t122 89.5t82 132.5t30 163t-30 163t-82 132.5t-122 89.5t-150 33zM494 0h-72v438h72v-438zM494 523h-72v76h72v-76z" />
    <glyph glyph-name="uni24D9" unicode="&#x24d9;" 
d="M457 759q88 0 166 -36t135.5 -98.5t91 -146t33.5 -178.5t-33.5 -178.5t-91 -146t-135.5 -98.5t-166 -36t-165.5 36t-135 98.5t-91 146t-33.5 178.5t33.5 178.5t91 146t135 98.5t165.5 36zM457 718q-80 0 -149.5 -33t-121.5 -89.5t-82 -132.5t-30 -163t30 -163t82 -132.5
t121.5 -89.5t149.5 -33t150 33t122 89.5t82 132.5t30 163t-30 163t-82 132.5t-122 89.5t-150 33zM509 577h-73v77h73v-77zM509 56q0 -32 -4.5 -51t-13.5 -31q-10 -14 -28.5 -22t-43.5 -8h-40v61q10 0 22 0.5t23 10.5t11.5 22t0.5 29v426h73v-437z" />
    <glyph glyph-name="uni24DA" unicode="&#x24da;" 
d="M457 759q88 0 166 -36t135.5 -98.5t91 -146t33.5 -178.5t-33.5 -178.5t-91 -146t-135.5 -98.5t-166 -36t-165.5 36t-135 98.5t-91 146t-33.5 178.5t33.5 178.5t91 146t135 98.5t165.5 36zM457 718q-80 0 -149.5 -33t-121.5 -89.5t-82 -132.5t-30 -163t30 -163t82 -132.5
t121.5 -89.5t149.5 -33t150 33t122 89.5t82 132.5t30 163t-30 163t-82 132.5t-122 89.5t-150 33zM355 177v-178h-69v600h69v-338l181 177h84l-167 -164l199 -275h-80l-167 227z" />
    <glyph glyph-name="uni24DB" unicode="&#x24db;" 
d="M457 759q88 0 166 -36t135.5 -98.5t91 -146t33.5 -178.5t-33.5 -178.5t-91 -146t-135.5 -98.5t-166 -36t-165.5 36t-135 98.5t-91 146t-33.5 178.5t33.5 178.5t91 146t135 98.5t165.5 36zM457 718q-80 0 -149.5 -33t-121.5 -89.5t-82 -132.5t-30 -163t30 -163t82 -132.5
t121.5 -89.5t149.5 -33t150 33t122 89.5t82 132.5t30 163t-30 163t-82 132.5t-122 89.5t-150 33zM421 600h72v-600h-72v600z" />
    <glyph glyph-name="uni24DC" unicode="&#x24dc;" 
d="M457 759q88 0 166 -36t135.5 -98.5t91 -146t33.5 -178.5t-33.5 -178.5t-91 -146t-135.5 -98.5t-166 -36t-165.5 36t-135 98.5t-91 146t-33.5 178.5t33.5 178.5t91 146t135 98.5t165.5 36zM457 718q-80 0 -149.5 -33t-121.5 -89.5t-82 -132.5t-30 -163t30 -163t82 -132.5
t121.5 -89.5t149.5 -33t150 33t122 89.5t82 132.5t30 163t-30 163t-82 132.5t-122 89.5t-150 33zM493 77h-71v285q0 25 -2.5 44t-10 32t-21.5 18.5t-37 4.5q-39 -3 -62 -32t-23 -82v-270h-72v438h72v-51q9 12 20.5 25t27 23t35.5 15.5t46 2.5q29 -3 51.5 -20.5t34.5 -51.5
q7 9 18.5 22.5t28.5 25.5t40 19.5t55 4.5q28 -3 47.5 -17t30.5 -34t16 -45t5 -51v-306h-73v285q0 51 -12 76.5t-57 22.5q-40 -3 -63.5 -32t-23.5 -82v-270z" />
    <glyph glyph-name="uni24DD" unicode="&#x24dd;" 
d="M457 759q88 0 166 -36t135.5 -98.5t91 -146t33.5 -178.5t-33.5 -178.5t-91 -146t-135.5 -98.5t-166 -36t-165.5 36t-135 98.5t-91 146t-33.5 178.5t33.5 178.5t91 146t135 98.5t165.5 36zM457 718q-80 0 -149.5 -33t-121.5 -89.5t-82 -132.5t-30 -163t30 -163t82 -132.5
t121.5 -89.5t149.5 -33t150 33t122 89.5t82 132.5t30 163t-30 163t-82 132.5t-122 89.5t-150 33zM287 509h72v-47q12 12 27 24.5t33.5 22t41.5 14t50 1.5q31 -4 53.5 -19t37 -36.5t21 -45.5t6.5 -46v-306h-72v274q0 56 -21.5 81t-66.5 25q-23 0 -43 -9.5t-35 -25.5
t-23.5 -38t-8.5 -47v-260h-72v438z" />
    <glyph glyph-name="uni24DE" unicode="&#x24de;" 
d="M457 759q88 0 166 -36t135.5 -98.5t91 -146t33.5 -178.5t-33.5 -178.5t-91 -146t-135.5 -98.5t-166 -36t-165.5 36t-135 98.5t-91 146t-33.5 178.5t33.5 178.5t91 146t135 98.5t165.5 36zM457 718q-80 0 -149.5 -33t-121.5 -89.5t-82 -132.5t-30 -163t30 -163t82 -132.5
t121.5 -89.5t149.5 -33t150 33t122 89.5t82 132.5t30 163t-30 163t-82 132.5t-122 89.5t-150 33zM459 534q45 0 81 -18.5t61 -50.5t38.5 -74.5t13.5 -91.5t-13.5 -91.5t-38.5 -74.5t-61 -50.5t-81 -18.5q-46 0 -82 18.5t-61.5 50.5t-39 74.5t-13.5 91.5t13.5 91.5t39 74.5
t61.5 50.5t82 18.5zM459 468q-27 0 -49.5 -13.5t-38.5 -36.5t-24.5 -53.5t-8.5 -65.5t8.5 -65.5t24.5 -53.5t38.5 -36.5t49.5 -13.5t48.5 13.5t37.5 36.5t24.5 53.5t8.5 65.5t-8.5 65.5t-24.5 53.5t-37.5 36.5t-48.5 13.5z" />
    <glyph glyph-name="uni24DF" unicode="&#x24df;" 
d="M457 759q88 0 166 -36t135.5 -98.5t91 -146t33.5 -178.5t-33.5 -178.5t-91 -146t-135.5 -98.5t-166 -36t-165.5 36t-135 98.5t-91 146t-33.5 178.5t33.5 178.5t91 146t135 98.5t165.5 36zM457 718q-80 0 -149.5 -33t-121.5 -89.5t-82 -132.5t-30 -163t30 -163t82 -132.5
t121.5 -89.5t149.5 -33t150 33t122 89.5t82 132.5t30 163t-30 163t-82 132.5t-122 89.5t-150 33zM361 5h-70v584h70v-45q25 29 58 44.5t73 15.5q41 0 75 -17t58 -48t37.5 -74t13.5 -95t-13.5 -95.5t-37.5 -74.5t-58 -48t-75 -17q-40 0 -73 16t-58 44v-190zM481 535
q-57 0 -88.5 -46t-31.5 -119q0 -74 31.5 -120.5t88.5 -46.5q56 0 88 46.5t32 120.5q0 73 -32 119t-88 46z" />
    <glyph glyph-name="uni24E0" unicode="&#x24e0;" 
d="M457 759q88 0 166 -36t135.5 -98.5t91 -146t33.5 -178.5t-33.5 -178.5t-91 -146t-135.5 -98.5t-166 -36t-165.5 36t-135 98.5t-91 146t-33.5 178.5t33.5 178.5t91 146t135 98.5t165.5 36zM457 718q-80 0 -149.5 -33t-121.5 -89.5t-82 -132.5t-30 -163t30 -163t82 -132.5
t121.5 -89.5t149.5 -33t150 33t122 89.5t82 132.5t30 163t-30 163t-82 132.5t-122 89.5t-150 33zM545 197q-25 -28 -58 -44t-73 -16q-41 0 -75 17t-58 48t-37.5 74.5t-13.5 95.5t13.5 95t37.5 74t58 48t75 17q40 0 73 -15.5t58 -44.5v45h70v-584h-70v190zM425 537
q-57 0 -88.5 -46t-31.5 -119q0 -74 31.5 -120.5t88.5 -46.5t88.5 46.5t31.5 120.5q0 73 -31.5 119t-88.5 46z" />
    <glyph glyph-name="uni24E1" unicode="&#x24e1;" 
d="M457 759q88 0 166 -36t135.5 -98.5t91 -146t33.5 -178.5t-33.5 -178.5t-91 -146t-135.5 -98.5t-166 -36t-165.5 36t-135 98.5t-91 146t-33.5 178.5t33.5 178.5t91 146t135 98.5t165.5 36zM457 718q-80 0 -149.5 -33t-121.5 -89.5t-82 -132.5t-30 -163t30 -163t82 -132.5
t121.5 -89.5t149.5 -33t150 33t122 89.5t82 132.5t30 163t-30 163t-82 132.5t-122 89.5t-150 33zM384 502h70v-67q15 27 32 43t43 29q9 4 18.5 6t18.5 3t15 1h7v-76q-19 0 -34.5 -2t-30.5 -10q-33 -20 -51 -53.5t-18 -92.5v-219h-70v438z" />
    <glyph glyph-name="uni24E2" unicode="&#x24e2;" 
d="M457 759q88 0 166 -36t135.5 -98.5t91 -146t33.5 -178.5t-33.5 -178.5t-91 -146t-135.5 -98.5t-166 -36t-165.5 36t-135 98.5t-91 146t-33.5 178.5t33.5 178.5t91 146t135 98.5t165.5 36zM457 718q-80 0 -149.5 -33t-121.5 -89.5t-82 -132.5t-30 -163t30 -163t82 -132.5
t121.5 -89.5t149.5 -33t150 33t122 89.5t82 132.5t30 163t-30 163t-82 132.5t-122 89.5t-150 33zM356 216q5 -37 30.5 -59t76.5 -22q40 0 62 15.5t27 43.5q3 17 -6.5 33.5t-32.5 26.5q-17 7 -35 12.5t-36 10t-34.5 9t-28.5 10.5q-35 15 -57 43.5t-20 72.5q1 23 12 45t31 39
t48.5 27.5t65.5 10.5q40 0 69.5 -13t49 -32.5t29 -43t8.5 -45.5h-71q1 9 -2.5 20t-13.5 21.5t-28 17.5t-45 7q-23 0 -38 -5.5t-24.5 -14t-14 -19t-4.5 -19.5q-1 -27 14 -38t38 -19q25 -9 64 -19t71 -25q28 -14 48 -41t19 -68q-2 -29 -15.5 -53.5t-35 -42t-51 -27.5
t-62.5 -10q-52 0 -86 16.5t-54.5 40t-28.5 49t-8 45.5h69z" />
    <glyph glyph-name="uni24E3" unicode="&#x24e3;" 
d="M457 759q88 0 166 -36t135.5 -98.5t91 -146t33.5 -178.5t-33.5 -178.5t-91 -146t-135.5 -98.5t-166 -36t-165.5 36t-135 98.5t-91 146t-33.5 178.5t33.5 178.5t91 146t135 98.5t165.5 36zM457 718q-80 0 -149.5 -33t-121.5 -89.5t-82 -132.5t-30 -163t30 -163t82 -132.5
t121.5 -89.5t149.5 -33t150 33t122 89.5t82 132.5t30 163t-30 163t-82 132.5t-122 89.5t-150 33zM487 140q0 -18 0.5 -28.5t11.5 -22.5q8 -8 21 -9t23 -1v-63h-48q-21 0 -37 10.5t-27 24.5t-14 30t-3 49v263h-49v63h49v130h73v-130h56v-63h-56v-253z" />
    <glyph glyph-name="uni24E4" unicode="&#x24e4;" 
d="M457 759q88 0 166 -36t135.5 -98.5t91 -146t33.5 -178.5t-33.5 -178.5t-91 -146t-135.5 -98.5t-166 -36t-165.5 36t-135 98.5t-91 146t-33.5 178.5t33.5 178.5t91 146t135 98.5t165.5 36zM457 718q-80 0 -149.5 -33t-121.5 -89.5t-82 -132.5t-30 -163t30 -163t82 -132.5
t121.5 -89.5t149.5 -33t150 33t122 89.5t82 132.5t30 163t-30 163t-82 132.5t-122 89.5t-150 33zM627 89h-72v54q-17 -27 -50.5 -48.5t-81.5 -21.5q-24 0 -48.5 9.5t-44 28.5t-32 48t-12.5 68v300h69v-275q0 -57 26 -83.5t71 -23.5t74 33.5t29 89.5v259h72v-438z" />
    <glyph glyph-name="uni24E5" unicode="&#x24e5;" 
d="M457 759q88 0 166 -36t135.5 -98.5t91 -146t33.5 -178.5t-33.5 -178.5t-91 -146t-135.5 -98.5t-166 -36t-165.5 36t-135 98.5t-91 146t-33.5 178.5t33.5 178.5t91 146t135 98.5t165.5 36zM457 718q-80 0 -149.5 -33t-121.5 -89.5t-82 -132.5t-30 -163t30 -163t82 -132.5
t121.5 -89.5t149.5 -33t150 33t122 89.5t82 132.5t30 163t-30 163t-82 132.5t-122 89.5t-150 33zM459 138l117 355h75l-150 -439h-85l-150 439h75z" />
    <glyph glyph-name="uni24E6" unicode="&#x24e6;" 
d="M457 759q88 0 166 -36t135.5 -98.5t91 -146t33.5 -178.5t-33.5 -178.5t-91 -146t-135.5 -98.5t-166 -36t-165.5 36t-135 98.5t-91 146t-33.5 178.5t33.5 178.5t91 146t135 98.5t165.5 36zM457 718q-80 0 -149.5 -33t-121.5 -89.5t-82 -132.5t-30 -163t30 -163t82 -132.5
t121.5 -89.5t149.5 -33t150 33t122 89.5t82 132.5t30 163t-30 163t-82 132.5t-122 89.5t-150 33zM456 375l-78 -319h-78l-115 438h73l81 -336l78 336h79l78 -336l82 336h71l-114 -438h-77z" />
    <glyph glyph-name="uni24E7" unicode="&#x24e7;" 
d="M457 759q88 0 166 -36t135.5 -98.5t91 -146t33.5 -178.5t-33.5 -178.5t-91 -146t-135.5 -98.5t-166 -36t-165.5 36t-135 98.5t-91 146t-33.5 178.5t33.5 178.5t91 146t135 98.5t165.5 36zM457 718q-80 0 -149.5 -33t-121.5 -89.5t-82 -132.5t-30 -163t30 -163t82 -132.5
t121.5 -89.5t149.5 -33t150 33t122 89.5t82 132.5t30 163t-30 163t-82 132.5t-122 89.5t-150 33zM500 300l148 -224h-83l-106 162l-108 -162h-82l147 224l-139 214h82l100 -151l99 151h82z" />
    <glyph glyph-name="uni24E8" unicode="&#x24e8;" 
d="M457 759q88 0 166 -36t135.5 -98.5t91 -146t33.5 -178.5t-33.5 -178.5t-91 -146t-135.5 -98.5t-166 -36t-165.5 36t-135 98.5t-91 146t-33.5 178.5t33.5 178.5t91 146t135 98.5t165.5 36zM457 718q-80 0 -149.5 -33t-121.5 -89.5t-82 -132.5t-30 -163t30 -163t82 -132.5
t121.5 -89.5t149.5 -33t150 33t122 89.5t82 132.5t30 163t-30 163t-82 132.5t-122 89.5t-150 33zM467 227l121 339h71l-184 -513q-7 -20 -20 -35.5t-30 -23.5q-17 -11 -32.5 -12t-32.5 -1h-25v61h36q17 0 28 10t16 24l19 52l-158 438h73z" />
    <glyph glyph-name="uni24E9" unicode="&#x24e9;" 
d="M457 759q88 0 166 -36t135.5 -98.5t91 -146t33.5 -178.5t-33.5 -178.5t-91 -146t-135.5 -98.5t-166 -36t-165.5 36t-135 98.5t-91 146t-33.5 178.5t33.5 178.5t91 146t135 98.5t165.5 36zM457 718q-80 0 -149.5 -33t-121.5 -89.5t-82 -132.5t-30 -163t30 -163t82 -132.5
t121.5 -89.5t149.5 -33t150 33t122 89.5t82 132.5t30 163t-30 163t-82 132.5t-122 89.5t-150 33zM615 457l-245 -314h259v-63h-342v63l244 314h-223v63h307v-63z" />
    <glyph glyph-name="SF100000" unicode="&#x2500;" 
d="M0 319h910v-38h-910v38z" />
    <glyph glyph-name="uni2501" unicode="&#x2501;" 
d="M0 338h910v-75h-910v75z" />
    <glyph glyph-name="SF110000" unicode="&#x2502;" 
d="M440 800h35v-1000h-35v1000z" />
    <glyph glyph-name="uni2503" unicode="&#x2503;" 
d="M423 800h70v-1000h-70v1000z" />
    <glyph glyph-name="SF010000" unicode="&#x250c;" 
d="M435 319h475v-38h-439v-481h-36v519z" />
    <glyph glyph-name="uni250D" unicode="&#x250d;" 
d="M435 338h475v-75h-439v-463h-36v538z" />
    <glyph glyph-name="uni250E" unicode="&#x250e;" 
d="M489 281v-481h-70v519h491v-38h-421z" />
    <glyph glyph-name="uni250F" unicode="&#x250f;" 
d="M419 338h491v-75h-421v-463h-70v538z" />
    <glyph glyph-name="SF030000" unicode="&#x2510;" 
d="M2 281v38h478v-519h-36v481h-442z" />
    <glyph glyph-name="uni2511" unicode="&#x2511;" 
d="M444 263h-444v75h480v-538h-36v463z" />
    <glyph glyph-name="uni2512" unicode="&#x2512;" 
d="M427 281h-427v38h497v-519h-70v481z" />
    <glyph glyph-name="uni2513" unicode="&#x2513;" 
d="M0 338h497v-538h-70v463h-427v75z" />
    <glyph glyph-name="SF020000" unicode="&#x2514;" 
d="M435 800h36v-481h439v-38h-475v519z" />
    <glyph glyph-name="uni2515" unicode="&#x2515;" 
d="M471 338h439v-75h-475v537h36v-462z" />
    <glyph glyph-name="uni2516" unicode="&#x2516;" 
d="M489 319h421v-38h-491v519h70v-481z" />
    <glyph glyph-name="uni2517" unicode="&#x2517;" 
d="M419 800h70v-462h421v-75h-491v537z" />
    <glyph glyph-name="SF040000" unicode="&#x2518;" 
d="M444 800h36v-519h-480v38h444v481z" />
    <glyph glyph-name="uni2519" unicode="&#x2519;" 
d="M444 338v462h36v-537h-480v75h444z" />
    <glyph glyph-name="uni251A" unicode="&#x251a;" 
d="M427 319v481h70v-519h-497v38h427z" />
    <glyph glyph-name="uni251B" unicode="&#x251b;" 
d="M427 800h70v-537h-497v75h427v462z" />
    <glyph glyph-name="SF080000" unicode="&#x251c;" 
d="M435 800h36v-481h439v-38h-439v-481h-36v1000z" />
    <glyph glyph-name="uni251D" unicode="&#x251d;" 
d="M910 338v-75h-439v-463h-36v1000h36v-462h439z" />
    <glyph glyph-name="uni251E" unicode="&#x251e;" 
d="M419 800h70v-481h421v-38h-439v-481h-36v481h-16v519z" />
    <glyph glyph-name="uni251F" unicode="&#x251f;" 
d="M435 800h36v-481h439v-38h-421v-481h-70v519h16v481z" />
    <glyph glyph-name="uni2520" unicode="&#x2520;" 
d="M910 319v-38h-421v-481h-70v1000h70v-481h421z" />
    <glyph glyph-name="uni2521" unicode="&#x2521;" 
d="M435 -200v463h-16v537h70v-462h421v-75h-439v-463h-36z" />
    <glyph glyph-name="uni2522" unicode="&#x2522;" 
d="M419 -200v538h16v462h36v-462h439v-75h-421v-463h-70z" />
    <glyph glyph-name="uni2523" unicode="&#x2523;" 
d="M419 800h70v-462h421v-75h-421v-463h-70v1000z" />
    <glyph glyph-name="SF090000" unicode="&#x2524;" 
d="M480 800v-1000h-36v481h-444v38h444v481h36z" />
    <glyph glyph-name="uni2525" unicode="&#x2525;" 
d="M444 338v462h36v-1000h-36v463h-444v75h444z" />
    <glyph glyph-name="uni2526" unicode="&#x2526;" 
d="M427 800h70v-519h-18v-481h-35v481h-444v38h427v481z" />
    <glyph glyph-name="uni2527" unicode="&#x2527;" 
d="M0 319h444v481h35v-481h18v-519h-70v481h-427v38z" />
    <glyph glyph-name="uni2528" unicode="&#x2528;" 
d="M497 -200h-70v481h-427v38h427v481h70v-1000z" />
    <glyph glyph-name="uni2529" unicode="&#x2529;" 
d="M0 263v75h427v462h70v-537h-18v-463h-35v463h-444z" />
    <glyph glyph-name="uni252A" unicode="&#x252a;" 
d="M0 263v75h444v462h35v-462h18v-538h-70v463h-427z" />
    <glyph glyph-name="uni252B" unicode="&#x252b;" 
d="M0 263v75h427v462h70v-1000h-70v463h-427z" />
    <glyph glyph-name="SF060000" unicode="&#x252c;" 
d="M0 319h910v-38h-435v-481h-35v481h-440v38z" />
    <glyph glyph-name="uni252D" unicode="&#x252d;" 
d="M0 263v75h475v-19h435v-38h-435v-481h-35v463h-440z" />
    <glyph glyph-name="uni252E" unicode="&#x252e;" 
d="M0 281v38h440v19h470v-75h-435v-463h-35v481h-440z" />
    <glyph glyph-name="uni252F" unicode="&#x252f;" 
d="M910 338v-75h-435v-463h-35v463h-440v75h910z" />
    <glyph glyph-name="uni2530" unicode="&#x2530;" 
d="M910 319v-38h-417v-481h-70v481h-423v38h910z" />
    <glyph glyph-name="uni2531" unicode="&#x2531;" 
d="M0 263v75h493v-19h417v-38h-417v-481h-70v463h-423z" />
    <glyph glyph-name="uni2532" unicode="&#x2532;" 
d="M0 281v38h423v19h487v-75h-417v-463h-70v481h-423z" />
    <glyph glyph-name="uni2533" unicode="&#x2533;" 
d="M0 263v75h910v-75h-417v-463h-70v463h-423z" />
    <glyph glyph-name="SF070000" unicode="&#x2534;" 
d="M440 800h35v-481h435v-38h-910v38h440v481z" />
    <glyph glyph-name="uni2535" unicode="&#x2535;" 
d="M0 263v75h440v462h35v-481h435v-38h-435v-18h-475z" />
    <glyph glyph-name="uni2536" unicode="&#x2536;" 
d="M0 281v38h440v481h35v-462h435v-75h-470v18h-440z" />
    <glyph glyph-name="uni2537" unicode="&#x2537;" 
d="M440 338v462h35v-462h435v-75h-910v75h440z" />
    <glyph glyph-name="uni2538" unicode="&#x2538;" 
d="M423 319v481h70v-481h417v-38h-910v38h423z" />
    <glyph glyph-name="uni2539" unicode="&#x2539;" 
d="M0 263v75h423v462h70v-481h417v-38h-417v-18h-493z" />
    <glyph glyph-name="uni253A" unicode="&#x253a;" 
d="M0 281v38h423v481h70v-462h417v-75h-487v18h-423z" />
    <glyph glyph-name="uni253B" unicode="&#x253b;" 
d="M423 338v462h70v-462h417v-75h-910v75h423z" />
    <glyph glyph-name="SF050000" unicode="&#x253c;" 
d="M440 800h35v-481h435v-38h-435v-481h-35v481h-440v38h440v481z" />
    <glyph glyph-name="uni253D" unicode="&#x253d;" 
d="M0 263v75h440v462h35v-481h435v-38h-435v-481h-35v463h-440z" />
    <glyph glyph-name="uni253E" unicode="&#x253e;" 
d="M475 800v-462h435v-75h-435v-463h-35v481h-440v38h440v481h35z" />
    <glyph glyph-name="uni253F" unicode="&#x253f;" 
d="M440 338v462h35v-462h435v-75h-435v-463h-35v463h-440v75h440z" />
    <glyph glyph-name="uni2540" unicode="&#x2540;" 
d="M493 800v-481h417v-38h-435v-481h-35v481h-440v38h423v481h70z" />
    <glyph glyph-name="uni2541" unicode="&#x2541;" 
d="M475 800v-481h435v-38h-417v-481h-70v481h-423v38h440v481h35z" />
    <glyph glyph-name="uni2542" unicode="&#x2542;" 
d="M423 319v481h70v-481h417v-38h-417v-481h-70v481h-423v38h423z" />
    <glyph glyph-name="uni2543" unicode="&#x2543;" 
d="M493 800v-481h417v-38h-417v-18h-18v-463h-35v463h-440v75h423v462h70z" />
    <glyph glyph-name="uni2544" unicode="&#x2544;" 
d="M475 -200h-35v463h-17v18h-423v38h423v481h70v-462h417v-75h-435v-463z" />
    <glyph glyph-name="uni2545" unicode="&#x2545;" 
d="M475 800v-462h18v-19h417v-38h-417v-481h-70v463h-423v75h440v462h35z" />
    <glyph glyph-name="uni2546" unicode="&#x2546;" 
d="M475 800v-462h435v-75h-417v-463h-70v481h-423v38h423v19h17v462h35z" />
    <glyph glyph-name="uni2547" unicode="&#x2547;" 
d="M493 800v-462h417v-75h-435v-463h-35v463h-440v75h423v462h70z" />
    <glyph glyph-name="uni2548" unicode="&#x2548;" 
d="M475 800v-462h435v-75h-417v-463h-70v463h-423v75h440v462h35z" />
    <glyph glyph-name="uni2549" unicode="&#x2549;" 
d="M493 800v-481h417v-38h-417v-481h-70v463h-423v75h423v462h70z" />
    <glyph glyph-name="uni254A" unicode="&#x254a;" 
d="M493 800v-462h417v-75h-417v-463h-70v481h-423v38h423v481h70z" />
    <glyph glyph-name="uni254B" unicode="&#x254b;" 
d="M423 338v462h70v-462h417v-75h-417v-463h-70v463h-423v75h423z" />
    <glyph glyph-name="shade" unicode="&#x2592;" 
d="M56 -90v780h802v-780h-802zM818 651h-722v-702h722v702zM726 596q0 -11 -7.5 -17.5t-18.5 -6.5t-17.5 6.5t-6.5 17.5q0 10 6.5 17.5t17.5 7.5t18.5 -7t7.5 -18zM565 596q0 -11 -8.5 -17.5t-19.5 -6.5t-18 6.5t-7 17.5q0 10 7 17.5t18 7.5t19.5 -7t8.5 -18zM768 399
q0 -11 -7.5 -18t-18.5 -7q-25 0 -25 25q0 10 6.5 16.5t17.5 6.5q12 0 19.5 -6.5t7.5 -16.5zM626 399q0 -11 -7.5 -18t-18.5 -7q-25 0 -25 25q0 10 6.5 17t18.5 7q11 0 18.5 -7t7.5 -17zM400 595q0 -10 -6.5 -16.5t-17.5 -6.5t-18.5 6t-7.5 17t7 18t18 7q25 0 25 -25z
M706 201q0 -11 -7 -17.5t-20 -6.5q-10 0 -16.5 6.5t-6.5 17.5t6.5 18t16.5 7q12 0 19.5 -7t7.5 -18zM482 399q0 -11 -7.5 -18t-19.5 -7q-10 0 -16.5 7t-6.5 18q0 10 6.5 17t16.5 7q12 0 19.5 -7t7.5 -17zM239 596q0 -11 -7.5 -17.5t-19.5 -6.5q-11 0 -17.5 6.5t-6.5 17.5
q0 10 6.5 17.5t17.5 7.5t19 -7t8 -18zM769 4q0 -11 -8 -18t-20 -7q-11 0 -17.5 7t-6.5 18t6.5 17.5t17.5 6.5q28 0 28 -24zM554 201q0 -11 -8 -17.5t-19 -6.5t-18 6.5t-7 17.5t7 18t18 7q12 0 19.5 -7t7.5 -18zM339 398q0 -11 -7 -17.5t-18 -6.5q-24 0 -24 24q0 11 6.5 17.5
t17.5 6.5t18 -6.5t7 -17.5zM626 4q0 -11 -8 -18t-18 -7q-25 0 -25 25q0 11 6.5 17.5t18.5 6.5q11 0 18.5 -6.5t7.5 -17.5zM199 399q0 -25 -26 -25q-11 0 -18 7t-7 18q0 10 7 17t18 7t18.5 -6.5t7.5 -17.5zM391 200q0 -10 -6.5 -16.5t-17.5 -6.5q-26 0 -26 23q0 25 25 25
t25 -25zM481 4q0 -11 -7 -18t-19 -7q-11 0 -18 7t-7 18t7 17.5t18 6.5t18.5 -6.5t7.5 -17.5zM251 201q0 -11 -7.5 -17.5t-19.5 -6.5q-11 0 -17.5 6.5t-6.5 17.5t6.5 18t17.5 7t19 -7t8 -18zM339 4q0 -25 -25 -25q-11 0 -18.5 7t-7.5 18t7.5 17.5t18.5 6.5t18 -6.5t7 -17.5z
M198 4q0 -11 -7 -18t-18 -7q-26 0 -26 25q0 11 7 17.5t19 6.5q11 0 18 -6.5t7 -17.5z" />
    <glyph glyph-name="filledbox" unicode="&#x25a0;" 
d="M70 -76v752h774v-752h-774z" />
    <glyph glyph-name="H22073" unicode="&#x25a1;" 
d="M68 678h778v-756h-778v756zM119 628v-656h677v656h-677z" />
    <glyph glyph-name="uni25A3" unicode="&#x25a3;" 
d="M59 -102v810h798v-810h-798zM806 663h-692v-717h692v717zM249 89v428h421v-428h-421z" />
    <glyph glyph-name="uni25A4" unicode="&#x25a4;" 
d="M56 -90v780h802v-780h-802zM818 651h-722v-139h722v139zM818 473h-722v-153h722v153zM818 280h-722v-153h722v153zM818 88h-722v-139h722v139z" />
    <glyph glyph-name="uni25A5" unicode="&#x25a5;" 
d="M56 -90v780h802v-780h-802zM818 651h-142v-702h142v702zM635 651h-157v-702h157v702zM436 651h-157v-702h157v702zM239 651h-143v-702h143v702z" />
    <glyph glyph-name="uni25A6" unicode="&#x25a6;" 
d="M55 -90v781h803v-781h-803zM817 649h-155v-148h155v148zM626 649h-154v-148h154v148zM817 465h-155v-146h155v146zM435 649h-153v-148h153v148zM626 465h-154v-146h154v146zM817 282h-155v-147h155v147zM245 649h-149v-148h149v148zM435 465h-153v-146h153v146zM626 282
h-154v-147h154v147zM817 99h-155v-147h155v147zM245 465h-149v-146h149v146zM435 282h-153v-147h153v147zM626 99h-154v-147h154v147zM245 282h-149v-147h149v147zM435 99h-153v-147h153v147zM245 99h-149v-147h149v147z" />
    <glyph glyph-name="uni25A7" unicode="&#x25a7;" 
d="M56 -90v780h802v-780h-802zM818 651h-147l147 -143v143zM818 452l-205 199h-201l406 -395v196zM818 201l-463 450h-223l686 -667v217zM98 628v-216l476 -463h223zM98 353v-193l216 -211h202zM98 105v-156h160z" />
    <glyph glyph-name="uni25A8" unicode="&#x25a8;" 
d="M56 -90v780h802v-780h-802zM558 651l-462 -450v-217l686 667h-224zM96 651v-143l147 143h-147zM301 651l-205 -199v-196l405 395h-200zM657 -51h159v156zM816 628l-699 -679h224l475 463v216zM816 353l-418 -404h202l216 211v193z" />
    <glyph glyph-name="uni25A9" unicode="&#x25a9;" 
d="M56 -92v780h802v-780h-802zM602 649l97 -95l98 95h-195zM818 628l-97 -95l97 -95v190zM577 630l-98 -97l98 -97l100 97zM699 512l-99 -97l99 -96l100 96zM360 649l97 -95l98 95h-195zM818 393l-97 -95l97 -95v190zM337 630l-100 -97l100 -97l98 97zM457 512l-99 -97
l99 -96l99 96zM577 395l-98 -97l98 -97l100 97zM699 277l-99 -96l99 -97l100 97zM117 649l98 -95l98 95h-196zM818 158l-97 -95l97 -95v190zM96 628v-190l98 95zM699 42l-97 -95h195zM215 512l-100 -97l100 -96l99 96zM337 395l-100 -97l100 -97l98 97zM457 277l-99 -96
l99 -97l99 97zM577 160l-98 -97l98 -97l100 97zM457 42l-97 -95h195zM96 393v-190l98 95zM337 160l-100 -97l100 -97l98 97zM215 277l-100 -96l100 -97l99 97zM96 158v-190l98 95zM215 42l-98 -95h196z" />
    <glyph glyph-name="triagup" unicode="&#x25b2;" 
d="M8 -72l449 754l449 -754h-898z" />
    <glyph glyph-name="uni25B3" unicode="&#x25b3;" 
d="M457 687l453 -761h-906zM96 -25h722l-361 609z" />
    <glyph glyph-name="uni25B6" unicode="&#x25b6;" 
d="M93 -136v880l784 -441z" />
    <glyph glyph-name="uni25B7" unicode="&#x25b7;" 
d="M83 -136v880l784 -441zM134 655v-702l626 350z" />
    <glyph glyph-name="triagdn" unicode="&#x25bc;" 
d="M457 -81l-449 754h898z" />
    <glyph glyph-name="uni25BD" unicode="&#x25bd;" 
d="M4 675h906l-453 -761zM457 17l361 609h-722z" />
    <glyph glyph-name="uni25C0" unicode="&#x25c0;" 
d="M37 303l784 441v-880z" />
    <glyph glyph-name="uni25C1" unicode="&#x25c1;" 
d="M37 303l784 441v-880zM770 655l-627 -352l627 -350v702z" />
    <glyph glyph-name="uni25C6" unicode="&#x25c6;" 
d="M457 -130l-443 430l443 430l443 -430z" />
    <glyph glyph-name="uni25C7" unicode="&#x25c7;" 
d="M10 300l447 434l447 -434l-447 -434zM84 300l373 -363l373 363l-373 363z" />
    <glyph glyph-name="uni25C8" unicode="&#x25c8;" 
d="M455 -179l-462 474l468 477l462 -473zM460 700l-396 -404l392 -404l396 406zM455 26l-261 268l268 275l260 -270z" />
    <glyph glyph-name="circle" unicode="&#x25cb;" 
d="M457 -99q-85 0 -160 31.5t-131 85.5t-88.5 127t-32.5 156t32.5 156t88.5 127t131 85.5t160 31.5t160.5 -31.5t131.5 -85.5t88.5 -127t32.5 -156t-32.5 -156t-88.5 -127t-131.5 -85.5t-160.5 -31.5zM457 652q-74 0 -140 -27.5t-115 -75t-77.5 -111.5t-28.5 -137
q0 -72 28.5 -136t77.5 -112t115 -75.5t140 -27.5q75 0 140.5 27.5t114.5 75.5t77.5 112t28.5 136t-28.5 136t-77.5 112t-114.5 75.5t-140.5 27.5z" />
    <glyph glyph-name="uni25CE" unicode="&#x25ce;" 
d="M457 62q-51 0 -95.5 18.5t-78 51t-52.5 75.5t-19 93q0 49 19 92.5t52.5 76t78 51t95.5 18.5t96 -18.5t78 -51t52.5 -76t19.5 -92.5q0 -50 -19.5 -93t-52.5 -75.5t-78 -51t-96 -18.5zM457 488q-40 0 -75 -15t-61.5 -40.5t-41.5 -59.5t-15 -73t15 -73.5t41.5 -60t61.5 -40
t75 -14.5t75.5 14.5t61.5 40t41 60t15 73.5t-15 73t-41 59.5t-61.5 40.5t-75.5 15zM457 -99q-85 0 -160 31.5t-131 85.5t-88.5 127t-32.5 156t32.5 156t88.5 127t131 85.5t160 31.5t160.5 -31.5t131.5 -85.5t88.5 -127t32.5 -156t-32.5 -156t-88.5 -127t-131.5 -85.5
t-160.5 -31.5zM457 652q-74 0 -140 -27.5t-115 -75t-77.5 -111.5t-28.5 -137q0 -72 28.5 -136t77.5 -112t115 -75.5t140 -27.5q75 0 140.5 27.5t114.5 75.5t77.5 112t28.5 136t-28.5 136t-77.5 112t-114.5 75.5t-140.5 27.5z" />
    <glyph glyph-name="H18533" unicode="&#x25cf;" 
d="M867 301q0 -83 -32 -155.5t-87.5 -126.5t-130.5 -85t-160 -31t-159.5 31t-130 85t-88 126.5t-32.5 155.5q0 82 32.5 154.5t88 126.5t130 85.5t159.5 31.5t160 -31.5t130.5 -85.5t87.5 -126.5t32 -154.5z" />
    <glyph glyph-name="uni25D0" unicode="&#x25d0;" 
d="M890 301q0 -90 -33 -167.5t-90.5 -134.5t-136.5 -89t-171 -32q-93 0 -172.5 32.5t-138 89.5t-92 134.5t-33.5 166.5t33.5 165.5t92 133t137.5 89t171 32.5q93 0 172.5 -32t137 -88.5t90.5 -133.5t33 -166zM460 -75q84 1 153.5 33t119 83.5t77 119t27.5 139.5t-27.5 138.5
t-77.5 118.5t-119 83.5t-153 33.5v-749z" />
    <glyph glyph-name="uni25D1" unicode="&#x25d1;" 
d="M890 300q0 -90 -33 -167.5t-90.5 -134.5t-136.5 -89t-170 -32q-93 0 -173 32.5t-138.5 89t-92 134t-33.5 167.5q0 82 29.5 157.5t86.5 134t139 93.5t187 35q89 0 166.5 -32.5t135 -89.5t90.5 -133.5t33 -164.5zM457 673q-85 -2 -155 -34t-119.5 -84.5t-76.5 -120
t-27 -139.5q0 -69 27.5 -135t77.5 -117.5t119.5 -84t153.5 -33.5v748z" />
    <glyph glyph-name="uni2605" unicode="&#x2605;" 
d="M629 233l109 -322l-284 201l-293 -202l116 324l-283 200h357l110 300l101 -300h360z" />
    <glyph glyph-name="uni2606" unicode="&#x2606;" 
d="M744 -101l-289 205l-298 -207l119 331l-289 203h363l112 306l103 -306h365l-297 -205zM461 568l-71 -190h-234l187 -128l-75 -207l185 128l182 -127l-68 205l196 129h-243z" />
    <glyph glyph-name="uni260E" unicode="&#x260e;" 
d="M797 372h23t26 0.5t24.5 2t18.5 3.5q0 -26 -17.5 -32.5t-44.5 -5.5l-82 3q-25 1 -42 10.5t-20 35.5q28 -9 52.5 -12t61.5 -5zM772 548q35 -10 56 -22t32.5 -29.5t16.5 -41.5t9 -57q-7 -2 -19 -3.5t-25.5 -2t-27 -0.5h-24.5q-18 1 -31.5 2t-26 3t-25.5 5t-29 7
q-2 23 -24 42t-49 24v-51q0 -12 1.5 -19.5t5 -13.5t9.5 -12l16 -16t18 -16t14.5 -11.5t11.5 -13t10 -19.5l78 -221q0 -7 -1.5 -20t-3.5 -26t-4 -23.5t-2 -11.5q0 -3 -6 -3h-12h-564h-11t-6 3q-1 1 -3 11.5t-4 23.5t-3.5 26t-1.5 20l78 221q4 12 9.5 19.5t12 13t14.5 11.5
t18 16l16 16t9.5 12t5 13.5t1.5 19.5v51q-27 -5 -49 -24t-24 -42q-16 -4 -28.5 -7t-25 -5t-26.5 -3t-32 -2h-24.5t-27 0.5t-25.5 2t-19 3.5q4 33 9 57t16.5 41.5t32.5 29.5t56 22q75 20 157.5 29.5t157.5 9.5q78 0 158 -9.5t155 -29.5zM120 372q37 2 61.5 5t52.5 12
q-4 -26 -20.5 -35.5t-42.5 -10.5l-82 -3q-27 -1 -44.5 5.5t-17.5 32.5q7 -2 18.5 -3.5t24.5 -2t26 -0.5h24zM547 409l15 74q-20 2 -47 4.5t-58 2.5t-58 -3t-47 -5l15 -74l90 5zM454 113q28 0 52.5 10t42.5 27.5t28.5 41.5t10.5 51q0 25 -10.5 48.5t-28 40.5t-41 27.5
t-49.5 10.5q-27 0 -51 -9.5t-42 -26.5t-29 -39.5t-11 -49.5q0 -26 9.5 -50t26.5 -42t40.5 -29t51.5 -11z" />
    <glyph glyph-name="uni260F" unicode="&#x260f;" 
d="M772 546q29 -8 48.5 -19.5t32.5 -29t20.5 -42t12.5 -57.5q3 -21 -1 -33t-12.5 -17.5t-20.5 -6.5t-25 -1l-82 3q-14 0 -25 2.5t-19 9.5t-13.5 20t-9.5 34q-5 26 -21.5 42t-51.5 24v-51q0 -12 1 -20t4.5 -14t9.5 -12t17 -15q19 -15 32 -25t22 -35l78 -221q0 -7 -1.5 -19.5
t-3.5 -25.5t-4 -23t-2 -11q0 -3 -6 -3h-12h-564h-11t-6 3q-1 1 -3 11t-4 23t-3.5 25.5t-1.5 19.5l78 221q9 25 22 35t32 25q11 9 17.5 15t9.5 12t4 14t1 20v51q-35 -8 -51.5 -24t-21.5 -42q-4 -21 -9.5 -34t-13.5 -20t-19 -9.5t-25 -2.5l-82 -3q-14 0 -25.5 1t-20 6.5
t-12.5 17.5t-1 33q4 33 12 57.5t21 42t32.5 29t48.5 19.5q36 10 76 17.5t80.5 13t81 8t77.5 2.5q78 0 159.5 -10.5t153.5 -30.5zM532 489q-7 1 -29.5 2.5t-45.5 1.5q-24 0 -46 -1.5t-29 -2.5l9 -49q11 2 30 2.5t36 0.5t36 -0.5t30 -2.5zM820 365q26 -1 32 9.5t0 43.5
q-4 25 -13 43t-24.5 30.5t-37.5 21t-52 16.5q-62 16 -133.5 23t-132.5 7q-63 0 -134.5 -7t-133.5 -23q-30 -8 -51.5 -16.5t-37 -21t-25 -30.5t-13.5 -43q-5 -33 0.5 -43.5t31.5 -9.5l66 2q11 0 18.5 2.5t13 9t9.5 18t7 30.5t15.5 33t29.5 23.5t38.5 15.5t42.5 9
q27 4 58.5 6.5t63.5 2.5t64 -2.5t59 -6.5q21 -3 42 -9t38 -15.5t29.5 -23.5t15.5 -33t7 -30.5t9.5 -18t13 -9t18.5 -2.5zM739 75l-72 205q-6 17 -13.5 28t-15 18.5t-16 13.5t-17.5 12q-21 14 -26 32.5t-5 43.5v55q-2 0 -6 0.5t-6 0.5l-15 -70l-8.5 0.5t-21.5 1.5t-29 1.5
t-31 0.5t-31 -1t-28.5 -1.5t-21 -1.5t-9.5 -1l-12 72l-13 -2v-55q0 -25 -5 -43.5t-26 -32.5q-9 -6 -17.5 -12t-16 -13.5t-15 -18.5t-13.5 -28l-71 -205l7 -45h546zM459 370q26 0 49.5 -10.5t41 -27.5t28 -40.5t10.5 -48.5q0 -27 -10.5 -51t-28.5 -41.5t-42.5 -27.5
t-52.5 -10t-51.5 11t-40.5 29t-26.5 42t-9.5 50q0 27 11 49.5t29 39.5t42 26.5t51 9.5zM454 141q45 0 74.5 29.5t29.5 72.5q0 20 -7.5 38t-21 31.5t-31.5 21.5t-39 8t-40 -7.5t-33.5 -20.5t-23 -30.5t-8.5 -38.5q0 -20 7.5 -39t21 -33.5t32 -23t39.5 -8.5z" />
    <glyph glyph-name="uni261C" unicode="&#x261c;" 
d="M847 136h-133v46q-17 0 -37 -0.5t-46 -11.5q-32 -15 -58.5 -21.5t-52 -8t-50.5 -0.5t-53 2q-9 -15 -26 -20t-36 -5q-16 0 -37.5 4.5t-41 13.5t-33 23t-13.5 34q0 12 6.5 23t17.5 16q-6 6 -8 14t-2 16q0 16 9.5 27.5t24.5 17.5q-4 3 -7 10t-3 12q0 10 4.5 18t11.5 16
l-108 6q-12 1 -32.5 2t-40 7t-33.5 18t-14 35q0 17 12 26.5t30 15t39 7t39 1.5l165 5l91 -2q21 16 50 16q28 0 54 -7t50.5 -18t47.5 -24t46 -24q11 -5 15.5 -6t18.5 -1v43h133v-326zM782 163v272h-40v-272h40zM714 394q-15 0 -20.5 -0.5t-14.5 3.5q-22 9 -46 22.5t-49 25.5
t-49 20.5t-46 8.5q-23 0 -36.5 -7t-27.5 -22l-48 -49q-8 -7 -18 -17t-10 -20q0 -14 14.5 -20t25.5 -6q19 0 35.5 10t29.5 21l46 37l11 -13l-42 -47q9 -6 20 -16.5t18 -20.5q1 0 9 -1t20.5 -2.5t28 -2t30.5 0.5q15 2 31.5 5.5t28.5 7.5l7 2l7 -8v-6q-1 0 -8.5 -3t-18.5 -6.5
t-22.5 -7t-20.5 -4.5q-35 -4 -61.5 -2t-27.5 2q-8 -24 -17 -36t-36 -17q0 -17 -7 -31t-26 -17v-15q49 -3 102 1.5t101 28.5q23 12 45 13t42 1v187zM448 252q14 0 25 7.5t11 23.5q0 6 -4 13.5t-10.5 14t-14 10.5t-14.5 4q-6 0 -19.5 -6t-33.5 -6q-25 0 -43.5 11t-32.5 28
q-6 -4 -10.5 -9t-4.5 -13q0 -9 6 -16.5t14.5 -13.5t18 -10.5t15.5 -7.5t19.5 -8t28.5 -10t29 -8.5t20 -3.5zM409 460h-85l-145 -2q-9 0 -25 -0.5t-31.5 -3t-27.5 -8.5t-12 -18q0 -11 6 -17.5t15 -11t19 -6.5t18 -2l137 -5h58zM404 198q13 0 20.5 7.5t5.5 19.5q0 7 -7.5 8.5
t-11.5 3.5q-10 3 -23 7.5t-26 10t-25 11t-19 10.5q-5 2 -11.5 5t-11.5 3q-10 0 -16 -7t-6 -16q0 -14 13 -25.5t24 -16.5q8 -3 20.5 -6.5t26 -7t26.5 -5.5t21 -2zM355 136q14 0 29.5 4.5t15.5 21.5q0 13 -16 15q-42 6 -68 16t-42 21q-7 4 -12.5 -5t-3.5 -20q1 -12 13 -22
t27.5 -17t31.5 -10.5t25 -3.5z" />
    <glyph glyph-name="uni261E" unicode="&#x261e;" 
d="M736 500q18 0 39 -1.5t39.5 -7t30.5 -15t12 -26.5q0 -23 -14 -35t-33.5 -18t-40 -7t-33.5 -2l-107 -6q7 -8 12 -16t5 -18q0 -5 -3.5 -12t-6.5 -10q32 -13 32 -45q0 -8 -1.5 -16t-8.5 -14q11 -5 18.5 -16t7.5 -23q0 -20 -13.5 -34t-33.5 -23t-42 -13.5t-39 -4.5t-33.5 5
t-26.5 20q-27 -1 -52.5 -2t-51 0.5t-53 8t-59.5 21.5q-23 11 -43.5 11.5t-37.5 0.5v-46h-133v326h133v-43h11.5t7.5 1t6.5 2.5t8.5 3.5q22 11 45.5 24t48 24t50.5 18t54 7q29 0 50 -16l92 2zM772 411q7 0 17 2t19 6.5t15.5 11t6.5 17.5q0 12 -11.5 18t-27.5 8.5t-32 3
t-25 0.5l-145 2h-86l74 -74h58zM562 302l15 7.5t17.5 10.5t14.5 13.5t6 16.5q0 14 -13 22q-14 -17 -33.5 -28t-42.5 -11q-20 0 -33.5 6t-20.5 6t-15 -4t-14.5 -10.5t-11 -14t-4.5 -13.5q0 -16 12 -23.5t26 -7.5q6 0 20 3.5t29 8.5t28.5 10t19.5 8zM603 239q12 5 24 16.5
t12 25.5q0 9 -6 16t-14 7q-6 0 -12.5 -3t-11.5 -5q-8 -5 -19.5 -10.5t-24.5 -11t-26 -10t-23 -7.5q-3 -2 -11 -3.5t-9 -8.5q-1 -12 6.5 -19.5t20.5 -7.5q8 0 21 2t26.5 5.5t26 7t20.5 6.5zM557 156q10 0 26 3.5t31.5 10.5t27.5 17t14 22q1 11 -4.5 20t-12.5 5
q-15 -11 -42 -21t-69 -16q-6 -1 -11 -4t-5 -11q0 -17 15.5 -21.5t29.5 -4.5zM524 353q5 0 12 1.5t13.5 4.5t11 8t4.5 12q0 10 -10.5 20t-18.5 17l-47 49q-15 15 -28.5 22t-35.5 7q-23 0 -47 -8.5t-48.5 -20.5t-49 -25.5t-46.5 -22.5q-10 -4 -14.5 -3.5t-20.5 0.5v-187
q19 0 41 -1t47 -13q48 -24 101 -28.5t102 -1.5v15q-20 3 -27.5 17t-7.5 31q-14 2 -22.5 6t-13.5 10.5t-8.5 15.5t-7.5 21q-2 0 -28 -2t-61 2q-9 1 -20.5 4.5t-22.5 7t-18.5 6.5t-8.5 3v6l7 8l8 -2q12 -4 27.5 -7.5t30.5 -5.5q32 -2 60 1.5t30 3.5q7 10 18 20.5t19 16.5
l-42 47l11 13l46 -37q12 -11 29.5 -21t35.5 -10zM171 183v272h-40v-272h40z" />
    <glyph glyph-name="female" unicode="&#x2640;" 
d="M492 154v-257h-67v257h-295v61h295v88q-46 7 -84 26t-65.5 47t-43 63.5t-15.5 74.5q0 44 18.5 83t51 68t75.5 45.5t93 16.5q51 0 95 -16.5t76.5 -45.5t51 -68t18.5 -83q0 -39 -15 -74t-42 -63t-64.5 -47t-82.5 -26v-89h294v-61h-294zM628 514q0 32 -13.5 60t-37 48.5
t-55 32.5t-67.5 12q-35 0 -65.5 -12t-53.5 -32.5t-36.5 -48.5t-13.5 -60t13.5 -60t36.5 -48.5t53.5 -32.5t65.5 -12q36 0 67.5 12t55 32.5t37 48.5t13.5 60z" />
    <glyph glyph-name="male" unicode="&#x2642;" 
d="M735 426l-246 210v-325q45 -7 83 -26t65.5 -47t43 -63.5t15.5 -74.5q0 -44 -18.5 -82.5t-51 -67.5t-76.5 -46t-95 -17q-50 0 -93.5 17t-75.5 46t-51 67.5t-19 82.5q0 39 15 74t42 63t64.5 47t82.5 26v319l-238 -220l-48 46l319 287l328 -264zM628 100q0 32 -13.5 60
t-37 48.5t-55 32.5t-67.5 12q-35 0 -66 -12t-54 -32.5t-36.5 -48.5t-13.5 -60t13.5 -60t36.5 -48.5t54 -32.5t66 -12q36 0 67.5 12t55 32.5t37 48.5t13.5 60z" />
    <glyph glyph-name="spade" unicode="&#x2660;" 
d="M812 216q0 -33 -11 -62t-31.5 -50.5t-49 -33.5t-62.5 -12q-48 0 -85.5 7.5t-64.5 24.5q1 -62 15 -98.5t40.5 -57.5t66.5 -29.5t94 -13.5l9 -25h-552l9 25q54 5 93.5 13.5t66.5 29.5t41 57.5t16 98.5q-54 -32 -152 -32q-34 0 -62 12t-48.5 33.5t-31.5 50.5t-11 62
q0 36 11.5 66.5t30.5 57.5t43.5 51t51.5 45q35 27 68.5 61.5t62 77.5t51 94t36.5 113q13 -62 36 -113t52 -94t62.5 -77.5t68.5 -61.5q26 -21 50.5 -45t43.5 -51t30.5 -57.5t11.5 -66.5z" />
    <glyph glyph-name="uni2661" unicode="&#x2661;" 
d="M832 509q1 -41 -12 -81t-34 -77t-47.5 -70.5t-52.5 -63.5q-35 -42 -69.5 -79.5t-65.5 -75.5q-29 -35 -52.5 -76t-41.5 -103q-18 62 -41.5 102.5t-52.5 76.5q-30 38 -65 75.5t-70 79.5q-26 30 -52.5 63.5t-47.5 70.5t-33.5 77t-11.5 81q1 37 15 69t38.5 55.5t58 36.5
t72.5 13q60 0 110.5 -28.5t79.5 -87.5q32 58 82.5 87t108.5 29q38 0 71 -13t58 -36t39.5 -55t15.5 -70zM773 495q0 30 -8.5 56t-25.5 44.5t-44 28.5t-63 8q-31 -2 -58 -19t-49 -44t-39 -63t-29 -75q-12 39 -29 75t-39.5 63.5t-49.5 44.5t-57 19q-35 1 -61.5 -9t-44 -28.5
t-26.5 -44.5t-9 -56q0 -34 12 -67t30.5 -64t41.5 -60t46 -54q29 -35 57.5 -65t53.5 -59q22 -25 40 -51t35 -58q18 32 37.5 57.5t39.5 51.5l109 124q23 25 46 54t42 60t30.5 64t11.5 67z" />
    <glyph glyph-name="club" unicode="&#x2663;" 
d="M858 257q0 -38 -14.5 -71.5t-40.5 -59t-61 -40.5t-76 -15q-44 0 -87 13t-73 44q2 -69 16.5 -112.5t41.5 -69t67 -37t93 -16.5l9 -25h-553l9 25q53 5 93 16.5t67 37t41.5 69.5t16.5 113q-29 -31 -71.5 -44t-84.5 -13q-41 0 -77 14.5t-62 39.5t-41 59t-15 72q0 33 12.5 65
t35.5 57.5t55 42.5t71 21q12 2 25.5 1.5t30.5 -5.5q-14 22 -17.5 40t-3.5 46q0 39 16.5 72.5t44 57.5t62.5 38t71 14q35 0 69 -13.5t60.5 -37.5t43 -57.5t16.5 -72.5q0 -27 -5.5 -47.5t-16.5 -40.5q43 10 84.5 -0.5t74.5 -35.5t53 -62.5t20 -82.5z" />
    <glyph glyph-name="uni2664" unicode="&#x2664;" 
d="M812 216q0 -33 -11 -62t-31.5 -50.5t-49 -33.5t-62.5 -12q-41 0 -72 9.5t-56 23.5q2 -63 12.5 -100t33 -57.5t58.5 -29t90 -13.5l9 -25h-552l9 25q54 5 90 13.5t58.5 29t33 57.5t12.5 100q-25 -14 -56 -23.5t-73 -9.5q-34 0 -62 12t-48.5 33.5t-31.5 50.5t-11 62
q0 36 11.5 66.5t30.5 57.5t43.5 50.5t51.5 44.5q35 27 68.5 62t62 77.5t51 94t36.5 113.5q13 -62 36 -113.5t52 -94t62.5 -77.5t68.5 -62q26 -21 50.5 -44.5t43.5 -50.5t30.5 -57.5t11.5 -66.5zM751 206q2 54 -19.5 91t-60.5 71q-11 10 -22.5 19t-22.5 18q-57 46 -101 104
t-68 111q-23 -53 -67.5 -111t-101.5 -103q-23 -18 -45.5 -36.5t-41.5 -41.5q-17 -23 -28.5 -52.5t-9.5 -69.5q2 -50 36.5 -75.5t96.5 -20.5q17 1 36.5 8.5t39 20t37 31.5t31.5 43q0 -64 -1.5 -112t-7 -83.5t-15.5 -61t-27 -44.5h137q-17 19 -27 44t-15.5 61t-7 84t-1.5 112
q14 -24 32 -43t37.5 -31.5t39 -20t36.5 -8.5q62 -5 96 20.5t35 75.5z" />
    <glyph glyph-name="heart" unicode="&#x2665;" 
d="M832 509q0 -41 -13 -81t-34 -77t-47 -70.5t-52 -63.5q-35 -42 -69.5 -79.5t-65.5 -75.5q-29 -35 -52.5 -76t-41.5 -103q-18 62 -41.5 102.5t-52.5 75.5q-37 47 -85.5 98.5t-91.5 107.5t-73 116t-30 125q0 38 14.5 70t39 55t58 36t72.5 13q33 0 62.5 -11.5t53.5 -31.5
t43 -47.5t31 -60.5q25 66 74 109t117 43q38 0 71.5 -13t58.5 -36t39.5 -55t14.5 -70z" />
    <glyph glyph-name="uni2667" unicode="&#x2667;" 
d="M858 257q0 -38 -14.5 -71.5t-40.5 -59t-61 -40.5t-76 -15q-77 0 -139 59q1 -69 12 -113t34.5 -70t60.5 -37.5t90 -16.5l9 -25h-553l9 25q53 5 90 16.5t60.5 37.5t34.5 70t13 114q-29 -27 -63.5 -43t-72.5 -16q-41 0 -77 14.5t-62 39.5t-41 59t-15 72q0 33 12.5 65
t35.5 57.5t55 42.5t71 21q12 2 25.5 1.5t30.5 -5.5q-14 22 -17.5 40t-3.5 46q0 39 16 72.5t43 57.5t62 38t73 14q36 0 70 -13.5t60.5 -37.5t42.5 -57.5t16 -72.5q0 -27 -5.5 -47.5t-16.5 -40.5q43 10 84.5 -0.5t74.5 -35.5t53 -62.5t20 -82.5zM799 257q0 27 -9.5 51.5
t-26 43.5t-38 30.5t-44.5 12.5t-43.5 -3.5t-40.5 -19.5l-53 50q27 23 37 54.5t10 62.5q0 24 -11 45.5t-29.5 38.5t-43 27t-52.5 10q-27 0 -51 -10t-42 -27t-29 -38.5t-11 -45.5q0 -30 9.5 -60t35.5 -52l-53 -51q-20 14 -39 16.5t-42 1.5q-24 -1 -45.5 -12t-37.5 -29.5
t-25.5 -43t-9.5 -51.5t9 -50.5t25.5 -41t39 -27.5t49.5 -10q40 0 75 17t55 52h73q0 -100 -10.5 -173t-49.5 -111h154q-36 39 -48.5 110.5t-13.5 173.5h73q17 -35 52.5 -52.5t77.5 -17.5q27 0 50 10t39 27.5t25 41t9 50.5z" />
    <glyph glyph-name="uni2668" unicode="&#x2668;" 
d="M628 545q-5 -38 1 -64t16 -50t20.5 -51t14.5 -69q4 -41 -5 -74t-22.5 -59t-28.5 -47t-23 -39q-9 -18 -13.5 -33.5t-7 -27.5t-5 -19.5t-7.5 -8.5t-8 11t-3 30.5t3 39t9 37.5q10 25 20 55.5t16 62.5t5 64.5t-13 62.5q-18 43 -24.5 78t-4.5 65.5t10 58.5t19 57q5 14 7 29.5
t3 29t1.5 23t2.5 9.5q3 0 8 -10t9 -31t5 -53.5t-5 -76.5zM484 578q-14 -41 -11 -73.5t13 -64t23 -65.5t21 -78q5 -24 -2 -54t-19.5 -59.5t-26 -55t-20.5 -40.5q-14 -24 -20 -42t-8 -29t-3.5 -16t-6.5 -5t-9 12.5t-4.5 32.5t3.5 46t15 55q16 39 20 76.5t1 69.5t-10 56.5
t-14 38.5q-23 51 -26 90.5t4.5 72t21 58.5t24.5 50q10 23 14.5 44.5t6 38t1 26.5t0.5 10q7 0 14 -16.5t10.5 -44.5t1.5 -63t-14 -71zM321 542q-6 -24 -0.5 -54t15.5 -64.5t20.5 -73t13.5 -80.5q1 -17 -3.5 -38.5t-13.5 -45.5t-21 -49.5t-24 -50.5q-10 -22 -14 -37t-6 -24.5
t-3.5 -13.5t-6.5 -4q-3 0 -8 9.5t-7 26t-1 37.5t10 45q5 15 11.5 42.5t9.5 60.5t1 68t-13 67q-29 78 -19.5 146.5t41.5 131.5q6 11 9.5 25l6.5 26t5.5 19.5t4.5 7.5q9 -2 11.5 -45.5t-19.5 -131.5zM715 248q7 -1 24 -5.5t38 -13.5t44 -22.5t43 -30.5t33 -38t15 -46
q4 -51 -33.5 -90.5t-97.5 -67t-133 -44t-141 -20.5q-97 -6 -188.5 5.5t-162 37t-113 64t-42.5 85.5q0 30 13.5 55t34.5 45t47.5 36t53 28t50 20t39.5 12q12 4 14.5 -4t-13.5 -13q-4 -2 -29.5 -13t-55 -31t-53 -48.5t-23.5 -64.5q0 -33 32 -60t85.5 -45t123 -27.5t144.5 -8.5
q64 1 132 13.5t123.5 34.5t91.5 51.5t36 64.5q0 23 -16 44.5t-38.5 39t-45 29t-35.5 14.5q-14 4 -10.5 9.5t13.5 4.5z" />
    <glyph glyph-name="uni2669" unicode="&#x2669;" 
d="M548 706v-623q0 -39 -14 -72t-38.5 -57t-59 -37t-74.5 -13q-83 0 -83 65q0 28 16 53t43.5 43.5t64.5 29t80 10.5h11l1 601h53z" />
    <glyph glyph-name="musicalnote" unicode="&#x266a;" 
d="M413 708l11 1q6 -1 11 -2.5t11 -6t14 -12t20 -20.5q14 -14 32 -34.5t32 -32.5l19 -15q22 -20 31 -27.5t14 -10.5q3 -3 3 -5l8 -7q18 -17 31 -29.5t23.5 -24t18 -21.5t14.5 -21q19 -28 27 -55.5t8 -54.5q0 -28 -7 -56t-19 -48q-15 -25 -36.5 -49.5t-44.5 -44t-44 -32.5
t-34 -14l-4 7q1 2 4 6t17 16q44 40 72.5 89.5t28.5 91.5q0 39 -21 75.5t-64 74.5q-18 15 -32.5 26.5t-29 21t-30 18.5t-34.5 19l-1 -443q0 -40 -14 -73t-38.5 -57t-59 -37.5t-75.5 -13.5q-38 0 -57 16t-19 45q0 28 15 53t41.5 43.5t63 29t79.5 10.5h3h4.5t7.5 -1v605z" />
    <glyph glyph-name="uni266C" unicode="&#x266c;" 
d="M771 718v-548q0 -51 -15.5 -83t-49.5 -56q-23 -20 -55 -31t-65 -11q-40 0 -61.5 15.5t-21.5 42.5q0 16 7 33.5t20 34t29.5 30t36.5 21.5q27 12 52.5 16t70.5 4v285l-359 -82v-299q0 -57 -18.5 -92.5t-57.5 -61.5q-55 -37 -114 -37q-39 0 -60.5 17t-21.5 46q0 26 16 50
t43.5 43t63.5 30t75 11h21v523zM719 551v77l-359 -79v-77z" />
    <glyph glyph-name="uni266D" unicode="&#x266d;" 
d="M600 409q32 -11 50.5 -35t26 -54.5t4.5 -65t-14 -65.5q-19 -56 -47.5 -95t-61.5 -66t-68 -43t-66.5 -24.5t-56 -11t-37.5 -3.5v726h71v-351q14 21 32.5 42t43 35.5t55 18.5t68.5 -8zM546 84q25 30 40 72t17 82t-9.5 71t-38.5 40q-39 12 -67.5 -1t-47.5 -34t-28.5 -42
t-9.5 -24v-247q0 1 2 1q10 0 22.5 3.5t22.5 7.5q22 8 48 25t49 46z" />
    <glyph glyph-name="uni3000" unicode="&#x3000;" 
 />
    <glyph glyph-name="uni3001" unicode="&#x3001;" 
d="M130 -103q-2 41 -24.5 75t-64.5 63q-7 5 -11.5 14t2.5 15q10 10 48 -10q42 -24 76 -53t55 -64q6 -11 10 -25.5t2.5 -29t-9 -27t-22.5 -18.5q-26 -11 -43 8.5t-19 51.5z" />
    <glyph glyph-name="uni3002" unicode="&#x3002;" 
d="M151 70q24 0 45.5 -9t37.5 -24t25 -35.5t9 -44.5t-9 -44.5t-25 -35.5t-37.5 -24t-45.5 -9t-45 9t-37 24t-25 35.5t-9 44.5t9 44.5t25 35.5t37 24t45 9zM151 -108q27 0 46 19.5t19 45.5t-19 45.5t-46 19.5q-26 0 -45 -19.5t-19 -45.5t19 -45.5t45 -19.5z" />
    <glyph glyph-name="uni3003" unicode="&#x3003;" 
d="M454 203q-6 -9 -13.5 -15t-15.5 -2q-16 5 -5 32l89 211q6 14 20.5 26t38.5 9q14 -2 22 -9t11 -16t1.5 -18.5t-5.5 -15.5zM330 216q-6 -10 -14 -15.5t-17 -2.5q-6 2 -8 10.5t5 22.5l89 210q5 14 18.5 26t39.5 10q14 -2 22 -9t11 -16t1.5 -18.5t-5.5 -15.5z" />
    <glyph glyph-name="uni3008" unicode="&#x3008;" 
d="M632 300l244 -423l-57 -35l-262 458l262 460l59 -33z" />
    <glyph glyph-name="uni3009" unicode="&#x3009;" 
d="M285 300l-246 427l59 33l262 -460l-262 -458l-57 35z" />
    <glyph glyph-name="uni300A" unicode="&#x300a;" 
d="M829 -152l-241 447l241 452h51l-241 -452l241 -447h-51zM720 -152l-241 447l241 452h51l-241 -452l241 -447h-51z" />
    <glyph glyph-name="uni300B" unicode="&#x300b;" 
d="M191 -152h-51l242 447l-242 452h51l240 -452zM83 -152h-51l242 447l-242 452h51l241 -452z" />
    <glyph glyph-name="uni300C" unicode="&#x300c;" 
d="M877 730h-257v-390h-51v440h308v-50z" />
    <glyph glyph-name="uni300D" unicode="&#x300d;" 
d="M346 -180h-309v50h258v390h51v-440z" />
    <glyph glyph-name="uni300E" unicode="&#x300e;" 
d="M674 674v-330h-105v432h301v-102h-196zM602 376h38v330h196v38h-234v-368z" />
    <glyph glyph-name="uni300F" unicode="&#x300f;" 
d="M345 256v-432h-301v102h196v330h105zM274 -106h-196v-38h233v368h-37v-330z" />
    <glyph glyph-name="uni3010" unicode="&#x3010;" 
d="M548 -180v959h341q-61 -38 -110.5 -89.5t-84.5 -113t-54 -131.5t-19 -145t19 -145.5t54.5 -132t85 -113t110.5 -89.5h-342z" />
    <glyph glyph-name="uni3011" unicode="&#x3011;" 
d="M376 -179h-340q61 38 110.5 89.5t84.5 113t54.5 132t19.5 145.5t-19 145t-54.5 131.5t-85 113t-109.5 89.5h339v-959z" />
    <glyph glyph-name="uni3013" unicode="&#x3013;" 
d="M802 386h-690v56h690v-56zM802 158h-690v56h690v-56z" />
    <glyph glyph-name="uni3014" unicode="&#x3014;" 
d="M541 -66v743l334 86v-85l-247 -65v-616l247 -71v-90z" />
    <glyph glyph-name="uni3015" unicode="&#x3015;" 
d="M45 -164v90l247 71v616l-247 65v85l334 -86v-743z" />
    <glyph glyph-name="uni3041" unicode="&#x3041;" 
d="M573 246q81 -14 119.5 -52t38.5 -104q0 -100 -100 -162q-17 -11 -38.5 -19.5t-56.5 -19.5l-42 60q39 9 62.5 18t43.5 24q26 20 41 45.5t15 53.5q0 87 -110 99q-14 -32 -26 -55t-24 -41t-24.5 -33.5t-27.5 -30.5l11 -25l10.5 -16.5t5 -8.5t3 -5t3.5 -6l-65 -39
q-3 4 -4 6.5t-2 4.5q-6 10 -8.5 15.5t-4 8.5t-2.5 5.5t-4 8.5q-33 -23 -62.5 -33.5t-61.5 -10.5q-35 0 -56.5 20t-21.5 51q0 60 42 116.5t115 91.5l14 7q0 14 1 26.5t2 21.5l2 37q0 4 1 9q-20 -3 -39.5 -4t-41.5 -1q-17 0 -21.5 0.5t-11.5 2.5h-3l-8 69q9 -1 21 -1.5
t17 -0.5h30q20 0 34 1.5t33 4.5q1 16 2.5 28t2.5 22t1.5 20t1.5 24l55 -8q29 -4 29 -15q0 -3 -1.5 -5.5t-7.5 -8.5l-6 -11l-1 -1q-2 -13 -2.5 -19.5t-2.5 -19.5q24 3 40.5 6t32.5 5.5t33.5 5.5t42.5 7v-65q-29 -7 -50.5 -11.5t-39.5 -7.5t-34.5 -5.5t-34.5 -4.5
q-3 -14 -4 -23t-3 -29q-1 -5 -1 -11.5v-16.5q16 4 23.5 5t14.5 2q13 1 19 1.5t8 0.5t3 0.5t3 0.5l7 17.5t5 14t3.5 13t3.5 14.5l69 -27q-1 -2 -1 -4v-1q-2 -11 -3 -12.5t-3 -7.5zM351 148q-42 -32 -65 -62.5t-23 -57.5q0 -25 21 -25q16 0 33.5 9t44.5 32l-7 49
q-3 26 -3.5 32.5t-0.5 11.5v11zM472 185q-37 -2 -51 -10q0 -20 1.5 -35.5t3.5 -30.5q5 5 8 9.5t6 7.5z" />
    </font>
</defs>
</svg>
