<svg width="1334" height="167" viewBox="0 0 1334 167" fill="none" xmlns="http://www.w3.org/2000/svg">
<rect width="189" height="101" rx="8" fill="#6485C6"/>
<path d="M40.5263 41.98V47.66H42.3863V42.1L44.9063 41.7V59.6L42.3863 60V49.68H40.5263V59.02L38.0263 59.42V42.38L40.5263 41.98ZM32.8463 42.84V52.98H33.7063C34.7663 52.98 36.4663 52.82 37.4263 52.58V54.58C36.4663 54.8 34.8463 55 33.3663 55H30.2863V42.84H32.8463ZM58.1095 47.32C58.1095 49.5 56.6495 50.88 54.7695 51.34V54C56.8295 53.94 58.3095 53.72 59.4295 53.52V55.52C56.5695 55.9 53.5095 56.02 50.4295 56.02H47.7895V54.02H51.9695V51.4C49.9495 51 48.3895 49.6 48.3895 47.32V46.7C48.3895 43.96 50.6695 42.5 53.2495 42.5C55.8295 42.5 58.1095 43.96 58.1095 46.7V47.32ZM60.1695 42.1L62.8695 41.7V59.6L60.1695 60V42.1ZM55.4095 47.32V46.7C55.4095 45.3 54.4695 44.5 53.2495 44.5C52.0295 44.5 51.0895 45.3 51.0895 46.7V47.32C51.0895 48.72 52.0295 49.52 53.2495 49.52C54.4695 49.52 55.4095 48.72 55.4095 47.32ZM70.7926 44.62H77.3326V42.18H80.0926V50.14L77.3326 50.64H68.0126V42.18H70.7926V44.62ZM82.7526 52.28L82.3526 54.26H75.6126V59.76L72.8126 60.16V54.26H65.4126V52.28H82.7526ZM70.7926 48.64H77.3326V46.62H70.7926V48.64ZM100.501 53.06C102.681 53.06 104.661 53.94 104.661 56.64C104.661 59.36 102.681 60.24 100.501 60.24H96.2212C93.9612 60.24 91.9412 59.36 91.9412 56.64C91.9412 53.94 93.9612 53.06 96.2212 53.06H100.501ZM96.2012 42.08V45.52C96.2012 45.94 96.2812 46.4 96.5612 46.7C97.8012 48.08 99.1412 49.4 100.541 50.58L98.9412 52.12C97.5212 50.98 96.0412 49.7 94.8212 48.36C93.6012 49.76 91.9612 51.32 90.5012 52.56L88.8212 51.1C90.2212 49.84 91.7012 48.46 92.9212 46.86C93.1812 46.52 93.3612 46.06 93.3612 45.64V42.48L96.2012 42.08ZM104.401 41.7V46.5H107.281L106.881 48.52H104.401V52.34L101.661 52.74V42.1L104.401 41.7ZM100.241 55.04H96.4412C95.3612 55.04 94.6212 55.48 94.6212 56.64C94.6212 57.82 95.3612 58.26 96.4412 58.26H100.241C101.241 58.26 101.981 57.82 101.981 56.64C101.981 55.48 101.241 55.04 100.241 55.04ZM118.484 53.84C120.724 53.84 122.744 54.62 122.744 57.1C122.744 59.58 120.724 60.36 118.484 60.36H114.064C111.824 60.36 109.804 59.58 109.804 57.1C109.804 54.62 111.824 53.84 114.064 53.84H118.484ZM109.004 47.36C109.004 45.6 111.004 44.68 113.504 44.68C116.004 44.68 118.004 45.6 118.004 47.36V47.68C118.004 49.1 116.724 50 114.924 50.3V51.06C116.344 51 117.864 50.86 119.144 50.64V52.58C116.304 52.98 113.224 53.1 110.144 53.1H107.724V51.14H112.124V50.32C110.304 50.02 109.004 49.1 109.004 47.68V47.36ZM122.604 41.7V46.5H125.364L124.964 48.52H122.604V53.12L119.844 53.52V42.1L122.604 41.7ZM118.424 44.3H108.384V42.46H112.204V41.4L114.964 41V42.46H118.824L118.424 44.3ZM118.404 55.8H114.164C113.264 55.8 112.464 56.16 112.464 57.1C112.464 58.04 113.264 58.4 114.164 58.4H118.404C119.304 58.4 120.084 58.04 120.084 57.1C120.084 56.16 119.304 55.8 118.404 55.8ZM115.404 47.44C115.404 46.86 114.704 46.52 113.504 46.52C112.304 46.52 111.604 46.86 111.604 47.44V47.6C111.604 48.18 112.304 48.58 113.504 48.58C114.704 48.58 115.404 48.18 115.404 47.6V47.44ZM129.147 55.08H125.827V53.18H127.667L127.567 45.64H130.327L130.427 53.18L132.447 53.14L132.527 45.64H135.227L135.127 52.98C135.947 52.94 136.727 52.86 137.347 52.74V54.74C135.347 54.96 131.747 55.08 129.147 55.08ZM140.747 41.7V47.54H143.627L143.227 49.78H140.747V59.6L138.007 60V42.1L140.747 41.7ZM136.547 44.94H126.167V42.96H136.547V44.94ZM153.831 46.36V47.38C153.831 50.06 151.591 51.5 149.071 51.5C146.551 51.5 144.311 50.06 144.311 47.38V46.36C144.311 43.68 146.551 42.24 149.071 42.24C151.591 42.24 153.831 43.68 153.831 46.36ZM147.031 53.44H159.011V59.96L156.211 60.36V55.4H147.031V53.44ZM159.011 41.7V45.88H161.891L161.491 47.98H159.011V52.34L156.251 52.74V42.1L159.011 41.7ZM151.131 47.3V46.44C151.131 45.04 150.231 44.24 149.071 44.24C147.911 44.24 147.011 45.04 147.011 46.44V47.3C147.011 48.7 147.911 49.5 149.071 49.5C150.231 49.5 151.131 48.7 151.131 47.3Z" fill="white"/>
<path d="M49.7344 118.328H48.3125V123.938H46.5156V118.609H45.125V131.609H46.5156V125.156H48.3125V132.328H49.7344V118.328ZM38.4062 128.766H39.3125C40.8203 128.773 42.4219 128.672 44.3438 128.328L44.1875 127.031C42.5938 127.344 41.1797 127.445 39.8906 127.461V119.984H38.4062V128.766ZM56.1406 119.219C53.9375 119.219 52.3203 120.578 52.3281 122.547C52.3203 124.281 53.5781 125.547 55.3906 125.82V128.094C54.0391 128.133 52.7578 128.141 51.6562 128.141L51.8438 129.359C54.3438 129.352 57.7422 129.336 60.9062 128.75L60.7969 127.672C59.5391 127.852 58.1953 127.969 56.875 128.031V125.82C58.6953 125.555 59.9453 124.289 59.9531 122.547C59.9453 120.578 58.3516 119.219 56.1406 119.219ZM53.7969 122.547C53.7812 121.297 54.7812 120.5 56.1406 120.5C57.5 120.5 58.5 121.297 58.5 122.547C58.5 123.773 57.5 124.609 56.1406 124.594C54.7812 124.609 53.7812 123.773 53.7969 122.547ZM61.6719 132.359H63.1562V118.328H61.6719V132.359ZM78.2031 126.562H65.3906V127.734H71.0312V132.328H72.4844V127.734H78.2031V126.562ZM66.9844 124.969H76.5938V118.891H75.1094V120.719H68.4531V118.891H66.9844V124.969ZM68.4531 123.781V121.906H75.1094V123.781H68.4531ZM94.7344 118.328H93.25V132.359H94.7344V118.328ZM83.625 124.281C83.625 127.305 85.1328 129.211 87.25 129.203C89.3281 129.211 90.8594 127.305 90.8594 124.281C90.8594 121.289 89.3281 119.383 87.25 119.375C85.1328 119.383 83.625 121.289 83.625 124.281ZM85.0625 124.281C85.0547 122.086 85.9453 120.711 87.25 120.703C88.5312 120.711 89.4219 122.086 89.4219 124.281C89.4219 126.508 88.5312 127.875 87.25 127.875C85.9453 127.875 85.0547 126.508 85.0625 124.281ZM103.891 120.641H101.156V118.734H99.6875V120.641H96.9375V121.844H103.891V120.641ZM97.3906 125.906C97.3828 127.82 98.6641 129.164 100.422 129.156C102.195 129.164 103.461 127.82 103.469 125.906C103.461 124.023 102.195 122.688 100.422 122.688C98.6641 122.688 97.3828 124.023 97.3906 125.906ZM98.7031 125.906C98.6953 124.742 99.4141 123.93 100.422 123.922C101.43 123.93 102.156 124.742 102.156 125.906C102.156 127.094 101.43 127.891 100.422 127.891C99.4141 127.891 98.6953 127.094 98.7031 125.906ZM104.531 131.672H105.938V125.375H107.547V132.328H108.953V118.328H107.547V124.156H105.938V118.641H104.531V131.672ZM118.594 119.391H111.531V120.609H117.133C117.117 121.492 117.07 122.625 116.766 124.172L118.234 124.312C118.578 122.5 118.578 121.109 118.594 120.172V119.391ZM110.688 125.516L110.828 126.719C113.297 126.711 116.641 126.656 119.562 126.141L119.469 125.062C118.062 125.266 116.516 125.375 115.016 125.438V122.531H113.547V125.484C112.523 125.508 111.547 125.516 110.688 125.516ZM112.812 132.031H122.328V130.828H114.297V127.891H112.812V132.031ZM120.359 128.844H121.875V124.031H123.797V122.781H121.875V118.328H120.359V128.844ZM136.656 118.328H135.25V132.328H136.656V118.328ZM124.547 128.281L125.422 129.344C128.062 127.773 129.555 125.727 130.234 123.375H132.391V125.656H130V126.875H132.391V131.641H133.797V118.688H132.391V122.156H130.508C130.617 121.477 130.672 120.781 130.672 120.062H125.234V121.281H129.203C128.945 124.164 127.523 126.516 124.547 128.281ZM143.328 122.453V120.969H146.375V119.734H138.703V120.969H141.859V122.453C141.852 124.82 140.312 127.461 138.188 128.484L139.062 129.656C140.656 128.859 141.969 127.133 142.609 125.141C143.242 126.969 144.492 128.547 146.062 129.297L146.906 128.141C144.781 127.133 143.32 124.664 143.328 122.453ZM147.875 132.328H149.359V125.125H151.609V123.875H149.359V118.328H147.875V132.328ZM64.3906 157.344H61.3281V153.656C62.4531 153.023 63.125 152.031 63.125 150.797C63.125 148.594 60.9609 147.148 57.9531 147.141C54.9531 147.148 52.7891 148.594 52.7969 150.797C52.7891 152.055 53.4922 153.055 54.6406 153.688V157.344H51.5781V158.578H64.3906V157.344ZM54.2344 150.797C54.2344 149.289 55.7578 148.328 57.9531 148.328C60.1328 148.328 61.6797 149.289 61.6875 150.797C61.6797 152.297 60.1328 153.273 57.9531 153.281C55.7578 153.273 54.2344 152.297 54.2344 150.797ZM56.1094 157.344V154.234C56.6719 154.367 57.2969 154.438 57.9531 154.438C58.625 154.438 59.2578 154.367 59.8281 154.234V157.344H56.1094ZM76.5469 147.203H66.9688V148.422H75.0781V148.438C75.0703 149.742 75.0703 151.203 74.6562 153.203H65.4062V154.422H71V160.344H72.5V154.422H78.1719V153.203H76.1562C76.5469 151.211 76.5469 149.766 76.5469 148.438V147.203ZM84.0938 149.891V147.5H82.6094V149.891C82.6016 152.453 81.1484 155.141 79 156.172L79.9219 157.375C81.5156 156.547 82.7422 154.867 83.3672 152.883C83.9844 154.75 85.1641 156.312 86.6875 157.109L87.6094 155.922C85.5234 154.906 84.0781 152.367 84.0938 149.891ZM88.6562 160.328H90.1406V153.172H92.3906V151.906H90.1406V146.328H88.6562V160.328ZM104.062 146.328H102.578V155.312H104.062V151.375H106.094V150.125H104.062V146.328ZM93.0781 149H101.422V147.828H98V146.219H96.5156V147.828H93.0781V149ZM93.8438 152.141C93.8359 153.641 95.2109 154.617 97.25 154.609C99.2656 154.617 100.641 153.641 100.641 152.141C100.641 150.633 99.2656 149.648 97.25 149.641C95.2109 149.648 93.8359 150.633 93.8438 152.141ZM94.9531 157.875C94.9375 159.398 96.7031 160.305 99.5938 160.297C102.445 160.305 104.219 159.398 104.219 157.875C104.219 156.328 102.445 155.422 99.5938 155.422C96.7031 155.422 94.9375 156.328 94.9531 157.875ZM95.2812 152.141C95.2656 151.289 96.0625 150.75 97.25 150.75C98.4375 150.75 99.2344 151.289 99.25 152.141C99.2344 152.969 98.4375 153.484 97.25 153.484C96.0625 153.484 95.2656 152.969 95.2812 152.141ZM96.4219 157.875C96.4141 157.023 97.5781 156.57 99.5938 156.562C101.578 156.57 102.742 157.023 102.75 157.875C102.742 158.695 101.578 159.172 99.5938 159.172C97.5781 159.172 96.4141 158.695 96.4219 157.875ZM123.609 157.359H117.938V154.047H116.453V157.359H110.797V158.578H123.609V157.359ZM111.391 153.406L112 154.578C114.219 154.141 116.289 152.805 117.188 150.938C118.102 152.781 120.188 154.094 122.453 154.516L123.047 153.344C120.383 152.93 117.953 151.023 117.953 148.875V148.75H122.5V147.531H111.859V148.75H116.406V148.875C116.406 151.023 113.992 152.969 111.391 153.406ZM129.484 149.891V147.5H128V149.891C127.992 152.453 126.539 155.141 124.391 156.172L125.312 157.375C126.906 156.547 128.133 154.867 128.758 152.883C129.375 154.75 130.555 156.312 132.078 157.109L133 155.922C130.914 154.906 129.469 152.367 129.484 149.891ZM134.047 160.328H135.531V153.172H137.781V151.906H135.531V146.328H134.047V160.328Z" fill="#737373"/>
<path opacity="0.4" d="M212 45.8038C216 48.1132 218 49.2679 218 51C218 51 218 51 218 51C218 52.7321 216 53.8868 212 56.1962C208 58.5056 206 59.6603 204.5 58.7942C204.5 58.7942 204.5 58.7942 204.5 58.7942C203 57.9282 203 55.6188 203 51C203 46.3812 203 44.0718 204.5 43.2058C204.5 43.2058 204.5 43.2058 204.5 43.2058C206 42.3397 208 43.4944 212 45.8038Z" fill="#6485C6"/>
<rect x="458" width="189" height="101" rx="8" fill="#6485C6"/>
<path d="M513.209 48.02V44.86H507.109V42.88H515.949V49.98H509.889V53.18H511.329C513.149 53.18 515.929 53.1 517.849 52.7V54.68C515.809 55.02 512.969 55.16 511.089 55.16H507.109V48.02H513.209ZM521.369 41.7V59.6L518.649 60V42.1L521.369 41.7ZM541.253 55.34L540.853 57.38H523.913V55.34H541.253ZM534.013 42.44V45.48C534.013 45.9 534.053 46.4 534.373 46.66C535.793 47.86 538.413 49.84 540.153 50.98L538.673 52.66C536.913 51.54 533.993 49.54 532.633 48.32C531.233 49.52 528.373 51.62 526.453 52.8L524.953 51.14C526.813 49.92 529.313 48.08 530.713 46.82C531.033 46.54 531.153 46.02 531.153 45.6V42.84L534.013 42.44ZM544.156 50.52V48.52C546.776 48.52 550.836 48.42 553.956 48.16C554.096 47.02 554.196 45.88 554.236 44.82H544.436V42.84H557.056C557.016 46 556.536 50.76 555.736 53.92H552.916C553.196 52.84 553.476 51.56 553.676 50.2C550.596 50.42 546.876 50.52 544.156 50.52ZM559.456 55.1L559.056 57.14H542.116V55.1H559.456ZM577.504 53.06C579.684 53.06 581.664 53.94 581.664 56.64C581.664 59.36 579.684 60.24 577.504 60.24H573.224C570.964 60.24 568.944 59.36 568.944 56.64C568.944 53.94 570.964 53.06 573.224 53.06H577.504ZM569.784 52.2H566.404V50.32H568.104L568.004 45.26H570.764L570.864 50.32C571.384 50.32 571.944 50.32 572.524 50.28L572.604 45.26H575.244L575.164 50.14C576.124 50.06 577.044 49.98 577.824 49.86V51.78C575.804 52.08 572.384 52.2 569.784 52.2ZM581.584 41.7V52.38L578.884 52.78V49.5H576.244V47.6H578.884V46.78H576.244V44.86H578.884V42.1L581.584 41.7ZM577.244 55.04H573.444C572.364 55.04 571.624 55.48 571.624 56.64C571.624 57.82 572.364 58.26 573.444 58.26H577.244C578.244 58.26 578.984 57.82 578.984 56.64C578.984 55.48 578.244 55.04 577.244 55.04ZM576.524 44.56H566.744V42.56H576.524V44.56ZM599.247 41.7V48.56H602.127L601.727 50.8H599.247V59.6L596.507 60V42.1L599.247 41.7ZM591.387 44.98H585.287V43H594.267V44.42C594.267 49.86 590.467 54.18 586.087 56.18L584.447 54.4C588.267 52.8 591.387 48.8 591.387 45.32V44.98Z" fill="white"/>
<path d="M495.703 118.922H494.25V125.031H500.844V118.922H499.375V120.828H495.703V118.922ZM495.656 127.312H503.234V128.578H495.688V132.188H505.188V131H497.141V129.672H504.703V126.141H495.656V127.312ZM495.703 123.844V121.969H499.375V123.844H495.703ZM503.219 125.531H504.703V122.469H506.734V121.266H504.703V118.328H503.219V125.531ZM511.812 121.016V119.203H510.375V121.016C510.375 122.57 509.359 124.352 507.469 125.172L508.281 126.328C509.641 125.742 510.594 124.617 511.109 123.32C511.609 124.469 512.523 125.422 513.828 125.922L514.609 124.781C512.789 124.094 511.812 122.547 511.812 121.016ZM510.047 129.766C510.031 131.359 511.852 132.305 514.781 132.297C517.703 132.305 519.539 131.359 519.547 129.766C519.539 128.172 517.703 127.227 514.781 127.219C511.852 127.227 510.031 128.172 510.047 129.766ZM511.516 129.766C511.5 128.867 512.742 128.352 514.781 128.359C516.812 128.352 518.055 128.867 518.062 129.766C518.055 130.656 516.812 131.172 514.781 131.156C512.742 131.172 511.5 130.656 511.516 129.766ZM515.047 126.516H516.422V123.203H518.062V126.953H519.469V118.344H518.062V121.984H516.422V118.594H515.047V126.516ZM532.266 118.328H530.781V132.312H532.266V125.141H534.438V123.906H532.266V118.328ZM521.375 128.578L522.203 129.734C526.812 127.461 528.594 123.844 528.609 119.797H522.078V121.031H527.094C526.789 124.297 524.883 126.828 521.375 128.578ZM546.5 122.109H538.359V118.578H536.891V123.312H546.5V122.109ZM535.188 126.016H547.969V124.797H535.188V126.016ZM536.703 129.703C536.703 131.344 538.523 132.266 541.562 132.266C544.578 132.266 546.383 131.344 546.391 129.703C546.383 128.07 544.578 127.148 541.562 127.156C538.523 127.148 536.703 128.07 536.703 129.703ZM538.203 129.703C538.195 128.797 539.422 128.32 541.562 128.312C543.672 128.32 544.906 128.797 544.906 129.703C544.906 130.602 543.672 131.117 541.562 131.125C539.422 131.117 538.195 130.602 538.203 129.703ZM553.984 120.422V119.109H552.516V120.484C552.5 122.586 551.203 124.453 548.969 125.219L549.766 126.406C551.461 125.797 552.68 124.539 553.281 122.938C553.891 124.344 555.023 125.422 556.562 125.984L557.375 124.828C555.25 124.133 553.977 122.383 553.984 120.422ZM551.266 129.656C551.258 131.344 553.055 132.305 556 132.297C558.93 132.305 560.727 131.344 560.734 129.656C560.727 127.961 558.93 126.977 556 126.984C553.055 126.977 551.258 127.961 551.266 129.656ZM552.734 129.656C552.727 128.695 553.945 128.141 556 128.141C558.039 128.141 559.258 128.695 559.266 129.656C559.258 130.586 558.039 131.133 556 131.125C553.945 131.133 552.727 130.586 552.734 129.656ZM556.25 122.391H559.203V126.594H560.688V118.328H559.203V121.172H556.25V122.391ZM565.359 129.922H563.609L562.781 134.234H564.109L565.359 129.922ZM582.453 118.344H580.969V126.266H582.453V118.344ZM570.906 124.781L571.641 125.953C573.32 125.367 574.562 124.148 575.188 122.609C575.82 124.047 577.047 125.148 578.672 125.688L579.406 124.547C577.281 123.828 575.93 122.125 575.938 120.234V118.875H574.422V120.234C574.414 122.188 573.094 124.047 570.906 124.781ZM573.25 132.156H582.453V127.016H573.25V132.156ZM574.719 130.953V128.203H581V130.953H574.719ZM595.672 118.328H594.188V126.516H595.672V123.031H597.703V121.781H595.672V118.328ZM584.594 125.25L585.203 126.391C589.359 125.32 591.789 122.789 591.797 119.188H585.266V120.391H590.203C589.945 122.594 587.953 124.367 584.594 125.25ZM586.422 128.328H594.188V132.328H595.672V127.125H586.422V128.328ZM609.844 124.781H601.578V120.609H609.719V119.406H600.094V125.969H604.141V129.391H598.5V130.609H611.312V129.391H605.609V125.969H609.844V124.781Z" fill="#737373"/>
<path opacity="0.4" d="M670 45.8038C674 48.1132 676 49.2679 676 51C676 51 676 51 676 51C676 52.7321 674 53.8868 670 56.1962C666 58.5056 664 59.6603 662.5 58.7942C662.5 58.7942 662.5 58.7942 662.5 58.7942C661 57.9282 661 55.6188 661 51C661 46.3812 661 44.0718 662.5 43.2058C662.5 43.2058 662.5 43.2058 662.5 43.2058C664 42.3397 666 43.4944 670 45.8038Z" fill="#6485C6"/>
<rect x="916" width="189" height="101" rx="8" fill="#6485C6"/>
<path d="M959.305 32.02V28.86H953.205V26.88H962.045V33.98H955.985V37.18H957.425C959.245 37.18 962.025 37.1 963.945 36.7V38.68C961.905 39.02 959.065 39.16 957.185 39.16H953.205V32.02H959.305ZM967.465 25.7V43.6L964.745 44V26.1L967.465 25.7ZM987.348 39.34L986.948 41.38H970.008V39.34H987.348ZM980.108 26.44V29.48C980.108 29.9 980.148 30.4 980.468 30.66C981.888 31.86 984.508 33.84 986.248 34.98L984.768 36.66C983.008 35.54 980.088 33.54 978.728 32.32C977.328 33.52 974.468 35.62 972.548 36.8L971.048 35.14C972.908 33.92 975.408 32.08 976.808 30.82C977.128 30.54 977.248 30.02 977.248 29.6V26.84L980.108 26.44ZM990.251 34.52V32.52C992.871 32.52 996.931 32.42 1000.05 32.16C1000.19 31.02 1000.29 29.88 1000.33 28.82H990.531V26.84H1003.15C1003.11 30 1002.63 34.76 1001.83 37.92H999.011C999.291 36.84 999.571 35.56 999.771 34.2C996.691 34.42 992.971 34.52 990.251 34.52ZM1005.55 39.1L1005.15 41.14H988.211V39.1H1005.55ZM1013.6 31.76C1013.6 29.88 1015.6 28.88 1018.1 28.88C1020.6 28.88 1022.6 29.88 1022.6 31.76V32.06C1022.6 33.58 1021.32 34.54 1019.52 34.88V35.74C1020.94 35.66 1022.46 35.52 1023.74 35.3V37.24C1020.9 37.64 1017.82 37.76 1014.74 37.76H1012.32V35.8H1016.72V34.88C1014.9 34.56 1013.6 33.58 1013.6 32.06V31.76ZM1027.2 25.7V31.68H1029.96L1029.56 33.7H1027.2V37.52L1024.44 37.92V26.1L1027.2 25.7ZM1014.98 38.62H1027.2V43.96L1024.4 44.36V40.6H1014.98V38.62ZM1023.02 28.5H1012.98V26.66H1016.8V25.66L1019.56 25.26V26.66H1023.42L1023.02 28.5ZM1020 31.84C1020 31.14 1019.3 30.72 1018.1 30.72C1016.9 30.72 1016.2 31.14 1016.2 31.84V31.98C1016.2 32.68 1016.9 33.16 1018.1 33.16C1019.3 33.16 1020 32.68 1020 31.98V31.84ZM1045.88 25.7V38.44L1043.18 38.84V26.1L1045.88 25.7ZM1046 43.92H1034.28V38.14H1037.06V41.92H1046.4L1046 43.92ZM1040.62 31.78C1040.62 34.46 1038.38 35.9 1035.86 35.9C1033.34 35.9 1031.1 34.46 1031.1 31.78V30.62C1031.1 27.94 1033.34 26.5 1035.86 26.5C1038.38 26.5 1040.62 27.94 1040.62 30.62V31.78ZM1037.92 31.7V30.7C1037.92 29.3 1037.06 28.5 1035.86 28.5C1034.66 28.5 1033.8 29.3 1033.8 30.7V31.7C1033.8 33.1 1034.66 33.9 1035.86 33.9C1037.06 33.9 1037.92 33.1 1037.92 31.7ZM1055.25 26.36H1064.01V34.24L1061.31 34.64H1055.25V26.36ZM1069.73 39.3L1064.99 39.32C1064.99 39.68 1065.03 40.06 1065.35 40.22C1067.03 41.2 1068.67 42 1070.69 42.9L1069.41 44.58C1067.39 43.74 1065.33 42.76 1063.65 41.86C1062.11 42.72 1059.91 43.84 1057.89 44.72L1056.57 43.06C1058.73 42.14 1060.29 41.26 1061.79 40.36C1062.11 40.18 1062.21 39.72 1062.23 39.32H1057.25V37.42H1062.23V35.76L1064.99 35.36V37.42H1070.13L1069.73 39.3ZM1069.67 25.7V35.8L1066.97 36.2V26.1L1069.67 25.7ZM1061.31 28.36H1057.95V32.7H1061.31V28.36ZM985.751 71.32V66.86H983.051V68.34L980.351 68.74H974.051V58.56H976.831V61.72H980.351V58.56H983.051V60.62H985.751V58.1L988.471 57.7V70.92L985.751 71.32ZM988.591 75.92H976.871V70.38H979.631V73.92H988.991L988.591 75.92ZM976.831 66.76H980.351V63.72H976.831V66.76ZM983.051 62.62V64.88H985.751V62.62H983.051ZM1003.97 68.94V66.52H1000.37V64.52H1003.97V62.62H1000.89C999.514 65.6 996.034 68.06 992.774 69.04L991.474 67.3C995.454 66.2 998.634 62.98 998.634 60.88V60.6H992.514V58.6H1001.51V59.98C1001.51 60.2 1001.49 60.42 1001.47 60.62H1003.97V58.1L1006.69 57.7V68.54L1003.97 68.94ZM1002.59 69.06C1004.77 69.06 1006.75 69.94 1006.75 72.64C1006.75 75.36 1004.77 76.24 1002.59 76.24H998.314C996.054 76.24 994.034 75.36 994.034 72.64C994.034 69.94 996.054 69.06 998.314 69.06H1002.59ZM1002.33 71.04H998.534C997.454 71.04 996.714 71.48 996.714 72.64C996.714 73.82 997.454 74.26 998.534 74.26H1002.33C1003.33 74.26 1004.07 73.82 1004.07 72.64C1004.07 71.48 1003.33 71.04 1002.33 71.04ZM1030 57.7V63.64H1032.76L1032.36 65.66H1030V70.68L1027.24 71.08V58.1L1030 57.7ZM1015.12 67.18H1018.2V62.78H1020.86V67.18C1022.62 67.12 1024.84 66.96 1026.54 66.68V68.66C1023.7 69.06 1020.62 69.18 1017.54 69.18H1015.12V67.18ZM1030.1 75.92H1018.22V70.3H1020.98V73.92H1030.5L1030.1 75.92ZM1022.88 60.44H1015.96V58.44H1025.74C1025.66 60.52 1025.36 64.14 1024.88 65.82H1022.2C1022.64 64.34 1022.88 61.72 1022.88 60.44ZM1040.53 64.02V60.86H1034.43V58.88H1043.27V65.98H1037.21V69.18H1038.65C1040.47 69.18 1043.25 69.1 1045.17 68.7V70.68C1043.13 71.02 1040.29 71.16 1038.41 71.16H1034.43V64.02H1040.53ZM1048.69 57.7V75.6L1045.97 76V58.1L1048.69 57.7Z" fill="white"/>
<path d="M985.352 129.359H979.68V126.047H978.195V129.359H972.539V130.578H985.352V129.359ZM973.133 125.406L973.742 126.578C975.961 126.141 978.031 124.805 978.93 122.938C979.844 124.781 981.93 126.094 984.195 126.516L984.789 125.344C982.125 124.93 979.695 123.023 979.695 120.875V120.75H984.242V119.531H973.602V120.75H978.148V120.875C978.148 123.023 975.734 124.969 973.133 125.406ZM997.961 118.328H996.477V132.328H997.961V118.328ZM986.57 128.5L987.398 129.641C989.023 128.906 990.297 127.352 990.93 125.477C991.578 127.242 992.859 128.703 994.477 129.406L995.289 128.266C993.109 127.344 991.641 125.062 991.633 122.828V121.906H994.773V120.719H991.633V118.609H990.164V120.719H986.992V121.906H990.18V122.828C990.172 125.172 988.734 127.531 986.57 128.5ZM1015.7 118.328H1014.21V132.359H1015.7V118.328ZM1004.59 124.281C1004.59 127.305 1006.09 129.211 1008.21 129.203C1010.29 129.211 1011.82 127.305 1011.82 124.281C1011.82 121.289 1010.29 119.383 1008.21 119.375C1006.09 119.383 1004.59 121.289 1004.59 124.281ZM1006.02 124.281C1006.02 122.086 1006.91 120.711 1008.21 120.703C1009.49 120.711 1010.38 122.086 1010.38 124.281C1010.38 126.508 1009.49 127.875 1008.21 127.875C1006.91 127.875 1006.02 126.508 1006.02 124.281ZM1029.87 118.328H1028.46V122.031H1026.84V118.594H1025.45V126.672H1026.84V123.25H1028.46V127.156H1029.87V118.328ZM1017.85 121.094H1024.93V119.922H1022.15V118.438H1020.68V119.922H1017.85V121.094ZM1018.4 124.156C1018.4 125.609 1019.65 126.562 1021.4 126.562C1023.19 126.562 1024.43 125.609 1024.43 124.156C1024.43 122.703 1023.19 121.75 1021.4 121.75C1019.65 121.75 1018.4 122.703 1018.4 124.156ZM1019.73 124.156C1019.73 123.359 1020.41 122.836 1021.4 122.844C1022.41 122.836 1023.09 123.359 1023.09 124.156C1023.09 124.953 1022.41 125.477 1021.4 125.484C1020.41 125.477 1019.73 124.953 1019.73 124.156ZM1020.45 129.844C1020.43 131.414 1022.21 132.305 1025.18 132.297C1028.16 132.305 1029.94 131.414 1029.95 129.844C1029.94 128.258 1028.16 127.359 1025.18 127.359C1022.21 127.359 1020.43 128.258 1020.45 129.844ZM1021.91 129.844C1021.9 128.961 1023.1 128.492 1025.18 128.5C1027.27 128.492 1028.45 128.961 1028.46 129.844C1028.45 130.688 1027.27 131.172 1025.18 131.156C1023.1 131.172 1021.9 130.688 1021.91 129.844ZM1047.71 119.875H1042.77V118.266H1041.3V119.875H1036.32V121.094H1047.71V119.875ZM1035.66 128.609H1041.3V132.344H1042.77V128.609H1048.48V127.391H1035.66V128.609ZM1037.38 124.172C1037.38 125.664 1039.12 126.508 1042.04 126.516C1044.95 126.508 1046.7 125.664 1046.7 124.172C1046.7 122.641 1044.95 121.805 1042.04 121.812C1039.12 121.805 1037.38 122.641 1037.38 124.172ZM1038.91 124.172C1038.91 123.367 1040.03 122.922 1042.04 122.922C1044.04 122.922 1045.16 123.367 1045.16 124.172C1045.16 124.953 1044.04 125.398 1042.04 125.391C1040.03 125.398 1038.91 124.953 1038.91 124.172ZM970.336 146.328H968.852V160.359H970.336V146.328ZM959.492 148.797H964.539V151.516H959.508V157H960.695C963.172 156.992 965.281 156.898 967.758 156.484L967.617 155.266C965.273 155.648 963.297 155.758 961.023 155.766V152.703H966.055V147.594H959.492V148.797ZM979.648 148.312V147.25H978.086V148.312C978.078 150.594 975.664 152.734 973.008 153.234L973.664 154.469C975.906 153.969 977.961 152.508 978.883 150.547C979.789 152.516 981.844 153.984 984.086 154.469L984.773 153.234C982.078 152.75 979.648 150.594 979.648 148.312ZM972.539 158.484H985.352V157.25H972.539V158.484ZM997.633 147.688H987.883V148.906H996.195V149.391C996.188 150.109 996.188 150.828 996.156 151.578L987.492 151.906L987.68 153.125L996.086 152.68C996.008 153.719 995.852 154.836 995.555 156.125L997.023 156.266C997.633 153.359 997.633 151.438 997.633 149.391V147.688ZM986.367 158.453H999.133V157.234H986.367V158.453ZM1015.77 146.344H1014.29V148.828H1011.23V147.266H1009.76V149.641H1006.26V147.266H1004.77V154.359H1011.23V153.047H1014.29V156.688H1015.77V146.344ZM1006.26 153.156V150.781H1009.76V153.156H1006.26ZM1006.63 160.031H1016.09V158.828H1008.13V155.672H1006.63V160.031ZM1011.23 151.844V150.047H1014.29V151.844H1011.23ZM1029.6 146.344H1028.12V148.828H1025.08C1025.17 148.359 1025.23 147.859 1025.23 147.344H1018.82V148.562H1023.62C1023.35 150.82 1021.41 152.602 1018.1 153.547L1018.7 154.703C1021.73 153.836 1023.83 152.25 1024.73 150H1028.12V151.703H1024.59V152.922H1028.12V154.625H1029.6V146.344ZM1020.27 157.516C1020.27 159.219 1022.12 160.266 1024.99 160.266C1027.83 160.266 1029.69 159.219 1029.7 157.516C1029.69 155.82 1027.83 154.789 1024.99 154.781C1022.12 154.789 1020.27 155.82 1020.27 157.516ZM1021.74 157.516C1021.74 156.516 1022.99 155.945 1024.99 155.953C1026.95 155.945 1028.2 156.516 1028.21 157.516C1028.2 158.5 1026.95 159.07 1024.99 159.078C1022.99 159.07 1021.74 158.5 1021.74 157.516ZM1043.46 147.391H1036.4V148.609H1042C1041.98 149.492 1041.94 150.625 1041.63 152.172L1043.1 152.312C1043.45 150.5 1043.45 149.109 1043.46 148.172V147.391ZM1035.55 153.516L1035.7 154.719C1038.16 154.711 1041.51 154.656 1044.43 154.141L1044.34 153.062C1042.93 153.266 1041.38 153.375 1039.88 153.438V150.531H1038.41V153.484C1037.39 153.508 1036.41 153.516 1035.55 153.516ZM1037.68 160.031H1047.2V158.828H1039.16V155.891H1037.68V160.031ZM1045.23 156.844H1046.74V152.031H1048.66V150.781H1046.74V146.328H1045.23V156.844ZM1061.12 146.328H1059.63V160.359H1061.12V146.328ZM1050.27 148.797H1055.32V151.516H1050.29V157H1051.48C1053.95 156.992 1056.06 156.898 1058.54 156.484L1058.4 155.266C1056.05 155.648 1054.08 155.758 1051.8 155.766V152.703H1056.84V147.594H1050.27V148.797Z" fill="#737373"/>
<path opacity="0.4" d="M1128 45.8038C1132 48.1132 1134 49.2679 1134 51C1134 51 1134 51 1134 51C1134 52.7321 1132 53.8868 1128 56.1962C1124 58.5056 1122 59.6603 1120.5 58.7942C1120.5 58.7942 1120.5 58.7942 1120.5 58.7942C1119 57.9282 1119 55.6188 1119 51C1119 46.3812 1119 44.0718 1120.5 43.2058C1120.5 43.2058 1120.5 43.2058 1120.5 43.2058C1122 42.3397 1124 43.4944 1128 45.8038Z" fill="#6485C6"/>
<rect x="229" width="189" height="101" rx="8" fill="#6485C6"/>
<path d="M284.209 48.02V44.86H278.109V42.88H286.949V49.98H280.889V53.18H282.329C284.149 53.18 286.929 53.1 288.849 52.7V54.68C286.809 55.02 283.969 55.16 282.089 55.16H278.109V48.02H284.209ZM292.369 41.7V59.6L289.649 60V42.1L292.369 41.7ZM312.253 55.34L311.853 57.38H294.913V55.34H312.253ZM305.013 42.44V45.48C305.013 45.9 305.053 46.4 305.373 46.66C306.793 47.86 309.413 49.84 311.153 50.98L309.673 52.66C307.913 51.54 304.993 49.54 303.633 48.32C302.233 49.52 299.373 51.62 297.453 52.8L295.953 51.14C297.813 49.92 300.313 48.08 301.713 46.82C302.033 46.54 302.153 46.02 302.153 45.6V42.84L305.013 42.44ZM315.156 50.52V48.52C317.776 48.52 321.836 48.42 324.956 48.16C325.096 47.02 325.196 45.88 325.236 44.82H315.436V42.84H328.056C328.016 46 327.536 50.76 326.736 53.92H323.916C324.196 52.84 324.476 51.56 324.676 50.2C321.596 50.42 317.876 50.52 315.156 50.52ZM330.456 55.1L330.056 57.14H313.116V55.1H330.456ZM352.604 41.5V52.34L349.884 52.74V41.9L352.604 41.5ZM340.624 53.44H352.604V59.96L349.844 60.36V55.4H340.624V53.44ZM344.104 42.08V45.4C344.104 45.82 344.184 46.28 344.464 46.58C345.724 47.94 347.084 49.2 348.504 50.48L346.884 52C345.444 50.76 343.984 49.54 342.724 48.24C341.464 49.6 339.944 51.1 338.404 52.4L336.724 50.94C338.204 49.6 339.564 48.3 340.824 46.74C341.084 46.4 341.264 45.94 341.264 45.52V42.48L344.104 42.08ZM368.067 51.34V49.34H365.367V50.46L362.667 50.86H356.367V42.18H359.067V44.74H362.667V42.18H365.367V43.84H368.067V42.1L370.787 41.7V50.94L368.067 51.34ZM370.907 60.08H358.967V55.1H368.027V53.94H358.927V52.04H370.787V56.94H361.727V58.18H371.307L370.907 60.08ZM359.067 48.86H362.667V46.74H359.067V48.86ZM365.367 45.84V47.36H368.067V45.84H365.367Z" fill="white"/>
<path d="M269.523 122.672H271.195C271.141 120.844 269.539 119.531 267.242 119.531C264.953 119.531 263.219 120.828 263.211 122.781C263.219 124.359 264.344 125.281 266.164 125.781L267.508 126.141C268.703 126.461 269.641 126.859 269.648 127.844C269.641 128.953 268.594 129.68 267.148 129.688C265.828 129.68 264.734 129.094 264.633 127.859H262.914C263.023 129.922 264.617 131.188 267.148 131.188C269.82 131.188 271.344 129.789 271.352 127.875C271.344 125.828 269.531 125.039 268.086 124.688L266.992 124.391C266.094 124.18 264.93 123.758 264.93 122.688C264.938 121.727 265.812 121.016 267.195 121.016C268.492 121.016 269.414 121.617 269.523 122.672ZM275.43 131H277.164L279.539 122.547H279.633L282.008 131H283.742L286.883 119.688H285.07L282.867 128.438H282.773L280.477 119.688H278.695L276.398 128.438H276.305L274.102 119.688H272.289L275.43 131ZM297.539 125.344C297.539 121.727 295.367 119.531 292.445 119.531C289.5 119.531 287.336 121.727 287.336 125.344C287.336 128.953 289.5 131.156 292.445 131.156C295.367 131.156 297.539 128.961 297.539 125.344ZM289.039 125.344C289.047 122.594 290.492 121.102 292.445 121.109C294.383 121.102 295.828 122.594 295.836 125.344C295.828 128.094 294.383 129.586 292.445 129.578C290.492 129.586 289.047 128.094 289.039 125.344ZM298.43 121.172H301.961V131H303.68V121.172H307.195V119.688H298.43V121.172ZM310.289 129.922H308.539L307.711 134.234H309.039L310.289 129.922ZM320.273 131.156C322.617 131.156 324.359 129.773 324.352 127.891C324.359 126.461 323.461 125.422 321.914 125.203V125.125C323.133 124.82 323.93 123.898 323.914 122.609C323.93 120.938 322.531 119.531 320.305 119.531C318.195 119.531 316.492 120.781 316.445 122.625H318.102C318.141 121.602 319.156 120.969 320.289 120.969C321.484 120.969 322.258 121.672 322.258 122.703C322.258 123.789 321.359 124.508 320.07 124.5H319.102V125.906H320.07C321.688 125.914 322.617 126.711 322.617 127.828C322.617 128.93 321.625 129.672 320.258 129.672C318.992 129.672 318.008 129.039 317.945 128.047H316.195C316.266 129.898 317.93 131.156 320.273 131.156ZM334.055 123.375H335.789C335.406 120.945 333.508 119.531 331.117 119.531C328.188 119.531 326.023 121.727 326.023 125.344C326.023 128.961 328.172 131.156 331.117 131.156C333.609 131.156 335.43 129.594 335.789 127.359L334.055 127.344C333.758 128.789 332.555 129.586 331.133 129.578C329.188 129.586 327.734 128.102 327.727 125.344C327.734 122.602 329.18 121.102 331.133 121.109C332.57 121.102 333.781 121.914 334.055 123.375ZM353.711 125.656H340.898V126.844H346.68V129.422H348.148V126.844H353.711V125.656ZM342.492 132.031H352.289V130.828H343.961V128.203H342.492V132.031ZM342.586 124.422H352.023V118.766H350.539V120.469H344.055V118.766H342.586V124.422ZM344.055 123.234V121.578H350.539V123.234H344.055ZM359.68 120.562V119.047H358.195V120.484C358.188 122.555 356.922 124.398 354.727 125.156L355.523 126.359C357.156 125.734 358.344 124.516 358.961 122.961C359.562 124.375 360.703 125.5 362.242 126.062L363.055 124.875C360.945 124.172 359.672 122.422 359.68 120.562ZM356.93 128.531H364.93V132.328H366.414V127.359H356.93V128.531ZM361.977 122.375H364.93V126.625H366.414V118.328H364.93V121.156H361.977V122.375ZM385.258 124.906H372.477V126.125H385.258V124.906ZM373.992 129.766C373.992 131.391 375.812 132.305 378.852 132.297C381.867 132.305 383.672 131.391 383.68 129.766C383.672 128.141 381.867 127.219 378.852 127.219C375.812 127.219 373.992 128.141 373.992 129.766ZM374.07 123.688H383.773V122.484H375.539V120.047H383.68V118.828H374.07V123.688ZM375.492 129.766C375.484 128.875 376.711 128.375 378.852 128.359C380.961 128.375 382.195 128.875 382.195 129.766C382.195 130.664 380.961 131.148 378.852 131.156C376.711 131.148 375.484 130.664 375.492 129.766Z" fill="#737373"/>
<path opacity="0.4" d="M441 45.8038C445 48.1132 447 49.2679 447 51C447 51 447 51 447 51C447 52.7321 445 53.8868 441 56.1962C437 58.5056 435 59.6603 433.5 58.7942C433.5 58.7942 433.5 58.7942 433.5 58.7942C432 57.9282 432 55.6188 432 51C432 46.3812 432 44.0718 433.5 43.2058C433.5 43.2058 433.5 43.2058 433.5 43.2058C435 42.3397 437 43.4944 441 45.8038Z" fill="#6485C6"/>
<rect x="687" width="189" height="101" rx="8" fill="#6485C6"/>
<path d="M742.209 48.02V44.86H736.109V42.88H744.949V49.98H738.889V53.18H740.329C742.149 53.18 744.929 53.1 746.849 52.7V54.68C744.809 55.02 741.969 55.16 740.089 55.16H736.109V48.02H742.209ZM750.369 41.7V59.6L747.649 60V42.1L750.369 41.7ZM770.253 55.34L769.853 57.38H752.913V55.34H770.253ZM763.013 42.44V45.48C763.013 45.9 763.053 46.4 763.373 46.66C764.793 47.86 767.413 49.84 769.153 50.98L767.673 52.66C765.913 51.54 762.993 49.54 761.633 48.32C760.233 49.52 757.373 51.62 755.453 52.8L753.953 51.14C755.813 49.92 758.313 48.08 759.713 46.82C760.033 46.54 760.153 46.02 760.153 45.6V42.84L763.013 42.44ZM773.156 50.52V48.52C775.776 48.52 779.836 48.42 782.956 48.16C783.096 47.02 783.196 45.88 783.236 44.82H773.436V42.84H786.056C786.016 46 785.536 50.76 784.736 53.92H781.916C782.196 52.84 782.476 51.56 782.676 50.2C779.596 50.42 775.876 50.52 773.156 50.52ZM788.456 55.1L788.056 57.14H771.116V55.1H788.456ZM809.704 44.74H805.024V45.64C805.024 46.06 805.064 46.56 805.384 46.82C806.824 47.96 809.264 49.82 811.064 50.94L809.584 52.62C807.764 51.52 805.024 49.64 803.604 48.48C802.184 49.66 799.324 51.6 797.564 52.76L796.064 51.1C797.964 49.9 800.324 48.24 801.724 46.98C802.044 46.7 802.164 46.18 802.164 45.76V44.74H797.244V42.76H810.104L809.704 44.74ZM794.924 55.58H802.284V51.64H805.164V55.58H812.264L811.864 57.62H794.924V55.58ZM824.387 44.3L823.987 46.28H820.567V48.46C820.567 48.88 820.687 49.32 820.927 49.64C821.947 51 823.387 52.7 824.787 54.2L823.147 55.72C821.707 54.26 820.247 52.6 819.207 51.3C818.047 52.78 816.527 54.58 815.067 56.14L813.367 54.72C814.787 53.12 816.167 51.44 817.367 49.8C817.607 49.46 817.807 49 817.807 48.58V46.28H814.027V44.3H817.807V42.3L820.567 41.9V44.3H824.387ZM828.787 41.7V59.6L826.067 60V42.1L828.787 41.7Z" fill="white"/>
<path d="M734.422 118.328H732.938V132.359H734.422V118.328ZM723.578 120.797H728.625V123.516H723.594V129H724.781C727.258 128.992 729.367 128.898 731.844 128.484L731.703 127.266C729.359 127.648 727.383 127.758 725.109 127.766V124.703H730.141V119.594H723.578V120.797ZM743.734 120.312V119.25H742.172V120.312C742.164 122.594 739.75 124.734 737.094 125.234L737.75 126.469C739.992 125.969 742.047 124.508 742.969 122.547C743.875 124.516 745.93 125.984 748.172 126.469L748.859 125.234C746.164 124.75 743.734 122.594 743.734 120.312ZM736.625 130.484H749.438V129.25H736.625V130.484ZM761.719 119.688H751.969V120.906H760.281V121.391C760.273 122.109 760.273 122.828 760.242 123.578L751.578 123.906L751.766 125.125L760.172 124.68C760.094 125.719 759.938 126.836 759.641 128.125L761.109 128.266C761.719 125.359 761.719 123.438 761.719 121.391V119.688ZM750.453 130.453H763.219V129.234H750.453V130.453ZM779.875 118.328H778.391V123.359H775.5V124.578H778.391V132.359H779.875V118.328ZM768.031 128.453L768.938 129.609C770.555 128.781 771.828 127.039 772.453 125.008C773.078 126.914 774.32 128.547 775.938 129.328L776.828 128.141C774.68 127.188 773.188 124.633 773.188 122.266V120.953H776.297V119.734H768.594V120.953H771.688V122.266C771.68 124.781 770.172 127.43 768.031 128.453ZM793.016 118.328H791.531V126.234H793.016V122.859H795.047V121.625H793.016V118.328ZM781.953 125.25L782.547 126.438C786.719 125.312 789.148 122.789 789.156 119.203H782.609V120.422H787.547C787.273 122.609 785.305 124.367 781.953 125.25ZM784.047 132.141H793.016V126.828H784.047V132.141ZM785.531 130.953V128.062H791.547V130.953H785.531ZM802.219 118.562C799.062 118.555 797.211 119.406 797.219 120.969C797.211 122.539 799.062 123.391 802.219 123.391C805.375 123.391 807.211 122.539 807.219 120.969C807.211 119.406 805.375 118.555 802.219 118.562ZM795.844 125.438H808.609V124.25H795.844V125.438ZM797.375 127.625H805.531V128.719H797.391V132.188H807.391V131.047H798.844V129.797H807V126.516H797.375V127.625ZM798.766 120.969C798.758 120.141 799.992 119.656 802.219 119.656C804.461 119.656 805.695 120.141 805.688 120.969C805.695 121.836 804.461 122.281 802.219 122.281C799.992 122.281 798.758 121.836 798.766 120.969ZM818.172 118.969C816.07 118.961 814.555 120.141 814.562 121.875C814.555 123.594 816.07 124.781 818.172 124.766C820.281 124.781 821.805 123.594 821.812 121.875C821.805 120.141 820.281 118.961 818.172 118.969ZM813.562 125.859L813.766 127.094C814.875 127.086 816.156 127.078 817.516 127.016V131.891H819V126.93C820.289 126.844 821.609 126.695 822.891 126.453L822.781 125.344C819.719 125.805 816.148 125.859 813.562 125.859ZM816 121.875C815.984 120.852 816.898 120.164 818.172 120.172C819.477 120.164 820.391 120.852 820.391 121.875C820.391 122.891 819.477 123.562 818.172 123.547C816.898 123.562 815.984 122.891 816 121.875ZM823.75 132.328H825.219V118.344H823.75V132.328ZM838.406 118.344H836.922V128.812H838.406V124.078H840.438V122.844H838.406V118.344ZM827.422 121.172H835.766V119.969H832.344V118.328H830.859V119.969H827.422V121.172ZM828.188 124.484C828.18 126.07 829.562 127.102 831.594 127.109C833.602 127.102 834.984 126.07 834.984 124.484C834.984 122.883 833.602 121.836 831.594 121.844C829.562 121.836 828.18 122.883 828.188 124.484ZM829.531 132.031H839V130.828H831.016V127.984H829.531V132.031ZM829.625 124.484C829.609 123.562 830.406 122.992 831.594 122.984C832.781 122.992 833.578 123.562 833.594 124.484C833.578 125.398 832.781 125.961 831.594 125.953C830.406 125.961 829.609 125.398 829.625 124.484ZM734.242 155.047C731.328 155.047 729.539 156.016 729.539 157.672C729.539 159.352 731.328 160.32 734.242 160.328C737.125 160.32 738.883 159.352 738.883 157.672C738.883 156.016 737.125 155.047 734.242 155.047ZM728.305 153.703H734.898V147.203H733.43V149.219H729.758V147.203H728.305V153.703ZM729.758 152.516V150.391H733.43V152.516H729.758ZM731.023 157.672C731.016 156.742 732.219 156.219 734.242 156.219C736.25 156.219 737.438 156.742 737.43 157.672C737.438 158.609 736.25 159.141 734.242 159.141C732.219 159.141 731.016 158.609 731.023 157.672ZM737.273 154.688H738.758V151.016H740.789V149.75H738.758V146.328H737.273V154.688ZM752.586 146.312H751.102V156.609H752.586V151.75H754.617V150.5H752.586V146.312ZM741.805 150.766C741.789 152.805 743.414 154.258 745.523 154.25C747.641 154.258 749.242 152.805 749.258 150.766C749.242 148.727 747.641 147.289 745.523 147.281C743.414 147.289 741.789 148.727 741.805 150.766ZM743.258 150.766C743.242 149.461 744.242 148.578 745.523 148.578C746.82 148.578 747.797 149.461 747.805 150.766C747.797 152.07 746.82 152.953 745.523 152.953C744.242 152.953 743.242 152.07 743.258 150.766ZM743.711 160.031H753.18V158.828H745.195V155.531H743.711V160.031ZM766.492 147.562V146.797H764.945V147.562C764.938 149.445 762.672 151.164 759.93 151.531L760.523 152.75C762.797 152.383 764.805 151.195 765.719 149.547C766.633 151.195 768.641 152.383 770.93 152.75L771.508 151.531C768.758 151.164 766.484 149.422 766.492 147.562ZM759.32 155.344H764.945V160.328H766.398V155.344H772.086V154.125H759.32V155.344ZM784.758 146.344H783.273V154.062H784.758V146.344ZM773.852 148.203H778.82V149.75H773.883V153.797H775.055C777.703 153.781 779.609 153.719 781.898 153.344L781.711 152.141C779.578 152.492 777.789 152.555 775.336 152.562V150.906H780.289V147H773.852V148.203ZM775.57 160.156H784.758V154.719H783.289V156.234H777.055V154.719H775.57V160.156ZM777.055 158.953V157.406H783.289V158.953H777.055ZM798.273 147.219H791.617V152.969H798.273V147.219ZM792.539 159.141L793.055 160.281C795.258 160.016 797.094 159.094 797.953 157.844C798.797 159.078 800.609 160.016 802.805 160.281L803.305 159.141C800.758 158.859 798.812 157.578 798.711 156.359H802.805V155.234H798.68V153.922H797.211V155.234H793.102V156.359H797.18C797.078 157.617 795.086 158.891 792.539 159.141ZM793.07 151.812V148.406H796.805V151.812H793.07ZM801.008 154.328H802.477V146.328H801.008V154.328ZM820.211 146.328H818.727V160.359H820.211V146.328ZM809.102 152.281C809.102 155.305 810.609 157.211 812.727 157.203C814.805 157.211 816.336 155.305 816.336 152.281C816.336 149.289 814.805 147.383 812.727 147.375C810.609 147.383 809.102 149.289 809.102 152.281ZM810.539 152.281C810.531 150.086 811.422 148.711 812.727 148.703C814.008 148.711 814.898 150.086 814.898 152.281C814.898 154.508 814.008 155.875 812.727 155.875C811.422 155.875 810.531 154.508 810.539 152.281ZM834.383 146.328H832.977V150.031H831.352V146.594H829.961V154.672H831.352V151.25H832.977V155.156H834.383V146.328ZM822.367 149.094H829.445V147.922H826.664V146.438H825.195V147.922H822.367V149.094ZM822.914 152.156C822.914 153.609 824.164 154.562 825.914 154.562C827.703 154.562 828.945 153.609 828.945 152.156C828.945 150.703 827.703 149.75 825.914 149.75C824.164 149.75 822.914 150.703 822.914 152.156ZM824.242 152.156C824.242 151.359 824.922 150.836 825.914 150.844C826.922 150.836 827.609 151.359 827.602 152.156C827.609 152.953 826.922 153.477 825.914 153.484C824.922 153.477 824.242 152.953 824.242 152.156ZM824.961 157.844C824.945 159.414 826.727 160.305 829.695 160.297C832.672 160.305 834.453 159.414 834.461 157.844C834.453 156.258 832.672 155.359 829.695 155.359C826.727 155.359 824.945 156.258 824.961 157.844ZM826.43 157.844C826.414 156.961 827.617 156.492 829.695 156.5C831.781 156.492 832.969 156.961 832.977 157.844C832.969 158.688 831.781 159.172 829.695 159.156C827.617 159.172 826.414 158.688 826.43 157.844Z" fill="#737373"/>
<path opacity="0.4" d="M899 45.8038C903 48.1132 905 49.2679 905 51C905 51 905 51 905 51C905 52.7321 903 53.8868 899 56.1962C895 58.5056 893 59.6603 891.5 58.7942C891.5 58.7942 891.5 58.7942 891.5 58.7942C890 57.9282 890 55.6188 890 51C890 46.3812 890 44.0718 891.5 43.2058C891.5 43.2058 891.5 43.2058 891.5 43.2058C893 42.3397 895 43.4944 899 45.8038Z" fill="#6485C6"/>
<rect x="1145" width="189" height="101" rx="8" fill="#6485C6"/>
<path d="M1224.8 25.7V43.6L1222.1 44V26.1L1224.8 25.7ZM1216.72 35.34V30.64C1216.72 29.2 1216.22 28.36 1214.82 28.36C1213.42 28.36 1212.92 29.2 1212.92 30.64V35.34C1212.92 36.78 1213.42 37.64 1214.82 37.64C1216.22 37.64 1216.72 36.78 1216.72 35.34ZM1219.44 30.58V35.42C1219.44 38.1 1217.6 39.66 1214.82 39.66C1212.04 39.66 1210.2 38.1 1210.2 35.42V30.58C1210.2 27.9 1212.04 26.34 1214.82 26.34C1217.6 26.34 1219.44 27.9 1219.44 30.58ZM1242.44 25.7V32.54H1245.32L1244.92 34.78H1242.44V43.6L1239.7 44V26.1L1242.44 25.7ZM1234.3 26.62V31.88C1234.3 32.3 1234.42 32.74 1234.66 33.06C1235.7 34.46 1237.28 36.38 1238.64 37.9L1237.04 39.44C1235.64 37.96 1233.94 36.08 1232.92 34.72C1231.74 36.22 1230.02 38.34 1228.6 39.88L1226.92 38.42C1228.28 36.84 1229.88 34.92 1231.06 33.22C1231.3 32.88 1231.5 32.42 1231.5 32V27.02L1234.3 26.62ZM1247.24 32.98C1247.24 31.12 1249.02 29.62 1251.8 29.62C1254.58 29.62 1256.36 31.12 1256.36 32.98V33.62C1256.36 35.1 1255.22 36.36 1253.36 36.82V38.82C1254.82 38.74 1256.44 38.6 1257.74 38.38V40.36C1254.88 40.76 1251.82 40.88 1248.74 40.88H1246.1V38.88H1250.54V36.88C1248.48 36.5 1247.24 35.18 1247.24 33.62V32.98ZM1258.48 26.1L1261.18 25.7V43.6L1258.48 44V26.1ZM1256.92 29.22H1246.38V27.22H1250.42V25.9L1253.18 25.5V27.22H1257.32L1256.92 29.22ZM1253.76 33.16C1253.76 32.18 1252.96 31.52 1251.8 31.52C1250.64 31.52 1249.84 32.18 1249.84 33.16V33.44C1249.84 34.42 1250.64 35.08 1251.8 35.08C1252.96 35.08 1253.76 34.42 1253.76 33.44V33.16ZM1269.11 26.06H1271.57L1266.53 42.52H1264.05L1269.11 26.06ZM1179.52 57.6V59.78H1183.14L1182.84 61.78H1179.52V62.48C1179.52 62.9 1179.58 63.36 1179.88 63.66C1180.92 64.72 1182.18 65.86 1183.6 67.02L1182 68.56C1180.54 67.46 1179.24 66.42 1178.12 65.32C1177.06 66.48 1175.6 67.82 1174.06 69.02L1172.38 67.56C1173.86 66.34 1175.24 65 1176.24 63.82C1176.52 63.48 1176.68 63.02 1176.68 62.6V61.78H1172.96V59.78H1176.68V58L1179.52 57.6ZM1184.66 58.1L1187.38 57.7V75.6L1184.66 76V58.1ZM1174.92 72.68H1172.28V70.7H1176.7V67.8H1179.5V70.64C1180.98 70.56 1182.62 70.42 1183.92 70.18V72.18C1181.06 72.56 1178 72.68 1174.92 72.68ZM1207.25 71.38L1206.85 73.42H1189.91V71.38H1195.37V65.36H1198.17V71.38H1207.25ZM1202.03 60.74H1192.03V58.76H1204.85C1204.81 61.92 1204.37 66.56 1203.65 69.68H1200.87C1201.51 66.84 1201.95 63.2 1202.03 60.74ZM1226.68 68.94V66.52H1223.08V64.52H1226.68V62.62H1223.6C1222.22 65.6 1218.74 68.06 1215.48 69.04L1214.18 67.3C1218.16 66.2 1221.34 62.98 1221.34 60.88V60.6H1215.22V58.6H1224.22V59.98C1224.22 60.2 1224.2 60.42 1224.18 60.62H1226.68V58.1L1229.4 57.7V68.54L1226.68 68.94ZM1225.3 69.06C1227.48 69.06 1229.46 69.94 1229.46 72.64C1229.46 75.36 1227.48 76.24 1225.3 76.24H1221.02C1218.76 76.24 1216.74 75.36 1216.74 72.64C1216.74 69.94 1218.76 69.06 1221.02 69.06H1225.3ZM1225.04 71.04H1221.24C1220.16 71.04 1219.42 71.48 1219.42 72.64C1219.42 73.82 1220.16 74.26 1221.24 74.26H1225.04C1226.04 74.26 1226.78 73.82 1226.78 72.64C1226.78 71.48 1226.04 71.04 1225.04 71.04ZM1244.88 68.76V66.1H1241.78V65.46C1241 66.94 1239.26 67.72 1237.36 67.72C1234.78 67.72 1232.5 66.28 1232.5 63.6V62.42C1232.5 59.74 1234.78 58.3 1237.36 58.3C1239.26 58.3 1241 59.08 1241.78 60.58V59.52H1244.88V58.1L1247.58 57.7V68.36L1244.88 68.76ZM1243.5 69.06C1245.68 69.06 1247.66 69.94 1247.66 72.64C1247.66 75.36 1245.68 76.24 1243.5 76.24H1239.22C1236.96 76.24 1234.94 75.36 1234.94 72.64C1234.94 69.94 1236.96 69.06 1239.22 69.06H1243.5ZM1243.24 71.04H1239.44C1238.36 71.04 1237.62 71.48 1237.62 72.64C1237.62 73.82 1238.36 74.26 1239.44 74.26H1243.24C1244.24 74.26 1244.98 73.82 1244.98 72.64C1244.98 71.48 1244.24 71.04 1243.24 71.04ZM1239.52 63.52V62.5C1239.52 61.1 1238.58 60.3 1237.36 60.3C1236.14 60.3 1235.2 61.1 1235.2 62.5V63.52C1235.2 64.92 1236.14 65.72 1237.36 65.72C1238.58 65.72 1239.52 64.92 1239.52 63.52ZM1242.22 63.6C1242.22 63.78 1242.2 63.94 1242.18 64.1H1244.88V61.5H1242.12C1242.18 61.8 1242.22 62.1 1242.22 62.42V63.6ZM1260.78 60.7H1257.56V62.88C1257.56 63.3 1257.64 63.76 1257.92 64.06C1259.16 65.44 1260.42 66.62 1261.82 67.8L1260.22 69.34C1258.8 68.2 1257.46 67.02 1256.2 65.72C1254.94 67.1 1253.44 68.54 1251.98 69.78L1250.3 68.32C1251.7 67.06 1253.14 65.82 1254.36 64.22C1254.62 63.88 1254.8 63.42 1254.8 63V60.7H1251.2V58.72H1261.18L1260.78 60.7ZM1265.8 57.7V70.44L1263.08 70.84V58.1L1265.8 57.7ZM1265.92 75.92H1254.18V70.14H1256.96V73.92H1266.32L1265.92 75.92ZM1273.93 71.58H1281.29V68.32H1276.53V58.28H1279.29V61.36H1285.85V58.28H1288.61V67.82L1285.85 68.32H1284.17V71.58H1291.27L1290.87 73.62H1273.93V71.58ZM1279.29 66.28H1285.85V63.4H1279.29V66.28ZM1309.47 71.38L1309.07 73.42H1292.13V71.38H1297.59V65.36H1300.39V71.38H1309.47ZM1304.25 60.74H1294.25V58.76H1307.07C1307.03 61.92 1306.59 66.56 1305.87 69.68H1303.09C1303.73 66.84 1304.17 63.2 1304.25 60.74Z" fill="white"/>
<path d="M1200.48 126.219H1187.71V127.422H1193.34V132.312H1194.79V127.422H1200.48V126.219ZM1188.43 123.984L1188.99 125.156C1191.26 124.797 1193.23 123.664 1194.09 122.07C1194.95 123.664 1196.93 124.797 1199.23 125.156L1199.77 123.984C1197.12 123.625 1194.97 122.07 1194.95 120.344H1199.27V119.156H1188.9V120.344H1193.26C1193.21 122.07 1191.04 123.625 1188.43 123.984ZM1214.35 129.344H1211.29V125.656C1212.41 125.023 1213.09 124.031 1213.09 122.797C1213.09 120.594 1210.92 119.148 1207.91 119.141C1204.91 119.148 1202.75 120.594 1202.76 122.797C1202.75 124.055 1203.45 125.055 1204.6 125.688V129.344H1201.54V130.578H1214.35V129.344ZM1204.2 122.797C1204.2 121.289 1205.72 120.328 1207.91 120.328C1210.09 120.328 1211.64 121.289 1211.65 122.797C1211.64 124.297 1210.09 125.273 1207.91 125.281C1205.72 125.273 1204.2 124.297 1204.2 122.797ZM1206.07 129.344V126.234C1206.63 126.367 1207.26 126.438 1207.91 126.438C1208.59 126.438 1209.22 126.367 1209.79 126.234V129.344H1206.07ZM1230.9 118.328H1229.41V132.359H1230.9V118.328ZM1220.05 120.797H1225.1V123.516H1220.07V129H1221.26C1223.73 128.992 1225.84 128.898 1228.32 128.484L1228.18 127.266C1225.84 127.648 1223.86 127.758 1221.59 127.766V124.703H1226.62V119.594H1220.05V120.797ZM1240.21 120.312V119.25H1238.65V120.312C1238.64 122.594 1236.23 124.734 1233.57 125.234L1234.23 126.469C1236.47 125.969 1238.52 124.508 1239.45 122.547C1240.35 124.516 1242.41 125.984 1244.65 126.469L1245.34 125.234C1242.64 124.75 1240.21 122.594 1240.21 120.312ZM1233.1 130.484H1245.91V129.25H1233.1V130.484ZM1258.2 119.688H1248.45V120.906H1256.76V121.391C1256.75 122.109 1256.75 122.828 1256.72 123.578L1248.05 123.906L1248.24 125.125L1256.65 124.68C1256.57 125.719 1256.41 126.836 1256.12 128.125L1257.59 128.266C1258.2 125.359 1258.2 123.438 1258.2 121.391V119.688ZM1246.93 130.453H1259.7V129.234H1246.93V130.453ZM1277.48 129.359H1271.77V126.484H1275.96V119.281H1274.49V121.688H1267.62V119.281H1266.13V126.484H1270.3V129.359H1264.66V130.594H1277.48V129.359ZM1267.62 125.281V122.891H1274.49V125.281H1267.62ZM1289.82 119.672H1279.84V120.875H1288.34V121.047C1288.33 122.727 1288.33 124.711 1287.79 127.422L1289.29 127.578C1289.81 124.711 1289.81 122.773 1289.82 121.047V119.672ZM1278.49 130.438H1291.26V129.203H1284.82V124.266H1283.35V129.203H1278.49V130.438Z" fill="#737373"/>
</svg>
