<svg width="1336" height="292" viewBox="0 0 1336 292" fill="none" xmlns="http://www.w3.org/2000/svg">
<rect width="319" height="292" rx="46" fill="#69A2FF"/>
<path d="M52.2344 163.281V173.594H50.4844V163.281H52.2344ZM40.4844 170.266C42.7734 169.461 43.9453 167.469 43.9375 165.438V164.062H45.7344V165.438C45.7266 167.406 46.8828 169.266 49.125 170.016L48.2344 171.391C46.625 170.828 45.4766 169.703 44.8516 168.258C44.2266 169.805 43.0547 171.039 41.3906 171.641L40.4844 170.266ZM42.8906 177.109V172.609H44.6406V175.703H52.625V177.109H42.8906ZM66.0938 163.266V177.391H64.3438V163.266H66.0938ZM54.3906 173.5C58.0938 171.742 59.7969 169.352 60.1094 166.141H55.1094V164.766H61.875C61.875 168.969 60.2422 172.539 55.2969 174.891L54.3906 173.5ZM80.2969 164.781V166.188H68.7656V164.781H73.6875V163.234H75.4062V164.781H80.2969ZM68.125 173.812V172.391H81.0312V173.812H75.4062V177.406H73.6875V173.812H68.125ZM69.7656 169.219C69.7656 167.672 71.5625 166.828 74.5469 166.828C77.5312 166.828 79.3281 167.672 79.3281 169.219C79.3281 170.758 77.5312 171.609 74.5469 171.609C71.5625 171.609 69.7656 170.758 69.7656 169.219ZM71.5781 169.219C71.5703 169.945 72.5938 170.32 74.5469 170.312C76.4922 170.32 77.5234 169.945 77.5312 169.219C77.5234 168.5 76.4922 168.125 74.5469 168.125C72.5938 168.125 71.5703 168.5 71.5781 169.219ZM90.0625 167.578C90.0625 169.766 90.9609 171.969 92.9375 173.031L91.9688 174.312C90.6562 173.617 89.7656 172.375 89.2578 170.891C88.7578 172.492 87.8672 173.867 86.5469 174.641L85.5312 173.328C87.5312 172.172 88.4141 169.812 88.4219 167.578V167.141H86.0156V165.734H88.4219V163.766H90.0625V165.734H92.4219V167.141H90.0625V167.578ZM91.5469 170.125V168.688H93.3906V163.531H95.0312V176.703H93.3906V170.125H91.5469ZM96.25 177.391V163.266H97.9062V177.391H96.25ZM111.734 163.266V177.391H110.078V163.266H111.734ZM99.3281 173.375C101.367 172.133 102.266 169.586 102.266 167.125V166.188H99.8125V164.781H106.219V166.188H103.938V167.125C103.938 169.508 104.789 171.898 106.812 173.062L105.781 174.344C104.477 173.57 103.609 172.227 103.117 170.617C102.617 172.359 101.719 173.844 100.391 174.672L99.3281 173.375ZM105.188 169.594V168.188H107.219V163.531H108.859V176.703H107.219V169.594H105.188ZM125.594 163.266V177.391H123.922V163.266H125.594ZM113.547 169.375C113.547 166.266 114.75 164.336 116.594 164.344C118.305 164.336 119.469 165.938 119.672 168.578H121.031V163.516H122.688V176.703H121.031V169.984H119.688C119.523 172.742 118.344 174.43 116.594 174.422C114.75 174.43 113.547 172.492 113.547 169.375ZM115.156 169.375C115.148 171.586 115.695 172.773 116.594 172.766C117.531 172.773 118.086 171.586 118.094 169.375C118.086 167.172 117.531 165.977 116.594 165.984C115.695 165.977 115.148 167.172 115.156 169.375ZM142.359 163.234V168.641H144.188V170.094H142.359V177.391H140.625V163.234H142.359ZM131.359 173.844V164.703H135V166.109H133.094V172.391C133.727 172.367 134.375 172.305 135.109 172.156L135.25 173.578C134.031 173.82 133.07 173.836 132.047 173.844H131.359ZM135.766 173.844V164.703H139.562V166.109H137.469V172.398C138.422 172.383 139.102 172.312 139.844 172.125L139.984 173.547C138.938 173.812 138.078 173.836 136.484 173.844H135.766ZM157.75 170.969V172.359H144.844V170.969H157.75ZM146.438 165V163.641H156.156V167.406H148.203V168.609H156.438V169.922H146.484V166.156H154.422V165H146.438ZM146.5 177.109V173.25H148.25V175.703H156.469V177.109H146.5ZM169.219 167.797C169.117 166.82 168.297 166.258 167.078 166.266C165.789 166.258 165.023 166.883 165.016 167.734C165.008 168.688 166.016 169.078 166.953 169.297L168.016 169.578C169.703 169.969 171.328 170.859 171.328 172.828C171.328 174.812 169.758 176.172 167.047 176.172C164.414 176.172 162.742 174.906 162.656 172.672H164.656C164.75 173.852 165.742 174.43 167.031 174.438C168.367 174.43 169.289 173.781 169.297 172.812C169.289 171.922 168.477 171.547 167.25 171.234L165.969 170.906C164.109 170.422 162.953 169.484 162.953 167.859C162.953 165.859 164.727 164.531 167.109 164.531C169.508 164.531 171.141 165.883 171.172 167.797H169.219ZM176.859 176H173.016V164.688H176.922C180.297 164.688 182.336 166.805 182.344 170.328C182.336 173.867 180.297 176 176.859 176ZM175.047 174.234H176.75C179.117 174.242 180.312 172.938 180.312 170.328C180.312 167.734 179.117 166.445 176.812 166.453H175.047V174.234ZM184.141 164.688H186.641L190 172.906H190.141L193.5 164.688H196V176H194.047V168.219H193.938L190.797 175.969H189.344L186.203 168.188H186.109V176H184.141V164.688ZM201.844 171.047H200.516L200.641 168.797L198.75 170.031L198.078 168.891L200.094 167.875L198.078 166.844L198.75 165.703L200.641 166.938L200.516 164.688H201.844L201.719 166.938L203.609 165.703L204.266 166.844L202.266 167.875L204.266 168.891L203.609 170.031L201.719 168.797L201.844 171.047ZM222.469 169.812V171.234H209.578V169.812H222.469ZM211.078 174.781C211.078 173.141 212.93 172.211 216 172.219C219.047 172.211 220.883 173.141 220.891 174.781C220.883 176.445 219.047 177.375 216 177.375C212.93 177.375 211.078 176.445 211.078 174.781ZM211.156 168.703V163.719H220.906V165.125H212.891V167.312H220.984V168.703H211.156ZM212.844 174.781C212.836 175.617 213.945 176.031 216 176.031C218.023 176.031 219.141 175.617 219.156 174.781C219.141 173.984 218.023 173.547 216 173.547C213.945 173.547 212.836 173.984 212.844 174.781ZM45.0469 192.141C47.2891 192.141 48.9219 193.539 48.9375 195.547C48.9219 197.281 47.7031 198.562 45.9219 198.875V200.938C47.1797 200.875 48.4531 200.766 49.6562 200.594L49.7969 201.844C46.6328 202.445 43.2422 202.469 40.75 202.469L40.5312 201.047C41.6094 201.047 42.8672 201.047 44.1875 201.008V198.883C42.4141 198.57 41.1641 197.289 41.1719 195.547C41.1641 193.539 42.8281 192.141 45.0469 192.141ZM42.8906 195.547C42.8828 196.711 43.8125 197.469 45.0469 197.469C46.3047 197.469 47.2266 196.711 47.2344 195.547C47.2266 194.359 46.2969 193.633 45.0469 193.641C43.8125 193.633 42.8828 194.359 42.8906 195.547ZM50.5 205.406V191.266H52.2344V205.406H50.5ZM67.1875 199.484V200.859H61.5625V205.391H59.8438V200.859H54.2812V199.484H67.1875ZM55.8438 198.016V191.828H57.5625V193.562H63.875V191.828H65.625V198.016H55.8438ZM57.5625 196.609H63.875V194.938H57.5625V196.609ZM83.0625 191.266V194.484H85.0312V195.906H83.0625V199.203H81.3281V191.266H83.0625ZM71.8125 198.078C75.0859 197.242 76.9453 195.57 77.25 193.531H72.4844V192.125H79.1406C79.1328 195.797 76.7266 198.336 72.5 199.469L71.8125 198.078ZM73.9219 205.203V199.766H83.0625V205.203H73.9219ZM75.6562 203.828H81.3438V201.188H75.6562V203.828ZM98.625 198.266V199.656H93.0312V201H97.0469V205.359H95.3125V202.391H87.1719V201H91.3125V199.656H85.75V198.266H98.625ZM86.3594 196.359C89.3203 196.133 90.9844 195.156 91.1797 193.953H87.0156V192.594H91.3125V191.25H93.0312V192.594H97.3594V193.953H93.1562C93.3438 195.156 95.0078 196.133 97.9844 196.359L97.4375 197.672C94.9141 197.469 93.0469 196.688 92.1719 195.453C91.2812 196.688 89.4141 197.469 86.9062 197.672L86.3594 196.359ZM104.625 194.656C104.609 197.18 105.875 199.727 108.062 200.781L107 202.172C105.469 201.398 104.367 199.906 103.766 198.109C103.148 200.031 101.992 201.625 100.375 202.438L99.3125 201.047C101.586 199.969 102.883 197.266 102.891 194.656V192.406H104.625V194.656ZM108.906 205.391V191.266H110.641V196.797H112.812V198.281H110.641V205.391H108.906ZM117.328 191.891C119.156 191.883 120.594 192.938 120.945 194.484H123.5V191.266H125.234V198.844H123.5V195.891H120.961C120.625 197.477 119.172 198.547 117.328 198.547C115.164 198.547 113.594 197.156 113.594 195.203C113.594 193.273 115.164 191.883 117.328 191.891ZM115.25 195.203C115.25 196.336 116.109 197.086 117.328 197.078C118.516 197.086 119.367 196.336 119.375 195.203C119.367 194.07 118.516 193.336 117.328 193.344C116.109 193.336 115.25 194.07 115.25 195.203ZM115.922 205.219V199.5H117.641V201H123.5V199.5H125.234V205.219H115.922ZM117.641 203.812H123.5V202.344H117.641V203.812ZM133.656 191.484C136.875 191.492 138.742 192.344 138.75 193.906C138.742 195.484 136.875 196.336 133.656 196.344C130.445 196.336 128.562 195.484 128.562 193.906C128.562 192.344 130.445 191.492 133.656 191.484ZM127.234 198.484V197.094H140.109V198.484H127.234ZM128.75 200.719V199.438H138.5V202.891H130.469V203.938H138.891V205.266H128.766V201.656H136.797V200.719H128.75ZM130.391 193.906C130.383 194.688 131.508 195.047 133.656 195.047C135.836 195.047 136.953 194.688 136.953 193.906C136.953 193.18 135.836 192.766 133.656 192.766C131.508 192.766 130.383 193.18 130.391 193.906ZM157.734 198.609V199.984H144.828V198.609H150.406V197.562H146.484V191.641H156.188V192.984H148.219V193.953H155.844V195.234H148.219V196.234H156.297V197.562H152.141V198.609H157.734ZM146.359 203.062C146.359 201.586 148.133 200.758 151.281 200.766C154.383 200.758 156.164 201.586 156.172 203.062C156.164 204.578 154.383 205.375 151.281 205.375C148.133 205.375 146.359 204.578 146.359 203.062ZM148.094 203.062C148.094 203.75 149.156 204.078 151.281 204.078C153.367 204.078 154.422 203.75 154.438 203.062C154.422 202.391 153.367 202.062 151.281 202.062C149.156 202.062 148.094 202.391 148.094 203.062ZM169.828 191.281V195.719H171.797V197.156H169.828V201.828H168.094V191.281H169.828ZM158.703 194.234V192.844H162.031V191.266H163.766V192.844H167.078V194.234H158.703ZM159.422 197.516C159.422 195.891 160.836 194.812 162.891 194.812C164.93 194.812 166.336 195.891 166.344 197.516C166.336 199.133 164.93 200.188 162.891 200.188C160.836 200.188 159.422 199.133 159.422 197.516ZM160.781 205.109V201H162.516V203.703H170.391V205.109H160.781ZM161.109 197.516C161.102 198.367 161.82 198.852 162.891 198.844C163.961 198.852 164.688 198.367 164.688 197.516C164.688 196.656 163.961 196.156 162.891 196.156C161.82 196.156 161.102 196.656 161.109 197.516ZM189.188 198.625V200.031H176.312V198.625H181.859V197.375C179.273 197.188 177.641 196.156 177.641 194.516C177.641 192.742 179.648 191.656 182.734 191.656C185.812 191.656 187.82 192.742 187.828 194.516C187.82 196.156 186.188 197.188 183.609 197.375V198.625H189.188ZM177.906 205.109V201H179.641V203.703H187.734V205.109H177.906ZM179.453 194.516C179.438 195.492 180.68 196.008 182.734 196C184.797 196.008 186.031 195.492 186.031 194.516C186.031 193.586 184.797 193.039 182.734 193.031C180.68 193.039 179.438 193.586 179.453 194.516ZM201.875 191.266V198.469H200.156V191.266H201.875ZM190.125 197.094C192.414 196.367 193.617 194.555 193.609 192.703V191.609H195.406V192.703C195.398 194.5 196.594 196.18 198.828 196.859L197.984 198.203C196.344 197.695 195.172 196.648 194.531 195.305C193.891 196.766 192.688 197.914 191 198.453L190.125 197.094ZM192.531 200.469V199.125H201.906V202.797H194.266V203.891H202.328V205.266H192.562V201.5H200.172V200.469H192.531ZM215.031 191.266V196.781H217.125V198.234H215.031V205.359H213.297V191.266H215.031ZM203.891 201.5C207.328 199.781 209.188 197.391 209.531 194.172H204.656V192.734H211.297C211.289 196.883 209.57 200.531 204.875 202.844L203.891 201.5ZM225.094 193.203C225.094 195.383 227.227 197.578 230.188 198.094L229.406 199.547C227.039 199.055 225.102 197.617 224.18 195.719C223.25 197.602 221.312 199.047 218.953 199.547L218.188 198.094C221.102 197.562 223.242 195.375 223.25 193.203V192.156H225.094V193.203ZM217.797 203.594V202.156H230.703V203.594H217.797ZM246.562 191.266V194.484H248.531V195.906H246.562V199.203H244.828V191.266H246.562ZM235.312 198.078C238.586 197.242 240.445 195.57 240.75 193.531H235.984V192.125H242.641C242.633 195.797 240.227 198.336 236 199.469L235.312 198.078ZM237.422 205.203V199.766H246.562V205.203H237.422ZM239.156 203.828H244.844V201.188H239.156V203.828ZM262.125 198.266V199.656H256.531V201H260.547V205.359H258.812V202.391H250.672V201H254.812V199.656H249.25V198.266H262.125ZM249.859 196.359C252.82 196.133 254.484 195.156 254.68 193.953H250.516V192.594H254.812V191.25H256.531V192.594H260.859V193.953H256.656C256.844 195.156 258.508 196.133 261.484 196.359L260.938 197.672C258.414 197.469 256.547 196.688 255.672 195.453C254.781 196.688 252.914 197.469 250.406 197.672L249.859 196.359Z" fill="white"/>
<g filter="url(#filter0_i_443_5503)">
<rect x="40" y="40" width="56" height="56" rx="16" fill="white"/>
</g>
<path d="M69.9863 61.2734V74H67.332V63.7871H67.2617L64.3438 65.6152V63.2773L67.4902 61.2734H69.9863Z" fill="black"/>
<rect width="319" height="292" rx="46" fill="#69A2FF"/>
<path d="M52.2344 163.281V173.594H50.4844V163.281H52.2344ZM40.4844 170.266C42.7734 169.461 43.9453 167.469 43.9375 165.438V164.062H45.7344V165.438C45.7266 167.406 46.8828 169.266 49.125 170.016L48.2344 171.391C46.625 170.828 45.4766 169.703 44.8516 168.258C44.2266 169.805 43.0547 171.039 41.3906 171.641L40.4844 170.266ZM42.8906 177.109V172.609H44.6406V175.703H52.625V177.109H42.8906ZM66.0938 163.266V177.391H64.3438V163.266H66.0938ZM54.3906 173.5C58.0938 171.742 59.7969 169.352 60.1094 166.141H55.1094V164.766H61.875C61.875 168.969 60.2422 172.539 55.2969 174.891L54.3906 173.5ZM80.2969 164.781V166.188H68.7656V164.781H73.6875V163.234H75.4062V164.781H80.2969ZM68.125 173.812V172.391H81.0312V173.812H75.4062V177.406H73.6875V173.812H68.125ZM69.7656 169.219C69.7656 167.672 71.5625 166.828 74.5469 166.828C77.5312 166.828 79.3281 167.672 79.3281 169.219C79.3281 170.758 77.5312 171.609 74.5469 171.609C71.5625 171.609 69.7656 170.758 69.7656 169.219ZM71.5781 169.219C71.5703 169.945 72.5938 170.32 74.5469 170.312C76.4922 170.32 77.5234 169.945 77.5312 169.219C77.5234 168.5 76.4922 168.125 74.5469 168.125C72.5938 168.125 71.5703 168.5 71.5781 169.219ZM90.0625 167.578C90.0625 169.766 90.9609 171.969 92.9375 173.031L91.9688 174.312C90.6562 173.617 89.7656 172.375 89.2578 170.891C88.7578 172.492 87.8672 173.867 86.5469 174.641L85.5312 173.328C87.5312 172.172 88.4141 169.812 88.4219 167.578V167.141H86.0156V165.734H88.4219V163.766H90.0625V165.734H92.4219V167.141H90.0625V167.578ZM91.5469 170.125V168.688H93.3906V163.531H95.0312V176.703H93.3906V170.125H91.5469ZM96.25 177.391V163.266H97.9062V177.391H96.25ZM111.734 163.266V177.391H110.078V163.266H111.734ZM99.3281 173.375C101.367 172.133 102.266 169.586 102.266 167.125V166.188H99.8125V164.781H106.219V166.188H103.938V167.125C103.938 169.508 104.789 171.898 106.812 173.062L105.781 174.344C104.477 173.57 103.609 172.227 103.117 170.617C102.617 172.359 101.719 173.844 100.391 174.672L99.3281 173.375ZM105.188 169.594V168.188H107.219V163.531H108.859V176.703H107.219V169.594H105.188ZM125.594 163.266V177.391H123.922V163.266H125.594ZM113.547 169.375C113.547 166.266 114.75 164.336 116.594 164.344C118.305 164.336 119.469 165.938 119.672 168.578H121.031V163.516H122.688V176.703H121.031V169.984H119.688C119.523 172.742 118.344 174.43 116.594 174.422C114.75 174.43 113.547 172.492 113.547 169.375ZM115.156 169.375C115.148 171.586 115.695 172.773 116.594 172.766C117.531 172.773 118.086 171.586 118.094 169.375C118.086 167.172 117.531 165.977 116.594 165.984C115.695 165.977 115.148 167.172 115.156 169.375ZM142.359 163.234V168.641H144.188V170.094H142.359V177.391H140.625V163.234H142.359ZM131.359 173.844V164.703H135V166.109H133.094V172.391C133.727 172.367 134.375 172.305 135.109 172.156L135.25 173.578C134.031 173.82 133.07 173.836 132.047 173.844H131.359ZM135.766 173.844V164.703H139.562V166.109H137.469V172.398C138.422 172.383 139.102 172.312 139.844 172.125L139.984 173.547C138.938 173.812 138.078 173.836 136.484 173.844H135.766ZM157.75 170.969V172.359H144.844V170.969H157.75ZM146.438 165V163.641H156.156V167.406H148.203V168.609H156.438V169.922H146.484V166.156H154.422V165H146.438ZM146.5 177.109V173.25H148.25V175.703H156.469V177.109H146.5ZM169.219 167.797C169.117 166.82 168.297 166.258 167.078 166.266C165.789 166.258 165.023 166.883 165.016 167.734C165.008 168.688 166.016 169.078 166.953 169.297L168.016 169.578C169.703 169.969 171.328 170.859 171.328 172.828C171.328 174.812 169.758 176.172 167.047 176.172C164.414 176.172 162.742 174.906 162.656 172.672H164.656C164.75 173.852 165.742 174.43 167.031 174.438C168.367 174.43 169.289 173.781 169.297 172.812C169.289 171.922 168.477 171.547 167.25 171.234L165.969 170.906C164.109 170.422 162.953 169.484 162.953 167.859C162.953 165.859 164.727 164.531 167.109 164.531C169.508 164.531 171.141 165.883 171.172 167.797H169.219ZM176.859 176H173.016V164.688H176.922C180.297 164.688 182.336 166.805 182.344 170.328C182.336 173.867 180.297 176 176.859 176ZM175.047 174.234H176.75C179.117 174.242 180.312 172.938 180.312 170.328C180.312 167.734 179.117 166.445 176.812 166.453H175.047V174.234ZM184.141 164.688H186.641L190 172.906H190.141L193.5 164.688H196V176H194.047V168.219H193.938L190.797 175.969H189.344L186.203 168.188H186.109V176H184.141V164.688ZM201.844 171.047H200.516L200.641 168.797L198.75 170.031L198.078 168.891L200.094 167.875L198.078 166.844L198.75 165.703L200.641 166.938L200.516 164.688H201.844L201.719 166.938L203.609 165.703L204.266 166.844L202.266 167.875L204.266 168.891L203.609 170.031L201.719 168.797L201.844 171.047ZM222.469 169.812V171.234H209.578V169.812H222.469ZM211.078 174.781C211.078 173.141 212.93 172.211 216 172.219C219.047 172.211 220.883 173.141 220.891 174.781C220.883 176.445 219.047 177.375 216 177.375C212.93 177.375 211.078 176.445 211.078 174.781ZM211.156 168.703V163.719H220.906V165.125H212.891V167.312H220.984V168.703H211.156ZM212.844 174.781C212.836 175.617 213.945 176.031 216 176.031C218.023 176.031 219.141 175.617 219.156 174.781C219.141 173.984 218.023 173.547 216 173.547C213.945 173.547 212.836 173.984 212.844 174.781ZM45.0469 192.141C47.2891 192.141 48.9219 193.539 48.9375 195.547C48.9219 197.281 47.7031 198.562 45.9219 198.875V200.938C47.1797 200.875 48.4531 200.766 49.6562 200.594L49.7969 201.844C46.6328 202.445 43.2422 202.469 40.75 202.469L40.5312 201.047C41.6094 201.047 42.8672 201.047 44.1875 201.008V198.883C42.4141 198.57 41.1641 197.289 41.1719 195.547C41.1641 193.539 42.8281 192.141 45.0469 192.141ZM42.8906 195.547C42.8828 196.711 43.8125 197.469 45.0469 197.469C46.3047 197.469 47.2266 196.711 47.2344 195.547C47.2266 194.359 46.2969 193.633 45.0469 193.641C43.8125 193.633 42.8828 194.359 42.8906 195.547ZM50.5 205.406V191.266H52.2344V205.406H50.5ZM67.1875 199.484V200.859H61.5625V205.391H59.8438V200.859H54.2812V199.484H67.1875ZM55.8438 198.016V191.828H57.5625V193.562H63.875V191.828H65.625V198.016H55.8438ZM57.5625 196.609H63.875V194.938H57.5625V196.609ZM83.0625 191.266V194.484H85.0312V195.906H83.0625V199.203H81.3281V191.266H83.0625ZM71.8125 198.078C75.0859 197.242 76.9453 195.57 77.25 193.531H72.4844V192.125H79.1406C79.1328 195.797 76.7266 198.336 72.5 199.469L71.8125 198.078ZM73.9219 205.203V199.766H83.0625V205.203H73.9219ZM75.6562 203.828H81.3438V201.188H75.6562V203.828ZM98.625 198.266V199.656H93.0312V201H97.0469V205.359H95.3125V202.391H87.1719V201H91.3125V199.656H85.75V198.266H98.625ZM86.3594 196.359C89.3203 196.133 90.9844 195.156 91.1797 193.953H87.0156V192.594H91.3125V191.25H93.0312V192.594H97.3594V193.953H93.1562C93.3438 195.156 95.0078 196.133 97.9844 196.359L97.4375 197.672C94.9141 197.469 93.0469 196.688 92.1719 195.453C91.2812 196.688 89.4141 197.469 86.9062 197.672L86.3594 196.359ZM104.625 194.656C104.609 197.18 105.875 199.727 108.062 200.781L107 202.172C105.469 201.398 104.367 199.906 103.766 198.109C103.148 200.031 101.992 201.625 100.375 202.438L99.3125 201.047C101.586 199.969 102.883 197.266 102.891 194.656V192.406H104.625V194.656ZM108.906 205.391V191.266H110.641V196.797H112.812V198.281H110.641V205.391H108.906ZM117.328 191.891C119.156 191.883 120.594 192.938 120.945 194.484H123.5V191.266H125.234V198.844H123.5V195.891H120.961C120.625 197.477 119.172 198.547 117.328 198.547C115.164 198.547 113.594 197.156 113.594 195.203C113.594 193.273 115.164 191.883 117.328 191.891ZM115.25 195.203C115.25 196.336 116.109 197.086 117.328 197.078C118.516 197.086 119.367 196.336 119.375 195.203C119.367 194.07 118.516 193.336 117.328 193.344C116.109 193.336 115.25 194.07 115.25 195.203ZM115.922 205.219V199.5H117.641V201H123.5V199.5H125.234V205.219H115.922ZM117.641 203.812H123.5V202.344H117.641V203.812ZM133.656 191.484C136.875 191.492 138.742 192.344 138.75 193.906C138.742 195.484 136.875 196.336 133.656 196.344C130.445 196.336 128.562 195.484 128.562 193.906C128.562 192.344 130.445 191.492 133.656 191.484ZM127.234 198.484V197.094H140.109V198.484H127.234ZM128.75 200.719V199.438H138.5V202.891H130.469V203.938H138.891V205.266H128.766V201.656H136.797V200.719H128.75ZM130.391 193.906C130.383 194.688 131.508 195.047 133.656 195.047C135.836 195.047 136.953 194.688 136.953 193.906C136.953 193.18 135.836 192.766 133.656 192.766C131.508 192.766 130.383 193.18 130.391 193.906ZM157.734 198.609V199.984H144.828V198.609H150.406V197.562H146.484V191.641H156.188V192.984H148.219V193.953H155.844V195.234H148.219V196.234H156.297V197.562H152.141V198.609H157.734ZM146.359 203.062C146.359 201.586 148.133 200.758 151.281 200.766C154.383 200.758 156.164 201.586 156.172 203.062C156.164 204.578 154.383 205.375 151.281 205.375C148.133 205.375 146.359 204.578 146.359 203.062ZM148.094 203.062C148.094 203.75 149.156 204.078 151.281 204.078C153.367 204.078 154.422 203.75 154.438 203.062C154.422 202.391 153.367 202.062 151.281 202.062C149.156 202.062 148.094 202.391 148.094 203.062ZM169.828 191.281V195.719H171.797V197.156H169.828V201.828H168.094V191.281H169.828ZM158.703 194.234V192.844H162.031V191.266H163.766V192.844H167.078V194.234H158.703ZM159.422 197.516C159.422 195.891 160.836 194.812 162.891 194.812C164.93 194.812 166.336 195.891 166.344 197.516C166.336 199.133 164.93 200.188 162.891 200.188C160.836 200.188 159.422 199.133 159.422 197.516ZM160.781 205.109V201H162.516V203.703H170.391V205.109H160.781ZM161.109 197.516C161.102 198.367 161.82 198.852 162.891 198.844C163.961 198.852 164.688 198.367 164.688 197.516C164.688 196.656 163.961 196.156 162.891 196.156C161.82 196.156 161.102 196.656 161.109 197.516ZM189.188 198.625V200.031H176.312V198.625H181.859V197.375C179.273 197.188 177.641 196.156 177.641 194.516C177.641 192.742 179.648 191.656 182.734 191.656C185.812 191.656 187.82 192.742 187.828 194.516C187.82 196.156 186.188 197.188 183.609 197.375V198.625H189.188ZM177.906 205.109V201H179.641V203.703H187.734V205.109H177.906ZM179.453 194.516C179.438 195.492 180.68 196.008 182.734 196C184.797 196.008 186.031 195.492 186.031 194.516C186.031 193.586 184.797 193.039 182.734 193.031C180.68 193.039 179.438 193.586 179.453 194.516ZM201.875 191.266V198.469H200.156V191.266H201.875ZM190.125 197.094C192.414 196.367 193.617 194.555 193.609 192.703V191.609H195.406V192.703C195.398 194.5 196.594 196.18 198.828 196.859L197.984 198.203C196.344 197.695 195.172 196.648 194.531 195.305C193.891 196.766 192.688 197.914 191 198.453L190.125 197.094ZM192.531 200.469V199.125H201.906V202.797H194.266V203.891H202.328V205.266H192.562V201.5H200.172V200.469H192.531ZM215.031 191.266V196.781H217.125V198.234H215.031V205.359H213.297V191.266H215.031ZM203.891 201.5C207.328 199.781 209.188 197.391 209.531 194.172H204.656V192.734H211.297C211.289 196.883 209.57 200.531 204.875 202.844L203.891 201.5ZM225.094 193.203C225.094 195.383 227.227 197.578 230.188 198.094L229.406 199.547C227.039 199.055 225.102 197.617 224.18 195.719C223.25 197.602 221.312 199.047 218.953 199.547L218.188 198.094C221.102 197.562 223.242 195.375 223.25 193.203V192.156H225.094V193.203ZM217.797 203.594V202.156H230.703V203.594H217.797ZM246.562 191.266V194.484H248.531V195.906H246.562V199.203H244.828V191.266H246.562ZM235.312 198.078C238.586 197.242 240.445 195.57 240.75 193.531H235.984V192.125H242.641C242.633 195.797 240.227 198.336 236 199.469L235.312 198.078ZM237.422 205.203V199.766H246.562V205.203H237.422ZM239.156 203.828H244.844V201.188H239.156V203.828ZM262.125 198.266V199.656H256.531V201H260.547V205.359H258.812V202.391H250.672V201H254.812V199.656H249.25V198.266H262.125ZM249.859 196.359C252.82 196.133 254.484 195.156 254.68 193.953H250.516V192.594H254.812V191.25H256.531V192.594H260.859V193.953H256.656C256.844 195.156 258.508 196.133 261.484 196.359L260.938 197.672C258.414 197.469 256.547 196.688 255.672 195.453C254.781 196.688 252.914 197.469 250.406 197.672L249.859 196.359Z" fill="white"/>
<g filter="url(#filter1_i_443_5503)">
<rect x="40" y="40" width="56" height="56" rx="16" fill="white"/>
</g>
<path d="M69.9863 61.2734V74H67.332V63.7871H67.2617L64.3438 65.6152V63.2773L67.4902 61.2734H69.9863Z" fill="black"/>
<rect x="339" width="319" height="292" rx="46" fill="#4B84F0"/>
<path d="M384.516 166.656C384.5 169.18 385.766 171.727 387.953 172.781L386.891 174.172C385.359 173.398 384.258 171.906 383.656 170.109C383.039 172.031 381.883 173.625 380.266 174.438L379.203 173.047C381.477 171.969 382.773 169.266 382.781 166.656V164.406H384.516V166.656ZM388.797 177.391V163.266H390.531V168.797H392.703V170.281H390.531V177.391H388.797ZM397.219 163.891C399.047 163.883 400.484 164.938 400.836 166.484H403.391V163.266H405.125V170.844H403.391V167.891H400.852C400.516 169.477 399.062 170.547 397.219 170.547C395.055 170.547 393.484 169.156 393.484 167.203C393.484 165.273 395.055 163.883 397.219 163.891ZM395.141 167.203C395.141 168.336 396 169.086 397.219 169.078C398.406 169.086 399.258 168.336 399.266 167.203C399.258 166.07 398.406 165.336 397.219 165.344C396 165.336 395.141 166.07 395.141 167.203ZM395.812 177.219V171.5H397.531V173H403.391V171.5H405.125V177.219H395.812ZM397.531 175.812H403.391V174.344H397.531V175.812ZM412.188 165.812C412.188 167.539 413.305 169.164 415.516 169.844L414.688 171.203C413.102 170.703 411.977 169.695 411.359 168.422C410.734 169.906 409.547 171.086 407.844 171.656L406.969 170.281C409.242 169.539 410.438 167.703 410.438 165.828V165.656H407.453V164.25H415.125V165.656H412.188V165.812ZM408.891 174.672C408.891 172.984 410.719 172 413.672 172C416.602 172 418.398 172.984 418.406 174.672C418.398 176.375 416.602 177.375 413.672 177.375C410.719 177.375 408.891 176.375 408.891 174.672ZM410.625 174.672C410.625 175.547 411.734 176.008 413.672 176.016C415.602 176.008 416.688 175.547 416.688 174.672C416.688 173.812 415.602 173.359 413.672 173.359C411.734 173.359 410.625 173.812 410.625 174.672ZM416.531 171.688V163.266H418.266V166.656H420.234V168.078H418.266V171.688H416.531ZM436.938 163.266V177.391H435.266V163.266H436.938ZM424.891 169.375C424.891 166.266 426.094 164.336 427.938 164.344C429.648 164.336 430.812 165.938 431.016 168.578H432.375V163.516H434.031V176.703H432.375V169.984H431.031C430.867 172.742 429.688 174.43 427.938 174.422C426.094 174.43 424.891 172.492 424.891 169.375ZM426.5 169.375C426.492 171.586 427.039 172.773 427.938 172.766C428.875 172.773 429.43 171.586 429.438 169.375C429.43 167.172 428.875 165.977 427.938 165.984C427.039 165.977 426.492 167.172 426.5 169.375ZM450.438 163.266V177.406H448.703V169.141H444.656V167.734H448.703V163.266H450.438ZM439.328 174.062V164.812H441.062V172.602C442.961 172.578 444.844 172.438 446.828 172.047L447.031 173.469C444.758 173.938 442.648 174.055 440.484 174.062H439.328ZM457.734 167.281C457.734 169.594 459.094 172.031 461.375 172.984L460.422 174.359C458.75 173.633 457.531 172.156 456.883 170.359C456.234 172.297 454.992 173.922 453.344 174.703L452.344 173.344C454.57 172.312 455.961 169.68 455.969 167.281V166.094H452.859V164.656H460.828V166.094H457.734V167.281ZM462.406 177.391V163.266H464.156V177.391H462.406ZM475.172 165.344C475.164 166.867 476.312 168.43 478.469 169.062L477.656 170.438C476.062 169.961 474.922 168.977 474.305 167.742C473.664 169.109 472.469 170.234 470.828 170.75L469.969 169.391C472.172 168.672 473.414 166.953 473.422 165.328V165.281H470.453V163.875H478.094V165.281H475.172V165.344ZM472.547 172.469V171.094H481.859V174.766H474.297V175.875H482.312V177.234H472.562V173.469H480.125V172.469H472.547ZM477.703 167.641V166.25H480.125V163.266H481.859V170.5H480.125V167.641H477.703ZM495 163.266V166.484H496.969V167.906H495V171.203H493.266V163.266H495ZM483.75 170.078C487.023 169.242 488.883 167.57 489.188 165.531H484.422V164.125H491.078C491.07 167.797 488.664 170.336 484.438 171.469L483.75 170.078ZM485.859 177.203V171.766H495V177.203H485.859ZM487.594 175.828H493.281V173.188H487.594V175.828ZM512.672 163.266V166.703H514.578V168.156H512.672V171.578H510.938V163.266H512.672ZM501.359 170.156C502.422 170.156 503.648 170.156 504.922 170.125V169.414C503.336 169.25 502.352 168.602 502.359 167.562C502.352 166.422 503.695 165.75 505.766 165.75C507.836 165.75 509.172 166.422 509.172 167.562C509.172 168.586 508.211 169.242 506.656 169.406V170.062C507.859 170 509.07 169.906 510.203 169.75L510.344 170.844C507.32 171.352 504.008 171.375 501.547 171.375L501.359 170.156ZM501.719 165.406V164.219H504.922V163.156H506.656V164.219H509.828V165.406H501.719ZM503.234 173.312V172.141H512.672V175.188H505V176.094H513.172V177.266H503.266V174.109H510.938V173.312H503.234ZM504.031 167.562C504.016 168.07 504.672 168.344 505.766 168.344C506.859 168.344 507.516 168.07 507.516 167.562C507.516 167.094 506.859 166.852 505.766 166.844C504.672 166.852 504.016 167.094 504.031 167.562ZM528.203 170.031V171.422H515.312V170.031H520.906V168.688H516.891V163.906H526.641V165.266H518.625V167.312H526.719V168.688H522.609V170.031H528.203ZM516.812 174.812C516.812 173.156 518.664 172.227 521.734 172.234C524.781 172.227 526.617 173.156 526.625 174.812C526.617 176.453 524.781 177.383 521.734 177.391C518.664 177.383 516.812 176.453 516.812 174.812ZM518.578 174.812C518.57 175.633 519.68 176.055 521.734 176.047C523.758 176.055 524.875 175.633 524.891 174.812C524.875 174 523.758 173.562 521.734 173.562C519.68 173.562 518.57 174 518.578 174.812ZM537.031 164.734V165.734C537.031 166.992 537.031 168.773 536.641 171.203L534.922 171.062C535.266 168.922 535.305 167.336 535.312 166.125H529.766V164.734H537.031ZM529.016 173.031C529.852 173.023 530.781 173.016 531.75 172.992V168.766H533.469V172.938C534.906 172.875 536.383 172.773 537.734 172.609L537.828 173.906C534.914 174.383 531.68 174.438 529.188 174.422L529.016 173.031ZM538.469 177.391V163.266H540.219V169.016H542.266V170.484H540.219V177.391H538.469ZM391.234 191.281V201.594H389.484V191.281H391.234ZM379.484 198.266C381.773 197.461 382.945 195.469 382.938 193.438V192.062H384.734V193.438C384.727 195.406 385.883 197.266 388.125 198.016L387.234 199.391C385.625 198.828 384.477 197.703 383.852 196.258C383.227 197.805 382.055 199.039 380.391 199.641L379.484 198.266ZM381.891 205.109V200.609H383.641V203.703H391.625V205.109H381.891ZM405.547 191.266V205.391H403.891V198.234H402.438V204.703H400.797V191.516H402.438V196.797H403.891V191.266H405.547ZM393.062 201.281C395.156 200.094 396 197.633 396 194.875V194.203H393.484V192.812H400V194.203H397.688V194.875C397.688 197.383 398.531 199.703 400.625 200.781L399.609 202.109C398.266 201.383 397.383 200.141 396.883 198.609C396.406 200.367 395.523 201.781 394.125 202.609L393.062 201.281ZM411.531 193.891C411.539 195.414 412.43 196.953 414.281 197.656L413.359 198.984C412.102 198.508 411.227 197.602 410.719 196.508C410.203 197.766 409.281 198.844 407.938 199.406L407 198.078C408.945 197.219 409.852 195.453 409.859 193.891V192.141H411.531V193.891ZM409.594 202.766C409.586 201.141 411.461 200.172 414.438 200.172C417.391 200.172 419.273 201.141 419.281 202.766C419.273 204.398 417.391 205.375 414.438 205.375C411.461 205.375 409.586 204.398 409.594 202.766ZM411.328 202.766C411.32 203.602 412.477 204.055 414.438 204.047C416.367 204.055 417.523 203.602 417.531 202.766C417.523 201.938 416.367 201.484 414.438 201.484C412.477 201.484 411.32 201.938 411.328 202.766ZM414.516 199.5V191.547H416.141V194.844H417.547V191.281H419.203V199.938H417.547V196.266H416.141V199.5H414.516ZM433.141 191.266V205.391H431.469V191.266H433.141ZM421.094 197.375C421.094 194.266 422.297 192.336 424.141 192.344C425.852 192.336 427.016 193.938 427.219 196.578H428.578V191.516H430.234V204.703H428.578V197.984H427.234C427.07 200.742 425.891 202.43 424.141 202.422C422.297 202.43 421.094 200.492 421.094 197.375ZM422.703 197.375C422.695 199.586 423.242 200.773 424.141 200.766C425.078 200.773 425.633 199.586 425.641 197.375C425.633 195.172 425.078 193.977 424.141 193.984C423.242 193.977 422.695 195.172 422.703 197.375ZM446.641 191.266V205.406H444.906V197.141H440.859V195.734H444.906V191.266H446.641ZM435.531 202.062V192.812H437.266V200.602C439.164 200.578 441.047 200.438 443.031 200.047L443.234 201.469C440.961 201.938 438.852 202.055 436.688 202.062H435.531ZM453.938 195.281C453.938 197.594 455.297 200.031 457.578 200.984L456.625 202.359C454.953 201.633 453.734 200.156 453.086 198.359C452.438 200.297 451.195 201.922 449.547 202.703L448.547 201.344C450.773 200.312 452.164 197.68 452.172 195.281V194.094H449.062V192.656H457.031V194.094H453.938V195.281ZM458.609 205.391V191.266H460.359V205.391H458.609ZM477.703 197.688V199.062H473.516V202.297H479.141V203.719H466.234V202.297H471.797V199.062H467.797V192.312H477.594V193.703H469.531V197.688H477.703ZM491.828 191.266V198.844H490.078V191.266H491.828ZM480.312 195.203C480.312 193.242 481.938 191.883 484.125 191.891C486.305 191.883 487.93 193.242 487.922 195.203C487.93 197.133 486.305 198.492 484.125 198.484C481.938 198.492 480.312 197.133 480.312 195.203ZM482.016 195.203C482.008 196.336 482.891 197.055 484.125 197.062C485.336 197.055 486.219 196.336 486.219 195.203C486.219 194.07 485.336 193.336 484.125 193.344C482.891 193.336 482.008 194.07 482.016 195.203ZM482.484 205.219V199.5H484.203V200.953H490.094V199.5H491.828V205.219H482.484ZM484.203 203.812H490.094V202.312H484.203V203.812ZM508.875 191.281V195.391H510.781V196.828H508.875V200.828H507.141V191.281H508.875ZM497.562 199.141C498.625 199.141 499.852 199.133 501.125 199.102V198.234C499.555 198.039 498.555 197.281 498.562 196.172C498.555 194.867 499.922 194.07 501.969 194.078C504.023 194.07 505.375 194.867 505.375 196.172C505.375 197.273 504.406 198.023 502.859 198.227V199.039C504.062 198.977 505.273 198.883 506.406 198.734L506.547 199.938C503.539 200.469 500.234 200.5 497.75 200.5L497.562 199.141ZM497.922 193.672V192.391H501.125V191.156H502.859V192.391H506.031V193.672H497.922ZM499.344 202.797V201.438H508.875V205.391H507.141V202.797H499.344ZM500.234 196.172C500.219 196.758 500.875 197.125 501.969 197.109C503.062 197.125 503.719 196.758 503.719 196.172C503.719 195.555 503.062 195.242 501.969 195.25C500.875 195.242 500.219 195.555 500.234 196.172ZM523.672 191.266V205.391H522.016V198.188H520.422V204.672H518.828V191.531H520.422V196.797H522.016V191.266H523.672ZM511.953 202.094V192.938H517.234V194.344H513.703V200.625C515.234 200.609 516.5 200.531 517.938 200.266L518.062 201.688C516.352 202.031 514.875 202.078 512.906 202.094H511.953ZM538.25 202.312V203.75H525.344V202.312H530.906V200.016H526.875V195.391H535V193.641H526.844V192.234H536.719V196.766H528.609V198.594H537.047V200.016H532.625V202.312H538.25ZM392.344 226.625V228.031H379.469V226.625H385.016V225.375C382.43 225.188 380.797 224.156 380.797 222.516C380.797 220.742 382.805 219.656 385.891 219.656C388.969 219.656 390.977 220.742 390.984 222.516C390.977 224.156 389.344 225.188 386.766 225.375V226.625H392.344ZM381.062 233.109V229H382.797V231.703H390.891V233.109H381.062ZM382.609 222.516C382.594 223.492 383.836 224.008 385.891 224C387.953 224.008 389.188 223.492 389.188 222.516C389.188 221.586 387.953 221.039 385.891 221.031C383.836 221.039 382.594 221.586 382.609 222.516ZM405.031 219.266V226.469H403.312V219.266H405.031ZM393.281 225.094C395.57 224.367 396.773 222.555 396.766 220.703V219.609H398.562V220.703C398.555 222.5 399.75 224.18 401.984 224.859L401.141 226.203C399.5 225.695 398.328 224.648 397.688 223.305C397.047 224.766 395.844 225.914 394.156 226.453L393.281 225.094ZM395.688 228.469V227.125H405.062V230.797H397.422V231.891H405.484V233.266H395.719V229.5H403.328V228.469H395.688ZM418.188 219.266V224.781H420.281V226.234H418.188V233.359H416.453V219.266H418.188ZM407.047 229.5C410.484 227.781 412.344 225.391 412.688 222.172H407.812V220.734H414.453C414.445 224.883 412.727 228.531 408.031 230.844L407.047 229.5ZM428.25 221.203C428.25 223.383 430.383 225.578 433.344 226.094L432.562 227.547C430.195 227.055 428.258 225.617 427.336 223.719C426.406 225.602 424.469 227.047 422.109 227.547L421.344 226.094C424.258 225.562 426.398 223.375 426.406 221.203V220.156H428.25V221.203ZM420.953 231.594V230.156H433.859V231.594H420.953ZM449.719 219.266V222.484H451.688V223.906H449.719V227.203H447.984V219.266H449.719ZM438.469 226.078C441.742 225.242 443.602 223.57 443.906 221.531H439.141V220.125H445.797C445.789 223.797 443.383 226.336 439.156 227.469L438.469 226.078ZM440.578 233.203V227.766H449.719V233.203H440.578ZM442.312 231.828H448V229.188H442.312V231.828ZM465.281 226.266V227.656H459.688V229H463.703V233.359H461.969V230.391H453.828V229H457.969V227.656H452.406V226.266H465.281ZM453.016 224.359C455.977 224.133 457.641 223.156 457.836 221.953H453.672V220.594H457.969V219.25H459.688V220.594H464.016V221.953H459.812C460 223.156 461.664 224.133 464.641 224.359L464.094 225.672C461.57 225.469 459.703 224.688 458.828 223.453C457.938 224.688 456.07 225.469 453.562 225.672L453.016 224.359Z" fill="white"/>
<g filter="url(#filter2_i_443_5503)">
<rect x="379" y="40" width="56" height="56" rx="16" fill="white"/>
</g>
<path d="M403.502 74L403.484 72.084L408.055 67.8828C409.241 66.749 409.883 66.0459 409.883 65.0352C409.883 63.9014 409.03 63.1982 407.861 63.207C406.666 63.1982 405.884 63.9541 405.893 65.1758H403.379C403.37 62.6885 405.216 61.0977 407.896 61.0977C410.621 61.0977 412.432 62.6533 412.432 64.8594C412.432 66.3096 411.729 67.4961 409.109 69.8691L407.176 71.75V71.8203H412.607V74H403.502Z" fill="black"/>
<rect x="678" width="319" height="292" rx="46" fill="#336BCD"/>
<path d="M723.516 166.656C723.5 169.18 724.766 171.727 726.953 172.781L725.891 174.172C724.359 173.398 723.258 171.906 722.656 170.109C722.039 172.031 720.883 173.625 719.266 174.438L718.203 173.047C720.477 171.969 721.773 169.266 721.781 166.656V164.406H723.516V166.656ZM727.797 177.391V163.266H729.531V168.797H731.703V170.281H729.531V177.391H727.797ZM744.422 163.266V177.391H742.75V170.25H741.188V176.672H739.562V163.531H741.188V168.828H742.75V163.266H744.422ZM732.906 173.875V164.891H734.656V172.344C735.875 172.32 737.203 172.211 738.688 171.922L738.859 173.438C736.953 173.773 735.336 173.875 733.844 173.875H732.906ZM757.109 164.375V165.75H752.234V167.328H756.828V168.703H752.234V170.352C754.703 170.336 756.195 170.266 757.922 169.969L758.109 171.328C756.195 171.688 754.508 171.75 751.625 171.75H750.5V164.375H757.109ZM752.016 177.109V172.766H753.75V175.703H761.625V177.109H752.016ZM759.328 173.719V163.266H761.062V167.516H763.031V168.953H761.062V173.719H759.328ZM776.656 174.234V175.641H763.75V174.234H769.281V170.969H771V174.234H776.656ZM764.125 169.875C767.078 169.398 769.195 167.281 769.203 165.156V164.125H771.047V165.156C771.047 167.289 773.18 169.398 776.156 169.875L775.406 171.312C773.023 170.859 771.062 169.492 770.125 167.641C769.195 169.484 767.258 170.867 764.875 171.312L764.125 169.875ZM782.641 167.281C782.633 169.461 783.945 171.945 786.172 172.984L785.203 174.359C783.609 173.609 782.43 172.094 781.797 170.328C781.156 172.266 779.922 173.922 778.297 174.703L777.281 173.344C779.531 172.273 780.898 169.633 780.906 167.281V166.094H777.828V164.656H785.594V166.094H782.641V167.281ZM786.906 177.391V163.266H788.641V168.766H790.812V170.219H788.641V177.391H786.906ZM796.469 165.766C796.453 167.617 797.625 169.391 799.844 170.109L798.938 171.484C797.375 170.953 796.258 169.891 795.641 168.531C795.016 170.031 793.852 171.203 792.203 171.781L791.234 170.406C793.555 169.648 794.719 167.758 794.719 165.75V164.141H796.469V165.766ZM793.5 177.109V172.625H795.281V175.703H803.109V177.109H793.5ZM800.812 173.641V163.266H802.547V167.438H804.516V168.906H802.547V173.641H800.812ZM813.125 164.312V165.156C813.109 166.117 813.109 167.523 812.781 169.312L811.062 169.156C811.344 167.703 811.398 166.617 811.414 165.75H805.922V164.312H813.125ZM805.078 170.438C805.914 170.43 806.852 170.422 807.844 170.406V167.531H809.562V170.352C811.023 170.289 812.523 170.18 813.891 169.984L813.984 171.234C811.047 171.766 807.711 171.82 805.234 171.828L805.078 170.438ZM807.188 177.109V172.906H808.938V175.703H816.953V177.109H807.188ZM814.719 173.844V163.266H816.5V167.672H818.328V169.125H816.5V173.844H814.719ZM830.828 163.266V177.406H829.109V163.266H830.828ZM819.828 165.906V164.5H826.484V169.797H821.625V172.641C823.852 172.625 825.766 172.508 827.969 172.141L828.125 173.562C825.727 173.977 823.617 174.07 821.078 174.062H819.844V168.422H824.719V165.906H819.828ZM838.234 166.656C838.219 169.25 839.586 171.844 841.875 172.828L840.844 174.219C839.219 173.469 838.031 171.977 837.375 170.133C836.727 172.117 835.508 173.742 833.797 174.547L832.734 173.094C835.086 172.078 836.461 169.383 836.469 166.656V164.406H838.234V166.656ZM842.891 177.406V163.266H844.641V177.406H842.891ZM854.016 165.203C854.016 167.383 856.148 169.578 859.109 170.094L858.328 171.547C855.961 171.055 854.023 169.617 853.102 167.719C852.172 169.602 850.234 171.047 847.875 171.547L847.109 170.094C850.023 169.562 852.164 167.375 852.172 165.203V164.156H854.016V165.203ZM846.719 175.594V174.156H859.625V175.594H846.719ZM866.516 164.141V165.547H862.812V166.875H865.984V168.219H862.812V169.672C864.5 169.656 865.672 169.586 867.047 169.344L867.234 170.703C865.602 171 864.258 171.062 862.078 171.062H861.141V164.141H866.516ZM863.094 177.219V172.312H872.625V177.219H863.094ZM864.828 175.812H870.906V173.688H864.828V175.812ZM866.594 168.125V166.719H868.188V163.5H869.844V171.609H868.188V168.125H866.594ZM870.969 171.719V163.266H872.625V171.719H870.969ZM885.703 164.141V170.016H878.891V164.141H885.703ZM879.734 176.016C882.445 175.781 884.18 174.578 884.336 173.453H880.312V172.141H884.375V170.906H886.125V172.141H890.203V173.453H886.172C886.328 174.547 888.031 175.742 890.734 176.016L890.141 177.344C887.852 177.102 886.117 176.203 885.258 175.031C884.391 176.219 882.633 177.094 880.328 177.344L879.734 176.016ZM880.609 168.656H883.984V165.516H880.609V168.656ZM888.188 171.312V163.266H889.906V171.312H888.188ZM907.953 163.266V177.391H906.297V163.266H907.953ZM895.547 173.375C897.586 172.133 898.484 169.586 898.484 167.125V166.188H896.031V164.781H902.438V166.188H900.156V167.125C900.156 169.508 901.008 171.898 903.031 173.062L902 174.344C900.695 173.57 899.828 172.227 899.336 170.617C898.836 172.359 897.938 173.844 896.609 174.672L895.547 173.375ZM901.406 169.594V168.188H903.438V163.531H905.078V176.703H903.438V169.594H901.406ZM922.5 169.953V171.344H916.906V172.703H920.938V177.219H911.141V172.703H915.188V171.344H909.625V169.953H922.5ZM910.781 165.078V163.688H921.312V165.078H919.375V167.5H921.234V168.906H910.859V167.5H912.719V165.078H910.781ZM912.859 175.812H919.25V174.047H912.859V175.812ZM914.453 167.5H917.625V165.078H914.453V167.5ZM725.656 192.375V193.75H720.781V195.328H725.375V196.703H720.781V198.352C723.25 198.336 724.742 198.266 726.469 197.969L726.656 199.328C724.742 199.688 723.055 199.75 720.172 199.75H719.047V192.375H725.656ZM720.562 205.109V200.766H722.297V203.703H730.172V205.109H720.562ZM727.875 201.719V191.266H729.609V195.516H731.578V196.953H729.609V201.719H727.875ZM745.203 202.234V203.641H732.297V202.234H737.828V198.969H739.547V202.234H745.203ZM732.672 197.875C735.625 197.398 737.742 195.281 737.75 193.156V192.125H739.594V193.156C739.594 195.289 741.727 197.398 744.703 197.875L743.953 199.312C741.57 198.859 739.609 197.492 738.672 195.641C737.742 197.484 735.805 198.867 733.422 199.312L732.672 197.875ZM748.328 191.891V193.688H751.625V191.891H753.344V198.047H746.609V191.891H748.328ZM748.031 200.422V199.062H757.266V202.766H749.766V203.891H757.703V205.266H748.047V201.5H755.531V200.422H748.031ZM748.328 196.672H751.625V195H748.328V196.672ZM755.531 198.5V191.266H757.266V194.125H759.234V195.531H757.266V198.5H755.531ZM765.016 195.281C765.008 197.461 766.32 199.945 768.547 200.984L767.578 202.359C765.984 201.609 764.805 200.094 764.172 198.328C763.531 200.266 762.297 201.922 760.672 202.703L759.656 201.344C761.906 200.273 763.273 197.633 763.281 195.281V194.094H760.203V192.656H767.969V194.094H765.016V195.281ZM769.281 205.391V191.266H771.016V196.766H773.188V198.219H771.016V205.391H769.281ZM785.109 191.906V192.984C785.117 194.031 785.117 195.25 784.805 196.828H786.688V198.234H781.078V200.438H785.141V205.391H783.406V201.828H775.094V200.438H779.344V198.234H773.781V196.828H783.062C783.344 195.375 783.375 194.273 783.375 193.297H775.375V191.906H785.109ZM796.469 193.766C796.453 195.617 797.625 197.391 799.844 198.109L798.938 199.484C797.375 198.953 796.258 197.891 795.641 196.531C795.016 198.031 793.852 199.203 792.203 199.781L791.234 198.406C793.555 197.648 794.719 195.758 794.719 193.75V192.141H796.469V193.766ZM793.5 205.109V200.625H795.281V203.703H803.109V205.109H793.5ZM800.812 201.641V191.266H802.547V195.438H804.516V196.906H802.547V201.641H800.812ZM817.062 191.266V199.656H815.328V196.203H812.922V194.781H815.328V191.266H817.062ZM805.188 198.25C807.461 197.469 808.656 195.57 808.656 193.703V193.594H805.719V192.188H813.344V193.594H810.422V193.688C810.422 195.406 811.562 197.141 813.75 197.875L812.875 199.25C811.305 198.719 810.195 197.641 809.57 196.312C808.953 197.812 807.773 199.031 806.094 199.625L805.188 198.25ZM807.484 202.703C807.469 201.008 809.305 200.016 812.281 200.016C815.273 200.016 817.102 201.008 817.109 202.703C817.102 204.398 815.273 205.383 812.281 205.391C809.305 205.383 807.469 204.398 807.484 202.703ZM809.203 202.703C809.195 203.578 810.32 204.055 812.281 204.047C814.258 204.055 815.375 203.578 815.375 202.703C815.375 201.82 814.258 201.344 812.281 201.344C810.32 201.344 809.195 201.82 809.203 202.703ZM824.406 194.656C824.391 197.25 825.758 199.844 828.047 200.828L827.016 202.219C825.391 201.469 824.203 199.977 823.547 198.133C822.898 200.117 821.68 201.742 819.969 202.547L818.906 201.094C821.258 200.078 822.633 197.383 822.641 194.656V192.406H824.406V194.656ZM829.062 205.406V191.266H830.812V205.406H829.062ZM840.188 193.203C840.188 195.383 842.32 197.578 845.281 198.094L844.5 199.547C842.133 199.055 840.195 197.617 839.273 195.719C838.344 197.602 836.406 199.047 834.047 199.547L833.281 198.094C836.195 197.562 838.336 195.375 838.344 193.203V192.156H840.188V193.203ZM832.891 203.594V202.156H845.797V203.594H832.891ZM852.688 192.141V193.547H848.984V194.875H852.156V196.219H848.984V197.672C850.672 197.656 851.844 197.586 853.219 197.344L853.406 198.703C851.773 199 850.43 199.062 848.25 199.062H847.312V192.141H852.688ZM849.266 205.219V200.312H858.797V205.219H849.266ZM851 203.812H857.078V201.688H851V203.812ZM852.766 196.125V194.719H854.359V191.5H856.016V199.609H854.359V196.125H852.766ZM857.141 199.719V191.266H858.797V199.719H857.141ZM877.234 198.25V199.641H871.781V202.234H870.016V199.641H864.328V198.25H877.234ZM865.703 194.469C865.695 192.695 867.727 191.578 870.766 191.578C873.82 191.578 875.828 192.695 875.828 194.469C875.828 196.25 873.82 197.352 870.766 197.344C867.727 197.352 865.695 196.25 865.703 194.469ZM865.906 205.109V200.922H867.656V203.688H875.812V205.109H865.906ZM867.578 194.469C867.562 195.406 868.828 195.953 870.766 195.953C872.719 195.953 873.977 195.406 873.969 194.469C873.977 193.5 872.719 192.953 870.766 192.953C868.828 192.953 867.562 193.5 867.578 194.469ZM882.094 192.062C883.234 192.055 884.227 192.477 884.891 193.188H888.266V191.266H890V199.578H888.266V197.781H884.883C884.211 198.477 883.227 198.898 882.094 198.891C879.961 198.898 878.359 197.469 878.359 195.484C878.359 193.484 879.961 192.055 882.094 192.062ZM880.016 195.484C880.016 196.641 880.883 197.422 882.094 197.422C883.266 197.422 884.133 196.641 884.141 195.484C884.133 194.289 883.266 193.547 882.094 193.547C880.883 193.547 880.016 194.289 880.016 195.484ZM880.422 202.625C880.406 200.883 882.258 199.867 885.219 199.875C888.188 199.867 890.039 200.883 890.047 202.625C890.039 204.359 888.188 205.375 885.219 205.375C882.258 205.375 880.406 204.359 880.422 202.625ZM882.125 202.625C882.109 203.523 883.258 204.008 885.219 204.016C887.219 204.008 888.344 203.523 888.344 202.625C888.344 201.703 887.219 201.211 885.219 201.203C883.258 201.211 882.109 201.703 882.125 202.625ZM885.672 194.578C885.75 194.867 885.797 195.164 885.797 195.484C885.797 195.797 885.75 196.094 885.68 196.375H888.266V194.578H885.672ZM898.422 191.484C901.641 191.492 903.508 192.344 903.516 193.906C903.508 195.484 901.641 196.336 898.422 196.344C895.211 196.336 893.328 195.484 893.328 193.906C893.328 192.344 895.211 191.492 898.422 191.484ZM892 198.484V197.094H904.875V198.484H892ZM893.516 200.719V199.438H903.266V202.891H895.234V203.938H903.656V205.266H893.531V201.656H901.562V200.719H893.516ZM895.156 193.906C895.148 194.688 896.273 195.047 898.422 195.047C900.602 195.047 901.719 194.688 901.719 193.906C901.719 193.18 900.602 192.766 898.422 192.766C896.273 192.766 895.148 193.18 895.156 193.906ZM922.5 198.609V199.984H909.594V198.609H915.172V197.562H911.25V191.641H920.953V192.984H912.984V193.953H920.609V195.234H912.984V196.234H921.062V197.562H916.906V198.609H922.5ZM911.125 203.062C911.125 201.586 912.898 200.758 916.047 200.766C919.148 200.758 920.93 201.586 920.938 203.062C920.93 204.578 919.148 205.375 916.047 205.375C912.898 205.375 911.125 204.578 911.125 203.062ZM912.859 203.062C912.859 203.75 913.922 204.078 916.047 204.078C918.133 204.078 919.188 203.75 919.203 203.062C919.188 202.391 918.133 202.062 916.047 202.062C913.922 202.062 912.859 202.391 912.859 203.062ZM934.594 191.281V195.719H936.562V197.156H934.594V201.828H932.859V191.281H934.594ZM923.469 194.234V192.844H926.797V191.266H928.531V192.844H931.844V194.234H923.469ZM924.188 197.516C924.188 195.891 925.602 194.812 927.656 194.812C929.695 194.812 931.102 195.891 931.109 197.516C931.102 199.133 929.695 200.188 927.656 200.188C925.602 200.188 924.188 199.133 924.188 197.516ZM925.547 205.109V201H927.281V203.703H935.156V205.109H925.547ZM925.875 197.516C925.867 198.367 926.586 198.852 927.656 198.844C928.727 198.852 929.453 198.367 929.453 197.516C929.453 196.656 928.727 196.156 927.656 196.156C926.586 196.156 925.867 196.656 925.875 197.516ZM730.719 221.172V222.562H719.047V221.172H724.031V219.453H725.75V221.172H730.719ZM718.469 231.891V230.5H721.672V228.078C720.68 227.625 720.117 226.898 720.125 225.953C720.117 224.258 721.945 223.258 724.891 223.266C727.812 223.258 729.648 224.258 729.641 225.953C729.648 226.891 729.094 227.617 728.109 228.07V230.5H731.375V231.891H718.469ZM721.906 225.953C721.898 226.828 722.969 227.297 724.891 227.297C726.773 227.297 727.859 226.828 727.859 225.953C727.859 225.078 726.773 224.602 724.891 224.609C722.969 224.602 721.898 225.078 721.906 225.953ZM723.406 230.5H726.391V228.555C725.93 228.617 725.43 228.656 724.891 228.656C724.359 228.656 723.859 228.625 723.406 228.555V230.5ZM738.719 219.406C741.938 219.414 743.805 220.273 743.812 221.828C743.805 223.406 741.938 224.258 738.719 224.266C735.508 224.258 733.625 223.406 733.625 221.828C733.625 220.273 735.508 219.414 738.719 219.406ZM732.297 226.312V224.938H745.172V226.312H741.828V227.438H743.562V230.891H735.531V231.938H743.953V233.266H733.828V229.656H741.859V228.719H733.812V227.438H735.625V226.312H732.297ZM735.453 221.828C735.445 222.609 736.57 222.969 738.719 222.984C740.898 222.969 742.016 222.609 742.016 221.828C742.016 221.102 740.898 220.711 738.719 220.703C736.57 220.711 735.445 221.102 735.453 221.828ZM737.344 227.438H740.094V226.312H737.344V227.438ZM751.312 221.688C751.312 223.414 752.453 225.141 754.641 225.875L753.766 227.219C752.188 226.703 751.07 225.633 750.453 224.305C749.836 225.781 748.664 226.969 746.984 227.531L746.094 226.156C748.344 225.414 749.547 223.539 749.547 221.703V221.516H746.609V220.125H754.234V221.516H751.312V221.688ZM748.328 229.75V228.359H757.953V233.391H756.219V229.75H748.328ZM753.812 224.188V222.766H756.219V219.266H757.953V227.688H756.219V224.188H753.812ZM776.625 226.625V228.031H763.75V226.625H769.297V225.375C766.711 225.188 765.078 224.156 765.078 222.516C765.078 220.742 767.086 219.656 770.172 219.656C773.25 219.656 775.258 220.742 775.266 222.516C775.258 224.156 773.625 225.188 771.047 225.375V226.625H776.625ZM765.344 233.109V229H767.078V231.703H775.172V233.109H765.344ZM766.891 222.516C766.875 223.492 768.117 224.008 770.172 224C772.234 224.008 773.469 223.492 773.469 222.516C773.469 221.586 772.234 221.039 770.172 221.031C768.117 221.039 766.875 221.586 766.891 222.516ZM789.312 219.266V226.469H787.594V219.266H789.312ZM777.562 225.094C779.852 224.367 781.055 222.555 781.047 220.703V219.609H782.844V220.703C782.836 222.5 784.031 224.18 786.266 224.859L785.422 226.203C783.781 225.695 782.609 224.648 781.969 223.305C781.328 224.766 780.125 225.914 778.438 226.453L777.562 225.094ZM779.969 228.469V227.125H789.344V230.797H781.703V231.891H789.766V233.266H780V229.5H787.609V228.469H779.969ZM802.469 219.266V224.781H804.562V226.234H802.469V233.359H800.734V219.266H802.469ZM791.328 229.5C794.766 227.781 796.625 225.391 796.969 222.172H792.094V220.734H798.734C798.727 224.883 797.008 228.531 792.312 230.844L791.328 229.5ZM812.531 221.203C812.531 223.383 814.664 225.578 817.625 226.094L816.844 227.547C814.477 227.055 812.539 225.617 811.617 223.719C810.688 225.602 808.75 227.047 806.391 227.547L805.625 226.094C808.539 225.562 810.68 223.375 810.688 221.203V220.156H812.531V221.203ZM805.234 231.594V230.156H818.141V231.594H805.234ZM830.75 220.312V221.156C830.734 222.117 830.734 223.523 830.406 225.312L828.688 225.156C828.969 223.703 829.023 222.617 829.039 221.75H823.547V220.312H830.75ZM822.703 226.438C823.539 226.43 824.477 226.422 825.469 226.406V223.531H827.188V226.352C828.648 226.289 830.148 226.18 831.516 225.984L831.609 227.234C828.672 227.766 825.336 227.82 822.859 227.828L822.703 226.438ZM824.812 233.109V228.906H826.562V231.703H834.578V233.109H824.812ZM832.344 229.844V219.266H834.125V223.672H835.953V225.125H834.125V229.844H832.344ZM848.453 219.266V233.406H846.734V219.266H848.453ZM837.453 221.906V220.5H844.109V225.797H839.25V228.641C841.477 228.625 843.391 228.508 845.594 228.141L845.75 229.562C843.352 229.977 841.242 230.07 838.703 230.062H837.469V224.422H842.344V221.906H837.453Z" fill="white"/>
<g filter="url(#filter3_i_443_5503)">
<rect x="718" y="40" width="56" height="56" rx="16" fill="white"/>
</g>
<path d="M747.213 74.1758C744.418 74.1758 742.414 72.6377 742.361 70.4141H745.033C745.077 71.3633 746 71.9873 747.23 71.9961C748.496 71.9873 749.401 71.2842 749.393 70.2559C749.401 69.2188 748.479 68.4893 746.984 68.4805H745.807V66.5293H746.984C748.241 66.5293 749.12 65.8438 749.111 64.8418C749.12 63.8662 748.373 63.1982 747.248 63.207C746.123 63.1982 745.2 63.8311 745.156 64.8066H742.625C742.669 62.6182 744.638 61.0977 747.248 61.0977C749.902 61.0977 751.669 62.6709 751.66 64.6836C751.669 66.1074 750.676 67.1182 749.252 67.373V67.4785C751.124 67.707 752.152 68.8408 752.135 70.4316C752.152 72.6113 750.087 74.1758 747.213 74.1758Z" fill="black"/>
<rect x="1017" width="319" height="292" rx="46" fill="#2057B1"/>
<path d="M1069.27 163.266V177.391H1067.52V163.266H1069.27ZM1057.56 173.5C1061.27 171.742 1062.97 169.352 1063.28 166.141H1058.28V164.766H1065.05C1065.05 168.969 1063.41 172.539 1058.47 174.891L1057.56 173.5ZM1083.47 164.781V166.188H1071.94V164.781H1076.86V163.234H1078.58V164.781H1083.47ZM1071.3 173.812V172.391H1084.2V173.812H1078.58V177.406H1076.86V173.812H1071.3ZM1072.94 169.219C1072.94 167.672 1074.73 166.828 1077.72 166.828C1080.7 166.828 1082.5 167.672 1082.5 169.219C1082.5 170.758 1080.7 171.609 1077.72 171.609C1074.73 171.609 1072.94 170.758 1072.94 169.219ZM1074.75 169.219C1074.74 169.945 1075.77 170.32 1077.72 170.312C1079.66 170.32 1080.7 169.945 1080.7 169.219C1080.7 168.5 1079.66 168.125 1077.72 168.125C1075.77 168.125 1074.74 168.5 1074.75 169.219ZM1096.95 163.281V173.703H1095.22V170.156H1092.38V171.406H1085.77V164.203H1087.5V166.484H1090.66V164.203H1092.38V165.719H1095.22V163.281H1096.95ZM1087.5 170.031H1090.66V167.828H1087.5V170.031ZM1087.64 177.109V172.672H1089.41V175.703H1097.27V177.109H1087.64ZM1092.38 168.75H1095.22V167.125H1092.38V168.75ZM1110.12 163.266V169.094H1112.11V170.547H1110.12V177.391H1108.38V163.266H1110.12ZM1098.78 173.469C1099.85 173.469 1101.09 173.469 1102.39 173.438V172.117C1100.85 171.852 1099.85 170.891 1099.86 169.562C1099.85 167.969 1101.25 166.914 1103.28 166.906C1105.29 166.914 1106.7 167.969 1106.72 169.562C1106.7 170.898 1105.68 171.859 1104.14 172.117V173.375C1105.33 173.312 1106.52 173.219 1107.62 173.062L1107.73 174.328C1104.7 174.883 1101.44 174.906 1099.03 174.906L1098.78 173.469ZM1099.05 166.266V164.891H1102.39V163.328H1104.14V164.891H1107.47V166.266H1099.05ZM1101.5 169.562C1101.49 170.375 1102.21 170.852 1103.28 170.844C1104.34 170.852 1105.05 170.375 1105.05 169.562C1105.05 168.742 1104.34 168.242 1103.28 168.234C1102.21 168.242 1101.49 168.742 1101.5 169.562ZM1121.19 163.891C1123.34 163.883 1124.89 165.086 1124.89 166.859C1124.89 168.602 1123.34 169.82 1121.19 169.812C1119.06 169.82 1117.52 168.602 1117.52 166.859C1117.52 165.086 1119.06 163.883 1121.19 163.891ZM1116.59 170.781C1119.14 170.781 1122.71 170.734 1125.75 170.281L1125.88 171.562C1124.66 171.797 1123.39 171.945 1122.16 172.039V176.953H1120.41V172.141C1119.1 172.195 1117.88 172.211 1116.81 172.219L1116.59 170.781ZM1119.2 166.859C1119.2 167.805 1120.03 168.398 1121.19 168.391C1122.39 168.398 1123.23 167.805 1123.23 166.859C1123.23 165.883 1122.39 165.281 1121.19 165.297C1120.03 165.281 1119.2 165.883 1119.2 166.859ZM1126.67 177.375V163.281H1128.39V177.375H1126.67ZM1142.2 163.266V177.391H1140.45V163.266H1142.2ZM1130.5 173.5C1134.2 171.742 1135.91 169.352 1136.22 166.141H1131.22V164.766H1137.98C1137.98 168.969 1136.35 172.539 1131.41 174.891L1130.5 173.5ZM1155.56 164.141V170.016H1148.75V164.141H1155.56ZM1149.59 176.016C1152.3 175.781 1154.04 174.578 1154.2 173.453H1150.17V172.141H1154.23V170.906H1155.98V172.141H1160.06V173.453H1156.03C1156.19 174.547 1157.89 175.742 1160.59 176.016L1160 177.344C1157.71 177.102 1155.98 176.203 1155.12 175.031C1154.25 176.219 1152.49 177.094 1150.19 177.344L1149.59 176.016ZM1150.47 168.656H1153.84V165.516H1150.47V168.656ZM1158.05 171.312V163.266H1159.77V171.312H1158.05ZM1069.27 191.266V205.391H1067.52V191.266H1069.27ZM1057.56 201.5C1061.27 199.742 1062.97 197.352 1063.28 194.141H1058.28V192.766H1065.05C1065.05 196.969 1063.41 200.539 1058.47 202.891L1057.56 201.5ZM1083.06 191.266V205.391H1081.33V191.266H1083.06ZM1071.36 201.469C1072.48 201.461 1073.76 201.461 1075.09 201.422V200.125C1073.51 199.875 1072.47 198.906 1072.47 197.562C1072.47 195.969 1073.88 194.914 1075.94 194.906C1078.02 194.914 1079.45 195.969 1079.45 197.562C1079.45 198.898 1078.41 199.859 1076.83 200.117V201.359C1078.07 201.305 1079.32 201.203 1080.5 201.047L1080.62 202.344C1077.52 202.867 1074.15 202.906 1071.61 202.906L1071.36 201.469ZM1071.66 194.266V192.891H1075.09V191.312H1076.83V192.891H1080.25V194.266H1071.66ZM1074.12 197.562C1074.11 198.375 1074.87 198.852 1075.94 198.844C1077.04 198.852 1077.79 198.375 1077.78 197.562C1077.79 196.742 1077.04 196.242 1075.94 196.234C1074.87 196.242 1074.11 196.742 1074.12 197.562ZM1094.19 193.281C1094.18 195.141 1095.35 196.891 1097.59 197.594L1096.73 198.969C1095.11 198.43 1093.95 197.352 1093.3 195.969C1092.67 197.453 1091.48 198.633 1089.81 199.203L1088.94 197.844C1091.22 197.07 1092.4 195.195 1092.39 193.281V191.938H1094.19V193.281ZM1091.05 201.75V200.359H1100.69V205.391H1098.94V201.75H1091.05ZM1098.94 199.719V191.266H1100.69V199.719H1098.94ZM1114.58 191.266V198.562H1112.84V197.031H1110V198.109H1103.39V191.891H1105.12V193.672H1108.28V191.891H1110V193.141H1112.84V191.266H1114.58ZM1105.12 196.734H1108.28V195H1105.12V196.734ZM1105.27 200.5V199.141H1114.58V202.766H1107.02V203.844H1115.03V205.219H1105.28V201.484H1112.84V200.5H1105.27ZM1110 195.703H1112.84V194.453H1110V195.703ZM1133.28 202.234V203.688H1120.38V202.234H1133.28ZM1121.44 193.969V192.578H1132.16V193.969H1130.09V198.469H1132.11V199.844H1121.48V198.469H1123.47V193.969H1121.44ZM1125.2 198.469H1128.38V193.969H1125.2V198.469ZM1147.11 202.312V203.75H1134.2V202.312H1139.77V200.016H1135.73V195.391H1143.86V193.641H1135.7V192.234H1145.58V196.766H1137.47V198.594H1145.91V200.016H1141.48V202.312H1147.11ZM1152.44 194.969C1152.45 197.25 1153.23 199.625 1155.14 200.828L1154.19 202.156C1152.91 201.391 1152.09 200.078 1151.62 198.539C1151.11 200.234 1150.2 201.672 1148.88 202.484L1147.8 201.188C1149.85 199.945 1150.76 197.453 1150.77 195.047V192.516H1152.44V194.969ZM1153.62 197.562V196.125H1155.64V191.516H1157.28V204.703H1155.64V197.562H1153.62ZM1158.55 205.391V191.266H1160.22V205.391H1158.55ZM1169.16 193.203C1169.16 195.383 1171.29 197.578 1174.25 198.094L1173.47 199.547C1171.1 199.055 1169.16 197.617 1168.24 195.719C1167.31 197.602 1165.38 199.047 1163.02 199.547L1162.25 198.094C1165.16 197.562 1167.3 195.375 1167.31 193.203V192.156H1169.16V193.203ZM1161.86 203.594V202.156H1174.77V203.594H1161.86ZM1190.78 192.125V193.391C1190.77 194.711 1190.77 196.156 1190.41 198.156H1192.36V199.562H1186.75V205.406H1185V199.562H1179.48V198.156H1188.64C1189.03 196.234 1189.05 194.789 1189.05 193.531H1181V192.125H1190.78ZM1206.19 198.266V199.656H1200.59V201H1204.61V205.359H1202.88V202.391H1194.73V201H1198.88V199.656H1193.31V198.266H1206.19ZM1193.92 196.359C1196.88 196.133 1198.55 195.156 1198.74 193.953H1194.58V192.594H1198.88V191.25H1200.59V192.594H1204.92V193.953H1200.72C1200.91 195.156 1202.57 196.133 1205.55 196.359L1205 197.672C1202.48 197.469 1200.61 196.688 1199.73 195.453C1198.84 196.688 1196.98 197.469 1194.47 197.672L1193.92 196.359ZM1213.56 191.484C1216.78 191.492 1218.65 192.344 1218.66 193.906C1218.65 195.484 1216.78 196.336 1213.56 196.344C1210.35 196.336 1208.47 195.484 1208.47 193.906C1208.47 192.344 1210.35 191.492 1213.56 191.484ZM1207.14 198.484V197.094H1220.02V198.484H1207.14ZM1208.66 200.719V199.438H1218.41V202.891H1210.38V203.938H1218.8V205.266H1208.67V201.656H1216.7V200.719H1208.66ZM1210.3 193.906C1210.29 194.688 1211.41 195.047 1213.56 195.047C1215.74 195.047 1216.86 194.688 1216.86 193.906C1216.86 193.18 1215.74 192.766 1213.56 192.766C1211.41 192.766 1210.29 193.18 1210.3 193.906ZM1237.64 198.609V199.984H1224.73V198.609H1230.31V197.562H1226.39V191.641H1236.09V192.984H1228.12V193.953H1235.75V195.234H1228.12V196.234H1236.2V197.562H1232.05V198.609H1237.64ZM1226.27 203.062C1226.27 201.586 1228.04 200.758 1231.19 200.766C1234.29 200.758 1236.07 201.586 1236.08 203.062C1236.07 204.578 1234.29 205.375 1231.19 205.375C1228.04 205.375 1226.27 204.578 1226.27 203.062ZM1228 203.062C1228 203.75 1229.06 204.078 1231.19 204.078C1233.27 204.078 1234.33 203.75 1234.34 203.062C1234.33 202.391 1233.27 202.062 1231.19 202.062C1229.06 202.062 1228 202.391 1228 203.062ZM1245.48 193.516V194.906H1238.56V193.516H1241.19V191.672H1242.91V193.516H1245.48ZM1238.97 198.938C1238.95 197.016 1240.26 195.648 1242.05 195.656C1243.84 195.648 1245.12 197.016 1245.12 198.938C1245.12 200.898 1243.84 202.266 1242.05 202.266C1240.26 202.266 1238.95 200.898 1238.97 198.938ZM1240.5 198.938C1240.49 200.078 1241.13 200.789 1242.05 200.781C1242.95 200.789 1243.59 200.078 1243.59 198.938C1243.59 197.828 1242.95 197.094 1242.05 197.094C1241.13 197.094 1240.49 197.828 1240.5 198.938ZM1246.08 204.75V191.562H1247.7V197.078H1249.08V191.266H1250.73V205.391H1249.08V198.484H1247.7V204.75H1246.08ZM1069.23 219.266V233.406H1067.52V219.266H1069.23ZM1058.23 221.906V220.5H1064.89V225.797H1060.03V228.641C1062.26 228.625 1064.17 228.508 1066.38 228.141L1066.53 229.562C1064.13 229.977 1062.02 230.07 1059.48 230.062H1058.25V224.422H1063.12V221.906H1058.23ZM1078.59 221.203C1078.59 223.383 1080.73 225.578 1083.69 226.094L1082.91 227.547C1080.54 227.055 1078.6 225.617 1077.68 223.719C1076.75 225.602 1074.81 227.047 1072.45 227.547L1071.69 226.094C1074.6 225.562 1076.74 223.375 1076.75 221.203V220.156H1078.59V221.203ZM1071.3 231.594V230.156H1084.2V231.594H1071.3ZM1096.58 220.578V222.266C1096.58 224.32 1096.58 226.258 1095.95 229.25L1094.22 229.094C1094.51 227.859 1094.66 226.773 1094.76 225.773L1086.44 226.203L1086.2 224.797L1094.84 224.469C1094.87 223.711 1094.88 222.984 1094.88 222.266V221.984H1086.62V220.578H1096.58ZM1085.12 231.594V230.172H1098V231.594H1085.12ZM1114.94 219.266V233.391H1113.27V219.266H1114.94ZM1102.72 222.906V221.516H1105.28V219.625H1107.02V221.516H1109.55V222.906H1102.72ZM1103.11 226.953C1103.1 225.023 1104.38 223.648 1106.11 223.641C1107.86 223.648 1109.12 225.023 1109.12 226.953C1109.12 228.906 1107.86 230.273 1106.11 230.281C1104.38 230.273 1103.1 228.906 1103.11 226.953ZM1104.62 226.953C1104.62 228.094 1105.23 228.82 1106.11 228.812C1106.99 228.82 1107.61 228.094 1107.62 226.953C1107.61 225.828 1106.99 225.102 1106.11 225.109C1105.23 225.102 1104.62 225.828 1104.62 226.953ZM1109.19 225.984V224.562H1110.53V219.531H1112.16V232.734H1110.53V225.984H1109.19ZM1121.91 223.281C1121.91 225.594 1123.27 228.031 1125.55 228.984L1124.59 230.359C1122.92 229.633 1121.7 228.156 1121.05 226.359C1120.41 228.297 1119.16 229.922 1117.52 230.703L1116.52 229.344C1118.74 228.312 1120.13 225.68 1120.14 223.281V222.094H1117.03V220.656H1125V222.094H1121.91V223.281ZM1126.58 233.391V219.266H1128.33V233.391H1126.58ZM1141.73 220.141V226.016H1134.92V220.141H1141.73ZM1135.77 232.016C1138.48 231.781 1140.21 230.578 1140.37 229.453H1136.34V228.141H1140.41V226.906H1142.16V228.141H1146.23V229.453H1142.2C1142.36 230.547 1144.06 231.742 1146.77 232.016L1146.17 233.344C1143.88 233.102 1142.15 232.203 1141.29 231.031C1140.42 232.219 1138.66 233.094 1136.36 233.344L1135.77 232.016ZM1136.64 224.656H1140.02V221.516H1136.64V224.656ZM1144.22 227.312V219.266H1145.94V227.312H1144.22ZM1163.62 219.266V233.391H1161.88V219.266H1163.62ZM1151.92 229.5C1155.62 227.742 1157.33 225.352 1157.64 222.141H1152.64V220.766H1159.41C1159.41 224.969 1157.77 228.539 1152.83 230.891L1151.92 229.5ZM1177.42 219.266V233.391H1175.69V219.266H1177.42ZM1165.72 229.469C1166.84 229.461 1168.12 229.461 1169.45 229.422V228.125C1167.87 227.875 1166.83 226.906 1166.83 225.562C1166.83 223.969 1168.24 222.914 1170.3 222.906C1172.38 222.914 1173.81 223.969 1173.81 225.562C1173.81 226.898 1172.77 227.859 1171.19 228.117V229.359C1172.43 229.305 1173.68 229.203 1174.86 229.047L1174.98 230.344C1171.88 230.867 1168.51 230.906 1165.97 230.906L1165.72 229.469ZM1166.02 222.266V220.891H1169.45V219.312H1171.19V220.891H1174.61V222.266H1166.02ZM1168.48 225.562C1168.47 226.375 1169.23 226.852 1170.3 226.844C1171.4 226.852 1172.15 226.375 1172.14 225.562C1172.15 224.742 1171.4 224.242 1170.3 224.234C1169.23 224.242 1168.47 224.742 1168.48 225.562ZM1185.48 219.891V221.688H1188.78V219.891H1190.5V226.047H1183.77V219.891H1185.48ZM1185.19 228.422V227.062H1194.42V230.766H1186.92V231.891H1194.86V233.266H1185.2V229.5H1192.69V228.422H1185.19ZM1185.48 224.672H1188.78V223H1185.48V224.672ZM1192.69 226.5V219.266H1194.42V222.125H1196.39V223.531H1194.42V226.5H1192.69ZM1208.44 219.828V220.766C1208.45 221.656 1208.45 222.812 1208.17 224.219H1210.02V225.578H1204.39V227.078H1208.42V230.734H1200.34V231.891H1208.78V233.25H1198.61V229.531H1206.69V228.438H1198.59V227.078H1202.67V225.578H1197.11V224.219H1206.41C1206.66 222.977 1206.7 222.031 1206.7 221.203H1198.7V219.828H1208.44Z" fill="white"/>
<g filter="url(#filter4_i_443_5503)">
<rect x="1057" y="40" width="56" height="56" rx="16" fill="white"/>
</g>
<path d="M1081.29 71.75V69.6582L1086.67 61.2734H1089.99V69.623H1091.61V71.75H1089.99V74H1087.48V71.75H1081.29ZM1083.96 69.623H1087.51V64.1738H1087.39L1083.96 69.5176V69.623Z" fill="black"/>
<defs>
<filter id="filter0_i_443_5503" x="40" y="40" width="58" height="59" filterUnits="userSpaceOnUse" color-interpolation-filters="sRGB">
<feFlood flood-opacity="0" result="BackgroundImageFix"/>
<feBlend mode="normal" in="SourceGraphic" in2="BackgroundImageFix" result="shape"/>
<feColorMatrix in="SourceAlpha" type="matrix" values="0 0 0 0 0 0 0 0 0 0 0 0 0 0 0 0 0 0 127 0" result="hardAlpha"/>
<feOffset dx="2" dy="3"/>
<feGaussianBlur stdDeviation="2"/>
<feComposite in2="hardAlpha" operator="arithmetic" k2="-1" k3="1"/>
<feColorMatrix type="matrix" values="0 0 0 0 0 0 0 0 0 0 0 0 0 0 0 0 0 0 0.25 0"/>
<feBlend mode="normal" in2="shape" result="effect1_innerShadow_443_5503"/>
</filter>
<filter id="filter1_i_443_5503" x="40" y="40" width="58" height="59" filterUnits="userSpaceOnUse" color-interpolation-filters="sRGB">
<feFlood flood-opacity="0" result="BackgroundImageFix"/>
<feBlend mode="normal" in="SourceGraphic" in2="BackgroundImageFix" result="shape"/>
<feColorMatrix in="SourceAlpha" type="matrix" values="0 0 0 0 0 0 0 0 0 0 0 0 0 0 0 0 0 0 127 0" result="hardAlpha"/>
<feOffset dx="2" dy="3"/>
<feGaussianBlur stdDeviation="2"/>
<feComposite in2="hardAlpha" operator="arithmetic" k2="-1" k3="1"/>
<feColorMatrix type="matrix" values="0 0 0 0 0 0 0 0 0 0 0 0 0 0 0 0 0 0 0.25 0"/>
<feBlend mode="normal" in2="shape" result="effect1_innerShadow_443_5503"/>
</filter>
<filter id="filter2_i_443_5503" x="379" y="40" width="58" height="59" filterUnits="userSpaceOnUse" color-interpolation-filters="sRGB">
<feFlood flood-opacity="0" result="BackgroundImageFix"/>
<feBlend mode="normal" in="SourceGraphic" in2="BackgroundImageFix" result="shape"/>
<feColorMatrix in="SourceAlpha" type="matrix" values="0 0 0 0 0 0 0 0 0 0 0 0 0 0 0 0 0 0 127 0" result="hardAlpha"/>
<feOffset dx="2" dy="3"/>
<feGaussianBlur stdDeviation="2"/>
<feComposite in2="hardAlpha" operator="arithmetic" k2="-1" k3="1"/>
<feColorMatrix type="matrix" values="0 0 0 0 0 0 0 0 0 0 0 0 0 0 0 0 0 0 0.25 0"/>
<feBlend mode="normal" in2="shape" result="effect1_innerShadow_443_5503"/>
</filter>
<filter id="filter3_i_443_5503" x="718" y="40" width="58" height="59" filterUnits="userSpaceOnUse" color-interpolation-filters="sRGB">
<feFlood flood-opacity="0" result="BackgroundImageFix"/>
<feBlend mode="normal" in="SourceGraphic" in2="BackgroundImageFix" result="shape"/>
<feColorMatrix in="SourceAlpha" type="matrix" values="0 0 0 0 0 0 0 0 0 0 0 0 0 0 0 0 0 0 127 0" result="hardAlpha"/>
<feOffset dx="2" dy="3"/>
<feGaussianBlur stdDeviation="2"/>
<feComposite in2="hardAlpha" operator="arithmetic" k2="-1" k3="1"/>
<feColorMatrix type="matrix" values="0 0 0 0 0 0 0 0 0 0 0 0 0 0 0 0 0 0 0.25 0"/>
<feBlend mode="normal" in2="shape" result="effect1_innerShadow_443_5503"/>
</filter>
<filter id="filter4_i_443_5503" x="1057" y="40" width="58" height="59" filterUnits="userSpaceOnUse" color-interpolation-filters="sRGB">
<feFlood flood-opacity="0" result="BackgroundImageFix"/>
<feBlend mode="normal" in="SourceGraphic" in2="BackgroundImageFix" result="shape"/>
<feColorMatrix in="SourceAlpha" type="matrix" values="0 0 0 0 0 0 0 0 0 0 0 0 0 0 0 0 0 0 127 0" result="hardAlpha"/>
<feOffset dx="2" dy="3"/>
<feGaussianBlur stdDeviation="2"/>
<feComposite in2="hardAlpha" operator="arithmetic" k2="-1" k3="1"/>
<feColorMatrix type="matrix" values="0 0 0 0 0 0 0 0 0 0 0 0 0 0 0 0 0 0 0.25 0"/>
<feBlend mode="normal" in2="shape" result="effect1_innerShadow_443_5503"/>
</filter>
</defs>
</svg>
