<svg width="339" height="552" viewBox="0 0 339 552" fill="none" xmlns="http://www.w3.org/2000/svg">
<rect width="339" height="132" rx="32" fill="#69A2FF"/>
<g filter="url(#filter0_i_443_5504)">
<rect x="30" y="46" width="40" height="40" rx="12" fill="white"/>
</g>
<path d="M52.0156 60.6875V72H49.6562V62.9219H49.5938L47 64.5469V62.4688L49.7969 60.6875H52.0156Z" fill="black"/>
<path d="M110.787 47.8301V56.9082H109.037V47.8301H110.787ZM100.328 53.832C102.413 53.1348 103.322 51.4053 103.322 49.7168V48.5137H105.141V49.7168C105.127 51.3643 106.009 52.9707 108.053 53.627L107.164 54.9941C105.756 54.5293 104.792 53.5996 104.238 52.417C103.678 53.6885 102.687 54.7139 101.23 55.2129L100.328 53.832ZM102.447 60.0391V56.0332H104.211V58.6445H111.115V60.0391H102.447ZM122.928 47.8164V60.2578H121.164V47.8164H122.928ZM112.51 56.7305C115.723 55.2129 117.138 53.2441 117.418 50.4824H113.18V49.1152H119.195C119.188 52.8887 117.869 56.0264 113.426 58.125L112.51 56.7305ZM135.328 49.1016V50.5098H125.115V49.1016H129.367V47.8027H131.104V49.1016H135.328ZM124.568 57.2773V55.8555H135.957V57.2773H131.104V60.2715H129.367V57.2773H124.568ZM125.949 53.1211C125.942 51.7402 127.549 50.9883 130.242 50.9883C132.915 50.9883 134.528 51.7402 134.535 53.1211C134.528 54.4951 132.915 55.2471 130.242 55.2539C127.549 55.2471 125.942 54.4951 125.949 53.1211ZM127.754 53.1211C127.754 53.6885 128.574 53.9551 130.242 53.9551C131.89 53.9551 132.717 53.6885 132.717 53.1211C132.717 52.5537 131.89 52.2803 130.242 52.2734C128.574 52.2803 127.754 52.5537 127.754 53.1211ZM143.777 51.6035C143.777 53.4902 144.454 55.3838 146.225 56.334L145.268 57.6055C144.146 57.0312 143.401 56.0264 142.964 54.8164C142.533 56.1357 141.788 57.25 140.66 57.9062L139.662 56.5938C141.46 55.5547 142.123 53.5244 142.137 51.6035V51.3164H140.127V49.9219H142.137V48.2402H143.764V49.9219H145.732V51.3164H143.777V51.6035ZM145.008 53.9551V52.5332H146.471V48.0215H148.111V59.6836H146.471V53.9551H145.008ZM149 60.2578V47.8164H150.654V60.2578H149ZM162.754 47.8164V60.2578H161.1V47.8164H162.754ZM151.734 56.6211C153.566 55.4932 154.25 53.2646 154.25 51.1523V50.4824H152.213V49.0879H157.818V50.4824H155.932V51.1523C155.925 53.2168 156.574 55.3086 158.393 56.3477L157.367 57.6328C156.253 56.9766 155.528 55.8691 155.104 54.5293C154.681 55.9785 153.929 57.209 152.787 57.9062L151.734 56.6211ZM156.93 53.4902V52.082H158.57V48.0215H160.211V59.6836H158.57V53.4902H156.93ZM174.881 47.8164V60.2578H173.213V47.8164H174.881ZM164.203 53.2031C164.203 50.4209 165.263 48.6982 166.91 48.7051C168.407 48.6982 169.433 50.0996 169.624 52.4238H170.643V47.9941H172.283V59.6836H170.643V53.8047H169.638C169.487 56.2451 168.441 57.7285 166.91 57.7285C165.263 57.7285 164.203 55.999 164.203 53.2031ZM165.816 53.2031C165.803 55.1172 166.213 56.0605 166.91 56.0469C167.628 56.0605 168.052 55.1172 168.045 53.2031C168.052 51.2959 167.628 50.3457 166.91 50.3457C166.213 50.3457 165.803 51.2959 165.816 53.2031ZM189.482 47.7754V52.4648H190.986V53.9277H189.482V60.2578H187.746V47.7754H189.482ZM179.666 57.1953V49.0605H182.906V50.4551H181.416V55.7529C181.922 55.7324 182.421 55.6777 182.975 55.5684L183.111 57.0039C182.086 57.1885 181.286 57.2021 180.295 57.1953H179.666ZM183.549 57.1953V49.0605H186.912V50.4551H185.271V55.7666C186.023 55.7461 186.529 55.6846 187.09 55.541L187.227 56.9766C186.379 57.1885 185.682 57.2021 184.205 57.1953H183.549ZM202.895 54.543V55.9375H191.506V54.543H202.895ZM192.9 49.4434V48.1035H201.514V51.5352H194.664V52.4238H201.746V53.7363H192.928V50.291H199.764V49.4434H192.9ZM192.941 60.0391V56.6211H194.691V58.6445H201.787V60.0391H192.941ZM212.684 51.9316C212.602 51.1455 211.979 50.6875 210.975 50.6875C209.936 50.6875 209.354 51.166 209.348 51.8223C209.341 52.54 210.079 52.8613 210.934 53.0527L211.822 53.2715C213.518 53.6611 214.782 54.5225 214.789 56.1699C214.782 57.9814 213.374 59.1436 210.961 59.1367C208.568 59.1436 207.044 58.0361 206.982 55.9102H208.979C209.047 56.9082 209.84 57.4141 210.934 57.4141C212.014 57.4141 212.711 56.9082 212.711 56.1699C212.711 55.4932 212.096 55.1787 211.016 54.9121L209.936 54.6523C208.268 54.2422 207.242 53.4082 207.242 51.959C207.235 50.1611 208.821 48.9648 210.988 48.9648C213.183 48.9648 214.625 50.1816 214.652 51.9316H212.684ZM219.615 59H216.129V49.1016H219.656C222.637 49.1016 224.462 50.9541 224.455 54.0371C224.462 57.1338 222.637 59 219.615 59ZM218.18 57.2363H219.533C221.42 57.2363 222.404 56.2588 222.404 54.0371C222.404 51.8359 221.42 50.8652 219.547 50.8652H218.18V57.2363ZM225.945 49.1016H228.488L231.236 55.8145H231.346L234.094 49.1016H236.637V59H234.641V52.5195H234.559L231.975 58.959H230.607L228.023 52.4922H227.941V59H225.945V49.1016ZM241.887 54.666H240.602L240.725 52.7793L239.152 53.832L238.51 52.7246L240.205 51.8906L238.51 51.043L239.152 49.9355L240.725 50.9883L240.602 49.1016H241.887L241.764 50.9883L243.336 49.9355L243.979 51.043L242.283 51.8906L243.979 52.7246L243.336 53.832L241.764 52.7793L241.887 54.666ZM259.988 53.5039V54.9258H248.613V53.5039H259.988ZM249.912 57.9609C249.912 56.498 251.553 55.6709 254.273 55.6777C256.974 55.6709 258.594 56.498 258.607 57.9609C258.594 59.4307 256.974 60.2646 254.273 60.2578C251.553 60.2646 249.912 59.4307 249.912 57.9609ZM249.994 52.6289V48.1445H258.621V49.5527H251.73V51.248H258.689V52.6289H249.994ZM251.689 57.9609C251.683 58.6172 252.551 58.9316 254.273 58.9316C255.962 58.9316 256.851 58.6172 256.857 57.9609C256.851 57.332 255.962 57.0039 254.273 57.0039C252.551 57.0039 251.683 57.332 251.689 57.9609ZM104.402 72.5547C106.378 72.5615 107.841 73.8193 107.848 75.6035C107.841 77.1211 106.788 78.2559 105.264 78.5703V80.2451C106.316 80.1836 107.376 80.0947 108.381 79.9512L108.518 81.209C105.756 81.7354 102.803 81.7559 100.629 81.7559L100.424 80.3477C101.34 80.3477 102.406 80.3408 103.527 80.3135V78.5635C102.01 78.249 100.937 77.1143 100.943 75.6035C100.937 73.8193 102.44 72.5615 104.402 72.5547ZM102.68 75.6035C102.673 76.5674 103.418 77.1689 104.402 77.1621C105.394 77.1689 106.146 76.5674 106.152 75.6035C106.146 74.6123 105.394 74.0518 104.402 74.0449C103.418 74.0518 102.673 74.6123 102.68 75.6035ZM109.092 84.2852V71.8164H110.828V84.2852H109.092ZM123.844 78.9941V80.3613H118.977V84.2578H117.254V80.3613H112.455V78.9941H123.844ZM113.795 77.791V72.2949H115.518V73.7305H120.74V72.2949H122.49V77.791H113.795ZM115.518 76.3965H120.74V75.0977H115.518V76.3965ZM137.666 71.8164V74.5371H139.348V75.9727H137.666V78.7754H135.916V71.8164H137.666ZM127.658 77.668C130.454 76.9707 131.992 75.5898 132.272 73.9355H128.273V72.541H134.18C134.173 75.8359 132.088 78.0645 128.355 79.0488L127.658 77.668ZM129.531 84.1074V79.2402H137.666V84.1074H129.531ZM131.268 82.7402H135.943V80.6484H131.268V82.7402ZM151.242 77.9414V79.3223H146.416V80.4023H149.861V84.2441H148.125V81.7832H141.152V80.4023H144.693V79.3223H139.895V77.9414H151.242ZM140.373 76.1914C143.073 76.0068 144.338 75.2002 144.55 74.3047H140.988V72.9512H144.693V71.8301H146.416V72.9512H150.148V74.3047H146.553C146.758 75.2002 148.016 76.0068 150.736 76.1914L150.203 77.4902C147.913 77.333 146.334 76.6768 145.548 75.6719C144.769 76.6768 143.183 77.333 140.906 77.4902L140.373 76.1914ZM156.574 74.6328C156.567 76.8613 157.518 79.1104 159.514 80.0742L158.461 81.4688C157.128 80.8057 156.226 79.5752 155.713 78.0781C155.166 79.6846 154.209 81.0039 152.801 81.7012L151.721 80.293C153.833 79.3223 154.824 76.9434 154.824 74.6328V72.7734H156.574V74.6328ZM160.061 84.2578V71.8164H161.811V76.6152H163.643V78.0918H161.811V84.2578H160.061ZM167.566 72.3496C169.152 72.3359 170.417 73.2451 170.759 74.5781H172.844V71.8164H174.58V78.502H172.844V75.9727H170.766C170.444 77.3398 169.166 78.2695 167.566 78.2695C165.652 78.2695 164.244 77.0254 164.258 75.2891C164.244 73.5869 165.652 72.3359 167.566 72.3496ZM165.912 75.2891C165.905 76.2188 166.589 76.8066 167.566 76.8066C168.51 76.8066 169.187 76.2188 169.193 75.2891C169.187 74.3594 168.51 73.792 167.566 73.7988C166.589 73.792 165.905 74.3594 165.912 75.2891ZM166.281 84.1211V79.0488H168.004V80.252H172.844V79.0488H174.58V84.1211H166.281ZM168.004 82.7129H172.844V81.5918H168.004V82.7129ZM181.867 71.9941C184.731 71.9941 186.386 72.7461 186.393 74.1133C186.386 75.501 184.731 76.2461 181.867 76.2461C178.996 76.2461 177.328 75.501 177.328 74.1133C177.328 72.7461 178.996 71.9941 181.867 71.9941ZM176.193 78.2148V76.834H187.541V78.2148H176.193ZM177.506 80.2109V78.9395H186.16V82.1113H179.229V82.8633H186.488V84.1758H177.52V80.8945H184.438V80.2109H177.506ZM179.16 74.1133C179.153 74.7217 180.042 74.9609 181.867 74.9609C183.706 74.9609 184.588 74.7217 184.588 74.1133C184.588 73.5596 183.706 73.2656 181.867 73.2656C180.042 73.2656 179.153 73.5596 179.16 74.1133ZM202.867 78.2285V79.5957H191.492V78.2285H196.305V77.4629H192.914V72.1172H201.541V73.457H194.664V74.1543H201.254V75.4121H194.664V76.123H201.65V77.4629H198.055V78.2285H202.867ZM192.818 82.207C192.818 80.8945 194.391 80.1562 197.18 80.1699C199.921 80.1562 201.5 80.8945 201.514 82.207C201.5 83.5469 199.921 84.2646 197.18 84.2578C194.391 84.2646 192.818 83.5469 192.818 82.207ZM194.568 82.207C194.555 82.7402 195.389 82.9727 197.18 82.9727C198.93 82.9727 199.757 82.7402 199.764 82.207C199.757 81.6875 198.93 81.4482 197.18 81.4551C195.389 81.4482 194.555 81.6875 194.568 82.207ZM213.49 71.8301V75.6445H215.172V77.0664H213.49V81.1133H211.74V71.8301H213.49ZM203.619 74.5098V73.1289H206.449V71.8027H208.186V73.1289H211.002V74.5098H203.619ZM204.221 77.3535C204.221 75.9111 205.499 74.9473 207.311 74.9473C209.115 74.9473 210.373 75.9111 210.373 77.3535C210.373 78.7891 209.115 79.7324 207.311 79.7324C205.499 79.7324 204.221 78.7891 204.221 77.3535ZM205.424 84.0391V80.4023H207.16V82.6445H213.941V84.0391H205.424ZM205.93 77.3535C205.923 78.0371 206.477 78.4062 207.311 78.4062C208.151 78.4062 208.719 78.0371 208.719 77.3535C208.719 76.6631 208.151 76.2803 207.311 76.2734C206.477 76.2803 205.923 76.6631 205.93 77.3535ZM230.293 78.2285V79.623H218.945V78.2285H223.73V77.2305C221.495 77.0391 220.08 76.1162 220.08 74.6738C220.08 73.1084 221.878 72.1309 224.619 72.1309C227.34 72.1309 229.138 73.1084 229.145 74.6738C229.138 76.123 227.716 77.0459 225.48 77.2373V78.2285H230.293ZM220.312 84.0391V80.4023H222.062V82.6445H229.008V84.0391H220.312ZM221.898 74.6738C221.885 75.4736 222.89 75.8633 224.619 75.8633C226.335 75.8633 227.34 75.4736 227.34 74.6738C227.34 73.9287 226.335 73.5186 224.619 73.5117C222.89 73.5186 221.885 73.9287 221.898 74.6738ZM241.449 71.8164V78.1191H239.713V71.8164H241.449ZM230.99 76.7793C233.068 76.1572 233.998 74.5918 233.998 73.0469V72.0898H235.816V73.0469C235.803 74.5576 236.705 76 238.742 76.5879L237.895 77.9277C236.466 77.5176 235.481 76.6494 234.914 75.542C234.354 76.752 233.335 77.7021 231.852 78.1465L230.99 76.7793ZM233.109 80.0059V78.6523H241.463V82.0293H234.846V82.7949H241.805V84.1758H233.137V80.7305H239.727V80.0059H233.109ZM252.961 71.8164V76.5879H254.725V78.0234H252.961V84.2305H251.211V71.8164H252.961ZM243.008 80.7441C245.954 79.2676 247.54 77.2852 247.868 74.5098H243.719V73.0879H249.639C249.625 76.8066 248.176 80.0264 243.992 82.084L243.008 80.7441ZM261.793 73.457C261.786 75.2822 263.406 77.2305 266.223 77.709L265.457 79.1582C263.283 78.7275 261.677 77.5039 260.87 75.9111C260.05 77.4902 258.437 78.7207 256.283 79.1582L255.531 77.709C258.3 77.2168 259.92 75.2617 259.934 73.457V72.5547H261.793V73.457ZM255.244 82.7266V81.291H266.633V82.7266H255.244ZM280.441 71.8164V74.5371H282.123V75.9727H280.441V78.7754H278.691V71.8164H280.441ZM270.434 77.668C273.229 76.9707 274.768 75.5898 275.048 73.9355H271.049V72.541H276.955C276.948 75.8359 274.863 78.0645 271.131 79.0488L270.434 77.668ZM272.307 84.1074V79.2402H280.441V84.1074H272.307ZM274.043 82.7402H278.719V80.6484H274.043V82.7402ZM294.018 77.9414V79.3223H289.191V80.4023H292.637V84.2441H290.9V81.7832H283.928V80.4023H287.469V79.3223H282.67V77.9414H294.018ZM283.148 76.1914C285.849 76.0068 287.113 75.2002 287.325 74.3047H283.764V72.9512H287.469V71.8301H289.191V72.9512H292.924V74.3047H289.328C289.533 75.2002 290.791 76.0068 293.512 76.1914L292.979 77.4902C290.688 77.333 289.109 76.6768 288.323 75.6719C287.544 76.6768 285.958 77.333 283.682 77.4902L283.148 76.1914Z" fill="white"/>
<rect y="140" width="339" height="132" rx="32" fill="#4B84F0"/>
<g filter="url(#filter1_i_443_5504)">
<rect x="30" y="186" width="40" height="40" rx="12" fill="white"/>
</g>
<path d="M46.0078 212L45.9922 210.297L50.0547 206.562C51.1094 205.555 51.6797 204.93 51.6797 204.031C51.6797 203.023 50.9219 202.398 49.8828 202.406C48.8203 202.398 48.125 203.07 48.1328 204.156H45.8984C45.8906 201.945 47.5312 200.531 49.9141 200.531C52.3359 200.531 53.9453 201.914 53.9453 203.875C53.9453 205.164 53.3203 206.219 50.9922 208.328L49.2734 210V210.062H54.1016V212H46.0078Z" fill="black"/>
<path d="M104.949 178.633C104.942 180.861 105.893 183.11 107.889 184.074L106.836 185.469C105.503 184.806 104.601 183.575 104.088 182.078C103.541 183.685 102.584 185.004 101.176 185.701L100.096 184.293C102.208 183.322 103.199 180.943 103.199 178.633V176.773H104.949V178.633ZM108.436 188.258V175.816H110.186V180.615H112.018V182.092H110.186V188.258H108.436ZM115.941 176.35C117.527 176.336 118.792 177.245 119.134 178.578H121.219V175.816H122.955V182.502H121.219V179.973H119.141C118.819 181.34 117.541 182.27 115.941 182.27C114.027 182.27 112.619 181.025 112.633 179.289C112.619 177.587 114.027 176.336 115.941 176.35ZM114.287 179.289C114.28 180.219 114.964 180.807 115.941 180.807C116.885 180.807 117.562 180.219 117.568 179.289C117.562 178.359 116.885 177.792 115.941 177.799C114.964 177.792 114.28 178.359 114.287 179.289ZM114.656 188.121V183.049H116.379V184.252H121.219V183.049H122.955V188.121H114.656ZM116.379 186.713H121.219V185.592H116.379V186.713ZM131.637 176.65V178.045H129.162C129.169 179.494 130.051 180.896 132.033 181.477L131.199 182.844C129.825 182.427 128.868 181.586 128.321 180.526C127.768 181.777 126.756 182.775 125.266 183.268L124.377 181.887C126.441 181.237 127.378 179.624 127.398 178.045H124.855V176.65H131.637ZM126.1 185.838C126.093 184.32 127.733 183.438 130.365 183.445C132.956 183.438 134.556 184.32 134.562 185.838C134.556 187.362 132.956 188.265 130.365 188.258C127.733 188.265 126.093 187.362 126.1 185.838ZM127.85 185.838C127.836 186.549 128.731 186.904 130.365 186.904C131.979 186.904 132.84 186.549 132.84 185.838C132.84 185.141 131.979 184.792 130.365 184.799C128.731 184.792 127.836 185.141 127.85 185.838ZM132.689 183.199V175.816H134.439V178.701H136.121V180.123H134.439V183.199H132.689ZM150.682 175.816V188.258H149.014V175.816H150.682ZM140.004 181.203C140.004 178.421 141.063 176.698 142.711 176.705C144.208 176.698 145.233 178.1 145.425 180.424H146.443V175.994H148.084V187.684H146.443V181.805H145.438C145.288 184.245 144.242 185.729 142.711 185.729C141.063 185.729 140.004 183.999 140.004 181.203ZM141.617 181.203C141.604 183.117 142.014 184.061 142.711 184.047C143.429 184.061 143.853 183.117 143.846 181.203C143.853 179.296 143.429 178.346 142.711 178.346C142.014 178.346 141.604 179.296 141.617 181.203ZM162.508 175.816V188.285H160.771V181.08H157.367V179.658H160.771V175.816H162.508ZM152.637 185.359V177.143H154.387V183.903C155.966 183.876 157.593 183.739 159.281 183.418L159.473 184.84C157.463 185.257 155.549 185.359 153.689 185.359H152.637ZM168.92 179.207C168.913 181.217 169.952 183.37 172.037 184.238L171.094 185.605C169.631 184.983 168.619 183.746 168.059 182.242C167.498 183.876 166.466 185.243 164.996 185.92L163.998 184.539C166.062 183.616 167.129 181.312 167.129 179.207V178.441H164.49V177.02H171.518V178.441H168.92V179.207ZM172.748 188.258V175.816H174.512V188.258H172.748ZM186.529 176.295V177.689H184.055C184.096 178.934 184.998 180.239 186.898 180.779L186.092 182.16C184.697 181.757 183.733 180.93 183.18 179.897C182.612 181.046 181.601 181.989 180.158 182.42L179.311 181.066C181.259 180.438 182.236 179.009 182.305 177.689H179.789V176.295H186.529ZM181.621 184.006V182.625H189.906V185.988H183.385V186.781H190.275V188.135H181.635V184.717H188.17V184.006H181.621ZM186.215 179.754V178.373H188.17V175.816H189.906V182.146H188.17V179.754H186.215ZM201.391 175.816V178.537H203.072V179.973H201.391V182.775H199.641V175.816H201.391ZM191.383 181.668C194.179 180.971 195.717 179.59 195.997 177.936H191.998V176.541H197.904C197.897 179.836 195.812 182.064 192.08 183.049L191.383 181.668ZM193.256 188.107V183.24H201.391V188.107H193.256ZM194.992 186.74H199.668V184.648H194.992V186.74ZM216.799 175.816V178.756H218.385V180.205H216.799V183.145H215.049V175.816H216.799ZM206.709 181.805C207.618 181.805 208.65 181.805 209.73 181.784V181.237C208.37 181.066 207.536 180.506 207.543 179.617C207.536 178.605 208.732 178.011 210.592 178.018C212.438 178.011 213.634 178.605 213.641 179.617C213.634 180.499 212.807 181.06 211.467 181.23V181.723C212.492 181.668 213.511 181.586 214.475 181.463L214.598 182.543C211.945 182.987 209.061 183.008 206.887 183.008L206.709 181.805ZM207.037 177.758V176.596H209.73V175.707H211.467V176.596H214.16V177.758H207.037ZM208.363 184.744V183.582H216.799V186.371H210.127V187.014H217.209V188.176H208.377V185.318H215.049V184.744H208.363ZM209.211 179.617C209.204 179.993 209.703 180.185 210.592 180.191C211.467 180.185 211.966 179.993 211.973 179.617C211.966 179.255 211.467 179.098 210.592 179.098C209.703 179.098 209.204 179.255 209.211 179.617ZM230.32 181.695V183.062H218.945V181.695H223.785V180.629H220.326V176.363H228.953V177.717H222.062V179.262H229.021V180.629H225.494V181.695H230.32ZM220.244 185.988C220.244 184.512 221.885 183.691 224.605 183.691C227.306 183.691 228.926 184.512 228.939 185.988C228.926 187.444 227.306 188.271 224.605 188.271C221.885 188.271 220.244 187.444 220.244 185.988ZM222.021 185.988C222.015 186.638 222.883 186.945 224.605 186.945C226.294 186.945 227.183 186.638 227.189 185.988C227.183 185.346 226.294 185.018 224.605 185.018C222.883 185.018 222.015 185.346 222.021 185.988ZM238.045 177.061V178.059C238.031 179.228 238.031 180.759 237.703 182.83L235.98 182.693C236.268 180.889 236.295 179.556 236.309 178.455H231.592V177.061H238.045ZM230.936 184.32C231.633 184.32 232.412 184.313 233.219 184.293V180.629H234.941V184.238C236.165 184.19 237.402 184.102 238.551 183.951L238.66 185.25C236.097 185.681 233.28 185.729 231.1 185.715L230.936 184.32ZM239.139 188.258V175.816H240.902V180.82H242.598V182.27H240.902V188.258H239.139ZM110.787 199.83V208.908H109.037V199.83H110.787ZM100.328 205.832C102.413 205.135 103.322 203.405 103.322 201.717V200.514H105.141V201.717C105.127 203.364 106.009 204.971 108.053 205.627L107.164 206.994C105.756 206.529 104.792 205.6 104.238 204.417C103.678 205.688 102.687 206.714 101.23 207.213L100.328 205.832ZM102.447 212.039V208.033H104.211V210.645H111.115V212.039H102.447ZM123.324 199.816V212.258H121.656V206.023H120.604V211.684H118.949V208.122L117.965 209.428C116.81 208.819 116.064 207.787 115.62 206.522C115.21 207.979 114.479 209.168 113.289 209.879L112.209 208.539C114.103 207.473 114.731 205.271 114.738 202.893V202.496H112.633V201.102H118.334V202.496H116.434V202.893C116.434 205.06 117.076 207.124 118.949 208.095V199.994H120.604V204.602H121.656V199.816H123.324ZM128.547 202.031C128.547 203.378 129.244 204.704 130.898 205.34L129.969 206.666C128.902 206.263 128.171 205.524 127.727 204.608C127.275 205.682 126.496 206.577 125.334 207.062L124.391 205.723C126.147 204.95 126.852 203.419 126.852 202.031V200.568H128.547V202.031ZM126.701 209.934C126.694 208.478 128.369 207.603 131.008 207.609C133.633 207.603 135.314 208.478 135.328 209.934C135.314 211.376 133.633 212.265 131.008 212.258C128.369 212.265 126.694 211.376 126.701 209.934ZM128.451 209.934C128.438 210.604 129.374 210.945 131.008 210.945C132.628 210.945 133.564 210.604 133.564 209.934C133.564 209.257 132.628 208.908 131.008 208.908C129.374 208.908 128.438 209.257 128.451 209.934ZM130.939 207.049V200.049H132.566V202.865H133.605V199.83H135.26V207.432H133.605V204.273H132.566V207.049H130.939ZM147.455 199.816V212.258H145.787V199.816H147.455ZM136.777 205.203C136.777 202.421 137.837 200.698 139.484 200.705C140.981 200.698 142.007 202.1 142.198 204.424H143.217V199.994H144.857V211.684H143.217V205.805H142.212C142.062 208.245 141.016 209.729 139.484 209.729C137.837 209.729 136.777 207.999 136.777 205.203ZM138.391 205.203C138.377 207.117 138.787 208.061 139.484 208.047C140.202 208.061 140.626 207.117 140.619 205.203C140.626 203.296 140.202 202.346 139.484 202.346C138.787 202.346 138.377 203.296 138.391 205.203ZM159.281 199.816V212.285H157.545V205.08H154.141V203.658H157.545V199.816H159.281ZM149.41 209.359V201.143H151.16V207.903C152.739 207.876 154.366 207.739 156.055 207.418L156.246 208.84C154.236 209.257 152.322 209.359 150.463 209.359H149.41ZM165.693 203.207C165.687 205.217 166.726 207.37 168.811 208.238L167.867 209.605C166.404 208.983 165.393 207.746 164.832 206.242C164.271 207.876 163.239 209.243 161.77 209.92L160.771 208.539C162.836 207.616 163.902 205.312 163.902 203.207V202.441H161.264V201.02H168.291V202.441H165.693V203.207ZM169.521 212.258V199.816H171.285V212.258H169.521ZM186.338 205.381V206.762H182.729V209.414H187.582V210.836H176.193V209.414H180.992V206.762H177.533V200.691H186.242V202.086H179.283V205.381H186.338ZM198.711 199.816V206.502H196.961V199.816H198.711ZM188.484 203.289C188.484 201.539 189.947 200.322 191.889 200.336C193.823 200.322 195.286 201.539 195.293 203.289C195.286 204.984 193.823 206.201 191.889 206.201C189.947 206.201 188.484 204.984 188.484 203.289ZM190.193 203.289C190.18 204.212 190.891 204.766 191.889 204.766C192.859 204.766 193.563 204.212 193.57 203.289C193.563 202.353 192.859 201.778 191.889 201.785C190.891 201.778 190.18 202.353 190.193 203.289ZM190.385 212.121V207.049H192.107V208.211H196.975V207.049H198.711V212.121H190.385ZM192.107 210.713H196.975V209.564H192.107V210.713ZM213.572 199.83V203.385H215.158V204.82H213.572V208.279H211.822V199.83H213.572ZM203.482 206.68C204.392 206.68 205.424 206.68 206.504 206.652V205.955C205.15 205.764 204.31 205.101 204.316 204.15C204.31 202.995 205.52 202.284 207.365 202.291C209.197 202.284 210.407 202.995 210.414 204.15C210.407 205.101 209.573 205.757 208.24 205.948V206.591C209.266 206.536 210.291 206.461 211.248 206.338L211.371 207.541C208.739 208.006 205.854 208.033 203.66 208.033L203.482 206.68ZM203.811 202.004V200.732H206.504V199.721H208.24V200.732H210.934V202.004H203.811ZM205.068 210.125V208.785H213.572V212.258H211.822V210.125H205.068ZM205.984 204.15C205.978 204.602 206.477 204.868 207.365 204.861C208.24 204.868 208.739 204.602 208.746 204.15C208.739 203.665 208.24 203.453 207.365 203.453C206.477 203.453 205.978 203.665 205.984 204.15ZM226.479 199.816V212.258H224.824V206.01H223.621V211.656H222.021V200.021H223.621V204.615H224.824V199.816H226.479ZM216.074 209.441V201.252H220.709V202.66H217.824V207.979C219.027 207.958 220.094 207.89 221.297 207.678L221.42 209.1C219.902 209.387 218.576 209.435 216.936 209.441H216.074ZM239.207 209.441V210.877H227.818V209.441H232.617V207.568H229.131V203.385H236.172V202.018H229.117V200.623H237.895V204.752H230.881V206.146H238.182V207.568H234.354V209.441H239.207ZM111.717 230.229V231.623H100.369V230.229H105.154V229.23C102.919 229.039 101.504 228.116 101.504 226.674C101.504 225.108 103.302 224.131 106.043 224.131C108.764 224.131 110.562 225.108 110.568 226.674C110.562 228.123 109.14 229.046 106.904 229.237V230.229H111.717ZM101.736 236.039V232.402H103.486V234.645H110.432V236.039H101.736ZM103.322 226.674C103.309 227.474 104.313 227.863 106.043 227.863C107.759 227.863 108.764 227.474 108.764 226.674C108.764 225.929 107.759 225.519 106.043 225.512C104.313 225.519 103.309 225.929 103.322 226.674ZM122.873 223.816V230.119H121.137V223.816H122.873ZM112.414 228.779C114.492 228.157 115.422 226.592 115.422 225.047V224.09H117.24V225.047C117.227 226.558 118.129 228 120.166 228.588L119.318 229.928C117.89 229.518 116.905 228.649 116.338 227.542C115.777 228.752 114.759 229.702 113.275 230.146L112.414 228.779ZM114.533 232.006V230.652H122.887V234.029H116.27V234.795H123.229V236.176H114.561V232.73H121.15V232.006H114.533ZM134.385 223.816V228.588H136.148V230.023H134.385V236.23H132.635V223.816H134.385ZM124.432 232.744C127.378 231.268 128.964 229.285 129.292 226.51H125.143V225.088H131.062C131.049 228.807 129.6 232.026 125.416 234.084L124.432 232.744ZM143.217 225.457C143.21 227.282 144.83 229.23 147.646 229.709L146.881 231.158C144.707 230.728 143.101 229.504 142.294 227.911C141.474 229.49 139.86 230.721 137.707 231.158L136.955 229.709C139.724 229.217 141.344 227.262 141.357 225.457V224.555H143.217V225.457ZM136.668 234.727V233.291H148.057V234.727H136.668ZM161.865 223.816V226.537H163.547V227.973H161.865V230.775H160.115V223.816H161.865ZM151.857 229.668C154.653 228.971 156.191 227.59 156.472 225.936H152.473V224.541H158.379C158.372 227.836 156.287 230.064 152.555 231.049L151.857 229.668ZM153.73 236.107V231.24H161.865V236.107H153.73ZM155.467 234.74H160.143V232.648H155.467V234.74ZM175.441 229.941V231.322H170.615V232.402H174.061V236.244H172.324V233.783H165.352V232.402H168.893V231.322H164.094V229.941H175.441ZM164.572 228.191C167.272 228.007 168.537 227.2 168.749 226.305H165.188V224.951H168.893V223.83H170.615V224.951H174.348V226.305H170.752C170.957 227.2 172.215 228.007 174.936 228.191L174.402 229.49C172.112 229.333 170.533 228.677 169.747 227.672C168.968 228.677 167.382 229.333 165.105 229.49L164.572 228.191Z" fill="white"/>
<rect y="280" width="339" height="132" rx="32" fill="#336BCD"/>
<g filter="url(#filter2_i_443_5504)">
<rect x="30" y="326" width="40" height="40" rx="12" fill="white"/>
</g>
<path d="M50.4688 352.156C47.9844 352.156 46.2031 350.789 46.1562 348.812H48.5312C48.5703 349.656 49.3906 350.211 50.4844 350.219C51.6094 350.211 52.4141 349.586 52.4062 348.672C52.4141 347.75 51.5938 347.102 50.2656 347.094H49.2188V345.359H50.2656C51.3828 345.359 52.1641 344.75 52.1562 343.859C52.1641 342.992 51.5 342.398 50.5 342.406C49.5 342.398 48.6797 342.961 48.6406 343.828H46.3906C46.4297 341.883 48.1797 340.531 50.5 340.531C52.8594 340.531 54.4297 341.93 54.4219 343.719C54.4297 344.984 53.5469 345.883 52.2812 346.109V346.203C53.9453 346.406 54.8594 347.414 54.8438 348.828C54.8594 350.766 53.0234 352.156 50.4688 352.156Z" fill="black"/>
<path d="M104.949 318.633C104.942 320.861 105.893 323.11 107.889 324.074L106.836 325.469C105.503 324.806 104.601 323.575 104.088 322.078C103.541 323.685 102.584 325.004 101.176 325.701L100.096 324.293C102.208 323.322 103.199 320.943 103.199 318.633V316.773H104.949V318.633ZM108.436 328.258V315.816H110.186V320.615H112.018V322.092H110.186V328.258H108.436ZM123.201 315.816V328.258H121.52V322.037H120.357V327.656H118.717V316.021H120.357V320.629H121.52V315.816H123.201ZM112.975 325.223V317.197H114.725V323.698C115.723 323.671 116.823 323.582 118.02 323.35L118.197 324.854C116.529 325.141 115.107 325.229 113.822 325.223H112.975ZM134.139 316.773V318.141H130.023V319.344H133.879V320.725H130.023V321.976C132.061 321.962 133.346 321.894 134.809 321.654L135 322.994C133.325 323.315 131.814 323.377 129.299 323.377H128.26V316.773H134.139ZM129.6 328.039V324.184H131.336V326.645H138.117V328.039H129.6ZM135.916 325.018V315.816H137.666V319.508H139.348V320.916H137.666V325.018H135.916ZM151.283 325.373V326.768H139.895V325.373H144.652V322.557H146.389V325.373H151.283ZM140.168 321.504C142.984 321.066 144.57 319.173 144.584 317.416V316.527H146.443V317.416C146.437 319.193 148.043 321.066 150.887 321.504L150.148 322.953C147.961 322.557 146.334 321.388 145.514 319.836C144.7 321.381 143.08 322.563 140.906 322.953L140.168 321.504ZM156.588 319.207C156.581 321.101 157.593 323.288 159.637 324.238L158.666 325.605C157.278 324.97 156.294 323.698 155.733 322.208C155.18 323.849 154.154 325.243 152.719 325.92L151.707 324.539C153.778 323.575 154.824 321.265 154.838 319.207V318.441H152.199V317.02H159.09V318.441H156.588V319.207ZM160.061 328.258V315.816H161.811V320.561H163.643V322.023H161.811V328.258H160.061ZM168.688 317.949C168.681 319.542 169.583 321.087 171.6 321.736L170.684 323.104C169.323 322.646 168.38 321.757 167.84 320.622C167.286 321.866 166.295 322.844 164.859 323.336L163.889 321.955C166.015 321.299 166.924 319.631 166.938 317.936V316.582H168.688V317.949ZM165.885 328.039V324.033H167.662V326.645H174.43V328.039H165.885ZM172.215 324.936V315.816H173.965V319.412H175.646V320.889H173.965V324.936H172.215ZM183.166 316.719V317.498C183.166 318.359 183.166 319.604 182.879 321.148L181.17 320.984C181.396 319.795 181.45 318.886 181.464 318.141H176.768V316.719H183.166ZM176.029 322.051C176.727 322.051 177.513 322.051 178.34 322.03V319.59H180.076V321.976C181.32 321.921 182.585 321.825 183.754 321.654L183.85 322.912C181.259 323.391 178.347 323.438 176.18 323.445L176.029 322.051ZM177.861 328.039V324.293H179.611V326.645H186.598V328.039H177.861ZM184.424 325.127V315.816H186.215V319.604H187.719V321.066H186.215V325.127H184.424ZM198.725 315.816V328.285H196.988V315.816H198.725ZM188.949 318.264V316.855H194.869V321.654H190.768V323.938C192.668 323.924 194.274 323.828 196.1 323.527L196.25 324.936C194.206 325.298 192.354 325.373 190.084 325.373H188.963V320.273H193.092V318.264H188.949ZM205.232 318.633C205.226 320.916 206.265 323.206 208.377 324.102L207.352 325.496C205.93 324.854 204.945 323.609 204.378 322.071C203.817 323.753 202.799 325.106 201.281 325.797L200.229 324.348C202.402 323.432 203.462 321.046 203.469 318.633V316.773H205.232V318.633ZM209.047 328.285V315.816H210.811V328.285H209.047ZM219.041 317.457C219.034 319.282 220.654 321.23 223.471 321.709L222.705 323.158C220.531 322.728 218.925 321.504 218.118 319.911C217.298 321.49 215.685 322.721 213.531 323.158L212.779 321.709C215.548 321.217 217.168 319.262 217.182 317.457V316.555H219.041V317.457ZM212.492 326.727V325.291H223.881V326.727H212.492ZM229.828 316.555V317.963H226.752V318.947H229.363V320.287H226.752V321.374C228.105 321.354 229.097 321.292 230.252 321.107L230.43 322.461C229.001 322.707 227.812 322.755 225.932 322.748H225.084V316.555H229.828ZM226.793 328.121V323.732H235.283V328.121H226.793ZM228.529 326.727H233.561V325.1H228.529V326.727ZM229.896 320.205V318.811H231.154V316.008H232.809V323.158H231.154V320.205H229.896ZM233.629 323.24V315.816H235.283V323.24H233.629ZM246.631 316.568V321.805H240.547V316.568H246.631ZM241.203 326.918C243.691 326.713 245.004 325.729 245.195 324.854H241.709V323.555H245.25V322.529H247V323.555H250.541V324.854H247.055C247.246 325.701 248.552 326.679 251.02 326.918L250.432 328.23C248.36 328.039 246.891 327.287 246.132 326.316C245.366 327.301 243.883 328.032 241.805 328.23L241.203 326.918ZM242.27 320.438H244.895V317.922H242.27V320.438ZM248.586 322.871V315.816H250.322V322.871H248.586ZM266.004 315.816V328.258H264.35V315.816H266.004ZM254.984 324.621C256.816 323.493 257.5 321.265 257.5 319.152V318.482H255.463V317.088H261.068V318.482H259.182V319.152C259.175 321.217 259.824 323.309 261.643 324.348L260.617 325.633C259.503 324.977 258.778 323.869 258.354 322.529C257.931 323.979 257.179 325.209 256.037 325.906L254.984 324.621ZM260.18 321.49V320.082H261.82V316.021H263.461V327.684H261.82V321.49H260.18ZM278.691 321.641V323.021H273.879V324.088H277.338V328.121H268.656V324.088H272.143V323.021H267.344V321.641H278.691ZM268.342 317.553V316.158H277.68V317.553H276.053V319.453H277.598V320.848H268.424V319.453H269.955V317.553H268.342ZM270.379 326.727H275.629V325.441H270.379V326.727ZM271.705 319.453H274.303V317.553H271.705V319.453ZM106.713 340.773V342.141H102.598V343.344H106.453V344.725H102.598V345.976C104.635 345.962 105.92 345.894 107.383 345.654L107.574 346.994C105.899 347.315 104.389 347.377 101.873 347.377H100.834V340.773H106.713ZM102.174 352.039V348.184H103.91V350.645H110.691V352.039H102.174ZM108.49 349.018V339.816H110.24V343.508H111.922V344.916H110.24V349.018H108.49ZM123.857 349.373V350.768H112.469V349.373H117.227V346.557H118.963V349.373H123.857ZM112.742 345.504C115.559 345.066 117.145 343.173 117.158 341.416V340.527H119.018V341.416C119.011 343.193 120.617 345.066 123.461 345.504L122.723 346.953C120.535 346.557 118.908 345.388 118.088 343.836C117.274 345.381 115.654 346.563 113.48 346.953L112.742 345.504ZM126.674 340.377V341.854H129.217V340.377H130.967V345.805H124.938V340.377H126.674ZM126.182 347.965V346.611H134.439V349.988H127.918V350.795H134.795V352.176H126.209V348.744H132.703V347.965H126.182ZM126.674 344.438H129.217V343.166H126.674V344.438ZM132.689 346.146V339.816H134.439V342.236H136.121V343.645H134.439V346.146H132.689ZM141.262 343.207C141.255 345.101 142.267 347.288 144.311 348.238L143.34 349.605C141.952 348.97 140.968 347.698 140.407 346.208C139.854 347.849 138.828 349.243 137.393 349.92L136.381 348.539C138.452 347.575 139.498 345.265 139.512 343.207V342.441H136.873V341.02H143.764V342.441H141.262V343.207ZM144.734 352.258V339.816H146.484V344.561H148.316V346.023H146.484V352.258H144.734ZM158.803 340.363V341.334C158.81 342.25 158.81 343.303 158.55 344.643H160.156V346.037H155.316V347.828H158.816V352.258H157.066V349.195H149.916V347.828H153.566V346.037H148.768V344.643H156.786C157.019 343.474 157.053 342.564 157.066 341.744H150.162V340.363H158.803ZM168.688 341.949C168.681 343.542 169.583 345.087 171.6 345.736L170.684 347.104C169.323 346.646 168.38 345.757 167.84 344.622C167.286 345.866 166.295 346.844 164.859 347.336L163.889 345.955C166.015 345.299 166.924 343.631 166.938 341.936V340.582H168.688V341.949ZM165.885 352.039V348.033H167.662V350.645H174.43V352.039H165.885ZM172.215 348.936V339.816H173.965V343.412H175.646V344.889H173.965V348.936H172.215ZM186.68 339.816V347.199H184.943V344.26H183.002V342.852H184.943V339.816H186.68ZM176.111 345.832C178.148 345.148 179.078 343.521 179.119 341.963H176.617V340.568H183.371V341.963H180.896C180.931 343.412 181.819 344.875 183.754 345.518L182.893 346.885C181.525 346.44 180.575 345.538 180.035 344.424C179.488 345.688 178.49 346.707 177.014 347.213L176.111 345.832ZM178.148 349.879C178.148 348.368 179.775 347.479 182.428 347.473C185.087 347.479 186.714 348.368 186.721 349.879C186.714 351.39 185.087 352.271 182.428 352.271C179.775 352.271 178.148 351.39 178.148 349.879ZM179.885 349.879C179.885 350.59 180.78 350.945 182.428 350.945C184.082 350.945 184.978 350.59 184.984 349.879C184.978 349.161 184.082 348.806 182.428 348.812C180.78 348.806 179.885 349.161 179.885 349.879ZM193.133 342.633C193.126 344.916 194.165 347.206 196.277 348.102L195.252 349.496C193.83 348.854 192.846 347.609 192.278 346.071C191.718 347.753 190.699 349.106 189.182 349.797L188.129 348.348C190.303 347.432 191.362 345.046 191.369 342.633V340.773H193.133V342.633ZM196.947 352.285V339.816H198.711V352.285H196.947ZM206.941 341.457C206.935 343.282 208.555 345.23 211.371 345.709L210.605 347.158C208.432 346.728 206.825 345.504 206.019 343.911C205.198 345.49 203.585 346.721 201.432 347.158L200.68 345.709C203.448 345.217 205.068 343.262 205.082 341.457V340.555H206.941V341.457ZM200.393 350.727V349.291H211.781V350.727H200.393ZM217.729 340.555V341.963H214.652V342.947H217.264V344.287H214.652V345.374C216.006 345.354 216.997 345.292 218.152 345.107L218.33 346.461C216.901 346.707 215.712 346.755 213.832 346.748H212.984V340.555H217.729ZM214.693 352.121V347.732H223.184V352.121H214.693ZM216.43 350.727H221.461V349.1H216.43V350.727ZM217.797 344.205V342.811H219.055V340.008H220.709V347.158H219.055V344.205H217.797ZM221.529 347.24V339.816H223.184V347.24H221.529ZM239.193 345.873V347.268H234.477V349.428H232.713V347.268H227.805V345.873H239.193ZM228.98 342.633C228.98 341.054 230.785 340.062 233.492 340.049C236.186 340.062 237.983 341.054 237.99 342.633C237.983 344.219 236.186 345.203 233.492 345.203C230.785 345.203 228.98 344.219 228.98 342.633ZM229.158 352.039V348.32H230.922V350.631H237.936V352.039H229.158ZM230.867 342.633C230.86 343.392 231.886 343.802 233.492 343.809C235.099 343.802 236.117 343.392 236.117 342.633C236.117 341.84 235.099 341.43 233.492 341.43C231.886 341.43 230.86 341.84 230.867 342.633ZM243.391 340.486C244.382 340.479 245.25 340.849 245.845 341.457H248.668V339.816H250.404V347.104H248.668V345.613H245.831C245.236 346.215 244.375 346.577 243.391 346.57C241.504 346.577 240.068 345.292 240.082 343.535C240.068 341.758 241.504 340.479 243.391 340.486ZM241.736 343.535C241.729 344.492 242.42 345.101 243.391 345.094C244.327 345.101 245.011 344.492 245.018 343.535C245.011 342.544 244.327 341.97 243.391 341.977C242.42 341.97 241.729 342.544 241.736 343.535ZM241.873 349.811C241.873 348.266 243.521 347.356 246.152 347.363C248.784 347.356 250.438 348.266 250.445 349.811C250.438 351.355 248.784 352.265 246.152 352.258C243.521 352.265 241.873 351.355 241.873 349.811ZM243.582 349.811C243.582 350.535 244.505 350.904 246.152 350.904C247.834 350.904 248.729 350.535 248.736 349.811C248.729 349.065 247.834 348.696 246.152 348.689C244.505 348.696 243.582 349.065 243.582 349.811ZM246.59 342.838C246.645 343.057 246.672 343.296 246.672 343.535C246.672 343.774 246.645 344 246.597 344.219H248.668V342.838H246.59ZM257.691 339.994C260.556 339.994 262.21 340.746 262.217 342.113C262.21 343.501 260.556 344.246 257.691 344.246C254.82 344.246 253.152 343.501 253.152 342.113C253.152 340.746 254.82 339.994 257.691 339.994ZM252.018 346.215V344.834H263.365V346.215H252.018ZM253.33 348.211V346.939H261.984V350.111H255.053V350.863H262.312V352.176H253.344V348.895H260.262V348.211H253.33ZM254.984 342.113C254.978 342.722 255.866 342.961 257.691 342.961C259.53 342.961 260.412 342.722 260.412 342.113C260.412 341.56 259.53 341.266 257.691 341.266C255.866 341.266 254.978 341.56 254.984 342.113ZM278.691 346.229V347.596H267.316V346.229H272.129V345.463H268.738V340.117H277.365V341.457H270.488V342.154H277.078V343.412H270.488V344.123H277.475V345.463H273.879V346.229H278.691ZM268.643 350.207C268.643 348.895 270.215 348.156 273.004 348.17C275.745 348.156 277.324 348.895 277.338 350.207C277.324 351.547 275.745 352.265 273.004 352.258C270.215 352.265 268.643 351.547 268.643 350.207ZM270.393 350.207C270.379 350.74 271.213 350.973 273.004 350.973C274.754 350.973 275.581 350.74 275.588 350.207C275.581 349.688 274.754 349.448 273.004 349.455C271.213 349.448 270.379 349.688 270.393 350.207ZM289.314 339.83V343.645H290.996V345.066H289.314V349.113H287.564V339.83H289.314ZM279.443 342.51V341.129H282.273V339.803H284.01V341.129H286.826V342.51H279.443ZM280.045 345.354C280.045 343.911 281.323 342.947 283.135 342.947C284.939 342.947 286.197 343.911 286.197 345.354C286.197 346.789 284.939 347.732 283.135 347.732C281.323 347.732 280.045 346.789 280.045 345.354ZM281.248 352.039V348.402H282.984V350.645H289.766V352.039H281.248ZM281.754 345.354C281.747 346.037 282.301 346.406 283.135 346.406C283.976 346.406 284.543 346.037 284.543 345.354C284.543 344.663 283.976 344.28 283.135 344.273C282.301 344.28 281.747 344.663 281.754 345.354ZM111.211 365.402V366.797H100.861V365.402H105.168V363.953H106.891V365.402H111.211ZM100.369 375.014V373.619H103.09V371.568C102.242 371.158 101.771 370.529 101.777 369.709C101.764 368.191 103.397 367.303 106.029 367.303C108.641 367.303 110.274 368.191 110.268 369.709C110.274 370.529 109.796 371.158 108.955 371.568V373.619H111.758V375.014H100.369ZM103.568 369.709C103.562 370.406 104.416 370.755 106.029 370.748C107.608 370.755 108.477 370.406 108.477 369.709C108.477 368.998 107.608 368.643 106.029 368.643C104.416 368.643 103.562 368.998 103.568 369.709ZM104.84 373.619H107.232V372.033C106.856 372.081 106.46 372.102 106.029 372.102C105.605 372.102 105.209 372.081 104.84 372.033V373.619ZM118.143 363.926C121.007 363.926 122.661 364.678 122.668 366.059C122.661 367.433 121.007 368.178 118.143 368.178C115.271 368.178 113.604 367.433 113.604 366.059C113.604 364.678 115.271 363.926 118.143 363.926ZM112.469 370.064V368.697H123.816V370.064H120.973V370.939H122.436V374.111H115.504V374.863H122.764V376.176H113.795V372.895H120.713V372.211H113.781V370.939H115.326V370.064H112.469ZM115.436 366.059C115.429 366.653 116.317 366.899 118.143 366.906C119.981 366.899 120.863 366.653 120.863 366.059C120.863 365.491 119.981 365.211 118.143 365.211C116.317 365.211 115.429 365.491 115.436 366.059ZM117.049 370.939H119.236V370.064H117.049V370.939ZM131.746 364.514V365.895H129.271C129.278 367.357 130.167 368.868 132.129 369.518L131.268 370.857C129.894 370.427 128.943 369.524 128.403 368.41C127.85 369.647 126.858 370.646 125.389 371.117L124.5 369.736C126.551 369.087 127.48 367.439 127.494 365.895H124.992V364.514H131.746ZM126.51 373.168V371.773H135.055V376.258H133.318V373.168H126.51ZM131.391 368.232V366.811H133.318V363.816H135.055V371.227H133.318V368.232H131.391ZM151.242 370.229V371.623H139.895V370.229H144.68V369.23C142.444 369.039 141.029 368.116 141.029 366.674C141.029 365.108 142.827 364.131 145.568 364.131C148.289 364.131 150.087 365.108 150.094 366.674C150.087 368.123 148.665 369.046 146.43 369.237V370.229H151.242ZM141.262 376.039V372.402H143.012V374.645H149.957V376.039H141.262ZM142.848 366.674C142.834 367.474 143.839 367.863 145.568 367.863C147.284 367.863 148.289 367.474 148.289 366.674C148.289 365.929 147.284 365.519 145.568 365.512C143.839 365.519 142.834 365.929 142.848 366.674ZM162.398 363.816V370.119H160.662V363.816H162.398ZM151.939 368.779C154.018 368.157 154.947 366.592 154.947 365.047V364.09H156.766V365.047C156.752 366.558 157.654 368 159.691 368.588L158.844 369.928C157.415 369.518 156.431 368.649 155.863 367.542C155.303 368.752 154.284 369.702 152.801 370.146L151.939 368.779ZM154.059 372.006V370.652H162.412V374.029H155.795V374.795H162.754V376.176H154.086V372.73H160.676V372.006H154.059ZM173.91 363.816V368.588H175.674V370.023H173.91V376.23H172.16V363.816H173.91ZM163.957 372.744C166.903 371.268 168.489 369.285 168.817 366.51H164.668V365.088H170.588C170.574 368.807 169.125 372.026 164.941 374.084L163.957 372.744ZM182.742 365.457C182.735 367.282 184.355 369.23 187.172 369.709L186.406 371.158C184.232 370.728 182.626 369.504 181.819 367.911C180.999 369.49 179.386 370.721 177.232 371.158L176.48 369.709C179.249 369.217 180.869 367.262 180.883 365.457V364.555H182.742V365.457ZM176.193 374.727V373.291H187.582V374.727H176.193ZM198.492 364.719V365.498C198.492 366.359 198.492 367.604 198.205 369.148L196.496 368.984C196.722 367.795 196.776 366.886 196.79 366.141H192.094V364.719H198.492ZM191.355 370.051C192.053 370.051 192.839 370.051 193.666 370.03V367.59H195.402V369.976C196.646 369.921 197.911 369.825 199.08 369.654L199.176 370.912C196.585 371.391 193.673 371.438 191.506 371.445L191.355 370.051ZM193.188 376.039V372.293H194.938V374.645H201.924V376.039H193.188ZM199.75 373.127V363.816H201.541V367.604H203.045V369.066H201.541V373.127H199.75ZM214.051 363.816V376.285H212.314V363.816H214.051ZM204.275 366.264V364.855H210.195V369.654H206.094V371.938C207.994 371.924 209.601 371.828 211.426 371.527L211.576 372.936C209.532 373.298 207.68 373.373 205.41 373.373H204.289V368.273H208.418V366.264H204.275Z" fill="white"/>
<rect y="420" width="339" height="132" rx="32" fill="#2057B1"/>
<g filter="url(#filter3_i_443_5504)">
<rect x="30" y="466" width="40" height="40" rx="12" fill="white"/>
</g>
<path d="M45.9453 490V488.141L50.7266 480.688H53.6797V488.109H55.1172V490H53.6797V492H51.4453V490H45.9453ZM48.3203 488.109H51.4766V483.266H51.3672L48.3203 488.016V488.109Z" fill="black"/>
<path d="M110.828 455.816V468.258H109.064V455.816H110.828ZM100.41 464.73C103.623 463.213 105.038 461.244 105.318 458.482H101.08V457.115H107.096C107.089 460.889 105.77 464.026 101.326 466.125L100.41 464.73ZM123.229 457.102V458.51H113.016V457.102H117.268V455.803H119.004V457.102H123.229ZM112.469 465.277V463.855H123.857V465.277H119.004V468.271H117.268V465.277H112.469ZM113.85 461.121C113.843 459.74 115.449 458.988 118.143 458.988C120.815 458.988 122.429 459.74 122.436 461.121C122.429 462.495 120.815 463.247 118.143 463.254C115.449 463.247 113.843 462.495 113.85 461.121ZM115.654 461.121C115.654 461.688 116.475 461.955 118.143 461.955C119.79 461.955 120.617 461.688 120.617 461.121C120.617 460.554 119.79 460.28 118.143 460.273C116.475 460.28 115.654 460.554 115.654 461.121ZM135.055 455.83V465.004H133.318V461.969H131.021V463.035H125.102V456.637H126.852V458.551H129.299V456.637H131.021V457.908H133.318V455.83H135.055ZM126.77 468.039V464.088H128.533V466.645H135.314V468.039H126.77ZM126.852 461.668H129.299V459.877H126.852V461.668ZM131.021 460.574H133.318V459.316H131.021V460.574ZM146.621 455.816V460.875H148.248V462.324H146.621V468.258H144.857V455.816H146.621ZM136.518 464.744C137.427 464.744 138.486 464.744 139.594 464.717V463.65C138.274 463.391 137.413 462.55 137.42 461.395C137.413 460.007 138.671 459.057 140.482 459.057C142.26 459.057 143.531 460.007 143.545 461.395C143.531 462.55 142.656 463.397 141.344 463.65V464.655C142.328 464.601 143.319 464.519 144.242 464.389L144.352 465.66C141.706 466.152 138.849 466.173 136.75 466.166L136.518 464.744ZM136.764 458.564V457.197H139.594V455.885H141.344V457.197H144.146V458.564H136.764ZM139.074 461.395C139.067 462.051 139.628 462.406 140.482 462.406C141.31 462.406 141.863 462.051 141.863 461.395C141.863 460.752 141.31 460.39 140.482 460.383C139.628 460.39 139.067 460.752 139.074 461.395ZM156.055 456.336C157.955 456.322 159.336 457.409 159.336 458.975C159.336 460.526 157.955 461.627 156.055 461.613C154.161 461.627 152.78 460.526 152.787 458.975C152.78 457.409 154.161 456.322 156.055 456.336ZM152.021 462.379C154.229 462.372 157.354 462.331 160.006 461.928L160.115 463.213C159.09 463.418 158.037 463.548 156.998 463.63V467.889H155.262V463.732C154.168 463.78 153.136 463.787 152.24 463.801L152.021 462.379ZM154.469 458.975C154.462 459.754 155.125 460.205 156.055 460.191C157.012 460.205 157.682 459.754 157.682 458.975C157.682 458.182 157.012 457.724 156.055 457.73C155.125 457.724 154.462 458.182 154.469 458.975ZM160.758 468.258V455.83H162.48V468.258H160.758ZM174.553 455.816V468.258H172.789V455.816H174.553ZM164.135 464.73C167.348 463.213 168.763 461.244 169.043 458.482H164.805V457.115H170.82C170.813 460.889 169.494 464.026 165.051 466.125L164.135 464.73ZM186.133 456.568V461.805H180.049V456.568H186.133ZM180.705 466.918C183.193 466.713 184.506 465.729 184.697 464.854H181.211V463.555H184.752V462.529H186.502V463.555H190.043V464.854H186.557C186.748 465.701 188.054 466.679 190.521 466.918L189.934 468.23C187.862 468.039 186.393 467.287 185.634 466.316C184.868 467.301 183.385 468.032 181.307 468.23L180.705 466.918ZM181.771 460.438H184.396V457.922H181.771V460.438ZM188.088 462.871V455.816H189.824V462.871H188.088ZM110.828 479.816V492.258H109.064V479.816H110.828ZM100.41 488.73C103.623 487.213 105.038 485.244 105.318 482.482H101.08V481.115H107.096C107.089 484.889 105.77 488.026 101.326 490.125L100.41 488.73ZM122.928 479.816V492.258H121.191V479.816H122.928ZM112.523 488.744C113.474 488.737 114.561 488.737 115.695 488.71V487.657C114.335 487.411 113.446 486.563 113.453 485.395C113.446 484.007 114.711 483.057 116.543 483.057C118.389 483.057 119.674 484.007 119.674 485.395C119.674 486.557 118.785 487.404 117.418 487.657V488.648C118.464 488.601 119.51 488.519 120.508 488.389L120.631 489.674C117.903 490.146 114.971 490.173 112.756 490.166L112.523 488.744ZM112.77 482.564V481.197H115.695V479.871H117.432V481.197H120.33V482.564H112.77ZM115.107 485.395C115.101 486.051 115.695 486.406 116.543 486.406C117.418 486.406 118.006 486.051 118.006 485.395C118.006 484.752 117.418 484.39 116.543 484.383C115.695 484.39 115.101 484.752 115.107 485.395ZM132.566 481.58C132.553 483.132 133.441 484.643 135.492 485.258L134.617 486.625C133.202 486.174 132.218 485.285 131.664 484.15C131.104 485.374 130.092 486.345 128.629 486.816L127.754 485.449C129.832 484.786 130.748 483.166 130.748 481.58V480.391H132.566V481.58ZM129.654 489.168V487.773H138.213V492.258H136.463V489.168H129.654ZM136.463 487.24V479.816H138.213V487.24H136.463ZM150.381 479.816V486.215H148.645V484.971H146.348V485.859H140.428V480.35H142.178V481.799H144.625V480.35H146.348V481.402H148.645V479.816H150.381ZM142.096 488.02V486.68H150.381V490.002H143.859V490.754H150.75V492.121H142.109V488.73H148.645V488.02H142.096ZM142.178 484.492H144.625V483.125H142.178V484.492ZM146.348 483.658H148.645V482.701H146.348V483.658ZM166.609 489.359V490.809H155.221V489.359H166.609ZM156.109 482.305V480.91H165.652V482.305H163.902V486.078H165.598V487.445H156.164V486.078H157.832V482.305H156.109ZM159.582 486.078H162.18V482.305H159.582V486.078ZM178.709 489.441V490.877H167.32V489.441H172.119V487.568H168.633V483.385H175.674V482.018H168.619V480.623H177.396V484.752H170.383V486.146H177.684V487.568H173.855V489.441H178.709ZM183.412 482.947C183.405 484.964 183.966 487.042 185.668 488.129L184.725 489.482C183.645 488.833 182.968 487.753 182.571 486.481C182.127 487.89 181.382 489.072 180.254 489.756L179.188 488.471C181.033 487.329 181.717 485.135 181.717 483.029V480.883H183.412V482.947ZM184.355 485.436V484.014H185.969V479.994H187.596V491.684H185.969V485.436H184.355ZM188.539 492.258V479.816H190.207V492.258H188.539ZM198.068 481.457C198.062 483.282 199.682 485.23 202.498 485.709L201.732 487.158C199.559 486.728 197.952 485.504 197.146 483.911C196.325 485.49 194.712 486.721 192.559 487.158L191.807 485.709C194.575 485.217 196.195 483.262 196.209 481.457V480.555H198.068V481.457ZM191.52 490.727V489.291H202.908V490.727H191.52ZM216.867 480.541V481.662C216.86 482.824 216.86 484.089 216.546 485.832H218.193V487.24H213.34V492.271H211.59V487.24H206.846V485.832H214.775C215.097 484.232 215.124 483.009 215.131 481.936H208.145V480.541H216.867ZM230.293 485.941V487.322H225.467V488.402H228.912V492.244H227.176V489.783H220.203V488.402H223.744V487.322H218.945V485.941H230.293ZM219.424 484.191C222.124 484.007 223.389 483.2 223.601 482.305H220.039V480.951H223.744V479.83H225.467V480.951H229.199V482.305H225.604C225.809 483.2 227.066 484.007 229.787 484.191L229.254 485.49C226.964 485.333 225.385 484.677 224.599 483.672C223.819 484.677 222.233 485.333 219.957 485.49L219.424 484.191ZM236.719 479.994C239.583 479.994 241.237 480.746 241.244 482.113C241.237 483.501 239.583 484.246 236.719 484.246C233.848 484.246 232.18 483.501 232.18 482.113C232.18 480.746 233.848 479.994 236.719 479.994ZM231.045 486.215V484.834H242.393V486.215H231.045ZM232.357 488.211V486.939H241.012V490.111H234.08V490.863H241.34V492.176H232.371V488.895H239.289V488.211H232.357ZM234.012 482.113C234.005 482.722 234.894 482.961 236.719 482.961C238.558 482.961 239.439 482.722 239.439 482.113C239.439 481.56 238.558 481.266 236.719 481.266C234.894 481.266 234.005 481.56 234.012 482.113ZM257.719 486.229V487.596H246.344V486.229H251.156V485.463H247.766V480.117H256.393V481.457H249.516V482.154H256.105V483.412H249.516V484.123H256.502V485.463H252.906V486.229H257.719ZM247.67 490.207C247.67 488.895 249.242 488.156 252.031 488.17C254.772 488.156 256.352 488.895 256.365 490.207C256.352 491.547 254.772 492.265 252.031 492.258C249.242 492.265 247.67 491.547 247.67 490.207ZM249.42 490.207C249.406 490.74 250.24 490.973 252.031 490.973C253.781 490.973 254.608 490.74 254.615 490.207C254.608 489.688 253.781 489.448 252.031 489.455C250.24 489.448 249.406 489.688 249.42 490.207ZM264.473 481.717V483.098H258.457V481.717H260.617V480.158H262.34V481.717H264.473ZM258.744 486.611C258.744 484.882 259.906 483.665 261.492 483.658C263.085 483.665 264.22 484.882 264.227 486.611C264.22 488.348 263.085 489.578 261.492 489.578C259.906 489.578 258.744 488.348 258.744 486.611ZM260.275 486.611C260.275 487.562 260.768 488.102 261.492 488.102C262.189 488.102 262.688 487.562 262.695 486.611C262.688 485.675 262.189 485.107 261.492 485.107C260.768 485.107 260.275 485.675 260.275 486.611ZM264.938 491.725V480.062H266.564V484.875H267.576V479.816H269.23V492.258H267.576V486.27H266.564V491.725H264.938ZM110.801 503.816V516.285H109.064V503.816H110.801ZM101.025 506.264V504.855H106.945V509.654H102.844V511.938C104.744 511.924 106.351 511.828 108.176 511.527L108.326 512.936C106.282 513.298 104.43 513.373 102.16 513.373H101.039V508.273H105.168V506.264H101.025ZM119.018 505.457C119.011 507.282 120.631 509.23 123.447 509.709L122.682 511.158C120.508 510.728 118.901 509.504 118.095 507.911C117.274 509.49 115.661 510.721 113.508 511.158L112.756 509.709C115.524 509.217 117.145 507.262 117.158 505.457V504.555H119.018V505.457ZM112.469 514.727V513.291H123.857V514.727H112.469ZM134.754 504.91V506.359C134.747 508.171 134.747 509.894 134.18 512.594L132.443 512.43C132.689 511.397 132.833 510.481 132.922 509.641L125.703 509.996L125.484 508.602L133.011 508.328C133.038 507.645 133.045 507.002 133.045 506.359V506.305H125.867V504.91H134.754ZM124.568 514.768V513.346H135.916V514.768H124.568ZM150.682 503.816V516.258H149.014V503.816H150.682ZM139.881 507.084V505.703H141.986V504.117H143.723V505.703H145.801V507.084H139.881ZM140.154 510.611C140.147 508.889 141.282 507.658 142.807 507.658C144.365 507.658 145.486 508.889 145.486 510.611C145.486 512.354 144.365 513.578 142.807 513.578C141.282 513.578 140.147 512.354 140.154 510.611ZM141.672 510.611C141.665 511.568 142.123 512.129 142.807 512.129C143.504 512.129 143.976 511.568 143.982 510.611C143.976 509.675 143.504 509.107 142.807 509.107C142.123 509.107 141.665 509.675 141.672 510.611ZM145.514 509.832V508.41H146.553V504.021H148.193V515.711H146.553V509.832H145.514ZM156.82 507.207C156.813 509.217 157.853 511.37 159.938 512.238L158.994 513.605C157.531 512.983 156.52 511.746 155.959 510.242C155.398 511.876 154.366 513.243 152.896 513.92L151.898 512.539C153.963 511.616 155.029 509.312 155.029 507.207V506.441H152.391V505.02H159.418V506.441H156.82V507.207ZM160.648 516.258V503.816H162.412V516.258H160.648ZM174.033 504.568V509.805H167.949V504.568H174.033ZM168.605 514.918C171.094 514.713 172.406 513.729 172.598 512.854H169.111V511.555H172.652V510.529H174.402V511.555H177.943V512.854H174.457C174.648 513.701 175.954 514.679 178.422 514.918L177.834 516.23C175.763 516.039 174.293 515.287 173.534 514.316C172.769 515.301 171.285 516.032 169.207 516.23L168.605 514.918ZM169.672 508.438H172.297V505.922H169.672V508.438ZM175.988 510.871V503.816H177.725V510.871H175.988ZM193.105 503.816V516.258H191.342V503.816H193.105ZM182.688 512.73C185.9 511.213 187.315 509.244 187.596 506.482H183.357V505.115H189.373C189.366 508.889 188.047 512.026 183.604 514.125L182.688 512.73ZM205.205 503.816V516.258H203.469V503.816H205.205ZM194.801 512.744C195.751 512.737 196.838 512.737 197.973 512.71V511.657C196.612 511.411 195.724 510.563 195.73 509.395C195.724 508.007 196.988 507.057 198.82 507.057C200.666 507.057 201.951 508.007 201.951 509.395C201.951 510.557 201.062 511.404 199.695 511.657V512.648C200.741 512.601 201.787 512.519 202.785 512.389L202.908 513.674C200.181 514.146 197.248 514.173 195.033 514.166L194.801 512.744ZM195.047 506.564V505.197H197.973V503.871H199.709V505.197H202.607V506.564H195.047ZM197.385 509.395C197.378 510.051 197.973 510.406 198.82 510.406C199.695 510.406 200.283 510.051 200.283 509.395C200.283 508.752 199.695 508.39 198.82 508.383C197.973 508.39 197.378 508.752 197.385 509.395ZM212.178 504.377V505.854H214.721V504.377H216.471V509.805H210.441V504.377H212.178ZM211.686 511.965V510.611H219.943V513.988H213.422V514.795H220.299V516.176H211.713V512.744H218.207V511.965H211.686ZM212.178 508.438H214.721V507.166H212.178V508.438ZM218.193 510.146V503.816H219.943V506.236H221.625V507.645H219.943V510.146H218.193ZM232.207 504.295V505.143C232.214 505.908 232.214 506.906 231.981 508.109H233.561V509.463H228.707V510.639H232.152V513.975H225.207V514.822H232.494V516.162H223.471V512.785H230.43V511.992H223.457V510.639H226.971V509.463H222.172V508.109H230.225C230.416 507.118 230.457 506.346 230.464 505.662H223.566V504.295H232.207Z" fill="white"/>
<defs>
<filter id="filter0_i_443_5504" x="30" y="46" width="42" height="43" filterUnits="userSpaceOnUse" color-interpolation-filters="sRGB">
<feFlood flood-opacity="0" result="BackgroundImageFix"/>
<feBlend mode="normal" in="SourceGraphic" in2="BackgroundImageFix" result="shape"/>
<feColorMatrix in="SourceAlpha" type="matrix" values="0 0 0 0 0 0 0 0 0 0 0 0 0 0 0 0 0 0 127 0" result="hardAlpha"/>
<feOffset dx="2" dy="3"/>
<feGaussianBlur stdDeviation="2"/>
<feComposite in2="hardAlpha" operator="arithmetic" k2="-1" k3="1"/>
<feColorMatrix type="matrix" values="0 0 0 0 0 0 0 0 0 0 0 0 0 0 0 0 0 0 0.25 0"/>
<feBlend mode="normal" in2="shape" result="effect1_innerShadow_443_5504"/>
</filter>
<filter id="filter1_i_443_5504" x="30" y="186" width="42" height="43" filterUnits="userSpaceOnUse" color-interpolation-filters="sRGB">
<feFlood flood-opacity="0" result="BackgroundImageFix"/>
<feBlend mode="normal" in="SourceGraphic" in2="BackgroundImageFix" result="shape"/>
<feColorMatrix in="SourceAlpha" type="matrix" values="0 0 0 0 0 0 0 0 0 0 0 0 0 0 0 0 0 0 127 0" result="hardAlpha"/>
<feOffset dx="2" dy="3"/>
<feGaussianBlur stdDeviation="2"/>
<feComposite in2="hardAlpha" operator="arithmetic" k2="-1" k3="1"/>
<feColorMatrix type="matrix" values="0 0 0 0 0 0 0 0 0 0 0 0 0 0 0 0 0 0 0.25 0"/>
<feBlend mode="normal" in2="shape" result="effect1_innerShadow_443_5504"/>
</filter>
<filter id="filter2_i_443_5504" x="30" y="326" width="42" height="43" filterUnits="userSpaceOnUse" color-interpolation-filters="sRGB">
<feFlood flood-opacity="0" result="BackgroundImageFix"/>
<feBlend mode="normal" in="SourceGraphic" in2="BackgroundImageFix" result="shape"/>
<feColorMatrix in="SourceAlpha" type="matrix" values="0 0 0 0 0 0 0 0 0 0 0 0 0 0 0 0 0 0 127 0" result="hardAlpha"/>
<feOffset dx="2" dy="3"/>
<feGaussianBlur stdDeviation="2"/>
<feComposite in2="hardAlpha" operator="arithmetic" k2="-1" k3="1"/>
<feColorMatrix type="matrix" values="0 0 0 0 0 0 0 0 0 0 0 0 0 0 0 0 0 0 0.25 0"/>
<feBlend mode="normal" in2="shape" result="effect1_innerShadow_443_5504"/>
</filter>
<filter id="filter3_i_443_5504" x="30" y="466" width="42" height="43" filterUnits="userSpaceOnUse" color-interpolation-filters="sRGB">
<feFlood flood-opacity="0" result="BackgroundImageFix"/>
<feBlend mode="normal" in="SourceGraphic" in2="BackgroundImageFix" result="shape"/>
<feColorMatrix in="SourceAlpha" type="matrix" values="0 0 0 0 0 0 0 0 0 0 0 0 0 0 0 0 0 0 127 0" result="hardAlpha"/>
<feOffset dx="2" dy="3"/>
<feGaussianBlur stdDeviation="2"/>
<feComposite in2="hardAlpha" operator="arithmetic" k2="-1" k3="1"/>
<feColorMatrix type="matrix" values="0 0 0 0 0 0 0 0 0 0 0 0 0 0 0 0 0 0 0.25 0"/>
<feBlend mode="normal" in2="shape" result="effect1_innerShadow_443_5504"/>
</filter>
</defs>
</svg>
