<svg width="1300" height="142" viewBox="0 0 1300 142" fill="none" xmlns="http://www.w3.org/2000/svg">
<rect width="180" height="84" rx="8" fill="#6485C6"/>
<path d="M46.4211 34.984V39.528H47.9091V35.08L49.9251 34.76V49.08L47.9091 49.4V41.144H46.4211V48.616L44.4211 48.936V35.304L46.4211 34.984ZM40.2771 35.672V43.784H40.9651C41.8131 43.784 43.1731 43.656 43.9411 43.464V45.064C43.1731 45.24 41.8771 45.4 40.6931 45.4H38.2291V35.672H40.2771ZM60.4876 39.256C60.4876 41 59.3196 42.104 57.8156 42.472V44.6C59.4636 44.552 60.6476 44.376 61.5436 44.216V45.816C59.2556 46.12 56.8076 46.216 54.3436 46.216H52.2316V44.616H55.5756V42.52C53.9596 42.2 52.7116 41.08 52.7116 39.256V38.76C52.7116 36.568 54.5356 35.4 56.5996 35.4C58.6636 35.4 60.4876 36.568 60.4876 38.76V39.256ZM62.1356 35.08L64.2956 34.76V49.08L62.1356 49.4V35.08ZM58.3276 39.256V38.76C58.3276 37.64 57.5756 37 56.5996 37C55.6236 37 54.8716 37.64 54.8716 38.76V39.256C54.8716 40.376 55.6236 41.016 56.5996 41.016C57.5756 41.016 58.3276 40.376 58.3276 39.256ZM70.6341 37.096H75.8661V35.144H78.0741V41.512L75.8661 41.912H68.4101V35.144H70.6341V37.096ZM80.2021 43.224L79.8821 44.808H74.4901V49.208L72.2501 49.528V44.808H66.3301V43.224H80.2021ZM70.6341 40.312H75.8661V38.696H70.6341V40.312ZM94.4009 43.848C96.1449 43.848 97.7289 44.552 97.7289 46.712C97.7289 48.888 96.1449 49.592 94.4009 49.592H90.9769C89.1689 49.592 87.5529 48.888 87.5529 46.712C87.5529 44.552 89.1689 43.848 90.9769 43.848H94.4009ZM90.9609 35.064V37.816C90.9609 38.152 91.0249 38.52 91.2489 38.76C92.2409 39.864 93.3129 40.92 94.4329 41.864L93.1529 43.096C92.0169 42.184 90.8329 41.16 89.8569 40.088C88.8809 41.208 87.5689 42.456 86.4009 43.448L85.0569 42.28C86.1769 41.272 87.3609 40.168 88.3369 38.888C88.5449 38.616 88.6889 38.248 88.6889 37.912V35.384L90.9609 35.064ZM97.5209 34.76V38.6H99.8249L99.5049 40.216H97.5209V43.272L95.3289 43.592V35.08L97.5209 34.76ZM94.1929 45.432H91.1529C90.2889 45.432 89.6969 45.784 89.6969 46.712C89.6969 47.656 90.2889 48.008 91.1529 48.008H94.1929C94.9929 48.008 95.5849 47.656 95.5849 46.712C95.5849 45.784 94.9929 45.432 94.1929 45.432ZM108.787 44.472C110.579 44.472 112.195 45.096 112.195 47.08C112.195 49.064 110.579 49.688 108.787 49.688H105.251C103.459 49.688 101.843 49.064 101.843 47.08C101.843 45.096 103.459 44.472 105.251 44.472H108.787ZM101.203 39.288C101.203 37.88 102.803 37.144 104.803 37.144C106.803 37.144 108.403 37.88 108.403 39.288V39.544C108.403 40.68 107.379 41.4 105.939 41.64V42.248C107.075 42.2 108.291 42.088 109.315 41.912V43.464C107.043 43.784 104.579 43.88 102.115 43.88H100.179V42.312H103.699V41.656C102.243 41.416 101.203 40.68 101.203 39.544V39.288ZM112.083 34.76V38.6H114.291L113.971 40.216H112.083V43.896L109.875 44.216V35.08L112.083 34.76ZM108.739 36.84H100.707V35.368H103.763V34.52L105.971 34.2V35.368H109.059L108.739 36.84ZM108.723 46.04H105.331C104.611 46.04 103.971 46.328 103.971 47.08C103.971 47.832 104.611 48.12 105.331 48.12H108.723C109.443 48.12 110.067 47.832 110.067 47.08C110.067 46.328 109.443 46.04 108.723 46.04ZM106.323 39.352C106.323 38.888 105.763 38.616 104.803 38.616C103.843 38.616 103.283 38.888 103.283 39.352V39.48C103.283 39.944 103.843 40.264 104.803 40.264C105.763 40.264 106.323 39.944 106.323 39.48V39.352ZM117.318 45.464H114.662V43.944H116.134L116.054 37.912H118.262L118.342 43.944L119.958 43.912L120.022 37.912H122.182L122.102 43.784C122.758 43.752 123.382 43.688 123.878 43.592V45.192C122.278 45.368 119.398 45.464 117.318 45.464ZM126.598 34.76V39.432H128.902L128.582 41.224H126.598V49.08L124.406 49.4V35.08L126.598 34.76ZM123.238 37.352H114.934V35.768H123.238V37.352ZM137.064 38.488V39.304C137.064 41.448 135.272 42.6 133.256 42.6C131.24 42.6 129.448 41.448 129.448 39.304V38.488C129.448 36.344 131.24 35.192 133.256 35.192C135.272 35.192 137.064 36.344 137.064 38.488ZM131.624 44.152H141.208V49.368L138.968 49.688V45.72H131.624V44.152ZM141.208 34.76V38.104H143.512L143.192 39.784H141.208V43.272L139 43.592V35.08L141.208 34.76ZM134.904 39.24V38.552C134.904 37.432 134.184 36.792 133.256 36.792C132.328 36.792 131.608 37.432 131.608 38.552V39.24C131.608 40.36 132.328 41 133.256 41C134.184 41 134.904 40.36 134.904 39.24Z" fill="white"/>
<path d="M50.8301 99.9121V112.162H49.5859V105.887H48.0137V111.533H46.7969V100.158H48.0137V104.82H49.5859V99.9121H50.8301ZM40.918 109.045V101.361H42.2168V107.903C43.3447 107.89 44.582 107.801 45.9766 107.527L46.1133 108.662C44.4316 108.963 43.0303 109.052 41.7109 109.045H40.918ZM56.4355 100.691C58.3701 100.691 59.7646 101.881 59.7715 103.604C59.7646 105.128 58.6709 106.235 57.0781 106.468V108.402C58.2334 108.348 59.4092 108.245 60.5098 108.088L60.6055 109.031C57.8369 109.544 54.8633 109.558 52.6758 109.564L52.5117 108.498C53.4756 108.498 54.5967 108.491 55.7793 108.457V106.468C54.1934 106.229 53.0928 105.121 53.0996 103.604C53.0928 101.881 54.5078 100.691 56.4355 100.691ZM54.3848 103.604C54.3711 104.677 55.2461 105.408 56.4355 105.395C57.625 105.408 58.5 104.677 58.5 103.604C58.5 102.51 57.625 101.812 56.4355 101.812C55.2461 101.812 54.3711 102.51 54.3848 103.604ZM61.2754 112.189V99.9121H62.5742V112.189H61.2754ZM75.7402 107.117V108.143H70.7363V112.162H69.4648V108.143H64.5293V107.117H75.7402ZM65.9238 105.723V100.404H67.209V102.004H73.0332V100.404H74.332V105.723H65.9238ZM67.209 104.684H73.0332V103.043H67.209V104.684ZM90.2051 99.9121V112.189H88.9062V99.9121H90.2051ZM80.4844 105.121C80.4844 102.503 81.8037 100.835 83.6562 100.828C85.4746 100.835 86.8145 102.503 86.8145 105.121C86.8145 107.767 85.4746 109.435 83.6562 109.428C81.8037 109.435 80.4844 107.767 80.4844 105.121ZM81.7422 105.121C81.7354 107.069 82.5146 108.266 83.6562 108.266C84.7773 108.266 85.5566 107.069 85.5566 105.121C85.5566 103.2 84.7773 101.997 83.6562 101.99C82.5146 101.997 81.7354 103.2 81.7422 105.121ZM98.2168 101.936V102.988H92.1328V101.936H94.5391V100.268H95.8242V101.936H98.2168ZM92.5293 106.543C92.5225 104.896 93.6436 103.727 95.1816 103.727C96.7334 103.727 97.8408 104.896 97.8477 106.543C97.8408 108.218 96.7334 109.394 95.1816 109.387C93.6436 109.394 92.5225 108.218 92.5293 106.543ZM93.6777 106.543C93.6709 107.582 94.2998 108.279 95.1816 108.279C96.0635 108.279 96.6992 107.582 96.6992 106.543C96.6992 105.524 96.0635 104.813 95.1816 104.807C94.2998 104.813 93.6709 105.524 93.6777 106.543ZM98.7773 111.588V100.186H100.008V105.012H101.416V99.9121H102.646V112.162H101.416V106.078H100.008V111.588H98.7773ZM111.082 100.842V101.525C111.068 102.346 111.068 103.562 110.768 105.148L109.482 105.025C109.749 103.672 109.79 102.681 109.804 101.908H104.902V100.842H111.082ZM104.164 106.201C104.916 106.201 105.771 106.194 106.666 106.174V103.59H107.951V106.133C109.264 106.078 110.617 105.982 111.848 105.805L111.93 106.748C109.373 107.199 106.447 107.247 104.287 107.254L104.164 106.201ZM106.023 111.902V108.279H107.322V110.85H114.35V111.902H106.023ZM112.627 109.113V99.9121H113.953V103.809H115.635V104.902H113.953V109.113H112.627ZM126.887 99.9121V112.162H125.656V99.9121H126.887ZM116.291 108.621C118.896 107.076 120.14 105.019 120.365 102.496H116.893V101.43H121.65C121.65 102.059 121.603 102.667 121.507 103.262H123.154V100.227H124.385V111.561H123.154V107.391H121.062V106.324H123.154V104.328H121.268C120.673 106.386 119.367 108.177 117.057 109.551L116.291 108.621ZM132.725 103.521C132.718 105.456 133.996 107.616 135.855 108.498L135.117 109.51C133.743 108.854 132.649 107.473 132.096 105.873C131.535 107.616 130.387 109.127 128.992 109.824L128.227 108.799C130.086 107.903 131.433 105.593 131.439 103.521V102.223H128.678V101.143H135.391V102.223H132.725V103.521ZM136.703 112.162V99.9121H138.002V104.766H139.971V105.859H138.002V112.162H136.703ZM63.6543 133.551V134.631H52.4434V133.551H55.123V130.352C54.1182 129.798 53.5029 128.923 53.5098 127.822C53.5029 125.895 55.3965 124.63 58.0215 124.623C60.6533 124.63 62.5469 125.895 62.5469 127.822C62.5469 128.902 61.959 129.771 60.9746 130.324V133.551H63.6543ZM54.7676 127.822C54.7676 129.135 56.1006 129.989 58.0215 129.996C59.9287 129.989 61.2822 129.135 61.2891 127.822C61.2822 126.503 59.9287 125.662 58.0215 125.662C56.1006 125.662 54.7676 126.503 54.7676 127.822ZM56.4082 133.551H59.6621V130.83C59.1631 130.946 58.6094 131.008 58.0215 131.008C57.4473 131.008 56.9004 130.946 56.4082 130.83V133.551ZM74.291 124.678V125.758C74.291 126.92 74.291 128.185 73.9492 129.928H75.7129V130.994H70.75V136.176H69.4375V130.994H64.543V129.928H72.6367C72.999 128.178 72.999 126.899 73.0059 125.758V125.744H65.9102V124.678H74.291ZM80.8945 127.029C80.8809 129.196 82.1455 131.418 83.9707 132.307L83.1641 133.346C81.8311 132.648 80.7988 131.281 80.2588 129.647C79.7119 131.384 78.6387 132.854 77.2441 133.578L76.4375 132.525C78.3174 131.623 79.5889 129.271 79.5957 127.029V124.938H80.8945V127.029ZM84.8867 136.162V123.912H86.1855V128.793H88.1543V129.9H86.1855V136.162H84.8867ZM98.3672 123.912V127.234H100.145V128.328H98.3672V131.773H97.0684V123.912H98.3672ZM88.7559 126.25V125.225H91.7637V123.816H93.0625V125.225H96.0566V126.25H88.7559ZM89.4258 128.998C89.4189 127.679 90.6221 126.817 92.4062 126.811C94.1699 126.817 95.373 127.679 95.373 128.998C95.373 130.311 94.1699 131.165 92.4062 131.158C90.6221 131.165 89.4189 130.311 89.4258 128.998ZM90.3965 134.016C90.3828 132.662 91.9277 131.869 94.457 131.869C96.9521 131.869 98.5039 132.662 98.5039 134.016C98.5039 135.349 96.9521 136.142 94.457 136.135C91.9277 136.142 90.3828 135.349 90.3965 134.016ZM90.6836 128.998C90.6699 129.723 91.3672 130.174 92.4062 130.174C93.4453 130.174 94.1426 129.723 94.1562 128.998C94.1426 128.253 93.4453 127.781 92.4062 127.781C91.3672 127.781 90.6699 128.253 90.6836 128.998ZM91.6816 134.016C91.6748 134.733 92.6934 135.15 94.457 135.15C96.1934 135.15 97.2119 134.733 97.2188 134.016C97.2119 133.271 96.1934 132.874 94.457 132.867C92.6934 132.874 91.6748 133.271 91.6816 134.016ZM115.471 133.564V134.631H104.26V133.564H109.209V130.666H110.508V133.564H115.471ZM104.779 130.105C107.056 129.723 109.168 128.021 109.168 126.141V126.031H105.189V124.965H114.5V126.031H110.521V126.141C110.521 128.021 112.647 129.688 114.979 130.051L114.459 131.076C112.477 130.707 110.651 129.559 109.852 127.945C109.065 129.579 107.254 130.748 105.312 131.131L104.779 130.105ZM120.611 127.029C120.598 129.196 121.862 131.418 123.688 132.307L122.881 133.346C121.548 132.648 120.516 131.281 119.976 129.647C119.429 131.384 118.355 132.854 116.961 133.578L116.154 132.525C118.034 131.623 119.306 129.271 119.312 127.029V124.938H120.611V127.029ZM124.604 136.162V123.912H125.902V128.793H127.871V129.9H125.902V136.162H124.604Z" fill="#737373"/>
<g clip-path="url(#clip0_307_2562)">
<path opacity="0.4" d="M204.056 37.0982C207.217 39.3298 208.798 40.4455 208.798 42C208.798 43.5545 207.217 44.6702 204.056 46.9018L203.46 47.3223C199.313 50.2496 197.24 51.7132 195.62 50.8739C194 50.0346 194 47.4965 194 42.4205L194 41.5795C194 36.5035 194 33.9654 195.62 33.1261C197.24 32.2868 199.313 33.7504 203.46 36.6777L204.056 37.0982Z" fill="#6485C6"/>
</g>
<rect x="224" width="180" height="84" rx="8" fill="#6485C6"/>
<path d="M281.768 39.816V37.288H276.888V35.704H283.96V41.384H279.112V43.944H280.264C281.72 43.944 283.944 43.88 285.48 43.56V45.144C283.848 45.416 281.576 45.528 280.072 45.528H276.888V39.816H281.768ZM288.296 34.76V49.08L286.12 49.4V35.08L288.296 34.76ZM304.202 45.672L303.882 47.304H290.33V45.672H304.202ZM298.41 35.352V37.784C298.41 38.12 298.442 38.52 298.698 38.728C299.834 39.688 301.93 41.272 303.322 42.184L302.138 43.528C300.73 42.632 298.394 41.032 297.306 40.056C296.186 41.016 293.898 42.696 292.362 43.64L291.162 42.312C292.65 41.336 294.65 39.864 295.77 38.856C296.026 38.632 296.122 38.216 296.122 37.88V35.672L298.41 35.352ZM306.525 41.816V40.216C308.621 40.216 311.869 40.136 314.365 39.928C314.477 39.016 314.557 38.104 314.589 37.256H306.749V35.672H316.845C316.813 38.2 316.429 42.008 315.789 44.536H313.533C313.757 43.672 313.981 42.648 314.141 41.56C311.677 41.736 308.701 41.816 306.525 41.816ZM318.765 45.48L318.445 47.112H304.893V45.48H318.765ZM336.483 34.6V43.272L334.307 43.592V34.92L336.483 34.6ZM326.899 44.152H336.483V49.368L334.275 49.688V45.72H326.899V44.152ZM329.683 35.064V37.72C329.683 38.056 329.747 38.424 329.971 38.664C330.979 39.752 332.067 40.76 333.203 41.784L331.907 43C330.755 42.008 329.587 41.032 328.579 39.992C327.571 41.08 326.355 42.28 325.123 43.32L323.779 42.152C324.963 41.08 326.051 40.04 327.059 38.792C327.267 38.52 327.411 38.152 327.411 37.816V35.384L329.683 35.064ZM348.854 42.472V40.872H346.694V41.768L344.534 42.088H339.494V35.144H341.654V37.192H344.534V35.144H346.694V36.472H348.854V35.08L351.03 34.76V42.152L348.854 42.472ZM351.126 49.464H341.574V45.48H348.822V44.552H341.542V43.032H351.03V46.952H343.782V47.944H351.446L351.126 49.464ZM341.654 40.488H344.534V38.792H341.654V40.488ZM346.694 38.072V39.288H348.854V38.072H346.694Z" fill="white"/>
<path d="M266.333 103.713C266.237 102.79 265.431 102.264 264.296 102.264C263.086 102.264 262.32 102.886 262.313 103.727C262.313 104.663 263.332 105.032 264.118 105.217L265.075 105.477C266.34 105.784 267.926 106.475 267.933 108.266C267.926 109.94 266.593 111.164 264.255 111.164C262.04 111.164 260.646 110.057 260.55 108.252H262.054C262.143 109.332 263.1 109.845 264.255 109.852C265.52 109.845 266.436 109.209 266.442 108.238C266.436 107.377 265.615 107.028 264.569 106.748L263.394 106.434C261.801 105.996 260.816 105.189 260.81 103.809C260.816 102.1 262.334 100.965 264.337 100.965C266.347 100.965 267.748 102.113 267.796 103.713H266.333ZM271.501 111L268.753 101.102H270.339L272.267 108.758H272.349L274.358 101.102H275.917L277.927 108.758H278.009L279.937 101.102H281.522L278.774 111H277.257L275.179 103.604H275.097L273.019 111H271.501ZM290.847 106.051C290.847 109.216 288.946 111.137 286.39 111.137C283.812 111.137 281.919 109.209 281.919 106.051C281.919 102.886 283.812 100.965 286.39 100.965C288.946 100.965 290.847 102.886 290.847 106.051ZM283.409 106.051C283.416 108.457 284.681 109.763 286.39 109.756C288.085 109.763 289.35 108.457 289.356 106.051C289.35 103.645 288.085 102.339 286.39 102.346C284.681 102.339 283.416 103.645 283.409 106.051ZM291.626 102.4V101.102H299.296V102.4H296.22V111H294.716V102.4H291.626ZM302.003 110.057L300.909 113.83H299.747L300.472 110.057H302.003ZM310.739 111.137C308.688 111.137 307.232 110.036 307.171 108.416H308.702C308.757 109.284 309.618 109.838 310.726 109.838C311.922 109.838 312.79 109.188 312.79 108.225C312.79 107.247 311.977 106.55 310.562 106.543H309.714V105.312H310.562C311.689 105.319 312.476 104.69 312.476 103.74C312.476 102.838 311.799 102.223 310.753 102.223C309.762 102.223 308.873 102.776 308.839 103.672H307.39C307.431 102.059 308.921 100.965 310.767 100.965C312.715 100.965 313.938 102.195 313.925 103.658C313.938 104.786 313.241 105.593 312.175 105.859V105.928C313.528 106.119 314.314 107.028 314.308 108.279C314.314 109.927 312.79 111.137 310.739 111.137ZM322.798 104.328C322.559 103.05 321.499 102.339 320.241 102.346C318.532 102.339 317.268 103.651 317.261 106.051C317.268 108.464 318.539 109.763 320.241 109.756C321.485 109.763 322.538 109.065 322.798 107.801L324.315 107.814C324.001 109.77 322.408 111.137 320.228 111.137C317.65 111.137 315.771 109.216 315.771 106.051C315.771 102.886 317.664 100.965 320.228 100.965C322.319 100.965 323.98 102.202 324.315 104.328H322.798ZM339.997 106.324V107.363H335.13V109.619H333.845V107.363H328.786V106.324H339.997ZM330.181 111.902V108.553H331.466V110.85H338.753V111.902H330.181ZM330.263 105.244V100.295H331.548V101.785H337.222V100.295H338.521V105.244H330.263ZM331.548 104.205H337.222V102.756H331.548V104.205ZM345.22 101.867C345.213 103.494 346.327 105.025 348.173 105.641L347.462 106.68C346.115 106.188 345.117 105.203 344.591 103.966C344.051 105.326 343.012 106.393 341.583 106.939L340.886 105.887C342.807 105.224 343.914 103.61 343.921 101.799V100.541H345.22V101.867ZM342.813 108.84V107.814H351.112V112.162H349.813V108.84H342.813ZM347.229 103.453V102.387H349.813V99.9121H351.112V107.172H349.813V103.453H347.229ZM367.601 105.668V106.734H356.417V105.668H367.601ZM357.743 109.92C357.743 108.498 359.336 107.691 361.995 107.691C364.634 107.691 366.213 108.498 366.22 109.92C366.213 111.342 364.634 112.142 361.995 112.135C359.336 112.142 357.743 111.342 357.743 109.92ZM357.812 104.602V100.35H366.22V101.416H359.097V103.549H366.302V104.602H357.812ZM359.056 109.92C359.049 110.706 360.122 111.13 361.995 111.137C363.841 111.13 364.921 110.706 364.921 109.92C364.921 109.141 363.841 108.703 361.995 108.689C360.122 108.703 359.049 109.141 359.056 109.92Z" fill="#737373"/>
<g clip-path="url(#clip1_307_2562)">
<path opacity="0.4" d="M428.056 37.0982C431.217 39.3298 432.798 40.4455 432.798 42C432.798 43.5545 431.217 44.6702 428.056 46.9018L427.46 47.3223C423.313 50.2496 421.24 51.7132 419.62 50.8739C418 50.0346 418 47.4965 418 42.4205L418 41.5795C418 36.5035 418 33.9654 419.62 33.1261C421.24 32.2868 423.313 33.7504 427.46 36.6777L428.056 37.0982Z" fill="#6485C6"/>
</g>
<rect x="448" width="180" height="84" rx="8" fill="#6485C6"/>
<path d="M505.768 39.816V37.288H500.888V35.704H507.96V41.384H503.112V43.944H504.264C505.72 43.944 507.944 43.88 509.48 43.56V45.144C507.848 45.416 505.576 45.528 504.072 45.528H500.888V39.816H505.768ZM512.296 34.76V49.08L510.12 49.4V35.08L512.296 34.76ZM528.202 45.672L527.882 47.304H514.33V45.672H528.202ZM522.41 35.352V37.784C522.41 38.12 522.442 38.52 522.698 38.728C523.834 39.688 525.93 41.272 527.322 42.184L526.138 43.528C524.73 42.632 522.394 41.032 521.306 40.056C520.186 41.016 517.898 42.696 516.362 43.64L515.162 42.312C516.65 41.336 518.65 39.864 519.77 38.856C520.026 38.632 520.122 38.216 520.122 37.88V35.672L522.41 35.352ZM530.525 41.816V40.216C532.621 40.216 535.869 40.136 538.365 39.928C538.477 39.016 538.557 38.104 538.589 37.256H530.749V35.672H540.845C540.813 38.2 540.429 42.008 539.789 44.536H537.533C537.757 43.672 537.981 42.648 538.141 41.56C535.677 41.736 532.701 41.816 530.525 41.816ZM542.765 45.48L542.445 47.112H528.893V45.48H542.765ZM557.203 43.848C558.947 43.848 560.531 44.552 560.531 46.712C560.531 48.888 558.947 49.592 557.203 49.592H553.779C551.971 49.592 550.355 48.888 550.355 46.712C550.355 44.552 551.971 43.848 553.779 43.848H557.203ZM551.027 43.16H548.323V41.656H549.683L549.603 37.608H551.811L551.891 41.656C552.307 41.656 552.755 41.656 553.219 41.624L553.283 37.608H555.395L555.331 41.512C556.099 41.448 556.835 41.384 557.459 41.288V42.824C555.843 43.064 553.107 43.16 551.027 43.16ZM560.467 34.76V43.304L558.307 43.624V41H556.195V39.48H558.307V38.824H556.195V37.288H558.307V35.08L560.467 34.76ZM556.995 45.432H553.955C553.091 45.432 552.499 45.784 552.499 46.712C552.499 47.656 553.091 48.008 553.955 48.008H556.995C557.795 48.008 558.387 47.656 558.387 46.712C558.387 45.784 557.795 45.432 556.995 45.432ZM556.419 37.048H548.595V35.448H556.419V37.048ZM574.598 34.76V40.248H576.902L576.582 42.04H574.598V49.08L572.406 49.4V35.08L574.598 34.76ZM568.31 37.384H563.43V35.8H570.614V36.936C570.614 41.288 567.574 44.744 564.07 46.344L562.758 44.92C565.814 43.64 568.31 40.44 568.31 37.656V37.384Z" fill="white"/>
<path d="M488.303 100.432V102.1H491.516V100.432H492.801V105.777H487.031V100.432H488.303ZM488.262 107.773V106.748H496.178V109.838H489.561V111H496.602V112.039H488.289V108.881H494.893V107.773H488.262ZM488.303 104.738H491.516V103.098H488.303V104.738ZM494.879 106.215V99.9121H496.178V102.482H497.955V103.535H496.178V106.215H494.879ZM502.398 102.264C502.398 103.604 503.253 104.957 504.846 105.559L504.162 106.557C503.021 106.119 502.221 105.285 501.783 104.28C501.332 105.415 500.498 106.399 499.309 106.912L498.598 105.9C500.252 105.183 501.141 103.624 501.141 102.264V100.678H502.398V102.264ZM500.854 109.92C500.84 108.525 502.433 107.698 504.996 107.691C507.553 107.698 509.159 108.525 509.166 109.92C509.159 111.314 507.553 112.142 504.996 112.135C502.433 112.142 500.84 111.314 500.854 109.92ZM502.139 109.92C502.125 110.699 503.212 111.15 504.996 111.137C506.773 111.15 507.86 110.699 507.867 109.92C507.86 109.134 506.773 108.683 504.996 108.689C503.212 108.683 502.125 109.134 502.139 109.92ZM505.229 107.076V100.145H506.432V103.111H507.867V99.9258H509.098V107.459H507.867V104.178H506.432V107.076H505.229ZM520.295 99.9121V104.793H522.195V105.873H520.295V112.148H518.996V99.9121H520.295ZM510.766 108.881C513.835 107.35 515.503 105.135 515.77 102.277H511.381V101.197H517.096C517.082 104.738 515.523 107.903 511.49 109.893L510.766 108.881ZM532.75 103.221V104.273H524.342V100.131H525.627V103.221H532.75ZM522.852 106.639V105.572H534.035V106.639H522.852ZM524.178 109.865C524.178 108.437 525.771 107.63 528.43 107.637C531.068 107.63 532.647 108.437 532.654 109.865C532.647 111.301 531.068 112.107 528.43 112.107C525.771 112.107 524.178 111.301 524.178 109.865ZM525.49 109.865C525.483 110.651 526.557 111.103 528.43 111.109C530.275 111.103 531.355 110.651 531.355 109.865C531.355 109.072 530.275 108.655 528.43 108.648C526.557 108.655 525.483 109.072 525.49 109.865ZM539.299 101.744C539.292 103.46 540.406 104.991 542.266 105.6L541.555 106.611C540.208 106.119 539.217 105.176 538.684 103.945C538.157 105.347 537.091 106.447 535.607 106.98L534.91 105.941C536.865 105.271 538 103.638 538.014 101.799V100.596H539.299V101.744ZM536.92 109.824C536.913 108.341 538.485 107.479 541.062 107.486C543.626 107.479 545.198 108.341 545.205 109.824C545.198 111.301 543.626 112.142 541.062 112.135C538.485 112.142 536.913 111.301 536.92 109.824ZM538.205 109.824C538.198 110.638 539.265 111.116 541.062 111.109C542.847 111.116 543.913 110.638 543.92 109.824C543.913 108.983 542.847 108.498 541.062 108.498C539.265 108.498 538.198 108.983 538.205 109.824ZM541.281 103.467V102.4H543.865V99.9121H545.164V107.145H543.865V103.467H541.281ZM549.252 110.057L548.158 113.83H546.996L547.721 110.057H549.252ZM564.209 99.9258V106.857H562.91V99.9258H564.209ZM554.105 105.559C556.02 104.916 557.175 103.289 557.182 101.58V100.391H558.508V101.58C558.501 103.234 559.684 104.725 561.543 105.354L560.9 106.352C559.479 105.88 558.405 104.916 557.852 103.658C557.305 105.005 556.218 106.071 554.748 106.584L554.105 105.559ZM556.156 112.012V107.514H564.209V112.012H556.156ZM557.441 110.959H562.938V108.553H557.441V110.959ZM575.775 99.9121V102.934H577.553V104.027H575.775V107.076H574.477V99.9121H575.775ZM566.082 105.969C569.021 105.196 570.765 103.645 570.99 101.717H566.67V100.664H572.385C572.378 103.815 570.252 106.03 566.615 106.967L566.082 105.969ZM567.682 108.662V107.609H575.775V112.162H574.477V108.662H567.682ZM588.176 105.559V106.598H584.471V109.592H589.461V110.658H578.25V109.592H583.186V106.598H579.645V100.855H588.066V101.908H580.943V105.559H588.176Z" fill="#737373"/>
<g clip-path="url(#clip2_307_2562)">
<path opacity="0.4" d="M652.056 37.0982C655.217 39.3298 656.798 40.4455 656.798 42C656.798 43.5545 655.217 44.6702 652.056 46.9018L651.46 47.3223C647.313 50.2496 645.24 51.7132 643.62 50.8739C642 50.0346 642 47.4965 642 42.4205L642 41.5795C642 36.5035 642 33.9654 643.62 33.1261C645.24 32.2868 647.313 33.7504 651.46 36.6777L652.056 37.0982Z" fill="#6485C6"/>
</g>
<rect x="672" width="180" height="84" rx="8" fill="#6485C6"/>
<path d="M729.768 39.816V37.288H724.888V35.704H731.96V41.384H727.112V43.944H728.264C729.72 43.944 731.944 43.88 733.48 43.56V45.144C731.848 45.416 729.576 45.528 728.072 45.528H724.888V39.816H729.768ZM736.296 34.76V49.08L734.12 49.4V35.08L736.296 34.76ZM752.202 45.672L751.882 47.304H738.33V45.672H752.202ZM746.41 35.352V37.784C746.41 38.12 746.442 38.52 746.698 38.728C747.834 39.688 749.93 41.272 751.322 42.184L750.138 43.528C748.73 42.632 746.394 41.032 745.306 40.056C744.186 41.016 741.898 42.696 740.362 43.64L739.162 42.312C740.65 41.336 742.65 39.864 743.77 38.856C744.026 38.632 744.122 38.216 744.122 37.88V35.672L746.41 35.352ZM754.525 41.816V40.216C756.621 40.216 759.869 40.136 762.365 39.928C762.477 39.016 762.557 38.104 762.589 37.256H754.749V35.672H764.845C764.813 38.2 764.429 42.008 763.789 44.536H761.533C761.757 43.672 761.981 42.648 762.141 41.56C759.677 41.736 756.701 41.816 754.525 41.816ZM766.765 45.48L766.445 47.112H752.893V45.48H766.765ZM783.763 37.192H780.019V37.912C780.019 38.248 780.051 38.648 780.307 38.856C781.459 39.768 783.411 41.256 784.851 42.152L783.667 43.496C782.211 42.616 780.019 41.112 778.883 40.184C777.747 41.128 775.459 42.68 774.051 43.608L772.851 42.28C774.371 41.32 776.259 39.992 777.379 38.984C777.635 38.76 777.731 38.344 777.731 38.008V37.192H773.795V35.608H784.083L783.763 37.192ZM771.939 45.864H777.827V42.712H780.131V45.864H785.811L785.491 47.496H771.939V45.864ZM795.51 36.84L795.19 38.424H792.454V40.168C792.454 40.504 792.55 40.856 792.742 41.112C793.558 42.2 794.71 43.56 795.83 44.76L794.518 45.976C793.366 44.808 792.198 43.48 791.366 42.44C790.438 43.624 789.222 45.064 788.054 46.312L786.694 45.176C787.83 43.896 788.934 42.552 789.894 41.24C790.086 40.968 790.246 40.6 790.246 40.264V38.424H787.222V36.84H790.246V35.24L792.454 34.92V36.84H795.51ZM799.03 34.76V49.08L796.854 49.4V35.08L799.03 34.76Z" fill="white"/>
<path d="M720.807 99.9121V112.189H719.508V99.9121H720.807ZM711.318 102.072V101.02H717.061V105.49H712.658V108.17C714.647 108.163 716.377 108.067 718.428 107.732L718.551 108.799C716.384 109.161 714.538 109.243 712.371 109.25H711.332V104.451H715.734V102.072H711.318ZM728.955 101.648C728.955 103.645 731.081 105.531 733.439 105.955L732.838 107.035C730.876 106.611 729.078 105.326 728.285 103.604C727.479 105.319 725.681 106.598 723.719 107.035L723.145 105.955C725.469 105.518 727.581 103.645 727.588 101.648V100.719H728.955V101.648ZM722.734 110.549V109.469H733.945V110.549H722.734ZM744.691 101.102V102.592C744.691 104.383 744.691 106.064 744.158 108.607L742.873 108.484C743.133 107.356 743.27 106.379 743.338 105.47L735.982 105.859L735.818 104.793L743.399 104.506C743.427 103.85 743.427 103.221 743.434 102.592V102.168H736.16V101.102H744.691ZM734.834 110.521V109.455H746.004V110.521H734.834ZM760.578 99.9121V112.189H759.279V105.381H756.75V104.314H759.279V99.9121H760.578ZM750.215 108.771C752.088 107.876 753.407 105.559 753.414 103.357V102.209H750.707V101.143H757.447V102.209H754.727V103.357C754.727 105.429 756.032 107.664 757.912 108.498L757.133 109.537C755.718 108.854 754.631 107.425 754.084 105.757C753.537 107.534 752.423 109.059 751.008 109.783L750.215 108.771ZM772.076 99.9121V102.797H773.854V103.877H772.076V106.83H770.777V99.9121H772.076ZM762.396 105.969C765.329 105.196 767.052 103.658 767.291 101.744H762.971V100.678H768.699C768.692 103.815 766.566 106.023 762.916 107.008L762.396 105.969ZM764.229 111.998V107.35H772.076V111.998H764.229ZM765.527 110.959H770.791V108.43H765.527V110.959ZM780.129 100.117C782.891 100.11 784.497 100.855 784.504 102.223C784.497 103.597 782.891 104.342 780.129 104.342C777.367 104.342 775.747 103.597 775.754 102.223C775.747 100.855 777.367 100.11 780.129 100.117ZM774.551 106.133V105.094H785.721V106.133H774.551ZM775.891 108.047V107.076H784.312V109.947H777.176V111.041H784.654V112.039H775.904V109.004H783.027V108.047H775.891ZM777.107 102.223C777.101 102.981 778.181 103.371 780.129 103.371C782.091 103.371 783.171 102.981 783.164 102.223C783.171 101.498 782.091 101.074 780.129 101.074C778.181 101.074 777.101 101.498 777.107 102.223ZM794.088 100.473C795.934 100.466 797.267 101.498 797.273 103.016C797.267 104.52 795.934 105.559 794.088 105.545C792.249 105.559 790.923 104.52 790.93 103.016C790.923 101.498 792.249 100.466 794.088 100.473ZM790.055 106.502C792.317 106.502 795.441 106.454 798.121 106.051L798.217 107.021C797.096 107.233 795.94 107.363 794.812 107.438V111.779H793.514V107.514C792.324 107.568 791.203 107.575 790.232 107.582L790.055 106.502ZM792.188 103.016C792.174 103.904 792.974 104.492 794.088 104.479C795.229 104.492 796.029 103.904 796.029 103.016C796.029 102.12 795.229 101.519 794.088 101.525C792.974 101.519 792.174 102.12 792.188 103.016ZM798.969 112.162V99.9258H800.254V112.162H798.969ZM811.793 99.9258V103.863H813.57V104.943H811.793V109.086H810.494V99.9258H811.793ZM802.182 102.4V101.348H805.189V99.9121H806.488V101.348H809.482V102.4H802.182ZM802.852 105.299C802.845 103.897 804.055 102.981 805.832 102.988C807.589 102.981 808.799 103.897 808.799 105.299C808.799 106.687 807.589 107.589 805.832 107.596C804.055 107.589 802.845 106.687 802.852 105.299ZM804.027 111.902V108.361H805.326V110.85H812.312V111.902H804.027ZM804.109 105.299C804.096 106.099 804.793 106.591 805.832 106.584C806.871 106.591 807.568 106.099 807.582 105.299C807.568 104.492 806.871 103.993 805.832 103.986C804.793 103.993 804.096 104.492 804.109 105.299ZM720.649 131.541C723.172 131.541 724.71 132.389 724.71 133.838C724.71 135.308 723.172 136.155 720.649 136.162C718.1 136.155 716.534 135.308 716.534 133.838C716.534 132.389 718.1 131.541 720.649 131.541ZM715.454 130.365V124.678H716.726V126.441H719.938V124.678H721.224V130.365H715.454ZM716.726 129.326H719.938V127.467H716.726V129.326ZM717.833 133.838C717.826 134.658 718.879 135.123 720.649 135.123C722.406 135.123 723.445 134.658 723.438 133.838C723.445 133.024 722.406 132.566 720.649 132.566C718.879 132.566 717.826 133.024 717.833 133.838ZM723.302 131.227V123.912H724.601V126.906H726.378V128.014H724.601V131.227H723.302ZM736.7 123.898V127.562H738.478V128.656H736.7V132.908H735.401V123.898H736.7ZM727.267 127.795C727.253 126.011 728.675 124.753 730.521 124.746C732.373 124.753 733.774 126.011 733.788 127.795C733.774 129.579 732.373 130.851 730.521 130.844C728.675 130.851 727.253 129.579 727.267 127.795ZM728.538 127.795C728.524 128.937 729.399 129.709 730.521 129.709C731.655 129.709 732.51 128.937 732.517 127.795C732.51 126.653 731.655 125.881 730.521 125.881C729.399 125.881 728.524 126.653 728.538 127.795ZM728.935 135.902V131.965H730.233V134.85H737.22V135.902H728.935ZM748.868 124.992C748.861 126.619 750.851 128.144 753.257 128.465L752.751 129.531C750.748 129.21 748.991 128.171 748.191 126.729C747.392 128.171 745.635 129.21 743.646 129.531L743.126 128.465C745.525 128.144 747.508 126.64 747.515 124.992V124.322H748.868V124.992ZM742.593 131.801V130.734H753.763V131.801H748.786V136.162H747.515V131.801H742.593ZM764.851 123.926V130.68H763.552V123.926H764.851ZM755.308 125.553V124.5H760.94V127.918H756.606V129.367C758.753 129.36 760.318 129.306 762.185 128.998L762.349 130.051C760.346 130.379 758.678 130.434 756.36 130.447H755.335V126.906H759.655V125.553H755.308ZM756.812 136.012V131.254H758.11V132.58H763.565V131.254H764.851V136.012H756.812ZM758.11 134.959H763.565V133.605H758.11V134.959ZM776.677 124.691V129.723H770.853V124.691H776.677ZM771.659 135.123C773.888 134.904 775.631 133.79 775.72 132.689H772.151V131.705H775.747V130.557H777.032V131.705H780.642V132.689H777.06C777.148 133.756 778.851 134.877 781.079 135.123L780.642 136.121C778.721 135.889 777.135 135.068 776.396 133.988C775.645 135.082 774.038 135.889 772.11 136.121L771.659 135.123ZM772.124 128.711H775.392V125.73H772.124V128.711ZM779.069 130.912V123.912H780.354V130.912H779.069ZM795.872 123.912V136.189H794.573V123.912H795.872ZM786.151 129.121C786.151 126.503 787.471 124.835 789.323 124.828C791.142 124.835 792.481 126.503 792.481 129.121C792.481 131.767 791.142 133.435 789.323 133.428C787.471 133.435 786.151 131.767 786.151 129.121ZM787.409 129.121C787.402 131.069 788.182 132.266 789.323 132.266C790.444 132.266 791.224 131.069 791.224 129.121C791.224 127.2 790.444 125.997 789.323 125.99C788.182 125.997 787.402 127.2 787.409 129.121ZM808.272 123.912V131.637H807.042V128.219H805.62V131.213H804.403V124.145H805.62V127.152H807.042V123.912H808.272ZM797.759 126.332V125.307H800.233V124.008H801.519V125.307H803.952V126.332H797.759ZM798.237 129.012C798.237 127.74 799.331 126.906 800.862 126.906C802.428 126.906 803.515 127.74 803.515 129.012C803.515 130.283 802.428 131.117 800.862 131.117C799.331 131.117 798.237 130.283 798.237 129.012ZM799.399 129.012C799.399 129.709 799.994 130.167 800.862 130.174C801.744 130.167 802.346 129.709 802.339 129.012C802.346 128.314 801.744 127.856 800.862 127.863C799.994 127.856 799.399 128.314 799.399 129.012ZM800.028 133.988C800.015 132.601 801.573 131.814 804.171 131.814C806.775 131.814 808.334 132.601 808.341 133.988C808.334 135.362 806.775 136.142 804.171 136.135C801.573 136.142 800.015 135.362 800.028 133.988ZM801.313 133.988C801.3 134.727 802.353 135.15 804.171 135.137C805.996 135.15 807.035 134.727 807.042 133.988C807.035 133.216 805.996 132.806 804.171 132.812C802.353 132.806 801.3 133.216 801.313 133.988Z" fill="#737373"/>
<g clip-path="url(#clip3_307_2562)">
<path opacity="0.4" d="M876.056 37.0982C879.217 39.3298 880.798 40.4455 880.798 42C880.798 43.5545 879.217 44.6702 876.056 46.9018L875.46 47.3223C871.313 50.2496 869.24 51.7132 867.62 50.8739C866 50.0346 866 47.4965 866 42.4205L866 41.5795C866 36.5035 866 33.9654 867.62 33.1261C869.24 32.2868 871.313 33.7504 875.46 36.6777L876.056 37.0982Z" fill="#6485C6"/>
</g>
<rect x="896" width="180" height="84" rx="8" fill="#6485C6"/>
<path d="M944.244 26.816V24.288H939.364V22.704H946.436V28.384H941.588V30.944H942.74C944.196 30.944 946.42 30.88 947.956 30.56V32.144C946.324 32.416 944.052 32.528 942.548 32.528H939.364V26.816H944.244ZM950.772 21.76V36.08L948.596 36.4V22.08L950.772 21.76ZM966.679 32.672L966.359 34.304H952.807V32.672H966.679ZM960.887 22.352V24.784C960.887 25.12 960.919 25.52 961.175 25.728C962.311 26.688 964.407 28.272 965.799 29.184L964.615 30.528C963.207 29.632 960.871 28.032 959.783 27.056C958.663 28.016 956.375 29.696 954.839 30.64L953.639 29.312C955.127 28.336 957.127 26.864 958.247 25.856C958.503 25.632 958.599 25.216 958.599 24.88V22.672L960.887 22.352ZM969.001 28.816V27.216C971.097 27.216 974.345 27.136 976.841 26.928C976.953 26.016 977.033 25.104 977.065 24.256H969.225V22.672H979.321C979.289 25.2 978.905 29.008 978.265 31.536H976.009C976.233 30.672 976.457 29.648 976.617 28.56C974.153 28.736 971.177 28.816 969.001 28.816ZM981.241 32.48L980.921 34.112H967.369V32.48H981.241ZM987.68 26.608C987.68 25.104 989.28 24.304 991.28 24.304C993.28 24.304 994.88 25.104 994.88 26.608V26.848C994.88 28.064 993.856 28.832 992.416 29.104V29.792C993.552 29.728 994.768 29.616 995.792 29.44V30.992C993.52 31.312 991.056 31.408 988.592 31.408H986.656V29.84H990.176V29.104C988.72 28.848 987.68 28.064 987.68 26.848V26.608ZM998.56 21.76V26.544H1000.77L1000.45 28.16H998.56V31.216L996.352 31.536V22.08L998.56 21.76ZM988.784 32.096H998.56V36.368L996.32 36.688V33.68H988.784V32.096ZM995.216 24H987.184V22.528H990.24V21.728L992.448 21.408V22.528H995.536L995.216 24ZM992.8 26.672C992.8 26.112 992.24 25.776 991.28 25.776C990.32 25.776 989.76 26.112 989.76 26.672V26.784C989.76 27.344 990.32 27.728 991.28 27.728C992.24 27.728 992.8 27.344 992.8 26.784V26.672ZM1013.51 21.76V31.952L1011.35 32.272V22.08L1013.51 21.76ZM1013.6 36.336H1004.23V31.712H1006.45V34.736H1013.92L1013.6 36.336ZM1009.3 26.624C1009.3 28.768 1007.51 29.92 1005.49 29.92C1003.47 29.92 1001.68 28.768 1001.68 26.624V25.696C1001.68 23.552 1003.47 22.4 1005.49 22.4C1007.51 22.4 1009.3 23.552 1009.3 25.696V26.624ZM1007.14 26.56V25.76C1007.14 24.64 1006.45 24 1005.49 24C1004.53 24 1003.84 24.64 1003.84 25.76V26.56C1003.84 27.68 1004.53 28.32 1005.49 28.32C1006.45 28.32 1007.14 27.68 1007.14 26.56ZM1021 22.288H1028.01V28.592L1025.85 28.912H1021V22.288ZM1032.59 32.64L1028.79 32.656C1028.79 32.944 1028.83 33.248 1029.08 33.376C1030.43 34.16 1031.74 34.8 1033.35 35.52L1032.33 36.864C1030.71 36.192 1029.07 35.408 1027.72 34.688C1026.49 35.376 1024.73 36.272 1023.11 36.976L1022.06 35.648C1023.79 34.912 1025.03 34.208 1026.23 33.488C1026.49 33.344 1026.57 32.976 1026.59 32.656H1022.6V31.136H1026.59V29.808L1028.79 29.488V31.136H1032.91L1032.59 32.64ZM1032.54 21.76V29.84L1030.38 30.16V22.08L1032.54 21.76ZM1025.85 23.888H1023.16V27.36H1025.85V23.888ZM965.401 58.656V55.088H963.241V56.272L961.081 56.592H956.041V48.448H958.265V50.976H961.081V48.448H963.241V50.096H965.401V48.08L967.577 47.76V58.336L965.401 58.656ZM967.673 62.336H958.297V57.904H960.505V60.736H967.993L967.673 62.336ZM958.265 55.008H961.081V52.576H958.265V55.008ZM963.241 51.696V53.504H965.401V51.696H963.241ZM979.979 56.752V54.816H977.099V53.216H979.979V51.696H977.515C976.411 54.08 973.627 56.048 971.019 56.832L969.979 55.44C973.163 54.56 975.707 51.984 975.707 50.304V50.08H970.811V48.48H978.011V49.584C978.011 49.76 977.995 49.936 977.979 50.096H979.979V48.08L982.155 47.76V56.432L979.979 56.752ZM978.875 56.848C980.619 56.848 982.203 57.552 982.203 59.712C982.203 61.888 980.619 62.592 978.875 62.592H975.451C973.643 62.592 972.027 61.888 972.027 59.712C972.027 57.552 973.643 56.848 975.451 56.848H978.875ZM978.667 58.432H975.627C974.763 58.432 974.171 58.784 974.171 59.712C974.171 60.656 974.763 61.008 975.627 61.008H978.667C979.467 61.008 980.059 60.656 980.059 59.712C980.059 58.784 979.467 58.432 978.667 58.432ZM1000.8 47.76V52.512H1003.01L1002.69 54.128H1000.8V58.144L998.594 58.464V48.08L1000.8 47.76ZM988.898 55.344H991.362V51.824H993.49V55.344C994.898 55.296 996.674 55.168 998.034 54.944V56.528C995.762 56.848 993.298 56.944 990.834 56.944H988.898V55.344ZM1000.88 62.336H991.378V57.84H993.586V60.736H1001.2L1000.88 62.336ZM995.106 49.952H989.57V48.352H997.394C997.33 50.016 997.09 52.912 996.706 54.256H994.562C994.914 53.072 995.106 50.976 995.106 49.952ZM1009.22 52.816V50.288H1004.34V48.704H1011.41V54.384H1006.56V56.944H1007.72C1009.17 56.944 1011.4 56.88 1012.93 56.56V58.144C1011.3 58.416 1009.03 58.528 1007.52 58.528H1004.34V52.816H1009.22ZM1015.75 47.76V62.08L1013.57 62.4V48.08L1015.75 47.76Z" fill="white"/>
<path d="M963.995 109.564V110.631H952.784V109.564H957.733V106.666H959.032V109.564H963.995ZM953.304 106.105C955.58 105.723 957.692 104.021 957.692 102.141V102.031H953.714V100.965H963.024V102.031H959.046V102.141C959.046 104.021 961.172 105.688 963.503 106.051L962.983 107.076C961.001 106.707 959.176 105.559 958.376 103.945C957.59 105.579 955.778 106.748 953.837 107.131L953.304 106.105ZM975.028 99.9121V112.162H973.729V99.9121H975.028ZM965.062 108.812C966.955 107.965 968.213 105.9 968.22 103.85V103.043H965.431V102.004H968.206V100.158H969.491V102.004H972.239V103.043H969.491V103.85C969.498 105.805 970.783 107.801 972.69 108.607L971.979 109.605C970.564 108.99 969.443 107.712 968.876 106.167C968.322 107.808 967.208 109.168 965.786 109.811L965.062 108.812ZM990.546 99.9121V112.189H989.247V99.9121H990.546ZM980.825 105.121C980.825 102.503 982.145 100.835 983.997 100.828C985.815 100.835 987.155 102.503 987.155 105.121C987.155 107.767 985.815 109.435 983.997 109.428C982.145 109.435 980.825 107.767 980.825 105.121ZM982.083 105.121C982.076 107.069 982.855 108.266 983.997 108.266C985.118 108.266 985.897 107.069 985.897 105.121C985.897 103.2 985.118 101.997 983.997 101.99C982.855 101.997 982.076 103.2 982.083 105.121ZM1002.95 99.9121V107.637H1001.72V104.219H1000.29V107.213H999.077V100.145H1000.29V103.152H1001.72V99.9121H1002.95ZM992.433 102.332V101.307H994.907V100.008H996.192V101.307H998.626V102.332H992.433ZM992.911 105.012C992.911 103.74 994.005 102.906 995.536 102.906C997.102 102.906 998.188 103.74 998.188 105.012C998.188 106.283 997.102 107.117 995.536 107.117C994.005 107.117 992.911 106.283 992.911 105.012ZM994.073 105.012C994.073 105.709 994.668 106.167 995.536 106.174C996.418 106.167 997.02 105.709 997.013 105.012C997.02 104.314 996.418 103.856 995.536 103.863C994.668 103.856 994.073 104.314 994.073 105.012ZM994.702 109.988C994.688 108.601 996.247 107.814 998.845 107.814C1001.45 107.814 1003.01 108.601 1003.01 109.988C1003.01 111.362 1001.45 112.142 998.845 112.135C996.247 112.142 994.688 111.362 994.702 109.988ZM995.987 109.988C995.974 110.727 997.026 111.15 998.845 111.137C1000.67 111.15 1001.71 110.727 1001.72 109.988C1001.71 109.216 1000.67 108.806 998.845 108.812C997.026 108.806 995.974 109.216 995.987 109.988ZM1018.56 101.266V102.332H1008.59V101.266H1012.95V99.8574H1014.24V101.266H1018.56ZM1008.02 108.908V107.842H1019.23V108.908H1014.24V112.176H1012.95V108.908H1008.02ZM1009.52 105.025C1009.52 103.686 1011.05 102.954 1013.6 102.961C1016.14 102.954 1017.67 103.686 1017.67 105.025C1017.67 106.331 1016.14 107.069 1013.6 107.076C1011.05 107.069 1009.52 106.331 1009.52 105.025ZM1010.86 105.025C1010.86 105.709 1011.84 106.099 1013.6 106.092C1015.35 106.099 1016.32 105.709 1016.33 105.025C1016.32 104.321 1015.35 103.932 1013.6 103.932C1011.84 103.932 1010.86 104.321 1010.86 105.025ZM950.856 123.912V136.189H949.558V123.912H950.856ZM941.368 126.072V125.02H947.11V129.49H942.708V132.17C944.697 132.163 946.427 132.067 948.478 131.732L948.601 132.799C946.434 133.161 944.588 133.243 942.421 133.25H941.382V128.451H945.784V126.072H941.368ZM959.005 125.648C959.005 127.645 961.131 129.531 963.489 129.955L962.888 131.035C960.926 130.611 959.128 129.326 958.335 127.604C957.528 129.319 955.73 130.598 953.769 131.035L953.194 129.955C955.519 129.518 957.631 127.645 957.638 125.648V124.719H959.005V125.648ZM952.784 134.549V133.469H963.995V134.549H952.784ZM974.741 125.102V126.592C974.741 128.383 974.741 130.064 974.208 132.607L972.923 132.484C973.183 131.356 973.319 130.379 973.388 129.47L966.032 129.859L965.868 128.793L973.449 128.506C973.477 127.85 973.477 127.221 973.483 126.592V126.168H966.21V125.102H974.741ZM964.884 134.521V133.455H976.054V134.521H964.884ZM990.614 123.926V132.977H989.315V129.791H986.636V130.939H980.989V124.732H982.288V126.811H985.351V124.732H986.636V126.1H989.315V123.926H990.614ZM982.288 129.887H985.351V127.809H982.288V129.887ZM982.616 135.902V132.088H983.929V134.85H990.888V135.902H982.616ZM986.636 128.738H989.315V127.166H986.636V128.738ZM1002.71 123.926V131.172H1001.42V129.682H998.325V128.615H1001.42V127.125H998.455C997.662 129.094 995.823 130.481 993.171 131.24L992.651 130.229C995.55 129.401 997.245 127.843 997.478 125.867H993.28V124.801H998.886C998.886 125.252 998.838 125.689 998.756 126.1H1001.42V123.926H1002.71ZM994.552 133.701C994.552 132.218 996.165 131.315 998.681 131.309C1001.16 131.315 1002.79 132.218 1002.8 133.701C1002.79 135.191 1001.16 136.107 998.681 136.107C996.165 136.107 994.552 135.191 994.552 133.701ZM995.837 133.701C995.837 134.562 996.931 135.062 998.681 135.068C1000.4 135.062 1001.49 134.562 1001.5 133.701C1001.49 132.826 1000.4 132.327 998.681 132.334C996.931 132.327 995.837 132.826 995.837 133.701ZM1014.84 124.842V125.525C1014.83 126.346 1014.83 127.562 1014.53 129.148L1013.24 129.025C1013.51 127.672 1013.55 126.681 1013.56 125.908H1008.66V124.842H1014.84ZM1007.92 130.201C1008.67 130.201 1009.53 130.194 1010.42 130.174V127.59H1011.71V130.133C1013.02 130.078 1014.38 129.982 1015.61 129.805L1015.69 130.748C1013.13 131.199 1010.21 131.247 1008.05 131.254L1007.92 130.201ZM1009.78 135.902V132.279H1011.08V134.85H1018.11V135.902H1009.78ZM1016.39 133.113V123.912H1017.71V127.809H1019.39V128.902H1017.71V133.113H1016.39ZM1030.29 123.912V136.189H1028.99V123.912H1030.29ZM1020.8 126.072V125.02H1026.54V129.49H1022.14V132.17C1024.13 132.163 1025.86 132.067 1027.91 131.732L1028.03 132.799C1025.87 133.161 1024.02 133.243 1021.85 133.25H1020.82V128.451H1025.22V126.072H1020.8Z" fill="#737373"/>
<g clip-path="url(#clip4_307_2562)">
<path opacity="0.4" d="M1100.06 37.0982C1103.22 39.3298 1104.8 40.4455 1104.8 42C1104.8 43.5545 1103.22 44.6702 1100.06 46.9018L1099.46 47.3223C1095.31 50.2496 1093.24 51.7132 1091.62 50.8739C1090 50.0346 1090 47.4965 1090 42.4205L1090 41.5795C1090 36.5035 1090 33.9654 1091.62 33.1261C1093.24 32.2868 1095.31 33.7504 1099.46 36.6777L1100.06 37.0982Z" fill="#6485C6"/>
</g>
<rect x="1120" width="180" height="84" rx="8" fill="#6485C6"/>
<path d="M1197.44 21.76V36.08L1195.28 36.4V22.08L1197.44 21.76ZM1190.97 29.472V25.712C1190.97 24.56 1190.57 23.888 1189.45 23.888C1188.33 23.888 1187.93 24.56 1187.93 25.712V29.472C1187.93 30.624 1188.33 31.312 1189.45 31.312C1190.57 31.312 1190.97 30.624 1190.97 29.472ZM1193.15 25.664V29.536C1193.15 31.68 1191.68 32.928 1189.45 32.928C1187.23 32.928 1185.76 31.68 1185.76 29.536V25.664C1185.76 23.52 1187.23 22.272 1189.45 22.272C1191.68 22.272 1193.15 23.52 1193.15 25.664ZM1211.55 21.76V27.232H1213.86L1213.54 29.024H1211.55V36.08L1209.36 36.4V22.08L1211.55 21.76ZM1205.04 22.496V26.704C1205.04 27.04 1205.14 27.392 1205.33 27.648C1206.16 28.768 1207.42 30.304 1208.51 31.52L1207.23 32.752C1206.11 31.568 1204.75 30.064 1203.94 28.976C1202.99 30.176 1201.62 31.872 1200.48 33.104L1199.14 31.936C1200.22 30.672 1201.5 29.136 1202.45 27.776C1202.64 27.504 1202.8 27.136 1202.8 26.8V22.816L1205.04 22.496ZM1215.39 27.584C1215.39 26.096 1216.82 24.896 1219.04 24.896C1221.27 24.896 1222.69 26.096 1222.69 27.584V28.096C1222.69 29.28 1221.78 30.288 1220.29 30.656V32.256C1221.46 32.192 1222.75 32.08 1223.79 31.904V33.488C1221.51 33.808 1219.06 33.904 1216.59 33.904H1214.48V32.304H1218.03V30.704C1216.39 30.4 1215.39 29.344 1215.39 28.096V27.584ZM1224.39 22.08L1226.55 21.76V36.08L1224.39 36.4V22.08ZM1223.14 24.576H1214.71V22.976H1217.94V21.92L1220.15 21.6V22.976H1223.46L1223.14 24.576ZM1220.61 27.728C1220.61 26.944 1219.97 26.416 1219.04 26.416C1218.11 26.416 1217.47 26.944 1217.47 27.728V27.952C1217.47 28.736 1218.11 29.264 1219.04 29.264C1219.97 29.264 1220.61 28.736 1220.61 27.952V27.728ZM1232.88 22.048H1234.85L1230.82 35.216H1228.84L1232.88 22.048ZM1161.22 47.68V49.424H1164.11L1163.87 51.024H1161.22V51.584C1161.22 51.92 1161.27 52.288 1161.51 52.528C1162.34 53.376 1163.35 54.288 1164.48 55.216L1163.2 56.448C1162.03 55.568 1160.99 54.736 1160.1 53.856C1159.25 54.784 1158.08 55.856 1156.85 56.816L1155.51 55.648C1156.69 54.672 1157.79 53.6 1158.59 52.656C1158.82 52.384 1158.95 52.016 1158.95 51.68V51.024H1155.97V49.424H1158.95V48L1161.22 47.68ZM1165.33 48.08L1167.51 47.76V62.08L1165.33 62.4V48.08ZM1157.54 59.744H1155.43V58.16H1158.96V55.84H1161.2V58.112C1162.39 58.048 1163.7 57.936 1164.74 57.744V59.344C1162.45 59.648 1160 59.744 1157.54 59.744ZM1183.4 58.704L1183.08 60.336H1169.53V58.704H1173.89V53.888H1176.13V58.704H1183.4ZM1179.22 50.192H1171.22V48.608H1181.48C1181.45 51.136 1181.09 54.848 1180.52 57.344H1178.29C1178.81 55.072 1179.16 52.16 1179.22 50.192ZM1198.94 56.752V54.816H1196.06V53.216H1198.94V51.696H1196.48C1195.37 54.08 1192.59 56.048 1189.98 56.832L1188.94 55.44C1192.12 54.56 1194.67 51.984 1194.67 50.304V50.08H1189.77V48.48H1196.97V49.584C1196.97 49.76 1196.96 49.936 1196.94 50.096H1198.94V48.08L1201.12 47.76V56.432L1198.94 56.752ZM1197.84 56.848C1199.58 56.848 1201.16 57.552 1201.16 59.712C1201.16 61.888 1199.58 62.592 1197.84 62.592H1194.41C1192.6 62.592 1190.99 61.888 1190.99 59.712C1190.99 57.552 1192.6 56.848 1194.41 56.848H1197.84ZM1197.63 58.432H1194.59C1193.72 58.432 1193.13 58.784 1193.13 59.712C1193.13 60.656 1193.72 61.008 1194.59 61.008H1197.63C1198.43 61.008 1199.02 60.656 1199.02 59.712C1199.02 58.784 1198.43 58.432 1197.63 58.432ZM1213.5 56.608V54.48H1211.02V53.968C1210.4 55.152 1209.01 55.776 1207.49 55.776C1205.42 55.776 1203.6 54.624 1203.6 52.48V51.536C1203.6 49.392 1205.42 48.24 1207.49 48.24C1209.01 48.24 1210.4 48.864 1211.02 50.064V49.216H1213.5V48.08L1215.66 47.76V56.288L1213.5 56.608ZM1212.4 56.848C1214.14 56.848 1215.73 57.552 1215.73 59.712C1215.73 61.888 1214.14 62.592 1212.4 62.592H1208.97C1207.17 62.592 1205.55 61.888 1205.55 59.712C1205.55 57.552 1207.17 56.848 1208.97 56.848H1212.4ZM1212.19 58.432H1209.15C1208.29 58.432 1207.69 58.784 1207.69 59.712C1207.69 60.656 1208.29 61.008 1209.15 61.008H1212.19C1212.99 61.008 1213.58 60.656 1213.58 59.712C1213.58 58.784 1212.99 58.432 1212.19 58.432ZM1209.21 52.416V51.6C1209.21 50.48 1208.46 49.84 1207.49 49.84C1206.51 49.84 1205.76 50.48 1205.76 51.6V52.416C1205.76 53.536 1206.51 54.176 1207.49 54.176C1208.46 54.176 1209.21 53.536 1209.21 52.416ZM1211.37 52.48C1211.37 52.624 1211.36 52.752 1211.34 52.88H1213.5V50.8H1211.29C1211.34 51.04 1211.37 51.28 1211.37 51.536V52.48ZM1226.23 50.16H1223.65V51.904C1223.65 52.24 1223.71 52.608 1223.94 52.848C1224.93 53.952 1225.94 54.896 1227.06 55.84L1225.78 57.072C1224.64 56.16 1223.57 55.216 1222.56 54.176C1221.55 55.28 1220.35 56.432 1219.19 57.424L1217.84 56.256C1218.96 55.248 1220.11 54.256 1221.09 52.976C1221.3 52.704 1221.44 52.336 1221.44 52V50.16H1218.56V48.576H1226.55L1226.23 50.16ZM1230.24 47.76V57.952L1228.07 58.272V48.08L1230.24 47.76ZM1230.34 62.336H1220.95V57.712H1223.17V60.736H1230.66L1230.34 62.336ZM1236.74 58.864H1242.63V56.256H1238.82V48.224H1241.03V50.688H1246.28V48.224H1248.49V55.856L1246.28 56.256H1244.94V58.864H1250.62L1250.3 60.496H1236.74V58.864ZM1241.03 54.624H1246.28V52.32H1241.03V54.624ZM1265.18 58.704L1264.86 60.336H1251.31V58.704H1255.67V53.888H1257.91V58.704H1265.18ZM1261 50.192H1253V48.608H1263.26C1263.23 51.136 1262.87 54.848 1262.3 57.344H1260.07C1260.59 55.072 1260.94 52.16 1261 50.192Z" fill="white"/>
<path d="M1175.85 106.816V107.869H1170.88V112.148H1169.61V107.869H1164.68V106.816H1175.85ZM1165.31 104.861C1167.6 104.547 1169.5 103.187 1169.54 101.676H1165.72V100.637H1174.8V101.676H1171.01C1171.04 103.187 1172.92 104.547 1175.24 104.861L1174.76 105.887C1172.75 105.572 1171.01 104.581 1170.27 103.187C1169.52 104.581 1167.79 105.572 1165.81 105.887L1165.31 104.861ZM1188 109.551V110.631H1176.78V109.551H1179.46V106.352C1178.46 105.798 1177.84 104.923 1177.85 103.822C1177.84 101.895 1179.74 100.63 1182.36 100.623C1184.99 100.63 1186.89 101.895 1186.89 103.822C1186.89 104.902 1186.3 105.771 1185.32 106.324V109.551H1188ZM1179.11 103.822C1179.11 105.135 1180.44 105.989 1182.36 105.996C1184.27 105.989 1185.62 105.135 1185.63 103.822C1185.62 102.503 1184.27 101.662 1182.36 101.662C1180.44 101.662 1179.11 102.503 1179.11 103.822ZM1180.75 109.551H1184V106.83C1183.5 106.946 1182.95 107.008 1182.36 107.008C1181.79 107.008 1181.24 106.946 1180.75 106.83V109.551ZM1202.47 99.9121V112.189H1201.17V99.9121H1202.47ZM1192.99 102.072V101.02H1198.73V105.49H1194.33V108.17C1196.31 108.163 1198.04 108.067 1200.09 107.732L1200.22 108.799C1198.05 109.161 1196.21 109.243 1194.04 109.25H1193V104.451H1197.4V102.072H1192.99ZM1210.62 101.648C1210.62 103.645 1212.75 105.531 1215.11 105.955L1214.5 107.035C1212.54 106.611 1210.75 105.326 1209.95 103.604C1209.15 105.319 1207.35 106.598 1205.39 107.035L1204.81 105.955C1207.14 105.518 1209.25 103.645 1209.25 101.648V100.719H1210.62V101.648ZM1204.4 110.549V109.469H1215.61V110.549H1204.4ZM1226.36 101.102V102.592C1226.36 104.383 1226.36 106.064 1225.83 108.607L1224.54 108.484C1224.8 107.356 1224.94 106.379 1225 105.47L1217.65 105.859L1217.49 104.793L1225.07 104.506C1225.09 103.85 1225.09 103.221 1225.1 102.592V102.168H1217.83V101.102H1226.36ZM1216.5 110.521V109.455H1227.67V110.521H1216.5ZM1243.23 109.564V110.645H1232.02V109.564H1236.95V107.049H1233.3V100.746H1234.6V102.852H1240.62V100.746H1241.9V107.049H1238.24V109.564H1243.23ZM1234.6 105.996H1240.62V103.904H1234.6V105.996ZM1254.03 101.088V102.291C1254.02 103.802 1254.02 105.497 1253.57 108.006L1252.25 107.869C1252.72 105.497 1252.72 103.761 1252.73 102.291V102.141H1245.29V101.088H1254.03ZM1244.12 110.508V109.428H1248.37V105.107H1249.66V109.428H1255.29V110.508H1244.12Z" fill="#737373"/>
<defs>
<clipPath id="clip0_307_2562">
<rect width="24" height="24" fill="white" transform="translate(190 54) rotate(-90)"/>
</clipPath>
<clipPath id="clip1_307_2562">
<rect width="24" height="24" fill="white" transform="translate(414 54) rotate(-90)"/>
</clipPath>
<clipPath id="clip2_307_2562">
<rect width="24" height="24" fill="white" transform="translate(638 54) rotate(-90)"/>
</clipPath>
<clipPath id="clip3_307_2562">
<rect width="24" height="24" fill="white" transform="translate(862 54) rotate(-90)"/>
</clipPath>
<clipPath id="clip4_307_2562">
<rect width="24" height="24" fill="white" transform="translate(1086 54) rotate(-90)"/>
</clipPath>
</defs>
</svg>
