<svg width="351" height="172" viewBox="0 0 351 172" fill="none" xmlns="http://www.w3.org/2000/svg">
<g clip-path="url(#clip0_1_1762)">
<rect width="84.75" height="84.75" rx="15.8906" transform="matrix(0.72165 -0.692258 0.719187 0.694817 114.349 52.5039)" fill="#FF7C32"/>
<path d="M145.432 51.1752V48.8052H140.857V47.3202H147.487V52.6452H142.942V55.0452H144.022C145.387 55.0452 147.472 54.9852 148.912 54.6852V56.1702C147.382 56.4252 145.252 56.5302 143.842 56.5302H140.857V51.1752H145.432ZM151.552 46.4352V59.8602L149.512 60.1602V46.7352L151.552 46.4352ZM166.465 56.6652L166.165 58.1952H153.46V56.6652H166.465ZM161.035 46.9902V49.2702C161.035 49.5852 161.065 49.9602 161.305 50.1552C162.37 51.0552 164.335 52.5402 165.64 53.3952L164.53 54.6552C163.21 53.8152 161.02 52.3152 160 51.4002C158.95 52.3002 156.805 53.8752 155.365 54.7602L154.24 53.5152C155.635 52.6002 157.51 51.2202 158.56 50.2752C158.8 50.0652 158.89 49.6752 158.89 49.3602V47.2902L161.035 46.9902ZM168.642 53.0502V51.5502C170.607 51.5502 173.652 51.4752 175.992 51.2802C176.097 50.4252 176.172 49.5702 176.202 48.7752H168.852V47.2902H178.317C178.287 49.6602 177.927 53.2302 177.327 55.6002H175.212C175.422 54.7902 175.632 53.8302 175.782 52.8102C173.472 52.9752 170.682 53.0502 168.642 53.0502ZM180.117 56.4852L179.817 58.0152H167.112V56.4852H180.117ZM189.004 48.2202H193.909V46.7352H195.979V52.1202L193.909 52.4952H186.919V46.7352H189.004V48.2202ZM197.674 55.0452H192.934V57.5502H190.834V55.0452H184.969V53.5452H197.974L197.674 55.0452ZM196.084 60.1002H186.919V56.3502H189.004V58.6002H196.384L196.084 60.1002ZM189.004 50.9952H193.909V49.6902H189.004V50.9952ZM206.361 50.0952V53.7252C206.361 55.7352 204.981 56.9052 202.896 56.9052C200.811 56.9052 199.431 55.7352 199.431 53.7252V50.0952C199.431 48.0852 200.811 46.9152 202.896 46.9152C204.981 46.9152 206.361 48.0852 206.361 50.0952ZM210.006 46.4352V48.9552H212.121L211.851 50.4402H210.006V53.1552H212.121L211.851 54.6402H210.006V59.8602L207.981 60.1602V46.7352L210.006 46.4352ZM204.321 53.6652V50.1402C204.321 49.0602 203.946 48.4302 202.896 48.4302C201.846 48.4302 201.471 49.0602 201.471 50.1402V53.6652C201.471 54.7452 201.846 55.3902 202.896 55.3902C203.946 55.3902 204.321 54.7452 204.321 53.6652Z" fill="white"/>
</g>
<path d="M292 121V117C292 114.791 290.209 113 288 113H63C60.7909 113 59 114.791 59 117V121" stroke="#C2CBE5" stroke-linecap="round" stroke-dasharray="1.83 1.83"/>
<line x1="175.406" y1="106.5" x2="175.406" y2="120.5" stroke="#C2CBE5" stroke-linecap="round" stroke-dasharray="1.83 1.83"/>
<g filter="url(#filter0_f_1_1762)">
<rect x="8" y="129" width="101" height="35" rx="8" fill="#578DF4" fill-opacity="0.5"/>
</g>
<rect x="6" y="125" width="106" height="39" rx="8" fill="#4B84F0"/>
<path d="M41.3345 139.115V150.668H39.7856V144.879H38.8081V150.135H37.272V146.828L36.3579 148.04C35.2852 147.475 34.5933 146.517 34.1807 145.342C33.7998 146.694 33.1206 147.799 32.0161 148.459L31.0132 147.215C32.7715 146.225 33.3555 144.181 33.3618 141.972V141.604H31.4067V140.309H36.7007V141.604H34.936V141.972C34.936 143.984 35.5327 145.901 37.272 146.802V139.28H38.8081V143.559H39.7856V139.115H41.3345ZM53.0522 145.577V146.872H48.5327V150.655H46.9331V146.872H42.4771V145.577H53.0522ZM43.7212 144.333V139.674H51.7827V144.333H43.7212ZM45.3208 143.063H50.1704V140.956H45.3208V143.063ZM63.4116 139.115V150.693H61.7993V139.115H63.4116ZM54.3345 141.388V140.08H59.8315V144.536H56.0229V146.656C57.7876 146.644 59.2793 146.555 60.9741 146.275L61.1138 147.583C59.2158 147.919 57.4956 147.989 55.3882 147.989H54.3472V143.254H58.1812V141.388H54.3345ZM71.0415 140.639C71.0352 142.333 72.5396 144.143 75.1548 144.587L74.4438 145.933C72.4253 145.533 70.9336 144.396 70.1846 142.917C69.4229 144.384 67.9248 145.526 65.9253 145.933L65.2271 144.587C67.7979 144.13 69.3022 142.314 69.3149 140.639V139.801H71.0415V140.639ZM64.9604 149.246V147.913H75.5356V149.246H64.9604ZM85.6538 140.131V141.477C85.6475 143.159 85.6475 144.758 85.1206 147.266L83.5083 147.113C83.7368 146.155 83.8701 145.304 83.9526 144.523L77.2495 144.854L77.0464 143.559L84.0352 143.305C84.0605 142.67 84.0669 142.073 84.0669 141.477V141.426H77.4019V140.131H85.6538ZM76.1958 149.284V147.964H86.7329V149.284H76.1958Z" fill="white"/>
<path d="M62.1616 124.5C62.1616 126.159 60.8169 127.503 59.1582 127.503C57.4995 127.503 56.1548 126.159 56.1548 124.5C56.1548 122.841 57.4995 121.497 59.1582 121.497C60.8169 121.497 62.1616 122.841 62.1616 124.5Z" fill="white" stroke="#4B84F0" stroke-width="0.993164"/>
<g filter="url(#filter1_f_1_1762)">
<rect x="124.906" y="129" width="102" height="35" rx="8" fill="#578DF4" fill-opacity="0.5"/>
</g>
<rect x="122.5" y="125" width="106" height="39" rx="8" fill="#4B84F0"/>
<path d="M150.979 139.737C151.899 139.731 152.706 140.074 153.258 140.639H155.879V139.115H157.492V145.882H155.879V144.498H153.245C152.693 145.057 151.893 145.393 150.979 145.387C149.227 145.393 147.894 144.2 147.907 142.568C147.894 140.918 149.227 139.731 150.979 139.737ZM149.443 142.568C149.437 143.457 150.078 144.022 150.979 144.016C151.849 144.022 152.483 143.457 152.49 142.568C152.483 141.648 151.849 141.115 150.979 141.121C150.078 141.115 149.437 141.648 149.443 142.568ZM149.57 148.396C149.57 146.961 151.1 146.117 153.543 146.123C155.987 146.117 157.523 146.961 157.53 148.396C157.523 149.83 155.987 150.674 153.543 150.668C151.1 150.674 149.57 149.83 149.57 148.396ZM151.157 148.396C151.157 149.068 152.014 149.411 153.543 149.411C155.105 149.411 155.937 149.068 155.943 148.396C155.937 147.704 155.105 147.361 153.543 147.354C152.014 147.361 151.157 147.704 151.157 148.396ZM153.95 141.921C154 142.124 154.026 142.346 154.026 142.568C154.026 142.791 154 143 153.956 143.203H155.879V141.921H153.95ZM162.214 139.61C163.687 139.598 164.861 140.442 165.179 141.68H167.115V139.115H168.727V145.323H167.115V142.975H165.185C164.887 144.244 163.7 145.107 162.214 145.107C160.437 145.107 159.129 143.952 159.142 142.34C159.129 140.759 160.437 139.598 162.214 139.61ZM160.678 142.34C160.672 143.203 161.307 143.749 162.214 143.749C163.09 143.749 163.719 143.203 163.725 142.34C163.719 141.477 163.09 140.95 162.214 140.956C161.307 140.95 160.672 141.477 160.678 142.34ZM161.021 150.541V145.831H162.621V146.948H167.115V145.831H168.727V150.541H161.021ZM162.621 149.233H167.115V148.192H162.621V149.233ZM179.912 139.115V150.693H178.299V139.115H179.912ZM170.834 141.388V140.08H176.332V144.536H172.523V146.656C174.288 146.644 175.779 146.555 177.474 146.275L177.614 147.583C175.716 147.919 173.996 147.989 171.888 147.989H170.847V143.254H174.681V141.388H170.834ZM187.542 140.639C187.535 142.333 189.04 144.143 191.655 144.587L190.944 145.933C188.925 145.533 187.434 144.396 186.685 142.917C185.923 144.384 184.425 145.526 182.425 145.933L181.727 144.587C184.298 144.13 185.802 142.314 185.815 140.639V139.801H187.542V140.639ZM181.46 149.246V147.913H192.036V149.246H181.46ZM202.154 140.131V141.477C202.147 143.159 202.147 144.758 201.621 147.266L200.008 147.113C200.237 146.155 200.37 145.304 200.453 144.523L193.75 144.854L193.546 143.559L200.535 143.305C200.561 142.67 200.567 142.073 200.567 141.477V141.426H193.902V140.131H202.154ZM192.696 149.284V147.964H203.233V149.284H192.696Z" fill="white"/>
<path d="M178.662 124.5C178.662 126.159 177.317 127.503 175.658 127.503C173.999 127.503 172.655 126.159 172.655 124.5C172.655 122.841 173.999 121.497 175.658 121.497C177.317 121.497 178.662 122.841 178.662 124.5Z" fill="white" stroke="#4B84F0" stroke-width="0.993164"/>
<g filter="url(#filter2_f_1_1762)">
<rect x="241.812" y="129" width="101" height="35" rx="8" fill="#578DF4" fill-opacity="0.5"/>
</g>
<rect x="239" y="125" width="106" height="39" rx="8" fill="#4B84F0"/>
<path d="M251.654 141.73C251.648 143.8 252.53 145.888 254.384 146.783L253.406 148.078C252.168 147.462 251.331 146.32 250.854 144.93C250.347 146.421 249.458 147.646 248.15 148.294L247.147 146.986C249.109 146.085 250.029 143.876 250.029 141.73V140.004H251.654V141.73ZM254.892 150.668V139.115H256.517V143.571H258.218V144.942H256.517V150.668H254.892ZM261.861 139.61C263.334 139.598 264.508 140.442 264.826 141.68H266.762V139.115H268.374V145.323H266.762V142.975H264.832C264.534 144.244 263.347 145.107 261.861 145.107C260.084 145.107 258.776 143.952 258.789 142.34C258.776 140.759 260.084 139.598 261.861 139.61ZM260.325 142.34C260.319 143.203 260.954 143.749 261.861 143.749C262.737 143.749 263.366 143.203 263.372 142.34C263.366 141.477 262.737 140.95 261.861 140.956C260.954 140.95 260.319 141.477 260.325 142.34ZM260.668 150.541V145.831H262.268V146.948H266.762V145.831H268.374V150.541H260.668ZM262.268 149.233H266.762V148.192H262.268V149.233ZM279.609 139.128V147.57H277.997V144.828H275.356C274.798 145.418 273.998 145.78 273.097 145.78C271.345 145.78 270.012 144.511 270.024 142.797C270.012 141.058 271.345 139.794 273.097 139.788C273.992 139.794 274.792 140.15 275.35 140.74H277.997V139.128H279.609ZM271.561 142.797C271.554 143.762 272.195 144.346 273.097 144.346C273.947 144.346 274.601 143.762 274.607 142.797C274.601 141.819 273.947 141.235 273.097 141.235C272.195 141.235 271.554 141.819 271.561 142.797ZM271.941 150.465V146.72H273.566V149.17H279.889V150.465H271.941ZM276.048 142.035C276.112 142.276 276.144 142.53 276.144 142.797C276.144 143.051 276.112 143.298 276.055 143.533H277.997V142.035H276.048ZM291.645 144.739V146.034H281.107V144.739H285.563V143.203H287.163V144.739H291.645ZM281.653 142.632C284.205 142.308 285.532 140.988 285.538 139.687V139.306H287.188V139.687C287.182 141.039 288.477 142.308 291.086 142.632L290.464 143.889C288.509 143.597 287.074 142.778 286.344 141.623C285.608 142.771 284.173 143.603 282.225 143.889L281.653 142.632ZM282.275 148.104V146.847H290.362V150.668H288.75V148.104H282.275ZM296.71 140.689C296.704 142.232 297.497 143.66 299.351 144.231L298.5 145.501C297.256 145.069 296.412 144.276 295.923 143.235C295.415 144.441 294.482 145.387 293.092 145.856L292.241 144.562C294.215 143.927 295.066 142.378 295.072 140.766V139.712H296.71V140.689ZM294.158 148.434C294.158 147.012 295.669 146.18 298.132 146.187C300.601 146.18 302.112 147.012 302.118 148.434C302.112 149.862 300.601 150.674 298.132 150.668C295.669 150.674 294.158 149.862 294.158 148.434ZM295.771 148.434C295.771 149.075 296.602 149.411 298.132 149.411C299.668 149.411 300.5 149.075 300.506 148.434C300.5 147.773 299.668 147.443 298.132 147.443C296.602 147.443 295.771 147.773 295.771 148.434ZM298.297 142.556V141.235H300.468V139.115H302.08V145.882H300.468V142.556H298.297ZM313.265 139.115V150.693H311.652V139.115H313.265ZM304.188 141.388V140.08H309.685V144.536H305.876V146.656C307.641 146.644 309.132 146.555 310.827 146.275L310.967 147.583C309.069 147.919 307.349 147.989 305.241 147.989H304.2V143.254H308.034V141.388H304.188ZM320.895 140.639C320.888 142.333 322.393 144.143 325.008 144.587L324.297 145.933C322.278 145.533 320.787 144.396 320.038 142.917C319.276 144.384 317.778 145.526 315.778 145.933L315.08 144.587C317.651 144.13 319.155 142.314 319.168 140.639V139.801H320.895V140.639ZM314.813 149.246V147.913H325.389V149.246H314.813ZM335.507 140.131V141.477C335.5 143.159 335.5 144.758 334.974 147.266L333.361 147.113C333.59 146.155 333.723 145.304 333.806 144.523L327.103 144.854L326.899 143.559L333.888 143.305C333.914 142.67 333.92 142.073 333.92 141.477V141.426H327.255V140.131H335.507ZM326.049 149.284V147.964H336.586V149.284H326.049Z" fill="white"/>
<path d="M295.162 124.5C295.162 126.159 293.817 127.503 292.158 127.503C290.499 127.503 289.155 126.159 289.155 124.5C289.155 122.841 290.499 121.497 292.158 121.497C293.817 121.497 295.162 122.841 295.162 124.5Z" fill="white" stroke="#4B84F0" stroke-width="0.993164"/>
<defs>
<filter id="filter0_f_1_1762" x="0.68395" y="121.684" width="115.632" height="49.6321" filterUnits="userSpaceOnUse" color-interpolation-filters="sRGB">
<feFlood flood-opacity="0" result="BackgroundImageFix"/>
<feBlend mode="normal" in="SourceGraphic" in2="BackgroundImageFix" result="shape"/>
<feGaussianBlur stdDeviation="3.65803" result="effect1_foregroundBlur_1_1762"/>
</filter>
<filter id="filter1_f_1_1762" x="117.59" y="121.684" width="116.632" height="49.6321" filterUnits="userSpaceOnUse" color-interpolation-filters="sRGB">
<feFlood flood-opacity="0" result="BackgroundImageFix"/>
<feBlend mode="normal" in="SourceGraphic" in2="BackgroundImageFix" result="shape"/>
<feGaussianBlur stdDeviation="3.65803" result="effect1_foregroundBlur_1_1762"/>
</filter>
<filter id="filter2_f_1_1762" x="234.496" y="121.684" width="115.632" height="49.6321" filterUnits="userSpaceOnUse" color-interpolation-filters="sRGB">
<feFlood flood-opacity="0" result="BackgroundImageFix"/>
<feBlend mode="normal" in="SourceGraphic" in2="BackgroundImageFix" result="shape"/>
<feGaussianBlur stdDeviation="3.65803" result="effect1_foregroundBlur_1_1762"/>
</filter>
<clipPath id="clip0_1_1762">
<rect width="109" height="106" fill="white" transform="translate(121)"/>
</clipPath>
</defs>
</svg>
