<svg width="604" height="262" viewBox="0 0 604 262" fill="none" xmlns="http://www.w3.org/2000/svg">
<g clip-path="url(#clip0_1_1092)">
<rect width="128" height="128" rx="24" transform="matrix(0.72165 -0.692258 0.719187 0.694817 209.5 83.2979)" fill="#FF7C32"/>
<path d="M261.209 80.3179V77.1579H255.109V75.1779H263.949V82.2779H257.889V85.4779H259.329C261.149 85.4779 263.929 85.3979 265.849 84.9979V86.9779C263.809 87.3179 260.969 87.4579 259.089 87.4579H255.109V80.3179H261.209ZM269.369 73.9979V91.8979L266.649 92.2979V74.3979L269.369 73.9979ZM289.253 87.6379L288.853 89.6779H271.913V87.6379H289.253ZM282.013 74.7379V77.7779C282.013 78.1979 282.053 78.6979 282.373 78.9579C283.793 80.1579 286.413 82.1379 288.153 83.2779L286.673 84.9579C284.913 83.8379 281.993 81.8379 280.633 80.6179C279.233 81.8179 276.373 83.9179 274.453 85.0979L272.953 83.4379C274.813 82.2179 277.313 80.3779 278.713 79.1179C279.033 78.8379 279.153 78.3179 279.153 77.8979V75.1379L282.013 74.7379ZM292.156 82.8179V80.8179C294.776 80.8179 298.836 80.7179 301.956 80.4579C302.096 79.3179 302.196 78.1779 302.236 77.1179H292.436V75.1379H305.056C305.016 78.2979 304.536 83.0579 303.736 86.2179H300.916C301.196 85.1379 301.476 83.8579 301.676 82.4979C298.596 82.7179 294.876 82.8179 292.156 82.8179ZM307.456 87.3979L307.056 89.4379H290.116V87.3979H307.456ZM319.304 76.3779H325.844V74.3979H328.604V81.5779L325.844 82.0779H316.524V74.3979H319.304V76.3779ZM330.864 85.4779H324.544V88.8179H321.744V85.4779H313.924V83.4779H331.264L330.864 85.4779ZM328.744 92.2179H316.524V87.2179H319.304V90.2179H329.144L328.744 92.2179ZM319.304 80.0779H325.844V78.3379H319.304V80.0779ZM342.447 78.8779V83.7179C342.447 86.3979 340.607 87.9579 337.827 87.9579C335.047 87.9579 333.207 86.3979 333.207 83.7179V78.8779C333.207 76.1979 335.047 74.6379 337.827 74.6379C340.607 74.6379 342.447 76.1979 342.447 78.8779ZM347.307 73.9979V77.3579H350.127L349.767 79.3379H347.307V82.9579H350.127L349.767 84.9379H347.307V91.8979L344.607 92.2979V74.3979L347.307 73.9979ZM339.727 83.6379V78.9379C339.727 77.4979 339.227 76.6579 337.827 76.6579C336.427 76.6579 335.927 77.4979 335.927 78.9379V83.6379C335.927 85.0779 336.427 85.9379 337.827 85.9379C339.227 85.9379 339.727 85.0779 339.727 83.6379Z" fill="white"/>
</g>
<path d="M478 185.047V179.572C478 176.52 475.526 174.047 472.475 174.047H131.525C128.474 174.047 126 176.52 126 179.572V185.047" stroke="#C2CBE5" stroke-width="1.25" stroke-linecap="round" stroke-dasharray="2.76 2.76"/>
<line x1="302.625" y1="163.625" x2="302.625" y2="184.375" stroke="#C2CBE5" stroke-width="1.25" stroke-linecap="round" stroke-dasharray="2.76 2.76"/>
<g filter="url(#filter0_f_1_1092)">
<rect x="49.4531" y="197.334" width="124.308" height="52.4856" rx="11.0496" fill="#578DF4" fill-opacity="0.5"/>
</g>
<rect x="46" y="189.814" width="160" height="60" rx="11.0496" fill="#4B84F0"/>
<path d="M101.54 211.436V227.432H99.3955V219.416H98.042V226.693H95.915V222.114L94.6494 223.793C93.1641 223.011 92.2061 221.684 91.6348 220.058C91.1074 221.93 90.167 223.459 88.6377 224.373L87.249 222.65C89.6836 221.279 90.4922 218.449 90.501 215.391V214.881H87.7939V213.088H95.124V214.881H92.6807V215.391C92.6807 218.177 93.5068 220.831 95.915 222.079V211.664H98.042V217.588H99.3955V211.436H101.54ZM117.765 220.383V222.176H111.507V227.414H109.292V222.176H103.122V220.383H117.765ZM104.845 218.66V212.209H116.007V218.66H104.845ZM107.06 216.902H113.774V213.984H107.06V216.902ZM132.108 211.436V227.467H129.876V211.436H132.108ZM119.54 214.582V212.771H127.151V218.941H121.878V221.877C124.321 221.859 126.387 221.736 128.733 221.35L128.927 223.16C126.299 223.626 123.917 223.723 120.999 223.723H119.558V217.166H124.866V214.582H119.54ZM142.673 213.545C142.664 215.892 144.747 218.396 148.368 219.012L147.384 220.875C144.589 220.321 142.523 218.748 141.486 216.7C140.432 218.73 138.357 220.312 135.589 220.875L134.622 219.012C138.182 218.379 140.265 215.865 140.282 213.545V212.385H142.673V213.545ZM134.253 225.463V223.617H148.896V225.463H134.253ZM162.905 212.842V214.705C162.896 217.034 162.896 219.249 162.167 222.721L159.935 222.51C160.251 221.183 160.436 220.005 160.55 218.924L151.269 219.381L150.987 217.588L160.664 217.236C160.699 216.357 160.708 215.531 160.708 214.705V214.635H151.479V212.842H162.905ZM149.81 225.516V223.688H164.399V225.516H149.81Z" fill="white"/>
<path d="M130.25 190.047C130.25 192.394 128.347 194.297 126 194.297C123.653 194.297 121.75 192.394 121.75 190.047C121.75 187.7 123.653 185.797 126 185.797C128.347 185.797 130.25 187.7 130.25 190.047Z" fill="white" stroke="#4B84F0" stroke-width="1.5"/>
<g filter="url(#filter1_f_1_1092)">
<rect x="225.667" y="197.649" width="124.308" height="52.4856" rx="11.0496" fill="#578DF4" fill-opacity="0.5"/>
</g>
<rect x="222" y="190.13" width="160" height="60" rx="11.0496" fill="#4B84F0"/>
<path d="M268.048 212.612C269.322 212.604 270.438 213.078 271.203 213.86H274.833V211.751H277.065V221.12H274.833V219.204H271.186C270.421 219.978 269.313 220.443 268.048 220.435C265.622 220.443 263.776 218.791 263.794 216.532C263.776 214.247 265.622 212.604 268.048 212.612ZM265.921 216.532C265.912 217.763 266.8 218.545 268.048 218.536C269.252 218.545 270.131 217.763 270.14 216.532C270.131 215.258 269.252 214.52 268.048 214.528C266.8 214.52 265.912 215.258 265.921 216.532ZM266.097 224.601C266.097 222.614 268.215 221.445 271.599 221.454C274.982 221.445 277.109 222.614 277.118 224.601C277.109 226.587 274.982 227.756 271.599 227.747C268.215 227.756 266.097 226.587 266.097 224.601ZM268.294 224.601C268.294 225.532 269.48 226.007 271.599 226.007C273.761 226.007 274.912 225.532 274.921 224.601C274.912 223.643 273.761 223.168 271.599 223.159C269.48 223.168 268.294 223.643 268.294 224.601ZM272.161 215.636C272.231 215.917 272.267 216.225 272.267 216.532C272.267 216.84 272.231 217.13 272.17 217.411H274.833V215.636H272.161ZM283.604 212.437C285.644 212.419 287.27 213.588 287.709 215.302H290.39V211.751H292.622V220.347H290.39V217.095H287.718C287.305 218.853 285.661 220.048 283.604 220.048C281.144 220.048 279.333 218.448 279.351 216.216C279.333 214.027 281.144 212.419 283.604 212.437ZM281.478 216.216C281.469 217.411 282.348 218.167 283.604 218.167C284.817 218.167 285.688 217.411 285.696 216.216C285.688 215.021 284.817 214.291 283.604 214.3C282.348 214.291 281.469 215.021 281.478 216.216ZM281.952 227.571V221.05H284.167V222.597H290.39V221.05H292.622V227.571H281.952ZM284.167 225.761H290.39V224.319H284.167V225.761ZM308.108 211.751V227.782H305.876V211.751H308.108ZM295.54 214.897V213.087H303.151V219.257H297.878V222.192C300.321 222.175 302.387 222.052 304.733 221.665L304.927 223.476C302.299 223.941 299.917 224.038 296.999 224.038H295.558V217.481H300.866V214.897H295.54ZM318.673 213.86C318.664 216.207 320.747 218.712 324.368 219.327L323.384 221.19C320.589 220.637 318.523 219.063 317.486 217.016C316.432 219.046 314.357 220.628 311.589 221.19L310.622 219.327C314.182 218.694 316.265 216.181 316.282 213.86V212.7H318.673V213.86ZM310.253 225.778V223.933H324.896V225.778H310.253ZM338.905 213.157V215.021C338.896 217.35 338.896 219.564 338.167 223.036L335.935 222.825C336.251 221.498 336.436 220.32 336.55 219.239L327.269 219.696L326.987 217.903L336.664 217.552C336.699 216.673 336.708 215.847 336.708 215.021V214.95H327.479V213.157H338.905ZM325.81 225.831V224.003H340.399V225.831H325.81Z" fill="white"/>
<path d="M306.25 190.047C306.25 192.394 304.347 194.297 302 194.297C299.653 194.297 297.75 192.394 297.75 190.047C297.75 187.7 299.653 185.797 302 185.797C304.347 185.797 306.25 187.7 306.25 190.047Z" fill="white" stroke="#4B84F0" stroke-width="1.5"/>
<g filter="url(#filter2_f_1_1092)">
<rect x="401.881" y="197.399" width="124.308" height="52.4856" rx="11.0496" fill="#578DF4" fill-opacity="0.5"/>
</g>
<rect x="398" y="189.88" width="160" height="60" rx="11.0496" fill="#4B84F0"/>
<path d="M422.137 215.122C422.128 217.987 423.35 220.879 425.916 222.118L424.562 223.911C422.849 223.059 421.688 221.477 421.029 219.552C420.326 221.617 419.096 223.313 417.285 224.21L415.896 222.399C418.612 221.151 419.887 218.093 419.887 215.122V212.731H422.137V215.122ZM426.619 227.497V211.501H428.869V217.671H431.225V219.569H428.869V227.497H426.619ZM436.27 212.187C438.309 212.169 439.935 213.338 440.374 215.052H443.055V211.501H445.287V220.097H443.055V216.845H440.383C439.97 218.603 438.326 219.798 436.27 219.798C433.809 219.798 431.998 218.198 432.016 215.966C431.998 213.777 433.809 212.169 436.27 212.187ZM434.143 215.966C434.134 217.161 435.013 217.917 436.27 217.917C437.482 217.917 438.353 217.161 438.361 215.966C438.353 214.771 437.482 214.041 436.27 214.05C435.013 214.041 434.134 214.771 434.143 215.966ZM434.617 227.321V220.8H436.832V222.347H443.055V220.8H445.287V227.321H434.617ZM436.832 225.511H443.055V224.069H436.832V225.511ZM460.844 211.519V223.208H458.611V219.411H454.955C454.182 220.229 453.074 220.729 451.826 220.729C449.4 220.729 447.555 218.972 447.572 216.599C447.555 214.19 449.4 212.441 451.826 212.433C453.065 212.441 454.173 212.934 454.946 213.751H458.611V211.519H460.844ZM449.699 216.599C449.69 217.935 450.578 218.743 451.826 218.743C453.004 218.743 453.909 217.935 453.918 216.599C453.909 215.245 453.004 214.437 451.826 214.437C450.578 214.437 449.69 215.245 449.699 216.599ZM450.227 227.216V222.03H452.477V225.423H461.23V227.216H450.227ZM455.913 215.544C456.001 215.878 456.045 216.229 456.045 216.599C456.045 216.95 456.001 217.293 455.922 217.618H458.611V215.544H455.913ZM477.508 219.288V221.081H462.918V219.288H469.088V217.161H471.303V219.288H477.508ZM463.674 216.37C467.207 215.922 469.044 214.094 469.053 212.292V211.765H471.338V212.292C471.329 214.164 473.122 215.922 476.734 216.37L475.873 218.11C473.166 217.706 471.18 216.572 470.169 214.973C469.149 216.563 467.163 217.715 464.465 218.11L463.674 216.37ZM464.535 223.946V222.206H475.732V227.497H473.5V223.946H464.535ZM484.521 213.681C484.513 215.816 485.611 217.794 488.178 218.585L487 220.343C485.277 219.745 484.108 218.646 483.432 217.205C482.729 218.875 481.437 220.185 479.512 220.835L478.334 219.042C481.067 218.163 482.245 216.019 482.254 213.786V212.327H484.521V213.681ZM480.988 224.403C480.988 222.435 483.08 221.283 486.49 221.292C489.909 221.283 492.001 222.435 492.01 224.403C492.001 226.381 489.909 227.506 486.49 227.497C483.08 227.506 480.988 226.381 480.988 224.403ZM483.221 224.403C483.221 225.291 484.372 225.757 486.49 225.757C488.617 225.757 489.769 225.291 489.777 224.403C489.769 223.489 488.617 223.032 486.49 223.032C484.372 223.032 483.221 223.489 483.221 224.403ZM486.719 216.265V214.437H489.725V211.501H491.957V220.87H489.725V216.265H486.719ZM507.443 211.501V227.532H505.211V211.501H507.443ZM494.875 214.647V212.837H502.486V219.007H497.213V221.942C499.656 221.925 501.722 221.802 504.068 221.415L504.262 223.226C501.634 223.691 499.252 223.788 496.334 223.788H494.893V217.231H500.201V214.647H494.875ZM518.008 213.61C517.999 215.957 520.082 218.462 523.703 219.077L522.719 220.94C519.924 220.387 517.858 218.813 516.821 216.766C515.767 218.796 513.692 220.378 510.924 220.94L509.957 219.077C513.517 218.444 515.6 215.931 515.617 213.61V212.45H518.008V213.61ZM509.588 225.528V223.683H524.23V225.528H509.588ZM538.24 212.907V214.771C538.231 217.1 538.231 219.314 537.502 222.786L535.27 222.575C535.586 221.248 535.771 220.07 535.885 218.989L526.604 219.446L526.322 217.653L535.999 217.302C536.034 216.423 536.043 215.597 536.043 214.771V214.7H526.814V212.907H538.24ZM525.145 225.581V223.753H539.734V225.581H525.145Z" fill="white"/>
<path d="M482.25 190.047C482.25 192.394 480.347 194.297 478 194.297C475.653 194.297 473.75 192.394 473.75 190.047C473.75 187.7 475.653 185.797 478 185.797C480.347 185.797 482.25 187.7 482.25 190.047Z" fill="white" stroke="#4B84F0" stroke-width="1.5"/>
<defs>
<filter id="filter0_f_1_1092" x="38.4035" y="186.284" width="146.407" height="74.5848" filterUnits="userSpaceOnUse" color-interpolation-filters="sRGB">
<feFlood flood-opacity="0" result="BackgroundImageFix"/>
<feBlend mode="normal" in="SourceGraphic" in2="BackgroundImageFix" result="shape"/>
<feGaussianBlur stdDeviation="5.5248" result="effect1_foregroundBlur_1_1092"/>
</filter>
<filter id="filter1_f_1_1092" x="214.617" y="186.6" width="146.407" height="74.5848" filterUnits="userSpaceOnUse" color-interpolation-filters="sRGB">
<feFlood flood-opacity="0" result="BackgroundImageFix"/>
<feBlend mode="normal" in="SourceGraphic" in2="BackgroundImageFix" result="shape"/>
<feGaussianBlur stdDeviation="5.5248" result="effect1_foregroundBlur_1_1092"/>
</filter>
<filter id="filter2_f_1_1092" x="390.832" y="186.35" width="146.407" height="74.5848" filterUnits="userSpaceOnUse" color-interpolation-filters="sRGB">
<feFlood flood-opacity="0" result="BackgroundImageFix"/>
<feBlend mode="normal" in="SourceGraphic" in2="BackgroundImageFix" result="shape"/>
<feGaussianBlur stdDeviation="5.5248" result="effect1_foregroundBlur_1_1092"/>
</filter>
<clipPath id="clip0_1_1092">
<rect width="165" height="159" fill="white" transform="translate(219.5 4)"/>
</clipPath>
</defs>
</svg>
