<svg width="149" height="19" viewBox="0 0 149 19" fill="none" xmlns="http://www.w3.org/2000/svg">
<g clip-path="url(#clip0_2863_42975)">
<path d="M65.4338 8.61799C64.7403 8.25376 63.8608 7.83955 62.7884 7.37535C62.7026 7.33964 62.6097 7.28965 62.481 7.2468C61.4657 6.85401 60.8508 6.67546 60.3003 6.36837C60.2574 6.35409 60.2217 6.33268 60.1788 6.31839C59.6211 6.0113 59.2922 5.78276 59.185 5.71135C58.8132 5.36855 58.5915 4.96146 58.5915 4.51868C58.5915 3.31888 60.3003 2.26191 62.245 2.26191C62.388 2.26191 62.5382 2.26905 62.6812 2.28333C62.7241 2.28333 62.7669 2.29049 62.8098 2.29763C64.4471 2.4976 66.1344 3.36173 66.3275 4.38299C66.3275 4.39013 66.3418 4.40442 66.3489 4.41871C66.4419 4.66867 66.5348 4.89006 66.6278 4.99718C66.6278 5.00432 67.2998 5.26142 67.2998 5.26142V1.16211H66.8566C66.735 1.16211 66.6778 1.26208 66.6421 1.39063C66.5491 1.77628 66.2989 1.94055 66.0057 1.94055C65.8485 1.94055 65.398 1.88342 65.0334 1.76201C63.9395 1.40492 62.9171 1.22638 61.959 1.22638C60.1716 1.22638 58.2412 1.66915 57.0758 2.50472C55.9033 3.34744 55.3241 4.40442 55.3241 5.68278C55.3241 6.76831 55.8818 7.68244 56.5682 8.47517C57.3189 9.33931 58.9848 10.2034 61.0725 11.0604C62.9528 11.8532 64.061 12.3745 64.4114 12.6459C64.8689 13.0173 65.1049 13.5172 65.1049 14.1385C65.1049 14.867 64.7474 15.6025 64.0396 16.1025C63.3318 16.6095 62.338 16.7595 61.3013 16.7595C60.1645 16.7595 59.0706 16.4239 58.0768 15.8025C57.0544 15.1812 56.6254 14.2242 56.3966 13.7957C56.175 13.3601 56.2107 13.1601 56.1178 13.053L56.1106 13.0316V13.0458C56.0677 12.9958 56.0177 12.953 55.9748 12.9387C55.9676 12.9316 55.9605 12.9244 55.9533 12.9173C55.7603 12.753 55.3241 12.9173 55.3241 12.9173V17.2451L55.2812 17.8022L56.0034 17.8308C56.0034 17.8308 56.1106 17.6665 56.175 17.5236C56.3037 17.2308 56.4752 17.0237 56.7612 17.0237C56.797 17.0309 56.8399 17.038 56.8828 17.0523C58.9347 17.6594 60.765 17.9736 61.9376 17.9736C63.8537 17.9736 65.6054 17.3451 66.8923 16.5095C68.0363 15.7668 68.6011 14.6813 68.8013 13.61C68.837 13.4601 68.8656 13.2958 68.8942 13.1101C69.3232 10.0606 65.4552 8.62514 65.4552 8.62514L65.4338 8.61799Z" fill="white"/>
<path d="M61.9157 18.0733C60.6859 18.0733 58.8342 17.5948 56.8251 17.002C56.8037 17.002 56.7822 16.9877 56.7536 16.9877L56.7107 16.9735C56.3175 17.0163 56.0172 17.8305 56.0172 17.8305H55.2021V12.8527L55.9886 12.8313C55.9886 12.8313 56.3032 13.524 56.4247 13.7597L56.4819 13.8668C56.7107 14.3239 57.1898 15.1666 58.1049 15.7237C59.1059 16.345 60.1712 16.6664 61.2794 16.6664C62.4805 16.6664 63.3528 16.4593 63.9533 16.0236C64.604 15.5594 64.9757 14.8738 64.9757 14.1454C64.9757 13.5526 64.7613 13.0884 64.3251 12.7313C63.9962 12.4742 62.8809 11.9457 61.0148 11.1602C58.5982 10.1675 57.154 9.33189 56.4748 8.54631C55.6097 7.55362 55.2021 6.64663 55.2021 5.68964C55.2021 4.38272 55.8099 3.2829 57.0039 2.4259C58.1192 1.62603 60.0139 1.12611 61.9514 1.12611C62.9166 1.12611 63.9605 1.30466 65.0615 1.66888C65.4977 1.81172 65.9052 1.84028 66.0053 1.84028C66.1554 1.84028 66.613 1.07611 66.613 1.07611L67.4066 1.05469V5.35398H66.6202C66.6202 5.35398 66.5844 5.14686 66.1268 4.4684C65.6693 3.78995 64.3823 2.5973 62.8022 2.40447H62.7736C62.7736 2.40447 62.7164 2.3902 62.6807 2.3902C62.5234 2.37591 62.3804 2.36875 62.2517 2.36875C60.3928 2.36875 58.7055 3.39002 58.7055 4.5184C58.7055 4.91119 58.8985 5.29685 59.2632 5.63965C59.2846 5.65393 59.6063 5.88245 60.2355 6.2324L60.2713 6.24669C60.2713 6.24669 60.3213 6.2681 60.3428 6.27524C60.7217 6.48949 61.1149 6.63233 61.6583 6.83229C61.9157 6.92514 62.1945 7.03227 62.5234 7.15368C62.6521 7.20367 62.7522 7.24652 62.8308 7.28937C63.8747 7.7393 64.7613 8.15352 65.4691 8.52489C65.5048 8.53917 69.4085 10.0246 68.9724 13.1241C68.9438 13.3027 68.9152 13.4812 68.8795 13.6312C68.715 14.5096 68.2431 15.738 66.9204 16.595C65.5191 17.5091 63.7388 18.0804 61.9157 18.0804V18.0733Z" fill="white"/>
<path d="M36.0487 1.54102H31.2727V2.35515C31.3728 2.35515 31.4872 2.35515 31.623 2.35515C32.3166 2.35515 32.3166 2.65512 32.3166 2.74796C32.3166 2.98363 31.8161 3.88347 31.1297 5.12612C30.8938 5.56891 30.6793 5.95455 30.4934 6.3045C29.9071 7.39717 29.5425 8.08278 29.1421 8.68268C28.3199 7.36862 27.8051 6.55446 27.1831 5.52606C26.747 4.79046 26.4109 4.29055 26.1893 3.96203C26.0392 3.74064 25.9462 3.59067 25.8962 3.49783C25.7746 3.26215 25.7174 3.03362 25.7174 2.81223C25.7174 2.60512 25.8032 2.40515 26.8685 2.37658H27.1474V1.55529H19.7832V2.448C20.3623 2.45514 20.7699 2.5837 20.9843 2.81223C21.2703 3.22645 21.542 3.60495 21.7923 3.94775C22.3857 4.78333 22.8576 5.44036 23.2293 6.09025C24.6664 8.28989 25.5101 10.0325 25.8962 10.8895V16.0529C25.8962 16.3885 25.8533 16.4242 25.7389 16.5099L25.7174 16.5314C25.6888 16.5742 25.4886 16.7242 24.2589 16.767V17.7169H31.7875V16.7528C31.0511 16.7313 30.7508 16.6885 30.5148 16.6099C30.2932 16.5385 30.1931 16.41 30.1931 16.2029V11.9893C30.1931 11.1394 30.2432 10.5538 30.3504 10.2396C30.4505 9.93961 30.808 9.08261 31.4443 8.00422C31.9519 7.09722 32.3452 6.39735 32.6026 5.91171C34.247 2.83365 34.6045 2.69796 34.6188 2.69796L34.6617 2.67654C34.7761 2.59084 35.1121 2.47657 36.0415 2.40515V1.54814L36.0487 1.54102Z" fill="white"/>
<path d="M81.3063 1.57031V2.3559H81.3993C81.4922 2.37018 81.5923 2.37018 81.7139 2.37018C82.3359 2.37018 83.3154 2.66299 83.4441 3.11292V11.7258C83.4369 14.5896 83.0938 14.961 82.4717 15.6466L82.343 15.7894C81.8211 16.375 80.7916 16.7035 79.4403 16.7035C78.3678 16.7035 77.4884 16.4393 76.8378 15.9108C76.3159 15.4894 75.987 14.7967 75.8583 13.8468C75.8082 13.5183 75.7796 12.7399 75.7796 11.5258V3.15576C75.8082 2.99151 75.8511 2.86296 75.9083 2.7844C75.9798 2.68442 76.1943 2.563 76.7949 2.54872C76.945 2.54872 76.9808 2.54158 77.0237 2.53444C77.0451 2.53444 77.0737 2.53444 77.1309 2.52729H77.2239V1.57031H69.6738V2.39162C70.303 2.39876 70.7606 2.44874 71.0394 2.53444C71.2468 2.59872 71.3755 2.76298 71.4183 3.02722V3.08434C71.4183 3.08434 71.4183 3.12721 71.4183 3.14864V11.9829C71.4183 14.0468 71.8759 15.5037 72.7768 16.325C73.9922 17.4391 75.6581 17.7819 77.7816 17.9604C78.1819 17.9962 78.5895 18.0104 78.997 18.0104C80.527 18.0104 82.0213 17.7819 83.0151 17.3748C84.9598 16.5821 85.8249 15.0681 85.8249 12.4828V3.12006C85.8535 2.80583 85.925 2.69156 85.9894 2.62014C86.0752 2.52016 86.4898 2.39874 87.2048 2.34875C87.2763 2.34875 87.2978 2.34161 87.3264 2.32733C87.3264 2.32733 87.3407 2.32733 87.355 2.32733H87.4479V1.57746H81.3063V1.57031Z" fill="white"/>
<path d="M106.473 1.44855H101.775V2.24842C101.847 2.24842 101.911 2.24842 102.04 2.24842C102.462 2.24842 102.869 2.38411 103.012 2.56265C103.026 2.64121 103.041 2.76261 103.041 2.93401V11.047L93.7104 1.56282H88.0693V2.44838L88.6056 2.49123L88.6842 2.50551C89.2419 2.7269 89.4492 2.8983 89.6351 3.13398C89.771 3.35537 89.8639 3.59819 89.9068 3.86957C89.9139 3.91956 89.9283 4.02668 89.9425 4.24808C89.9568 4.55517 89.964 5.00509 89.964 5.54072V15.2748C89.9497 15.3962 89.9568 15.9604 89.9568 15.9604C89.9568 15.9676 89.9568 16.1818 89.7495 16.3604L89.6923 16.3961C89.4707 16.5175 88.8701 16.6175 88.0765 16.6674V17.5173H93.2171V16.7174C93.1528 16.7174 93.0812 16.7174 92.9526 16.7174C92.5307 16.7174 92.1232 16.5817 91.9802 16.4032C91.9659 16.3318 91.9587 16.2032 91.9587 16.0318V5.50502L103.827 17.5387H104.892V2.99828C104.892 2.99828 104.892 2.78404 105.1 2.59835C105.121 2.58407 105.136 2.5698 105.157 2.56265C105.35 2.46267 105.665 2.3484 106.473 2.29127V1.44141V1.44855Z" fill="white"/>
<path d="M18.5891 16.8463C17.9957 16.8034 17.5596 16.6963 17.3093 16.5321C17.0234 16.3392 16.9018 15.9036 16.9018 15.0252V3.89129C16.9018 3.13428 16.9876 2.88432 17.1234 2.7272C17.2235 2.61293 17.5167 2.46298 18.3174 2.41299C18.4104 2.41299 18.5033 2.3987 18.582 2.39156V1.54883H11.3465V2.43441C11.4252 2.43441 11.5038 2.43441 11.5968 2.43441C12.4404 2.43441 12.8479 2.90574 12.8479 3.86987V8.19059C10.7888 8.27629 8.21496 8.29057 6.4061 8.23344L5.84843 8.19059V3.62706C5.84843 3.2057 5.90562 2.91289 6.01287 2.75577C6.08436 2.65579 6.29885 2.53439 6.89943 2.52011C7.07817 2.52011 7.22116 2.51295 7.34985 2.50581V1.54883H0V2.37012C0.622021 2.37012 1.08675 2.42012 1.36559 2.51296C1.63727 2.59866 1.77312 2.84862 1.77312 3.27712V15.5893C1.77312 16.1821 1.72307 16.4535 1.60867 16.5178C1.31554 16.682 0.779314 16.7677 0 16.7749V17.7176H7.36415V16.8177C7.22831 16.8034 7.05672 16.782 6.85653 16.7606C6.20591 16.6892 5.86273 16.4892 5.84843 16.1678V9.92601H12.8479V15.7108C12.8336 16.0821 12.8122 16.1678 12.7979 16.2464V16.2821C12.7979 16.3821 12.6549 16.4821 12.4047 16.5749C12.1115 16.682 11.7683 16.7463 11.3751 16.7606C11.3751 16.7606 11.368 16.7606 11.3608 16.7606V17.7176H18.5748V16.8534L18.5891 16.8463Z" fill="white"/>
<path d="M53.8795 9.41899C53.7723 4.71263 49.4253 0.991812 44.1774 1.10608C38.9296 1.22035 34.7542 5.11969 34.8614 9.82605C34.9686 14.5253 39.3156 18.2532 44.5635 18.139C49.8113 18.0247 53.9868 14.1253 53.8795 9.41899ZM44.3705 16.5392C41.6965 16.5392 39.5373 13.4469 39.5373 9.62608C39.5373 5.80529 41.7036 2.71295 44.3705 2.71295C47.0373 2.71295 49.2036 5.80529 49.2036 9.62608C49.2036 13.4469 47.0373 16.5392 44.3705 16.5392Z" fill="white"/>
<path d="M117.627 10.453V11.2672C118.256 11.2672 118.721 11.3172 119.014 11.4029C119.221 11.4672 119.293 11.5743 119.378 11.9314C119.4 12.2242 119.414 12.5527 119.428 12.8955V13.174H119.436C119.45 13.6239 119.457 14.081 119.457 14.4738C119.457 15.8379 118.47 16.3378 117.87 16.5235C117.805 16.552 117.519 16.602 117.519 16.602C117.455 16.602 117.269 16.6235 117.241 16.6235C117.155 16.6306 116.661 16.602 116.619 16.602C116.082 16.5663 115.668 16.502 115.246 16.3164C114.81 16.1378 114.445 15.9093 114.173 15.6379C112.736 14.4381 111.764 12.2099 111.764 9.66033C111.764 6.41801 113.323 3.69702 115.432 2.95429C115.625 2.88287 116.104 2.71148 116.754 2.60436C116.84 2.59007 116.926 2.58294 117.012 2.56866C118.971 2.36869 120.208 2.97572 120.894 3.51849C120.908 3.53277 120.923 3.5399 120.937 3.55419C120.944 3.56133 120.958 3.56847 120.987 3.59704L121.008 3.61846C121.695 4.21836 122.052 5.14679 122.16 5.55387C122.267 5.96094 122.31 6.11092 122.31 6.11092H122.71C122.782 6.13234 122.86 6.13233 122.939 6.11804H123.311V1.36884H122.431V1.39026C122.317 1.42597 122.031 1.87591 122.031 1.87591C122.031 1.87591 121.866 2.15443 121.716 2.15443C121.573 2.15443 121.323 2.0973 120.973 1.98303C120.844 1.94018 120.722 1.90447 120.594 1.86876L120.515 1.84734C119.378 1.45455 118.277 1.26172 117.241 1.26172C114.295 1.26172 111.499 2.1473 109.769 3.63991C107.932 5.21821 106.995 7.22501 106.995 9.60318C106.995 11.9814 108.032 14.4095 109.698 15.8093C111.385 17.2233 114.088 18.0732 116.933 18.0732C119.014 18.0732 121.352 17.4233 123.511 16.2521L123.568 16.2235V14.6952C123.568 14.3024 123.568 13.7311 123.575 13.1812V12.9955C123.575 12.7169 123.582 12.4456 123.589 12.217C123.611 11.9599 123.668 11.7671 123.747 11.66C123.818 11.56 124.033 11.4386 124.648 11.4243C124.826 11.4243 124.977 11.41 125.105 11.41V10.4602H117.641L117.627 10.453Z" fill="white"/>
<path d="M135.592 10.7046C136.092 10.7046 136.519 10.6862 136.942 10.7156C137.071 10.7267 137.211 10.859 137.303 10.9692C138.476 12.4317 139.639 13.9016 140.805 15.3715C140.857 15.4376 140.882 15.5258 140.919 15.603L141.066 15.5258C141.066 15.3017 141.066 15.0775 141.066 14.8497C141.066 13.8832 141.066 12.9205 141.066 11.954C141.066 11.4983 140.985 11.0794 140.47 10.745H142.475C141.82 11.1309 141.898 11.6711 141.898 12.1892C141.898 13.8575 141.898 15.5221 141.898 17.1905V17.7049C141.243 17.5726 140.827 17.1978 140.47 16.7495C139.484 15.5148 138.506 14.2691 137.52 13.0307C137.369 12.8433 137.211 12.6596 136.986 12.3876C136.972 12.6375 136.953 12.7735 136.953 12.9131C136.953 13.92 136.953 14.9305 136.953 15.9374C136.953 16.4445 136.894 16.9736 137.406 17.3448H135.566C136.295 16.8046 136.107 16.0733 136.118 15.3935C136.133 14.2985 136.122 13.1997 136.118 12.1047C136.118 11.344 136.1 11.2962 135.585 10.6973L135.592 10.7046Z" fill="white"/>
<path d="M148.461 11.9786C147.935 11.8096 147.445 11.5781 146.938 11.5009C145.242 11.2474 143.961 12.6033 144.248 14.2974C144.554 16.1016 145.981 16.9909 147.747 16.4581C148.148 16.3368 148.53 16.1567 149.001 15.9767C148.814 16.3993 148.689 16.7888 148.479 17.1232C148.38 17.2775 148.129 17.3804 147.927 17.4245C146.93 17.645 145.941 17.6009 144.988 17.2077C143.468 16.583 142.722 15.0801 143.031 13.3052C143.299 11.7655 144.598 10.5969 146.183 10.5565C146.838 10.5381 147.493 10.6631 148.152 10.7182C148.387 10.7366 148.479 10.8542 148.468 11.0893C148.453 11.3907 148.464 11.6957 148.464 11.9786H148.461Z" fill="white"/>
<path d="M135.353 10.6716C135.243 11.0869 135.14 11.4874 135.015 11.9541C134.595 11.4103 134.036 11.4948 133.506 11.5131C133.418 11.5131 133.26 11.6785 133.256 11.7704C133.245 13.3615 133.234 14.9563 133.271 16.5475C133.278 16.8047 133.499 17.0583 133.635 17.3302H131.678C132.16 16.948 132.09 16.4299 132.09 15.9301C132.09 14.5999 132.079 13.2697 132.098 11.9394C132.101 11.594 131.995 11.4764 131.649 11.4911C131.086 11.5095 130.53 11.5278 129.979 11.8733C130.093 11.4727 130.207 11.0722 130.321 10.668H135.35L135.353 10.6716Z" fill="white"/>
</g>
<defs>
<clipPath id="clip0_2863_42975">
<rect width="149" height="19" fill="white"/>
</clipPath>
</defs>
</svg>
