<svg xmlns="http://www.w3.org/2000/svg" viewBox="0 0 141 16.2">
	<g>
		<path d="M61.9,7.2c-0.7-0.3-1.5-0.7-2.5-1.2c-0.1,0-0.2-0.1-0.3-0.1c-1-0.4-1.5-0.5-2.1-0.8c0,0-0.1,0-0.1,0
			c-0.5-0.3-0.8-0.5-0.9-0.6c-0.4-0.3-0.6-0.7-0.6-1.1c0-1.1,1.6-2.1,3.5-2.1c0.1,0,0.3,0,0.4,0c0,0,0.1,0,0.1,0
			c1.5,0.2,3.1,1,3.3,2c0,0,0,0,0,0c0.1,0.2,0.2,0.4,0.3,0.5c0,0,0.6,0.3,0.6,0.3V0.1h-0.4c-0.1,0-0.2,0.1-0.2,0.2
			c-0.1,0.4-0.3,0.5-0.6,0.5c-0.1,0-0.6-0.1-0.9-0.2c-1-0.3-2-0.5-2.9-0.5c-1.7,0-3.5,0.4-4.6,1.2c-1.1,0.8-1.7,1.8-1.7,3
			c0,1,0.5,1.9,1.2,2.6c0.7,0.8,2.3,1.6,4.3,2.4c1.8,0.8,2.8,1.2,3.2,1.5c0.4,0.4,0.7,0.8,0.7,1.4c0,0.7-0.3,1.4-1,1.9
			c-0.7,0.5-1.6,0.6-2.6,0.6c-1.1,0-2.1-0.3-3.1-0.9c-1-0.6-1.4-1.5-1.6-1.9c-0.2-0.4-0.2-0.6-0.3-0.7l0,0v0c0,0-0.1-0.1-0.1-0.1
			c0,0,0,0,0,0c-0.2-0.2-0.6,0-0.6,0v4.1l0,0.5l0.7,0c0,0,0.1-0.2,0.2-0.3c0.1-0.3,0.3-0.5,0.6-0.5c0,0,0.1,0,0.1,0
			c1.9,0.6,3.7,0.9,4.8,0.9c1.8,0,3.5-0.6,4.7-1.4c1.1-0.7,1.6-1.7,1.8-2.7c0-0.1,0.1-0.3,0.1-0.5C65.6,8.5,61.9,7.2,61.9,7.2
			L61.9,7.2z" fill="#000000" />
		<path d="M58.6,16.1c-1.2,0-2.9-0.5-4.8-1c0,0,0,0-0.1,0l0,0c-0.4,0-0.7,0.8-0.7,0.8h-0.8v-4.7l0.7,0
			c0,0,0.3,0.7,0.4,0.9l0.1,0.1c0.2,0.4,0.7,1.2,1.5,1.8c0.9,0.6,2,0.9,3,0.9c1.1,0,2-0.2,2.5-0.6c0.6-0.4,1-1.1,1-1.8
			c0-0.6-0.2-1-0.6-1.3c-0.3-0.2-1.4-0.7-3.1-1.5c-2.3-0.9-3.7-1.7-4.3-2.5c-0.8-0.9-1.2-1.8-1.2-2.7c0-1.2,0.6-2.3,1.7-3.1
			c1.1-0.8,2.8-1.2,4.7-1.2c0.9,0,1.9,0.2,2.9,0.5c0.4,0.1,0.8,0.2,0.9,0.2C62.6,0.7,63,0,63,0l0.8,0v4.1H63c0,0,0-0.2-0.5-0.8
			c-0.4-0.6-1.7-1.8-3.1-2h0c0,0-0.1,0-0.1,0c-0.1,0-0.3,0-0.4,0c-1.8,0-3.4,1-3.4,2c0,0.4,0.2,0.7,0.5,1.1c0,0,0.3,0.2,0.9,0.6l0,0
			c0,0,0,0,0.1,0c0.4,0.2,0.7,0.3,1.2,0.5c0.2,0.1,0.5,0.2,0.8,0.3c0.1,0,0.2,0.1,0.3,0.1c1,0.4,1.8,0.8,2.5,1.2
			c0,0,3.7,1.4,3.3,4.4c0,0.2-0.1,0.3-0.1,0.5c-0.2,0.8-0.6,2-1.9,2.8C62,15.6,60.3,16.1,58.6,16.1L58.6,16.1z" fill="#000000" />
		<path d="M34.1,0.5h-4.5v0.8c0.1,0,0.2,0,0.3,0c0.7,0,0.7,0.3,0.7,0.4c0,0.2-0.5,1.1-1.1,2.3C29.2,4.3,29,4.6,28.9,5
			c-0.6,1-0.9,1.7-1.3,2.3c-0.8-1.2-1.3-2-1.9-3c-0.4-0.7-0.7-1.2-0.9-1.5c-0.1-0.2-0.2-0.4-0.3-0.4c-0.1-0.2-0.2-0.4-0.2-0.6
			c0-0.2,0.1-0.4,1.1-0.4h0.3V0.5h-7v0.8c0.5,0,0.9,0.1,1.1,0.3c0.3,0.4,0.5,0.8,0.8,1.1c0.6,0.8,1,1.4,1.4,2
			c1.4,2.1,2.2,3.7,2.5,4.5v4.9c0,0.3,0,0.4-0.1,0.4l0,0c0,0-0.2,0.2-1.4,0.2v0.9h7.1v-0.9c-0.7,0-1-0.1-1.2-0.1
			c-0.2-0.1-0.3-0.2-0.3-0.4v-4c0-0.8,0-1.4,0.1-1.7c0.1-0.3,0.4-1.1,1-2.1c0.5-0.9,0.9-1.5,1.1-2c1.6-2.9,1.9-3,1.9-3l0,0
			c0.1-0.1,0.4-0.2,1.3-0.3L34.1,0.5L34.1,0.5z" fill="#000000" />
		<path d="M76.9,0.5v0.7H77c0.1,0,0.2,0,0.3,0c0.6,0,1.5,0.3,1.6,0.7v8.2c0,2.7-0.3,3.1-0.9,3.7L77.9,14
			c-0.5,0.6-1.5,0.9-2.7,0.9c-1,0-1.8-0.3-2.5-0.8c-0.5-0.4-0.8-1.1-0.9-2c0-0.3-0.1-1-0.1-2.2V2c0-0.2,0.1-0.3,0.1-0.4
			c0.1-0.1,0.3-0.2,0.8-0.2c0.1,0,0.2,0,0.2,0c0,0,0,0,0.1,0h0.1V0.5h-7.1v0.8c0.6,0,1,0.1,1.3,0.1c0.2,0.1,0.3,0.2,0.4,0.5v0.1
			c0,0,0,0,0,0.1v8.4c0,2,0.4,3.3,1.3,4.1c1.2,1.1,2.7,1.4,4.7,1.5c0.4,0,0.8,0,1.2,0c1.4,0,2.9-0.2,3.8-0.6
			c1.8-0.8,2.7-2.2,2.7-4.6V2c0-0.3,0.1-0.4,0.2-0.5c0.1-0.1,0.5-0.2,1.2-0.3c0.1,0,0.1,0,0.1,0c0,0,0,0,0,0h0.1V0.5L76.9,0.5
			L76.9,0.5z" fill="#000000" />
		<path d="M100.8,0.4h-4.4v0.8c0.1,0,0.1,0,0.3,0c0.4,0,0.8,0.1,0.9,0.3c0,0.1,0,0.2,0,0.4v7.7l-8.8-9h-5.3v0.8l0.5,0
			l0.1,0c0.5,0.2,0.7,0.4,0.9,0.6C85,2.2,85,2.4,85.1,2.7c0,0,0,0.1,0,0.4c0,0.3,0,0.7,0,1.2v9.2c0,0.1,0,0.6,0,0.6
			c0,0,0,0.2-0.2,0.4l-0.1,0c-0.2,0.1-0.8,0.2-1.5,0.3v0.8h4.9v-0.8c-0.1,0-0.1,0-0.3,0c-0.4,0-0.8-0.1-0.9-0.3c0-0.1,0-0.2,0-0.4
			v-10l11.2,11.4h1V1.8c0,0,0-0.2,0.2-0.4c0,0,0,0,0.1,0c0.2-0.1,0.5-0.2,1.2-0.3V0.4L100.8,0.4z" fill="#000000" />
		<path d="M17.6,15c-0.6,0-1-0.1-1.2-0.3c-0.3-0.2-0.4-0.6-0.4-1.4V2.7c0-0.7,0.1-1,0.2-1.1c0.1-0.1,0.4-0.3,1.1-0.3
			c0.1,0,0.2,0,0.3,0V0.5h-6.8v0.8c0.1,0,0.1,0,0.2,0c0.8,0,1.2,0.4,1.2,1.4v4.1c-1.9,0.1-4.4,0.1-6.1,0l-0.5,0V2.4
			c0-0.4,0.1-0.7,0.2-0.8C5.8,1.5,6,1.4,6.5,1.4c0.2,0,0.3,0,0.4,0V0.5H0v0.8c0.6,0,1,0,1.3,0.1c0.3,0.1,0.4,0.3,0.4,0.7v11.7
			c0,0.6,0,0.8-0.2,0.9c-0.3,0.2-0.8,0.2-1.5,0.2v0.9h7v-0.9c-0.1,0-0.3,0-0.5-0.1c-0.6-0.1-0.9-0.3-1-0.6V8.4h6.6v5.5
			c0,0.4,0,0.4,0,0.5v0c0,0.1-0.1,0.2-0.4,0.3c-0.3,0.1-0.6,0.2-1,0.2c0,0,0,0,0,0v0.9h6.8L17.6,15L17.6,15z" fill="#000000" />
		<path d="M51,7.9c-0.1-4.5-4.2-8-9.2-7.9c-5,0.1-8.9,3.8-8.8,8.3c0.1,4.5,4.2,8,9.2,7.9C47.1,16.1,51.1,12.4,51,7.9z
			M42,14.7c-2.5,0-4.6-2.9-4.6-6.5c0-3.6,2.1-6.5,4.6-6.5c2.5,0,4.6,2.9,4.6,6.5C46.6,11.7,44.5,14.7,42,14.7z" fill="#000000" />
		<path d="M111.3,8.9v0.8c0.6,0,1,0,1.3,0.1c0.2,0.1,0.3,0.2,0.3,0.5c0,0.3,0,0.6,0,0.9v0.3h0c0,0.4,0,0.9,0,1.2
			c0,1.3-0.9,1.8-1.5,1.9c-0.1,0-0.3,0.1-0.3,0.1c-0.1,0-0.2,0-0.3,0c-0.1,0-0.5,0-0.6,0c-0.5,0-0.9-0.1-1.3-0.3
			c-0.4-0.2-0.8-0.4-1-0.6c-1.4-1.1-2.3-3.2-2.3-5.7c0-3.1,1.5-5.6,3.5-6.4c0.2-0.1,0.6-0.2,1.3-0.3c0.1,0,0.2,0,0.2,0
			c1.9-0.2,3,0.4,3.7,0.9c0,0,0,0,0,0c0,0,0,0,0,0l0,0c0.6,0.6,1,1.4,1.1,1.8c0.1,0.4,0.1,0.5,0.1,0.5h0.4c0.1,0,0.1,0,0.2,0h0.4
			V0.3h-0.8v0c-0.1,0-0.4,0.5-0.4,0.5S115.3,1,115.2,1c-0.1,0-0.4-0.1-0.7-0.2c-0.1,0-0.2-0.1-0.4-0.1l-0.1,0
			c-1.1-0.4-2.1-0.6-3.1-0.6c-2.8,0-5.4,0.8-7.1,2.3c-1.7,1.5-2.6,3.4-2.6,5.6c0,2.3,1,4.6,2.6,5.9c1.6,1.3,4.2,2.1,6.8,2.1
			c2,0,4.2-0.6,6.2-1.7l0.1,0v-1.4c0-0.4,0-0.9,0-1.4v-0.2c0-0.3,0-0.5,0-0.7c0-0.2,0.1-0.4,0.1-0.5c0.1-0.1,0.3-0.2,0.9-0.2
			c0.2,0,0.3,0,0.4,0V8.9L111.3,8.9L111.3,8.9z" fill="#000000" />
		<path d="M128.3,9.1c0.5,0,0.9,0,1.3,0c0.1,0,0.3,0.1,0.3,0.2c1.1,1.4,2.2,2.8,3.3,4.2c0,0.1,0.1,0.1,0.1,0.2l0.1-0.1
			c0-0.2,0-0.4,0-0.6c0-0.9,0-1.8,0-2.7c0-0.4-0.1-0.8-0.6-1.1h1.9c-0.6,0.4-0.5,0.9-0.5,1.4c0,1.6,0,3.2,0,4.7v0.5
			c-0.6-0.1-1-0.5-1.4-0.9c-0.9-1.2-1.9-2.3-2.8-3.5c-0.1-0.2-0.3-0.4-0.5-0.6c0,0.2,0,0.4,0,0.5c0,1,0,1.9,0,2.9
			c0,0.5-0.1,1,0.4,1.3h-1.7c0.7-0.5,0.5-1.2,0.5-1.8c0-1,0-2.1,0-3.1C128.8,9.7,128.8,9.7,128.3,9.1L128.3,9.1z" fill="#000000" />
		<path d="M140.5,10.3c-0.5-0.2-1-0.4-1.4-0.5c-1.6-0.2-2.8,1-2.5,2.6c0.3,1.7,1.6,2.6,3.3,2c0.4-0.1,0.7-0.3,1.2-0.5
			c-0.2,0.4-0.3,0.8-0.5,1.1c-0.1,0.1-0.3,0.2-0.5,0.3c-0.9,0.2-1.9,0.2-2.8-0.2c-1.4-0.6-2.1-2-1.9-3.7c0.3-1.5,1.5-2.6,3-2.6
			c0.6,0,1.2,0.1,1.9,0.2c0.2,0,0.3,0.1,0.3,0.4C140.5,9.8,140.5,10.1,140.5,10.3L140.5,10.3z" fill="#000000" />
		<path d="M128.1,9.1c-0.1,0.4-0.2,0.8-0.3,1.2c-0.4-0.5-0.9-0.4-1.4-0.4c-0.1,0-0.2,0.2-0.2,0.2c0,1.5,0,3,0,4.5
			c0,0.2,0.2,0.5,0.3,0.7h-1.9c0.5-0.4,0.4-0.9,0.4-1.3c0-1.3,0-2.5,0-3.8c0-0.3-0.1-0.4-0.4-0.4c-0.5,0-1.1,0-1.6,0.4
			c0.1-0.4,0.2-0.8,0.3-1.1L128.1,9.1L128.1,9.1z" fill="#000000" />
	</g>
</svg>
