<svg width="339" height="658" viewBox="0 0 339 658" fill="none" xmlns="http://www.w3.org/2000/svg">
<path d="M13.166 7.62109V12.209H15.3281V14.0723H13.166V19.2754H10.916V7.62109H13.166ZM0.580078 12.7188C0.571289 10.3369 2.51367 8.64941 4.97461 8.6582C7.42676 8.64941 9.33398 10.3369 9.33398 12.7188C9.33398 15.0654 7.42676 16.7793 4.97461 16.7793C2.51367 16.7793 0.571289 15.0654 0.580078 12.7188ZM2.79492 23.3359V18.0449H5.02734V21.543H13.7461V23.3359H2.79492ZM2.79492 12.7188C2.77734 14.0195 3.75293 14.8281 4.97461 14.8281C6.20508 14.8281 7.14551 14.0195 7.1543 12.7188C7.14551 11.3828 6.20508 10.6006 4.97461 10.6094C3.75293 10.6006 2.77734 11.3828 2.79492 12.7188ZM29.5137 7.63867V19.3105H27.2812V13.5801H24.6621V11.7695H27.2812V7.63867H29.5137ZM15.9434 15.707C18.5889 14.8809 19.7842 12.7979 19.793 10.75V10.5039H16.5762V8.71094H25.2598V10.5039H22.0781V10.7676C22.0693 12.6221 23.2119 14.5996 25.752 15.4258L24.6445 17.2012C22.8779 16.6211 21.6562 15.4609 20.9619 14.0283C20.25 15.6191 18.9756 16.9111 17.0859 17.5352L15.9434 15.707ZM18.8965 23.3359V18.291H21.1465V21.543H29.9004V23.3359H18.8965ZM46.2305 19.9258V21.7539H31.5879V19.9258H37.7578V16.9727H33.1348V8.64062H35.3848V11.1191H42.3633V8.64062H44.5957V16.9727H39.9902V19.9258H46.2305ZM35.3848 15.1797H42.3633V12.9121H35.3848V15.1797ZM60.627 7.63867V19.3281H58.3945V14.1074H55.5293V12.2617H58.3945V7.63867H60.627ZM47.3555 15.9531C50.6689 14.916 52.8135 13 53.2266 10.6445H48.1816V8.81641H55.6699C55.6699 13.1055 52.9453 16.2783 48.2695 17.7285L47.3555 15.9531ZM50.0801 23.3359V18.1504H52.3652V21.543H61.0312V23.3359H50.0801ZM81.4395 15.6367V17.4297H66.8496V15.6367H73.0195V14.0898H75.2344V15.6367H81.4395ZM67.4648 13.1582C70.875 12.9561 72.501 11.9277 72.8174 10.8203H68.2559V9.04492H73.0195V7.67383H75.2344V9.04492H80.0332V10.8203H75.4277C75.7354 11.9277 77.3701 12.9561 80.7891 13.1582L80.1211 14.8633C77.168 14.6523 75.1289 13.7998 74.127 12.5078C73.1162 13.7998 71.0771 14.6523 68.1504 14.8633L67.4648 13.1582ZM68.5195 20.8926C68.5195 19.1436 70.6025 18.1768 74.127 18.1855C77.6338 18.1768 79.6816 19.1436 79.6992 20.8926C79.6816 22.6592 77.6338 23.626 74.127 23.6172C70.6025 23.626 68.5195 22.6592 68.5195 20.8926ZM70.8047 20.8926C70.7959 21.6309 71.8857 21.9648 74.127 21.9648C76.3154 21.9648 77.4404 21.6309 77.4492 20.8926C77.4404 20.1719 76.3154 19.8379 74.127 19.8379C71.8857 19.8379 70.7959 20.1719 70.8047 20.8926ZM91.4062 8.32422V9.25586C91.3887 10.2051 91.3887 11.5762 91.0371 13.2461L88.8574 13.0176C89.0859 11.8311 89.1387 10.8818 89.165 10.082H83.1445V8.32422H91.4062ZM82.1777 14.1602C83.1006 14.1602 84.1113 14.1602 85.166 14.1514V11.5762H87.3633V14.0986C88.9717 14.0371 90.5977 13.9404 92.1094 13.7559L92.2676 15.3027C88.9365 15.874 85.2627 15.9004 82.3711 15.9004L82.1777 14.1602ZM84.2344 18.3438V16.709H95.291V20.8223H86.502V21.8066H95.8008V23.4766H84.2871V19.2578H93.0234V18.3438H84.2344ZM92.9883 16.1465V7.62109H95.291V11.0312H97.2422V12.8418H95.291V16.1465H92.9883Z" fill="black"/>
<rect y="48" width="339" height="52" rx="8" fill="#336BCD"/>
<path d="M154.625 66.2656V80.3906H152.969V73.1875H151.375V79.6719H149.781V66.5312H151.375V71.7969H152.969V66.2656H154.625ZM142.906 77.0938V67.9375H148.188V69.3438H144.656V75.625C146.188 75.6094 147.453 75.5312 148.891 75.2656L149.016 76.6875C147.305 77.0312 145.828 77.0781 143.859 77.0938H142.906ZM169.203 77.3594V78.7656H156.297V77.3594H159.641V74.4531H157.406V73.0469H159.391V68.8594H157.359V67.4688H168.078V68.8594H166.016V73.0469H168.031V74.4531H165.797V77.3594H169.203ZM161.125 73.0469H164.297V68.8594H161.125V73.0469ZM161.375 77.3594H164.062V74.4531H161.375V77.3594ZM181.875 66.2656V80.4062H180.125V66.2656H181.875ZM170.578 72.2812C170.57 69.2344 172.125 67.2969 174.266 67.2969C176.383 67.2969 177.945 69.2344 177.953 72.2812C177.945 75.3516 176.383 77.2812 174.266 77.2812C172.125 77.2812 170.57 75.3516 170.578 72.2812ZM172.25 72.2812C172.25 74.4531 173.07 75.7109 174.266 75.7188C175.453 75.7109 176.266 74.4531 176.266 72.2812C176.266 70.125 175.453 68.8594 174.266 68.8594C173.07 68.8594 172.25 70.125 172.25 72.2812ZM189 69.6562C188.984 72.1797 190.25 74.7266 192.438 75.7812L191.375 77.1719C189.844 76.3984 188.742 74.9062 188.141 73.1094C187.523 75.0312 186.367 76.625 184.75 77.4375L183.688 76.0469C185.961 74.9688 187.258 72.2656 187.266 69.6562V67.4062H189V69.6562ZM193.281 80.3906V66.2656H195.016V71.7969H197.188V73.2812H195.016V80.3906H193.281Z" fill="white"/>
<rect y="230" width="339" height="58" rx="8" fill="#F5F5F5"/>
<path d="M145.945 252.312V256.5H147.977V257.75H145.945V262.609H144.461V252.312H145.945ZM135.164 256.766C135.148 254.727 136.773 253.289 138.883 253.281C141 253.289 142.602 254.727 142.617 256.766C142.602 258.805 141 260.258 138.883 260.25C136.773 260.258 135.148 258.805 135.164 256.766ZM136.617 256.766C136.602 258.07 137.602 258.953 138.883 258.953C140.18 258.953 141.156 258.07 141.164 256.766C141.156 255.461 140.18 254.578 138.883 254.578C137.602 254.578 136.602 255.461 136.617 256.766ZM137.07 266.031V261.531H138.555V264.828H146.539V266.031H137.07ZM160.445 252.344V262.594H158.961V257.328H156.289V256.125H158.961V252.344H160.445ZM148.789 259.672C150.938 258.945 152.281 257.102 152.273 255.172V254.625H149.242V253.406H156.789V254.625H153.789V255.172C153.781 256.914 155.047 258.672 157.164 259.375L156.398 260.562C154.828 260.016 153.664 258.891 153.055 257.5C152.445 259.047 151.219 260.281 149.555 260.875L148.789 259.672ZM151.352 266.031V261.672H152.836V264.828H160.82V266.031H151.352ZM175.414 263.359V264.594H162.602V263.359H168.242V260.484H164.07V253.281H165.555V255.688H172.43V253.281H173.898V260.484H169.711V263.359H175.414ZM165.555 259.281H172.43V256.891H165.555V259.281ZM188.102 252.344V262.656H186.617V257.797H183.711V256.562H186.617V252.344H188.102ZM176.633 259.906C179.75 258.898 181.867 257 182.172 254.625H177.352V253.391H183.805C183.789 257.047 181.281 259.797 177.258 261.094L176.633 259.906ZM179.086 266.031V261.594H180.586V264.828H188.461V266.031H179.086ZM197.789 253.156V254.375H192.555V255.906H197.398V257.062H192.555V258.688C195.352 258.688 196.984 258.633 198.883 258.312L199.039 259.5C197.016 259.844 195.273 259.883 192.211 259.875H191.055V253.156H197.789ZM192.664 266.156V261.328H201.867V266.156H192.664ZM194.133 264.953H200.414V262.484H194.133V264.953ZM200.383 260.672V252.344H201.867V260.672H200.383Z" fill="#282828"/>
<rect y="172" width="339" height="52" rx="8" fill="#336BCD"/>
<path d="M161.672 195.5C161.43 194.141 160.344 193.359 158.969 193.359C157.117 193.359 155.805 194.781 155.812 197.344C155.805 199.945 157.125 201.328 158.969 201.328C160.312 201.328 161.398 200.578 161.672 199.25H163.719C163.406 201.422 161.617 203.156 158.938 203.156C155.953 203.156 153.758 200.992 153.766 197.344C153.758 193.688 155.977 191.531 158.938 191.531C161.438 191.531 163.367 192.984 163.719 195.5H161.672ZM171.625 194.797C171.523 193.82 170.703 193.258 169.484 193.266C168.195 193.258 167.43 193.883 167.422 194.734C167.414 195.688 168.422 196.078 169.359 196.297L170.422 196.578C172.109 196.969 173.734 197.859 173.734 199.828C173.734 201.812 172.164 203.172 169.453 203.172C166.82 203.172 165.148 201.906 165.062 199.672H167.062C167.156 200.852 168.148 201.43 169.438 201.438C170.773 201.43 171.695 200.781 171.703 199.812C171.695 198.922 170.883 198.547 169.656 198.234L168.375 197.906C166.516 197.422 165.359 196.484 165.359 194.859C165.359 192.859 167.133 191.531 169.516 191.531C171.914 191.531 173.547 192.883 173.578 194.797H171.625ZM185.516 197.344C185.523 201 183.289 203.156 180.328 203.156C177.352 203.156 175.133 200.992 175.141 197.344C175.133 193.688 177.352 191.531 180.328 191.531C183.289 191.531 185.523 193.688 185.516 197.344ZM177.188 197.344C177.18 199.93 178.484 201.328 180.328 201.328C182.18 201.328 183.477 199.93 183.469 197.344C183.477 194.758 182.18 193.359 180.328 193.359C178.484 193.359 177.18 194.758 177.188 197.344Z" fill="white"/>
<rect y="372" width="339" height="52" rx="8" fill="#4B84F0"/>
<path d="M6.36328 335.242C6.35449 338.107 7.57617 340.999 10.1426 342.238L8.78906 344.031C7.0752 343.179 5.91504 341.597 5.25586 339.672C4.55273 341.737 3.32227 343.434 1.51172 344.33L0.123047 342.52C2.83887 341.271 4.11328 338.213 4.11328 335.242V332.852H6.36328V335.242ZM10.8457 347.617V331.621H13.0957V337.791H15.4512V339.689H13.0957V347.617H10.8457ZM20.4961 332.307C22.5352 332.289 24.1611 333.458 24.6006 335.172H27.2812V331.621H29.5137V340.217H27.2812V336.965H24.6094C24.1963 338.723 22.5527 339.918 20.4961 339.918C18.0352 339.918 16.2246 338.318 16.2422 336.086C16.2246 333.897 18.0352 332.289 20.4961 332.307ZM18.3691 336.086C18.3604 337.281 19.2393 338.037 20.4961 338.037C21.709 338.037 22.5791 337.281 22.5879 336.086C22.5791 334.891 21.709 334.161 20.4961 334.17C19.2393 334.161 18.3604 334.891 18.3691 336.086ZM18.8438 347.441V340.92H21.0586V342.467H27.2812V340.92H29.5137V347.441H18.8438ZM21.0586 345.631H27.2812V344.189H21.0586V345.631ZM40.6758 332.693V334.486H37.4941C37.5029 336.35 38.6367 338.151 41.1855 338.898L40.1133 340.656C38.3467 340.12 37.1162 339.039 36.4131 337.677C35.7012 339.285 34.4004 340.568 32.4844 341.201L31.3418 339.426C33.9961 338.591 35.2002 336.517 35.2266 334.486H31.957V332.693H40.6758ZM33.5566 344.506C33.5479 342.555 35.6572 341.421 39.041 341.43C42.3721 341.421 44.4287 342.555 44.4375 344.506C44.4287 346.466 42.3721 347.626 39.041 347.617C35.6572 347.626 33.5479 346.466 33.5566 344.506ZM35.8066 344.506C35.7891 345.42 36.9404 345.877 39.041 345.877C41.1152 345.877 42.2227 345.42 42.2227 344.506C42.2227 343.609 41.1152 343.161 39.041 343.17C36.9404 343.161 35.7891 343.609 35.8066 344.506ZM42.0293 341.113V331.621H44.2793V335.33H46.4414V337.158H44.2793V341.113H42.0293ZM65.8828 339.637V341.43H51.293V339.637H57.4629V338.09H59.6777V339.637H65.8828ZM51.9082 337.158C55.3184 336.956 56.9443 335.928 57.2607 334.82H52.6992V333.045H57.4629V331.674H59.6777V333.045H64.4766V334.82H59.8711C60.1787 335.928 61.8135 336.956 65.2324 337.158L64.5645 338.863C61.6113 338.652 59.5723 337.8 58.5703 336.508C57.5596 337.8 55.5205 338.652 52.5938 338.863L51.9082 337.158ZM52.9629 344.893C52.9629 343.144 55.0459 342.177 58.5703 342.186C62.0771 342.177 64.125 343.144 64.1426 344.893C64.125 346.659 62.0771 347.626 58.5703 347.617C55.0459 347.626 52.9629 346.659 52.9629 344.893ZM55.248 344.893C55.2393 345.631 56.3291 345.965 58.5703 345.965C60.7588 345.965 61.8838 345.631 61.8926 344.893C61.8838 344.172 60.7588 343.838 58.5703 343.838C56.3291 343.838 55.2393 344.172 55.248 344.893ZM75.8496 332.324V333.256C75.832 334.205 75.832 335.576 75.4805 337.246L73.3008 337.018C73.5293 335.831 73.582 334.882 73.6084 334.082H67.5879V332.324H75.8496ZM66.6211 338.16C67.5439 338.16 68.5547 338.16 69.6094 338.151V335.576H71.8066V338.099C73.415 338.037 75.041 337.94 76.5527 337.756L76.7109 339.303C73.3799 339.874 69.7061 339.9 66.8145 339.9L66.6211 338.16ZM68.6777 342.344V340.709H79.7344V344.822H70.9453V345.807H80.2441V347.477H68.7305V343.258H77.4668V342.344H68.6777ZM77.4316 340.146V331.621H79.7344V335.031H81.6855V336.842H79.7344V340.146H77.4316Z" fill="black"/>
<path d="M118.609 390.266V394.406H120.578V395.844H118.609V400.594H116.875V390.266H118.609ZM107.625 394.766C107.617 392.68 109.289 391.211 111.438 391.203C113.586 391.211 115.234 392.68 115.25 394.766C115.234 396.82 113.586 398.312 111.438 398.312C109.289 398.312 107.617 396.82 107.625 394.766ZM109.328 394.766C109.32 395.984 110.258 396.789 111.438 396.781C112.633 396.789 113.539 395.984 113.547 394.766C113.539 393.516 112.633 392.719 111.438 392.719C110.258 392.719 109.32 393.516 109.328 394.766ZM109.562 404.109V399.516H111.297V402.703H119.172V404.109H109.562ZM133.125 390.281V400.594H131.391V395.422H128.891V394.016H131.391V390.281H133.125ZM121.266 397.547C123.516 396.805 124.719 394.961 124.719 393.078V392.703H121.781V391.297H129.406V392.703H126.484V393.094C126.484 394.789 127.625 396.547 129.812 397.266L128.938 398.656C127.359 398.117 126.242 397.039 125.625 395.703C125.008 397.188 123.828 398.375 122.156 398.953L121.266 397.547ZM123.859 404.109V399.688H125.594V402.703H133.484V404.109H123.859ZM148.031 401.266V402.688H135.125V401.266H140.688V398.516H136.547V391.203H138.281V393.516H144.828V391.203H146.562V398.516H142.406V401.266H148.031ZM138.281 397.109H144.828V394.906H138.281V397.109ZM160.781 390.281V400.641H159.047V395.891H156.328V394.453H159.047V390.281H160.781ZM149.141 397.766C152.18 396.805 154.188 395 154.523 392.766H149.875V391.344H156.422C156.422 395.07 153.961 397.852 149.875 399.156L149.141 397.766ZM151.578 404.109V399.594H153.344V402.703H161.141V404.109H151.578ZM175.656 397.422V398.828H162.781V397.422H168.344V395.922H170.062V397.422H175.656ZM163.391 395.281C166.312 395.086 167.977 394.117 168.203 392.953H164.047V391.578H168.344V390.297H170.062V391.578H174.391V392.953H170.195C170.414 394.117 172.086 395.086 175.016 395.281L174.484 396.609C171.961 396.414 170.078 395.625 169.203 394.406C168.312 395.625 166.438 396.414 163.922 396.609L163.391 395.281ZM164.281 402C164.281 400.453 166.109 399.617 169.203 399.609C172.281 399.617 174.086 400.453 174.094 402C174.086 403.539 172.281 404.375 169.203 404.375C166.109 404.375 164.281 403.539 164.281 402ZM166.047 402C166.039 402.719 167.125 403.078 169.203 403.078C171.242 403.078 172.344 402.719 172.359 402C172.344 401.273 171.242 400.906 169.203 400.906C167.125 400.906 166.039 401.273 166.047 402ZM184.5 391.312V392.156C184.484 393.117 184.484 394.523 184.156 396.312L182.438 396.156C182.719 394.703 182.773 393.617 182.789 392.75H177.297V391.312H184.5ZM176.453 397.438C177.289 397.43 178.227 397.422 179.219 397.406V394.531H180.938V397.352C182.398 397.289 183.898 397.18 185.266 396.984L185.359 398.234C182.422 398.766 179.086 398.82 176.609 398.828L176.453 397.438ZM178.562 404.109V399.906H180.312V402.703H188.328V404.109H178.562ZM186.094 400.844V390.266H187.875V394.672H189.703V396.125H187.875V400.844H186.094ZM194.797 393.438C194.797 394.93 195.703 396.406 197.484 397.016L196.703 398.328C195.406 397.852 194.516 396.961 194.008 395.875C193.516 397.062 192.617 398.039 191.281 398.562L190.469 397.281C192.258 396.578 193.141 395.039 193.156 393.438V393.328H190.828V391.969H193.156V390.422H194.797V391.969H197.094V393.328H194.797V393.438ZM192.844 400.969V399.562H202.516V404.391H200.781V400.969H192.844ZM197.859 398.859V390.516H199.5V393.906H200.859V390.281H202.516V398.922H200.859V395.312H199.5V398.859H197.859ZM216.031 390.281V398.281H214.281V390.281H216.031ZM204.516 394.328C204.516 392.336 206.141 390.961 208.328 390.953C210.508 390.961 212.133 392.336 212.125 394.328C212.133 396.273 210.508 397.672 208.328 397.672C206.141 397.672 204.516 396.273 204.516 394.328ZM206.219 394.328C206.211 395.469 207.094 396.211 208.328 396.203C209.539 396.211 210.422 395.469 210.422 394.328C210.422 393.156 209.539 392.422 208.328 392.422C207.094 392.422 206.211 393.156 206.219 394.328ZM206.656 404.219V398.969H216.031V404.219H206.656ZM208.375 402.812H214.328V400.344H208.375V402.812ZM223.156 394.281C223.148 396.461 224.461 398.945 226.688 399.984L225.719 401.359C224.125 400.609 222.945 399.094 222.312 397.328C221.672 399.266 220.438 400.922 218.812 401.703L217.797 400.344C220.047 399.273 221.414 396.633 221.422 394.281V393.094H218.344V391.656H226.109V393.094H223.156V394.281ZM227.422 404.391V390.266H229.156V395.766H231.328V397.219H229.156V404.391H227.422Z" fill="white"/>
<path d="M6.89062 140.27V142.678C8.20898 142.599 9.52734 142.476 10.7754 142.291L10.9512 143.926C7.40039 144.603 3.60352 144.638 0.808594 144.646L0.544922 142.836C1.74902 142.836 3.16406 142.827 4.6582 142.783V140.27H6.89062ZM0.861328 139.074C3.27832 138.433 4.45605 136.938 4.60547 135.312H1.37109V133.502H4.6582V131.762H6.89062V133.502H10.1953V135.312H6.92578C7.0752 136.859 8.27051 138.31 10.6875 138.898L9.66797 140.639C7.7959 140.164 6.50391 139.127 5.77441 137.8C5.08008 139.197 3.80566 140.278 1.91602 140.762L0.861328 139.074ZM11.6895 147.652V131.621H13.9219V147.652H11.6895ZM29.2148 133.01V134.521C29.2061 136.525 29.2061 138.775 28.5645 142.168L26.3145 141.939C26.9297 138.916 26.9561 136.666 26.9648 134.785H17.543V133.01H29.2148ZM16.0312 145.666V143.838H21.252V138.336H23.4844V143.838H30.6211V145.666H16.0312ZM44.2793 131.621V136.209H46.4414V138.072H44.2793V143.275H42.0293V131.621H44.2793ZM31.6934 136.719C31.6846 134.337 33.627 132.649 36.0879 132.658C38.54 132.649 40.4473 134.337 40.4473 136.719C40.4473 139.065 38.54 140.779 36.0879 140.779C33.627 140.779 31.6846 139.065 31.6934 136.719ZM33.9082 147.336V142.045H36.1406V145.543H44.8594V147.336H33.9082ZM33.9082 136.719C33.8906 138.02 34.8662 138.828 36.0879 138.828C37.3184 138.828 38.2588 138.02 38.2676 136.719C38.2588 135.383 37.3184 134.601 36.0879 134.609C34.8662 134.601 33.8906 135.383 33.9082 136.719ZM60.627 131.639V143.311H58.3945V137.58H55.7754V135.77H58.3945V131.639H60.627ZM47.0566 139.707C49.7021 138.881 50.8975 136.798 50.9062 134.75V134.504H47.6895V132.711H56.373V134.504H53.1914V134.768C53.1826 136.622 54.3252 138.6 56.8652 139.426L55.7578 141.201C53.9912 140.621 52.7695 139.461 52.0752 138.028C51.3633 139.619 50.0889 140.911 48.1992 141.535L47.0566 139.707ZM50.0098 147.336V142.291H52.2598V145.543H61.0137V147.336H50.0098ZM67.7461 135.277C67.7373 136.868 68.6602 138.45 70.6816 139.109L69.6797 140.797C68.2646 140.296 67.2979 139.373 66.7266 138.23C66.1641 139.487 65.1885 140.498 63.7207 141.043L62.7012 139.391C64.7139 138.635 65.6104 136.982 65.6191 135.277V135.189H63.1406V133.432H65.6191V131.779H67.7461V133.432H70.207V135.189H67.7461V135.277ZM65.3906 143.908V142.098H76.4473V147.617H74.2148V143.908H65.3906ZM70.9277 141.377V131.885H73.0371V135.646H74.3203V131.639H76.4473V141.412H74.3203V137.457H73.0371V141.377H70.9277ZM91.6523 131.639V140.674H89.4023V131.639H91.6523ZM78.5039 136.227C78.5039 133.941 80.3848 132.359 82.8809 132.359C85.3682 132.359 87.249 133.941 87.2578 136.227C87.249 138.424 85.3682 140.041 82.8809 140.041C80.3848 140.041 78.5039 138.424 78.5039 136.227ZM80.7012 136.227C80.6836 137.413 81.5977 138.16 82.8809 138.16C84.1289 138.16 85.0342 137.413 85.043 136.227C85.0342 134.97 84.1289 134.24 82.8809 134.24C81.5977 134.24 80.6836 134.97 80.7012 136.227ZM80.9297 147.441V141.395H91.6523V147.441H80.9297ZM83.1445 145.648H89.4551V143.17H83.1445V145.648ZM99.7207 135.98C99.7119 138.415 101.013 141.228 103.641 142.449L102.393 144.207C100.608 143.39 99.3428 141.755 98.6221 139.839C97.9102 141.948 96.5918 143.741 94.7461 144.611L93.4453 142.836C96.1084 141.597 97.4531 138.626 97.4707 135.98V134.996H94.0781V133.168H102.938V134.996H99.7207V135.98ZM104.186 147.617V131.621H106.436V137.721H108.791V139.602H106.436V147.617H104.186Z" fill="black"/>
<rect y="496" width="166" height="52" rx="8" fill="#69A2FF"/>
<path d="M14.5078 455.621V463.725H12.2754V455.621H14.5078ZM1.06055 462.002C3.73242 461.202 4.92773 459.189 4.92773 457.203V455.973H7.26562V457.203C7.24805 459.146 8.4082 461 11.0273 461.756L9.9375 463.479C8.10059 462.951 6.83496 461.835 6.10547 460.411C5.38477 461.967 4.0752 463.188 2.16797 463.76L1.06055 462.002ZM3.78516 466.15V464.41H14.5254V468.752H6.01758V469.736H14.9648V471.512H3.82031V467.082H12.293V466.15H3.78516ZM31.3125 464.568V466.361H25.0547V471.6H22.8398V466.361H16.6699V464.568H31.3125ZM18.3926 462.846V456.395H29.5547V462.846H18.3926ZM20.6074 461.088H27.3223V458.17H20.6074V461.088ZM38.4844 458.785C38.4756 460.692 39.6709 462.644 42.2988 463.443L41.1562 465.201C39.3633 464.63 38.1064 463.479 37.3857 462.037C36.6562 463.619 35.3555 464.876 33.4746 465.5L32.3145 463.742C34.9775 462.89 36.1992 460.807 36.1992 458.785V458.557H32.9121V456.764H41.7012V458.557H38.4844V458.785ZM34.916 471.336V466.15H37.1836V469.543H46.0605V471.336H34.916ZM43.3887 467.205V455.639H45.6387V467.205H43.3887Z" fill="black"/>
<path d="M60.0391 515.266V519.406H62.0078V520.844H60.0391V525.594H58.3047V515.266H60.0391ZM49.0547 519.766C49.0469 517.68 50.7188 516.211 52.8672 516.203C55.0156 516.211 56.6641 517.68 56.6797 519.766C56.6641 521.82 55.0156 523.312 52.8672 523.312C50.7188 523.312 49.0469 521.82 49.0547 519.766ZM50.7578 519.766C50.75 520.984 51.6875 521.789 52.8672 521.781C54.0625 521.789 54.9688 520.984 54.9766 519.766C54.9688 518.516 54.0625 517.719 52.8672 517.719C51.6875 517.719 50.75 518.516 50.7578 519.766ZM50.9922 529.109V524.516H52.7266V527.703H60.6016V529.109H50.9922ZM74.5547 515.281V525.594H72.8203V520.422H70.3203V519.016H72.8203V515.281H74.5547ZM62.6953 522.547C64.9453 521.805 66.1484 519.961 66.1484 518.078V517.703H63.2109V516.297H70.8359V517.703H67.9141V518.094C67.9141 519.789 69.0547 521.547 71.2422 522.266L70.3672 523.656C68.7891 523.117 67.6719 522.039 67.0547 520.703C66.4375 522.188 65.2578 523.375 63.5859 523.953L62.6953 522.547ZM65.2891 529.109V524.688H67.0234V527.703H74.9141V529.109H65.2891ZM84.4453 516.312V517.156C84.4297 518.117 84.4297 519.523 84.1016 521.312L82.3828 521.156C82.6641 519.703 82.7188 518.617 82.7344 517.75H77.2422V516.312H84.4453ZM76.3984 522.438C77.2344 522.43 78.1719 522.422 79.1641 522.406V519.531H80.8828V522.352C82.3438 522.289 83.8438 522.18 85.2109 521.984L85.3047 523.234C82.3672 523.766 79.0312 523.82 76.5547 523.828L76.3984 522.438ZM78.5078 529.109V524.906H80.2578V527.703H88.2734V529.109H78.5078ZM86.0391 525.844V515.266H87.8203V519.672H89.6484V521.125H87.8203V525.844H86.0391ZM102.148 515.266V529.406H100.43V515.266H102.148ZM91.1484 517.906V516.5H97.8047V521.797H92.9453V524.641C95.1719 524.625 97.0859 524.508 99.2891 524.141L99.4453 525.562C97.0469 525.977 94.9375 526.07 92.3984 526.062H91.1641V520.422H96.0391V517.906H91.1484ZM109.273 519.281C109.266 521.461 110.578 523.945 112.805 524.984L111.836 526.359C110.242 525.609 109.062 524.094 108.43 522.328C107.789 524.266 106.555 525.922 104.93 526.703L103.914 525.344C106.164 524.273 107.531 521.633 107.539 519.281V518.094H104.461V516.656H112.227V518.094H109.273V519.281ZM113.539 529.391V515.266H115.273V520.766H117.445V522.219H115.273V529.391H113.539Z" fill="white"/>
<rect x="173" y="496" width="166" height="52" rx="8" fill="#69A2FF"/>
<path d="M218.109 526.266V527.688H205.203V526.266H210.766V523.516H206.625V516.203H208.359V518.516H214.906V516.203H216.641V523.516H212.484V526.266H218.109ZM208.359 522.109H214.906V519.906H208.359V522.109ZM230.859 515.281V525.641H229.125V520.891H226.406V519.453H229.125V515.281H230.859ZM219.219 522.766C222.258 521.805 224.266 520 224.602 517.766H219.953V516.344H226.5C226.5 520.07 224.039 522.852 219.953 524.156L219.219 522.766ZM221.656 529.109V524.594H223.422V527.703H231.219V529.109H221.656ZM237.953 516.156L234.312 529.703H232.562L236.219 516.156H237.953ZM249.781 515.266V520H251.688V521.438H249.781V526.297H248.047V515.266H249.781ZM238.469 523.469C239.523 523.469 240.75 523.461 242.031 523.422V522.523C240.461 522.328 239.461 521.555 239.469 520.422C239.461 519.039 240.828 518.219 242.875 518.234C244.93 518.219 246.281 519.039 246.281 520.422C246.281 521.547 245.312 522.312 243.766 522.523V523.336C244.969 523.266 246.18 523.156 247.312 522.984L247.453 524.203C244.461 524.766 241.094 524.805 238.656 524.828L238.469 523.469ZM238.828 517.766V516.5H242.031V515.219H243.766V516.5H246.938V517.766H238.828ZM240.5 529.109V525.562H242.234V527.703H250.281V529.109H240.5ZM241.141 520.422C241.125 521.031 241.781 521.391 242.875 521.391C243.969 521.391 244.625 521.031 244.625 520.422C244.625 519.758 243.969 519.398 242.875 519.406C241.781 519.398 241.125 519.758 241.141 520.422ZM264.25 515.281V523.531H262.516V521.969H259.156V520.562H262.516V519.047H259.289C258.398 521.289 256.336 522.859 253.266 523.719L252.562 522.344C255.867 521.453 257.633 519.773 257.898 517.672H253.312V516.266H259.797C259.797 516.758 259.758 517.227 259.68 517.672H262.516V515.281H264.25ZM254.781 526.5C254.781 524.766 256.68 523.695 259.578 523.688C262.438 523.695 264.344 524.766 264.344 526.5C264.344 528.234 262.438 529.32 259.578 529.312C256.68 529.32 254.781 528.234 254.781 526.5ZM256.516 526.5C256.516 527.43 257.68 527.938 259.578 527.938C261.445 527.938 262.602 527.43 262.609 526.5C262.602 525.555 261.445 525.047 259.578 525.047C257.68 525.047 256.516 525.555 256.516 526.5ZM274.141 516.312V517.156C274.125 518.117 274.125 519.523 273.797 521.312L272.078 521.156C272.359 519.703 272.414 518.617 272.43 517.75H266.938V516.312H274.141ZM266.094 522.438C266.93 522.43 267.867 522.422 268.859 522.406V519.531H270.578V522.352C272.039 522.289 273.539 522.18 274.906 521.984L275 523.234C272.062 523.766 268.727 523.82 266.25 523.828L266.094 522.438ZM268.203 529.109V524.906H269.953V527.703H277.969V529.109H268.203ZM275.734 525.844V515.266H277.516V519.672H279.344V521.125H277.516V525.844H275.734ZM291.844 515.266V529.406H290.125V515.266H291.844ZM280.844 517.906V516.5H287.5V521.797H282.641V524.641C284.867 524.625 286.781 524.508 288.984 524.141L289.141 525.562C286.742 525.977 284.633 526.07 282.094 526.062H280.859V520.422H285.734V517.906H280.844ZM298.969 519.281C298.961 521.461 300.273 523.945 302.5 524.984L301.531 526.359C299.938 525.609 298.758 524.094 298.125 522.328C297.484 524.266 296.25 525.922 294.625 526.703L293.609 525.344C295.859 524.273 297.227 521.633 297.234 519.281V518.094H294.156V516.656H301.922V518.094H298.969V519.281ZM303.234 529.391V515.266H304.969V520.766H307.141V522.219H304.969V529.391H303.234Z" fill="white"/>
<rect y="554" width="166" height="104" rx="8" fill="#F5F5F5"/>
<rect x="173" y="554" width="166" height="104" rx="8" fill="#F5F5F5"/>
<path d="M20.4521 584.607C19.6045 584.601 18.9141 583.91 18.9072 583.049C18.9141 582.201 19.6045 581.511 20.4521 581.504C21.3135 581.511 22.0039 582.201 22.0107 583.049C22.0039 583.91 21.3135 584.601 20.4521 584.607ZM35.4707 576.473C37.3164 576.466 38.6494 577.498 38.6562 579.016C38.6494 580.52 37.3164 581.559 35.4707 581.545C33.6318 581.559 32.3057 580.52 32.3125 579.016C32.3057 577.498 33.6318 576.466 35.4707 576.473ZM31.4375 582.502C33.7002 582.502 36.8242 582.454 39.5039 582.051L39.5996 583.021C38.4785 583.233 37.3232 583.363 36.1953 583.438V587.779H34.8965V583.514C33.707 583.568 32.5859 583.575 31.6152 583.582L31.4375 582.502ZM33.5703 579.016C33.5566 579.904 34.3564 580.492 35.4707 580.479C36.6123 580.492 37.4121 579.904 37.4121 579.016C37.4121 578.12 36.6123 577.519 35.4707 577.525C34.3564 577.519 33.5566 578.12 33.5703 579.016ZM40.3516 588.162V575.926H41.6367V588.162H40.3516ZM53.7637 575.912V583.336H52.4648V580.67H50.5508V579.59H52.4648V575.912H53.7637ZM43.5645 578.168V577.129H46.5176V575.803H47.8027V577.129H50.7422V578.168H43.5645ZM44.2754 580.916C44.2754 579.631 45.4785 578.729 47.1602 578.729C48.8418 578.729 50.0312 579.631 50.0312 580.916C50.0312 582.235 48.8418 583.11 47.1602 583.117C45.4785 583.11 44.2754 582.235 44.2754 580.916ZM45.5195 580.916C45.5195 581.661 46.1826 582.126 47.1602 582.133C48.124 582.126 48.7871 581.661 48.7871 580.916C48.7871 580.198 48.124 579.72 47.1602 579.727C46.1826 579.72 45.5195 580.198 45.5195 580.916ZM45.6836 588.012V583.938H53.7637V588.012H45.6836ZM46.9688 586.959H52.4922V584.963H46.9688V586.959ZM65.8359 575.912V588.162H64.5234V575.912H65.8359ZM55.7734 584.881C59.0273 583.329 60.6201 581.121 60.873 578.264H56.3613V577.225H62.1855C62.1855 580.813 60.6611 583.917 56.457 585.934L55.7734 584.881ZM78.2773 575.912V588.162H77.0469V575.912H78.2773ZM67.6816 584.621C70.2861 583.076 71.5303 581.019 71.7559 578.496H68.2832V577.43H73.041C73.041 578.059 72.9932 578.667 72.8975 579.262H74.5449V576.227H75.7754V587.561H74.5449V583.391H72.4531V582.324H74.5449V580.328H72.6582C72.0635 582.386 70.7578 584.177 68.4473 585.551L67.6816 584.621ZM90.0352 575.912V588.162H88.7227V575.912H90.0352ZM79.9727 584.881C83.2266 583.329 84.8193 581.121 85.0723 578.264H80.5605V577.225H86.3848C86.3848 580.813 84.8604 583.917 80.6562 585.934L79.9727 584.881ZM101.697 576.678V577.758C101.697 578.92 101.697 580.185 101.355 581.928H103.119V582.994H98.1562V588.176H96.8438V582.994H91.9492V581.928H100.043C100.405 580.178 100.405 578.899 100.412 577.758V577.744H93.3164V576.678H101.697ZM114.289 576.842V577.525C114.275 578.346 114.275 579.562 113.975 581.148L112.689 581.025C112.956 579.672 112.997 578.681 113.011 577.908H108.109V576.842H114.289ZM107.371 582.201C108.123 582.201 108.978 582.194 109.873 582.174V579.59H111.158V582.133C112.471 582.078 113.824 581.982 115.055 581.805L115.137 582.748C112.58 583.199 109.654 583.247 107.494 583.254L107.371 582.201ZM109.23 587.902V584.279H110.529V586.85H117.557V587.902H109.23ZM115.834 585.113V575.912H117.16V579.809H118.842V580.902H117.16V585.113H115.834ZM129.738 575.912V588.189H128.439V575.912H129.738ZM120.25 578.072V577.02H125.992V581.49H121.59V584.17C123.579 584.163 125.309 584.067 127.359 583.732L127.482 584.799C125.315 585.161 123.47 585.243 121.303 585.25H120.264V580.451H124.666V578.072H120.25ZM20.4521 608.607C19.6045 608.601 18.9141 607.91 18.9072 607.049C18.9141 606.201 19.6045 605.511 20.4521 605.504C21.3135 605.511 22.0039 606.201 22.0107 607.049C22.0039 607.91 21.3135 608.601 20.4521 608.607ZM41.0762 599.898V603.562H42.8535V604.656H41.0762V608.908H39.7773V599.898H41.0762ZM31.6426 603.795C31.6289 602.011 33.0508 600.753 34.8965 600.746C36.749 600.753 38.1504 602.011 38.1641 603.795C38.1504 605.579 36.749 606.851 34.8965 606.844C33.0508 606.851 31.6289 605.579 31.6426 603.795ZM32.9141 603.795C32.9004 604.937 33.7754 605.709 34.8965 605.709C36.0312 605.709 36.8857 604.937 36.8926 603.795C36.8857 602.653 36.0312 601.881 34.8965 601.881C33.7754 601.881 32.9004 602.653 32.9141 603.795ZM33.3105 611.902V607.965H34.6094V610.85H41.5957V611.902H33.3105ZM53.7637 599.926V608.895H52.4648V604.287H50.127V603.234H52.4648V599.926H53.7637ZM43.5645 606.338C45.4443 605.702 46.6201 604.089 46.6133 602.4V601.922H43.9609V600.855H50.5645V601.922H47.9395V602.4C47.9326 603.925 49.04 605.463 50.8926 606.078L50.2227 607.117C48.8486 606.639 47.8301 605.654 47.2969 604.438C46.7637 605.791 45.6904 606.871 44.2344 607.391L43.5645 606.338ZM45.8066 611.902V608.088H47.1055V610.85H54.0918V611.902H45.8066ZM59.9023 603.029C59.8887 605.196 61.1533 607.418 62.9785 608.307L62.1719 609.346C60.8389 608.648 59.8066 607.281 59.2666 605.647C58.7197 607.384 57.6465 608.854 56.252 609.578L55.4453 608.525C57.3252 607.623 58.5967 605.271 58.6035 603.029V600.938H59.9023V603.029ZM63.8945 612.162V599.912H65.1934V604.793H67.1621V605.9H65.1934V612.162H63.8945ZM77.6621 601.088V602.291C77.6553 603.802 77.6553 605.497 77.1973 608.006L75.8848 607.869C76.3564 605.497 76.3564 603.761 76.3633 602.291V602.141H68.9258V601.088H77.6621ZM67.75 610.508V609.428H72.002V605.107H73.2871V609.428H78.9199V610.508H67.75ZM90.0898 600.842V601.525C90.0762 602.346 90.0762 603.562 89.7754 605.148L88.4902 605.025C88.7568 603.672 88.7979 602.681 88.8115 601.908H83.9102V600.842H90.0898ZM83.1719 606.201C83.9238 606.201 84.7783 606.194 85.6738 606.174V603.59H86.959V606.133C88.2715 606.078 89.625 605.982 90.8555 605.805L90.9375 606.748C88.3809 607.199 85.4551 607.247 83.2949 607.254L83.1719 606.201ZM85.0312 611.902V608.279H86.3301V610.85H93.3574V611.902H85.0312ZM91.6348 609.113V599.912H92.9609V603.809H94.6426V604.902H92.9609V609.113H91.6348ZM105.539 599.912V612.189H104.24V599.912H105.539ZM96.0508 602.072V601.02H101.793V605.49H97.3906V608.17C99.3799 608.163 101.109 608.067 103.16 607.732L103.283 608.799C101.116 609.161 99.2705 609.243 97.1035 609.25H96.0645V604.451H100.467V602.072H96.0508ZM20.4521 632.607C19.6045 632.601 18.9141 631.91 18.9072 631.049C18.9141 630.201 19.6045 629.511 20.4521 629.504C21.3135 629.511 22.0039 630.201 22.0107 631.049C22.0039 631.91 21.3135 632.601 20.4521 632.607ZM41.0762 623.898V627.562H42.8535V628.656H41.0762V632.908H39.7773V623.898H41.0762ZM31.6426 627.795C31.6289 626.011 33.0508 624.753 34.8965 624.746C36.749 624.753 38.1504 626.011 38.1641 627.795C38.1504 629.579 36.749 630.851 34.8965 630.844C33.0508 630.851 31.6289 629.579 31.6426 627.795ZM32.9141 627.795C32.9004 628.937 33.7754 629.709 34.8965 629.709C36.0312 629.709 36.8857 628.937 36.8926 627.795C36.8857 626.653 36.0312 625.881 34.8965 625.881C33.7754 625.881 32.9004 626.653 32.9141 627.795ZM33.3105 635.902V631.965H34.6094V634.85H41.5957V635.902H33.3105ZM53.7637 623.926V632.895H52.4648V628.287H50.127V627.234H52.4648V623.926H53.7637ZM43.5645 630.338C45.4443 629.702 46.6201 628.089 46.6133 626.4V625.922H43.9609V624.855H50.5645V625.922H47.9395V626.4C47.9326 627.925 49.04 629.463 50.8926 630.078L50.2227 631.117C48.8486 630.639 47.8301 629.654 47.2969 628.438C46.7637 629.791 45.6904 630.871 44.2344 631.391L43.5645 630.338ZM45.8066 635.902V632.088H47.1055V634.85H54.0918V635.902H45.8066ZM65.6035 625.088V626.4C65.5898 627.938 65.5898 629.552 65.1523 631.896L63.8809 631.76C64.3115 629.545 64.3115 627.904 64.3047 626.4V626.141H56.7988V625.088H65.6035ZM55.6504 634.508V633.428H58.2891V629.463H59.5879V633.428H61.3516V629.463H62.623V633.428H66.8203V634.508H55.6504ZM78.9199 629.75V630.803H76.0352V632.225H77.5527V636.162H76.2402V633.25H68.9941V632.225H70.6074V630.803H67.75V629.75H78.9199ZM68.9531 626.551C68.9463 625.067 70.6484 624.179 73.3281 624.186C76.001 624.179 77.6963 625.067 77.7031 626.551C77.6963 628.027 76.001 628.923 73.3281 628.916C70.6484 628.923 68.9463 628.027 68.9531 626.551ZM70.293 626.551C70.2861 627.405 71.4414 627.904 73.3281 627.904C75.2012 627.904 76.3701 627.405 76.3633 626.551C76.3701 625.703 75.2012 625.204 73.3281 625.211C71.4414 625.204 70.2861 625.703 70.293 626.551ZM71.9062 632.225H74.7637V630.803H71.9062V632.225ZM90.0898 624.842V625.525C90.0762 626.346 90.0762 627.562 89.7754 629.148L88.4902 629.025C88.7568 627.672 88.7979 626.681 88.8115 625.908H83.9102V624.842H90.0898ZM83.1719 630.201C83.9238 630.201 84.7783 630.194 85.6738 630.174V627.59H86.959V630.133C88.2715 630.078 89.625 629.982 90.8555 629.805L90.9375 630.748C88.3809 631.199 85.4551 631.247 83.2949 631.254L83.1719 630.201ZM85.0312 635.902V632.279H86.3301V634.85H93.3574V635.902H85.0312ZM91.6348 633.113V623.912H92.9609V627.809H94.6426V628.902H92.9609V633.113H91.6348ZM105.539 623.912V636.189H104.24V623.912H105.539ZM96.0508 626.072V625.02H101.793V629.49H97.3906V632.17C99.3799 632.163 101.109 632.067 103.16 631.732L103.283 632.799C101.116 633.161 99.2705 633.243 97.1035 633.25H96.0645V628.451H100.467V626.072H96.0508Z" fill="#282828"/>
<path d="M193.452 584.607C192.604 584.601 191.914 583.91 191.907 583.049C191.914 582.201 192.604 581.511 193.452 581.504C194.313 581.511 195.004 582.201 195.011 583.049C195.004 583.91 194.313 584.601 193.452 584.607ZM208.73 578.113C208.724 579.679 209.811 581.162 211.684 581.791L211.027 582.803C209.64 582.324 208.621 581.367 208.088 580.164C207.555 581.483 206.488 582.529 205.053 583.035L204.355 582.023C206.27 581.374 207.425 579.788 207.432 578.1V577.771H204.738V576.719H211.369V577.771H208.73V578.113ZM205.982 584.949V583.896H214.076V588.162H212.777V584.949H205.982ZM212.777 583.295V575.912H214.076V579.057H215.854V580.15H214.076V583.295H212.777ZM219.941 576.473C221.555 576.459 222.806 577.396 223.072 578.77H225.465V575.912H226.764V582.488H225.465V579.836H223.079C222.826 581.244 221.568 582.188 219.941 582.188C218.068 582.188 216.722 581.005 216.729 579.316C216.722 577.648 218.068 576.459 219.941 576.473ZM217.973 579.316C217.966 580.362 218.786 581.094 219.941 581.094C221.076 581.094 221.883 580.362 221.883 579.316C221.883 578.264 221.076 577.546 219.941 577.553C218.786 577.546 217.966 578.264 217.973 579.316ZM218.779 588.012V583.076H220.064V584.498H225.465V583.076H226.764V588.012H218.779ZM220.064 586.945H225.465V585.523H220.064V586.945ZM238.289 575.912V580.109H240.039V581.189H238.289V585.482H236.99V575.912H238.289ZM228.568 583.104C229.512 583.104 230.612 583.104 231.768 583.062V582.208C230.373 582.044 229.484 581.374 229.498 580.369C229.484 579.18 230.653 578.469 232.41 578.482C234.167 578.469 235.315 579.18 235.322 580.369C235.315 581.374 234.447 582.044 233.066 582.201V583.001C234.16 582.939 235.268 582.837 236.293 582.68L236.402 583.596C233.791 584.088 230.845 584.122 228.705 584.143L228.568 583.104ZM228.883 578.004V577.047H231.768V575.871H233.066V577.047H235.951V578.004H228.883ZM230.373 587.902V584.84H231.672V586.85H238.727V587.902H230.373ZM230.729 580.369C230.729 580.964 231.364 581.34 232.41 581.34C233.442 581.34 234.085 580.964 234.078 580.369C234.085 579.733 233.442 579.364 232.41 579.371C231.364 579.364 230.729 579.733 230.729 580.369ZM250.963 575.926V583.172H249.664V581.682H246.574V580.615H249.664V579.125H246.704C245.911 581.094 244.072 582.481 241.42 583.24L240.9 582.229C243.799 581.401 245.494 579.843 245.727 577.867H241.529V576.801H247.135C247.135 577.252 247.087 577.689 247.005 578.1H249.664V575.926H250.963ZM242.801 585.701C242.801 584.218 244.414 583.315 246.93 583.309C249.411 583.315 251.038 584.218 251.045 585.701C251.038 587.191 249.411 588.107 246.93 588.107C244.414 588.107 242.801 587.191 242.801 585.701ZM244.086 585.701C244.086 586.562 245.18 587.062 246.93 587.068C248.646 587.062 249.739 586.562 249.746 585.701C249.739 584.826 248.646 584.327 246.93 584.334C245.18 584.327 244.086 584.826 244.086 585.701ZM263.09 576.842V577.525C263.076 578.346 263.076 579.562 262.775 581.148L261.49 581.025C261.757 579.672 261.798 578.681 261.812 577.908H256.91V576.842H263.09ZM256.172 582.201C256.924 582.201 257.778 582.194 258.674 582.174V579.59H259.959V582.133C261.271 582.078 262.625 581.982 263.855 581.805L263.938 582.748C261.381 583.199 258.455 583.247 256.295 583.254L256.172 582.201ZM258.031 587.902V584.279H259.33V586.85H266.357V587.902H258.031ZM264.635 585.113V575.912H265.961V579.809H267.643V580.902H265.961V585.113H264.635ZM278.539 575.912V588.189H277.24V575.912H278.539ZM269.051 578.072V577.02H274.793V581.49H270.391V584.17C272.38 584.163 274.109 584.067 276.16 583.732L276.283 584.799C274.116 585.161 272.271 585.243 270.104 585.25H269.064V580.451H273.467V578.072H269.051ZM193.452 608.607C192.604 608.601 191.914 607.91 191.907 607.049C191.914 606.201 192.604 605.511 193.452 605.504C194.313 605.511 195.004 606.201 195.011 607.049C195.004 607.91 194.313 608.601 193.452 608.607ZM214.664 599.926V608.949H213.365V604.697H210.822V603.617H213.365V599.926H214.664ZM204.629 606.543C207.356 605.661 209.209 604 209.476 601.922H205.258V600.842H210.904C210.891 604.041 208.696 606.447 205.176 607.582L204.629 606.543ZM206.775 611.902V608.02H208.088V610.85H214.979V611.902H206.775ZM226.176 599.912V603.002H227.953V604.055H226.176V607.186H224.877V599.912H226.176ZM216.537 606.229C219.408 605.422 221.165 603.822 221.404 601.84H217.084V600.787H222.812C222.812 603.952 220.659 606.242 217.07 607.281L216.537 606.229ZM218.205 609.729C218.191 608.238 219.805 607.315 222.266 607.322C224.733 607.315 226.312 608.238 226.312 609.729C226.312 611.232 224.733 612.142 222.266 612.148C219.805 612.142 218.191 611.232 218.205 609.729ZM219.49 609.729C219.483 610.59 220.55 611.116 222.266 611.123C223.968 611.116 225.041 610.59 225.041 609.729C225.041 608.867 223.968 608.341 222.266 608.348C220.55 608.341 219.483 608.867 219.49 609.729ZM234.98 600.678C234.98 603.795 232.841 606.003 229.293 607.008L228.76 605.996C231.59 605.203 233.34 603.679 233.593 601.744H229.402V600.678H234.98ZM230.852 611.998V607.363H238.863V611.998H230.852ZM232.123 610.959H237.578V608.402H232.123V610.959ZM235.035 604.068V602.988H237.564V599.926H238.863V606.857H237.564V604.068H235.035ZM245.289 602.469C245.289 604.055 246.458 605.545 248.352 606.146L247.682 607.158C246.273 606.693 245.214 605.729 244.653 604.506C244.106 605.839 243.013 606.892 241.557 607.404L240.887 606.379C242.794 605.729 243.97 604.144 243.977 602.469V601.936H241.229V600.883H247.982V601.936H245.289V602.469ZM242.896 611.902V608.02H244.209V610.85H251.277V611.902H242.896ZM249.609 608.867V599.926H250.908V608.867H249.609ZM263.09 600.842V601.525C263.076 602.346 263.076 603.562 262.775 605.148L261.49 605.025C261.757 603.672 261.798 602.681 261.812 601.908H256.91V600.842H263.09ZM256.172 606.201C256.924 606.201 257.778 606.194 258.674 606.174V603.59H259.959V606.133C261.271 606.078 262.625 605.982 263.855 605.805L263.938 606.748C261.381 607.199 258.455 607.247 256.295 607.254L256.172 606.201ZM258.031 611.902V608.279H259.33V610.85H266.357V611.902H258.031ZM264.635 609.113V599.912H265.961V603.809H267.643V604.902H265.961V609.113H264.635ZM278.539 599.912V612.189H277.24V599.912H278.539ZM269.051 602.072V601.02H274.793V605.49H270.391V608.17C272.38 608.163 274.109 608.067 276.16 607.732L276.283 608.799C274.116 609.161 272.271 609.243 270.104 609.25H269.064V604.451H273.467V602.072H269.051ZM193.452 632.607C192.604 632.601 191.914 631.91 191.907 631.049C191.914 630.201 192.604 629.511 193.452 629.504C194.313 629.511 195.004 630.201 195.011 631.049C195.004 631.91 194.313 632.601 193.452 632.607ZM214.049 623.912V629.039H215.895V630.133H214.049V636.162H212.75V623.912H214.049ZM204.301 632.826C205.265 632.826 206.386 632.826 207.555 632.792V631.548C206.174 631.343 205.271 630.509 205.285 629.326C205.271 627.945 206.468 627.036 208.211 627.029C209.947 627.036 211.157 627.945 211.164 629.326C211.157 630.509 210.241 631.35 208.854 631.548V632.744C209.94 632.689 211.034 632.601 212.053 632.457L212.135 633.414C209.482 633.886 206.618 633.913 204.506 633.906L204.301 632.826ZM204.533 626.4V625.361H207.555V623.939H208.854V625.361H211.875V626.4H204.533ZM206.502 629.326C206.502 630.105 207.186 630.591 208.211 630.584C209.236 630.591 209.913 630.105 209.92 629.326C209.913 628.54 209.236 628.041 208.211 628.041C207.186 628.041 206.502 628.54 206.502 629.326ZM223.865 625.156V626.195H216.564V625.156H219.572V623.857H220.871V625.156H223.865ZM217.234 628.971C217.228 627.631 218.444 626.756 220.215 626.742C221.979 626.756 223.182 627.631 223.182 628.971C223.182 630.317 221.979 631.199 220.215 631.199C218.444 631.199 217.228 630.317 217.234 628.971ZM218.082 633.25V632.197H226.176V636.162H224.877V633.25H218.082ZM218.492 628.971C218.479 629.729 219.176 630.188 220.215 630.188C221.254 630.188 221.951 629.729 221.965 628.971C221.951 628.219 221.254 627.747 220.215 627.74C219.176 627.747 218.479 628.219 218.492 628.971ZM224.877 631.568V623.912H226.176V627.234H227.953V628.314H226.176V631.568H224.877ZM239.82 628.984V630.023H234.871V631.09H238.412V633.961H231.275V635.041H238.754V636.039H230.004V633.018H237.127V632.088H229.99V631.09H233.572V630.023H228.65V628.984H239.82ZM230.086 628.082V624.309H238.385V628.082H230.086ZM231.357 627.057H237.086V625.334H231.357V627.057ZM250.895 623.912V630.242H249.609V623.912H250.895ZM240.887 629.271C242.787 628.684 243.97 627.207 243.977 625.621H241.229V624.568H247.982V625.621H245.289C245.289 627.118 246.458 628.499 248.365 629.039L247.736 630.037C246.287 629.606 245.207 628.684 244.653 627.508C244.113 628.807 242.992 629.825 241.488 630.297L240.887 629.271ZM242.855 631.801V630.803H250.908V633.838H244.154V635.027H251.318V636.039H242.896V632.895H249.623V631.801H242.855ZM263.09 624.842V625.525C263.076 626.346 263.076 627.562 262.775 629.148L261.49 629.025C261.757 627.672 261.798 626.681 261.812 625.908H256.91V624.842H263.09ZM256.172 630.201C256.924 630.201 257.778 630.194 258.674 630.174V627.59H259.959V630.133C261.271 630.078 262.625 629.982 263.855 629.805L263.938 630.748C261.381 631.199 258.455 631.247 256.295 631.254L256.172 630.201ZM258.031 635.902V632.279H259.33V634.85H266.357V635.902H258.031ZM264.635 633.113V623.912H265.961V627.809H267.643V628.902H265.961V633.113H264.635ZM278.539 623.912V636.189H277.24V623.912H278.539ZM269.051 626.072V625.02H274.793V629.49H270.391V632.17C272.38 632.163 274.109 632.067 276.16 631.732L276.283 632.799C274.116 633.161 272.271 633.243 270.104 633.25H269.064V628.451H273.467V626.072H269.051Z" fill="#282828"/>
<rect x="168" y="424" width="1" height="50" fill="#E1E6EF"/>
<rect x="83.0205" y="473" width="172" height="1" fill="#E1E6EF"/>
<rect x="254" y="474" width="1" height="16" fill="#E1E6EF"/>
<path d="M254.328 501C251.567 501 249.328 498.761 249.328 496C249.328 493.239 251.567 491 254.328 491C257.09 491 259.328 493.239 259.328 496C259.328 498.761 257.09 501 254.328 501Z" fill="#83ADF8" stroke="#BBD4FF" stroke-width="2"/>
<rect x="83" y="474" width="1" height="16" fill="#E1E6EF"/>
<path d="M83.3281 501C80.5667 501 78.3281 498.761 78.3281 496C78.3281 493.239 80.5667 491 83.3281 491C86.0895 491 88.3281 493.239 88.3281 496C88.3281 498.761 86.0895 501 83.3281 501Z" fill="#83ADF8" stroke="#BBD4FF" stroke-width="2"/>
<rect x="168.385" y="172" width="1.00001" height="72" transform="rotate(-180 168.385 172)" fill="#E1E6EF"/>
<rect x="168.385" y="372" width="1.00001" height="84" transform="rotate(-180 168.385 372)" fill="#E1E6EF"/>
</svg>
