<svg width="1336" height="547" viewBox="0 0 1336 547" fill="none" xmlns="http://www.w3.org/2000/svg">
<rect x="646.229" y="339.25" width="0.5" height="9.5" stroke="#E1E6EF" stroke-width="0.5"/>
<rect x="911.229" y="339.25" width="0.5" height="10.5" stroke="#E1E6EF" stroke-width="0.5"/>
<rect x="646.229" y="339.25" width="265.5" height="0.5" stroke="#E1E6EF" stroke-width="0.5"/>
<rect x="778.25" y="324.25" width="0.5" height="15.5" stroke="#E1E6EF" stroke-width="0.5"/>
<rect x="778.25" y="228.25" width="0.5" height="29.5" stroke="#E1E6EF" stroke-width="0.5"/>
<rect x="778.25" y="66.25" width="0.5" height="43.5" stroke="#E1E6EF" stroke-width="0.5"/>
<line x1="441.75" y1="387.25" x2="500.25" y2="387.25" stroke="#C4C4C4" stroke-width="1.5" stroke-linecap="round" stroke-dasharray="4 4"/>
<path d="M314.852 379.621V387.725H312.619V379.621H314.852ZM301.404 386.002C304.076 385.202 305.271 383.189 305.271 381.203V379.973H307.609V381.203C307.592 383.146 308.752 385 311.371 385.756L310.281 387.479C308.444 386.951 307.179 385.835 306.449 384.411C305.729 385.967 304.419 387.188 302.512 387.76L301.404 386.002ZM304.129 390.15V388.41H314.869V392.752H306.361V393.736H315.309V395.512H304.164V391.082H312.637V390.15H304.129ZM331.656 388.568V390.361H325.398V395.6H323.184V390.361H317.014V388.568H331.656ZM318.736 386.846V380.395H329.898V386.846H318.736ZM320.951 385.088H327.666V382.17H320.951V385.088ZM338.828 382.785C338.819 384.692 340.015 386.644 342.643 387.443L341.5 389.201C339.707 388.63 338.45 387.479 337.729 386.037C337 387.619 335.699 388.876 333.818 389.5L332.658 387.742C335.321 386.89 336.543 384.807 336.543 382.785V382.557H333.256V380.764H342.045V382.557H338.828V382.785ZM335.26 395.336V390.15H337.527V393.543H346.404V395.336H335.26ZM343.732 391.205V379.639H345.982V391.205H343.732Z" fill="black"/>
<rect x="521" y="431" width="250" height="116" rx="16" fill="#F5F5F5"/>
<path d="M562.945 464.266C561.977 464.258 561.188 463.469 561.18 462.484C561.188 461.516 561.977 460.727 562.945 460.719C563.93 460.727 564.719 461.516 564.727 462.484C564.719 463.469 563.93 464.258 562.945 464.266ZM580.109 454.969C582.219 454.961 583.742 456.141 583.75 457.875C583.742 459.594 582.219 460.781 580.109 460.766C578.008 460.781 576.492 459.594 576.5 457.875C576.492 456.141 578.008 454.961 580.109 454.969ZM575.5 461.859C578.086 461.859 581.656 461.805 584.719 461.344L584.828 462.453C583.547 462.695 582.227 462.844 580.938 462.93V467.891H579.453V463.016C578.094 463.078 576.812 463.086 575.703 463.094L575.5 461.859ZM577.938 457.875C577.922 458.891 578.836 459.562 580.109 459.547C581.414 459.562 582.328 458.891 582.328 457.875C582.328 456.852 581.414 456.164 580.109 456.172C578.836 456.164 577.922 456.852 577.938 457.875ZM585.688 468.328V454.344H587.156V468.328H585.688ZM601.016 454.328V462.812H599.531V459.766H597.344V458.531H599.531V454.328H601.016ZM589.359 456.906V455.719H592.734V454.203H594.203V455.719H597.562V456.906H589.359ZM590.172 460.047C590.172 458.578 591.547 457.547 593.469 457.547C595.391 457.547 596.75 458.578 596.75 460.047C596.75 461.555 595.391 462.555 593.469 462.562C591.547 462.555 590.172 461.555 590.172 460.047ZM591.594 460.047C591.594 460.898 592.352 461.43 593.469 461.438C594.57 461.43 595.328 460.898 595.328 460.047C595.328 459.227 594.57 458.68 593.469 458.688C592.352 458.68 591.594 459.227 591.594 460.047ZM591.781 468.156V463.5H601.016V468.156H591.781ZM593.25 466.953H599.562V464.672H593.25V466.953ZM614.812 454.328V468.328H613.312V454.328H614.812ZM603.312 464.578C607.031 462.805 608.852 460.281 609.141 457.016H603.984V455.828H610.641C610.641 459.93 608.898 463.477 604.094 465.781L603.312 464.578ZM629.031 454.328V468.328H627.625V454.328H629.031ZM616.922 464.281C619.898 462.516 621.32 460.164 621.578 457.281H617.609V456.062H623.047C623.047 456.781 622.992 457.477 622.883 458.156H624.766V454.688H626.172V467.641H624.766V462.875H622.375V461.656H624.766V459.375H622.609C621.93 461.727 620.438 463.773 617.797 465.344L616.922 464.281ZM642.469 454.328V468.328H640.969V454.328H642.469ZM630.969 464.578C634.688 462.805 636.508 460.281 636.797 457.016H631.641V455.828H638.297C638.297 459.93 636.555 463.477 631.75 465.781L630.969 464.578ZM655.797 455.203V456.438C655.797 457.766 655.797 459.211 655.406 461.203H657.422V462.422H651.75V468.344H650.25V462.422H644.656V461.203H653.906C654.32 459.203 654.32 457.742 654.328 456.438V456.422H646.219V455.203H655.797ZM670.188 455.391V456.172C670.172 457.109 670.172 458.5 669.828 460.312L668.359 460.172C668.664 458.625 668.711 457.492 668.727 456.609H663.125V455.391H670.188ZM662.281 461.516C663.141 461.516 664.117 461.508 665.141 461.484V458.531H666.609V461.438C668.109 461.375 669.656 461.266 671.062 461.062L671.156 462.141C668.234 462.656 664.891 462.711 662.422 462.719L662.281 461.516ZM664.406 468.031V463.891H665.891V466.828H673.922V468.031H664.406ZM671.953 464.844V454.328H673.469V458.781H675.391V460.031H673.469V464.844H671.953ZM687.844 454.328V468.359H686.359V454.328H687.844ZM677 456.797V455.594H683.562V460.703H678.531V463.766C680.805 463.758 682.781 463.648 685.125 463.266L685.266 464.484C682.789 464.898 680.68 464.992 678.203 465H677.016V459.516H682.047V456.797H677ZM562.945 492.266C561.977 492.258 561.188 491.469 561.18 490.484C561.188 489.516 561.977 488.727 562.945 488.719C563.93 488.727 564.719 489.516 564.727 490.484C564.719 491.469 563.93 492.258 562.945 492.266ZM586.516 482.312V486.5H588.547V487.75H586.516V492.609H585.031V482.312H586.516ZM575.734 486.766C575.719 484.727 577.344 483.289 579.453 483.281C581.57 483.289 583.172 484.727 583.188 486.766C583.172 488.805 581.57 490.258 579.453 490.25C577.344 490.258 575.719 488.805 575.734 486.766ZM577.188 486.766C577.172 488.07 578.172 488.953 579.453 488.953C580.75 488.953 581.727 488.07 581.734 486.766C581.727 485.461 580.75 484.578 579.453 484.578C578.172 484.578 577.172 485.461 577.188 486.766ZM577.641 496.031V491.531H579.125V494.828H587.109V496.031H577.641ZM601.016 482.344V492.594H599.531V487.328H596.859V486.125H599.531V482.344H601.016ZM589.359 489.672C591.508 488.945 592.852 487.102 592.844 485.172V484.625H589.812V483.406H597.359V484.625H594.359V485.172C594.352 486.914 595.617 488.672 597.734 489.375L596.969 490.562C595.398 490.016 594.234 488.891 593.625 487.5C593.016 489.047 591.789 490.281 590.125 490.875L589.359 489.672ZM591.922 496.031V491.672H593.406V494.828H601.391V496.031H591.922ZM608.031 485.891C608.016 488.367 609.461 490.906 611.547 491.922L610.625 493.109C609.102 492.312 607.922 490.75 607.305 488.883C606.68 490.867 605.453 492.547 603.859 493.375L602.938 492.172C605.086 491.141 606.539 488.453 606.547 485.891V483.5H608.031V485.891ZM612.594 496.328V482.328H614.078V487.906H616.328V489.172H614.078V496.328H612.594ZM628.328 483.672V485.047C628.32 486.773 628.32 488.711 627.797 491.578L626.297 491.422C626.836 488.711 626.836 486.727 626.844 485.047V484.875H618.344V483.672H628.328ZM617 494.438V493.203H621.859V488.266H623.328V493.203H629.766V494.438H617ZM642.531 483.391V484.172C642.516 485.109 642.516 486.5 642.172 488.312L640.703 488.172C641.008 486.625 641.055 485.492 641.07 484.609H635.469V483.391H642.531ZM634.625 489.516C635.484 489.516 636.461 489.508 637.484 489.484V486.531H638.953V489.438C640.453 489.375 642 489.266 643.406 489.062L643.5 490.141C640.578 490.656 637.234 490.711 634.766 490.719L634.625 489.516ZM636.75 496.031V491.891H638.234V494.828H646.266V496.031H636.75ZM644.297 492.844V482.328H645.812V486.781H647.734V488.031H645.812V492.844H644.297ZM660.188 482.328V496.359H658.703V482.328H660.188ZM649.344 484.797V483.594H655.906V488.703H650.875V491.766C653.148 491.758 655.125 491.648 657.469 491.266L657.609 492.484C655.133 492.898 653.023 492.992 650.547 493H649.359V487.516H654.391V484.797H649.344ZM562.945 520.266C561.977 520.258 561.188 519.469 561.18 518.484C561.188 517.516 561.977 516.727 562.945 516.719C563.93 516.727 564.719 517.516 564.727 518.484C564.719 519.469 563.93 520.258 562.945 520.266ZM586.516 510.312V514.5H588.547V515.75H586.516V520.609H585.031V510.312H586.516ZM575.734 514.766C575.719 512.727 577.344 511.289 579.453 511.281C581.57 511.289 583.172 512.727 583.188 514.766C583.172 516.805 581.57 518.258 579.453 518.25C577.344 518.258 575.719 516.805 575.734 514.766ZM577.188 514.766C577.172 516.07 578.172 516.953 579.453 516.953C580.75 516.953 581.727 516.07 581.734 514.766C581.727 513.461 580.75 512.578 579.453 512.578C578.172 512.578 577.172 513.461 577.188 514.766ZM577.641 524.031V519.531H579.125V522.828H587.109V524.031H577.641ZM601.016 510.344V520.594H599.531V515.328H596.859V514.125H599.531V510.344H601.016ZM589.359 517.672C591.508 516.945 592.852 515.102 592.844 513.172V512.625H589.812V511.406H597.359V512.625H594.359V513.172C594.352 514.914 595.617 516.672 597.734 517.375L596.969 518.562C595.398 518.016 594.234 516.891 593.625 515.5C593.016 517.047 591.789 518.281 590.125 518.875L589.359 517.672ZM591.922 524.031V519.672H593.406V522.828H601.391V524.031H591.922ZM614.547 511.672V513.172C614.531 514.93 614.531 516.773 614.031 519.453L612.578 519.297C613.07 516.766 613.07 514.891 613.062 513.172V512.875H604.484V511.672H614.547ZM603.172 522.438V521.203H606.188V516.672H607.672V521.203H609.688V516.672H611.141V521.203H615.938V522.438H603.172ZM629.766 517V518.203H626.469V519.828H628.203V524.328H626.703V521H618.422V519.828H620.266V518.203H617V517H629.766ZM618.375 513.344C618.367 511.648 620.312 510.633 623.375 510.641C626.43 510.633 628.367 511.648 628.375 513.344C628.367 515.031 626.43 516.055 623.375 516.047C620.312 516.055 618.367 515.031 618.375 513.344ZM619.906 513.344C619.898 514.32 621.219 514.891 623.375 514.891C625.516 514.891 626.852 514.32 626.844 513.344C626.852 512.375 625.516 511.805 623.375 511.812C621.219 511.805 619.898 512.375 619.906 513.344ZM621.75 519.828H625.016V518.203H621.75V519.828ZM642.531 511.391V512.172C642.516 513.109 642.516 514.5 642.172 516.312L640.703 516.172C641.008 514.625 641.055 513.492 641.07 512.609H635.469V511.391H642.531ZM634.625 517.516C635.484 517.516 636.461 517.508 637.484 517.484V514.531H638.953V517.438C640.453 517.375 642 517.266 643.406 517.062L643.5 518.141C640.578 518.656 637.234 518.711 634.766 518.719L634.625 517.516ZM636.75 524.031V519.891H638.234V522.828H646.266V524.031H636.75ZM644.297 520.844V510.328H645.812V514.781H647.734V516.031H645.812V520.844H644.297ZM660.188 510.328V524.359H658.703V510.328H660.188ZM649.344 512.797V511.594H655.906V516.703H650.875V519.766C653.148 519.758 655.125 519.648 657.469 519.266L657.609 520.484C655.133 520.898 653.023 520.992 650.547 521H649.359V515.516H654.391V512.797H649.344Z" fill="#282828"/>
<rect x="520.979" y="355" width="250" height="66" rx="16" fill="#69A2FF"/>
<path d="M620.04 379.674V384.332H622.255V385.949H620.04V391.293H618.089V379.674H620.04ZM607.683 384.736C607.674 382.39 609.555 380.737 611.972 380.729C614.389 380.737 616.243 382.39 616.261 384.736C616.243 387.048 614.389 388.727 611.972 388.727C609.555 388.727 607.674 387.048 607.683 384.736ZM609.599 384.736C609.59 386.107 610.645 387.013 611.972 387.004C613.316 387.013 614.336 386.107 614.345 384.736C614.336 383.33 613.316 382.434 611.972 382.434C610.645 382.434 609.59 383.33 609.599 384.736ZM609.862 395.248V390.08H611.813V393.666H620.673V395.248H609.862ZM636.37 379.691V391.293H634.419V385.475H631.606V383.893H634.419V379.691H636.37ZM623.028 387.865C625.56 387.03 626.913 384.956 626.913 382.838V382.416H623.608V380.834H632.187V382.416H628.899V382.855C628.899 384.763 630.183 386.74 632.644 387.549L631.659 389.113C629.884 388.507 628.627 387.294 627.933 385.791C627.238 387.461 625.911 388.797 624.03 389.447L623.028 387.865ZM625.946 395.248V390.273H627.897V393.666H636.774V395.248H625.946ZM647.497 380.852V381.801C647.479 382.882 647.479 384.464 647.11 386.477L645.177 386.301C645.493 384.666 645.555 383.444 645.572 382.469H639.394V380.852H647.497ZM638.444 387.742C639.385 387.733 640.439 387.725 641.556 387.707V384.473H643.489V387.646C645.133 387.575 646.82 387.452 648.358 387.232L648.464 388.639C645.159 389.236 641.406 389.298 638.62 389.307L638.444 387.742ZM640.817 395.248V390.52H642.786V393.666H651.804V395.248H640.817ZM649.29 391.574V379.674H651.294V384.631H653.351V386.266H651.294V391.574H649.29ZM667.413 379.674V395.582H665.479V379.674H667.413ZM655.038 382.645V381.062H662.526V387.021H657.06V390.221C659.564 390.203 661.718 390.071 664.196 389.658L664.372 391.258C661.674 391.724 659.301 391.829 656.444 391.82H655.056V385.475H660.54V382.645H655.038ZM675.429 384.191C675.42 386.644 676.896 389.438 679.401 390.607L678.312 392.154C676.519 391.311 675.191 389.605 674.479 387.619C673.759 389.799 672.37 391.662 670.542 392.541L669.399 391.012C671.931 389.808 673.469 386.837 673.478 384.191V382.855H670.015V381.238H678.751V382.855H675.429V384.191ZM680.228 395.564V379.674H682.179V385.861H684.622V387.496H682.179V395.564H680.228Z" fill="white"/>
<rect x="786" y="431" width="250" height="116" rx="16" fill="#F5F5F5"/>
<path d="M827.945 464.266C826.977 464.258 826.188 463.469 826.18 462.484C826.188 461.516 826.977 460.727 827.945 460.719C828.93 460.727 829.719 461.516 829.727 462.484C829.719 463.469 828.93 464.258 827.945 464.266ZM845.406 456.844C845.398 458.633 846.641 460.328 848.781 461.047L848.031 462.203C846.445 461.656 845.281 460.562 844.672 459.188C844.062 460.695 842.844 461.891 841.203 462.469L840.406 461.312C842.594 460.57 843.914 458.758 843.922 456.828V456.453H840.844V455.25H848.422V456.453H845.406V456.844ZM842.266 464.656V463.453H851.516V468.328H850.031V464.656H842.266ZM850.031 462.766V454.328H851.516V457.922H853.547V459.172H851.516V462.766H850.031ZM858.219 454.969C860.062 454.953 861.492 456.023 861.797 457.594H864.531V454.328H866.016V461.844H864.531V458.812H861.805C861.516 460.422 860.078 461.5 858.219 461.5C856.078 461.5 854.539 460.148 854.547 458.219C854.539 456.312 856.078 454.953 858.219 454.969ZM855.969 458.219C855.961 459.414 856.898 460.25 858.219 460.25C859.516 460.25 860.438 459.414 860.438 458.219C860.438 457.016 859.516 456.195 858.219 456.203C856.898 456.195 855.961 457.016 855.969 458.219ZM856.891 468.156V462.516H858.359V464.141H864.531V462.516H866.016V468.156H856.891ZM858.359 466.938H864.531V465.312H858.359V466.938ZM879.188 454.328V459.125H881.188V460.359H879.188V465.266H877.703V454.328H879.188ZM868.078 462.547C869.156 462.547 870.414 462.547 871.734 462.5V461.523C870.141 461.336 869.125 460.57 869.141 459.422C869.125 458.062 870.461 457.25 872.469 457.266C874.477 457.25 875.789 458.062 875.797 459.422C875.789 460.57 874.797 461.336 873.219 461.516V462.43C874.469 462.359 875.734 462.242 876.906 462.062L877.031 463.109C874.047 463.672 870.68 463.711 868.234 463.734L868.078 462.547ZM868.438 456.719V455.625H871.734V454.281H873.219V455.625H876.516V456.719H868.438ZM870.141 468.031V464.531H871.625V466.828H879.688V468.031H870.141ZM870.547 459.422C870.547 460.102 871.273 460.531 872.469 460.531C873.648 460.531 874.383 460.102 874.375 459.422C874.383 458.695 873.648 458.273 872.469 458.281C871.273 458.273 870.547 458.695 870.547 459.422ZM893.672 454.344V462.625H892.188V460.922H888.656V459.703H892.188V458H888.805C887.898 460.25 885.797 461.836 882.766 462.703L882.172 461.547C885.484 460.602 887.422 458.82 887.688 456.562H882.891V455.344H889.297C889.297 455.859 889.242 456.359 889.148 456.828H892.188V454.344H893.672ZM884.344 465.516C884.344 463.82 886.188 462.789 889.062 462.781C891.898 462.789 893.758 463.82 893.766 465.516C893.758 467.219 891.898 468.266 889.062 468.266C886.188 468.266 884.344 467.219 884.344 465.516ZM885.812 465.516C885.812 466.5 887.062 467.07 889.062 467.078C891.023 467.07 892.273 466.5 892.281 465.516C892.273 464.516 891.023 463.945 889.062 463.953C887.062 463.945 885.812 464.516 885.812 465.516ZM907.531 455.391V456.172C907.516 457.109 907.516 458.5 907.172 460.312L905.703 460.172C906.008 458.625 906.055 457.492 906.07 456.609H900.469V455.391H907.531ZM899.625 461.516C900.484 461.516 901.461 461.508 902.484 461.484V458.531H903.953V461.438C905.453 461.375 907 461.266 908.406 461.062L908.5 462.141C905.578 462.656 902.234 462.711 899.766 462.719L899.625 461.516ZM901.75 468.031V463.891H903.234V466.828H911.266V468.031H901.75ZM909.297 464.844V454.328H910.812V458.781H912.734V460.031H910.812V464.844H909.297ZM925.188 454.328V468.359H923.703V454.328H925.188ZM914.344 456.797V455.594H920.906V460.703H915.875V463.766C918.148 463.758 920.125 463.648 922.469 463.266L922.609 464.484C920.133 464.898 918.023 464.992 915.547 465H914.359V459.516H919.391V456.797H914.344ZM827.945 492.266C826.977 492.258 826.188 491.469 826.18 490.484C826.188 489.516 826.977 488.727 827.945 488.719C828.93 488.727 829.719 489.516 829.727 490.484C829.719 491.469 828.93 492.258 827.945 492.266ZM852.188 482.344V492.656H850.703V487.797H847.797V486.562H850.703V482.344H852.188ZM840.719 489.906C843.836 488.898 845.953 487 846.258 484.625H841.438V483.391H847.891C847.875 487.047 845.367 489.797 841.344 491.094L840.719 489.906ZM843.172 496.031V491.594H844.672V494.828H852.547V496.031H843.172ZM865.344 482.328V485.859H867.375V487.062H865.344V490.641H863.859V482.328H865.344ZM854.328 489.547C857.609 488.625 859.617 486.797 859.891 484.531H854.953V483.328H861.5C861.5 486.945 859.039 489.562 854.938 490.75L854.328 489.547ZM856.234 493.547C856.219 491.844 858.062 490.789 860.875 490.797C863.695 490.789 865.5 491.844 865.5 493.547C865.5 495.266 863.695 496.305 860.875 496.312C858.062 496.305 856.219 495.266 856.234 493.547ZM857.703 493.547C857.695 494.531 858.914 495.133 860.875 495.141C862.82 495.133 864.047 494.531 864.047 493.547C864.047 492.562 862.82 491.961 860.875 491.969C858.914 491.961 857.695 492.562 857.703 493.547ZM875.406 483.203C875.406 486.766 872.961 489.289 868.906 490.438L868.297 489.281C871.531 488.375 873.531 486.633 873.82 484.422H869.031V483.203H875.406ZM870.688 496.141V490.844H879.844V496.141H870.688ZM872.141 494.953H878.375V492.031H872.141V494.953ZM875.469 487.078V485.844H878.359V482.344H879.844V490.266H878.359V487.078H875.469ZM887.188 485.25C887.188 487.062 888.523 488.766 890.688 489.453L889.922 490.609C888.312 490.078 887.102 488.977 886.461 487.578C885.836 489.102 884.586 490.305 882.922 490.891L882.156 489.719C884.336 488.977 885.68 487.164 885.688 485.25V484.641H882.547V483.438H890.266V484.641H887.188V485.25ZM884.453 496.031V491.594H885.953V494.828H894.031V496.031H884.453ZM892.125 492.562V482.344H893.609V492.562H892.125ZM907.531 483.391V484.172C907.516 485.109 907.516 486.5 907.172 488.312L905.703 488.172C906.008 486.625 906.055 485.492 906.07 484.609H900.469V483.391H907.531ZM899.625 489.516C900.484 489.516 901.461 489.508 902.484 489.484V486.531H903.953V489.438C905.453 489.375 907 489.266 908.406 489.062L908.5 490.141C905.578 490.656 902.234 490.711 899.766 490.719L899.625 489.516ZM901.75 496.031V491.891H903.234V494.828H911.266V496.031H901.75ZM909.297 492.844V482.328H910.812V486.781H912.734V488.031H910.812V492.844H909.297ZM925.188 482.328V496.359H923.703V482.328H925.188ZM914.344 484.797V483.594H920.906V488.703H915.875V491.766C918.148 491.758 920.125 491.648 922.469 491.266L922.609 492.484C920.133 492.898 918.023 492.992 915.547 493H914.359V487.516H919.391V484.797H914.344ZM827.945 520.266C826.977 520.258 826.188 519.469 826.18 518.484C826.188 517.516 826.977 516.727 827.945 516.719C828.93 516.727 829.719 517.516 829.727 518.484C829.719 519.469 828.93 520.258 827.945 520.266ZM851.484 510.328V516.188H853.594V517.438H851.484V524.328H850V510.328H851.484ZM840.344 520.516C841.445 520.516 842.727 520.516 844.062 520.477V519.055C842.484 518.82 841.453 517.867 841.469 516.516C841.453 514.938 842.82 513.898 844.812 513.891C846.797 513.898 848.18 514.938 848.188 516.516C848.18 517.867 847.133 518.828 845.547 519.055V520.422C846.789 520.359 848.039 520.258 849.203 520.094L849.297 521.188C846.266 521.727 842.992 521.758 840.578 521.75L840.344 520.516ZM840.609 513.172V511.984H844.062V510.359H845.547V511.984H849V513.172H840.609ZM842.859 516.516C842.859 517.406 843.641 517.961 844.812 517.953C845.984 517.961 846.758 517.406 846.766 516.516C846.758 515.617 845.984 515.047 844.812 515.047C843.641 515.047 842.859 515.617 842.859 516.516ZM862.703 511.75V512.938H854.359V511.75H857.797V510.266H859.281V511.75H862.703ZM855.125 516.109C855.117 514.578 856.508 513.578 858.531 513.562C860.547 513.578 861.922 514.578 861.922 516.109C861.922 517.648 860.547 518.656 858.531 518.656C856.508 518.656 855.117 517.648 855.125 516.109ZM856.094 521V519.797H865.344V524.328H863.859V521H856.094ZM856.562 516.109C856.547 516.977 857.344 517.5 858.531 517.5C859.719 517.5 860.516 516.977 860.531 516.109C860.516 515.25 859.719 514.711 858.531 514.703C857.344 514.711 856.547 515.25 856.562 516.109ZM863.859 519.078V510.328H865.344V514.125H867.375V515.359H865.344V519.078H863.859ZM880.938 516.125V517.312H875.281V518.531H879.328V521.812H871.172V523.047H879.719V524.188H869.719V520.734H877.859V519.672H869.703V518.531H873.797V517.312H868.172V516.125H880.938ZM869.812 515.094V510.781H879.297V515.094H869.812ZM871.266 513.922H877.812V511.953H871.266V513.922ZM893.594 510.328V517.562H892.125V510.328H893.594ZM882.156 516.453C884.328 515.781 885.68 514.094 885.688 512.281H882.547V511.078H890.266V512.281H887.188C887.188 513.992 888.523 515.57 890.703 516.188L889.984 517.328C888.328 516.836 887.094 515.781 886.461 514.438C885.844 515.922 884.562 517.086 882.844 517.625L882.156 516.453ZM884.406 519.344V518.203H893.609V521.672H885.891V523.031H894.078V524.188H884.453V520.594H892.141V519.344H884.406ZM907.531 511.391V512.172C907.516 513.109 907.516 514.5 907.172 516.312L905.703 516.172C906.008 514.625 906.055 513.492 906.07 512.609H900.469V511.391H907.531ZM899.625 517.516C900.484 517.516 901.461 517.508 902.484 517.484V514.531H903.953V517.438C905.453 517.375 907 517.266 908.406 517.062L908.5 518.141C905.578 518.656 902.234 518.711 899.766 518.719L899.625 517.516ZM901.75 524.031V519.891H903.234V522.828H911.266V524.031H901.75ZM909.297 520.844V510.328H910.812V514.781H912.734V516.031H910.812V520.844H909.297ZM925.188 510.328V524.359H923.703V510.328H925.188ZM914.344 512.797V511.594H920.906V516.703H915.875V519.766C918.148 519.758 920.125 519.648 922.469 519.266L922.609 520.484C920.133 520.898 918.023 520.992 915.547 521H914.359V515.516H919.391V512.797H914.344Z" fill="#282828"/>
<rect x="785.979" y="355" width="250" height="66" rx="16" fill="#69A2FF"/>
<path d="M868.026 392.049V393.648H853.507V392.049H859.765V388.955H855.106V380.729H857.058V383.33H864.423V380.729H866.374V388.955H861.698V392.049H868.026ZM857.058 387.373H864.423V384.895H857.058V387.373ZM882.37 379.691V391.346H880.419V386.002H877.36V384.385H880.419V379.691H882.37ZM869.274 388.111C872.693 387.03 874.952 385 875.33 382.486H870.101V380.887H877.466C877.466 385.079 874.697 388.208 870.101 389.676L869.274 388.111ZM872.017 395.248V390.168H874.003V393.666H882.774V395.248H872.017ZM890.351 380.676L886.255 395.916H884.286L888.399 380.676H890.351ZM903.657 379.674V385H905.802V386.617H903.657V392.084H901.706V379.674H903.657ZM890.931 388.902C892.117 388.902 893.497 388.894 894.938 388.85V387.839C893.172 387.619 892.047 386.749 892.056 385.475C892.047 383.919 893.585 382.996 895.888 383.014C898.199 382.996 899.72 383.919 899.72 385.475C899.72 386.74 898.63 387.602 896.89 387.839V388.753C898.243 388.674 899.605 388.551 900.88 388.357L901.038 389.729C897.672 390.361 893.884 390.405 891.142 390.432L890.931 388.902ZM891.335 382.486V381.062H894.938V379.621H896.89V381.062H900.458V382.486H891.335ZM893.216 395.248V391.258H895.167V393.666H904.22V395.248H893.216ZM893.937 385.475C893.919 386.16 894.657 386.564 895.888 386.564C897.118 386.564 897.856 386.16 897.856 385.475C897.856 384.728 897.118 384.323 895.888 384.332C894.657 384.323 893.919 384.728 893.937 385.475ZM919.935 379.691V388.973H917.983V387.215H914.204V385.633H917.983V383.928H914.354C913.352 386.45 911.031 388.217 907.577 389.184L906.786 387.637C910.504 386.635 912.49 384.745 912.789 382.381H907.63V380.799H914.925C914.925 381.353 914.881 381.88 914.793 382.381H917.983V379.691H919.935ZM909.282 392.312C909.282 390.361 911.418 389.157 914.679 389.148C917.896 389.157 920.04 390.361 920.04 392.312C920.04 394.264 917.896 395.485 914.679 395.477C911.418 395.485 909.282 394.264 909.282 392.312ZM911.233 392.312C911.233 393.358 912.543 393.93 914.679 393.93C916.779 393.93 918.08 393.358 918.089 392.312C918.08 391.249 916.779 390.678 914.679 390.678C912.543 390.678 911.233 391.249 911.233 392.312ZM931.062 380.852V381.801C931.044 382.882 931.044 384.464 930.675 386.477L928.741 386.301C929.058 384.666 929.119 383.444 929.137 382.469H922.958V380.852H931.062ZM922.009 387.742C922.949 387.733 924.004 387.725 925.12 387.707V384.473H927.054V387.646C928.697 387.575 930.385 387.452 931.923 387.232L932.028 388.639C928.724 389.236 924.971 389.298 922.185 389.307L922.009 387.742ZM924.382 395.248V390.52H926.351V393.666H935.368V395.248H924.382ZM932.854 391.574V379.674H934.858V384.631H936.915V386.266H934.858V391.574H932.854ZM950.978 379.674V395.582H949.044V379.674H950.978ZM938.603 382.645V381.062H946.091V387.021H940.624V390.221C943.129 390.203 945.282 390.071 947.761 389.658L947.937 391.258C945.238 391.724 942.865 391.829 940.009 391.82H938.62V385.475H944.104V382.645H938.603ZM958.993 384.191C958.984 386.644 960.461 389.438 962.966 390.607L961.876 392.154C960.083 391.311 958.756 389.605 958.044 387.619C957.323 389.799 955.935 391.662 954.106 392.541L952.964 391.012C955.495 389.808 957.033 386.837 957.042 384.191V382.855H953.579V381.238H962.315V382.855H958.993V384.191ZM963.792 395.564V379.674H965.743V385.861H968.187V387.496H965.743V395.564H963.792Z" fill="white"/>
<path d="M910.979 361C908.218 361 905.979 358.761 905.979 356C905.979 353.239 908.218 351 910.979 351C913.741 351 915.979 353.239 915.979 356C915.979 358.761 913.741 361 910.979 361Z" fill="#83ADF8" stroke="#BBD4FF" stroke-width="2"/>
<path d="M307.363 286.242C307.354 289.107 308.576 291.999 311.143 293.238L309.789 295.031C308.075 294.179 306.915 292.597 306.256 290.672C305.553 292.737 304.322 294.434 302.512 295.33L301.123 293.52C303.839 292.271 305.113 289.213 305.113 286.242V283.852H307.363V286.242ZM311.846 298.617V282.621H314.096V288.791H316.451V290.689H314.096V298.617H311.846ZM321.496 283.307C323.535 283.289 325.161 284.458 325.601 286.172H328.281V282.621H330.514V291.217H328.281V287.965H325.609C325.196 289.723 323.553 290.918 321.496 290.918C319.035 290.918 317.225 289.318 317.242 287.086C317.225 284.897 319.035 283.289 321.496 283.307ZM319.369 287.086C319.36 288.281 320.239 289.037 321.496 289.037C322.709 289.037 323.579 288.281 323.588 287.086C323.579 285.891 322.709 285.161 321.496 285.17C320.239 285.161 319.36 285.891 319.369 287.086ZM319.844 298.441V291.92H322.059V293.467H328.281V291.92H330.514V298.441H319.844ZM322.059 296.631H328.281V295.189H322.059V296.631ZM341.676 283.693V285.486H338.494C338.503 287.35 339.637 289.151 342.186 289.898L341.113 291.656C339.347 291.12 338.116 290.039 337.413 288.677C336.701 290.285 335.4 291.568 333.484 292.201L332.342 290.426C334.996 289.591 336.2 287.517 336.227 285.486H332.957V283.693H341.676ZM334.557 295.506C334.548 293.555 336.657 292.421 340.041 292.43C343.372 292.421 345.429 293.555 345.438 295.506C345.429 297.466 343.372 298.626 340.041 298.617C336.657 298.626 334.548 297.466 334.557 295.506ZM336.807 295.506C336.789 296.42 337.94 296.877 340.041 296.877C342.115 296.877 343.223 296.42 343.223 295.506C343.223 294.609 342.115 294.161 340.041 294.17C337.94 294.161 336.789 294.609 336.807 295.506ZM343.029 292.113V282.621H345.279V286.33H347.441V288.158H345.279V292.113H343.029ZM366.883 290.637V292.43H352.293V290.637H358.463V289.09H360.678V290.637H366.883ZM352.908 288.158C356.318 287.956 357.944 286.928 358.261 285.82H353.699V284.045H358.463V282.674H360.678V284.045H365.477V285.82H360.871C361.179 286.928 362.813 287.956 366.232 288.158L365.564 289.863C362.611 289.652 360.572 288.8 359.57 287.508C358.56 288.8 356.521 289.652 353.594 289.863L352.908 288.158ZM353.963 295.893C353.963 294.144 356.046 293.177 359.57 293.186C363.077 293.177 365.125 294.144 365.143 295.893C365.125 297.659 363.077 298.626 359.57 298.617C356.046 298.626 353.963 297.659 353.963 295.893ZM356.248 295.893C356.239 296.631 357.329 296.965 359.57 296.965C361.759 296.965 362.884 296.631 362.893 295.893C362.884 295.172 361.759 294.838 359.57 294.838C357.329 294.838 356.239 295.172 356.248 295.893ZM376.85 283.324V284.256C376.832 285.205 376.832 286.576 376.48 288.246L374.301 288.018C374.529 286.831 374.582 285.882 374.608 285.082H368.588V283.324H376.85ZM367.621 289.16C368.544 289.16 369.555 289.16 370.609 289.151V286.576H372.807V289.099C374.415 289.037 376.041 288.94 377.553 288.756L377.711 290.303C374.38 290.874 370.706 290.9 367.814 290.9L367.621 289.16ZM369.678 293.344V291.709H380.734V295.822H371.945V296.807H381.244V298.477H369.73V294.258H378.467V293.344H369.678ZM378.432 291.146V282.621H380.734V286.031H382.686V287.842H380.734V291.146H378.432Z" fill="black"/>
<line x1="441.75" y1="290.25" x2="500.25" y2="290.25" stroke="#C4C4C4" stroke-width="1.5" stroke-linecap="round" stroke-dasharray="4 4"/>
<rect x="521" y="258" width="515" height="66" rx="16" fill="#4B84F0"/>
<path d="M721.061 282.674V287.332H723.275V288.949H721.061V294.293H719.109V282.674H721.061ZM708.703 287.736C708.694 285.39 710.575 283.737 712.992 283.729C715.409 283.737 717.264 285.39 717.281 287.736C717.264 290.048 715.409 291.727 712.992 291.727C710.575 291.727 708.694 290.048 708.703 287.736ZM710.619 287.736C710.61 289.107 711.665 290.013 712.992 290.004C714.337 290.013 715.356 289.107 715.365 287.736C715.356 286.33 714.337 285.434 712.992 285.434C711.665 285.434 710.61 286.33 710.619 287.736ZM710.883 298.248V293.08H712.834V296.666H721.693V298.248H710.883ZM737.391 282.691V294.293H735.439V288.475H732.627V286.893H735.439V282.691H737.391ZM724.049 290.865C726.58 290.03 727.934 287.956 727.934 285.838V285.416H724.629V283.834H733.207V285.416H729.92V285.855C729.92 287.763 731.203 289.74 733.664 290.549L732.68 292.113C730.904 291.507 729.647 290.294 728.953 288.791C728.259 290.461 726.932 291.797 725.051 292.447L724.049 290.865ZM726.967 298.248V293.273H728.918V296.666H737.795V298.248H726.967ZM754.16 295.049V296.648H739.641V295.049H745.898V291.955H741.24V283.729H743.191V286.33H750.557V283.729H752.508V291.955H747.832V295.049H754.16ZM743.191 290.373H750.557V287.895H743.191V290.373ZM768.504 282.691V294.346H766.553V289.002H763.494V287.385H766.553V282.691H768.504ZM755.408 291.111C758.827 290.03 761.086 288 761.464 285.486H756.234V283.887H763.6C763.6 288.079 760.831 291.208 756.234 292.676L755.408 291.111ZM758.15 298.248V293.168H760.137V296.666H768.908V298.248H758.15ZM785.238 290.725V292.307H770.754V290.725H777.012V289.037H778.945V290.725H785.238ZM771.439 288.316C774.727 288.097 776.599 287.007 776.854 285.697H772.178V284.15H777.012V282.709H778.945V284.15H783.814V285.697H779.095C779.341 287.007 781.222 288.097 784.518 288.316L783.92 289.811C781.081 289.591 778.963 288.703 777.979 287.332C776.977 288.703 774.867 289.591 772.037 289.811L771.439 288.316ZM772.441 295.875C772.441 294.135 774.498 293.194 777.979 293.186C781.441 293.194 783.472 294.135 783.48 295.875C783.472 297.606 781.441 298.547 777.979 298.547C774.498 298.547 772.441 297.606 772.441 295.875ZM774.428 295.875C774.419 296.684 775.641 297.088 777.979 297.088C780.272 297.088 781.512 296.684 781.529 295.875C781.512 295.058 780.272 294.645 777.979 294.645C775.641 294.645 774.419 295.058 774.428 295.875ZM795.188 283.852V284.801C795.17 285.882 795.17 287.464 794.801 289.477L792.867 289.301C793.184 287.666 793.245 286.444 793.263 285.469H787.084V283.852H795.188ZM786.135 290.742C787.075 290.733 788.13 290.725 789.246 290.707V287.473H791.18V290.646C792.823 290.575 794.511 290.452 796.049 290.232L796.154 291.639C792.85 292.236 789.097 292.298 786.311 292.307L786.135 290.742ZM788.508 298.248V293.52H790.477V296.666H799.494V298.248H788.508ZM796.98 294.574V282.674H798.984V287.631H801.041V289.266H798.984V294.574H796.98ZM806.771 286.242C806.771 287.921 807.791 289.582 809.795 290.268L808.916 291.744C807.457 291.208 806.455 290.206 805.884 288.984C805.33 290.32 804.319 291.419 802.816 292.008L801.902 290.566C803.915 289.775 804.908 288.044 804.926 286.242V286.119H802.307V284.59H804.926V282.85H806.771V284.59H809.355V286.119H806.771V286.242ZM804.574 294.715V293.133H815.455V298.564H813.504V294.715H804.574ZM810.217 292.342V282.955H812.062V286.77H813.592V282.691H815.455V292.412H813.592V288.352H812.062V292.342H810.217ZM830.66 282.691V291.691H828.691V282.691H830.66ZM817.705 287.244C817.705 285.003 819.533 283.456 821.994 283.447C824.446 283.456 826.274 285.003 826.266 287.244C826.274 289.433 824.446 291.006 821.994 291.006C819.533 291.006 817.705 289.433 817.705 287.244ZM819.621 287.244C819.612 288.527 820.605 289.362 821.994 289.354C823.356 289.362 824.35 288.527 824.35 287.244C824.35 285.926 823.356 285.1 821.994 285.1C820.605 285.1 819.612 285.926 819.621 287.244ZM820.113 298.371V292.465H830.66V298.371H820.113ZM822.047 296.789H828.744V294.012H822.047V296.789ZM838.676 287.191C838.667 289.644 840.144 292.438 842.648 293.607L841.559 295.154C839.766 294.311 838.438 292.605 837.727 290.619C837.006 292.799 835.617 294.662 833.789 295.541L832.646 294.012C835.178 292.808 836.716 289.837 836.725 287.191V285.855H833.262V284.238H841.998V285.855H838.676V287.191ZM843.475 298.564V282.674H845.426V288.861H847.869V290.496H845.426V298.564H843.475Z" fill="white"/>
<path d="M307.891 129.27V131.678C309.209 131.599 310.527 131.476 311.775 131.291L311.951 132.926C308.4 133.603 304.604 133.638 301.809 133.646L301.545 131.836C302.749 131.836 304.164 131.827 305.658 131.783V129.27H307.891ZM301.861 128.074C304.278 127.433 305.456 125.938 305.605 124.312H302.371V122.502H305.658V120.762H307.891V122.502H311.195V124.312H307.926C308.075 125.859 309.271 127.31 311.688 127.898L310.668 129.639C308.796 129.164 307.504 128.127 306.774 126.8C306.08 128.197 304.806 129.278 302.916 129.762L301.861 128.074ZM312.689 136.652V120.621H314.922V136.652H312.689ZM330.215 122.01V123.521C330.206 125.525 330.206 127.775 329.564 131.168L327.314 130.939C327.93 127.916 327.956 125.666 327.965 123.785H318.543V122.01H330.215ZM317.031 134.666V132.838H322.252V127.336H324.484V132.838H331.621V134.666H317.031ZM345.279 120.621V125.209H347.441V127.072H345.279V132.275H343.029V120.621H345.279ZM332.693 125.719C332.685 123.337 334.627 121.649 337.088 121.658C339.54 121.649 341.447 123.337 341.447 125.719C341.447 128.065 339.54 129.779 337.088 129.779C334.627 129.779 332.685 128.065 332.693 125.719ZM334.908 136.336V131.045H337.141V134.543H345.859V136.336H334.908ZM334.908 125.719C334.891 127.02 335.866 127.828 337.088 127.828C338.318 127.828 339.259 127.02 339.268 125.719C339.259 124.383 338.318 123.601 337.088 123.609C335.866 123.601 334.891 124.383 334.908 125.719ZM361.627 120.639V132.311H359.395V126.58H356.775V124.77H359.395V120.639H361.627ZM348.057 128.707C350.702 127.881 351.897 125.798 351.906 123.75V123.504H348.689V121.711H357.373V123.504H354.191V123.768C354.183 125.622 355.325 127.6 357.865 128.426L356.758 130.201C354.991 129.621 353.77 128.461 353.075 127.028C352.363 128.619 351.089 129.911 349.199 130.535L348.057 128.707ZM351.01 136.336V131.291H353.26V134.543H362.014V136.336H351.01ZM368.746 124.277C368.737 125.868 369.66 127.45 371.682 128.109L370.68 129.797C369.265 129.296 368.298 128.373 367.727 127.23C367.164 128.487 366.188 129.498 364.721 130.043L363.701 128.391C365.714 127.635 366.61 125.982 366.619 124.277V124.189H364.141V122.432H366.619V120.779H368.746V122.432H371.207V124.189H368.746V124.277ZM366.391 132.908V131.098H377.447V136.617H375.215V132.908H366.391ZM371.928 130.377V120.885H374.037V124.646H375.32V120.639H377.447V130.412H375.32V126.457H374.037V130.377H371.928ZM392.652 120.639V129.674H390.402V120.639H392.652ZM379.504 125.227C379.504 122.941 381.385 121.359 383.881 121.359C386.368 121.359 388.249 122.941 388.258 125.227C388.249 127.424 386.368 129.041 383.881 129.041C381.385 129.041 379.504 127.424 379.504 125.227ZM381.701 125.227C381.684 126.413 382.598 127.16 383.881 127.16C385.129 127.16 386.034 126.413 386.043 125.227C386.034 123.97 385.129 123.24 383.881 123.24C382.598 123.24 381.684 123.97 381.701 125.227ZM381.93 136.441V130.395H392.652V136.441H381.93ZM384.145 134.648H390.455V132.17H384.145V134.648ZM400.721 124.98C400.712 127.415 402.013 130.228 404.641 131.449L403.393 133.207C401.608 132.39 400.343 130.755 399.622 128.839C398.91 130.948 397.592 132.741 395.746 133.611L394.445 131.836C397.108 130.597 398.453 127.626 398.471 124.98V123.996H395.078V122.168H403.938V123.996H400.721V124.98ZM405.186 136.617V120.621H407.436V126.721H409.791V128.602H407.436V136.617H405.186Z" fill="black"/>
<line x1="441.75" y1="128.25" x2="500.25" y2="128.25" stroke="#C4C4C4" stroke-width="1.5" stroke-linecap="round" stroke-dasharray="4 4"/>
<rect x="521" y="96" width="515" height="66" rx="16" fill="#336BCD"/>
<rect x="521" y="172" width="515" height="56" rx="16" fill="#F5F5F5"/>
<path d="M755.016 193.312V197.5H757.047V198.75H755.016V203.609H753.531V193.312H755.016ZM744.234 197.766C744.219 195.727 745.844 194.289 747.953 194.281C750.07 194.289 751.672 195.727 751.688 197.766C751.672 199.805 750.07 201.258 747.953 201.25C745.844 201.258 744.219 199.805 744.234 197.766ZM745.688 197.766C745.672 199.07 746.672 199.953 747.953 199.953C749.25 199.953 750.227 199.07 750.234 197.766C750.227 196.461 749.25 195.578 747.953 195.578C746.672 195.578 745.672 196.461 745.688 197.766ZM746.141 207.031V202.531H747.625V205.828H755.609V207.031H746.141ZM769.516 193.344V203.594H768.031V198.328H765.359V197.125H768.031V193.344H769.516ZM757.859 200.672C760.008 199.945 761.352 198.102 761.344 196.172V195.625H758.312V194.406H765.859V195.625H762.859V196.172C762.852 197.914 764.117 199.672 766.234 200.375L765.469 201.562C763.898 201.016 762.734 199.891 762.125 198.5C761.516 200.047 760.289 201.281 758.625 201.875L757.859 200.672ZM760.422 207.031V202.672H761.906V205.828H769.891V207.031H760.422ZM784.484 204.359V205.594H771.672V204.359H777.312V201.484H773.141V194.281H774.625V196.688H781.5V194.281H782.969V201.484H778.781V204.359H784.484ZM774.625 200.281H781.5V197.891H774.625V200.281ZM797.172 193.344V203.656H795.688V198.797H792.781V197.562H795.688V193.344H797.172ZM785.703 200.906C788.82 199.898 790.938 198 791.242 195.625H786.422V194.391H792.875C792.859 198.047 790.352 200.797 786.328 202.094L785.703 200.906ZM788.156 207.031V202.594H789.656V205.828H797.531V207.031H788.156ZM806.859 194.156V195.375H801.625V196.906H806.469V198.062H801.625V199.688C804.422 199.688 806.055 199.633 807.953 199.312L808.109 200.5C806.086 200.844 804.344 200.883 801.281 200.875H800.125V194.156H806.859ZM801.734 207.156V202.328H810.938V207.156H801.734ZM803.203 205.953H809.484V203.484H803.203V205.953ZM809.453 201.672V193.344H810.938V201.672H809.453Z" fill="#282828"/>
<path d="M769.756 126.562C769.483 125.033 768.262 124.154 766.715 124.154C764.632 124.154 763.155 125.754 763.164 128.637C763.155 131.563 764.641 133.119 766.715 133.119C768.227 133.119 769.448 132.275 769.756 130.781H772.059C771.707 133.225 769.694 135.176 766.68 135.176C763.322 135.176 760.853 132.741 760.861 128.637C760.853 124.523 763.349 122.098 766.68 122.098C769.492 122.098 771.663 123.732 772.059 126.562H769.756ZM780.953 125.771C780.839 124.673 779.916 124.04 778.545 124.049C777.095 124.04 776.233 124.743 776.225 125.701C776.216 126.773 777.35 127.213 778.404 127.459L779.6 127.775C781.498 128.215 783.326 129.217 783.326 131.432C783.326 133.664 781.56 135.193 778.51 135.193C775.548 135.193 773.667 133.77 773.57 131.256H775.82C775.926 132.583 777.042 133.233 778.492 133.242C779.995 133.233 781.032 132.504 781.041 131.414C781.032 130.412 780.118 129.99 778.738 129.639L777.297 129.27C775.205 128.725 773.904 127.67 773.904 125.842C773.904 123.592 775.899 122.098 778.58 122.098C781.278 122.098 783.115 123.618 783.15 125.771H780.953ZM796.58 128.637C796.589 132.75 794.075 135.176 790.744 135.176C787.396 135.176 784.899 132.741 784.908 128.637C784.899 124.523 787.396 122.098 790.744 122.098C794.075 122.098 796.589 124.523 796.58 128.637ZM787.211 128.637C787.202 131.546 788.67 133.119 790.744 133.119C792.827 133.119 794.286 131.546 794.277 128.637C794.286 125.728 792.827 124.154 790.744 124.154C788.67 124.154 787.202 125.728 787.211 128.637Z" fill="white"/>
<path d="M645.979 360C643.218 360 640.979 357.761 640.979 355C640.979 352.239 643.218 350 645.979 350C648.741 350 650.979 352.239 650.979 355C650.979 357.761 648.741 360 645.979 360Z" fill="#83ADF8" stroke="#BBD4FF" stroke-width="2"/>
<path d="M314.166 24.6211V29.209H316.328V31.0723H314.166V36.2754H311.916V24.6211H314.166ZM301.58 29.7188C301.571 27.3369 303.514 25.6494 305.975 25.6582C308.427 25.6494 310.334 27.3369 310.334 29.7188C310.334 32.0654 308.427 33.7793 305.975 33.7793C303.514 33.7793 301.571 32.0654 301.58 29.7188ZM303.795 40.3359V35.0449H306.027V38.543H314.746V40.3359H303.795ZM303.795 29.7188C303.777 31.0195 304.753 31.8281 305.975 31.8281C307.205 31.8281 308.146 31.0195 308.154 29.7188C308.146 28.3828 307.205 27.6006 305.975 27.6094C304.753 27.6006 303.777 28.3828 303.795 29.7188ZM330.514 24.6387V36.3105H328.281V30.5801H325.662V28.7695H328.281V24.6387H330.514ZM316.943 32.707C319.589 31.8809 320.784 29.7979 320.793 27.75V27.5039H317.576V25.7109H326.26V27.5039H323.078V27.7676C323.069 29.6221 324.212 31.5996 326.752 32.4258L325.645 34.2012C323.878 33.6211 322.656 32.4609 321.962 31.0283C321.25 32.6191 319.976 33.9111 318.086 34.5352L316.943 32.707ZM319.896 40.3359V35.291H322.146V38.543H330.9V40.3359H319.896ZM347.23 36.9258V38.7539H332.588V36.9258H338.758V33.9727H334.135V25.6406H336.385V28.1191H343.363V25.6406H345.596V33.9727H340.99V36.9258H347.23ZM336.385 32.1797H343.363V29.9121H336.385V32.1797ZM361.627 24.6387V36.3281H359.395V31.1074H356.529V29.2617H359.395V24.6387H361.627ZM348.355 32.9531C351.669 31.916 353.813 30 354.227 27.6445H349.182V25.8164H356.67C356.67 30.1055 353.945 33.2783 349.27 34.7285L348.355 32.9531ZM351.08 40.3359V35.1504H353.365V38.543H362.031V40.3359H351.08ZM382.439 32.6367V34.4297H367.85V32.6367H374.02V31.0898H376.234V32.6367H382.439ZM368.465 30.1582C371.875 29.9561 373.501 28.9277 373.817 27.8203H369.256V26.0449H374.02V24.6738H376.234V26.0449H381.033V27.8203H376.428C376.735 28.9277 378.37 29.9561 381.789 30.1582L381.121 31.8633C378.168 31.6523 376.129 30.7998 375.127 29.5078C374.116 30.7998 372.077 31.6523 369.15 31.8633L368.465 30.1582ZM369.52 37.8926C369.52 36.1436 371.603 35.1768 375.127 35.1855C378.634 35.1768 380.682 36.1436 380.699 37.8926C380.682 39.6592 378.634 40.626 375.127 40.6172C371.603 40.626 369.52 39.6592 369.52 37.8926ZM371.805 37.8926C371.796 38.6309 372.886 38.9648 375.127 38.9648C377.315 38.9648 378.44 38.6309 378.449 37.8926C378.44 37.1719 377.315 36.8379 375.127 36.8379C372.886 36.8379 371.796 37.1719 371.805 37.8926ZM392.406 25.3242V26.2559C392.389 27.2051 392.389 28.5762 392.037 30.2461L389.857 30.0176C390.086 28.8311 390.139 27.8818 390.165 27.082H384.145V25.3242H392.406ZM383.178 31.1602C384.101 31.1602 385.111 31.1602 386.166 31.1514V28.5762H388.363V31.0986C389.972 31.0371 391.598 30.9404 393.109 30.7559L393.268 32.3027C389.937 32.874 386.263 32.9004 383.371 32.9004L383.178 31.1602ZM385.234 35.3438V33.709H396.291V37.8223H387.502V38.8066H396.801V40.4766H385.287V36.2578H394.023V35.3438H385.234ZM393.988 33.1465V24.6211H396.291V28.0312H398.242V29.8418H396.291V33.1465H393.988Z" fill="black"/>
<line x1="441.75" y1="32.25" x2="500.25" y2="32.25" stroke="#C4C4C4" stroke-width="1.5" stroke-linecap="round" stroke-dasharray="4 4"/>
<rect x="521" width="515" height="66" rx="16" fill="#2057B1"/>
<path d="M761.203 24.6738V40.5645H759.34V32.4609H757.547V39.7559H755.754V24.9727H757.547V30.8965H759.34V24.6738H761.203ZM748.02 36.8555V26.5547H753.961V28.1367H749.988V35.2031C751.711 35.1855 753.135 35.0977 754.752 34.7988L754.893 36.3984C752.968 36.7852 751.307 36.8379 749.092 36.8555H748.02ZM777.604 37.1543V38.7363H763.084V37.1543H766.846V33.8848H764.332V32.3027H766.564V27.5918H764.279V26.0273H776.338V27.5918H774.018V32.3027H776.285V33.8848H773.771V37.1543H777.604ZM768.516 32.3027H772.084V27.5918H768.516V32.3027ZM768.797 37.1543H771.82V33.8848H768.797V37.1543ZM791.859 24.6738V40.582H789.891V24.6738H791.859ZM779.15 31.4414C779.142 28.0137 780.891 25.834 783.299 25.834C785.681 25.834 787.438 28.0137 787.447 31.4414C787.438 34.8955 785.681 37.0664 783.299 37.0664C780.891 37.0664 779.142 34.8955 779.15 31.4414ZM781.031 31.4414C781.031 33.8848 781.954 35.2998 783.299 35.3086C784.635 35.2998 785.549 33.8848 785.549 31.4414C785.549 29.0156 784.635 27.5918 783.299 27.5918C781.954 27.5918 781.031 29.0156 781.031 31.4414ZM799.875 28.4883C799.857 31.3271 801.281 34.1924 803.742 35.3789L802.547 36.9434C800.824 36.0732 799.585 34.3945 798.908 32.373C798.214 34.5352 796.913 36.3281 795.094 37.2422L793.898 35.6777C796.456 34.4648 797.915 31.4238 797.924 28.4883V25.957H799.875V28.4883ZM804.691 40.5645V24.6738H806.643V30.8965H809.086V32.5664H806.643V40.5645H804.691Z" fill="white"/>
</svg>
