<svg width="64" height="64" viewBox="0 0 64 64" fill="none" xmlns="http://www.w3.org/2000/svg">
<g id="shape">
<rect width="64" height="64" rx="16" fill="#282828"/>
<g id="shape-09">
<path d="M29.3307 27.3333L26.6641 22.6667L29.3307 18H34.6641L37.3307 22.6667H31.9974L29.3307 27.3333Z" fill="#BA2FD7"/>
<path d="M42.6641 32L39.9974 27.3333H34.6641L37.3307 22.6667H42.6641L45.3307 27.3333L42.6641 32Z" fill="#BA2FD7"/>
<path d="M37.3307 41.3333H42.6641L45.3307 36.6667L42.6641 32H37.3307L39.9974 36.6667L37.3307 41.3333Z" fill="#BA2FD7"/>
<path d="M26.6641 41.3333H31.9974L34.6641 36.6667L37.3307 41.3333L34.6641 46H29.3307L26.6641 41.3333Z" fill="#BA2FD7"/>
<path d="M21.3307 32H26.6641L23.9974 27.3333L26.6641 22.6667H21.3307L18.6641 27.3333L21.3307 32Z" fill="#BA2FD7"/>
<path d="M21.3307 32L18.6641 36.6667L21.3307 41.3333H26.6641L29.3307 36.6667H23.9974L21.3307 32Z" fill="#BA2FD7"/>
</g>
</g>
</svg>
