<svg width="64" height="64" viewBox="0 0 64 64" fill="none" xmlns="http://www.w3.org/2000/svg">
<g id="shape">
<rect width="64" height="64" rx="16" fill="#282828"/>
<g id="shape-01">
<path d="M34.4016 17.5996L36.8016 19.9996L32.0016 24.7996L27.2016 19.9996L29.6016 17.5996H34.4016Z" fill="#FBBC05"/>
<path d="M20.0016 27.1996H27.2016V19.9996H23.6016L20.0016 23.5996V27.1996Z" fill="#FBBC05"/>
<path d="M20.0016 36.7996L24.8016 31.9996L20.0016 27.1996L17.6016 29.5996V34.3996L20.0016 36.7996Z" fill="#FBBC05"/>
<path d="M27.2016 43.9996H23.6016L20.0016 40.3996V36.7996H27.2016V43.9996Z" fill="#FBBC05"/>
<path d="M36.8016 43.9996L34.4016 46.3996H29.6016L27.2016 43.9996L32.0016 39.1996L36.8016 43.9996Z" fill="#FBBC05"/>
<path d="M44.0016 36.7996V40.3996L40.4016 43.9996H36.8016V36.7996H44.0016Z" fill="#FBBC05"/>
<path d="M44.0016 27.1996L46.4016 29.5996V34.3996L44.0016 36.7996L39.2016 31.9996L44.0016 27.1996Z" fill="#FBBC05"/>
<path d="M44.0016 27.1996V23.5996L40.4016 19.9996H36.8016V27.1996H44.0016Z" fill="#FBBC05"/>
</g>
</g>
</svg>
