<svg width="64" height="64" viewBox="0 0 64 64" fill="none" xmlns="http://www.w3.org/2000/svg">
<g id="shape">
<rect width="64" height="64" rx="16" fill="#282828"/>
<g id="shape-08">
<path d="M34.6641 27.3333L31.9974 22.6667L34.6641 18L37.3307 22.6667H42.6641L39.9974 27.3333H34.6641Z" fill="#007BD6"/>
<path d="M39.9974 36.6667L37.3307 32L39.9974 27.3333H45.3307L42.6641 32L45.3307 36.6667H39.9974Z" fill="#007BD6"/>
<path d="M31.9974 41.3333L34.6641 36.6667H39.9974L42.6641 41.3333H37.3307L34.6641 46L31.9974 41.3333Z" fill="#007BD6"/>
<path d="M23.9974 36.6667H29.3307L31.9974 41.3333L29.3307 46L26.6641 41.3333H21.3307L23.9974 36.6667Z" fill="#007BD6"/>
<path d="M23.9974 27.3333H29.3307L31.9974 22.6667L29.3307 18L26.6641 22.6667H21.3307L23.9974 27.3333Z" fill="#007BD6"/>
<path d="M23.9974 27.3333H18.6641L21.3307 32L18.6641 36.6667H23.9974L26.6641 32L23.9974 27.3333Z" fill="#007BD6"/>
</g>
</g>
</svg>
