<svg width="148" height="42" viewBox="0 0 148 42" fill="none" xmlns="http://www.w3.org/2000/svg">
<mask id="mask0_2810_49945" style="mask-type:alpha" maskUnits="userSpaceOnUse" x="0" y="5" width="147" height="37">
<path d="M4.256 15.098C3.60267 15.098 3.01467 14.986 2.492 14.762C1.96933 14.5287 1.55867 14.202 1.26 13.782C0.961333 13.362 0.812 12.872 0.812 12.312H2.52C2.55733 12.732 2.72067 13.0773 3.01 13.348C3.30867 13.6187 3.724 13.754 4.256 13.754C4.80667 13.754 5.236 13.6233 5.544 13.362C5.852 13.0913 6.006 12.746 6.006 12.326C6.006 11.9993 5.908 11.7333 5.712 11.528C5.52533 11.3227 5.28733 11.164 4.998 11.052C4.718 10.94 4.326 10.8187 3.822 10.688C3.18733 10.52 2.66933 10.352 2.268 10.184C1.876 10.0067 1.54 9.736 1.26 9.372C0.98 9.008 0.84 8.52267 0.84 7.916C0.84 7.356 0.98 6.866 1.26 6.446C1.54 6.026 1.932 5.704 2.436 5.48C2.94 5.256 3.52333 5.144 4.186 5.144C5.12867 5.144 5.89867 5.382 6.496 5.858C7.10267 6.32467 7.43867 6.96867 7.504 7.79H5.74C5.712 7.43533 5.544 7.132 5.236 6.88C4.928 6.628 4.522 6.502 4.018 6.502C3.56067 6.502 3.18733 6.61867 2.898 6.852C2.60867 7.08533 2.464 7.42133 2.464 7.86C2.464 8.15867 2.55267 8.406 2.73 8.602C2.91667 8.78867 3.15 8.938 3.43 9.05C3.71 9.162 4.09267 9.28333 4.578 9.414C5.222 9.59133 5.74467 9.76867 6.146 9.946C6.55667 10.1233 6.902 10.3987 7.182 10.772C7.47133 11.136 7.616 11.626 7.616 12.242C7.616 12.7367 7.48067 13.2033 7.21 13.642C6.94867 14.0807 6.56133 14.4353 6.048 14.706C5.544 14.9673 4.94667 15.098 4.256 15.098ZM8.96722 10.114C8.96722 9.162 9.18655 8.308 9.62522 7.552C10.0732 6.796 10.6752 6.208 11.4312 5.788C12.1966 5.35867 13.0319 5.144 13.9372 5.144C14.9732 5.144 15.8926 5.40067 16.6952 5.914C17.5072 6.418 18.0952 7.13667 18.4592 8.07H16.5412C16.2892 7.55667 15.9392 7.174 15.4912 6.922C15.0432 6.67 14.5252 6.544 13.9372 6.544C13.2932 6.544 12.7192 6.68867 12.2152 6.978C11.7112 7.26733 11.3146 7.68267 11.0252 8.224C10.7452 8.76533 10.6052 9.39533 10.6052 10.114C10.6052 10.8327 10.7452 11.4627 11.0252 12.004C11.3146 12.5453 11.7112 12.9653 12.2152 13.264C12.7192 13.5533 13.2932 13.698 13.9372 13.698C14.5252 13.698 15.0432 13.572 15.4912 13.32C15.9392 13.068 16.2892 12.6853 16.5412 12.172H18.4592C18.0952 13.1053 17.5072 13.824 16.6952 14.328C15.8926 14.832 14.9732 15.084 13.9372 15.084C13.0226 15.084 12.1872 14.874 11.4312 14.454C10.6752 14.0247 10.0732 13.432 9.62522 12.676C9.18655 11.92 8.96722 11.066 8.96722 10.114ZM25.3813 15L23.1413 11.108H21.9233V15H20.3273V5.27H23.6873C24.434 5.27 25.064 5.40067 25.5773 5.662C26.1 5.92333 26.4873 6.27333 26.7393 6.712C27.0007 7.15067 27.1313 7.64067 27.1313 8.182C27.1313 8.81667 26.9447 9.39533 26.5713 9.918C26.2073 10.4313 25.6427 10.7813 24.8773 10.968L27.2853 15H25.3813ZM21.9233 9.834H23.6873C24.2847 9.834 24.7327 9.68467 25.0313 9.386C25.3393 9.08733 25.4933 8.686 25.4933 8.182C25.4933 7.678 25.344 7.286 25.0453 7.006C24.7467 6.71667 24.294 6.572 23.6873 6.572H21.9233V9.834ZM33.611 15.098C32.7057 15.098 31.8704 14.888 31.105 14.468C30.349 14.0387 29.747 13.446 29.299 12.69C28.8604 11.9247 28.641 11.066 28.641 10.114C28.641 9.162 28.8604 8.308 29.299 7.552C29.747 6.796 30.349 6.208 31.105 5.788C31.8704 5.35867 32.7057 5.144 33.611 5.144C34.5257 5.144 35.361 5.35867 36.117 5.788C36.8824 6.208 37.4844 6.796 37.923 7.552C38.3617 8.308 38.581 9.162 38.581 10.114C38.581 11.066 38.3617 11.9247 37.923 12.69C37.4844 13.446 36.8824 14.0387 36.117 14.468C35.361 14.888 34.5257 15.098 33.611 15.098ZM33.611 13.712C34.255 13.712 34.829 13.5673 35.333 13.278C35.837 12.9793 36.229 12.5593 36.509 12.018C36.7984 11.4673 36.943 10.8327 36.943 10.114C36.943 9.39533 36.7984 8.76533 36.509 8.224C36.229 7.68267 35.837 7.26733 35.333 6.978C34.829 6.68867 34.255 6.544 33.611 6.544C32.967 6.544 32.393 6.68867 31.889 6.978C31.385 7.26733 30.9884 7.68267 30.699 8.224C30.419 8.76533 30.279 9.39533 30.279 10.114C30.279 10.8327 30.419 11.4673 30.699 12.018C30.9884 12.5593 31.385 12.9793 31.889 13.278C32.393 13.5673 32.967 13.712 33.611 13.712ZM41.7476 13.712H45.0376V15H40.1516V5.27H41.7476V13.712ZM47.9683 13.712H51.2583V15H46.3723V5.27H47.9683V13.712ZM62.5157 5.27V6.572H59.9257V15H58.3297V6.572H55.7257V5.27H62.5157ZM68.57 15.098C67.6647 15.098 66.8294 14.888 66.064 14.468C65.308 14.0387 64.706 13.446 64.258 12.69C63.8194 11.9247 63.6 11.066 63.6 10.114C63.6 9.162 63.8194 8.308 64.258 7.552C64.706 6.796 65.308 6.208 66.064 5.788C66.8294 5.35867 67.6647 5.144 68.57 5.144C69.4847 5.144 70.32 5.35867 71.076 5.788C71.8414 6.208 72.4434 6.796 72.882 7.552C73.3207 8.308 73.54 9.162 73.54 10.114C73.54 11.066 73.3207 11.9247 72.882 12.69C72.4434 13.446 71.8414 14.0387 71.076 14.468C70.32 14.888 69.4847 15.098 68.57 15.098ZM68.57 13.712C69.214 13.712 69.788 13.5673 70.292 13.278C70.796 12.9793 71.188 12.5593 71.468 12.018C71.7574 11.4673 71.902 10.8327 71.902 10.114C71.902 9.39533 71.7574 8.76533 71.468 8.224C71.188 7.68267 70.796 7.26733 70.292 6.978C69.788 6.68867 69.214 6.544 68.57 6.544C67.926 6.544 67.352 6.68867 66.848 6.978C66.344 7.26733 65.9474 7.68267 65.658 8.224C65.378 8.76533 65.238 9.39533 65.238 10.114C65.238 10.8327 65.378 11.4673 65.658 12.018C65.9474 12.5593 66.344 12.9793 66.848 13.278C67.352 13.5673 67.926 13.712 68.57 13.712ZM81.9253 5.27C82.9613 5.27 83.8666 5.47067 84.6413 5.872C85.4253 6.264 86.0273 6.83333 86.4473 7.58C86.8766 8.31733 87.0913 9.18067 87.0913 10.17C87.0913 11.1593 86.8766 12.018 86.4473 12.746C86.0273 13.474 85.4253 14.034 84.6413 14.426C83.8666 14.8087 82.9613 15 81.9253 15H78.7473V5.27H81.9253ZM81.9253 13.698C83.0639 13.698 83.9366 13.39 84.5433 12.774C85.1499 12.158 85.4533 11.29 85.4533 10.17C85.4533 9.04067 85.1499 8.15867 84.5433 7.524C83.9366 6.88933 83.0639 6.572 81.9253 6.572H80.3433V13.698H81.9253ZM90.269 5.27V15H88.673V5.27H90.269ZM95.5705 15.098C94.9171 15.098 94.3291 14.986 93.8065 14.762C93.2838 14.5287 92.8731 14.202 92.5745 13.782C92.2758 13.362 92.1265 12.872 92.1265 12.312H93.8345C93.8718 12.732 94.0351 13.0773 94.3245 13.348C94.6231 13.6187 95.0385 13.754 95.5705 13.754C96.1211 13.754 96.5505 13.6233 96.8585 13.362C97.1665 13.0913 97.3205 12.746 97.3205 12.326C97.3205 11.9993 97.2225 11.7333 97.0265 11.528C96.8398 11.3227 96.6018 11.164 96.3125 11.052C96.0325 10.94 95.6405 10.8187 95.1365 10.688C94.5018 10.52 93.9838 10.352 93.5825 10.184C93.1905 10.0067 92.8545 9.736 92.5745 9.372C92.2945 9.008 92.1545 8.52267 92.1545 7.916C92.1545 7.356 92.2945 6.866 92.5745 6.446C92.8545 6.026 93.2465 5.704 93.7505 5.48C94.2545 5.256 94.8378 5.144 95.5005 5.144C96.4431 5.144 97.2131 5.382 97.8105 5.858C98.4171 6.32467 98.7531 6.96867 98.8185 7.79H97.0545C97.0265 7.43533 96.8585 7.132 96.5505 6.88C96.2425 6.628 95.8365 6.502 95.3325 6.502C94.8751 6.502 94.5018 6.61867 94.2125 6.852C93.9231 7.08533 93.7785 7.42133 93.7785 7.86C93.7785 8.15867 93.8671 8.406 94.0445 8.602C94.2311 8.78867 94.4645 8.938 94.7445 9.05C95.0245 9.162 95.4071 9.28333 95.8925 9.414C96.5365 9.59133 97.0591 9.76867 97.4605 9.946C97.8711 10.1233 98.2165 10.3987 98.4965 10.772C98.7858 11.136 98.9305 11.626 98.9305 12.242C98.9305 12.7367 98.7951 13.2033 98.5245 13.642C98.2631 14.0807 97.8758 14.4353 97.3625 14.706C96.8585 14.9673 96.2611 15.098 95.5705 15.098ZM100.282 10.114C100.282 9.162 100.501 8.308 100.94 7.552C101.388 6.796 101.99 6.208 102.746 5.788C103.511 5.35867 104.346 5.144 105.252 5.144C106.288 5.144 107.207 5.40067 108.01 5.914C108.822 6.418 109.41 7.13667 109.774 8.07H107.856C107.604 7.55667 107.254 7.174 106.806 6.922C106.358 6.67 105.84 6.544 105.252 6.544C104.608 6.544 104.034 6.68867 103.53 6.978C103.026 7.26733 102.629 7.68267 102.34 8.224C102.06 8.76533 101.92 9.39533 101.92 10.114C101.92 10.8327 102.06 11.4627 102.34 12.004C102.629 12.5453 103.026 12.9653 103.53 13.264C104.034 13.5533 104.608 13.698 105.252 13.698C105.84 13.698 106.358 13.572 106.806 13.32C107.254 13.068 107.604 12.6853 107.856 12.172H109.774C109.41 13.1053 108.822 13.824 108.01 14.328C107.207 14.832 106.288 15.084 105.252 15.084C104.337 15.084 103.502 14.874 102.746 14.454C101.99 14.0247 101.388 13.432 100.94 12.676C100.501 11.92 100.282 11.066 100.282 10.114ZM116.08 15.098C115.174 15.098 114.339 14.888 113.574 14.468C112.818 14.0387 112.216 13.446 111.768 12.69C111.329 11.9247 111.11 11.066 111.11 10.114C111.11 9.162 111.329 8.308 111.768 7.552C112.216 6.796 112.818 6.208 113.574 5.788C114.339 5.35867 115.174 5.144 116.08 5.144C116.994 5.144 117.83 5.35867 118.586 5.788C119.351 6.208 119.953 6.796 120.392 7.552C120.83 8.308 121.05 9.162 121.05 10.114C121.05 11.066 120.83 11.9247 120.392 12.69C119.953 13.446 119.351 14.0387 118.586 14.468C117.83 14.888 116.994 15.098 116.08 15.098ZM116.08 13.712C116.724 13.712 117.298 13.5673 117.802 13.278C118.306 12.9793 118.698 12.5593 118.978 12.018C119.267 11.4673 119.412 10.8327 119.412 10.114C119.412 9.39533 119.267 8.76533 118.978 8.224C118.698 7.68267 118.306 7.26733 117.802 6.978C117.298 6.68867 116.724 6.544 116.08 6.544C115.436 6.544 114.862 6.68867 114.358 6.978C113.854 7.26733 113.457 7.68267 113.168 8.224C112.888 8.76533 112.748 9.39533 112.748 10.114C112.748 10.8327 112.888 11.4673 113.168 12.018C113.457 12.5593 113.854 12.9793 114.358 13.278C114.862 13.5673 115.436 13.712 116.08 13.712ZM131.006 5.27L127.352 15H125.504L121.836 5.27H123.544L126.428 13.362L129.326 5.27H131.006ZM133.937 6.558V9.414H137.297V10.716H133.937V13.698H137.717V15H132.341V5.256H137.717V6.558H133.937ZM144.737 15L142.497 11.108H141.279V15H139.683V5.27H143.043C143.789 5.27 144.419 5.40067 144.933 5.662C145.455 5.92333 145.843 6.27333 146.095 6.712C146.356 7.15067 146.487 7.64067 146.487 8.182C146.487 8.81667 146.3 9.39533 145.927 9.918C145.563 10.4313 144.998 10.7813 144.233 10.968L146.641 15H144.737ZM141.279 9.834H143.043C143.64 9.834 144.088 9.68467 144.387 9.386C144.695 9.08733 144.849 8.686 144.849 8.182C144.849 7.678 144.699 7.286 144.401 7.006C144.102 6.71667 143.649 6.572 143.043 6.572H141.279V9.834Z" fill="white" fill-opacity="0.8"/>
<path d="M68 35L74 41L80 35" stroke="white"/>
<path opacity="0.5" d="M68 27L74 33L80 27" stroke="white"/>
</mask>
<g mask="url(#mask0_2810_49945)">
<rect x="-93" y="-66" width="328" height="147" fill="#D9D9D9"/>
</g>
</svg>
