<svg width="20" height="20" viewBox="0 0 20 20" fill="none" xmlns="http://www.w3.org/2000/svg">
<path fill-rule="evenodd" clip-rule="evenodd" d="M1.90009 10C1.90009 5.52661 5.52658 1.8999 10.0001 1.8999C14.4736 1.8999 18.1001 5.52661 18.1001 10C18.1001 14.4734 14.4736 18.1001 10.0001 18.1001C5.52658 18.1001 1.90009 14.4734 1.90009 10ZM10.0001 0.100098C4.53247 0.100098 0.100098 4.53247 0.100098 10C0.100098 15.4675 4.53247 19.8999 10.0001 19.8999C15.4677 19.8999 19.9001 15.4675 19.9001 10C19.9001 4.53247 15.4677 0.100098 10.0001 0.100098ZM10.0001 15C12.7615 15 15.0001 12.7615 15.0001 10C15.0001 7.23853 12.7615 5 10.0001 5C7.23868 5 5.00009 7.23853 5.00009 10C5.00009 12.7615 7.23868 15 10.0001 15Z" fill="black"/>
</svg>
