<svg width="28" height="28" viewBox="0 0 28 28" fill="none" xmlns="http://www.w3.org/2000/svg">
<path fill-rule="evenodd" clip-rule="evenodd" d="M2.05025 2.05025C0 4.1005 0 7.40034 0 14C0 20.5997 0 23.8995 2.05025 25.9497C4.1005 28 7.40034 28 14 28C20.5997 28 23.8995 28 25.9497 25.9497C28 23.8995 28 20.5997 28 14C28 7.40034 28 4.1005 25.9497 2.05025C23.8995 0 20.5997 0 14 0C7.40034 0 4.1005 0 2.05025 2.05025ZM15.2 12.8H18.8C19.4627 12.8 20 13.3373 20 14C20 14.6627 19.4627 15.2 18.8 15.2H15.2H12.8H9.2C8.53726 15.2 8 14.6627 8 14C8 13.3373 8.53726 12.8 9.2 12.8H12.8H15.2Z" fill="black"/>
</svg>
