<svg width="24" height="24" viewBox="0 0 24 24" fill="none" xmlns="http://www.w3.org/2000/svg">
<g clip-path="url(#clip0_5485_19001)">
<path fill-rule="evenodd" clip-rule="evenodd" d="M0 12C0 0 0 0 12 0C24 0 24 0 24 12C24 24 24 24 12 24C0 24 0 24 0 12ZM13.2 7.2C13.2 6.53726 12.6627 6 12 6C11.3373 6 10.8 6.53726 10.8 7.2V10.8H7.2C6.53726 10.8 6 11.3373 6 12C6 12.6627 6.53726 13.2 7.2 13.2H10.8V16.8C10.8 17.4627 11.3373 18 12 18C12.6627 18 13.2 17.4627 13.2 16.8V13.2H16.8C17.4627 13.2 18 12.6627 18 12C18 11.3373 17.4627 10.8 16.8 10.8H13.2V7.2Z" fill="black"/>
</g>
<defs>
<clipPath id="clip0_5485_19001">
<rect width="24" height="24" fill="white"/>
</clipPath>
</defs>
</svg>
