<svg width="112" height="13" viewBox="0 0 112 13" fill="none" xmlns="http://www.w3.org/2000/svg">
<path d="M49.1839 5.68862C48.6626 5.41464 48.0016 5.10307 47.1955 4.75389C47.131 4.72703 47.0611 4.68943 46.9644 4.6572C46.2012 4.36174 45.7391 4.22743 45.3252 3.99643C45.293 3.98569 45.2661 3.96958 45.2339 3.95884C44.8147 3.72784 44.5675 3.55593 44.4869 3.50221C44.2074 3.24436 44.0408 2.93814 44.0408 2.60508C44.0408 1.70258 45.3252 0.907518 46.787 0.907518C46.8945 0.907518 47.0074 0.912889 47.1148 0.923633C47.1471 0.923633 47.1793 0.929016 47.2116 0.934388C48.4423 1.0848 49.7106 1.73481 49.8557 2.50301C49.8557 2.50838 49.8664 2.51914 49.8718 2.52988C49.9417 2.7179 50.0115 2.88443 50.0814 2.96501C50.0814 2.97038 50.5866 3.16377 50.5866 3.16377V0.0802381H50.2534C50.162 0.0802381 50.119 0.155434 50.0921 0.25213C50.0223 0.54222 49.8342 0.665787 49.6138 0.665787C49.4956 0.665787 49.157 0.622811 48.8829 0.531486C48.0607 0.262885 47.2922 0.128584 46.5721 0.128584C45.2285 0.128584 43.7775 0.461638 42.9015 1.09016C42.0201 1.72406 41.5848 2.51913 41.5848 3.48072C41.5848 4.29727 42.004 4.98489 42.5199 5.58119C43.0842 6.2312 44.3364 6.88121 45.9057 7.52586C47.3191 8.12215 48.1521 8.51431 48.4154 8.71844C48.7593 8.99779 48.9367 9.37383 48.9367 9.8412C48.9367 10.3891 48.668 10.9425 48.1359 11.3185C47.6039 11.6999 46.8569 11.8127 46.0776 11.8127C45.2231 11.8127 44.4009 11.5603 43.6539 11.0929C42.8854 10.6255 42.5629 9.90565 42.391 9.58333C42.2244 9.25564 42.2512 9.10524 42.1814 9.02465L42.176 9.00854V9.01928C42.1437 8.98167 42.1061 8.94944 42.0739 8.9387C42.0685 8.93333 42.0631 8.92796 42.0578 8.92258C41.9127 8.79903 41.5848 8.92258 41.5848 8.92258V12.178L41.5526 12.597L42.0954 12.6185C42.0954 12.6185 42.176 12.495 42.2244 12.3875C42.3211 12.1673 42.4501 12.0115 42.665 12.0115C42.6919 12.0169 42.7242 12.0222 42.7564 12.033C44.2988 12.4896 45.6746 12.726 46.5559 12.726C47.9962 12.726 49.3129 12.2532 50.2802 11.6247C51.1401 11.066 51.5647 10.2495 51.7151 9.44367C51.742 9.33086 51.7635 9.2073 51.785 9.06762C52.1075 6.77377 49.2 5.69399 49.2 5.69399L49.1839 5.68862Z" fill="white"/>
<path d="M46.5402 12.8015C45.6159 12.8015 44.2239 12.4416 42.7138 11.9957C42.6977 11.9957 42.6816 11.985 42.6601 11.985L42.6278 11.9742C42.3322 12.0065 42.1065 12.6189 42.1065 12.6189H41.4939V8.87459L42.085 8.85848C42.085 8.85848 42.3215 9.37956 42.4128 9.55683L42.4558 9.63741C42.6278 9.98122 42.9879 10.6151 43.6758 11.0341C44.4282 11.5015 45.2289 11.7432 46.0619 11.7432C46.9648 11.7432 47.6204 11.5875 48.0718 11.2598C48.5609 10.9106 48.8403 10.3949 48.8403 9.84693C48.8403 9.40105 48.6791 9.05186 48.3513 8.78326C48.1041 8.58987 47.2657 8.19235 45.8631 7.60142C44.0466 6.85471 42.961 6.22619 42.4505 5.63526C41.8002 4.88855 41.4939 4.2063 41.4939 3.48645C41.4939 2.50337 41.9507 1.67608 42.8482 1.03144C43.6865 0.429769 45.1107 0.0537235 46.5671 0.0537235C47.2926 0.0537235 48.0772 0.188029 48.9048 0.462002C49.2327 0.569443 49.539 0.590926 49.6142 0.590926C49.7271 0.590926 50.071 0.0161154 50.071 0.0161154L50.6676 0V3.23397H50.0764C50.0764 3.23397 50.0495 3.07817 49.7056 2.56783C49.3616 2.05748 48.3943 1.16036 47.2066 1.01532H47.1851C47.1851 1.01532 47.1421 1.00458 47.1152 1.00458C46.997 0.993838 46.8895 0.98845 46.7928 0.98845C45.3955 0.98845 44.1272 1.75665 44.1272 2.60543C44.1272 2.9009 44.2723 3.19099 44.5464 3.44885C44.5625 3.45959 44.8043 3.63149 45.2773 3.89472L45.3041 3.90547C45.3041 3.90547 45.3418 3.92158 45.3579 3.92695C45.6427 4.08811 45.9383 4.19555 46.3467 4.34596C46.5402 4.4158 46.7498 4.49639 46.997 4.58771C47.0937 4.62532 47.169 4.65755 47.2281 4.68978C48.0127 5.02822 48.6791 5.3398 49.2112 5.61915C49.238 5.62989 52.1723 6.74727 51.8445 9.07873C51.823 9.21303 51.8015 9.34733 51.7746 9.46014C51.651 10.1209 51.2963 11.0449 50.3021 11.6895C49.2488 12.3771 47.9106 12.8069 46.5402 12.8069V12.8015Z" fill="white"/>
<path d="M27.0972 0.364882H23.5072V0.977284C23.5825 0.977284 23.6685 0.977284 23.7706 0.977284C24.2919 0.977284 24.2919 1.20292 24.2919 1.27275C24.2919 1.45003 23.9157 2.1269 23.3997 3.06163C23.2224 3.3947 23.0612 3.68478 22.9214 3.94801C22.4808 4.76993 22.2067 5.28565 21.9057 5.7369C21.2877 4.74845 20.9008 4.13603 20.4332 3.36246C20.1054 2.80914 19.8528 2.4331 19.6862 2.18599C19.5733 2.01946 19.5035 1.90665 19.4659 1.83681C19.3745 1.65953 19.3315 1.48763 19.3315 1.3211C19.3315 1.16531 19.396 1.01489 20.1967 0.993399H20.4063V0.37562H14.8709V1.04712C15.3063 1.05249 15.6126 1.1492 15.7738 1.3211C15.9888 1.63268 16.193 1.91739 16.3811 2.17525C16.8271 2.80378 17.1818 3.298 17.4613 3.78686C18.5415 5.44144 19.1757 6.75221 19.4659 7.39686V11.2808C19.4659 11.5333 19.4336 11.5602 19.3476 11.6246L19.3315 11.6408C19.31 11.673 19.1595 11.7858 18.2352 11.818V12.5325H23.8942V11.8073C23.3406 11.7912 23.1149 11.7589 22.9376 11.6998C22.771 11.6461 22.6957 11.5494 22.6957 11.3936V8.22414C22.6957 7.58487 22.7334 7.14437 22.814 6.908C22.8892 6.68238 23.1579 6.03773 23.6362 5.22656C24.0178 4.54431 24.3134 4.01785 24.5068 3.65256C25.7429 1.33722 26.0116 1.23515 26.0223 1.23515L26.0546 1.21903C26.1406 1.15457 26.3932 1.06861 27.0918 1.01489V0.370243L27.0972 0.364882Z" fill="white"/>
<path d="M61.1155 0.387295V0.97822H61.1854C61.2552 0.988964 61.3305 0.988959 61.4218 0.988959C61.8894 0.988959 62.6256 1.20922 62.7224 1.54765V8.02631C62.717 10.1805 62.459 10.4599 61.9915 10.9756L61.8948 11.083C61.5024 11.5235 60.7286 11.7706 59.7128 11.7706C58.9067 11.7706 58.2457 11.5719 57.7566 11.1743C57.3643 10.8574 57.1171 10.3363 57.0204 9.6218C56.9828 9.37469 56.9613 8.78914 56.9613 7.8759V1.57988C56.9828 1.45633 57.015 1.35964 57.058 1.30055C57.1117 1.22534 57.273 1.134 57.7244 1.12326C57.8373 1.12326 57.8641 1.11789 57.8964 1.11252C57.9125 1.11252 57.934 1.11252 57.977 1.10714H58.0469V0.387295H52.3717V1.00509C52.8447 1.01046 53.1886 1.04806 53.3982 1.11252C53.554 1.16087 53.6508 1.28443 53.683 1.48319V1.52616C53.683 1.52616 53.683 1.55841 53.683 1.57452V8.21971C53.683 9.77223 54.027 10.8681 54.7041 11.4859C55.6177 12.3239 56.8699 12.5818 58.466 12.7161C58.767 12.743 59.0733 12.7537 59.3796 12.7537C60.5297 12.7537 61.6529 12.5818 62.3999 12.2756C63.8617 11.6793 64.512 10.5404 64.512 8.59575V1.55303C64.5335 1.31666 64.5872 1.2307 64.6356 1.17698C64.7001 1.10177 65.0118 1.01045 65.5492 0.972843C65.6029 0.972843 65.6191 0.967472 65.6406 0.956728C65.6406 0.956728 65.6513 0.956728 65.662 0.956728H65.7319V0.392672H61.1155V0.387295Z" fill="white"/>
<path d="M80.0322 0.2954H76.5014V0.897064C76.5552 0.897064 76.6035 0.897064 76.7003 0.897064C77.0173 0.897064 77.3237 0.999134 77.4311 1.13343C77.4419 1.19253 77.4526 1.28384 77.4526 1.41277V7.5154L70.4393 0.381354H66.1991V1.04748L66.6022 1.07971L66.6613 1.09045C67.0805 1.25698 67.2364 1.38591 67.3761 1.56319C67.4782 1.72972 67.5481 1.91237 67.5803 2.11651C67.5857 2.15411 67.5964 2.23469 67.6072 2.40122C67.6179 2.63222 67.6233 2.97066 67.6233 3.37356V10.6956C67.6125 10.787 67.6179 11.2114 67.6179 11.2114C67.6179 11.2167 67.6179 11.3779 67.4621 11.5122L67.4191 11.539C67.2525 11.6304 66.801 11.7056 66.2045 11.7432V12.3825H70.0685V11.7808C70.0202 11.7808 69.9664 11.7808 69.8697 11.7808C69.5526 11.7808 69.2463 11.6787 69.1388 11.5444C69.1281 11.4907 69.1227 11.394 69.1227 11.2651V3.3467L78.0438 12.3986H78.8445V1.46112C78.8445 1.46112 78.8446 1.29996 79.0004 1.16029C79.0165 1.14954 79.0273 1.13881 79.0434 1.13343C79.1885 1.05823 79.425 0.972271 80.0322 0.929295V0.290023V0.2954Z" fill="white"/>
<path d="M13.9728 11.8776C13.5268 11.8454 13.199 11.7648 13.0109 11.6412C12.7959 11.4962 12.7045 11.1685 12.7045 10.5077V2.13273C12.7045 1.5633 12.769 1.37527 12.8711 1.25709C12.9464 1.17114 13.1667 1.05834 13.7686 1.02074C13.8385 1.02074 13.9083 1.00999 13.9675 1.00462V0.370709H8.5288V1.03685C8.58792 1.03685 8.64704 1.03685 8.7169 1.03685C9.35105 1.03685 9.65738 1.39139 9.65738 2.11662V5.3667C8.10962 5.43116 6.17492 5.44191 4.81525 5.39893L4.39607 5.3667V1.93397C4.39607 1.61702 4.43906 1.39677 4.51967 1.27858C4.57342 1.20337 4.73464 1.11206 5.18607 1.10131C5.32043 1.10131 5.42791 1.09593 5.52464 1.09056V0.370709H0V0.988488C0.467553 0.988488 0.816873 1.0261 1.02647 1.09594C1.23068 1.1604 1.33279 1.34842 1.33279 1.67075V10.9321C1.33279 11.378 1.29517 11.5821 1.20919 11.6305C0.988847 11.754 0.585784 11.8185 0 11.8239V12.533H5.53539V11.8561C5.43328 11.8454 5.3043 11.8292 5.15383 11.8131C4.66478 11.7594 4.40682 11.609 4.39607 11.3672V6.6721H9.65738V11.0234C9.64663 11.3028 9.63051 11.3672 9.61976 11.4263V11.4532C9.61976 11.5284 9.51228 11.6036 9.32418 11.6735C9.10384 11.754 8.84588 11.8024 8.5503 11.8131C8.5503 11.8131 8.54493 11.8131 8.53955 11.8131V12.533H13.9621V11.883L13.9728 11.8776Z" fill="white"/>
<path d="M40.5006 6.29128C40.42 2.75112 37.1525 -0.0477156 33.2079 0.0382367C29.2632 0.124189 26.1247 3.05731 26.2053 6.59747C26.2859 10.1323 29.5534 12.9365 33.4981 12.8505C37.4427 12.7646 40.5812 9.83144 40.5006 6.29128ZM33.353 11.6472C31.343 11.6472 29.72 9.32109 29.72 6.44706C29.72 3.57302 31.3484 1.24694 33.353 1.24694C35.3575 1.24694 36.9859 3.57302 36.9859 6.44706C36.9859 9.32109 35.3575 11.6472 33.353 11.6472Z" fill="white"/>
<path d="M88.4169 7.07023V7.68265C88.8898 7.68265 89.2391 7.72026 89.4595 7.78472C89.6153 7.83307 89.6691 7.91364 89.7335 8.18225C89.7497 8.4025 89.7604 8.64961 89.7712 8.90747V9.11697H89.7765C89.7873 9.45541 89.7927 9.79922 89.7927 10.0947C89.7927 11.1207 89.051 11.4968 88.5996 11.6365C88.5512 11.6579 88.3363 11.6956 88.3363 11.6956C88.2879 11.6956 88.1482 11.7117 88.1267 11.7117C88.0622 11.717 87.6914 11.6956 87.6591 11.6956C87.2561 11.6687 86.9444 11.6203 86.6273 11.4807C86.2994 11.3464 86.0254 11.1745 85.8212 10.9703C84.7409 10.0678 84.0101 8.39176 84.0101 6.47395C84.0101 4.03505 85.1816 1.9883 86.767 1.42961C86.9121 1.37589 87.2722 1.24697 87.7612 1.16638C87.8257 1.15564 87.8902 1.15028 87.9547 1.13953C89.4272 0.989115 90.3569 1.44573 90.8729 1.854C90.8836 1.86475 90.8944 1.87011 90.9051 1.88086C90.9105 1.88623 90.9212 1.8916 90.9427 1.91309L90.9589 1.9292C91.4748 2.38045 91.7435 3.07883 91.8241 3.38503C91.9047 3.69124 91.937 3.80405 91.937 3.80405H92.2379C92.2916 3.82017 92.3508 3.82016 92.4099 3.80941H92.6893V0.237019H92.0283V0.253134C91.9423 0.279995 91.7274 0.618444 91.7274 0.618444C91.7274 0.618444 91.6038 0.827945 91.4909 0.827945C91.3834 0.827945 91.1953 0.784974 90.932 0.699022C90.8353 0.666789 90.7439 0.639927 90.6472 0.613067L90.588 0.596952C89.7335 0.30149 88.9059 0.156442 88.1267 0.156442C85.9125 0.156442 83.8112 0.822582 82.5107 1.94533C81.1295 3.13255 80.4255 4.64208 80.4255 6.43096C80.4255 8.21984 81.2047 10.0463 82.4569 11.0992C83.7252 12.1629 85.7567 12.8022 87.8956 12.8022C89.4595 12.8022 91.2168 12.3133 92.8398 11.4323L92.8828 11.4108V10.2612C92.8828 9.96575 92.8828 9.536 92.8882 9.12235V8.98267C92.8882 8.77316 92.8936 8.56903 92.8989 8.39712C92.915 8.20373 92.958 8.05869 93.0172 7.97811C93.0709 7.9029 93.2321 7.81158 93.6943 7.80084C93.8287 7.80084 93.9415 7.79008 94.0383 7.79008V7.07561H88.4276L88.4169 7.07023Z" fill="white"/>
<path d="M101.921 7.25834C102.297 7.25834 102.618 7.24452 102.936 7.26663C103.032 7.27492 103.138 7.37443 103.207 7.45735C104.089 8.55748 104.963 9.66313 105.839 10.7688C105.878 10.8185 105.897 10.8849 105.925 10.9429L106.036 10.8849C106.036 10.7163 106.036 10.5477 106.036 10.3763C106.036 9.64931 106.036 8.92511 106.036 8.19814C106.036 7.85539 105.975 7.54028 105.588 7.28874H107.095C106.602 7.57898 106.66 7.9853 106.66 8.37505C106.66 9.62997 106.66 10.8821 106.66 12.137V12.524C106.168 12.4245 105.856 12.1426 105.588 11.8053C104.846 10.8766 104.111 9.93955 103.37 9.00803C103.256 8.86706 103.138 8.72886 102.969 8.52431C102.958 8.71227 102.944 8.81454 102.944 8.91958C102.944 9.67696 102.944 10.4371 102.944 11.1945C102.944 11.5759 102.9 11.974 103.284 12.2531H101.902C102.449 11.8468 102.308 11.2967 102.316 10.7854C102.327 9.96166 102.319 9.13518 102.316 8.31147C102.316 7.7393 102.302 7.70336 101.915 7.25281L101.921 7.25834Z" fill="white"/>
<path d="M111.594 8.21767C111.198 8.09052 110.83 7.91638 110.449 7.85833C109.174 7.6676 108.212 8.68757 108.427 9.96184C108.657 11.319 109.73 11.9879 111.057 11.5871C111.358 11.4959 111.646 11.3605 112 11.225C111.859 11.5429 111.765 11.8359 111.607 12.0875C111.533 12.2036 111.345 12.2809 111.193 12.3141C110.443 12.48 109.699 12.4468 108.983 12.151C107.841 11.6811 107.28 10.5506 107.512 9.21552C107.714 8.05735 108.69 7.17835 109.882 7.14795C110.374 7.13412 110.866 7.22811 111.361 7.26957C111.538 7.28339 111.607 7.37184 111.599 7.54875C111.588 7.7754 111.596 8.00483 111.596 8.21767H111.594Z" fill="white"/>
<path d="M101.742 7.23361C101.659 7.54596 101.581 7.84725 101.487 8.19829C101.172 7.7892 100.752 7.85277 100.354 7.8666C100.287 7.8666 100.168 7.99098 100.166 8.06008C100.157 9.25696 100.149 10.4566 100.177 11.6535C100.182 11.847 100.348 12.0377 100.45 12.2422H98.9793C99.3416 11.9548 99.289 11.565 99.289 11.1891C99.289 10.1885 99.2807 9.18785 99.2946 8.18723C99.2973 7.92741 99.2171 7.83895 98.9572 7.85001C98.5341 7.86383 98.1166 7.87765 97.7018 8.13748C97.7875 7.83619 97.8732 7.5349 97.9589 7.23084H101.739L101.742 7.23361Z" fill="white"/>
</svg>
