<svg width="1336" height="480" viewBox="0 0 1336 480" fill="none" xmlns="http://www.w3.org/2000/svg">
<g clip-path="url(#clip0_307_2910)">
<path d="M1240.07 135.576C1243.42 154.052 1230.91 174.73 1204.91 196.355C1178.96 217.942 1139.75 240.307 1090.19 262.146C991.092 305.819 850.738 347.333 692.628 376.323C534.518 405.313 388.627 416.283 280.576 410.592C226.545 407.746 182.011 400.736 150.15 389.749C118.235 378.744 99.2755 363.835 95.926 345.359C92.5765 326.882 105.085 306.204 131.085 284.579C157.04 262.992 196.249 240.627 245.805 218.789C344.908 175.115 485.261 133.601 643.371 104.611C801.481 75.6207 947.372 64.6513 1055.42 70.3424C1109.45 73.1883 1153.99 80.1985 1185.85 91.185C1217.76 102.19 1236.72 117.099 1240.07 135.576Z" stroke="#86A5F6" stroke-width="1.25"/>
</g>
<rect width="181" height="102" transform="translate(252 354)" fill="white"/>
<path d="M272.99 389.542H281.086V387.738H275.806V380.698H289.204V382.876H278.864V385.582H289.6L289.16 387.738H284.254V389.542H292.064L291.624 391.72H272.99V389.542ZM284.936 392.93C287.4 392.93 289.622 393.854 289.622 396.802C289.622 399.772 287.4 400.696 284.936 400.696H280.074C277.61 400.696 275.388 399.772 275.388 396.802C275.388 393.854 277.61 392.93 280.074 392.93H284.936ZM284.826 395.13H280.206C279.216 395.13 278.336 395.548 278.336 396.802C278.336 398.078 279.216 398.496 280.206 398.496H284.826C285.816 398.496 286.674 398.078 286.674 396.802C286.674 395.548 285.816 395.13 284.826 395.13ZM296.973 384.504H300.779V381.116H303.727V391.874L300.779 392.314H294.025V381.116H296.973V384.504ZM309.711 380.17V385.56H312.857L312.417 387.892H309.711V394.448L306.675 394.888V380.61L309.711 380.17ZM309.865 400.212H296.951V394.118H300.009V398.012H310.305L309.865 400.212ZM296.973 390.136H300.779V386.704H296.973V390.136ZM325.775 392.666C328.173 392.666 330.351 393.634 330.351 396.604C330.351 399.596 328.173 400.564 325.775 400.564H321.067C318.581 400.564 316.359 399.596 316.359 396.604C316.359 393.634 318.581 392.666 321.067 392.666H325.775ZM320.935 380.632V384.218C320.935 384.68 321.023 385.186 321.331 385.516C322.695 387.034 324.147 388.376 325.687 389.674L323.927 391.368C322.365 390.114 320.759 388.816 319.417 387.342C318.075 388.882 316.271 390.598 314.665 391.962L312.817 390.356C314.357 388.97 315.985 387.452 317.327 385.692C317.613 385.318 317.811 384.812 317.811 384.35V381.072L320.935 380.632ZM327.073 392.336V385.384H323.399V383.206H327.073V380.61L330.065 380.17V391.896L327.073 392.336ZM325.489 394.844H321.309C320.121 394.844 319.307 395.328 319.307 396.604C319.307 397.902 320.121 398.386 321.309 398.386H325.489C326.589 398.386 327.403 397.902 327.403 396.604C327.403 395.328 326.589 394.844 325.489 394.844ZM345.468 392.666C347.866 392.666 350.044 393.634 350.044 396.604C350.044 399.596 347.866 400.564 345.468 400.564H340.76C338.274 400.564 336.052 399.596 336.052 396.604C336.052 393.634 338.274 392.666 340.76 392.666H345.468ZM344.588 383.316H341.024V384.548C341.024 385.01 341.112 385.516 341.42 385.846C342.784 387.364 344.17 388.662 345.71 389.96L343.95 391.654C342.388 390.4 340.914 389.102 339.528 387.672C338.142 389.19 336.492 390.774 334.886 392.138L333.038 390.532C334.578 389.146 336.162 387.782 337.504 386.022C337.79 385.648 337.988 385.142 337.988 384.68V383.316H334.072V381.116H345.028L344.588 383.316ZM349.758 380.17V385.45H352.926L352.486 387.672H349.758V391.874L346.744 392.314V380.61L349.758 380.17ZM345.182 394.844H341.002C339.814 394.844 339 395.328 339 396.604C339 397.902 339.814 398.386 341.002 398.386H345.182C346.282 398.386 347.096 397.902 347.096 396.604C347.096 395.328 346.282 394.844 345.182 394.844ZM364.084 379.664V382.062H369.782L369.342 384.262H364.084V384.592C364.084 385.12 364.128 385.626 364.48 385.824C366.196 386.814 368.748 388.068 370.838 389.014L369.43 390.95C367.318 390.048 364.37 388.64 362.632 387.694C360.894 388.684 358.166 390.026 355.79 391.082L354.36 389.168C356.692 388.112 358.87 387.034 360.564 385.956C360.916 385.736 361.048 385.208 361.048 384.68V384.262H355.636V382.062H361.048V380.104L364.084 379.664ZM371.718 394.25H364.304V400.036L361.224 400.476V394.25H353.084V392.05H372.158L371.718 394.25ZM384.833 383.47H381.291V385.868C381.291 386.33 381.379 386.836 381.687 387.166C383.051 388.684 384.437 389.982 385.977 391.28L384.217 392.974C382.655 391.72 381.181 390.422 379.795 388.992C378.409 390.51 376.759 392.094 375.153 393.458L373.305 391.852C374.845 390.466 376.429 389.102 377.771 387.342C378.057 386.968 378.255 386.462 378.255 386V383.47H374.295V381.292H385.273L384.833 383.47ZM390.355 380.17V394.184L387.363 394.624V380.61L390.355 380.17ZM390.487 400.212H377.573V393.854H380.631V398.012H390.927L390.487 400.212ZM406.463 388.508V390.686C404.747 391.082 402.305 391.192 400.105 391.192H394.671V381.028H404.703V383.228H397.729V384.988H404.527V387.166H397.729V389.014H400.369C402.151 389.014 404.439 388.926 406.463 388.508ZM410.357 380.17V391.874L407.365 392.314V380.61L410.357 380.17ZM410.357 393.084V399.75L407.321 400.3H397.355V393.084H410.357ZM400.391 398.1H407.321V395.284H400.391V398.1Z" fill="#2856CE"/>
<path d="M290.906 419.453C290.898 421.797 292.438 424.219 294.594 425.141L293.781 426.297C292.133 425.57 290.82 424.023 290.172 422.156C289.523 424.156 288.211 425.859 286.578 426.656L285.719 425.484C287.828 424.492 289.391 421.867 289.406 419.453V417.969H286.203V416.734H294.094V417.969H290.906V419.453ZM295.859 429.328V415.328H297.344V429.328H295.859ZM311.219 415.344V425.953H309.734V424.609H306.922V423.562H309.734V415.344H311.219ZM299.516 421.734C302.102 421.711 305.594 421.688 308.578 421.312L308.672 422.375C307.477 422.578 306.219 422.703 304.984 422.789V425.516H303.5V422.867C302.141 422.922 300.836 422.922 299.703 422.922L299.516 421.734ZM300.609 418.344C300.602 416.859 302.016 415.875 304.094 415.875C306.141 415.875 307.562 416.859 307.562 418.344C307.562 419.836 306.141 420.781 304.094 420.781C302.023 420.781 300.602 419.836 300.609 418.344ZM301.453 429.031V424.922H302.922V427.828H311.562V429.031H301.453ZM302.016 418.344C302.008 419.172 302.852 419.688 304.094 419.688C305.289 419.688 306.148 419.172 306.156 418.344C306.148 417.508 305.289 416.969 304.094 416.984C302.852 416.969 302.008 417.508 302.016 418.344ZM326.219 426.328V427.578H313.406V426.328H326.219ZM314.5 417.891V416.672H325.047V417.891H322.906V422.562H325V423.75H314.531V422.562H316.625V417.891H314.5ZM318.094 422.562H321.453V417.891H318.094V422.562ZM340.047 426.406V427.656H327.234V426.406H332.875V423.953H328.797V419.5H337.016V417.531H328.766V416.312H338.484V420.688H330.266V422.734H338.812V423.953H334.344V426.406H340.047ZM352.156 416.75V418.25C352.156 420.062 352.156 422.023 351.641 425.016L350.125 424.875C350.688 422.07 350.688 420.016 350.688 418.25V417.969H342.438V416.75H352.156ZM341.062 427.344V426.109H353.828V427.344H341.062ZM366.828 415.344V423.656H365.422V420.016H363.703V423.5H362.312V415.594H363.703V418.797H365.422V415.344H366.828ZM355.484 417.406V416.219H360.797V420.156H356.953V421.906C358.688 421.898 360.008 421.82 361.547 421.516L361.703 422.703C359.938 423.031 358.484 423.078 356.438 423.078H355.516V419.016H359.375V417.406H355.484ZM357.469 429.156V424.281H366.828V429.156H357.469ZM358.953 427.953H365.375V425.469H358.953V427.953ZM385.422 422.344V423.547H379.875V426.266H378.375V423.547H372.609V422.344H385.422ZM374.016 418.5C374.008 416.75 375.992 415.664 379 415.656C382.008 415.664 383.977 416.75 383.969 418.5C383.977 420.242 382.008 421.328 379 421.328C375.992 421.328 374.008 420.242 374.016 418.5ZM374.219 429.031V424.922H375.703V427.812H384V429.031H374.219ZM375.609 418.5C375.594 419.508 376.953 420.125 379 420.125C381.055 420.125 382.398 419.508 382.406 418.5C382.398 417.461 381.055 416.852 379 416.844C376.953 416.852 375.594 417.461 375.609 418.5ZM390.328 416.141C391.492 416.133 392.484 416.57 393.141 417.297H396.641V415.328H398.125V423.594H396.641V421.703H393.133C392.477 422.422 391.484 422.852 390.328 422.844C388.219 422.852 386.648 421.453 386.656 419.5C386.648 417.523 388.219 416.133 390.328 416.141ZM388.078 419.5C388.07 420.727 389.016 421.594 390.328 421.578C391.602 421.594 392.547 420.727 392.547 419.5C392.547 418.242 391.602 417.406 390.328 417.422C389.016 417.406 388.07 418.242 388.078 419.5ZM388.703 426.609C388.695 424.898 390.508 423.898 393.438 423.906C396.352 423.898 398.164 424.898 398.172 426.609C398.164 428.312 396.352 429.305 393.438 429.297C390.508 429.305 388.695 428.312 388.703 426.609ZM390.156 426.609C390.148 427.57 391.383 428.133 393.438 428.125C395.492 428.133 396.719 427.57 396.719 426.609C396.719 425.609 395.492 425.055 393.438 425.047C391.383 425.055 390.148 425.609 390.156 426.609ZM393.82 418.484C393.914 418.797 393.969 419.141 393.969 419.5C393.969 419.844 393.914 420.18 393.82 420.484H396.641V418.484H393.82Z" fill="#737373"/>
<circle cx="252" cy="408" r="5" fill="#224193"/>
<rect width="233" height="102" transform="translate(892 22)" fill="white"/>
<path d="M921.271 51.778H914.451V49.6H924.439V51.162C924.439 57.146 920.259 61.898 915.441 64.098L913.637 62.14C917.839 60.38 921.271 55.98 921.271 52.152V51.778ZM930.027 48.17V67.86L927.035 68.3V48.61L930.027 48.17ZM951.458 58.51H944.088V59.962H948.972V65.154H938.742V66.342H949.654L949.214 68.388H935.684V63.196H945.936V61.986H935.64V59.962H940.92V58.51H932.824V56.376H951.898L951.458 58.51ZM943.934 48.148V49.402C943.934 49.864 943.956 50.502 944.33 50.744C945.936 51.778 949.016 53.296 950.732 53.978L949.368 55.914C947.344 55.1 944.33 53.604 942.35 52.438C940.392 53.626 937.246 55.144 935.354 55.892L933.99 54.022C935.948 53.274 938.654 51.998 940.326 50.854C940.744 50.568 940.788 50.062 940.788 49.6V48.588L943.934 48.148ZM970.095 60.578V67.75L967.059 68.3H957.093V60.578H960.151V62.536H967.059V60.578H970.095ZM954.079 55.672C954.079 53.296 956.345 52.064 959.095 52.064C961.845 52.064 964.111 53.296 964.111 55.672V56.112C964.111 58.488 961.845 59.786 959.095 59.786C956.345 59.786 954.079 58.488 954.079 56.112V55.672ZM964.507 52.9H967.103V48.61L970.095 48.17V59.368L967.103 59.808V58.598H964.507V56.508H967.103V54.924H964.507V52.9ZM964.727 51.624H953.023V49.468H957.467V48.038L960.503 47.598V49.468H965.167L964.727 51.624ZM961.251 55.76C961.251 54.77 960.305 54.132 959.095 54.132C957.885 54.132 956.939 54.77 956.939 55.76V56.024C956.939 56.992 957.885 57.718 959.095 57.718C960.305 57.718 961.251 56.992 961.251 56.024V55.76ZM960.151 66.144H967.059V64.692H960.151V66.144ZM980.241 53.362V51.36H974.411V49.16H983.211V55.518H977.469V57.696H978.613C980.615 57.696 983.651 57.564 985.763 57.19V59.368C983.519 59.764 980.373 59.896 978.371 59.896H974.411V53.362H980.241ZM990.097 48.17V60.358L987.105 60.798V56.574H984.091V54.396H987.105V52.636H984.091V50.458H987.105V48.61L990.097 48.17ZM976.919 61.348H990.097V68.256L987.061 68.696V63.526H976.919V61.348ZM1000.4 48.896H1010.04V57.564L1007.07 58.004H1000.4V48.896ZM1016.33 63.13L1011.12 63.152C1011.12 63.548 1011.16 63.966 1011.51 64.142C1013.36 65.22 1015.16 66.1 1017.39 67.09L1015.98 68.938C1013.76 68.014 1011.49 66.936 1009.64 65.946C1007.95 66.892 1005.53 68.124 1003.31 69.092L1001.85 67.266C1004.23 66.254 1005.95 65.286 1007.6 64.296C1007.95 64.098 1008.06 63.592 1008.08 63.152H1002.6V61.062H1008.08V59.236L1011.12 58.796V61.062H1016.77L1016.33 63.13ZM1016.26 48.17V59.28L1013.29 59.72V48.61L1016.26 48.17ZM1007.07 51.096H1003.37V55.87H1007.07V51.096ZM1039.51 62.888V57.74H1035.94V57.014C1035.06 58.576 1033.24 59.39 1031.23 59.39C1028.46 59.39 1026 57.806 1026 54.858V53.582C1026 50.634 1028.46 49.05 1031.23 49.05C1033.24 49.05 1035.06 49.886 1035.94 51.448V50.612H1039.51V48.61L1042.48 48.17V62.448L1039.51 62.888ZM1042.63 68.212H1029.72V61.854H1032.77V66.012H1043.07L1042.63 68.212ZM1033.5 54.77V53.67C1033.5 52.13 1032.55 51.25 1031.23 51.25C1029.91 51.25 1028.97 52.13 1028.97 53.67V54.77C1028.97 56.31 1029.91 57.19 1031.23 57.19C1032.55 57.19 1033.5 56.31 1033.5 54.77ZM1036.47 54.858C1036.47 55.1 1036.45 55.342 1036.4 55.562H1039.51V52.812H1036.4C1036.45 53.054 1036.47 53.318 1036.47 53.582V54.858ZM1045.27 57.784H1057.7C1058.08 55.958 1058.47 53.164 1058.56 51.316H1047.61V49.116H1061.75C1061.66 51.558 1061.42 54.902 1060.78 57.784H1064.35L1063.91 59.962H1056.49V68.036L1053.41 68.476V59.962H1045.27V57.784ZM1071.21 51.382H1078.41V48.698H1081.44V57.454L1078.41 58.004H1068.16V48.698H1071.21V51.382ZM1084.37 59.808L1083.93 61.986H1076.52V68.036L1073.44 68.476V61.986H1065.3V59.808H1084.37ZM1071.21 55.804H1078.41V53.582H1071.21V55.804ZM1102.55 48.17V67.86L1099.55 68.3V56.112H1095.51V53.89H1099.55V48.61L1102.55 48.17ZM1093.26 49.182V54.968C1093.26 55.43 1093.37 55.914 1093.64 56.266C1094.78 57.806 1096.5 59.918 1097.99 61.59L1096.23 63.284C1094.69 61.656 1092.84 59.588 1091.72 58.092C1090.42 59.742 1088.51 62.074 1086.95 63.768L1085.1 62.162C1086.6 60.424 1088.38 58.312 1089.68 56.442C1089.94 56.068 1090.14 55.562 1090.14 55.1V49.622L1093.26 49.182Z" fill="#2856CE"/>
<path d="M938.742 83.3281V97.3281H937.242V83.3281H938.742ZM927.242 93.5781C930.961 91.8047 932.781 89.2812 933.07 86.0156H927.914V84.8281H934.57C934.57 88.9297 932.828 92.4766 928.023 94.7812L927.242 93.5781ZM948.07 83.8594C948.078 85.4688 950.297 86.8203 953.023 87.125L952.508 88.25C950.211 87.9688 948.203 87 947.305 85.5703C946.398 87 944.391 87.9688 942.117 88.25L941.602 87.125C944.336 86.8203 946.547 85.4688 946.555 83.8594V83.3906H948.07V83.8594ZM940.93 90.25V89.0625H953.695V90.25H948.039V91.5H952.086V94.8125H943.93V96.0469H952.477V97.1875H942.477V93.7344H950.617V92.6406H942.461V91.5H946.555V90.25H940.93ZM962.648 84.6719V85.8594H954.773V84.6719H958.055V83.2031H959.523V84.6719H962.648ZM955.555 88.9844C955.555 87.4766 956.867 86.4609 958.773 86.4531C960.656 86.4609 962 87.4766 962.008 88.9844C962 90.5078 960.656 91.5078 958.773 91.5156C956.867 91.5078 955.555 90.5078 955.555 88.9844ZM956.945 88.9844C956.938 89.8516 957.664 90.4062 958.773 90.4062C959.867 90.4062 960.617 89.8516 960.633 88.9844C960.617 88.1328 959.867 87.5859 958.773 87.5938C957.664 87.5859 956.938 88.1328 956.945 88.9844ZM957.211 97.1562V92.1875H958.68V93.5156H964.961V92.1875H966.43V97.1562H957.211ZM958.68 95.9844H964.961V94.6562H958.68V95.9844ZM962.68 90.4531V89.25H964.945V87.7188H962.695V86.5H964.945V83.3281H966.43V91.625H964.945V90.4531H962.68ZM975.258 84.1719V88.25H970.633V90.1875C973.07 90.1875 974.398 90.1328 975.977 89.8438L976.117 91.0469C974.406 91.3359 972.969 91.3828 970.18 91.3906H969.164V87.125H973.773V85.3594H969.148V84.1719H975.258ZM970.758 93.8594V92.6562H980.258V97.3438H978.773V93.8594H970.758ZM976.148 89.4844V88.2969H978.773V86.5625H976.148V85.375H978.773V83.3438H980.258V91.9531H978.773V89.4844H976.148ZM993.711 84.2188V89.9688H987.055V84.2188H993.711ZM987.977 96.1406C990.523 95.8906 992.516 94.6172 992.617 93.3594H988.539V92.2344H992.648V90.9219H994.117V92.2344H998.242V93.3594H994.148C994.25 94.5781 996.195 95.8594 998.742 96.1406L998.242 97.2812C996.047 97.0156 994.234 96.0781 993.391 94.8438C992.531 96.0938 990.695 97.0156 988.492 97.2812L987.977 96.1406ZM988.508 88.8125H992.242V85.4062H988.508V88.8125ZM996.445 91.3281V83.3281H997.914V91.3281H996.445ZM1010.37 92.125C1013.4 92.125 1015.31 93.0859 1015.32 94.7188C1015.31 96.3438 1013.4 97.3047 1010.37 97.2969C1007.37 97.3047 1005.45 96.3438 1005.45 94.7188C1005.45 93.0859 1007.37 92.125 1010.37 92.125ZM1004.07 90.9688V89.7656H1009.18V87.1406H1010.63V89.7656H1016.8V90.9688H1004.07ZM1005.55 85.2031V84.0156H1015.21V85.1875C1015.22 86.3047 1015.22 87.4609 1014.82 88.9062L1013.37 88.75C1013.74 87.3203 1013.74 86.2891 1013.74 85.2031H1005.55ZM1006.93 94.7188C1006.91 95.625 1008.25 96.1484 1010.37 96.1562C1012.51 96.1484 1013.84 95.625 1013.85 94.7188C1013.84 93.7969 1012.51 93.2578 1010.37 93.25C1008.25 93.2578 1006.91 93.7969 1006.93 94.7188ZM1030.66 90.1406V91.3281H1017.88V90.1406H1023.55V88.6562H1019.48V83.9688H1029.09V85.1406H1020.95V87.4688H1029.18V88.6562H1024.99V90.1406H1030.66ZM1019.4 94.7812C1019.4 93.1562 1021.22 92.2422 1024.26 92.2344C1027.27 92.2422 1029.08 93.1562 1029.09 94.7812C1029.08 96.4062 1027.27 97.3203 1024.26 97.3281C1021.22 97.3203 1019.4 96.4062 1019.4 94.7812ZM1020.9 94.7812C1020.89 95.6797 1022.12 96.1719 1024.26 96.1562C1026.37 96.1719 1027.6 95.6797 1027.6 94.7812C1027.6 93.8984 1026.37 93.3906 1024.26 93.3906C1022.12 93.3906 1020.89 93.8984 1020.9 94.7812ZM1043.38 83.3438V93.6562H1041.9V90.0156H1038.42C1037.77 90.8047 1036.75 91.2812 1035.59 91.2812C1033.48 91.2812 1031.91 89.8047 1031.91 87.75C1031.91 85.6797 1033.48 84.2031 1035.59 84.1875C1036.74 84.1953 1037.75 84.6719 1038.41 85.4531H1041.9V83.3438H1043.38ZM1033.34 87.75C1033.33 89.0703 1034.27 89.9766 1035.59 89.9688C1036.84 89.9766 1037.8 89.0703 1037.8 87.75C1037.8 86.4297 1036.84 85.5234 1035.59 85.5156C1034.27 85.5234 1033.33 86.4297 1033.34 87.75ZM1034.29 97.0312V92.5781H1035.77V95.8281H1043.76V97.0312H1034.29ZM1039.06 86.6562C1039.17 87 1039.23 87.3594 1039.23 87.75C1039.23 88.125 1039.17 88.4844 1039.07 88.8125H1041.9V86.6562H1039.06ZM1056.68 84.2031V85.4375C1056.68 86.7656 1056.68 88.2109 1056.29 90.2031H1058.3V91.4219H1052.63V97.3438H1051.13V91.4219H1045.54V90.2031H1054.79C1055.2 88.2031 1055.2 86.7422 1055.21 85.4375V85.4219H1047.1V84.2031H1056.68ZM1068.46 86.25C1068.46 88.0625 1069.8 89.7656 1071.96 90.4531L1071.2 91.6094C1069.59 91.0781 1068.38 89.9766 1067.73 88.5781C1067.11 90.1016 1065.86 91.3047 1064.2 91.8906L1063.43 90.7188C1065.61 89.9766 1066.95 88.1641 1066.96 86.25V85.6406H1063.82V84.4375H1071.54V85.6406H1068.46V86.25ZM1065.73 97.0312V92.5938H1067.23V95.8281H1075.3V97.0312H1065.73ZM1073.4 93.5625V83.3438H1074.88V93.5625H1073.4ZM1089.04 83.3281V92.1562H1087.63V88.25H1086.01V91.6719H1084.62V83.5938H1086.01V87.0312H1087.63V83.3281H1089.04ZM1077.02 86.0938V84.9219H1079.85V83.4375H1081.32V84.9219H1084.1V86.0938H1077.02ZM1077.57 89.1562C1077.57 87.7031 1078.82 86.75 1080.57 86.75C1082.36 86.75 1083.6 87.7031 1083.6 89.1562C1083.6 90.6094 1082.36 91.5625 1080.57 91.5625C1078.82 91.5625 1077.57 90.6094 1077.57 89.1562ZM1078.9 89.1562C1078.9 89.9531 1079.58 90.4766 1080.57 90.4844C1081.58 90.4766 1082.27 89.9531 1082.26 89.1562C1082.27 88.3594 1081.58 87.8359 1080.57 87.8438C1079.58 87.8359 1078.9 88.3594 1078.9 89.1562ZM1079.62 94.8438C1079.6 93.2578 1081.38 92.3594 1084.35 92.3594C1087.33 92.3594 1089.11 93.2578 1089.12 94.8438C1089.11 96.4141 1087.33 97.3047 1084.35 97.2969C1081.38 97.3047 1079.6 96.4141 1079.62 94.8438ZM1081.09 94.8438C1081.07 95.6875 1082.27 96.1719 1084.35 96.1562C1086.44 96.1719 1087.62 95.6875 1087.63 94.8438C1087.62 93.9609 1086.44 93.4922 1084.35 93.5C1082.27 93.4922 1081.07 93.9609 1081.09 94.8438Z" fill="#737373"/>
<circle cx="1114" cy="76" r="5" fill="#224193"/>
<rect width="110" height="102" transform="translate(342 97)" fill="white"/>
<path d="M389.011 128.12C391.497 128.12 393.719 129 393.719 131.904C393.719 134.808 391.497 135.688 389.011 135.688H385.139C382.653 135.688 380.431 134.808 380.431 131.904C380.431 129 382.653 128.12 385.139 128.12H389.011ZM385.183 136.37V138.746H389.011V136.37H392.069V138.746H396.623L396.183 140.968H377.549V138.746H382.125V136.37H385.183ZM394.379 127.284H379.551V125.128H385.513V123.324L388.549 122.884V125.128H394.819L394.379 127.284ZM388.747 130.232H385.403C384.281 130.232 383.379 130.694 383.379 131.904C383.379 133.114 384.281 133.576 385.403 133.576H388.747C389.869 133.576 390.771 133.114 390.771 131.904C390.771 130.694 389.869 130.232 388.747 130.232ZM410.31 135.666C412.708 135.666 414.886 136.634 414.886 139.604C414.886 142.596 412.708 143.564 410.31 143.564H405.602C403.116 143.564 400.894 142.596 400.894 139.604C400.894 136.634 403.116 135.666 405.602 135.666H410.31ZM405.47 123.632V127.218C405.47 127.68 405.558 128.186 405.866 128.516C407.23 130.034 408.682 131.376 410.222 132.674L408.462 134.368C406.9 133.114 405.294 131.816 403.952 130.342C402.61 131.882 400.806 133.598 399.2 134.962L397.352 133.356C398.892 131.97 400.52 130.452 401.862 128.692C402.148 128.318 402.346 127.812 402.346 127.35V124.072L405.47 123.632ZM411.608 135.336V128.384H407.934V126.206H411.608V123.61L414.6 123.17V134.896L411.608 135.336ZM410.024 137.844H405.844C404.656 137.844 403.842 138.328 403.842 139.604C403.842 140.902 404.656 141.386 405.844 141.386H410.024C411.124 141.386 411.938 140.902 411.938 139.604C411.938 138.328 411.124 137.844 410.024 137.844Z" fill="#2856CE"/>
<path d="M375.07 160.312H370.055V158.531H368.586V160.312H363.555V161.516H375.07V160.312ZM362.945 170.781H375.758V169.578H372.398V167.078C373.414 166.633 373.984 165.914 373.977 164.969C373.984 163.297 372.188 162.312 369.32 162.328C366.43 162.312 364.641 163.297 364.648 164.969C364.641 165.914 365.211 166.633 366.227 167.078V169.578H362.945V170.781ZM366.164 164.969C366.148 164.016 367.32 163.477 369.32 163.469C371.289 163.477 372.469 164.016 372.461 164.969C372.469 165.914 371.289 166.453 369.32 166.453C367.32 166.453 366.148 165.914 366.164 164.969ZM367.711 169.578V167.492C368.195 167.57 368.734 167.609 369.32 167.609C369.906 167.609 370.453 167.57 370.945 167.492V169.578H367.711ZM381.742 160.422V159.109H380.273V160.484C380.258 162.586 378.961 164.453 376.727 165.219L377.523 166.406C379.219 165.797 380.438 164.539 381.039 162.938C381.648 164.344 382.781 165.422 384.32 165.984L385.133 164.828C383.008 164.133 381.734 162.383 381.742 160.422ZM379.023 169.656C379.016 171.344 380.812 172.305 383.758 172.297C386.688 172.305 388.484 171.344 388.492 169.656C388.484 167.961 386.688 166.977 383.758 166.984C380.812 166.977 379.016 167.961 379.023 169.656ZM380.492 169.656C380.484 168.695 381.703 168.141 383.758 168.141C385.797 168.141 387.016 168.695 387.023 169.656C387.016 170.586 385.797 171.133 383.758 171.125C381.703 171.133 380.484 170.586 380.492 169.656ZM384.008 162.391H386.961V166.594H388.445V158.328H386.961V161.172H384.008V162.391ZM398.383 159.562H391.461V169.016H392.602C395.242 169.008 397.164 168.938 399.383 168.578L399.227 167.375C397.148 167.711 395.375 167.797 392.93 167.812V164.672H397.852V163.484H392.93V160.781H398.383V159.562ZM400.742 172.328H402.242V158.328H400.742V172.328ZM407.758 159.406C405.891 159.406 404.547 160.828 404.555 162.844C404.547 164.859 405.891 166.281 407.758 166.266C409.609 166.281 410.977 164.859 410.977 162.844C410.977 160.828 409.609 159.406 407.758 159.406ZM405.883 162.844C405.875 161.555 406.672 160.664 407.758 160.672C408.836 160.664 409.617 161.555 409.633 162.844C409.617 164.141 408.836 165.016 407.758 165.016C406.672 165.016 405.875 164.141 405.883 162.844ZM407.086 172.031H416.773V170.828H408.555V167.438H407.086V172.031ZM411.945 168.328H413.336V163.594H414.961V168.828H416.367V158.344H414.961V162.375H413.336V158.594H411.945V168.328ZM430.086 158.328H428.586V172.328H430.086V158.328ZM418.023 168.125L418.992 169.141C419.969 168.391 420.562 167.219 420.898 165.914C421.227 167.273 421.836 168.531 422.883 169.297C423.93 168.531 424.539 167.281 424.867 165.914C425.211 167.25 425.812 168.445 426.836 169.188L427.758 168.125C426.008 166.859 425.578 164.438 425.586 162.469V159.531H424.164V162.469C424.156 164.008 423.922 165.969 422.883 167.359C421.828 165.938 421.594 163.945 421.586 162.469V159.531H420.211V162.469C420.195 164.383 419.773 166.82 418.023 168.125Z" fill="#737373"/>
<circle cx="452" cy="148" r="5" fill="#224193"/>
<rect width="267" height="102" transform="translate(837 291)" fill="white"/>
<path d="M874.492 317.17V324.694H877.66L877.22 327.158H874.492V336.86L871.478 337.3V317.61L874.492 317.17ZM865.538 318.182V323.968C865.538 324.43 865.67 324.914 865.934 325.266C867.078 326.806 868.816 328.918 870.312 330.59L868.552 332.284C867.012 330.656 865.142 328.588 864.02 327.092C862.722 328.742 860.83 331.074 859.268 332.768L857.42 331.162C858.916 329.424 860.676 327.312 861.974 325.442C862.238 325.068 862.458 324.562 862.458 324.1V318.622L865.538 318.182ZM892.14 321.438V317.61L895.11 317.17V328.06L892.14 328.5V323.682H889.17C888.818 326.234 886.486 327.576 883.868 327.576C881.03 327.576 878.522 325.992 878.522 323.044V322.142C878.522 319.194 881.03 317.61 883.868 317.61C886.464 317.61 888.796 318.952 889.148 321.438H892.14ZM895.11 336.75L892.14 337.3H882.13V329.05H885.188V331.118H892.096V329.05H895.11V336.75ZM886.244 322.956V322.23C886.244 320.69 885.21 319.81 883.868 319.81C882.526 319.81 881.492 320.69 881.492 322.23V322.956C881.492 324.496 882.526 325.376 883.868 325.376C885.21 325.376 886.244 324.496 886.244 322.956ZM885.188 335.144H892.096V333.252H885.188V335.144ZM899.799 325.178C899.799 323.132 901.757 321.482 904.815 321.482C907.873 321.482 909.831 323.132 909.831 325.178V325.882C909.831 327.51 908.577 328.896 906.531 329.402V331.602C908.137 331.514 909.919 331.36 911.349 331.118V333.296C908.203 333.736 904.837 333.868 901.449 333.868H898.545V331.668H903.429V329.468C901.163 329.05 899.799 327.598 899.799 325.882V325.178ZM912.163 317.61L915.133 317.17V336.86L912.163 337.3V317.61ZM910.447 321.042H898.853V318.842H903.297V317.39L906.333 316.95V318.842H910.887L910.447 321.042ZM906.971 325.376C906.971 324.298 906.091 323.572 904.815 323.572C903.539 323.572 902.659 324.298 902.659 325.376V325.684C902.659 326.762 903.539 327.488 904.815 327.488C906.091 327.488 906.971 326.762 906.971 325.684V325.376ZM934.562 317.17V324.694H937.73L937.29 327.158H934.562V336.86L931.548 337.3V317.61L934.562 317.17ZM925.608 318.182V323.968C925.608 324.43 925.74 324.914 926.004 325.266C927.148 326.806 928.886 328.918 930.382 330.59L928.622 332.284C927.082 330.656 925.212 328.588 924.09 327.092C922.792 328.742 920.9 331.074 919.338 332.768L917.49 331.162C918.986 329.424 920.746 327.312 922.044 325.442C922.308 325.068 922.528 324.562 922.528 324.1V318.622L925.608 318.182ZM952.188 327.774V325.574H949.218V326.806L946.248 327.246H939.318V317.698H942.288V320.514H946.248V317.698H949.218V319.524H952.188V317.61L955.18 317.17V327.334L952.188 327.774ZM955.312 337.388H942.178V331.91H952.144V330.634H942.134V328.544H955.18V333.934H945.214V335.298H955.752L955.312 337.388ZM942.288 325.046H946.248V322.714H942.288V325.046ZM949.218 321.724V323.396H952.188V321.724H949.218ZM964.143 326.784H976.573C976.947 324.958 977.343 322.164 977.431 320.316H966.475V318.116H980.621C980.533 320.558 980.291 323.902 979.653 326.784H983.217L982.777 328.962H975.363V337.036L972.283 337.476V328.962H964.143V326.784ZM997.323 317.478V323.66H998.885V317.61L1001.66 317.17V336.86L998.885 337.3V325.882H997.323V336.222L994.595 336.662V317.918L997.323 317.478ZM992.923 331.316L990.129 331.756H985.201V318.6H992.923V331.316ZM990.129 329.578V320.778H987.995V329.578H990.129ZM1016.36 318.292L1015.92 320.47H1012.37V322.868C1012.37 323.33 1012.46 323.836 1012.77 324.166C1014.13 325.684 1015.52 326.982 1017.06 328.28L1015.3 329.974C1013.74 328.72 1012.26 327.422 1010.88 325.992C1009.49 327.51 1007.84 329.094 1006.24 330.458L1004.39 328.852C1005.93 327.466 1007.51 326.102 1008.85 324.342C1009.14 323.968 1009.34 323.462 1009.34 323V320.47H1005.38V318.292H1016.36ZM1018.45 331.888V324.562H1014.68V322.362H1018.45V317.61L1021.44 317.17V331.448L1018.45 331.888ZM1021.57 337.212H1008.66V330.854H1011.71V335.012H1022.01L1021.57 337.212ZM1040.89 329.578V336.75L1037.83 337.3H1027.91V329.578H1040.89ZM1037 324.386V326.564C1035.21 326.916 1032.53 327.18 1029.8 327.18H1025.56V318.028H1035.04V320.228H1028.61V324.98H1030.55C1032.71 324.98 1035.41 324.716 1037 324.386ZM1040.89 317.17V321.548H1044.06L1043.62 323.748H1040.89V328.368L1037.88 328.808V317.61L1040.89 317.17ZM1030.95 335.1H1037.83V331.756H1030.95V335.1ZM1050.16 320.382H1057.35V317.698H1060.39V326.454L1057.35 327.004H1047.1V317.698H1050.16V320.382ZM1063.31 328.808L1062.87 330.986H1055.46V337.036L1052.38 337.476V330.986H1044.24V328.808H1063.31ZM1050.16 324.804H1057.35V322.582H1050.16V324.804ZM1081.49 317.17V336.86L1078.49 337.3V325.112H1074.45V322.89H1078.49V317.61L1081.49 317.17ZM1072.2 318.182V323.968C1072.2 324.43 1072.31 324.914 1072.58 325.266C1073.72 326.806 1075.44 328.918 1076.93 330.59L1075.17 332.284C1073.63 330.656 1071.78 328.588 1070.66 327.092C1069.36 328.742 1067.45 331.074 1065.89 332.768L1064.04 331.162C1065.54 329.424 1067.32 327.312 1068.62 325.442C1068.88 325.068 1069.08 324.562 1069.08 324.1V318.622L1072.2 318.182Z" fill="#2856CE"/>
<path d="M903.906 353.672V354.859H896.031V353.672H899.312V352.203H900.781V353.672H903.906ZM896.812 357.984C896.812 356.477 898.125 355.461 900.031 355.453C901.914 355.461 903.258 356.477 903.266 357.984C903.258 359.508 901.914 360.508 900.031 360.516C898.125 360.508 896.812 359.508 896.812 357.984ZM898.203 357.984C898.195 358.852 898.922 359.406 900.031 359.406C901.125 359.406 901.875 358.852 901.891 357.984C901.875 357.133 901.125 356.586 900.031 356.594C898.922 356.586 898.195 357.133 898.203 357.984ZM898.469 366.156V361.188H899.938V362.516H906.219V361.188H907.688V366.156H898.469ZM899.938 364.984H906.219V363.656H899.938V364.984ZM903.938 359.453V358.25H906.203V356.719H903.953V355.5H906.203V352.328H907.688V360.625H906.203V359.453H903.938ZM916.516 353.172V357.25H911.891V359.188C914.328 359.188 915.656 359.133 917.234 358.844L917.375 360.047C915.664 360.336 914.227 360.383 911.438 360.391H910.422V356.125H915.031V354.359H910.406V353.172H916.516ZM912.016 362.859V361.656H921.516V366.344H920.031V362.859H912.016ZM917.406 358.484V357.297H920.031V355.562H917.406V354.375H920.031V352.344H921.516V360.953H920.031V358.484H917.406ZM928.531 355.891C928.516 358.367 929.961 360.906 932.047 361.922L931.125 363.109C929.602 362.312 928.422 360.75 927.805 358.883C927.18 360.867 925.953 362.547 924.359 363.375L923.438 362.172C925.586 361.141 927.039 358.453 927.047 355.891V353.5H928.531V355.891ZM933.094 366.328V352.328H934.578V357.906H936.828V359.172H934.578V366.328H933.094ZM953.438 352.328V366.328H952.031V352.328H953.438ZM941.328 362.281C944.305 360.516 945.727 358.164 945.984 355.281H942.016V354.062H947.453C947.453 354.781 947.398 355.477 947.289 356.156H949.172V352.688H950.578V365.641H949.172V360.875H946.781V359.656H949.172V357.375H947.016C946.336 359.727 944.844 361.773 942.203 363.344L941.328 362.281ZM968.219 354.375V355.594H966.234V357.375H968.219V358.625H966.234V360.625H964.75V352.328H966.234V354.375H968.219ZM955.453 356.484C955.438 354.523 957.031 353.141 959.172 353.141C961.32 353.141 962.891 354.523 962.906 356.484C962.891 358.461 961.32 359.828 959.172 359.828C957.031 359.828 955.438 358.461 955.453 356.484ZM956.906 356.484C956.891 357.742 957.859 358.578 959.172 358.562C960.484 358.578 961.445 357.742 961.453 356.484C961.445 355.234 960.484 354.414 959.172 354.406C957.859 354.414 956.891 355.234 956.906 356.484ZM956.984 362.453V361.25H966.234V366.328H964.75V362.453H956.984ZM980.359 353.219V358.969H973.703V353.219H980.359ZM974.625 365.141C977.172 364.891 979.164 363.617 979.266 362.359H975.188V361.234H979.297V359.922H980.766V361.234H984.891V362.359H980.797C980.898 363.578 982.844 364.859 985.391 365.141L984.891 366.281C982.695 366.016 980.883 365.078 980.039 363.844C979.18 365.094 977.344 366.016 975.141 366.281L974.625 365.141ZM975.156 357.812H978.891V354.406H975.156V357.812ZM983.094 360.328V352.328H984.562V360.328H983.094ZM1001.84 353.203V354.438C1001.84 355.766 1001.84 357.211 1001.45 359.203H1003.47V360.422H997.797V366.344H996.297V360.422H990.703V359.203H999.953C1000.37 357.203 1000.37 355.742 1000.38 354.438V354.422H992.266V353.203H1001.84ZM1016.58 352.328V366.328H1015.16V359.031H1013.42V365.641H1012.02V352.594H1013.42V357.812H1015.16V352.328H1016.58ZM1005 362.641V353.906H1010.44V362.641H1005ZM1006.41 361.453H1009.05V355.078H1006.41V361.453ZM1026.16 353.391V354.172C1026.14 355.109 1026.14 356.5 1025.8 358.312L1024.33 358.172C1024.63 356.625 1024.68 355.492 1024.7 354.609H1019.09V353.391H1026.16ZM1018.25 359.516C1019.11 359.516 1020.09 359.508 1021.11 359.484V356.531H1022.58V359.438C1024.08 359.375 1025.62 359.266 1027.03 359.062L1027.12 360.141C1024.2 360.656 1020.86 360.711 1018.39 360.719L1018.25 359.516ZM1020.38 366.031V361.891H1021.86V364.828H1029.89V366.031H1020.38ZM1027.92 362.844V352.328H1029.44V356.781H1031.36V358.031H1029.44V362.844H1027.92ZM1043.81 352.328V366.359H1042.33V352.328H1043.81ZM1032.97 354.797V353.594H1039.53V358.703H1034.5V361.766C1036.77 361.758 1038.75 361.648 1041.09 361.266L1041.23 362.484C1038.76 362.898 1036.65 362.992 1034.17 363H1032.98V357.516H1038.02V354.797H1032.97Z" fill="#737373"/>
<circle cx="838" cy="345" r="5" fill="#224193"/>
<path d="M639.711 219.372V228.5L635.847 229.2H623.163V219.372H627.055V221.864H635.847V219.372H639.711ZM619.327 213.128C619.327 210.104 622.211 208.536 625.711 208.536C629.211 208.536 632.095 210.104 632.095 213.128V213.688C632.095 216.712 629.211 218.364 625.711 218.364C622.211 218.364 619.327 216.712 619.327 213.688V213.128ZM632.599 209.6H635.903V204.14L639.711 203.58V217.832L635.903 218.392V216.852H632.599V214.192H635.903V212.176H632.599V209.6ZM632.879 207.976H617.983V205.232H623.639V203.412L627.503 202.852V205.232H633.439L632.879 207.976ZM628.455 213.24C628.455 211.98 627.251 211.168 625.711 211.168C624.171 211.168 622.967 211.98 622.967 213.24V213.576C622.967 214.808 624.171 215.732 625.711 215.732C627.251 215.732 628.455 214.808 628.455 213.576V213.24ZM627.055 226.456H635.847V224.608H627.055V226.456ZM652.624 210.188V207.64H645.204V204.84H656.404V212.932H649.096V215.704H650.552C653.1 215.704 656.964 215.536 659.652 215.06V217.832C656.796 218.336 652.792 218.504 650.244 218.504H645.204V210.188H652.624ZM665.168 203.58V219.092L661.36 219.652V214.276H657.524V211.504H661.36V209.264H657.524V206.492H661.36V204.14L665.168 203.58ZM648.396 220.352H665.168V229.144L661.304 229.704V223.124H648.396V220.352ZM671.136 213.772C671.136 211.168 673.628 209.068 677.52 209.068C681.412 209.068 683.904 211.168 683.904 213.772V214.668C683.904 216.74 682.308 218.504 679.704 219.148V221.948C681.748 221.836 684.016 221.64 685.836 221.332V224.104C681.832 224.664 677.548 224.832 673.236 224.832H669.54V222.032H675.756V219.232C672.872 218.7 671.136 216.852 671.136 214.668V213.772ZM686.872 204.14L690.652 203.58V228.64L686.872 229.2V204.14ZM684.688 208.508H669.932V205.708H675.588V203.86L679.452 203.3V205.708H685.248L684.688 208.508ZM680.264 214.024C680.264 212.652 679.144 211.728 677.52 211.728C675.896 211.728 674.776 212.652 674.776 214.024V214.416C674.776 215.788 675.896 216.712 677.52 216.712C679.144 216.712 680.264 215.788 680.264 214.416V214.024ZM715.38 203.58V213.156H719.412L718.852 216.292H715.38V228.64L711.544 229.2V204.14L715.38 203.58ZM703.984 204.868V212.232C703.984 212.82 704.152 213.436 704.488 213.884C705.944 215.844 708.156 218.532 710.06 220.66L707.82 222.816C705.86 220.744 703.48 218.112 702.052 216.208C700.4 218.308 697.992 221.276 696.004 223.432L693.652 221.388C695.556 219.176 697.796 216.488 699.448 214.108C699.784 213.632 700.064 212.988 700.064 212.4V205.428L703.984 204.868Z" fill="black"/>
<path d="M530.035 261.508H540.339V259.212H533.619V250.252H550.671V253.024H537.511V256.468H551.175L550.615 259.212H544.371V261.508H554.311L553.751 264.28H530.035V261.508ZM545.239 265.82C548.375 265.82 551.203 266.996 551.203 270.748C551.203 274.528 548.375 275.704 545.239 275.704H539.051C535.915 275.704 533.087 274.528 533.087 270.748C533.087 266.996 535.915 265.82 539.051 265.82H545.239ZM545.099 268.62H539.219C537.959 268.62 536.839 269.152 536.839 270.748C536.839 272.372 537.959 272.904 539.219 272.904H545.099C546.359 272.904 547.451 272.372 547.451 270.748C547.451 269.152 546.359 268.62 545.099 268.62ZM560.559 255.096H565.403V250.784H569.155V264.476L565.403 265.036H556.807V250.784H560.559V255.096ZM576.771 249.58V256.44H580.775L580.215 259.408H576.771V267.752L572.907 268.312V250.14L576.771 249.58ZM576.967 275.088H560.531V267.332H564.423V272.288H577.527L576.967 275.088ZM560.559 262.264H565.403V257.896H560.559V262.264ZM597.215 265.484C600.267 265.484 603.039 266.716 603.039 270.496C603.039 274.304 600.267 275.536 597.215 275.536H591.223C588.059 275.536 585.231 274.304 585.231 270.496C585.231 266.716 588.059 265.484 591.223 265.484H597.215ZM591.055 250.168V254.732C591.055 255.32 591.167 255.964 591.559 256.384C593.295 258.316 595.143 260.024 597.103 261.676L594.863 263.832C592.875 262.236 590.831 260.584 589.123 258.708C587.415 260.668 585.119 262.852 583.075 264.588L580.723 262.544C582.683 260.78 584.755 258.848 586.463 256.608C586.827 256.132 587.079 255.488 587.079 254.9V250.728L591.055 250.168ZM598.867 265.064V256.216H594.191V253.444H598.867V250.14L602.675 249.58V264.504L598.867 265.064ZM596.851 268.256H591.531C590.019 268.256 588.983 268.872 588.983 270.496C588.983 272.148 590.019 272.764 591.531 272.764H596.851C598.251 272.764 599.287 272.148 599.287 270.496C599.287 268.872 598.251 268.256 596.851 268.256ZM622.28 265.484C625.332 265.484 628.104 266.716 628.104 270.496C628.104 274.304 625.332 275.536 622.28 275.536H616.288C613.124 275.536 610.296 274.304 610.296 270.496C610.296 266.716 613.124 265.484 616.288 265.484H622.28ZM621.16 253.584H616.624V255.152C616.624 255.74 616.736 256.384 617.128 256.804C618.864 258.736 620.628 260.388 622.588 262.04L620.348 264.196C618.36 262.6 616.484 260.948 614.72 259.128C612.956 261.06 610.856 263.076 608.812 264.812L606.46 262.768C608.42 261.004 610.436 259.268 612.144 257.028C612.508 256.552 612.76 255.908 612.76 255.32V253.584H607.776V250.784H621.72L621.16 253.584ZM627.74 249.58V256.3H631.772L631.212 259.128H627.74V264.476L623.904 265.036V250.14L627.74 249.58ZM621.916 268.256H616.596C615.084 268.256 614.048 268.872 614.048 270.496C614.048 272.148 615.084 272.764 616.596 272.764H621.916C623.316 272.764 624.352 272.148 624.352 270.496C624.352 268.872 623.316 268.256 621.916 268.256ZM661.072 249.58V257.896H664.936L664.376 260.724H661.072V267.752L657.208 268.312V250.14L661.072 249.58ZM640.24 262.852H644.552V256.692H648.276V262.852C650.74 262.768 653.848 262.544 656.228 262.152V264.924C652.252 265.484 647.94 265.652 643.628 265.652H640.24V262.852ZM661.212 275.088H644.58V267.22H648.444V272.288H661.772L661.212 275.088ZM651.104 253.416H641.416V250.616H655.108C654.996 253.528 654.576 258.596 653.904 260.948H650.152C650.768 258.876 651.104 255.208 651.104 253.416ZM675.804 258.428V254.004H667.264V251.232H679.64V261.172H671.156V265.652H673.172C675.72 265.652 679.612 265.54 682.3 264.98V267.752C679.444 268.228 675.468 268.424 672.836 268.424H667.264V258.428H675.804ZM687.228 249.58V274.64L683.42 275.2V250.14L687.228 249.58ZM719.328 253.836H712.776V255.096C712.776 255.684 712.832 256.384 713.28 256.748C715.296 258.344 718.712 260.948 721.232 262.516L719.16 264.868C716.612 263.328 712.776 260.696 710.788 259.072C708.8 260.724 704.796 263.44 702.332 265.064L700.232 262.74C702.892 261.06 706.196 258.736 708.156 256.972C708.604 256.58 708.772 255.852 708.772 255.264V253.836H701.884V251.064H719.888L719.328 253.836ZM698.636 269.012H708.94V263.496H712.972V269.012H722.912L722.352 271.868H698.636V269.012ZM739.045 253.584H734.537V255.432C734.537 256.02 734.649 256.664 735.041 257.084C736.777 259.016 738.541 260.668 740.501 262.32L738.261 264.476C736.273 262.88 734.397 261.228 732.633 259.408C730.869 261.34 728.769 263.356 726.725 265.092L724.373 263.048C726.333 261.284 728.349 259.548 730.057 257.308C730.421 256.832 730.673 256.188 730.673 255.6V253.584H725.661V250.784H739.605L739.045 253.584ZM729.301 266.016H746.073V275.144L742.209 275.704V268.76H729.301V266.016ZM746.073 249.58V264.476L742.265 265.036V250.14L746.073 249.58ZM762.017 260.752C762.213 260.304 762.241 259.492 762.241 258.904V255.88H758.013V253.164H762.241V250.448L765.881 249.888V253.164H769.829L769.409 255.88H765.881V258.82C765.881 259.408 765.853 260.108 766.077 260.612C766.805 262.236 768.961 265.428 770.445 267.276L768.037 269.348C766.889 267.864 765.265 265.652 764.173 263.944C762.969 265.848 761.401 268.088 759.861 269.936L757.425 267.92C759.357 265.596 761.149 262.628 762.017 260.752ZM771.089 250.532L774.561 249.972V273.828L771.089 274.388V261.284H767.981V258.372H771.089V250.532ZM776.073 250.14L779.629 249.58V274.64L776.073 275.2V250.14ZM796.573 250.532L799.989 249.972V273.828L796.573 274.388V264.98H793.101V262.208H796.573V258.148H793.941C792.849 263.216 789.993 267.248 785.793 269.768L783.637 267.36C788.285 264.644 790.749 259.52 790.749 254.648V254.172H784.673V251.4H794.445V253.388C794.445 254.06 794.417 254.704 794.361 255.348H796.573V250.532ZM801.557 250.14L805.113 249.58V274.64L801.557 275.2V250.14Z" fill="black"/>
<rect x="653.462" y="82.4531" width="40" height="40" rx="20" transform="rotate(-12.9196 653.462 82.4531)" fill="white"/>
<path d="M680.164 91.517C684.579 92.8736 686.787 93.5519 687.174 95.2401C687.561 96.9283 685.87 98.5009 682.488 101.646L681.219 102.826C677.837 105.971 676.146 107.544 674.49 107.035C672.834 106.526 672.318 104.275 671.285 99.7733L670.898 98.0851C669.865 93.5833 669.349 91.3323 670.617 90.1528C671.886 88.9734 674.093 89.6517 678.508 91.0083L680.164 91.517Z" fill="white"/>
<path d="M680.164 91.517C684.579 92.8736 686.787 93.5519 687.174 95.2401C687.561 96.9283 685.87 98.5009 682.488 101.646L681.219 102.826C677.837 105.971 676.146 107.544 674.49 107.035C672.834 106.526 672.318 104.275 671.285 99.7733L670.898 98.0851C669.865 93.5833 669.349 91.3323 670.617 90.1528C671.886 88.9734 674.093 89.6517 678.508 91.0083L680.164 91.517Z" fill="#F5980D"/>
<rect width="40" height="40" rx="20" transform="matrix(-0.984714 0.17418 0.17418 0.984714 636.389 365)" fill="white"/>
<path d="M615.334 383.758C611.797 386.728 610.029 388.214 610.331 389.919C610.632 391.625 612.803 392.414 617.144 393.991L618.772 394.583C623.113 396.16 625.284 396.949 626.61 395.835C627.936 394.72 627.534 392.446 626.729 387.898L626.428 386.193C625.623 381.644 625.221 379.37 623.593 378.779C621.965 378.187 620.197 379.673 616.66 382.644L615.334 383.758Z" fill="white"/>
<path d="M615.334 383.758C611.797 386.728 610.029 388.214 610.331 389.919C610.632 391.625 612.803 392.414 617.144 393.991L618.772 394.583C623.113 396.16 625.284 396.949 626.61 395.835C627.936 394.72 627.534 392.446 626.729 387.898L626.428 386.193C625.623 381.644 625.221 379.37 623.593 378.779C621.965 378.187 620.197 379.673 616.66 382.644L615.334 383.758Z" fill="#F5980D"/>
<rect width="40" height="40" rx="20" transform="matrix(-0.588356 0.808602 0.808602 0.588356 1204.53 166)" fill="white"/>
<path d="M1202.38 194.117C1201.9 198.71 1201.65 201.006 1203.06 202.026C1204.46 203.045 1206.57 202.107 1210.79 200.231L1212.37 199.528C1216.59 197.652 1218.7 196.714 1218.88 194.992C1219.07 193.269 1217.2 191.911 1213.46 189.193L1212.06 188.174C1208.33 185.457 1206.46 184.098 1204.88 184.801C1203.3 185.505 1203.05 187.801 1202.57 192.394L1202.38 194.117Z" fill="white"/>
<path d="M1202.38 194.117C1201.9 198.71 1201.65 201.006 1203.06 202.026C1204.46 203.045 1206.57 202.107 1210.79 200.231L1212.37 199.528C1216.59 197.652 1218.7 196.714 1218.88 194.992C1219.07 193.269 1217.2 191.911 1213.46 189.193L1212.06 188.174C1208.33 185.457 1206.46 184.098 1204.88 184.801C1203.3 185.505 1203.05 187.801 1202.57 192.394L1202.38 194.117Z" fill="#F5980D"/>
<rect width="40" height="40" rx="20" transform="matrix(0.866025 -0.5 -0.5 -0.866025 149 295.641)" fill="white"/>
<path d="M162.383 270.82C164.692 266.82 165.847 264.82 164.981 263.32C164.115 261.82 161.806 261.82 157.187 261.82L155.455 261.82C150.836 261.82 148.527 261.82 147.661 263.32C146.794 264.82 147.949 266.82 150.259 270.82L151.125 272.32C153.434 276.32 154.589 278.32 156.321 278.32C158.053 278.32 159.208 276.32 161.517 272.32L162.383 270.82Z" fill="white"/>
<path d="M162.383 270.82C164.692 266.82 165.847 264.82 164.981 263.32C164.115 261.82 161.806 261.82 157.187 261.82L155.455 261.82C150.836 261.82 148.527 261.82 147.661 263.32C146.794 264.82 147.949 266.82 150.259 270.82L151.125 272.32C153.434 276.32 154.589 278.32 156.321 278.32C158.053 278.32 159.208 276.32 161.517 272.32L162.383 270.82Z" fill="#F5980D"/>
<defs>
<clipPath id="clip0_307_2910">
<rect width="1336" height="480" fill="white"/>
</clipPath>
</defs>
</svg>
