<svg width="1336" height="306" viewBox="0 0 1336 306" fill="none" xmlns="http://www.w3.org/2000/svg">
<rect width="1336" height="306" rx="24" fill="#F4F8FF" fill-opacity="0.8"/>
<rect opacity="0.3" x="261" y="84" width="190" height="2" fill="#4B84F0"/>
<rect opacity="0.3" x="573" y="84" width="190" height="2" fill="#4B84F0"/>
<rect opacity="0.3" x="885" y="84" width="190" height="2" fill="#FF8D24"/>
<path d="M1090.51 173.62H1078.37V167.18H1090.55V169.16H1081.15V171.66H1091.11L1090.51 173.62ZM1093.15 175.1L1092.75 177.04H1075.81V175.1H1093.15ZM1086.67 178.32C1088.91 178.32 1090.93 179.16 1090.93 181.84C1090.93 184.52 1088.91 185.36 1086.67 185.36H1082.25C1080.01 185.36 1077.99 184.52 1077.99 181.84C1077.99 179.16 1080.01 178.32 1082.25 178.32H1086.67ZM1086.57 180.32H1082.37C1081.47 180.32 1080.67 180.7 1080.67 181.84C1080.67 182.98 1081.47 183.36 1082.37 183.36H1086.57C1087.47 183.36 1088.25 182.98 1088.25 181.84C1088.25 180.7 1087.47 180.32 1086.57 180.32ZM1094.01 176.34H1101.37V175H1096.61V170.18H1105.93V169.12H1096.53V167.22H1108.69V172.04H1099.39V173.12H1109.15L1108.75 175H1104.25V176.34H1111.35L1110.95 178.24H1094.01V176.34ZM1096.45 179.38H1108.69V184.96L1105.93 185.36V181.36H1096.45V179.38ZM1130.78 170.58V167.1L1133.48 166.7V176.6L1130.78 177V172.62H1128.08C1127.76 174.94 1125.64 176.16 1123.26 176.16C1120.68 176.16 1118.4 174.72 1118.4 172.04V171.22C1118.4 168.54 1120.68 167.1 1123.26 167.1C1125.62 167.1 1127.74 168.32 1128.06 170.58H1130.78ZM1133.48 184.5L1130.78 185H1121.68V177.5H1124.46V179.38H1130.74V177.5H1133.48V184.5ZM1125.42 171.96V171.3C1125.42 169.9 1124.48 169.1 1123.26 169.1C1122.04 169.1 1121.1 169.9 1121.1 171.3V171.96C1121.1 173.36 1122.04 174.16 1123.26 174.16C1124.48 174.16 1125.42 173.36 1125.42 171.96ZM1124.46 183.04H1130.74V181.32H1124.46V183.04ZM1139.28 174.68C1139.42 174.36 1139.44 173.78 1139.44 173.36V171.2H1136.42V169.26H1139.44V167.32L1142.04 166.92V169.26H1144.86L1144.56 171.2H1142.04V173.3C1142.04 173.72 1142.02 174.22 1142.18 174.58C1142.7 175.74 1144.24 178.02 1145.3 179.34L1143.58 180.82C1142.76 179.76 1141.6 178.18 1140.82 176.96C1139.96 178.32 1138.84 179.92 1137.74 181.24L1136 179.8C1137.38 178.14 1138.66 176.02 1139.28 174.68ZM1145.76 167.38L1148.24 166.98V184.02L1145.76 184.42V175.06H1143.54V172.98H1145.76V167.38ZM1149.32 167.1L1151.86 166.7V184.6L1149.32 185V167.1ZM1175.01 166.7V172.64H1177.77L1177.37 174.66H1175.01V179.68L1172.25 180.08V167.1L1175.01 166.7ZM1160.13 176.18H1163.21V171.78H1165.87V176.18C1167.63 176.12 1169.85 175.96 1171.55 175.68V177.66C1168.71 178.06 1165.63 178.18 1162.55 178.18H1160.13V176.18ZM1175.11 184.92H1163.23V179.3H1165.99V182.92H1175.51L1175.11 184.92ZM1167.89 169.44H1160.97V167.44H1170.75C1170.67 169.52 1170.37 173.14 1169.89 174.82H1167.21C1167.65 173.34 1167.89 170.72 1167.89 169.44ZM1185.53 173.02V169.86H1179.43V167.88H1188.27V174.98H1182.21V178.18H1183.65C1185.47 178.18 1188.25 178.1 1190.17 177.7V179.68C1188.13 180.02 1185.29 180.16 1183.41 180.16H1179.43V173.02H1185.53ZM1193.69 166.7V184.6L1190.97 185V167.1L1193.69 166.7Z" fill="#F77600"/>
<path d="M1078.01 210.656C1077.99 213.18 1079.26 215.727 1081.45 216.781L1080.38 218.172C1078.85 217.398 1077.75 215.906 1077.15 214.109C1076.53 216.031 1075.38 217.625 1073.76 218.438L1072.7 217.047C1074.97 215.969 1076.27 213.266 1076.27 210.656V208.406H1078.01V210.656ZM1082.29 221.391V207.266H1084.02V212.797H1086.2V214.281H1084.02V221.391H1082.29ZM1098.62 207.281V217.594H1096.88V212.422H1094.38V211.016H1096.88V207.281H1098.62ZM1086.76 214.547C1089.01 213.805 1090.21 211.961 1090.21 210.078V209.703H1087.27V208.297H1094.9V209.703H1091.98V210.094C1091.98 211.789 1093.12 213.547 1095.3 214.266L1094.43 215.656C1092.85 215.117 1091.73 214.039 1091.12 212.703C1090.5 214.188 1089.32 215.375 1087.65 215.953L1086.76 214.547ZM1089.35 221.109V216.688H1091.09V219.703H1098.98V221.109H1089.35ZM1102.34 216.266C1101.66 216.266 1101.11 215.719 1101.12 215.047C1101.11 214.391 1101.66 213.852 1102.34 213.844C1102.98 213.852 1103.54 214.391 1103.54 215.047C1103.54 215.719 1102.98 216.266 1102.34 216.266ZM1110.02 210.656C1110.01 213.18 1111.27 215.727 1113.46 216.781L1112.4 218.172C1110.87 217.398 1109.77 215.906 1109.16 214.109C1108.55 216.031 1107.39 217.625 1105.77 218.438L1104.71 217.047C1106.98 215.969 1108.28 213.266 1108.29 210.656V208.406H1110.02V210.656ZM1114.3 221.391V207.266H1116.04V212.797H1118.21V214.281H1116.04V221.391H1114.3ZM1130.98 208.781V210.188H1119.45V208.781H1124.37V207.234H1126.09V208.781H1130.98ZM1118.8 217.812V216.391H1131.71V217.812H1126.09V221.406H1124.37V217.812H1118.8ZM1120.45 213.219C1120.45 211.672 1122.24 210.828 1125.23 210.828C1128.21 210.828 1130.01 211.672 1130.01 213.219C1130.01 214.758 1128.21 215.609 1125.23 215.609C1122.24 215.609 1120.45 214.758 1120.45 213.219ZM1122.26 213.219C1122.25 213.945 1123.27 214.32 1125.23 214.312C1127.17 214.32 1128.2 213.945 1128.21 213.219C1128.2 212.5 1127.17 212.125 1125.23 212.125C1123.27 212.125 1122.25 212.5 1122.26 213.219ZM1148.2 207.281V215.266H1146.45V207.281H1148.2ZM1136.43 213.609C1138.72 212.883 1139.91 211.047 1139.9 209.188V207.812H1141.7V209.188C1141.69 210.992 1142.89 212.672 1145.1 213.375L1144.26 214.703C1142.62 214.195 1141.45 213.156 1140.81 211.805C1140.18 213.258 1138.98 214.422 1137.29 214.984L1136.43 213.609ZM1138.82 221.219V215.969H1148.2V221.219H1138.82ZM1140.54 219.812H1146.49V217.344H1140.54V219.812ZM1154.84 208.25C1157.08 208.242 1158.71 209.656 1158.73 211.656C1158.71 213.664 1157.08 215.07 1154.84 215.078C1152.62 215.07 1150.95 213.664 1150.96 211.656C1150.95 209.656 1152.62 208.242 1154.84 208.25ZM1150.32 217.031C1152.87 217.031 1156.39 217 1159.45 216.562L1159.59 217.828C1156.42 218.43 1153.03 218.453 1150.54 218.453L1150.32 217.031ZM1152.68 211.656C1152.67 212.836 1153.6 213.562 1154.84 213.562C1156.09 213.562 1157.02 212.836 1157.02 211.656C1157.02 210.484 1156.09 209.75 1154.84 209.75C1153.6 209.75 1152.67 210.484 1152.68 211.656ZM1160.29 221.406V207.266H1162.02V221.406H1160.29ZM1175.77 208.25V209.656H1174.52V213.664C1175.04 213.625 1175.55 213.578 1176.04 213.516V212.25H1177.98V211.031H1176.04V209.641H1177.98V207.266H1179.71V215.922H1177.98V213.641H1176.08L1176.15 214.797C1173.45 215.242 1170.34 215.289 1168.09 215.297L1167.9 213.859C1168.39 213.859 1168.93 213.859 1169.49 213.852V209.656H1168.26V208.25H1175.77ZM1170.13 218.781C1170.12 217.117 1171.94 216.172 1174.93 216.172C1177.95 216.172 1179.75 217.117 1179.76 218.781C1179.75 220.406 1177.95 221.375 1174.93 221.375C1171.94 221.375 1170.12 220.406 1170.13 218.781ZM1171.18 213.828C1171.73 213.812 1172.29 213.789 1172.85 213.766V209.656H1171.18V213.828ZM1171.85 218.781C1171.84 219.602 1172.95 220.031 1174.93 220.031C1176.91 220.031 1178.02 219.602 1178.02 218.781C1178.02 217.945 1176.91 217.5 1174.93 217.5C1172.95 217.5 1171.84 217.945 1171.85 218.781ZM1192.77 207.266V212.781H1194.87V214.234H1192.77V221.359H1191.04V207.266H1192.77ZM1181.63 217.5C1185.07 215.781 1186.93 213.391 1187.27 210.172H1182.4V208.734H1189.04C1189.03 212.883 1187.31 216.531 1182.62 218.844L1181.63 217.5ZM1198.29 218.891L1196.98 223.266H1195.49L1196.3 218.891H1198.29ZM1092.2 236.562V237.938H1084.3V236.562H1087.46V235.156H1089.2V236.562H1092.2ZM1085.04 241C1085.03 239.477 1086.38 238.445 1088.3 238.438C1090.23 238.445 1091.61 239.477 1091.62 241C1091.61 242.531 1090.23 243.547 1088.3 243.547C1086.38 243.547 1085.03 242.531 1085.04 241ZM1086.66 241C1086.66 241.789 1087.3 242.281 1088.3 242.281C1089.3 242.281 1089.99 241.789 1089.99 241C1089.99 240.219 1089.3 239.75 1088.3 239.75C1087.3 239.75 1086.66 240.219 1086.66 241ZM1086.7 249.219V244.203H1088.43V245.391H1094.38V244.203H1096.1V249.219H1086.7ZM1088.43 247.859H1094.38V246.703H1088.43V247.859ZM1092.27 242.547V241.156H1094.37V239.781H1092.29V238.375H1094.37V235.266H1096.1V243.656H1094.37V242.547H1092.27ZM1104.85 236.109V240.359H1100.4V242.094C1102.67 242.094 1103.96 242.031 1105.46 241.75L1105.63 243.156C1103.95 243.445 1102.48 243.484 1099.71 243.484H1098.68V239.062H1103.12V237.484H1098.65V236.109H1104.85ZM1100.27 246.031V244.641H1109.93V249.391H1108.2V246.031H1100.27ZM1105.7 241.641V240.25H1108.2V238.672H1105.7V237.281H1108.2V235.281H1109.93V243.969H1108.2V241.641H1105.7ZM1116.98 238.656C1116.96 241.18 1118.23 243.727 1120.41 244.781L1119.35 246.172C1117.82 245.398 1116.72 243.906 1116.12 242.109C1115.5 244.031 1114.34 245.625 1112.73 246.438L1111.66 245.047C1113.94 243.969 1115.23 241.266 1115.24 238.656V236.406H1116.98V238.656ZM1121.26 249.391V235.266H1122.99V240.797H1125.16V242.281H1122.99V249.391H1121.26ZM1141.38 235.266V243.656H1139.65V240.203H1137.24V238.781H1139.65V235.266H1141.38ZM1129.51 242.25C1131.78 241.469 1132.98 239.57 1132.98 237.703V237.594H1130.04V236.188H1137.66V237.594H1134.74V237.688C1134.74 239.406 1135.88 241.141 1138.07 241.875L1137.2 243.25C1135.62 242.719 1134.52 241.641 1133.89 240.312C1133.27 241.812 1132.09 243.031 1130.41 243.625L1129.51 242.25ZM1131.8 246.703C1131.79 245.008 1133.62 244.016 1136.6 244.016C1139.59 244.016 1141.42 245.008 1141.43 246.703C1141.42 248.398 1139.59 249.383 1136.6 249.391C1133.62 249.383 1131.79 248.398 1131.8 246.703ZM1133.52 246.703C1133.52 247.578 1134.64 248.055 1136.6 248.047C1138.58 248.055 1139.7 247.578 1139.7 246.703C1139.7 245.82 1138.58 245.344 1136.6 245.344C1134.64 245.344 1133.52 245.82 1133.52 246.703ZM1155.18 235.266V249.391H1153.43V235.266H1155.18ZM1143.48 245.5C1147.18 243.742 1148.88 241.352 1149.2 238.141H1144.2V236.766H1150.96C1150.96 240.969 1149.33 244.539 1144.38 246.891L1143.48 245.5ZM1168.9 236.25V237.656H1167.65V241.664C1168.16 241.625 1168.68 241.578 1169.16 241.516V240.25H1171.1V239.031H1169.16V237.641H1171.1V235.266H1172.84V243.922H1171.1V241.641H1169.2L1169.27 242.797C1166.58 243.242 1163.46 243.289 1161.21 243.297L1161.02 241.859C1161.52 241.859 1162.05 241.859 1162.62 241.852V237.656H1161.38V236.25H1168.9ZM1163.26 246.781C1163.24 245.117 1165.06 244.172 1168.05 244.172C1171.07 244.172 1172.88 245.117 1172.88 246.781C1172.88 248.406 1171.07 249.375 1168.05 249.375C1165.06 249.375 1163.24 248.406 1163.26 246.781ZM1164.3 241.828C1164.85 241.812 1165.41 241.789 1165.98 241.766V237.656H1164.3V241.828ZM1164.98 246.781C1164.97 247.602 1166.08 248.031 1168.05 248.031C1170.04 248.031 1171.15 247.602 1171.15 246.781C1171.15 245.945 1170.04 245.5 1168.05 245.5C1166.08 245.5 1164.97 245.945 1164.98 246.781ZM1185.9 235.266V240.781H1187.99V242.234H1185.9V249.359H1184.16V235.266H1185.9ZM1174.76 245.5C1178.2 243.781 1180.05 241.391 1180.4 238.172H1175.52V236.734H1182.16C1182.16 240.883 1180.44 244.531 1175.74 246.844L1174.76 245.5Z" fill="#282828"/>
<rect x="1136" y="48" width="52" height="52" rx="8" transform="rotate(45 1136 48)" fill="#FF8D24"/>
<path d="M1124.02 87.36V81.22C1124.02 77.92 1125.82 76.16 1129.1 76.16C1132.4 76.16 1134.2 77.92 1134.2 81.22V87.36C1134.2 90.66 1132.4 92.42 1129.1 92.42C1125.82 92.42 1124.02 90.66 1124.02 87.36ZM1131.42 86.72V81.86C1131.42 79.4 1130.64 78.32 1129.1 78.32C1127.56 78.32 1126.8 79.4 1126.8 81.86V86.72C1126.8 89.18 1127.56 90.24 1129.1 90.24C1130.64 90.24 1131.42 89.18 1131.42 86.72ZM1141.84 89.16H1135.32V86.88L1141 76.52H1144.58V87.02H1146.66L1146.26 89.16H1144.58V91.92L1141.84 92.34V89.16ZM1141.84 87.02V79.4H1141.8L1137.9 87.02H1141.84Z" fill="white"/>
<path d="M748.235 174.98L747.835 176.92H730.895V174.98H748.235ZM740.995 166.82V167.98C740.995 168.44 740.995 168.92 741.355 169.16C742.955 170.22 745.035 171.34 746.975 172.24L745.855 174.02C743.895 173.12 741.155 171.84 739.575 170.82C738.095 171.8 735.355 173.18 733.235 174.16L732.095 172.4C734.155 171.42 736.235 170.3 737.695 169.3C738.055 169.04 738.135 168.62 738.135 168.1V167.22L740.995 166.82ZM741.755 178.28C743.935 178.28 745.995 179.14 745.995 181.76C745.995 184.38 743.935 185.26 741.755 185.26H737.355C735.095 185.26 733.115 184.38 733.115 181.76C733.115 179.14 735.095 178.28 737.355 178.28H741.755ZM741.495 180.26H737.615C736.535 180.26 735.795 180.68 735.795 181.76C735.795 182.84 736.535 183.28 737.615 183.28H741.495C742.495 183.28 743.315 182.84 743.315 181.76C743.315 180.68 742.495 180.26 741.495 180.26ZM764.758 166.7V179.44L762.058 179.84V167.1L764.758 166.7ZM764.878 184.92H753.158V179.14H755.938V182.92H765.278L764.878 184.92ZM759.498 172.78C759.498 175.46 757.258 176.9 754.738 176.9C752.218 176.9 749.978 175.46 749.978 172.78V171.62C749.978 168.94 752.218 167.5 754.738 167.5C757.258 167.5 759.498 168.94 759.498 171.62V172.78ZM756.798 172.7V171.7C756.798 170.3 755.938 169.5 754.738 169.5C753.538 169.5 752.678 170.3 752.678 171.7V172.7C752.678 174.1 753.538 174.9 754.738 174.9C755.938 174.9 756.798 174.1 756.798 172.7ZM785.867 170.58V167.1L788.567 166.7V176.6L785.867 177V172.62H783.167C782.847 174.94 780.727 176.16 778.347 176.16C775.767 176.16 773.487 174.72 773.487 172.04V171.22C773.487 168.54 775.767 167.1 778.347 167.1C780.707 167.1 782.827 168.32 783.147 170.58H785.867ZM788.567 184.5L785.867 185H776.767V177.5H779.547V179.38H785.827V177.5H788.567V184.5ZM780.507 171.96V171.3C780.507 169.9 779.567 169.1 778.347 169.1C777.127 169.1 776.187 169.9 776.187 171.3V171.96C776.187 173.36 777.127 174.16 778.347 174.16C779.567 174.16 780.507 173.36 780.507 171.96ZM779.547 183.04H785.827V181.32H779.547V183.04ZM794.37 174.68C794.51 174.36 794.53 173.78 794.53 173.36V171.2H791.51V169.26H794.53V167.32L797.13 166.92V169.26H799.95L799.65 171.2H797.13V173.3C797.13 173.72 797.11 174.22 797.27 174.58C797.79 175.74 799.33 178.02 800.39 179.34L798.67 180.82C797.85 179.76 796.69 178.18 795.91 176.96C795.05 178.32 793.93 179.92 792.83 181.24L791.09 179.8C792.47 178.14 793.75 176.02 794.37 174.68ZM800.85 167.38L803.33 166.98V184.02L800.85 184.42V175.06H798.63V172.98H800.85V167.38ZM804.41 167.1L806.95 166.7V184.6L804.41 185V167.1ZM829.618 173.62H817.478V167.18H829.658V169.16H820.258V171.66H830.218L829.618 173.62ZM832.258 175.1L831.858 177.04H814.918V175.1H832.258ZM825.778 178.32C828.018 178.32 830.038 179.16 830.038 181.84C830.038 184.52 828.018 185.36 825.778 185.36H821.358C819.118 185.36 817.098 184.52 817.098 181.84C817.098 179.16 819.118 178.32 821.358 178.32H825.778ZM825.678 180.32H821.478C820.578 180.32 819.778 180.7 819.778 181.84C819.778 182.98 820.578 183.36 821.478 183.36H825.678C826.578 183.36 827.358 182.98 827.358 181.84C827.358 180.7 826.578 180.32 825.678 180.32ZM833.122 176.34H840.482V175H835.722V170.18H845.042V169.12H835.642V167.22H847.802V172.04H838.502V173.12H848.262L847.862 175H843.362V176.34H850.462L850.062 178.24H833.122V176.34ZM835.562 179.38H847.802V184.96L845.042 185.36V181.36H835.562V179.38ZM858.15 167.36H866.91V175.24L864.21 175.64H858.15V167.36ZM872.63 180.3L867.89 180.32C867.89 180.68 867.93 181.06 868.25 181.22C869.93 182.2 871.57 183 873.59 183.9L872.31 185.58C870.29 184.74 868.23 183.76 866.55 182.86C865.01 183.72 862.81 184.84 860.79 185.72L859.47 184.06C861.63 183.14 863.19 182.26 864.69 181.36C865.01 181.18 865.11 180.72 865.13 180.32H860.15V178.42H865.13V176.76L867.89 176.36V178.42H873.03L872.63 180.3ZM872.57 166.7V176.8L869.87 177.2V167.1L872.57 166.7ZM864.21 169.36H860.85V173.7H864.21V169.36ZM888.439 169.98H882.239V168H891.319V169.42C891.319 170.7 891.099 171.92 890.719 173.06H893.699V167.1L896.419 166.7V184.6L893.699 185V175.08H889.839C888.339 177.82 885.839 179.94 883.139 181.18L881.499 179.4C885.319 177.8 888.439 173.8 888.439 170.32V169.98ZM910.822 166.98V173.02H912.322V167.1L914.842 166.7V184.6L912.322 185V175.06H910.822V184.02L908.342 184.42V167.38L910.822 166.98ZM904.042 173.06V169.98H900.102V168H906.522V175.02H902.702V178.18H903.722C904.822 178.18 906.302 178.06 907.522 177.82V179.8C906.442 180 904.602 180.16 903.382 180.16H900.102V173.06H904.042Z" fill="#2856CE"/>
<path d="M765.742 209.812C765.742 211.539 766.859 213.164 769.07 213.844L768.242 215.203C766.656 214.703 765.531 213.695 764.914 212.422C764.289 213.906 763.102 215.086 761.398 215.656L760.523 214.281C762.797 213.539 763.992 211.703 763.992 209.828V209.656H761.008V208.25H768.68V209.656H765.742V209.812ZM762.445 218.672C762.445 216.984 764.273 216 767.227 216C770.156 216 771.953 216.984 771.961 218.672C771.953 220.375 770.156 221.375 767.227 221.375C764.273 221.375 762.445 220.375 762.445 218.672ZM764.18 218.672C764.18 219.547 765.289 220.008 767.227 220.016C769.156 220.008 770.242 219.547 770.242 218.672C770.242 217.812 769.156 217.359 767.227 217.359C765.289 217.359 764.18 217.812 764.18 218.672ZM770.086 215.688V207.266H771.82V210.656H773.789V212.078H771.82V215.688H770.086ZM786.305 207.266V221.391H784.555V207.266H786.305ZM774.602 217.5C778.305 215.742 780.008 213.352 780.32 210.141H775.32V208.766H782.086C782.086 212.969 780.453 216.539 775.508 218.891L774.602 217.5ZM790.055 216.266C789.383 216.266 788.828 215.719 788.836 215.047C788.828 214.391 789.383 213.852 790.055 213.844C790.703 213.852 791.258 214.391 791.258 215.047C791.258 215.719 790.703 216.266 790.055 216.266ZM804.523 207.281V217.641H802.789V214.141H799.422C798.75 214.898 797.75 215.352 796.617 215.359C794.484 215.352 792.883 213.836 792.883 211.75C792.883 209.641 794.484 208.133 796.617 208.125C797.742 208.133 798.742 208.578 799.414 209.328H802.789V207.281H804.523ZM794.539 211.75C794.539 213.008 795.406 213.812 796.617 213.812C797.773 213.812 798.656 213.008 798.664 211.75C798.656 210.484 797.773 209.672 796.617 209.672C795.406 209.672 794.539 210.484 794.539 211.75ZM795.258 221.109V216.578H796.992V219.703H804.883V221.109H795.258ZM800.18 210.734C800.266 211.055 800.32 211.391 800.32 211.75C800.32 212.094 800.273 212.422 800.188 212.734H802.789V210.734H800.18ZM817.664 207.266V211.328H819.633V212.781H817.664V217.453H815.898V207.266H817.664ZM806.477 214.609C809.711 213.672 811.625 211.914 811.922 209.766H807.07V208.344H813.82C813.828 212.094 811.375 214.773 807.195 215.984L806.477 214.609ZM808.586 221.109V216.406H810.352V219.703H818.195V221.109H808.586ZM822.07 216.266C821.398 216.266 820.844 215.719 820.852 215.047C820.844 214.391 821.398 213.852 822.07 213.844C822.719 213.852 823.273 214.391 823.273 215.047C823.273 215.719 822.719 216.266 822.07 216.266ZM828.711 207.719C830.852 207.727 832.445 209.047 832.461 210.906C832.445 212.773 830.852 214.086 828.711 214.094C826.555 214.086 824.961 212.773 824.961 210.906C824.961 209.047 826.555 207.727 828.711 207.719ZM826.648 210.906C826.648 212 827.523 212.688 828.711 212.688C829.898 212.688 830.766 212 830.773 210.906C830.766 209.836 829.898 209.148 828.711 209.156C827.523 209.148 826.648 209.836 826.648 210.906ZM827.102 216.375V215.016H836.477V218.703H828.836V219.844H836.898V221.219H827.133V217.422H834.742V216.375H827.102ZM834.727 214.406V207.266H836.477V214.406H834.727ZM849.68 207.281V211.359H851.648V212.797H849.68V217.672H847.945V207.281H849.68ZM839.023 215.375V208.281H840.742V210.438H844.039V208.281H845.758V215.375H839.023ZM840.633 221.109V216.625H842.367V219.703H850.242V221.109H840.633ZM840.742 214H844.039V211.781H840.742V214ZM868.352 207.266V221.391H866.695V207.266H868.352ZM856.023 217.172C858.945 215.445 860.289 213.234 860.555 210.391H856.773V208.984H862.273C862.273 209.695 862.227 210.391 862.125 211.062H863.773V207.609H865.43V220.719H863.773V216H861.57V214.578H863.773V212.484H861.828C861.156 214.828 859.688 216.844 857.039 218.406L856.023 217.172ZM883.055 209.234V210.641H881.133V212.266H883.055V213.719H881.133V215.609H879.398V207.266H881.133V209.234H883.055ZM870.148 211.469C870.141 209.484 871.781 208.062 873.961 208.078C876.133 208.062 877.758 209.484 877.773 211.469C877.758 213.484 876.133 214.883 873.961 214.891C871.781 214.883 870.141 213.484 870.148 211.469ZM871.727 217.625V216.219H881.133V221.391H879.398V217.625H871.727ZM871.852 211.469C871.844 212.672 872.742 213.414 873.961 213.406C875.164 213.414 876.062 212.672 876.07 211.469C876.062 210.289 875.164 209.555 873.961 209.547C872.742 209.555 871.844 210.289 871.852 211.469ZM886.57 218.891L885.258 223.266H883.773L884.586 218.891H886.57ZM791.781 241.953V243.344H786.188V244.703H790.219V249.219H780.422V244.703H784.469V243.344H778.906V241.953H791.781ZM780.062 237.078V235.688H790.594V237.078H788.656V239.5H790.516V240.906H780.141V239.5H782V237.078H780.062ZM782.141 247.812H788.531V246.047H782.141V247.812ZM783.734 239.5H786.906V237.078H783.734V239.5ZM804.469 235.266V242.547H802.75V235.266H804.469ZM792.844 241.281C795.039 240.633 796.25 239.039 796.336 237.375H793.297V235.969H801.062V237.375H798.102C798.18 238.938 799.375 240.422 801.562 241.016L800.719 242.359C799.07 241.883 797.891 240.883 797.25 239.602C796.609 241.016 795.383 242.133 793.641 242.656L792.844 241.281ZM795.125 244.469V243.141H804.5V246.781H796.859V247.922H804.922V249.266H795.156V245.516H802.766V244.469H795.125ZM808.281 244.266C807.609 244.266 807.055 243.719 807.062 243.047C807.055 242.391 807.609 241.852 808.281 241.844C808.93 241.852 809.484 242.391 809.484 243.047C809.484 243.719 808.93 244.266 808.281 244.266ZM822.047 235.281V238.25H824.047V239.688H822.047V242.672H820.328V235.281H822.047ZM811.531 242.156V235.906H813.281V240.711C815.086 240.688 817 240.555 819.062 240.141L819.266 241.562C816.922 242 814.75 242.148 812.703 242.156H811.531ZM812.891 249.219V243.344H814.609V244.922H820.328V243.344H822.062V249.219H812.891ZM814.609 247.812H820.328V246.312H814.609V247.812ZM836.547 235.266V249.391H834.797V235.266H836.547ZM824.844 245.5C828.547 243.742 830.25 241.352 830.562 238.141H825.562V236.766H832.328C832.328 240.969 830.695 244.539 825.75 246.891L824.844 245.5ZM850.266 236.312V237.156C850.25 238.117 850.25 239.523 849.922 241.312L848.203 241.156C848.484 239.703 848.539 238.617 848.555 237.75H843.062V236.312H850.266ZM842.219 242.438C843.055 242.43 843.992 242.422 844.984 242.406V239.531H846.703V242.352C848.164 242.289 849.664 242.18 851.031 241.984L851.125 243.234C848.188 243.766 844.852 243.82 842.375 243.828L842.219 242.438ZM844.328 249.109V244.906H846.078V247.703H854.094V249.109H844.328ZM851.859 245.844V235.266H853.641V239.672H855.469V241.125H853.641V245.844H851.859ZM867.969 235.266V249.406H866.25V235.266H867.969ZM856.969 237.906V236.5H863.625V241.797H858.766V244.641C860.992 244.625 862.906 244.508 865.109 244.141L865.266 245.562C862.867 245.977 860.758 246.07 858.219 246.062H856.984V240.422H861.859V237.906H856.969Z" fill="#282828"/>
<rect x="824" y="48" width="52" height="52" rx="8" transform="rotate(45 824 48)" fill="#4B84F0"/>
<path d="M812.023 87.36V81.22C812.023 77.92 813.823 76.16 817.103 76.16C820.403 76.16 822.203 77.92 822.203 81.22V87.36C822.203 90.66 820.403 92.42 817.103 92.42C813.823 92.42 812.023 90.66 812.023 87.36ZM819.423 86.72V81.86C819.423 79.4 818.643 78.32 817.103 78.32C815.563 78.32 814.803 79.4 814.803 81.86V86.72C814.803 89.18 815.563 90.24 817.103 90.24C818.643 90.24 819.423 89.18 819.423 86.72ZM833.92 87.66C833.92 91.4 831.52 92.36 828 92.36H823.92V90.12H827.64C829.86 90.12 831.02 89.3 831.02 87.6C831.02 85.6 829.4 85 827.48 85H825.78V82.76H827.4C829.34 82.76 830.48 82 830.48 80.54C830.48 79.1 829.66 78.44 828.06 78.44L824.44 78.42V76.14L828.66 76.16C831.02 76.18 833.34 77.32 833.34 80.12C833.34 82.16 832.14 83.38 830.6 83.84V83.88C832.48 84.18 833.92 85.58 833.92 87.66Z" fill="white"/>
<path d="M467.285 166.7V179.64L464.565 180.04V167.1L467.285 166.7ZM467.405 184.92H455.665V179.14H458.445V182.92H467.805L467.405 184.92ZM458.785 167.08V170.8C458.785 171.22 458.865 171.68 459.145 171.98C460.385 173.36 461.725 174.88 463.125 176.22L461.525 177.76C460.105 176.46 458.625 174.98 457.405 173.64C456.185 175.04 454.545 176.82 453.085 178.2L451.405 176.74C452.805 175.32 454.285 173.74 455.505 172.14C455.765 171.8 455.945 171.34 455.945 170.92V167.48L458.785 167.08ZM470.008 175.16H481.388C481.708 173.52 482.008 171.16 482.088 169.56H472.128V167.56H484.988C484.908 169.7 484.728 172.6 484.168 175.16H487.348L486.948 177.16H483.428V184.6L480.688 185V177.16H476.948V184.52L474.208 184.92V177.16H470.008V175.16ZM506.777 170.58V167.1L509.477 166.7V176.6L506.777 177V172.62H504.077C503.757 174.94 501.637 176.16 499.257 176.16C496.677 176.16 494.397 174.72 494.397 172.04V171.22C494.397 168.54 496.677 167.1 499.257 167.1C501.617 167.1 503.737 168.32 504.057 170.58H506.777ZM509.477 184.5L506.777 185H497.677V177.5H500.457V179.38H506.737V177.5H509.477V184.5ZM501.417 171.96V171.3C501.417 169.9 500.477 169.1 499.257 169.1C498.037 169.1 497.097 169.9 497.097 171.3V171.96C497.097 173.36 498.037 174.16 499.257 174.16C500.477 174.16 501.417 173.36 501.417 171.96ZM500.457 183.04H506.737V181.32H500.457V183.04ZM515.28 174.68C515.42 174.36 515.44 173.78 515.44 173.36V171.2H512.42V169.26H515.44V167.32L518.04 166.92V169.26H520.86L520.56 171.2H518.04V173.3C518.04 173.72 518.02 174.22 518.18 174.58C518.7 175.74 520.24 178.02 521.3 179.34L519.58 180.82C518.76 179.76 517.6 178.18 516.82 176.96C515.96 178.32 514.84 179.92 513.74 181.24L512 179.8C513.38 178.14 514.66 176.02 515.28 174.68ZM521.76 167.38L524.24 166.98V184.02L521.76 184.42V175.06H519.54V172.98H521.76V167.38ZM525.32 167.1L527.86 166.7V184.6L525.32 185V167.1ZM547.409 178.06C549.589 178.06 551.569 178.94 551.569 181.64C551.569 184.36 549.589 185.24 547.409 185.24H543.129C540.869 185.24 538.849 184.36 538.849 181.64C538.849 178.94 540.869 178.06 543.129 178.06H547.409ZM539.689 177.2H536.309V175.32H538.009L537.909 170.26H540.669L540.769 175.32C541.289 175.32 541.849 175.32 542.429 175.28L542.509 170.26H545.149L545.069 175.14C546.029 175.06 546.949 174.98 547.729 174.86V176.78C545.709 177.08 542.289 177.2 539.689 177.2ZM551.489 166.7V177.38L548.789 177.78V174.5H546.149V172.6H548.789V171.78H546.149V169.86H548.789V167.1L551.489 166.7ZM547.149 180.04H543.349C542.269 180.04 541.529 180.48 541.529 181.64C541.529 182.82 542.269 183.26 543.349 183.26H547.149C548.149 183.26 548.889 182.82 548.889 181.64C548.889 180.48 548.149 180.04 547.149 180.04ZM546.429 169.56H536.649V167.56H546.429V169.56ZM569.152 166.7V173.56H572.032L571.632 175.8H569.152V184.6L566.412 185V167.1L569.152 166.7ZM561.292 169.98H555.192V168H564.172V169.42C564.172 174.86 560.372 179.18 555.992 181.18L554.352 179.4C558.172 177.8 561.292 173.8 561.292 170.32V169.98Z" fill="#2856CE"/>
<path d="M453.977 207.281V215.531H452.242V213.969H448.883V212.562H452.242V211.047H449.016C448.125 213.289 446.062 214.859 442.992 215.719L442.289 214.344C445.594 213.453 447.359 211.773 447.625 209.672H443.039V208.266H449.523C449.523 208.758 449.484 209.227 449.406 209.672H452.242V207.281H453.977ZM444.508 218.5C444.508 216.766 446.406 215.695 449.305 215.688C452.164 215.695 454.07 216.766 454.07 218.5C454.07 220.234 452.164 221.32 449.305 221.312C446.406 221.32 444.508 220.234 444.508 218.5ZM446.242 218.5C446.242 219.43 447.406 219.938 449.305 219.938C451.172 219.938 452.328 219.43 452.336 218.5C452.328 217.555 451.172 217.047 449.305 217.047C447.406 217.047 446.242 217.555 446.242 218.5ZM459.898 208.062C461.039 208.055 462.031 208.477 462.695 209.188H466.07V207.266H467.805V215.578H466.07V213.781H462.688C462.016 214.477 461.031 214.898 459.898 214.891C457.766 214.898 456.164 213.469 456.164 211.484C456.164 209.484 457.766 208.055 459.898 208.062ZM457.82 211.484C457.82 212.641 458.688 213.422 459.898 213.422C461.07 213.422 461.938 212.641 461.945 211.484C461.938 210.289 461.07 209.547 459.898 209.547C458.688 209.547 457.82 210.289 457.82 211.484ZM458.227 218.625C458.211 216.883 460.062 215.867 463.023 215.875C465.992 215.867 467.844 216.883 467.852 218.625C467.844 220.359 465.992 221.375 463.023 221.375C460.062 221.375 458.211 220.359 458.227 218.625ZM459.93 218.625C459.914 219.523 461.062 220.008 463.023 220.016C465.023 220.008 466.148 219.523 466.148 218.625C466.148 217.703 465.023 217.211 463.023 217.203C461.062 217.211 459.914 217.703 459.93 218.625ZM463.477 210.578C463.555 210.867 463.602 211.164 463.602 211.484C463.602 211.797 463.555 212.094 463.484 212.375H466.07V210.578H463.477ZM481.492 208.312V209.156C481.477 210.117 481.477 211.523 481.148 213.312L479.43 213.156C479.711 211.703 479.766 210.617 479.781 209.75H474.289V208.312H481.492ZM473.445 214.438C474.281 214.43 475.219 214.422 476.211 214.406V211.531H477.93V214.352C479.391 214.289 480.891 214.18 482.258 213.984L482.352 215.234C479.414 215.766 476.078 215.82 473.602 215.828L473.445 214.438ZM475.555 221.109V216.906H477.305V219.703H485.32V221.109H475.555ZM483.086 217.844V207.266H484.867V211.672H486.695V213.125H484.867V217.844H483.086ZM499.195 207.266V221.406H497.477V207.266H499.195ZM488.195 209.906V208.5H494.852V213.797H489.992V216.641C492.219 216.625 494.133 216.508 496.336 216.141L496.492 217.562C494.094 217.977 491.984 218.07 489.445 218.062H488.211V212.422H493.086V209.906H488.195ZM512.586 208.141V214.016H505.773V208.141H512.586ZM506.617 220.016C509.328 219.781 511.062 218.578 511.219 217.453H507.195V216.141H511.258V214.906H513.008V216.141H517.086V217.453H513.055C513.211 218.547 514.914 219.742 517.617 220.016L517.023 221.344C514.734 221.102 513 220.203 512.141 219.031C511.273 220.219 509.516 221.094 507.211 221.344L506.617 220.016ZM507.492 212.656H510.867V209.516H507.492V212.656ZM515.07 215.312V207.266H516.789V215.312H515.07ZM534.93 207.266V221.391H533.273V214.234H531.82V220.703H530.18V207.516H531.82V212.797H533.273V207.266H534.93ZM522.445 217.281C524.539 216.094 525.383 213.633 525.383 210.875V210.203H522.867V208.812H529.383V210.203H527.07V210.875C527.07 213.383 527.914 215.703 530.008 216.781L528.992 218.109C527.648 217.383 526.766 216.141 526.266 214.609C525.789 216.367 524.906 217.781 523.508 218.609L522.445 217.281ZM549.398 215.266V216.672H543.773V221.375H542.055V216.672H536.492V215.266H549.398ZM538.07 213.609V207.984H547.82V213.609H538.07ZM539.773 212.25H546.086V209.375H539.773V212.25ZM559.133 209.516C559.133 211.289 560.281 212.969 562.461 213.656L561.523 215.016C560 214.5 558.906 213.469 558.289 212.156C557.68 213.656 556.539 214.836 554.914 215.406L553.977 214.047C556.25 213.258 557.391 211.375 557.398 209.359V208.016H559.133V209.516ZM555.898 218.688C555.898 217.016 557.734 216.023 560.68 216.031C563.602 216.023 565.406 217.016 565.414 218.688C565.406 220.398 563.602 221.375 560.68 221.375C557.734 221.375 555.898 220.398 555.898 218.688ZM557.633 218.688C557.633 219.562 558.742 220 560.68 220C562.609 220 563.695 219.562 563.695 218.688C563.695 217.859 562.609 217.391 560.68 217.391C558.742 217.391 557.633 217.859 557.633 218.688ZM563.539 215.719V207.266H565.273V210.703H567.242V212.141H565.273V215.719H563.539ZM574.164 208.797V210.188H570.133V212.5H573.914V213.859H570.133V216.609C571.883 216.594 573.094 216.531 574.523 216.312L574.664 217.734C573.016 218.016 571.633 218.07 569.43 218.062H568.477V208.797H574.164ZM575.383 220.703V207.516H577.023V212.812H578.477V207.266H580.148V221.391H578.477V214.219H577.023V220.703H575.383ZM440.523 236.25V237.656H439.273V241.664C439.789 241.625 440.305 241.578 440.789 241.516V240.25H442.727V239.031H440.789V237.641H442.727V235.266H444.461V243.922H442.727V241.641H440.828L440.898 242.797C438.203 243.242 435.086 243.289 432.836 243.297L432.648 241.859C433.141 241.859 433.68 241.859 434.242 241.852V237.656H433.008V236.25H440.523ZM434.883 246.781C434.867 245.117 436.688 244.172 439.68 244.172C442.695 244.172 444.5 245.117 444.508 246.781C444.5 248.406 442.695 249.375 439.68 249.375C436.688 249.375 434.867 248.406 434.883 246.781ZM435.93 241.828C436.477 241.812 437.039 241.789 437.602 241.766V237.656H435.93V241.828ZM436.602 246.781C436.594 247.602 437.703 248.031 439.68 248.031C441.664 248.031 442.773 247.602 442.773 246.781C442.773 245.945 441.664 245.5 439.68 245.5C437.703 245.5 436.594 245.945 436.602 246.781ZM457.523 235.266V240.781H459.617V242.234H457.523V249.359H455.789V235.266H457.523ZM446.383 245.5C449.82 243.781 451.68 241.391 452.023 238.172H447.148V236.734H453.789C453.781 240.883 452.062 244.531 447.367 246.844L446.383 245.5ZM463.039 246.891L461.727 251.266H460.242L461.055 246.891H463.039ZM479.352 235.266V240H481.258V241.438H479.352V246.297H477.617V235.266H479.352ZM468.039 243.469C469.094 243.469 470.32 243.461 471.602 243.422V242.523C470.031 242.328 469.031 241.555 469.039 240.422C469.031 239.039 470.398 238.219 472.445 238.234C474.5 238.219 475.852 239.039 475.852 240.422C475.852 241.547 474.883 242.312 473.336 242.523V243.336C474.539 243.266 475.75 243.156 476.883 242.984L477.023 244.203C474.031 244.766 470.664 244.805 468.227 244.828L468.039 243.469ZM468.398 237.766V236.5H471.602V235.219H473.336V236.5H476.508V237.766H468.398ZM470.07 249.109V245.562H471.805V247.703H479.852V249.109H470.07ZM470.711 240.422C470.695 241.031 471.352 241.391 472.445 241.391C473.539 241.391 474.195 241.031 474.195 240.422C474.195 239.758 473.539 239.398 472.445 239.406C471.352 239.398 470.695 239.758 470.711 240.422ZM493.82 235.281V243.531H492.086V241.969H488.727V240.562H492.086V239.047H488.859C487.969 241.289 485.906 242.859 482.836 243.719L482.133 242.344C485.438 241.453 487.203 239.773 487.469 237.672H482.883V236.266H489.367C489.367 236.758 489.328 237.227 489.25 237.672H492.086V235.281H493.82ZM484.352 246.5C484.352 244.766 486.25 243.695 489.148 243.688C492.008 243.695 493.914 244.766 493.914 246.5C493.914 248.234 492.008 249.32 489.148 249.312C486.25 249.32 484.352 248.234 484.352 246.5ZM486.086 246.5C486.086 247.43 487.25 247.938 489.148 247.938C491.016 247.938 492.172 247.43 492.18 246.5C492.172 245.555 491.016 245.047 489.148 245.047C487.25 245.047 486.086 245.555 486.086 246.5ZM497.539 244.266C496.867 244.266 496.312 243.719 496.32 243.047C496.312 242.391 496.867 241.852 497.539 241.844C498.188 241.852 498.742 242.391 498.742 243.047C498.742 243.719 498.188 244.266 497.539 244.266ZM511.32 235.266V239.406H513.289V240.844H511.32V245.594H509.586V235.266H511.32ZM500.336 239.766C500.328 237.68 502 236.211 504.148 236.203C506.297 236.211 507.945 237.68 507.961 239.766C507.945 241.82 506.297 243.312 504.148 243.312C502 243.312 500.328 241.82 500.336 239.766ZM502.039 239.766C502.031 240.984 502.969 241.789 504.148 241.781C505.344 241.789 506.25 240.984 506.258 239.766C506.25 238.516 505.344 237.719 504.148 237.719C502.969 237.719 502.031 238.516 502.039 239.766ZM502.273 249.109V244.516H504.008V247.703H511.883V249.109H502.273ZM525.836 235.281V243.531H524.102V241.969H520.742V240.562H524.102V239.047H520.875C519.984 241.289 517.922 242.859 514.852 243.719L514.148 242.344C517.453 241.453 519.219 239.773 519.484 237.672H514.898V236.266H521.383C521.383 236.758 521.344 237.227 521.266 237.672H524.102V235.281H525.836ZM516.367 246.5C516.367 244.766 518.266 243.695 521.164 243.688C524.023 243.695 525.93 244.766 525.93 246.5C525.93 248.234 524.023 249.32 521.164 249.312C518.266 249.32 516.367 248.234 516.367 246.5ZM518.102 246.5C518.102 247.43 519.266 247.938 521.164 247.938C523.031 247.938 524.188 247.43 524.195 246.5C524.188 245.555 523.031 245.047 521.164 245.047C519.266 245.047 518.102 245.555 518.102 246.5ZM529.555 244.266C528.883 244.266 528.328 243.719 528.336 243.047C528.328 242.391 528.883 241.852 529.555 241.844C530.203 241.852 530.758 242.391 530.758 243.047C530.758 243.719 530.203 244.266 529.555 244.266ZM545.102 246.266V247.688H532.195V246.266H537.758V243.516H533.617V236.203H535.352V238.516H541.898V236.203H543.633V243.516H539.477V246.266H545.102ZM535.352 242.109H541.898V239.906H535.352V242.109ZM557.852 235.281V245.641H556.117V240.891H553.398V239.453H556.117V235.281H557.852ZM546.211 242.766C549.25 241.805 551.258 240 551.594 237.766H546.945V236.344H553.492C553.492 240.07 551.031 242.852 546.945 244.156L546.211 242.766ZM548.648 249.109V244.594H550.414V247.703H558.211V249.109H548.648ZM571.539 236.25V237.656H570.289V241.664C570.805 241.625 571.32 241.578 571.805 241.516V240.25H573.742V239.031H571.805V237.641H573.742V235.266H575.477V243.922H573.742V241.641H571.844L571.914 242.797C569.219 243.242 566.102 243.289 563.852 243.297L563.664 241.859C564.156 241.859 564.695 241.859 565.258 241.852V237.656H564.023V236.25H571.539ZM565.898 246.781C565.883 245.117 567.703 244.172 570.695 244.172C573.711 244.172 575.516 245.117 575.523 246.781C575.516 248.406 573.711 249.375 570.695 249.375C567.703 249.375 565.883 248.406 565.898 246.781ZM566.945 241.828C567.492 241.812 568.055 241.789 568.617 241.766V237.656H566.945V241.828ZM567.617 246.781C567.609 247.602 568.719 248.031 570.695 248.031C572.68 248.031 573.789 247.602 573.789 246.781C573.789 245.945 572.68 245.5 570.695 245.5C568.719 245.5 567.609 245.945 567.617 246.781ZM588.539 235.266V240.781H590.633V242.234H588.539V249.359H586.805V235.266H588.539ZM577.398 245.5C580.836 243.781 582.695 241.391 583.039 238.172H578.164V236.734H584.805C584.797 240.883 583.078 244.531 578.383 246.844L577.398 245.5Z" fill="#282828"/>
<rect x="512" y="48" width="52" height="52" rx="8" transform="rotate(45 512 48)" fill="#4B84F0"/>
<path d="M500.023 87.36V81.22C500.023 77.92 501.823 76.16 505.103 76.16C508.403 76.16 510.203 77.92 510.203 81.22V87.36C510.203 90.66 508.403 92.42 505.103 92.42C501.823 92.42 500.023 90.66 500.023 87.36ZM507.423 86.72V81.86C507.423 79.4 506.643 78.32 505.103 78.32C503.563 78.32 502.803 79.4 502.803 81.86V86.72C502.803 89.18 503.563 90.24 505.103 90.24C506.643 90.24 507.423 89.18 507.423 86.72ZM521.74 89.8L521.42 92.06H511.86V89.58C512.02 89.42 513.64 87.84 514.4 87.06C516.54 84.86 518.58 82.76 518.58 80.82C518.58 79.46 517.64 78.5 515.9 78.5H512.22V76.24H516.58C519.56 76.24 521.4 77.92 521.4 80.86C521.4 83.18 519.5 85.46 517.74 87.36C516.92 88.2 515.46 89.66 515.3 89.8H521.74Z" fill="white"/>
<path d="M114.273 166.7V179.64L111.553 180.04V167.1L114.273 166.7ZM114.393 184.92H102.653V179.14H105.433V182.92H114.793L114.393 184.92ZM105.773 167.08V170.8C105.773 171.22 105.853 171.68 106.133 171.98C107.373 173.36 108.713 174.88 110.113 176.22L108.513 177.76C107.093 176.46 105.613 174.98 104.393 173.64C103.173 175.04 101.533 176.82 100.073 178.2L98.3934 176.74C99.7934 175.32 101.273 173.74 102.493 172.14C102.753 171.8 102.933 171.34 102.933 170.92V167.48L105.773 167.08ZM116.997 175.16H128.377C128.697 173.52 128.997 171.16 129.077 169.56H119.117V167.56H131.977C131.897 169.7 131.717 172.6 131.157 175.16H134.337L133.937 177.16H130.417V184.6L127.677 185V177.16H123.937V184.52L121.197 184.92V177.16H116.997V175.16ZM155.505 173.62H143.365V167.18H155.545V169.16H146.145V171.66H156.105L155.505 173.62ZM158.145 175.1L157.745 177.04H140.805V175.1H158.145ZM151.665 178.32C153.905 178.32 155.925 179.16 155.925 181.84C155.925 184.52 153.905 185.36 151.665 185.36H147.245C145.005 185.36 142.985 184.52 142.985 181.84C142.985 179.16 145.005 178.32 147.245 178.32H151.665ZM151.565 180.32H147.365C146.465 180.32 145.665 180.7 145.665 181.84C145.665 182.98 146.465 183.36 147.365 183.36H151.565C152.465 183.36 153.245 182.98 153.245 181.84C153.245 180.7 152.465 180.32 151.565 180.32ZM159.008 176.34H166.368V175H161.608V170.18H170.928V169.12H161.528V167.22H173.688V172.04H164.388V173.12H174.148L173.748 175H169.248V176.34H176.348L175.948 178.24H159.008V176.34ZM161.448 179.38H173.688V184.96L170.928 185.36V181.36H161.448V179.38ZM194.397 166.98V173.06H196.197V167.1L198.717 166.7V184.6L196.197 185V175.08H194.397V184.02L191.917 184.42V167.38L194.397 166.98ZM190.137 169.98H186.557V178.1H187.577C188.737 178.1 190.037 178.02 191.177 177.76V179.7C190.017 179.94 188.617 180.04 187.157 180.04H183.997V168H190.137V169.98ZM212.3 178.06C214.48 178.06 216.46 178.94 216.46 181.64C216.46 184.36 214.48 185.24 212.3 185.24H208.02C205.76 185.24 203.74 184.36 203.74 181.64C203.74 178.94 205.76 178.06 208.02 178.06H212.3ZM208 167.08V170.52C208 170.94 208.08 171.4 208.36 171.7C209.6 173.08 210.94 174.4 212.34 175.58L210.74 177.12C209.32 175.98 207.84 174.7 206.62 173.36C205.4 174.76 203.76 176.32 202.3 177.56L200.62 176.1C202.02 174.84 203.5 173.46 204.72 171.86C204.98 171.52 205.16 171.06 205.16 170.64V167.48L208 167.08ZM216.2 166.7V171.5H219.08L218.68 173.52H216.2V177.34L213.46 177.74V167.1L216.2 166.7ZM212.04 180.04H208.24C207.16 180.04 206.42 180.48 206.42 181.64C206.42 182.82 207.16 183.26 208.24 183.26H212.04C213.04 183.26 213.78 182.82 213.78 181.64C213.78 180.48 213.04 180.04 212.04 180.04ZM237.789 170.58V167.1L240.489 166.7V176.6L237.789 177V172.62H235.089C234.769 174.94 232.649 176.16 230.269 176.16C227.689 176.16 225.409 174.72 225.409 172.04V171.22C225.409 168.54 227.689 167.1 230.269 167.1C232.629 167.1 234.749 168.32 235.069 170.58H237.789ZM240.489 184.5L237.789 185H228.689V177.5H231.469V179.38H237.749V177.5H240.489V184.5ZM232.429 171.96V171.3C232.429 169.9 231.489 169.1 230.269 169.1C229.049 169.1 228.109 169.9 228.109 171.3V171.96C228.109 173.36 229.049 174.16 230.269 174.16C231.489 174.16 232.429 173.36 232.429 171.96ZM231.469 183.04H237.749V181.32H231.469V183.04ZM246.292 174.68C246.432 174.36 246.452 173.78 246.452 173.36V171.2H243.432V169.26H246.452V167.32L249.052 166.92V169.26H251.872L251.572 171.2H249.052V173.3C249.052 173.72 249.032 174.22 249.192 174.58C249.712 175.74 251.252 178.02 252.312 179.34L250.592 180.82C249.772 179.76 248.612 178.18 247.832 176.96C246.972 178.32 245.852 179.92 244.752 181.24L243.012 179.8C244.392 178.14 245.672 176.02 246.292 174.68ZM252.772 167.38L255.252 166.98V184.02L252.772 184.42V175.06H250.552V172.98H252.772V167.38ZM256.332 167.1L258.872 166.7V184.6L256.332 185V167.1ZM274.02 167.3V171.54C274.02 171.96 274.1 172.42 274.38 172.72C275.62 174.1 276.96 175.5 278.36 176.8L276.76 178.34C275.34 177.08 273.86 175.72 272.64 174.38C271.42 175.78 269.8 177.48 268.32 178.78L266.64 177.32C268.06 175.98 269.52 174.48 270.74 172.88C271 172.54 271.18 172.08 271.18 171.66V167.7L274.02 167.3ZM279.8 180.08V172.22H276V170.24H279.8V167.1L282.52 166.7V179.68L279.8 180.08ZM282.64 184.92H270.9V179.14H273.68V182.92H283.04L282.64 184.92ZM296.623 178.06C298.803 178.06 300.783 178.94 300.783 181.64C300.783 184.36 298.803 185.24 296.623 185.24H292.343C290.083 185.24 288.063 184.36 288.063 181.64C288.063 178.94 290.083 178.06 292.343 178.06H296.623ZM296.103 167.56L295.703 169.56H292.483V170.88C292.483 171.3 292.563 171.76 292.843 172.06C294.083 173.44 295.343 174.62 296.743 175.8L295.143 177.34C293.723 176.2 292.383 175.02 291.123 173.72C289.863 175.1 288.363 176.54 286.903 177.78L285.223 176.32C286.623 175.06 288.063 173.82 289.283 172.22C289.543 171.88 289.723 171.42 289.723 171V169.56H286.143V167.56H296.103ZM298.003 177.82V172.9H294.583V170.92H298.003V167.1L300.723 166.7V177.42L298.003 177.82ZM296.363 180.04H292.563C291.483 180.04 290.743 180.48 290.743 181.64C290.743 182.82 291.483 183.26 292.563 183.26H296.363C297.363 183.26 298.103 182.82 298.103 181.64C298.103 180.48 297.363 180.04 296.363 180.04Z" fill="#2856CE"/>
<path d="M132.75 207.266V221.391H131.016V214.203H128.031V212.781H131.016V207.266H132.75ZM120.828 217.484C124.484 215.688 126.055 213.305 126.344 210.141H121.484V208.766H128.094C128.078 212.938 126.602 216.445 121.734 218.844L120.828 217.484ZM140.5 208.703V213.969H136.844V216.719C138.273 216.703 139.641 216.648 141.219 216.391L141.344 217.797C139.438 218.117 137.891 218.164 136.141 218.172H135.172V212.562H138.828V210.109H135.156V208.703H140.5ZM142.062 220.672V207.531H143.656V212.688H145.25V207.266H146.906V221.391H145.25V214.094H143.656V220.672H142.062ZM163.438 207.266V212.781H165.531V214.234H163.438V221.359H161.703V207.266H163.438ZM152.297 217.5C155.734 215.781 157.594 213.391 157.938 210.172H153.062V208.734H159.703C159.695 212.883 157.977 216.531 153.281 218.844L152.297 217.5ZM177.625 210.938V212.344H167.875V207.516H169.609V210.938H177.625ZM166.203 215.109V213.703H179.094V215.109H166.203ZM167.703 218.734C167.703 217.07 169.555 216.133 172.625 216.125C175.672 216.133 177.508 217.07 177.516 218.734C177.508 220.391 175.672 221.328 172.625 221.328C169.555 221.328 167.703 220.391 167.703 218.734ZM169.469 218.734C169.461 219.547 170.57 219.992 172.625 220C174.648 219.992 175.766 219.547 175.781 218.734C175.766 217.898 174.648 217.492 172.625 217.484C170.57 217.492 169.461 217.898 169.469 218.734ZM187.75 207.891C189.578 207.883 191.016 208.938 191.367 210.484H193.922V207.266H195.656V214.844H193.922V211.891H191.383C191.047 213.477 189.594 214.547 187.75 214.547C185.586 214.547 184.016 213.156 184.016 211.203C184.016 209.273 185.586 207.883 187.75 207.891ZM185.672 211.203C185.672 212.336 186.531 213.086 187.75 213.078C188.938 213.086 189.789 212.336 189.797 211.203C189.789 210.07 188.938 209.336 187.75 209.344C186.531 209.336 185.672 210.07 185.672 211.203ZM186.344 221.219V215.5H188.062V217H193.922V215.5H195.656V221.219H186.344ZM188.062 219.812H193.922V218.344H188.062V219.812ZM201.969 211.578C201.969 213.766 202.867 215.969 204.844 217.031L203.875 218.312C202.562 217.617 201.672 216.375 201.164 214.891C200.664 216.492 199.773 217.867 198.453 218.641L197.438 217.328C199.438 216.172 200.32 213.812 200.328 211.578V211.141H197.922V209.734H200.328V207.766H201.969V209.734H204.328V211.141H201.969V211.578ZM203.453 214.125V212.688H205.297V207.531H206.938V220.703H205.297V214.125H203.453ZM208.156 221.391V207.266H209.812V221.391H208.156ZM215.859 220V208.688H220.109C222.703 208.688 224.086 210.266 224.094 212.438C224.086 214.602 222.688 216.172 220.078 216.172H217.891V220H215.859ZM217.891 214.5H219.797C221.328 214.492 222.016 213.633 222.016 212.438C222.016 211.227 221.328 210.391 219.797 210.391H217.891V214.5ZM229.219 220.172C226.742 220.172 225.156 218.414 225.156 215.797C225.156 213.156 226.742 211.406 229.219 211.406C231.703 211.406 233.289 213.156 233.281 215.797C233.289 218.414 231.703 220.172 229.219 220.172ZM227.172 215.781C227.172 217.336 227.852 218.578 229.234 218.578C230.594 218.578 231.273 217.336 231.266 215.781C231.273 214.227 230.594 212.977 229.234 212.984C227.852 212.977 227.172 214.227 227.172 215.781ZM238.531 220.172C236.055 220.172 234.469 218.414 234.469 215.797C234.469 213.156 236.055 211.406 238.531 211.406C241.016 211.406 242.602 213.156 242.594 215.797C242.602 218.414 241.016 220.172 238.531 220.172ZM236.484 215.781C236.484 217.336 237.164 218.578 238.547 218.578C239.906 218.578 240.586 217.336 240.578 215.781C240.586 214.227 239.906 212.977 238.547 212.984C237.164 212.977 236.484 214.227 236.484 215.781ZM246.141 208.688V220H244.141V208.688H246.141ZM262.547 207.281V211.391H264.453V212.828H262.547V216.828H260.812V207.281H262.547ZM251.234 215.141C252.297 215.141 253.523 215.133 254.797 215.102V214.234C253.227 214.039 252.227 213.281 252.234 212.172C252.227 210.867 253.594 210.07 255.641 210.078C257.695 210.07 259.047 210.867 259.047 212.172C259.047 213.273 258.078 214.023 256.531 214.227V215.039C257.734 214.977 258.945 214.883 260.078 214.734L260.219 215.938C257.211 216.469 253.906 216.5 251.422 216.5L251.234 215.141ZM251.594 209.672V208.391H254.797V207.156H256.531V208.391H259.703V209.672H251.594ZM253.016 218.797V217.438H262.547V221.391H260.812V218.797H253.016ZM253.906 212.172C253.891 212.758 254.547 213.125 255.641 213.109C256.734 213.125 257.391 212.758 257.391 212.172C257.391 211.555 256.734 211.242 255.641 211.25C254.547 211.242 253.891 211.555 253.906 212.172ZM278.094 218.266V219.688H265.188V218.266H270.75V215.516H266.609V208.203H268.344V210.516H274.891V208.203H276.625V215.516H272.469V218.266H278.094ZM268.344 214.109H274.891V211.906H268.344V214.109Z" fill="#282828"/>
<rect x="200" y="48" width="52" height="52" rx="8" transform="rotate(45 200 48)" fill="#4B84F0"/>
<path d="M188.023 87.36V81.22C188.023 77.92 189.823 76.16 193.103 76.16C196.403 76.16 198.203 77.92 198.203 81.22V87.36C198.203 90.66 196.403 92.42 193.103 92.42C189.823 92.42 188.023 90.66 188.023 87.36ZM195.423 86.72V81.86C195.423 79.4 194.643 78.32 193.103 78.32C191.563 78.32 190.803 79.4 190.803 81.86V86.72C190.803 89.18 191.563 90.24 193.103 90.24C194.643 90.24 195.423 89.18 195.423 86.72ZM207.52 76.52V91.92L204.7 92.34V78.76H201.9V76.52H207.52Z" fill="white"/>
</svg>
