<svg width="299" height="338" viewBox="0 0 299 338" fill="none" xmlns="http://www.w3.org/2000/svg">
<rect y="179" width="194" height="50" rx="9.95068" fill="#FF8D24"/>
<path d="M68.291 207.864H74.083V204.792H70.371V197.576H80.147V204.392L77.939 204.792H76.387V207.864H82.163L81.843 209.496H68.291V207.864ZM72.595 203.192H77.939V199.16H72.595V203.192ZM92.5495 205.256V206.872C91.1735 207.128 89.4295 207.272 87.5895 207.272H84.1655V197.672H86.3735V205.688H87.5895C89.2375 205.688 91.1095 205.528 92.5495 205.256ZM95.3815 196.76V211.08L93.2055 211.4V197.08L95.3815 196.76ZM106.728 205.592V207.192C105.48 207.464 103.704 207.56 102.088 207.56H98.472V197.672H105.304V199.256H100.696V201.784H104.84V203.384H100.696V205.96H102.296C103.576 205.96 105.256 205.912 106.728 205.592ZM109.944 196.76V211.08L107.768 211.4V203.096H105.576V201.48H107.768V197.08L109.944 196.76ZM117.979 200.504V199.08H113.099V197.48H120.171V202.072H115.323V203.496H116.475C117.915 203.496 120.139 203.416 121.675 203.128V204.712C120.027 205 117.771 205.096 116.283 205.096H113.099V200.504H117.979ZM124.507 196.76V205.256L122.331 205.576V197.08L124.507 196.76ZM121.243 205.848C122.987 205.848 124.571 206.552 124.571 208.712C124.571 210.888 122.987 211.592 121.243 211.592H117.819C116.011 211.592 114.395 210.888 114.395 208.712C114.395 206.552 116.011 205.848 117.819 205.848H121.243ZM121.035 207.432H117.995C117.131 207.432 116.539 207.784 116.539 208.712C116.539 209.656 117.131 210.008 117.995 210.008H121.035C121.835 210.008 122.427 209.656 122.427 208.712C122.427 207.784 121.835 207.432 121.035 207.432Z" fill="white"/>
<rect x="0.310959" y="254.311" width="92.3781" height="83.3781" rx="7.68904" fill="#F5F5F5"/>
<path d="M33.0605 286.199H31.543V283.178H29.4375V281.934H31.543V278.857H33.0605V286.199ZM22.6699 284.969C23.3125 284.75 23.8617 284.433 24.3174 284.019C24.7777 283.604 25.124 283.134 25.3564 282.61C25.5889 282.086 25.7051 281.546 25.7051 280.99V280.895H23.1348V279.664H29.8066V280.895H27.25V280.977C27.25 281.487 27.3617 281.984 27.585 282.467C27.8083 282.945 28.1387 283.376 28.5762 283.759C29.0137 284.137 29.5423 284.431 30.1621 284.641L29.3965 285.844C28.7266 285.616 28.1478 285.281 27.6602 284.839C27.1725 284.392 26.7874 283.87 26.5049 283.273C26.2269 283.948 25.8304 284.536 25.3154 285.037C24.8005 285.538 24.1829 285.917 23.4629 286.172L22.6699 284.969ZM24.6797 288.865C24.6751 288.378 24.8415 287.958 25.1787 287.607C25.516 287.252 25.999 286.981 26.6279 286.794C27.2614 286.607 28.0111 286.514 28.877 286.514C29.7474 286.514 30.4993 286.607 31.1328 286.794C31.7663 286.981 32.2516 287.25 32.5889 287.601C32.9307 287.951 33.1016 288.373 33.1016 288.865C33.1016 289.357 32.9307 289.779 32.5889 290.13C32.2516 290.481 31.7663 290.75 31.1328 290.937C30.4993 291.123 29.7474 291.217 28.877 291.217C28.0111 291.217 27.2614 291.123 26.6279 290.937C25.999 290.75 25.516 290.479 25.1787 290.123C24.8415 289.772 24.6751 289.353 24.6797 288.865ZM26.1836 288.865C26.179 289.243 26.4069 289.535 26.8672 289.74C27.332 289.941 27.9883 290.041 28.8359 290.041C29.7201 290.041 30.3991 289.941 30.873 289.74C31.347 289.54 31.584 289.248 31.584 288.865C31.584 288.482 31.3493 288.188 30.8799 287.983C30.415 287.778 29.7474 287.676 28.877 287.676C28.0156 287.676 27.3503 287.778 26.8809 287.983C26.4115 288.188 26.179 288.482 26.1836 288.865ZM46.1035 289.727H34.8105V288.482H39.6777V286.076H36.0547V279.678H37.5723V281.701H43.3008V279.678H44.8184V286.076H41.1816V288.482H46.1035V289.727ZM43.3008 284.846V282.918H37.5723V284.846H43.3008ZM58.2031 289.727H46.9102V288.482H51.7773V286.076H48.1543V279.678H49.6719V281.701H55.4004V279.678H56.918V286.076H53.2812V288.482H58.2031V289.727ZM55.4004 284.846V282.918H49.6719V284.846H55.4004ZM69.7285 281.742H59.5156V280.512H63.877V279.021H65.3809V280.512H69.7285V281.742ZM59.0098 288.66H63.877V287.143C63.166 287.088 62.5531 286.958 62.0381 286.753C61.5277 286.548 61.1357 286.277 60.8623 285.939C60.5934 285.598 60.459 285.201 60.459 284.75C60.459 284.258 60.6253 283.834 60.958 283.479C61.2952 283.118 61.776 282.845 62.4004 282.658C63.0293 282.467 63.7721 282.371 64.6289 282.371C65.472 282.371 66.2057 282.467 66.8301 282.658C67.459 282.845 67.9421 283.118 68.2793 283.479C68.6165 283.834 68.7852 284.258 68.7852 284.75C68.7852 285.197 68.6484 285.591 68.375 285.933C68.1016 286.27 67.7096 286.541 67.1992 286.746C66.6888 286.951 66.0827 287.083 65.3809 287.143V288.66H70.3027V289.891H59.0098V288.66ZM62.0176 284.75C62.013 285.142 62.234 285.44 62.6807 285.646C63.1318 285.846 63.7812 285.949 64.6289 285.953C65.4629 285.949 66.1032 285.846 66.5498 285.646C67.001 285.44 67.2266 285.142 67.2266 284.75C67.2266 284.363 67.001 284.069 66.5498 283.868C66.1032 283.668 65.4629 283.565 64.6289 283.561C63.7812 283.565 63.1318 283.668 62.6807 283.868C62.234 284.069 62.013 284.363 62.0176 284.75ZM32.9648 302.635H29.3828C29.4284 303.027 29.6221 303.403 29.9639 303.763C30.3057 304.118 30.7728 304.424 31.3652 304.679C31.9577 304.929 32.6413 305.1 33.416 305.191L32.8418 306.395C31.748 306.262 30.807 305.968 30.0186 305.513C29.2301 305.057 28.6673 304.492 28.3301 303.817C27.9928 304.492 27.4323 305.057 26.6484 305.513C25.8646 305.968 24.9258 306.262 23.832 306.395L23.2715 305.191C24.0417 305.1 24.723 304.927 25.3154 304.672C25.9079 304.417 26.3727 304.111 26.71 303.756C27.0472 303.4 27.2409 303.027 27.291 302.635H23.7363V301.418H32.9648V302.635ZM22.6973 307.078H33.9902V308.309H29.2188V310.564H27.7148V308.309H22.6973V307.078ZM24.0645 309.43H25.582V311.74H32.7461V312.971H24.0645V309.43ZM41.25 301.883C41.2454 302.402 41.4255 302.908 41.79 303.4C42.1592 303.893 42.6764 304.314 43.3418 304.665C44.0117 305.016 44.7728 305.246 45.625 305.355L45.0234 306.586C43.9844 306.431 43.0638 306.112 42.2617 305.629C41.4596 305.141 40.8558 304.547 40.4502 303.845C40.0446 304.547 39.443 305.141 38.6455 305.629C37.848 306.112 36.9342 306.431 35.9043 306.586L35.3027 305.355C36.1504 305.246 36.9046 305.016 37.5654 304.665C38.2262 304.314 38.7389 303.895 39.1035 303.407C39.4681 302.915 39.6504 302.407 39.6504 301.883V301.254H41.25V301.883ZM34.8105 307.652H46.0762V308.91H41.168V313.217H39.6641V308.91H34.8105V307.652ZM57.2598 308.035H55.7422V305.041H53.6094V303.797H55.7422V300.857H57.2598V308.035ZM46.8828 306.805C47.5208 306.595 48.0654 306.287 48.5166 305.882C48.9723 305.476 49.3164 305.014 49.5488 304.494C49.7858 303.97 49.9043 303.432 49.9043 302.881V302.785H47.334V301.555H54.0059V302.785H51.4492V302.895C51.4492 303.4 51.5609 303.893 51.7842 304.371C52.0075 304.85 52.3379 305.283 52.7754 305.67C53.2129 306.053 53.7415 306.349 54.3613 306.559L53.5957 307.762C52.9212 307.529 52.3379 307.192 51.8457 306.75C51.3581 306.303 50.9753 305.779 50.6973 305.178C50.4147 305.843 50.016 306.42 49.501 306.907C48.9906 307.395 48.3776 307.757 47.6621 307.994L46.8828 306.805ZM49.043 308.568H57.2598V313.066H49.043V308.568ZM55.7695 311.836V309.771H50.5605V311.836H55.7695ZM65.4082 301.609C65.4082 302.662 65.1826 303.612 64.7314 304.46C64.2848 305.303 63.6354 306.025 62.7832 306.627C61.9355 307.229 60.9102 307.698 59.707 308.035L59.0918 306.846C60.4681 306.472 61.5573 305.939 62.3594 305.246C63.166 304.549 63.64 303.747 63.7812 302.84H59.7617V301.609H65.4082ZM61.2246 308.322H69.3594V313.053H61.2246V308.322ZM67.8555 311.85V309.525H62.7148V311.85H67.8555ZM65.4629 303.893H67.8418V300.871H69.3594V307.83H67.8418V305.137H65.4629V303.893Z" fill="#222222"/>
<rect x="0.310959" y="254.311" width="92.3781" height="83.3781" rx="7.68904" stroke="#E1E6EF" stroke-width="0.621918"/>
<rect x="46" y="241" width="1" height="13" fill="#C4C4C4"/>
<rect x="101.311" y="254.311" width="92.3781" height="83.3781" rx="7.68904" fill="#F5F5F5"/>
<path d="M124.148 290H122.371V280.102H124.148V290ZM125.557 280.102H133.445V281.592H130.396V290H128.619V281.592H125.557V280.102ZM147.951 287.799H146.42V278.871H147.951V287.799ZM137.875 282.768C137.875 282.18 138.021 281.651 138.312 281.182C138.609 280.712 139.01 280.345 139.516 280.081C140.026 279.812 140.591 279.678 141.211 279.678C141.831 279.678 142.394 279.812 142.899 280.081C143.41 280.345 143.809 280.712 144.096 281.182C144.387 281.651 144.533 282.18 144.533 282.768C144.533 283.365 144.387 283.9 144.096 284.374C143.809 284.843 143.41 285.21 142.899 285.475C142.394 285.739 141.831 285.871 141.211 285.871C140.591 285.871 140.026 285.739 139.516 285.475C139.01 285.21 138.609 284.843 138.312 284.374C138.021 283.9 137.875 283.365 137.875 282.768ZM139.365 282.768C139.365 283.123 139.443 283.435 139.598 283.704C139.757 283.973 139.976 284.18 140.254 284.326C140.536 284.472 140.855 284.545 141.211 284.545C141.557 284.545 141.869 284.472 142.147 284.326C142.425 284.18 142.644 283.973 142.804 283.704C142.963 283.435 143.043 283.123 143.043 282.768C143.043 282.421 142.963 282.114 142.804 281.845C142.644 281.576 142.423 281.368 142.141 281.223C141.863 281.077 141.553 281.004 141.211 281.004C140.86 281.004 140.543 281.077 140.261 281.223C139.978 281.368 139.757 281.576 139.598 281.845C139.443 282.114 139.365 282.421 139.365 282.768ZM139.775 286.896H141.307V289.74H148.293V290.971H139.775V286.896ZM161.049 289.727H149.756V288.455H161.049V289.727ZM150.686 280.006H160.064V281.223H158.26V285.16H160.023V286.363H150.727V285.16H152.463V281.223H150.686V280.006ZM156.756 285.16V281.223H153.98V285.16H156.756ZM171.535 283.602H173.436V284.873H171.535V291.23H170.031V278.857H171.535V283.602ZM162.348 279.938H168.035V284.6H163.879V287.061C164.927 287.051 165.852 287.02 166.654 286.965C167.456 286.906 168.268 286.805 169.088 286.664L169.225 287.895C168.318 288.059 167.418 288.17 166.524 288.229C165.636 288.289 164.59 288.318 163.387 288.318H162.375V283.383H166.518V281.168H162.348V279.938ZM135.004 311.727H123.711V310.482H128.578V308.076H124.955V301.678H126.473V303.701H132.201V301.678H133.719V308.076H130.082V310.482H135.004V311.727ZM132.201 306.846V304.918H126.473V306.846H132.201ZM145.559 304.48H147.281V305.738H145.559V309.895H144.041V300.857H145.559V304.48ZM135.947 304.795C135.947 304.198 136.093 303.662 136.385 303.188C136.676 302.715 137.075 302.345 137.581 302.081C138.091 301.812 138.659 301.678 139.283 301.678C139.903 301.678 140.466 301.812 140.972 302.081C141.482 302.345 141.883 302.715 142.175 303.188C142.466 303.662 142.615 304.198 142.619 304.795C142.615 305.383 142.464 305.914 142.168 306.388C141.876 306.862 141.478 307.233 140.972 307.502C140.466 307.766 139.903 307.898 139.283 307.898C138.663 307.898 138.098 307.766 137.588 307.502C137.077 307.233 136.676 306.862 136.385 306.388C136.093 305.914 135.947 305.383 135.947 304.795ZM137.438 304.795C137.438 305.141 137.517 305.449 137.677 305.718C137.841 305.987 138.064 306.194 138.347 306.34C138.629 306.486 138.941 306.559 139.283 306.559C139.63 306.559 139.942 306.486 140.22 306.34C140.502 306.194 140.723 305.989 140.883 305.725C141.047 305.456 141.129 305.146 141.129 304.795C141.129 304.439 141.047 304.127 140.883 303.858C140.723 303.585 140.502 303.375 140.22 303.229C139.942 303.079 139.63 303.004 139.283 303.004C138.937 303.004 138.622 303.079 138.34 303.229C138.062 303.375 137.841 303.585 137.677 303.858C137.517 304.127 137.438 304.439 137.438 304.795ZM137.643 308.951H139.16V311.74H146.051V312.971H137.643V308.951ZM154.814 302.512V302.676C154.805 303.286 154.783 303.858 154.746 304.392C154.71 304.92 154.632 305.506 154.514 306.148L153.01 306.012C153.119 305.438 153.194 304.913 153.235 304.439C153.281 303.965 153.308 303.496 153.317 303.031H148.512V301.773H154.814V302.512ZM148.026 307.133C149.02 307.124 149.742 307.115 150.193 307.105V304.59H151.697V307.058C153.16 306.994 154.423 306.887 155.484 306.736L155.566 307.83C154.423 308.035 153.222 308.172 151.964 308.24C150.706 308.309 149.355 308.345 147.91 308.35L147.773 307.133H148.026ZM149.619 309.293H151.15V311.74H158.164V312.971H149.619V309.293ZM156.209 300.857H157.768V304.713H159.367V305.984H157.768V310.113H156.209V300.857ZM170.305 313.23H168.801V300.857H170.305V313.23ZM160.68 301.938H166.504V306.572H162.252V309.061C163.282 309.051 164.234 309.015 165.109 308.951C165.984 308.887 166.882 308.778 167.803 308.623L167.939 309.867C166.982 310.031 166.039 310.145 165.109 310.209C164.184 310.273 163.154 310.305 162.02 310.305H161.773H160.693V305.369H164.959V303.168H160.68V301.938Z" fill="#222222"/>
<rect x="101.311" y="254.311" width="92.3781" height="83.3781" rx="7.68904" stroke="#E1E6EF" stroke-width="0.621918"/>
<rect x="147" y="241" width="1" height="13" fill="#C4C4C4"/>
<rect x="97" y="229" width="1" height="12" fill="#C4C4C4"/>
<rect x="148" y="241" width="1" height="102" transform="rotate(90 148 241)" fill="#C4C4C4"/>
<rect x="206" y="179" width="93" height="50" rx="9.95068" fill="#FF8D24"/>
<path d="M223.791 207.864H229.679V205.256H225.871V197.224H228.079V199.688H233.327V197.224H235.535V204.856L233.327 205.256H231.983V207.864H237.663L237.343 209.496H223.791V207.864ZM228.079 203.624H233.327V201.32H228.079V203.624ZM246.354 200.696V201.624C246.354 203.768 244.562 204.92 242.546 204.92C240.53 204.92 238.738 203.768 238.738 201.624V200.696C238.738 198.552 240.53 197.4 242.546 197.4C244.562 197.4 246.354 198.552 246.354 200.696ZM248.29 197.08L250.498 196.76V200.488H252.802L252.482 202.168H250.498V206.952L248.29 207.272V197.08ZM250.706 211.336H241.202V206.68H243.41V209.736H251.026L250.706 211.336ZM244.194 201.56V200.76C244.194 199.64 243.474 199 242.546 199C241.618 199 240.898 199.64 240.898 200.76V201.56C240.898 202.68 241.618 203.32 242.546 203.32C243.474 203.32 244.194 202.68 244.194 201.56ZM262.18 205.848C263.924 205.848 265.508 206.552 265.508 208.712C265.508 210.888 263.924 211.592 262.18 211.592H258.756C256.948 211.592 255.332 210.888 255.332 208.712C255.332 206.552 256.948 205.848 258.756 205.848H262.18ZM261.444 199.048H258.868V199.944C258.868 200.28 258.932 200.648 259.156 200.888C260.148 201.992 261.156 202.936 262.276 203.88L260.996 205.112C259.86 204.2 258.788 203.256 257.78 202.216C256.772 203.32 255.572 204.472 254.404 205.464L253.06 204.296C254.18 203.288 255.332 202.296 256.308 201.016C256.516 200.744 256.66 200.376 256.66 200.04V199.048H253.796V197.448H261.764L261.444 199.048ZM265.46 196.76V205.272L263.284 205.592V197.08L265.46 196.76ZM261.972 207.432H258.932C258.068 207.432 257.476 207.784 257.476 208.712C257.476 209.656 258.068 210.008 258.932 210.008H261.972C262.772 210.008 263.364 209.656 263.364 208.712C263.364 207.784 262.772 207.432 261.972 207.432ZM275.271 197.304L277.223 196.984V210.616L275.271 210.936V205.56H273.287V203.976H275.271V201.656H273.767C273.143 204.552 271.511 206.856 269.111 208.296L267.879 206.92C270.535 205.368 271.943 202.44 271.943 199.656V199.384H268.471V197.8H274.055V198.936C274.055 199.32 274.039 199.688 274.007 200.056H275.271V197.304ZM278.119 197.08L280.151 196.76V211.08L278.119 211.4V197.08Z" fill="white"/>
<rect x="206.311" y="254.311" width="92.3781" height="83.3781" rx="7.68904" fill="#F5F5F5"/>
<path d="M240.004 289.727H228.711V288.482H233.578V286.076H229.955V279.678H231.473V281.701H237.201V279.678H238.719V286.076H235.082V288.482H240.004V289.727ZM237.201 284.846V282.918H231.473V284.846H237.201ZM250.559 282.48H252.281V283.738H250.559V287.895H249.041V278.857H250.559V282.48ZM240.947 282.795C240.947 282.198 241.093 281.662 241.385 281.188C241.676 280.715 242.075 280.345 242.581 280.081C243.091 279.812 243.659 279.678 244.283 279.678C244.903 279.678 245.466 279.812 245.972 280.081C246.482 280.345 246.883 280.715 247.175 281.188C247.466 281.662 247.615 282.198 247.619 282.795C247.615 283.383 247.464 283.914 247.168 284.388C246.876 284.862 246.478 285.233 245.972 285.502C245.466 285.766 244.903 285.898 244.283 285.898C243.663 285.898 243.098 285.766 242.588 285.502C242.077 285.233 241.676 284.862 241.385 284.388C241.093 283.914 240.947 283.383 240.947 282.795ZM242.438 282.795C242.438 283.141 242.517 283.449 242.677 283.718C242.841 283.987 243.064 284.194 243.347 284.34C243.629 284.486 243.941 284.559 244.283 284.559C244.63 284.559 244.942 284.486 245.22 284.34C245.502 284.194 245.723 283.989 245.883 283.725C246.047 283.456 246.129 283.146 246.129 282.795C246.129 282.439 246.047 282.127 245.883 281.858C245.723 281.585 245.502 281.375 245.22 281.229C244.942 281.079 244.63 281.004 244.283 281.004C243.937 281.004 243.622 281.079 243.34 281.229C243.062 281.375 242.841 281.585 242.677 281.858C242.517 282.127 242.438 282.439 242.438 282.795ZM242.643 286.951H244.16V289.74H251.051V290.971H242.643V286.951ZM263.205 286.24H261.674V278.871H263.205V286.24ZM253.006 284.9C253.653 284.686 254.204 284.379 254.66 283.978C255.12 283.572 255.469 283.112 255.706 282.597C255.943 282.082 256.064 281.546 256.068 280.99V280.977H253.402V279.746H260.197V280.977H257.6V280.99C257.6 281.505 257.716 282 257.948 282.474C258.181 282.948 258.525 283.369 258.98 283.738C259.436 284.107 259.983 284.39 260.621 284.586L259.842 285.775C259.158 285.561 258.563 285.238 258.058 284.805C257.552 284.372 257.155 283.861 256.868 283.273C256.586 283.934 256.182 284.511 255.658 285.003C255.139 285.491 254.519 285.857 253.799 286.104L253.006 284.9ZM254.797 288.865C254.797 288.368 254.965 287.942 255.303 287.587C255.645 287.227 256.132 286.953 256.766 286.767C257.399 286.58 258.151 286.486 259.021 286.486C259.887 286.486 260.635 286.58 261.264 286.767C261.897 286.953 262.382 287.227 262.72 287.587C263.062 287.942 263.232 288.368 263.232 288.865C263.232 289.362 263.062 289.788 262.72 290.144C262.382 290.499 261.897 290.768 261.264 290.95C260.635 291.137 259.887 291.23 259.021 291.23C258.151 291.23 257.399 291.137 256.766 290.95C256.132 290.768 255.645 290.499 255.303 290.144C254.965 289.788 254.797 289.362 254.797 288.865ZM256.328 288.865C256.328 289.248 256.556 289.542 257.012 289.747C257.472 289.952 258.128 290.055 258.98 290.055C259.86 290.055 260.539 289.954 261.018 289.754C261.496 289.549 261.738 289.253 261.742 288.865C261.738 288.487 261.498 288.195 261.024 287.99C260.55 287.781 259.883 287.676 259.021 287.676C258.156 287.676 257.49 287.781 257.025 287.99C256.561 288.195 256.328 288.487 256.328 288.865ZM275.674 291.217H274.225V278.857H275.674V291.217ZM264.887 287.525C266.14 286.783 267.083 285.926 267.717 284.955C268.355 283.984 268.733 282.863 268.852 281.592H265.543V280.361H270.355C270.355 280.999 270.312 281.605 270.226 282.18H271.668V279.158H273.117V290.629H271.668V286.5H269.74V285.256H271.668V283.424H269.966C269.66 284.486 269.166 285.45 268.482 286.315C267.803 287.177 266.901 287.94 265.775 288.605L264.887 287.525ZM239.99 308.186H235.219V310.455H233.674V308.186H228.697V306.969H239.99V308.186ZM229.9 303.66C229.9 303.15 230.083 302.703 230.447 302.32C230.816 301.938 231.336 301.644 232.006 301.438C232.676 301.233 233.451 301.131 234.33 301.131C235.214 301.131 235.991 301.233 236.661 301.438C237.331 301.644 237.848 301.938 238.213 302.32C238.577 302.703 238.76 303.15 238.76 303.66C238.76 304.175 238.577 304.622 238.213 305C237.848 305.378 237.331 305.67 236.661 305.875C235.991 306.076 235.214 306.176 234.33 306.176C233.446 306.176 232.669 306.076 231.999 305.875C231.334 305.67 230.816 305.378 230.447 305C230.083 304.617 229.9 304.171 229.9 303.66ZM230.078 309.307H231.609V311.727H238.746V312.971H230.078V309.307ZM231.541 303.66C231.536 303.929 231.648 304.161 231.876 304.357C232.104 304.553 232.427 304.704 232.847 304.809C233.271 304.909 233.765 304.959 234.33 304.959C234.9 304.959 235.394 304.909 235.813 304.809C236.237 304.704 236.563 304.553 236.791 304.357C237.019 304.161 237.133 303.929 237.133 303.66C237.133 303.382 237.019 303.145 236.791 302.949C236.563 302.749 236.237 302.596 235.813 302.491C235.394 302.386 234.9 302.334 234.33 302.334C233.765 302.334 233.271 302.386 232.847 302.491C232.427 302.596 232.104 302.749 231.876 302.949C231.648 303.145 231.536 303.382 231.541 303.66ZM244.229 301.555C244.725 301.555 245.186 301.641 245.609 301.814C246.033 301.983 246.393 302.225 246.689 302.539H249.643V300.857H251.16V308.131H249.643V306.559H246.683C246.382 306.868 246.02 307.108 245.596 307.276C245.176 307.445 244.721 307.529 244.229 307.529C243.618 307.529 243.064 307.402 242.567 307.146C242.071 306.891 241.681 306.538 241.398 306.087C241.116 305.631 240.975 305.118 240.975 304.549C240.975 303.975 241.116 303.462 241.398 303.011C241.681 302.555 242.068 302.2 242.561 301.944C243.057 301.685 243.613 301.555 244.229 301.555ZM242.424 304.549C242.424 304.882 242.501 305.178 242.656 305.438C242.811 305.693 243.025 305.891 243.299 306.032C243.577 306.174 243.891 306.244 244.242 306.244C244.579 306.244 244.882 306.174 245.151 306.032C245.425 305.891 245.639 305.693 245.794 305.438C245.953 305.178 246.033 304.882 246.033 304.549C246.033 304.207 245.956 303.909 245.801 303.653C245.646 303.398 245.432 303.202 245.158 303.065C244.889 302.924 244.584 302.854 244.242 302.854C243.891 302.854 243.577 302.924 243.299 303.065C243.025 303.202 242.811 303.398 242.656 303.653C242.501 303.909 242.424 304.207 242.424 304.549ZM242.779 310.797C242.775 310.296 242.941 309.865 243.278 309.505C243.62 309.14 244.105 308.865 244.734 308.678C245.368 308.486 246.115 308.391 246.977 308.391C247.838 308.391 248.585 308.486 249.219 308.678C249.857 308.865 250.347 309.14 250.688 309.505C251.03 309.865 251.201 310.296 251.201 310.797C251.201 311.298 251.03 311.729 250.688 312.089C250.347 312.449 249.857 312.725 249.219 312.916C248.585 313.107 247.838 313.203 246.977 313.203C246.115 313.203 245.368 313.107 244.734 312.916C244.105 312.725 243.62 312.449 243.278 312.089C242.941 311.729 242.775 311.298 242.779 310.797ZM244.27 310.797C244.265 311.189 244.497 311.49 244.967 311.699C245.441 311.904 246.111 312.009 246.977 312.014C247.856 312.009 248.531 311.904 249 311.699C249.474 311.49 249.711 311.189 249.711 310.797C249.711 310.396 249.474 310.09 249 309.881C248.531 309.667 247.856 309.557 246.977 309.553C246.111 309.557 245.441 309.667 244.967 309.881C244.497 310.09 244.265 310.396 244.27 310.797ZM247.373 303.756C247.446 304.025 247.482 304.289 247.482 304.549C247.482 304.795 247.448 305.055 247.38 305.328H249.643V303.756H247.373ZM263.232 313.217H261.701V300.857H263.232V313.217ZM252.992 309.812C254.587 309.056 255.784 308.151 256.581 307.099C257.383 306.046 257.855 304.804 257.996 303.373H253.621V302.17H259.541C259.541 304.134 259.097 305.857 258.208 307.338C257.319 308.819 255.845 310.049 253.785 311.029L252.992 309.812ZM275.264 302.635H271.682C271.727 303.027 271.921 303.403 272.263 303.763C272.604 304.118 273.072 304.424 273.664 304.679C274.257 304.929 274.94 305.1 275.715 305.191L275.141 306.395C274.047 306.262 273.106 305.968 272.317 305.513C271.529 305.057 270.966 304.492 270.629 303.817C270.292 304.492 269.731 305.057 268.947 305.513C268.163 305.968 267.225 306.262 266.131 306.395L265.57 305.191C266.34 305.1 267.022 304.927 267.614 304.672C268.207 304.417 268.672 304.111 269.009 303.756C269.346 303.4 269.54 303.027 269.59 302.635H266.035V301.418H275.264V302.635ZM264.996 307.078H276.289V308.309H271.518V310.564H270.014V308.309H264.996V307.078ZM266.363 309.43H267.881V311.74H275.045V312.971H266.363V309.43Z" fill="#222222"/>
<rect x="206.311" y="254.311" width="92.3781" height="83.3781" rx="7.68904" stroke="#E1E6EF" stroke-width="0.621918"/>
<rect x="252" y="241" width="1" height="13" fill="#C4C4C4"/>
<rect x="252" y="229" width="1" height="12" fill="#C4C4C4"/>
</svg>
