<svg width="1336" height="226" viewBox="0 0 1336 226" fill="none" xmlns="http://www.w3.org/2000/svg">
<rect opacity="0.6" x="426.5" y="16.5" width="909" height="209" rx="23.5" stroke="#737373" stroke-linecap="round" stroke-dasharray="3 3"/>
<rect width="152" height="32" transform="translate(809)" fill="#191F26"/>
<path d="M850.432 11.2C852.692 11.2 854.712 12 854.712 14.64C854.712 17.28 852.692 18.08 850.432 18.08H846.912C844.652 18.08 842.632 17.28 842.632 14.64C842.632 12 844.652 11.2 846.912 11.2H850.432ZM846.952 18.7V20.86H850.432V18.7H853.212V20.86H857.352L856.952 22.88H840.012V20.86H844.172V18.7H846.952ZM855.312 10.44H841.832V8.48H847.252V6.84L850.012 6.44V8.48H855.712L855.312 10.44ZM850.192 13.12H847.152C846.132 13.12 845.312 13.54 845.312 14.64C845.312 15.74 846.132 16.16 847.152 16.16H850.192C851.212 16.16 852.032 15.74 852.032 14.64C852.032 13.54 851.212 13.12 850.192 13.12ZM869.795 18.06C871.975 18.06 873.955 18.94 873.955 21.64C873.955 24.36 871.975 25.24 869.795 25.24H865.515C863.255 25.24 861.235 24.36 861.235 21.64C861.235 18.94 863.255 18.06 865.515 18.06H869.795ZM865.395 7.12V10.38C865.395 10.8 865.475 11.26 865.755 11.56C866.995 12.94 868.315 14.16 869.715 15.34L868.115 16.88C866.695 15.74 865.235 14.56 864.015 13.22C862.795 14.62 861.155 16.18 859.695 17.42L858.015 15.96C859.415 14.7 860.895 13.32 862.115 11.72C862.375 11.38 862.555 10.92 862.555 10.5V7.52L865.395 7.12ZM870.975 17.76V11.44H867.635V9.46H870.975V7.1L873.695 6.7V17.36L870.975 17.76ZM869.535 20.04H865.735C864.655 20.04 863.915 20.48 863.915 21.64C863.915 22.82 864.655 23.26 865.735 23.26H869.535C870.535 23.26 871.275 22.82 871.275 21.64C871.275 20.48 870.535 20.04 869.535 20.04ZM888.538 17.74V19.74C886.978 20.08 884.758 20.2 882.758 20.2H877.818V7.84H886.938V9.82H880.598V12.98H886.778V14.98H880.598V18.2H882.998C884.618 18.2 886.698 18.14 888.538 17.74ZM892.078 6.7V24.6L889.358 25V7.1L892.078 6.7ZM906.682 6.98V11.58H908.002V7.1L910.542 6.7V19.68L908.002 20.08V13.56H906.682V19.44L904.202 19.84V7.38L906.682 6.98ZM902.922 11.62V13.56C902.922 15.86 901.242 17.22 898.862 17.22C896.482 17.22 894.802 15.86 894.802 13.56V11.62C894.802 9.22 896.482 7.82 898.862 7.82C901.242 7.82 902.922 9.22 902.922 11.62ZM910.582 24.92H898.482V19.22H901.262V22.92H910.982L910.582 24.92ZM900.442 13.46V11.68C900.442 10.46 899.942 9.74 898.862 9.74C897.782 9.74 897.282 10.46 897.282 11.68V13.46C897.282 14.62 897.782 15.3 898.862 15.3C899.942 15.3 900.442 14.62 900.442 13.46ZM928.485 6.7V24.6L925.765 25V7.1L928.485 6.7ZM918.025 7.62V14.04C918.025 14.46 918.085 14.98 918.205 15.34C918.445 16.04 918.805 16.88 919.085 17.3C919.365 16.86 919.765 16.02 919.985 15.3C920.105 14.92 920.185 14.46 920.185 14.16V8.02L922.785 7.62V14.06C922.785 14.48 922.805 14.92 923.005 15.28C923.805 16.7 924.645 17.92 925.525 19.16L923.865 20.6C922.985 19.54 922.185 18.56 921.465 17.52C920.805 18.72 920.005 19.98 919.045 21.1C918.205 20.06 917.305 18.64 916.725 17.52C915.965 18.6 915.205 19.62 914.325 20.78L912.525 19.52C913.425 18.18 914.205 17.02 915.065 15.44C915.265 15.06 915.345 14.6 915.345 14.18V8.02L918.025 7.62Z" fill="white"/>
<rect x="486" y="76" width="230" height="90" rx="45" fill="#4B84F0"/>
<path d="M568.314 119.54C568.454 119.22 568.474 118.64 568.474 118.22V114.98H565.934V113.04H573.614L573.314 114.98H571.034V118.16C571.034 118.58 571.014 119.08 571.174 119.44C571.694 120.6 573.294 122.98 574.374 124.28L572.674 125.82C571.834 124.78 570.654 123.18 569.834 121.96C568.934 123.32 567.794 124.92 566.694 126.24L565.014 124.78C566.394 123.12 567.694 120.88 568.314 119.54ZM574.774 112.38L577.254 111.98V129.02L574.774 129.42V119.4H572.354V117.36H574.774V112.38ZM578.414 112.1L580.954 111.7V129.6L578.414 130V112.1ZM583.317 125.58H590.677V122.32H585.917V112.28H588.677V115.36H595.237V112.28H597.997V121.82L595.237 122.32H593.557V125.58H600.657L600.257 127.62H583.317V125.58ZM588.677 120.28H595.237V117.4H588.677V120.28ZM603.1 117.76C603.1 115.88 605.1 114.88 607.6 114.88C610.1 114.88 612.1 115.88 612.1 117.76V118.06C612.1 119.58 610.82 120.54 609.02 120.88V121.74C610.44 121.66 611.96 121.52 613.24 121.3V123.24C610.4 123.64 607.32 123.76 604.24 123.76H601.82V121.8H606.22V120.88C604.4 120.56 603.1 119.58 603.1 118.06V117.76ZM616.7 111.7V117.68H619.46L619.06 119.7H616.7V123.52L613.94 123.92V112.1L616.7 111.7ZM604.48 124.62H616.7V129.96L613.9 130.36V126.6H604.48V124.62ZM612.52 114.5H602.48V112.66H606.3V111.66L609.06 111.26V112.66H612.92L612.52 114.5ZM609.5 117.84C609.5 117.14 608.8 116.72 607.6 116.72C606.4 116.72 605.7 117.14 605.7 117.84V117.98C605.7 118.68 606.4 119.16 607.6 119.16C608.8 119.16 609.5 118.68 609.5 117.98V117.84ZM635.383 111.7V124.44L632.683 124.84V112.1L635.383 111.7ZM635.503 129.92H623.783V124.14H626.563V127.92H635.903L635.503 129.92ZM630.123 117.78C630.123 120.46 627.883 121.9 625.363 121.9C622.843 121.9 620.603 120.46 620.603 117.78V116.62C620.603 113.94 622.843 112.5 625.363 112.5C627.883 112.5 630.123 113.94 630.123 116.62V117.78ZM627.423 117.7V116.7C627.423 115.3 626.563 114.5 625.363 114.5C624.163 114.5 623.303 115.3 623.303 116.7V117.7C623.303 119.1 624.163 119.9 625.363 119.9C626.563 119.9 627.423 119.1 627.423 117.7Z" fill="white"/>
<rect x="766" y="76" width="230" height="90" rx="45" fill="#4B84F0"/>
<path d="M826.984 114.74H822.304V115.64C822.304 116.06 822.344 116.56 822.664 116.82C824.104 117.96 826.544 119.82 828.344 120.94L826.864 122.62C825.044 121.52 822.304 119.64 820.884 118.48C819.464 119.66 816.604 121.6 814.844 122.76L813.344 121.1C815.244 119.9 817.604 118.24 819.004 116.98C819.324 116.7 819.444 116.18 819.444 115.76V114.74H814.524V112.76H827.384L826.984 114.74ZM812.204 125.58H819.564V121.64H822.444V125.58H829.544L829.144 127.62H812.204V125.58ZM845.527 111.7V118.54H848.407L848.007 120.78H845.527V129.6L842.787 130V112.1L845.527 111.7ZM837.387 112.62V117.88C837.387 118.3 837.507 118.74 837.747 119.06C838.787 120.46 840.367 122.38 841.727 123.9L840.127 125.44C838.727 123.96 837.027 122.08 836.007 120.72C834.827 122.22 833.107 124.34 831.687 125.88L830.007 124.42C831.367 122.84 832.967 120.92 834.147 119.22C834.387 118.88 834.587 118.42 834.587 118V113.02L837.387 112.62ZM855.435 112.36H864.195V120.24L861.495 120.64H855.435V112.36ZM869.915 125.3L865.175 125.32C865.175 125.68 865.215 126.06 865.535 126.22C867.215 127.2 868.855 128 870.875 128.9L869.595 130.58C867.575 129.74 865.515 128.76 863.835 127.86C862.295 128.72 860.095 129.84 858.075 130.72L856.755 129.06C858.915 128.14 860.475 127.26 861.975 126.36C862.295 126.18 862.395 125.72 862.415 125.32H857.435V123.42H862.415V121.76L865.175 121.36V123.42H870.315L869.915 125.3ZM869.855 111.7V121.8L867.155 122.2V112.1L869.855 111.7ZM861.495 114.36H858.135V118.7H861.495V114.36ZM892.804 114.74H888.124V115.64C888.124 116.06 888.164 116.56 888.484 116.82C889.924 117.96 892.364 119.82 894.164 120.94L892.684 122.62C890.864 121.52 888.124 119.64 886.704 118.48C885.284 119.66 882.424 121.6 880.664 122.76L879.164 121.1C881.064 119.9 883.424 118.24 884.824 116.98C885.144 116.7 885.264 116.18 885.264 115.76V114.74H880.344V112.76H893.204L892.804 114.74ZM878.024 125.58H885.384V121.64H888.264V125.58H895.364L894.964 127.62H878.024V125.58ZM911.347 111.7V118.54H914.227L913.827 120.78H911.347V129.6L908.607 130V112.1L911.347 111.7ZM903.207 112.62V117.88C903.207 118.3 903.327 118.74 903.567 119.06C904.607 120.46 906.187 122.38 907.547 123.9L905.947 125.44C904.547 123.96 902.847 122.08 901.827 120.72C900.647 122.22 898.927 124.34 897.507 125.88L895.827 124.42C897.187 122.84 898.787 120.92 899.967 119.22C900.207 118.88 900.407 118.42 900.407 118V113.02L903.207 112.62ZM924.99 116.62C924.99 118.48 923.69 119.66 921.93 120.08V121.66C923.35 121.58 924.87 121.44 926.15 121.22V123.2C923.31 123.6 920.23 123.72 917.15 123.72H914.73V121.72H919.13V120.16C917.19 119.8 915.71 118.6 915.71 116.62V116.06C915.71 113.56 917.85 112.24 920.35 112.24C922.85 112.24 924.99 113.56 924.99 116.06V116.62ZM929.61 111.7V117.72H932.37L931.97 119.74H929.61V125.14L926.85 125.54V112.1L929.61 111.7ZM929.71 129.92H917.83V124.96H920.59V127.92H930.11L929.71 129.92ZM922.39 116.68V115.96C922.39 114.8 921.49 114.14 920.35 114.14C919.21 114.14 918.31 114.8 918.31 115.96V116.68C918.31 117.76 919.21 118.36 920.35 118.36C921.49 118.36 922.39 117.76 922.39 116.68ZM932.633 125.58H936.913V122.66H935.233V116.62H944.553V114.56H935.153V112.56H947.313V118.6H938.013V120.68H947.853L947.453 122.66H945.653V125.58H949.973L949.573 127.62H932.633V125.58ZM939.653 122.66V125.58H942.913V122.66H939.653Z" fill="white"/>
<rect x="1046" y="76" width="230" height="90" rx="45" fill="#4B84F0"/>
<path d="M1082.06 123.3C1084.3 123.3 1086.32 124.14 1086.32 126.82C1086.32 129.52 1084.3 130.36 1082.06 130.36H1077.64C1075.4 130.36 1073.38 129.52 1073.38 126.82C1073.38 124.14 1075.4 123.3 1077.64 123.3H1082.06ZM1085.98 114.16H1081.3C1081.34 114.46 1081.42 114.72 1081.66 114.84C1083.3 115.78 1085.22 116.7 1087.18 117.56L1086.06 119.34C1084.08 118.48 1081.5 117.36 1079.88 116.46C1078.34 117.36 1075.76 118.56 1073.64 119.5L1072.5 117.74C1074.56 116.8 1076.48 115.9 1078 114.98C1078.26 114.82 1078.38 114.52 1078.42 114.16H1073.52V112.18H1086.38L1085.98 114.16ZM1088.14 122.12H1071.2V120.16H1078.56V117.9H1081.44V120.16H1088.54L1088.14 122.12ZM1081.96 125.3H1077.76C1076.86 125.3 1076.06 125.68 1076.06 126.82C1076.06 127.98 1076.86 128.36 1077.76 128.36H1081.96C1082.86 128.36 1083.64 127.98 1083.64 126.82C1083.64 125.68 1082.86 125.3 1081.96 125.3ZM1097.04 114.36H1090.9V112.4H1099.86V113.36C1099.86 113.72 1099.82 114.06 1099.76 114.4H1102.36V112.1L1105.06 111.7V120.7L1102.36 121.1V120.06H1098.76V118.06H1102.36V116.38H1099.18V116.16C1097.88 118.82 1094.86 121.06 1091.28 121.78L1090.2 120C1093.64 119.16 1097.04 116.48 1097.04 114.5V114.36ZM1105.2 130.08H1093.26V124.98H1102.32V123.68H1093.22V121.8H1105.06V126.82H1096.04V128.18H1105.6L1105.2 130.08ZM1114.43 112.36H1123.19V120.24L1120.49 120.64H1114.43V112.36ZM1128.91 125.3L1124.17 125.32C1124.17 125.68 1124.21 126.06 1124.53 126.22C1126.21 127.2 1127.85 128 1129.87 128.9L1128.59 130.58C1126.57 129.74 1124.51 128.76 1122.83 127.86C1121.29 128.72 1119.09 129.84 1117.07 130.72L1115.75 129.06C1117.91 128.14 1119.47 127.26 1120.97 126.36C1121.29 126.18 1121.39 125.72 1121.41 125.32H1116.43V123.42H1121.41V121.76L1124.17 121.36V123.42H1129.31L1128.91 125.3ZM1128.85 111.7V121.8L1126.15 122.2V112.1L1128.85 111.7ZM1120.49 114.36H1117.13V118.7H1120.49V114.36ZM1148.28 114.3L1147.88 116.28H1144.46V118.46C1144.46 118.88 1144.58 119.32 1144.82 119.64C1145.84 121 1147.28 122.7 1148.68 124.2L1147.04 125.72C1145.6 124.26 1144.14 122.6 1143.1 121.3C1141.94 122.78 1140.42 124.58 1138.96 126.14L1137.26 124.72C1138.68 123.12 1140.06 121.44 1141.26 119.8C1141.5 119.46 1141.7 119 1141.7 118.58V116.28H1137.92V114.3H1141.7V112.3L1144.46 111.9V114.3H1148.28ZM1152.7 111.7V129.6L1149.98 130V120.4H1146.8V118.36H1149.98V112.1L1152.7 111.7ZM1162.72 118.02V114.86H1156.62V112.88H1165.46V119.98H1159.4V123.18H1160.84C1162.66 123.18 1165.44 123.1 1167.36 122.7V124.68C1165.32 125.02 1162.48 125.16 1160.6 125.16H1156.62V118.02H1162.72ZM1170.88 111.7V129.6L1168.16 130V112.1L1170.88 111.7ZM1181.06 114.36H1174.92V112.4H1183.88V113.36C1183.88 113.72 1183.84 114.06 1183.78 114.4H1186.38V112.1L1189.08 111.7V120.7L1186.38 121.1V120.06H1182.78V118.06H1186.38V116.38H1183.2V116.16C1181.9 118.82 1178.88 121.06 1175.3 121.78L1174.22 120C1177.66 119.16 1181.06 116.48 1181.06 114.5V114.36ZM1189.22 130.08H1177.28V124.98H1186.34V123.68H1177.24V121.8H1189.08V126.82H1180.06V128.18H1189.62L1189.22 130.08ZM1204.05 112.1L1206.81 111.7V119H1209.57L1209.17 121.02H1206.81V129.6L1204.05 130V112.1ZM1192.77 113H1202.51C1202.43 115.68 1202.05 120.12 1201.53 122.66H1198.85C1199.21 120.72 1199.65 117.04 1199.69 114.98H1192.77V113ZM1194.95 117.94H1197.59V124.1C1199.35 124.06 1201.59 123.92 1203.35 123.6V125.58C1200.51 125.98 1197.43 126.1 1194.35 126.1H1191.93V124.1H1194.95V117.94ZM1217.02 117.76C1217.02 115.88 1219.02 114.88 1221.52 114.88C1224.02 114.88 1226.02 115.88 1226.02 117.76V118.06C1226.02 119.58 1224.74 120.54 1222.94 120.88V121.74C1224.36 121.66 1225.88 121.52 1227.16 121.3V123.24C1224.32 123.64 1221.24 123.76 1218.16 123.76H1215.74V121.8H1220.14V120.88C1218.32 120.56 1217.02 119.58 1217.02 118.06V117.76ZM1230.62 111.7V117.68H1233.38L1232.98 119.7H1230.62V123.52L1227.86 123.92V112.1L1230.62 111.7ZM1218.4 124.62H1230.62V129.96L1227.82 130.36V126.6H1218.4V124.62ZM1226.44 114.5H1216.4V112.66H1220.22V111.66L1222.98 111.26V112.66H1226.84L1226.44 114.5ZM1223.42 117.84C1223.42 117.14 1222.72 116.72 1221.52 116.72C1220.32 116.72 1219.62 117.14 1219.62 117.84V117.98C1219.62 118.68 1220.32 119.16 1221.52 119.16C1222.72 119.16 1223.42 118.68 1223.42 117.98V117.84ZM1249.3 111.7V124.44L1246.6 124.84V112.1L1249.3 111.7ZM1249.42 129.92H1237.7V124.14H1240.48V127.92H1249.82L1249.42 129.92ZM1244.04 117.78C1244.04 120.46 1241.8 121.9 1239.28 121.9C1236.76 121.9 1234.52 120.46 1234.52 117.78V116.62C1234.52 113.94 1236.76 112.5 1239.28 112.5C1241.8 112.5 1244.04 113.94 1244.04 116.62V117.78ZM1241.34 117.7V116.7C1241.34 115.3 1240.48 114.5 1239.28 114.5C1238.08 114.5 1237.22 115.3 1237.22 116.7V117.7C1237.22 119.1 1238.08 119.9 1239.28 119.9C1240.48 119.9 1241.34 119.1 1241.34 117.7Z" fill="white"/>
<path opacity="0.2" d="M744 115.804C748 118.113 750 119.268 750 121C750 121 750 121 750 121C750 122.732 748 123.887 744 126.196C740 128.506 738 129.66 736.5 128.794C736.5 128.794 736.5 128.794 736.5 128.794C735 127.928 735 125.619 735 121C735 116.381 735 114.072 736.5 113.206C736.5 113.206 736.5 113.206 736.5 113.206C738 112.34 740 113.494 744 115.804Z" fill="white"/>
<path opacity="0.2" d="M1024 115.804C1028 118.113 1030 119.268 1030 121C1030 121 1030 121 1030 121C1030 122.732 1028 123.887 1024 126.196C1020 128.506 1018 129.66 1016.5 128.794C1016.5 128.794 1016.5 128.794 1016.5 128.794C1015 127.928 1015 125.619 1015 121C1015 116.381 1015 114.072 1016.5 113.206C1016.5 113.206 1016.5 113.206 1016.5 113.206C1018 112.34 1020 113.494 1024 115.804Z" fill="white"/>
<path opacity="0.6" d="M392 114.072C397.333 117.151 400 118.691 400 121C400 123.309 397.333 124.849 392 127.928C386.667 131.007 384 132.547 382 131.392C380 130.238 380 127.158 380 121C380 114.842 380 111.762 382 110.608C384 109.453 386.667 110.993 392 114.072Z" fill="white"/>
<rect opacity="0.6" x="0.5" y="16.5" width="349" height="209" rx="23.5" stroke="#737373" stroke-linecap="round" stroke-dasharray="3 3"/>
<rect width="115" height="32" transform="translate(117)" fill="#191F26"/>
<path d="M163.395 17.98V24.5L160.635 25H151.575V17.98H154.355V19.76H160.635V17.98H163.395ZM148.835 13.52C148.835 11.36 150.895 10.24 153.395 10.24C155.895 10.24 157.955 11.36 157.955 13.52V13.92C157.955 16.08 155.895 17.26 153.395 17.26C150.895 17.26 148.835 16.08 148.835 13.92V13.52ZM158.315 11H160.675V7.1L163.395 6.7V16.88L160.675 17.28V16.18H158.315V14.28H160.675V12.84H158.315V11ZM158.515 9.84H147.875V7.88H151.915V6.58L154.675 6.18V7.88H158.915L158.515 9.84ZM155.355 13.6C155.355 12.7 154.495 12.12 153.395 12.12C152.295 12.12 151.435 12.7 151.435 13.6V13.84C151.435 14.72 152.295 15.38 153.395 15.38C154.495 15.38 155.355 14.72 155.355 13.84V13.6ZM154.355 23.04H160.635V21.72H154.355V23.04ZM172.618 11.42V9.6H167.318V7.6H175.318V13.38H170.098V15.36H171.138C172.958 15.36 175.718 15.24 177.638 14.9V16.88C175.598 17.24 172.738 17.36 170.918 17.36H167.318V11.42H172.618ZM181.578 6.7V17.78L178.858 18.18V14.34H176.118V12.36H178.858V10.76H176.118V8.78H178.858V7.1L181.578 6.7ZM169.598 18.68H181.578V24.96L178.818 25.36V20.66H169.598V18.68ZM199.242 6.7V13.54H202.122L201.722 15.78H199.242V24.6L196.502 25V7.1L199.242 6.7ZM191.102 7.62V12.88C191.102 13.3 191.222 13.74 191.462 14.06C192.502 15.46 194.082 17.38 195.442 18.9L193.842 20.44C192.442 18.96 190.742 17.08 189.722 15.72C188.542 17.22 186.822 19.34 185.402 20.88L183.722 19.42C185.082 17.84 186.682 15.92 187.862 14.22C188.102 13.88 188.302 13.42 188.302 13V8.02L191.102 7.62Z" fill="white"/>
<rect x="60" y="76" width="230" height="90" rx="45" fill="#FF8D24"/>
<path d="M142.314 119.54C142.454 119.22 142.474 118.64 142.474 118.22V114.98H139.934V113.04H147.614L147.314 114.98H145.034V118.16C145.034 118.58 145.014 119.08 145.174 119.44C145.694 120.6 147.294 122.98 148.374 124.28L146.674 125.82C145.834 124.78 144.654 123.18 143.834 121.96C142.934 123.32 141.794 124.92 140.694 126.24L139.014 124.78C140.394 123.12 141.694 120.88 142.314 119.54ZM148.774 112.38L151.254 111.98V129.02L148.774 129.42V119.4H146.354V117.36H148.774V112.38ZM152.414 112.1L154.954 111.7V129.6L152.414 130V112.1ZM157.317 125.58H164.677V122.32H159.917V112.28H162.677V115.36H169.237V112.28H171.997V121.82L169.237 122.32H167.557V125.58H174.657L174.257 127.62H157.317V125.58ZM162.677 120.28H169.237V117.4H162.677V120.28ZM191.2 122.5V129.5L188.44 130H179.38V122.5H182.16V124.5H188.44V122.5H191.2ZM186.18 114.4H182.96V115.54C182.96 115.96 183.04 116.42 183.32 116.72C184.56 118.1 185.82 119.28 187.22 120.46L185.62 122C184.2 120.86 182.86 119.68 181.6 118.38C180.34 119.76 178.84 121.2 177.38 122.44L175.7 120.98C177.1 119.72 178.54 118.48 179.76 116.88C180.02 116.54 180.2 116.08 180.2 115.66V114.4H176.62V112.4H186.58L186.18 114.4ZM188.48 121.8V117.64H185.06V115.64H188.48V112.1L191.2 111.7V121.4L188.48 121.8ZM182.16 128.04H188.44V126.44H182.16V128.04ZM211.063 122.04L210.663 124.02H203.923V129.76L201.123 130.16V124.02H193.723V122.04H211.063ZM203.823 112.16V114.12C203.823 114.54 203.863 115.06 204.183 115.3C205.643 116.4 208.183 118.06 209.963 119.14L208.483 120.82C206.683 119.76 203.883 118.1 202.463 117C200.983 118.08 198.263 119.84 196.283 120.94L194.783 119.28C196.703 118.14 199.063 116.58 200.523 115.42C200.843 115.16 200.963 114.62 200.963 114.2V112.56L203.823 112.16Z" fill="white"/>
</svg>
