<svg width="782" height="106" viewBox="0 0 782 106" fill="none" xmlns="http://www.w3.org/2000/svg">
<rect x="0.5" y="0.5" width="97" height="105" rx="15.5" fill="white"/>
<path d="M35.8477 37.2168H34.3984V30.9141H33.0039V36.5879H31.6094V25.0898H33.0039V29.6973H34.3984V24.8574H35.8477V37.2168ZM25.5938 26.3203H30.2148V27.5508H27.125V33.0469C27.8405 33.0378 28.4876 33.0104 29.0664 32.9648C29.6452 32.9193 30.2331 32.8418 30.8301 32.7324L30.9395 33.9766C30.2513 34.1133 29.5745 34.2044 28.9092 34.25C28.2484 34.2956 27.4212 34.3229 26.4277 34.332H25.5938V26.3203ZM48.6035 35.7949H37.3105V34.5645H40.2363V32.0215H38.2812V30.791H40.0176V27.127H38.2402V25.9102H47.6191V27.127H45.8145V30.791H47.5781V32.0215H45.623V34.5645H48.6035V35.7949ZM44.3105 30.791V27.127H41.5352V30.791H44.3105ZM44.1055 34.5645V32.0215H41.7539V34.5645H44.1055ZM59.6914 37.2305H58.1602V24.8574H59.6914V37.2305ZM49.8066 30.1211C49.8066 29.2507 49.9434 28.485 50.2168 27.8242C50.4902 27.1634 50.8708 26.6553 51.3584 26.2998C51.8506 25.9398 52.4089 25.7598 53.0332 25.7598C53.6484 25.7598 54.1999 25.9398 54.6875 26.2998C55.1797 26.6553 55.5648 27.1634 55.8428 27.8242C56.1208 28.485 56.2598 29.2507 56.2598 30.1211C56.2598 31.0007 56.1208 31.7708 55.8428 32.4316C55.5648 33.0924 55.1797 33.6029 54.6875 33.9629C54.1999 34.3184 53.6484 34.4961 53.0332 34.4961C52.4089 34.4961 51.8506 34.3184 51.3584 33.9629C50.8708 33.6029 50.4902 33.0924 50.2168 32.4316C49.9434 31.7708 49.8066 31.0007 49.8066 30.1211ZM51.2695 30.1211C51.2695 30.7454 51.3424 31.2832 51.4883 31.7344C51.6387 32.1855 51.846 32.5296 52.1104 32.7666C52.3747 33.0036 52.6823 33.1243 53.0332 33.1289C53.3796 33.1243 53.6849 33.0036 53.9492 32.7666C54.2135 32.5296 54.4186 32.1855 54.5645 31.7344C54.7103 31.2832 54.7832 30.7454 54.7832 30.1211C54.7832 29.5013 54.7103 28.9681 54.5645 28.5215C54.4186 28.0703 54.2135 27.7262 53.9492 27.4893C53.6849 27.2477 53.3796 27.127 53.0332 27.127C52.6823 27.127 52.3747 27.2477 52.1104 27.4893C51.846 27.7262 51.6387 28.0703 51.4883 28.5215C51.3424 28.9681 51.2695 29.5013 51.2695 30.1211ZM65.9258 27.8242C65.9212 28.5671 66.0374 29.2917 66.2744 29.998C66.516 30.7044 66.8623 31.3379 67.3135 31.8984C67.7692 32.4544 68.3092 32.8828 68.9336 33.1836L68.0039 34.4004C67.3477 34.0677 66.778 33.5938 66.2949 32.9785C65.8164 32.3633 65.4427 31.6523 65.1738 30.8457C64.8958 31.707 64.5039 32.4681 63.998 33.1289C63.4967 33.7852 62.8997 34.2865 62.207 34.6328L61.2773 33.416C61.9199 33.1107 62.4759 32.6663 62.9453 32.083C63.4193 31.4951 63.7793 30.832 64.0254 30.0938C64.276 29.3509 64.4036 28.5944 64.4082 27.8242V25.8555H65.9258V27.8242ZM69.6719 24.8574H71.1895V29.6973H73.0898V30.9961H71.1895V37.2168H69.6719V24.8574ZM17.4043 53.9668C17.4043 52.7637 17.5638 51.654 17.8828 50.6377C18.2018 49.6214 18.6803 48.6803 19.3184 47.8145H20.959C20.6354 48.2383 20.3392 48.7874 20.0703 49.4619C19.806 50.1364 19.5986 50.8701 19.4482 51.6631C19.2979 52.4515 19.2227 53.2194 19.2227 53.9668C19.2227 54.7142 19.2979 55.4821 19.4482 56.2705C19.5986 57.0544 19.806 57.7835 20.0703 58.458C20.3392 59.1325 20.6354 59.6816 20.959 60.1055H19.3184C18.6803 59.2396 18.2018 58.3008 17.8828 57.2891C17.5638 56.2728 17.4043 55.1654 17.4043 53.9668ZM32.0742 59.2305H30.5703V46.8574H32.0742V59.2305ZM22.4492 47.9375H28.2734V52.5723H24.0215V55.0605C25.0514 55.0514 26.0039 55.015 26.8789 54.9512C27.7539 54.8874 28.6517 54.778 29.5723 54.623L29.709 55.8672C28.752 56.0312 27.8086 56.1452 26.8789 56.209C25.9538 56.2728 24.9238 56.3047 23.7891 56.3047H23.543H22.4629V51.3691H26.7285V49.168H22.4492V47.9375ZM40.2637 48.5527C40.2637 49.1862 40.4551 49.8037 40.8379 50.4053C41.2253 51.0068 41.7585 51.5264 42.4375 51.9639C43.1165 52.3968 43.8776 52.6862 44.7207 52.832L44.0371 54.1035C43.0072 53.8893 42.0889 53.486 41.2822 52.8936C40.4756 52.3011 39.8695 51.5879 39.4639 50.7539C39.195 51.3008 38.8327 51.8021 38.377 52.2578C37.9212 52.709 37.3971 53.0941 36.8047 53.4131C36.2122 53.7275 35.5742 53.9577 34.8906 54.1035L34.2207 52.832C35.0501 52.6816 35.8021 52.39 36.4766 51.957C37.1556 51.5195 37.6865 51 38.0693 50.3984C38.4567 49.7969 38.6504 49.1816 38.6504 48.5527V47.6367H40.2637V48.5527ZM33.8789 56.3867H45.1719V57.6445H33.8789V56.3867ZM56 49.4824C56 50.2754 55.9909 50.9453 55.9727 51.4922C55.9544 52.0345 55.9043 52.6497 55.8223 53.3379C55.7448 54.026 55.6217 54.778 55.4531 55.5938L53.9355 55.457C54.1589 54.5091 54.3161 53.5407 54.4072 52.5518L47.127 52.9277L46.9219 51.6973L54.4756 51.4102C54.4984 50.8587 54.5098 50.2161 54.5098 49.4824V49.2363H47.291V48.0059H56V49.4824ZM45.9785 56.4004H57.2441V57.6445H45.9785V56.4004ZM64.9824 48.5117V48.6758C64.9733 49.2865 64.9505 49.8584 64.9141 50.3916C64.8776 50.9202 64.8001 51.5059 64.6816 52.1484L63.1777 52.0117C63.2871 51.4375 63.3623 50.9134 63.4033 50.4395C63.4489 49.9655 63.4762 49.4961 63.4854 49.0312H58.6797V47.7734H64.9824V48.5117ZM58.1943 53.1328C59.1878 53.1237 59.9102 53.1146 60.3613 53.1055V50.5898H61.8652V53.0576C63.3281 52.9938 64.5905 52.8867 65.6523 52.7363L65.7344 53.8301C64.5905 54.0352 63.3896 54.1719 62.1318 54.2402C60.874 54.3086 59.5228 54.3451 58.0781 54.3496L57.9414 53.1328H58.1943ZM59.7871 55.293H61.3184V57.7402H68.332V58.9707H59.7871V55.293ZM66.377 46.8574H67.9355V50.7129H69.5352V51.9844H67.9355V56.1133H66.377V46.8574ZM80.4727 59.2305H78.9688V46.8574H80.4727V59.2305ZM70.8477 47.9375H76.6719V52.5723H72.4199V55.0605C73.4499 55.0514 74.4023 55.015 75.2773 54.9512C76.1523 54.8874 77.0501 54.778 77.9707 54.623L78.1074 55.8672C77.1504 56.0312 76.207 56.1452 75.2773 56.209C74.3522 56.2728 73.3223 56.3047 72.1875 56.3047H71.9414H70.8613V51.3691H75.127V49.168H70.8477V47.9375ZM32.457 71.6328C32.457 72.0749 32.5459 72.5033 32.7236 72.918C32.9014 73.3281 33.1657 73.695 33.5166 74.0186C33.8721 74.3421 34.3027 74.5905 34.8086 74.7637L34.125 75.9121C33.5736 75.7116 33.0996 75.4268 32.7031 75.0576C32.3066 74.6885 31.9945 74.2578 31.7666 73.7656C31.5433 74.3034 31.2311 74.7751 30.8301 75.1807C30.4336 75.5817 29.9505 75.8939 29.3809 76.1172L28.6699 74.9961C29.1758 74.7956 29.6042 74.5221 29.9551 74.1758C30.306 73.8294 30.5703 73.4398 30.748 73.0068C30.9258 72.5693 31.0169 72.1113 31.0215 71.6328V71.5371H28.9844V70.3477H31.0215V68.9941H32.457V70.3477H34.4668V71.5371H32.457V71.6328ZM30.748 76.9922H39.2109V81.2168H37.6934V78.2227H30.748V76.9922ZM35.1367 69.0762H36.5723V72.043H37.7617V68.8711H39.2109V76.4316H37.7617V73.2734H36.5723V76.377H35.1367V69.0762ZM51.0371 75.8711H49.5059V68.8711H51.0371V75.8711ZM40.9609 72.4121C40.9609 71.8424 41.1045 71.3343 41.3916 70.8877C41.6833 70.4365 42.082 70.0856 42.5879 69.835C43.0938 69.5843 43.6634 69.459 44.2969 69.459C44.9258 69.459 45.4932 69.5843 45.999 69.835C46.5049 70.0856 46.9014 70.4365 47.1885 70.8877C47.4756 71.3343 47.6191 71.8424 47.6191 72.4121C47.6191 72.9727 47.4756 73.4762 47.1885 73.9229C46.9014 74.3649 46.5049 74.7113 45.999 74.9619C45.4932 75.2126 44.9258 75.3379 44.2969 75.3379C43.668 75.3379 43.0983 75.2126 42.5879 74.9619C42.082 74.7113 41.6833 74.3649 41.3916 73.9229C41.1045 73.4762 40.9609 72.9727 40.9609 72.4121ZM42.4512 72.4121C42.4512 72.7402 42.5286 73.0296 42.6836 73.2803C42.8385 73.5264 43.055 73.7178 43.333 73.8545C43.6156 73.9867 43.9368 74.0527 44.2969 74.0527C44.6478 74.0527 44.9622 73.9867 45.2402 73.8545C45.5182 73.7178 45.7347 73.5264 45.8896 73.2803C46.0492 73.0296 46.1289 72.7402 46.1289 72.4121C46.1289 72.0749 46.0492 71.7809 45.8896 71.5303C45.7347 71.2796 45.5182 71.0859 45.2402 70.9492C44.9622 70.8125 44.6478 70.7441 44.2969 70.7441C43.9368 70.7441 43.6156 70.8125 43.333 70.9492C43.055 71.0859 42.8385 71.2796 42.6836 71.5303C42.5286 71.7809 42.4512 72.0749 42.4512 72.4121ZM42.834 76.4727H51.0371V81.0664H42.834V76.4727ZM49.5469 79.8359V77.6758H44.3379V79.8359H49.5469ZM57.2715 72.3711C57.2669 73.0137 57.3877 73.6631 57.6338 74.3193C57.8844 74.9756 58.2445 75.5749 58.7139 76.1172C59.1833 76.6549 59.7324 77.0697 60.3613 77.3613L59.5137 78.5645C58.8346 78.2454 58.2399 77.7783 57.7295 77.1631C57.2191 76.5433 56.8203 75.8346 56.5332 75.0371C56.2461 75.9076 55.8382 76.68 55.3096 77.3545C54.7809 78.029 54.168 78.5326 53.4707 78.8652L52.582 77.6758C53.2201 77.375 53.7783 76.9398 54.2568 76.3701C54.7354 75.8005 55.1022 75.1647 55.3574 74.4629C55.6172 73.7611 55.7493 73.0638 55.7539 72.3711V71.332H53.0605V70.0742H59.8555V71.332H57.2715V72.3711ZM61.0039 68.8574H62.5215V73.6699H64.4219V74.9414H62.5215V81.2168H61.0039V68.8574ZM68.4961 75.9531C68.4961 77.1562 68.3366 78.266 68.0176 79.2822C67.6986 80.2985 67.2201 81.2396 66.582 82.1055H64.9414C65.265 81.6816 65.5589 81.1325 65.8232 80.458C66.0921 79.7835 66.3018 79.0521 66.4521 78.2637C66.6025 77.4707 66.6777 76.7005 66.6777 75.9531C66.6777 75.2057 66.6025 74.4401 66.4521 73.6562C66.3018 72.8678 66.0921 72.1364 65.8232 71.4619C65.5589 70.7874 65.265 70.2383 64.9414 69.8145H66.582C67.2201 70.6803 67.6986 71.6214 68.0176 72.6377C68.3366 73.6494 68.4961 74.7546 68.4961 75.9531Z" fill="#222222"/>
<rect x="0.5" y="0.5" width="97" height="105" rx="15.5" stroke="#E1E6EF"/>
<rect x="102" y="56" width="3" height="8" rx="1.5" transform="rotate(-90 102 56)" fill="#C2CBE5"/>
<rect x="114.5" y="0.5" width="97" height="105" rx="15.5" fill="white"/>
<path d="M149.561 43.0898H148.043V41.7227H145.104V40.4922H148.043V39.166H145.22C144.832 40.1413 144.194 40.973 143.306 41.6611C142.417 42.3447 141.298 42.8757 139.949 43.2539L139.334 42.0508C140.756 41.668 141.859 41.1257 142.643 40.4238C143.431 39.7174 143.884 38.8971 144.003 37.9629H139.99V36.7324H145.664C145.664 37.1608 145.63 37.571 145.562 37.9629H148.043V35.8711H149.561V43.0898ZM141.275 45.6875C141.275 45.1862 141.449 44.751 141.795 44.3818C142.141 44.0127 142.629 43.7279 143.258 43.5273C143.891 43.3268 144.63 43.2266 145.473 43.2266C146.302 43.2266 147.031 43.3268 147.66 43.5273C148.289 43.7279 148.777 44.0127 149.123 44.3818C149.469 44.751 149.643 45.1862 149.643 45.6875C149.643 46.1888 149.469 46.6263 149.123 47C148.777 47.3691 148.289 47.6517 147.66 47.8477C147.031 48.0482 146.302 48.1484 145.473 48.1484C144.634 48.1484 143.898 48.0482 143.265 47.8477C142.631 47.6517 142.141 47.3691 141.795 47C141.449 46.6263 141.275 46.1888 141.275 45.6875ZM142.793 45.6875C142.793 46.0885 143.03 46.3984 143.504 46.6172C143.978 46.8359 144.634 46.9453 145.473 46.9453C146.298 46.9453 146.945 46.8359 147.414 46.6172C147.883 46.3984 148.12 46.0885 148.125 45.6875C148.12 45.2773 147.883 44.9629 147.414 44.7441C146.949 44.5254 146.302 44.416 145.473 44.416C144.634 44.416 143.978 44.5254 143.504 44.7441C143.03 44.9629 142.793 45.2773 142.793 45.6875ZM154.729 36.5547C155.225 36.5547 155.686 36.6413 156.109 36.8145C156.533 36.9831 156.893 37.2246 157.189 37.5391H160.143V35.8574H161.66V43.1309H160.143V41.5586H157.183C156.882 41.8685 156.52 42.1077 156.096 42.2764C155.676 42.445 155.221 42.5293 154.729 42.5293C154.118 42.5293 153.564 42.4017 153.067 42.1465C152.571 41.8913 152.181 41.5381 151.898 41.0869C151.616 40.6312 151.475 40.1185 151.475 39.5488C151.475 38.9746 151.616 38.4619 151.898 38.0107C152.181 37.555 152.568 37.1995 153.061 36.9443C153.557 36.6846 154.113 36.5547 154.729 36.5547ZM152.924 39.5488C152.924 39.8815 153.001 40.1777 153.156 40.4375C153.311 40.6927 153.525 40.891 153.799 41.0322C154.077 41.1735 154.391 41.2441 154.742 41.2441C155.079 41.2441 155.382 41.1735 155.651 41.0322C155.925 40.891 156.139 40.6927 156.294 40.4375C156.453 40.1777 156.533 39.8815 156.533 39.5488C156.533 39.207 156.456 38.9085 156.301 38.6533C156.146 38.3981 155.932 38.2021 155.658 38.0654C155.389 37.9242 155.084 37.8535 154.742 37.8535C154.391 37.8535 154.077 37.9242 153.799 38.0654C153.525 38.2021 153.311 38.3981 153.156 38.6533C153.001 38.9085 152.924 39.207 152.924 39.5488ZM153.279 45.7969C153.275 45.2956 153.441 44.8649 153.778 44.5049C154.12 44.1403 154.605 43.8646 155.234 43.6777C155.868 43.4863 156.615 43.3906 157.477 43.3906C158.338 43.3906 159.085 43.4863 159.719 43.6777C160.357 43.8646 160.847 44.1403 161.188 44.5049C161.53 44.8649 161.701 45.2956 161.701 45.7969C161.701 46.2982 161.53 46.7288 161.188 47.0889C160.847 47.4489 160.357 47.7246 159.719 47.916C159.085 48.1074 158.338 48.2031 157.477 48.2031C156.615 48.2031 155.868 48.1074 155.234 47.916C154.605 47.7246 154.12 47.4489 153.778 47.0889C153.441 46.7288 153.275 46.2982 153.279 45.7969ZM154.77 45.7969C154.765 46.1888 154.997 46.4896 155.467 46.6992C155.941 46.9043 156.611 47.0091 157.477 47.0137C158.356 47.0091 159.031 46.9043 159.5 46.6992C159.974 46.4896 160.211 46.1888 160.211 45.7969C160.211 45.3958 159.974 45.0905 159.5 44.8809C159.031 44.6667 158.356 44.5573 157.477 44.5527C156.611 44.5573 155.941 44.6667 155.467 44.8809C154.997 45.0905 154.765 45.3958 154.77 45.7969ZM157.873 38.7559C157.946 39.0247 157.982 39.2891 157.982 39.5488C157.982 39.7949 157.948 40.0547 157.88 40.3281H160.143V38.7559H157.873ZM173.76 44.8945H172.242V40.3691H170.055V39.1387H172.242V35.8711H173.76V44.8945ZM163.383 42.2285C164.021 42.0189 164.568 41.7135 165.023 41.3125C165.479 40.9069 165.823 40.4466 166.056 39.9316C166.288 39.4121 166.404 38.8743 166.404 38.3184V37.9902H163.834V36.7598H170.506V37.9902H167.949V38.332C167.949 38.8379 168.061 39.3324 168.284 39.8154C168.507 40.2939 168.838 40.7246 169.275 41.1074C169.713 41.4857 170.242 41.7773 170.861 41.9824L170.096 43.1992C169.421 42.9668 168.838 42.6296 168.346 42.1875C167.858 41.7409 167.475 41.2168 167.197 40.6152C166.919 41.2806 166.523 41.8594 166.008 42.3516C165.493 42.8438 164.878 43.2129 164.162 43.459L163.383 42.2285ZM165.652 44.1016H167.17V46.7402H174.074V47.9707H165.652V44.1016ZM186.98 38.9062H185.258V40.2871H186.98V41.5312H185.258V43.377H183.74V35.8711H185.258V37.6621H186.98V38.9062ZM175.975 36.5684H181.621V40.2324H177.506V41.6133C178.627 41.6042 179.577 41.5745 180.356 41.5244C181.14 41.4743 181.931 41.3809 182.729 41.2441L182.893 42.4609C182.031 42.6113 181.174 42.7161 180.322 42.7754C179.475 42.8301 178.456 42.8574 177.267 42.8574H177H175.988V39.0566H180.131V37.7988H175.975V36.5684ZM177.027 43.9648H185.258V48.2031H183.74V45.1816H177.027V43.9648ZM161.578 64.1602H160.074V57.8574H161.578V64.1602ZM151.297 62.957C151.944 62.752 152.498 62.4512 152.958 62.0547C153.418 61.6582 153.765 61.207 153.997 60.7012C154.234 60.1908 154.35 59.6621 154.346 59.1152V58.1582H155.918V59.1152C155.913 59.6439 156.027 60.1497 156.26 60.6328C156.492 61.1113 156.832 61.5374 157.278 61.9111C157.729 62.2803 158.274 62.5605 158.912 62.752L158.174 63.9277C157.467 63.709 156.859 63.3831 156.349 62.9502C155.838 62.5127 155.439 61.9932 155.152 61.3916C154.865 62.0433 154.46 62.6084 153.936 63.0869C153.411 63.5609 152.787 63.9141 152.062 64.1465L151.297 62.957ZM153.402 64.7344H161.605V67.9473H154.92V68.9043H161.975V70.1074H153.43V66.8125H160.088V65.9102H153.402V64.7344ZM167.84 60.0859C167.84 60.5964 167.949 61.084 168.168 61.5488C168.391 62.0137 168.719 62.4261 169.152 62.7861C169.59 63.1462 170.123 63.4219 170.752 63.6133L170.027 64.8027C169.348 64.5885 168.763 64.2718 168.271 63.8525C167.778 63.4333 167.393 62.9388 167.115 62.3691C166.837 63.0345 166.436 63.611 165.912 64.0986C165.393 64.5863 164.768 64.9531 164.039 65.1992L163.273 63.9961C163.916 63.7865 164.465 63.4811 164.921 63.0801C165.381 62.679 165.728 62.221 165.96 61.7061C166.192 61.1911 166.309 60.6556 166.309 60.0996V59.9492H163.697V58.7188H170.41V59.9492H167.84V60.0859ZM164.955 67.8379C164.955 67.3503 165.124 66.931 165.461 66.5801C165.798 66.2292 166.281 65.9626 166.91 65.7803C167.539 65.5934 168.282 65.5 169.139 65.5C169.991 65.5 170.727 65.5934 171.347 65.7803C171.966 65.9626 172.443 66.2292 172.775 66.5801C173.113 66.931 173.281 67.3503 173.281 67.8379C173.281 68.3301 173.113 68.7539 172.775 69.1094C172.443 69.4648 171.966 69.736 171.347 69.9229C170.727 70.1097 169.991 70.2031 169.139 70.2031C168.282 70.2031 167.539 70.1097 166.91 69.9229C166.281 69.736 165.798 69.4648 165.461 69.1094C165.124 68.7539 164.955 68.3301 164.955 67.8379ZM166.473 67.8379C166.473 68.2161 166.703 68.5055 167.163 68.7061C167.623 68.9066 168.282 69.0091 169.139 69.0137C169.986 69.0091 170.638 68.9066 171.094 68.7061C171.549 68.5055 171.777 68.2161 171.777 67.8379C171.777 67.4642 171.549 67.1794 171.094 66.9834C170.638 66.7874 169.986 66.6895 169.139 66.6895C168.286 66.6895 167.628 66.7874 167.163 66.9834C166.703 67.1794 166.473 67.4642 166.473 67.8379ZM171.641 57.8574H173.158V60.8242H174.881V62.0684H173.158V65.2266H171.641V57.8574Z" fill="#222222"/>
<rect x="114.5" y="0.5" width="97" height="105" rx="15.5" stroke="#E1E6EF"/>
<rect x="216" y="56" width="3" height="8" rx="1.5" transform="rotate(-90 216 56)" fill="#C2CBE5"/>
<rect x="228.5" y="0.5" width="97" height="105" rx="15.5" fill="white"/>
<path d="M263.93 59.2168H262.48V52.9551H261.209V58.6152H259.773V47.0762H261.209V51.6973H262.48V46.8574H263.93V59.2168ZM253.006 55.6211C253.881 55.1243 254.528 54.3861 254.947 53.4062C255.367 52.4219 255.576 51.2917 255.576 50.0156V49.4277H253.375V48.2109H259.076V49.4277H257.053V50.0156C257.053 51.1823 257.262 52.2236 257.682 53.1396C258.101 54.0511 258.748 54.7324 259.623 55.1836L258.734 56.3457C258.16 56.0358 257.675 55.6211 257.278 55.1016C256.886 54.582 256.576 53.9759 256.349 53.2832C255.902 54.9284 255.098 56.0951 253.936 56.7832L253.006 55.6211ZM276.59 55.0879H271.668V59.2031H270.164V55.0879H265.297V53.8574H276.59V55.0879ZM266.678 47.4863H275.209V52.4082H266.678V47.4863ZM273.691 51.2188V48.7031H268.168V51.2188H273.691ZM287.678 53.1602H286.174V46.8574H287.678V53.1602ZM277.396 51.957C278.044 51.752 278.597 51.4512 279.058 51.0547C279.518 50.6582 279.864 50.207 280.097 49.7012C280.334 49.1908 280.45 48.6621 280.445 48.1152V47.1582H282.018V48.1152C282.013 48.6439 282.127 49.1497 282.359 49.6328C282.592 50.1113 282.931 50.5374 283.378 50.9111C283.829 51.2803 284.374 51.5605 285.012 51.752L284.273 52.9277C283.567 52.709 282.959 52.3831 282.448 51.9502C281.938 51.5127 281.539 50.9932 281.252 50.3916C280.965 51.0433 280.559 51.6084 280.035 52.0869C279.511 52.5609 278.887 52.9141 278.162 53.1465L277.396 51.957ZM279.502 53.7344H287.705V56.9473H281.02V57.9043H288.074V59.1074H279.529V55.8125H286.188V54.9102H279.502V53.7344ZM293.939 49.0859C293.939 49.5964 294.049 50.084 294.268 50.5488C294.491 51.0137 294.819 51.4261 295.252 51.7861C295.689 52.1462 296.223 52.4219 296.852 52.6133L296.127 53.8027C295.448 53.5885 294.862 53.2718 294.37 52.8525C293.878 52.4333 293.493 51.9388 293.215 51.3691C292.937 52.0345 292.536 52.611 292.012 53.0986C291.492 53.5863 290.868 53.9531 290.139 54.1992L289.373 52.9961C290.016 52.7865 290.565 52.4811 291.021 52.0801C291.481 51.679 291.827 51.221 292.06 50.7061C292.292 50.1911 292.408 49.6556 292.408 49.0996V48.9492H289.797V47.7188H296.51V48.9492H293.939V49.0859ZM291.055 56.8379C291.055 56.3503 291.223 55.931 291.561 55.5801C291.898 55.2292 292.381 54.9626 293.01 54.7803C293.639 54.5934 294.382 54.5 295.238 54.5C296.09 54.5 296.826 54.5934 297.446 54.7803C298.066 54.9626 298.542 55.2292 298.875 55.5801C299.212 55.931 299.381 56.3503 299.381 56.8379C299.381 57.3301 299.212 57.7539 298.875 58.1094C298.542 58.4648 298.066 58.736 297.446 58.9229C296.826 59.1097 296.09 59.2031 295.238 59.2031C294.382 59.2031 293.639 59.1097 293.01 58.9229C292.381 58.736 291.898 58.4648 291.561 58.1094C291.223 57.7539 291.055 57.3301 291.055 56.8379ZM292.572 56.8379C292.572 57.2161 292.802 57.5055 293.263 57.7061C293.723 57.9066 294.382 58.0091 295.238 58.0137C296.086 58.0091 296.738 57.9066 297.193 57.7061C297.649 57.5055 297.877 57.2161 297.877 56.8379C297.877 56.4642 297.649 56.1794 297.193 55.9834C296.738 55.7874 296.086 55.6895 295.238 55.6895C294.386 55.6895 293.728 55.7874 293.263 55.9834C292.802 56.1794 292.572 56.4642 292.572 56.8379ZM297.74 46.8574H299.258V49.8242H300.98V51.0684H299.258V54.2266H297.74V46.8574Z" fill="#222222"/>
<rect x="228.5" y="0.5" width="97" height="105" rx="15.5" stroke="#E1E6EF"/>
<rect x="330" y="56" width="3" height="8" rx="1.5" transform="rotate(-90 330 56)" fill="#C2CBE5"/>
<rect x="342.5" y="0.5" width="97" height="105" rx="15.5" fill="white"/>
<path d="M377.096 37.7168C377.091 38.528 377.071 39.2344 377.034 39.8359C376.998 40.4329 376.909 41.1165 376.768 41.8867H378.477V43.1172H373.568V48.2305H372.037V43.1172H367.211V41.8867H375.223C375.373 41.1393 375.469 40.4603 375.51 39.8496C375.555 39.2389 375.578 38.569 375.578 37.8398H368.537V36.6094H377.096V37.7168ZM389.975 48.2168H388.512V41.8867H387.199V47.6152H385.764V36.0762H387.199V40.6289H388.512V35.8574H389.975V48.2168ZM379.693 37.1973H384.547V45.0312H379.693V37.1973ZM383.125 43.8281V38.4004H381.115V43.8281H383.125ZM401.158 38.7285H402.881V39.9863H401.158V42.8164H399.641V35.8574H401.158V38.7285ZM391.93 36.6504H397.426V37.8809H393.434V41.0391C394.623 41.0345 395.587 41.0072 396.325 40.957C397.068 40.9023 397.799 40.8021 398.52 40.6562L398.684 41.8594C397.913 42.028 397.123 42.1396 396.312 42.1943C395.505 42.2445 394.377 42.2695 392.928 42.2695H391.93V36.6504ZM393.174 43.377H401.158V48.0527H393.174V43.377ZM399.654 46.8496V44.5938H394.678V46.8496H399.654ZM413.271 38.8926H414.98V40.1367H413.271V43.0762H411.74V35.8574H413.271V38.8926ZM403.988 36.7324H409.525V37.9629H405.492V41.0664C406.718 41.0618 407.705 41.0345 408.452 40.9844C409.2 40.9297 409.926 40.8294 410.633 40.6836L410.783 41.9004C410.022 42.0645 409.231 42.1715 408.411 42.2217C407.595 42.2718 406.454 42.2969 404.986 42.2969H403.988V36.7324ZM405.055 45.7422C405.055 45.2363 405.223 44.8011 405.561 44.4365C405.902 44.0719 406.388 43.7939 407.017 43.6025C407.65 43.4066 408.391 43.3086 409.238 43.3086C410.081 43.3086 410.813 43.4066 411.433 43.6025C412.057 43.7939 412.538 44.0719 412.875 44.4365C413.212 44.8011 413.381 45.2363 413.381 45.7422C413.381 46.2572 413.212 46.6992 412.875 47.0684C412.538 47.4375 412.057 47.7178 411.433 47.9092C410.813 48.1051 410.081 48.2031 409.238 48.2031C408.386 48.2031 407.646 48.1051 407.017 47.9092C406.388 47.7178 405.902 47.4375 405.561 47.0684C405.223 46.6992 405.055 46.2572 405.055 45.7422ZM406.559 45.7422C406.554 46.1387 406.786 46.4463 407.256 46.665C407.725 46.8792 408.386 46.9863 409.238 46.9863C410.072 46.9863 410.724 46.8792 411.193 46.665C411.663 46.4463 411.9 46.1387 411.904 45.7422C411.9 45.3548 411.665 45.0563 411.2 44.8467C410.74 44.6325 410.1 44.5254 409.279 44.5254C408.409 44.5254 407.737 44.6302 407.263 44.8398C406.789 45.0495 406.554 45.3503 406.559 45.7422ZM389.605 64.8711H388.074V57.8711H389.605V64.8711ZM379.529 61.4121C379.529 60.8424 379.673 60.3343 379.96 59.8877C380.252 59.4365 380.65 59.0856 381.156 58.835C381.662 58.5843 382.232 58.459 382.865 58.459C383.494 58.459 384.062 58.5843 384.567 58.835C385.073 59.0856 385.47 59.4365 385.757 59.8877C386.044 60.3343 386.188 60.8424 386.188 61.4121C386.188 61.9727 386.044 62.4762 385.757 62.9229C385.47 63.3649 385.073 63.7113 384.567 63.9619C384.062 64.2126 383.494 64.3379 382.865 64.3379C382.236 64.3379 381.667 64.2126 381.156 63.9619C380.65 63.7113 380.252 63.3649 379.96 62.9229C379.673 62.4762 379.529 61.9727 379.529 61.4121ZM381.02 61.4121C381.02 61.7402 381.097 62.0296 381.252 62.2803C381.407 62.5264 381.623 62.7178 381.901 62.8545C382.184 62.9867 382.505 63.0527 382.865 63.0527C383.216 63.0527 383.531 62.9867 383.809 62.8545C384.087 62.7178 384.303 62.5264 384.458 62.2803C384.618 62.0296 384.697 61.7402 384.697 61.4121C384.697 61.0749 384.618 60.7809 384.458 60.5303C384.303 60.2796 384.087 60.0859 383.809 59.9492C383.531 59.8125 383.216 59.7441 382.865 59.7441C382.505 59.7441 382.184 59.8125 381.901 59.9492C381.623 60.0859 381.407 60.2796 381.252 60.5303C381.097 60.7809 381.02 61.0749 381.02 61.4121ZM381.402 65.4727H389.605V70.0664H381.402V65.4727ZM388.115 68.8359V66.6758H382.906V68.8359H388.115ZM401.773 67.2227H400.242V66.1426H397.822V65.0762H400.242V57.8711H401.773V67.2227ZM391.355 63.4219C392.992 63.4128 394.441 63.3854 395.703 63.3398C396.965 63.2943 398.173 63.1986 399.326 63.0527L399.408 64.1465C398.497 64.3014 397.458 64.4199 396.291 64.502V66.8809H394.773V64.584C393.894 64.6204 392.818 64.6387 391.547 64.6387L391.355 63.4219ZM392.299 60.5098C392.299 60.0814 392.429 59.7008 392.688 59.3682C392.948 59.0355 393.311 58.778 393.775 58.5957C394.245 58.4134 394.783 58.3223 395.389 58.3223C395.981 58.3223 396.51 58.4134 396.975 58.5957C397.439 58.778 397.802 59.0355 398.062 59.3682C398.326 59.7008 398.46 60.0814 398.465 60.5098C398.46 60.9427 398.326 61.3232 398.062 61.6514C397.802 61.9795 397.439 62.2347 396.975 62.417C396.514 62.5947 395.986 62.6836 395.389 62.6836C394.783 62.6836 394.245 62.5947 393.775 62.417C393.311 62.2347 392.948 61.9818 392.688 61.6582C392.429 61.3301 392.299 60.9473 392.299 60.5098ZM392.996 66.3203H394.514V68.7402H402.061V69.9707H392.996V66.3203ZM393.734 60.5098C393.734 60.8424 393.885 61.1022 394.186 61.2891C394.486 61.4759 394.887 61.5716 395.389 61.5762C395.872 61.5716 396.261 61.4759 396.558 61.2891C396.858 61.0977 397.011 60.8379 397.016 60.5098C397.011 60.1816 396.861 59.9219 396.564 59.7305C396.268 59.5391 395.883 59.4434 395.409 59.4434C394.899 59.4434 394.491 59.5391 394.186 59.7305C393.885 59.9173 393.734 60.1771 393.734 60.5098Z" fill="#222222"/>
<rect x="342.5" y="0.5" width="97" height="105" rx="15.5" stroke="#E1E6EF"/>
<rect x="444" y="56" width="3" height="8" rx="1.5" transform="rotate(-90 444 56)" fill="#C2CBE5"/>
<rect x="456.5" y="0.5" width="97" height="105" rx="15.5" fill="white"/>
<path d="M486.83 44.375C488.202 44.3796 489.257 44.5459 489.995 44.874C490.733 45.2021 491.105 45.6784 491.109 46.3027C491.105 46.9225 490.733 47.3942 489.995 47.7178C489.261 48.0413 488.206 48.2031 486.83 48.2031C485.44 48.2031 484.374 48.0413 483.631 47.7178C482.893 47.3942 482.523 46.9225 482.523 46.3027C482.523 45.6784 482.895 45.2021 483.638 44.874C484.381 44.5459 485.445 44.3796 486.83 44.375ZM481.211 42.6113H486.078V41.8662C484.998 41.8115 484.169 41.6361 483.59 41.3398C483.016 41.0436 482.729 40.638 482.729 40.123C482.729 39.5443 483.082 39.1045 483.788 38.8037C484.494 38.5029 485.508 38.3503 486.83 38.3457C488.161 38.3503 489.177 38.5029 489.879 38.8037C490.585 39.1045 490.941 39.5443 490.945 40.123C490.941 40.638 490.651 41.0436 490.077 41.3398C489.507 41.6361 488.68 41.8115 487.596 41.8662V42.6113H492.477V43.8008H481.211V42.6113ZM481.771 36.8008H486.078V35.7344H487.596V36.8008H491.861V37.9629H481.771V36.8008ZM484.082 46.3027C484.082 46.5716 484.31 46.7721 484.766 46.9043C485.221 47.0319 485.91 47.0911 486.83 47.082C488.658 47.0957 489.574 46.8359 489.578 46.3027C489.574 45.765 488.658 45.4961 486.83 45.4961C484.998 45.4961 484.082 45.765 484.082 46.3027ZM484.355 40.123C484.355 40.36 484.563 40.54 484.978 40.6631C485.397 40.7816 486.014 40.8431 486.83 40.8477C488.48 40.8431 489.309 40.6016 489.318 40.123C489.314 39.8724 489.106 39.6878 488.696 39.5693C488.286 39.4463 487.664 39.3848 486.83 39.3848C486.005 39.3848 485.385 39.4463 484.971 39.5693C484.561 39.6878 484.355 39.8724 484.355 40.123ZM504.604 46.7266H493.311V45.4824H498.178V43.0762H494.555V36.6777H496.072V38.7012H501.801V36.6777H503.318V43.0762H499.682V45.4824H504.604V46.7266ZM501.801 41.8457V39.918H496.072V41.8457H501.801ZM515.158 38.7285H516.881V39.9863H515.158V42.8164H513.641V35.8574H515.158V38.7285ZM505.93 36.6504H511.426V37.8809H507.434V41.0391C508.623 41.0345 509.587 41.0072 510.325 40.957C511.068 40.9023 511.799 40.8021 512.52 40.6562L512.684 41.8594C511.913 42.028 511.123 42.1396 510.312 42.1943C509.505 42.2445 508.377 42.2695 506.928 42.2695H505.93V36.6504ZM507.174 43.377H515.158V48.0527H507.174V43.377ZM513.654 46.8496V44.5938H508.678V46.8496H513.654ZM527.271 38.8926H528.98V40.1367H527.271V43.0762H525.74V35.8574H527.271V38.8926ZM517.988 36.7324H523.525V37.9629H519.492V41.0664C520.718 41.0618 521.705 41.0345 522.452 40.9844C523.2 40.9297 523.926 40.8294 524.633 40.6836L524.783 41.9004C524.022 42.0645 523.231 42.1715 522.411 42.2217C521.595 42.2718 520.454 42.2969 518.986 42.2969H517.988V36.7324ZM519.055 45.7422C519.055 45.2363 519.223 44.8011 519.561 44.4365C519.902 44.0719 520.388 43.7939 521.017 43.6025C521.65 43.4066 522.391 43.3086 523.238 43.3086C524.081 43.3086 524.813 43.4066 525.433 43.6025C526.057 43.7939 526.538 44.0719 526.875 44.4365C527.212 44.8011 527.381 45.2363 527.381 45.7422C527.381 46.2572 527.212 46.6992 526.875 47.0684C526.538 47.4375 526.057 47.7178 525.433 47.9092C524.813 48.1051 524.081 48.2031 523.238 48.2031C522.386 48.2031 521.646 48.1051 521.017 47.9092C520.388 47.7178 519.902 47.4375 519.561 47.0684C519.223 46.6992 519.055 46.2572 519.055 45.7422ZM520.559 45.7422C520.554 46.1387 520.786 46.4463 521.256 46.665C521.725 46.8792 522.386 46.9863 523.238 46.9863C524.072 46.9863 524.724 46.8792 525.193 46.665C525.663 46.4463 525.9 46.1387 525.904 45.7422C525.9 45.3548 525.665 45.0563 525.2 44.8467C524.74 44.6325 524.1 44.5254 523.279 44.5254C522.409 44.5254 521.737 44.6302 521.263 44.8398C520.789 45.0495 520.554 45.3503 520.559 45.7422ZM503.605 64.8711H502.074V57.8711H503.605V64.8711ZM493.529 61.4121C493.529 60.8424 493.673 60.3343 493.96 59.8877C494.252 59.4365 494.65 59.0856 495.156 58.835C495.662 58.5843 496.232 58.459 496.865 58.459C497.494 58.459 498.062 58.5843 498.567 58.835C499.073 59.0856 499.47 59.4365 499.757 59.8877C500.044 60.3343 500.188 60.8424 500.188 61.4121C500.188 61.9727 500.044 62.4762 499.757 62.9229C499.47 63.3649 499.073 63.7113 498.567 63.9619C498.062 64.2126 497.494 64.3379 496.865 64.3379C496.236 64.3379 495.667 64.2126 495.156 63.9619C494.65 63.7113 494.252 63.3649 493.96 62.9229C493.673 62.4762 493.529 61.9727 493.529 61.4121ZM495.02 61.4121C495.02 61.7402 495.097 62.0296 495.252 62.2803C495.407 62.5264 495.623 62.7178 495.901 62.8545C496.184 62.9867 496.505 63.0527 496.865 63.0527C497.216 63.0527 497.531 62.9867 497.809 62.8545C498.087 62.7178 498.303 62.5264 498.458 62.2803C498.618 62.0296 498.697 61.7402 498.697 61.4121C498.697 61.0749 498.618 60.7809 498.458 60.5303C498.303 60.2796 498.087 60.0859 497.809 59.9492C497.531 59.8125 497.216 59.7441 496.865 59.7441C496.505 59.7441 496.184 59.8125 495.901 59.9492C495.623 60.0859 495.407 60.2796 495.252 60.5303C495.097 60.7809 495.02 61.0749 495.02 61.4121ZM495.402 65.4727H503.605V70.0664H495.402V65.4727ZM502.115 68.8359V66.6758H496.906V68.8359H502.115ZM515.773 67.2227H514.242V66.1426H511.822V65.0762H514.242V57.8711H515.773V67.2227ZM505.355 63.4219C506.992 63.4128 508.441 63.3854 509.703 63.3398C510.965 63.2943 512.173 63.1986 513.326 63.0527L513.408 64.1465C512.497 64.3014 511.458 64.4199 510.291 64.502V66.8809H508.773V64.584C507.894 64.6204 506.818 64.6387 505.547 64.6387L505.355 63.4219ZM506.299 60.5098C506.299 60.0814 506.429 59.7008 506.688 59.3682C506.948 59.0355 507.311 58.778 507.775 58.5957C508.245 58.4134 508.783 58.3223 509.389 58.3223C509.981 58.3223 510.51 58.4134 510.975 58.5957C511.439 58.778 511.802 59.0355 512.062 59.3682C512.326 59.7008 512.46 60.0814 512.465 60.5098C512.46 60.9427 512.326 61.3232 512.062 61.6514C511.802 61.9795 511.439 62.2347 510.975 62.417C510.514 62.5947 509.986 62.6836 509.389 62.6836C508.783 62.6836 508.245 62.5947 507.775 62.417C507.311 62.2347 506.948 61.9818 506.688 61.6582C506.429 61.3301 506.299 60.9473 506.299 60.5098ZM506.996 66.3203H508.514V68.7402H516.061V69.9707H506.996V66.3203ZM507.734 60.5098C507.734 60.8424 507.885 61.1022 508.186 61.2891C508.486 61.4759 508.887 61.5716 509.389 61.5762C509.872 61.5716 510.261 61.4759 510.558 61.2891C510.858 61.0977 511.011 60.8379 511.016 60.5098C511.011 60.1816 510.861 59.9219 510.564 59.7305C510.268 59.5391 509.883 59.4434 509.409 59.4434C508.899 59.4434 508.491 59.5391 508.186 59.7305C507.885 59.9173 507.734 60.1771 507.734 60.5098Z" fill="#222222"/>
<rect x="456.5" y="0.5" width="97" height="105" rx="15.5" stroke="#E1E6EF"/>
<rect x="558" y="56" width="3" height="8" rx="1.5" transform="rotate(-90 558 56)" fill="#C2CBE5"/>
<rect x="570.5" y="0.5" width="97" height="105" rx="15.5" fill="white"/>
<path d="M603.298 49.8379H605.021V51.1094H603.298V54.0625H601.78V46.8574H603.298V49.8379ZM593.427 52.832C594.375 52.5859 595.193 52.2646 595.881 51.8682C596.569 51.4671 597.109 51.0091 597.501 50.4941C597.893 49.9746 598.132 49.4141 598.219 48.8125H594.042V47.582H599.853C599.853 48.653 599.625 49.6146 599.169 50.4668C598.718 51.319 598.059 52.0413 597.193 52.6338C596.332 53.2262 595.286 53.6797 594.056 53.9941L593.427 52.832ZM595.067 54.582H603.298V59.2168H601.78V55.7988H595.067V54.582ZM614.536 54.582C615.429 54.582 616.204 54.6755 616.86 54.8623C617.521 55.0446 618.029 55.3112 618.385 55.6621C618.745 56.0085 618.925 56.4232 618.925 56.9062C618.925 57.3802 618.745 57.7881 618.385 58.1299C618.029 58.4762 617.521 58.7406 616.86 58.9229C616.204 59.1097 615.429 59.2031 614.536 59.2031C613.652 59.2031 612.88 59.1097 612.219 58.9229C611.562 58.7406 611.054 58.4762 610.694 58.1299C610.339 57.7881 610.161 57.3802 610.161 56.9062C610.161 56.4232 610.339 56.0085 610.694 55.6621C611.054 55.3112 611.562 55.0446 612.219 54.8623C612.88 54.6755 613.652 54.582 614.536 54.582ZM608.999 52.4629H613.347V50.2207H614.851V52.4629H620.21V53.6934H608.999V52.4629ZM610.284 47.4453H618.843V48.4707V48.833C618.843 49.3662 618.82 49.8607 618.774 50.3164C618.733 50.7721 618.642 51.2507 618.501 51.752L616.997 51.6152C617.134 51.0775 617.223 50.5876 617.264 50.1455C617.305 49.7035 617.325 49.2044 617.325 48.6484H610.284V47.4453ZM611.692 56.9062C611.688 57.2663 611.934 57.5443 612.431 57.7402C612.932 57.9316 613.634 58.0273 614.536 58.0273C615.438 58.0273 616.143 57.9316 616.648 57.7402C617.159 57.5443 617.416 57.2663 617.421 56.9062C617.416 56.5326 617.159 56.2432 616.648 56.0381C616.143 55.833 615.438 55.7305 614.536 55.7305C613.638 55.7305 612.939 55.833 612.438 56.0381C611.936 56.2432 611.688 56.5326 611.692 56.9062ZM625.501 49.0859C625.501 49.5964 625.61 50.084 625.829 50.5488C626.052 51.0137 626.381 51.4261 626.813 51.7861C627.251 52.1462 627.784 52.4219 628.413 52.6133L627.688 53.8027C627.009 53.5885 626.424 53.2718 625.932 52.8525C625.439 52.4333 625.054 51.9388 624.776 51.3691C624.498 52.0345 624.097 52.611 623.573 53.0986C623.054 53.5863 622.429 53.9531 621.7 54.1992L620.935 52.9961C621.577 52.7865 622.126 52.4811 622.582 52.0801C623.042 51.679 623.389 51.221 623.621 50.7061C623.854 50.1911 623.97 49.6556 623.97 49.0996V48.9492H621.358V47.7188H628.071V48.9492H625.501V49.0859ZM622.616 56.8379C622.616 56.3503 622.785 55.931 623.122 55.5801C623.459 55.2292 623.942 54.9626 624.571 54.7803C625.2 54.5934 625.943 54.5 626.8 54.5C627.652 54.5 628.388 54.5934 629.008 54.7803C629.628 54.9626 630.104 55.2292 630.437 55.5801C630.774 55.931 630.942 56.3503 630.942 56.8379C630.942 57.3301 630.774 57.7539 630.437 58.1094C630.104 58.4648 629.628 58.736 629.008 58.9229C628.388 59.1097 627.652 59.2031 626.8 59.2031C625.943 59.2031 625.2 59.1097 624.571 58.9229C623.942 58.736 623.459 58.4648 623.122 58.1094C622.785 57.7539 622.616 57.3301 622.616 56.8379ZM624.134 56.8379C624.134 57.2161 624.364 57.5055 624.824 57.7061C625.285 57.9066 625.943 58.0091 626.8 58.0137C627.647 58.0091 628.299 57.9066 628.755 57.7061C629.211 57.5055 629.438 57.2161 629.438 56.8379C629.438 56.4642 629.211 56.1794 628.755 55.9834C628.299 55.7874 627.647 55.6895 626.8 55.6895C625.948 55.6895 625.289 55.7874 624.824 55.9834C624.364 56.1794 624.134 56.4642 624.134 56.8379ZM629.302 46.8574H630.819V49.8242H632.542V51.0684H630.819V54.2266H629.302V46.8574ZM637.601 49.0859C637.601 49.5964 637.71 50.084 637.929 50.5488C638.152 51.0137 638.48 51.4261 638.913 51.7861C639.351 52.1462 639.884 52.4219 640.513 52.6133L639.788 53.8027C639.109 53.5885 638.523 53.2718 638.031 52.8525C637.539 52.4333 637.154 51.9388 636.876 51.3691C636.598 52.0345 636.197 52.611 635.673 53.0986C635.153 53.5863 634.529 53.9531 633.8 54.1992L633.034 52.9961C633.677 52.7865 634.226 52.4811 634.682 52.0801C635.142 51.679 635.488 51.221 635.721 50.7061C635.953 50.1911 636.069 49.6556 636.069 49.0996V48.9492H633.458V47.7188H640.171V48.9492H637.601V49.0859ZM634.716 56.8379C634.716 56.3503 634.884 55.931 635.222 55.5801C635.559 55.2292 636.042 54.9626 636.671 54.7803C637.3 54.5934 638.043 54.5 638.899 54.5C639.752 54.5 640.488 54.5934 641.107 54.7803C641.727 54.9626 642.203 55.2292 642.536 55.5801C642.873 55.931 643.042 56.3503 643.042 56.8379C643.042 57.3301 642.873 57.7539 642.536 58.1094C642.203 58.4648 641.727 58.736 641.107 58.9229C640.488 59.1097 639.752 59.2031 638.899 59.2031C638.043 59.2031 637.3 59.1097 636.671 58.9229C636.042 58.736 635.559 58.4648 635.222 58.1094C634.884 57.7539 634.716 57.3301 634.716 56.8379ZM636.233 56.8379C636.233 57.2161 636.464 57.5055 636.924 57.7061C637.384 57.9066 638.043 58.0091 638.899 58.0137C639.747 58.0091 640.399 57.9066 640.854 57.7061C641.31 57.5055 641.538 57.2161 641.538 56.8379C641.538 56.4642 641.31 56.1794 640.854 55.9834C640.399 55.7874 639.747 55.6895 638.899 55.6895C638.047 55.6895 637.389 55.7874 636.924 55.9834C636.464 56.1794 636.233 56.4642 636.233 56.8379ZM641.401 46.8574H642.919V49.8242H644.642V51.0684H642.919V54.2266H641.401V46.8574Z" fill="#222222"/>
<rect x="570.5" y="0.5" width="97" height="105" rx="15.5" stroke="#E1E6EF"/>
<rect x="672" y="56" width="3" height="8" rx="1.5" transform="rotate(-90 672 56)" fill="#C2CBE5"/>
<rect x="684.5" y="0.5" width="97" height="105" rx="15.5" fill="white"/>
<path d="M723.348 38.8379H725.07V40.1094H723.348V43.0625H721.83V35.8574H723.348V38.8379ZM713.477 41.832C714.424 41.5859 715.243 41.2646 715.931 40.8682C716.619 40.4671 717.159 40.0091 717.551 39.4941C717.943 38.9746 718.182 38.4141 718.269 37.8125H714.092V36.582H719.902C719.902 37.653 719.674 38.6146 719.219 39.4668C718.768 40.319 718.109 41.0413 717.243 41.6338C716.382 42.2262 715.336 42.6797 714.105 42.9941L713.477 41.832ZM715.117 43.582H723.348V48.2168H721.83V44.7988H715.117V43.582ZM733.438 38.8242C733.433 39.5671 733.549 40.2917 733.786 40.998C734.028 41.7044 734.374 42.3379 734.825 42.8984C735.281 43.4544 735.821 43.8828 736.445 44.1836L735.516 45.4004C734.859 45.0677 734.29 44.5938 733.807 43.9785C733.328 43.3633 732.954 42.6523 732.686 41.8457C732.408 42.707 732.016 43.4681 731.51 44.1289C731.008 44.7852 730.411 45.2865 729.719 45.6328L728.789 44.416C729.432 44.1107 729.988 43.6663 730.457 43.083C730.931 42.4951 731.291 41.832 731.537 41.0938C731.788 40.3509 731.915 39.5944 731.92 38.8242V36.8555H733.438V38.8242ZM737.184 35.8574H738.701V40.6973H740.602V41.9961H738.701V48.2168H737.184V35.8574ZM744.553 36.4043C745.081 36.4043 745.567 36.5 746.009 36.6914C746.451 36.8783 746.82 37.1449 747.116 37.4912C747.417 37.833 747.618 38.2272 747.718 38.6738H749.953V35.8574H751.471V42.4883H749.953V39.9043H747.731C747.636 40.3646 747.438 40.7702 747.137 41.1211C746.84 41.472 746.469 41.7454 746.022 41.9414C745.576 42.1328 745.086 42.2285 744.553 42.2285C743.928 42.2285 743.368 42.1032 742.871 41.8525C742.374 41.6019 741.985 41.2555 741.702 40.8135C741.424 40.3669 741.285 39.8633 741.285 39.3027C741.285 38.7467 741.424 38.2477 741.702 37.8057C741.985 37.3636 742.374 37.0195 742.871 36.7734C743.368 36.5273 743.928 36.4043 744.553 36.4043ZM742.734 39.3027C742.734 39.6263 742.812 39.9134 742.967 40.1641C743.122 40.4147 743.336 40.6084 743.609 40.7451C743.887 40.8773 744.202 40.9434 744.553 40.9434C744.895 40.9434 745.2 40.8773 745.469 40.7451C745.742 40.6084 745.956 40.4147 746.111 40.1641C746.266 39.9134 746.344 39.6263 746.344 39.3027C746.344 38.9792 746.266 38.6943 746.111 38.4482C745.956 38.1976 745.744 38.0062 745.476 37.874C745.207 37.7419 744.899 37.6758 744.553 37.6758C744.197 37.6758 743.883 37.7419 743.609 37.874C743.336 38.0062 743.122 38.1976 742.967 38.4482C742.812 38.6943 742.734 38.9792 742.734 39.3027ZM743.322 43.0625H744.826V44.375H749.953V43.0625H751.471V48.0664H743.322V43.0625ZM749.953 46.8359V45.5508H744.826V46.8359H749.953ZM726.54 66.252H721.618V70.2168H720.114V66.252H715.247V65.0488H726.54V66.252ZM716.614 58.3496H718.118V59.8672H723.642V58.3496H725.173V63.7637H716.614V58.3496ZM723.642 62.5332V61.0703H718.118V62.5332H723.642ZM738.64 65.2539H733.868V67.5234H732.364V65.2539H727.347V64.0371H738.64V65.2539ZM728.714 66.3887H730.231V68.7402H737.396V69.9707H728.714V66.3887ZM728.782 58.418H737.19V62.8887H728.782V58.418ZM735.687 61.6992V59.6074H730.259V61.6992H735.687ZM743.89 60.0859C743.89 60.5964 743.999 61.084 744.218 61.5488C744.441 62.0137 744.769 62.4261 745.202 62.7861C745.64 63.1462 746.173 63.4219 746.802 63.6133L746.077 64.8027C745.398 64.5885 744.812 64.2718 744.32 63.8525C743.828 63.4333 743.443 62.9388 743.165 62.3691C742.887 63.0345 742.486 63.611 741.962 64.0986C741.442 64.5863 740.818 64.9531 740.089 65.1992L739.323 63.9961C739.966 63.7865 740.515 63.4811 740.971 63.0801C741.431 62.679 741.777 62.221 742.01 61.7061C742.242 61.1911 742.358 60.6556 742.358 60.0996V59.9492H739.747V58.7188H746.46V59.9492H743.89V60.0859ZM741.005 67.8379C741.005 67.3503 741.174 66.931 741.511 66.5801C741.848 66.2292 742.331 65.9626 742.96 65.7803C743.589 65.5934 744.332 65.5 745.188 65.5C746.041 65.5 746.777 65.5934 747.396 65.7803C748.016 65.9626 748.493 66.2292 748.825 66.5801C749.162 66.931 749.331 67.3503 749.331 67.8379C749.331 68.3301 749.162 68.7539 748.825 69.1094C748.493 69.4648 748.016 69.736 747.396 69.9229C746.777 70.1097 746.041 70.2031 745.188 70.2031C744.332 70.2031 743.589 70.1097 742.96 69.9229C742.331 69.736 741.848 69.4648 741.511 69.1094C741.174 68.7539 741.005 68.3301 741.005 67.8379ZM742.522 67.8379C742.522 68.2161 742.753 68.5055 743.213 68.7061C743.673 68.9066 744.332 69.0091 745.188 69.0137C746.036 69.0091 746.688 68.9066 747.144 68.7061C747.599 68.5055 747.827 68.2161 747.827 67.8379C747.827 67.4642 747.599 67.1794 747.144 66.9834C746.688 66.7874 746.036 66.6895 745.188 66.6895C744.336 66.6895 743.678 66.7874 743.213 66.9834C742.753 67.1794 742.522 67.4642 742.522 67.8379ZM747.69 57.8574H749.208V60.8242H750.931V62.0684H749.208V65.2266H747.69V57.8574Z" fill="#222222"/>
<rect x="684.5" y="0.5" width="97" height="105" rx="15.5" stroke="#E1E6EF"/>
</svg>
