<svg width="299" height="659" viewBox="0 0 299 659" fill="none" xmlns="http://www.w3.org/2000/svg">
<path d="M149.5 320L299 356H0L149.5 320Z" fill="url(#paint0_linear_1412_14230)"/>
<circle cx="150" cy="172" r="82" fill="#FF8D24"/>
<circle cx="150" cy="172" r="88.3617" stroke="#FF8D24" stroke-opacity="0.7" stroke-width="12.7234"/>
<path d="M102.81 153.835H116.258V161.049L113.186 161.606H102.81V153.835ZM118.774 165.658H111.738V169.287H108.621V165.658H99.9152V163.432H119.22L118.774 165.658ZM116.414 173.251H102.81V167.439H105.905V171.024H116.86L116.414 173.251ZM105.905 159.401H113.186V156.062H105.905V159.401ZM137.615 152.967V172.895L134.587 173.34V161.005H130.49V158.756H134.587V153.412L137.615 152.967ZM128.219 153.991V159.847C128.219 160.314 128.33 160.804 128.597 161.16C129.755 162.719 131.492 164.857 133.006 166.549L131.225 168.263C129.666 166.616 127.796 164.523 126.66 163.008C125.346 164.678 123.409 167.039 121.828 168.753L119.958 167.128C121.472 165.369 123.276 163.231 124.589 161.339C124.857 160.96 125.057 160.448 125.057 159.98V154.436L128.219 153.991ZM152.537 165.97C155.03 165.97 157.279 166.883 157.279 169.844C157.279 172.828 155.03 173.741 152.537 173.741H147.616C145.122 173.741 142.873 172.828 142.873 169.844C142.873 166.883 145.122 165.97 147.616 165.97H148.462V164.211H140.446V161.984H159.751L159.305 164.211H151.668V165.97H152.537ZM156.767 155.705H151.668V156.106C151.668 156.329 151.891 156.507 152.069 156.618C154.051 157.687 155.943 158.622 158.036 159.49L156.812 161.45C154.808 160.693 152.826 159.824 150.933 158.889C150.644 158.756 150.377 158.6 150.132 158.422C149.865 158.6 149.597 158.711 149.33 158.845C147.371 159.824 145.345 160.715 143.341 161.494L142.005 159.624C144.12 158.756 146.057 157.798 148.128 156.663C148.306 156.551 148.462 156.306 148.462 156.084V155.705H143.185V153.501H157.212L156.767 155.705ZM152.425 168.196H147.749C146.747 168.196 145.857 168.597 145.857 169.844C145.857 171.113 146.747 171.514 147.749 171.514H152.425C153.427 171.514 154.296 171.113 154.296 169.844C154.296 168.597 153.427 168.196 152.425 168.196ZM173.27 165.614C175.697 165.614 177.901 166.593 177.901 169.599C177.901 172.627 175.697 173.607 173.27 173.607H168.505C165.989 173.607 163.74 172.627 163.74 169.599C163.74 166.593 165.989 165.614 168.505 165.614H173.27ZM171.845 158.221V159.424C171.845 162.407 169.351 164.01 166.545 164.01C163.74 164.01 161.246 162.407 161.246 159.424V158.221C161.246 155.238 163.74 153.635 166.545 153.635C169.351 153.635 171.845 155.238 171.845 158.221ZM177.612 152.967V157.843H180.818L180.373 160.092H177.612V164.812L174.539 165.257V153.412L177.612 152.967ZM172.98 167.818H168.75C167.547 167.818 166.723 168.308 166.723 169.599C166.723 170.913 167.547 171.403 168.75 171.403H172.98C174.094 171.403 174.917 170.913 174.917 169.599C174.917 168.308 174.094 167.818 172.98 167.818ZM168.839 159.335V158.31C168.839 156.752 167.837 155.861 166.545 155.861C165.254 155.861 164.252 156.752 164.252 158.31V159.335C164.252 160.893 165.254 161.784 166.545 161.784C167.837 161.784 168.839 160.893 168.839 159.335ZM182.335 161.071C182.335 159.001 184.317 157.331 187.412 157.331C190.507 157.331 192.489 159.001 192.489 161.071V161.784C192.489 163.432 191.242 164.812 189.193 165.324V167.551C191.13 167.462 192.867 167.194 194.025 167.016V169.221C190.863 169.666 187.434 169.8 184.005 169.8H181.311V167.573H186.076V165.413C183.76 165.012 182.335 163.543 182.335 161.784V161.071ZM194.804 153.412L197.877 152.967V161.561H200.95L200.504 163.832H197.877V172.895L194.804 173.34V153.412ZM193.112 156.885H181.378V154.659H185.876V153.189L188.948 152.744V154.659H193.557L193.112 156.885ZM189.594 161.272C189.594 160.181 188.703 159.446 187.412 159.446C186.121 159.446 185.23 160.181 185.23 161.272V161.583C185.23 162.674 186.121 163.409 187.412 163.409C188.703 163.409 189.594 162.674 189.594 161.583V161.272Z" fill="white"/>
<path d="M130.626 198.572H128.457C126.69 196.105 125.553 193.691 125.553 190.594C125.553 187.288 126.69 185.118 128.457 182.617H130.626C129.087 185.118 127.985 187.323 127.985 190.594C127.985 193.673 129.087 196.105 130.626 198.572ZM140.314 194.898L139.964 196.91H131.952V183.334H140.104V185.328H134.436V188.88H139.685V190.909H134.436V194.898H140.314ZM151.417 196.98H147.778C144.069 196.98 142.249 195.3 142.249 191.749V188.565C142.249 185.118 144.296 183.334 147.725 183.334H151.242V185.381H148.058C145.766 185.381 144.716 186.483 144.716 188.932V191.364C144.716 193.498 145.398 194.95 148.04 194.95H151.767L151.417 196.98ZM167.87 183.334V196.735L165.491 197.085V185.328L162.202 196.717L159.805 197.015L156.411 185.328V196.735L154.049 197.085V183.334H158.021L160.977 194.041L163.899 183.334H167.87ZM174.434 190.594C174.434 193.708 173.262 196.087 171.512 198.572H169.36C170.882 196.105 172.019 193.673 172.019 190.594C172.019 187.323 170.882 185.118 169.36 182.617H171.512C173.279 185.118 174.434 187.288 174.434 190.594Z" fill="white"/>
<path d="M228.397 266.576L228.077 268.16H225.501V269.904C225.501 270.24 225.565 270.608 225.789 270.848C226.781 271.952 227.789 272.896 228.909 273.84L227.629 275.072C226.493 274.16 225.421 273.216 224.413 272.176C223.405 273.28 222.205 274.432 221.037 275.424L219.693 274.256C220.813 273.248 221.965 272.256 222.941 270.976C223.149 270.704 223.293 270.336 223.293 270V268.16H220.413V266.576H228.397ZM229.917 276.464V271.136H227.181V269.536H229.917V266.08L232.093 265.76V276.144L229.917 276.464ZM232.189 280.336H222.797V275.712H225.021V278.736H232.509L232.189 280.336ZM242.815 266.8L242.495 268.384H239.935V271.008C239.935 271.344 240.015 271.696 240.223 271.952C241.103 273.04 242.223 274.32 243.311 275.536L242.031 276.768C240.911 275.584 239.727 274.32 238.831 273.28C237.855 274.448 236.623 275.856 235.471 277.104L234.127 275.936C235.231 274.656 236.367 273.408 237.343 272.08C237.535 271.808 237.695 271.44 237.695 271.104V268.384H234.847V266.8H242.815ZM246.207 265.76V271.264H248.511L248.191 273.056H246.207V280.08L244.015 280.4V266.08L246.207 265.76ZM255.238 266.384H264.902V271.568L262.694 271.968H255.238V266.384ZM266.71 274.88H261.654V277.488H259.414V274.88H253.158V273.28H267.03L266.71 274.88ZM265.014 280.336H255.238V276.16H257.462V278.736H265.334L265.014 280.336ZM257.462 270.384H262.694V267.984H257.462V270.384ZM280.249 265.76V280.08L278.073 280.4V271.536H275.129V269.92H278.073V266.08L280.249 265.76ZM273.497 266.496V270.704C273.497 271.04 273.577 271.392 273.769 271.648C274.601 272.768 275.849 274.304 276.937 275.52L275.657 276.752C274.537 275.568 273.193 274.064 272.377 272.976C271.433 274.176 270.041 275.872 268.905 277.104L267.561 275.936C268.649 274.672 269.945 273.136 270.889 271.776C271.081 271.504 271.225 271.136 271.225 270.8V266.816L273.497 266.496ZM202.744 298.912H208.632V298.016H204.824V292.112H214.488V293.568H207.048V294.368H214.44V295.76H207.048V296.56H214.856L214.536 298.016H210.936V298.912H216.616L216.296 300.464H202.744V298.912ZM211.432 301.312C213.224 301.312 214.84 301.952 214.84 303.984C214.84 306.048 213.224 306.688 211.432 306.688H207.896C206.104 306.688 204.488 306.048 204.488 303.984C204.488 301.952 206.104 301.312 207.896 301.312H211.432ZM211.352 302.912H207.992C207.272 302.912 206.632 303.184 206.632 303.984C206.632 304.816 207.272 305.088 207.992 305.088H211.352C212.072 305.088 212.696 304.816 212.696 303.984C212.696 303.184 212.072 302.912 211.352 302.912ZM229.451 300.784V306L227.211 306.4H220.011V300.784H222.203V302.192H227.211V300.784H229.451ZM218.203 297.216C218.203 295.488 219.851 294.592 221.851 294.592C223.851 294.592 225.499 295.488 225.499 297.216V297.536C225.499 299.264 223.851 300.208 221.851 300.208C219.851 300.208 218.203 299.264 218.203 297.536V297.216ZM229.451 291.76V296.096H231.755L231.435 297.696H229.451V299.904L227.243 300.224V292.08L229.451 291.76ZM225.947 294.272H217.435V292.704H220.667V291.664L222.875 291.344V292.704H226.267L225.947 294.272ZM223.419 297.28C223.419 296.56 222.731 296.096 221.851 296.096C220.971 296.096 220.283 296.56 220.283 297.28V297.472C220.283 298.176 220.971 298.704 221.851 298.704C222.731 298.704 223.419 298.176 223.419 297.472V297.28ZM222.203 304.832H227.211V303.744H222.203V304.832ZM237.33 292.288H244.338V298.592L242.178 298.912H237.33V292.288ZM248.914 302.64L245.122 302.656C245.122 302.944 245.154 303.248 245.41 303.376C246.754 304.16 248.066 304.8 249.682 305.52L248.658 306.864C247.042 306.192 245.394 305.408 244.05 304.688C242.818 305.376 241.058 306.272 239.442 306.976L238.386 305.648C240.114 304.912 241.362 304.208 242.562 303.488C242.818 303.344 242.898 302.976 242.914 302.656H238.93V301.136H242.914V299.808L245.122 299.488V301.136H249.234L248.914 302.64ZM248.866 291.76V299.84L246.706 300.16V292.08L248.866 291.76ZM242.178 293.888H239.49V297.36H242.178V293.888ZM258.008 298.144C258.12 297.888 258.136 297.424 258.136 297.088V295.36H255.72V293.808H258.136V292.256L260.216 291.936V293.808H262.472L262.232 295.36H260.216V297.04C260.216 297.376 260.2 297.776 260.328 298.064C260.744 298.992 261.976 300.816 262.824 301.872L261.448 303.056C260.792 302.208 259.864 300.944 259.24 299.968C258.552 301.056 257.656 302.336 256.776 303.392L255.384 302.24C256.488 300.912 257.512 299.216 258.008 298.144ZM263.192 292.304L265.176 291.984V305.616L263.192 305.936V298.448H261.416V296.784H263.192V292.304ZM266.04 292.08L268.072 291.76V306.08L266.04 306.4V292.08ZM277.755 292.304L279.707 291.984V305.616L277.755 305.936V300.56H275.771V298.976H277.755V296.656H276.251C275.627 299.552 273.995 301.856 271.595 303.296L270.363 301.92C273.019 300.368 274.427 297.44 274.427 294.656V294.384H270.955V292.8H276.539V293.936C276.539 294.32 276.523 294.688 276.491 295.056H277.755V292.304ZM280.603 292.08L282.635 291.76V306.08L280.603 306.4V292.08ZM285.501 297.584C285.501 296.096 286.925 294.896 289.149 294.896C291.373 294.896 292.797 296.096 292.797 297.584V298.096C292.797 299.28 291.901 300.272 290.429 300.64V302.24C291.821 302.176 293.069 301.984 293.901 301.856V303.44C291.629 303.76 289.165 303.856 286.701 303.856H284.765V302.256H288.189V300.704C286.525 300.416 285.501 299.36 285.501 298.096V297.584ZM294.461 292.08L296.669 291.76V297.936H298.877L298.557 299.568H296.669V306.08L294.461 306.4V292.08ZM293.245 294.576H284.813V292.976H288.045V291.92L290.253 291.6V292.976H293.565L293.245 294.576ZM290.717 297.728C290.717 296.944 290.077 296.416 289.149 296.416C288.221 296.416 287.581 296.944 287.581 297.728V297.952C287.581 298.736 288.221 299.264 289.149 299.264C290.077 299.264 290.717 298.736 290.717 297.952V297.728Z" fill="#2856CE"/>
<circle cx="149.5" cy="173.644" r="123.077" stroke="#C1CFC5" stroke-opacity="0.6" stroke-width="0.84589" stroke-dasharray="8.46 5.08"/>
<rect width="20" height="20" rx="10" transform="matrix(-1 0 0 1 160 287)" fill="white"/>
<path d="M152 292L146 296.927L152 301.854" stroke="#FF8D24" stroke-width="2.53767" stroke-linecap="round" stroke-linejoin="round"/>
<rect width="20" height="20" rx="10" transform="matrix(0.5 -0.866025 -0.866025 -0.5 46 125)" fill="white"/>
<path d="M45.5336 115.478L43.8944 108.463L37 110.551" stroke="#FF8D24" stroke-width="2.53767" stroke-linecap="round" stroke-linejoin="round"/>
<rect width="20" height="20" rx="10" transform="matrix(0.5 0.866025 0.866025 -0.5 242 108)" fill="white"/>
<path d="M250 111.927L256.894 114.015L258.534 107" stroke="#FF8D24" stroke-width="2.53767" stroke-linecap="round" stroke-linejoin="round"/>
<rect y="366" width="147" height="68" rx="8" fill="#1B4B66"/>
<path d="M32.8045 384.39H30.5505V385.916C30.5505 386.21 30.6065 386.532 30.8025 386.742C31.6705 387.708 32.5525 388.534 33.5325 389.36L32.4125 390.438C31.4185 389.64 30.4805 388.814 29.5985 387.904C28.7165 388.87 27.6665 389.878 26.6445 390.746L25.4685 389.724C26.4485 388.842 27.4565 387.974 28.3105 386.854C28.4925 386.616 28.6185 386.294 28.6185 386V384.39H26.0985V383.004H33.0845L32.8045 384.39ZM36.3185 382.29V391.208L34.4145 391.488V382.57L36.3185 382.29ZM36.4025 395.044H28.1845V390.998H30.1305V393.644H36.6825L36.4025 395.044ZM38.0847 389.234H43.2367V387.946H39.9047V382.57H41.8367V383.956H46.4287V382.57H48.3607V387.596L46.4287 387.946H45.2527V389.234H50.2227L49.9427 390.62H38.0847V389.234ZM48.4587 395.044H39.9047V391.544H41.8507V393.644H48.7387L48.4587 395.044ZM41.8367 386.546H46.4287V385.328H41.8367V386.546ZM65.3767 382.29V386.448H67.3087L67.0287 387.862H65.3767V391.376L63.4447 391.656V382.57L65.3767 382.29ZM54.9607 388.926H57.1167V385.846H58.9787V388.926C60.2107 388.884 61.7647 388.772 62.9547 388.576V389.962C60.9667 390.242 58.8107 390.326 56.6547 390.326H54.9607V388.926ZM65.4467 395.044H57.1307V391.11H59.0627V393.644H65.7267L65.4467 395.044ZM60.3927 384.208H55.5487V382.808H62.3947C62.3387 384.264 62.1287 386.798 61.7927 387.974H59.9167C60.2247 386.938 60.3927 385.104 60.3927 384.208ZM72.7429 386.714V384.502H68.4729V383.116H74.6609V388.086H70.4189V390.326H71.4269C72.7009 390.326 74.6469 390.27 75.9909 389.99V391.376C74.5629 391.614 72.5749 391.712 71.2589 391.712H68.4729V386.714H72.7429ZM78.4549 382.29V394.82L76.5509 395.1V382.57L78.4549 382.29ZM90.5531 387.568H82.0551V384.446H88.5791V383.816H81.9991V382.542H90.5111V385.678H84.0011V386.308H90.8331L90.5531 387.568ZM92.3731 388.212L92.0931 389.5H80.2351V388.212H92.3731ZM90.6651 395.156H82.0551V392.02H88.5791V391.39H82.0271V390.13H90.5111V393.252H84.0011V393.882H90.9451L90.6651 395.156ZM96.9011 388.548H102.053V387.764H98.7211V382.598H107.177V383.872H100.667V384.572H107.135V385.79H100.667V386.49H107.499L107.219 387.764H104.069V388.548H109.039L108.759 389.906H96.9011V388.548ZM104.503 390.648C106.071 390.648 107.485 391.208 107.485 392.986C107.485 394.792 106.071 395.352 104.503 395.352H101.409C99.8411 395.352 98.4271 394.792 98.4271 392.986C98.4271 391.208 99.8411 390.648 101.409 390.648H104.503ZM104.433 392.048H101.493C100.863 392.048 100.303 392.286 100.303 392.986C100.303 393.714 100.863 393.952 101.493 393.952H104.433C105.063 393.952 105.609 393.714 105.609 392.986C105.609 392.286 105.063 392.048 104.433 392.048ZM110.357 387.652C110.357 386.014 111.799 385.146 113.549 385.146C115.299 385.146 116.741 386.014 116.741 387.652V387.876C116.741 389.514 115.299 390.424 113.549 390.424C111.799 390.424 110.357 389.514 110.357 387.876V387.652ZM120.269 382.29V386.392H122.145L121.865 387.876H120.269V391.572L118.337 391.852V382.57L120.269 382.29ZM120.465 395.044H112.135V391.306H114.081V393.644H120.745L120.465 395.044ZM117.203 384.866H109.755V383.494H112.583V382.514L114.515 382.234V383.494H117.483L117.203 384.866ZM114.921 387.708C114.921 386.952 114.319 386.462 113.549 386.462C112.779 386.462 112.177 386.952 112.177 387.708V387.82C112.177 388.562 112.779 389.108 113.549 389.108C114.319 389.108 114.921 388.562 114.921 387.82V387.708ZM57.3937 412.186V416.75L55.4617 417.1H49.1197V412.186H51.0657V413.432H55.4617V412.186H57.3937ZM47.2017 409.064C47.2017 407.552 48.6437 406.768 50.3937 406.768C52.1437 406.768 53.5857 407.552 53.5857 409.064V409.344C53.5857 410.856 52.1437 411.682 50.3937 411.682C48.6437 411.682 47.2017 410.856 47.2017 409.344V409.064ZM53.8377 407.3H55.4897V404.57L57.3937 404.29V411.416L55.4897 411.696V410.926H53.8377V409.596H55.4897V408.588H53.8377V407.3ZM53.9777 406.488H46.5297V405.116H49.3577V404.206L51.2897 403.926V405.116H54.2577L53.9777 406.488ZM51.7657 409.12C51.7657 408.49 51.1637 408.084 50.3937 408.084C49.6237 408.084 49.0217 408.49 49.0217 409.12V409.288C49.0217 409.904 49.6237 410.366 50.3937 410.366C51.1637 410.366 51.7657 409.904 51.7657 409.288V409.12ZM51.0657 415.728H55.4617V414.804H51.0657V415.728ZM68.2319 407.006V404.57L70.1219 404.29V411.22L68.2319 411.5V408.434H66.3419C66.1179 410.058 64.6339 410.912 62.9679 410.912C61.1619 410.912 59.5659 409.904 59.5659 408.028V407.454C59.5659 405.578 61.1619 404.57 62.9679 404.57C64.6199 404.57 66.1039 405.424 66.3279 407.006H68.2319ZM70.1219 416.75L68.2319 417.1H61.8619V411.85H63.8079V413.166H68.2039V411.85H70.1219V416.75ZM64.4799 407.972V407.51C64.4799 406.53 63.8219 405.97 62.9679 405.97C62.1139 405.97 61.4559 406.53 61.4559 407.51V407.972C61.4559 408.952 62.1139 409.512 62.9679 409.512C63.8219 409.512 64.4799 408.952 64.4799 407.972ZM63.8079 415.728H68.2039V414.524H63.8079V415.728ZM83.4279 412.396C84.9539 412.396 86.3959 412.998 86.3959 414.832C86.3959 416.666 84.9539 417.282 83.4279 417.282H80.3479C78.7659 417.282 77.3799 416.666 77.3799 414.832C77.3799 412.998 78.7659 412.396 80.3479 412.396H83.4279ZM86.1719 406.012H82.8959C82.8959 406.278 82.9519 406.516 83.1479 406.614C84.2959 407.188 85.6399 407.748 87.0119 408.308L86.2279 409.554C84.8419 409.008 83.0359 408.308 81.9019 407.734C80.7679 408.294 78.9339 409.092 77.5339 409.666L76.7359 408.434C78.1499 407.874 79.5079 407.272 80.5859 406.712C80.7959 406.6 80.8799 406.32 80.8939 406.012H77.4499V404.626H86.4519L86.1719 406.012ZM87.9639 410.1L87.6839 411.458H75.8259V410.1H87.9639ZM83.2459 413.782H80.5299C79.7739 413.782 79.2559 414.076 79.2559 414.832C79.2559 415.588 79.7739 415.896 80.5299 415.896H83.2459C83.9459 415.896 84.5199 415.588 84.5199 414.832C84.5199 414.076 83.9459 413.782 83.2459 413.782ZM96.6741 404.486V408.742H97.9341V404.57L99.6981 404.29V416.82L97.9341 417.1V410.156H96.6741V416.414L94.9381 416.694V404.766L96.6741 404.486ZM93.6921 406.586H91.1861V412.27H91.9001C92.7121 412.27 93.6221 412.214 94.4201 412.032V413.39C93.6081 413.558 92.6281 413.628 91.6061 413.628H89.3941V405.2H93.6921V406.586Z" fill="white"/>
<rect x="152" y="366" width="147" height="68" rx="8" fill="#1B4B66"/>
<path d="M186.238 382.836H194.694V387.372L192.762 387.722H186.238V382.836ZM196.276 390.27H191.852V392.552H189.892V390.27H184.418V388.87H196.556L196.276 390.27ZM194.792 395.044H186.238V391.39H188.184V393.644H195.072L194.792 395.044ZM188.184 386.336H192.762V384.236H188.184V386.336ZM208.122 382.29V394.82L206.218 395.1V387.344H203.642V385.93H206.218V382.57L208.122 382.29ZM202.214 382.934V386.616C202.214 386.91 202.284 387.218 202.452 387.442C203.18 388.422 204.272 389.766 205.224 390.83L204.104 391.908C203.124 390.872 201.948 389.556 201.234 388.604C200.408 389.654 199.19 391.138 198.196 392.216L197.02 391.194C197.972 390.088 199.106 388.744 199.932 387.554C200.1 387.316 200.226 386.994 200.226 386.7V383.214L202.214 382.934ZM213.668 382.542H215.39L211.862 394.064H210.126L213.668 382.542ZM217.77 386.826V385.426C219.772 385.426 222.418 385.426 224.672 385.244L224.77 384.208H217.966V382.808H226.828C226.8 384.558 226.436 387.26 226.086 388.492H224.07C224.196 388.1 224.35 387.4 224.462 386.658C222.306 386.812 219.688 386.826 217.77 386.826ZM216.342 389.108H220.696V387.512H222.656V389.108H228.48L228.2 390.48H216.342V389.108ZM226.716 395.044H218.162V391.39H220.108V393.644H226.996L226.716 395.044ZM232.136 390.074H229.77V382.948H234.39V384.334H231.604V385.79H234.068V387.176H231.604V388.688H232.626C233.55 388.688 234.446 388.604 235.216 388.436V389.794C234.362 390.018 233.172 390.074 232.136 390.074ZM235.944 391.488V387.092H234.614V385.706H235.944V382.766L237.68 382.486V391.208L235.944 391.488ZM240.242 395.044H231.772V391.222H233.704V393.644H240.522L240.242 395.044ZM238.45 382.57L240.214 382.29V391.376L238.45 391.656V382.57ZM252.396 385.118H248.826V385.608C248.826 385.902 248.854 386.252 249.078 386.434C250.086 387.246 251.752 388.534 253.012 389.318L251.976 390.494C250.702 389.724 248.882 388.422 247.888 387.61C246.894 388.436 244.948 389.78 243.716 390.592L242.666 389.43C243.996 388.59 245.606 387.386 246.586 386.546C246.81 386.35 246.894 385.986 246.894 385.692V385.118H243.24V383.746H246.894V382.388L248.826 382.108V383.746H252.676L252.396 385.118ZM253.964 391.838L253.684 393.266H241.826V391.838H253.964ZM265.53 382.29V394.82L263.64 395.1V382.57L265.53 382.29ZM257.074 392.398H254.974V390.998H257.494C259.188 390.998 261.414 390.886 263.122 390.592V392.006C261.316 392.314 259.188 392.398 257.074 392.398ZM262.198 385.958V386.532C262.198 388.45 260.602 389.472 258.796 389.472C256.99 389.472 255.394 388.45 255.394 386.532V385.958C255.394 384.04 256.99 383.018 258.796 383.018C260.602 383.018 262.198 384.04 262.198 385.958ZM260.308 386.532V385.958C260.308 384.978 259.65 384.418 258.796 384.418C257.942 384.418 257.284 384.978 257.284 385.958V386.532C257.284 387.512 257.942 388.072 258.796 388.072C259.65 388.072 260.308 387.512 260.308 386.532ZM214.367 405.2L214.087 406.586H211.847V408.882C211.847 409.176 211.917 409.484 212.099 409.708C212.869 410.66 213.849 411.78 214.801 412.844L213.681 413.922C212.701 412.886 211.665 411.78 210.881 410.87C210.027 411.892 208.949 413.124 207.941 414.216L206.765 413.194C207.731 412.074 208.725 410.982 209.579 409.82C209.747 409.582 209.887 409.26 209.887 408.966V406.586H207.395V405.2H214.367ZM217.335 404.29V409.106H219.351L219.071 410.674H217.335V416.82L215.417 417.1V404.57L217.335 404.29ZM224.379 404.696V407.664C224.379 407.958 224.435 408.266 224.631 408.476C225.499 409.428 226.437 410.338 227.417 411.15L226.297 412.228C225.303 411.43 224.267 410.534 223.413 409.596C222.559 410.576 221.411 411.668 220.389 412.536L219.213 411.514C220.193 410.646 221.229 409.694 222.083 408.588C222.265 408.364 222.391 408.042 222.391 407.762V404.976L224.379 404.696ZM228.201 404.57L230.119 404.29V408.168H232.135L231.855 409.596H230.119V413.208L228.201 413.488V404.57ZM230.315 417.044H221.985V412.97H223.931V415.644H230.595L230.315 417.044ZM233.089 409.386C233.089 408.084 234.335 407.034 236.281 407.034C238.227 407.034 239.473 408.084 239.473 409.386V409.834C239.473 410.87 238.689 411.738 237.401 412.06V413.46C238.619 413.404 239.711 413.236 240.439 413.124V414.51C238.451 414.79 236.295 414.874 234.139 414.874H232.445V413.474H235.441V412.116C233.985 411.864 233.089 410.94 233.089 409.834V409.386ZM240.929 404.57L242.861 404.29V409.694H244.793L244.513 411.122H242.861V416.82L240.929 417.1V404.57ZM239.865 406.754H232.487V405.354H235.315V404.43L237.247 404.15V405.354H240.145L239.865 406.754ZM237.653 409.512C237.653 408.826 237.093 408.364 236.281 408.364C235.469 408.364 234.909 408.826 234.909 409.512V409.708C234.909 410.394 235.469 410.856 236.281 410.856C237.093 410.856 237.653 410.394 237.653 409.708V409.512Z" fill="white"/>
<rect y="439" width="147" height="68" rx="8" fill="#1B4B66"/>
<path d="M51.64 455.486V459H52.564V455.57L54.342 455.29V463.228L52.564 463.508V460.386H51.64V463.228L49.89 463.508V455.766L51.64 455.486ZM49.148 460.582V461.058C49.148 462.584 48.084 463.396 46.488 463.396C44.892 463.396 43.828 462.584 43.828 461.058V460.582C43.828 459.056 44.892 458.244 46.488 458.244C48.084 458.244 49.148 459.056 49.148 460.582ZM45.788 463.998H54.342V468.072L52.424 468.352V465.398H45.788V463.998ZM49.526 456.466L49.316 457.824H43.338V456.466H45.606V455.556L47.426 455.276V456.466H49.526ZM47.44 461.044V460.582C47.44 459.91 47.048 459.56 46.488 459.56C45.928 459.56 45.536 459.91 45.536 460.582V461.044C45.536 461.716 45.928 462.08 46.488 462.08C47.048 462.08 47.44 461.716 47.44 461.044ZM66.7762 455.29V462.71L64.8722 462.99V455.57L66.7762 455.29ZM60.4482 464.74V466.7H64.8442V464.74H60.4482ZM60.8262 455.584V457.628C60.8262 457.922 60.8822 458.244 61.0782 458.454C61.9462 459.42 62.8842 460.344 63.8642 461.17L62.7442 462.248C61.7502 461.45 60.7142 460.554 59.8602 459.616C59.0062 460.596 57.8582 461.688 56.8362 462.556L55.6602 461.534C56.6402 460.652 57.6762 459.686 58.5302 458.566C58.7122 458.328 58.8382 458.006 58.8382 457.712V455.864L60.8262 455.584ZM66.7762 463.34V467.75L64.8862 468.1H58.5022V463.34H66.7762ZM81.6782 463.018V461.114H79.4102V460.638C78.8502 461.632 77.6882 462.15 76.4142 462.15C74.6502 462.15 73.0822 461.142 73.0822 459.266V458.552C73.0822 456.676 74.6502 455.668 76.4142 455.668C77.6882 455.668 78.8502 456.2 79.4102 457.194V456.592H81.6782V455.57L83.5682 455.29V462.738L81.6782 463.018ZM75.1962 463.508H83.5682V468.072L81.6502 468.352V464.88H75.1962V463.508ZM77.8562 459.21V458.608C77.8562 457.628 77.2542 457.068 76.4142 457.068C75.5742 457.068 74.9722 457.628 74.9722 458.608V459.21C74.9722 460.19 75.5742 460.75 76.4142 460.75C77.2542 460.75 77.8562 460.19 77.8562 459.21ZM79.7462 459.266C79.7462 459.42 79.7322 459.574 79.7042 459.714H81.6782V457.992H79.6902C79.7182 458.174 79.7462 458.356 79.7462 458.552V459.266ZM93.2444 463.522C94.7704 463.522 96.1564 464.11 96.1564 465.888C96.1564 467.68 94.7704 468.268 93.2444 468.268H90.2484C88.6664 468.268 87.2524 467.68 87.2524 465.888C87.2524 464.11 88.6664 463.522 90.2484 463.522H93.2444ZM90.3744 458.566V457.32H86.0904V455.92H92.2784V459.938H88.0364V461.184H88.9324C90.2064 461.184 92.1384 461.114 93.4824 460.862V462.248C92.0544 462.5 90.0524 462.584 88.7784 462.584H86.0904V458.566H90.3744ZM95.9744 455.29V456.956H97.8504L97.5704 458.356H95.9744V459.994H97.8504L97.5704 461.38H95.9744V462.976L94.0424 463.256V455.57L95.9744 455.29ZM93.0624 464.908H90.4024C89.6464 464.908 89.1284 465.174 89.1284 465.888C89.1284 466.616 89.6464 466.882 90.4024 466.882H93.0624C93.7624 466.882 94.2804 466.616 94.2804 465.888C94.2804 465.174 93.7624 464.908 93.0624 464.908ZM101.857 455.542H103.579L100.051 467.064H98.3146L101.857 455.542ZM49.1186 485.158V483.464H46.5986V482.064H49.1186V480.734H46.9626C45.9966 482.82 43.5606 484.542 41.2786 485.228L40.3686 484.01C43.1546 483.24 45.3806 480.986 45.3806 479.516V479.32H41.0966V477.92H47.3966V478.886C47.3966 479.04 47.3826 479.194 47.3686 479.334H49.1186V477.57L51.0226 477.29V484.878L49.1186 485.158ZM48.1526 485.242C49.6786 485.242 51.0646 485.858 51.0646 487.748C51.0646 489.652 49.6786 490.268 48.1526 490.268H45.1566C43.5746 490.268 42.1606 489.652 42.1606 487.748C42.1606 485.858 43.5746 485.242 45.1566 485.242H48.1526ZM47.9706 486.628H45.3106C44.5546 486.628 44.0366 486.936 44.0366 487.748C44.0366 488.574 44.5546 488.882 45.3106 488.882H47.9706C48.6706 488.882 49.1886 488.574 49.1886 487.748C49.1886 486.936 48.6706 486.628 47.9706 486.628ZM60.9648 485.242C62.4908 485.242 63.8768 485.858 63.8768 487.748C63.8768 489.652 62.4908 490.268 60.9648 490.268H57.6888C56.1068 490.268 54.6928 489.652 54.6928 487.748C54.6928 485.858 56.1068 485.242 57.6888 485.242H60.9648ZM61.2308 477.486V480.272H62.1688V477.57L63.9328 477.29V484.738L62.1688 485.018V481.658H61.2308V484.528L59.4948 484.808V477.766L61.2308 477.486ZM54.9728 481.014C55.0848 480.804 55.0988 480.37 55.0988 480.076V479.264H53.3348V477.864H58.6968L58.4168 479.264H56.8488V480.034C56.8488 480.328 56.8348 480.762 56.9888 481C57.4648 481.77 58.3468 482.834 59.1308 483.604L58.0248 484.57C57.3948 483.954 56.5968 483.072 56.0088 482.358C55.4488 483.1 54.7068 483.94 53.7828 484.878L52.6628 483.926C53.7688 482.848 54.5528 481.84 54.9728 481.014ZM60.7828 486.628H57.8428C57.0868 486.628 56.5688 486.936 56.5688 487.748C56.5688 488.574 57.0868 488.882 57.8428 488.882H60.7828C61.4828 488.882 62.0008 488.574 62.0008 487.748C62.0008 486.936 61.4828 486.628 60.7828 486.628ZM70.221 480.594V479.32H66.511V477.92H72.111V481.966H68.457V483.352H69.185C70.459 483.352 72.391 483.268 73.735 483.03V484.416C72.307 484.668 70.305 484.752 69.031 484.752H66.511V480.594H70.221ZM76.493 477.29V485.046L74.589 485.326V482.638H72.671V481.252H74.589V480.132H72.671V478.746H74.589V477.57L76.493 477.29ZM68.107 485.676H76.493V490.072L74.561 490.352V487.062H68.107V485.676ZM94.055 485.13H89.365V486.166H92.473V490.072L90.541 490.352V487.552H83.905V486.166H87.349V485.13H82.197V483.758H94.335L94.055 485.13ZM89.225 476.982V478.284H92.795L92.515 479.684H89.267C89.267 480.062 89.351 480.286 89.589 480.426C90.681 481.056 91.913 481.588 93.313 482.092L92.529 483.324C91.115 482.82 89.449 482.162 88.273 481.504C87.153 482.106 85.515 482.82 83.975 483.436L83.177 482.218C84.675 481.602 85.837 481.07 86.943 480.426C87.181 480.3 87.251 480.076 87.265 479.684H83.849V478.284H87.293V477.262L89.225 476.982ZM102.681 477.892L102.401 479.292H100.147V480.216C100.147 480.51 100.203 480.832 100.399 481.042C101.267 482.008 102.149 482.834 103.129 483.66L102.009 484.738C101.015 483.94 100.077 483.114 99.1952 482.204C98.3132 483.17 97.2632 484.178 96.2412 485.046L95.0652 484.024C96.0452 483.142 97.0532 482.274 97.9072 481.154C98.0892 480.916 98.2152 480.594 98.2152 480.3V479.292H95.7092V477.892H102.681ZM97.5292 485.508H105.915V490.072L103.983 490.352V486.88H97.5292V485.508ZM104.011 485.018V481.63H101.617V480.244H104.011V477.57L105.915 477.29V484.738L104.011 485.018Z" fill="white"/>
<rect x="152" y="439" width="147" height="68" rx="8" fill="#1B4B66"/>
<path d="M190.085 465.006H195.237V462.724H191.905V455.696H193.837V457.852H198.429V455.696H200.361V462.374L198.429 462.724H197.253V465.006H202.223L201.943 466.434H190.085V465.006ZM193.837 461.296H198.429V459.28H193.837V461.296ZM209.827 458.734V459.546C209.827 461.422 208.259 462.43 206.495 462.43C204.731 462.43 203.163 461.422 203.163 459.546V458.734C203.163 456.858 204.731 455.85 206.495 455.85C208.259 455.85 209.827 456.858 209.827 458.734ZM211.521 455.57L213.453 455.29V458.552H215.469L215.189 460.022H213.453V464.208L211.521 464.488V455.57ZM213.635 468.044H205.319V463.97H207.251V466.644H213.915L213.635 468.044ZM207.937 459.49V458.79C207.937 457.81 207.307 457.25 206.495 457.25C205.683 457.25 205.053 457.81 205.053 458.79V459.49C205.053 460.47 205.683 461.03 206.495 461.03C207.307 461.03 207.937 460.47 207.937 459.49ZM227.389 463.242C228.915 463.242 230.301 463.858 230.301 465.748C230.301 467.652 228.915 468.268 227.389 468.268H224.393C222.811 468.268 221.397 467.652 221.397 465.748C221.397 463.858 222.811 463.242 224.393 463.242H227.389ZM224.603 457.32H220.305V455.92H226.577V456.676C226.577 459.924 223.721 462.416 220.571 463.158L219.815 461.884C222.111 461.24 224.603 459.252 224.603 457.432V457.32ZM230.119 455.29V458.622H232.163L231.855 460.05H230.119V462.738L228.201 463.018V455.57L230.119 455.29ZM227.207 464.628H224.547C223.791 464.628 223.273 464.936 223.273 465.748C223.273 466.574 223.791 466.882 224.547 466.882H227.207C227.907 466.882 228.425 466.574 228.425 465.748C228.425 464.936 227.907 464.628 227.207 464.628ZM233.089 460.386C233.089 459.084 234.335 458.034 236.281 458.034C238.227 458.034 239.473 459.084 239.473 460.386V460.834C239.473 461.87 238.689 462.738 237.401 463.06V464.46C238.619 464.404 239.711 464.236 240.439 464.124V465.51C238.451 465.79 236.295 465.874 234.139 465.874H232.445V464.474H235.441V463.116C233.985 462.864 233.089 461.94 233.089 460.834V460.386ZM240.929 455.57L242.861 455.29V460.694H244.793L244.513 462.122H242.861V467.82L240.929 468.1V455.57ZM239.865 457.754H232.487V456.354H235.315V455.43L237.247 455.15V456.354H240.145L239.865 457.754ZM237.653 460.512C237.653 459.826 237.093 459.364 236.281 459.364C235.469 459.364 234.909 459.826 234.909 460.512V460.708C234.909 461.394 235.469 461.856 236.281 461.856C237.093 461.856 237.653 461.394 237.653 460.708V460.512ZM249.755 455.752H255.887V461.268L253.997 461.548H249.755V455.752ZM259.891 464.81L256.573 464.824C256.573 465.076 256.601 465.342 256.825 465.454C258.001 466.14 259.149 466.7 260.563 467.33L259.667 468.506C258.253 467.918 256.811 467.232 255.635 466.602C254.557 467.204 253.017 467.988 251.603 468.604L250.679 467.442C252.191 466.798 253.283 466.182 254.333 465.552C254.557 465.426 254.627 465.104 254.641 464.824H251.155V463.494H254.641V462.332L256.573 462.052V463.494H260.171L259.891 464.81ZM259.849 455.29V462.36L257.959 462.64V455.57L259.849 455.29ZM253.997 457.152H251.645V460.19H253.997V457.152ZM206.314 485.466C207.84 485.466 209.226 486.054 209.226 487.86C209.226 489.68 207.84 490.268 206.314 490.268H203.318C201.736 490.268 200.322 489.68 200.322 487.86C200.322 486.054 201.736 485.466 203.318 485.466H206.314ZM200.938 479.726H203.36V477.752H205.236V483.996L203.36 484.276H199.062V477.752H200.938V479.726ZM209.044 477.29V480.398H211.046L210.766 481.826H209.044V484.906L207.112 485.186V477.57L209.044 477.29ZM206.132 486.852H203.472C202.716 486.852 202.198 487.132 202.198 487.86C202.198 488.602 202.716 488.882 203.472 488.882H206.132C206.832 488.882 207.35 488.602 207.35 487.86C207.35 487.132 206.832 486.852 206.132 486.852ZM200.938 482.89H203.36V481.112H200.938V482.89ZM222.136 477.15V484.738L220.232 485.018V477.43L222.136 477.15ZM213.75 485.508H222.136V490.072L220.204 490.352V486.88H213.75V485.508ZM216.186 477.556V479.88C216.186 480.174 216.242 480.496 216.438 480.706C217.32 481.658 218.272 482.54 219.266 483.436L218.132 484.5C217.124 483.632 216.102 482.778 215.22 481.868C214.338 482.82 213.274 483.87 212.196 484.78L211.02 483.758C212.056 482.82 213.008 481.91 213.89 480.818C214.072 480.58 214.198 480.258 214.198 479.964V477.836L216.186 477.556ZM235.568 478.004L235.288 479.39H233.034V480.916C233.034 481.21 233.09 481.532 233.286 481.742C234.154 482.708 235.036 483.534 236.016 484.36L234.896 485.438C233.902 484.64 232.964 483.814 232.082 482.904C231.2 483.87 230.15 484.878 229.128 485.746L227.952 484.724C228.932 483.842 229.94 482.974 230.794 481.854C230.976 481.616 231.102 481.294 231.102 481V479.39H228.582V478.004H235.568ZM236.898 486.656V481.994H234.504V480.594H236.898V477.57L238.802 477.29V486.376L236.898 486.656ZM238.886 490.044H230.668V485.998H232.614V488.644H239.166L238.886 490.044ZM241.674 481.966C241.674 480.622 243.074 479.894 244.824 479.894C246.574 479.894 247.974 480.622 247.974 481.966V482.176C247.974 483.254 247.078 483.968 245.818 484.206V485.004C246.77 484.962 247.68 484.878 248.772 484.682V486.04C246.784 486.32 244.628 486.404 242.472 486.404H240.778V485.032H243.858V484.206C242.584 483.982 241.674 483.268 241.674 482.176V481.966ZM251.194 477.29V481.56H253.126L252.846 483.044H251.194V487.006L249.262 487.286V477.57L251.194 477.29ZM251.264 490.044H242.948V486.894H244.88V488.644H251.544L251.264 490.044ZM248.268 479.642H241.24V478.326H243.914V477.444L245.846 477.164V478.326H248.548L248.268 479.642ZM246.154 482.022C246.154 481.56 245.594 481.21 244.824 481.21C244.054 481.21 243.494 481.56 243.494 482.022V482.12C243.494 482.568 244.054 482.974 244.824 482.974C245.594 482.974 246.154 482.568 246.154 482.12V482.022Z" fill="white"/>
<rect y="515" width="299" height="46" rx="8" fill="#4B84F0"/>
<path d="M107.123 532.2L106.843 533.586H104.589V535.882C104.589 536.176 104.659 536.484 104.841 536.708C105.611 537.66 106.605 538.78 107.557 539.844L106.437 540.922C105.457 539.886 104.421 538.78 103.637 537.87C102.783 538.892 101.705 540.124 100.697 541.216L99.5206 540.194C100.487 539.074 101.495 537.982 102.349 536.82C102.517 536.582 102.657 536.26 102.657 535.966V533.586H100.151V532.2H107.123ZM110.357 531.29V543.82L108.453 544.1V536.512H106.087V535.112H108.453V531.57L110.357 531.29ZM120.019 539.242C121.545 539.242 122.931 539.858 122.931 541.748C122.931 543.652 121.545 544.268 120.019 544.268H117.023C115.441 544.268 114.027 543.652 114.027 541.748C114.027 539.858 115.441 539.242 117.023 539.242H120.019ZM119.459 533.292H117.191V534.076C117.191 534.37 117.247 534.692 117.443 534.902C118.311 535.868 119.193 536.694 120.173 537.52L119.053 538.598C118.059 537.8 117.121 536.974 116.239 536.064C115.357 537.03 114.307 538.038 113.285 538.906L112.109 537.884C113.089 537.002 114.097 536.134 114.951 535.014C115.133 534.776 115.259 534.454 115.259 534.16V533.292H112.767V531.892H119.739L119.459 533.292ZM122.749 531.29V534.65H124.765L124.485 536.064H122.749V538.738L120.831 539.018V531.57L122.749 531.29ZM119.837 540.628H117.177C116.421 540.628 115.903 540.936 115.903 541.748C115.903 542.574 116.421 542.882 117.177 542.882H119.837C120.537 542.882 121.055 542.574 121.055 541.748C121.055 540.936 120.537 540.628 119.837 540.628ZM129.643 531.752H135.775V537.268L133.885 537.548H129.643V531.752ZM139.779 540.81L136.461 540.824C136.461 541.076 136.489 541.342 136.713 541.454C137.889 542.14 139.037 542.7 140.451 543.33L139.555 544.506C138.141 543.918 136.699 543.232 135.523 542.602C134.445 543.204 132.905 543.988 131.491 544.604L130.567 543.442C132.079 542.798 133.171 542.182 134.221 541.552C134.445 541.426 134.515 541.104 134.529 540.824H131.043V539.494H134.529V538.332L136.461 538.052V539.494H140.059L139.779 540.81ZM139.737 531.29V538.36L137.847 538.64V531.57L139.737 531.29ZM133.885 533.152H131.533V536.19H133.885V533.152ZM147.975 534.048H150.397V531.892H152.273V538.738L150.397 539.018H146.099V531.892H147.975V534.048ZM156.081 531.29V534.72H158.083L157.803 536.204H156.081V540.376L154.149 540.656V531.57L156.081 531.29ZM156.179 544.044H147.961V540.166H149.907V542.644H156.459L156.179 544.044ZM147.975 537.632H150.397V535.448H147.975V537.632ZM170.055 538.374H165.365V539.13H168.473V542.252H161.963V542.882H168.907L168.627 544.156H160.017V541.02H166.541V540.39H159.989V539.13H163.349V538.374H158.197V537.086H170.335L170.055 538.374ZM165.225 530.856V532.004H168.795L168.515 533.404H165.267C165.281 533.74 165.365 533.964 165.589 534.076C166.709 534.608 167.927 535.098 169.299 535.588L168.529 536.806C167.143 536.288 165.477 535.658 164.273 535.084C163.083 535.728 161.487 536.344 159.975 536.918L159.177 535.714C160.647 535.168 161.767 534.692 162.943 534.076C163.181 533.95 163.251 533.754 163.265 533.404H159.849V532.004H163.293V531.136L165.225 530.856ZM174.863 537.548H180.015V536.764H176.683V531.598H185.139V532.872H178.629V533.572H185.097V534.79H178.629V535.49H185.461L185.181 536.764H182.031V537.548H187.001L186.721 538.906H174.863V537.548ZM182.465 539.648C184.033 539.648 185.447 540.208 185.447 541.986C185.447 543.792 184.033 544.352 182.465 544.352H179.371C177.803 544.352 176.389 543.792 176.389 541.986C176.389 540.208 177.803 539.648 179.371 539.648H182.465ZM182.395 541.048H179.455C178.825 541.048 178.265 541.286 178.265 541.986C178.265 542.714 178.825 542.952 179.455 542.952H182.395C183.025 542.952 183.571 542.714 183.571 541.986C183.571 541.286 183.025 541.048 182.395 541.048ZM189.845 536.778C189.943 536.554 189.957 536.148 189.957 535.854V533.586H188.179V532.228H193.555L193.345 533.586H191.749V535.812C191.749 536.106 191.735 536.456 191.847 536.708C192.211 537.52 193.331 539.186 194.087 540.096L192.897 541.174C192.309 540.446 191.483 539.326 190.909 538.472C190.279 539.424 189.481 540.544 188.711 541.468L187.535 540.446C188.501 539.284 189.411 537.716 189.845 536.778ZM194.367 531.766L196.103 531.486V543.414L194.367 543.694V536.68H192.673V535.252H194.367V531.766ZM196.915 531.57L198.693 531.29V543.82L196.915 544.1V531.57Z" fill="white"/>
<rect y="569" width="95" height="90" rx="8" fill="#FF8D24"/>
<path d="M22.2377 585.836H30.6937V590.372L28.7617 590.722H22.2377V585.836ZM32.2757 593.27H27.8517V595.552H25.8917V593.27H20.4177V591.87H32.5557L32.2757 593.27ZM30.7917 598.044H22.2377V594.39H24.1837V596.644H31.0717L30.7917 598.044ZM24.1837 589.336H28.7617V587.236H24.1837V589.336ZM44.1219 585.29V597.82L42.2179 598.1V590.344H39.6419V588.93H42.2179V585.57L44.1219 585.29ZM38.2139 585.934V589.616C38.2139 589.91 38.2839 590.218 38.4519 590.442C39.1799 591.422 40.2719 592.766 41.2239 593.83L40.1039 594.908C39.1239 593.872 37.9479 592.556 37.2339 591.604C36.4079 592.654 35.1899 594.138 34.1959 595.216L33.0199 594.194C33.9719 593.088 35.1059 591.744 35.9319 590.554C36.0999 590.316 36.2259 589.994 36.2259 589.7V586.214L38.2139 585.934ZM52.3459 588.048H54.7679V585.892H56.6439V592.738L54.7679 593.018H50.4699V585.892H52.3459V588.048ZM60.4519 585.29V588.72H62.4539L62.1739 590.204H60.4519V594.376L58.5199 594.656V585.57L60.4519 585.29ZM60.5499 598.044H52.3319V594.166H54.2779V596.644H60.8299L60.5499 598.044ZM52.3459 591.632H54.7679V589.448H52.3459V591.632ZM74.4261 592.374H69.7361V593.13H72.8441V596.252H66.3341V596.882H73.2781L72.9981 598.156H64.3881V595.02H70.9121V594.39H64.3601V593.13H67.7201V592.374H62.5681V591.086H74.7061L74.4261 592.374ZM69.5961 584.856V586.004H73.1661L72.8861 587.404H69.6381C69.6521 587.74 69.7361 587.964 69.9601 588.076C71.0801 588.608 72.2981 589.098 73.6701 589.588L72.9001 590.806C71.5141 590.288 69.8481 589.658 68.6441 589.084C67.4541 589.728 65.8581 590.344 64.3461 590.918L63.5481 589.714C65.0181 589.168 66.1381 588.692 67.3141 588.076C67.5521 587.95 67.6221 587.754 67.6361 587.404H64.2201V586.004H67.6641V585.136L69.5961 584.856ZM20.4177 613.548H25.5697V612.764H22.2377V607.598H30.6937V608.872H24.1837V609.572H30.6517V610.79H24.1837V611.49H31.0157L30.7357 612.764H27.5857V613.548H32.5557L32.2757 614.906H20.4177V613.548ZM28.0197 615.648C29.5877 615.648 31.0017 616.208 31.0017 617.986C31.0017 619.792 29.5877 620.352 28.0197 620.352H24.9257C23.3577 620.352 21.9437 619.792 21.9437 617.986C21.9437 616.208 23.3577 615.648 24.9257 615.648H28.0197ZM27.9497 617.048H25.0097C24.3797 617.048 23.8197 617.286 23.8197 617.986C23.8197 618.714 24.3797 618.952 25.0097 618.952H27.9497C28.5797 618.952 29.1257 618.714 29.1257 617.986C29.1257 617.286 28.5797 617.048 27.9497 617.048ZM35.3999 612.778C35.4979 612.554 35.5119 612.148 35.5119 611.854V609.586H33.7339V608.228H39.1099L38.8999 609.586H37.3039V611.812C37.3039 612.106 37.2899 612.456 37.4019 612.708C37.7659 613.52 38.8859 615.186 39.6419 616.096L38.4519 617.174C37.8639 616.446 37.0379 615.326 36.4639 614.472C35.8339 615.424 35.0359 616.544 34.2659 617.468L33.0899 616.446C34.0559 615.284 34.9659 613.716 35.3999 612.778ZM39.9219 607.766L41.6579 607.486V619.414L39.9219 619.694V612.68H38.2279V611.252H39.9219V607.766ZM42.4699 607.57L44.2479 607.29V619.82L42.4699 620.1V607.57ZM52.1079 612.876C52.2059 612.652 52.2199 612.246 52.2199 611.952V610.44H50.1059V609.082H52.2199V607.724L54.0399 607.444V609.082H56.0139L55.8039 610.44H54.0399V611.91C54.0399 612.204 54.0259 612.554 54.1379 612.806C54.5019 613.618 55.5799 615.214 56.3219 616.138L55.1179 617.174C54.5439 616.432 53.7319 615.326 53.1859 614.472C52.5839 615.424 51.7999 616.544 51.0299 617.468L49.8119 616.46C50.7779 615.298 51.6739 613.814 52.1079 612.876ZM56.6439 607.766L58.3799 607.486V619.414L56.6439 619.694V613.142H55.0899V611.686H56.6439V607.766ZM59.1359 607.57L60.9139 607.29V619.82L59.1359 620.1V607.57ZM69.3861 607.766L71.0941 607.486V619.414L69.3861 619.694V614.99H67.6501V613.604H69.3861V611.574H68.0701C67.5241 614.108 66.0961 616.124 63.9961 617.384L62.9181 616.18C65.2421 614.822 66.4741 612.26 66.4741 609.824V609.586H63.4361V608.2H68.3221V609.194C68.3221 609.53 68.3081 609.852 68.2801 610.174H69.3861V607.766ZM71.8781 607.57L73.6561 607.29V619.82L71.8781 620.1V607.57ZM35.1218 635.408H43.0318C43.2698 634.246 43.5218 632.468 43.5778 631.292H36.6058V629.892H45.6078C45.5518 631.446 45.3978 633.574 44.9918 635.408H47.2598L46.9798 636.794H42.2618V641.932L40.3018 642.212V636.794H35.1218V635.408ZM48.578 634.652C48.578 633.014 50.02 632.146 51.77 632.146C53.52 632.146 54.962 633.014 54.962 634.652V634.876C54.962 636.514 53.52 637.424 51.77 637.424C50.02 637.424 48.578 636.514 48.578 634.876V634.652ZM55.27 633.014H56.936V629.57L58.826 629.29V638.544L56.936 638.824V636.752H55.27V635.422H56.936V634.302H55.27V633.014ZM58.924 642.044H50.706V638.278H52.652V640.644H59.204L58.924 642.044ZM55.424 631.866H47.976V630.494H50.804V629.514L52.736 629.234V630.494H55.704L55.424 631.866ZM53.142 634.708C53.142 633.952 52.54 633.462 51.77 633.462C51 633.462 50.398 633.952 50.398 634.708V634.82C50.398 635.562 51 636.108 51.77 636.108C52.54 636.108 53.142 635.562 53.142 634.82V634.708Z" fill="white"/>
<rect x="102" y="569" width="95" height="90" rx="8" fill="#FF8D24"/>
<path d="M125.119 593.018V591.114H122.851V590.638C122.291 591.632 121.129 592.15 119.855 592.15C118.091 592.15 116.523 591.142 116.523 589.266V588.552C116.523 586.676 118.091 585.668 119.855 585.668C121.129 585.668 122.291 586.2 122.851 587.194V586.592H125.119V585.57L127.009 585.29V592.738L125.119 593.018ZM118.637 593.508H127.009V598.072L125.091 598.352V594.88H118.637V593.508ZM121.297 589.21V588.608C121.297 587.628 120.695 587.068 119.855 587.068C119.015 587.068 118.413 587.628 118.413 588.608V589.21C118.413 590.19 119.015 590.75 119.855 590.75C120.695 590.75 121.297 590.19 121.297 589.21ZM123.187 589.266C123.187 589.42 123.173 589.574 123.145 589.714H125.119V587.992H123.131C123.159 588.174 123.187 588.356 123.187 588.552V589.266ZM139.499 598.156H131.155V594.852H137.469V594.152H131.127V592.85H139.415V596.112H133.073V596.826H139.779L139.499 598.156ZM129.573 589.854C129.573 588.37 131.015 587.6 132.765 587.6C134.515 587.6 135.957 588.37 135.957 589.854V590.064C135.957 591.548 134.515 592.36 132.765 592.36C131.015 592.36 129.573 591.548 129.573 590.064V589.854ZM139.415 585.29V588.482H141.431L141.151 589.896H139.415V592.08L137.483 592.36V585.57L139.415 585.29ZM136.349 587.278H128.901V585.948H131.729V585.136L133.661 584.856V585.948H136.629L136.349 587.278ZM134.137 589.868C134.137 589.266 133.535 588.874 132.765 588.874C131.995 588.874 131.393 589.266 131.393 589.868V590.05C131.393 590.638 131.995 591.086 132.765 591.086C133.535 591.086 134.137 590.638 134.137 590.05V589.868ZM150.589 592.038V590.638H148.699V591.422L146.809 591.702H142.399V585.626H144.289V587.418H146.809V585.626H148.699V586.788H150.589V585.57L152.493 585.29V591.758L150.589 592.038ZM152.577 598.156H144.219V594.67H150.561V593.858H144.191V592.528H152.493V595.958H146.151V596.826H152.857L152.577 598.156ZM144.289 590.302H146.809V588.818H144.289V590.302ZM148.699 588.188V589.252H150.589V588.188H148.699ZM160.017 585.836H168.473V590.372L166.541 590.722H160.017V585.836ZM170.055 593.27H165.631V595.552H163.671V593.27H158.197V591.87H170.335L170.055 593.27ZM168.571 598.044H160.017V594.39H161.963V596.644H168.851L168.571 598.044ZM161.963 589.336H166.541V587.236H161.963V589.336ZM181.901 585.29V597.82L179.997 598.1V590.344H177.421V588.93H179.997V585.57L181.901 585.29ZM175.993 585.934V589.616C175.993 589.91 176.063 590.218 176.231 590.442C176.959 591.422 178.051 592.766 179.003 593.83L177.883 594.908C176.903 593.872 175.727 592.556 175.013 591.604C174.187 592.654 172.969 594.138 171.975 595.216L170.799 594.194C171.751 593.088 172.885 591.744 173.711 590.554C173.879 590.316 174.005 589.994 174.005 589.7V586.214L175.993 585.934ZM126.337 612.134H117.839V607.626H126.365V609.012H119.785V610.762H126.757L126.337 612.134ZM128.185 613.17L127.905 614.528H116.047V613.17H128.185ZM123.649 615.424C125.217 615.424 126.631 616.012 126.631 617.888C126.631 619.764 125.217 620.352 123.649 620.352H120.555C118.987 620.352 117.573 619.764 117.573 617.888C117.573 616.012 118.987 615.424 120.555 615.424H123.649ZM123.579 616.824H120.639C120.009 616.824 119.449 617.09 119.449 617.888C119.449 618.686 120.009 618.952 120.639 618.952H123.579C124.209 618.952 124.755 618.686 124.755 617.888C124.755 617.09 124.209 616.824 123.579 616.824ZM139.065 614.696V619.75L137.133 620.1H130.609V614.696H132.555V616.194H137.133V614.696H139.065ZM128.789 612.232H136.713C137.021 611.182 137.161 610.244 137.217 609.152H130.273V607.752H139.275C139.247 609.18 138.967 611.07 138.687 612.232H140.927L140.647 613.632H128.789V612.232ZM132.555 618.728H137.133V617.552H132.555V618.728ZM150.589 614.038V612.638H148.699V613.422L146.809 613.702H142.399V607.626H144.289V609.418H146.809V607.626H148.699V608.788H150.589V607.57L152.493 607.29V613.758L150.589 614.038ZM152.577 620.156H144.219V616.67H150.561V615.858H144.191V614.528H152.493V617.958H146.151V618.826H152.857L152.577 620.156ZM144.289 612.302H146.809V610.818H144.289V612.302ZM148.699 610.188V611.252H150.589V610.188H148.699ZM169.173 614.85V619.75L167.241 620.1H160.899V614.85H162.845V616.25H167.241V614.85H169.173ZM165.659 609.18H163.405V609.978C163.405 610.272 163.461 610.594 163.657 610.804C164.525 611.77 165.407 612.596 166.387 613.422L165.267 614.5C164.273 613.702 163.335 612.876 162.453 611.966C161.571 612.932 160.521 613.94 159.499 614.808L158.323 613.786C159.303 612.904 160.311 612.036 161.165 610.916C161.347 610.678 161.473 610.356 161.473 610.062V609.18H158.967V607.78H165.939L165.659 609.18ZM167.269 614.36V611.448H164.875V610.048H167.269V607.57L169.173 607.29V614.08L167.269 614.36ZM162.845 618.728H167.241V617.608H162.845V618.728ZM170.939 613.142H178.835C179.129 611.994 179.311 610.356 179.367 609.236H172.423V607.836H181.425C181.397 609.39 181.089 611.826 180.781 613.142H183.077L182.797 614.528H170.939V613.142ZM181.313 620.044H172.759V615.97H174.705V618.644H181.593L181.313 620.044ZM122.418 635.548H127.57V634.764H124.238V629.598H132.694V630.872H126.184V631.572H132.652V632.79H126.184V633.49H133.016L132.736 634.764H129.586V635.548H134.556L134.276 636.906H122.418V635.548ZM130.02 637.648C131.588 637.648 133.002 638.208 133.002 639.986C133.002 641.792 131.588 642.352 130.02 642.352H126.926C125.358 642.352 123.944 641.792 123.944 639.986C123.944 638.208 125.358 637.648 126.926 637.648H130.02ZM129.95 639.048H127.01C126.38 639.048 125.82 639.286 125.82 639.986C125.82 640.714 126.38 640.952 127.01 640.952H129.95C130.58 640.952 131.126 640.714 131.126 639.986C131.126 639.286 130.58 639.048 129.95 639.048ZM137.4 634.778C137.498 634.554 137.512 634.148 137.512 633.854V631.586H135.734V630.228H141.11L140.9 631.586H139.304V633.812C139.304 634.106 139.29 634.456 139.402 634.708C139.766 635.52 140.886 637.186 141.642 638.096L140.452 639.174C139.864 638.446 139.038 637.326 138.464 636.472C137.834 637.424 137.036 638.544 136.266 639.468L135.09 638.446C136.056 637.284 136.966 635.716 137.4 634.778ZM141.922 629.766L143.658 629.486V641.414L141.922 641.694V634.68H140.228V633.252H141.922V629.766ZM144.47 629.57L146.248 629.29V641.82L144.47 642.1V629.57ZM151.826 635.408H159.736C159.974 634.246 160.226 632.468 160.282 631.292H153.31V629.892H162.312C162.256 631.446 162.102 633.574 161.696 635.408H163.964L163.684 636.794H158.966V641.932L157.006 642.212V636.794H151.826V635.408ZM165.282 634.652C165.282 633.014 166.724 632.146 168.474 632.146C170.224 632.146 171.666 633.014 171.666 634.652V634.876C171.666 636.514 170.224 637.424 168.474 637.424C166.724 637.424 165.282 636.514 165.282 634.876V634.652ZM171.974 633.014H173.64V629.57L175.53 629.29V638.544L173.64 638.824V636.752H171.974V635.422H173.64V634.302H171.974V633.014ZM175.628 642.044H167.41V638.278H169.356V640.644H175.908L175.628 642.044ZM172.128 631.866H164.68V630.494H167.508V629.514L169.44 629.234V630.494H172.408L172.128 631.866ZM169.846 634.708C169.846 633.952 169.244 633.462 168.474 633.462C167.704 633.462 167.102 633.952 167.102 634.708V634.82C167.102 635.562 167.704 636.108 168.474 636.108C169.244 636.108 169.846 635.562 169.846 634.82V634.708Z" fill="white"/>
<rect x="204" y="569" width="95" height="90" rx="8" fill="#FF8D24"/>
<path d="M240.942 585.836H249.398V590.372L247.466 590.722H240.942V585.836ZM250.98 593.27H246.556V595.552H244.596V593.27H239.122V591.87H251.26L250.98 593.27ZM249.496 598.044H240.942V594.39H242.888V596.644H249.776L249.496 598.044ZM242.888 589.336H247.466V587.236H242.888V589.336ZM262.826 585.29V597.82L260.922 598.1V590.344H258.346V588.93H260.922V585.57L262.826 585.29ZM256.918 585.934V589.616C256.918 589.91 256.988 590.218 257.156 590.442C257.884 591.422 258.976 592.766 259.928 593.83L258.808 594.908C257.828 593.872 256.652 592.556 255.938 591.604C255.112 592.654 253.894 594.138 252.9 595.216L251.724 594.194C252.676 593.088 253.81 591.744 254.636 590.554C254.804 590.316 254.93 589.994 254.93 589.7V586.214L256.918 585.934ZM226.38 617.006H231.448V614.318H228.2V608.004H236.754V613.968L234.822 614.318H233.464V617.006H238.518L238.238 618.434H226.38V617.006ZM230.146 612.918H234.822V609.39H230.146V612.918ZM247.606 614.724V616.138C246.402 616.362 244.876 616.488 243.266 616.488H240.27V608.088H242.202V615.102H243.266C244.708 615.102 246.346 614.962 247.606 614.724ZM250.084 607.29V619.82L248.18 620.1V607.57L250.084 607.29ZM260.012 615.018V616.418C258.92 616.656 257.366 616.74 255.952 616.74H252.788V608.088H258.766V609.474H254.734V611.686H258.36V613.086H254.734V615.34H256.134C257.254 615.34 258.724 615.298 260.012 615.018ZM262.826 607.29V619.82L260.922 620.1V612.834H259.004V611.42H260.922V607.57L262.826 607.29ZM269.856 610.566V609.32H265.586V607.92H271.774V611.938H267.532V613.184H268.54C269.8 613.184 271.746 613.114 273.09 612.862V614.248C271.648 614.5 269.674 614.584 268.372 614.584H265.586V610.566H269.856ZM275.568 607.29V614.724L273.664 615.004V607.57L275.568 607.29ZM272.712 615.242C274.238 615.242 275.624 615.858 275.624 617.748C275.624 619.652 274.238 620.268 272.712 620.268H269.716C268.134 620.268 266.72 619.652 266.72 617.748C266.72 615.858 268.134 615.242 269.716 615.242H272.712ZM272.53 616.628H269.87C269.114 616.628 268.596 616.936 268.596 617.748C268.596 618.574 269.114 618.882 269.87 618.882H272.53C273.23 618.882 273.748 618.574 273.748 617.748C273.748 616.936 273.23 616.628 272.53 616.628ZM226.7 634.876C226.798 634.652 226.812 634.246 226.812 633.952V632.44H224.698V631.082H226.812V629.724L228.632 629.444V631.082H230.606L230.396 632.44H228.632V633.91C228.632 634.204 228.618 634.554 228.73 634.806C229.094 635.618 230.172 637.214 230.914 638.138L229.71 639.174C229.136 638.432 228.324 637.326 227.778 636.472C227.176 637.424 226.392 638.544 225.622 639.468L224.404 638.46C225.37 637.298 226.266 635.814 226.7 634.876ZM231.236 629.766L232.972 629.486V641.414L231.236 641.694V635.142H229.682V633.686H231.236V629.766ZM233.728 629.57L235.506 629.29V641.82L233.728 642.1V629.57ZM243.978 629.766L245.686 629.486V641.414L243.978 641.694V636.99H242.242V635.604H243.978V633.574H242.662C242.116 636.108 240.688 638.124 238.588 639.384L237.51 638.18C239.834 636.822 241.066 634.26 241.066 631.824V631.586H238.028V630.2H242.914V631.194C242.914 631.53 242.9 631.852 242.872 632.174H243.978V629.766ZM246.47 629.57L248.248 629.29V641.82L246.47 642.1V629.57ZM265.964 636.528L265.684 637.914H260.966V641.932L259.006 642.212V637.914H253.826V636.528H265.964ZM260.896 629.612V630.984C260.896 631.278 260.924 631.642 261.148 631.81C262.17 632.58 263.948 633.742 265.194 634.498L264.158 635.674C262.898 634.932 260.938 633.77 259.944 633C258.908 633.756 257.004 634.988 255.618 635.758L254.568 634.596C255.912 633.798 257.564 632.706 258.586 631.894C258.81 631.712 258.894 631.334 258.894 631.04V629.892L260.896 629.612ZM271.818 632.244V631.18H267.548V629.78H273.736V633.602H269.494V634.638H270.502C271.762 634.638 273.708 634.568 275.052 634.316V635.702C273.61 635.954 271.636 636.038 270.334 636.038H267.548V632.244H271.818ZM277.53 629.29V636.248L275.626 636.528V629.57L277.53 629.29ZM271.188 640.728H275.598V639.72H271.188V640.728ZM277.53 637.018V641.75L275.598 642.1H269.256V637.018H271.188V638.362H275.598V637.018H277.53Z" fill="white"/>
<circle cx="41" cy="237" r="15" fill="#2856CE"/>
<path d="M33.3159 238.452V234.154C33.3159 231.844 34.5759 230.612 36.8719 230.612C39.1819 230.612 40.4419 231.844 40.4419 234.154V238.452C40.4419 240.762 39.1819 241.994 36.8719 241.994C34.5759 241.994 33.3159 240.762 33.3159 238.452ZM38.4959 238.004V234.602C38.4959 232.88 37.9499 232.124 36.8719 232.124C35.7939 232.124 35.2619 232.88 35.2619 234.602V238.004C35.2619 239.726 35.7939 240.468 36.8719 240.468C37.9499 240.468 38.4959 239.726 38.4959 238.004ZM48.644 238.662C48.644 241.28 46.964 241.952 44.5 241.952H41.644V240.384H44.248C45.802 240.384 46.614 239.81 46.614 238.62C46.614 237.22 45.48 236.8 44.136 236.8H42.946V235.232H44.08C45.438 235.232 46.236 234.7 46.236 233.678C46.236 232.67 45.662 232.208 44.542 232.208L42.008 232.194V230.598L44.962 230.612C46.614 230.626 48.238 231.424 48.238 233.384C48.238 234.812 47.398 235.666 46.32 235.988V236.016C47.636 236.226 48.644 237.206 48.644 238.662Z" fill="white"/>
<path d="M9.21338 274.832C11.0054 274.832 12.6214 275.52 12.6214 277.76C12.6214 280 11.0054 280.688 9.21338 280.688H5.67738C3.88538 280.688 2.26938 280 2.26938 277.76C2.26938 275.52 3.88538 274.832 5.67738 274.832H9.21338ZM0.525375 272.192H5.40538V269.504H7.66138V272.192H14.3974L14.0774 273.776H0.525375V272.192ZM2.28538 266.176H12.4774C12.4134 267.664 12.2694 269.504 11.8214 271.248H9.53338C9.83738 270.224 10.0934 268.544 10.1254 267.76H2.28538V266.176ZM9.13338 276.432H5.77338C5.05338 276.432 4.41338 276.752 4.41338 277.76C4.41338 278.768 5.05338 279.088 5.77338 279.088H9.13338C9.85338 279.088 10.4774 278.768 10.4774 277.76C10.4774 276.752 9.85338 276.432 9.13338 276.432ZM23.3919 266.272C25.8079 266.272 27.2639 267.536 27.2639 269.52C27.2639 271.504 25.8079 272.784 23.3919 272.784H20.8959C18.4479 272.784 16.9599 271.504 16.9599 269.52C16.9599 267.536 18.4479 266.272 20.8959 266.272H23.3919ZM28.9599 273.84L28.6399 275.44H25.8239V280.08L23.6319 280.4V275.44H20.6399V280.016L18.4479 280.336V275.44H15.0879V273.84H28.9599ZM23.1359 267.856H21.0879C19.9039 267.856 19.1039 268.448 19.1039 269.52C19.1039 270.608 19.9039 271.2 21.0879 271.2H23.1359C24.3199 271.2 25.1199 270.608 25.1199 269.52C25.1199 268.448 24.3199 267.856 23.1359 267.856ZM35.1108 266.288H42.1188V272.592L39.9588 272.912H35.1108V266.288ZM46.6948 276.64L42.9028 276.656C42.9028 276.944 42.9348 277.248 43.1908 277.376C44.5348 278.16 45.8468 278.8 47.4628 279.52L46.4388 280.864C44.8228 280.192 43.1748 279.408 41.8308 278.688C40.5988 279.376 38.8388 280.272 37.2228 280.976L36.1668 279.648C37.8948 278.912 39.1428 278.208 40.3428 277.488C40.5988 277.344 40.6788 276.976 40.6948 276.656H36.7108V275.136H40.6948V273.808L42.9028 273.488V275.136H47.0148L46.6948 276.64ZM46.6468 265.76V273.84L44.4868 274.16V266.08L46.6468 265.76ZM39.9588 267.888H37.2708V271.36H39.9588V267.888ZM65.4056 280.464H55.6776V277.04H63.0856V276.384H55.6456V274.96H65.3256V278.368H57.8856V279.024H65.7256L65.4056 280.464ZM54.4456 270.048C54.4456 268.752 56.0456 268.064 58.0456 268.064C60.0456 268.064 61.6456 268.752 61.6456 270.048V270.256C61.6456 271.296 60.6216 271.968 59.1816 272.192V272.88C60.3176 272.816 61.5336 272.704 62.5576 272.528V274.032C60.2856 274.336 57.8216 274.432 55.3576 274.432H53.4216V272.944H56.9416V272.192C55.4856 271.968 54.4456 271.312 54.4456 270.256V270.048ZM65.3256 265.76V269.568H67.5336L67.2136 271.184H65.3256V274.08L63.1176 274.4V266.08L65.3256 265.76ZM61.9816 267.76H53.9496V266.288H57.0056V265.456L59.2136 265.136V266.288H62.3016L61.9816 267.76ZM59.5656 270.112C59.5656 269.728 59.0056 269.504 58.0456 269.504C57.0856 269.504 56.5256 269.728 56.5256 270.112V270.192C56.5256 270.576 57.0856 270.832 58.0456 270.832C59.0056 270.832 59.5656 270.576 59.5656 270.192V270.112ZM76.4321 265.92C78.1761 265.92 79.8241 266.608 79.8241 268.704C79.8241 269.92 79.2801 270.656 78.4801 271.072V272.56H81.6161L81.2961 274.128H67.7441V272.56H70.8161V271.072C70.0321 270.656 69.5201 269.904 69.5201 268.704C69.5201 266.608 71.1041 265.92 72.9121 265.92H76.4321ZM76.4321 275.04C78.2241 275.04 79.8401 275.712 79.8401 277.856C79.8401 280.016 78.2241 280.688 76.4321 280.688H72.8961C71.1041 280.688 69.4881 280.016 69.4881 277.856C69.4881 275.712 71.1041 275.04 72.8961 275.04H76.4321ZM76.3521 276.64H72.9921C72.2721 276.64 71.6321 276.944 71.6321 277.856C71.6321 278.784 72.2721 279.088 72.9921 279.088H76.3521C77.0721 279.088 77.6961 278.784 77.6961 277.856C77.6961 276.944 77.0721 276.64 76.3521 276.64ZM76.2241 267.504H73.1201C72.2561 267.504 71.6641 267.84 71.6641 268.704C71.6641 269.568 72.2561 269.92 73.1201 269.92H76.2241C77.0241 269.92 77.6801 269.568 77.6801 268.704C77.6801 267.84 77.0241 267.504 76.2241 267.504ZM73.0081 271.504V272.56H76.2881V271.504H73.0081Z" fill="#2856CE"/>
<circle cx="251" cy="237" r="15" fill="#2856CE"/>
<path d="M243.316 238.452V234.154C243.316 231.844 244.576 230.612 246.872 230.612C249.182 230.612 250.442 231.844 250.442 234.154V238.452C250.442 240.762 249.182 241.994 246.872 241.994C244.576 241.994 243.316 240.762 243.316 238.452ZM248.496 238.004V234.602C248.496 232.88 247.95 232.124 246.872 232.124C245.794 232.124 245.262 232.88 245.262 234.602V238.004C245.262 239.726 245.794 240.468 246.872 240.468C247.95 240.468 248.496 239.726 248.496 238.004ZM258.518 240.16L258.294 241.742H251.602V240.006C251.714 239.894 252.848 238.788 253.38 238.242C254.878 236.702 256.306 235.232 256.306 233.874C256.306 232.922 255.648 232.25 254.43 232.25H251.854V230.668H254.906C256.992 230.668 258.28 231.844 258.28 233.902C258.28 235.526 256.95 237.122 255.718 238.452C255.144 239.04 254.122 240.062 254.01 240.16H258.518Z" fill="white"/>
<circle cx="149" cy="49" r="15" fill="#2856CE"/>
<path d="M141.316 50.452V46.154C141.316 43.844 142.576 42.612 144.872 42.612C147.182 42.612 148.442 43.844 148.442 46.154V50.452C148.442 52.762 147.182 53.994 144.872 53.994C142.576 53.994 141.316 52.762 141.316 50.452ZM146.496 50.004V46.602C146.496 44.88 145.95 44.124 144.872 44.124C143.794 44.124 143.262 44.88 143.262 46.602V50.004C143.262 51.726 143.794 52.468 144.872 52.468C145.95 52.468 146.496 51.726 146.496 50.004ZM154.964 42.864V53.644L152.99 53.938V44.432H151.03V42.864H154.964Z" fill="white"/>
<path d="M112.848 6.384H122.512V11.568L120.304 11.968H112.848V6.384ZM124.32 14.88H119.264V17.488H117.024V14.88H110.768V13.28H124.64L124.32 14.88ZM122.624 20.336H112.848V16.16H115.072V18.736H122.944L122.624 20.336ZM115.072 10.384H120.304V7.984H115.072V10.384ZM137.858 5.76V20.08L135.682 20.4V11.536H132.738V9.92H135.682V6.08L137.858 5.76ZM131.106 6.496V10.704C131.106 11.04 131.186 11.392 131.378 11.648C132.21 12.768 133.458 14.304 134.546 15.52L133.266 16.752C132.146 15.568 130.802 14.064 129.986 12.976C129.042 14.176 127.65 15.872 126.514 17.104L125.17 15.936C126.258 14.672 127.554 13.136 128.498 11.776C128.69 11.504 128.834 11.136 128.834 10.8V6.816L131.106 6.496ZM153.081 6.8L152.761 8.384H150.201V11.008C150.201 11.344 150.281 11.696 150.489 11.952C151.369 13.04 152.489 14.32 153.577 15.536L152.297 16.768C151.177 15.584 149.993 14.32 149.097 13.28C148.121 14.448 146.889 15.856 145.737 17.104L144.393 15.936C145.497 14.656 146.633 13.408 147.609 12.08C147.801 11.808 147.961 11.44 147.961 11.104V8.384H145.113V6.8H153.081ZM156.473 5.76V11.264H158.777L158.457 13.056H156.473V20.08L154.281 20.4V6.08L156.473 5.76ZM164.523 6.224V9.616C164.523 9.952 164.587 10.304 164.811 10.544C165.803 11.632 166.875 12.672 167.995 13.6L166.715 14.832C165.579 13.92 164.395 12.896 163.419 11.824C162.443 12.944 161.131 14.192 159.963 15.184L158.619 14.016C159.739 13.024 160.923 11.936 161.899 10.672C162.107 10.416 162.251 10.048 162.251 9.728V6.544L164.523 6.224ZM168.891 6.08L171.083 5.76V10.192H173.387L173.067 11.824H171.083V15.952L168.891 16.272V6.08ZM171.307 20.336H161.787V15.68H164.011V18.736H171.627L171.307 20.336ZM174.478 11.584C174.478 10.096 175.902 8.896 178.126 8.896C180.35 8.896 181.774 10.096 181.774 11.584V12.096C181.774 13.28 180.878 14.272 179.406 14.64V16.24C180.798 16.176 182.046 15.984 182.878 15.856V17.44C180.606 17.76 178.142 17.856 175.678 17.856H173.742V16.256H177.166V14.704C175.502 14.416 174.478 13.36 174.478 12.096V11.584ZM183.438 6.08L185.646 5.76V11.936H187.854L187.534 13.568H185.646V20.08L183.438 20.4V6.08ZM182.222 8.576H173.79V6.976H177.022V5.92L179.23 5.6V6.976H182.542L182.222 8.576ZM179.694 11.728C179.694 10.944 179.054 10.416 178.126 10.416C177.198 10.416 176.558 10.944 176.558 11.728V11.952C176.558 12.736 177.198 13.264 178.126 13.264C179.054 13.264 179.694 12.736 179.694 11.952V11.728Z" fill="#2856CE"/>
<defs>
<linearGradient id="paint0_linear_1412_14230" x1="149.5" y1="320" x2="149.5" y2="356" gradientUnits="userSpaceOnUse">
<stop stop-color="#C0D4FB"/>
<stop offset="1" stop-color="#C0D4FB" stop-opacity="0"/>
</linearGradient>
</defs>
</svg>
