<svg width="339" height="504" viewBox="0 0 339 504" fill="none" xmlns="http://www.w3.org/2000/svg">
<rect width="339" height="504" rx="16" fill="#F4F8FF" fill-opacity="0.8"/>
<rect x="68" y="41" width="40" height="40" rx="8" transform="rotate(45 68 41)" fill="#4B84F0"/>
<path d="M60.2181 71.088V66.176C60.2181 63.536 61.6581 62.128 64.2821 62.128C66.9221 62.128 68.3621 63.536 68.3621 66.176V71.088C68.3621 73.728 66.9221 75.136 64.2821 75.136C61.6581 75.136 60.2181 73.728 60.2181 71.088ZM66.1381 70.576V66.688C66.1381 64.72 65.5141 63.856 64.2821 63.856C63.0501 63.856 62.4421 64.72 62.4421 66.688V70.576C62.4421 72.544 63.0501 73.392 64.2821 73.392C65.5141 73.392 66.1381 72.544 66.1381 70.576ZM75.816 62.416V74.736L73.56 75.072V64.208H71.32V62.416H75.816Z" fill="white"/>
<path d="M138.8 45.76V56.112L136.624 56.432V46.08L138.8 45.76ZM138.896 60.336H129.504V55.712H131.728V58.736H139.216L138.896 60.336ZM132 46.064V49.04C132 49.376 132.064 49.744 132.288 49.984C133.28 51.088 134.352 52.304 135.472 53.376L134.192 54.608C133.056 53.568 131.872 52.384 130.896 51.312C129.92 52.432 128.608 53.856 127.44 54.96L126.096 53.792C127.216 52.656 128.4 51.392 129.376 50.112C129.584 49.84 129.728 49.472 129.728 49.136V46.384L132 46.064ZM140.979 52.528H150.083C150.339 51.216 150.579 49.328 150.643 48.048H142.674V46.448H152.963C152.899 48.16 152.755 50.48 152.307 52.528H154.851L154.531 54.128H151.715V60.08L149.523 60.4V54.128H146.531V60.016L144.339 60.336V54.128H140.979V52.528ZM171.785 51.296H162.073V46.144H171.817V47.728H164.297V49.728H172.265L171.785 51.296ZM173.897 52.48L173.577 54.032H160.025V52.48H173.897ZM168.713 55.056C170.505 55.056 172.121 55.728 172.121 57.872C172.121 60.016 170.505 60.688 168.713 60.688H165.177C163.385 60.688 161.769 60.016 161.769 57.872C161.769 55.728 163.385 55.056 165.177 55.056H168.713ZM168.633 56.656H165.273C164.553 56.656 163.913 56.96 163.913 57.872C163.913 58.784 164.553 59.088 165.273 59.088H168.633C169.353 59.088 169.977 58.784 169.977 57.872C169.977 56.96 169.353 56.656 168.633 56.656ZM174.588 53.472H180.476V52.4H176.668V48.544H184.124V47.696H176.604V46.176H186.332V50.032H178.892V50.896H186.7L186.38 52.4H182.78V53.472H188.46L188.14 54.992H174.588V53.472ZM176.54 55.904H186.332V60.368L184.124 60.688V57.488H176.54V55.904ZM202.899 45.984V50.848H204.339V46.08L206.355 45.76V60.08L204.339 60.4V52.464H202.899V59.616L200.915 59.936V46.304L202.899 45.984ZM199.491 48.384H196.627V54.88H197.443C198.371 54.88 199.411 54.816 200.323 54.608V56.16C199.395 56.352 198.275 56.432 197.107 56.432H194.579V46.8H199.491V48.384ZM217.221 54.848C218.965 54.848 220.549 55.552 220.549 57.712C220.549 59.888 218.965 60.592 217.221 60.592H213.797C211.989 60.592 210.373 59.888 210.373 57.712C210.373 55.552 211.989 54.848 213.797 54.848H217.221ZM213.781 46.064V48.816C213.781 49.152 213.845 49.52 214.069 49.76C215.061 50.864 216.133 51.92 217.253 52.864L215.973 54.096C214.837 53.184 213.653 52.16 212.677 51.088C211.701 52.208 210.389 53.456 209.221 54.448L207.877 53.28C208.997 52.272 210.181 51.168 211.157 49.888C211.365 49.616 211.509 49.248 211.509 48.912V46.384L213.781 46.064ZM220.341 45.76V49.6H222.645L222.325 51.216H220.341V54.272L218.149 54.592V46.08L220.341 45.76ZM217.013 56.432H213.973C213.109 56.432 212.517 56.784 212.517 57.712C212.517 58.656 213.109 59.008 213.973 59.008H217.013C217.813 59.008 218.405 58.656 218.405 57.712C218.405 56.784 217.813 56.432 217.013 56.432ZM237.612 48.864V46.08L239.772 45.76V53.68L237.612 54V50.496H235.452C235.196 52.352 233.5 53.328 231.596 53.328C229.532 53.328 227.708 52.176 227.708 50.032V49.376C227.708 47.232 229.532 46.08 231.596 46.08C233.484 46.08 235.18 47.056 235.436 48.864H237.612ZM239.772 60L237.612 60.4H230.332V54.4H232.556V55.904H237.58V54.4H239.772V60ZM233.324 49.968V49.44C233.324 48.32 232.572 47.68 231.596 47.68C230.62 47.68 229.868 48.32 229.868 49.44V49.968C229.868 51.088 230.62 51.728 231.596 51.728C232.572 51.728 233.324 51.088 233.324 49.968ZM232.556 58.832H237.58V57.456H232.556V58.832ZM244.415 52.144C244.527 51.888 244.543 51.424 244.543 51.088V49.36H242.127V47.808H244.543V46.256L246.623 45.936V47.808H248.879L248.639 49.36H246.623V51.04C246.623 51.376 246.607 51.776 246.735 52.064C247.151 52.992 248.383 54.816 249.231 55.872L247.855 57.056C247.199 56.208 246.271 54.944 245.647 53.968C244.959 55.056 244.063 56.336 243.183 57.392L241.791 56.24C242.895 54.912 243.919 53.216 244.415 52.144ZM249.599 46.304L251.583 45.984V59.616L249.599 59.936V52.448H247.823V50.784H249.599V46.304ZM252.447 46.08L254.479 45.76V60.08L252.447 60.4V46.08ZM266.598 46.24V49.632C266.598 49.968 266.662 50.336 266.886 50.576C267.878 51.68 268.95 52.8 270.07 53.84L268.79 55.072C267.654 54.064 266.47 52.976 265.494 51.904C264.518 53.024 263.222 54.384 262.038 55.424L260.694 54.256C261.83 53.184 262.998 51.984 263.974 50.704C264.182 50.432 264.326 50.064 264.326 49.728V46.56L266.598 46.24ZM271.222 56.464V50.176H268.182V48.592H271.222V46.08L273.398 45.76V56.144L271.222 56.464ZM273.494 60.336H264.102V55.712H266.326V58.736H273.814L273.494 60.336ZM284.68 54.848C286.424 54.848 288.008 55.552 288.008 57.712C288.008 59.888 286.424 60.592 284.68 60.592H281.256C279.448 60.592 277.832 59.888 277.832 57.712C277.832 55.552 279.448 54.848 281.256 54.848H284.68ZM284.264 46.448L283.944 48.048H281.368V49.104C281.368 49.44 281.432 49.808 281.656 50.048C282.648 51.152 283.656 52.096 284.776 53.04L283.496 54.272C282.36 53.36 281.288 52.416 280.28 51.376C279.272 52.48 278.072 53.632 276.904 54.624L275.56 53.456C276.68 52.448 277.832 51.456 278.808 50.176C279.016 49.904 279.16 49.536 279.16 49.2V48.048H276.296V46.448H284.264ZM285.784 54.656V50.72H283.048V49.136H285.784V46.08L287.96 45.76V54.336L285.784 54.656ZM284.472 56.432H281.432C280.568 56.432 279.976 56.784 279.976 57.712C279.976 58.656 280.568 59.008 281.432 59.008H284.472C285.272 59.008 285.864 58.656 285.864 57.712C285.864 56.784 285.272 56.432 284.472 56.432Z" fill="#2856CE"/>
<path d="M136.65 79.9121V92.1621H135.365V85.832H132.617V84.7656H135.365V79.9121H136.65ZM126.424 88.8672C129.671 87.2812 131.113 85.0732 131.339 82.2637H126.971V81.2246H132.658C132.645 84.7725 131.264 87.835 127.107 89.8926L126.424 88.8672ZM143.555 81.1973V85.627H140.191V88.2109C141.518 88.2041 142.775 88.1426 144.252 87.9102L144.361 88.9492C142.659 89.25 141.292 89.291 139.768 89.3047H138.934V84.5605H142.297V82.2637H138.92V81.1973H143.555ZM145.045 91.5332V80.1582H146.234V84.6836H147.82V79.9121H149.064V92.1621H147.82V85.7363H146.234V91.5332H145.045ZM163.611 79.9121V84.793H165.512V85.873H163.611V92.1484H162.312V79.9121H163.611ZM154.082 88.8809C157.151 87.3496 158.819 85.1348 159.086 82.2773H154.697V81.1973H160.412C160.398 84.7383 158.84 87.9033 154.807 89.8926L154.082 88.8809ZM176.066 83.2207V84.2734H167.658V80.1309H168.943V83.2207H176.066ZM166.168 86.6387V85.5723H177.352V86.6387H166.168ZM167.494 89.8652C167.494 88.4365 169.087 87.6299 171.746 87.6367C174.385 87.6299 175.964 88.4365 175.971 89.8652C175.964 91.3008 174.385 92.1074 171.746 92.1074C169.087 92.1074 167.494 91.3008 167.494 89.8652ZM168.807 89.8652C168.8 90.6514 169.873 91.1025 171.746 91.1094C173.592 91.1025 174.672 90.6514 174.672 89.8652C174.672 89.0723 173.592 88.6553 171.746 88.6484C169.873 88.6553 168.8 89.0723 168.807 89.8652ZM185.076 80.4727C186.689 80.459 187.94 81.3955 188.207 82.7695H190.6V79.9121H191.898V86.4883H190.6V83.8359H188.214C187.961 85.2441 186.703 86.1875 185.076 86.1875C183.203 86.1875 181.856 85.0049 181.863 83.3164C181.856 81.6484 183.203 80.459 185.076 80.4727ZM183.107 83.3164C183.101 84.3623 183.921 85.0938 185.076 85.0938C186.211 85.0938 187.018 84.3623 187.018 83.3164C187.018 82.2637 186.211 81.5459 185.076 81.5527C183.921 81.5459 183.101 82.2637 183.107 83.3164ZM183.914 92.0117V87.0762H185.199V88.498H190.6V87.0762H191.898V92.0117H183.914ZM185.199 90.9453H190.6V89.5234H185.199V90.9453ZM197.449 83.6719C197.449 85.5996 198.345 87.5615 200.033 88.4707L199.309 89.4277C198.119 88.7988 197.299 87.6299 196.854 86.2422C196.417 87.7256 195.597 89.0039 194.414 89.7148L193.648 88.7305C195.344 87.7461 196.219 85.6475 196.232 83.6719V83.1797H194.018V82.1133H196.232V80.3496H197.449V82.1133H199.623V83.1797H197.449V83.6719ZM198.816 85.7637V84.6836H200.58V80.1719H201.811V91.5469H200.58V85.7637H198.816ZM203.055 92.1621V79.9121H204.299V92.1621H203.055ZM209.863 91V81.1016H213.391C215.694 81.1016 216.822 82.4824 216.822 84.3145C216.822 86.1396 215.688 87.5273 213.391 87.5273H211.367V91H209.863ZM211.367 86.2422H213.24C214.696 86.249 215.305 85.4287 215.305 84.3145C215.305 83.1934 214.696 82.3936 213.24 82.3867H211.367V86.2422ZM221.334 91.1504C219.229 91.1504 217.854 89.6191 217.861 87.3223C217.854 85.0117 219.229 83.4805 221.334 83.4805C223.426 83.4805 224.793 85.0117 224.793 87.3223C224.793 89.6191 223.426 91.1504 221.334 91.1504ZM219.324 87.3223C219.324 88.7373 219.974 89.9336 221.334 89.9336C222.674 89.9336 223.316 88.7373 223.316 87.3223C223.316 85.9004 222.674 84.6904 221.334 84.6836C219.974 84.6904 219.324 85.9004 219.324 87.3223ZM229.373 91.1504C227.268 91.1504 225.894 89.6191 225.9 87.3223C225.894 85.0117 227.268 83.4805 229.373 83.4805C231.465 83.4805 232.832 85.0117 232.832 87.3223C232.832 89.6191 231.465 91.1504 229.373 91.1504ZM227.363 87.3223C227.363 88.7373 228.013 89.9336 229.373 89.9336C230.713 89.9336 231.355 88.7373 231.355 87.3223C231.355 85.9004 230.713 84.6904 229.373 84.6836C228.013 84.6904 227.363 85.9004 227.363 87.3223ZM235.73 81.1016V91H234.268V81.1016H235.73ZM250.127 79.9258V83.5625H251.877V84.6289H250.127V88.1699H248.828V79.9258H250.127ZM240.406 86.8027C241.356 86.8027 242.457 86.8027 243.605 86.7754V85.9482C242.211 85.791 241.322 85.1348 241.336 84.1504C241.322 83.0293 242.491 82.332 244.248 82.3457C246.005 82.332 247.153 83.0293 247.16 84.1504C247.153 85.1279 246.285 85.7842 244.904 85.9482V86.7275C245.998 86.6729 247.105 86.584 248.131 86.4336L248.24 87.3633C245.608 87.8213 242.703 87.8418 240.543 87.8418L240.406 86.8027ZM240.721 81.9355V80.9648H243.605V79.8164H244.904V80.9648H247.789V81.9355H240.721ZM241.938 89.7559V88.7441H250.127V92.1621H248.828V89.7559H241.938ZM242.566 84.1504C242.566 84.7246 243.202 85.1006 244.248 85.0938C245.28 85.1006 245.923 84.7246 245.916 84.1504C245.923 83.5625 245.28 83.2207 244.248 83.2344C243.202 83.2207 242.566 83.5625 242.566 84.1504ZM263.799 89.5645V90.6445H252.588V89.5645H257.523V87.0488H253.873V80.7461H255.172V82.8516H261.188V80.7461H262.473V87.0488H258.809V89.5645H263.799ZM255.172 85.9961H261.188V83.9043H255.172V85.9961Z" fill="#282828"/>
<rect x="68" y="151" width="40" height="40" rx="8" transform="rotate(45 68 151)" fill="#4B84F0"/>
<path d="M60.2181 181.088V176.176C60.2181 173.536 61.6581 172.128 64.2821 172.128C66.9221 172.128 68.3621 173.536 68.3621 176.176V181.088C68.3621 183.728 66.9221 185.136 64.2821 185.136C61.6581 185.136 60.2181 183.728 60.2181 181.088ZM66.1381 180.576V176.688C66.1381 174.72 65.5141 173.856 64.2821 173.856C63.0501 173.856 62.4421 174.72 62.4421 176.688V180.576C62.4421 182.544 63.0501 183.392 64.2821 183.392C65.5141 183.392 66.1381 182.544 66.1381 180.576ZM77.592 183.04L77.336 184.848H69.688V182.864C69.816 182.736 71.112 181.472 71.72 180.848C73.432 179.088 75.064 177.408 75.064 175.856C75.064 174.768 74.312 174 72.92 174H69.976V172.192H73.464C75.848 172.192 77.32 173.536 77.32 175.888C77.32 177.744 75.8 179.568 74.392 181.088C73.736 181.76 72.568 182.928 72.44 183.04H77.592Z" fill="white"/>
<path d="M138.8 143.76V154.112L136.624 154.432V144.08L138.8 143.76ZM138.896 158.336H129.504V153.712H131.728V156.736H139.216L138.896 158.336ZM132 144.064V147.04C132 147.376 132.064 147.744 132.288 147.984C133.28 149.088 134.352 150.304 135.472 151.376L134.192 152.608C133.056 151.568 131.872 150.384 130.896 149.312C129.92 150.432 128.608 151.856 127.44 152.96L126.096 151.792C127.216 150.656 128.4 149.392 129.376 148.112C129.584 147.84 129.728 147.472 129.728 147.136V144.384L132 144.064ZM140.979 150.528H150.083C150.339 149.216 150.579 147.328 150.643 146.048H142.674V144.448H152.963C152.899 146.16 152.755 148.48 152.307 150.528H154.851L154.531 152.128H151.715V158.08L149.523 158.4V152.128H146.531V158.016L144.339 158.336V152.128H140.979V150.528ZM170.393 146.864V144.08L172.553 143.76V151.68L170.393 152V148.496H168.233C167.977 150.352 166.281 151.328 164.377 151.328C162.313 151.328 160.489 150.176 160.489 148.032V147.376C160.489 145.232 162.313 144.08 164.377 144.08C166.265 144.08 167.961 145.056 168.217 146.864H170.393ZM172.553 158L170.393 158.4H163.113V152.4H165.337V153.904H170.361V152.4H172.553V158ZM166.105 147.968V147.44C166.105 146.32 165.353 145.68 164.377 145.68C163.401 145.68 162.649 146.32 162.649 147.44V147.968C162.649 149.088 163.401 149.728 164.377 149.728C165.353 149.728 166.105 149.088 166.105 147.968ZM165.337 156.832H170.361V155.456H165.337V156.832ZM177.196 150.144C177.308 149.888 177.324 149.424 177.324 149.088V147.36H174.908V145.808H177.324V144.256L179.404 143.936V145.808H181.66L181.42 147.36H179.404V149.04C179.404 149.376 179.388 149.776 179.516 150.064C179.932 150.992 181.164 152.816 182.012 153.872L180.636 155.056C179.98 154.208 179.052 152.944 178.428 151.968C177.74 153.056 176.844 154.336 175.964 155.392L174.572 154.24C175.676 152.912 176.7 151.216 177.196 150.144ZM182.38 144.304L184.364 143.984V157.616L182.38 157.936V150.448H180.604V148.784H182.38V144.304ZM185.228 144.08L187.26 143.76V158.08L185.228 158.4V144.08ZM202.899 152.848C204.643 152.848 206.227 153.552 206.227 155.712C206.227 157.888 204.643 158.592 202.899 158.592H199.475C197.667 158.592 196.051 157.888 196.051 155.712C196.051 153.552 197.667 152.848 199.475 152.848H202.899ZM196.723 152.16H194.019V150.656H195.379L195.299 146.608H197.507L197.587 150.656C198.003 150.656 198.451 150.656 198.915 150.624L198.979 146.608H201.091L201.027 150.512C201.795 150.448 202.531 150.384 203.155 150.288V151.824C201.539 152.064 198.803 152.16 196.723 152.16ZM206.163 143.76V152.304L204.003 152.624V150H201.891V148.48H204.003V147.824H201.891V146.288H204.003V144.08L206.163 143.76ZM202.691 154.432H199.651C198.787 154.432 198.195 154.784 198.195 155.712C198.195 156.656 198.787 157.008 199.651 157.008H202.691C203.491 157.008 204.083 156.656 204.083 155.712C204.083 154.784 203.491 154.432 202.691 154.432ZM202.115 146.048H194.291V144.448H202.115V146.048ZM220.293 143.76V149.248H222.597L222.277 151.04H220.293V158.08L218.101 158.4V144.08L220.293 143.76ZM214.005 146.384H209.125V144.8H216.309V145.936C216.309 150.288 213.269 153.744 209.765 155.344L208.453 153.92C211.509 152.64 214.005 149.44 214.005 146.656V146.384Z" fill="#2856CE"/>
<path d="M136.664 177.926V185.172H135.365V183.682H132.275V182.615H135.365V181.125H132.405C131.612 183.094 129.773 184.481 127.121 185.24L126.602 184.229C129.5 183.401 131.195 181.843 131.428 179.867H127.23V178.801H132.836C132.836 179.252 132.788 179.689 132.706 180.1H135.365V177.926H136.664ZM128.502 187.701C128.502 186.218 130.115 185.315 132.631 185.309C135.112 185.315 136.739 186.218 136.746 187.701C136.739 189.191 135.112 190.107 132.631 190.107C130.115 190.107 128.502 189.191 128.502 187.701ZM129.787 187.701C129.787 188.562 130.881 189.062 132.631 189.068C134.347 189.062 135.44 188.562 135.447 187.701C135.44 186.826 134.347 186.327 132.631 186.334C130.881 186.327 129.787 186.826 129.787 187.701ZM141.941 178.623C142.96 178.616 143.828 178.999 144.402 179.635H147.465V177.912H148.764V185.145H147.465V183.49H144.396C143.821 184.119 142.953 184.495 141.941 184.488C140.096 184.495 138.722 183.271 138.729 181.562C138.722 179.833 140.096 178.616 141.941 178.623ZM139.973 181.562C139.966 182.636 140.793 183.395 141.941 183.381C143.056 183.395 143.883 182.636 143.883 181.562C143.883 180.462 143.056 179.73 141.941 179.744C140.793 179.73 139.966 180.462 139.973 181.562ZM140.52 187.783C140.513 186.286 142.099 185.411 144.662 185.418C147.212 185.411 148.798 186.286 148.805 187.783C148.798 189.273 147.212 190.142 144.662 190.135C142.099 190.142 140.513 189.273 140.52 187.783ZM141.791 187.783C141.784 188.624 142.864 189.116 144.662 189.109C146.46 189.116 147.533 188.624 147.533 187.783C147.533 186.908 146.46 186.423 144.662 186.416C142.864 186.423 141.784 186.908 141.791 187.783ZM144.997 180.674C145.079 180.947 145.127 181.248 145.127 181.562C145.127 181.863 145.079 182.157 144.997 182.424H147.465V180.674H144.997ZM160.891 178.842V179.525C160.877 180.346 160.877 181.562 160.576 183.148L159.291 183.025C159.558 181.672 159.599 180.681 159.612 179.908H154.711V178.842H160.891ZM153.973 184.201C154.725 184.201 155.579 184.194 156.475 184.174V181.59H157.76V184.133C159.072 184.078 160.426 183.982 161.656 183.805L161.738 184.748C159.182 185.199 156.256 185.247 154.096 185.254L153.973 184.201ZM155.832 189.902V186.279H157.131V188.85H164.158V189.902H155.832ZM162.436 187.113V177.912H163.762V181.809H165.443V182.902H163.762V187.113H162.436ZM176.34 177.912V190.189H175.041V177.912H176.34ZM166.852 180.072V179.02H172.594V183.49H168.191V186.17C170.181 186.163 171.91 186.067 173.961 185.732L174.084 186.799C171.917 187.161 170.071 187.243 167.904 187.25H166.865V182.451H171.268V180.072H166.852ZM188.152 178.691V183.723H182.328V178.691H188.152ZM183.135 189.123C185.363 188.904 187.106 187.79 187.195 186.689H183.627V185.705H187.223V184.557H188.508V185.705H192.117V186.689H188.535C188.624 187.756 190.326 188.877 192.555 189.123L192.117 190.121C190.196 189.889 188.61 189.068 187.872 187.988C187.12 189.082 185.514 189.889 183.586 190.121L183.135 189.123ZM183.6 182.711H186.867V179.73H183.6V182.711ZM190.545 184.912V177.912H191.83V184.912H190.545ZM207.785 177.912V190.162H206.541V183.873H205.078V189.561H203.848V178.145H205.078V182.779H206.541V177.912H207.785ZM197.039 186.703C198.83 185.698 199.664 183.586 199.664 181.152V180.359H197.367V179.307H203.055V180.359H200.922V181.152C200.922 183.354 201.749 185.35 203.533 186.266L202.768 187.264C201.564 186.607 200.758 185.466 200.32 184.058C199.903 185.664 199.097 186.949 197.846 187.688L197.039 186.703ZM220.5 184.939V185.992H215.496V190.148H214.225V185.992H209.289V184.939H220.5ZM210.697 183.381V178.568H219.092V183.381H210.697ZM211.969 182.369H217.793V179.607H211.969V182.369ZM229.045 179.867C229.038 181.474 230.173 182.971 231.998 183.572L231.301 184.598C229.961 184.126 228.956 183.169 228.423 181.959C227.89 183.333 226.851 184.413 225.422 184.939L224.725 183.9C226.639 183.224 227.746 181.59 227.76 179.758V178.555H229.045V179.867ZM226.379 187.865C226.379 186.43 227.944 185.589 230.494 185.596C233.01 185.589 234.555 186.43 234.555 187.865C234.555 189.314 233.01 190.142 230.494 190.135C227.944 190.142 226.379 189.314 226.379 187.865ZM227.678 187.865C227.671 188.672 228.724 189.109 230.494 189.123C232.251 189.109 233.29 188.672 233.283 187.865C233.29 187.086 232.251 186.621 230.494 186.621C228.724 186.621 227.671 187.086 227.678 187.865ZM233.146 185.309V177.912H234.445V180.988H236.223V182.082H234.445V185.309H233.146ZM242.293 179.279V180.318H238.629V182.506H242.088V183.531H238.629V186.115C240.29 186.102 241.384 186.047 242.676 185.828L242.785 186.895C241.35 187.154 240.16 187.209 238.205 187.209H237.385V179.279H242.293ZM243.496 189.561V178.145H244.74V182.779H246.217V177.912H247.461V190.162H246.217V183.832H244.74V189.561H243.496ZM133.314 202.801V203.854H132.139V207.559C132.658 207.518 133.157 207.47 133.643 207.408L133.697 208.393C131.339 208.762 128.591 208.803 126.629 208.803L126.465 207.723C126.923 207.723 127.429 207.723 127.955 207.716V203.854H126.807V202.801H133.314ZM128.42 211.92C128.413 210.491 129.972 209.678 132.562 209.678C135.146 209.678 136.698 210.491 136.705 211.92C136.698 213.321 135.146 214.142 132.562 214.135C129.972 214.142 128.413 213.321 128.42 211.92ZM129.213 207.695C129.767 207.682 130.327 207.661 130.895 207.634V203.854H129.213V207.695ZM129.705 211.92C129.698 212.692 130.751 213.13 132.562 213.137C134.36 213.13 135.413 212.692 135.42 211.92C135.413 211.127 134.36 210.683 132.562 210.689C130.751 210.683 129.698 211.127 129.705 211.92ZM133.492 207.312V206.273H135.365V205.084H133.492V204.045H135.365V201.912H136.664V209.445H135.365V207.312H133.492ZM148.094 201.912V206.793H149.994V207.873H148.094V214.148H146.795V201.912H148.094ZM138.564 210.881C141.634 209.35 143.302 207.135 143.568 204.277H139.18V203.197H144.895C144.881 206.738 143.322 209.903 139.289 211.893L138.564 210.881ZM152.852 212.057L151.758 215.83H150.596L151.32 212.057H152.852ZM167.289 201.912V206.109H169.039V207.189H167.289V211.482H165.99V201.912H167.289ZM157.568 209.104C158.512 209.104 159.612 209.104 160.768 209.062V208.208C159.373 208.044 158.484 207.374 158.498 206.369C158.484 205.18 159.653 204.469 161.41 204.482C163.167 204.469 164.315 205.18 164.322 206.369C164.315 207.374 163.447 208.044 162.066 208.201V209.001C163.16 208.939 164.268 208.837 165.293 208.68L165.402 209.596C162.791 210.088 159.845 210.122 157.705 210.143L157.568 209.104ZM157.883 204.004V203.047H160.768V201.871H162.066V203.047H164.951V204.004H157.883ZM159.373 213.902V210.84H160.672V212.85H167.727V213.902H159.373ZM159.729 206.369C159.729 206.964 160.364 207.34 161.41 207.34C162.442 207.34 163.085 206.964 163.078 206.369C163.085 205.733 162.442 205.364 161.41 205.371C160.364 205.364 159.729 205.733 159.729 206.369ZM179.963 201.926V209.172H178.664V207.682H175.574V206.615H178.664V205.125H175.704C174.911 207.094 173.072 208.481 170.42 209.24L169.9 208.229C172.799 207.401 174.494 205.843 174.727 203.867H170.529V202.801H176.135C176.135 203.252 176.087 203.689 176.005 204.1H178.664V201.926H179.963ZM171.801 211.701C171.801 210.218 173.414 209.315 175.93 209.309C178.411 209.315 180.038 210.218 180.045 211.701C180.038 213.191 178.411 214.107 175.93 214.107C173.414 214.107 171.801 213.191 171.801 211.701ZM173.086 211.701C173.086 212.562 174.18 213.062 175.93 213.068C177.646 213.062 178.739 212.562 178.746 211.701C178.739 210.826 177.646 210.327 175.93 210.334C174.18 210.327 173.086 210.826 173.086 211.701ZM183.244 209.637C182.711 209.63 182.267 209.199 182.273 208.666C182.267 208.133 182.711 207.695 183.244 207.695C183.771 207.695 184.208 208.133 184.215 208.666C184.208 209.199 183.771 209.63 183.244 209.637ZM195.166 201.898V205.562H196.943V206.656H195.166V210.908H193.867V201.898H195.166ZM185.732 205.795C185.719 204.011 187.141 202.753 188.986 202.746C190.839 202.753 192.24 204.011 192.254 205.795C192.24 207.579 190.839 208.851 188.986 208.844C187.141 208.851 185.719 207.579 185.732 205.795ZM187.004 205.795C186.99 206.937 187.865 207.709 188.986 207.709C190.121 207.709 190.976 206.937 190.982 205.795C190.976 204.653 190.121 203.881 188.986 203.881C187.865 203.881 186.99 204.653 187.004 205.795ZM187.4 213.902V209.965H188.699V212.85H195.686V213.902H187.4ZM207.854 201.926V209.172H206.555V207.682H203.465V206.615H206.555V205.125H203.595C202.802 207.094 200.963 208.481 198.311 209.24L197.791 208.229C200.689 207.401 202.385 205.843 202.617 203.867H198.42V202.801H204.025C204.025 203.252 203.978 203.689 203.896 204.1H206.555V201.926H207.854ZM199.691 211.701C199.691 210.218 201.305 209.315 203.82 209.309C206.302 209.315 207.929 210.218 207.936 211.701C207.929 213.191 206.302 214.107 203.82 214.107C201.305 214.107 199.691 213.191 199.691 211.701ZM200.977 211.701C200.977 212.562 202.07 213.062 203.82 213.068C205.536 213.062 206.63 212.562 206.637 211.701C206.63 210.826 205.536 210.327 203.82 210.334C202.07 210.327 200.977 210.826 200.977 211.701ZM211.135 209.637C210.602 209.63 210.157 209.199 210.164 208.666C210.157 208.133 210.602 207.695 211.135 207.695C211.661 207.695 212.099 208.133 212.105 208.666C212.099 209.199 211.661 209.63 211.135 209.637ZM224.643 211.564V212.645H213.432V211.564H218.367V209.049H214.717V202.746H216.016V204.852H222.031V202.746H223.316V209.049H219.652V211.564H224.643ZM216.016 207.996H222.031V205.904H216.016V207.996ZM235.744 201.926V210.949H234.445V206.697H231.902V205.617H234.445V201.926H235.744ZM225.709 208.543C228.437 207.661 230.289 206 230.556 203.922H226.338V202.842H231.984C231.971 206.041 229.776 208.447 226.256 209.582L225.709 208.543ZM227.855 213.902V210.02H229.168V212.85H236.059V213.902H227.855ZM247.912 202.801V203.854H246.736V207.559C247.256 207.518 247.755 207.47 248.24 207.408L248.295 208.393C245.937 208.762 243.188 208.803 241.227 208.803L241.062 207.723C241.521 207.723 242.026 207.723 242.553 207.716V203.854H241.404V202.801H247.912ZM243.018 211.92C243.011 210.491 244.569 209.678 247.16 209.678C249.744 209.678 251.296 210.491 251.303 211.92C251.296 213.321 249.744 214.142 247.16 214.135C244.569 214.142 243.011 213.321 243.018 211.92ZM243.811 207.695C244.364 207.682 244.925 207.661 245.492 207.634V203.854H243.811V207.695ZM244.303 211.92C244.296 212.692 245.349 213.13 247.16 213.137C248.958 213.13 250.011 212.692 250.018 211.92C250.011 211.127 248.958 210.683 247.16 210.689C245.349 210.683 244.296 211.127 244.303 211.92ZM248.09 207.312V206.273H249.963V205.084H248.09V204.045H249.963V201.912H251.262V209.445H249.963V207.312H248.09ZM262.691 201.912V206.793H264.592V207.873H262.691V214.148H261.393V201.912H262.691ZM253.162 210.881C256.231 209.35 257.899 207.135 258.166 204.277H253.777V203.197H259.492C259.479 206.738 257.92 209.903 253.887 211.893L253.162 210.881Z" fill="#282828"/>
<rect x="68" y="273" width="40" height="40" rx="8" transform="rotate(45 68 273)" fill="#4B84F0"/>
<path d="M60.2181 303.088V298.176C60.2181 295.536 61.6581 294.128 64.2821 294.128C66.9221 294.128 68.3621 295.536 68.3621 298.176V303.088C68.3621 305.728 66.9221 307.136 64.2821 307.136C61.6581 307.136 60.2181 305.728 60.2181 303.088ZM66.1381 302.576V298.688C66.1381 296.72 65.5141 295.856 64.2821 295.856C63.0501 295.856 62.4421 296.72 62.4421 298.688V302.576C62.4421 304.544 63.0501 305.392 64.2821 305.392C65.5141 305.392 66.1381 304.544 66.1381 302.576ZM77.736 303.328C77.736 306.32 75.816 307.088 73 307.088H69.736V305.296H72.712C74.488 305.296 75.416 304.64 75.416 303.28C75.416 301.68 74.12 301.2 72.584 301.2H71.224V299.408H72.52C74.072 299.408 74.984 298.8 74.984 297.632C74.984 296.48 74.328 295.952 73.048 295.952L70.152 295.936V294.112L73.528 294.128C75.416 294.144 77.272 295.056 77.272 297.296C77.272 298.928 76.312 299.904 75.08 300.272V300.304C76.584 300.544 77.736 301.664 77.736 303.328Z" fill="white"/>
<path d="M140.288 272.384L139.968 273.936H126.416V272.384H140.288ZM134.496 265.856V266.784C134.496 267.152 134.496 267.536 134.784 267.728C136.064 268.576 137.728 269.472 139.28 270.192L138.384 271.616C136.816 270.896 134.624 269.872 133.36 269.056C132.176 269.84 129.984 270.944 128.288 271.728L127.376 270.32C129.024 269.536 130.688 268.64 131.856 267.84C132.144 267.632 132.208 267.296 132.208 266.88V266.176L134.496 265.856ZM135.104 275.024C136.848 275.024 138.496 275.712 138.496 277.808C138.496 279.904 136.848 280.608 135.104 280.608H131.584C129.776 280.608 128.192 279.904 128.192 277.808C128.192 275.712 129.776 275.024 131.584 275.024H135.104ZM134.896 276.608H131.792C130.928 276.608 130.336 276.944 130.336 277.808C130.336 278.672 130.928 279.024 131.792 279.024H134.896C135.696 279.024 136.352 278.672 136.352 277.808C136.352 276.944 135.696 276.608 134.896 276.608ZM153.507 265.76V275.952L151.347 276.272V266.08L153.507 265.76ZM153.603 280.336H144.227V275.712H146.451V278.736H153.923L153.603 280.336ZM149.299 270.624C149.299 272.768 147.507 273.92 145.491 273.92C143.475 273.92 141.683 272.768 141.683 270.624V269.696C141.683 267.552 143.475 266.4 145.491 266.4C147.507 266.4 149.299 267.552 149.299 269.696V270.624ZM147.139 270.56V269.76C147.139 268.64 146.451 268 145.491 268C144.531 268 143.843 268.64 143.843 269.76V270.56C143.843 271.68 144.531 272.32 145.491 272.32C146.451 272.32 147.139 271.68 147.139 270.56ZM170.393 268.864V266.08L172.553 265.76V273.68L170.393 274V270.496H168.233C167.977 272.352 166.281 273.328 164.377 273.328C162.313 273.328 160.489 272.176 160.489 270.032V269.376C160.489 267.232 162.313 266.08 164.377 266.08C166.265 266.08 167.961 267.056 168.217 268.864H170.393ZM172.553 280L170.393 280.4H163.113V274.4H165.337V275.904H170.361V274.4H172.553V280ZM166.105 269.968V269.44C166.105 268.32 165.353 267.68 164.377 267.68C163.401 267.68 162.649 268.32 162.649 269.44V269.968C162.649 271.088 163.401 271.728 164.377 271.728C165.353 271.728 166.105 271.088 166.105 269.968ZM165.337 278.832H170.361V277.456H165.337V278.832ZM177.196 272.144C177.308 271.888 177.324 271.424 177.324 271.088V269.36H174.908V267.808H177.324V266.256L179.404 265.936V267.808H181.66L181.42 269.36H179.404V271.04C179.404 271.376 179.388 271.776 179.516 272.064C179.932 272.992 181.164 274.816 182.012 275.872L180.636 277.056C179.98 276.208 179.052 274.944 178.428 273.968C177.74 275.056 176.844 276.336 175.964 277.392L174.572 276.24C175.676 274.912 176.7 273.216 177.196 272.144ZM182.38 266.304L184.364 265.984V279.616L182.38 279.936V272.448H180.604V270.784H182.38V266.304ZM185.228 266.08L187.26 265.76V280.08L185.228 280.4V266.08ZM205.395 271.296H195.683V266.144H205.427V267.728H197.907V269.728H205.875L205.395 271.296ZM207.507 272.48L207.187 274.032H193.635V272.48H207.507ZM202.323 275.056C204.115 275.056 205.731 275.728 205.731 277.872C205.731 280.016 204.115 280.688 202.323 280.688H198.787C196.995 280.688 195.379 280.016 195.379 277.872C195.379 275.728 196.995 275.056 198.787 275.056H202.323ZM202.243 276.656H198.883C198.163 276.656 197.523 276.96 197.523 277.872C197.523 278.784 198.163 279.088 198.883 279.088H202.243C202.963 279.088 203.587 278.784 203.587 277.872C203.587 276.96 202.963 276.656 202.243 276.656ZM208.197 273.472H214.085V272.4H210.277V268.544H217.733V267.696H210.213V266.176H219.941V270.032H212.501V270.896H220.309L219.989 272.4H216.389V273.472H222.069L221.749 274.992H208.197V273.472ZM210.149 275.904H219.941V280.368L217.733 280.688V277.488H210.149V275.904ZM228.22 266.288H235.228V272.592L233.068 272.912H228.22V266.288ZM239.804 276.64L236.012 276.656C236.012 276.944 236.044 277.248 236.3 277.376C237.644 278.16 238.956 278.8 240.572 279.52L239.548 280.864C237.932 280.192 236.284 279.408 234.94 278.688C233.708 279.376 231.948 280.272 230.332 280.976L229.276 279.648C231.004 278.912 232.252 278.208 233.452 277.488C233.708 277.344 233.788 276.976 233.804 276.656H229.82V275.136H233.804V273.808L236.012 273.488V275.136H240.124L239.804 276.64ZM239.756 265.76V273.84L237.596 274.16V266.08L239.756 265.76ZM233.068 267.888H230.38V271.36H233.068V267.888ZM252.451 268.384H247.491V266.8H254.755V267.936C254.755 268.96 254.579 269.936 254.275 270.848H256.659V266.08L258.835 265.76V280.08L256.659 280.4V272.464H253.571C252.371 274.656 250.371 276.352 248.211 277.344L246.899 275.92C249.955 274.64 252.451 271.44 252.451 268.656V268.384ZM270.358 265.984V270.816H271.558V266.08L273.574 265.76V280.08L271.558 280.4V272.448H270.358V279.616L268.374 279.936V266.304L270.358 265.984ZM264.934 270.848V268.384H261.782V266.8H266.918V272.416H263.862V274.944H264.678C265.558 274.944 266.742 274.848 267.718 274.656V276.24C266.854 276.4 265.382 276.528 264.406 276.528H261.782V270.848H264.934Z" fill="#2856CE"/>
<path d="M130.73 302.168C130.724 303.727 131.811 305.148 133.67 305.736L133.055 306.748C131.66 306.304 130.642 305.381 130.102 304.219C129.568 305.559 128.495 306.618 127.025 307.131L126.355 306.092C128.27 305.463 129.425 303.884 129.432 302.182V301.84H126.738V300.787H133.369V301.84H130.73V302.168ZM128.01 309.838C128.01 308.402 129.575 307.562 132.125 307.568C134.647 307.562 136.186 308.402 136.186 309.838C136.186 311.294 134.647 312.142 132.125 312.135C129.575 312.142 128.01 311.294 128.01 309.838ZM129.309 309.838C129.302 310.658 130.354 311.116 132.125 311.109C133.882 311.116 134.921 310.658 134.914 309.838C134.921 309.038 133.882 308.587 132.125 308.594C130.354 308.587 129.302 309.038 129.309 309.838ZM134.777 307.268V299.912H136.076V302.947H137.854V304.014H136.076V307.268H134.777ZM148.736 299.912V312.162H147.424V299.912H148.736ZM138.674 308.881C141.928 307.329 143.521 305.121 143.773 302.264H139.262V301.225H145.086C145.086 304.813 143.562 307.917 139.357 309.934L138.674 308.881ZM152.045 307.637C151.512 307.63 151.067 307.199 151.074 306.666C151.067 306.133 151.512 305.695 152.045 305.695C152.571 305.695 153.009 306.133 153.016 306.666C153.009 307.199 152.571 307.63 152.045 307.637ZM164.555 299.926V308.949H163.256V305.764H160.214C159.64 306.454 158.751 306.871 157.732 306.871C155.887 306.871 154.513 305.579 154.52 303.781C154.513 301.97 155.887 300.678 157.732 300.664C158.744 300.671 159.626 301.088 160.2 301.771H163.256V299.926H164.555ZM155.764 303.781C155.757 304.937 156.584 305.729 157.732 305.723C158.833 305.729 159.674 304.937 159.674 303.781C159.674 302.626 158.833 301.833 157.732 301.826C156.584 301.833 155.757 302.626 155.764 303.781ZM156.598 311.902V308.006H157.896V310.85H164.883V311.902H156.598ZM160.774 302.824C160.87 303.125 160.918 303.439 160.918 303.781C160.918 304.109 160.87 304.424 160.781 304.711H163.256V302.824H160.774ZM176.066 299.912V303.535H177.844V304.615H176.066V308.812H174.754V299.912H176.066ZM166.428 306.434C169.299 305.572 171.076 303.938 171.329 301.922H166.947V300.842H172.744C172.744 304.055 170.557 306.386 166.975 307.473L166.428 306.434ZM168.287 311.902V307.896H169.6V310.85H176.572V311.902H168.287ZM179.936 307.637C179.402 307.63 178.958 307.199 178.965 306.666C178.958 306.133 179.402 305.695 179.936 305.695C180.462 305.695 180.899 306.133 180.906 306.666C180.899 307.199 180.462 307.63 179.936 307.637ZM185.705 300.322C187.551 300.336 188.911 301.464 188.918 303.07C188.911 304.684 187.551 305.805 185.705 305.805C183.839 305.805 182.485 304.684 182.479 303.07C182.485 301.464 183.839 300.336 185.705 300.322ZM183.75 303.07C183.743 304.082 184.577 304.752 185.705 304.752C186.826 304.752 187.66 304.082 187.66 303.07C187.66 302.072 186.826 301.402 185.705 301.416C184.577 301.402 183.743 302.072 183.75 303.07ZM184.338 307.746V306.707H192.391V309.797H185.637V310.973H192.801V312.012H184.379V308.826H191.105V307.746H184.338ZM191.092 306.146V299.912H192.391V306.146H191.092ZM203.957 299.926V303.535H205.734V304.629H203.957V308.922H202.658V299.926H203.957ZM194.811 306.898V300.801H196.082V302.756H199.295V300.801H200.58V306.898H194.811ZM196.082 305.859H199.295V303.781H196.082V305.859ZM196.191 311.902V308.033H197.49V310.85H204.477V311.902H196.191ZM220.377 299.912V312.162H219.146V299.912H220.377ZM209.781 308.621C212.386 307.076 213.63 305.019 213.855 302.496H210.383V301.43H215.141C215.141 302.059 215.093 302.667 214.997 303.262H216.645V300.227H217.875V311.561H216.645V307.391H214.553V306.324H216.645V304.328H214.758C214.163 306.386 212.857 308.177 210.547 309.551L209.781 308.621ZM233.311 301.703V302.77H231.574V304.328H233.311V305.422H231.574V307.172H230.275V299.912H231.574V301.703H233.311ZM222.141 303.549C222.127 301.833 223.521 300.623 225.395 300.623C227.274 300.623 228.648 301.833 228.662 303.549C228.648 305.278 227.274 306.475 225.395 306.475C223.521 306.475 222.127 305.278 222.141 303.549ZM223.412 303.549C223.398 304.649 224.246 305.381 225.395 305.367C226.543 305.381 227.384 304.649 227.391 303.549C227.384 302.455 226.543 301.737 225.395 301.73C224.246 301.737 223.398 302.455 223.412 303.549ZM223.48 308.771V307.719H231.574V312.162H230.275V308.771H223.48ZM236.25 310.057L235.156 313.83H233.994L234.719 310.057H236.25ZM137.621 329.777V330.816H132.672V332.129H136.254V336.012H127.791V332.129H131.387V330.816H126.451V329.777H137.621ZM127.477 325.348V324.295H136.568V325.348H134.791V327.686H136.514V328.738H127.531V327.686H129.268V325.348H127.477ZM129.076 334.959H134.996V333.154H129.076V334.959ZM130.553 327.686H133.492V325.348H130.553V327.686ZM148.695 323.912V330.242H147.41V323.912H148.695ZM138.688 329.271C140.588 328.684 141.771 327.207 141.777 325.621H139.029V324.568H145.783V325.621H143.09C143.09 327.118 144.259 328.499 146.166 329.039L145.537 330.037C144.088 329.606 143.008 328.684 142.454 327.508C141.914 328.807 140.793 329.825 139.289 330.297L138.688 329.271ZM140.656 331.801V330.803H148.709V333.838H141.955V335.027H149.119V336.039H140.697V332.895H147.424V331.801H140.656ZM152.045 331.637C151.512 331.63 151.067 331.199 151.074 330.666C151.067 330.133 151.512 329.695 152.045 329.695C152.571 329.695 153.009 330.133 153.016 330.666C153.009 331.199 152.571 331.63 152.045 331.637ZM163.967 323.926V326.578H165.758V327.658H163.967V330.311H162.668V323.926H163.967ZM154.902 329.791V324.473H156.201V328.711C157.862 328.69 159.592 328.588 161.479 328.191L161.643 329.271C159.578 329.661 157.705 329.791 155.9 329.791H154.902ZM156.105 336.012V330.926H157.377V332.43H162.668V330.926H163.967V336.012H156.105ZM157.377 334.959H162.668V333.482H157.377V334.959ZM176.627 323.912V336.162H175.314V323.912H176.627ZM166.564 332.881C169.818 331.329 171.411 329.121 171.664 326.264H167.152V325.225H172.977C172.977 328.813 171.452 331.917 167.248 333.934L166.564 332.881ZM188.781 324.842V325.525C188.768 326.346 188.768 327.562 188.467 329.148L187.182 329.025C187.448 327.672 187.489 326.681 187.503 325.908H182.602V324.842H188.781ZM181.863 330.201C182.615 330.201 183.47 330.194 184.365 330.174V327.59H185.65V330.133C186.963 330.078 188.316 329.982 189.547 329.805L189.629 330.748C187.072 331.199 184.146 331.247 181.986 331.254L181.863 330.201ZM183.723 335.902V332.279H185.021V334.85H192.049V335.902H183.723ZM190.326 333.113V323.912H191.652V327.809H193.334V328.902H191.652V333.113H190.326ZM204.23 323.912V336.189H202.932V323.912H204.23ZM194.742 326.072V325.02H200.484V329.49H196.082V332.17C198.071 332.163 199.801 332.067 201.852 331.732L201.975 332.799C199.808 333.161 197.962 333.243 195.795 333.25H194.756V328.451H199.158V326.072H194.742Z" fill="#282828"/>
<rect x="68" y="395" width="40" height="40" rx="8" transform="rotate(45 68 395)" fill="#FF8D24"/>
<path d="M60.2181 425.088V420.176C60.2181 417.536 61.6581 416.128 64.2821 416.128C66.9221 416.128 68.3621 417.536 68.3621 420.176V425.088C68.3621 427.728 66.9221 429.136 64.2821 429.136C61.6581 429.136 60.2181 427.728 60.2181 425.088ZM66.1381 424.576V420.688C66.1381 418.72 65.5141 417.856 64.2821 417.856C63.0501 417.856 62.4421 418.72 62.4421 420.688V424.576C62.4421 426.544 63.0501 427.392 64.2821 427.392C65.5141 427.392 66.1381 426.544 66.1381 424.576ZM74.472 426.528H69.256V424.704L73.8 416.416H76.664V424.816H78.328L78.008 426.528H76.664V428.736L74.472 429.072V426.528ZM74.472 424.816V418.72H74.44L71.32 424.816H74.472Z" fill="white"/>
<path d="M138.176 393.296H128.464V388.144H138.208V389.728H130.688V391.728H138.656L138.176 393.296ZM140.288 394.48L139.968 396.032H126.416V394.48H140.288ZM135.104 397.056C136.896 397.056 138.512 397.728 138.512 399.872C138.512 402.016 136.896 402.688 135.104 402.688H131.568C129.776 402.688 128.16 402.016 128.16 399.872C128.16 397.728 129.776 397.056 131.568 397.056H135.104ZM135.024 398.656H131.664C130.944 398.656 130.304 398.96 130.304 399.872C130.304 400.784 130.944 401.088 131.664 401.088H135.024C135.744 401.088 136.368 400.784 136.368 399.872C136.368 398.96 135.744 398.656 135.024 398.656ZM140.979 395.472H146.867V394.4H143.059V390.544H150.515V389.696H142.995V388.176H152.723V392.032H145.283V392.896H153.091L152.771 394.4H149.171V395.472H154.851L154.531 396.992H140.979V395.472ZM142.931 397.904H152.723V402.368L150.515 402.688V399.488H142.931V397.904ZM170.393 390.864V388.08L172.553 387.76V395.68L170.393 396V392.496H168.233C167.977 394.352 166.281 395.328 164.377 395.328C162.313 395.328 160.489 394.176 160.489 392.032V391.376C160.489 389.232 162.313 388.08 164.377 388.08C166.265 388.08 167.961 389.056 168.217 390.864H170.393ZM172.553 402L170.393 402.4H163.113V396.4H165.337V397.904H170.361V396.4H172.553V402ZM166.105 391.968V391.44C166.105 390.32 165.353 389.68 164.377 389.68C163.401 389.68 162.649 390.32 162.649 391.44V391.968C162.649 393.088 163.401 393.728 164.377 393.728C165.353 393.728 166.105 393.088 166.105 391.968ZM165.337 400.832H170.361V399.456H165.337V400.832ZM177.196 394.144C177.308 393.888 177.324 393.424 177.324 393.088V391.36H174.908V389.808H177.324V388.256L179.404 387.936V389.808H181.66L181.42 391.36H179.404V393.04C179.404 393.376 179.388 393.776 179.516 394.064C179.932 394.992 181.164 396.816 182.012 397.872L180.636 399.056C179.98 398.208 179.052 396.944 178.428 395.968C177.74 397.056 176.844 398.336 175.964 399.392L174.572 398.24C175.676 396.912 176.7 395.216 177.196 394.144ZM182.38 388.304L184.364 387.984V401.616L182.38 401.936V394.448H180.604V392.784H182.38V388.304ZM185.228 388.08L187.26 387.76V402.08L185.228 402.4V388.08ZM205.779 387.76V392.512H207.987L207.667 394.128H205.779V398.144L203.571 398.464V388.08L205.779 387.76ZM193.875 395.344H196.339V391.824H198.467V395.344C199.875 395.296 201.651 395.168 203.011 394.944V396.528C200.739 396.848 198.275 396.944 195.811 396.944H193.875V395.344ZM205.859 402.336H196.355V397.84H198.563V400.736H206.179L205.859 402.336ZM200.083 389.952H194.547V388.352H202.371C202.307 390.016 202.067 392.912 201.683 394.256H199.539C199.891 393.072 200.083 390.976 200.083 389.952ZM214.197 392.816V390.288H209.317V388.704H216.389V394.384H211.541V396.944H212.693C214.149 396.944 216.373 396.88 217.909 396.56V398.144C216.277 398.416 214.005 398.528 212.501 398.528H209.317V392.816H214.197ZM220.725 387.76V402.08L218.549 402.4V388.08L220.725 387.76Z" fill="#F67600"/>
<path d="M130.703 425.029C130.689 427.196 131.954 429.418 133.779 430.307L132.973 431.346C131.64 430.648 130.607 429.281 130.067 427.647C129.521 429.384 128.447 430.854 127.053 431.578L126.246 430.525C128.126 429.623 129.397 427.271 129.404 425.029V422.938H130.703V425.029ZM134.695 434.162V421.912H135.994V426.793H137.963V427.9H135.994V434.162H134.695ZM148.764 421.926V430.895H147.465V426.287H145.127V425.234H147.465V421.926H148.764ZM138.564 428.338C140.444 427.702 141.62 426.089 141.613 424.4V423.922H138.961V422.855H145.564V423.922H142.939V424.4C142.933 425.925 144.04 427.463 145.893 428.078L145.223 429.117C143.849 428.639 142.83 427.654 142.297 426.438C141.764 427.791 140.69 428.871 139.234 429.391L138.564 428.338ZM140.807 433.902V430.088H142.105V432.85H149.092V433.902H140.807ZM152.045 429.637C151.512 429.63 151.067 429.199 151.074 428.666C151.067 428.133 151.512 427.695 152.045 427.695C152.571 427.695 153.009 428.133 153.016 428.666C153.009 429.199 152.571 429.63 152.045 429.637ZM158.594 425.029C158.58 427.196 159.845 429.418 161.67 430.307L160.863 431.346C159.53 430.648 158.498 429.281 157.958 427.647C157.411 429.384 156.338 430.854 154.943 431.578L154.137 430.525C156.017 429.623 157.288 427.271 157.295 425.029V422.938H158.594V425.029ZM162.586 434.162V421.912H163.885V426.793H165.854V427.9H163.885V434.162H162.586ZM176.982 423.266V424.332H167.016V423.266H171.377V421.857H172.662V423.266H176.982ZM166.441 430.908V429.842H177.652V430.908H172.662V434.176H171.377V430.908H166.441ZM167.945 427.025C167.938 425.686 169.47 424.954 172.02 424.961C174.562 424.954 176.094 425.686 176.094 427.025C176.094 428.331 174.562 429.069 172.02 429.076C169.47 429.069 167.938 428.331 167.945 427.025ZM169.285 427.025C169.285 427.709 170.263 428.099 172.02 428.092C173.77 428.099 174.747 427.709 174.754 427.025C174.747 426.321 173.77 425.932 172.02 425.932C170.263 425.932 169.285 426.321 169.285 427.025ZM192.117 421.926V428.857H190.818V421.926H192.117ZM182.014 427.559C183.928 426.916 185.083 425.289 185.09 423.58V422.391H186.416V423.58C186.409 425.234 187.592 426.725 189.451 427.354L188.809 428.352C187.387 427.88 186.313 426.916 185.76 425.658C185.213 427.005 184.126 428.071 182.656 428.584L182.014 427.559ZM184.064 434.012V429.514H192.117V434.012H184.064ZM185.35 432.959H190.846V430.553H185.35V432.959ZM198.051 422.787C199.985 422.78 201.38 423.977 201.387 425.699C201.38 427.422 199.985 428.618 198.051 428.625C196.123 428.618 194.708 427.422 194.715 425.699C194.708 423.977 196.123 422.78 198.051 422.787ZM194.127 430.471C196.355 430.471 199.445 430.45 202.125 430.061L202.221 431.004C199.452 431.537 196.479 431.551 194.291 431.551L194.127 430.471ZM196 425.699C195.986 426.786 196.861 427.49 198.051 427.49C199.24 427.49 200.115 426.786 200.115 425.699C200.115 424.626 199.24 423.908 198.051 423.908C196.861 423.908 195.986 424.626 196 425.699ZM202.891 434.189V421.912H204.189V434.189H202.891ZM216.439 422.801V423.854H215.264V427.559C215.783 427.518 216.282 427.47 216.768 427.408L216.822 428.393C214.464 428.762 211.716 428.803 209.754 428.803L209.59 427.723C210.048 427.723 210.554 427.723 211.08 427.716V423.854H209.932V422.801H216.439ZM211.545 431.92C211.538 430.491 213.097 429.678 215.688 429.678C218.271 429.678 219.823 430.491 219.83 431.92C219.823 433.321 218.271 434.142 215.688 434.135C213.097 434.142 211.538 433.321 211.545 431.92ZM212.338 427.695C212.892 427.682 213.452 427.661 214.02 427.634V423.854H212.338V427.695ZM212.83 431.92C212.823 432.692 213.876 433.13 215.688 433.137C217.485 433.13 218.538 432.692 218.545 431.92C218.538 431.127 217.485 430.683 215.688 430.689C213.876 430.683 212.823 431.127 212.83 431.92ZM216.617 427.312V426.273H218.49V425.084H216.617V424.045H218.49V421.912H219.789V429.445H218.49V427.312H216.617ZM231.219 421.912V426.793H233.119V427.873H231.219V434.148H229.92V421.912H231.219ZM221.689 430.881C224.759 429.35 226.427 427.135 226.693 424.277H222.305V423.197H228.02C228.006 426.738 226.447 429.903 222.414 431.893L221.689 430.881ZM235.977 432.057L234.883 435.83H233.721L234.445 432.057H235.977ZM133.355 447.088V448.127H126.465V447.088H129.336V445.803H130.621V447.088H133.355ZM127.148 450.861C127.148 449.542 128.297 448.653 129.965 448.646C131.612 448.653 132.788 449.542 132.795 450.861C132.788 452.194 131.612 453.069 129.965 453.076C128.297 453.069 127.148 452.194 127.148 450.861ZM128.365 450.861C128.358 451.62 128.994 452.105 129.965 452.105C130.922 452.105 131.578 451.62 131.592 450.861C131.578 450.116 130.922 449.638 129.965 449.645C128.994 449.638 128.358 450.116 128.365 450.861ZM128.598 458.012V453.664H129.883V454.826H135.379V453.664H136.664V458.012H128.598ZM129.883 456.986H135.379V455.824H129.883V456.986ZM133.383 452.146V451.094H135.365V449.754H133.396V448.688H135.365V445.912H136.664V453.172H135.365V452.146H133.383ZM144.389 446.65V450.219H140.342V451.914C142.475 451.914 143.637 451.866 145.018 451.613L145.141 452.666C143.644 452.919 142.386 452.96 139.945 452.967H139.057V449.234H143.09V447.689H139.043V446.65H144.389ZM140.451 455.127V454.074H148.764V458.176H147.465V455.127H140.451ZM145.168 451.299V450.26H147.465V448.742H145.168V447.703H147.465V445.926H148.764V453.459H147.465V451.299H145.168ZM154.902 449.029C154.889 451.196 156.153 453.418 157.979 454.307L157.172 455.346C155.839 454.648 154.807 453.281 154.267 451.647C153.72 453.384 152.646 454.854 151.252 455.578L150.445 454.525C152.325 453.623 153.597 451.271 153.604 449.029V446.938H154.902V449.029ZM158.895 458.162V445.912H160.193V450.793H162.162V451.9H160.193V458.162H158.895ZM176.381 445.912V453.199H175.082V450.096H172.799V449.029H175.082V445.912H176.381ZM166.168 452.092C168.068 451.429 169.237 449.774 169.23 448.086V447.812H166.578V446.76H173.182V447.812H170.557V448.072C170.55 449.624 171.657 451.135 173.51 451.764L172.84 452.789C171.466 452.317 170.454 451.333 169.921 450.123C169.388 451.49 168.314 452.591 166.852 453.131L166.168 452.092ZM168.137 455.852C168.13 454.396 169.702 453.548 172.279 453.541C174.843 453.548 176.415 454.396 176.422 455.852C176.415 457.308 174.843 458.155 172.279 458.162C169.702 458.155 168.13 457.308 168.137 455.852ZM169.422 455.852C169.415 456.679 170.481 457.15 172.279 457.137C174.063 457.15 175.13 456.679 175.137 455.852C175.13 455.018 174.063 454.546 172.279 454.553C170.481 454.546 169.415 455.018 169.422 455.852ZM188.453 445.912V458.162H187.141V445.912H188.453ZM178.391 454.881C181.645 453.329 183.237 451.121 183.49 448.264H178.979V447.225H184.803C184.803 450.813 183.278 453.917 179.074 455.934L178.391 454.881ZM200.648 446.801V447.854H199.473V451.559C199.992 451.518 200.491 451.47 200.977 451.408L201.031 452.393C198.673 452.762 195.925 452.803 193.963 452.803L193.799 451.723C194.257 451.723 194.763 451.723 195.289 451.716V447.854H194.141V446.801H200.648ZM195.754 455.92C195.747 454.491 197.306 453.678 199.896 453.678C202.48 453.678 204.032 454.491 204.039 455.92C204.032 457.321 202.48 458.142 199.896 458.135C197.306 458.142 195.747 457.321 195.754 455.92ZM196.547 451.695C197.101 451.682 197.661 451.661 198.229 451.634V447.854H196.547V451.695ZM197.039 455.92C197.032 456.692 198.085 457.13 199.896 457.137C201.694 457.13 202.747 456.692 202.754 455.92C202.747 455.127 201.694 454.683 199.896 454.689C198.085 454.683 197.032 455.127 197.039 455.92ZM200.826 451.312V450.273H202.699V449.084H200.826V448.045H202.699V445.912H203.998V453.445H202.699V451.312H200.826ZM215.428 445.912V450.793H217.328V451.873H215.428V458.148H214.129V445.912H215.428ZM205.898 454.881C208.968 453.35 210.636 451.135 210.902 448.277H206.514V447.197H212.229C212.215 450.738 210.656 453.903 206.623 455.893L205.898 454.881Z" fill="#282828"/>
</svg>
