<svg width="1336" height="622" viewBox="0 0 1336 622" fill="none" xmlns="http://www.w3.org/2000/svg">
<rect x="339" width="884" height="72" rx="16" fill="#1B4B66"/>
<path d="M748.972 37.94V35.52H745.372V33.52H748.972V31.62H745.892C744.512 34.6 741.032 37.06 737.772 38.04L736.472 36.3C740.452 35.2 743.632 31.98 743.632 29.88V29.6H737.512V27.6H746.512V28.98C746.512 29.2 746.492 29.42 746.472 29.62H748.972V27.1L751.692 26.7V37.54L748.972 37.94ZM747.592 38.06C749.772 38.06 751.752 38.94 751.752 41.64C751.752 44.36 749.772 45.24 747.592 45.24H743.312C741.052 45.24 739.032 44.36 739.032 41.64C739.032 38.94 741.052 38.06 743.312 38.06H747.592ZM747.332 40.04H743.532C742.452 40.04 741.712 40.48 741.712 41.64C741.712 42.82 742.452 43.26 743.532 43.26H747.332C748.332 43.26 749.072 42.82 749.072 41.64C749.072 40.48 748.332 40.04 747.332 40.04ZM767.175 37.76V35.1H764.075V34.46C763.295 35.94 761.555 36.72 759.655 36.72C757.075 36.72 754.795 35.28 754.795 32.6V31.42C754.795 28.74 757.075 27.3 759.655 27.3C761.555 27.3 763.295 28.08 764.075 29.58V28.52H767.175V27.1L769.875 26.7V37.36L767.175 37.76ZM765.795 38.06C767.975 38.06 769.955 38.94 769.955 41.64C769.955 44.36 767.975 45.24 765.795 45.24H761.515C759.255 45.24 757.235 44.36 757.235 41.64C757.235 38.94 759.255 38.06 761.515 38.06H765.795ZM765.535 40.04H761.735C760.655 40.04 759.915 40.48 759.915 41.64C759.915 42.82 760.655 43.26 761.735 43.26H765.535C766.535 43.26 767.275 42.82 767.275 41.64C767.275 40.48 766.535 40.04 765.535 40.04ZM761.815 32.52V31.5C761.815 30.1 760.875 29.3 759.655 29.3C758.435 29.3 757.495 30.1 757.495 31.5V32.52C757.495 33.92 758.435 34.72 759.655 34.72C760.875 34.72 761.815 33.92 761.815 32.52ZM764.515 32.6C764.515 32.78 764.495 32.94 764.475 33.1H767.175V30.5H764.415C764.475 30.8 764.515 31.1 764.515 31.42V32.6ZM788.078 26.7V44.8L785.378 45.2V27.1L788.078 26.7ZM779.858 38.68V44.22L777.138 44.62V38.76H772.998V36.76H776.598C779.018 36.76 782.198 36.62 784.638 36.18V38.22C783.138 38.46 781.458 38.6 779.858 38.68ZM783.458 31.04V31.66C783.458 34.22 781.218 35.6 778.738 35.6C776.258 35.6 774.018 34.22 774.018 31.66V31.04C774.018 28.48 776.258 27.1 778.738 27.1C781.218 27.1 783.458 28.48 783.458 31.04ZM780.758 31.54V31.16C780.758 29.84 779.858 29.1 778.738 29.1C777.618 29.1 776.718 29.84 776.718 31.16V31.54C776.718 32.86 777.618 33.6 778.738 33.6C779.858 33.6 780.758 32.86 780.758 31.54ZM801.302 30.86C801.302 33.18 799.222 34.48 796.862 34.48C794.502 34.48 792.422 33.18 792.422 30.86V30.42C792.422 28.1 794.502 26.8 796.862 26.8C799.222 26.8 801.302 28.1 801.302 30.42V30.86ZM803.582 40.52V39.34H799.482V37.44H803.582V27.1L806.282 26.7V40.12L803.582 40.52ZM806.402 44.92H794.522V40.4H797.282V42.92H806.802L806.402 44.92ZM797.942 36.98V39.92H795.202V37.1H791.202V35.18H795.422C797.382 35.18 800.262 35 802.842 34.48V36.44C801.322 36.72 799.662 36.88 797.942 36.98ZM798.682 30.84V30.44C798.682 29.34 797.862 28.72 796.862 28.72C795.862 28.72 795.042 29.34 795.042 30.44V30.84C795.042 31.94 795.862 32.56 796.862 32.56C797.862 32.56 798.682 31.94 798.682 30.84ZM810.545 33.98C810.545 32.12 812.325 30.62 815.105 30.62C817.885 30.62 819.665 32.12 819.665 33.98V34.62C819.665 36.1 818.525 37.36 816.665 37.82V39.82C818.125 39.74 819.745 39.6 821.045 39.38V41.36C818.185 41.76 815.125 41.88 812.045 41.88H809.405V39.88H813.845V37.88C811.785 37.5 810.545 36.18 810.545 34.62V33.98ZM821.785 27.1L824.485 26.7V44.6L821.785 45V27.1ZM820.225 30.22H809.685V28.22H813.725V26.9L816.485 26.5V28.22H820.625L820.225 30.22ZM817.065 34.16C817.065 33.18 816.265 32.52 815.105 32.52C813.945 32.52 813.145 33.18 813.145 34.16V34.44C813.145 35.42 813.945 36.08 815.105 36.08C816.265 36.08 817.065 35.42 817.065 34.44V34.16Z" fill="white"/>
<rect x="113" width="206" height="72" rx="16" fill="#1B4B66"/>
<path d="M204.895 26.7V44.6L202.195 45V27.1L204.895 26.7ZM196.815 36.34V31.64C196.815 30.2 196.315 29.36 194.915 29.36C193.515 29.36 193.015 30.2 193.015 31.64V36.34C193.015 37.78 193.515 38.64 194.915 38.64C196.315 38.64 196.815 37.78 196.815 36.34ZM199.535 31.58V36.42C199.535 39.1 197.695 40.66 194.915 40.66C192.135 40.66 190.295 39.1 190.295 36.42V31.58C190.295 28.9 192.135 27.34 194.915 27.34C197.695 27.34 199.535 28.9 199.535 31.58ZM222.538 26.7V33.54H225.418L225.018 35.78H222.538V44.6L219.798 45V27.1L222.538 26.7ZM214.398 27.62V32.88C214.398 33.3 214.518 33.74 214.758 34.06C215.798 35.46 217.378 37.38 218.738 38.9L217.138 40.44C215.738 38.96 214.038 37.08 213.018 35.72C211.838 37.22 210.118 39.34 208.698 40.88L207.018 39.42C208.378 37.84 209.978 35.92 211.158 34.22C211.398 33.88 211.598 33.42 211.598 33V28.02L214.398 27.62ZM227.342 33.98C227.342 32.12 229.122 30.62 231.902 30.62C234.682 30.62 236.462 32.12 236.462 33.98V34.62C236.462 36.1 235.322 37.36 233.462 37.82V39.82C234.922 39.74 236.542 39.6 237.842 39.38V41.36C234.982 41.76 231.922 41.88 228.842 41.88H226.202V39.88H230.642V37.88C228.582 37.5 227.342 36.18 227.342 34.62V33.98ZM238.582 27.1L241.282 26.7V44.6L238.582 45V27.1ZM237.022 30.22H226.482V28.22H230.522V26.9L233.282 26.5V28.22H237.422L237.022 30.22ZM233.862 34.16C233.862 33.18 233.062 32.52 231.902 32.52C230.742 32.52 229.942 33.18 229.942 34.16V34.44C229.942 35.42 230.742 36.08 231.902 36.08C233.062 36.08 233.862 35.42 233.862 34.44V34.16Z" fill="white"/>
<rect x="113" y="310" width="206" height="56" rx="16" fill="#FF7C32"/>
<path d="M199.238 329.621V337.725H197.006V329.621H199.238ZM185.791 336.002C188.463 335.202 189.658 333.189 189.658 331.203V329.973H191.996V331.203C191.979 333.146 193.139 335 195.758 335.756L194.668 337.479C192.831 336.951 191.565 335.835 190.836 334.411C190.115 335.967 188.806 337.188 186.898 337.76L185.791 336.002ZM188.516 340.15V338.41H199.256V342.752H190.748V343.736H199.695V345.512H188.551V341.082H197.023V340.15H188.516ZM216.043 338.568V340.361H209.785V345.6H207.57V340.361H201.4V338.568H216.043ZM203.123 336.846V330.395H214.285V336.846H203.123ZM205.338 335.088H212.053V332.17H205.338V335.088ZM231.617 341.943V343.754H216.975V341.943H223.162V338.375H225.412V341.943H231.617ZM217.572 337.303C220.895 336.767 222.881 334.763 223.074 332.645H218.188V330.834H230.334V332.645H225.465C225.641 334.754 227.645 336.714 231.072 337.215L230.193 338.99C227.39 338.498 225.315 337.136 224.278 335.237C223.268 337.162 221.211 338.577 218.451 339.078L217.572 337.303ZM245.926 329.621V339.254H243.676V329.621H245.926ZM232.602 337.268C235.247 336.415 236.469 334.341 236.486 332.346H233.199V330.553H241.988V332.346H238.771C238.78 334.227 239.976 336.178 242.586 336.969L241.443 338.709C239.65 338.146 238.394 336.995 237.673 335.545C236.943 337.127 235.643 338.384 233.762 339.008L232.602 337.268ZM234.922 341.75V339.957H245.926V345.617H243.676V341.75H234.922Z" fill="white"/>
<rect x="339" y="310" width="206" height="56" rx="16" fill="#4B84F0"/>
<path d="M417.54 329.621V345.617H415.396V337.602H414.042V344.879H411.915V340.3L410.649 341.979C409.164 341.196 408.206 339.869 407.635 338.243C407.107 340.115 406.167 341.645 404.638 342.559L403.249 340.836C405.684 339.465 406.492 336.635 406.501 333.576V333.066H403.794V331.273H411.124V333.066H408.681V333.576C408.681 336.362 409.507 339.017 411.915 340.265V329.85H414.042V335.773H415.396V329.621H417.54ZM433.765 338.568V340.361H427.507V345.6H425.292V340.361H419.122V338.568H433.765ZM420.845 336.846V330.395H432.007V336.846H420.845ZM423.06 335.088H429.774V332.17H423.06V335.088ZM448.108 329.621V345.652H445.876V329.621H448.108ZM435.54 332.768V330.957H443.151V337.127H437.878V340.062C440.321 340.045 442.387 339.922 444.733 339.535L444.927 341.346C442.299 341.812 439.917 341.908 436.999 341.908H435.558V335.352H440.866V332.768H435.54ZM458.673 331.73C458.664 334.077 460.747 336.582 464.368 337.197L463.384 339.061C460.589 338.507 458.523 336.934 457.486 334.886C456.432 336.916 454.357 338.498 451.589 339.061L450.622 337.197C454.182 336.564 456.265 334.051 456.282 331.73V330.57H458.673V331.73ZM450.253 343.648V341.803H464.896V343.648H450.253ZM478.905 331.027V332.891C478.896 335.22 478.896 337.435 478.167 340.906L475.935 340.695C476.251 339.368 476.436 338.19 476.55 337.109L467.269 337.566L466.987 335.773L476.664 335.422C476.699 334.543 476.708 333.717 476.708 332.891V332.82H467.479V331.027H478.905ZM465.81 343.701V341.873H480.399V343.701H465.81Z" fill="white"/>
<rect x="339.5" y="378.5" width="205" height="65" rx="15.5" fill="white"/>
<path d="M412.812 404.281V414.594H411.078V409.422H408.578V408.016H411.078V404.281H412.812ZM400.953 411.547C403.203 410.805 404.406 408.961 404.406 407.078V406.703H401.469V405.297H409.094V406.703H406.172V407.094C406.172 408.789 407.312 410.547 409.5 411.266L408.625 412.656C407.047 412.117 405.93 411.039 405.312 409.703C404.695 411.188 403.516 412.375 401.844 412.953L400.953 411.547ZM403.547 418.109V413.688H405.281V416.703H413.172V418.109H403.547ZM419.859 407.656C419.844 410.18 421.109 412.727 423.297 413.781L422.234 415.172C420.703 414.398 419.602 412.906 419 411.109C418.383 413.031 417.227 414.625 415.609 415.438L414.547 414.047C416.82 412.969 418.117 410.266 418.125 407.656V405.406H419.859V407.656ZM424.141 418.391V404.266H425.875V409.797H428.047V411.281H425.875V418.391H424.141ZM436.531 405.312V406.156C436.516 407.117 436.516 408.523 436.188 410.312L434.469 410.156C434.75 408.703 434.805 407.617 434.82 406.75H429.328V405.312H436.531ZM428.484 411.438C429.32 411.43 430.258 411.422 431.25 411.406V408.531H432.969V411.352C434.43 411.289 435.93 411.18 437.297 410.984L437.391 412.234C434.453 412.766 431.117 412.82 428.641 412.828L428.484 411.438ZM430.594 418.109V413.906H432.344V416.703H440.359V418.109H430.594ZM438.125 414.844V404.266H439.906V408.672H441.734V410.125H439.906V414.844H438.125ZM454.234 404.266V418.406H452.516V404.266H454.234ZM443.234 406.906V405.5H449.891V410.797H445.031V413.641C447.258 413.625 449.172 413.508 451.375 413.141L451.531 414.562C449.133 414.977 447.023 415.07 444.484 415.062H443.25V409.422H448.125V406.906H443.234ZM469.203 415.266V416.688H456.297V415.266H461.875V412.016H463.609V415.266H469.203ZM456.859 411.234C459.672 410.766 461.766 408.859 461.812 406.828H457.375V405.406H468.094V406.828H463.641C463.695 408.859 465.789 410.719 468.688 411.156L468 412.531C465.617 412.102 463.656 410.836 462.742 409.07C461.836 410.859 459.898 412.164 457.547 412.609L456.859 411.234ZM475.484 406.719C475.484 408.461 476.688 410.203 478.938 410.906L478.047 412.25C476.445 411.734 475.281 410.672 474.633 409.328C474 410.789 472.797 411.953 471.125 412.516L470.234 411.172C472.508 410.406 473.719 408.57 473.734 406.719V406.547H470.688V405.156H478.453V406.547H475.484V406.719ZM472.25 414.844V413.438H481.891V418.391H480.141V414.844H472.25ZM480.141 412.781V404.266H481.891V412.781H480.141Z" fill="#222222"/>
<rect x="339.5" y="378.5" width="205" height="65" rx="15.5" stroke="#E1E6EF"/>
<rect x="339.5" y="456.5" width="205" height="65" rx="15.5" fill="white"/>
<path d="M433.977 482.266V496.391H432.32V489.234H430.867V495.703H429.227V482.516H430.867V487.797H432.32V482.266H433.977ZM421.492 492.281C423.586 491.094 424.43 488.633 424.43 485.875V485.203H421.914V483.812H428.43V485.203H426.117V485.875C426.117 488.383 426.961 490.703 429.055 491.781L428.039 493.109C426.695 492.383 425.812 491.141 425.312 489.609C424.836 491.367 423.953 492.781 422.555 493.609L421.492 492.281ZM448.445 490.266V491.672H442.82V496.375H441.102V491.672H435.539V490.266H448.445ZM437.117 488.609V482.984H446.867V488.609H437.117ZM438.82 487.25H445.133V484.375H438.82V487.25ZM461.117 482.266V489.469H459.398V482.266H461.117ZM449.367 488.094C451.656 487.367 452.859 485.555 452.852 483.703V482.609H454.648V483.703C454.641 485.5 455.836 487.18 458.07 487.859L457.227 489.203C455.586 488.695 454.414 487.648 453.773 486.305C453.133 487.766 451.93 488.914 450.242 489.453L449.367 488.094ZM451.773 491.469V490.125H461.148V493.797H453.508V494.891H461.57V496.266H451.805V492.5H459.414V491.469H451.773Z" fill="#222222"/>
<rect x="339.5" y="456.5" width="205" height="65" rx="15.5" stroke="#E1E6EF"/>
<rect x="339.5" y="534.5" width="205" height="87" rx="15.5" fill="white"/>
<path d="M415.242 559.266V562.672H417.211V564.125H415.242V567.5H413.508V559.266H415.242ZM403.961 566.094C407.258 565.242 409.141 563.555 409.438 561.5H404.664V560.094H411.305C411.297 563.797 408.891 566.352 404.68 567.422L403.961 566.094ZM405.836 569.484V568.094H415.242V573.391H413.508V569.484H405.836ZM426.773 562.656C426.758 565.18 428.023 567.727 430.211 568.781L429.148 570.172C427.617 569.398 426.516 567.906 425.914 566.109C425.297 568.031 424.141 569.625 422.523 570.438L421.461 569.047C423.734 567.969 425.031 565.266 425.039 562.656V560.406H426.773V562.656ZM431.055 573.391V559.266H432.789V564.797H434.961V566.281H432.789V573.391H431.055ZM439.477 559.891C441.305 559.883 442.742 560.938 443.094 562.484H445.648V559.266H447.383V566.844H445.648V563.891H443.109C442.773 565.477 441.32 566.547 439.477 566.547C437.312 566.547 435.742 565.156 435.742 563.203C435.742 561.273 437.312 559.883 439.477 559.891ZM437.398 563.203C437.398 564.336 438.258 565.086 439.477 565.078C440.664 565.086 441.516 564.336 441.523 563.203C441.516 562.07 440.664 561.336 439.477 561.344C438.258 561.336 437.398 562.07 437.398 563.203ZM438.07 573.219V567.5H439.789V569H445.648V567.5H447.383V573.219H438.07ZM439.789 571.812H445.648V570.344H439.789V571.812ZM462.273 567.484V568.859H456.648V573.391H454.93V568.859H449.367V567.484H462.273ZM450.93 566.016V559.828H452.648V561.562H458.961V559.828H460.711V566.016H450.93ZM452.648 564.609H458.961V562.938H452.648V564.609ZM474.539 560.141V566.016H467.727V560.141H474.539ZM468.57 572.016C471.281 571.781 473.016 570.578 473.172 569.453H469.148V568.141H473.211V566.906H474.961V568.141H479.039V569.453H475.008C475.164 570.547 476.867 571.742 479.57 572.016L478.977 573.344C476.688 573.102 474.953 572.203 474.094 571.031C473.227 572.219 471.469 573.094 469.164 573.344L468.57 572.016ZM469.445 564.656H472.82V561.516H469.445V564.656ZM477.023 567.312V559.266H478.742V567.312H477.023ZM403.5 583.906V584.984C403.508 586.031 403.508 587.25 403.195 588.828H405.078V590.234H399.469V592.438H403.531V597.391H401.797V593.828H393.484V592.438H397.734V590.234H392.172V588.828H401.453C401.734 587.375 401.766 586.273 401.766 585.297H393.766V583.906H403.5ZM418.125 583.266V597.391H416.453V590.25H414.891V596.672H413.266V583.531H414.891V588.828H416.453V583.266H418.125ZM406.609 593.875V584.891H408.359V592.344C409.578 592.32 410.906 592.211 412.391 591.922L412.562 593.438C410.656 593.773 409.039 593.875 407.547 593.875H406.609ZM424.406 584.141C426.648 584.141 428.281 585.539 428.297 587.547C428.281 589.281 427.062 590.562 425.281 590.875V592.938C426.539 592.875 427.812 592.766 429.016 592.594L429.156 593.844C425.992 594.445 422.602 594.469 420.109 594.469L419.891 593.047C420.969 593.047 422.227 593.047 423.547 593.008V590.883C421.773 590.57 420.523 589.289 420.531 587.547C420.523 585.539 422.188 584.141 424.406 584.141ZM422.25 587.547C422.242 588.711 423.172 589.469 424.406 589.469C425.664 589.469 426.586 588.711 426.594 587.547C426.586 586.359 425.656 585.633 424.406 585.641C423.172 585.633 422.242 586.359 422.25 587.547ZM429.859 597.406V583.266H431.594V597.406H429.859ZM444.734 588.312V590.109H450.328V591.516H437.453V590.109H443.016V588.312H444.734ZM438.062 587.719C440.672 587.461 442.367 586.438 442.656 585.281H438.625V583.891H449.172V585.281H445.102C445.391 586.43 447.086 587.461 449.719 587.719L449.094 589.078C446.531 588.812 444.641 587.812 443.875 586.391C443.109 587.812 441.234 588.812 438.672 589.078L438.062 587.719ZM438.953 594.891C438.953 593.305 440.789 592.422 443.875 592.422C446.938 592.422 448.758 593.305 448.766 594.891C448.758 596.492 446.938 597.375 443.875 597.375C440.789 597.375 438.953 596.492 438.953 594.891ZM440.719 594.891C440.711 595.664 441.797 596.062 443.875 596.062C445.914 596.062 447.016 595.664 447.031 594.891C447.016 594.141 445.914 593.758 443.875 593.75C441.797 593.758 440.711 594.141 440.719 594.891ZM464.156 590.203V591.609H451.281V590.203H456.844V588.234H458.562V590.203H464.156ZM451.984 587.688C454.898 587.32 456.812 585.719 456.812 584.031V583.5H458.578V584.031C458.578 585.758 460.477 587.32 463.422 587.688L462.75 589.047C460.438 588.695 458.586 587.648 457.688 586.164C456.781 587.641 454.938 588.695 452.609 589.047L451.984 587.688ZM452.703 594.094V592.734H462.578V597.391H460.844V594.094H452.703ZM476.875 583.266V597.391H475.141V583.266H476.875ZM465.172 593.469C466.297 593.461 467.57 593.461 468.906 593.422V592.125C467.32 591.875 466.281 590.906 466.281 589.562C466.281 587.969 467.695 586.914 469.75 586.906C471.828 586.914 473.266 587.969 473.266 589.562C473.266 590.898 472.227 591.859 470.641 592.117V593.359C471.883 593.305 473.133 593.203 474.312 593.047L474.438 594.344C471.336 594.867 467.961 594.906 465.422 594.906L465.172 593.469ZM465.469 586.266V584.891H468.906V583.312H470.641V584.891H474.062V586.266H465.469ZM467.938 589.562C467.922 590.375 468.68 590.852 469.75 590.844C470.852 590.852 471.602 590.375 471.594 589.562C471.602 588.742 470.852 588.242 469.75 588.234C468.68 588.242 467.922 588.742 467.938 589.562ZM483.984 586.656C483.969 589.18 485.234 591.727 487.422 592.781L486.359 594.172C484.828 593.398 483.727 591.906 483.125 590.109C482.508 592.031 481.352 593.625 479.734 594.438L478.672 593.047C480.945 591.969 482.242 589.266 482.25 586.656V584.406H483.984V586.656ZM488.266 597.391V583.266H490V588.797H492.172V590.281H490V597.391H488.266Z" fill="#222222"/>
<rect x="339.5" y="534.5" width="205" height="87" rx="15.5" stroke="#E1E6EF"/>
<rect x="440" y="446" width="3" height="8" rx="1.5" fill="#C2CBE5"/>
<rect x="440" y="524" width="3" height="8" rx="1.5" fill="#C2CBE5"/>
<rect x="565.5" y="378.5" width="322" height="65" rx="15.5" fill="white"/>
<path d="M680.664 417V405.688H688.023V407.391H682.695V410.484H687.633V412.188H682.695V415.281H688.055V417H680.664ZM696.133 408.797C696.031 407.82 695.211 407.258 693.992 407.266C692.703 407.258 691.938 407.883 691.93 408.734C691.922 409.688 692.93 410.078 693.867 410.297L694.93 410.578C696.617 410.969 698.242 411.859 698.242 413.828C698.242 415.812 696.672 417.172 693.961 417.172C691.328 417.172 689.656 415.906 689.57 413.672H691.57C691.664 414.852 692.656 415.43 693.945 415.438C695.281 415.43 696.203 414.781 696.211 413.812C696.203 412.922 695.391 412.547 694.164 412.234L692.883 411.906C691.023 411.422 689.867 410.484 689.867 408.859C689.867 406.859 691.641 405.531 694.023 405.531C696.422 405.531 698.055 406.883 698.086 408.797H696.133ZM707.508 409.297C707.141 408.094 706.211 407.359 704.836 407.359C703.016 407.359 701.688 408.781 701.695 411.328C701.688 413.898 702.992 415.328 704.883 415.328C706.594 415.328 707.68 414.297 707.711 412.688H705.086V411.078H709.68V412.438C709.68 415.352 707.68 417.156 704.883 417.156C701.758 417.156 699.641 414.93 699.648 411.344C699.641 407.711 701.859 405.531 704.82 405.531C707.312 405.531 709.242 407.078 709.586 409.297H707.508ZM726.57 404.281V412.531H724.836V410.969H721.477V409.562H724.836V408.047H721.609C720.719 410.289 718.656 411.859 715.586 412.719L714.883 411.344C718.188 410.453 719.953 408.773 720.219 406.672H715.633V405.266H722.117C722.117 405.758 722.078 406.227 722 406.672H724.836V404.281H726.57ZM717.102 415.5C717.102 413.766 719 412.695 721.898 412.688C724.758 412.695 726.664 413.766 726.664 415.5C726.664 417.234 724.758 418.32 721.898 418.312C719 418.32 717.102 417.234 717.102 415.5ZM718.836 415.5C718.836 416.43 720 416.938 721.898 416.938C723.766 416.938 724.922 416.43 724.93 415.5C724.922 414.555 723.766 414.047 721.898 414.047C720 414.047 718.836 414.555 718.836 415.5ZM732.492 405.062C733.633 405.055 734.625 405.477 735.289 406.188H738.664V404.266H740.398V412.578H738.664V410.781H735.281C734.609 411.477 733.625 411.898 732.492 411.891C730.359 411.898 728.758 410.469 728.758 408.484C728.758 406.484 730.359 405.055 732.492 405.062ZM730.414 408.484C730.414 409.641 731.281 410.422 732.492 410.422C733.664 410.422 734.531 409.641 734.539 408.484C734.531 407.289 733.664 406.547 732.492 406.547C731.281 406.547 730.414 407.289 730.414 408.484ZM730.82 415.625C730.805 413.883 732.656 412.867 735.617 412.875C738.586 412.867 740.438 413.883 740.445 415.625C740.438 417.359 738.586 418.375 735.617 418.375C732.656 418.375 730.805 417.359 730.82 415.625ZM732.523 415.625C732.508 416.523 733.656 417.008 735.617 417.016C737.617 417.008 738.742 416.523 738.742 415.625C738.742 414.703 737.617 414.211 735.617 414.203C733.656 414.211 732.508 414.703 732.523 415.625ZM736.07 407.578C736.148 407.867 736.195 408.164 736.195 408.484C736.195 408.797 736.148 409.094 736.078 409.375H738.664V407.578H736.07ZM757.336 404.266V407.547H759.305V408.984H757.336V412.219H755.602V404.266H757.336ZM746.789 411.594V405.172H753.07V406.578H748.508V410.188C751.164 410.18 752.641 410.086 754.32 409.75L754.508 411.125C752.656 411.531 751.016 411.594 747.93 411.594H746.789ZM748.211 418.203V412.859H757.336V418.203H748.211ZM749.93 416.828H755.617V414.25H749.93V416.828ZM771.18 404.266V407.734H773.133V409.156H771.18V412.516H769.43V404.266H771.18ZM760.57 411.625V405.266H766.898V406.672H762.289V410.219C764.992 410.211 766.5 410.125 768.164 409.781L768.336 411.172C766.508 411.562 764.844 411.625 761.711 411.625H760.57ZM761.789 415.562C761.789 413.812 763.648 412.781 766.57 412.781C769.469 412.781 771.297 413.812 771.305 415.562C771.297 417.344 769.469 418.375 766.57 418.375C763.648 418.375 761.789 417.344 761.789 415.562ZM763.508 415.562C763.5 416.477 764.633 416.984 766.57 416.984C768.469 416.984 769.609 416.477 769.617 415.562C769.609 414.664 768.469 414.164 766.57 414.172C764.633 414.164 763.5 414.664 763.508 415.562Z" fill="#222222"/>
<rect x="565.5" y="378.5" width="322" height="65" rx="15.5" stroke="#E1E6EF"/>
<rect x="565.5" y="456.5" width="322" height="65" rx="15.5" fill="white"/>
<path d="M689.477 495V483.688H696.836V485.391H691.508V488.484H696.445V490.188H691.508V493.281H696.867V495H689.477ZM704.945 486.797C704.844 485.82 704.023 485.258 702.805 485.266C701.516 485.258 700.75 485.883 700.742 486.734C700.734 487.688 701.742 488.078 702.68 488.297L703.742 488.578C705.43 488.969 707.055 489.859 707.055 491.828C707.055 493.812 705.484 495.172 702.773 495.172C700.141 495.172 698.469 493.906 698.383 491.672H700.383C700.477 492.852 701.469 493.43 702.758 493.438C704.094 493.43 705.016 492.781 705.023 491.812C705.016 490.922 704.203 490.547 702.977 490.234L701.695 489.906C699.836 489.422 698.68 488.484 698.68 486.859C698.68 484.859 700.453 483.531 702.836 483.531C705.234 483.531 706.867 484.883 706.898 486.797H704.945ZM716.32 487.297C715.953 486.094 715.023 485.359 713.648 485.359C711.828 485.359 710.5 486.781 710.508 489.328C710.5 491.898 711.805 493.328 713.695 493.328C715.406 493.328 716.492 492.297 716.523 490.688H713.898V489.078H718.492V490.438C718.492 493.352 716.492 495.156 713.695 495.156C710.57 495.156 708.453 492.93 708.461 489.344C708.453 485.711 710.672 483.531 713.633 483.531C716.125 483.531 718.055 485.078 718.398 487.297H716.32ZM735.383 482.281V490.531H733.648V488.969H730.289V487.562H733.648V486.047H730.422C729.531 488.289 727.469 489.859 724.398 490.719L723.695 489.344C727 488.453 728.766 486.773 729.031 484.672H724.445V483.266H730.93C730.93 483.758 730.891 484.227 730.812 484.672H733.648V482.281H735.383ZM725.914 493.5C725.914 491.766 727.812 490.695 730.711 490.688C733.57 490.695 735.477 491.766 735.477 493.5C735.477 495.234 733.57 496.32 730.711 496.312C727.812 496.32 725.914 495.234 725.914 493.5ZM727.648 493.5C727.648 494.43 728.812 494.938 730.711 494.938C732.578 494.938 733.734 494.43 733.742 493.5C733.734 492.555 732.578 492.047 730.711 492.047C728.812 492.047 727.648 492.555 727.648 493.5ZM741.305 483.062C742.445 483.055 743.438 483.477 744.102 484.188H747.477V482.266H749.211V490.578H747.477V488.781H744.094C743.422 489.477 742.438 489.898 741.305 489.891C739.172 489.898 737.57 488.469 737.57 486.484C737.57 484.484 739.172 483.055 741.305 483.062ZM739.227 486.484C739.227 487.641 740.094 488.422 741.305 488.422C742.477 488.422 743.344 487.641 743.352 486.484C743.344 485.289 742.477 484.547 741.305 484.547C740.094 484.547 739.227 485.289 739.227 486.484ZM739.633 493.625C739.617 491.883 741.469 490.867 744.43 490.875C747.398 490.867 749.25 491.883 749.258 493.625C749.25 495.359 747.398 496.375 744.43 496.375C741.469 496.375 739.617 495.359 739.633 493.625ZM741.336 493.625C741.32 494.523 742.469 495.008 744.43 495.016C746.43 495.008 747.555 494.523 747.555 493.625C747.555 492.703 746.43 492.211 744.43 492.203C742.469 492.211 741.32 492.703 741.336 493.625ZM744.883 485.578C744.961 485.867 745.008 486.164 745.008 486.484C745.008 486.797 744.961 487.094 744.891 487.375H747.477V485.578H744.883ZM758.82 483.094V484.5H753.758V485.812H758.414V487.172H753.758V488.562C756.398 488.562 758.008 488.516 759.867 488.203L760.039 489.562C758.016 489.914 756.242 489.953 753.195 489.938H751.992V483.094H758.82ZM753.602 496.219V491.297H762.977V496.219H753.602ZM755.32 494.812H761.273V492.641H755.32V494.812ZM761.227 490.672V482.281H762.977V490.672H761.227Z" fill="#222222"/>
<rect x="565.5" y="456.5" width="322" height="65" rx="15.5" stroke="#E1E6EF"/>
<rect x="565.5" y="534.5" width="322" height="87" rx="15.5" fill="white"/>
<path d="M677.547 572V560.688H684.906V562.391H679.578V565.484H684.516V567.188H679.578V570.281H684.938V572H677.547ZM693.016 563.797C692.914 562.82 692.094 562.258 690.875 562.266C689.586 562.258 688.82 562.883 688.812 563.734C688.805 564.688 689.812 565.078 690.75 565.297L691.812 565.578C693.5 565.969 695.125 566.859 695.125 568.828C695.125 570.812 693.555 572.172 690.844 572.172C688.211 572.172 686.539 570.906 686.453 568.672H688.453C688.547 569.852 689.539 570.43 690.828 570.438C692.164 570.43 693.086 569.781 693.094 568.812C693.086 567.922 692.273 567.547 691.047 567.234L689.766 566.906C687.906 566.422 686.75 565.484 686.75 563.859C686.75 561.859 688.523 560.531 690.906 560.531C693.305 560.531 694.938 561.883 694.969 563.797H693.016ZM704.391 564.297C704.023 563.094 703.094 562.359 701.719 562.359C699.898 562.359 698.57 563.781 698.578 566.328C698.57 568.898 699.875 570.328 701.766 570.328C703.477 570.328 704.562 569.297 704.594 567.688H701.969V566.078H706.562V567.438C706.562 570.352 704.562 572.156 701.766 572.156C698.641 572.156 696.523 569.93 696.531 566.344C696.523 562.711 698.742 560.531 701.703 560.531C704.195 560.531 706.125 562.078 706.469 564.297H704.391ZM719.562 559.266V566.469H717.844V559.266H719.562ZM707.812 565.094C710.102 564.367 711.305 562.555 711.297 560.703V559.609H713.094V560.703C713.086 562.5 714.281 564.18 716.516 564.859L715.672 566.203C714.031 565.695 712.859 564.648 712.219 563.305C711.578 564.766 710.375 565.914 708.688 566.453L707.812 565.094ZM710.219 568.469V567.125H719.594V570.797H711.953V571.891H720.016V573.266H710.25V569.5H717.859V568.469H710.219ZM734.547 567.266V568.672H728.922V573.375H727.203V568.672H721.641V567.266H734.547ZM723.219 565.609V559.984H732.969V565.609H723.219ZM724.922 564.25H731.234V561.375H724.922V564.25ZM743.406 560.562V561.938H735.516V560.562H738.672V559.156H740.406V560.562H743.406ZM736.25 565C736.242 563.477 737.586 562.445 739.516 562.438C741.438 562.445 742.82 563.477 742.828 565C742.82 566.531 741.438 567.547 739.516 567.547C737.586 567.547 736.242 566.531 736.25 565ZM737.875 565C737.867 565.789 738.516 566.281 739.516 566.281C740.516 566.281 741.203 565.789 741.203 565C741.203 564.219 740.516 563.75 739.516 563.75C738.516 563.75 737.867 564.219 737.875 565ZM737.906 573.219V568.203H739.641V569.391H745.594V568.203H747.312V573.219H737.906ZM739.641 571.859H745.594V570.703H739.641V571.859ZM743.484 566.547V565.156H745.578V563.781H743.5V562.375H745.578V559.266H747.312V567.656H745.578V566.547H743.484ZM753.891 560.25C756.133 560.242 757.766 561.656 757.781 563.656C757.766 565.664 756.133 567.07 753.891 567.078C751.672 567.07 750.008 565.664 750.016 563.656C750.008 561.656 751.672 560.242 753.891 560.25ZM749.375 569.031C751.922 569.031 755.445 569 758.5 568.562L758.641 569.828C755.477 570.43 752.086 570.453 749.594 570.453L749.375 569.031ZM751.734 563.656C751.727 564.836 752.656 565.562 753.891 565.562C755.141 565.562 756.07 564.836 756.078 563.656C756.07 562.484 755.148 561.75 753.891 561.75C752.656 561.75 751.727 562.484 751.734 563.656ZM759.344 573.406V559.266H761.078V573.406H759.344ZM767.453 563.578C767.453 565.766 768.352 567.969 770.328 569.031L769.359 570.312C768.047 569.617 767.156 568.375 766.648 566.891C766.148 568.492 765.258 569.867 763.938 570.641L762.922 569.328C764.922 568.172 765.805 565.812 765.812 563.578V563.141H763.406V561.734H765.812V559.766H767.453V561.734H769.812V563.141H767.453V563.578ZM768.938 566.125V564.688H770.781V559.531H772.422V572.703H770.781V566.125H768.938ZM773.641 573.391V559.266H775.297V573.391H773.641ZM683.461 591.688C683.461 588.75 684.336 586.297 685.805 584.203H687.68C686.602 585.758 685.523 588.891 685.523 591.688C685.523 594.484 686.602 597.625 687.68 599.188H685.805C684.336 597.078 683.461 594.633 683.461 591.688ZM699.742 583.266V586.672H701.711V588.125H699.742V591.5H698.008V583.266H699.742ZM688.461 590.094C691.758 589.242 693.641 587.555 693.938 585.5H689.164V584.094H695.805C695.797 587.797 693.391 590.352 689.18 591.422L688.461 590.094ZM690.336 593.484V592.094H699.742V597.391H698.008V593.484H690.336ZM714.148 584.562V585.938H706.258V584.562H709.414V583.156H711.148V584.562H714.148ZM706.992 589C706.984 587.477 708.328 586.445 710.258 586.438C712.18 586.445 713.562 587.477 713.57 589C713.562 590.531 712.18 591.547 710.258 591.547C708.328 591.547 706.984 590.531 706.992 589ZM708.617 589C708.609 589.789 709.258 590.281 710.258 590.281C711.258 590.281 711.945 589.789 711.945 589C711.945 588.219 711.258 587.75 710.258 587.75C709.258 587.75 708.609 588.219 708.617 589ZM708.648 597.219V592.203H710.383V593.391H716.336V592.203H718.055V597.219H708.648ZM710.383 595.859H716.336V594.703H710.383V595.859ZM714.227 590.547V589.156H716.32V587.781H714.242V586.375H716.32V583.266H718.055V591.656H716.32V590.547H714.227ZM723.977 583.891C725.805 583.883 727.242 584.938 727.594 586.484H730.148V583.266H731.883V590.844H730.148V587.891H727.609C727.273 589.477 725.82 590.547 723.977 590.547C721.812 590.547 720.242 589.156 720.242 587.203C720.242 585.273 721.812 583.883 723.977 583.891ZM721.898 587.203C721.898 588.336 722.758 589.086 723.977 589.078C725.164 589.086 726.016 588.336 726.023 587.203C726.016 586.07 725.164 585.336 723.977 585.344C722.758 585.336 721.898 586.07 721.898 587.203ZM722.57 597.219V591.5H724.289V593H730.148V591.5H731.883V597.219H722.57ZM724.289 595.812H730.148V594.344H724.289V595.812ZM750.57 591.484V592.859H744.945V597.391H743.227V592.859H737.664V591.484H750.57ZM739.227 590.016V583.828H740.945V585.562H747.258V583.828H749.008V590.016H739.227ZM740.945 588.609H747.258V586.938H740.945V588.609ZM756.727 586.656C756.719 589.281 757.977 591.859 760.227 592.844L759.18 594.234C757.586 593.453 756.461 591.953 755.859 590.102C755.242 592.055 754.086 593.68 752.461 594.5L751.367 593.094C753.672 592.016 754.953 589.297 754.961 586.656V584.406H756.727V586.656ZM758.664 589.234V587.828H761.633V583.266H763.352V597.406H761.633V589.234H758.664ZM769.539 591.688C769.539 594.633 768.664 597.078 767.195 599.188H765.32C766.398 597.625 767.477 594.484 767.477 591.688C767.477 588.891 766.398 585.758 765.32 584.203H767.195C768.664 586.297 769.539 588.75 769.539 591.688Z" fill="#222222"/>
<rect x="565.5" y="534.5" width="322" height="87" rx="15.5" stroke="#E1E6EF"/>
<rect x="725" y="446" width="3" height="8" rx="1.5" fill="#C2CBE5"/>
<rect x="725" y="524" width="3" height="8" rx="1.5" fill="#C2CBE5"/>
<rect x="900.5" y="378.5" width="322" height="65" rx="15.5" fill="white"/>
<path d="M1017.23 411.828V414.117C1018.46 414.047 1019.7 413.938 1020.86 413.766L1021 415.047C1017.84 415.633 1014.45 415.664 1011.95 415.656L1011.73 414.25C1012.84 414.242 1014.13 414.234 1015.5 414.195V411.828H1017.23ZM1012.06 410.969C1014.19 410.383 1015.36 408.984 1015.46 407.406H1012.48V406H1015.5V404.391H1017.23V406H1020.28V407.406H1017.26C1017.35 408.914 1018.55 410.266 1020.67 410.812L1019.88 412.172C1018.2 411.719 1017.01 410.742 1016.37 409.492C1015.75 410.805 1014.57 411.828 1012.89 412.281L1012.06 410.969ZM1021.7 418.406V404.266H1023.44V418.406H1021.7ZM1037.03 405.562V406.922C1037.02 408.68 1037.02 410.641 1036.47 413.594L1034.72 413.406C1035.27 410.656 1035.27 408.648 1035.28 406.953H1026.84V405.562H1037.03ZM1025.5 416.562V415.141H1030.25V410.234H1031.97V415.141H1038.38V416.562H1025.5ZM1050.47 404.266V408.406H1052.44V409.844H1050.47V414.594H1048.73V404.266H1050.47ZM1039.48 408.766C1039.48 406.68 1041.15 405.211 1043.3 405.203C1045.45 405.211 1047.09 406.68 1047.11 408.766C1047.09 410.82 1045.45 412.312 1043.3 412.312C1041.15 412.312 1039.48 410.82 1039.48 408.766ZM1041.19 408.766C1041.18 409.984 1042.12 410.789 1043.3 410.781C1044.49 410.789 1045.4 409.984 1045.41 408.766C1045.4 407.516 1044.49 406.719 1043.3 406.719C1042.12 406.719 1041.18 407.516 1041.19 408.766ZM1041.42 418.109V413.516H1043.16V416.703H1051.03V418.109H1041.42ZM1064.98 404.281V414.594H1063.25V409.422H1060.75V408.016H1063.25V404.281H1064.98ZM1053.12 411.547C1055.38 410.805 1056.58 408.961 1056.58 407.078V406.703H1053.64V405.297H1061.27V406.703H1058.34V407.094C1058.34 408.789 1059.48 410.547 1061.67 411.266L1060.8 412.656C1059.22 412.117 1058.1 411.039 1057.48 409.703C1056.87 411.188 1055.69 412.375 1054.02 412.953L1053.12 411.547ZM1055.72 418.109V413.688H1057.45V416.703H1065.34V418.109H1055.72ZM1075.14 407.438C1075.14 408.93 1076.05 410.406 1077.83 411.016L1077.05 412.328C1075.75 411.852 1074.86 410.961 1074.35 409.875C1073.86 411.062 1072.96 412.039 1071.62 412.562L1070.81 411.281C1072.6 410.578 1073.48 409.039 1073.5 407.438V407.328H1071.17V405.969H1073.5V404.422H1075.14V405.969H1077.44V407.328H1075.14V407.438ZM1073.19 414.969V413.562H1082.86V418.391H1081.12V414.969H1073.19ZM1078.2 412.859V404.516H1079.84V407.906H1081.2V404.281H1082.86V412.922H1081.2V409.312H1079.84V412.859H1078.2ZM1096.38 404.281V412.281H1094.62V404.281H1096.38ZM1084.86 408.328C1084.86 406.336 1086.48 404.961 1088.67 404.953C1090.85 404.961 1092.48 406.336 1092.47 408.328C1092.48 410.273 1090.85 411.672 1088.67 411.672C1086.48 411.672 1084.86 410.273 1084.86 408.328ZM1086.56 408.328C1086.55 409.469 1087.44 410.211 1088.67 410.203C1089.88 410.211 1090.77 409.469 1090.77 408.328C1090.77 407.156 1089.88 406.422 1088.67 406.422C1087.44 406.422 1086.55 407.156 1086.56 408.328ZM1087 418.219V412.969H1096.38V418.219H1087ZM1088.72 416.812H1094.67V414.344H1088.72V416.812ZM1103.5 408.281C1103.49 410.461 1104.8 412.945 1107.03 413.984L1106.06 415.359C1104.47 414.609 1103.29 413.094 1102.66 411.328C1102.02 413.266 1100.78 414.922 1099.16 415.703L1098.14 414.344C1100.39 413.273 1101.76 410.633 1101.77 408.281V407.094H1098.69V405.656H1106.45V407.094H1103.5V408.281ZM1107.77 418.391V404.266H1109.5V409.766H1111.67V411.219H1109.5V418.391H1107.77Z" fill="#222222"/>
<rect x="900.5" y="378.5" width="322" height="65" rx="15.5" stroke="#E1E6EF"/>
<rect x="900.5" y="456.5" width="322" height="65" rx="15.5" fill="white"/>
<path d="M1038.54 482.266V486.406H1040.51V487.844H1038.54V492.594H1036.8V482.266H1038.54ZM1027.55 486.766C1027.55 484.68 1029.22 483.211 1031.37 483.203C1033.52 483.211 1035.16 484.68 1035.18 486.766C1035.16 488.82 1033.52 490.312 1031.37 490.312C1029.22 490.312 1027.55 488.82 1027.55 486.766ZM1029.26 486.766C1029.25 487.984 1030.19 488.789 1031.37 488.781C1032.56 488.789 1033.47 487.984 1033.48 486.766C1033.47 485.516 1032.56 484.719 1031.37 484.719C1030.19 484.719 1029.25 485.516 1029.26 486.766ZM1029.49 496.109V491.516H1031.23V494.703H1039.1V496.109H1029.49ZM1053.05 482.281V492.594H1051.32V487.422H1048.82V486.016H1051.32V482.281H1053.05ZM1041.2 489.547C1043.45 488.805 1044.65 486.961 1044.65 485.078V484.703H1041.71V483.297H1049.34V484.703H1046.41V485.094C1046.41 486.789 1047.55 488.547 1049.74 489.266L1048.87 490.656C1047.29 490.117 1046.17 489.039 1045.55 487.703C1044.94 489.188 1043.76 490.375 1042.09 490.953L1041.2 489.547ZM1043.79 496.109V491.688H1045.52V494.703H1053.41V496.109H1043.79ZM1067.96 493.266V494.688H1055.05V493.266H1060.62V490.516H1056.48V483.203H1058.21V485.516H1064.76V483.203H1066.49V490.516H1062.34V493.266H1067.96ZM1058.21 489.109H1064.76V486.906H1058.21V489.109ZM1080.71 482.281V492.641H1078.98V487.891H1076.26V486.453H1078.98V482.281H1080.71ZM1069.07 489.766C1072.11 488.805 1074.12 487 1074.45 484.766H1069.8V483.344H1076.35C1076.35 487.07 1073.89 489.852 1069.8 491.156L1069.07 489.766ZM1071.51 496.109V491.594H1073.27V494.703H1081.07V496.109H1071.51ZM1090.32 483.094V484.5H1085.26V485.812H1089.91V487.172H1085.26V488.562C1087.9 488.562 1089.51 488.516 1091.37 488.203L1091.54 489.562C1089.52 489.914 1087.74 489.953 1084.7 489.938H1083.49V483.094H1090.32ZM1085.1 496.219V491.297H1094.48V496.219H1085.1ZM1086.82 494.812H1092.77V492.641H1086.82V494.812ZM1092.73 490.672V482.281H1094.48V490.672H1092.73Z" fill="#222222"/>
<rect x="900.5" y="456.5" width="322" height="65" rx="15.5" stroke="#E1E6EF"/>
<rect x="900.5" y="534.5" width="322" height="87" rx="15.5" fill="white"/>
<path d="M998.273 571.266V574.672H1000.24V576.125H998.273V579.5H996.539V571.266H998.273ZM986.992 578.094C990.289 577.242 992.172 575.555 992.469 573.5H987.695V572.094H994.336C994.328 575.797 991.922 578.352 987.711 579.422L986.992 578.094ZM988.867 581.484V580.094H998.273V585.391H996.539V581.484H988.867ZM1009.8 574.656C1009.79 577.18 1011.05 579.727 1013.24 580.781L1012.18 582.172C1010.65 581.398 1009.55 579.906 1008.95 578.109C1008.33 580.031 1007.17 581.625 1005.55 582.438L1004.49 581.047C1006.77 579.969 1008.06 577.266 1008.07 574.656V572.406H1009.8V574.656ZM1014.09 585.391V571.266H1015.82V576.797H1017.99V578.281H1015.82V585.391H1014.09ZM1022.51 571.891C1024.34 571.883 1025.77 572.938 1026.12 574.484H1028.68V571.266H1030.41V578.844H1028.68V575.891H1026.14C1025.8 577.477 1024.35 578.547 1022.51 578.547C1020.34 578.547 1018.77 577.156 1018.77 575.203C1018.77 573.273 1020.34 571.883 1022.51 571.891ZM1020.43 575.203C1020.43 576.336 1021.29 577.086 1022.51 577.078C1023.7 577.086 1024.55 576.336 1024.55 575.203C1024.55 574.07 1023.7 573.336 1022.51 573.344C1021.29 573.336 1020.43 574.07 1020.43 575.203ZM1021.1 585.219V579.5H1022.82V581H1028.68V579.5H1030.41V585.219H1021.1ZM1022.82 583.812H1028.68V582.344H1022.82V583.812ZM1037.48 573.812C1037.48 575.539 1038.59 577.164 1040.8 577.844L1039.98 579.203C1038.39 578.703 1037.27 577.695 1036.65 576.422C1036.02 577.906 1034.84 579.086 1033.13 579.656L1032.26 578.281C1034.53 577.539 1035.73 575.703 1035.73 573.828V573.656H1032.74V572.25H1040.41V573.656H1037.48V573.812ZM1034.18 582.672C1034.18 580.984 1036.01 580 1038.96 580C1041.89 580 1043.69 580.984 1043.7 582.672C1043.69 584.375 1041.89 585.375 1038.96 585.375C1036.01 585.375 1034.18 584.375 1034.18 582.672ZM1035.91 582.672C1035.91 583.547 1037.02 584.008 1038.96 584.016C1040.89 584.008 1041.98 583.547 1041.98 582.672C1041.98 581.812 1040.89 581.359 1038.96 581.359C1037.02 581.359 1035.91 581.812 1035.91 582.672ZM1041.82 579.688V571.266H1043.55V574.656H1045.52V576.078H1043.55V579.688H1041.82ZM1061.87 571.266V578.562H1060.13V577.031H1057.29V578.109H1050.68V571.891H1052.41V573.672H1055.57V571.891H1057.29V573.141H1060.13V571.266H1061.87ZM1052.41 576.734H1055.57V575H1052.41V576.734ZM1052.55 580.5V579.141H1061.87V582.766H1054.3V583.844H1062.32V585.219H1052.57V581.484H1060.13V580.5H1052.55ZM1057.29 575.703H1060.13V574.453H1057.29V575.703ZM1078.85 571.266V576H1080.76V577.438H1078.85V582.297H1077.12V571.266H1078.85ZM1067.54 579.469C1068.59 579.469 1069.82 579.461 1071.1 579.422V578.523C1069.53 578.328 1068.53 577.555 1068.54 576.422C1068.53 575.039 1069.9 574.219 1071.95 574.234C1074 574.219 1075.35 575.039 1075.35 576.422C1075.35 577.547 1074.38 578.312 1072.84 578.523V579.336C1074.04 579.266 1075.25 579.156 1076.38 578.984L1076.52 580.203C1073.53 580.766 1070.16 580.805 1067.73 580.828L1067.54 579.469ZM1067.9 573.766V572.5H1071.1V571.219H1072.84V572.5H1076.01V573.766H1067.9ZM1069.57 585.109V581.562H1071.3V583.703H1079.35V585.109H1069.57ZM1070.21 576.422C1070.2 577.031 1070.85 577.391 1071.95 577.391C1073.04 577.391 1073.7 577.031 1073.7 576.422C1073.7 575.758 1073.04 575.398 1071.95 575.406C1070.85 575.398 1070.2 575.758 1070.21 576.422ZM1093.32 571.281V579.531H1091.59V577.969H1088.23V576.562H1091.59V575.047H1088.36C1087.47 577.289 1085.41 578.859 1082.34 579.719L1081.63 578.344C1084.94 577.453 1086.7 575.773 1086.97 573.672H1082.38V572.266H1088.87C1088.87 572.758 1088.83 573.227 1088.75 573.672H1091.59V571.281H1093.32ZM1083.85 582.5C1083.85 580.766 1085.75 579.695 1088.65 579.688C1091.51 579.695 1093.41 580.766 1093.41 582.5C1093.41 584.234 1091.51 585.32 1088.65 585.312C1085.75 585.32 1083.85 584.234 1083.85 582.5ZM1085.59 582.5C1085.59 583.43 1086.75 583.938 1088.65 583.938C1090.52 583.938 1091.67 583.43 1091.68 582.5C1091.67 581.555 1090.52 581.047 1088.65 581.047C1086.75 581.047 1085.59 581.555 1085.59 582.5ZM1106.46 571.266V575.406H1108.43V576.844H1106.46V581.594H1104.73V571.266H1106.46ZM1095.48 575.766C1095.47 573.68 1097.14 572.211 1099.29 572.203C1101.44 572.211 1103.09 573.68 1103.1 575.766C1103.09 577.82 1101.44 579.312 1099.29 579.312C1097.14 579.312 1095.47 577.82 1095.48 575.766ZM1097.18 575.766C1097.17 576.984 1098.11 577.789 1099.29 577.781C1100.48 577.789 1101.39 576.984 1101.4 575.766C1101.39 574.516 1100.48 573.719 1099.29 573.719C1098.11 573.719 1097.17 574.516 1097.18 575.766ZM1097.41 585.109V580.516H1099.15V583.703H1107.02V585.109H1097.41ZM1120.98 571.281V581.594H1119.24V576.422H1116.74V575.016H1119.24V571.281H1120.98ZM1109.12 578.547C1111.37 577.805 1112.57 575.961 1112.57 574.078V573.703H1109.63V572.297H1117.26V573.703H1114.34V574.094C1114.34 575.789 1115.48 577.547 1117.66 578.266L1116.79 579.656C1115.21 579.117 1114.09 578.039 1113.48 576.703C1112.86 578.188 1111.68 579.375 1110.01 579.953L1109.12 578.547ZM1111.71 585.109V580.688H1113.45V583.703H1121.34V585.109H1111.71ZM1130.59 572.094V573.5H1125.52V574.812H1130.18V576.172H1125.52V577.562C1128.16 577.562 1129.77 577.516 1131.63 577.203L1131.8 578.562C1129.78 578.914 1128.01 578.953 1124.96 578.938H1123.76V572.094H1130.59ZM1125.37 585.219V580.297H1134.74V585.219H1125.37ZM1127.09 583.812H1133.04V581.641H1127.09V583.812ZM1132.99 579.672V571.281H1134.74V579.672H1132.99Z" fill="#222222"/>
<rect x="900.5" y="534.5" width="322" height="87" rx="15.5" stroke="#E1E6EF"/>
<rect x="1060" y="446" width="3" height="8" rx="1.5" fill="#C2CBE5"/>
<rect x="1060" y="524" width="3" height="8" rx="1.5" fill="#C2CBE5"/>
<rect x="565" y="310" width="658" height="56" rx="16" fill="#4B84F0"/>
<path d="M861.199 329.621V345.652H858.932V329.621H861.199ZM848.596 341.908V330.887H850.846V334.789H854.291V330.887H856.506V341.908H848.596ZM850.846 340.098H854.291V336.529H850.846V340.098ZM877.318 329.621V345.617H875.174V337.602H873.82V344.879H871.693V340.3L870.428 341.979C868.942 341.196 867.984 339.869 867.413 338.243C866.886 340.115 865.945 341.645 864.416 342.559L863.027 340.836C865.462 339.465 866.271 336.635 866.279 333.576V333.066H863.572V331.273H870.902V333.066H868.459V333.576C868.459 336.362 869.285 339.017 871.693 340.265V329.85H873.82V335.773H875.174V329.621H877.318ZM893.543 338.568V340.361H887.285V345.6H885.07V340.361H878.9V338.568H893.543ZM880.623 336.846V330.395H891.785V336.846H880.623ZM882.838 335.088H889.553V332.17H882.838V335.088ZM907.887 329.621V345.652H905.654V329.621H907.887ZM895.318 332.768V330.957H902.93V337.127H897.656V340.062C900.1 340.045 902.165 339.922 904.512 339.535L904.705 341.346C902.077 341.812 899.695 341.908 896.777 341.908H895.336V335.352H900.645V332.768H895.318ZM918.451 331.73C918.442 334.077 920.525 336.582 924.146 337.197L923.162 339.061C920.367 338.507 918.302 336.934 917.265 334.886C916.21 336.916 914.136 338.498 911.367 339.061L910.4 337.197C913.96 336.564 916.043 334.051 916.061 331.73V330.57H918.451V331.73ZM910.031 343.648V341.803H924.674V343.648H910.031ZM938.684 331.027V332.891C938.675 335.22 938.675 337.435 937.945 340.906L935.713 340.695C936.029 339.368 936.214 338.19 936.328 337.109L927.047 337.566L926.766 335.773L936.442 335.422C936.478 334.543 936.486 333.717 936.486 332.891V332.82H927.258V331.027H938.684ZM925.588 343.701V341.873H940.178V343.701H925.588Z" fill="white"/>
<path d="M205.623 111.744V127.529H203.953V111.744H205.623ZM193.125 118.441C193.125 115.075 194.821 112.931 197.203 112.922C199.541 112.931 201.264 115.075 201.264 118.441C201.264 121.843 199.541 123.987 197.203 123.979C194.821 123.987 193.125 121.843 193.125 118.441ZM194.742 118.441C194.733 120.946 195.735 122.484 197.203 122.484C198.645 122.484 199.646 120.946 199.646 118.441C199.646 115.972 198.645 114.425 197.203 114.416C195.735 114.425 194.733 115.972 194.742 118.441ZM213.604 115.752C213.586 118.538 215.212 121.395 217.559 122.537L216.521 123.873C214.808 122.977 213.48 121.219 212.786 119.118C212.083 121.351 210.703 123.24 208.91 124.172L207.873 122.818C210.29 121.658 211.925 118.635 211.934 115.752V113.062H213.604V115.752ZM218.736 127.494V111.744H220.406V118.02H222.938V119.443H220.406V127.494H218.736ZM236.719 111.744V127.494H235.049V111.744H236.719ZM223.781 123.205C225.082 123.196 226.559 123.188 228.105 123.152V121.57C226.269 121.324 225.073 120.243 225.082 118.705C225.073 116.93 226.62 115.761 228.896 115.752C231.199 115.761 232.772 116.93 232.781 118.705C232.772 120.226 231.586 121.298 229.758 121.562V123.091C231.217 123.021 232.693 122.915 234.082 122.73L234.205 123.979C230.707 124.559 226.893 124.603 224.01 124.594L223.781 123.205ZM224.115 114.961V113.625H228.105V111.779H229.775V113.625H233.73V114.961H224.115ZM226.664 118.705C226.646 119.707 227.578 120.331 228.896 120.322C230.259 120.331 231.182 119.707 231.182 118.705C231.182 117.694 230.259 117.053 228.896 117.053C227.578 117.053 226.646 117.694 226.664 118.705Z" fill="white"/>
<rect x="113" y="102" width="206" height="56" rx="16" fill="#FF7C32"/>
<path d="M181.891 130.27V132.678C183.209 132.599 184.527 132.476 185.775 132.291L185.951 133.926C182.4 134.603 178.604 134.638 175.809 134.646L175.545 132.836C176.749 132.836 178.164 132.827 179.658 132.783V130.27H181.891ZM175.861 129.074C178.278 128.433 179.456 126.938 179.605 125.312H176.371V123.502H179.658V121.762H181.891V123.502H185.195V125.312H181.926C182.075 126.859 183.271 128.31 185.688 128.898L184.668 130.639C182.796 130.164 181.504 129.127 180.774 127.8C180.08 129.197 178.806 130.278 176.916 130.762L175.861 129.074ZM186.689 137.652V121.621H188.922V137.652H186.689ZM204.215 123.01V124.521C204.206 126.525 204.206 128.775 203.564 132.168L201.314 131.939C201.93 128.916 201.956 126.666 201.965 124.785H192.543V123.01H204.215ZM191.031 135.666V133.838H196.252V128.336H198.484V133.838H205.621V135.666H191.031ZM224.219 121.639V130.85H221.986V129.285H218.383V127.492H221.986V125.963H218.55C217.548 128.494 215.271 130.243 211.756 131.201L210.877 129.426C214.551 128.468 216.361 126.701 216.678 124.504H211.738V122.711H219.121C219.121 123.229 219.086 123.73 219.007 124.205H221.986V121.639H224.219ZM213.426 134.277C213.417 132.3 215.605 131.052 218.893 131.043C222.136 131.052 224.333 132.3 224.342 134.277C224.333 136.281 222.136 137.547 218.893 137.547C215.605 137.547 213.417 136.281 213.426 134.277ZM215.658 134.277C215.658 135.271 216.862 135.771 218.893 135.771C220.879 135.771 222.083 135.271 222.092 134.277C222.083 133.293 220.879 132.783 218.893 132.801C216.862 132.783 215.658 133.293 215.658 134.277ZM230.758 122.482C232.032 122.474 233.148 122.948 233.913 123.73H237.543V121.621H239.775V130.99H237.543V129.074H233.896C233.131 129.848 232.023 130.313 230.758 130.305C228.332 130.313 226.486 128.661 226.504 126.402C226.486 124.117 228.332 122.474 230.758 122.482ZM228.631 126.402C228.622 127.633 229.51 128.415 230.758 128.406C231.962 128.415 232.841 127.633 232.85 126.402C232.841 125.128 231.962 124.39 230.758 124.398C229.51 124.39 228.622 125.128 228.631 126.402ZM228.807 134.471C228.807 132.484 230.925 131.315 234.309 131.324C237.692 131.315 239.819 132.484 239.828 134.471C239.819 136.457 237.692 137.626 234.309 137.617C230.925 137.626 228.807 136.457 228.807 134.471ZM231.004 134.471C231.004 135.402 232.19 135.877 234.309 135.877C236.471 135.877 237.622 135.402 237.631 134.471C237.622 133.513 236.471 133.038 234.309 133.029C232.19 133.038 231.004 133.513 231.004 134.471ZM234.871 125.506C234.941 125.787 234.977 126.095 234.977 126.402C234.977 126.71 234.941 127 234.88 127.281H237.543V125.506H234.871ZM248.09 124.785C248.081 126.692 249.276 128.644 251.904 129.443L250.762 131.201C248.969 130.63 247.712 129.479 246.991 128.037C246.262 129.619 244.961 130.876 243.08 131.5L241.92 129.742C244.583 128.89 245.805 126.807 245.805 124.785V124.557H242.518V122.764H251.307V124.557H248.09V124.785ZM244.521 137.336V132.15H246.789V135.543H255.666V137.336H244.521ZM252.994 133.205V121.639H255.244V133.205H252.994Z" fill="white"/>
<rect x="339" y="102" width="884" height="56" rx="16" fill="#4B84F0"/>
<path d="M710.563 136V123.273H719.106V125.453H713.2V128.547H718.667V130.727H713.2V133.82H719.124V136H710.563ZM728.071 126.912C727.966 125.901 727.166 125.312 725.874 125.312C724.538 125.312 723.791 125.928 723.782 126.771C723.773 127.694 724.723 128.107 725.821 128.354L726.964 128.635C729.144 129.136 730.77 130.243 730.778 132.361C730.77 134.69 728.959 136.185 725.856 136.176C722.78 136.185 720.82 134.761 720.741 132.027H723.308C723.396 133.311 724.415 133.961 725.821 133.961C727.21 133.961 728.106 133.311 728.106 132.361C728.106 131.491 727.315 131.087 725.927 130.744L724.538 130.41C722.394 129.883 721.075 128.811 721.075 126.947C721.066 124.636 723.105 123.098 725.892 123.098C728.713 123.098 730.567 124.662 730.603 126.912H728.071ZM740.956 127.369C740.596 126.174 739.638 125.444 738.249 125.436C736.28 125.444 734.944 126.947 734.944 129.619C734.944 132.309 736.236 133.829 738.267 133.838C740.086 133.829 741.167 132.801 741.202 131.201H738.442V129.215H743.751V130.797C743.751 134.137 741.457 136.176 738.249 136.176C734.681 136.176 732.255 133.68 732.255 129.654C732.255 125.523 734.839 123.098 738.196 123.098C741.07 123.098 743.276 124.864 743.628 127.369H740.956ZM758.569 121.639V130.85H756.337V129.285H752.733V127.492H756.337V125.963H752.9C751.898 128.494 749.622 130.243 746.106 131.201L745.228 129.426C748.901 128.468 750.712 126.701 751.028 124.504H746.089V122.711H753.472C753.472 123.229 753.437 123.73 753.357 124.205H756.337V121.639H758.569ZM747.776 134.277C747.768 132.3 749.956 131.052 753.243 131.043C756.486 131.052 758.684 132.3 758.692 134.277C758.684 136.281 756.486 137.547 753.243 137.547C749.956 137.547 747.768 136.281 747.776 134.277ZM750.009 134.277C750.009 135.271 751.213 135.771 753.243 135.771C755.229 135.771 756.434 135.271 756.442 134.277C756.434 133.293 755.229 132.783 753.243 132.801C751.213 132.783 750.009 133.293 750.009 134.277ZM765.108 122.482C766.383 122.474 767.499 122.948 768.264 123.73H771.894V121.621H774.126V130.99H771.894V129.074H768.246C767.481 129.848 766.374 130.313 765.108 130.305C762.683 130.313 760.837 128.661 760.854 126.402C760.837 124.117 762.683 122.474 765.108 122.482ZM762.981 126.402C762.973 127.633 763.86 128.415 765.108 128.406C766.312 128.415 767.191 127.633 767.2 126.402C767.191 125.128 766.312 124.39 765.108 124.398C763.86 124.39 762.973 125.128 762.981 126.402ZM763.157 134.471C763.157 132.484 765.275 131.315 768.659 131.324C772.043 131.315 774.17 132.484 774.179 134.471C774.17 136.457 772.043 137.626 768.659 137.617C765.275 137.626 763.157 136.457 763.157 134.471ZM765.354 134.471C765.354 135.402 766.541 135.877 768.659 135.877C770.821 135.877 771.973 135.402 771.981 134.471C771.973 133.513 770.821 133.038 768.659 133.029C766.541 133.038 765.354 133.513 765.354 134.471ZM769.222 125.506C769.292 125.787 769.327 126.095 769.327 126.402C769.327 126.71 769.292 127 769.23 127.281H771.894V125.506H769.222ZM790.79 131.201V133.029H784.585V137.635H782.37V133.029H776.2V131.201H790.79ZM776.938 128.582C780.261 128.213 782.062 126.648 782.335 125.225H777.519V123.467H782.37V121.639H784.585V123.467H789.454V125.225H784.655C784.901 126.631 786.703 128.213 790.017 128.582L789.208 130.34C786.492 130.032 784.532 128.916 783.495 127.466C782.449 128.934 780.48 130.032 777.747 130.34L776.938 128.582ZM797.997 124.785C797.988 126.692 799.184 128.644 801.812 129.443L800.669 131.201C798.876 130.63 797.619 129.479 796.898 128.037C796.169 129.619 794.868 130.876 792.987 131.5L791.827 129.742C794.49 128.89 795.712 126.807 795.712 124.785V124.557H792.425V122.764H801.214V124.557H797.997V124.785ZM794.429 137.336V132.15H796.696V135.543H805.573V137.336H794.429ZM802.901 133.205V121.639H805.151V133.205H802.901ZM812.534 122.289C814.978 122.271 816.753 123.669 816.753 125.682C816.753 127.677 814.978 129.092 812.534 129.074C810.1 129.092 808.324 127.677 808.333 125.682C808.324 123.669 810.1 122.271 812.534 122.289ZM807.349 130.059C810.188 130.05 814.204 129.997 817.614 129.479L817.755 131.131C816.437 131.395 815.083 131.562 813.747 131.667V137.143H811.515V131.799C810.108 131.86 808.781 131.869 807.63 131.887L807.349 130.059ZM810.495 125.682C810.486 126.684 811.339 127.264 812.534 127.246C813.765 127.264 814.626 126.684 814.626 125.682C814.626 124.662 813.765 124.073 812.534 124.082C811.339 124.073 810.486 124.662 810.495 125.682ZM818.581 137.617V121.639H820.796V137.617H818.581ZM836.423 121.639V133.715H834.173V132.449H831.114V130.92H834.173V121.639H836.423ZM822.817 128.723C825.744 128.705 829.699 128.661 833.083 128.248L833.206 129.848C831.94 130.059 830.631 130.208 829.339 130.305V133.346H827.089V135.543H836.774V137.336H824.856V132.555H827.089V130.437C825.656 130.489 824.294 130.498 823.081 130.498L822.817 128.723ZM823.995 125.049C823.995 123.344 825.639 122.175 828.021 122.184C830.341 122.175 832.002 123.344 832.011 125.049C832.002 126.763 830.341 127.87 828.021 127.861C825.639 127.87 823.995 126.763 823.995 125.049ZM826.122 125.049C826.113 125.822 826.878 126.253 828.021 126.244C829.093 126.253 829.866 125.822 829.884 125.049C829.866 124.258 829.093 123.818 828.021 123.818C826.878 123.818 826.113 124.258 826.122 125.049ZM851.874 121.621V137.617H849.642V121.621H851.874ZM838.497 133.1C839.719 133.091 841.116 133.091 842.575 133.056V131.702C840.826 131.386 839.684 130.296 839.692 128.793C839.684 127.009 841.31 125.787 843.665 125.787C846.038 125.787 847.69 127.009 847.69 128.793C847.69 130.287 846.548 131.377 844.79 131.702V132.977C846.135 132.915 847.479 132.81 848.763 132.643L848.921 134.295C845.414 134.901 841.644 134.937 838.796 134.928L838.497 133.1ZM838.813 125.154V123.396H842.575V121.691H844.808V123.396H848.534V125.154H838.813ZM841.819 128.793C841.811 129.637 842.575 130.094 843.665 130.094C844.79 130.094 845.546 129.637 845.546 128.793C845.546 127.967 844.79 127.501 843.665 127.492C842.575 127.501 841.811 127.967 841.819 128.793Z" fill="white"/>
<rect x="339.5" y="170.5" width="99" height="109" rx="15.5" fill="white"/>
<path d="M373.969 194.266V208.391H372.312V201.188H370.719V207.672H369.125V194.531H370.719V199.797H372.312V194.266H373.969ZM362.25 205.094V195.938H367.531V197.344H364V203.625C365.531 203.609 366.797 203.531 368.234 203.266L368.359 204.688C366.648 205.031 365.172 205.078 363.203 205.094H362.25ZM388.547 205.359V206.766H375.641V205.359H378.984V202.453H376.75V201.047H378.734V196.859H376.703V195.469H387.422V196.859H385.359V201.047H387.375V202.453H385.141V205.359H388.547ZM380.469 201.047H383.641V196.859H380.469V201.047ZM380.719 205.359H383.406V202.453H380.719V205.359ZM401.219 194.266V208.406H399.469V194.266H401.219ZM389.922 200.281C389.914 197.234 391.469 195.297 393.609 195.297C395.727 195.297 397.289 197.234 397.297 200.281C397.289 203.352 395.727 205.281 393.609 205.281C391.469 205.281 389.914 203.352 389.922 200.281ZM391.594 200.281C391.594 202.453 392.414 203.711 393.609 203.719C394.797 203.711 395.609 202.453 395.609 200.281C395.609 198.125 394.797 196.859 393.609 196.859C392.414 196.859 391.594 198.125 391.594 200.281ZM408.344 197.656C408.328 200.18 409.594 202.727 411.781 203.781L410.719 205.172C409.188 204.398 408.086 202.906 407.484 201.109C406.867 203.031 405.711 204.625 404.094 205.438L403.031 204.047C405.305 202.969 406.602 200.266 406.609 197.656V195.406H408.344V197.656ZM412.625 208.391V194.266H414.359V199.797H416.531V201.281H414.359V208.391H412.625ZM352.75 226.688C352.75 223.75 353.625 221.297 355.094 219.203H356.969C355.891 220.758 354.812 223.891 354.812 226.688C354.812 229.484 355.891 232.625 356.969 234.188H355.094C353.625 232.078 352.75 229.633 352.75 226.688ZM369.656 218.266V232.406H367.938V218.266H369.656ZM358.656 220.906V219.5H365.312V224.797H360.453V227.641C362.68 227.625 364.594 227.508 366.797 227.141L366.953 228.562C364.555 228.977 362.445 229.07 359.906 229.062H358.672V223.422H363.547V220.906H358.656ZM379.016 220.203C379.016 222.383 381.148 224.578 384.109 225.094L383.328 226.547C380.961 226.055 379.023 224.617 378.102 222.719C377.172 224.602 375.234 226.047 372.875 226.547L372.109 225.094C375.023 224.562 377.164 222.375 377.172 220.203V219.156H379.016V220.203ZM371.719 230.594V229.156H384.625V230.594H371.719ZM397 219.578V221.266C397 223.32 397 225.258 396.375 228.25L394.641 228.094C394.93 226.859 395.086 225.773 395.18 224.773L386.859 225.203L386.625 223.797L395.258 223.469C395.289 222.711 395.297 221.984 395.297 221.266V220.984H387.047V219.578H397ZM385.547 230.594V229.172H398.422V230.594H385.547ZM407.266 219.312V220.156C407.25 221.117 407.25 222.523 406.922 224.312L405.203 224.156C405.484 222.703 405.539 221.617 405.555 220.75H400.062V219.312H407.266ZM399.219 225.438C400.055 225.43 400.992 225.422 401.984 225.406V222.531H403.703V225.352C405.164 225.289 406.664 225.18 408.031 224.984L408.125 226.234C405.188 226.766 401.852 226.82 399.375 226.828L399.219 225.438ZM401.328 232.109V227.906H403.078V230.703H411.094V232.109H401.328ZM408.859 228.844V218.266H410.641V222.672H412.469V224.125H410.641V228.844H408.859ZM424.969 218.266V232.406H423.25V218.266H424.969ZM413.969 220.906V219.5H420.625V224.797H415.766V227.641C417.992 227.625 419.906 227.508 422.109 227.141L422.266 228.562C419.867 228.977 417.758 229.07 415.219 229.062H413.984V223.422H418.859V220.906H413.969ZM370.094 245.438C370.094 246.93 371 248.406 372.781 249.016L372 250.328C370.703 249.852 369.812 248.961 369.305 247.875C368.812 249.062 367.914 250.039 366.578 250.562L365.766 249.281C367.555 248.578 368.438 247.039 368.453 245.438V245.328H366.125V243.969H368.453V242.422H370.094V243.969H372.391V245.328H370.094V245.438ZM368.141 252.969V251.562H377.812V256.391H376.078V252.969H368.141ZM373.156 250.859V242.516H374.797V245.906H376.156V242.281H377.812V250.922H376.156V247.312H374.797V250.859H373.156ZM391.328 242.281V250.281H389.578V242.281H391.328ZM379.812 246.328C379.812 244.336 381.438 242.961 383.625 242.953C385.805 242.961 387.43 244.336 387.422 246.328C387.43 248.273 385.805 249.672 383.625 249.672C381.438 249.672 379.812 248.273 379.812 246.328ZM381.516 246.328C381.508 247.469 382.391 248.211 383.625 248.203C384.836 248.211 385.719 247.469 385.719 246.328C385.719 245.156 384.836 244.422 383.625 244.422C382.391 244.422 381.508 245.156 381.516 246.328ZM381.953 256.219V250.969H391.328V256.219H381.953ZM383.672 254.812H389.625V252.344H383.672V254.812ZM398.453 246.281C398.445 248.461 399.758 250.945 401.984 251.984L401.016 253.359C399.422 252.609 398.242 251.094 397.609 249.328C396.969 251.266 395.734 252.922 394.109 253.703L393.094 252.344C395.344 251.273 396.711 248.633 396.719 246.281V245.094H393.641V243.656H401.406V245.094H398.453V246.281ZM402.719 256.391V242.266H404.453V247.766H406.625V249.219H404.453V256.391H402.719ZM411.422 250.688C411.422 253.633 410.547 256.078 409.078 258.188H407.203C408.281 256.625 409.359 253.484 409.359 250.688C409.359 247.891 408.281 244.758 407.203 243.203H409.078C410.547 245.297 411.422 247.75 411.422 250.688Z" fill="#222222"/>
<rect x="339.5" y="170.5" width="99" height="109" rx="15.5" stroke="#E1E6EF"/>
<rect x="451.5" y="170.5" width="99" height="109" rx="15.5" fill="white"/>
<path d="M485.641 206.281V214.531H483.906V212.969H480.547V211.562H483.906V210.047H480.68C479.789 212.289 477.727 213.859 474.656 214.719L473.953 213.344C477.258 212.453 479.023 210.773 479.289 208.672H474.703V207.266H481.188C481.188 207.758 481.148 208.227 481.07 208.672H483.906V206.281H485.641ZM476.172 217.5C476.172 215.766 478.07 214.695 480.969 214.688C483.828 214.695 485.734 215.766 485.734 217.5C485.734 219.234 483.828 220.32 480.969 220.312C478.07 220.32 476.172 219.234 476.172 217.5ZM477.906 217.5C477.906 218.43 479.07 218.938 480.969 218.938C482.836 218.938 483.992 218.43 484 217.5C483.992 216.555 482.836 216.047 480.969 216.047C479.07 216.047 477.906 216.555 477.906 217.5ZM491.562 207.062C492.703 207.055 493.695 207.477 494.359 208.188H497.734V206.266H499.469V214.578H497.734V212.781H494.352C493.68 213.477 492.695 213.898 491.562 213.891C489.43 213.898 487.828 212.469 487.828 210.484C487.828 208.484 489.43 207.055 491.562 207.062ZM489.484 210.484C489.484 211.641 490.352 212.422 491.562 212.422C492.734 212.422 493.602 211.641 493.609 210.484C493.602 209.289 492.734 208.547 491.562 208.547C490.352 208.547 489.484 209.289 489.484 210.484ZM489.891 217.625C489.875 215.883 491.727 214.867 494.688 214.875C497.656 214.867 499.508 215.883 499.516 217.625C499.508 219.359 497.656 220.375 494.688 220.375C491.727 220.375 489.875 219.359 489.891 217.625ZM491.594 217.625C491.578 218.523 492.727 219.008 494.688 219.016C496.688 219.008 497.812 218.523 497.812 217.625C497.812 216.703 496.688 216.211 494.688 216.203C492.727 216.211 491.578 216.703 491.594 217.625ZM495.141 209.578C495.219 209.867 495.266 210.164 495.266 210.484C495.266 210.797 495.219 211.094 495.148 211.375H497.734V209.578H495.141ZM513.297 206.281V216.594H511.562V211.422H509.062V210.016H511.562V206.281H513.297ZM501.438 213.547C503.688 212.805 504.891 210.961 504.891 209.078V208.703H501.953V207.297H509.578V208.703H506.656V209.094C506.656 210.789 507.797 212.547 509.984 213.266L509.109 214.656C507.531 214.117 506.414 213.039 505.797 211.703C505.18 213.188 504 214.375 502.328 214.953L501.438 213.547ZM504.031 220.109V215.688H505.766V218.703H513.656V220.109H504.031ZM528.406 208.328V209.75H526.438V211.328H528.406V212.75H526.438V214.859H524.703V206.281H526.438V208.328H528.406ZM515.828 208.484V207.078H522.281V211.266H517.578V212.844C519.969 212.828 521.625 212.75 523.547 212.422L523.734 213.812C521.633 214.18 519.789 214.273 517 214.266H515.844V209.922H520.578V208.484H515.828ZM517.031 216.922V215.531H526.438V220.375H524.703V216.922H517.031ZM499.375 230.266V237.469H497.656V230.266H499.375ZM487.625 236.094C489.914 235.367 491.117 233.555 491.109 231.703V230.609H492.906V231.703C492.898 233.5 494.094 235.18 496.328 235.859L495.484 237.203C493.844 236.695 492.672 235.648 492.031 234.305C491.391 235.766 490.188 236.914 488.5 237.453L487.625 236.094ZM490.031 239.469V238.125H499.406V241.797H491.766V242.891H499.828V244.266H490.062V240.5H497.672V239.469H490.031ZM506.531 232.812C506.531 234.539 507.648 236.164 509.859 236.844L509.031 238.203C507.445 237.703 506.32 236.695 505.703 235.422C505.078 236.906 503.891 238.086 502.188 238.656L501.312 237.281C503.586 236.539 504.781 234.703 504.781 232.828V232.656H501.797V231.25H509.469V232.656H506.531V232.812ZM503.234 241.672C503.234 239.984 505.062 239 508.016 239C510.945 239 512.742 239.984 512.75 241.672C512.742 243.375 510.945 244.375 508.016 244.375C505.062 244.375 503.234 243.375 503.234 241.672ZM504.969 241.672C504.969 242.547 506.078 243.008 508.016 243.016C509.945 243.008 511.031 242.547 511.031 241.672C511.031 240.812 509.945 240.359 508.016 240.359C506.078 240.359 504.969 240.812 504.969 241.672ZM510.875 238.688V230.266H512.609V233.656H514.578V235.078H512.609V238.688H510.875Z" fill="#222222"/>
<rect x="451.5" y="170.5" width="99" height="109" rx="15.5" stroke="#E1E6EF"/>
<rect x="563.5" y="170.5" width="99" height="109" rx="15.5" fill="white"/>
<path d="M598.062 218.266V232.391H596.406V225.234H594.953V231.703H593.312V218.516H594.953V223.797H596.406V218.266H598.062ZM585.578 228.281C587.672 227.094 588.516 224.633 588.516 221.875V221.203H586V219.812H592.516V221.203H590.203V221.875C590.203 224.383 591.047 226.703 593.141 227.781L592.125 229.109C590.781 228.383 589.898 227.141 589.398 225.609C588.922 227.367 588.039 228.781 586.641 229.609L585.578 228.281ZM612.531 226.266V227.672H606.906V232.375H605.188V227.672H599.625V226.266H612.531ZM601.203 224.609V218.984H610.953V224.609H601.203ZM602.906 223.25H609.219V220.375H602.906V223.25ZM625.203 218.266V225.469H623.484V218.266H625.203ZM613.453 224.094C615.742 223.367 616.945 221.555 616.938 219.703V218.609H618.734V219.703C618.727 221.5 619.922 223.18 622.156 223.859L621.312 225.203C619.672 224.695 618.5 223.648 617.859 222.305C617.219 223.766 616.016 224.914 614.328 225.453L613.453 224.094ZM615.859 227.469V226.125H625.234V229.797H617.594V230.891H625.656V232.266H615.891V228.5H623.5V227.469H615.859ZM632.359 220.812C632.359 222.539 633.477 224.164 635.688 224.844L634.859 226.203C633.273 225.703 632.148 224.695 631.531 223.422C630.906 224.906 629.719 226.086 628.016 226.656L627.141 225.281C629.414 224.539 630.609 222.703 630.609 220.828V220.656H627.625V219.25H635.297V220.656H632.359V220.812ZM629.062 229.672C629.062 227.984 630.891 227 633.844 227C636.773 227 638.57 227.984 638.578 229.672C638.57 231.375 636.773 232.375 633.844 232.375C630.891 232.375 629.062 231.375 629.062 229.672ZM630.797 229.672C630.797 230.547 631.906 231.008 633.844 231.016C635.773 231.008 636.859 230.547 636.859 229.672C636.859 228.812 635.773 228.359 633.844 228.359C631.906 228.359 630.797 228.812 630.797 229.672ZM636.703 226.688V218.266H638.438V221.656H640.406V223.078H638.438V226.688H636.703Z" fill="#222222"/>
<rect x="563.5" y="170.5" width="99" height="109" rx="15.5" stroke="#E1E6EF"/>
<rect x="675.5" y="170.5" width="99" height="109" rx="15.5" fill="white"/>
<path d="M703.141 222.281C703.141 224.594 704.5 227.031 706.781 227.984L705.828 229.359C704.156 228.633 702.938 227.156 702.289 225.359C701.641 227.297 700.398 228.922 698.75 229.703L697.75 228.344C699.977 227.312 701.367 224.68 701.375 222.281V221.094H698.266V219.656H706.234V221.094H703.141V222.281ZM707.812 232.391V218.266H709.562V232.391H707.812ZM723.484 218.281V228.969H721.734V227.734H718.969V226.516H721.734V218.281H723.484ZM711.578 224.625C714.18 224.609 717.688 224.586 720.688 224.203L720.781 225.453C719.617 225.648 718.414 225.773 717.219 225.859V228.578H715.484V225.953C714.164 226.008 712.906 226.016 711.797 226.016L711.578 224.625ZM712.656 221.297C712.656 219.805 714.094 218.789 716.188 218.797C718.242 218.789 719.688 219.805 719.703 221.297C719.688 222.812 718.242 223.773 716.188 223.781C714.094 223.773 712.656 222.812 712.656 221.297ZM713.453 232.109V227.938H715.188V230.703H723.812V232.109H713.453ZM714.297 221.297C714.297 222.062 715.055 222.508 716.188 222.516C717.266 222.508 718.039 222.062 718.047 221.297C718.039 220.531 717.266 220.07 716.188 220.078C715.055 220.07 714.297 220.531 714.297 221.297ZM737.203 218.266V225.469H735.484V218.266H737.203ZM725.453 224.094C727.742 223.367 728.945 221.555 728.938 219.703V218.609H730.734V219.703C730.727 221.5 731.922 223.18 734.156 223.859L733.312 225.203C731.672 224.695 730.5 223.648 729.859 222.305C729.219 223.766 728.016 224.914 726.328 225.453L725.453 224.094ZM727.859 227.469V226.125H737.234V229.797H729.594V230.891H737.656V232.266H727.891V228.5H735.5V227.469H727.859ZM744.359 220.812C744.359 222.539 745.477 224.164 747.688 224.844L746.859 226.203C745.273 225.703 744.148 224.695 743.531 223.422C742.906 224.906 741.719 226.086 740.016 226.656L739.141 225.281C741.414 224.539 742.609 222.703 742.609 220.828V220.656H739.625V219.25H747.297V220.656H744.359V220.812ZM741.062 229.672C741.062 227.984 742.891 227 745.844 227C748.773 227 750.57 227.984 750.578 229.672C750.57 231.375 748.773 232.375 745.844 232.375C742.891 232.375 741.062 231.375 741.062 229.672ZM742.797 229.672C742.797 230.547 743.906 231.008 745.844 231.016C747.773 231.008 748.859 230.547 748.859 229.672C748.859 228.812 747.773 228.359 745.844 228.359C743.906 228.359 742.797 228.812 742.797 229.672ZM748.703 226.688V218.266H750.438V221.656H752.406V223.078H750.438V226.688H748.703Z" fill="#222222"/>
<rect x="675.5" y="170.5" width="99" height="109" rx="15.5" stroke="#E1E6EF"/>
<rect x="787.5" y="170.5" width="99" height="109" rx="15.5" fill="white"/>
<path d="M821.109 207.125V208.391C821.102 209.711 821.102 211.156 820.734 213.156H822.688V214.562H817.078V220.406H815.328V214.562H809.812V213.156H818.969C819.359 211.234 819.375 209.789 819.375 208.531H811.328V207.125H821.109ZM835.828 206.266V220.391H834.156V213.156H832.656V219.703H831.016V206.516H832.656V211.719H834.156V206.266H835.828ZM824.078 216.75V207.797H829.625V216.75H824.078ZM825.703 215.375H828V209.172H825.703V215.375ZM848.609 206.266V209.547H850.578V210.984H848.609V214.219H846.875V206.266H848.609ZM838.062 213.594V207.172H844.344V208.578H839.781V212.188C842.438 212.18 843.914 212.086 845.594 211.75L845.781 213.125C843.93 213.531 842.289 213.594 839.203 213.594H838.062ZM839.484 220.203V214.859H848.609V220.203H839.484ZM841.203 218.828H846.891V216.25H841.203V218.828ZM862.453 206.266V209.734H864.406V211.156H862.453V214.516H860.703V206.266H862.453ZM851.844 213.625V207.266H858.172V208.672H853.562V212.219C856.266 212.211 857.773 212.125 859.438 211.781L859.609 213.172C857.781 213.562 856.117 213.625 852.984 213.625H851.844ZM853.062 217.562C853.062 215.812 854.922 214.781 857.844 214.781C860.742 214.781 862.57 215.812 862.578 217.562C862.57 219.344 860.742 220.375 857.844 220.375C854.922 220.375 853.062 219.344 853.062 217.562ZM854.781 217.562C854.773 218.477 855.906 218.984 857.844 218.984C859.742 218.984 860.883 218.477 860.891 217.562C860.883 216.664 859.742 216.164 857.844 216.172C855.906 216.164 854.773 216.664 854.781 217.562ZM835.406 230.281V238.281H833.656V230.281H835.406ZM823.891 234.328C823.891 232.336 825.516 230.961 827.703 230.953C829.883 230.961 831.508 232.336 831.5 234.328C831.508 236.273 829.883 237.672 827.703 237.672C825.516 237.672 823.891 236.273 823.891 234.328ZM825.594 234.328C825.586 235.469 826.469 236.211 827.703 236.203C828.914 236.211 829.797 235.469 829.797 234.328C829.797 233.156 828.914 232.422 827.703 232.422C826.469 232.422 825.586 233.156 825.594 234.328ZM826.031 244.219V238.969H835.406V244.219H826.031ZM827.75 242.812H833.703V240.344H827.75V242.812ZM849.312 230.281V240.969H847.562V239.734H844.797V238.516H847.562V230.281H849.312ZM837.406 236.625C840.008 236.609 843.516 236.586 846.516 236.203L846.609 237.453C845.445 237.648 844.242 237.773 843.047 237.859V240.578H841.312V237.953C839.992 238.008 838.734 238.016 837.625 238.016L837.406 236.625ZM838.484 233.297C838.484 231.805 839.922 230.789 842.016 230.797C844.07 230.789 845.516 231.805 845.531 233.297C845.516 234.812 844.07 235.773 842.016 235.781C839.922 235.773 838.484 234.812 838.484 233.297ZM839.281 244.109V239.938H841.016V242.703H849.641V244.109H839.281ZM840.125 233.297C840.125 234.062 840.883 234.508 842.016 234.516C843.094 234.508 843.867 234.062 843.875 233.297C843.867 232.531 843.094 232.07 842.016 232.078C840.883 232.07 840.125 232.531 840.125 233.297Z" fill="#222222"/>
<rect x="787.5" y="170.5" width="99" height="109" rx="15.5" stroke="#E1E6EF"/>
<rect x="899.5" y="170.5" width="99" height="109" rx="15.5" fill="white"/>
<path d="M928.234 216C931.352 216.008 933.117 216.773 933.125 218.203C933.117 219.633 931.352 220.375 928.234 220.375C925.078 220.375 923.312 219.633 923.312 218.203C923.312 216.773 925.078 216.008 928.234 216ZM921.812 215.344V213.984H927.375V213.133C924.922 213.008 923.547 212.328 923.547 211.141C923.547 209.805 925.242 209.117 928.234 209.109C931.258 209.117 932.93 209.805 932.938 211.141C932.93 212.328 931.578 213.008 929.109 213.133V213.984H934.688V215.344H921.812ZM922.453 208.672V207.344H927.375V206.125H929.109V207.344H933.984V208.672H922.453ZM925.094 218.203C925.094 218.82 926.133 219.109 928.234 219.094C930.312 219.109 931.367 218.82 931.375 218.203C931.367 217.586 930.312 217.281 928.234 217.281C926.133 217.281 925.094 217.586 925.094 218.203ZM925.406 211.141C925.406 211.68 926.367 211.961 928.234 211.969C930.133 211.961 931.07 211.68 931.078 211.141C931.07 210.562 930.133 210.297 928.234 210.297C926.367 210.297 925.406 210.562 925.406 211.141ZM948.547 217.266V218.688H935.641V217.266H941.203V214.516H937.062V207.203H938.797V209.516H945.344V207.203H947.078V214.516H942.922V217.266H948.547ZM938.797 213.109H945.344V210.906H938.797V213.109ZM960.609 206.266V209.547H962.578V210.984H960.609V214.219H958.875V206.266H960.609ZM950.062 213.594V207.172H956.344V208.578H951.781V212.188C954.438 212.18 955.914 212.086 957.594 211.75L957.781 213.125C955.93 213.531 954.289 213.594 951.203 213.594H950.062ZM951.484 220.203V214.859H960.609V220.203H951.484ZM953.203 218.828H958.891V216.25H953.203V218.828ZM974.453 206.266V209.734H976.406V211.156H974.453V214.516H972.703V206.266H974.453ZM963.844 213.625V207.266H970.172V208.672H965.562V212.219C968.266 212.211 969.773 212.125 971.438 211.781L971.609 213.172C969.781 213.562 968.117 213.625 964.984 213.625H963.844ZM965.062 217.562C965.062 215.812 966.922 214.781 969.844 214.781C972.742 214.781 974.57 215.812 974.578 217.562C974.57 219.344 972.742 220.375 969.844 220.375C966.922 220.375 965.062 219.344 965.062 217.562ZM966.781 217.562C966.773 218.477 967.906 218.984 969.844 218.984C971.742 218.984 972.883 218.477 972.891 217.562C972.883 216.664 971.742 216.164 969.844 216.172C967.906 216.164 966.773 216.664 966.781 217.562ZM947.406 230.281V238.281H945.656V230.281H947.406ZM935.891 234.328C935.891 232.336 937.516 230.961 939.703 230.953C941.883 230.961 943.508 232.336 943.5 234.328C943.508 236.273 941.883 237.672 939.703 237.672C937.516 237.672 935.891 236.273 935.891 234.328ZM937.594 234.328C937.586 235.469 938.469 236.211 939.703 236.203C940.914 236.211 941.797 235.469 941.797 234.328C941.797 233.156 940.914 232.422 939.703 232.422C938.469 232.422 937.586 233.156 937.594 234.328ZM938.031 244.219V238.969H947.406V244.219H938.031ZM939.75 242.812H945.703V240.344H939.75V242.812ZM961.312 230.281V240.969H959.562V239.734H956.797V238.516H959.562V230.281H961.312ZM949.406 236.625C952.008 236.609 955.516 236.586 958.516 236.203L958.609 237.453C957.445 237.648 956.242 237.773 955.047 237.859V240.578H953.312V237.953C951.992 238.008 950.734 238.016 949.625 238.016L949.406 236.625ZM950.484 233.297C950.484 231.805 951.922 230.789 954.016 230.797C956.07 230.789 957.516 231.805 957.531 233.297C957.516 234.812 956.07 235.773 954.016 235.781C951.922 235.773 950.484 234.812 950.484 233.297ZM951.281 244.109V239.938H953.016V242.703H961.641V244.109H951.281ZM952.125 233.297C952.125 234.062 952.883 234.508 954.016 234.516C955.094 234.508 955.867 234.062 955.875 233.297C955.867 232.531 955.094 232.07 954.016 232.078C952.883 232.07 952.125 232.531 952.125 233.297Z" fill="#222222"/>
<rect x="899.5" y="170.5" width="99" height="109" rx="15.5" stroke="#E1E6EF"/>
<rect x="1011.5" y="170.5" width="99" height="109" rx="15.5" fill="white"/>
<path d="M1043.05 218.266V221.672H1045.02V223.125H1043.05V226.5H1041.32V218.266H1043.05ZM1031.77 225.094C1035.07 224.242 1036.95 222.555 1037.25 220.5H1032.48V219.094H1039.12C1039.11 222.797 1036.7 225.352 1032.49 226.422L1031.77 225.094ZM1033.65 228.484V227.094H1043.05V232.391H1041.32V228.484H1033.65ZM1055.9 227.094C1058.97 227.102 1060.91 228.07 1060.91 229.75C1060.91 231.391 1058.97 232.375 1055.9 232.375C1052.86 232.375 1050.9 231.391 1050.9 229.75C1050.9 228.07 1052.86 227.102 1055.9 227.094ZM1049.57 226.078V224.672H1054.54V222.109H1056.26V224.672H1062.38V226.078H1049.57ZM1051.04 220.312V218.938H1060.82V220.109C1060.83 221.227 1060.83 222.414 1060.43 223.859L1058.71 223.703C1059.06 222.336 1059.09 221.336 1059.09 220.312H1051.04ZM1052.65 229.75C1052.63 230.578 1053.86 231.031 1055.9 231.031C1057.95 231.031 1059.18 230.578 1059.2 229.75C1059.18 228.891 1057.95 228.406 1055.9 228.406C1053.86 228.406 1052.63 228.891 1052.65 229.75ZM1068.43 220.812C1068.43 222.539 1069.55 224.164 1071.76 224.844L1070.93 226.203C1069.34 225.703 1068.22 224.695 1067.6 223.422C1066.98 224.906 1065.79 226.086 1064.09 226.656L1063.21 225.281C1065.48 224.539 1066.68 222.703 1066.68 220.828V220.656H1063.7V219.25H1071.37V220.656H1068.43V220.812ZM1065.13 229.672C1065.13 227.984 1066.96 227 1069.91 227C1072.84 227 1074.64 227.984 1074.65 229.672C1074.64 231.375 1072.84 232.375 1069.91 232.375C1066.96 232.375 1065.13 231.375 1065.13 229.672ZM1066.87 229.672C1066.87 230.547 1067.98 231.008 1069.91 231.016C1071.84 231.008 1072.93 230.547 1072.93 229.672C1072.93 228.812 1071.84 228.359 1069.91 228.359C1067.98 228.359 1066.87 228.812 1066.87 229.672ZM1072.77 226.688V218.266H1074.51V221.656H1076.48V223.078H1074.51V226.688H1072.77ZM1082.26 220.812C1082.26 222.539 1083.38 224.164 1085.59 224.844L1084.76 226.203C1083.17 225.703 1082.05 224.695 1081.43 223.422C1080.8 224.906 1079.62 226.086 1077.91 226.656L1077.04 225.281C1079.31 224.539 1080.51 222.703 1080.51 220.828V220.656H1077.52V219.25H1085.2V220.656H1082.26V220.812ZM1078.96 229.672C1078.96 227.984 1080.79 227 1083.74 227C1086.67 227 1088.47 227.984 1088.48 229.672C1088.47 231.375 1086.67 232.375 1083.74 232.375C1080.79 232.375 1078.96 231.375 1078.96 229.672ZM1080.7 229.672C1080.7 230.547 1081.8 231.008 1083.74 231.016C1085.67 231.008 1086.76 230.547 1086.76 229.672C1086.76 228.812 1085.67 228.359 1083.74 228.359C1081.8 228.359 1080.7 228.812 1080.7 229.672ZM1086.6 226.688V218.266H1088.34V221.656H1090.3V223.078H1088.34V226.688H1086.6Z" fill="#222222"/>
<rect x="1011.5" y="170.5" width="99" height="109" rx="15.5" stroke="#E1E6EF"/>
<rect x="1123.5" y="170.5" width="99" height="109" rx="15.5" fill="white"/>
<path d="M1161.97 206.266V209.672H1163.94V211.125H1161.97V214.5H1160.23V206.266H1161.97ZM1150.69 213.094C1153.98 212.242 1155.87 210.555 1156.16 208.5H1151.39V207.094H1158.03C1158.02 210.797 1155.62 213.352 1151.41 214.422L1150.69 213.094ZM1152.56 216.484V215.094H1161.97V220.391H1160.23V216.484H1152.56ZM1173.5 209.656C1173.48 212.18 1174.75 214.727 1176.94 215.781L1175.88 217.172C1174.34 216.398 1173.24 214.906 1172.64 213.109C1172.02 215.031 1170.87 216.625 1169.25 217.438L1168.19 216.047C1170.46 214.969 1171.76 212.266 1171.77 209.656V207.406H1173.5V209.656ZM1177.78 220.391V206.266H1179.52V211.797H1181.69V213.281H1179.52V220.391H1177.78ZM1186.2 206.891C1188.03 206.883 1189.47 207.938 1189.82 209.484H1192.38V206.266H1194.11V213.844H1192.38V210.891H1189.84C1189.5 212.477 1188.05 213.547 1186.2 213.547C1184.04 213.547 1182.47 212.156 1182.47 210.203C1182.47 208.273 1184.04 206.883 1186.2 206.891ZM1184.12 210.203C1184.12 211.336 1184.98 212.086 1186.2 212.078C1187.39 212.086 1188.24 211.336 1188.25 210.203C1188.24 209.07 1187.39 208.336 1186.2 208.344C1184.98 208.336 1184.12 209.07 1184.12 210.203ZM1184.8 220.219V214.5H1186.52V216H1192.38V214.5H1194.11V220.219H1184.8ZM1186.52 218.812H1192.38V217.344H1186.52V218.812ZM1165.62 238.484V239.859H1159.99V244.391H1158.27V239.859H1152.71V238.484H1165.62ZM1154.27 237.016V230.828H1155.99V232.562H1162.3V230.828H1164.05V237.016H1154.27ZM1155.99 235.609H1162.3V233.938H1155.99V235.609ZM1179.45 237.328V238.719H1173.99V241.312H1172.27V238.719H1166.54V237.328H1179.45ZM1168.1 244.109V240.016H1169.84V242.703H1178.02V244.109H1168.1ZM1168.18 236.016V230.906H1177.79V236.016H1168.18ZM1169.87 234.656H1176.07V232.266H1169.87V234.656ZM1185.45 232.812C1185.45 234.539 1186.56 236.164 1188.77 236.844L1187.95 238.203C1186.36 237.703 1185.23 236.695 1184.62 235.422C1183.99 236.906 1182.8 238.086 1181.1 238.656L1180.23 237.281C1182.5 236.539 1183.7 234.703 1183.7 232.828V232.656H1180.71V231.25H1188.38V232.656H1185.45V232.812ZM1182.15 241.672C1182.15 239.984 1183.98 239 1186.93 239C1189.86 239 1191.66 239.984 1191.66 241.672C1191.66 243.375 1189.86 244.375 1186.93 244.375C1183.98 244.375 1182.15 243.375 1182.15 241.672ZM1183.88 241.672C1183.88 242.547 1184.99 243.008 1186.93 243.016C1188.86 243.008 1189.95 242.547 1189.95 241.672C1189.95 240.812 1188.86 240.359 1186.93 240.359C1184.99 240.359 1183.88 240.812 1183.88 241.672ZM1189.79 238.688V230.266H1191.52V233.656H1193.49V235.078H1191.52V238.688H1189.79Z" fill="#222222"/>
<rect x="1123.5" y="170.5" width="99" height="109" rx="15.5" stroke="#E1E6EF"/>
<rect x="441" y="226" width="3" height="8" rx="1.5" transform="rotate(-90 441 226)" fill="#C2CBE5"/>
<rect x="553" y="226" width="3" height="8" rx="1.5" transform="rotate(-90 553 226)" fill="#C2CBE5"/>
<rect x="665" y="226" width="3" height="8" rx="1.5" transform="rotate(-90 665 226)" fill="#C2CBE5"/>
<rect x="777" y="226" width="3" height="8" rx="1.5" transform="rotate(-90 777 226)" fill="#C2CBE5"/>
<rect x="889" y="226" width="3" height="8" rx="1.5" transform="rotate(-90 889 226)" fill="#C2CBE5"/>
<rect x="1001" y="226" width="3" height="8" rx="1.5" transform="rotate(-90 1001 226)" fill="#C2CBE5"/>
<rect x="1113" y="226" width="3" height="8" rx="1.5" transform="rotate(-90 1113 226)" fill="#C2CBE5"/>
</svg>
