<svg width="339" height="976" viewBox="0 0 339 976" fill="none" xmlns="http://www.w3.org/2000/svg">
<path d="M14.58 6.23V22.34L12.15 22.7V6.59L14.58 6.23ZM7.308 14.906V10.676C7.308 9.38 6.858 8.624 5.598 8.624C4.338 8.624 3.888 9.38 3.888 10.676V14.906C3.888 16.202 4.338 16.976 5.598 16.976C6.858 16.976 7.308 16.202 7.308 14.906ZM9.756 10.622V14.978C9.756 17.39 8.1 18.794 5.598 18.794C3.096 18.794 1.44 17.39 1.44 14.978V10.622C1.44 8.21 3.096 6.806 5.598 6.806C8.1 6.806 9.756 8.21 9.756 10.622ZM30.4588 6.23V12.386H33.0508L32.6908 14.402H30.4588V22.34L27.9928 22.7V6.59L30.4588 6.23ZM23.1328 7.058V11.792C23.1328 12.17 23.2408 12.566 23.4568 12.854C24.3928 14.114 25.8148 15.842 27.0388 17.21L25.5988 18.596C24.3388 17.264 22.8088 15.572 21.8908 14.348C20.8288 15.698 19.2808 17.606 18.0028 18.992L16.4908 17.678C17.7148 16.256 19.1548 14.528 20.2168 12.998C20.4328 12.692 20.6128 12.278 20.6128 11.9V7.418L23.1328 7.058ZM34.7816 12.782C34.7816 11.108 36.3836 9.758 38.8856 9.758C41.3876 9.758 42.9896 11.108 42.9896 12.782V13.358C42.9896 14.69 41.9636 15.824 40.2896 16.238V18.038C41.6036 17.966 43.0616 17.84 44.2316 17.642V19.424C41.6576 19.784 38.9036 19.892 36.1316 19.892H33.7556V18.092H37.7516V16.292C35.8976 15.95 34.7816 14.762 34.7816 13.358V12.782ZM44.8976 6.59L47.3276 6.23V22.34L44.8976 22.7V6.59ZM43.4936 9.398H34.0076V7.598H37.6436V6.41L40.1276 6.05V7.598H43.8536L43.4936 9.398ZM40.6496 12.944C40.6496 12.062 39.9296 11.468 38.8856 11.468C37.8416 11.468 37.1216 12.062 37.1216 12.944V13.196C37.1216 14.078 37.8416 14.672 38.8856 14.672C39.9296 14.672 40.6496 14.078 40.6496 13.196V12.944Z" fill="#282828"/>
<rect y="46" width="339" height="50" rx="8" fill="#1B4B66"/>
<path d="M143.878 72.752V70.816H140.998V69.216H143.878V67.696H141.414C140.31 70.08 137.526 72.048 134.918 72.832L133.878 71.44C137.062 70.56 139.606 67.984 139.606 66.304V66.08H134.71V64.48H141.91V65.584C141.91 65.76 141.894 65.936 141.878 66.096H143.878V64.08L146.054 63.76V72.432L143.878 72.752ZM142.774 72.848C144.518 72.848 146.102 73.552 146.102 75.712C146.102 77.888 144.518 78.592 142.774 78.592H139.35C137.542 78.592 135.926 77.888 135.926 75.712C135.926 73.552 137.542 72.848 139.35 72.848H142.774ZM142.566 74.432H139.526C138.662 74.432 138.07 74.784 138.07 75.712C138.07 76.656 138.662 77.008 139.526 77.008H142.566C143.366 77.008 143.958 76.656 143.958 75.712C143.958 74.784 143.366 74.432 142.566 74.432ZM158.44 72.608V70.48H155.96V69.968C155.336 71.152 153.944 71.776 152.424 71.776C150.36 71.776 148.536 70.624 148.536 68.48V67.536C148.536 65.392 150.36 64.24 152.424 64.24C153.944 64.24 155.336 64.864 155.96 66.064V65.216H158.44V64.08L160.6 63.76V72.288L158.44 72.608ZM157.336 72.848C159.08 72.848 160.664 73.552 160.664 75.712C160.664 77.888 159.08 78.592 157.336 78.592H153.912C152.104 78.592 150.488 77.888 150.488 75.712C150.488 73.552 152.104 72.848 153.912 72.848H157.336ZM157.128 74.432H154.088C153.224 74.432 152.632 74.784 152.632 75.712C152.632 76.656 153.224 77.008 154.088 77.008H157.128C157.928 77.008 158.52 76.656 158.52 75.712C158.52 74.784 157.928 74.432 157.128 74.432ZM154.152 68.416V67.6C154.152 66.48 153.4 65.84 152.424 65.84C151.448 65.84 150.696 66.48 150.696 67.6V68.416C150.696 69.536 151.448 70.176 152.424 70.176C153.4 70.176 154.152 69.536 154.152 68.416ZM156.312 68.48C156.312 68.624 156.296 68.752 156.28 68.88H158.44V66.8H156.232C156.28 67.04 156.312 67.28 156.312 67.536V68.48ZM175.163 63.76V78.24L173.003 78.56V64.08L175.163 63.76ZM168.587 73.344V77.776L166.411 78.096V73.408H163.099V71.808H165.979C167.915 71.808 170.459 71.696 172.411 71.344V72.976C171.211 73.168 169.867 73.28 168.587 73.344ZM171.467 67.232V67.728C171.467 69.776 169.675 70.88 167.691 70.88C165.707 70.88 163.915 69.776 163.915 67.728V67.232C163.915 65.184 165.707 64.08 167.691 64.08C169.675 64.08 171.467 65.184 171.467 67.232ZM169.307 67.632V67.328C169.307 66.272 168.587 65.68 167.691 65.68C166.795 65.68 166.075 66.272 166.075 67.328V67.632C166.075 68.688 166.795 69.28 167.691 69.28C168.587 69.28 169.307 68.688 169.307 67.632ZM185.741 67.088C185.741 68.944 184.077 69.984 182.189 69.984C180.301 69.984 178.637 68.944 178.637 67.088V66.736C178.637 64.88 180.301 63.84 182.189 63.84C184.077 63.84 185.741 64.88 185.741 66.736V67.088ZM187.565 74.816V73.872H184.285V72.352H187.565V64.08L189.725 63.76V74.496L187.565 74.816ZM189.821 78.336H180.317V74.72H182.525V76.736H190.141L189.821 78.336ZM183.053 71.984V74.336H180.861V72.08H177.661V70.544H181.037C182.605 70.544 184.909 70.4 186.973 69.984V71.552C185.757 71.776 184.429 71.904 183.053 71.984ZM183.645 67.072V66.752C183.645 65.872 182.989 65.376 182.189 65.376C181.389 65.376 180.733 65.872 180.733 66.752V67.072C180.733 67.952 181.389 68.448 182.189 68.448C182.989 68.448 183.645 67.952 183.645 67.072ZM193.136 69.584C193.136 68.096 194.56 66.896 196.784 66.896C199.008 66.896 200.432 68.096 200.432 69.584V70.096C200.432 71.28 199.52 72.288 198.032 72.656V74.256C199.2 74.192 200.496 74.08 201.536 73.904V75.488C199.248 75.808 196.8 75.904 194.336 75.904H192.224V74.304H195.776V72.704C194.128 72.4 193.136 71.344 193.136 70.096V69.584ZM202.128 64.08L204.288 63.76V78.08L202.128 78.4V64.08ZM200.88 66.576H192.448V64.976H195.68V63.92L197.888 63.6V64.976H201.2L200.88 66.576ZM198.352 69.728C198.352 68.944 197.712 68.416 196.784 68.416C195.856 68.416 195.216 68.944 195.216 69.728V69.952C195.216 70.736 195.856 71.264 196.784 71.264C197.712 71.264 198.352 70.736 198.352 69.952V69.728Z" fill="white"/>
<path d="M14.58 392.23V400.546L12.132 400.906V392.59L14.58 392.23ZM14.688 408.772H3.942V404.29H12.096V403.246H3.906V401.536H14.58V405.946H6.444V407.062H15.048L14.688 408.772ZM6.93 392.356V394.948C6.93 395.326 7.02 395.74 7.254 396.01C8.352 397.198 9.54 398.332 10.8 399.358L9.324 400.708C8.082 399.772 6.696 398.53 5.67 397.504C4.518 398.692 3.132 399.97 1.8 401.05L0.288 399.736C1.584 398.638 2.88 397.468 3.978 396.154C4.23 395.848 4.374 395.434 4.374 395.056V392.716L6.93 392.356ZM19.1908 393.04H30.0628V399.358L27.5788 399.808H19.1908V393.04ZM32.4568 401.536L32.0968 403.318H26.0308V408.484L23.5108 408.844V403.318H16.8508V401.536H32.4568ZM21.6928 398.026H27.5788V394.84H21.6928V398.026ZM46.5356 394.966H42.3236V395.776C42.3236 396.154 42.3596 396.604 42.6476 396.838C43.9436 397.864 46.1396 399.538 47.7596 400.546L46.4276 402.058C44.7896 401.068 42.3236 399.376 41.0456 398.332C39.7676 399.394 37.1936 401.14 35.6096 402.184L34.2596 400.69C35.9696 399.61 38.0936 398.116 39.3536 396.982C39.6416 396.73 39.7496 396.262 39.7496 395.884V394.966H35.3216V393.184H46.8956L46.5356 394.966ZM33.2336 404.722H39.8576V401.176H42.4496V404.722H48.8396L48.4796 406.558H33.2336V404.722ZM59.2104 394.804H56.3124V395.992C56.3124 396.37 56.3844 396.784 56.6364 397.054C57.7524 398.296 58.8864 399.358 60.1464 400.42L58.7064 401.806C57.4284 400.78 56.2224 399.718 55.0884 398.548C53.9544 399.79 52.6044 401.086 51.2904 402.202L49.7784 400.888C51.0384 399.754 52.3344 398.638 53.4324 397.198C53.6664 396.892 53.8284 396.478 53.8284 396.1V394.804H50.6064V393.004H59.5704L59.2104 394.804ZM52.9464 402.796H63.7284V408.664L61.2444 409.024V404.56H52.9464V402.796ZM63.7284 392.23V401.806L61.2804 402.166V392.59L63.7284 392.23Z" fill="#282828"/>
<rect y="432" width="339" height="50" rx="8" fill="#4B84F0"/>
<path d="M143.094 449.984V454.48H144.214V450.08L146.246 449.76V464.08L144.214 464.4V456.096H143.094V463.616L141.11 463.936V450.304L143.094 449.984ZM136.07 456.032C136.182 455.776 136.198 455.312 136.198 454.976V452.384H134.166V450.832H140.31L140.07 452.384H138.246V454.928C138.246 455.264 138.23 455.664 138.358 455.952C138.774 456.88 140.054 458.784 140.918 459.824L139.558 461.056C138.886 460.224 137.942 458.944 137.286 457.968C136.566 459.056 135.654 460.336 134.774 461.392L133.43 460.224C134.534 458.896 135.574 457.104 136.07 456.032ZM150.152 450.48H159.816V456.096L157.608 456.496H150.152V450.48ZM161.944 458.032L161.624 459.616H156.232V464.208L153.992 464.528V459.616H148.072V458.032H161.944ZM152.376 454.912H157.608V452.08H152.376V454.912ZM168.635 454.816V452.288H163.755V450.704H170.827V456.384H165.979V458.944H167.131C168.587 458.944 170.811 458.88 172.347 458.56V460.144C170.715 460.416 168.443 460.528 166.939 460.528H163.755V454.816H168.635ZM175.163 449.76V464.08L172.987 464.4V450.08L175.163 449.76ZM191.069 460.672L190.749 462.304H177.197V460.672H191.069ZM185.277 450.352V452.784C185.277 453.12 185.309 453.52 185.565 453.728C186.701 454.688 188.797 456.272 190.189 457.184L189.005 458.528C187.597 457.632 185.261 456.032 184.173 455.056C183.053 456.016 180.765 457.696 179.229 458.64L178.029 457.312C179.517 456.336 181.517 454.864 182.637 453.856C182.893 453.632 182.989 453.216 182.989 452.88V450.672L185.277 450.352ZM193.392 456.816V455.216C195.488 455.216 198.736 455.136 201.232 454.928C201.344 454.016 201.424 453.104 201.456 452.256H193.616V450.672H203.712C203.68 453.2 203.296 457.008 202.656 459.536H200.4C200.624 458.672 200.848 457.648 201.008 456.56C198.544 456.736 195.568 456.816 193.392 456.816ZM205.632 460.48L205.312 462.112H191.76V460.48H205.632Z" fill="white"/>
<rect x="0.5" y="490.5" width="338" height="55" rx="7.5" fill="white"/>
<path d="M140.312 511.281V521.594H138.578V516.422H136.078V515.016H138.578V511.281H140.312ZM128.453 518.547C130.703 517.805 131.906 515.961 131.906 514.078V513.703H128.969V512.297H136.594V513.703H133.672V514.094C133.672 515.789 134.812 517.547 137 518.266L136.125 519.656C134.547 519.117 133.43 518.039 132.812 516.703C132.195 518.188 131.016 519.375 129.344 519.953L128.453 518.547ZM131.047 525.109V520.688H132.781V523.703H140.672V525.109H131.047ZM147.359 514.656C147.344 517.18 148.609 519.727 150.797 520.781L149.734 522.172C148.203 521.398 147.102 519.906 146.5 518.109C145.883 520.031 144.727 521.625 143.109 522.438L142.047 521.047C144.32 519.969 145.617 517.266 145.625 514.656V512.406H147.359V514.656ZM151.641 525.391V511.266H153.375V516.797H155.547V518.281H153.375V525.391H151.641ZM164.031 512.312V513.156C164.016 514.117 164.016 515.523 163.688 517.312L161.969 517.156C162.25 515.703 162.305 514.617 162.32 513.75H156.828V512.312H164.031ZM155.984 518.438C156.82 518.43 157.758 518.422 158.75 518.406V515.531H160.469V518.352C161.93 518.289 163.43 518.18 164.797 517.984L164.891 519.234C161.953 519.766 158.617 519.82 156.141 519.828L155.984 518.438ZM158.094 525.109V520.906H159.844V523.703H167.859V525.109H158.094ZM165.625 521.844V511.266H167.406V515.672H169.234V517.125H167.406V521.844H165.625ZM181.734 511.266V525.406H180.016V511.266H181.734ZM170.734 513.906V512.5H177.391V517.797H172.531V520.641C174.758 520.625 176.672 520.508 178.875 520.141L179.031 521.562C176.633 521.977 174.523 522.07 171.984 522.062H170.75V516.422H175.625V513.906H170.734ZM196.703 522.266V523.688H183.797V522.266H189.375V519.016H191.109V522.266H196.703ZM184.359 518.234C187.172 517.766 189.266 515.859 189.312 513.828H184.875V512.406H195.594V513.828H191.141C191.195 515.859 193.289 517.719 196.188 518.156L195.5 519.531C193.117 519.102 191.156 517.836 190.242 516.07C189.336 517.859 187.398 519.164 185.047 519.609L184.359 518.234ZM202.984 513.719C202.984 515.461 204.188 517.203 206.438 517.906L205.547 519.25C203.945 518.734 202.781 517.672 202.133 516.328C201.5 517.789 200.297 518.953 198.625 519.516L197.734 518.172C200.008 517.406 201.219 515.57 201.234 513.719V513.547H198.188V512.156H205.953V513.547H202.984V513.719ZM199.75 521.844V520.438H209.391V525.391H207.641V521.844H199.75ZM207.641 519.781V511.266H209.391V519.781H207.641Z" fill="#222222"/>
<rect x="0.5" y="490.5" width="338" height="55" rx="7.5" stroke="#E1E6EF"/>
<rect x="0.5" y="552.5" width="338" height="55" rx="7.5" fill="white"/>
<path d="M161.477 573.266V587.391H159.82V580.234H158.367V586.703H156.727V573.516H158.367V578.797H159.82V573.266H161.477ZM148.992 583.281C151.086 582.094 151.93 579.633 151.93 576.875V576.203H149.414V574.812H155.93V576.203H153.617V576.875C153.617 579.383 154.461 581.703 156.555 582.781L155.539 584.109C154.195 583.383 153.312 582.141 152.812 580.609C152.336 582.367 151.453 583.781 150.055 584.609L148.992 583.281ZM175.945 581.266V582.672H170.32V587.375H168.602V582.672H163.039V581.266H175.945ZM164.617 579.609V573.984H174.367V579.609H164.617ZM166.32 578.25H172.633V575.375H166.32V578.25ZM188.617 573.266V580.469H186.898V573.266H188.617ZM176.867 579.094C179.156 578.367 180.359 576.555 180.352 574.703V573.609H182.148V574.703C182.141 576.5 183.336 578.18 185.57 578.859L184.727 580.203C183.086 579.695 181.914 578.648 181.273 577.305C180.633 578.766 179.43 579.914 177.742 580.453L176.867 579.094ZM179.273 582.469V581.125H188.648V584.797H181.008V585.891H189.07V587.266H179.305V583.5H186.914V582.469H179.273Z" fill="#222222"/>
<rect x="0.5" y="552.5" width="338" height="55" rx="7.5" stroke="#E1E6EF"/>
<rect x="0.5" y="614.5" width="338" height="79" rx="7.5" fill="white"/>
<path d="M142.742 635.266V638.672H144.711V640.125H142.742V643.5H141.008V635.266H142.742ZM131.461 642.094C134.758 641.242 136.641 639.555 136.938 637.5H132.164V636.094H138.805C138.797 639.797 136.391 642.352 132.18 643.422L131.461 642.094ZM133.336 645.484V644.094H142.742V649.391H141.008V645.484H133.336ZM154.273 638.656C154.258 641.18 155.523 643.727 157.711 644.781L156.648 646.172C155.117 645.398 154.016 643.906 153.414 642.109C152.797 644.031 151.641 645.625 150.023 646.438L148.961 645.047C151.234 643.969 152.531 641.266 152.539 638.656V636.406H154.273V638.656ZM158.555 649.391V635.266H160.289V640.797H162.461V642.281H160.289V649.391H158.555ZM166.977 635.891C168.805 635.883 170.242 636.938 170.594 638.484H173.148V635.266H174.883V642.844H173.148V639.891H170.609C170.273 641.477 168.82 642.547 166.977 642.547C164.812 642.547 163.242 641.156 163.242 639.203C163.242 637.273 164.812 635.883 166.977 635.891ZM164.898 639.203C164.898 640.336 165.758 641.086 166.977 641.078C168.164 641.086 169.016 640.336 169.023 639.203C169.016 638.07 168.164 637.336 166.977 637.344C165.758 637.336 164.898 638.07 164.898 639.203ZM165.57 649.219V643.5H167.289V645H173.148V643.5H174.883V649.219H165.57ZM167.289 647.812H173.148V646.344H167.289V647.812ZM189.773 643.484V644.859H184.148V649.391H182.43V644.859H176.867V643.484H189.773ZM178.43 642.016V635.828H180.148V637.562H186.461V635.828H188.211V642.016H178.43ZM180.148 640.609H186.461V638.938H180.148V640.609ZM202.039 636.141V642.016H195.227V636.141H202.039ZM196.07 648.016C198.781 647.781 200.516 646.578 200.672 645.453H196.648V644.141H200.711V642.906H202.461V644.141H206.539V645.453H202.508C202.664 646.547 204.367 647.742 207.07 648.016L206.477 649.344C204.188 649.102 202.453 648.203 201.594 647.031C200.727 648.219 198.969 649.094 196.664 649.344L196.07 648.016ZM196.945 640.656H200.32V637.516H196.945V640.656ZM204.523 643.312V635.266H206.242V643.312H204.523ZM131 659.906V660.984C131.008 662.031 131.008 663.25 130.695 664.828H132.578V666.234H126.969V668.438H131.031V673.391H129.297V669.828H120.984V668.438H125.234V666.234H119.672V664.828H128.953C129.234 663.375 129.266 662.273 129.266 661.297H121.266V659.906H131ZM145.625 659.266V673.391H143.953V666.25H142.391V672.672H140.766V659.531H142.391V664.828H143.953V659.266H145.625ZM134.109 669.875V660.891H135.859V668.344C137.078 668.32 138.406 668.211 139.891 667.922L140.062 669.438C138.156 669.773 136.539 669.875 135.047 669.875H134.109ZM151.906 660.141C154.148 660.141 155.781 661.539 155.797 663.547C155.781 665.281 154.562 666.562 152.781 666.875V668.938C154.039 668.875 155.312 668.766 156.516 668.594L156.656 669.844C153.492 670.445 150.102 670.469 147.609 670.469L147.391 669.047C148.469 669.047 149.727 669.047 151.047 669.008V666.883C149.273 666.57 148.023 665.289 148.031 663.547C148.023 661.539 149.688 660.141 151.906 660.141ZM149.75 663.547C149.742 664.711 150.672 665.469 151.906 665.469C153.164 665.469 154.086 664.711 154.094 663.547C154.086 662.359 153.156 661.633 151.906 661.641C150.672 661.633 149.742 662.359 149.75 663.547ZM157.359 673.406V659.266H159.094V673.406H157.359ZM172.234 664.312V666.109H177.828V667.516H164.953V666.109H170.516V664.312H172.234ZM165.562 663.719C168.172 663.461 169.867 662.438 170.156 661.281H166.125V659.891H176.672V661.281H172.602C172.891 662.43 174.586 663.461 177.219 663.719L176.594 665.078C174.031 664.812 172.141 663.812 171.375 662.391C170.609 663.812 168.734 664.812 166.172 665.078L165.562 663.719ZM166.453 670.891C166.453 669.305 168.289 668.422 171.375 668.422C174.438 668.422 176.258 669.305 176.266 670.891C176.258 672.492 174.438 673.375 171.375 673.375C168.289 673.375 166.453 672.492 166.453 670.891ZM168.219 670.891C168.211 671.664 169.297 672.062 171.375 672.062C173.414 672.062 174.516 671.664 174.531 670.891C174.516 670.141 173.414 669.758 171.375 669.75C169.297 669.758 168.211 670.141 168.219 670.891ZM191.656 666.203V667.609H178.781V666.203H184.344V664.234H186.062V666.203H191.656ZM179.484 663.688C182.398 663.32 184.312 661.719 184.312 660.031V659.5H186.078V660.031C186.078 661.758 187.977 663.32 190.922 663.688L190.25 665.047C187.938 664.695 186.086 663.648 185.188 662.164C184.281 663.641 182.438 664.695 180.109 665.047L179.484 663.688ZM180.203 670.094V668.734H190.078V673.391H188.344V670.094H180.203ZM204.375 659.266V673.391H202.641V659.266H204.375ZM192.672 669.469C193.797 669.461 195.07 669.461 196.406 669.422V668.125C194.82 667.875 193.781 666.906 193.781 665.562C193.781 663.969 195.195 662.914 197.25 662.906C199.328 662.914 200.766 663.969 200.766 665.562C200.766 666.898 199.727 667.859 198.141 668.117V669.359C199.383 669.305 200.633 669.203 201.812 669.047L201.938 670.344C198.836 670.867 195.461 670.906 192.922 670.906L192.672 669.469ZM192.969 662.266V660.891H196.406V659.312H198.141V660.891H201.562V662.266H192.969ZM195.438 665.562C195.422 666.375 196.18 666.852 197.25 666.844C198.352 666.852 199.102 666.375 199.094 665.562C199.102 664.742 198.352 664.242 197.25 664.234C196.18 664.242 195.422 664.742 195.438 665.562ZM211.484 662.656C211.469 665.18 212.734 667.727 214.922 668.781L213.859 670.172C212.328 669.398 211.227 667.906 210.625 666.109C210.008 668.031 208.852 669.625 207.234 670.438L206.172 669.047C208.445 667.969 209.742 665.266 209.75 662.656V660.406H211.484V662.656ZM215.766 673.391V659.266H217.5V664.797H219.672V666.281H217.5V673.391H215.766Z" fill="#222222"/>
<rect x="0.5" y="614.5" width="338" height="79" rx="7.5" stroke="#E1E6EF"/>
<rect x="0.5" y="772.5" width="165" height="55" rx="7.5" fill="white"/>
<path d="M37.1641 806V794.688H44.5234V796.391H39.1953V799.484H44.1328V801.188H39.1953V804.281H44.5547V806H37.1641ZM52.6328 797.797C52.5312 796.82 51.7109 796.258 50.4922 796.266C49.2031 796.258 48.4375 796.883 48.4297 797.734C48.4219 798.688 49.4297 799.078 50.3672 799.297L51.4297 799.578C53.1172 799.969 54.7422 800.859 54.7422 802.828C54.7422 804.812 53.1719 806.172 50.4609 806.172C47.8281 806.172 46.1562 804.906 46.0703 802.672H48.0703C48.1641 803.852 49.1562 804.43 50.4453 804.438C51.7812 804.43 52.7031 803.781 52.7109 802.812C52.7031 801.922 51.8906 801.547 50.6641 801.234L49.3828 800.906C47.5234 800.422 46.3672 799.484 46.3672 797.859C46.3672 795.859 48.1406 794.531 50.5234 794.531C52.9219 794.531 54.5547 795.883 54.5859 797.797H52.6328ZM64.0078 798.297C63.6406 797.094 62.7109 796.359 61.3359 796.359C59.5156 796.359 58.1875 797.781 58.1953 800.328C58.1875 802.898 59.4922 804.328 61.3828 804.328C63.0938 804.328 64.1797 803.297 64.2109 801.688H61.5859V800.078H66.1797V801.438C66.1797 804.352 64.1797 806.156 61.3828 806.156C58.2578 806.156 56.1406 803.93 56.1484 800.344C56.1406 796.711 58.3594 794.531 61.3203 794.531C63.8125 794.531 65.7422 796.078 66.0859 798.297H64.0078ZM83.0703 793.281V801.531H81.3359V799.969H77.9766V798.562H81.3359V797.047H78.1094C77.2188 799.289 75.1562 800.859 72.0859 801.719L71.3828 800.344C74.6875 799.453 76.4531 797.773 76.7188 795.672H72.1328V794.266H78.6172C78.6172 794.758 78.5781 795.227 78.5 795.672H81.3359V793.281H83.0703ZM73.6016 804.5C73.6016 802.766 75.5 801.695 78.3984 801.688C81.2578 801.695 83.1641 802.766 83.1641 804.5C83.1641 806.234 81.2578 807.32 78.3984 807.312C75.5 807.32 73.6016 806.234 73.6016 804.5ZM75.3359 804.5C75.3359 805.43 76.5 805.938 78.3984 805.938C80.2656 805.938 81.4219 805.43 81.4297 804.5C81.4219 803.555 80.2656 803.047 78.3984 803.047C76.5 803.047 75.3359 803.555 75.3359 804.5ZM88.9922 794.062C90.1328 794.055 91.125 794.477 91.7891 795.188H95.1641V793.266H96.8984V801.578H95.1641V799.781H91.7812C91.1094 800.477 90.125 800.898 88.9922 800.891C86.8594 800.898 85.2578 799.469 85.2578 797.484C85.2578 795.484 86.8594 794.055 88.9922 794.062ZM86.9141 797.484C86.9141 798.641 87.7812 799.422 88.9922 799.422C90.1641 799.422 91.0312 798.641 91.0391 797.484C91.0312 796.289 90.1641 795.547 88.9922 795.547C87.7812 795.547 86.9141 796.289 86.9141 797.484ZM87.3203 804.625C87.3047 802.883 89.1562 801.867 92.1172 801.875C95.0859 801.867 96.9375 802.883 96.9453 804.625C96.9375 806.359 95.0859 807.375 92.1172 807.375C89.1562 807.375 87.3047 806.359 87.3203 804.625ZM89.0234 804.625C89.0078 805.523 90.1562 806.008 92.1172 806.016C94.1172 806.008 95.2422 805.523 95.2422 804.625C95.2422 803.703 94.1172 803.211 92.1172 803.203C90.1562 803.211 89.0078 803.703 89.0234 804.625ZM92.5703 796.578C92.6484 796.867 92.6953 797.164 92.6953 797.484C92.6953 797.797 92.6484 798.094 92.5781 798.375H95.1641V796.578H92.5703ZM113.836 793.266V796.547H115.805V797.984H113.836V801.219H112.102V793.266H113.836ZM103.289 800.594V794.172H109.57V795.578H105.008V799.188C107.664 799.18 109.141 799.086 110.82 798.75L111.008 800.125C109.156 800.531 107.516 800.594 104.43 800.594H103.289ZM104.711 807.203V801.859H113.836V807.203H104.711ZM106.43 805.828H112.117V803.25H106.43V805.828ZM127.68 793.266V796.734H129.633V798.156H127.68V801.516H125.93V793.266H127.68ZM117.07 800.625V794.266H123.398V795.672H118.789V799.219C121.492 799.211 123 799.125 124.664 798.781L124.836 800.172C123.008 800.562 121.344 800.625 118.211 800.625H117.07ZM118.289 804.562C118.289 802.812 120.148 801.781 123.07 801.781C125.969 801.781 127.797 802.812 127.805 804.562C127.797 806.344 125.969 807.375 123.07 807.375C120.148 807.375 118.289 806.344 118.289 804.562ZM120.008 804.562C120 805.477 121.133 805.984 123.07 805.984C124.969 805.984 126.109 805.477 126.117 804.562C126.109 803.664 124.969 803.164 123.07 803.172C121.133 803.164 120 803.664 120.008 804.562Z" fill="#222222"/>
<rect x="0.5" y="772.5" width="165" height="55" rx="7.5" stroke="#E1E6EF"/>
<rect x="0.5" y="834.5" width="165" height="55" rx="7.5" fill="white"/>
<path d="M45.9766 868V856.688H53.3359V858.391H48.0078V861.484H52.9453V863.188H48.0078V866.281H53.3672V868H45.9766ZM61.4453 859.797C61.3438 858.82 60.5234 858.258 59.3047 858.266C58.0156 858.258 57.25 858.883 57.2422 859.734C57.2344 860.688 58.2422 861.078 59.1797 861.297L60.2422 861.578C61.9297 861.969 63.5547 862.859 63.5547 864.828C63.5547 866.812 61.9844 868.172 59.2734 868.172C56.6406 868.172 54.9688 866.906 54.8828 864.672H56.8828C56.9766 865.852 57.9688 866.43 59.2578 866.438C60.5938 866.43 61.5156 865.781 61.5234 864.812C61.5156 863.922 60.7031 863.547 59.4766 863.234L58.1953 862.906C56.3359 862.422 55.1797 861.484 55.1797 859.859C55.1797 857.859 56.9531 856.531 59.3359 856.531C61.7344 856.531 63.3672 857.883 63.3984 859.797H61.4453ZM72.8203 860.297C72.4531 859.094 71.5234 858.359 70.1484 858.359C68.3281 858.359 67 859.781 67.0078 862.328C67 864.898 68.3047 866.328 70.1953 866.328C71.9062 866.328 72.9922 865.297 73.0234 863.688H70.3984V862.078H74.9922V863.438C74.9922 866.352 72.9922 868.156 70.1953 868.156C67.0703 868.156 64.9531 865.93 64.9609 862.344C64.9531 858.711 67.1719 856.531 70.1328 856.531C72.625 856.531 74.5547 858.078 74.8984 860.297H72.8203ZM91.8828 855.281V863.531H90.1484V861.969H86.7891V860.562H90.1484V859.047H86.9219C86.0312 861.289 83.9688 862.859 80.8984 863.719L80.1953 862.344C83.5 861.453 85.2656 859.773 85.5312 857.672H80.9453V856.266H87.4297C87.4297 856.758 87.3906 857.227 87.3125 857.672H90.1484V855.281H91.8828ZM82.4141 866.5C82.4141 864.766 84.3125 863.695 87.2109 863.688C90.0703 863.695 91.9766 864.766 91.9766 866.5C91.9766 868.234 90.0703 869.32 87.2109 869.312C84.3125 869.32 82.4141 868.234 82.4141 866.5ZM84.1484 866.5C84.1484 867.43 85.3125 867.938 87.2109 867.938C89.0781 867.938 90.2344 867.43 90.2422 866.5C90.2344 865.555 89.0781 865.047 87.2109 865.047C85.3125 865.047 84.1484 865.555 84.1484 866.5ZM97.8047 856.062C98.9453 856.055 99.9375 856.477 100.602 857.188H103.977V855.266H105.711V863.578H103.977V861.781H100.594C99.9219 862.477 98.9375 862.898 97.8047 862.891C95.6719 862.898 94.0703 861.469 94.0703 859.484C94.0703 857.484 95.6719 856.055 97.8047 856.062ZM95.7266 859.484C95.7266 860.641 96.5938 861.422 97.8047 861.422C98.9766 861.422 99.8438 860.641 99.8516 859.484C99.8438 858.289 98.9766 857.547 97.8047 857.547C96.5938 857.547 95.7266 858.289 95.7266 859.484ZM96.1328 866.625C96.1172 864.883 97.9688 863.867 100.93 863.875C103.898 863.867 105.75 864.883 105.758 866.625C105.75 868.359 103.898 869.375 100.93 869.375C97.9688 869.375 96.1172 868.359 96.1328 866.625ZM97.8359 866.625C97.8203 867.523 98.9688 868.008 100.93 868.016C102.93 868.008 104.055 867.523 104.055 866.625C104.055 865.703 102.93 865.211 100.93 865.203C98.9688 865.211 97.8203 865.703 97.8359 866.625ZM101.383 858.578C101.461 858.867 101.508 859.164 101.508 859.484C101.508 859.797 101.461 860.094 101.391 860.375H103.977V858.578H101.383ZM115.32 856.094V857.5H110.258V858.812H114.914V860.172H110.258V861.562C112.898 861.562 114.508 861.516 116.367 861.203L116.539 862.562C114.516 862.914 112.742 862.953 109.695 862.938H108.492V856.094H115.32ZM110.102 869.219V864.297H119.477V869.219H110.102ZM111.82 867.812H117.773V865.641H111.82V867.812ZM117.727 863.672V855.281H119.477V863.672H117.727Z" fill="#222222"/>
<rect x="0.5" y="834.5" width="165" height="55" rx="7.5" stroke="#E1E6EF"/>
<rect x="0.5" y="896.5" width="165" height="79" rx="7.5" fill="white"/>
<path d="M34.0469 930V918.688H41.4062V920.391H36.0781V923.484H41.0156V925.188H36.0781V928.281H41.4375V930H34.0469ZM49.5156 921.797C49.4141 920.82 48.5938 920.258 47.375 920.266C46.0859 920.258 45.3203 920.883 45.3125 921.734C45.3047 922.688 46.3125 923.078 47.25 923.297L48.3125 923.578C50 923.969 51.625 924.859 51.625 926.828C51.625 928.812 50.0547 930.172 47.3438 930.172C44.7109 930.172 43.0391 928.906 42.9531 926.672H44.9531C45.0469 927.852 46.0391 928.43 47.3281 928.438C48.6641 928.43 49.5859 927.781 49.5938 926.812C49.5859 925.922 48.7734 925.547 47.5469 925.234L46.2656 924.906C44.4062 924.422 43.25 923.484 43.25 921.859C43.25 919.859 45.0234 918.531 47.4062 918.531C49.8047 918.531 51.4375 919.883 51.4688 921.797H49.5156ZM60.8906 922.297C60.5234 921.094 59.5938 920.359 58.2188 920.359C56.3984 920.359 55.0703 921.781 55.0781 924.328C55.0703 926.898 56.375 928.328 58.2656 928.328C59.9766 928.328 61.0625 927.297 61.0938 925.688H58.4688V924.078H63.0625V925.438C63.0625 928.352 61.0625 930.156 58.2656 930.156C55.1406 930.156 53.0234 927.93 53.0312 924.344C53.0234 920.711 55.2422 918.531 58.2031 918.531C60.6953 918.531 62.625 920.078 62.9688 922.297H60.8906ZM76.0625 917.266V924.469H74.3438V917.266H76.0625ZM64.3125 923.094C66.6016 922.367 67.8047 920.555 67.7969 918.703V917.609H69.5938V918.703C69.5859 920.5 70.7812 922.18 73.0156 922.859L72.1719 924.203C70.5312 923.695 69.3594 922.648 68.7188 921.305C68.0781 922.766 66.875 923.914 65.1875 924.453L64.3125 923.094ZM66.7188 926.469V925.125H76.0938V928.797H68.4531V929.891H76.5156V931.266H66.75V927.5H74.3594V926.469H66.7188ZM91.0469 925.266V926.672H85.4219V931.375H83.7031V926.672H78.1406V925.266H91.0469ZM79.7188 923.609V917.984H89.4688V923.609H79.7188ZM81.4219 922.25H87.7344V919.375H81.4219V922.25ZM99.9062 918.562V919.938H92.0156V918.562H95.1719V917.156H96.9062V918.562H99.9062ZM92.75 923C92.7422 921.477 94.0859 920.445 96.0156 920.438C97.9375 920.445 99.3203 921.477 99.3281 923C99.3203 924.531 97.9375 925.547 96.0156 925.547C94.0859 925.547 92.7422 924.531 92.75 923ZM94.375 923C94.3672 923.789 95.0156 924.281 96.0156 924.281C97.0156 924.281 97.7031 923.789 97.7031 923C97.7031 922.219 97.0156 921.75 96.0156 921.75C95.0156 921.75 94.3672 922.219 94.375 923ZM94.4062 931.219V926.203H96.1406V927.391H102.094V926.203H103.812V931.219H94.4062ZM96.1406 929.859H102.094V928.703H96.1406V929.859ZM99.9844 924.547V923.156H102.078V921.781H100V920.375H102.078V917.266H103.812V925.656H102.078V924.547H99.9844ZM110.391 918.25C112.633 918.242 114.266 919.656 114.281 921.656C114.266 923.664 112.633 925.07 110.391 925.078C108.172 925.07 106.508 923.664 106.516 921.656C106.508 919.656 108.172 918.242 110.391 918.25ZM105.875 927.031C108.422 927.031 111.945 927 115 926.562L115.141 927.828C111.977 928.43 108.586 928.453 106.094 928.453L105.875 927.031ZM108.234 921.656C108.227 922.836 109.156 923.562 110.391 923.562C111.641 923.562 112.57 922.836 112.578 921.656C112.57 920.484 111.648 919.75 110.391 919.75C109.156 919.75 108.227 920.484 108.234 921.656ZM115.844 931.406V917.266H117.578V931.406H115.844ZM123.953 921.578C123.953 923.766 124.852 925.969 126.828 927.031L125.859 928.312C124.547 927.617 123.656 926.375 123.148 924.891C122.648 926.492 121.758 927.867 120.438 928.641L119.422 927.328C121.422 926.172 122.305 923.812 122.312 921.578V921.141H119.906V919.734H122.312V917.766H123.953V919.734H126.312V921.141H123.953V921.578ZM125.438 924.125V922.688H127.281V917.531H128.922V930.703H127.281V924.125H125.438ZM130.141 931.391V917.266H131.797V931.391H130.141ZM39.9609 949.688C39.9609 946.75 40.8359 944.297 42.3047 942.203H44.1797C43.1016 943.758 42.0234 946.891 42.0234 949.688C42.0234 952.484 43.1016 955.625 44.1797 957.188H42.3047C40.8359 955.078 39.9609 952.633 39.9609 949.688ZM56.2422 941.266V944.672H58.2109V946.125H56.2422V949.5H54.5078V941.266H56.2422ZM44.9609 948.094C48.2578 947.242 50.1406 945.555 50.4375 943.5H45.6641V942.094H52.3047C52.2969 945.797 49.8906 948.352 45.6797 949.422L44.9609 948.094ZM46.8359 951.484V950.094H56.2422V955.391H54.5078V951.484H46.8359ZM70.6484 942.562V943.938H62.7578V942.562H65.9141V941.156H67.6484V942.562H70.6484ZM63.4922 947C63.4844 945.477 64.8281 944.445 66.7578 944.438C68.6797 944.445 70.0625 945.477 70.0703 947C70.0625 948.531 68.6797 949.547 66.7578 949.547C64.8281 949.547 63.4844 948.531 63.4922 947ZM65.1172 947C65.1094 947.789 65.7578 948.281 66.7578 948.281C67.7578 948.281 68.4453 947.789 68.4453 947C68.4453 946.219 67.7578 945.75 66.7578 945.75C65.7578 945.75 65.1094 946.219 65.1172 947ZM65.1484 955.219V950.203H66.8828V951.391H72.8359V950.203H74.5547V955.219H65.1484ZM66.8828 953.859H72.8359V952.703H66.8828V953.859ZM70.7266 948.547V947.156H72.8203V945.781H70.7422V944.375H72.8203V941.266H74.5547V949.656H72.8203V948.547H70.7266ZM80.4766 941.891C82.3047 941.883 83.7422 942.938 84.0938 944.484H86.6484V941.266H88.3828V948.844H86.6484V945.891H84.1094C83.7734 947.477 82.3203 948.547 80.4766 948.547C78.3125 948.547 76.7422 947.156 76.7422 945.203C76.7422 943.273 78.3125 941.883 80.4766 941.891ZM78.3984 945.203C78.3984 946.336 79.2578 947.086 80.4766 947.078C81.6641 947.086 82.5156 946.336 82.5234 945.203C82.5156 944.07 81.6641 943.336 80.4766 943.344C79.2578 943.336 78.3984 944.07 78.3984 945.203ZM79.0703 955.219V949.5H80.7891V951H86.6484V949.5H88.3828V955.219H79.0703ZM80.7891 953.812H86.6484V952.344H80.7891V953.812ZM107.07 949.484V950.859H101.445V955.391H99.7266V950.859H94.1641V949.484H107.07ZM95.7266 948.016V941.828H97.4453V943.562H103.758V941.828H105.508V948.016H95.7266ZM97.4453 946.609H103.758V944.938H97.4453V946.609ZM113.227 944.656C113.219 947.281 114.477 949.859 116.727 950.844L115.68 952.234C114.086 951.453 112.961 949.953 112.359 948.102C111.742 950.055 110.586 951.68 108.961 952.5L107.867 951.094C110.172 950.016 111.453 947.297 111.461 944.656V942.406H113.227V944.656ZM115.164 947.234V945.828H118.133V941.266H119.852V955.406H118.133V947.234H115.164ZM126.039 949.688C126.039 952.633 125.164 955.078 123.695 957.188H121.82C122.898 955.625 123.977 952.484 123.977 949.688C123.977 946.891 122.898 943.758 121.82 942.203H123.695C125.164 944.297 126.039 946.75 126.039 949.688Z" fill="#222222"/>
<rect x="0.5" y="896.5" width="165" height="79" rx="7.5" stroke="#E1E6EF"/>
<rect x="173.5" y="772.5" width="165" height="55" rx="7.5" fill="white"/>
<path d="M211.734 800.828V803.117C212.961 803.047 214.195 802.938 215.359 802.766L215.5 804.047C212.336 804.633 208.945 804.664 206.453 804.656L206.234 803.25C207.336 803.242 208.633 803.234 210 803.195V800.828H211.734ZM206.562 799.969C208.688 799.383 209.859 797.984 209.961 796.406H206.984V795H210V793.391H211.734V795H214.781V796.406H211.758C211.852 797.914 213.047 799.266 215.172 799.812L214.375 801.172C212.703 800.719 211.508 799.742 210.867 798.492C210.25 799.805 209.07 800.828 207.391 801.281L206.562 799.969ZM216.203 807.406V793.266H217.938V807.406H216.203ZM231.531 794.562V795.922C231.516 797.68 231.516 799.641 230.969 802.594L229.219 802.406C229.773 799.656 229.773 797.648 229.781 795.953H221.344V794.562H231.531ZM220 805.562V804.141H224.75V799.234H226.469V804.141H232.875V805.562H220ZM244.969 793.266V797.406H246.938V798.844H244.969V803.594H243.234V793.266H244.969ZM233.984 797.766C233.977 795.68 235.648 794.211 237.797 794.203C239.945 794.211 241.594 795.68 241.609 797.766C241.594 799.82 239.945 801.312 237.797 801.312C235.648 801.312 233.977 799.82 233.984 797.766ZM235.688 797.766C235.68 798.984 236.617 799.789 237.797 799.781C238.992 799.789 239.898 798.984 239.906 797.766C239.898 796.516 238.992 795.719 237.797 795.719C236.617 795.719 235.68 796.516 235.688 797.766ZM235.922 807.109V802.516H237.656V805.703H245.531V807.109H235.922ZM259.484 793.281V803.594H257.75V798.422H255.25V797.016H257.75V793.281H259.484ZM247.625 800.547C249.875 799.805 251.078 797.961 251.078 796.078V795.703H248.141V794.297H255.766V795.703H252.844V796.094C252.844 797.789 253.984 799.547 256.172 800.266L255.297 801.656C253.719 801.117 252.602 800.039 251.984 798.703C251.367 800.188 250.188 801.375 248.516 801.953L247.625 800.547ZM250.219 807.109V802.688H251.953V805.703H259.844V807.109H250.219ZM269.641 796.438C269.641 797.93 270.547 799.406 272.328 800.016L271.547 801.328C270.25 800.852 269.359 799.961 268.852 798.875C268.359 800.062 267.461 801.039 266.125 801.562L265.312 800.281C267.102 799.578 267.984 798.039 268 796.438V796.328H265.672V794.969H268V793.422H269.641V794.969H271.938V796.328H269.641V796.438ZM267.688 803.969V802.562H277.359V807.391H275.625V803.969H267.688ZM272.703 801.859V793.516H274.344V796.906H275.703V793.281H277.359V801.922H275.703V798.312H274.344V801.859H272.703ZM290.875 793.281V801.281H289.125V793.281H290.875ZM279.359 797.328C279.359 795.336 280.984 793.961 283.172 793.953C285.352 793.961 286.977 795.336 286.969 797.328C286.977 799.273 285.352 800.672 283.172 800.672C280.984 800.672 279.359 799.273 279.359 797.328ZM281.062 797.328C281.055 798.469 281.938 799.211 283.172 799.203C284.383 799.211 285.266 798.469 285.266 797.328C285.266 796.156 284.383 795.422 283.172 795.422C281.938 795.422 281.055 796.156 281.062 797.328ZM281.5 807.219V801.969H290.875V807.219H281.5ZM283.219 805.812H289.172V803.344H283.219V805.812ZM298 797.281C297.992 799.461 299.305 801.945 301.531 802.984L300.562 804.359C298.969 803.609 297.789 802.094 297.156 800.328C296.516 802.266 295.281 803.922 293.656 804.703L292.641 803.344C294.891 802.273 296.258 799.633 296.266 797.281V796.094H293.188V794.656H300.953V796.094H298V797.281ZM302.266 807.391V793.266H304V798.766H306.172V800.219H304V807.391H302.266Z" fill="#222222"/>
<rect x="173.5" y="772.5" width="165" height="55" rx="7.5" stroke="#E1E6EF"/>
<rect x="173.5" y="834.5" width="165" height="55" rx="7.5" fill="white"/>
<path d="M233.039 855.266V859.406H235.008V860.844H233.039V865.594H231.305V855.266H233.039ZM222.055 859.766C222.047 857.68 223.719 856.211 225.867 856.203C228.016 856.211 229.664 857.68 229.68 859.766C229.664 861.82 228.016 863.312 225.867 863.312C223.719 863.312 222.047 861.82 222.055 859.766ZM223.758 859.766C223.75 860.984 224.688 861.789 225.867 861.781C227.062 861.789 227.969 860.984 227.977 859.766C227.969 858.516 227.062 857.719 225.867 857.719C224.688 857.719 223.75 858.516 223.758 859.766ZM223.992 869.109V864.516H225.727V867.703H233.602V869.109H223.992ZM247.555 855.281V865.594H245.82V860.422H243.32V859.016H245.82V855.281H247.555ZM235.695 862.547C237.945 861.805 239.148 859.961 239.148 858.078V857.703H236.211V856.297H243.836V857.703H240.914V858.094C240.914 859.789 242.055 861.547 244.242 862.266L243.367 863.656C241.789 863.117 240.672 862.039 240.055 860.703C239.438 862.188 238.258 863.375 236.586 863.953L235.695 862.547ZM238.289 869.109V864.688H240.023V867.703H247.914V869.109H238.289ZM262.461 866.266V867.688H249.555V866.266H255.117V863.516H250.977V856.203H252.711V858.516H259.258V856.203H260.992V863.516H256.836V866.266H262.461ZM252.711 862.109H259.258V859.906H252.711V862.109ZM275.211 855.281V865.641H273.477V860.891H270.758V859.453H273.477V855.281H275.211ZM263.57 862.766C266.609 861.805 268.617 860 268.953 857.766H264.305V856.344H270.852C270.852 860.07 268.391 862.852 264.305 864.156L263.57 862.766ZM266.008 869.109V864.594H267.773V867.703H275.57V869.109H266.008ZM284.82 856.094V857.5H279.758V858.812H284.414V860.172H279.758V861.562C282.398 861.562 284.008 861.516 285.867 861.203L286.039 862.562C284.016 862.914 282.242 862.953 279.195 862.938H277.992V856.094H284.82ZM279.602 869.219V864.297H288.977V869.219H279.602ZM281.32 867.812H287.273V865.641H281.32V867.812ZM287.227 863.672V855.281H288.977V863.672H287.227Z" fill="#222222"/>
<rect x="173.5" y="834.5" width="165" height="55" rx="7.5" stroke="#E1E6EF"/>
<rect x="173.5" y="896.5" width="165" height="79" rx="7.5" fill="white"/>
<path d="M229.242 917.266V920.672H231.211V922.125H229.242V925.5H227.508V917.266H229.242ZM217.961 924.094C221.258 923.242 223.141 921.555 223.438 919.5H218.664V918.094H225.305C225.297 921.797 222.891 924.352 218.68 925.422L217.961 924.094ZM219.836 927.484V926.094H229.242V931.391H227.508V927.484H219.836ZM240.773 920.656C240.758 923.18 242.023 925.727 244.211 926.781L243.148 928.172C241.617 927.398 240.516 925.906 239.914 924.109C239.297 926.031 238.141 927.625 236.523 928.438L235.461 927.047C237.734 925.969 239.031 923.266 239.039 920.656V918.406H240.773V920.656ZM245.055 931.391V917.266H246.789V922.797H248.961V924.281H246.789V931.391H245.055ZM253.477 917.891C255.305 917.883 256.742 918.938 257.094 920.484H259.648V917.266H261.383V924.844H259.648V921.891H257.109C256.773 923.477 255.32 924.547 253.477 924.547C251.312 924.547 249.742 923.156 249.742 921.203C249.742 919.273 251.312 917.883 253.477 917.891ZM251.398 921.203C251.398 922.336 252.258 923.086 253.477 923.078C254.664 923.086 255.516 922.336 255.523 921.203C255.516 920.07 254.664 919.336 253.477 919.344C252.258 919.336 251.398 920.07 251.398 921.203ZM252.07 931.219V925.5H253.789V927H259.648V925.5H261.383V931.219H252.07ZM253.789 929.812H259.648V928.344H253.789V929.812ZM268.445 919.812C268.445 921.539 269.562 923.164 271.773 923.844L270.945 925.203C269.359 924.703 268.234 923.695 267.617 922.422C266.992 923.906 265.805 925.086 264.102 925.656L263.227 924.281C265.5 923.539 266.695 921.703 266.695 919.828V919.656H263.711V918.25H271.383V919.656H268.445V919.812ZM265.148 928.672C265.148 926.984 266.977 926 269.93 926C272.859 926 274.656 926.984 274.664 928.672C274.656 930.375 272.859 931.375 269.93 931.375C266.977 931.375 265.148 930.375 265.148 928.672ZM266.883 928.672C266.883 929.547 267.992 930.008 269.93 930.016C271.859 930.008 272.945 929.547 272.945 928.672C272.945 927.812 271.859 927.359 269.93 927.359C267.992 927.359 266.883 927.812 266.883 928.672ZM272.789 925.688V917.266H274.523V920.656H276.492V922.078H274.523V925.688H272.789ZM292.836 917.266V924.562H291.102V923.031H288.258V924.109H281.648V917.891H283.383V919.672H286.539V917.891H288.258V919.141H291.102V917.266H292.836ZM283.383 922.734H286.539V921H283.383V922.734ZM283.523 926.5V925.141H292.836V928.766H285.273V929.844H293.289V931.219H283.539V927.484H291.102V926.5H283.523ZM288.258 921.703H291.102V920.453H288.258V921.703ZM233.086 941.266V946H234.992V947.438H233.086V952.297H231.352V941.266H233.086ZM221.773 949.469C222.828 949.469 224.055 949.461 225.336 949.422V948.523C223.766 948.328 222.766 947.555 222.773 946.422C222.766 945.039 224.133 944.219 226.18 944.234C228.234 944.219 229.586 945.039 229.586 946.422C229.586 947.547 228.617 948.312 227.07 948.523V949.336C228.273 949.266 229.484 949.156 230.617 948.984L230.758 950.203C227.766 950.766 224.398 950.805 221.961 950.828L221.773 949.469ZM222.133 943.766V942.5H225.336V941.219H227.07V942.5H230.242V943.766H222.133ZM223.805 955.109V951.562H225.539V953.703H233.586V955.109H223.805ZM224.445 946.422C224.43 947.031 225.086 947.391 226.18 947.391C227.273 947.391 227.93 947.031 227.93 946.422C227.93 945.758 227.273 945.398 226.18 945.406C225.086 945.398 224.43 945.758 224.445 946.422ZM247.555 941.281V949.531H245.82V947.969H242.461V946.562H245.82V945.047H242.594C241.703 947.289 239.641 948.859 236.57 949.719L235.867 948.344C239.172 947.453 240.938 945.773 241.203 943.672H236.617V942.266H243.102C243.102 942.758 243.062 943.227 242.984 943.672H245.82V941.281H247.555ZM238.086 952.5C238.086 950.766 239.984 949.695 242.883 949.688C245.742 949.695 247.648 950.766 247.648 952.5C247.648 954.234 245.742 955.32 242.883 955.312C239.984 955.32 238.086 954.234 238.086 952.5ZM239.82 952.5C239.82 953.43 240.984 953.938 242.883 953.938C244.75 953.938 245.906 953.43 245.914 952.5C245.906 951.555 244.75 951.047 242.883 951.047C240.984 951.047 239.82 951.555 239.82 952.5ZM260.695 941.266V945.406H262.664V946.844H260.695V951.594H258.961V941.266H260.695ZM249.711 945.766C249.703 943.68 251.375 942.211 253.523 942.203C255.672 942.211 257.32 943.68 257.336 945.766C257.32 947.82 255.672 949.312 253.523 949.312C251.375 949.312 249.703 947.82 249.711 945.766ZM251.414 945.766C251.406 946.984 252.344 947.789 253.523 947.781C254.719 947.789 255.625 946.984 255.633 945.766C255.625 944.516 254.719 943.719 253.523 943.719C252.344 943.719 251.406 944.516 251.414 945.766ZM251.648 955.109V950.516H253.383V953.703H261.258V955.109H251.648ZM275.211 941.281V951.594H273.477V946.422H270.977V945.016H273.477V941.281H275.211ZM263.352 948.547C265.602 947.805 266.805 945.961 266.805 944.078V943.703H263.867V942.297H271.492V943.703H268.57V944.094C268.57 945.789 269.711 947.547 271.898 948.266L271.023 949.656C269.445 949.117 268.328 948.039 267.711 946.703C267.094 948.188 265.914 949.375 264.242 949.953L263.352 948.547ZM265.945 955.109V950.688H267.68V953.703H275.57V955.109H265.945ZM284.82 942.094V943.5H279.758V944.812H284.414V946.172H279.758V947.562C282.398 947.562 284.008 947.516 285.867 947.203L286.039 948.562C284.016 948.914 282.242 948.953 279.195 948.938H277.992V942.094H284.82ZM279.602 955.219V950.297H288.977V955.219H279.602ZM281.32 953.812H287.273V951.641H281.32V953.812ZM287.227 949.672V941.281H288.977V949.672H287.227Z" fill="#222222"/>
<rect x="173.5" y="896.5" width="165" height="79" rx="7.5" stroke="#E1E6EF"/>
<rect y="714" width="339" height="50" rx="8" fill="#4B84F0"/>
<path d="M129.381 740.784H132.261V737.696H129.381V740.784ZM129.381 736.096H132.261V732.736H134.421V742.048L132.261 742.368H127.221V732.736H129.381V736.096ZM138.757 731.76V746.08L136.581 746.4V732.08L138.757 731.76ZM150.375 731.984V736.48H151.495V732.08L153.527 731.76V746.08L151.495 746.4V738.096H150.375V745.616L148.391 745.936V732.304L150.375 731.984ZM143.351 738.032C143.463 737.776 143.479 737.312 143.479 736.976V734.384H141.447V732.832H147.591L147.351 734.384H145.527V736.928C145.527 737.264 145.511 737.664 145.639 737.952C146.055 738.88 147.335 740.784 148.199 741.824L146.839 743.056C146.167 742.224 145.223 740.944 144.567 739.968C143.847 741.056 142.935 742.336 142.055 743.392L140.711 742.224C141.815 740.896 142.855 739.104 143.351 738.032ZM157.434 732.48H167.098V738.096L164.89 738.496H157.434V732.48ZM169.226 740.032L168.906 741.616H163.514V746.208L161.274 746.528V741.616H155.354V740.032H169.226ZM159.658 736.912H164.89V734.08H159.658V736.912ZM175.916 736.816V734.288H171.036V732.704H178.108V738.384H173.26V740.944H174.412C175.868 740.944 178.092 740.88 179.628 740.56V742.144C177.996 742.416 175.724 742.528 174.22 742.528H171.036V736.816H175.916ZM182.444 731.76V746.08L180.268 746.4V732.08L182.444 731.76ZM198.351 742.672L198.031 744.304H184.479V742.672H198.351ZM192.559 732.352V734.784C192.559 735.12 192.591 735.52 192.847 735.728C193.983 736.688 196.079 738.272 197.471 739.184L196.287 740.528C194.879 739.632 192.543 738.032 191.455 737.056C190.335 738.016 188.047 739.696 186.511 740.64L185.311 739.312C186.799 738.336 188.799 736.864 189.919 735.856C190.175 735.632 190.271 735.216 190.271 734.88V732.672L192.559 732.352ZM200.673 738.816V737.216C202.769 737.216 206.017 737.136 208.513 736.928C208.625 736.016 208.705 735.104 208.737 734.256H200.897V732.672H210.993C210.961 735.2 210.577 739.008 209.937 741.536H207.681C207.905 740.672 208.129 739.648 208.289 738.56C205.825 738.736 202.849 738.816 200.673 738.816ZM212.913 742.48L212.593 744.112H199.041V742.48H212.913Z" fill="white"/>
<path d="M7.506 142.14V144.102H10.764L10.494 145.902H7.506V146.532C7.506 146.91 7.56 147.324 7.83 147.594C8.766 148.548 9.9 149.574 11.178 150.618L9.738 152.004C8.424 151.014 7.254 150.078 6.246 149.088C5.292 150.132 3.978 151.338 2.592 152.418L1.08 151.104C2.412 150.006 3.654 148.8 4.554 147.738C4.806 147.432 4.95 147.018 4.95 146.64V145.902H1.602V144.102H4.95V142.5L7.506 142.14ZM12.132 142.59L14.58 142.23V158.34L12.132 158.7V142.59ZM3.366 155.712H0.99V153.93H4.968V151.32H7.488V153.876C8.82 153.804 10.296 153.678 11.466 153.462V155.262C8.892 155.604 6.138 155.712 3.366 155.712ZM32.4568 154.542L32.0968 156.378H16.8508V154.542H21.7648V149.124H24.2848V154.542H32.4568ZM27.7588 144.966H18.7588V143.184H30.2968C30.2608 146.028 29.8648 150.204 29.2168 153.012H26.7148C27.2908 150.456 27.6868 147.18 27.7588 144.966ZM44.8976 152.346V150.168H41.6576V148.368H44.8976V146.658H42.1256C40.8836 149.34 37.7516 151.554 34.8176 152.436L33.6476 150.87C37.2296 149.88 40.0916 146.982 40.0916 145.092V144.84H34.5836V143.04H42.6836V144.282C42.6836 144.48 42.6656 144.678 42.6476 144.858H44.8976V142.59L47.3456 142.23V151.986L44.8976 152.346ZM43.6556 152.454C45.6176 152.454 47.3996 153.246 47.3996 155.676C47.3996 158.124 45.6176 158.916 43.6556 158.916H39.8036C37.7696 158.916 35.9516 158.124 35.9516 155.676C35.9516 153.246 37.7696 152.454 39.8036 152.454H43.6556ZM43.4216 154.236H40.0016C39.0296 154.236 38.3636 154.632 38.3636 155.676C38.3636 156.738 39.0296 157.134 40.0016 157.134H43.4216C44.3216 157.134 44.9876 156.738 44.9876 155.676C44.9876 154.632 44.3216 154.236 43.4216 154.236ZM61.2804 152.184V149.79H58.4904V149.214C57.7884 150.546 56.2224 151.248 54.5124 151.248C52.1904 151.248 50.1384 149.952 50.1384 147.54V146.478C50.1384 144.066 52.1904 142.77 54.5124 142.77C56.2224 142.77 57.7884 143.472 58.4904 144.822V143.868H61.2804V142.59L63.7104 142.23V151.824L61.2804 152.184ZM60.0384 152.454C62.0004 152.454 63.7824 153.246 63.7824 155.676C63.7824 158.124 62.0004 158.916 60.0384 158.916H56.1864C54.1524 158.916 52.3344 158.124 52.3344 155.676C52.3344 153.246 54.1524 152.454 56.1864 152.454H60.0384ZM59.8044 154.236H56.3844C55.4124 154.236 54.7464 154.632 54.7464 155.676C54.7464 156.738 55.4124 157.134 56.3844 157.134H59.8044C60.7044 157.134 61.3704 156.738 61.3704 155.676C61.3704 154.632 60.7044 154.236 59.8044 154.236ZM56.4564 147.468V146.55C56.4564 145.29 55.6104 144.57 54.5124 144.57C53.4144 144.57 52.5684 145.29 52.5684 146.55V147.468C52.5684 148.728 53.4144 149.448 54.5124 149.448C55.6104 149.448 56.4564 148.728 56.4564 147.468ZM58.8864 147.54C58.8864 147.702 58.8684 147.846 58.8504 147.99H61.2804V145.65H58.7964C58.8504 145.92 58.8864 146.19 58.8864 146.478V147.54ZM75.5933 144.93H72.6953V146.892C72.6953 147.27 72.7673 147.684 73.0193 147.954C74.1353 149.196 75.2693 150.258 76.5293 151.32L75.0893 152.706C73.8113 151.68 72.6053 150.618 71.4713 149.448C70.3373 150.69 68.9873 151.986 67.6733 153.102L66.1613 151.788C67.4213 150.654 68.7173 149.538 69.8153 148.098C70.0493 147.792 70.2113 147.378 70.2113 147V144.93H66.9713V143.148H75.9533L75.5933 144.93ZM80.1113 142.23V153.696L77.6633 154.056V142.59L80.1113 142.23ZM80.2193 158.628H69.6533V153.426H72.1553V156.828H80.5793L80.2193 158.628Z" fill="#282828"/>
<rect y="182" width="339" height="50" rx="8" fill="#4B84F0"/>
<path d="M112.361 210.992L112.041 212.832H104.713V200.416H112.169V202.24H106.985V205.488H111.785V207.344H106.985V210.992H112.361ZM117.218 205.632H119.41C121.17 205.632 122.418 207.04 122.418 209.024C122.418 211.632 120.626 212.832 117.986 212.832H113.874V210.992H117.794C119.218 210.992 120.146 210.48 120.146 209.136C120.146 208.112 119.618 207.456 118.818 207.456H116.85C114.994 207.456 113.65 206.048 113.65 204.128C113.65 201.584 115.09 200.416 117.746 200.416H121.602L121.266 202.24H117.938C116.674 202.24 115.906 202.736 115.906 204.016C115.906 205.04 116.37 205.632 117.218 205.632ZM130.332 212.928H128.972C125.42 212.928 123.724 211.408 123.724 208.192V205.152C123.724 202.048 125.468 200.416 128.956 200.416H132.38L132.044 202.288H129.1C126.764 202.288 125.98 203.536 125.98 205.488V207.84C125.98 209.92 126.62 211.072 129.036 211.072H130.332V207.6H128.268V205.808H132.524V212.608L130.332 212.928ZM144.206 208.752V206.816H141.326V205.216H144.206V203.696H141.742C140.638 206.08 137.854 208.048 135.246 208.832L134.206 207.44C137.39 206.56 139.934 203.984 139.934 202.304V202.08H135.038V200.48H142.238V201.584C142.238 201.76 142.222 201.936 142.206 202.096H144.206V200.08L146.382 199.76V208.432L144.206 208.752ZM143.102 208.848C144.846 208.848 146.43 209.552 146.43 211.712C146.43 213.888 144.846 214.592 143.102 214.592H139.678C137.87 214.592 136.254 213.888 136.254 211.712C136.254 209.552 137.87 208.848 139.678 208.848H143.102ZM142.894 210.432H139.854C138.99 210.432 138.398 210.784 138.398 211.712C138.398 212.656 138.99 213.008 139.854 213.008H142.894C143.694 213.008 144.286 212.656 144.286 211.712C144.286 210.784 143.694 210.432 142.894 210.432ZM158.768 208.608V206.48H156.288V205.968C155.664 207.152 154.272 207.776 152.752 207.776C150.688 207.776 148.864 206.624 148.864 204.48V203.536C148.864 201.392 150.688 200.24 152.752 200.24C154.272 200.24 155.664 200.864 156.288 202.064V201.216H158.768V200.08L160.928 199.76V208.288L158.768 208.608ZM157.664 208.848C159.408 208.848 160.992 209.552 160.992 211.712C160.992 213.888 159.408 214.592 157.664 214.592H154.24C152.432 214.592 150.816 213.888 150.816 211.712C150.816 209.552 152.432 208.848 154.24 208.848H157.664ZM157.456 210.432H154.416C153.552 210.432 152.96 210.784 152.96 211.712C152.96 212.656 153.552 213.008 154.416 213.008H157.456C158.256 213.008 158.848 212.656 158.848 211.712C158.848 210.784 158.256 210.432 157.456 210.432ZM154.48 204.416V203.6C154.48 202.48 153.728 201.84 152.752 201.84C151.776 201.84 151.024 202.48 151.024 203.6V204.416C151.024 205.536 151.776 206.176 152.752 206.176C153.728 206.176 154.48 205.536 154.48 204.416ZM156.64 204.48C156.64 204.624 156.624 204.752 156.608 204.88H158.768V202.8H156.56C156.608 203.04 156.64 203.28 156.64 203.536V204.48ZM170.963 199.392V201.136H175.107L174.787 202.736H170.963V202.976C170.963 203.36 170.995 203.728 171.251 203.872C172.499 204.592 174.355 205.504 175.875 206.192L174.851 207.6C173.315 206.944 171.171 205.92 169.907 205.232C168.643 205.952 166.659 206.928 164.931 207.696L163.891 206.304C165.587 205.536 167.171 204.752 168.403 203.968C168.659 203.808 168.755 203.424 168.755 203.04V202.736H164.819V201.136H168.755V199.712L170.963 199.392ZM176.515 210H171.123V214.208L168.883 214.528V210H162.963V208.4H176.835L176.515 210ZM186.053 202.16H183.477V203.904C183.477 204.24 183.541 204.608 183.765 204.848C184.757 205.952 185.765 206.896 186.885 207.84L185.605 209.072C184.469 208.16 183.397 207.216 182.389 206.176C181.381 207.28 180.181 208.432 179.013 209.424L177.669 208.256C178.789 207.248 179.941 206.256 180.917 204.976C181.125 204.704 181.269 204.336 181.269 204V202.16H178.389V200.576H186.373L186.053 202.16ZM190.069 199.76V209.952L187.893 210.272V200.08L190.069 199.76ZM190.165 214.336H180.773V209.712H182.997V212.736H190.485L190.165 214.336ZM204.616 199.76V214.24L202.456 214.56V200.08L204.616 199.76ZM198.04 209.344V213.776L195.864 214.096V209.408H192.552V207.808H195.432C197.368 207.808 199.912 207.696 201.864 207.344V208.976C200.664 209.168 199.32 209.28 198.04 209.344ZM200.92 203.232V203.728C200.92 205.776 199.128 206.88 197.144 206.88C195.16 206.88 193.368 205.776 193.368 203.728V203.232C193.368 201.184 195.16 200.08 197.144 200.08C199.128 200.08 200.92 201.184 200.92 203.232ZM198.76 203.632V203.328C198.76 202.272 198.04 201.68 197.144 201.68C196.248 201.68 195.528 202.272 195.528 203.328V203.632C195.528 204.688 196.248 205.28 197.144 205.28C198.04 205.28 198.76 204.688 198.76 203.632ZM215.194 203.088C215.194 204.944 213.53 205.984 211.642 205.984C209.754 205.984 208.09 204.944 208.09 203.088V202.736C208.09 200.88 209.754 199.84 211.642 199.84C213.53 199.84 215.194 200.88 215.194 202.736V203.088ZM217.018 210.816V209.872H213.738V208.352H217.018V200.08L219.178 199.76V210.496L217.018 210.816ZM219.274 214.336H209.77V210.72H211.978V212.736H219.594L219.274 214.336ZM212.506 207.984V210.336H210.314V208.08H207.114V206.544H210.49C212.058 206.544 214.362 206.4 216.426 205.984V207.552C215.21 207.776 213.882 207.904 212.506 207.984ZM213.098 203.072V202.752C213.098 201.872 212.442 201.376 211.642 201.376C210.842 201.376 210.186 201.872 210.186 202.752V203.072C210.186 203.952 210.842 204.448 211.642 204.448C212.442 204.448 213.098 203.952 213.098 203.072ZM222.589 205.584C222.589 204.096 224.013 202.896 226.237 202.896C228.461 202.896 229.885 204.096 229.885 205.584V206.096C229.885 207.28 228.973 208.288 227.485 208.656V210.256C228.653 210.192 229.949 210.08 230.989 209.904V211.488C228.701 211.808 226.253 211.904 223.789 211.904H221.677V210.304H225.229V208.704C223.581 208.4 222.589 207.344 222.589 206.096V205.584ZM231.581 200.08L233.741 199.76V214.08L231.581 214.4V200.08ZM230.333 202.576H221.901V200.976H225.133V199.92L227.341 199.6V200.976H230.653L230.333 202.576ZM227.805 205.728C227.805 204.944 227.165 204.416 226.237 204.416C225.309 204.416 224.669 204.944 224.669 205.728V205.952C224.669 206.736 225.309 207.264 226.237 207.264C227.165 207.264 227.805 206.736 227.805 205.952V205.728Z" fill="white"/>
</svg>
