<svg width="1336" height="229" viewBox="0 0 1336 229" fill="none" xmlns="http://www.w3.org/2000/svg">
<rect x="1206" width="130" height="80" rx="16" fill="#FF8D24"/>
<path d="M1231.53 45.438H1239.62V41.852H1234.39V30.808H1237.42V34.196H1244.64V30.808H1247.67V41.302L1244.64 41.852H1242.79V45.438H1250.6L1250.16 47.682H1231.53V45.438ZM1237.42 39.608H1244.64V36.44H1237.42V39.608ZM1262.55 35.582V36.858C1262.55 39.806 1260.08 41.39 1257.31 41.39C1254.54 41.39 1252.08 39.806 1252.08 36.858V35.582C1252.08 32.634 1254.54 31.05 1257.31 31.05C1260.08 31.05 1262.55 32.634 1262.55 35.582ZM1265.21 30.61L1268.25 30.17V35.296H1271.41L1270.97 37.606H1268.25V44.184L1265.21 44.624V30.61ZM1268.53 50.212H1255.46V43.81H1258.5V48.012H1268.97L1268.53 50.212ZM1259.58 36.77V35.67C1259.58 34.13 1258.59 33.25 1257.31 33.25C1256.04 33.25 1255.05 34.13 1255.05 35.67V36.77C1255.05 38.31 1256.04 39.19 1257.31 39.19C1258.59 39.19 1259.58 38.31 1259.58 36.77ZM1284.31 42.666C1286.71 42.666 1288.89 43.634 1288.89 46.604C1288.89 49.596 1286.71 50.564 1284.31 50.564H1279.6C1277.12 50.564 1274.89 49.596 1274.89 46.604C1274.89 43.634 1277.12 42.666 1279.6 42.666H1284.31ZM1283.3 33.316H1279.76V34.548C1279.76 35.01 1279.84 35.516 1280.15 35.846C1281.52 37.364 1282.9 38.662 1284.44 39.96L1282.68 41.654C1281.12 40.4 1279.65 39.102 1278.26 37.672C1276.87 39.19 1275.22 40.774 1273.62 42.138L1271.77 40.532C1273.31 39.146 1274.89 37.782 1276.24 36.022C1276.52 35.648 1276.72 35.142 1276.72 34.68V33.316H1272.78V31.116H1283.74L1283.3 33.316ZM1288.82 30.17V41.874L1285.83 42.314V30.61L1288.82 30.17ZM1284.02 44.844H1279.84C1278.66 44.844 1277.84 45.328 1277.84 46.604C1277.84 47.902 1278.66 48.386 1279.84 48.386H1284.02C1285.12 48.386 1285.94 47.902 1285.94 46.604C1285.94 45.328 1285.12 44.844 1284.02 44.844ZM1302.31 30.918L1304.99 30.478V49.222L1302.31 49.662V42.27H1299.58V40.092H1302.31V36.902H1300.24C1299.38 40.884 1297.14 44.052 1293.84 46.032L1292.15 44.14C1295.8 42.006 1297.73 37.98 1297.73 34.152V33.778H1292.96V31.6H1300.64V33.162C1300.64 33.69 1300.62 34.196 1300.57 34.702H1302.31V30.918ZM1306.23 30.61L1309.02 30.17V49.86L1306.23 50.3V30.61Z" fill="white"/>
<rect x="1271" y="80" width="1" height="60" fill="#C4C4C4"/>
<rect x="1206.5" y="141.5" width="129" height="87" rx="15.5" fill="#F5F5F5"/>
<path d="M1256.72 177.266H1251.09V174.516H1255.25V167.203H1253.52V169.516H1246.97V167.203H1245.23V174.516H1249.38V177.266H1243.81V178.688H1256.72V177.266ZM1246.97 173.109V170.906H1253.52V173.109H1246.97ZM1268.78 166.266H1267.05V176.594H1268.78V171.844H1270.75V170.406H1268.78V166.266ZM1257.8 170.766C1257.79 172.82 1259.46 174.312 1261.61 174.312C1263.76 174.312 1265.41 172.82 1265.42 170.766C1265.41 168.68 1263.76 167.211 1261.61 167.203C1259.46 167.211 1257.79 168.68 1257.8 170.766ZM1259.5 170.766C1259.49 169.516 1260.43 168.719 1261.61 168.719C1262.8 168.719 1263.71 169.516 1263.72 170.766C1263.71 171.984 1262.8 172.789 1261.61 172.781C1260.43 172.789 1259.49 171.984 1259.5 170.766ZM1259.73 180.109H1269.34V178.703H1261.47V175.516H1259.73V180.109ZM1283.23 166.281H1281.48V174.703H1283.23V166.281ZM1271.58 173.172L1272.48 174.547C1274.16 173.977 1275.36 172.789 1275.99 171.312C1276.63 172.633 1277.8 173.672 1279.39 174.172L1280.28 172.812C1278.03 172.117 1276.83 170.445 1276.83 168.703V168.688H1279.8V167.281H1272.03V168.688H1275.08V168.703C1275.06 170.586 1273.86 172.414 1271.58 173.172ZM1273.62 177.703C1273.62 179.43 1275.46 180.414 1278.45 180.406C1281.43 180.414 1283.27 179.43 1283.27 177.703C1283.27 175.984 1281.43 174.984 1278.45 174.984C1275.46 174.984 1273.62 175.984 1273.62 177.703ZM1275.38 177.703C1275.38 176.836 1276.47 176.344 1278.45 176.344C1280.42 176.344 1281.55 176.836 1281.56 177.703C1281.55 178.586 1280.42 179.07 1278.45 179.062C1276.47 179.07 1275.38 178.586 1275.38 177.703ZM1297.48 166.266H1295.83V180.391H1297.48V166.266ZM1285.16 176.172L1286.17 177.406C1288.82 175.844 1290.29 173.828 1290.96 171.484H1292.91V173.578H1290.7V175H1292.91V179.719H1294.56V166.609H1292.91V170.062H1291.26C1291.36 169.391 1291.41 168.695 1291.41 167.984H1285.91V169.391H1289.69C1289.42 172.234 1288.08 174.445 1285.16 176.172ZM1256.7 197.25H1243.8V198.641H1249.48V201.234H1251.25V198.641H1256.7V197.25ZM1245.17 193.469C1245.16 195.25 1247.2 196.352 1250.23 196.344C1253.29 196.352 1255.3 195.25 1255.3 193.469C1255.3 191.695 1253.29 190.578 1250.23 190.578C1247.2 190.578 1245.16 191.695 1245.17 193.469ZM1245.38 204.109H1255.28V202.688H1247.12V199.922H1245.38V204.109ZM1247.05 193.469C1247.03 192.5 1248.3 191.953 1250.23 191.953C1252.19 191.953 1253.45 192.5 1253.44 193.469C1253.45 194.406 1252.19 194.953 1250.23 194.953C1248.3 194.953 1247.03 194.406 1247.05 193.469ZM1261.56 191.062C1259.43 191.055 1257.83 192.484 1257.83 194.484C1257.83 196.469 1259.43 197.898 1261.56 197.891C1262.7 197.898 1263.68 197.477 1264.35 196.781H1267.73V198.578H1269.47V190.266H1267.73V192.188H1264.36C1263.7 191.477 1262.7 191.055 1261.56 191.062ZM1259.48 194.484C1259.48 193.289 1260.35 192.547 1261.56 192.547C1262.73 192.547 1263.6 193.289 1263.61 194.484C1263.6 195.641 1262.73 196.422 1261.56 196.422C1260.35 196.422 1259.48 195.641 1259.48 194.484ZM1259.89 201.625C1259.88 203.359 1261.73 204.375 1264.69 204.375C1267.66 204.375 1269.51 203.359 1269.52 201.625C1269.51 199.883 1267.66 198.867 1264.69 198.875C1261.73 198.867 1259.88 199.883 1259.89 201.625ZM1261.59 201.625C1261.58 200.703 1262.73 200.211 1264.69 200.203C1266.69 200.211 1267.81 200.703 1267.81 201.625C1267.81 202.523 1266.69 203.008 1264.69 203.016C1262.73 203.008 1261.58 202.523 1261.59 201.625ZM1265.14 193.578H1267.73V195.375H1265.15C1265.22 195.094 1265.27 194.797 1265.27 194.484C1265.27 194.164 1265.22 193.867 1265.14 193.578ZM1283.27 190.266H1281.52V204.391H1283.27V190.266ZM1271.56 200.5L1272.47 201.891C1277.41 199.539 1279.05 195.969 1279.05 191.766H1272.28V193.141H1277.28C1276.97 196.352 1275.27 198.742 1271.56 200.5ZM1297.02 190.906H1286.47V192.297H1290.53C1290.37 193.625 1288.66 194.898 1285.94 195.219L1286.58 196.594C1289.11 196.289 1290.96 195.164 1291.72 193.648C1292.48 195.172 1294.34 196.289 1296.88 196.594L1297.53 195.219C1294.8 194.898 1293.08 193.633 1292.92 192.297H1297.02V190.906ZM1285.28 198.781H1291.02V201.359H1292.73V198.781H1298.19V197.375H1285.28V198.781ZM1286.84 204.109H1296.77V202.703H1288.58V200.062H1286.84V204.109Z" fill="#222222"/>
<rect x="1206.5" y="141.5" width="129" height="87" rx="15.5" stroke="#E1E6EF"/>
<rect x="828" width="280" height="80" rx="16" fill="#FF8D24"/>
<path d="M928.525 45.438H936.489V41.214H931.385V31.292H944.827V40.664L941.791 41.214H939.657V45.438H947.599L947.159 47.682H928.525V45.438ZM934.443 39.014H941.791V33.47H934.443V39.014ZM961.881 41.852V44.074C959.989 44.426 957.591 44.624 955.061 44.624H950.353V31.424H953.389V42.446H955.061C957.327 42.446 959.901 42.226 961.881 41.852ZM965.775 30.17V49.86L962.783 50.3V30.61L965.775 30.17ZM981.376 42.314V44.514C979.66 44.888 977.218 45.02 974.996 45.02H970.024V31.424H979.418V33.602H973.082V37.078H978.78V39.278H973.082V42.82H975.282C977.042 42.82 979.352 42.754 981.376 42.314ZM985.798 30.17V49.86L982.806 50.3V38.882H979.792V36.66H982.806V30.61L985.798 30.17ZM996.845 35.318V33.36H990.135V31.16H999.859V37.474H993.193V39.432H994.777C996.757 39.432 999.815 39.322 1001.93 38.926V41.104C999.661 41.5 996.559 41.632 994.513 41.632H990.135V35.318H996.845ZM1005.82 30.17V41.852L1002.83 42.292V30.61L1005.82 30.17ZM1001.33 42.666C1003.73 42.666 1005.91 43.634 1005.91 46.604C1005.91 49.596 1003.73 50.564 1001.33 50.564H996.625C994.139 50.564 991.917 49.596 991.917 46.604C991.917 43.634 994.139 42.666 996.625 42.666H1001.33ZM1001.05 44.844H996.867C995.679 44.844 994.865 45.328 994.865 46.604C994.865 47.902 995.679 48.386 996.867 48.386H1001.05C1002.15 48.386 1002.96 47.902 1002.96 46.604C1002.96 45.328 1002.15 44.844 1001.05 44.844Z" fill="white"/>
<rect x="828.5" y="140.5" width="129" height="87" rx="15.5" fill="#F5F5F5"/>
<path d="M877.641 165.266H875.906V168.781H873.5V170.203H875.906V173.656H877.641V165.266ZM865.766 172.25L866.672 173.625C868.352 173.031 869.531 171.812 870.148 170.312C870.773 171.641 871.883 172.719 873.453 173.25L874.328 171.875C872.141 171.141 871 169.406 871 167.688V167.594H873.922V166.188H866.297V167.594H869.234V167.703C869.234 169.57 868.039 171.469 865.766 172.25ZM868.062 176.703C868.047 178.398 869.883 179.383 872.859 179.391C875.852 179.383 877.68 178.398 877.688 176.703C877.68 175.008 875.852 174.016 872.859 174.016C869.883 174.016 868.047 175.008 868.062 176.703ZM869.781 176.703C869.773 175.82 870.898 175.344 872.859 175.344C874.836 175.344 875.953 175.82 875.953 176.703C875.953 177.578 874.836 178.055 872.859 178.047C870.898 178.055 869.773 177.578 869.781 176.703ZM892.547 176.266H886.922V173.516H891.078V166.203H889.344V168.516H882.797V166.203H881.062V173.516H885.203V176.266H879.641V177.688H892.547V176.266ZM882.797 172.109V169.906H889.344V172.109H882.797ZM906.375 176.266H900.75V173.516H904.906V166.203H903.172V168.516H896.625V166.203H894.891V173.516H899.031V176.266H893.469V177.688H906.375V176.266ZM896.625 172.109V169.906H903.172V172.109H896.625ZM919.547 167.156H914.578V165.453H912.859V167.156H907.875V168.562H919.547V167.156ZM907.297 177.875H920.203V176.469H914.578V174.734C916.984 174.539 918.477 173.555 918.469 172C918.477 170.297 916.625 169.281 913.719 169.281C910.773 169.281 908.945 170.297 908.953 172C908.945 173.562 910.422 174.547 912.859 174.734V176.469H907.297V177.875ZM910.734 172C910.727 171.109 911.797 170.648 913.719 170.641C915.602 170.648 916.688 171.109 916.688 172C916.688 172.906 915.602 173.367 913.719 173.375C911.797 173.367 910.727 172.906 910.734 172ZM877.531 189.906H866.984V191.297H871.047C870.883 192.625 869.18 193.898 866.453 194.219L867.094 195.594C869.625 195.289 871.477 194.164 872.234 192.648C872.992 194.172 874.859 195.289 877.391 195.594L878.047 194.219C875.32 193.898 873.594 192.633 873.438 191.297H877.531V189.906ZM865.797 197.781H871.531V200.359H873.25V197.781H878.703V196.375H865.797V197.781ZM867.359 203.109H877.281V201.703H869.094V199.062H867.359V203.109ZM887 190.438V189.719H885.172V190.438C885.172 192.227 883.188 194.016 880.203 194.406L880.891 195.812C883.266 195.453 885.164 194.273 886.086 192.68C887.008 194.273 888.914 195.453 891.312 195.812L892 194.406C888.984 194.016 886.992 192.211 887 190.438ZM879.641 198.469H885.188V203.391H886.906V198.469H892.516V197.031H879.641V198.469ZM905.297 189.266H903.562V192.625H901.125V194.047H903.562V197.469H905.297V189.266ZM893.438 196.062L894.328 197.422C896 196.867 897.172 195.688 897.797 194.203C898.414 195.539 899.531 196.617 901.109 197.156L901.984 195.781C899.797 195.039 898.656 193.289 898.656 191.594V191.469H901.578V190.062H893.953V191.469H896.891V191.578C896.891 193.445 895.688 195.32 893.438 196.062ZM895.906 203.219H905.297V198.078H895.906V203.219ZM897.641 201.812V199.453H903.594V201.812H897.641ZM914.609 190.125H908.156V191.531H912.75C912.43 193.594 910.555 195.25 907.391 196.109L908.094 197.469C912.203 196.32 914.602 193.766 914.609 190.125ZM909.828 203.203H919.125V197.797H909.828V203.203ZM911.531 201.828V199.172H917.406V201.828H911.531ZM914.672 194.156H917.391V197.234H919.125V189.281H917.391V192.734H914.672V194.156Z" fill="#222222"/>
<rect x="828.5" y="140.5" width="129" height="87" rx="15.5" stroke="#E1E6EF"/>
<rect x="978.5" y="140.5" width="129" height="87" rx="15.5" fill="#F5F5F5"/>
<path d="M1016.31 166.688H1014.28V178H1016.31V166.688ZM1017.92 168.391H1021.42V178H1023.45V168.391H1026.94V166.688H1017.92V168.391ZM1043.52 165.281H1041.77V175.484H1043.52V165.281ZM1032 169.734C1032 171.82 1033.66 173.281 1035.81 173.281C1037.96 173.281 1039.62 171.82 1039.61 169.734C1039.62 167.68 1037.96 166.211 1035.81 166.203C1033.66 166.211 1032 167.68 1032 169.734ZM1033.7 169.734C1033.7 168.516 1034.6 167.719 1035.81 167.719C1036.99 167.719 1037.91 168.516 1037.91 169.734C1037.91 170.984 1036.99 171.766 1035.81 171.766C1034.6 171.766 1033.7 170.984 1033.7 169.734ZM1034.17 179.109H1043.91V177.703H1035.92V174.453H1034.17V179.109ZM1058.48 176.234H1045.58V177.688H1058.48V176.234ZM1046.64 167.969H1048.67V172.469H1046.69V173.844H1057.31V172.469H1055.3V167.969H1057.36V166.578H1046.64V167.969ZM1050.41 172.469V167.969H1053.58V172.469H1050.41ZM1070.47 165.266H1068.75V179.406H1070.47V172.141H1072.64V170.688H1070.47V165.266ZM1059.97 167.906H1064.73V170.438H1060V176.078H1061.16C1063.73 176.078 1065.65 175.984 1067.83 175.594L1067.67 174.188C1065.7 174.531 1063.96 174.625 1061.72 174.641V171.828H1066.47V166.5H1059.97V167.906ZM1028.72 200.266H1023.09V197.516H1027.25V190.203H1025.52V192.516H1018.97V190.203H1017.23V197.516H1021.38V200.266H1015.81V201.688H1028.72V200.266ZM1018.97 196.109V193.906H1025.52V196.109H1018.97ZM1040.78 189.266H1039.05V199.594H1040.78V194.844H1042.75V193.406H1040.78V189.266ZM1029.8 193.766C1029.79 195.82 1031.46 197.312 1033.61 197.312C1035.76 197.312 1037.41 195.82 1037.42 193.766C1037.41 191.68 1035.76 190.211 1033.61 190.203C1031.46 190.211 1029.79 191.68 1029.8 193.766ZM1031.5 193.766C1031.49 192.516 1032.43 191.719 1033.61 191.719C1034.8 191.719 1035.71 192.516 1035.72 193.766C1035.71 194.984 1034.8 195.789 1033.61 195.781C1032.43 195.789 1031.49 194.984 1031.5 193.766ZM1031.73 203.109H1041.34V201.703H1033.47V198.516H1031.73V203.109ZM1051.36 190.312H1044.16V191.75H1049.65C1049.63 192.617 1049.58 193.703 1049.3 195.156L1051.02 195.312C1051.34 193.523 1051.34 192.117 1051.36 191.156V190.312ZM1043.31 196.438L1043.47 197.828C1045.95 197.82 1049.28 197.766 1052.22 197.234L1052.12 195.984C1050.76 196.18 1049.26 196.289 1047.8 196.352V193.531H1046.08V196.406C1045.09 196.422 1044.15 196.43 1043.31 196.438ZM1045.42 203.109H1055.19V201.703H1047.17V198.906H1045.42V203.109ZM1052.95 199.844H1054.73V195.125H1056.56V193.672H1054.73V189.266H1052.95V199.844ZM1069.06 189.266H1067.34V203.406H1069.06V189.266ZM1058.06 191.906H1062.95V194.422H1058.08V200.062H1059.31C1061.85 200.07 1063.96 199.977 1066.36 199.562L1066.2 198.141C1064 198.508 1062.09 198.625 1059.86 198.641V195.797H1064.72V190.5H1058.06V191.906Z" fill="#222222"/>
<rect x="978.5" y="140.5" width="129" height="87" rx="15.5" stroke="#E1E6EF"/>
<rect x="893" y="111" width="0.999993" height="151" transform="rotate(-90 893 111)" fill="#C4C4C4"/>
<rect x="1043" y="110" width="1" height="30" fill="#C4C4C4"/>
<rect x="968" y="80" width="1" height="30" fill="#C4C4C4"/>
<rect x="892" y="110" width="1" height="30" fill="#C4C4C4"/>
<rect width="730" height="80" rx="16" fill="#1B4B66"/>
<path d="M338.263 30.478V37.166H340.243V30.61L343.015 30.17V49.86L340.243 50.3V39.388H338.263V49.222L335.535 49.662V30.918L338.263 30.478ZM333.577 33.778H329.639V42.71H330.761C332.037 42.71 333.467 42.622 334.721 42.336V44.47C333.445 44.734 331.905 44.844 330.299 44.844H326.823V31.6H333.577V33.778ZM364.623 45.438L364.183 47.682H345.549V45.438H350.257V41.808H353.271V45.438H356.857V41.808H359.871V45.438H364.623ZM350.103 33.954H353.095L353.205 38.772H356.967L357.121 33.954H360.135L359.937 38.772H363.127L362.687 40.95H347.441V38.772H350.191L350.103 33.954ZM361.983 33.184H348.145V30.984H361.983V33.184ZM382.82 30.17V49.86L379.85 50.3V30.61L382.82 30.17ZM373.932 40.774V35.604C373.932 34.02 373.382 33.096 371.842 33.096C370.302 33.096 369.752 34.02 369.752 35.604V40.774C369.752 42.358 370.302 43.304 371.842 43.304C373.382 43.304 373.932 42.358 373.932 40.774ZM376.924 35.538V40.862C376.924 43.81 374.9 45.526 371.842 45.526C368.784 45.526 366.76 43.81 366.76 40.862V35.538C366.76 32.59 368.784 30.874 371.842 30.874C374.9 30.874 376.924 32.59 376.924 35.538ZM402.227 30.17V37.694H405.395L404.955 40.158H402.227V49.86L399.213 50.3V30.61L402.227 30.17ZM393.273 31.182V36.968C393.273 37.43 393.405 37.914 393.669 38.266C394.813 39.806 396.551 41.918 398.047 43.59L396.287 45.284C394.747 43.656 392.877 41.588 391.755 40.092C390.457 41.742 388.565 44.074 387.003 45.768L385.155 44.162C386.651 42.424 388.411 40.312 389.709 38.442C389.973 38.068 390.193 37.562 390.193 37.1V31.622L393.273 31.182Z" fill="white"/>
<rect x="0.5" y="141.5" width="129" height="87" rx="15.5" fill="#F5F5F5"/>
<path d="M47.3594 166.281H45.6094V176.484H47.3594V166.281ZM35.8438 170.734C35.8438 172.82 37.5078 174.281 39.6562 174.281C41.8047 174.281 43.4609 172.82 43.4531 170.734C43.4609 168.68 41.8047 167.211 39.6562 167.203C37.5078 167.211 35.8438 168.68 35.8438 170.734ZM37.5469 170.734C37.5391 169.516 38.4453 168.719 39.6562 168.719C40.8359 168.719 41.75 169.516 41.75 170.734C41.75 171.984 40.8359 172.766 39.6562 172.766C38.4453 172.766 37.5391 171.984 37.5469 170.734ZM38.0156 180.109H47.75V178.703H39.7656V175.453H38.0156V180.109ZM54.6094 168.688V168.516H57.5312V167.125H49.9062V168.516H52.8438V168.703C52.8438 170.539 51.6406 172.414 49.3906 173.156L50.2812 174.531C51.9609 173.969 53.1328 172.781 53.75 171.305C54.3672 172.633 55.4844 173.703 57.0625 174.219L57.9375 172.875C55.75 172.141 54.6094 170.414 54.6094 168.688ZM51.625 176.75H59.5156V180.391H61.25V175.359H51.625V176.75ZM57.1094 171.188H59.5156V174.688H61.25V166.266H59.5156V169.766H57.1094V171.188ZM66 177.891H64.0156L63.2031 182.266H64.6875L66 177.891ZM80.5625 172H67.6875V173.375H73.2344V174.438H69.2031V175.75H77.25V176.656H69.2188V180.266H79.3438V178.938H70.9219V177.906H78.9531V174.438H74.9688V173.375H80.5625V172ZM69.3125 171.109H78.9062V166.703H69.3125V171.109ZM71.0156 169.75V168.062H77.1719V169.75H71.0156ZM86.7031 168.688V168.516H89.625V167.125H82V168.516H84.9375V168.703C84.9375 170.539 83.7344 172.414 81.4844 173.156L82.375 174.531C84.0547 173.969 85.2266 172.781 85.8438 171.305C86.4609 172.633 87.5781 173.703 89.1562 174.219L90.0312 172.875C87.8438 172.141 86.7031 170.414 86.7031 168.688ZM83.7188 176.75H91.6094V180.391H93.3438V175.359H83.7188V176.75ZM89.2031 171.188H91.6094V174.688H93.3438V166.266H91.6094V169.766H89.2031V171.188ZM64.5469 201.266H58.9219V198.516H63.0781V191.203H61.3438V193.516H54.7969V191.203H53.0625V198.516H57.2031V201.266H51.6406V202.688H64.5469V201.266ZM54.7969 197.109V194.906H61.3438V197.109H54.7969ZM76.6094 190.266H74.875V200.594H76.6094V195.844H78.5781V194.406H76.6094V190.266ZM65.625 194.766C65.6172 196.82 67.2891 198.312 69.4375 198.312C71.5859 198.312 73.2344 196.82 73.25 194.766C73.2344 192.68 71.5859 191.211 69.4375 191.203C67.2891 191.211 65.6172 192.68 65.625 194.766ZM67.3281 194.766C67.3203 193.516 68.2578 192.719 69.4375 192.719C70.6328 192.719 71.5391 193.516 71.5469 194.766C71.5391 195.984 70.6328 196.789 69.4375 196.781C68.2578 196.789 67.3203 195.984 67.3281 194.766ZM67.5625 204.109H77.1719V202.703H69.2969V199.516H67.5625V204.109Z" fill="#222222"/>
<rect x="0.5" y="141.5" width="129" height="87" rx="15.5" stroke="#E1E6EF"/>
<rect x="150.5" y="141.5" width="129" height="87" rx="15.5" fill="#F5F5F5"/>
<path d="M205.562 166.891C203.398 166.883 201.828 168.273 201.828 170.203C201.828 172.156 203.398 173.547 205.562 173.547C207.406 173.547 208.859 172.477 209.195 170.891H211.734V173.844H213.469V166.266H211.734V169.484H209.18C208.828 167.938 207.391 166.883 205.562 166.891ZM203.484 170.203C203.484 169.07 204.344 168.336 205.562 168.344C206.75 168.336 207.602 169.07 207.609 170.203C207.602 171.336 206.75 172.086 205.562 172.078C204.344 172.086 203.484 171.336 203.484 170.203ZM204.156 180.219H213.469V174.5H211.734V176H205.875V174.5H204.156V180.219ZM205.875 178.812V177.344H211.734V178.812H205.875ZM228.359 174.266H215.453V175.672H221.016V180.375H222.734V175.672H228.359V174.266ZM217.031 172.609H226.781V166.984H217.031V172.609ZM218.734 171.25V168.375H225.047V171.25H218.734ZM206.555 190.281H204.82V192.328H201.445C200.773 191.578 199.773 191.133 198.648 191.125C196.516 191.133 194.914 192.641 194.914 194.75C194.914 196.836 196.516 198.352 198.648 198.359C199.781 198.352 200.781 197.898 201.453 197.141H204.82V200.641H206.555V190.281ZM196.57 194.75C196.57 193.484 197.438 192.672 198.648 192.672C199.805 192.672 200.688 193.484 200.695 194.75C200.688 196.008 199.805 196.812 198.648 196.812C197.438 196.812 196.57 196.008 196.57 194.75ZM197.289 204.109H206.914V202.703H199.023V199.578H197.289V204.109ZM202.211 193.734H204.82V195.734H202.219C202.305 195.422 202.352 195.094 202.352 194.75C202.352 194.391 202.297 194.055 202.211 193.734ZM221.43 197.203H215.836V195.234H214.117V197.203H208.555V198.609H221.43V197.203ZM209.258 194.688L209.883 196.047C212.211 195.695 214.055 194.641 214.961 193.164C215.859 194.648 217.711 195.695 220.023 196.047L220.695 194.688C217.75 194.32 215.852 192.758 215.852 191.031V190.5H214.086V191.031C214.086 192.719 212.172 194.32 209.258 194.688ZM209.977 201.094H218.117V204.391H219.852V199.734H209.977V201.094ZM227.555 192.297V191.031H225.805V192.375C225.797 194.414 224.625 196.297 222.289 197.062L223.211 198.469C224.922 197.867 226.102 196.656 226.727 195.117C227.328 196.453 228.406 197.484 229.945 198.031L230.883 196.672C228.672 195.977 227.547 194.219 227.555 192.297ZM224.633 201.672C224.617 203.391 226.453 204.375 229.43 204.375C232.422 204.375 234.25 203.391 234.258 201.672C234.25 199.953 232.422 198.945 229.43 198.953C226.453 198.945 224.617 199.953 224.633 201.672ZM226.352 201.672C226.344 200.781 227.469 200.305 229.43 200.297C231.406 200.305 232.523 200.781 232.523 201.672C232.523 202.531 231.406 203.008 229.43 203.016C227.469 203.008 226.344 202.531 226.352 201.672ZM229.664 194.422H232.477V198.578H234.211V190.266H232.477V193H229.664V194.422Z" fill="#222222"/>
<rect x="150.5" y="141.5" width="129" height="87" rx="15.5" stroke="#E1E6EF"/>
<rect x="300.5" y="141.5" width="129" height="87" rx="15.5" fill="#F5F5F5"/>
<path d="M350.719 177.266H345.094V174.516H349.25V167.203H347.516V169.516H340.969V167.203H339.234V174.516H343.375V177.266H337.812V178.688H350.719V177.266ZM340.969 173.109V170.906H347.516V173.109H340.969ZM362.781 166.266H361.047V176.594H362.781V171.844H364.75V170.406H362.781V166.266ZM351.797 170.766C351.789 172.82 353.461 174.312 355.609 174.312C357.758 174.312 359.406 172.82 359.422 170.766C359.406 168.68 357.758 167.211 355.609 167.203C353.461 167.211 351.789 168.68 351.797 170.766ZM353.5 170.766C353.492 169.516 354.43 168.719 355.609 168.719C356.805 168.719 357.711 169.516 357.719 170.766C357.711 171.984 356.805 172.789 355.609 172.781C354.43 172.789 353.492 171.984 353.5 170.766ZM353.734 180.109H363.344V178.703H355.469V175.516H353.734V180.109ZM370.516 169.656V167.406H368.781V169.656C368.773 172.266 367.477 174.969 365.203 176.047L366.266 177.438C367.883 176.625 369.039 175.031 369.656 173.109C370.258 174.906 371.359 176.398 372.891 177.172L373.953 175.781C371.766 174.727 370.5 172.18 370.516 169.656ZM374.797 180.391H376.531V173.281H378.703V171.797H376.531V166.266H374.797V180.391ZM390.828 167.562H380.641V168.953H389.078C389.07 170.648 389.07 172.656 388.516 175.406L390.266 175.594C390.812 172.641 390.812 170.68 390.828 168.922V167.562ZM379.297 178.562H392.172V177.141H385.766V172.234H384.047V177.141H379.297V178.562ZM363.797 190.266H362.141V195.797H360.547V190.531H358.953V203.672H360.547V197.188H362.141V204.391H363.797V190.266ZM352.078 201.094H353.031C355 201.078 356.477 201.031 358.188 200.688L358.062 199.266C356.625 199.531 355.359 199.609 353.828 199.625V193.344H357.359V191.938H352.078V201.094ZM378.344 196.969H365.469V198.344H378.344V196.969ZM366.797 193.328C366.797 195.039 368.797 196.062 371.891 196.062C374.992 196.062 376.977 195.039 376.984 193.328C376.977 191.641 374.992 190.594 371.891 190.594C368.797 190.594 366.797 191.641 366.797 193.328ZM366.969 201.828C366.969 203.477 368.805 204.398 371.891 204.391C374.93 204.398 376.773 203.477 376.781 201.828C376.773 200.172 374.93 199.258 371.891 199.266C368.805 199.258 366.969 200.172 366.969 201.828ZM368.609 193.328C368.594 192.43 369.828 191.953 371.891 191.953C373.953 191.953 375.188 192.43 375.188 193.328C375.188 194.234 373.953 194.711 371.891 194.703C369.828 194.711 368.594 194.234 368.609 193.328ZM368.734 201.828C368.727 201 369.836 200.578 371.891 200.578C373.914 200.578 375.031 201 375.047 201.828C375.031 202.633 373.914 203.055 371.891 203.047C369.836 203.055 368.727 202.633 368.734 201.828Z" fill="#222222"/>
<rect x="300.5" y="141.5" width="129" height="87" rx="15.5" stroke="#E1E6EF"/>
<rect x="450.5" y="141.5" width="129" height="87" rx="15.5" fill="#F5F5F5"/>
<path d="M499.938 166.266H498.266V171.734H496.75V166.641H495.125V179.734H496.75V173.141H498.266V180.391H499.938V166.266ZM487.703 176.234L488.703 177.438C492.719 175.148 493.922 171.867 493.922 168.047H488.359V169.438H492.234C491.984 172.266 490.711 174.5 487.703 176.234ZM513.406 166.281H511.656V176.484H513.406V166.281ZM501.891 170.734C501.891 172.82 503.555 174.281 505.703 174.281C507.852 174.281 509.508 172.82 509.5 170.734C509.508 168.68 507.852 167.211 505.703 167.203C503.555 167.211 501.891 168.68 501.891 170.734ZM503.594 170.734C503.586 169.516 504.492 168.719 505.703 168.719C506.883 168.719 507.797 169.516 507.797 170.734C507.797 171.984 506.883 172.766 505.703 172.766C504.492 172.766 503.586 171.984 503.594 170.734ZM504.062 180.109H513.797V178.703H505.812V175.453H504.062V180.109ZM527.297 166.266H525.562V169.781H523.156V171.203H525.562V174.656H527.297V166.266ZM515.422 173.25L516.328 174.625C518.008 174.031 519.188 172.812 519.805 171.312C520.43 172.641 521.539 173.719 523.109 174.25L523.984 172.875C521.797 172.141 520.656 170.406 520.656 168.688V168.594H523.578V167.188H515.953V168.594H518.891V168.703C518.891 170.57 517.695 172.469 515.422 173.25ZM517.719 177.703C517.703 179.398 519.539 180.383 522.516 180.391C525.508 180.383 527.336 179.398 527.344 177.703C527.336 176.008 525.508 175.016 522.516 175.016C519.539 175.016 517.703 176.008 517.719 177.703ZM519.438 177.703C519.43 176.82 520.555 176.344 522.516 176.344C524.492 176.344 525.609 176.82 525.609 177.703C525.609 178.578 524.492 179.055 522.516 179.047C520.555 179.055 519.43 178.578 519.438 177.703ZM542.203 177.266H536.578V174.516H540.734V167.203H539V169.516H532.453V167.203H530.719V174.516H534.859V177.266H529.297V178.688H542.203V177.266ZM532.453 173.109V170.906H539V173.109H532.453ZM514.547 201.266H508.922V198.516H513.078V191.203H511.344V193.516H504.797V191.203H503.062V198.516H507.203V201.266H501.641V202.688H514.547V201.266ZM504.797 197.109V194.906H511.344V197.109H504.797ZM527.719 192.156H522.75V190.453H521.031V192.156H516.047V193.562H527.719V192.156ZM515.469 202.875H528.375V201.469H522.75V199.734C525.156 199.539 526.648 198.555 526.641 197C526.648 195.297 524.797 194.281 521.891 194.281C518.945 194.281 517.117 195.297 517.125 197C517.117 198.562 518.594 199.547 521.031 199.734V201.469H515.469V202.875ZM518.906 197C518.898 196.109 519.969 195.648 521.891 195.641C523.773 195.648 524.859 196.109 524.859 197C524.859 197.906 523.773 198.367 521.891 198.375C519.969 198.367 518.898 197.906 518.906 197Z" fill="#222222"/>
<rect x="450.5" y="141.5" width="129" height="87" rx="15.5" stroke="#E1E6EF"/>
<rect x="600.5" y="141.5" width="129" height="87" rx="15.5" fill="#F5F5F5"/>
<path d="M663.469 166.266H661.734V169.781H659.328V171.203H661.734V174.656H663.469V166.266ZM651.594 173.25L652.5 174.625C654.18 174.031 655.359 172.812 655.977 171.312C656.602 172.641 657.711 173.719 659.281 174.25L660.156 172.875C657.969 172.141 656.828 170.406 656.828 168.688V168.594H659.75V167.188H652.125V168.594H655.062V168.703C655.062 170.57 653.867 172.469 651.594 173.25ZM653.891 177.703C653.875 179.398 655.711 180.383 658.688 180.391C661.68 180.383 663.508 179.398 663.516 177.703C663.508 176.008 661.68 175.016 658.688 175.016C655.711 175.016 653.875 176.008 653.891 177.703ZM655.609 177.703C655.602 176.82 656.727 176.344 658.688 176.344C660.664 176.344 661.781 176.82 661.781 177.703C661.781 178.578 660.664 179.055 658.688 179.047C656.727 179.055 655.602 178.578 655.609 177.703ZM678.375 177.266H672.75V174.516H676.906V167.203H675.172V169.516H668.625V167.203H666.891V174.516H671.031V177.266H665.469V178.688H678.375V177.266ZM668.625 173.109V170.906H675.172V173.109H668.625ZM642.875 194.281V193.094H645.828V191.656H638.062V193.094H641.141V194.281C641.133 196.633 639.766 199.273 637.516 200.344L638.531 201.703C640.156 200.922 641.391 199.266 642.031 197.328C642.664 199.094 643.844 200.609 645.438 201.359L646.406 199.984C644.18 198.945 642.867 196.461 642.875 194.281ZM647.141 204.391H648.875V197.219H651.047V195.766H648.875V190.266H647.141V204.391ZM656.703 192.766V191.141H654.953V192.75C654.953 194.758 653.789 196.648 651.469 197.406L652.438 198.781C654.086 198.203 655.25 197.031 655.875 195.531C656.492 196.891 657.609 197.953 659.172 198.484L660.078 197.109C657.859 196.391 656.688 194.617 656.703 192.766ZM653.734 204.109H663.344V202.703H655.516V199.625H653.734V204.109ZM661.047 200.641H662.781V195.906H664.75V194.438H662.781V190.266H661.047V200.641ZM673.359 191.312H666.156V192.75H671.648C671.633 193.617 671.578 194.703 671.297 196.156L673.016 196.312C673.344 194.523 673.344 193.117 673.359 192.156V191.312ZM665.312 197.438L665.469 198.828C667.945 198.82 671.281 198.766 674.219 198.234L674.125 196.984C672.758 197.18 671.258 197.289 669.797 197.352V194.531H668.078V197.406C667.086 197.422 666.148 197.43 665.312 197.438ZM667.422 204.109H677.188V202.703H669.172V199.906H667.422V204.109ZM674.953 200.844H676.734V196.125H678.562V194.672H676.734V190.266H674.953V200.844ZM691.062 190.266H689.344V204.406H691.062V190.266ZM680.062 192.906H684.953V195.422H680.078V201.062H681.312C683.852 201.07 685.961 200.977 688.359 200.562L688.203 199.141C686 199.508 684.086 199.625 681.859 199.641V196.797H686.719V191.5H680.062V192.906Z" fill="#222222"/>
<rect x="600.5" y="141.5" width="129" height="87" rx="15.5" stroke="#E1E6EF"/>
<rect x="65" y="111" width="1" height="30" fill="#C4C4C4"/>
<rect x="215" y="111" width="1" height="30" fill="#C4C4C4"/>
<rect x="65" y="111" width="0.999974" height="601" transform="rotate(-90 65 111)" fill="#C4C4C4"/>
<rect x="365" y="81" width="1" height="60" fill="#C4C4C4"/>
<rect x="515" y="111" width="1" height="30" fill="#C4C4C4"/>
<rect x="665" y="111" width="1" height="30" fill="#C4C4C4"/>
</svg>
