<svg width="339" height="656" viewBox="0 0 339 656" fill="none" xmlns="http://www.w3.org/2000/svg">
<rect opacity="0.6" x="0.5" y="16.5" width="338" height="149" rx="23.5" stroke="#737373" stroke-linecap="round" stroke-dasharray="3 3"/>
<rect width="84" height="26" transform="translate(120)" fill="#191F26"/>
<path d="M153.116 14.784V20L150.908 20.4H143.66V14.784H145.884V16.208H150.908V14.784H153.116ZM141.468 11.216C141.468 9.488 143.116 8.592 145.116 8.592C147.116 8.592 148.764 9.488 148.764 11.216V11.536C148.764 13.264 147.116 14.208 145.116 14.208C143.116 14.208 141.468 13.264 141.468 11.536V11.216ZM149.052 9.2H150.94V6.08L153.116 5.76V13.904L150.94 14.224V13.344H149.052V11.824H150.94V10.672H149.052V9.2ZM149.212 8.272H140.7V6.704H143.932V5.664L146.14 5.344V6.704H149.532L149.212 8.272ZM146.684 11.28C146.684 10.56 145.996 10.096 145.116 10.096C144.236 10.096 143.548 10.56 143.548 11.28V11.472C143.548 12.176 144.236 12.704 145.116 12.704C145.996 12.704 146.684 12.176 146.684 11.472V11.28ZM145.884 18.832H150.908V17.776H145.884V18.832ZM160.495 9.536V8.08H156.255V6.48H162.655V11.104H158.479V12.688H159.311C160.767 12.688 162.975 12.592 164.511 12.32V13.904C162.879 14.192 160.591 14.288 159.135 14.288H156.255V9.536H160.495ZM167.663 5.76V14.624L165.487 14.944V11.872H163.295V10.288H165.487V9.008H163.295V7.424H165.487V6.08L167.663 5.76ZM158.079 15.344H167.663V20.368L165.455 20.688V16.928H158.079V15.344ZM181.793 5.76V11.232H184.097L183.777 13.024H181.793V20.08L179.601 20.4V6.08L181.793 5.76ZM175.281 6.496V10.704C175.281 11.04 175.377 11.392 175.569 11.648C176.401 12.768 177.665 14.304 178.753 15.52L177.473 16.752C176.353 15.568 174.993 14.064 174.177 12.976C173.233 14.176 171.857 15.872 170.721 17.104L169.377 15.936C170.465 14.672 171.745 13.136 172.689 11.776C172.881 11.504 173.041 11.136 173.041 10.8V6.816L175.281 6.496Z" fill="white"/>
<rect x="54" y="56" width="230" height="70" rx="35" fill="#FF8D24"/>
<path d="M142.851 90.032C142.963 89.776 142.979 89.312 142.979 88.976V86.384H140.947V84.832H147.091L146.851 86.384H145.027V88.928C145.027 89.264 145.011 89.664 145.139 89.952C145.555 90.88 146.835 92.784 147.699 93.824L146.339 95.056C145.667 94.224 144.723 92.944 144.067 91.968C143.347 93.056 142.435 94.336 141.555 95.392L140.211 94.224C141.315 92.896 142.355 91.104 142.851 90.032ZM148.019 84.304L150.003 83.984V97.616L148.019 97.936V89.92H146.083V88.288H148.019V84.304ZM150.931 84.08L152.963 83.76V98.08L150.931 98.4V84.08ZM154.854 94.864H160.742V92.256H156.934V84.224H159.141V86.688H164.39V84.224H166.598V91.856L164.39 92.256H163.046V94.864H168.726L168.406 96.496H154.854V94.864ZM159.141 90.624H164.39V88.32H159.141V90.624ZM181.96 92.4V98L179.752 98.4H172.504V92.4H174.728V94H179.752V92.4H181.96ZM177.944 85.92H175.368V86.832C175.368 87.168 175.432 87.536 175.656 87.776C176.648 88.88 177.656 89.824 178.776 90.768L177.496 92C176.36 91.088 175.288 90.144 174.28 89.104C173.272 90.208 172.072 91.36 170.904 92.352L169.56 91.184C170.68 90.176 171.832 89.184 172.808 87.904C173.016 87.632 173.16 87.264 173.16 86.928V85.92H170.296V84.32H178.264L177.944 85.92ZM179.784 91.84V88.512H177.048V86.912H179.784V84.08L181.96 83.76V91.52L179.784 91.84ZM174.728 96.832H179.752V95.552H174.728V96.832ZM197.851 92.032L197.531 93.616H192.139V98.208L189.899 98.528V93.616H183.979V92.032H197.851ZM192.059 84.128V85.696C192.059 86.032 192.091 86.448 192.347 86.64C193.515 87.52 195.547 88.848 196.971 89.712L195.787 91.056C194.347 90.208 192.107 88.88 190.971 88C189.787 88.864 187.611 90.272 186.027 91.152L184.827 89.824C186.363 88.912 188.251 87.664 189.419 86.736C189.675 86.528 189.771 86.096 189.771 85.76V84.448L192.059 84.128Z" fill="white"/>
<g clip-path="url(#clip0_189_2423)">
<path opacity="0.6" d="M174.402 204.056C172.17 207.217 171.054 208.798 169.5 208.798C167.946 208.798 166.83 207.217 164.598 204.056L164.178 203.46C161.25 199.313 159.787 197.24 160.626 195.62C161.465 194 164.003 194 169.08 194L169.92 194C174.997 194 177.535 194 178.374 195.62C179.213 197.24 177.75 199.313 174.822 203.46L174.402 204.056Z" fill="white"/>
</g>
<rect opacity="0.6" x="0.5" y="254.5" width="338" height="401" rx="23.5" stroke="#737373" stroke-linecap="round" stroke-dasharray="3 3"/>
<rect width="113" height="26" transform="translate(113 238)" fill="#191F26"/>
<path d="M141.846 247.36C143.654 247.36 145.27 248 145.27 250.112C145.27 252.224 143.654 252.864 141.846 252.864H139.03C137.222 252.864 135.606 252.224 135.606 250.112C135.606 248 137.222 247.36 139.03 247.36H141.846ZM139.062 253.36V255.088H141.846V253.36H144.07V255.088H147.382L147.062 256.704H133.51V255.088H136.838V253.36H139.062ZM145.75 246.752H134.966V245.184H139.302V243.872L141.51 243.552V245.184H146.07L145.75 246.752ZM141.654 248.896H139.222C138.406 248.896 137.75 249.232 137.75 250.112C137.75 250.992 138.406 251.328 139.222 251.328H141.654C142.47 251.328 143.126 250.992 143.126 250.112C143.126 249.232 142.47 248.896 141.654 248.896ZM157.336 252.848C159.08 252.848 160.664 253.552 160.664 255.712C160.664 257.888 159.08 258.592 157.336 258.592H153.912C152.104 258.592 150.488 257.888 150.488 255.712C150.488 253.552 152.104 252.848 153.912 252.848H157.336ZM153.816 244.096V246.704C153.816 247.04 153.88 247.408 154.104 247.648C155.096 248.752 156.152 249.728 157.272 250.672L155.992 251.904C154.856 250.992 153.688 250.048 152.712 248.976C151.736 250.096 150.424 251.344 149.256 252.336L147.912 251.168C149.032 250.16 150.216 249.056 151.192 247.776C151.4 247.504 151.544 247.136 151.544 246.8V244.416L153.816 244.096ZM158.28 252.608V247.552H155.608V245.968H158.28V244.08L160.456 243.76V252.288L158.28 252.608ZM157.128 254.432H154.088C153.224 254.432 152.632 254.784 152.632 255.712C152.632 256.656 153.224 257.008 154.088 257.008H157.128C157.928 257.008 158.52 256.656 158.52 255.712C158.52 254.784 157.928 254.432 157.128 254.432ZM172.331 252.592V254.192C171.083 254.464 169.307 254.56 167.707 254.56H163.755V244.672H171.051V246.256H165.979V248.784H170.923V250.384H165.979V252.96H167.899C169.195 252.96 170.859 252.912 172.331 252.592ZM175.163 243.76V258.08L172.987 258.4V244.08L175.163 243.76ZM186.845 243.984V247.664H187.901V244.08L189.933 243.76V254.144L187.901 254.464V249.248H186.845V253.952L184.861 254.272V244.304L186.845 243.984ZM183.837 247.696V249.248C183.837 251.088 182.493 252.176 180.589 252.176C178.685 252.176 177.341 251.088 177.341 249.248V247.696C177.341 245.776 178.685 244.656 180.589 244.656C182.493 244.656 183.837 245.776 183.837 247.696ZM189.965 258.336H180.285V253.776H182.509V256.736H190.285L189.965 258.336ZM181.853 249.168V247.744C181.853 246.768 181.453 246.192 180.589 246.192C179.725 246.192 179.325 246.768 179.325 247.744V249.168C179.325 250.096 179.725 250.64 180.589 250.64C181.453 250.64 181.853 250.096 181.853 249.168ZM204.288 243.76V258.08L202.112 258.4V244.08L204.288 243.76ZM195.92 244.496V249.632C195.92 249.968 195.968 250.384 196.064 250.672C196.256 251.232 196.544 251.904 196.768 252.24C196.992 251.888 197.312 251.216 197.488 250.64C197.584 250.336 197.648 249.968 197.648 249.728V244.816L199.728 244.496V249.648C199.728 249.984 199.744 250.336 199.904 250.624C200.544 251.76 201.216 252.736 201.92 253.728L200.592 254.88C199.888 254.032 199.248 253.248 198.672 252.416C198.144 253.376 197.504 254.384 196.736 255.28C196.064 254.448 195.344 253.312 194.88 252.416C194.272 253.28 193.664 254.096 192.96 255.024L191.52 254.016C192.24 252.944 192.864 252.016 193.552 250.752C193.712 250.448 193.776 250.08 193.776 249.744V244.816L195.92 244.496Z" fill="white"/>
<rect x="54" y="294" width="230" height="70" rx="35" fill="#4B84F0"/>
<path d="M142.851 328.032C142.963 327.776 142.979 327.312 142.979 326.976V324.384H140.947V322.832H147.091L146.851 324.384H145.027V326.928C145.027 327.264 145.011 327.664 145.139 327.952C145.555 328.88 146.835 330.784 147.699 331.824L146.339 333.056C145.667 332.224 144.723 330.944 144.067 329.968C143.347 331.056 142.435 332.336 141.555 333.392L140.211 332.224C141.315 330.896 142.355 329.104 142.851 328.032ZM148.019 322.304L150.003 321.984V335.616L148.019 335.936V327.92H146.083V326.288H148.019V322.304ZM150.931 322.08L152.963 321.76V336.08L150.931 336.4V322.08ZM154.854 332.864H160.742V330.256H156.934V322.224H159.141V324.688H164.39V322.224H166.598V329.856L164.39 330.256H163.046V332.864H168.726L168.406 334.496H154.854V332.864ZM159.141 328.624H164.39V326.32H159.141V328.624ZM170.68 326.608C170.68 325.104 172.28 324.304 174.28 324.304C176.28 324.304 177.88 325.104 177.88 326.608V326.848C177.88 328.064 176.856 328.832 175.416 329.104V329.792C176.552 329.728 177.768 329.616 178.792 329.44V330.992C176.52 331.312 174.056 331.408 171.592 331.408H169.656V329.84H173.176V329.104C171.72 328.848 170.68 328.064 170.68 326.848V326.608ZM181.56 321.76V326.544H183.768L183.448 328.16H181.56V331.216L179.352 331.536V322.08L181.56 321.76ZM171.784 332.096H181.56V336.368L179.32 336.688V333.68H171.784V332.096ZM178.216 324H170.184V322.528H173.24V321.728L175.448 321.408V322.528H178.536L178.216 324ZM175.8 326.672C175.8 326.112 175.24 325.776 174.28 325.776C173.32 325.776 172.76 326.112 172.76 326.672V326.784C172.76 327.344 173.32 327.728 174.28 327.728C175.24 327.728 175.8 327.344 175.8 326.784V326.672ZM196.507 321.76V331.952L194.347 332.272V322.08L196.507 321.76ZM196.603 336.336H187.227V331.712H189.451V334.736H196.923L196.603 336.336ZM192.299 326.624C192.299 328.768 190.507 329.92 188.491 329.92C186.475 329.92 184.683 328.768 184.683 326.624V325.696C184.683 323.552 186.475 322.4 188.491 322.4C190.507 322.4 192.299 323.552 192.299 325.696V326.624ZM190.139 326.56V325.76C190.139 324.64 189.451 324 188.491 324C187.531 324 186.843 324.64 186.843 325.76V326.56C186.843 327.68 187.531 328.32 188.491 328.32C189.451 328.32 190.139 327.68 190.139 326.56Z" fill="white"/>
<g clip-path="url(#clip1_189_2423)">
<path opacity="0.2" d="M173.902 394.056C171.67 397.217 170.554 398.798 169 398.798C167.446 398.798 166.33 397.217 164.098 394.056L163.678 393.46C160.75 389.313 159.287 387.24 160.126 385.62C160.965 384 163.503 384 168.58 384L169.42 384C174.497 384 177.035 384 177.874 385.62C178.713 387.24 177.25 389.313 174.322 393.46L173.902 394.056Z" fill="white"/>
</g>
<rect x="54" y="420" width="230" height="70" rx="35" fill="#4B84F0"/>
<path d="M125.787 450.192H122.043V450.912C122.043 451.248 122.075 451.648 122.331 451.856C123.483 452.768 125.435 454.256 126.875 455.152L125.691 456.496C124.235 455.616 122.043 454.112 120.907 453.184C119.771 454.128 117.483 455.68 116.075 456.608L114.875 455.28C116.395 454.32 118.283 452.992 119.403 451.984C119.659 451.76 119.755 451.344 119.755 451.008V450.192H115.819V448.608H126.107L125.787 450.192ZM113.963 458.864H119.851V455.712H122.155V458.864H127.835L127.515 460.496H113.963V458.864ZM140.621 447.76V453.232H142.925L142.605 455.024H140.621V462.08L138.429 462.4V448.08L140.621 447.76ZM134.109 448.496V452.704C134.109 453.04 134.205 453.392 134.397 453.648C135.229 454.768 136.493 456.304 137.581 457.52L136.301 458.752C135.181 457.568 133.821 456.064 133.005 454.976C132.061 456.176 130.685 457.872 129.549 459.104L128.205 457.936C129.293 456.672 130.573 455.136 131.517 453.776C131.709 453.504 131.869 453.136 131.869 452.8V448.816L134.109 448.496ZM148.548 448.288H155.556V454.592L153.396 454.912H148.548V448.288ZM160.132 458.64L156.34 458.656C156.34 458.944 156.372 459.248 156.628 459.376C157.972 460.16 159.284 460.8 160.9 461.52L159.876 462.864C158.26 462.192 156.612 461.408 155.268 460.688C154.036 461.376 152.276 462.272 150.66 462.976L149.604 461.648C151.332 460.912 152.58 460.208 153.78 459.488C154.036 459.344 154.116 458.976 154.132 458.656H150.148V457.136H154.132V455.808L156.34 455.488V457.136H160.452L160.132 458.64ZM160.084 447.76V455.84L157.924 456.16V448.08L160.084 447.76ZM153.396 449.888H150.708V453.36H153.396V449.888ZM178.443 450.192H174.699V450.912C174.699 451.248 174.731 451.648 174.987 451.856C176.139 452.768 178.091 454.256 179.531 455.152L178.347 456.496C176.891 455.616 174.699 454.112 173.563 453.184C172.427 454.128 170.139 455.68 168.731 456.608L167.531 455.28C169.051 454.32 170.939 452.992 172.059 451.984C172.315 451.76 172.411 451.344 172.411 451.008V450.192H168.475V448.608H178.763L178.443 450.192ZM166.619 458.864H172.507V455.712H174.811V458.864H180.491L180.171 460.496H166.619V458.864ZM193.278 447.76V453.232H195.582L195.262 455.024H193.278V462.08L191.086 462.4V448.08L193.278 447.76ZM186.766 448.496V452.704C186.766 453.04 186.862 453.392 187.054 453.648C187.886 454.768 189.15 456.304 190.238 457.52L188.958 458.752C187.838 457.568 186.478 456.064 185.662 454.976C184.718 456.176 183.342 457.872 182.206 459.104L180.862 457.936C181.95 456.672 183.23 455.136 184.174 453.776C184.366 453.504 184.526 453.136 184.526 452.8V448.816L186.766 448.496ZM204.192 451.696C204.192 453.184 203.152 454.128 201.744 454.464V455.728C202.88 455.664 204.096 455.552 205.12 455.376V456.96C202.848 457.28 200.384 457.376 197.92 457.376H195.984V455.776H199.504V454.528C197.952 454.24 196.768 453.28 196.768 451.696V451.248C196.768 449.248 198.48 448.192 200.48 448.192C202.48 448.192 204.192 449.248 204.192 451.248V451.696ZM207.888 447.76V452.576H210.096L209.776 454.192H207.888V458.512L205.68 458.832V448.08L207.888 447.76ZM207.968 462.336H198.464V458.368H200.672V460.736H208.288L207.968 462.336ZM202.112 451.744V451.168C202.112 450.24 201.392 449.712 200.48 449.712C199.568 449.712 198.848 450.24 198.848 451.168V451.744C198.848 452.608 199.568 453.088 200.48 453.088C201.392 453.088 202.112 452.608 202.112 451.744ZM210.307 458.864H213.731V456.528H212.387V451.696H219.843V450.048H212.323V448.448H222.051V453.28H214.611V454.944H222.483L222.163 456.528H220.723V458.864H224.179L223.859 460.496H210.307V458.864ZM215.923 456.528V458.864H218.531V456.528H215.923Z" fill="white"/>
<g clip-path="url(#clip2_189_2423)">
<path opacity="0.2" d="M173.902 520.056C171.67 523.217 170.554 524.798 169 524.798C167.446 524.798 166.33 523.217 164.098 520.056L163.678 519.46C160.75 515.313 159.287 513.24 160.126 511.62C160.965 510 163.503 510 168.58 510L169.42 510C174.497 510 177.035 510 177.874 511.62C178.713 513.24 177.25 515.313 174.322 519.46L173.902 520.056Z" fill="white"/>
</g>
<rect x="54" y="546" width="230" height="70" rx="35" fill="#4B84F0"/>
<path d="M105.846 583.04C107.638 583.04 109.254 583.712 109.254 585.856C109.254 588.016 107.638 588.688 105.846 588.688H102.31C100.518 588.688 98.9022 588.016 98.9022 585.856C98.9022 583.712 100.518 583.04 102.31 583.04H105.846ZM108.982 575.728H105.238C105.27 575.968 105.334 576.176 105.526 576.272C106.838 577.024 108.374 577.76 109.942 578.448L109.046 579.872C107.462 579.184 105.398 578.288 104.102 577.568C102.87 578.288 100.806 579.248 99.1102 580L98.1982 578.592C99.8462 577.84 101.382 577.12 102.598 576.384C102.806 576.256 102.902 576.016 102.934 575.728H99.0142V574.144H109.302L108.982 575.728ZM110.71 582.096H97.1582V580.528H103.046V578.72H105.35V580.528H111.03L110.71 582.096ZM105.766 584.64H102.406C101.686 584.64 101.046 584.944 101.046 585.856C101.046 586.784 101.686 587.088 102.406 587.088H105.766C106.486 587.088 107.11 586.784 107.11 585.856C107.11 584.944 106.486 584.64 105.766 584.64ZM117.833 575.888H112.921V574.32H120.089V575.088C120.089 575.376 120.057 575.648 120.009 575.92H122.089V574.08L124.249 573.76V580.96L122.089 581.28V580.448H119.209V578.848H122.089V577.504H119.545V577.328C118.505 579.456 116.089 581.248 113.225 581.824L112.361 580.4C115.113 579.728 117.833 577.584 117.833 576V575.888ZM124.361 588.464H114.809V584.384H122.057V583.344H114.777V581.84H124.249V585.856H117.033V586.944H124.681L124.361 588.464ZM131.744 574.288H138.752V580.592L136.592 580.912H131.744V574.288ZM143.328 584.64L139.536 584.656C139.536 584.944 139.568 585.248 139.824 585.376C141.168 586.16 142.48 586.8 144.096 587.52L143.072 588.864C141.456 588.192 139.808 587.408 138.464 586.688C137.232 587.376 135.472 588.272 133.856 588.976L132.8 587.648C134.528 586.912 135.776 586.208 136.976 585.488C137.232 585.344 137.312 584.976 137.328 584.656H133.344V583.136H137.328V581.808L139.536 581.488V583.136H143.648L143.328 584.64ZM143.28 573.76V581.84L141.12 582.16V574.08L143.28 573.76ZM136.592 575.888H133.904V579.36H136.592V575.888ZM158.822 575.84L158.502 577.424H155.766V579.168C155.766 579.504 155.862 579.856 156.054 580.112C156.87 581.2 158.022 582.56 159.142 583.76L157.83 584.976C156.678 583.808 155.51 582.48 154.678 581.44C153.75 582.624 152.534 584.064 151.366 585.312L150.006 584.176C151.142 582.896 152.246 581.552 153.206 580.24C153.398 579.968 153.558 579.6 153.558 579.264V577.424H150.534V575.84H153.558V574.24L155.766 573.92V575.84H158.822ZM162.358 573.76V588.08L160.182 588.4V580.72H157.638V579.088H160.182V574.08L162.358 573.76ZM170.377 578.816V576.288H165.497V574.704H172.569V580.384H167.721V582.944H168.873C170.329 582.944 172.553 582.88 174.089 582.56V584.144C172.457 584.416 170.185 584.528 168.681 584.528H165.497V578.816H170.377ZM176.905 573.76V588.08L174.729 588.4V574.08L176.905 573.76ZM185.051 575.888H180.139V574.32H187.307V575.088C187.307 575.376 187.275 575.648 187.227 575.92H189.307V574.08L191.467 573.76V580.96L189.307 581.28V580.448H186.427V578.848H189.307V577.504H186.763V577.328C185.723 579.456 183.307 581.248 180.443 581.824L179.579 580.4C182.331 579.728 185.051 577.584 185.051 576V575.888ZM191.579 588.464H182.027V584.384H189.275V583.344H181.995V581.84H191.467V585.856H184.251V586.944H191.899L191.579 588.464ZM203.438 574.08L205.646 573.76V579.6H207.854L207.534 581.216H205.646V588.08L203.438 588.4V574.08ZM194.414 574.8H202.206C202.142 576.944 201.838 580.496 201.422 582.528H199.278C199.566 580.976 199.918 578.032 199.95 576.384H194.414V574.8ZM196.158 578.752H198.27V583.68C199.678 583.648 201.47 583.536 202.878 583.28V584.864C200.606 585.184 198.142 585.28 195.678 585.28H193.742V583.68H196.158V578.752ZM213.813 578.608C213.813 577.104 215.413 576.304 217.413 576.304C219.413 576.304 221.013 577.104 221.013 578.608V578.848C221.013 580.064 219.989 580.832 218.549 581.104V581.792C219.685 581.728 220.901 581.616 221.925 581.44V582.992C219.653 583.312 217.189 583.408 214.725 583.408H212.789V581.84H216.309V581.104C214.853 580.848 213.813 580.064 213.813 578.848V578.608ZM224.693 573.76V578.544H226.901L226.581 580.16H224.693V583.216L222.485 583.536V574.08L224.693 573.76ZM214.917 584.096H224.693V588.368L222.453 588.688V585.68H214.917V584.096ZM221.349 576H213.317V574.528H216.373V573.728L218.581 573.408V574.528H221.669L221.349 576ZM218.933 578.672C218.933 578.112 218.373 577.776 217.413 577.776C216.453 577.776 215.893 578.112 215.893 578.672V578.784C215.893 579.344 216.453 579.728 217.413 579.728C218.373 579.728 218.933 579.344 218.933 578.784V578.672ZM239.639 573.76V583.952L237.479 584.272V574.08L239.639 573.76ZM239.735 588.336H230.359V583.712H232.583V586.736H240.055L239.735 588.336ZM235.431 578.624C235.431 580.768 233.639 581.92 231.623 581.92C229.607 581.92 227.815 580.768 227.815 578.624V577.696C227.815 575.552 229.607 574.4 231.623 574.4C233.639 574.4 235.431 575.552 235.431 577.696V578.624ZM233.271 578.56V577.76C233.271 576.64 232.583 576 231.623 576C230.663 576 229.975 576.64 229.975 577.76V578.56C229.975 579.68 230.663 580.32 231.623 580.32C232.583 580.32 233.271 579.68 233.271 578.56Z" fill="white"/>
<defs>
<clipPath id="clip0_189_2423">
<rect width="24" height="24" fill="white" transform="translate(157.5 190)"/>
</clipPath>
<clipPath id="clip1_189_2423">
<rect width="24" height="24" fill="white" transform="translate(157 380)"/>
</clipPath>
<clipPath id="clip2_189_2423">
<rect width="24" height="24" fill="white" transform="translate(157 506)"/>
</clipPath>
</defs>
</svg>
