<svg width="339" height="340" viewBox="0 0 339 340" fill="none" xmlns="http://www.w3.org/2000/svg">
<circle cx="169" cy="170" r="120" fill="white" stroke="#E6EDFE" stroke-width="4"/>
<rect x="153" y="66" width="32" height="32" rx="16" transform="rotate(-90 153 66)" fill="white"/>
<path d="M171.878 46.8295C173.773 48.2866 174.72 49.0152 174.72 50C174.72 50.9848 173.773 51.7134 171.878 53.1705L169.439 55.047C166.635 57.2039 165.233 58.2823 164.116 57.7325C163 57.1828 163 55.414 163 51.8765L163 48.1235C163 44.586 163 42.8172 164.116 42.2675C165.233 41.7177 166.635 42.7961 169.439 44.953L171.878 46.8295Z" fill="white"/>
<path d="M171.878 46.8295C173.773 48.2866 174.72 49.0152 174.72 50C174.72 50.9848 173.773 51.7134 171.878 53.1705L169.439 55.047C166.635 57.2039 165.233 58.2823 164.116 57.7325C163 57.1828 163 55.414 163 51.8765L163 48.1235C163 44.586 163 42.8172 164.116 42.2675C165.233 41.7177 166.635 42.7961 169.439 44.953L171.878 46.8295Z" fill="#F5980D"/>
<rect width="32" height="32" rx="16" transform="matrix(4.37114e-08 -1 -1 -4.37114e-08 185 306)" fill="white"/>
<path d="M166.122 286.83C164.227 288.287 163.28 289.015 163.28 290C163.28 290.985 164.227 291.713 166.122 293.17L168.561 295.047C171.365 297.204 172.767 298.282 173.884 297.733C175 297.183 175 295.414 175 291.877L175 288.123C175 284.586 175 282.817 173.884 282.267C172.767 281.718 171.365 282.796 168.561 284.953L166.122 286.83Z" fill="white"/>
<path d="M166.122 286.83C164.227 288.287 163.28 289.015 163.28 290C163.28 290.985 164.227 291.713 166.122 293.17L168.561 295.047C171.365 297.204 172.767 298.282 173.884 297.733C175 297.183 175 295.414 175 291.877L175 288.123C175 284.586 175 282.817 173.884 282.267C172.767 281.718 171.365 282.796 168.561 284.953L166.122 286.83Z" fill="#F5980D"/>
<rect width="32" height="32" rx="16" transform="matrix(-1 8.74228e-08 8.74228e-08 1 305 154)" fill="white"/>
<path d="M285.83 172.878C287.287 174.773 288.015 175.72 289 175.72C289.985 175.72 290.713 174.773 292.17 172.878L294.047 170.439C296.204 167.635 297.282 166.233 296.733 165.116C296.183 164 294.414 164 290.877 164L287.123 164C283.586 164 281.817 164 281.267 165.116C280.718 166.233 281.796 167.635 283.953 170.439L285.83 172.878Z" fill="white"/>
<path d="M285.83 172.878C287.287 174.773 288.015 175.72 289 175.72C289.985 175.72 290.713 174.773 292.17 172.878L294.047 170.439C296.204 167.635 297.282 166.233 296.733 165.116C296.183 164 294.414 164 290.877 164L287.123 164C283.586 164 281.817 164 281.267 165.116C280.718 166.233 281.796 167.635 283.953 170.439L285.83 172.878Z" fill="#F5980D"/>
<rect width="32" height="32" rx="16" transform="matrix(1 0 0 -1 34 186)" fill="white"/>
<path d="M53.1705 167.122C51.7134 165.227 50.9848 164.28 50 164.28C49.0152 164.28 48.2866 165.227 46.8295 167.122L44.953 169.561C42.7961 172.365 41.7177 173.767 42.2675 174.884C42.8172 176 44.586 176 48.1235 176L51.8765 176C55.414 176 57.1828 176 57.7325 174.884C58.2823 173.767 57.2039 172.365 55.047 169.561L53.1705 167.122Z" fill="white"/>
<path d="M53.1705 167.122C51.7134 165.227 50.9848 164.28 50 164.28C49.0152 164.28 48.2866 165.227 46.8295 167.122L44.953 169.561C42.7961 172.365 41.7177 173.767 42.2675 174.884C42.8172 176 44.586 176 48.1235 176L51.8765 176C55.414 176 57.1828 176 57.7325 174.884C58.2823 173.767 57.2039 172.365 55.047 169.561L53.1705 167.122Z" fill="#F5980D"/>
<path d="M151.314 156.382V162.25L148.83 162.7H140.676V156.382H143.178V157.984H148.83V156.382H151.314ZM138.21 152.368C138.21 150.424 140.064 149.416 142.314 149.416C144.564 149.416 146.418 150.424 146.418 152.368V152.728C146.418 154.672 144.564 155.734 142.314 155.734C140.064 155.734 138.21 154.672 138.21 152.728V152.368ZM146.742 150.1H148.866V146.59L151.314 146.23V155.392L148.866 155.752V154.762H146.742V153.052H148.866V151.756H146.742V150.1ZM146.922 149.056H137.346V147.292H140.982V146.122L143.466 145.762V147.292H147.282L146.922 149.056ZM144.078 152.44C144.078 151.63 143.304 151.108 142.314 151.108C141.324 151.108 140.55 151.63 140.55 152.44V152.656C140.55 153.448 141.324 154.042 142.314 154.042C143.304 154.042 144.078 153.448 144.078 152.656V152.44ZM143.178 160.936H148.83V159.748H143.178V160.936ZM159.615 150.478V148.84H154.845V147.04H162.045V152.242H157.347V154.024H158.283C159.921 154.024 162.405 153.916 164.133 153.61V155.392C162.297 155.716 159.723 155.824 158.085 155.824H154.845V150.478H159.615ZM167.679 146.23V156.202L165.231 156.562V153.106H162.765V151.324H165.231V149.884H162.765V148.102H165.231V146.59L167.679 146.23ZM156.897 157.012H167.679V162.664L165.195 163.024V158.794H156.897V157.012ZM171.516 152.782C171.516 151.108 173.118 149.758 175.62 149.758C178.122 149.758 179.724 151.108 179.724 152.782V153.358C179.724 154.69 178.698 155.824 177.024 156.238V158.038C178.338 157.966 179.796 157.84 180.966 157.642V159.424C178.392 159.784 175.638 159.892 172.866 159.892H170.49V158.092H174.486V156.292C172.632 155.95 171.516 154.762 171.516 153.358V152.782ZM181.632 146.59L184.062 146.23V162.34L181.632 162.7V146.59ZM180.228 149.398H170.742V147.598H174.378V146.41L176.862 146.05V147.598H180.588L180.228 149.398ZM177.384 152.944C177.384 152.062 176.664 151.468 175.62 151.468C174.576 151.468 173.856 152.062 173.856 152.944V153.196C173.856 154.078 174.576 154.672 175.62 154.672C176.664 154.672 177.384 154.078 177.384 153.196V152.944ZM199.959 146.23V152.386H202.551L202.191 154.402H199.959V162.34L197.493 162.7V146.59L199.959 146.23ZM192.633 147.058V151.792C192.633 152.17 192.741 152.566 192.957 152.854C193.893 154.114 195.315 155.842 196.539 157.21L195.099 158.596C193.839 157.264 192.309 155.572 191.391 154.348C190.329 155.698 188.781 157.606 187.503 158.992L185.991 157.678C187.215 156.256 188.655 154.528 189.717 152.998C189.933 152.692 190.113 152.278 190.113 151.9V147.418L192.633 147.058ZM80.4866 183.898H87.1106V182.422H82.7906V176.662H93.7526V178.444H85.2926V180.658H94.0766L93.7166 182.422H89.7026V183.898H96.0926L95.7326 185.68H80.4866V183.898ZM90.2606 186.67C92.2766 186.67 94.0946 187.426 94.0946 189.838C94.0946 192.268 92.2766 193.024 90.2606 193.024H86.2826C84.2666 193.024 82.4486 192.268 82.4486 189.838C82.4486 187.426 84.2666 186.67 86.2826 186.67H90.2606ZM90.1706 188.47H86.3906C85.5806 188.47 84.8606 188.812 84.8606 189.838C84.8606 190.882 85.5806 191.224 86.3906 191.224H90.1706C90.9806 191.224 91.6826 190.882 91.6826 189.838C91.6826 188.812 90.9806 188.47 90.1706 188.47ZM100.109 179.776H103.223V177.004H105.635V185.806L103.223 186.166H97.6974V177.004H100.109V179.776ZM110.531 176.23V180.64H113.105L112.745 182.548H110.531V187.912L108.047 188.272V176.59L110.531 176.23ZM110.657 192.628H100.091V187.642H102.593V190.828H111.017L110.657 192.628ZM100.109 184.384H103.223V181.576H100.109V184.384ZM123.674 186.454C125.636 186.454 127.418 187.246 127.418 189.676C127.418 192.124 125.636 192.916 123.674 192.916H119.822C117.788 192.916 115.97 192.124 115.97 189.676C115.97 187.246 117.788 186.454 119.822 186.454H123.674ZM119.714 176.608V179.542C119.714 179.92 119.786 180.334 120.038 180.604C121.154 181.846 122.342 182.944 123.602 184.006L122.162 185.392C120.884 184.366 119.57 183.304 118.472 182.098C117.374 183.358 115.898 184.762 114.584 185.878L113.072 184.564C114.332 183.43 115.664 182.188 116.762 180.748C116.996 180.442 117.158 180.028 117.158 179.65V176.968L119.714 176.608ZM124.736 186.184V180.496H121.73V178.714H124.736V176.59L127.184 176.23V185.824L124.736 186.184ZM123.44 188.236H120.02C119.048 188.236 118.382 188.632 118.382 189.676C118.382 190.738 119.048 191.134 120.02 191.134H123.44C124.34 191.134 125.006 190.738 125.006 189.676C125.006 188.632 124.34 188.236 123.44 188.236ZM139.787 186.454C141.749 186.454 143.531 187.246 143.531 189.676C143.531 192.124 141.749 192.916 139.787 192.916H135.935C133.901 192.916 132.083 192.124 132.083 189.676C132.083 187.246 133.901 186.454 135.935 186.454H139.787ZM139.067 178.804H136.151V179.812C136.151 180.19 136.223 180.604 136.475 180.874C137.591 182.116 138.725 183.178 139.985 184.24L138.545 185.626C137.267 184.6 136.061 183.538 134.927 182.368C133.793 183.61 132.443 184.906 131.129 186.022L129.617 184.708C130.877 183.574 132.173 182.458 133.271 181.018C133.505 180.712 133.667 180.298 133.667 179.92V178.804H130.463V177.004H139.427L139.067 178.804ZM143.297 176.23V180.55H145.889L145.529 182.368H143.297V185.806L140.831 186.166V176.59L143.297 176.23ZM139.553 188.236H136.133C135.161 188.236 134.495 188.632 134.495 189.676C134.495 190.738 135.161 191.134 136.133 191.134H139.553C140.453 191.134 141.119 190.738 141.119 189.676C141.119 188.632 140.453 188.236 139.553 188.236ZM164.725 176.23V181.576H167.209L166.849 183.394H164.725V187.912L162.241 188.272V176.59L164.725 176.23ZM151.333 184.762H154.105V180.802H156.499V184.762C158.083 184.708 160.081 184.564 161.611 184.312V186.094C159.055 186.454 156.283 186.562 153.511 186.562H151.333V184.762ZM164.815 192.628H154.123V187.57H156.607V190.828H165.175L164.815 192.628ZM158.317 178.696H152.089V176.896H160.891C160.819 178.768 160.549 182.026 160.117 183.538H157.705C158.101 182.206 158.317 179.848 158.317 178.696ZM174.196 181.918V179.074H168.706V177.292H176.662V183.682H171.208V186.562H172.504C174.142 186.562 176.644 186.49 178.372 186.13V187.912C176.536 188.218 173.98 188.344 172.288 188.344H168.706V181.918H174.196ZM181.54 176.23V192.34L179.092 192.7V176.59L181.54 176.23ZM202.175 178.966H197.963V179.776C197.963 180.154 197.999 180.604 198.287 180.838C199.583 181.864 201.779 183.538 203.399 184.546L202.067 186.058C200.429 185.068 197.963 183.376 196.685 182.332C195.407 183.394 192.833 185.14 191.249 186.184L189.899 184.69C191.609 183.61 193.733 182.116 194.993 180.982C195.281 180.73 195.389 180.262 195.389 179.884V178.966H190.961V177.184H202.535L202.175 178.966ZM188.873 188.722H195.497V185.176H198.089V188.722H204.479L204.119 190.558H188.873V188.722ZM214.85 178.804H211.952V179.992C211.952 180.37 212.024 180.784 212.276 181.054C213.392 182.296 214.526 183.358 215.786 184.42L214.346 185.806C213.068 184.78 211.862 183.718 210.728 182.548C209.594 183.79 208.244 185.086 206.93 186.202L205.418 184.888C206.678 183.754 207.974 182.638 209.072 181.198C209.306 180.892 209.468 180.478 209.468 180.1V178.804H206.246V177.004H215.21L214.85 178.804ZM208.586 186.796H219.368V192.664L216.884 193.024V188.56H208.586V186.796ZM219.368 176.23V185.806L216.92 186.166V176.59L219.368 176.23ZM229.618 183.412C229.744 183.124 229.762 182.602 229.762 182.224V180.28H227.044V178.534H229.762V176.788L232.102 176.428V178.534H234.64L234.37 180.28H232.102V182.17C232.102 182.548 232.084 182.998 232.228 183.322C232.696 184.366 234.082 186.418 235.036 187.606L233.488 188.938C232.75 187.984 231.706 186.562 231.004 185.464C230.23 186.688 229.222 188.128 228.232 189.316L226.666 188.02C227.908 186.526 229.06 184.618 229.618 183.412ZM235.45 176.842L237.682 176.482V191.818L235.45 192.178V183.754H233.452V181.882H235.45V176.842ZM238.654 176.59L240.94 176.23V192.34L238.654 192.7V176.59ZM251.833 176.842L254.029 176.482V191.818L251.833 192.178V186.13H249.601V184.348H251.833V181.738H250.141C249.439 184.996 247.603 187.588 244.903 189.208L243.517 187.66C246.505 185.914 248.089 182.62 248.089 179.488V179.182H244.183V177.4H250.465V178.678C250.465 179.11 250.447 179.524 250.411 179.938H251.833V176.842ZM255.037 176.59L257.323 176.23V192.34L255.037 192.7V176.59Z" fill="black"/>
<rect x="219.5" y="220.5" width="119" height="119" rx="15.5" fill="white"/>
<path d="M258.093 241.29V246.078H260.109L259.829 247.646H258.093V253.82L256.175 254.1V241.57L258.093 241.29ZM252.395 241.934V245.616C252.395 245.91 252.479 246.218 252.647 246.442C253.375 247.422 254.481 248.766 255.433 249.83L254.313 250.908C253.333 249.872 252.143 248.556 251.429 247.604C250.603 248.654 249.399 250.138 248.405 251.216L247.229 250.194C248.181 249.088 249.301 247.744 250.127 246.554C250.295 246.316 250.435 245.994 250.435 245.7V242.214L252.395 241.934ZM269.323 244.006V241.57L271.213 241.29V248.22L269.323 248.5V245.434H267.433C267.209 247.058 265.725 247.912 264.059 247.912C262.253 247.912 260.657 246.904 260.657 245.028V244.454C260.657 242.578 262.253 241.57 264.059 241.57C265.711 241.57 267.195 242.424 267.419 244.006H269.323ZM271.213 253.75L269.323 254.1H262.953V248.85H264.899V250.166H269.295V248.85H271.213V253.75ZM265.571 244.972V244.51C265.571 243.53 264.913 242.97 264.059 242.97C263.205 242.97 262.547 243.53 262.547 244.51V244.972C262.547 245.952 263.205 246.512 264.059 246.512C264.913 246.512 265.571 245.952 265.571 244.972ZM264.899 252.728H269.295V251.524H264.899V252.728ZM274.197 246.386C274.197 245.084 275.443 244.034 277.389 244.034C279.335 244.034 280.581 245.084 280.581 246.386V246.834C280.581 247.87 279.783 248.752 278.481 249.074V250.474C279.503 250.418 280.637 250.32 281.547 250.166V251.552C279.545 251.832 277.403 251.916 275.247 251.916H273.399V250.516H276.507V249.116C275.065 248.85 274.197 247.926 274.197 246.834V246.386ZM282.065 241.57L283.955 241.29V253.82L282.065 254.1V241.57ZM280.973 243.754H273.595V242.354H276.423V241.43L278.355 241.15V242.354H281.253L280.973 243.754ZM278.761 246.512C278.761 245.826 278.201 245.364 277.389 245.364C276.577 245.364 276.017 245.826 276.017 246.512V246.708C276.017 247.394 276.577 247.856 277.389 247.856C278.201 247.856 278.761 247.394 278.761 246.708V246.512ZM296.319 241.29V246.078H298.335L298.055 247.646H296.319V253.82L294.401 254.1V241.57L296.319 241.29ZM290.621 241.934V245.616C290.621 245.91 290.705 246.218 290.873 246.442C291.601 247.422 292.707 248.766 293.659 249.83L292.539 250.908C291.559 249.872 290.369 248.556 289.655 247.604C288.829 248.654 287.625 250.138 286.631 251.216L285.455 250.194C286.407 249.088 287.527 247.744 288.353 246.554C288.521 246.316 288.661 245.994 288.661 245.7V242.214L290.621 241.934ZM307.535 248.038V246.638H305.645V247.422L303.755 247.702H299.345V241.626H301.235V243.418H303.755V241.626H305.645V242.788H307.535V241.57L309.439 241.29V247.758L307.535 248.038ZM309.523 254.156H301.165V250.67H307.507V249.858H301.137V248.528H309.439V251.958H303.097V252.826H309.803L309.523 254.156ZM301.235 246.302H303.755V244.818H301.235V246.302ZM305.645 244.188V245.252H307.535V244.188H305.645ZM241.137 269.408H249.047C249.285 268.246 249.537 266.468 249.593 265.292H242.621V263.892H251.623C251.567 265.446 251.413 267.574 251.007 269.408H253.275L252.995 270.794H248.277V275.932L246.317 276.212V270.794H241.137V269.408ZM262.252 263.486V267.42H263.246V263.57L265.01 263.29V275.82L263.246 276.1V268.834H262.252V275.414L260.516 275.694V263.766L262.252 263.486ZM259.452 272.292L257.674 272.572H254.538V264.2H259.452V272.292ZM257.674 271.186V265.586H256.316V271.186H257.674ZM274.364 264.004L274.084 265.39H271.83V266.916C271.83 267.21 271.886 267.532 272.082 267.742C272.95 268.708 273.832 269.534 274.812 270.36L273.692 271.438C272.698 270.64 271.76 269.814 270.878 268.904C269.996 269.87 268.946 270.878 267.924 271.746L266.748 270.724C267.728 269.842 268.736 268.974 269.59 267.854C269.772 267.616 269.898 267.294 269.898 267V265.39H267.378V264.004H274.364ZM275.694 272.656V267.994H273.3V266.594H275.694V263.57L277.598 263.29V272.376L275.694 272.656ZM277.682 276.044H269.464V271.998H271.41V274.644H277.962L277.682 276.044ZM289.976 271.186V275.75L288.03 276.1H281.716V271.186H289.976ZM287.498 267.882V269.268C286.364 269.492 284.656 269.66 282.92 269.66H280.218V263.836H286.252V265.236H282.164V268.26H283.396C284.768 268.26 286.49 268.092 287.498 267.882ZM289.976 263.29V266.076H291.992L291.712 267.476H289.976V270.416L288.058 270.696V263.57L289.976 263.29ZM283.648 274.7H288.03V272.572H283.648V274.7ZM295.872 265.334H300.45V263.626H302.382V269.198L300.45 269.548H293.926V263.626H295.872V265.334ZM304.244 270.696L303.964 272.082H299.246V275.932L297.286 276.212V272.082H292.106V270.696H304.244ZM295.872 268.148H300.45V266.734H295.872V268.148ZM315.81 263.29V275.82L313.906 276.1V268.344H311.33V266.93H313.906V263.57L315.81 263.29ZM309.902 263.934V267.616C309.902 267.91 309.972 268.218 310.14 268.442C310.868 269.422 311.96 270.766 312.912 271.83L311.792 272.908C310.812 271.872 309.636 270.556 308.922 269.604C308.096 270.654 306.878 272.138 305.884 273.216L304.708 272.194C305.66 271.088 306.794 269.744 307.62 268.554C307.788 268.316 307.914 267.994 307.914 267.7V264.214L309.902 263.934Z" fill="#2856CE"/>
<path d="M251.262 288.504V289.395H245.355V288.504H247.816V287.402H248.918V288.504H251.262ZM245.941 291.738C245.941 290.607 246.926 289.846 248.355 289.84C249.768 289.846 250.775 290.607 250.781 291.738C250.775 292.881 249.768 293.631 248.355 293.637C246.926 293.631 245.941 292.881 245.941 291.738ZM246.984 291.738C246.979 292.389 247.523 292.805 248.355 292.805C249.176 292.805 249.738 292.389 249.75 291.738C249.738 291.1 249.176 290.689 248.355 290.695C247.523 290.689 246.979 291.1 246.984 291.738ZM247.184 297.867V294.141H248.285V295.137H252.996V294.141H254.098V297.867H247.184ZM248.285 296.988H252.996V295.992H248.285V296.988ZM251.285 292.84V291.938H252.984V290.789H251.297V289.875H252.984V287.496H254.098V293.719H252.984V292.84H251.285ZM260.719 288.129V291.188H257.25V292.641C259.078 292.641 260.074 292.6 261.258 292.383L261.363 293.285C260.08 293.502 259.002 293.537 256.91 293.543H256.148V290.344H259.605V289.02H256.137V288.129H260.719ZM257.344 295.395V294.492H264.469V298.008H263.355V295.395H257.344ZM261.387 292.113V291.223H263.355V289.922H261.387V289.031H263.355V287.508H264.469V293.965H263.355V292.113H261.387ZM269.73 290.168C269.719 292.025 270.803 293.93 272.367 294.691L271.676 295.582C270.533 294.984 269.648 293.812 269.186 292.412C268.717 293.9 267.797 295.16 266.602 295.781L265.91 294.879C267.521 294.105 268.611 292.09 268.617 290.168V288.375H269.73V290.168ZM273.152 297.996V287.496H274.266V291.68H275.953V292.629H274.266V297.996H273.152ZM288.41 287.496V297.996H287.355V287.496H288.41ZM279.328 294.961C281.561 293.637 282.627 291.873 282.82 289.711H279.844V288.797H283.922C283.922 289.336 283.881 289.857 283.799 290.367H285.211V287.766H286.266V297.48H285.211V293.906H283.418V292.992H285.211V291.281H283.594C283.084 293.045 281.965 294.58 279.984 295.758L279.328 294.961ZM299.496 289.031V289.945H298.008V291.281H299.496V292.219H298.008V293.719H296.895V287.496H298.008V289.031H299.496ZM289.922 290.613C289.91 289.143 291.105 288.105 292.711 288.105C294.322 288.105 295.5 289.143 295.512 290.613C295.5 292.096 294.322 293.121 292.711 293.121C291.105 293.121 289.91 292.096 289.922 290.613ZM291.012 290.613C291 291.557 291.727 292.184 292.711 292.172C293.695 292.184 294.416 291.557 294.422 290.613C294.416 289.676 293.695 289.061 292.711 289.055C291.727 289.061 291 289.676 291.012 290.613ZM291.07 295.09V294.188H298.008V297.996H296.895V295.09H291.07ZM308.602 288.164V292.477H303.609V288.164H308.602ZM304.301 297.105C306.211 296.918 307.705 295.963 307.781 295.02H304.723V294.176H307.805V293.191H308.906V294.176H312V295.02H308.93C309.006 295.934 310.465 296.895 312.375 297.105L312 297.961C310.354 297.762 308.994 297.059 308.361 296.133C307.717 297.07 306.34 297.762 304.688 297.961L304.301 297.105ZM304.699 291.609H307.5V289.055H304.699V291.609ZM310.652 293.496V287.496H311.754V293.496H310.652ZM267 308.152V309.078C267 310.074 267 311.158 266.707 312.652H268.219V313.566H263.965V318.008H262.84V313.566H258.645V312.652H265.582C265.893 311.152 265.893 310.057 265.898 309.078V309.066H259.816V308.152H267ZM278.051 307.496V317.996H276.984V312.523H275.684V317.48H274.629V307.695H275.684V311.609H276.984V307.496H278.051ZM269.367 315.23V308.68H273.445V315.23H269.367ZM270.422 314.34H272.402V309.559H270.422V314.34ZM285.234 308.293V308.879C285.223 309.582 285.223 310.625 284.965 311.984L283.863 311.879C284.092 310.719 284.127 309.869 284.139 309.207H279.938V308.293H285.234ZM279.305 312.887C279.949 312.887 280.682 312.881 281.449 312.863V310.648H282.551V312.828C283.676 312.781 284.836 312.699 285.891 312.547L285.961 313.355C283.77 313.742 281.262 313.783 279.41 313.789L279.305 312.887ZM280.898 317.773V314.668H282.012V316.871H288.035V317.773H280.898ZM286.559 315.383V307.496H287.695V310.836H289.137V311.773H287.695V315.383H286.559ZM298.477 307.496V318.02H297.363V307.496H298.477ZM290.344 309.348V308.445H295.266V312.277H291.492V314.574C293.197 314.568 294.68 314.486 296.438 314.199L296.543 315.113C294.686 315.424 293.104 315.494 291.246 315.5H290.355V311.387H294.129V309.348H290.344Z" fill="#737373"/>
<rect x="219.5" y="220.5" width="119" height="119" rx="15.5" stroke="#86A5F6"/>
<rect x="0.5" y="220.5" width="119" height="119" rx="15.5" fill="white"/>
<path d="M15.7663 268.254H20.9183V267.106H17.5583V262.626H26.0843V264.012H19.5043V265.734H26.3363L26.0563 267.106H22.9343V268.254H27.9043L27.6243 269.64H15.7663V268.254ZM23.3683 270.41C24.9363 270.41 26.3503 270.998 26.3503 272.874C26.3503 274.764 24.9363 275.352 23.3683 275.352H20.2743C18.7063 275.352 17.2923 274.764 17.2923 272.874C17.2923 270.998 18.7063 270.41 20.2743 270.41H23.3683ZM23.2983 271.81H20.3583C19.7283 271.81 19.1683 272.076 19.1683 272.874C19.1683 273.686 19.7283 273.952 20.3583 273.952H23.2983C23.9283 273.952 24.4743 273.686 24.4743 272.874C24.4743 272.076 23.9283 271.81 23.2983 271.81ZM31.0285 265.048H33.4505V262.892H35.3265V269.738L33.4505 270.018H29.1525V262.892H31.0285V265.048ZM39.1345 262.29V265.72H41.1365L40.8565 267.204H39.1345V271.376L37.2025 271.656V262.57L39.1345 262.29ZM39.2325 275.044H31.0145V271.166H32.9605V273.644H39.5125L39.2325 275.044ZM31.0285 268.632H33.4505V266.448H31.0285V268.632ZM49.3567 270.242C50.8827 270.242 52.2687 270.858 52.2687 272.748C52.2687 274.652 50.8827 275.268 49.3567 275.268H46.3607C44.7787 275.268 43.3647 274.652 43.3647 272.748C43.3647 270.858 44.7787 270.242 46.3607 270.242H49.3567ZM46.2767 262.584V264.866C46.2767 265.16 46.3327 265.482 46.5287 265.692C47.3967 266.658 48.3207 267.512 49.3007 268.338L48.1807 269.416C47.1867 268.618 46.1647 267.792 45.3107 266.854C44.4567 267.834 43.3087 268.926 42.2867 269.794L41.1107 268.772C42.0907 267.89 43.1267 266.924 43.9807 265.804C44.1627 265.566 44.2887 265.244 44.2887 264.95V262.864L46.2767 262.584ZM50.1827 270.032V265.608H47.8447V264.222H50.1827V262.57L52.0867 262.29V269.752L50.1827 270.032ZM49.1747 271.628H46.5147C45.7587 271.628 45.2407 271.936 45.2407 272.748C45.2407 273.574 45.7587 273.882 46.5147 273.882H49.1747C49.8747 273.882 50.3927 273.574 50.3927 272.748C50.3927 271.936 49.8747 271.628 49.1747 271.628ZM61.8889 270.242C63.4149 270.242 64.8009 270.858 64.8009 272.748C64.8009 274.652 63.4149 275.268 61.8889 275.268H58.8929C57.3109 275.268 55.8969 274.652 55.8969 272.748C55.8969 270.858 57.3109 270.242 58.8929 270.242H61.8889ZM61.3289 264.292H59.0609V265.076C59.0609 265.37 59.1169 265.692 59.3129 265.902C60.1809 266.868 61.0629 267.694 62.0429 268.52L60.9229 269.598C59.9289 268.8 58.9909 267.974 58.1089 267.064C57.2269 268.03 56.1769 269.038 55.1549 269.906L53.9789 268.884C54.9589 268.002 55.9669 267.134 56.8209 266.014C57.0029 265.776 57.1289 265.454 57.1289 265.16V264.292H54.6369V262.892H61.6089L61.3289 264.292ZM64.6189 262.29V265.65H66.6349L66.3549 267.064H64.6189V269.738L62.7009 270.018V262.57L64.6189 262.29ZM61.7069 271.628H59.0469C58.2909 271.628 57.7729 271.936 57.7729 272.748C57.7729 273.574 58.2909 273.882 59.0469 273.882H61.7069C62.4069 273.882 62.9249 273.574 62.9249 272.748C62.9249 271.936 62.4069 271.628 61.7069 271.628ZM73.7351 261.968V263.494H77.3611L77.0811 264.894H73.7351V265.104C73.7351 265.44 73.7631 265.762 73.9871 265.888C75.0791 266.518 76.7031 267.316 78.0331 267.918L77.1371 269.15C75.7931 268.576 73.9171 267.68 72.8111 267.078C71.7051 267.708 69.9691 268.562 68.4571 269.234L67.5471 268.016C69.0311 267.344 70.4171 266.658 71.4951 265.972C71.7191 265.832 71.8031 265.496 71.8031 265.16V264.894H68.3591V263.494H71.8031V262.248L73.7351 261.968ZM78.5931 271.25H73.8751V274.932L71.9151 275.212V271.25H66.7351V269.85H78.8731L78.5931 271.25ZM86.9393 264.39H84.6853V265.916C84.6853 266.21 84.7413 266.532 84.9373 266.742C85.8053 267.708 86.6873 268.534 87.6673 269.36L86.5473 270.438C85.5533 269.64 84.6153 268.814 83.7333 267.904C82.8513 268.87 81.8013 269.878 80.7793 270.746L79.6033 269.724C80.5833 268.842 81.5913 267.974 82.4453 266.854C82.6273 266.616 82.7533 266.294 82.7533 266V264.39H80.2333V263.004H87.2193L86.9393 264.39ZM90.4533 262.29V271.208L88.5493 271.488V262.57L90.4533 262.29ZM90.5373 275.044H82.3193V270.998H84.2653V273.644H90.8173L90.5373 275.044ZM100.703 267.596V268.982C99.6115 269.234 98.0575 269.304 96.6575 269.304H93.1995V262.836H99.5835V264.236H95.1455V265.356H99.4715V266.742H95.1455V267.918H96.8255C97.9595 267.918 99.4155 267.862 100.703 267.596ZM103.181 262.29V269.738L101.277 270.018V262.57L103.181 262.29ZM103.181 270.508V274.75L101.249 275.1H94.9075V270.508H103.181ZM96.8395 273.7H101.249V271.908H96.8395V273.7Z" fill="#2856CE"/>
<path d="M21.3047 289.59C21.2988 291.348 22.4531 293.164 24.0703 293.855L23.4609 294.723C22.2246 294.178 21.2402 293.018 20.7539 291.617C20.2676 293.117 19.2832 294.395 18.0586 294.992L17.4141 294.113C18.9961 293.369 20.168 291.4 20.1797 289.59V288.477H17.7773V287.551H23.6953V288.477H21.3047V289.59ZM25.0195 296.996V286.496H26.1328V296.996H25.0195ZM36.5391 286.508V294.465H35.4258V293.457H33.3164V292.672H35.4258V286.508H36.5391ZM27.7617 291.301C29.7012 291.283 32.3203 291.266 34.5586 290.984L34.6289 291.781C33.7324 291.934 32.7891 292.027 31.8633 292.092V294.137H30.75V292.15C29.7305 292.191 28.752 292.191 27.9023 292.191L27.7617 291.301ZM28.582 288.758C28.5762 287.645 29.6367 286.906 31.1953 286.906C32.7305 286.906 33.7969 287.645 33.7969 288.758C33.7969 289.877 32.7305 290.586 31.1953 290.586C29.6426 290.586 28.5762 289.877 28.582 288.758ZM29.2148 296.773V293.691H30.3164V295.871H36.7969V296.773H29.2148ZM29.6367 288.758C29.6309 289.379 30.2637 289.766 31.1953 289.766C32.0918 289.766 32.7363 289.379 32.7422 288.758C32.7363 288.131 32.0918 287.727 31.1953 287.738C30.2637 287.727 29.6309 288.131 29.6367 288.758ZM47.7891 294.746V295.684H38.1797V294.746H47.7891ZM39 288.418V287.504H46.9102V288.418H45.3047V291.922H46.875V292.812H39.0234V291.922H40.5938V288.418H39ZM41.6953 291.922H44.2148V288.418H41.6953V291.922ZM58.1602 294.805V295.742H48.5508V294.805H52.7812V292.965H49.7227V289.625H55.8867V288.148H49.6992V287.234H56.9883V290.516H50.8242V292.051H57.2344V292.965H53.8828V294.805H58.1602ZM67.2422 287.562V288.688C67.2422 290.047 67.2422 291.518 66.8555 293.762L65.7188 293.656C66.1406 291.553 66.1406 290.012 66.1406 288.688V288.477H59.9531V287.562H67.2422ZM58.9219 295.508V294.582H68.4961V295.508H58.9219ZM78.2461 286.508V292.742H77.1914V290.012H75.9023V292.625H74.8594V286.695H75.9023V289.098H77.1914V286.508H78.2461ZM69.7383 288.055V287.164H73.7227V290.117H70.8398V291.43C72.1406 291.424 73.1309 291.365 74.2852 291.137L74.4023 292.027C73.0781 292.273 71.9883 292.309 70.4531 292.309H69.7617V289.262H72.6562V288.055H69.7383ZM71.2266 296.867V293.211H78.2461V296.867H71.2266ZM72.3398 295.965H77.1562V294.102H72.3398V295.965ZM92.1914 291.758V292.66H88.0312V294.699H86.9062V292.66H82.582V291.758H92.1914ZM83.6367 288.875C83.6309 287.562 85.1191 286.748 87.375 286.742C89.6309 286.748 91.1074 287.562 91.1016 288.875C91.1074 290.182 89.6309 290.996 87.375 290.996C85.1191 290.996 83.6309 290.182 83.6367 288.875ZM83.7891 296.773V293.691H84.9023V295.859H91.125V296.773H83.7891ZM84.832 288.875C84.8203 289.631 85.8398 290.094 87.375 290.094C88.916 290.094 89.9238 289.631 89.9297 288.875C89.9238 288.096 88.916 287.639 87.375 287.633C85.8398 287.639 84.8203 288.096 84.832 288.875ZM95.8711 287.105C96.7441 287.1 97.4883 287.428 97.9805 287.973H100.605V286.496H101.719V292.695H100.605V291.277H97.9746C97.4824 291.816 96.7383 292.139 95.8711 292.133C94.2891 292.139 93.1113 291.09 93.1172 289.625C93.1113 288.143 94.2891 287.1 95.8711 287.105ZM94.1836 289.625C94.1777 290.545 94.8867 291.195 95.8711 291.184C96.8262 291.195 97.5352 290.545 97.5352 289.625C97.5352 288.682 96.8262 288.055 95.8711 288.066C94.8867 288.055 94.1777 288.682 94.1836 289.625ZM94.6523 294.957C94.6465 293.674 96.0059 292.924 98.2031 292.93C100.389 292.924 101.748 293.674 101.754 294.957C101.748 296.234 100.389 296.979 98.2031 296.973C96.0059 296.979 94.6465 296.234 94.6523 294.957ZM95.7422 294.957C95.7363 295.678 96.6621 296.1 98.2031 296.094C99.7441 296.1 100.664 295.678 100.664 294.957C100.664 294.207 99.7441 293.791 98.2031 293.785C96.6621 293.791 95.7363 294.207 95.7422 294.957ZM98.4902 288.863C98.5605 289.098 98.6016 289.355 98.6016 289.625C98.6016 289.883 98.5605 290.135 98.4902 290.363H100.605V288.863H98.4902Z" fill="#737373"/>
<rect x="0.5" y="220.5" width="119" height="119" rx="15.5" stroke="#86A5F6"/>
<rect x="219.5" y="0.5" width="119" height="119" rx="15.5" fill="white"/>
<path d="M250.937 23.586H246.597V22.2H252.953V23.194C252.953 27.002 250.293 30.026 247.227 31.426L246.079 30.18C248.753 29.06 250.937 26.26 250.937 23.824V23.586ZM256.509 21.29V33.82L254.605 34.1V21.57L256.509 21.29ZM270.147 27.87H265.457V28.794H268.565V32.098H262.055V32.854H268.999L268.719 34.156H260.109V30.852H266.633V30.082H260.081V28.794H263.441V27.87H258.289V26.512H270.427L270.147 27.87ZM265.359 21.276V22.074C265.359 22.368 265.373 22.774 265.611 22.928C266.633 23.586 268.593 24.552 269.685 24.986L268.817 26.218C267.529 25.7 265.611 24.748 264.351 24.006C263.105 24.762 261.103 25.728 259.899 26.204L259.031 25.014C260.277 24.538 261.999 23.726 263.063 22.998C263.329 22.816 263.357 22.494 263.357 22.2V21.556L265.359 21.276ZM282.007 29.186V33.75L280.075 34.1H273.733V29.186H275.679V30.432H280.075V29.186H282.007ZM271.815 26.064C271.815 24.552 273.257 23.768 275.007 23.768C276.757 23.768 278.199 24.552 278.199 26.064V26.344C278.199 27.856 276.757 28.682 275.007 28.682C273.257 28.682 271.815 27.856 271.815 26.344V26.064ZM278.451 24.3H280.103V21.57L282.007 21.29V28.416L280.103 28.696V27.926H278.451V26.596H280.103V25.588H278.451V24.3ZM278.591 23.488H271.143V22.116H273.971V21.206L275.903 20.926V22.116H278.871L278.591 23.488ZM276.379 26.12C276.379 25.49 275.777 25.084 275.007 25.084C274.237 25.084 273.635 25.49 273.635 26.12V26.288C273.635 26.904 274.237 27.366 275.007 27.366C275.777 27.366 276.379 26.904 276.379 26.288V26.12ZM275.679 32.728H280.075V31.804H275.679V32.728ZM288.463 24.594V23.32H284.753V21.92H290.353V25.966H286.699V27.352H287.427C288.701 27.352 290.633 27.268 291.977 27.03V28.416C290.549 28.668 288.547 28.752 287.273 28.752H284.753V24.594H288.463ZM294.735 21.29V29.046L292.831 29.326V26.638H290.913V25.252H292.831V24.132H290.913V22.746H292.831V21.57L294.735 21.29ZM286.349 29.676H294.735V34.072L292.803 34.352V31.062H286.349V29.676ZM301.293 21.752H307.425V27.268L305.535 27.548H301.293V21.752ZM311.429 30.81L308.111 30.824C308.111 31.076 308.139 31.342 308.363 31.454C309.539 32.14 310.687 32.7 312.101 33.33L311.205 34.506C309.791 33.918 308.349 33.232 307.173 32.602C306.095 33.204 304.555 33.988 303.141 34.604L302.217 33.442C303.729 32.798 304.821 32.182 305.871 31.552C306.095 31.426 306.165 31.104 306.179 30.824H302.693V29.494H306.179V28.332L308.111 28.052V29.494H311.709L311.429 30.81ZM311.387 21.29V28.36L309.497 28.64V21.57L311.387 21.29ZM305.535 23.152H303.183V26.19H305.535V23.152ZM262.952 52.656V49.38H260.684V48.918C260.124 49.912 258.962 50.43 257.688 50.43C255.924 50.43 254.356 49.422 254.356 47.546V46.734C254.356 44.858 255.924 43.85 257.688 43.85C258.962 43.85 260.124 44.382 260.684 45.376V44.844H262.952V43.57L264.842 43.29V52.376L262.952 52.656ZM264.94 56.044H256.722V51.998H258.668V54.644H265.22L264.94 56.044ZM259.13 47.49V46.79C259.13 45.81 258.528 45.25 257.688 45.25C256.848 45.25 256.246 45.81 256.246 46.79V47.49C256.246 48.47 256.848 49.03 257.688 49.03C258.528 49.03 259.13 48.47 259.13 47.49ZM261.02 47.546C261.02 47.7 261.006 47.854 260.978 47.994H262.952V46.244H260.978C261.006 46.398 261.02 46.566 261.02 46.734V47.546ZM266.622 49.408H274.532C274.77 48.246 275.022 46.468 275.078 45.292H268.106V43.892H277.108C277.052 45.446 276.898 47.574 276.492 49.408H278.76L278.48 50.794H273.762V55.932L271.802 56.212V50.794H266.622V49.408ZM283.13 45.334H287.708V43.626H289.64V49.198L287.708 49.548H281.184V43.626H283.13V45.334ZM291.502 50.696L291.222 52.082H286.504V55.932L284.544 56.212V52.082H279.364V50.696H291.502ZM283.13 48.148H287.708V46.734H283.13V48.148ZM303.068 43.29V55.82L301.164 56.1V48.344H298.588V46.93H301.164V43.57L303.068 43.29ZM297.16 43.934V47.616C297.16 47.91 297.23 48.218 297.398 48.442C298.126 49.422 299.218 50.766 300.17 51.83L299.05 52.908C298.07 51.872 296.894 50.556 296.18 49.604C295.354 50.654 294.136 52.138 293.142 53.216L291.966 52.194C292.918 51.088 294.052 49.744 294.878 48.554C295.046 48.316 295.172 47.994 295.172 47.7V44.214L297.16 43.934Z" fill="#2856CE"/>
<path d="M260.725 67.4961V77.9961H259.6V67.4961H260.725ZM252.1 75.1836C254.889 73.8535 256.254 71.9609 256.471 69.5117H252.604V68.6211H257.596C257.596 71.6973 256.289 74.3574 252.686 76.0859L252.1 75.1836ZM267.721 67.8945C267.727 69.1016 269.391 70.1152 271.436 70.3438L271.049 71.1875C269.326 70.9766 267.82 70.25 267.146 69.1777C266.467 70.25 264.961 70.9766 263.256 71.1875L262.869 70.3438C264.92 70.1152 266.578 69.1016 266.584 67.8945V67.543H267.721V67.8945ZM262.365 72.6875V71.7969H271.939V72.6875H267.697V73.625H270.732V76.1094H264.615V77.0352H271.025V77.8906H263.525V75.3008H269.631V74.4805H263.514V73.625H266.584V72.6875H262.365ZM278.654 68.5039V69.3945H272.748V68.5039H275.209V67.4023H276.311V68.5039H278.654ZM273.334 71.7383C273.334 70.6074 274.318 69.8457 275.748 69.8398C277.16 69.8457 278.168 70.6074 278.174 71.7383C278.168 72.8809 277.16 73.6309 275.748 73.6367C274.318 73.6309 273.334 72.8809 273.334 71.7383ZM274.377 71.7383C274.371 72.3887 274.916 72.8047 275.748 72.8047C276.568 72.8047 277.131 72.3887 277.143 71.7383C277.131 71.0996 276.568 70.6895 275.748 70.6953C274.916 70.6895 274.371 71.0996 274.377 71.7383ZM274.576 77.8672V74.1406H275.678V75.1367H280.389V74.1406H281.49V77.8672H274.576ZM275.678 76.9883H280.389V75.9922H275.678V76.9883ZM278.678 72.8398V71.9375H280.377V70.7891H278.689V69.875H280.377V67.4961H281.49V73.7188H280.377V72.8398H278.678ZM288.111 68.1289V71.1875H284.643V72.6406C286.471 72.6406 287.467 72.5996 288.65 72.3828L288.756 73.2852C287.473 73.502 286.395 73.5371 284.303 73.543H283.541V70.3438H286.998V69.0195H283.529V68.1289H288.111ZM284.736 75.3945V74.4922H291.861V78.0078H290.748V75.3945H284.736ZM288.779 72.1133V71.2227H290.748V69.9219H288.779V69.0312H290.748V67.5078H291.861V73.9648H290.748V72.1133H288.779ZM301.951 68.1641V72.4766H296.959V68.1641H301.951ZM297.65 77.1055C299.561 76.918 301.055 75.9629 301.131 75.0195H298.072V74.1758H301.154V73.1914H302.256V74.1758H305.35V75.0195H302.279C302.355 75.9336 303.814 76.8945 305.725 77.1055L305.35 77.9609C303.703 77.7617 302.344 77.0586 301.711 76.1328C301.066 77.0703 299.689 77.7617 298.037 77.9609L297.65 77.1055ZM298.049 71.6094H300.85V69.0547H298.049V71.6094ZM304.002 73.4961V67.4961H305.104V73.4961H304.002ZM251.543 94.0938C253.816 94.0938 255.252 94.8145 255.258 96.0391C255.252 97.2578 253.816 97.9785 251.543 97.9727C249.293 97.9785 247.852 97.2578 247.852 96.0391C247.852 94.8145 249.293 94.0938 251.543 94.0938ZM246.82 93.2266V92.3242H250.652V90.3555H251.742V92.3242H256.371V93.2266H246.82ZM247.934 88.9023V88.0117H255.176V88.8906C255.182 89.7285 255.182 90.5957 254.883 91.6797L253.793 91.5625C254.074 90.4902 254.074 89.7168 254.074 88.9023H247.934ZM248.965 96.0391C248.953 96.7188 249.955 97.1113 251.543 97.1172C253.148 97.1113 254.145 96.7188 254.156 96.0391C254.145 95.3477 253.148 94.9434 251.543 94.9375C249.955 94.9434 248.953 95.3477 248.965 96.0391ZM266.766 92.6055V93.4961H257.18V92.6055H261.434V91.4922H258.375V87.9766H265.582V88.8555H259.477V90.6016H265.652V91.4922H262.512V92.6055H266.766ZM258.316 96.0859C258.316 94.8672 259.682 94.1816 261.961 94.1758C264.223 94.1816 265.576 94.8672 265.582 96.0859C265.576 97.3047 264.223 97.9902 261.961 97.9961C259.682 97.9902 258.316 97.3047 258.316 96.0859ZM259.441 96.0859C259.436 96.7598 260.355 97.1289 261.961 97.1172C263.543 97.1289 264.469 96.7598 264.469 96.0859C264.469 95.4238 263.543 95.043 261.961 95.043C260.355 95.043 259.436 95.4238 259.441 96.0859ZM276.305 87.5078V95.2422H275.191V92.5117H272.584C272.092 93.1035 271.33 93.4609 270.457 93.4609C268.875 93.4609 267.697 92.3535 267.703 90.8125C267.697 89.2598 268.875 88.1523 270.457 88.1406C271.324 88.1465 272.08 88.5039 272.572 89.0898H275.191V87.5078H276.305ZM268.77 90.8125C268.764 91.8027 269.473 92.4824 270.457 92.4766C271.4 92.4824 272.121 91.8027 272.121 90.8125C272.121 89.8223 271.4 89.1426 270.457 89.1367C269.473 89.1426 268.764 89.8223 268.77 90.8125ZM269.484 97.7734V94.4336H270.598V96.8711H276.586V97.7734H269.484ZM273.064 89.9922C273.146 90.25 273.188 90.5195 273.188 90.8125C273.188 91.0938 273.146 91.3633 273.07 91.6094H275.191V89.9922H273.064ZM286.277 88.1523V89.0781C286.277 90.0742 286.277 91.1582 285.984 92.6523H287.496V93.5664H283.242V98.0078H282.117V93.5664H277.922V92.6523H284.859C285.17 91.1523 285.17 90.0566 285.176 89.0781V89.0664H279.094V88.1523H286.277ZM295.113 89.6875C295.113 91.0469 296.115 92.3242 297.738 92.8398L297.164 93.707C295.957 93.3086 295.049 92.4824 294.568 91.4336C294.1 92.5762 293.162 93.4785 291.914 93.918L291.34 93.0391C292.975 92.4824 293.982 91.123 293.988 89.6875V89.2305H291.633V88.3281H297.422V89.2305H295.113V89.6875ZM293.062 97.7734V94.4453H294.188V96.8711H300.246V97.7734H293.062ZM298.816 95.1719V87.5078H299.93V95.1719H298.816ZM310.547 87.4961V94.1172H309.492V91.1875H308.273V93.7539H307.23V87.6953H308.273V90.2734H309.492V87.4961H310.547ZM301.535 89.5703V88.6914H303.656V87.5781H304.758V88.6914H306.844V89.5703H301.535ZM301.945 91.8672C301.945 90.7773 302.883 90.0625 304.195 90.0625C305.537 90.0625 306.469 90.7773 306.469 91.8672C306.469 92.957 305.537 93.6719 304.195 93.6719C302.883 93.6719 301.945 92.957 301.945 91.8672ZM302.941 91.8672C302.941 92.4648 303.451 92.8574 304.195 92.8633C304.951 92.8574 305.467 92.4648 305.461 91.8672C305.467 91.2695 304.951 90.877 304.195 90.8828C303.451 90.877 302.941 91.2695 302.941 91.8672ZM303.48 96.1328C303.469 94.9434 304.805 94.2695 307.031 94.2695C309.264 94.2695 310.6 94.9434 310.605 96.1328C310.6 97.3105 309.264 97.9785 307.031 97.9727C304.805 97.9785 303.469 97.3105 303.48 96.1328ZM304.582 96.1328C304.57 96.7656 305.473 97.1289 307.031 97.1172C308.596 97.1289 309.486 96.7656 309.492 96.1328C309.486 95.4707 308.596 95.1191 307.031 95.125C305.473 95.1191 304.57 95.4707 304.582 96.1328Z" fill="#737373"/>
<rect x="219.5" y="0.5" width="119" height="119" rx="15.5" stroke="#86A5F6"/>
<rect x="0.5" y="0.5" width="119" height="119" rx="15.5" fill="white"/>
<path d="M54.9158 45.44C56.4978 45.44 57.9118 46 57.9118 47.848C57.9118 49.696 56.4978 50.256 54.9158 50.256H52.4518C50.8698 50.256 49.4558 49.696 49.4558 47.848C49.4558 46 50.8698 45.44 52.4518 45.44H54.9158ZM52.4798 50.69V52.202H54.9158V50.69H56.8618V52.202H59.7598L59.4798 53.616H47.6218V52.202H50.5338V50.69H52.4798ZM58.3318 44.908H48.8958V43.536H52.6898V42.388L54.6218 42.108V43.536H58.6118L58.3318 44.908ZM54.7478 46.784H52.6198C51.9058 46.784 51.3318 47.078 51.3318 47.848C51.3318 48.618 51.9058 48.912 52.6198 48.912H54.7478C55.4618 48.912 56.0358 48.618 56.0358 47.848C56.0358 47.078 55.4618 46.784 54.7478 46.784ZM68.47 50.242C69.996 50.242 71.382 50.858 71.382 52.748C71.382 54.652 69.996 55.268 68.47 55.268H65.474C63.892 55.268 62.478 54.652 62.478 52.748C62.478 50.858 63.892 50.242 65.474 50.242H68.47ZM65.39 42.584V44.866C65.39 45.16 65.446 45.482 65.642 45.692C66.51 46.658 67.434 47.512 68.414 48.338L67.294 49.416C66.3 48.618 65.278 47.792 64.424 46.854C63.57 47.834 62.422 48.926 61.4 49.794L60.224 48.772C61.204 47.89 62.24 46.924 63.094 45.804C63.276 45.566 63.402 45.244 63.402 44.95V42.864L65.39 42.584ZM69.296 50.032V45.608H66.958V44.222H69.296V42.57L71.2 42.29V49.752L69.296 50.032ZM68.288 51.628H65.628C64.872 51.628 64.354 51.936 64.354 52.748C64.354 53.574 64.872 53.882 65.628 53.882H68.288C68.988 53.882 69.506 53.574 69.506 52.748C69.506 51.936 68.988 51.628 68.288 51.628Z" fill="#2856CE"/>
<path d="M43.5527 67.9844V68.8867H34.916V67.9844H38.6895V66.6484H39.791V67.9844H43.5527ZM34.459 75.8359V74.9336H36.9199V73.0586C36.1582 72.7246 35.7305 72.1855 35.7363 71.4766C35.7305 70.2227 37.0723 69.4844 39.2402 69.4961C41.3906 69.4844 42.7383 70.2227 42.7324 71.4766C42.7383 72.1855 42.3105 72.7246 41.5488 73.0586V74.9336H44.0684V75.8359H34.459ZM36.873 71.4766C36.8613 72.1855 37.7402 72.5898 39.2402 72.5898C40.7168 72.5898 41.6016 72.1855 41.5957 71.4766C41.6016 70.7617 40.7168 70.3574 39.2402 70.3516C37.7402 70.3574 36.8613 70.7617 36.873 71.4766ZM38.0332 74.9336H40.459V73.3691C40.0898 73.4277 39.6797 73.457 39.2402 73.457C38.8008 73.457 38.3965 73.4277 38.0332 73.3691V74.9336ZM48.5566 68.0664C48.5508 69.5371 49.5059 70.8496 51.0996 71.3711L50.4902 72.2383C49.3359 71.8164 48.4863 71.0078 48.0293 69.9531C47.5781 71.1543 46.6641 72.0977 45.3926 72.5547L44.7949 71.6641C46.4707 71.0898 47.4434 69.6895 47.4551 68.1133V67.082H48.5566V68.0664ZM46.5176 74.9922C46.5117 73.7207 47.8594 72.9824 50.0684 72.9883C52.2656 72.9824 53.6133 73.7207 53.6191 74.9922C53.6133 76.2578 52.2656 76.9785 50.0684 76.9727C47.8594 76.9785 46.5117 76.2578 46.5176 74.9922ZM47.6191 74.9922C47.6133 75.6895 48.5273 76.0996 50.0684 76.0938C51.5977 76.0996 52.5117 75.6895 52.5176 74.9922C52.5117 74.2715 51.5977 73.8555 50.0684 73.8555C48.5273 73.8555 47.6133 74.2715 47.6191 74.9922ZM50.2559 69.543V68.6289H52.4707V66.4961H53.584V72.6953H52.4707V69.543H50.2559ZM61.0371 67.4219V68.3359H56.9473V70.3633H60.6387V71.2539H56.9473V73.6094C58.7812 73.5977 60.1113 73.5332 61.6699 73.2812L61.7871 74.1836C60.123 74.4531 58.6816 74.5059 56.7012 74.5117H55.8457V67.4219H61.0371ZM62.8066 76.9961V66.4961H63.9316V76.9961H62.8066ZM68.0684 67.3047C69.457 67.3047 70.4824 68.3711 70.4824 69.8828C70.4824 71.3945 69.457 72.4609 68.0684 72.4492C66.668 72.4609 65.6602 71.3945 65.666 69.8828C65.6602 68.3711 66.668 67.3047 68.0684 67.3047ZM66.6621 69.8828C66.6562 70.8555 67.2539 71.5117 68.0684 71.5117C68.877 71.5117 69.4629 70.8555 69.4746 69.8828C69.4629 68.916 68.877 68.248 68.0684 68.2539C67.2539 68.248 66.6562 68.916 66.6621 69.8828ZM67.5645 76.7734V73.3281H68.666V75.8711H74.8301V76.7734H67.5645ZM71.209 73.9961V66.6953H72.252V69.5312H73.4707V66.5078H74.5254V74.3711H73.4707V70.4453H72.252V73.9961H71.209ZM84.8145 66.4961V76.9961H83.6895V66.4961H84.8145ZM75.7676 73.8438C77.0801 72.8652 77.3965 71.0371 77.4082 69.6016V67.3984H78.4395V69.6016C78.4453 70.709 78.6211 72.2031 79.4121 73.2695C80.1914 72.2266 80.3672 70.7559 80.373 69.6016V67.3984H81.4395V69.6016C81.4336 71.0781 81.7559 72.8945 83.0684 73.8438L82.377 74.6406C81.6094 74.084 81.1582 73.1875 80.9004 72.1855C80.6543 73.2109 80.1973 74.1484 79.4121 74.7227C78.627 74.1484 78.1699 73.2051 77.9238 72.1855C77.6719 73.1641 77.2266 74.043 76.4941 74.6055L75.7676 73.8438Z" fill="#737373"/>
<rect x="0.5" y="0.5" width="119" height="119" rx="15.5" stroke="#86A5F6"/>
</svg>
