<svg width="497" height="159" viewBox="0 0 497 159" fill="none" xmlns="http://www.w3.org/2000/svg">
<rect width="497" height="50" rx="8" fill="#1B4B66"/>
<path d="M229.055 17.984V22.848H230.495V18.08L232.511 17.76V32.08L230.495 32.4V24.464H229.055V31.616L227.071 31.936V18.304L229.055 17.984ZM225.647 20.384H222.783V26.88H223.599C224.527 26.88 225.567 26.816 226.479 26.608V28.16C225.551 28.352 224.431 28.432 223.263 28.432H220.735V18.8H225.647V20.384ZM248.226 28.864L247.906 30.496H234.354V28.864H237.778V26.224H239.97V28.864H242.578V26.224H244.77V28.864H248.226ZM237.666 20.512H239.842L239.922 24.016H242.658L242.77 20.512H244.962L244.818 24.016H247.138L246.818 25.6H235.73V24.016H237.73L237.666 20.512ZM246.306 19.952H236.242V18.352H246.306V19.952ZM261.46 17.76V32.08L259.3 32.4V18.08L261.46 17.76ZM254.996 25.472V21.712C254.996 20.56 254.596 19.888 253.476 19.888C252.356 19.888 251.956 20.56 251.956 21.712V25.472C251.956 26.624 252.356 27.312 253.476 27.312C254.596 27.312 254.996 26.624 254.996 25.472ZM257.172 21.664V25.536C257.172 27.68 255.7 28.928 253.476 28.928C251.252 28.928 249.78 27.68 249.78 25.536V21.664C249.78 19.52 251.252 18.272 253.476 18.272C255.7 18.272 257.172 19.52 257.172 21.664ZM275.575 17.76V23.232H277.879L277.559 25.024H275.575V32.08L273.383 32.4V18.08L275.575 17.76ZM269.063 18.496V22.704C269.063 23.04 269.159 23.392 269.351 23.648C270.183 24.768 271.447 26.304 272.535 27.52L271.255 28.752C270.135 27.568 268.775 26.064 267.959 24.976C267.015 26.176 265.639 27.872 264.503 29.104L263.159 27.936C264.247 26.672 265.527 25.136 266.471 23.776C266.663 23.504 266.823 23.136 266.823 22.8V18.816L269.063 18.496Z" fill="white"/>
<rect x="0.310959" y="75.311" width="92.3781" height="83.3781" rx="7.68904" fill="#F5F5F5"/>
<path d="M31.0645 99.8711V108.799H29.5332V99.8711H31.0645ZM20.9883 103.768C20.9883 101.97 22.4443 100.685 24.3242 100.678C26.2041 100.685 27.6533 101.97 27.6465 103.768C27.6533 105.593 26.2041 106.871 24.3242 106.871C22.4443 106.871 20.9883 105.593 20.9883 103.768ZM22.4785 103.768C22.4717 104.861 23.2646 105.545 24.3242 105.545C25.3564 105.545 26.1562 104.861 26.1562 103.768C26.1562 102.701 25.3564 102.004 24.3242 102.004C23.2646 102.004 22.4717 102.701 22.4785 103.768ZM22.8887 111.971V107.896H24.4199V110.74H31.4062V111.971H22.8887ZM37.4082 101.977C37.4082 103.487 38.4062 104.998 40.3203 105.641L39.5547 106.816C38.1738 106.365 37.1963 105.429 36.6562 104.267C36.1162 105.559 35.0908 106.598 33.6211 107.09L32.8418 105.887C34.8105 105.237 35.8633 103.597 35.8633 101.99V101.826H33.293V100.609H39.9648V101.826H37.4082V101.977ZM34.7969 109.031V107.814H43.2188V112.217H41.7012V109.031H34.7969ZM39.5957 104.164V102.92H41.7012V99.8574H43.2188V107.227H41.7012V104.164H39.5957ZM47.375 110.029L46.2266 113.857H44.9277L45.6387 110.029H47.375ZM60.1172 104.875V106.078H55.2227V107.008H58.709V110.043H51.6816V110.945H59.0508V112.107H50.1914V108.949H57.2188V108.156H50.1777V107.008H53.7051V106.078H48.8516V104.875H60.1172ZM50.2734 104.096V100.24H58.668V104.096H50.2734ZM51.7637 102.906H57.1504V101.43H51.7637V102.906ZM65.4902 101.977C65.4902 103.487 66.4883 104.998 68.4023 105.641L67.6367 106.816C66.2559 106.365 65.2783 105.429 64.7383 104.267C64.1982 105.559 63.1729 106.598 61.7031 107.09L60.9238 105.887C62.8926 105.237 63.9453 103.597 63.9453 101.99V101.826H61.375V100.609H68.0469V101.826H65.4902V101.977ZM62.8789 109.031V107.814H71.3008V112.217H69.7832V109.031H62.8789ZM67.6777 104.164V102.92H69.7832V99.8574H71.3008V107.227H69.7832V104.164H67.6777ZM46.1035 131.482V132.727H34.8105V131.482H39.6777V129.076H36.0547V122.678H37.5723V124.701H43.3008V122.678H44.8184V129.076H41.1816V131.482H46.1035ZM37.5723 127.846H43.3008V125.918H37.5723V127.846ZM56.6582 121.857V125.48H58.3809V126.738H56.6582V130.895H55.1406V121.857H56.6582ZM47.0469 125.795C47.04 123.97 48.5029 122.685 50.3828 122.678C52.2627 122.685 53.7051 123.97 53.7188 125.795C53.7051 127.593 52.2627 128.898 50.3828 128.898C48.5029 128.898 47.04 127.593 47.0469 125.795ZM48.5371 125.795C48.5303 126.861 49.3506 127.565 50.3828 127.559C51.4287 127.565 52.2217 126.861 52.2285 125.795C52.2217 124.701 51.4287 124.004 50.3828 124.004C49.3506 124.004 48.5303 124.701 48.5371 125.795ZM48.7422 133.971V129.951H50.2598V132.74H57.1504V133.971H48.7422Z" fill="#222222"/>
<rect x="0.310959" y="75.311" width="92.3781" height="83.3781" rx="7.68904" stroke="#E1E6EF" stroke-width="0.621918"/>
<rect x="46" y="62" width="1" height="13" fill="#C4C4C4"/>
<rect x="101.311" y="75.311" width="92.3781" height="83.3781" rx="7.68904" fill="#F5F5F5"/>
<path d="M139.242 100.404C140.842 100.397 142.1 101.32 142.407 102.674H144.643V99.8574H146.16V106.488H144.643V103.904H142.421C142.127 105.292 140.855 106.229 139.242 106.229C137.349 106.229 135.975 105.012 135.975 103.303C135.975 101.614 137.349 100.397 139.242 100.404ZM137.424 103.303C137.424 104.294 138.176 104.95 139.242 104.943C140.281 104.95 141.026 104.294 141.033 103.303C141.026 102.312 140.281 101.669 139.242 101.676C138.176 101.669 137.424 102.312 137.424 103.303ZM138.012 112.066V107.062H139.516V108.375H144.643V107.062H146.16V112.066H138.012ZM139.516 110.836H144.643V109.551H139.516V110.836ZM159.189 106.857V108.088H154.268V112.203H152.764V108.088H147.896V106.857H159.189ZM149.277 105.408V100.486H157.809V105.408H149.277ZM150.768 104.219H156.291V101.703H150.768V104.219ZM140.11 121.871V130.936H138.593V127.873H135.646C135.059 128.536 134.184 128.933 133.192 128.939C131.326 128.933 129.925 127.606 129.925 125.781C129.925 123.936 131.326 122.616 133.192 122.609C134.177 122.616 135.052 123.006 135.64 123.662H138.593V121.871H140.11ZM131.374 125.781C131.374 126.882 132.133 127.586 133.192 127.586C134.204 127.586 134.977 126.882 134.983 125.781C134.977 124.674 134.204 123.963 133.192 123.963C132.133 123.963 131.374 124.674 131.374 125.781ZM132.003 133.971V130.006H133.521V132.74H140.425V133.971H132.003ZM136.31 124.893C136.385 125.173 136.433 125.467 136.433 125.781C136.433 126.082 136.392 126.369 136.316 126.643H138.593V124.893H136.31ZM153.126 127.928V129.158H141.86V127.928H146.728V126.205H148.231V127.928H153.126ZM142.476 125.727C145.025 125.405 146.7 124.004 146.7 122.527V122.062H148.245V122.527C148.245 124.038 149.906 125.405 152.483 125.727L151.896 126.916C149.872 126.608 148.252 125.692 147.466 124.394C146.673 125.686 145.06 126.608 143.022 126.916L142.476 125.727ZM143.104 131.332V130.143H151.745V134.217H150.228V131.332H143.104ZM158.485 123.635C158.479 125.316 159.463 126.854 161.397 127.463L160.577 128.652C159.23 128.174 158.287 127.271 157.761 126.103C157.214 127.449 156.182 128.509 154.685 129.035L153.878 127.805C155.922 127.135 156.947 125.487 156.954 123.703V122.527H158.485V123.635ZM155.929 131.838C155.915 130.334 157.521 129.452 160.126 129.459C162.744 129.452 164.344 130.334 164.351 131.838C164.344 133.342 162.744 134.203 160.126 134.203C157.521 134.203 155.915 133.342 155.929 131.838ZM157.433 131.838C157.426 132.59 158.41 133.007 160.126 133.014C161.855 133.007 162.833 132.59 162.833 131.838C162.833 131.059 161.855 130.642 160.126 130.635C158.41 130.642 157.426 131.059 157.433 131.838ZM160.331 125.494V124.25H162.792V121.857H164.31V129.131H162.792V125.494H160.331Z" fill="#222222"/>
<rect x="101.311" y="75.311" width="92.3781" height="83.3781" rx="7.68904" stroke="#E1E6EF" stroke-width="0.621918"/>
<rect x="147" y="62" width="1" height="13" fill="#C4C4C4"/>
<rect x="202.311" y="75.311" width="92.3781" height="83.3781" rx="7.68904" fill="#F5F5F5"/>
<path d="M236.004 109.482V110.727H224.711V109.482H229.578V107.076H225.955V100.678H227.473V102.701H233.201V100.678H234.719V107.076H231.082V109.482H236.004ZM227.473 105.846H233.201V103.918H227.473V105.846ZM246.559 99.8574V103.48H248.281V104.738H246.559V108.895H245.041V99.8574H246.559ZM236.947 103.795C236.94 101.97 238.403 100.685 240.283 100.678C242.163 100.685 243.605 101.97 243.619 103.795C243.605 105.593 242.163 106.898 240.283 106.898C238.403 106.898 236.94 105.593 236.947 103.795ZM238.438 103.795C238.431 104.861 239.251 105.565 240.283 105.559C241.329 105.565 242.122 104.861 242.129 103.795C242.122 102.701 241.329 102.004 240.283 102.004C239.251 102.004 238.431 102.701 238.438 103.795ZM238.643 111.971V107.951H240.16V110.74H247.051V111.971H238.643ZM253.326 102.824C253.312 105.032 254.42 107.261 256.334 108.184L255.404 109.4C254.064 108.724 253.101 107.418 252.574 105.846C252.034 107.527 251.022 108.922 249.607 109.633L248.678 108.416C250.667 107.473 251.802 105.107 251.809 102.824V100.855H253.326V102.824ZM257.072 112.217V99.8574H258.59V104.697H260.49V105.996H258.59V112.217H257.072ZM271.1 100.992V102.182C271.086 103.72 271.086 105.436 270.607 108.02L269.076 107.855C269.562 105.449 269.562 103.692 269.568 102.209H262.186V100.992H271.1ZM261.01 110.617V109.373H265.166V105.08H266.67V109.373H272.275V110.617H261.01ZM247.447 121.857V134.217H245.998V127.914H244.604V133.588H243.209V122.09H244.604V126.697H245.998V121.857H247.447ZM237.193 131.332V123.32H241.814V124.551H238.725V130.047C240.064 130.033 241.172 129.965 242.43 129.732L242.539 130.977C241.042 131.277 239.75 131.318 238.027 131.332H237.193ZM260.176 127.723V128.926H248.91V127.723H260.176ZM250.072 124.537C250.072 123.061 251.822 122.145 254.529 122.145C257.243 122.145 258.979 123.061 258.986 124.537C258.979 126.034 257.243 126.93 254.529 126.93C251.822 126.93 250.072 126.034 250.072 124.537ZM250.223 131.975C250.223 130.525 251.829 129.726 254.529 129.732C257.188 129.726 258.802 130.525 258.809 131.975C258.802 133.417 257.188 134.224 254.529 134.217C251.829 134.224 250.223 133.417 250.223 131.975ZM251.658 124.537C251.645 125.33 252.725 125.747 254.529 125.74C256.334 125.747 257.414 125.33 257.414 124.537C257.414 123.751 256.334 123.334 254.529 123.334C252.725 123.334 251.645 123.751 251.658 124.537ZM251.768 131.975C251.761 132.679 252.731 133.048 254.529 133.041C256.3 133.048 257.277 132.679 257.291 131.975C257.277 131.25 256.3 130.881 254.529 130.881C252.731 130.881 251.761 131.25 251.768 131.975Z" fill="#222222"/>
<rect x="202.311" y="75.311" width="92.3781" height="83.3781" rx="7.68904" stroke="#E1E6EF" stroke-width="0.621918"/>
<rect x="248" y="62" width="1" height="13" fill="#C4C4C4"/>
<rect x="303.311" y="75.311" width="92.3781" height="83.3781" rx="7.68904" fill="#F5F5F5"/>
<path d="M336.32 99.8574V112.217H334.857V105.873H333.531V111.643H332.109V100.186H333.531V104.643H334.857V99.8574H336.32ZM325.615 108.58C328.247 107.062 329.361 105.107 329.58 102.633H326.189V101.416H331.057C331.057 104.759 330.004 107.63 326.49 109.633L325.615 108.58ZM348.105 99.8711V108.799H346.574V99.8711H348.105ZM338.029 103.768C338.029 101.97 339.485 100.685 341.365 100.678C343.245 100.685 344.694 101.97 344.688 103.768C344.694 105.593 343.245 106.871 341.365 106.871C339.485 106.871 338.029 105.593 338.029 103.768ZM339.52 103.768C339.513 104.861 340.306 105.545 341.365 105.545C342.397 105.545 343.197 104.861 343.197 103.768C343.197 102.701 342.397 102.004 341.365 102.004C340.306 102.004 339.513 102.701 339.52 103.768ZM339.93 111.971V107.896H341.461V110.74H348.447V111.971H339.93ZM360.26 99.8574V107.199H358.742V104.178H356.637V102.934H358.742V99.8574H360.26ZM349.869 105.969C351.858 105.285 352.904 103.624 352.904 101.99V101.895H350.334V100.664H357.006V101.895H354.449V101.977C354.449 103.48 355.447 104.998 357.361 105.641L356.596 106.844C355.222 106.379 354.251 105.436 353.704 104.273C353.164 105.586 352.132 106.652 350.662 107.172L349.869 105.969ZM351.879 109.865C351.865 108.382 353.472 107.514 356.076 107.514C358.694 107.514 360.294 108.382 360.301 109.865C360.294 111.349 358.694 112.21 356.076 112.217C353.472 112.21 351.865 111.349 351.879 109.865ZM353.383 109.865C353.376 110.631 354.36 111.048 356.076 111.041C357.806 111.048 358.783 110.631 358.783 109.865C358.783 109.093 357.806 108.676 356.076 108.676C354.36 108.676 353.376 109.093 353.383 109.865ZM373.303 109.482V110.727H362.01V109.482H366.877V107.076H363.254V100.678H364.771V102.701H370.5V100.678H372.018V107.076H368.381V109.482H373.303ZM364.771 105.846H370.5V103.918H364.771V105.846ZM349.104 131.482V132.727H337.811V131.482H342.678V129.076H339.055V122.678H340.572V124.701H346.301V122.678H347.818V129.076H344.182V131.482H349.104ZM340.572 127.846H346.301V125.918H340.572V127.846ZM360.629 123.512V124.742H350.416V123.512H354.777V122.021H356.281V123.512H360.629ZM349.91 132.891V131.66H354.777V130.143C352.645 129.979 351.353 129.117 351.359 127.75C351.353 126.26 352.952 125.371 355.529 125.371C358.072 125.371 359.692 126.26 359.686 127.75C359.692 129.11 358.387 129.972 356.281 130.143V131.66H361.203V132.891H349.91ZM352.918 127.75C352.911 128.543 353.848 128.946 355.529 128.953C357.177 128.946 358.127 128.543 358.127 127.75C358.127 126.971 357.177 126.567 355.529 126.561C353.848 126.567 352.911 126.971 352.918 127.75Z" fill="#222222"/>
<rect x="303.311" y="75.311" width="92.3781" height="83.3781" rx="7.68904" stroke="#E1E6EF" stroke-width="0.621918"/>
<rect x="349" y="62" width="1" height="13" fill="#C4C4C4"/>
<rect x="404.311" y="75.311" width="92.3781" height="83.3781" rx="7.68904" fill="#F5F5F5"/>
<path d="M449.16 99.8574V107.199H447.643V104.178H445.537V102.934H447.643V99.8574H449.16ZM438.77 105.969C440.759 105.285 441.805 103.624 441.805 101.99V101.895H439.234V100.664H445.906V101.895H443.35V101.977C443.35 103.48 444.348 104.998 446.262 105.641L445.496 106.844C444.122 106.379 443.151 105.436 442.604 104.273C442.064 105.586 441.032 106.652 439.562 107.172L438.77 105.969ZM440.779 109.865C440.766 108.382 442.372 107.514 444.977 107.514C447.595 107.514 449.194 108.382 449.201 109.865C449.194 111.349 447.595 112.21 444.977 112.217C442.372 112.21 440.766 111.349 440.779 109.865ZM442.283 109.865C442.276 110.631 443.261 111.048 444.977 111.041C446.706 111.048 447.684 110.631 447.684 109.865C447.684 109.093 446.706 108.676 444.977 108.676C443.261 108.676 442.276 109.093 442.283 109.865ZM462.203 109.482V110.727H450.91V109.482H455.777V107.076H452.154V100.678H453.672V102.701H459.4V100.678H460.918V107.076H457.281V109.482H462.203ZM453.672 105.846H459.4V103.918H453.672V105.846ZM431.141 125.371C431.134 127.278 432.282 129.452 434.23 130.361L433.383 131.564C431.988 130.908 430.956 129.582 430.402 128.037C429.842 129.732 428.762 131.182 427.34 131.865L426.451 130.676C428.42 129.739 429.616 127.429 429.623 125.371V124.332H426.93V123.074H433.725V124.332H431.141V125.371ZM434.873 134.217V121.857H436.391V126.67H438.291V127.941H436.391V134.217H434.873ZM443.24 124.045C443.227 125.665 444.252 127.217 446.193 127.846L445.4 129.049C444.033 128.584 443.056 127.654 442.516 126.465C441.969 127.777 440.95 128.803 439.508 129.309L438.66 128.105C440.69 127.442 441.709 125.788 441.709 124.031V122.623H443.24V124.045ZM440.643 133.971V130.047H442.201V132.74H449.051V133.971H440.643ZM447.041 130.936V121.857H448.559V125.508H450.281V126.793H448.559V130.936H447.041ZM457.814 122.773V123.512C457.801 124.353 457.801 125.583 457.514 127.148L456.01 127.012C456.256 125.74 456.304 124.79 456.317 124.031H451.512V122.773H457.814ZM450.773 128.133C451.505 128.126 452.325 128.119 453.193 128.105V125.59H454.697V128.058C455.976 128.003 457.288 127.907 458.484 127.736L458.566 128.83C455.996 129.295 453.077 129.343 450.91 129.35L450.773 128.133ZM452.619 133.971V130.293H454.15V132.74H461.164V133.971H452.619ZM459.209 131.113V121.857H460.768V125.713H462.367V126.984H460.768V131.113H459.209ZM473.305 121.857V134.23H471.801V121.857H473.305ZM463.68 124.168V122.938H469.504V127.572H465.252V130.061C467.2 130.047 468.875 129.944 470.803 129.623L470.939 130.867C468.841 131.229 466.995 131.312 464.773 131.305H463.693V126.369H467.959V124.168H463.68Z" fill="#222222"/>
<rect x="404.311" y="75.311" width="92.3781" height="83.3781" rx="7.68904" stroke="#E1E6EF" stroke-width="0.621918"/>
<rect x="450" y="62" width="1" height="13" fill="#C4C4C4"/>
<rect x="248" y="50" width="1" height="12" fill="#C4C4C4"/>
<rect x="451" y="62" width="1.00002" height="405" transform="rotate(90 451 62)" fill="#C4C4C4"/>
</svg>
