<svg width="1336" height="759" viewBox="0 0 1336 759" fill="none" xmlns="http://www.w3.org/2000/svg">
<circle cx="651" cy="378" r="303.5" stroke="#C1CFC5" stroke-opacity="0.6" stroke-dasharray="10 6"/>
<circle cx="651" cy="378" r="144" fill="#FF8D24"/>
<circle cx="651" cy="378" r="152" stroke="#FF8D24" stroke-opacity="0.7" stroke-width="16"/>
<path d="M580.061 359.372V368.5L576.197 369.2H563.513V359.372H567.405V361.864H576.197V359.372H580.061ZM559.677 353.128C559.677 350.104 562.561 348.536 566.061 348.536C569.561 348.536 572.445 350.104 572.445 353.128V353.688C572.445 356.712 569.561 358.364 566.061 358.364C562.561 358.364 559.677 356.712 559.677 353.688V353.128ZM572.949 349.6H576.253V344.14L580.061 343.58V357.832L576.253 358.392V356.852H572.949V354.192H576.253V352.176H572.949V349.6ZM573.229 347.976H558.333V345.232H563.989V343.412L567.853 342.852V345.232H573.789L573.229 347.976ZM568.805 353.24C568.805 351.98 567.601 351.168 566.061 351.168C564.521 351.168 563.317 351.98 563.317 353.24V353.576C563.317 354.808 564.521 355.732 566.061 355.732C567.601 355.732 568.805 354.808 568.805 353.576V353.24ZM567.405 366.456H576.197V364.608H567.405V366.456ZM592.973 350.188V347.64H585.553V344.84H596.753V352.932H589.445V355.704H590.901C593.449 355.704 597.313 355.536 600.001 355.06V357.832C597.145 358.336 593.141 358.504 590.593 358.504H585.553V350.188H592.973ZM605.517 343.58V359.092L601.709 359.652V354.276H597.873V351.504H601.709V349.264H597.873V346.492H601.709V344.14L605.517 343.58ZM588.745 360.352H605.517V369.144L601.653 369.704V363.124H588.745V360.352ZM630.246 343.58V353.156H634.278L633.718 356.292H630.246V368.64L626.41 369.2V344.14L630.246 343.58ZM618.85 344.868V352.232C618.85 352.82 619.018 353.436 619.354 353.884C620.81 355.844 623.022 358.532 624.926 360.66L622.686 362.816C620.726 360.744 618.346 358.112 616.918 356.208C615.266 358.308 612.858 361.276 610.87 363.432L608.518 361.388C610.422 359.176 612.662 356.488 614.314 354.108C614.65 353.632 614.93 352.988 614.93 352.4V345.428L618.85 344.868ZM642.41 355.508H652.714V353.212H645.994V344.252H663.046V347.024H649.886V350.468H663.55L662.99 353.212H656.746V355.508H666.686L666.126 358.28H642.41V355.508ZM657.614 359.82C660.75 359.82 663.578 360.996 663.578 364.748C663.578 368.528 660.75 369.704 657.614 369.704H651.426C648.29 369.704 645.462 368.528 645.462 364.748C645.462 360.996 648.29 359.82 651.426 359.82H657.614ZM657.474 362.62H651.594C650.334 362.62 649.214 363.152 649.214 364.748C649.214 366.372 650.334 366.904 651.594 366.904H657.474C658.734 366.904 659.826 366.372 659.826 364.748C659.826 363.152 658.734 362.62 657.474 362.62ZM672.934 349.096H677.778V344.784H681.53V358.476L677.778 359.036H669.182V344.784H672.934V349.096ZM689.146 343.58V350.44H693.15L692.59 353.408H689.146V361.752L685.282 362.312V344.14L689.146 343.58ZM689.342 369.088H672.906V361.332H676.798V366.288H689.902L689.342 369.088ZM672.934 356.264H677.778V351.896H672.934V356.264ZM709.59 359.484C712.642 359.484 715.414 360.716 715.414 364.496C715.414 368.304 712.642 369.536 709.59 369.536H703.598C700.434 369.536 697.606 368.304 697.606 364.496C697.606 360.716 700.434 359.484 703.598 359.484H709.59ZM703.43 344.168V348.732C703.43 349.32 703.542 349.964 703.934 350.384C705.67 352.316 707.518 354.024 709.478 355.676L707.238 357.832C705.25 356.236 703.206 354.584 701.498 352.708C699.79 354.668 697.494 356.852 695.45 358.588L693.098 356.544C695.058 354.78 697.13 352.848 698.838 350.608C699.202 350.132 699.454 349.488 699.454 348.9V344.728L703.43 344.168ZM711.242 359.064V350.216H706.566V347.444H711.242V344.14L715.05 343.58V358.504L711.242 359.064ZM709.226 362.256H703.906C702.394 362.256 701.358 362.872 701.358 364.496C701.358 366.148 702.394 366.764 703.906 366.764H709.226C710.626 366.764 711.662 366.148 711.662 364.496C711.662 362.872 710.626 362.256 709.226 362.256ZM734.655 359.484C737.707 359.484 740.479 360.716 740.479 364.496C740.479 368.304 737.707 369.536 734.655 369.536H728.663C725.499 369.536 722.671 368.304 722.671 364.496C722.671 360.716 725.499 359.484 728.663 359.484H734.655ZM733.535 347.584H728.999V349.152C728.999 349.74 729.111 350.384 729.503 350.804C731.239 352.736 733.003 354.388 734.963 356.04L732.723 358.196C730.735 356.6 728.859 354.948 727.095 353.128C725.331 355.06 723.231 357.076 721.187 358.812L718.835 356.768C720.795 355.004 722.811 353.268 724.519 351.028C724.883 350.552 725.135 349.908 725.135 349.32V347.584H720.151V344.784H734.095L733.535 347.584ZM740.115 343.58V350.3H744.147L743.587 353.128H740.115V358.476L736.279 359.036V344.14L740.115 343.58ZM734.291 362.256H728.971C727.459 362.256 726.423 362.872 726.423 364.496C726.423 366.148 727.459 366.764 728.971 366.764H734.291C735.691 366.764 736.727 366.148 736.727 364.496C736.727 362.872 735.691 362.256 734.291 362.256ZM588.179 385.58V393.896H592.043L591.483 396.724H588.179V403.752L584.315 404.312V386.14L588.179 385.58ZM567.347 398.852H571.659V392.692H575.383V398.852C577.847 398.768 580.955 398.544 583.335 398.152V400.924C579.359 401.484 575.047 401.652 570.735 401.652H567.347V398.852ZM588.319 411.088H571.687V403.22H575.551V408.288H588.879L588.319 411.088ZM578.211 389.416H568.523V386.616H582.215C582.103 389.528 581.683 394.596 581.011 396.948H577.259C577.875 394.876 578.211 391.208 578.211 389.416ZM602.912 394.428V390.004H594.372V387.232H606.748V397.172H598.264V401.652H600.28C602.828 401.652 606.72 401.54 609.408 400.98V403.752C606.552 404.228 602.576 404.424 599.944 404.424H594.372V394.428H602.912ZM614.336 385.58V410.64L610.528 411.2V386.14L614.336 385.58ZM646.436 389.836H639.884V391.096C639.884 391.684 639.94 392.384 640.388 392.748C642.404 394.344 645.82 396.948 648.34 398.516L646.268 400.868C643.72 399.328 639.884 396.696 637.896 395.072C635.908 396.724 631.904 399.44 629.44 401.064L627.34 398.74C630 397.06 633.304 394.736 635.264 392.972C635.712 392.58 635.88 391.852 635.88 391.264V389.836H628.992V387.064H646.996L646.436 389.836ZM625.744 405.012H636.048V399.496H640.08V405.012H650.02L649.46 407.868H625.744V405.012ZM666.152 389.584H661.644V391.432C661.644 392.02 661.756 392.664 662.148 393.084C663.884 395.016 665.648 396.668 667.608 398.32L665.368 400.476C663.38 398.88 661.504 397.228 659.74 395.408C657.976 397.34 655.876 399.356 653.832 401.092L651.48 399.048C653.44 397.284 655.456 395.548 657.164 393.308C657.528 392.832 657.78 392.188 657.78 391.6V389.584H652.768V386.784H666.712L666.152 389.584ZM656.408 402.016H673.18V411.144L669.316 411.704V404.76H656.408V402.016ZM673.18 385.58V400.476L669.372 401.036V386.14L673.18 385.58ZM689.124 396.752C689.32 396.304 689.348 395.492 689.348 394.904V391.88H685.12V389.164H689.348V386.448L692.988 385.888V389.164H696.936L696.516 391.88H692.988V394.82C692.988 395.408 692.96 396.108 693.184 396.612C693.912 398.236 696.068 401.428 697.552 403.276L695.144 405.348C693.996 403.864 692.372 401.652 691.28 399.944C690.076 401.848 688.508 404.088 686.968 405.936L684.532 403.92C686.464 401.596 688.256 398.628 689.124 396.752ZM698.196 386.532L701.668 385.972V409.828L698.196 410.388V397.284H695.088V394.372H698.196V386.532ZM703.18 386.14L706.736 385.58V410.64L703.18 411.2V386.14ZM723.68 386.532L727.096 385.972V409.828L723.68 410.388V400.98H720.208V398.208H723.68V394.148H721.048C719.956 399.216 717.1 403.248 712.9 405.768L710.744 403.36C715.392 400.644 717.856 395.52 717.856 390.648V390.172H711.78V387.4H721.552V389.388C721.552 390.06 721.524 390.704 721.468 391.348H723.68V386.532ZM728.664 386.14L732.22 385.58V410.64L728.664 411.2V386.14Z" fill="white"/>
<rect width="193" height="198" transform="translate(261 279)" fill="white"/>
<rect x="357.5" y="299" width="52.3259" height="52.3259" rx="8" transform="rotate(45 357.5 299)" fill="#4B84F0"/>
<path d="M345.516 338.492V332.352C345.516 329.052 347.316 327.292 350.596 327.292C353.896 327.292 355.696 329.052 355.696 332.352V338.492C355.696 341.792 353.896 343.552 350.596 343.552C347.316 343.552 345.516 341.792 345.516 338.492ZM352.916 337.852V332.992C352.916 330.532 352.136 329.452 350.596 329.452C349.056 329.452 348.296 330.532 348.296 332.992V337.852C348.296 340.312 349.056 341.372 350.596 341.372C352.136 341.372 352.916 340.312 352.916 337.852ZM363.334 340.292H356.814V338.012L362.494 327.652H366.074V338.152H368.154L367.754 340.292H366.074V343.052L363.334 343.472V340.292ZM363.334 338.152V330.532H363.294L359.394 338.152H363.334Z" fill="white"/>
<path d="M281.671 403.864H290.503V401.896H284.743V394.216H299.359V396.592H288.079V399.544H299.791L299.311 401.896H293.959V403.864H302.479L301.999 406.24H281.671V403.864ZM294.703 407.56C297.391 407.56 299.815 408.568 299.815 411.784C299.815 415.024 297.391 416.032 294.703 416.032H289.399C286.711 416.032 284.287 415.024 284.287 411.784C284.287 408.568 286.711 407.56 289.399 407.56H294.703ZM294.583 409.96H289.543C288.463 409.96 287.503 410.416 287.503 411.784C287.503 413.176 288.463 413.632 289.543 413.632H294.583C295.663 413.632 296.599 413.176 296.599 411.784C296.599 410.416 295.663 409.96 294.583 409.96ZM307.835 398.368H311.987V394.672H315.203V406.408L311.987 406.888H304.619V394.672H307.835V398.368ZM321.731 393.64V399.52H325.163L324.683 402.064H321.731V409.216L318.419 409.696V394.12L321.731 393.64ZM321.899 415.504H307.811V408.856H311.147V413.104H322.379L321.899 415.504ZM307.835 404.512H311.987V400.768H307.835V404.512ZM339.254 407.272C341.87 407.272 344.246 408.328 344.246 411.568C344.246 414.832 341.87 415.888 339.254 415.888H334.118C331.406 415.888 328.982 414.832 328.982 411.568C328.982 408.328 331.406 407.272 334.118 407.272H339.254ZM333.974 394.144V398.056C333.974 398.56 334.07 399.112 334.406 399.472C335.894 401.128 337.478 402.592 339.158 404.008L337.238 405.856C335.534 404.488 333.782 403.072 332.318 401.464C330.854 403.144 328.886 405.016 327.134 406.504L325.118 404.752C326.798 403.24 328.574 401.584 330.038 399.664C330.35 399.256 330.566 398.704 330.566 398.2V394.624L333.974 394.144ZM340.67 406.912V399.328H336.662V396.952H340.67V394.12L343.934 393.64V406.432L340.67 406.912ZM338.942 409.648H334.382C333.086 409.648 332.198 410.176 332.198 411.568C332.198 412.984 333.086 413.512 334.382 413.512H338.942C340.142 413.512 341.03 412.984 341.03 411.568C341.03 410.176 340.142 409.648 338.942 409.648ZM360.738 407.272C363.354 407.272 365.73 408.328 365.73 411.568C365.73 414.832 363.354 415.888 360.738 415.888H355.602C352.89 415.888 350.466 414.832 350.466 411.568C350.466 408.328 352.89 407.272 355.602 407.272H360.738ZM359.778 397.072H355.89V398.416C355.89 398.92 355.986 399.472 356.322 399.832C357.81 401.488 359.322 402.904 361.002 404.32L359.082 406.168C357.378 404.8 355.77 403.384 354.258 401.824C352.746 403.48 350.946 405.208 349.194 406.696L347.178 404.944C348.858 403.432 350.586 401.944 352.05 400.024C352.362 399.616 352.578 399.064 352.578 398.56V397.072H348.306V394.672H360.258L359.778 397.072ZM365.418 393.64V399.4H368.874L368.394 401.824H365.418V406.408L362.13 406.888V394.12L365.418 393.64ZM360.426 409.648H355.866C354.57 409.648 353.682 410.176 353.682 411.568C353.682 412.984 354.57 413.512 355.866 413.512H360.426C361.626 413.512 362.514 412.984 362.514 411.568C362.514 410.176 361.626 409.648 360.426 409.648ZM381.046 393.088V395.704H387.262L386.782 398.104H381.046V398.464C381.046 399.04 381.094 399.592 381.478 399.808C383.35 400.888 386.134 402.256 388.414 403.288L386.878 405.4C384.574 404.416 381.358 402.88 379.462 401.848C377.566 402.928 374.59 404.392 371.998 405.544L370.438 403.456C372.982 402.304 375.358 401.128 377.206 399.952C377.59 399.712 377.734 399.136 377.734 398.56V398.104H371.83V395.704H377.734V393.568L381.046 393.088ZM389.374 409H381.286V415.312L377.926 415.792V409H369.046V406.6H389.854L389.374 409ZM403.682 397.24H399.818V399.856C399.818 400.36 399.914 400.912 400.25 401.272C401.738 402.928 403.25 404.344 404.93 405.76L403.01 407.608C401.306 406.24 399.698 404.824 398.186 403.264C396.674 404.92 394.874 406.648 393.122 408.136L391.106 406.384C392.786 404.872 394.514 403.384 395.978 401.464C396.29 401.056 396.506 400.504 396.506 400V397.24H392.186V394.864H404.162L403.682 397.24ZM409.706 393.64V408.928L406.442 409.408V394.12L409.706 393.64ZM409.85 415.504H395.762V408.568H399.098V413.104H410.33L409.85 415.504ZM427.277 402.736V405.112C425.405 405.544 422.741 405.664 420.341 405.664H414.413V394.576H425.357V396.976H417.749V398.896H425.165V401.272H417.749V403.288H420.629C422.573 403.288 425.069 403.192 427.277 402.736ZM431.525 393.64V406.408L428.261 406.888V394.12L431.525 393.64ZM431.525 407.728V415L428.213 415.6H417.341V407.728H431.525ZM420.653 413.2H428.213V410.128H420.653V413.2Z" fill="#2856CE"/>
<path d="M299.659 437.191C299.659 439.793 301.188 442.535 303.755 443.607L302.683 445.154C300.802 444.337 299.431 442.676 298.701 440.654C297.972 442.834 296.574 444.662 294.72 445.541L293.595 444.012C296.1 442.852 297.664 439.89 297.673 437.191V435.855H294.175V434.238H303.14V435.855H299.659V437.191ZM304.915 448.564V432.674H306.884V448.564H304.915ZM322.546 432.691V444.715H320.577V443.326H317.466V441.955H320.577V432.691H322.546ZM309.151 439.828C312.078 439.811 316.024 439.784 319.399 439.354L319.505 440.76C318.195 440.979 316.842 441.12 315.497 441.217V444.275H313.546V441.322C312.061 441.384 310.646 441.393 309.397 441.393L309.151 439.828ZM310.364 436.084C310.364 434.405 311.981 433.263 314.337 433.271C316.648 433.263 318.274 434.405 318.292 436.084C318.274 437.789 316.648 438.87 314.337 438.879C311.981 438.87 310.364 437.789 310.364 436.084ZM311.261 448.248V443.555H313.212V446.666H322.915V448.248H311.261ZM312.21 436.084C312.21 436.945 313.062 437.446 314.337 437.455C315.55 437.446 316.42 436.945 316.429 436.084C316.42 435.223 315.55 434.704 314.337 434.713C313.062 434.704 312.21 435.223 312.21 436.084ZM339.298 445.014V446.648H324.778V445.014H339.298ZM325.974 435.715V434.15H338.032V435.715H335.712V440.777H337.979V442.324H326.026V440.777H328.259V435.715H325.974ZM330.21 440.777H333.778V435.715H330.21V440.777ZM354.854 445.102V446.719H340.335V445.102H346.593V442.518H342.058V437.314H351.198V435.346H342.022V433.764H353.132V438.861H344.009V440.918H353.501V442.518H348.526V445.102H354.854ZM368.53 434.221V436.014C368.53 438.141 368.53 440.329 367.95 443.678L365.964 443.502C366.579 440.382 366.579 438.079 366.579 436.014V435.803H357.421V434.221H368.53ZM355.892 446.385V444.785H370.376V446.385H355.892ZM385.036 432.691V442.096H383.173V438.105H381.521V441.938H379.692V432.99H381.521V436.523H383.173V432.691H385.036ZM372.099 435.205V433.658H378.146V438.246H374.015V439.969C375.869 439.951 377.267 439.863 378.884 439.547L379.06 441.094C377.144 441.445 375.535 441.489 373.206 441.48H372.116V436.787H376.265V435.205H372.099ZM374.313 448.371V442.764H385.036V448.371H374.313ZM376.265 446.789H383.103V444.328H376.265V446.789ZM405.778 440.531V442.096H399.644V445.014H397.657V442.096H391.259V440.531H405.778ZM392.806 436.277C392.797 434.282 395.082 433.025 398.501 433.025C401.938 433.025 404.196 434.282 404.196 436.277C404.196 438.281 401.938 439.521 398.501 439.512C395.082 439.521 392.797 438.281 392.806 436.277ZM393.034 448.248V443.537H395.003V446.648H404.179V448.248H393.034ZM394.915 436.277C394.897 437.332 396.321 437.947 398.501 437.947C400.698 437.947 402.113 437.332 402.104 436.277C402.113 435.188 400.698 434.572 398.501 434.572C396.321 434.572 394.897 435.188 394.915 436.277ZM411.245 433.57C412.528 433.562 413.645 434.036 414.392 434.836H418.188V432.674H420.14V442.025H418.188V440.004H414.383C413.627 440.786 412.52 441.261 411.245 441.252C408.846 441.261 407.044 439.652 407.044 437.42C407.044 435.17 408.846 433.562 411.245 433.57ZM408.907 437.42C408.907 438.721 409.883 439.6 411.245 439.6C412.563 439.6 413.539 438.721 413.548 437.42C413.539 436.075 412.563 435.24 411.245 435.24C409.883 435.24 408.907 436.075 408.907 437.42ZM409.364 445.453C409.347 443.493 411.43 442.351 414.761 442.359C418.101 442.351 420.184 443.493 420.192 445.453C420.184 447.404 418.101 448.547 414.761 448.547C411.43 448.547 409.347 447.404 409.364 445.453ZM411.28 445.453C411.263 446.464 412.555 447.009 414.761 447.018C417.011 447.009 418.276 446.464 418.276 445.453C418.276 444.416 417.011 443.862 414.761 443.854C412.555 443.862 411.263 444.416 411.28 445.453ZM415.271 436.4C415.358 436.726 415.411 437.06 415.411 437.42C415.411 437.771 415.358 438.105 415.279 438.422H418.188V436.4H415.271Z" fill="#737373"/>
<rect width="251" height="198" transform="translate(823 279)" fill="white"/>
<rect x="948.5" y="299" width="52.3259" height="52.3259" rx="8" transform="rotate(45 948.5 299)" fill="#4B84F0"/>
<path d="M936.516 338.492V332.352C936.516 329.052 938.316 327.292 941.596 327.292C944.896 327.292 946.696 329.052 946.696 332.352V338.492C946.696 341.792 944.896 343.552 941.596 343.552C938.316 343.552 936.516 341.792 936.516 338.492ZM943.916 337.852V332.992C943.916 330.532 943.136 329.452 941.596 329.452C940.056 329.452 939.296 330.532 939.296 332.992V337.852C939.296 340.312 940.056 341.372 941.596 341.372C943.136 341.372 943.916 340.312 943.916 337.852ZM958.234 340.932L957.914 343.192H948.354V340.712C948.514 340.552 950.134 338.972 950.894 338.192C953.034 335.992 955.074 333.892 955.074 331.952C955.074 330.592 954.134 329.632 952.394 329.632H948.714V327.372H953.074C956.054 327.372 957.894 329.052 957.894 331.992C957.894 334.312 955.994 336.592 954.234 338.492C953.414 339.332 951.954 340.792 951.794 340.932H958.234Z" fill="white"/>
<path d="M853.341 397.576H845.901V395.2H856.797V396.904C856.797 403.432 852.237 408.616 846.981 411.016L845.013 408.88C849.597 406.96 853.341 402.16 853.341 397.984V397.576ZM862.893 393.64V415.12L859.629 415.6V394.12L862.893 393.64ZM886.272 404.92H878.232V406.504H883.56V412.168H872.4V413.464H884.304L883.824 415.696H869.064V410.032H880.248V408.712H869.016V406.504H874.776V404.92H865.944V402.592H886.752L886.272 404.92ZM878.064 393.616V394.984C878.064 395.488 878.088 396.184 878.496 396.448C880.248 397.576 883.608 399.232 885.48 399.976L883.992 402.088C881.784 401.2 878.496 399.568 876.336 398.296C874.2 399.592 870.768 401.248 868.704 402.064L867.216 400.024C869.352 399.208 872.304 397.816 874.128 396.568C874.584 396.256 874.632 395.704 874.632 395.2V394.096L878.064 393.616ZM906.604 407.176V415L903.292 415.6H892.42V407.176H895.756V409.312H903.292V407.176H906.604ZM889.132 401.824C889.132 399.232 891.604 397.888 894.604 397.888C897.604 397.888 900.076 399.232 900.076 401.824V402.304C900.076 404.896 897.604 406.312 894.604 406.312C891.604 406.312 889.132 404.896 889.132 402.304V401.824ZM900.508 398.8H903.34V394.12L906.604 393.64V405.856L903.34 406.336V405.016H900.508V402.736H903.34V401.008H900.508V398.8ZM900.748 397.408H887.98V395.056H892.828V393.496L896.14 393.016V395.056H901.228L900.748 397.408ZM896.956 401.92C896.956 400.84 895.924 400.144 894.604 400.144C893.284 400.144 892.252 400.84 892.252 401.92V402.208C892.252 403.264 893.284 404.056 894.604 404.056C895.924 404.056 896.956 403.264 896.956 402.208V401.92ZM895.756 413.248H903.292V411.664H895.756V413.248ZM917.672 399.304V397.12H911.312V394.72H920.912V401.656H914.648V404.032H915.896C918.08 404.032 921.392 403.888 923.696 403.48V405.856C921.248 406.288 917.816 406.432 915.632 406.432H911.312V399.304H917.672ZM928.424 393.64V406.936L925.16 407.416V402.808H921.872V400.432H925.16V398.512H921.872V396.136H925.16V394.12L928.424 393.64ZM914.048 408.016H928.424V415.552L925.112 416.032V410.392H914.048V408.016ZM939.666 394.432H950.178V403.888L946.938 404.368H939.666V394.432ZM957.042 409.96L951.354 409.984C951.354 410.416 951.402 410.872 951.786 411.064C953.802 412.24 955.77 413.2 958.194 414.28L956.658 416.296C954.234 415.288 951.762 414.112 949.746 413.032C947.898 414.064 945.258 415.408 942.834 416.464L941.25 414.472C943.842 413.368 945.714 412.312 947.514 411.232C947.898 411.016 948.018 410.464 948.042 409.984H942.066V407.704H948.042V405.712L951.354 405.232V407.704H957.522L957.042 409.96ZM956.97 393.64V405.76L953.73 406.24V394.12L956.97 393.64ZM946.938 396.832H942.906V402.04H946.938V396.832ZM982.324 409.696V404.08H978.436V403.288C977.476 404.992 975.484 405.88 973.3 405.88C970.276 405.88 967.588 404.152 967.588 400.936V399.544C967.588 396.328 970.276 394.6 973.3 394.6C975.484 394.6 977.476 395.512 978.436 397.216V396.304H982.324V394.12L985.564 393.64V409.216L982.324 409.696ZM985.732 415.504H971.644V408.568H974.98V413.104H986.212L985.732 415.504ZM975.772 400.84V399.64C975.772 397.96 974.74 397 973.3 397C971.86 397 970.828 397.96 970.828 399.64V400.84C970.828 402.52 971.86 403.48 973.3 403.48C974.74 403.48 975.772 402.52 975.772 400.84ZM979.012 400.936C979.012 401.2 978.988 401.464 978.94 401.704H982.324V398.704H978.94C978.988 398.968 979.012 399.256 979.012 399.544V400.936ZM988.616 404.128H1002.18C1002.58 402.136 1003.02 399.088 1003.11 397.072H991.16V394.672H1006.59C1006.5 397.336 1006.23 400.984 1005.54 404.128H1009.42L1008.94 406.504H1000.86V415.312L997.496 415.792V406.504H988.616V404.128ZM1016.92 397.144H1024.76V394.216H1028.08V403.768L1024.76 404.368H1013.58V394.216H1016.92V397.144ZM1031.27 406.336L1030.79 408.712H1022.7V415.312L1019.34 415.792V408.712H1010.46V406.336H1031.27ZM1016.92 401.968H1024.76V399.544H1016.92V401.968ZM1051.1 393.64V415.12L1047.83 415.6V402.304H1043.42V399.88H1047.83V394.12L1051.1 393.64ZM1040.97 394.744V401.056C1040.97 401.56 1041.09 402.088 1041.38 402.472C1042.62 404.152 1044.5 406.456 1046.13 408.28L1044.21 410.128C1042.53 408.352 1040.51 406.096 1039.29 404.464C1037.87 406.264 1035.78 408.808 1034.08 410.656L1032.06 408.904C1033.7 407.008 1035.64 404.704 1037.06 402.664C1037.34 402.256 1037.56 401.704 1037.56 401.2V395.224L1040.97 394.744Z" fill="#2856CE"/>
<path d="M870.33 432.674V448.564H868.361V432.674H870.33ZM857.164 444.188C861.33 442.21 863.246 439.521 863.598 435.908H857.973V434.361H865.584C865.584 439.09 863.747 443.106 858.184 445.752L857.164 444.188ZM880.859 433.184C880.859 434.88 883.03 436.427 886.344 436.787L885.693 438.264C882.995 437.956 880.859 436.884 879.84 435.337C878.82 436.884 876.685 437.956 874.021 438.264L873.354 436.787C876.685 436.427 878.847 434.88 878.855 433.184V432.762H880.859V433.184ZM872.615 440.602V439.055H887.1V440.602H880.807V441.832H885.289V445.77H876.254V446.93H885.729V448.424H874.338V444.363H883.373V443.326H874.32V441.832H878.855V440.602H872.615ZM897.084 434.133V435.68H888.207V434.133H891.758V432.551H893.709V434.133H897.084ZM889.033 439.125C889.024 437.411 890.536 436.251 892.707 436.242C894.869 436.251 896.425 437.411 896.434 439.125C896.425 440.848 894.869 441.99 892.707 441.99C890.536 441.99 889.024 440.848 889.033 439.125ZM890.861 439.125C890.853 440.013 891.582 440.566 892.707 440.566C893.832 440.566 894.605 440.013 894.605 439.125C894.605 438.246 893.832 437.719 892.707 437.719C891.582 437.719 890.853 438.246 890.861 439.125ZM890.896 448.371V442.729H892.848V444.064H899.545V442.729H901.479V448.371H890.896ZM892.848 446.842H899.545V445.541H892.848V446.842ZM897.172 440.865V439.301H899.527V437.754H897.189V436.172H899.527V432.674H901.479V442.113H899.527V440.865H897.172ZM911.322 433.623V438.404H906.312V440.355C908.87 440.355 910.32 440.285 912.008 439.969L912.201 441.551C910.303 441.876 908.659 441.92 905.539 441.92H904.379V436.945H909.371V435.17H904.344V433.623H911.322ZM906.172 444.785V443.221H917.035V448.564H915.084V444.785H906.172ZM912.271 439.846V438.281H915.084V436.506H912.271V434.941H915.084V432.691H917.035V442.465H915.084V439.846H912.271ZM932.029 433.658V440.268H924.365V433.658H932.029ZM925.314 447.018C928.364 446.754 930.315 445.4 930.491 444.135H925.965V442.658H930.535V441.27H932.504V442.658H937.092V444.135H932.557C932.732 445.365 934.648 446.71 937.689 447.018L937.021 448.512C934.446 448.239 932.495 447.229 931.528 445.91C930.553 447.246 928.575 448.23 925.982 448.512L925.314 447.018ZM926.299 438.738H930.096V435.205H926.299V438.738ZM934.824 441.727V432.674H936.758V441.727H934.824ZM950.539 442.605C953.993 442.614 956.173 443.704 956.182 445.594C956.173 447.439 953.993 448.547 950.539 448.547C947.12 448.547 944.914 447.439 944.914 445.594C944.914 443.704 947.12 442.614 950.539 442.605ZM943.42 441.463V439.881H949.01V436.998H950.943V439.881H957.834V441.463H943.42ZM945.072 434.977V433.43H956.076V434.748C956.085 436.005 956.085 437.341 955.637 438.967L953.703 438.791C954.099 437.253 954.125 436.128 954.125 434.977H945.072ZM946.883 445.594C946.865 446.525 948.245 447.035 950.539 447.035C952.842 447.035 954.23 446.525 954.248 445.594C954.23 444.627 952.842 444.082 950.539 444.082C948.245 444.082 946.865 444.627 946.883 445.594ZM973.443 440.285V441.85H958.941V440.285H965.234V438.773H960.717V433.395H971.686V434.924H962.668V437.227H971.773V438.773H967.15V440.285H973.443ZM960.629 445.664C960.629 443.801 962.712 442.755 966.166 442.764C969.594 442.755 971.659 443.801 971.668 445.664C971.659 447.51 969.594 448.556 966.166 448.564C962.712 448.556 960.629 447.51 960.629 445.664ZM962.615 445.664C962.606 446.587 963.854 447.062 966.166 447.053C968.442 447.062 969.699 446.587 969.717 445.664C969.699 444.75 968.442 444.258 966.166 444.258C963.854 444.258 962.606 444.75 962.615 445.664ZM987.805 432.691V444.346H985.854V440.408H982.065C981.31 441.261 980.185 441.771 978.91 441.779C976.511 441.771 974.709 440.065 974.709 437.719C974.709 435.346 976.511 433.649 978.91 433.641C980.176 433.649 981.301 434.15 982.057 434.994H985.854V432.691H987.805ZM976.572 437.719C976.572 439.134 977.548 440.039 978.91 440.039C980.211 440.039 981.204 439.134 981.213 437.719C981.204 436.295 980.211 435.381 978.91 435.381C977.548 435.381 976.572 436.295 976.572 437.719ZM977.381 448.248V443.15H979.332V446.666H988.209V448.248H977.381ZM982.918 436.576C983.015 436.937 983.076 437.314 983.076 437.719C983.076 438.105 983.023 438.475 982.927 438.826H985.854V436.576H982.918ZM1002.76 433.641V435.064C1002.75 436.55 1002.75 438.176 1002.34 440.426H1004.54V442.008H998.229V448.582H996.26V442.008H990.055V440.426H1000.36C1000.79 438.264 1000.81 436.638 1000.81 435.223H991.76V433.641H1002.76ZM1015.91 435.908C1015.91 437.886 1017.27 439.819 1019.8 440.602L1018.79 442.131C1016.99 441.551 1015.68 440.355 1014.95 438.844C1014.24 440.487 1012.89 441.797 1011.01 442.447L1010.01 440.9C1012.56 440.057 1013.93 438 1013.94 435.908V435.451H1010.52V433.887H1019.25V435.451H1015.91V435.908ZM1012.61 448.248V443.168H1014.58V446.666H1023.56V448.248H1012.61ZM1021.15 444.223V432.691H1023.12V444.223H1021.15ZM1039.03 432.674V442.658H1037.16V438.334H1035.62V442.131H1033.79V432.99H1035.62V436.752H1037.16V432.674H1039.03ZM1025.35 435.926V434.396H1028.36V432.814H1030.29V434.396H1033.26V435.926H1025.35ZM1025.91 439.318C1025.9 437.666 1027.34 436.567 1029.32 436.576C1031.35 436.567 1032.77 437.666 1032.79 439.318C1032.77 440.971 1031.35 442.061 1029.32 442.061C1027.34 442.061 1025.9 440.971 1025.91 439.318ZM1027.65 439.318C1027.65 440.136 1028.33 440.654 1029.32 440.654C1030.33 440.654 1031.01 440.136 1031.01 439.318C1031.01 438.501 1030.33 437.982 1029.32 437.982C1028.33 437.982 1027.65 438.501 1027.65 439.318ZM1028.22 445.717C1028.21 443.889 1030.26 442.86 1033.67 442.852C1037.06 442.86 1039.11 443.889 1039.12 445.717C1039.11 447.51 1037.06 448.547 1033.67 448.547C1030.26 448.547 1028.21 447.51 1028.22 445.717ZM1030.17 445.717C1030.16 446.587 1031.4 447.062 1033.67 447.053C1035.92 447.062 1037.14 446.587 1037.15 445.717C1037.14 444.794 1035.92 444.328 1033.67 444.346C1031.4 444.328 1030.16 444.794 1030.17 445.717Z" fill="#737373"/>
<rect width="118" height="198" transform="translate(592)" fill="white"/>
<rect x="651" y="20" width="52.3259" height="52.3259" rx="8" transform="rotate(45 651 20)" fill="#4B84F0"/>
<path d="M639.016 59.4918V53.3518C639.016 50.0518 640.816 48.2918 644.096 48.2918C647.396 48.2918 649.196 50.0518 649.196 53.3518V59.4918C649.196 62.7918 647.396 64.5518 644.096 64.5518C640.816 64.5518 639.016 62.7918 639.016 59.4918ZM646.416 58.8518V53.9918C646.416 51.5318 645.636 50.4518 644.096 50.4518C642.556 50.4518 641.796 51.5318 641.796 53.9918V58.8518C641.796 61.3118 642.556 62.3718 644.096 62.3718C645.636 62.3718 646.416 61.3118 646.416 58.8518ZM658.514 48.6518V64.0518L655.694 64.4718V50.8918H652.894V48.6518H658.514Z" fill="white"/>
<path d="M642.284 120.04C644.996 120.04 647.42 121 647.42 124.168C647.42 127.336 644.996 128.296 642.284 128.296H638.06C635.348 128.296 632.924 127.336 632.924 124.168C632.924 121 635.348 120.04 638.06 120.04H642.284ZM638.108 129.04V131.632H642.284V129.04H645.62V131.632H650.588L650.108 134.056H629.78V131.632H634.772V129.04H638.108ZM648.14 119.128H631.964V116.776H638.468V114.808L641.78 114.328V116.776H648.62L648.14 119.128ZM641.996 122.344H638.348C637.124 122.344 636.14 122.848 636.14 124.168C636.14 125.488 637.124 125.992 638.348 125.992H641.996C643.22 125.992 644.204 125.488 644.204 124.168C644.204 122.848 643.22 122.344 641.996 122.344ZM665.52 128.272C668.136 128.272 670.512 129.328 670.512 132.568C670.512 135.832 668.136 136.888 665.52 136.888H660.384C657.672 136.888 655.248 135.832 655.248 132.568C655.248 129.328 657.672 128.272 660.384 128.272H665.52ZM660.24 115.144V119.056C660.24 119.56 660.336 120.112 660.672 120.472C662.16 122.128 663.744 123.592 665.424 125.008L663.504 126.856C661.8 125.488 660.048 124.072 658.584 122.464C657.12 124.144 655.152 126.016 653.4 127.504L651.384 125.752C653.064 124.24 654.84 122.584 656.304 120.664C656.616 120.256 656.832 119.704 656.832 119.2V115.624L660.24 115.144ZM666.936 127.912V120.328H662.928V117.952H666.936V115.12L670.2 114.64V127.432L666.936 127.912ZM665.208 130.648H660.648C659.352 130.648 658.464 131.176 658.464 132.568C658.464 133.984 659.352 134.512 660.648 134.512H665.208C666.408 134.512 667.296 133.984 667.296 132.568C667.296 131.176 666.408 130.648 665.208 130.648Z" fill="#2856CE"/>
<path d="M626.417 155.818V157.383H613.286V155.818H618.894V153.885H620.827V155.818H626.417ZM612.636 167.877V166.312H616.239V163.588C615.123 163.078 614.49 162.261 614.499 161.197C614.49 159.29 616.547 158.165 619.86 158.174C623.147 158.165 625.213 159.29 625.204 161.197C625.213 162.252 624.589 163.069 623.481 163.579V166.312H627.155V167.877H612.636ZM616.503 161.197C616.494 162.182 617.698 162.709 619.86 162.709C621.979 162.709 623.2 162.182 623.2 161.197C623.2 160.213 621.979 159.677 619.86 159.686C617.698 159.677 616.494 160.213 616.503 161.197ZM618.19 166.312H621.548V164.124C621.029 164.194 620.467 164.238 619.86 164.238C619.263 164.238 618.7 164.203 618.19 164.124V166.312ZM634.011 155.959C634.002 158.121 635.268 160.099 637.755 160.881L636.7 162.41C634.969 161.795 633.756 160.635 633.079 159.132C632.376 160.863 631.049 162.226 629.124 162.902L628.087 161.32C630.715 160.459 632.033 158.341 632.042 156.047V154.535H634.011V155.959ZM630.724 166.506C630.706 164.572 632.771 163.438 636.12 163.447C639.486 163.438 641.543 164.572 641.552 166.506C641.543 168.439 639.486 169.547 636.12 169.547C632.771 169.547 630.706 168.439 630.724 166.506ZM632.657 166.506C632.648 167.473 633.914 168.009 636.12 168.018C638.344 168.009 639.601 167.473 639.601 166.506C639.601 165.504 638.344 164.968 636.12 164.959C633.914 164.968 632.648 165.504 632.657 166.506ZM636.384 158.35V156.75H639.548V153.674H641.499V163.025H639.548V158.35H636.384ZM652.626 155.045V156.645H646.597V159.475H651.993V161.021H646.597V164.291C649.198 164.282 651.185 164.186 653.47 163.816L653.663 165.398C651.158 165.794 648.926 165.873 645.999 165.873H644.663V155.045H652.626ZM655.052 169.564V153.674H657.021V169.564H655.052ZM663.05 154.869C665.15 154.878 666.706 156.513 666.706 158.824C666.706 161.136 665.15 162.771 663.05 162.762C660.932 162.771 659.402 161.136 659.411 158.824C659.402 156.513 660.932 154.878 663.05 154.869ZM661.169 158.824C661.151 160.213 661.942 161.109 663.05 161.109C664.14 161.109 664.931 160.213 664.931 158.824C664.931 157.436 664.14 156.539 663.05 156.539C661.942 156.539 661.151 157.436 661.169 158.824ZM662.259 169.248V163.992H664.21V167.666H673.333V169.248H662.259ZM667.655 165.012V153.99H669.466V158.209H671.03V153.691H672.894V165.557H671.03V159.809H669.466V165.012H667.655ZM688.38 153.674V169.564H686.394V153.674H688.38ZM674.563 164.66C676.567 163.122 676.963 160.362 676.972 158.033V154.992H678.8V158.033C678.8 159.773 679.02 161.953 680.109 163.579C681.19 161.979 681.401 159.835 681.419 158.033V154.992H683.282V158.033C683.282 160.406 683.687 163.157 685.69 164.66L684.495 166.049C683.388 165.223 682.72 163.939 682.333 162.48C681.946 163.983 681.27 165.328 680.118 166.172C678.967 165.328 678.29 163.992 677.895 162.498C677.517 163.913 676.884 165.161 675.829 165.979L674.563 164.66Z" fill="#737373"/>
<rect width="288" height="198" transform="translate(507 561)" fill="white"/>
<rect x="651" y="581" width="52.3259" height="52.3259" rx="8" transform="rotate(45 651 581)" fill="#4B84F0"/>
<path d="M639.016 620.492V614.352C639.016 611.052 640.816 609.292 644.096 609.292C647.396 609.292 649.196 611.052 649.196 614.352V620.492C649.196 623.792 647.396 625.552 644.096 625.552C640.816 625.552 639.016 623.792 639.016 620.492ZM646.416 619.852V614.992C646.416 612.532 645.636 611.452 644.096 611.452C642.556 611.452 641.796 612.532 641.796 614.992V619.852C641.796 622.312 642.556 623.372 644.096 623.372C645.636 623.372 646.416 622.312 646.416 619.852ZM660.914 620.792C660.914 624.532 658.514 625.492 654.994 625.492H650.914V623.252H654.634C656.854 623.252 658.014 622.432 658.014 620.732C658.014 618.732 656.394 618.132 654.474 618.132H652.774V615.892H654.394C656.334 615.892 657.474 615.132 657.474 613.672C657.474 612.232 656.654 611.572 655.054 611.572L651.434 611.552V609.272L655.654 609.292C658.014 609.312 660.334 610.452 660.334 613.252C660.334 615.292 659.134 616.512 657.594 616.972V617.012C659.474 617.312 660.914 618.712 660.914 620.792Z" fill="white"/>
<path d="M546.264 675.64V683.848H549.72L549.24 686.536H546.264V697.12L542.976 697.6V676.12L546.264 675.64ZM536.496 676.744V683.056C536.496 683.56 536.64 684.088 536.928 684.472C538.176 686.152 540.072 688.456 541.704 690.28L539.784 692.128C538.104 690.352 536.064 688.096 534.84 686.464C533.424 688.264 531.36 690.808 529.656 692.656L527.64 690.904C529.272 689.008 531.192 686.704 532.608 684.664C532.896 684.256 533.136 683.704 533.136 683.2V677.224L536.496 676.744ZM565.516 680.296V676.12L568.756 675.64V687.52L565.516 688V682.744H562.276C561.892 685.528 559.348 686.992 556.492 686.992C553.396 686.992 550.66 685.264 550.66 682.048V681.064C550.66 677.848 553.396 676.12 556.492 676.12C559.324 676.12 561.868 677.584 562.252 680.296H565.516ZM568.756 697L565.516 697.6H554.596V688.6H557.932V690.856H565.468V688.6H568.756V697ZM559.084 681.952V681.16C559.084 679.48 557.956 678.52 556.492 678.52C555.028 678.52 553.9 679.48 553.9 681.16V681.952C553.9 683.632 555.028 684.592 556.492 684.592C557.956 684.592 559.084 683.632 559.084 681.952ZM557.932 695.248H565.468V693.184H557.932V695.248ZM573.872 684.376C573.872 682.144 576.008 680.344 579.344 680.344C582.68 680.344 584.816 682.144 584.816 684.376V685.144C584.816 686.92 583.448 688.432 581.216 688.984V691.384C582.968 691.288 584.912 691.12 586.472 690.856V693.232C583.04 693.712 579.368 693.856 575.672 693.856H572.504V691.456H577.832V689.056C575.36 688.6 573.872 687.016 573.872 685.144V684.376ZM587.36 676.12L590.6 675.64V697.12L587.36 697.6V676.12ZM585.488 679.864H572.84V677.464H577.688V675.88L581 675.4V677.464H585.968L585.488 679.864ZM581.696 684.592C581.696 683.416 580.736 682.624 579.344 682.624C577.952 682.624 576.992 683.416 576.992 684.592V684.928C576.992 686.104 577.952 686.896 579.344 686.896C580.736 686.896 581.696 686.104 581.696 684.928V684.592ZM611.795 675.64V683.848H615.251L614.771 686.536H611.795V697.12L608.507 697.6V676.12L611.795 675.64ZM602.027 676.744V683.056C602.027 683.56 602.171 684.088 602.459 684.472C603.707 686.152 605.603 688.456 607.235 690.28L605.315 692.128C603.635 690.352 601.595 688.096 600.371 686.464C598.955 688.264 596.891 690.808 595.187 692.656L593.171 690.904C594.803 689.008 596.723 686.704 598.139 684.664C598.427 684.256 598.667 683.704 598.667 683.2V677.224L602.027 676.744ZM631.023 687.208V684.808H627.783V686.152L624.543 686.632H616.983V676.216H620.223V679.288H624.543V676.216H627.783V678.208H631.023V676.12L634.287 675.64V686.728L631.023 687.208ZM634.431 697.696H620.103V691.72H630.975V690.328H620.055V688.048H634.287V693.928H623.415V695.416H634.911L634.431 697.696ZM620.223 684.232H624.543V681.688H620.223V684.232ZM627.783 680.608V682.432H631.023V680.608H627.783ZM644.065 686.128H657.625C658.033 684.136 658.465 681.088 658.561 679.072H646.609V676.672H662.041C661.945 679.336 661.681 682.984 660.985 686.128H664.873L664.393 688.504H656.305V697.312L652.945 697.792V688.504H644.065V686.128ZM680.261 675.976V682.72H681.965V676.12L684.989 675.64V697.12L681.965 697.6V685.144H680.261V696.424L677.285 696.904V676.456L680.261 675.976ZM675.461 691.072L672.413 691.552H667.037V677.2H675.461V691.072ZM672.413 689.176V679.576H670.085V689.176H672.413ZM701.025 676.864L700.545 679.24H696.681V681.856C696.681 682.36 696.777 682.912 697.113 683.272C698.601 684.928 700.113 686.344 701.793 687.76L699.873 689.608C698.169 688.24 696.561 686.824 695.049 685.264C693.537 686.92 691.737 688.648 689.985 690.136L687.969 688.384C689.649 686.872 691.377 685.384 692.841 683.464C693.153 683.056 693.369 682.504 693.369 682V679.24H689.049V676.864H701.025ZM703.305 691.696V683.704H699.201V681.304H703.305V676.12L706.569 675.64V691.216L703.305 691.696ZM706.713 697.504H692.625V690.568H695.961V695.104H707.193L706.713 697.504ZM727.789 689.176V697L724.453 697.6H713.629V689.176H727.789ZM723.541 683.512V685.888C721.597 686.272 718.669 686.56 715.693 686.56H711.061V676.576H721.405V678.976H714.397V684.16H716.509C718.861 684.16 721.813 683.872 723.541 683.512ZM727.789 675.64V680.416H731.245L730.765 682.816H727.789V687.856L724.501 688.336V676.12L727.789 675.64ZM716.941 695.2H724.453V691.552H716.941V695.2ZM737.896 679.144H745.744V676.216H749.056V685.768L745.744 686.368H734.56V676.216H737.896V679.144ZM752.248 688.336L751.768 690.712H743.68V697.312L740.32 697.792V690.712H731.44V688.336H752.248ZM737.896 683.968H745.744V681.544H737.896V683.968ZM772.076 675.64V697.12L768.812 697.6V684.304H764.396V681.88H768.812V676.12L772.076 675.64ZM761.948 676.744V683.056C761.948 683.56 762.068 684.088 762.356 684.472C763.604 686.152 765.476 688.456 767.108 690.28L765.188 692.128C763.508 690.352 761.492 688.096 760.268 686.464C758.852 688.264 756.764 690.808 755.06 692.656L753.044 690.904C754.676 689.008 756.62 686.704 758.036 684.664C758.324 684.256 758.54 683.704 758.54 683.2V677.224L761.948 676.744Z" fill="#2856CE"/>
<path d="M576.249 716.133V717.68H567.372V716.133H570.923V714.551H572.874V716.133H576.249ZM568.198 721.125C568.189 719.411 569.701 718.251 571.872 718.242C574.034 718.251 575.59 719.411 575.599 721.125C575.59 722.848 574.034 723.99 571.872 723.99C569.701 723.99 568.189 722.848 568.198 721.125ZM570.026 721.125C570.018 722.013 570.747 722.566 571.872 722.566C572.997 722.566 573.771 722.013 573.771 721.125C573.771 720.246 572.997 719.719 571.872 719.719C570.747 719.719 570.018 720.246 570.026 721.125ZM570.062 730.371V724.729H572.013V726.064H578.71V724.729H580.644V730.371H570.062ZM572.013 728.842H578.71V727.541H572.013V728.842ZM576.337 722.865V721.301H578.692V719.754H576.354V718.172H578.692V714.674H580.644V724.113H578.692V722.865H576.337ZM590.487 715.623V720.404H585.478V722.355C588.035 722.355 589.485 722.285 591.173 721.969L591.366 723.551C589.468 723.876 587.824 723.92 584.704 723.92H583.544V718.945H588.536V717.17H583.509V715.623H590.487ZM585.337 726.785V725.221H596.2V730.564H594.249V726.785H585.337ZM591.437 721.846V720.281H594.249V718.506H591.437V716.941H594.249V714.691H596.2V724.465H594.249V721.846H591.437ZM604.128 718.488C604.11 721.327 605.534 724.192 607.995 725.379L606.8 726.943C605.077 726.073 603.838 724.395 603.161 722.373C602.467 724.535 601.166 726.328 599.347 727.242L598.151 725.678C600.709 724.465 602.168 721.424 602.177 718.488V715.957H604.128V718.488ZM608.944 730.564V714.674H610.896V720.896H613.339V722.566H610.896V730.564H608.944ZM631.989 714.674V730.564H630.126V714.674H631.989ZM618.12 725.818C621.407 723.876 622.919 721.389 623.218 718.189H618.964V716.607H625.151C625.151 717.407 625.099 718.189 624.984 718.945H626.839V715.061H628.702V729.809H626.839V724.5H624.36V722.9H626.839V720.545H624.65C623.895 723.182 622.242 725.449 619.263 727.207L618.12 725.818ZM648.53 716.889V718.471H646.368V720.299H648.53V721.934H646.368V724.061H644.417V714.674H646.368V716.889H648.53ZM634.011 719.402C634.002 717.17 635.848 715.57 638.3 715.588C640.743 715.57 642.571 717.17 642.589 719.402C642.571 721.67 640.743 723.243 638.3 723.252C635.848 723.243 634.002 721.67 634.011 719.402ZM635.786 726.328V724.746H646.368V730.564H644.417V726.328H635.786ZM635.927 719.402C635.918 720.756 636.929 721.591 638.3 721.582C639.653 721.591 640.664 720.756 640.673 719.402C640.664 718.075 639.653 717.249 638.3 717.24C636.929 717.249 635.918 718.075 635.927 719.402ZM662.136 715.658V722.268H654.472V715.658H662.136ZM655.421 729.018C658.471 728.754 660.422 727.4 660.598 726.135H656.071V724.658H660.642V723.27H662.61V724.658H667.198V726.135H662.663C662.839 727.365 664.755 728.71 667.796 729.018L667.128 730.512C664.553 730.239 662.602 729.229 661.635 727.91C660.659 729.246 658.682 730.23 656.089 730.512L655.421 729.018ZM656.405 720.738H660.202V717.205H656.405V720.738ZM664.931 723.727V714.674H666.864V723.727H664.931ZM686.2 715.641V717.064C686.191 718.55 686.191 720.176 685.778 722.426H687.976V724.008H681.665V730.582H679.696V724.008H673.491V722.426H683.792C684.231 720.264 684.249 718.638 684.249 717.223H675.196V715.641H686.2ZM702.759 714.674V730.564H700.878V722.426H699.19V729.791H697.345V714.955H699.19V720.809H700.878V714.674H702.759ZM689.54 726.469V716.396H695.78V726.469H689.54ZM691.368 724.922H693.952V717.943H691.368V724.922ZM713.481 715.852V716.801C713.464 717.882 713.464 719.464 713.095 721.477L711.161 721.301C711.478 719.666 711.539 718.444 711.557 717.469H705.378V715.852H713.481ZM704.429 722.742C705.369 722.733 706.424 722.725 707.54 722.707V719.473H709.474V722.646C711.117 722.575 712.805 722.452 714.343 722.232L714.448 723.639C711.144 724.236 707.391 724.298 704.604 724.307L704.429 722.742ZM706.802 730.248V725.52H708.771V728.666H717.788V730.248H706.802ZM715.274 726.574V714.674H717.278V719.631H719.335V721.266H717.278V726.574H715.274ZM733.397 714.674V730.582H731.464V714.674H733.397ZM721.022 717.645V716.062H728.511V722.021H723.044V725.221C725.549 725.203 727.702 725.071 730.181 724.658L730.356 726.258C727.658 726.724 725.285 726.829 722.429 726.82H721.04V720.475H726.524V717.645H721.022Z" fill="#737373"/>
<rect x="871.484" y="139" width="40" height="40" rx="20" transform="rotate(43.4017 871.484 139)" fill="white"/>
<path d="M878.75 166.247C880.069 170.673 880.729 172.886 879.539 174.145C878.349 175.403 876.102 174.868 871.609 173.797L869.924 173.396C865.431 172.325 863.185 171.79 862.69 170.13C862.195 168.47 863.782 166.792 866.956 163.437L868.146 162.178C871.319 158.822 872.906 157.144 874.591 157.546C876.276 157.947 876.936 160.16 878.255 164.587L878.75 166.247Z" fill="white"/>
<path d="M878.75 166.247C880.069 170.673 880.729 172.886 879.539 174.145C878.349 175.403 876.102 174.868 871.609 173.797L869.924 173.396C865.431 172.325 863.185 171.79 862.69 170.13C862.195 168.47 863.782 166.792 866.956 163.437L868.146 162.178C871.319 158.822 872.906 157.144 874.591 157.546C876.276 157.947 876.936 160.16 878.255 164.587L878.75 166.247Z" fill="#F5980D"/>
<rect width="40" height="40" rx="20" transform="matrix(0.726554 -0.687109 -0.687109 -0.726554 430.484 196)" fill="white"/>
<path d="M437.75 168.753C439.069 164.327 439.729 162.114 438.539 160.855C437.349 159.597 435.102 160.132 430.609 161.203L428.924 161.604C424.431 162.675 422.185 163.21 421.69 164.87C421.195 166.53 422.782 168.208 425.956 171.563L427.146 172.822C430.319 176.178 431.906 177.856 433.591 177.454C435.276 177.053 435.936 174.84 437.255 170.413L437.75 168.753Z" fill="white"/>
<path d="M437.75 168.753C439.069 164.327 439.729 162.114 438.539 160.855C437.349 159.597 435.102 160.132 430.609 161.203L428.924 161.604C424.431 162.675 422.185 163.21 421.69 164.87C421.195 166.53 422.782 168.208 425.956 171.563L427.146 172.822C430.319 176.178 431.906 177.856 433.591 177.454C435.276 177.053 435.936 174.84 437.255 170.413L437.75 168.753Z" fill="#F5980D"/>
<rect width="40" height="40" rx="20" transform="matrix(-0.726554 0.687109 0.687109 0.726554 883.062 548)" fill="white"/>
<path d="M875.797 575.247C874.478 579.673 873.818 581.886 875.008 583.145C876.198 584.403 878.445 583.868 882.938 582.797L884.623 582.396C889.116 581.325 891.362 580.79 891.857 579.13C892.352 577.47 890.765 575.792 887.591 572.437L886.401 571.178C883.228 567.822 881.641 566.144 879.956 566.546C878.271 566.947 877.611 569.16 876.292 573.587L875.797 575.247Z" fill="white"/>
<path d="M875.797 575.247C874.478 579.673 873.818 581.886 875.008 583.145C876.198 584.403 878.445 583.868 882.938 582.797L884.623 582.396C889.116 581.325 891.362 580.79 891.857 579.13C892.352 577.47 890.765 575.792 887.591 572.437L886.401 571.178C883.228 567.822 881.641 566.144 879.956 566.546C878.271 566.947 877.611 569.16 876.292 573.587L875.797 575.247Z" fill="#F5980D"/>
<rect x="421.801" y="603.561" width="40" height="40" rx="20" transform="rotate(-134.029 421.801 603.561)" fill="white"/>
<path d="M415.764 576.016C414.644 571.535 414.085 569.294 415.33 568.09C416.575 566.887 418.795 567.522 423.236 568.793L424.901 569.27C429.342 570.54 431.562 571.176 431.982 572.856C432.402 574.537 430.741 576.142 427.42 579.352L426.175 580.556C422.854 583.766 421.194 585.371 419.529 584.894C417.863 584.418 417.304 582.177 416.184 577.696L415.764 576.016Z" fill="white"/>
<path d="M415.764 576.016C414.644 571.535 414.085 569.294 415.33 568.09C416.575 566.887 418.795 567.522 423.236 568.793L424.901 569.27C429.342 570.54 431.562 571.176 431.982 572.856C432.402 574.537 430.741 576.142 427.42 579.352L426.175 580.556C422.854 583.766 421.194 585.371 419.529 584.894C417.863 584.418 417.304 582.177 416.184 577.696L415.764 576.016Z" fill="#F5980D"/>
</svg>
