<svg width="339" height="398" viewBox="0 0 339 398" fill="none" xmlns="http://www.w3.org/2000/svg">
<circle cx="169" cy="194" r="119.5" stroke="#C1CFC5" stroke-opacity="0.6" stroke-dasharray="10 6"/>
<rect x="153" y="90" width="32" height="32" rx="16" transform="rotate(-90 153 90)" fill="white"/>
<path d="M171.878 70.8295C173.773 72.2866 174.72 73.0152 174.72 74C174.72 74.9848 173.773 75.7134 171.878 77.1705L169.439 79.047C166.635 81.2039 165.233 82.2823 164.116 81.7325C163 81.1828 163 79.414 163 75.8765L163 72.1235C163 68.586 163 66.8172 164.116 66.2675C165.233 65.7177 166.635 66.7961 169.439 68.953L171.878 70.8295Z" fill="white"/>
<path d="M171.878 70.8295C173.773 72.2866 174.72 73.0152 174.72 74C174.72 74.9848 173.773 75.7134 171.878 77.1705L169.439 79.047C166.635 81.2039 165.233 82.2823 164.116 81.7325C163 81.1828 163 79.414 163 75.8765L163 72.1235C163 68.586 163 66.8172 164.116 66.2675C165.233 65.7177 166.635 66.7961 169.439 68.953L171.878 70.8295Z" fill="#F5980D"/>
<rect width="32" height="32" rx="16" transform="matrix(4.37114e-08 -1 -1 -4.37114e-08 185 330)" fill="white"/>
<path d="M166.122 310.83C164.227 312.287 163.28 313.015 163.28 314C163.28 314.985 164.227 315.713 166.122 317.17L168.561 319.047C171.365 321.204 172.767 322.282 173.884 321.733C175 321.183 175 319.414 175 315.877L175 312.123C175 308.586 175 306.817 173.884 306.267C172.767 305.718 171.365 306.796 168.561 308.953L166.122 310.83Z" fill="white"/>
<path d="M166.122 310.83C164.227 312.287 163.28 313.015 163.28 314C163.28 314.985 164.227 315.713 166.122 317.17L168.561 319.047C171.365 321.204 172.767 322.282 173.884 321.733C175 321.183 175 319.414 175 315.877L175 312.123C175 308.586 175 306.817 173.884 306.267C172.767 305.718 171.365 306.796 168.561 308.953L166.122 310.83Z" fill="#F5980D"/>
<rect width="32" height="32" rx="16" transform="matrix(-1 8.74228e-08 8.74228e-08 1 305 178)" fill="white"/>
<path d="M285.83 196.878C287.287 198.773 288.015 199.72 289 199.72C289.985 199.72 290.713 198.773 292.17 196.878L294.047 194.439C296.204 191.635 297.282 190.233 296.733 189.116C296.183 188 294.414 188 290.877 188L287.123 188C283.586 188 281.817 188 281.267 189.116C280.718 190.233 281.796 191.635 283.953 194.439L285.83 196.878Z" fill="white"/>
<path d="M285.83 196.878C287.287 198.773 288.015 199.72 289 199.72C289.985 199.72 290.713 198.773 292.17 196.878L294.047 194.439C296.204 191.635 297.282 190.233 296.733 189.116C296.183 188 294.414 188 290.877 188L287.123 188C283.586 188 281.817 188 281.267 189.116C280.718 190.233 281.796 191.635 283.953 194.439L285.83 196.878Z" fill="#F5980D"/>
<rect width="32" height="32" rx="16" transform="matrix(1 0 0 -1 34 210)" fill="white"/>
<path d="M53.1705 191.122C51.7134 189.227 50.9848 188.28 50 188.28C49.0152 188.28 48.2866 189.227 46.8295 191.122L44.953 193.561C42.7961 196.365 41.7177 197.767 42.2675 198.884C42.8172 200 44.586 200 48.1235 200L51.8765 200C55.414 200 57.1828 200 57.7325 198.884C58.2823 197.767 57.2039 196.365 55.047 193.561L53.1705 191.122Z" fill="white"/>
<path d="M53.1705 191.122C51.7134 189.227 50.9848 188.28 50 188.28C49.0152 188.28 48.2866 189.227 46.8295 191.122L44.953 193.561C42.7961 196.365 41.7177 197.767 42.2675 198.884C42.8172 200 44.586 200 48.1235 200L51.8765 200C55.414 200 57.1828 200 57.7325 198.884C58.2823 197.767 57.2039 196.365 55.047 193.561L53.1705 191.122Z" fill="#F5980D"/>
<ellipse cx="169" cy="193.084" rx="84" ry="84.5" fill="#FF8D24"/>
<path d="M169 281.584C217.623 281.584 257 241.939 257 193.084C257 144.229 217.623 104.584 169 104.584C120.377 104.584 81 144.229 81 193.084C81 241.939 120.377 281.584 169 281.584Z" stroke="#FF8D24" stroke-opacity="0.7" stroke-width="8"/>
<path d="M123.718 182.382V188.25L121.234 188.7H113.08V182.382H115.582V183.984H121.234V182.382H123.718ZM110.614 178.368C110.614 176.424 112.468 175.416 114.718 175.416C116.968 175.416 118.822 176.424 118.822 178.368V178.728C118.822 180.672 116.968 181.734 114.718 181.734C112.468 181.734 110.614 180.672 110.614 178.728V178.368ZM119.146 176.1H121.27V172.59L123.718 172.23V181.392L121.27 181.752V180.762H119.146V179.052H121.27V177.756H119.146V176.1ZM119.326 175.056H109.75V173.292H113.386V172.122L115.87 171.762V173.292H119.686L119.326 175.056ZM116.482 178.44C116.482 177.63 115.708 177.108 114.718 177.108C113.728 177.108 112.954 177.63 112.954 178.44V178.656C112.954 179.448 113.728 180.042 114.718 180.042C115.708 180.042 116.482 179.448 116.482 178.656V178.44ZM115.582 186.936H121.234V185.748H115.582V186.936ZM132.019 176.478V174.84H127.249V173.04H134.449V178.242H129.751V180.024H130.687C132.325 180.024 134.809 179.916 136.537 179.61V181.392C134.701 181.716 132.127 181.824 130.489 181.824H127.249V176.478H132.019ZM140.083 172.23V182.202L137.635 182.562V179.106H135.169V177.324H137.635V175.884H135.169V174.102H137.635V172.59L140.083 172.23ZM129.301 183.012H140.083V188.664L137.599 189.024V184.794H129.301V183.012ZM155.979 172.23V178.386H158.571L158.211 180.402H155.979V188.34L153.513 188.7V172.59L155.979 172.23ZM148.653 173.058V177.792C148.653 178.17 148.761 178.566 148.977 178.854C149.913 180.114 151.335 181.842 152.559 183.21L151.119 184.596C149.859 183.264 148.329 181.572 147.411 180.348C146.349 181.698 144.801 183.606 143.523 184.992L142.011 183.678C143.235 182.256 144.675 180.528 145.737 178.998C145.953 178.692 146.133 178.278 146.133 177.9V173.418L148.653 173.058ZM163.799 179.898H170.423V178.422H166.103V172.662H177.065V174.444H168.605V176.658H177.389L177.029 178.422H173.015V179.898H179.405L179.045 181.68H163.799V179.898ZM173.573 182.67C175.589 182.67 177.407 183.426 177.407 185.838C177.407 188.268 175.589 189.024 173.573 189.024H169.595C167.579 189.024 165.761 188.268 165.761 185.838C165.761 183.426 167.579 182.67 169.595 182.67H173.573ZM173.483 184.47H169.703C168.893 184.47 168.173 184.812 168.173 185.838C168.173 186.882 168.893 187.224 169.703 187.224H173.483C174.293 187.224 174.995 186.882 174.995 185.838C174.995 184.812 174.293 184.47 173.483 184.47ZM183.422 175.776H186.536V173.004H188.948V181.806L186.536 182.166H181.01V173.004H183.422V175.776ZM193.844 172.23V176.64H196.418L196.058 178.548H193.844V183.912L191.36 184.272V172.59L193.844 172.23ZM193.97 188.628H183.404V183.642H185.906V186.828H194.33L193.97 188.628ZM183.422 180.384H186.536V177.576H183.422V180.384ZM206.987 182.454C208.949 182.454 210.731 183.246 210.731 185.676C210.731 188.124 208.949 188.916 206.987 188.916H203.135C201.101 188.916 199.283 188.124 199.283 185.676C199.283 183.246 201.101 182.454 203.135 182.454H206.987ZM203.027 172.608V175.542C203.027 175.92 203.099 176.334 203.351 176.604C204.467 177.846 205.655 178.944 206.915 180.006L205.475 181.392C204.197 180.366 202.883 179.304 201.785 178.098C200.687 179.358 199.211 180.762 197.897 181.878L196.385 180.564C197.645 179.43 198.977 178.188 200.075 176.748C200.309 176.442 200.471 176.028 200.471 175.65V172.968L203.027 172.608ZM208.049 182.184V176.496H205.043V174.714H208.049V172.59L210.497 172.23V181.824L208.049 182.184ZM206.753 184.236H203.333C202.361 184.236 201.695 184.632 201.695 185.676C201.695 186.738 202.361 187.134 203.333 187.134H206.753C207.653 187.134 208.319 186.738 208.319 185.676C208.319 184.632 207.653 184.236 206.753 184.236ZM223.099 182.454C225.061 182.454 226.843 183.246 226.843 185.676C226.843 188.124 225.061 188.916 223.099 188.916H219.247C217.213 188.916 215.395 188.124 215.395 185.676C215.395 183.246 217.213 182.454 219.247 182.454H223.099ZM222.379 174.804H219.463V175.812C219.463 176.19 219.535 176.604 219.787 176.874C220.903 178.116 222.037 179.178 223.297 180.24L221.857 181.626C220.579 180.6 219.373 179.538 218.239 178.368C217.105 179.61 215.755 180.906 214.441 182.022L212.929 180.708C214.189 179.574 215.485 178.458 216.583 177.018C216.817 176.712 216.979 176.298 216.979 175.92V174.804H213.775V173.004H222.739L222.379 174.804ZM226.609 172.23V176.55H229.201L228.841 178.368H226.609V181.806L224.143 182.166V172.59L226.609 172.23ZM222.865 184.236H219.445C218.473 184.236 217.807 184.632 217.807 185.676C217.807 186.738 218.473 187.134 219.445 187.134H222.865C223.765 187.134 224.431 186.738 224.431 185.676C224.431 184.632 223.765 184.236 222.865 184.236ZM128.937 202.23V207.576H131.421L131.061 209.394H128.937V213.912L126.453 214.272V202.59L128.937 202.23ZM115.545 210.762H118.317V206.802H120.711V210.762C122.295 210.708 124.293 210.564 125.823 210.312V212.094C123.267 212.454 120.495 212.562 117.723 212.562H115.545V210.762ZM129.027 218.628H118.335V213.57H120.819V216.828H129.387L129.027 218.628ZM122.529 204.696H116.301V202.896H125.103C125.031 204.768 124.761 208.026 124.329 209.538H121.917C122.313 208.206 122.529 205.848 122.529 204.696ZM138.407 207.918V205.074H132.917V203.292H140.873V209.682H135.419V212.562H136.715C138.353 212.562 140.855 212.49 142.583 212.13V213.912C140.747 214.218 138.191 214.344 136.499 214.344H132.917V207.918H138.407ZM145.751 202.23V218.34L143.303 218.7V202.59L145.751 202.23ZM166.387 204.966H162.175V205.776C162.175 206.154 162.211 206.604 162.499 206.838C163.795 207.864 165.991 209.538 167.611 210.546L166.279 212.058C164.641 211.068 162.175 209.376 160.897 208.332C159.619 209.394 157.045 211.14 155.461 212.184L154.111 210.69C155.821 209.61 157.945 208.116 159.205 206.982C159.493 206.73 159.601 206.262 159.601 205.884V204.966H155.173V203.184H166.747L166.387 204.966ZM153.085 214.722H159.709V211.176H162.301V214.722H168.691L168.331 216.558H153.085V214.722ZM179.062 204.804H176.164V205.992C176.164 206.37 176.236 206.784 176.488 207.054C177.604 208.296 178.738 209.358 179.998 210.42L178.558 211.806C177.28 210.78 176.074 209.718 174.94 208.548C173.806 209.79 172.456 211.086 171.142 212.202L169.63 210.888C170.89 209.754 172.186 208.638 173.284 207.198C173.518 206.892 173.68 206.478 173.68 206.1V204.804H170.458V203.004H179.422L179.062 204.804ZM172.798 212.796H183.58V218.664L181.096 219.024V214.56H172.798V212.796ZM183.58 202.23V211.806L181.132 212.166V202.59L183.58 202.23ZM193.83 209.412C193.956 209.124 193.974 208.602 193.974 208.224V206.28H191.256V204.534H193.974V202.788L196.314 202.428V204.534H198.852L198.582 206.28H196.314V208.17C196.314 208.548 196.296 208.998 196.44 209.322C196.908 210.366 198.294 212.418 199.248 213.606L197.7 214.938C196.962 213.984 195.918 212.562 195.216 211.464C194.442 212.688 193.434 214.128 192.444 215.316L190.878 214.02C192.12 212.526 193.272 210.618 193.83 209.412ZM199.662 202.842L201.894 202.482V217.818L199.662 218.178V209.754H197.664V207.882H199.662V202.842ZM202.866 202.59L205.152 202.23V218.34L202.866 218.7V202.59ZM216.045 202.842L218.241 202.482V217.818L216.045 218.178V212.13H213.813V210.348H216.045V207.738H214.353C213.651 210.996 211.815 213.588 209.115 215.208L207.729 213.66C210.717 211.914 212.301 208.62 212.301 205.488V205.182H208.395V203.4H214.677V204.678C214.677 205.11 214.659 205.524 214.623 205.938H216.045V202.842ZM219.249 202.59L221.535 202.23V218.34L219.249 218.7V202.59Z" fill="white"/>
<rect x="199.5" y="248.5" width="139" height="149" rx="15.5" fill="white"/>
<rect x="269" y="260.154" width="23.7037" height="23.7037" rx="4.74074" transform="rotate(45 269 260.154)" fill="#4B84F0"/>
<path d="M264.801 281.448C262.756 281.448 261.538 279.866 261.543 277.089C261.538 274.323 262.768 272.729 264.801 272.729C266.834 272.729 268.059 274.323 268.059 277.089C268.059 279.872 266.84 281.448 264.801 281.448ZM263.079 277.089C263.079 279.128 263.735 280.165 264.801 280.171C265.862 280.165 266.524 279.128 266.524 277.089C266.518 275.067 265.862 274.001 264.801 273.995C263.741 274.001 263.084 275.067 263.079 277.089ZM272.418 281.448C270.608 281.448 269.313 280.464 269.278 279.034H270.813C270.854 279.714 271.534 280.165 272.418 280.159C273.35 280.165 274.024 279.649 274.024 278.894C274.024 278.132 273.368 277.587 272.266 277.581H271.504V276.409H272.266C273.168 276.409 273.795 275.905 273.79 275.167C273.795 274.452 273.256 273.972 272.43 273.972C271.633 273.972 270.948 274.417 270.918 275.132H269.454C269.489 273.708 270.784 272.729 272.442 272.729C274.165 272.729 275.278 273.784 275.266 275.085C275.278 276.034 274.645 276.72 273.719 276.913V276.983C274.915 277.142 275.594 277.909 275.583 278.976C275.594 280.411 274.252 281.448 272.418 281.448Z" fill="white"/>
<path d="M248.093 302.29V307.078H250.109L249.829 308.646H248.093V314.82L246.175 315.1V302.57L248.093 302.29ZM242.395 302.934V306.616C242.395 306.91 242.479 307.218 242.647 307.442C243.375 308.422 244.481 309.766 245.433 310.83L244.313 311.908C243.333 310.872 242.143 309.556 241.429 308.604C240.603 309.654 239.399 311.138 238.405 312.216L237.229 311.194C238.181 310.088 239.301 308.744 240.127 307.554C240.295 307.316 240.435 306.994 240.435 306.7V303.214L242.395 302.934ZM259.323 305.006V302.57L261.213 302.29V309.22L259.323 309.5V306.434H257.433C257.209 308.058 255.725 308.912 254.059 308.912C252.253 308.912 250.657 307.904 250.657 306.028V305.454C250.657 303.578 252.253 302.57 254.059 302.57C255.711 302.57 257.195 303.424 257.419 305.006H259.323ZM261.213 314.75L259.323 315.1H252.953V309.85H254.899V311.166H259.295V309.85H261.213V314.75ZM255.571 305.972V305.51C255.571 304.53 254.913 303.97 254.059 303.97C253.205 303.97 252.547 304.53 252.547 305.51V305.972C252.547 306.952 253.205 307.512 254.059 307.512C254.913 307.512 255.571 306.952 255.571 305.972ZM254.899 313.728H259.295V312.524H254.899V313.728ZM264.197 307.386C264.197 306.084 265.443 305.034 267.389 305.034C269.335 305.034 270.581 306.084 270.581 307.386V307.834C270.581 308.87 269.783 309.752 268.481 310.074V311.474C269.503 311.418 270.637 311.32 271.547 311.166V312.552C269.545 312.832 267.403 312.916 265.247 312.916H263.399V311.516H266.507V310.116C265.065 309.85 264.197 308.926 264.197 307.834V307.386ZM272.065 302.57L273.955 302.29V314.82L272.065 315.1V302.57ZM270.973 304.754H263.595V303.354H266.423V302.43L268.355 302.15V303.354H271.253L270.973 304.754ZM268.761 307.512C268.761 306.826 268.201 306.364 267.389 306.364C266.577 306.364 266.017 306.826 266.017 307.512V307.708C266.017 308.394 266.577 308.856 267.389 308.856C268.201 308.856 268.761 308.394 268.761 307.708V307.512ZM286.319 302.29V307.078H288.335L288.055 308.646H286.319V314.82L284.401 315.1V302.57L286.319 302.29ZM280.621 302.934V306.616C280.621 306.91 280.705 307.218 280.873 307.442C281.601 308.422 282.707 309.766 283.659 310.83L282.539 311.908C281.559 310.872 280.369 309.556 279.655 308.604C278.829 309.654 277.625 311.138 276.631 312.216L275.455 311.194C276.407 310.088 277.527 308.744 278.353 307.554C278.521 307.316 278.661 306.994 278.661 306.7V303.214L280.621 302.934ZM297.535 309.038V307.638H295.645V308.422L293.755 308.702H289.345V302.626H291.235V304.418H293.755V302.626H295.645V303.788H297.535V302.57L299.439 302.29V308.758L297.535 309.038ZM299.523 315.156H291.165V311.67H297.507V310.858H291.137V309.528H299.439V312.958H293.097V313.826H299.803L299.523 315.156ZM291.235 307.302H293.755V305.818H291.235V307.302ZM295.645 305.188V306.252H297.535V305.188H295.645ZM231.137 330.408H239.047C239.285 329.246 239.537 327.468 239.593 326.292H232.621V324.892H241.623C241.567 326.446 241.413 328.574 241.007 330.408H243.275L242.995 331.794H238.277V336.932L236.317 337.212V331.794H231.137V330.408ZM252.252 324.486V328.42H253.246V324.57L255.01 324.29V336.82L253.246 337.1V329.834H252.252V336.414L250.516 336.694V324.766L252.252 324.486ZM249.452 333.292L247.674 333.572H244.538V325.2H249.452V333.292ZM247.674 332.186V326.586H246.316V332.186H247.674ZM264.364 325.004L264.084 326.39H261.83V327.916C261.83 328.21 261.886 328.532 262.082 328.742C262.95 329.708 263.832 330.534 264.812 331.36L263.692 332.438C262.698 331.64 261.76 330.814 260.878 329.904C259.996 330.87 258.946 331.878 257.924 332.746L256.748 331.724C257.728 330.842 258.736 329.974 259.59 328.854C259.772 328.616 259.898 328.294 259.898 328V326.39H257.378V325.004H264.364ZM265.694 333.656V328.994H263.3V327.594H265.694V324.57L267.598 324.29V333.376L265.694 333.656ZM267.682 337.044H259.464V332.998H261.41V335.644H267.962L267.682 337.044ZM279.976 332.186V336.75L278.03 337.1H271.716V332.186H279.976ZM277.498 328.882V330.268C276.364 330.492 274.656 330.66 272.92 330.66H270.218V324.836H276.252V326.236H272.164V329.26H273.396C274.768 329.26 276.49 329.092 277.498 328.882ZM279.976 324.29V327.076H281.992L281.712 328.476H279.976V331.416L278.058 331.696V324.57L279.976 324.29ZM273.648 335.7H278.03V333.572H273.648V335.7ZM285.872 326.334H290.45V324.626H292.382V330.198L290.45 330.548H283.926V324.626H285.872V326.334ZM294.244 331.696L293.964 333.082H289.246V336.932L287.286 337.212V333.082H282.106V331.696H294.244ZM285.872 329.148H290.45V327.734H285.872V329.148ZM305.81 324.29V336.82L303.906 337.1V329.344H301.33V327.93H303.906V324.57L305.81 324.29ZM299.902 324.934V328.616C299.902 328.91 299.972 329.218 300.14 329.442C300.868 330.422 301.96 331.766 302.912 332.83L301.792 333.908C300.812 332.872 299.636 331.556 298.922 330.604C298.096 331.654 296.878 333.138 295.884 334.216L294.708 333.194C295.66 332.088 296.794 330.744 297.62 329.554C297.788 329.316 297.914 328.994 297.914 328.7V325.214L299.902 324.934Z" fill="#2856CE"/>
<path d="M241.262 349.504V350.395H235.355V349.504H237.816V348.402H238.918V349.504H241.262ZM235.941 352.738C235.941 351.607 236.926 350.846 238.355 350.84C239.768 350.846 240.775 351.607 240.781 352.738C240.775 353.881 239.768 354.631 238.355 354.637C236.926 354.631 235.941 353.881 235.941 352.738ZM236.984 352.738C236.979 353.389 237.523 353.805 238.355 353.805C239.176 353.805 239.738 353.389 239.75 352.738C239.738 352.1 239.176 351.689 238.355 351.695C237.523 351.689 236.979 352.1 236.984 352.738ZM237.184 358.867V355.141H238.285V356.137H242.996V355.141H244.098V358.867H237.184ZM238.285 357.988H242.996V356.992H238.285V357.988ZM241.285 353.84V352.938H242.984V351.789H241.297V350.875H242.984V348.496H244.098V354.719H242.984V353.84H241.285ZM250.719 349.129V352.188H247.25V353.641C249.078 353.641 250.074 353.6 251.258 353.383L251.363 354.285C250.08 354.502 249.002 354.537 246.91 354.543H246.148V351.344H249.605V350.02H246.137V349.129H250.719ZM247.344 356.395V355.492H254.469V359.008H253.355V356.395H247.344ZM251.387 353.113V352.223H253.355V350.922H251.387V350.031H253.355V348.508H254.469V354.965H253.355V353.113H251.387ZM259.73 351.168C259.719 353.025 260.803 354.93 262.367 355.691L261.676 356.582C260.533 355.984 259.648 354.812 259.186 353.412C258.717 354.9 257.797 356.16 256.602 356.781L255.91 355.879C257.521 355.105 258.611 353.09 258.617 351.168V349.375H259.73V351.168ZM263.152 358.996V348.496H264.266V352.68H265.953V353.629H264.266V358.996H263.152ZM278.41 348.496V358.996H277.355V348.496H278.41ZM269.328 355.961C271.561 354.637 272.627 352.873 272.82 350.711H269.844V349.797H273.922C273.922 350.336 273.881 350.857 273.799 351.367H275.211V348.766H276.266V358.48H275.211V354.906H273.418V353.992H275.211V352.281H273.594C273.084 354.045 271.965 355.58 269.984 356.758L269.328 355.961ZM289.496 350.031V350.945H288.008V352.281H289.496V353.219H288.008V354.719H286.895V348.496H288.008V350.031H289.496ZM279.922 351.613C279.91 350.143 281.105 349.105 282.711 349.105C284.322 349.105 285.5 350.143 285.512 351.613C285.5 353.096 284.322 354.121 282.711 354.121C281.105 354.121 279.91 353.096 279.922 351.613ZM281.012 351.613C281 352.557 281.727 353.184 282.711 353.172C283.695 353.184 284.416 352.557 284.422 351.613C284.416 350.676 283.695 350.061 282.711 350.055C281.727 350.061 281 350.676 281.012 351.613ZM281.07 356.09V355.188H288.008V358.996H286.895V356.09H281.07ZM298.602 349.164V353.477H293.609V349.164H298.602ZM294.301 358.105C296.211 357.918 297.705 356.963 297.781 356.02H294.723V355.176H297.805V354.191H298.906V355.176H302V356.02H298.93C299.006 356.934 300.465 357.895 302.375 358.105L302 358.961C300.354 358.762 298.994 358.059 298.361 357.133C297.717 358.07 296.34 358.762 294.688 358.961L294.301 358.105ZM294.699 352.609H297.5V350.055H294.699V352.609ZM300.652 354.496V348.496H301.754V354.496H300.652ZM257 369.152V370.078C257 371.074 257 372.158 256.707 373.652H258.219V374.566H253.965V379.008H252.84V374.566H248.645V373.652H255.582C255.893 372.152 255.893 371.057 255.898 370.078V370.066H249.816V369.152H257ZM268.051 368.496V378.996H266.984V373.523H265.684V378.48H264.629V368.695H265.684V372.609H266.984V368.496H268.051ZM259.367 376.23V369.68H263.445V376.23H259.367ZM260.422 375.34H262.402V370.559H260.422V375.34ZM275.234 369.293V369.879C275.223 370.582 275.223 371.625 274.965 372.984L273.863 372.879C274.092 371.719 274.127 370.869 274.139 370.207H269.938V369.293H275.234ZM269.305 373.887C269.949 373.887 270.682 373.881 271.449 373.863V371.648H272.551V373.828C273.676 373.781 274.836 373.699 275.891 373.547L275.961 374.355C273.77 374.742 271.262 374.783 269.41 374.789L269.305 373.887ZM270.898 378.773V375.668H272.012V377.871H278.035V378.773H270.898ZM276.559 376.383V368.496H277.695V371.836H279.137V372.773H277.695V376.383H276.559ZM288.477 368.496V379.02H287.363V368.496H288.477ZM280.344 370.348V369.445H285.266V373.277H281.492V375.574C283.197 375.568 284.68 375.486 286.438 375.199L286.543 376.113C284.686 376.424 283.104 376.494 281.246 376.5H280.355V372.387H284.129V370.348H280.344Z" fill="#737373"/>
<rect x="199.5" y="248.5" width="139" height="149" rx="15.5" stroke="#86A5F6"/>
<rect x="0.5" y="248.5" width="139" height="149" rx="15.5" fill="white"/>
<rect x="70" y="281.154" width="23.7037" height="23.7037" rx="4.74074" transform="rotate(45 70 281.154)" fill="#4B84F0"/>
<path d="M65.7192 302.448C63.6743 302.448 62.4556 300.866 62.4614 298.089C62.4556 295.323 63.686 293.729 65.7192 293.729C67.7524 293.729 68.9771 295.323 68.9771 298.089C68.9771 300.872 67.7583 302.448 65.7192 302.448ZM63.9966 298.089C63.9966 300.128 64.6528 301.165 65.7192 301.171C66.7798 301.165 67.4419 300.128 67.4419 298.089C67.436 296.067 66.7798 295.001 65.7192 294.995C64.6587 295.001 64.0024 296.067 63.9966 298.089ZM70.1021 300.749V299.53L73.77 293.847H75.6685V299.495H76.7817V300.749H75.6685V302.331H74.2153V300.749H70.1021ZM71.6606 299.495H74.2388V295.581H74.145L71.6606 299.437V299.495Z" fill="white"/>
<path d="M25.7663 329.254H30.9183V328.106H27.5583V323.626H36.0843V325.012H29.5043V326.734H36.3363L36.0563 328.106H32.9343V329.254H37.9043L37.6243 330.64H25.7663V329.254ZM33.3683 331.41C34.9363 331.41 36.3503 331.998 36.3503 333.874C36.3503 335.764 34.9363 336.352 33.3683 336.352H30.2743C28.7063 336.352 27.2923 335.764 27.2923 333.874C27.2923 331.998 28.7063 331.41 30.2743 331.41H33.3683ZM33.2983 332.81H30.3583C29.7283 332.81 29.1683 333.076 29.1683 333.874C29.1683 334.686 29.7283 334.952 30.3583 334.952H33.2983C33.9283 334.952 34.4743 334.686 34.4743 333.874C34.4743 333.076 33.9283 332.81 33.2983 332.81ZM41.0285 326.048H43.4505V323.892H45.3265V330.738L43.4505 331.018H39.1525V323.892H41.0285V326.048ZM49.1345 323.29V326.72H51.1365L50.8565 328.204H49.1345V332.376L47.2025 332.656V323.57L49.1345 323.29ZM49.2325 336.044H41.0145V332.166H42.9605V334.644H49.5125L49.2325 336.044ZM41.0285 329.632H43.4505V327.448H41.0285V329.632ZM59.3567 331.242C60.8827 331.242 62.2687 331.858 62.2687 333.748C62.2687 335.652 60.8827 336.268 59.3567 336.268H56.3607C54.7787 336.268 53.3647 335.652 53.3647 333.748C53.3647 331.858 54.7787 331.242 56.3607 331.242H59.3567ZM56.2767 323.584V325.866C56.2767 326.16 56.3327 326.482 56.5287 326.692C57.3967 327.658 58.3207 328.512 59.3007 329.338L58.1807 330.416C57.1867 329.618 56.1647 328.792 55.3107 327.854C54.4567 328.834 53.3087 329.926 52.2867 330.794L51.1107 329.772C52.0907 328.89 53.1267 327.924 53.9807 326.804C54.1627 326.566 54.2887 326.244 54.2887 325.95V323.864L56.2767 323.584ZM60.1827 331.032V326.608H57.8447V325.222H60.1827V323.57L62.0867 323.29V330.752L60.1827 331.032ZM59.1747 332.628H56.5147C55.7587 332.628 55.2407 332.936 55.2407 333.748C55.2407 334.574 55.7587 334.882 56.5147 334.882H59.1747C59.8747 334.882 60.3927 334.574 60.3927 333.748C60.3927 332.936 59.8747 332.628 59.1747 332.628ZM71.8889 331.242C73.4149 331.242 74.8009 331.858 74.8009 333.748C74.8009 335.652 73.4149 336.268 71.8889 336.268H68.8929C67.3109 336.268 65.8969 335.652 65.8969 333.748C65.8969 331.858 67.3109 331.242 68.8929 331.242H71.8889ZM71.3289 325.292H69.0609V326.076C69.0609 326.37 69.1169 326.692 69.3129 326.902C70.1809 327.868 71.0629 328.694 72.0429 329.52L70.9229 330.598C69.9289 329.8 68.9909 328.974 68.1089 328.064C67.2269 329.03 66.1769 330.038 65.1549 330.906L63.9789 329.884C64.9589 329.002 65.9669 328.134 66.8209 327.014C67.0029 326.776 67.1289 326.454 67.1289 326.16V325.292H64.6369V323.892H71.6089L71.3289 325.292ZM74.6189 323.29V326.65H76.6349L76.3549 328.064H74.6189V330.738L72.7009 331.018V323.57L74.6189 323.29ZM71.7069 332.628H69.0469C68.2909 332.628 67.7729 332.936 67.7729 333.748C67.7729 334.574 68.2909 334.882 69.0469 334.882H71.7069C72.4069 334.882 72.9249 334.574 72.9249 333.748C72.9249 332.936 72.4069 332.628 71.7069 332.628ZM83.7351 322.968V324.494H87.3611L87.0811 325.894H83.7351V326.104C83.7351 326.44 83.7631 326.762 83.9871 326.888C85.0791 327.518 86.7031 328.316 88.0331 328.918L87.1371 330.15C85.7931 329.576 83.9171 328.68 82.8111 328.078C81.7051 328.708 79.9691 329.562 78.4571 330.234L77.5471 329.016C79.0311 328.344 80.4171 327.658 81.4951 326.972C81.7191 326.832 81.8031 326.496 81.8031 326.16V325.894H78.3591V324.494H81.8031V323.248L83.7351 322.968ZM88.5931 332.25H83.8751V335.932L81.9151 336.212V332.25H76.7351V330.85H88.8731L88.5931 332.25ZM96.9393 325.39H94.6853V326.916C94.6853 327.21 94.7413 327.532 94.9373 327.742C95.8053 328.708 96.6873 329.534 97.6673 330.36L96.5473 331.438C95.5533 330.64 94.6153 329.814 93.7333 328.904C92.8513 329.87 91.8013 330.878 90.7793 331.746L89.6033 330.724C90.5833 329.842 91.5913 328.974 92.4453 327.854C92.6273 327.616 92.7533 327.294 92.7533 327V325.39H90.2333V324.004H97.2193L96.9393 325.39ZM100.453 323.29V332.208L98.5493 332.488V323.57L100.453 323.29ZM100.537 336.044H92.3193V331.998H94.2653V334.644H100.817L100.537 336.044ZM110.703 328.596V329.982C109.611 330.234 108.057 330.304 106.657 330.304H103.199V323.836H109.583V325.236H105.145V326.356H109.471V327.742H105.145V328.918H106.825C107.959 328.918 109.415 328.862 110.703 328.596ZM113.181 323.29V330.738L111.277 331.018V323.57L113.181 323.29ZM113.181 331.508V335.75L111.249 336.1H104.907V331.508H113.181ZM106.839 334.7H111.249V332.908H106.839V334.7Z" fill="#2856CE"/>
<path d="M31.3047 350.59C31.2988 352.348 32.4531 354.164 34.0703 354.855L33.4609 355.723C32.2246 355.178 31.2402 354.018 30.7539 352.617C30.2676 354.117 29.2832 355.395 28.0586 355.992L27.4141 355.113C28.9961 354.369 30.168 352.4 30.1797 350.59V349.477H27.7773V348.551H33.6953V349.477H31.3047V350.59ZM35.0195 357.996V347.496H36.1328V357.996H35.0195ZM46.5391 347.508V355.465H45.4258V354.457H43.3164V353.672H45.4258V347.508H46.5391ZM37.7617 352.301C39.7012 352.283 42.3203 352.266 44.5586 351.984L44.6289 352.781C43.7324 352.934 42.7891 353.027 41.8633 353.092V355.137H40.75V353.15C39.7305 353.191 38.752 353.191 37.9023 353.191L37.7617 352.301ZM38.582 349.758C38.5762 348.645 39.6367 347.906 41.1953 347.906C42.7305 347.906 43.7969 348.645 43.7969 349.758C43.7969 350.877 42.7305 351.586 41.1953 351.586C39.6426 351.586 38.5762 350.877 38.582 349.758ZM39.2148 357.773V354.691H40.3164V356.871H46.7969V357.773H39.2148ZM39.6367 349.758C39.6309 350.379 40.2637 350.766 41.1953 350.766C42.0918 350.766 42.7363 350.379 42.7422 349.758C42.7363 349.131 42.0918 348.727 41.1953 348.738C40.2637 348.727 39.6309 349.131 39.6367 349.758ZM57.7891 355.746V356.684H48.1797V355.746H57.7891ZM49 349.418V348.504H56.9102V349.418H55.3047V352.922H56.875V353.812H49.0234V352.922H50.5938V349.418H49ZM51.6953 352.922H54.2148V349.418H51.6953V352.922ZM68.1602 355.805V356.742H58.5508V355.805H62.7812V353.965H59.7227V350.625H65.8867V349.148H59.6992V348.234H66.9883V351.516H60.8242V353.051H67.2344V353.965H63.8828V355.805H68.1602ZM77.2422 348.562V349.688C77.2422 351.047 77.2422 352.518 76.8555 354.762L75.7188 354.656C76.1406 352.553 76.1406 351.012 76.1406 349.688V349.477H69.9531V348.562H77.2422ZM68.9219 356.508V355.582H78.4961V356.508H68.9219ZM88.2461 347.508V353.742H87.1914V351.012H85.9023V353.625H84.8594V347.695H85.9023V350.098H87.1914V347.508H88.2461ZM79.7383 349.055V348.164H83.7227V351.117H80.8398V352.43C82.1406 352.424 83.1309 352.365 84.2852 352.137L84.4023 353.027C83.0781 353.273 81.9883 353.309 80.4531 353.309H79.7617V350.262H82.6562V349.055H79.7383ZM81.2266 357.867V354.211H88.2461V357.867H81.2266ZM82.3398 356.965H87.1562V355.102H82.3398V356.965ZM102.191 352.758V353.66H98.0312V355.699H96.9062V353.66H92.582V352.758H102.191ZM93.6367 349.875C93.6309 348.562 95.1191 347.748 97.375 347.742C99.6309 347.748 101.107 348.562 101.102 349.875C101.107 351.182 99.6309 351.996 97.375 351.996C95.1191 351.996 93.6309 351.182 93.6367 349.875ZM93.7891 357.773V354.691H94.9023V356.859H101.125V357.773H93.7891ZM94.832 349.875C94.8203 350.631 95.8398 351.094 97.375 351.094C98.916 351.094 99.9238 350.631 99.9297 349.875C99.9238 349.096 98.916 348.639 97.375 348.633C95.8398 348.639 94.8203 349.096 94.832 349.875ZM105.871 348.105C106.744 348.1 107.488 348.428 107.98 348.973H110.605V347.496H111.719V353.695H110.605V352.277H107.975C107.482 352.816 106.738 353.139 105.871 353.133C104.289 353.139 103.111 352.09 103.117 350.625C103.111 349.143 104.289 348.1 105.871 348.105ZM104.184 350.625C104.178 351.545 104.887 352.195 105.871 352.184C106.826 352.195 107.535 351.545 107.535 350.625C107.535 349.682 106.826 349.055 105.871 349.066C104.887 349.055 104.178 349.682 104.184 350.625ZM104.652 355.957C104.646 354.674 106.006 353.924 108.203 353.93C110.389 353.924 111.748 354.674 111.754 355.957C111.748 357.234 110.389 357.979 108.203 357.973C106.006 357.979 104.646 357.234 104.652 355.957ZM105.742 355.957C105.736 356.678 106.662 357.1 108.203 357.094C109.744 357.1 110.664 356.678 110.664 355.957C110.664 355.207 109.744 354.791 108.203 354.785C106.662 354.791 105.736 355.207 105.742 355.957ZM108.49 349.863C108.561 350.098 108.602 350.355 108.602 350.625C108.602 350.883 108.561 351.135 108.49 351.363H110.605V349.863H108.49Z" fill="#737373"/>
<rect x="0.5" y="248.5" width="139" height="149" rx="15.5" stroke="#86A5F6"/>
<rect x="199.5" y="0.5" width="139" height="149" rx="15.5" fill="white"/>
<rect x="269" y="12.1543" width="23.7037" height="23.7037" rx="4.74074" transform="rotate(45 269 12.1543)" fill="#4B84F0"/>
<path d="M265.477 33.4482C263.432 33.4482 262.213 31.8662 262.219 29.0889C262.213 26.3232 263.444 24.7295 265.477 24.7295C267.51 24.7295 268.735 26.3232 268.735 29.0889C268.735 31.8721 267.516 33.4482 265.477 33.4482ZM263.754 29.0889C263.754 31.1279 264.411 32.165 265.477 32.1709C266.538 32.165 267.2 31.1279 267.2 29.0889C267.194 27.0674 266.538 26.001 265.477 25.9951C264.417 26.001 263.76 27.0674 263.754 29.0889ZM270.012 33.3311V32.2295L273.012 29.335C273.868 28.4795 274.313 27.9756 274.313 27.2607C274.313 26.4697 273.686 25.9717 272.86 25.9717C271.987 25.9717 271.424 26.5166 271.43 27.3779H269.977C269.971 25.7725 271.178 24.7295 272.872 24.7295C274.606 24.7295 275.772 25.7666 275.778 27.1904C275.772 28.1455 275.315 28.9189 273.645 30.4951L272.133 31.9951V32.0537H275.907V33.3311H270.012Z" fill="white"/>
<path d="M240.937 56.586H236.597V55.2H242.953V56.194C242.953 60.002 240.293 63.026 237.227 64.426L236.079 63.18C238.753 62.06 240.937 59.26 240.937 56.824V56.586ZM246.509 54.29V66.82L244.605 67.1V54.57L246.509 54.29ZM260.147 60.87H255.457V61.794H258.565V65.098H252.055V65.854H258.999L258.719 67.156H250.109V63.852H256.633V63.082H250.081V61.794H253.441V60.87H248.289V59.512H260.427L260.147 60.87ZM255.359 54.276V55.074C255.359 55.368 255.373 55.774 255.611 55.928C256.633 56.586 258.593 57.552 259.685 57.986L258.817 59.218C257.529 58.7 255.611 57.748 254.351 57.006C253.105 57.762 251.103 58.728 249.899 59.204L249.031 58.014C250.277 57.538 251.999 56.726 253.063 55.998C253.329 55.816 253.357 55.494 253.357 55.2V54.556L255.359 54.276ZM272.007 62.186V66.75L270.075 67.1H263.733V62.186H265.679V63.432H270.075V62.186H272.007ZM261.815 59.064C261.815 57.552 263.257 56.768 265.007 56.768C266.757 56.768 268.199 57.552 268.199 59.064V59.344C268.199 60.856 266.757 61.682 265.007 61.682C263.257 61.682 261.815 60.856 261.815 59.344V59.064ZM268.451 57.3H270.103V54.57L272.007 54.29V61.416L270.103 61.696V60.926H268.451V59.596H270.103V58.588H268.451V57.3ZM268.591 56.488H261.143V55.116H263.971V54.206L265.903 53.926V55.116H268.871L268.591 56.488ZM266.379 59.12C266.379 58.49 265.777 58.084 265.007 58.084C264.237 58.084 263.635 58.49 263.635 59.12V59.288C263.635 59.904 264.237 60.366 265.007 60.366C265.777 60.366 266.379 59.904 266.379 59.288V59.12ZM265.679 65.728H270.075V64.804H265.679V65.728ZM278.463 57.594V56.32H274.753V54.92H280.353V58.966H276.699V60.352H277.427C278.701 60.352 280.633 60.268 281.977 60.03V61.416C280.549 61.668 278.547 61.752 277.273 61.752H274.753V57.594H278.463ZM284.735 54.29V62.046L282.831 62.326V59.638H280.913V58.252H282.831V57.132H280.913V55.746H282.831V54.57L284.735 54.29ZM276.349 62.676H284.735V67.072L282.803 67.352V64.062H276.349V62.676ZM291.293 54.752H297.425V60.268L295.535 60.548H291.293V54.752ZM301.429 63.81L298.111 63.824C298.111 64.076 298.139 64.342 298.363 64.454C299.539 65.14 300.687 65.7 302.101 66.33L301.205 67.506C299.791 66.918 298.349 66.232 297.173 65.602C296.095 66.204 294.555 66.988 293.141 67.604L292.217 66.442C293.729 65.798 294.821 65.182 295.871 64.552C296.095 64.426 296.165 64.104 296.179 63.824H292.693V62.494H296.179V61.332L298.111 61.052V62.494H301.709L301.429 63.81ZM301.387 54.29V61.36L299.497 61.64V54.57L301.387 54.29ZM295.535 56.152H293.183V59.19H295.535V56.152ZM252.952 85.656V82.38H250.684V81.918C250.124 82.912 248.962 83.43 247.688 83.43C245.924 83.43 244.356 82.422 244.356 80.546V79.734C244.356 77.858 245.924 76.85 247.688 76.85C248.962 76.85 250.124 77.382 250.684 78.376V77.844H252.952V76.57L254.842 76.29V85.376L252.952 85.656ZM254.94 89.044H246.722V84.998H248.668V87.644H255.22L254.94 89.044ZM249.13 80.49V79.79C249.13 78.81 248.528 78.25 247.688 78.25C246.848 78.25 246.246 78.81 246.246 79.79V80.49C246.246 81.47 246.848 82.03 247.688 82.03C248.528 82.03 249.13 81.47 249.13 80.49ZM251.02 80.546C251.02 80.7 251.006 80.854 250.978 80.994H252.952V79.244H250.978C251.006 79.398 251.02 79.566 251.02 79.734V80.546ZM256.622 82.408H264.532C264.77 81.246 265.022 79.468 265.078 78.292H258.106V76.892H267.108C267.052 78.446 266.898 80.574 266.492 82.408H268.76L268.48 83.794H263.762V88.932L261.802 89.212V83.794H256.622V82.408ZM273.13 78.334H277.708V76.626H279.64V82.198L277.708 82.548H271.184V76.626H273.13V78.334ZM281.502 83.696L281.222 85.082H276.504V88.932L274.544 89.212V85.082H269.364V83.696H281.502ZM273.13 81.148H277.708V79.734H273.13V81.148ZM293.068 76.29V88.82L291.164 89.1V81.344H288.588V79.93H291.164V76.57L293.068 76.29ZM287.16 76.934V80.616C287.16 80.91 287.23 81.218 287.398 81.442C288.126 82.422 289.218 83.766 290.17 84.83L289.05 85.908C288.07 84.872 286.894 83.556 286.18 82.604C285.354 83.654 284.136 85.138 283.142 86.216L281.966 85.194C282.918 84.088 284.052 82.744 284.878 81.554C285.046 81.316 285.172 80.994 285.172 80.7V77.214L287.16 76.934Z" fill="#2856CE"/>
<path d="M250.725 100.496V110.996H249.6V100.496H250.725ZM242.1 108.184C244.889 106.854 246.254 104.961 246.471 102.512H242.604V101.621H247.596C247.596 104.697 246.289 107.357 242.686 109.086L242.1 108.184ZM257.721 100.895C257.727 102.102 259.391 103.115 261.436 103.344L261.049 104.188C259.326 103.977 257.82 103.25 257.146 102.178C256.467 103.25 254.961 103.977 253.256 104.188L252.869 103.344C254.92 103.115 256.578 102.102 256.584 100.895V100.543H257.721V100.895ZM252.365 105.688V104.797H261.939V105.688H257.697V106.625H260.732V109.109H254.615V110.035H261.025V110.891H253.525V108.301H259.631V107.48H253.514V106.625H256.584V105.688H252.365ZM268.654 101.504V102.395H262.748V101.504H265.209V100.402H266.311V101.504H268.654ZM263.334 104.738C263.334 103.607 264.318 102.846 265.748 102.84C267.16 102.846 268.168 103.607 268.174 104.738C268.168 105.881 267.16 106.631 265.748 106.637C264.318 106.631 263.334 105.881 263.334 104.738ZM264.377 104.738C264.371 105.389 264.916 105.805 265.748 105.805C266.568 105.805 267.131 105.389 267.143 104.738C267.131 104.1 266.568 103.689 265.748 103.695C264.916 103.689 264.371 104.1 264.377 104.738ZM264.576 110.867V107.141H265.678V108.137H270.389V107.141H271.49V110.867H264.576ZM265.678 109.988H270.389V108.992H265.678V109.988ZM268.678 105.84V104.938H270.377V103.789H268.689V102.875H270.377V100.496H271.49V106.719H270.377V105.84H268.678ZM278.111 101.129V104.188H274.643V105.641C276.471 105.641 277.467 105.6 278.65 105.383L278.756 106.285C277.473 106.502 276.395 106.537 274.303 106.543H273.541V103.344H276.998V102.02H273.529V101.129H278.111ZM274.736 108.395V107.492H281.861V111.008H280.748V108.395H274.736ZM278.779 105.113V104.223H280.748V102.922H278.779V102.031H280.748V100.508H281.861V106.965H280.748V105.113H278.779ZM291.951 101.164V105.477H286.959V101.164H291.951ZM287.65 110.105C289.561 109.918 291.055 108.963 291.131 108.02H288.072V107.176H291.154V106.191H292.256V107.176H295.35V108.02H292.279C292.355 108.934 293.814 109.895 295.725 110.105L295.35 110.961C293.703 110.762 292.344 110.059 291.711 109.133C291.066 110.07 289.689 110.762 288.037 110.961L287.65 110.105ZM288.049 104.609H290.85V102.055H288.049V104.609ZM294.002 106.496V100.496H295.104V106.496H294.002ZM241.543 127.094C243.816 127.094 245.252 127.814 245.258 129.039C245.252 130.258 243.816 130.979 241.543 130.973C239.293 130.979 237.852 130.258 237.852 129.039C237.852 127.814 239.293 127.094 241.543 127.094ZM236.82 126.227V125.324H240.652V123.355H241.742V125.324H246.371V126.227H236.82ZM237.934 121.902V121.012H245.176V121.891C245.182 122.729 245.182 123.596 244.883 124.68L243.793 124.562C244.074 123.49 244.074 122.717 244.074 121.902H237.934ZM238.965 129.039C238.953 129.719 239.955 130.111 241.543 130.117C243.148 130.111 244.145 129.719 244.156 129.039C244.145 128.348 243.148 127.943 241.543 127.938C239.955 127.943 238.953 128.348 238.965 129.039ZM256.766 125.605V126.496H247.18V125.605H251.434V124.492H248.375V120.977H255.582V121.855H249.477V123.602H255.652V124.492H252.512V125.605H256.766ZM248.316 129.086C248.316 127.867 249.682 127.182 251.961 127.176C254.223 127.182 255.576 127.867 255.582 129.086C255.576 130.305 254.223 130.99 251.961 130.996C249.682 130.99 248.316 130.305 248.316 129.086ZM249.441 129.086C249.436 129.76 250.355 130.129 251.961 130.117C253.543 130.129 254.469 129.76 254.469 129.086C254.469 128.424 253.543 128.043 251.961 128.043C250.355 128.043 249.436 128.424 249.441 129.086ZM266.305 120.508V128.242H265.191V125.512H262.584C262.092 126.104 261.33 126.461 260.457 126.461C258.875 126.461 257.697 125.354 257.703 123.812C257.697 122.26 258.875 121.152 260.457 121.141C261.324 121.146 262.08 121.504 262.572 122.09H265.191V120.508H266.305ZM258.77 123.812C258.764 124.803 259.473 125.482 260.457 125.477C261.4 125.482 262.121 124.803 262.121 123.812C262.121 122.822 261.4 122.143 260.457 122.137C259.473 122.143 258.764 122.822 258.77 123.812ZM259.484 130.773V127.434H260.598V129.871H266.586V130.773H259.484ZM263.064 122.992C263.146 123.25 263.188 123.52 263.188 123.812C263.188 124.094 263.146 124.363 263.07 124.609H265.191V122.992H263.064ZM276.277 121.152V122.078C276.277 123.074 276.277 124.158 275.984 125.652H277.496V126.566H273.242V131.008H272.117V126.566H267.922V125.652H274.859C275.17 124.152 275.17 123.057 275.176 122.078V122.066H269.094V121.152H276.277ZM285.113 122.688C285.113 124.047 286.115 125.324 287.738 125.84L287.164 126.707C285.957 126.309 285.049 125.482 284.568 124.434C284.1 125.576 283.162 126.479 281.914 126.918L281.34 126.039C282.975 125.482 283.982 124.123 283.988 122.688V122.23H281.633V121.328H287.422V122.23H285.113V122.688ZM283.062 130.773V127.445H284.188V129.871H290.246V130.773H283.062ZM288.816 128.172V120.508H289.93V128.172H288.816ZM300.547 120.496V127.117H299.492V124.188H298.273V126.754H297.23V120.695H298.273V123.273H299.492V120.496H300.547ZM291.535 122.57V121.691H293.656V120.578H294.758V121.691H296.844V122.57H291.535ZM291.945 124.867C291.945 123.777 292.883 123.062 294.195 123.062C295.537 123.062 296.469 123.777 296.469 124.867C296.469 125.957 295.537 126.672 294.195 126.672C292.883 126.672 291.945 125.957 291.945 124.867ZM292.941 124.867C292.941 125.465 293.451 125.857 294.195 125.863C294.951 125.857 295.467 125.465 295.461 124.867C295.467 124.27 294.951 123.877 294.195 123.883C293.451 123.877 292.941 124.27 292.941 124.867ZM293.48 129.133C293.469 127.943 294.805 127.27 297.031 127.27C299.264 127.27 300.6 127.943 300.605 129.133C300.6 130.311 299.264 130.979 297.031 130.973C294.805 130.979 293.469 130.311 293.48 129.133ZM294.582 129.133C294.57 129.766 295.473 130.129 297.031 130.117C298.596 130.129 299.486 129.766 299.492 129.133C299.486 128.471 298.596 128.119 297.031 128.125C295.473 128.119 294.57 128.471 294.582 129.133Z" fill="#737373"/>
<rect x="199.5" y="0.5" width="139" height="149" rx="15.5" stroke="#86A5F6"/>
<rect x="0.5" y="0.5" width="139" height="149" rx="15.5" fill="white"/>
<rect x="70" y="33.1543" width="23.7037" height="23.7037" rx="4.74074" transform="rotate(45 70 33.1543)" fill="#4B84F0"/>
<path d="M66.8384 54.4482C64.7935 54.4482 63.5747 52.8662 63.5806 50.0889C63.5747 47.3232 64.8052 45.7295 66.8384 45.7295C68.8716 45.7295 70.0962 47.3232 70.0962 50.0889C70.0962 52.8721 68.8774 54.4482 66.8384 54.4482ZM65.1157 50.0889C65.1157 52.1279 65.772 53.165 66.8384 53.1709C67.8989 53.165 68.561 52.1279 68.561 50.0889C68.5552 48.0674 67.8989 47.001 66.8384 46.9951C65.7778 47.001 65.1216 48.0674 65.1157 50.0889ZM74.8188 45.8467V54.3311H73.2837V47.335H73.2368L71.2563 48.6006V47.2061L73.354 45.8467H74.8188Z" fill="white"/>
<path d="M64.9158 78.44C66.4978 78.44 67.9118 79 67.9118 80.848C67.9118 82.696 66.4978 83.256 64.9158 83.256H62.4518C60.8698 83.256 59.4558 82.696 59.4558 80.848C59.4558 79 60.8698 78.44 62.4518 78.44H64.9158ZM62.4798 83.69V85.202H64.9158V83.69H66.8618V85.202H69.7598L69.4798 86.616H57.6218V85.202H60.5338V83.69H62.4798ZM68.3318 77.908H58.8958V76.536H62.6898V75.388L64.6218 75.108V76.536H68.6118L68.3318 77.908ZM64.7478 79.784H62.6198C61.9058 79.784 61.3318 80.078 61.3318 80.848C61.3318 81.618 61.9058 81.912 62.6198 81.912H64.7478C65.4618 81.912 66.0358 81.618 66.0358 80.848C66.0358 80.078 65.4618 79.784 64.7478 79.784ZM78.47 83.242C79.996 83.242 81.382 83.858 81.382 85.748C81.382 87.652 79.996 88.268 78.47 88.268H75.474C73.892 88.268 72.478 87.652 72.478 85.748C72.478 83.858 73.892 83.242 75.474 83.242H78.47ZM75.39 75.584V77.866C75.39 78.16 75.446 78.482 75.642 78.692C76.51 79.658 77.434 80.512 78.414 81.338L77.294 82.416C76.3 81.618 75.278 80.792 74.424 79.854C73.57 80.834 72.422 81.926 71.4 82.794L70.224 81.772C71.204 80.89 72.24 79.924 73.094 78.804C73.276 78.566 73.402 78.244 73.402 77.95V75.864L75.39 75.584ZM79.296 83.032V78.608H76.958V77.222H79.296V75.57L81.2 75.29V82.752L79.296 83.032ZM78.288 84.628H75.628C74.872 84.628 74.354 84.936 74.354 85.748C74.354 86.574 74.872 86.882 75.628 86.882H78.288C78.988 86.882 79.506 86.574 79.506 85.748C79.506 84.936 78.988 84.628 78.288 84.628Z" fill="#2856CE"/>
<path d="M53.5527 100.984V101.887H44.916V100.984H48.6895V99.6484H49.791V100.984H53.5527ZM44.459 108.836V107.934H46.9199V106.059C46.1582 105.725 45.7305 105.186 45.7363 104.477C45.7305 103.223 47.0723 102.484 49.2402 102.496C51.3906 102.484 52.7383 103.223 52.7324 104.477C52.7383 105.186 52.3105 105.725 51.5488 106.059V107.934H54.0684V108.836H44.459ZM46.873 104.477C46.8613 105.186 47.7402 105.59 49.2402 105.59C50.7168 105.59 51.6016 105.186 51.5957 104.477C51.6016 103.762 50.7168 103.357 49.2402 103.352C47.7402 103.357 46.8613 103.762 46.873 104.477ZM48.0332 107.934H50.459V106.369C50.0898 106.428 49.6797 106.457 49.2402 106.457C48.8008 106.457 48.3965 106.428 48.0332 106.369V107.934ZM58.5566 101.066C58.5508 102.537 59.5059 103.85 61.0996 104.371L60.4902 105.238C59.3359 104.816 58.4863 104.008 58.0293 102.953C57.5781 104.154 56.6641 105.098 55.3926 105.555L54.7949 104.664C56.4707 104.09 57.4434 102.689 57.4551 101.113V100.082H58.5566V101.066ZM56.5176 107.992C56.5117 106.721 57.8594 105.982 60.0684 105.988C62.2656 105.982 63.6133 106.721 63.6191 107.992C63.6133 109.258 62.2656 109.979 60.0684 109.973C57.8594 109.979 56.5117 109.258 56.5176 107.992ZM57.6191 107.992C57.6133 108.689 58.5273 109.1 60.0684 109.094C61.5977 109.1 62.5117 108.689 62.5176 107.992C62.5117 107.271 61.5977 106.855 60.0684 106.855C58.5273 106.855 57.6133 107.271 57.6191 107.992ZM60.2559 102.543V101.629H62.4707V99.4961H63.584V105.695H62.4707V102.543H60.2559ZM71.0371 100.422V101.336H66.9473V103.363H70.6387V104.254H66.9473V106.609C68.7812 106.598 70.1113 106.533 71.6699 106.281L71.7871 107.184C70.123 107.453 68.6816 107.506 66.7012 107.512H65.8457V100.422H71.0371ZM72.8066 109.996V99.4961H73.9316V109.996H72.8066ZM78.0684 100.305C79.457 100.305 80.4824 101.371 80.4824 102.883C80.4824 104.395 79.457 105.461 78.0684 105.449C76.668 105.461 75.6602 104.395 75.666 102.883C75.6602 101.371 76.668 100.305 78.0684 100.305ZM76.6621 102.883C76.6562 103.855 77.2539 104.512 78.0684 104.512C78.877 104.512 79.4629 103.855 79.4746 102.883C79.4629 101.916 78.877 101.248 78.0684 101.254C77.2539 101.248 76.6562 101.916 76.6621 102.883ZM77.5645 109.773V106.328H78.666V108.871H84.8301V109.773H77.5645ZM81.209 106.996V99.6953H82.252V102.531H83.4707V99.5078H84.5254V107.371H83.4707V103.445H82.252V106.996H81.209ZM94.8145 99.4961V109.996H93.6895V99.4961H94.8145ZM85.7676 106.844C87.0801 105.865 87.3965 104.037 87.4082 102.602V100.398H88.4395V102.602C88.4453 103.709 88.6211 105.203 89.4121 106.27C90.1914 105.227 90.3672 103.756 90.373 102.602V100.398H91.4395V102.602C91.4336 104.078 91.7559 105.895 93.0684 106.844L92.377 107.641C91.6094 107.084 91.1582 106.188 90.9004 105.186C90.6543 106.211 90.1973 107.148 89.4121 107.723C88.627 107.148 88.1699 106.205 87.9238 105.186C87.6719 106.164 87.2266 107.043 86.4941 107.605L85.7676 106.844Z" fill="#737373"/>
<rect x="0.5" y="0.5" width="139" height="149" rx="15.5" stroke="#86A5F6"/>
</svg>
