<svg width="654" height="396" viewBox="0 0 654 396" fill="none" xmlns="http://www.w3.org/2000/svg">
<rect width="210" height="114" rx="18.4113" fill="#1ABF52"/>
<path d="M90.5072 40.242C90.5072 38.514 92.3072 37.578 94.5572 37.578C96.8072 37.578 98.6072 38.514 98.6072 40.242V40.512C98.6072 41.898 97.4552 42.816 95.8352 43.122V44.148C97.0592 44.094 98.2292 43.986 99.6332 43.734V45.48C97.0772 45.84 94.3052 45.948 91.5332 45.948H89.3552V44.184H93.3152V43.122C91.6772 42.834 90.5072 41.916 90.5072 40.512V40.242ZM102.747 34.23V39.72H105.231L104.871 41.628H102.747V46.722L100.263 47.082V34.59L102.747 34.23ZM102.837 50.628H92.1452V46.578H94.6292V48.828H103.197L102.837 50.628ZM98.9852 37.254H89.9492V35.562H93.3872V34.428L95.8712 34.068V35.562H99.3452L98.9852 37.254ZM96.2672 40.314C96.2672 39.72 95.5472 39.27 94.5572 39.27C93.5672 39.27 92.8472 39.72 92.8472 40.314V40.44C92.8472 41.016 93.5672 41.538 94.5572 41.538C95.5472 41.538 96.2672 41.016 96.2672 40.44V40.314ZM117.132 44.346V42.168H113.892V40.368H117.132V38.658H114.36C113.118 41.34 109.986 43.554 107.052 44.436L105.882 42.87C109.464 41.88 112.326 38.982 112.326 37.092V36.84H106.818V35.04H114.918V36.282C114.918 36.48 114.9 36.678 114.882 36.858H117.132V34.59L119.58 34.23V43.986L117.132 44.346ZM115.89 44.454C117.852 44.454 119.634 45.246 119.634 47.676C119.634 50.124 117.852 50.916 115.89 50.916H112.038C110.004 50.916 108.186 50.124 108.186 47.676C108.186 45.246 110.004 44.454 112.038 44.454H115.89ZM115.656 46.236H112.236C111.264 46.236 110.598 46.632 110.598 47.676C110.598 48.738 111.264 49.134 112.236 49.134H115.656C116.556 49.134 117.222 48.738 117.222 47.676C117.222 46.632 116.556 46.236 115.656 46.236Z" fill="white"/>
<path d="M48.7971 70.64V73.44H52.5571V75.216H48.7971V78.176H53.0371V80H46.5571V68.816H53.0371V70.64H48.7971ZM59.9848 71.008C61.0408 71.008 61.8941 71.344 62.5448 72.016C63.1954 72.6773 63.5208 73.6053 63.5208 74.8V80H61.2808V75.104C61.2808 74.4 61.1048 73.8613 60.7528 73.488C60.4008 73.104 59.9208 72.912 59.3128 72.912C58.6941 72.912 58.2034 73.104 57.8408 73.488C57.4888 73.8613 57.3128 74.4 57.3128 75.104V80H55.0728V71.136H57.3128V72.24C57.6114 71.856 57.9901 71.5573 58.4488 71.344C58.9181 71.12 59.4301 71.008 59.9848 71.008ZM69.3469 77.936L71.5869 71.136H73.9709L70.6909 80H67.9709L64.7069 71.136H67.1069L69.3469 77.936ZM76.365 70.08C75.9703 70.08 75.6397 69.9573 75.373 69.712C75.117 69.456 74.989 69.1413 74.989 68.768C74.989 68.3947 75.117 68.0853 75.373 67.84C75.6397 67.584 75.9703 67.456 76.365 67.456C76.7597 67.456 77.085 67.584 77.341 67.84C77.6077 68.0853 77.741 68.3947 77.741 68.768C77.741 69.1413 77.6077 69.456 77.341 69.712C77.085 69.9573 76.7597 70.08 76.365 70.08ZM77.469 71.136V80H75.229V71.136H77.469ZM81.9221 72.512C82.2101 72.0427 82.5835 71.6747 83.0421 71.408C83.5115 71.1413 84.0448 71.008 84.6421 71.008V73.36H84.0501C83.3461 73.36 82.8128 73.5253 82.4501 73.856C82.0981 74.1867 81.9221 74.7627 81.9221 75.584V80H79.6821V71.136H81.9221V72.512ZM90.0869 80.144C89.2335 80.144 88.4655 79.9573 87.7829 79.584C87.1002 79.2 86.5615 78.6613 86.1669 77.968C85.7829 77.2747 85.5909 76.4747 85.5909 75.568C85.5909 74.6613 85.7882 73.8613 86.1829 73.168C86.5882 72.4747 87.1375 71.9413 87.8309 71.568C88.5242 71.184 89.2975 70.992 90.1509 70.992C91.0042 70.992 91.7775 71.184 92.4709 71.568C93.1642 71.9413 93.7082 72.4747 94.1029 73.168C94.5082 73.8613 94.7109 74.6613 94.7109 75.568C94.7109 76.4747 94.5029 77.2747 94.0869 77.968C93.6815 78.6613 93.1269 79.2 92.4229 79.584C91.7295 79.9573 90.9509 80.144 90.0869 80.144ZM90.0869 78.192C90.4922 78.192 90.8709 78.096 91.2229 77.904C91.5855 77.7013 91.8735 77.4027 92.0869 77.008C92.3002 76.6133 92.4069 76.1333 92.4069 75.568C92.4069 74.7253 92.1829 74.08 91.7349 73.632C91.2975 73.1733 90.7589 72.944 90.1189 72.944C89.4789 72.944 88.9402 73.1733 88.5029 73.632C88.0762 74.08 87.8629 74.7253 87.8629 75.568C87.8629 76.4107 88.0709 77.0613 88.4869 77.52C88.9135 77.968 89.4469 78.192 90.0869 78.192ZM101.266 71.008C102.322 71.008 103.175 71.344 103.826 72.016C104.477 72.6773 104.802 73.6053 104.802 74.8V80H102.562V75.104C102.562 74.4 102.386 73.8613 102.034 73.488C101.682 73.104 101.202 72.912 100.594 72.912C99.9753 72.912 99.4847 73.104 99.122 73.488C98.77 73.8613 98.594 74.4 98.594 75.104V80H96.354V71.136H98.594V72.24C98.8927 71.856 99.2713 71.5573 99.73 71.344C100.199 71.12 100.711 71.008 101.266 71.008ZM117.94 71.008C119.028 71.008 119.903 71.344 120.564 72.016C121.236 72.6773 121.572 73.6053 121.572 74.8V80H119.332V75.104C119.332 74.4107 119.156 73.8827 118.804 73.52C118.452 73.1467 117.972 72.96 117.364 72.96C116.756 72.96 116.271 73.1467 115.908 73.52C115.556 73.8827 115.38 74.4107 115.38 75.104V80H113.14V75.104C113.14 74.4107 112.964 73.8827 112.612 73.52C112.26 73.1467 111.78 72.96 111.172 72.96C110.553 72.96 110.063 73.1467 109.7 73.52C109.348 73.8827 109.172 74.4107 109.172 75.104V80H106.932V71.136H109.172V72.208C109.46 71.8347 109.828 71.5413 110.276 71.328C110.735 71.1147 111.236 71.008 111.78 71.008C112.473 71.008 113.092 71.1573 113.636 71.456C114.18 71.744 114.601 72.16 114.9 72.704C115.188 72.192 115.604 71.7813 116.148 71.472C116.703 71.1627 117.3 71.008 117.94 71.008ZM131.938 75.376C131.938 75.696 131.916 75.984 131.874 76.24H125.394C125.447 76.88 125.671 77.3813 126.066 77.744C126.46 78.1067 126.946 78.288 127.522 78.288C128.354 78.288 128.946 77.9307 129.298 77.216H131.714C131.458 78.0693 130.967 78.7733 130.242 79.328C129.516 79.872 128.626 80.144 127.57 80.144C126.716 80.144 125.948 79.9573 125.266 79.584C124.594 79.2 124.066 78.6613 123.682 77.968C123.308 77.2747 123.122 76.4747 123.122 75.568C123.122 74.6507 123.308 73.8453 123.682 73.152C124.055 72.4587 124.578 71.9253 125.25 71.552C125.922 71.1787 126.695 70.992 127.57 70.992C128.412 70.992 129.164 71.1733 129.826 71.536C130.498 71.8987 131.015 72.416 131.378 73.088C131.751 73.7493 131.938 74.512 131.938 75.376ZM129.618 74.736C129.607 74.16 129.399 73.7013 128.994 73.36C128.588 73.008 128.092 72.832 127.506 72.832C126.951 72.832 126.482 73.0027 126.098 73.344C125.724 73.6747 125.495 74.1387 125.41 74.736H129.618ZM138.485 71.008C139.541 71.008 140.394 71.344 141.045 72.016C141.695 72.6773 142.021 73.6053 142.021 74.8V80H139.781V75.104C139.781 74.4 139.605 73.8613 139.253 73.488C138.901 73.104 138.421 72.912 137.813 72.912C137.194 72.912 136.703 73.104 136.341 73.488C135.989 73.8613 135.813 74.4 135.813 75.104V80H133.573V71.136H135.813V72.24C136.111 71.856 136.49 71.5573 136.949 71.344C137.418 71.12 137.93 71.008 138.485 71.008ZM146.759 72.976V77.264C146.759 77.5627 146.828 77.7813 146.967 77.92C147.116 78.048 147.362 78.112 147.703 78.112H148.743V80H147.335C145.447 80 144.503 79.0827 144.503 77.248V72.976H143.447V71.136H144.503V68.944H146.759V71.136H148.743V72.976H146.759ZM149.778 75.536C149.778 74.64 149.954 73.8453 150.306 73.152C150.669 72.4587 151.154 71.9253 151.762 71.552C152.381 71.1787 153.069 70.992 153.826 70.992C154.487 70.992 155.063 71.1253 155.554 71.392C156.055 71.6587 156.455 71.9947 156.754 72.4V71.136H159.01V80H156.754V78.704C156.466 79.12 156.066 79.4667 155.554 79.744C155.053 80.0107 154.471 80.144 153.81 80.144C153.063 80.144 152.381 79.952 151.762 79.568C151.154 79.184 150.669 78.6453 150.306 77.952C149.954 77.248 149.778 76.4427 149.778 75.536ZM156.754 75.568C156.754 75.024 156.647 74.56 156.434 74.176C156.221 73.7813 155.933 73.4827 155.57 73.28C155.207 73.0667 154.818 72.96 154.402 72.96C153.986 72.96 153.602 73.0613 153.25 73.264C152.898 73.4667 152.61 73.7653 152.386 74.16C152.173 74.544 152.066 75.0027 152.066 75.536C152.066 76.0693 152.173 76.5387 152.386 76.944C152.61 77.3387 152.898 77.6427 153.25 77.856C153.613 78.0693 153.997 78.176 154.402 78.176C154.818 78.176 155.207 78.0747 155.57 77.872C155.933 77.6587 156.221 77.36 156.434 76.976C156.647 76.5813 156.754 76.112 156.754 75.568ZM163.438 68.16V80H161.198V68.16H163.438Z" fill="white"/>
<rect x="0.326707" y="124.327" width="209.347" height="271.347" rx="15.6733" fill="white"/>
<path d="M59.0898 158.857V163H60.7578V164.258H59.0898V168.51H57.5723V158.857H59.0898ZM49.1914 166.035C50.1143 166.035 51.1875 166.028 52.3086 165.994V165.208C50.9346 165.037 50.0596 164.36 50.0664 163.369C50.0596 162.159 51.2559 161.441 53.0469 161.455C54.8447 161.441 56.0273 162.159 56.0273 163.369C56.0273 164.354 55.1797 165.023 53.8262 165.208V165.919C54.8789 165.857 55.9385 165.762 56.9297 165.611L57.0527 166.678C54.4346 167.17 51.4883 167.204 49.3555 167.225L49.1914 166.035ZM49.5059 161.045V159.938H52.3086V158.816H53.8262V159.938H56.6016V161.045H49.5059ZM50.9688 170.971V167.867H52.4863V169.74H59.5273V170.971H50.9688ZM51.5293 163.369C51.5156 163.902 52.0898 164.217 53.0469 164.217C54.0039 164.217 54.5781 163.902 54.5781 163.369C54.5781 162.788 54.0039 162.474 53.0469 162.48C52.0898 162.474 51.5156 162.788 51.5293 163.369ZM71.75 158.871V166.09H70.2324V164.723H67.293V163.492H70.2324V162.166H67.4092C66.6299 164.128 64.8252 165.502 62.1387 166.254L61.5234 165.051C64.415 164.271 65.96 162.802 66.1924 160.963H62.1797V159.732H67.8535C67.8535 160.163 67.8193 160.573 67.751 160.963H70.2324V158.871H71.75ZM63.4648 168.688C63.4648 167.17 65.126 166.233 67.6621 166.227C70.1641 166.233 71.832 167.17 71.832 168.688C71.832 170.205 70.1641 171.155 67.6621 171.148C65.126 171.155 63.4648 170.205 63.4648 168.688ZM64.9824 168.688C64.9824 169.501 66.001 169.945 67.6621 169.945C69.2959 169.945 70.3076 169.501 70.3145 168.688C70.3076 167.86 69.2959 167.416 67.6621 167.416C66.001 167.416 64.9824 167.86 64.9824 168.688ZM83.8496 158.871V166.09H82.332V164.723H79.3926V163.492H82.332V162.166H79.5088C78.7295 164.128 76.9248 165.502 74.2383 166.254L73.623 165.051C76.5146 164.271 78.0596 162.802 78.292 160.963H74.2793V159.732H79.9531C79.9531 160.163 79.9189 160.573 79.8506 160.963H82.332V158.871H83.8496ZM75.5645 168.688C75.5645 167.17 77.2256 166.233 79.7617 166.227C82.2637 166.233 83.9316 167.17 83.9316 168.688C83.9316 170.205 82.2637 171.155 79.7617 171.148C77.2256 171.155 75.5645 170.205 75.5645 168.688ZM77.082 168.688C77.082 169.501 78.1006 169.945 79.7617 169.945C81.3955 169.945 82.4072 169.501 82.4141 168.688C82.4072 167.86 81.3955 167.416 79.7617 167.416C78.1006 167.416 77.082 167.86 77.082 168.688ZM89.0312 159.555C90.0293 159.548 90.8975 159.917 91.4785 160.539H94.4316V158.857H95.9492V166.131H94.4316V164.559H91.4717C90.8838 165.167 90.0225 165.536 89.0312 165.529C87.165 165.536 85.7637 164.285 85.7637 162.549C85.7637 160.799 87.165 159.548 89.0312 159.555ZM87.2129 162.549C87.2129 163.561 87.9717 164.244 89.0312 164.244C90.0566 164.244 90.8154 163.561 90.8223 162.549C90.8154 161.503 90.0566 160.854 89.0312 160.854C87.9717 160.854 87.2129 161.503 87.2129 162.549ZM87.5684 168.797C87.5547 167.272 89.1748 166.384 91.7656 166.391C94.3633 166.384 95.9834 167.272 95.9902 168.797C95.9834 170.314 94.3633 171.203 91.7656 171.203C89.1748 171.203 87.5547 170.314 87.5684 168.797ZM89.0586 168.797C89.0449 169.583 90.0498 170.007 91.7656 170.014C93.5156 170.007 94.5 169.583 94.5 168.797C94.5 167.99 93.5156 167.56 91.7656 167.553C90.0498 167.56 89.0449 167.99 89.0586 168.797ZM92.1621 161.756C92.2305 162.009 92.2715 162.269 92.2715 162.549C92.2715 162.822 92.2305 163.082 92.1689 163.328H94.4316V161.756H92.1621ZM103.428 166.486C105.991 166.486 107.563 167.354 107.57 168.838C107.563 170.342 105.991 171.21 103.428 171.217C100.844 171.21 99.2441 170.342 99.2441 168.838C99.2441 167.354 100.844 166.486 103.428 166.486ZM98.123 165.406V159.637H99.627V161.305H102.512V159.637H104.016V165.406H98.123ZM99.627 164.203H102.512V162.494H99.627V164.203ZM100.762 168.838C100.762 169.604 101.732 170.021 103.428 170.014C105.116 170.021 106.066 169.604 106.066 168.838C106.066 168.072 105.116 167.683 103.428 167.676C101.732 167.683 100.762 168.072 100.762 168.838ZM105.93 166.186V158.857H107.447V161.811H109.17V163.082H107.447V166.186H105.93ZM117.127 160.17V161.373H114.488C114.495 162.747 115.575 164.087 117.551 164.613L116.84 165.803C115.391 165.406 114.345 164.559 113.764 163.465C113.203 164.661 112.15 165.598 110.674 166.035L109.963 164.873C111.911 164.278 112.964 162.85 112.971 161.373H110.332V160.17H112.971V158.816H114.502V160.17H117.127ZM111.891 171.066V166.691H120.094V171.066H111.891ZM113.395 169.836H118.604V167.908H113.395V169.836ZM118.562 166.131V158.871H120.094V166.131H118.562ZM128.803 160.143V161.018C128.803 162.118 128.803 163.677 128.461 165.803L126.957 165.68C127.258 163.807 127.292 162.419 127.299 161.359H122.445V160.143H128.803ZM121.789 167.402C122.521 167.396 123.334 167.389 124.182 167.368V163.67H125.686V167.32C126.943 167.266 128.235 167.177 129.418 167.033L129.5 168.168C126.95 168.585 124.12 168.633 121.939 168.619L121.789 167.402ZM130.061 171.217V158.857H131.592V163.889H133.383V165.174H131.592V171.217H130.061ZM147.15 159.363V163.656H143.705V164.955H148.586V166.186H137.32V164.955H142.174V163.656H138.742V159.363H147.15ZM138.564 168.428V167.225H147.205V171.217H145.688V168.428H138.564ZM140.219 162.453H145.646V160.553H140.219V162.453ZM160.713 168.564V169.795H149.42V168.564H152.346V166.021H150.391V164.791H152.127V161.127H150.35V159.91H159.729V161.127H157.924V164.791H159.688V166.021H157.732V168.564H160.713ZM153.645 164.791H156.42V161.127H153.645V164.791ZM153.863 168.564H156.215V166.021H153.863V168.564Z" fill="#282828"/>
<path d="M57.9619 196.857V209.217H56.4307V196.857H57.9619ZM47.7217 205.812C50.9619 204.274 52.4521 202.183 52.7256 199.373H48.3506V198.17H54.2705C54.2705 201.848 52.8418 204.972 48.5146 207.029L47.7217 205.812ZM70.3896 198.184V199.414H60.2998V198.184H64.6064V196.83H66.1104V198.184H70.3896ZM59.7393 206.086V204.842H71.0322V206.086H66.1104V209.23H64.6064V206.086H59.7393ZM61.1748 202.066C61.1748 200.713 62.7471 199.975 65.3584 199.975C67.9697 199.975 69.542 200.713 69.542 202.066C69.542 203.413 67.9697 204.158 65.3584 204.158C62.7471 204.158 61.1748 203.413 61.1748 202.066ZM62.7607 202.066C62.7539 202.702 63.6494 203.03 65.3584 203.023C67.0605 203.03 67.9629 202.702 67.9697 202.066C67.9629 201.438 67.0605 201.109 65.3584 201.109C63.6494 201.109 62.7539 201.438 62.7607 202.066ZM82.1885 196.871V205.99H80.6709V202.887H78.1826V203.98H72.3994V197.678H73.917V199.674H76.6787V197.678H78.1826V199.004H80.6709V196.871H82.1885ZM73.917 202.777H76.6787V200.85H73.917V202.777ZM74.04 208.971V205.088H75.585V207.74H82.4619V208.971H74.04ZM78.1826 201.656H80.6709V200.234H78.1826V201.656ZM93.7139 196.857V201.957H95.4502V203.229H93.7139V209.217H92.1826V196.857H93.7139ZM83.7881 205.785C84.7246 205.785 85.8115 205.785 86.9463 205.758V204.603C85.5996 204.37 84.7246 203.529 84.7314 202.367C84.7246 200.973 85.9482 200.05 87.7256 200.043C89.4824 200.05 90.7197 200.973 90.7334 202.367C90.7197 203.536 89.8242 204.377 88.4775 204.603V205.703C89.5166 205.648 90.5557 205.566 91.5264 205.43L91.6221 206.537C88.9697 207.022 86.1123 207.043 84.0068 207.043L83.7881 205.785ZM84.0205 199.482V198.279H86.9463V196.912H88.4775V198.279H91.3896V199.482H84.0205ZM86.167 202.367C86.1602 203.078 86.7891 203.495 87.7256 203.488C88.6484 203.495 89.2705 203.078 89.2705 202.367C89.2705 201.649 88.6484 201.212 87.7256 201.205C86.7891 201.212 86.1602 201.649 86.167 202.367ZM105.95 197.623V202.764H99.9893V197.623H105.95ZM100.728 208.014C103.1 207.809 104.617 206.756 104.754 205.771H101.233V204.623H104.788V203.543H106.319V204.623H109.888V205.771H106.36C106.497 206.729 107.987 207.774 110.353 208.014L109.833 209.176C107.83 208.964 106.312 208.178 105.561 207.152C104.802 208.191 103.264 208.957 101.247 209.176L100.728 208.014ZM101.493 201.574H104.446V198.826H101.493V201.574ZM108.124 203.898V196.857H109.628V203.898H108.124ZM121.071 197.828V199.031H116.806V200.412H120.825V201.615H116.806V203.058C118.966 203.044 120.271 202.982 121.782 202.723L121.946 203.912C120.271 204.227 118.795 204.281 116.272 204.281H115.288V197.828H121.071ZM116.614 208.971V205.17H118.132V207.74H125.022V208.971H116.614ZM123.013 206.004V196.857H124.53V200.576H126.253V201.834H124.53V206.004H123.013ZM138.175 206.455V207.686H126.882V206.455H131.722V203.598H133.226V206.455H138.175ZM127.21 202.641C129.794 202.224 131.646 200.371 131.653 198.512V197.609H133.267V198.512C133.267 200.378 135.133 202.224 137.737 202.641L137.081 203.898C134.996 203.502 133.28 202.306 132.46 200.686C131.646 202.299 129.951 203.509 127.866 203.898L127.21 202.641ZM140.8 197.992V200.85H142.81V197.992H144.218V206.223H139.364V197.992H140.8ZM140.8 204.992H142.81V202.053H140.8V204.992ZM145.435 208.615V197.076H146.87V201.629H148.183V196.857H149.646V209.217H148.183V202.887H146.87V208.615H145.435ZM162.319 202.203V203.324H157.452V204.227H160.938V207.125H153.911V207.973H161.28V209.107H152.421V206.086H159.448V205.32H152.407V204.227H155.948V203.324H151.108V202.203H162.319ZM151.601 200.658C154.041 200.535 155.477 199.879 155.791 199.004H152.188V197.869H155.948V196.83H157.452V197.869H161.239V199.004H157.609C157.91 199.879 159.346 200.535 161.813 200.658L161.362 201.793C159.141 201.656 157.479 201.055 156.7 200.057C155.921 201.055 154.267 201.656 152.024 201.793L151.601 200.658Z" fill="#282828"/>
<path d="M64.3535 234.857V247.217H62.8906V234.857H64.3535ZM53.8125 240.203C53.8125 237.482 54.8652 235.794 56.4785 235.801C57.9756 235.794 58.9941 237.195 59.1719 239.506H60.3613V235.076H61.8105V246.615H60.3613V240.736H59.1855C59.042 243.149 58.0098 244.626 56.4785 244.619C54.8652 244.626 53.8125 242.931 53.8125 240.203ZM55.2207 240.203C55.2139 242.138 55.6924 243.177 56.4785 243.17C57.2988 243.177 57.7842 242.138 57.791 240.203C57.7842 238.275 57.2988 237.229 56.4785 237.236C55.6924 237.229 55.2139 238.275 55.2207 240.203ZM76.166 234.857V247.23H74.6484V239.998H71.1074V238.768H74.6484V234.857H76.166ZM66.4453 244.305V236.211H67.9629V243.026C69.624 243.006 71.2715 242.883 73.0078 242.541L73.1855 243.785C71.1963 244.195 69.3506 244.298 67.457 244.305H66.4453ZM82.5508 238.371C82.5508 240.395 83.7402 242.527 85.7363 243.361L84.9023 244.564C83.4395 243.929 82.373 242.637 81.8057 241.064C81.2383 242.76 80.1514 244.182 78.709 244.865L77.834 243.676C79.7822 242.773 80.999 240.47 81.0059 238.371V237.332H78.2852V236.074H85.2578V237.332H82.5508V238.371ZM86.6387 247.217V234.857H88.1699V247.217H86.6387ZM94.4863 236.676C94.4795 238.009 95.4844 239.376 97.3711 239.93L96.6602 241.133C95.2656 240.716 94.2676 239.854 93.7275 238.774C93.167 239.971 92.1211 240.955 90.6855 241.406L89.9336 240.217C91.8613 239.588 92.9482 238.084 92.9551 236.662V236.621H90.3574V235.391H97.043V236.621H94.4863V236.676ZM92.1895 242.91V241.707H100.338V244.92H93.7207V245.891H100.734V247.08H92.2031V243.785H98.8203V242.91H92.1895ZM96.7012 238.686V237.469H98.8203V234.857H100.338V241.188H98.8203V238.686H96.7012ZM111.836 234.857V237.674H113.559V238.918H111.836V241.803H110.318V234.857H111.836ZM101.992 240.818C104.856 240.087 106.483 238.624 106.75 236.84H102.58V235.609H108.404C108.397 238.822 106.292 241.044 102.594 242.035L101.992 240.818ZM103.838 247.053V242.295H111.836V247.053H103.838ZM105.355 245.85H110.332V243.539H105.355V245.85ZM124.1 235.623V240.764H118.139V235.623H124.1ZM118.877 246.014C121.249 245.809 122.767 244.756 122.903 243.771H119.383V242.623H122.938V241.543H124.469V242.623H128.037V243.771H124.51C124.646 244.729 126.137 245.774 128.502 246.014L127.982 247.176C125.979 246.964 124.462 246.178 123.71 245.152C122.951 246.191 121.413 246.957 119.396 247.176L118.877 246.014ZM119.643 239.574H122.596V236.826H119.643V239.574ZM126.273 241.898V234.857H127.777V241.898H126.273ZM139.836 235.773V236.512C139.822 237.353 139.822 238.583 139.535 240.148L138.031 240.012C138.277 238.74 138.325 237.79 138.339 237.031H133.533V235.773H139.836ZM132.795 241.133C133.526 241.126 134.347 241.119 135.215 241.105V238.59H136.719V241.058C137.997 241.003 139.31 240.907 140.506 240.736L140.588 241.83C138.018 242.295 135.099 242.343 132.932 242.35L132.795 241.133ZM134.641 246.971V243.293H136.172V245.74H143.186V246.971H134.641ZM141.23 244.113V234.857H142.789V238.713H144.389V239.984H142.789V244.113H141.23ZM155.326 234.857V247.23H153.822V234.857H155.326ZM145.701 237.168V235.938H151.525V240.572H147.273V243.061C149.222 243.047 150.896 242.944 152.824 242.623L152.961 243.867C150.862 244.229 149.017 244.312 146.795 244.305H145.715V239.369H149.98V237.168H145.701Z" fill="#282828"/>
<path d="M50.2852 276.371C50.2783 278.278 51.4268 280.452 53.375 281.361L52.5273 282.564C51.1328 281.908 50.1006 280.582 49.5469 279.037C48.9863 280.732 47.9062 282.182 46.4844 282.865L45.5957 281.676C47.5645 280.739 48.7607 278.429 48.7676 276.371V275.332H46.0742V274.074H52.8691V275.332H50.2852V276.371ZM54.0176 285.217V272.857H55.5352V277.67H57.4355V278.941H55.5352V285.217H54.0176ZM68.3184 272.871V282.223H66.7871V281.143H64.3672V280.076H66.7871V272.871H68.3184ZM57.9004 278.422C60.1768 278.408 63.2461 278.388 65.8711 278.053L65.9531 279.146C64.9346 279.317 63.8818 279.427 62.8359 279.502V281.881H61.3184V279.584C60.1631 279.632 59.0625 279.639 58.0918 279.639L57.9004 278.422ZM58.8438 275.51C58.8438 274.204 60.1016 273.315 61.9336 273.322C63.7314 273.315 64.9961 274.204 65.0098 275.51C64.9961 276.836 63.7314 277.677 61.9336 277.684C60.1016 277.677 58.8438 276.836 58.8438 275.51ZM59.541 284.971V281.32H61.0586V283.74H68.6055V284.971H59.541ZM60.2793 275.51C60.2793 276.18 60.9424 276.569 61.9336 276.576C62.877 276.569 63.5537 276.18 63.5605 275.51C63.5537 274.84 62.877 274.437 61.9336 274.443C60.9424 274.437 60.2793 274.84 60.2793 275.51ZM76.4668 273.65C76.4668 275.106 78.1826 276.617 80.7051 276.973L80.1309 278.176C78.1006 277.861 76.4805 276.877 75.6943 275.544C74.9014 276.891 73.2676 277.889 71.2441 278.203L70.6699 277.014C73.1924 276.638 74.9014 275.154 74.9082 273.65V273.172H76.4668V273.65ZM70.041 280.227V278.996H81.334V280.227H76.5625V282.482H75.0586V280.227H70.041ZM71.4082 284.971V281.375H72.9258V283.74H80.0898V284.971H71.4082ZM91.9434 272.857V277H93.6113V278.258H91.9434V282.51H90.4258V272.857H91.9434ZM82.0449 280.035C82.9678 280.035 84.041 280.028 85.1621 279.994V279.208C83.7881 279.037 82.9131 278.36 82.9199 277.369C82.9131 276.159 84.1094 275.441 85.9004 275.455C87.6982 275.441 88.8809 276.159 88.8809 277.369C88.8809 278.354 88.0332 279.023 86.6797 279.208V279.919C87.7324 279.857 88.792 279.762 89.7832 279.611L89.9062 280.678C87.2881 281.17 84.3418 281.204 82.209 281.225L82.0449 280.035ZM82.3594 275.045V273.938H85.1621V272.816H86.6797V273.938H89.4551V275.045H82.3594ZM83.8223 284.971V281.867H85.3398V283.74H92.3809V284.971H83.8223ZM84.3828 277.369C84.3691 277.902 84.9434 278.217 85.9004 278.217C86.8574 278.217 87.4316 277.902 87.4316 277.369C87.4316 276.788 86.8574 276.474 85.9004 276.48C84.9434 276.474 84.3691 276.788 84.3828 277.369ZM96.6602 283.029L95.5117 286.857H94.2129L94.9238 283.029H96.6602ZM111.877 272.857V285.217H110.428V272.857H111.877ZM101.008 281.102C101.343 281.102 101.726 281.095 102.129 281.095V275.537H101.254V274.293H106.914V275.537H106.039V280.944C106.422 280.917 106.784 280.883 107.119 280.842L107.229 281.977C105.321 282.305 102.785 282.353 101.186 282.359L101.008 281.102ZM103.496 281.067L104.672 281.026V275.537H103.496V281.067ZM106.627 280.062V278.818H108.008V277.561H106.627V276.303H108.008V273.117H109.416V284.602H108.008V280.062H106.627ZM123.566 272.857V285.217H122.035V272.857H123.566ZM113.326 281.812C116.566 280.274 118.057 278.183 118.33 275.373H113.955V274.17H119.875C119.875 277.848 118.446 280.972 114.119 283.029L113.326 281.812ZM136.609 277.875V279.078H131.715V280.008H135.201V283.043H128.174V283.945H135.543V285.107H126.684V281.949H133.711V281.156H126.67V280.008H130.197V279.078H125.344V277.875H136.609ZM126.766 277.096V273.24H135.16V277.096H126.766ZM128.256 275.906H133.643V274.43H128.256V275.906ZM147.67 273.773V274.512C147.656 275.353 147.656 276.583 147.369 278.148L145.865 278.012C146.111 276.74 146.159 275.79 146.173 275.031H141.367V273.773H147.67ZM140.629 279.133C141.36 279.126 142.181 279.119 143.049 279.105V276.59H144.553V279.058C145.831 279.003 147.144 278.907 148.34 278.736L148.422 279.83C145.852 280.295 142.933 280.343 140.766 280.35L140.629 279.133ZM142.475 284.971V281.293H144.006V283.74H151.02V284.971H142.475ZM149.064 282.113V272.857H150.623V276.713H152.223V277.984H150.623V282.113H149.064ZM163.16 272.857V285.23H161.656V272.857H163.16ZM153.535 275.168V273.938H159.359V278.572H155.107V281.061C157.056 281.047 158.73 280.944 160.658 280.623L160.795 281.867C158.696 282.229 156.851 282.312 154.629 282.305H153.549V277.369H157.814V275.168H153.535Z" fill="#282828"/>
<path d="M77.2393 310.857V315H78.9072V316.258H77.2393V320.51H75.7217V310.857H77.2393ZM67.3408 318.035C68.2637 318.035 69.3369 318.028 70.458 317.994V317.208C69.084 317.037 68.209 316.36 68.2158 315.369C68.209 314.159 69.4053 313.441 71.1963 313.455C72.9941 313.441 74.1768 314.159 74.1768 315.369C74.1768 316.354 73.3291 317.023 71.9756 317.208V317.919C73.0283 317.857 74.0879 317.762 75.0791 317.611L75.2021 318.678C72.584 319.17 69.6377 319.204 67.5049 319.225L67.3408 318.035ZM67.6553 313.045V311.938H70.458V310.816H71.9756V311.938H74.751V313.045H67.6553ZM69.1182 322.971V319.867H70.6357V321.74H77.6768V322.971H69.1182ZM69.6787 315.369C69.665 315.902 70.2393 316.217 71.1963 316.217C72.1533 316.217 72.7275 315.902 72.7275 315.369C72.7275 314.788 72.1533 314.474 71.1963 314.48C70.2393 314.474 69.665 314.788 69.6787 315.369ZM89.8994 310.871V318.09H88.3818V316.723H85.4424V315.492H88.3818V314.166H85.5586C84.7793 316.128 82.9746 317.502 80.2881 318.254L79.6729 317.051C82.5645 316.271 84.1094 314.802 84.3418 312.963H80.3291V311.732H86.0029C86.0029 312.163 85.9688 312.573 85.9004 312.963H88.3818V310.871H89.8994ZM81.6143 320.688C81.6143 319.17 83.2754 318.233 85.8115 318.227C88.3135 318.233 89.9814 319.17 89.9814 320.688C89.9814 322.205 88.3135 323.155 85.8115 323.148C83.2754 323.155 81.6143 322.205 81.6143 320.688ZM83.1318 320.688C83.1318 321.501 84.1504 321.945 85.8115 321.945C87.4453 321.945 88.457 321.501 88.4639 320.688C88.457 319.86 87.4453 319.416 85.8115 319.416C84.1504 319.416 83.1318 319.86 83.1318 320.688ZM93.7275 311.5V313.182H96.4893V311.5H97.9932V313.756H100.481V310.857H101.999V317.611H100.481V315.014H97.9932V317.229H92.21V311.5H93.7275ZM93.7275 315.998H96.4893V314.357H93.7275V315.998ZM93.8506 323.039V318.158H95.3682V319.416H100.481V318.158H101.999V323.039H93.8506ZM95.3682 321.809H100.481V320.592H95.3682V321.809ZM113.524 311.582V312.443C113.518 313.51 113.518 314.925 113.176 316.928H115.015V318.158H112.226V323.203H110.722V318.158H107.96V323.203H106.429V318.158H103.749V316.928H111.645C111.986 315.164 112.027 313.838 112.034 312.826H105.13V311.582H113.524ZM129.425 311.418V312.635H125.843C125.979 313.804 127.49 314.911 129.876 315.191L129.302 316.395C127.087 316.128 125.453 315.15 124.79 313.817C124.127 315.144 122.507 316.128 120.292 316.395L119.731 315.191C122.117 314.911 123.607 313.797 123.751 312.635H120.196V311.418H129.425ZM119.157 318.309V317.078H130.45V318.309H125.679V320.564H124.175V318.309H119.157ZM120.524 322.971V319.43H122.042V321.74H129.206V322.971H120.524ZM137.71 311.883C137.703 313.435 139.446 315.014 142.085 315.355L141.483 316.586C139.385 316.271 137.717 315.239 136.91 313.845C136.104 315.239 134.442 316.271 132.364 316.586L131.763 315.355C134.374 315.014 136.11 313.448 136.11 311.883V311.254H137.71V311.883ZM131.271 318.91V317.652H142.536V318.91H137.628V323.217H136.124V318.91H131.271Z" fill="#282828"/>
<rect x="0.326707" y="124.327" width="209.347" height="271.347" rx="15.6733" stroke="#E1E6EF" stroke-width="0.653415"/>
<rect x="222" width="210" height="114" rx="18.4113" fill="#4B84F0"/>
<path d="M312.507 38.242C312.507 36.514 314.307 35.578 316.557 35.578C318.807 35.578 320.607 36.514 320.607 38.242V38.512C320.607 39.898 319.455 40.816 317.835 41.122V42.148C319.059 42.094 320.229 41.986 321.633 41.734V43.48C319.077 43.84 316.305 43.948 313.533 43.948H311.355V42.184H315.315V41.122C313.677 40.834 312.507 39.916 312.507 38.512V38.242ZM324.747 32.23V37.72H327.231L326.871 39.628H324.747V44.722L322.263 45.082V32.59L324.747 32.23ZM324.837 48.628H314.145V44.578H316.629V46.828H325.197L324.837 48.628ZM320.985 35.254H311.949V33.562H315.387V32.428L317.871 32.068V33.562H321.345L320.985 35.254ZM318.267 38.314C318.267 37.72 317.547 37.27 316.557 37.27C315.567 37.27 314.847 37.72 314.847 38.314V38.44C314.847 39.016 315.567 39.538 316.557 39.538C317.547 39.538 318.267 39.016 318.267 38.44V38.314ZM339.132 42.346V40.168H335.892V38.368H339.132V36.658H336.36C335.118 39.34 331.986 41.554 329.052 42.436L327.882 40.87C331.464 39.88 334.326 36.982 334.326 35.092V34.84H328.818V33.04H336.918V34.282C336.918 34.48 336.9 34.678 336.882 34.858H339.132V32.59L341.58 32.23V41.986L339.132 42.346ZM337.89 42.454C339.852 42.454 341.634 43.246 341.634 45.676C341.634 48.124 339.852 48.916 337.89 48.916H334.038C332.004 48.916 330.186 48.124 330.186 45.676C330.186 43.246 332.004 42.454 334.038 42.454H337.89ZM337.656 44.236H334.236C333.264 44.236 332.598 44.632 332.598 45.676C332.598 46.738 333.264 47.134 334.236 47.134H337.656C338.556 47.134 339.222 46.738 339.222 45.676C339.222 44.632 338.556 44.236 337.656 44.236Z" fill="white"/>
<path d="M270.797 68.64V71.44H274.557V73.216H270.797V76.176H275.037V78H268.557V66.816H275.037V68.64H270.797ZM281.985 69.008C283.041 69.008 283.894 69.344 284.545 70.016C285.195 70.6773 285.521 71.6053 285.521 72.8V78H283.281V73.104C283.281 72.4 283.105 71.8613 282.753 71.488C282.401 71.104 281.921 70.912 281.313 70.912C280.694 70.912 280.203 71.104 279.841 71.488C279.489 71.8613 279.313 72.4 279.313 73.104V78H277.073V69.136H279.313V70.24C279.611 69.856 279.99 69.5573 280.449 69.344C280.918 69.12 281.43 69.008 281.985 69.008ZM291.347 75.936L293.587 69.136H295.971L292.691 78H289.971L286.707 69.136H289.107L291.347 75.936ZM298.365 68.08C297.97 68.08 297.64 67.9573 297.373 67.712C297.117 67.456 296.989 67.1413 296.989 66.768C296.989 66.3947 297.117 66.0853 297.373 65.84C297.64 65.584 297.97 65.456 298.365 65.456C298.76 65.456 299.085 65.584 299.341 65.84C299.608 66.0853 299.741 66.3947 299.741 66.768C299.741 67.1413 299.608 67.456 299.341 67.712C299.085 67.9573 298.76 68.08 298.365 68.08ZM299.469 69.136V78H297.229V69.136H299.469ZM303.922 70.512C304.21 70.0427 304.583 69.6747 305.042 69.408C305.511 69.1413 306.045 69.008 306.642 69.008V71.36H306.05C305.346 71.36 304.813 71.5253 304.45 71.856C304.098 72.1867 303.922 72.7627 303.922 73.584V78H301.682V69.136H303.922V70.512ZM312.087 78.144C311.234 78.144 310.466 77.9573 309.783 77.584C309.1 77.2 308.562 76.6613 308.167 75.968C307.783 75.2747 307.591 74.4747 307.591 73.568C307.591 72.6613 307.788 71.8613 308.183 71.168C308.588 70.4747 309.138 69.9413 309.831 69.568C310.524 69.184 311.298 68.992 312.151 68.992C313.004 68.992 313.778 69.184 314.471 69.568C315.164 69.9413 315.708 70.4747 316.103 71.168C316.508 71.8613 316.711 72.6613 316.711 73.568C316.711 74.4747 316.503 75.2747 316.087 75.968C315.682 76.6613 315.127 77.2 314.423 77.584C313.73 77.9573 312.951 78.144 312.087 78.144ZM312.087 76.192C312.492 76.192 312.871 76.096 313.223 75.904C313.586 75.7013 313.874 75.4027 314.087 75.008C314.3 74.6133 314.407 74.1333 314.407 73.568C314.407 72.7253 314.183 72.08 313.735 71.632C313.298 71.1733 312.759 70.944 312.119 70.944C311.479 70.944 310.94 71.1733 310.503 71.632C310.076 72.08 309.863 72.7253 309.863 73.568C309.863 74.4107 310.071 75.0613 310.487 75.52C310.914 75.968 311.447 76.192 312.087 76.192ZM323.266 69.008C324.322 69.008 325.175 69.344 325.826 70.016C326.477 70.6773 326.802 71.6053 326.802 72.8V78H324.562V73.104C324.562 72.4 324.386 71.8613 324.034 71.488C323.682 71.104 323.202 70.912 322.594 70.912C321.975 70.912 321.485 71.104 321.122 71.488C320.77 71.8613 320.594 72.4 320.594 73.104V78H318.354V69.136H320.594V70.24C320.893 69.856 321.271 69.5573 321.73 69.344C322.199 69.12 322.711 69.008 323.266 69.008ZM339.94 69.008C341.028 69.008 341.903 69.344 342.564 70.016C343.236 70.6773 343.572 71.6053 343.572 72.8V78H341.332V73.104C341.332 72.4107 341.156 71.8827 340.804 71.52C340.452 71.1467 339.972 70.96 339.364 70.96C338.756 70.96 338.271 71.1467 337.908 71.52C337.556 71.8827 337.38 72.4107 337.38 73.104V78H335.14V73.104C335.14 72.4107 334.964 71.8827 334.612 71.52C334.26 71.1467 333.78 70.96 333.172 70.96C332.553 70.96 332.063 71.1467 331.7 71.52C331.348 71.8827 331.172 72.4107 331.172 73.104V78H328.932V69.136H331.172V70.208C331.46 69.8347 331.828 69.5413 332.276 69.328C332.735 69.1147 333.236 69.008 333.78 69.008C334.473 69.008 335.092 69.1573 335.636 69.456C336.18 69.744 336.601 70.16 336.9 70.704C337.188 70.192 337.604 69.7813 338.148 69.472C338.703 69.1627 339.3 69.008 339.94 69.008ZM353.938 73.376C353.938 73.696 353.916 73.984 353.874 74.24H347.394C347.447 74.88 347.671 75.3813 348.066 75.744C348.46 76.1067 348.946 76.288 349.522 76.288C350.354 76.288 350.946 75.9307 351.298 75.216H353.714C353.458 76.0693 352.967 76.7733 352.242 77.328C351.516 77.872 350.626 78.144 349.57 78.144C348.716 78.144 347.948 77.9573 347.266 77.584C346.594 77.2 346.066 76.6613 345.682 75.968C345.308 75.2747 345.122 74.4747 345.122 73.568C345.122 72.6507 345.308 71.8453 345.682 71.152C346.055 70.4587 346.578 69.9253 347.25 69.552C347.922 69.1787 348.695 68.992 349.57 68.992C350.412 68.992 351.164 69.1733 351.826 69.536C352.498 69.8987 353.015 70.416 353.378 71.088C353.751 71.7493 353.938 72.512 353.938 73.376ZM351.618 72.736C351.607 72.16 351.399 71.7013 350.994 71.36C350.588 71.008 350.092 70.832 349.506 70.832C348.951 70.832 348.482 71.0027 348.098 71.344C347.724 71.6747 347.495 72.1387 347.41 72.736H351.618ZM360.485 69.008C361.541 69.008 362.394 69.344 363.045 70.016C363.695 70.6773 364.021 71.6053 364.021 72.8V78H361.781V73.104C361.781 72.4 361.605 71.8613 361.253 71.488C360.901 71.104 360.421 70.912 359.813 70.912C359.194 70.912 358.703 71.104 358.341 71.488C357.989 71.8613 357.813 72.4 357.813 73.104V78H355.573V69.136H357.813V70.24C358.111 69.856 358.49 69.5573 358.949 69.344C359.418 69.12 359.93 69.008 360.485 69.008ZM368.759 70.976V75.264C368.759 75.5627 368.828 75.7813 368.967 75.92C369.116 76.048 369.362 76.112 369.703 76.112H370.743V78H369.335C367.447 78 366.503 77.0827 366.503 75.248V70.976H365.447V69.136H366.503V66.944H368.759V69.136H370.743V70.976H368.759ZM371.778 73.536C371.778 72.64 371.954 71.8453 372.306 71.152C372.669 70.4587 373.154 69.9253 373.762 69.552C374.381 69.1787 375.069 68.992 375.826 68.992C376.487 68.992 377.063 69.1253 377.554 69.392C378.055 69.6587 378.455 69.9947 378.754 70.4V69.136H381.01V78H378.754V76.704C378.466 77.12 378.066 77.4667 377.554 77.744C377.053 78.0107 376.471 78.144 375.81 78.144C375.063 78.144 374.381 77.952 373.762 77.568C373.154 77.184 372.669 76.6453 372.306 75.952C371.954 75.248 371.778 74.4427 371.778 73.536ZM378.754 73.568C378.754 73.024 378.647 72.56 378.434 72.176C378.221 71.7813 377.933 71.4827 377.57 71.28C377.207 71.0667 376.818 70.96 376.402 70.96C375.986 70.96 375.602 71.0613 375.25 71.264C374.898 71.4667 374.61 71.7653 374.386 72.16C374.173 72.544 374.066 73.0027 374.066 73.536C374.066 74.0693 374.173 74.5387 374.386 74.944C374.61 75.3387 374.898 75.6427 375.25 75.856C375.613 76.0693 375.997 76.176 376.402 76.176C376.818 76.176 377.207 76.0747 377.57 75.872C377.933 75.6587 378.221 75.36 378.434 74.976C378.647 74.5813 378.754 74.112 378.754 73.568ZM385.438 66.16V78H383.198V66.16H385.438Z" fill="white"/>
<rect x="222.327" y="124.327" width="209.347" height="271.347" rx="15.6733" fill="white"/>
<path d="M278.273 158.871V167.799H276.742V158.871H278.273ZM268.197 162.768C268.197 160.97 269.653 159.685 271.533 159.678C273.413 159.685 274.862 160.97 274.855 162.768C274.862 164.593 273.413 165.871 271.533 165.871C269.653 165.871 268.197 164.593 268.197 162.768ZM269.688 162.768C269.681 163.861 270.474 164.545 271.533 164.545C272.565 164.545 273.365 163.861 273.365 162.768C273.365 161.701 272.565 161.004 271.533 161.004C270.474 161.004 269.681 161.701 269.688 162.768ZM270.098 170.971V166.896H271.629V169.74H278.615V170.971H270.098ZM290.523 158.871V168.182H288.979V166.691H286.463V165.488H288.979V158.871H290.523ZM279.996 163.615C281.5 163.608 283.366 163.588 285.219 163.479C285.41 162.33 285.465 161.414 285.485 160.744H281.117V159.527H287.01V159.992C287.01 160.642 287.01 161.79 286.757 163.355C287.188 163.314 287.611 163.26 288.021 163.205L288.131 164.285C287.064 164.47 285.964 164.593 284.877 164.675V167.389H283.373V164.764C282.225 164.818 281.138 164.832 280.188 164.832L279.996 163.615ZM281.76 170.971V167.197H283.277V169.74H290.811V170.971H281.76ZM302.527 158.871V166.09H301.01V164.723H298.07V163.492H301.01V162.166H298.187C297.407 164.128 295.603 165.502 292.916 166.254L292.301 165.051C295.192 164.271 296.737 162.802 296.97 160.963H292.957V159.732H298.631C298.631 160.163 298.597 160.573 298.528 160.963H301.01V158.871H302.527ZM294.242 168.688C294.242 167.17 295.903 166.233 298.439 166.227C300.941 166.233 302.609 167.17 302.609 168.688C302.609 170.205 300.941 171.155 298.439 171.148C295.903 171.155 294.242 170.205 294.242 168.688ZM295.76 168.688C295.76 169.501 296.778 169.945 298.439 169.945C300.073 169.945 301.085 169.501 301.092 168.688C301.085 167.86 300.073 167.416 298.439 167.416C296.778 167.416 295.76 167.86 295.76 168.688ZM307.709 159.555C308.707 159.548 309.575 159.917 310.156 160.539H313.109V158.857H314.627V166.131H313.109V164.559H310.149C309.562 165.167 308.7 165.536 307.709 165.529C305.843 165.536 304.441 164.285 304.441 162.549C304.441 160.799 305.843 159.548 307.709 159.555ZM305.891 162.549C305.891 163.561 306.649 164.244 307.709 164.244C308.734 164.244 309.493 163.561 309.5 162.549C309.493 161.503 308.734 160.854 307.709 160.854C306.649 160.854 305.891 161.503 305.891 162.549ZM306.246 168.797C306.232 167.272 307.853 166.384 310.443 166.391C313.041 166.384 314.661 167.272 314.668 168.797C314.661 170.314 313.041 171.203 310.443 171.203C307.853 171.203 306.232 170.314 306.246 168.797ZM307.736 168.797C307.723 169.583 308.728 170.007 310.443 170.014C312.193 170.007 313.178 169.583 313.178 168.797C313.178 167.99 312.193 167.56 310.443 167.553C308.728 167.56 307.723 167.99 307.736 168.797ZM310.84 161.756C310.908 162.009 310.949 162.269 310.949 162.549C310.949 162.822 310.908 163.082 310.847 163.328H313.109V161.756H310.84ZM329.475 159.582V160.443C329.468 161.51 329.468 162.925 329.126 164.928H330.965V166.158H328.176V171.203H326.672V166.158H323.91V171.203H322.379V166.158H319.699V164.928H327.595C327.937 163.164 327.978 161.838 327.984 160.826H321.08V159.582H329.475ZM342.148 158.857V166.199H340.631V163.178H338.525V161.934H340.631V158.857H342.148ZM331.758 164.969C333.747 164.285 334.793 162.624 334.793 160.99V160.895H332.223V159.664H338.895V160.895H336.338V160.977C336.338 162.48 337.336 163.998 339.25 164.641L338.484 165.844C337.11 165.379 336.14 164.436 335.593 163.273C335.053 164.586 334.021 165.652 332.551 166.172L331.758 164.969ZM333.768 168.865C333.754 167.382 335.36 166.514 337.965 166.514C340.583 166.514 342.183 167.382 342.189 168.865C342.183 170.349 340.583 171.21 337.965 171.217C335.36 171.21 333.754 170.349 333.768 168.865ZM335.271 168.865C335.265 169.631 336.249 170.048 337.965 170.041C339.694 170.048 340.672 169.631 340.672 168.865C340.672 168.093 339.694 167.676 337.965 167.676C336.249 167.676 335.265 168.093 335.271 168.865ZM353.811 159.623V164.764H347.85V159.623H353.811ZM348.588 170.014C350.96 169.809 352.478 168.756 352.614 167.771H349.094V166.623H352.648V165.543H354.18V166.623H357.748V167.771H354.221C354.357 168.729 355.848 169.774 358.213 170.014L357.693 171.176C355.69 170.964 354.173 170.178 353.421 169.152C352.662 170.191 351.124 170.957 349.107 171.176L348.588 170.014ZM349.354 163.574H352.307V160.826H349.354V163.574ZM355.984 165.898V158.857H357.488V165.898H355.984ZM372.924 158.857V171.23H371.393V158.857H372.924ZM363.039 164.121C363.032 161.455 364.393 159.76 366.266 159.76C368.118 159.76 369.485 161.455 369.492 164.121C369.485 166.808 368.118 168.496 366.266 168.496C364.393 168.496 363.032 166.808 363.039 164.121ZM364.502 164.121C364.502 166.021 365.22 167.122 366.266 167.129C367.305 167.122 368.016 166.021 368.016 164.121C368.016 162.234 367.305 161.127 366.266 161.127C365.22 161.127 364.502 162.234 364.502 164.121ZM385.311 158.857V166.623H383.861V163.26H382.658V166.213H381.236V159.104H382.658V162.029H383.861V158.857H385.311ZM374.674 161.387V160.197H377.012V158.967H378.516V160.197H380.826V161.387H374.674ZM375.111 164.025C375.098 162.74 376.219 161.886 377.764 161.893C379.336 161.886 380.443 162.74 380.457 164.025C380.443 165.311 379.336 166.158 377.764 166.158C376.219 166.158 375.098 165.311 375.111 164.025ZM376.465 164.025C376.465 164.661 376.991 165.064 377.764 165.064C378.543 165.064 379.076 164.661 379.076 164.025C379.076 163.39 378.543 162.986 377.764 162.986C376.991 162.986 376.465 163.39 376.465 164.025ZM376.902 169.002C376.896 167.58 378.495 166.78 381.141 166.773C383.779 166.78 385.372 167.58 385.379 169.002C385.372 170.396 383.779 171.203 381.141 171.203C378.495 171.203 376.896 170.396 376.902 169.002ZM378.42 169.002C378.413 169.679 379.377 170.048 381.141 170.041C382.897 170.048 383.841 169.679 383.848 169.002C383.841 168.284 382.897 167.922 381.141 167.936C379.377 167.922 378.413 168.284 378.42 169.002Z" fill="#282828"/>
<path d="M293.312 197.568V198.594C293.319 199.633 293.319 200.829 293.032 202.395H294.693V203.639H283.4V202.395H291.487C291.774 200.904 291.795 199.804 291.795 198.799H284.795V197.568H293.312ZM284.863 208.957V204.814H286.367V207.727H293.668V208.957H284.863ZM306.793 206.523V207.781H295.5V206.523H300.367V204.514H296.84V200.467H303.949V198.936H296.812V197.705H305.453V201.67H298.357V203.27H305.74V204.514H301.871V206.523H306.793ZM317.922 196.857V209.217H316.391V196.857H317.922ZM307.682 205.812C310.922 204.274 312.412 202.183 312.686 199.373H308.311V198.17H314.23C314.23 201.848 312.802 204.972 308.475 207.029L307.682 205.812ZM329.953 197.418V198.635H326.371C326.508 199.804 328.019 200.911 330.404 201.191L329.83 202.395C327.615 202.128 325.981 201.15 325.318 199.817C324.655 201.144 323.035 202.128 320.82 202.395L320.26 201.191C322.646 200.911 324.136 199.797 324.279 198.635H320.725V197.418H329.953ZM319.686 204.309V203.078H330.979V204.309H326.207V206.564H324.703V204.309H319.686ZM321.053 208.971V205.43H322.57V207.74H329.734V208.971H321.053ZM333.877 197.5V199.182H336.639V197.5H338.143V199.756H340.631V196.857H342.148V203.611H340.631V201.014H338.143V203.229H332.359V197.5H333.877ZM333.877 201.998H336.639V200.357H333.877V201.998ZM334 209.039V204.158H335.518V205.416H340.631V204.158H342.148V209.039H334ZM335.518 207.809H340.631V206.592H335.518V207.809ZM357.475 197.418V198.635H353.893C354.029 199.804 355.54 200.911 357.926 201.191L357.352 202.395C355.137 202.128 353.503 201.15 352.84 199.817C352.177 201.144 350.557 202.128 348.342 202.395L347.781 201.191C350.167 200.911 351.657 199.797 351.801 198.635H348.246V197.418H357.475ZM347.207 204.309V203.078H358.5V204.309H353.729V206.564H352.225V204.309H347.207ZM348.574 208.971V205.43H350.092V207.74H357.256V208.971H348.574ZM365.76 197.883C365.753 199.435 367.496 201.014 370.135 201.355L369.533 202.586C367.435 202.271 365.767 201.239 364.96 199.845C364.153 201.239 362.492 202.271 360.414 202.586L359.812 201.355C362.424 201.014 364.16 199.448 364.16 197.883V197.254H365.76V197.883ZM359.32 204.91V203.652H370.586V204.91H365.678V209.217H364.174V204.91H359.32Z" fill="#282828"/>
<path d="M293.88 237.045C293.866 238.665 294.892 240.217 296.833 240.846L296.04 242.049C294.673 241.584 293.695 240.654 293.155 239.465C292.608 240.777 291.59 241.803 290.147 242.309L289.3 241.105C291.33 240.442 292.349 238.788 292.349 237.031V235.623H293.88V237.045ZM291.282 246.971V243.047H292.841V245.74H299.69V246.971H291.282ZM297.681 243.936V234.857H299.198V238.508H300.921V239.793H299.198V243.936H297.681ZM304.981 235.404C306.581 235.397 307.839 236.32 308.146 237.674H310.382V234.857H311.899V241.488H310.382V238.904H308.16C307.866 240.292 306.595 241.229 304.981 241.229C303.088 241.229 301.714 240.012 301.714 238.303C301.714 236.614 303.088 235.397 304.981 235.404ZM303.163 238.303C303.163 239.294 303.915 239.95 304.981 239.943C306.021 239.95 306.766 239.294 306.772 238.303C306.766 237.312 306.021 236.669 304.981 236.676C303.915 236.669 303.163 237.312 303.163 238.303ZM303.751 247.066V242.062H305.255V243.375H310.382V242.062H311.899V247.066H303.751ZM305.255 245.836H310.382V244.551H305.255V245.836ZM326.72 234.857V238.48H328.442V239.738H326.72V243.895H325.202V234.857H326.72ZM317.108 238.795C317.102 236.97 318.564 235.685 320.444 235.678C322.324 235.685 323.767 236.97 323.78 238.795C323.767 240.593 322.324 241.898 320.444 241.898C318.564 241.898 317.102 240.593 317.108 238.795ZM318.599 238.795C318.592 239.861 319.412 240.565 320.444 240.559C321.49 240.565 322.283 239.861 322.29 238.795C322.283 237.701 321.49 237.004 320.444 237.004C319.412 237.004 318.592 237.701 318.599 238.795ZM318.804 246.971V242.951H320.321V245.74H327.212V246.971H318.804ZM339.421 234.871V243.895H337.903V239.369H335.716V238.139H337.903V234.871H339.421ZM329.044 241.229C331.013 240.579 332.065 238.966 332.065 237.318V236.99H329.495V235.76H336.167V236.99H333.61V237.332C333.61 238.815 334.608 240.354 336.522 240.982L335.757 242.199C334.376 241.728 333.398 240.784 332.858 239.615C332.318 240.914 331.286 241.953 329.823 242.459L329.044 241.229ZM331.313 246.971V243.102H332.831V245.74H339.735V246.971H331.313ZM352.464 244.482V245.727H341.171V244.482H346.038V242.076H342.415V235.678H343.933V237.701H349.661V235.678H351.179V242.076H347.542V244.482H352.464ZM343.933 240.846H349.661V238.918H343.933V240.846ZM363.62 234.871V243.936H362.103V239.779H359.724V238.521H362.103V234.871H363.62ZM353.435 241.42C356.094 240.579 357.851 239 358.145 237.045H354.077V235.801H359.806C359.806 239.062 357.652 241.495 354.077 242.637L353.435 241.42ZM355.567 246.971V243.02H357.112V245.74H363.935V246.971H355.567Z" fill="#282828"/>
<path d="M301.721 272.857V285.217H300.258V278.873H298.932V284.643H297.51V273.186H298.932V277.643H300.258V272.857H301.721ZM291.016 281.58C293.647 280.062 294.762 278.107 294.98 275.633H291.59V274.416H296.457C296.457 277.759 295.404 280.63 291.891 282.633L291.016 281.58ZM313.506 272.871V281.799H311.975V272.871H313.506ZM303.43 276.768C303.43 274.97 304.886 273.685 306.766 273.678C308.646 273.685 310.095 274.97 310.088 276.768C310.095 278.593 308.646 279.871 306.766 279.871C304.886 279.871 303.43 278.593 303.43 276.768ZM304.92 276.768C304.913 277.861 305.706 278.545 306.766 278.545C307.798 278.545 308.598 277.861 308.598 276.768C308.598 275.701 307.798 275.004 306.766 275.004C305.706 275.004 304.913 275.701 304.92 276.768ZM305.33 284.971V280.896H306.861V283.74H313.848V284.971H305.33ZM325.66 272.857V280.199H324.143V277.178H322.037V275.934H324.143V272.857H325.66ZM315.27 278.969C317.259 278.285 318.305 276.624 318.305 274.99V274.895H315.734V273.664H322.406V274.895H319.85V274.977C319.85 276.48 320.848 277.998 322.762 278.641L321.996 279.844C320.622 279.379 319.651 278.436 319.104 277.273C318.564 278.586 317.532 279.652 316.062 280.172L315.27 278.969ZM317.279 282.865C317.266 281.382 318.872 280.514 321.477 280.514C324.095 280.514 325.694 281.382 325.701 282.865C325.694 284.349 324.095 285.21 321.477 285.217C318.872 285.21 317.266 284.349 317.279 282.865ZM318.783 282.865C318.776 283.631 319.761 284.048 321.477 284.041C323.206 284.048 324.184 283.631 324.184 282.865C324.184 282.093 323.206 281.676 321.477 281.676C319.761 281.676 318.776 282.093 318.783 282.865ZM338.703 282.482V283.727H327.41V282.482H332.277V280.076H328.654V273.678H330.172V275.701H335.9V273.678H337.418V280.076H333.781V282.482H338.703ZM330.172 278.846H335.9V276.918H330.172V278.846ZM350.803 282.482V283.727H339.51V282.482H344.377V280.076H340.754V273.678H342.271V275.701H348V273.678H349.518V280.076H345.881V282.482H350.803ZM342.271 278.846H348V276.918H342.271V278.846ZM362.328 274.512V275.742H352.115V274.512H356.477V273.021H357.98V274.512H362.328ZM351.609 283.891V282.66H356.477V281.143C354.344 280.979 353.052 280.117 353.059 278.75C353.052 277.26 354.651 276.371 357.229 276.371C359.771 276.371 361.392 277.26 361.385 278.75C361.392 280.11 360.086 280.972 357.98 281.143V282.66H362.902V283.891H351.609ZM354.617 278.75C354.61 279.543 355.547 279.946 357.229 279.953C358.876 279.946 359.826 279.543 359.826 278.75C359.826 277.971 358.876 277.567 357.229 277.561C355.547 277.567 354.61 277.971 354.617 278.75Z" fill="#282828"/>
<path d="M273.42 318.582C276.106 318.589 277.802 319.437 277.809 320.906C277.802 322.342 276.106 323.203 273.42 323.203C270.761 323.203 269.045 322.342 269.045 320.906C269.045 319.437 270.761 318.589 273.42 318.582ZM267.883 317.693V316.463H272.23V314.221H273.734V316.463H279.094V317.693H267.883ZM269.168 312.648V311.445H277.727V312.471C277.733 313.448 277.733 314.487 277.385 315.752L275.881 315.615C276.188 314.419 276.209 313.544 276.209 312.648H269.168ZM270.576 320.906C270.562 321.631 271.636 322.027 273.42 322.027C275.211 322.027 276.291 321.631 276.305 320.906C276.291 320.154 275.211 319.73 273.42 319.73C271.636 319.73 270.562 320.154 270.576 320.906ZM290.305 310.857V318.199H288.787V315.178H286.682V313.934H288.787V310.857H290.305ZM279.914 316.969C281.903 316.285 282.949 314.624 282.949 312.99V312.895H280.379V311.664H287.051V312.895H284.494V312.977C284.494 314.48 285.492 315.998 287.406 316.641L286.641 317.844C285.267 317.379 284.296 316.436 283.749 315.273C283.209 316.586 282.177 317.652 280.707 318.172L279.914 316.969ZM281.924 320.865C281.91 319.382 283.517 318.514 286.121 318.514C288.739 318.514 290.339 319.382 290.346 320.865C290.339 322.349 288.739 323.21 286.121 323.217C283.517 323.21 281.91 322.349 281.924 320.865ZM283.428 320.865C283.421 321.631 284.405 322.048 286.121 322.041C287.851 322.048 288.828 321.631 288.828 320.865C288.828 320.093 287.851 319.676 286.121 319.676C284.405 319.676 283.421 320.093 283.428 320.865ZM302.404 310.871V318.09H300.887V316.723H297.947V315.492H300.887V314.166H298.063C297.284 316.128 295.479 317.502 292.793 318.254L292.178 317.051C295.069 316.271 296.614 314.802 296.847 312.963H292.834V311.732H298.508C298.508 312.163 298.474 312.573 298.405 312.963H300.887V310.871H302.404ZM294.119 320.688C294.119 319.17 295.78 318.233 298.316 318.227C300.818 318.233 302.486 319.17 302.486 320.688C302.486 322.205 300.818 323.155 298.316 323.148C295.78 323.155 294.119 322.205 294.119 320.688ZM295.637 320.688C295.637 321.501 296.655 321.945 298.316 321.945C299.95 321.945 300.962 321.501 300.969 320.688C300.962 319.86 299.95 319.416 298.316 319.416C296.655 319.416 295.637 319.86 295.637 320.688ZM307.955 313.305C307.948 314.727 308.666 315.984 310.238 316.586L309.445 317.762C308.386 317.345 307.668 316.6 307.244 315.656C306.807 316.729 306.027 317.604 304.879 318.076L304.059 316.9C305.727 316.217 306.492 314.774 306.492 313.305V313.031H304.414V311.814H309.951V313.031H307.955V313.305ZM306.314 320.893C306.308 319.457 307.948 318.603 310.553 318.596C313.137 318.603 314.784 319.457 314.791 320.893C314.784 322.335 313.137 323.203 310.553 323.203C307.948 323.203 306.308 322.335 306.314 320.893ZM307.832 320.893C307.825 321.645 308.837 322.027 310.553 322.027C312.241 322.027 313.253 321.645 313.26 320.893C313.253 320.175 312.241 319.758 310.553 319.758C308.837 319.758 307.825 320.175 307.832 320.893ZM310.648 317.994V311.104H312.084V313.961H313.273V310.871H314.723V318.377H313.273V315.205H312.084V317.994H310.648ZM318.66 321.029L317.512 324.857H316.213L316.924 321.029H318.66ZM328.709 318.582C331.396 318.589 333.091 319.437 333.098 320.906C333.091 322.342 331.396 323.203 328.709 323.203C326.05 323.203 324.334 322.342 324.334 320.906C324.334 319.437 326.05 318.589 328.709 318.582ZM323.172 317.693V316.463H327.52V314.221H329.023V316.463H334.383V317.693H323.172ZM324.457 312.648V311.445H333.016V312.471C333.022 313.448 333.022 314.487 332.674 315.752L331.17 315.615C331.478 314.419 331.498 313.544 331.498 312.648H324.457ZM325.865 320.906C325.852 321.631 326.925 322.027 328.709 322.027C330.5 322.027 331.58 321.631 331.594 320.906C331.58 320.154 330.5 319.73 328.709 319.73C326.925 319.73 325.852 320.154 325.865 320.906ZM338.129 317.898V319.32H343.611V317.898H345.115V323.066H336.639V317.898H338.129ZM335.244 316.982V315.766H343.352C343.611 314.46 343.639 313.476 343.639 312.607H336.639V311.391H345.156V312.348C345.163 313.291 345.163 314.316 344.855 315.766H346.537V316.982H335.244ZM338.129 321.836H343.611V320.496H338.129V321.836ZM353.619 311.773V317.215H347.768V311.773H353.619ZM348.889 320.811C348.889 319.32 350.516 318.418 353.072 318.418C355.608 318.418 357.208 319.32 357.215 320.811C357.208 322.328 355.608 323.21 353.072 323.217C350.516 323.21 348.889 322.328 348.889 320.811ZM349.258 315.984H352.129V312.977H349.258V315.984ZM350.406 320.811C350.406 321.604 351.377 322 353.072 322C354.761 322 355.711 321.604 355.711 320.811C355.711 320.052 354.761 319.635 353.072 319.635C351.377 319.635 350.406 320.052 350.406 320.811ZM355.574 318.062V310.857H357.092V313.756H358.814V314.986H357.092V318.062H355.574ZM369.67 311.773V312.512C369.656 313.353 369.656 314.583 369.369 316.148L367.865 316.012C368.111 314.74 368.159 313.79 368.173 313.031H363.367V311.773H369.67ZM362.629 317.133C363.36 317.126 364.181 317.119 365.049 317.105V314.59H366.553V317.058C367.831 317.003 369.144 316.907 370.34 316.736L370.422 317.83C367.852 318.295 364.933 318.343 362.766 318.35L362.629 317.133ZM364.475 322.971V319.293H366.006V321.74H373.02V322.971H364.475ZM371.064 320.113V310.857H372.623V314.713H374.223V315.984H372.623V320.113H371.064ZM385.16 310.857V323.23H383.656V310.857H385.16ZM375.535 313.168V311.938H381.359V316.572H377.107V319.061C379.056 319.047 380.73 318.944 382.658 318.623L382.795 319.867C380.696 320.229 378.851 320.312 376.629 320.305H375.549V315.369H379.814V313.168H375.535Z" fill="#282828"/>
<path d="M294.112 352.371C294.112 354.395 295.302 356.527 297.298 357.361L296.464 358.564C295.001 357.929 293.935 356.637 293.367 355.064C292.8 356.76 291.713 358.182 290.271 358.865L289.396 357.676C291.344 356.773 292.561 354.47 292.567 352.371V351.332H289.847V350.074H296.819V351.332H294.112V352.371ZM298.2 361.217V348.857H299.731V361.217H298.2ZM311.899 356.746V361.217H310.382V357.949H303.478V356.746H311.899ZM301.714 352.535C301.714 350.785 303.115 349.527 304.981 349.541C306 349.534 306.889 349.917 307.47 350.566H310.382V348.857H311.899V356.158H310.382V354.518H307.483C306.896 355.174 306.007 355.57 304.981 355.57C303.115 355.57 301.714 354.312 301.714 352.535ZM303.163 352.535C303.163 353.608 303.922 354.278 304.981 354.285C305.993 354.278 306.766 353.608 306.772 352.535C306.766 351.503 305.993 350.819 304.981 350.826C303.922 350.819 303.163 351.503 303.163 352.535ZM308.126 353.287H310.382V351.811H308.133C308.188 352.043 308.222 352.282 308.222 352.535C308.222 352.795 308.188 353.048 308.126 353.287ZM318.065 351.824C318.052 354.032 319.159 356.261 321.073 357.184L320.144 358.4C318.804 357.724 317.84 356.418 317.313 354.846C316.773 356.527 315.762 357.922 314.347 358.633L313.417 357.416C315.406 356.473 316.541 354.107 316.548 351.824V349.855H318.065V351.824ZM321.812 361.217V348.857H323.329V353.697H325.229V354.996H323.329V361.217H321.812ZM336.044 348.857V361.217H334.526V348.857H336.044ZM325.804 357.785C326.788 357.778 327.902 357.778 329.071 357.744V356.609C327.684 356.391 326.774 355.543 326.774 354.367C326.774 352.973 328.012 352.05 329.81 352.043C331.628 352.05 332.886 352.973 332.886 354.367C332.886 355.536 331.977 356.377 330.589 356.603V357.689C331.676 357.642 332.77 357.553 333.802 357.416L333.911 358.551C331.197 359.009 328.244 359.043 326.022 359.043L325.804 357.785ZM326.063 351.482V350.279H329.071V348.898H330.589V350.279H333.583V351.482H326.063ZM328.224 354.367C328.21 355.078 328.873 355.495 329.81 355.488C330.773 355.495 331.43 355.078 331.423 354.367C331.43 353.649 330.773 353.212 329.81 353.205C328.873 353.212 328.21 353.649 328.224 354.367ZM346.735 356.582C349.422 356.589 351.117 357.437 351.124 358.906C351.117 360.342 349.422 361.203 346.735 361.203C344.076 361.203 342.36 360.342 342.36 358.906C342.36 357.437 344.076 356.589 346.735 356.582ZM341.198 355.693V354.463H345.546V352.221H347.05V354.463H352.409V355.693H341.198ZM342.483 350.648V349.445H351.042V350.471C351.049 351.448 351.049 352.487 350.7 353.752L349.196 353.615C349.504 352.419 349.524 351.544 349.524 350.648H342.483ZM343.892 358.906C343.878 359.631 344.951 360.027 346.735 360.027C348.526 360.027 349.606 359.631 349.62 358.906C349.606 358.154 348.526 357.73 346.735 357.73C344.951 357.73 343.878 358.154 343.892 358.906ZM363.62 348.871V358.182H362.103V354.285H360.284V353.055H362.103V348.871H363.62ZM353.298 351.455V350.238H356.169V348.857H357.673V350.238H360.544V351.455H353.298ZM353.995 354.326C353.988 352.932 355.212 351.961 356.921 351.961C358.616 351.961 359.854 352.932 359.86 354.326C359.854 355.707 358.616 356.664 356.921 356.664C355.212 356.664 353.988 355.707 353.995 354.326ZM355.444 354.326C355.444 355.058 356.053 355.495 356.921 355.488C357.782 355.495 358.397 355.058 358.397 354.326C358.397 353.595 357.782 353.137 356.921 353.137C356.046 353.137 355.444 353.595 355.444 354.326ZM355.472 360.971V357.375H357.017V359.74H363.894V360.971H355.472Z" fill="#282828"/>
<rect x="222.327" y="124.327" width="209.347" height="271.347" rx="15.6733" stroke="#E1E6EF" stroke-width="0.653415"/>
<rect x="444" width="210" height="114" rx="18.4113" fill="#8962DD"/>
<path d="M523.632 35.182H518.052V33.4H526.224V34.678C526.224 35.83 526.026 36.928 525.684 37.954H528.366V32.59L530.814 32.23V48.34L528.366 48.7V39.772H524.892C523.542 42.238 521.292 44.146 518.862 45.262L517.386 43.66C520.824 42.22 523.632 38.62 523.632 35.488V35.182ZM547.179 32.23V48.34L544.731 48.7V39.25H542.301V43.804L539.871 44.164H534.201V33.328H536.631V37.108H539.871V33.328H542.301V37.468H544.731V32.59L547.179 32.23ZM536.631 42.382H539.871V38.908H536.631V42.382ZM561.114 44.056V37.612H556.398V35.812H561.114V32.59L563.562 32.23V43.696L561.114 44.056ZM559.944 39.682V41.5C558.378 41.788 556.434 41.95 554.382 41.95H550.872V33.004H553.356V40.168H554.382C556.218 40.168 558.306 39.988 559.944 39.682ZM563.67 48.628H553.104V43.228H555.606V46.828H564.03L563.67 48.628ZM581.457 44.506L581.097 46.342H565.851V44.506H581.457ZM574.941 32.896V35.632C574.941 36.01 574.977 36.46 575.265 36.694C576.543 37.774 578.901 39.556 580.467 40.582L579.135 42.094C577.551 41.086 574.923 39.286 573.699 38.188C572.439 39.268 569.865 41.158 568.137 42.22L566.787 40.726C568.461 39.628 570.711 37.972 571.971 36.838C572.259 36.586 572.367 36.118 572.367 35.74V33.256L574.941 32.896Z" fill="white"/>
<path d="M507.927 70.192C507.671 69.7227 507.319 69.3653 506.871 69.12C506.423 68.8747 505.9 68.752 505.303 68.752C504.642 68.752 504.055 68.9013 503.543 69.2C503.031 69.4987 502.631 69.9253 502.343 70.48C502.055 71.0347 501.911 71.6747 501.911 72.4C501.911 73.1467 502.055 73.7973 502.343 74.352C502.642 74.9067 503.052 75.3333 503.575 75.632C504.098 75.9307 504.706 76.08 505.399 76.08C506.252 76.08 506.951 75.856 507.495 75.408C508.039 74.9493 508.396 74.3147 508.567 73.504H504.727V71.792H510.775V73.744C510.626 74.5227 510.306 75.2427 509.815 75.904C509.324 76.5653 508.69 77.0987 507.911 77.504C507.143 77.8987 506.279 78.096 505.319 78.096C504.242 78.096 503.266 77.856 502.391 77.376C501.527 76.8853 500.844 76.208 500.343 75.344C499.852 74.48 499.607 73.4987 499.607 72.4C499.607 71.3013 499.852 70.32 500.343 69.456C500.844 68.5813 501.527 67.904 502.391 67.424C503.266 66.9333 504.236 66.688 505.303 66.688C506.562 66.688 507.655 66.9973 508.583 67.616C509.511 68.224 510.151 69.0827 510.503 70.192H507.927ZM516.368 78.144C515.515 78.144 514.747 77.9573 514.064 77.584C513.381 77.2 512.843 76.6613 512.448 75.968C512.064 75.2747 511.872 74.4747 511.872 73.568C511.872 72.6613 512.069 71.8613 512.464 71.168C512.869 70.4747 513.419 69.9413 514.112 69.568C514.805 69.184 515.579 68.992 516.432 68.992C517.285 68.992 518.059 69.184 518.752 69.568C519.445 69.9413 519.989 70.4747 520.384 71.168C520.789 71.8613 520.992 72.6613 520.992 73.568C520.992 74.4747 520.784 75.2747 520.368 75.968C519.963 76.6613 519.408 77.2 518.704 77.584C518.011 77.9573 517.232 78.144 516.368 78.144ZM516.368 76.192C516.773 76.192 517.152 76.096 517.504 75.904C517.867 75.7013 518.155 75.4027 518.368 75.008C518.581 74.6133 518.688 74.1333 518.688 73.568C518.688 72.7253 518.464 72.08 518.016 71.632C517.579 71.1733 517.04 70.944 516.4 70.944C515.76 70.944 515.221 71.1733 514.784 71.632C514.357 72.08 514.144 72.7253 514.144 73.568C514.144 74.4107 514.352 75.0613 514.768 75.52C515.195 75.968 515.728 76.192 516.368 76.192ZM526.331 75.936L528.571 69.136H530.955L527.675 78H524.955L521.691 69.136H524.091L526.331 75.936ZM540.453 73.376C540.453 73.696 540.432 73.984 540.389 74.24H533.909C533.963 74.88 534.187 75.3813 534.581 75.744C534.976 76.1067 535.461 76.288 536.037 76.288C536.869 76.288 537.461 75.9307 537.813 75.216H540.229C539.973 76.0693 539.483 76.7733 538.757 77.328C538.032 77.872 537.141 78.144 536.085 78.144C535.232 78.144 534.464 77.9573 533.781 77.584C533.109 77.2 532.581 76.6613 532.197 75.968C531.824 75.2747 531.637 74.4747 531.637 73.568C531.637 72.6507 531.824 71.8453 532.197 71.152C532.571 70.4587 533.093 69.9253 533.765 69.552C534.437 69.1787 535.211 68.992 536.085 68.992C536.928 68.992 537.68 69.1733 538.341 69.536C539.013 69.8987 539.531 70.416 539.893 71.088C540.267 71.7493 540.453 72.512 540.453 73.376ZM538.133 72.736C538.123 72.16 537.915 71.7013 537.509 71.36C537.104 71.008 536.608 70.832 536.021 70.832C535.467 70.832 534.997 71.0027 534.613 71.344C534.24 71.6747 534.011 72.1387 533.925 72.736H538.133ZM544.328 70.512C544.616 70.0427 544.99 69.6747 545.448 69.408C545.918 69.1413 546.451 69.008 547.048 69.008V71.36H546.456C545.752 71.36 545.219 71.5253 544.856 71.856C544.504 72.1867 544.328 72.7627 544.328 73.584V78H542.088V69.136H544.328V70.512ZM553.469 69.008C554.525 69.008 555.378 69.344 556.029 70.016C556.68 70.6773 557.005 71.6053 557.005 72.8V78H554.765V73.104C554.765 72.4 554.589 71.8613 554.237 71.488C553.885 71.104 553.405 70.912 552.797 70.912C552.178 70.912 551.688 71.104 551.325 71.488C550.973 71.8613 550.797 72.4 550.797 73.104V78H548.557V69.136H550.797V70.24C551.096 69.856 551.474 69.5573 551.933 69.344C552.402 69.12 552.914 69.008 553.469 69.008ZM558.559 73.536C558.559 72.64 558.735 71.8453 559.087 71.152C559.45 70.4587 559.935 69.9253 560.543 69.552C561.162 69.1787 561.85 68.992 562.607 68.992C563.269 68.992 563.845 69.1253 564.335 69.392C564.837 69.6587 565.237 69.9947 565.535 70.4V69.136H567.791V78H565.535V76.704C565.247 77.12 564.847 77.4667 564.335 77.744C563.834 78.0107 563.253 78.144 562.591 78.144C561.845 78.144 561.162 77.952 560.543 77.568C559.935 77.184 559.45 76.6453 559.087 75.952C558.735 75.248 558.559 74.4427 558.559 73.536ZM565.535 73.568C565.535 73.024 565.429 72.56 565.215 72.176C565.002 71.7813 564.714 71.4827 564.351 71.28C563.989 71.0667 563.599 70.96 563.183 70.96C562.767 70.96 562.383 71.0613 562.031 71.264C561.679 71.4667 561.391 71.7653 561.167 72.16C560.954 72.544 560.847 73.0027 560.847 73.536C560.847 74.0693 560.954 74.5387 561.167 74.944C561.391 75.3387 561.679 75.6427 562.031 75.856C562.394 76.0693 562.778 76.176 563.183 76.176C563.599 76.176 563.989 76.0747 564.351 75.872C564.714 75.6587 565.002 75.36 565.215 74.976C565.429 74.5813 565.535 74.112 565.535 73.568ZM574.891 69.008C575.947 69.008 576.8 69.344 577.451 70.016C578.102 70.6773 578.427 71.6053 578.427 72.8V78H576.187V73.104C576.187 72.4 576.011 71.8613 575.659 71.488C575.307 71.104 574.827 70.912 574.219 70.912C573.6 70.912 573.11 71.104 572.747 71.488C572.395 71.8613 572.219 72.4 572.219 73.104V78H569.979V69.136H572.219V70.24C572.518 69.856 572.896 69.5573 573.355 69.344C573.824 69.12 574.336 69.008 574.891 69.008ZM579.981 73.568C579.981 72.6507 580.168 71.8507 580.541 71.168C580.914 70.4747 581.432 69.9413 582.093 69.568C582.754 69.184 583.512 68.992 584.365 68.992C585.464 68.992 586.37 69.2693 587.085 69.824C587.81 70.368 588.296 71.136 588.541 72.128H586.125C585.997 71.744 585.778 71.4453 585.469 71.232C585.17 71.008 584.797 70.896 584.349 70.896C583.709 70.896 583.202 71.1307 582.829 71.6C582.456 72.0587 582.269 72.7147 582.269 73.568C582.269 74.4107 582.456 75.0667 582.829 75.536C583.202 75.9947 583.709 76.224 584.349 76.224C585.256 76.224 585.848 75.8187 586.125 75.008H588.541C588.296 75.968 587.81 76.7307 587.085 77.296C586.36 77.8613 585.453 78.144 584.365 78.144C583.512 78.144 582.754 77.9573 582.093 77.584C581.432 77.2 580.914 76.6667 580.541 75.984C580.168 75.2907 579.981 74.4853 579.981 73.568ZM598.422 73.376C598.422 73.696 598.401 73.984 598.358 74.24H591.878C591.931 74.88 592.155 75.3813 592.55 75.744C592.945 76.1067 593.43 76.288 594.006 76.288C594.838 76.288 595.43 75.9307 595.782 75.216H598.198C597.942 76.0693 597.451 76.7733 596.726 77.328C596.001 77.872 595.11 78.144 594.054 78.144C593.201 78.144 592.433 77.9573 591.75 77.584C591.078 77.2 590.55 76.6613 590.166 75.968C589.793 75.2747 589.606 74.4747 589.606 73.568C589.606 72.6507 589.793 71.8453 590.166 71.152C590.539 70.4587 591.062 69.9253 591.734 69.552C592.406 69.1787 593.179 68.992 594.054 68.992C594.897 68.992 595.649 69.1733 596.31 69.536C596.982 69.8987 597.499 70.416 597.862 71.088C598.235 71.7493 598.422 72.512 598.422 73.376ZM596.102 72.736C596.091 72.16 595.883 71.7013 595.478 71.36C595.073 71.008 594.577 70.832 593.99 70.832C593.435 70.832 592.966 71.0027 592.582 71.344C592.209 71.6747 591.979 72.1387 591.894 72.736H596.102Z" fill="white"/>
<rect x="444.327" y="124.327" width="209.347" height="271.347" rx="15.6733" fill="white"/>
<path d="M512.216 170V160.102H518.655V161.592H513.993V164.299H518.313V165.789H513.993V168.496H518.683V170H512.216ZM525.751 162.822C525.662 161.968 524.944 161.476 523.878 161.482C522.75 161.476 522.08 162.022 522.073 162.768C522.066 163.602 522.948 163.943 523.769 164.135L524.698 164.381C526.175 164.723 527.597 165.502 527.597 167.225C527.597 168.961 526.223 170.15 523.851 170.15C521.547 170.15 520.084 169.043 520.009 167.088H521.759C521.841 168.12 522.709 168.626 523.837 168.633C525.006 168.626 525.812 168.059 525.819 167.211C525.812 166.432 525.102 166.104 524.028 165.83L522.907 165.543C521.28 165.119 520.269 164.299 520.269 162.877C520.269 161.127 521.82 159.965 523.905 159.965C526.004 159.965 527.433 161.147 527.46 162.822H525.751ZM535.704 163.26C535.383 162.207 534.569 161.564 533.366 161.564C531.773 161.564 530.611 162.809 530.618 165.037C530.611 167.286 531.753 168.537 533.407 168.537C534.904 168.537 535.854 167.635 535.882 166.227H533.585V164.818H537.604V166.008C537.604 168.558 535.854 170.137 533.407 170.137C530.673 170.137 528.82 168.188 528.827 165.051C528.82 161.872 530.762 159.965 533.353 159.965C535.533 159.965 537.222 161.318 537.522 163.26H535.704ZM549.062 158.871V166.09H547.544V164.723H544.604V163.492H547.544V162.166H544.721C543.941 164.128 542.137 165.502 539.45 166.254L538.835 165.051C541.727 164.271 543.271 162.802 543.504 160.963H539.491V159.732H545.165C545.165 160.163 545.131 160.573 545.062 160.963H547.544V158.871H549.062ZM540.776 168.688C540.776 167.17 542.438 166.233 544.974 166.227C547.476 166.233 549.144 167.17 549.144 168.688C549.144 170.205 547.476 171.155 544.974 171.148C542.438 171.155 540.776 170.205 540.776 168.688ZM542.294 168.688C542.294 169.501 543.312 169.945 544.974 169.945C546.607 169.945 547.619 169.501 547.626 168.688C547.619 167.86 546.607 167.416 544.974 167.416C543.312 167.416 542.294 167.86 542.294 168.688ZM554.243 159.555C555.241 159.548 556.109 159.917 556.69 160.539H559.644V158.857H561.161V166.131H559.644V164.559H556.684C556.096 165.167 555.234 165.536 554.243 165.529C552.377 165.536 550.976 164.285 550.976 162.549C550.976 160.799 552.377 159.548 554.243 159.555ZM552.425 162.549C552.425 163.561 553.184 164.244 554.243 164.244C555.269 164.244 556.027 163.561 556.034 162.549C556.027 161.503 555.269 160.854 554.243 160.854C553.184 160.854 552.425 161.503 552.425 162.549ZM552.78 168.797C552.767 167.272 554.387 166.384 556.978 166.391C559.575 166.384 561.195 167.272 561.202 168.797C561.195 170.314 559.575 171.203 556.978 171.203C554.387 171.203 552.767 170.314 552.78 168.797ZM554.271 168.797C554.257 169.583 555.262 170.007 556.978 170.014C558.728 170.007 559.712 169.583 559.712 168.797C559.712 167.99 558.728 167.56 556.978 167.553C555.262 167.56 554.257 167.99 554.271 168.797ZM557.374 161.756C557.442 162.009 557.483 162.269 557.483 162.549C557.483 162.822 557.442 163.082 557.381 163.328H559.644V161.756H557.374ZM568.64 166.486C571.203 166.486 572.775 167.354 572.782 168.838C572.775 170.342 571.203 171.21 568.64 171.217C566.056 171.21 564.456 170.342 564.456 168.838C564.456 167.354 566.056 166.486 568.64 166.486ZM563.335 165.406V159.637H564.839V161.305H567.724V159.637H569.228V165.406H563.335ZM564.839 164.203H567.724V162.494H564.839V164.203ZM565.974 168.838C565.974 169.604 566.944 170.021 568.64 170.014C570.328 170.021 571.278 169.604 571.278 168.838C571.278 168.072 570.328 167.683 568.64 167.676C566.944 167.683 565.974 168.072 565.974 168.838ZM571.142 166.186V158.857H572.659V161.811H574.382V163.082H572.659V166.186H571.142ZM582.339 160.17V161.373H579.7C579.707 162.747 580.787 164.087 582.763 164.613L582.052 165.803C580.603 165.406 579.557 164.559 578.976 163.465C578.415 164.661 577.362 165.598 575.886 166.035L575.175 164.873C577.123 164.278 578.176 162.85 578.183 161.373H575.544V160.17H578.183V158.816H579.714V160.17H582.339ZM577.103 171.066V166.691H585.306V171.066H577.103ZM578.606 169.836H583.815V167.908H578.606V169.836ZM583.774 166.131V158.871H585.306V166.131H583.774Z" fill="#282828"/>
<path d="M530.83 197.131C533.503 197.131 535.26 198.108 535.26 199.66C535.26 201.198 533.503 202.155 530.83 202.162C528.171 202.155 526.394 201.198 526.4 199.66C526.394 198.108 528.171 197.131 530.83 197.131ZM525.211 204.145V202.914H536.49V204.145H533.77V206.469H532.252V204.145H530.625V206.469H529.094V204.145H525.211ZM526.523 208.971V205.402H528.055V207.74H535.355V208.971H526.523ZM528.041 199.66C528.027 200.48 529.135 200.952 530.83 200.959C532.539 200.952 533.64 200.48 533.633 199.66C533.64 198.812 532.539 198.334 530.83 198.334C529.135 198.334 528.027 198.812 528.041 199.66ZM547.605 196.857V209.23H546.102V196.857H547.605ZM537.98 199.168V197.938H543.805V202.572H539.553V205.061C541.501 205.047 543.176 204.944 545.104 204.623L545.24 205.867C543.142 206.229 541.296 206.312 539.074 206.305H537.994V201.369H542.26V199.168H537.98ZM559.76 196.871V204.09H558.242V202.723H555.303V201.492H558.242V200.166H555.419C554.64 202.128 552.835 203.502 550.148 204.254L549.533 203.051C552.425 202.271 553.97 200.802 554.202 198.963H550.189V197.732H555.863C555.863 198.163 555.829 198.573 555.761 198.963H558.242V196.871H559.76ZM551.475 206.688C551.475 205.17 553.136 204.233 555.672 204.227C558.174 204.233 559.842 205.17 559.842 206.688C559.842 208.205 558.174 209.155 555.672 209.148C553.136 209.155 551.475 208.205 551.475 206.688ZM552.992 206.688C552.992 207.501 554.011 207.945 555.672 207.945C557.306 207.945 558.317 207.501 558.324 206.688C558.317 205.86 557.306 205.416 555.672 205.416C554.011 205.416 552.992 205.86 552.992 206.688ZM564.941 197.555C565.939 197.548 566.808 197.917 567.389 198.539H570.342V196.857H571.859V204.131H570.342V202.559H567.382C566.794 203.167 565.933 203.536 564.941 203.529C563.075 203.536 561.674 202.285 561.674 200.549C561.674 198.799 563.075 197.548 564.941 197.555ZM563.123 200.549C563.123 201.561 563.882 202.244 564.941 202.244C565.967 202.244 566.726 201.561 566.732 200.549C566.726 199.503 565.967 198.854 564.941 198.854C563.882 198.854 563.123 199.503 563.123 200.549ZM563.479 206.797C563.465 205.272 565.085 204.384 567.676 204.391C570.273 204.384 571.894 205.272 571.9 206.797C571.894 208.314 570.273 209.203 567.676 209.203C565.085 209.203 563.465 208.314 563.479 206.797ZM564.969 206.797C564.955 207.583 565.96 208.007 567.676 208.014C569.426 208.007 570.41 207.583 570.41 206.797C570.41 205.99 569.426 205.56 567.676 205.553C565.96 205.56 564.955 205.99 564.969 206.797ZM568.072 199.756C568.141 200.009 568.182 200.269 568.182 200.549C568.182 200.822 568.141 201.082 568.079 201.328H570.342V199.756H568.072Z" fill="#282828"/>
<path d="M541.009 234.871V238.439H542.731V239.697H541.009V243.963H539.491V234.871H541.009ZM531.685 241.953V235.746H533.188V237.633H536.073V235.746H537.577V241.953H531.685ZM533.093 246.971V243.047H534.61V245.74H541.501V246.971H533.093ZM533.188 240.75H536.073V238.809H533.188V240.75ZM554.64 242.049V243.252H549.718V247.217H548.214V243.252H543.347V242.049H554.64ZM544.714 240.764V235.35H546.218V236.867H551.741V235.35H553.272V240.764H544.714ZM546.218 239.533H551.741V238.07H546.218V239.533ZM566.124 234.857V247.217H564.661V240.941H563.431V246.588H561.995V235.09H563.431V239.697H564.661V234.857H566.124ZM555.323 243.047H556.472V237.551H555.569V236.32H561.284V237.551H560.396V242.876C560.765 242.849 561.113 242.808 561.448 242.76L561.53 243.867C559.603 244.264 557.053 244.312 555.501 244.305L555.323 243.047ZM557.839 243.02C558.229 243.006 558.618 242.992 559.015 242.972V237.551H557.839V243.02Z" fill="#282828"/>
<path d="M535.82 272.857V285.217H534.357V278.969H532.99V284.588H531.568V273.09H532.99V277.725H534.357V272.857H535.82ZM525.744 282.141V274.279H527.275V280.801C528.342 280.78 529.504 280.685 530.803 280.432L530.953 281.758C529.285 282.052 527.87 282.141 526.564 282.141H525.744ZM548.59 280.049V281.252H543.668V285.217H542.164V281.252H537.297V280.049H548.59ZM538.664 278.764V273.35H540.168V274.867H545.691V273.35H547.223V278.764H538.664ZM540.168 277.533H545.691V276.07H540.168V277.533ZM560.047 272.857V285.217H558.598V272.857H560.047ZM549.191 281.703C550.976 280.616 551.762 278.388 551.762 276.234V275.414H549.615V274.184H555.221V275.414H553.225V276.234C553.225 278.319 553.97 280.411 555.74 281.43L554.838 282.551C553.696 281.874 552.938 280.698 552.507 279.29C552.069 280.814 551.283 282.113 550.121 282.838L549.191 281.703ZM554.318 278.395V277.164H556.096V273.09H557.531V284.615H556.096V278.395H554.318ZM572.803 282.482V283.727H561.51V282.482H566.377V280.076H562.754V273.678H564.271V275.701H570V273.678H571.518V280.076H567.881V282.482H572.803ZM564.271 278.846H570V276.918H564.271V278.846Z" fill="#282828"/>
<path d="M547.947 310.857V323.217H546.498V310.857H547.947ZM537.092 319.703C538.876 318.616 539.662 316.388 539.662 314.234V313.414H537.516V312.184H543.121V313.414H541.125V314.234C541.125 316.319 541.87 318.411 543.641 319.43L542.738 320.551C541.597 319.874 540.838 318.698 540.407 317.29C539.97 318.814 539.184 320.113 538.021 320.838L537.092 319.703ZM542.219 316.395V315.164H543.996V311.09H545.432V322.615H543.996V316.395H542.219ZM553.416 311.623C555.378 311.623 556.807 312.847 556.82 314.604C556.807 316.121 555.74 317.242 554.182 317.516V319.32C555.282 319.266 556.396 319.17 557.449 319.02L557.572 320.113C554.804 320.64 551.837 320.66 549.656 320.66L549.465 319.416C550.408 319.416 551.509 319.416 552.664 319.382V317.522C551.112 317.249 550.019 316.128 550.025 314.604C550.019 312.847 551.475 311.623 553.416 311.623ZM551.529 314.604C551.522 315.622 552.336 316.285 553.416 316.285C554.517 316.285 555.323 315.622 555.33 314.604C555.323 313.564 554.51 312.929 553.416 312.936C552.336 312.929 551.522 313.564 551.529 314.604ZM558.188 323.23V310.857H559.705V323.23H558.188Z" fill="#282828"/>
<rect x="444.327" y="124.327" width="209.347" height="271.347" rx="15.6733" stroke="#E1E6EF" stroke-width="0.653415"/>
</svg>
