<svg width="1336" height="626" viewBox="0 0 1336 626" fill="none" xmlns="http://www.w3.org/2000/svg">
<rect width="280" height="96" rx="16" fill="#1B4B66"/>
<path d="M99.5621 52.74L99.1621 55.04H90.0021V39.52H99.3221V41.8H92.8421V45.86H98.8421V48.18H92.8421V52.74H99.5621ZM105.634 46.04H108.374C110.574 46.04 112.134 47.8 112.134 50.28C112.134 53.54 109.894 55.04 106.594 55.04H101.454V52.74H106.354C108.134 52.74 109.294 52.1 109.294 50.42C109.294 49.14 108.634 48.32 107.634 48.32H105.174C102.854 48.32 101.174 46.56 101.174 44.16C101.174 40.98 102.974 39.52 106.294 39.52H111.114L110.694 41.8H106.534C104.954 41.8 103.994 42.42 103.994 44.02C103.994 45.3 104.574 46.04 105.634 46.04ZM122.026 55.16H120.326C115.886 55.16 113.766 53.26 113.766 49.24V45.44C113.766 41.56 115.946 39.52 120.306 39.52H124.586L124.166 41.86H120.486C117.566 41.86 116.586 43.42 116.586 45.86V48.8C116.586 51.4 117.386 52.84 120.406 52.84H122.026V48.5H119.446V46.26H124.766V54.76L122.026 55.16ZM144.034 50.66C144.034 54.28 141.214 55.04 139.034 55.04H133.014V39.52H138.634C140.794 39.52 143.114 40.48 143.134 43.56C143.154 45.36 142.094 46.58 140.294 46.92V46.96C142.494 47.22 144.034 48.76 144.034 50.66ZM140.414 43.86C140.414 42.24 139.294 41.76 137.994 41.76H135.854V45.86H137.734C139.034 45.86 140.414 45.42 140.414 43.86ZM141.194 50.4C141.194 48.36 139.474 48.02 137.914 48.02H135.854V52.8H138.434C139.954 52.8 141.194 52.2 141.194 50.4ZM152.184 43.08V45.66H151.944C149.644 45.66 148.624 47.42 148.624 49.64V54.68L145.924 55.1V43.56L148.324 43.14V45.5C148.684 44.14 150.184 43.08 151.944 43.08H152.184ZM158.125 55.3C155.625 55.36 153.425 53.8 153.425 51.02V47.52C153.425 44.74 155.565 43.18 158.105 43.24C159.725 43.28 160.705 43.9 161.545 44.96V43.5L164.225 43.1V55.06L161.625 55.46V53.66C160.825 54.78 159.505 55.26 158.125 55.3ZM161.525 47.82C161.505 46.54 160.425 45.4 158.725 45.34C157.425 45.3 156.245 46.16 156.245 47.62V50.94C156.245 52.4 157.345 53.22 158.625 53.18C160.705 53.12 161.585 51.68 161.565 50.06L161.525 47.82ZM177.139 47.52V54.68L174.439 55.08V48.56C174.439 46.96 174.319 45.18 172.319 45.18C169.999 45.16 169.399 47.38 169.399 49.06V54.68L166.699 55.08V43.54L169.279 43.14V44.9C170.219 43.6 171.659 43.06 173.219 43.06C175.959 43.06 177.139 44.92 177.139 47.52ZM183.848 55.3C181.348 55.36 179.108 53.8 179.108 51.02V47.52C179.108 44.74 181.288 43.18 183.828 43.24C185.448 43.28 186.408 43.9 187.228 44.96V39.3L189.908 38.9V55.06L187.308 55.46V53.66C186.528 54.78 185.228 55.26 183.848 55.3ZM187.208 47.78C187.188 46.5 186.108 45.34 184.308 45.32C182.968 45.3 181.928 46.16 181.928 47.62V50.94C181.928 52.4 182.868 53.24 184.228 53.2C186.328 53.14 187.268 51.72 187.248 50.06L187.208 47.78Z" fill="white"/>
<rect x="300" y="47.5" width="30" height="1" fill="#C4C4C4"/>
<rect x="350" width="986" height="96" rx="16" fill="#F4F8FF"/>
<path d="M812.704 54V41.2734H817.485C820.403 41.2734 821.959 42.9082 821.968 45.334C821.959 47.0654 821.168 48.3486 819.674 48.9551L822.425 54H819.876L817.38 49.3418H814.989V54H812.704ZM814.989 47.4258H817.134C818.856 47.4346 819.63 46.6963 819.63 45.334C819.63 43.9805 818.856 43.1895 817.134 43.1895H814.989V47.4258ZM823.937 54V41.2734H832.216V43.1895H826.222V46.6699H831.776V48.5859H826.222V52.0664H832.251V54H823.937ZM835.696 52.418C834.94 52.418 834.316 51.8027 834.325 51.0469C834.316 50.3086 834.94 49.7021 835.696 49.6934C836.426 49.7021 837.05 50.3086 837.05 51.0469C837.05 51.8027 836.426 52.418 835.696 52.418ZM834.325 44.2266C834.316 43.4883 834.94 42.8818 835.696 42.873C836.426 42.8818 837.05 43.4883 837.05 44.2266C837.05 44.9824 836.426 45.5977 835.696 45.5977C834.94 45.5977 834.316 44.9824 834.325 44.2266ZM847.843 45.334C847.43 43.9805 846.384 43.1543 844.837 43.1543C842.789 43.1543 841.295 44.7539 841.304 47.6191C841.295 50.5107 842.763 52.1191 844.89 52.1191C846.814 52.1191 848.036 50.959 848.071 49.1484H845.118V47.3379H850.286V48.8672C850.286 52.1455 848.036 54.1758 844.89 54.1758C841.374 54.1758 838.992 51.6709 839.001 47.6367C838.992 43.5498 841.488 41.0977 844.819 41.0977C847.623 41.0977 849.794 42.8379 850.181 45.334H847.843ZM852.36 54V41.2734H860.64V43.1895H854.646V46.6699H860.2V48.5859H854.646V52.0664H860.675V54H852.36ZM873.296 41.2734V54H871.257L865.228 45.2988H865.122V54H862.837V41.2734H864.911L870.905 49.9746H871.028V41.2734H873.296Z" fill="#1B4B66"/>
<rect y="106" width="280" height="96" rx="16" fill="#1B4B66"/>
<path d="M88.6142 156.66C88.6142 160.28 85.7942 161.04 83.6142 161.04H77.5942V145.52H83.2142C85.3742 145.52 87.6942 146.48 87.7142 149.56C87.7342 151.36 86.6742 152.58 84.8742 152.92V152.96C87.0742 153.22 88.6142 154.76 88.6142 156.66ZM84.9942 149.86C84.9942 148.24 83.8742 147.76 82.5742 147.76H80.4342V151.86H82.3142C83.6142 151.86 84.9942 151.42 84.9942 149.86ZM85.7742 156.4C85.7742 154.36 84.0542 154.02 82.4942 154.02H80.4342V158.8H83.0142C84.5342 158.8 85.7742 158.2 85.7742 156.4ZM96.7639 149.08V151.66H96.5239C94.2239 151.66 93.2039 153.42 93.2039 155.64V160.68L90.5039 161.1V149.56L92.9039 149.14V151.5C93.2639 150.14 94.7639 149.08 96.5239 149.08H96.7639ZM102.705 161.3C100.205 161.36 98.0047 159.8 98.0047 157.02V153.52C98.0047 150.74 100.145 149.18 102.685 149.24C104.305 149.28 105.285 149.9 106.125 150.96V149.5L108.805 149.1V161.06L106.205 161.46V159.66C105.405 160.78 104.085 161.26 102.705 161.3ZM106.105 153.82C106.085 152.54 105.005 151.4 103.305 151.34C102.005 151.3 100.825 152.16 100.825 153.62V156.94C100.825 158.4 101.925 159.22 103.205 159.18C105.285 159.12 106.165 157.68 106.145 156.06L106.105 153.82ZM121.719 153.52V160.68L119.019 161.08V154.56C119.019 152.96 118.899 151.18 116.899 151.18C114.579 151.16 113.979 153.38 113.979 155.06V160.68L111.279 161.08V149.54L113.859 149.14V150.9C114.799 149.6 116.239 149.06 117.799 149.06C120.539 149.06 121.719 150.92 121.719 153.52ZM128.428 161.3C125.928 161.36 123.688 159.8 123.688 157.02V153.52C123.688 150.74 125.868 149.18 128.408 149.24C130.028 149.28 130.988 149.9 131.808 150.96V145.3L134.488 144.9V161.06L131.888 161.46V159.66C131.108 160.78 129.808 161.26 128.428 161.3ZM131.788 153.78C131.768 152.5 130.688 151.34 128.888 151.32C127.548 151.3 126.508 152.16 126.508 153.62V156.94C126.508 158.4 127.448 159.24 128.808 159.2C130.908 159.14 131.848 157.72 131.828 156.06L131.788 153.78ZM152.643 145.52H155.483L150.363 161.04H146.883L141.703 145.52H144.763L148.703 158.14L152.643 145.52ZM160.141 144.9V147.58H157.421V144.9H160.141ZM160.121 149.52V160.86L157.441 161.26V149.52H160.121ZM166.757 154.06L168.677 154.08C170.517 154.1 171.837 155.5 171.837 157.46C171.837 159.9 169.957 161.16 167.517 161.16H162.617V159.08H167.117C168.437 159.08 169.257 158.52 169.257 157.52C169.257 156.58 168.777 156.06 167.877 156.06L165.677 156.04C163.957 156.02 162.657 154.58 162.657 152.76C162.657 150.36 164.217 149.28 166.677 149.28H171.117L170.697 151.36H166.957C165.837 151.36 165.237 151.72 165.237 152.66C165.237 153.6 165.817 154.06 166.757 154.06ZM177.016 144.9V147.58H174.296V144.9H177.016ZM176.996 149.52V160.86L174.316 161.26V149.52H176.996ZM189.972 153.46V156.96C189.972 159.48 188.032 161.24 184.832 161.24C181.632 161.24 179.712 159.48 179.712 156.96V153.46C179.712 150.92 181.632 149.08 184.832 149.08C188.032 149.08 189.972 150.92 189.972 153.46ZM187.312 156.72V153.68C187.312 152.2 186.432 151.16 184.832 151.16C183.232 151.16 182.372 152.2 182.372 153.68V156.72C182.372 158.14 183.232 159.16 184.832 159.16C186.432 159.16 187.312 158.14 187.312 156.72ZM202.656 153.52V160.68L199.956 161.08V154.56C199.956 152.96 199.836 151.18 197.836 151.18C195.516 151.16 194.916 153.38 194.916 155.06V160.68L192.216 161.08V149.54L194.796 149.14V150.9C195.736 149.6 197.176 149.06 198.736 149.06C201.476 149.06 202.656 150.92 202.656 153.52Z" fill="white"/>
<rect x="300" y="153.5" width="30" height="1" fill="#C4C4C4"/>
<rect x="350" y="106" width="986" height="96" rx="16" fill="#F4F8FF"/>
<path d="M659.924 158.031V159.631H645.404V158.031H651.662V154.568H647.004V146.904H658.254V154.568H653.596V158.031H659.924ZM648.92 153.039H656.32V148.469H648.92V153.039ZM675.463 153.584V155.148H660.961V153.584H675.463ZM662.736 152.143V146.307H673.705V147.854H664.688V150.561H673.846V152.143H662.736ZM662.754 161.23V156.537H664.67V159.648H673.951V161.23H662.754ZM685.746 149.84C685.755 152.406 686.634 155.078 688.787 156.432L687.715 157.926C686.282 157.064 685.351 155.588 684.823 153.856C684.252 155.764 683.232 157.381 681.738 158.295L680.525 156.836C682.837 155.438 683.856 152.635 683.865 149.928V147.08H685.746V149.84ZM687.082 152.758V151.141H689.35V145.955H691.195V160.791H689.35V152.758H687.082ZM692.619 161.564V145.674H694.5V161.564H692.619ZM710.021 145.674V161.564H708.158V153.461H706.365V160.756H704.572V145.973H706.365V151.896H708.158V145.674H710.021ZM696.838 157.855V147.555H702.779V149.137H698.807V156.203C700.529 156.186 701.953 156.098 703.57 155.799L703.711 157.398C701.786 157.785 700.125 157.838 697.91 157.855H696.838ZM717.053 146.781C719.575 146.772 721.412 148.363 721.43 150.613C721.412 152.872 719.575 154.454 717.053 154.463C714.557 154.454 712.685 152.872 712.693 150.613C712.685 148.363 714.557 146.772 717.053 146.781ZM711.973 156.66C714.838 156.66 718.802 156.625 722.238 156.133L722.396 157.557C718.837 158.233 715.022 158.26 712.219 158.26L711.973 156.66ZM714.627 150.613C714.618 151.94 715.664 152.758 717.053 152.758C718.459 152.758 719.505 151.94 719.514 150.613C719.505 149.295 718.468 148.469 717.053 148.469C715.664 148.469 714.618 149.295 714.627 150.613ZM723.188 161.582V145.674H725.139V161.582H723.188ZM739.764 147.115V148.715H734.473V156.115C736.96 156.098 738.709 155.992 740.678 155.623L740.889 157.205C738.656 157.645 736.731 157.732 733.77 157.732H732.504V147.115H739.764ZM738.92 152.863V151.264H743.121V145.674H745.072V161.582H743.121V152.863H738.92ZM766.359 151.809V153.408H764.004V161.529H762.053V145.674H764.004V151.809H766.359ZM752.121 157.609V147.221H754.055V155.992C756.173 155.957 758.423 155.772 760.822 155.271L761.033 156.924C758.353 157.46 755.812 157.601 753.457 157.609H752.121ZM781.6 153.883V155.447H767.115V153.883H781.6ZM768.609 149.4C768.609 147.388 770.868 146.175 774.34 146.184C777.803 146.175 780.062 147.388 780.07 149.4C780.062 151.422 777.803 152.652 774.34 152.652C770.868 152.652 768.609 151.422 768.609 149.4ZM768.908 161.248V156.625H770.859V159.666H779.965V161.248H768.908ZM770.648 149.4C770.631 150.481 772.028 151.062 774.34 151.053C776.66 151.062 778.049 150.481 778.049 149.4C778.049 148.354 776.66 147.748 774.34 147.748C772.028 147.748 770.631 148.354 770.648 149.4ZM795.346 147.168V157.697H787.787V147.168H795.346ZM789.721 156.133H793.447V148.697H789.721V156.133ZM798.193 161.582V145.674H800.162V161.582H798.193ZM808.969 147.291V153.215H804.855V156.309C806.464 156.291 808.002 156.229 809.777 155.939L809.918 157.521C807.773 157.882 806.033 157.935 804.064 157.943H802.975V151.633H807.088V148.873H802.957V147.291H808.969ZM810.727 160.756V145.973H812.52V151.773H814.312V145.674H816.176V161.564H814.312V153.355H812.52V160.756H810.727ZM832.559 152.881V154.357H818.039V152.881H832.559ZM819.727 156.678V155.307H830.801V158.928H821.695V160.035H831.275V161.389H819.744V157.662H828.867V156.678H819.727ZM819.832 147.379V146.025H830.766V149.611H821.818V150.648H831.047V151.984H819.885V148.346H828.814V147.379H819.832ZM843.07 146.377C845.487 146.368 847.236 147.722 847.236 149.717C847.236 151.677 845.487 153.048 843.07 153.039C840.68 153.048 838.939 151.677 838.939 149.717C838.939 147.722 840.68 146.368 843.07 146.377ZM837.902 154.129C840.768 154.129 844.784 154.076 848.203 153.566L848.344 155.008C846.973 155.271 845.549 155.438 844.16 155.544V161.072H842.191V155.658C840.724 155.72 839.344 155.737 838.148 155.746L837.902 154.129ZM840.838 149.717C840.829 150.78 841.77 151.448 843.07 151.439C844.424 151.448 845.373 150.78 845.373 149.717C845.373 148.618 844.424 147.941 843.07 147.959C841.77 147.941 840.829 148.618 840.838 149.717ZM849.24 161.547V145.691H851.174V161.547H849.24ZM865.975 145.691V150.684H868.189V152.301H865.975V157.557H864.023V145.691H865.975ZM853.459 149.014V147.449H857.203V145.674H859.154V147.449H862.881V149.014H853.459ZM854.268 152.705C854.268 150.877 855.858 149.664 858.17 149.664C860.464 149.664 862.046 150.877 862.055 152.705C862.046 154.524 860.464 155.711 858.17 155.711C855.858 155.711 854.268 154.524 854.268 152.705ZM855.797 161.248V156.625H857.748V159.666H866.607V161.248H855.797ZM856.166 152.705C856.157 153.663 856.966 154.208 858.17 154.199C859.374 154.208 860.191 153.663 860.191 152.705C860.191 151.738 859.374 151.176 858.17 151.176C856.966 151.176 856.157 151.738 856.166 152.705ZM882.182 147.133V148.68H873.305V147.133H876.855V145.533H878.807V147.133H882.182ZM874.131 152.389C874.122 150.604 875.687 149.365 877.805 149.365C879.949 149.365 881.522 150.604 881.531 152.389C881.522 154.129 879.949 155.386 877.805 155.395C875.687 155.386 874.122 154.129 874.131 152.389ZM875.748 158.119V156.572H886.576V161.564H884.625V158.119H875.748ZM875.959 152.389C875.95 153.294 876.715 153.883 877.805 153.883C878.903 153.883 879.703 153.294 879.703 152.389C879.703 151.439 878.903 150.842 877.805 150.842C876.715 150.842 875.95 151.439 875.959 152.389ZM882.27 153.971V152.389H884.625V150.912H882.287V149.365H884.625V145.674H886.576V155.764H884.625V153.971H882.27ZM902.062 145.691V157.293H900.094V145.691H902.062ZM888.844 153.549C891.419 152.644 892.737 150.402 892.729 148.117V146.57H894.75V148.117C894.741 150.332 896.042 152.424 898.564 153.268L897.562 154.814C895.752 154.182 894.46 152.916 893.757 151.29C893.054 153.03 891.735 154.419 889.863 155.096L888.844 153.549ZM891.551 161.248V156.186H893.52V159.666H902.502V161.248H891.551ZM913.26 147.326V148.451C913.26 149.866 913.26 151.87 912.82 154.604L910.887 154.445C911.273 152.037 911.317 150.253 911.326 148.891H905.086V147.326H913.26ZM904.242 156.66C905.183 156.651 906.229 156.643 907.318 156.616V151.861H909.252V156.555C910.869 156.484 912.53 156.37 914.051 156.186L914.156 157.645C910.878 158.181 907.239 158.242 904.436 158.225L904.242 156.66ZM914.877 161.564V145.674H916.846V152.143H919.148V153.795H916.846V161.564H914.877ZM932.402 150.473V152.318H938.695V153.883H924.211V152.318H930.469V150.473H932.402ZM924.949 149.893C928.342 149.559 930.434 148.047 930.434 146.236V145.814H932.42V146.236C932.42 148.047 934.503 149.559 937.904 149.893L937.219 151.387C934.556 151.053 932.446 150.051 931.418 148.504C930.398 150.051 928.298 151.053 925.635 151.387L924.949 149.893ZM925.916 156.344V154.85H936.885V158.787H927.85V159.93H937.324V161.424H925.934V157.398H934.969V156.344H925.916ZM952.582 146.219V150.736H943.459V152.318H952.934V153.883H941.49V149.26H950.578V147.801H941.455V146.219H952.582ZM939.75 156.801V155.236H954.27V156.801H947.959V161.582H946.008V156.801H939.75ZM961.107 148.486C961.099 150.728 962.355 152.907 964.799 153.83L963.709 155.342C962.013 154.674 960.8 153.347 960.141 151.703C959.455 153.47 958.172 154.867 956.344 155.57L955.289 154.023C957.82 153.109 959.13 150.868 959.139 148.486V146.588H961.107V148.486ZM958.154 161.248V156.326H960.141V159.666H968.982V161.248H958.154ZM963.779 152.564V151H966.68V149.436H963.779V147.854H966.68V145.691H968.631V157.486H966.68V152.564H963.779ZM988.828 145.674V161.564H986.965V145.674H988.828ZM974.871 157.047C977.165 155.649 978.176 152.784 978.176 150.016V148.961H975.416V147.379H982.623V148.961H980.057V150.016C980.057 152.696 981.015 155.386 983.291 156.695L982.131 158.137C980.663 157.267 979.688 155.755 979.134 153.944C978.571 155.904 977.561 157.574 976.066 158.506L974.871 157.047ZM981.463 152.793V151.211H983.748V145.973H985.594V160.791H983.748V152.793H981.463ZM1003.24 145.674V150.332H1005.46V151.949H1003.24V157.293H1001.29V145.674H1003.24ZM990.885 150.736C990.876 148.39 992.757 146.737 995.174 146.729C997.591 146.737 999.445 148.39 999.463 150.736C999.445 153.048 997.591 154.727 995.174 154.727C992.757 154.727 990.876 153.048 990.885 150.736ZM992.801 150.736C992.792 152.107 993.847 153.013 995.174 153.004C996.519 153.013 997.538 152.107 997.547 150.736C997.538 149.33 996.519 148.434 995.174 148.434C993.847 148.434 992.792 149.33 992.801 150.736ZM993.064 161.248V156.08H995.016V159.666H1003.88V161.248H993.064ZM1023.81 145.674V161.564H1021.84V145.674H1023.81ZM1010.64 157.188C1014.81 155.21 1016.72 152.521 1017.08 148.908H1011.45V147.361H1019.06C1019.06 152.09 1017.23 156.106 1011.66 158.752L1010.64 157.188ZM1030.51 146.377C1032.56 146.368 1034.18 147.555 1034.58 149.295H1037.45V145.674H1039.4V154.199H1037.45V150.877H1034.59C1034.21 152.661 1032.58 153.865 1030.51 153.865C1028.07 153.865 1026.3 152.301 1026.3 150.104C1026.3 147.933 1028.07 146.368 1030.51 146.377ZM1028.17 150.104C1028.17 151.378 1029.13 152.222 1030.51 152.213C1031.84 152.222 1032.8 151.378 1032.81 150.104C1032.8 148.829 1031.84 148.003 1030.51 148.012C1029.13 148.003 1028.17 148.829 1028.17 150.104ZM1028.92 161.371V154.938H1030.86V156.625H1037.45V154.938H1039.4V161.371H1028.92ZM1030.86 159.789H1037.45V158.137H1030.86V159.789Z" fill="#1B4B66"/>
<rect y="212" width="280" height="96" rx="16" fill="#1B4B66"/>
<path d="M80.8017 262.66C80.8017 266.28 77.9817 267.04 75.8017 267.04H69.7817V251.52H75.4017C77.5617 251.52 79.8817 252.48 79.9017 255.56C79.9217 257.36 78.8617 258.58 77.0617 258.92V258.96C79.2617 259.22 80.8017 260.76 80.8017 262.66ZM77.1817 255.86C77.1817 254.24 76.0617 253.76 74.7617 253.76H72.6217V257.86H74.5017C75.8017 257.86 77.1817 257.42 77.1817 255.86ZM77.9617 262.4C77.9617 260.36 76.2417 260.02 74.6817 260.02H72.6217V264.8H75.2017C76.7217 264.8 77.9617 264.2 77.9617 262.4ZM88.9514 255.08V257.66H88.7114C86.4114 257.66 85.3914 259.42 85.3914 261.64V266.68L82.6914 267.1V255.56L85.0914 255.14V257.5C85.4514 256.14 86.9514 255.08 88.7114 255.08H88.9514ZM94.8922 267.3C92.3922 267.36 90.1922 265.8 90.1922 263.02V259.52C90.1922 256.74 92.3322 255.18 94.8722 255.24C96.4922 255.28 97.4722 255.9 98.3122 256.96V255.5L100.992 255.1V267.06L98.3922 267.46V265.66C97.5922 266.78 96.2722 267.26 94.8922 267.3ZM98.2922 259.82C98.2722 258.54 97.1922 257.4 95.4922 257.34C94.1922 257.3 93.0122 258.16 93.0122 259.62V262.94C93.0122 264.4 94.1122 265.22 95.3922 265.18C97.4722 265.12 98.3522 263.68 98.3322 262.06L98.2922 259.82ZM113.906 259.52V266.68L111.206 267.08V260.56C111.206 258.96 111.086 257.18 109.086 257.18C106.766 257.16 106.166 259.38 106.166 261.06V266.68L103.466 267.08V255.54L106.046 255.14V256.9C106.986 255.6 108.426 255.06 109.986 255.06C112.726 255.06 113.906 256.92 113.906 259.52ZM120.616 267.3C118.116 267.36 115.876 265.8 115.876 263.02V259.52C115.876 256.74 118.056 255.18 120.596 255.24C122.216 255.28 123.176 255.9 123.996 256.96V251.3L126.676 250.9V267.06L124.076 267.46V265.66C123.296 266.78 121.996 267.26 120.616 267.3ZM123.976 259.78C123.956 258.5 122.876 257.34 121.076 257.32C119.736 257.3 118.696 258.16 118.696 259.62V262.94C118.696 264.4 119.636 265.24 120.996 265.2C123.096 265.14 124.036 263.72 124.016 262.06L123.976 259.78ZM151.191 251.52V266.84L148.471 267.24V253.8L144.711 266.82L141.971 267.16L138.091 253.8V266.84L135.391 267.24V251.52H139.931L143.311 263.76L146.651 251.52H151.191ZM157.074 250.9V253.58H154.354V250.9H157.074ZM157.054 255.52V266.86L154.374 267.26V255.52H157.054ZM163.69 260.06L165.61 260.08C167.45 260.1 168.77 261.5 168.77 263.46C168.77 265.9 166.89 267.16 164.45 267.16H159.55V265.08H164.05C165.37 265.08 166.19 264.52 166.19 263.52C166.19 262.58 165.71 262.06 164.81 262.06L162.61 262.04C160.89 262.02 159.59 260.58 159.59 258.76C159.59 256.36 161.15 255.28 163.61 255.28H168.05L167.63 257.36H163.89C162.77 257.36 162.17 257.72 162.17 258.66C162.17 259.6 162.75 260.06 163.69 260.06ZM174.569 260.06L176.489 260.08C178.329 260.1 179.649 261.5 179.649 263.46C179.649 265.9 177.769 267.16 175.329 267.16H170.429V265.08H174.929C176.249 265.08 177.069 264.52 177.069 263.52C177.069 262.58 176.589 262.06 175.689 262.06L173.489 262.04C171.769 262.02 170.469 260.58 170.469 258.76C170.469 256.36 172.029 255.28 174.489 255.28H178.929L178.509 257.36H174.769C173.649 257.36 173.049 257.72 173.049 258.66C173.049 259.6 173.629 260.06 174.569 260.06ZM184.828 250.9V253.58H182.108V250.9H184.828ZM184.808 255.52V266.86L182.128 267.26V255.52H184.808ZM197.784 259.46V262.96C197.784 265.48 195.844 267.24 192.644 267.24C189.444 267.24 187.524 265.48 187.524 262.96V259.46C187.524 256.92 189.444 255.08 192.644 255.08C195.844 255.08 197.784 256.92 197.784 259.46ZM195.124 262.72V259.68C195.124 258.2 194.244 257.16 192.644 257.16C191.044 257.16 190.184 258.2 190.184 259.68V262.72C190.184 264.14 191.044 265.16 192.644 265.16C194.244 265.16 195.124 264.14 195.124 262.72ZM210.469 259.52V266.68L207.769 267.08V260.56C207.769 258.96 207.649 257.18 205.649 257.18C203.329 257.16 202.729 259.38 202.729 261.06V266.68L200.029 267.08V255.54L202.609 255.14V256.9C203.549 255.6 204.989 255.06 206.549 255.06C209.289 255.06 210.469 256.92 210.469 259.52Z" fill="white"/>
<rect x="300" y="259.5" width="30" height="1" fill="#C4C4C4"/>
<rect x="350" y="212" width="986" height="96" rx="16" fill="#F4F8FF"/>
<path d="M669.513 235.674V251.564H667.544V235.674H669.513ZM656.347 247.188C660.513 245.21 662.429 242.521 662.78 238.908H657.155V237.361H664.767C664.767 242.09 662.93 246.106 657.366 248.752L656.347 247.188ZM680.042 236.184C680.042 237.88 682.213 239.427 685.526 239.787L684.876 241.264C682.178 240.956 680.042 239.884 679.022 238.337C678.003 239.884 675.867 240.956 673.204 241.264L672.536 239.787C675.867 239.427 678.029 237.88 678.038 236.184V235.762H680.042V236.184ZM671.798 243.602V242.055H686.282V243.602H679.989V244.832H684.472V248.77H675.437V249.93H684.911V251.424H673.521V247.363H682.556V246.326H673.503V244.832H678.038V243.602H671.798ZM696.601 250H692.276V237.273H696.671C700.468 237.273 702.762 239.655 702.771 243.619C702.762 247.601 700.468 250 696.601 250ZM694.562 248.014H696.478C699.141 248.022 700.485 246.555 700.485 243.619C700.485 240.701 699.141 239.251 696.548 239.26H694.562V248.014ZM715.251 237.273V250H713.212L707.183 241.299H707.077V250H704.792V237.273H706.866L712.86 245.975H712.983V237.273H715.251ZM719.224 250H716.78L721.263 237.273H724.075L728.575 250H726.132L725.068 246.854H720.278L719.224 250ZM720.894 245.008H724.453L722.722 239.875H722.616L720.894 245.008ZM743.938 242.881V244.357H729.419V242.881H743.938ZM731.106 246.678V245.307H742.181V248.928H733.075V250.035H742.655V251.389H731.124V247.662H740.247V246.678H731.106ZM731.212 237.379V236.025H742.146V239.611H733.198V240.648H742.427V241.984H731.265V238.346H740.194V237.379H731.212ZM762.536 235.674V251.564H760.567V235.674H762.536ZM749.37 247.188C753.536 245.21 755.452 242.521 755.804 238.908H750.179V237.361H757.79C757.79 242.09 755.953 246.106 750.39 248.752L749.37 247.188ZM777.354 235.691V240.279H779.569V241.896H777.354V247.381H775.403V235.691H777.354ZM765.366 244.797V236.816H767.3V239.242H771.009V236.816H772.942V244.797H765.366ZM767.177 251.248V246.203H769.128V249.666H777.987V251.248H767.177ZM767.3 243.25H771.009V240.754H767.3V243.25ZM787.603 236.57C790.951 236.57 793.535 238.354 793.526 241.053C793.535 243.786 790.951 245.57 787.603 245.57C784.271 245.57 781.705 243.786 781.714 241.053C781.705 238.354 784.271 236.57 787.603 236.57ZM780.378 249.561V247.961H794.897V249.561H780.378ZM783.595 241.053C783.586 242.854 785.291 243.962 787.603 243.971C789.923 243.962 791.61 242.854 791.61 241.053C791.61 239.295 789.923 238.135 787.603 238.152C785.291 238.135 783.586 239.295 783.595 241.053ZM810.454 248.102V249.719H795.935V248.102H802.192V245.518H797.657V240.314H806.798V238.346H797.622V236.764H808.731V241.861H799.608V243.918H809.101V245.518H804.126V248.102H810.454ZM830.282 248.031V249.631H815.763V248.031H822.021V244.568H817.362V236.904H828.612V244.568H823.954V248.031H830.282ZM819.278 243.039H826.679V238.469H819.278V243.039ZM845.821 243.584V245.148H831.319V243.584H845.821ZM833.095 242.143V236.307H844.063V237.854H835.046V240.561H844.204V242.143H833.095ZM833.112 251.23V246.537H835.028V249.648H844.31V251.23H833.112ZM856.104 239.84C856.113 242.406 856.992 245.078 859.146 246.432L858.073 247.926C856.641 247.064 855.709 245.588 855.182 243.856C854.61 245.764 853.591 247.381 852.097 248.295L850.884 246.836C853.195 245.438 854.215 242.635 854.224 239.928V237.08H856.104V239.84ZM857.44 242.758V241.141H859.708V235.955H861.554V250.791H859.708V242.758H857.44ZM862.978 251.564V235.674H864.858V251.564H862.978ZM880.38 235.674V251.564H878.517V243.461H876.724V250.756H874.931V235.973H876.724V241.896H878.517V235.674H880.38ZM867.196 247.855V237.555H873.138V239.137H869.165V246.203C870.888 246.186 872.312 246.098 873.929 245.799L874.069 247.398C872.145 247.785 870.483 247.838 868.269 247.855H867.196ZM887.411 236.781C889.934 236.772 891.771 238.363 891.788 240.613C891.771 242.872 889.934 244.454 887.411 244.463C884.915 244.454 883.043 242.872 883.052 240.613C883.043 238.363 884.915 236.772 887.411 236.781ZM882.331 246.66C885.196 246.66 889.16 246.625 892.597 246.133L892.755 247.557C889.195 248.233 885.381 248.26 882.577 248.26L882.331 246.66ZM884.985 240.613C884.977 241.94 886.022 242.758 887.411 242.758C888.817 242.758 889.863 241.94 889.872 240.613C889.863 239.295 888.826 238.469 887.411 238.469C886.022 238.469 884.977 239.295 884.985 240.613ZM893.546 251.582V235.674H895.497V251.582H893.546ZM908.083 240.191C908.083 242.793 909.612 245.535 912.179 246.607L911.106 248.154C909.226 247.337 907.854 245.676 907.125 243.654C906.396 245.834 904.998 247.662 903.144 248.541L902.019 247.012C904.523 245.852 906.088 242.89 906.097 240.191V238.855H902.599V237.238H911.563V238.855H908.083V240.191ZM913.339 251.564V235.674H915.308V251.564H913.339ZM932.13 243.479V245.061H917.646V243.479H923.903V241.264H925.837V243.479H932.13ZM918.437 240.648C921.715 240.235 923.868 238.434 923.868 236.535V235.938H925.854V236.535C925.854 238.478 927.99 240.235 931.304 240.648L930.548 242.178C927.946 241.782 925.863 240.604 924.853 238.935C923.833 240.596 921.759 241.782 919.14 242.178L918.437 240.648ZM919.245 247.855V246.326H930.354V251.564H928.403V247.855H919.245ZM945.647 235.674V241.879H948.003V243.514H945.647V251.529H943.696V235.674H945.647ZM933.114 247.188C936.981 245.254 939.073 242.564 939.46 238.943H933.976V237.326H941.446C941.438 241.993 939.504 246.098 934.222 248.699L933.114 247.188ZM961.608 239.805V241.387H950.64V235.955H952.591V239.805H961.608ZM948.759 244.498V242.916H963.261V244.498H948.759ZM950.446 248.576C950.446 246.704 952.529 245.649 955.983 245.641C959.411 245.649 961.477 246.704 961.485 248.576C961.477 250.439 959.411 251.494 955.983 251.494C952.529 251.494 950.446 250.439 950.446 248.576ZM952.433 248.576C952.424 249.49 953.672 249.991 955.983 250C958.26 249.991 959.517 249.49 959.534 248.576C959.517 247.636 958.26 247.179 955.983 247.17C953.672 247.179 952.424 247.636 952.433 248.576ZM976.849 235.691V240.684H979.063V242.301H976.849V247.557H974.897V235.691H976.849ZM964.333 239.014V237.449H968.077V235.674H970.028V237.449H973.755V239.014H964.333ZM965.142 242.705C965.142 240.877 966.732 239.664 969.044 239.664C971.338 239.664 972.92 240.877 972.929 242.705C972.92 244.524 971.338 245.711 969.044 245.711C966.732 245.711 965.142 244.524 965.142 242.705ZM966.671 251.248V246.625H968.622V249.666H977.481V251.248H966.671ZM967.04 242.705C967.031 243.663 967.84 244.208 969.044 244.199C970.248 244.208 971.065 243.663 971.065 242.705C971.065 241.738 970.248 241.176 969.044 241.176C967.84 241.176 967.031 241.738 967.04 242.705ZM992.546 237.168V247.697H984.987V237.168H992.546ZM986.921 246.133H990.647V238.697H986.921V246.133ZM995.394 251.582V235.674H997.362V251.582H995.394ZM1006.17 237.291V243.215H1002.06V246.309C1003.66 246.291 1005.2 246.229 1006.98 245.939L1007.12 247.521C1004.97 247.882 1003.23 247.935 1001.26 247.943H1000.17V241.633H1004.29V238.873H1000.16V237.291H1006.17ZM1007.93 250.756V235.973H1009.72V241.773H1011.51V235.674H1013.38V251.564H1011.51V243.355H1009.72V250.756H1007.93ZM1028.97 235.674V251.564H1027.09V235.674H1028.97ZM1015.42 242.547C1015.42 239.049 1016.77 236.878 1018.84 236.887C1020.77 236.878 1022.08 238.68 1022.31 241.65H1023.83V235.955H1025.7V250.791H1023.83V243.232H1022.32C1022.14 246.335 1020.81 248.233 1018.84 248.225C1016.77 248.233 1015.42 246.054 1015.42 242.547ZM1017.23 242.547C1017.22 245.034 1017.83 246.37 1018.84 246.361C1019.9 246.37 1020.52 245.034 1020.53 242.547C1020.52 240.068 1019.9 238.724 1018.84 238.732C1017.83 238.724 1017.22 240.068 1017.23 242.547ZM722.88 275.215V276.762H708.396V275.215H722.88ZM709.89 271.119C709.89 269.221 712.14 268.043 715.62 268.043C719.109 268.043 721.342 269.221 721.351 271.119C721.342 273.044 719.109 274.195 715.62 274.195C712.14 274.195 709.89 273.044 709.89 271.119ZM710.083 280.682C710.083 278.818 712.148 277.79 715.62 277.799C719.039 277.79 721.113 278.818 721.122 280.682C721.113 282.536 719.039 283.573 715.62 283.564C712.148 283.573 710.083 282.536 710.083 280.682ZM711.929 271.119C711.911 272.139 713.3 272.675 715.62 272.666C717.94 272.675 719.329 272.139 719.329 271.119C719.329 270.108 717.94 269.572 715.62 269.572C713.3 269.572 711.911 270.108 711.929 271.119ZM712.069 280.682C712.061 281.587 713.309 282.062 715.62 282.053C717.896 282.062 719.153 281.587 719.171 280.682C719.153 279.75 717.896 279.275 715.62 279.275C713.309 279.275 712.061 279.75 712.069 280.682ZM736.485 267.674V271.207H738.7V272.824H736.485V276.164H734.534V267.674H736.485ZM724.62 275.742V268.658H731.687V270.24H726.554V274.143C729.542 274.134 731.203 274.046 733.093 273.633L733.304 275.215C731.221 275.646 729.375 275.733 725.903 275.742H724.62ZM726.185 283.336V276.955H728.136V278.59H734.534V276.955H736.485V283.336H726.185ZM728.136 281.754H734.534V280.137H728.136V281.754ZM752.042 267.639V271.225H754.274V272.807H752.042V276.305H750.091V267.639H752.042ZM739.526 270.451V268.957H743.271V267.551H745.222V268.957H748.948V270.451H739.526ZM740.335 273.545C740.335 271.963 741.891 270.952 744.237 270.943C746.593 270.952 748.113 271.963 748.122 273.545C748.113 275.171 746.593 276.146 744.237 276.146C741.891 276.146 740.335 275.171 740.335 273.545ZM741.653 278.432V277.008H752.042V280.84H743.604V281.965H752.534V283.424H741.671V279.486H750.091V278.432H741.653ZM742.233 273.545C742.225 274.327 743.007 274.731 744.237 274.74C745.468 274.731 746.259 274.327 746.259 273.545C746.259 272.789 745.468 272.341 744.237 272.35C743.007 272.341 742.225 272.789 742.233 273.545ZM767.616 268.992C767.607 270.987 769.849 273.018 773.241 273.457L772.468 275.039C769.77 274.635 767.625 273.308 766.588 271.515C765.551 273.308 763.415 274.635 760.743 275.039L759.97 273.457C763.327 273.018 765.56 271.005 765.56 268.992V268.184H767.616V268.992ZM759.337 278.027V276.41H773.821V278.027H767.511V283.564H765.577V278.027H759.337ZM784.808 278.01C784.808 279.337 785.414 280.717 786.776 281.596C788.165 280.655 788.807 279.214 788.815 278.01V277.359H790.731V278.01C790.723 279.671 791.707 281.235 793.79 281.895L792.841 283.318C791.294 282.8 790.274 281.789 789.721 280.515C789.202 281.771 788.271 282.879 786.829 283.459C785.317 282.905 784.368 281.833 783.867 280.576C783.296 281.798 782.285 282.791 780.817 283.318L779.851 281.895C781.907 281.174 782.9 279.557 782.909 278.01V277.359H784.808V278.01ZM779.446 272.314C779.446 270.082 781.274 268.535 783.735 268.535C786.188 268.535 788.016 270.082 788.007 272.314C788.016 274.521 786.188 276.085 783.735 276.076C781.274 276.085 779.446 274.521 779.446 272.314ZM781.362 272.314C781.354 273.615 782.347 274.45 783.735 274.459C785.098 274.45 786.091 273.615 786.091 272.314C786.091 271.014 785.098 270.179 783.735 270.188C782.347 270.179 781.354 271.014 781.362 272.314ZM790.433 276.691V267.691H792.401V276.691H790.433ZM807.624 274.898V276.445H802.913V280.084H809.241V281.684H794.722V280.084H800.979V276.445H796.479V268.852H807.501V270.416H798.431V274.898H807.624ZM824.78 276.27V277.852H810.261V276.27H816.554V274.951H812.106V270.732H821.036V269.555H812.054V268.025H822.987V272.156H814.04V273.422H823.304V274.951H818.487V276.27H824.78ZM811.878 280.4V278.854H823.075V283.459H821.106V280.4H811.878ZM844.591 273.809V275.373H830.106V273.809H834.193C834.677 272.121 834.773 270.864 834.791 269.871H831.46V268.307H836.716V269.238C836.707 270.302 836.707 271.84 836.206 273.809H840.486C840.899 272.13 840.979 270.855 840.996 269.871H837.683V268.307H842.921V269.203C842.912 270.258 842.912 271.787 842.455 273.809H844.591ZM831.724 283.125V277.166H833.622V281.534C834.554 281.481 835.564 281.35 836.61 281.051L836.839 282.633C835.283 283.055 833.903 283.134 832.567 283.125H831.724ZM836.505 278.73V277.271H839.212V276.076H841.128V277.271H843.765V278.73H836.505ZM837.296 281.385C837.296 280.075 838.518 279.214 840.179 279.205C841.813 279.214 843.026 280.075 843.026 281.385C843.026 282.729 841.813 283.556 840.179 283.564C838.518 283.556 837.296 282.729 837.296 281.385ZM838.966 281.385C838.957 281.93 839.467 282.211 840.179 282.211C840.873 282.211 841.374 281.93 841.374 281.385C841.374 280.849 840.873 280.559 840.179 280.541C839.467 280.559 838.957 280.849 838.966 281.385ZM858.899 267.691V276.691H856.931V267.691H858.899ZM845.944 272.244C845.944 270.003 847.772 268.456 850.233 268.447C852.686 268.456 854.514 270.003 854.505 272.244C854.514 274.433 852.686 276.006 850.233 276.006C847.772 276.006 845.944 274.433 845.944 272.244ZM847.86 272.244C847.852 273.527 848.845 274.362 850.233 274.354C851.596 274.362 852.589 273.527 852.589 272.244C852.589 270.926 851.596 270.1 850.233 270.1C848.845 270.1 847.852 270.926 847.86 272.244ZM848.353 283.371V277.465H858.899V283.371H848.353ZM850.286 281.789H856.983V279.012H850.286V281.789ZM864.823 276.973V278.678H866.915V276.973H868.726V282.018C870.598 281.227 871.45 279.636 871.45 278.115V276.85H873.401V278.115C873.393 279.759 874.254 281.367 876.214 282.035L875.212 283.494C873.806 282.984 872.909 282.026 872.408 280.822C871.881 281.991 870.976 282.967 869.657 283.494L868.726 282.114V283.371H862.995V276.973H864.823ZM861.431 272.016C861.431 269.845 863.197 268.315 865.632 268.324C867.68 268.315 869.297 269.467 869.701 271.189H872.575V267.674H874.526V276.094H872.575V272.807H869.71C869.323 274.573 867.697 275.742 865.632 275.742C863.197 275.742 861.431 274.222 861.431 272.016ZM863.294 272.016C863.294 273.299 864.261 274.143 865.632 274.143C866.968 274.143 867.926 273.299 867.935 272.016C867.926 270.759 866.968 269.933 865.632 269.941C864.261 269.933 863.294 270.759 863.294 272.016ZM864.823 281.877H866.915V280.137H864.823V281.877ZM889.644 272.174V273.721H878.64V268.254H880.573V272.174H889.644ZM876.759 277.113V275.566H891.278V277.113H876.759ZM878.499 283.195V278.52H880.45V281.613H889.749V283.195H878.499ZM905.517 269.133V270.68H896.64V269.133H900.19V267.533H902.142V269.133H905.517ZM897.466 274.389C897.457 272.604 899.021 271.365 901.14 271.365C903.284 271.365 904.857 272.604 904.866 274.389C904.857 276.129 903.284 277.386 901.14 277.395C899.021 277.386 897.457 276.129 897.466 274.389ZM899.083 280.119V278.572H909.911V283.564H907.96V280.119H899.083ZM899.294 274.389C899.285 275.294 900.05 275.883 901.14 275.883C902.238 275.883 903.038 275.294 903.038 274.389C903.038 273.439 902.238 272.842 901.14 272.842C900.05 272.842 899.285 273.439 899.294 274.389ZM905.604 275.971V274.389H907.96V272.912H905.622V271.365H907.96V267.674H909.911V277.764H907.96V275.971H905.604ZM925.397 267.691V279.293H923.429V267.691H925.397ZM912.179 275.549C914.754 274.644 916.072 272.402 916.063 270.117V268.57H918.085V270.117C918.076 272.332 919.377 274.424 921.899 275.268L920.897 276.814C919.087 276.182 917.795 274.916 917.092 273.29C916.389 275.03 915.07 276.419 913.198 277.096L912.179 275.549ZM914.886 283.248V278.186H916.854V281.666H925.837V283.248H914.886ZM936.595 269.326V270.451C936.595 271.866 936.595 273.87 936.155 276.604L934.222 276.445C934.608 274.037 934.652 272.253 934.661 270.891H928.421V269.326H936.595ZM927.577 278.66C928.518 278.651 929.563 278.643 930.653 278.616V273.861H932.587V278.555C934.204 278.484 935.865 278.37 937.386 278.186L937.491 279.645C934.213 280.181 930.574 280.242 927.771 280.225L927.577 278.66ZM938.212 283.564V267.674H940.181V274.143H942.483V275.795H940.181V283.564H938.212ZM960.466 274.652V276.234H955.772V280.084H962.065V281.666H947.546V280.084H953.804V276.234H949.216V268.939H951.22V274.652H960.466ZM970.696 268.623V273.404H965.687V275.355C968.244 275.355 969.694 275.285 971.382 274.969L971.575 276.551C969.677 276.876 968.033 276.92 964.913 276.92H963.753V271.945H968.745V270.17H963.718V268.623H970.696ZM965.546 279.785V278.221H976.409V283.564H974.458V279.785H965.546ZM971.646 274.846V273.281H974.458V271.506H971.646V269.941H974.458V267.691H976.409V277.465H974.458V274.846H971.646Z" fill="#1B4B66"/>
<rect y="318" width="280" height="96" rx="16" fill="#1B4B66"/>
<path d="M89.1227 370.74L88.7227 373.04H79.5627V357.52H88.8827V359.8H82.4027V363.86H88.4027V366.18H82.4027V370.74H89.1227ZM95.1948 364.04H97.9348C100.135 364.04 101.695 365.8 101.695 368.28C101.695 371.54 99.4548 373.04 96.1548 373.04H91.0148V370.74H95.9148C97.6948 370.74 98.8548 370.1 98.8548 368.42C98.8548 367.14 98.1948 366.32 97.1948 366.32H94.7348C92.4148 366.32 90.7348 364.56 90.7348 362.16C90.7348 358.98 92.5348 357.52 95.8548 357.52H100.675L100.255 359.8H96.0948C94.5148 359.8 93.5548 360.42 93.5548 362.02C93.5548 363.3 94.1348 364.04 95.1948 364.04ZM111.587 373.16H109.887C105.447 373.16 103.327 371.26 103.327 367.24V363.44C103.327 359.56 105.507 357.52 109.867 357.52H114.147L113.727 359.86H110.047C107.127 359.86 106.147 361.42 106.147 363.86V366.8C106.147 369.4 106.947 370.84 109.967 370.84H111.587V366.5H109.007V364.26H114.327V372.76L111.587 373.16ZM131.955 370.74L131.555 373.04H122.395V357.52H131.715V359.8H125.235V363.86H131.235V366.18H125.235V370.74H131.955ZM138.007 366.06L139.927 366.08C141.767 366.1 143.087 367.5 143.087 369.46C143.087 371.9 141.207 373.16 138.767 373.16H133.867V371.08H138.367C139.687 371.08 140.507 370.52 140.507 369.52C140.507 368.58 140.027 368.06 139.127 368.06L136.927 368.04C135.207 368.02 133.907 366.58 133.907 364.76C133.907 362.36 135.467 361.28 137.927 361.28H142.367L141.947 363.36H138.207C137.087 363.36 136.487 363.72 136.487 364.66C136.487 365.6 137.067 366.06 138.007 366.06ZM148.886 366.06L150.806 366.08C152.646 366.1 153.966 367.5 153.966 369.46C153.966 371.9 152.086 373.16 149.646 373.16H144.746V371.08H149.246C150.566 371.08 151.386 370.52 151.386 369.52C151.386 368.58 150.906 368.06 150.006 368.06L147.806 368.04C146.086 368.02 144.786 366.58 144.786 364.76C144.786 362.36 146.346 361.28 148.806 361.28H153.246L152.826 363.36H149.086C147.966 363.36 147.366 363.72 147.366 364.66C147.366 365.6 147.946 366.06 148.886 366.06ZM165.725 368.16H158.205V368.88C158.205 370.48 159.005 371.12 161.005 371.12H165.225L164.825 373.16H160.885C157.405 373.16 155.665 371.58 155.665 368.78V365.78C155.665 363.3 157.705 361.08 160.845 361.08C163.625 361.08 165.725 362.96 165.725 365.66V368.16ZM158.205 365.96V366.28H163.205V365.62C163.205 364.02 162.305 363.12 160.845 363.12C159.085 363.12 158.205 364.28 158.205 365.96ZM178.242 365.52V372.68L175.542 373.08V366.56C175.542 364.96 175.422 363.18 173.422 363.18C171.102 363.16 170.502 365.38 170.502 367.06V372.68L167.802 373.08V361.54L170.382 361.14V362.9C171.322 361.6 172.762 361.06 174.322 361.06C177.062 361.06 178.242 362.92 178.242 365.52ZM180.392 365.7C180.392 362.76 182.492 361.08 185.452 361.08H188.852V363.2H185.732C184.412 363.2 183.212 364.1 183.212 365.88V368.44C183.212 369.94 183.972 371.04 185.692 371.04H189.192L188.792 373.16H185.412C182.172 373.16 180.392 371.26 180.392 368.54V365.7ZM200.92 368.16H193.4V368.88C193.4 370.48 194.2 371.12 196.2 371.12H200.42L200.02 373.16H196.08C192.6 373.16 190.86 371.58 190.86 368.78V365.78C190.86 363.3 192.9 361.08 196.04 361.08C198.82 361.08 200.92 362.96 200.92 365.66V368.16ZM193.4 365.96V366.28H198.4V365.62C198.4 364.02 197.5 363.12 196.04 363.12C194.28 363.12 193.4 364.28 193.4 365.96Z" fill="white"/>
<rect x="300" y="365.5" width="30" height="1" fill="#C4C4C4"/>
<rect x="350" y="318" width="986" height="96" rx="16" fill="#F4F8FF"/>
<path d="M756.164 370.031V371.631H741.645V370.031H747.902V366.568H743.244V358.904H754.494V366.568H749.836V370.031H756.164ZM745.16 365.039H752.561V360.469H745.16V365.039ZM771.703 365.584V367.148H757.201V365.584H771.703ZM758.977 364.143V358.307H769.945V359.854H760.928V362.561H770.086V364.143H758.977ZM758.994 373.23V368.537H760.91V371.648H770.191V373.23H758.994ZM781.986 361.84C781.995 364.406 782.874 367.078 785.027 368.432L783.955 369.926C782.522 369.064 781.591 367.588 781.063 365.856C780.492 367.764 779.473 369.381 777.979 370.295L776.766 368.836C779.077 367.438 780.097 364.635 780.105 361.928V359.08H781.986V361.84ZM783.322 364.758V363.141H785.59V357.955H787.436V372.791H785.59V364.758H783.322ZM788.859 373.564V357.674H790.74V373.564H788.859ZM806.262 357.674V373.564H804.398V365.461H802.605V372.756H800.812V357.973H802.605V363.896H804.398V357.674H806.262ZM793.078 369.855V359.555H799.02V361.137H795.047V368.203C796.77 368.186 798.193 368.098 799.811 367.799L799.951 369.398C798.026 369.785 796.365 369.838 794.15 369.855H793.078ZM813.293 358.781C815.815 358.772 817.652 360.363 817.67 362.613C817.652 364.872 815.815 366.454 813.293 366.463C810.797 366.454 808.925 364.872 808.934 362.613C808.925 360.363 810.797 358.772 813.293 358.781ZM808.213 368.66C811.078 368.66 815.042 368.625 818.479 368.133L818.637 369.557C815.077 370.233 811.263 370.26 808.459 370.26L808.213 368.66ZM810.867 362.613C810.858 363.94 811.904 364.758 813.293 364.758C814.699 364.758 815.745 363.94 815.754 362.613C815.745 361.295 814.708 360.469 813.293 360.469C811.904 360.469 810.858 361.295 810.867 362.613ZM819.428 373.582V357.674H821.379V373.582H819.428ZM836.373 359.168V369.697H828.814V359.168H836.373ZM830.748 368.133H834.475V360.697H830.748V368.133ZM839.221 373.582V357.674H841.189V373.582H839.221ZM849.996 359.291V365.215H845.883V368.309C847.491 368.291 849.029 368.229 850.805 367.939L850.945 369.521C848.801 369.882 847.061 369.935 845.092 369.943H844.002V363.633H848.115V360.873H843.984V359.291H849.996ZM851.754 372.756V357.973H853.547V363.773H855.34V357.674H857.203V373.564H855.34V365.355H853.547V372.756H851.754ZM873.586 364.881V366.357H859.066V364.881H873.586ZM860.754 368.678V367.307H871.828V370.928H862.723V372.035H872.303V373.389H860.771V369.662H869.895V368.678H860.754ZM860.859 359.379V358.025H871.793V361.611H862.846V362.648H872.074V363.984H860.912V360.346H869.842V359.379H860.859ZM884.098 358.377C886.515 358.368 888.264 359.722 888.264 361.717C888.264 363.677 886.515 365.048 884.098 365.039C881.707 365.048 879.967 363.677 879.967 361.717C879.967 359.722 881.707 358.368 884.098 358.377ZM878.93 366.129C881.795 366.129 885.812 366.076 889.23 365.566L889.371 367.008C888 367.271 886.576 367.438 885.188 367.544V373.072H883.219V367.658C881.751 367.72 880.371 367.737 879.176 367.746L878.93 366.129ZM881.865 361.717C881.856 362.78 882.797 363.448 884.098 363.439C885.451 363.448 886.4 362.78 886.4 361.717C886.4 360.618 885.451 359.941 884.098 359.959C882.797 359.941 881.856 360.618 881.865 361.717ZM890.268 373.547V357.691H892.201V373.547H890.268ZM907.002 357.691V362.684H909.217V364.301H907.002V369.557H905.051V357.691H907.002ZM894.486 361.014V359.449H898.23V357.674H900.182V359.449H903.908V361.014H894.486ZM895.295 364.705C895.295 362.877 896.886 361.664 899.197 361.664C901.491 361.664 903.073 362.877 903.082 364.705C903.073 366.524 901.491 367.711 899.197 367.711C896.886 367.711 895.295 366.524 895.295 364.705ZM896.824 373.248V368.625H898.775V371.666H907.635V373.248H896.824ZM897.193 364.705C897.185 365.663 897.993 366.208 899.197 366.199C900.401 366.208 901.219 365.663 901.219 364.705C901.219 363.738 900.401 363.176 899.197 363.176C897.993 363.176 897.185 363.738 897.193 364.705ZM928.781 365.215V366.762H914.297V365.215H928.781ZM915.791 361.119C915.791 359.221 918.041 358.043 921.521 358.043C925.011 358.043 927.243 359.221 927.252 361.119C927.243 363.044 925.011 364.195 921.521 364.195C918.041 364.195 915.791 363.044 915.791 361.119ZM915.984 370.682C915.984 368.818 918.05 367.79 921.521 367.799C924.94 367.79 927.015 368.818 927.023 370.682C927.015 372.536 924.94 373.573 921.521 373.564C918.05 373.573 915.984 372.536 915.984 370.682ZM917.83 361.119C917.812 362.139 919.201 362.675 921.521 362.666C923.842 362.675 925.23 362.139 925.23 361.119C925.23 360.108 923.842 359.572 921.521 359.572C919.201 359.572 917.812 360.108 917.83 361.119ZM917.971 370.682C917.962 371.587 919.21 372.062 921.521 372.053C923.798 372.062 925.055 371.587 925.072 370.682C925.055 369.75 923.798 369.275 921.521 369.275C919.21 369.275 917.962 369.75 917.971 370.682ZM942.387 357.674V361.207H944.602V362.824H942.387V366.164H940.436V357.674H942.387ZM930.521 365.742V358.658H937.588V360.24H932.455V364.143C935.443 364.134 937.104 364.046 938.994 363.633L939.205 365.215C937.122 365.646 935.276 365.733 931.805 365.742H930.521ZM932.086 373.336V366.955H934.037V368.59H940.436V366.955H942.387V373.336H932.086ZM934.037 371.754H940.436V370.137H934.037V371.754Z" fill="#1B4B66"/>
<rect y="424" width="280" height="96" rx="16" fill="#1B4B66"/>
<path d="M87.059 479.12H82.899C78.659 479.12 76.579 477.2 76.579 473.14V469.5C76.579 465.56 78.919 463.52 82.839 463.52H86.859V465.86H83.219C80.599 465.86 79.399 467.12 79.399 469.92V472.7C79.399 475.14 80.179 476.8 83.199 476.8H87.459L87.059 479.12ZM99.6887 471.46V474.96C99.6887 477.48 97.7487 479.24 94.5487 479.24C91.3487 479.24 89.4287 477.48 89.4287 474.96V471.46C89.4287 468.92 91.3487 467.08 94.5487 467.08C97.7487 467.08 99.6887 468.92 99.6887 471.46ZM97.0287 474.72V471.68C97.0287 470.2 96.1487 469.16 94.5487 469.16C92.9487 469.16 92.0887 470.2 92.0887 471.68V474.72C92.0887 476.14 92.9487 477.16 94.5487 477.16C96.1487 477.16 97.0287 476.14 97.0287 474.72ZM108.473 467.08V469.66H108.233C105.933 469.66 104.913 471.42 104.913 473.64V478.68L102.213 479.1V467.56L104.613 467.14V469.5C104.973 468.14 106.473 467.08 108.233 467.08H108.473ZM119.582 474.16H112.062V474.88C112.062 476.48 112.862 477.12 114.862 477.12H119.082L118.682 479.16H114.742C111.262 479.16 109.522 477.58 109.522 474.78V471.78C109.522 469.3 111.562 467.08 114.702 467.08C117.482 467.08 119.582 468.96 119.582 471.66V474.16ZM112.062 471.96V472.28H117.062V471.62C117.062 470.02 116.162 469.12 114.702 469.12C112.942 469.12 112.062 470.28 112.062 471.96ZM130.705 463.32V478.84L127.885 479.24V463.72L130.705 463.32ZM137.969 479.3C135.469 479.36 133.229 477.8 133.229 475.02V471.52C133.229 468.74 135.409 467.18 137.949 467.24C139.569 467.28 140.529 467.9 141.349 468.96V463.3L144.029 462.9V479.06L141.429 479.46V477.66C140.649 478.78 139.349 479.26 137.969 479.3ZM141.329 471.78C141.309 470.5 140.229 469.34 138.429 469.32C137.089 469.3 136.049 470.16 136.049 471.62V474.94C136.049 476.4 136.989 477.24 138.349 477.2C140.449 477.14 141.389 475.72 141.369 474.06L141.329 471.78ZM156.379 474.16H148.859V474.88C148.859 476.48 149.659 477.12 151.659 477.12H155.879L155.479 479.16H151.539C148.059 479.16 146.319 477.58 146.319 474.78V471.78C146.319 469.3 148.359 467.08 151.499 467.08C154.279 467.08 156.379 468.96 156.379 471.66V474.16ZM148.859 471.96V472.28H153.859V471.62C153.859 470.02 152.959 469.12 151.499 469.12C149.739 469.12 148.859 470.28 148.859 471.96ZM168.896 471.52V478.68L166.196 479.08V472.56C166.196 470.96 166.076 469.18 164.076 469.18C161.756 469.16 161.156 471.38 161.156 473.06V478.68L158.456 479.08V467.54L161.036 467.14V468.9C161.976 467.6 163.416 467.06 164.976 467.06C167.716 467.06 168.896 468.92 168.896 471.52ZM170.546 467.46H172.386V465.12L175.106 464.54V467.46H178.086L177.686 469.54H175.106V475.26C175.106 476.28 175.466 477.14 176.506 477.14H178.106L177.706 479.26H175.866C173.646 479.26 172.386 477.94 172.386 475.74V469.54H170.546V467.46ZM182.807 462.9V465.58H180.087V462.9H182.807ZM182.787 467.52V478.86L180.107 479.26V467.52H182.787ZM184.843 467.46H186.683V465.12L189.403 464.54V467.46H192.383L191.983 469.54H189.403V475.26C189.403 476.28 189.763 477.14 190.803 477.14H192.403L192.003 479.26H190.163C187.943 479.26 186.683 477.94 186.683 475.74V469.54H184.843V467.46ZM201.604 467.44H204.324L200.104 478.52C199.284 480.7 198.404 482.86 195.604 482.86H193.904V480.76H195.264C196.544 480.76 197.264 479.44 197.404 478.5L193.004 467.44H195.964L198.804 475.5L201.604 467.44Z" fill="white"/>
<rect x="300" y="471.5" width="30" height="1" fill="#C4C4C4"/>
<rect x="350" y="424" width="237.5" height="96" rx="16" fill="#F4F8FF"/>
<path d="M432.671 451.189V449.273H442.813V451.189H438.894V462H436.608V451.189H432.671ZM447.349 462.193C444.475 462.193 442.708 460.277 442.708 457.289C442.708 454.336 444.501 452.332 447.226 452.332C449.563 452.332 451.585 453.8 451.585 457.148V457.852H444.923C444.958 459.478 445.916 460.444 447.366 460.436C448.351 460.444 449.01 460.022 449.3 459.451H451.497C451.093 461.104 449.563 462.193 447.349 462.193ZM444.932 456.322H449.44C449.432 455.021 448.553 454.072 447.261 454.072C445.916 454.072 445.011 455.109 444.932 456.322ZM452.886 459.311C452.886 457.166 454.67 456.542 456.437 456.428C457.104 456.375 458.467 456.313 458.889 456.296L458.88 455.531C458.88 454.582 458.273 454.037 457.157 454.037C456.155 454.037 455.54 454.494 455.364 455.18H453.202C453.36 453.554 454.819 452.332 457.21 452.332C459.021 452.332 461.112 453.079 461.112 455.619V462H458.968V460.682H458.897C458.476 461.49 457.588 462.193 456.085 462.193C454.266 462.193 452.886 461.2 452.886 459.311ZM455.048 459.293C455.048 460.119 455.725 460.541 456.665 460.541C458.027 460.541 458.897 459.645 458.897 458.572L458.889 457.79C458.484 457.808 457.236 457.887 456.788 457.922C455.725 458.01 455.048 458.458 455.048 459.293ZM463.222 462V452.455H465.366V454.072H465.489C465.885 452.982 466.843 452.332 468.108 452.332C469.4 452.332 470.332 452.991 470.692 454.072H470.798C471.211 453.018 472.274 452.332 473.663 452.332C475.412 452.332 476.643 453.457 476.634 455.584V462H474.401V455.936C474.401 454.749 473.681 454.213 472.767 454.213C471.668 454.213 471.026 454.96 471.026 456.041V462H468.847V455.848C468.838 454.854 468.188 454.213 467.229 454.213C466.263 454.213 465.472 455.013 465.472 456.199V462H463.222ZM491.188 449.273H493.491V457.588C493.482 460.321 491.426 462.193 488.323 462.193C485.203 462.193 483.164 460.321 483.155 457.588V449.273H485.44V457.395C485.449 459.003 486.565 460.146 488.323 460.154C490.081 460.146 491.188 459.003 491.188 457.395V449.273ZM495.741 465.586V452.455H497.938V454.02H498.079C498.422 453.343 499.125 452.332 500.821 452.332C503.019 452.332 504.75 454.055 504.759 457.236C504.75 460.374 503.071 462.167 500.821 462.176C499.178 462.167 498.431 461.191 498.079 460.488H497.991V465.586H495.741ZM497.938 457.219C497.947 459.082 498.756 460.33 500.206 460.33C501.691 460.33 502.474 459.021 502.474 457.219C502.474 455.443 501.709 454.169 500.206 454.16C498.738 454.169 497.947 455.364 497.938 457.219ZM432.381 489.148C432.381 485.844 433.365 483.084 435.018 480.729H437.127C435.914 482.478 434.701 486.002 434.701 489.148C434.701 492.295 435.914 495.828 437.127 497.586H435.018C433.365 495.213 432.381 492.462 432.381 489.148ZM446.408 480.693C446.408 482.565 448.614 484.508 451.857 484.965L451.119 486.512C448.509 486.107 446.426 484.842 445.415 483.128C444.396 484.859 442.295 486.143 439.693 486.547L438.955 485.018C442.198 484.534 444.396 482.627 444.404 480.693V480.078H446.408V480.693ZM438.146 489.148V487.566H452.666V489.148H446.531V492.049H444.598V489.148H438.146ZM439.904 495.248V490.625H441.855V493.666H451.066V495.248H439.904ZM466.307 479.674V485H468.451V486.617H466.307V492.084H464.355V479.674H466.307ZM453.58 488.902C454.767 488.902 456.146 488.894 457.588 488.85V487.839C455.821 487.619 454.696 486.749 454.705 485.475C454.696 483.919 456.234 482.996 458.537 483.014C460.849 482.996 462.369 483.919 462.369 485.475C462.369 486.74 461.279 487.602 459.539 487.839V488.753C460.893 488.674 462.255 488.551 463.529 488.357L463.688 489.729C460.321 490.361 456.533 490.405 453.791 490.432L453.58 488.902ZM453.984 482.486V481.062H457.588V479.621H459.539V481.062H463.107V482.486H453.984ZM455.865 495.248V491.258H457.816V493.666H466.869V495.248H455.865ZM456.586 485.475C456.568 486.16 457.307 486.564 458.537 486.564C459.768 486.564 460.506 486.16 460.506 485.475C460.506 484.728 459.768 484.323 458.537 484.332C457.307 484.323 456.568 484.728 456.586 485.475ZM482.584 479.691V488.973H480.633V487.215H476.854V485.633H480.633V483.928H477.003C476.001 486.45 473.681 488.217 470.227 489.184L469.436 487.637C473.153 486.635 475.14 484.745 475.438 482.381H470.279V480.799H477.574C477.574 481.353 477.53 481.88 477.442 482.381H480.633V479.691H482.584ZM471.932 492.312C471.932 490.361 474.067 489.157 477.328 489.148C480.545 489.157 482.689 490.361 482.689 492.312C482.689 494.264 480.545 495.485 477.328 495.477C474.067 495.485 471.932 494.264 471.932 492.312ZM473.883 492.312C473.883 493.358 475.192 493.93 477.328 493.93C479.429 493.93 480.729 493.358 480.738 492.312C480.729 491.249 479.429 490.678 477.328 490.678C475.192 490.678 473.883 491.249 473.883 492.312ZM498.51 479.674V495.564H496.646V479.674H498.51ZM484.553 491.047C486.847 489.649 487.857 486.784 487.857 484.016V482.961H485.098V481.379H492.305V482.961H489.738V484.016C489.738 486.696 490.696 489.386 492.973 490.695L491.812 492.137C490.345 491.267 489.369 489.755 488.815 487.944C488.253 489.904 487.242 491.574 485.748 492.506L484.553 491.047ZM491.145 486.793V485.211H493.43V479.973H495.275V494.791H493.43V486.793H491.145ZM505.119 489.148C505.119 492.462 504.135 495.213 502.482 497.586H500.373C501.586 495.828 502.799 492.295 502.799 489.148C502.799 486.002 501.586 482.478 500.373 480.729H502.482C504.135 483.084 505.119 485.844 505.119 489.148Z" fill="#1B4B66"/>
<rect x="599.5" y="424" width="237.5" height="96" rx="16" fill="#F4F8FF"/>
<path d="M666.746 462H664.303L668.785 449.273H671.598L676.098 462H673.654L672.591 458.854H667.801L666.746 462ZM668.416 457.008H671.976L670.244 451.875H670.139L668.416 457.008ZM681.371 462.193C678.523 462.193 676.801 460.154 676.801 457.271C676.801 454.345 678.576 452.332 681.371 452.332C683.683 452.332 685.309 453.686 685.467 455.742H683.322C683.146 454.828 682.479 454.134 681.389 454.125C680 454.134 679.068 455.294 679.068 457.219C679.068 459.188 679.982 460.356 681.389 460.365C682.382 460.356 683.12 459.776 683.322 458.748H685.467C685.3 460.761 683.771 462.193 681.371 462.193ZM691.918 452.455V454.178H690.037V459.135C690.037 460.049 690.494 460.233 691.057 460.242C691.32 460.251 691.76 460.225 692.041 460.207V462.035C691.777 462.079 691.347 462.132 690.775 462.123C689.088 462.132 687.787 461.297 687.805 459.504V454.178H686.434V452.455H687.805V450.17H690.037V452.455H691.918ZM697.455 451.189V449.273H707.598V451.189H703.678V462H701.393V451.189H697.455ZM712.062 462.193C709.276 462.193 707.492 460.216 707.492 457.271C707.492 454.301 709.276 452.332 712.062 452.332C714.857 452.332 716.642 454.301 716.633 457.271C716.642 460.216 714.857 462.193 712.062 462.193ZM709.76 457.254C709.76 459.003 710.524 460.4 712.08 460.4C713.609 460.4 714.374 459.003 714.365 457.254C714.374 455.505 713.609 454.099 712.08 454.107C710.524 454.099 709.76 455.505 709.76 457.254ZM722.539 465.779C720.008 465.779 718.399 464.654 718.25 462.861H720.482C720.641 463.696 721.423 464.083 722.574 464.092C723.919 464.083 724.789 463.503 724.789 462.105V460.277H724.684C724.332 460.98 723.567 461.859 721.924 461.859C719.718 461.859 717.986 460.26 717.986 457.148C717.986 454.011 719.727 452.332 721.941 452.332C723.62 452.332 724.332 453.343 724.684 454.02H724.789V452.455H727.004V462.158C727.004 464.602 725.114 465.779 722.539 465.779ZM720.271 457.184C720.271 458.941 721.062 460.102 722.539 460.102C723.989 460.102 724.807 459.012 724.807 457.184C724.807 455.364 723.998 454.169 722.539 454.16C721.045 454.169 720.271 455.443 720.271 457.184ZM733.385 462.193C730.511 462.193 728.744 460.277 728.744 457.289C728.744 454.336 730.537 452.332 733.262 452.332C735.6 452.332 737.621 453.8 737.621 457.148V457.852H730.959C730.994 459.478 731.952 460.444 733.402 460.436C734.387 460.444 735.046 460.022 735.336 459.451H737.533C737.129 461.104 735.6 462.193 733.385 462.193ZM730.968 456.322H735.477C735.468 455.021 734.589 454.072 733.297 454.072C731.952 454.072 731.047 455.109 730.968 456.322ZM744.125 452.455V454.178H742.244V459.135C742.244 460.049 742.701 460.233 743.264 460.242C743.527 460.251 743.967 460.225 744.248 460.207V462.035C743.984 462.079 743.554 462.132 742.982 462.123C741.295 462.132 739.994 461.297 740.012 459.504V454.178H738.641V452.455H740.012V450.17H742.244V452.455H744.125ZM748.309 456.41V462H746.059V449.273H748.256V454.072H748.379C748.81 452.991 749.741 452.332 751.209 452.332C753.187 452.332 754.496 453.615 754.496 455.918V462H752.264V456.27C752.255 454.969 751.561 454.222 750.383 454.23C749.17 454.222 748.309 455.021 748.309 456.41ZM760.859 462.193C757.985 462.193 756.219 460.277 756.219 457.289C756.219 454.336 758.012 452.332 760.736 452.332C763.074 452.332 765.096 453.8 765.096 457.148V457.852H758.434C758.469 459.478 759.427 460.444 760.877 460.436C761.861 460.444 762.521 460.022 762.811 459.451H765.008C764.604 461.104 763.074 462.193 760.859 462.193ZM758.442 456.322H762.951C762.942 455.021 762.063 454.072 760.771 454.072C759.427 454.072 758.521 455.109 758.442 456.322ZM766.836 462V452.455H769.016V454.037H769.121C769.464 452.938 770.378 452.314 771.477 452.314C771.723 452.314 772.074 452.341 772.285 452.367V454.441C772.083 454.371 771.617 454.31 771.248 454.301C770 454.31 769.086 455.171 769.086 456.375V462H766.836ZM681.881 489.148C681.881 485.844 682.865 483.084 684.518 480.729H686.627C685.414 482.478 684.201 486.002 684.201 489.148C684.201 492.295 685.414 495.828 686.627 497.586H684.518C682.865 495.213 681.881 492.462 681.881 489.148ZM695.75 480.922V482.469H690.266V484.244H695.434V485.791H690.266V487.646C693.043 487.628 694.722 487.549 696.664 487.215L696.875 488.744C694.722 489.148 692.823 489.219 689.58 489.219H688.314V480.922H695.75ZM690.02 495.248V490.361H691.971V493.666H700.83V495.248H690.02ZM698.246 491.434V479.674H700.197V484.455H702.412V486.072H700.197V491.434H698.246ZM717.74 492.014V493.596H703.221V492.014H709.443V488.34H711.377V492.014H717.74ZM703.643 487.109C706.965 486.573 709.347 484.191 709.355 481.801V480.641H711.43V481.801C711.43 484.2 713.829 486.573 717.178 487.109L716.334 488.727C713.653 488.217 711.447 486.679 710.393 484.596C709.347 486.67 707.167 488.226 704.486 488.727L703.643 487.109ZM731.311 479.674V483.295H733.525V484.895H731.311V488.604H729.359V479.674H731.311ZM718.654 487.338C722.337 486.397 724.429 484.517 724.771 482.223H719.41V480.641H726.898C726.89 484.771 724.183 487.628 719.428 488.902L718.654 487.338ZM721.027 495.354V489.236H731.311V495.354H721.027ZM722.979 493.807H729.377V490.836H722.979V493.807ZM748.818 487.549V489.113H742.525V490.625H747.043V495.529H745.092V492.189H735.934V490.625H740.592V489.113H734.334V487.549H748.818ZM735.02 485.404C738.351 485.149 740.223 484.051 740.442 482.697H735.758V481.168H740.592V479.656H742.525V481.168H747.395V482.697H742.666C742.877 484.051 744.749 485.149 748.098 485.404L747.482 486.881C744.644 486.652 742.543 485.773 741.559 484.385C740.557 485.773 738.456 486.652 735.635 486.881L735.02 485.404ZM754.619 489.148C754.619 492.462 753.635 495.213 751.982 497.586H749.873C751.086 495.828 752.299 492.295 752.299 489.148C752.299 486.002 751.086 482.478 749.873 480.729H751.982C753.635 483.084 754.619 485.844 754.619 489.148Z" fill="#1B4B66"/>
<rect x="849" y="424" width="237.5" height="96" rx="16" fill="#F4F8FF"/>
<path d="M919.771 462V449.273H924.64C927.399 449.273 928.762 450.68 928.771 452.578C928.762 454.125 927.786 454.986 926.538 455.285V455.408C927.892 455.479 929.263 456.604 929.263 458.537C929.263 460.515 927.83 462 924.921 462H919.771ZM922.056 460.084H924.569C926.239 460.084 926.934 459.372 926.942 458.361C926.934 457.219 926.046 456.349 924.622 456.34H922.056V460.084ZM922.056 454.688H924.358C925.562 454.688 926.477 453.993 926.485 452.859C926.477 451.884 925.773 451.172 924.411 451.172H922.056V454.688ZM935.257 462.193C932.383 462.193 930.616 460.277 930.616 457.289C930.616 454.336 932.409 452.332 935.134 452.332C937.472 452.332 939.493 453.8 939.493 457.148V457.852H932.831C932.866 459.478 933.824 460.444 935.274 460.436C936.259 460.444 936.918 460.022 937.208 459.451H939.405C939.001 461.104 937.472 462.193 935.257 462.193ZM932.84 456.322H937.349C937.34 455.021 936.461 454.072 935.169 454.072C933.824 454.072 932.919 455.109 932.84 456.322ZM946.647 455.18C946.507 454.459 945.909 453.993 944.96 454.002C944.002 453.993 943.299 454.477 943.308 455.127C943.299 455.619 943.694 455.988 944.661 456.217L946.278 456.551C948.08 456.946 948.959 457.781 948.968 459.152C948.959 460.945 947.386 462.193 944.89 462.193C942.464 462.193 941.031 461.104 940.794 459.275H943.079C943.211 460.093 943.844 460.497 944.89 460.488C945.971 460.497 946.674 460.058 946.683 459.346C946.674 458.792 946.243 458.44 945.294 458.238L943.765 457.904C941.989 457.544 941.066 456.612 941.075 455.25C941.066 453.483 942.596 452.332 944.925 452.332C947.201 452.332 948.607 453.448 948.774 455.18H946.647ZM955.437 452.455V454.178H953.556V459.135C953.556 460.049 954.013 460.233 954.575 460.242C954.839 460.251 955.278 460.225 955.56 460.207V462.035C955.296 462.079 954.865 462.132 954.294 462.123C952.606 462.132 951.306 461.297 951.323 459.504V454.178H949.952V452.455H951.323V450.17H953.556V452.455H955.437ZM961.536 462V449.273H969.815V451.189H963.821V454.67H969.376V456.586H963.821V460.066H969.851V462H961.536ZM976.741 452.455V454.178H974.772V462H972.522V454.178H971.099V452.455H972.522V451.541C972.522 449.687 973.674 448.676 975.511 448.676C976.029 448.676 976.513 448.729 976.935 448.816V450.592C976.565 450.539 976.293 450.53 976.126 450.521C975.221 450.53 974.764 450.882 974.772 451.752V452.455H976.741ZM983.175 452.455V454.178H981.206V462H978.956V454.178H977.532V452.455H978.956V451.541C978.956 449.687 980.107 448.676 981.944 448.676C982.463 448.676 982.946 448.729 983.368 448.816V450.592C982.999 450.539 982.727 450.53 982.56 450.521C981.654 450.53 981.197 450.882 981.206 451.752V452.455H983.175ZM988.571 462.193C985.785 462.193 984.001 460.216 984.001 457.271C984.001 454.301 985.785 452.332 988.571 452.332C991.366 452.332 993.15 454.301 993.142 457.271C993.15 460.216 991.366 462.193 988.571 462.193ZM986.269 457.254C986.269 459.003 987.033 460.4 988.589 460.4C990.118 460.4 990.883 459.003 990.874 457.254C990.883 455.505 990.118 454.099 988.589 454.107C987.033 454.099 986.269 455.505 986.269 457.254ZM994.882 462V452.455H997.062V454.037H997.167C997.51 452.938 998.424 452.314 999.522 452.314C999.769 452.314 1000.12 452.341 1000.33 452.367V454.441C1000.13 454.371 999.663 454.31 999.294 454.301C998.046 454.31 997.132 455.171 997.132 456.375V462H994.882ZM1006.96 452.455V454.178H1005.08V459.135C1005.08 460.049 1005.53 460.233 1006.1 460.242C1006.36 460.251 1006.8 460.225 1007.08 460.207V462.035C1006.82 462.079 1006.39 462.132 1005.82 462.123C1004.13 462.132 1002.83 461.297 1002.84 459.504V454.178H1001.47V452.455H1002.84V450.17H1005.08V452.455H1006.96ZM1013.95 455.18C1013.81 454.459 1013.22 453.993 1012.27 454.002C1011.31 453.993 1010.61 454.477 1010.61 455.127C1010.61 455.619 1011 455.988 1011.97 456.217L1013.58 456.551C1015.39 456.946 1016.27 457.781 1016.27 459.152C1016.27 460.945 1014.69 462.193 1012.2 462.193C1009.77 462.193 1008.34 461.104 1008.1 459.275H1010.39C1010.52 460.093 1011.15 460.497 1012.2 460.488C1013.28 460.497 1013.98 460.058 1013.99 459.346C1013.98 458.792 1013.55 458.44 1012.6 458.238L1011.07 457.904C1009.3 457.544 1008.37 456.612 1008.38 455.25C1008.37 453.483 1009.9 452.332 1012.23 452.332C1014.51 452.332 1015.91 453.448 1016.08 455.18H1013.95ZM931.381 489.148C931.381 485.844 932.365 483.084 934.018 480.729H936.127C934.914 482.478 933.701 486.002 933.701 489.148C933.701 492.295 934.914 495.828 936.127 497.586H934.018C932.365 495.213 931.381 492.462 931.381 489.148ZM949.996 484.807V486.389H938.957V480.43H940.908V484.807H949.996ZM937.164 489.922V488.34H951.648V489.922H948.168V495.564H946.199V489.922H942.613V495.564H940.662V489.922H937.164ZM966.432 479.674V495.564H964.551V479.674H966.432ZM952.879 486.547C952.879 483.049 954.232 480.878 956.307 480.887C958.231 480.878 959.541 482.68 959.77 485.65H961.299V479.955H963.162V494.791H961.299V487.232H959.787C959.603 490.335 958.275 492.233 956.307 492.225C954.232 492.233 952.879 490.054 952.879 486.547ZM954.689 486.547C954.681 489.034 955.296 490.37 956.307 490.361C957.361 490.37 957.985 489.034 957.994 486.547C957.985 484.068 957.361 482.724 956.307 482.732C955.296 482.724 954.681 484.068 954.689 486.547ZM981.619 479.674V495.582H979.668V486.283H975.115V484.701H979.668V479.674H981.619ZM969.121 491.82V481.414H971.072V490.177C973.208 490.15 975.326 489.992 977.559 489.553L977.787 491.152C975.229 491.68 972.856 491.812 970.422 491.82H969.121ZM989.828 484.191C989.828 486.793 991.357 489.535 993.924 490.607L992.852 492.154C990.971 491.337 989.6 489.676 988.87 487.654C988.141 489.834 986.743 491.662 984.889 492.541L983.764 491.012C986.269 489.852 987.833 486.89 987.842 484.191V482.855H984.344V481.238H993.309V482.855H989.828V484.191ZM995.084 495.564V479.674H997.053V495.564H995.084ZM1004.12 489.148C1004.12 492.462 1003.13 495.213 1001.48 497.586H999.373C1000.59 495.828 1001.8 492.295 1001.8 489.148C1001.8 486.002 1000.59 482.478 999.373 480.729H1001.48C1003.13 483.084 1004.12 485.844 1004.12 489.148Z" fill="#1B4B66"/>
<rect x="1098.5" y="424" width="237.5" height="96" rx="16" fill="#F4F8FF"/>
<path d="M1166.47 462H1162.14V449.273H1166.54C1170.33 449.273 1172.63 451.655 1172.64 455.619C1172.63 459.601 1170.33 462 1166.47 462ZM1164.43 460.014H1166.34C1169.01 460.022 1170.35 458.555 1170.35 455.619C1170.35 452.701 1169.01 451.251 1166.41 451.26H1164.43V460.014ZM1178.79 462.193C1175.92 462.193 1174.15 460.277 1174.15 457.289C1174.15 454.336 1175.94 452.332 1178.67 452.332C1181 452.332 1183.03 453.8 1183.03 457.148V457.852H1176.36C1176.4 459.478 1177.36 460.444 1178.81 460.436C1179.79 460.444 1180.45 460.022 1180.74 459.451H1182.94C1182.53 461.104 1181 462.193 1178.79 462.193ZM1176.37 456.322H1180.88C1180.87 455.021 1179.99 454.072 1178.7 454.072C1177.36 454.072 1176.45 455.109 1176.37 456.322ZM1190.18 455.18C1190.04 454.459 1189.44 453.993 1188.49 454.002C1187.53 453.993 1186.83 454.477 1186.84 455.127C1186.83 455.619 1187.23 455.988 1188.19 456.217L1189.81 456.551C1191.61 456.946 1192.49 457.781 1192.5 459.152C1192.49 460.945 1190.92 462.193 1188.42 462.193C1186 462.193 1184.56 461.104 1184.33 459.275H1186.61C1186.74 460.093 1187.38 460.497 1188.42 460.488C1189.5 460.497 1190.21 460.058 1190.21 459.346C1190.21 458.792 1189.78 458.44 1188.83 458.238L1187.3 457.904C1185.52 457.544 1184.6 456.612 1184.61 455.25C1184.6 453.483 1186.13 452.332 1188.46 452.332C1190.73 452.332 1192.14 453.448 1192.31 455.18H1190.18ZM1194.21 462V452.455H1196.46V462H1194.21ZM1194.05 449.871C1194.05 449.203 1194.64 448.658 1195.35 448.658C1196.06 448.658 1196.65 449.203 1196.65 449.871C1196.65 450.548 1196.06 451.093 1195.35 451.102C1194.64 451.093 1194.05 450.548 1194.05 449.871ZM1202.77 465.779C1200.23 465.779 1198.63 464.654 1198.48 462.861H1200.71C1200.87 463.696 1201.65 464.083 1202.8 464.092C1204.15 464.083 1205.02 463.503 1205.02 462.105V460.277H1204.91C1204.56 460.98 1203.79 461.859 1202.15 461.859C1199.94 461.859 1198.21 460.26 1198.21 457.148C1198.21 454.011 1199.95 452.332 1202.17 452.332C1203.85 452.332 1204.56 453.343 1204.91 454.02H1205.02V452.455H1207.23V462.158C1207.23 464.602 1205.34 465.779 1202.77 465.779ZM1200.5 457.184C1200.5 458.941 1201.29 460.102 1202.77 460.102C1204.22 460.102 1205.03 459.012 1205.03 457.184C1205.03 455.364 1204.22 454.169 1202.77 454.16C1201.27 454.169 1200.5 455.443 1200.5 457.184ZM1211.62 456.41V462H1209.38V452.455H1211.52V454.072H1211.64C1212.07 453.009 1213.05 452.332 1214.47 452.332C1216.45 452.332 1217.75 453.633 1217.74 455.918V462H1215.51V456.27C1215.51 454.986 1214.82 454.222 1213.65 454.23C1212.46 454.222 1211.62 455.021 1211.62 456.41ZM1231.19 452.771C1231.08 451.673 1230.15 451.04 1228.78 451.049C1227.33 451.04 1226.47 451.743 1226.46 452.701C1226.45 453.773 1227.59 454.213 1228.64 454.459L1229.84 454.775C1231.73 455.215 1233.56 456.217 1233.56 458.432C1233.56 460.664 1231.8 462.193 1228.75 462.193C1225.78 462.193 1223.9 460.77 1223.81 458.256H1226.06C1226.16 459.583 1227.28 460.233 1228.73 460.242C1230.23 460.233 1231.27 459.504 1231.28 458.414C1231.27 457.412 1230.35 456.99 1228.97 456.639L1227.53 456.27C1225.44 455.725 1224.14 454.67 1224.14 452.842C1224.14 450.592 1226.14 449.098 1228.82 449.098C1231.51 449.098 1233.35 450.618 1233.39 452.771H1231.19ZM1235.36 462V452.455H1237.5V454.072H1237.62C1238.02 452.982 1238.98 452.332 1240.24 452.332C1241.53 452.332 1242.47 452.991 1242.83 454.072H1242.93C1243.34 453.018 1244.41 452.332 1245.8 452.332C1247.55 452.332 1248.78 453.457 1248.77 455.584V462H1246.54V455.936C1246.54 454.749 1245.81 454.213 1244.9 454.213C1243.8 454.213 1243.16 454.96 1243.16 456.041V462H1240.98V455.848C1240.97 454.854 1240.32 454.213 1239.36 454.213C1238.4 454.213 1237.61 455.013 1237.61 456.199V462H1235.36ZM1250.47 459.311C1250.47 457.166 1252.26 456.542 1254.02 456.428C1254.69 456.375 1256.05 456.313 1256.48 456.296L1256.47 455.531C1256.47 454.582 1255.86 454.037 1254.74 454.037C1253.74 454.037 1253.13 454.494 1252.95 455.18H1250.79C1250.95 453.554 1252.41 452.332 1254.8 452.332C1256.61 452.332 1258.7 453.079 1258.7 455.619V462H1256.55V460.682H1256.48C1256.06 461.49 1255.17 462.193 1253.67 462.193C1251.85 462.193 1250.47 461.2 1250.47 459.311ZM1252.63 459.293C1252.63 460.119 1253.31 460.541 1254.25 460.541C1255.61 460.541 1256.48 459.645 1256.48 458.572L1256.48 457.79C1256.07 457.808 1254.82 457.887 1254.38 457.922C1253.31 458.01 1252.63 458.458 1252.63 459.293ZM1260.81 462V452.455H1262.99V454.037H1263.09C1263.44 452.938 1264.35 452.314 1265.45 452.314C1265.7 452.314 1266.05 452.341 1266.26 452.367V454.441C1266.06 454.371 1265.59 454.31 1265.22 454.301C1263.97 454.31 1263.06 455.171 1263.06 456.375V462H1260.81ZM1272.88 452.455V454.178H1271V459.135C1271 460.049 1271.46 460.233 1272.02 460.242C1272.29 460.251 1272.73 460.225 1273.01 460.207V462.035C1272.74 462.079 1272.31 462.132 1271.74 462.123C1270.05 462.132 1268.75 461.297 1268.77 459.504V454.178H1267.4V452.455H1268.77V450.17H1271V452.455H1272.88ZM1155.41 489.148C1155.41 485.844 1156.39 483.084 1158.05 480.729H1160.16C1158.94 482.478 1157.73 486.002 1157.73 489.148C1157.73 492.295 1158.94 495.828 1160.16 497.586H1158.05C1156.39 495.213 1155.41 492.462 1155.41 489.148ZM1174.9 479.674V495.564H1173.02V479.674H1174.9ZM1161.35 486.547C1161.35 483.049 1162.71 480.878 1164.78 480.887C1166.7 480.878 1168.01 482.68 1168.24 485.65H1169.77V479.955H1171.63V494.791H1169.77V487.232H1168.26C1168.08 490.335 1166.75 492.233 1164.78 492.225C1162.71 492.233 1161.35 490.054 1161.35 486.547ZM1163.16 486.547C1163.15 489.034 1163.77 490.37 1164.78 490.361C1165.83 490.37 1166.46 489.034 1166.47 486.547C1166.46 484.068 1165.83 482.724 1164.78 482.732C1163.77 482.724 1163.15 484.068 1163.16 486.547ZM1190.09 479.674V495.582H1188.14V486.283H1183.59V484.701H1188.14V479.674H1190.09ZM1177.59 491.82V481.414H1179.54V490.177C1181.68 490.15 1183.8 489.992 1186.03 489.553L1186.26 491.152C1183.7 491.68 1181.33 491.812 1178.89 491.82H1177.59ZM1198.3 484.191C1198.3 486.793 1199.83 489.535 1202.4 490.607L1201.32 492.154C1199.44 491.337 1198.07 489.676 1197.34 487.654C1196.61 489.834 1195.22 491.662 1193.36 492.541L1192.24 491.012C1194.74 489.852 1196.31 486.89 1196.31 484.191V482.855H1192.82V481.238H1201.78V482.855H1198.3V484.191ZM1203.56 495.564V479.674H1205.53V495.564H1203.56ZM1225.37 479.674V495.582H1223.44V479.674H1225.37ZM1213 482.645V481.062H1220.48V487.021H1215.02V490.221C1217.52 490.203 1219.68 490.071 1222.15 489.658L1222.33 491.258C1219.63 491.724 1217.26 491.829 1214.4 491.82H1213.01V485.475H1218.5V482.645H1213ZM1240.91 479.674V495.582H1238.94V479.674H1240.91ZM1228.68 491.75V481.115H1236.34V482.715H1230.64V490.098C1233.56 490.08 1235.4 490.001 1237.52 489.623L1237.71 491.24C1235.43 491.662 1233.39 491.75 1230.03 491.75H1228.68ZM1248.94 484.191C1248.93 486.644 1250.41 489.438 1252.92 490.607L1251.83 492.154C1250.03 491.311 1248.71 489.605 1247.99 487.619C1247.27 489.799 1245.88 491.662 1244.06 492.541L1242.91 491.012C1245.45 489.808 1246.98 486.837 1246.99 484.191V482.855H1243.53V481.238H1252.27V482.855H1248.94V484.191ZM1253.74 495.564V479.674H1255.69V485.861H1258.14V487.496H1255.69V495.564H1253.74ZM1272.04 479.691V491.17H1270.07V479.691H1272.04ZM1259.09 484.701C1259.09 482.39 1260.96 480.737 1263.38 480.729C1265.79 480.737 1267.66 482.39 1267.65 484.701C1267.66 487.048 1265.79 488.691 1263.38 488.691C1260.96 488.691 1259.09 487.048 1259.09 484.701ZM1261 484.701C1260.99 486.107 1262.01 486.986 1263.38 486.986C1264.7 486.986 1265.73 486.107 1265.73 484.701C1265.73 483.33 1264.7 482.434 1263.38 482.434C1262.01 482.434 1260.99 483.33 1261 484.701ZM1261.53 495.248V490.01H1263.5V493.666H1272.48V495.248H1261.53ZM1279.09 489.148C1279.09 492.462 1278.11 495.213 1276.45 497.586H1274.34C1275.56 495.828 1276.77 492.295 1276.77 489.148C1276.77 486.002 1275.56 482.478 1274.34 480.729H1276.45C1278.11 483.084 1279.09 485.844 1279.09 489.148Z" fill="#1B4B66"/>
<rect y="530" width="280" height="96" rx="16" fill="#1B4B66"/>
<path d="M85.665 580.66C85.665 584.28 82.845 585.04 80.665 585.04H74.645V569.52H80.265C82.425 569.52 84.745 570.48 84.765 573.56C84.785 575.36 83.725 576.58 81.925 576.92V576.96C84.125 577.22 85.665 578.76 85.665 580.66ZM82.045 573.86C82.045 572.24 80.925 571.76 79.625 571.76H77.485V575.86H79.365C80.665 575.86 82.045 575.42 82.045 573.86ZM82.825 580.4C82.825 578.36 81.105 578.02 79.545 578.02H77.485V582.8H80.065C81.585 582.8 82.825 582.2 82.825 580.4ZM93.8147 573.08V575.66H93.5747C91.2747 575.66 90.2547 577.42 90.2547 579.64V584.68L87.5547 585.1V573.56L89.9547 573.14V575.5C90.3147 574.14 91.8147 573.08 93.5747 573.08H93.8147ZM99.7555 585.3C97.2555 585.36 95.0555 583.8 95.0555 581.02V577.52C95.0555 574.74 97.1955 573.18 99.7355 573.24C101.355 573.28 102.335 573.9 103.175 574.96V573.5L105.855 573.1V585.06L103.255 585.46V583.66C102.455 584.78 101.135 585.26 99.7555 585.3ZM103.155 577.82C103.135 576.54 102.055 575.4 100.355 575.34C99.0555 575.3 97.8755 576.16 97.8755 577.62V580.94C97.8755 582.4 98.9755 583.22 100.255 583.18C102.335 583.12 103.215 581.68 103.195 580.06L103.155 577.82ZM118.769 577.52V584.68L116.069 585.08V578.56C116.069 576.96 115.949 575.18 113.949 575.18C111.629 575.16 111.029 577.38 111.029 579.06V584.68L108.329 585.08V573.54L110.909 573.14V574.9C111.849 573.6 113.289 573.06 114.849 573.06C117.589 573.06 118.769 574.92 118.769 577.52ZM125.479 585.3C122.979 585.36 120.739 583.8 120.739 581.02V577.52C120.739 574.74 122.919 573.18 125.459 573.24C127.079 573.28 128.039 573.9 128.859 574.96V569.3L131.539 568.9V585.06L128.939 585.46V583.66C128.159 584.78 126.859 585.26 125.479 585.3ZM128.839 577.78C128.819 576.5 127.739 575.34 125.939 575.32C124.599 575.3 123.559 576.16 123.559 577.62V580.94C123.559 582.4 124.499 583.24 125.859 583.2C127.959 583.14 128.899 581.72 128.879 580.06L128.839 577.78ZM143.554 576.04H146.294C148.494 576.04 150.054 577.8 150.054 580.28C150.054 583.54 147.814 585.04 144.514 585.04H139.374V582.74H144.274C146.054 582.74 147.214 582.1 147.214 580.42C147.214 579.14 146.554 578.32 145.554 578.32H143.094C140.774 578.32 139.094 576.56 139.094 574.16C139.094 570.98 140.894 569.52 144.214 569.52H149.034L148.614 571.8H144.454C142.874 571.8 141.914 572.42 141.914 574.02C141.914 575.3 142.494 576.04 143.554 576.04ZM154.906 568.9V584.86L152.226 585.26V569.3L154.906 568.9ZM167.862 577.46V580.96C167.862 583.48 165.923 585.24 162.723 585.24C159.523 585.24 157.603 583.48 157.603 580.96V577.46C157.603 574.92 159.523 573.08 162.723 573.08C165.923 573.08 167.862 574.92 167.862 577.46ZM165.203 580.72V577.68C165.203 576.2 164.323 575.16 162.723 575.16C161.123 575.16 160.263 576.2 160.263 577.68V580.72C160.263 582.14 161.123 583.16 162.723 583.16C164.323 583.16 165.203 582.14 165.203 580.72ZM174.547 584.54C172.047 584.6 169.807 583.04 169.807 580.26V577.36C169.807 574.58 171.987 573.02 174.527 573.08C175.787 573.1 176.907 573.62 177.627 574.9V573.56L180.187 573.14V583.66C180.187 586.68 178.907 588.78 174.447 588.78H170.627V586.68H174.187C176.707 586.68 177.427 585.5 177.467 583.8L177.487 582.8C176.887 583.8 175.847 584.5 174.547 584.54ZM174.887 582.44C176.227 582.4 177.427 581.56 177.447 580.26L177.487 577.58C177.507 576.18 176.347 575.2 174.967 575.16C173.707 575.12 172.627 576 172.627 577.46V580.18C172.627 581.64 173.607 582.48 174.887 582.44ZM186.591 585.3C184.091 585.36 181.891 583.8 181.891 581.02V577.52C181.891 574.74 184.031 573.18 186.571 573.24C188.191 573.28 189.171 573.9 190.011 574.96V573.5L192.691 573.1V585.06L190.091 585.46V583.66C189.291 584.78 187.971 585.26 186.591 585.3ZM189.991 577.82C189.971 576.54 188.891 575.4 187.191 575.34C185.891 575.3 184.711 576.16 184.711 577.62V580.94C184.711 582.4 185.811 583.22 187.091 583.18C189.171 583.12 190.051 581.68 190.031 580.06L189.991 577.82ZM205.605 577.52V584.68L202.905 585.08V578.56C202.905 576.96 202.785 575.18 200.785 575.18C198.465 575.16 197.865 577.38 197.865 579.06V584.68L195.165 585.08V573.54L197.745 573.14V574.9C198.685 573.6 200.125 573.06 201.685 573.06C204.425 573.06 205.605 574.92 205.605 577.52Z" fill="white"/>
<rect x="300" y="577.5" width="30" height="1" fill="#C4C4C4"/>
<rect x="350" y="530" width="986" height="96" rx="16" fill="#F4F8FF"/>
<path d="M701.03 584V571.273H705.812C708.729 571.273 710.285 572.908 710.294 575.334C710.285 577.065 709.494 578.349 708 578.955L710.751 584H708.202L705.706 579.342H703.315V584H701.03ZM703.315 577.426H705.46C707.183 577.435 707.956 576.696 707.956 575.334C707.956 573.98 707.183 573.189 705.46 573.189H703.315V577.426ZM716.253 584.193C713.379 584.193 711.612 582.277 711.612 579.289C711.612 576.336 713.405 574.332 716.13 574.332C718.468 574.332 720.489 575.8 720.489 579.148V579.852H713.827C713.862 581.478 714.82 582.444 716.271 582.436C717.255 582.444 717.914 582.022 718.204 581.451H720.401C719.997 583.104 718.468 584.193 716.253 584.193ZM713.836 578.322H718.345C718.336 577.021 717.457 576.072 716.165 576.072C714.82 576.072 713.915 577.109 713.836 578.322ZM722.229 587.586V574.455H724.427V576.02H724.567C724.91 575.343 725.613 574.332 727.31 574.332C729.507 574.332 731.238 576.055 731.247 579.236C731.238 582.374 729.56 584.167 727.31 584.176C725.666 584.167 724.919 583.191 724.567 582.488H724.479V587.586H722.229ZM724.427 579.219C724.436 581.082 725.244 582.33 726.694 582.33C728.18 582.33 728.962 581.021 728.962 579.219C728.962 577.443 728.197 576.169 726.694 576.16C725.227 576.169 724.436 577.364 724.427 579.219ZM735.255 571.273V584H733.005V571.273H735.255ZM738.753 587.586C738.305 587.577 737.883 587.568 737.593 587.533V585.74C737.865 585.767 738.243 585.767 738.542 585.775C739.087 585.767 739.544 585.731 739.931 584.703L740.124 584.193L736.644 574.455H739.017L741.231 581.662H741.337L743.552 574.455H745.925L742.093 585.16C741.548 586.681 740.546 587.577 738.753 587.586ZM756.366 574.455V576.178H754.485V581.135C754.485 582.049 754.942 582.233 755.505 582.242C755.769 582.251 756.208 582.225 756.489 582.207V584.035C756.226 584.079 755.795 584.132 755.224 584.123C753.536 584.132 752.235 583.297 752.253 581.504V576.178H750.882V574.455H752.253V572.17H754.485V574.455H756.366ZM762.149 584.193C759.363 584.193 757.579 582.216 757.579 579.271C757.579 576.301 759.363 574.332 762.149 574.332C764.944 574.332 766.729 576.301 766.72 579.271C766.729 582.216 764.944 584.193 762.149 584.193ZM759.847 579.254C759.847 581.003 760.611 582.4 762.167 582.4C763.696 582.4 764.461 581.003 764.452 579.254C764.461 577.505 763.696 576.099 762.167 576.107C760.611 576.099 759.847 577.505 759.847 579.254ZM772.837 584V571.273H781.116V573.189H775.122V576.67H780.677V578.586H775.122V582.066H781.151V584H772.837ZM791.733 574.455L788.323 584H785.862L782.452 574.455H784.843L787.04 581.557H787.146L789.36 574.455H791.733ZM797.042 584.193C794.168 584.193 792.401 582.277 792.401 579.289C792.401 576.336 794.194 574.332 796.919 574.332C799.257 574.332 801.278 575.8 801.278 579.148V579.852H794.616C794.651 581.478 795.609 582.444 797.06 582.436C798.044 582.444 798.703 582.022 798.993 581.451H801.19C800.786 583.104 799.257 584.193 797.042 584.193ZM794.625 578.322H799.134C799.125 577.021 798.246 576.072 796.954 576.072C795.609 576.072 794.704 577.109 794.625 578.322ZM803.019 584V574.455H805.198V576.037H805.304C805.646 574.938 806.561 574.314 807.659 574.314C807.905 574.314 808.257 574.341 808.468 574.367V576.441C808.266 576.371 807.8 576.31 807.431 576.301C806.183 576.31 805.269 577.171 805.269 578.375V584H803.019ZM811.456 587.586C811.008 587.577 810.586 587.568 810.296 587.533V585.74C810.568 585.767 810.946 585.767 811.245 585.775C811.79 585.767 812.247 585.731 812.634 584.703L812.827 584.193L809.347 574.455H811.72L813.935 581.662H814.04L816.255 574.455H818.628L814.796 585.16C814.251 586.681 813.249 587.577 811.456 587.586ZM832.937 575.334C832.523 573.98 831.478 573.154 829.931 573.154C827.883 573.154 826.389 574.754 826.397 577.619C826.389 580.511 827.856 582.119 829.983 582.119C831.908 582.119 833.13 580.959 833.165 579.148H830.212V577.338H835.38V578.867C835.38 582.146 833.13 584.176 829.983 584.176C826.468 584.176 824.086 581.671 824.095 577.637C824.086 573.55 826.582 571.098 829.913 571.098C832.717 571.098 834.888 572.838 835.274 575.334H832.937ZM841.585 584.193C838.711 584.193 836.944 582.277 836.944 579.289C836.944 576.336 838.737 574.332 841.462 574.332C843.8 574.332 845.821 575.8 845.821 579.148V579.852H839.159C839.194 581.478 840.152 582.444 841.603 582.436C842.587 582.444 843.246 582.022 843.536 581.451H845.733C845.329 583.104 843.8 584.193 841.585 584.193ZM839.168 578.322H843.677C843.668 577.021 842.789 576.072 841.497 576.072C840.152 576.072 839.247 577.109 839.168 578.322ZM849.812 578.41V584H847.562V574.455H849.706V576.072H849.829C850.26 575.009 851.235 574.332 852.659 574.332C854.637 574.332 855.938 575.633 855.929 577.918V584H853.696V578.27C853.696 576.986 853.002 576.222 851.833 576.23C850.646 576.222 849.812 577.021 849.812 578.41ZM862.31 584.193C859.436 584.193 857.669 582.277 857.669 579.289C857.669 576.336 859.462 574.332 862.187 574.332C864.524 574.332 866.546 575.8 866.546 579.148V579.852H859.884C859.919 581.478 860.877 582.444 862.327 582.436C863.312 582.444 863.971 582.022 864.261 581.451H866.458C866.054 583.104 864.524 584.193 862.31 584.193ZM859.893 578.322H864.401C864.393 577.021 863.514 576.072 862.222 576.072C860.877 576.072 859.972 577.109 859.893 578.322ZM868.286 584V574.455H870.466V576.037H870.571C870.914 574.938 871.828 574.314 872.927 574.314C873.173 574.314 873.524 574.341 873.735 574.367V576.441C873.533 576.371 873.067 576.31 872.698 576.301C871.45 576.31 870.536 577.171 870.536 578.375V584H868.286ZM874.456 581.311C874.456 579.166 876.24 578.542 878.007 578.428C878.675 578.375 880.037 578.313 880.459 578.296L880.45 577.531C880.45 576.582 879.844 576.037 878.728 576.037C877.726 576.037 877.11 576.494 876.935 577.18H874.772C874.931 575.554 876.39 574.332 878.78 574.332C880.591 574.332 882.683 575.079 882.683 577.619V584H880.538V582.682H880.468C880.046 583.49 879.158 584.193 877.655 584.193C875.836 584.193 874.456 583.2 874.456 581.311ZM876.618 581.293C876.618 582.119 877.295 582.541 878.235 582.541C879.598 582.541 880.468 581.645 880.468 580.572L880.459 579.79C880.055 579.808 878.807 579.887 878.358 579.922C877.295 580.01 876.618 580.458 876.618 581.293ZM889.556 574.455V576.178H887.675V581.135C887.675 582.049 888.132 582.233 888.694 582.242C888.958 582.251 889.397 582.225 889.679 582.207V584.035C889.415 584.079 888.984 584.132 888.413 584.123C886.726 584.132 885.425 583.297 885.442 581.504V576.178H884.071V574.455H885.442V572.17H887.675V574.455H889.556ZM891.278 584V574.455H893.528V584H891.278ZM891.12 571.871C891.12 571.203 891.709 570.658 892.421 570.658C893.133 570.658 893.722 571.203 893.722 571.871C893.722 572.548 893.133 573.093 892.421 573.102C891.709 573.093 891.12 572.548 891.12 571.871ZM899.839 584.193C897.053 584.193 895.269 582.216 895.269 579.271C895.269 576.301 897.053 574.332 899.839 574.332C902.634 574.332 904.418 576.301 904.409 579.271C904.418 582.216 902.634 584.193 899.839 584.193ZM897.536 579.254C897.536 581.003 898.301 582.4 899.856 582.4C901.386 582.4 902.15 581.003 902.142 579.254C902.15 577.505 901.386 576.099 899.856 576.107C898.301 576.099 897.536 577.505 897.536 579.254ZM908.399 578.41V584H906.149V574.455H908.294V576.072H908.417C908.848 575.009 909.823 574.332 911.247 574.332C913.225 574.332 914.525 575.633 914.517 577.918V584H912.284V578.27C912.284 576.986 911.59 576.222 910.421 576.23C909.234 576.222 908.399 577.021 908.399 578.41ZM919.403 571.291L917.927 576.213H916.257L917.171 571.291H919.403ZM925.31 577.18C925.169 576.459 924.571 575.993 923.622 576.002C922.664 575.993 921.961 576.477 921.97 577.127C921.961 577.619 922.356 577.988 923.323 578.217L924.94 578.551C926.742 578.946 927.621 579.781 927.63 581.152C927.621 582.945 926.048 584.193 923.552 584.193C921.126 584.193 919.693 583.104 919.456 581.275H921.741C921.873 582.093 922.506 582.497 923.552 582.488C924.633 582.497 925.336 582.058 925.345 581.346C925.336 580.792 924.905 580.44 923.956 580.238L922.427 579.904C920.651 579.544 919.729 578.612 919.737 577.25C919.729 575.483 921.258 574.332 923.587 574.332C925.863 574.332 927.27 575.448 927.437 577.18H925.31ZM933.712 584V571.273H941.868V573.189H935.997V576.67H941.306V578.586H935.997V584H933.712ZM949.198 579.992V574.455H951.431V584H949.269V582.312H949.163C948.724 583.376 947.722 584.123 946.298 584.123C944.408 584.123 943.107 582.822 943.099 580.537V574.455H945.349V580.186C945.349 581.398 946.069 582.172 947.159 582.172C948.144 582.172 949.198 581.451 949.198 579.992ZM958.339 574.455V576.178H956.458V581.135C956.458 582.049 956.915 582.233 957.478 582.242C957.741 582.251 958.181 582.225 958.462 582.207V584.035C958.198 584.079 957.768 584.132 957.196 584.123C955.509 584.132 954.208 583.297 954.226 581.504V576.178H952.854V574.455H954.226V572.17H956.458V574.455H958.339ZM966.161 579.992V574.455H968.394V584H966.231V582.312H966.126C965.687 583.376 964.685 584.123 963.261 584.123C961.371 584.123 960.07 582.822 960.062 580.537V574.455H962.312V580.186C962.312 581.398 963.032 582.172 964.122 582.172C965.106 582.172 966.161 581.451 966.161 579.992ZM970.538 584V574.455H972.718V576.037H972.823C973.166 574.938 974.08 574.314 975.179 574.314C975.425 574.314 975.776 574.341 975.987 574.367V576.441C975.785 576.371 975.319 576.31 974.95 576.301C973.702 576.31 972.788 577.171 972.788 578.375V584H970.538ZM981.243 584.193C978.369 584.193 976.603 582.277 976.603 579.289C976.603 576.336 978.396 574.332 981.12 574.332C983.458 574.332 985.479 575.8 985.479 579.148V579.852H978.817C978.853 581.478 979.811 582.444 981.261 582.436C982.245 582.444 982.904 582.022 983.194 581.451H985.392C984.987 583.104 983.458 584.193 981.243 584.193ZM978.826 578.322H983.335C983.326 577.021 982.447 576.072 981.155 576.072C979.811 576.072 978.905 577.109 978.826 578.322Z" fill="#1B4B66"/>
</svg>
