<svg width="1218" height="268" viewBox="0 0 1218 268" fill="none" xmlns="http://www.w3.org/2000/svg">
<rect width="366" height="136" rx="16" fill="#FF8D24"/>
<path d="M76.292 58V45.2734H81.0732C83.9912 45.2734 85.5469 46.9082 85.5557 49.334C85.5469 51.0654 84.7559 52.3486 83.2617 52.9551L86.0127 58H83.4639L80.9678 53.3418H78.5771V58H76.292ZM78.5771 51.4258H80.7217C82.4443 51.4346 83.2178 50.6963 83.2178 49.334C83.2178 47.9805 82.4443 47.1895 80.7217 47.1895H78.5771V51.4258ZM87.5244 58V45.2734H95.8037V47.1895H89.8096V50.6699H95.3643V52.5859H89.8096V56.0664H95.8389V58H87.5244ZM99.2842 56.418C98.5283 56.418 97.9043 55.8027 97.9131 55.0469C97.9043 54.3086 98.5283 53.7021 99.2842 53.6934C100.014 53.7021 100.638 54.3086 100.638 55.0469C100.638 55.8027 100.014 56.418 99.2842 56.418ZM97.9131 48.2266C97.9043 47.4883 98.5283 46.8818 99.2842 46.873C100.014 46.8818 100.638 47.4883 100.638 48.2266C100.638 48.9824 100.014 49.5977 99.2842 49.5977C98.5283 49.5977 97.9043 48.9824 97.9131 48.2266ZM111.431 49.334C111.018 47.9805 109.972 47.1543 108.425 47.1543C106.377 47.1543 104.883 48.7539 104.892 51.6191C104.883 54.5107 106.351 56.1191 108.478 56.1191C110.402 56.1191 111.624 54.959 111.659 53.1484H108.706V51.3379H113.874V52.8672C113.874 56.1455 111.624 58.1758 108.478 58.1758C104.962 58.1758 102.58 55.6709 102.589 51.6367C102.58 47.5498 105.076 45.0977 108.407 45.0977C111.211 45.0977 113.382 46.8379 113.769 49.334H111.431ZM115.948 58V45.2734H124.228V47.1895H118.233V50.6699H123.788V52.5859H118.233V56.0664H124.263V58H115.948ZM136.884 45.2734V58H134.845L128.815 49.2988H128.71V58H126.425V45.2734H128.499L134.493 53.9746H134.616V45.2734H136.884ZM157.38 55.9609V57.5781H142.86V55.9609H157.38ZM144.46 53.1309V44.7461H146.411V47.4707H153.776V44.7461H155.728V53.1309H144.46ZM146.411 51.6016H153.776V49H146.411V51.6016ZM172.005 43.6914V55.4863H170.142V49.8789H168.489V55.1172H166.661V43.9902H168.489V48.2793H170.142V43.6914H172.005ZM159.067 46.5391V44.9922H165.114V49.8086H160.983V51.6895C162.838 51.6807 164.235 51.584 165.853 51.2676L166.028 52.832C164.112 53.1748 162.504 53.2363 160.175 53.2363H159.085V48.332H163.233V46.5391H159.067ZM161.37 59.248V54.3789H163.321V57.666H172.444V59.248H161.37ZM186.876 51.127V52.6914H175.731V45.0625H186.753V46.6445H177.665V51.127H186.876ZM173.974 57.543V55.9258H188.493V57.543H173.974ZM202.274 44.6582V51.2676H194.61V44.6582H202.274ZM195.56 58.0176C198.609 57.7539 200.561 56.4004 200.736 55.1348H196.21V53.6582H200.78V52.2695H202.749V53.6582H207.337V55.1348H202.802C202.978 56.3652 204.894 57.71 207.935 58.0176L207.267 59.5117C204.691 59.2393 202.74 58.2285 201.773 56.9102C200.798 58.2461 198.82 59.2305 196.228 59.5117L195.56 58.0176ZM196.544 49.7383H200.341V46.2051H196.544V49.7383ZM205.069 52.7266V43.6738H207.003V52.7266H205.069ZM228.149 56.0137V57.6484H213.63V56.0137H228.149ZM214.825 46.7148V45.1504H226.884V46.7148H224.563V51.7773H226.831V53.3242H214.878V51.7773H217.11V46.7148H214.825ZM219.062 51.7773H222.63V46.7148H219.062V51.7773ZM243.706 56.1016V57.7188H229.187V56.1016H235.444V53.5176H230.909V48.3145H240.05V46.3457H230.874V44.7637H241.983V49.8613H232.86V51.918H242.353V53.5176H237.378V56.1016H243.706ZM252.847 44.7461V46.3457H247.556V51.0566C250.263 51.0391 251.836 50.9424 253.603 50.582L253.796 52.1465C251.818 52.5859 250.087 52.6475 246.835 52.6387H245.604V44.7461H252.847ZM247.222 55.5215V53.957H258.05V59.5645H256.099V55.5215H247.222ZM252.021 49.2812V47.6992H256.099V43.6738H258.05V53.2363H256.099V49.2812H252.021ZM273.22 52.0059V53.5527H262.075V44.9219H273.079V46.5039H264.062V48.4199H272.71V49.9492H264.062V52.0059H273.22ZM260.3 57.6309V56.0312H274.819V57.6309H260.3ZM288.302 43.6738V49.8789H290.657V51.5137H288.302V59.5293H286.351V43.6738H288.302ZM275.769 55.1875C279.636 53.2539 281.728 50.5645 282.114 46.9434H276.63V45.3262H284.101C284.092 49.9932 282.158 54.0977 276.876 56.6992L275.769 55.1875ZM53.5459 76.7812C56.0684 76.7725 57.9053 78.3633 57.9229 80.6133C57.9053 82.8721 56.0684 84.4541 53.5459 84.4629C51.0498 84.4541 49.1777 82.8721 49.1865 80.6133C49.1777 78.3633 51.0498 76.7725 53.5459 76.7812ZM48.4658 86.6602C51.3311 86.6602 55.2949 86.625 58.7314 86.1328L58.8896 87.5566C55.3301 88.2334 51.5156 88.2598 48.7119 88.2598L48.4658 86.6602ZM51.1201 80.6133C51.1113 81.9404 52.1572 82.7578 53.5459 82.7578C54.9521 82.7578 55.998 81.9404 56.0068 80.6133C55.998 79.2949 54.9609 78.4688 53.5459 78.4688C52.1572 78.4688 51.1113 79.2949 51.1201 80.6133ZM59.6807 91.582V75.6738H61.6318V91.582H59.6807ZM72.3545 77.168V87.6973H64.7959V77.168H72.3545ZM66.7295 86.1328H70.4561V78.6973H66.7295V86.1328ZM75.2021 91.582V75.6738H77.1709V91.582H75.2021ZM89.4229 86.0098C89.4229 87.3369 90.0293 88.7168 91.3916 89.5957C92.7803 88.6553 93.4219 87.2139 93.4307 86.0098V85.3594H95.3467V86.0098C95.3379 87.6709 96.3223 89.2354 98.4053 89.8945L97.4561 91.3184C95.9092 90.7998 94.8896 89.7891 94.3359 88.5146C93.8174 89.7715 92.8857 90.8789 91.4443 91.459C89.9326 90.9053 88.9834 89.833 88.4824 88.5762C87.9111 89.7979 86.9004 90.791 85.4326 91.3184L84.4658 89.8945C86.5225 89.1738 87.5156 87.5566 87.5244 86.0098V85.3594H89.4229V86.0098ZM84.0615 80.3145C84.0615 78.082 85.8896 76.5352 88.3506 76.5352C90.8027 76.5352 92.6309 78.082 92.6221 80.3145C92.6309 82.5205 90.8027 84.085 88.3506 84.0762C85.8896 84.085 84.0615 82.5205 84.0615 80.3145ZM85.9775 80.3145C85.9688 81.6152 86.9619 82.4502 88.3506 82.459C89.7129 82.4502 90.7061 81.6152 90.7061 80.3145C90.7061 79.0137 89.7129 78.1787 88.3506 78.1875C86.9619 78.1787 85.9688 79.0137 85.9775 80.3145ZM95.0479 84.6914V75.6914H97.0166V84.6914H95.0479ZM112.204 80.1738V81.7207H101.2V76.2539H103.134V80.1738H112.204ZM99.3193 85.1133V83.5664H113.839V85.1133H99.3193ZM101.06 91.1953V86.5195H103.011V89.6133H112.31V91.1953H101.06ZM132.401 75.6914V87.1699H130.433V75.6914H132.401ZM119.446 80.7012C119.446 78.3896 121.318 76.7373 123.735 76.7285C126.152 76.7373 128.016 78.3896 128.007 80.7012C128.016 83.0479 126.152 84.6914 123.735 84.6914C121.318 84.6914 119.446 83.0479 119.446 80.7012ZM121.362 80.7012C121.354 82.1074 122.373 82.9863 123.735 82.9863C125.062 82.9863 126.091 82.1074 126.091 80.7012C126.091 79.3301 125.062 78.4336 123.735 78.4336C122.373 78.4336 121.354 79.3301 121.362 80.7012ZM121.89 91.248V86.0098H123.858V89.666H132.841V91.248H121.89ZM140.716 80.1914C140.716 82.793 142.245 85.5352 144.812 86.6074L143.739 88.1543C141.858 87.3369 140.487 85.6758 139.758 83.6543C139.028 85.834 137.631 87.6621 135.776 88.541L134.651 87.0117C137.156 85.8516 138.721 82.8896 138.729 80.1914V78.8555H135.231V77.2383H144.196V78.8555H140.716V80.1914ZM145.972 91.5645V75.6738H147.94V91.5645H145.972ZM163.181 82.8984V84.4453H158.47V88.084H164.798V89.6836H150.278V88.084H156.536V84.4453H152.036V76.8516H163.058V78.416H153.987V82.8984H163.181ZM180.337 82.8809V84.3574H165.817V82.8809H180.337ZM167.505 86.6777V85.3066H178.579V88.9277H169.474V90.0352H179.054V91.3887H167.522V87.6621H176.646V86.6777H167.505ZM167.61 77.3789V76.0254H178.544V79.6113H169.597V80.6484H178.825V81.9844H167.663V78.3457H176.593V77.3789H167.61ZM198.108 75.6738V81.8789H200.464V83.5137H198.108V91.5293H196.157V75.6738H198.108ZM185.575 87.1875C189.442 85.2539 191.534 82.5645 191.921 78.9434H186.437V77.3262H193.907C193.898 81.9932 191.965 86.0977 186.683 88.6992L185.575 87.1875ZM207.249 78.9082C207.249 80.8857 208.603 82.8193 211.134 83.6016L210.132 85.1309C208.33 84.5508 207.021 83.3555 206.291 81.8438C205.579 83.4873 204.226 84.7969 202.345 85.4473L201.343 83.9004C203.9 83.0566 205.263 81 205.28 78.9082V78.4512H201.853V76.8867H210.589V78.4512H207.249V78.9082ZM203.944 91.248V86.168H205.913V89.666H214.896V91.248H203.944ZM212.487 87.2227V75.6914H214.456V87.2227H212.487ZM235.567 87.9609V89.5781H221.048V87.9609H235.567ZM222.647 85.1309V76.7461H224.599V79.4707H231.964V76.7461H233.915V85.1309H222.647ZM224.599 83.6016H231.964V81H224.599V83.6016ZM250.192 75.6914V87.4863H248.329V81.8789H246.677V87.1172H244.849V75.9902H246.677V80.2793H248.329V75.6914H250.192ZM237.255 78.5391V76.9922H243.302V81.8086H239.171V83.6895C241.025 83.6807 242.423 83.584 244.04 83.2676L244.216 84.832C242.3 85.1748 240.691 85.2363 238.362 85.2363H237.272V80.332H241.421V78.5391H237.255ZM239.558 91.248V86.3789H241.509V89.666H250.632V91.248H239.558ZM265.063 83.127V84.6914H253.919V77.0625H264.94V78.6445H255.853V83.127H265.063ZM252.161 89.543V87.9258H266.681V89.543H252.161ZM282.237 88.1016V89.7188H267.718V88.1016H273.976V85.5176H269.44V80.3145H278.581V78.3457H269.405V76.7637H280.515V81.8613H271.392V83.918H280.884V85.5176H275.909V88.1016H282.237ZM300.079 75.6738V79.541H302.294V81.1406H300.079V84.9902H298.128V75.6738H300.079ZM287.493 83.6543C291.088 82.6699 293.232 80.7275 293.566 78.3457H288.214V76.7637H295.685C295.693 80.9385 292.969 83.9092 288.267 85.2363L287.493 83.6543ZM289.638 88.3652C289.62 86.4053 291.747 85.1836 294.946 85.1836C298.172 85.1836 300.255 86.4053 300.255 88.3652C300.255 90.3428 298.172 91.5557 294.946 91.5469C291.747 91.5557 289.62 90.3428 289.638 88.3652ZM291.571 88.3652C291.562 89.4023 292.846 90.0176 294.946 90.0176C297.038 90.0176 298.33 89.4023 298.339 88.3652C298.33 87.3193 297.038 86.7129 294.946 86.7129C292.846 86.7129 291.562 87.3193 291.571 88.3652ZM315.671 75.6738V82.2305H317.903V83.8652H315.671V91.5645H313.702V75.6738H315.671ZM302.909 87.1523C304.113 87.1523 305.511 87.1523 306.97 87.1172V85.6318C305.238 85.333 304.113 84.252 304.122 82.7578C304.113 80.9648 305.687 79.7783 307.972 79.7695C310.23 79.7783 311.821 80.9648 311.839 82.7578C311.821 84.2607 310.67 85.3418 308.938 85.6318V87.0469C310.274 86.9766 311.61 86.8711 312.858 86.6953L312.981 88.1191C309.571 88.7432 305.897 88.7695 303.19 88.7695L302.909 87.1523ZM303.208 79.0488V77.502H306.97V75.7441H308.938V77.502H312.683V79.0488H303.208ZM305.968 82.7578C305.959 83.6719 306.768 84.208 307.972 84.1992C309.158 84.208 309.958 83.6719 309.958 82.7578C309.958 81.835 309.158 81.2725 307.972 81.2637C306.768 81.2725 305.959 81.835 305.968 82.7578Z" fill="white"/>
<path d="M175 180L183 188L191 180" stroke="#FF8D24" stroke-width="3" stroke-linecap="round" stroke-linejoin="round"/>
<line y1="-0.5" x2="32" y2="-0.5" transform="matrix(-5.46393e-08 -1 -1 3.49691e-08 182 168)" stroke="#C4C4C4"/>
<path d="M138.545 215.242C138.536 218.107 139.758 220.999 142.324 222.238L140.971 224.031C139.257 223.179 138.097 221.597 137.438 219.672C136.734 221.737 135.504 223.434 133.693 224.33L132.305 222.52C135.021 221.271 136.295 218.213 136.295 215.242V212.852H138.545V215.242ZM143.027 227.617V211.621H145.277V217.791H147.633V219.689H145.277V227.617H143.027ZM161.66 211.621V227.617H159.428V211.621H161.66ZM148.283 223.1C149.505 223.091 150.902 223.091 152.361 223.056V221.702C150.612 221.386 149.47 220.296 149.479 218.793C149.47 217.009 151.096 215.787 153.451 215.787C155.824 215.787 157.477 217.009 157.477 218.793C157.477 220.287 156.334 221.377 154.576 221.702V222.977C155.921 222.915 157.266 222.81 158.549 222.643L158.707 224.295C155.2 224.901 151.43 224.937 148.582 224.928L148.283 223.1ZM148.6 215.154V213.396H152.361V211.691H154.594V213.396H158.32V215.154H148.6ZM151.605 218.793C151.597 219.637 152.361 220.094 153.451 220.094C154.576 220.094 155.332 219.637 155.332 218.793C155.332 217.967 154.576 217.501 153.451 217.492C152.361 217.501 151.597 217.967 151.605 218.793ZM172.998 212.518V214.293H169.816C169.825 216.174 170.968 218.116 173.49 218.951L172.383 220.674C170.616 220.12 169.395 218.96 168.7 217.527C167.988 219.118 166.714 220.401 164.824 221.008L163.682 219.232C166.318 218.397 167.514 216.279 167.531 214.293H164.314V212.518H172.998ZM166.266 223.645V221.852H177.252V227.617H175.02V223.645H166.266ZM172.541 217.299V215.471H175.02V211.621H177.252V221.148H175.02V217.299H172.541ZM196.271 211.639V216.209H198.311V218.055H196.271V222.502H194.021V211.639H196.271ZM183.299 220.445C184.468 220.445 185.795 220.445 187.184 220.41V219.514C185.443 219.268 184.362 218.415 184.371 217.193C184.362 215.708 185.918 214.794 188.291 214.803C190.646 214.794 192.202 215.708 192.211 217.193C192.202 218.415 191.13 219.259 189.416 219.505V220.331C190.734 220.261 192.053 220.164 193.283 220.006L193.441 221.553C190.058 222.15 186.349 222.186 183.527 222.186L183.299 220.445ZM183.721 214.434V212.799H187.184V211.498H189.416V212.799H192.879V214.434H183.721ZM185.338 224.875V223.152H196.271V227.617H194.021V224.875H185.338ZM186.516 217.193C186.507 217.773 187.148 218.116 188.291 218.107C189.416 218.116 190.058 217.773 190.066 217.193C190.058 216.569 189.416 216.297 188.291 216.297C187.148 216.297 186.507 216.569 186.516 217.193ZM204.938 214.363C204.929 216.411 206.089 218.397 208.682 219.232L207.504 220.99C205.755 220.401 204.542 219.259 203.848 217.8C203.136 219.399 201.861 220.656 200.016 221.289L198.768 219.514C201.501 218.67 202.67 216.525 202.688 214.346V212.605H204.938V214.363ZM201.334 227.336V222.186H203.619V225.543H212.32V227.336H201.334ZM209.473 223.346V211.621H211.723V216.244H213.885V218.143H211.723V223.346H209.473ZM227.367 212.588V219.32H219.545V212.588H227.367ZM220.389 225.895C223.588 225.631 225.275 224.365 225.521 223.24H221.039V221.57H225.592V220.252H227.842V221.57H232.395V223.24H227.912C228.158 224.33 229.837 225.587 233.01 225.895L232.254 227.582C229.591 227.336 227.701 226.369 226.726 225.121C225.741 226.387 223.834 227.327 221.162 227.582L220.389 225.895ZM221.76 217.562H225.135V214.328H221.76V217.562ZM229.881 220.691V211.621H232.113V220.691H229.881ZM101.455 258V245.273H106.447C109.339 245.273 111 246.899 111 249.422C111 251.162 110.2 252.428 108.75 253.052L111.457 258H108.539L106.104 253.482H104.092V258H101.455ZM104.092 251.338H105.955C107.52 251.338 108.284 250.696 108.275 249.422C108.284 248.139 107.52 247.444 105.955 247.436H104.092V251.338ZM112.828 258V245.273H121.371V247.453H115.465V250.547H120.932V252.727H115.465V255.82H121.389V258H112.828ZM124.904 256.453C124.078 256.453 123.41 255.794 123.428 254.977C123.41 254.168 124.078 253.509 124.904 253.518C125.687 253.509 126.363 254.168 126.363 254.977C126.363 255.794 125.687 256.453 124.904 256.453ZM123.428 248.279C123.41 247.471 124.078 246.812 124.904 246.82C125.687 246.812 126.363 247.471 126.363 248.279C126.363 249.097 125.687 249.756 124.904 249.756C124.078 249.756 123.41 249.097 123.428 248.279ZM136.963 249.369C136.603 248.174 135.645 247.444 134.256 247.436C132.287 247.444 130.951 248.947 130.951 251.619C130.951 254.309 132.243 255.829 134.273 255.838C136.093 255.829 137.174 254.801 137.209 253.201H134.449V251.215H139.758V252.797C139.758 256.137 137.464 258.176 134.256 258.176C130.688 258.176 128.262 255.68 128.262 251.654C128.262 247.523 130.846 245.098 134.203 245.098C137.077 245.098 139.283 246.864 139.635 249.369H136.963ZM141.691 258V245.273H150.234V247.453H144.328V250.547H149.795V252.727H144.328V255.82H150.252V258H141.691ZM162.908 245.273V258H160.623L155.033 249.914H154.928V258H152.291V245.273H154.611L160.166 253.359H160.289V245.273H162.908ZM169.641 244.693C172.181 244.685 174.062 246.319 174.07 248.613C174.062 250.916 172.181 252.542 169.641 252.551C167.118 252.542 165.185 250.916 165.193 248.613C165.185 246.319 167.118 244.685 169.641 244.693ZM164.525 254.555C167.382 254.563 171.337 254.528 174.756 254.045L174.932 255.662C171.381 256.356 167.584 256.383 164.789 256.383L164.525 254.555ZM167.426 248.613C167.417 249.879 168.375 250.608 169.641 250.6C170.915 250.608 171.882 249.879 171.891 248.613C171.882 247.365 170.915 246.627 169.641 246.627C168.375 246.627 167.417 247.365 167.426 248.613ZM175.67 259.652V243.621H177.902V259.652H175.67ZM196.869 244.5V245.572C196.86 246.917 196.86 248.754 196.447 251.391H198.75V253.201H195.287V259.617H193.055V253.201H189.732V259.617H187.482V253.201H184.16V251.391H194.18C194.593 249.229 194.663 247.567 194.681 246.311H185.9V244.5H196.869ZM214.359 255.908V257.754H199.717V255.908H205.887V252.639H201.264V244.799H212.725V252.639H208.119V255.908H214.359ZM203.479 250.881H210.51V246.592H203.479V250.881ZM227.965 243.621V247.119H230.127V248.965H227.965V252.568H225.715V243.621H227.965ZM215.098 251.145C218.692 250.248 220.67 248.473 221.03 246.346H215.889V244.553H223.482C223.474 248.789 220.793 251.654 215.994 252.92L215.098 251.145ZM217.506 259.424V253.166H227.965V259.424H217.506ZM219.738 257.666H225.75V254.977H219.738V257.666ZM247.775 243.639V248.209H249.814V250.055H247.775V254.502H245.525V243.639H247.775ZM234.803 252.445C235.972 252.445 237.299 252.445 238.688 252.41V251.514C236.947 251.268 235.866 250.415 235.875 249.193C235.866 247.708 237.422 246.794 239.795 246.803C242.15 246.794 243.706 247.708 243.715 249.193C243.706 250.415 242.634 251.259 240.92 251.505V252.331C242.238 252.261 243.557 252.164 244.787 252.006L244.945 253.553C241.562 254.15 237.853 254.186 235.031 254.186L234.803 252.445ZM235.225 246.434V244.799H238.688V243.498H240.92V244.799H244.383V246.434H235.225ZM236.842 256.875V255.152H247.775V259.617H245.525V256.875H236.842ZM238.02 249.193C238.011 249.773 238.652 250.116 239.795 250.107C240.92 250.116 241.562 249.773 241.57 249.193C241.562 248.569 240.92 248.297 239.795 248.297C238.652 248.297 238.011 248.569 238.02 249.193ZM264.369 243.621V259.617H262.242V251.584H260.695V258.844H258.639V243.885H260.695V249.791H262.242V243.621H264.369ZM250.992 255.996V245.467H256.951V247.277H253.242V254.115C254.789 254.089 256.16 254.001 257.707 253.729L257.865 255.557C255.914 255.926 254.209 255.987 252.1 255.996H250.992Z" fill="black"/>
<rect x="426" width="366" height="136" rx="16" fill="#FF8D24"/>
<path d="M488.845 42H486.401L490.884 29.2734H493.696L498.196 42H495.753L494.689 38.8535H489.899L488.845 42ZM490.515 37.0078H494.074L492.343 31.875H492.237L490.515 37.0078ZM501.853 29.2734V42H499.603V29.2734H501.853ZM506.247 29.2734V42H503.997V29.2734H506.247ZM508.392 42V32.4551H510.642V42H508.392ZM508.233 29.8711C508.233 29.2031 508.822 28.6582 509.534 28.6582C510.246 28.6582 510.835 29.2031 510.835 29.8711C510.835 30.5479 510.246 31.0928 509.534 31.1016C508.822 31.0928 508.233 30.5479 508.233 29.8711ZM512.347 39.3105C512.347 37.166 514.131 36.542 515.897 36.4277C516.565 36.375 517.928 36.3135 518.35 36.2959L518.341 35.5312C518.341 34.582 517.734 34.0371 516.618 34.0371C515.616 34.0371 515.001 34.4941 514.825 35.1797H512.663C512.821 33.5537 514.28 32.332 516.671 32.332C518.481 32.332 520.573 33.0791 520.573 35.6191V42H518.429V40.6816H518.358C517.937 41.4902 517.049 42.1934 515.546 42.1934C513.727 42.1934 512.347 41.2002 512.347 39.3105ZM514.509 39.293C514.509 40.1191 515.186 40.541 516.126 40.541C517.488 40.541 518.358 39.6445 518.358 38.5723L518.35 37.79C517.945 37.8076 516.697 37.8867 516.249 37.9219C515.186 38.0098 514.509 38.458 514.509 39.293ZM524.933 36.4102V42H522.683V32.4551H524.827V34.0723H524.95C525.381 33.0088 526.356 32.332 527.78 32.332C529.758 32.332 531.059 33.6328 531.05 35.918V42H528.817V36.2695C528.817 34.9863 528.123 34.2217 526.954 34.2305C525.768 34.2217 524.933 35.0215 524.933 36.4102ZM537.36 42.1934C534.513 42.1934 532.79 40.1543 532.79 37.2715C532.79 34.3447 534.565 32.332 537.36 32.332C539.672 32.332 541.298 33.6855 541.456 35.7422H539.312C539.136 34.8281 538.468 34.1338 537.378 34.125C535.989 34.1338 535.058 35.2939 535.058 37.2188C535.058 39.1875 535.972 40.3564 537.378 40.3652C538.371 40.3564 539.109 39.7764 539.312 38.748H541.456C541.289 40.7607 539.76 42.1934 537.36 42.1934ZM547.38 42.1934C544.506 42.1934 542.739 40.2773 542.739 37.2891C542.739 34.3359 544.532 32.332 547.257 32.332C549.595 32.332 551.616 33.7998 551.616 37.1484V37.8516H544.954C544.989 39.4775 545.947 40.4443 547.397 40.4355C548.382 40.4443 549.041 40.0225 549.331 39.4512H551.528C551.124 41.1035 549.595 42.1934 547.38 42.1934ZM544.963 36.3223H549.472C549.463 35.0215 548.584 34.0723 547.292 34.0723C545.947 34.0723 545.042 35.1094 544.963 36.3223ZM562.796 30.9434C562.787 32.6748 564.079 34.3447 566.575 35.0391L565.679 36.5508C563.851 36.0498 562.559 34.9863 561.838 33.624C561.144 35.127 559.816 36.2871 557.927 36.832L556.995 35.3203C559.5 34.6172 560.845 32.8418 560.845 30.9434V30.9082H557.522V29.3613H560.845V27.6035H562.813V29.3613H566.118V30.9082H562.796V30.9434ZM559.351 43.3711V37.6934H569.616V43.3711H559.351ZM561.284 41.7891H567.683V39.2402H561.284V41.7891ZM567.665 37.0254V27.6738H569.616V31.5059H571.831V33.123H569.616V37.0254H567.665ZM576.981 28.834C578.414 28.834 579.601 29.6338 580.312 31.0312H584.03V27.6738H585.964V43.582H584.03V37.5703H580.453C579.759 39.1523 578.511 40.0664 576.981 40.0664C574.591 40.0664 572.895 37.8955 572.903 34.4414C572.895 31.0137 574.591 28.834 576.981 28.834ZM574.784 34.4414C574.775 36.8848 575.672 38.2998 576.981 38.3086C578.3 38.2998 579.188 36.8848 579.196 34.4414C579.188 32.0156 578.3 30.5918 576.981 30.5918C575.672 30.5918 574.775 32.0156 574.784 34.4414ZM580.866 32.6309C580.98 33.1846 581.042 33.791 581.042 34.4414C581.042 34.9863 580.998 35.5049 580.91 35.9883H584.03V32.6309H580.866ZM593.874 31.4883C593.856 34.3271 595.28 37.1924 597.741 38.3789L596.546 39.9434C594.823 39.0732 593.584 37.3945 592.907 35.373C592.213 37.5352 590.912 39.3281 589.093 40.2422L587.897 38.6777C590.455 37.4648 591.914 34.4238 591.923 31.4883V28.957H593.874V31.4883ZM598.69 43.5645V27.6738H600.642V33.8965H603.085V35.5664H600.642V43.5645H598.69ZM618.255 34.0371V35.584H603.753V34.0371H618.255ZM605.458 38.1504V36.6738H616.427V40.6641H607.392V41.877H616.866V43.4062H605.476V39.2578H614.511V38.1504H605.458ZM605.599 33.0176V28.0781H616.392V29.6426H607.55V31.4707H616.532V33.0176H605.599ZM624.46 28.7812C626.982 28.7725 628.819 30.3633 628.837 32.6133C628.819 34.8721 626.982 36.4541 624.46 36.4629C621.964 36.4541 620.092 34.8721 620.101 32.6133C620.092 30.3633 621.964 28.7725 624.46 28.7812ZM619.38 38.6602C622.245 38.6602 626.209 38.625 629.646 38.1328L629.804 39.5566C626.244 40.2334 622.43 40.2598 619.626 40.2598L619.38 38.6602ZM622.034 32.6133C622.025 33.9404 623.071 34.7578 624.46 34.7578C625.866 34.7578 626.912 33.9404 626.921 32.6133C626.912 31.2949 625.875 30.4688 624.46 30.4688C623.071 30.4688 622.025 31.2949 622.034 32.6133ZM630.595 43.582V27.6738H632.546V43.582H630.595ZM653.657 40.0137V41.6484H639.138V40.0137H653.657ZM640.333 30.7148V29.1504H652.392V30.7148H650.071V35.7773H652.339V37.3242H640.386V35.7773H642.618V30.7148H640.333ZM644.569 35.7773H648.138V30.7148H644.569V35.7773ZM669.214 40.1016V41.7188H654.694V40.1016H660.952V37.5176H656.417V32.3145H665.558V30.3457H656.382V28.7637H667.491V33.8613H658.368V35.918H667.86V37.5176H662.886V40.1016H669.214ZM678.354 28.7461V30.3457H673.063V35.0566C675.771 35.0391 677.344 34.9424 679.11 34.582L679.304 36.1465C677.326 36.5859 675.595 36.6475 672.343 36.6387H671.112V28.7461H678.354ZM672.729 39.5215V37.957H683.558V43.5645H681.606V39.5215H672.729ZM677.528 33.2812V31.6992H681.606V27.6738H683.558V37.2363H681.606V33.2812H677.528ZM698.728 36.0059V37.5527H687.583V28.9219H698.587V30.5039H689.569V32.4199H698.218V33.9492H689.569V36.0059H698.728ZM685.808 41.6309V40.0312H700.327V41.6309H685.808ZM715.866 34.0371V35.584H701.364V34.0371H715.866ZM703.069 38.1504V36.6738H714.038V40.6641H705.003V41.877H714.478V43.4062H703.087V39.2578H712.122V38.1504H703.069ZM703.21 33.0176V28.0781H714.003V29.6426H705.161V31.4707H714.144V33.0176H703.21ZM730.14 27.6738V43.582H728.171V27.6738H730.14ZM717.431 34.4414C717.422 31.0137 719.171 28.834 721.579 28.834C723.961 28.834 725.719 31.0137 725.728 34.4414C725.719 37.8955 723.961 40.0664 721.579 40.0664C719.171 40.0664 717.422 37.8955 717.431 34.4414ZM719.312 34.4414C719.312 36.8848 720.234 38.2998 721.579 38.3086C722.915 38.2998 723.829 36.8848 723.829 34.4414C723.829 32.0156 722.915 30.5918 721.579 30.5918C720.234 30.5918 719.312 32.0156 719.312 34.4414ZM547.784 59.6738V63.5059H549.999V65.1406H547.784V68.9375H545.833V59.6738H547.784ZM535.093 67.3555C538.802 66.3975 540.92 64.499 541.254 62.1875H535.884V60.6055H543.354C543.346 64.7715 540.639 67.6455 535.901 68.8496L535.093 67.3555ZM537.202 71.1699V69.6055H547.784V75.5645H545.833V71.1699H537.202ZM556.503 64.1914C556.494 66.6436 557.971 69.4385 560.476 70.6074L559.386 72.1543C557.593 71.3105 556.266 69.6055 555.554 67.6191C554.833 69.7988 553.444 71.6621 551.616 72.541L550.474 71.0117C553.005 69.8076 554.543 66.8369 554.552 64.1914V62.8555H551.089V61.2383H559.825V62.8555H556.503V64.1914ZM561.302 75.5645V59.6738H563.253V65.8613H565.696V67.4961H563.253V75.5645H561.302ZM571.515 60.7812C574.037 60.7725 575.874 62.3633 575.892 64.6133C575.874 66.8721 574.037 68.4541 571.515 68.4629C569.019 68.4541 567.146 66.8721 567.155 64.6133C567.146 62.3633 569.019 60.7725 571.515 60.7812ZM566.435 70.6602C569.3 70.6602 573.264 70.625 576.7 70.1328L576.858 71.5566C573.299 72.2334 569.484 72.2598 566.681 72.2598L566.435 70.6602ZM569.089 64.6133C569.08 65.9404 570.126 66.7578 571.515 66.7578C572.921 66.7578 573.967 65.9404 573.976 64.6133C573.967 63.2949 572.93 62.4688 571.515 62.4688C570.126 62.4688 569.08 63.2949 569.089 64.6133ZM577.649 75.582V59.6738H579.601V75.582H577.649ZM590.604 60.5703C591.888 60.5615 593.004 61.0361 593.751 61.8359H597.548V59.6738H599.499V69.0254H597.548V67.0039H593.742C592.986 67.7861 591.879 68.2607 590.604 68.252C588.205 68.2607 586.403 66.6523 586.403 64.4199C586.403 62.1699 588.205 60.5615 590.604 60.5703ZM588.267 64.4199C588.267 65.7207 589.242 66.5996 590.604 66.5996C591.923 66.5996 592.898 65.7207 592.907 64.4199C592.898 63.0752 591.923 62.2402 590.604 62.2402C589.242 62.2402 588.267 63.0752 588.267 64.4199ZM588.724 72.4531C588.706 70.4932 590.789 69.3506 594.12 69.3594C597.46 69.3506 599.543 70.4932 599.552 72.4531C599.543 74.4043 597.46 75.5469 594.12 75.5469C590.789 75.5469 588.706 74.4043 588.724 72.4531ZM590.64 72.4531C590.622 73.4639 591.914 74.0088 594.12 74.0176C596.37 74.0088 597.636 73.4639 597.636 72.4531C597.636 71.416 596.37 70.8623 594.12 70.8535C591.914 70.8623 590.622 71.416 590.64 72.4531ZM594.63 63.4004C594.718 63.7256 594.771 64.0596 594.771 64.4199C594.771 64.7715 594.718 65.1055 594.639 65.4219H597.548V63.4004H594.63ZM615.056 69.8164V75.5645H613.104V71.3633H604.228V69.8164H615.056ZM601.96 64.4023C601.96 62.1523 603.762 60.5352 606.161 60.5527C607.471 60.5439 608.613 61.0361 609.36 61.8711H613.104V59.6738H615.056V69.0605H613.104V66.9512H609.378C608.622 67.7949 607.479 68.3047 606.161 68.3047C603.762 68.3047 601.96 66.6875 601.96 64.4023ZM603.823 64.4023C603.823 65.7822 604.799 66.6436 606.161 66.6523C607.462 66.6436 608.455 65.7822 608.464 64.4023C608.455 63.0752 607.462 62.1963 606.161 62.2051C604.799 62.1963 603.823 63.0752 603.823 64.4023ZM610.204 65.3691H613.104V63.4707H610.213C610.283 63.7695 610.327 64.0771 610.327 64.4023C610.327 64.7363 610.283 65.0615 610.204 65.3691ZM624.53 59.9199C628.151 59.9287 630.252 60.8867 630.261 62.6445C630.252 64.4199 628.151 65.3779 624.53 65.3867C620.918 65.3779 618.8 64.4199 618.8 62.6445C618.8 60.8867 620.918 59.9287 624.53 59.9199ZM617.306 67.7949V66.2305H631.79V67.7949H617.306ZM619.011 70.3086V68.8672H629.979V72.752H620.944V73.9297H630.419V75.4238H619.028V71.3633H628.063V70.3086H619.011ZM620.856 62.6445C620.848 63.5234 622.113 63.9277 624.53 63.9277C626.982 63.9277 628.239 63.5234 628.239 62.6445C628.239 61.8271 626.982 61.3613 624.53 61.3613C622.113 61.3613 620.848 61.8271 620.856 62.6445ZM649.579 59.6738V65.8789H651.935V67.5137H649.579V75.5293H647.628V59.6738H649.579ZM637.046 71.1875C640.913 69.2539 643.005 66.5645 643.392 62.9434H637.907V61.3262H645.378C645.369 65.9932 643.436 70.0977 638.153 72.6992L637.046 71.1875ZM658.685 64.1914C658.685 66.793 660.214 69.5352 662.78 70.6074L661.708 72.1543C659.827 71.3369 658.456 69.6758 657.727 67.6543C656.997 69.834 655.6 71.6621 653.745 72.541L652.62 71.0117C655.125 69.8516 656.689 66.8896 656.698 64.1914V62.8555H653.2V61.2383H662.165V62.8555H658.685V64.1914ZM663.94 75.5645V59.6738H665.909V75.5645H663.94ZM677.704 66.2656V67.8477H674.487V70.6162C675.876 70.5635 677.265 70.4668 678.583 70.3262L678.741 71.7676C675.243 72.2861 671.561 72.3213 668.563 72.3301L668.317 70.7129C669.627 70.7217 671.06 70.7129 672.536 70.6865V67.8477H669.425V61.1328H677.634V62.6797H671.358V66.2656H677.704ZM679.532 75.582V59.6738H681.483V75.582H679.532ZM506.502 92.1836C508.91 92.1924 510.703 93.6777 510.721 95.7695C510.703 97.8701 508.91 99.3467 506.502 99.3555C504.076 99.3467 502.283 97.8701 502.283 95.7695C502.283 93.6777 504.076 92.1924 506.502 92.1836ZM504.182 95.7695C504.182 97 505.166 97.7734 506.502 97.7734C507.838 97.7734 508.813 97 508.822 95.7695C508.813 94.5654 507.838 93.792 506.502 93.8008C505.166 93.792 504.182 94.5654 504.182 95.7695ZM504.691 101.922V100.393H515.238V104.541H506.643V105.824H515.713V107.371H504.727V103.1H513.287V101.922H504.691ZM513.27 99.707V91.6738H515.238V99.707H513.27ZM526.436 92.8516V93.8008C526.418 94.8818 526.418 96.4639 526.049 98.4766L524.115 98.3008C524.432 96.666 524.493 95.4443 524.511 94.4688H518.332V92.8516H526.436ZM517.383 99.7422C518.323 99.7334 519.378 99.7246 520.494 99.707V96.4727H522.428V99.6455C524.071 99.5752 525.759 99.4521 527.297 99.2324L527.402 100.639C524.098 101.236 520.345 101.298 517.559 101.307L517.383 99.7422ZM519.756 107.248V102.52H521.725V105.666H530.742V107.248H519.756ZM528.229 103.574V91.6738H530.232V96.6309H532.289V98.2656H530.232V103.574H528.229ZM542.361 96.666V98.2305H539.408V100.032C540.735 99.9795 542.054 99.8916 543.293 99.7598L543.434 101.166C540.059 101.632 536.411 101.72 533.449 101.729L533.186 100.164C534.495 100.155 535.945 100.146 537.439 100.103V98.2305H534.557V92.6582H542.238V94.2402H536.525V96.666H542.361ZM535.717 107.248V102.73H537.686V105.666H546.826V107.248H535.717ZM544.4 103.609V91.6738H546.369V103.609H544.4ZM558.938 96.1914C558.938 98.793 560.467 101.535 563.033 102.607L561.961 104.154C560.08 103.337 558.709 101.676 557.979 99.6543C557.25 101.834 555.853 103.662 553.998 104.541L552.873 103.012C555.378 101.852 556.942 98.8896 556.951 96.1914V94.8555H553.453V93.2383H562.418V94.8555H558.938V96.1914ZM564.193 107.564V91.6738H566.162V107.564H564.193ZM583.195 94.1523V95.752H581.033V97.5625H583.195V99.1621H581.033V101.816H579.082V91.6738H581.033V94.1523H583.195ZM568.518 94.8203V93.291H572.262V91.5684H574.213V93.291H577.939V94.8203H568.518ZM569.326 98.3008C569.326 96.5957 570.908 95.4619 573.229 95.4531C575.522 95.4619 577.104 96.5957 577.113 98.3008C577.104 100.006 575.522 101.131 573.229 101.131C570.908 101.131 569.326 100.006 569.326 98.3008ZM570.592 104.752C570.574 102.985 572.604 101.948 575.9 101.957C579.161 101.948 581.209 102.985 581.209 104.752C581.209 106.501 579.161 107.547 575.9 107.547C572.604 107.547 570.574 106.501 570.592 104.752ZM571.225 98.3008C571.216 99.1621 572.024 99.6631 573.229 99.6543C574.433 99.6631 575.25 99.1621 575.25 98.3008C575.25 97.4219 574.433 96.8945 573.229 96.8945C572.024 96.8945 571.216 97.4219 571.225 98.3008ZM572.525 104.752C572.517 105.596 573.729 106.07 575.9 106.07C578.045 106.07 579.249 105.596 579.258 104.752C579.249 103.882 578.045 103.451 575.9 103.451C573.729 103.451 572.517 103.882 572.525 104.752ZM597.363 91.6738V100.902H595.412V97.0527H592.67V95.4531H595.412V91.6738H597.363ZM584.021 99.3203C586.553 98.4854 587.906 96.376 587.906 94.2754V94.1523H584.602V92.5703H593.18V94.1523H589.893V94.293C589.893 96.2002 591.176 98.1689 593.637 99.0039L592.652 100.551C590.877 99.9443 589.62 98.7314 588.926 97.2285C588.223 98.8984 586.904 100.226 585.023 100.85L584.021 99.3203ZM586.799 107.371V101.588H597.363V107.371H586.799ZM588.75 105.789H595.447V103.135H588.75V105.789ZM606.838 91.9199C610.459 91.9287 612.56 92.8867 612.568 94.6445C612.56 96.4199 610.459 97.3779 606.838 97.3867C603.226 97.3779 601.107 96.4199 601.107 94.6445C601.107 92.8867 603.226 91.9287 606.838 91.9199ZM599.613 99.7949V98.2305H614.098V99.7949H599.613ZM601.318 102.309V100.867H612.287V104.752H603.252V105.93H612.727V107.424H601.336V103.363H610.371V102.309H601.318ZM603.164 94.6445C603.155 95.5234 604.421 95.9277 606.838 95.9277C609.29 95.9277 610.547 95.5234 610.547 94.6445C610.547 93.8271 609.29 93.3613 606.838 93.3613C604.421 93.3613 603.155 93.8271 603.164 94.6445ZM631.887 91.6738V97.8789H634.242V99.5137H631.887V107.529H629.936V91.6738H631.887ZM619.354 103.188C623.221 101.254 625.312 98.5645 625.699 94.9434H620.215V93.3262H627.686C627.677 97.9932 625.743 102.098 620.461 104.699L619.354 103.188ZM640.992 96.1914C640.992 98.793 642.521 101.535 645.088 102.607L644.016 104.154C642.135 103.337 640.764 101.676 640.034 99.6543C639.305 101.834 637.907 103.662 636.053 104.541L634.928 103.012C637.433 101.852 638.997 98.8896 639.006 96.1914V94.8555H635.508V93.2383H644.473V94.8555H640.992V96.1914ZM646.248 107.564V91.6738H648.217V107.564H646.248ZM663.457 98.8984V100.445H658.746V104.084H665.074V105.684H650.555V104.084H656.812V100.445H652.312V92.8516H663.334V94.416H654.264V98.8984H663.457ZM680.613 100.27V101.852H666.094V100.27H672.387V98.9512H667.939V94.7324H676.869V93.5547H667.887V92.0254H678.82V96.1562H669.873V97.4219H679.137V98.9512H674.32V100.27H680.613ZM667.711 104.4V102.854H678.908V107.459H676.939V104.4H667.711ZM700.459 104.049V105.648H685.939V104.049H692.215V100.393H694.166V104.049H700.459ZM686.572 99.5137C689.736 98.9863 692.092 96.8418 692.145 94.5566H687.152V92.957H699.211V94.5566H694.201C694.263 96.8418 696.618 98.9336 699.879 99.4258L699.105 100.973C696.425 100.489 694.219 99.0654 693.19 97.0791C692.171 99.0918 689.991 100.56 687.346 101.061L686.572 99.5137ZM714.803 91.6738V101.113H712.852V97.2285H710.145V95.6289H712.852V91.6738H714.803ZM701.443 99.5312C704.001 98.6523 705.346 96.5166 705.346 94.416V94.293H702.041V92.7109H710.619V94.293H707.332V94.3984C707.332 96.332 708.615 98.2832 711.076 99.1094L710.092 100.656C708.325 100.059 707.077 98.8457 706.374 97.3516C705.68 99.0391 704.353 100.41 702.463 101.078L701.443 99.5312ZM704.027 104.541C704.01 102.634 706.075 101.518 709.424 101.518C712.79 101.518 714.847 102.634 714.855 104.541C714.847 106.448 712.79 107.556 709.424 107.564C706.075 107.556 704.01 106.448 704.027 104.541ZM705.961 104.541C705.952 105.525 707.218 106.062 709.424 106.053C711.647 106.062 712.904 105.525 712.904 104.541C712.904 103.548 711.647 103.012 709.424 103.012C707.218 103.012 705.952 103.548 705.961 104.541Z" fill="white"/>
<path d="M601 180L609 188L617 180" stroke="#FF8D24" stroke-width="3" stroke-linecap="round" stroke-linejoin="round"/>
<line y1="-0.5" x2="32" y2="-0.5" transform="matrix(-5.46393e-08 -1 -1 3.49691e-08 608 168)" stroke="#C4C4C4"/>
<path d="M582.826 212.465C584.865 212.465 586.491 213.651 586.931 215.418H589.611V211.621H591.844V220.691H589.611V217.229H586.948C586.544 219.021 584.892 220.243 582.826 220.234C580.4 220.243 578.555 218.617 578.572 216.367C578.555 214.091 580.4 212.465 582.826 212.465ZM580.699 216.367C580.69 217.624 581.587 218.345 582.826 218.354C584.021 218.345 584.909 217.624 584.918 216.367C584.909 215.102 584.021 214.328 582.826 214.346C581.587 214.328 580.69 215.102 580.699 216.367ZM581.086 227.441V221.395H591.844V227.441H581.086ZM583.336 225.648H589.646V223.17H583.336V225.648ZM608.561 223.855V225.684H593.918V223.855H608.561ZM595.465 221.184V212.641H597.715V215.295H604.693V212.641H606.926V221.184H595.465ZM597.715 219.426H604.693V217.035H597.715V219.426ZM615.768 212.412V216.771H612.287V217.976C614.071 217.958 615.328 217.87 616.77 217.633L616.98 219.32C615.188 219.681 613.685 219.707 611.232 219.707H610.125V215.189H613.623V214.135H610.107V212.412H615.768ZM612.27 222.326V220.656H623.221V224.822H614.52V225.789H623.678V227.512H612.287V223.258H621.006V222.326H612.27ZM616.348 216.314V214.521H617.842V211.867H619.951V219.971H617.842V216.314H616.348ZM621.094 220.094V211.639H623.221V220.094H621.094ZM638.514 211.621V227.652H636.281V219.215H633.697V217.387H636.281V211.621H638.514ZM625.559 214.768V212.957H632.801V218.951H627.826V222.08C630.032 222.062 631.896 221.983 633.961 221.623L634.137 223.451C631.764 223.847 629.593 223.935 626.912 223.926H625.594V217.176H630.621V214.768H625.559ZM550.201 244.623C550.192 248.745 548.496 251.654 544.084 253.465L543.012 251.848C544.857 251.127 546.105 250.248 546.888 249.185L543.451 249.562L543.188 247.787L547.714 247.559C547.828 247.198 547.907 246.829 547.96 246.434H543.855V244.623H550.201ZM545.93 259.441V253.588H556.846V259.441H545.93ZM548.145 257.648H554.648V255.381H548.145V257.648ZM551.168 252.867V243.92H553.277V247.348H554.719V243.639H556.846V253.008H554.719V249.176H553.277V252.867H551.168ZM572.648 243.621V259.617H570.486V243.621H572.648ZM558.48 254.115H559.816V247.242H558.779V245.432H566.109V247.242H565.09V253.896C565.538 253.852 565.969 253.808 566.373 253.746L566.531 255.363C564 255.899 560.73 255.961 558.727 255.961L558.48 254.115ZM561.803 254.08C562.216 254.071 562.629 254.054 563.051 254.036V247.242H561.803V254.08ZM565.74 251.443V249.439H567.287V243.938H569.414V258.861H567.287V251.443H565.74ZM587.607 243.639V255.135H585.357V243.639H587.607ZM574.459 248.684C574.459 246.337 576.375 244.649 578.836 244.658C581.288 244.649 583.204 246.337 583.213 248.684C583.204 251.065 581.288 252.744 578.836 252.744C576.375 252.744 574.459 251.065 574.459 248.684ZM576.656 248.684C576.639 250.02 577.579 250.793 578.836 250.793C580.049 250.793 580.989 250.02 580.998 248.684C580.989 247.383 580.049 246.601 578.836 246.609C577.579 246.601 576.639 247.383 576.656 248.684ZM576.885 259.336V253.975H579.152V257.543H588.029V259.336H576.885ZM597.064 243.85C600.747 243.85 602.874 244.816 602.883 246.574C602.874 248.358 600.747 249.316 597.064 249.316C593.373 249.316 591.229 248.358 591.229 246.574C591.229 244.816 593.373 243.85 597.064 243.85ZM589.77 251.848V250.072H604.359V251.848H589.77ZM591.457 254.414V252.779H602.584V256.857H593.672V257.824H603.006V259.512H591.475V255.293H600.369V254.414H591.457ZM593.584 246.574C593.575 247.356 594.718 247.664 597.064 247.664C599.429 247.664 600.562 247.356 600.562 246.574C600.562 245.862 599.429 245.484 597.064 245.484C594.718 245.484 593.575 245.862 593.584 246.574ZM624.064 251.865V253.623H609.439V251.865H615.627V250.881H611.268V244.008H622.359V245.73H613.518V246.627H621.99V248.244H613.518V249.158H622.5V250.881H617.877V251.865H624.064ZM611.145 256.98C611.145 255.293 613.166 254.344 616.752 254.361C620.276 254.344 622.307 255.293 622.324 256.98C622.307 258.703 620.276 259.626 616.752 259.617C613.166 259.626 611.145 258.703 611.145 256.98ZM613.395 256.98C613.377 257.666 614.449 257.965 616.752 257.965C619.002 257.965 620.065 257.666 620.074 256.98C620.065 256.312 619.002 256.005 616.752 256.014C614.449 256.005 613.377 256.312 613.395 256.98ZM637.723 243.639V248.543H639.885V250.371H637.723V255.574H635.473V243.639H637.723ZM625.031 247.084V245.309H628.67V243.604H630.902V245.309H634.523V247.084H625.031ZM625.805 250.74C625.805 248.886 627.448 247.646 629.777 247.646C632.098 247.646 633.715 248.886 633.715 250.74C633.715 252.586 632.098 253.799 629.777 253.799C627.448 253.799 625.805 252.586 625.805 250.74ZM627.352 259.336V254.66H629.584V257.543H638.303V259.336H627.352ZM628.002 250.74C627.993 251.619 628.705 252.094 629.777 252.094C630.858 252.094 631.588 251.619 631.588 250.74C631.588 249.853 630.858 249.36 629.777 249.352C628.705 249.36 627.993 249.853 628.002 250.74ZM650.941 247.98C650.933 250.564 652.269 253.333 654.949 254.449L653.736 256.207C651.855 255.407 650.555 253.816 649.834 251.883C649.113 253.983 647.786 255.741 645.896 256.611L644.613 254.836C647.268 253.649 648.639 250.688 648.639 247.98V246.996H645.246V245.168H654.281V246.996H650.941V247.98ZM655.863 259.617V243.621H658.131V259.617H655.863ZM673.846 243.639V255.715H671.596V254.449H668.537V252.92H671.596V243.639H673.846ZM660.24 250.723C663.167 250.705 667.122 250.661 670.506 250.248L670.629 251.848C669.363 252.059 668.054 252.208 666.762 252.305V255.346H664.512V257.543H674.197V259.336H662.279V254.555H664.512V252.437C663.079 252.489 661.717 252.498 660.504 252.498L660.24 250.723ZM661.418 247.049C661.418 245.344 663.062 244.175 665.443 244.184C667.764 244.175 669.425 245.344 669.434 247.049C669.425 248.763 667.764 249.87 665.443 249.861C663.062 249.87 661.418 248.763 661.418 247.049ZM663.545 247.049C663.536 247.822 664.301 248.253 665.443 248.244C666.516 248.253 667.289 247.822 667.307 247.049C667.289 246.258 666.516 245.818 665.443 245.818C664.301 245.818 663.536 246.258 663.545 247.049Z" fill="black"/>
<rect x="852" width="366" height="136" rx="16" fill="#FF8D24"/>
<path d="M950.634 40.0137V41.5957H936.114V40.0137H942.337V36.3398H944.271V40.0137H950.634ZM936.536 35.1094C939.858 34.5732 942.24 32.1914 942.249 29.8008V28.6406H944.323V29.8008C944.323 32.2002 946.723 34.5732 950.071 35.1094L949.228 36.7266C946.547 36.2168 944.341 34.6787 943.286 32.5957C942.24 34.6699 940.061 36.2256 937.38 36.7266L936.536 35.1094ZM964.89 27.6738V43.582H962.921V27.6738H964.89ZM952.515 39.8379V28.9746H954.466V32.9473H958.315V28.9746H960.249V39.8379H952.515ZM954.466 38.2383H958.315V34.4766H954.466V38.2383ZM972.923 32.1914C972.914 34.6436 974.391 37.4385 976.896 38.6074L975.806 40.1543C974.013 39.3105 972.686 37.6055 971.974 35.6191C971.253 37.7988 969.864 39.6621 968.036 40.541L966.894 39.0117C969.425 37.8076 970.963 34.8369 970.972 32.1914V30.8555H967.509V29.2383H976.245V30.8555H972.923V32.1914ZM977.722 43.5645V27.6738H979.673V33.8613H982.116V35.4961H979.673V43.5645H977.722ZM997.286 34.0371V35.584H982.784V34.0371H997.286ZM984.489 38.1504V36.6738H995.458V40.6641H986.423V41.877H995.897V43.4062H984.507V39.2578H993.542V38.1504H984.489ZM984.63 33.0176V28.0781H995.423V29.6426H986.581V31.4707H995.563V33.0176H984.63ZM1011.56 27.6738V43.582H1009.59V27.6738H1011.56ZM998.851 34.4414C998.842 31.0137 1000.59 28.834 1003 28.834C1005.38 28.834 1007.14 31.0137 1007.15 34.4414C1007.14 37.8955 1005.38 40.0664 1003 40.0664C1000.59 40.0664 998.842 37.8955 998.851 34.4414ZM1000.73 34.4414C1000.73 36.8848 1001.65 38.2998 1003 38.3086C1004.33 38.2998 1005.25 36.8848 1005.25 34.4414C1005.25 32.0156 1004.33 30.5918 1003 30.5918C1001.65 30.5918 1000.73 32.0156 1000.73 34.4414ZM1018.82 42V29.2734H1027.1V31.1895H1021.1V34.6699H1026.66V36.5859H1021.1V40.0664H1027.13V42H1018.82ZM1036.22 32.7715C1036.11 31.6729 1035.18 31.04 1033.81 31.0488C1032.36 31.04 1031.5 31.7432 1031.49 32.7012C1031.48 33.7734 1032.62 34.2129 1033.67 34.459L1034.87 34.7754C1036.77 35.2148 1038.59 36.2168 1038.59 38.4316C1038.59 40.6641 1036.83 42.1934 1033.78 42.1934C1030.82 42.1934 1028.94 40.7695 1028.84 38.2559H1031.09C1031.19 39.583 1032.31 40.2334 1033.76 40.2422C1035.26 40.2334 1036.3 39.5039 1036.31 38.4141C1036.3 37.4121 1035.39 36.9902 1034.01 36.6387L1032.57 36.2695C1030.47 35.7246 1029.17 34.6699 1029.17 32.8418C1029.17 30.5918 1031.17 29.0977 1033.85 29.0977C1036.55 29.0977 1038.38 30.6182 1038.42 32.7715H1036.22ZM1049.02 33.334C1048.61 31.9805 1047.56 31.1543 1046.01 31.1543C1043.96 31.1543 1042.47 32.7539 1042.48 35.6191C1042.47 38.5107 1043.94 40.1191 1046.07 40.1191C1047.99 40.1191 1049.21 38.959 1049.25 37.1484H1046.29V35.3379H1051.46V36.8672C1051.46 40.1455 1049.21 42.1758 1046.07 42.1758C1042.55 42.1758 1040.17 39.6709 1040.18 35.6367C1040.17 31.5498 1042.66 29.0977 1046 29.0977C1048.8 29.0977 1050.97 30.8379 1051.36 33.334H1049.02ZM1071.68 40.0137V41.6484H1057.16V40.0137H1071.68ZM1058.35 30.7148V29.1504H1070.41V30.7148H1068.09V35.7773H1070.36V37.3242H1058.41V35.7773H1060.64V30.7148H1058.35ZM1062.59 35.7773H1066.16V30.7148H1062.59V35.7773ZM1087.23 40.1016V41.7188H1072.71V40.1016H1078.97V37.5176H1074.44V32.3145H1083.58V30.3457H1074.4V28.7637H1085.51V33.8613H1076.39V35.918H1085.88V37.5176H1080.91V40.1016H1087.23ZM1096.37 28.7461V30.3457H1091.08V35.0566C1093.79 35.0391 1095.36 34.9424 1097.13 34.582L1097.32 36.1465C1095.35 36.5859 1093.61 36.6475 1090.36 36.6387H1089.13V28.7461H1096.37ZM1090.75 39.5215V37.957H1101.58V43.5645H1099.63V39.5215H1090.75ZM1095.55 33.2812V31.6992H1099.63V27.6738H1101.58V37.2363H1099.63V33.2812H1095.55ZM1116.75 36.0059V37.5527H1105.6V28.9219H1116.61V30.5039H1107.59V32.4199H1116.24V33.9492H1107.59V36.0059H1116.75ZM1103.83 41.6309V40.0312H1118.35V41.6309H1103.83ZM1133.09 27.6738V43.5645H1131.21V27.6738H1133.09ZM1119.54 34.5469C1119.54 31.0488 1120.9 28.8779 1122.97 28.8867C1124.89 28.8779 1126.2 30.6797 1126.43 33.6504H1127.96V27.9551H1129.83V42.791H1127.96V35.2324H1126.45C1126.27 38.335 1124.94 40.2334 1122.97 40.2246C1120.9 40.2334 1119.54 38.0537 1119.54 34.5469ZM1121.35 34.5469C1121.34 37.0342 1121.96 38.3701 1122.97 38.3613C1124.02 38.3701 1124.65 37.0342 1124.66 34.5469C1124.65 32.0684 1124.02 30.7236 1122.97 30.7324C1121.96 30.7236 1121.34 32.0684 1121.35 34.5469ZM929.628 61.1152V62.7148H924.337V70.1152C926.824 70.0977 928.573 69.9922 930.542 69.623L930.753 71.2051C928.521 71.6445 926.596 71.7324 923.634 71.7324H922.368V61.1152H929.628ZM928.784 66.8633V65.2637H932.985V59.6738H934.937V75.582H932.985V66.8633H928.784ZM953.956 59.6738V63.1016H956.171V64.7188H953.956V67.6719H952.005V59.6738H953.956ZM941.968 67.25V60.6934H949.491V67.25H941.968ZM942.935 75.125V69.0254H944.851V73.5342C945.756 73.4814 946.696 73.3496 947.61 73.0508L947.892 74.5801C946.485 75.0723 945.132 75.1338 943.778 75.125H942.935ZM943.884 65.7207H947.575V62.2227H943.884V65.7207ZM947.347 70.6074V69.2012H950.405V67.9531H952.321V69.2012H955.345V70.6074H947.347ZM948.313 73.3145C948.296 71.9258 949.535 71.082 951.337 71.082C953.121 71.082 954.369 71.9258 954.378 73.3145C954.369 74.6768 953.121 75.5293 951.337 75.5293C949.526 75.5293 948.296 74.6768 948.313 73.3145ZM950.054 73.3145C950.045 73.8857 950.59 74.2109 951.337 74.2109C952.084 74.2109 952.62 73.8857 952.62 73.3145C952.62 72.7344 952.084 72.418 951.337 72.418C950.59 72.418 950.045 72.7344 950.054 73.3145ZM971.464 67.8828V69.4473H956.979V67.8828H971.464ZM958.474 63.4004C958.474 61.3877 960.732 60.1748 964.204 60.1836C967.667 60.1748 969.926 61.3877 969.935 63.4004C969.926 65.4219 967.667 66.6523 964.204 66.6523C960.732 66.6523 958.474 65.4219 958.474 63.4004ZM958.772 75.248V70.625H960.724V73.666H969.829V75.248H958.772ZM960.513 63.4004C960.495 64.4814 961.893 65.0615 964.204 65.0527C966.524 65.0615 967.913 64.4814 967.913 63.4004C967.913 62.3545 966.524 61.748 964.204 61.748C961.893 61.748 960.495 62.3545 960.513 63.4004ZM985.685 60.8516V61.8008C985.667 62.8818 985.667 64.4639 985.298 66.4766L983.364 66.3008C983.681 64.666 983.742 63.4443 983.76 62.4688H977.581V60.8516H985.685ZM976.632 67.7422C977.572 67.7334 978.627 67.7246 979.743 67.707V64.4727H981.677V67.6455C983.32 67.5752 985.008 67.4521 986.546 67.2324L986.651 68.6387C983.347 69.2363 979.594 69.2979 976.808 69.3066L976.632 67.7422ZM979.005 75.248V70.5195H980.974V73.666H989.991V75.248H979.005ZM987.478 71.5742V59.6738H989.481V64.6309H991.538V66.2656H989.481V71.5742H987.478ZM1005.6 59.6914V68.6738H1003.63V59.6914H1005.6ZM992.364 66.8105C994.939 65.9932 996.275 63.9277 996.267 61.8359V60.2891H998.288V61.8359C998.279 63.8662 999.633 65.7559 1002.12 66.5469L1001.17 68.041C999.334 67.4697 998.016 66.3008 997.295 64.7803C996.583 66.415 995.238 67.7246 993.331 68.3574L992.364 66.8105ZM995.054 75.3711V69.4648H1005.6V75.3711H995.054ZM996.987 73.7891H1003.68V71.0117H996.987V73.7891ZM1015.15 59.9199C1018.77 59.9287 1020.87 60.8867 1020.88 62.6445C1020.87 64.4199 1018.77 65.3779 1015.15 65.3867C1011.53 65.3779 1009.42 64.4199 1009.42 62.6445C1009.42 60.8867 1011.53 59.9287 1015.15 59.9199ZM1007.92 67.7949V66.2305H1022.41V67.7949H1007.92ZM1009.63 70.3086V68.8672H1020.59V72.752H1011.56V73.9297H1021.03V75.4238H1009.64V71.3633H1018.68V70.3086H1009.63ZM1011.47 62.6445C1011.46 63.5234 1012.73 63.9277 1015.15 63.9277C1017.6 63.9277 1018.85 63.5234 1018.85 62.6445C1018.85 61.8271 1017.6 61.3613 1015.15 61.3613C1012.73 61.3613 1011.46 61.8271 1011.47 62.6445ZM1040.19 59.6738V65.8789H1042.55V67.5137H1040.19V75.5293H1038.24V59.6738H1040.19ZM1027.66 71.1875C1031.53 69.2539 1033.62 66.5645 1034.01 62.9434H1028.52V61.3262H1035.99C1035.98 65.9932 1034.05 70.0977 1028.77 72.6992L1027.66 71.1875ZM1056.51 59.6738V67.8652H1054.57V59.6738H1056.51ZM1043.43 66.4414C1045.9 65.7119 1047.26 63.9189 1047.36 62.0469H1043.94V60.4648H1052.67V62.0469H1049.34C1049.43 63.8047 1050.78 65.4746 1053.24 66.1426L1052.29 67.6543C1050.43 67.1182 1049.11 65.9932 1048.39 64.5518C1047.67 66.1426 1046.29 67.3994 1044.33 67.9883L1043.43 66.4414ZM1046 70.0273V68.5332H1056.54V72.6289H1047.95V73.9121H1057.02V75.4238H1046.03V71.2051H1054.59V70.0273H1046ZM1071.41 60.9922C1071.4 62.9873 1073.65 65.0176 1077.04 65.457L1076.26 67.0391C1073.57 66.6348 1071.42 65.3076 1070.38 63.5146C1069.35 65.3076 1067.21 66.6348 1064.54 67.0391L1063.77 65.457C1067.12 65.0176 1069.36 63.0049 1069.36 60.9922V60.1836H1071.41V60.9922ZM1063.13 70.0273V68.4102H1077.62V70.0273H1071.31V75.5645H1069.37V70.0273H1063.13ZM1088.6 70.0098C1088.6 71.3369 1089.21 72.7168 1090.57 73.5957C1091.96 72.6553 1092.6 71.2139 1092.61 70.0098V69.3594H1094.53V70.0098C1094.52 71.6709 1095.5 73.2354 1097.59 73.8945L1096.64 75.3184C1095.09 74.7998 1094.07 73.7891 1093.52 72.5146C1093 73.7715 1092.07 74.8789 1090.63 75.459C1089.11 74.9053 1088.17 73.833 1087.66 72.5762C1087.09 73.7979 1086.08 74.791 1084.61 75.3184L1083.65 73.8945C1085.7 73.1738 1086.7 71.5566 1086.71 70.0098V69.3594H1088.6V70.0098ZM1083.24 64.3145C1083.24 62.082 1085.07 60.5352 1087.53 60.5352C1089.98 60.5352 1091.81 62.082 1091.8 64.3145C1091.81 66.5205 1089.98 68.085 1087.53 68.0762C1085.07 68.085 1083.24 66.5205 1083.24 64.3145ZM1085.16 64.3145C1085.15 65.6152 1086.14 66.4502 1087.53 66.459C1088.89 66.4502 1089.89 65.6152 1089.89 64.3145C1089.89 63.0137 1088.89 62.1787 1087.53 62.1875C1086.14 62.1787 1085.15 63.0137 1085.16 64.3145ZM1094.23 68.6914V59.6914H1096.2V68.6914H1094.23ZM1111.42 66.8984V68.4453H1106.71V72.084H1113.04V73.6836H1098.52V72.084H1104.78V68.4453H1100.28V60.8516H1111.3V62.416H1102.23V66.8984H1111.42ZM1128.58 68.2695V69.8516H1114.06V68.2695H1120.35V66.9512H1115.9V62.7324H1124.83V61.5547H1115.85V60.0254H1126.78V64.1562H1117.84V65.4219H1127.1V66.9512H1122.28V68.2695H1128.58ZM1115.67 72.4004V70.8535H1126.87V75.459H1124.9V72.4004H1115.67ZM1146.44 59.6387V63.2246H1148.67V64.8066H1146.44V68.3047H1144.49V59.6387H1146.44ZM1133.92 62.4512V60.957H1137.67V59.5508H1139.62V60.957H1143.34V62.4512H1133.92ZM1134.73 65.5449C1134.73 63.9629 1136.29 62.9521 1138.63 62.9434C1140.99 62.9521 1142.51 63.9629 1142.52 65.5449C1142.51 67.1709 1140.99 68.1465 1138.63 68.1465C1136.29 68.1465 1134.73 67.1709 1134.73 65.5449ZM1136.05 70.4316V69.0078H1146.44V72.8398H1138V73.9648H1146.93V75.4238H1136.07V71.4863H1144.49V70.4316H1136.05ZM1136.63 65.5449C1136.62 66.3271 1137.4 66.7314 1138.63 66.7402C1139.86 66.7314 1140.65 66.3271 1140.65 65.5449C1140.65 64.7891 1139.86 64.3408 1138.63 64.3496C1137.4 64.3408 1136.62 64.7891 1136.63 65.5449ZM977.115 93.2207V103.627H969.592V93.2207H977.115ZM971.508 102.062H975.164V94.75H971.508V102.062ZM979.523 107.564V91.6738H981.475V97.7734H983.918V99.4258H981.475V107.564H979.523ZM991.635 93.502C991.626 94.9961 991.485 96.4287 991.116 97.7734H993.076V92.0605H994.922V106.809H993.076V99.3555H990.536C989.666 101.271 988.163 102.959 985.693 104.348L984.586 103.012C986.739 101.781 988.066 100.349 988.84 98.7051L984.867 99.1094L984.639 97.4219L989.394 97.1582C989.561 96.499 989.666 95.8047 989.719 95.084H985.412V93.502H991.635ZM996.434 107.564V91.6738H998.297V107.564H996.434ZM1008.7 92.8164V94.3633H1003.01V95.875H1008.25V97.4043H1003.01V98.9336C1005.98 98.9424 1007.79 98.8984 1009.88 98.5469L1010.07 100.094C1007.8 100.472 1005.8 100.524 1002.38 100.516H1001.02V92.8164H1008.7ZM1002.59 104.576C1002.58 102.695 1004.62 101.597 1008.02 101.605C1011.35 101.597 1013.45 102.695 1013.45 104.576C1013.45 106.457 1011.35 107.547 1008.02 107.547C1004.62 107.547 1002.58 106.457 1002.59 104.576ZM1004.54 104.576C1004.52 105.525 1005.76 106.035 1008.02 106.035C1010.22 106.035 1011.5 105.525 1011.5 104.576C1011.5 103.636 1010.22 103.117 1008.02 103.117C1005.76 103.117 1004.52 103.636 1004.54 104.576ZM1011.41 101.377V91.6914H1013.38V101.377H1011.41ZM1033.19 91.6738V107.582H1031.22V91.6738H1033.19ZM1020.48 98.4414C1020.47 95.0137 1022.22 92.834 1024.63 92.834C1027.01 92.834 1028.77 95.0137 1028.78 98.4414C1028.77 101.896 1027.01 104.066 1024.63 104.066C1022.22 104.066 1020.47 101.896 1020.48 98.4414ZM1022.36 98.4414C1022.36 100.885 1023.28 102.3 1024.63 102.309C1025.96 102.3 1026.88 100.885 1026.88 98.4414C1026.88 96.0156 1025.96 94.5918 1024.63 94.5918C1023.28 94.5918 1022.36 96.0156 1022.36 98.4414ZM1049.12 91.6738V103.697H1047.25V91.6738H1049.12ZM1036.14 100.85V92.9219H1037.99V95.4355H1040.61V92.9219H1042.42V96.1387H1044.11V91.9551H1045.95V103.205H1044.11V97.7207H1042.42V100.85H1036.14ZM1037.99 99.2676H1040.61V96.9297H1037.99V99.2676ZM1038.48 107.248V102.098H1040.43V105.666H1049.55V107.248H1038.48ZM1064 100.006V101.553H1052.86V92.9219H1063.86V94.5039H1054.85V96.4199H1063.49V97.9492H1054.85V100.006H1064ZM1051.08 105.631V104.031H1065.6V105.631H1051.08ZM1084.55 91.6738V107.564H1082.67V99.4082H1080.97V106.826H1079.14V92.0957H1080.97V97.8262H1082.67V91.6738H1084.55ZM1070.79 102.889C1074.17 100.938 1075.61 98.4238 1075.89 95.2422H1071.53V93.6777H1077.79C1077.79 97.9756 1076.43 101.667 1071.91 104.242L1070.79 102.889ZM1092.73 100.182V102.757C1094.11 102.678 1095.5 102.555 1096.8 102.361L1096.96 103.803C1093.4 104.462 1089.59 104.497 1086.79 104.488L1086.54 102.906C1087.78 102.897 1089.24 102.889 1090.78 102.845V100.182H1092.73ZM1086.91 99.2148C1089.3 98.5557 1090.62 96.9824 1090.73 95.207H1087.38V93.625H1090.78V91.8145H1092.73V93.625H1096.15V95.207H1092.75C1092.86 96.9033 1094.2 98.4238 1096.59 99.0391L1095.7 100.568C1093.82 100.059 1092.47 98.96 1091.75 97.5537C1091.06 99.0303 1089.73 100.182 1087.84 100.691L1086.91 99.2148ZM1097.75 107.582V91.6738H1099.71V107.582H1097.75Z" fill="white"/>
<path d="M1027 180L1035 188L1043 180" stroke="#FF8D24" stroke-width="3" stroke-linecap="round" stroke-linejoin="round"/>
<line y1="-0.5" x2="32" y2="-0.5" transform="matrix(-5.46393e-08 -1 -1 3.49691e-08 1034 168)" stroke="#C4C4C4"/>
<path d="M982.582 227.621V236.375H980.35V233.035H977.818V231.207H980.35V227.621H982.582ZM969.012 234.898C971.534 234.055 972.738 232.121 972.853 230.17H969.645V228.342H978.328V230.17H975.155C975.252 231.954 976.403 233.8 978.82 234.6L977.713 236.322C975.946 235.742 974.725 234.591 974.03 233.158C973.318 234.758 972.044 236.041 970.154 236.656L969.012 234.898ZM971.912 243.441V236.99H974.127V238.502H980.35V236.99H982.582V243.441H971.912ZM974.127 241.648H980.35V240.225H974.127V241.648ZM998.139 227.621V236.867H995.906V233.141H993.375V231.312H995.906V227.621H998.139ZM984.568 235.127C987.161 234.292 988.356 232.253 988.418 230.24H985.201V228.43H993.885V230.24H990.703C990.729 232.068 991.881 233.993 994.377 234.828L993.27 236.604C991.494 236.023 990.272 234.854 989.578 233.413C988.875 235.013 987.592 236.287 985.711 236.885L984.568 235.127ZM987.381 243.441V237.535H998.139V243.441H987.381ZM989.631 241.648H995.941V239.293H989.631V241.648ZM1009.21 229.221V230.504C1009.2 232.007 1009.2 233.976 1008.77 236.639L1006.56 236.463C1006.93 234.143 1006.96 232.429 1006.98 231.014H1000.92V229.221H1009.21ZM1000.07 238.555C1000.97 238.555 1001.97 238.546 1003.01 238.52V233.809H1005.22V238.449C1006.8 238.388 1008.39 238.273 1009.86 238.08L1010 239.75C1006.71 240.304 1003.09 240.365 1000.28 240.348L1000.07 238.555ZM1010.62 243.617V227.621H1012.89V234.055H1015.07V235.918H1012.89V243.617H1010.62ZM1032.63 228.5V229.572C1032.62 230.917 1032.62 232.754 1032.21 235.391H1034.51V237.201H1031.04V243.617H1028.81V237.201H1025.49V243.617H1023.24V237.201H1019.92V235.391H1029.94C1030.35 233.229 1030.42 231.567 1030.44 230.311H1021.66V228.5H1032.63ZM1050.12 239.908V241.754H1035.47V239.908H1041.64V236.639H1037.02V228.799H1048.48V236.639H1043.88V239.908H1050.12ZM1039.24 234.881H1046.27V230.592H1039.24V234.881ZM1056.22 228.693C1058.76 228.685 1060.64 230.319 1060.65 232.613C1060.64 234.916 1058.76 236.542 1056.22 236.551C1053.69 236.542 1051.76 234.916 1051.77 232.613C1051.76 230.319 1053.69 228.685 1056.22 228.693ZM1051.1 238.555C1053.96 238.563 1057.91 238.528 1061.33 238.045L1061.51 239.662C1057.96 240.356 1054.16 240.383 1051.37 240.383L1051.1 238.555ZM1054 232.613C1053.99 233.879 1054.95 234.608 1056.22 234.6C1057.49 234.608 1058.46 233.879 1058.47 232.613C1058.46 231.365 1057.49 230.627 1056.22 230.627C1054.95 230.627 1053.99 231.365 1054 232.613ZM1062.25 243.652V227.621H1064.48V243.652H1062.25ZM1083.53 227.639V232.209H1085.57V234.055H1083.53V238.502H1081.28V227.639H1083.53ZM1070.56 236.445C1071.73 236.445 1073.06 236.445 1074.45 236.41V235.514C1072.71 235.268 1071.62 234.415 1071.63 233.193C1071.62 231.708 1073.18 230.794 1075.55 230.803C1077.91 230.794 1079.46 231.708 1079.47 233.193C1079.46 234.415 1078.39 235.259 1076.68 235.505V236.331C1078 236.261 1079.31 236.164 1080.54 236.006L1080.7 237.553C1077.32 238.15 1073.61 238.186 1070.79 238.186L1070.56 236.445ZM1070.98 230.434V228.799H1074.45V227.498H1076.68V228.799H1080.14V230.434H1070.98ZM1072.6 240.875V239.152H1083.53V243.617H1081.28V240.875H1072.6ZM1073.78 233.193C1073.77 233.773 1074.41 234.116 1075.55 234.107C1076.68 234.116 1077.32 233.773 1077.33 233.193C1077.32 232.569 1076.68 232.297 1075.55 232.297C1074.41 232.297 1073.77 232.569 1073.78 233.193ZM1100.13 227.621V243.617H1098V235.584H1096.45V242.844H1094.4V227.885H1096.45V233.791H1098V227.621H1100.13ZM1086.75 239.996V229.467H1092.71V231.277H1089V238.115C1090.55 238.089 1091.92 238.001 1093.46 237.729L1093.62 239.557C1091.67 239.926 1089.97 239.987 1087.86 239.996H1086.75Z" fill="black"/>
<line x1="464" y1="235.5" x2="328" y2="235.5" stroke="#C4C4C4"/>
<path d="M476 228L484 236L476 244" stroke="#FF8D24" stroke-width="3" stroke-linecap="round" stroke-linejoin="round"/>
<path d="M316 228L308 236L316 244" stroke="#FF8D24" stroke-width="3" stroke-linecap="round" stroke-linejoin="round"/>
<line x1="890" y1="235.5" x2="754" y2="235.5" stroke="#C4C4C4"/>
<path d="M902 228L910 236L902 244" stroke="#FF8D24" stroke-width="3" stroke-linecap="round" stroke-linejoin="round"/>
<path d="M742 228L734 236L742 244" stroke="#FF8D24" stroke-width="3" stroke-linecap="round" stroke-linejoin="round"/>
</svg>
