<svg width="313" height="432" viewBox="0 0 313 432" fill="none" xmlns="http://www.w3.org/2000/svg">
<path d="M267 117L273 111L279 117" stroke="#FF8D24" stroke-width="2" stroke-linecap="round" stroke-linejoin="round"/>
<line x1="272.5" y1="146" x2="272.5" y2="126" stroke="#C4C4C4"/>
<path d="M267 155L273 161L279 155" stroke="#FF8D24" stroke-width="2" stroke-linecap="round" stroke-linejoin="round"/>
<path d="M267 277L273 271L279 277" stroke="#FF8D24" stroke-width="2" stroke-linecap="round" stroke-linejoin="round"/>
<line x1="272.5" y1="306" x2="272.5" y2="286" stroke="#C4C4C4"/>
<path d="M267 315L273 321L279 315" stroke="#FF8D24" stroke-width="2" stroke-linecap="round" stroke-linejoin="round"/>
<rect y="320" width="189" height="112" rx="8" fill="#FF8D24"/>
<path d="M38.2559 358.676V359.73H28.5762V358.676H32.7246V356.227H34.0137V358.676H38.2559ZM28.8574 355.406C31.0723 355.049 32.6602 353.461 32.666 351.867V351.094H34.0488V351.867C34.0488 353.467 35.6484 355.049 37.8809 355.406L37.3184 356.484C35.5312 356.145 34.0605 355.119 33.3574 353.73C32.6602 355.113 31.207 356.15 29.4199 356.484L28.8574 355.406ZM47.7598 350.449V361.055H46.4473V350.449H47.7598ZM39.5098 358.559V351.316H40.8105V353.965H43.377V351.316H44.666V358.559H39.5098ZM40.8105 357.492H43.377V354.984H40.8105V357.492ZM53.1152 353.461C53.1094 355.096 54.0938 356.959 55.7637 357.738L55.0371 358.77C53.8418 358.207 52.957 357.07 52.4824 355.746C52.002 357.199 51.0762 358.441 49.8574 359.027L49.0957 358.008C50.7832 357.205 51.8086 355.225 51.8145 353.461V352.57H49.5059V351.492H55.3301V352.57H53.1152V353.461ZM56.3145 361.043V350.449H57.6152V354.574H59.2441V355.664H57.6152V361.043H56.3145ZM69.3574 354.691V355.723H59.6895V354.691H69.3574ZM60.8262 357.434V356.449H68.1387V359.109H62.1152V359.918H68.4316V360.938H60.8379V358.172H66.8613V357.434H60.8262ZM60.9199 354.012V350.719H68.1152V351.762H62.2207V352.98H68.209V354.012H60.9199ZM78.873 350.449V361.055H77.5605V350.449H78.873ZM70.4004 354.961C70.3945 352.676 71.5605 351.223 73.166 351.223C74.7539 351.223 75.9258 352.676 75.9316 354.961C75.9258 357.264 74.7539 358.711 73.166 358.711C71.5605 358.711 70.3945 357.264 70.4004 354.961ZM71.6543 354.961C71.6543 356.59 72.2695 357.533 73.166 357.539C74.0566 357.533 74.666 356.59 74.666 354.961C74.666 353.344 74.0566 352.395 73.166 352.395C72.2695 352.395 71.6543 353.344 71.6543 354.961ZM83.7129 360V351.516H89.2324V352.793H85.2363V355.113H88.9395V356.391H85.2363V358.711H89.2559V360H83.7129ZM95.3145 353.848C95.2383 353.115 94.623 352.693 93.709 352.699C92.7422 352.693 92.168 353.162 92.1621 353.801C92.1562 354.516 92.9121 354.809 93.6152 354.973L94.4121 355.184C95.6777 355.477 96.8965 356.145 96.8965 357.621C96.8965 359.109 95.7188 360.129 93.6855 360.129C91.7109 360.129 90.457 359.18 90.3926 357.504H91.8926C91.9629 358.389 92.707 358.822 93.6738 358.828C94.6758 358.822 95.3672 358.336 95.373 357.609C95.3672 356.941 94.7578 356.66 93.8379 356.426L92.877 356.18C91.4824 355.816 90.6152 355.113 90.6152 353.895C90.6152 352.395 91.9453 351.398 93.7324 351.398C95.5312 351.398 96.7559 352.412 96.7793 353.848H95.3145ZM103.846 354.223C103.57 353.32 102.873 352.77 101.842 352.77C100.477 352.77 99.4805 353.836 99.4863 355.746C99.4805 357.674 100.459 358.746 101.877 358.746C103.16 358.746 103.975 357.973 103.998 356.766H102.029V355.559H105.475V356.578C105.475 358.764 103.975 360.117 101.877 360.117C99.5332 360.117 97.9453 358.447 97.9512 355.758C97.9453 353.033 99.6094 351.398 101.83 351.398C103.699 351.398 105.146 352.559 105.404 354.223H103.846ZM118.951 358.676V359.766H109.271V358.676H118.951ZM110.068 352.477V351.434H118.107V352.477H116.561V355.852H118.072V356.883H110.104V355.852H111.592V352.477H110.068ZM112.893 355.852H115.271V352.477H112.893V355.852ZM129.322 358.734V359.812H119.643V358.734H123.814V357.012H120.791V353.543H126.885V352.23H120.768V351.176H128.174V354.574H122.092V355.945H128.42V357.012H125.104V358.734H129.322ZM135.416 351.164V352.23H131.889V355.371C133.693 355.359 134.742 355.295 135.92 355.055L136.049 356.098C134.73 356.391 133.576 356.432 131.408 356.426H130.588V351.164H135.416ZM131.666 358.348V357.305H138.885V361.043H137.584V358.348H131.666ZM134.865 354.188V353.133H137.584V350.449H138.885V356.824H137.584V354.188H134.865ZM148.998 356.004V357.035H141.568V351.281H148.904V352.336H142.893V353.613H148.658V354.633H142.893V356.004H148.998ZM140.385 359.754V358.688H150.064V359.754H140.385ZM159.896 350.449V361.043H158.643V350.449H159.896ZM150.861 355.031C150.861 352.699 151.764 351.252 153.146 351.258C154.43 351.252 155.303 352.453 155.455 354.434H156.475V350.637H157.717V360.527H156.475V355.488H155.467C155.344 357.557 154.459 358.822 153.146 358.816C151.764 358.822 150.861 357.369 150.861 355.031ZM152.068 355.031C152.062 356.689 152.473 357.58 153.146 357.574C153.85 357.58 154.266 356.689 154.271 355.031C154.266 353.379 153.85 352.482 153.146 352.488C152.473 352.482 152.062 353.379 152.068 355.031ZM24.252 371.41V372.477H20.7246V377.41C22.3828 377.398 23.5488 377.328 24.8613 377.082L25.002 378.137C23.5137 378.43 22.2305 378.488 20.2559 378.488H19.4121V371.41H24.252ZM23.6895 375.242V374.176H26.4902V370.449H27.791V381.055H26.4902V375.242H23.6895ZM40.4707 370.449V372.734H41.9473V373.812H40.4707V375.781H39.1699V370.449H40.4707ZM32.4785 375.5V371.129H37.4941V375.5H32.4785ZM33.123 380.75V376.684H34.4004V379.689C35.0039 379.654 35.6309 379.566 36.2402 379.367L36.4277 380.387C35.4902 380.715 34.5879 380.756 33.6855 380.75H33.123ZM33.7559 374.48H36.2168V372.148H33.7559V374.48ZM36.0645 377.738V376.801H38.1035V375.969H39.3809V376.801H41.3965V377.738H36.0645ZM36.709 379.543C36.6973 378.617 37.5234 378.055 38.7246 378.055C39.9141 378.055 40.7461 378.617 40.752 379.543C40.7461 380.451 39.9141 381.02 38.7246 381.02C37.5176 381.02 36.6973 380.451 36.709 379.543ZM37.8691 379.543C37.8633 379.924 38.2266 380.141 38.7246 380.141C39.2227 380.141 39.5801 379.924 39.5801 379.543C39.5801 379.156 39.2227 378.945 38.7246 378.945C38.2266 378.945 37.8633 379.156 37.8691 379.543ZM52.1426 375.922V376.965H42.4863V375.922H52.1426ZM43.4824 372.934C43.4824 371.592 44.9883 370.783 47.3027 370.789C49.6113 370.783 51.1172 371.592 51.123 372.934C51.1172 374.281 49.6113 375.102 47.3027 375.102C44.9883 375.102 43.4824 374.281 43.4824 372.934ZM43.6816 380.832V377.75H44.9824V379.777H51.0527V380.832H43.6816ZM44.8418 372.934C44.8301 373.654 45.7617 374.041 47.3027 374.035C48.8496 374.041 49.7754 373.654 49.7754 372.934C49.7754 372.236 48.8496 371.832 47.3027 371.832C45.7617 371.832 44.8301 372.236 44.8418 372.934ZM61.623 371.234V371.867C61.6113 372.588 61.6113 373.643 61.3652 374.984L60.0762 374.867C60.2871 373.777 60.3281 372.963 60.3398 372.312H56.2207V371.234H61.623ZM55.5879 375.828C56.2148 375.822 56.918 375.816 57.6621 375.805V373.648H58.9512V375.764C60.0469 375.717 61.1719 375.635 62.1973 375.488L62.2676 376.426C60.0645 376.824 57.5625 376.865 55.7051 376.871L55.5879 375.828ZM57.1699 380.832V377.68H58.4824V379.777H64.4941V380.832H57.1699ZM62.8184 378.383V370.449H64.1543V373.754H65.5254V374.844H64.1543V378.383H62.8184ZM74.9004 370.461V376.449H73.5879V370.461H74.9004ZM66.0762 375.207C67.793 374.662 68.6836 373.285 68.6777 371.891V370.859H70.0254V371.891C70.0195 373.244 70.9219 374.504 72.5801 375.031L71.9473 376.027C70.7227 375.646 69.8438 374.867 69.3633 373.854C68.8887 374.943 67.9922 375.816 66.7207 376.238L66.0762 375.207ZM67.8691 380.914V376.977H74.9004V380.914H67.8691ZM69.1582 379.859H73.623V378.008H69.1582V379.859ZM81.2637 370.613C83.6777 370.619 85.0781 371.258 85.084 372.43C85.0781 373.613 83.6777 374.252 81.2637 374.258C78.8555 374.252 77.4434 373.613 77.4434 372.43C77.4434 371.258 78.8555 370.619 81.2637 370.613ZM76.4473 375.863V374.82H86.1035V375.863H76.4473ZM77.584 377.539V376.578H84.8965V379.168H78.873V379.953H85.1895V380.949H77.5957V378.242H83.6191V377.539H77.584ZM78.8145 372.43C78.8086 373.016 79.6523 373.285 81.2637 373.285C82.8984 373.285 83.7363 373.016 83.7363 372.43C83.7363 371.885 82.8984 371.574 81.2637 371.574C79.6523 371.574 78.8086 371.885 78.8145 372.43ZM97.9629 370.449V374.586H99.5332V375.676H97.9629V381.02H96.6621V370.449H97.9629ZM89.6074 378.125C92.1855 376.836 93.5801 375.043 93.8379 372.629H90.1816V371.551H95.1621C95.1562 374.662 93.8672 377.398 90.3457 379.133L89.6074 378.125ZM108.838 370.449V375.91H107.549V370.449H108.838ZM100.119 374.961C101.766 374.475 102.674 373.279 102.738 372.031H100.459V370.977H106.283V372.031H104.062C104.121 373.203 105.018 374.316 106.658 374.762L106.025 375.77C104.789 375.412 103.904 374.662 103.424 373.701C102.943 374.762 102.023 375.6 100.717 375.992L100.119 374.961ZM101.83 377.352V376.355H108.861V379.086H103.131V379.941H109.178V380.949H101.854V378.137H107.561V377.352H101.83ZM118.775 371.328C118.77 372.658 120.264 374.012 122.525 374.305L122.01 375.359C120.211 375.09 118.781 374.205 118.09 373.01C117.398 374.205 115.975 375.09 114.193 375.359L113.678 374.305C115.916 374.012 117.404 372.67 117.404 371.328V370.789H118.775V371.328ZM113.256 377.352V376.273H122.912V377.352H118.705V381.043H117.416V377.352H113.256ZM130.236 377.34C130.236 378.225 130.641 379.145 131.549 379.73C132.475 379.104 132.902 378.143 132.908 377.34V376.906H134.186V377.34C134.18 378.447 134.836 379.49 136.225 379.93L135.592 380.879C134.561 380.533 133.881 379.859 133.512 379.01C133.166 379.848 132.545 380.586 131.584 380.973C130.576 380.604 129.943 379.889 129.609 379.051C129.229 379.865 128.555 380.527 127.576 380.879L126.932 379.93C128.303 379.449 128.965 378.371 128.971 377.34V376.906H130.236V377.34ZM126.662 373.543C126.662 372.055 127.881 371.023 129.521 371.023C131.156 371.023 132.375 372.055 132.369 373.543C132.375 375.014 131.156 376.057 129.521 376.051C127.881 376.057 126.662 375.014 126.662 373.543ZM127.939 373.543C127.934 374.41 128.596 374.967 129.521 374.973C130.43 374.967 131.092 374.41 131.092 373.543C131.092 372.676 130.43 372.119 129.521 372.125C128.596 372.119 127.934 372.676 127.939 373.543ZM133.986 376.461V370.461H135.299V376.461H133.986ZM145.447 375.266V376.297H142.307V378.723H146.525V379.789H136.846V378.723H141.018V376.297H138.018V371.234H145.365V372.277H139.318V375.266H145.447ZM156.885 376.18V377.234H147.205V376.18H151.4V375.301H148.436V372.488H154.389V371.703H148.4V370.684H155.689V373.438H149.725V374.281H155.9V375.301H152.689V376.18H156.885ZM148.283 378.934V377.902H155.748V380.973H154.436V378.934H148.283ZM168.791 370.426V372.816H170.279V373.871H168.791V376.203H167.49V370.426H168.791ZM160.447 372.301V371.305H162.943V370.367H164.244V371.305H166.729V372.301H160.447ZM160.986 374.363C160.986 373.309 162.023 372.635 163.588 372.629C165.158 372.635 166.172 373.309 166.178 374.363C166.172 375.447 165.158 376.098 163.588 376.098C162.023 376.098 160.986 375.447 160.986 374.363ZM161.865 377.621V376.672H168.791V379.227H163.166V379.977H169.119V380.949H161.877V378.324H167.49V377.621H161.865ZM162.252 374.363C162.246 374.885 162.768 375.154 163.588 375.16C164.408 375.154 164.936 374.885 164.936 374.363C164.936 373.859 164.408 373.561 163.588 373.566C162.768 373.561 162.246 373.859 162.252 374.363ZM55.9102 391.48V398.418H50.8945V391.48H55.9102ZM52.1719 397.375H54.6094V392.5H52.1719V397.375ZM57.5156 401.043V390.449H58.8164V394.516H60.4453V395.617H58.8164V401.043H57.5156ZM65.5898 391.668C65.584 392.664 65.4902 393.619 65.2441 394.516H66.5508V390.707H67.7812V400.539H66.5508V395.57H64.8574C64.2773 396.848 63.2754 397.973 61.6289 398.898L60.8906 398.008C62.3262 397.188 63.2109 396.232 63.7266 395.137L61.0781 395.406L60.9258 394.281L64.0957 394.105C64.207 393.666 64.2773 393.203 64.3125 392.723H61.4414V391.668H65.5898ZM68.7891 401.043V390.449H70.0312V401.043H68.7891ZM76.9688 391.211V392.242H73.1719V393.25H76.6641V394.27H73.1719V395.289C75.1523 395.295 76.3594 395.266 77.7539 395.031L77.8828 396.062C76.3652 396.314 75.0352 396.35 72.75 396.344H71.8477V391.211H76.9688ZM72.8906 399.051C72.8848 397.797 74.25 397.064 76.5117 397.07C78.7324 397.064 80.1328 397.797 80.1328 399.051C80.1328 400.305 78.7324 401.031 76.5117 401.031C74.25 401.031 72.8848 400.305 72.8906 399.051ZM74.1914 399.051C74.1797 399.684 75.0059 400.023 76.5117 400.023C77.9824 400.023 78.832 399.684 78.832 399.051C78.832 398.424 77.9824 398.078 76.5117 398.078C75.0059 398.078 74.1797 398.424 74.1914 399.051ZM78.7734 396.918V390.461H80.0859V396.918H78.7734ZM93.293 390.449V401.055H91.9805V390.449H93.293ZM84.8203 394.961C84.8145 392.676 85.9805 391.223 87.5859 391.223C89.1738 391.223 90.3457 392.676 90.3516 394.961C90.3457 397.264 89.1738 398.711 87.5859 398.711C85.9805 398.711 84.8145 397.264 84.8203 394.961ZM86.0742 394.961C86.0742 396.59 86.6895 397.533 87.5859 397.539C88.4766 397.533 89.0859 396.59 89.0859 394.961C89.0859 393.344 88.4766 392.395 87.5859 392.395C86.6895 392.395 86.0742 393.344 86.0742 394.961ZM103.91 390.449V398.465H102.668V390.449H103.91ZM95.2617 396.566V391.281H96.4922V392.957H98.2383V391.281H99.4453V393.426H100.57V390.637H101.801V398.137H100.57V394.48H99.4453V396.566H95.2617ZM96.4922 395.512H98.2383V393.953H96.4922V395.512ZM96.8203 400.832V397.398H98.1211V399.777H104.203V400.832H96.8203ZM113.836 396.004V397.035H106.406V391.281H113.742V392.336H107.73V393.613H113.496V394.633H107.73V396.004H113.836ZM105.223 399.754V398.688H114.902V399.754H105.223ZM127.535 390.449V401.043H126.281V395.605H125.145V400.551H123.926V390.73H125.145V394.551H126.281V390.449H127.535ZM118.359 397.926C120.615 396.625 121.57 394.949 121.758 392.828H118.852V391.785H123.023C123.023 394.65 122.121 397.111 119.109 398.828L118.359 397.926ZM132.984 396.121V397.838C133.904 397.785 134.83 397.703 135.703 397.574L135.809 398.535C133.436 398.975 130.893 398.998 129.023 398.992L128.859 397.938C129.686 397.932 130.658 397.926 131.684 397.896V396.121H132.984ZM129.105 395.477C130.699 395.037 131.578 393.988 131.654 392.805H129.422V391.75H131.684V390.543H132.984V391.75H135.27V392.805H133.002C133.072 393.936 133.969 394.949 135.562 395.359L134.965 396.379C133.711 396.039 132.814 395.307 132.334 394.369C131.871 395.354 130.986 396.121 129.727 396.461L129.105 395.477ZM136.336 401.055V390.449H137.637V401.055H136.336Z" fill="white"/>
<path d="M208 370L214 376L208 382" stroke="#FF8D24" stroke-width="2" stroke-linecap="round" stroke-linejoin="round"/>
<path d="M245.943 359.816V366.625H244.207V364.027H242.238V362.605H244.207V359.816H245.943ZM235.389 365.477C237.351 364.82 238.287 363.316 238.376 361.799H235.881V360.377H242.635V361.799H240.167C240.242 363.187 241.138 364.622 243.018 365.244L242.156 366.584C240.782 366.133 239.832 365.237 239.292 364.123C238.738 365.367 237.747 366.365 236.277 366.844L235.389 365.477ZM237.645 372.121V367.104H239.367V368.279H244.207V367.104H245.943V372.121H237.645ZM239.367 370.727H244.207V369.619H239.367V370.727ZM258.043 359.816V367.008H256.307V364.109H254.338V362.688H256.307V359.816H258.043ZM247.488 365.654C249.505 365.005 250.435 363.419 250.482 361.854H247.98V360.445H254.734V361.854H252.26C252.28 363.275 253.176 364.772 255.117 365.422L254.256 366.803C252.875 366.352 251.925 365.442 251.385 364.321C250.838 365.565 249.84 366.557 248.377 367.021L247.488 365.654ZM249.676 372.121V367.527H258.043V372.121H249.676ZM251.426 370.727H256.334V368.895H251.426V370.727ZM266.656 361.061V362.059C266.643 363.228 266.643 364.759 266.314 366.83L264.592 366.693C264.879 364.889 264.906 363.556 264.92 362.455H260.203V361.061H266.656ZM259.547 368.32C260.244 368.32 261.023 368.313 261.83 368.293V364.629H263.553V368.238C264.776 368.19 266.014 368.102 267.162 367.951L267.271 369.25C264.708 369.681 261.892 369.729 259.711 369.715L259.547 368.32ZM267.75 372.258V359.816H269.514V364.82H271.209V366.27H269.514V372.258H267.75ZM284.867 360.5V361.334C284.86 362.38 284.86 363.809 284.539 365.859H286.33V367.268H283.637V372.258H281.9V367.268H279.316V372.258H277.566V367.268H274.982V365.859H282.775C283.097 364.178 283.151 362.886 283.165 361.908H276.336V360.5H284.867ZM298.471 369.373V370.809H287.082V369.373H291.881V366.83H288.285V360.732H297.199V366.83H293.617V369.373H298.471ZM290.008 365.463H295.477V362.127H290.008V365.463ZM303.215 360.65C305.19 360.644 306.653 361.915 306.66 363.699C306.653 365.49 305.19 366.755 303.215 366.762C301.253 366.755 299.749 365.49 299.756 363.699C299.749 361.915 301.253 360.644 303.215 360.65ZM299.236 368.32C301.458 368.327 304.534 368.3 307.193 367.924L307.33 369.182C304.568 369.722 301.615 369.742 299.441 369.742L299.236 368.32ZM301.492 363.699C301.485 364.684 302.23 365.251 303.215 365.244C304.206 365.251 304.958 364.684 304.965 363.699C304.958 362.729 304.206 362.154 303.215 362.154C302.23 362.154 301.485 362.729 301.492 363.699ZM307.904 372.285V359.816H309.641V372.285H307.904ZM271.223 379.83V383.385H272.809V384.82H271.223V388.279H269.473V379.83H271.223ZM261.133 386.68C262.042 386.68 263.074 386.68 264.154 386.652V385.955C262.801 385.764 261.96 385.101 261.967 384.15C261.96 382.995 263.17 382.284 265.016 382.291C266.848 382.284 268.058 382.995 268.064 384.15C268.058 385.101 267.224 385.757 265.891 385.948V386.591C266.916 386.536 267.941 386.461 268.898 386.338L269.021 387.541C266.39 388.006 263.505 388.033 261.311 388.033L261.133 386.68ZM261.461 382.004V380.732H264.154V379.721H265.891V380.732H268.584V382.004H261.461ZM262.719 390.125V388.785H271.223V392.258H269.473V390.125H262.719ZM263.635 384.15C263.628 384.602 264.127 384.868 265.016 384.861C265.891 384.868 266.39 384.602 266.396 384.15C266.39 383.665 265.891 383.453 265.016 383.453C264.127 383.453 263.628 383.665 263.635 384.15ZM284.129 379.816V392.258H282.475V386.01H281.271V391.656H279.672V380.021H281.271V384.615H282.475V379.816H284.129ZM273.725 389.441V381.252H278.359V382.66H275.475V387.979C276.678 387.958 277.744 387.89 278.947 387.678L279.07 389.1C277.553 389.387 276.227 389.435 274.586 389.441H273.725Z" fill="#282828"/>
<rect y="160" width="189" height="112" rx="8" fill="#FF8D24"/>
<path d="M45.5098 190H43.8809L46.8691 181.516H48.7441L51.7441 190H50.1152L49.4062 187.902H46.2129L45.5098 190ZM46.623 186.672H48.9961L47.8418 183.25H47.7715L46.623 186.672ZM54.1816 181.516V190H52.6816V181.516H54.1816ZM57.1113 181.516V190H55.6113V181.516H57.1113ZM58.541 190V183.637H60.041V190H58.541ZM58.4355 181.914C58.4355 181.469 58.8281 181.105 59.3027 181.105C59.7773 181.105 60.1699 181.469 60.1699 181.914C60.1699 182.365 59.7773 182.729 59.3027 182.734C58.8281 182.729 58.4355 182.365 58.4355 181.914ZM61.1777 188.207C61.1777 186.777 62.3672 186.361 63.5449 186.285C63.9902 186.25 64.8984 186.209 65.1797 186.197L65.1738 185.688C65.1738 185.055 64.7695 184.691 64.0254 184.691C63.3574 184.691 62.9473 184.996 62.8301 185.453H61.3887C61.4941 184.369 62.4668 183.555 64.0605 183.555C65.2676 183.555 66.6621 184.053 66.6621 185.746V190H65.2324V189.121H65.1855C64.9043 189.66 64.3125 190.129 63.3105 190.129C62.0977 190.129 61.1777 189.467 61.1777 188.207ZM62.6191 188.195C62.6191 188.746 63.0703 189.027 63.6973 189.027C64.6055 189.027 65.1855 188.43 65.1855 187.715L65.1797 187.193C64.9102 187.205 64.0781 187.258 63.7793 187.281C63.0703 187.34 62.6191 187.639 62.6191 188.195ZM69.5684 186.273V190H68.0684V183.637H69.498V184.715H69.5801C69.8672 184.006 70.5176 183.555 71.4668 183.555C72.7852 183.555 73.6523 184.422 73.6465 185.945V190H72.1582V186.18C72.1582 185.324 71.6953 184.814 70.916 184.82C70.125 184.814 69.5684 185.348 69.5684 186.273ZM77.8535 190.129C75.9551 190.129 74.8066 188.77 74.8066 186.848C74.8066 184.896 75.9902 183.555 77.8535 183.555C79.3945 183.555 80.4785 184.457 80.584 185.828H79.1543C79.0371 185.219 78.5918 184.756 77.8652 184.75C76.9395 184.756 76.3184 185.529 76.3184 186.812C76.3184 188.125 76.9277 188.904 77.8652 188.91C78.5273 188.904 79.0195 188.518 79.1543 187.832H80.584C80.4727 189.174 79.4531 190.129 77.8535 190.129ZM84.5332 190.129C82.6172 190.129 81.4395 188.852 81.4395 186.859C81.4395 184.891 82.6348 183.555 84.4512 183.555C86.0098 183.555 87.3574 184.533 87.3574 186.766V187.234H82.916C82.9395 188.318 83.5781 188.963 84.5449 188.957C85.2012 188.963 85.6406 188.682 85.834 188.301H87.2988C87.0293 189.402 86.0098 190.129 84.5332 190.129ZM82.9219 186.215H85.9277C85.9219 185.348 85.3359 184.715 84.4746 184.715C83.5781 184.715 82.9746 185.406 82.9219 186.215ZM94.8105 182.629C94.8047 183.783 95.666 184.896 97.3301 185.359L96.7324 186.367C95.5137 186.033 94.6523 185.324 94.1719 184.416C93.709 185.418 92.8242 186.191 91.5645 186.555L90.9434 185.547C92.6133 185.078 93.5098 183.895 93.5098 182.629V182.605H91.2949V181.574H93.5098V180.402H94.8223V181.574H97.0254V182.605H94.8105V182.629ZM92.5137 190.914V187.129H99.3574V190.914H92.5137ZM93.8027 189.859H98.0684V188.16H93.8027V189.859ZM98.0566 186.684V180.449H99.3574V183.004H100.834V184.082H99.3574V186.684H98.0566ZM104.268 181.223C105.223 181.223 106.014 181.756 106.488 182.688H108.967V180.449H110.256V191.055H108.967V187.047H106.582C106.119 188.102 105.287 188.711 104.268 188.711C102.674 188.711 101.543 187.264 101.549 184.961C101.543 182.676 102.674 181.223 104.268 181.223ZM102.803 184.961C102.797 186.59 103.395 187.533 104.268 187.539C105.146 187.533 105.738 186.59 105.744 184.961C105.738 183.344 105.146 182.395 104.268 182.395C103.395 182.395 102.797 183.344 102.803 184.961ZM106.857 183.754C106.934 184.123 106.975 184.527 106.975 184.961C106.975 185.324 106.945 185.67 106.887 185.992H108.967V183.754H106.857ZM115.529 182.992C115.518 184.885 116.467 186.795 118.107 187.586L117.311 188.629C116.162 188.049 115.336 186.93 114.885 185.582C114.422 187.023 113.555 188.219 112.342 188.828L111.545 187.785C113.25 186.977 114.223 184.949 114.229 182.992V181.305H115.529V182.992ZM118.74 191.043V180.449H120.041V184.598H121.67V185.711H120.041V191.043H118.74ZM131.783 184.691V185.723H122.115V184.691H131.783ZM123.252 187.434V186.449H130.564V189.109H124.541V189.918H130.857V190.938H123.264V188.172H129.287V187.434H123.252ZM123.346 184.012V180.719H130.541V181.762H124.646V182.98H130.635V184.012H123.346ZM135.92 181.188C137.602 181.182 138.826 182.242 138.838 183.742C138.826 185.248 137.602 186.303 135.92 186.309C134.256 186.303 133.008 185.248 133.014 183.742C133.008 182.242 134.256 181.182 135.92 181.188ZM132.533 187.773C134.443 187.773 137.086 187.75 139.377 187.422L139.482 188.371C137.109 188.822 134.566 188.84 132.697 188.84L132.533 187.773ZM134.303 183.742C134.297 184.627 134.994 185.172 135.92 185.172C136.857 185.172 137.555 184.627 137.561 183.742C137.555 182.863 136.863 182.312 135.92 182.312C134.994 182.312 134.297 182.863 134.303 183.742ZM140.01 191.055V180.449H141.311V191.055H140.01ZM38.0332 208.676V209.766H28.3535V208.676H38.0332ZM29.1504 202.477V201.434H37.1895V202.477H35.6426V205.852H37.1543V206.883H29.1855V205.852H30.6738V202.477H29.1504ZM31.9746 205.852H34.3535V202.477H31.9746V205.852ZM48.4043 208.734V209.812H38.7246V208.734H42.8965V207.012H39.873V203.543H45.9668V202.23H39.8496V201.176H47.2559V204.574H41.1738V205.945H47.502V207.012H44.1855V208.734H48.4043ZM54.498 201.164V202.23H50.9707V205.371C52.7754 205.359 53.8242 205.295 55.002 205.055L55.1309 206.098C53.8125 206.391 52.6582 206.432 50.4902 206.426H49.6699V201.164H54.498ZM50.748 208.348V207.305H57.9668V211.043H56.666V208.348H50.748ZM53.9473 204.188V203.133H56.666V200.449H57.9668V206.824H56.666V204.188H53.9473ZM68.0801 206.004V207.035H60.6504V201.281H67.9863V202.336H61.9746V203.613H67.7402V204.633H61.9746V206.004H68.0801ZM59.4668 209.754V208.688H69.1465V209.754H59.4668ZM79.5059 204.691V205.723H69.8379V204.691H79.5059ZM70.9746 207.434V206.449H78.2871V209.109H72.2637V209.918H78.5801V210.938H70.9863V208.172H77.0098V207.434H70.9746ZM71.0684 204.012V200.719H78.2637V201.762H72.3691V202.98H78.3574V204.012H71.0684ZM89.0215 200.449V211.055H87.709V200.449H89.0215ZM80.5488 204.961C80.543 202.676 81.709 201.223 83.3145 201.223C84.9023 201.223 86.0742 202.676 86.0801 204.961C86.0742 207.264 84.9023 208.711 83.3145 208.711C81.709 208.711 80.543 207.264 80.5488 204.961ZM81.8027 204.961C81.8027 206.59 82.418 207.533 83.3145 207.539C84.2051 207.533 84.8145 206.59 84.8145 204.961C84.8145 203.344 84.2051 202.395 83.3145 202.395C82.418 202.395 81.8027 203.344 81.8027 204.961ZM101.783 200.449V203.004H103.26V204.094H101.783V206.625H100.482V200.449H101.783ZM93.3223 205.57C95.7949 204.932 97.207 203.666 97.4297 202.125H93.8496V201.07H98.8301C98.8242 203.848 97.0195 205.764 93.8613 206.566L93.3223 205.57ZM94.7285 208.113V207.07H101.783V211.043H100.482V208.113H94.7285ZM107.596 203.461C107.59 205.096 108.574 206.959 110.244 207.738L109.518 208.77C108.322 208.207 107.438 207.07 106.963 205.746C106.482 207.199 105.557 208.441 104.338 209.027L103.576 208.008C105.264 207.205 106.289 205.225 106.295 203.461V202.57H103.986V201.492H109.811V202.57H107.596V203.461ZM110.795 211.043V200.449H112.096V204.574H113.725V205.664H112.096V211.043H110.795ZM117.604 201.188C119.285 201.182 120.51 202.242 120.521 203.742C120.51 205.248 119.285 206.303 117.604 206.309C115.939 206.303 114.691 205.248 114.697 203.742C114.691 202.242 115.939 201.182 117.604 201.188ZM114.217 207.773C116.127 207.773 118.77 207.75 121.061 207.422L121.166 208.371C118.793 208.822 116.25 208.84 114.381 208.84L114.217 207.773ZM115.986 203.742C115.98 204.627 116.678 205.172 117.604 205.172C118.541 205.172 119.238 204.627 119.244 203.742C119.238 202.863 118.547 202.312 117.604 202.312C116.678 202.312 115.98 202.863 115.986 203.742ZM121.693 211.055V200.449H122.994V211.055H121.693ZM130.33 201.047C131.186 201.041 131.93 201.357 132.428 201.891H134.959V200.449H136.26V206.684H134.959V205.336H132.422C131.918 205.857 131.18 206.174 130.33 206.168C128.73 206.174 127.529 205.102 127.529 203.613C127.529 202.113 128.73 201.041 130.33 201.047ZM128.771 203.613C128.771 204.48 129.422 205.066 130.33 205.066C131.209 205.066 131.859 204.48 131.865 203.613C131.859 202.717 131.209 202.16 130.33 202.16C129.422 202.16 128.771 202.717 128.771 203.613ZM129.076 208.969C129.064 207.662 130.453 206.9 132.674 206.906C134.9 206.9 136.289 207.662 136.295 208.969C136.289 210.27 134.9 211.031 132.674 211.031C130.453 211.031 129.064 210.27 129.076 208.969ZM130.354 208.969C130.342 209.643 131.203 210.006 132.674 210.012C134.174 210.006 135.018 209.643 135.018 208.969C135.018 208.277 134.174 207.908 132.674 207.902C131.203 207.908 130.342 208.277 130.354 208.969ZM133.014 202.934C133.072 203.15 133.107 203.373 133.107 203.613C133.107 203.848 133.072 204.07 133.02 204.281H134.959V202.934H133.014ZM146.631 207.211V211.043H145.33V208.242H139.412V207.211H146.631ZM137.9 203.602C137.9 202.102 139.102 201.023 140.701 201.035C141.574 201.029 142.336 201.357 142.834 201.914H145.33V200.449H146.631V206.707H145.33V205.301H142.846C142.342 205.863 141.58 206.203 140.701 206.203C139.102 206.203 137.9 205.125 137.9 203.602ZM139.143 203.602C139.143 204.521 139.793 205.096 140.701 205.102C141.568 205.096 142.23 204.521 142.236 203.602C142.23 202.717 141.568 202.131 140.701 202.137C139.793 202.131 139.143 202.717 139.143 203.602ZM143.396 204.246H145.33V202.98H143.402C143.449 203.18 143.479 203.385 143.479 203.602C143.479 203.824 143.449 204.041 143.396 204.246ZM152.947 200.613C155.361 200.619 156.762 201.258 156.768 202.43C156.762 203.613 155.361 204.252 152.947 204.258C150.539 204.252 149.127 203.613 149.127 202.43C149.127 201.258 150.539 200.619 152.947 200.613ZM148.131 205.863V204.82H157.787V205.863H148.131ZM149.268 207.539V206.578H156.58V209.168H150.557V209.953H156.873V210.949H149.279V208.242H155.303V207.539H149.268ZM150.498 202.43C150.492 203.016 151.336 203.285 152.947 203.285C154.582 203.285 155.42 203.016 155.42 202.43C155.42 201.885 154.582 201.574 152.947 201.574C151.336 201.574 150.492 201.885 150.498 202.43ZM47.0215 220.449V224.586H48.5918V225.676H47.0215V231.02H45.7207V220.449H47.0215ZM38.666 228.125C41.2441 226.836 42.6387 225.043 42.8965 222.629H39.2402V221.551H44.2207C44.2148 224.662 42.9258 227.398 39.4043 229.133L38.666 228.125ZM53.0918 223.461C53.0918 225.195 54.1113 227.023 55.8223 227.738L55.1074 228.77C53.8535 228.225 52.9395 227.117 52.4531 225.77C51.9668 227.223 51.0352 228.441 49.7988 229.027L49.0488 228.008C50.7188 227.234 51.7617 225.26 51.7676 223.461V222.57H49.4355V221.492H55.4121V222.57H53.0918V223.461ZM56.5957 231.043V220.449H57.9082V231.043H56.5957ZM65.7715 224.844V225.898H63.627V227.744C64.5527 227.709 65.4785 227.645 66.3574 227.551L66.4629 228.512C64.1309 228.857 61.6758 228.881 59.6777 228.887L59.5137 227.809C60.3867 227.814 61.3418 227.809 62.3262 227.791V225.898H60.252V221.422H65.7246V222.453H61.541V224.844H65.7715ZM66.9902 231.055V220.449H68.291V231.055H66.9902ZM75.6855 220.789C77.291 220.795 78.4863 221.785 78.498 223.18C78.4863 224.58 77.291 225.564 75.6855 225.57C74.0684 225.564 72.873 224.58 72.873 223.18C72.873 221.785 74.0684 220.795 75.6855 220.789ZM74.1387 223.18C74.1387 224 74.7949 224.516 75.6855 224.516C76.5762 224.516 77.2266 224 77.2324 223.18C77.2266 222.377 76.5762 221.861 75.6855 221.867C74.7949 221.861 74.1387 222.377 74.1387 223.18ZM74.4785 227.281V226.262H81.5098V229.027H75.7793V229.883H81.8262V230.914H74.502V228.066H80.209V227.281H74.4785ZM80.1973 225.805V220.449H81.5098V225.805H80.1973ZM88.9746 221.234V221.867C88.9629 222.588 88.9629 223.643 88.7168 224.984L87.4277 224.867C87.6387 223.777 87.6797 222.963 87.6914 222.312H83.5723V221.234H88.9746ZM82.9395 225.828C83.5664 225.822 84.2695 225.816 85.0137 225.805V223.648H86.3027V225.764C87.3984 225.717 88.5234 225.635 89.5488 225.488L89.6191 226.426C87.416 226.824 84.9141 226.865 83.0566 226.871L82.9395 225.828ZM84.5215 230.832V227.68H85.834V229.777H91.8457V230.832H84.5215ZM90.1699 228.383V220.449H91.5059V223.754H92.877V224.844H91.5059V228.383H90.1699ZM99.5918 223.777V224.82H97.623V226.021C98.5078 225.986 99.3867 225.928 100.213 225.84L100.307 226.777C98.0566 227.088 95.625 227.146 93.6504 227.152L93.4746 226.109C94.3477 226.104 95.3145 226.098 96.3105 226.068V224.82H94.3887V221.105H99.5098V222.16H95.7012V223.777H99.5918ZM95.1621 230.832V227.82H96.4746V229.777H102.568V230.832H95.1621ZM100.951 228.406V220.449H102.264V228.406H100.951ZM110.643 223.461C110.643 225.195 111.662 227.023 113.373 227.738L112.658 228.77C111.404 228.225 110.49 227.117 110.004 225.77C109.518 227.223 108.586 228.441 107.35 229.027L106.6 228.008C108.27 227.234 109.312 225.26 109.318 223.461V222.57H106.986V221.492H112.963V222.57H110.643V223.461ZM114.146 231.043V220.449H115.459V231.043H114.146ZM126.814 222.102V223.168H125.373V224.375H126.814V225.441H125.373V227.211H124.072V220.449H125.373V222.102H126.814ZM117.029 222.547V221.527H119.525V220.379H120.826V221.527H123.311V222.547H117.029ZM117.568 224.867C117.568 223.73 118.623 222.975 120.17 222.969C121.699 222.975 122.754 223.73 122.76 224.867C122.754 226.004 121.699 226.754 120.17 226.754C118.623 226.754 117.568 226.004 117.568 224.867ZM118.412 229.168C118.4 227.99 119.754 227.299 121.951 227.305C124.125 227.299 125.49 227.99 125.49 229.168C125.49 230.334 124.125 231.031 121.951 231.031C119.754 231.031 118.4 230.334 118.412 229.168ZM118.834 224.867C118.828 225.441 119.367 225.775 120.17 225.77C120.973 225.775 121.518 225.441 121.518 224.867C121.518 224.281 120.973 223.93 120.17 223.93C119.367 223.93 118.828 224.281 118.834 224.867ZM119.701 229.168C119.695 229.73 120.504 230.047 121.951 230.047C123.381 230.047 124.184 229.73 124.189 229.168C124.184 228.588 123.381 228.301 121.951 228.301C120.504 228.301 119.695 228.588 119.701 229.168ZM136.26 220.449V226.602H134.959V224.035H133.131V222.969H134.959V220.449H136.26ZM127.365 225.547C129.053 224.99 129.955 223.584 129.955 222.184V222.102H127.752V221.047H133.471V222.102H131.279V222.195C131.279 223.467 132.135 224.779 133.775 225.336L133.119 226.367C131.936 225.963 131.098 225.154 130.635 224.152C130.166 225.266 129.287 226.15 128.033 226.566L127.365 225.547ZM129.217 230.914V227.059H136.26V230.914H129.217ZM130.518 229.859H134.982V228.09H130.518V229.859ZM142.576 220.613C144.99 220.619 146.391 221.258 146.396 222.43C146.391 223.613 144.99 224.252 142.576 224.258C140.168 224.252 138.756 223.613 138.756 222.43C138.756 221.258 140.168 220.619 142.576 220.613ZM137.76 225.863V224.82H147.416V225.863H137.76ZM138.896 227.539V226.578H146.209V229.168H140.186V229.953H146.502V230.949H138.908V228.242H144.932V227.539H138.896ZM140.127 222.43C140.121 223.016 140.965 223.285 142.576 223.285C144.211 223.285 145.049 223.016 145.049 222.43C145.049 221.885 144.211 221.574 142.576 221.574C140.965 221.574 140.121 221.885 140.127 222.43ZM70.6113 240.449V244.586H72.1816V245.676H70.6113V251.02H69.3105V240.449H70.6113ZM62.2559 248.125C64.834 246.836 66.2285 245.043 66.4863 242.629H62.8301V241.551H67.8105C67.8047 244.662 66.5156 247.398 62.9941 249.133L62.2559 248.125ZM76.6816 243.461C76.6816 245.195 77.7012 247.023 79.4121 247.738L78.6973 248.77C77.4434 248.225 76.5293 247.117 76.043 245.77C75.5566 247.223 74.625 248.441 73.3887 249.027L72.6387 248.008C74.3086 247.234 75.3516 245.26 75.3574 243.461V242.57H73.0254V241.492H79.002V242.57H76.6816V243.461ZM80.1855 251.043V240.449H81.498V251.043H80.1855ZM91.6582 245.266V246.297H88.5176V248.723H92.7363V249.789H83.0566V248.723H87.2285V246.297H84.2285V241.234H91.5762V242.277H85.5293V245.266H91.6582ZM103.096 246.18V247.234H93.416V246.18H97.6113V245.301H94.6465V242.488H100.6V241.703H94.6113V240.684H101.9V243.438H95.9355V244.281H102.111V245.301H98.9004V246.18H103.096ZM94.4941 248.934V247.902H101.959V250.973H100.646V248.934H94.4941ZM116.326 248.699V249.766H106.646V248.699H110.83V246.262H112.131V248.699H116.326ZM107.068 245.676C109.178 245.324 110.748 243.895 110.783 242.371H107.455V241.305H115.494V242.371H112.154C112.195 243.895 113.766 245.289 115.939 245.617L115.424 246.648C113.637 246.326 112.166 245.377 111.48 244.053C110.801 245.395 109.348 246.373 107.584 246.707L107.068 245.676ZM125.889 240.449V246.742H124.588V244.152H122.783V243.086H124.588V240.449H125.889ZM116.982 245.688C118.688 245.102 119.584 243.678 119.584 242.277V242.195H117.381V241.141H123.1V242.195H120.908V242.266C120.908 243.555 121.764 244.855 123.404 245.406L122.748 246.438C121.57 246.039 120.738 245.23 120.27 244.234C119.807 245.359 118.922 246.273 117.662 246.719L116.982 245.688ZM118.705 249.027C118.693 247.756 120.07 247.012 122.303 247.012C124.547 247.012 125.918 247.756 125.924 249.027C125.918 250.299 124.547 251.037 122.303 251.043C120.07 251.037 118.693 250.299 118.705 249.027ZM119.994 249.027C119.988 249.684 120.832 250.041 122.303 250.035C123.785 250.041 124.623 249.684 124.623 249.027C124.623 248.365 123.785 248.008 122.303 248.008C120.832 248.008 119.988 248.365 119.994 249.027Z" fill="white"/>
<path d="M208 210L214 216L208 222" stroke="#FF8D24" stroke-width="2" stroke-linecap="round" stroke-linejoin="round"/>
<path d="M241.062 197.568C243.783 197.568 245.492 198.43 245.506 199.92C245.492 201.39 243.783 202.265 241.062 202.258C238.362 202.265 236.626 201.39 236.633 199.92C236.626 198.43 238.362 197.568 241.062 197.568ZM235.484 196.775V195.367H239.723V193.193H241.445V195.367H246.777V196.775H235.484ZM236.756 191.744V190.377H245.438V191.389C245.444 192.38 245.444 193.446 245.082 194.725L243.373 194.561C243.653 193.433 243.688 192.592 243.701 191.744H236.756ZM238.369 199.92C238.362 200.59 239.347 200.932 241.062 200.932C242.778 200.932 243.77 200.59 243.77 199.92C243.77 199.229 242.778 198.86 241.062 198.867C239.347 198.86 238.362 199.229 238.369 199.92ZM258.932 195.695V197.062H247.557V195.695H252.396V194.629H248.938V190.363H257.564V191.717H250.674V193.262H257.633V194.629H254.105V195.695H258.932ZM248.855 199.988C248.855 198.512 250.496 197.691 253.217 197.691C255.917 197.691 257.537 198.512 257.551 199.988C257.537 201.444 255.917 202.271 253.217 202.271C250.496 202.271 248.855 201.444 248.855 199.988ZM250.633 199.988C250.626 200.638 251.494 200.945 253.217 200.945C254.905 200.945 255.794 200.638 255.801 199.988C255.794 199.346 254.905 199.018 253.217 199.018C251.494 199.018 250.626 199.346 250.633 199.988ZM274.271 199.332V200.754H262.883V199.332H274.271ZM264.086 197.254V190.609H265.836V192.674H271.264V190.609H273V197.254H264.086ZM265.836 195.887H271.264V194.027H265.836V195.887ZM285.674 189.83V199.059H284.02V194.766H282.939V198.799H281.312V190.049H282.939V193.357H284.02V189.83H285.674ZM275.475 192.195V190.828H280.219V194.697H277.17V195.976C278.53 195.962 279.549 195.894 280.725 195.668L280.875 197.049C279.419 197.309 278.195 197.35 276.35 197.35H275.488V193.412H278.537V192.195H275.475ZM277.238 202.039V198.184H278.988V200.645H285.988V202.039H277.238ZM297.5 189.816V197.254H295.75V189.816H297.5ZM287.793 196.488V190.746H293.74V192.141H289.516V195.094C291.874 195.087 293.248 194.991 294.766 194.697L294.916 196.092C293.234 196.434 291.71 196.495 288.873 196.488H287.793ZM288.982 199.824C288.976 198.279 290.603 197.37 293.262 197.377C295.88 197.37 297.527 198.279 297.541 199.824C297.527 201.362 295.88 202.271 293.262 202.271C290.603 202.271 288.976 201.362 288.982 199.824ZM290.732 199.824C290.732 200.549 291.601 200.918 293.262 200.918C294.909 200.918 295.812 200.549 295.818 199.824C295.812 199.079 294.909 198.744 293.262 198.744C291.601 198.744 290.732 199.079 290.732 199.824ZM304.855 189.994C307.72 189.994 309.374 190.746 309.381 192.113C309.374 193.501 307.72 194.246 304.855 194.246C301.984 194.246 300.316 193.501 300.316 192.113C300.316 190.746 301.984 189.994 304.855 189.994ZM299.182 196.215V194.834H310.529V196.215H299.182ZM300.494 198.211V196.939H309.148V200.111H302.217V200.863H309.477V202.176H300.508V198.895H307.426V198.211H300.494ZM302.148 192.113C302.142 192.722 303.03 192.961 304.855 192.961C306.694 192.961 307.576 192.722 307.576 192.113C307.576 191.56 306.694 191.266 304.855 191.266C303.03 191.266 302.142 191.56 302.148 192.113ZM243.954 210.336C245.854 210.322 247.235 211.409 247.235 212.975C247.235 214.526 245.854 215.627 243.954 215.613C242.061 215.627 240.68 214.526 240.687 212.975C240.68 211.409 242.061 210.322 243.954 210.336ZM239.921 216.379C242.129 216.372 245.253 216.331 247.905 215.928L248.015 217.213C246.989 217.418 245.937 217.548 244.897 217.63V221.889H243.161V217.732C242.067 217.78 241.035 217.787 240.14 217.801L239.921 216.379ZM242.368 212.975C242.361 213.754 243.024 214.205 243.954 214.191C244.911 214.205 245.581 213.754 245.581 212.975C245.581 212.182 244.911 211.724 243.954 211.73C243.024 211.724 242.361 212.182 242.368 212.975ZM248.657 222.258V209.83H250.38V222.258H248.657ZM261.864 209.83V213.645H263.546V215.066H261.864V219.113H260.114V209.83H261.864ZM251.993 212.51V211.129H254.823V209.803H256.56V211.129H259.376V212.51H251.993ZM252.595 215.354C252.595 213.911 253.873 212.947 255.685 212.947C257.489 212.947 258.747 213.911 258.747 215.354C258.747 216.789 257.489 217.732 255.685 217.732C253.873 217.732 252.595 216.789 252.595 215.354ZM253.798 222.039V218.402H255.534V220.645H262.315V222.039H253.798ZM254.304 215.354C254.297 216.037 254.851 216.406 255.685 216.406C256.525 216.406 257.093 216.037 257.093 215.354C257.093 214.663 256.525 214.28 255.685 214.273C254.851 214.28 254.297 214.663 254.304 215.354ZM270.86 210.186C272.754 210.179 274.176 211.368 274.183 213.029C274.176 214.677 272.754 215.853 270.86 215.859C268.939 215.853 267.511 214.677 267.511 213.029C267.511 211.368 268.939 210.179 270.86 210.186ZM269.206 213.029C269.192 213.918 269.896 214.444 270.86 214.451C271.804 214.444 272.494 213.918 272.501 213.029C272.494 212.134 271.804 211.607 270.86 211.607C269.903 211.607 269.192 212.134 269.206 213.029ZM269.384 217.91V216.57H277.737V219.947H271.12V220.754H278.079V222.121H269.411V218.676H276.001V217.91H269.384ZM275.987 216.051V209.816H277.737V216.051H275.987ZM289.823 209.816V222.258H288.073V209.816H289.823ZM279.487 218.594C281.531 217.698 282.543 215.606 282.55 213.713V213.234H279.897V211.84H282.536V210.09H284.272V211.84H286.87V213.234H284.286V213.713C284.286 215.518 285.305 217.548 287.376 218.402L286.433 219.742C285.018 219.161 284.006 217.972 283.438 216.543C282.885 218.054 281.866 219.325 280.417 219.934L279.487 218.594ZM298.778 213.631V215.025H296.55V216.283C297.534 216.235 298.512 216.174 299.435 216.078L299.558 217.322C296.919 217.691 294.109 217.76 291.806 217.76L291.573 216.379C292.571 216.379 293.672 216.365 294.8 216.338V215.025H292.626V210.568H298.669V211.963H294.376V213.631H298.778ZM293.501 222.039V218.471H295.265V220.645H302.306V222.039H293.501ZM300.2 219.182V209.803H301.978V219.182H300.2ZM261.017 237.432C263.607 237.432 265.207 238.32 265.214 239.838C265.207 241.376 263.607 242.271 261.017 242.271C258.385 242.271 256.744 241.376 256.751 239.838C256.744 238.32 258.385 237.432 261.017 237.432ZM255.589 236.447V230.596H257.325V232.168H259.868V230.596H261.618V236.447H255.589ZM257.325 235.066H259.868V233.521H257.325V235.066ZM258.501 239.838C258.487 240.549 259.383 240.918 261.017 240.918C262.63 240.918 263.491 240.549 263.491 239.838C263.491 239.127 262.63 238.792 261.017 238.785C259.383 238.792 258.487 239.127 258.501 239.838ZM263.341 237.158V229.816H265.091V232.701H266.772V234.164H265.091V237.158H263.341ZM278.804 231.635V233.043H277.19V234.314H278.804V235.736H277.19V237.719H275.44V229.816H277.19V231.635H278.804ZM267.319 232.359V231.006H270.149V229.748H271.886V231.006H274.702V232.359H267.319ZM267.921 235.025C267.921 233.699 269.179 232.79 271.011 232.783C272.822 232.79 274.073 233.699 274.073 235.025C274.073 236.365 272.822 237.254 271.011 237.254C269.186 237.254 267.921 236.365 267.921 235.025ZM268.919 240.057C268.905 238.655 270.512 237.835 273.13 237.828C275.687 237.835 277.32 238.655 277.327 240.057C277.32 241.424 275.687 242.265 273.13 242.258C270.512 242.265 268.905 241.424 268.919 240.057ZM269.63 235.025C269.623 235.641 270.177 235.962 271.011 235.955C271.852 235.962 272.419 235.641 272.419 235.025C272.419 234.403 271.852 234.062 271.011 234.055C270.177 234.062 269.623 234.403 269.63 235.025ZM270.642 240.057C270.635 240.638 271.496 240.959 273.13 240.959C274.716 240.959 275.577 240.638 275.577 240.057C275.577 239.435 274.716 239.161 273.13 239.154C271.496 239.161 270.635 239.435 270.642 240.057ZM284.122 231.512C284.115 233.173 284.97 234.711 286.966 235.326L286.05 236.693C284.71 236.229 283.801 235.374 283.274 234.253C282.728 235.552 281.723 236.57 280.226 237.076L279.31 235.682C281.436 234.998 282.352 233.33 282.358 231.594V230.459H284.122V231.512ZM281.374 239.852C281.374 238.32 283.001 237.425 285.653 237.432C288.312 237.425 289.939 238.32 289.946 239.852C289.939 241.39 288.312 242.265 285.653 242.258C283.001 242.265 281.374 241.39 281.374 239.852ZM283.11 239.852C283.11 240.542 284.006 240.904 285.653 240.904C287.308 240.904 288.203 240.542 288.21 239.852C288.203 239.141 287.308 238.785 285.653 238.785C284.006 238.785 283.11 239.141 283.11 239.852ZM285.831 233.521V232.1H288.169V229.816H289.905V237.104H288.169V233.521H285.831Z" fill="#282828"/>
<rect width="189" height="112" rx="8" fill="#FF8D24"/>
<path d="M23.3613 40V31.5156H26.5488C28.4941 31.5156 29.5312 32.6055 29.5371 34.2227C29.5312 35.377 29.0039 36.2324 28.0078 36.6367L29.8418 40H28.1426L26.4785 36.8945H24.8848V40H23.3613ZM24.8848 35.6172H26.3145C27.4629 35.623 27.9785 35.1309 27.9785 34.2227C27.9785 33.3203 27.4629 32.793 26.3145 32.793H24.8848V35.6172ZM30.8496 40V31.5156H36.3691V32.793H32.373V35.1133H36.0762V36.3906H32.373V38.7109H36.3926V40H30.8496ZM38.6895 38.9453C38.1855 38.9453 37.7695 38.5352 37.7754 38.0312C37.7695 37.5391 38.1855 37.1348 38.6895 37.1289C39.1758 37.1348 39.5918 37.5391 39.5918 38.0312C39.5918 38.5352 39.1758 38.9453 38.6895 38.9453ZM37.7754 33.4844C37.7695 32.9922 38.1855 32.5879 38.6895 32.582C39.1758 32.5879 39.5918 32.9922 39.5918 33.4844C39.5918 33.9883 39.1758 34.3984 38.6895 34.3984C38.1855 34.3984 37.7695 33.9883 37.7754 33.4844ZM46.7871 34.2227C46.5117 33.3203 45.8145 32.7695 44.7832 32.7695C43.418 32.7695 42.4219 33.8359 42.4277 35.7461C42.4219 37.6738 43.4004 38.7461 44.8184 38.7461C46.1016 38.7461 46.916 37.9727 46.9395 36.7656H44.9707V35.5586H48.416V36.5781C48.416 38.7637 46.916 40.1172 44.8184 40.1172C42.4746 40.1172 40.8867 38.4473 40.8926 35.7578C40.8867 33.0332 42.5508 31.3984 44.7715 31.3984C46.6406 31.3984 48.0879 32.5586 48.3457 34.2227H46.7871ZM49.7988 40V31.5156H55.3184V32.793H51.3223V35.1133H55.0254V36.3906H51.3223V38.7109H55.3418V40H49.7988ZM63.7559 31.5156V40H62.3965L58.377 34.1992H58.3066V40H56.7832V31.5156H58.166L62.1621 37.3164H62.2441V31.5156H63.7559ZM77.4199 38.6406V39.7188H67.7402V38.6406H77.4199ZM68.8066 36.7539V31.1641H70.1074V32.9805H75.0176V31.1641H76.3184V36.7539H68.8066ZM70.1074 35.7344H75.0176V34H70.1074V35.7344ZM87.1699 30.4609V38.3242H85.9277V34.5859H84.8262V38.0781H83.6074V30.6602H84.8262V33.5195H85.9277V30.4609H87.1699ZM78.5449 32.3594V31.3281H82.5762V34.5391H79.8223V35.793C81.0586 35.7871 81.9902 35.7227 83.0684 35.5117L83.1855 36.5547C81.9082 36.7832 80.8359 36.8242 79.2832 36.8242H78.5566V33.5547H81.3223V32.3594H78.5449ZM80.0801 40.832V37.5859H81.3809V39.7773H87.4629V40.832H80.0801ZM97.084 35.418V36.4609H89.6543V31.375H97.002V32.4297H90.9434V35.418H97.084ZM88.4824 39.6953V38.6172H98.1621V39.6953H88.4824ZM107.35 31.1055V35.5117H102.24V31.1055H107.35ZM102.873 40.0117C104.906 39.8359 106.207 38.9336 106.324 38.0898H103.307V37.1055H106.354V36.1797H107.666V37.1055H110.725V38.0898H107.701C107.818 38.9102 109.096 39.8066 111.123 40.0117L110.678 41.0078C108.961 40.8262 107.66 40.1523 107.016 39.2734C106.365 40.1641 105.047 40.8203 103.318 41.0078L102.873 40.0117ZM103.529 34.4922H106.061V32.1367H103.529V34.4922ZM109.213 36.4844V30.4492H110.502V36.4844H109.213ZM124.6 38.6758V39.7656H114.92V38.6758H124.6ZM115.717 32.4766V31.4336H123.756V32.4766H122.209V35.8516H123.721V36.8828H115.752V35.8516H117.24V32.4766H115.717ZM118.541 35.8516H120.92V32.4766H118.541V35.8516ZM134.971 38.7344V39.8125H125.291V38.7344H129.463V37.0117H126.439V33.543H132.533V32.2305H126.416V31.1758H133.822V34.5742H127.74V35.9453H134.068V37.0117H130.752V38.7344H134.971ZM141.064 31.1641V32.2305H137.537V35.3711C139.342 35.3594 140.391 35.2949 141.568 35.0547L141.697 36.0977C140.379 36.3906 139.225 36.4316 137.057 36.4258H136.236V31.1641H141.064ZM137.314 38.3477V37.3047H144.533V41.043H143.232V38.3477H137.314ZM140.514 34.1875V33.1328H143.232V30.4492H144.533V36.8242H143.232V34.1875H140.514ZM154.646 36.0039V37.0352H147.217V31.2812H154.553V32.3359H148.541V33.6133H154.307V34.6328H148.541V36.0039H154.646ZM146.033 39.7539V38.6875H155.713V39.7539H146.033ZM164.701 30.4492V34.5859H166.271V35.6758H164.701V41.0195H163.4V30.4492H164.701ZM156.346 38.125C158.924 36.8359 160.318 35.043 160.576 32.6289H156.92V31.5508H161.9C161.895 34.6621 160.605 37.3984 157.084 39.1328L156.346 38.125ZM42.1582 51.1875C43.8398 51.1816 45.0645 52.2422 45.0762 53.7422C45.0645 55.248 43.8398 56.3027 42.1582 56.3086C40.4941 56.3027 39.2461 55.248 39.252 53.7422C39.2461 52.2422 40.4941 51.1816 42.1582 51.1875ZM38.7715 57.7734C40.6816 57.7734 43.3242 57.75 45.6152 57.4219L45.7207 58.3711C43.3477 58.8223 40.8047 58.8398 38.9355 58.8398L38.7715 57.7734ZM40.541 53.7422C40.5352 54.627 41.2324 55.1719 42.1582 55.1719C43.0957 55.1719 43.793 54.627 43.7988 53.7422C43.793 52.8633 43.1016 52.3125 42.1582 52.3125C41.2324 52.3125 40.5352 52.8633 40.541 53.7422ZM46.248 61.0547V50.4492H47.5488V61.0547H46.248ZM54.6973 51.4453V58.4648H49.6582V51.4453H54.6973ZM50.9473 57.4219H53.4316V52.4648H50.9473V57.4219ZM56.5957 61.0547V50.4492H57.9082V61.0547H56.5957ZM66.0762 57.3398C66.0762 58.2246 66.4805 59.1445 67.3887 59.7305C68.3145 59.1035 68.7422 58.1426 68.748 57.3398V56.9062H70.0254V57.3398C70.0195 58.4473 70.6758 59.4902 72.0645 59.9297L71.4316 60.8789C70.4004 60.5332 69.7207 59.8594 69.3516 59.0098C69.0059 59.8477 68.3848 60.5859 67.4238 60.9727C66.416 60.6035 65.7832 59.8887 65.4492 59.0508C65.0684 59.8652 64.3945 60.5273 63.416 60.8789L62.7715 59.9297C64.1426 59.4492 64.8047 58.3711 64.8105 57.3398V56.9062H66.0762V57.3398ZM62.502 53.543C62.502 52.0547 63.7207 51.0234 65.3613 51.0234C66.9961 51.0234 68.2148 52.0547 68.209 53.543C68.2148 55.0137 66.9961 56.0566 65.3613 56.0508C63.7207 56.0566 62.502 55.0137 62.502 53.543ZM63.7793 53.543C63.7734 54.4102 64.4355 54.9668 65.3613 54.9727C66.2695 54.9668 66.9316 54.4102 66.9316 53.543C66.9316 52.6758 66.2695 52.1191 65.3613 52.125C64.4355 52.1191 63.7734 52.6758 63.7793 53.543ZM69.8262 56.4609V50.4609H71.1387V56.4609H69.8262ZM81.2637 53.4492V54.4805H73.9277V50.8359H75.2168V53.4492H81.2637ZM72.6738 56.7422V55.7109H82.3535V56.7422H72.6738ZM73.834 60.7969V57.6797H75.1348V59.7422H81.334V60.7969H73.834ZM94.7285 50.4609V58.1133H93.416V50.4609H94.7285ZM86.0918 53.8008C86.0918 52.2598 87.3398 51.1582 88.9512 51.1523C90.5625 51.1582 91.8047 52.2598 91.7988 53.8008C91.8047 55.3652 90.5625 56.4609 88.9512 56.4609C87.3398 56.4609 86.0918 55.3652 86.0918 53.8008ZM87.3691 53.8008C87.3633 54.7383 88.043 55.3242 88.9512 55.3242C89.8359 55.3242 90.5215 54.7383 90.5215 53.8008C90.5215 52.8867 89.8359 52.2891 88.9512 52.2891C88.043 52.2891 87.3633 52.8867 87.3691 53.8008ZM87.7207 60.832V57.3398H89.0332V59.7773H95.0215V60.832H87.7207ZM100.271 53.4609C100.271 55.1953 101.291 57.0234 103.002 57.7383L102.287 58.7695C101.033 58.2246 100.119 57.1172 99.6328 55.7695C99.1465 57.2227 98.2148 58.4414 96.9785 59.0273L96.2285 58.0078C97.8984 57.2344 98.9414 55.2598 98.9473 53.4609V52.5703H96.6152V51.4922H102.592V52.5703H100.271V53.4609ZM103.775 61.043V50.4492H105.088V61.043H103.775ZM115.248 55.2656V56.2969H112.107V58.7227H116.326V59.7891H106.646V58.7227H110.818V56.2969H107.818V51.2344H115.166V52.2773H109.119V55.2656H115.248ZM126.686 55.2539V56.2383H117.006V55.2539H126.686ZM118.131 57.7852V56.8711H125.514V59.2852H119.443V60.0234H125.83V60.9258H118.143V58.4414H124.225V57.7852H118.131ZM118.201 51.5859V50.6836H125.49V53.0742H119.525V53.7656H125.678V54.6562H118.236V52.2305H124.189V51.5859H118.201ZM138.533 50.4492V54.5859H140.104V55.6758H138.533V61.0195H137.232V50.4492H138.533ZM130.178 58.125C132.756 56.8359 134.15 55.043 134.408 52.6289H130.752V51.5508H135.732C135.727 54.6621 134.438 57.3984 130.916 59.1328L130.178 58.125ZM144.627 52.6055C144.627 53.9238 145.529 55.2129 147.217 55.7344L146.549 56.7539C145.348 56.3672 144.475 55.5703 143.988 54.5625C143.514 55.6582 142.611 56.5312 141.357 56.9648L140.689 55.9336C142.395 55.3711 143.303 54 143.314 52.6055V52.3008H141.029V51.2578H146.854V52.3008H144.627V52.6055ZM142.424 60.832V57.4453H143.736V59.7773H149.725V60.832H142.424ZM148.119 58.1484V50.4609H149.432V58.1484H148.119ZM71.9941 78.6406V79.7188H62.3145V78.6406H71.9941ZM63.3809 76.7539V71.1641H64.6816V72.9805H69.5918V71.1641H70.8926V76.7539H63.3809ZM64.6816 75.7344H69.5918V74H64.6816V75.7344ZM81.7441 70.4609V78.3242H80.502V74.5859H79.4004V78.0781H78.1816V70.6602H79.4004V73.5195H80.502V70.4609H81.7441ZM73.1191 72.3594V71.3281H77.1504V74.5391H74.3965V75.793C75.6328 75.7871 76.5645 75.7227 77.6426 75.5117L77.7598 76.5547C76.4824 76.7832 75.4102 76.8242 73.8574 76.8242H73.1309V73.5547H75.8965V72.3594H73.1191ZM74.6543 80.832V77.5859H75.9551V79.7773H82.0371V80.832H74.6543ZM91.6582 75.418V76.4609H84.2285V71.375H91.5762V72.4297H85.5176V75.418H91.6582ZM83.0566 79.6953V78.6172H92.7363V79.6953H83.0566ZM103.107 78.7344V79.8125H93.4277V78.7344H97.5996V77.0117H94.5762V73.543H100.67V72.2305H94.5527V71.1758H101.959V74.5742H95.877V75.9453H102.205V77.0117H98.8887V78.7344H103.107ZM115.002 70.4492V73.0273H116.479V74.0938H115.002V76.6602H113.701V70.4492H115.002ZM106.611 75.7695C109.008 75.1133 110.438 73.8184 110.66 72.2305H107.092V71.1758H112.072C112.078 73.959 110.262 75.9395 107.127 76.8242L106.611 75.7695ZM108.041 78.9102C108.029 77.6035 109.447 76.7891 111.58 76.7891C113.73 76.7891 115.119 77.6035 115.119 78.9102C115.119 80.2285 113.73 81.0371 111.58 81.0312C109.447 81.0371 108.029 80.2285 108.041 78.9102ZM109.33 78.9102C109.324 79.6016 110.18 80.0117 111.58 80.0117C112.975 80.0117 113.836 79.6016 113.842 78.9102C113.836 78.2129 112.975 77.8086 111.58 77.8086C110.18 77.8086 109.324 78.2129 109.33 78.9102ZM125.396 70.4492V74.8203H126.885V75.9102H125.396V81.043H124.084V70.4492H125.396ZM116.889 78.1016C117.691 78.1016 118.623 78.1016 119.596 78.0781V77.0879C118.441 76.8887 117.691 76.168 117.697 75.1719C117.691 73.9766 118.74 73.1855 120.264 73.1797C121.77 73.1855 122.83 73.9766 122.842 75.1719C122.83 76.1738 122.062 76.8945 120.908 77.0879V78.0312C121.799 77.9844 122.689 77.9141 123.521 77.7969L123.604 78.7461C121.33 79.1621 118.881 79.1797 117.076 79.1797L116.889 78.1016ZM117.088 72.6992V71.668H119.596V70.4961H120.908V71.668H123.404V72.6992H117.088ZM118.928 75.1719C118.922 75.7812 119.461 76.1387 120.264 76.1328C121.055 76.1387 121.588 75.7812 121.588 75.1719C121.588 74.5566 121.055 74.1816 120.264 74.1758C119.461 74.1816 118.922 74.5566 118.928 75.1719Z" fill="white"/>
<path d="M208 50L214 56L208 62" stroke="#FF8D24" stroke-width="2" stroke-linecap="round" stroke-linejoin="round"/>
<path d="M251.029 30.4727C252.615 30.4727 253.88 31.3955 254.222 32.7695H256.307V29.8164H258.043V36.8711H256.307V34.1777H254.235C253.921 35.5723 252.636 36.5225 251.029 36.5156C249.143 36.5225 247.707 35.2578 247.721 33.5078C247.707 31.7373 249.143 30.4727 251.029 30.4727ZM249.375 33.5078C249.368 34.4854 250.065 35.0459 251.029 35.0527C251.959 35.0459 252.649 34.4854 252.656 33.5078C252.649 32.5234 251.959 31.9219 251.029 31.9355C250.065 31.9219 249.368 32.5234 249.375 33.5078ZM249.676 42.1211V37.418H258.043V42.1211H249.676ZM251.426 40.7266H256.334V38.7988H251.426V40.7266ZM271.045 39.332V40.7539H259.656V39.332H271.045ZM260.859 37.2539V30.6094H262.609V32.6738H268.037V30.6094H269.773V37.2539H260.859ZM262.609 35.8867H268.037V34.0273H262.609V35.8867ZM276.65 30.4316V33.8223H273.943V34.7588C275.331 34.7451 276.309 34.6768 277.43 34.4922L277.594 35.8047C276.199 36.085 275.03 36.1055 273.123 36.1055H272.262V32.5918H274.982V31.7715H272.248V30.4316H276.65ZM273.93 38.1426V36.8438H282.447V40.084H275.68V40.8359H282.803V42.1758H273.943V38.8672H280.725V38.1426H273.93ZM277.102 33.4668V32.0723H278.264V30.0078H279.904V36.3105H278.264V33.4668H277.102ZM280.793 36.4062V29.8301H282.447V36.4062H280.793ZM294.342 29.8164V42.2852H292.605V35.7227H290.596V34.3008H292.605V29.8164H294.342ZM284.266 32.2637V30.8555H289.898V35.5176H286.029V37.9512C287.745 37.9375 289.194 37.876 290.801 37.5957L290.938 39.0176C289.092 39.3252 287.403 39.3936 285.318 39.3867H284.293V34.1367H288.203V32.2637H284.266ZM254.693 50.5957C254.687 53.8018 253.367 56.0645 249.936 57.4727L249.102 56.2148C250.537 55.6543 251.508 54.9707 252.116 54.1436L249.443 54.4375L249.238 53.0566L252.759 52.8789C252.848 52.5986 252.909 52.3115 252.95 52.0039H249.758V50.5957H254.693ZM251.371 62.1211V57.5684H259.861V62.1211H251.371ZM253.094 60.7266H258.152V58.9629H253.094V60.7266ZM255.445 57.0078V50.0488H257.086V52.7148H258.207V49.8301H259.861V57.1172H258.207V54.1367H257.086V57.0078H255.445ZM272.152 49.8164V62.2578H270.471V49.8164H272.152ZM261.133 57.9785H262.172V52.6328H261.365V51.2246H267.066V52.6328H266.273V57.8076C266.622 57.7734 266.957 57.7393 267.271 57.6914L267.395 58.9492C265.426 59.3662 262.883 59.4141 261.324 59.4141L261.133 57.9785ZM263.717 57.9512C264.038 57.9443 264.359 57.9307 264.688 57.917V52.6328H263.717V57.9512ZM266.779 55.9004V54.3418H267.982V50.0625H269.637V61.6699H267.982V55.9004H266.779ZM283.787 49.8301V58.7715H282.037V49.8301H283.787ZM273.561 53.7539C273.561 51.9287 275.051 50.6162 276.965 50.623C278.872 50.6162 280.362 51.9287 280.369 53.7539C280.362 55.6064 278.872 56.9121 276.965 56.9121C275.051 56.9121 273.561 55.6064 273.561 53.7539ZM275.27 53.7539C275.256 54.793 275.987 55.3945 276.965 55.3945C277.908 55.3945 278.64 54.793 278.646 53.7539C278.64 52.7422 277.908 52.1338 276.965 52.1406C275.987 52.1338 275.256 52.7422 275.27 53.7539ZM275.447 62.0391V57.8691H277.211V60.6445H284.115V62.0391H275.447ZM291.143 49.9941C294.007 49.9941 295.661 50.7461 295.668 52.1133C295.661 53.501 294.007 54.2461 291.143 54.2461C288.271 54.2461 286.604 53.501 286.604 52.1133C286.604 50.7461 288.271 49.9941 291.143 49.9941ZM285.469 56.2148V54.834H296.816V56.2148H285.469ZM286.781 58.2109V56.9395H295.436V60.1113H288.504V60.8633H295.764V62.1758H286.795V58.8945H293.713V58.2109H286.781ZM288.436 52.1133C288.429 52.7217 289.317 52.9609 291.143 52.9609C292.981 52.9609 293.863 52.7217 293.863 52.1133C293.863 51.5596 292.981 51.2656 291.143 51.2656C289.317 51.2656 288.429 51.5596 288.436 52.1133ZM258.904 76.2285V77.5957H247.529V76.2285H252.342V75.4629H248.951V70.1172H257.578V71.457H250.701V72.1543H257.291V73.4121H250.701V74.123H257.688V75.4629H254.092V76.2285H258.904ZM248.855 80.207C248.855 78.8945 250.428 78.1562 253.217 78.1699C255.958 78.1562 257.537 78.8945 257.551 80.207C257.537 81.5469 255.958 82.2646 253.217 82.2578C250.428 82.2646 248.855 81.5469 248.855 80.207ZM250.605 80.207C250.592 80.7402 251.426 80.9727 253.217 80.9727C254.967 80.9727 255.794 80.7402 255.801 80.207C255.794 79.6875 254.967 79.4482 253.217 79.4551C251.426 79.4482 250.592 79.6875 250.605 80.207ZM269.527 69.8301V73.6445H271.209V75.0664H269.527V79.1133H267.777V69.8301H269.527ZM259.656 72.5098V71.1289H262.486V69.8027H264.223V71.1289H267.039V72.5098H259.656ZM260.258 75.3535C260.258 73.9111 261.536 72.9473 263.348 72.9473C265.152 72.9473 266.41 73.9111 266.41 75.3535C266.41 76.7891 265.152 77.7324 263.348 77.7324C261.536 77.7324 260.258 76.7891 260.258 75.3535ZM261.461 82.0391V78.4023H263.197V80.6445H269.979V82.0391H261.461ZM261.967 75.3535C261.96 76.0371 262.514 76.4062 263.348 76.4062C264.188 76.4062 264.756 76.0371 264.756 75.3535C264.756 74.6631 264.188 74.2803 263.348 74.2734C262.514 74.2803 261.96 74.6631 261.967 75.3535ZM279.809 73.207C279.802 75.2168 280.841 77.3701 282.926 78.2383L281.982 79.6055C280.52 78.9834 279.508 77.7461 278.947 76.2422C278.387 77.876 277.354 79.2432 275.885 79.9199L274.887 78.5391C276.951 77.6162 278.018 75.3125 278.018 73.207V72.4414H275.379V71.0195H282.406V72.4414H279.809V73.207ZM283.637 82.2578V69.8164H285.4V82.2578H283.637ZM297.623 69.8301V79.2227H295.873V78.2383H293.494V77.0488H295.873V69.8301H297.623ZM287.041 75.3398C289.317 75.3262 292.394 75.292 295.025 74.9707L295.121 76.2148C294.137 76.3789 293.118 76.4951 292.113 76.5703V78.9355H290.363V80.6445H297.896V82.0391H288.627V78.3203H290.363V76.6729C289.249 76.7139 288.189 76.7207 287.246 76.7207L287.041 75.3398ZM287.957 72.4824C287.957 71.1562 289.235 70.2471 291.088 70.2539C292.893 70.2471 294.185 71.1562 294.191 72.4824C294.185 73.8154 292.893 74.6768 291.088 74.6699C289.235 74.6768 287.957 73.8154 287.957 72.4824ZM289.611 72.4824C289.604 73.084 290.199 73.4189 291.088 73.4121C291.922 73.4189 292.523 73.084 292.537 72.4824C292.523 71.8672 291.922 71.5254 291.088 71.5254C290.199 71.5254 289.604 71.8672 289.611 72.4824Z" fill="#282828"/>
</svg>
