<svg width="339" height="811" viewBox="0 0 339 811" fill="none" xmlns="http://www.w3.org/2000/svg">
<rect width="339" height="42" rx="6" fill="#1B4B66"/>
<path d="M141.193 24.118L140.913 25.728H134.501V14.864H141.025V16.46H136.489V19.302H140.689V20.926H136.489V24.118H141.193ZM145.444 19.428H147.362C148.902 19.428 149.994 20.66 149.994 22.396C149.994 24.678 148.426 25.728 146.116 25.728H142.518V24.118H145.948C147.194 24.118 148.006 23.67 148.006 22.494C148.006 21.598 147.544 21.024 146.844 21.024H145.122C143.498 21.024 142.322 19.792 142.322 18.112C142.322 15.886 143.582 14.864 145.906 14.864H149.28L148.986 16.46H146.074C144.968 16.46 144.296 16.894 144.296 18.014C144.296 18.91 144.702 19.428 145.444 19.428ZM156.919 25.812H155.729C152.621 25.812 151.137 24.482 151.137 21.668V19.008C151.137 16.292 152.663 14.864 155.715 14.864H158.711L158.417 16.502H155.841C153.797 16.502 153.111 17.594 153.111 19.302V21.36C153.111 23.18 153.671 24.188 155.785 24.188H156.919V21.15H155.113V19.582H158.837V25.532L156.919 25.812ZM172.324 22.662C172.324 25.196 170.35 25.728 168.824 25.728H164.61V14.864H168.544C170.056 14.864 171.68 15.536 171.694 17.692C171.708 18.952 170.966 19.806 169.706 20.044V20.072C171.246 20.254 172.324 21.332 172.324 22.662ZM169.79 17.902C169.79 16.768 169.006 16.432 168.096 16.432H166.598V19.302H167.914C168.824 19.302 169.79 18.994 169.79 17.902ZM170.336 22.48C170.336 21.052 169.132 20.814 168.04 20.814H166.598V24.16H168.404C169.468 24.16 170.336 23.74 170.336 22.48ZM178.029 17.356V19.162H177.861C176.251 19.162 175.537 20.394 175.537 21.948V25.476L173.647 25.77V17.692L175.327 17.398V19.05C175.579 18.098 176.629 17.356 177.861 17.356H178.029ZM182.187 25.91C180.437 25.952 178.897 24.86 178.897 22.914V20.464C178.897 18.518 180.395 17.426 182.173 17.468C183.307 17.496 183.993 17.93 184.581 18.672V17.65L186.457 17.37V25.742L184.637 26.022V24.762C184.077 25.546 183.153 25.882 182.187 25.91ZM184.567 20.674C184.553 19.778 183.797 18.98 182.607 18.938C181.697 18.91 180.871 19.512 180.871 20.534V22.858C180.871 23.88 181.641 24.454 182.537 24.426C183.993 24.384 184.609 23.376 184.595 22.242L184.567 20.674ZM195.497 20.464V25.476L193.607 25.756V21.192C193.607 20.072 193.523 18.826 192.123 18.826C190.499 18.812 190.079 20.366 190.079 21.542V25.476L188.189 25.756V17.678L189.995 17.398V18.63C190.653 17.72 191.661 17.342 192.753 17.342C194.671 17.342 195.497 18.644 195.497 20.464ZM200.194 25.91C198.444 25.952 196.876 24.86 196.876 22.914V20.464C196.876 18.518 198.402 17.426 200.18 17.468C201.314 17.496 201.986 17.93 202.56 18.672V14.71L204.436 14.43V25.742L202.616 26.022V24.762C202.07 25.546 201.16 25.882 200.194 25.91ZM202.546 20.646C202.532 19.75 201.776 18.938 200.516 18.924C199.578 18.91 198.85 19.512 198.85 20.534V22.858C198.85 23.88 199.508 24.468 200.46 24.44C201.93 24.398 202.588 23.404 202.574 22.242L202.546 20.646Z" fill="white"/>
<rect y="47" width="339" height="52" rx="6" fill="#F4F8FF"/>
<path d="M149.285 77V68.5156H152.473C154.418 68.5156 155.455 69.6055 155.461 71.2227C155.455 72.377 154.928 73.2324 153.932 73.6367L155.766 77H154.066L152.402 73.8945H150.809V77H149.285ZM150.809 72.6172H152.238C153.387 72.623 153.902 72.1309 153.902 71.2227C153.902 70.3203 153.387 69.793 152.238 69.793H150.809V72.6172ZM156.773 77V68.5156H162.293V69.793H158.297V72.1133H162V73.3906H158.297V75.7109H162.316V77H156.773ZM164.613 75.9453C164.109 75.9453 163.693 75.5352 163.699 75.0312C163.693 74.5391 164.109 74.1348 164.613 74.1289C165.1 74.1348 165.516 74.5391 165.516 75.0312C165.516 75.5352 165.1 75.9453 164.613 75.9453ZM163.699 70.4844C163.693 69.9922 164.109 69.5879 164.613 69.582C165.1 69.5879 165.516 69.9922 165.516 70.4844C165.516 70.9883 165.1 71.3984 164.613 71.3984C164.109 71.3984 163.693 70.9883 163.699 70.4844ZM172.711 71.2227C172.436 70.3203 171.738 69.7695 170.707 69.7695C169.342 69.7695 168.346 70.8359 168.352 72.7461C168.346 74.6738 169.324 75.7461 170.742 75.7461C172.025 75.7461 172.84 74.9727 172.863 73.7656H170.895V72.5586H174.34V73.5781C174.34 75.7637 172.84 77.1172 170.742 77.1172C168.398 77.1172 166.811 75.4473 166.816 72.7578C166.811 70.0332 168.475 68.3984 170.695 68.3984C172.564 68.3984 174.012 69.5586 174.27 71.2227H172.711ZM175.723 77V68.5156H181.242V69.793H177.246V72.1133H180.949V73.3906H177.246V75.7109H181.266V77H175.723ZM189.68 68.5156V77H188.32L184.301 71.1992H184.23V77H182.707V68.5156H184.09L188.086 74.3164H188.168V68.5156H189.68Z" fill="#1B4B66"/>
<rect y="119" width="339" height="42" rx="6" fill="#1B4B66"/>
<path d="M133.53 141.662C133.53 144.196 131.556 144.728 130.03 144.728H125.816V133.864H129.75C131.262 133.864 132.886 134.536 132.9 136.692C132.914 137.952 132.172 138.806 130.912 139.044V139.072C132.452 139.254 133.53 140.332 133.53 141.662ZM130.996 136.902C130.996 135.768 130.212 135.432 129.302 135.432H127.804V138.302H129.12C130.03 138.302 130.996 137.994 130.996 136.902ZM131.542 141.48C131.542 140.052 130.338 139.814 129.246 139.814H127.804V143.16H129.61C130.674 143.16 131.542 142.74 131.542 141.48ZM139.235 136.356V138.162H139.067C137.457 138.162 136.743 139.394 136.743 140.948V144.476L134.853 144.77V136.692L136.533 136.398V138.05C136.785 137.098 137.835 136.356 139.067 136.356H139.235ZM143.393 144.91C141.643 144.952 140.103 143.86 140.103 141.914V139.464C140.103 137.518 141.601 136.426 143.379 136.468C144.513 136.496 145.199 136.93 145.787 137.672V136.65L147.663 136.37V144.742L145.843 145.022V143.762C145.283 144.546 144.359 144.882 143.393 144.91ZM145.773 139.674C145.759 138.778 145.003 137.98 143.813 137.938C142.903 137.91 142.077 138.512 142.077 139.534V141.858C142.077 142.88 142.847 143.454 143.743 143.426C145.199 143.384 145.815 142.376 145.801 141.242L145.773 139.674ZM156.703 139.464V144.476L154.813 144.756V140.192C154.813 139.072 154.729 137.826 153.329 137.826C151.705 137.812 151.285 139.366 151.285 140.542V144.476L149.395 144.756V136.678L151.201 136.398V137.63C151.859 136.72 152.867 136.342 153.959 136.342C155.877 136.342 156.703 137.644 156.703 139.464ZM161.4 144.91C159.65 144.952 158.082 143.86 158.082 141.914V139.464C158.082 137.518 159.608 136.426 161.386 136.468C162.52 136.496 163.192 136.93 163.766 137.672V133.71L165.642 133.43V144.742L163.822 145.022V143.762C163.276 144.546 162.366 144.882 161.4 144.91ZM163.752 139.646C163.738 138.75 162.982 137.938 161.722 137.924C160.784 137.91 160.056 138.512 160.056 139.534V141.858C160.056 142.88 160.714 143.468 161.666 143.44C163.136 143.398 163.794 142.404 163.78 141.242L163.752 139.646ZM178.35 133.864H180.338L176.754 144.728H174.318L170.692 133.864H172.834L175.592 142.698L178.35 133.864ZM183.599 133.43V135.306H181.695V133.43H183.599ZM183.585 136.664V144.602L181.709 144.882V136.664H183.585ZM188.23 139.842L189.574 139.856C190.862 139.87 191.786 140.85 191.786 142.222C191.786 143.93 190.47 144.812 188.762 144.812H185.332V143.356H188.482C189.406 143.356 189.98 142.964 189.98 142.264C189.98 141.606 189.644 141.242 189.014 141.242L187.474 141.228C186.27 141.214 185.36 140.206 185.36 138.932C185.36 137.252 186.452 136.496 188.174 136.496H191.282L190.988 137.952H188.37C187.586 137.952 187.166 138.204 187.166 138.862C187.166 139.52 187.572 139.842 188.23 139.842ZM195.411 133.43V135.306H193.507V133.43H195.411ZM195.397 136.664V144.602L193.521 144.882V136.664H195.397ZM204.48 139.422V141.872C204.48 143.636 203.122 144.868 200.882 144.868C198.642 144.868 197.298 143.636 197.298 141.872V139.422C197.298 137.644 198.642 136.356 200.882 136.356C203.122 136.356 204.48 137.644 204.48 139.422ZM202.618 141.704V139.576C202.618 138.54 202.002 137.812 200.882 137.812C199.762 137.812 199.16 138.54 199.16 139.576V141.704C199.16 142.698 199.762 143.412 200.882 143.412C202.002 143.412 202.618 142.698 202.618 141.704ZM213.359 139.464V144.476L211.469 144.756V140.192C211.469 139.072 211.385 137.826 209.985 137.826C208.361 137.812 207.941 139.366 207.941 140.542V144.476L206.051 144.756V136.678L207.857 136.398V137.63C208.515 136.72 209.523 136.342 210.615 136.342C212.533 136.342 213.359 137.644 213.359 139.464Z" fill="white"/>
<rect y="166" width="339" height="52" rx="6" fill="#F4F8FF"/>
<path d="M47.4492 194.688V195.754H37.7695V194.688H41.9414V192.379H38.8359V187.27H46.3359V192.379H43.2305V194.688H47.4492ZM40.1133 191.359H45.0469V188.312H40.1133V191.359ZM57.8086 191.723V192.766H48.1406V191.723H57.8086ZM49.3242 190.762V186.871H56.6367V187.902H50.625V189.707H56.7305V190.762H49.3242ZM49.3359 196.82V193.691H50.6133V195.766H56.8008V196.82H49.3359ZM64.6641 189.227C64.6699 190.938 65.2559 192.719 66.6914 193.621L65.9766 194.617C65.0215 194.043 64.4004 193.059 64.0488 191.904C63.668 193.176 62.9883 194.254 61.9922 194.863L61.1836 193.891C62.7246 192.959 63.4043 191.09 63.4102 189.285V187.387H64.6641V189.227ZM65.5547 191.172V190.094H67.0664V186.637H68.2969V196.527H67.0664V191.172H65.5547ZM69.2461 197.043V186.449H70.5V197.043H69.2461ZM80.8477 186.449V197.043H79.6055V191.641H78.4102V196.504H77.2148V186.648H78.4102V190.598H79.6055V186.449H80.8477ZM72.0586 194.57V187.703H76.0195V188.758H73.3711V193.469C74.5195 193.457 75.4688 193.398 76.5469 193.199L76.6406 194.266C75.3574 194.523 74.25 194.559 72.7734 194.57H72.0586ZM85.5352 187.188C87.2168 187.182 88.4414 188.242 88.4531 189.742C88.4414 191.248 87.2168 192.303 85.5352 192.309C83.8711 192.303 82.623 191.248 82.6289 189.742C82.623 188.242 83.8711 187.182 85.5352 187.188ZM82.1484 193.773C84.0586 193.773 86.7012 193.75 88.9922 193.422L89.0977 194.371C86.7246 194.822 84.1816 194.84 82.3125 194.84L82.1484 193.773ZM83.918 189.742C83.9121 190.627 84.6094 191.172 85.5352 191.172C86.4727 191.172 87.1699 190.627 87.1758 189.742C87.1699 188.863 86.4785 188.312 85.5352 188.312C84.6094 188.312 83.9121 188.863 83.918 189.742ZM89.625 197.055V186.449H90.9258V197.055H89.625ZM100.676 187.41V188.477H97.1484V193.41C98.8066 193.398 99.9727 193.328 101.285 193.082L101.426 194.137C99.9375 194.43 98.6543 194.488 96.6797 194.488H95.8359V187.41H100.676ZM100.113 191.242V190.176H102.914V186.449H104.215V197.055H102.914V191.242H100.113ZM118.406 190.539V191.605H116.836V197.02H115.535V186.449H116.836V190.539H118.406ZM108.914 194.406V187.48H110.203V193.328C111.615 193.305 113.115 193.182 114.715 192.848L114.855 193.949C113.068 194.307 111.375 194.4 109.805 194.406H108.914ZM128.566 191.922V192.965H118.91V191.922H128.566ZM119.906 188.934C119.906 187.592 121.412 186.783 123.727 186.789C126.035 186.783 127.541 187.592 127.547 188.934C127.541 190.281 126.035 191.102 123.727 191.102C121.412 191.102 119.906 190.281 119.906 188.934ZM120.105 196.832V193.75H121.406V195.777H127.477V196.832H120.105ZM121.266 188.934C121.254 189.654 122.186 190.041 123.727 190.035C125.273 190.041 126.199 189.654 126.199 188.934C126.199 188.236 125.273 187.832 123.727 187.832C122.186 187.832 121.254 188.236 121.266 188.934ZM137.73 187.445V194.465H132.691V187.445H137.73ZM133.98 193.422H136.465V188.465H133.98V193.422ZM139.629 197.055V186.449H140.941V197.055H139.629ZM146.812 187.527V191.477H144.07V193.539C145.143 193.527 146.168 193.486 147.352 193.293L147.445 194.348C146.016 194.588 144.855 194.623 143.543 194.629H142.816V190.422H145.559V188.582H142.805V187.527H146.812ZM147.984 196.504V186.648H149.18V190.516H150.375V186.449H151.617V197.043H150.375V191.57H149.18V196.504H147.984ZM162.539 191.254V192.238H152.859V191.254H162.539ZM153.984 193.785V192.871H161.367V195.285H155.297V196.023H161.684V196.926H153.996V194.441H160.078V193.785H153.984ZM154.055 187.586V186.684H161.344V189.074H155.379V189.766H161.531V190.656H154.09V188.23H160.043V187.586H154.055ZM169.547 186.918C171.158 186.912 172.324 187.814 172.324 189.145C172.324 190.451 171.158 191.365 169.547 191.359C167.953 191.365 166.793 190.451 166.793 189.145C166.793 187.814 167.953 186.912 169.547 186.918ZM166.102 192.086C168.012 192.086 170.689 192.051 172.969 191.711L173.062 192.672C172.148 192.848 171.199 192.959 170.273 193.029V196.715H168.961V193.105C167.982 193.146 167.062 193.158 166.266 193.164L166.102 192.086ZM168.059 189.145C168.053 189.854 168.68 190.299 169.547 190.293C170.449 190.299 171.082 189.854 171.082 189.145C171.082 188.412 170.449 187.961 169.547 187.973C168.68 187.961 168.053 188.412 168.059 189.145ZM173.66 197.031V186.461H174.949V197.031H173.66ZM184.816 186.461V189.789H186.293V190.867H184.816V194.371H183.516V186.461H184.816ZM176.473 188.676V187.633H178.969V186.449H180.27V187.633H182.754V188.676H176.473ZM177.012 191.137C177.012 189.918 178.072 189.109 179.613 189.109C181.143 189.109 182.197 189.918 182.203 191.137C182.197 192.35 181.143 193.141 179.613 193.141C178.072 193.141 177.012 192.35 177.012 191.137ZM178.031 196.832V193.75H179.332V195.777H185.238V196.832H178.031ZM178.277 191.137C178.271 191.775 178.811 192.139 179.613 192.133C180.416 192.139 180.961 191.775 180.961 191.137C180.961 190.492 180.416 190.117 179.613 190.117C178.811 190.117 178.271 190.492 178.277 191.137ZM195.621 187.422V188.453H189.703V187.422H192.07V186.355H193.371V187.422H195.621ZM190.254 190.926C190.248 189.736 191.291 188.91 192.703 188.91C194.133 188.91 195.182 189.736 195.188 190.926C195.182 192.086 194.133 192.924 192.703 192.93C191.291 192.924 190.248 192.086 190.254 190.926ZM191.332 194.746V193.715H198.551V197.043H197.25V194.746H191.332ZM191.473 190.926C191.467 191.529 191.977 191.922 192.703 191.922C193.436 191.922 193.969 191.529 193.969 190.926C193.969 190.293 193.436 189.895 192.703 189.895C191.977 189.895 191.467 190.293 191.473 190.926ZM195.68 191.98V190.926H197.25V189.941H195.691V188.91H197.25V186.449H198.551V193.176H197.25V191.98H195.68ZM208.875 186.461V194.195H207.562V186.461H208.875ZM200.062 191.699C201.779 191.096 202.658 189.602 202.652 188.078V187.047H204V188.078C203.994 189.555 204.861 190.949 206.543 191.512L205.875 192.543C204.668 192.121 203.807 191.277 203.338 190.193C202.869 191.354 201.99 192.279 200.742 192.73L200.062 191.699ZM201.867 196.832V193.457H203.18V195.777H209.168V196.832H201.867ZM216.34 187.551V188.301C216.34 189.244 216.34 190.58 216.047 192.402L214.758 192.297C215.016 190.691 215.045 189.502 215.051 188.594H210.891V187.551H216.34ZM210.328 193.773C210.955 193.768 211.652 193.762 212.379 193.744V190.574H213.668V193.703C214.746 193.656 215.854 193.58 216.867 193.457L216.938 194.43C214.752 194.787 212.326 194.828 210.457 194.816L210.328 193.773ZM217.418 197.043V186.449H218.73V190.762H220.266V191.863H218.73V197.043H217.418ZM229.102 189.648V190.879H233.297V191.922H223.641V190.879H227.812V189.648H229.102ZM224.133 189.262C226.395 189.039 227.789 188.031 227.789 186.824V186.543H229.113V186.824C229.113 188.031 230.502 189.039 232.77 189.262L232.312 190.258C230.537 190.035 229.131 189.367 228.445 188.336C227.766 189.367 226.365 190.035 224.59 190.258L224.133 189.262ZM224.777 193.562V192.566H232.09V195.191H226.066V195.953H232.383V196.949H224.789V194.266H230.812V193.562H224.777ZM242.555 186.812V189.824H236.473V190.879H242.789V191.922H235.16V188.84H241.219V187.867H235.137V186.812H242.555ZM234 193.867V192.824H243.68V193.867H239.473V197.055H238.172V193.867H234ZM248.238 188.324C248.232 189.818 249.07 191.271 250.699 191.887L249.973 192.895C248.842 192.449 248.033 191.564 247.594 190.469C247.137 191.646 246.281 192.578 245.062 193.047L244.359 192.016C246.047 191.406 246.92 189.912 246.926 188.324V187.059H248.238V188.324ZM246.27 196.832V193.551H247.594V195.777H253.488V196.832H246.27ZM250.02 191.043V190H251.953V188.957H250.02V187.902H251.953V186.461H253.254V194.324H251.953V191.043H250.02ZM266.719 186.449V197.043H265.477V186.449H266.719ZM257.414 194.031C258.943 193.1 259.617 191.189 259.617 189.344V188.641H257.777V187.586H262.582V188.641H260.871V189.344C260.871 191.131 261.51 192.924 263.027 193.797L262.254 194.758C261.275 194.178 260.625 193.17 260.256 191.963C259.881 193.27 259.207 194.383 258.211 195.004L257.414 194.031ZM261.809 191.195V190.141H263.332V186.648H264.562V196.527H263.332V191.195H261.809ZM276.328 186.449V189.555H277.805V190.633H276.328V194.195H275.027V186.449H276.328ZM268.09 189.824C268.084 188.26 269.338 187.158 270.949 187.152C272.561 187.158 273.797 188.26 273.809 189.824C273.797 191.365 272.561 192.484 270.949 192.484C269.338 192.484 268.084 191.365 268.09 189.824ZM269.367 189.824C269.361 190.738 270.064 191.342 270.949 191.336C271.846 191.342 272.525 190.738 272.531 189.824C272.525 188.887 271.846 188.289 270.949 188.289C270.064 188.289 269.361 188.887 269.367 189.824ZM269.543 196.832V193.387H270.844V195.777H276.75V196.832H269.543ZM290.039 186.449V197.043H288.727V186.449H290.039ZM281.262 194.125C284.039 192.807 285.316 191.014 285.551 188.605H281.801V187.574H286.875C286.875 190.727 285.65 193.404 281.941 195.168L281.262 194.125ZM294.504 186.918C295.875 186.912 296.953 187.703 297.217 188.863H299.133V186.449H300.434V192.133H299.133V189.918H297.229C296.977 191.107 295.887 191.91 294.504 191.91C292.881 191.91 291.703 190.867 291.703 189.402C291.703 187.955 292.881 186.912 294.504 186.918ZM292.945 189.402C292.945 190.252 293.59 190.814 294.504 190.809C295.395 190.814 296.033 190.252 296.039 189.402C296.033 188.553 295.395 188.002 294.504 188.008C293.59 188.002 292.945 188.553 292.945 189.402ZM293.449 196.914V192.625H294.738V193.75H299.133V192.625H300.434V196.914H293.449ZM294.738 195.859H299.133V194.758H294.738V195.859Z" fill="#1B4B66"/>
<rect y="238" width="339" height="42" rx="6" fill="#1B4B66"/>
<path d="M128.061 260.662C128.061 263.196 126.087 263.728 124.561 263.728H120.347V252.864H124.281C125.793 252.864 127.417 253.536 127.431 255.692C127.445 256.952 126.703 257.806 125.443 258.044V258.072C126.983 258.254 128.061 259.332 128.061 260.662ZM125.527 255.902C125.527 254.768 124.743 254.432 123.833 254.432H122.335V257.302H123.651C124.561 257.302 125.527 256.994 125.527 255.902ZM126.073 260.48C126.073 259.052 124.869 258.814 123.777 258.814H122.335V262.16H124.141C125.205 262.16 126.073 261.74 126.073 260.48ZM133.766 255.356V257.162H133.598C131.988 257.162 131.274 258.394 131.274 259.948V263.476L129.384 263.77V255.692L131.064 255.398V257.05C131.316 256.098 132.366 255.356 133.598 255.356H133.766ZM137.925 263.91C136.175 263.952 134.635 262.86 134.635 260.914V258.464C134.635 256.518 136.133 255.426 137.911 255.468C139.045 255.496 139.731 255.93 140.319 256.672V255.65L142.195 255.37V263.742L140.375 264.022V262.762C139.815 263.546 138.891 263.882 137.925 263.91ZM140.305 258.674C140.291 257.778 139.535 256.98 138.345 256.938C137.435 256.91 136.609 257.512 136.609 258.534V260.858C136.609 261.88 137.379 262.454 138.275 262.426C139.731 262.384 140.347 261.376 140.333 260.242L140.305 258.674ZM151.234 258.464V263.476L149.344 263.756V259.192C149.344 258.072 149.26 256.826 147.86 256.826C146.236 256.812 145.816 258.366 145.816 259.542V263.476L143.926 263.756V255.678L145.732 255.398V256.63C146.39 255.72 147.398 255.342 148.49 255.342C150.408 255.342 151.234 256.644 151.234 258.464ZM155.931 263.91C154.181 263.952 152.613 262.86 152.613 260.914V258.464C152.613 256.518 154.139 255.426 155.917 255.468C157.051 255.496 157.723 255.93 158.297 256.672V252.71L160.173 252.43V263.742L158.353 264.022V262.762C157.807 263.546 156.897 263.882 155.931 263.91ZM158.283 258.646C158.269 257.75 157.513 256.938 156.253 256.924C155.315 256.91 154.587 257.512 154.587 258.534V260.858C154.587 261.88 155.245 262.468 156.197 262.44C157.667 262.398 158.325 261.404 158.311 260.242L158.283 258.646ZM177.334 252.864V263.588L175.43 263.868V254.46L172.798 263.574L170.88 263.812L168.164 254.46V263.588L166.274 263.868V252.864H169.452L171.818 261.432L174.156 252.864H177.334ZM181.452 252.43V254.306H179.548V252.43H181.452ZM181.438 255.664V263.602L179.562 263.882V255.664H181.438ZM186.083 258.842L187.427 258.856C188.715 258.87 189.639 259.85 189.639 261.222C189.639 262.93 188.323 263.812 186.615 263.812H183.185V262.356H186.335C187.259 262.356 187.833 261.964 187.833 261.264C187.833 260.606 187.497 260.242 186.867 260.242L185.327 260.228C184.123 260.214 183.213 259.206 183.213 257.932C183.213 256.252 184.305 255.496 186.027 255.496H189.135L188.841 256.952H186.223C185.439 256.952 185.019 257.204 185.019 257.862C185.019 258.52 185.425 258.842 186.083 258.842ZM193.699 258.842L195.043 258.856C196.331 258.87 197.255 259.85 197.255 261.222C197.255 262.93 195.939 263.812 194.231 263.812H190.801V262.356H193.951C194.875 262.356 195.449 261.964 195.449 261.264C195.449 260.606 195.113 260.242 194.483 260.242L192.943 260.228C191.739 260.214 190.829 259.206 190.829 257.932C190.829 256.252 191.921 255.496 193.643 255.496H196.751L196.457 256.952H193.839C193.055 256.952 192.635 257.204 192.635 257.862C192.635 258.52 193.041 258.842 193.699 258.842ZM200.88 252.43V254.306H198.976V252.43H200.88ZM200.866 255.664V263.602L198.99 263.882V255.664H200.866ZM209.949 258.422V260.872C209.949 262.636 208.591 263.868 206.351 263.868C204.111 263.868 202.767 262.636 202.767 260.872V258.422C202.767 256.644 204.111 255.356 206.351 255.356C208.591 255.356 209.949 256.644 209.949 258.422ZM208.087 260.704V258.576C208.087 257.54 207.471 256.812 206.351 256.812C205.231 256.812 204.629 257.54 204.629 258.576V260.704C204.629 261.698 205.231 262.412 206.351 262.412C207.471 262.412 208.087 261.698 208.087 260.704ZM218.828 258.464V263.476L216.938 263.756V259.192C216.938 258.072 216.854 256.826 215.454 256.826C213.83 256.812 213.41 258.366 213.41 259.542V263.476L211.52 263.756V255.678L213.326 255.398V256.63C213.984 255.72 214.992 255.342 216.084 255.342C218.002 255.342 218.828 256.644 218.828 258.464Z" fill="white"/>
<rect y="285" width="339" height="72" rx="6" fill="#F4F8FF"/>
<path d="M53.8418 305.449V316.043H52.5293V305.449H53.8418ZM45.0645 313.125C47.8418 311.807 49.1191 310.014 49.3535 307.605H45.6035V306.574H50.6777C50.6777 309.727 49.4531 312.404 45.7441 314.168L45.0645 313.125ZM60.8613 305.789C60.8613 306.92 62.3086 307.951 64.5176 308.191L64.084 309.176C62.2852 308.971 60.8613 308.256 60.1816 307.225C59.502 308.256 58.0781 308.971 56.3027 309.176L55.8574 308.191C58.0781 307.951 59.5195 306.92 59.5254 305.789V305.508H60.8613V305.789ZM55.3652 310.734V309.703H65.0215V310.734H60.8262V311.555H63.8145V314.18H57.791V314.953H64.1074V315.949H56.5137V313.242H62.5371V312.551H56.502V311.555H59.5254V310.734H55.3652ZM71.9004 315H69.0176V306.516H71.9473C74.4785 306.516 76.0078 308.104 76.0137 310.746C76.0078 313.4 74.4785 315 71.9004 315ZM70.541 313.676H71.8184C73.5938 313.682 74.4902 312.703 74.4902 310.746C74.4902 308.801 73.5938 307.834 71.8652 307.84H70.541V313.676ZM84.334 306.516V315H82.9746L78.9551 309.199H78.8848V315H77.3613V306.516H78.7441L82.7402 312.316H82.8223V306.516H84.334ZM86.9824 315H85.3535L88.3418 306.516H90.2168L93.2168 315H91.5879L90.8789 312.902H87.6855L86.9824 315ZM88.0957 311.672H90.4688L89.3145 308.25H89.2441L88.0957 311.672ZM103.459 310.254V311.238H93.7793V310.254H103.459ZM94.9043 312.785V311.871H102.287V314.285H96.2168V315.023H102.604V315.926H94.916V313.441H100.998V312.785H94.9043ZM94.9746 306.586V305.684H102.264V308.074H96.2988V308.766H102.451V309.656H95.0098V307.23H100.963V306.586H94.9746ZM115.857 305.449V316.043H114.545V305.449H115.857ZM107.08 313.125C109.857 311.807 111.135 310.014 111.369 307.605H107.619V306.574H112.693C112.693 309.727 111.469 312.404 107.76 314.168L107.08 313.125ZM125.736 305.461V308.52H127.213V309.598H125.736V313.254H124.436V305.461H125.736ZM117.744 311.531V306.211H119.033V307.828H121.506V306.211H122.795V311.531H117.744ZM118.951 315.832V312.469H120.252V314.777H126.158V315.832H118.951ZM119.033 310.5H121.506V308.836H119.033V310.5ZM132.568 306.047C134.801 306.047 136.523 307.236 136.518 309.035C136.523 310.857 134.801 312.047 132.568 312.047C130.348 312.047 128.637 310.857 128.643 309.035C128.637 307.236 130.348 306.047 132.568 306.047ZM127.752 314.707V313.641H137.432V314.707H127.752ZM129.896 309.035C129.891 310.236 131.027 310.975 132.568 310.98C134.115 310.975 135.24 310.236 135.24 309.035C135.24 307.863 134.115 307.09 132.568 307.102C131.027 307.09 129.891 307.863 129.896 309.035ZM147.803 313.734V314.812H138.123V313.734H142.295V312.012H139.271V308.543H145.365V307.23H139.248V306.176H146.654V309.574H140.572V310.945H146.9V312.012H143.584V313.734H147.803ZM161.021 313.688V314.754H151.342V313.688H155.514V311.379H152.408V306.27H159.908V311.379H156.803V313.688H161.021ZM153.686 310.359H158.619V307.312H153.686V310.359ZM171.381 310.723V311.766H161.713V310.723H171.381ZM162.896 309.762V305.871H170.209V306.902H164.197V308.707H170.303V309.762H162.896ZM162.908 315.82V312.691H164.186V314.766H170.373V315.82H162.908ZM178.236 308.227C178.242 309.938 178.828 311.719 180.264 312.621L179.549 313.617C178.594 313.043 177.973 312.059 177.621 310.904C177.24 312.176 176.561 313.254 175.564 313.863L174.756 312.891C176.297 311.959 176.977 310.09 176.982 308.285V306.387H178.236V308.227ZM179.127 310.172V309.094H180.639V305.637H181.869V315.527H180.639V310.172H179.127ZM182.818 316.043V305.449H184.072V316.043H182.818ZM194.42 305.449V316.043H193.178V310.641H191.982V315.504H190.787V305.648H191.982V309.598H193.178V305.449H194.42ZM185.631 313.57V306.703H189.592V307.758H186.943V312.469C188.092 312.457 189.041 312.398 190.119 312.199L190.213 313.266C188.93 313.523 187.822 313.559 186.346 313.57H185.631ZM199.107 306.188C200.789 306.182 202.014 307.242 202.025 308.742C202.014 310.248 200.789 311.303 199.107 311.309C197.443 311.303 196.195 310.248 196.201 308.742C196.195 307.242 197.443 306.182 199.107 306.188ZM195.721 312.773C197.631 312.773 200.273 312.75 202.564 312.422L202.67 313.371C200.297 313.822 197.754 313.84 195.885 313.84L195.721 312.773ZM197.49 308.742C197.484 309.627 198.182 310.172 199.107 310.172C200.045 310.172 200.742 309.627 200.748 308.742C200.742 307.863 200.051 307.312 199.107 307.312C198.182 307.312 197.484 307.863 197.49 308.742ZM203.197 316.055V305.449H204.498V316.055H203.197ZM212.889 308.461C212.889 310.195 213.908 312.023 215.619 312.738L214.904 313.77C213.65 313.225 212.736 312.117 212.25 310.77C211.764 312.223 210.832 313.441 209.596 314.027L208.846 313.008C210.516 312.234 211.559 310.26 211.564 308.461V307.57H209.232V306.492H215.209V307.57H212.889V308.461ZM216.393 316.043V305.449H217.705V316.043H216.393ZM228.92 310.652V311.707H219.264V310.652H223.436V309.176H224.725V310.652H228.92ZM219.791 308.766C221.977 308.49 223.412 307.289 223.412 306.023V305.625H224.736V306.023C224.736 307.318 226.16 308.49 228.369 308.766L227.865 309.785C226.131 309.521 224.742 308.736 224.068 307.623C223.389 308.73 222.006 309.521 220.26 309.785L219.791 308.766ZM220.33 313.57V312.551H227.736V316.043H226.436V313.57H220.33ZM237.932 305.449V309.586H239.502V310.676H237.932V316.02H236.631V305.449H237.932ZM229.576 313.125C232.154 311.836 233.549 310.043 233.807 307.629H230.15V306.551H235.131C235.125 309.662 233.836 312.398 230.314 314.133L229.576 313.125ZM248.572 308.203V309.258H241.26V305.637H242.561V308.203H248.572ZM240.006 311.332V310.277H249.674V311.332H240.006ZM241.131 314.051C241.131 312.803 242.52 312.1 244.822 312.094C247.107 312.1 248.484 312.803 248.49 314.051C248.484 315.293 247.107 315.996 244.822 315.996C242.52 315.996 241.131 315.293 241.131 314.051ZM242.455 314.051C242.449 314.66 243.281 314.994 244.822 315C246.34 314.994 247.178 314.66 247.189 314.051C247.178 313.424 246.34 313.119 244.822 313.113C243.281 313.119 242.449 313.424 242.455 314.051ZM258.732 305.461V308.789H260.209V309.867H258.732V313.371H257.432V305.461H258.732ZM250.389 307.676V306.633H252.885V305.449H254.186V306.633H256.67V307.676H250.389ZM250.928 310.137C250.928 308.918 251.988 308.109 253.529 308.109C255.059 308.109 256.113 308.918 256.119 310.137C256.113 311.35 255.059 312.141 253.529 312.141C251.988 312.141 250.928 311.35 250.928 310.137ZM251.947 315.832V312.75H253.248V314.777H259.154V315.832H251.947ZM252.193 310.137C252.188 310.775 252.727 311.139 253.529 311.133C254.332 311.139 254.877 310.775 254.877 310.137C254.877 309.492 254.332 309.117 253.529 309.117C252.727 309.117 252.188 309.492 252.193 310.137ZM269.197 306.445V313.465H264.158V306.445H269.197ZM265.447 312.422H267.932V307.465H265.447V312.422ZM271.096 316.055V305.449H272.408V316.055H271.096ZM278.279 306.527V310.477H275.537V312.539C276.609 312.527 277.635 312.486 278.818 312.293L278.912 313.348C277.482 313.588 276.322 313.623 275.01 313.629H274.283V309.422H277.025V307.582H274.271V306.527H278.279ZM279.451 315.504V305.648H280.646V309.516H281.842V305.449H283.084V316.043H281.842V310.57H280.646V315.504H279.451ZM293.479 305.449V316.043H292.225V305.449H293.479ZM284.443 310.031C284.443 307.699 285.346 306.252 286.729 306.258C288.012 306.252 288.885 307.453 289.037 309.434H290.057V305.637H291.299V315.527H290.057V310.488H289.049C288.926 312.557 288.041 313.822 286.729 313.816C285.346 313.822 284.443 312.369 284.443 310.031ZM285.65 310.031C285.645 311.689 286.055 312.58 286.729 312.574C287.432 312.58 287.848 311.689 287.854 310.031C287.848 308.379 287.432 307.482 286.729 307.488C286.055 307.482 285.645 308.379 285.65 310.031ZM89.4199 330.477V331.508H79.7637V330.477H89.4199ZM80.7598 327.746C80.7598 326.48 82.2598 325.695 84.5801 325.695C86.9062 325.695 88.3945 326.48 88.4004 327.746C88.3945 329.029 86.9062 329.797 84.5801 329.797C82.2598 329.797 80.7598 329.029 80.7598 327.746ZM80.8887 334.121C80.8887 332.879 82.2656 332.193 84.5801 332.199C86.8594 332.193 88.2422 332.879 88.248 334.121C88.2422 335.357 86.8594 336.049 84.5801 336.043C82.2656 336.049 80.8887 335.357 80.8887 334.121ZM82.1191 327.746C82.1074 328.426 83.0332 328.783 84.5801 328.777C86.127 328.783 87.0527 328.426 87.0527 327.746C87.0527 327.072 86.127 326.715 84.5801 326.715C83.0332 326.715 82.1074 327.072 82.1191 327.746ZM82.2129 334.121C82.207 334.725 83.0391 335.041 84.5801 335.035C86.0977 335.041 86.9355 334.725 86.9473 334.121C86.9355 333.5 86.0977 333.184 84.5801 333.184C83.0391 333.184 82.207 333.5 82.2129 334.121ZM98.4902 325.449V327.805H99.9668V328.883H98.4902V331.109H97.1895V325.449H98.4902ZM90.5801 330.828V326.105H95.291V327.16H91.8691V329.762C93.8613 329.756 94.9688 329.697 96.2285 329.422L96.3691 330.477C94.9805 330.764 93.75 330.822 91.4355 330.828H90.5801ZM91.623 335.891V331.637H92.9238V332.727H97.1895V331.637H98.4902V335.891H91.623ZM92.9238 334.836H97.1895V333.758H92.9238V334.836ZM108.861 325.426V327.816H110.35V328.871H108.861V331.203H107.561V325.426H108.861ZM100.518 327.301V326.305H103.014V325.367H104.314V326.305H106.799V327.301H100.518ZM101.057 329.363C101.057 328.309 102.094 327.635 103.658 327.629C105.229 327.635 106.242 328.309 106.248 329.363C106.242 330.447 105.229 331.098 103.658 331.098C102.094 331.098 101.057 330.447 101.057 329.363ZM101.936 332.621V331.672H108.861V334.227H103.236V334.977H109.189V335.949H101.947V333.324H107.561V332.621H101.936ZM102.322 329.363C102.316 329.885 102.838 330.154 103.658 330.16C104.479 330.154 105.006 329.885 105.006 329.363C105.006 328.859 104.479 328.561 103.658 328.566C102.838 328.561 102.316 328.859 102.322 329.363ZM119.244 326.328C119.238 327.658 120.732 329.012 122.994 329.305L122.479 330.359C120.68 330.09 119.25 329.205 118.559 328.01C117.867 329.205 116.443 330.09 114.662 330.359L114.146 329.305C116.385 329.012 117.873 327.67 117.873 326.328V325.789H119.244V326.328ZM113.725 332.352V331.273H123.381V332.352H119.174V336.043H117.885V332.352H113.725ZM130.705 332.34C130.705 333.225 131.109 334.145 132.018 334.73C132.943 334.104 133.371 333.143 133.377 332.34V331.906H134.654V332.34C134.648 333.447 135.305 334.49 136.693 334.93L136.061 335.879C135.029 335.533 134.35 334.859 133.98 334.01C133.635 334.848 133.014 335.586 132.053 335.973C131.045 335.604 130.412 334.889 130.078 334.051C129.697 334.865 129.023 335.527 128.045 335.879L127.4 334.93C128.771 334.449 129.434 333.371 129.439 332.34V331.906H130.705V332.34ZM127.131 328.543C127.131 327.055 128.35 326.023 129.99 326.023C131.625 326.023 132.844 327.055 132.838 328.543C132.844 330.014 131.625 331.057 129.99 331.051C128.35 331.057 127.131 330.014 127.131 328.543ZM128.408 328.543C128.402 329.41 129.064 329.967 129.99 329.973C130.898 329.967 131.561 329.41 131.561 328.543C131.561 327.676 130.898 327.119 129.99 327.125C129.064 327.119 128.402 327.676 128.408 328.543ZM134.455 331.461V325.461H135.768V331.461H134.455ZM145.916 330.266V331.297H142.775V333.723H146.994V334.789H137.314V333.723H141.486V331.297H138.486V326.234H145.834V327.277H139.787V330.266H145.916ZM157.354 331.18V332.234H147.674V331.18H151.869V330.301H148.904V327.488H154.857V326.703H148.869V325.684H156.158V328.438H150.193V329.281H156.369V330.301H153.158V331.18H157.354ZM148.752 333.934V332.902H156.217V335.973H154.904V333.934H148.752ZM170.561 329.539V330.582H160.904V329.539H163.629C163.951 328.414 164.016 327.576 164.027 326.914H161.807V325.871H165.311V326.492C165.305 327.201 165.305 328.227 164.971 329.539H167.824C168.1 328.42 168.152 327.57 168.164 326.914H165.955V325.871H169.447V326.469C169.441 327.172 169.441 328.191 169.137 329.539H170.561ZM161.982 335.75V331.777H163.248V334.689C163.869 334.654 164.543 334.566 165.24 334.367L165.393 335.422C164.355 335.703 163.436 335.756 162.545 335.75H161.982ZM165.17 332.82V331.848H166.975V331.051H168.252V331.848H170.01V332.82H165.17ZM165.697 334.59C165.697 333.717 166.512 333.143 167.619 333.137C168.709 333.143 169.518 333.717 169.518 334.59C169.518 335.486 168.709 336.037 167.619 336.043C166.512 336.037 165.697 335.486 165.697 334.59ZM166.811 334.59C166.805 334.953 167.145 335.141 167.619 335.141C168.082 335.141 168.416 334.953 168.416 334.59C168.416 334.232 168.082 334.039 167.619 334.027C167.145 334.039 166.805 334.232 166.811 334.59ZM180.1 325.461V331.461H178.787V325.461H180.1ZM171.463 328.496C171.463 327.002 172.682 325.971 174.322 325.965C175.957 325.971 177.176 327.002 177.17 328.496C177.176 329.955 175.957 331.004 174.322 331.004C172.682 331.004 171.463 329.955 171.463 328.496ZM172.74 328.496C172.734 329.352 173.396 329.908 174.322 329.902C175.23 329.908 175.893 329.352 175.893 328.496C175.893 327.617 175.23 327.066 174.322 327.066C173.396 327.066 172.734 327.617 172.74 328.496ZM173.068 335.914V331.977H180.1V335.914H173.068ZM174.357 334.859H178.822V333.008H174.357V334.859ZM184.049 331.648V332.785H185.443V331.648H186.65V335.012C187.898 334.484 188.467 333.424 188.467 332.41V331.566H189.768V332.41C189.762 333.506 190.336 334.578 191.643 335.023L190.975 335.996C190.037 335.656 189.439 335.018 189.105 334.215C188.754 334.994 188.15 335.645 187.271 335.996L186.65 335.076V335.914H182.83V331.648H184.049ZM181.787 328.344C181.787 326.896 182.965 325.877 184.588 325.883C185.953 325.877 187.031 326.645 187.301 327.793H189.217V325.449H190.518V331.062H189.217V328.871H187.307C187.049 330.049 185.965 330.828 184.588 330.828C182.965 330.828 181.787 329.814 181.787 328.344ZM183.029 328.344C183.029 329.199 183.674 329.762 184.588 329.762C185.479 329.762 186.117 329.199 186.123 328.344C186.117 327.506 185.479 326.955 184.588 326.961C183.674 326.955 183.029 327.506 183.029 328.344ZM184.049 334.918H185.443V333.758H184.049V334.918ZM200.596 328.449V329.48H193.26V325.836H194.549V328.449H200.596ZM192.006 331.742V330.711H201.686V331.742H192.006ZM193.166 335.797V332.68H194.467V334.742H200.666V335.797H193.166ZM211.178 326.422V327.453H205.26V326.422H207.627V325.355H208.928V326.422H211.178ZM205.811 329.926C205.805 328.736 206.848 327.91 208.26 327.91C209.689 327.91 210.738 328.736 210.744 329.926C210.738 331.086 209.689 331.924 208.26 331.93C206.848 331.924 205.805 331.086 205.811 329.926ZM206.889 333.746V332.715H214.107V336.043H212.807V333.746H206.889ZM207.029 329.926C207.023 330.529 207.533 330.922 208.26 330.922C208.992 330.922 209.525 330.529 209.525 329.926C209.525 329.293 208.992 328.895 208.26 328.895C207.533 328.895 207.023 329.293 207.029 329.926ZM211.236 330.98V329.926H212.807V328.941H211.248V327.91H212.807V325.449H214.107V332.176H212.807V330.98H211.236ZM224.432 325.461V333.195H223.119V325.461H224.432ZM215.619 330.699C217.336 330.096 218.215 328.602 218.209 327.078V326.047H219.557V327.078C219.551 328.555 220.418 329.949 222.1 330.512L221.432 331.543C220.225 331.121 219.363 330.277 218.895 329.193C218.426 330.354 217.547 331.279 216.299 331.73L215.619 330.699ZM217.424 335.832V332.457H218.736V334.777H224.725V335.832H217.424ZM231.896 326.551V327.301C231.896 328.244 231.896 329.58 231.604 331.402L230.314 331.297C230.572 329.691 230.602 328.502 230.607 327.594H226.447V326.551H231.896ZM225.885 332.773C226.512 332.768 227.209 332.762 227.936 332.744V329.574H229.225V332.703C230.303 332.656 231.41 332.58 232.424 332.457L232.494 333.43C230.309 333.787 227.883 333.828 226.014 333.816L225.885 332.773ZM232.975 336.043V325.449H234.287V329.762H235.822V330.863H234.287V336.043H232.975ZM247.811 330.102V331.156H244.682V333.723H248.877V334.777H239.197V333.723H243.369V331.156H240.311V326.293H241.646V330.102H247.811ZM254.631 326.082V329.27H251.291V330.57C252.996 330.57 253.963 330.523 255.088 330.312L255.217 331.367C253.951 331.584 252.855 331.613 250.775 331.613H250.002V328.297H253.33V327.113H249.979V326.082H254.631ZM251.197 333.523V332.48H258.439V336.043H257.139V333.523H251.197ZM255.264 330.23V329.188H257.139V328.004H255.264V326.961H257.139V325.461H258.439V331.977H257.139V330.23H255.264Z" fill="#1B4B66"/>
<rect y="377" width="339" height="42" rx="6" fill="#1B4B66"/>
<path d="M133.886 401.118L133.606 402.728H127.194V391.864H133.718V393.46H129.182V396.302H133.382V397.926H129.182V401.118H133.886ZM138.136 396.428H140.054C141.594 396.428 142.686 397.66 142.686 399.396C142.686 401.678 141.118 402.728 138.808 402.728H135.21V401.118H138.64C139.886 401.118 140.698 400.67 140.698 399.494C140.698 398.598 140.236 398.024 139.536 398.024H137.814C136.19 398.024 135.014 396.792 135.014 395.112C135.014 392.886 136.274 391.864 138.598 391.864H141.972L141.678 393.46H138.766C137.66 393.46 136.988 393.894 136.988 395.014C136.988 395.91 137.394 396.428 138.136 396.428ZM149.611 402.812H148.421C145.313 402.812 143.829 401.482 143.829 398.668V396.008C143.829 393.292 145.355 391.864 148.407 391.864H151.403L151.109 393.502H148.533C146.489 393.502 145.803 394.594 145.803 396.302V398.36C145.803 400.18 146.363 401.188 148.477 401.188H149.611V398.15H147.805V396.582H151.529V402.532L149.611 402.812ZM163.868 401.118L163.588 402.728H157.176V391.864H163.7V393.46H159.164V396.302H163.364V397.926H159.164V401.118H163.868ZM168.105 397.842L169.449 397.856C170.737 397.87 171.661 398.85 171.661 400.222C171.661 401.93 170.345 402.812 168.637 402.812H165.207V401.356H168.357C169.281 401.356 169.855 400.964 169.855 400.264C169.855 399.606 169.519 399.242 168.889 399.242L167.349 399.228C166.145 399.214 165.235 398.206 165.235 396.932C165.235 395.252 166.327 394.496 168.049 394.496H171.157L170.863 395.952H168.245C167.461 395.952 167.041 396.204 167.041 396.862C167.041 397.52 167.447 397.842 168.105 397.842ZM175.72 397.842L177.064 397.856C178.352 397.87 179.276 398.85 179.276 400.222C179.276 401.93 177.96 402.812 176.252 402.812H172.822V401.356H175.972C176.896 401.356 177.47 400.964 177.47 400.264C177.47 399.606 177.134 399.242 176.504 399.242L174.964 399.228C173.76 399.214 172.85 398.206 172.85 396.932C172.85 395.252 173.942 394.496 175.664 394.496H178.772L178.478 395.952H175.86C175.076 395.952 174.656 396.204 174.656 396.862C174.656 397.52 175.062 397.842 175.72 397.842ZM187.507 399.312H182.243V399.816C182.243 400.936 182.803 401.384 184.203 401.384H187.157L186.877 402.812H184.119C181.683 402.812 180.465 401.706 180.465 399.746V397.646C180.465 395.91 181.893 394.356 184.091 394.356C186.037 394.356 187.507 395.672 187.507 397.562V399.312ZM182.243 397.772V397.996H185.743V397.534C185.743 396.414 185.113 395.784 184.091 395.784C182.859 395.784 182.243 396.596 182.243 397.772ZM196.269 397.464V402.476L194.379 402.756V398.192C194.379 397.072 194.295 395.826 192.895 395.826C191.271 395.812 190.851 397.366 190.851 398.542V402.476L188.961 402.756V394.678L190.767 394.398V395.63C191.425 394.72 192.433 394.342 193.525 394.342C195.443 394.342 196.269 395.644 196.269 397.464ZM197.774 397.59C197.774 395.532 199.244 394.356 201.316 394.356H203.696V395.84H201.512C200.588 395.84 199.748 396.47 199.748 397.716V399.508C199.748 400.558 200.28 401.328 201.484 401.328H203.934L203.654 402.812H201.288C199.02 402.812 197.774 401.482 197.774 399.578V397.59ZM212.144 399.312H206.88V399.816C206.88 400.936 207.44 401.384 208.84 401.384H211.794L211.514 402.812H208.756C206.32 402.812 205.102 401.706 205.102 399.746V397.646C205.102 395.91 206.53 394.356 208.728 394.356C210.674 394.356 212.144 395.672 212.144 397.562V399.312ZM206.88 397.772V397.996H210.38V397.534C210.38 396.414 209.75 395.784 208.728 395.784C207.496 395.784 206.88 396.596 206.88 397.772Z" fill="white"/>
<rect y="424" width="339" height="52" rx="6" fill="#F4F8FF"/>
<path d="M128.59 452.688V453.754H118.91V452.688H123.082V450.379H119.977V445.27H127.477V450.379H124.371V452.688H128.59ZM121.254 449.359H126.188V446.312H121.254V449.359ZM138.949 449.723V450.766H129.281V449.723H138.949ZM130.465 448.762V444.871H137.777V445.902H131.766V447.707H137.871V448.762H130.465ZM130.477 454.82V451.691H131.754V453.766H137.941V454.82H130.477ZM145.805 447.227C145.811 448.938 146.396 450.719 147.832 451.621L147.117 452.617C146.162 452.043 145.541 451.059 145.189 449.904C144.809 451.176 144.129 452.254 143.133 452.863L142.324 451.891C143.865 450.959 144.545 449.09 144.551 447.285V445.387H145.805V447.227ZM146.695 449.172V448.094H148.207V444.637H149.438V454.527H148.207V449.172H146.695ZM150.387 455.043V444.449H151.641V455.043H150.387ZM161.988 444.449V455.043H160.746V449.641H159.551V454.504H158.355V444.648H159.551V448.598H160.746V444.449H161.988ZM153.199 452.57V445.703H157.16V446.758H154.512V451.469C155.66 451.457 156.609 451.398 157.688 451.199L157.781 452.266C156.498 452.523 155.391 452.559 153.914 452.57H153.199ZM172.91 449.254V450.238H163.23V449.254H172.91ZM164.355 451.785V450.871H171.738V453.285H165.668V454.023H172.055V454.926H164.367V452.441H170.449V451.785H164.355ZM164.426 445.586V444.684H171.715V447.074H165.75V447.766H171.902V448.656H164.461V446.23H170.414V445.586H164.426ZM179.918 444.918C181.529 444.912 182.695 445.814 182.695 447.145C182.695 448.451 181.529 449.365 179.918 449.359C178.324 449.365 177.164 448.451 177.164 447.145C177.164 445.814 178.324 444.912 179.918 444.918ZM176.473 450.086C178.383 450.086 181.061 450.051 183.34 449.711L183.434 450.672C182.52 450.848 181.57 450.959 180.645 451.029V454.715H179.332V451.105C178.354 451.146 177.434 451.158 176.637 451.164L176.473 450.086ZM178.43 447.145C178.424 447.854 179.051 448.299 179.918 448.293C180.82 448.299 181.453 447.854 181.453 447.145C181.453 446.412 180.82 445.961 179.918 445.973C179.051 445.961 178.424 446.412 178.43 447.145ZM184.031 455.031V444.461H185.32V455.031H184.031ZM195.188 444.461V447.789H196.664V448.867H195.188V452.371H193.887V444.461H195.188ZM186.844 446.676V445.633H189.34V444.449H190.641V445.633H193.125V446.676H186.844ZM187.383 449.137C187.383 447.918 188.443 447.109 189.984 447.109C191.514 447.109 192.568 447.918 192.574 449.137C192.568 450.35 191.514 451.141 189.984 451.141C188.443 451.141 187.383 450.35 187.383 449.137ZM188.402 454.832V451.75H189.703V453.777H195.609V454.832H188.402ZM188.648 449.137C188.643 449.775 189.182 450.139 189.984 450.133C190.787 450.139 191.332 449.775 191.332 449.137C191.332 448.492 190.787 448.117 189.984 448.117C189.182 448.117 188.643 448.492 188.648 449.137ZM209.707 449.477V450.508H200.051V449.477H209.707ZM201.047 446.746C201.047 445.48 202.547 444.695 204.867 444.695C207.193 444.695 208.682 445.48 208.688 446.746C208.682 448.029 207.193 448.797 204.867 448.797C202.547 448.797 201.047 448.029 201.047 446.746ZM201.176 453.121C201.176 451.879 202.553 451.193 204.867 451.199C207.146 451.193 208.529 451.879 208.535 453.121C208.529 454.357 207.146 455.049 204.867 455.043C202.553 455.049 201.176 454.357 201.176 453.121ZM202.406 446.746C202.395 447.426 203.32 447.783 204.867 447.777C206.414 447.783 207.34 447.426 207.34 446.746C207.34 446.072 206.414 445.715 204.867 445.715C203.32 445.715 202.395 446.072 202.406 446.746ZM202.5 453.121C202.494 453.725 203.326 454.041 204.867 454.035C206.385 454.041 207.223 453.725 207.234 453.121C207.223 452.5 206.385 452.184 204.867 452.184C203.326 452.184 202.494 452.5 202.5 453.121ZM218.777 444.449V446.805H220.254V447.883H218.777V450.109H217.477V444.449H218.777ZM210.867 449.828V445.105H215.578V446.16H212.156V448.762C214.148 448.756 215.256 448.697 216.516 448.422L216.656 449.477C215.268 449.764 214.037 449.822 211.723 449.828H210.867ZM211.91 454.891V450.637H213.211V451.727H217.477V450.637H218.777V454.891H211.91ZM213.211 453.836H217.477V452.758H213.211V453.836Z" fill="#1B4B66"/>
<rect y="496" width="339" height="42" rx="6" fill="#1B4B66"/>
<path d="M132.441 521.784H129.529C126.561 521.784 125.105 520.44 125.105 517.598V515.05C125.105 512.292 126.743 510.864 129.487 510.864H132.301V512.502H129.753C127.919 512.502 127.079 513.384 127.079 515.344V517.29C127.079 518.998 127.625 520.16 129.739 520.16H132.721L132.441 521.784ZM141.282 516.422V518.872C141.282 520.636 139.924 521.868 137.684 521.868C135.444 521.868 134.1 520.636 134.1 518.872V516.422C134.1 514.644 135.444 513.356 137.684 513.356C139.924 513.356 141.282 514.644 141.282 516.422ZM139.42 518.704V516.576C139.42 515.54 138.804 514.812 137.684 514.812C136.564 514.812 135.962 515.54 135.962 516.576V518.704C135.962 519.698 136.564 520.412 137.684 520.412C138.804 520.412 139.42 519.698 139.42 518.704ZM147.431 513.356V515.162H147.263C145.653 515.162 144.939 516.394 144.939 517.948V521.476L143.049 521.77V513.692L144.729 513.398V515.05C144.981 514.098 146.031 513.356 147.263 513.356H147.431ZM155.207 518.312H149.943V518.816C149.943 519.936 150.503 520.384 151.903 520.384H154.857L154.577 521.812H151.819C149.383 521.812 148.165 520.706 148.165 518.746V516.646C148.165 514.91 149.593 513.356 151.791 513.356C153.737 513.356 155.207 514.672 155.207 516.562V518.312ZM149.943 516.772V516.996H153.443V516.534C153.443 515.414 152.813 514.784 151.791 514.784C150.559 514.784 149.943 515.596 149.943 516.772ZM162.993 510.724V521.588L161.019 521.868V511.004L162.993 510.724ZM168.079 521.91C166.329 521.952 164.761 520.86 164.761 518.914V516.464C164.761 514.518 166.287 513.426 168.065 513.468C169.199 513.496 169.871 513.93 170.445 514.672V510.71L172.321 510.43V521.742L170.501 522.022V520.762C169.955 521.546 169.045 521.882 168.079 521.91ZM170.431 516.646C170.417 515.75 169.661 514.938 168.401 514.924C167.463 514.91 166.735 515.512 166.735 516.534V518.858C166.735 519.88 167.393 520.468 168.345 520.44C169.815 520.398 170.473 519.404 170.459 518.242L170.431 516.646ZM180.965 518.312H175.701V518.816C175.701 519.936 176.261 520.384 177.661 520.384H180.615L180.335 521.812H177.577C175.141 521.812 173.923 520.706 173.923 518.746V516.646C173.923 514.91 175.351 513.356 177.549 513.356C179.495 513.356 180.965 514.672 180.965 516.562V518.312ZM175.701 516.772V516.996H179.201V516.534C179.201 515.414 178.571 514.784 177.549 514.784C176.317 514.784 175.701 515.596 175.701 516.772ZM189.727 516.464V521.476L187.837 521.756V517.192C187.837 516.072 187.753 514.826 186.353 514.826C184.729 514.812 184.309 516.366 184.309 517.542V521.476L182.419 521.756V513.678L184.225 513.398V514.63C184.883 513.72 185.891 513.342 186.983 513.342C188.901 513.342 189.727 514.644 189.727 516.464ZM190.882 513.622H192.17V511.984L194.074 511.578V513.622H196.16L195.88 515.078H194.074V519.082C194.074 519.796 194.326 520.398 195.054 520.398H196.174L195.894 521.882H194.606C193.052 521.882 192.17 520.958 192.17 519.418V515.078H190.882V513.622ZM199.465 510.43V512.306H197.561V510.43H199.465ZM199.451 513.664V521.602L197.575 521.882V513.664H199.451ZM200.89 513.622H202.178V511.984L204.082 511.578V513.622H206.168L205.888 515.078H204.082V519.082C204.082 519.796 204.334 520.398 205.062 520.398H206.182L205.902 521.882H204.614C203.06 521.882 202.178 520.958 202.178 519.418V515.078H200.89V513.622ZM212.623 513.608H214.527L211.573 521.364C210.999 522.89 210.383 524.402 208.423 524.402H207.233V522.932H208.185C209.081 522.932 209.585 522.008 209.683 521.35L206.603 513.608H208.675L210.663 519.25L212.623 513.608Z" fill="white"/>
<rect y="543" width="167" height="72" rx="6" fill="#F4F8FF"/>
<path d="M59.4473 565.793V564.516H66.209V565.793H63.5957V573H62.0723V565.793H59.4473ZM69.2324 573.129C67.3164 573.129 66.1387 571.852 66.1387 569.859C66.1387 567.891 67.334 566.555 69.1504 566.555C70.709 566.555 72.0566 567.533 72.0566 569.766V570.234H67.6152C67.6387 571.318 68.2773 571.963 69.2441 571.957C69.9004 571.963 70.3398 571.682 70.5332 571.301H71.998C71.7285 572.402 70.709 573.129 69.2324 573.129ZM67.6211 569.215H70.627C70.6211 568.348 70.0352 567.715 69.1738 567.715C68.2773 567.715 67.6738 568.406 67.6211 569.215ZM72.9238 571.207C72.9238 569.777 74.1133 569.361 75.291 569.285C75.7363 569.25 76.6445 569.209 76.9258 569.197L76.9199 568.688C76.9199 568.055 76.5156 567.691 75.7715 567.691C75.1035 567.691 74.6934 567.996 74.5762 568.453H73.1348C73.2402 567.369 74.2129 566.555 75.8066 566.555C77.0137 566.555 78.4082 567.053 78.4082 568.746V573H76.9785V572.121H76.9316C76.6504 572.66 76.0586 573.129 75.0566 573.129C73.8438 573.129 72.9238 572.467 72.9238 571.207ZM74.3652 571.195C74.3652 571.746 74.8164 572.027 75.4434 572.027C76.3516 572.027 76.9316 571.43 76.9316 570.715L76.9258 570.193C76.6562 570.205 75.8242 570.258 75.5254 570.281C74.8164 570.34 74.3652 570.639 74.3652 571.195ZM79.8145 573V566.637H81.2441V567.715H81.3262C81.5898 566.988 82.2285 566.555 83.0723 566.555C83.9336 566.555 84.5547 566.994 84.7949 567.715H84.8652C85.1406 567.012 85.8496 566.555 86.7754 566.555C87.9414 566.555 88.7617 567.305 88.7559 568.723V573H87.2676V568.957C87.2676 568.166 86.7871 567.809 86.1777 567.809C85.4453 567.809 85.0176 568.307 85.0176 569.027V573H83.5645V568.898C83.5586 568.236 83.125 567.809 82.4863 567.809C81.8418 567.809 81.3145 568.342 81.3145 569.133V573H79.8145ZM98.459 564.516H99.9941V570.059C99.9883 571.881 98.6172 573.129 96.5488 573.129C94.4688 573.129 93.1094 571.881 93.1035 570.059V564.516H94.627V569.93C94.6328 571.002 95.377 571.764 96.5488 571.77C97.7207 571.764 98.459 571.002 98.459 569.93V564.516ZM101.494 575.391V566.637H102.959V567.68H103.053C103.281 567.229 103.75 566.555 104.881 566.555C106.346 566.555 107.5 567.703 107.506 569.824C107.5 571.916 106.381 573.111 104.881 573.117C103.785 573.111 103.287 572.461 103.053 571.992H102.994V575.391H101.494ZM102.959 569.812C102.965 571.055 103.504 571.887 104.471 571.887C105.461 571.887 105.982 571.014 105.982 569.812C105.982 568.629 105.473 567.779 104.471 567.773C103.492 567.779 102.965 568.576 102.959 569.812ZM17.1543 589.766C17.1543 587.562 17.8105 585.723 18.9121 584.152H20.3184C19.5098 585.318 18.7012 587.668 18.7012 589.766C18.7012 591.863 19.5098 594.219 20.3184 595.391H18.9121C17.8105 593.809 17.1543 591.975 17.1543 589.766ZM26.5059 584.129C26.5059 585.377 27.9766 586.672 30.1387 586.977L29.6465 588.008C27.9062 587.738 26.5176 586.895 25.8438 585.752C25.1641 586.906 23.7637 587.762 22.0293 588.031L21.5371 587.012C23.6992 586.689 25.1641 585.418 25.1699 584.129V583.719H26.5059V584.129ZM20.998 589.766V588.711H30.6777V589.766H26.5879V591.699H25.2988V589.766H20.998ZM22.1699 593.832V590.75H23.4707V592.777H29.6113V593.832H22.1699ZM39.7715 583.449V587H41.2012V588.078H39.7715V591.723H38.4707V583.449H39.7715ZM31.2871 589.602C32.0781 589.602 32.998 589.596 33.959 589.566V588.893C32.7812 588.746 32.0312 588.166 32.0371 587.316C32.0312 586.279 33.0566 585.664 34.5918 585.676C36.1328 585.664 37.1465 586.279 37.1465 587.316C37.1465 588.16 36.4199 588.734 35.2598 588.893V589.502C36.1621 589.449 37.0703 589.367 37.9199 589.238L38.0254 590.152C35.7812 590.574 33.2559 590.604 31.4277 590.621L31.2871 589.602ZM31.5566 585.324V584.375H33.959V583.414H35.2598V584.375H37.6387V585.324H31.5566ZM32.8105 593.832V591.172H34.1113V592.777H40.1465V593.832H32.8105ZM33.291 587.316C33.2793 587.773 33.7715 588.043 34.5918 588.043C35.4121 588.043 35.9043 587.773 35.9043 587.316C35.9043 586.818 35.4121 586.549 34.5918 586.555C33.7715 586.549 33.2793 586.818 33.291 587.316ZM50.623 583.461V589.648H49.3223V588.477H46.8027V587.422H49.3223V586.285H46.9023C46.2344 587.967 44.6875 589.145 42.3848 589.789L41.8574 588.758C44.3359 588.09 45.6602 586.83 45.8594 585.254H42.4199V584.199H47.2832C47.2832 584.568 47.2539 584.92 47.1953 585.254H49.3223V583.461H50.623ZM43.5215 591.875C43.5215 590.574 44.9453 589.771 47.1191 589.766C49.2637 589.771 50.6934 590.574 50.6934 591.875C50.6934 593.176 49.2637 593.99 47.1191 593.984C44.9453 593.99 43.5215 593.176 43.5215 591.875ZM44.8223 591.875C44.8223 592.572 45.6953 592.953 47.1191 592.953C48.5195 592.953 49.3867 592.572 49.3926 591.875C49.3867 591.166 48.5195 590.785 47.1191 590.785C45.6953 590.785 44.8223 591.166 44.8223 591.875ZM61.2402 583.449V594.043H59.998V583.449H61.2402ZM51.9355 591.031C53.4648 590.1 54.1387 588.189 54.1387 586.344V585.641H52.2988V584.586H57.1035V585.641H55.3926V586.344C55.3926 588.131 56.0312 589.924 57.5488 590.797L56.7754 591.758C55.7969 591.178 55.1465 590.17 54.7773 588.963C54.4023 590.27 53.7285 591.383 52.7324 592.004L51.9355 591.031ZM56.3301 588.195V587.141H57.8535V583.648H59.084V593.527H57.8535V588.195H56.3301ZM64.5566 592.168L63.5723 595.449H62.459L63.0684 592.168H64.5566ZM72.1855 585.992C72.1738 587.885 73.123 589.795 74.7637 590.586L73.9668 591.629C72.8184 591.049 71.9922 589.93 71.541 588.582C71.0781 590.023 70.2109 591.219 68.998 591.828L68.2012 590.785C69.9062 589.977 70.8789 587.949 70.8848 585.992V584.305H72.1855V585.992ZM75.3965 594.043V583.449H76.6973V587.598H78.3262V588.711H76.6973V594.043H75.3965ZM87.5957 583.449V594.043H86.2949V583.449H87.5957ZM78.8184 591.102C79.6621 591.096 80.6172 591.096 81.6191 591.066V590.094C80.4297 589.906 79.6504 589.18 79.6504 588.172C79.6504 586.977 80.7109 586.186 82.252 586.18C83.8105 586.186 84.8887 586.977 84.8887 588.172C84.8887 589.174 84.1094 589.895 82.9199 590.088V591.02C83.8516 590.979 84.7891 590.902 85.6738 590.785L85.7676 591.758C83.4414 592.15 80.9102 592.18 79.0059 592.18L78.8184 591.102ZM79.041 585.699V584.668H81.6191V583.484H82.9199V584.668H85.4863V585.699H79.041ZM80.8926 588.172C80.8809 588.781 81.4492 589.139 82.252 589.133C83.0781 589.139 83.6406 588.781 83.6348 588.172C83.6406 587.557 83.0781 587.182 82.252 587.176C81.4492 587.182 80.8809 587.557 80.8926 588.172ZM93.0332 585.266C93.0332 586.561 93.8887 587.855 95.5293 588.406L94.873 589.414C93.6895 589.027 92.8516 588.225 92.3887 587.229C91.9258 588.336 91.0469 589.227 89.7871 589.648L89.1191 588.617C90.8066 588.061 91.709 586.654 91.709 585.277V585.137H89.5059V584.094H95.2246V585.137H93.0332V585.266ZM90.7949 591.312V590.27H98.0137V594.043H96.7129V591.312H90.7949ZM94.9082 587.141V586.074H96.7129V583.449H98.0137V589.766H96.7129V587.141H94.9082ZM112.158 584.926V585.98H110.717V587.199H112.158V588.289H110.717V589.707H109.416V583.449H110.717V584.926H112.158ZM102.479 586.602C102.473 585.113 103.703 584.047 105.338 584.059C106.967 584.047 108.186 585.113 108.197 586.602C108.186 588.113 106.967 589.162 105.338 589.168C103.703 589.162 102.473 588.113 102.479 586.602ZM103.662 591.219V590.164H110.717V594.043H109.416V591.219H103.662ZM103.756 586.602C103.75 587.504 104.424 588.061 105.338 588.055C106.24 588.061 106.914 587.504 106.92 586.602C106.914 585.717 106.24 585.166 105.338 585.16C104.424 585.166 103.75 585.717 103.756 586.602ZM116.529 586.461C116.523 588.096 117.508 589.959 119.178 590.738L118.451 591.77C117.256 591.207 116.371 590.07 115.896 588.746C115.416 590.199 114.49 591.441 113.271 592.027L112.51 591.008C114.197 590.205 115.223 588.225 115.229 586.461V585.57H112.92V584.492H118.744V585.57H116.529V586.461ZM119.729 594.043V583.449H121.029V587.574H122.658V588.664H121.029V594.043H119.729ZM127.51 584.422V586.871H129.232V584.422H130.439V591.477H126.279V584.422H127.51ZM127.51 590.422H129.232V587.902H127.51V590.422ZM131.482 593.527V583.637H132.713V587.539H133.838V583.449H135.092V594.043H133.838V588.617H132.713V593.527H131.482ZM145.193 583.449V594.055H143.893V589.707H141.959V588.641H143.893V586.824H141.994V585.758H143.893V583.449H145.193ZM136.674 585.406V584.363H141.396V588.324H137.998V590.574C139.398 590.568 140.611 590.504 142.041 590.293L142.146 591.359C140.523 591.617 139.176 591.652 137.529 591.652H136.709V587.305H140.119V585.406H136.674ZM149.846 589.766C149.846 591.975 149.189 593.809 148.088 595.391H146.682C147.49 594.219 148.299 591.863 148.299 589.766C148.299 587.668 147.49 585.318 146.682 584.152H148.088C149.189 585.723 149.846 587.562 149.846 589.766Z" fill="#1B4B66"/>
<rect x="172" y="543" width="167" height="72" rx="6" fill="#F4F8FF"/>
<path d="M221.164 573H219.535L222.523 564.516H224.398L227.398 573H225.77L225.061 570.902H221.867L221.164 573ZM222.277 569.672H224.65L223.496 566.25H223.426L222.277 569.672ZM230.914 573.129C229.016 573.129 227.867 571.77 227.867 569.848C227.867 567.896 229.051 566.555 230.914 566.555C232.455 566.555 233.539 567.457 233.645 568.828H232.215C232.098 568.219 231.652 567.756 230.926 567.75C230 567.756 229.379 568.529 229.379 569.812C229.379 571.125 229.988 571.904 230.926 571.91C231.588 571.904 232.08 571.518 232.215 570.832H233.645C233.533 572.174 232.514 573.129 230.914 573.129ZM237.945 566.637V567.785H236.691V571.09C236.691 571.699 236.996 571.822 237.371 571.828C237.547 571.834 237.84 571.816 238.027 571.805V573.023C237.852 573.053 237.564 573.088 237.184 573.082C236.059 573.088 235.191 572.531 235.203 571.336V567.785H234.289V566.637H235.203V565.113H236.691V566.637H237.945ZM241.637 565.793V564.516H248.398V565.793H245.785V573H244.262V565.793H241.637ZM251.375 573.129C249.518 573.129 248.328 571.811 248.328 569.848C248.328 567.867 249.518 566.555 251.375 566.555C253.238 566.555 254.428 567.867 254.422 569.848C254.428 571.811 253.238 573.129 251.375 573.129ZM249.84 569.836C249.84 571.002 250.35 571.934 251.387 571.934C252.406 571.934 252.916 571.002 252.91 569.836C252.916 568.67 252.406 567.732 251.387 567.738C250.35 567.732 249.84 568.67 249.84 569.836ZM258.359 575.52C256.672 575.52 255.6 574.77 255.5 573.574H256.988C257.094 574.131 257.615 574.389 258.383 574.395C259.279 574.389 259.859 574.002 259.859 573.07V571.852H259.789C259.555 572.32 259.045 572.906 257.949 572.906C256.479 572.906 255.324 571.84 255.324 569.766C255.324 567.674 256.484 566.555 257.961 566.555C259.08 566.555 259.555 567.229 259.789 567.68H259.859V566.637H261.336V573.105C261.336 574.734 260.076 575.52 258.359 575.52ZM256.848 569.789C256.848 570.961 257.375 571.734 258.359 571.734C259.326 571.734 259.871 571.008 259.871 569.789C259.871 568.576 259.332 567.779 258.359 567.773C257.363 567.779 256.848 568.629 256.848 569.789ZM265.59 573.129C263.674 573.129 262.496 571.852 262.496 569.859C262.496 567.891 263.691 566.555 265.508 566.555C267.066 566.555 268.414 567.533 268.414 569.766V570.234H263.973C263.996 571.318 264.635 571.963 265.602 571.957C266.258 571.963 266.697 571.682 266.891 571.301H268.355C268.086 572.402 267.066 573.129 265.59 573.129ZM263.979 569.215H266.984C266.979 568.348 266.393 567.715 265.531 567.715C264.635 567.715 264.031 568.406 263.979 569.215ZM272.75 566.637V567.785H271.496V571.09C271.496 571.699 271.801 571.822 272.176 571.828C272.352 571.834 272.645 571.816 272.832 571.805V573.023C272.656 573.053 272.369 573.088 271.988 573.082C270.863 573.088 269.996 572.531 270.008 571.336V567.785H269.094V566.637H270.008V565.113H271.496V566.637H272.75ZM275.539 569.273V573H274.039V564.516H275.504V567.715H275.586C275.873 566.994 276.494 566.555 277.473 566.555C278.791 566.555 279.664 567.41 279.664 568.945V573H278.176V569.18C278.17 568.312 277.707 567.814 276.922 567.82C276.113 567.814 275.539 568.348 275.539 569.273ZM283.906 573.129C281.99 573.129 280.812 571.852 280.812 569.859C280.812 567.891 282.008 566.555 283.824 566.555C285.383 566.555 286.73 567.533 286.73 569.766V570.234H282.289C282.312 571.318 282.951 571.963 283.918 571.957C284.574 571.963 285.014 571.682 285.207 571.301H286.672C286.402 572.402 285.383 573.129 283.906 573.129ZM282.295 569.215H285.301C285.295 568.348 284.709 567.715 283.848 567.715C282.951 567.715 282.348 568.406 282.295 569.215ZM287.891 573V566.637H289.344V567.691H289.414C289.643 566.959 290.252 566.543 290.984 566.543C291.148 566.543 291.383 566.561 291.523 566.578V567.961C291.389 567.914 291.078 567.873 290.832 567.867C290 567.873 289.391 568.447 289.391 569.25V573H287.891ZM231.254 589.766C231.254 587.562 231.91 585.723 233.012 584.152H234.418C233.609 585.318 232.801 587.668 232.801 589.766C232.801 591.863 233.609 594.219 234.418 595.391H233.012C231.91 593.809 231.254 591.975 231.254 589.766ZM240.5 584.281V585.312H236.844V586.496H240.289V587.527H236.844V588.764C238.695 588.752 239.814 588.699 241.109 588.477L241.25 589.496C239.814 589.766 238.549 589.812 236.387 589.812H235.543V584.281H240.5ZM236.68 593.832V590.574H237.98V592.777H243.887V593.832H236.68ZM242.164 591.289V583.449H243.465V586.637H244.941V587.715H243.465V591.289H242.164ZM255.16 591.676V592.73H245.48V591.676H249.629V589.227H250.918V591.676H255.16ZM245.762 588.406C247.977 588.049 249.564 586.461 249.57 584.867V584.094H250.953V584.867C250.953 586.467 252.553 588.049 254.785 588.406L254.223 589.484C252.436 589.145 250.965 588.119 250.262 586.73C249.564 588.113 248.111 589.15 246.324 589.484L245.762 588.406ZM265.508 588.312V589.367H261.312V590.258C263.205 590.381 264.33 591.037 264.336 592.133C264.33 593.352 262.947 594.031 260.668 594.031C258.354 594.031 256.977 593.352 256.977 592.133C256.977 591.037 258.102 590.375 260.023 590.252V589.367H255.852V588.312H265.508ZM256.32 586.801C258.266 586.619 259.537 585.828 259.754 584.961H256.73V583.918H264.641V584.961H261.588C261.799 585.834 263.059 586.619 265.051 586.801L264.594 587.832C262.666 587.633 261.242 586.865 260.668 585.793C260.094 586.865 258.688 587.633 256.766 587.832L256.32 586.801ZM258.301 592.133C258.295 592.719 259.127 593.041 260.668 593.035C262.186 593.041 263.023 592.719 263.035 592.133C263.023 591.547 262.186 591.236 260.668 591.23C259.127 591.236 258.295 591.547 258.301 592.133ZM275.047 583.461V589.332H273.734V583.461H275.047ZM266.762 584.996V583.941H271.648V587H268.062V588.066C269.873 588.055 271.168 588.02 272.68 587.762L272.844 588.816C271.174 589.092 269.738 589.133 267.688 589.133H266.785V586.004H270.359V584.996H266.762ZM268.027 593.914V589.801H269.328V590.832H273.746V589.801H275.047V593.914H268.027ZM269.328 592.859H273.746V591.84H269.328V592.859ZM279.746 589.766C279.746 591.975 279.09 593.809 277.988 595.391H276.582C277.391 594.219 278.199 591.863 278.199 589.766C278.199 587.668 277.391 585.318 276.582 584.152H277.988C279.09 585.723 279.746 587.562 279.746 589.766Z" fill="#1B4B66"/>
<rect y="620" width="167" height="72" rx="6" fill="#F4F8FF"/>
<path d="M51.5137 650V641.516H54.7598C56.5996 641.516 57.5078 642.453 57.5137 643.719C57.5078 644.75 56.8574 645.324 56.0254 645.523V645.605C56.9277 645.652 57.8418 646.402 57.8418 647.691C57.8418 649.01 56.8867 650 54.9473 650H51.5137ZM53.0371 648.723H54.7129C55.8262 648.723 56.2891 648.248 56.2949 647.574C56.2891 646.812 55.6973 646.232 54.748 646.227H53.0371V648.723ZM53.0371 645.125H54.5723C55.375 645.125 55.9844 644.662 55.9902 643.906C55.9844 643.256 55.5156 642.781 54.6074 642.781H53.0371V645.125ZM61.8379 650.129C59.9219 650.129 58.7441 648.852 58.7441 646.859C58.7441 644.891 59.9395 643.555 61.7559 643.555C63.3145 643.555 64.6621 644.533 64.6621 646.766V647.234H60.2207C60.2441 648.318 60.8828 648.963 61.8496 648.957C62.5059 648.963 62.9453 648.682 63.1387 648.301H64.6035C64.334 649.402 63.3145 650.129 61.8379 650.129ZM60.2266 646.215H63.2324C63.2266 645.348 62.6406 644.715 61.7793 644.715C60.8828 644.715 60.2793 645.406 60.2266 646.215ZM69.4316 645.453C69.3379 644.973 68.9395 644.662 68.3066 644.668C67.668 644.662 67.1992 644.984 67.2051 645.418C67.1992 645.746 67.4629 645.992 68.1074 646.145L69.1855 646.367C70.3867 646.631 70.9727 647.188 70.9785 648.102C70.9727 649.297 69.9238 650.129 68.2598 650.129C66.6426 650.129 65.6875 649.402 65.5293 648.184H67.0527C67.1406 648.729 67.5625 648.998 68.2598 648.992C68.9805 648.998 69.4492 648.705 69.4551 648.23C69.4492 647.861 69.1621 647.627 68.5293 647.492L67.5098 647.27C66.3262 647.029 65.7109 646.408 65.7168 645.5C65.7109 644.322 66.7305 643.555 68.2832 643.555C69.8008 643.555 70.7383 644.299 70.8496 645.453H69.4316ZM75.291 643.637V644.785H74.0371V648.09C74.0371 648.699 74.3418 648.822 74.7168 648.828C74.8926 648.834 75.1855 648.816 75.373 648.805V650.023C75.1973 650.053 74.9102 650.088 74.5293 650.082C73.4043 650.088 72.5371 649.531 72.5488 648.336V644.785H71.6348V643.637H72.5488V642.113H74.0371V643.637H75.291ZM79.3574 650V641.516H84.877V642.793H80.8809V645.113H84.584V646.391H80.8809V648.711H84.9004V650H79.3574ZM89.4941 643.637V644.785H88.1816V650H86.6816V644.785H85.7324V643.637H86.6816V643.027C86.6816 641.791 87.4492 641.117 88.6738 641.117C89.0195 641.117 89.3418 641.152 89.623 641.211V642.395C89.377 642.359 89.1953 642.354 89.084 642.348C88.4805 642.354 88.1758 642.588 88.1816 643.168V643.637H89.4941ZM93.7832 643.637V644.785H92.4707V650H90.9707V644.785H90.0215V643.637H90.9707V643.027C90.9707 641.791 91.7383 641.117 92.9629 641.117C93.3086 641.117 93.6309 641.152 93.9121 641.211V642.395C93.666 642.359 93.4844 642.354 93.373 642.348C92.7695 642.354 92.4648 642.588 92.4707 643.168V643.637H93.7832ZM97.3809 650.129C95.5234 650.129 94.334 648.811 94.334 646.848C94.334 644.867 95.5234 643.555 97.3809 643.555C99.2441 643.555 100.434 644.867 100.428 646.848C100.434 648.811 99.2441 650.129 97.3809 650.129ZM95.8457 646.836C95.8457 648.002 96.3555 648.934 97.3926 648.934C98.4121 648.934 98.9219 648.002 98.916 646.836C98.9219 645.67 98.4121 644.732 97.3926 644.738C96.3555 644.732 95.8457 645.67 95.8457 646.836ZM101.588 650V643.637H103.041V644.691H103.111C103.34 643.959 103.949 643.543 104.682 643.543C104.846 643.543 105.08 643.561 105.221 643.578V644.961C105.086 644.914 104.775 644.873 104.529 644.867C103.697 644.873 103.088 645.447 103.088 646.25V650H101.588ZM109.639 643.637V644.785H108.385V648.09C108.385 648.699 108.689 648.822 109.064 648.828C109.24 648.834 109.533 648.816 109.721 648.805V650.023C109.545 650.053 109.258 650.088 108.877 650.082C107.752 650.088 106.885 649.531 106.896 648.336V644.785H105.982V643.637H106.896V642.113H108.385V643.637H109.639ZM114.303 645.453C114.209 644.973 113.811 644.662 113.178 644.668C112.539 644.662 112.07 644.984 112.076 645.418C112.07 645.746 112.334 645.992 112.979 646.145L114.057 646.367C115.258 646.631 115.844 647.188 115.85 648.102C115.844 649.297 114.795 650.129 113.131 650.129C111.514 650.129 110.559 649.402 110.4 648.184H111.924C112.012 648.729 112.434 648.998 113.131 648.992C113.852 648.998 114.32 648.705 114.326 648.23C114.32 647.861 114.033 647.627 113.4 647.492L112.381 647.27C111.197 647.029 110.582 646.408 110.588 645.5C110.582 644.322 111.602 643.555 113.154 643.555C114.672 643.555 115.609 644.299 115.721 645.453H114.303ZM37.0879 666.766C37.0879 664.562 37.7441 662.723 38.8457 661.152H40.252C39.4434 662.318 38.6348 664.668 38.6348 666.766C38.6348 668.863 39.4434 671.219 40.252 672.391H38.8457C37.7441 670.809 37.0879 668.975 37.0879 666.766ZM46.4629 661.328C46.457 662.658 47.9512 664.012 50.2129 664.305L49.6973 665.359C47.8984 665.09 46.4688 664.205 45.7773 663.01C45.0859 664.205 43.6621 665.09 41.8809 665.359L41.3652 664.305C43.6035 664.012 45.0918 662.67 45.0918 661.328V660.789H46.4629V661.328ZM40.9434 667.352V666.273H50.5996V667.352H46.3926V671.043H45.1035V667.352H40.9434ZM60.9941 668.676V669.73H51.3145V668.676H55.4629V666.227H56.752V668.676H60.9941ZM51.5957 665.406C53.8105 665.049 55.3984 663.461 55.4043 661.867V661.094H56.7871V661.867C56.7871 663.467 58.3867 665.049 60.6191 665.406L60.0566 666.484C58.2695 666.145 56.7988 665.119 56.0957 663.73C55.3984 665.113 53.9453 666.15 52.1582 666.484L51.5957 665.406ZM66.5254 666.66C66.0215 666.66 65.6055 666.25 65.6113 665.746C65.6055 665.254 66.0215 664.85 66.5254 664.844C67.0117 664.85 67.4277 665.254 67.4277 665.746C67.4277 666.25 67.0117 666.66 66.5254 666.66ZM81.2441 660.449V671.043H80.002V665.676H78.9121V670.527H77.6816V660.637H78.9121V664.598H80.002V660.449H81.2441ZM71.8809 667.961C73.4512 667.07 74.084 665.225 74.084 663.156V662.652H72.1973V661.609H77.084V662.652H75.3496V663.156C75.3496 665.037 75.9824 666.777 77.5527 667.586L76.791 668.582C75.7832 668.037 75.1211 667.105 74.7461 665.957C74.3887 667.275 73.7266 668.336 72.6777 668.957L71.8809 667.961ZM85.7324 662.418C85.7383 663.561 86.4062 664.715 87.7949 665.242L87.1035 666.238C86.1602 665.881 85.5039 665.201 85.123 664.381C84.7363 665.324 84.0449 666.133 83.0371 666.555L82.334 665.559C83.793 664.914 84.4727 663.59 84.4785 662.418V661.105H85.7324V662.418ZM84.2793 669.074C84.2734 667.855 85.6797 667.129 87.9121 667.129C90.127 667.129 91.5391 667.855 91.5449 669.074C91.5391 670.299 90.127 671.031 87.9121 671.031C85.6797 671.031 84.2734 670.299 84.2793 669.074ZM85.5801 669.074C85.5742 669.701 86.4414 670.041 87.9121 670.035C89.3594 670.041 90.2266 669.701 90.2324 669.074C90.2266 668.453 89.3594 668.113 87.9121 668.113C86.4414 668.113 85.5742 668.453 85.5801 669.074ZM87.9707 666.625V660.66H89.1895V663.133H90.2441V660.461H91.4863V666.953H90.2441V664.199H89.1895V666.625H87.9707ZM104.787 660.449V671.043H103.533V660.449H104.787ZM95.752 665.031C95.752 662.699 96.6543 661.252 98.0371 661.258C99.3203 661.252 100.193 662.453 100.346 664.434H101.365V660.637H102.607V670.527H101.365V665.488H100.357C100.234 667.557 99.3496 668.822 98.0371 668.816C96.6543 668.822 95.752 667.369 95.752 665.031ZM96.959 665.031C96.9531 666.689 97.3633 667.58 98.0371 667.574C98.7402 667.58 99.1562 666.689 99.1621 665.031C99.1562 663.379 98.7402 662.482 98.0371 662.488C97.3633 662.482 96.9531 663.379 96.959 665.031ZM114.912 660.449V671.055H113.611V664.855H110.576V663.801H113.611V660.449H114.912ZM106.58 668.547V661.609H107.881V667.451C109.305 667.434 110.717 667.328 112.205 667.035L112.357 668.102C110.652 668.453 109.07 668.541 107.447 668.547H106.58ZM120.385 663.461C120.385 665.195 121.404 667.023 123.115 667.738L122.4 668.77C121.146 668.225 120.232 667.117 119.746 665.77C119.26 667.223 118.328 668.441 117.092 669.027L116.342 668.008C118.012 667.234 119.055 665.26 119.061 663.461V662.57H116.729V661.492H122.705V662.57H120.385V663.461ZM123.889 671.043V660.449H125.201V671.043H123.889ZM129.912 666.766C129.912 668.975 129.256 670.809 128.154 672.391H126.748C127.557 671.219 128.365 668.863 128.365 666.766C128.365 664.668 127.557 662.318 126.748 661.152H128.154C129.256 662.723 129.912 664.562 129.912 666.766Z" fill="#1B4B66"/>
<rect x="172" y="620" width="167" height="72" rx="6" fill="#F4F8FF"/>
<path d="M221.645 650H218.762V641.516H221.691C224.223 641.516 225.752 643.104 225.758 645.746C225.752 648.4 224.223 650 221.645 650ZM220.285 648.676H221.562C223.338 648.682 224.234 647.703 224.234 645.746C224.234 643.801 223.338 642.834 221.609 642.84H220.285V648.676ZM229.859 650.129C227.943 650.129 226.766 648.852 226.766 646.859C226.766 644.891 227.961 643.555 229.777 643.555C231.336 643.555 232.684 644.533 232.684 646.766V647.234H228.242C228.266 648.318 228.904 648.963 229.871 648.957C230.527 648.963 230.967 648.682 231.16 648.301H232.625C232.355 649.402 231.336 650.129 229.859 650.129ZM228.248 646.215H231.254C231.248 645.348 230.662 644.715 229.801 644.715C228.904 644.715 228.301 645.406 228.248 646.215ZM237.453 645.453C237.359 644.973 236.961 644.662 236.328 644.668C235.689 644.662 235.221 644.984 235.227 645.418C235.221 645.746 235.484 645.992 236.129 646.145L237.207 646.367C238.408 646.631 238.994 647.188 239 648.102C238.994 649.297 237.945 650.129 236.281 650.129C234.664 650.129 233.709 649.402 233.551 648.184H235.074C235.162 648.729 235.584 648.998 236.281 648.992C237.002 648.998 237.471 648.705 237.477 648.23C237.471 647.861 237.184 647.627 236.551 647.492L235.531 647.27C234.348 647.029 233.732 646.408 233.738 645.5C233.732 644.322 234.752 643.555 236.305 643.555C237.822 643.555 238.76 644.299 238.871 645.453H237.453ZM240.137 650V643.637H241.637V650H240.137ZM240.031 641.914C240.031 641.469 240.424 641.105 240.898 641.105C241.373 641.105 241.766 641.469 241.766 641.914C241.766 642.365 241.373 642.729 240.898 642.734C240.424 642.729 240.031 642.365 240.031 641.914ZM245.844 652.52C244.156 652.52 243.084 651.77 242.984 650.574H244.473C244.578 651.131 245.1 651.389 245.867 651.395C246.764 651.389 247.344 651.002 247.344 650.07V648.852H247.273C247.039 649.32 246.529 649.906 245.434 649.906C243.963 649.906 242.809 648.84 242.809 646.766C242.809 644.674 243.969 643.555 245.445 643.555C246.564 643.555 247.039 644.229 247.273 644.68H247.344V643.637H248.82V650.105C248.82 651.734 247.561 652.52 245.844 652.52ZM244.332 646.789C244.332 647.961 244.859 648.734 245.844 648.734C246.811 648.734 247.355 648.008 247.355 646.789C247.355 645.576 246.816 644.779 245.844 644.773C244.848 644.779 244.332 645.629 244.332 646.789ZM251.75 646.273V650H250.25V643.637H251.68V644.715H251.762C252.049 644.006 252.699 643.555 253.648 643.555C254.967 643.555 255.834 644.422 255.828 645.945V650H254.34V646.18C254.34 645.324 253.877 644.814 253.098 644.82C252.307 644.814 251.75 645.348 251.75 646.273ZM264.793 643.848C264.717 643.115 264.102 642.693 263.188 642.699C262.221 642.693 261.646 643.162 261.641 643.801C261.635 644.516 262.391 644.809 263.094 644.973L263.891 645.184C265.156 645.477 266.375 646.145 266.375 647.621C266.375 649.109 265.197 650.129 263.164 650.129C261.189 650.129 259.936 649.18 259.871 647.504H261.371C261.441 648.389 262.186 648.822 263.152 648.828C264.154 648.822 264.846 648.336 264.852 647.609C264.846 646.941 264.236 646.66 263.316 646.426L262.355 646.18C260.961 645.816 260.094 645.113 260.094 643.895C260.094 642.395 261.424 641.398 263.211 641.398C265.01 641.398 266.234 642.412 266.258 643.848H264.793ZM267.57 650V643.637H269V644.715H269.082C269.346 643.988 269.984 643.555 270.828 643.555C271.689 643.555 272.311 643.994 272.551 644.715H272.621C272.896 644.012 273.605 643.555 274.531 643.555C275.697 643.555 276.518 644.305 276.512 645.723V650H275.023V645.957C275.023 645.166 274.543 644.809 273.934 644.809C273.201 644.809 272.773 645.307 272.773 646.027V650H271.32V645.898C271.314 645.236 270.881 644.809 270.242 644.809C269.598 644.809 269.07 645.342 269.07 646.133V650H267.57ZM277.648 648.207C277.648 646.777 278.838 646.361 280.016 646.285C280.461 646.25 281.369 646.209 281.65 646.197L281.645 645.688C281.645 645.055 281.24 644.691 280.496 644.691C279.828 644.691 279.418 644.996 279.301 645.453H277.859C277.965 644.369 278.938 643.555 280.531 643.555C281.738 643.555 283.133 644.053 283.133 645.746V650H281.703V649.121H281.656C281.375 649.66 280.783 650.129 279.781 650.129C278.568 650.129 277.648 649.467 277.648 648.207ZM279.09 648.195C279.09 648.746 279.541 649.027 280.168 649.027C281.076 649.027 281.656 648.43 281.656 647.715L281.65 647.193C281.381 647.205 280.549 647.258 280.25 647.281C279.541 647.34 279.09 647.639 279.09 648.195ZM284.539 650V643.637H285.992V644.691H286.062C286.291 643.959 286.9 643.543 287.633 643.543C287.797 643.543 288.031 643.561 288.172 643.578V644.961C288.037 644.914 287.727 644.873 287.48 644.867C286.648 644.873 286.039 645.447 286.039 646.25V650H284.539ZM292.59 643.637V644.785H291.336V648.09C291.336 648.699 291.641 648.822 292.016 648.828C292.191 648.834 292.484 648.816 292.672 648.805V650.023C292.496 650.053 292.209 650.088 291.828 650.082C290.703 650.088 289.836 649.531 289.848 648.336V644.785H288.934V643.637H289.848V642.113H291.336V643.637H292.59ZM184.074 666.766C184.074 664.562 184.73 662.723 185.832 661.152H187.238C186.43 662.318 185.621 664.668 185.621 666.766C185.621 668.863 186.43 671.219 187.238 672.391H185.832C184.73 670.809 184.074 668.975 184.074 666.766ZM193.32 661.281V662.312H189.664V663.496H193.109V664.527H189.664V665.764C191.516 665.752 192.635 665.699 193.93 665.477L194.07 666.496C192.635 666.766 191.369 666.812 189.207 666.812H188.363V661.281H193.32ZM189.5 670.832V667.574H190.801V669.777H196.707V670.832H189.5ZM194.984 668.289V660.449H196.285V663.637H197.762V664.715H196.285V668.289H194.984ZM207.98 668.676V669.73H198.301V668.676H202.449V666.227H203.738V668.676H207.98ZM198.582 665.406C200.797 665.049 202.385 663.461 202.391 661.867V661.094H203.773V661.867C203.773 663.467 205.373 665.049 207.605 665.406L207.043 666.484C205.256 666.145 203.785 665.119 203.082 663.73C202.385 665.113 200.932 666.15 199.145 666.484L198.582 665.406ZM217.555 660.449V671.055H216.254V665.266H214.215V664.199H216.254V660.449H217.555ZM208.531 668.008C210.225 667.205 211.227 665.201 211.238 663.262V662.559H208.965V661.492H214.836V662.559H212.562V663.262C212.562 665.096 213.553 667.029 215.258 667.773L214.484 668.816C213.254 668.23 212.375 667.053 211.912 665.652C211.449 667.146 210.547 668.406 209.316 669.027L208.531 668.008ZM227.398 660.449V662.863H228.875V663.93H227.398V666.402H226.098V660.449H227.398ZM218.961 665.559C221.416 664.932 222.811 663.678 223.039 662.148H219.465V661.094H224.457C224.451 663.848 222.646 665.752 219.477 666.602L218.961 665.559ZM220.543 670.902V666.824H227.398V670.902H220.543ZM221.844 669.871H226.109V667.891H221.844V669.871ZM237.91 661.105V665.512H232.801V661.105H237.91ZM233.434 670.012C235.467 669.836 236.768 668.934 236.885 668.09H233.867V667.105H236.914V666.18H238.227V667.105H241.285V668.09H238.262C238.379 668.91 239.656 669.807 241.684 670.012L241.238 671.008C239.521 670.826 238.221 670.152 237.576 669.273C236.926 670.164 235.607 670.82 233.879 671.008L233.434 670.012ZM234.09 664.492H236.621V662.137H234.09V664.492ZM239.773 666.484V660.449H241.062V666.484H239.773ZM249.266 662.992C249.254 664.885 250.203 666.795 251.844 667.586L251.047 668.629C249.898 668.049 249.072 666.93 248.621 665.582C248.158 667.023 247.291 668.219 246.078 668.828L245.281 667.785C246.986 666.977 247.959 664.949 247.965 662.992V661.305H249.266V662.992ZM252.477 671.043V660.449H253.777V664.598H255.406V665.711H253.777V671.043H252.477ZM264.676 660.449V671.043H263.375V660.449H264.676ZM255.898 668.102C256.742 668.096 257.697 668.096 258.699 668.066V667.094C257.51 666.906 256.73 666.18 256.73 665.172C256.73 663.977 257.791 663.186 259.332 663.18C260.891 663.186 261.969 663.977 261.969 665.172C261.969 666.174 261.189 666.895 260 667.088V668.02C260.932 667.979 261.869 667.902 262.754 667.785L262.848 668.758C260.521 669.15 257.99 669.18 256.086 669.18L255.898 668.102ZM256.121 662.699V661.668H258.699V660.484H260V661.668H262.566V662.699H256.121ZM257.973 665.172C257.961 665.781 258.529 666.139 259.332 666.133C260.158 666.139 260.721 665.781 260.715 665.172C260.721 664.557 260.158 664.182 259.332 664.176C258.529 664.182 257.961 664.557 257.973 665.172ZM270.113 662.266C270.113 663.561 270.969 664.855 272.609 665.406L271.953 666.414C270.77 666.027 269.932 665.225 269.469 664.229C269.006 665.336 268.127 666.227 266.867 666.648L266.199 665.617C267.887 665.061 268.789 663.654 268.789 662.277V662.137H266.586V661.094H272.305V662.137H270.113V662.266ZM267.875 668.312V667.27H275.094V671.043H273.793V668.312H267.875ZM271.988 664.141V663.074H273.793V660.449H275.094V666.766H273.793V664.141H271.988ZM289.238 661.926V662.98H287.797V664.199H289.238V665.289H287.797V666.707H286.496V660.449H287.797V661.926H289.238ZM279.559 663.602C279.553 662.113 280.783 661.047 282.418 661.059C284.047 661.047 285.266 662.113 285.277 663.602C285.266 665.113 284.047 666.162 282.418 666.168C280.783 666.162 279.553 665.113 279.559 663.602ZM280.742 668.219V667.164H287.797V671.043H286.496V668.219H280.742ZM280.836 663.602C280.83 664.504 281.504 665.061 282.418 665.055C283.32 665.061 283.994 664.504 284 663.602C283.994 662.717 283.32 662.166 282.418 662.16C281.504 662.166 280.83 662.717 280.836 663.602ZM293.609 663.461C293.604 665.096 294.588 666.959 296.258 667.738L295.531 668.77C294.336 668.207 293.451 667.07 292.977 665.746C292.496 667.199 291.57 668.441 290.352 669.027L289.59 668.008C291.277 667.205 292.303 665.225 292.309 663.461V662.57H290V661.492H295.824V662.57H293.609V663.461ZM296.809 671.043V660.449H298.109V664.574H299.738V665.664H298.109V671.043H296.809ZM311.68 661.422V662.441C311.668 663.76 311.668 665.23 311.258 667.445L309.945 667.305C310.361 665.242 310.361 663.736 310.367 662.465H304.039V661.422H311.68ZM303.031 669.672V668.605H306.594V664.926H307.883V668.605H312.688V669.672H303.031ZM322.273 660.449V671.055H320.973V666.707H319.039V665.641H320.973V663.824H319.074V662.758H320.973V660.449H322.273ZM313.754 662.406V661.363H318.477V665.324H315.078V667.574C316.479 667.568 317.691 667.504 319.121 667.293L319.227 668.359C317.604 668.617 316.256 668.652 314.609 668.652H313.789V664.305H317.199V662.406H313.754ZM326.926 666.766C326.926 668.975 326.27 670.809 325.168 672.391H323.762C324.57 671.219 325.379 668.863 325.379 666.766C325.379 664.668 324.57 662.318 323.762 661.152H325.168C326.27 662.723 326.926 664.562 326.926 666.766Z" fill="#1B4B66"/>
<rect y="712" width="339" height="42" rx="6" fill="#1B4B66"/>
<path d="M131.466 734.662C131.466 737.196 129.492 737.728 127.966 737.728H123.752V726.864H127.686C129.198 726.864 130.822 727.536 130.836 729.692C130.85 730.952 130.108 731.806 128.848 732.044V732.072C130.388 732.254 131.466 733.332 131.466 734.662ZM128.932 729.902C128.932 728.768 128.148 728.432 127.238 728.432H125.74V731.302H127.056C127.966 731.302 128.932 730.994 128.932 729.902ZM129.478 734.48C129.478 733.052 128.274 732.814 127.182 732.814H125.74V736.16H127.546C128.61 736.16 129.478 735.74 129.478 734.48ZM137.17 729.356V731.162H137.002C135.392 731.162 134.678 732.394 134.678 733.948V737.476L132.788 737.77V729.692L134.468 729.398V731.05C134.72 730.098 135.77 729.356 137.002 729.356H137.17ZM141.329 737.91C139.579 737.952 138.039 736.86 138.039 734.914V732.464C138.039 730.518 139.537 729.426 141.315 729.468C142.449 729.496 143.135 729.93 143.723 730.672V729.65L145.599 729.37V737.742L143.779 738.022V736.762C143.219 737.546 142.295 737.882 141.329 737.91ZM143.709 732.674C143.695 731.778 142.939 730.98 141.749 730.938C140.839 730.91 140.013 731.512 140.013 732.534V734.858C140.013 735.88 140.783 736.454 141.679 736.426C143.135 736.384 143.751 735.376 143.737 734.242L143.709 732.674ZM154.639 732.464V737.476L152.749 737.756V733.192C152.749 732.072 152.665 730.826 151.265 730.826C149.641 730.812 149.221 732.366 149.221 733.542V737.476L147.331 737.756V729.678L149.137 729.398V730.63C149.795 729.72 150.803 729.342 151.895 729.342C153.813 729.342 154.639 730.644 154.639 732.464ZM159.335 737.91C157.585 737.952 156.017 736.86 156.017 734.914V732.464C156.017 730.518 157.543 729.426 159.321 729.468C160.455 729.496 161.127 729.93 161.701 730.672V726.71L163.577 726.43V737.742L161.757 738.022V736.762C161.211 737.546 160.301 737.882 159.335 737.91ZM161.687 732.646C161.673 731.75 160.917 730.938 159.657 730.924C158.719 730.91 157.991 731.512 157.991 732.534V734.858C157.991 735.88 158.649 736.468 159.601 736.44C161.071 736.398 161.729 735.404 161.715 734.242L161.687 732.646ZM171.988 731.428H173.906C175.446 731.428 176.538 732.66 176.538 734.396C176.538 736.678 174.97 737.728 172.66 737.728H169.062V736.118H172.492C173.738 736.118 174.55 735.67 174.55 734.494C174.55 733.598 174.088 733.024 173.388 733.024H171.666C170.042 733.024 168.866 731.792 168.866 730.112C168.866 727.886 170.126 726.864 172.45 726.864H175.824L175.53 728.46H172.618C171.512 728.46 170.84 728.894 170.84 730.014C170.84 730.91 171.246 731.428 171.988 731.428ZM179.934 726.43V737.602L178.058 737.882V726.71L179.934 726.43ZM189.004 732.422V734.872C189.004 736.636 187.646 737.868 185.406 737.868C183.166 737.868 181.822 736.636 181.822 734.872V732.422C181.822 730.644 183.166 729.356 185.406 729.356C187.646 729.356 189.004 730.644 189.004 732.422ZM187.142 734.704V732.576C187.142 731.54 186.526 730.812 185.406 730.812C184.286 730.812 183.684 731.54 183.684 732.576V734.704C183.684 735.698 184.286 736.412 185.406 736.412C186.526 736.412 187.142 735.698 187.142 734.704ZM193.683 737.378C191.933 737.42 190.365 736.328 190.365 734.382V732.352C190.365 730.406 191.891 729.314 193.669 729.356C194.551 729.37 195.335 729.734 195.839 730.63V729.692L197.631 729.398V736.762C197.631 738.876 196.735 740.346 193.613 740.346H190.939V738.876H193.431C195.195 738.876 195.699 738.05 195.727 736.86L195.741 736.16C195.321 736.86 194.593 737.35 193.683 737.378ZM193.921 735.908C194.859 735.88 195.699 735.292 195.713 734.382L195.741 732.506C195.755 731.526 194.943 730.84 193.977 730.812C193.095 730.784 192.339 731.4 192.339 732.422V734.326C192.339 735.348 193.025 735.936 193.921 735.908ZM202.114 737.91C200.364 737.952 198.824 736.86 198.824 734.914V732.464C198.824 730.518 200.322 729.426 202.1 729.468C203.234 729.496 203.92 729.93 204.508 730.672V729.65L206.384 729.37V737.742L204.564 738.022V736.762C204.004 737.546 203.08 737.882 202.114 737.91ZM204.494 732.674C204.48 731.778 203.724 730.98 202.534 730.938C201.624 730.91 200.798 731.512 200.798 732.534V734.858C200.798 735.88 201.568 736.454 202.464 736.426C203.92 736.384 204.536 735.376 204.522 734.242L204.494 732.674ZM215.424 732.464V737.476L213.534 737.756V733.192C213.534 732.072 213.45 730.826 212.05 730.826C210.426 730.812 210.006 732.366 210.006 733.542V737.476L208.116 737.756V729.678L209.922 729.398V730.63C210.58 729.72 211.588 729.342 212.68 729.342C214.598 729.342 215.424 730.644 215.424 732.464Z" fill="white"/>
<rect y="759" width="339" height="52" rx="6" fill="#F4F8FF"/>
<path d="M74.8535 789V780.516H78.041C79.9863 780.516 81.0234 781.605 81.0293 783.223C81.0234 784.377 80.4961 785.232 79.5 785.637L81.334 789H79.6348L77.9707 785.895H76.377V789H74.8535ZM76.377 784.617H77.8066C78.9551 784.623 79.4707 784.131 79.4707 783.223C79.4707 782.32 78.9551 781.793 77.8066 781.793H76.377V784.617ZM85.002 789.129C83.0859 789.129 81.9082 787.852 81.9082 785.859C81.9082 783.891 83.1035 782.555 84.9199 782.555C86.4785 782.555 87.8262 783.533 87.8262 785.766V786.234H83.3848C83.4082 787.318 84.0469 787.963 85.0137 787.957C85.6699 787.963 86.1094 787.682 86.3027 787.301H87.7676C87.498 788.402 86.4785 789.129 85.002 789.129ZM83.3906 785.215H86.3965C86.3906 784.348 85.8047 783.715 84.9434 783.715C84.0469 783.715 83.4434 784.406 83.3906 785.215ZM88.9863 791.391V782.637H90.4512V783.68H90.5449C90.7734 783.229 91.2422 782.555 92.373 782.555C93.8379 782.555 94.9922 783.703 94.998 785.824C94.9922 787.916 93.873 789.111 92.373 789.117C91.2773 789.111 90.7793 788.461 90.5449 787.992H90.4863V791.391H88.9863ZM90.4512 785.812C90.457 787.055 90.9961 787.887 91.9629 787.887C92.9531 787.887 93.4746 787.014 93.4746 785.812C93.4746 784.629 92.9648 783.779 91.9629 783.773C90.9844 783.779 90.457 784.576 90.4512 785.812ZM97.6699 780.516V789H96.1699V780.516H97.6699ZM100.002 791.391C99.7031 791.385 99.4219 791.379 99.2285 791.355V790.16C99.4102 790.178 99.6621 790.178 99.8613 790.184C100.225 790.178 100.529 790.154 100.787 789.469L100.916 789.129L98.5957 782.637H100.178L101.654 787.441H101.725L103.201 782.637H104.783L102.229 789.773C101.865 790.787 101.197 791.385 100.002 791.391ZM111.744 782.637V783.785H110.49V787.09C110.49 787.699 110.795 787.822 111.17 787.828C111.346 787.834 111.639 787.816 111.826 787.805V789.023C111.65 789.053 111.363 789.088 110.982 789.082C109.857 789.088 108.99 788.531 109.002 787.336V783.785H108.088V782.637H109.002V781.113H110.49V782.637H111.744ZM115.6 789.129C113.742 789.129 112.553 787.811 112.553 785.848C112.553 783.867 113.742 782.555 115.6 782.555C117.463 782.555 118.652 783.867 118.646 785.848C118.652 787.811 117.463 789.129 115.6 789.129ZM114.064 785.836C114.064 787.002 114.574 787.934 115.611 787.934C116.631 787.934 117.141 787.002 117.135 785.836C117.141 784.67 116.631 783.732 115.611 783.738C114.574 783.732 114.064 784.67 114.064 785.836ZM122.725 789V780.516H128.244V781.793H124.248V784.113H127.951V785.391H124.248V787.711H128.268V789H122.725ZM135.322 782.637L133.049 789H131.408L129.135 782.637H130.729L132.193 787.371H132.264L133.74 782.637H135.322ZM138.861 789.129C136.945 789.129 135.768 787.852 135.768 785.859C135.768 783.891 136.963 782.555 138.779 782.555C140.338 782.555 141.686 783.533 141.686 785.766V786.234H137.244C137.268 787.318 137.906 787.963 138.873 787.957C139.529 787.963 139.969 787.682 140.162 787.301H141.627C141.357 788.402 140.338 789.129 138.861 789.129ZM137.25 785.215H140.256C140.25 784.348 139.664 783.715 138.803 783.715C137.906 783.715 137.303 784.406 137.25 785.215ZM142.846 789V782.637H144.299V783.691H144.369C144.598 782.959 145.207 782.543 145.939 782.543C146.104 782.543 146.338 782.561 146.479 782.578V783.961C146.344 783.914 146.033 783.873 145.787 783.867C144.955 783.873 144.346 784.447 144.346 785.25V789H142.846ZM148.471 791.391C148.172 791.385 147.891 791.379 147.697 791.355V790.16C147.879 790.178 148.131 790.178 148.33 790.184C148.693 790.178 148.998 790.154 149.256 789.469L149.385 789.129L147.064 782.637H148.646L150.123 787.441H150.193L151.67 782.637H153.252L150.697 789.773C150.334 790.787 149.666 791.385 148.471 791.391ZM162.791 783.223C162.516 782.32 161.818 781.77 160.787 781.77C159.422 781.77 158.426 782.836 158.432 784.746C158.426 786.674 159.404 787.746 160.822 787.746C162.105 787.746 162.92 786.973 162.943 785.766H160.975V784.559H164.42V785.578C164.42 787.764 162.92 789.117 160.822 789.117C158.479 789.117 156.891 787.447 156.896 784.758C156.891 782.033 158.555 780.398 160.775 780.398C162.645 780.398 164.092 781.559 164.35 783.223H162.791ZM168.557 789.129C166.641 789.129 165.463 787.852 165.463 785.859C165.463 783.891 166.658 782.555 168.475 782.555C170.033 782.555 171.381 783.533 171.381 785.766V786.234H166.939C166.963 787.318 167.602 787.963 168.568 787.957C169.225 787.963 169.664 787.682 169.857 787.301H171.322C171.053 788.402 170.033 789.129 168.557 789.129ZM166.945 785.215H169.951C169.945 784.348 169.359 783.715 168.498 783.715C167.602 783.715 166.998 784.406 166.945 785.215ZM174.041 785.273V789H172.541V782.637H173.971V783.715H174.053C174.34 783.006 174.99 782.555 175.939 782.555C177.258 782.555 178.125 783.422 178.119 784.945V789H176.631V785.18C176.631 784.324 176.168 783.814 175.389 783.82C174.598 783.814 174.041 784.348 174.041 785.273ZM182.373 789.129C180.457 789.129 179.279 787.852 179.279 785.859C179.279 783.891 180.475 782.555 182.291 782.555C183.85 782.555 185.197 783.533 185.197 785.766V786.234H180.756C180.779 787.318 181.418 787.963 182.385 787.957C183.041 787.963 183.48 787.682 183.674 787.301H185.139C184.869 788.402 183.85 789.129 182.373 789.129ZM180.762 785.215H183.768C183.762 784.348 183.176 783.715 182.314 783.715C181.418 783.715 180.814 784.406 180.762 785.215ZM186.357 789V782.637H187.811V783.691H187.881C188.109 782.959 188.719 782.543 189.451 782.543C189.615 782.543 189.85 782.561 189.99 782.578V783.961C189.855 783.914 189.545 783.873 189.299 783.867C188.467 783.873 187.857 784.447 187.857 785.25V789H186.357ZM190.471 787.207C190.471 785.777 191.66 785.361 192.838 785.285C193.283 785.25 194.191 785.209 194.473 785.197L194.467 784.688C194.467 784.055 194.062 783.691 193.318 783.691C192.65 783.691 192.24 783.996 192.123 784.453H190.682C190.787 783.369 191.76 782.555 193.354 782.555C194.561 782.555 195.955 783.053 195.955 784.746V789H194.525V788.121H194.479C194.197 788.66 193.605 789.129 192.604 789.129C191.391 789.129 190.471 788.467 190.471 787.207ZM191.912 787.195C191.912 787.746 192.363 788.027 192.99 788.027C193.898 788.027 194.479 787.43 194.479 786.715L194.473 786.193C194.203 786.205 193.371 786.258 193.072 786.281C192.363 786.34 191.912 786.639 191.912 787.195ZM200.537 782.637V783.785H199.283V787.09C199.283 787.699 199.588 787.822 199.963 787.828C200.139 787.834 200.432 787.816 200.619 787.805V789.023C200.443 789.053 200.156 789.088 199.775 789.082C198.65 789.088 197.783 788.531 197.795 787.336V783.785H196.881V782.637H197.795V781.113H199.283V782.637H200.537ZM201.686 789V782.637H203.186V789H201.686ZM201.58 780.914C201.58 780.469 201.973 780.105 202.447 780.105C202.922 780.105 203.314 780.469 203.314 780.914C203.314 781.365 202.922 781.729 202.447 781.734C201.973 781.729 201.58 781.365 201.58 780.914ZM207.393 789.129C205.535 789.129 204.346 787.811 204.346 785.848C204.346 783.867 205.535 782.555 207.393 782.555C209.256 782.555 210.445 783.867 210.439 785.848C210.445 787.811 209.256 789.129 207.393 789.129ZM205.857 785.836C205.857 787.002 206.367 787.934 207.404 787.934C208.424 787.934 208.934 787.002 208.928 785.836C208.934 784.67 208.424 783.732 207.404 783.738C206.367 783.732 205.857 784.67 205.857 785.836ZM213.1 785.273V789H211.6V782.637H213.029V783.715H213.111C213.398 783.006 214.049 782.555 214.998 782.555C216.316 782.555 217.184 783.422 217.178 784.945V789H215.689V785.18C215.689 784.324 215.227 783.814 214.447 783.82C213.656 783.814 213.1 784.348 213.1 785.273ZM220.436 780.527L219.451 783.809H218.338L218.947 780.527H220.436ZM224.373 784.453C224.279 783.973 223.881 783.662 223.248 783.668C222.609 783.662 222.141 783.984 222.146 784.418C222.141 784.746 222.404 784.992 223.049 785.145L224.127 785.367C225.328 785.631 225.914 786.188 225.92 787.102C225.914 788.297 224.865 789.129 223.201 789.129C221.584 789.129 220.629 788.402 220.471 787.184H221.994C222.082 787.729 222.504 787.998 223.201 787.992C223.922 787.998 224.391 787.705 224.396 787.23C224.391 786.861 224.104 786.627 223.471 786.492L222.451 786.27C221.268 786.029 220.652 785.408 220.658 784.5C220.652 783.322 221.672 782.555 223.225 782.555C224.742 782.555 225.68 783.299 225.791 784.453H224.373ZM229.975 789V780.516H235.412V781.793H231.498V784.113H235.037V785.391H231.498V789H229.975ZM240.299 786.328V782.637H241.787V789H240.346V787.875H240.275C239.982 788.584 239.314 789.082 238.365 789.082C237.105 789.082 236.238 788.215 236.232 786.691V782.637H237.732V786.457C237.732 787.266 238.213 787.781 238.939 787.781C239.596 787.781 240.299 787.301 240.299 786.328ZM246.393 782.637V783.785H245.139V787.09C245.139 787.699 245.443 787.822 245.818 787.828C245.994 787.834 246.287 787.816 246.475 787.805V789.023C246.299 789.053 246.012 789.088 245.631 789.082C244.506 789.088 243.639 788.531 243.65 787.336V783.785H242.736V782.637H243.65V781.113H245.139V782.637H246.393ZM251.607 786.328V782.637H253.096V789H251.654V787.875H251.584C251.291 788.584 250.623 789.082 249.674 789.082C248.414 789.082 247.547 788.215 247.541 786.691V782.637H249.041V786.457C249.041 787.266 249.521 787.781 250.248 787.781C250.904 787.781 251.607 787.301 251.607 786.328ZM254.525 789V782.637H255.979V783.691H256.049C256.277 782.959 256.887 782.543 257.619 782.543C257.783 782.543 258.018 782.561 258.158 782.578V783.961C258.023 783.914 257.713 783.873 257.467 783.867C256.635 783.873 256.025 784.447 256.025 785.25V789H254.525ZM261.662 789.129C259.746 789.129 258.568 787.852 258.568 785.859C258.568 783.891 259.764 782.555 261.58 782.555C263.139 782.555 264.486 783.533 264.486 785.766V786.234H260.045C260.068 787.318 260.707 787.963 261.674 787.957C262.33 787.963 262.77 787.682 262.963 787.301H264.428C264.158 788.402 263.139 789.129 261.662 789.129ZM260.051 785.215H263.057C263.051 784.348 262.465 783.715 261.604 783.715C260.707 783.715 260.104 784.406 260.051 785.215Z" fill="#1B4B66"/>
</svg>
