<svg width="101" height="100" viewBox="0 0 101 100" fill="none" xmlns="http://www.w3.org/2000/svg">
<g style="mix-blend-mode:darken">
<g clip-path="url(#clip0_3769_8340)">
<rect x="0.5" width="100" height="100" rx="8" fill="#F9F9F9"/>
<path d="M22.6482 14.3413H21.4882C17.2806 14.3413 15.1768 14.3413 13.8696 15.6485C12.5625 16.9556 12.5625 19.0594 12.5625 23.267V28.2294C12.5625 30.5434 12.5625 31.7004 13.1569 32.7337C13.7512 33.7669 14.6479 34.2884 16.4412 35.3314C28.2474 42.198 45.0142 46.0634 56.2048 39.3889C56.9566 38.9404 57.6328 38.3991 58.2107 37.75C60.7014 34.9524 60.5198 30.7301 57.6493 28.2247C57.0432 27.6956 56.3971 27.2944 55.7464 27.1549C56.2811 27.2169 56.7936 27.288 57.2826 27.366C61.35 28.0147 64.7643 30.1882 67.8901 32.5494L75.9552 38.642C78.7985 40.7898 83.0185 40.7902 85.8623 38.6429C88.4225 36.7099 89.2053 33.5269 87.5867 30.9325C85.6992 27.907 83.0399 24.0364 80.4864 21.6714C77.9292 19.303 74.1222 17.1885 71.0143 15.6884C67.5715 14.0267 63.7681 13.0692 59.8995 12.443C52.0534 11.1729 43.8762 11.3668 36.1098 12.9668C31.7193 13.8713 27.1595 14.3413 22.6482 14.3413Z" fill="#CC7DFA"/>
<circle cx="19.809" cy="19.809" r="19.809" transform="matrix(1 0 0 -1 44.2109 89.8984)" fill="#6D0CA6"/>
<path fill-rule="evenodd" clip-rule="evenodd" d="M65.3236 60.7708C65.3236 60.0517 64.7407 59.4688 64.0216 59.4688C63.3024 59.4688 62.7195 60.0517 62.7195 60.7708V61.1486C60.1884 61.6477 58.0625 63.5717 58.0625 66.204C58.0625 68.8363 60.1884 70.7603 62.7195 71.2594V76.3465C61.4201 75.9248 60.6667 74.8993 60.6667 73.9656C60.6667 73.2465 60.0837 72.6635 59.3646 72.6635C58.6455 72.6635 58.0625 73.2465 58.0625 73.9656C58.0625 76.5979 60.1884 78.5219 62.7195 79.021V79.3988C62.7195 80.1179 63.3024 80.7008 64.0216 80.7008C64.7407 80.7008 65.3236 80.1179 65.3236 79.3988V79.021C67.8548 78.5219 69.9806 76.5979 69.9806 73.9656C69.9806 71.3333 67.8548 69.4093 65.3236 68.9102V63.8231C66.623 64.2448 67.3765 65.2703 67.3765 66.204C67.3765 66.9231 67.9594 67.5061 68.6785 67.5061C69.3977 67.5061 69.9806 66.9231 69.9806 66.204C69.9806 63.5717 67.8548 61.6477 65.3236 61.1486V60.7708ZM62.7195 63.8231C61.4201 64.2448 60.6667 65.2703 60.6667 66.204C60.6667 67.1376 61.4201 68.1631 62.7195 68.5849V63.8231ZM65.3236 71.5847V76.3465C66.623 75.9248 67.3765 74.8993 67.3765 73.9656C67.3765 73.032 66.623 72.0065 65.3236 71.5847Z" fill="white"/>
</g>
</g>
<defs>
<clipPath id="clip0_3769_8340">
<rect x="0.5" width="100" height="100" rx="8" fill="white"/>
</clipPath>
</defs>
</svg>
