<svg width="730" height="245" viewBox="0 0 730 245" fill="none" xmlns="http://www.w3.org/2000/svg">
<path d="M0 233.1C0 239.285 5.01441 244.3 11.2 244.3H718.8C724.986 244.3 730 239.285 730 233.1V11.4998C730 5.31422 724.986 0.299805 718.8 0.299805H11.2C5.01442 0.299805 0 5.31421 0 11.4998V233.1Z" fill="white"/>
<mask id="path-2-inside-1_6120_45253" fill="white">
<path d="M142.1 12.3992C142.1 6.21363 147.114 1.19922 153.3 1.19922H686.7C692.885 1.19922 697.9 6.21363 697.9 12.3992V183.199H142.1V12.3992Z"/>
</mask>
<path d="M142.1 12.3992C142.1 6.21363 147.114 1.19922 153.3 1.19922H686.7C692.885 1.19922 697.9 6.21363 697.9 12.3992V183.199H142.1V12.3992Z" fill="url(#paint0_linear_6120_45253)"/>
<path d="M142.1 1.19922H697.9H142.1ZM697.9 183.899H142.1V182.499H697.9V183.899ZM142.1 183.199V1.19922V183.199ZM697.9 1.19922V183.199V1.19922Z" fill="#71717A" mask="url(#path-2-inside-1_6120_45253)"/>
<rect x="213.5" y="167.799" width="32.2" height="15.4" rx="2.8" fill="url(#paint1_linear_6120_45253)"/>
<rect x="213.5" y="178.999" width="32.2" height="4.2" fill="#27272A"/>
<path d="M202.716 202.891C202.872 202.735 203.07 202.552 203.309 202.343C203.548 202.134 203.731 201.969 203.858 201.85C204.463 201.312 204.944 200.868 205.303 200.517C205.661 200.159 205.964 199.793 206.21 199.419C206.456 199.046 206.58 198.691 206.58 198.355C206.58 197.892 206.445 197.515 206.176 197.224C205.915 196.933 205.579 196.787 205.168 196.787C204.847 196.787 204.541 196.892 204.25 197.101C203.966 197.31 203.75 197.579 203.6 197.907L202.559 197.448C202.783 196.933 203.137 196.515 203.623 196.194C204.116 195.865 204.631 195.701 205.168 195.701C205.676 195.701 206.124 195.813 206.512 196.037C206.908 196.261 207.214 196.575 207.431 196.978C207.655 197.381 207.767 197.84 207.767 198.355C207.767 198.863 207.614 199.367 207.308 199.867C207.009 200.368 206.647 200.827 206.221 201.245C205.796 201.663 205.247 202.16 204.575 202.735L204.396 202.891H207.901V203.933H202.828L202.716 202.891ZM212.058 202.959C212.424 202.959 212.749 202.828 213.033 202.567C213.316 202.305 213.537 201.943 213.694 201.48C213.85 201.01 213.929 200.468 213.929 199.856C213.929 199.244 213.85 198.703 213.694 198.232C213.537 197.762 213.316 197.396 213.033 197.135C212.749 196.873 212.424 196.743 212.058 196.743C211.692 196.743 211.364 196.873 211.073 197.135C210.789 197.396 210.569 197.762 210.412 198.232C210.255 198.703 210.177 199.244 210.177 199.856C210.177 200.468 210.255 201.01 210.412 201.48C210.569 201.943 210.789 202.305 211.073 202.567C211.364 202.828 211.692 202.959 212.058 202.959ZM208.99 199.856C208.99 199.05 209.12 198.333 209.382 197.706C209.643 197.071 210.005 196.578 210.468 196.227C210.931 195.876 211.461 195.701 212.058 195.701C212.648 195.701 213.175 195.876 213.638 196.227C214.1 196.578 214.463 197.071 214.724 197.706C214.985 198.333 215.116 199.05 215.116 199.856C215.116 200.655 214.985 201.372 214.724 202.007C214.463 202.634 214.1 203.127 213.638 203.485C213.175 203.836 212.648 204.011 212.058 204.011C211.468 204.011 210.938 203.836 210.468 203.485C210.005 203.127 209.643 202.634 209.382 202.007C209.12 201.372 208.99 200.655 208.99 199.856ZM216.377 202.891C216.533 202.735 216.731 202.552 216.97 202.343C217.209 202.134 217.392 201.969 217.519 201.85C218.124 201.312 218.605 200.868 218.964 200.517C219.322 200.159 219.625 199.793 219.871 199.419C220.117 199.046 220.241 198.691 220.241 198.355C220.241 197.892 220.106 197.515 219.837 197.224C219.576 196.933 219.24 196.787 218.829 196.787C218.508 196.787 218.202 196.892 217.911 197.101C217.627 197.31 217.411 197.579 217.261 197.907L216.22 197.448C216.444 196.933 216.798 196.515 217.284 196.194C217.777 195.865 218.292 195.701 218.829 195.701C219.337 195.701 219.785 195.813 220.173 196.037C220.569 196.261 220.875 196.575 221.092 196.978C221.316 197.381 221.428 197.84 221.428 198.355C221.428 198.863 221.275 199.367 220.969 199.867C220.67 200.368 220.308 200.827 219.882 201.245C219.457 201.663 218.908 202.16 218.236 202.735L218.057 202.891H221.562V203.933H216.489L216.377 202.891ZM222.83 202.891C222.986 202.735 223.184 202.552 223.423 202.343C223.662 202.134 223.845 201.969 223.972 201.85C224.577 201.312 225.058 200.868 225.417 200.517C225.775 200.159 226.078 199.793 226.324 199.419C226.57 199.046 226.694 198.691 226.694 198.355C226.694 197.892 226.559 197.515 226.29 197.224C226.029 196.933 225.693 196.787 225.282 196.787C224.961 196.787 224.655 196.892 224.364 197.101C224.08 197.31 223.864 197.579 223.714 197.907L222.673 197.448C222.897 196.933 223.252 196.515 223.737 196.194C224.23 195.865 224.745 195.701 225.282 195.701C225.79 195.701 226.238 195.813 226.626 196.037C227.022 196.261 227.328 196.575 227.545 196.978C227.769 197.381 227.881 197.84 227.881 198.355C227.881 198.863 227.728 199.367 227.422 199.867C227.123 200.368 226.761 200.827 226.335 201.245C225.91 201.663 225.361 202.16 224.689 202.735L224.51 202.891H228.015V203.933H222.942L222.83 202.891ZM230.112 202.242C229.858 201.376 229.731 200.58 229.731 199.856C229.731 199.132 229.858 198.337 230.112 197.471C230.373 196.604 230.705 195.85 231.108 195.208H232.363C231.907 195.843 231.534 196.593 231.243 197.459C230.952 198.326 230.806 199.124 230.806 199.856C230.806 200.588 230.952 201.387 231.243 202.253C231.534 203.119 231.907 203.87 232.363 204.504H231.108C230.705 203.862 230.373 203.108 230.112 202.242ZM241.696 194.839V199.912H240.464V194.839H241.696ZM233.464 198.927C234.24 198.68 234.841 198.273 235.267 197.706C235.693 197.138 235.905 196.515 235.905 195.835V195.085H237.149V195.835C237.149 196.485 237.358 197.079 237.776 197.616C238.194 198.154 238.784 198.538 239.545 198.77L238.952 199.722C238.392 199.55 237.906 199.289 237.496 198.938C237.093 198.579 236.775 198.158 236.544 197.672C236.312 198.195 235.987 198.65 235.569 199.039C235.151 199.427 234.647 199.718 234.057 199.912L233.464 198.927ZM235.133 200.383H241.696V202.959H236.365V203.754H241.987V204.717H235.155V202.074H240.486V201.335H235.133V200.383ZM250.298 197.291V194.839H251.53V200.775H250.298V198.299H248.64V197.291H250.298ZM243.23 199.699C243.992 199.438 244.582 199.016 245 198.434C245.426 197.851 245.638 197.217 245.638 196.53V196.418H243.578V195.432H248.931V196.418H246.882V196.53C246.882 197.164 247.083 197.754 247.486 198.299C247.897 198.844 248.472 199.244 249.211 199.498L248.595 200.461C248.058 200.274 247.595 200.002 247.206 199.643C246.818 199.285 246.512 198.863 246.288 198.378C246.071 198.908 245.754 199.375 245.336 199.778C244.925 200.174 244.433 200.468 243.858 200.663L243.23 199.699ZM244.798 201.256H251.53V204.807H250.298V202.253H244.798V201.256ZM255.64 197.471C255.894 198.337 256.021 199.132 256.021 199.856C256.021 200.58 255.894 201.376 255.64 202.242C255.386 203.108 255.058 203.862 254.655 204.504H253.4C253.856 203.877 254.225 203.13 254.509 202.264C254.8 201.391 254.946 200.588 254.946 199.856C254.946 199.124 254.8 198.326 254.509 197.459C254.225 196.586 253.856 195.835 253.4 195.208H254.655C255.058 195.85 255.386 196.604 255.64 197.471Z" fill="#3F3F46"/>
<rect x="308.7" y="150.999" width="32.2" height="32.2" rx="2.8" fill="url(#paint2_linear_6120_45253)"/>
<rect x="308.7" y="177.599" width="32.2" height="5.6" fill="#27272A"/>
<path d="M312.091 202.891C312.248 202.734 312.445 202.551 312.684 202.342C312.923 202.133 313.106 201.969 313.233 201.849C313.838 201.312 314.32 200.867 314.678 200.517C315.036 200.158 315.339 199.792 315.585 199.419C315.832 199.046 315.955 198.691 315.955 198.355C315.955 197.892 315.82 197.515 315.552 197.224C315.29 196.933 314.954 196.787 314.544 196.787C314.223 196.787 313.916 196.891 313.625 197.101C313.341 197.31 313.125 197.578 312.976 197.907L311.934 197.448C312.158 196.933 312.513 196.514 312.998 196.193C313.491 195.865 314.006 195.701 314.544 195.701C315.051 195.701 315.499 195.813 315.888 196.037C316.283 196.261 316.589 196.574 316.806 196.977C317.03 197.381 317.142 197.84 317.142 198.355C317.142 198.863 316.989 199.367 316.683 199.867C316.384 200.367 316.022 200.826 315.596 201.245C315.171 201.663 314.622 202.159 313.95 202.734L313.771 202.891H317.276V203.933H312.203L312.091 202.891ZM321.434 202.958C321.799 202.958 322.124 202.827 322.408 202.566C322.692 202.305 322.912 201.943 323.069 201.48C323.226 201.009 323.304 200.468 323.304 199.856C323.304 199.243 323.226 198.702 323.069 198.232C322.912 197.761 322.692 197.395 322.408 197.134C322.124 196.873 321.799 196.742 321.434 196.742C321.068 196.742 320.739 196.873 320.448 197.134C320.164 197.395 319.944 197.761 319.787 198.232C319.63 198.702 319.552 199.243 319.552 199.856C319.552 200.468 319.63 201.009 319.787 201.48C319.944 201.943 320.164 202.305 320.448 202.566C320.739 202.827 321.068 202.958 321.434 202.958ZM318.365 199.856C318.365 199.049 318.495 198.333 318.757 197.705C319.018 197.071 319.38 196.578 319.843 196.227C320.306 195.876 320.836 195.701 321.434 195.701C322.023 195.701 322.55 195.876 323.013 196.227C323.476 196.578 323.838 197.071 324.099 197.705C324.36 198.333 324.491 199.049 324.491 199.856C324.491 200.655 324.36 201.371 324.099 202.006C323.838 202.633 323.476 203.126 323.013 203.485C322.55 203.835 322.023 204.011 321.434 204.011C320.844 204.011 320.314 203.835 319.843 203.485C319.38 203.126 319.018 202.633 318.757 202.006C318.495 201.371 318.365 200.655 318.365 199.856ZM325.752 202.891C325.909 202.734 326.106 202.551 326.345 202.342C326.584 202.133 326.767 201.969 326.894 201.849C327.499 201.312 327.981 200.867 328.339 200.517C328.697 200.158 329 199.792 329.246 199.419C329.493 199.046 329.616 198.691 329.616 198.355C329.616 197.892 329.481 197.515 329.213 197.224C328.951 196.933 328.615 196.787 328.205 196.787C327.883 196.787 327.577 196.891 327.286 197.101C327.002 197.31 326.786 197.578 326.637 197.907L325.595 197.448C325.819 196.933 326.174 196.514 326.659 196.193C327.152 195.865 327.667 195.701 328.205 195.701C328.712 195.701 329.16 195.813 329.549 196.037C329.944 196.261 330.25 196.574 330.467 196.977C330.691 197.381 330.803 197.84 330.803 198.355C330.803 198.863 330.65 199.367 330.344 199.867C330.045 200.367 329.683 200.826 329.257 201.245C328.832 201.663 328.283 202.159 327.611 202.734L327.432 202.891H330.937V203.933H325.864L325.752 202.891ZM332.362 200.136L332.642 195.779H336.998V196.821H333.784L333.65 198.814C334.045 198.635 334.43 198.545 334.803 198.545C335.356 198.545 335.849 198.661 336.282 198.893C336.722 199.124 337.062 199.449 337.301 199.867C337.547 200.278 337.67 200.748 337.67 201.278C337.67 201.816 337.547 202.294 337.301 202.712C337.062 203.13 336.722 203.458 336.282 203.697C335.849 203.929 335.356 204.045 334.803 204.045C334.37 204.045 333.96 203.955 333.571 203.776C333.19 203.589 332.866 203.335 332.597 203.014C332.328 202.686 332.145 202.316 332.048 201.905L333.202 201.637C333.284 202.01 333.474 202.32 333.773 202.566C334.072 202.805 334.415 202.925 334.803 202.925C335.296 202.925 335.699 202.771 336.013 202.465C336.326 202.159 336.483 201.763 336.483 201.278C336.483 200.808 336.326 200.423 336.013 200.125C335.699 199.818 335.296 199.665 334.803 199.665C334.594 199.665 334.374 199.725 334.142 199.845C333.911 199.957 333.713 200.102 333.549 200.281L332.362 200.136Z" fill="#3F3F46"/>
<rect x="403.9" y="125.799" width="32.2" height="57.4" rx="2.8" fill="url(#paint3_linear_6120_45253)"/>
<rect x="403.9" y="176.199" width="32.2" height="7" fill="#27272A"/>
<path d="M406.974 202.891C407.131 202.735 407.328 202.552 407.567 202.343C407.806 202.134 407.989 201.969 408.116 201.85C408.721 201.312 409.203 200.868 409.561 200.517C409.919 200.159 410.222 199.793 410.468 199.419C410.715 199.046 410.838 198.691 410.838 198.355C410.838 197.892 410.703 197.515 410.435 197.224C410.173 196.933 409.837 196.787 409.427 196.787C409.106 196.787 408.799 196.892 408.508 197.101C408.224 197.31 408.008 197.579 407.859 197.907L406.817 197.448C407.041 196.933 407.396 196.515 407.881 196.194C408.374 195.865 408.889 195.701 409.427 195.701C409.934 195.701 410.382 195.813 410.771 196.037C411.166 196.261 411.472 196.575 411.689 196.978C411.913 197.381 412.025 197.84 412.025 198.355C412.025 198.863 411.872 199.367 411.566 199.867C411.267 200.368 410.905 200.827 410.479 201.245C410.054 201.663 409.505 202.16 408.833 202.735L408.654 202.891H412.159V203.933H407.086L406.974 202.891ZM416.317 202.959C416.682 202.959 417.007 202.828 417.291 202.567C417.575 202.305 417.795 201.943 417.952 201.48C418.109 201.01 418.187 200.468 418.187 199.856C418.187 199.244 418.109 198.703 417.952 198.232C417.795 197.762 417.575 197.396 417.291 197.135C417.007 196.873 416.682 196.743 416.317 196.743C415.951 196.743 415.622 196.873 415.331 197.135C415.047 197.396 414.827 197.762 414.67 198.232C414.513 198.703 414.435 199.244 414.435 199.856C414.435 200.468 414.513 201.01 414.67 201.48C414.827 201.943 415.047 202.305 415.331 202.567C415.622 202.828 415.951 202.959 416.317 202.959ZM413.248 199.856C413.248 199.05 413.378 198.333 413.64 197.706C413.901 197.071 414.263 196.578 414.726 196.227C415.189 195.876 415.719 195.701 416.317 195.701C416.906 195.701 417.433 195.876 417.896 196.227C418.359 196.578 418.721 197.071 418.982 197.706C419.243 198.333 419.374 199.05 419.374 199.856C419.374 200.655 419.243 201.372 418.982 202.007C418.721 202.634 418.359 203.127 417.896 203.485C417.433 203.836 416.906 204.011 416.317 204.011C415.727 204.011 415.197 203.836 414.726 203.485C414.263 203.127 413.901 202.634 413.64 202.007C413.378 201.372 413.248 200.655 413.248 199.856ZM424.801 199.722C425.16 199.931 425.447 200.215 425.664 200.573C425.88 200.924 425.988 201.275 425.988 201.626C425.988 202.081 425.869 202.492 425.63 202.858C425.399 203.216 425.074 203.496 424.656 203.698C424.237 203.899 423.76 204 423.222 204C422.692 204 422.218 203.896 421.8 203.687C421.381 203.478 421.053 203.19 420.814 202.824C420.583 202.451 420.467 202.029 420.467 201.559H421.654C421.654 201.969 421.8 202.305 422.091 202.567C422.382 202.82 422.759 202.947 423.222 202.947C423.692 202.947 424.077 202.82 424.376 202.567C424.682 202.305 424.835 201.969 424.835 201.559C424.835 201.163 424.685 200.842 424.387 200.595C424.088 200.342 423.707 200.215 423.244 200.215H422.662V199.218H423.256C423.681 199.218 424.028 199.106 424.297 198.882C424.573 198.65 424.712 198.355 424.712 197.997C424.712 197.631 424.581 197.336 424.32 197.112C424.058 196.881 423.719 196.765 423.3 196.765C422.89 196.765 422.554 196.881 422.292 197.112C422.031 197.344 421.9 197.642 421.9 198.008H420.713C420.713 197.56 420.821 197.164 421.038 196.821C421.262 196.47 421.568 196.198 421.956 196.003C422.352 195.809 422.8 195.712 423.3 195.712C423.793 195.712 424.234 195.809 424.622 196.003C425.01 196.19 425.313 196.451 425.529 196.787C425.753 197.123 425.865 197.504 425.865 197.93C425.865 198.251 425.768 198.579 425.574 198.915C425.38 199.244 425.122 199.513 424.801 199.722ZM430.142 202.959C430.507 202.959 430.832 202.828 431.116 202.567C431.4 202.305 431.62 201.943 431.777 201.48C431.934 201.01 432.012 200.468 432.012 199.856C432.012 199.244 431.934 198.703 431.777 198.232C431.62 197.762 431.4 197.396 431.116 197.135C430.832 196.873 430.507 196.743 430.142 196.743C429.776 196.743 429.447 196.873 429.156 197.135C428.872 197.396 428.652 197.762 428.495 198.232C428.338 198.703 428.26 199.244 428.26 199.856C428.26 200.468 428.338 201.01 428.495 201.48C428.652 201.943 428.872 202.305 429.156 202.567C429.447 202.828 429.776 202.959 430.142 202.959ZM427.073 199.856C427.073 199.05 427.203 198.333 427.465 197.706C427.726 197.071 428.088 196.578 428.551 196.227C429.014 195.876 429.544 195.701 430.142 195.701C430.731 195.701 431.258 195.876 431.721 196.227C432.184 196.578 432.546 197.071 432.807 197.706C433.068 198.333 433.199 199.05 433.199 199.856C433.199 200.655 433.068 201.372 432.807 202.007C432.546 202.634 432.184 203.127 431.721 203.485C431.258 203.836 430.731 204.011 430.142 204.011C429.552 204.011 429.022 203.836 428.551 203.485C428.088 203.127 427.726 202.634 427.465 202.007C427.203 201.372 427.073 200.655 427.073 199.856Z" fill="#3F3F46"/>
<rect x="499.1" y="82.3994" width="32.2" height="100.8" rx="2.8" fill="url(#paint4_linear_6120_45253)"/>
<rect x="499.1" y="177.6" width="32.2" height="5.6" fill="#27272A"/>
<path d="M502.409 202.891C502.565 202.735 502.763 202.552 503.002 202.343C503.241 202.134 503.424 201.969 503.551 201.85C504.156 201.312 504.637 200.868 504.996 200.517C505.354 200.159 505.657 199.793 505.903 199.419C506.149 199.046 506.273 198.691 506.273 198.355C506.273 197.892 506.138 197.515 505.869 197.224C505.608 196.933 505.272 196.787 504.861 196.787C504.54 196.787 504.234 196.892 503.943 197.101C503.659 197.31 503.443 197.579 503.293 197.907L502.252 197.448C502.476 196.933 502.831 196.515 503.316 196.194C503.809 195.865 504.324 195.701 504.861 195.701C505.369 195.701 505.817 195.813 506.205 196.037C506.601 196.261 506.907 196.575 507.124 196.978C507.348 197.381 507.46 197.84 507.46 198.355C507.46 198.863 507.307 199.367 507.001 199.867C506.702 200.368 506.34 200.827 505.914 201.245C505.489 201.663 504.94 202.16 504.268 202.735L504.089 202.891H507.594V203.933H502.521L502.409 202.891ZM511.751 202.959C512.117 202.959 512.442 202.828 512.726 202.567C513.01 202.305 513.23 201.943 513.387 201.48C513.543 201.01 513.622 200.468 513.622 199.856C513.622 199.244 513.543 198.703 513.387 198.232C513.23 197.762 513.01 197.396 512.726 197.135C512.442 196.873 512.117 196.743 511.751 196.743C511.386 196.743 511.057 196.873 510.766 197.135C510.482 197.396 510.262 197.762 510.105 198.232C509.948 198.703 509.87 199.244 509.87 199.856C509.87 200.468 509.948 201.01 510.105 201.48C510.262 201.943 510.482 202.305 510.766 202.567C511.057 202.828 511.386 202.959 511.751 202.959ZM508.683 199.856C508.683 199.05 508.813 198.333 509.075 197.706C509.336 197.071 509.698 196.578 510.161 196.227C510.624 195.876 511.154 195.701 511.751 195.701C512.341 195.701 512.868 195.876 513.331 196.227C513.794 196.578 514.156 197.071 514.417 197.706C514.678 198.333 514.809 199.05 514.809 199.856C514.809 200.655 514.678 201.372 514.417 202.007C514.156 202.634 513.794 203.127 513.331 203.485C512.868 203.836 512.341 204.011 511.751 204.011C511.162 204.011 510.631 203.836 510.161 203.485C509.698 203.127 509.336 202.634 509.075 202.007C508.813 201.372 508.683 200.655 508.683 199.856ZM520.236 199.722C520.594 199.931 520.882 200.215 521.098 200.573C521.315 200.924 521.423 201.275 521.423 201.626C521.423 202.081 521.304 202.492 521.065 202.858C520.833 203.216 520.509 203.496 520.09 203.698C519.672 203.899 519.194 204 518.657 204C518.127 204 517.653 203.896 517.234 203.687C516.816 203.478 516.488 203.19 516.249 202.824C516.017 202.451 515.902 202.029 515.902 201.559H517.089C517.089 201.969 517.234 202.305 517.526 202.567C517.817 202.82 518.194 202.947 518.657 202.947C519.127 202.947 519.512 202.82 519.81 202.567C520.117 202.305 520.27 201.969 520.27 201.559C520.27 201.163 520.12 200.842 519.822 200.595C519.523 200.342 519.142 200.215 518.679 200.215H518.097V199.218H518.69C519.116 199.218 519.463 199.106 519.732 198.882C520.008 198.65 520.146 198.355 520.146 197.997C520.146 197.631 520.016 197.336 519.754 197.112C519.493 196.881 519.153 196.765 518.735 196.765C518.325 196.765 517.989 196.881 517.727 197.112C517.466 197.344 517.335 197.642 517.335 198.008H516.148C516.148 197.56 516.256 197.164 516.473 196.821C516.697 196.47 517.003 196.198 517.391 196.003C517.787 195.809 518.235 195.712 518.735 195.712C519.228 195.712 519.669 195.809 520.057 196.003C520.445 196.19 520.747 196.451 520.964 196.787C521.188 197.123 521.3 197.504 521.3 197.93C521.3 198.251 521.203 198.579 521.009 198.915C520.815 199.244 520.557 199.513 520.236 199.722ZM522.844 200.136L523.124 195.779H527.48V196.821H524.266L524.132 198.815C524.527 198.635 524.912 198.546 525.285 198.546C525.838 198.546 526.331 198.662 526.764 198.893C527.204 199.124 527.544 199.449 527.783 199.867C528.029 200.278 528.152 200.748 528.152 201.279C528.152 201.816 528.029 202.294 527.783 202.712C527.544 203.13 527.204 203.459 526.764 203.698C526.331 203.929 525.838 204.045 525.285 204.045C524.852 204.045 524.441 203.955 524.053 203.776C523.672 203.59 523.348 203.336 523.079 203.015C522.81 202.686 522.627 202.316 522.53 201.906L523.684 201.637C523.766 202.01 523.956 202.32 524.255 202.567C524.553 202.806 524.897 202.925 525.285 202.925C525.778 202.925 526.181 202.772 526.495 202.466C526.808 202.16 526.965 201.764 526.965 201.279C526.965 200.808 526.808 200.424 526.495 200.125C526.181 199.819 525.778 199.666 525.285 199.666C525.076 199.666 524.856 199.726 524.624 199.845C524.393 199.957 524.195 200.103 524.031 200.282L522.844 200.136Z" fill="#3F3F46"/>
<rect x="594.3" y="43.1992" width="32.2" height="140" rx="2.8" fill="url(#paint5_linear_6120_45253)"/>
<rect x="594.3" y="177.599" width="32.2" height="5.6" fill="#27272A"/>
<path d="M597.215 202.891C597.372 202.735 597.57 202.552 597.809 202.343C598.048 202.134 598.231 201.969 598.358 201.85C598.962 201.312 599.444 200.868 599.802 200.517C600.161 200.159 600.463 199.793 600.71 199.419C600.956 199.046 601.079 198.691 601.079 198.355C601.079 197.892 600.945 197.515 600.676 197.224C600.415 196.933 600.079 196.787 599.668 196.787C599.347 196.787 599.041 196.892 598.75 197.101C598.466 197.31 598.249 197.579 598.1 197.907L597.058 197.448C597.282 196.933 597.637 196.515 598.122 196.194C598.615 195.865 599.13 195.701 599.668 195.701C600.176 195.701 600.624 195.813 601.012 196.037C601.408 196.261 601.714 196.575 601.93 196.978C602.154 197.381 602.266 197.84 602.266 198.355C602.266 198.863 602.113 199.367 601.807 199.867C601.508 200.368 601.146 200.827 600.721 201.245C600.295 201.663 599.746 202.16 599.074 202.735L598.895 202.891H602.401V203.933H597.327L597.215 202.891ZM606.558 202.959C606.924 202.959 607.249 202.828 607.532 202.567C607.816 202.305 608.036 201.943 608.193 201.48C608.35 201.01 608.428 200.468 608.428 199.856C608.428 199.244 608.35 198.703 608.193 198.232C608.036 197.762 607.816 197.396 607.532 197.135C607.249 196.873 606.924 196.743 606.558 196.743C606.192 196.743 605.863 196.873 605.572 197.135C605.289 197.396 605.068 197.762 604.911 198.232C604.755 198.703 604.676 199.244 604.676 199.856C604.676 200.468 604.755 201.01 604.911 201.48C605.068 201.943 605.289 202.305 605.572 202.567C605.863 202.828 606.192 202.959 606.558 202.959ZM603.489 199.856C603.489 199.05 603.62 198.333 603.881 197.706C604.142 197.071 604.505 196.578 604.967 196.227C605.43 195.876 605.961 195.701 606.558 195.701C607.148 195.701 607.674 195.876 608.137 196.227C608.6 196.578 608.962 197.071 609.223 197.706C609.485 198.333 609.615 199.05 609.615 199.856C609.615 200.655 609.485 201.372 609.223 202.007C608.962 202.634 608.6 203.127 608.137 203.485C607.674 203.836 607.148 204.011 606.558 204.011C605.968 204.011 605.438 203.836 604.967 203.485C604.505 203.127 604.142 202.634 603.881 202.007C603.62 201.372 603.489 200.655 603.489 199.856ZM615.513 200.797H616.543V201.827H615.513V203.933H614.326V201.827H610.82L610.708 200.797L614.382 195.779H615.513V200.797ZM614.326 200.797V197.762L612.119 200.797H614.326ZM620.7 202.959C621.066 202.959 621.391 202.828 621.674 202.567C621.958 202.305 622.178 201.943 622.335 201.48C622.492 201.01 622.57 200.468 622.57 199.856C622.57 199.244 622.492 198.703 622.335 198.232C622.178 197.762 621.958 197.396 621.674 197.135C621.391 196.873 621.066 196.743 620.7 196.743C620.334 196.743 620.006 196.873 619.714 197.135C619.431 197.396 619.21 197.762 619.054 198.232C618.897 198.703 618.818 199.244 618.818 199.856C618.818 200.468 618.897 201.01 619.054 201.48C619.21 201.943 619.431 202.305 619.714 202.567C620.006 202.828 620.334 202.959 620.7 202.959ZM617.631 199.856C617.631 199.05 617.762 198.333 618.023 197.706C618.285 197.071 618.647 196.578 619.11 196.227C619.573 195.876 620.103 195.701 620.7 195.701C621.29 195.701 621.816 195.876 622.279 196.227C622.742 196.578 623.104 197.071 623.366 197.706C623.627 198.333 623.758 199.05 623.758 199.856C623.758 200.655 623.627 201.372 623.366 202.007C623.104 202.634 622.742 203.127 622.279 203.485C621.816 203.836 621.29 204.011 620.7 204.011C620.11 204.011 619.58 203.836 619.11 203.485C618.647 203.127 618.285 202.634 618.023 202.007C617.762 201.372 617.631 200.655 617.631 199.856Z" fill="#3F3F46"/>
<rect x="22.3999" y="4.99902" width="8.4" height="8.4" rx="2.8" fill="url(#paint6_linear_6120_45253)"/>
<path d="M38.6539 5.49642V7.70142H43.6911V8.38742H41.0941V9.52422H44.5731V10.2004H36.7821V9.52422H40.2415V8.38742H37.8111V5.49642H38.6539ZM37.6837 11.053H43.6029V13.944H42.7601V11.739H37.6837V11.053ZM47.9151 5.82962V6.96642C47.9151 7.46949 48.0654 7.93989 48.3659 8.37762C48.673 8.81535 49.0977 9.14529 49.6399 9.36742L49.1891 10.024C48.8037 9.86069 48.4672 9.63202 48.1797 9.33802C47.8988 9.04402 47.6767 8.70755 47.5133 8.32862C47.3565 8.75329 47.1279 9.13222 46.8273 9.46542C46.5333 9.79862 46.1838 10.0567 45.7787 10.2396L45.3181 9.57322C45.684 9.40989 46.0009 9.18775 46.2687 8.90682C46.5431 8.61935 46.7489 8.30575 46.8861 7.96602C47.0299 7.62629 47.1017 7.29309 47.1017 6.96642V5.82962H47.9151ZM46.7979 11.004H52.6093V13.944H51.7567V11.69H46.7979V11.004ZM49.9535 5.46702H50.7473V7.54462H51.7959V5.32002H52.6093V10.5336H51.7959V8.24042H50.7473V10.4846H49.9535V5.46702ZM61.7138 12.131V12.8464H53.9032V12.131H61.7138ZM54.5794 6.15302H60.9984V6.84882H59.6852V9.78882H60.9886V10.4748H54.6088V9.78882H55.8926V6.84882H54.5794V6.15302ZM58.8424 9.78882V6.84882H56.7452V9.78882H58.8424ZM69.554 5.30042V13.9538H68.7014V5.30042H69.554ZM62.939 6.11382H66.9374V9.22042H63.8112V11.1706C64.556 11.1706 65.2485 11.1478 65.8888 11.102C66.5356 11.0563 67.2118 10.9779 67.9174 10.8668L68.0056 11.5626C67.2869 11.6802 66.5944 11.7619 65.928 11.8076C65.2616 11.8468 64.5135 11.8664 63.6838 11.8664H62.9586V8.53442H66.0848V6.79982H62.939V6.11382ZM75.493 6.14322V11.788H71.5142V6.14322H75.493ZM74.6796 11.102V6.82922H72.3472V11.102H74.6796ZM77.2472 5.30042H78.0998V13.9538H77.2472V5.30042ZM81.9515 5.80022C82.5199 5.80022 83.0033 5.95375 83.4019 6.26082C83.8069 6.56789 84.0552 6.97295 84.1467 7.47602H85.8519V5.32002H86.7045V10.2592H85.8519V8.17182H84.1565C84.0781 8.68795 83.8363 9.10282 83.4313 9.41642C83.0262 9.73002 82.5329 9.88682 81.9515 9.88682C81.5268 9.88682 81.1446 9.80189 80.8049 9.63202C80.4651 9.45562 80.1973 9.21389 80.0013 8.90682C79.8118 8.59975 79.7171 8.24695 79.7171 7.84842C79.7171 7.44988 79.8118 7.09708 80.0013 6.79002C80.1973 6.47642 80.4651 6.23468 80.8049 6.06482C81.1446 5.88842 81.5268 5.80022 81.9515 5.80022ZM80.5305 7.84842C80.5305 8.24042 80.6644 8.56055 80.9323 8.80882C81.2001 9.05709 81.5399 9.18122 81.9515 9.18122C82.3631 9.18122 82.6995 9.05709 82.9609 8.80882C83.2287 8.56055 83.3627 8.24042 83.3627 7.84842C83.3627 7.45642 83.2287 7.13629 82.9609 6.88802C82.6995 6.63975 82.3631 6.51562 81.9515 6.51562C81.5399 6.51562 81.2001 6.63975 80.9323 6.88802C80.6644 7.13629 80.5305 7.45642 80.5305 7.84842ZM81.0793 10.6904H86.7045V13.8264H81.0793V10.6904ZM85.8813 13.1404V11.3666H81.9221V13.1404H85.8813Z" fill="#3F3F46"/>
<rect x="22.3999" y="26.5991" width="8.4" height="8.4" rx="2.8" fill="url(#paint7_linear_6120_45253)"/>
<path d="M44.0929 26.9103V35.5343H43.2795V26.9103H44.0929ZM36.6547 33.2019C37.2362 32.8426 37.687 32.3101 38.0071 31.6045C38.3338 30.8989 38.4971 30.141 38.4971 29.3309V28.6057H36.8899V27.9001H40.8197V28.6057H39.3203V29.3309C39.3203 30.1018 39.4771 30.8238 39.7907 31.4967C40.1043 32.1631 40.5486 32.6662 41.1235 33.0059L40.6139 33.6233C40.2154 33.3816 39.8724 33.0484 39.5849 32.6237C39.2974 32.1925 39.0753 31.7025 38.9185 31.1537C38.7617 31.7482 38.5363 32.2774 38.2423 32.7413C37.9483 33.2052 37.5922 33.5678 37.1741 33.8291L36.6547 33.2019ZM40.1729 29.9973H41.5547V27.1063H42.3485V35.1031H41.5547V30.6931H40.1729V29.9973ZM49.1401 31.1439C49.4472 31.3268 49.6889 31.5751 49.8653 31.8887C50.0417 32.1958 50.1299 32.4996 50.1299 32.8001C50.1299 33.1986 50.0319 33.5547 49.8359 33.8683C49.6399 34.1819 49.3655 34.4269 49.0127 34.6033C48.6599 34.7797 48.2581 34.8679 47.8073 34.8679C47.3565 34.8679 46.9547 34.7797 46.6019 34.6033C46.2491 34.4269 45.9747 34.1819 45.7787 33.8683C45.5827 33.5482 45.4847 33.1856 45.4847 32.7805H46.2981C46.2981 33.179 46.4386 33.5057 46.7195 33.7605C47.0005 34.0153 47.3631 34.1427 47.8073 34.1427C48.2516 34.1427 48.6142 34.0186 48.8951 33.7703C49.1826 33.5155 49.3263 33.1888 49.3263 32.7903C49.3263 32.4114 49.1859 32.101 48.9049 31.8593C48.624 31.6176 48.2647 31.4967 47.8269 31.4967H47.3075V30.7715H47.8269C48.2385 30.7715 48.575 30.6637 48.8363 30.4481C49.0977 30.226 49.2283 29.9418 49.2283 29.5955C49.2283 29.2362 49.1009 28.9454 48.8461 28.7233C48.5913 28.4946 48.2647 28.3803 47.8661 28.3803C47.4676 28.3803 47.1409 28.4946 46.8861 28.7233C46.6313 28.952 46.5039 29.2492 46.5039 29.6151H45.6905C45.6905 29.2362 45.782 28.8997 45.9649 28.6057C46.1479 28.3052 46.4027 28.0732 46.7293 27.9099C47.0625 27.74 47.4415 27.6551 47.8661 27.6551C48.2843 27.6551 48.6567 27.7368 48.9833 27.9001C49.31 28.0634 49.5648 28.2921 49.7477 28.5861C49.9372 28.8801 50.0319 29.2133 50.0319 29.5857C50.0319 29.8666 49.9503 30.1508 49.7869 30.4383C49.6301 30.7258 49.4145 30.961 49.1401 31.1439ZM55.8441 27.7923V28.4979H53.9625V29.5073C53.9625 29.9581 54.0572 30.4154 54.2467 30.8793C54.4362 31.3432 54.6975 31.7646 55.0307 32.1435C55.3704 32.5159 55.7494 32.8001 56.1675 32.9961L55.6873 33.6723C55.2104 33.4371 54.7824 33.0908 54.4035 32.6335C54.0311 32.1696 53.7469 31.6502 53.5509 31.0753C53.3549 31.7025 53.0609 32.2676 52.6689 32.7707C52.2834 33.2738 51.8522 33.6462 51.3753 33.8879L50.8755 33.2117C51.2871 33.0092 51.666 32.7086 52.0123 32.3101C52.3586 31.9116 52.6297 31.464 52.8257 30.9675C53.0282 30.471 53.1295 29.9842 53.1295 29.5073V28.4979H51.1793V27.7923H55.8441ZM56.8143 26.9201H57.6669V30.3795H59.0585V31.0851H57.6669V35.5441H56.8143V26.9201ZM64.7963 31.2419C65.2145 31.2419 65.5575 31.1112 65.8253 30.8499C66.0932 30.582 66.2271 30.2423 66.2271 29.8307C66.2271 29.4191 66.0899 29.0826 65.8155 28.8213C65.5477 28.5534 65.2047 28.4195 64.7865 28.4195H63.1205L63.1303 31.2419H64.7963ZM62.3071 27.6943H64.8159C65.2471 27.6943 65.6293 27.7858 65.9625 27.9687C66.3023 28.1516 66.5636 28.4064 66.7465 28.7331C66.936 29.0532 67.0307 29.4191 67.0307 29.8307C67.0307 30.2423 66.936 30.6114 66.7465 30.9381C66.5636 31.2582 66.3023 31.5098 65.9625 31.6927C65.6293 31.8691 65.2471 31.9573 64.8159 31.9573H63.1303V34.8287H62.3071V27.6943ZM70.8926 31.2419C71.3107 31.2419 71.6537 31.1112 71.9216 30.8499C72.1895 30.582 72.3234 30.2423 72.3234 29.8307C72.3234 29.4191 72.1862 29.0826 71.9118 28.8213C71.6439 28.5534 71.3009 28.4195 70.8828 28.4195H69.2168L69.2266 31.2419H70.8926ZM68.4034 27.6943H70.9122C71.3434 27.6943 71.7256 27.7858 72.0588 27.9687C72.3985 28.1516 72.6599 28.4064 72.8428 28.7331C73.0323 29.0532 73.127 29.4191 73.127 29.8307C73.127 30.2423 73.0323 30.6114 72.8428 30.9381C72.6599 31.2582 72.3985 31.5098 72.0588 31.6927C71.7256 31.8691 71.3434 31.9573 70.9122 31.9573H69.2266V34.8287H68.4034V27.6943ZM79.5456 34.8287H78.6734L77.9188 32.8099H74.8122L74.0282 34.8287H73.156L75.8902 27.6943H76.8604L79.5456 34.8287ZM77.6444 32.0945L76.3802 28.7331L75.0768 32.0945H77.6444Z" fill="#3F3F46"/>
<rect x="22.3999" y="48.1992" width="8.4" height="8.4" rx="2.8" fill="#27272A"/>
<path d="M40.5061 49.4904V50.1764H37.9189V51.764H40.3787V52.4402H37.9189V54.3218C38.5526 54.3218 39.0818 54.3087 39.5065 54.2826C39.9312 54.2499 40.3591 54.1911 40.7903 54.1062L40.8883 54.8118C40.4179 54.9033 39.954 54.9621 39.4967 54.9882C39.0459 55.0143 38.435 55.0274 37.6641 55.0274H37.1153V49.4904H40.5061ZM41.3979 48.6966H42.2015V51.9502H43.2893V48.5104H44.1027V57.1344H43.2893V52.6558H42.2015V56.7032H41.3979V48.6966ZM47.7485 49.02C48.1797 49.02 48.5652 49.1082 48.9049 49.2846C49.2512 49.4545 49.5223 49.6929 49.7183 50C49.9143 50.3071 50.0123 50.6599 50.0123 51.0584C50.0123 51.4569 49.9143 51.8097 49.7183 52.1168C49.5223 52.4239 49.2512 52.6656 48.9049 52.842C48.5652 53.0119 48.1797 53.0968 47.7485 53.0968C47.3173 53.0968 46.9286 53.0119 46.5823 52.842C46.2361 52.6656 45.9649 52.4239 45.7689 52.1168C45.5795 51.8097 45.4847 51.4569 45.4847 51.0584C45.4847 50.6599 45.5795 50.3071 45.7689 50C45.9649 49.6929 46.2361 49.4545 46.5823 49.2846C46.9286 49.1082 47.3173 49.02 47.7485 49.02ZM46.3177 51.0584C46.3177 51.4504 46.4517 51.7705 46.7195 52.0188C46.9874 52.2605 47.3304 52.3814 47.7485 52.3814C48.1667 52.3814 48.5097 52.2605 48.7775 52.0188C49.0519 51.7705 49.1891 51.4504 49.1891 51.0584C49.1891 50.6664 49.0519 50.3495 48.7775 50.1078C48.5097 49.8595 48.1667 49.7354 47.7485 49.7354C47.3369 49.7354 46.9939 49.8595 46.7195 50.1078C46.4517 50.3495 46.3177 50.6664 46.3177 51.0584ZM46.4451 55.4978C46.4451 54.9882 46.6967 54.5897 47.1997 54.3022C47.7093 54.0147 48.4084 53.871 49.2969 53.871C50.1789 53.871 50.8715 54.0147 51.3745 54.3022C51.8776 54.5897 52.1291 54.9882 52.1291 55.4978C52.1291 56.0074 51.8776 56.4059 51.3745 56.6934C50.8715 56.9809 50.1789 57.1246 49.2969 57.1246C48.4084 57.1246 47.7093 56.9809 47.1997 56.6934C46.6967 56.4059 46.4451 56.0074 46.4451 55.4978ZM47.2781 55.4978C47.2781 55.7983 47.4545 56.0335 47.8073 56.2034C48.1667 56.3667 48.6632 56.4484 49.2969 56.4484C49.9176 56.4484 50.4043 56.3667 50.7571 56.2034C51.1165 56.0335 51.2961 55.7983 51.2961 55.4978C51.2961 55.1973 51.1197 54.9653 50.7669 54.802C50.4141 54.6321 49.9241 54.5472 49.2969 54.5472C48.6632 54.5472 48.1667 54.6321 47.8073 54.802C47.4545 54.9653 47.2781 55.1973 47.2781 55.4978ZM51.1883 48.5202H52.0409V49.7746H53.2757V50.4802H52.0409V51.617H53.2757V52.3226H52.0409V53.6162H51.1883V48.5202ZM58.6464 49.0494V49.5296C58.6464 49.9281 58.6333 50.3038 58.6072 50.6566C58.581 51.0094 58.5222 51.4047 58.4308 51.8424L57.6076 51.7836C57.7513 51.1041 57.8232 50.4214 57.8232 49.7354H54.3638V49.0494H58.6464ZM53.8346 52.6264C54.6055 52.6264 55.2033 52.6199 55.628 52.6068V50.9212H56.461V52.5872C57.5912 52.5415 58.5124 52.4696 59.2246 52.3716L59.2834 52.989C57.8918 53.2111 56.1082 53.3222 53.9326 53.3222L53.8346 52.6264ZM54.9714 55.537C54.9714 55.0535 55.2262 54.6746 55.7358 54.4002C56.2519 54.1193 56.951 53.9788 57.833 53.9788C58.728 53.9788 59.4304 54.1193 59.94 54.4002C60.4561 54.6746 60.7142 55.0535 60.7142 55.537C60.7142 56.0335 60.4561 56.4223 59.94 56.7032C59.4304 56.9841 58.728 57.1246 57.833 57.1246C56.9444 57.1246 56.2454 56.9841 55.7358 56.7032C55.2262 56.4223 54.9714 56.0335 54.9714 55.537ZM55.824 55.537C55.824 55.8245 56.0004 56.0499 56.3532 56.2132C56.7125 56.37 57.2058 56.4484 57.833 56.4484C58.4667 56.4484 58.9632 56.37 59.3226 56.2132C59.6819 56.0499 59.8616 55.8245 59.8616 55.537C59.8616 55.2561 59.6819 55.0372 59.3226 54.8804C58.9632 54.7236 58.4667 54.6452 57.833 54.6452C57.2058 54.6452 56.7125 54.7236 56.3532 54.8804C56.0004 55.0372 55.824 55.2561 55.824 55.537ZM59.7832 48.5104H60.6358V50.833H61.8412V51.5386H60.6358V53.8808H59.7832V48.5104Z" fill="#3F3F46"/>
<defs>
<linearGradient id="paint0_linear_6120_45253" x1="420" y1="1.19922" x2="420" y2="183.199" gradientUnits="userSpaceOnUse">
<stop stop-color="#F6F6F7"/>
<stop offset="1" stop-color="white"/>
</linearGradient>
<linearGradient id="paint1_linear_6120_45253" x1="229.6" y1="167.799" x2="229.6" y2="183.199" gradientUnits="userSpaceOnUse">
<stop stop-color="#00CC5C"/>
<stop offset="1" stop-color="#5EFFA6"/>
</linearGradient>
<linearGradient id="paint2_linear_6120_45253" x1="324.8" y1="150.999" x2="324.8" y2="183.199" gradientUnits="userSpaceOnUse">
<stop stop-color="#00CC5C"/>
<stop offset="1" stop-color="#5EFFA6"/>
</linearGradient>
<linearGradient id="paint3_linear_6120_45253" x1="420" y1="125.799" x2="420" y2="183.199" gradientUnits="userSpaceOnUse">
<stop stop-color="#9735D0"/>
<stop offset="1" stop-color="#9735D0" stop-opacity="0.4"/>
</linearGradient>
<linearGradient id="paint4_linear_6120_45253" x1="515.2" y1="82.3994" x2="515.2" y2="183.199" gradientUnits="userSpaceOnUse">
<stop stop-color="#9735D0"/>
<stop offset="1" stop-color="#9735D0" stop-opacity="0.4"/>
</linearGradient>
<linearGradient id="paint5_linear_6120_45253" x1="610.4" y1="43.1992" x2="610.4" y2="183.199" gradientUnits="userSpaceOnUse">
<stop stop-color="#9735D0"/>
<stop offset="1" stop-color="#9735D0" stop-opacity="0.4"/>
</linearGradient>
<linearGradient id="paint6_linear_6120_45253" x1="26.5999" y1="4.99902" x2="26.5999" y2="13.399" gradientUnits="userSpaceOnUse">
<stop stop-color="#00CC5C"/>
<stop offset="1" stop-color="#5EFFA6"/>
</linearGradient>
<linearGradient id="paint7_linear_6120_45253" x1="26.5999" y1="26.5991" x2="26.5999" y2="34.9991" gradientUnits="userSpaceOnUse">
<stop stop-color="#9735D0"/>
<stop offset="1" stop-color="#9735D0" stop-opacity="0.4"/>
</linearGradient>
</defs>
</svg>
