<svg width="101" height="100" viewBox="0 0 101 100" fill="none" xmlns="http://www.w3.org/2000/svg">
<g style="mix-blend-mode:darken">
<g clip-path="url(#clip0_3769_8415)">
<rect x="0.5" width="100" height="100" rx="8" fill="#F9F9F9"/>
<circle cx="50.5025" cy="50.0025" r="38.7838" fill="#CC7DFA"/>
<path d="M37.2202 40.1025C36.494 32.0191 30.2602 24.4869 27.2341 21.7312L25.5625 20.3015C32.3054 14.6331 41.0062 11.2188 50.5044 11.2188C59.0888 11.2188 67.0217 14.0077 73.4466 18.7289C74.3544 21.4846 72.6254 27.2426 70.8097 29.9983C70.1521 30.9964 68.6607 32.2356 67.0258 33.4103C63.3395 36.0588 58.6873 37.3689 56.322 42.2458C55.6458 43.6399 55.6747 45.0026 55.9999 46.1872C56.2338 47.0388 56.3832 47.9645 56.3856 48.8699C56.3931 51.7978 53.4321 53.9129 50.5044 53.8809C42.8861 53.7977 37.8991 47.6582 37.2202 40.1025Z" fill="#6D0CA6"/>
<path d="M56.0678 74.3395C59.9 67.1177 72.6741 67.1177 72.6741 67.1177C85.9846 66.9789 87.7826 58.8973 88.9847 54.8125C86.8333 72.1929 73.1828 86.009 55.8818 88.4123C54.6306 85.779 53.1484 79.841 56.0678 74.3395Z" fill="#6D0CA6"/>
</g>
</g>
<defs>
<clipPath id="clip0_3769_8415">
<rect x="0.5" width="100" height="100" rx="8" fill="white"/>
</clipPath>
</defs>
</svg>
