<svg width="540" height="282" viewBox="0 0 540 282" fill="none" xmlns="http://www.w3.org/2000/svg">
<path d="M70.4891 25.84C73.9931 22.48 78.7691 19.072 78.7691 16.12C78.7691 14.152 77.5211 12.76 75.7451 12.76C74.3771 12.76 73.0091 13.744 72.3851 15.16L70.1531 14.176C71.1131 11.968 73.4411 10.432 75.7451 10.432C79.0331 10.432 81.3131 12.784 81.3131 16.12C81.3131 19.792 77.3291 23.056 74.0891 25.84H81.6011V28.072H70.7291L70.4891 25.84ZM87.1973 20.248L84.6533 19.936L85.2533 10.6H94.5893V12.832H87.7013L87.4133 17.104C88.2053 16.744 89.0933 16.528 89.8853 16.528C93.4853 16.528 96.0293 18.952 96.0293 22.384C96.0293 25.864 93.4853 28.312 89.8853 28.312C87.0533 28.312 84.6053 26.416 83.9813 23.728L86.4533 23.152C86.8133 24.76 88.2293 25.912 89.8853 25.912C91.9973 25.912 93.4853 24.448 93.4853 22.384C93.4853 20.368 91.9973 18.928 89.8853 18.928C88.9973 18.928 87.8933 19.48 87.1973 20.248ZM98.7548 25.84C102.259 22.48 107.035 19.072 107.035 16.12C107.035 14.152 105.787 12.76 104.011 12.76C102.643 12.76 101.275 13.744 100.651 15.16L98.4188 14.176C99.3788 11.968 101.707 10.432 104.011 10.432C107.299 10.432 109.579 12.784 109.579 16.12C109.579 19.792 105.595 23.056 102.355 25.84H109.867V28.072H98.9948L98.7548 25.84Z" fill="#15151A"/>
<path d="M52 58C52 55.7909 53.7909 54 56 54H124C126.209 54 128 55.7909 128 58V237H52V58Z" fill="url(#paint0_linear_3769_8145)"/>
<path d="M71.2272 272.38C73.8552 269.86 77.4372 267.304 77.4372 265.09C77.4372 263.614 76.5012 262.57 75.1692 262.57C74.1432 262.57 73.1172 263.308 72.6492 264.37L70.9752 263.632C71.6952 261.976 73.4412 260.824 75.1692 260.824C77.6352 260.824 79.3452 262.588 79.3452 265.09C79.3452 267.844 76.3572 270.292 73.9272 272.38H79.5612V274.054H71.4072L71.2272 272.38ZM86.2423 272.488C88.0423 272.488 89.2483 270.472 89.2483 267.502C89.2483 264.514 88.0423 262.498 86.2423 262.498C84.4423 262.498 83.2183 264.514 83.2183 267.502C83.2183 270.472 84.4423 272.488 86.2423 272.488ZM81.3103 267.502C81.3103 263.578 83.3443 260.824 86.2423 260.824C89.1223 260.824 91.1563 263.578 91.1563 267.502C91.1563 271.408 89.1223 274.18 86.2423 274.18C83.3443 274.18 81.3103 271.408 81.3103 267.502ZM93.1823 272.38C95.8103 269.86 99.3923 267.304 99.3923 265.09C99.3923 263.614 98.4563 262.57 97.1243 262.57C96.0983 262.57 95.0723 263.308 94.6043 264.37L92.9303 263.632C93.6503 261.976 95.3963 260.824 97.1243 260.824C99.5903 260.824 101.3 262.588 101.3 265.09C101.3 267.844 98.3123 270.292 95.8823 272.38H101.516V274.054H93.3623L93.1823 272.38ZM108.161 260.968V274.054L106.253 274.036V263.002L103.949 264.28L103.157 262.678L106.271 260.968H108.161Z" fill="#3F3F46"/>
<path d="M258.965 56.624V74.072L256.421 74.048V59.336L253.349 61.04L252.293 58.904L256.445 56.624H258.965ZM266.836 74.12H264.052L270.892 58.76L262.876 58.784V56.528H273.436L273.676 58.76L266.836 74.12ZM276.423 71.84C279.927 68.48 284.703 65.072 284.703 62.12C284.703 60.152 283.455 58.76 281.679 58.76C280.311 58.76 278.943 59.744 278.319 61.16L276.087 60.176C277.047 57.968 279.375 56.432 281.679 56.432C284.967 56.432 287.247 58.784 287.247 62.12C287.247 65.792 283.263 69.056 280.023 71.84H287.535V74.072H276.663L276.423 71.84Z" fill="#15151A"/>
<path d="M232 104C232 101.791 233.791 100 236 100H304C306.209 100 308 101.791 308 104V237H232V104Z" fill="url(#paint1_linear_3769_8145)"/>
<path d="M249.803 272.38C252.431 269.86 256.013 267.304 256.013 265.09C256.013 263.614 255.077 262.57 253.745 262.57C252.719 262.57 251.693 263.308 251.225 264.37L249.551 263.632C250.271 261.976 252.017 260.824 253.745 260.824C256.211 260.824 257.921 262.588 257.921 265.09C257.921 267.844 254.933 270.292 252.503 272.38H258.137V274.054H249.983L249.803 272.38ZM264.818 272.488C266.618 272.488 267.824 270.472 267.824 267.502C267.824 264.514 266.618 262.498 264.818 262.498C263.018 262.498 261.794 264.514 261.794 267.502C261.794 270.472 263.018 272.488 264.818 272.488ZM259.886 267.502C259.886 263.578 261.92 260.824 264.818 260.824C267.698 260.824 269.732 263.578 269.732 267.502C269.732 271.408 267.698 274.18 264.818 274.18C261.92 274.18 259.886 271.408 259.886 267.502ZM271.758 272.38C274.386 269.86 277.968 267.304 277.968 265.09C277.968 263.614 277.032 262.57 275.7 262.57C274.674 262.57 273.648 263.308 273.18 264.37L271.506 263.632C272.226 261.976 273.972 260.824 275.7 260.824C278.166 260.824 279.876 262.588 279.876 265.09C279.876 267.844 276.888 270.292 274.458 272.38H280.092V274.054H271.938L271.758 272.38ZM282.13 272.38C284.758 269.86 288.34 267.304 288.34 265.09C288.34 263.614 287.404 262.57 286.072 262.57C285.046 262.57 284.02 263.308 283.552 264.37L281.878 263.632C282.598 261.976 284.344 260.824 286.072 260.824C288.538 260.824 290.248 262.588 290.248 265.09C290.248 267.844 287.26 270.292 284.83 272.38H290.464V274.054H282.31L282.13 272.38Z" fill="#3F3F46"/>
<path d="M438.66 80.624V98.072L436.116 98.048V83.336L433.044 85.04L431.988 82.904L436.14 80.624H438.66ZM448.212 96.008C450.276 96.008 451.74 94.52 451.74 92.432C451.74 90.296 450.276 88.808 448.212 88.808C446.172 88.808 444.732 90.296 444.732 92.432C444.732 94.52 446.172 96.008 448.212 96.008ZM442.188 92.432C442.188 91.16 442.644 90.032 443.148 89.096L447.948 80.552H450.876L447.396 86.672C447.684 86.624 447.972 86.576 448.284 86.576C451.812 86.6 454.284 89 454.284 92.432C454.284 95.84 451.788 98.24 448.236 98.24C444.684 98.24 442.188 95.84 442.188 92.432ZM460.969 98.12H458.185L465.025 82.76L457.009 82.784V80.528H467.569L467.809 82.76L460.969 98.12Z" fill="#15151A"/>
<path d="M412 128C412 125.791 413.791 124 416 124H484C486.209 124 488 125.791 488 128V237H412V128Z" fill="url(#paint2_linear_3769_8145)"/>
<path d="M429.672 272.38C432.3 269.86 435.882 267.304 435.882 265.09C435.882 263.614 434.946 262.57 433.614 262.57C432.588 262.57 431.562 263.308 431.094 264.37L429.42 263.632C430.14 261.976 431.886 260.824 433.614 260.824C436.08 260.824 437.79 262.588 437.79 265.09C437.79 267.844 434.802 270.292 432.372 272.38H438.006V274.054H429.852L429.672 272.38ZM444.687 272.488C446.487 272.488 447.693 270.472 447.693 267.502C447.693 264.514 446.487 262.498 444.687 262.498C442.887 262.498 441.663 264.514 441.663 267.502C441.663 270.472 442.887 272.488 444.687 272.488ZM439.755 267.502C439.755 263.578 441.789 260.824 444.687 260.824C447.567 260.824 449.601 263.578 449.601 267.502C449.601 271.408 447.567 274.18 444.687 274.18C441.789 274.18 439.755 271.408 439.755 267.502ZM451.627 272.38C454.255 269.86 457.837 267.304 457.837 265.09C457.837 263.614 456.901 262.57 455.569 262.57C454.543 262.57 453.517 263.308 453.049 264.37L451.375 263.632C452.095 261.976 453.841 260.824 455.569 260.824C458.035 260.824 459.745 262.588 459.745 265.09C459.745 267.844 456.757 270.292 454.327 272.38H459.961V274.054H451.807L451.627 272.38ZM468.694 267.286C469.864 267.97 470.602 269.248 470.602 270.346C470.602 272.578 468.766 274.162 466.156 274.162C463.564 274.162 461.728 272.542 461.728 270.238H463.636C463.636 271.552 464.68 272.47 466.156 272.47C467.668 272.47 468.748 271.552 468.748 270.238C468.748 268.978 467.686 268.078 466.192 268.078H465.256V266.476H466.21C467.578 266.476 468.55 265.666 468.55 264.514C468.55 263.344 467.614 262.534 466.282 262.534C464.95 262.534 464.032 263.362 464.032 264.532H462.124C462.124 262.354 463.834 260.842 466.282 260.842C468.694 260.842 470.404 262.318 470.404 264.406C470.404 265.414 469.756 266.602 468.694 267.286Z" fill="#3F3F46"/>
<defs>
<linearGradient id="paint0_linear_3769_8145" x1="90" y1="54" x2="90" y2="237" gradientUnits="userSpaceOnUse">
<stop stop-color="#F47725"/>
<stop offset="1" stop-color="#F47725" stop-opacity="0.4"/>
</linearGradient>
<linearGradient id="paint1_linear_3769_8145" x1="270" y1="100" x2="270" y2="237" gradientUnits="userSpaceOnUse">
<stop stop-color="#F47725"/>
<stop offset="1" stop-color="#F47725" stop-opacity="0.4"/>
</linearGradient>
<linearGradient id="paint2_linear_3769_8145" x1="450" y1="124" x2="450" y2="237" gradientUnits="userSpaceOnUse">
<stop stop-color="#F47725"/>
<stop offset="1" stop-color="#F47725" stop-opacity="0.4"/>
</linearGradient>
</defs>
</svg>
