<svg width="540" height="280" viewBox="0 0 540 280" fill="none" xmlns="http://www.w3.org/2000/svg">
<path d="M59.3446 130.84C62.8486 127.48 67.6246 124.072 67.6246 121.12C67.6246 119.152 66.3766 117.76 64.6006 117.76C63.2326 117.76 61.8646 118.744 61.2406 120.16L59.0086 119.176C59.9686 116.968 62.2966 115.432 64.6006 115.432C67.8886 115.432 70.1686 117.784 70.1686 121.12C70.1686 124.792 66.1846 128.056 62.9446 130.84H70.4566V133.072H59.5846L59.3446 130.84ZM76.0047 130.792L74.3727 136.312H72.4767L73.3887 130.792H76.0047ZM90.1868 115.6V126.352H92.3948V128.56H90.1868V133.072H87.6428V128.56H80.1308L79.8908 126.352L87.7628 115.6H90.1868ZM82.9148 126.352H87.6428V119.848L82.9148 126.352ZM104.038 124.048C105.598 124.96 106.582 126.664 106.582 128.128C106.582 131.104 104.134 133.216 100.654 133.216C97.1982 133.216 94.7502 131.056 94.7502 127.984H97.2942C97.2942 129.736 98.6862 130.96 100.654 130.96C102.67 130.96 104.11 129.736 104.11 127.984C104.11 126.304 102.694 125.104 100.702 125.104H99.4542V122.968H100.726C102.55 122.968 103.846 121.888 103.846 120.352C103.846 118.792 102.598 117.712 100.822 117.712C99.0462 117.712 97.8222 118.816 97.8222 120.376H95.2782C95.2782 117.472 97.5582 115.456 100.822 115.456C104.038 115.456 106.318 117.424 106.318 120.208C106.318 121.552 105.454 123.136 104.038 124.048ZM114.954 131.008C117.018 131.008 118.482 129.52 118.482 127.432C118.482 125.296 117.018 123.808 114.954 123.808C112.914 123.808 111.474 125.296 111.474 127.432C111.474 129.52 112.914 131.008 114.954 131.008ZM108.93 127.432C108.93 126.16 109.386 125.032 109.89 124.096L114.69 115.552H117.618L114.138 121.672C114.426 121.624 114.714 121.576 115.026 121.576C118.554 121.6 121.026 124 121.026 127.432C121.026 130.84 118.53 133.24 114.978 133.24C111.426 133.24 108.93 130.84 108.93 127.432Z" fill="#15151A"/>
<path d="M52 163C52 160.791 53.7909 159 56 159H124C126.209 159 128 160.791 128 163V235H52V163Z" fill="url(#paint0_linear_3769_8114)"/>
<path d="M71.2272 270.38C73.8552 267.86 77.4372 265.304 77.4372 263.09C77.4372 261.614 76.5012 260.57 75.1692 260.57C74.1432 260.57 73.1172 261.308 72.6492 262.37L70.9752 261.632C71.6952 259.976 73.4412 258.824 75.1692 258.824C77.6352 258.824 79.3452 260.588 79.3452 263.09C79.3452 265.844 76.3572 268.292 73.9272 270.38H79.5612V272.054H71.4072L71.2272 270.38ZM86.2423 270.488C88.0423 270.488 89.2483 268.472 89.2483 265.502C89.2483 262.514 88.0423 260.498 86.2423 260.498C84.4423 260.498 83.2183 262.514 83.2183 265.502C83.2183 268.472 84.4423 270.488 86.2423 270.488ZM81.3103 265.502C81.3103 261.578 83.3443 258.824 86.2423 258.824C89.1223 258.824 91.1563 261.578 91.1563 265.502C91.1563 269.408 89.1223 272.18 86.2423 272.18C83.3443 272.18 81.3103 269.408 81.3103 265.502ZM93.1823 270.38C95.8103 267.86 99.3923 265.304 99.3923 263.09C99.3923 261.614 98.4563 260.57 97.1243 260.57C96.0983 260.57 95.0723 261.308 94.6043 262.37L92.9303 261.632C93.6503 259.976 95.3963 258.824 97.1243 258.824C99.5903 258.824 101.3 260.588 101.3 263.09C101.3 265.844 98.3123 268.292 95.8823 270.38H101.516V272.054H93.3623L93.1823 270.38ZM108.161 258.968V272.054L106.253 272.036V261.002L103.949 262.28L103.157 260.678L106.271 258.968H108.161Z" fill="#3F3F46"/>
<path d="M249.152 46.6V57.352H251.36V59.56H249.152V64.072H246.608V59.56H239.096L238.856 57.352L246.728 46.6H249.152ZM241.88 57.352H246.608V50.848L241.88 57.352ZM256.907 61.792L255.275 67.312H253.379L254.291 61.792H256.907ZM266.865 48.64C264.801 48.64 263.337 50.128 263.337 52.24C263.337 54.352 264.801 55.84 266.865 55.84C268.905 55.84 270.345 54.352 270.345 52.24C270.345 50.128 268.905 48.64 266.865 48.64ZM260.793 52.24C260.793 48.808 263.289 46.408 266.841 46.408C270.393 46.408 272.889 48.808 272.889 52.24C272.889 53.488 272.433 54.64 271.929 55.552L267.129 64.096H264.201L267.681 57.976C267.393 58.024 267.105 58.072 266.793 58.072C263.265 58.048 260.793 55.648 260.793 52.24ZM275.591 61.84C279.095 58.48 283.871 55.072 283.871 52.12C283.871 50.152 282.623 48.76 280.847 48.76C279.479 48.76 278.111 49.744 277.487 51.16L275.255 50.176C276.215 47.968 278.543 46.432 280.847 46.432C284.135 46.432 286.415 48.784 286.415 52.12C286.415 55.792 282.431 59.056 279.191 61.84H286.703V64.072H275.831L275.591 61.84ZM295.083 62.008C297.147 62.008 298.611 60.52 298.611 58.432C298.611 56.296 297.147 54.808 295.083 54.808C293.043 54.808 291.603 56.296 291.603 58.432C291.603 60.52 293.043 62.008 295.083 62.008ZM289.059 58.432C289.059 57.16 289.515 56.032 290.019 55.096L294.819 46.552H297.747L294.267 52.672C294.555 52.624 294.843 52.576 295.155 52.576C298.683 52.6 301.155 55 301.155 58.432C301.155 61.84 298.659 64.24 295.107 64.24C291.555 64.24 289.059 61.84 289.059 58.432Z" fill="#15151A"/>
<path d="M232 94C232 91.7909 233.791 90 236 90H304C306.209 90 308 91.7909 308 94V235H232V94Z" fill="url(#paint1_linear_3769_8114)"/>
<path d="M249.803 270.38C252.431 267.86 256.013 265.304 256.013 263.09C256.013 261.614 255.077 260.57 253.745 260.57C252.719 260.57 251.693 261.308 251.225 262.37L249.551 261.632C250.271 259.976 252.017 258.824 253.745 258.824C256.211 258.824 257.921 260.588 257.921 263.09C257.921 265.844 254.933 268.292 252.503 270.38H258.137V272.054H249.983L249.803 270.38ZM264.818 270.488C266.618 270.488 267.824 268.472 267.824 265.502C267.824 262.514 266.618 260.498 264.818 260.498C263.018 260.498 261.794 262.514 261.794 265.502C261.794 268.472 263.018 270.488 264.818 270.488ZM259.886 265.502C259.886 261.578 261.92 258.824 264.818 258.824C267.698 258.824 269.732 261.578 269.732 265.502C269.732 269.408 267.698 272.18 264.818 272.18C261.92 272.18 259.886 269.408 259.886 265.502ZM271.758 270.38C274.386 267.86 277.968 265.304 277.968 263.09C277.968 261.614 277.032 260.57 275.7 260.57C274.674 260.57 273.648 261.308 273.18 262.37L271.506 261.632C272.226 259.976 273.972 258.824 275.7 258.824C278.166 258.824 279.876 260.588 279.876 263.09C279.876 265.844 276.888 268.292 274.458 270.38H280.092V272.054H271.938L271.758 270.38ZM282.13 270.38C284.758 267.86 288.34 265.304 288.34 263.09C288.34 261.614 287.404 260.57 286.072 260.57C285.046 260.57 284.02 261.308 283.552 262.37L281.878 261.632C282.598 259.976 284.344 258.824 286.072 258.824C288.538 258.824 290.248 260.588 290.248 263.09C290.248 265.844 287.26 268.292 284.83 270.38H290.464V272.054H282.31L282.13 270.38Z" fill="#3F3F46"/>
<path d="M421.791 20.248L419.247 19.936L419.847 10.6H429.183V12.832H422.295L422.007 17.104C422.799 16.744 423.687 16.528 424.479 16.528C428.079 16.528 430.623 18.952 430.623 22.384C430.623 25.864 428.079 28.312 424.479 28.312C421.647 28.312 419.199 26.416 418.575 23.728L421.047 23.152C421.407 24.76 422.823 25.912 424.479 25.912C426.591 25.912 428.079 24.448 428.079 22.384C428.079 20.368 426.591 18.928 424.479 18.928C423.591 18.928 422.487 19.48 421.791 20.248ZM436.181 25.792L434.549 31.312H432.653L433.565 25.792H436.181ZM443.307 20.248L440.763 19.936L441.363 10.6H450.699V12.832H443.811L443.523 17.104C444.315 16.744 445.203 16.528 445.995 16.528C449.595 16.528 452.139 18.952 452.139 22.384C452.139 25.864 449.595 28.312 445.995 28.312C443.163 28.312 440.715 26.416 440.091 23.728L442.563 23.152C442.923 24.76 444.339 25.912 445.995 25.912C448.107 25.912 449.595 24.448 449.595 22.384C449.595 20.368 448.107 18.928 445.995 18.928C445.107 18.928 444.003 19.48 443.307 20.248ZM464.8 10.6V21.352H467.008V23.56H464.8V28.072H462.256V23.56H454.744L454.504 21.352L462.376 10.6H464.8ZM457.528 21.352H462.256V14.848L457.528 21.352ZM472.604 20.248L470.06 19.936L470.66 10.6H479.996V12.832H473.108L472.82 17.104C473.612 16.744 474.5 16.528 475.292 16.528C478.892 16.528 481.436 18.952 481.436 22.384C481.436 25.864 478.892 28.312 475.292 28.312C472.46 28.312 470.012 26.416 469.388 23.728L471.86 23.152C472.22 24.76 473.636 25.912 475.292 25.912C477.404 25.912 478.892 24.448 478.892 22.384C478.892 20.368 477.404 18.928 475.292 18.928C474.404 18.928 473.3 19.48 472.604 20.248Z" fill="#15151A"/>
<path d="M412 58C412 55.7909 413.791 54 416 54H484C486.209 54 488 55.7909 488 58V235H412V58Z" fill="url(#paint2_linear_3769_8114)"/>
<path d="M429.672 270.38C432.3 267.86 435.882 265.304 435.882 263.09C435.882 261.614 434.946 260.57 433.614 260.57C432.588 260.57 431.562 261.308 431.094 262.37L429.42 261.632C430.14 259.976 431.886 258.824 433.614 258.824C436.08 258.824 437.79 260.588 437.79 263.09C437.79 265.844 434.802 268.292 432.372 270.38H438.006V272.054H429.852L429.672 270.38ZM444.687 270.488C446.487 270.488 447.693 268.472 447.693 265.502C447.693 262.514 446.487 260.498 444.687 260.498C442.887 260.498 441.663 262.514 441.663 265.502C441.663 268.472 442.887 270.488 444.687 270.488ZM439.755 265.502C439.755 261.578 441.789 258.824 444.687 258.824C447.567 258.824 449.601 261.578 449.601 265.502C449.601 269.408 447.567 272.18 444.687 272.18C441.789 272.18 439.755 269.408 439.755 265.502ZM451.627 270.38C454.255 267.86 457.837 265.304 457.837 263.09C457.837 261.614 456.901 260.57 455.569 260.57C454.543 260.57 453.517 261.308 453.049 262.37L451.375 261.632C452.095 259.976 453.841 258.824 455.569 258.824C458.035 258.824 459.745 260.588 459.745 263.09C459.745 265.844 456.757 268.292 454.327 270.38H459.961V272.054H451.807L451.627 270.38ZM468.694 265.286C469.864 265.97 470.602 267.248 470.602 268.346C470.602 270.578 468.766 272.162 466.156 272.162C463.564 272.162 461.728 270.542 461.728 268.238H463.636C463.636 269.552 464.68 270.47 466.156 270.47C467.668 270.47 468.748 269.552 468.748 268.238C468.748 266.978 467.686 266.078 466.192 266.078H465.256V264.476H466.21C467.578 264.476 468.55 263.666 468.55 262.514C468.55 261.344 467.614 260.534 466.282 260.534C464.95 260.534 464.032 261.362 464.032 262.532H462.124C462.124 260.354 463.834 258.842 466.282 258.842C468.694 258.842 470.404 260.318 470.404 262.406C470.404 263.414 469.756 264.602 468.694 265.286Z" fill="#3F3F46"/>
<defs>
<linearGradient id="paint0_linear_3769_8114" x1="90" y1="159" x2="90" y2="235" gradientUnits="userSpaceOnUse">
<stop stop-color="#F47725"/>
<stop offset="1" stop-color="#F47725" stop-opacity="0.4"/>
</linearGradient>
<linearGradient id="paint1_linear_3769_8114" x1="270" y1="90" x2="270" y2="235" gradientUnits="userSpaceOnUse">
<stop stop-color="#F47725"/>
<stop offset="1" stop-color="#F47725" stop-opacity="0.4"/>
</linearGradient>
<linearGradient id="paint2_linear_3769_8114" x1="450" y1="54" x2="450" y2="235" gradientUnits="userSpaceOnUse">
<stop stop-color="#F47725"/>
<stop offset="1" stop-color="#F47725" stop-opacity="0.4"/>
</linearGradient>
</defs>
</svg>
