<svg width="101" height="100" viewBox="0 0 101 100" fill="none" xmlns="http://www.w3.org/2000/svg">
<g style="mix-blend-mode:darken">
<g clip-path="url(#clip0_3769_8285)">
<rect x="0.5" width="100" height="100" rx="8" fill="#F9F9F9"/>
<path d="M71.9981 28.1356C74.4388 25.6948 74.4626 21.6883 71.6606 19.6725C67.1952 16.46 62.0748 14.2235 56.6326 13.1409C49.137 11.65 41.3676 12.4152 34.3069 15.3398C27.2461 18.2645 21.2112 23.2172 16.9653 29.5717C12.7194 35.9262 10.4531 43.397 10.4531 51.0395C10.4531 58.682 12.7194 66.1528 16.9653 72.5073C21.2112 78.8618 27.2461 83.8145 34.3069 86.7391C41.3676 89.6638 49.137 90.429 56.6326 88.938C62.0748 87.8555 67.1952 85.6189 71.6606 82.4065C74.4626 80.3906 74.4388 76.3842 71.9981 73.9434L53.5136 55.4589C51.0728 53.0181 51.0728 49.0608 53.5136 46.6201L71.9981 28.1356Z" fill="#CC7DFA"/>
<path d="M76.3019 70.6235C78.7427 73.0643 82.7575 73.0891 84.7101 70.2427C86.0431 68.2996 87.1733 66.2183 88.0794 64.0308C89.7852 59.9125 90.6632 55.4986 90.6632 51.0411C90.6632 46.5835 89.7852 42.1696 88.0794 38.0513C87.1733 35.8638 86.0431 33.7825 84.7101 31.8394C82.7575 28.993 78.7427 29.0178 76.3019 31.4586L59.6657 48.0948C58.0385 49.722 58.0385 52.3602 59.6657 53.9873L76.3019 70.6235Z" fill="#6D0CA6"/>
<path fill-rule="evenodd" clip-rule="evenodd" d="M69.1875 48.1568C69.1875 46.2969 70.6953 44.7891 72.5552 44.7891C74.4152 44.7891 75.923 46.2969 75.923 48.1568C75.923 50.0168 74.4152 51.5246 72.5552 51.5246C70.6953 51.5246 69.1875 50.0168 69.1875 48.1568ZM72.5552 46.5441C71.6646 46.5441 70.9425 47.2661 70.9425 48.1568C70.9425 49.0475 71.6646 49.7696 72.5552 49.7696C73.4459 49.7696 74.168 49.0475 74.168 48.1568C74.168 47.2661 73.4459 46.5441 72.5552 46.5441Z" fill="white"/>
<path fill-rule="evenodd" clip-rule="evenodd" d="M77.9745 53.9226C77.9745 52.0626 79.4823 50.5549 81.3423 50.5549C83.2022 50.5549 84.71 52.0626 84.71 53.9226C84.71 55.7826 83.2022 57.2903 81.3423 57.2903C79.4823 57.2903 77.9745 55.7826 77.9745 53.9226ZM81.3423 52.3099C80.4516 52.3099 79.7295 53.0319 79.7295 53.9226C79.7295 54.8133 80.4516 55.5353 81.3423 55.5353C82.233 55.5353 82.955 54.8133 82.955 53.9226C82.955 53.0319 82.233 52.3099 81.3423 52.3099Z" fill="white"/>
<path d="M81.142 46.1412C81.4041 45.7336 81.2861 45.1906 80.8784 44.9286C80.4708 44.6665 79.9278 44.7845 79.6658 45.1921L72.7572 55.9381C72.4951 56.3457 72.6131 56.8887 73.0207 57.1507C73.4284 57.4128 73.9713 57.2948 74.2334 56.8872L81.142 46.1412Z" fill="white"/>
</g>
</g>
<defs>
<clipPath id="clip0_3769_8285">
<rect x="0.5" width="100" height="100" rx="8" fill="white"/>
</clipPath>
</defs>
</svg>
