<svg width="540" height="279" viewBox="0 0 540 279" fill="none" xmlns="http://www.w3.org/2000/svg">
<path d="M80.2542 110.624V128.072L77.7102 128.048V113.336L74.6382 115.04L73.5822 112.904L77.7342 110.624H80.2542ZM91.2464 110.624V128.072L88.7024 128.048V113.336L85.6304 115.04L84.5744 112.904L88.7264 110.624H91.2464ZM95.1337 125.84C98.6377 122.48 103.414 119.072 103.414 116.12C103.414 114.152 102.166 112.76 100.39 112.76C99.0217 112.76 97.6537 113.744 97.0297 115.16L94.7977 114.176C95.7577 111.968 98.0857 110.432 100.39 110.432C103.678 110.432 105.958 112.784 105.958 116.12C105.958 119.792 101.974 123.056 98.7337 125.84H106.246V128.072H95.3737L95.1337 125.84Z" fill="#15151A"/>
<path d="M52 158C52 155.791 53.7909 154 56 154H124C126.209 154 128 155.791 128 158V234H52V158Z" fill="url(#paint0_linear_3821_3446)"/>
<path d="M69.1969 269.38C71.8249 266.86 75.4069 264.304 75.4069 262.09C75.4069 260.614 74.4709 259.57 73.1389 259.57C72.1129 259.57 71.0869 260.308 70.6189 261.37L68.9449 260.632C69.6649 258.976 71.4109 257.824 73.1389 257.824C75.6049 257.824 77.3149 259.588 77.3149 262.09C77.3149 264.844 74.3269 267.292 71.8969 269.38H77.5309V271.054H69.3769L69.1969 269.38ZM84.212 269.488C86.012 269.488 87.218 267.472 87.218 264.502C87.218 261.514 86.012 259.498 84.212 259.498C82.412 259.498 81.188 261.514 81.188 264.502C81.188 267.472 82.412 269.488 84.212 269.488ZM79.28 264.502C79.28 260.578 81.314 257.824 84.212 257.824C87.092 257.824 89.126 260.578 89.126 264.502C89.126 268.408 87.092 271.18 84.212 271.18C81.314 271.18 79.28 268.408 79.28 264.502ZM91.152 269.38C93.78 266.86 97.362 264.304 97.362 262.09C97.362 260.614 96.426 259.57 95.094 259.57C94.068 259.57 93.042 260.308 92.574 261.37L90.9 260.632C91.62 258.976 93.366 257.824 95.094 257.824C97.56 257.824 99.27 259.588 99.27 262.09C99.27 264.844 96.282 267.292 93.852 269.38H99.486V271.054H91.332L91.152 269.38ZM106.167 269.488C107.967 269.488 109.173 267.472 109.173 264.502C109.173 261.514 107.967 259.498 106.167 259.498C104.367 259.498 103.143 261.514 103.143 264.502C103.143 267.472 104.367 269.488 106.167 269.488ZM101.235 264.502C101.235 260.578 103.269 257.824 106.167 257.824C109.047 257.824 111.081 260.578 111.081 264.502C111.081 268.408 109.047 271.18 106.167 271.18C103.269 271.18 101.235 268.408 101.235 264.502Z" fill="#3F3F46"/>
<path d="M250.489 25.84C253.993 22.48 258.769 19.072 258.769 16.12C258.769 14.152 257.521 12.76 255.745 12.76C254.377 12.76 253.009 13.744 252.385 15.16L250.153 14.176C251.113 11.968 253.441 10.432 255.745 10.432C259.033 10.432 261.313 12.784 261.313 16.12C261.313 19.792 257.329 23.056 254.089 25.84H261.601V28.072H250.729L250.489 25.84ZM267.197 20.248L264.653 19.936L265.253 10.6H274.589V12.832H267.701L267.413 17.104C268.205 16.744 269.093 16.528 269.885 16.528C273.485 16.528 276.029 18.952 276.029 22.384C276.029 25.864 273.485 28.312 269.885 28.312C267.053 28.312 264.605 26.416 263.981 23.728L266.453 23.152C266.813 24.76 268.229 25.912 269.885 25.912C271.997 25.912 273.485 24.448 273.485 22.384C273.485 20.368 271.997 18.928 269.885 18.928C268.997 18.928 267.893 19.48 267.197 20.248ZM278.755 25.84C282.259 22.48 287.035 19.072 287.035 16.12C287.035 14.152 285.787 12.76 284.011 12.76C282.643 12.76 281.275 13.744 280.651 15.16L278.419 14.176C279.379 11.968 281.707 10.432 284.011 10.432C287.299 10.432 289.579 12.784 289.579 16.12C289.579 19.792 285.595 23.056 282.355 25.84H289.867V28.072H278.995L278.755 25.84Z" fill="#15151A"/>
<path d="M232 58C232 55.7909 233.791 54 236 54H304C306.209 54 308 55.7909 308 58V234H232V58Z" fill="url(#paint1_linear_3821_3446)"/>
<path d="M251.227 269.38C253.855 266.86 257.437 264.304 257.437 262.09C257.437 260.614 256.501 259.57 255.169 259.57C254.143 259.57 253.117 260.308 252.649 261.37L250.975 260.632C251.695 258.976 253.441 257.824 255.169 257.824C257.635 257.824 259.345 259.588 259.345 262.09C259.345 264.844 256.357 267.292 253.927 269.38H259.561V271.054H251.407L251.227 269.38ZM266.242 269.488C268.042 269.488 269.248 267.472 269.248 264.502C269.248 261.514 268.042 259.498 266.242 259.498C264.442 259.498 263.218 261.514 263.218 264.502C263.218 267.472 264.442 269.488 266.242 269.488ZM261.31 264.502C261.31 260.578 263.344 257.824 266.242 257.824C269.122 257.824 271.156 260.578 271.156 264.502C271.156 268.408 269.122 271.18 266.242 271.18C263.344 271.18 261.31 268.408 261.31 264.502ZM273.182 269.38C275.81 266.86 279.392 264.304 279.392 262.09C279.392 260.614 278.456 259.57 277.124 259.57C276.098 259.57 275.072 260.308 274.604 261.37L272.93 260.632C273.65 258.976 275.396 257.824 277.124 257.824C279.59 257.824 281.3 259.588 281.3 262.09C281.3 264.844 278.312 267.292 275.882 269.38H281.516V271.054H273.362L273.182 269.38ZM288.161 257.968V271.054L286.253 271.036V260.002L283.949 261.28L283.157 259.678L286.271 257.968H288.161Z" fill="#3F3F46"/>
<path d="M438.965 67.624V85.072L436.421 85.048V70.336L433.349 72.04L432.293 69.904L436.445 67.624H438.965ZM446.836 85.12H444.052L450.892 69.76L442.876 69.784V67.528H453.436L453.676 69.76L446.836 85.12ZM456.423 82.84C459.927 79.48 464.703 76.072 464.703 73.12C464.703 71.152 463.455 69.76 461.679 69.76C460.311 69.76 458.943 70.744 458.319 72.16L456.087 71.176C457.047 68.968 459.375 67.432 461.679 67.432C464.967 67.432 467.247 69.784 467.247 73.12C467.247 76.792 463.263 80.056 460.023 82.84H467.535V85.072H456.663L456.423 82.84Z" fill="#15151A"/>
<path d="M412 115C412 112.791 413.791 111 416 111H484C486.209 111 488 112.791 488 115V234H412V115Z" fill="url(#paint2_linear_3821_3446)"/>
<path d="M429.803 269.38C432.431 266.86 436.013 264.304 436.013 262.09C436.013 260.614 435.077 259.57 433.745 259.57C432.719 259.57 431.693 260.308 431.225 261.37L429.551 260.632C430.271 258.976 432.017 257.824 433.745 257.824C436.211 257.824 437.921 259.588 437.921 262.09C437.921 264.844 434.933 267.292 432.503 269.38H438.137V271.054H429.983L429.803 269.38ZM444.818 269.488C446.618 269.488 447.824 267.472 447.824 264.502C447.824 261.514 446.618 259.498 444.818 259.498C443.018 259.498 441.794 261.514 441.794 264.502C441.794 267.472 443.018 269.488 444.818 269.488ZM439.886 264.502C439.886 260.578 441.92 257.824 444.818 257.824C447.698 257.824 449.732 260.578 449.732 264.502C449.732 268.408 447.698 271.18 444.818 271.18C441.92 271.18 439.886 268.408 439.886 264.502ZM451.758 269.38C454.386 266.86 457.968 264.304 457.968 262.09C457.968 260.614 457.032 259.57 455.7 259.57C454.674 259.57 453.648 260.308 453.18 261.37L451.506 260.632C452.226 258.976 453.972 257.824 455.7 257.824C458.166 257.824 459.876 259.588 459.876 262.09C459.876 264.844 456.888 267.292 454.458 269.38H460.092V271.054H451.938L451.758 269.38ZM462.13 269.38C464.758 266.86 468.34 264.304 468.34 262.09C468.34 260.614 467.404 259.57 466.072 259.57C465.046 259.57 464.02 260.308 463.552 261.37L461.878 260.632C462.598 258.976 464.344 257.824 466.072 257.824C468.538 257.824 470.248 259.588 470.248 262.09C470.248 264.844 467.26 267.292 464.83 269.38H470.464V271.054H462.31L462.13 269.38Z" fill="#3F3F46"/>
<defs>
<linearGradient id="paint0_linear_3821_3446" x1="90" y1="154" x2="90" y2="234" gradientUnits="userSpaceOnUse">
<stop stop-color="#F47725"/>
<stop offset="1" stop-color="#F47725" stop-opacity="0.4"/>
</linearGradient>
<linearGradient id="paint1_linear_3821_3446" x1="270" y1="54" x2="270" y2="234" gradientUnits="userSpaceOnUse">
<stop stop-color="#F47725"/>
<stop offset="1" stop-color="#F47725" stop-opacity="0.4"/>
</linearGradient>
<linearGradient id="paint2_linear_3821_3446" x1="450" y1="111" x2="450" y2="234" gradientUnits="userSpaceOnUse">
<stop stop-color="#F47725"/>
<stop offset="1" stop-color="#F47725" stop-opacity="0.4"/>
</linearGradient>
</defs>
</svg>
