<svg width="580" height="270" viewBox="0 0 580 270" fill="none" xmlns="http://www.w3.org/2000/svg">
<rect x="6" width="568" height="80" rx="16" fill="#9735D0"/>
<path d="M246.66 41.46H262.78V43.26H255.82V48.64H253.6V43.26H246.66V41.46ZM248.74 39.98V31.58H260.86V33.32H250.9V34.88H260.48V36.58H250.9V38.22H261.06V39.98H248.74ZM264.46 32.56H274.18V34.38H270.48V35.86C270.48 38.6 272.12 41.76 274.9 43.06L273.68 44.8C271.68 43.84 270.22 41.94 269.42 39.74C268.62 42.16 267.1 44.24 265.06 45.24L263.8 43.5C266.58 42.16 268.3 38.82 268.3 35.86V34.38H264.46V32.56ZM275.78 48.62V30.82H278V37.76H280.7V39.58H278V48.62H275.78ZM287.401 31.56C290.081 31.56 292.021 33.1 292.021 35.32C292.021 37.5 290.081 39.06 287.401 39.06C284.741 39.06 282.781 37.5 282.781 35.32C282.781 33.1 284.741 31.56 287.401 31.56ZM281.641 40.28C284.821 40.28 289.261 40.26 293.101 39.66L293.241 41.28C291.701 41.58 290.121 41.76 288.581 41.88V48.06H286.381V42.02C284.761 42.08 283.241 42.1 281.901 42.1L281.641 40.28ZM284.901 35.32C284.901 36.52 285.961 37.26 287.401 37.26C288.861 37.26 289.921 36.52 289.921 35.32C289.921 34.1 288.861 33.36 287.401 33.36C285.961 33.36 284.901 34.1 284.901 35.32ZM294.201 48.62V30.8H296.401V48.62H294.201ZM311.721 30.8H313.921V44.32H311.721V42.74H308.281V41.22H311.721V30.8ZM299.021 38.82C302.281 38.8 306.641 38.76 310.421 38.3L310.541 39.86C309.101 40.1 307.581 40.26 306.101 40.36V43.78H303.901V40.48C302.261 40.56 300.681 40.58 299.301 40.58L299.021 38.82ZM300.341 34.6C300.341 32.72 302.161 31.46 304.761 31.46C307.381 31.46 309.181 32.72 309.181 34.6C309.181 36.52 307.381 37.76 304.761 37.76C302.161 37.76 300.341 36.52 300.341 34.6ZM301.361 48.26V43.02H303.561V46.5H314.341V48.26H301.361ZM302.441 34.6C302.441 35.58 303.401 36.14 304.761 36.14C306.161 36.14 307.081 35.58 307.081 34.6C307.081 33.62 306.161 33.06 304.761 33.06C303.401 33.06 302.441 33.62 302.441 34.6ZM329.102 30.82H331.282V48.62H329.102V30.82ZM316.682 43.68C318.062 43.68 319.642 43.68 321.302 43.64V41.98C319.322 41.66 318.042 40.44 318.042 38.74C318.042 36.74 319.802 35.42 322.402 35.42C324.982 35.42 326.782 36.74 326.782 38.74C326.782 40.44 325.482 41.66 323.502 41.98V43.56C325.062 43.48 326.622 43.36 328.102 43.16L328.242 44.74C324.342 45.46 320.142 45.48 316.942 45.48L316.682 43.68ZM317.022 34.58V32.86H321.302V30.86H323.502V32.86H327.782V34.58H317.022ZM320.122 38.74C320.122 39.78 321.062 40.4 322.402 40.4C323.762 40.4 324.682 39.78 324.682 38.74C324.682 37.7 323.762 37.08 322.402 37.08C321.062 37.08 320.122 37.7 320.122 38.74Z" fill="white"/>
<g filter="url(#filter0_d_4103_3138)">
<rect x="6" y="96" width="568" height="167" rx="16" fill="white"/>
<path d="M41.5022 150.43C41.5022 149.626 41.6942 149.056 42.0782 148.72C42.4622 148.372 42.9362 148.198 43.5002 148.198C44.0522 148.198 44.5202 148.372 44.9042 148.72C45.3002 149.056 45.4982 149.626 45.4982 150.43C45.4982 151.222 45.3002 151.792 44.9042 152.14C44.5202 152.488 44.0522 152.662 43.5002 152.662C42.9362 152.662 42.4622 152.488 42.0782 152.14C41.6942 151.792 41.5022 151.222 41.5022 150.43ZM62.832 143.248C65.19 143.248 66.9 144.58 66.9 146.524C66.9 148.45 65.19 149.8 62.832 149.8C60.492 149.8 58.782 148.45 58.782 146.524C58.782 144.58 60.492 143.248 62.832 143.248ZM57.648 151.078C60.564 151.078 64.56 151.042 68.034 150.502L68.142 151.672C66.684 151.942 65.172 152.104 63.696 152.212V157.864H62.13V152.302C60.582 152.374 59.124 152.392 57.846 152.392L57.648 151.078ZM60.276 146.524C60.276 147.712 61.356 148.504 62.832 148.504C64.326 148.504 65.406 147.712 65.406 146.524C65.406 145.336 64.326 144.526 62.832 144.526C61.356 144.526 60.276 145.336 60.276 146.524ZM69.132 158.368V142.51H70.68V158.368H69.132ZM84.8464 142.51H86.4124V154.57H84.8464V152.968H81.6784V151.852H84.8464V142.51ZM73.3084 149.8C76.2424 149.782 80.1484 149.746 83.5324 149.332L83.6224 150.448C82.2544 150.682 80.8324 150.826 79.4104 150.916V154.012H77.8444V150.988C76.2964 151.06 74.8024 151.078 73.5244 151.078L73.3084 149.8ZM74.5504 145.912C74.5504 144.238 76.1344 143.14 78.4564 143.14C80.7784 143.14 82.3624 144.238 82.3624 145.912C82.3624 147.604 80.7784 148.684 78.4564 148.684C76.1344 148.684 74.5504 147.604 74.5504 145.912ZM75.5224 158.008V153.4H77.0884V156.748H86.8084V158.008H75.5224ZM76.0264 145.912C76.0264 146.902 77.0344 147.514 78.4564 147.514C79.8964 147.514 80.8684 146.902 80.8684 145.912C80.8684 144.922 79.8964 144.292 78.4564 144.292C77.0344 144.292 76.0264 144.922 76.0264 145.912ZM95.2233 146.542C95.7453 146.542 96.1053 146.92 96.1053 147.424C96.1053 147.946 95.7453 148.324 95.2233 148.324C94.7013 148.324 94.3233 147.946 94.3233 147.424C94.3233 146.92 94.7013 146.542 95.2233 146.542ZM94.3233 153.49C94.3233 152.968 94.7013 152.608 95.2233 152.608C95.7453 152.608 96.1053 152.968 96.1053 153.49C96.1053 154.012 95.7453 154.39 95.2233 154.39C94.7013 154.39 94.3233 154.012 94.3233 153.49ZM109.777 157.198C105.979 157.198 103.315 154.426 103.315 150.502C103.315 146.56 105.979 143.806 109.777 143.806C111.577 143.806 113.179 144.58 114.349 145.768L113.341 146.668C112.459 145.714 111.145 145.138 109.777 145.138C106.861 145.138 104.845 147.334 104.845 150.502C104.845 153.67 106.861 155.866 109.777 155.866C111.181 155.866 112.423 155.272 113.287 154.354L114.349 155.236C113.179 156.424 111.595 157.198 109.777 157.198ZM124.953 143.95V145.282H118.239V149.638H124.035V150.97H118.239V155.722H124.953V157.054H116.727V143.95H124.953ZM133.667 155.866C136.601 155.866 138.617 153.67 138.617 150.502C138.617 147.334 136.601 145.138 133.667 145.138C130.751 145.138 128.735 147.334 128.735 150.502C128.735 153.67 130.751 155.866 133.667 155.866ZM127.205 150.502C127.205 146.578 129.887 143.806 133.667 143.806C137.465 143.806 140.147 146.578 140.147 150.502C140.147 154.426 137.465 157.198 133.667 157.198C129.887 157.198 127.205 154.426 127.205 150.502ZM144.484 155.542L143.422 159.142H142.306L142.9 155.542H144.484ZM155.298 143.878H156.828V146.632C156.828 149.422 158.502 152.32 160.806 153.454L159.852 154.678C158.142 153.778 156.774 151.978 156.072 149.818C155.37 152.122 153.948 154.048 152.166 155.002L151.212 153.742C153.57 152.572 155.298 149.53 155.298 146.632V143.878ZM162.084 158.368V142.528H163.65V148.882H166.224V150.214H163.65V158.368H162.084ZM171.498 143.248C173.604 143.248 175.206 144.436 175.53 146.254H178.662V142.528H180.228V151.006H178.662V147.532H175.53C175.242 149.368 173.622 150.61 171.498 150.61C169.122 150.61 167.394 149.098 167.394 146.92C167.394 144.742 169.122 143.248 171.498 143.248ZM168.888 146.92C168.888 148.324 169.968 149.296 171.498 149.296C173.01 149.296 174.09 148.324 174.09 146.92C174.09 145.498 173.01 144.544 171.498 144.544C169.968 144.544 168.888 145.498 168.888 146.92ZM170.04 158.152V151.798H171.588V153.706H178.68V151.798H180.228V158.152H170.04ZM171.588 156.892H178.68V154.948H171.588V156.892ZM182.911 150.682H189.283V148.792H190.849V150.682H197.221V151.942H182.911V150.682ZM183.703 148.36C186.745 148.108 189.049 146.92 189.211 145.282H184.369V144.04H189.283V142.492H190.849V144.04H195.781V145.282H190.921C191.083 146.92 193.369 148.108 196.411 148.36L195.943 149.566C193.279 149.296 191.029 148.396 190.057 146.866C189.085 148.396 186.853 149.296 184.189 149.566L183.703 148.36ZM184.621 155.704C184.621 153.994 186.619 153.076 190.057 153.076C193.477 153.076 195.493 153.994 195.493 155.704C195.493 157.396 193.477 158.332 190.057 158.332C186.619 158.332 184.621 157.396 184.621 155.704ZM186.187 155.704C186.187 156.64 187.591 157.162 190.057 157.162C192.505 157.162 193.909 156.64 193.909 155.704C193.909 154.75 192.505 154.246 190.057 154.246C187.591 154.246 186.187 154.75 186.187 155.704ZM199.489 143.356H207.355V144.148C207.355 145.048 207.355 146.434 206.977 148.162L205.465 148.018C205.789 146.542 205.825 145.444 205.843 144.598H199.489V143.356ZM198.535 149.368C199.543 149.368 200.641 149.368 201.811 149.35V146.542H203.341V149.296C205.051 149.242 206.815 149.134 208.417 148.936L208.525 150.016C205.267 150.556 201.523 150.628 198.697 150.628L198.535 149.368ZM200.605 152.878V151.708H211.009V155.416H202.171V157H211.585V158.188H200.623V154.3H209.443V152.878H200.605ZM209.443 151.042V142.51H211.009V146.218H213.223V147.496H211.009V151.042H209.443ZM218.227 143.878H219.757V146.632C219.757 149.422 221.431 152.32 223.735 153.454L222.781 154.678C221.071 153.778 219.703 151.978 219.001 149.818C218.299 152.122 216.877 154.048 215.095 155.002L214.141 153.742C216.499 152.572 218.227 149.53 218.227 146.632V143.878ZM225.013 158.368V142.528H226.579V148.882H229.153V150.214H226.579V158.368H225.013ZM230.486 143.662H238.982V144.94H235.526V145.462C235.526 147.496 236.966 149.35 239.324 150.124L238.586 151.33C236.786 150.736 235.472 149.53 234.788 147.982C234.104 149.764 232.7 151.168 230.81 151.834L230.036 150.592C232.448 149.764 233.978 147.712 233.978 145.462V144.94H230.486V143.662ZM232.142 155.38C232.142 153.526 234.14 152.464 237.362 152.464C240.602 152.464 242.582 153.526 242.582 155.38C242.582 157.252 240.602 158.332 237.362 158.332C234.14 158.332 232.142 157.252 232.142 155.38ZM233.672 155.38C233.672 156.478 235.058 157.108 237.362 157.108C239.666 157.108 241.052 156.478 241.052 155.38C241.052 154.3 239.666 153.688 237.362 153.688C235.058 153.688 233.672 154.3 233.672 155.38ZM240.854 152.05V142.528H242.42V146.506H244.742V147.784H242.42V152.05H240.854ZM248.072 155.542L247.01 159.142H245.894L246.488 155.542H248.072ZM262.468 148.684H266.518V146.65H262.63C261.622 149.188 259.228 151.006 255.844 151.996L255.214 150.754C258.994 149.674 261.226 147.604 261.496 144.958H256.042V143.68H263.188C263.188 144.274 263.134 144.85 263.026 145.39H266.518V142.51H268.084V151.96H266.518V149.944H262.468V148.684ZM257.662 155.218C257.662 153.292 259.696 152.14 262.918 152.14C266.104 152.14 268.156 153.292 268.156 155.218C268.156 157.126 266.104 158.278 262.918 158.278C259.696 158.278 257.662 157.126 257.662 155.218ZM259.21 155.218C259.21 156.37 260.65 157.054 262.918 157.054C265.204 157.054 266.626 156.37 266.626 155.218C266.626 154.048 265.204 153.364 262.918 153.364C260.65 153.364 259.21 154.048 259.21 155.218ZM275.086 143.446C276.4 143.446 277.534 143.95 278.272 144.778H282.25V142.528H283.816V151.87H282.25V149.692H278.254C277.516 150.52 276.382 151.006 275.086 151.006C272.746 151.006 270.982 149.44 270.982 147.226C270.982 145.012 272.746 143.446 275.086 143.446ZM272.476 147.226C272.476 148.666 273.592 149.674 275.086 149.674C276.58 149.674 277.678 148.666 277.678 147.226C277.678 145.768 276.58 144.778 275.086 144.778C273.592 144.778 272.476 145.768 272.476 147.226ZM273.286 155.29C273.286 153.364 275.302 152.248 278.578 152.248C281.836 152.248 283.87 153.364 283.87 155.29C283.87 157.216 281.836 158.332 278.578 158.332C275.302 158.332 273.286 157.216 273.286 155.29ZM274.816 155.29C274.816 156.442 276.238 157.108 278.578 157.108C280.936 157.108 282.34 156.442 282.34 155.29C282.34 154.138 280.936 153.472 278.578 153.472C276.238 153.472 274.816 154.138 274.816 155.29ZM278.992 148.414H282.25V146.038H278.992C279.1 146.398 279.172 146.812 279.172 147.226C279.172 147.64 279.1 148.054 278.992 148.414ZM286.984 144.13H295.84V145.426H292.186V147.28C292.186 149.962 294.022 152.68 296.38 153.688L295.498 154.93C293.68 154.084 292.168 152.32 291.43 150.178C290.692 152.464 289.198 154.426 287.362 155.326L286.462 154.084C288.784 152.986 290.62 150.016 290.62 147.28V145.426H286.984V144.13ZM297.892 158.368V142.528H299.458V158.368H297.892ZM313.661 142.51H315.227V154.57H313.661V152.968H310.493V151.852H313.661V142.51ZM302.123 149.8C305.057 149.782 308.963 149.746 312.347 149.332L312.437 150.448C311.069 150.682 309.647 150.826 308.225 150.916V154.012H306.659V150.988C305.111 151.06 303.617 151.078 302.339 151.078L302.123 149.8ZM303.365 145.912C303.365 144.238 304.949 143.14 307.271 143.14C309.593 143.14 311.177 144.238 311.177 145.912C311.177 147.604 309.593 148.684 307.271 148.684C304.949 148.684 303.365 147.604 303.365 145.912ZM304.337 158.008V153.4H305.903V156.748H315.623V158.008H304.337ZM304.841 145.912C304.841 146.902 305.849 147.514 307.271 147.514C308.711 147.514 309.683 146.902 309.683 145.912C309.683 144.922 308.711 144.292 307.271 144.292C305.849 144.292 304.841 144.922 304.841 145.912ZM319.853 143.14H321.401V145.066H328.853V143.14H330.419V149.494H325.883V151.132H332.273V152.392H317.963V151.132H324.335V149.494H319.853V143.14ZM319.799 158.026V153.634H321.347V156.748H330.689V158.026H319.799ZM321.401 148.252H328.853V146.29H321.401V148.252ZM333.696 151.888H348.042V153.148H341.598V158.368H340.05V153.148H333.696V151.888ZM335.478 150.034V143.176H337.026V145.282H344.676V143.176H346.224V150.034H335.478ZM337.026 148.774H344.676V146.524H337.026V148.774ZM349.806 143.662H358.302V144.94H354.846V145.462C354.846 147.496 356.286 149.35 358.644 150.124L357.906 151.33C356.106 150.736 354.792 149.53 354.108 147.982C353.424 149.764 352.02 151.168 350.13 151.834L349.356 150.592C351.768 149.764 353.298 147.712 353.298 145.462V144.94H349.806V143.662ZM351.462 155.38C351.462 153.526 353.46 152.464 356.682 152.464C359.922 152.464 361.902 153.526 361.902 155.38C361.902 157.252 359.922 158.332 356.682 158.332C353.46 158.332 351.462 157.252 351.462 155.38ZM352.992 155.38C352.992 156.478 354.378 157.108 356.682 157.108C358.986 157.108 360.372 156.478 360.372 155.38C360.372 154.3 358.986 153.688 356.682 153.688C354.378 153.688 352.992 154.3 352.992 155.38ZM360.174 152.05V142.528H361.74V146.506H364.062V147.784H361.74V152.05H360.174ZM367.393 155.542L366.331 159.142H365.215L365.809 155.542H367.393ZM385.784 142.528H387.332V154.102H385.784V142.528ZM374.48 150.628C376.892 149.692 378.422 147.406 378.422 144.994V143.392H379.988V144.994C379.988 147.334 381.5 149.476 383.894 150.34L383.084 151.582C381.284 150.898 379.916 149.512 379.214 147.748C378.53 149.62 377.162 151.132 375.29 151.87L374.48 150.628ZM377.126 158.008V153.04H378.692V156.748H387.818V158.008H377.126ZM394.028 143.41H395.576V144.94C395.576 147.172 397.052 149.152 399.392 149.944L398.546 151.168C396.836 150.52 395.54 149.278 394.856 147.676C394.172 149.512 392.768 150.934 390.86 151.636L390.05 150.376C392.498 149.512 394.028 147.406 394.028 144.994V143.41ZM392.588 155.344C392.588 153.436 394.604 152.338 397.898 152.338C401.174 152.338 403.19 153.436 403.19 155.344C403.19 157.252 401.174 158.332 397.898 158.332C394.604 158.332 392.588 157.252 392.588 155.344ZM394.154 155.344C394.154 156.46 395.54 157.108 397.898 157.108C400.238 157.108 401.642 156.46 401.642 155.344C401.642 154.21 400.238 153.562 397.898 153.562C395.54 153.562 394.154 154.21 394.154 155.344ZM398.186 147.1V145.804H401.552V142.528H403.118V151.87H401.552V147.1H398.186ZM406.197 143.662H414.693V144.94H411.237V145.462C411.237 147.496 412.677 149.35 415.035 150.124L414.297 151.33C412.497 150.736 411.183 149.53 410.499 147.982C409.815 149.764 408.411 151.168 406.521 151.834L405.747 150.592C408.159 149.764 409.689 147.712 409.689 145.462V144.94H406.197V143.662ZM407.853 155.38C407.853 153.526 409.851 152.464 413.073 152.464C416.313 152.464 418.293 153.526 418.293 155.38C418.293 157.252 416.313 158.332 413.073 158.332C409.851 158.332 407.853 157.252 407.853 155.38ZM409.383 155.38C409.383 156.478 410.769 157.108 413.073 157.108C415.377 157.108 416.763 156.478 416.763 155.38C416.763 154.3 415.377 153.688 413.073 153.688C410.769 153.688 409.383 154.3 409.383 155.38ZM416.565 152.05V142.528H418.131V146.506H420.453V147.784H418.131V152.05H416.565ZM421.551 152.068H435.879V153.364H429.489V158.386H427.923V153.364H421.551V152.068ZM422.433 149.692C425.349 149.296 427.869 147.604 427.923 145.714H422.919V144.454H427.923V142.528H429.489V144.454H434.493V145.714H429.489C429.543 147.568 432.063 149.296 434.961 149.692L434.403 150.934C431.919 150.574 429.723 149.368 428.715 147.694C427.707 149.368 425.511 150.574 422.991 150.934L422.433 149.692ZM437.896 143.788H446.554V145.066H443.026V145.84C443.026 147.946 444.628 149.872 446.986 150.664L446.194 151.888C444.376 151.276 442.972 149.98 442.27 148.342C441.586 150.106 440.164 151.51 438.274 152.176L437.464 150.952C439.876 150.106 441.442 148.054 441.442 145.84V145.066H437.896V143.788ZM440.056 158.008V153.004H441.604V156.748H450.748V158.008H440.056ZM448.714 154.102V142.528H450.28V154.102H448.714ZM454.906 143.14H456.454V145.066H463.906V143.14H465.472V149.494H460.936V151.132H467.326V152.392H453.016V151.132H459.388V149.494H454.906V143.14ZM454.852 158.026V153.634H456.4V156.748H465.742V158.026H454.852ZM456.454 148.252H463.906V146.29H456.454V148.252ZM468.748 151.888H483.094V153.148H476.65V158.368H475.102V153.148H468.748V151.888ZM470.53 150.034V143.176H472.078V145.282H479.728V143.176H481.276V150.034H470.53ZM472.078 148.774H479.728V146.524H472.078V148.774ZM484.859 143.662H493.355V144.94H489.899V145.462C489.899 147.496 491.339 149.35 493.697 150.124L492.959 151.33C491.159 150.736 489.845 149.53 489.161 147.982C488.477 149.764 487.073 151.168 485.183 151.834L484.409 150.592C486.821 149.764 488.351 147.712 488.351 145.462V144.94H484.859V143.662ZM486.515 155.38C486.515 153.526 488.513 152.464 491.735 152.464C494.975 152.464 496.955 153.526 496.955 155.38C496.955 157.252 494.975 158.332 491.735 158.332C488.513 158.332 486.515 157.252 486.515 155.38ZM488.045 155.38C488.045 156.478 489.431 157.108 491.735 157.108C494.039 157.108 495.425 156.478 495.425 155.38C495.425 154.3 494.039 153.688 491.735 153.688C489.431 153.688 488.045 154.3 488.045 155.38ZM495.227 152.05V142.528H496.793V146.506H499.115V147.784H496.793V152.05H495.227ZM502.445 155.542L501.383 159.142H500.267L500.861 155.542H502.445ZM69.132 171.51H70.698V187.35H69.132V171.51ZM57.846 183.192C62.058 181.176 64.128 178.206 64.434 174.48H58.584V173.202H66.018C66.018 177.828 64.02 181.842 58.674 184.434L57.846 183.192ZM73.9924 172.914H77.8264V171.402H79.4104V172.914H83.2444V174.084H73.9924V172.914ZM73.4884 180.456C74.7844 180.456 76.2784 180.456 77.8264 180.402V179.34C76.0084 179.142 74.8384 178.278 74.8384 177.018C74.8384 175.578 76.3504 174.66 78.6364 174.66C80.9044 174.66 82.4164 175.578 82.4164 177.018C82.4164 178.296 81.2464 179.142 79.4104 179.34V180.33C80.8324 180.258 82.2724 180.132 83.6044 179.952L83.7124 181.05C80.2924 181.626 76.5124 181.68 73.6864 181.68L73.4884 180.456ZM75.7204 184.11V182.868H86.3764V187.368H84.8284V184.11H75.7204ZM76.3144 177.018C76.3144 177.792 77.2324 178.296 78.6364 178.296C80.0224 178.296 80.9224 177.792 80.9224 177.018C80.9224 176.208 80.0224 175.74 78.6364 175.74C77.2324 175.74 76.3144 176.208 76.3144 177.018ZM84.8284 182.166V171.528H86.3764V182.166H84.8284ZM101.173 171.51H102.667V187.35H101.173V179.16H99.1928V186.558H97.7348V171.852H99.1928V177.864H101.173V171.51ZM88.9508 182.94C91.2188 181.644 92.3528 178.944 92.3528 175.74V174.642H89.3468V173.346H96.6548V174.642H93.8468V175.74C93.8468 178.638 94.9808 181.212 97.2128 182.364L96.2948 183.57C94.7468 182.724 93.7028 181.23 93.1448 179.376C92.6048 181.5 91.5428 183.174 89.9228 184.146L88.9508 182.94ZM104.881 180.672H119.227V181.95H112.783V187.386H111.235V181.95H104.881V180.672ZM106.681 178.584V172.392H117.391V178.584H106.681ZM108.211 177.36H115.861V173.652H108.211V177.36ZM132.044 171.528H133.592V179.682H132.044V171.528ZM120.686 178.332C123.098 177.504 124.682 175.416 124.682 173.166V171.96H126.248V173.166C126.248 175.326 127.832 177.288 130.208 178.062L129.434 179.268C127.598 178.638 126.194 177.36 125.474 175.704C124.79 177.486 123.35 178.89 121.46 179.574L120.686 178.332ZM123.332 181.716V180.474H133.592V184.344H124.88V185.946H134.132V187.188H123.368V183.192H132.062V181.716H123.332ZM136.724 172.662H145.22V173.94H141.764V174.462C141.764 176.496 143.204 178.35 145.562 179.124L144.824 180.33C143.024 179.736 141.71 178.53 141.026 176.982C140.342 178.764 138.938 180.168 137.048 180.834L136.274 179.592C138.686 178.764 140.216 176.712 140.216 174.462V173.94H136.724V172.662ZM138.38 184.38C138.38 182.526 140.378 181.464 143.6 181.464C146.84 181.464 148.82 182.526 148.82 184.38C148.82 186.252 146.84 187.332 143.6 187.332C140.378 187.332 138.38 186.252 138.38 184.38ZM139.91 184.38C139.91 185.478 141.296 186.108 143.6 186.108C145.904 186.108 147.29 185.478 147.29 184.38C147.29 183.3 145.904 182.688 143.6 182.688C141.296 182.688 139.91 183.3 139.91 184.38ZM147.092 181.05V171.528H148.658V175.506H150.98V176.784H148.658V181.05H147.092ZM154.311 184.542L153.249 188.142H152.133L152.727 184.542H154.311ZM172.648 171.528H174.196V187.368H172.648V171.528ZM161.344 183.084C162.658 183.084 164.152 183.084 165.7 183.03V181.374C163.846 181.14 162.658 180.06 162.658 178.494C162.658 176.712 164.188 175.56 166.474 175.56C168.742 175.56 170.308 176.712 170.308 178.494C170.308 180.06 169.102 181.14 167.266 181.374V182.976C168.76 182.904 170.254 182.778 171.658 182.598L171.766 183.75C168.256 184.362 164.44 184.398 161.56 184.398L161.344 183.084ZM161.668 174.678V173.436H165.7V171.528H167.266V173.436H171.28V174.678H161.668ZM164.134 178.494C164.134 179.556 165.088 180.222 166.474 180.222C167.878 180.222 168.814 179.556 168.814 178.494C168.814 177.432 167.878 176.748 166.474 176.748C165.088 176.748 164.134 177.432 164.134 178.494ZM183.016 179.862H185.788V177.162H183.286C182.53 179.844 180.838 182.184 177.85 183.966L176.95 182.832C180.298 180.834 181.954 178.08 182.224 174.786H177.67V173.508H183.754C183.754 174.318 183.7 175.128 183.556 175.902H185.788V171.924H187.264V186.558H185.788V181.122H183.016V179.862ZM188.992 187.35V171.51H190.468V187.35H188.992ZM204.167 171.528H205.715V179.682H204.167V171.528ZM192.809 178.332C195.221 177.504 196.805 175.416 196.805 173.166V171.96H198.371V173.166C198.371 175.326 199.955 177.288 202.331 178.062L201.557 179.268C199.721 178.638 198.317 177.36 197.597 175.704C196.913 177.486 195.473 178.89 193.583 179.574L192.809 178.332ZM195.455 181.716V180.474H205.715V184.344H197.003V185.946H206.255V187.188H195.491V183.192H204.185V181.716H195.455ZM208.847 172.662H217.343V173.94H213.887V174.462C213.887 176.496 215.327 178.35 217.685 179.124L216.947 180.33C215.147 179.736 213.833 178.53 213.149 176.982C212.465 178.764 211.061 180.168 209.171 180.834L208.397 179.592C210.809 178.764 212.339 176.712 212.339 174.462V173.94H208.847V172.662ZM210.503 184.38C210.503 182.526 212.501 181.464 215.723 181.464C218.963 181.464 220.943 182.526 220.943 184.38C220.943 186.252 218.963 187.332 215.723 187.332C212.501 187.332 210.503 186.252 210.503 184.38ZM212.033 184.38C212.033 185.478 213.419 186.108 215.723 186.108C218.027 186.108 219.413 185.478 219.413 184.38C219.413 183.3 218.027 182.688 215.723 182.688C213.419 182.688 212.033 183.3 212.033 184.38ZM219.215 181.05V171.528H220.781V175.506H223.103V176.784H220.781V181.05H219.215ZM226.434 184.542L225.372 188.142H224.256L224.85 184.542H226.434ZM233.881 173.13H242.737V174.426H239.083V176.28C239.083 178.962 240.919 181.68 243.277 182.688L242.395 183.93C240.577 183.084 239.065 181.32 238.327 179.178C237.589 181.464 236.095 183.426 234.259 184.326L233.359 183.084C235.681 181.986 237.517 179.016 237.517 176.28V174.426H233.881V173.13ZM244.789 187.368V171.528H246.355V187.368H244.789ZM249.127 179.43H255.499V177.072H257.047V179.43H263.473V180.69H249.127V179.43ZM249.955 176.676C252.889 176.28 255.499 174.516 255.499 172.446V171.78H257.065V172.446C257.065 174.516 259.657 176.28 262.591 176.676L261.997 177.918C259.531 177.504 257.281 176.28 256.273 174.498C255.283 176.28 253.015 177.504 250.549 177.918L249.955 176.676ZM250.711 183.444V182.184H261.673V187.368H260.125V183.444H250.711ZM272.294 177.684H276.344V175.65H272.456C271.448 178.188 269.054 180.006 265.67 180.996L265.04 179.754C268.82 178.674 271.052 176.604 271.322 173.958H265.868V172.68H273.014C273.014 173.274 272.96 173.85 272.852 174.39H276.344V171.51H277.91V180.96H276.344V178.944H272.294V177.684ZM267.488 184.218C267.488 182.292 269.522 181.14 272.744 181.14C275.93 181.14 277.982 182.292 277.982 184.218C277.982 186.126 275.93 187.278 272.744 187.278C269.522 187.278 267.488 186.126 267.488 184.218ZM269.036 184.218C269.036 185.37 270.476 186.054 272.744 186.054C275.03 186.054 276.452 185.37 276.452 184.218C276.452 183.048 275.03 182.364 272.744 182.364C270.476 182.364 269.036 183.048 269.036 184.218ZM284.912 172.446C286.226 172.446 287.36 172.95 288.098 173.778H292.076V171.528H293.642V180.87H292.076V178.692H288.08C287.342 179.52 286.208 180.006 284.912 180.006C282.572 180.006 280.808 178.44 280.808 176.226C280.808 174.012 282.572 172.446 284.912 172.446ZM282.302 176.226C282.302 177.666 283.418 178.674 284.912 178.674C286.406 178.674 287.504 177.666 287.504 176.226C287.504 174.768 286.406 173.778 284.912 173.778C283.418 173.778 282.302 174.768 282.302 176.226ZM283.112 184.29C283.112 182.364 285.128 181.248 288.404 181.248C291.662 181.248 293.696 182.364 293.696 184.29C293.696 186.216 291.662 187.332 288.404 187.332C285.128 187.332 283.112 186.216 283.112 184.29ZM284.642 184.29C284.642 185.442 286.064 186.108 288.404 186.108C290.762 186.108 292.166 185.442 292.166 184.29C292.166 183.138 290.762 182.472 288.404 182.472C286.064 182.472 284.642 183.138 284.642 184.29ZM288.818 177.414H292.076V175.038H288.818C288.926 175.398 288.998 175.812 288.998 176.226C288.998 176.64 288.926 177.054 288.818 177.414ZM307.755 171.528H309.303V179.682H307.755V171.528ZM296.397 178.332C298.809 177.504 300.393 175.416 300.393 173.166V171.96H301.959V173.166C301.959 175.326 303.543 177.288 305.919 178.062L305.145 179.268C303.309 178.638 301.905 177.36 301.185 175.704C300.501 177.486 299.061 178.89 297.171 179.574L296.397 178.332ZM299.043 181.716V180.474H309.303V184.344H300.591V185.946H309.843V187.188H299.079V183.192H307.773V181.716H299.043ZM312.435 172.662H320.931V173.94H317.475V174.462C317.475 176.496 318.915 178.35 321.273 179.124L320.535 180.33C318.735 179.736 317.421 178.53 316.737 176.982C316.053 178.764 314.649 180.168 312.759 180.834L311.985 179.592C314.397 178.764 315.927 176.712 315.927 174.462V173.94H312.435V172.662ZM314.091 184.38C314.091 182.526 316.089 181.464 319.311 181.464C322.551 181.464 324.531 182.526 324.531 184.38C324.531 186.252 322.551 187.332 319.311 187.332C316.089 187.332 314.091 186.252 314.091 184.38ZM315.621 184.38C315.621 185.478 317.007 186.108 319.311 186.108C321.615 186.108 323.001 185.478 323.001 184.38C323.001 183.3 321.615 182.688 319.311 182.688C317.007 182.688 315.621 183.3 315.621 184.38ZM322.803 181.05V171.528H324.369V175.506H326.691V176.784H324.369V181.05H322.803ZM41.5022 208.43C41.5022 207.626 41.6942 207.056 42.0782 206.72C42.4622 206.372 42.9362 206.198 43.5002 206.198C44.0522 206.198 44.5202 206.372 44.9042 206.72C45.3002 207.056 45.4982 207.626 45.4982 208.43C45.4982 209.222 45.3002 209.792 44.9042 210.14C44.5202 210.488 44.0522 210.662 43.5002 210.662C42.9362 210.662 42.4622 210.488 42.0782 210.14C41.6942 209.792 41.5022 209.222 41.5022 208.43ZM68.43 200.528H69.996V205.262H72.318V206.558H69.996V212.048H68.43V200.528ZM57.684 209.024C61.41 207.89 63.768 205.712 64.056 203.012H58.35V201.734H65.748C65.748 205.856 62.922 208.862 58.35 210.284L57.684 209.024ZM60.078 216.008V210.878H61.644V214.748H70.68V216.008H60.078ZM77.2684 201.878H78.7984V204.632C78.7984 207.422 80.4724 210.32 82.7764 211.454L81.8224 212.678C80.1124 211.778 78.7444 209.978 78.0424 207.818C77.3404 210.122 75.9184 212.048 74.1364 213.002L73.1824 211.742C75.5404 210.572 77.2684 207.53 77.2684 204.632V201.878ZM84.0544 216.368V200.528H85.6204V206.882H88.1944V208.214H85.6204V216.368H84.0544ZM95.2233 204.542C95.7453 204.542 96.1053 204.92 96.1053 205.424C96.1053 205.946 95.7453 206.324 95.2233 206.324C94.7013 206.324 94.3233 205.946 94.3233 205.424C94.3233 204.92 94.7013 204.542 95.2233 204.542ZM94.3233 211.49C94.3233 210.968 94.7013 210.608 95.2233 210.608C95.7453 210.608 96.1053 210.968 96.1053 211.49C96.1053 212.012 95.7453 212.39 95.2233 212.39C94.7013 212.39 94.3233 212.012 94.3233 211.49ZM116.005 208.232C116.005 208.682 115.987 209.258 115.987 209.312C115.987 213.038 113.359 215.126 109.831 215.198C106.051 215.198 103.369 212.426 103.369 208.502C103.369 204.578 106.051 201.824 109.831 201.824C113.917 201.824 115.321 204.992 115.321 204.992L114.007 205.622C114.007 205.622 112.945 203.156 109.831 203.156C106.915 203.156 104.881 205.352 104.881 208.502C104.881 211.67 106.915 213.866 109.831 213.866C112.531 213.776 114.529 212.39 114.547 209.528H110.065V208.232H116.005ZM118.306 202.346H119.8V215.054H118.306V202.346ZM125.69 213.83C127.184 213.83 128.21 212.642 128.21 210.914C128.21 209.186 127.184 207.98 125.69 207.98C124.214 207.98 123.188 209.168 123.188 210.914C123.188 212.66 124.196 213.83 125.69 213.83ZM121.694 210.914C121.694 208.43 123.35 206.648 125.69 206.648C128.048 206.648 129.722 208.43 129.722 210.914C129.722 213.38 128.048 215.162 125.69 215.162C123.35 215.162 121.694 213.38 121.694 210.914ZM135.879 215.198C135.087 215.198 134.025 214.856 133.251 213.722V215.09H131.757V202.346H133.251V208.142C134.025 207.008 135.087 206.684 135.897 206.684C138.237 206.684 139.911 208.448 139.911 210.932C139.911 213.434 138.237 215.198 135.879 215.198ZM133.251 210.932C133.251 212.57 134.421 213.884 135.825 213.884C137.355 213.884 138.417 212.678 138.417 210.932C138.417 209.204 137.355 208.016 135.825 208.016C134.421 208.016 133.251 209.33 133.251 210.932ZM145.606 215.162C143.284 215.162 141.628 213.398 141.628 210.932C141.628 208.448 143.284 206.684 145.606 206.684C146.506 206.684 147.496 207.134 148.216 208.106V206.666H149.71V215.054H148.216V213.704C147.478 214.766 146.506 215.162 145.606 215.162ZM143.122 210.932C143.122 212.642 144.166 213.848 145.66 213.848C147.01 213.848 148.216 212.624 148.234 210.932C148.216 209.24 147.01 207.998 145.66 207.998C144.166 207.998 143.122 209.186 143.122 210.932ZM152.144 202.346H153.638V215.054H152.144V202.346ZM160.554 201.95H162.066V215.054H160.554V201.95ZM170.721 210.23C170.721 208.88 169.929 207.998 168.741 207.998C167.409 207.998 166.473 209.024 166.473 210.23V215.054H164.979V206.666H166.473V207.89C167.049 207.17 167.985 206.666 168.813 206.666C170.649 206.666 172.215 207.926 172.215 210.122V215.054H170.721V210.23ZM182.267 206.666L178.757 215.054H177.389L173.897 206.666H175.535L178.073 213.02L180.611 206.666H182.267ZM187.073 215.126C184.715 215.126 183.059 213.362 183.059 210.896C183.059 208.412 184.715 206.666 187.073 206.666C189.665 206.666 190.457 208.754 190.529 208.952C191.033 210.248 190.871 211.49 190.871 211.544H184.571C184.787 212.876 185.831 213.812 187.073 213.812C188.729 213.812 189.341 212.768 189.467 212.57L190.655 213.182C190.241 214.118 189.053 215.126 187.073 215.126ZM184.571 210.266L189.413 210.248C189.251 208.97 188.621 207.98 187.073 207.98C185.795 207.98 184.787 208.916 184.571 210.266ZM193.828 212.372C194.296 213.38 195.286 213.812 195.916 213.812C196.924 213.812 197.644 213.38 197.644 212.66C197.644 211.976 196.708 211.706 195.772 211.382C194.62 210.986 193 210.482 193 208.88C193 207.458 194.314 206.576 195.988 206.576C196.978 206.576 198.562 207.152 198.958 208.646L197.644 209.096C197.374 208.106 196.474 207.908 195.988 207.908C195.124 207.908 194.494 208.268 194.494 208.88C194.494 209.564 195.358 209.798 196.366 210.14C197.572 210.554 199.138 211.058 199.138 212.66C199.138 214.154 197.77 215.126 195.916 215.126C194.638 215.126 193.306 214.406 192.622 213.092L193.828 212.372ZM202.163 215.054V207.98H200.633V206.648H202.163V203.75H203.675V206.648H205.655V207.98H203.675V215.054H202.163ZM218.44 210.05C218.44 208.826 217.72 207.998 216.676 207.998C215.47 207.998 214.642 208.79 214.642 209.906V215.054H213.13V210.05C213.13 208.826 212.428 207.998 211.402 207.998C210.178 207.998 209.332 209.024 209.332 210.212V215.054H207.838V206.666H209.332V207.872C209.836 207.152 210.664 206.666 211.456 206.666C212.5 206.666 213.526 207.296 214.012 208.214C214.57 207.296 215.668 206.666 216.712 206.666C218.602 206.666 219.952 208.016 219.952 209.942V215.054H218.44V210.05ZM226.149 215.126C223.791 215.126 222.135 213.362 222.135 210.896C222.135 208.412 223.791 206.666 226.149 206.666C228.741 206.666 229.533 208.754 229.605 208.952C230.109 210.248 229.947 211.49 229.947 211.544H223.647C223.863 212.876 224.907 213.812 226.149 213.812C227.805 213.812 228.417 212.768 228.543 212.57L229.731 213.182C229.317 214.118 228.129 215.126 226.149 215.126ZM223.647 210.266L228.489 210.248C228.327 208.97 227.697 207.98 226.149 207.98C224.871 207.98 223.863 208.916 223.647 210.266ZM237.782 210.23C237.782 208.88 236.99 207.998 235.802 207.998C234.47 207.998 233.534 209.024 233.534 210.23V215.054H232.04V206.666H233.534V207.89C234.11 207.17 235.046 206.666 235.874 206.666C237.71 206.666 239.276 207.926 239.276 210.122V215.054H237.782V210.23ZM242.347 215.054V207.98H240.817V206.648H242.347V203.75H243.859V206.648H245.839V207.98H243.859V215.054H242.347ZM265.033 208.232C265.033 208.682 265.015 209.258 265.015 209.312C265.015 213.038 262.387 215.126 258.859 215.198C255.079 215.198 252.397 212.426 252.397 208.502C252.397 204.578 255.079 201.824 258.859 201.824C262.945 201.824 264.349 204.992 264.349 204.992L263.035 205.622C263.035 205.622 261.973 203.156 258.859 203.156C255.943 203.156 253.909 205.352 253.909 208.502C253.909 211.67 255.943 213.866 258.859 213.866C261.559 213.776 263.557 212.39 263.575 209.528H259.093V208.232H265.033ZM267.387 215.054V206.666H268.881V208.052C269.439 207.152 270.573 206.54 271.689 206.594V208.034C270.159 207.98 268.881 209.312 268.881 210.788V215.054H267.387ZM276.739 213.83C278.233 213.83 279.259 212.642 279.259 210.914C279.259 209.186 278.233 207.98 276.739 207.98C275.263 207.98 274.237 209.168 274.237 210.914C274.237 212.66 275.245 213.83 276.739 213.83ZM272.743 210.914C272.743 208.43 274.399 206.648 276.739 206.648C279.097 206.648 280.771 208.43 280.771 210.914C280.771 213.38 279.097 215.162 276.739 215.162C274.399 215.162 272.743 213.38 272.743 210.914ZM284.476 211.544C284.476 212.876 285.286 213.848 286.456 213.848C287.788 213.848 288.706 213.002 288.706 211.67V206.666H290.218V215.054H288.706V213.992C288.148 214.712 287.212 215.18 286.366 215.18C284.386 215.18 282.964 213.686 282.964 211.67V206.666H284.476V211.544ZM296.948 213.83C298.478 213.83 299.504 212.642 299.504 210.896C299.504 209.168 298.478 207.962 296.948 207.962C295.562 207.962 294.392 209.294 294.392 210.896C294.392 212.516 295.562 213.83 296.948 213.83ZM292.88 218.888V206.648H294.374V208.07C295.004 207.116 296.156 206.648 297.002 206.648C299.342 206.648 300.998 208.412 300.998 210.896C300.998 213.398 299.342 215.162 297.002 215.162C296.12 215.162 295.004 214.622 294.374 213.722V218.888H292.88ZM303.605 201.464H311.147V202.724H305.153V204.578H310.715V205.82H305.153V207.782C308.375 207.782 310.247 207.71 312.407 207.35L312.569 208.574C310.283 208.97 308.339 209.024 304.901 209.024H303.605V201.464ZM305.441 216.152V210.734H315.701V216.152H305.441ZM306.953 214.892H314.171V211.976H306.953V214.892ZM314.135 209.96V200.528H315.701V209.96H314.135ZM318.816 201.662H327.312V202.94H323.856V203.462C323.856 205.496 325.296 207.35 327.654 208.124L326.916 209.33C325.116 208.736 323.802 207.53 323.118 205.982C322.434 207.764 321.03 209.168 319.14 209.834L318.366 208.592C320.778 207.764 322.308 205.712 322.308 203.462V202.94H318.816V201.662ZM320.472 213.38C320.472 211.526 322.47 210.464 325.692 210.464C328.932 210.464 330.912 211.526 330.912 213.38C330.912 215.252 328.932 216.332 325.692 216.332C322.47 216.332 320.472 215.252 320.472 213.38ZM322.002 213.38C322.002 214.478 323.388 215.108 325.692 215.108C327.996 215.108 329.382 214.478 329.382 213.38C329.382 212.3 327.996 211.688 325.692 211.688C323.388 211.688 322.002 212.3 322.002 213.38ZM329.184 210.05V200.528H330.75V204.506H333.072V205.784H330.75V210.05H329.184Z" fill="#3F3F46"/>
</g>
<defs>
<filter id="filter0_d_4103_3138" x="0.657534" y="91.9932" width="578.685" height="177.685" filterUnits="userSpaceOnUse" color-interpolation-filters="sRGB">
<feFlood flood-opacity="0" result="BackgroundImageFix"/>
<feColorMatrix in="SourceAlpha" type="matrix" values="0 0 0 0 0 0 0 0 0 0 0 0 0 0 0 0 0 0 127 0" result="hardAlpha"/>
<feOffset dy="1.33562"/>
<feGaussianBlur stdDeviation="2.67123"/>
<feComposite in2="hardAlpha" operator="out"/>
<feColorMatrix type="matrix" values="0 0 0 0 0 0 0 0 0 0 0 0 0 0 0 0 0 0 0.1 0"/>
<feBlend mode="normal" in2="BackgroundImageFix" result="effect1_dropShadow_4103_3138"/>
<feBlend mode="normal" in="SourceGraphic" in2="effect1_dropShadow_4103_3138" result="shape"/>
</filter>
</defs>
</svg>
