<svg width="351" height="228" viewBox="0 0 351 228" fill="none" xmlns="http://www.w3.org/2000/svg">
<rect x="6" width="339" height="61" rx="16" fill="#9735D0"/>
<path d="M136.594 32.014H151.102V33.634H144.838V38.476H142.84V33.634H136.594V32.014ZM138.466 30.682V23.122H149.374V24.688H140.41V26.092H149.032V27.622H140.41V29.098H149.554V30.682H138.466ZM152.614 24.004H161.362V25.642H158.032V26.974C158.032 29.44 159.508 32.284 162.01 33.454L160.912 35.02C159.112 34.156 157.798 32.446 157.078 30.466C156.358 32.644 154.99 34.516 153.154 35.416L152.02 33.85C154.522 32.644 156.07 29.638 156.07 26.974V25.642H152.614V24.004ZM162.802 38.458V22.438H164.8V28.684H167.23V30.322H164.8V38.458H162.802ZM173.261 23.104C175.673 23.104 177.419 24.49 177.419 26.488C177.419 28.45 175.673 29.854 173.261 29.854C170.867 29.854 169.103 28.45 169.103 26.488C169.103 24.49 170.867 23.104 173.261 23.104ZM168.077 30.952C170.939 30.952 174.935 30.934 178.391 30.394L178.517 31.852C177.131 32.122 175.709 32.284 174.323 32.392V37.954H172.343V32.518C170.885 32.572 169.517 32.59 168.311 32.59L168.077 30.952ZM171.011 26.488C171.011 27.568 171.965 28.234 173.261 28.234C174.575 28.234 175.529 27.568 175.529 26.488C175.529 25.39 174.575 24.724 173.261 24.724C171.965 24.724 171.011 25.39 171.011 26.488ZM179.381 38.458V22.42H181.361V38.458H179.381ZM195.149 22.42H197.129V34.588H195.149V33.166H192.053V31.798H195.149V22.42ZM183.719 29.638C186.653 29.62 190.577 29.584 193.979 29.17L194.087 30.574C192.791 30.79 191.423 30.934 190.091 31.024V34.102H188.111V31.132C186.635 31.204 185.213 31.222 183.971 31.222L183.719 29.638ZM184.907 25.84C184.907 24.148 186.545 23.014 188.885 23.014C191.243 23.014 192.863 24.148 192.863 25.84C192.863 27.568 191.243 28.684 188.885 28.684C186.545 28.684 184.907 27.568 184.907 25.84ZM185.825 38.134V33.418H187.805V36.55H197.507V38.134H185.825ZM186.797 25.84C186.797 26.722 187.661 27.226 188.885 27.226C190.145 27.226 190.973 26.722 190.973 25.84C190.973 24.958 190.145 24.454 188.885 24.454C187.661 24.454 186.797 24.958 186.797 25.84ZM210.792 22.438H212.754V38.458H210.792V22.438ZM199.614 34.012C200.856 34.012 202.278 34.012 203.772 33.976V32.482C201.99 32.194 200.838 31.096 200.838 29.566C200.838 27.766 202.422 26.578 204.762 26.578C207.084 26.578 208.704 27.766 208.704 29.566C208.704 31.096 207.534 32.194 205.752 32.482V33.904C207.156 33.832 208.56 33.724 209.892 33.544L210.018 34.966C206.508 35.614 202.728 35.632 199.848 35.632L199.614 34.012ZM199.92 25.822V24.274H203.772V22.474H205.752V24.274H209.604V25.822H199.92ZM202.71 29.566C202.71 30.502 203.556 31.06 204.762 31.06C205.986 31.06 206.814 30.502 206.814 29.566C206.814 28.63 205.986 28.072 204.762 28.072C203.556 28.072 202.71 28.63 202.71 29.566Z" fill="white"/>
<g filter="url(#filter0_d_4103_3211)">
<rect x="6" y="69" width="339" height="152" rx="16" fill="white"/>
<path d="M32.2242 106.16C32.2242 105.445 32.3949 104.939 32.7362 104.64C33.0775 104.331 33.4989 104.176 34.0002 104.176C34.4909 104.176 34.9069 104.331 35.2482 104.64C35.6002 104.939 35.7762 105.445 35.7762 106.16C35.7762 106.864 35.6002 107.371 35.2482 107.68C34.9069 107.989 34.4909 108.144 34.0002 108.144C33.4989 108.144 33.0775 107.989 32.7362 107.68C32.3949 107.371 32.2242 106.864 32.2242 106.16ZM51.184 99.776C53.28 99.776 54.8 100.96 54.8 102.688C54.8 104.4 53.28 105.6 51.184 105.6C49.104 105.6 47.584 104.4 47.584 102.688C47.584 100.96 49.104 99.776 51.184 99.776ZM46.576 106.736C49.168 106.736 52.72 106.704 55.808 106.224L55.904 107.264C54.608 107.504 53.264 107.648 51.952 107.744V112.768H50.56V107.824C49.184 107.888 47.888 107.904 46.752 107.904L46.576 106.736ZM48.912 102.688C48.912 103.744 49.872 104.448 51.184 104.448C52.512 104.448 53.472 103.744 53.472 102.688C53.472 101.632 52.512 100.912 51.184 100.912C49.872 100.912 48.912 101.632 48.912 102.688ZM56.784 113.216V99.12H58.16V113.216H56.784ZM70.7524 99.12H72.1444V109.84H70.7524V108.416H67.9364V107.424H70.7524V99.12ZM60.4964 105.6C63.1044 105.584 66.5764 105.552 69.5844 105.184L69.6644 106.176C68.4484 106.384 67.1844 106.512 65.9204 106.592V109.344H64.5284V106.656C63.1524 106.72 61.8244 106.736 60.6884 106.736L60.4964 105.6ZM61.6004 102.144C61.6004 100.656 63.0084 99.68 65.0724 99.68C67.1364 99.68 68.5444 100.656 68.5444 102.144C68.5444 103.648 67.1364 104.608 65.0724 104.608C63.0084 104.608 61.6004 103.648 61.6004 102.144ZM62.4644 112.896V108.8H63.8564V111.776H72.4964V112.896H62.4644ZM62.9124 102.144C62.9124 103.024 63.8084 103.568 65.0724 103.568C66.3524 103.568 67.2164 103.024 67.2164 102.144C67.2164 101.264 66.3524 100.704 65.0724 100.704C63.8084 100.704 62.9124 101.264 62.9124 102.144ZM79.9763 102.704C80.4403 102.704 80.7603 103.04 80.7603 103.488C80.7603 103.952 80.4403 104.288 79.9763 104.288C79.5123 104.288 79.1763 103.952 79.1763 103.488C79.1763 103.04 79.5123 102.704 79.9763 102.704ZM79.1763 108.88C79.1763 108.416 79.5123 108.096 79.9763 108.096C80.4403 108.096 80.7603 108.416 80.7603 108.88C80.7603 109.344 80.4403 109.68 79.9763 109.68C79.5123 109.68 79.1763 109.344 79.1763 108.88ZM92.9131 112.176C89.5371 112.176 87.1691 109.712 87.1691 106.224C87.1691 102.72 89.5371 100.272 92.9131 100.272C94.5131 100.272 95.9371 100.96 96.9771 102.016L96.0811 102.816C95.2971 101.968 94.1291 101.456 92.9131 101.456C90.3211 101.456 88.5291 103.408 88.5291 106.224C88.5291 109.04 90.3211 110.992 92.9131 110.992C94.1611 110.992 95.2651 110.464 96.0331 109.648L96.9771 110.432C95.9371 111.488 94.5291 112.176 92.9131 112.176ZM106.402 100.4V101.584H100.434V105.456H105.586V106.64H100.434V110.864H106.402V112.048H99.0903V100.4H106.402ZM114.149 110.992C116.757 110.992 118.549 109.04 118.549 106.224C118.549 103.408 116.757 101.456 114.149 101.456C111.557 101.456 109.765 103.408 109.765 106.224C109.765 109.04 111.557 110.992 114.149 110.992ZM108.405 106.224C108.405 102.736 110.789 100.272 114.149 100.272C117.525 100.272 119.909 102.736 119.909 106.224C119.909 109.712 117.525 112.176 114.149 112.176C110.789 112.176 108.405 109.712 108.405 106.224ZM123.764 110.704L122.82 113.904H121.828L122.356 110.704H123.764ZM133.376 100.336H134.736V102.784C134.736 105.264 136.224 107.84 138.272 108.848L137.424 109.936C135.904 109.136 134.688 107.536 134.064 105.616C133.44 107.664 132.176 109.376 130.592 110.224L129.744 109.104C131.84 108.064 133.376 105.36 133.376 102.784V100.336ZM139.408 113.216V99.136H140.8V104.784H143.088V105.968H140.8V113.216H139.408ZM147.776 99.776C149.648 99.776 151.072 100.832 151.36 102.448H154.144V99.136H155.536V106.672H154.144V103.584H151.36C151.104 105.216 149.664 106.32 147.776 106.32C145.664 106.32 144.128 104.976 144.128 103.04C144.128 101.104 145.664 99.776 147.776 99.776ZM145.456 103.04C145.456 104.288 146.416 105.152 147.776 105.152C149.12 105.152 150.08 104.288 150.08 103.04C150.08 101.776 149.12 100.928 147.776 100.928C146.416 100.928 145.456 101.776 145.456 103.04ZM146.48 113.024V107.376H147.856V109.072H154.16V107.376H155.536V113.024H146.48ZM147.856 111.904H154.16V110.176H147.856V111.904ZM157.921 106.384H163.585V104.704H164.977V106.384H170.641V107.504H157.921V106.384ZM158.625 104.32C161.329 104.096 163.377 103.04 163.521 101.584H159.217V100.48H163.585V99.104H164.977V100.48H169.361V101.584H165.041C165.185 103.04 167.217 104.096 169.921 104.32L169.505 105.392C167.137 105.152 165.137 104.352 164.273 102.992C163.409 104.352 161.424 105.152 159.057 105.392L158.625 104.32ZM159.441 110.848C159.441 109.328 161.217 108.512 164.273 108.512C167.312 108.512 169.105 109.328 169.105 110.848C169.105 112.352 167.312 113.184 164.273 113.184C161.217 113.184 159.441 112.352 159.441 110.848ZM160.833 110.848C160.833 111.68 162.081 112.144 164.273 112.144C166.449 112.144 167.697 111.68 167.697 110.848C167.697 110 166.449 109.552 164.273 109.552C162.081 109.552 160.833 110 160.833 110.848ZM172.657 99.872H179.649V100.576C179.649 101.376 179.649 102.608 179.313 104.144L177.969 104.016C178.257 102.704 178.289 101.728 178.305 100.976H172.657V99.872ZM171.809 105.216C172.705 105.216 173.681 105.216 174.721 105.2V102.704H176.081V105.152C177.601 105.104 179.169 105.008 180.593 104.832L180.689 105.792C177.793 106.272 174.465 106.336 171.953 106.336L171.809 105.216ZM173.649 108.336V107.296H182.897V110.592H175.041V112H183.409V113.056H173.665V109.6H181.505V108.336H173.649ZM181.505 106.704V99.12H182.897V102.416H184.865V103.552H182.897V106.704H181.505ZM189.313 100.336H190.673V102.784C190.673 105.264 192.161 107.84 194.209 108.848L193.361 109.936C191.841 109.136 190.625 107.536 190.001 105.616C189.377 107.664 188.113 109.376 186.529 110.224L185.681 109.104C187.777 108.064 189.313 105.36 189.313 102.784V100.336ZM195.345 113.216V99.136H196.737V104.784H199.025V105.968H196.737V113.216H195.345ZM200.21 100.144H207.762V101.28H204.69V101.744C204.69 103.552 205.97 105.2 208.066 105.888L207.41 106.96C205.81 106.432 204.642 105.36 204.034 103.984C203.426 105.568 202.178 106.816 200.498 107.408L199.81 106.304C201.954 105.568 203.314 103.744 203.314 101.744V101.28H200.21V100.144ZM201.682 110.56C201.682 108.912 203.458 107.968 206.322 107.968C209.202 107.968 210.962 108.912 210.962 110.56C210.962 112.224 209.202 113.184 206.322 113.184C203.458 113.184 201.682 112.224 201.682 110.56ZM203.042 110.56C203.042 111.536 204.274 112.096 206.322 112.096C208.37 112.096 209.602 111.536 209.602 110.56C209.602 109.6 208.37 109.056 206.322 109.056C204.274 109.056 203.042 109.6 203.042 110.56ZM209.426 107.6V99.136H210.818V102.672H212.882V103.808H210.818V107.6H209.426ZM215.842 110.704L214.898 113.904H213.906L214.434 110.704H215.842ZM228.638 104.608H232.238V102.8H228.782C227.886 105.056 225.758 106.672 222.75 107.552L222.19 106.448C225.55 105.488 227.534 103.648 227.774 101.296H222.926V100.16H229.278C229.278 100.688 229.23 101.2 229.134 101.68H232.238V99.12H233.63V107.52H232.238V105.728H228.638V104.608ZM224.366 110.416C224.366 108.704 226.174 107.68 229.038 107.68C231.87 107.68 233.694 108.704 233.694 110.416C233.694 112.112 231.87 113.136 229.038 113.136C226.174 113.136 224.366 112.112 224.366 110.416ZM225.742 110.416C225.742 111.44 227.022 112.048 229.038 112.048C231.07 112.048 232.334 111.44 232.334 110.416C232.334 109.376 231.07 108.768 229.038 108.768C227.022 108.768 225.742 109.376 225.742 110.416ZM239.854 99.952C241.022 99.952 242.03 100.4 242.686 101.136H246.222V99.136H247.614V107.44H246.222V105.504H242.67C242.014 106.24 241.006 106.672 239.854 106.672C237.774 106.672 236.206 105.28 236.206 103.312C236.206 101.344 237.774 99.952 239.854 99.952ZM237.534 103.312C237.534 104.592 238.526 105.488 239.854 105.488C241.182 105.488 242.158 104.592 242.158 103.312C242.158 102.016 241.182 101.136 239.854 101.136C238.526 101.136 237.534 102.016 237.534 103.312ZM238.254 110.48C238.254 108.768 240.046 107.776 242.958 107.776C245.854 107.776 247.662 108.768 247.662 110.48C247.662 112.192 245.854 113.184 242.958 113.184C240.046 113.184 238.254 112.192 238.254 110.48ZM239.614 110.48C239.614 111.504 240.878 112.096 242.958 112.096C245.054 112.096 246.302 111.504 246.302 110.48C246.302 109.456 245.054 108.864 242.958 108.864C240.878 108.864 239.614 109.456 239.614 110.48ZM243.326 104.368H246.222V102.256H243.326C243.422 102.576 243.486 102.944 243.486 103.312C243.486 103.68 243.422 104.048 243.326 104.368ZM250.431 100.56H258.303V101.712H255.055V103.36C255.055 105.744 256.687 108.16 258.783 109.056L257.999 110.16C256.383 109.408 255.039 107.84 254.383 105.936C253.727 107.968 252.399 109.712 250.767 110.512L249.967 109.408C252.031 108.432 253.663 105.792 253.663 103.36V101.712H250.431V100.56ZM260.127 113.216V99.136H261.519V113.216H260.127ZM274.143 99.12H275.535V109.84H274.143V108.416H271.327V107.424H274.143V99.12ZM263.887 105.6C266.495 105.584 269.967 105.552 272.975 105.184L273.055 106.176C271.839 106.384 270.575 106.512 269.311 106.592V109.344H267.919V106.656C266.543 106.72 265.215 106.736 264.079 106.736L263.887 105.6ZM264.991 102.144C264.991 100.656 266.399 99.68 268.463 99.68C270.527 99.68 271.935 100.656 271.935 102.144C271.935 103.648 270.527 104.608 268.463 104.608C266.399 104.608 264.991 103.648 264.991 102.144ZM265.855 112.896V108.8H267.247V111.776H275.887V112.896H265.855ZM266.303 102.144C266.303 103.024 267.199 103.568 268.463 103.568C269.743 103.568 270.607 103.024 270.607 102.144C270.607 101.264 269.743 100.704 268.463 100.704C267.199 100.704 266.303 101.264 266.303 102.144ZM279.647 99.68H281.023V101.392H287.647V99.68H289.039V105.328H285.007V106.784H290.687V107.904H277.967V106.784H283.631V105.328H279.647V99.68ZM279.599 112.912V109.008H280.975V111.776H289.279V112.912H279.599ZM281.023 104.224H287.647V102.48H281.023V104.224ZM291.952 107.456H304.704V108.576H298.976V113.216H297.6V108.576H291.952V107.456ZM293.536 105.808V99.712H294.912V101.584H301.712V99.712H303.088V105.808H293.536ZM294.912 104.688H301.712V102.688H294.912V104.688ZM306.272 100.144H313.824V101.28H310.752V101.744C310.752 103.552 312.032 105.2 314.128 105.888L313.472 106.96C311.872 106.432 310.704 105.36 310.096 103.984C309.488 105.568 308.24 106.816 306.56 107.408L305.872 106.304C308.016 105.568 309.376 103.744 309.376 101.744V101.28H306.272V100.144ZM307.744 110.56C307.744 108.912 309.52 107.968 312.384 107.968C315.264 107.968 317.024 108.912 317.024 110.56C317.024 112.224 315.264 113.184 312.384 113.184C309.52 113.184 307.744 112.224 307.744 110.56ZM309.104 110.56C309.104 111.536 310.336 112.096 312.384 112.096C314.432 112.096 315.664 111.536 315.664 110.56C315.664 109.6 314.432 109.056 312.384 109.056C310.336 109.056 309.104 109.6 309.104 110.56ZM315.488 107.6V99.136H316.88V102.672H318.944V103.808H316.88V107.6H315.488ZM321.905 110.704L320.961 113.904H319.969L320.497 110.704H321.905ZM56.768 125.136H58.144V135.424H56.768V125.136ZM46.72 132.336C48.864 131.504 50.224 129.472 50.224 127.328V125.904H51.616V127.328C51.616 129.408 52.96 131.312 55.088 132.08L54.368 133.184C52.768 132.576 51.552 131.344 50.928 129.776C50.32 131.44 49.104 132.784 47.44 133.44L46.72 132.336ZM49.072 138.896V134.48H50.464V137.776H58.576V138.896H49.072ZM64.0964 125.92H65.4724V127.28C65.4724 129.264 66.7844 131.024 68.8644 131.728L68.1124 132.816C66.5924 132.24 65.4404 131.136 64.8324 129.712C64.2244 131.344 62.9764 132.608 61.2804 133.232L60.5604 132.112C62.7364 131.344 64.0964 129.472 64.0964 127.328V125.92ZM62.8164 136.528C62.8164 134.832 64.6084 133.856 67.5364 133.856C70.4484 133.856 72.2404 134.832 72.2404 136.528C72.2404 138.224 70.4484 139.184 67.5364 139.184C64.6084 139.184 62.8164 138.224 62.8164 136.528ZM64.2084 136.528C64.2084 137.52 65.4404 138.096 67.5364 138.096C69.6164 138.096 70.8644 137.52 70.8644 136.528C70.8644 135.52 69.6164 134.944 67.5364 134.944C65.4404 134.944 64.2084 135.52 64.2084 136.528ZM67.7924 129.2V128.048H70.7844V125.136H72.1764V133.44H70.7844V129.2H67.7924ZM74.9128 126.144H82.4648V127.28H79.3928V127.744C79.3928 129.552 80.6728 131.2 82.7688 131.888L82.1128 132.96C80.5128 132.432 79.3448 131.36 78.7368 129.984C78.1288 131.568 76.8808 132.816 75.2008 133.408L74.5128 132.304C76.6568 131.568 78.0168 129.744 78.0168 127.744V127.28H74.9128V126.144ZM76.3848 136.56C76.3848 134.912 78.1608 133.968 81.0248 133.968C83.9048 133.968 85.6648 134.912 85.6648 136.56C85.6648 138.224 83.9048 139.184 81.0248 139.184C78.1608 139.184 76.3848 138.224 76.3848 136.56ZM77.7448 136.56C77.7448 137.536 78.9768 138.096 81.0248 138.096C83.0728 138.096 84.3048 137.536 84.3048 136.56C84.3048 135.6 83.0728 135.056 81.0248 135.056C78.9768 135.056 77.7448 135.6 77.7448 136.56ZM84.1288 133.6V125.136H85.5208V128.672H87.5848V129.808H85.5208V133.6H84.1288ZM88.5611 133.616H101.297V134.768H95.6171V139.232H94.2251V134.768H88.5611V133.616ZM89.3451 131.504C91.9371 131.152 94.1771 129.648 94.2251 127.968H89.7771V126.848H94.2251V125.136H95.6171V126.848H100.065V127.968H95.6171C95.6651 129.616 97.9051 131.152 100.481 131.504L99.9851 132.608C97.7771 132.288 95.8251 131.216 94.9291 129.728C94.0331 131.216 92.0811 132.288 89.8411 132.608L89.3451 131.504ZM103.09 126.256H110.786V127.392H107.65V128.08C107.65 129.952 109.074 131.664 111.17 132.368L110.466 133.456C108.85 132.912 107.602 131.76 106.978 130.304C106.37 131.872 105.106 133.12 103.426 133.712L102.706 132.624C104.85 131.872 106.242 130.048 106.242 128.08V127.392H103.09V126.256ZM105.01 138.896V134.448H106.386V137.776H114.514V138.896H105.01ZM112.706 135.424V125.136H114.098V135.424H112.706ZM118.21 125.68H119.586V127.392H126.21V125.68H127.602V131.328H123.57V132.784H129.25V133.904H116.53V132.784H122.194V131.328H118.21V125.68ZM118.162 138.912V135.008H119.538V137.776H127.842V138.912H118.162ZM119.586 130.224H126.21V128.48H119.586V130.224ZM130.514 133.456H143.266V134.576H137.538V139.216H136.162V134.576H130.514V133.456ZM132.098 131.808V125.712H133.474V127.584H140.274V125.712H141.65V131.808H132.098ZM133.474 130.688H140.274V128.688H133.474V130.688ZM144.835 126.144H152.387V127.28H149.315V127.744C149.315 129.552 150.595 131.2 152.691 131.888L152.035 132.96C150.435 132.432 149.267 131.36 148.659 129.984C148.051 131.568 146.803 132.816 145.123 133.408L144.435 132.304C146.579 131.568 147.939 129.744 147.939 127.744V127.28H144.835V126.144ZM146.307 136.56C146.307 134.912 148.083 133.968 150.947 133.968C153.827 133.968 155.587 134.912 155.587 136.56C155.587 138.224 153.827 139.184 150.947 139.184C148.083 139.184 146.307 138.224 146.307 136.56ZM147.667 136.56C147.667 137.536 148.899 138.096 150.947 138.096C152.995 138.096 154.227 137.536 154.227 136.56C154.227 135.6 152.995 135.056 150.947 135.056C148.899 135.056 147.667 135.6 147.667 136.56ZM154.051 133.6V125.136H155.443V128.672H157.507V129.808H155.443V133.6H154.051ZM160.467 136.704L159.523 139.904H158.531L159.059 136.704H160.467ZM176.831 125.12H178.223V139.2H176.831V125.12ZM166.799 135.504C170.543 133.712 172.383 131.072 172.655 127.76H167.455V126.624H174.063C174.063 130.736 172.287 134.304 167.535 136.608L166.799 135.504ZM181.151 126.368H184.559V125.024H185.967V126.368H189.375V127.408H181.151V126.368ZM180.703 133.072C181.855 133.072 183.183 133.072 184.559 133.024V132.08C182.943 131.904 181.903 131.136 181.903 130.016C181.903 128.736 183.247 127.92 185.279 127.92C187.295 127.92 188.639 128.736 188.639 130.016C188.639 131.152 187.599 131.904 185.967 132.08V132.96C187.231 132.896 188.511 132.784 189.695 132.624L189.791 133.6C186.751 134.112 183.391 134.16 180.879 134.16L180.703 133.072ZM182.687 136.32V135.216H192.159V139.216H190.783V136.32H182.687ZM183.215 130.016C183.215 130.704 184.031 131.152 185.279 131.152C186.511 131.152 187.311 130.704 187.311 130.016C187.311 129.296 186.511 128.88 185.279 128.88C184.031 128.88 183.215 129.296 183.215 130.016ZM190.783 134.592V125.136H192.159V134.592H190.783ZM205.312 125.12H206.64V139.2H205.312V131.92H203.552V138.496H202.256V125.424H203.552V130.768H205.312V125.12ZM194.448 135.28C196.464 134.128 197.472 131.728 197.472 128.88V127.904H194.8V126.752H201.296V127.904H198.8V128.88C198.8 131.456 199.808 133.744 201.792 134.768L200.976 135.84C199.6 135.088 198.672 133.76 198.176 132.112C197.696 134 196.752 135.488 195.312 136.352L194.448 135.28ZM208.608 133.264H221.36V134.4H215.632V139.232H214.256V134.4H208.608V133.264ZM210.208 131.408V125.904H219.728V131.408H210.208ZM211.568 130.32H218.368V127.024H211.568V130.32ZM232.752 125.136H234.128V132.384H232.752V125.136ZM222.656 131.184C224.8 130.448 226.208 128.592 226.208 126.592V125.52H227.6V126.592C227.6 128.512 229.008 130.256 231.12 130.944L230.432 132.016C228.8 131.456 227.552 130.32 226.912 128.848C226.304 130.432 225.024 131.68 223.344 132.288L222.656 131.184ZM225.008 134.192V133.088H234.128V136.528H226.384V137.952H234.608V139.056H225.04V135.504H232.768V134.192H225.008ZM236.913 126.144H244.465V127.28H241.393V127.744C241.393 129.552 242.673 131.2 244.769 131.888L244.113 132.96C242.513 132.432 241.345 131.36 240.737 129.984C240.129 131.568 238.881 132.816 237.201 133.408L236.513 132.304C238.657 131.568 240.017 129.744 240.017 127.744V127.28H236.913V126.144ZM238.385 136.56C238.385 134.912 240.161 133.968 243.025 133.968C245.905 133.968 247.665 134.912 247.665 136.56C247.665 138.224 245.905 139.184 243.025 139.184C240.161 139.184 238.385 138.224 238.385 136.56ZM239.745 136.56C239.745 137.536 240.977 138.096 243.025 138.096C245.073 138.096 246.305 137.536 246.305 136.56C246.305 135.6 245.073 135.056 243.025 135.056C240.977 135.056 239.745 135.6 239.745 136.56ZM246.129 133.6V125.136H247.521V128.672H249.585V129.808H247.521V133.6H246.129ZM252.545 136.704L251.601 139.904H250.609L251.137 136.704H252.545ZM268.845 125.136H270.221V139.216H268.845V125.136ZM258.797 135.408C259.965 135.408 261.293 135.408 262.669 135.36V133.888C261.021 133.68 259.965 132.72 259.965 131.328C259.965 129.744 261.325 128.72 263.357 128.72C265.373 128.72 266.765 129.744 266.765 131.328C266.765 132.72 265.693 133.68 264.061 133.888V135.312C265.389 135.248 266.717 135.136 267.965 134.976L268.061 136C264.941 136.544 261.549 136.576 258.989 136.576L258.797 135.408ZM259.085 127.936V126.832H262.669V125.136H264.061V126.832H267.629V127.936H259.085ZM261.277 131.328C261.277 132.272 262.125 132.864 263.357 132.864C264.605 132.864 265.437 132.272 265.437 131.328C265.437 130.384 264.605 129.776 263.357 129.776C262.125 129.776 261.277 130.384 261.277 131.328ZM278.061 132.544H280.525V130.144H278.301C277.629 132.528 276.125 134.608 273.469 136.192L272.669 135.184C275.645 133.408 277.117 130.96 277.357 128.032H273.309V126.896H278.717C278.717 127.616 278.669 128.336 278.541 129.024H280.525V125.488H281.837V138.496H280.525V133.664H278.061V132.544ZM283.373 139.2V125.12H284.685V139.2H283.373ZM296.862 125.136H298.238V132.384H296.862V125.136ZM286.766 131.184C288.91 130.448 290.318 128.592 290.318 126.592V125.52H291.71V126.592C291.71 128.512 293.118 130.256 295.23 130.944L294.542 132.016C292.91 131.456 291.662 130.32 291.022 128.848C290.414 130.432 289.134 131.68 287.454 132.288L286.766 131.184ZM289.118 134.192V133.088H298.238V136.528H290.494V137.952H298.718V139.056H289.15V135.504H296.878V134.192H289.118ZM301.022 126.144H308.574V127.28H305.502V127.744C305.502 129.552 306.782 131.2 308.878 131.888L308.222 132.96C306.622 132.432 305.454 131.36 304.846 129.984C304.238 131.568 302.99 132.816 301.31 133.408L300.622 132.304C302.766 131.568 304.126 129.744 304.126 127.744V127.28H301.022V126.144ZM302.494 136.56C302.494 134.912 304.27 133.968 307.134 133.968C310.014 133.968 311.774 134.912 311.774 136.56C311.774 138.224 310.014 139.184 307.134 139.184C304.27 139.184 302.494 138.224 302.494 136.56ZM303.854 136.56C303.854 137.536 305.086 138.096 307.134 138.096C309.182 138.096 310.414 137.536 310.414 136.56C310.414 135.6 309.182 135.056 307.134 135.056C305.086 135.056 303.854 135.6 303.854 136.56ZM310.238 133.6V125.136H311.63V128.672H313.694V129.808H311.63V133.6H310.238ZM316.655 136.704L315.711 139.904H314.719L315.247 136.704H316.655ZM47.04 152.56H54.912V153.712H51.664V155.36C51.664 157.744 53.296 160.16 55.392 161.056L54.608 162.16C52.992 161.408 51.648 159.84 50.992 157.936C50.336 159.968 49.008 161.712 47.376 162.512L46.576 161.408C48.64 160.432 50.272 157.792 50.272 155.36V153.712H47.04V152.56ZM56.736 165.216V151.136H58.128V165.216H56.736ZM60.5924 158.16H66.2564V156.064H67.6324V158.16H73.3444V159.28H60.5924V158.16ZM61.3284 155.712C63.9364 155.36 66.2564 153.792 66.2564 151.952V151.36H67.6484V151.952C67.6484 153.792 69.9524 155.36 72.5604 155.712L72.0324 156.816C69.8404 156.448 67.8404 155.36 66.9444 153.776C66.0644 155.36 64.0484 156.448 61.8564 156.816L61.3284 155.712ZM62.0004 161.728V160.608H71.7444V165.216H70.3684V161.728H62.0004ZM81.1848 156.608H84.7848V154.8H81.3288C80.4328 157.056 78.3048 158.672 75.2968 159.552L74.7368 158.448C78.0968 157.488 80.0808 155.648 80.3208 153.296H75.4728V152.16H81.8248C81.8248 152.688 81.7768 153.2 81.6808 153.68H84.7848V151.12H86.1768V159.52H84.7848V157.728H81.1848V156.608ZM76.9128 162.416C76.9128 160.704 78.7208 159.68 81.5848 159.68C84.4168 159.68 86.2408 160.704 86.2408 162.416C86.2408 164.112 84.4168 165.136 81.5848 165.136C78.7208 165.136 76.9128 164.112 76.9128 162.416ZM78.2888 162.416C78.2888 163.44 79.5688 164.048 81.5848 164.048C83.6168 164.048 84.8808 163.44 84.8808 162.416C84.8808 161.376 83.6168 160.768 81.5848 160.768C79.5688 160.768 78.2888 161.376 78.2888 162.416ZM92.4011 151.952C93.5691 151.952 94.5771 152.4 95.2331 153.136H98.7691V151.136H100.161V159.44H98.7691V157.504H95.2171C94.5611 158.24 93.5531 158.672 92.4011 158.672C90.3211 158.672 88.7531 157.28 88.7531 155.312C88.7531 153.344 90.3211 151.952 92.4011 151.952ZM90.0811 155.312C90.0811 156.592 91.0731 157.488 92.4011 157.488C93.7291 157.488 94.7051 156.592 94.7051 155.312C94.7051 154.016 93.7291 153.136 92.4011 153.136C91.0731 153.136 90.0811 154.016 90.0811 155.312ZM90.8011 162.48C90.8011 160.768 92.5931 159.776 95.5051 159.776C98.4011 159.776 100.209 160.768 100.209 162.48C100.209 164.192 98.4011 165.184 95.5051 165.184C92.5931 165.184 90.8011 164.192 90.8011 162.48ZM92.1611 162.48C92.1611 163.504 93.4251 164.096 95.5051 164.096C97.6011 164.096 98.8491 163.504 98.8491 162.48C98.8491 161.456 97.6011 160.864 95.5051 160.864C93.4251 160.864 92.1611 161.456 92.1611 162.48ZM95.8731 156.368H98.7691V154.256H95.8731C95.9691 154.576 96.0331 154.944 96.0331 155.312C96.0331 155.68 95.9691 156.048 95.8731 156.368ZM112.706 151.136H114.082V158.384H112.706V151.136ZM102.61 157.184C104.754 156.448 106.161 154.592 106.161 152.592V151.52H107.554V152.592C107.554 154.512 108.962 156.256 111.074 156.944L110.385 158.016C108.754 157.456 107.506 156.32 106.866 154.848C106.258 156.432 104.978 157.68 103.298 158.288L102.61 157.184ZM104.962 160.192V159.088H114.082V162.528H106.338V163.952H114.562V165.056H104.994V161.504H112.722V160.192H104.962ZM116.866 152.144H124.418V153.28H121.346V153.744C121.346 155.552 122.626 157.2 124.722 157.888L124.066 158.96C122.466 158.432 121.298 157.36 120.69 155.984C120.082 157.568 118.834 158.816 117.154 159.408L116.466 158.304C118.61 157.568 119.97 155.744 119.97 153.744V153.28H116.866V152.144ZM118.338 162.56C118.338 160.912 120.114 159.968 122.978 159.968C125.858 159.968 127.618 160.912 127.618 162.56C127.618 164.224 125.858 165.184 122.978 165.184C120.114 165.184 118.338 164.224 118.338 162.56ZM119.698 162.56C119.698 163.536 120.93 164.096 122.978 164.096C125.026 164.096 126.258 163.536 126.258 162.56C126.258 161.6 125.026 161.056 122.978 161.056C120.93 161.056 119.698 161.6 119.698 162.56ZM126.082 159.6V151.136H127.474V154.672H129.538V155.808H127.474V159.6H126.082ZM32.2242 184.16C32.2242 183.445 32.3949 182.939 32.7362 182.64C33.0775 182.331 33.4989 182.176 34.0002 182.176C34.4909 182.176 34.9069 182.331 35.2482 182.64C35.6002 182.939 35.7762 183.445 35.7762 184.16C35.7762 184.864 35.6002 185.371 35.2482 185.68C34.9069 185.989 34.4909 186.144 34.0002 186.144C33.4989 186.144 33.0775 185.989 32.7362 185.68C32.3949 185.371 32.2242 184.864 32.2242 184.16ZM56.16 177.136H57.552V181.344H59.616V182.496H57.552V187.376H56.16V177.136ZM46.608 184.688C49.92 183.68 52.016 181.744 52.272 179.344H47.2V178.208H53.776C53.776 181.872 51.264 184.544 47.2 185.808L46.608 184.688ZM48.736 190.896V186.336H50.128V189.776H58.16V190.896H48.736ZM64.0164 178.336H65.3764V180.784C65.3764 183.264 66.8644 185.84 68.9124 186.848L68.0644 187.936C66.5444 187.136 65.3284 185.536 64.7044 183.616C64.0804 185.664 62.8164 187.376 61.2324 188.224L60.3844 187.104C62.4804 186.064 64.0164 183.36 64.0164 180.784V178.336ZM70.0484 191.216V177.136H71.4404V182.784H73.7284V183.968H71.4404V191.216H70.0484ZM79.9763 180.704C80.4403 180.704 80.7603 181.04 80.7603 181.488C80.7603 181.952 80.4403 182.288 79.9763 182.288C79.5123 182.288 79.1763 181.952 79.1763 181.488C79.1763 181.04 79.5123 180.704 79.9763 180.704ZM79.1763 186.88C79.1763 186.416 79.5123 186.096 79.9763 186.096C80.4403 186.096 80.7603 186.416 80.7603 186.88C80.7603 187.344 80.4403 187.68 79.9763 187.68C79.5123 187.68 79.1763 187.344 79.1763 186.88ZM98.4491 183.984C98.4491 184.384 98.4331 184.896 98.4331 184.944C98.4331 188.256 96.0971 190.112 92.9611 190.176C89.6011 190.176 87.2171 187.712 87.2171 184.224C87.2171 180.736 89.6011 178.288 92.9611 178.288C96.5931 178.288 97.8411 181.104 97.8411 181.104L96.6731 181.664C96.6731 181.664 95.7291 179.472 92.9611 179.472C90.3691 179.472 88.5611 181.424 88.5611 184.224C88.5611 187.04 90.3691 188.992 92.9611 188.992C95.3611 188.912 97.1371 187.68 97.1531 185.136H93.1691V183.984H98.4491ZM100.494 178.752H101.822V190.048H100.494V178.752ZM107.058 188.96C108.386 188.96 109.298 187.904 109.298 186.368C109.298 184.832 108.386 183.76 107.058 183.76C105.746 183.76 104.834 184.816 104.834 186.368C104.834 187.92 105.73 188.96 107.058 188.96ZM103.506 186.368C103.506 184.16 104.978 182.576 107.058 182.576C109.154 182.576 110.642 184.16 110.642 186.368C110.642 188.56 109.154 190.144 107.058 190.144C104.978 190.144 103.506 188.56 103.506 186.368ZM116.115 190.176C115.411 190.176 114.467 189.872 113.779 188.864V190.08H112.451V178.752H113.779V183.904C114.467 182.896 115.411 182.608 116.131 182.608C118.211 182.608 119.699 184.176 119.699 186.384C119.699 188.608 118.211 190.176 116.115 190.176ZM113.779 186.384C113.779 187.84 114.819 189.008 116.067 189.008C117.427 189.008 118.371 187.936 118.371 186.384C118.371 184.848 117.427 183.792 116.067 183.792C114.819 183.792 113.779 184.96 113.779 186.384ZM124.761 190.144C122.697 190.144 121.225 188.576 121.225 186.384C121.225 184.176 122.697 182.608 124.761 182.608C125.561 182.608 126.441 183.008 127.081 183.872V182.592H128.409V190.048H127.081V188.848C126.425 189.792 125.561 190.144 124.761 190.144ZM122.553 186.384C122.553 187.904 123.481 188.976 124.809 188.976C126.009 188.976 127.081 187.888 127.097 186.384C127.081 184.88 126.009 183.776 124.809 183.776C123.481 183.776 122.553 184.832 122.553 186.384ZM130.572 178.752H131.9V190.048H130.572V178.752ZM138.048 178.4H139.392V190.048H138.048V178.4ZM147.086 185.76C147.086 184.56 146.382 183.776 145.326 183.776C144.142 183.776 143.31 184.688 143.31 185.76V190.048H141.982V182.592H143.31V183.68C143.822 183.04 144.654 182.592 145.39 182.592C147.022 182.592 148.414 183.712 148.414 185.664V190.048H147.086V185.76ZM157.348 182.592L154.228 190.048H153.012L149.908 182.592H151.364L153.62 188.24L155.876 182.592H157.348ZM161.621 190.112C159.525 190.112 158.053 188.544 158.053 186.352C158.053 184.144 159.525 182.592 161.621 182.592C163.925 182.592 164.629 184.448 164.693 184.624C165.141 185.776 164.997 186.88 164.997 186.928H159.397C159.589 188.112 160.517 188.944 161.621 188.944C163.093 188.944 163.637 188.016 163.749 187.84L164.805 188.384C164.437 189.216 163.381 190.112 161.621 190.112ZM159.397 185.792L163.701 185.776C163.557 184.64 162.997 183.76 161.621 183.76C160.485 183.76 159.589 184.592 159.397 185.792ZM167.625 187.664C168.041 188.56 168.921 188.944 169.481 188.944C170.377 188.944 171.017 188.56 171.017 187.92C171.017 187.312 170.185 187.072 169.353 186.784C168.329 186.432 166.889 185.984 166.889 184.56C166.889 183.296 168.057 182.512 169.545 182.512C170.425 182.512 171.833 183.024 172.185 184.352L171.017 184.752C170.777 183.872 169.977 183.696 169.545 183.696C168.777 183.696 168.217 184.016 168.217 184.56C168.217 185.168 168.985 185.376 169.881 185.68C170.953 186.048 172.345 186.496 172.345 187.92C172.345 189.248 171.129 190.112 169.481 190.112C168.345 190.112 167.161 189.472 166.553 188.304L167.625 187.664ZM175.034 190.048V183.76H173.674V182.576H175.034V180H176.378V182.576H178.138V183.76H176.378V190.048H175.034ZM189.502 185.6C189.502 184.512 188.862 183.776 187.934 183.776C186.862 183.776 186.126 184.48 186.126 185.472V190.048H184.782V185.6C184.782 184.512 184.158 183.776 183.246 183.776C182.158 183.776 181.406 184.688 181.406 185.744V190.048H180.078V182.592H181.406V183.664C181.854 183.024 182.59 182.592 183.294 182.592C184.222 182.592 185.134 183.152 185.566 183.968C186.062 183.152 187.038 182.592 187.966 182.592C189.646 182.592 190.846 183.792 190.846 185.504V190.048H189.502V185.6ZM196.355 190.112C194.259 190.112 192.787 188.544 192.787 186.352C192.787 184.144 194.259 182.592 196.355 182.592C198.659 182.592 199.363 184.448 199.427 184.624C199.875 185.776 199.731 186.88 199.731 186.928H194.131C194.323 188.112 195.251 188.944 196.355 188.944C197.827 188.944 198.371 188.016 198.483 187.84L199.539 188.384C199.171 189.216 198.115 190.112 196.355 190.112ZM194.131 185.792L198.435 185.776C198.291 184.64 197.731 183.76 196.355 183.76C195.219 183.76 194.323 184.592 194.131 185.792ZM206.695 185.76C206.695 184.56 205.991 183.776 204.935 183.776C203.751 183.776 202.919 184.688 202.919 185.76V190.048H201.591V182.592H202.919V183.68C203.431 183.04 204.263 182.592 204.999 182.592C206.631 182.592 208.023 183.712 208.023 185.664V190.048H206.695V185.76ZM210.753 190.048V183.76H209.393V182.576H210.753V180H212.097V182.576H213.857V183.76H212.097V190.048H210.753ZM230.918 183.984C230.918 184.384 230.902 184.896 230.902 184.944C230.902 188.256 228.566 190.112 225.43 190.176C222.07 190.176 219.686 187.712 219.686 184.224C219.686 180.736 222.07 178.288 225.43 178.288C229.062 178.288 230.31 181.104 230.31 181.104L229.142 181.664C229.142 181.664 228.198 179.472 225.43 179.472C222.838 179.472 221.03 181.424 221.03 184.224C221.03 187.04 222.838 188.992 225.43 188.992C227.83 188.912 229.606 187.68 229.622 185.136H225.638V183.984H230.918ZM233.011 190.048V182.592H234.339V183.824C234.835 183.024 235.843 182.48 236.835 182.528V183.808C235.475 183.76 234.339 184.944 234.339 186.256V190.048H233.011ZM241.323 188.96C242.651 188.96 243.563 187.904 243.563 186.368C243.563 184.832 242.651 183.76 241.323 183.76C240.011 183.76 239.099 184.816 239.099 186.368C239.099 187.92 239.995 188.96 241.323 188.96ZM237.771 186.368C237.771 184.16 239.243 182.576 241.323 182.576C243.419 182.576 244.907 184.16 244.907 186.368C244.907 188.56 243.419 190.144 241.323 190.144C239.243 190.144 237.771 188.56 237.771 186.368ZM248.201 186.928C248.201 188.112 248.921 188.976 249.961 188.976C251.145 188.976 251.961 188.224 251.961 187.04V182.592H253.305V190.048H251.961V189.104C251.465 189.744 250.633 190.16 249.881 190.16C248.121 190.16 246.857 188.832 246.857 187.04V182.592H248.201V186.928ZM259.287 188.96C260.647 188.96 261.559 187.904 261.559 186.352C261.559 184.816 260.647 183.744 259.287 183.744C258.055 183.744 257.015 184.928 257.015 186.352C257.015 187.792 258.055 188.96 259.287 188.96ZM255.671 193.456V182.576H256.999V183.84C257.559 182.992 258.583 182.576 259.335 182.576C261.415 182.576 262.887 184.144 262.887 186.352C262.887 188.576 261.415 190.144 259.335 190.144C258.551 190.144 257.559 189.664 256.999 188.864V193.456H255.671ZM265.205 177.968H271.909V179.088H266.581V180.736H271.525V181.84H266.581V183.584C269.445 183.584 271.109 183.52 273.029 183.2L273.173 184.288C271.141 184.64 269.413 184.688 266.357 184.688H265.205V177.968ZM266.837 191.024V186.208H275.957V191.024H266.837ZM268.181 189.904H274.597V187.312H268.181V189.904ZM274.565 185.52V177.136H275.957V185.52H274.565ZM278.725 178.144H286.277V179.28H283.205V179.744C283.205 181.552 284.485 183.2 286.581 183.888L285.925 184.96C284.325 184.432 283.157 183.36 282.549 181.984C281.941 183.568 280.693 184.816 279.013 185.408L278.325 184.304C280.469 183.568 281.829 181.744 281.829 179.744V179.28H278.725V178.144ZM280.197 188.56C280.197 186.912 281.973 185.968 284.837 185.968C287.717 185.968 289.477 186.912 289.477 188.56C289.477 190.224 287.717 191.184 284.837 191.184C281.973 191.184 280.197 190.224 280.197 188.56ZM281.557 188.56C281.557 189.536 282.789 190.096 284.837 190.096C286.885 190.096 288.117 189.536 288.117 188.56C288.117 187.6 286.885 187.056 284.837 187.056C282.789 187.056 281.557 187.6 281.557 188.56ZM287.941 185.6V177.136H289.333V180.672H291.397V181.808H289.333V185.6H287.941Z" fill="#3F3F46"/>
</g>
<defs>
<filter id="filter0_d_4103_3211" x="0.657534" y="64.9932" width="349.685" height="162.685" filterUnits="userSpaceOnUse" color-interpolation-filters="sRGB">
<feFlood flood-opacity="0" result="BackgroundImageFix"/>
<feColorMatrix in="SourceAlpha" type="matrix" values="0 0 0 0 0 0 0 0 0 0 0 0 0 0 0 0 0 0 127 0" result="hardAlpha"/>
<feOffset dy="1.33562"/>
<feGaussianBlur stdDeviation="2.67123"/>
<feComposite in2="hardAlpha" operator="out"/>
<feColorMatrix type="matrix" values="0 0 0 0 0 0 0 0 0 0 0 0 0 0 0 0 0 0 0.1 0"/>
<feBlend mode="normal" in2="BackgroundImageFix" result="effect1_dropShadow_4103_3211"/>
<feBlend mode="normal" in="SourceGraphic" in2="effect1_dropShadow_4103_3211" result="shape"/>
</filter>
</defs>
</svg>
