<svg width="1200" height="348" viewBox="0 0 1200 348" fill="none" xmlns="http://www.w3.org/2000/svg">
<path d="M0 332C0 340.837 7.16344 348 16 348H1184C1192.84 348 1200 340.837 1200 332V16C1200 7.16345 1192.84 0 1184 0H16C7.16343 0 0 7.16345 0 16V332Z" fill="white"/>
<mask id="path-2-inside-1_5824_28232" fill="white">
<path d="M203 16C203 7.16344 210.163 0 219 0H981C989.837 0 997 7.16344 997 16V260H203V16Z"/>
</mask>
<path d="M203 16C203 7.16344 210.163 0 219 0H981C989.837 0 997 7.16344 997 16V260H203V16Z" fill="url(#paint0_linear_5824_28232)"/>
<path d="M203 0H997H203ZM997 261H203V259H997V261ZM203 260V0V260ZM997 0V260V0Z" fill="#71717A" mask="url(#path-2-inside-1_5824_28232)"/>
<rect x="289" y="238" width="46" height="22" rx="4" fill="url(#paint1_linear_5824_28232)"/>
<rect x="289" y="254" width="46" height="6" fill="#27272A"/>
<path d="M268.794 290.38C271.422 287.86 275.004 285.304 275.004 283.09C275.004 281.614 274.068 280.57 272.736 280.57C271.71 280.57 270.684 281.308 270.216 282.37L268.542 281.632C269.262 279.976 271.008 278.824 272.736 278.824C275.202 278.824 276.912 280.588 276.912 283.09C276.912 285.844 273.924 288.292 271.494 290.38H277.128V292.054H268.974L268.794 290.38ZM283.809 290.488C285.609 290.488 286.815 288.472 286.815 285.502C286.815 282.514 285.609 280.498 283.809 280.498C282.009 280.498 280.785 282.514 280.785 285.502C280.785 288.472 282.009 290.488 283.809 290.488ZM278.877 285.502C278.877 281.578 280.911 278.824 283.809 278.824C286.689 278.824 288.723 281.578 288.723 285.502C288.723 289.408 286.689 292.18 283.809 292.18C280.911 292.18 278.877 289.408 278.877 285.502ZM290.749 290.38C293.377 287.86 296.959 285.304 296.959 283.09C296.959 281.614 296.023 280.57 294.691 280.57C293.665 280.57 292.639 281.308 292.171 282.37L290.497 281.632C291.217 279.976 292.963 278.824 294.691 278.824C297.157 278.824 298.867 280.588 298.867 283.09C298.867 285.844 295.879 288.292 293.449 290.38H299.083V292.054H290.929L290.749 290.38ZM301.12 290.38C303.748 287.86 307.33 285.304 307.33 283.09C307.33 281.614 306.394 280.57 305.062 280.57C304.036 280.57 303.01 281.308 302.542 282.37L300.868 281.632C301.588 279.976 303.334 278.824 305.062 278.824C307.528 278.824 309.238 280.588 309.238 283.09C309.238 285.844 306.25 288.292 303.82 290.38H309.454V292.054H301.3L301.12 290.38ZM312.211 285.502C312.211 283.162 313.129 280.084 314.425 278.032H316.441C314.965 280.066 313.939 283.144 313.939 285.502C313.939 287.86 314.965 290.938 316.441 292.972H314.425C313.129 290.92 312.211 287.842 312.211 285.502ZM329.46 277.438H331.44V285.592H329.46V277.438ZM318.21 284.008C320.784 283.198 322.134 281.146 322.134 279.04V277.834H324.132V279.04C324.132 281.074 325.482 282.982 327.984 283.756L327.03 285.286C325.194 284.71 323.88 283.504 323.16 281.992C322.44 283.63 321.09 284.944 319.164 285.592L318.21 284.008ZM320.892 287.878V286.348H331.44V290.488H322.872V291.766H331.908V293.314H320.928V289.066H329.496V287.878H320.892ZM342.601 281.38H345.265V277.438H347.245V286.978H345.265V283H342.601V281.38ZM333.907 285.25C336.445 284.386 337.777 282.28 337.777 280.156V279.976H334.465V278.392H343.069V279.976H339.775V280.156C339.775 282.118 341.053 284.08 343.519 284.926L342.529 286.474C340.765 285.862 339.523 284.638 338.821 283.126C338.137 284.8 336.805 286.15 334.915 286.798L333.907 285.25ZM336.427 289.354V287.752H347.245V293.458H345.265V289.354H336.427ZM354.463 285.502C354.463 287.842 353.563 290.902 352.267 292.972H350.251C351.709 290.956 352.735 287.86 352.735 285.502C352.735 283.144 351.709 280.048 350.251 278.032H352.267C353.563 280.102 354.463 283.162 354.463 285.502Z" fill="#3F3F46"/>
<rect x="433" y="214" width="46" height="46" rx="4" fill="url(#paint2_linear_5824_28232)"/>
<rect x="433" y="252" width="46" height="8" fill="#27272A"/>
<path d="M435.575 290.38C438.203 287.86 441.785 285.304 441.785 283.09C441.785 281.614 440.849 280.57 439.517 280.57C438.491 280.57 437.465 281.308 436.997 282.37L435.323 281.632C436.043 279.976 437.789 278.824 439.517 278.824C441.983 278.824 443.693 280.588 443.693 283.09C443.693 285.844 440.705 288.292 438.275 290.38H443.909V292.054H435.755L435.575 290.38ZM450.59 290.488C452.39 290.488 453.596 288.472 453.596 285.502C453.596 282.514 452.39 280.498 450.59 280.498C448.79 280.498 447.566 282.514 447.566 285.502C447.566 288.472 448.79 290.488 450.59 290.488ZM445.658 285.502C445.658 281.578 447.692 278.824 450.59 278.824C453.47 278.824 455.504 281.578 455.504 285.502C455.504 289.408 453.47 292.18 450.59 292.18C447.692 292.18 445.658 289.408 445.658 285.502ZM457.53 290.38C460.158 287.86 463.74 285.304 463.74 283.09C463.74 281.614 462.804 280.57 461.472 280.57C460.446 280.57 459.42 281.308 458.952 282.37L457.278 281.632C457.998 279.976 459.744 278.824 461.472 278.824C463.938 278.824 465.648 280.588 465.648 283.09C465.648 285.844 462.66 288.292 460.23 290.38H465.864V292.054H457.71L457.53 290.38ZM470.061 286.186L468.153 285.952L468.603 278.95H475.605V280.624H470.439L470.223 283.828C470.817 283.558 471.483 283.396 472.077 283.396C474.777 283.396 476.685 285.214 476.685 287.788C476.685 290.398 474.777 292.234 472.077 292.234C469.953 292.234 468.117 290.812 467.649 288.796L469.503 288.364C469.773 289.57 470.835 290.434 472.077 290.434C473.661 290.434 474.777 289.336 474.777 287.788C474.777 286.276 473.661 285.196 472.077 285.196C471.411 285.196 470.583 285.61 470.061 286.186Z" fill="#3F3F46"/>
<rect x="577" y="178" width="46" height="82" rx="4" fill="url(#paint3_linear_5824_28232)"/>
<rect x="577" y="250" width="46" height="10" fill="#27272A"/>
<path d="M579.065 290.38C581.693 287.86 585.275 285.304 585.275 283.09C585.275 281.614 584.339 280.57 583.007 280.57C581.981 280.57 580.955 281.308 580.487 282.37L578.813 281.632C579.533 279.976 581.279 278.824 583.007 278.824C585.473 278.824 587.183 280.588 587.183 283.09C587.183 285.844 584.195 288.292 581.765 290.38H587.399V292.054H579.245L579.065 290.38ZM594.08 290.488C595.88 290.488 597.086 288.472 597.086 285.502C597.086 282.514 595.88 280.498 594.08 280.498C592.28 280.498 591.056 282.514 591.056 285.502C591.056 288.472 592.28 290.488 594.08 290.488ZM589.148 285.502C589.148 281.578 591.182 278.824 594.08 278.824C596.96 278.824 598.994 281.578 598.994 285.502C598.994 289.408 596.96 292.18 594.08 292.18C591.182 292.18 589.148 289.408 589.148 285.502ZM607.716 285.286C608.886 285.97 609.624 287.248 609.624 288.346C609.624 290.578 607.788 292.162 605.178 292.162C602.586 292.162 600.75 290.542 600.75 288.238H602.658C602.658 289.552 603.702 290.47 605.178 290.47C606.69 290.47 607.77 289.552 607.77 288.238C607.77 286.978 606.708 286.078 605.214 286.078H604.278V284.476H605.232C606.6 284.476 607.572 283.666 607.572 282.514C607.572 281.344 606.636 280.534 605.304 280.534C603.972 280.534 603.054 281.362 603.054 282.532H601.146C601.146 280.354 602.856 278.842 605.304 278.842C607.716 278.842 609.426 280.318 609.426 282.406C609.426 283.414 608.778 284.602 607.716 285.286ZM616.299 290.488C618.099 290.488 619.305 288.472 619.305 285.502C619.305 282.514 618.099 280.498 616.299 280.498C614.499 280.498 613.275 282.514 613.275 285.502C613.275 288.472 614.499 290.488 616.299 290.488ZM611.367 285.502C611.367 281.578 613.401 278.824 616.299 278.824C619.179 278.824 621.213 281.578 621.213 285.502C621.213 289.408 619.179 292.18 616.299 292.18C613.401 292.18 611.367 289.408 611.367 285.502Z" fill="#3F3F46"/>
<rect x="721" y="116" width="46" height="144" rx="4" fill="url(#paint4_linear_5824_28232)"/>
<rect x="721" y="252" width="46" height="8" fill="#27272A"/>
<path d="M723.443 290.38C726.071 287.86 729.653 285.304 729.653 283.09C729.653 281.614 728.717 280.57 727.385 280.57C726.359 280.57 725.333 281.308 724.865 282.37L723.191 281.632C723.911 279.976 725.657 278.824 727.385 278.824C729.851 278.824 731.561 280.588 731.561 283.09C731.561 285.844 728.573 288.292 726.143 290.38H731.777V292.054H723.623L723.443 290.38ZM738.458 290.488C740.258 290.488 741.464 288.472 741.464 285.502C741.464 282.514 740.258 280.498 738.458 280.498C736.658 280.498 735.434 282.514 735.434 285.502C735.434 288.472 736.658 290.488 738.458 290.488ZM733.526 285.502C733.526 281.578 735.56 278.824 738.458 278.824C741.338 278.824 743.372 281.578 743.372 285.502C743.372 289.408 741.338 292.18 738.458 292.18C735.56 292.18 733.526 289.408 733.526 285.502ZM752.094 285.286C753.264 285.97 754.002 287.248 754.002 288.346C754.002 290.578 752.166 292.162 749.556 292.162C746.964 292.162 745.128 290.542 745.128 288.238H747.036C747.036 289.552 748.08 290.47 749.556 290.47C751.068 290.47 752.148 289.552 752.148 288.238C752.148 286.978 751.086 286.078 749.592 286.078H748.656V284.476H749.61C750.978 284.476 751.95 283.666 751.95 282.514C751.95 281.344 751.014 280.534 749.682 280.534C748.35 280.534 747.432 281.362 747.432 282.532H745.524C745.524 280.354 747.234 278.842 749.682 278.842C752.094 278.842 753.804 280.318 753.804 282.406C753.804 283.414 753.156 284.602 752.094 285.286ZM758.193 286.186L756.285 285.952L756.735 278.95H763.737V280.624H758.571L758.355 283.828C758.949 283.558 759.615 283.396 760.209 283.396C762.909 283.396 764.817 285.214 764.817 287.788C764.817 290.398 762.909 292.234 760.209 292.234C758.085 292.234 756.249 290.812 755.781 288.796L757.635 288.364C757.905 289.57 758.967 290.434 760.209 290.434C761.793 290.434 762.909 289.336 762.909 287.788C762.909 286.276 761.793 285.196 760.209 285.196C759.543 285.196 758.715 285.61 758.193 286.186Z" fill="#3F3F46"/>
<rect x="865" y="60" width="46" height="200" rx="4" fill="url(#paint5_linear_5824_28232)"/>
<rect x="865" y="252" width="46" height="8" fill="#27272A"/>
<path d="M866.81 290.38C869.438 287.86 873.02 285.304 873.02 283.09C873.02 281.614 872.084 280.57 870.752 280.57C869.726 280.57 868.7 281.308 868.232 282.37L866.558 281.632C867.278 279.976 869.024 278.824 870.752 278.824C873.218 278.824 874.928 280.588 874.928 283.09C874.928 285.844 871.94 288.292 869.51 290.38H875.144V292.054H866.99L866.81 290.38ZM881.825 290.488C883.625 290.488 884.831 288.472 884.831 285.502C884.831 282.514 883.625 280.498 881.825 280.498C880.025 280.498 878.801 282.514 878.801 285.502C878.801 288.472 880.025 290.488 881.825 290.488ZM876.893 285.502C876.893 281.578 878.927 278.824 881.825 278.824C884.705 278.824 886.739 281.578 886.739 285.502C886.739 289.408 884.705 292.18 881.825 292.18C878.927 292.18 876.893 289.408 876.893 285.502ZM896.217 278.95V287.014H897.873V288.67H896.217V292.054H894.309V288.67H888.675L888.495 287.014L894.399 278.95H896.217ZM890.763 287.014H894.309V282.136L890.763 287.014ZM904.554 290.488C906.354 290.488 907.56 288.472 907.56 285.502C907.56 282.514 906.354 280.498 904.554 280.498C902.754 280.498 901.53 282.514 901.53 285.502C901.53 288.472 902.754 290.488 904.554 290.488ZM899.622 285.502C899.622 281.578 901.656 278.824 904.554 278.824C907.434 278.824 909.468 281.578 909.468 285.502C909.468 289.408 907.434 292.18 904.554 292.18C901.656 292.18 899.622 289.408 899.622 285.502Z" fill="#3F3F46"/>
<rect x="32" y="7" width="12" height="12" rx="4" fill="url(#paint6_linear_5824_28232)"/>
<path d="M54.304 6.424H55.68V10.024H63.904V11.144H59.664V13H65.344V14.104H52.624V13H58.272V11.144H54.304V6.424ZM54.096 16.616V15.496H63.76V20.216H62.384V16.616H54.096ZM69.4724 6.968H70.8004V8.824C70.8004 10.408 71.8084 12.008 73.6164 12.744L72.8804 13.816C71.5844 13.272 70.6564 12.264 70.1444 11.048C69.6484 12.392 68.6724 13.56 67.3124 14.168L66.5604 13.08C68.4164 12.248 69.4724 10.408 69.4724 8.824V6.968ZM68.9764 16.536V15.416H78.4644V20.216H77.0724V16.536H68.9764ZM74.1284 14.568V6.376H75.4244V9.768H77.1364V6.136H78.4644V14.648H77.1364V10.904H75.4244V14.568H74.1284ZM80.5768 17.256H93.3288V18.424H80.5768V17.256ZM81.6808 8.632V7.496H92.1608V8.632H90.0168V13.432H92.1448V14.552H81.7288V13.432H83.8248V8.632H81.6808ZM85.2168 13.432H88.6408V8.632H85.2168V13.432ZM104.737 6.104H106.129V20.232H104.737V6.104ZM95.3291 8.552V7.432H101.857V12.504H96.7531V15.688C99.0571 15.688 101.057 15.576 103.457 15.192L103.601 16.328C101.089 16.744 98.9771 16.824 96.5451 16.824H95.3611V11.384H100.465V8.552H95.3291ZM109.33 7.48H115.826V16.696H109.33V7.48ZM110.69 15.576H114.498V8.6H110.69V15.576ZM118.69 20.232V6.104H120.082V20.232H118.69ZM126.37 6.92C128.226 6.92 129.666 8.024 129.954 9.656H132.738V6.136H134.13V14.2H132.738V10.792H129.97C129.714 12.472 128.258 13.592 126.37 13.592C124.258 13.592 122.722 12.232 122.722 10.264C122.722 8.296 124.258 6.92 126.37 6.92ZM124.05 10.264C124.05 11.56 125.026 12.44 126.37 12.44C127.698 12.44 128.674 11.56 128.674 10.264C128.674 8.984 127.698 8.088 126.37 8.088C125.026 8.088 124.05 8.984 124.05 10.264ZM124.946 20.024V14.904H134.13V20.024H124.946ZM126.322 18.904H132.786V16.008H126.322V18.904Z" fill="#3F3F46"/>
<rect x="32" y="41" width="12" height="12" rx="4" fill="url(#paint7_linear_5824_28232)"/>
<path d="M63.232 40.12H64.56V54.2H63.232V40.12ZM52.416 50.392C54.368 49.192 55.424 46.632 55.424 44.072V42.888H52.8V41.736H59.216V42.888H56.768V44.072C56.768 46.504 57.776 48.936 59.712 50.072L58.88 51.08C57.536 50.264 56.608 48.792 56.112 47.048C55.616 48.936 54.656 50.536 53.264 51.416L52.416 50.392ZM58.16 46.296V45.16H60.416V40.44H61.712V53.496H60.416V46.296H58.16ZM72.8004 47.032C73.8244 47.656 74.4164 48.776 74.4164 49.736C74.4164 51.72 72.8484 53.112 70.6244 53.112C68.4004 53.112 66.8324 51.704 66.8324 49.704H68.1604C68.1604 51.016 69.1844 51.928 70.6244 51.928C72.0804 51.928 73.1044 51.016 73.1044 49.72C73.1044 48.488 72.0804 47.608 70.6564 47.608H69.8084V46.424H70.6564C71.9844 46.424 72.9444 45.64 72.9444 44.504C72.9444 43.336 72.0164 42.52 70.7204 42.52C69.4084 42.52 68.4964 43.352 68.4964 44.536H67.1684C67.1684 42.648 68.6244 41.336 70.7204 41.336C72.7844 41.336 74.2564 42.632 74.2564 44.488C74.2564 45.368 73.7284 46.408 72.8004 47.032ZM76.1296 41.56H83.7456V42.712H80.6736V44.36C80.6736 46.584 82.1936 49.08 84.2736 50.056L83.4896 51.16C81.9216 50.392 80.6416 48.776 80.0016 46.92C79.3616 48.936 78.0336 50.712 76.4496 51.512L75.6336 50.408C77.6816 49.4 79.3136 46.744 79.3136 44.36V42.712H76.1296V41.56ZM85.3296 54.216V40.136H86.7216V45.784H88.9936V46.936H86.7216V54.216H85.3296ZM98.3615 47.192C99.7375 47.192 100.698 46.232 100.698 44.888C100.698 43.544 99.7215 42.584 98.3455 42.584H95.6255L95.6415 47.192H98.3615ZM94.2975 53.048V41.4H98.3935C100.522 41.4 102.01 42.84 102.01 44.888C102.01 46.92 100.522 48.36 98.3935 48.36H95.6415V53.048H94.2975ZM108.315 47.192C109.691 47.192 110.651 46.232 110.651 44.888C110.651 43.544 109.675 42.584 108.299 42.584H105.579L105.595 47.192H108.315ZM104.251 53.048V41.4H108.347C110.475 41.4 111.963 42.84 111.963 44.888C111.963 46.92 110.475 48.36 108.347 48.36H105.595V53.048H104.251ZM118.058 41.4L122.442 53.048H121.018L119.786 49.752H114.714L113.434 53.048H112.01L116.474 41.4H118.058ZM115.146 48.584H119.338L117.274 43.096L115.146 48.584Z" fill="#3F3F46"/>
<rect x="32" y="75" width="12" height="12" rx="4" fill="#27272A"/>
<path d="M53.168 75.72H58.704V76.84H54.48V79.432H58.496V80.536H54.48V83.608C56.448 83.608 57.696 83.544 59.168 83.256L59.328 84.408C57.68 84.728 56.32 84.76 54.064 84.76H53.168V75.72ZM60.16 87.496V74.424H61.472V79.736H63.248V74.12H64.576V88.2H63.248V80.888H61.472V87.496H60.16ZM70.5284 74.952C72.6564 74.952 74.2244 76.312 74.2244 78.28C74.2244 80.248 72.6564 81.608 70.5284 81.608C68.3844 81.608 66.8324 80.248 66.8324 78.28C66.8324 76.312 68.3844 74.952 70.5284 74.952ZM68.1924 78.28C68.1924 79.576 69.1844 80.44 70.5284 80.44C71.8724 80.44 72.8804 79.576 72.8804 78.28C72.8804 77 71.8724 76.12 70.5284 76.12C69.1844 76.12 68.1924 77 68.1924 78.28ZM68.4004 85.528C68.4004 83.848 70.1764 82.872 73.0564 82.872C75.9204 82.872 77.6804 83.848 77.6804 85.528C77.6804 87.208 75.9204 88.184 73.0564 88.184C70.1764 88.184 68.4004 87.208 68.4004 85.528ZM69.7604 85.528C69.7604 86.504 70.9924 87.08 73.0564 87.08C75.0884 87.08 76.3204 86.504 76.3204 85.528C76.3204 84.536 75.0884 83.976 73.0564 83.976C70.9924 83.976 69.7604 84.536 69.7604 85.528ZM76.1444 82.456V74.136H77.5364V76.184H79.5524V77.336H77.5364V79.192H79.5524V80.344H77.5364V82.456H76.1444ZM81.3288 75H88.3208V75.784C88.3208 76.664 88.3208 77.928 87.9688 79.56L86.6248 79.464C86.9288 78.024 86.9768 76.952 86.9768 76.12H81.3288V75ZM80.4648 80.84C81.3608 80.84 82.3528 80.84 83.3928 80.808V78.056H84.7528V80.776C86.2728 80.712 87.8408 80.616 89.2648 80.424L89.3608 81.432C86.4488 81.896 83.1368 81.976 80.6248 81.976L80.4648 80.84ZM82.3207 85.592C82.3207 84.008 84.1128 83.048 86.9928 83.048C89.9048 83.048 91.6968 84.008 91.6968 85.592C91.6968 87.224 89.9048 88.184 86.9928 88.184C84.1128 88.184 82.3207 87.224 82.3207 85.592ZM83.7128 85.592C83.7128 86.536 84.9608 87.08 86.9928 87.08C89.0568 87.08 90.3048 86.536 90.3048 85.592C90.3048 84.68 89.0568 84.136 86.9928 84.136C84.9608 84.136 83.7128 84.68 83.7128 85.592ZM90.1768 82.888V74.12H91.5688V77.912H93.5368V79.064H91.5688V82.888H90.1768Z" fill="#3F3F46"/>
<defs>
<linearGradient id="paint0_linear_5824_28232" x1="600" y1="0" x2="600" y2="260" gradientUnits="userSpaceOnUse">
<stop stop-color="#F6F6F7"/>
<stop offset="1" stop-color="white"/>
</linearGradient>
<linearGradient id="paint1_linear_5824_28232" x1="312" y1="238" x2="312" y2="260" gradientUnits="userSpaceOnUse">
<stop stop-color="#00CC5C"/>
<stop offset="1" stop-color="#5EFFA6"/>
</linearGradient>
<linearGradient id="paint2_linear_5824_28232" x1="456" y1="214" x2="456" y2="260" gradientUnits="userSpaceOnUse">
<stop stop-color="#00CC5C"/>
<stop offset="1" stop-color="#5EFFA6"/>
</linearGradient>
<linearGradient id="paint3_linear_5824_28232" x1="600" y1="178" x2="600" y2="260" gradientUnits="userSpaceOnUse">
<stop stop-color="#9735D0"/>
<stop offset="1" stop-color="#9735D0" stop-opacity="0.4"/>
</linearGradient>
<linearGradient id="paint4_linear_5824_28232" x1="744" y1="116" x2="744" y2="260" gradientUnits="userSpaceOnUse">
<stop stop-color="#9735D0"/>
<stop offset="1" stop-color="#9735D0" stop-opacity="0.4"/>
</linearGradient>
<linearGradient id="paint5_linear_5824_28232" x1="888" y1="60" x2="888" y2="260" gradientUnits="userSpaceOnUse">
<stop stop-color="#9735D0"/>
<stop offset="1" stop-color="#9735D0" stop-opacity="0.4"/>
</linearGradient>
<linearGradient id="paint6_linear_5824_28232" x1="38" y1="7" x2="38" y2="19" gradientUnits="userSpaceOnUse">
<stop stop-color="#00CC5C"/>
<stop offset="1" stop-color="#5EFFA6"/>
</linearGradient>
<linearGradient id="paint7_linear_5824_28232" x1="38" y1="41" x2="38" y2="53" gradientUnits="userSpaceOnUse">
<stop stop-color="#9735D0"/>
<stop offset="1" stop-color="#9735D0" stop-opacity="0.4"/>
</linearGradient>
</defs>
</svg>
