<svg width="1200" height="525" viewBox="0 0 1200 525" fill="none" xmlns="http://www.w3.org/2000/svg">
<rect y="478" width="1200" height="2" fill="#71717A"/>
<rect y="276" width="1200" height="2" fill="#F6F6F7"/>
<rect x="1082" y="76" width="2" height="402" fill="#F6F6F7"/>
<rect x="889" y="76" width="2" height="402" fill="#F6F6F7"/>
<rect x="503" y="76" width="2" height="402" fill="#F6F6F7"/>
<rect x="696" y="76" width="2" height="402" fill="#F6F6F7"/>
<rect x="205" y="217" width="2" height="261" fill="#F6F6F7"/>
<rect x="115" y="258" width="2" height="220" fill="#F6F6F7"/>
<rect x="112" y="475" width="8" height="8" rx="4" fill="#3F3F46"/>
<rect x="202" y="475" width="8" height="8" rx="4" fill="#3F3F46"/>
<rect x="500" y="475" width="8" height="8" rx="4" fill="#3F3F46"/>
<rect x="693" y="475" width="8" height="8" rx="4" fill="#3F3F46"/>
<rect x="886" y="475" width="8" height="8" rx="4" fill="#3F3F46"/>
<rect x="1079" y="475" width="8" height="8" rx="4" fill="#3F3F46"/>
<path d="M98.024 516.56C98.248 516.336 98.5307 516.075 98.872 515.776C99.2133 515.477 99.4747 515.243 99.656 515.072C100.52 514.304 101.208 513.669 101.72 513.168C102.232 512.656 102.664 512.133 103.016 511.6C103.368 511.067 103.544 510.56 103.544 510.08C103.544 509.419 103.352 508.88 102.968 508.464C102.595 508.048 102.115 507.84 101.528 507.84C101.069 507.84 100.632 507.989 100.216 508.288C99.8107 508.587 99.5013 508.971 99.288 509.44L97.8 508.784C98.12 508.048 98.6267 507.451 99.32 506.992C100.024 506.523 100.76 506.288 101.528 506.288C102.253 506.288 102.893 506.448 103.448 506.768C104.013 507.088 104.451 507.536 104.76 508.112C105.08 508.688 105.24 509.344 105.24 510.08C105.24 510.805 105.021 511.525 104.584 512.24C104.157 512.955 103.64 513.611 103.032 514.208C102.424 514.805 101.64 515.515 100.68 516.336L100.424 516.56H105.432V518.048H98.184L98.024 516.56ZM111.371 516.656C111.893 516.656 112.357 516.469 112.763 516.096C113.168 515.723 113.483 515.205 113.707 514.544C113.931 513.872 114.043 513.099 114.043 512.224C114.043 511.349 113.931 510.576 113.707 509.904C113.483 509.232 113.168 508.709 112.763 508.336C112.357 507.963 111.893 507.776 111.371 507.776C110.848 507.776 110.379 507.963 109.963 508.336C109.557 508.709 109.243 509.232 109.019 509.904C108.795 510.576 108.683 511.349 108.683 512.224C108.683 513.099 108.795 513.872 109.019 514.544C109.243 515.205 109.557 515.723 109.963 516.096C110.379 516.469 110.848 516.656 111.371 516.656ZM106.987 512.224C106.987 511.072 107.173 510.048 107.547 509.152C107.92 508.245 108.437 507.541 109.099 507.04C109.76 506.539 110.517 506.288 111.371 506.288C112.213 506.288 112.965 506.539 113.627 507.04C114.288 507.541 114.805 508.245 115.179 509.152C115.552 510.048 115.739 511.072 115.739 512.224C115.739 513.365 115.552 514.389 115.179 515.296C114.805 516.192 114.288 516.896 113.627 517.408C112.965 517.909 112.213 518.16 111.371 518.16C110.528 518.16 109.771 517.909 109.099 517.408C108.437 516.896 107.92 516.192 107.547 515.296C107.173 514.389 106.987 513.365 106.987 512.224ZM117.54 516.56C117.764 516.336 118.046 516.075 118.388 515.776C118.729 515.477 118.99 515.243 119.172 515.072C120.036 514.304 120.724 513.669 121.236 513.168C121.748 512.656 122.18 512.133 122.532 511.6C122.884 511.067 123.06 510.56 123.06 510.08C123.06 509.419 122.868 508.88 122.484 508.464C122.11 508.048 121.63 507.84 121.044 507.84C120.585 507.84 120.148 507.989 119.732 508.288C119.326 508.587 119.017 508.971 118.804 509.44L117.316 508.784C117.636 508.048 118.142 507.451 118.836 506.992C119.54 506.523 120.276 506.288 121.044 506.288C121.769 506.288 122.409 506.448 122.964 506.768C123.529 507.088 123.966 507.536 124.276 508.112C124.596 508.688 124.756 509.344 124.756 510.08C124.756 510.805 124.537 511.525 124.1 512.24C123.673 512.955 123.156 513.611 122.548 514.208C121.94 514.805 121.156 515.515 120.196 516.336L119.94 516.56H124.948V518.048H117.7L117.54 516.56ZM130.854 518.048L129.158 518.032V508.224L127.11 509.36L126.406 507.936L129.174 506.416H130.854V518.048Z" fill="#71717A"/>
<path d="M187.024 516.56C187.248 516.336 187.531 516.075 187.872 515.776C188.213 515.477 188.475 515.243 188.656 515.072C189.52 514.304 190.208 513.669 190.72 513.168C191.232 512.656 191.664 512.133 192.016 511.6C192.368 511.067 192.544 510.56 192.544 510.08C192.544 509.419 192.352 508.88 191.968 508.464C191.595 508.048 191.115 507.84 190.528 507.84C190.069 507.84 189.632 507.989 189.216 508.288C188.811 508.587 188.501 508.971 188.288 509.44L186.8 508.784C187.12 508.048 187.627 507.451 188.32 506.992C189.024 506.523 189.76 506.288 190.528 506.288C191.253 506.288 191.893 506.448 192.448 506.768C193.013 507.088 193.451 507.536 193.76 508.112C194.08 508.688 194.24 509.344 194.24 510.08C194.24 510.805 194.021 511.525 193.584 512.24C193.157 512.955 192.64 513.611 192.032 514.208C191.424 514.805 190.64 515.515 189.68 516.336L189.424 516.56H194.432V518.048H187.184L187.024 516.56ZM200.371 516.656C200.893 516.656 201.357 516.469 201.763 516.096C202.168 515.723 202.483 515.205 202.707 514.544C202.931 513.872 203.043 513.099 203.043 512.224C203.043 511.349 202.931 510.576 202.707 509.904C202.483 509.232 202.168 508.709 201.763 508.336C201.357 507.963 200.893 507.776 200.371 507.776C199.848 507.776 199.379 507.963 198.963 508.336C198.557 508.709 198.243 509.232 198.019 509.904C197.795 510.576 197.683 511.349 197.683 512.224C197.683 513.099 197.795 513.872 198.019 514.544C198.243 515.205 198.557 515.723 198.963 516.096C199.379 516.469 199.848 516.656 200.371 516.656ZM195.987 512.224C195.987 511.072 196.173 510.048 196.547 509.152C196.92 508.245 197.437 507.541 198.099 507.04C198.76 506.539 199.517 506.288 200.371 506.288C201.213 506.288 201.965 506.539 202.627 507.04C203.288 507.541 203.805 508.245 204.179 509.152C204.552 510.048 204.739 511.072 204.739 512.224C204.739 513.365 204.552 514.389 204.179 515.296C203.805 516.192 203.288 516.896 202.627 517.408C201.965 517.909 201.213 518.16 200.371 518.16C199.528 518.16 198.771 517.909 198.099 517.408C197.437 516.896 196.92 516.192 196.547 515.296C196.173 514.389 195.987 513.365 195.987 512.224ZM206.54 516.56C206.764 516.336 207.046 516.075 207.388 515.776C207.729 515.477 207.99 515.243 208.172 515.072C209.036 514.304 209.724 513.669 210.236 513.168C210.748 512.656 211.18 512.133 211.532 511.6C211.884 511.067 212.06 510.56 212.06 510.08C212.06 509.419 211.868 508.88 211.484 508.464C211.11 508.048 210.63 507.84 210.044 507.84C209.585 507.84 209.148 507.989 208.732 508.288C208.326 508.587 208.017 508.971 207.804 509.44L206.316 508.784C206.636 508.048 207.142 507.451 207.836 506.992C208.54 506.523 209.276 506.288 210.044 506.288C210.769 506.288 211.409 506.448 211.964 506.768C212.529 507.088 212.966 507.536 213.276 508.112C213.596 508.688 213.756 509.344 213.756 510.08C213.756 510.805 213.537 511.525 213.1 512.24C212.673 512.955 212.156 513.611 211.548 514.208C210.94 514.805 210.156 515.515 209.196 516.336L208.94 516.56H213.948V518.048H206.7L206.54 516.56ZM215.758 516.56C215.982 516.336 216.265 516.075 216.606 515.776C216.948 515.477 217.209 515.243 217.39 515.072C218.254 514.304 218.942 513.669 219.454 513.168C219.966 512.656 220.398 512.133 220.75 511.6C221.102 511.067 221.278 510.56 221.278 510.08C221.278 509.419 221.086 508.88 220.702 508.464C220.329 508.048 219.849 507.84 219.262 507.84C218.804 507.84 218.366 507.989 217.95 508.288C217.545 508.587 217.236 508.971 217.022 509.44L215.534 508.784C215.854 508.048 216.361 507.451 217.054 506.992C217.758 506.523 218.494 506.288 219.262 506.288C219.988 506.288 220.628 506.448 221.182 506.768C221.748 507.088 222.185 507.536 222.494 508.112C222.814 508.688 222.974 509.344 222.974 510.08C222.974 510.805 222.756 511.525 222.318 512.24C221.892 512.955 221.374 513.611 220.766 514.208C220.158 514.805 219.374 515.515 218.414 516.336L218.158 516.56H223.166V518.048H215.918L215.758 516.56Z" fill="#71717A"/>
<path d="M485.024 516.56C485.248 516.336 485.531 516.075 485.872 515.776C486.213 515.477 486.475 515.243 486.656 515.072C487.52 514.304 488.208 513.669 488.72 513.168C489.232 512.656 489.664 512.133 490.016 511.6C490.368 511.067 490.544 510.56 490.544 510.08C490.544 509.419 490.352 508.88 489.968 508.464C489.595 508.048 489.115 507.84 488.528 507.84C488.069 507.84 487.632 507.989 487.216 508.288C486.811 508.587 486.501 508.971 486.288 509.44L484.8 508.784C485.12 508.048 485.627 507.451 486.32 506.992C487.024 506.523 487.76 506.288 488.528 506.288C489.253 506.288 489.893 506.448 490.448 506.768C491.013 507.088 491.451 507.536 491.76 508.112C492.08 508.688 492.24 509.344 492.24 510.08C492.24 510.805 492.021 511.525 491.584 512.24C491.157 512.955 490.64 513.611 490.032 514.208C489.424 514.805 488.64 515.515 487.68 516.336L487.424 516.56H492.432V518.048H485.184L485.024 516.56ZM498.371 516.656C498.893 516.656 499.357 516.469 499.763 516.096C500.168 515.723 500.483 515.205 500.707 514.544C500.931 513.872 501.043 513.099 501.043 512.224C501.043 511.349 500.931 510.576 500.707 509.904C500.483 509.232 500.168 508.709 499.763 508.336C499.357 507.963 498.893 507.776 498.371 507.776C497.848 507.776 497.379 507.963 496.963 508.336C496.557 508.709 496.243 509.232 496.019 509.904C495.795 510.576 495.683 511.349 495.683 512.224C495.683 513.099 495.795 513.872 496.019 514.544C496.243 515.205 496.557 515.723 496.963 516.096C497.379 516.469 497.848 516.656 498.371 516.656ZM493.987 512.224C493.987 511.072 494.173 510.048 494.547 509.152C494.92 508.245 495.437 507.541 496.099 507.04C496.76 506.539 497.517 506.288 498.371 506.288C499.213 506.288 499.965 506.539 500.627 507.04C501.288 507.541 501.805 508.245 502.179 509.152C502.552 510.048 502.739 511.072 502.739 512.224C502.739 513.365 502.552 514.389 502.179 515.296C501.805 516.192 501.288 516.896 500.627 517.408C499.965 517.909 499.213 518.16 498.371 518.16C497.528 518.16 496.771 517.909 496.099 517.408C495.437 516.896 494.92 516.192 494.547 515.296C494.173 514.389 493.987 513.365 493.987 512.224ZM504.54 516.56C504.764 516.336 505.046 516.075 505.388 515.776C505.729 515.477 505.99 515.243 506.172 515.072C507.036 514.304 507.724 513.669 508.236 513.168C508.748 512.656 509.18 512.133 509.532 511.6C509.884 511.067 510.06 510.56 510.06 510.08C510.06 509.419 509.868 508.88 509.484 508.464C509.11 508.048 508.63 507.84 508.044 507.84C507.585 507.84 507.148 507.989 506.732 508.288C506.326 508.587 506.017 508.971 505.804 509.44L504.316 508.784C504.636 508.048 505.142 507.451 505.836 506.992C506.54 506.523 507.276 506.288 508.044 506.288C508.769 506.288 509.409 506.448 509.964 506.768C510.529 507.088 510.966 507.536 511.276 508.112C511.596 508.688 511.756 509.344 511.756 510.08C511.756 510.805 511.537 511.525 511.1 512.24C510.673 512.955 510.156 513.611 509.548 514.208C508.94 514.805 508.156 515.515 507.196 516.336L506.94 516.56H511.948V518.048H504.7L504.54 516.56ZM513.982 512.624L514.382 506.4H520.606V507.888H516.014L515.822 510.736C516.388 510.48 516.937 510.352 517.47 510.352C518.26 510.352 518.964 510.517 519.582 510.848C520.212 511.179 520.697 511.643 521.038 512.24C521.39 512.827 521.566 513.499 521.566 514.256C521.566 515.024 521.39 515.707 521.038 516.304C520.697 516.901 520.212 517.371 519.582 517.712C518.964 518.043 518.26 518.208 517.47 518.208C516.852 518.208 516.265 518.08 515.71 517.824C515.166 517.557 514.702 517.195 514.318 516.736C513.934 516.267 513.673 515.739 513.534 515.152L515.182 514.768C515.3 515.301 515.572 515.744 515.998 516.096C516.425 516.437 516.916 516.608 517.47 516.608C518.174 516.608 518.75 516.389 519.198 515.952C519.646 515.515 519.87 514.949 519.87 514.256C519.87 513.584 519.646 513.035 519.198 512.608C518.75 512.171 518.174 511.952 517.47 511.952C517.172 511.952 516.857 512.037 516.526 512.208C516.196 512.368 515.913 512.576 515.678 512.832L513.982 512.624Z" fill="#71717A"/>
<path d="M678.024 516.56C678.248 516.336 678.531 516.075 678.872 515.776C679.213 515.477 679.475 515.243 679.656 515.072C680.52 514.304 681.208 513.669 681.72 513.168C682.232 512.656 682.664 512.133 683.016 511.6C683.368 511.067 683.544 510.56 683.544 510.08C683.544 509.419 683.352 508.88 682.968 508.464C682.595 508.048 682.115 507.84 681.528 507.84C681.069 507.84 680.632 507.989 680.216 508.288C679.811 508.587 679.501 508.971 679.288 509.44L677.8 508.784C678.12 508.048 678.627 507.451 679.32 506.992C680.024 506.523 680.76 506.288 681.528 506.288C682.253 506.288 682.893 506.448 683.448 506.768C684.013 507.088 684.451 507.536 684.76 508.112C685.08 508.688 685.24 509.344 685.24 510.08C685.24 510.805 685.021 511.525 684.584 512.24C684.157 512.955 683.64 513.611 683.032 514.208C682.424 514.805 681.64 515.515 680.68 516.336L680.424 516.56H685.432V518.048H678.184L678.024 516.56ZM691.371 516.656C691.893 516.656 692.357 516.469 692.763 516.096C693.168 515.723 693.483 515.205 693.707 514.544C693.931 513.872 694.043 513.099 694.043 512.224C694.043 511.349 693.931 510.576 693.707 509.904C693.483 509.232 693.168 508.709 692.763 508.336C692.357 507.963 691.893 507.776 691.371 507.776C690.848 507.776 690.379 507.963 689.963 508.336C689.557 508.709 689.243 509.232 689.019 509.904C688.795 510.576 688.683 511.349 688.683 512.224C688.683 513.099 688.795 513.872 689.019 514.544C689.243 515.205 689.557 515.723 689.963 516.096C690.379 516.469 690.848 516.656 691.371 516.656ZM686.987 512.224C686.987 511.072 687.173 510.048 687.547 509.152C687.92 508.245 688.437 507.541 689.099 507.04C689.76 506.539 690.517 506.288 691.371 506.288C692.213 506.288 692.965 506.539 693.627 507.04C694.288 507.541 694.805 508.245 695.179 509.152C695.552 510.048 695.739 511.072 695.739 512.224C695.739 513.365 695.552 514.389 695.179 515.296C694.805 516.192 694.288 516.896 693.627 517.408C692.965 517.909 692.213 518.16 691.371 518.16C690.528 518.16 689.771 517.909 689.099 517.408C688.437 516.896 687.92 516.192 687.547 515.296C687.173 514.389 686.987 513.365 686.987 512.224ZM703.492 512.032C704.004 512.331 704.414 512.736 704.724 513.248C705.033 513.749 705.188 514.251 705.188 514.752C705.188 515.403 705.017 515.989 704.676 516.512C704.345 517.024 703.881 517.424 703.284 517.712C702.686 518 702.004 518.144 701.236 518.144C700.478 518.144 699.801 517.995 699.204 517.696C698.606 517.397 698.137 516.987 697.796 516.464C697.465 515.931 697.3 515.328 697.3 514.656H698.996C698.996 515.243 699.204 515.723 699.62 516.096C700.036 516.459 700.574 516.64 701.236 516.64C701.908 516.64 702.457 516.459 702.884 516.096C703.321 515.723 703.54 515.243 703.54 514.656C703.54 514.091 703.326 513.632 702.9 513.28C702.473 512.917 701.929 512.736 701.268 512.736H700.436V511.312H701.284C701.892 511.312 702.388 511.152 702.772 510.832C703.166 510.501 703.364 510.08 703.364 509.568C703.364 509.045 703.177 508.624 702.804 508.304C702.43 507.973 701.945 507.808 701.348 507.808C700.761 507.808 700.281 507.973 699.908 508.304C699.534 508.635 699.348 509.061 699.348 509.584H697.652C697.652 508.944 697.806 508.379 698.116 507.888C698.436 507.387 698.873 506.997 699.428 506.72C699.993 506.443 700.633 506.304 701.348 506.304C702.052 506.304 702.681 506.443 703.236 506.72C703.79 506.987 704.222 507.36 704.532 507.84C704.852 508.32 705.012 508.864 705.012 509.472C705.012 509.931 704.873 510.4 704.596 510.88C704.318 511.349 703.95 511.733 703.492 512.032ZM711.089 518.048L709.393 518.032V508.224L707.345 509.36L706.641 507.936L709.409 506.416H711.089V518.048Z" fill="#71717A"/>
<path d="M871.024 516.56C871.248 516.336 871.531 516.075 871.872 515.776C872.213 515.477 872.475 515.243 872.656 515.072C873.52 514.304 874.208 513.669 874.72 513.168C875.232 512.656 875.664 512.133 876.016 511.6C876.368 511.067 876.544 510.56 876.544 510.08C876.544 509.419 876.352 508.88 875.968 508.464C875.595 508.048 875.115 507.84 874.528 507.84C874.069 507.84 873.632 507.989 873.216 508.288C872.811 508.587 872.501 508.971 872.288 509.44L870.8 508.784C871.12 508.048 871.627 507.451 872.32 506.992C873.024 506.523 873.76 506.288 874.528 506.288C875.253 506.288 875.893 506.448 876.448 506.768C877.013 507.088 877.451 507.536 877.76 508.112C878.08 508.688 878.24 509.344 878.24 510.08C878.24 510.805 878.021 511.525 877.584 512.24C877.157 512.955 876.64 513.611 876.032 514.208C875.424 514.805 874.64 515.515 873.68 516.336L873.424 516.56H878.432V518.048H871.184L871.024 516.56ZM884.371 516.656C884.893 516.656 885.357 516.469 885.763 516.096C886.168 515.723 886.483 515.205 886.707 514.544C886.931 513.872 887.043 513.099 887.043 512.224C887.043 511.349 886.931 510.576 886.707 509.904C886.483 509.232 886.168 508.709 885.763 508.336C885.357 507.963 884.893 507.776 884.371 507.776C883.848 507.776 883.379 507.963 882.963 508.336C882.557 508.709 882.243 509.232 882.019 509.904C881.795 510.576 881.683 511.349 881.683 512.224C881.683 513.099 881.795 513.872 882.019 514.544C882.243 515.205 882.557 515.723 882.963 516.096C883.379 516.469 883.848 516.656 884.371 516.656ZM879.987 512.224C879.987 511.072 880.173 510.048 880.547 509.152C880.92 508.245 881.437 507.541 882.099 507.04C882.76 506.539 883.517 506.288 884.371 506.288C885.213 506.288 885.965 506.539 886.627 507.04C887.288 507.541 887.805 508.245 888.179 509.152C888.552 510.048 888.739 511.072 888.739 512.224C888.739 513.365 888.552 514.389 888.179 515.296C887.805 516.192 887.288 516.896 886.627 517.408C885.965 517.909 885.213 518.16 884.371 518.16C883.528 518.16 882.771 517.909 882.099 517.408C881.437 516.896 880.92 516.192 880.547 515.296C880.173 514.389 879.987 513.365 879.987 512.224ZM896.492 512.032C897.004 512.331 897.414 512.736 897.724 513.248C898.033 513.749 898.188 514.251 898.188 514.752C898.188 515.403 898.017 515.989 897.676 516.512C897.345 517.024 896.881 517.424 896.284 517.712C895.686 518 895.004 518.144 894.236 518.144C893.478 518.144 892.801 517.995 892.204 517.696C891.606 517.397 891.137 516.987 890.796 516.464C890.465 515.931 890.3 515.328 890.3 514.656H891.996C891.996 515.243 892.204 515.723 892.62 516.096C893.036 516.459 893.574 516.64 894.236 516.64C894.908 516.64 895.457 516.459 895.884 516.096C896.321 515.723 896.54 515.243 896.54 514.656C896.54 514.091 896.326 513.632 895.9 513.28C895.473 512.917 894.929 512.736 894.268 512.736H893.436V511.312H894.284C894.892 511.312 895.388 511.152 895.772 510.832C896.166 510.501 896.364 510.08 896.364 509.568C896.364 509.045 896.177 508.624 895.804 508.304C895.43 507.973 894.945 507.808 894.348 507.808C893.761 507.808 893.281 507.973 892.908 508.304C892.534 508.635 892.348 509.061 892.348 509.584H890.652C890.652 508.944 890.806 508.379 891.116 507.888C891.436 507.387 891.873 506.997 892.428 506.72C892.993 506.443 893.633 506.304 894.348 506.304C895.052 506.304 895.681 506.443 896.236 506.72C896.79 506.987 897.222 507.36 897.532 507.84C897.852 508.32 898.012 508.864 898.012 509.472C898.012 509.931 897.873 510.4 897.596 510.88C897.318 511.349 896.95 511.733 896.492 512.032ZM900.217 512.624L900.617 506.4H906.841V507.888H902.249L902.057 510.736C902.622 510.48 903.171 510.352 903.705 510.352C904.494 510.352 905.198 510.517 905.817 510.848C906.446 511.179 906.931 511.643 907.273 512.24C907.625 512.827 907.801 513.499 907.801 514.256C907.801 515.024 907.625 515.707 907.273 516.304C906.931 516.901 906.446 517.371 905.817 517.712C905.198 518.043 904.494 518.208 903.705 518.208C903.086 518.208 902.499 518.08 901.945 517.824C901.401 517.557 900.937 517.195 900.553 516.736C900.169 516.267 899.907 515.739 899.769 515.152L901.417 514.768C901.534 515.301 901.806 515.744 902.233 516.096C902.659 516.437 903.15 516.608 903.705 516.608C904.409 516.608 904.985 516.389 905.433 515.952C905.881 515.515 906.105 514.949 906.105 514.256C906.105 513.584 905.881 513.035 905.433 512.608C904.985 512.171 904.409 511.952 903.705 511.952C903.406 511.952 903.091 512.037 902.761 512.208C902.43 512.368 902.147 512.576 901.913 512.832L900.217 512.624Z" fill="#71717A"/>
<path d="M1065.02 516.56C1065.25 516.336 1065.53 516.075 1065.87 515.776C1066.21 515.477 1066.47 515.243 1066.66 515.072C1067.52 514.304 1068.21 513.669 1068.72 513.168C1069.23 512.656 1069.66 512.133 1070.02 511.6C1070.37 511.067 1070.54 510.56 1070.54 510.08C1070.54 509.419 1070.35 508.88 1069.97 508.464C1069.59 508.048 1069.11 507.84 1068.53 507.84C1068.07 507.84 1067.63 507.989 1067.22 508.288C1066.81 508.587 1066.5 508.971 1066.29 509.44L1064.8 508.784C1065.12 508.048 1065.63 507.451 1066.32 506.992C1067.02 506.523 1067.76 506.288 1068.53 506.288C1069.25 506.288 1069.89 506.448 1070.45 506.768C1071.01 507.088 1071.45 507.536 1071.76 508.112C1072.08 508.688 1072.24 509.344 1072.24 510.08C1072.24 510.805 1072.02 511.525 1071.58 512.24C1071.16 512.955 1070.64 513.611 1070.03 514.208C1069.42 514.805 1068.64 515.515 1067.68 516.336L1067.42 516.56H1072.43V518.048H1065.18L1065.02 516.56ZM1078.37 516.656C1078.89 516.656 1079.36 516.469 1079.76 516.096C1080.17 515.723 1080.48 515.205 1080.71 514.544C1080.93 513.872 1081.04 513.099 1081.04 512.224C1081.04 511.349 1080.93 510.576 1080.71 509.904C1080.48 509.232 1080.17 508.709 1079.76 508.336C1079.36 507.963 1078.89 507.776 1078.37 507.776C1077.85 507.776 1077.38 507.963 1076.96 508.336C1076.56 508.709 1076.24 509.232 1076.02 509.904C1075.79 510.576 1075.68 511.349 1075.68 512.224C1075.68 513.099 1075.79 513.872 1076.02 514.544C1076.24 515.205 1076.56 515.723 1076.96 516.096C1077.38 516.469 1077.85 516.656 1078.37 516.656ZM1073.99 512.224C1073.99 511.072 1074.17 510.048 1074.55 509.152C1074.92 508.245 1075.44 507.541 1076.1 507.04C1076.76 506.539 1077.52 506.288 1078.37 506.288C1079.21 506.288 1079.97 506.539 1080.63 507.04C1081.29 507.541 1081.81 508.245 1082.18 509.152C1082.55 510.048 1082.74 511.072 1082.74 512.224C1082.74 513.365 1082.55 514.389 1082.18 515.296C1081.81 516.192 1081.29 516.896 1080.63 517.408C1079.97 517.909 1079.21 518.16 1078.37 518.16C1077.53 518.16 1076.77 517.909 1076.1 517.408C1075.44 516.896 1074.92 516.192 1074.55 515.296C1074.17 514.389 1073.99 513.365 1073.99 512.224ZM1091.16 513.568H1092.64V515.04H1091.16V518.048H1089.47V515.04H1084.46L1084.3 513.568L1089.55 506.4H1091.16V513.568ZM1089.47 513.568V509.232L1086.32 513.568H1089.47ZM1098.57 516.656C1099.1 516.656 1099.56 516.469 1099.97 516.096C1100.37 515.723 1100.69 515.205 1100.91 514.544C1101.13 513.872 1101.25 513.099 1101.25 512.224C1101.25 511.349 1101.13 510.576 1100.91 509.904C1100.69 509.232 1100.37 508.709 1099.97 508.336C1099.56 507.963 1099.1 507.776 1098.57 507.776C1098.05 507.776 1097.58 507.963 1097.17 508.336C1096.76 508.709 1096.45 509.232 1096.22 509.904C1096 510.576 1095.89 511.349 1095.89 512.224C1095.89 513.099 1096 513.872 1096.22 514.544C1096.45 515.205 1096.76 515.723 1097.17 516.096C1097.58 516.469 1098.05 516.656 1098.57 516.656ZM1094.19 512.224C1094.19 511.072 1094.38 510.048 1094.75 509.152C1095.12 508.245 1095.64 507.541 1096.3 507.04C1096.96 506.539 1097.72 506.288 1098.57 506.288C1099.42 506.288 1100.17 506.539 1100.83 507.04C1101.49 507.541 1102.01 508.245 1102.38 509.152C1102.76 510.048 1102.94 511.072 1102.94 512.224C1102.94 513.365 1102.76 514.389 1102.38 515.296C1102.01 516.192 1101.49 516.896 1100.83 517.408C1100.17 517.909 1099.42 518.16 1098.57 518.16C1097.73 518.16 1096.97 517.909 1096.3 517.408C1095.64 516.896 1095.12 516.192 1094.75 515.296C1094.38 514.389 1094.19 513.365 1094.19 512.224Z" fill="#71717A"/>
<path d="M116 258H206L504 328L697 385L890 425L1083 479" stroke="#9735D0" stroke-width="2"/>
<circle cx="116" cy="258" r="6.5" stroke="#6D0CA6"/>
<circle cx="116" cy="258" r="4" fill="#6D0CA6"/>
<circle cx="206" cy="258" r="6.5" stroke="#6D0CA6"/>
<circle cx="206" cy="258" r="4" fill="#6D0CA6"/>
<circle cx="206" cy="322" r="6.5" stroke="#6D0CA6"/>
<circle cx="206" cy="322" r="4" fill="#6D0CA6"/>
<circle cx="504" cy="328" r="6.5" stroke="#6D0CA6"/>
<circle cx="504" cy="328" r="4" fill="#6D0CA6"/>
<circle cx="697" cy="385" r="6.5" stroke="#6D0CA6"/>
<circle cx="697" cy="385" r="4" fill="#6D0CA6"/>
<circle cx="890" cy="425" r="6.5" stroke="#6D0CA6"/>
<circle cx="890" cy="425" r="4" fill="#6D0CA6"/>
<circle cx="1083" cy="479" r="6.5" stroke="#6D0CA6"/>
<circle cx="1083" cy="479" r="4" fill="#6D0CA6"/>
<rect x="179" y="335" width="55" height="29" rx="14.5" fill="white"/>
<path d="M197.604 342.95V351.014H199.26V352.67H197.604V356.054H195.696V352.67H190.062L189.882 351.014L195.786 342.95H197.604ZM192.15 351.014H195.696V346.136L192.15 351.014ZM201.297 354.38C203.925 351.86 207.507 349.304 207.507 347.09C207.507 345.614 206.571 344.57 205.239 344.57C204.213 344.57 203.187 345.308 202.719 346.37L201.045 345.632C201.765 343.976 203.511 342.824 205.239 342.824C207.705 342.824 209.415 344.588 209.415 347.09C209.415 349.844 206.427 352.292 203.997 354.38H209.631V356.054H201.477L201.297 354.38ZM212.604 354.182C213.252 354.182 213.702 354.65 213.702 355.298C213.702 355.964 213.252 356.432 212.604 356.432C211.938 356.432 211.47 355.964 211.47 355.298C211.47 354.65 211.938 354.182 212.604 354.182ZM221.285 342.968V356.054L219.377 356.036V345.002L217.073 346.28L216.281 344.678L219.395 342.968H221.285Z" fill="#15151A"/>
<rect x="477" y="341" width="55" height="29" rx="14.5" fill="white"/>
<path d="M495.604 357.014H497.26V358.67H495.604V362.054H493.696V358.67H488.062L487.882 357.014L493.786 348.95H495.604V357.014ZM493.696 357.014V352.136L490.15 357.014H493.696ZM503.905 362.054L501.997 362.036V351.002L499.693 352.28L498.901 350.678L502.015 348.968H503.905V362.054ZM507.756 360.182C508.08 360.182 508.344 360.29 508.548 360.506C508.752 360.71 508.854 360.974 508.854 361.298C508.854 361.634 508.752 361.904 508.548 362.108C508.344 362.324 508.08 362.432 507.756 362.432C507.42 362.432 507.144 362.324 506.928 362.108C506.724 361.904 506.622 361.634 506.622 361.298C506.622 360.974 506.724 360.71 506.928 360.506C507.144 360.29 507.42 360.182 507.756 360.182ZM518.526 355.286C519.102 355.622 519.564 356.078 519.912 356.654C520.26 357.218 520.434 357.782 520.434 358.346C520.434 359.078 520.242 359.738 519.858 360.326C519.486 360.902 518.964 361.352 518.292 361.676C517.62 362 516.852 362.162 515.988 362.162C515.136 362.162 514.374 361.994 513.702 361.658C513.03 361.322 512.502 360.86 512.118 360.272C511.746 359.672 511.56 358.994 511.56 358.238H513.468C513.468 358.898 513.702 359.438 514.17 359.858C514.638 360.266 515.244 360.47 515.988 360.47C516.744 360.47 517.362 360.266 517.842 359.858C518.334 359.438 518.58 358.898 518.58 358.238C518.58 357.602 518.34 357.086 517.86 356.69C517.38 356.282 516.768 356.078 516.024 356.078H515.088V354.476H516.042C516.726 354.476 517.284 354.296 517.716 353.936C518.16 353.564 518.382 353.09 518.382 352.514C518.382 351.926 518.172 351.452 517.752 351.092C517.332 350.72 516.786 350.534 516.114 350.534C515.454 350.534 514.914 350.72 514.494 351.092C514.074 351.464 513.864 351.944 513.864 352.532H511.956C511.956 351.812 512.13 351.176 512.478 350.624C512.838 350.06 513.33 349.622 513.954 349.31C514.59 348.998 515.31 348.842 516.114 348.842C516.906 348.842 517.614 348.998 518.238 349.31C518.862 349.61 519.348 350.03 519.696 350.57C520.056 351.11 520.236 351.722 520.236 352.406C520.236 352.922 520.08 353.45 519.768 353.99C519.456 354.518 519.042 354.95 518.526 355.286Z" fill="#15151A"/>
<rect x="668" y="398" width="58" height="29" rx="14.5" fill="white"/>
<path d="M679.152 417.38C679.404 417.128 679.722 416.834 680.106 416.498C680.49 416.162 680.784 415.898 680.988 415.706C681.96 414.842 682.734 414.128 683.31 413.564C683.886 412.988 684.372 412.4 684.768 411.8C685.164 411.2 685.362 410.63 685.362 410.09C685.362 409.346 685.146 408.74 684.714 408.272C684.294 407.804 683.754 407.57 683.094 407.57C682.578 407.57 682.086 407.738 681.618 408.074C681.162 408.41 680.814 408.842 680.574 409.37L678.9 408.632C679.26 407.804 679.83 407.132 680.61 406.616C681.402 406.088 682.23 405.824 683.094 405.824C683.91 405.824 684.63 406.004 685.254 406.364C685.89 406.724 686.382 407.228 686.73 407.876C687.09 408.524 687.27 409.262 687.27 410.09C687.27 410.906 687.024 411.716 686.532 412.52C686.052 413.324 685.47 414.062 684.786 414.734C684.102 415.406 683.22 416.204 682.14 417.128L681.852 417.38H687.486V419.054H679.332L679.152 417.38ZM696.975 414.014H698.631V415.67H696.975V419.054H695.067V415.67H689.433L689.253 414.014L695.157 405.95H696.975V414.014ZM695.067 414.014V409.136L691.521 414.014H695.067ZM701.604 417.182C701.928 417.182 702.192 417.29 702.396 417.506C702.6 417.71 702.702 417.974 702.702 418.298C702.702 418.634 702.6 418.904 702.396 419.108C702.192 419.324 701.928 419.432 701.604 419.432C701.268 419.432 700.992 419.324 700.776 419.108C700.572 418.904 700.47 418.634 700.47 418.298C700.47 417.974 700.572 417.71 700.776 417.506C700.992 417.29 701.268 417.182 701.604 417.182ZM705.929 412.952L706.379 405.95H713.381V407.624H708.215L707.999 410.828C708.635 410.54 709.253 410.396 709.853 410.396C710.741 410.396 711.533 410.582 712.229 410.954C712.937 411.326 713.483 411.848 713.867 412.52C714.263 413.18 714.461 413.936 714.461 414.788C714.461 415.652 714.263 416.42 713.867 417.092C713.483 417.764 712.937 418.292 712.229 418.676C711.533 419.048 710.741 419.234 709.853 419.234C709.157 419.234 708.497 419.09 707.873 418.802C707.261 418.502 706.739 418.094 706.307 417.578C705.875 417.05 705.581 416.456 705.425 415.796L707.279 415.364C707.411 415.964 707.717 416.462 708.197 416.858C708.677 417.242 709.229 417.434 709.853 417.434C710.645 417.434 711.293 417.188 711.797 416.696C712.301 416.204 712.553 415.568 712.553 414.788C712.553 414.032 712.301 413.414 711.797 412.934C711.293 412.442 710.645 412.196 709.853 412.196C709.517 412.196 709.163 412.292 708.791 412.484C708.419 412.664 708.101 412.898 707.837 413.186L705.929 412.952Z" fill="#15151A"/>
<rect x="863" y="438" width="54" height="29" rx="14.5" fill="white"/>
<path d="M878.76 459.054L876.852 459.036V448.002L874.548 449.28L873.756 447.678L876.87 445.968H878.76V459.054ZM888.371 452.286C888.947 452.622 889.409 453.078 889.757 453.654C890.105 454.218 890.279 454.782 890.279 455.346C890.279 456.078 890.087 456.738 889.703 457.326C889.331 457.902 888.809 458.352 888.137 458.676C887.465 459 886.697 459.162 885.833 459.162C884.981 459.162 884.219 458.994 883.547 458.658C882.875 458.322 882.347 457.86 881.963 457.272C881.591 456.672 881.405 455.994 881.405 455.238H883.313C883.313 455.898 883.547 456.438 884.015 456.858C884.483 457.266 885.089 457.47 885.833 457.47C886.589 457.47 887.207 457.266 887.687 456.858C888.179 456.438 888.425 455.898 888.425 455.238C888.425 454.602 888.185 454.086 887.705 453.69C887.225 453.282 886.613 453.078 885.869 453.078H884.933V451.476H885.887C886.571 451.476 887.129 451.296 887.561 450.936C888.005 450.564 888.227 450.09 888.227 449.514C888.227 448.926 888.017 448.452 887.597 448.092C887.177 447.72 886.631 447.534 885.959 447.534C885.299 447.534 884.759 447.72 884.339 448.092C883.919 448.464 883.709 448.944 883.709 449.532H881.801C881.801 448.812 881.975 448.176 882.323 447.624C882.683 447.06 883.175 446.622 883.799 446.31C884.435 445.998 885.155 445.842 885.959 445.842C886.751 445.842 887.459 445.998 888.083 446.31C888.707 446.61 889.193 447.03 889.541 447.57C889.901 448.11 890.081 448.722 890.081 449.406C890.081 449.922 889.925 450.45 889.613 450.99C889.301 451.518 888.887 451.95 888.371 452.286ZM893.246 457.182C893.57 457.182 893.834 457.29 894.038 457.506C894.242 457.71 894.344 457.974 894.344 458.298C894.344 458.634 894.242 458.904 894.038 459.108C893.834 459.324 893.57 459.432 893.246 459.432C892.91 459.432 892.634 459.324 892.418 459.108C892.214 458.904 892.112 458.634 892.112 458.298C892.112 457.974 892.214 457.71 892.418 457.506C892.634 457.29 892.91 457.182 893.246 457.182ZM901.568 457.506C902.336 457.506 902.966 457.254 903.458 456.75C903.962 456.246 904.214 455.604 904.214 454.824C904.214 454.02 903.968 453.366 903.476 452.862C902.984 452.358 902.348 452.106 901.568 452.106C900.8 452.106 900.17 452.358 899.678 452.862C899.198 453.366 898.958 454.02 898.958 454.824C898.958 455.604 899.198 456.246 899.678 456.75C900.17 457.254 900.8 457.506 901.568 457.506ZM897.05 454.824C897.05 454.044 897.29 453.21 897.77 452.322L901.37 445.914H903.566L900.956 450.504C901.244 450.456 901.466 450.432 901.622 450.432C902.498 450.432 903.272 450.624 903.944 451.008C904.628 451.38 905.162 451.896 905.546 452.556C905.93 453.216 906.122 453.972 906.122 454.824C906.122 455.664 905.93 456.414 905.546 457.074C905.162 457.734 904.622 458.25 903.926 458.622C903.242 458.994 902.462 459.18 901.586 459.18C900.71 459.18 899.924 458.994 899.228 458.622C898.544 458.25 898.01 457.734 897.626 457.074C897.242 456.414 897.05 455.664 897.05 454.824Z" fill="#15151A"/>
<rect x="177" y="271" width="58" height="29" rx="14.5" fill="white"/>
<path d="M195.604 287.014H197.26V288.67H195.604V292.054H193.696V288.67H188.062L187.882 287.014L193.786 278.95H195.604V287.014ZM193.696 287.014V282.136L190.15 287.014H193.696ZM199.549 285.952L199.999 278.95H207.001V280.624H201.835L201.619 283.828C202.255 283.54 202.873 283.396 203.473 283.396C204.361 283.396 205.153 283.582 205.849 283.954C206.557 284.326 207.103 284.848 207.487 285.52C207.883 286.18 208.081 286.936 208.081 287.788C208.081 288.652 207.883 289.42 207.487 290.092C207.103 290.764 206.557 291.292 205.849 291.676C205.153 292.048 204.361 292.234 203.473 292.234C202.777 292.234 202.117 292.09 201.493 291.802C200.881 291.502 200.359 291.094 199.927 290.578C199.495 290.05 199.201 289.456 199.045 288.796L200.899 288.364C201.031 288.964 201.337 289.462 201.817 289.858C202.297 290.242 202.849 290.434 203.473 290.434C204.265 290.434 204.913 290.188 205.417 289.696C205.921 289.204 206.173 288.568 206.173 287.788C206.173 287.032 205.921 286.414 205.417 285.934C204.913 285.442 204.265 285.196 203.473 285.196C203.137 285.196 202.783 285.292 202.411 285.484C202.039 285.664 201.721 285.898 201.457 286.186L199.549 285.952ZM211.061 290.182C211.385 290.182 211.649 290.29 211.853 290.506C212.057 290.71 212.159 290.974 212.159 291.298C212.159 291.634 212.057 291.904 211.853 292.108C211.649 292.324 211.385 292.432 211.061 292.432C210.725 292.432 210.449 292.324 210.233 292.108C210.029 291.904 209.927 291.634 209.927 291.298C209.927 290.974 210.029 290.71 210.233 290.506C210.449 290.29 210.725 290.182 211.061 290.182ZM219.382 290.506C220.15 290.506 220.78 290.254 221.272 289.75C221.776 289.246 222.028 288.604 222.028 287.824C222.028 287.02 221.782 286.366 221.29 285.862C220.798 285.358 220.162 285.106 219.382 285.106C218.614 285.106 217.984 285.358 217.492 285.862C217.012 286.366 216.772 287.02 216.772 287.824C216.772 288.604 217.012 289.246 217.492 289.75C217.984 290.254 218.614 290.506 219.382 290.506ZM214.864 287.824C214.864 287.044 215.104 286.21 215.584 285.322L219.184 278.914H221.38L218.77 283.504C219.058 283.456 219.28 283.432 219.436 283.432C220.312 283.432 221.086 283.624 221.758 284.008C222.442 284.38 222.976 284.896 223.36 285.556C223.744 286.216 223.936 286.972 223.936 287.824C223.936 288.664 223.744 289.414 223.36 290.074C222.976 290.734 222.436 291.25 221.74 291.622C221.056 291.994 220.276 292.18 219.4 292.18C218.524 292.18 217.738 291.994 217.042 291.622C216.358 291.25 215.824 290.734 215.44 290.074C215.056 289.414 214.864 288.664 214.864 287.824Z" fill="#15151A"/>
<rect x="179" y="176" width="54" height="29" rx="14.5" fill="white"/>
<path d="M197.676 192.014H199.332V193.67H197.676V197.054H195.768V193.67H190.134L189.954 192.014L195.858 183.95H197.676V192.014ZM195.768 192.014V187.136L192.222 192.014H195.768ZM202.269 197.09L207.399 185.57L201.387 185.588V183.896H209.307L209.487 185.57L204.357 197.09H202.269ZM212.483 195.182C212.807 195.182 213.071 195.29 213.275 195.506C213.479 195.71 213.581 195.974 213.581 196.298C213.581 196.634 213.479 196.904 213.275 197.108C213.071 197.324 212.807 197.432 212.483 197.432C212.147 197.432 211.871 197.324 211.655 197.108C211.451 196.904 211.349 196.634 211.349 196.298C211.349 195.974 211.451 195.71 211.655 195.506C211.871 195.29 212.147 195.182 212.483 195.182ZM221.164 197.054L219.256 197.036V186.002L216.952 187.28L216.16 185.678L219.274 183.968H221.164V197.054Z" fill="#15151A"/>
<rect x="477" y="141" width="55" height="29" rx="14.5" fill="white"/>
<path d="M488.809 155.952L489.259 148.95H496.261V150.624H491.095L490.879 153.828C491.515 153.54 492.133 153.396 492.733 153.396C493.621 153.396 494.413 153.582 495.109 153.954C495.817 154.326 496.363 154.848 496.747 155.52C497.143 156.18 497.341 156.936 497.341 157.788C497.341 158.652 497.143 159.42 496.747 160.092C496.363 160.764 495.817 161.292 495.109 161.676C494.413 162.048 493.621 162.234 492.733 162.234C492.037 162.234 491.377 162.09 490.753 161.802C490.141 161.502 489.619 161.094 489.187 160.578C488.755 160.05 488.461 159.456 488.305 158.796L490.159 158.364C490.291 158.964 490.597 159.462 491.077 159.858C491.557 160.242 492.109 160.434 492.733 160.434C493.525 160.434 494.173 160.188 494.677 159.696C495.181 159.204 495.433 158.568 495.433 157.788C495.433 157.032 495.181 156.414 494.677 155.934C494.173 155.442 493.525 155.196 492.733 155.196C492.397 155.196 492.043 155.292 491.671 155.484C491.299 155.664 490.981 155.898 490.717 156.186L488.809 155.952ZM503.993 162.054L502.085 162.036V151.002L499.781 152.28L498.989 150.678L502.103 148.968H503.993V162.054ZM507.845 160.182C508.169 160.182 508.433 160.29 508.637 160.506C508.841 160.71 508.943 160.974 508.943 161.298C508.943 161.634 508.841 161.904 508.637 162.108C508.433 162.324 508.169 162.432 507.845 162.432C507.509 162.432 507.233 162.324 507.017 162.108C506.813 161.904 506.711 161.634 506.711 161.298C506.711 160.974 506.813 160.71 507.017 160.506C507.233 160.29 507.509 160.182 507.845 160.182ZM512.171 155.952L512.621 148.95H519.623V150.624H514.457L514.241 153.828C514.877 153.54 515.495 153.396 516.095 153.396C516.983 153.396 517.775 153.582 518.471 153.954C519.179 154.326 519.725 154.848 520.109 155.52C520.505 156.18 520.703 156.936 520.703 157.788C520.703 158.652 520.505 159.42 520.109 160.092C519.725 160.764 519.179 161.292 518.471 161.676C517.775 162.048 516.983 162.234 516.095 162.234C515.399 162.234 514.739 162.09 514.115 161.802C513.503 161.502 512.981 161.094 512.549 160.578C512.117 160.05 511.823 159.456 511.667 158.796L513.521 158.364C513.653 158.964 513.959 159.462 514.439 159.858C514.919 160.242 515.471 160.434 516.095 160.434C516.887 160.434 517.535 160.188 518.039 159.696C518.543 159.204 518.795 158.568 518.795 157.788C518.795 157.032 518.543 156.414 518.039 155.934C517.535 155.442 516.887 155.196 516.095 155.196C515.759 155.196 515.405 155.292 515.033 155.484C514.661 155.664 514.343 155.898 514.079 156.186L512.171 155.952Z" fill="#15151A"/>
<rect x="668" y="101" width="58" height="29" rx="14.5" fill="white"/>
<path d="M679.754 115.952L680.204 108.95H687.206V110.624H682.04L681.824 113.828C682.46 113.54 683.078 113.396 683.678 113.396C684.566 113.396 685.358 113.582 686.054 113.954C686.762 114.326 687.308 114.848 687.692 115.52C688.088 116.18 688.286 116.936 688.286 117.788C688.286 118.652 688.088 119.42 687.692 120.092C687.308 120.764 686.762 121.292 686.054 121.676C685.358 122.048 684.566 122.234 683.678 122.234C682.982 122.234 682.322 122.09 681.698 121.802C681.086 121.502 680.564 121.094 680.132 120.578C679.7 120.05 679.406 119.456 679.25 118.796L681.104 118.364C681.236 118.964 681.542 119.462 682.022 119.858C682.502 120.242 683.054 120.434 683.678 120.434C684.47 120.434 685.118 120.188 685.622 119.696C686.126 119.204 686.378 118.568 686.378 117.788C686.378 117.032 686.126 116.414 685.622 115.934C685.118 115.442 684.47 115.196 683.678 115.196C683.342 115.196 682.988 115.292 682.616 115.484C682.244 115.664 681.926 115.898 681.662 116.186L679.754 115.952ZM694.578 120.506C695.346 120.506 695.976 120.254 696.468 119.75C696.972 119.246 697.224 118.604 697.224 117.824C697.224 117.02 696.978 116.366 696.486 115.862C695.994 115.358 695.358 115.106 694.578 115.106C693.81 115.106 693.18 115.358 692.688 115.862C692.208 116.366 691.968 117.02 691.968 117.824C691.968 118.604 692.208 119.246 692.688 119.75C693.18 120.254 693.81 120.506 694.578 120.506ZM690.06 117.824C690.06 117.044 690.3 116.21 690.78 115.322L694.38 108.914H696.576L693.966 113.504C694.254 113.456 694.476 113.432 694.632 113.432C695.508 113.432 696.282 113.624 696.954 114.008C697.638 114.38 698.172 114.896 698.556 115.556C698.94 116.216 699.132 116.972 699.132 117.824C699.132 118.664 698.94 119.414 698.556 120.074C698.172 120.734 697.632 121.25 696.936 121.622C696.252 121.994 695.472 122.18 694.596 122.18C693.72 122.18 692.934 121.994 692.238 121.622C691.554 121.25 691.02 120.734 690.636 120.074C690.252 119.414 690.06 118.664 690.06 117.824ZM702.094 120.182C702.418 120.182 702.682 120.29 702.886 120.506C703.09 120.71 703.192 120.974 703.192 121.298C703.192 121.634 703.09 121.904 702.886 122.108C702.682 122.324 702.418 122.432 702.094 122.432C701.758 122.432 701.482 122.324 701.266 122.108C701.062 121.904 700.96 121.634 700.96 121.298C700.96 120.974 701.062 120.71 701.266 120.506C701.482 120.29 701.758 120.182 702.094 120.182ZM712.864 115.286C713.44 115.622 713.902 116.078 714.25 116.654C714.598 117.218 714.772 117.782 714.772 118.346C714.772 119.078 714.58 119.738 714.196 120.326C713.824 120.902 713.302 121.352 712.63 121.676C711.958 122 711.19 122.162 710.326 122.162C709.474 122.162 708.712 121.994 708.04 121.658C707.368 121.322 706.84 120.86 706.456 120.272C706.084 119.672 705.898 118.994 705.898 118.238H707.806C707.806 118.898 708.04 119.438 708.508 119.858C708.976 120.266 709.582 120.47 710.326 120.47C711.082 120.47 711.7 120.266 712.18 119.858C712.672 119.438 712.918 118.898 712.918 118.238C712.918 117.602 712.678 117.086 712.198 116.69C711.718 116.282 711.106 116.078 710.362 116.078H709.426V114.476H710.38C711.064 114.476 711.622 114.296 712.054 113.936C712.498 113.564 712.72 113.09 712.72 112.514C712.72 111.926 712.51 111.452 712.09 111.092C711.67 110.72 711.124 110.534 710.452 110.534C709.792 110.534 709.252 110.72 708.832 111.092C708.412 111.464 708.202 111.944 708.202 112.532H706.294C706.294 111.812 706.468 111.176 706.816 110.624C707.176 110.06 707.668 109.622 708.292 109.31C708.928 108.998 709.648 108.842 710.452 108.842C711.244 108.842 711.952 108.998 712.576 109.31C713.2 109.61 713.686 110.03 714.034 110.57C714.394 111.11 714.574 111.722 714.574 112.406C714.574 112.922 714.418 113.45 714.106 113.99C713.794 114.518 713.38 114.95 712.864 115.286Z" fill="#15151A"/>
<rect x="862" y="71" width="57" height="29" rx="14.5" fill="white"/>
<path d="M873.552 85.952L874.002 78.95H881.004V80.624H875.838L875.622 83.828C876.258 83.54 876.876 83.396 877.476 83.396C878.364 83.396 879.156 83.582 879.852 83.954C880.56 84.326 881.106 84.848 881.49 85.52C881.886 86.18 882.084 86.936 882.084 87.788C882.084 88.652 881.886 89.42 881.49 90.092C881.106 90.764 880.56 91.292 879.852 91.676C879.156 92.048 878.364 92.234 877.476 92.234C876.78 92.234 876.12 92.09 875.496 91.802C874.884 91.502 874.362 91.094 873.93 90.578C873.498 90.05 873.204 89.456 873.048 88.796L874.902 88.364C875.034 88.964 875.34 89.462 875.82 89.858C876.3 90.242 876.852 90.434 877.476 90.434C878.268 90.434 878.916 90.188 879.42 89.696C879.924 89.204 880.176 88.568 880.176 87.788C880.176 87.032 879.924 86.414 879.42 85.934C878.916 85.442 878.268 85.196 877.476 85.196C877.14 85.196 876.786 85.292 876.414 85.484C876.042 85.664 875.724 85.898 875.46 86.186L873.552 85.952ZM888.323 90.632C889.067 90.632 889.673 90.416 890.141 89.984C890.621 89.552 890.861 88.994 890.861 88.31C890.861 87.626 890.621 87.068 890.141 86.636C889.673 86.192 889.067 85.97 888.323 85.97C887.579 85.97 886.967 86.192 886.487 86.636C886.007 87.068 885.767 87.626 885.767 88.31C885.767 88.994 886.007 89.552 886.487 89.984C886.967 90.416 887.579 90.632 888.323 90.632ZM883.859 88.346C883.859 87.77 884.063 87.182 884.471 86.582C884.879 85.982 885.395 85.508 886.019 85.16C885.491 84.8 885.059 84.356 884.723 83.828C884.387 83.3 884.219 82.802 884.219 82.334C884.219 81.638 884.393 81.02 884.741 80.48C885.089 79.928 885.575 79.502 886.199 79.202C886.823 78.89 887.531 78.734 888.323 78.734C889.115 78.734 889.823 78.89 890.447 79.202C891.071 79.502 891.557 79.928 891.905 80.48C892.253 81.02 892.427 81.638 892.427 82.334C892.427 82.814 892.259 83.318 891.923 83.846C891.587 84.374 891.155 84.812 890.627 85.16C891.263 85.52 891.779 86 892.175 86.6C892.583 87.188 892.787 87.77 892.787 88.346C892.787 89.102 892.595 89.78 892.211 90.38C891.839 90.968 891.311 91.43 890.627 91.766C889.955 92.102 889.187 92.27 888.323 92.27C887.459 92.27 886.685 92.102 886.001 91.766C885.329 91.43 884.801 90.968 884.417 90.38C884.045 89.78 883.859 89.102 883.859 88.346ZM886.145 82.334C886.145 82.922 886.349 83.402 886.757 83.774C887.165 84.146 887.687 84.332 888.323 84.332C888.971 84.332 889.499 84.146 889.907 83.774C890.315 83.402 890.519 82.922 890.519 82.334C890.519 81.746 890.315 81.272 889.907 80.912C889.499 80.54 888.971 80.354 888.323 80.354C887.687 80.354 887.165 80.54 886.757 80.912C886.349 81.272 886.145 81.746 886.145 82.334ZM895.752 90.182C896.076 90.182 896.34 90.29 896.544 90.506C896.748 90.71 896.85 90.974 896.85 91.298C896.85 91.634 896.748 91.904 896.544 92.108C896.34 92.324 896.076 92.432 895.752 92.432C895.416 92.432 895.14 92.324 894.924 92.108C894.72 91.904 894.618 91.634 894.618 91.298C894.618 90.974 894.72 90.71 894.924 90.506C895.14 90.29 895.416 90.182 895.752 90.182ZM900.726 92.09L905.856 80.57L899.844 80.588V78.896H907.764L907.944 80.57L902.814 92.09H900.726Z" fill="#15151A"/>
<rect x="1062" y="27" width="42" height="29" rx="14.5" fill="white"/>
<path d="M1077.8 46.506C1078.57 46.506 1079.2 46.254 1079.69 45.75C1080.19 45.246 1080.45 44.604 1080.45 43.824C1080.45 43.02 1080.2 42.366 1079.71 41.862C1079.22 41.358 1078.58 41.106 1077.8 41.106C1077.03 41.106 1076.4 41.358 1075.91 41.862C1075.43 42.366 1075.19 43.02 1075.19 43.824C1075.19 44.604 1075.43 45.246 1075.91 45.75C1076.4 46.254 1077.03 46.506 1077.8 46.506ZM1073.28 43.824C1073.28 43.044 1073.52 42.21 1074 41.322L1077.6 34.914H1079.8L1077.19 39.504C1077.48 39.456 1077.7 39.432 1077.85 39.432C1078.73 39.432 1079.5 39.624 1080.18 40.008C1080.86 40.38 1081.39 40.896 1081.78 41.556C1082.16 42.216 1082.35 42.972 1082.35 43.824C1082.35 44.664 1082.16 45.414 1081.78 46.074C1081.39 46.734 1080.85 47.25 1080.16 47.622C1079.47 47.994 1078.69 48.18 1077.82 48.18C1076.94 48.18 1076.16 47.994 1075.46 47.622C1074.78 47.25 1074.24 46.734 1073.86 46.074C1073.47 45.414 1073.28 44.664 1073.28 43.824ZM1084.38 46.38C1084.63 46.128 1084.95 45.834 1085.33 45.498C1085.72 45.162 1086.01 44.898 1086.22 44.706C1087.19 43.842 1087.96 43.128 1088.54 42.564C1089.11 41.988 1089.6 41.4 1090 40.8C1090.39 40.2 1090.59 39.63 1090.59 39.09C1090.59 38.346 1090.37 37.74 1089.94 37.272C1089.52 36.804 1088.98 36.57 1088.32 36.57C1087.81 36.57 1087.31 36.738 1086.85 37.074C1086.39 37.41 1086.04 37.842 1085.8 38.37L1084.13 37.632C1084.49 36.804 1085.06 36.132 1085.84 35.616C1086.63 35.088 1087.46 34.824 1088.32 34.824C1089.14 34.824 1089.86 35.004 1090.48 35.364C1091.12 35.724 1091.61 36.228 1091.96 36.876C1092.32 37.524 1092.5 38.262 1092.5 39.09C1092.5 39.906 1092.25 40.716 1091.76 41.52C1091.28 42.324 1090.7 43.062 1090.01 43.734C1089.33 44.406 1088.45 45.204 1087.37 46.128L1087.08 46.38H1092.71V48.054H1084.56L1084.38 46.38Z" fill="#15151A"/>
<rect x="87" y="271" width="58" height="29" rx="14.5" fill="white"/>
<path d="M105.604 287.014H107.26V288.67H105.604V292.054H103.696V288.67H98.062L97.882 287.014L103.786 278.95H105.604V287.014ZM103.696 287.014V282.136L100.15 287.014H103.696ZM109.549 285.952L109.999 278.95H117.001V280.624H111.835L111.619 283.828C112.255 283.54 112.873 283.396 113.473 283.396C114.361 283.396 115.153 283.582 115.849 283.954C116.557 284.326 117.103 284.848 117.487 285.52C117.883 286.18 118.081 286.936 118.081 287.788C118.081 288.652 117.883 289.42 117.487 290.092C117.103 290.764 116.557 291.292 115.849 291.676C115.153 292.048 114.361 292.234 113.473 292.234C112.777 292.234 112.117 292.09 111.493 291.802C110.881 291.502 110.359 291.094 109.927 290.578C109.495 290.05 109.201 289.456 109.045 288.796L110.899 288.364C111.031 288.964 111.337 289.462 111.817 289.858C112.297 290.242 112.849 290.434 113.473 290.434C114.265 290.434 114.913 290.188 115.417 289.696C115.921 289.204 116.173 288.568 116.173 287.788C116.173 287.032 115.921 286.414 115.417 285.934C114.913 285.442 114.265 285.196 113.473 285.196C113.137 285.196 112.783 285.292 112.411 285.484C112.039 285.664 111.721 285.898 111.457 286.186L109.549 285.952ZM121.061 290.182C121.385 290.182 121.649 290.29 121.853 290.506C122.057 290.71 122.159 290.974 122.159 291.298C122.159 291.634 122.057 291.904 121.853 292.108C121.649 292.324 121.385 292.432 121.061 292.432C120.725 292.432 120.449 292.324 120.233 292.108C120.029 291.904 119.927 291.634 119.927 291.298C119.927 290.974 120.029 290.71 120.233 290.506C120.449 290.29 120.725 290.182 121.061 290.182ZM129.382 290.506C130.15 290.506 130.78 290.254 131.272 289.75C131.776 289.246 132.028 288.604 132.028 287.824C132.028 287.02 131.782 286.366 131.29 285.862C130.798 285.358 130.162 285.106 129.382 285.106C128.614 285.106 127.984 285.358 127.492 285.862C127.012 286.366 126.772 287.02 126.772 287.824C126.772 288.604 127.012 289.246 127.492 289.75C127.984 290.254 128.614 290.506 129.382 290.506ZM124.864 287.824C124.864 287.044 125.104 286.21 125.584 285.322L129.184 278.914H131.38L128.77 283.504C129.058 283.456 129.28 283.432 129.436 283.432C130.312 283.432 131.086 283.624 131.758 284.008C132.442 284.38 132.976 284.896 133.36 285.556C133.744 286.216 133.936 286.972 133.936 287.824C133.936 288.664 133.744 289.414 133.36 290.074C132.976 290.734 132.436 291.25 131.74 291.622C131.056 291.994 130.276 292.18 129.4 292.18C128.524 292.18 127.738 291.994 127.042 291.622C126.358 291.25 125.824 290.734 125.44 290.074C125.056 289.414 124.864 288.664 124.864 287.824Z" fill="#15151A"/>
<path d="M206 217V243M206 243L199 236M206 243L213 236" stroke="#9735D0" stroke-width="2"/>
<path d="M697 263V370M697 370L690 363M697 370L704 363" stroke="#9735D0" stroke-width="2"/>
<path d="M206 217L504 186L697 146L890 116L1083 72" stroke="#009B46" stroke-width="2" stroke-dasharray="4 4"/>
<circle cx="206" cy="217" r="4" fill="#009B46"/>
<circle cx="504" cy="186" r="4" fill="#009B46"/>
<circle cx="697" cy="146" r="4" fill="#009B46"/>
<circle cx="890" cy="116" r="4" fill="#009B46"/>
<circle cx="1083" cy="72" r="4" fill="#009B46"/>
<path d="M231 235L236.196 244H225.804L231 235Z" fill="#9735D0"/>
<path d="M243.895 233.864V244.042L242.411 244.028V235.446L240.619 236.44L240.003 235.194L242.425 233.864H243.895ZM246.891 242.586C247.395 242.586 247.745 242.95 247.745 243.454C247.745 243.972 247.395 244.336 246.891 244.336C246.373 244.336 246.009 243.972 246.009 243.454C246.009 242.95 246.373 242.586 246.891 242.586ZM251.739 239.478L250.255 239.296L250.605 233.85H256.051V235.152H252.033L251.865 237.644C252.327 237.434 252.845 237.308 253.307 237.308C255.407 237.308 256.891 238.722 256.891 240.724C256.891 242.754 255.407 244.182 253.307 244.182C251.655 244.182 250.227 243.076 249.863 241.508L251.305 241.172C251.515 242.11 252.341 242.782 253.307 242.782C254.539 242.782 255.407 241.928 255.407 240.724C255.407 239.548 254.539 238.708 253.307 238.708C252.789 238.708 252.145 239.03 251.739 239.478Z" fill="#9735D0"/>
<path d="M718 335L723.196 344H712.804L718 335Z" fill="#9735D0"/>
<path d="M732.692 340.122H733.98V341.41H732.692V344.042H731.208V341.41H726.826L726.686 340.122L731.278 333.85H732.692V340.122ZM731.208 340.122V336.328L728.45 340.122H731.208ZM738.868 342.838C739.465 342.838 739.955 342.642 740.338 342.25C740.73 341.858 740.926 341.359 740.926 340.752C740.926 340.127 740.735 339.618 740.352 339.226C739.969 338.834 739.475 338.638 738.868 338.638C738.271 338.638 737.781 338.834 737.398 339.226C737.025 339.618 736.838 340.127 736.838 340.752C736.838 341.359 737.025 341.858 737.398 342.25C737.781 342.642 738.271 342.838 738.868 342.838ZM735.354 340.752C735.354 340.145 735.541 339.497 735.914 338.806L738.714 333.822H740.422L738.392 337.392C738.616 337.355 738.789 337.336 738.91 337.336C739.591 337.336 740.193 337.485 740.716 337.784C741.248 338.073 741.663 338.475 741.962 338.988C742.261 339.501 742.41 340.089 742.41 340.752C742.41 341.405 742.261 341.989 741.962 342.502C741.663 343.015 741.243 343.417 740.702 343.706C740.17 343.995 739.563 344.14 738.882 344.14C738.201 344.14 737.589 343.995 737.048 343.706C736.516 343.417 736.101 343.015 735.802 342.502C735.503 341.989 735.354 341.405 735.354 340.752ZM744.714 342.586C744.966 342.586 745.171 342.67 745.33 342.838C745.489 342.997 745.568 343.202 745.568 343.454C745.568 343.715 745.489 343.925 745.33 344.084C745.171 344.252 744.966 344.336 744.714 344.336C744.453 344.336 744.238 344.252 744.07 344.084C743.911 343.925 743.832 343.715 743.832 343.454C743.832 343.202 743.911 342.997 744.07 342.838C744.238 342.67 744.453 342.586 744.714 342.586ZM747.882 342.74C748.078 342.544 748.326 342.315 748.624 342.054C748.923 341.793 749.152 341.587 749.31 341.438C750.066 340.766 750.668 340.211 751.116 339.772C751.564 339.324 751.942 338.867 752.25 338.4C752.558 337.933 752.712 337.49 752.712 337.07C752.712 336.491 752.544 336.02 752.208 335.656C751.882 335.292 751.462 335.11 750.948 335.11C750.547 335.11 750.164 335.241 749.8 335.502C749.446 335.763 749.175 336.099 748.988 336.51L747.686 335.936C747.966 335.292 748.41 334.769 749.016 334.368C749.632 333.957 750.276 333.752 750.948 333.752C751.583 333.752 752.143 333.892 752.628 334.172C753.123 334.452 753.506 334.844 753.776 335.348C754.056 335.852 754.196 336.426 754.196 337.07C754.196 337.705 754.005 338.335 753.622 338.96C753.249 339.585 752.796 340.159 752.264 340.682C751.732 341.205 751.046 341.825 750.206 342.544L749.982 342.74H754.364V344.042H748.022L747.882 342.74ZM765.007 333.78H766.533L760.065 344.084H758.567L765.007 333.78ZM756.201 336.412C756.201 335.899 756.322 335.427 756.565 334.998C756.807 334.569 757.134 334.233 757.545 333.99C757.965 333.738 758.427 333.612 758.931 333.612C759.425 333.612 759.878 333.738 760.289 333.99C760.709 334.233 761.04 334.569 761.283 334.998C761.525 335.427 761.647 335.899 761.647 336.412C761.647 336.925 761.525 337.397 761.283 337.826C761.04 338.255 760.709 338.596 760.289 338.848C759.878 339.091 759.425 339.212 758.931 339.212C758.427 339.212 757.965 339.091 757.545 338.848C757.134 338.596 756.807 338.255 756.565 337.826C756.322 337.397 756.201 336.925 756.201 336.412ZM757.601 336.412C757.601 336.804 757.727 337.14 757.979 337.42C758.24 337.691 758.557 337.826 758.931 337.826C759.304 337.826 759.617 337.691 759.869 337.42C760.13 337.14 760.261 336.804 760.261 336.412C760.261 336.02 760.13 335.689 759.869 335.418C759.617 335.147 759.304 335.012 758.931 335.012C758.557 335.012 758.24 335.147 757.979 335.418C757.727 335.689 757.601 336.02 757.601 336.412ZM763.327 341.368C763.327 340.855 763.448 340.383 763.691 339.954C763.933 339.525 764.26 339.189 764.671 338.946C765.091 338.694 765.553 338.568 766.057 338.568C766.551 338.568 767.004 338.694 767.415 338.946C767.835 339.189 768.166 339.525 768.409 339.954C768.651 340.383 768.773 340.855 768.773 341.368C768.773 341.881 768.651 342.353 768.409 342.782C768.166 343.211 767.835 343.552 767.415 343.804C767.004 344.056 766.551 344.182 766.057 344.182C765.553 344.182 765.091 344.056 764.671 343.804C764.26 343.552 763.933 343.211 763.691 342.782C763.448 342.353 763.327 341.881 763.327 341.368ZM764.727 341.368C764.727 341.76 764.853 342.096 765.105 342.376C765.366 342.647 765.683 342.782 766.057 342.782C766.43 342.782 766.743 342.647 766.995 342.376C767.256 342.096 767.387 341.76 767.387 341.368C767.387 340.976 767.256 340.645 766.995 340.374C766.743 340.103 766.43 339.968 766.057 339.968C765.683 339.968 765.366 340.103 765.105 340.374C764.853 340.645 764.727 340.976 764.727 341.368Z" fill="#9735D0"/>
<path d="M713.152 316.38C715.78 313.86 719.362 311.304 719.362 309.09C719.362 307.614 718.426 306.57 717.094 306.57C716.068 306.57 715.042 307.308 714.574 308.37L712.9 307.632C713.62 305.976 715.366 304.824 717.094 304.824C719.56 304.824 721.27 306.588 721.27 309.09C721.27 311.844 718.282 314.292 715.852 316.38H721.486V318.054H713.332L713.152 316.38ZM728.167 316.488C729.967 316.488 731.173 314.472 731.173 311.502C731.173 308.514 729.967 306.498 728.167 306.498C726.367 306.498 725.143 308.514 725.143 311.502C725.143 314.472 726.367 316.488 728.167 316.488ZM723.235 311.502C723.235 307.578 725.269 304.824 728.167 304.824C731.047 304.824 733.081 307.578 733.081 311.502C733.081 315.408 731.047 318.18 728.167 318.18C725.269 318.18 723.235 315.408 723.235 311.502ZM735.107 316.38C737.735 313.86 741.317 311.304 741.317 309.09C741.317 307.614 740.381 306.57 739.049 306.57C738.023 306.57 736.997 307.308 736.529 308.37L734.855 307.632C735.575 305.976 737.321 304.824 739.049 304.824C741.515 304.824 743.225 306.588 743.225 309.09C743.225 311.844 740.237 314.292 737.807 316.38H743.441V318.054H735.287L735.107 316.38ZM750.086 304.968V318.054L748.178 318.036V307.002L745.874 308.28L745.082 306.678L748.196 304.968H750.086ZM763.802 303.42H765.782V315.246H763.802V309.918H759.662V308.352H763.802V306.894H759.662V305.328H763.802V303.42ZM753.344 313.068V304.5H755.324V311.43C757.358 311.412 759.248 311.286 761.372 310.908L761.552 312.51C759.122 312.96 756.998 313.068 754.604 313.068H753.344ZM755.324 319.134V314.202H757.286V317.55H766.16V319.134H755.324ZM784.132 303.42H786.022V319.44H784.132V311.304H782.386V318.648H780.55V303.744H782.386V309.684H784.132V303.42ZM772.846 315.714V305.328H778.75V306.93H774.79V314.076C776.5 314.058 777.94 313.95 779.542 313.644L779.722 315.264C777.778 315.642 776.122 315.714 773.926 315.714H772.846ZM799.307 303.402H801.287V319.476H799.307V303.402ZM788.903 315.678V304.734H790.865V308.748H794.699V304.734H796.643V315.678H788.903ZM790.865 314.094H794.699V310.296H790.865V314.094Z" fill="#9735D0"/>
<path d="M0 14H82" stroke="#009B46" stroke-width="2" stroke-dasharray="4 4"/>
<path d="M0 44H82" stroke="#9735D0" stroke-width="2"/>
<circle cx="41" cy="14" r="4" fill="#009B46"/>
<circle cx="41" cy="44" r="4" fill="#6D0CA6"/>
<circle cx="41" cy="44" r="6.5" stroke="#6D0CA6"/>
<path d="M103.641 19.048V7.4H107.289C109.161 7.4 110.489 8.712 110.489 10.568C110.489 11.304 110.089 12.168 109.497 12.76C109.625 12.824 109.753 12.904 109.881 12.984C110.777 13.56 111.417 14.712 111.417 15.784C111.417 17.688 110.089 19.048 108.217 19.048H103.641ZM104.985 17.864H108.169C109.305 17.864 110.105 17.016 110.105 15.8C110.105 14.504 109.305 13.608 108.169 13.608H104.985V17.864ZM104.985 12.44H107.497C108.489 12.392 109.193 11.64 109.193 10.568C109.193 9.4 108.393 8.584 107.257 8.584H104.985V12.44ZM119.12 7.4L123.504 19.048H122.08L120.848 15.752H115.776L114.496 19.048H113.072L117.536 7.4H119.12ZM116.208 14.584H120.4L118.336 9.096L116.208 14.584ZM128.76 19.16C126.008 19.16 124.408 17.224 124.408 14.488V7.4H125.752V14.504C125.752 16.536 126.792 17.944 128.76 17.944C130.728 17.944 131.784 16.536 131.784 14.504V7.4H133.128V14.488C133.128 17.224 131.512 19.16 128.76 19.16ZM139.382 9.848V12.232L141.622 11.528L142.006 12.712L139.782 13.416L141.206 15.384L140.214 16.168L138.758 14.168L137.318 16.168L136.342 15.384L137.766 13.416L135.526 12.712L135.91 11.528L138.134 12.232V9.848H139.382ZM148.022 9.848V12.232L150.262 11.528L150.646 12.712L148.422 13.416L149.846 15.384L148.854 16.168L147.398 14.168L145.958 16.168L144.982 15.384L146.406 13.416L144.166 12.712L144.55 11.528L146.774 12.232V9.848H148.022Z" fill="#3F3F46"/>
<path d="M112.387 36.12H113.779V39.496H115.843V40.648H113.779V44.088H112.387V36.12ZM102.819 43.16C106.195 42.264 108.211 40.44 108.451 38.136H103.443V37.016H109.939C109.939 40.6 107.491 43.144 103.347 44.264L102.819 43.16ZM104.883 50.008V44.728H113.779V50.008H104.883ZM106.243 48.888H112.419V45.848H106.243V48.888ZM116.819 43.192H129.539V44.312H123.875V45.848H127.971V50.168H126.595V46.968H118.227V45.848H122.483V44.312H116.819V43.192ZM117.555 41.384C120.275 41.144 122.291 40.056 122.419 38.584H118.115V37.496H122.483V36.072H123.875V37.496H128.259V38.584H123.939C124.067 40.056 126.083 41.144 128.803 41.384L128.371 42.44C126.019 42.216 124.035 41.384 123.171 40.024C122.323 41.384 120.323 42.216 117.971 42.44L117.555 41.384ZM141.099 41.608H144.699V39.8H141.243C140.347 42.056 138.219 43.672 135.211 44.552L134.651 43.448C138.011 42.488 139.995 40.648 140.235 38.296H135.387V37.16H141.739C141.739 37.688 141.691 38.2 141.595 38.68H144.699V36.12H146.091V44.52H144.699V42.728H141.099V41.608ZM136.827 47.416C136.827 45.704 138.635 44.68 141.499 44.68C144.331 44.68 146.155 45.704 146.155 47.416C146.155 49.112 144.331 50.136 141.499 50.136C138.635 50.136 136.827 49.112 136.827 47.416ZM138.203 47.416C138.203 48.44 139.483 49.048 141.499 49.048C143.531 49.048 144.795 48.44 144.795 47.416C144.795 46.376 143.531 45.768 141.499 45.768C139.483 45.768 138.203 46.376 138.203 47.416ZM148.475 47.352H154.139V44.776H150.059V40.36H158.299V38.264H150.027V37.144H159.675V41.464H151.419V43.656H159.995V44.776H155.515V47.352H161.227V48.488H148.475V47.352ZM166.796 39.848V42.232L169.036 41.528L169.42 42.712L167.196 43.416L168.62 45.384L167.628 46.168L166.172 44.168L164.732 46.168L163.756 45.384L165.18 43.416L162.94 42.712L163.324 41.528L165.548 42.232V39.848H166.796ZM175.436 39.848V42.232L177.676 41.528L178.06 42.712L175.836 43.416L177.26 45.384L176.268 46.168L174.812 44.168L173.372 46.168L172.396 45.384L173.82 43.416L171.58 42.712L171.964 41.528L174.188 42.232V39.848H175.436ZM184.077 39.848V42.232L186.317 41.528L186.701 42.712L184.477 43.416L185.901 45.384L184.909 46.168L183.453 44.168L182.013 46.168L181.037 45.384L182.461 43.416L180.221 42.712L180.605 41.528L182.829 42.232V39.848H184.077Z" fill="#3F3F46"/>
<path d="M2.36425 96.584C2.00158 95.3573 1.82025 94.2373 1.82025 93.224C1.82025 92.2107 2.00158 91.096 2.36425 89.88C2.72692 88.6533 3.19625 87.5867 3.77225 86.68H5.22825C4.57758 87.5653 4.04958 88.616 3.64425 89.832C3.23892 91.048 3.03625 92.1787 3.03625 93.224C3.03625 94.2693 3.23892 95.4 3.64425 96.616C4.04958 97.832 4.57758 98.8827 5.22825 99.768H3.77225C3.19625 98.8613 2.72692 97.8 2.36425 96.584ZM17.8336 86.12V90.264H19.8976V91.4H17.8336V96.312H16.4416V86.12H17.8336ZM7.52963 87.32H13.7536V88.456H8.90563V92.712C10.3136 92.712 11.4603 92.68 12.3456 92.616C13.2416 92.552 14.127 92.4293 15.0016 92.248L15.1616 93.368C14.2123 93.56 13.263 93.6933 12.3136 93.768C11.375 93.832 10.1483 93.864 8.63363 93.864H7.52963V87.32ZM9.03363 95.288H10.4096V98.776H18.4416V99.896H9.03363V95.288ZM25.434 86.776C26.1273 86.776 26.746 86.8987 27.29 87.144C27.8447 87.3893 28.2767 87.736 28.586 88.184C28.8953 88.6213 29.05 89.1227 29.05 89.688C29.05 90.2533 28.8953 90.76 28.586 91.208C28.2767 91.6453 27.8447 91.9867 27.29 92.232C26.746 92.4773 26.1273 92.6 25.434 92.6C24.7513 92.6 24.1327 92.4773 23.578 92.232C23.034 91.9867 22.6073 91.6453 22.298 91.208C21.9887 90.76 21.834 90.2533 21.834 89.688C21.834 89.1227 21.9887 88.6213 22.298 88.184C22.6073 87.736 23.034 87.3893 23.578 87.144C24.1327 86.8987 24.7513 86.776 25.434 86.776ZM20.826 93.736C22.586 93.736 24.2233 93.704 25.738 93.64C27.2527 93.576 28.6927 93.4373 30.058 93.224L30.154 94.264C29.0233 94.4773 27.706 94.6373 26.202 94.744V99.768H24.81V94.824C23.6687 94.8773 22.3993 94.904 21.002 94.904L20.826 93.736ZM23.162 89.688C23.162 90.2107 23.3753 90.6373 23.802 90.968C24.2287 91.288 24.7727 91.448 25.434 91.448C26.106 91.448 26.6553 91.288 27.082 90.968C27.5087 90.6373 27.722 90.2107 27.722 89.688C27.722 89.1653 27.5087 88.7387 27.082 88.408C26.6553 88.0773 26.106 87.912 25.434 87.912C24.7727 87.912 24.2287 88.0773 23.802 88.408C23.3753 88.7387 23.162 89.1653 23.162 89.688ZM31.034 86.12H32.41V100.216H31.034V86.12ZM36.5544 89.704C36.789 89.704 36.9757 89.7787 37.1144 89.928C37.2637 90.0773 37.3384 90.264 37.3384 90.488C37.3384 90.7227 37.2637 90.9147 37.1144 91.064C36.9757 91.2133 36.789 91.288 36.5544 91.288C36.3197 91.288 36.1277 91.2133 35.9784 91.064C35.829 90.9147 35.7544 90.7227 35.7544 90.488C35.7544 90.264 35.829 90.0773 35.9784 89.928C36.1277 89.7787 36.3197 89.704 36.5544 89.704ZM35.7544 95.88C35.7544 95.6453 35.829 95.4587 35.9784 95.32C36.1277 95.1707 36.3197 95.096 36.5544 95.096C36.789 95.096 36.9757 95.1707 37.1144 95.32C37.2637 95.4587 37.3384 95.6453 37.3384 95.88C37.3384 96.1147 37.2637 96.3067 37.1144 96.456C36.9757 96.6053 36.789 96.68 36.5544 96.68C36.3197 96.68 36.1277 96.6053 35.9784 96.456C35.829 96.3067 35.7544 96.1147 35.7544 95.88ZM46.6113 87.992V86.232H47.9713V87.992H51.0433V89.08H47.9713V89.464C47.9713 90.3813 48.2859 91.2187 48.9153 91.976C49.5553 92.7333 50.4033 93.2773 51.4593 93.608L50.7873 94.696C49.9873 94.44 49.2833 94.0507 48.6753 93.528C48.0779 93.0053 47.6246 92.392 47.3153 91.688C47.0059 92.4453 46.5526 93.1067 45.9553 93.672C45.3579 94.2373 44.6486 94.664 43.8273 94.952L43.1393 93.864C44.1953 93.5013 45.0379 92.92 45.6673 92.12C46.2966 91.32 46.6113 90.4347 46.6113 89.464V89.08H43.5233V87.992H46.6113ZM45.6993 95.704H47.0913V98.776H55.1233V99.896H45.6993V95.704ZM50.5633 90.424H53.3473V86.136H54.7393V96.632H53.3473V91.576H50.5633V90.424ZM58.6276 92.76H57.2676V91.576H58.6276V89H59.9716V91.576H61.7316V92.76H59.9716V99.048H58.6276V92.76ZM69.5694 99.176C68.46 99.176 67.468 98.9253 66.5934 98.424C65.7187 97.912 65.036 97.208 64.5454 96.312C64.0654 95.4053 63.8254 94.376 63.8254 93.224C63.8254 92.072 64.0654 91.048 64.5454 90.152C65.036 89.2453 65.7187 88.5413 66.5934 88.04C67.468 87.528 68.46 87.272 69.5694 87.272C70.348 87.272 71.084 87.4267 71.7774 87.736C72.4814 88.0453 73.1 88.472 73.6334 89.016L72.7374 89.816C72.3427 89.3893 71.868 89.0587 71.3134 88.824C70.7587 88.5787 70.1774 88.456 69.5694 88.456C68.716 88.456 67.9534 88.6587 67.2814 89.064C66.62 89.4587 66.1027 90.0187 65.7294 90.744C65.3667 91.4693 65.1854 92.296 65.1854 93.224C65.1854 94.152 65.3667 94.9787 65.7294 95.704C66.1027 96.4293 66.62 96.9947 67.2814 97.4C67.9534 97.7947 68.716 97.992 69.5694 97.992C70.1774 97.992 70.748 97.8747 71.2814 97.64C71.8254 97.3947 72.2947 97.064 72.6894 96.648L73.6334 97.432C73.1 97.976 72.4867 98.4027 71.7934 98.712C71.1 99.0213 70.3587 99.176 69.5694 99.176ZM81.1018 97.992C81.9658 97.992 82.7284 97.7947 83.3898 97.4C84.0618 96.9947 84.5791 96.4293 84.9418 95.704C85.3151 94.9787 85.5018 94.152 85.5018 93.224C85.5018 92.296 85.3151 91.4693 84.9418 90.744C84.5791 90.0187 84.0618 89.4587 83.3898 89.064C82.7284 88.6587 81.9658 88.456 81.1018 88.456C80.2484 88.456 79.4858 88.6587 78.8138 89.064C78.1524 89.4587 77.6351 90.0187 77.2618 90.744C76.8991 91.4693 76.7178 92.296 76.7178 93.224C76.7178 94.152 76.8991 94.9787 77.2618 95.704C77.6351 96.4293 78.1524 96.9947 78.8138 97.4C79.4858 97.7947 80.2484 97.992 81.1018 97.992ZM75.3578 93.224C75.3578 92.072 75.6031 91.048 76.0938 90.152C76.5844 89.2453 77.2618 88.5413 78.1258 88.04C79.0004 87.528 79.9924 87.272 81.1018 87.272C82.2111 87.272 83.2031 87.528 84.0778 88.04C84.9524 88.5413 85.6351 89.2453 86.1258 90.152C86.6164 91.048 86.8618 92.072 86.8618 93.224C86.8618 94.376 86.6164 95.4053 86.1258 96.312C85.6351 97.208 84.9524 97.912 84.0778 98.424C83.2031 98.9253 82.2111 99.176 81.1018 99.176C79.9924 99.176 79.0004 98.9253 78.1258 98.424C77.2618 97.912 76.5844 97.208 76.0938 96.312C75.6031 95.4053 75.3578 94.376 75.3578 93.224ZM89.101 97.848C89.5383 97.4213 89.997 96.9947 90.477 96.568C91.405 95.7253 92.1517 95.0107 92.717 94.424C93.293 93.8373 93.7783 93.24 94.173 92.632C94.5783 92.024 94.781 91.4587 94.781 90.936C94.781 90.2213 94.573 89.64 94.157 89.192C93.7517 88.7333 93.2237 88.504 92.573 88.504C92.093 88.504 91.629 88.664 91.181 88.984C90.7437 89.304 90.413 89.72 90.189 90.232L88.989 89.704C89.2983 89 89.789 88.424 90.461 87.976C91.133 87.528 91.837 87.304 92.573 87.304C93.2557 87.304 93.8637 87.4587 94.397 87.768C94.941 88.0773 95.3623 88.5093 95.661 89.064C95.9597 89.608 96.109 90.232 96.109 90.936C96.109 91.6293 95.8903 92.3387 95.453 93.064C95.0157 93.7787 94.4877 94.4507 93.869 95.08C93.261 95.7093 92.477 96.456 91.517 97.32L90.941 97.848H96.301V99.032H89.261L89.101 97.848ZM101.636 99.112C100.943 99.112 100.324 98.952 99.7803 98.632C99.2469 98.312 98.8256 97.8693 98.5163 97.304C98.2176 96.728 98.0683 96.0773 98.0683 95.352C98.0683 94.6267 98.2176 93.9813 98.5163 93.416C98.8256 92.84 99.2469 92.392 99.7803 92.072C100.324 91.752 100.943 91.592 101.636 91.592C102.607 91.592 103.327 91.832 103.796 92.312C104.266 92.792 104.57 93.2293 104.708 93.624C104.922 94.1787 105.028 94.7867 105.028 95.448C105.028 95.64 105.023 95.768 105.012 95.832C105.012 95.8853 105.012 95.9173 105.012 95.928H99.4123C99.5083 96.5147 99.7643 97 100.18 97.384C100.596 97.7573 101.082 97.944 101.636 97.944C102.586 97.944 103.295 97.576 103.764 96.84L104.82 97.384C104.607 97.8533 104.223 98.2587 103.668 98.6C103.124 98.9413 102.447 99.112 101.636 99.112ZM103.716 94.776C103.546 93.432 102.852 92.76 101.636 92.76C101.071 92.76 100.58 92.952 100.164 93.336C99.7589 93.7093 99.5083 94.1947 99.4123 94.792L103.716 94.776ZM110.184 97.848C110.589 97.848 110.963 97.7413 111.304 97.528C111.656 97.304 111.933 97.0053 112.136 96.632C112.349 96.248 112.456 95.8213 112.456 95.352C112.456 94.8827 112.349 94.4507 112.136 94.056C111.933 93.6507 111.656 93.3307 111.304 93.096C110.963 92.8613 110.589 92.744 110.184 92.744C109.512 92.744 108.963 92.9893 108.536 93.48C108.12 93.96 107.912 94.584 107.912 95.352C107.912 96.0987 108.12 96.7013 108.536 97.16C108.963 97.6187 109.512 97.848 110.184 97.848ZM106.584 95.352C106.584 94.6267 106.733 93.9813 107.032 93.416C107.341 92.84 107.763 92.392 108.296 92.072C108.84 91.752 109.453 91.592 110.136 91.592C110.552 91.592 110.979 91.704 111.416 91.928C111.864 92.1413 112.216 92.4453 112.472 92.84V91.592H113.8V102.456H112.472V97.896C112.216 98.28 111.864 98.584 111.416 98.808C110.968 99.032 110.541 99.144 110.136 99.144C109.453 99.144 108.84 98.984 108.296 98.664C107.763 98.344 107.341 97.896 107.032 97.32C106.733 96.744 106.584 96.088 106.584 95.352ZM118.794 89.864C119.157 91.08 119.338 92.2 119.338 93.224C119.338 94.248 119.157 95.368 118.794 96.584C118.432 97.8 117.968 98.8613 117.402 99.768H115.946C116.586 98.8933 117.109 97.848 117.514 96.632C117.92 95.4053 118.122 94.2693 118.122 93.224C118.122 92.1787 117.92 91.048 117.514 89.832C117.109 88.6053 116.586 87.5547 115.946 86.68H117.402C117.968 87.5867 118.432 88.648 118.794 89.864Z" fill="#3F3F46"/>
</svg>
