<svg width="540" height="299" viewBox="0 0 540 299" fill="none" xmlns="http://www.w3.org/2000/svg">
<path d="M59.8602 103.84C63.3642 100.48 68.1402 97.072 68.1402 94.12C68.1402 92.152 66.8922 90.76 65.1162 90.76C63.7482 90.76 62.3802 91.744 61.7562 93.16L59.5242 92.176C60.4842 89.968 62.8122 88.432 65.1162 88.432C68.4042 88.432 70.6842 90.784 70.6842 94.12C70.6842 97.792 66.7002 101.056 63.4602 103.84H70.9722V106.072H60.1002L59.8602 103.84ZM76.5203 103.792L74.8883 109.312H72.9923L73.9043 103.792H76.5203ZM86.4785 90.64C84.4145 90.64 82.9505 92.128 82.9505 94.24C82.9505 96.352 84.4145 97.84 86.4785 97.84C88.5185 97.84 89.9585 96.352 89.9585 94.24C89.9585 92.128 88.5185 90.64 86.4785 90.64ZM80.4065 94.24C80.4065 90.808 82.9025 88.408 86.4545 88.408C90.0065 88.408 92.5025 90.808 92.5025 94.24C92.5025 95.488 92.0465 96.64 91.5425 97.552L86.7425 106.096H83.8145L87.2945 99.976C87.0065 100.024 86.7185 100.072 86.4065 100.072C82.8785 100.048 80.4065 97.648 80.4065 94.24ZM99.188 106.12H96.404L103.244 90.76L95.228 90.784V88.528H105.788L106.028 90.76L99.188 106.12ZM111.654 98.248L109.11 97.936L109.71 88.6H119.046V90.832H112.158L111.87 95.104C112.662 94.744 113.55 94.528 114.342 94.528C117.942 94.528 120.486 96.952 120.486 100.384C120.486 103.864 117.942 106.312 114.342 106.312C111.51 106.312 109.062 104.416 108.438 101.728L110.91 101.152C111.27 102.76 112.686 103.912 114.342 103.912C116.454 103.912 117.942 102.448 117.942 100.384C117.942 98.368 116.454 96.928 114.342 96.928C113.454 96.928 112.35 97.48 111.654 98.248Z" fill="#15151A"/>
<path d="M52 136C52 133.791 53.7909 132 56 132H124C126.209 132 128 133.791 128 136V254H52V136Z" fill="url(#paint0_linear_3821_3415)"/>
<path d="M69.1969 289.38C71.8249 286.86 75.4069 284.304 75.4069 282.09C75.4069 280.614 74.4709 279.57 73.1389 279.57C72.1129 279.57 71.0869 280.308 70.6189 281.37L68.9449 280.632C69.6649 278.976 71.4109 277.824 73.1389 277.824C75.6049 277.824 77.3149 279.588 77.3149 282.09C77.3149 284.844 74.3269 287.292 71.8969 289.38H77.5309V291.054H69.3769L69.1969 289.38ZM84.212 289.488C86.012 289.488 87.218 287.472 87.218 284.502C87.218 281.514 86.012 279.498 84.212 279.498C82.412 279.498 81.188 281.514 81.188 284.502C81.188 287.472 82.412 289.488 84.212 289.488ZM79.28 284.502C79.28 280.578 81.314 277.824 84.212 277.824C87.092 277.824 89.126 280.578 89.126 284.502C89.126 288.408 87.092 291.18 84.212 291.18C81.314 291.18 79.28 288.408 79.28 284.502ZM91.152 289.38C93.78 286.86 97.362 284.304 97.362 282.09C97.362 280.614 96.426 279.57 95.094 279.57C94.068 279.57 93.042 280.308 92.574 281.37L90.9 280.632C91.62 278.976 93.366 277.824 95.094 277.824C97.56 277.824 99.27 279.588 99.27 282.09C99.27 284.844 96.282 287.292 93.852 289.38H99.486V291.054H91.332L91.152 289.38ZM106.167 289.488C107.967 289.488 109.173 287.472 109.173 284.502C109.173 281.514 107.967 279.498 106.167 279.498C104.367 279.498 103.143 281.514 103.143 284.502C103.143 287.472 104.367 289.488 106.167 289.488ZM101.235 284.502C101.235 280.578 103.269 277.824 106.167 277.824C109.047 277.824 111.081 280.578 111.081 284.502C111.081 288.408 109.047 291.18 106.167 291.18C103.269 291.18 101.235 288.408 101.235 284.502Z" fill="#3F3F46"/>
<path d="M239.345 125.84C242.849 122.48 247.625 119.072 247.625 116.12C247.625 114.152 246.377 112.76 244.601 112.76C243.233 112.76 241.865 113.744 241.241 115.16L239.009 114.176C239.969 111.968 242.297 110.432 244.601 110.432C247.889 110.432 250.169 112.784 250.169 116.12C250.169 119.792 246.185 123.056 242.945 125.84H250.457V128.072H239.585L239.345 125.84ZM256.005 125.792L254.373 131.312H252.477L253.389 125.792H256.005ZM270.187 110.6V121.352H272.395V123.56H270.187V128.072H267.643V123.56H260.131L259.891 121.352L267.763 110.6H270.187ZM262.915 121.352H267.643V114.848L262.915 121.352ZM284.038 119.048C285.598 119.96 286.582 121.664 286.582 123.128C286.582 126.104 284.134 128.216 280.654 128.216C277.198 128.216 274.75 126.056 274.75 122.984H277.294C277.294 124.736 278.686 125.96 280.654 125.96C282.67 125.96 284.11 124.736 284.11 122.984C284.11 121.304 282.694 120.104 280.702 120.104H279.454V117.968H280.726C282.55 117.968 283.846 116.888 283.846 115.352C283.846 113.792 282.598 112.712 280.822 112.712C279.046 112.712 277.822 113.816 277.822 115.376H275.278C275.278 112.472 277.558 110.456 280.822 110.456C284.038 110.456 286.318 112.424 286.318 115.208C286.318 116.552 285.454 118.136 284.038 119.048ZM294.954 126.008C297.018 126.008 298.482 124.52 298.482 122.432C298.482 120.296 297.018 118.808 294.954 118.808C292.914 118.808 291.474 120.296 291.474 122.432C291.474 124.52 292.914 126.008 294.954 126.008ZM288.93 122.432C288.93 121.16 289.386 120.032 289.89 119.096L294.69 110.552H297.618L294.138 116.672C294.426 116.624 294.714 116.576 295.026 116.576C298.554 116.6 301.026 119 301.026 122.432C301.026 125.84 298.53 128.24 294.978 128.24C291.426 128.24 288.93 125.84 288.93 122.432Z" fill="#15151A"/>
<path d="M232 158C232 155.791 233.791 154 236 154H304C306.209 154 308 155.791 308 158V254H232V158Z" fill="url(#paint1_linear_3821_3415)"/>
<path d="M251.227 289.38C253.855 286.86 257.437 284.304 257.437 282.09C257.437 280.614 256.501 279.57 255.169 279.57C254.143 279.57 253.117 280.308 252.649 281.37L250.975 280.632C251.695 278.976 253.441 277.824 255.169 277.824C257.635 277.824 259.345 279.588 259.345 282.09C259.345 284.844 256.357 287.292 253.927 289.38H259.561V291.054H251.407L251.227 289.38ZM266.242 289.488C268.042 289.488 269.248 287.472 269.248 284.502C269.248 281.514 268.042 279.498 266.242 279.498C264.442 279.498 263.218 281.514 263.218 284.502C263.218 287.472 264.442 289.488 266.242 289.488ZM261.31 284.502C261.31 280.578 263.344 277.824 266.242 277.824C269.122 277.824 271.156 280.578 271.156 284.502C271.156 288.408 269.122 291.18 266.242 291.18C263.344 291.18 261.31 288.408 261.31 284.502ZM273.182 289.38C275.81 286.86 279.392 284.304 279.392 282.09C279.392 280.614 278.456 279.57 277.124 279.57C276.098 279.57 275.072 280.308 274.604 281.37L272.93 280.632C273.65 278.976 275.396 277.824 277.124 277.824C279.59 277.824 281.3 279.588 281.3 282.09C281.3 284.844 278.312 287.292 275.882 289.38H281.516V291.054H273.362L273.182 289.38ZM288.161 277.968V291.054L286.253 291.036V280.002L283.949 281.28L283.157 279.678L286.271 277.968H288.161Z" fill="#3F3F46"/>
<path d="M429.152 10.6V21.352H431.36V23.56H429.152V28.072H426.608V23.56H419.096L418.856 21.352L426.728 10.6H429.152ZM421.88 21.352H426.608V14.848L421.88 21.352ZM436.907 25.792L435.275 31.312H433.379L434.291 25.792H436.907ZM446.865 12.64C444.801 12.64 443.337 14.128 443.337 16.24C443.337 18.352 444.801 19.84 446.865 19.84C448.905 19.84 450.345 18.352 450.345 16.24C450.345 14.128 448.905 12.64 446.865 12.64ZM440.793 16.24C440.793 12.808 443.289 10.408 446.841 10.408C450.393 10.408 452.889 12.808 452.889 16.24C452.889 17.488 452.433 18.64 451.929 19.552L447.129 28.096H444.201L447.681 21.976C447.393 22.024 447.105 22.072 446.793 22.072C443.265 22.048 440.793 19.648 440.793 16.24ZM455.591 25.84C459.095 22.48 463.871 19.072 463.871 16.12C463.871 14.152 462.623 12.76 460.847 12.76C459.479 12.76 458.111 13.744 457.487 15.16L455.255 14.176C456.215 11.968 458.543 10.432 460.847 10.432C464.135 10.432 466.415 12.784 466.415 16.12C466.415 19.792 462.431 23.056 459.191 25.84H466.703V28.072H455.831L455.591 25.84ZM475.083 26.008C477.147 26.008 478.611 24.52 478.611 22.432C478.611 20.296 477.147 18.808 475.083 18.808C473.043 18.808 471.603 20.296 471.603 22.432C471.603 24.52 473.043 26.008 475.083 26.008ZM469.059 22.432C469.059 21.16 469.515 20.032 470.019 19.096L474.819 10.552H477.747L474.267 16.672C474.555 16.624 474.843 16.576 475.155 16.576C478.683 16.6 481.155 19 481.155 22.432C481.155 25.84 478.659 28.24 475.107 28.24C471.555 28.24 469.059 25.84 469.059 22.432Z" fill="#15151A"/>
<path d="M412 58C412 55.7909 413.791 54 416 54H484C486.209 54 488 55.7909 488 58V254H412V58Z" fill="url(#paint2_linear_3821_3415)"/>
<path d="M429.803 289.38C432.431 286.86 436.013 284.304 436.013 282.09C436.013 280.614 435.077 279.57 433.745 279.57C432.719 279.57 431.693 280.308 431.225 281.37L429.551 280.632C430.271 278.976 432.017 277.824 433.745 277.824C436.211 277.824 437.921 279.588 437.921 282.09C437.921 284.844 434.933 287.292 432.503 289.38H438.137V291.054H429.983L429.803 289.38ZM444.818 289.488C446.618 289.488 447.824 287.472 447.824 284.502C447.824 281.514 446.618 279.498 444.818 279.498C443.018 279.498 441.794 281.514 441.794 284.502C441.794 287.472 443.018 289.488 444.818 289.488ZM439.886 284.502C439.886 280.578 441.92 277.824 444.818 277.824C447.698 277.824 449.732 280.578 449.732 284.502C449.732 288.408 447.698 291.18 444.818 291.18C441.92 291.18 439.886 288.408 439.886 284.502ZM451.758 289.38C454.386 286.86 457.968 284.304 457.968 282.09C457.968 280.614 457.032 279.57 455.7 279.57C454.674 279.57 453.648 280.308 453.18 281.37L451.506 280.632C452.226 278.976 453.972 277.824 455.7 277.824C458.166 277.824 459.876 279.588 459.876 282.09C459.876 284.844 456.888 287.292 454.458 289.38H460.092V291.054H451.938L451.758 289.38ZM462.13 289.38C464.758 286.86 468.34 284.304 468.34 282.09C468.34 280.614 467.404 279.57 466.072 279.57C465.046 279.57 464.02 280.308 463.552 281.37L461.878 280.632C462.598 278.976 464.344 277.824 466.072 277.824C468.538 277.824 470.248 279.588 470.248 282.09C470.248 284.844 467.26 287.292 464.83 289.38H470.464V291.054H462.31L462.13 289.38Z" fill="#3F3F46"/>
<defs>
<linearGradient id="paint0_linear_3821_3415" x1="90" y1="132" x2="90" y2="254" gradientUnits="userSpaceOnUse">
<stop stop-color="#F47725"/>
<stop offset="1" stop-color="#F47725" stop-opacity="0.4"/>
</linearGradient>
<linearGradient id="paint1_linear_3821_3415" x1="270" y1="154" x2="270" y2="254" gradientUnits="userSpaceOnUse">
<stop stop-color="#F47725"/>
<stop offset="1" stop-color="#F47725" stop-opacity="0.4"/>
</linearGradient>
<linearGradient id="paint2_linear_3821_3415" x1="450" y1="54" x2="450" y2="254" gradientUnits="userSpaceOnUse">
<stop stop-color="#F47725"/>
<stop offset="1" stop-color="#F47725" stop-opacity="0.4"/>
</linearGradient>
</defs>
</svg>
