<svg width="697" height="260" viewBox="0 0 697 260" fill="none" xmlns="http://www.w3.org/2000/svg">
<path d="M0 260H697V3H0V260Z" fill="white"/>
<mask id="path-2-inside-1_4076_2272" fill="white">
<path d="M101.602 14.2C101.602 8.01441 106.616 3 112.802 3H646.402C652.587 3 657.602 8.01441 657.602 14.2V199H101.602V14.2Z"/>
</mask>
<path d="M101.602 14.2C101.602 8.01441 106.616 3 112.802 3H646.402C652.587 3 657.602 8.01441 657.602 14.2V199H101.602V14.2Z" fill="url(#paint0_linear_4076_2272)"/>
<path d="M101.602 3H657.602H101.602ZM657.602 199.7H101.602V198.3H657.602V199.7ZM101.602 199V3V199ZM657.602 3V199V3Z" fill="#71717A" mask="url(#path-2-inside-1_4076_2272)"/>
<rect x="173.102" y="183.5" width="32.2" height="15.4" rx="2.8" fill="url(#paint1_linear_4076_2272)"/>
<rect x="173.102" y="194.703" width="32.2" height="4.2" fill="#27272A"/>
<path d="M162.319 218.594C162.476 218.437 162.674 218.254 162.913 218.045C163.152 217.836 163.335 217.671 163.462 217.552C164.066 217.014 164.548 216.57 164.906 216.219C165.265 215.861 165.567 215.495 165.814 215.122C166.06 214.748 166.183 214.394 166.183 214.058C166.183 213.595 166.049 213.218 165.78 212.926C165.519 212.635 165.183 212.49 164.772 212.49C164.451 212.49 164.145 212.594 163.854 212.803C163.57 213.012 163.353 213.281 163.204 213.61L162.162 213.15C162.386 212.635 162.741 212.217 163.226 211.896C163.719 211.567 164.234 211.403 164.772 211.403C165.28 211.403 165.728 211.515 166.116 211.739C166.512 211.963 166.818 212.277 167.034 212.68C167.258 213.083 167.37 213.542 167.37 214.058C167.37 214.565 167.217 215.069 166.911 215.57C166.612 216.07 166.25 216.529 165.825 216.947C165.399 217.365 164.85 217.862 164.178 218.437L163.999 218.594H167.505V219.635H162.431L162.319 218.594ZM171.662 218.661C172.028 218.661 172.353 218.53 172.636 218.269C172.92 218.007 173.14 217.645 173.297 217.182C173.454 216.712 173.532 216.171 173.532 215.558C173.532 214.946 173.454 214.405 173.297 213.934C173.14 213.464 172.92 213.098 172.636 212.837C172.353 212.575 172.028 212.445 171.662 212.445C171.296 212.445 170.967 212.575 170.676 212.837C170.393 213.098 170.172 213.464 170.015 213.934C169.859 214.405 169.78 214.946 169.78 215.558C169.78 216.171 169.859 216.712 170.015 217.182C170.172 217.645 170.393 218.007 170.676 218.269C170.967 218.53 171.296 218.661 171.662 218.661ZM168.593 215.558C168.593 214.752 168.724 214.035 168.985 213.408C169.246 212.773 169.609 212.28 170.071 211.93C170.534 211.579 171.065 211.403 171.662 211.403C172.252 211.403 172.778 211.579 173.241 211.93C173.704 212.28 174.066 212.773 174.327 213.408C174.589 214.035 174.719 214.752 174.719 215.558C174.719 216.357 174.589 217.074 174.327 217.709C174.066 218.336 173.704 218.829 173.241 219.187C172.778 219.538 172.252 219.714 171.662 219.714C171.072 219.714 170.542 219.538 170.071 219.187C169.609 218.829 169.246 218.336 168.985 217.709C168.724 217.074 168.593 216.357 168.593 215.558ZM175.98 218.594C176.137 218.437 176.335 218.254 176.574 218.045C176.813 217.836 176.996 217.671 177.122 217.552C177.727 217.014 178.209 216.57 178.567 216.219C178.926 215.861 179.228 215.495 179.474 215.122C179.721 214.748 179.844 214.394 179.844 214.058C179.844 213.595 179.71 213.218 179.441 212.926C179.18 212.635 178.844 212.49 178.433 212.49C178.112 212.49 177.806 212.594 177.514 212.803C177.231 213.012 177.014 213.281 176.865 213.61L175.823 213.15C176.047 212.635 176.402 212.217 176.887 211.896C177.38 211.567 177.895 211.403 178.433 211.403C178.941 211.403 179.389 211.515 179.777 211.739C180.173 211.963 180.479 212.277 180.695 212.68C180.919 213.083 181.031 213.542 181.031 214.058C181.031 214.565 180.878 215.069 180.572 215.57C180.273 216.07 179.911 216.529 179.486 216.947C179.06 217.365 178.511 217.862 177.839 218.437L177.66 218.594H181.166V219.635H176.092L175.98 218.594ZM182.433 218.594C182.59 218.437 182.788 218.254 183.027 218.045C183.266 217.836 183.449 217.671 183.576 217.552C184.18 217.014 184.662 216.57 185.02 216.219C185.379 215.861 185.681 215.495 185.928 215.122C186.174 214.748 186.297 214.394 186.297 214.058C186.297 213.595 186.163 213.218 185.894 212.926C185.633 212.635 185.297 212.49 184.886 212.49C184.565 212.49 184.259 212.594 183.968 212.803C183.684 213.012 183.467 213.281 183.318 213.61L182.276 213.15C182.5 212.635 182.855 212.217 183.34 211.896C183.833 211.567 184.348 211.403 184.886 211.403C185.394 211.403 185.842 211.515 186.23 211.739C186.626 211.963 186.932 212.277 187.148 212.68C187.372 213.083 187.484 213.542 187.484 214.058C187.484 214.565 187.331 215.069 187.025 215.57C186.727 216.07 186.364 216.529 185.939 216.947C185.513 217.365 184.964 217.862 184.292 218.437L184.113 218.594H187.619V219.635H182.545L182.433 218.594ZM189.715 217.944C189.461 217.078 189.334 216.283 189.334 215.558C189.334 214.834 189.461 214.039 189.715 213.173C189.976 212.307 190.309 211.552 190.712 210.91H191.966C191.511 211.545 191.138 212.295 190.846 213.162C190.555 214.028 190.41 214.827 190.41 215.558C190.41 216.29 190.555 217.089 190.846 217.955C191.138 218.821 191.511 219.572 191.966 220.206H190.712C190.309 219.564 189.976 218.81 189.715 217.944ZM201.299 210.541V215.614H200.067V210.541H201.299ZM193.067 214.629C193.844 214.382 194.445 213.975 194.87 213.408C195.296 212.84 195.509 212.217 195.509 211.538V210.787H196.752V211.538C196.752 212.187 196.961 212.781 197.379 213.318C197.797 213.856 198.387 214.24 199.149 214.472L198.555 215.424C197.995 215.252 197.51 214.991 197.099 214.64C196.696 214.282 196.379 213.86 196.147 213.374C195.916 213.897 195.591 214.352 195.173 214.741C194.755 215.129 194.251 215.42 193.661 215.614L193.067 214.629ZM194.736 216.085H201.299V218.661H195.968V219.456H201.59V220.419H194.758V217.776H200.09V217.037H194.736V216.085ZM209.901 212.994V210.541H211.133V216.477H209.901V214.002H208.244V212.994H209.901ZM202.834 215.402C203.596 215.14 204.185 214.718 204.604 214.136C205.029 213.554 205.242 212.919 205.242 212.232V212.12H203.181V211.134H208.535V212.12H206.485V212.232C206.485 212.867 206.687 213.456 207.09 214.002C207.501 214.547 208.076 214.946 208.815 215.2L208.199 216.163C207.661 215.976 207.198 215.704 206.81 215.346C206.422 214.987 206.116 214.565 205.892 214.08C205.675 214.61 205.358 215.077 204.94 215.48C204.529 215.876 204.036 216.171 203.461 216.365L202.834 215.402ZM204.402 216.958H211.133V220.509H209.901V217.955H204.402V216.958ZM215.244 213.173C215.498 214.039 215.625 214.834 215.625 215.558C215.625 216.283 215.498 217.078 215.244 217.944C214.99 218.81 214.661 219.564 214.258 220.206H213.004C213.459 219.579 213.829 218.832 214.113 217.966C214.404 217.093 214.549 216.29 214.549 215.558C214.549 214.827 214.404 214.028 214.113 213.162C213.829 212.288 213.459 211.538 213.004 210.91H214.258C214.661 211.552 214.99 212.307 215.244 213.173Z" fill="#3F3F46"/>
<rect x="268.297" y="166.695" width="32.2" height="32.2" rx="2.8" fill="url(#paint2_linear_4076_2272)"/>
<rect x="268.297" y="193.297" width="32.2" height="5.6" fill="#27272A"/>
<path d="M271.689 218.586C271.846 218.429 272.044 218.246 272.283 218.037C272.522 217.828 272.705 217.664 272.832 217.544C273.437 217.007 273.918 216.562 274.277 216.211C274.635 215.853 274.937 215.487 275.184 215.114C275.43 214.74 275.553 214.386 275.553 214.05C275.553 213.587 275.419 213.21 275.15 212.919C274.889 212.627 274.553 212.482 274.142 212.482C273.821 212.482 273.515 212.586 273.224 212.795C272.94 213.004 272.724 213.273 272.574 213.602L271.533 213.143C271.757 212.627 272.111 212.209 272.597 211.888C273.089 211.56 273.605 211.395 274.142 211.395C274.65 211.395 275.098 211.507 275.486 211.731C275.882 211.955 276.188 212.269 276.405 212.672C276.629 213.075 276.741 213.535 276.741 214.05C276.741 214.557 276.588 215.061 276.281 215.562C275.983 216.062 275.621 216.521 275.195 216.939C274.769 217.357 274.221 217.854 273.549 218.429L273.369 218.586H276.875V219.627H271.801L271.689 218.586ZM281.032 218.653C281.398 218.653 281.723 218.522 282.007 218.261C282.29 218 282.511 217.637 282.667 217.175C282.824 216.704 282.903 216.163 282.903 215.551C282.903 214.938 282.824 214.397 282.667 213.927C282.511 213.456 282.29 213.09 282.007 212.829C281.723 212.568 281.398 212.437 281.032 212.437C280.666 212.437 280.338 212.568 280.047 212.829C279.763 213.09 279.543 213.456 279.386 213.927C279.229 214.397 279.151 214.938 279.151 215.551C279.151 216.163 279.229 216.704 279.386 217.175C279.543 217.637 279.763 218 280.047 218.261C280.338 218.522 280.666 218.653 281.032 218.653ZM277.963 215.551C277.963 214.744 278.094 214.027 278.355 213.4C278.617 212.765 278.979 212.273 279.442 211.922C279.905 211.571 280.435 211.395 281.032 211.395C281.622 211.395 282.148 211.571 282.611 211.922C283.074 212.273 283.436 212.765 283.698 213.4C283.959 214.027 284.09 214.744 284.09 215.551C284.09 216.349 283.959 217.066 283.698 217.701C283.436 218.328 283.074 218.821 282.611 219.179C282.148 219.53 281.622 219.706 281.032 219.706C280.442 219.706 279.912 219.53 279.442 219.179C278.979 218.821 278.617 218.328 278.355 217.701C278.094 217.066 277.963 216.349 277.963 215.551ZM285.35 218.586C285.507 218.429 285.705 218.246 285.944 218.037C286.183 217.828 286.366 217.664 286.493 217.544C287.098 217.007 287.579 216.562 287.938 216.211C288.296 215.853 288.598 215.487 288.845 215.114C289.091 214.74 289.214 214.386 289.214 214.05C289.214 213.587 289.08 213.21 288.811 212.919C288.55 212.627 288.214 212.482 287.803 212.482C287.482 212.482 287.176 212.586 286.885 212.795C286.601 213.004 286.385 213.273 286.235 213.602L285.194 213.143C285.418 212.627 285.772 212.209 286.258 211.888C286.75 211.56 287.266 211.395 287.803 211.395C288.311 211.395 288.759 211.507 289.147 211.731C289.543 211.955 289.849 212.269 290.066 212.672C290.29 213.075 290.402 213.535 290.402 214.05C290.402 214.557 290.249 215.061 289.942 215.562C289.644 216.062 289.282 216.521 288.856 216.939C288.43 217.357 287.882 217.854 287.21 218.429L287.03 218.586H290.536V219.627H285.462L285.35 218.586ZM291.96 215.831L292.24 211.474H296.597V212.515H293.383L293.248 214.509C293.644 214.33 294.029 214.24 294.402 214.24C294.954 214.24 295.447 214.356 295.88 214.587C296.321 214.819 296.661 215.144 296.9 215.562C297.146 215.972 297.269 216.443 297.269 216.973C297.269 217.511 297.146 217.988 296.9 218.407C296.661 218.825 296.321 219.153 295.88 219.392C295.447 219.624 294.954 219.739 294.402 219.739C293.969 219.739 293.558 219.65 293.17 219.471C292.789 219.284 292.464 219.03 292.196 218.709C291.927 218.38 291.744 218.011 291.647 217.6L292.8 217.331C292.882 217.705 293.073 218.015 293.372 218.261C293.67 218.5 294.014 218.619 294.402 218.619C294.895 218.619 295.298 218.466 295.612 218.16C295.925 217.854 296.082 217.458 296.082 216.973C296.082 216.503 295.925 216.118 295.612 215.819C295.298 215.513 294.895 215.36 294.402 215.36C294.193 215.36 293.973 215.42 293.741 215.539C293.51 215.651 293.312 215.797 293.148 215.976L291.96 215.831Z" fill="#3F3F46"/>
<rect x="363.5" y="141.5" width="32.2" height="57.4" rx="2.8" fill="url(#paint3_linear_4076_2272)"/>
<rect x="363.5" y="191.898" width="32.2" height="7" fill="#27272A"/>
<path d="M366.575 218.594C366.732 218.437 366.93 218.254 367.169 218.045C367.408 217.836 367.591 217.671 367.718 217.552C368.323 217.014 368.804 216.57 369.163 216.219C369.521 215.861 369.823 215.495 370.07 215.122C370.316 214.748 370.439 214.394 370.439 214.058C370.439 213.595 370.305 213.218 370.036 212.926C369.775 212.635 369.439 212.49 369.028 212.49C368.707 212.49 368.401 212.594 368.11 212.803C367.826 213.012 367.61 213.281 367.46 213.61L366.419 213.15C366.643 212.635 366.997 212.217 367.483 211.896C367.975 211.567 368.491 211.403 369.028 211.403C369.536 211.403 369.984 211.515 370.372 211.739C370.768 211.963 371.074 212.277 371.291 212.68C371.515 213.083 371.627 213.542 371.627 214.058C371.627 214.565 371.474 215.069 371.167 215.57C370.869 216.07 370.507 216.529 370.081 216.947C369.655 217.365 369.107 217.862 368.435 218.437L368.255 218.594H371.761V219.635H366.687L366.575 218.594ZM375.918 218.661C376.284 218.661 376.609 218.53 376.893 218.269C377.176 218.007 377.397 217.645 377.553 217.182C377.71 216.712 377.789 216.171 377.789 215.558C377.789 214.946 377.71 214.405 377.553 213.934C377.397 213.464 377.176 213.098 376.893 212.837C376.609 212.575 376.284 212.445 375.918 212.445C375.552 212.445 375.224 212.575 374.933 212.837C374.649 213.098 374.429 213.464 374.272 213.934C374.115 214.405 374.037 214.946 374.037 215.558C374.037 216.171 374.115 216.712 374.272 217.182C374.429 217.645 374.649 218.007 374.933 218.269C375.224 218.53 375.552 218.661 375.918 218.661ZM372.849 215.558C372.849 214.752 372.98 214.035 373.241 213.408C373.503 212.773 373.865 212.28 374.328 211.93C374.791 211.579 375.321 211.403 375.918 211.403C376.508 211.403 377.034 211.579 377.497 211.93C377.96 212.28 378.322 212.773 378.584 213.408C378.845 214.035 378.976 214.752 378.976 215.558C378.976 216.357 378.845 217.074 378.584 217.709C378.322 218.336 377.96 218.829 377.497 219.187C377.034 219.538 376.508 219.714 375.918 219.714C375.328 219.714 374.798 219.538 374.328 219.187C373.865 218.829 373.503 218.336 373.241 217.709C372.98 217.074 372.849 216.357 372.849 215.558ZM384.403 215.424C384.761 215.633 385.049 215.917 385.265 216.275C385.482 216.626 385.59 216.977 385.59 217.328C385.59 217.783 385.47 218.194 385.232 218.56C385 218.918 384.675 219.198 384.257 219.4C383.839 219.602 383.361 219.702 382.824 219.702C382.293 219.702 381.819 219.598 381.401 219.389C380.983 219.18 380.654 218.892 380.416 218.526C380.184 218.153 380.068 217.731 380.068 217.261H381.256C381.256 217.671 381.401 218.007 381.692 218.269C381.984 218.523 382.361 218.65 382.824 218.65C383.294 218.65 383.678 218.523 383.977 218.269C384.283 218.007 384.436 217.671 384.436 217.261C384.436 216.865 384.287 216.544 383.988 216.298C383.69 216.044 383.309 215.917 382.846 215.917H382.264V214.92H382.857C383.283 214.92 383.63 214.808 383.899 214.584C384.175 214.352 384.313 214.058 384.313 213.699C384.313 213.333 384.182 213.038 383.921 212.814C383.66 212.583 383.32 212.467 382.902 212.467C382.491 212.467 382.155 212.583 381.894 212.814C381.633 213.046 381.502 213.344 381.502 213.71H380.315C380.315 213.262 380.423 212.867 380.64 212.523C380.864 212.172 381.17 211.9 381.558 211.706C381.954 211.511 382.402 211.414 382.902 211.414C383.395 211.414 383.835 211.511 384.224 211.706C384.612 211.892 384.914 212.154 385.131 212.49C385.355 212.826 385.467 213.206 385.467 213.632C385.467 213.953 385.37 214.282 385.176 214.618C384.981 214.946 384.724 215.215 384.403 215.424ZM389.743 218.661C390.109 218.661 390.434 218.53 390.718 218.269C391.001 218.007 391.222 217.645 391.378 217.182C391.535 216.712 391.614 216.171 391.614 215.558C391.614 214.946 391.535 214.405 391.378 213.934C391.222 213.464 391.001 213.098 390.718 212.837C390.434 212.575 390.109 212.445 389.743 212.445C389.377 212.445 389.049 212.575 388.758 212.837C388.474 213.098 388.254 213.464 388.097 213.934C387.94 214.405 387.862 214.946 387.862 215.558C387.862 216.171 387.94 216.712 388.097 217.182C388.254 217.645 388.474 218.007 388.758 218.269C389.049 218.53 389.377 218.661 389.743 218.661ZM386.674 215.558C386.674 214.752 386.805 214.035 387.066 213.408C387.328 212.773 387.69 212.28 388.153 211.93C388.616 211.579 389.146 211.403 389.743 211.403C390.333 211.403 390.859 211.579 391.322 211.93C391.785 212.28 392.147 212.773 392.409 213.408C392.67 214.035 392.801 214.752 392.801 215.558C392.801 216.357 392.67 217.074 392.409 217.709C392.147 218.336 391.785 218.829 391.322 219.187C390.859 219.538 390.333 219.714 389.743 219.714C389.153 219.714 388.623 219.538 388.153 219.187C387.69 218.829 387.328 218.336 387.066 217.709C386.805 217.074 386.674 216.357 386.674 215.558Z" fill="#3F3F46"/>
<rect x="458.695" y="98.1016" width="32.2" height="100.8" rx="2.8" fill="url(#paint4_linear_4076_2272)"/>
<rect x="458.695" y="193.305" width="32.2" height="5.6" fill="#27272A"/>
<path d="M462.006 218.594C462.163 218.437 462.361 218.254 462.599 218.045C462.838 217.836 463.021 217.671 463.148 217.552C463.753 217.014 464.235 216.57 464.593 216.219C464.951 215.861 465.254 215.495 465.5 215.122C465.747 214.748 465.87 214.394 465.87 214.058C465.87 213.595 465.735 213.218 465.467 212.926C465.205 212.635 464.869 212.49 464.459 212.49C464.138 212.49 463.831 212.594 463.54 212.803C463.257 213.012 463.04 213.281 462.891 213.61L461.849 213.15C462.073 212.635 462.428 212.217 462.913 211.896C463.406 211.567 463.921 211.403 464.459 211.403C464.966 211.403 465.414 211.515 465.803 211.739C466.198 211.963 466.505 212.277 466.721 212.68C466.945 213.083 467.057 213.542 467.057 214.058C467.057 214.565 466.904 215.069 466.598 215.57C466.299 216.07 465.937 216.529 465.511 216.947C465.086 217.365 464.537 217.862 463.865 218.437L463.686 218.594H467.191V219.635H462.118L462.006 218.594ZM471.349 218.661C471.714 218.661 472.039 218.53 472.323 218.269C472.607 218.007 472.827 217.645 472.984 217.182C473.141 216.712 473.219 216.171 473.219 215.558C473.219 214.946 473.141 214.405 472.984 213.934C472.827 213.464 472.607 213.098 472.323 212.837C472.039 212.575 471.714 212.445 471.349 212.445C470.983 212.445 470.654 212.575 470.363 212.837C470.079 213.098 469.859 213.464 469.702 213.934C469.545 214.405 469.467 214.946 469.467 215.558C469.467 216.171 469.545 216.712 469.702 217.182C469.859 217.645 470.079 218.007 470.363 218.269C470.654 218.53 470.983 218.661 471.349 218.661ZM468.28 215.558C468.28 214.752 468.41 214.035 468.672 213.408C468.933 212.773 469.295 212.28 469.758 211.93C470.221 211.579 470.751 211.403 471.349 211.403C471.938 211.403 472.465 211.579 472.928 211.93C473.391 212.28 473.753 212.773 474.014 213.408C474.276 214.035 474.406 214.752 474.406 215.558C474.406 216.357 474.276 217.074 474.014 217.709C473.753 218.336 473.391 218.829 472.928 219.187C472.465 219.538 471.938 219.714 471.349 219.714C470.759 219.714 470.229 219.538 469.758 219.187C469.295 218.829 468.933 218.336 468.672 217.709C468.41 217.074 468.28 216.357 468.28 215.558ZM479.833 215.424C480.192 215.633 480.479 215.917 480.696 216.275C480.912 216.626 481.02 216.977 481.02 217.328C481.02 217.783 480.901 218.194 480.662 218.56C480.431 218.918 480.106 219.198 479.688 219.4C479.269 219.602 478.792 219.702 478.254 219.702C477.724 219.702 477.25 219.598 476.832 219.389C476.413 219.18 476.085 218.892 475.846 218.526C475.615 218.153 475.499 217.731 475.499 217.261H476.686C476.686 217.671 476.832 218.007 477.123 218.269C477.414 218.523 477.791 218.65 478.254 218.65C478.724 218.65 479.109 218.523 479.408 218.269C479.714 218.007 479.867 217.671 479.867 217.261C479.867 216.865 479.717 216.544 479.419 216.298C479.12 216.044 478.739 215.917 478.276 215.917H477.694V214.92H478.288C478.713 214.92 479.06 214.808 479.329 214.584C479.605 214.352 479.744 214.058 479.744 213.699C479.744 213.333 479.613 213.038 479.352 212.814C479.09 212.583 478.751 212.467 478.332 212.467C477.922 212.467 477.586 212.583 477.324 212.814C477.063 213.046 476.932 213.344 476.932 213.71H475.745C475.745 213.262 475.853 212.867 476.07 212.523C476.294 212.172 476.6 211.9 476.988 211.706C477.384 211.511 477.832 211.414 478.332 211.414C478.825 211.414 479.266 211.511 479.654 211.706C480.042 211.892 480.345 212.154 480.561 212.49C480.785 212.826 480.897 213.206 480.897 213.632C480.897 213.953 480.8 214.282 480.606 214.618C480.412 214.946 480.154 215.215 479.833 215.424ZM482.441 215.838L482.721 211.482H487.078V212.523H483.863L483.729 214.517C484.125 214.338 484.509 214.248 484.882 214.248C485.435 214.248 485.928 214.364 486.361 214.595C486.801 214.827 487.141 215.151 487.38 215.57C487.626 215.98 487.75 216.451 487.75 216.981C487.75 217.518 487.626 217.996 487.38 218.414C487.141 218.832 486.801 219.161 486.361 219.4C485.928 219.631 485.435 219.747 484.882 219.747C484.449 219.747 484.039 219.658 483.65 219.478C483.27 219.292 482.945 219.038 482.676 218.717C482.407 218.388 482.224 218.019 482.127 217.608L483.281 217.339C483.363 217.712 483.553 218.022 483.852 218.269C484.151 218.508 484.494 218.627 484.882 218.627C485.375 218.627 485.778 218.474 486.092 218.168C486.406 217.862 486.562 217.466 486.562 216.981C486.562 216.51 486.406 216.126 486.092 215.827C485.778 215.521 485.375 215.368 484.882 215.368C484.673 215.368 484.453 215.428 484.222 215.547C483.99 215.659 483.792 215.805 483.628 215.984L482.441 215.838Z" fill="#3F3F46"/>
<rect x="553.898" y="58.8984" width="32.2" height="140" rx="2.8" fill="url(#paint5_linear_4076_2272)"/>
<rect x="553.898" y="193.297" width="32.2" height="5.6" fill="#27272A"/>
<path d="M556.815 218.594C556.972 218.437 557.17 218.254 557.409 218.045C557.648 217.836 557.831 217.671 557.958 217.552C558.562 217.014 559.044 216.57 559.402 216.219C559.761 215.861 560.063 215.495 560.31 215.122C560.556 214.748 560.679 214.394 560.679 214.058C560.679 213.595 560.545 213.218 560.276 212.926C560.015 212.635 559.679 212.49 559.268 212.49C558.947 212.49 558.641 212.594 558.35 212.803C558.066 213.012 557.849 213.281 557.7 213.61L556.658 213.15C556.882 212.635 557.237 212.217 557.722 211.896C558.215 211.567 558.73 211.403 559.268 211.403C559.776 211.403 560.224 211.515 560.612 211.739C561.008 211.963 561.314 212.277 561.53 212.68C561.754 213.083 561.866 213.542 561.866 214.058C561.866 214.565 561.713 215.069 561.407 215.57C561.109 216.07 560.746 216.529 560.321 216.947C559.895 217.365 559.346 217.862 558.674 218.437L558.495 218.594H562.001V219.635H556.927L556.815 218.594ZM566.158 218.661C566.524 218.661 566.849 218.53 567.132 218.269C567.416 218.007 567.636 217.645 567.793 217.182C567.95 216.712 568.028 216.171 568.028 215.558C568.028 214.946 567.95 214.405 567.793 213.934C567.636 213.464 567.416 213.098 567.132 212.837C566.849 212.575 566.524 212.445 566.158 212.445C565.792 212.445 565.464 212.575 565.172 212.837C564.889 213.098 564.668 213.464 564.512 213.934C564.355 214.405 564.276 214.946 564.276 215.558C564.276 216.171 564.355 216.712 564.512 217.182C564.668 217.645 564.889 218.007 565.172 218.269C565.464 218.53 565.792 218.661 566.158 218.661ZM563.089 215.558C563.089 214.752 563.22 214.035 563.481 213.408C563.742 212.773 564.105 212.28 564.568 211.93C565.03 211.579 565.561 211.403 566.158 211.403C566.748 211.403 567.274 211.579 567.737 211.93C568.2 212.28 568.562 212.773 568.824 213.408C569.085 214.035 569.216 214.752 569.216 215.558C569.216 216.357 569.085 217.074 568.824 217.709C568.562 218.336 568.2 218.829 567.737 219.187C567.274 219.538 566.748 219.714 566.158 219.714C565.568 219.714 565.038 219.538 564.568 219.187C564.105 218.829 563.742 218.336 563.481 217.709C563.22 217.074 563.089 216.357 563.089 215.558ZM575.113 216.499H576.143V217.53H575.113V219.635H573.926V217.53H570.42L570.308 216.499L573.982 211.482H575.113V216.499ZM573.926 216.499V213.464L571.719 216.499H573.926ZM580.3 218.661C580.666 218.661 580.991 218.53 581.275 218.269C581.558 218.007 581.779 217.645 581.935 217.182C582.092 216.712 582.171 216.171 582.171 215.558C582.171 214.946 582.092 214.405 581.935 213.934C581.779 213.464 581.558 213.098 581.275 212.837C580.991 212.575 580.666 212.445 580.3 212.445C579.934 212.445 579.606 212.575 579.315 212.837C579.031 213.098 578.811 213.464 578.654 213.934C578.497 214.405 578.419 214.946 578.419 215.558C578.419 216.171 578.497 216.712 578.654 217.182C578.811 217.645 579.031 218.007 579.315 218.269C579.606 218.53 579.934 218.661 580.3 218.661ZM577.231 215.558C577.231 214.752 577.362 214.035 577.623 213.408C577.885 212.773 578.247 212.28 578.71 211.93C579.173 211.579 579.703 211.403 580.3 211.403C580.89 211.403 581.416 211.579 581.879 211.93C582.342 212.28 582.704 212.773 582.966 213.408C583.227 214.035 583.358 214.752 583.358 215.558C583.358 216.357 583.227 217.074 582.966 217.709C582.704 218.336 582.342 218.829 581.879 219.187C581.416 219.538 580.89 219.714 580.3 219.714C579.71 219.714 579.18 219.538 578.71 219.187C578.247 218.829 577.885 218.336 577.623 217.709C577.362 217.074 577.231 216.357 577.231 215.558Z" fill="#3F3F46"/>
<g filter="url(#filter0_d_4076_2272)">
<rect x="159.602" y="136" width="60" height="37" rx="18.5" fill="white" shape-rendering="crispEdges"/>
<path d="M178.254 147.968V161.054L176.346 161.036V150.002L174.042 151.28L173.25 149.678L176.364 147.968H178.254ZM185.814 159.488C187.614 159.488 188.82 157.472 188.82 154.502C188.82 151.514 187.614 149.498 185.814 149.498C184.014 149.498 182.79 151.514 182.79 154.502C182.79 157.472 184.014 159.488 185.814 159.488ZM180.882 154.502C180.882 150.578 182.916 147.824 185.814 147.824C188.694 147.824 190.728 150.578 190.728 154.502C190.728 158.408 188.694 161.18 185.814 161.18C182.916 161.18 180.882 158.408 180.882 154.502Z" fill="#009B46"/>
<path d="M196.476 159.514L202.832 149.35H204.106L197.722 159.514H196.476ZM194.152 151.954C194.152 150.4 195.328 149.182 196.84 149.182C198.338 149.182 199.514 150.4 199.514 151.954C199.514 153.494 198.338 154.712 196.84 154.712C195.328 154.712 194.152 153.494 194.152 151.954ZM195.3 151.954C195.3 152.85 195.972 153.578 196.84 153.578C197.708 153.578 198.38 152.85 198.38 151.954C198.38 151.044 197.708 150.33 196.84 150.33C195.972 150.33 195.3 151.044 195.3 151.954ZM200.942 156.854C200.942 155.314 202.118 154.096 203.63 154.096C205.128 154.096 206.304 155.314 206.304 156.854C206.304 158.408 205.128 159.626 203.63 159.626C202.118 159.626 200.942 158.408 200.942 156.854ZM202.09 156.854C202.09 157.764 202.762 158.492 203.63 158.492C204.498 158.492 205.17 157.764 205.17 156.854C205.17 155.958 204.498 155.23 203.63 155.23C202.762 155.23 202.09 155.958 202.09 156.854Z" fill="#009B46"/>
</g>
<g filter="url(#filter1_d_4076_2272)">
<rect x="253" y="119" width="62" height="37" rx="18.5" fill="white" shape-rendering="crispEdges"/>
<path d="M267.146 142.38C269.774 139.86 273.356 137.304 273.356 135.09C273.356 133.614 272.42 132.57 271.088 132.57C270.062 132.57 269.036 133.308 268.568 134.37L266.894 133.632C267.614 131.976 269.36 130.824 271.088 130.824C273.554 130.824 275.264 132.588 275.264 135.09C275.264 137.844 272.276 140.292 269.846 142.38H275.48V144.054H267.326L267.146 142.38ZM284.213 137.286C285.383 137.97 286.121 139.248 286.121 140.346C286.121 142.578 284.285 144.162 281.675 144.162C279.083 144.162 277.247 142.542 277.247 140.238H279.155C279.155 141.552 280.199 142.47 281.675 142.47C283.187 142.47 284.267 141.552 284.267 140.238C284.267 138.978 283.205 138.078 281.711 138.078H280.775V136.476H281.729C283.097 136.476 284.069 135.666 284.069 134.514C284.069 133.344 283.133 132.534 281.801 132.534C280.469 132.534 279.551 133.362 279.551 134.532H277.643C277.643 132.354 279.353 130.842 281.801 130.842C284.213 130.842 285.923 132.318 285.923 134.406C285.923 135.414 285.275 136.602 284.213 137.286Z" fill="#009B46"/>
<path d="M291.874 142.514L298.23 132.35H299.504L293.12 142.514H291.874ZM289.55 134.954C289.55 133.4 290.726 132.182 292.238 132.182C293.736 132.182 294.912 133.4 294.912 134.954C294.912 136.494 293.736 137.712 292.238 137.712C290.726 137.712 289.55 136.494 289.55 134.954ZM290.698 134.954C290.698 135.85 291.37 136.578 292.238 136.578C293.106 136.578 293.778 135.85 293.778 134.954C293.778 134.044 293.106 133.33 292.238 133.33C291.37 133.33 290.698 134.044 290.698 134.954ZM296.34 139.854C296.34 138.314 297.516 137.096 299.028 137.096C300.526 137.096 301.702 138.314 301.702 139.854C301.702 141.408 300.526 142.626 299.028 142.626C297.516 142.626 296.34 141.408 296.34 139.854ZM297.488 139.854C297.488 140.764 298.16 141.492 299.028 141.492C299.896 141.492 300.568 140.764 300.568 139.854C300.568 138.958 299.896 138.23 299.028 138.23C298.16 138.23 297.488 138.958 297.488 139.854Z" fill="#009B46"/>
</g>
<g filter="url(#filter2_d_4076_2272)">
<rect x="350" y="94" width="59" height="37" rx="18.5" fill="white" shape-rendering="crispEdges"/>
<path d="M370.936 105.95V114.014H372.592V115.67H370.936V119.054H369.028V115.67H363.394L363.214 114.014L369.118 105.95H370.936ZM365.482 114.014H369.028V109.136L365.482 114.014ZM379.237 105.968V119.054L377.329 119.036V108.002L375.025 109.28L374.233 107.678L377.347 105.968H379.237Z" fill="#6D0CA6"/>
<path d="M385.874 117.514L392.23 107.35H393.504L387.12 117.514H385.874ZM383.55 109.954C383.55 108.4 384.726 107.182 386.238 107.182C387.736 107.182 388.912 108.4 388.912 109.954C388.912 111.494 387.736 112.712 386.238 112.712C384.726 112.712 383.55 111.494 383.55 109.954ZM384.698 109.954C384.698 110.85 385.37 111.578 386.238 111.578C387.106 111.578 387.778 110.85 387.778 109.954C387.778 109.044 387.106 108.33 386.238 108.33C385.37 108.33 384.698 109.044 384.698 109.954ZM390.34 114.854C390.34 113.314 391.516 112.096 393.028 112.096C394.526 112.096 395.702 113.314 395.702 114.854C395.702 116.408 394.526 117.626 393.028 117.626C391.516 117.626 390.34 116.408 390.34 114.854ZM391.488 114.854C391.488 115.764 392.16 116.492 393.028 116.492C393.896 116.492 394.568 115.764 394.568 114.854C394.568 113.958 393.896 113.23 393.028 113.23C392.16 113.23 391.488 113.958 391.488 114.854Z" fill="#6D0CA6"/>
</g>
<g filter="url(#filter3_d_4076_2272)">
<rect x="444" y="51" width="61" height="37" rx="18.5" fill="white" shape-rendering="crispEdges"/>
<path d="M460.785 76.09H458.697L463.827 64.57L457.815 64.588V62.896H465.735L465.915 64.57L460.785 76.09ZM470.962 76.09H468.874L474.004 64.57L467.992 64.588V62.896H475.912L476.092 64.57L470.962 76.09Z" fill="#6D0CA6"/>
<path d="M481.874 74.514L488.23 64.35H489.504L483.12 74.514H481.874ZM479.55 66.954C479.55 65.4 480.726 64.182 482.238 64.182C483.736 64.182 484.912 65.4 484.912 66.954C484.912 68.494 483.736 69.712 482.238 69.712C480.726 69.712 479.55 68.494 479.55 66.954ZM480.698 66.954C480.698 67.85 481.37 68.578 482.238 68.578C483.106 68.578 483.778 67.85 483.778 66.954C483.778 66.044 483.106 65.33 482.238 65.33C481.37 65.33 480.698 66.044 480.698 66.954ZM486.34 71.854C486.34 70.314 487.516 69.096 489.028 69.096C490.526 69.096 491.702 70.314 491.702 71.854C491.702 73.408 490.526 74.626 489.028 74.626C487.516 74.626 486.34 73.408 486.34 71.854ZM487.488 71.854C487.488 72.764 488.16 73.492 489.028 73.492C489.896 73.492 490.568 72.764 490.568 71.854C490.568 70.958 489.896 70.23 489.028 70.23C488.16 70.23 487.488 70.958 487.488 71.854Z" fill="#6D0CA6"/>
</g>
<g filter="url(#filter4_d_4076_2272)">
<rect x="534" y="11" width="71" height="37" rx="18.5" fill="white" shape-rendering="crispEdges"/>
<path d="M552.069 22.968V36.054L550.161 36.036V25.002L547.857 26.28L547.065 24.678L550.179 22.968H552.069ZM559.628 34.488C561.428 34.488 562.634 32.472 562.634 29.502C562.634 26.514 561.428 24.498 559.628 24.498C557.828 24.498 556.604 26.514 556.604 29.502C556.604 32.472 557.828 34.488 559.628 34.488ZM554.696 29.502C554.696 25.578 556.73 22.824 559.628 22.824C562.508 22.824 564.542 25.578 564.542 29.502C564.542 33.408 562.508 36.18 559.628 36.18C556.73 36.18 554.696 33.408 554.696 29.502ZM571.212 34.488C573.012 34.488 574.218 32.472 574.218 29.502C574.218 26.514 573.012 24.498 571.212 24.498C569.412 24.498 568.188 26.514 568.188 29.502C568.188 32.472 569.412 34.488 571.212 34.488ZM566.28 29.502C566.28 25.578 568.314 22.824 571.212 22.824C574.092 22.824 576.126 25.578 576.126 29.502C576.126 33.408 574.092 36.18 571.212 36.18C568.314 36.18 566.28 33.408 566.28 29.502Z" fill="#6D0CA6"/>
<path d="M581.874 34.514L588.23 24.35H589.504L583.12 34.514H581.874ZM579.55 26.954C579.55 25.4 580.726 24.182 582.238 24.182C583.736 24.182 584.912 25.4 584.912 26.954C584.912 28.494 583.736 29.712 582.238 29.712C580.726 29.712 579.55 28.494 579.55 26.954ZM580.698 26.954C580.698 27.85 581.37 28.578 582.238 28.578C583.106 28.578 583.778 27.85 583.778 26.954C583.778 26.044 583.106 25.33 582.238 25.33C581.37 25.33 580.698 26.044 580.698 26.954ZM586.34 31.854C586.34 30.314 587.516 29.096 589.028 29.096C590.526 29.096 591.702 30.314 591.702 31.854C591.702 33.408 590.526 34.626 589.028 34.626C587.516 34.626 586.34 33.408 586.34 31.854ZM587.488 31.854C587.488 32.764 588.16 33.492 589.028 33.492C589.896 33.492 590.568 32.764 590.568 31.854C590.568 30.958 589.896 30.23 589.028 30.23C588.16 30.23 587.488 30.958 587.488 31.854Z" fill="#6D0CA6"/>
</g>
<rect y="10.7969" width="8.4" height="8.4" rx="2.8" fill="url(#paint6_linear_4076_2272)"/>
<path d="M16.254 11.2972V13.5022H21.2912V14.1882H18.6942V15.325H22.1732V16.0012H14.3822V15.325H17.8416V14.1882H15.4112V11.2972H16.254ZM15.2838 16.8538H21.203V19.7448H20.3602V17.5398H15.2838V16.8538ZM25.5152 11.6304V12.7672C25.5152 13.2703 25.6655 13.7407 25.966 14.1784C26.2731 14.6161 26.6978 14.9461 27.24 15.1682L26.7892 15.8248C26.4038 15.6615 26.0673 15.4328 25.7798 15.1388C25.4989 14.8448 25.2768 14.5083 25.1134 14.1294C24.9566 14.5541 24.728 14.933 24.4274 15.2662C24.1334 15.5994 23.7839 15.8575 23.3788 16.0404L22.9182 15.374C23.2841 15.2107 23.601 14.9885 23.8688 14.7076C24.1432 14.4201 24.349 14.1065 24.4862 13.7668C24.63 13.4271 24.7018 13.0939 24.7018 12.7672V11.6304H25.5152ZM24.398 16.8048H30.2094V19.7448H29.3568V17.4908H24.398V16.8048ZM27.5536 11.2678H28.3474V13.3454H29.396V11.1208H30.2094V16.3344H29.396V14.0412H28.3474V16.2854H27.5536V11.2678ZM39.3139 17.9318V18.6472H31.5033V17.9318H39.3139ZM32.1795 11.9538H38.5985V12.6496H37.2853V15.5896H38.5887V16.2756H32.2089V15.5896H33.4927V12.6496H32.1795V11.9538ZM36.4425 15.5896V12.6496H34.3453V15.5896H36.4425ZM47.1541 11.1012V19.7546H46.3015V11.1012H47.1541ZM40.5391 11.9146H44.5375V15.0212H41.4113V16.9714C42.1561 16.9714 42.8486 16.9485 43.4889 16.9028C44.1357 16.8571 44.8119 16.7787 45.5175 16.6676L45.6057 17.3634C44.887 17.481 44.1945 17.5627 43.5281 17.6084C42.8617 17.6476 42.1136 17.6672 41.2839 17.6672H40.5587V14.3352H43.6849V12.6006H40.5391V11.9146ZM53.0931 11.944V17.5888H49.1143V11.944H53.0931ZM52.2797 16.9028V12.63H49.9473V16.9028H52.2797ZM54.8473 11.1012H55.6999V19.7546H54.8473V11.1012ZM59.5515 11.601C60.1199 11.601 60.6034 11.7545 61.0019 12.0616C61.407 12.3687 61.6553 12.7737 61.7467 13.2768H63.4519V11.1208H64.3045V16.06H63.4519V13.9726H61.7565C61.6781 14.4887 61.4364 14.9036 61.0313 15.2172C60.6263 15.5308 60.133 15.6876 59.5515 15.6876C59.1269 15.6876 58.7447 15.6027 58.4049 15.4328C58.0652 15.2564 57.7973 15.0147 57.6013 14.7076C57.4119 14.4005 57.3171 14.0477 57.3171 13.6492C57.3171 13.2507 57.4119 12.8979 57.6013 12.5908C57.7973 12.2772 58.0652 12.0355 58.4049 11.8656C58.7447 11.6892 59.1269 11.601 59.5515 11.601ZM58.1305 13.6492C58.1305 14.0412 58.2645 14.3613 58.5323 14.6096C58.8002 14.8579 59.1399 14.982 59.5515 14.982C59.9631 14.982 60.2996 14.8579 60.5609 14.6096C60.8288 14.3613 60.9627 14.0412 60.9627 13.6492C60.9627 13.2572 60.8288 12.9371 60.5609 12.6888C60.2996 12.4405 59.9631 12.3164 59.5515 12.3164C59.1399 12.3164 58.8002 12.4405 58.5323 12.6888C58.2645 12.9371 58.1305 13.2572 58.1305 13.6492ZM58.6793 16.4912H64.3045V19.6272H58.6793V16.4912ZM63.4813 18.9412V17.1674H59.5221V18.9412H63.4813Z" fill="#3F3F46"/>
<rect y="32.3984" width="8.4" height="8.4" rx="2.8" fill="url(#paint7_linear_4076_2272)"/>
<path d="M21.693 32.7126V41.3366H20.8796V32.7126H21.693ZM14.2548 39.0042C14.8363 38.6448 15.2871 38.1124 15.6072 37.4068C15.9339 36.7012 16.0972 35.9433 16.0972 35.1332V34.408H14.49V33.7024H18.4198V34.408H16.9204V35.1332C16.9204 35.9041 17.0772 36.626 17.3908 37.299C17.7044 37.9654 18.1487 38.4684 18.7236 38.8082L18.214 39.4256C17.8155 39.1838 17.4725 38.8506 17.185 38.426C16.8975 37.9948 16.6754 37.5048 16.5186 36.956C16.3618 37.5505 16.1364 38.0797 15.8424 38.5436C15.5484 39.0074 15.1923 39.37 14.7742 39.6314L14.2548 39.0042ZM17.773 35.7996H19.1548V32.9086H19.9486V40.9054H19.1548V36.4954H17.773V35.7996ZM26.7402 36.9462C27.0473 37.1291 27.289 37.3774 27.4654 37.691C27.6418 37.998 27.73 38.3018 27.73 38.6024C27.73 39.0009 27.632 39.357 27.436 39.6706C27.24 39.9842 26.9656 40.2292 26.6128 40.4056C26.26 40.582 25.8582 40.6702 25.4074 40.6702C24.9566 40.6702 24.5548 40.582 24.202 40.4056C23.8492 40.2292 23.5748 39.9842 23.3788 39.6706C23.1828 39.3504 23.0848 38.9878 23.0848 38.5828H23.8982C23.8982 38.9813 24.0387 39.308 24.3196 39.5628C24.6006 39.8176 24.9632 39.945 25.4074 39.945C25.8517 39.945 26.2143 39.8208 26.4952 39.5726C26.7827 39.3178 26.9264 38.9911 26.9264 38.5926C26.9264 38.2136 26.786 37.9033 26.505 37.6616C26.2241 37.4198 25.8648 37.299 25.427 37.299H24.9076V36.5738H25.427C25.8386 36.5738 26.1751 36.466 26.4364 36.2504C26.6978 36.0282 26.8284 35.744 26.8284 35.3978C26.8284 35.0384 26.701 34.7477 26.4462 34.5256C26.1914 34.2969 25.8648 34.1826 25.4662 34.1826C25.0677 34.1826 24.741 34.2969 24.4862 34.5256C24.2314 34.7542 24.104 35.0515 24.104 35.4174H23.2906C23.2906 35.0384 23.3821 34.702 23.565 34.408C23.748 34.1074 24.0028 33.8755 24.3294 33.7122C24.6626 33.5423 25.0416 33.4574 25.4662 33.4574C25.8844 33.4574 26.2568 33.539 26.5834 33.7024C26.9101 33.8657 27.1649 34.0944 27.3478 34.3884C27.5373 34.6824 27.632 35.0156 27.632 35.388C27.632 35.6689 27.5504 35.9531 27.387 36.2406C27.2302 36.528 27.0146 36.7632 26.7402 36.9462ZM33.4442 33.5946V34.3002H31.5626V35.3096C31.5626 35.7604 31.6573 36.2177 31.8468 36.6816C32.0363 37.1454 32.2976 37.5668 32.6308 37.9458C32.9705 38.3182 33.3495 38.6024 33.7676 38.7984L33.2874 39.4746C32.8105 39.2394 32.3825 38.8931 32.0036 38.4358C31.6312 37.9719 31.347 37.4525 31.151 36.8776C30.955 37.5048 30.661 38.0699 30.269 38.573C29.8835 39.076 29.4523 39.4484 28.9754 39.6902L28.4756 39.014C28.8872 38.8114 29.2661 38.5109 29.6124 38.1124C29.9587 37.7138 30.2298 37.2663 30.4258 36.7698C30.6283 36.2732 30.7296 35.7865 30.7296 35.3096V34.3002H28.7794V33.5946H33.4442ZM34.4144 32.7224H35.267V36.1818H36.6586V36.8874H35.267V41.3464H34.4144V32.7224ZM42.3964 37.0442C42.8146 37.0442 43.1576 36.9135 43.4254 36.6522C43.6933 36.3843 43.8272 36.0446 43.8272 35.633C43.8272 35.2214 43.69 34.8849 43.4156 34.6236C43.1478 34.3557 42.8048 34.2218 42.3866 34.2218H40.7206L40.7304 37.0442H42.3964ZM39.9072 33.4966H42.416C42.8472 33.4966 43.2294 33.588 43.5626 33.771C43.9024 33.9539 44.1637 34.2087 44.3466 34.5354C44.5361 34.8555 44.6308 35.2214 44.6308 35.633C44.6308 36.0446 44.5361 36.4137 44.3466 36.7404C44.1637 37.0605 43.9024 37.312 43.5626 37.495C43.2294 37.6714 42.8472 37.7596 42.416 37.7596H40.7304V40.631H39.9072V33.4966ZM48.4927 37.0442C48.9108 37.0442 49.2538 36.9135 49.5217 36.6522C49.7896 36.3843 49.9235 36.0446 49.9235 35.633C49.9235 35.2214 49.7863 34.8849 49.5119 34.6236C49.244 34.3557 48.901 34.2218 48.4829 34.2218H46.8169L46.8267 37.0442H48.4927ZM46.0035 33.4966H48.5123C48.9435 33.4966 49.3257 33.588 49.6589 33.771C49.9986 33.9539 50.26 34.2087 50.4429 34.5354C50.6324 34.8555 50.7271 35.2214 50.7271 35.633C50.7271 36.0446 50.6324 36.4137 50.4429 36.7404C50.26 37.0605 49.9986 37.312 49.6589 37.495C49.3257 37.6714 48.9435 37.7596 48.5123 37.7596H46.8267V40.631H46.0035V33.4966ZM57.1456 40.631H56.2734L55.5188 38.6122H52.4122L51.6282 40.631H50.756L53.4902 33.4966H54.4604L57.1456 40.631ZM55.2444 37.8968L53.9802 34.5354L52.6768 37.8968H55.2444Z" fill="#3F3F46"/>
<rect y="54" width="8.4" height="8.4" rx="2.8" fill="#27272A"/>
<path d="M18.1062 55.2941V55.9801H15.519V57.5677H17.9788V58.2439H15.519V60.1255C16.1527 60.1255 16.6819 60.1125 17.1066 60.0863C17.5313 60.0537 17.9592 59.9949 18.3904 59.9099L18.4884 60.6155C18.018 60.707 17.5541 60.7658 17.0968 60.7919C16.646 60.8181 16.0351 60.8311 15.2642 60.8311H14.7154V55.2941H18.1062ZM18.998 54.5003H19.8016V57.7539H20.8894V54.3141H21.7028V62.9381H20.8894V58.4595H19.8016V62.5069H18.998V54.5003ZM25.3486 54.8237C25.7798 54.8237 26.1653 54.9119 26.505 55.0883C26.8513 55.2582 27.1224 55.4967 27.3184 55.8037C27.5144 56.1108 27.6124 56.4636 27.6124 56.8621C27.6124 57.2607 27.5144 57.6135 27.3184 57.9205C27.1224 58.2276 26.8513 58.4693 26.505 58.6457C26.1653 58.8156 25.7798 58.9005 25.3486 58.9005C24.9174 58.9005 24.5287 58.8156 24.1824 58.6457C23.8362 58.4693 23.565 58.2276 23.369 57.9205C23.1796 57.6135 23.0848 57.2607 23.0848 56.8621C23.0848 56.4636 23.1796 56.1108 23.369 55.8037C23.565 55.4967 23.8362 55.2582 24.1824 55.0883C24.5287 54.9119 24.9174 54.8237 25.3486 54.8237ZM23.9178 56.8621C23.9178 57.2541 24.0518 57.5743 24.3196 57.8225C24.5875 58.0643 24.9305 58.1851 25.3486 58.1851C25.7668 58.1851 26.1098 58.0643 26.3776 57.8225C26.652 57.5743 26.7892 57.2541 26.7892 56.8621C26.7892 56.4701 26.652 56.1533 26.3776 55.9115C26.1098 55.6633 25.7668 55.5391 25.3486 55.5391C24.937 55.5391 24.594 55.6633 24.3196 55.9115C24.0518 56.1533 23.9178 56.4701 23.9178 56.8621ZM24.0452 61.3015C24.0452 60.7919 24.2968 60.3934 24.7998 60.1059C25.3094 59.8185 26.0085 59.6747 26.897 59.6747C27.779 59.6747 28.4716 59.8185 28.9746 60.1059C29.4777 60.3934 29.7292 60.7919 29.7292 61.3015C29.7292 61.8111 29.4777 62.2097 28.9746 62.4971C28.4716 62.7846 27.779 62.9283 26.897 62.9283C26.0085 62.9283 25.3094 62.7846 24.7998 62.4971C24.2968 62.2097 24.0452 61.8111 24.0452 61.3015ZM24.8782 61.3015C24.8782 61.6021 25.0546 61.8373 25.4074 62.0071C25.7668 62.1705 26.2633 62.2521 26.897 62.2521C27.5177 62.2521 28.0044 62.1705 28.3572 62.0071C28.7166 61.8373 28.8962 61.6021 28.8962 61.3015C28.8962 61.001 28.7198 60.7691 28.367 60.6057C28.0142 60.4359 27.5242 60.3509 26.897 60.3509C26.2633 60.3509 25.7668 60.4359 25.4074 60.6057C25.0546 60.7691 24.8782 61.001 24.8782 61.3015ZM28.7884 54.3239H29.641V55.5783H30.8758V56.2839H29.641V57.4207H30.8758V58.1263H29.641V59.4199H28.7884V54.3239ZM36.2465 54.8531V55.3333C36.2465 55.7319 36.2334 56.1075 36.2073 56.4603C36.1811 56.8131 36.1223 57.2084 36.0309 57.6461L35.2077 57.5873C35.3514 56.9079 35.4233 56.2251 35.4233 55.5391H31.9639V54.8531H36.2465ZM31.4347 58.4301C32.2056 58.4301 32.8034 58.4236 33.2281 58.4105V56.7249H34.0611V58.3909C35.1913 58.3452 36.1125 58.2733 36.8247 58.1753L36.8835 58.7927C35.4919 59.0149 33.7083 59.1259 31.5327 59.1259L31.4347 58.4301ZM32.5715 61.3407C32.5715 60.8573 32.8263 60.4783 33.3359 60.2039C33.852 59.923 34.5511 59.7825 35.4331 59.7825C36.3281 59.7825 37.0305 59.923 37.5401 60.2039C38.0562 60.4783 38.3143 60.8573 38.3143 61.3407C38.3143 61.8373 38.0562 62.226 37.5401 62.5069C37.0305 62.7879 36.3281 62.9283 35.4331 62.9283C34.5445 62.9283 33.8455 62.7879 33.3359 62.5069C32.8263 62.226 32.5715 61.8373 32.5715 61.3407ZM33.4241 61.3407C33.4241 61.6282 33.6005 61.8536 33.9533 62.0169C34.3126 62.1737 34.8059 62.2521 35.4331 62.2521C36.0668 62.2521 36.5633 62.1737 36.9227 62.0169C37.282 61.8536 37.4617 61.6282 37.4617 61.3407C37.4617 61.0598 37.282 60.8409 36.9227 60.6841C36.5633 60.5273 36.0668 60.4489 35.4331 60.4489C34.8059 60.4489 34.3126 60.5273 33.9533 60.6841C33.6005 60.8409 33.4241 61.0598 33.4241 61.3407ZM37.3833 54.3141H38.2359V56.6367H39.4413V57.3423H38.2359V59.6845H37.3833V54.3141Z" fill="#3F3F46"/>
<defs>
<filter id="filter0_d_4076_2272" x="144.602" y="125" width="90" height="67" filterUnits="userSpaceOnUse" color-interpolation-filters="sRGB">
<feFlood flood-opacity="0" result="BackgroundImageFix"/>
<feColorMatrix in="SourceAlpha" type="matrix" values="0 0 0 0 0 0 0 0 0 0 0 0 0 0 0 0 0 0 127 0" result="hardAlpha"/>
<feOffset dy="4"/>
<feGaussianBlur stdDeviation="7.5"/>
<feComposite in2="hardAlpha" operator="out"/>
<feColorMatrix type="matrix" values="0 0 0 0 0 0 0 0 0 0 0 0 0 0 0 0 0 0 0.15 0"/>
<feBlend mode="normal" in2="BackgroundImageFix" result="effect1_dropShadow_4076_2272"/>
<feBlend mode="normal" in="SourceGraphic" in2="effect1_dropShadow_4076_2272" result="shape"/>
</filter>
<filter id="filter1_d_4076_2272" x="238" y="108" width="92" height="67" filterUnits="userSpaceOnUse" color-interpolation-filters="sRGB">
<feFlood flood-opacity="0" result="BackgroundImageFix"/>
<feColorMatrix in="SourceAlpha" type="matrix" values="0 0 0 0 0 0 0 0 0 0 0 0 0 0 0 0 0 0 127 0" result="hardAlpha"/>
<feOffset dy="4"/>
<feGaussianBlur stdDeviation="7.5"/>
<feComposite in2="hardAlpha" operator="out"/>
<feColorMatrix type="matrix" values="0 0 0 0 0 0 0 0 0 0 0 0 0 0 0 0 0 0 0.15 0"/>
<feBlend mode="normal" in2="BackgroundImageFix" result="effect1_dropShadow_4076_2272"/>
<feBlend mode="normal" in="SourceGraphic" in2="effect1_dropShadow_4076_2272" result="shape"/>
</filter>
<filter id="filter2_d_4076_2272" x="335" y="83" width="89" height="67" filterUnits="userSpaceOnUse" color-interpolation-filters="sRGB">
<feFlood flood-opacity="0" result="BackgroundImageFix"/>
<feColorMatrix in="SourceAlpha" type="matrix" values="0 0 0 0 0 0 0 0 0 0 0 0 0 0 0 0 0 0 127 0" result="hardAlpha"/>
<feOffset dy="4"/>
<feGaussianBlur stdDeviation="7.5"/>
<feComposite in2="hardAlpha" operator="out"/>
<feColorMatrix type="matrix" values="0 0 0 0 0 0 0 0 0 0 0 0 0 0 0 0 0 0 0.15 0"/>
<feBlend mode="normal" in2="BackgroundImageFix" result="effect1_dropShadow_4076_2272"/>
<feBlend mode="normal" in="SourceGraphic" in2="effect1_dropShadow_4076_2272" result="shape"/>
</filter>
<filter id="filter3_d_4076_2272" x="429" y="40" width="91" height="67" filterUnits="userSpaceOnUse" color-interpolation-filters="sRGB">
<feFlood flood-opacity="0" result="BackgroundImageFix"/>
<feColorMatrix in="SourceAlpha" type="matrix" values="0 0 0 0 0 0 0 0 0 0 0 0 0 0 0 0 0 0 127 0" result="hardAlpha"/>
<feOffset dy="4"/>
<feGaussianBlur stdDeviation="7.5"/>
<feComposite in2="hardAlpha" operator="out"/>
<feColorMatrix type="matrix" values="0 0 0 0 0 0 0 0 0 0 0 0 0 0 0 0 0 0 0.15 0"/>
<feBlend mode="normal" in2="BackgroundImageFix" result="effect1_dropShadow_4076_2272"/>
<feBlend mode="normal" in="SourceGraphic" in2="effect1_dropShadow_4076_2272" result="shape"/>
</filter>
<filter id="filter4_d_4076_2272" x="519" y="0" width="101" height="67" filterUnits="userSpaceOnUse" color-interpolation-filters="sRGB">
<feFlood flood-opacity="0" result="BackgroundImageFix"/>
<feColorMatrix in="SourceAlpha" type="matrix" values="0 0 0 0 0 0 0 0 0 0 0 0 0 0 0 0 0 0 127 0" result="hardAlpha"/>
<feOffset dy="4"/>
<feGaussianBlur stdDeviation="7.5"/>
<feComposite in2="hardAlpha" operator="out"/>
<feColorMatrix type="matrix" values="0 0 0 0 0 0 0 0 0 0 0 0 0 0 0 0 0 0 0.15 0"/>
<feBlend mode="normal" in2="BackgroundImageFix" result="effect1_dropShadow_4076_2272"/>
<feBlend mode="normal" in="SourceGraphic" in2="effect1_dropShadow_4076_2272" result="shape"/>
</filter>
<linearGradient id="paint0_linear_4076_2272" x1="379.602" y1="3" x2="379.602" y2="199" gradientUnits="userSpaceOnUse">
<stop stop-color="#F6F6F7"/>
<stop offset="1" stop-color="white"/>
</linearGradient>
<linearGradient id="paint1_linear_4076_2272" x1="189.202" y1="183.5" x2="189.202" y2="198.9" gradientUnits="userSpaceOnUse">
<stop stop-color="#00CC5C"/>
<stop offset="1" stop-color="#5EFFA6"/>
</linearGradient>
<linearGradient id="paint2_linear_4076_2272" x1="284.397" y1="166.695" x2="284.397" y2="198.895" gradientUnits="userSpaceOnUse">
<stop stop-color="#00CC5C"/>
<stop offset="1" stop-color="#5EFFA6"/>
</linearGradient>
<linearGradient id="paint3_linear_4076_2272" x1="379.6" y1="141.5" x2="379.6" y2="198.9" gradientUnits="userSpaceOnUse">
<stop stop-color="#9735D0"/>
<stop offset="1" stop-color="#9735D0" stop-opacity="0.4"/>
</linearGradient>
<linearGradient id="paint4_linear_4076_2272" x1="474.795" y1="98.1016" x2="474.795" y2="198.902" gradientUnits="userSpaceOnUse">
<stop stop-color="#9735D0"/>
<stop offset="1" stop-color="#9735D0" stop-opacity="0.4"/>
</linearGradient>
<linearGradient id="paint5_linear_4076_2272" x1="569.998" y1="58.8984" x2="569.998" y2="198.898" gradientUnits="userSpaceOnUse">
<stop stop-color="#9735D0"/>
<stop offset="1" stop-color="#9735D0" stop-opacity="0.4"/>
</linearGradient>
<linearGradient id="paint6_linear_4076_2272" x1="4.2" y1="10.7969" x2="4.2" y2="19.1969" gradientUnits="userSpaceOnUse">
<stop stop-color="#00CC5C"/>
<stop offset="1" stop-color="#5EFFA6"/>
</linearGradient>
<linearGradient id="paint7_linear_4076_2272" x1="4.2" y1="32.3984" x2="4.2" y2="40.7984" gradientUnits="userSpaceOnUse">
<stop stop-color="#9735D0"/>
<stop offset="1" stop-color="#9735D0" stop-opacity="0.4"/>
</linearGradient>
</defs>
</svg>
