<svg width="580" height="270" viewBox="0 0 580 270" fill="none" xmlns="http://www.w3.org/2000/svg">
<rect x="6" width="568" height="80" rx="16" fill="#F47725"/>
<path d="M229.16 41.46H245.28V43.26H238.32V48.64H236.1V43.26H229.16V41.46ZM231.24 39.98V31.58H243.36V33.32H233.4V34.88H242.98V36.58H233.4V38.22H243.56V39.98H231.24ZM246.96 32.56H256.68V34.38H252.98V35.86C252.98 38.6 254.62 41.76 257.4 43.06L256.18 44.8C254.18 43.84 252.72 41.94 251.92 39.74C251.12 42.16 249.6 44.24 247.56 45.24L246.3 43.5C249.08 42.16 250.8 38.82 250.8 35.86V34.38H246.96V32.56ZM258.28 48.62V30.82H260.5V37.76H263.2V39.58H260.5V48.62H258.28ZM276.621 30.82H278.821V39.88H276.621V30.82ZM264.121 38.12C266.981 37.22 268.481 34.94 268.481 32.6V31.26H270.701V32.6C270.701 34.86 272.201 36.98 274.981 37.84L273.921 39.54C271.881 38.9 270.421 37.56 269.621 35.88C268.821 37.7 267.321 39.16 265.181 39.88L264.121 38.12ZM267.101 42.42V40.72H278.821V45.32H269.301V46.74H279.341V48.46H267.141V43.74H276.661V42.42H267.101ZM281.621 40.92H297.741V42.68H290.721V48.64H288.521V42.68H281.621V40.92ZM283.541 38.82V31.74H295.741V38.82H283.541ZM285.701 37.1H293.601V33.48H285.701V37.1ZM309.122 34.74H311.662V30.82H313.862V41.36H311.662V39.98H309.082V38.24H311.662V36.48H309.122V34.74ZM299.122 34.16V32.42H303.042V30.64H305.262V32.42H308.982V34.16H299.122ZM300.022 38.04C300.022 36.12 301.722 34.82 304.122 34.82C306.562 34.82 308.242 36.12 308.242 38.04C308.242 39.96 306.562 41.26 304.122 41.26C301.722 41.26 300.022 39.96 300.022 38.04ZM302.082 38.04C302.082 39.04 302.902 39.66 304.122 39.66C305.362 39.66 306.202 39.04 306.202 38.04C306.202 37.04 305.362 36.44 304.122 36.44C302.902 36.44 302.082 37.04 302.082 38.04ZM302.122 48.4V42.08H304.282V43.58H311.702V42.08H313.862V48.4H302.122ZM304.282 46.7H311.702V45.24H304.282V46.7ZM322.302 32.02C325.082 32.02 327.142 33.82 327.142 36.34C327.142 38.88 325.082 40.66 322.302 40.66C319.502 40.66 317.442 38.88 317.442 36.34C317.442 33.82 319.502 32.02 322.302 32.02ZM316.642 43.12C319.802 43.12 324.242 43.1 328.022 42.52L328.182 44.12C324.282 44.88 320.022 44.92 316.902 44.92L316.642 43.12ZM319.582 36.34C319.582 37.82 320.742 38.78 322.302 38.78C323.842 38.78 325.002 37.82 325.002 36.34C325.002 34.84 323.842 33.92 322.302 33.92C320.742 33.92 319.582 34.84 319.582 36.34ZM329.082 48.64V30.78H331.262V48.64H329.082ZM341.283 37.66H343.583V31.14H345.623V47.76H343.583V39.44H341.283V37.66ZM333.783 43.5C336.263 42.04 337.343 39.04 337.343 36.24V35.7H334.383V33.92H337.343V31.4H339.443V33.92H342.383V35.7H339.443V36.24C339.443 38.98 340.563 41.78 343.023 43.1L341.803 44.74C340.183 43.86 339.063 42.32 338.423 40.44C337.803 42.46 336.683 44.2 335.023 45.16L333.783 43.5ZM347.163 48.6V30.8H349.263V48.6H347.163Z" fill="white"/>
<g filter="url(#filter0_d_4103_3144)">
<rect x="6" y="96" width="568" height="167" rx="16" fill="white"/>
<path d="M41.5022 150.43C41.5022 149.626 41.6942 149.056 42.0782 148.72C42.4622 148.372 42.9362 148.198 43.5002 148.198C44.0522 148.198 44.5202 148.372 44.9042 148.72C45.3002 149.056 45.4982 149.626 45.4982 150.43C45.4982 151.222 45.3002 151.792 44.9042 152.14C44.5202 152.488 44.0522 152.662 43.5002 152.662C42.9362 152.662 42.4622 152.488 42.0782 152.14C41.6942 151.792 41.5022 151.222 41.5022 150.43ZM62.832 143.248C65.19 143.248 66.9 144.58 66.9 146.524C66.9 148.45 65.19 149.8 62.832 149.8C60.492 149.8 58.782 148.45 58.782 146.524C58.782 144.58 60.492 143.248 62.832 143.248ZM57.648 151.078C60.564 151.078 64.56 151.042 68.034 150.502L68.142 151.672C66.684 151.942 65.172 152.104 63.696 152.212V157.864H62.13V152.302C60.582 152.374 59.124 152.392 57.846 152.392L57.648 151.078ZM60.276 146.524C60.276 147.712 61.356 148.504 62.832 148.504C64.326 148.504 65.406 147.712 65.406 146.524C65.406 145.336 64.326 144.526 62.832 144.526C61.356 144.526 60.276 145.336 60.276 146.524ZM69.132 158.368V142.51H70.68V158.368H69.132ZM84.8464 142.51H86.4124V154.57H84.8464V152.968H81.6784V151.852H84.8464V142.51ZM73.3084 149.8C76.2424 149.782 80.1484 149.746 83.5324 149.332L83.6224 150.448C82.2544 150.682 80.8324 150.826 79.4104 150.916V154.012H77.8444V150.988C76.2964 151.06 74.8024 151.078 73.5244 151.078L73.3084 149.8ZM74.5504 145.912C74.5504 144.238 76.1344 143.14 78.4564 143.14C80.7784 143.14 82.3624 144.238 82.3624 145.912C82.3624 147.604 80.7784 148.684 78.4564 148.684C76.1344 148.684 74.5504 147.604 74.5504 145.912ZM75.5224 158.008V153.4H77.0884V156.748H86.8084V158.008H75.5224ZM76.0264 145.912C76.0264 146.902 77.0344 147.514 78.4564 147.514C79.8964 147.514 80.8684 146.902 80.8684 145.912C80.8684 144.922 79.8964 144.292 78.4564 144.292C77.0344 144.292 76.0264 144.922 76.0264 145.912ZM95.2233 146.542C95.7453 146.542 96.1053 146.92 96.1053 147.424C96.1053 147.946 95.7453 148.324 95.2233 148.324C94.7013 148.324 94.3233 147.946 94.3233 147.424C94.3233 146.92 94.7013 146.542 95.2233 146.542ZM94.3233 153.49C94.3233 152.968 94.7013 152.608 95.2233 152.608C95.7453 152.608 96.1053 152.968 96.1053 153.49C96.1053 154.012 95.7453 154.39 95.2233 154.39C94.7013 154.39 94.3233 154.012 94.3233 153.49ZM116.005 150.232C116.005 150.682 115.987 151.258 115.987 151.312C115.987 155.038 113.359 157.126 109.831 157.198C106.051 157.198 103.369 154.426 103.369 150.502C103.369 146.578 106.051 143.824 109.831 143.824C113.917 143.824 115.321 146.992 115.321 146.992L114.007 147.622C114.007 147.622 112.945 145.156 109.831 145.156C106.915 145.156 104.881 147.352 104.881 150.502C104.881 153.67 106.915 155.866 109.831 155.866C112.531 155.776 114.529 154.39 114.547 151.528H110.065V150.232H116.005ZM118.306 144.346H119.8V157.054H118.306V144.346ZM125.69 155.83C127.184 155.83 128.21 154.642 128.21 152.914C128.21 151.186 127.184 149.98 125.69 149.98C124.214 149.98 123.188 151.168 123.188 152.914C123.188 154.66 124.196 155.83 125.69 155.83ZM121.694 152.914C121.694 150.43 123.35 148.648 125.69 148.648C128.048 148.648 129.722 150.43 129.722 152.914C129.722 155.38 128.048 157.162 125.69 157.162C123.35 157.162 121.694 155.38 121.694 152.914ZM135.879 157.198C135.087 157.198 134.025 156.856 133.251 155.722V157.09H131.757V144.346H133.251V150.142C134.025 149.008 135.087 148.684 135.897 148.684C138.237 148.684 139.911 150.448 139.911 152.932C139.911 155.434 138.237 157.198 135.879 157.198ZM133.251 152.932C133.251 154.57 134.421 155.884 135.825 155.884C137.355 155.884 138.417 154.678 138.417 152.932C138.417 151.204 137.355 150.016 135.825 150.016C134.421 150.016 133.251 151.33 133.251 152.932ZM145.606 157.162C143.284 157.162 141.628 155.398 141.628 152.932C141.628 150.448 143.284 148.684 145.606 148.684C146.506 148.684 147.496 149.134 148.216 150.106V148.666H149.71V157.054H148.216V155.704C147.478 156.766 146.506 157.162 145.606 157.162ZM143.122 152.932C143.122 154.642 144.166 155.848 145.66 155.848C147.01 155.848 148.216 154.624 148.234 152.932C148.216 151.24 147.01 149.998 145.66 149.998C144.166 149.998 143.122 151.186 143.122 152.932ZM152.144 144.346H153.638V157.054H152.144V144.346ZM160.554 143.95H162.066V157.054H160.554V143.95ZM170.721 152.23C170.721 150.88 169.929 149.998 168.741 149.998C167.409 149.998 166.473 151.024 166.473 152.23V157.054H164.979V148.666H166.473V149.89C167.049 149.17 167.985 148.666 168.813 148.666C170.649 148.666 172.215 149.926 172.215 152.122V157.054H170.721V152.23ZM182.267 148.666L178.757 157.054H177.389L173.897 148.666H175.535L178.073 155.02L180.611 148.666H182.267ZM187.073 157.126C184.715 157.126 183.059 155.362 183.059 152.896C183.059 150.412 184.715 148.666 187.073 148.666C189.665 148.666 190.457 150.754 190.529 150.952C191.033 152.248 190.871 153.49 190.871 153.544H184.571C184.787 154.876 185.831 155.812 187.073 155.812C188.729 155.812 189.341 154.768 189.467 154.57L190.655 155.182C190.241 156.118 189.053 157.126 187.073 157.126ZM184.571 152.266L189.413 152.248C189.251 150.97 188.621 149.98 187.073 149.98C185.795 149.98 184.787 150.916 184.571 152.266ZM193.828 154.372C194.296 155.38 195.286 155.812 195.916 155.812C196.924 155.812 197.644 155.38 197.644 154.66C197.644 153.976 196.708 153.706 195.772 153.382C194.62 152.986 193 152.482 193 150.88C193 149.458 194.314 148.576 195.988 148.576C196.978 148.576 198.562 149.152 198.958 150.646L197.644 151.096C197.374 150.106 196.474 149.908 195.988 149.908C195.124 149.908 194.494 150.268 194.494 150.88C194.494 151.564 195.358 151.798 196.366 152.14C197.572 152.554 199.138 153.058 199.138 154.66C199.138 156.154 197.77 157.126 195.916 157.126C194.638 157.126 193.306 156.406 192.622 155.092L193.828 154.372ZM202.163 157.054V149.98H200.633V148.648H202.163V145.75H203.675V148.648H205.655V149.98H203.675V157.054H202.163ZM218.44 152.05C218.44 150.826 217.72 149.998 216.676 149.998C215.47 149.998 214.642 150.79 214.642 151.906V157.054H213.13V152.05C213.13 150.826 212.428 149.998 211.402 149.998C210.178 149.998 209.332 151.024 209.332 152.212V157.054H207.838V148.666H209.332V149.872C209.836 149.152 210.664 148.666 211.456 148.666C212.5 148.666 213.526 149.296 214.012 150.214C214.57 149.296 215.668 148.666 216.712 148.666C218.602 148.666 219.952 150.016 219.952 151.942V157.054H218.44V152.05ZM226.149 157.126C223.791 157.126 222.135 155.362 222.135 152.896C222.135 150.412 223.791 148.666 226.149 148.666C228.741 148.666 229.533 150.754 229.605 150.952C230.109 152.248 229.947 153.49 229.947 153.544H223.647C223.863 154.876 224.907 155.812 226.149 155.812C227.805 155.812 228.417 154.768 228.543 154.57L229.731 155.182C229.317 156.118 228.129 157.126 226.149 157.126ZM223.647 152.266L228.489 152.248C228.327 150.97 227.697 149.98 226.149 149.98C224.871 149.98 223.863 150.916 223.647 152.266ZM237.782 152.23C237.782 150.88 236.99 149.998 235.802 149.998C234.47 149.998 233.534 151.024 233.534 152.23V157.054H232.04V148.666H233.534V149.89C234.11 149.17 235.046 148.666 235.874 148.666C237.71 148.666 239.276 149.926 239.276 152.122V157.054H237.782V152.23ZM242.347 157.054V149.98H240.817V148.648H242.347V145.75H243.859V148.648H245.839V149.98H243.859V157.054H242.347ZM265.033 150.232C265.033 150.682 265.015 151.258 265.015 151.312C265.015 155.038 262.387 157.126 258.859 157.198C255.079 157.198 252.397 154.426 252.397 150.502C252.397 146.578 255.079 143.824 258.859 143.824C262.945 143.824 264.349 146.992 264.349 146.992L263.035 147.622C263.035 147.622 261.973 145.156 258.859 145.156C255.943 145.156 253.909 147.352 253.909 150.502C253.909 153.67 255.943 155.866 258.859 155.866C261.559 155.776 263.557 154.39 263.575 151.528H259.093V150.232H265.033ZM267.387 157.054V148.666H268.881V150.052C269.439 149.152 270.573 148.54 271.689 148.594V150.034C270.159 149.98 268.881 151.312 268.881 152.788V157.054H267.387ZM276.739 155.83C278.233 155.83 279.259 154.642 279.259 152.914C279.259 151.186 278.233 149.98 276.739 149.98C275.263 149.98 274.237 151.168 274.237 152.914C274.237 154.66 275.245 155.83 276.739 155.83ZM272.743 152.914C272.743 150.43 274.399 148.648 276.739 148.648C279.097 148.648 280.771 150.43 280.771 152.914C280.771 155.38 279.097 157.162 276.739 157.162C274.399 157.162 272.743 155.38 272.743 152.914ZM284.476 153.544C284.476 154.876 285.286 155.848 286.456 155.848C287.788 155.848 288.706 155.002 288.706 153.67V148.666H290.218V157.054H288.706V155.992C288.148 156.712 287.212 157.18 286.366 157.18C284.386 157.18 282.964 155.686 282.964 153.67V148.666H284.476V153.544ZM296.948 155.83C298.478 155.83 299.504 154.642 299.504 152.896C299.504 151.168 298.478 149.962 296.948 149.962C295.562 149.962 294.392 151.294 294.392 152.896C294.392 154.516 295.562 155.83 296.948 155.83ZM292.88 160.888V148.648H294.374V150.07C295.004 149.116 296.156 148.648 297.002 148.648C299.342 148.648 300.998 150.412 300.998 152.896C300.998 155.398 299.342 157.162 297.002 157.162C296.12 157.162 295.004 156.622 294.374 155.722V160.888H292.88ZM303.605 143.464H311.147V144.724H305.153V146.578H310.715V147.82H305.153V149.782C308.375 149.782 310.247 149.71 312.407 149.35L312.569 150.574C310.283 150.97 308.339 151.024 304.901 151.024H303.605V143.464ZM305.441 158.152V152.734H315.701V158.152H305.441ZM306.953 156.892H314.171V153.976H306.953V156.892ZM314.135 151.96V142.528H315.701V151.96H314.135ZM318.816 143.662H327.312V144.94H323.856V145.462C323.856 147.496 325.296 149.35 327.654 150.124L326.916 151.33C325.116 150.736 323.802 149.53 323.118 147.982C322.434 149.764 321.03 151.168 319.14 151.834L318.366 150.592C320.778 149.764 322.308 147.712 322.308 145.462V144.94H318.816V143.662ZM320.472 155.38C320.472 153.526 322.47 152.464 325.692 152.464C328.932 152.464 330.912 153.526 330.912 155.38C330.912 157.252 328.932 158.332 325.692 158.332C322.47 158.332 320.472 157.252 320.472 155.38ZM322.002 155.38C322.002 156.478 323.388 157.108 325.692 157.108C327.996 157.108 329.382 156.478 329.382 155.38C329.382 154.3 327.996 153.688 325.692 153.688C323.388 153.688 322.002 154.3 322.002 155.38ZM329.184 152.05V142.528H330.75V146.506H333.072V147.784H330.75V152.05H329.184ZM336.402 155.542L335.34 159.142H334.224L334.818 155.542H336.402ZM351.77 146.848H354.848V142.528H356.414V154.102H354.848V148.126H351.77V146.848ZM343.382 150.898C345.758 150.07 347.342 147.964 347.342 145.75V145.048H343.85V143.77H352.328V145.048H348.908V145.732C348.908 147.748 350.402 149.746 352.724 150.556L351.932 151.78C350.168 151.132 348.836 149.836 348.152 148.234C347.468 150.016 346.082 151.456 344.192 152.14L343.382 150.898ZM346.244 158.008V153.112H347.81V156.748H356.846V158.008H346.244ZM359.744 143.464H366.89V147.91H361.328V150.07C364.082 150.07 366.062 149.962 368.402 149.548L368.546 150.844C366.098 151.258 363.992 151.348 361.04 151.348H359.78V146.704H365.36V144.724H359.744V143.464ZM361.094 154.246V152.968H371.426V158.368H369.86V154.246H361.094ZM369.86 152.158V142.528H371.426V145.012H373.73V146.29H371.426V148.324H373.73V149.62H371.426V152.158H369.86ZM375.729 143.464H383.271V144.724H377.277V146.578H382.839V147.82H377.277V149.782C380.499 149.782 382.371 149.71 384.531 149.35L384.693 150.574C382.407 150.97 380.463 151.024 377.025 151.024H375.729V143.464ZM377.565 158.152V152.734H387.825V158.152H377.565ZM379.077 156.892H386.295V153.976H379.077V156.892ZM386.259 151.96V142.528H387.825V151.96H386.259ZM390.939 143.662H399.435V144.94H395.979V145.462C395.979 147.496 397.419 149.35 399.777 150.124L399.039 151.33C397.239 150.736 395.925 149.53 395.241 147.982C394.557 149.764 393.153 151.168 391.263 151.834L390.489 150.592C392.901 149.764 394.431 147.712 394.431 145.462V144.94H390.939V143.662ZM392.595 155.38C392.595 153.526 394.593 152.464 397.815 152.464C401.055 152.464 403.035 153.526 403.035 155.38C403.035 157.252 401.055 158.332 397.815 158.332C394.593 158.332 392.595 157.252 392.595 155.38ZM394.125 155.38C394.125 156.478 395.511 157.108 397.815 157.108C400.119 157.108 401.505 156.478 401.505 155.38C401.505 154.3 400.119 153.688 397.815 153.688C395.511 153.688 394.125 154.3 394.125 155.38ZM401.307 152.05V142.528H402.873V146.506H405.195V147.784H402.873V152.05H401.307ZM408.525 155.542L407.463 159.142H406.347L406.941 155.542H408.525ZM427.511 142.51H429.005V158.35H427.511V150.16H425.531V157.558H424.073V142.852H425.531V148.864H427.511V142.51ZM415.289 153.94C417.557 152.644 418.691 149.944 418.691 146.74V145.642H415.685V144.346H422.993V145.642H420.185V146.74C420.185 149.638 421.319 152.212 423.551 153.364L422.633 154.57C421.085 153.724 420.041 152.23 419.483 150.376C418.943 152.5 417.881 154.174 416.261 155.146L415.289 153.94ZM431.219 151.672H445.565V152.95H439.121V158.386H437.573V152.95H431.219V151.672ZM433.019 149.584V143.392H443.729V149.584H433.019ZM434.549 148.36H442.199V144.652H434.549V148.36ZM447.852 143.464H455.394V144.724H449.4V146.578H454.962V147.82H449.4V149.782C452.622 149.782 454.494 149.71 456.654 149.35L456.816 150.574C454.53 150.97 452.586 151.024 449.148 151.024H447.852V143.464ZM449.688 158.152V152.734H459.948V158.152H449.688ZM451.2 156.892H458.418V153.976H451.2V156.892ZM458.382 151.96V142.528H459.948V151.96H458.382ZM463.062 143.662H471.558V144.94H468.102V145.462C468.102 147.496 469.542 149.35 471.9 150.124L471.162 151.33C469.362 150.736 468.048 149.53 467.364 147.982C466.68 149.764 465.276 151.168 463.386 151.834L462.612 150.592C465.024 149.764 466.554 147.712 466.554 145.462V144.94H463.062V143.662ZM464.718 155.38C464.718 153.526 466.716 152.464 469.938 152.464C473.178 152.464 475.158 153.526 475.158 155.38C475.158 157.252 473.178 158.332 469.938 158.332C466.716 158.332 464.718 157.252 464.718 155.38ZM466.248 155.38C466.248 156.478 467.634 157.108 469.938 157.108C472.242 157.108 473.628 156.478 473.628 155.38C473.628 154.3 472.242 153.688 469.938 153.688C467.634 153.688 466.248 154.3 466.248 155.38ZM473.43 152.05V142.528H474.996V146.506H477.318V147.784H474.996V152.05H473.43ZM480.648 155.542L479.586 159.142H478.47L479.064 155.542H480.648ZM69.06 171.528H70.608V187.368H69.06V171.528ZM57.756 183.084C59.07 183.084 60.564 183.084 62.112 183.03V181.374C60.258 181.14 59.07 180.06 59.07 178.494C59.07 176.712 60.6 175.56 62.886 175.56C65.154 175.56 66.72 176.712 66.72 178.494C66.72 180.06 65.514 181.14 63.678 181.374V182.976C65.172 182.904 66.666 182.778 68.07 182.598L68.178 183.75C64.668 184.362 60.852 184.398 57.972 184.398L57.756 183.084ZM58.08 174.678V173.436H62.112V171.528H63.678V173.436H67.692V174.678H58.08ZM60.546 178.494C60.546 179.556 61.5 180.222 62.886 180.222C64.29 180.222 65.226 179.556 65.226 178.494C65.226 177.432 64.29 176.748 62.886 176.748C61.5 176.748 60.546 177.432 60.546 178.494ZM79.4284 179.862H82.2004V177.162H79.6984C78.9424 179.844 77.2504 182.184 74.2624 183.966L73.3624 182.832C76.7104 180.834 78.3664 178.08 78.6364 174.786H74.0824V173.508H80.1664C80.1664 174.318 80.1124 175.128 79.9684 175.902H82.2004V171.924H83.6764V186.558H82.2004V181.122H79.4284V179.862ZM85.4044 187.35V171.51H86.8804V187.35H85.4044ZM90.0488 172.464H97.5908V173.724H91.5968V175.578H97.1588V176.82H91.5968V178.782C94.8188 178.782 96.6908 178.71 98.8508 178.35L99.0128 179.574C96.7268 179.97 94.7828 180.024 91.3448 180.024H90.0488V172.464ZM91.8848 187.152V181.734H102.145V187.152H91.8848ZM93.3968 185.892H100.615V182.976H93.3968V185.892ZM100.579 180.96V171.528H102.145V180.96H100.579ZM105.259 172.662H113.755V173.94H110.299V174.462C110.299 176.496 111.739 178.35 114.097 179.124L113.359 180.33C111.559 179.736 110.245 178.53 109.561 176.982C108.877 178.764 107.473 180.168 105.583 180.834L104.809 179.592C107.221 178.764 108.751 176.712 108.751 174.462V173.94H105.259V172.662ZM106.915 184.38C106.915 182.526 108.913 181.464 112.135 181.464C115.375 181.464 117.355 182.526 117.355 184.38C117.355 186.252 115.375 187.332 112.135 187.332C108.913 187.332 106.915 186.252 106.915 184.38ZM108.445 184.38C108.445 185.478 109.831 186.108 112.135 186.108C114.439 186.108 115.825 185.478 115.825 184.38C115.825 183.3 114.439 182.688 112.135 182.688C109.831 182.688 108.445 183.3 108.445 184.38ZM115.627 181.05V171.528H117.193V175.506H119.515V176.784H117.193V181.05H115.627ZM122.846 184.542L121.784 188.142H120.668L121.262 184.542H122.846ZM136.035 177.144H138.555V171.852H140.013V186.558H138.555V178.44H136.035V177.144ZM129.591 182.814C131.787 181.518 133.029 178.674 133.029 175.956V173.004H134.523V175.92C134.523 178.44 135.657 181.14 137.745 182.436L136.863 183.642C135.387 182.742 134.361 181.104 133.803 179.25C133.227 181.284 132.111 183.03 130.563 183.984L129.591 182.814ZM141.777 187.35V171.51H143.271V187.35H141.777ZM145.539 180.672H159.885V181.95H153.441V187.386H151.893V181.95H145.539V180.672ZM147.339 178.584V172.392H158.049V178.584H147.339ZM148.869 177.36H156.519V173.652H148.869V177.36ZM162.172 172.464H169.714V173.724H163.72V175.578H169.282V176.82H163.72V178.782C166.942 178.782 168.814 178.71 170.974 178.35L171.136 179.574C168.85 179.97 166.906 180.024 163.468 180.024H162.172V172.464ZM164.008 187.152V181.734H174.268V187.152H164.008ZM165.52 185.892H172.738V182.976H165.52V185.892ZM172.702 180.96V171.528H174.268V180.96H172.702ZM177.382 172.662H185.878V173.94H182.422V174.462C182.422 176.496 183.862 178.35 186.22 179.124L185.482 180.33C183.682 179.736 182.368 178.53 181.684 176.982C181 178.764 179.596 180.168 177.706 180.834L176.932 179.592C179.344 178.764 180.874 176.712 180.874 174.462V173.94H177.382V172.662ZM179.038 184.38C179.038 182.526 181.036 181.464 184.258 181.464C187.498 181.464 189.478 182.526 189.478 184.38C189.478 186.252 187.498 187.332 184.258 187.332C181.036 187.332 179.038 186.252 179.038 184.38ZM180.568 184.38C180.568 185.478 181.954 186.108 184.258 186.108C186.562 186.108 187.948 185.478 187.948 184.38C187.948 183.3 186.562 182.688 184.258 182.688C181.954 182.688 180.568 183.3 180.568 184.38ZM187.75 181.05V171.528H189.316V175.506H191.638V176.784H189.316V181.05H187.75ZM194.969 184.542L193.907 188.142H192.791L193.385 184.542H194.969ZM202.686 172.338H204.234V174.714H208.356V172.338H209.886V175.362H213.414V171.528H214.98V180.168H213.414V176.64H209.886V179.61H202.686V172.338ZM204.234 178.332H208.356V175.92H204.234V178.332ZM204.792 187.134V180.924H206.322V182.76H213.432V180.924H214.962V187.134H204.792ZM206.322 185.874H213.432V184.02H206.322V185.874ZM217.663 180.672H232.009V181.95H225.565V187.386H224.017V181.95H217.663V180.672ZM219.463 178.584V172.392H230.173V178.584H219.463ZM220.993 177.36H228.643V173.652H220.993V177.36ZM234.295 172.464H241.837V173.724H235.843V175.578H241.405V176.82H235.843V178.782C239.065 178.782 240.937 178.71 243.097 178.35L243.259 179.574C240.973 179.97 239.029 180.024 235.591 180.024H234.295V172.464ZM236.131 187.152V181.734H246.391V187.152H236.131ZM237.643 185.892H244.861V182.976H237.643V185.892ZM244.825 180.96V171.528H246.391V180.96H244.825ZM249.505 172.662H258.001V173.94H254.545V174.462C254.545 176.496 255.985 178.35 258.343 179.124L257.605 180.33C255.805 179.736 254.491 178.53 253.807 176.982C253.123 178.764 251.719 180.168 249.829 180.834L249.055 179.592C251.467 178.764 252.997 176.712 252.997 174.462V173.94H249.505V172.662ZM251.161 184.38C251.161 182.526 253.159 181.464 256.381 181.464C259.621 181.464 261.601 182.526 261.601 184.38C261.601 186.252 259.621 187.332 256.381 187.332C253.159 187.332 251.161 186.252 251.161 184.38ZM252.691 184.38C252.691 185.478 254.077 186.108 256.381 186.108C258.685 186.108 260.071 185.478 260.071 184.38C260.071 183.3 258.685 182.688 256.381 182.688C254.077 182.688 252.691 183.3 252.691 184.38ZM259.873 181.05V171.528H261.439V175.506H263.761V176.784H261.439V181.05H259.873ZM267.092 184.542L266.03 188.142H264.914L265.508 184.542H267.092ZM276.087 182.526C276.771 183.894 277.923 184.866 279.273 184.866C281.037 184.902 282.135 184.002 282.135 182.598C282.135 179.25 275.403 180.654 275.403 176.1C275.403 173.994 277.167 172.788 279.507 172.806C281.307 172.842 282.765 173.796 283.395 175.704L282.045 176.172C281.649 174.894 280.677 174.156 279.489 174.138C277.977 174.12 276.897 174.84 276.897 176.1C276.897 179.412 283.629 178.062 283.629 182.616C283.629 184.776 281.937 186.234 279.255 186.198C277.347 186.162 275.889 185.1 274.809 183.21L276.087 182.526ZM296.514 172.95L291.834 186.054H290.16L285.228 172.95H286.83L290.988 183.966L294.912 172.95H296.514ZM298.416 181.068H312.744V182.364H306.354V187.386H304.788V182.364H298.416V181.068ZM299.298 178.692C302.214 178.296 304.734 176.604 304.788 174.714H299.784V173.454H304.788V171.528H306.354V173.454H311.358V174.714H306.354C306.408 176.568 308.928 178.296 311.826 178.692L311.268 179.934C308.784 179.574 306.588 178.368 305.58 176.694C304.572 178.368 302.376 179.574 299.856 179.934L299.298 178.692ZM314.761 172.788H323.419V174.066H319.891V174.84C319.891 176.946 321.493 178.872 323.851 179.664L323.059 180.888C321.241 180.276 319.837 178.98 319.135 177.342C318.451 179.106 317.029 180.51 315.139 181.176L314.329 179.952C316.741 179.106 318.307 177.054 318.307 174.84V174.066H314.761V172.788ZM316.921 187.008V182.004H318.469V185.748H327.613V187.008H316.921ZM325.579 183.102V171.528H327.145V183.102H325.579ZM330.781 172.464H338.323V173.724H332.329V175.578H337.891V176.82H332.329V178.782C335.551 178.782 337.423 178.71 339.583 178.35L339.745 179.574C337.459 179.97 335.515 180.024 332.077 180.024H330.781V172.464ZM332.617 187.152V181.734H342.877V187.152H332.617ZM334.129 185.892H341.347V182.976H334.129V185.892ZM341.311 180.96V171.528H342.877V180.96H341.311ZM345.992 172.662H354.488V173.94H351.032V174.462C351.032 176.496 352.472 178.35 354.83 179.124L354.092 180.33C352.292 179.736 350.978 178.53 350.294 176.982C349.61 178.764 348.206 180.168 346.316 180.834L345.542 179.592C347.954 178.764 349.484 176.712 349.484 174.462V173.94H345.992V172.662ZM347.648 184.38C347.648 182.526 349.646 181.464 352.868 181.464C356.108 181.464 358.088 182.526 358.088 184.38C358.088 186.252 356.108 187.332 352.868 187.332C349.646 187.332 347.648 186.252 347.648 184.38ZM349.178 184.38C349.178 185.478 350.564 186.108 352.868 186.108C355.172 186.108 356.558 185.478 356.558 184.38C356.558 183.3 355.172 182.688 352.868 182.688C350.564 182.688 349.178 183.3 349.178 184.38ZM356.36 181.05V171.528H357.926V175.506H360.248V176.784H357.926V181.05H356.36ZM41.5022 208.43C41.5022 207.626 41.6942 207.056 42.0782 206.72C42.4622 206.372 42.9362 206.198 43.5002 206.198C44.0522 206.198 44.5202 206.372 44.9042 206.72C45.3002 207.056 45.4982 207.626 45.4982 208.43C45.4982 209.222 45.3002 209.792 44.9042 210.14C44.5202 210.488 44.0522 210.662 43.5002 210.662C42.9362 210.662 42.4622 210.488 42.0782 210.14C41.6942 209.792 41.5022 209.222 41.5022 208.43ZM59.466 201.536H70.158V202.922C70.158 204.416 70.158 206.054 69.708 208.34H72.012V209.636H65.604V216.386H64.02V209.636H57.684V208.34H68.124C68.61 206.09 68.61 204.398 68.61 202.922V202.796H59.466V201.536ZM85.3864 200.51H86.8804V216.35H85.3864V208.034H83.3524V215.558H81.8944V200.852H83.3524V206.756H85.3864V200.51ZM73.9744 212.138V202.31H80.0224V212.138H73.9744ZM75.4324 210.914H78.5824V203.552H75.4324V210.914ZM93.0908 201.41H94.6388V202.94C94.6388 205.172 96.1148 207.152 98.4548 207.944L97.6088 209.168C95.8988 208.52 94.6028 207.278 93.9188 205.676C93.2348 207.512 91.8308 208.934 89.9228 209.636L89.1128 208.376C91.5608 207.512 93.0908 205.406 93.0908 202.994V201.41ZM91.6508 213.344C91.6508 211.436 93.6668 210.338 96.9608 210.338C100.237 210.338 102.253 211.436 102.253 213.344C102.253 215.252 100.237 216.332 96.9608 216.332C93.6668 216.332 91.6508 215.252 91.6508 213.344ZM93.2168 213.344C93.2168 214.46 94.6028 215.108 96.9608 215.108C99.3008 215.108 100.705 214.46 100.705 213.344C100.705 212.21 99.3008 211.562 96.9608 211.562C94.6028 211.562 93.2168 212.21 93.2168 213.344ZM97.2488 205.1V203.804H100.615V200.528H102.181V209.87H100.615V205.1H97.2488ZM109.012 210.086H123.358V211.382H116.968V216.386H115.402V211.382H109.012V210.086ZM110.938 208.538V201.248H121.594V202.508H112.45V204.218H121.252V205.46H112.45V207.278H121.774V208.538H110.938ZM125.05 202.13H133.618V203.426H130.162V205.28C130.162 207.782 131.872 210.59 134.212 211.688L133.33 212.93C131.566 212.066 130.126 210.248 129.406 208.16C128.686 210.428 127.192 212.426 125.41 213.326L124.492 212.084C126.796 210.95 128.632 207.962 128.632 205.28V203.426H125.05V202.13ZM135.4 216.368V200.528H136.966V206.882H139.522V208.178H136.966V216.368H135.4ZM145.607 201.644C148.073 201.644 149.855 203.192 149.855 205.406C149.855 207.638 148.073 209.168 145.607 209.168C143.123 209.168 141.341 207.638 141.341 205.406C141.341 203.192 143.123 201.644 145.607 201.644ZM140.567 211.634C143.429 211.634 147.425 211.634 150.845 211.094L150.971 212.246C147.443 212.93 143.573 212.948 140.765 212.948L140.567 211.634ZM142.853 205.406C142.853 206.828 144.023 207.818 145.607 207.818C147.173 207.818 148.343 206.828 148.343 205.406C148.343 203.966 147.173 202.994 145.607 202.994C144.023 202.994 142.853 203.966 142.853 205.406ZM151.871 216.386V200.492H153.419V216.386H151.871ZM167.809 206.684H171.859V204.65H167.971C166.963 207.188 164.569 209.006 161.185 209.996L160.555 208.754C164.335 207.674 166.567 205.604 166.837 202.958H161.383V201.68H168.529C168.529 202.274 168.475 202.85 168.367 203.39H171.859V200.51H173.425V209.96H171.859V207.944H167.809V206.684ZM163.003 213.218C163.003 211.292 165.037 210.14 168.259 210.14C171.445 210.14 173.497 211.292 173.497 213.218C173.497 215.126 171.445 216.278 168.259 216.278C165.037 216.278 163.003 215.126 163.003 213.218ZM164.551 213.218C164.551 214.37 165.991 215.054 168.259 215.054C170.545 215.054 171.967 214.37 171.967 213.218C171.967 212.048 170.545 211.364 168.259 211.364C165.991 211.364 164.551 212.048 164.551 213.218ZM176.108 209.564H190.454V210.842H184.01V216.368H182.462V210.842H176.108V209.564ZM177.674 204.632C177.674 202.49 179.924 201.158 183.236 201.158C186.566 201.158 188.798 202.49 188.798 204.632C188.798 206.756 186.566 208.106 183.236 208.106C179.924 208.106 177.674 206.756 177.674 204.632ZM179.276 204.632C179.276 206 180.86 206.864 183.236 206.864C185.612 206.864 187.214 206 187.214 204.632C187.214 203.282 185.612 202.4 183.236 202.4C180.86 202.4 179.276 203.282 179.276 204.632ZM194.072 213.542L193.01 217.142H191.894L192.488 213.542H194.072ZM202.816 201.536H213.508V202.922C213.508 204.416 213.508 206.054 213.058 208.34H215.362V209.636H208.954V216.386H207.37V209.636H201.034V208.34H211.474C211.96 206.09 211.96 204.398 211.96 202.922V202.796H202.816V201.536ZM228.736 200.51H230.23V216.35H228.736V208.034H226.702V215.558H225.244V200.852H226.702V206.756H228.736V200.51ZM217.324 212.138V202.31H223.372V212.138H217.324ZM218.782 210.914H221.932V203.552H218.782V210.914ZM233.398 201.464H240.94V202.724H234.946V204.578H240.508V205.82H234.946V207.782C238.168 207.782 240.04 207.71 242.2 207.35L242.362 208.574C240.076 208.97 238.132 209.024 234.694 209.024H233.398V201.464ZM235.234 216.152V210.734H245.494V216.152H235.234ZM236.746 214.892H243.964V211.976H236.746V214.892ZM243.928 209.96V200.528H245.494V209.96H243.928ZM248.609 201.662H257.105V202.94H253.649V203.462C253.649 205.496 255.089 207.35 257.447 208.124L256.709 209.33C254.909 208.736 253.595 207.53 252.911 205.982C252.227 207.764 250.823 209.168 248.933 209.834L248.159 208.592C250.571 207.764 252.101 205.712 252.101 203.462V202.94H248.609V201.662ZM250.265 213.38C250.265 211.526 252.263 210.464 255.485 210.464C258.725 210.464 260.705 211.526 260.705 213.38C260.705 215.252 258.725 216.332 255.485 216.332C252.263 216.332 250.265 215.252 250.265 213.38ZM251.795 213.38C251.795 214.478 253.181 215.108 255.485 215.108C257.789 215.108 259.175 214.478 259.175 213.38C259.175 212.3 257.789 211.688 255.485 211.688C253.181 211.688 251.795 212.3 251.795 213.38ZM258.977 210.05V200.528H260.543V204.506H262.865V205.784H260.543V210.05H258.977ZM268.112 213.11H274.466V209.618H269.408V208.358H271.766V203.264H269.354V202.004H281.144V203.264H278.732V208.358H281.126V209.618H276.014V213.11H282.458V214.406H268.112V213.11ZM273.332 208.358H277.184V203.264H273.332V208.358ZM294.59 200.528H296.156V204.686H298.478V205.964H296.156V210.05H294.59V200.528ZM283.88 203.408V202.166H287.786V200.384H289.334V202.166H293.24V203.408H283.88ZM284.762 206.99C284.762 205.28 286.292 204.146 288.56 204.146C290.828 204.146 292.358 205.28 292.358 206.99C292.358 208.7 290.828 209.816 288.56 209.816C286.292 209.816 284.762 208.7 284.762 206.99ZM286.166 216.152V210.914H296.156V216.152H286.166ZM286.238 206.99C286.238 207.998 287.174 208.628 288.56 208.628C289.928 208.628 290.864 207.998 290.864 206.99C290.864 205.964 289.928 205.334 288.56 205.334C287.174 205.334 286.238 205.964 286.238 206.99ZM287.696 214.892H294.626V212.174H287.696V214.892Z" fill="#3F3F46"/>
</g>
<defs>
<filter id="filter0_d_4103_3144" x="0.657534" y="91.9932" width="578.685" height="177.685" filterUnits="userSpaceOnUse" color-interpolation-filters="sRGB">
<feFlood flood-opacity="0" result="BackgroundImageFix"/>
<feColorMatrix in="SourceAlpha" type="matrix" values="0 0 0 0 0 0 0 0 0 0 0 0 0 0 0 0 0 0 127 0" result="hardAlpha"/>
<feOffset dy="1.33562"/>
<feGaussianBlur stdDeviation="2.67123"/>
<feComposite in2="hardAlpha" operator="out"/>
<feColorMatrix type="matrix" values="0 0 0 0 0 0 0 0 0 0 0 0 0 0 0 0 0 0 0.1 0"/>
<feBlend mode="normal" in2="BackgroundImageFix" result="effect1_dropShadow_4103_3144"/>
<feBlend mode="normal" in="SourceGraphic" in2="effect1_dropShadow_4103_3144" result="shape"/>
</filter>
</defs>
</svg>
