<svg width="697" height="260" viewBox="0 0 697 260" fill="none" xmlns="http://www.w3.org/2000/svg">
<path d="M0 260H697V3H0V260Z" fill="white"/>
<mask id="path-2-inside-1_4155_2522" fill="white">
<path d="M101.602 14.2C101.602 8.01441 106.616 3 112.802 3H646.402C652.587 3 657.602 8.01441 657.602 14.2V199H101.602V14.2Z"/>
</mask>
<path d="M101.602 14.2C101.602 8.01441 106.616 3 112.802 3H646.402C652.587 3 657.602 8.01441 657.602 14.2V199H101.602V14.2Z" fill="url(#paint0_linear_4155_2522)"/>
<path d="M101.602 3H657.602H101.602ZM657.602 199.7H101.602V198.3H657.602V199.7ZM101.602 199V3V199ZM657.602 3V199V3Z" fill="#71717A" mask="url(#path-2-inside-1_4155_2522)"/>
<rect x="173.102" y="183.5" width="32.2" height="15.4" rx="2.8" fill="url(#paint1_linear_4155_2522)"/>
<rect x="173.102" y="194.703" width="32.2" height="4.2" fill="#27272A"/>
<path d="M139.739 218.594C141.374 217.026 143.603 215.435 143.603 214.058C143.603 213.139 143.02 212.49 142.191 212.49C141.553 212.49 140.915 212.949 140.623 213.61L139.582 213.15C140.03 212.12 141.116 211.403 142.191 211.403C143.726 211.403 144.79 212.501 144.79 214.058C144.79 215.771 142.931 217.294 141.419 218.594H144.924V219.635H139.851L139.739 218.594ZM149.081 218.661C150.201 218.661 150.952 217.406 150.952 215.558C150.952 213.699 150.201 212.445 149.081 212.445C147.961 212.445 147.2 213.699 147.2 215.558C147.2 217.406 147.961 218.661 149.081 218.661ZM146.013 215.558C146.013 213.117 147.278 211.403 149.081 211.403C150.873 211.403 152.139 213.117 152.139 215.558C152.139 217.989 150.873 219.714 149.081 219.714C147.278 219.714 146.013 217.989 146.013 215.558ZM153.4 218.594C155.035 217.026 157.264 215.435 157.264 214.058C157.264 213.139 156.681 212.49 155.852 212.49C155.214 212.49 154.576 212.949 154.284 213.61L153.243 213.15C153.691 212.12 154.777 211.403 155.852 211.403C157.387 211.403 158.451 212.501 158.451 214.058C158.451 215.771 156.592 217.294 155.08 218.594H158.585V219.635H153.512L153.4 218.594ZM159.853 218.594C161.488 217.026 163.717 215.435 163.717 214.058C163.717 213.139 163.134 212.49 162.306 212.49C161.667 212.49 161.029 212.949 160.738 213.61L159.696 213.15C160.144 212.12 161.23 211.403 162.306 211.403C163.84 211.403 164.904 212.501 164.904 214.058C164.904 215.771 163.045 217.294 161.533 218.594H165.038V219.635H159.965L159.853 218.594ZM166.754 215.558C166.754 214.102 167.325 212.187 168.131 210.91H169.386C168.467 212.176 167.829 214.091 167.829 215.558C167.829 217.026 168.467 218.941 169.386 220.206H168.131C167.325 218.93 166.754 217.014 166.754 215.558ZM173.668 218.728C174.53 218.728 175.09 218.056 175.09 217.037C175.09 216.018 174.53 215.346 173.668 215.346C172.861 215.346 172.2 216.096 172.2 217.037C172.2 217.978 172.861 218.728 173.668 218.728ZM171.002 222.066V214.349H172.189V215.133C172.615 214.573 173.32 214.349 173.735 214.349C175.224 214.349 176.277 215.458 176.277 217.037C176.277 218.627 175.224 219.736 173.735 219.736C173.309 219.736 172.615 219.501 172.189 218.941V222.066H171.002ZM179.882 219.725C178.37 219.725 177.306 218.616 177.306 217.048C177.306 215.469 178.37 214.36 179.882 214.36C181.54 214.36 182.066 215.715 182.1 215.805C182.425 216.566 182.324 217.418 182.324 217.507H178.471C178.606 218.224 179.21 218.717 179.882 218.717C180.767 218.717 181.126 218.202 181.215 218.045L182.167 218.47C181.91 219.075 181.159 219.725 179.882 219.725ZM178.471 216.566H181.204C181.092 215.906 180.711 215.368 179.882 215.368C179.166 215.368 178.606 215.872 178.471 216.566ZM183.533 219.702V214.36H184.721V215.144C185.079 214.64 185.729 214.304 186.356 214.338V215.435C185.404 215.39 184.721 216.23 184.721 217.048V219.702H183.533ZM189.406 219.702H188.219V215.39H187.278V214.338H188.219V213.218C188.219 212.232 188.902 211.482 189.888 211.414C190.347 211.381 190.918 211.56 191.187 211.829L190.582 212.702C190.336 212.49 190.179 212.445 189.989 212.467C189.641 212.501 189.406 212.792 189.406 213.218V214.338H190.907V215.39H189.406V219.702ZM194.167 218.728C194.996 218.728 195.556 218.067 195.556 217.048C195.556 216.04 194.996 215.368 194.167 215.368C193.338 215.368 192.778 216.029 192.778 217.048C192.778 218.067 193.327 218.728 194.167 218.728ZM191.591 217.048C191.591 215.469 192.655 214.349 194.167 214.349C195.679 214.349 196.743 215.469 196.743 217.048C196.743 218.616 195.679 219.747 194.167 219.747C192.655 219.747 191.591 218.616 191.591 217.048ZM197.894 219.702V214.36H199.082V215.144C199.44 214.64 200.09 214.304 200.717 214.338V215.435C199.765 215.39 199.082 216.23 199.082 217.048V219.702H197.894ZM208.774 216.667C208.774 215.906 208.359 215.402 207.754 215.402C207.071 215.402 206.612 215.928 206.612 216.611V219.702H205.414V216.667C205.414 215.906 205.01 215.402 204.417 215.402C203.734 215.402 203.252 215.984 203.252 216.734V219.702H202.065V214.36H203.252V215.088C203.566 214.662 204.025 214.371 204.529 214.371C205.167 214.371 205.794 214.774 206.108 215.334C206.478 214.774 207.194 214.371 207.833 214.371C209.098 214.371 209.972 215.312 209.972 216.622V219.702H208.774V216.667ZM213.809 219.747C212.331 219.747 211.278 218.627 211.278 217.059C211.278 215.491 212.331 214.371 213.809 214.371C214.336 214.371 214.918 214.618 215.344 215.122V214.36H216.531V219.702H215.344V218.986C214.918 219.523 214.336 219.747 213.809 219.747ZM212.465 217.059C212.465 218.067 213.037 218.739 213.888 218.739C214.672 218.739 215.344 218.034 215.355 217.059C215.344 216.085 214.672 215.379 213.888 215.379C213.037 215.379 212.465 216.04 212.465 217.059ZM221.628 216.757C221.628 215.906 221.191 215.39 220.452 215.39C219.724 215.402 219.164 215.973 219.175 216.757V219.702H217.988V214.36H219.175V215.088C219.511 214.674 220.082 214.371 220.598 214.371C221.606 214.371 222.815 215.032 222.815 216.712V219.702H221.628V216.757ZM226.451 218.605C226.865 218.605 227.347 218.392 227.649 218.056L228.467 218.874C228.008 219.378 227.168 219.736 226.496 219.736C224.905 219.736 223.785 218.616 223.785 217.048C223.785 215.469 224.905 214.349 226.496 214.349C227.201 214.349 227.985 214.707 228.467 215.222L227.649 216.029C227.347 215.693 226.865 215.48 226.451 215.48C225.566 215.48 224.972 216.096 224.972 217.048C224.972 217.989 225.566 218.605 226.451 218.605ZM231.748 219.725C230.236 219.725 229.172 218.616 229.172 217.048C229.172 215.469 230.236 214.36 231.748 214.36C233.406 214.36 233.932 215.715 233.966 215.805C234.29 216.566 234.19 217.418 234.19 217.507H230.337C230.471 218.224 231.076 218.717 231.748 218.717C232.633 218.717 232.991 218.202 233.081 218.045L234.033 218.47C233.775 219.075 233.025 219.725 231.748 219.725ZM230.337 216.566H233.07C232.958 215.906 232.577 215.368 231.748 215.368C231.031 215.368 230.471 215.872 230.337 216.566ZM238.205 215.558C238.205 217.014 237.645 218.918 236.839 220.206H235.584C236.491 218.952 237.13 217.026 237.13 215.558C237.13 214.091 236.491 212.165 235.584 210.91H236.839C237.645 212.198 238.205 214.102 238.205 215.558Z" fill="#3F3F46"/>
<rect x="268.297" y="166.695" width="32.2" height="32.2" rx="2.8" fill="url(#paint2_linear_4155_2522)"/>
<rect x="268.297" y="193.297" width="32.2" height="5.6" fill="#27272A"/>
<path d="M271.689 218.586C271.846 218.429 272.044 218.246 272.283 218.037C272.522 217.828 272.705 217.664 272.832 217.544C273.437 217.007 273.918 216.562 274.277 216.211C274.635 215.853 274.937 215.487 275.184 215.114C275.43 214.74 275.553 214.386 275.553 214.05C275.553 213.587 275.419 213.21 275.15 212.919C274.889 212.627 274.553 212.482 274.142 212.482C273.821 212.482 273.515 212.586 273.224 212.795C272.94 213.004 272.724 213.273 272.574 213.602L271.533 213.143C271.757 212.627 272.111 212.209 272.597 211.888C273.089 211.56 273.605 211.395 274.142 211.395C274.65 211.395 275.098 211.507 275.486 211.731C275.882 211.955 276.188 212.269 276.405 212.672C276.629 213.075 276.741 213.535 276.741 214.05C276.741 214.557 276.588 215.061 276.281 215.562C275.983 216.062 275.621 216.521 275.195 216.939C274.769 217.357 274.221 217.854 273.549 218.429L273.369 218.586H276.875V219.627H271.801L271.689 218.586ZM281.032 218.653C281.398 218.653 281.723 218.522 282.007 218.261C282.29 218 282.511 217.637 282.667 217.175C282.824 216.704 282.903 216.163 282.903 215.551C282.903 214.938 282.824 214.397 282.667 213.927C282.511 213.456 282.29 213.09 282.007 212.829C281.723 212.568 281.398 212.437 281.032 212.437C280.666 212.437 280.338 212.568 280.047 212.829C279.763 213.09 279.543 213.456 279.386 213.927C279.229 214.397 279.151 214.938 279.151 215.551C279.151 216.163 279.229 216.704 279.386 217.175C279.543 217.637 279.763 218 280.047 218.261C280.338 218.522 280.666 218.653 281.032 218.653ZM277.963 215.551C277.963 214.744 278.094 214.027 278.355 213.4C278.617 212.765 278.979 212.273 279.442 211.922C279.905 211.571 280.435 211.395 281.032 211.395C281.622 211.395 282.148 211.571 282.611 211.922C283.074 212.273 283.436 212.765 283.698 213.4C283.959 214.027 284.09 214.744 284.09 215.551C284.09 216.349 283.959 217.066 283.698 217.701C283.436 218.328 283.074 218.821 282.611 219.179C282.148 219.53 281.622 219.706 281.032 219.706C280.442 219.706 279.912 219.53 279.442 219.179C278.979 218.821 278.617 218.328 278.355 217.701C278.094 217.066 277.963 216.349 277.963 215.551ZM285.35 218.586C285.507 218.429 285.705 218.246 285.944 218.037C286.183 217.828 286.366 217.664 286.493 217.544C287.098 217.007 287.579 216.562 287.938 216.211C288.296 215.853 288.598 215.487 288.845 215.114C289.091 214.74 289.214 214.386 289.214 214.05C289.214 213.587 289.08 213.21 288.811 212.919C288.55 212.627 288.214 212.482 287.803 212.482C287.482 212.482 287.176 212.586 286.885 212.795C286.601 213.004 286.385 213.273 286.235 213.602L285.194 213.143C285.418 212.627 285.772 212.209 286.258 211.888C286.75 211.56 287.266 211.395 287.803 211.395C288.311 211.395 288.759 211.507 289.147 211.731C289.543 211.955 289.849 212.269 290.066 212.672C290.29 213.075 290.402 213.535 290.402 214.05C290.402 214.557 290.249 215.061 289.942 215.562C289.644 216.062 289.282 216.521 288.856 216.939C288.43 217.357 287.882 217.854 287.21 218.429L287.03 218.586H290.536V219.627H285.462L285.35 218.586ZM291.96 215.831L292.24 211.474H296.597V212.515H293.383L293.248 214.509C293.644 214.33 294.029 214.24 294.402 214.24C294.954 214.24 295.447 214.356 295.88 214.587C296.321 214.819 296.661 215.144 296.9 215.562C297.146 215.972 297.269 216.443 297.269 216.973C297.269 217.511 297.146 217.988 296.9 218.407C296.661 218.825 296.321 219.153 295.88 219.392C295.447 219.624 294.954 219.739 294.402 219.739C293.969 219.739 293.558 219.65 293.17 219.471C292.789 219.284 292.464 219.03 292.196 218.709C291.927 218.38 291.744 218.011 291.647 217.6L292.8 217.331C292.882 217.705 293.073 218.015 293.372 218.261C293.67 218.5 294.014 218.619 294.402 218.619C294.895 218.619 295.298 218.466 295.612 218.16C295.925 217.854 296.082 217.458 296.082 216.973C296.082 216.503 295.925 216.118 295.612 215.819C295.298 215.513 294.895 215.36 294.402 215.36C294.193 215.36 293.973 215.42 293.741 215.539C293.51 215.651 293.312 215.797 293.148 215.976L291.96 215.831Z" fill="#3F3F46"/>
<rect x="363.5" y="141.5" width="32.2" height="57.4" rx="2.8" fill="url(#paint3_linear_4155_2522)"/>
<rect x="363.5" y="191.898" width="32.2" height="7" fill="#27272A"/>
<path d="M366.575 218.594C366.732 218.437 366.93 218.254 367.169 218.045C367.408 217.836 367.591 217.671 367.718 217.552C368.323 217.014 368.804 216.57 369.163 216.219C369.521 215.861 369.823 215.495 370.07 215.122C370.316 214.748 370.439 214.394 370.439 214.058C370.439 213.595 370.305 213.218 370.036 212.926C369.775 212.635 369.439 212.49 369.028 212.49C368.707 212.49 368.401 212.594 368.11 212.803C367.826 213.012 367.61 213.281 367.46 213.61L366.419 213.15C366.643 212.635 366.997 212.217 367.483 211.896C367.975 211.567 368.491 211.403 369.028 211.403C369.536 211.403 369.984 211.515 370.372 211.739C370.768 211.963 371.074 212.277 371.291 212.68C371.515 213.083 371.627 213.542 371.627 214.058C371.627 214.565 371.474 215.069 371.167 215.57C370.869 216.07 370.507 216.529 370.081 216.947C369.655 217.365 369.107 217.862 368.435 218.437L368.255 218.594H371.761V219.635H366.687L366.575 218.594ZM375.918 218.661C376.284 218.661 376.609 218.53 376.893 218.269C377.176 218.007 377.397 217.645 377.553 217.182C377.71 216.712 377.789 216.171 377.789 215.558C377.789 214.946 377.71 214.405 377.553 213.934C377.397 213.464 377.176 213.098 376.893 212.837C376.609 212.575 376.284 212.445 375.918 212.445C375.552 212.445 375.224 212.575 374.933 212.837C374.649 213.098 374.429 213.464 374.272 213.934C374.115 214.405 374.037 214.946 374.037 215.558C374.037 216.171 374.115 216.712 374.272 217.182C374.429 217.645 374.649 218.007 374.933 218.269C375.224 218.53 375.552 218.661 375.918 218.661ZM372.849 215.558C372.849 214.752 372.98 214.035 373.241 213.408C373.503 212.773 373.865 212.28 374.328 211.93C374.791 211.579 375.321 211.403 375.918 211.403C376.508 211.403 377.034 211.579 377.497 211.93C377.96 212.28 378.322 212.773 378.584 213.408C378.845 214.035 378.976 214.752 378.976 215.558C378.976 216.357 378.845 217.074 378.584 217.709C378.322 218.336 377.96 218.829 377.497 219.187C377.034 219.538 376.508 219.714 375.918 219.714C375.328 219.714 374.798 219.538 374.328 219.187C373.865 218.829 373.503 218.336 373.241 217.709C372.98 217.074 372.849 216.357 372.849 215.558ZM384.403 215.424C384.761 215.633 385.049 215.917 385.265 216.275C385.482 216.626 385.59 216.977 385.59 217.328C385.59 217.783 385.47 218.194 385.232 218.56C385 218.918 384.675 219.198 384.257 219.4C383.839 219.602 383.361 219.702 382.824 219.702C382.293 219.702 381.819 219.598 381.401 219.389C380.983 219.18 380.654 218.892 380.416 218.526C380.184 218.153 380.068 217.731 380.068 217.261H381.256C381.256 217.671 381.401 218.007 381.692 218.269C381.984 218.523 382.361 218.65 382.824 218.65C383.294 218.65 383.678 218.523 383.977 218.269C384.283 218.007 384.436 217.671 384.436 217.261C384.436 216.865 384.287 216.544 383.988 216.298C383.69 216.044 383.309 215.917 382.846 215.917H382.264V214.92H382.857C383.283 214.92 383.63 214.808 383.899 214.584C384.175 214.352 384.313 214.058 384.313 213.699C384.313 213.333 384.182 213.038 383.921 212.814C383.66 212.583 383.32 212.467 382.902 212.467C382.491 212.467 382.155 212.583 381.894 212.814C381.633 213.046 381.502 213.344 381.502 213.71H380.315C380.315 213.262 380.423 212.867 380.64 212.523C380.864 212.172 381.17 211.9 381.558 211.706C381.954 211.511 382.402 211.414 382.902 211.414C383.395 211.414 383.835 211.511 384.224 211.706C384.612 211.892 384.914 212.154 385.131 212.49C385.355 212.826 385.467 213.206 385.467 213.632C385.467 213.953 385.37 214.282 385.176 214.618C384.981 214.946 384.724 215.215 384.403 215.424ZM389.743 218.661C390.109 218.661 390.434 218.53 390.718 218.269C391.001 218.007 391.222 217.645 391.378 217.182C391.535 216.712 391.614 216.171 391.614 215.558C391.614 214.946 391.535 214.405 391.378 213.934C391.222 213.464 391.001 213.098 390.718 212.837C390.434 212.575 390.109 212.445 389.743 212.445C389.377 212.445 389.049 212.575 388.758 212.837C388.474 213.098 388.254 213.464 388.097 213.934C387.94 214.405 387.862 214.946 387.862 215.558C387.862 216.171 387.94 216.712 388.097 217.182C388.254 217.645 388.474 218.007 388.758 218.269C389.049 218.53 389.377 218.661 389.743 218.661ZM386.674 215.558C386.674 214.752 386.805 214.035 387.066 213.408C387.328 212.773 387.69 212.28 388.153 211.93C388.616 211.579 389.146 211.403 389.743 211.403C390.333 211.403 390.859 211.579 391.322 211.93C391.785 212.28 392.147 212.773 392.409 213.408C392.67 214.035 392.801 214.752 392.801 215.558C392.801 216.357 392.67 217.074 392.409 217.709C392.147 218.336 391.785 218.829 391.322 219.187C390.859 219.538 390.333 219.714 389.743 219.714C389.153 219.714 388.623 219.538 388.153 219.187C387.69 218.829 387.328 218.336 387.066 217.709C386.805 217.074 386.674 216.357 386.674 215.558Z" fill="#3F3F46"/>
<rect x="458.695" y="98.1016" width="32.2" height="100.8" rx="2.8" fill="url(#paint4_linear_4155_2522)"/>
<rect x="458.695" y="193.305" width="32.2" height="5.6" fill="#27272A"/>
<path d="M462.006 218.594C462.163 218.437 462.361 218.254 462.599 218.045C462.838 217.836 463.021 217.671 463.148 217.552C463.753 217.014 464.235 216.57 464.593 216.219C464.951 215.861 465.254 215.495 465.5 215.122C465.747 214.748 465.87 214.394 465.87 214.058C465.87 213.595 465.735 213.218 465.467 212.926C465.205 212.635 464.869 212.49 464.459 212.49C464.138 212.49 463.831 212.594 463.54 212.803C463.257 213.012 463.04 213.281 462.891 213.61L461.849 213.15C462.073 212.635 462.428 212.217 462.913 211.896C463.406 211.567 463.921 211.403 464.459 211.403C464.966 211.403 465.414 211.515 465.803 211.739C466.198 211.963 466.505 212.277 466.721 212.68C466.945 213.083 467.057 213.542 467.057 214.058C467.057 214.565 466.904 215.069 466.598 215.57C466.299 216.07 465.937 216.529 465.511 216.947C465.086 217.365 464.537 217.862 463.865 218.437L463.686 218.594H467.191V219.635H462.118L462.006 218.594ZM471.349 218.661C471.714 218.661 472.039 218.53 472.323 218.269C472.607 218.007 472.827 217.645 472.984 217.182C473.141 216.712 473.219 216.171 473.219 215.558C473.219 214.946 473.141 214.405 472.984 213.934C472.827 213.464 472.607 213.098 472.323 212.837C472.039 212.575 471.714 212.445 471.349 212.445C470.983 212.445 470.654 212.575 470.363 212.837C470.079 213.098 469.859 213.464 469.702 213.934C469.545 214.405 469.467 214.946 469.467 215.558C469.467 216.171 469.545 216.712 469.702 217.182C469.859 217.645 470.079 218.007 470.363 218.269C470.654 218.53 470.983 218.661 471.349 218.661ZM468.28 215.558C468.28 214.752 468.41 214.035 468.672 213.408C468.933 212.773 469.295 212.28 469.758 211.93C470.221 211.579 470.751 211.403 471.349 211.403C471.938 211.403 472.465 211.579 472.928 211.93C473.391 212.28 473.753 212.773 474.014 213.408C474.276 214.035 474.406 214.752 474.406 215.558C474.406 216.357 474.276 217.074 474.014 217.709C473.753 218.336 473.391 218.829 472.928 219.187C472.465 219.538 471.938 219.714 471.349 219.714C470.759 219.714 470.229 219.538 469.758 219.187C469.295 218.829 468.933 218.336 468.672 217.709C468.41 217.074 468.28 216.357 468.28 215.558ZM479.833 215.424C480.192 215.633 480.479 215.917 480.696 216.275C480.912 216.626 481.02 216.977 481.02 217.328C481.02 217.783 480.901 218.194 480.662 218.56C480.431 218.918 480.106 219.198 479.688 219.4C479.269 219.602 478.792 219.702 478.254 219.702C477.724 219.702 477.25 219.598 476.832 219.389C476.413 219.18 476.085 218.892 475.846 218.526C475.615 218.153 475.499 217.731 475.499 217.261H476.686C476.686 217.671 476.832 218.007 477.123 218.269C477.414 218.523 477.791 218.65 478.254 218.65C478.724 218.65 479.109 218.523 479.408 218.269C479.714 218.007 479.867 217.671 479.867 217.261C479.867 216.865 479.717 216.544 479.419 216.298C479.12 216.044 478.739 215.917 478.276 215.917H477.694V214.92H478.288C478.713 214.92 479.06 214.808 479.329 214.584C479.605 214.352 479.744 214.058 479.744 213.699C479.744 213.333 479.613 213.038 479.352 212.814C479.09 212.583 478.751 212.467 478.332 212.467C477.922 212.467 477.586 212.583 477.324 212.814C477.063 213.046 476.932 213.344 476.932 213.71H475.745C475.745 213.262 475.853 212.867 476.07 212.523C476.294 212.172 476.6 211.9 476.988 211.706C477.384 211.511 477.832 211.414 478.332 211.414C478.825 211.414 479.266 211.511 479.654 211.706C480.042 211.892 480.345 212.154 480.561 212.49C480.785 212.826 480.897 213.206 480.897 213.632C480.897 213.953 480.8 214.282 480.606 214.618C480.412 214.946 480.154 215.215 479.833 215.424ZM482.441 215.838L482.721 211.482H487.078V212.523H483.863L483.729 214.517C484.125 214.338 484.509 214.248 484.882 214.248C485.435 214.248 485.928 214.364 486.361 214.595C486.801 214.827 487.141 215.151 487.38 215.57C487.626 215.98 487.75 216.451 487.75 216.981C487.75 217.518 487.626 217.996 487.38 218.414C487.141 218.832 486.801 219.161 486.361 219.4C485.928 219.631 485.435 219.747 484.882 219.747C484.449 219.747 484.039 219.658 483.65 219.478C483.27 219.292 482.945 219.038 482.676 218.717C482.407 218.388 482.224 218.019 482.127 217.608L483.281 217.339C483.363 217.712 483.553 218.022 483.852 218.269C484.151 218.508 484.494 218.627 484.882 218.627C485.375 218.627 485.778 218.474 486.092 218.168C486.406 217.862 486.562 217.466 486.562 216.981C486.562 216.51 486.406 216.126 486.092 215.827C485.778 215.521 485.375 215.368 484.882 215.368C484.673 215.368 484.453 215.428 484.222 215.547C483.99 215.659 483.792 215.805 483.628 215.984L482.441 215.838Z" fill="#3F3F46"/>
<rect x="553.898" y="58.8984" width="32.2" height="140" rx="2.8" fill="url(#paint5_linear_4155_2522)"/>
<rect x="553.898" y="193.297" width="32.2" height="5.6" fill="#27272A"/>
<path d="M556.815 218.594C556.972 218.437 557.17 218.254 557.409 218.045C557.648 217.836 557.831 217.671 557.958 217.552C558.562 217.014 559.044 216.57 559.402 216.219C559.761 215.861 560.063 215.495 560.31 215.122C560.556 214.748 560.679 214.394 560.679 214.058C560.679 213.595 560.545 213.218 560.276 212.926C560.015 212.635 559.679 212.49 559.268 212.49C558.947 212.49 558.641 212.594 558.35 212.803C558.066 213.012 557.849 213.281 557.7 213.61L556.658 213.15C556.882 212.635 557.237 212.217 557.722 211.896C558.215 211.567 558.73 211.403 559.268 211.403C559.776 211.403 560.224 211.515 560.612 211.739C561.008 211.963 561.314 212.277 561.53 212.68C561.754 213.083 561.866 213.542 561.866 214.058C561.866 214.565 561.713 215.069 561.407 215.57C561.109 216.07 560.746 216.529 560.321 216.947C559.895 217.365 559.346 217.862 558.674 218.437L558.495 218.594H562.001V219.635H556.927L556.815 218.594ZM566.158 218.661C566.524 218.661 566.849 218.53 567.132 218.269C567.416 218.007 567.636 217.645 567.793 217.182C567.95 216.712 568.028 216.171 568.028 215.558C568.028 214.946 567.95 214.405 567.793 213.934C567.636 213.464 567.416 213.098 567.132 212.837C566.849 212.575 566.524 212.445 566.158 212.445C565.792 212.445 565.464 212.575 565.172 212.837C564.889 213.098 564.668 213.464 564.512 213.934C564.355 214.405 564.276 214.946 564.276 215.558C564.276 216.171 564.355 216.712 564.512 217.182C564.668 217.645 564.889 218.007 565.172 218.269C565.464 218.53 565.792 218.661 566.158 218.661ZM563.089 215.558C563.089 214.752 563.22 214.035 563.481 213.408C563.742 212.773 564.105 212.28 564.568 211.93C565.03 211.579 565.561 211.403 566.158 211.403C566.748 211.403 567.274 211.579 567.737 211.93C568.2 212.28 568.562 212.773 568.824 213.408C569.085 214.035 569.216 214.752 569.216 215.558C569.216 216.357 569.085 217.074 568.824 217.709C568.562 218.336 568.2 218.829 567.737 219.187C567.274 219.538 566.748 219.714 566.158 219.714C565.568 219.714 565.038 219.538 564.568 219.187C564.105 218.829 563.742 218.336 563.481 217.709C563.22 217.074 563.089 216.357 563.089 215.558ZM575.113 216.499H576.143V217.53H575.113V219.635H573.926V217.53H570.42L570.308 216.499L573.982 211.482H575.113V216.499ZM573.926 216.499V213.464L571.719 216.499H573.926ZM580.3 218.661C580.666 218.661 580.991 218.53 581.275 218.269C581.558 218.007 581.779 217.645 581.935 217.182C582.092 216.712 582.171 216.171 582.171 215.558C582.171 214.946 582.092 214.405 581.935 213.934C581.779 213.464 581.558 213.098 581.275 212.837C580.991 212.575 580.666 212.445 580.3 212.445C579.934 212.445 579.606 212.575 579.315 212.837C579.031 213.098 578.811 213.464 578.654 213.934C578.497 214.405 578.419 214.946 578.419 215.558C578.419 216.171 578.497 216.712 578.654 217.182C578.811 217.645 579.031 218.007 579.315 218.269C579.606 218.53 579.934 218.661 580.3 218.661ZM577.231 215.558C577.231 214.752 577.362 214.035 577.623 213.408C577.885 212.773 578.247 212.28 578.71 211.93C579.173 211.579 579.703 211.403 580.3 211.403C580.89 211.403 581.416 211.579 581.879 211.93C582.342 212.28 582.704 212.773 582.966 213.408C583.227 214.035 583.358 214.752 583.358 215.558C583.358 216.357 583.227 217.074 582.966 217.709C582.704 218.336 582.342 218.829 581.879 219.187C581.416 219.538 580.89 219.714 580.3 219.714C579.71 219.714 579.18 219.538 578.71 219.187C578.247 218.829 577.885 218.336 577.623 217.709C577.362 217.074 577.231 216.357 577.231 215.558Z" fill="#3F3F46"/>
<g filter="url(#filter0_d_4155_2522)">
<rect x="159.602" y="136" width="60" height="37" rx="18.5" fill="white" shape-rendering="crispEdges"/>
<path d="M178.254 161.054L176.346 161.036V150.002L174.042 151.28L173.25 149.678L176.364 147.968H178.254V161.054ZM185.814 159.488C186.402 159.488 186.924 159.278 187.38 158.858C187.836 158.438 188.19 157.856 188.442 157.112C188.694 156.356 188.82 155.486 188.82 154.502C188.82 153.518 188.694 152.648 188.442 151.892C188.19 151.136 187.836 150.548 187.38 150.128C186.924 149.708 186.402 149.498 185.814 149.498C185.226 149.498 184.698 149.708 184.23 150.128C183.774 150.548 183.42 151.136 183.168 151.892C182.916 152.648 182.79 153.518 182.79 154.502C182.79 155.486 182.916 156.356 183.168 157.112C183.42 157.856 183.774 158.438 184.23 158.858C184.698 159.278 185.226 159.488 185.814 159.488ZM180.882 154.502C180.882 153.206 181.092 152.054 181.512 151.046C181.932 150.026 182.514 149.234 183.258 148.67C184.002 148.106 184.854 147.824 185.814 147.824C186.762 147.824 187.608 148.106 188.352 148.67C189.096 149.234 189.678 150.026 190.098 151.046C190.518 152.054 190.728 153.206 190.728 154.502C190.728 155.786 190.518 156.938 190.098 157.958C189.678 158.966 189.096 159.758 188.352 160.334C187.608 160.898 186.762 161.18 185.814 161.18C184.866 161.18 184.014 160.898 183.258 160.334C182.514 159.758 181.932 158.966 181.512 157.958C181.092 156.938 180.882 155.786 180.882 154.502Z" fill="#009B46"/>
<path d="M202.832 149.35H204.106L197.722 159.514H196.476L202.832 149.35ZM194.152 151.954C194.152 151.441 194.268 150.974 194.502 150.554C194.744 150.134 195.071 149.803 195.482 149.56C195.892 149.308 196.345 149.182 196.84 149.182C197.334 149.182 197.782 149.308 198.184 149.56C198.594 149.803 198.916 150.134 199.15 150.554C199.392 150.974 199.514 151.441 199.514 151.954C199.514 152.458 199.392 152.925 199.15 153.354C198.916 153.774 198.594 154.105 198.184 154.348C197.782 154.591 197.334 154.712 196.84 154.712C196.345 154.712 195.892 154.591 195.482 154.348C195.071 154.105 194.744 153.774 194.502 153.354C194.268 152.925 194.152 152.458 194.152 151.954ZM195.3 151.954C195.3 152.402 195.449 152.785 195.748 153.102C196.046 153.419 196.41 153.578 196.84 153.578C197.269 153.578 197.633 153.419 197.932 153.102C198.23 152.785 198.38 152.402 198.38 151.954C198.38 151.497 198.23 151.114 197.932 150.806C197.633 150.489 197.269 150.33 196.84 150.33C196.41 150.33 196.046 150.489 195.748 150.806C195.449 151.114 195.3 151.497 195.3 151.954ZM200.942 156.854C200.942 156.35 201.058 155.888 201.292 155.468C201.534 155.039 201.861 154.703 202.272 154.46C202.682 154.217 203.135 154.096 203.63 154.096C204.124 154.096 204.572 154.217 204.974 154.46C205.384 154.703 205.706 155.039 205.94 155.468C206.182 155.888 206.304 156.35 206.304 156.854C206.304 157.367 206.182 157.834 205.94 158.254C205.706 158.674 205.384 159.01 204.974 159.262C204.572 159.505 204.124 159.626 203.63 159.626C203.135 159.626 202.682 159.505 202.272 159.262C201.861 159.01 201.534 158.674 201.292 158.254C201.058 157.834 200.942 157.367 200.942 156.854ZM202.09 156.854C202.09 157.311 202.239 157.699 202.538 158.016C202.836 158.333 203.2 158.492 203.63 158.492C204.059 158.492 204.423 158.333 204.722 158.016C205.02 157.699 205.17 157.311 205.17 156.854C205.17 156.406 205.02 156.023 204.722 155.706C204.423 155.389 204.059 155.23 203.63 155.23C203.2 155.23 202.836 155.389 202.538 155.706C202.239 156.023 202.09 156.406 202.09 156.854Z" fill="#009B46"/>
</g>
<g filter="url(#filter1_d_4155_2522)">
<rect x="253" y="119" width="62" height="37" rx="18.5" fill="white" shape-rendering="crispEdges"/>
<path d="M267.146 142.38C267.398 142.128 267.716 141.834 268.1 141.498C268.484 141.162 268.778 140.898 268.982 140.706C269.954 139.842 270.728 139.128 271.304 138.564C271.88 137.988 272.366 137.4 272.762 136.8C273.158 136.2 273.356 135.63 273.356 135.09C273.356 134.346 273.14 133.74 272.708 133.272C272.288 132.804 271.748 132.57 271.088 132.57C270.572 132.57 270.08 132.738 269.612 133.074C269.156 133.41 268.808 133.842 268.568 134.37L266.894 133.632C267.254 132.804 267.824 132.132 268.604 131.616C269.396 131.088 270.224 130.824 271.088 130.824C271.904 130.824 272.624 131.004 273.248 131.364C273.884 131.724 274.376 132.228 274.724 132.876C275.084 133.524 275.264 134.262 275.264 135.09C275.264 135.906 275.018 136.716 274.526 137.52C274.046 138.324 273.464 139.062 272.78 139.734C272.096 140.406 271.214 141.204 270.134 142.128L269.846 142.38H275.48V144.054H267.326L267.146 142.38ZM284.213 137.286C284.789 137.622 285.251 138.078 285.599 138.654C285.947 139.218 286.121 139.782 286.121 140.346C286.121 141.078 285.929 141.738 285.545 142.326C285.173 142.902 284.651 143.352 283.979 143.676C283.307 144 282.539 144.162 281.675 144.162C280.823 144.162 280.061 143.994 279.389 143.658C278.717 143.322 278.189 142.86 277.805 142.272C277.433 141.672 277.247 140.994 277.247 140.238H279.155C279.155 140.898 279.389 141.438 279.857 141.858C280.325 142.266 280.931 142.47 281.675 142.47C282.431 142.47 283.049 142.266 283.529 141.858C284.021 141.438 284.267 140.898 284.267 140.238C284.267 139.602 284.027 139.086 283.547 138.69C283.067 138.282 282.455 138.078 281.711 138.078H280.775V136.476H281.729C282.413 136.476 282.971 136.296 283.403 135.936C283.847 135.564 284.069 135.09 284.069 134.514C284.069 133.926 283.859 133.452 283.439 133.092C283.019 132.72 282.473 132.534 281.801 132.534C281.141 132.534 280.601 132.72 280.181 133.092C279.761 133.464 279.551 133.944 279.551 134.532H277.643C277.643 133.812 277.817 133.176 278.165 132.624C278.525 132.06 279.017 131.622 279.641 131.31C280.277 130.998 280.997 130.842 281.801 130.842C282.593 130.842 283.301 130.998 283.925 131.31C284.549 131.61 285.035 132.03 285.383 132.57C285.743 133.11 285.923 133.722 285.923 134.406C285.923 134.922 285.767 135.45 285.455 135.99C285.143 136.518 284.729 136.95 284.213 137.286Z" fill="#009B46"/>
<path d="M298.23 132.35H299.504L293.12 142.514H291.874L298.23 132.35ZM289.55 134.954C289.55 134.441 289.667 133.974 289.9 133.554C290.143 133.134 290.469 132.803 290.88 132.56C291.291 132.308 291.743 132.182 292.238 132.182C292.733 132.182 293.181 132.308 293.582 132.56C293.993 132.803 294.315 133.134 294.548 133.554C294.791 133.974 294.912 134.441 294.912 134.954C294.912 135.458 294.791 135.925 294.548 136.354C294.315 136.774 293.993 137.105 293.582 137.348C293.181 137.591 292.733 137.712 292.238 137.712C291.743 137.712 291.291 137.591 290.88 137.348C290.469 137.105 290.143 136.774 289.9 136.354C289.667 135.925 289.55 135.458 289.55 134.954ZM290.698 134.954C290.698 135.402 290.847 135.785 291.146 136.102C291.445 136.419 291.809 136.578 292.238 136.578C292.667 136.578 293.031 136.419 293.33 136.102C293.629 135.785 293.778 135.402 293.778 134.954C293.778 134.497 293.629 134.114 293.33 133.806C293.031 133.489 292.667 133.33 292.238 133.33C291.809 133.33 291.445 133.489 291.146 133.806C290.847 134.114 290.698 134.497 290.698 134.954ZM296.34 139.854C296.34 139.35 296.457 138.888 296.69 138.468C296.933 138.039 297.259 137.703 297.67 137.46C298.081 137.217 298.533 137.096 299.028 137.096C299.523 137.096 299.971 137.217 300.372 137.46C300.783 137.703 301.105 138.039 301.338 138.468C301.581 138.888 301.702 139.35 301.702 139.854C301.702 140.367 301.581 140.834 301.338 141.254C301.105 141.674 300.783 142.01 300.372 142.262C299.971 142.505 299.523 142.626 299.028 142.626C298.533 142.626 298.081 142.505 297.67 142.262C297.259 142.01 296.933 141.674 296.69 141.254C296.457 140.834 296.34 140.367 296.34 139.854ZM297.488 139.854C297.488 140.311 297.637 140.699 297.936 141.016C298.235 141.333 298.599 141.492 299.028 141.492C299.457 141.492 299.821 141.333 300.12 141.016C300.419 140.699 300.568 140.311 300.568 139.854C300.568 139.406 300.419 139.023 300.12 138.706C299.821 138.389 299.457 138.23 299.028 138.23C298.599 138.23 298.235 138.389 297.936 138.706C297.637 139.023 297.488 139.406 297.488 139.854Z" fill="#009B46"/>
</g>
<g filter="url(#filter2_d_4155_2522)">
<rect x="350" y="94" width="59" height="37" rx="18.5" fill="white" shape-rendering="crispEdges"/>
<path d="M370.936 114.014H372.592V115.67H370.936V119.054H369.028V115.67H363.394L363.214 114.014L369.118 105.95H370.936V114.014ZM369.028 114.014V109.136L365.482 114.014H369.028ZM379.237 119.054L377.329 119.036V108.002L375.025 109.28L374.233 107.678L377.347 105.968H379.237V119.054Z" fill="#6D0CA6"/>
<path d="M392.23 107.35H393.504L387.12 117.514H385.874L392.23 107.35ZM383.55 109.954C383.55 109.441 383.667 108.974 383.9 108.554C384.143 108.134 384.469 107.803 384.88 107.56C385.291 107.308 385.743 107.182 386.238 107.182C386.733 107.182 387.181 107.308 387.582 107.56C387.993 107.803 388.315 108.134 388.548 108.554C388.791 108.974 388.912 109.441 388.912 109.954C388.912 110.458 388.791 110.925 388.548 111.354C388.315 111.774 387.993 112.105 387.582 112.348C387.181 112.591 386.733 112.712 386.238 112.712C385.743 112.712 385.291 112.591 384.88 112.348C384.469 112.105 384.143 111.774 383.9 111.354C383.667 110.925 383.55 110.458 383.55 109.954ZM384.698 109.954C384.698 110.402 384.847 110.785 385.146 111.102C385.445 111.419 385.809 111.578 386.238 111.578C386.667 111.578 387.031 111.419 387.33 111.102C387.629 110.785 387.778 110.402 387.778 109.954C387.778 109.497 387.629 109.114 387.33 108.806C387.031 108.489 386.667 108.33 386.238 108.33C385.809 108.33 385.445 108.489 385.146 108.806C384.847 109.114 384.698 109.497 384.698 109.954ZM390.34 114.854C390.34 114.35 390.457 113.888 390.69 113.468C390.933 113.039 391.259 112.703 391.67 112.46C392.081 112.217 392.533 112.096 393.028 112.096C393.523 112.096 393.971 112.217 394.372 112.46C394.783 112.703 395.105 113.039 395.338 113.468C395.581 113.888 395.702 114.35 395.702 114.854C395.702 115.367 395.581 115.834 395.338 116.254C395.105 116.674 394.783 117.01 394.372 117.262C393.971 117.505 393.523 117.626 393.028 117.626C392.533 117.626 392.081 117.505 391.67 117.262C391.259 117.01 390.933 116.674 390.69 116.254C390.457 115.834 390.34 115.367 390.34 114.854ZM391.488 114.854C391.488 115.311 391.637 115.699 391.936 116.016C392.235 116.333 392.599 116.492 393.028 116.492C393.457 116.492 393.821 116.333 394.12 116.016C394.419 115.699 394.568 115.311 394.568 114.854C394.568 114.406 394.419 114.023 394.12 113.706C393.821 113.389 393.457 113.23 393.028 113.23C392.599 113.23 392.235 113.389 391.936 113.706C391.637 114.023 391.488 114.406 391.488 114.854Z" fill="#6D0CA6"/>
</g>
<g filter="url(#filter3_d_4155_2522)">
<rect x="444" y="51" width="61" height="37" rx="18.5" fill="white" shape-rendering="crispEdges"/>
<path d="M458.697 76.09L463.827 64.57L457.815 64.588V62.896H465.735L465.915 64.57L460.785 76.09H458.697ZM468.874 76.09L474.004 64.57L467.992 64.588V62.896H475.912L476.092 64.57L470.962 76.09H468.874Z" fill="#6D0CA6"/>
<path d="M488.23 64.35H489.504L483.12 74.514H481.874L488.23 64.35ZM479.55 66.954C479.55 66.4407 479.667 65.974 479.9 65.554C480.143 65.134 480.469 64.8027 480.88 64.56C481.291 64.308 481.743 64.182 482.238 64.182C482.733 64.182 483.181 64.308 483.582 64.56C483.993 64.8027 484.315 65.134 484.548 65.554C484.791 65.974 484.912 66.4407 484.912 66.954C484.912 67.458 484.791 67.9247 484.548 68.354C484.315 68.774 483.993 69.1053 483.582 69.348C483.181 69.5907 482.733 69.712 482.238 69.712C481.743 69.712 481.291 69.5907 480.88 69.348C480.469 69.1053 480.143 68.774 479.9 68.354C479.667 67.9247 479.55 67.458 479.55 66.954ZM480.698 66.954C480.698 67.402 480.847 67.7847 481.146 68.102C481.445 68.4193 481.809 68.578 482.238 68.578C482.667 68.578 483.031 68.4193 483.33 68.102C483.629 67.7847 483.778 67.402 483.778 66.954C483.778 66.4967 483.629 66.114 483.33 65.806C483.031 65.4887 482.667 65.33 482.238 65.33C481.809 65.33 481.445 65.4887 481.146 65.806C480.847 66.114 480.698 66.4967 480.698 66.954ZM486.34 71.854C486.34 71.35 486.457 70.888 486.69 70.468C486.933 70.0387 487.259 69.7027 487.67 69.46C488.081 69.2173 488.533 69.096 489.028 69.096C489.523 69.096 489.971 69.2173 490.372 69.46C490.783 69.7027 491.105 70.0387 491.338 70.468C491.581 70.888 491.702 71.35 491.702 71.854C491.702 72.3673 491.581 72.834 491.338 73.254C491.105 73.674 490.783 74.01 490.372 74.262C489.971 74.5047 489.523 74.626 489.028 74.626C488.533 74.626 488.081 74.5047 487.67 74.262C487.259 74.01 486.933 73.674 486.69 73.254C486.457 72.834 486.34 72.3673 486.34 71.854ZM487.488 71.854C487.488 72.3113 487.637 72.6987 487.936 73.016C488.235 73.3333 488.599 73.492 489.028 73.492C489.457 73.492 489.821 73.3333 490.12 73.016C490.419 72.6987 490.568 72.3113 490.568 71.854C490.568 71.406 490.419 71.0233 490.12 70.706C489.821 70.3887 489.457 70.23 489.028 70.23C488.599 70.23 488.235 70.3887 487.936 70.706C487.637 71.0233 487.488 71.406 487.488 71.854Z" fill="#6D0CA6"/>
</g>
<g filter="url(#filter4_d_4155_2522)">
<rect x="534" y="11" width="71" height="37" rx="18.5" fill="white" shape-rendering="crispEdges"/>
<path d="M552.069 36.054L550.161 36.036V25.002L547.857 26.28L547.065 24.678L550.179 22.968H552.069V36.054ZM559.628 34.488C560.216 34.488 560.738 34.278 561.194 33.858C561.65 33.438 562.004 32.856 562.256 32.112C562.508 31.356 562.634 30.486 562.634 29.502C562.634 28.518 562.508 27.648 562.256 26.892C562.004 26.136 561.65 25.548 561.194 25.128C560.738 24.708 560.216 24.498 559.628 24.498C559.04 24.498 558.512 24.708 558.044 25.128C557.588 25.548 557.234 26.136 556.982 26.892C556.73 27.648 556.604 28.518 556.604 29.502C556.604 30.486 556.73 31.356 556.982 32.112C557.234 32.856 557.588 33.438 558.044 33.858C558.512 34.278 559.04 34.488 559.628 34.488ZM554.696 29.502C554.696 28.206 554.906 27.054 555.326 26.046C555.746 25.026 556.328 24.234 557.072 23.67C557.816 23.106 558.668 22.824 559.628 22.824C560.576 22.824 561.422 23.106 562.166 23.67C562.91 24.234 563.492 25.026 563.912 26.046C564.332 27.054 564.542 28.206 564.542 29.502C564.542 30.786 564.332 31.938 563.912 32.958C563.492 33.966 562.91 34.758 562.166 35.334C561.422 35.898 560.576 36.18 559.628 36.18C558.68 36.18 557.828 35.898 557.072 35.334C556.328 34.758 555.746 33.966 555.326 32.958C554.906 31.938 554.696 30.786 554.696 29.502ZM571.212 34.488C571.8 34.488 572.322 34.278 572.778 33.858C573.234 33.438 573.588 32.856 573.84 32.112C574.092 31.356 574.218 30.486 574.218 29.502C574.218 28.518 574.092 27.648 573.84 26.892C573.588 26.136 573.234 25.548 572.778 25.128C572.322 24.708 571.8 24.498 571.212 24.498C570.624 24.498 570.096 24.708 569.628 25.128C569.172 25.548 568.818 26.136 568.566 26.892C568.314 27.648 568.188 28.518 568.188 29.502C568.188 30.486 568.314 31.356 568.566 32.112C568.818 32.856 569.172 33.438 569.628 33.858C570.096 34.278 570.624 34.488 571.212 34.488ZM566.28 29.502C566.28 28.206 566.49 27.054 566.91 26.046C567.33 25.026 567.912 24.234 568.656 23.67C569.4 23.106 570.252 22.824 571.212 22.824C572.16 22.824 573.006 23.106 573.75 23.67C574.494 24.234 575.076 25.026 575.496 26.046C575.916 27.054 576.126 28.206 576.126 29.502C576.126 30.786 575.916 31.938 575.496 32.958C575.076 33.966 574.494 34.758 573.75 35.334C573.006 35.898 572.16 36.18 571.212 36.18C570.264 36.18 569.412 35.898 568.656 35.334C567.912 34.758 567.33 33.966 566.91 32.958C566.49 31.938 566.28 30.786 566.28 29.502Z" fill="#6D0CA6"/>
<path d="M588.23 24.35H589.504L583.12 34.514H581.874L588.23 24.35ZM579.55 26.954C579.55 26.4407 579.667 25.974 579.9 25.554C580.143 25.134 580.469 24.8027 580.88 24.56C581.291 24.308 581.743 24.182 582.238 24.182C582.733 24.182 583.181 24.308 583.582 24.56C583.993 24.8027 584.315 25.134 584.548 25.554C584.791 25.974 584.912 26.4407 584.912 26.954C584.912 27.458 584.791 27.9247 584.548 28.354C584.315 28.774 583.993 29.1053 583.582 29.348C583.181 29.5907 582.733 29.712 582.238 29.712C581.743 29.712 581.291 29.5907 580.88 29.348C580.469 29.1053 580.143 28.774 579.9 28.354C579.667 27.9247 579.55 27.458 579.55 26.954ZM580.698 26.954C580.698 27.402 580.847 27.7847 581.146 28.102C581.445 28.4193 581.809 28.578 582.238 28.578C582.667 28.578 583.031 28.4193 583.33 28.102C583.629 27.7847 583.778 27.402 583.778 26.954C583.778 26.4967 583.629 26.114 583.33 25.806C583.031 25.4887 582.667 25.33 582.238 25.33C581.809 25.33 581.445 25.4887 581.146 25.806C580.847 26.114 580.698 26.4967 580.698 26.954ZM586.34 31.854C586.34 31.35 586.457 30.888 586.69 30.468C586.933 30.0387 587.259 29.7027 587.67 29.46C588.081 29.2173 588.533 29.096 589.028 29.096C589.523 29.096 589.971 29.2173 590.372 29.46C590.783 29.7027 591.105 30.0387 591.338 30.468C591.581 30.888 591.702 31.35 591.702 31.854C591.702 32.3673 591.581 32.834 591.338 33.254C591.105 33.674 590.783 34.01 590.372 34.262C589.971 34.5047 589.523 34.626 589.028 34.626C588.533 34.626 588.081 34.5047 587.67 34.262C587.259 34.01 586.933 33.674 586.69 33.254C586.457 32.834 586.34 32.3673 586.34 31.854ZM587.488 31.854C587.488 32.3113 587.637 32.6987 587.936 33.016C588.235 33.3333 588.599 33.492 589.028 33.492C589.457 33.492 589.821 33.3333 590.12 33.016C590.419 32.6987 590.568 32.3113 590.568 31.854C590.568 31.406 590.419 31.0233 590.12 30.706C589.821 30.3887 589.457 30.23 589.028 30.23C588.599 30.23 588.235 30.3887 587.936 30.706C587.637 31.0233 587.488 31.406 587.488 31.854Z" fill="#6D0CA6"/>
</g>
<rect y="10.7969" width="8.4" height="8.4" rx="2.8" fill="url(#paint6_linear_4155_2522)"/>
<path d="M21.6538 15.3152C21.6538 15.5602 21.644 15.8738 21.644 15.9032C21.644 17.9318 20.2132 19.0686 18.2924 19.1078C16.2344 19.1078 14.7742 17.5986 14.7742 15.4622C14.7742 13.3258 16.2344 11.8264 18.2924 11.8264C20.517 11.8264 21.2814 13.5512 21.2814 13.5512L20.566 13.8942C20.566 13.8942 19.9878 12.5516 18.2924 12.5516C16.7048 12.5516 15.5974 13.7472 15.5974 15.4622C15.5974 17.187 16.7048 18.3826 18.2924 18.3826C19.7624 18.3336 20.8502 17.579 20.86 16.0208H18.4198V15.3152H21.6538ZM22.9358 19.0294V14.4626H23.7492V15.2172C24.053 14.7272 24.6704 14.394 25.278 14.4234V15.2074C24.445 15.178 23.7492 15.9032 23.7492 16.7068V19.0294H22.9358ZM28.037 19.0686C26.7532 19.0686 25.8516 18.1082 25.8516 16.7656C25.8516 15.4132 26.7532 14.4626 28.037 14.4626C29.4482 14.4626 29.8794 15.5994 29.9186 15.7072C30.193 16.4128 30.1048 17.089 30.1048 17.1184H26.6748C26.7924 17.8436 27.3608 18.3532 28.037 18.3532C28.9386 18.3532 29.2718 17.7848 29.3404 17.677L29.9872 18.0102C29.7618 18.5198 29.115 19.0686 28.037 19.0686ZM26.6748 16.4226L29.311 16.4128C29.2228 15.717 28.8798 15.178 28.037 15.178C27.3412 15.178 26.7924 15.6876 26.6748 16.4226ZM33.2528 19.0686C31.969 19.0686 31.0674 18.1082 31.0674 16.7656C31.0674 15.4132 31.969 14.4626 33.2528 14.4626C34.664 14.4626 35.0952 15.5994 35.1344 15.7072C35.4088 16.4128 35.3206 17.089 35.3206 17.1184H31.8906C32.0082 17.8436 32.5766 18.3532 33.2528 18.3532C34.1544 18.3532 34.4876 17.7848 34.5562 17.677L35.203 18.0102C34.9776 18.5198 34.3308 19.0686 33.2528 19.0686ZM31.8906 16.4226L34.5268 16.4128C34.4386 15.717 34.0956 15.178 33.2528 15.178C32.557 15.178 32.0082 15.6876 31.8906 16.4226ZM39.586 16.403C39.586 15.668 39.1548 15.1878 38.508 15.1878C37.7828 15.1878 37.2732 15.7464 37.2732 16.403V19.0294H36.4598V14.4626H37.2732V15.129C37.5868 14.737 38.0964 14.4626 38.5472 14.4626C39.5468 14.4626 40.3994 15.1486 40.3994 16.3442V19.0294H39.586V16.403ZM46.3227 18.363C47.1557 18.363 47.7143 17.7162 47.7143 16.7656C47.7143 15.8248 47.1557 15.1682 46.3227 15.1682C45.5681 15.1682 44.9311 15.8934 44.9311 16.7656C44.9311 17.6476 45.5681 18.363 46.3227 18.363ZM44.1079 21.1168V14.4528H44.9213V15.227C45.2643 14.7076 45.8915 14.4528 46.3521 14.4528C47.6261 14.4528 48.5277 15.4132 48.5277 16.7656C48.5277 18.1278 47.6261 19.0882 46.3521 19.0882C45.8719 19.0882 45.2643 18.7942 44.9213 18.3042V21.1168H44.1079ZM49.5892 19.0294V14.4626H50.4026V15.2172C50.7064 14.7272 51.3238 14.394 51.9314 14.4234V15.2074C51.0984 15.178 50.4026 15.9032 50.4026 16.7068V19.0294H49.5892ZM54.6903 19.0686C53.4065 19.0686 52.5049 18.1082 52.5049 16.7656C52.5049 15.4132 53.4065 14.4626 54.6903 14.4626C56.1015 14.4626 56.5327 15.5994 56.5719 15.7072C56.8463 16.4128 56.7581 17.089 56.7581 17.1184H53.3281C53.4457 17.8436 54.0141 18.3532 54.6903 18.3532C55.5919 18.3532 55.9251 17.7848 55.9937 17.677L56.6405 18.0102C56.4151 18.5198 55.7683 19.0686 54.6903 19.0686ZM53.3281 16.4226L55.9643 16.4128C55.8761 15.717 55.5331 15.178 54.6903 15.178C53.9945 15.178 53.4457 15.6876 53.3281 16.4226ZM63.7381 16.305C63.7381 15.6386 63.3461 15.1878 62.7777 15.1878C62.1211 15.1878 61.6703 15.619 61.6703 16.2266V19.0294H60.8471V16.305C60.8471 15.6386 60.4649 15.1878 59.9063 15.1878C59.2399 15.1878 58.7793 15.7464 58.7793 16.3932V19.0294H57.9659V14.4626H58.7793V15.1192C59.0537 14.7272 59.5045 14.4626 59.9357 14.4626C60.5041 14.4626 61.0627 14.8056 61.3273 15.3054C61.6311 14.8056 62.2289 14.4626 62.7973 14.4626C63.8263 14.4626 64.5613 15.1976 64.5613 16.2462V19.0294H63.7381V16.305ZM65.9854 14.4528H66.7988V19.0294H65.9854V14.4528ZM65.8972 12.679C65.8972 12.3948 66.103 12.189 66.397 12.189C66.6812 12.189 66.887 12.3948 66.887 12.679C66.887 12.973 66.6812 13.1788 66.397 13.1788C66.103 13.1788 65.8972 12.973 65.8972 12.679ZM69.0948 17.1184C69.0948 17.8436 69.5358 18.3728 70.1728 18.3728C70.898 18.3728 71.3978 17.9122 71.3978 17.187V14.4626H72.221V19.0294H71.3978V18.4512C71.094 18.8432 70.5844 19.098 70.1238 19.098C69.0458 19.098 68.2716 18.2846 68.2716 17.187V14.4626H69.0948V17.1184ZM79.4526 16.305C79.4526 15.6386 79.0606 15.1878 78.4922 15.1878C77.8356 15.1878 77.3848 15.619 77.3848 16.2266V19.0294H76.5616V16.305C76.5616 15.6386 76.1794 15.1878 75.6208 15.1878C74.9544 15.1878 74.4938 15.7464 74.4938 16.3932V19.0294H73.6804V14.4626H74.4938V15.1192C74.7682 14.7272 75.219 14.4626 75.6502 14.4626C76.2186 14.4626 76.7772 14.8056 77.0418 15.3054C77.3456 14.8056 77.9434 14.4626 78.5118 14.4626C79.5408 14.4626 80.2758 15.1976 80.2758 16.2462V19.0294H79.4526V16.305Z" fill="#3F3F46"/>
<rect y="32.3984" width="8.4" height="8.4" rx="2.8" fill="url(#paint7_linear_4155_2522)"/>
<path d="M19.635 33.4966V34.2218H17.5476V40.631H16.7244V34.2218H14.637V33.4966H19.635ZM23.9675 38.0928C23.9675 37.3088 23.5559 36.7698 22.9385 36.7698C22.2721 36.7698 21.7135 37.446 21.7135 38.2398V40.6016H20.8903V33.7122H21.7135V36.7306C21.9879 36.3288 22.4485 36.0446 22.9385 36.0446C24.0165 36.0446 24.7907 36.8776 24.7907 38.0242V40.6016H23.9675V38.0928ZM26.259 36.0544H27.0724V40.631H26.259V36.0544ZM26.1708 34.2806C26.1708 33.9964 26.3766 33.7906 26.6706 33.7906C26.9548 33.7906 27.1606 33.9964 27.1606 34.2806C27.1606 34.5746 26.9548 34.7804 26.6706 34.7804C26.3766 34.7804 26.1708 34.5746 26.1708 34.2806ZM28.4962 40.631V36.0642H29.3096V36.8188C29.6134 36.3288 30.2308 35.9956 30.8384 36.025V36.809C30.0054 36.7796 29.3096 37.5048 29.3096 38.3084V40.631H28.4962ZM33.5875 40.6898C32.3135 40.6898 31.4119 39.7294 31.4119 38.3672C31.4119 37.0148 32.3135 36.0544 33.5875 36.0544C34.0775 36.0544 34.6557 36.2798 35.0379 36.858V33.7122H35.8513V40.631H35.0379V39.8862C34.6459 40.4448 34.0775 40.6898 33.5875 40.6898ZM32.2253 38.3672C32.2253 39.3178 32.7937 39.9744 33.6267 39.9744C34.3813 39.9744 35.0379 39.259 35.0379 38.3672C35.0379 37.495 34.3813 36.7698 33.6267 36.7698C32.7937 36.7698 32.2253 37.4264 32.2253 38.3672ZM37.2715 36.5836H41.4561V37.397H37.2715V36.5836ZM45.1455 39.9646C45.9785 39.9646 46.5371 39.3178 46.5371 38.3672C46.5371 37.4264 45.9785 36.7698 45.1455 36.7698C44.3909 36.7698 43.7539 37.495 43.7539 38.3672C43.7539 39.2492 44.3909 39.9646 45.1455 39.9646ZM42.9307 42.7184V36.0544H43.7441V36.8286C44.0871 36.3092 44.7143 36.0544 45.1749 36.0544C46.4489 36.0544 47.3506 37.0148 47.3506 38.3672C47.3506 39.7294 46.4489 40.6898 45.1749 40.6898C44.6947 40.6898 44.0871 40.3958 43.7441 39.9058V42.7184H42.9307ZM50.4502 40.6898C49.186 40.6898 48.2844 39.7294 48.2844 38.3868C48.2844 37.0344 49.186 36.074 50.4502 36.074C50.9402 36.074 51.4792 36.319 51.8712 36.8482V36.0642H52.6846V40.631H51.8712V39.896C51.4694 40.4742 50.9402 40.6898 50.4502 40.6898ZM49.0978 38.3868C49.0978 39.3178 49.6662 39.9744 50.4796 39.9744C51.2146 39.9744 51.8712 39.308 51.881 38.3868C51.8712 37.4656 51.2146 36.7894 50.4796 36.7894C49.6662 36.7894 49.0978 37.4362 49.0978 38.3868ZM53.8767 40.631V36.0642H54.6901V36.8188C54.9939 36.3288 55.6113 35.9956 56.2189 36.025V36.809C55.3859 36.7796 54.6901 37.5048 54.6901 38.3084V40.631H53.8767ZM57.9198 40.631V36.7796H57.0868V36.0544H57.9198V34.4766H58.743V36.0544H59.821V36.7796H58.743V40.631H57.9198ZM62.1254 42.7086H61.2336L62.194 40.3664L60.3516 36.0642H61.2434L62.6252 39.3962L63.9482 36.0642H64.8302L62.1254 42.7086ZM70.8777 37.0442C71.7205 37.0442 72.3085 36.4562 72.3085 35.633C72.3085 34.8098 71.7107 34.2218 70.8679 34.2218H69.2019L69.2117 37.0442H70.8777ZM68.3885 40.631V33.4966H70.8973C72.2007 33.4966 73.1121 34.3786 73.1121 35.633C73.1121 36.8776 72.2007 37.7596 70.8973 37.7596H69.2117V40.631H68.3885ZM76.974 37.0442C77.8168 37.0442 78.4048 36.4562 78.4048 35.633C78.4048 34.8098 77.807 34.2218 76.9642 34.2218H75.2982L75.308 37.0442H76.974ZM74.4848 40.631V33.4966H76.9936C78.297 33.4966 79.2084 34.3786 79.2084 35.633C79.2084 36.8776 78.297 37.7596 76.9936 37.7596H75.308V40.631H74.4848ZM82.9417 33.4966L85.6269 40.631H84.7547L84.0001 38.6122H80.8935L80.1095 40.631H79.2373L81.9715 33.4966H82.9417ZM81.1581 37.8968H83.7257L82.4615 34.5354L81.1581 37.8968Z" fill="#3F3F46"/>
<rect y="54" width="8.4" height="8.4" rx="2.8" fill="#27272A"/>
<path d="M15.4798 60.3117C15.8522 61.0565 16.4794 61.5857 17.2144 61.5857C18.1748 61.6053 18.7726 61.1153 18.7726 60.3509C18.7726 58.5281 15.1074 59.2925 15.1074 56.8131C15.1074 55.6665 16.0678 55.0099 17.3418 55.0197C18.3218 55.0393 19.1156 55.5587 19.4586 56.5975L18.7236 56.8523C18.508 56.1565 17.9788 55.7547 17.332 55.7449C16.5088 55.7351 15.9208 56.1271 15.9208 56.8131C15.9208 58.6163 19.586 57.8813 19.586 60.3607C19.586 61.5367 18.6648 62.3305 17.2046 62.3109C16.1658 62.2913 15.372 61.7131 14.784 60.6841L15.4798 60.3117ZM22.9166 61.5661C23.73 61.5661 24.2886 60.9193 24.2886 59.9785C24.2886 59.0377 23.73 58.3811 22.9166 58.3811C22.113 58.3811 21.5544 59.0279 21.5544 59.9785C21.5544 60.9291 22.1032 61.5661 22.9166 61.5661ZM20.741 59.9785C20.741 58.6261 21.6426 57.6559 22.9166 57.6559C24.2004 57.6559 25.1118 58.6261 25.1118 59.9785C25.1118 61.3211 24.2004 62.2913 22.9166 62.2913C21.6426 62.2913 20.741 61.3211 20.741 59.9785ZM26.1316 55.3137H26.945V62.2325H26.1316V55.3137ZM30.142 62.2913C28.8778 62.2913 27.9762 61.3309 27.9762 59.9883C27.9762 58.6359 28.8778 57.6755 30.142 57.6755C30.632 57.6755 31.171 57.9205 31.563 58.4497V57.6657H32.3764V62.2325H31.563V61.4975C31.1612 62.0757 30.632 62.2913 30.142 62.2913ZM28.7896 59.9883C28.7896 60.9193 29.358 61.5759 30.1714 61.5759C30.9064 61.5759 31.563 60.9095 31.5728 59.9883C31.563 59.0671 30.9064 58.3909 30.1714 58.3909C29.358 58.3909 28.7896 59.0377 28.7896 59.9883ZM33.5685 62.2325V57.6657H34.3819V58.4203C34.6857 57.9303 35.3031 57.5971 35.9107 57.6265V58.4105C35.0777 58.3811 34.3819 59.1063 34.3819 59.9099V62.2325H33.5685ZM41.595 61.5661C42.428 61.5661 42.9866 60.9193 42.9866 59.9687C42.9866 59.0279 42.428 58.3713 41.595 58.3713C40.8404 58.3713 40.2034 59.0965 40.2034 59.9687C40.2034 60.8507 40.8404 61.5661 41.595 61.5661ZM39.3802 64.3199V57.6559H40.1936V58.4301C40.5366 57.9107 41.1638 57.6559 41.6244 57.6559C42.8984 57.6559 43.8 58.6163 43.8 59.9687C43.8 61.3309 42.8984 62.2913 41.6244 62.2913C41.1442 62.2913 40.5366 61.9973 40.1936 61.5073V64.3199H39.3802ZM46.9094 61.5661C47.7228 61.5661 48.2814 60.9193 48.2814 59.9785C48.2814 59.0377 47.7228 58.3811 46.9094 58.3811C46.1058 58.3811 45.5472 59.0279 45.5472 59.9785C45.5472 60.9291 46.096 61.5661 46.9094 61.5661ZM44.7338 59.9785C44.7338 58.6261 45.6354 57.6559 46.9094 57.6559C48.1932 57.6559 49.1046 58.6261 49.1046 59.9785C49.1046 61.3211 48.1932 62.2913 46.9094 62.2913C45.6354 62.2913 44.7338 61.3211 44.7338 59.9785ZM55.7786 57.6657L54.4262 62.2325H53.6814L52.6818 59.0377L51.7018 62.2325H50.957L49.5752 57.6657H50.418L51.3392 60.8409L52.2604 57.6657H53.0836L54.044 60.8507L54.9358 57.6657H55.7786ZM58.3653 62.2717C57.0815 62.2717 56.1799 61.3113 56.1799 59.9687C56.1799 58.6163 57.0815 57.6657 58.3653 57.6657C59.7765 57.6657 60.2077 58.8025 60.2469 58.9103C60.5213 59.6159 60.4331 60.2921 60.4331 60.3215H57.0031C57.1207 61.0467 57.6891 61.5563 58.3653 61.5563C59.2669 61.5563 59.6001 60.9879 59.6687 60.8801L60.3155 61.2133C60.0901 61.7229 59.4433 62.2717 58.3653 62.2717ZM57.0031 59.6257L59.6393 59.6159C59.5511 58.9201 59.2081 58.3811 58.3653 58.3811C57.6695 58.3811 57.1207 58.8907 57.0031 59.6257ZM61.5233 62.2325V57.6657H62.3367V58.4203C62.6405 57.9303 63.2579 57.5971 63.8655 57.6265V58.4105C63.0325 58.3811 62.3367 59.1063 62.3367 59.9099V62.2325H61.5233Z" fill="#3F3F46"/>
<defs>
<filter id="filter0_d_4155_2522" x="144.602" y="125" width="90" height="67" filterUnits="userSpaceOnUse" color-interpolation-filters="sRGB">
<feFlood flood-opacity="0" result="BackgroundImageFix"/>
<feColorMatrix in="SourceAlpha" type="matrix" values="0 0 0 0 0 0 0 0 0 0 0 0 0 0 0 0 0 0 127 0" result="hardAlpha"/>
<feOffset dy="4"/>
<feGaussianBlur stdDeviation="7.5"/>
<feComposite in2="hardAlpha" operator="out"/>
<feColorMatrix type="matrix" values="0 0 0 0 0 0 0 0 0 0 0 0 0 0 0 0 0 0 0.15 0"/>
<feBlend mode="normal" in2="BackgroundImageFix" result="effect1_dropShadow_4155_2522"/>
<feBlend mode="normal" in="SourceGraphic" in2="effect1_dropShadow_4155_2522" result="shape"/>
</filter>
<filter id="filter1_d_4155_2522" x="238" y="108" width="92" height="67" filterUnits="userSpaceOnUse" color-interpolation-filters="sRGB">
<feFlood flood-opacity="0" result="BackgroundImageFix"/>
<feColorMatrix in="SourceAlpha" type="matrix" values="0 0 0 0 0 0 0 0 0 0 0 0 0 0 0 0 0 0 127 0" result="hardAlpha"/>
<feOffset dy="4"/>
<feGaussianBlur stdDeviation="7.5"/>
<feComposite in2="hardAlpha" operator="out"/>
<feColorMatrix type="matrix" values="0 0 0 0 0 0 0 0 0 0 0 0 0 0 0 0 0 0 0.15 0"/>
<feBlend mode="normal" in2="BackgroundImageFix" result="effect1_dropShadow_4155_2522"/>
<feBlend mode="normal" in="SourceGraphic" in2="effect1_dropShadow_4155_2522" result="shape"/>
</filter>
<filter id="filter2_d_4155_2522" x="335" y="83" width="89" height="67" filterUnits="userSpaceOnUse" color-interpolation-filters="sRGB">
<feFlood flood-opacity="0" result="BackgroundImageFix"/>
<feColorMatrix in="SourceAlpha" type="matrix" values="0 0 0 0 0 0 0 0 0 0 0 0 0 0 0 0 0 0 127 0" result="hardAlpha"/>
<feOffset dy="4"/>
<feGaussianBlur stdDeviation="7.5"/>
<feComposite in2="hardAlpha" operator="out"/>
<feColorMatrix type="matrix" values="0 0 0 0 0 0 0 0 0 0 0 0 0 0 0 0 0 0 0.15 0"/>
<feBlend mode="normal" in2="BackgroundImageFix" result="effect1_dropShadow_4155_2522"/>
<feBlend mode="normal" in="SourceGraphic" in2="effect1_dropShadow_4155_2522" result="shape"/>
</filter>
<filter id="filter3_d_4155_2522" x="429" y="40" width="91" height="67" filterUnits="userSpaceOnUse" color-interpolation-filters="sRGB">
<feFlood flood-opacity="0" result="BackgroundImageFix"/>
<feColorMatrix in="SourceAlpha" type="matrix" values="0 0 0 0 0 0 0 0 0 0 0 0 0 0 0 0 0 0 127 0" result="hardAlpha"/>
<feOffset dy="4"/>
<feGaussianBlur stdDeviation="7.5"/>
<feComposite in2="hardAlpha" operator="out"/>
<feColorMatrix type="matrix" values="0 0 0 0 0 0 0 0 0 0 0 0 0 0 0 0 0 0 0.15 0"/>
<feBlend mode="normal" in2="BackgroundImageFix" result="effect1_dropShadow_4155_2522"/>
<feBlend mode="normal" in="SourceGraphic" in2="effect1_dropShadow_4155_2522" result="shape"/>
</filter>
<filter id="filter4_d_4155_2522" x="519" y="0" width="101" height="67" filterUnits="userSpaceOnUse" color-interpolation-filters="sRGB">
<feFlood flood-opacity="0" result="BackgroundImageFix"/>
<feColorMatrix in="SourceAlpha" type="matrix" values="0 0 0 0 0 0 0 0 0 0 0 0 0 0 0 0 0 0 127 0" result="hardAlpha"/>
<feOffset dy="4"/>
<feGaussianBlur stdDeviation="7.5"/>
<feComposite in2="hardAlpha" operator="out"/>
<feColorMatrix type="matrix" values="0 0 0 0 0 0 0 0 0 0 0 0 0 0 0 0 0 0 0.15 0"/>
<feBlend mode="normal" in2="BackgroundImageFix" result="effect1_dropShadow_4155_2522"/>
<feBlend mode="normal" in="SourceGraphic" in2="effect1_dropShadow_4155_2522" result="shape"/>
</filter>
<linearGradient id="paint0_linear_4155_2522" x1="379.602" y1="3" x2="379.602" y2="199" gradientUnits="userSpaceOnUse">
<stop stop-color="#F6F6F7"/>
<stop offset="1" stop-color="white"/>
</linearGradient>
<linearGradient id="paint1_linear_4155_2522" x1="189.202" y1="183.5" x2="189.202" y2="198.9" gradientUnits="userSpaceOnUse">
<stop stop-color="#00CC5C"/>
<stop offset="1" stop-color="#5EFFA6"/>
</linearGradient>
<linearGradient id="paint2_linear_4155_2522" x1="284.397" y1="166.695" x2="284.397" y2="198.895" gradientUnits="userSpaceOnUse">
<stop stop-color="#00CC5C"/>
<stop offset="1" stop-color="#5EFFA6"/>
</linearGradient>
<linearGradient id="paint3_linear_4155_2522" x1="379.6" y1="141.5" x2="379.6" y2="198.9" gradientUnits="userSpaceOnUse">
<stop stop-color="#9735D0"/>
<stop offset="1" stop-color="#9735D0" stop-opacity="0.4"/>
</linearGradient>
<linearGradient id="paint4_linear_4155_2522" x1="474.795" y1="98.1016" x2="474.795" y2="198.902" gradientUnits="userSpaceOnUse">
<stop stop-color="#9735D0"/>
<stop offset="1" stop-color="#9735D0" stop-opacity="0.4"/>
</linearGradient>
<linearGradient id="paint5_linear_4155_2522" x1="569.998" y1="58.8984" x2="569.998" y2="198.898" gradientUnits="userSpaceOnUse">
<stop stop-color="#9735D0"/>
<stop offset="1" stop-color="#9735D0" stop-opacity="0.4"/>
</linearGradient>
<linearGradient id="paint6_linear_4155_2522" x1="4.2" y1="10.7969" x2="4.2" y2="19.1969" gradientUnits="userSpaceOnUse">
<stop stop-color="#00CC5C"/>
<stop offset="1" stop-color="#5EFFA6"/>
</linearGradient>
<linearGradient id="paint7_linear_4155_2522" x1="4.2" y1="32.3984" x2="4.2" y2="40.7984" gradientUnits="userSpaceOnUse">
<stop stop-color="#9735D0"/>
<stop offset="1" stop-color="#9735D0" stop-opacity="0.4"/>
</linearGradient>
</defs>
</svg>
