<svg width="351" height="228" viewBox="0 0 351 228" fill="none" xmlns="http://www.w3.org/2000/svg">
<rect x="6" width="339" height="61" rx="16" fill="#F47725"/>
<path d="M120.594 32.014H135.102V33.634H128.838V38.476H126.84V33.634H120.594V32.014ZM122.466 30.682V23.122H133.374V24.688H124.41V26.092H133.032V27.622H124.41V29.098H133.554V30.682H122.466ZM136.614 24.004H145.362V25.642H142.032V26.974C142.032 29.44 143.508 32.284 146.01 33.454L144.912 35.02C143.112 34.156 141.798 32.446 141.078 30.466C140.358 32.644 138.99 34.516 137.154 35.416L136.02 33.85C138.522 32.644 140.07 29.638 140.07 26.974V25.642H136.614V24.004ZM146.802 38.458V22.438H148.8V28.684H151.23V30.322H148.8V38.458H146.802ZM163.309 22.438H165.289V30.592H163.309V22.438ZM152.059 29.008C154.633 28.198 155.983 26.146 155.983 24.04V22.834H157.981V24.04C157.981 26.074 159.331 27.982 161.833 28.756L160.879 30.286C159.043 29.71 157.729 28.504 157.009 26.992C156.289 28.63 154.939 29.944 153.013 30.592L152.059 29.008ZM154.741 32.878V31.348H165.289V35.488H156.721V36.766H165.757V38.314H154.777V34.066H163.345V32.878H154.741ZM167.809 31.528H182.317V33.112H175.999V38.476H174.019V33.112H167.809V31.528ZM169.537 29.638V23.266H180.517V29.638H169.537ZM171.481 28.09H178.591V24.832H171.481V28.09ZM192.56 25.966H194.846V22.438H196.826V31.924H194.846V30.682H192.524V29.116H194.846V27.532H192.56V25.966ZM183.56 25.444V23.878H187.088V22.276H189.086V23.878H192.434V25.444H183.56ZM184.37 28.936C184.37 27.208 185.9 26.038 188.06 26.038C190.256 26.038 191.768 27.208 191.768 28.936C191.768 30.664 190.256 31.834 188.06 31.834C185.9 31.834 184.37 30.664 184.37 28.936ZM186.224 28.936C186.224 29.836 186.962 30.394 188.06 30.394C189.176 30.394 189.932 29.836 189.932 28.936C189.932 28.036 189.176 27.496 188.06 27.496C186.962 27.496 186.224 28.036 186.224 28.936ZM186.26 38.26V32.572H188.204V33.922H194.882V32.572H196.826V38.26H186.26ZM188.204 36.73H194.882V35.416H188.204V36.73ZM204.422 23.518C206.924 23.518 208.778 25.138 208.778 27.406C208.778 29.692 206.924 31.294 204.422 31.294C201.902 31.294 200.048 29.692 200.048 27.406C200.048 25.138 201.902 23.518 204.422 23.518ZM199.328 33.508C202.172 33.508 206.168 33.49 209.57 32.968L209.714 34.408C206.204 35.092 202.37 35.128 199.562 35.128L199.328 33.508ZM201.974 27.406C201.974 28.738 203.018 29.602 204.422 29.602C205.808 29.602 206.852 28.738 206.852 27.406C206.852 26.056 205.808 25.228 204.422 25.228C203.018 25.228 201.974 26.056 201.974 27.406ZM210.524 38.476V22.402H212.486V38.476H210.524ZM221.505 28.594H223.575V22.726H225.411V37.684H223.575V30.196H221.505V28.594ZM214.755 33.85C216.987 32.536 217.959 29.836 217.959 27.316V26.83H215.295V25.228H217.959V22.96H219.849V25.228H222.495V26.83H219.849V27.316C219.849 29.782 220.857 32.302 223.071 33.49L221.973 34.966C220.515 34.174 219.507 32.788 218.931 31.096C218.373 32.914 217.365 34.48 215.871 35.344L214.755 33.85ZM226.797 38.44V22.42H228.687V38.44H226.797Z" fill="white"/>
<g filter="url(#filter0_d_4103_3217)">
<rect x="6" y="69" width="339" height="152" rx="16" fill="white"/>
<path d="M32.2242 106.16C32.2242 105.445 32.3949 104.939 32.7362 104.64C33.0775 104.331 33.4989 104.176 34.0002 104.176C34.4909 104.176 34.9069 104.331 35.2482 104.64C35.6002 104.939 35.7762 105.445 35.7762 106.16C35.7762 106.864 35.6002 107.371 35.2482 107.68C34.9069 107.989 34.4909 108.144 34.0002 108.144C33.4989 108.144 33.0775 107.989 32.7362 107.68C32.3949 107.371 32.2242 106.864 32.2242 106.16ZM51.184 99.776C53.28 99.776 54.8 100.96 54.8 102.688C54.8 104.4 53.28 105.6 51.184 105.6C49.104 105.6 47.584 104.4 47.584 102.688C47.584 100.96 49.104 99.776 51.184 99.776ZM46.576 106.736C49.168 106.736 52.72 106.704 55.808 106.224L55.904 107.264C54.608 107.504 53.264 107.648 51.952 107.744V112.768H50.56V107.824C49.184 107.888 47.888 107.904 46.752 107.904L46.576 106.736ZM48.912 102.688C48.912 103.744 49.872 104.448 51.184 104.448C52.512 104.448 53.472 103.744 53.472 102.688C53.472 101.632 52.512 100.912 51.184 100.912C49.872 100.912 48.912 101.632 48.912 102.688ZM56.784 113.216V99.12H58.16V113.216H56.784ZM70.7524 99.12H72.1444V109.84H70.7524V108.416H67.9364V107.424H70.7524V99.12ZM60.4964 105.6C63.1044 105.584 66.5764 105.552 69.5844 105.184L69.6644 106.176C68.4484 106.384 67.1844 106.512 65.9204 106.592V109.344H64.5284V106.656C63.1524 106.72 61.8244 106.736 60.6884 106.736L60.4964 105.6ZM61.6004 102.144C61.6004 100.656 63.0084 99.68 65.0724 99.68C67.1364 99.68 68.5444 100.656 68.5444 102.144C68.5444 103.648 67.1364 104.608 65.0724 104.608C63.0084 104.608 61.6004 103.648 61.6004 102.144ZM62.4644 112.896V108.8H63.8564V111.776H72.4964V112.896H62.4644ZM62.9124 102.144C62.9124 103.024 63.8084 103.568 65.0724 103.568C66.3524 103.568 67.2164 103.024 67.2164 102.144C67.2164 101.264 66.3524 100.704 65.0724 100.704C63.8084 100.704 62.9124 101.264 62.9124 102.144ZM79.9763 102.704C80.4403 102.704 80.7603 103.04 80.7603 103.488C80.7603 103.952 80.4403 104.288 79.9763 104.288C79.5123 104.288 79.1763 103.952 79.1763 103.488C79.1763 103.04 79.5123 102.704 79.9763 102.704ZM79.1763 108.88C79.1763 108.416 79.5123 108.096 79.9763 108.096C80.4403 108.096 80.7603 108.416 80.7603 108.88C80.7603 109.344 80.4403 109.68 79.9763 109.68C79.5123 109.68 79.1763 109.344 79.1763 108.88ZM98.4491 105.984C98.4491 106.384 98.4331 106.896 98.4331 106.944C98.4331 110.256 96.0971 112.112 92.9611 112.176C89.6011 112.176 87.2171 109.712 87.2171 106.224C87.2171 102.736 89.6011 100.288 92.9611 100.288C96.5931 100.288 97.8411 103.104 97.8411 103.104L96.6731 103.664C96.6731 103.664 95.7291 101.472 92.9611 101.472C90.3691 101.472 88.5611 103.424 88.5611 106.224C88.5611 109.04 90.3691 110.992 92.9611 110.992C95.3611 110.912 97.1371 109.68 97.1531 107.136H93.1691V105.984H98.4491ZM100.494 100.752H101.822V112.048H100.494V100.752ZM107.058 110.96C108.386 110.96 109.298 109.904 109.298 108.368C109.298 106.832 108.386 105.76 107.058 105.76C105.746 105.76 104.834 106.816 104.834 108.368C104.834 109.92 105.73 110.96 107.058 110.96ZM103.506 108.368C103.506 106.16 104.978 104.576 107.058 104.576C109.154 104.576 110.642 106.16 110.642 108.368C110.642 110.56 109.154 112.144 107.058 112.144C104.978 112.144 103.506 110.56 103.506 108.368ZM116.115 112.176C115.411 112.176 114.467 111.872 113.779 110.864V112.08H112.451V100.752H113.779V105.904C114.467 104.896 115.411 104.608 116.131 104.608C118.211 104.608 119.699 106.176 119.699 108.384C119.699 110.608 118.211 112.176 116.115 112.176ZM113.779 108.384C113.779 109.84 114.819 111.008 116.067 111.008C117.427 111.008 118.371 109.936 118.371 108.384C118.371 106.848 117.427 105.792 116.067 105.792C114.819 105.792 113.779 106.96 113.779 108.384ZM124.761 112.144C122.697 112.144 121.225 110.576 121.225 108.384C121.225 106.176 122.697 104.608 124.761 104.608C125.561 104.608 126.441 105.008 127.081 105.872V104.592H128.409V112.048H127.081V110.848C126.425 111.792 125.561 112.144 124.761 112.144ZM122.553 108.384C122.553 109.904 123.481 110.976 124.809 110.976C126.009 110.976 127.081 109.888 127.097 108.384C127.081 106.88 126.009 105.776 124.809 105.776C123.481 105.776 122.553 106.832 122.553 108.384ZM130.572 100.752H131.9V112.048H130.572V100.752ZM138.048 100.4H139.392V112.048H138.048V100.4ZM147.086 107.76C147.086 106.56 146.382 105.776 145.326 105.776C144.142 105.776 143.31 106.688 143.31 107.76V112.048H141.982V104.592H143.31V105.68C143.822 105.04 144.654 104.592 145.39 104.592C147.022 104.592 148.414 105.712 148.414 107.664V112.048H147.086V107.76ZM157.348 104.592L154.228 112.048H153.012L149.908 104.592H151.364L153.62 110.24L155.876 104.592H157.348ZM161.621 112.112C159.525 112.112 158.053 110.544 158.053 108.352C158.053 106.144 159.525 104.592 161.621 104.592C163.925 104.592 164.629 106.448 164.693 106.624C165.141 107.776 164.997 108.88 164.997 108.928H159.397C159.589 110.112 160.517 110.944 161.621 110.944C163.093 110.944 163.637 110.016 163.749 109.84L164.805 110.384C164.437 111.216 163.381 112.112 161.621 112.112ZM159.397 107.792L163.701 107.776C163.557 106.64 162.997 105.76 161.621 105.76C160.485 105.76 159.589 106.592 159.397 107.792ZM167.625 109.664C168.041 110.56 168.921 110.944 169.481 110.944C170.377 110.944 171.017 110.56 171.017 109.92C171.017 109.312 170.185 109.072 169.353 108.784C168.329 108.432 166.889 107.984 166.889 106.56C166.889 105.296 168.057 104.512 169.545 104.512C170.425 104.512 171.833 105.024 172.185 106.352L171.017 106.752C170.777 105.872 169.977 105.696 169.545 105.696C168.777 105.696 168.217 106.016 168.217 106.56C168.217 107.168 168.985 107.376 169.881 107.68C170.953 108.048 172.345 108.496 172.345 109.92C172.345 111.248 171.129 112.112 169.481 112.112C168.345 112.112 167.161 111.472 166.553 110.304L167.625 109.664ZM175.034 112.048V105.76H173.674V104.576H175.034V102H176.378V104.576H178.138V105.76H176.378V112.048H175.034ZM189.502 107.6C189.502 106.512 188.862 105.776 187.934 105.776C186.862 105.776 186.126 106.48 186.126 107.472V112.048H184.782V107.6C184.782 106.512 184.158 105.776 183.246 105.776C182.158 105.776 181.406 106.688 181.406 107.744V112.048H180.078V104.592H181.406V105.664C181.854 105.024 182.59 104.592 183.294 104.592C184.222 104.592 185.134 105.152 185.566 105.968C186.062 105.152 187.038 104.592 187.966 104.592C189.646 104.592 190.846 105.792 190.846 107.504V112.048H189.502V107.6ZM196.355 112.112C194.259 112.112 192.787 110.544 192.787 108.352C192.787 106.144 194.259 104.592 196.355 104.592C198.659 104.592 199.363 106.448 199.427 106.624C199.875 107.776 199.731 108.88 199.731 108.928H194.131C194.323 110.112 195.251 110.944 196.355 110.944C197.827 110.944 198.371 110.016 198.483 109.84L199.539 110.384C199.171 111.216 198.115 112.112 196.355 112.112ZM194.131 107.792L198.435 107.776C198.291 106.64 197.731 105.76 196.355 105.76C195.219 105.76 194.323 106.592 194.131 107.792ZM206.695 107.76C206.695 106.56 205.991 105.776 204.935 105.776C203.751 105.776 202.919 106.688 202.919 107.76V112.048H201.591V104.592H202.919V105.68C203.431 105.04 204.263 104.592 204.999 104.592C206.631 104.592 208.023 105.712 208.023 107.664V112.048H206.695V107.76ZM210.753 112.048V105.76H209.393V104.576H210.753V102H212.097V104.576H213.857V105.76H212.097V112.048H210.753ZM230.918 105.984C230.918 106.384 230.902 106.896 230.902 106.944C230.902 110.256 228.566 112.112 225.43 112.176C222.07 112.176 219.686 109.712 219.686 106.224C219.686 102.736 222.07 100.288 225.43 100.288C229.062 100.288 230.31 103.104 230.31 103.104L229.142 103.664C229.142 103.664 228.198 101.472 225.43 101.472C222.838 101.472 221.03 103.424 221.03 106.224C221.03 109.04 222.838 110.992 225.43 110.992C227.83 110.912 229.606 109.68 229.622 107.136H225.638V105.984H230.918ZM233.011 112.048V104.592H234.339V105.824C234.835 105.024 235.843 104.48 236.835 104.528V105.808C235.475 105.76 234.339 106.944 234.339 108.256V112.048H233.011ZM241.323 110.96C242.651 110.96 243.563 109.904 243.563 108.368C243.563 106.832 242.651 105.76 241.323 105.76C240.011 105.76 239.099 106.816 239.099 108.368C239.099 109.92 239.995 110.96 241.323 110.96ZM237.771 108.368C237.771 106.16 239.243 104.576 241.323 104.576C243.419 104.576 244.907 106.16 244.907 108.368C244.907 110.56 243.419 112.144 241.323 112.144C239.243 112.144 237.771 110.56 237.771 108.368ZM248.201 108.928C248.201 110.112 248.921 110.976 249.961 110.976C251.145 110.976 251.961 110.224 251.961 109.04V104.592H253.305V112.048H251.961V111.104C251.465 111.744 250.633 112.16 249.881 112.16C248.121 112.16 246.857 110.832 246.857 109.04V104.592H248.201V108.928ZM259.287 110.96C260.647 110.96 261.559 109.904 261.559 108.352C261.559 106.816 260.647 105.744 259.287 105.744C258.055 105.744 257.015 106.928 257.015 108.352C257.015 109.792 258.055 110.96 259.287 110.96ZM255.671 115.456V104.576H256.999V105.84C257.559 104.992 258.583 104.576 259.335 104.576C261.415 104.576 262.887 106.144 262.887 108.352C262.887 110.576 261.415 112.144 259.335 112.144C258.551 112.144 257.559 111.664 256.999 110.864V115.456H255.671ZM265.205 99.968H271.909V101.088H266.581V102.736H271.525V103.84H266.581V105.584C269.445 105.584 271.109 105.52 273.029 105.2L273.173 106.288C271.141 106.64 269.413 106.688 266.357 106.688H265.205V99.968ZM266.837 113.024V108.208H275.957V113.024H266.837ZM268.181 111.904H274.597V109.312H268.181V111.904ZM274.565 107.52V99.136H275.957V107.52H274.565ZM278.725 100.144H286.277V101.28H283.205V101.744C283.205 103.552 284.485 105.2 286.581 105.888L285.925 106.96C284.325 106.432 283.157 105.36 282.549 103.984C281.941 105.568 280.693 106.816 279.013 107.408L278.325 106.304C280.469 105.568 281.829 103.744 281.829 101.744V101.28H278.725V100.144ZM280.197 110.56C280.197 108.912 281.973 107.968 284.837 107.968C287.717 107.968 289.477 108.912 289.477 110.56C289.477 112.224 287.717 113.184 284.837 113.184C281.973 113.184 280.197 112.224 280.197 110.56ZM281.557 110.56C281.557 111.536 282.789 112.096 284.837 112.096C286.885 112.096 288.117 111.536 288.117 110.56C288.117 109.6 286.885 109.056 284.837 109.056C282.789 109.056 281.557 109.6 281.557 110.56ZM287.941 107.6V99.136H289.333V102.672H291.397V103.808H289.333V107.6H287.941ZM294.358 110.704L293.414 113.904H292.422L292.95 110.704H294.358ZM308.017 102.976H310.754V99.136H312.146V109.424H310.754V104.112H308.017V102.976ZM300.562 106.576C302.674 105.84 304.082 103.968 304.082 102V101.376H300.978V100.24H308.514V101.376H305.474V101.984C305.474 103.776 306.802 105.552 308.866 106.272L308.161 107.36C306.594 106.784 305.41 105.632 304.802 104.208C304.194 105.792 302.962 107.072 301.282 107.68L300.562 106.576ZM303.106 112.896V108.544H304.498V111.776H312.53V112.896H303.106ZM315.106 99.968H321.458V103.92H316.514V105.84C318.962 105.84 320.722 105.744 322.802 105.376L322.93 106.528C320.754 106.896 318.882 106.976 316.258 106.976H315.138V102.848H320.098V101.088H315.106V99.968ZM316.306 109.552V108.416H325.49V113.216H324.098V109.552H316.306ZM324.098 107.696V99.136H325.49V101.344H327.538V102.48H325.49V104.288H327.538V105.44H325.49V107.696H324.098ZM47.408 125.968H54.112V127.088H48.784V128.736H53.728V129.84H48.784V131.584C51.648 131.584 53.312 131.52 55.232 131.2L55.376 132.288C53.344 132.64 51.616 132.688 48.56 132.688H47.408V125.968ZM49.04 139.024V134.208H58.16V139.024H49.04ZM50.384 137.904H56.8V135.312H50.384V137.904ZM56.768 133.52V125.136H58.16V133.52H56.768ZM60.9284 126.144H68.4804V127.28H65.4084V127.744C65.4084 129.552 66.6884 131.2 68.7844 131.888L68.1284 132.96C66.5284 132.432 65.3604 131.36 64.7524 129.984C64.1444 131.568 62.8964 132.816 61.2164 133.408L60.5284 132.304C62.6724 131.568 64.0324 129.744 64.0324 127.744V127.28H60.9284V126.144ZM62.4004 136.56C62.4004 134.912 64.1764 133.968 67.0404 133.968C69.9204 133.968 71.6804 134.912 71.6804 136.56C71.6804 138.224 69.9204 139.184 67.0404 139.184C64.1764 139.184 62.4004 138.224 62.4004 136.56ZM63.7604 136.56C63.7604 137.536 64.9924 138.096 67.0404 138.096C69.0884 138.096 70.3204 137.536 70.3204 136.56C70.3204 135.6 69.0884 135.056 67.0404 135.056C64.9924 135.056 63.7604 135.6 63.7604 136.56ZM70.1444 133.6V125.136H71.5364V128.672H73.6004V129.808H71.5364V133.6H70.1444ZM76.5608 136.704L75.6168 139.904H74.6248L75.1528 136.704H76.5608ZM93.4366 125.12H94.7646V139.2H93.4366V131.92H91.6766V138.496H90.3806V125.424H91.6766V130.768H93.4366V125.12ZM82.5726 135.28C84.5886 134.128 85.5966 131.728 85.5966 128.88V127.904H82.9246V126.752H89.4206V127.904H86.9246V128.88C86.9246 131.456 87.9326 133.744 89.9166 134.768L89.1006 135.84C87.7246 135.088 86.7966 133.76 86.3006 132.112C85.8206 134 84.8766 135.488 83.4366 136.352L82.5726 135.28ZM96.733 133.264H109.485V134.4H103.757V139.232H102.381V134.4H96.733V133.264ZM98.333 131.408V125.904H107.853V131.408H98.333ZM99.693 130.32H106.493V127.024H99.693V130.32ZM111.517 125.968H118.221V127.088H112.893V128.736H117.837V129.84H112.893V131.584C115.757 131.584 117.421 131.52 119.341 131.2L119.485 132.288C117.453 132.64 115.725 132.688 112.669 132.688H111.517V125.968ZM113.149 139.024V134.208H122.269V139.024H113.149ZM114.493 137.904H120.909V135.312H114.493V137.904ZM120.877 133.52V125.136H122.269V133.52H120.877ZM125.038 126.144H132.59V127.28H129.518V127.744C129.518 129.552 130.798 131.2 132.894 131.888L132.238 132.96C130.638 132.432 129.47 131.36 128.862 129.984C128.254 131.568 127.006 132.816 125.326 133.408L124.638 132.304C126.782 131.568 128.142 129.744 128.142 127.744V127.28H125.038V126.144ZM126.51 136.56C126.51 134.912 128.286 133.968 131.15 133.968C134.03 133.968 135.79 134.912 135.79 136.56C135.79 138.224 134.03 139.184 131.15 139.184C128.286 139.184 126.51 138.224 126.51 136.56ZM127.87 136.56C127.87 137.536 129.102 138.096 131.15 138.096C133.198 138.096 134.43 137.536 134.43 136.56C134.43 135.6 133.198 135.056 131.15 135.056C129.102 135.056 127.87 135.6 127.87 136.56ZM134.254 133.6V125.136H135.646V128.672H137.71V129.808H135.646V133.6H134.254ZM140.67 136.704L139.726 139.904H138.734L139.262 136.704H140.67ZM156.97 125.136H158.346V139.216H156.97V125.136ZM146.922 135.408C148.09 135.408 149.418 135.408 150.794 135.36V133.888C149.146 133.68 148.09 132.72 148.09 131.328C148.09 129.744 149.45 128.72 151.482 128.72C153.498 128.72 154.89 129.744 154.89 131.328C154.89 132.72 153.818 133.68 152.186 133.888V135.312C153.514 135.248 154.842 135.136 156.09 134.976L156.186 136C153.066 136.544 149.674 136.576 147.114 136.576L146.922 135.408ZM147.21 127.936V126.832H150.794V125.136H152.186V126.832H155.754V127.936H147.21ZM149.402 131.328C149.402 132.272 150.25 132.864 151.482 132.864C152.73 132.864 153.562 132.272 153.562 131.328C153.562 130.384 152.73 129.776 151.482 129.776C150.25 129.776 149.402 130.384 149.402 131.328ZM166.186 132.544H168.65V130.144H166.426C165.754 132.528 164.25 134.608 161.594 136.192L160.794 135.184C163.77 133.408 165.242 130.96 165.482 128.032H161.434V126.896H166.842C166.842 127.616 166.794 128.336 166.666 129.024H168.65V125.488H169.962V138.496H168.65V133.664H166.186V132.544ZM171.498 139.2V125.12H172.81V139.2H171.498ZM175.627 125.968H182.331V127.088H177.003V128.736H181.947V129.84H177.003V131.584C179.867 131.584 181.531 131.52 183.451 131.2L183.595 132.288C181.563 132.64 179.835 132.688 176.779 132.688H175.627V125.968ZM177.259 139.024V134.208H186.379V139.024H177.259ZM178.603 137.904H185.019V135.312H178.603V137.904ZM184.987 133.52V125.136H186.379V133.52H184.987ZM189.147 126.144H196.699V127.28H193.627V127.744C193.627 129.552 194.907 131.2 197.003 131.888L196.347 132.96C194.747 132.432 193.579 131.36 192.971 129.984C192.363 131.568 191.115 132.816 189.435 133.408L188.747 132.304C190.891 131.568 192.251 129.744 192.251 127.744V127.28H189.147V126.144ZM190.619 136.56C190.619 134.912 192.395 133.968 195.259 133.968C198.139 133.968 199.899 134.912 199.899 136.56C199.899 138.224 198.139 139.184 195.259 139.184C192.395 139.184 190.619 138.224 190.619 136.56ZM191.979 136.56C191.979 137.536 193.211 138.096 195.259 138.096C197.307 138.096 198.539 137.536 198.539 136.56C198.539 135.6 197.307 135.056 195.259 135.056C193.211 135.056 191.979 135.6 191.979 136.56ZM198.363 133.6V125.136H199.755V128.672H201.819V129.808H199.755V133.6H198.363ZM204.78 136.704L203.836 139.904H202.844L203.372 136.704H204.78ZM216.503 130.128H218.743V125.424H220.039V138.496H218.743V131.28H216.503V130.128ZM210.775 135.168C212.727 134.016 213.831 131.488 213.831 129.072V126.448H215.159V129.04C215.159 131.28 216.167 133.68 218.023 134.832L217.239 135.904C215.927 135.104 215.015 133.648 214.519 132C214.007 133.808 213.015 135.36 211.639 136.208L210.775 135.168ZM221.607 139.2V125.12H222.935V139.2H221.607ZM224.952 133.264H237.704V134.4H231.976V139.232H230.6V134.4H224.952V133.264ZM226.552 131.408V125.904H236.072V131.408H226.552ZM227.912 130.32H234.712V127.024H227.912V130.32ZM239.736 125.968H246.44V127.088H241.112V128.736H246.056V129.84H241.112V131.584C243.976 131.584 245.64 131.52 247.56 131.2L247.704 132.288C245.672 132.64 243.944 132.688 240.888 132.688H239.736V125.968ZM241.368 139.024V134.208H250.488V139.024H241.368ZM242.712 137.904H249.128V135.312H242.712V137.904ZM249.096 133.52V125.136H250.488V133.52H249.096ZM253.257 126.144H260.809V127.28H257.737V127.744C257.737 129.552 259.017 131.2 261.113 131.888L260.457 132.96C258.857 132.432 257.689 131.36 257.081 129.984C256.473 131.568 255.225 132.816 253.545 133.408L252.857 132.304C255.001 131.568 256.361 129.744 256.361 127.744V127.28H253.257V126.144ZM254.729 136.56C254.729 134.912 256.505 133.968 259.369 133.968C262.249 133.968 264.009 134.912 264.009 136.56C264.009 138.224 262.249 139.184 259.369 139.184C256.505 139.184 254.729 138.224 254.729 136.56ZM256.089 136.56C256.089 137.536 257.321 138.096 259.369 138.096C261.417 138.096 262.649 137.536 262.649 136.56C262.649 135.6 261.417 135.056 259.369 135.056C257.321 135.056 256.089 135.6 256.089 136.56ZM262.473 133.6V125.136H263.865V128.672H265.929V129.808H263.865V133.6H262.473ZM268.889 136.704L267.945 139.904H266.953L267.481 136.704H268.889ZM275.749 125.856H277.125V127.968H280.789V125.856H282.149V128.544H285.285V125.136H286.677V132.816H285.285V129.68H282.149V132.32H275.749V125.856ZM277.125 131.184H280.789V129.04H277.125V131.184ZM277.621 139.008V133.488H278.981V135.12H285.301V133.488H286.661V139.008H277.621ZM278.981 137.888H285.301V136.24H278.981V137.888ZM289.061 133.264H301.813V134.4H296.085V139.232H294.709V134.4H289.061V133.264ZM290.661 131.408V125.904H300.181V131.408H290.661ZM292.021 130.32H298.821V127.024H292.021V130.32ZM303.846 125.968H310.55V127.088H305.222V128.736H310.166V129.84H305.222V131.584C308.086 131.584 309.75 131.52 311.67 131.2L311.814 132.288C309.782 132.64 308.054 132.688 304.998 132.688H303.846V125.968ZM305.478 139.024V134.208H314.598V139.024H305.478ZM306.822 137.904H313.238V135.312H306.822V137.904ZM313.206 133.52V125.136H314.598V133.52H313.206ZM46.944 152.144H54.496V153.28H51.424V153.744C51.424 155.552 52.704 157.2 54.8 157.888L54.144 158.96C52.544 158.432 51.376 157.36 50.768 155.984C50.16 157.568 48.912 158.816 47.232 159.408L46.544 158.304C48.688 157.568 50.048 155.744 50.048 153.744V153.28H46.944V152.144ZM48.416 162.56C48.416 160.912 50.192 159.968 53.056 159.968C55.936 159.968 57.696 160.912 57.696 162.56C57.696 164.224 55.936 165.184 53.056 165.184C50.192 165.184 48.416 164.224 48.416 162.56ZM49.776 162.56C49.776 163.536 51.008 164.096 53.056 164.096C55.104 164.096 56.336 163.536 56.336 162.56C56.336 161.6 55.104 161.056 53.056 161.056C51.008 161.056 49.776 161.6 49.776 162.56ZM56.16 159.6V151.136H57.552V154.672H59.616V155.808H57.552V159.6H56.16ZM62.5764 162.704L61.6324 165.904H60.6404L61.1684 162.704H62.5764ZM70.5723 160.912C71.1803 162.128 72.2043 162.992 73.4043 162.992C74.9723 163.024 75.9483 162.224 75.9483 160.976C75.9483 158 69.9643 159.248 69.9643 155.2C69.9643 153.328 71.5323 152.256 73.6123 152.272C75.2123 152.304 76.5083 153.152 77.0683 154.848L75.8683 155.264C75.5163 154.128 74.6523 153.472 73.5963 153.456C72.2523 153.44 71.2923 154.08 71.2923 155.2C71.2923 158.144 77.2763 156.944 77.2763 160.992C77.2763 162.912 75.7723 164.208 73.3883 164.176C71.6923 164.144 70.3963 163.2 69.4363 161.52L70.5723 160.912ZM88.7294 152.4L84.5694 164.048H83.0814L78.6974 152.4H80.1214L83.8174 162.192L87.3054 152.4H88.7294ZM90.4205 159.616H103.157V160.768H97.4765V165.232H96.0845V160.768H90.4205V159.616ZM91.2045 157.504C93.7965 157.152 96.0365 155.648 96.0845 153.968H91.6365V152.848H96.0845V151.136H97.4765V152.848H101.925V153.968H97.4765C97.5245 155.616 99.7645 157.152 102.341 157.504L101.845 158.608C99.6365 158.288 97.6845 157.216 96.7885 155.728C95.8925 157.216 93.9405 158.288 91.7005 158.608L91.2045 157.504ZM104.949 152.256H112.645V153.392H109.509V154.08C109.509 155.952 110.933 157.664 113.029 158.368L112.325 159.456C110.709 158.912 109.461 157.76 108.837 156.304C108.229 157.872 106.965 159.12 105.285 159.712L104.565 158.624C106.709 157.872 108.101 156.048 108.101 154.08V153.392H104.949V152.256ZM106.869 164.896V160.448H108.245V163.776H116.373V164.896H106.869ZM114.565 161.424V151.136H115.957V161.424H114.565ZM119.189 151.968H125.893V153.088H120.565V154.736H125.509V155.84H120.565V157.584C123.429 157.584 125.093 157.52 127.013 157.2L127.157 158.288C125.125 158.64 123.397 158.688 120.341 158.688H119.189V151.968ZM120.821 165.024V160.208H129.941V165.024H120.821ZM122.165 163.904H128.581V161.312H122.165V163.904ZM128.549 159.52V151.136H129.941V159.52H128.549ZM132.71 152.144H140.262V153.28H137.19V153.744C137.19 155.552 138.47 157.2 140.566 157.888L139.91 158.96C138.31 158.432 137.142 157.36 136.534 155.984C135.926 157.568 134.678 158.816 132.998 159.408L132.31 158.304C134.454 157.568 135.814 155.744 135.814 153.744V153.28H132.71V152.144ZM134.182 162.56C134.182 160.912 135.958 159.968 138.822 159.968C141.702 159.968 143.462 160.912 143.462 162.56C143.462 164.224 141.702 165.184 138.822 165.184C135.958 165.184 134.182 164.224 134.182 162.56ZM135.542 162.56C135.542 163.536 136.774 164.096 138.822 164.096C140.87 164.096 142.102 163.536 142.102 162.56C142.102 161.6 140.87 161.056 138.822 161.056C136.774 161.056 135.542 161.6 135.542 162.56ZM141.926 159.6V151.136H143.318V154.672H145.382V155.808H143.318V159.6H141.926ZM32.2242 184.16C32.2242 183.445 32.3949 182.939 32.7362 182.64C33.0775 182.331 33.4989 182.176 34.0002 182.176C34.4909 182.176 34.9069 182.331 35.2482 182.64C35.6002 182.939 35.7762 183.445 35.7762 184.16C35.7762 184.864 35.6002 185.371 35.2482 185.68C34.9069 185.989 34.4909 186.144 34.0002 186.144C33.4989 186.144 33.0775 185.989 32.7362 185.68C32.3949 185.371 32.2242 184.864 32.2242 184.16ZM48.192 178.032H57.696V179.264C57.696 180.592 57.696 182.048 57.296 184.08H59.344V185.232H53.648V191.232H52.24V185.232H46.608V184.08H55.888C56.32 182.08 56.32 180.576 56.32 179.264V179.152H48.192V178.032ZM71.2324 177.12H72.5604V191.2H71.2324V183.808H69.4244V190.496H68.1284V177.424H69.4244V182.672H71.2324V177.12ZM61.0884 187.456V178.72H66.4644V187.456H61.0884ZM62.3844 186.368H65.1844V179.824H62.3844V186.368ZM78.0807 177.92H79.4568V179.28C79.4568 181.264 80.7688 183.024 82.8488 183.728L82.0968 184.816C80.5768 184.24 79.4248 183.136 78.8168 181.712C78.2088 183.344 76.9608 184.608 75.2648 185.232L74.5448 184.112C76.7208 183.344 78.0807 181.472 78.0807 179.328V177.92ZM76.8008 188.528C76.8008 186.832 78.5928 185.856 81.5208 185.856C84.4328 185.856 86.2248 186.832 86.2248 188.528C86.2248 190.224 84.4328 191.184 81.5208 191.184C78.5928 191.184 76.8008 190.224 76.8008 188.528ZM78.1927 188.528C78.1927 189.52 79.4248 190.096 81.5208 190.096C83.6008 190.096 84.8488 189.52 84.8488 188.528C84.8488 187.52 83.6008 186.944 81.5208 186.944C79.4248 186.944 78.1927 187.52 78.1927 188.528ZM81.7768 181.2V180.048H84.7688V177.136H86.1608V185.44H84.7688V181.2H81.7768ZM92.2326 185.632H104.985V186.784H99.3046V191.232H97.9126V186.784H92.2326V185.632ZM93.9446 184.256V177.776H103.417V178.896H95.2886V180.416H103.113V181.52H95.2886V183.136H103.577V184.256H93.9446ZM106.489 178.56H114.105V179.712H111.033V181.36C111.033 183.584 112.553 186.08 114.633 187.056L113.849 188.16C112.281 187.392 111.001 185.776 110.361 183.92C109.721 185.936 108.393 187.712 106.809 188.512L105.993 187.408C108.041 186.4 109.673 183.744 109.673 181.36V179.712H106.489V178.56ZM115.689 191.216V177.136H117.081V182.784H119.353V183.936H117.081V191.216H115.689ZM124.761 178.128C126.953 178.128 128.537 179.504 128.537 181.472C128.537 183.456 126.953 184.816 124.761 184.816C122.553 184.816 120.969 183.456 120.969 181.472C120.969 179.504 122.553 178.128 124.761 178.128ZM120.281 187.008C122.825 187.008 126.377 187.008 129.417 186.528L129.529 187.552C126.393 188.16 122.953 188.176 120.457 188.176L120.281 187.008ZM122.313 181.472C122.313 182.736 123.353 183.616 124.761 183.616C126.153 183.616 127.193 182.736 127.193 181.472C127.193 180.192 126.153 179.328 124.761 179.328C123.353 179.328 122.313 180.192 122.313 181.472ZM130.329 191.232V177.104H131.705V191.232H130.329ZM144.497 182.608H148.097V180.8H144.641C143.745 183.056 141.617 184.672 138.609 185.552L138.049 184.448C141.409 183.488 143.393 181.648 143.633 179.296H138.785V178.16H145.137C145.137 178.688 145.089 179.2 144.993 179.68H148.097V177.12H149.489V185.52H148.097V183.728H144.497V182.608ZM140.225 188.416C140.225 186.704 142.033 185.68 144.897 185.68C147.729 185.68 149.553 186.704 149.553 188.416C149.553 190.112 147.729 191.136 144.897 191.136C142.033 191.136 140.225 190.112 140.225 188.416ZM141.601 188.416C141.601 189.44 142.881 190.048 144.897 190.048C146.929 190.048 148.193 189.44 148.193 188.416C148.193 187.376 146.929 186.768 144.897 186.768C142.881 186.768 141.601 187.376 141.601 188.416ZM151.874 185.168H164.626V186.304H158.898V191.216H157.522V186.304H151.874V185.168ZM153.266 180.784C153.266 178.88 155.266 177.696 158.21 177.696C161.17 177.696 163.154 178.88 163.154 180.784C163.154 182.672 161.17 183.872 158.21 183.872C155.266 183.872 153.266 182.672 153.266 180.784ZM154.69 180.784C154.69 182 156.098 182.768 158.21 182.768C160.322 182.768 161.746 182 161.746 180.784C161.746 179.584 160.322 178.8 158.21 178.8C156.098 178.8 154.69 179.584 154.69 180.784ZM167.842 188.704L166.898 191.904H165.906L166.434 188.704H167.842ZM175.614 178.032H185.118V179.264C185.118 180.592 185.118 182.048 184.718 184.08H186.766V185.232H181.07V191.232H179.662V185.232H174.03V184.08H183.31C183.742 182.08 183.742 180.576 183.742 179.264V179.152H175.614V178.032ZM198.654 177.12H199.982V191.2H198.654V183.808H196.846V190.496H195.55V177.424H196.846V182.672H198.654V177.12ZM188.51 187.456V178.72H193.886V187.456H188.51ZM189.806 186.368H192.606V179.824H189.806V186.368ZM202.799 177.968H209.503V179.088H204.175V180.736H209.119V181.84H204.175V183.584C207.039 183.584 208.703 183.52 210.623 183.2L210.767 184.288C208.735 184.64 207.007 184.688 203.951 184.688H202.799V177.968ZM204.431 191.024V186.208H213.551V191.024H204.431ZM205.775 189.904H212.191V187.312H205.775V189.904ZM212.159 185.52V177.136H213.551V185.52H212.159ZM216.319 178.144H223.871V179.28H220.799V179.744C220.799 181.552 222.079 183.2 224.175 183.888L223.519 184.96C221.919 184.432 220.751 183.36 220.143 181.984C219.535 183.568 218.287 184.816 216.607 185.408L215.919 184.304C218.063 183.568 219.423 181.744 219.423 179.744V179.28H216.319V178.144ZM217.791 188.56C217.791 186.912 219.567 185.968 222.431 185.968C225.311 185.968 227.071 186.912 227.071 188.56C227.071 190.224 225.311 191.184 222.431 191.184C219.567 191.184 217.791 190.224 217.791 188.56ZM219.151 188.56C219.151 189.536 220.383 190.096 222.431 190.096C224.479 190.096 225.711 189.536 225.711 188.56C225.711 187.6 224.479 187.056 222.431 187.056C220.383 187.056 219.151 187.6 219.151 188.56ZM225.535 185.6V177.136H226.927V180.672H228.991V181.808H226.927V185.6H225.535ZM233.655 188.32H239.303V185.216H234.807V184.096H236.903V179.568H234.759V178.448H245.239V179.568H243.095V184.096H245.223V185.216H240.679V188.32H246.407V189.472H233.655V188.32ZM238.295 184.096H241.719V179.568H238.295V184.096ZM257.191 177.136H258.583V180.832H260.647V181.968H258.583V185.6H257.191V177.136ZM247.671 179.696V178.592H251.143V177.008H252.519V178.592H255.991V179.696H247.671ZM248.455 182.88C248.455 181.36 249.815 180.352 251.831 180.352C253.847 180.352 255.207 181.36 255.207 182.88C255.207 184.4 253.847 185.392 251.831 185.392C249.815 185.392 248.455 184.4 248.455 182.88ZM249.703 191.024V186.368H258.583V191.024H249.703ZM249.767 182.88C249.767 183.776 250.599 184.336 251.831 184.336C253.047 184.336 253.879 183.776 253.879 182.88C253.879 181.968 253.047 181.408 251.831 181.408C250.599 181.408 249.767 181.968 249.767 182.88ZM251.063 189.904H257.223V187.488H251.063V189.904Z" fill="#3F3F46"/>
</g>
<defs>
<filter id="filter0_d_4103_3217" x="0.657534" y="64.9932" width="349.685" height="162.685" filterUnits="userSpaceOnUse" color-interpolation-filters="sRGB">
<feFlood flood-opacity="0" result="BackgroundImageFix"/>
<feColorMatrix in="SourceAlpha" type="matrix" values="0 0 0 0 0 0 0 0 0 0 0 0 0 0 0 0 0 0 127 0" result="hardAlpha"/>
<feOffset dy="1.33562"/>
<feGaussianBlur stdDeviation="2.67123"/>
<feComposite in2="hardAlpha" operator="out"/>
<feColorMatrix type="matrix" values="0 0 0 0 0 0 0 0 0 0 0 0 0 0 0 0 0 0 0.1 0"/>
<feBlend mode="normal" in2="BackgroundImageFix" result="effect1_dropShadow_4103_3217"/>
<feBlend mode="normal" in="SourceGraphic" in2="effect1_dropShadow_4103_3217" result="shape"/>
</filter>
</defs>
</svg>
