<svg width="815" height="457" viewBox="0 0 815 457" fill="none" xmlns="http://www.w3.org/2000/svg">
<rect x="4" y="7" width="1" height="12" fill="#D9D9D9"/>
<rect x="5" y="13.5" width="1" height="84" transform="rotate(-90 5 13.5)" fill="#D9D9D9"/>
<path d="M106.872 7.336H117.064V8.712C117.064 10.488 117.064 12.472 116.536 15.448L114.76 15.256C115.304 12.488 115.304 10.456 115.304 8.76H106.872V7.336ZM105.544 18.456V17.016H110.28V12.056H112.024V17.016H118.424V18.456H105.544ZM124.136 6.648C126.28 6.648 127.832 7.88 127.832 9.656C127.832 11.4 126.28 12.648 124.136 12.648C122.008 12.648 120.44 11.4 120.44 9.656C120.44 7.88 122.008 6.648 124.136 6.648ZM119.528 13.624C122.072 13.624 125.624 13.608 128.696 13.128L128.808 14.424C127.576 14.664 126.312 14.808 125.08 14.904V19.848H123.32V15.016C122.024 15.064 120.808 15.08 119.736 15.08L119.528 13.624ZM122.136 9.656C122.136 10.616 122.984 11.208 124.136 11.208C125.304 11.208 126.152 10.616 126.152 9.656C126.152 8.68 125.304 8.088 124.136 8.088C122.984 8.088 122.136 8.68 122.136 9.656ZM129.576 20.296V6.04H131.336V20.296H129.576ZM143.561 6.056H145.321V14.648H143.561V11.704H141.561V10.28H143.561V6.056ZM133.529 8.776V7.384H136.793V5.912H138.537V7.384H141.817V8.776H133.529ZM134.297 11.896C134.297 10.392 135.721 9.336 137.673 9.336C139.641 9.336 141.033 10.392 141.033 11.896C141.033 13.4 139.641 14.44 137.673 14.44C135.721 14.44 134.297 13.4 134.297 11.896ZM135.929 20.12V15.304H145.321V20.12H135.929ZM135.993 11.896C135.993 12.664 136.681 13.144 137.673 13.144C138.665 13.144 139.353 12.664 139.353 11.896C139.353 11.112 138.665 10.648 137.673 10.648C136.681 10.648 135.993 11.112 135.993 11.896ZM137.657 18.728H143.609V16.712H137.657V18.728Z" fill="#F47725"/>
<rect width="1" height="12" transform="matrix(-1 0 0 1 248 7)" fill="#D9D9D9"/>
<rect width="1" height="84" transform="matrix(0 -1 -1 0 247 13.5)" fill="#D9D9D9"/>
<rect x="256" y="7" width="1" height="12" fill="#D9D9D9"/>
<rect x="257" y="13.5" width="1" height="121" transform="rotate(-90 257 13.5)" fill="#D9D9D9"/>
<path d="M394.544 12.6H407.408V14.008H401.84V15.24C404.368 15.4 405.872 16.28 405.872 17.752C405.872 19.368 404.016 20.28 400.96 20.28C397.888 20.28 396.032 19.368 396.032 17.752C396.032 16.28 397.536 15.4 400.08 15.24V14.008H394.544V12.6ZM395.152 10.552C397.776 10.312 399.44 9.24 399.728 8.072H395.712V6.68H406.256V8.072H402.224C402.512 9.256 404.16 10.312 406.8 10.552L406.176 11.928C403.616 11.656 401.728 10.632 400.976 9.192C400.224 10.632 398.336 11.656 395.76 11.928L395.152 10.552ZM397.808 17.752C397.808 18.552 398.912 18.952 400.96 18.952C402.992 18.952 404.096 18.552 404.096 17.752C404.096 16.936 402.992 16.536 400.96 16.536C398.912 16.536 397.808 16.936 397.808 17.752ZM413.136 6.648C415.28 6.648 416.832 7.88 416.832 9.656C416.832 11.4 415.28 12.648 413.136 12.648C411.008 12.648 409.44 11.4 409.44 9.656C409.44 7.88 411.008 6.648 413.136 6.648ZM408.528 13.624C411.072 13.624 414.624 13.608 417.696 13.128L417.808 14.424C416.576 14.664 415.312 14.808 414.08 14.904V19.848H412.32V15.016C411.024 15.064 409.808 15.08 408.736 15.08L408.528 13.624ZM411.136 9.656C411.136 10.616 411.984 11.208 413.136 11.208C414.304 11.208 415.152 10.616 415.152 9.656C415.152 8.68 414.304 8.088 413.136 8.088C411.984 8.088 411.136 8.68 411.136 9.656ZM418.576 20.296V6.04H420.336V20.296H418.576ZM432.561 6.056H434.321V14.648H432.561V11.704H430.561V10.28H432.561V6.056ZM422.529 8.776V7.384H425.793V5.912H427.537V7.384H430.817V8.776H422.529ZM423.297 11.896C423.297 10.392 424.721 9.336 426.673 9.336C428.641 9.336 430.033 10.392 430.033 11.896C430.033 13.4 428.641 14.44 426.673 14.44C424.721 14.44 423.297 13.4 423.297 11.896ZM424.929 20.12V15.304H434.321V20.12H424.929ZM424.993 11.896C424.993 12.664 425.681 13.144 426.673 13.144C427.665 13.144 428.353 12.664 428.353 11.896C428.353 11.112 427.665 10.648 426.673 10.648C425.681 10.648 424.993 11.112 424.993 11.896ZM426.657 18.728H432.609V16.712H426.657V18.728Z" fill="#6D0CA6"/>
<rect width="1" height="12" transform="matrix(-1 0 0 1 574 7)" fill="#D9D9D9"/>
<rect width="1" height="121" transform="matrix(0 -1 -1 0 573 13.5)" fill="#D9D9D9"/>
<rect x="582" y="7" width="1" height="12" fill="#D9D9D9"/>
<rect x="583" y="13.5" width="1" height="76.5" transform="rotate(-90 583 13.5)" fill="#D9D9D9"/>
<path d="M686.14 6.024H687.884V20.312H686.14V12.52H683.404V11.096H686.14V6.024ZM675.852 16.2C678.108 15.128 679.436 12.424 679.436 9.816V8.872H676.396V7.448H684.252V8.872H681.212V9.816C681.212 12.28 682.54 14.888 684.796 15.912L683.772 17.304C682.14 16.52 680.972 14.952 680.348 13.08C679.724 15.08 678.524 16.76 676.876 17.592L675.852 16.2ZM694.636 6.648C696.78 6.648 698.332 7.88 698.332 9.656C698.332 11.4 696.78 12.648 694.636 12.648C692.508 12.648 690.94 11.4 690.94 9.656C690.94 7.88 692.508 6.648 694.636 6.648ZM690.028 13.624C692.572 13.624 696.124 13.608 699.196 13.128L699.308 14.424C698.076 14.664 696.812 14.808 695.58 14.904V19.848H693.82V15.016C692.524 15.064 691.308 15.08 690.236 15.08L690.028 13.624ZM692.636 9.656C692.636 10.616 693.484 11.208 694.636 11.208C695.804 11.208 696.652 10.616 696.652 9.656C696.652 8.68 695.804 8.088 694.636 8.088C693.484 8.088 692.636 8.68 692.636 9.656ZM700.076 20.296V6.04H701.836V20.296H700.076ZM714.061 6.056H715.821V14.648H714.061V11.704H712.061V10.28H714.061V6.056ZM704.029 8.776V7.384H707.293V5.912H709.037V7.384H712.317V8.776H704.029ZM704.797 11.896C704.797 10.392 706.221 9.336 708.173 9.336C710.141 9.336 711.533 10.392 711.533 11.896C711.533 13.4 710.141 14.44 708.173 14.44C706.221 14.44 704.797 13.4 704.797 11.896ZM706.429 20.12V15.304H715.821V20.12H706.429ZM706.493 11.896C706.493 12.664 707.181 13.144 708.173 13.144C709.165 13.144 709.853 12.664 709.853 11.896C709.853 11.112 709.165 10.648 708.173 10.648C707.181 10.648 706.493 11.112 706.493 11.896ZM708.157 18.728H714.109V16.712H708.157V18.728Z" fill="#3F3F46"/>
<rect width="1" height="12" transform="matrix(-1 0 0 1 811 7)" fill="#D9D9D9"/>
<rect width="1" height="76.5" transform="matrix(0 -1 -1 0 810 13.5)" fill="#D9D9D9"/>
<mask id="path-16-inside-1_4092_2718" fill="white">
<path d="M0 38H126V68H0V38Z"/>
</mask>
<path d="M0 38H126V68H0V38Z" fill="#F6F6F7"/>
<path d="M125 38V68H127V38H125Z" fill="#E4E4E7" mask="url(#path-16-inside-1_4092_2718)"/>
<path d="M47.934 47.85V48.886H42.712V52.274H47.22V53.31H42.712V57.006H47.934V58.042H41.536V47.85H47.934ZM50.7078 55.298C51.2398 56.362 52.1358 57.118 53.1858 57.118C54.5578 57.146 55.4118 56.446 55.4118 55.354C55.4118 52.75 50.1758 53.842 50.1758 50.3C50.1758 48.662 51.5478 47.724 53.3678 47.738C54.7678 47.766 55.9018 48.508 56.3918 49.992L55.3418 50.356C55.0338 49.362 54.2778 48.788 53.3538 48.774C52.1778 48.76 51.3378 49.32 51.3378 50.3C51.3378 52.876 56.5738 51.826 56.5738 55.368C56.5738 57.048 55.2578 58.182 53.1718 58.154C51.6878 58.126 50.5538 57.3 49.7138 55.83L50.7078 55.298ZM67.8403 52.736C67.8403 53.086 67.8263 53.534 67.8263 53.576C67.8263 56.474 65.7823 58.098 63.0383 58.154C60.0983 58.154 58.0123 55.998 58.0123 52.946C58.0123 49.894 60.0983 47.752 63.0383 47.752C66.2163 47.752 67.3083 50.216 67.3083 50.216L66.2863 50.706C66.2863 50.706 65.4603 48.788 63.0383 48.788C60.7703 48.788 59.1883 50.496 59.1883 52.946C59.1883 55.41 60.7703 57.118 63.0383 57.118C65.1382 57.048 66.6923 55.97 66.7063 53.744H63.2203V52.736H67.8403ZM70.0536 52.26H76.0316V53.422H70.0536V52.26ZM79.9862 58.014H78.7122L82.7582 48.9H77.9282V47.864H83.8922L84.0322 48.9L79.9862 58.014Z" fill="#3F3F46"/>
<rect width="126" height="30" transform="translate(126 38)" fill="#F47725"/>
<path d="M173.934 47.85V48.886H168.712V52.274H173.22V53.31H168.712V57.006H173.934V58.042H167.536V47.85H173.934ZM176.708 55.298C177.24 56.362 178.136 57.118 179.186 57.118C180.558 57.146 181.412 56.446 181.412 55.354C181.412 52.75 176.176 53.842 176.176 50.3C176.176 48.662 177.548 47.724 179.368 47.738C180.768 47.766 181.902 48.508 182.392 49.992L181.342 50.356C181.034 49.362 180.278 48.788 179.354 48.774C178.178 48.76 177.338 49.32 177.338 50.3C177.338 52.876 182.574 51.826 182.574 55.368C182.574 57.048 181.258 58.182 179.172 58.154C177.688 58.126 176.554 57.3 175.714 55.83L176.708 55.298ZM193.84 52.736C193.84 53.086 193.826 53.534 193.826 53.576C193.826 56.474 191.782 58.098 189.038 58.154C186.098 58.154 184.012 55.998 184.012 52.946C184.012 49.894 186.098 47.752 189.038 47.752C192.216 47.752 193.308 50.216 193.308 50.216L192.286 50.706C192.286 50.706 191.46 48.788 189.038 48.788C186.77 48.788 185.188 50.496 185.188 52.946C185.188 55.41 186.77 57.118 189.038 57.118C191.138 57.048 192.692 55.97 192.706 53.744H189.22V52.736H193.84ZM196.054 52.26H202.032V53.422H196.054V52.26ZM207.106 57.09C208.436 57.09 209.36 56.138 209.36 54.78C209.36 53.408 208.436 52.456 207.106 52.456C205.818 52.456 204.894 53.408 204.894 54.78C204.894 56.138 205.818 57.09 207.106 57.09ZM203.732 54.78C203.732 54.052 203.97 53.408 204.264 52.876L207.106 47.864H208.45L206.364 51.504C206.616 51.462 206.868 51.42 207.134 51.42C209.136 51.42 210.522 52.806 210.522 54.78C210.522 56.74 209.122 58.126 207.134 58.126C205.132 58.126 203.732 56.74 203.732 54.78Z" fill="white"/>
<rect width="108.667" height="30" transform="translate(252 38)" fill="#9735D0"/>
<path d="M291.27 47.85V48.886H286.048V52.274H290.556V53.31H286.048V57.006H291.27V58.042H284.872V47.85H291.27ZM294.044 55.298C294.576 56.362 295.472 57.118 296.522 57.118C297.894 57.146 298.748 56.446 298.748 55.354C298.748 52.75 293.512 53.842 293.512 50.3C293.512 48.662 294.884 47.724 296.704 47.738C298.104 47.766 299.238 48.508 299.728 49.992L298.678 50.356C298.37 49.362 297.614 48.788 296.69 48.774C295.514 48.76 294.674 49.32 294.674 50.3C294.674 52.876 299.91 51.826 299.91 55.368C299.91 57.048 298.594 58.182 296.508 58.154C295.024 58.126 293.89 57.3 293.05 55.83L294.044 55.298ZM311.176 52.736C311.176 53.086 311.162 53.534 311.162 53.576C311.162 56.474 309.118 58.098 306.374 58.154C303.434 58.154 301.348 55.998 301.348 52.946C301.348 49.894 303.434 47.752 306.374 47.752C309.552 47.752 310.644 50.216 310.644 50.216L309.622 50.706C309.622 50.706 308.796 48.788 306.374 48.788C304.106 48.788 302.524 50.496 302.524 52.946C302.524 55.41 304.106 57.118 306.374 57.118C308.474 57.048 310.028 55.97 310.042 53.744H306.556V52.736H311.176ZM313.39 52.26H319.368V53.422H313.39V52.26ZM322.692 53.31L321.53 53.142L321.866 47.864H327.032V48.9H322.986L322.79 51.812C323.294 51.546 323.868 51.392 324.386 51.392C326.416 51.392 327.858 52.778 327.858 54.738C327.858 56.74 326.416 58.154 324.386 58.154C322.804 58.154 321.432 57.09 321.082 55.578L322.216 55.312C322.44 56.334 323.336 57.048 324.386 57.048C325.744 57.048 326.696 56.096 326.696 54.738C326.696 53.422 325.744 52.498 324.386 52.498C323.812 52.498 323.112 52.834 322.692 53.31Z" fill="white"/>
<mask id="path-21-inside-2_4092_2718" fill="white">
<path d="M360.664 38H469.331V68H360.664V38Z"/>
</mask>
<path d="M360.664 38H469.331V68H360.664V38Z" fill="#F6F6F7"/>
<path d="M468.331 38V68H470.331V38H468.331Z" fill="#E4E4E7" mask="url(#path-21-inside-2_4092_2718)"/>
<path d="M399.434 47.85V48.886H394.212V52.274H398.72V53.31H394.212V57.006H399.434V58.042H393.036V47.85H399.434ZM402.208 55.298C402.74 56.362 403.636 57.118 404.686 57.118C406.058 57.146 406.912 56.446 406.912 55.354C406.912 52.75 401.676 53.842 401.676 50.3C401.676 48.662 403.048 47.724 404.868 47.738C406.268 47.766 407.402 48.508 407.892 49.992L406.842 50.356C406.534 49.362 405.778 48.788 404.854 48.774C403.678 48.76 402.838 49.32 402.838 50.3C402.838 52.876 408.074 51.826 408.074 55.368C408.074 57.048 406.758 58.182 404.672 58.154C403.188 58.126 402.054 57.3 401.214 55.83L402.208 55.298ZM419.34 52.736C419.34 53.086 419.326 53.534 419.326 53.576C419.326 56.474 417.282 58.098 414.538 58.154C411.598 58.154 409.512 55.998 409.512 52.946C409.512 49.894 411.598 47.752 414.538 47.752C417.716 47.752 418.808 50.216 418.808 50.216L417.786 50.706C417.786 50.706 416.96 48.788 414.538 48.788C412.27 48.788 410.688 50.496 410.688 52.946C410.688 55.41 412.27 57.118 414.538 57.118C416.638 57.048 418.192 55.97 418.206 53.744H414.72V52.736H419.34ZM421.554 52.26H427.532V53.422H421.554V52.26ZM434.944 47.878V54.22H436.372V55.242H434.944V58.014H433.782V55.242H429.372L429.232 54.22L433.824 47.878H434.944ZM430.646 54.22H433.782V49.88L430.646 54.22Z" fill="#3F3F46"/>
<mask id="path-24-inside-3_4092_2718" fill="white">
<path d="M469.336 38H578.003V68H469.336V38Z"/>
</mask>
<path d="M469.336 38H578.003V68H469.336V38Z" fill="#F6F6F7"/>
<path d="M577.003 38V68H579.003V38H577.003Z" fill="#E4E4E7" mask="url(#path-24-inside-3_4092_2718)"/>
<path d="M508.606 47.85V48.886H503.384V52.274H507.892V53.31H503.384V57.006H508.606V58.042H502.208V47.85H508.606ZM511.38 55.298C511.912 56.362 512.808 57.118 513.858 57.118C515.23 57.146 516.084 56.446 516.084 55.354C516.084 52.75 510.848 53.842 510.848 50.3C510.848 48.662 512.22 47.724 514.04 47.738C515.44 47.766 516.574 48.508 517.064 49.992L516.014 50.356C515.706 49.362 514.95 48.788 514.026 48.774C512.85 48.76 512.01 49.32 512.01 50.3C512.01 52.876 517.246 51.826 517.246 55.368C517.246 57.048 515.93 58.182 513.844 58.154C512.36 58.126 511.226 57.3 510.386 55.83L511.38 55.298ZM528.512 52.736C528.512 53.086 528.498 53.534 528.498 53.576C528.498 56.474 526.454 58.098 523.71 58.154C520.77 58.154 518.684 55.998 518.684 52.946C518.684 49.894 520.77 47.752 523.71 47.752C526.888 47.752 527.98 50.216 527.98 50.216L526.958 50.706C526.958 50.706 526.132 48.788 523.71 48.788C521.442 48.788 519.86 50.496 519.86 52.946C519.86 55.41 521.442 57.118 523.71 57.118C525.81 57.048 527.364 55.97 527.378 53.744H523.892V52.736H528.512ZM530.725 52.26H536.703V53.422H530.725V52.26ZM543.626 52.778C544.522 53.324 545.04 54.304 545.04 55.144C545.04 56.88 543.668 58.098 541.722 58.098C539.776 58.098 538.404 56.866 538.404 55.116H539.566C539.566 56.264 540.462 57.062 541.722 57.062C542.996 57.062 543.892 56.264 543.892 55.13C543.892 54.052 542.996 53.282 541.75 53.282H541.008V52.246H541.75C542.912 52.246 543.752 51.56 543.752 50.566C543.752 49.544 542.94 48.83 541.806 48.83C540.658 48.83 539.86 49.558 539.86 50.594H538.698C538.698 48.942 539.972 47.794 541.806 47.794C543.612 47.794 544.9 48.928 544.9 50.552C544.9 51.322 544.438 52.232 543.626 52.778Z" fill="#3F3F46"/>
<mask id="path-27-inside-4_4092_2718" fill="white">
<path d="M578 38H696.5V68H578V38Z"/>
</mask>
<path d="M578 38H696.5V68H578V38Z" fill="#F6F6F7"/>
<path d="M695.5 38V68H697.5V38H695.5Z" fill="#E4E4E7" mask="url(#path-27-inside-4_4092_2718)"/>
<path d="M622.184 47.85V48.886H616.962V52.274H621.47V53.31H616.962V57.006H622.184V58.042H615.786V47.85H622.184ZM624.958 55.298C625.49 56.362 626.386 57.118 627.436 57.118C628.808 57.146 629.662 56.446 629.662 55.354C629.662 52.75 624.426 53.842 624.426 50.3C624.426 48.662 625.798 47.724 627.618 47.738C629.018 47.766 630.152 48.508 630.642 49.992L629.592 50.356C629.284 49.362 628.528 48.788 627.604 48.774C626.428 48.76 625.588 49.32 625.588 50.3C625.588 52.876 630.824 51.826 630.824 55.368C630.824 57.048 629.508 58.182 627.422 58.154C625.938 58.126 624.804 57.3 623.964 55.83L624.958 55.298ZM642.09 52.736C642.09 53.086 642.076 53.534 642.076 53.576C642.076 56.474 640.032 58.098 637.288 58.154C634.348 58.154 632.262 55.998 632.262 52.946C632.262 49.894 634.348 47.752 637.288 47.752C640.466 47.752 641.558 50.216 641.558 50.216L640.536 50.706C640.536 50.706 639.71 48.788 637.288 48.788C635.02 48.788 633.438 50.496 633.438 52.946C633.438 55.41 635.02 57.118 637.288 57.118C639.388 57.048 640.942 55.97 640.956 53.744H637.47V52.736H642.09ZM644.304 52.26H650.282V53.422H644.304V52.26ZM652.094 56.992C654.11 55.046 657.064 52.75 657.064 50.944C657.064 49.698 656.266 48.816 655.132 48.816C654.292 48.816 653.438 49.432 653.046 50.328L651.996 49.866C652.542 48.634 653.844 47.766 655.132 47.766C656.952 47.766 658.226 49.082 658.226 50.944C658.226 53.086 655.636 55.228 653.704 56.992H658.394V58.028H652.234L652.094 56.992Z" fill="#3F3F46"/>
<rect width="118.5" height="30" transform="translate(696.5 38)" fill="#F6F6F7"/>
<path d="M742.184 47.85V48.886H736.962V52.274H741.47V53.31H736.962V57.006H742.184V58.042H735.786V47.85H742.184ZM744.958 55.298C745.49 56.362 746.386 57.118 747.436 57.118C748.808 57.146 749.662 56.446 749.662 55.354C749.662 52.75 744.426 53.842 744.426 50.3C744.426 48.662 745.798 47.724 747.618 47.738C749.018 47.766 750.152 48.508 750.642 49.992L749.592 50.356C749.284 49.362 748.528 48.788 747.604 48.774C746.428 48.76 745.588 49.32 745.588 50.3C745.588 52.876 750.824 51.826 750.824 55.368C750.824 57.048 749.508 58.182 747.422 58.154C745.938 58.126 744.804 57.3 743.964 55.83L744.958 55.298ZM762.09 52.736C762.09 53.086 762.076 53.534 762.076 53.576C762.076 56.474 760.032 58.098 757.288 58.154C754.348 58.154 752.262 55.998 752.262 52.946C752.262 49.894 754.348 47.752 757.288 47.752C760.466 47.752 761.558 50.216 761.558 50.216L760.536 50.706C760.536 50.706 759.71 48.788 757.288 48.788C755.02 48.788 753.438 50.496 753.438 52.946C753.438 55.41 755.02 57.118 757.288 57.118C759.388 57.048 760.942 55.97 760.956 53.744H757.47V52.736H762.09ZM764.304 52.26H770.282V53.422H764.304V52.26ZM775.272 47.892V58.014H774.11V49.18L772.458 50.244L771.884 49.32L774.11 47.892H775.272Z" fill="#3F3F46"/>
<path d="M70.4146 97.56C72.7506 95.32 75.9346 93.048 75.9346 91.08C75.9346 89.768 75.1026 88.84 73.9186 88.84C73.0066 88.84 72.0946 89.496 71.6786 90.44L70.1906 89.784C70.8306 88.312 72.3826 87.288 73.9186 87.288C76.1106 87.288 77.6306 88.856 77.6306 91.08C77.6306 93.528 74.9746 95.704 72.8146 97.56H77.8226V99.048H70.5746L70.4146 97.56ZM82.2894 99.08H80.4334L84.9934 88.84L79.6494 88.856V87.352H86.6894L86.8494 88.84L82.2894 99.08ZM98.6323 86.04H100.328V100.28H98.6323V92.968H97.1443V99.64H95.4803V86.408H97.1443V91.544H98.6323V86.04ZM88.0723 96.088C91.0803 94.344 92.3443 92.12 92.5843 89.256H88.7283V87.832H94.3123C94.3123 91.704 93.1123 95 89.0963 97.32L88.0723 96.088ZM115.888 86.04H117.648V100.28H115.888V86.04ZM105.952 96.392C109.648 94.616 111.328 92.2 111.632 88.952H106.656V87.528H113.44C113.44 91.8 111.824 95.384 106.864 97.784L105.952 96.392ZM123.761 86.664C125.617 86.664 127.057 87.72 127.392 89.288H129.921V86.056H131.681V93.688H129.921V90.712H127.409C127.089 92.312 125.633 93.384 123.761 93.384C121.617 93.384 120.033 91.992 120.033 90.024C120.033 88.056 121.617 86.664 123.761 86.664ZM121.713 90.024C121.713 91.176 122.561 91.912 123.761 91.912C124.945 91.912 125.793 91.176 125.793 90.024C125.793 88.856 124.945 88.12 123.761 88.12C122.561 88.12 121.713 88.856 121.713 90.024ZM122.353 100.12V94.36H124.113V95.864H129.937V94.36H131.681V100.12H122.353ZM124.113 98.712H129.937V97.224H124.113V98.712ZM134.961 93.224C134.961 91.144 135.777 88.408 136.929 86.584H138.721C137.409 88.392 136.497 91.128 136.497 93.224C136.497 95.32 137.409 98.056 138.721 99.864H136.929C135.777 98.04 134.961 95.304 134.961 93.224ZM147.414 87.4V94.568H148.886V96.04H147.414V99.048H145.718V96.04H140.71L140.55 94.568L145.798 87.4H147.414ZM142.566 94.568H145.718V90.232L142.566 94.568ZM154.424 97.784C155.752 97.784 156.68 96.936 156.68 95.72C156.68 94.504 155.752 93.64 154.424 93.64C153.096 93.64 152.152 94.504 152.152 95.72C152.152 96.936 153.096 97.784 154.424 97.784ZM150.456 95.752C150.456 94.728 151.256 93.544 152.376 92.92C151.448 92.28 150.776 91.24 150.776 90.408C150.776 88.52 152.28 87.208 154.424 87.208C156.568 87.208 158.072 88.52 158.072 90.408C158.072 91.256 157.416 92.296 156.472 92.92C157.592 93.56 158.392 94.728 158.392 95.752C158.392 97.8 156.76 99.24 154.424 99.24C152.104 99.24 150.456 97.8 150.456 95.752ZM152.488 90.408C152.488 91.448 153.288 92.184 154.424 92.184C155.576 92.184 156.376 91.448 156.376 90.408C156.376 89.368 155.576 88.648 154.424 88.648C153.288 88.648 152.488 89.368 152.488 90.408ZM163.188 99.096L170.548 87.32H172.292L164.9 99.096H163.188ZM160.484 90.328C160.484 88.536 161.844 87.128 163.604 87.128C165.332 87.128 166.708 88.536 166.708 90.328C166.708 92.12 165.332 93.528 163.604 93.528C161.844 93.528 160.484 92.12 160.484 90.328ZM162.084 90.328C162.084 91.224 162.74 91.944 163.604 91.944C164.452 91.944 165.124 91.224 165.124 90.328C165.124 89.432 164.452 88.728 163.604 88.728C162.74 88.728 162.084 89.432 162.084 90.328ZM168.628 95.992C168.628 94.2 169.988 92.792 171.748 92.792C173.476 92.792 174.852 94.2 174.852 95.992C174.852 97.784 173.476 99.208 171.748 99.208C169.988 99.208 168.628 97.784 168.628 95.992ZM170.228 95.992C170.228 96.888 170.884 97.608 171.748 97.608C172.596 97.608 173.268 96.888 173.268 95.992C173.268 95.096 172.596 94.392 171.748 94.392C170.884 94.392 170.228 95.096 170.228 95.992ZM180.925 93.224C180.925 95.304 180.125 98.024 178.973 99.864H177.181C178.477 98.072 179.389 95.32 179.389 93.224C179.389 91.128 178.477 88.376 177.181 86.584H178.973C180.125 88.424 180.925 91.144 180.925 93.224Z" fill="#F47725"/>
<path d="M359.407 97.56C361.743 95.32 364.927 93.048 364.927 91.08C364.927 89.768 364.095 88.84 362.911 88.84C361.999 88.84 361.087 89.496 360.671 90.44L359.183 89.784C359.823 88.312 361.375 87.288 362.911 87.288C365.103 87.288 366.623 88.856 366.623 91.08C366.623 93.528 363.967 95.704 361.807 97.56H366.815V99.048H359.567L359.407 97.56ZM372.434 88.76C371.058 88.76 370.082 89.752 370.082 91.16C370.082 92.568 371.058 93.56 372.434 93.56C373.794 93.56 374.754 92.568 374.754 91.16C374.754 89.752 373.794 88.76 372.434 88.76ZM368.386 91.16C368.386 88.872 370.05 87.272 372.418 87.272C374.786 87.272 376.45 88.872 376.45 91.16C376.45 91.992 376.146 92.76 375.81 93.368L372.61 99.064H370.658L372.978 94.984C372.786 95.016 372.594 95.048 372.386 95.048C370.034 95.032 368.386 93.432 368.386 91.16ZM388.203 86.04H389.899V100.28H388.203V92.968H386.715V99.64H385.051V86.408H386.715V91.544H388.203V86.04ZM377.643 96.088C380.651 94.344 381.915 92.12 382.155 89.256H378.299V87.832H383.883C383.883 91.704 382.683 95 378.667 97.32L377.643 96.088ZM405.458 86.04H407.218V100.28H405.458V86.04ZM395.522 96.392C399.218 94.616 400.898 92.2 401.202 88.952H396.226V87.528H403.01C403.01 91.8 401.394 95.384 396.434 97.784L395.522 96.392ZM413.331 86.664C415.187 86.664 416.627 87.72 416.963 89.288H419.491V86.056H421.251V93.688H419.491V90.712H416.979C416.659 92.312 415.203 93.384 413.331 93.384C411.187 93.384 409.603 91.992 409.603 90.024C409.603 88.056 411.187 86.664 413.331 86.664ZM411.283 90.024C411.283 91.176 412.131 91.912 413.331 91.912C414.515 91.912 415.363 91.176 415.363 90.024C415.363 88.856 414.515 88.12 413.331 88.12C412.131 88.12 411.283 88.856 411.283 90.024ZM411.923 100.12V94.36H413.683V95.864H419.507V94.36H421.251V100.12H411.923ZM413.683 98.712H419.507V97.224H413.683V98.712ZM424.531 93.224C424.531 91.144 425.347 88.408 426.499 86.584H428.291C426.979 88.392 426.067 91.128 426.067 93.224C426.067 95.32 426.979 98.056 428.291 99.864H426.499C425.347 98.04 424.531 95.304 424.531 93.224ZM432.28 93.832L430.584 93.624L430.984 87.4H437.208V88.888H432.616L432.424 91.736C432.952 91.496 433.544 91.352 434.072 91.352C436.472 91.352 438.168 92.968 438.168 95.256C438.168 97.576 436.472 99.208 434.072 99.208C432.184 99.208 430.552 97.944 430.136 96.152L431.784 95.768C432.024 96.84 432.968 97.608 434.072 97.608C435.48 97.608 436.472 96.632 436.472 95.256C436.472 93.912 435.48 92.952 434.072 92.952C433.48 92.952 432.744 93.32 432.28 93.832ZM439.985 97.56C442.321 95.32 445.505 93.048 445.505 91.08C445.505 89.768 444.673 88.84 443.489 88.84C442.577 88.84 441.665 89.496 441.249 90.44L439.761 89.784C440.401 88.312 441.953 87.288 443.489 87.288C445.681 87.288 447.201 88.856 447.201 91.08C447.201 93.528 444.545 95.704 442.385 97.56H447.393V99.048H440.145L439.985 97.56ZM452.196 99.096L459.556 87.32H461.3L453.908 99.096H452.196ZM449.492 90.328C449.492 88.536 450.852 87.128 452.612 87.128C454.34 87.128 455.716 88.536 455.716 90.328C455.716 92.12 454.34 93.528 452.612 93.528C450.852 93.528 449.492 92.12 449.492 90.328ZM451.092 90.328C451.092 91.224 451.748 91.944 452.612 91.944C453.46 91.944 454.132 91.224 454.132 90.328C454.132 89.432 453.46 88.728 452.612 88.728C451.748 88.728 451.092 89.432 451.092 90.328ZM457.636 95.992C457.636 94.2 458.996 92.792 460.756 92.792C462.484 92.792 463.86 94.2 463.86 95.992C463.86 97.784 462.484 99.208 460.756 99.208C458.996 99.208 457.636 97.784 457.636 95.992ZM459.236 95.992C459.236 96.888 459.892 97.608 460.756 97.608C461.604 97.608 462.276 96.888 462.276 95.992C462.276 95.096 461.604 94.392 460.756 94.392C459.892 94.392 459.236 95.096 459.236 95.992ZM469.932 93.224C469.932 95.304 469.132 98.024 467.98 99.864H466.188C467.484 98.072 468.396 95.32 468.396 93.224C468.396 91.128 467.484 88.376 466.188 86.584H467.98C469.132 88.424 469.932 91.144 469.932 93.224Z" fill="#6D0CA6"/>
<path d="M653.582 97.656C655.182 97.656 656.254 95.864 656.254 93.224C656.254 90.568 655.182 88.776 653.582 88.776C651.982 88.776 650.894 90.568 650.894 93.224C650.894 95.864 651.982 97.656 653.582 97.656ZM649.198 93.224C649.198 89.736 651.006 87.288 653.582 87.288C656.142 87.288 657.95 89.736 657.95 93.224C657.95 96.696 656.142 99.16 653.582 99.16C651.006 99.16 649.198 96.696 649.198 93.224ZM669.703 86.04H671.399V100.28H669.703V92.968H668.215V99.64H666.551V86.408H668.215V91.544H669.703V86.04ZM659.143 96.088C662.151 94.344 663.415 92.12 663.655 89.256H659.799V87.832H665.383C665.383 91.704 664.183 95 660.167 97.32L659.143 96.088ZM686.958 86.04H688.718V100.28H686.958V86.04ZM677.022 96.392C680.718 94.616 682.398 92.2 682.702 88.952H677.726V87.528H684.51C684.51 91.8 682.894 95.384 677.934 97.784L677.022 96.392ZM694.831 86.664C696.687 86.664 698.127 87.72 698.463 89.288H700.991V86.056H702.751V93.688H700.991V90.712H698.479C698.159 92.312 696.703 93.384 694.831 93.384C692.687 93.384 691.103 91.992 691.103 90.024C691.103 88.056 692.687 86.664 694.831 86.664ZM692.783 90.024C692.783 91.176 693.631 91.912 694.831 91.912C696.015 91.912 696.863 91.176 696.863 90.024C696.863 88.856 696.015 88.12 694.831 88.12C693.631 88.12 692.783 88.856 692.783 90.024ZM693.423 100.12V94.36H695.183V95.864H701.007V94.36H702.751V100.12H693.423ZM695.183 98.712H701.007V97.224H695.183V98.712ZM706.031 93.224C706.031 91.144 706.847 88.408 707.999 86.584H709.791C708.479 88.392 707.567 91.128 707.567 93.224C707.567 95.32 708.479 98.056 709.791 99.864H707.999C706.847 98.04 706.031 95.304 706.031 93.224ZM715.988 97.656C717.588 97.656 718.66 95.864 718.66 93.224C718.66 90.568 717.588 88.776 715.988 88.776C714.388 88.776 713.3 90.568 713.3 93.224C713.3 95.864 714.388 97.656 715.988 97.656ZM711.604 93.224C711.604 89.736 713.412 87.288 715.988 87.288C718.548 87.288 720.356 89.736 720.356 93.224C720.356 96.696 718.548 99.16 715.988 99.16C713.412 99.16 711.604 96.696 711.604 93.224ZM725.149 99.096L732.509 87.32H734.253L726.861 99.096H725.149ZM722.445 90.328C722.445 88.536 723.805 87.128 725.565 87.128C727.293 87.128 728.669 88.536 728.669 90.328C728.669 92.12 727.293 93.528 725.565 93.528C723.805 93.528 722.445 92.12 722.445 90.328ZM724.045 90.328C724.045 91.224 724.701 91.944 725.565 91.944C726.413 91.944 727.085 91.224 727.085 90.328C727.085 89.432 726.413 88.728 725.565 88.728C724.701 88.728 724.045 89.432 724.045 90.328ZM730.589 95.992C730.589 94.2 731.949 92.792 733.709 92.792C735.437 92.792 736.813 94.2 736.813 95.992C736.813 97.784 735.437 99.208 733.709 99.208C731.949 99.208 730.589 97.784 730.589 95.992ZM732.189 95.992C732.189 96.888 732.845 97.608 733.709 97.608C734.557 97.608 735.229 96.888 735.229 95.992C735.229 95.096 734.557 94.392 733.709 94.392C732.845 94.392 732.189 95.096 732.189 95.992ZM742.886 93.224C742.886 95.304 742.086 98.024 740.934 99.864H739.142C740.438 98.072 741.35 95.32 741.35 93.224C741.35 91.128 740.438 88.376 739.142 86.584H740.934C742.086 88.424 742.886 91.144 742.886 93.224Z" fill="#3F3F46"/>
<rect y="118" width="815" height="256" fill="#F6F6F7"/>
<path d="M18.532 334.892V345.014H17.37V336.18L15.718 337.244L15.144 336.32L17.37 334.892H18.532Z" fill="#3F3F46"/>
<path d="M10.5 357C10.5 354.791 12.2909 353 14.5 353H20.5C22.7091 353 24.5 354.791 24.5 357V374H10.5V357Z" fill="url(#paint0_linear_4092_2718)"/>
<path d="M11.008 392.824C12.408 392.824 13.346 391.256 13.346 388.946C13.346 386.622 12.408 385.054 11.008 385.054C9.608 385.054 8.656 386.622 8.656 388.946C8.656 391.256 9.608 392.824 11.008 392.824ZM7.172 388.946C7.172 385.894 8.754 383.752 11.008 383.752C13.248 383.752 14.83 385.894 14.83 388.946C14.83 391.984 13.248 394.14 11.008 394.14C8.754 394.14 7.172 391.984 7.172 388.946ZM17.1338 392.586C17.6378 392.586 17.9878 392.95 17.9878 393.454C17.9878 393.972 17.6378 394.336 17.1338 394.336C16.6158 394.336 16.2518 393.972 16.2518 393.454C16.2518 392.95 16.6158 392.586 17.1338 392.586ZM21.9823 389.478L20.4983 389.296L20.8483 383.85H26.2943V385.152H22.2763L22.1083 387.644C22.5703 387.434 23.0883 387.308 23.5503 387.308C25.6503 387.308 27.1343 388.722 27.1343 390.724C27.1343 392.754 25.6503 394.182 23.5503 394.182C21.8983 394.182 20.4703 393.076 20.1063 391.508L21.5483 391.172C21.7583 392.11 22.5843 392.782 23.5503 392.782C24.7823 392.782 25.6503 391.928 25.6503 390.724C25.6503 389.548 24.7823 388.708 23.5503 388.708C23.0323 388.708 22.3883 389.03 21.9823 389.478Z" fill="#3F3F46"/>
<path d="M59.532 334.892V345.014H58.37V336.18L56.718 337.244L56.144 336.32L58.37 334.892H59.532Z" fill="#3F3F46"/>
<path d="M51.5 357C51.5 354.791 53.2909 353 55.5 353H61.5C63.7091 353 65.5 354.791 65.5 357V374H51.5V357Z" fill="url(#paint1_linear_4092_2718)"/>
<path d="M53.48 383.864V394.042L51.996 394.028V385.446L50.204 386.44L49.588 385.194L52.01 383.864H53.48ZM56.4756 392.586C56.9796 392.586 57.3296 392.95 57.3296 393.454C57.3296 393.972 56.9796 394.336 56.4756 394.336C55.9576 394.336 55.5936 393.972 55.5936 393.454C55.5936 392.95 55.9576 392.586 56.4756 392.586ZM63.256 392.824C64.656 392.824 65.594 391.256 65.594 388.946C65.594 386.622 64.656 385.054 63.256 385.054C61.856 385.054 60.904 386.622 60.904 388.946C60.904 391.256 61.856 392.824 63.256 392.824ZM59.42 388.946C59.42 385.894 61.002 383.752 63.256 383.752C65.496 383.752 67.078 385.894 67.078 388.946C67.078 391.984 65.496 394.14 63.256 394.14C61.002 394.14 59.42 391.984 59.42 388.946Z" fill="#3F3F46"/>
<path d="M100.532 334.892V345.014H99.37V336.18L97.718 337.244L97.144 336.32L99.37 334.892H100.532Z" fill="#3F3F46"/>
<path d="M92.5 357C92.5 354.791 94.2909 353 96.5 353H102.5C104.709 353 106.5 354.791 106.5 357V374H92.5V357Z" fill="url(#paint2_linear_4092_2718)"/>
<path d="M94.48 383.864V394.042L92.996 394.028V385.446L91.204 386.44L90.588 385.194L93.01 383.864H94.48ZM97.4756 392.586C97.9796 392.586 98.3296 392.95 98.3296 393.454C98.3296 393.972 97.9796 394.336 97.4756 394.336C96.9576 394.336 96.5936 393.972 96.5936 393.454C96.5936 392.95 96.9576 392.586 97.4756 392.586ZM102.324 389.478L100.84 389.296L101.19 383.85H106.636V385.152H102.618L102.45 387.644C102.912 387.434 103.43 387.308 103.892 387.308C105.992 387.308 107.476 388.722 107.476 390.724C107.476 392.754 105.992 394.182 103.892 394.182C102.24 394.182 100.812 393.076 100.448 391.508L101.89 391.172C102.1 392.11 102.926 392.782 103.892 392.782C105.124 392.782 105.992 391.928 105.992 390.724C105.992 389.548 105.124 388.708 103.892 388.708C103.374 388.708 102.73 389.03 102.324 389.478Z" fill="#3F3F46"/>
<path d="M140.116 256.09C141.446 256.09 142.37 255.138 142.37 253.78C142.37 252.408 141.446 251.456 140.116 251.456C138.828 251.456 137.904 252.408 137.904 253.78C137.904 255.138 138.828 256.09 140.116 256.09ZM136.742 253.78C136.742 253.052 136.98 252.408 137.274 251.876L140.116 246.864H141.46L139.374 250.504C139.626 250.462 139.878 250.42 140.144 250.42C142.146 250.42 143.532 251.806 143.532 253.78C143.532 255.74 142.132 257.126 140.144 257.126C138.142 257.126 136.742 255.74 136.742 253.78Z" fill="#3F3F46"/>
<path d="M133.5 269C133.5 266.791 135.291 265 137.5 265H143.5C145.709 265 147.5 266.791 147.5 269V374H133.5V269Z" fill="url(#paint3_linear_4092_2718)"/>
<path d="M130.896 392.74C132.94 390.78 135.726 388.792 135.726 387.07C135.726 385.922 134.998 385.11 133.962 385.11C133.164 385.11 132.366 385.684 132.002 386.51L130.7 385.936C131.26 384.648 132.618 383.752 133.962 383.752C135.88 383.752 137.21 385.124 137.21 387.07C137.21 389.212 134.886 391.116 132.996 392.74H137.378V394.042H131.036L130.896 392.74ZM139.69 392.586C140.194 392.586 140.544 392.95 140.544 393.454C140.544 393.972 140.194 394.336 139.69 394.336C139.172 394.336 138.808 393.972 138.808 393.454C138.808 392.95 139.172 392.586 139.69 392.586ZM146.471 392.824C147.871 392.824 148.809 391.256 148.809 388.946C148.809 386.622 147.871 385.054 146.471 385.054C145.071 385.054 144.119 386.622 144.119 388.946C144.119 391.256 145.071 392.824 146.471 392.824ZM142.635 388.946C142.635 385.894 144.217 383.752 146.471 383.752C148.711 383.752 150.293 385.894 150.293 388.946C150.293 391.984 148.711 394.14 146.471 394.14C144.217 394.14 142.635 391.984 142.635 388.946Z" fill="#3F3F46"/>
<path d="M179.366 272.31L178.204 272.142L178.54 266.864H183.706V267.9H179.66L179.464 270.812C179.968 270.546 180.542 270.392 181.06 270.392C183.09 270.392 184.532 271.778 184.532 273.738C184.532 275.74 183.09 277.154 181.06 277.154C179.478 277.154 178.106 276.09 177.756 274.578L178.89 274.312C179.114 275.334 180.01 276.048 181.06 276.048C182.418 276.048 183.37 275.096 183.37 273.738C183.37 272.422 182.418 271.498 181.06 271.498C180.486 271.498 179.786 271.834 179.366 272.31Z" fill="#3F3F46"/>
<path d="M174.5 289C174.5 286.791 176.291 285 178.5 285H184.5C186.709 285 188.5 286.791 188.5 289V374H174.5V289Z" fill="url(#paint4_linear_4092_2718)"/>
<path d="M171.896 392.74C173.94 390.78 176.726 388.792 176.726 387.07C176.726 385.922 175.998 385.11 174.962 385.11C174.164 385.11 173.366 385.684 173.002 386.51L171.7 385.936C172.26 384.648 173.618 383.752 174.962 383.752C176.88 383.752 178.21 385.124 178.21 387.07C178.21 389.212 175.886 391.116 173.996 392.74H178.378V394.042H172.036L171.896 392.74ZM180.69 392.586C181.194 392.586 181.544 392.95 181.544 393.454C181.544 393.972 181.194 394.336 180.69 394.336C180.172 394.336 179.808 393.972 179.808 393.454C179.808 392.95 180.172 392.586 180.69 392.586ZM185.539 389.478L184.055 389.296L184.405 383.85H189.851V385.152H185.833L185.665 387.644C186.127 387.434 186.645 387.308 187.107 387.308C189.207 387.308 190.691 388.722 190.691 390.724C190.691 392.754 189.207 394.182 187.107 394.182C185.455 394.182 184.027 393.076 183.663 391.508L185.105 391.172C185.315 392.11 186.141 392.782 187.107 392.782C188.339 392.782 189.207 391.928 189.207 390.724C189.207 389.548 188.339 388.708 187.107 388.708C186.589 388.708 185.945 389.03 185.539 389.478Z" fill="#3F3F46"/>
<path d="M219.532 128.892V139.014H218.37V130.18L216.718 131.244L216.144 130.32L218.37 128.892H219.532ZM226.892 133.778C227.788 134.324 228.306 135.304 228.306 136.144C228.306 137.88 226.934 139.098 224.988 139.098C223.042 139.098 221.67 137.866 221.67 136.116H222.832C222.832 137.264 223.728 138.062 224.988 138.062C226.262 138.062 227.158 137.264 227.158 136.13C227.158 135.052 226.262 134.282 225.016 134.282H224.274V133.246H225.016C226.178 133.246 227.018 132.56 227.018 131.566C227.018 130.544 226.206 129.83 225.072 129.83C223.924 129.83 223.126 130.558 223.126 131.594H221.964C221.964 129.942 223.238 128.794 225.072 128.794C226.878 128.794 228.166 129.928 228.166 131.552C228.166 132.322 227.704 133.232 226.892 133.778Z" fill="#3F3F46"/>
<path d="M215.5 151C215.5 148.791 217.291 147 219.5 147H225.5C227.709 147 229.5 148.791 229.5 151V374H215.5V151Z" fill="url(#paint5_linear_4092_2718)"/>
<path d="M217.604 388.778C218.514 389.31 219.088 390.304 219.088 391.158C219.088 392.894 217.66 394.126 215.63 394.126C213.614 394.126 212.186 392.866 212.186 391.074H213.67C213.67 392.096 214.482 392.81 215.63 392.81C216.806 392.81 217.646 392.096 217.646 391.074C217.646 390.094 216.82 389.394 215.658 389.394H214.93V388.148H215.672C216.736 388.148 217.492 387.518 217.492 386.622C217.492 385.712 216.764 385.082 215.728 385.082C214.692 385.082 213.978 385.726 213.978 386.636H212.494C212.494 384.942 213.824 383.766 215.728 383.766C217.604 383.766 218.934 384.914 218.934 386.538C218.934 387.322 218.43 388.246 217.604 388.778ZM221.395 392.586C221.899 392.586 222.249 392.95 222.249 393.454C222.249 393.972 221.899 394.336 221.395 394.336C220.877 394.336 220.513 393.972 220.513 393.454C220.513 392.95 220.877 392.586 221.395 392.586ZM228.176 392.824C229.576 392.824 230.514 391.256 230.514 388.946C230.514 386.622 229.576 385.054 228.176 385.054C226.776 385.054 225.824 386.622 225.824 388.946C225.824 391.256 226.776 392.824 228.176 392.824ZM224.34 388.946C224.34 385.894 225.922 383.752 228.176 383.752C230.416 383.752 231.998 385.894 231.998 388.946C231.998 391.984 230.416 394.14 228.176 394.14C225.922 394.14 224.34 391.984 224.34 388.946Z" fill="#3F3F46"/>
<path d="M263.088 223.132C264.376 223.132 265.272 222.306 265.272 221.13C265.272 219.996 264.376 219.184 263.088 219.184C261.814 219.184 260.904 219.996 260.904 221.13C260.904 222.306 261.814 223.132 263.088 223.132ZM259.742 221.116C259.742 220.234 260.428 219.212 261.394 218.666C260.582 218.106 260.008 217.21 260.008 216.482C260.008 214.844 261.282 213.696 263.088 213.696C264.908 213.696 266.182 214.844 266.182 216.482C266.182 217.21 265.622 218.12 264.796 218.666C265.762 219.226 266.448 220.234 266.448 221.116C266.448 222.908 265.062 224.154 263.088 224.154C261.128 224.154 259.742 222.908 259.742 221.116ZM261.184 216.468C261.184 217.462 261.968 218.162 263.088 218.162C264.222 218.162 265.02 217.462 265.02 216.468C265.02 215.432 264.222 214.718 263.088 214.718C261.968 214.718 261.184 215.432 261.184 216.468Z" fill="#3F3F46"/>
<path d="M256.5 236C256.5 233.791 258.291 232 260.5 232H266.5C268.709 232 270.5 233.791 270.5 236V374H256.5V236Z" fill="url(#paint6_linear_4092_2718)"/>
<path d="M259.104 388.778C260.014 389.31 260.588 390.304 260.588 391.158C260.588 392.894 259.16 394.126 257.13 394.126C255.114 394.126 253.686 392.866 253.686 391.074H255.17C255.17 392.096 255.982 392.81 257.13 392.81C258.306 392.81 259.146 392.096 259.146 391.074C259.146 390.094 258.32 389.394 257.158 389.394H256.43V388.148H257.172C258.236 388.148 258.992 387.518 258.992 386.622C258.992 385.712 258.264 385.082 257.228 385.082C256.192 385.082 255.478 385.726 255.478 386.636H253.994C253.994 384.942 255.324 383.766 257.228 383.766C259.104 383.766 260.434 384.914 260.434 386.538C260.434 387.322 259.93 388.246 259.104 388.778ZM262.895 392.586C263.399 392.586 263.749 392.95 263.749 393.454C263.749 393.972 263.399 394.336 262.895 394.336C262.377 394.336 262.013 393.972 262.013 393.454C262.013 392.95 262.377 392.586 262.895 392.586ZM267.744 389.478L266.26 389.296L266.61 383.85H272.056V385.152H268.038L267.87 387.644C268.332 387.434 268.85 387.308 269.312 387.308C271.412 387.308 272.896 388.722 272.896 390.724C272.896 392.754 271.412 394.182 269.312 394.182C267.66 394.182 266.232 393.076 265.868 391.508L267.31 391.172C267.52 392.11 268.346 392.782 269.312 392.782C270.544 392.782 271.412 391.928 271.412 390.724C271.412 389.548 270.544 388.708 269.312 388.708C268.794 388.708 268.15 389.03 267.744 389.478Z" fill="#3F3F46"/>
<path d="M302.366 272.31L301.204 272.142L301.54 266.864H306.706V267.9H302.66L302.464 270.812C302.968 270.546 303.542 270.392 304.06 270.392C306.09 270.392 307.532 271.778 307.532 273.738C307.532 275.74 306.09 277.154 304.06 277.154C302.478 277.154 301.106 276.09 300.756 274.578L301.89 274.312C302.114 275.334 303.01 276.048 304.06 276.048C305.418 276.048 306.37 275.096 306.37 273.738C306.37 272.422 305.418 271.498 304.06 271.498C303.486 271.498 302.786 271.834 302.366 272.31Z" fill="#3F3F46"/>
<path d="M297.5 289C297.5 286.791 299.291 285 301.5 285H307.5C309.709 285 311.5 286.791 311.5 289V374H297.5V289Z" fill="url(#paint7_linear_4092_2718)"/>
<path d="M300.192 383.85V390.122H301.48V391.41H300.192V394.042H298.708V391.41H294.326L294.186 390.122L298.778 383.85H300.192ZM295.95 390.122H298.708V386.328L295.95 390.122ZM303.792 392.586C304.296 392.586 304.646 392.95 304.646 393.454C304.646 393.972 304.296 394.336 303.792 394.336C303.274 394.336 302.91 393.972 302.91 393.454C302.91 392.95 303.274 392.586 303.792 392.586ZM310.572 392.824C311.972 392.824 312.91 391.256 312.91 388.946C312.91 386.622 311.972 385.054 310.572 385.054C309.172 385.054 308.22 386.622 308.22 388.946C308.22 391.256 309.172 392.824 310.572 392.824ZM306.736 388.946C306.736 385.894 308.318 383.752 310.572 383.752C312.812 383.752 314.394 385.894 314.394 388.946C314.394 391.984 312.812 394.14 310.572 394.14C308.318 394.14 306.736 391.984 306.736 388.946Z" fill="#3F3F46"/>
<path d="M343.366 272.31L342.204 272.142L342.54 266.864H347.706V267.9H343.66L343.464 270.812C343.968 270.546 344.542 270.392 345.06 270.392C347.09 270.392 348.532 271.778 348.532 273.738C348.532 275.74 347.09 277.154 345.06 277.154C343.478 277.154 342.106 276.09 341.756 274.578L342.89 274.312C343.114 275.334 344.01 276.048 345.06 276.048C346.418 276.048 347.37 275.096 347.37 273.738C347.37 272.422 346.418 271.498 345.06 271.498C344.486 271.498 343.786 271.834 343.366 272.31Z" fill="#3F3F46"/>
<path d="M338.5 289C338.5 286.791 340.291 285 342.5 285H348.5C350.709 285 352.5 286.791 352.5 289V374H338.5V289Z" fill="url(#paint8_linear_4092_2718)"/>
<path d="M341.692 383.85V390.122H342.98V391.41H341.692V394.042H340.208V391.41H335.826L335.686 390.122L340.278 383.85H341.692ZM337.45 390.122H340.208V386.328L337.45 390.122ZM345.292 392.586C345.796 392.586 346.146 392.95 346.146 393.454C346.146 393.972 345.796 394.336 345.292 394.336C344.774 394.336 344.41 393.972 344.41 393.454C344.41 392.95 344.774 392.586 345.292 392.586ZM350.14 389.478L348.656 389.296L349.006 383.85H354.452V385.152H350.434L350.266 387.644C350.728 387.434 351.246 387.308 351.708 387.308C353.808 387.308 355.292 388.722 355.292 390.724C355.292 392.754 353.808 394.182 351.708 394.182C350.056 394.182 348.628 393.076 348.264 391.508L349.706 391.172C349.916 392.11 350.742 392.782 351.708 392.782C352.94 392.782 353.808 391.928 353.808 390.724C353.808 389.548 352.94 388.708 351.708 388.708C351.19 388.708 350.546 389.03 350.14 389.478Z" fill="#3F3F46"/>
<path d="M387.964 306.778C388.86 307.324 389.378 308.304 389.378 309.144C389.378 310.88 388.006 312.098 386.06 312.098C384.114 312.098 382.742 310.866 382.742 309.116H383.904C383.904 310.264 384.8 311.062 386.06 311.062C387.334 311.062 388.23 310.264 388.23 309.13C388.23 308.052 387.334 307.282 386.088 307.282H385.346V306.246H386.088C387.25 306.246 388.09 305.56 388.09 304.566C388.09 303.544 387.278 302.83 386.144 302.83C384.996 302.83 384.198 303.558 384.198 304.594H383.036C383.036 302.942 384.31 301.794 386.144 301.794C387.95 301.794 389.238 302.928 389.238 304.552C389.238 305.322 388.776 306.232 387.964 306.778Z" fill="#3F3F46"/>
<path d="M379.5 324C379.5 321.791 381.291 320 383.5 320H389.5C391.709 320 393.5 321.791 393.5 324V374H379.5V324Z" fill="url(#paint9_linear_4092_2718)"/>
<path d="M378.076 389.478L376.592 389.296L376.942 383.85H382.388V385.152H378.37L378.202 387.644C378.664 387.434 379.182 387.308 379.644 387.308C381.744 387.308 383.228 388.722 383.228 390.724C383.228 392.754 381.744 394.182 379.644 394.182C377.992 394.182 376.564 393.076 376.2 391.508L377.642 391.172C377.852 392.11 378.678 392.782 379.644 392.782C380.876 392.782 381.744 391.928 381.744 390.724C381.744 389.548 380.876 388.708 379.644 388.708C379.126 388.708 378.482 389.03 378.076 389.478ZM385.546 392.586C386.05 392.586 386.4 392.95 386.4 393.454C386.4 393.972 386.05 394.336 385.546 394.336C385.028 394.336 384.664 393.972 384.664 393.454C384.664 392.95 385.028 392.586 385.546 392.586ZM392.326 392.824C393.726 392.824 394.664 391.256 394.664 388.946C394.664 386.622 393.726 385.054 392.326 385.054C390.926 385.054 389.974 386.622 389.974 388.946C389.974 391.256 390.926 392.824 392.326 392.824ZM388.49 388.946C388.49 385.894 390.072 383.752 392.326 383.752C394.566 383.752 396.148 385.894 396.148 388.946C396.148 391.984 394.566 394.14 392.326 394.14C390.072 394.14 388.49 391.984 388.49 388.946Z" fill="#3F3F46"/>
<path d="M428.532 334.892V345.014H427.37V336.18L425.718 337.244L425.144 336.32L427.37 334.892H428.532Z" fill="#3F3F46"/>
<path d="M420.5 357C420.5 354.791 422.291 353 424.5 353H430.5C432.709 353 434.5 354.791 434.5 357V374H420.5V357Z" fill="url(#paint10_linear_4092_2718)"/>
<path d="M419.576 389.478L418.092 389.296L418.442 383.85H423.888V385.152H419.87L419.702 387.644C420.164 387.434 420.682 387.308 421.144 387.308C423.244 387.308 424.728 388.722 424.728 390.724C424.728 392.754 423.244 394.182 421.144 394.182C419.492 394.182 418.064 393.076 417.7 391.508L419.142 391.172C419.352 392.11 420.178 392.782 421.144 392.782C422.376 392.782 423.244 391.928 423.244 390.724C423.244 389.548 422.376 388.708 421.144 388.708C420.626 388.708 419.982 389.03 419.576 389.478ZM427.046 392.586C427.55 392.586 427.9 392.95 427.9 393.454C427.9 393.972 427.55 394.336 427.046 394.336C426.528 394.336 426.164 393.972 426.164 393.454C426.164 392.95 426.528 392.586 427.046 392.586ZM431.894 389.478L430.41 389.296L430.76 383.85H436.206V385.152H432.188L432.02 387.644C432.482 387.434 433 387.308 433.462 387.308C435.562 387.308 437.046 388.722 437.046 390.724C437.046 392.754 435.562 394.182 433.462 394.182C431.81 394.182 430.382 393.076 430.018 391.508L431.46 391.172C431.67 392.11 432.496 392.782 433.462 392.782C434.694 392.782 435.562 391.928 435.562 390.724C435.562 389.548 434.694 388.708 433.462 388.708C432.944 388.708 432.3 389.03 431.894 389.478Z" fill="#3F3F46"/>
<path d="M470.454 284.878V291.22H471.882V292.242H470.454V295.014H469.292V292.242H464.882L464.742 291.22L469.334 284.878H470.454ZM466.156 291.22H469.292V286.88L466.156 291.22Z" fill="#3F3F46"/>
<path d="M461.5 307C461.5 304.791 463.291 303 465.5 303H471.5C473.709 303 475.5 304.791 475.5 307V374H461.5V307Z" fill="url(#paint11_linear_4092_2718)"/>
<path d="M461.7 392.838C462.904 392.838 463.758 391.97 463.758 390.752C463.758 389.506 462.904 388.638 461.7 388.638C460.51 388.638 459.67 389.506 459.67 390.752C459.67 391.97 460.51 392.838 461.7 392.838ZM458.186 390.752C458.186 390.01 458.452 389.352 458.746 388.806L461.546 383.822H463.254L461.224 387.392C461.392 387.364 461.56 387.336 461.742 387.336C463.8 387.35 465.242 388.75 465.242 390.752C465.242 392.74 463.786 394.14 461.714 394.14C459.642 394.14 458.186 392.74 458.186 390.752ZM467.546 392.586C468.05 392.586 468.4 392.95 468.4 393.454C468.4 393.972 468.05 394.336 467.546 394.336C467.028 394.336 466.664 393.972 466.664 393.454C466.664 392.95 467.028 392.586 467.546 392.586ZM474.326 392.824C475.726 392.824 476.664 391.256 476.664 388.946C476.664 386.622 475.726 385.054 474.326 385.054C472.926 385.054 471.974 386.622 471.974 388.946C471.974 391.256 472.926 392.824 474.326 392.824ZM470.49 388.946C470.49 385.894 472.072 383.752 474.326 383.752C476.566 383.752 478.148 385.894 478.148 388.946C478.148 391.984 476.566 394.14 474.326 394.14C472.072 394.14 470.49 391.984 470.49 388.946Z" fill="#3F3F46"/>
<path d="M509.41 367.076C510.88 367.076 511.902 365.382 511.902 362.946C511.902 360.51 510.88 358.816 509.41 358.816C507.926 358.816 506.89 360.51 506.89 362.946C506.89 365.382 507.926 367.076 509.41 367.076ZM505.728 362.946C505.728 359.922 507.24 357.794 509.41 357.794C511.552 357.794 513.064 359.922 513.064 362.946C513.064 365.97 511.552 368.112 509.41 368.112C507.24 368.112 505.728 365.97 505.728 362.946Z" fill="#3F3F46"/>
<path d="M503.2 392.838C504.404 392.838 505.258 391.97 505.258 390.752C505.258 389.506 504.404 388.638 503.2 388.638C502.01 388.638 501.17 389.506 501.17 390.752C501.17 391.97 502.01 392.838 503.2 392.838ZM499.686 390.752C499.686 390.01 499.952 389.352 500.246 388.806L503.046 383.822H504.754L502.724 387.392C502.892 387.364 503.06 387.336 503.242 387.336C505.3 387.35 506.742 388.75 506.742 390.752C506.742 392.74 505.286 394.14 503.214 394.14C501.142 394.14 499.686 392.74 499.686 390.752ZM509.046 392.586C509.55 392.586 509.9 392.95 509.9 393.454C509.9 393.972 509.55 394.336 509.046 394.336C508.528 394.336 508.164 393.972 508.164 393.454C508.164 392.95 508.528 392.586 509.046 392.586ZM513.894 389.478L512.41 389.296L512.76 383.85H518.206V385.152H514.188L514.02 387.644C514.482 387.434 515 387.308 515.462 387.308C517.562 387.308 519.046 388.722 519.046 390.724C519.046 392.754 517.562 394.182 515.462 394.182C513.81 394.182 512.382 393.076 512.018 391.508L513.46 391.172C513.67 392.11 514.496 392.782 515.462 392.782C516.694 392.782 517.562 391.928 517.562 390.724C517.562 389.548 516.694 388.708 515.462 388.708C514.944 388.708 514.3 389.03 513.894 389.478Z" fill="#3F3F46"/>
<path d="M551.964 306.778C552.86 307.324 553.378 308.304 553.378 309.144C553.378 310.88 552.006 312.098 550.06 312.098C548.114 312.098 546.742 310.866 546.742 309.116H547.904C547.904 310.264 548.8 311.062 550.06 311.062C551.334 311.062 552.23 310.264 552.23 309.13C552.23 308.052 551.334 307.282 550.088 307.282H549.346V306.246H550.088C551.25 306.246 552.09 305.56 552.09 304.566C552.09 303.544 551.278 302.83 550.144 302.83C548.996 302.83 548.198 303.558 548.198 304.594H547.036C547.036 302.942 548.31 301.794 550.144 301.794C551.95 301.794 553.238 302.928 553.238 304.552C553.238 305.322 552.776 306.232 551.964 306.778Z" fill="#3F3F46"/>
<path d="M543.5 324C543.5 321.791 545.291 320 547.5 320H553.5C555.709 320 557.5 321.791 557.5 324V374H543.5V324Z" fill="url(#paint12_linear_4092_2718)"/>
<path d="M543.22 394.07H541.596L545.586 385.11L540.91 385.124V383.808H547.07L547.21 385.11L543.22 394.07ZM549.54 392.586C550.044 392.586 550.394 392.95 550.394 393.454C550.394 393.972 550.044 394.336 549.54 394.336C549.022 394.336 548.658 393.972 548.658 393.454C548.658 392.95 549.022 392.586 549.54 392.586ZM556.321 392.824C557.721 392.824 558.659 391.256 558.659 388.946C558.659 386.622 557.721 385.054 556.321 385.054C554.921 385.054 553.969 386.622 553.969 388.946C553.969 391.256 554.921 392.824 556.321 392.824ZM552.485 388.946C552.485 385.894 554.067 383.752 556.321 383.752C558.561 383.752 560.143 385.894 560.143 388.946C560.143 391.984 558.561 394.14 556.321 394.14C554.067 394.14 552.485 391.984 552.485 388.946Z" fill="#3F3F46"/>
<path d="M591.41 367.076C592.88 367.076 593.902 365.382 593.902 362.946C593.902 360.51 592.88 358.816 591.41 358.816C589.926 358.816 588.89 360.51 588.89 362.946C588.89 365.382 589.926 367.076 591.41 367.076ZM587.728 362.946C587.728 359.922 589.24 357.794 591.41 357.794C593.552 357.794 595.064 359.922 595.064 362.946C595.064 365.97 593.552 368.112 591.41 368.112C589.24 368.112 587.728 365.97 587.728 362.946Z" fill="#3F3F46"/>
<path d="M584.22 394.07H582.596L586.586 385.11L581.91 385.124V383.808H588.07L588.21 385.11L584.22 394.07ZM590.54 392.586C591.044 392.586 591.394 392.95 591.394 393.454C591.394 393.972 591.044 394.336 590.54 394.336C590.022 394.336 589.658 393.972 589.658 393.454C589.658 392.95 590.022 392.586 590.54 392.586ZM595.389 389.478L593.905 389.296L594.255 383.85H599.701V385.152H595.683L595.515 387.644C595.977 387.434 596.495 387.308 596.957 387.308C599.057 387.308 600.541 388.722 600.541 390.724C600.541 392.754 599.057 394.182 596.957 394.182C595.305 394.182 593.877 393.076 593.513 391.508L594.955 391.172C595.165 392.11 595.991 392.782 596.957 392.782C598.189 392.782 599.057 391.928 599.057 390.724C599.057 389.548 598.189 388.708 596.957 388.708C596.439 388.708 595.795 389.03 595.389 389.478Z" fill="#3F3F46"/>
<path d="M632.41 367.076C633.88 367.076 634.902 365.382 634.902 362.946C634.902 360.51 633.88 358.816 632.41 358.816C630.926 358.816 629.89 360.51 629.89 362.946C629.89 365.382 630.926 367.076 632.41 367.076ZM628.728 362.946C628.728 359.922 630.24 357.794 632.41 357.794C634.552 357.794 636.064 359.922 636.064 362.946C636.064 365.97 634.552 368.112 632.41 368.112C630.24 368.112 628.728 365.97 628.728 362.946Z" fill="#3F3F46"/>
<path d="M625.658 392.936C626.82 392.936 627.632 392.194 627.632 391.13C627.632 390.066 626.82 389.31 625.658 389.31C624.496 389.31 623.67 390.066 623.67 391.13C623.67 392.194 624.496 392.936 625.658 392.936ZM622.186 391.158C622.186 390.262 622.886 389.226 623.866 388.68C623.054 388.12 622.466 387.21 622.466 386.482C622.466 384.83 623.782 383.682 625.658 383.682C627.534 383.682 628.85 384.83 628.85 386.482C628.85 387.224 628.276 388.134 627.45 388.68C628.43 389.24 629.13 390.262 629.13 391.158C629.13 392.95 627.702 394.21 625.658 394.21C623.628 394.21 622.186 392.95 622.186 391.158ZM623.964 386.482C623.964 387.392 624.664 388.036 625.658 388.036C626.666 388.036 627.366 387.392 627.366 386.482C627.366 385.572 626.666 384.942 625.658 384.942C624.664 384.942 623.964 385.572 623.964 386.482ZM631.437 392.586C631.941 392.586 632.291 392.95 632.291 393.454C632.291 393.972 631.941 394.336 631.437 394.336C630.919 394.336 630.555 393.972 630.555 393.454C630.555 392.95 630.919 392.586 631.437 392.586ZM638.217 392.824C639.617 392.824 640.555 391.256 640.555 388.946C640.555 386.622 639.617 385.054 638.217 385.054C636.817 385.054 635.865 386.622 635.865 388.946C635.865 391.256 636.817 392.824 638.217 392.824ZM634.381 388.946C634.381 385.894 635.963 383.752 638.217 383.752C640.457 383.752 642.039 385.894 642.039 388.946C642.039 391.984 640.457 394.14 638.217 394.14C635.963 394.14 634.381 391.984 634.381 388.946Z" fill="#3F3F46"/>
<path d="M673.41 367.076C674.88 367.076 675.902 365.382 675.902 362.946C675.902 360.51 674.88 358.816 673.41 358.816C671.926 358.816 670.89 360.51 670.89 362.946C670.89 365.382 671.926 367.076 673.41 367.076ZM669.728 362.946C669.728 359.922 671.24 357.794 673.41 357.794C675.552 357.794 677.064 359.922 677.064 362.946C677.064 365.97 675.552 368.112 673.41 368.112C671.24 368.112 669.728 365.97 669.728 362.946Z" fill="#3F3F46"/>
<path d="M667.158 392.936C668.32 392.936 669.132 392.194 669.132 391.13C669.132 390.066 668.32 389.31 667.158 389.31C665.996 389.31 665.17 390.066 665.17 391.13C665.17 392.194 665.996 392.936 667.158 392.936ZM663.686 391.158C663.686 390.262 664.386 389.226 665.366 388.68C664.554 388.12 663.966 387.21 663.966 386.482C663.966 384.83 665.282 383.682 667.158 383.682C669.034 383.682 670.35 384.83 670.35 386.482C670.35 387.224 669.776 388.134 668.95 388.68C669.93 389.24 670.63 390.262 670.63 391.158C670.63 392.95 669.202 394.21 667.158 394.21C665.128 394.21 663.686 392.95 663.686 391.158ZM665.464 386.482C665.464 387.392 666.164 388.036 667.158 388.036C668.166 388.036 668.866 387.392 668.866 386.482C668.866 385.572 668.166 384.942 667.158 384.942C666.164 384.942 665.464 385.572 665.464 386.482ZM672.937 392.586C673.441 392.586 673.791 392.95 673.791 393.454C673.791 393.972 673.441 394.336 672.937 394.336C672.419 394.336 672.055 393.972 672.055 393.454C672.055 392.95 672.419 392.586 672.937 392.586ZM677.785 389.478L676.301 389.296L676.651 383.85H682.097V385.152H678.079L677.911 387.644C678.373 387.434 678.891 387.308 679.353 387.308C681.453 387.308 682.937 388.722 682.937 390.724C682.937 392.754 681.453 394.182 679.353 394.182C677.701 394.182 676.273 393.076 675.909 391.508L677.351 391.172C677.561 392.11 678.387 392.782 679.353 392.782C680.585 392.782 681.453 391.928 681.453 390.724C681.453 389.548 680.585 388.708 679.353 388.708C678.835 388.708 678.191 389.03 677.785 389.478Z" fill="#3F3F46"/>
<path d="M714.41 367.076C715.88 367.076 716.902 365.382 716.902 362.946C716.902 360.51 715.88 358.816 714.41 358.816C712.926 358.816 711.89 360.51 711.89 362.946C711.89 365.382 712.926 367.076 714.41 367.076ZM710.728 362.946C710.728 359.922 712.24 357.794 714.41 357.794C716.552 357.794 718.064 359.922 718.064 362.946C718.064 365.97 716.552 368.112 714.41 368.112C712.24 368.112 710.728 365.97 710.728 362.946Z" fill="#3F3F46"/>
<path d="M707.728 385.04C706.524 385.04 705.67 385.908 705.67 387.14C705.67 388.372 706.524 389.24 707.728 389.24C708.918 389.24 709.758 388.372 709.758 387.14C709.758 385.908 708.918 385.04 707.728 385.04ZM704.186 387.14C704.186 385.138 705.642 383.738 707.714 383.738C709.786 383.738 711.242 385.138 711.242 387.14C711.242 387.868 710.976 388.54 710.682 389.072L707.882 394.056H706.174L708.204 390.486C708.036 390.514 707.868 390.542 707.686 390.542C705.628 390.528 704.186 389.128 704.186 387.14ZM713.546 392.586C714.05 392.586 714.4 392.95 714.4 393.454C714.4 393.972 714.05 394.336 713.546 394.336C713.028 394.336 712.664 393.972 712.664 393.454C712.664 392.95 713.028 392.586 713.546 392.586ZM720.326 392.824C721.726 392.824 722.664 391.256 722.664 388.946C722.664 386.622 721.726 385.054 720.326 385.054C718.926 385.054 717.974 386.622 717.974 388.946C717.974 391.256 718.926 392.824 720.326 392.824ZM716.49 388.946C716.49 385.894 718.072 383.752 720.326 383.752C722.566 383.752 724.148 385.894 724.148 388.946C724.148 391.984 722.566 394.14 720.326 394.14C718.072 394.14 716.49 391.984 716.49 388.946Z" fill="#3F3F46"/>
<path d="M755.41 367.076C756.88 367.076 757.902 365.382 757.902 362.946C757.902 360.51 756.88 358.816 755.41 358.816C753.926 358.816 752.89 360.51 752.89 362.946C752.89 365.382 753.926 367.076 755.41 367.076ZM751.728 362.946C751.728 359.922 753.24 357.794 755.41 357.794C757.552 357.794 759.064 359.922 759.064 362.946C759.064 365.97 757.552 368.112 755.41 368.112C753.24 368.112 751.728 365.97 751.728 362.946Z" fill="#3F3F46"/>
<path d="M749.228 385.04C748.024 385.04 747.17 385.908 747.17 387.14C747.17 388.372 748.024 389.24 749.228 389.24C750.418 389.24 751.258 388.372 751.258 387.14C751.258 385.908 750.418 385.04 749.228 385.04ZM745.686 387.14C745.686 385.138 747.142 383.738 749.214 383.738C751.286 383.738 752.742 385.138 752.742 387.14C752.742 387.868 752.476 388.54 752.182 389.072L749.382 394.056H747.674L749.704 390.486C749.536 390.514 749.368 390.542 749.186 390.542C747.128 390.528 745.686 389.128 745.686 387.14ZM755.046 392.586C755.55 392.586 755.9 392.95 755.9 393.454C755.9 393.972 755.55 394.336 755.046 394.336C754.528 394.336 754.164 393.972 754.164 393.454C754.164 392.95 754.528 392.586 755.046 392.586ZM759.894 389.478L758.41 389.296L758.76 383.85H764.206V385.152H760.188L760.02 387.644C760.482 387.434 761 387.308 761.462 387.308C763.562 387.308 765.046 388.722 765.046 390.724C765.046 392.754 763.562 394.182 761.462 394.182C759.81 394.182 758.382 393.076 758.018 391.508L759.46 391.172C759.67 392.11 760.496 392.782 761.462 392.782C762.694 392.782 763.562 391.928 763.562 390.724C763.562 389.548 762.694 388.708 761.462 388.708C760.944 388.708 760.3 389.03 759.894 389.478Z" fill="#3F3F46"/>
<path d="M796.41 367.076C797.88 367.076 798.902 365.382 798.902 362.946C798.902 360.51 797.88 358.816 796.41 358.816C794.926 358.816 793.89 360.51 793.89 362.946C793.89 365.382 794.926 367.076 796.41 367.076ZM792.728 362.946C792.728 359.922 794.24 357.794 796.41 357.794C798.552 357.794 800.064 359.922 800.064 362.946C800.064 365.97 798.552 368.112 796.41 368.112C794.24 368.112 792.728 365.97 792.728 362.946Z" fill="#3F3F46"/>
<path d="M782.48 383.864V394.042L780.996 394.028V385.446L779.204 386.44L778.588 385.194L781.01 383.864H782.48ZM788.36 392.824C789.76 392.824 790.698 391.256 790.698 388.946C790.698 386.622 789.76 385.054 788.36 385.054C786.96 385.054 786.008 386.622 786.008 388.946C786.008 391.256 786.96 392.824 788.36 392.824ZM784.524 388.946C784.524 385.894 786.106 383.752 788.36 383.752C790.6 383.752 792.182 385.894 792.182 388.946C792.182 391.984 790.6 394.14 788.36 394.14C786.106 394.14 784.524 391.984 784.524 388.946ZM797.369 392.824C798.769 392.824 799.707 391.256 799.707 388.946C799.707 386.622 798.769 385.054 797.369 385.054C795.969 385.054 795.017 386.622 795.017 388.946C795.017 391.256 795.969 392.824 797.369 392.824ZM793.533 388.946C793.533 385.894 795.115 383.752 797.369 383.752C799.609 383.752 801.191 385.894 801.191 388.946C801.191 391.984 799.609 394.14 797.369 394.14C795.115 394.14 793.533 391.984 793.533 388.946ZM803.495 392.586C803.999 392.586 804.349 392.95 804.349 393.454C804.349 393.972 803.999 394.336 803.495 394.336C802.977 394.336 802.613 393.972 802.613 393.454C802.613 392.95 802.977 392.586 803.495 392.586ZM810.276 392.824C811.676 392.824 812.614 391.256 812.614 388.946C812.614 386.622 811.676 385.054 810.276 385.054C808.876 385.054 807.924 386.622 807.924 388.946C807.924 391.256 808.876 392.824 810.276 392.824ZM806.44 388.946C806.44 385.894 808.022 383.752 810.276 383.752C812.516 383.752 814.098 385.894 814.098 388.946C814.098 391.984 812.516 394.14 810.276 394.14C808.022 394.14 806.44 391.984 806.44 388.946Z" fill="#3F3F46"/>
<rect x="1" y="119" width="241" height="254" rx="3" stroke="#F47725" stroke-width="2"/>
<path d="M34.5 409L40.5 420H28.5L34.5 409Z" fill="#F47725"/>
<path d="M9.44106 439.656C9.96373 439.656 10.4277 439.469 10.8331 439.096C11.2384 438.723 11.5531 438.205 11.7771 437.544C12.0011 436.872 12.1131 436.099 12.1131 435.224C12.1131 434.349 12.0011 433.576 11.7771 432.904C11.5531 432.232 11.2384 431.709 10.8331 431.336C10.4277 430.963 9.96373 430.776 9.44106 430.776C8.9184 430.776 8.44906 430.963 8.03306 431.336C7.62773 431.709 7.31306 432.232 7.08906 432.904C6.86506 433.576 6.75306 434.349 6.75306 435.224C6.75306 436.099 6.86506 436.872 7.08906 437.544C7.31306 438.205 7.62773 438.723 8.03306 439.096C8.44906 439.469 8.9184 439.656 9.44106 439.656ZM5.05706 435.224C5.05706 434.072 5.24373 433.048 5.61706 432.152C5.9904 431.245 6.50773 430.541 7.16906 430.04C7.8304 429.539 8.58773 429.288 9.44106 429.288C10.2837 429.288 11.0357 429.539 11.6971 430.04C12.3584 430.541 12.8757 431.245 13.2491 432.152C13.6224 433.048 13.8091 434.072 13.8091 435.224C13.8091 436.365 13.6224 437.389 13.2491 438.296C12.8757 439.192 12.3584 439.896 11.6971 440.408C11.0357 440.909 10.2837 441.16 9.44106 441.16C8.5984 441.16 7.84106 440.909 7.16906 440.408C6.50773 439.896 5.9904 439.192 5.61706 438.296C5.24373 437.389 5.05706 436.365 5.05706 435.224ZM16.4419 439.384C16.7299 439.384 16.9646 439.48 17.1459 439.672C17.3273 439.853 17.4179 440.088 17.4179 440.376C17.4179 440.675 17.3273 440.915 17.1459 441.096C16.9646 441.288 16.7299 441.384 16.4419 441.384C16.1433 441.384 15.8979 441.288 15.7059 441.096C15.5246 440.915 15.4339 440.675 15.4339 440.376C15.4339 440.088 15.5246 439.853 15.7059 439.672C15.8979 439.48 16.1433 439.384 16.4419 439.384ZM24.1591 441.048L22.4631 441.032V431.224L20.4151 432.36L19.7111 430.936L22.4791 429.416H24.1591V441.048ZM31.4872 441.048L29.7912 441.032V431.224L27.7432 432.36L27.0392 430.936L29.8072 429.416H31.4872V441.048ZM42.8382 435.704V437.992C44.1609 437.917 45.3609 437.8 46.4382 437.64L46.5662 438.92C45.1902 439.187 43.7822 439.357 42.3422 439.432C40.9022 439.507 39.3022 439.544 37.5422 439.544L37.3342 438.104C38.9235 438.104 40.1715 438.093 41.0782 438.072V435.704H42.8382ZM37.6702 434.792C38.7049 434.515 39.5155 434.051 40.1022 433.4C40.6889 432.749 41.0089 432.013 41.0622 431.192H38.0542V429.784H41.0782V428.168H42.8382V429.784H45.8782V431.192H42.8382C42.8915 431.981 43.2169 432.691 43.8142 433.32C44.4115 433.939 45.2222 434.387 46.2462 434.664L45.4622 436.008C44.6409 435.784 43.9315 435.443 43.3342 434.984C42.7475 434.515 42.2942 433.96 41.9742 433.32C41.6542 433.992 41.1955 434.573 40.5982 435.064C40.0115 435.555 39.3022 435.923 38.4702 436.168L37.6702 434.792ZM47.2862 428.024H49.0302V442.312H47.2862V428.024ZM63.1106 428.024V442.312H61.3666V434.52H58.6306V433.096H61.3666V428.024H63.1106ZM51.0786 438.2C51.8146 437.848 52.4492 437.341 52.9826 436.68C53.5266 436.008 53.9426 435.251 54.2306 434.408C54.5186 433.555 54.6626 432.691 54.6626 431.816V430.872H51.6226V429.448H59.4786V430.872H56.4386V431.816C56.4386 432.648 56.5826 433.469 56.8706 434.28C57.1586 435.091 57.5692 435.816 58.1026 436.456C58.6466 437.096 59.2866 437.581 60.0226 437.912L58.9986 439.304C58.1986 438.92 57.5052 438.36 56.9186 437.624C56.3426 436.888 55.8946 436.04 55.5746 435.08C55.2546 436.104 54.7959 437.011 54.1986 437.8C53.6119 438.589 52.9132 439.187 52.1026 439.592L51.0786 438.2Z" fill="#F47725"/>
<path d="M257.5 409L263.5 420H251.5L257.5 409Z" fill="#6D0CA6"/>
<path d="M218.46 435.032C218.972 435.331 219.383 435.736 219.692 436.248C220.002 436.749 220.156 437.251 220.156 437.752C220.156 438.403 219.986 438.989 219.644 439.512C219.314 440.024 218.85 440.424 218.252 440.712C217.655 441 216.972 441.144 216.204 441.144C215.447 441.144 214.77 440.995 214.172 440.696C213.575 440.397 213.106 439.987 212.764 439.464C212.434 438.931 212.268 438.328 212.268 437.656H213.964C213.964 438.243 214.172 438.723 214.588 439.096C215.004 439.459 215.543 439.64 216.204 439.64C216.876 439.64 217.426 439.459 217.852 439.096C218.29 438.723 218.508 438.243 218.508 437.656C218.508 437.091 218.295 436.632 217.868 436.28C217.442 435.917 216.898 435.736 216.236 435.736H215.404V434.312H216.252C216.86 434.312 217.356 434.152 217.74 433.832C218.135 433.501 218.332 433.08 218.332 432.568C218.332 432.045 218.146 431.624 217.772 431.304C217.399 430.973 216.914 430.808 216.316 430.808C215.73 430.808 215.25 430.973 214.876 431.304C214.503 431.635 214.316 432.061 214.316 432.584H212.62C212.62 431.944 212.775 431.379 213.084 430.888C213.404 430.387 213.842 429.997 214.396 429.72C214.962 429.443 215.602 429.304 216.316 429.304C217.02 429.304 217.65 429.443 218.204 429.72C218.759 429.987 219.191 430.36 219.5 430.84C219.82 431.32 219.98 431.864 219.98 432.472C219.98 432.931 219.842 433.4 219.564 433.88C219.287 434.349 218.919 434.733 218.46 435.032ZM222.794 439.384C223.082 439.384 223.316 439.48 223.498 439.672C223.679 439.853 223.77 440.088 223.77 440.376C223.77 440.675 223.679 440.915 223.498 441.096C223.316 441.288 223.082 441.384 222.794 441.384C222.495 441.384 222.25 441.288 222.058 441.096C221.876 440.915 221.786 440.675 221.786 440.376C221.786 440.088 221.876 439.853 222.058 439.672C222.25 439.48 222.495 439.384 222.794 439.384ZM232.367 435.032C232.879 435.331 233.289 435.736 233.599 436.248C233.908 436.749 234.063 437.251 234.063 437.752C234.063 438.403 233.892 438.989 233.551 439.512C233.22 440.024 232.756 440.424 232.159 440.712C231.561 441 230.879 441.144 230.111 441.144C229.353 441.144 228.676 440.995 228.079 440.696C227.481 440.397 227.012 439.987 226.671 439.464C226.34 438.931 226.175 438.328 226.175 437.656H227.871C227.871 438.243 228.079 438.723 228.495 439.096C228.911 439.459 229.449 439.64 230.111 439.64C230.783 439.64 231.332 439.459 231.759 439.096C232.196 438.723 232.415 438.243 232.415 437.656C232.415 437.091 232.201 436.632 231.775 436.28C231.348 435.917 230.804 435.736 230.143 435.736H229.311V434.312H230.159C230.767 434.312 231.263 434.152 231.647 433.832C232.041 433.501 232.239 433.08 232.239 432.568C232.239 432.045 232.052 431.624 231.679 431.304C231.305 430.973 230.82 430.808 230.223 430.808C229.636 430.808 229.156 430.973 228.783 431.304C228.409 431.635 228.223 432.061 228.223 432.584H226.527C226.527 431.944 226.681 431.379 226.991 430.888C227.311 430.387 227.748 429.997 228.303 429.72C228.868 429.443 229.508 429.304 230.223 429.304C230.927 429.304 231.556 429.443 232.111 429.72C232.665 429.987 233.097 430.36 233.407 430.84C233.727 431.32 233.887 431.864 233.887 432.472C233.887 432.931 233.748 433.4 233.471 433.88C233.193 434.349 232.825 434.733 232.367 435.032ZM236.668 441.08L241.228 430.84L235.884 430.856V429.352H242.924L243.084 430.84L238.524 441.08H236.668ZM258.186 431.816V428.056H259.946V438.44H258.186V433.24H255.706V431.816H258.186ZM248.074 435.4C249.162 435.027 250.01 434.424 250.618 433.592C251.226 432.76 251.53 431.853 251.53 430.872V430.488H248.57V429.08H256.218V430.488H253.306V430.872C253.306 431.779 253.594 432.627 254.17 433.416C254.757 434.195 255.573 434.76 256.618 435.112L255.754 436.488C254.986 436.221 254.319 435.832 253.754 435.32C253.199 434.808 252.762 434.2 252.442 433.496C252.133 434.264 251.679 434.936 251.082 435.512C250.495 436.088 249.791 436.515 248.97 436.792L248.074 435.4ZM250.65 437.56H252.426V440.6H260.298V442.008H250.65V437.56ZM269.723 433.528V428.312H271.355V441.608H269.723V434.952H267.883V433.528H269.723ZM261.883 438.2C262.821 437.645 263.531 436.84 264.011 435.784C264.491 434.728 264.731 433.597 264.731 432.392V431.96H262.363V430.536H264.731V428.52H266.411V430.536H268.763V431.96H266.411V432.392C266.411 433.555 266.651 434.637 267.131 435.64C267.621 436.632 268.336 437.379 269.275 437.88L268.299 439.192C267.669 438.851 267.125 438.387 266.667 437.8C266.219 437.203 265.861 436.52 265.595 435.752C265.339 436.595 264.981 437.341 264.523 437.992C264.064 438.643 263.515 439.155 262.875 439.528L261.883 438.2ZM272.587 428.04H274.267V442.28H272.587V428.04ZM286.139 430.44V428.056H287.899V436.792H286.139V434.472H284.251L284.347 435.656C283.152 435.859 281.888 435.992 280.555 436.056C279.232 436.109 277.803 436.136 276.267 436.136L276.091 434.696H277.675V430.456H276.459V429.032H283.963V430.456H282.715V434.504C283.248 434.472 283.755 434.424 284.235 434.36V433.048H286.139V431.832H284.235V430.44H286.139ZM278.315 439.656C278.315 438.824 278.742 438.179 279.595 437.72C280.448 437.261 281.632 437.032 283.147 437.032C284.651 437.032 285.83 437.261 286.683 437.72C287.536 438.179 287.963 438.824 287.963 439.656C287.963 440.488 287.536 441.133 286.683 441.592C285.83 442.051 284.651 442.28 283.147 442.28C281.632 442.28 280.448 442.051 279.595 441.592C278.742 441.133 278.315 440.488 278.315 439.656ZM279.387 434.664C280.134 434.643 280.683 434.621 281.035 434.6V430.456H279.387V434.664ZM280.059 439.656C280.059 440.072 280.32 440.392 280.843 440.616C281.376 440.84 282.144 440.952 283.147 440.952C284.128 440.952 284.886 440.84 285.419 440.616C285.952 440.392 286.219 440.072 286.219 439.656C286.219 439.24 285.952 438.925 285.419 438.712C284.896 438.488 284.139 438.376 283.147 438.376C282.144 438.376 281.376 438.488 280.843 438.712C280.32 438.925 280.059 439.24 280.059 439.656ZM301.403 428.744V429.928C301.403 430.717 301.387 431.416 301.355 432.024C301.323 432.632 301.238 433.309 301.099 434.056H302.971V435.464H299.627V438.68H297.915V435.464H296.091V438.68H294.347V435.464H290.075V434.056H299.355C299.494 433.341 299.579 432.691 299.611 432.104C299.654 431.517 299.675 430.867 299.675 430.152H291.627V428.744H301.403ZM291.499 437.432H293.259V440.616H301.787V442.024H291.499V437.432Z" fill="#6D0CA6"/>
<path d="M540.5 409L546.5 420H534.5L540.5 409Z" fill="#6D0CA6"/>
<path d="M513.011 439.672C513.694 439.672 514.254 439.448 514.691 439C515.139 438.552 515.363 437.981 515.363 437.288C515.363 436.573 515.144 435.992 514.707 435.544C514.27 435.096 513.704 434.872 513.011 434.872C512.328 434.872 511.768 435.096 511.331 435.544C510.904 435.992 510.691 436.573 510.691 437.288C510.691 437.981 510.904 438.552 511.331 439C511.768 439.448 512.328 439.672 513.011 439.672ZM508.995 437.288C508.995 436.595 509.208 435.853 509.635 435.064L512.835 429.368H514.787L512.467 433.448C512.723 433.405 512.92 433.384 513.059 433.384C513.838 433.384 514.526 433.555 515.123 433.896C515.731 434.227 516.206 434.685 516.547 435.272C516.888 435.859 517.059 436.531 517.059 437.288C517.059 438.035 516.888 438.701 516.547 439.288C516.206 439.875 515.726 440.333 515.107 440.664C514.499 440.995 513.806 441.16 513.027 441.16C512.248 441.16 511.55 440.995 510.931 440.664C510.323 440.333 509.848 439.875 509.507 439.288C509.166 438.701 508.995 438.035 508.995 437.288ZM519.692 439.384C519.98 439.384 520.215 439.48 520.396 439.672C520.577 439.853 520.668 440.088 520.668 440.376C520.668 440.675 520.577 440.915 520.396 441.096C520.215 441.288 519.98 441.384 519.692 441.384C519.393 441.384 519.148 441.288 518.956 441.096C518.775 440.915 518.684 440.675 518.684 440.376C518.684 440.088 518.775 439.853 518.956 439.672C519.148 439.48 519.393 439.384 519.692 439.384ZM527.121 430.76C526.428 430.76 525.862 430.984 525.425 431.432C524.988 431.88 524.769 432.456 524.769 433.16C524.769 433.864 524.988 434.44 525.425 434.888C525.862 435.336 526.428 435.56 527.121 435.56C527.804 435.56 528.358 435.336 528.785 434.888C529.222 434.44 529.441 433.864 529.441 433.16C529.441 432.456 529.222 431.88 528.785 431.432C528.358 430.984 527.804 430.76 527.121 430.76ZM523.073 433.16C523.073 432.403 523.244 431.731 523.585 431.144C523.926 430.557 524.401 430.099 525.009 429.768C525.628 429.437 526.326 429.272 527.105 429.272C527.884 429.272 528.577 429.437 529.185 429.768C529.804 430.099 530.284 430.557 530.625 431.144C530.966 431.731 531.137 432.403 531.137 433.16C531.137 433.864 530.924 434.6 530.497 435.368L527.297 441.064H525.345L527.665 436.984C527.409 437.027 527.212 437.048 527.073 437.048C526.294 437.048 525.601 436.883 524.993 436.552C524.396 436.211 523.926 435.747 523.585 435.16C523.244 434.573 523.073 433.907 523.073 433.16ZM532.938 439.56C533.162 439.336 533.445 439.075 533.786 438.776C534.127 438.477 534.389 438.243 534.57 438.072C535.434 437.304 536.122 436.669 536.634 436.168C537.146 435.656 537.578 435.133 537.93 434.6C538.282 434.067 538.458 433.56 538.458 433.08C538.458 432.419 538.266 431.88 537.882 431.464C537.509 431.048 537.029 430.84 536.442 430.84C535.983 430.84 535.546 430.989 535.13 431.288C534.725 431.587 534.415 431.971 534.202 432.44L532.714 431.784C533.034 431.048 533.541 430.451 534.234 429.992C534.938 429.523 535.674 429.288 536.442 429.288C537.167 429.288 537.807 429.448 538.362 429.768C538.927 430.088 539.365 430.536 539.674 431.112C539.994 431.688 540.154 432.344 540.154 433.08C540.154 433.805 539.935 434.525 539.498 435.24C539.071 435.955 538.554 436.611 537.946 437.208C537.338 437.805 536.554 438.515 535.594 439.336L535.338 439.56H540.346V441.048H533.098L532.938 439.56ZM550.916 435.704V437.992C552.239 437.917 553.439 437.8 554.516 437.64L554.644 438.92C553.268 439.187 551.86 439.357 550.42 439.432C548.98 439.507 547.38 439.544 545.62 439.544L545.412 438.104C547.002 438.104 548.25 438.093 549.156 438.072V435.704H550.916ZM545.748 434.792C546.783 434.515 547.594 434.051 548.18 433.4C548.767 432.749 549.087 432.013 549.14 431.192H546.132V429.784H549.156V428.168H550.916V429.784H553.956V431.192H550.916C550.97 431.981 551.295 432.691 551.892 433.32C552.49 433.939 553.3 434.387 554.324 434.664L553.54 436.008C552.719 435.784 552.01 435.443 551.412 434.984C550.826 434.515 550.372 433.96 550.052 433.32C549.732 433.992 549.274 434.573 548.676 435.064C548.09 435.555 547.38 435.923 546.548 436.168L545.748 434.792ZM555.364 428.024H557.108V442.312H555.364V428.024ZM570.869 429.336V430.712C570.869 431.928 570.837 433.027 570.773 434.008C570.719 434.989 570.575 436.136 570.341 437.448L568.565 437.256C568.81 436.04 568.959 434.952 569.013 433.992C569.077 433.021 569.109 431.944 569.109 430.76H560.677V429.336H570.869ZM559.349 439.016H564.085V434.056H565.829V439.016H572.229V440.456H559.349V439.016Z" fill="#6D0CA6"/>
<defs>
<linearGradient id="paint0_linear_4092_2718" x1="17.5" y1="353" x2="17.5" y2="374" gradientUnits="userSpaceOnUse">
<stop stop-color="#9735D0"/>
<stop offset="1" stop-color="#9735D0" stop-opacity="0.4"/>
</linearGradient>
<linearGradient id="paint1_linear_4092_2718" x1="58.5" y1="353" x2="58.5" y2="374" gradientUnits="userSpaceOnUse">
<stop stop-color="#9735D0"/>
<stop offset="1" stop-color="#9735D0" stop-opacity="0.4"/>
</linearGradient>
<linearGradient id="paint2_linear_4092_2718" x1="99.5" y1="353" x2="99.5" y2="374" gradientUnits="userSpaceOnUse">
<stop stop-color="#9735D0"/>
<stop offset="1" stop-color="#9735D0" stop-opacity="0.4"/>
</linearGradient>
<linearGradient id="paint3_linear_4092_2718" x1="140.5" y1="265" x2="140.5" y2="374" gradientUnits="userSpaceOnUse">
<stop stop-color="#9735D0"/>
<stop offset="1" stop-color="#9735D0" stop-opacity="0.4"/>
</linearGradient>
<linearGradient id="paint4_linear_4092_2718" x1="181.5" y1="285" x2="181.5" y2="374" gradientUnits="userSpaceOnUse">
<stop stop-color="#9735D0"/>
<stop offset="1" stop-color="#9735D0" stop-opacity="0.4"/>
</linearGradient>
<linearGradient id="paint5_linear_4092_2718" x1="222.5" y1="147" x2="222.5" y2="374" gradientUnits="userSpaceOnUse">
<stop stop-color="#9735D0"/>
<stop offset="1" stop-color="#9735D0" stop-opacity="0.4"/>
</linearGradient>
<linearGradient id="paint6_linear_4092_2718" x1="263.5" y1="232" x2="263.5" y2="374" gradientUnits="userSpaceOnUse">
<stop stop-color="#9735D0"/>
<stop offset="1" stop-color="#9735D0" stop-opacity="0.4"/>
</linearGradient>
<linearGradient id="paint7_linear_4092_2718" x1="304.5" y1="285" x2="304.5" y2="374" gradientUnits="userSpaceOnUse">
<stop stop-color="#9735D0"/>
<stop offset="1" stop-color="#9735D0" stop-opacity="0.4"/>
</linearGradient>
<linearGradient id="paint8_linear_4092_2718" x1="345.5" y1="285" x2="345.5" y2="374" gradientUnits="userSpaceOnUse">
<stop stop-color="#9735D0"/>
<stop offset="1" stop-color="#9735D0" stop-opacity="0.4"/>
</linearGradient>
<linearGradient id="paint9_linear_4092_2718" x1="386.5" y1="320" x2="386.5" y2="374" gradientUnits="userSpaceOnUse">
<stop stop-color="#9735D0"/>
<stop offset="1" stop-color="#9735D0" stop-opacity="0.4"/>
</linearGradient>
<linearGradient id="paint10_linear_4092_2718" x1="427.5" y1="353" x2="427.5" y2="374" gradientUnits="userSpaceOnUse">
<stop stop-color="#9735D0"/>
<stop offset="1" stop-color="#9735D0" stop-opacity="0.4"/>
</linearGradient>
<linearGradient id="paint11_linear_4092_2718" x1="468.5" y1="303" x2="468.5" y2="374" gradientUnits="userSpaceOnUse">
<stop stop-color="#9735D0"/>
<stop offset="1" stop-color="#9735D0" stop-opacity="0.4"/>
</linearGradient>
<linearGradient id="paint12_linear_4092_2718" x1="550.5" y1="320" x2="550.5" y2="374" gradientUnits="userSpaceOnUse">
<stop stop-color="#9735D0"/>
<stop offset="1" stop-color="#9735D0" stop-opacity="0.4"/>
</linearGradient>
</defs>
</svg>
