<svg width="339" height="484" viewBox="0 0 339 484" fill="none" xmlns="http://www.w3.org/2000/svg">
<rect x="43" width="253" height="140" rx="24" fill="white" fill-opacity="0.22"/>
<path d="M73.572 74.438H81.668V70.038H76.388V60.204H89.786V62.382H79.446V67.838H90.182L89.742 70.038H84.836V74.438H92.646L92.206 76.682H73.572V74.438ZM110.821 59.17V69.84L107.851 70.28V59.61L110.821 59.17ZM110.821 71.05V78.75L107.807 79.3H97.8414V71.05H100.899V73.25H107.807V71.05H110.821ZM100.899 77.144H107.807V75.384H100.899V77.144ZM105.035 65.198C105.035 68.146 102.571 69.73 99.7994 69.73C97.0274 69.73 94.5634 68.146 94.5634 65.198V64.296C94.5634 61.348 97.0274 59.764 99.7994 59.764C102.571 59.764 105.035 61.348 105.035 64.296V65.198ZM102.065 65.11V64.384C102.065 62.844 101.119 61.964 99.7994 61.964C98.4794 61.964 97.5334 62.844 97.5334 64.384V65.11C97.5334 66.65 98.4794 67.53 99.7994 67.53C101.119 67.53 102.065 66.65 102.065 65.11ZM122.089 62.778H115.269V60.6H125.257V62.162C125.257 68.146 121.077 72.898 116.259 75.098L114.455 73.14C118.657 71.38 122.089 66.98 122.089 63.152V62.778ZM130.845 59.17V78.86L127.853 79.3V59.61L130.845 59.17Z" fill="white"/>
<path d="M83.6094 99.9258V108.826H82.3105V99.9258H83.6094ZM73.6973 103.781C73.7041 102.011 75.1123 100.753 76.9648 100.746C78.8105 100.753 80.2188 102.011 80.2188 103.781C80.2188 105.579 78.8105 106.83 76.9648 106.83C75.1123 106.83 73.7041 105.579 73.6973 103.781ZM74.9688 103.781C74.9619 104.937 75.8232 105.695 76.9648 105.695C78.0859 105.695 78.9473 104.937 78.9473 103.781C78.9473 102.653 78.0859 101.881 76.9648 101.881C75.8232 101.881 74.9619 102.653 74.9688 103.781ZM75.5977 111.902V107.924H76.9102V110.85H83.9785V111.902H75.5977ZM95.8047 99.9258V109.168H94.4922V107.568H91.8945V106.529H94.4922V99.9258H95.8047ZM85.4688 104.697C87.0068 104.69 88.9209 104.67 90.8145 104.547C91.0195 103.303 91.0742 102.346 91.0811 101.662H86.5762V100.609H92.3867V101.088C92.3799 101.751 92.3799 102.886 92.127 104.444C92.5781 104.396 93.0225 104.349 93.4531 104.287L93.5488 105.23C92.4482 105.415 91.3066 105.538 90.1855 105.613V108.375H88.8867V105.682C87.7178 105.736 86.6104 105.75 85.6465 105.75L85.4688 104.697ZM87.2598 111.902V108.17H88.5586V110.85H96.1055V111.902H87.2598ZM107.863 99.9258V107.172H106.564V105.682H103.475V104.615H106.564V103.125H103.604C102.812 105.094 100.973 106.481 98.3203 107.24L97.8008 106.229C100.699 105.401 102.395 103.843 102.627 101.867H98.4297V100.801H104.035C104.035 101.252 103.987 101.689 103.905 102.1H106.564V99.9258H107.863ZM99.7012 109.701C99.7012 108.218 101.314 107.315 103.83 107.309C106.312 107.315 107.938 108.218 107.945 109.701C107.938 111.191 106.312 112.107 103.83 112.107C101.314 112.107 99.7012 111.191 99.7012 109.701ZM100.986 109.701C100.986 110.562 102.08 111.062 103.83 111.068C105.546 111.062 106.64 110.562 106.646 109.701C106.64 108.826 105.546 108.327 103.83 108.334C102.08 108.327 100.986 108.826 100.986 109.701ZM113.141 100.623C114.159 100.616 115.027 100.999 115.602 101.635H118.664V99.9121H119.963V107.145H118.664V105.49H115.595C115.021 106.119 114.152 106.495 113.141 106.488C111.295 106.495 109.921 105.271 109.928 103.562C109.921 101.833 111.295 100.616 113.141 100.623ZM111.172 103.562C111.165 104.636 111.992 105.395 113.141 105.381C114.255 105.395 115.082 104.636 115.082 103.562C115.082 102.462 114.255 101.73 113.141 101.744C111.992 101.73 111.165 102.462 111.172 103.562ZM111.719 109.783C111.712 108.286 113.298 107.411 115.861 107.418C118.411 107.411 119.997 108.286 120.004 109.783C119.997 111.273 118.411 112.142 115.861 112.135C113.298 112.142 111.712 111.273 111.719 109.783ZM112.99 109.783C112.983 110.624 114.063 111.116 115.861 111.109C117.659 111.116 118.732 110.624 118.732 109.783C118.732 108.908 117.659 108.423 115.861 108.416C114.063 108.423 112.983 108.908 112.99 109.783ZM116.196 102.674C116.278 102.947 116.326 103.248 116.326 103.562C116.326 103.863 116.278 104.157 116.196 104.424H118.664V102.674H116.196ZM135.453 99.9121V112.162H134.141V99.9121H135.453ZM125.391 108.881C128.645 107.329 130.237 105.121 130.49 102.264H125.979V101.225H131.803C131.803 104.813 130.278 107.917 126.074 109.934L125.391 108.881ZM146.992 99.9258V103.535H148.77V104.629H146.992V108.922H145.693V99.9258H146.992ZM137.846 106.898V100.801H139.117V102.756H142.33V100.801H143.615V106.898H137.846ZM139.117 105.859H142.33V103.781H139.117V105.859ZM139.227 111.902V108.033H140.525V110.85H147.512V111.902H139.227ZM159.078 101.129V109.086H153.35V101.129H159.078ZM154.621 108.033H157.793V102.154H154.621V108.033ZM161.129 112.162V99.9121H162.428V104.711H164.396V105.805H162.428V112.162H161.129ZM170.822 100.773V104.465H166.775V106.283C168.819 106.276 170.029 106.215 171.465 105.969L171.602 107.021C170.009 107.302 168.703 107.336 166.379 107.336H165.477V103.467H169.51V101.812H165.449V100.773H170.822ZM167.145 111.861V108.266H168.443V110.795H175.553V111.861H167.145ZM171.615 105.723V104.656H173.898V102.961H171.615V101.922H173.898V99.9258H175.197V108.936H173.898V105.723H171.615ZM186.969 100.691V105.723H181.145V100.691H186.969ZM181.951 111.123C184.18 110.904 185.923 109.79 186.012 108.689H182.443V107.705H186.039V106.557H187.324V107.705H190.934V108.689H187.352C187.44 109.756 189.143 110.877 191.371 111.123L190.934 112.121C189.013 111.889 187.427 111.068 186.688 109.988C185.937 111.082 184.33 111.889 182.402 112.121L181.951 111.123ZM182.416 104.711H185.684V101.73H182.416V104.711ZM189.361 106.912V99.9121H190.646V106.912H189.361ZM207.217 106.105V107.158H202.35V109.537H201.064V107.158H196.006V106.105H207.217ZM197.4 111.902V108.375H198.699V110.85H205.973V111.902H197.4ZM197.441 104.834V100.486H205.768V104.834H197.441ZM198.713 103.809H204.482V101.512H198.713V103.809ZM217.717 99.9121V105.039H219.562V106.133H217.717V112.162H216.418V99.9121H217.717ZM207.969 108.826C208.933 108.826 210.054 108.826 211.223 108.792V107.548C209.842 107.343 208.939 106.509 208.953 105.326C208.939 103.945 210.136 103.036 211.879 103.029C213.615 103.036 214.825 103.945 214.832 105.326C214.825 106.509 213.909 107.35 212.521 107.548V108.744C213.608 108.689 214.702 108.601 215.721 108.457L215.803 109.414C213.15 109.886 210.286 109.913 208.174 109.906L207.969 108.826ZM208.201 102.4V101.361H211.223V99.9395H212.521V101.361H215.543V102.4H208.201ZM210.17 105.326C210.17 106.105 210.854 106.591 211.879 106.584C212.904 106.591 213.581 106.105 213.588 105.326C213.581 104.54 212.904 104.041 211.879 104.041C210.854 104.041 210.17 104.54 210.17 105.326ZM231.43 109.564V110.631H220.219V109.564H225.168V106.666H226.467V109.564H231.43ZM220.738 106.105C223.015 105.723 225.127 104.021 225.127 102.141V102.031H221.148V100.965H230.459V102.031H226.48V102.141C226.48 104.021 228.606 105.688 230.938 106.051L230.418 107.076C228.436 106.707 226.61 105.559 225.811 103.945C225.024 105.579 223.213 106.748 221.271 107.131L220.738 106.105ZM236.666 101.744C236.659 103.46 237.773 104.991 239.633 105.6L238.922 106.611C237.575 106.119 236.584 105.176 236.051 103.945C235.524 105.347 234.458 106.447 232.975 106.98L232.277 105.941C234.232 105.271 235.367 103.638 235.381 101.799V100.596H236.666V101.744ZM234.287 109.824C234.28 108.341 235.853 107.479 238.43 107.486C240.993 107.479 242.565 108.341 242.572 109.824C242.565 111.301 240.993 112.142 238.43 112.135C235.853 112.142 234.28 111.301 234.287 109.824ZM235.572 109.824C235.565 110.638 236.632 111.116 238.43 111.109C240.214 111.116 241.28 110.638 241.287 109.824C241.28 108.983 240.214 108.498 238.43 108.498C236.632 108.498 235.565 108.983 235.572 109.824ZM238.648 103.467V102.4H241.232V99.9121H242.531V107.145H241.232V103.467H238.648Z" fill="white"/>
<path d="M73.81 36.25C73.81 34.186 74.206 32.56 74.998 31.372C75.802 30.184 77.092 29.59 78.868 29.59C80.644 29.59 81.928 30.184 82.72 31.372C83.524 32.56 83.926 34.186 83.926 36.25C83.926 38.338 83.524 39.976 82.72 41.164C81.928 42.352 80.644 42.946 78.868 42.946C77.092 42.946 75.802 42.352 74.998 41.164C74.206 39.976 73.81 38.338 73.81 36.25ZM80.902 36.25C80.902 35.038 80.77 34.108 80.506 33.46C80.242 32.8 79.696 32.47 78.868 32.47C78.04 32.47 77.494 32.8 77.23 33.46C76.966 34.108 76.834 35.038 76.834 36.25C76.834 37.066 76.882 37.744 76.978 38.284C77.074 38.812 77.266 39.244 77.554 39.58C77.854 39.904 78.292 40.066 78.868 40.066C79.444 40.066 79.876 39.904 80.164 39.58C80.464 39.244 80.662 38.812 80.758 38.284C80.854 37.744 80.902 37.066 80.902 36.25ZM85.2282 32.722V29.86H90.2142V43H87.0102V32.722H85.2282Z" fill="white"/>
<path d="M172.098 163.5C170.943 165.5 168.057 165.5 166.902 163.5L161.706 154.5C160.551 152.5 161.994 150 164.304 150L174.696 150C177.006 150 178.449 152.5 177.294 154.5L172.098 163.5Z" fill="white"/>
<rect x="43" y="172" width="253" height="140" rx="24" fill="white" fill-opacity="0.22"/>
<path d="M86.31 243.666C88.708 243.666 90.886 244.634 90.886 247.604C90.886 250.596 88.708 251.564 86.31 251.564H81.602C79.116 251.564 76.894 250.596 76.894 247.604C76.894 244.634 79.116 243.666 81.602 243.666H86.31ZM81.47 231.632V235.218C81.47 235.68 81.558 236.186 81.866 236.516C83.23 238.034 84.682 239.376 86.222 240.674L84.462 242.368C82.9 241.114 81.294 239.816 79.952 238.342C78.61 239.882 76.806 241.598 75.2 242.962L73.352 241.356C74.892 239.97 76.52 238.452 77.862 236.692C78.148 236.318 78.346 235.812 78.346 235.35V232.072L81.47 231.632ZM87.608 243.336V236.384H83.934V234.206H87.608V231.61L90.6 231.17V242.896L87.608 243.336ZM86.024 245.844H81.844C80.656 245.844 79.842 246.328 79.842 247.604C79.842 248.902 80.656 249.386 81.844 249.386H86.024C87.124 249.386 87.938 248.902 87.938 247.604C87.938 246.328 87.124 245.844 86.024 245.844ZM106.003 243.666C108.401 243.666 110.579 244.634 110.579 247.604C110.579 250.596 108.401 251.564 106.003 251.564H101.295C98.8094 251.564 96.5874 250.596 96.5874 247.604C96.5874 244.634 98.8094 243.666 101.295 243.666H106.003ZM105.123 234.316H101.559V235.548C101.559 236.01 101.647 236.516 101.955 236.846C103.319 238.364 104.705 239.662 106.245 240.96L104.485 242.654C102.923 241.4 101.449 240.102 100.063 238.672C98.6774 240.19 97.0274 241.774 95.4214 243.138L93.5734 241.532C95.1134 240.146 96.6974 238.782 98.0394 237.022C98.3254 236.648 98.5234 236.142 98.5234 235.68V234.316H94.6074V232.116H105.563L105.123 234.316ZM110.293 231.17V236.45H113.461L113.021 238.672H110.293V242.874L107.279 243.314V231.61L110.293 231.17ZM105.717 245.844H101.537C100.349 245.844 99.5354 246.328 99.5354 247.604C99.5354 248.902 100.349 249.386 101.537 249.386H105.717C106.817 249.386 107.631 248.902 107.631 247.604C107.631 246.328 106.817 245.844 105.717 245.844ZM122.089 234.778H115.269V232.6H125.257V234.162C125.257 240.146 121.077 244.898 116.259 247.098L114.455 245.14C118.657 243.38 122.089 238.98 122.089 235.152V234.778ZM130.845 231.17V250.86L127.853 251.3V231.61L130.845 231.17Z" fill="white"/>
<path d="M83.6094 271.926V280.826H82.3105V271.926H83.6094ZM73.6973 275.781C73.7041 274.011 75.1123 272.753 76.9648 272.746C78.8105 272.753 80.2188 274.011 80.2188 275.781C80.2188 277.579 78.8105 278.83 76.9648 278.83C75.1123 278.83 73.7041 277.579 73.6973 275.781ZM74.9688 275.781C74.9619 276.937 75.8232 277.695 76.9648 277.695C78.0859 277.695 78.9473 276.937 78.9473 275.781C78.9473 274.653 78.0859 273.881 76.9648 273.881C75.8232 273.881 74.9619 274.653 74.9688 275.781ZM75.5977 283.902V279.924H76.9102V282.85H83.9785V283.902H75.5977ZM95.8047 271.926V281.168H94.4922V279.568H91.8945V278.529H94.4922V271.926H95.8047ZM85.4688 276.697C87.0068 276.69 88.9209 276.67 90.8145 276.547C91.0195 275.303 91.0742 274.346 91.0811 273.662H86.5762V272.609H92.3867V273.088C92.3799 273.751 92.3799 274.886 92.127 276.444C92.5781 276.396 93.0225 276.349 93.4531 276.287L93.5488 277.23C92.4482 277.415 91.3066 277.538 90.1855 277.613V280.375H88.8867V277.682C87.7178 277.736 86.6104 277.75 85.6465 277.75L85.4688 276.697ZM87.2598 283.902V280.17H88.5586V282.85H96.1055V283.902H87.2598ZM107.863 271.926V279.172H106.564V277.682H103.475V276.615H106.564V275.125H103.604C102.812 277.094 100.973 278.481 98.3203 279.24L97.8008 278.229C100.699 277.401 102.395 275.843 102.627 273.867H98.4297V272.801H104.035C104.035 273.252 103.987 273.689 103.905 274.1H106.564V271.926H107.863ZM99.7012 281.701C99.7012 280.218 101.314 279.315 103.83 279.309C106.312 279.315 107.938 280.218 107.945 281.701C107.938 283.191 106.312 284.107 103.83 284.107C101.314 284.107 99.7012 283.191 99.7012 281.701ZM100.986 281.701C100.986 282.562 102.08 283.062 103.83 283.068C105.546 283.062 106.64 282.562 106.646 281.701C106.64 280.826 105.546 280.327 103.83 280.334C102.08 280.327 100.986 280.826 100.986 281.701ZM113.141 272.623C114.159 272.616 115.027 272.999 115.602 273.635H118.664V271.912H119.963V279.145H118.664V277.49H115.595C115.021 278.119 114.152 278.495 113.141 278.488C111.295 278.495 109.921 277.271 109.928 275.562C109.921 273.833 111.295 272.616 113.141 272.623ZM111.172 275.562C111.165 276.636 111.992 277.395 113.141 277.381C114.255 277.395 115.082 276.636 115.082 275.562C115.082 274.462 114.255 273.73 113.141 273.744C111.992 273.73 111.165 274.462 111.172 275.562ZM111.719 281.783C111.712 280.286 113.298 279.411 115.861 279.418C118.411 279.411 119.997 280.286 120.004 281.783C119.997 283.273 118.411 284.142 115.861 284.135C113.298 284.142 111.712 283.273 111.719 281.783ZM112.99 281.783C112.983 282.624 114.063 283.116 115.861 283.109C117.659 283.116 118.732 282.624 118.732 281.783C118.732 280.908 117.659 280.423 115.861 280.416C114.063 280.423 112.983 280.908 112.99 281.783ZM116.196 274.674C116.278 274.947 116.326 275.248 116.326 275.562C116.326 275.863 116.278 276.157 116.196 276.424H118.664V274.674H116.196ZM127.154 272.609V274.455H130.217V272.609H131.502V274.947H134.182V271.912H135.48V279.008H134.182V276.027H131.502V278.379H125.855V272.609H127.154ZM127.154 277.34H130.217V275.48H127.154V277.34ZM127.4 284.012V279.582H135.48V284.012H127.4ZM128.686 282.959H134.209V280.621H128.686V282.959ZM141.387 272.473C143.232 272.466 144.565 273.498 144.572 275.016C144.565 276.52 143.232 277.559 141.387 277.545C139.548 277.559 138.222 276.52 138.229 275.016C138.222 273.498 139.548 272.466 141.387 272.473ZM137.354 278.502C139.616 278.502 142.74 278.454 145.42 278.051L145.516 279.021C144.395 279.233 143.239 279.363 142.111 279.438V283.779H140.812V279.514C139.623 279.568 138.502 279.575 137.531 279.582L137.354 278.502ZM139.486 275.016C139.473 275.904 140.272 276.492 141.387 276.479C142.528 276.492 143.328 275.904 143.328 275.016C143.328 274.12 142.528 273.519 141.387 273.525C140.272 273.519 139.473 274.12 139.486 275.016ZM146.268 284.162V271.926H147.553V284.162H146.268ZM159.352 272.691V277.723H153.527V272.691H159.352ZM154.334 283.123C156.562 282.904 158.306 281.79 158.395 280.689H154.826V279.705H158.422V278.557H159.707V279.705H163.316V280.689H159.734C159.823 281.756 161.525 282.877 163.754 283.123L163.316 284.121C161.396 283.889 159.81 283.068 159.071 281.988C158.319 283.082 156.713 283.889 154.785 284.121L154.334 283.123ZM154.799 276.711H158.066V273.73H154.799V276.711ZM161.744 278.912V271.912H163.029V278.912H161.744ZM174.678 272.992C174.671 274.619 176.66 276.144 179.066 276.465L178.561 277.531C176.558 277.21 174.801 276.171 174.001 274.729C173.201 276.171 171.444 277.21 169.455 277.531L168.936 276.465C171.335 276.144 173.317 274.64 173.324 272.992V272.322H174.678V272.992ZM168.402 279.801V278.734H179.572V279.801H174.596V284.162H173.324V279.801H168.402ZM190.674 272.5V273.539H186.941C187.017 274.872 188.78 276.048 191.057 276.328L190.564 277.354C188.466 277.08 186.743 276.103 186.087 274.729C185.417 276.103 183.701 277.08 181.609 277.354L181.117 276.328C183.407 276.048 185.157 274.865 185.219 273.539H181.527V272.5H190.674ZM180.488 279.199V278.146H191.699V279.199H186.832V281.578H185.547V279.199H180.488ZM181.883 283.902V280.402H183.182V282.85H190.455V283.902H181.883ZM205.932 273.088V274.291C205.925 275.802 205.925 277.497 205.467 280.006L204.154 279.869C204.626 277.497 204.626 275.761 204.633 274.291V274.141H197.195V273.088H205.932ZM196.02 282.508V281.428H200.271V277.107H201.557V281.428H207.189V282.508H196.02ZM218.045 277.559V278.598H214.34V281.592H219.33V282.658H208.119V281.592H213.055V278.598H209.514V272.855H217.936V273.908H210.812V277.559H218.045ZM229.816 271.912V277.039H231.662V278.133H229.816V284.162H228.518V271.912H229.816ZM220.068 280.826C221.032 280.826 222.153 280.826 223.322 280.792V279.548C221.941 279.343 221.039 278.509 221.053 277.326C221.039 275.945 222.235 275.036 223.979 275.029C225.715 275.036 226.925 275.945 226.932 277.326C226.925 278.509 226.009 279.35 224.621 279.548V280.744C225.708 280.689 226.802 280.601 227.82 280.457L227.902 281.414C225.25 281.886 222.386 281.913 220.273 281.906L220.068 280.826ZM220.301 274.4V273.361H223.322V271.939H224.621V273.361H227.643V274.4H220.301ZM222.27 277.326C222.27 278.105 222.953 278.591 223.979 278.584C225.004 278.591 225.681 278.105 225.688 277.326C225.681 276.54 225.004 276.041 223.979 276.041C222.953 276.041 222.27 276.54 222.27 277.326Z" fill="white"/>
<path d="M73.81 208.25C73.81 206.186 74.206 204.56 74.998 203.372C75.802 202.184 77.092 201.59 78.868 201.59C80.644 201.59 81.928 202.184 82.72 203.372C83.524 204.56 83.926 206.186 83.926 208.25C83.926 210.338 83.524 211.976 82.72 213.164C81.928 214.352 80.644 214.946 78.868 214.946C77.092 214.946 75.802 214.352 74.998 213.164C74.206 211.976 73.81 210.338 73.81 208.25ZM80.902 208.25C80.902 207.038 80.77 206.108 80.506 205.46C80.242 204.8 79.696 204.47 78.868 204.47C78.04 204.47 77.494 204.8 77.23 205.46C76.966 206.108 76.834 207.038 76.834 208.25C76.834 209.066 76.882 209.744 76.978 210.284C77.074 210.812 77.266 211.244 77.554 211.58C77.854 211.904 78.292 212.066 78.868 212.066C79.444 212.066 79.876 211.904 80.164 211.58C80.464 211.244 80.662 210.812 80.758 210.284C80.854 209.744 80.902 209.066 80.902 208.25ZM85.4442 212.534C85.8522 212.21 86.0382 212.06 86.0022 212.084C87.1782 211.112 88.1022 210.314 88.7742 209.69C89.4582 209.066 90.0342 208.412 90.5022 207.728C90.9702 207.044 91.2042 206.378 91.2042 205.73C91.2042 205.238 91.0902 204.854 90.8622 204.578C90.6342 204.302 90.2922 204.164 89.8362 204.164C89.3802 204.164 89.0202 204.338 88.7562 204.686C88.5042 205.022 88.3782 205.502 88.3782 206.126H85.4082C85.4322 205.106 85.6482 204.254 86.0562 203.57C86.4762 202.886 87.0222 202.382 87.6942 202.058C88.3782 201.734 89.1342 201.572 89.9622 201.572C91.3902 201.572 92.4642 201.938 93.1842 202.67C93.9162 203.402 94.2822 204.356 94.2822 205.532C94.2822 206.816 93.8442 208.01 92.9682 209.114C92.0922 210.206 90.9762 211.274 89.6202 212.318H94.4802V214.82H85.4442V212.534Z" fill="white"/>
<path d="M172.098 335.5C170.943 337.5 168.057 337.5 166.902 335.5L161.706 326.5C160.551 324.5 161.994 322 164.304 322L174.696 322C177.006 322 178.449 324.5 177.294 326.5L172.098 335.5Z" fill="white"/>
<rect x="43" y="344" width="253" height="140" rx="24" fill="white" fill-opacity="0.22"/>
<path d="M75.31 409.836C75.31 407.768 77.51 406.668 80.26 406.668C83.01 406.668 85.21 407.768 85.21 409.836V410.166C85.21 411.838 83.802 412.894 81.822 413.268V414.214C83.384 414.126 85.056 413.972 86.464 413.73V415.864C83.34 416.304 79.952 416.436 76.564 416.436H73.902V414.28H78.742V413.268C76.74 412.916 75.31 411.838 75.31 410.166V409.836ZM90.27 403.17V409.748H93.306L92.866 411.97H90.27V416.172L87.234 416.612V403.61L90.27 403.17ZM76.828 417.382H90.27V423.256L87.19 423.696V419.56H76.828V417.382ZM85.672 406.25H74.628V404.226H78.83V403.126L81.866 402.686V404.226H86.112L85.672 406.25ZM82.35 409.924C82.35 409.154 81.58 408.692 80.26 408.692C78.94 408.692 78.17 409.154 78.17 409.924V410.078C78.17 410.848 78.94 411.376 80.26 411.376C81.58 411.376 82.35 410.848 82.35 410.078V409.924ZM101.273 403.808V408.472C101.273 408.934 101.361 409.418 101.669 409.748C103.033 411.244 104.507 412.674 106.047 413.95L104.287 415.644C102.725 414.39 101.097 412.982 99.7554 411.508C98.4134 413.048 96.6094 414.764 95.0034 416.128L93.1554 414.522C94.6954 413.158 96.3234 411.662 97.6654 409.924C97.9514 409.572 98.1494 409.066 98.1494 408.626V404.248L101.273 403.808ZM107.279 403.61L110.293 403.17V409.264H113.461L113.021 411.508H110.293V417.184L107.279 417.624V403.61ZM110.601 423.212H97.5114V416.81H100.569V421.012H111.041L110.601 423.212ZM122.089 406.778H115.269V404.6H125.257V406.162C125.257 412.146 121.077 416.898 116.259 419.098L114.455 417.14C118.657 415.38 122.089 410.98 122.089 407.152V406.778ZM130.845 403.17V422.86L127.853 423.3V403.61L130.845 403.17Z" fill="white"/>
<path d="M83.6094 443.926V452.826H82.3105V443.926H83.6094ZM73.6973 447.781C73.7041 446.011 75.1123 444.753 76.9648 444.746C78.8105 444.753 80.2188 446.011 80.2188 447.781C80.2188 449.579 78.8105 450.83 76.9648 450.83C75.1123 450.83 73.7041 449.579 73.6973 447.781ZM74.9688 447.781C74.9619 448.937 75.8232 449.695 76.9648 449.695C78.0859 449.695 78.9473 448.937 78.9473 447.781C78.9473 446.653 78.0859 445.881 76.9648 445.881C75.8232 445.881 74.9619 446.653 74.9688 447.781ZM75.5977 455.902V451.924H76.9102V454.85H83.9785V455.902H75.5977ZM95.8047 443.926V453.168H94.4922V451.568H91.8945V450.529H94.4922V443.926H95.8047ZM85.4688 448.697C87.0068 448.69 88.9209 448.67 90.8145 448.547C91.0195 447.303 91.0742 446.346 91.0811 445.662H86.5762V444.609H92.3867V445.088C92.3799 445.751 92.3799 446.886 92.127 448.444C92.5781 448.396 93.0225 448.349 93.4531 448.287L93.5488 449.23C92.4482 449.415 91.3066 449.538 90.1855 449.613V452.375H88.8867V449.682C87.7178 449.736 86.6104 449.75 85.6465 449.75L85.4688 448.697ZM87.2598 455.902V452.17H88.5586V454.85H96.1055V455.902H87.2598ZM107.863 443.926V451.172H106.564V449.682H103.475V448.615H106.564V447.125H103.604C102.812 449.094 100.973 450.481 98.3203 451.24L97.8008 450.229C100.699 449.401 102.395 447.843 102.627 445.867H98.4297V444.801H104.035C104.035 445.252 103.987 445.689 103.905 446.1H106.564V443.926H107.863ZM99.7012 453.701C99.7012 452.218 101.314 451.315 103.83 451.309C106.312 451.315 107.938 452.218 107.945 453.701C107.938 455.191 106.312 456.107 103.83 456.107C101.314 456.107 99.7012 455.191 99.7012 453.701ZM100.986 453.701C100.986 454.562 102.08 455.062 103.83 455.068C105.546 455.062 106.64 454.562 106.646 453.701C106.64 452.826 105.546 452.327 103.83 452.334C102.08 452.327 100.986 452.826 100.986 453.701ZM113.141 444.623C114.159 444.616 115.027 444.999 115.602 445.635H118.664V443.912H119.963V451.145H118.664V449.49H115.595C115.021 450.119 114.152 450.495 113.141 450.488C111.295 450.495 109.921 449.271 109.928 447.562C109.921 445.833 111.295 444.616 113.141 444.623ZM111.172 447.562C111.165 448.636 111.992 449.395 113.141 449.381C114.255 449.395 115.082 448.636 115.082 447.562C115.082 446.462 114.255 445.73 113.141 445.744C111.992 445.73 111.165 446.462 111.172 447.562ZM111.719 453.783C111.712 452.286 113.298 451.411 115.861 451.418C118.411 451.411 119.997 452.286 120.004 453.783C119.997 455.273 118.411 456.142 115.861 456.135C113.298 456.142 111.712 455.273 111.719 453.783ZM112.99 453.783C112.983 454.624 114.063 455.116 115.861 455.109C117.659 455.116 118.732 454.624 118.732 453.783C118.732 452.908 117.659 452.423 115.861 452.416C114.063 452.423 112.983 452.908 112.99 453.783ZM116.196 446.674C116.278 446.947 116.326 447.248 116.326 447.562C116.326 447.863 116.278 448.157 116.196 448.424H118.664V446.674H116.196ZM135.754 443.912V456.162H134.51V449.805H132.992V455.574H131.775V444.24H132.992V448.752H134.51V443.912H135.754ZM125.227 452.662C127.947 451.117 129.089 449.032 129.294 446.537H125.746V445.471H130.559C130.552 448.69 129.485 451.589 125.979 453.564L125.227 452.662ZM141.688 446.154C141.694 447.815 142.795 449.415 144.641 450.064L143.93 451.076C142.597 450.563 141.592 449.552 141.065 448.287C140.539 449.695 139.493 450.81 138.051 451.363L137.354 450.338C139.261 449.661 140.396 447.959 140.402 446.113V444.664H141.688V446.154ZM139.582 455.902V452.033H140.895V454.85H147.854V455.902H139.582ZM143.697 447.781V446.715H146.281V443.926H147.58V453.059H146.281V447.781H143.697ZM159.352 444.691V449.723H153.527V444.691H159.352ZM154.334 455.123C156.562 454.904 158.306 453.79 158.395 452.689H154.826V451.705H158.422V450.557H159.707V451.705H163.316V452.689H159.734C159.823 453.756 161.525 454.877 163.754 455.123L163.316 456.121C161.396 455.889 159.81 455.068 159.071 453.988C158.319 455.082 156.713 455.889 154.785 456.121L154.334 455.123ZM154.799 448.711H158.066V445.73H154.799V448.711ZM161.744 450.912V443.912H163.029V450.912H161.744ZM178.041 443.926V447.562H179.791V448.629H178.041V452.17H176.742V443.926H178.041ZM168.32 450.803C169.271 450.803 170.371 450.803 171.52 450.775V449.948C170.125 449.791 169.236 449.135 169.25 448.15C169.236 447.029 170.405 446.332 172.162 446.346C173.919 446.332 175.067 447.029 175.074 448.15C175.067 449.128 174.199 449.784 172.818 449.948V450.728C173.912 450.673 175.02 450.584 176.045 450.434L176.154 451.363C173.522 451.821 170.617 451.842 168.457 451.842L168.32 450.803ZM168.635 445.936V444.965H171.52V443.816H172.818V444.965H175.703V445.936H168.635ZM169.852 453.756V452.744H178.041V456.162H176.742V453.756H169.852ZM170.48 448.15C170.48 448.725 171.116 449.101 172.162 449.094C173.194 449.101 173.837 448.725 173.83 448.15C173.837 447.562 173.194 447.221 172.162 447.234C171.116 447.221 170.48 447.562 170.48 448.15ZM184.754 446.154C184.754 447.795 185.896 449.34 187.762 449.969L187.092 450.994C185.718 450.516 184.692 449.538 184.152 448.301C183.619 449.682 182.566 450.748 181.131 451.281L180.406 450.256C182.348 449.593 183.462 447.938 183.469 446.113V444.664H184.754V446.154ZM182.375 455.902V452.061H183.701V454.85H190.66V455.902H182.375ZM188.828 452.936V443.898H190.127V447.59H191.904V448.697H190.127V452.936H188.828Z" fill="white"/>
<path d="M73.81 380.25C73.81 378.186 74.206 376.56 74.998 375.372C75.802 374.184 77.092 373.59 78.868 373.59C80.644 373.59 81.928 374.184 82.72 375.372C83.524 376.56 83.926 378.186 83.926 380.25C83.926 382.338 83.524 383.976 82.72 385.164C81.928 386.352 80.644 386.946 78.868 386.946C77.092 386.946 75.802 386.352 74.998 385.164C74.206 383.976 73.81 382.338 73.81 380.25ZM80.902 380.25C80.902 379.038 80.77 378.108 80.506 377.46C80.242 376.8 79.696 376.47 78.868 376.47C78.04 376.47 77.494 376.8 77.23 377.46C76.966 378.108 76.834 379.038 76.834 380.25C76.834 381.066 76.882 381.744 76.978 382.284C77.074 382.812 77.266 383.244 77.554 383.58C77.854 383.904 78.292 384.066 78.868 384.066C79.444 384.066 79.876 383.904 80.164 383.58C80.464 383.244 80.662 382.812 80.758 382.284C80.854 381.744 80.902 381.066 80.902 380.25ZM85.6602 377.568C85.7082 376.284 86.1282 375.294 86.9202 374.598C87.7122 373.902 88.7862 373.554 90.1422 373.554C91.0422 373.554 91.8102 373.71 92.4462 374.022C93.0942 374.334 93.5802 374.76 93.9042 375.3C94.2402 375.84 94.4082 376.446 94.4082 377.118C94.4082 377.91 94.2102 378.558 93.8142 379.062C93.4182 379.554 92.9562 379.89 92.4282 380.07V380.142C93.1122 380.37 93.6522 380.748 94.0482 381.276C94.4442 381.804 94.6422 382.482 94.6422 383.31C94.6422 384.054 94.4682 384.714 94.1202 385.29C93.7842 385.854 93.2862 386.298 92.6262 386.622C91.9782 386.946 91.2042 387.108 90.3042 387.108C88.8642 387.108 87.7122 386.754 86.8482 386.046C85.9962 385.338 85.5462 384.27 85.4982 382.842H88.4862C88.4982 383.37 88.6482 383.79 88.9362 384.102C89.2242 384.402 89.6442 384.552 90.1962 384.552C90.6642 384.552 91.0242 384.42 91.2762 384.156C91.5402 383.88 91.6722 383.52 91.6722 383.076C91.6722 382.5 91.4862 382.086 91.1142 381.834C90.7542 381.57 90.1722 381.438 89.3682 381.438H88.7922V378.936H89.3682C89.9802 378.936 90.4722 378.834 90.8442 378.63C91.2282 378.414 91.4202 378.036 91.4202 377.496C91.4202 377.064 91.3002 376.728 91.0602 376.488C90.8202 376.248 90.4902 376.128 90.0702 376.128C89.6142 376.128 89.2722 376.266 89.0442 376.542C88.8282 376.818 88.7022 377.16 88.6662 377.568H85.6602Z" fill="white"/>
</svg>
