<svg width="1112" height="216" viewBox="0 0 1112 216" fill="none" xmlns="http://www.w3.org/2000/svg">
<path d="M365 104.536C367.667 106.076 367.667 109.925 365 111.464L353 118.392C350.333 119.932 347 118.007 347 114.928L347 101.072C347 97.9926 350.333 96.0681 353 97.6077L365 104.536Z" fill="white"/>
<path d="M767 104.536C769.667 106.076 769.667 109.925 767 111.464L755 118.392C752.333 119.932 749 118.007 749 114.928L749 101.072C749 97.9926 752.333 96.0681 755 97.6077L767 104.536Z" fill="white"/>
<rect width="308" height="216" rx="24" fill="white" fill-opacity="0.22"/>
<path d="M30.728 117.012H41.032V111.412H34.312V98.896H51.364V101.668H38.204V108.612H51.868L51.308 111.412H45.064V117.012H55.004L54.444 119.868H30.728V117.012ZM78.1364 97.58V111.16L74.3564 111.72V98.14L78.1364 97.58ZM78.1364 112.7V122.5L74.3004 123.2H61.6164V112.7H65.5084V115.5H74.3004V112.7H78.1364ZM65.5084 120.456H74.3004V118.216H65.5084V120.456ZM70.7724 105.252C70.7724 109.004 67.6364 111.02 64.1084 111.02C60.5804 111.02 57.4444 109.004 57.4444 105.252V104.104C57.4444 100.352 60.5804 98.336 64.1084 98.336C67.6364 98.336 70.7724 100.352 70.7724 104.104V105.252ZM66.9924 105.14V104.216C66.9924 102.256 65.7884 101.136 64.1084 101.136C62.4284 101.136 61.2244 102.256 61.2244 104.216V105.14C61.2244 107.1 62.4284 108.22 64.1084 108.22C65.7884 108.22 66.9924 107.1 66.9924 105.14ZM92.4768 102.172H83.7968V99.4H96.5088V101.388C96.5088 109.004 91.1888 115.052 85.0568 117.852L82.7608 115.36C88.1088 113.12 92.4768 107.52 92.4768 102.648V102.172ZM103.621 97.58V122.64L99.8128 123.2V98.14L103.621 97.58Z" fill="white"/>
<path d="M43.7334 159.762H42.0635V171.205H43.7334V159.762ZM30.9893 164.719C30.998 167.03 32.8086 168.639 35.1904 168.639C37.5635 168.639 39.374 167.03 39.374 164.719C39.374 162.442 37.5635 160.825 35.1904 160.816C32.8086 160.825 30.998 162.442 30.9893 164.719ZM32.624 164.719C32.6152 163.269 33.7227 162.275 35.1904 162.275C36.6318 162.275 37.7393 163.269 37.7393 164.719C37.7393 166.204 36.6318 167.18 35.1904 167.18C33.7227 167.18 32.6152 166.204 32.624 164.719ZM33.4326 175.16H44.208V173.807H35.1201V170.045H33.4326V175.16ZM59.4131 159.762H57.7256V168.252H54.3857V169.588H57.7256V171.645H59.4131V159.762ZM46.124 165.896L46.3525 167.25C47.5918 167.25 49.0156 167.232 50.5186 167.162V170.625H52.1885V167.074C53.6299 166.978 55.0977 166.819 56.5127 166.582L56.3896 165.369C55.8359 165.448 55.2646 165.51 54.6846 165.571C55.0098 163.567 55.0098 162.108 55.0186 161.256V160.641H47.5479V161.994H53.3398C53.3311 162.873 53.2607 164.104 52.9971 165.703C50.5625 165.861 48.1016 165.888 46.124 165.896ZM48.4268 175.16H59.7998V173.807H50.0967V170.361H48.4268V175.16ZM74.917 159.762H73.2471V162.557H69.8281C69.9336 162.029 69.9951 161.467 69.9951 160.887H62.7881V162.258H68.1846C67.8857 164.798 65.7061 166.802 61.9795 167.865L62.6475 169.166C66.0576 168.19 68.4219 166.406 69.4414 163.875H73.2471V165.791H69.2744V167.162H73.2471V169.078H74.917V159.762ZM64.4229 172.33C64.4229 174.246 66.4971 175.424 69.7314 175.424C72.9219 175.424 75.0137 174.246 75.0225 172.33C75.0137 170.423 72.9219 169.263 69.7314 169.254C66.4971 169.263 64.4229 170.423 64.4229 172.33ZM66.0752 172.33C66.0752 171.205 67.4814 170.563 69.7314 170.572C71.9375 170.563 73.3438 171.205 73.3525 172.33C73.3438 173.438 71.9375 174.079 69.7314 174.088C67.4814 174.079 66.0752 173.438 66.0752 172.33ZM81.7021 160.658C79.3291 160.649 77.5625 162.214 77.5713 164.438C77.5625 166.635 79.3291 168.208 81.7021 168.199C83.0029 168.208 84.1191 167.725 84.8574 166.916H88.8037V169.043H90.4736V159.744H88.8037V161.959H84.8662C84.1279 161.142 83.0117 160.649 81.7021 160.658ZM79.1709 164.438C79.1621 163.022 80.2256 162.082 81.7021 162.1C83.1348 162.082 84.1982 163.022 84.1982 164.438C84.1982 165.817 83.1348 166.793 81.7021 166.775C80.2256 166.793 79.1621 165.817 79.1709 164.438ZM79.874 172.436C79.8652 174.352 81.9043 175.468 85.2002 175.459C88.4785 175.468 90.5176 174.352 90.5264 172.436C90.5176 170.511 88.4785 169.386 85.2002 169.395C81.9043 169.386 79.8652 170.511 79.874 172.436ZM81.5088 172.436C81.5 171.311 82.8887 170.687 85.2002 170.678C87.5117 170.687 88.8916 171.311 88.8916 172.436C88.8916 173.517 87.5117 174.149 85.2002 174.141C82.8887 174.149 81.5 173.517 81.5088 172.436ZM85.6309 163.295H88.8037V165.545H85.6309C85.7363 165.202 85.7979 164.824 85.7979 164.438C85.7979 164.033 85.7363 163.646 85.6309 163.295ZM110.39 159.744H108.702V175.494H110.39V159.744ZM97.4521 171.275L98.3311 172.629C103.736 170.036 105.696 166.046 105.696 161.432H98.208V162.768H104.009C103.684 166.441 101.636 169.28 97.4521 171.275ZM125.226 159.762H123.556V171.328H125.226V165.809H127.511V164.402H125.226V159.762ZM113.466 168.727H120.884V160.887H119.231V163.4H115.101V160.887H113.466V168.727ZM115.101 167.391V164.719H119.231V167.391H115.101ZM115.241 175.16H125.894V173.807H116.911V170.186H115.241V175.16ZM140.765 161.309H133.399V171.539H140.765V161.309ZM135.034 170.186V162.627H139.112V170.186H135.034ZM143.401 175.494H145.071V167.32H147.603V165.914H145.071V159.744H143.401V175.494ZM155.864 160.852H148.956V162.188H154.177V164.314H148.991V169.289H150.151C153.14 169.289 154.818 169.245 156.866 168.885L156.69 167.531C154.845 167.848 153.289 167.927 150.661 167.936V165.598H155.864V160.852ZM151.136 175.107H161.946V173.736H152.806V170.484H151.136V175.107ZM156.884 167.215H159.819V171.346H161.489V159.762H159.819V162.328H156.884V163.664H159.819V165.844H156.884V167.215ZM176.624 160.746H169.136V167.215H176.624V160.746ZM170.173 174.158L170.753 175.441C173.231 175.143 175.297 174.105 176.264 172.699C177.213 174.088 179.252 175.143 181.722 175.441L182.284 174.158C179.419 173.842 177.23 172.4 177.116 171.029H181.722V169.764H177.081V168.287H175.429V169.764H170.806V171.029H175.394C175.279 172.444 173.038 173.877 170.173 174.158ZM170.771 165.914V162.082H174.972V165.914H170.771ZM179.7 168.744H181.353V159.744H179.7V168.744ZM202.657 167.707H188.243V169.061H194.747V172.119H196.399V169.061H202.657V167.707ZM190.036 175.16H201.058V173.807H191.706V170.625H190.036V175.16ZM190.089 166.072H200.794V160.482H190.089V166.072ZM191.724 164.754V161.801H199.142V164.754H191.724ZM216.157 159.744H214.487V175.494H216.157V167.742H218.53V166.336H216.157V159.744ZM203.624 171.205L203.888 172.594C206.604 172.603 210.286 172.567 213.696 171.961L213.591 170.73C212.281 170.915 210.875 171.029 209.478 171.1V169.562C211.262 169.307 212.439 168.226 212.448 166.705C212.439 164.93 210.884 163.761 208.651 163.752C206.41 163.761 204.872 164.93 204.89 166.705C204.872 168.226 206.032 169.298 207.808 169.562V171.161C206.305 171.205 204.863 171.205 203.624 171.205ZM203.923 162.943H213.362V161.607H209.478V159.779H207.808V161.607H203.923V162.943ZM206.454 166.705C206.454 165.694 207.333 165.053 208.651 165.053C209.97 165.053 210.84 165.694 210.849 166.705C210.84 167.707 209.97 168.331 208.651 168.322C207.333 168.331 206.454 167.707 206.454 166.705ZM233.788 172.154H227.407V168.428H225.737V172.154H219.374V173.525H233.788V172.154ZM220.042 167.707L220.728 169.025C223.224 168.533 225.553 167.03 226.563 164.93C227.592 167.004 229.938 168.48 232.487 168.955L233.155 167.637C230.158 167.171 227.425 165.026 227.425 162.609V162.469H232.54V161.098H220.569V162.469H225.685V162.609C225.685 165.026 222.969 167.215 220.042 167.707ZM240.521 162.1V160.623H238.868V162.17C238.851 164.534 237.392 166.635 234.878 167.496L235.774 168.832C237.682 168.146 239.053 166.731 239.729 164.93C240.415 166.512 241.689 167.725 243.421 168.357L244.335 167.057C241.944 166.274 240.512 164.306 240.521 162.1ZM237.462 172.488C237.453 174.387 239.475 175.468 242.788 175.459C246.084 175.468 248.105 174.387 248.114 172.488C248.105 170.581 246.084 169.474 242.788 169.482C239.475 169.474 237.453 170.581 237.462 172.488ZM239.114 172.488C239.105 171.407 240.477 170.783 242.788 170.783C245.082 170.783 246.453 171.407 246.462 172.488C246.453 173.534 245.082 174.149 242.788 174.141C240.477 174.149 239.105 173.534 239.114 172.488ZM243.069 164.314H246.392V169.043H248.062V159.744H246.392V162.943H243.069V164.314Z" fill="white"/>
<path d="M31.08 59C31.08 56.248 31.608 54.08 32.664 52.496C33.736 50.912 35.456 50.12 37.824 50.12C40.192 50.12 41.904 50.912 42.96 52.496C44.032 54.08 44.568 56.248 44.568 59C44.568 61.784 44.032 63.968 42.96 65.552C41.904 67.136 40.192 67.928 37.824 67.928C35.456 67.928 33.736 67.136 32.664 65.552C31.608 63.968 31.08 61.784 31.08 59ZM40.536 59C40.536 57.384 40.36 56.144 40.008 55.28C39.656 54.4 38.928 53.96 37.824 53.96C36.72 53.96 35.992 54.4 35.64 55.28C35.288 56.144 35.112 57.384 35.112 59C35.112 60.088 35.176 60.992 35.304 61.712C35.432 62.416 35.688 62.992 36.072 63.44C36.472 63.872 37.056 64.088 37.824 64.088C38.592 64.088 39.168 63.872 39.552 63.44C39.952 62.992 40.216 62.416 40.344 61.712C40.472 60.992 40.536 60.088 40.536 59ZM46.3043 54.296V50.48H52.9523V68H48.6803V54.296H46.3043Z" fill="white"/>
<rect x="402" width="308" height="216" rx="24" fill="white" fill-opacity="0.22"/>
<path d="M447.94 113.484C450.992 113.484 453.764 114.716 453.764 118.496C453.764 122.304 450.992 123.536 447.94 123.536H441.948C438.784 123.536 435.956 122.304 435.956 118.496C435.956 114.716 438.784 113.484 441.948 113.484H447.94ZM441.78 98.168V102.732C441.78 103.32 441.892 103.964 442.284 104.384C444.02 106.316 445.868 108.024 447.828 109.676L445.588 111.832C443.6 110.236 441.556 108.584 439.848 106.708C438.14 108.668 435.844 110.852 433.8 112.588L431.448 110.544C433.408 108.78 435.48 106.848 437.188 104.608C437.552 104.132 437.804 103.488 437.804 102.9V98.728L441.78 98.168ZM449.592 113.064V104.216H444.916V101.444H449.592V98.14L453.4 97.58V112.504L449.592 113.064ZM447.576 116.256H442.256C440.744 116.256 439.708 116.872 439.708 118.496C439.708 120.148 440.744 120.764 442.256 120.764H447.576C448.976 120.764 450.012 120.148 450.012 118.496C450.012 116.872 448.976 116.256 447.576 116.256ZM473.004 113.484C476.056 113.484 478.828 114.716 478.828 118.496C478.828 122.304 476.056 123.536 473.004 123.536H467.012C463.848 123.536 461.02 122.304 461.02 118.496C461.02 114.716 463.848 113.484 467.012 113.484H473.004ZM471.884 101.584H467.348V103.152C467.348 103.74 467.46 104.384 467.852 104.804C469.588 106.736 471.352 108.388 473.312 110.04L471.072 112.196C469.084 110.6 467.208 108.948 465.444 107.128C463.68 109.06 461.58 111.076 459.536 112.812L457.184 110.768C459.144 109.004 461.16 107.268 462.868 105.028C463.232 104.552 463.484 103.908 463.484 103.32V101.584H458.5V98.784H472.444L471.884 101.584ZM478.464 97.58V104.3H482.496L481.936 107.128H478.464V112.476L474.628 113.036V98.14L478.464 97.58ZM472.64 116.256H467.32C465.808 116.256 464.772 116.872 464.772 118.496C464.772 120.148 465.808 120.764 467.32 120.764H472.64C474.04 120.764 475.076 120.148 475.076 118.496C475.076 116.872 474.04 116.256 472.64 116.256ZM493.477 102.172H484.797V99.4H497.509V101.388C497.509 109.004 492.189 115.052 486.057 117.852L483.761 115.36C489.109 113.12 493.477 107.52 493.477 102.648V102.172ZM504.621 97.58V122.64L500.813 123.2V98.14L504.621 97.58Z" fill="white"/>
<path d="M445.012 159.762H443.342V171.205H445.012V159.762ZM432.268 164.719C432.276 167.03 434.087 168.639 436.469 168.639C438.842 168.639 440.652 167.03 440.652 164.719C440.652 162.442 438.842 160.825 436.469 160.816C434.087 160.825 432.276 162.442 432.268 164.719ZM433.902 164.719C433.894 163.269 435.001 162.275 436.469 162.275C437.91 162.275 439.018 163.269 439.018 164.719C439.018 166.204 437.91 167.18 436.469 167.18C435.001 167.18 433.894 166.204 433.902 164.719ZM434.711 175.16H445.486V173.807H436.398V170.045H434.711V175.16ZM460.691 159.762H459.004V168.252H455.664V169.588H459.004V171.645H460.691V159.762ZM447.402 165.896L447.631 167.25C448.87 167.25 450.294 167.232 451.797 167.162V170.625H453.467V167.074C454.908 166.978 456.376 166.819 457.791 166.582L457.668 165.369C457.114 165.448 456.543 165.51 455.963 165.571C456.288 163.567 456.288 162.108 456.297 161.256V160.641H448.826V161.994H454.618C454.609 162.873 454.539 164.104 454.275 165.703C451.841 165.861 449.38 165.888 447.402 165.896ZM449.705 175.16H461.078V173.807H451.375V170.361H449.705V175.16ZM476.195 159.762H474.525V162.557H471.106C471.212 162.029 471.273 161.467 471.273 160.887H464.066V162.258H469.463C469.164 164.798 466.984 166.802 463.258 167.865L463.926 169.166C467.336 168.19 469.7 166.406 470.72 163.875H474.525V165.791H470.553V167.162H474.525V169.078H476.195V159.762ZM465.701 172.33C465.701 174.246 467.775 175.424 471.01 175.424C474.2 175.424 476.292 174.246 476.301 172.33C476.292 170.423 474.2 169.263 471.01 169.254C467.775 169.263 465.701 170.423 465.701 172.33ZM467.354 172.33C467.354 171.205 468.76 170.563 471.01 170.572C473.216 170.563 474.622 171.205 474.631 172.33C474.622 173.438 473.216 174.079 471.01 174.088C468.76 174.079 467.354 173.438 467.354 172.33ZM482.98 160.658C480.607 160.649 478.841 162.214 478.85 164.438C478.841 166.635 480.607 168.208 482.98 168.199C484.281 168.208 485.397 167.725 486.136 166.916H490.082V169.043H491.752V159.744H490.082V161.959H486.145C485.406 161.142 484.29 160.649 482.98 160.658ZM480.449 164.438C480.44 163.022 481.504 162.082 482.98 162.1C484.413 162.082 485.477 163.022 485.477 164.438C485.477 165.817 484.413 166.793 482.98 166.775C481.504 166.793 480.44 165.817 480.449 164.438ZM481.152 172.436C481.144 174.352 483.183 175.468 486.479 175.459C489.757 175.468 491.796 174.352 491.805 172.436C491.796 170.511 489.757 169.386 486.479 169.395C483.183 169.386 481.144 170.511 481.152 172.436ZM482.787 172.436C482.778 171.311 484.167 170.687 486.479 170.678C488.79 170.687 490.17 171.311 490.17 172.436C490.17 173.517 488.79 174.149 486.479 174.141C484.167 174.149 482.778 173.517 482.787 172.436ZM486.909 163.295H490.082V165.545H486.909C487.015 165.202 487.076 164.824 487.076 164.438C487.076 164.033 487.015 163.646 486.909 163.295ZM500.998 160.641H499.328V168.059H506.588V165.035H510.033V168.867H511.703V159.744H510.033V163.646H506.588V160.641H504.936V163.014H500.998V160.641ZM500.998 166.723V164.332H504.936V166.723H500.998ZM501.314 175.301H511.703V169.605H501.314V175.301ZM502.967 173.947V170.941H510.068V173.947H502.967ZM519.297 160.465C516.933 160.456 515.228 161.783 515.236 163.734C515.228 165.668 516.933 167.004 519.297 166.986C521.67 167.004 523.384 165.668 523.393 163.734C523.384 161.783 521.67 160.456 519.297 160.465ZM514.111 168.217L514.34 169.605C515.588 169.597 517.029 169.588 518.559 169.518V175.002H520.229V169.421C521.679 169.324 523.164 169.157 524.605 168.885L524.482 167.637C521.037 168.155 517.021 168.217 514.111 168.217ZM516.854 163.734C516.836 162.583 517.864 161.81 519.297 161.818C520.765 161.81 521.793 162.583 521.793 163.734C521.793 164.877 520.765 165.633 519.297 165.615C517.864 165.633 516.836 164.877 516.854 163.734ZM525.572 175.494H527.225V159.762H525.572V175.494ZM542.395 160.746H534.906V167.215H542.395V160.746ZM535.943 174.158L536.523 175.441C539.002 175.143 541.067 174.105 542.034 172.699C542.983 174.088 545.022 175.143 547.492 175.441L548.055 174.158C545.189 173.842 543.001 172.4 542.887 171.029H547.492V169.764H542.852V168.287H541.199V169.764H536.576V171.029H541.164C541.05 172.444 538.809 173.877 535.943 174.158ZM536.541 165.914V162.082H540.742V165.914H536.541ZM545.471 168.744H547.123V159.744H545.471V168.744ZM562.1 161.133V160.271H560.359V161.133C560.351 163.251 557.802 165.185 554.717 165.598L555.385 166.969C557.942 166.556 560.201 165.22 561.229 163.365C562.258 165.22 564.517 166.556 567.092 166.969L567.742 165.598C564.648 165.185 562.091 163.225 562.1 161.133ZM554.031 169.887H560.359V175.494H561.994V169.887H568.393V168.516H554.031V169.887ZM582.666 160.5H570.906V161.836H575.652C575.573 163.541 573.323 165.062 570.379 165.422L571.012 166.74C573.701 166.389 575.907 165.132 576.769 163.365C577.612 165.132 579.827 166.389 582.525 166.74L583.158 165.422C580.231 165.062 577.964 163.55 577.867 161.836H582.666V160.5ZM569.57 169.113H576.074V172.172H577.727V169.113H583.984V167.76H569.57V169.113ZM571.363 175.16H582.385V173.807H573.033V170.66H571.363V175.16ZM602.283 161.256H591.051V162.609H600.613V162.803C600.604 164.692 600.604 166.925 599.998 169.975L601.686 170.15C602.274 166.925 602.274 164.745 602.283 162.803V161.256ZM589.539 173.367H603.9V171.979H596.658V166.424H595.006V171.979H589.539V173.367ZM617.857 167.004H608.559V162.311H617.717V160.957H606.889V168.34H611.441V172.189H605.096V173.561H619.51V172.189H613.094V168.34H617.857V167.004ZM632.992 159.744H631.322V175.494H632.992V167.742H635.365V166.336H632.992V159.744ZM620.459 171.205L620.723 172.594C623.438 172.603 627.121 172.567 630.531 171.961L630.426 170.73C629.116 170.915 627.71 171.029 626.312 171.1V169.562C628.097 169.307 629.274 168.226 629.283 166.705C629.274 164.93 627.719 163.761 625.486 163.752C623.245 163.761 621.707 164.93 621.725 166.705C621.707 168.226 622.867 169.298 624.643 169.562V171.161C623.14 171.205 621.698 171.205 620.459 171.205ZM620.758 162.943H630.197V161.607H626.312V159.779H624.643V161.607H620.758V162.943ZM623.289 166.705C623.289 165.694 624.168 165.053 625.486 165.053C626.805 165.053 627.675 165.694 627.684 166.705C627.675 167.707 626.805 168.331 625.486 168.322C624.168 168.331 623.289 167.707 623.289 166.705Z" fill="white"/>
<path d="M432.08 59C432.08 56.248 432.608 54.08 433.664 52.496C434.736 50.912 436.456 50.12 438.824 50.12C441.192 50.12 442.904 50.912 443.96 52.496C445.032 54.08 445.568 56.248 445.568 59C445.568 61.784 445.032 63.968 443.96 65.552C442.904 67.136 441.192 67.928 438.824 67.928C436.456 67.928 434.736 67.136 433.664 65.552C432.608 63.968 432.08 61.784 432.08 59ZM441.536 59C441.536 57.384 441.36 56.144 441.008 55.28C440.656 54.4 439.928 53.96 438.824 53.96C437.72 53.96 436.992 54.4 436.64 55.28C436.288 56.144 436.112 57.384 436.112 59C436.112 60.088 436.176 60.992 436.304 61.712C436.432 62.416 436.688 62.992 437.072 63.44C437.472 63.872 438.056 64.088 438.824 64.088C439.592 64.088 440.168 63.872 440.552 63.44C440.952 62.992 441.216 62.416 441.344 61.712C441.472 60.992 441.536 60.088 441.536 59ZM447.592 64.712C448.136 64.28 448.384 64.08 448.336 64.112C449.904 62.816 451.136 61.752 452.032 60.92C452.944 60.088 453.712 59.216 454.336 58.304C454.96 57.392 455.272 56.504 455.272 55.64C455.272 54.984 455.12 54.472 454.816 54.104C454.512 53.736 454.056 53.552 453.448 53.552C452.84 53.552 452.36 53.784 452.008 54.248C451.672 54.696 451.504 55.336 451.504 56.168H447.544C447.576 54.808 447.864 53.672 448.408 52.76C448.968 51.848 449.696 51.176 450.592 50.744C451.504 50.312 452.512 50.096 453.616 50.096C455.52 50.096 456.952 50.584 457.912 51.56C458.888 52.536 459.376 53.808 459.376 55.376C459.376 57.088 458.792 58.68 457.624 60.152C456.456 61.608 454.968 63.032 453.16 64.424H459.64V67.76H447.592V64.712Z" fill="white"/>
<rect x="804" width="308" height="216" rx="24" fill="white" fill-opacity="0.22"/>
<path d="M835.94 106.064C835.94 103.432 838.74 102.032 842.24 102.032C845.74 102.032 848.54 103.432 848.54 106.064V106.484C848.54 108.612 846.748 109.956 844.228 110.432V111.636C846.216 111.524 848.344 111.328 850.136 111.02V113.736C846.16 114.296 841.848 114.464 837.536 114.464H834.148V111.72H840.308V110.432C837.76 109.984 835.94 108.612 835.94 106.484V106.064ZM854.98 97.58V105.952H858.844L858.284 108.78H854.98V114.128L851.116 114.688V98.14L854.98 97.58ZM837.872 115.668H854.98V123.144L851.06 123.704V118.44H837.872V115.668ZM849.128 101.5H835.072V98.924H840.42V97.524L844.284 96.964V98.924H849.688L849.128 101.5ZM844.9 106.176C844.9 105.196 843.92 104.608 842.24 104.608C840.56 104.608 839.58 105.196 839.58 106.176V106.372C839.58 107.352 840.56 108.024 842.24 108.024C843.92 108.024 844.9 107.352 844.9 106.372V106.176ZM868.984 98.392V104.328C868.984 104.916 869.096 105.532 869.488 105.952C871.224 107.856 873.1 109.676 875.06 111.3L872.82 113.456C870.832 111.86 868.76 110.068 867.052 108.192C865.344 110.152 863.048 112.336 861.004 114.072L858.652 112.028C860.612 110.292 862.684 108.388 864.392 106.176C864.756 105.728 865.008 105.084 865.008 104.524V98.952L868.984 98.392ZM876.628 98.14L880.464 97.58V105.336H884.496L883.936 108.192H880.464V115.416L876.628 115.976V98.14ZM880.856 123.088H864.196V114.94H868.088V120.288H881.416L880.856 123.088ZM895.477 102.172H886.797V99.4H899.509V101.388C899.509 109.004 894.189 115.052 888.057 117.852L885.761 115.36C891.109 113.12 895.477 107.52 895.477 102.648V102.172ZM906.621 97.58V122.64L902.813 123.2V98.14L906.621 97.58Z" fill="white"/>
<path d="M847.044 159.762H845.374V171.205H847.044V159.762ZM834.3 164.719C834.309 167.03 836.119 168.639 838.501 168.639C840.874 168.639 842.685 167.03 842.685 164.719C842.685 162.442 840.874 160.825 838.501 160.816C836.119 160.825 834.309 162.442 834.3 164.719ZM835.935 164.719C835.926 163.269 837.033 162.275 838.501 162.275C839.942 162.275 841.05 163.269 841.05 164.719C841.05 166.204 839.942 167.18 838.501 167.18C837.033 167.18 835.926 166.204 835.935 164.719ZM836.743 175.16H847.519V173.807H838.431V170.045H836.743V175.16ZM862.724 159.762H861.036V168.252H857.696V169.588H861.036V171.645H862.724V159.762ZM849.435 165.896L849.663 167.25C850.902 167.25 852.326 167.232 853.829 167.162V170.625H855.499V167.074C856.94 166.978 858.408 166.819 859.823 166.582L859.7 165.369C859.146 165.448 858.575 165.51 857.995 165.571C858.32 163.567 858.32 162.108 858.329 161.256V160.641H850.858V161.994H856.65C856.642 162.873 856.571 164.104 856.308 165.703C853.873 165.861 851.412 165.888 849.435 165.896ZM851.737 175.16H863.11V173.807H853.407V170.361H851.737V175.16ZM878.228 159.762H876.558V162.557H873.139C873.244 162.029 873.306 161.467 873.306 160.887H866.099V162.258H871.495C871.196 164.798 869.017 166.802 865.29 167.865L865.958 169.166C869.368 168.19 871.732 166.406 872.752 163.875H876.558V165.791H872.585V167.162H876.558V169.078H878.228V159.762ZM867.733 172.33C867.733 174.246 869.808 175.424 873.042 175.424C876.232 175.424 878.324 174.246 878.333 172.33C878.324 170.423 876.232 169.263 873.042 169.254C869.808 169.263 867.733 170.423 867.733 172.33ZM869.386 172.33C869.386 171.205 870.792 170.563 873.042 170.572C875.248 170.563 876.654 171.205 876.663 172.33C876.654 173.438 875.248 174.079 873.042 174.088C870.792 174.079 869.386 173.438 869.386 172.33ZM885.013 160.658C882.64 160.649 880.873 162.214 880.882 164.438C880.873 166.635 882.64 168.208 885.013 168.199C886.313 168.208 887.43 167.725 888.168 166.916H892.114V169.043H893.784V159.744H892.114V161.959H888.177C887.438 161.142 886.322 160.649 885.013 160.658ZM882.481 164.438C882.473 163.022 883.536 162.082 885.013 162.1C886.445 162.082 887.509 163.022 887.509 164.438C887.509 165.817 886.445 166.793 885.013 166.775C883.536 166.793 882.473 165.817 882.481 164.438ZM883.185 172.436C883.176 174.352 885.215 175.468 888.511 175.459C891.789 175.468 893.828 174.352 893.837 172.436C893.828 170.511 891.789 169.386 888.511 169.395C885.215 169.386 883.176 170.511 883.185 172.436ZM884.819 172.436C884.811 171.311 886.199 170.687 888.511 170.678C890.822 170.687 892.202 171.311 892.202 172.436C892.202 173.517 890.822 174.149 888.511 174.141C886.199 174.149 884.811 173.517 884.819 172.436ZM888.941 163.295H892.114V165.545H888.941C889.047 165.202 889.108 164.824 889.108 164.438C889.108 164.033 889.047 163.646 888.941 163.295ZM914.087 159.744H912.487V165.967H910.536V160.166H908.972V174.738H910.536V167.32H912.487V175.494H914.087V159.744ZM900.552 170.994L901.519 172.154C906.027 169.614 907.398 165.888 907.407 161.748H901.22V163.119H905.781C905.518 166.327 904.05 169.008 900.552 170.994ZM921.716 162.627V160.711H920.063V162.574C920.055 164.947 918.596 167.136 916.144 168.006L917.04 169.324C918.895 168.612 920.239 167.18 920.916 165.369C921.593 166.995 922.885 168.296 924.599 168.955L925.513 167.654C923.14 166.819 921.725 164.763 921.716 162.627ZM919.009 175.16H929.644V173.807H920.696V170.186H919.009V175.16ZM924.3 164.719H927.622V171.504H929.292V159.762H927.622V163.348H924.3V164.719ZM944.427 160.746H936.938V167.215H944.427V160.746ZM937.976 174.158L938.556 175.441C941.034 175.143 943.1 174.105 944.066 172.699C945.016 174.088 947.055 175.143 949.524 175.441L950.087 174.158C947.222 173.842 945.033 172.4 944.919 171.029H949.524V169.764H944.884V168.287H943.231V169.764H938.608V171.029H943.196C943.082 172.444 940.841 173.877 937.976 174.158ZM938.573 165.914V162.082H942.774V165.914H938.573ZM947.503 168.744H949.155V159.744H947.503V168.744ZM968.456 159.762H966.786V170.361H968.456V165.809H970.706V164.438H968.456V159.762ZM955.958 168.604L956.134 169.939C958.911 169.939 962.646 169.913 966.03 169.324L965.89 168.129C964.571 168.322 963.147 168.437 961.741 168.507V167.505C963.517 167.294 964.633 166.45 964.642 165.193C964.633 163.752 963.156 162.855 960.897 162.873C958.639 162.855 957.136 163.752 957.153 165.193C957.136 166.459 958.278 167.303 960.071 167.505V168.568C958.595 168.604 957.18 168.604 955.958 168.604ZM956.362 162.346H965.45V161.098H961.741V159.621H960.071V161.098H956.362V162.346ZM957.927 172.4H966.786V175.494H968.456V171.1H957.927V172.4ZM958.735 165.193C958.735 164.438 959.553 163.998 960.897 164.016C962.225 163.998 963.051 164.438 963.042 165.193C963.051 165.932 962.225 166.415 960.897 166.406C959.553 166.415 958.735 165.932 958.735 165.193ZM977.087 162.627V160.711H975.435V162.574C975.426 164.921 973.993 167.048 971.497 167.9L972.429 169.219C974.274 168.533 975.628 167.162 976.313 165.387C977.008 166.978 978.326 168.234 980.093 168.85L980.954 167.531C978.555 166.723 977.087 164.736 977.087 162.627ZM974.028 175.16H984.681V173.807H975.733V170.221H974.028V175.16ZM982.325 171.346H983.995V165.896H986.28V164.473H983.995V159.727H982.325V171.346Z" fill="white"/>
<path d="M834.08 59C834.08 56.248 834.608 54.08 835.664 52.496C836.736 50.912 838.456 50.12 840.824 50.12C843.192 50.12 844.904 50.912 845.96 52.496C847.032 54.08 847.568 56.248 847.568 59C847.568 61.784 847.032 63.968 845.96 65.552C844.904 67.136 843.192 67.928 840.824 67.928C838.456 67.928 836.736 67.136 835.664 65.552C834.608 63.968 834.08 61.784 834.08 59ZM843.536 59C843.536 57.384 843.36 56.144 843.008 55.28C842.656 54.4 841.928 53.96 840.824 53.96C839.72 53.96 838.992 54.4 838.64 55.28C838.288 56.144 838.112 57.384 838.112 59C838.112 60.088 838.176 60.992 838.304 61.712C838.432 62.416 838.688 62.992 839.072 63.44C839.472 63.872 840.056 64.088 840.824 64.088C841.592 64.088 842.168 63.872 842.552 63.44C842.952 62.992 843.216 62.416 843.344 61.712C843.472 60.992 843.536 60.088 843.536 59ZM849.88 55.424C849.944 53.712 850.504 52.392 851.56 51.464C852.616 50.536 854.048 50.072 855.856 50.072C857.056 50.072 858.08 50.28 858.928 50.696C859.792 51.112 860.44 51.68 860.872 52.4C861.32 53.12 861.544 53.928 861.544 54.824C861.544 55.88 861.28 56.744 860.752 57.416C860.224 58.072 859.608 58.52 858.904 58.76V58.856C859.816 59.16 860.536 59.664 861.064 60.368C861.592 61.072 861.856 61.976 861.856 63.08C861.856 64.072 861.624 64.952 861.16 65.72C860.712 66.472 860.048 67.064 859.168 67.496C858.304 67.928 857.272 68.144 856.072 68.144C854.152 68.144 852.616 67.672 851.464 66.728C850.328 65.784 849.728 64.36 849.664 62.456H853.648C853.664 63.16 853.864 63.72 854.248 64.136C854.632 64.536 855.192 64.736 855.928 64.736C856.552 64.736 857.032 64.56 857.368 64.208C857.72 63.84 857.896 63.36 857.896 62.768C857.896 62 857.648 61.448 857.152 61.112C856.672 60.76 855.896 60.584 854.824 60.584H854.056V57.248H854.824C855.64 57.248 856.296 57.112 856.792 56.84C857.304 56.552 857.56 56.048 857.56 55.328C857.56 54.752 857.4 54.304 857.08 53.984C856.76 53.664 856.32 53.504 855.76 53.504C855.152 53.504 854.696 53.688 854.392 54.056C854.104 54.424 853.936 54.88 853.888 55.424H849.88Z" fill="white"/>
</svg>
