{
  "accessors": [
    {
      "bufferView": 2,
      "componentType": 5126,
      "count": 8272,
      "max": [
        79.59257507324219,
        102.48513793945313,
        172.8047332763672
      ],
      "min": [
        -79.87174987792969,
        0.04239857196807861,
        -172.82774353027344
      ],
      "type": "VEC3"
    },
    {
      "bufferView": 2,
      "byteOffset": 99264,
      "componentType": 5126,
      "count": 8272,
      "max": [
        0.9999927878379822,
        0.9998677968978882,
        0.9999021291732788
      ],
      "min": [
        -0.9999927282333374,
        -0.999967098236084,
        -0.9991708993911743
      ],
      "type": "VEC3"
    },
    {
      "bufferView": 3,
      "componentType": 5126,
      "count": 8272,
      "max": [
        0.9999995231628418,
        0.9999206066131592,
        0.9999569654464722,
        1.0
      ],
      "min": [
        -0.9999702572822571,
        -0.9997352957725525,
        -0.9999884963035583,
        -1.0
      ],
      "type": "VEC4"
    },
    {
      "bufferView": 1,
      "componentType": 5126,
      "count": 8272,
      "max": [
        0.9904037117958069,
        0.988131046295166
      ],
      "min": [
        0.009301206097006798,
        0.007431507110595703
      ],
      "type": "VEC2"
    },
    {
      "bufferView": 1,
      "byteOffset": 66176,
      "componentType": 5126,
      "count": 8272,
      "max": [
        0.9904037117958069,
        0.988131046295166
      ],
      "min": [
        0.009301206097006798,
        0.007431507110595703
      ],
      "type": "VEC2"
    },
    {
      "bufferView": 1,
      "byteOffset": 132352,
      "componentType": 5126,
      "count": 8272,
      "max": [
        0.9904037117958069,
        0.988131046295166
      ],
      "min": [
        0.009301206097006798,
        0.007431507110595703
      ],
      "type": "VEC2"
    },
    {
      "bufferView": 1,
      "byteOffset": 198528,
      "componentType": 5126,
      "count": 8272,
      "max": [
        0.9904037117958069,
        0.988131046295166
      ],
      "min": [
        0.009301206097006798,
        0.007431507110595703
      ],
      "type": "VEC2"
    },
    {
      "bufferView": 1,
      "byteOffset": 264704,
      "componentType": 5126,
      "count": 8272,
      "max": [
        0.9904037117958069,
        0.988131046295166
      ],
      "min": [
        0.009301206097006798,
        0.007431507110595703
      ],
      "type": "VEC2"
    },
    {
      "bufferView": 0,
      "componentType": 5125,
      "count": 45324,
      "type": "SCALAR"
    }
  ],
  "asset": {
    "extras": {
      "author": "Al-Deezel (https://sketchfab.com/Al-dezel)",
      "license": "CC-BY-4.0 (http://creativecommons.org/licenses/by/4.0/)",
      "source": "https://sketchfab.com/3d-models/high-quality-whale-5fd5acd9511046cabc071097ac2cd7ca",
      "title": "High quality whale"
    },
    "generator": "Sketchfab-15.20.0",
    "version": "2.0"
  },
  "bufferViews": [
    {
      "buffer": 0,
      "byteLength": 181296,
      "name": "floatBufferViews",
      "target": 34963
    },
    {
      "buffer": 0,
      "byteLength": 330880,
      "byteOffset": 181296,
      "byteStride": 8,
      "name": "floatBufferViews",
      "target": 34962
    },
    {
      "buffer": 0,
      "byteLength": 198528,
      "byteOffset": 512176,
      "byteStride": 12,
      "name": "floatBufferViews",
      "target": 34962
    },
    {
      "buffer": 0,
      "byteLength": 132352,
      "byteOffset": 710704,
      "byteStride": 16,
      "name": "floatBufferViews",
      "target": 34962
    }
  ],
  "buffers": [
    {
      "byteLength": 843056,
      "uri": "scene.bin"
    }
  ],
  "extensionsRequired": [
    "KHR_materials_pbrSpecularGlossiness"
  ],
  "extensionsUsed": [
    "KHR_materials_pbrSpecularGlossiness"
  ],
  "images": [
    {
      "uri": "textures/material_0_diffuse.png"
    },
    {
      "uri": "textures/material_0_specularGlossiness.png"
    },
    {
      "uri": "textures/material_0_normal.png"
    },
    {
      "uri": "textures/material_0_occlusion.png"
    }
  ],
  "materials": [
    {
      "doubleSided": true,
      "extensions": {
        "KHR_materials_pbrSpecularGlossiness": {
          "diffuseFactor": [
            1.0,
            1.0,
            1.0,
            1.0
          ],
          "diffuseTexture": {
            "index": 0
          },
          "glossinessFactor": 1.0,
          "specularFactor": [
            1.0,
            1.0,
            1.0
          ],
          "specularGlossinessTexture": {
            "index": 1
          }
        }
      },
      "name": "material_0",
      "normalTexture": {
        "index": 2
      },
      "occlusionTexture": {
        "index": 3
      }
    }
  ],
  "meshes": [
    {
      "name": "Object_0",
      "primitives": [
        {
          "attributes": {
            "NORMAL": 1,
            "POSITION": 0,
            "TANGENT": 2,
            "TEXCOORD_0": 3,
            "TEXCOORD_1": 4,
            "TEXCOORD_2": 5,
            "TEXCOORD_3": 6,
            "TEXCOORD_4": 7
          },
          "indices": 8,
          "material": 0,
          "mode": 4
        }
      ]
    }
  ],
  "nodes": [
    {
      "children": [
        1
      ],
      "matrix": [
        1.0,
        0.0,
        0.0,
        0.0,
        0.0,
        2.220446049250313e-16,
        -1.0,
        0.0,
        0.0,
        1.0,
        2.220446049250313e-16,
        0.0,
        0.0,
        0.0,
        0.0,
        1.0
      ],
      "name": "Sketchfab_model"
    },
    {
      "children": [
        2
      ],
      "name": "root"
    },
    {
      "children": [
        3
      ],
      "matrix": [
        1.0,
        0.0,
        0.0,
        0.0,
        0.0,
        2.220446049250313e-16,
        1.0,
        0.0,
        0.0,
        -1.0,
        2.220446049250313e-16,
        0.0,
        0.0,
        0.0,
        0.0,
        1.0
      ],
      "name": "GLTF_SceneRootNode"
    },
    {
      "children": [
        4
      ],
      "matrix": [
        0.009999999776482582,
        0.0,
        0.0,
        0.0,
        0.0,
        0.009999999776482582,
        0.0,
        0.0,
        0.0,
        0.0,
        0.009999999776482582,
        0.0,
        0.0,
        0.0,
        0.0,
        1.0
      ],
      "name": "RootNode.0_0"
    },
    {
      "children": [
        5
      ],
      "name": "humpback_whale_LOD2.1_1"
    },
    {
      "mesh": 0,
      "name": "Object_5"
    }
  ],
  "samplers": [
    {
      "magFilter": 9729,
      "minFilter": 9987,
      "wrapS": 10497,
      "wrapT": 10497
    }
  ],
  "scene": 0,
  "scenes": [
    {
      "name": "Sketchfab_Scene",
      "nodes": [
        0
      ]
    }
  ],
  "textures": [
    {
      "sampler": 0,
      "source": 0
    },
    {
      "sampler": 0,
      "source": 1
    },
    {
      "sampler": 0,
      "source": 2
    },
    {
      "sampler": 0,
      "source": 3
    }
  ]
}
