<svg width="141" height="140" viewBox="0 0 141 140" fill="none" xmlns="http://www.w3.org/2000/svg">
<rect x="0.5" width="140" height="140" rx="70" fill="#F5EBFB"/>
<g clip-path="url(#clip0_10425_34910)">
<path d="M68.1735 63.3579C67.8759 63.5297 67.5306 63.6281 67.1622 63.6281C66.0438 63.6281 65.1372 62.7215 65.1372 61.6031V54.4481C65.1372 51.4397 67.5288 49.0481 70.5372 49.0481H93.3522C96.3606 49.0481 98.7522 51.4397 98.7522 54.4481V69.7031C98.7522 72.7115 96.3606 75.1031 93.3522 75.1031H86.5L83.463 78.9274C83.0789 79.4111 82.4949 79.6931 81.8772 79.6931C81.2595 79.6931 80.6756 79.4111 80.2914 78.9274L77.2545 75.1031H73.7772C72.6588 75.1031 71.7522 74.1965 71.7522 73.0781C71.7522 72.3282 72.1598 71.6736 72.7655 71.3235L68.1735 63.3579Z" fill="#6D0CA6"/>
<path d="M47.5875 60.9287C44.5791 60.9287 42.1875 63.3203 42.1875 66.3287V80.2337C42.1875 83.2421 44.5791 85.6337 47.5875 85.6337H54.3047L57.3417 89.458C57.7258 89.9418 58.3098 90.2237 58.9275 90.2237C59.5452 90.2237 60.1292 89.9418 60.5133 89.458L63.5503 85.6337H70.4025C73.4109 85.6337 75.8025 83.2421 75.8025 80.2337V66.3287C75.8025 63.3203 73.4109 60.9287 70.4025 60.9287H47.5875Z" fill="#CC7DFA"/>
</g>
<defs>
<clipPath id="clip0_10425_34910">
<rect width="57.375" height="48.06" fill="white" transform="translate(42.1875 45.6697)"/>
</clipPath>
</defs>
</svg>
