<svg width="141" height="140" viewBox="0 0 141 140" fill="none" xmlns="http://www.w3.org/2000/svg">
<rect x="0.5" width="140" height="140" rx="70" fill="#F5EBFB"/>
<path d="M54 63.25C54 62.4216 54.6716 61.75 55.5 61.75H63C63.8284 61.75 64.5 62.4216 64.5 63.25V67.75C64.5 68.5784 63.8284 69.25 63 69.25H55.5C54.6716 69.25 54 68.5784 54 67.75V63.25Z" fill="#6D0CA6"/>
<path d="M75 40.75H90C93.3137 40.75 96 43.4363 96 46.75V96.25C96 97.9069 94.6569 99.25 93 99.25H75V40.75Z" fill="#6D0CA6"/>
<path fill-rule="evenodd" clip-rule="evenodd" d="M82.4996 87.775C81.3812 87.775 80.4746 86.8684 80.4746 85.75L80.4746 82.7738C80.4746 81.6555 81.3812 80.7488 82.4996 80.7488C83.618 80.7488 84.5246 81.6555 84.5246 82.7738L84.5246 85.75C84.5246 86.8684 83.618 87.775 82.4996 87.775ZM82.4996 78.2512C81.3812 78.2512 80.4746 77.3446 80.4746 76.2262L80.4746 70.2738C80.4746 69.1555 81.3812 68.2488 82.4996 68.2488C83.618 68.2488 84.5246 69.1555 84.5246 70.2738L84.5246 76.2262C84.5246 77.3446 83.618 78.2512 82.4996 78.2512ZM82.4996 65.7512C81.3812 65.7512 80.4746 64.8446 80.4746 63.7262L80.4746 57.7738C80.4746 56.6555 81.3812 55.7488 82.4996 55.7488C83.618 55.7488 84.5246 56.6555 84.5246 57.7738L84.5246 63.7262C84.5246 64.8446 83.618 65.7512 82.4996 65.7512ZM82.4996 53.2512C81.3812 53.2512 80.4746 52.3446 80.4746 51.2262L80.4746 48.25C80.4746 47.1316 81.3812 46.225 82.4996 46.225C83.618 46.225 84.5246 47.1316 84.5246 48.25L84.5246 51.2262C84.5246 52.3446 83.618 53.2512 82.4996 53.2512Z" fill="white"/>
<path d="M90 40.75V40.75C93.3137 40.75 96 43.4363 96 46.75V96.25C96 97.9069 94.6569 99.25 93 99.25H90V40.75Z" fill="#CC7DFA"/>
<path d="M45 51.25C45 45.451 49.701 40.75 55.5 40.75H75V64.75H46.5C45.6716 64.75 45 64.0784 45 63.25V51.25Z" fill="#CC7DFA"/>
<path d="M45 94.75H96V96.25C96 97.9069 94.6569 99.25 93 99.25H48C46.3431 99.25 45 97.9069 45 96.25V94.75Z" fill="#CC7DFA"/>
<path d="M51.3587 81.5442C51.1731 80.616 51.883 79.75 52.8296 79.75H67.1702C68.1168 79.75 68.8267 80.616 68.6411 81.5442L66.2411 93.5442C66.1008 94.2453 65.4852 94.75 64.7702 94.75H55.2296C54.5146 94.75 53.899 94.2453 53.7587 93.5442L51.3587 81.5442Z" fill="#6D0CA6"/>
</svg>
