<svg width="140" height="140" viewBox="0 0 140 140" fill="none" xmlns="http://www.w3.org/2000/svg">
<rect width="140" height="140" rx="70" fill="#F5EBFB"/>
<path d="M40 54.25C40 52.5931 41.6259 51.25 43.6316 51.25H70.8684C72.8741 51.25 74.5 52.5931 74.5 54.25V85.75C74.5 87.4069 72.8741 88.75 70.8684 88.75H43.6316C41.6259 88.75 40 87.4069 40 85.75V54.25Z" fill="#CC7DFA"/>
<path fill-rule="evenodd" clip-rule="evenodd" d="M53.5 55.75C54.3284 55.75 55 56.4216 55 57.25L55 70.75C55 71.5784 54.3284 72.25 53.5 72.25C52.6716 72.25 52 71.5784 52 70.75L52 57.25C52 56.4216 52.6716 55.75 53.5 55.75Z" fill="white"/>
<path fill-rule="evenodd" clip-rule="evenodd" d="M68.5 55.75C69.3284 55.75 70 56.4216 70 57.25L70 70.75C70 71.5784 69.3284 72.25 68.5 72.25C67.6716 72.25 67 71.5784 67 70.75L67 57.25C67 56.4216 67.6716 55.75 68.5 55.75Z" fill="white"/>
<path fill-rule="evenodd" clip-rule="evenodd" d="M46 55.75C46.8284 55.75 47.5 56.4216 47.5 57.25L47.5 70.75C47.5 71.5784 46.8284 72.25 46 72.25C45.1716 72.25 44.5 71.5784 44.5 70.75L44.5 57.25C44.5 56.4216 45.1716 55.75 46 55.75Z" fill="white"/>
<path fill-rule="evenodd" clip-rule="evenodd" d="M61 55.75C61.8284 55.75 62.5 56.4216 62.5 57.25L62.5 70.75C62.5 71.5784 61.8284 72.25 61 72.25C60.1716 72.25 59.5 71.5784 59.5 70.75L59.5 57.25C59.5 56.4216 60.1716 55.75 61 55.75Z" fill="white"/>
<path d="M40 82.75H100V85.75C100 87.4069 98.5479 88.75 96.7568 88.75H43.2432C41.4521 88.75 40 87.4069 40 85.75V82.75Z" fill="#CC7DFA"/>
<path d="M77.5 83.5V61C77.5 59.3431 78.8431 58 80.5 58H87.5074C88.303 58 89.0661 58.3161 89.6287 58.8787L99.1213 68.3713C99.6839 68.9339 100 69.697 100 70.4926V83.5C100 85.1569 98.6569 86.5 97 86.5H80.5C78.8431 86.5 77.5 85.1569 77.5 83.5Z" fill="#CC7DFA"/>
<path d="M61 88.75C61 93.7206 56.9706 97.75 52 97.75C47.0294 97.75 43 93.7206 43 88.75C43 83.7794 47.0294 79.75 52 79.75C56.9706 79.75 61 83.7794 61 88.75Z" fill="#6D0CA6"/>
<path d="M56.5 88.75C56.5 91.2353 54.4853 93.25 52 93.25C49.5147 93.25 47.5 91.2353 47.5 88.75C47.5 86.2647 49.5147 84.25 52 84.25C54.4853 84.25 56.5 86.2647 56.5 88.75Z" fill="#CC7DFA"/>
<path d="M98.5 88.75C98.5 93.7206 94.4706 97.75 89.5 97.75C84.5294 97.75 80.5 93.7206 80.5 88.75C80.5 83.7794 84.5294 79.75 89.5 79.75C94.4706 79.75 98.5 83.7794 98.5 88.75Z" fill="#6D0CA6"/>
<path d="M94 88.75C94 91.2353 91.9853 93.25 89.5 93.25C87.0147 93.25 85 91.2353 85 88.75C85 86.2647 87.0147 84.25 89.5 84.25C91.9853 84.25 94 86.2647 94 88.75Z" fill="#CC7DFA"/>
<path d="M83.5 73V64.75C83.5 63.9216 84.1716 63.25 85 63.25H86.6287C87.0265 63.25 87.408 63.408 87.6893 63.6893L94.3107 70.3107C94.592 70.592 94.75 70.9735 94.75 71.3713V73C94.75 73.8284 94.0784 74.5 93.25 74.5H85C84.1716 74.5 83.5 73.8284 83.5 73Z" fill="white"/>
<path d="M44.5 48.85C44.5 46.8618 45.9421 45.25 47.7211 45.25H66.7789C68.5579 45.25 70 46.8618 70 48.85C70 49.3471 69.6395 49.75 69.1947 49.75H45.3053C44.8605 49.75 44.5 49.3471 44.5 48.85Z" fill="#6D0CA6"/>
</svg>
