<svg width="140" height="140" viewBox="0 0 140 140" fill="none" xmlns="http://www.w3.org/2000/svg">
<rect width="140" height="140" rx="70" fill="#F5EBFB"/>
<path d="M56.5 77.5C56.5 75.0147 54.4853 73 52 73H46C43.5147 73 41.5 75.0147 41.5 77.5V98.5H56.5V77.5Z" fill="#6D0CA6"/>
<path fill-rule="evenodd" clip-rule="evenodd" d="M47.5 91.75C46.6716 91.75 46 91.0784 46 90.25L46 87.25C46 86.4216 46.6716 85.75 47.5 85.75C48.3284 85.75 49 86.4216 49 87.25L49 90.25C49 91.0784 48.3284 91.75 47.5 91.75Z" fill="white"/>
<path d="M97 77.5C97 75.0147 94.9853 73 92.5 73H86.5C84.0147 73 82 75.0147 82 77.5V98.5H97V77.5Z" fill="#6D0CA6"/>
<path fill-rule="evenodd" clip-rule="evenodd" d="M91 91.75C90.1716 91.75 89.5 91.0784 89.5 90.25L89.5 87.25C89.5 86.4216 90.1716 85.75 91 85.75C91.8284 85.75 92.5 86.4216 92.5 87.25L92.5 90.25C92.5 91.0784 91.8284 91.75 91 91.75Z" fill="white"/>
<path d="M84.5484 55.3003C84.5484 52.815 82.5337 50.8003 80.0484 50.8003H57.3984C54.9132 50.8003 52.8984 52.815 52.8984 55.3003V98.6503H84.5484V55.3003Z" fill="#CC7DFA"/>
<path fill-rule="evenodd" clip-rule="evenodd" d="M58.75 61.75C58.75 60.5074 59.7574 59.5 61 59.5H76C77.2426 59.5 78.25 60.5074 78.25 61.75C78.25 62.9926 77.2426 64 76 64H61C59.7574 64 58.75 62.9926 58.75 61.75Z" fill="white"/>
<path fill-rule="evenodd" clip-rule="evenodd" d="M61.75 70.75C61.75 69.5074 62.7574 68.5 64 68.5H73C74.2426 68.5 75.25 69.5074 75.25 70.75C75.25 71.9926 74.2426 73 73 73H64C62.7574 73 61.75 71.9926 61.75 70.75Z" fill="white"/>
<path d="M101.5 98.5C101.5 96.8431 100.157 95.5 98.5 95.5H41.5C39.8431 95.5 38.5 96.8431 38.5 98.5V100H101.5V98.5Z" fill="#CC7DFA"/>
<path fill-rule="evenodd" clip-rule="evenodd" d="M65.5 95.5L65.5 88.15C65.5 86.4103 66.8431 85 68.5 85C70.1569 85 71.5 86.4103 71.5 88.15L71.5 95.5L65.5 95.5Z" fill="white"/>
<path fill-rule="evenodd" clip-rule="evenodd" d="M63.25 49C62.0074 49 61 47.9926 61 46.75V37.75C61 36.5074 62.0074 35.5 63.25 35.5C64.4926 35.5 65.5 36.5074 65.5 37.75V40H71.95V37.75C71.95 36.5074 72.9574 35.5 74.2 35.5C75.4426 35.5 76.45 36.5074 76.45 37.75V46.75C76.45 47.9926 75.4426 49 74.2 49C72.9574 49 71.95 47.9926 71.95 46.75V44.5H65.5V46.75C65.5 47.9926 64.4926 49 63.25 49Z" fill="#6D0CA6"/>
</svg>
