<svg width="140" height="140" viewBox="0 0 140 140" fill="none" xmlns="http://www.w3.org/2000/svg">
<rect width="140" height="140" rx="70" fill="#F5EBFB"/>
<path d="M55.4877 71.0576C57.25 69.25 58 68.5003 58.3267 66.8493C58.6533 65.1982 58.3267 44.124 58.3267 43.0154C58.3267 41.35 59.4068 40 61.0499 40H63.9501C65.5932 40 66.6734 41.3501 66.6734 43.0154C66.6734 44.124 66.3467 65.1982 66.6734 66.8493C67 68.5003 67.75 69.25 69.5123 71.0576C71.2746 72.8653 83.4775 82.5816 83.4998 89.5755L83.5 89.7941C83.5 98.6845 72.4411 100 62.5 100C52.5589 100 41.5 98.6845 41.5 89.7941L41.5002 89.5755C41.5225 82.5816 53.7254 72.8653 55.4877 71.0576Z" fill="#6D0CA6"/>
<path d="M46.0001 87.396L46 89.0659C46 95.9774 54.6891 95.5001 62.5 95.5001C70.3109 95.5001 79 95.9774 79 89.0659L78.9999 87.396C78.9999 87.396 76.5936 84.659 69.25 85.75C65.1949 86.3525 62.5 89.5 57.25 90.25C52 91 46.0001 87.396 46.0001 87.396Z" fill="white"/>
<path d="M70.16 69.5539C69.8019 69.157 70.0842 68.5 70.6187 68.5H97.6702C98.4986 68.5 99.1702 69.1716 99.1702 70V97C99.1702 99.4853 97.1555 101.5 94.6702 101.5H76.6702C74.1849 101.5 72.1702 99.489 72.1702 97.0037C72.1702 91.0084 72.1702 80.8484 72.1702 78.25C72.1702 75.4663 71.8638 71.4426 70.16 69.5539Z" fill="#CC7DFA"/>
<path d="M78.6709 98.5H92.6709C94.6039 98.5 96.1709 97.1568 96.1709 95.5V76C96.1709 76 94 77.5002 90.25 77.5002C86.5 77.5002 85.75 74.5002 81.25 74.5002C76.75 74.5002 75.1709 76 75.1709 76V95.5025C75.1709 97.1593 76.7379 98.5 78.6709 98.5Z" fill="#6D0CA6"/>
<path d="M83.5 53.5C83.5 55.9853 81.4853 58 79 58C76.5147 58 74.5 55.9853 74.5 53.5C74.5 51.0147 76.5147 49 79 49C81.4853 49 83.5 51.0147 83.5 53.5Z" fill="#CC7DFA"/>
<path d="M91.6709 61C91.6709 62.6569 90.3278 64 88.6709 64C87.014 64 85.6709 62.6569 85.6709 61C85.6709 59.3431 87.014 58 88.6709 58C90.3278 58 91.6709 59.3431 91.6709 61Z" fill="#CC7DFA"/>
<path d="M94 85.75C94 83.6789 92.3211 82 90.25 82C88.1789 82 86.5 83.6789 86.5 85.75C86.5 87.8211 88.1789 89.5 90.25 89.5C92.3211 89.5 94 87.8211 94 85.75Z" fill="white"/>
<path d="M85 91.75C85 90.5074 83.9926 89.5 82.75 89.5C81.5074 89.5 80.5 90.5074 80.5 91.75C80.5 92.9926 81.5074 94 82.75 94C83.9926 94 85 92.9926 85 91.75Z" fill="white"/>
</svg>
