<svg width="141" height="140" viewBox="0 0 141 140" fill="none" xmlns="http://www.w3.org/2000/svg">
<rect x="0.5" width="140" height="140" rx="70" fill="#F5EBFB"/>
<g clip-path="url(#clip0_10414_13656)">
<path fill-rule="evenodd" clip-rule="evenodd" d="M74.863 39.655C72.1432 38.115 68.8565 38.115 66.1368 39.655L51.5721 47.9021C48.6435 49.5604 46.8213 52.7476 46.8213 56.2114V71.7886C46.8213 75.2524 48.6435 78.4396 51.5721 80.0979L66.1368 88.345C68.8565 89.885 72.1433 89.885 74.863 88.345L89.4276 80.0979C92.3562 78.4396 94.1784 75.2524 94.1784 71.7886V56.2114C94.1784 52.7476 92.3562 49.5604 89.4276 47.9021L74.863 39.655Z" fill="#CC7DFA"/>
<path fill-rule="evenodd" clip-rule="evenodd" d="M73.9455 44.7745C71.7977 43.5583 69.202 43.5583 67.0541 44.7745L55.5517 51.2876C53.2389 52.5972 51.7998 55.1142 51.7998 57.8498V70.1517C51.7998 72.8873 53.2389 75.4043 55.5517 76.714L67.0541 83.2271C69.202 84.4433 71.7977 84.4433 73.9455 83.2271L85.4479 76.714C87.7607 75.4044 89.1998 72.8873 89.1998 70.1517V57.8498C89.1998 55.1142 87.7607 52.5972 85.4479 51.2876L73.9455 44.7745Z" fill="#6D0CA6"/>
<path d="M72.0001 54.25C72.8285 54.25 73.5001 54.9216 73.5001 55.75V72.9897C73.5001 73.4079 73.158 73.7454 72.7399 73.7397L70.3424 73.7071C69.9322 73.7015 69.6026 73.3674 69.6026 72.9571V58.8346C69.6026 58.6202 69.3841 58.475 69.1864 58.558L66.489 59.6915C66.0914 59.8586 65.6353 59.6568 65.4914 59.2503L64.7345 57.1116C64.6026 56.7389 64.7827 56.3279 65.146 56.1721L69.3452 54.3714C69.532 54.2913 69.7331 54.25 69.9363 54.25H72.0001Z" fill="white"/>
<path fill-rule="evenodd" clip-rule="evenodd" d="M42.75 92.5C42.2529 92.5 41.9204 91.9035 41.2554 90.7106L41.0834 90.402C40.8944 90.063 40.7999 89.8935 40.6526 89.7817C40.5053 89.6698 40.3218 89.6283 39.9548 89.5453L39.6208 89.4697C38.3294 89.1775 37.6838 89.0314 37.5301 88.5374C37.3765 88.0435 37.8167 87.5287 38.6971 86.4993L38.9248 86.233C39.175 85.9404 39.3001 85.7942 39.3563 85.6132C39.4126 85.4322 39.3937 85.2371 39.3559 84.8468L39.3214 84.4914C39.1883 83.1179 39.1218 82.4312 39.524 82.1259C39.9261 81.8206 40.5307 82.0989 41.7397 82.6556L42.0525 82.7997C42.3961 82.9579 42.5679 83.037 42.75 83.037C42.9321 83.037 43.1039 82.9579 43.4475 82.7997L43.7603 82.6556C44.9693 82.0989 45.5739 81.8206 45.976 82.1259C46.3782 82.4312 46.3117 83.1179 46.1786 84.4914L46.1441 84.8468C46.1063 85.2371 46.0874 85.4322 46.1437 85.6132C46.1999 85.7942 46.325 85.9404 46.5752 86.2329L46.803 86.4993C47.6833 87.5287 48.1235 88.0435 47.9699 88.5374C47.8162 89.0314 47.1706 89.1775 45.8792 89.4697L45.5452 89.5453C45.1782 89.6283 44.9947 89.6698 44.8474 89.7817C44.7001 89.8935 44.6056 90.063 44.4166 90.402L44.2446 90.7106C43.5796 91.9035 43.2471 92.5 42.75 92.5Z" fill="#CC7DFA"/>
<path fill-rule="evenodd" clip-rule="evenodd" d="M59.25 91C58.7529 91 58.4204 91.5965 57.7554 92.7894L57.5834 93.098C57.3944 93.437 57.2999 93.6065 57.1526 93.7183C57.0053 93.8302 56.8218 93.8717 56.4548 93.9547L56.1208 94.0303C54.8294 94.3225 54.1838 94.4686 54.0301 94.9626C53.8765 95.4565 54.3167 95.9713 55.1971 97.0007L55.4248 97.267C55.675 97.5596 55.8001 97.7058 55.8563 97.8868C55.9126 98.0678 55.8937 98.2629 55.8559 98.6532L55.8214 99.0086C55.6883 100.382 55.6218 101.069 56.024 101.374C56.4261 101.679 57.0307 101.401 58.2397 100.844L58.5525 100.7C58.8961 100.542 59.0679 100.463 59.25 100.463C59.4321 100.463 59.6039 100.542 59.9475 100.7L60.2603 100.844C61.4693 101.401 62.0739 101.679 62.476 101.374C62.8782 101.069 62.8117 100.382 62.6786 99.0086L62.6441 98.6532C62.6063 98.2629 62.5874 98.0678 62.6437 97.8868C62.6999 97.7058 62.825 97.5596 63.0752 97.2671L63.303 97.0007C64.1833 95.9713 64.6235 95.4565 64.4699 94.9626C64.3162 94.4686 63.6706 94.3225 62.3792 94.0303L62.0452 93.9547C61.6782 93.8717 61.4947 93.8302 61.3474 93.7183C61.2001 93.6065 61.1056 93.437 60.9166 93.098L60.7446 92.7894C60.0796 91.5965 59.7471 91 59.25 91Z" fill="#CC7DFA"/>
<path fill-rule="evenodd" clip-rule="evenodd" d="M81.75 91C81.2529 91 80.9204 91.5965 80.2554 92.7894L80.0834 93.098C79.8944 93.437 79.7999 93.6065 79.6526 93.7183C79.5053 93.8302 79.3218 93.8717 78.9548 93.9547L78.6208 94.0303C77.3294 94.3225 76.6838 94.4686 76.5301 94.9626C76.3765 95.4565 76.8167 95.9713 77.6971 97.0007L77.9248 97.267C78.175 97.5596 78.3001 97.7058 78.3563 97.8868C78.4126 98.0678 78.3937 98.2629 78.3559 98.6532L78.3214 99.0086C78.1883 100.382 78.1218 101.069 78.524 101.374C78.9261 101.679 79.5307 101.401 80.7397 100.844L81.0525 100.7C81.3961 100.542 81.5679 100.463 81.75 100.463C81.9321 100.463 82.1039 100.542 82.4475 100.7L82.7603 100.844C83.9693 101.401 84.5739 101.679 84.976 101.374C85.3782 101.069 85.3117 100.382 85.1786 99.0086L85.1441 98.6532C85.1063 98.2629 85.0874 98.0678 85.1437 97.8868C85.1999 97.7058 85.325 97.5596 85.5752 97.2671L85.803 97.0007C86.6833 95.9713 87.1235 95.4565 86.9699 94.9626C86.8162 94.4686 86.1706 94.3225 84.8792 94.0303L84.5452 93.9547C84.1782 93.8717 83.9947 93.8302 83.8474 93.7183C83.7001 93.6065 83.6056 93.437 83.4166 93.098L83.2446 92.7894C82.5796 91.5965 82.2471 91 81.75 91Z" fill="#CC7DFA"/>
<path fill-rule="evenodd" clip-rule="evenodd" d="M98.25 92.5C97.7529 92.5 97.4204 91.9035 96.7554 90.7106L96.5834 90.402C96.3944 90.063 96.2999 89.8935 96.1526 89.7817C96.0053 89.6698 95.8218 89.6283 95.4548 89.5453L95.1208 89.4697C93.8294 89.1775 93.1838 89.0314 93.0301 88.5374C92.8765 88.0435 93.3167 87.5287 94.1971 86.4993L94.4248 86.233C94.675 85.9404 94.8001 85.7942 94.8563 85.6132C94.9126 85.4322 94.8937 85.2371 94.8559 84.8468L94.8214 84.4914C94.6883 83.1179 94.6218 82.4312 95.024 82.1259C95.4261 81.8206 96.0307 82.0989 97.2397 82.6556L97.5525 82.7997C97.8961 82.9579 98.0679 83.037 98.25 83.037C98.4321 83.037 98.6039 82.9579 98.9475 82.7997L99.2603 82.6556C100.469 82.0989 101.074 81.8206 101.476 82.1259C101.878 82.4312 101.812 83.1179 101.679 84.4914L101.644 84.8468C101.606 85.2371 101.587 85.4322 101.644 85.6132C101.7 85.7942 101.825 85.9404 102.075 86.2329L102.303 86.4993C103.183 87.5287 103.623 88.0435 103.47 88.5374C103.316 89.0314 102.671 89.1775 101.379 89.4697L101.045 89.5453C100.678 89.6283 100.495 89.6698 100.347 89.7817C100.2 89.8935 100.106 90.063 99.9166 90.402L99.7446 90.7106C99.0796 91.9035 98.7471 92.5 98.25 92.5Z" fill="#CC7DFA"/>
</g>
<defs>
<clipPath id="clip0_10414_13656">
<rect x="37.5" y="38.5" width="66" height="63" rx="5.29412" fill="white"/>
</clipPath>
</defs>
</svg>
